/* XPM */
static char *__resized[] = {
/* columns rows colors chars-per-pixel */
"80 80 225 2 ",
"   c #08071D",
".  c #0B0925",
"X  c #110A2D",
"o  c #0E1327",
"O  c #13192B",
"+  c #1A1939",
"@  c #231637",
"#  c #1C2838",
"$  c #1F303F",
"%  c #272829",
"&  c #2D2D2C",
"*  c #332C27",
"=  c #332E2A",
"-  c #382F29",
";  c #2C302F",
":  c #36312D",
">  c #3C332C",
",  c #252E32",
"<  c #342F33",
"1  c #243335",
"2  c #2C3434",
"3  c #29363B",
"4  c #263A3C",
"5  c #2C3C3B",
"6  c #333532",
"7  c #3B3632",
"8  c #353A36",
"9  c #3C3A34",
"0  c #31363B",
"q  c #3C3739",
"w  c #333B3B",
"e  c #3D3A3B",
"r  c #41362E",
"t  c #43382F",
"y  c #423731",
"u  c #453A32",
"i  c #4A3E34",
"p  c #453C3C",
"a  c #493F3C",
"s  c #2E403E",
"d  c #35433D",
"f  c #39433C",
"g  c #444137",
"h  c #4D4136",
"j  c #4E4239",
"k  c #514337",
"l  c #53453A",
"z  c #58473B",
"x  c #56483B",
"c  c #5B4B3D",
"v  c #604F3F",
"b  c #61503F",
"n  c #262A47",
"m  c #263843",
"M  c #393D41",
"N  c #302C53",
"B  c #342C50",
"V  c #343456",
"C  c #463E40",
"Z  c #2B4345",
"A  c #284746",
"S  c #2A4748",
"D  c #2C4A4A",
"F  c #324444",
"G  c #334B45",
"H  c #3B4A43",
"J  c #394648",
"K  c #324C4A",
"L  c #34524B",
"P  c #3B554D",
"I  c #344855",
"U  c #2E5453",
"Y  c #325454",
"T  c #325B56",
"R  c #335B5B",
"E  c #3A595A",
"W  c #2C6058",
"Q  c #34625C",
"!  c #3B645B",
"~  c #38675D",
"^  c #355C60",
"/  c #366562",
"(  c #366A63",
")  c #3B6B63",
"_  c #386865",
"`  c #3A6E6B",
"'  c #3D7364",
"]  c #37716E",
"[  c #3C746B",
"{  c #3E7A6E",
"}  c #3A6B74",
"|  c #3A7674",
" . c #454142",
".. c #4B4241",
"X. c #544744",
"o. c #5E4E40",
"O. c #5E5041",
"+. c #604F40",
"@. c #625141",
"#. c #695644",
"$. c #41625C",
"%. c #514E6F",
"&. c #436A62",
"*. c #4A6A68",
"=. c #467469",
"-. c #417C6D",
";. c #457D73",
":. c #3F837C",
">. c #41816F",
",. c #438474",
"<. c #448A75",
"1. c #488979",
"2. c #518877",
"3. c #48937C",
"4. c #4B937D",
"5. c #3D7A85",
"6. c #5C6686",
"7. c #72748E",
"8. c #3F8380",
"9. c #418883",
"0. c #4A9584",
"q. c #4E9C84",
"w. c #46948D",
"e. c #4F9F88",
"r. c #509E84",
"t. c #549C86",
"y. c #428A91",
"u. c #4A9C94",
"i. c #469499",
"p. c #629E87",
"a. c #4EA384",
"s. c #4FA089",
"d. c #51A186",
"f. c #51A38A",
"g. c #55AB8D",
"h. c #5BAA8E",
"j. c #4EA698",
"k. c #4CA49B",
"l. c #54AC93",
"z. c #54AD98",
"x. c #57B395",
"c. c #59B493",
"v. c #5CBB96",
"b. c #56B29B",
"n. c #5DBC99",
"m. c #63A48B",
"M. c #66A98C",
"N. c #69AC92",
"B. c #6CB89A",
"V. c #73B89A",
"C. c #4A9BAC",
"Z. c #4EA8A4",
"A. c #51AEA7",
"S. c #55B6A6",
"D. c #5ABCA5",
"F. c #57BBAC",
"G. c #59BEAC",
"H. c #4CA7B6",
"J. c #50AAB4",
"K. c #55B9B5",
"L. c #5EC39B",
"P. c #61C59C",
"I. c #68C39D",
"U. c #63C99F",
"Y. c #5FC2A1",
"T. c #5BC2AE",
"R. c #5BC5B3",
"E. c #5DC9B5",
"W. c #5BC5B8",
"Q. c #5DCBBB",
"!. c #5FD0BD",
"~. c #65CCA1",
"^. c #6BCFA4",
"/. c #76C9A5",
"(. c #66D1A4",
"). c #6AD4A6",
"_. c #69D7A8",
"`. c #6BDBAB",
"'. c #78D8AC",
"]. c #6EE1AE",
"[. c #79E4B2",
"{. c #53B5C5",
"}. c #5CCCC5",
"|. c #5BCAD8",
" X c #5ED1D1",
".X c #60CFC2",
"XX c #61D6C9",
"oX c #60D5D7",
"OX c #63DAD4",
"+X c #66E2DC",
"@X c #5FD3E5",
"#X c #63DDE7",
"$X c #67E5E7",
"%X c #69EAF2",
"&X c #9396AB",
"*X c #95A2BA",
"=X c #84CBAA",
"-X c #87D5AE",
";X c #8DDBB3",
":X c #91DAB6",
">X c #87E6B7",
",X c #8DE9B9",
"<X c #95ECBD",
"1X c #9AE9BE",
"2X c #8EF2BF",
"3X c #94F0BE",
"4X c #99F0BF",
"5X c #ABF5BF",
"6X c #C8FDBF",
"7X c #D4FFBF",
"8X c #ABB0C4",
"9X c #95EBC1",
"0X c #9AF3C2",
"qX c #99F6C4",
"wX c #A3F5C3",
"eX c #AEF7CF",
"rX c #A4FACA",
"tX c #AAF8C8",
"yX c #B6FBC7",
"uX c #A6FCD0",
"iX c #ABFCD3",
"pX c #C9FDC4",
"aX c #C4FDCB",
"sX c #D6FEC5",
"dX c #C9FBD3",
/* pixels */
"> - - > r t t t t t t t t t i t r h u y h h i i t t t r r t t t t t r r t i t t t u h t t h h h i i h i t g h t r * * - r t k i t u i i t i i i i i r r i t t - ",
"- > > > t t i i i i t t t t i t u i u u t i k t t i i i i t t i i t t t i i i t t t t t i h k k i h i i i h i k i t r r r t t r r i i i i i i i z i r r t t r - ",
"- > t t t i k k k i i t i i i i i i h u > i k i t i i i h i i h t t i i i k i i i t t u h k k k k h k h h h g h z z i r h t r - - i k i i z i i v i t t t i t - ",
"> t i u t t h k k i i i i i i i i h h h u h k h i i r t h u u i i i z z v z z i l h u k k k k l k h k k k h > > t t t k t r > > r r l l i i i i i i i t t t t r ",
"t i h h h i h h k h i i i i i i h l k h k l k h i i t u k u y u i k k k k z k i l i u k l k k l z k l l k r * & & * > h k t > > > u k z h h i k i i i i i i r - ",
"t i h h k k k h h j k i k k k i k l k k z z k h i i h l l u r i i i i i i z z i u y t h l k k l z z z x h > , 1 $ 1 > g k k r r u i l z k h k c z i i i i i r - ",
"> u k k x z x x l x k u k l k k k i u u k z l h h j k j h i h l l k i k z z z k i i i j k k l z c z z k g g $.=.>.~ L f h h h k c z z l k k k l i i i i i i i t ",
"t i k k l z x k l l h u h z k l h i y u j z x j k k k j h h j l k k k k z z z z j i l k h k l l z l h t f =.m.V.I.4.' d > > t v v c z k l k k h i i i i i i i i ",
"u h h l x k k h h j j h h l l l l l j i j x x l j j k l j j k l k k i l l l x x h h h k k h x c z k > 1 $.t./.2X>XU.3.~ 4 % * k c l x l k x x h h g u i h h t r ",
"u i h l k k i i i h k x h l x l k x j h l x c k i k z c c l l k k i i l x l k k h t y h j h l c +.k : , ! N.>XqX2X).l.{ Z , : r k x h h k z k t i h h u i i t > ",
"u i h l l k g t u j x c x l x l l x l l l l l l z l x c c x x l k i k k l h h h h u u h h l l b #.k : 1 / m.'.>X[.~.e.{ Z 2 r t i h h i l c x h h k h h i t > > ",
"r i h h h h h h h l c c x x l l l x l c c c c c o.c c x c c c x j a l l h h u h h j h l k x x c +.k 7 & Y ,.g.L.n.e.{ ^ 5 7 u h i u j x l x z c c k h h h u t t ",
"t i i k h h h h l x c O.x l l c x j j l +.c c l c c x x x c x x k k j l x h h h u h j j j h u h i u y 9 f ! >.q.q.,.~ G 8 t h h l h l x c l l l x x k h u u u i ",
"i i k l h g h k c c c @.c l x x l j h x @.+.c l k l l l l l j l l l h l x i h l y g l l h u y > u i i h g d T ( ` R G 9 u i h x l l z x c k h k l x x k h u u t ",
"i i h x l l x c c c b O.b c x l k z z c #.+.c l h h j x x h u j l k h h h u h l l j l c x l j l x c c c h 9 2 4 m 3 9 u k l l c x l l z l l l c c l l h i h i t ",
"u i h l l x c c c c c c c c x l l c c v v v o.x l j j l x h h h l k i j h u u i k x c c c c x x x l c l k u t 6 ; : i k x l j x l i i t u l l i l l j i i h i t ",
"i i k l z z x x x c c l x X.x c x x x c c c c c z l j j l j j l x x h h j j u i l c @.c c c x l z l l z h h l g > h l x x h t h h h t > > l x u l c h i i h t t ",
"i i i z z z j z @.c z l j l x c c h i h h l c z z c l j h h h x c x h k x j j j l c @.#.c c c c x l l x h h l l l c c x x h > - u k x h u l b O.c c l j h h u t ",
"t i i z x l a l O.x x j l l x c x h h h h k l z x x l l j x x c c c h k x l l l l c b c c c c x x l x x j h l c x c c c h 9 ; ; 9 l x k h c O.@.c c l k h h t > ",
"i i k l z l j l x x x x x x j x x l j l k k l l x x x l l c c x c x h g h h h i i j l k k l h h k l x x l l x c c l l l f d L s f g h h l b @.@.c c c l k h h r ",
"i h l l l k z l h l l l x x j l x l x X.c c x l x o.@.c h c c x x x h > - & = & : : > : : : : > u i h c x l c c c l t f f ~ <.,.! d > h c b b #.c l c c c k i > ",
"t i l l l k x x l l x c x x z x c c c +.@.c c c c O.o.x k l x x z l g 8 5 Z 5 5 5 s 5 5 s Z d w 9 u l c x x c c c k r : L >.h.g.>.A 6 t c b b c l h h c v k t r ",
"i i h l l l x o.b x x @.o.l x c c o.#.+.@.c c c O.o.x x l h i h h h f P &.=.&.~ ~ Q Q Q Q ( ~ P 9 y i l l k x c c k > 6 P <.c.g.>.L 6 r x x l h h h t k c k i i ",
"i h k k l l l x c c c O.o.x l x c +.o.o.c c c c c o.c c x y & % % * f 2.N.V.B.h.q.3.:.3.q.q.q.-.L 2 % = : y c O.b c k f f ~ ,.>.! f t h x x x x h h l c c k i t ",
"i i k l l l j k l x c o.c c l h l @.c c c c c c c c c l h 9 5 A 3 Z =.V.;XwX:X;X^.I.v.L.P.U.P.f.' K 4 Z 5 8 l x c b x h f f L L d g h c c c x x l l c b z k k t ",
"i i i l l j j j l z c c c l l h l c c x l l z c l z l i 6 H &.2.>.2.N.:XtXiXiXqX2X[.`.`.`.`.`.P.d.-.` [ T G f h l b c k k r ; & 7 h c c b c c k z x z c z k h t ",
"i i l z c l l l l x l l z c c l k z x c c c x l l k t : 3 &.p././.V.-X,XrXrXrXqX3X,X[._.).(.(.U.v.f.q.q.-.T w 6 t x c l l h t > 9 h x c c b b x l l z l z k i t ",
"i i l c c x c c X.x x x c +.c c l k k k l l l l j u : d ) p.=XwXwX1X4X4X0X0X0XqX5X4X>X'.~.U.U.U.U.U.L.c.q.{ / F 9 h k x l l l l l x l j x b b b l k l k k k k i ",
"i k l z z x c c x c c c @.#.o.c X.c j i j i h c h > w &.M.-XyXdXdXaXyXwX<X<X<XqXtX5X,X'.U.L.P.(._.).U.P.l.j.w.` G 9 h h l c b c o.c l j x c b b b x l k k k i t ",
"i k k k j j l x c b O.c O.@.+.o.c c z k k k h h 9 5 &.M.;X5XaXsXsXpXyX5X4X<X<X0XtX4X>X`.U.L.P.(.(.^.P.c.l.b.F.u.] Z : t l c b c c o.c c c c b c c b b l h k h t ",
"i i l k l l l x c b b o.@.@.c c z z c c x l a g F E m.-XyXdXsX7XsX6XyX4X0X0X0X0X4X,X-X).U.L.U.U.(.U.v.g.l.S.E.S.w./ Z 9 l x c c c c c b c c b k x b b l k k i t ",
"i l l z c @.x x b @.c c #.@.l j k k c +.o.i 9 H =.m.-X5XpXsXsX7X7X5X5X0X<X0X0X0X,X[.).~.U.L.U.U.(.U.v.g.g.l.D.G.S.w.[ L 8 u j c c b c b b c c k x c c l k k t r ",
"h l x x x X.x x c @.c x c c l x c @.c c c 9 3 &.h.;XtXaXsXsXsXpX5X5X0X3X0X0X4X,X[.(.P.U.U.U.U.U.~.U.v.g.f.f.g.S.T.F.u.` M > h h l c b b b b c c c c l l x z h r ",
"l x x c c x l x c c x j l l c c @.@.c l l : 1 =.V.0XyXaXpXpXpXaXtXrXqXqX4X<X<X'.).~.L.L.U.U.U.U.U.v.c.g.d.4.r.x.E.Q.A.| 4 ; i i k c l c b b b c x x l z x x k h ",
"x c c b c c x c b l h h h j b @.c l k l k * , &.B.1XeXyXyXyXyXeXiXtXrXrX4X>X'.).(.L.L.L.U.~.~.U.v.c.g.f.d.q.d.b.E.W.Z.] 1 = h k l l h k l b c z h k l k h k h h ",
"x x c c c x x x c x l l h j c c x l k h 9 6 s ,.V.<XtXuX4X<X:X=X=X-X:X3X<X>X).P.L.L.~.U.U.~.U.P.c.f.d.f.d.d.d.b.T.E.A.;.D 6 u h l k g g l x z x x x k k h h h h ",
"l l z z l l l l c k l c x l x x x x h 9 8 G ' h.'.9XiXiX9X/.M.;.=.2.M.'.>X[.(.L.L.L.(.~.L.(.Y.B.c.e.q.e.e.r.d.z.G.E.K.u.] K f i h h k l l k x c c c l l l h h t ",
"k k l l l l l x k h h b b c l x c x t 8 K ' a.).>X9XiXiX1XN.&.# O 1 &.c.`.[._.L.U.L.U.U.(.~.(.L.c.f.e.e.e.f.r.l.F.Q.Q.R.k.{ Y w g l x l l c c x l x c c x h h t ",
"k h k k j h k x h u h l x x l x x k > 8 Y [ q.I.-X,X9X:XB.*.n X @ B &.2.g.L.U.~.~.U.~.~.~.~.~.P.c.f.e.f.f.r.f.l.b.R.!.XXK.w./ 5 > c c c c c x k k l l c x g h h ",
"h h l l l l x x k h h h k l k j h g 7 3 Y R ) 4.B.'./.M.*.n X n %.7.7.&.' :.c.(.(.~.U.L.U.(.~.P.c.f.e.f.d.f.f.f.l.b.E.XXQ.u.[ 3 > l l c b x k g g k k l c l h > ",
"h h h x x x c c x j j x x l h h h g 9 8 A $ # R 4.P.4.! # . + %.&X8X&X%.$ W a._._.~.Y.~.~.~.~.P.c.f.e.e.f.f.f.f.e.g.D.!.G.w._ 3 * > h l b c j g l l x b c k i t ",
"h l x c x x b c x j l c x l h h k h f 8 4 O . m >.v.3.A   . n 6.*X8X7.C o A a.`.`.~.U.(.~.P.L.c.l.f.e.f.f.f.f.r.q.t.b.T.S.w./ 2 * g k b c c x j l x c c c h t t ",
"h l c c x x c c j j c c l h g h x l g d Z O   $ >.c.:.s   X N 6.7.6.%.@ O D q.`.`.(.U.(.~.L.c.g.f.f.e.f.f.f.f.r.q.q.b.T.S.w./ 3 * g b b b c x x c c c c c h t t ",
"k l l l x c c c x c x j l x x k l x g d Z $ # Y 3.L.3.Q # n N V V n @ @ m ' g._._.(.U.U.L.c.g.s.d.f.f.f.f.f.f.e.r.g.T.Q.W.u.( 3 > h c b b b x l c b k x x l h t ",
"k l k l c c x c c O.c h k z c z x x 9 8 D U R 1.h.P.c.3.E I n + X X O m ` r.P.)._.(.P.L.c.g.f.s.s.s.f.f.f.r.r.e.f.S..X$X XH.} 3 : k l c O.O.b x b b j x c k k k ",
"l k k x c c l l c c c c x x c b c x u 8 U [ 0.v.U.U.~.v.0.E m o . X m [ g.P.~.(.(.U.L.v.g.f.s.s.f.f.f.f.f.e.r.f.l.G.OX%X#XH.[ 3 > l c c b b b c x x x x k z k k ",
"h j k c c c c c h l b #.b b c x k x u 8 T <.c.(._.(.`.`.U.4.Q # # m ' g.).`.~.L.L.L.v.g.s.q.s.s.f.f.f.d.e.f.g.z.F.E.oXoX{.y.E 9 g c x b j x x l x c x g k k z k ",
"k h k c c c v l h l c b #.#.b x h c u 6 T ,.g.^.(.(.].].).c.4.' / { a.P.`.).n.x.c.c.g.s.s.s.s.g.f.f.d.q.e.g.b.G.E.W.K.J.5.^ H j x x b x x x x x c b l j h z z l ",
"k h k l z o.z z x c c x o.O.@.O.c b u 2 Y [ 4.v.U.P.~.(.U.P.v.c.c.v.L.~.U.n.l.f.f.f.f.f.f.a.s.s.f.f.d.a.a.b.T.Q.}.W.Z.:.D 8 g b @.x x c o.o.+.+.+.o.z a i k l k ",
"h k l l c o.o.o.c c x x x x b c c @.9 1 T ,.j.D.~.v.P.P.P.c.g.g.v.P.~.P.n.c.f.q.e.e.f.e.s.s.s.e.d.d.f.f.z.S.T.XX+XOXH.] $ & h b #.@.c c x o.+.o.o.c l k h h i i ",
"i h l x z o.o.o.o.x l x x x c x z c u 2 R 8.A.T.D.l.c.c.g.3.>.:.r.c.P.n.g.f.e.e.e.e.e.f.d.d.s.a.q.e.l.b.T.T.R.OX%X$XK.] 1 = h x O.@.c c x o.o.+.c x l j k i i t ",
"i h k l z z z c o.x l l c c c l x b g 6 R :.Z.T.D.l.g.r.3.~ U T { q.l.g.f.f.f.f.f.f.f.g.f.f.g.s.f.l.b.G.W.}.Q.oX#X@XH.5.m 8  .j c @.c c o.c o.+.c x x l k k i t ",
"i i l z z l c +.c x x x O.O.c x c O.h 9 I _ 8.Z.G.D.g.1./ T R ( ,.0.f.f.r.r.r.r.r.r.f.z.b.b.z.z.b.T.E.!.OX+X$X#X|.H.5.E J C ..j l b c c c c x c o.O.c c l l i i ",
"i i i z l l o.+.O.c c c c O.x O.@.c x j  .K R :.Z.G.k.] U T [ 3.e.f.f.f.r.f.f.r.r.f.z.D.T.R.F.T.R.R.E.!.XX+X%X|.H.| I M a ..X.a k c c b c c x c @.@.c c c k h t ",
"i i l l z l c +.c c c O.c x X.O.#.x c X...q 0 R 9.k.w.] T ' q.x.l.g.g.l.l.z.b.l.l.l.S.E.!.XX X}.W.S.j.j.K.|.|.{.5.m 0 p ..X...a h c z l c c b c c c c c c z i t ",
"i i l l l X.c z x x c c x l h c c l j j C p q J Q | 1.:.:.3.g.v.c.x.x.F.T.E.E.T.T.E.E.Q.+X$X%X@XJ.8.| { :.8.i.8.^ e y i ..X...a h c c c l c c c @.@.c c l l k i ",
"g h x x l c c x l l x x x j g l c l i p ..a p M F Y ) <.q.f.g.f.f.g.x.F.R.W.W.W.W.W.R.R.XX$X%X|.i./ A D U R ^ I J C a X.a C C i j x c x l x c b b b z l k z i i ",
"h h l x c b c c l l x x x l l c X.l j j j j p p q w Y ' 0.3.3.<.,.,.0.w.k.k.k.k.k.u.u.u.k.K.{.C.} m & , 1 2 3 8 e p a C C a p i g h t h x b c c v c z z z z k k ",
"h h x x c c x x c c x x x x x c c c c l a i p p e e J Y ( ( / Q R Q ( ] ] ] ] ] ] ] ` ` ] | 8.} I M < < 6 q p 9 y p C ..C a p i h j h g k x c c c l k k z z k t ",
"h h l x x x h l b b c l j x x x o.c +.c i p p p C C M Z S S D m Z S Z S D S S A S S S Z S S S S M a p p a ....p C p a C a k l i j j j l h k l l l l i k k v k t ",
"t h k k h h h j h c c l x l c c c c c c z i i a j a C M m M 3 3 3 M 0 0 5 w 0 0 q 0 0 0 0 0 2 6 p p p i j ....C C ..p 9 l c c h g h l l l l h h l l c z c z k t ",
"h h l k l h j h h x c l x x x c c z c c z z z l j C p M < q p q p C y p q q q q p a p q q q < q q p a C ....p p C ..p 9 x o.c i u h h l c l h h k c c v c x h i ",
"h k x l l l h j j x c x c c X.c c c z c c +.+.c a a p p p p a a C C a C a a p a a C a a p p a p p C ..C j p p p j j h i c c o.j u h h x c l h h k x c c c h h i ",
"i l c k h h i i x o.@.c c c h c #.c c z o.+.+.c l u u y u u a X.C C C a C C C a C C C C C a C C C ....C p a p j l l h h x c c l l l c c O.c x k c c k k k h i i ",
"i k l k k k h h c c X.c c c j x c c c c O.c c l j h g j l g h ....p p p p C a a a a a a j p ......g g ....j l z x k l l l l x c c c b b c c c c c c j l l h i i ",
"i i h l c z l c x z c c c c x c x x x c c x j l l c j l c l j x j p j j j a a a a a j a p i j j X.p p X.j l c c x h l c l l c @.@.b @.b x c O.c c x l l j h i i ",
"i k k c c v c l c c c c z l x l l j k l x x x c c x l l x l l j l x x x l z z z z z j i a h l x l j l l k l o.l h l X.o.j x X.b b c b b @.O.O.c x l l j j j u y ",
"t k c c b v z l x c x x k k l x x l l l x x c c O.x X.x x l j h j x x c c c x x o.c z l k l x z k z x z z c l i g l b O.x j c b c x c b c O.O.c x l j j j h i y ",
"i k c v c c z z z l a u i h l c c x l l c x l l c O.x c c c c j h j l o.#.c X.z o.o.o.x l z z j h c c c o.X.i u i l x c l k l z x x O.x l x O.x c c l j j i i i ",
"i k c c v c c z c z h i u j z c l l l x c l l l x X.x c O.@.c l j l l x l l c c x z l x c c z i i x c c o.+.x l l x x l l l c z x x j j l O.O.x c b c l j j i i ",
"t i z c c z z c c z l j j l x x l h l x l j x l l l j c O.O.c l l l x l h k z c l j j x c o.z k h l c c o.@.o.c c x x l c c c z x j j l x O.O.x c @.c l j k i t ",
"r i k z z i z c c c l z c c l l l l x x j j l l l j l x c c l l l c x k h x c c l j j x z z z c c c c c x c c c x x l l c c c z x x c O.O.x x O.v c l j i i i t ",
"t i i z z i v v z z z z c x j l c c c x h l l x l j l l l l l l l c z l l c +.c k j l z c c c b @.b b x l l x c c c l l z c c c b x O.#.@.O.c c l j h h i k i t ",
"i i i k i l z v v z z z o.x j l c c c k x l l x l l l h j j l l c c z l l l c c z l z c v b b b b #.b l k k k c c c c z z z v v b O.#.#.@.O.O.c l j j h i z i t ",
"i i k l i i i z c c z z x j l l z c c c x x x k l x l l j l l c +.v z z k k c v o.c c v b b z z c c c z l l l l z c z l z c b b c c O.b x b b b b c x h i z i u ",
"i i i l z i i v z z c c x j l l x x c c x k x k l h l l l x x x c X.z k k j l c c c c v v c c z v v c l z c c k k z x k c v v c c c b j h c b c b c x l k i i t ",
"i i i v i i i i l z c x l j k l x c x x z l k k h h k l x l l h z z l l i i i z c c c c z v z z c v c l l c X.l h k j l c c c z x c z k h x c c b b x l k i i r ",
"r i i i i i i z l l l z l k l l k c x k c z k l k h t g l l h h k l l k l i k z c c v z z c z k z c x h l c z k k h l h k x z x x x x l h c c c c x l l i i t r ",
"r t i i i i i i z l k j l z k k k z x x c z l c l h h h h k l h k l l k i i k v c z z z l l h h k l z j l z l l k k k k h k c l x x l l x c c c h j j i i u r - ",
"r r i i i i v v z z k i l c j j k z z c c z z c l k l l h h l l k k k k i l z v c z z z l i g h u k l j l z k l x x l k h k l k l l l l x c c c h u h u y u r - "
};
