/* XPM */
static char *__resized[] = {
/* columns rows colors chars-per-pixel */
"80 80 217 2 ",
"   c #0B0723",
".  c #160C2D",
"X  c #15152C",
"o  c #141333",
"O  c #191A37",
"+  c #1A2637",
"@  c #2B2725",
"#  c #252B2D",
"$  c #2B2D2C",
"%  c #362E27",
"&  c #342E28",
"*  c #2D312E",
"=  c #383027",
"-  c #34322D",
";  c #3C332C",
":  c #272E31",
">  c #2D3332",
",  c #293838",
"<  c #293C3D",
"1  c #333532",
"2  c #3B3632",
"3  c #353935",
"4  c #3D3A33",
"5  c #33363A",
"6  c #3B3638",
"7  c #343B3B",
"8  c #3D393C",
"9  c #41362E",
"0  c #43382F",
"q  c #423730",
"w  c #453A32",
"e  c #4A3E34",
"r  c #413638",
"t  c #443C3B",
"y  c #493E3C",
"u  c #2C413F",
"i  c #34423D",
"p  c #3A433C",
"a  c #4D4136",
"s  c #454139",
"d  c #4E4239",
"f  c #514337",
"g  c #53453A",
"h  c #58473B",
"j  c #56483B",
"k  c #5B4B3D",
"l  c #604F3F",
"z  c #61503F",
"x  c #231F46",
"c  c #292847",
"v  c #293E41",
"b  c #263C48",
"n  c #363D42",
"m  c #333155",
"M  c #393D61",
"N  c #473E41",
"B  c #463458",
"V  c #2A4344",
"C  c #284548",
"Z  c #2D4C4B",
"A  c #364645",
"S  c #324D4A",
"D  c #2D504F",
"F  c #33524E",
"G  c #374B52",
"H  c #2D5353",
"J  c #2C5E57",
"K  c #335552",
"L  c #335A54",
"P  c #335C5A",
"I  c #3B5B58",
"U  c #33625C",
"Y  c #3A645B",
"T  c #3A5465",
"R  c #346562",
"E  c #356A62",
"W  c #3A6B64",
"Q  c #376968",
"!  c #3B7366",
"~  c #3D746A",
"^  c #3D796B",
"/  c #376B73",
"(  c #397375",
")  c #3E7C72",
"_  c #3F7C79",
"`  c #404141",
"'  c #4C4141",
"]  c #534640",
"[  c #5E4E40",
"{  c #5E5041",
"}  c #604F40",
"|  c #625141",
" . c #426359",
".. c #484C6E",
"X. c #645C7B",
"o. c #446B63",
"O. c #457469",
"+. c #427E73",
"@. c #606879",
"#. c #3E807A",
"$. c #438373",
"%. c #478878",
"&. c #468A7B",
"*. c #578B79",
"=. c #528C79",
"-. c #4A927D",
";. c #49977C",
":. c #3D7983",
">. c #727992",
",. c #3D8487",
"<. c #428A84",
"1. c #438886",
"2. c #4A9582",
"3. c #4E9C84",
"4. c #46948B",
"5. c #4F9E88",
"6. c #509E84",
"7. c #5A9884",
"8. c #5C9A85",
"9. c #469296",
"0. c #479991",
"q. c #4A9C92",
"w. c #629D87",
"e. c #4EA286",
"r. c #4FA088",
"t. c #51A186",
"y. c #51A38A",
"u. c #55AA8D",
"i. c #5AAC8D",
"p. c #55B48F",
"a. c #4EA69B",
"s. c #54AC93",
"d. c #53AA96",
"f. c #57B297",
"g. c #5AB493",
"h. c #5CBA96",
"j. c #56B39C",
"k. c #5DBD99",
"l. c #67A58C",
"z. c #67A991",
"x. c #68B798",
"c. c #70B296",
"v. c #489BA8",
"b. c #7D86A3",
"n. c #4EA9A4",
"m. c #51ACA2",
"M. c #55B4A3",
"N. c #59BAA5",
"B. c #56B7A9",
"V. c #59BEAB",
"C. c #4DA9B6",
"Z. c #56BCB2",
"A. c #5EC49B",
"S. c #61C59D",
"D. c #6CC29D",
"F. c #63C99F",
"G. c #7BC09E",
"H. c #5BC2AD",
"J. c #5BC4B3",
"K. c #5CC7B8",
"L. c #5ECCBD",
"P. c #5FD0BC",
"I. c #62C6A0",
"U. c #64CCA1",
"Y. c #6ACEA3",
"T. c #7AC9A6",
"R. c #66D1A4",
"E. c #69D5A6",
"W. c #6AD6A9",
"Q. c #6BDAAA",
"!. c #74D7AB",
"~. c #7BDBAD",
"^. c #6DE0AD",
"/. c #7DE7B7",
"(. c #58BFC2",
"). c #5BC8C8",
"_. c #5FD1C3",
"`. c #59C6D4",
"'. c #5ED2D8",
"]. c #62D6C8",
"[. c #63DCD8",
"{. c #67E5DE",
"}. c #5CCDE0",
"|. c #62DCE4",
" X c #67E5E7",
".X c #68E9F1",
"XX c #8D92AC",
"oX c #A1A5B6",
"OX c #81CEA9",
"+X c #83D2AB",
"@X c #88DBB2",
"#X c #8CE4B7",
"$X c #87E6B8",
"%X c #8DEABA",
"&X c #94E4BC",
"*X c #95EEBE",
"=X c #8DF1BD",
"-X c #9BF1BF",
";X c #A7F4BF",
":X c #B9F8BF",
">X c #C7FBBE",
",X c #D8FFBF",
"<X c #AAB3C8",
"1X c #91ECC2",
"2X c #9CF3C2",
"3X c #9AF7C6",
"4X c #A2F5C3",
"5X c #A6F8C8",
"6X c #A3FBCC",
"7X c #B3F9C2",
"8X c #B5FDC8",
"9X c #BBFECC",
"0X c #A7FCD0",
"qX c #B4FED2",
"wX c #C4FCC2",
"eX c #C7FEC6",
"rX c #D3FFC2",
/* pixels */
"; = = ; 0 0 0 0 0 e 0 0 0 e 0 0 9 a w 0 e a e e w 0 0 0 9 9 9 w e 0 9 9 9 0 0 0 0 w e 0 e a f e e e a e 0 0 a 0 ; @ @ @ % ; a 0 0 w e e 0 e e e e e 0 0 e 0 9 = ",
"% ; ; 9 0 w w e e e 0 0 0 0 e 0 w e e w 0 e e e w 0 e e e 0 w e 0 0 9 e e e e 0 0 0 0 0 0 a f a e a a e a a a a w @ @ # @ % 9 9 0 w e e e e e e e e 9 0 0 0 9 = ",
"= ; q q 0 e f f f e e 0 e e e e e e e w 9 0 f e 0 e e e a e e e 0 e e e e e e e w 0 0 w a f f f f a f e a a 0 a a & : , : * % % 9 e f e e e e e l e e 0 0 e 9 = ",
"9 q e w 0 0 e f e e e e e e e e e a d e w a g e e e 0 0 e e w e e e h f l l e h j a w f f g g g g f f f a a 0 4 p  .O.O.Y S , & = 9 f g e e h e e e e 0 0 0 9 9 ",
"0 e a a e e a a f a e e e e e e e j f f f g g d e e q e e w q w e e f h e h e e f e w f j f f j h g f h f 0 - i  .*.x.x.e.! S * & ; a j f a f f e e e e e 0 9 9 ",
"0 w f a f g f a a f f e e h e e f j f a h h f e e e d f j w q e e e e e h h l e e w 9 f f f f f h h k h f ; @ S *.T.$X/.F.;.E u $ 0 f j f e f g e e e e e e 9 = ",
"9 w a f g h j g g g a w f f h h d e w w f h g d e f f d a e a g h f e f h h h e e e e f f f f j h k k h f 0 # P w.@X3X1XQ.p.#.u > q f g f f f g e e e e e e e 0 ",
"0 e f f g h j g g g f 0 f h f f f w w w f g j f f f g d a e f g h e e e h h l h e y g f e d j h h h k h f 0 : U 8.!.$X$XF.e.#.Z > 0 f g f f g a h e e e e e e e ",
"0 a d f j f d d d g d s a g g f f f a w g j k d d f g f d a d g f f e f j g j g f a a f g a j h j j j h f q * F $.s.H.F.u.&.Y V - 0 d g d j j a s a 0 e a a a 9 ",
"0 a d g g f e 0 w a g j f f k j f j g d g j j f e f g k k g g g f e e g j g f f a 0 0 a d a f k k k j a e w q i L $.r.r.&.W S > ; a a a f k g 9 0 a a s 0 a 9 = ",
"0 e a g f f a 0 w d j k j g j g d j j f j g h g g g k k k j j g f e f g g a a a a w 0 a f f j k | k g a e e a 4 i L Y ! U F i = w a e e f k j s f f a a a 0 9 = ",
"0 e a a a a a a a g k k k g g g j j j j g k k k [ [ k g k k k j d e g f d a w w d d a g g j h k | k d a a j g a 4 > u V < 3 w a w w f g g j k k k f a a a 0 0 0 ",
"0 e f f a s a d g j j | j f j j h d d j [ [ h g k k j g j k k j j d d j j e a a w a g d a a w e e e a f h k | j w ; - 1 * ; e d g a g k k g g j j j f a 0 0 a 0 ",
"0 e f g a a a g k j k | k g j k j d a j } } k j f g j g g g d g j f d g j e d g 0 s g g a w q 4 w e f h k k z k f e e e 0 w a g g a d j k f a f j j j f a a 0 0 ",
"0 e d j g d j k k k z | z k g g f g h l } | [ g d a f g j e w a f f e d a e a g d g g j j g d g [ ] k k j f j h k k k h g g g k a 0 w a j f g h j j f a 0 a w 0 ",
"w a d g j j k k k k k k k k j g g h l l } } [ g g d d g j a a d j f e e a w w e f j k k k j j j j g k g j f h j j k k k h g a f w $ $ - 0 f f e f j a a a a a 0 ",
"e e e g h h j j j [ j g j [ k j j j j h h h k k j g g d g d d g j j a a d s w w d k z z k k j j g g g j d g k f a j z k k a 0 s p i u * = f g a f k f a a a 0 9 ",
"w e f h h j a j { k j g d d k k h a a a f j k h g k g d a d f j k h a f j g g d g k z z k h k k k g g k a a j g j z k k f a ; i Y $.$.Y u p f k k h f a a a 0 9 ",
"w e f h j g a g { j j j g d j ] h d a a a f j j k g g g d j j h k k a f j g g g g k z z k k h j j k k k f d g k j j k k g 0 - Z $.;.u.$.u - a k z k j f a a 0 9 ",
"w e f h g g d g j j g j j j g j h g g d f f g g g j j j g k k j k k d d g j g g g j z h h l h f f g g j g g j k k g j j a ; * S $.i.p.;.L p s k z k h f f a a 9 ",
"e e g j g f g g a g j g j j d j j g g [ k k j g g [ | k f h k h j h j j j k g g j k k j h z k j f e a k g g h k k g g j a a 4 i Y -.%.o.p s h | h f k k k f 0 9 ",
"e e f j g g j k g g g k j j g j ] j [ | | k k j k [ } k f j h h j f f f g j g f j g d a g h g f e e e j j g j k k j g j g a a s p K F S s f k k f a a k z f 0 9 ",
"e e a f f j j [ z j j | k j j k k } | | | k k z | [ ] g g d g k f s 0 s w w w w w w s 4 w s 4 0 w r q e w a f k k j j g d j f f 4 * * 1 f j f a f s 9 f z a 0 a ",
"e e f g f g g j k k k | k j g g k } { k k k k k k [ k j [ g g g 0 = # # : # $ * * * * * * * * $ > > > , > 2 g k k z k f f f g g a 0 9 a j j j j f s j k k f a 0 ",
"e e f g d g d f g [ k [ k h g g j | k k h h h k k k k f e e e w p p F K F F F F S Z u u S F S S Z C Z Z V i s g j z k d g f f f a e f h z j j k f f k l k f a 0 ",
"e e e g g g d d g g k h h j g d g k k j j j k h h j g e & 1 2 1 ` O.8.w.7.*.7.*.=.$.#.$.#.$.$.$.+.~ ~ ) ! P A 4 d k j g j j f a s a j z z k j j h h k k h f a 0 ",
"e e g h k g g j ] g g j h k j j g g g k h h k g g d e ; > : # < O.z.@X#X+X+X+XOXD.g.u.u.p.p.p.p.5.2.2.3.-.^ L 7 ; f j j j j j d a d j j k { k h f j f h h f a 0 ",
"e e g k k g k k k g g j k } k h g f f g g j g j d a 4 i K K P W *.+X4X5X2X4X2X2X$X!.R.R.F.U.Y.F.k.g.u.s.y.2.+.L u w a g g j k g g j j j j { | l k f h f f f a 0 ",
"e f f j h j [ k g k k k | | } [ k g f e e e a k g 4 i  .*.z.z.z.T.&X6X6X6X0X0X6X3X=X$X^.Q.Q.W.W.U.I.k.h.s.d.d.1.R 7 4 a d k k [ [ k j d g k z z z j g a f f a w ",
"e e f f f f g g k | | k | | } [ [ k g g g g d f 4 1 Y l.+X&X1X#X%X2X3X2X4X3X4X2X3X-X=X~.R.H.U.U.U.U.S.g.s.j.Z.B.4.R i 2 g k [ k k [ j j j z z k k z z j a g a 0 ",
"e e g d g g f k [ | l k | | [ k h g ] k ] g e a p Y *.T.*X0XqX8X7X5X;X;X*X*X*X2X;X3X*X~.R.A.A.U.U.U.S.i.u.d.H.V.m.1.P i s f g k k k k z k z k j j z z f f f 0 0 ",
"g g g j [ [ g j } | k k | | g d f g l } | g q A  .*.+X%X3X6X9XeXeXwX:X;X2X*X*X-X3X;X-X@XY.A.A.U.R.U.A.g.u.y.j.N.N.m.1.U A 4 e k z k k k z k k g j k j g f f 0 9 ",
"d g g j j j g j k z z j k k g j [ [ [ k } e - K 1.G.&X0X2X7XeXrXrX,X:X;X;X*X1X*X-X-X%X~.F.F.A.F.R.U.F.g.u.5.t.s.N.K.M.1.D 5 ; e j k z z z z k k k k f j k j a 0 ",
"g j j k k j g j k k j d g j h z | | j j } w # K 8.@X0XqX7XwXrXrX,X>X:X;X-X2X2X2X*X#X~.!.F.S.F.F.U.U.F.g.y.3.;.u.N.].J.9.H 5 ; e f j j j z z z z h j f j h h f a ",
"j h k z { k j k z g a a a d z z k g g g h q @ S 1.OX5XeXwXrXrXrXwX7X;X*X-X2X2X2X#X~.E.F.F.F.S.F.R.U.F.g.u.3.3.d.N.P.B.1.Z > ; e f j s a f z z f f f j a a f a w ",
"j h k k k j j j k j d g d f k k g g d a q 2 p O.l.+X4X9XwXrXrXeX9X7X3X3X2X-X*X%X~.Y.S.A.F.F.F.F.F.S.k.p.y.3.3.y.N.P.V.q.R A 3 e a f a f f h j j j g g f a f a a ",
"g j h j j f g j j f g h j j g j k j d 4 1 A O.l.OX@X4X7X7XwXwX9X8X6X3X4X3X*X#X~.R.S.A.A.S.F.U.F.S.h.h.y.y.r.3.u.N.K.K.M.4.Q S 4 p a a f g f j k k k g g s g a 0 ",
"f f g g g d g j g a f z z j f j k k e 2 i o.l.#X4X2X2X4X4X4X2X4X2X2X3X3X-X%X~.Y.F.S.S.F.F.U.U.F.h.u.y.t.t.t.5.d.j.Z._.L.Z.0.W V = a f j j k k j g g j z j g a a ",
"a g f f f f g j d w a g k j g g j g q - C +.T.1X0X6X4X5X3X1X+Xc.l.l.c.+X%X=XQ.F.A.A.F.F.F.U.U.F.h.y.t.5.y.t.r.y.d.N.K.]._.n.+.C - s j j k j j f f f g j j f s 0 ",
"a f d g f f j j d a a a f f g d a d ; * C ) I.1X3X3X6X0X0X+X8.I v V  .i.W./.Q.F.S.S.F.F.F.U.U.S.h.u.5.5.r.y.t.y.y.u.V.L._.B.1.Z * s f k z j f a a f f j j f s 9 ",
"a a d j j j k k j f d j j g d a a d ; - V U 3.S.~.$X2X4X%Xl.P O   X A O.u.U.R.U.U.U.U.S.F.U.Y.F.h.s.r.r.t.y.y.y.5.5.f.J.K.m.+.C @ = s j z j s s f g j k k f w 0 ",
"a g h h j j z z j d g k j d a a d j a 1 V D E &.x.!.$X+Xz.o.c o c ..@.@.$.2.p.A.U.U.S.U.F.U.U.F.h.s.t.r.t.y.y.t.6.6.s.V.J.m._ V @ = f k z k g g g k h z k f w 0 ",
"a j k h g j k k d d g z j d a d j k d p V v b H %.x.D.t. .: o c X.XXoX>.G U &.S.E.R.U.I.F.U.U.F.k.u.y.r.r.y.y.e.6.6.s.V.J.m._ V & p z z z k j j k k j k h a e 0 ",
"f f j f j k k k j k j d j j f d j ] d p V + X O P u.i.! O   o M b.<XoXX.: + ! k.Q.E.F.U.U.F.F.S.h.u.r.r.y.y.y.y.6.6.f.H.J.n._ V @ a f z z z j g k z g h k f a 0 ",
"f f d g h k h k k z j d f h k k k k f p V +   X H t.y.U .   o ..>.XX>.B . + ! A.Q.W.U.U.U.F.A.g.u.y.y.r.t.y.y.t.3.3.s.H.J.m._ V * s a k { { k j z z g g h f f a ",
"g d g k k k j j j k k k g j k z k k d p V + X + I u.u.! O . x T ....M O . b $.S.Q.W.F.U.F.A.g.u.t.y.y.y.y.y.y.y.t.5.f.H.J.n._ V * a f k k z z j j j j j f h f f ",
"f d f k k k k j a j | | z z k g f k d 4 V C b P %.g.h.-.P b m c x O o O b O.t.S.Q.E.H.F.A.p.u.t.5.r.y.y.y.y.t.t.y.u.N.H.J.a._ V * a j k j k j g j j g g f f h f ",
"f a f k k k k j d k | | | | z j f z d 1 V L ~ -.g.S.F.h.2.Q b O     o b ) u.S.U.E.R.F.A.p.i.t.t.5.r.y.y.y.t.3.r.d.j.J.P.J.a.) V i s j j j k j g z z j s f f h h ",
"f f a g h k k h g k k j [ | | k z | f - u E 3.F.E.U.E.E.U.;.I +   X b O.p.W.R.U.U.F.S.g.u.r.t.t.y.y.t.y.e.r.e.e.M.V._._._.n._ C - 0 g k k z { z { [ j a e g g f ",
"a a g h k } [ [ [ k j j j j z k k | s * u ! 3.F.E.R.Q.^.^.h.-.Y D H ^ y.U.Q.U.k.h.h.g.s.t.5.5.e.5.6.6.6.e.e.d.j.B.H._.{. XK.,.C * 0 j k k k { z [ k g d f e e e ",
"a a f j [ [ [ [ k k g j j j k j j | a - V U ;.h.U.F.R.Q.E.F.g.t.;.;.u.S.R.R.x.p.u.u.s.y.r.5.r.r.t.t.t.6.e.d.M.H.J.J._. X.X(.,.Z - a j k j k | | k j g d f e 0 e ",
"e a a j g g h h [ j g g j k k g k z f 1 V U <.f.k.A.A.F.S.S.S.h.F.Y.U.U.S.h.u.6.3.3.r.t.t.y.r.d.u.d.d.y.s.M.J.P._._.'.|.}.(.:.V 4 d g k z k k | k j j g f g e 0 ",
"e e f g g g [ [ { k j j { { j j k | a 1 C Q q.V.H.h.g.x.A.u.;.-.;.p.F.A.g.u.6.6.3.3.3.2.e.y.j.j.j.j.j.N.H.K.P.]. X X|.`.v.:.T n w j k z k k h k { { k k j f e e ",
"e e f g ] g [ } { k j j { z j { | z s 1 C Q a.Z.I.j.p.s.u.&.! U O.e.f.h.s.u.y.y.5.y.t.6.y.s.N.J.K.J.J.J.J.J.J._.{..X}.v./ G G N a h k k k k h h { | k k k g e w ",
"e e f f h k [ } k k z { k k ] | | k f t A R 1.n.Z.N.d.5.&.! J P ! -.s.f.M.j.j.j.j.h.j.f.h.V.K._.[.{.'.K.m.r.a.a.Z.(.C.:.n 6 r y f j j j k k z k k k k k k j e w ",
"e e f j g h h h g j j k j g d j k j a t ` ` Q +.a.B.M.4.! U U $.-.t.f.N.I.K.K.J.K.K.K.J.J.K.P.]. X.X[.C.,.E R ( :.,.:.G n r y N a j k k j k k k | | k k g j e w ",
"a a g j g j k j d d j j j d s g h g d t ' n n P #.M.m.,.H J ! 3.5.t.u.j.V.J.J.J.Z.J.Z.J.Z.J.V.).}.|.(.9.P < V Z H H C n N y N y a f j j g j k z z z h h g h e e ",
"a a g j k k z k j j j j j g g j k g ] g g e 5 A ! ,.,.Q C D U $.%.$.#.<.4.0.a.,.0.0.0.0.0.4.4.0.C.(.v./ b > > 5 5 , 5 N N y y e a s s a g z k k l k h k h h f e ",
"0 d j k k k j k k k j j j j j j k [ k k f e r n F P U H C C H P U J L U R R Q R R R R R R R U R Q / R G n t t r 5 2 6 y N y y e a a a s a j k k h h e f h h f w ",
"a a g j j j d d z z k j g j j k k [ [ k g e e N n A V V C C V b u V v v v v v C v v v v v v v v < b < 8 N g ' d r y N N y g e e d d d f a g g f g g f e f l f 0 ",
"a a f a a a a d d k [ g g g j k k k k l g g g e w 8 n n n v n 5 5 5 5 5 , 5 5 5 5 5 5 5 5 5 5 5 5 > 5 r ' ' ' ' ` ] t w g ] k e a a f g g f f e f h h k k h f w ",
"e a g f g f d a a g k g j j k k k h k k h h [ g d t N n 8 t r 8 t N r t 6 r 6 t r y t t r r 6 6 6 6 r y d ' t t N ' t w g } } e 0 e d g k g a s f h k z h j f e ",
"a f h j g f d d g j h h k k k [ [ h h h [ [ | } h e y r w t y y ' ] y y N e y y y N y y y t y t t ' ' N y t t t d d w t h l } e s a a j k j a d f j k k h f e e ",
"e g k a a d e e g k [ [ [ g d j } [ [ g [ } } [ g e e w w t e ' ' N N N y N y N ] N N ' N N y N N ' ' N N y e g ] g d a j k k g f g k k z k j g k k f f g a e e ",
"e f h f f g a a g [ [ } k h f j [ k k j { k j j g d s a g a d ' ' t t t t y N y y y y N N t ' ' ' y ' ' ' d g j j d d d g g j [ k k { z j k k k k k d g g e e e ",
"e e f f h h j j [ g g ] k k j k j j j k k j g d g j d g k j j j d t d d d a e y e d d e e e d g g t e ] d d k [ j d j { j g j | | { | z j k z z k j j j g e e e ",
"e e g k k z h j k k k [ h g k g g g g g j j j k k j g g j j d d g j j j g g g g h g f f d f k g j g g j g j [ f a g [ { g ] j | | k z z { | { k g d g g d a w w ",
"e a h k z z k f h k g g f f g g g g d g j j k k { [ ] j j j j d j j j k [ [ [ h } [ k g f f k k f j k j j ] g e w g [ [ g g j { k j k z z { { j j g d d d a t q ",
"w f k l k k h h h g d w w a j h k j j g j j j g k { ] j k k j d d d g [ | k k ] [ } [ j g h g g a k k k [ [ t q w j j j g f j h g g k j d j { k k j g d d e e e ",
"e f k k k k k h k j f e e a j j j g g j j j g g j k k k z | z f d g g j h j h h k j g j h [ h e w j k k [ } j g g j j j g j h h g j j d g k { j [ } k g g e e e ",
"w e h k k h h k j g g f d g j j g d g j g j d d d j j k k | k d f g j g d f h [ g d d g k l h f a j k k [ | k k k k g g k k k h g g d j ] { { j } } k g f d e e ",
"9 e f h g f h k [ k g j k k j g g g j g d d d j d d d j k k j d j k j a g g k h g d d j h ] h k k k k k j k } k g j g f [ k h k { j j { | j j { } k f d e e 0 0 ",
"0 e e h f e h l h h h h k k d f k k k f g g f j j d j g j d d g g k h g f k [ k g d g h k k k z | | z h f g g k k h g g h k h k j z { | | | j j j g d a e e e 0 ",
"e e e h h e h l l h h h k g d j k z k j f f j j j j d f f d g j k h h g g g k [ j g j k k z z z z | z j f f g k k k k k h k l l { { | | | | | j d d d a g h e e ",
"e e e h f e e l k k h h j j g j j j j k j j j g d j f d d f j k } } h g f f k [ k h k l z z h h k k k h h j g g g k h j h k l l k k | { g { z k z k j d g e e 0 ",
"e e e h h e e e h h k k g d d g j j k k j j f f d f g j j j j j k k h j f d g [ l k k l z k k h l l k g h k h g f j j f h l l l k k z k a k | k z z j f e e e w ",
"0 e e l e e e h j h h k f d a g j k h j h f f f a a f f j j g a j j f f f e f h k k l h k k h h k l k f j k [ e e g f g k k k h j k h f a h z j k z j f f e w 0 ",
"0 e e e e e e e g g f j j f g g g h j g k h f j f a 0 a f g f a f f j f e w f h k k k h k k h g h k k a j k g g f f d d j g h h j k j f f j z k k j j f e e 9 9 ",
"9 0 e e e e e h j g g f g j g g g k j j k h j h g a a s d f f d f j g f f e h h k h h h j f a a f j g d f g g g f f f f a j j f g j f j j j k k d a g a e w q ; ",
"9 0 e e e e l l h g f e g k d a f f h k k h h k j a g g a d g f f f f a a f h l k h h k g 0 a a w f g a j g f g j j g f e f g f g j g g k k k k a q e w q w 9 = "
};
