/* XPM */
static char *__resized[] = {
/* columns rows colors chars-per-pixel */
"80 80 217 2 ",
"   c #09061E",
".  c #0A0625",
"X  c #110D2A",
"o  c #0F1427",
"O  c #13122B",
"+  c #181936",
"@  c #241738",
"#  c #1B2736",
"$  c #1F343C",
"%  c #27292A",
"&  c #2C2D2B",
"*  c #342C26",
"=  c #322E2B",
"-  c #382F29",
";  c #34312D",
":  c #3C332C",
">  c #3F382F",
",  c #232D37",
"<  c #312F33",
"1  c #2C3433",
"2  c #293637",
"3  c #23333C",
"4  c #2C3A3D",
"5  c #343434",
"6  c #3C3633",
"7  c #353A35",
"8  c #3D3A33",
"9  c #343539",
"0  c #38373A",
"q  c #333D39",
"w  c #3C3A3C",
"e  c #41362E",
"r  c #43382F",
"t  c #423732",
"y  c #453A32",
"u  c #4A3E34",
"i  c #453D3C",
"p  c #493E3D",
"a  c #2D413F",
"s  c #33423C",
"d  c #3A413A",
"f  c #4D4136",
"g  c #434238",
"h  c #4E4239",
"j  c #514337",
"k  c #53453A",
"l  c #58473B",
"z  c #56483B",
"x  c #5B4B3D",
"c  c #604F3F",
"v  c #61503F",
"b  c #232645",
"n  c #263A45",
"m  c #2C3D42",
"M  c #383C41",
"N  c #2D2C54",
"B  c #313157",
"V  c #473E40",
"C  c #413A5A",
"Z  c #244345",
"A  c #2C4342",
"S  c #274749",
"D  c #29454A",
"F  c #2C4A4B",
"G  c #334441",
"H  c #344A45",
"J  c #364B48",
"K  c #33524C",
"L  c #385349",
"P  c #2D4D51",
"I  c #2E5452",
"U  c #2C5853",
"Y  c #395757",
"T  c #345B54",
"R  c #325C5A",
"E  c #34625C",
"W  c #3B665C",
"Q  c #3C5D66",
"!  c #356362",
"~  c #376A65",
"^  c #3A6B64",
"/  c #3B7266",
"(  c #3C746A",
")  c #3F796A",
"_  c #3B6B77",
"`  c #3B7776",
"'  c #3D7975",
"]  c #4C4140",
"[  c #514542",
"{  c #5E4E40",
"}  c #5F5040",
"|  c #604F40",
" . c #625141",
".. c #505272",
"X. c #615879",
"o. c #466A67",
"O. c #49776A",
"+. c #427C6D",
"@. c #546B74",
"#. c #467D70",
"$. c #3C8375",
"%. c #41806E",
"&. c #498575",
"*. c #458B7A",
"=. c #498E7A",
"-. c #558977",
";. c #4A937D",
":. c #499A7E",
">. c #54937F",
",. c #5D6686",
"<. c #407A88",
"1. c #786E8C",
"2. c #418A84",
"3. c #438887",
"4. c #489385",
"5. c #4E9C84",
"6. c #4E9F89",
"7. c #539985",
"8. c #509E84",
"9. c #418793",
"0. c #4A9D97",
"q. c #4FA088",
"w. c #4FA788",
"e. c #51A186",
"r. c #51A38A",
"t. c #55AB8D",
"y. c #4CA197",
"u. c #4DA59C",
"i. c #55AC92",
"p. c #52AC9A",
"a. c #57B192",
"s. c #5AB493",
"d. c #5CBA96",
"f. c #56B39C",
"g. c #5DBD99",
"h. c #6AA48D",
"j. c #69AC91",
"k. c #6CB397",
"l. c #73B89A",
"z. c #4796A4",
"x. c #51ADA6",
"c. c #55B5A4",
"v. c #59BBA5",
"b. c #54B5AA",
"n. c #57BAA8",
"m. c #59BDAB",
"M. c #4DABB1",
"N. c #57BDB6",
"B. c #7BBCA0",
"V. c #5EC39B",
"C. c #61C59D",
"Z. c #6FC69E",
"A. c #63C99F",
"S. c #77C09F",
"D. c #5EC2A6",
"F. c #5BC2AD",
"G. c #5BC4B3",
"H. c #5DC9B6",
"J. c #5AC6B9",
"K. c #5ECCBE",
"L. c #5FD0BE",
"P. c #64CCA1",
"I. c #68CBA3",
"U. c #79C9A5",
"Y. c #66D1A4",
"T. c #6AD4A6",
"R. c #6BD7A9",
"E. c #6BDAAA",
"W. c #75D6AA",
"Q. c #75D8AB",
"!. c #60CCB4",
"~. c #6EE1AE",
"^. c #7CE3B3",
"/. c #56BAC9",
"(. c #5FD0C8",
"). c #5CCAD7",
"_. c #61D5C8",
"`. c #63DBD2",
"'. c #63DBDC",
"]. c #5FD4E1",
"[. c #62DBE4",
"{. c #67E4E7",
"}. c #67E5F1",
"|. c #89879E",
" X c #8F94AC",
".X c #82CBA9",
"XX c #85D6AE",
"oX c #89DAB3",
"OX c #85E3B4",
"+X c #89E8B8",
"@X c #94E5BB",
"#X c #95EDBE",
"$X c #8BF2BD",
"%X c #97F0BF",
"&X c #9BF1BF",
"*X c #A0F2BF",
"=X c #ACF5BF",
"-X c #B3F7BF",
";X c #CDFCBF",
":X c #ACB4C7",
">X c #97EEC1",
",X c #96F2C1",
"<X c #9BF3C2",
"1X c #9CF7C7",
"2X c #A2F5C3",
"3X c #A3F8C5",
"4X c #ACF8C3",
"5X c #A1F7C9",
"6X c #A4FBCB",
"7X c #AAFCCD",
"8X c #B8FBC5",
"9X c #B4FECD",
"0X c #A8FCD1",
"qX c #C1FCC2",
"wX c #CBFEC6",
"eX c #D2FEC2",
"rX c #D8FFC1",
/* pixels */
": - : : r r r r r r r r r r u e e f u r u f u u u r r r e r r r r r - e r u r r t y f r u u f u u f u u r r f u : * - - e - * 1 % - r f r f u r j u - e r u e * ",
"- : : : r r u u u u r r r r u u y u y r r u u u r r u u u r r u u r e u u u u r r r r r u f j j u f j u f u f f f r : - - d s U L d 8 r r u f r j f e e r u e - ",
"- : r e r u j j j u u r r u u u f u g u e r j u r u u u f u u u r u u u u u u u u r r y f j j j j j f j f f r f l l r - ; s $.:.&.T 7 : r f f j j j r r r r r e ",
"> r u y r r f j j u u u u u u u u u f f y f k u u u r r u u y f u u j l c c u l k f y f j j j k j f j j j f f f f u r - 2 W :.s.r.+.a = r f f r j j f r r r r r ",
"r u f u u u f f j f u u u u u u f j j f j k k f u u t y j y t y u j j j u l u u j u u j k j j k l j j l j f g f f f r : 7 W ;.t.5./ s ; r u f j j u u u u r e - ",
"r r j f k k j f h h j u u l j u j l j j l k j f u u h j k y t y u u u u l l c u u t t f k k j k l x x l j f r f j f f f > s W %.) L 8 r u u j z j u r u f u e - ",
"e y j j k l l k k k j y j j j j f u y y j l k f u j j h j u u k l u u j j l l u u u u j j j k k x x x l l l f j j j j j j d s a s g f f f j j k j u u u f u r r ",
"r u j j k l l k k z f y f l j l f u t y j z z h j k j h u h j l l j u j l l c l u u z j u j l l l l l x x l j j j x x x j > * 7 > u k z j j j f f u u u u f u r ",
"y f f j z j j f f h f u f j k k k h h u h z x k h h k k h h h k j k u l k j z l f f f j f f k l z k z l k z x z l l x l f - * : u f k l f l l f f f y y u f u : ",
"r f f k k f f r u f k z h k x k j z k f k z z h f h z x l k k k u u u k z k j j f y t f h f k x  .x k h f j x z l j z j f f r r u z f u j l j r y f f u u u e : ",
"r u f k k f f r y h z x z k z k k z k k k z l z k k l x x x z z j u u k k f f u f y t f j k z v  .x k f f f z k j l j l k z k f u f u f k x l g f k f f u y e : ",
"r u f h f f f h f k x x z k k k k z l z l l l x x x x z l x l z j u k k h f y u h f h k k k z x  .l h f k j k k j k z z x x z f u y f z k z x x z j f f u y r r ",
"r u j j f f f f k z x } z k k x z h f k | x z z x x l z k l l z k k h z z u f f y f h h h f y y f f f j l c c z k j z l k k k k j f k z l z k z z z f f y y y r ",
"y u j k f g f j x z }  .x k z z k h h z  . .l j k k k z z k k k k k u z z u k k r g z k f u r 8 y u j k x c c x z z l l f f k z k k z l x k g h z z z f f y u r ",
"y u f z z h z x x x x  .x x z k k z l x  . .{ k f f h z z u u h j j u h h y f k k h k l k k h k { z l x z j z x x x x l z k k x z k z l k j h k k h j f u f y r ",
"y u f k k z x x x x v x x x z z k l c c c | { z k f h k z f u h k k u u u u y u j z x x l x z z z z z l j k x z k x x x x f h k k f y r y u y 8 8 u f f f f u r ",
"y u k k l l l l z x z z z z x l l z l x l x x l z z h h k h g z z k f f f h g y k x  .v x x z z z k z k h k x k h z x x x j f f f f r : : > 7 2 1 8 f f f f r r ",
"u u u l l k h z } { z k h h z x l f f f j z x l z z k h f f k l x z f k z h h k k x  . .x z x x z k k { f u z k k x x x l l f f f k z h r 8 7 a 7 8 f f f f r r ",
"y u k k z k h j } z z k z h [ z l f f g f j l l z z k k k k z l x x f j z k k k h x v x x x z z z k z z k f z l x x x x k k f f h z k k f f g d 8 f k j f f r r ",
"y u j l k k k k z z z z z z z z z k k k f j z k z z z z k l x l x x f f k z k k k z v l l c z j j z z z k z z x x k z z h g k k k z h h k x z k f j z z j f u : ",
"u u k l k k k j f k z k z z h z z z l [ x x z k k {  .x k l { z l l z z z x k k z x z z z } x z j h j l z z l x x k k z k j k x k h k z x v  . .z j l x x j r r ",
"u f j k k k z z k k k x z z z z l l {  . .x x z { } | l f z l l l l z x x x x z c x z z x c x k z u k | { l l x x k z k h k z z z f k z x c v x l f f l v j u r ",
"y u j j k k [ v  .z z  .{ z k z x  . . . .x x } } } z z z h k l l x x x } x c } } x z z x c z k l j j x z k j k x z z z h k z z z k k l z z k f f g r l x j u r ",
"u u j j k k k l x z x } x z k k l { { { x x x x z { { z z z k k x x x x x x c } } v z x x c x c l t = ; ; ; 6 > u z l k k f k z z z z z z z z l f h j x x j u r ",
"u u k k k h h k z z { x x l k k z } x z l l x x x x x x z z k k x x l l k k x v x x k k z x v c f 7 2 4 4 4 4 4 7 j k k k k j k k k l x c x l x l j x c x j u r ",
"u u j j k h h j h z l x x l k k k c { l z l l x l z z k f x l z z z f g f f k z k f y u f j c z d J T E E R ^ T J g f f k z k f u f x }  .x l z l l x x l j f u ",
"u j k l z z z z k k z z l l z z k k z l l l l k h k k k x v  .l k r & & & ; ; ; ; ; & & & ; - 5 s W ;.8.;.;.5.*./ L d r h z k h h g z x x  .x l j k l k l j u r ",
"u u k l { l l l [ z z z x | x l k j k k k z k z k k h k l x l j g 7 a A a a a a a a a a a 4 2 a W :.s.C.V.g.I.s.:.W s : u z x z z z k h z {  .x z j k j j j j r ",
"u j j z l z l x z x x x  . .| { l z j f f u u { } z k j f r 6 6 G [ #.-.&.&.O.O.+./ ^ ~ / ^ W ^ &.s.A.E.E.E.~.I.r.) A % y z { { } { k h k x v v x x z f f j u r ",
"u u j j j j k z l  .} x  . . .| { l k k j h j { { k u e ; % % % K -.l.U.S.l.l.l.j.r.5.:.5.5.5.5.e.t.g.A.Y.R.R.g.;.^ 4 & h { { l l x { z z v v x x v c z f j u u ",
"u u k h k k k z v v c {  . .{ l l z l c l l z { x f 8 7 s A Z F O.k.@X>X@X@X&X@XXXT.C.V.V.V.C.C.d.t.t.d.C.P.C.i.*.( F 5 h z l { x { x c x v x l x v c k j j j r ",
"u k z z { { z z  . .x x  . .k h j k [  . .| { { k y 7 J O.>.7.-.k.oX5X0X0X7X7X7X1X$X^.E.E.T.E.R.A.d.a.s.s.d.i.r.5.3.( F 7 u z l x } x x c x z k z z z k j j r r ",
"h k z z { z z z x  .x z x x k z } } x x  . .x x u 5 H O.j..XoX.XoX+X<X5X5X5X5X5X1X&X$X^.T.Y.Y.Y.P.C.V.s.i.r.r.r.p.c.y.#.P 8 r f l x x c v x x x x x k z l x f r ",
"k z z x z k z x x x l h k k z  . . .x k  .v l f 8 G o.j.XX5X0X5X2X2X*X&X>X%X#X&X1X*X%XOXT.V.V.A.P.P.C.d.t.5.5.r.s.G.m.0._ F 7 t f j z x c v v x x l j l l l j r ",
"z l x } x z z l  .k f f f h  . .{ k j z z k u ; G o.j.oX>X0X9XqXqXqX8X=X&X%X#X&X3X3X*XOXT.C.C.C.P.Y.A.d.t.5.5.r.p.v.m.c.0.#.T 7 > f f f l x x l f f k f f j j u ",
"z l x x x z z z x z f k h k x l k k k k f t 5 G O.j.oX1X1X4X8XwXeXeXqX-X&X#X%X%X&X*X&XOXT.C.C.C.P.P.C.d.t.6.5.r.t.t.f.m.N.u.' F ; : g g k l l x z z k f f j j f ",
"k k l l k k k k z j k x l z z k z l z f y 7 s O.j.oX5X7X7X-X;X;X;X;X8X-X*X%X,X<X&X#XOXW.P.A.A.A.P.P.C.d.t.e.q.e.8.;.i.F.L.N.4.P 1 ; h z z j z x c x z h k h f r ",
"j j j z k k k z z u j v v l k z x x h y ; H O.k.XX#X3X9X8XwX;XrX;X;X=X&X&X<X<X<X$XOXW.T.A.C.A.A.P.Y.A.V.t.e.q.q.8.8.i.F._.m.3.D & r f z k x l z k z z x z h j r ",
"j h k k h f j z f y u z l z k k k z f : , W h.oX1X1X2X4X9XrXrXeXwX-X&X%X<X&X<X%XOXW.A.V.A.A.A.A.P.A.C.d.t.e.r.e.e.8.i.c.H.b.4.U s y f z z x k f f j k z z k g r ",
"f f h k k k z z f f f f j k j f f g y ; $ o.B.5X0X6X2X4XwXwXwXwX9X3X%X>X<X&X#XOXQ.P.V.V.C.A.A.A.C.C.s.t.w.e.q.r.r.e.t.f.n.c.0.` T d g f z z h f h j j z z k g e ",
"f f k z z z x x z f f z z k f f h h r ; , W k.&X0X6X1X3X9X9X9X9X3X3X&X<X&X%XOXQ.P.A.A.V.A.A.P.A.V.s.t.t.r.r.r.r.r.e.r.t.p.f.c.y.2.R q > k j g f j k x x x f f r ",
"f k l l z z c x z g k c z f f g h f g d K +.k.@X1X6X1X#XXX.Xl.S.XX+X%X1X%XOXQ.P.C.C.A.A.A.P.Y.A.d.i.r.6.r.r.r.r.r.r.r.8.5.f.G.G.u.' m ; f k z k k z x x l f r r ",
"f k x l z k c x h k z x z f f f u > d L +.r.Z.Q.,X6X2X.Xh.o.T o.>.Z.$X$XOXQ.Y.V.V.V.A.A.P.A.P.A.d.t.6.5.5.t.r.r.r.r.r.8.8.a.H.L.b.2.F 1 f z x z x x x x x j r r ",
"j j z k z x x x z x z h z z f f 8 < K +.w.C.Y.T.+X1XoXh.Y # o # W e.T.~.E.Y.A.A.A.A.A.A.A.P.P.A.g.i.r.6.6.q.r.r.r.r.e.8.8.f.G.G.x.$.a ; f l z k v v k z x j f r ",
"k j f l z x l z x } x h j z x f 8 1 I ` >.s.V.C.W.U.h.o., O @ ..o.#.w.a.V.V.P.A.A.A.A.A.A.A.P.P.g.a.r.8.6.r.r.r.r.r.8.8.8.i.F.G.x.` a ; g x v z x v z z l j j f ",
"k f k z x x l z z x v x k l x l g 2 S R E +.w.g.d.>.W b O N X.|.1.@.U $.w.Y.Y.A.A.A.A.A.A.Y.P.A.C.a.r.6.r.r.r.r.r.r.r.8.8.i.m.G.u.' Z ; h x v z z z z k l j j j ",
"f f j x x x x z h k  . .v v x f > q 4 $ + F &.d.q.U # . + .. X:X X..% I :.Y.~.A.A.A.A.A.A.A.Y.C.d.t.r.6.6.r.r.r.r.r.6.r.r.f.G.G.u.' a & g z z k z x z g j l l j ",
"j f j x x x c z h x  . . . .c f > s 2 +   , +.s.4.n . . b ,. X:X1.C . n :.E.~.V.A.A.A.P.A.A.C.V.a.t.r.6.r.r.r.r.r.8.r.t.i.v.H.N.u.) a * g z x z x x z h f l l j ",
"f f j z x { l z z x x z {  . .z g s 4 #   $ +.d.;.S o X N ..,.,.C @ o F :.E.E.P.A.A.A.Y.A.A.g.a.t.r.r.r.r.r.r.r.8.5.w.i.c.G.L.G.y.` A ; f x  .x  . .z u u j k j ",
"f j j z x | { { { l z z k z c k y 4 n n $ R >.g.t.W n b B N N b + + D O.t.E.E.P.P.P.A.P.A.g.t.r.8.6.r.r.r.e.q.e.e.r.p.c.F.(.`.(.x.<.A & g l  .c { l k h f f u u ",
"u f k z l { { | { z z z z z x f 6 7 F R ^ =.s.A.g.8.^ P N + . . + D +.r.g.Y.Y.P.Y.P.A.V.g.a.r.r.5.8.r.r.e.e.5.e.t.p.f.m.G._.{.'.N.<.S & u l v v { z k k j u u r ",
"u f f z z k l l x l k k z x x f t 1 K #.8.g.P.P.I.I.6.^ n X   o n #.d.A.P.A.P.A.Y.P.A.g.a.e.r.r.r.6.r.r.e.8.8.r.p.c.F.G.G.`.{.}.).3.A * u l x v [ z k k j j u r ",
"u u k z z k x | } x k z } } z h 8 1 U =.g.Y.I.C.P.E.A.8.^ n $ A ( t.R.E.R.A.C.C.V.g.d.t.r.5.5.q.e.8.8.r.t.p.p.f.F.H._.`.`.'.[.).z.^ d : j z x x  .v x l z k f u ",
"u u u z k k { | x x z } c c z k u 1 U 4.d.C.C.s.V.R.Y.V.e.%.+.&.t.V.~.~.R.C.d.a.t.a.t.r.6.5.5.8.e.8.r.i.f.c.m.G.H.K._.'.}.[./.9.! s i f l l z l v  .x x l k u u ",
"u u j k k x c | } x x } x z z z h 1 F +.;.r.t.t.a.g.P.P.C.C.g.C.V.P.P.P.P.g.a.t.r.r.t.t.t.q.w.w.r.r.i.c.G.J.J.G.m.m.J.].}./.9.U 1 g f k l x x x x c x x l l f y ",
"u u k k k [ x l k z x x z h k k j 8 q K ^ 4.p.v.D.P.g.a.w.a.d.Y.Y.I.V.P.P.d.s.t.i.f.v.v.v.n.m.D.v.f.F._.'.'.N.u.4.4.0.M./.z.<.A : f l x l x x x  . .x z z k f r ",
"f f k k z z x z h k z z z g f h k f 8 4 K ' y.m.!.D.w.=./ $.:.d.D.g.a.a.f.a.t.t.f.n.G.J.J.H.G.G.G.F.K.{.}.).M._ U E ~ ` ` _ Y M y h z l l z x c v v x l j l u u ",
"f f z x x x c x k z z z z z k z x h h 8 1 I 2.x.F.a.*.E S F ~ *.5.5.:.;.;.;.=.;.q.x.b.b.b.b.b.b.c.p.N.).]./.<.P , 3 4 n n 4 9 i f f g u l x c x c x k x x l j j ",
"f f l z x x z z x x z z z z k z } { l j > s ! 3.4.2.~ I a Z I ~ ( ( ( / / / / ( ' $.3.3.2.2.2.2.2.2.9.0.z.9.Q M & 1 9 9 9 5 6 i h f f g j z x l l l j j l x j r ",
"f f k z z z h k v v x k z z z z x x  .l u 7 s R ~ R U S Z Z F P I I I I I I I I U R R R R R R R R U R ! ! R J w t i i w V i u u h g k h f k k k l k u u j x j r ",
"r f f f h f f h f x l z z z z z x x x v k y 8 1 2 4 m m D m m 4 4 M 4 m 4 m m 4 M 4 4 9 9 m 2 4 4 4 4 4 2 9 M i p [ i i h [ l u f f h k h k f f j l l l l x j r ",
"f f k j f f h h f z x z k z l { x l x x l l j y 5 7 M M M M M 0 9 0 0 0 q 9 0 0 0 0 9 5 < 9 < < 1 9 9 < 6 0 i i ] [ i 8 k { c h y f h k z k f f j l x c x z f u ",
"f j l k k k h h k z x l [ l l { x l l x x |  .x k u V M w i i p V V p i i i i i p p i p V i p i i p p p V i i V g ] i y k c x h y f f k c k f h k z x x l f f u ",
"f l x f f f u u z x | c v z h z  . .l l x | | [ k u i y y i u ] ] V V p i p p p V V p V V V V V V V V V V p i h h h f u k l x k k k x c } x z j z x j k k f u u ",
"u f l j j j f f x x x { { l h z x x x l c x z z k h g h k h h k ] ] V p p p p p p p p V V p V [ k V V ] V p j z z f h k k k l x c x v v x x x x x x h k k u u u ",
"u u f l l l z z [ z l x x l z z z z z x x z k h z z h k x k k k h i i p p p p p p p u p p V p [ p p V [ [ u z l z g k x z h [ }  . . .c z x c c x z z z k u u u ",
"u u j x l v z l l { x x l k z k k h j z z z z x x z k z z k g h h ] k h j k j h k k u p u u k k j p j k h h l k f k { } z k {  .v x v v } } c z k h k k h u u y ",
"u f l x v v l l l z z k k k z z z k k k z z x x x } [ z z k h h h k k z x l z z x x k k j u k l u l z k k k k u y k { { h k z { x l x c } } } x z k h h h h t t ",
"r j x c x x l l l z h y y f z x x z k z z z z k x } z z } x z h h j k { | { l l | | { k k l l u f x { z [ l f y g k l l k j z l z z } z k z } z l l k h u u u y ",
"u j x x x x l l l l k u u h z l z j k z z z k k z x [ { x  .c k h h k z z k z { l z z z l { x u u z l {  . .z k k z z z k z l l k z h h k } } k c  .x z k k u u ",
"r j z x x l x x x l k k j k z z k f k z z z h h k k z z { } x k k z z j h j l x k h h z l c x u f k x l {  .{ l l x k k z x x l k k k k x } } z c | x [ k j u u ",
"r y j z l j l x x l k l x [ k k k k z k k g k k h h k z z z z k z l z j h z x x k h h z l [ x x x x x { z z  .l z z k k x } x x z z z } } [ z } | x k u u y y r ",
"r u j l j u x c x l l l { z h k x x z k k k k z k h h k z k k k k l l k k l c x k h k l x x c c  . .v l j k z l [ x l k l x x x } x }  . .} v x k k f f k u u r ",
"u u j j j j l x x l [ l z z h k x c x l k k k k k k k k h h k z l { l k k z x | z k l x v v x x c  .v z j h k z c x x l l l x v } }  . . .} } z k g h f u l u y ",
"u u u j u u j l x x x x z k k z z x z x z z z k z k j f h k k x | | x k j k l | x x x c v v l l x c x l z z j j l x l k l x v v x x  .} z x v v c x z f l u u r ",
"u u j l k j u k l x x x z h h k z z x l z k j j h k k z z z z k l x l k j p k x x x x x c c l x x x x z l { l j j l l k x v v x x v } z h x v x c v l j u u u y ",
"r u l l u l u j k l l z k h h k z l l l z l j j j u j z z z k f k l k k u u u l x x x x x x l x c c l k z x { j f j k j x x l l x x l f f z v z c c z k j u r r ",
"e u u u u u j j k k z z k k k k k z z k x x j k j u y y f k j f j k k k k u u c x c c l x x l j l x z f z l z j j f h f k z x l z z l k k z x v x z l k u y e e ",
"e r u r r u j l l k k j k z k j j l z z x l z l k f f f h j j j j k k j u u u c l x l l l k f f f k k f k z k k j j j k f k l j k l k k l z x x k f j u y y t e ",
"e e u u u u l l l l j y k l j h j l x x x l l x k j h k f j k j j j j j u l l c x l l l k g y f u f k k k z j k l l k f f f l j k z k k z x x l g y u y y y e - "
};
