/* XPM */
static char *__resized[] = {
/* columns rows colors chars-per-pixel */
"80 80 212 2 ",
"   c #03001C",
".  c #0D0A26",
"X  c #120F29",
"o  c #13142D",
"O  c #150D31",
"+  c #1A1836",
"@  c #1B2838",
"#  c #262B2C",
"$  c #2C2D2C",
"%  c #352D27",
"&  c #362F29",
"*  c #27312F",
"=  c #2D312E",
"-  c #33322E",
";  c #3C332C",
":  c #2C2F33",
">  c #2C3232",
",  c #283538",
"<  c #2B3C3C",
"1  c #343433",
"2  c #3B3631",
"3  c #353935",
"4  c #3C3B34",
"5  c #32353A",
"6  c #3B3639",
"7  c #343D3B",
"8  c #3E393B",
"9  c #41362E",
"0  c #43382F",
"q  c #413730",
"w  c #453B32",
"e  c #4A3E34",
"r  c #443C3C",
"t  c #493F3D",
"y  c #2E413F",
"u  c #35423E",
"i  c #3B433B",
"p  c #4D4136",
"a  c #464139",
"s  c #4E4239",
"d  c #514337",
"f  c #53453A",
"g  c #58473B",
"h  c #56483B",
"j  c #5B4B3D",
"k  c #604F3F",
"l  c #61503F",
"z  c #1E1D41",
"x  c #221B41",
"c  c #1D2B40",
"v  c #2D2B4E",
"b  c #273746",
"n  c #363C43",
"m  c #363A60",
"M  c #463F41",
"N  c #254447",
"B  c #2B4444",
"V  c #2C4549",
"C  c #2C4A4A",
"Z  c #324343",
"A  c #364949",
"S  c #34534D",
"D  c #3A5A4F",
"F  c #2D4F52",
"G  c #324D53",
"H  c #2D5353",
"J  c #2F5955",
"K  c #335453",
"L  c #325A54",
"P  c #375856",
"I  c #325C5A",
"U  c #34625C",
"Y  c #38665B",
"T  c #3C4C66",
"R  c #356564",
"E  c #356A63",
"W  c #3A656A",
"Q  c #356D69",
"!  c #377366",
"~  c #3C7265",
"^  c #3D736A",
"/  c #3F796B",
"(  c #3A6C73",
")  c #3A7676",
"_  c #3C7B73",
"`  c #4C4241",
"'  c #534743",
"]  c #5E4E40",
"[  c #5E5041",
"{  c #604F40",
"}  c #625141",
"|  c #695644",
" . c #476B5E",
".. c #52506B",
"X. c #416A62",
"o. c #44776C",
"O. c #427C6D",
"+. c #61707D",
"@. c #3C816D",
"#. c #3E837C",
"$. c #41806F",
"%. c #438473",
"&. c #478676",
"*. c #468C7B",
"=. c #4B8C7A",
"-. c #548979",
";. c #47927C",
":. c #4B937E",
">. c #59907D",
",. c #71718D",
"<. c #3D8388",
"1. c #428884",
"2. c #479387",
"3. c #4E9D85",
"4. c #4E9E89",
"5. c #559985",
"6. c #509E84",
"7. c #438C97",
"8. c #469594",
"9. c #499D95",
"0. c #4FA088",
"q. c #51A186",
"w. c #51A38A",
"e. c #5CA28A",
"r. c #54AA8D",
"t. c #57B08F",
"y. c #4CA59A",
"u. c #57AB90",
"i. c #55AD92",
"p. c #53AD9A",
"a. c #59B493",
"s. c #58B194",
"d. c #5CBA96",
"f. c #56B29C",
"g. c #5DBD99",
"h. c #64A086",
"j. c #6DB596",
"k. c #4A9DAE",
"l. c #7985A2",
"z. c #51ADA5",
"x. c #56B5A1",
"c. c #56B8A8",
"v. c #59BEAB",
"b. c #4DA6B0",
"n. c #58BFB1",
"m. c #54BAB8",
"M. c #77BFA1",
"N. c #5EC39B",
"B. c #61C59D",
"V. c #63C99F",
"C. c #75C09F",
"Z. c #5DC0A4",
"A. c #5AC2AE",
"S. c #5BC4B3",
"D. c #5DCAB6",
"F. c #5ECCBB",
"G. c #5FD0BF",
"H. c #62C6A0",
"J. c #64CCA1",
"K. c #6CCEA4",
"L. c #7DC4A4",
"P. c #76C8A5",
"I. c #67D1A4",
"U. c #69D4A6",
"Y. c #69D7A8",
"T. c #6BDBAB",
"R. c #73D7AA",
"E. c #7DDEB0",
"W. c #6DE1AE",
"Q. c #79E1B0",
"!. c #53B8C6",
"~. c #5ECEC1",
"^. c #59C4C9",
"/. c #5ED0CB",
"(. c #5BCAD7",
"). c #5ED2DC",
"_. c #61D5CA",
"`. c #63DBD7",
"'. c #66E2DB",
"]. c #5ED3E0",
"[. c #61D9E8",
"{. c #66E4E7",
"}. c #68E9F2",
"|. c #6BF1F1",
" X c #8A8DA2",
".X c #9CA7BE",
"XX c #82C9A8",
"oX c #84D2AD",
"OX c #86DEB3",
"+X c #84E2B3",
"@X c #85E9B8",
"#X c #95E7BB",
"$X c #92ECBC",
"%X c #97F1BF",
"&X c #A6F4BF",
"*X c #B0F2BD",
"=X c #CDFDBE",
"-X c #ACB2C4",
";X c #98ECC0",
":X c #9BF3C1",
">X c #9BF6C5",
",X c #A4EDC5",
"<X c #A6F7C8",
"1X c #B6F9C4",
"2X c #BDFECD",
"3X c #A4FBD1",
"4X c #ADFDD4",
"5X c #B3FDD0",
"6X c #C7FEC5",
"7X c #D5FEC2",
"8X c #D7FECA",
"9X c #CCFFD2",
/* pixels */
"; & ; ; 9 9 0 0 0 w 0 9 9 0 w 0 9 p w 0 p p e e 0 0 0 0 9 9 0 0 w 0 9 9 0 w 0 0 0 w w w w e e d w e p e 0 p p w 0 % % ; % 0 d 0 ; & & ; 0 p e 0 d w % 0 0 e 0 % ",
"& ; ; ; 0 0 w p e e 0 0 0 w e 0 w e e 0 0 w d w w w e e e 0 w e w 0 0 w e e e e 0 0 w w w d d d e d e e w p w p p 0 9 ; 0 e 0 ; - > > 4 0 0 p 0 d d 9 0 0 0 0 % ",
"& ; 0 9 0 p d d d e e 0 0 e e d e e a w 9 w f e 0 e e e p e e e w w e e e e e e w 0 0 w d d d d e d d d p p 0 p g g p 9 p 0 9 % # , , 3 a e p p g d 0 0 0 0 0 9 ",
"9 0 e w 0 0 p d d e e e e e e e e p d p 0 p d e e e 0 0 e e w e e e d g k k g e f p a p d d d g g d d d p p p p d w p d e 9 ; % - * > 4 w p p e d d e 0 0 0 0 0 ",
"0 e p p e e p p d p e e e e e e p f d p d d d p e w w w d w q e e e e k e e g e f e w d f f d f g d d g d p a p d 0 d d d 0 ; ; ; - 4 e e e p d e e w e e w 0 % ",
"0 w d p d f p p p d d e d d e d d f d d g g f a e e t f f w q w e e e e e k k e w q 0 p f d d f g g j g d p 0 p g d d d d d 9 9 w e d d d p d h d e 0 d d e 0 % ",
"9 0 d d f g g f f f p w d g g d d e w w d g h p e f d d p e e f k e e e g k g e e e p p p d d h j j j g j f p d d g g g g d p d j g f f d d d f d e e e e e 0 0 ",
"0 e d d f g g f f h p w p d d g d w q w d g h s d d d d p e f f g e e e g e k g e s d f p d h g g g g j j g d f d g k g d e 0 k k j g f d d d p p w e e e d e 0 ",
"w p p f f f d d s s d e p f f d s f a a f g j f p s f f p s d h e e e g h f g g p p p f f p h g h h h g f h j h g g j g p ; % f j f g f d g g p a p w w p p w 9 ",
"w a p f g d e 0 e p d h s f j h f h f p f g g d p s g j j f f d g e e g h f d p p 0 0 p p p d j } g h f p p j h g d g g p p 0 p d f d e d g d 4 w p p e e e 9 & ",
"0 e p d p f a 0 w d h j h f h f s h f f f g g f f f h j j h h d g e e g d p p e p w q p p d f k | g d p p p h f d f f f g f f a e d e a f g g w p d p p e 0 0 ; ",
"0 e p p p p p p a f j j h f f f g g h h g g g j k j j h j j j h e e d d p p w p p s s f f f g k } h s s d d f f d f f g j j g d e w d h g g j l j f p p p w 0 0 ",
"0 w d d p p p p f h h } h f h h j s p f k j g f j j h h h g j h g d d h h e p p q p f s p a w e e e a f h k k h d d g h d f f f p p f h g h d h h g p p e 0 0 0 ",
"w e d f p a p d j h j } j f h j f s p h } } j f d f h f h f s f g f a f g e p f q a f s p p 2 0 w e d g j k k j h f h g d d d g h f h j j f p d g g g p p w e 0 ",
"w e d h f f h j [ j l } l j f f d g g j } } { h d a s f g p w p d d t s p 0 p h f s f j h f p f j h g j h d g j k j j j h f f j h d h j h d f g h h d p p p w 0 ",
"w e d f h f j j h j j j j j h f f g k k k k j g f p s f g d a s g d e e p e w e f h j j g j h h h h h j f f j h d j j j h f p f f p w 0 w d f e f g d a e p e 0 ",
"w e d d g g g g h j j f h ] ' j h f j j g g k g h f s s f s p s g f a p p p a q d j k l j j h g g f h h d d l d p h h l g d a p s p 0 ; 4 d h w f j s p w p w 0 ",
"e e e g j g s f [ j h f s s h ] g d e p d g g g h h f s p p f h k j p f h f s f h h l k j g j j h f f j p p g d f l l j g d p p p d h p w d j k j j f p p p w 0 ",
"w e d g g g s f [ h h h f s h h g d a a p d g g h h f f f h h g j j p f f f f f f h k l j g d p e e a d a w d j h h j j f f d s s h h f p j } } l j f d p p w 9 ",
"w e d g f f s f h h h h h h f h h d f f p d g f h h h h f j j h g g p d f h f f f j k g g j p 2 ; 4 ; 2 ; 0 p j l d h h s p f d h f s s h k } } j g g f f d w 9 ",
"e e d j f s g s p f f f h h s f h s f ] j j h f h j | j d g j h g g h h h h g d h l h f f h 2 > , , * , * 1 p g l f f h f d f h f s f j l l | | j f g j j g w 9 ",
"e e f f f f h h f f h h h h h h ] h ] } l k j h j [ j j d h j g g g h d p p 0 e p a p a e a u C J K L I H A i d f f f f s f h h f p f h j j j j d p p g j d w 0 ",
"w e p d f f j j k h h } j h h j j ] } } } j j k } [ h f f s h j g h g p 2 - - 1 3 - - ; 3 7 L ~ *.*.3.6.=.~ A i a p h h s f h h f h f f h h f p p a 0 h k d w w ",
"e e d f f f f h j j j [ k h f f j ] ] j j j j j j [ j j h f d f j j p i , B B < < y < , < S ~ 2.s.d.g.J.d.:.~ u ; p f h s f f h h j h g h g h h d p f j j d w w ",
"e e d d f s f d g j j ] j g f f f ] j j g j g j j j j j f p p ; 0 0 4 i Y o.o.X.X.Y U J U / :.t.g.H.K.T.I.t.%.B = p h d f f d f d h j j k h h j h d j l j d p 0 ",
"e e d f f s s s s h j j g h f s f ] j g f g j g g g g f p p 4 = $ - u  .h.L.L.j.t.:.;.;.:.r.a.N.g.d.H.T.U.d.%.V $ d h f f h f p a p j k l j g h g g g j g d 0 p ",
"e d d j h h g h h f f f g j j f f f g h j g j f f f d f f a Z A B A X.h.oX,X,X#XQ.K.B.N.B.V.V.B.g.i.a.H.V.t.%.C = w d h h h f s a s h j j } k h f d g g g d p 0 ",
"e e d j j h h h ' h h h j k j j f d d f f f f g h f p p a ` D &.&.&.5.L.$X4X4X<X%X@XQ.W.Y.U.U.V.g.s.s.d.d.r.=.U y 3 w d f h j h h h f s h k l j g d d d d d d 0 ",
"e d f f g h j j f j j j } | { j j g t e p e t j j f p 4 = D -.M.P.L.oX+X:X<X>X>X%X%X@XQ.Y.J.J.J.B.g.d.d.i.r.4.%.U y 3 0 s h } j h [ s f d l l l l g h d p d p 0 ",
"e e s f d d f h j l [ j ] } ] ] ] j g f d d d ] k s 2 3 K >.XX;X<X<X,X%X:X:X:X>X<X>X%XQ.U.N.Z.J.J.J.H.a.r.w.u.4.*.~ S 3 w h ] j [ j j h h l l j j l l h p d p 0 ",
"e e g s f f f h k l l ] } } ] j g g g g j g j j d 4 3 K -.L.&X6X9X9X2X1X:X$X$X:X<X<X%X+XI.N.N.J.I.J.B.a.q.4.r.i.r.3./ S 8 w f j [ j j j j l l d j l l d d d p 0 ",
"e g f f ] ] g g k } j j } } f s s f ] ] { { j j q * S =.M.#X2X6X7X7X1X1X,X$X$X:X%X,X$XE.I.N.N.J.J.J.N.a.r.4.q.r.a.g.q.O.B 3 w f j [ j j l j h f h h j d d d 0 ; ",
"p f h h j h f h j } j f j j f h ] [ j j } ] f a i D ;..X&X1X8X7X7X7X1X*X%X:X:X:X%X$X+XR.K.B.B.V.I.V.B.a.w.4.3.r.g.J.J.u.O.D Z w p d j l l l j j j j h h g g p 0 ",
"f h j j h f h h k j h f f f h k } } j h ] f q i D -.L.,X6X8X8X7X=X*X&X:X&X:X:X%X$X+XR.V.V.B.B.I.I.I.B.d.r.3.2.r.g.I.T.I.t.&.L < % p d j l l l j j d d h g g d p ",
"f h j k [ j h j k f p p a f } } j f f f h q = D =.C.,X2X6X7X7X7X6X&X:X:X%X:X:X$X+XY.V.V.B.V.V.V.V.V.N.a.r.4.3.r.a.B.J.Y.B.q.o.< - a a p g l j g d d h d p d p 0 ",
"g j j j j h f h j f d f p d j j h f f s s ; # S >.oX,X6X1X6X6X9X2X3X<X>X:X%X$X+XR.J.N.N.V.V.V.V.B.N.d.t.0.4.4.w.s.d.g.a.:.$.D 3 & a a d d g g g f f f d p d p p ",
"f g h h f f f g h f f j h f f h f j h s p % # L >.oX<X5X<X<X1X5X<X<X>X<X>X$X+XR.I.N.N.N.V.V.J.B.B.a.i.w.w.q.4.r.u.s.r.:.o.S i 0 p p d f d d h j l j h f f a p 9 ",
"p d d f f d f g f p p k l h f h j j j h a - , Y e.OX<X3X>X;XOXXXL.XXoX+X$X@XR.B.N.N.V.V.V.V.I.B.a.r.q.0.q.w.w.w.r.r.2._ U u 4 g l j h h h j j h d f h j h f p p ",
"p p f f d p f f d a p f h h f f h f d a 4 u Y 6.P.+X<X4X3X#Xj.-.X.X.-.j.Q.@XT.B.N.B.V.V.V.J.I.B.d.r.0.3.0.w.r.r.q.w.4.2._ U i a f h j h j j j d d d f h h d a a ",
"p p f f g d g f p a p p f f d p p p w ; < L *.g.E.$X<X4X,XM.-.b o + K >.V.W.W.V.B.V.V.V.V.V.I.B.d.r.0.3.r.0.0.0.q.q.i.f.z.2.E y 3 p f h l h d a p d d f h f p ; ",
"p p p h h h j j h s s h h d d p s s 4 - B U *.t.V.+X$X#XL.-.n O O x .. .:.t.N.N.U.V.V.V.V.I.I.B.d.u.q.4.w.w.w.w.q.6.s.S.G.c.1.V * & p f l h p a d d h g j d w 0 ",
"a f g j h h k k f s f l h s p p f f q 3 C H I o.e.P.P.j.&.n + + ..,. X+.R ! :.N.U.I.V.V.B.I.I.B.g.u.w.q.q.w.w.q.4.6.s.S.~.c.1.V * % d l l h h p h j j l j d w 0 ",
"d h j g h h k j s f h j h p a p h [ s i b , @ b ! t.a.&.b X o m  X-X-X+.n b @.N.Y.Y.V.V.V.J.I.B.d.u.4.4.w.w.w.w.q.6.a.A.S.z._ V * ; l l l j h h j l j j j p w 0 ",
"d d f f h j j h h j h d h h f d f h s i B @ . X J q.r.Y X   O T l..X X..O @ ! N.T.Y.V.I.J.V.B.g.i.r.w.4.w.w.w.4.6.6.i.c.A.z._ V % p d l l l h f j j d h j d p w ",
"d d d f h j h g j } j s d g j g j k p i B @ . o K 0.r.Y o . z ..,.,...v O c O.j.T.Y.V.I.V.B.d.r.r.w.q.w.w.w.w.w.6.5.u.v.A.z._ N = a p j [ [ j h j l f h g d d e ",
"f d f g j j g g h j j j f f k k j j p i B , c b o.t.t.%.N z v m v x z + @ I :.B.Y.Y.V.V.B.d.i.w.3.0.w.w.w.q.w.q.q.w.x.F.~.z.#.V - p d j l [ l h h j h h g d d d ",
"p p f h j j j g p f l | l l k f d j p 4 V C R O.6.N.N.w._ K b x O . O c I 2.a.J.Y.Y.V.N.d.t.w.q.4.w.w.r.w.q.6.4.q.i.n.`.{.(.7.C = a h j h h h f h h f a d g g g ",
"d p p j j j k h a h j l | | l g p k p 2 B U *.t.B.J.J.J.a.&.F + . . + I 2.g.J.J.U.J.N.N.t.q.w.q.4.4.w.w.q.q.6.w.i.x.~.{.{.!.7.C - i h h h j h h l l h p p d g d ",
"p p f h g ] j g f j j h ] } } j l } p - y ! r.I.Y.I.Y.W.W.t./ B @ , I :.B.W.Y.N.N.j.d.i.w.3.0.w.w.w.w.q.q.q.r.p.x.A./.).(.k.( u ; p f h j l [ } } [ h a w f d d ",
"p d d h j ] ] ] j j h h h h [ j j } a = B U :.g.J.I.U.T.W.V.r.*./ O.:.a.I.Y.H.s.s.t.t.r.w.0.0.0.w.w.q.3.0.w.p.c.S.D.S.z.7.( S s h j l h j j [ [ j j g d p p d e ",
"p p f h j ] ] ] ] h f h h h j h h | p = y U *.s.B.B.J.I.I.N.j.a.t.a.N.V.J.N.a.r.w.w.r.q.w.q.0.0.w.q.q.4.w.i.c.D._._.A.8.R Z 4 f k } k j j j } [ j h f s d e e w ",
"e p p f g g g j ] h f s h j j h h l f - N E 2.x.Z.g.d.B.N.d.t.r.a.B.J.J.N.s.r.0.4.0.0.q.q.q.q.0.q.6.4.r.p.x.v.~.`.{.^.1.N $ 9 d k } j h j [ j } j h f f d d e 0 ",
"e p d g g f j ] l h h h } } h h k [ p - B Q y.S.A.d.t.s.a.3.@.! &.0.N.d.a.r.w.w.0.0.0.0.w.0.0.0.6.6.r.p.c.v.A.~.{.}.].7.C > 4 s j j k j j j h j { } j h f f e e ",
"e e d f f f ] { l j h j k j h [ } j p 4 Z R 8.c.A.x.i.0.3./ U H Y *.r.r.w.q.q.q.0.0.0.w.w.w.r.w.w.r.s.v.D.~.~._.[.}.!.7.J n 8 t f g j k j j h g ] } ] j g f e e ",
"e e s f g g j ] j j j [ j h ' } | j d e i K ( 2.x.A.x.3.^ I J Y / 2.q.q.3.3.3.q.3.3.w.p.p.x.f.f.x.c.A.F._.`.{.{.`.!.7.W A M M r s h g h g k k j j j j j j g p w ",
"e e d f f ' j g h f j j h f s j j h s t ` n G W 2.z.z.<.J J E *.3.4.r.q.q.q.q.q.0.0.r.f.A.S.S.A.S.S.S.S.F.`.}.[.!.<.P Z n ` ` t s d j j h g j j } } j j f f e w ",
"a p f f h h j h s f h h h s a f h f s t ` r 5 Z Q 8.y.#.U Y *.i.a.i.i.i.p.f.f.f.s.f.f.A.F./.)./.^.c.p.y.p.m.(.!.7.G 5 2 r t ` t s s j j g h j k k k g d d d e e ",
"p p f l j j k j f f h h h h f h ] f s s M r 8 n K Q _ #.%.;.q.a.a.a.a.x.A.D.D.S.S.S.D.F._.'.|.}.^.8._ ! ) <.7.<.W A 6 r t t M r w e q a g j k j k k g k k k d e ",
"a p h h j j h h l h h h h h h j ] j h d t r r 8 8 V I / *.0.r.w.4.3.r.z.c.S.S.A.A.n.A.v.F./.{.].b.( C b C H H F m 8 r s t M r r w a a a d j j g g g e g d k d w ",
"p p f h h h p f l l [ s f h h h j ] j f e r q r r 5 Z U %.;.;.@.O.%.&.2.8.y.y.9.9.9.9.8.y.y.!.b.<.G * # * , > > 1 r t s M t r q e a p f p f d f g d d e e g d 0 ",
"w p d d p p p p s j j f f f h h j j j j d t r t r r 7 A I U E U U U U R Q Q Q Q Q Q Q E Q ( ) ( T Z 6 r r 8 6 5 8 s r r M f t w e p d f f f p e d g g j j g d w ",
"e d f d f p s p a h h g h h j [ j j j j f d d M t t n n V V C V B B V V N V V C V V V V N C C n Z n t t t t r r M ` r 8 s ' f e w p p h h h s e d g j k j f d w ",
"p f g f f f p p f g j h j j h ] j j g j j j j g t t t 8 n 5 5 5 5 3 5 5 5 1 > 1 : 5 : 5 , > $ : 1 t t f s M r r M ` M r p g j s w a p h j h p s f h j g g d e e ",
"e d j d p p e p h j } j j h s h } j j j { { { g e r r 8 6 7 8 8 r r r 6 6 8 r 8 r 8 M r r r r r r t M t M s t r ` ` a w p g g f s f j j k j h f h j d f g d e e ",
"e d d d d d p d h ] j ] ] g s h k j j j [ j h f s a 4 a s a s ` M t t t t t t t M t ' t M t M ` ` t M M M t t t s a a s s f h j j j } k h j k h j j s f f a e e ",
"e e d g j g g h h g g h j g h h h d h j j h f f p p a s h s ` ' M M M M ` M M M M t M t t t ` ` ' M M ' ` M e g p q s h f f h } } } } k h j k k j h h h f e e w ",
"w e f g j k g g j j j j g g g f f s f f h h h j h h f f f d s r ` ` s ` t M t s t t t t r e t f t t t s M t g d p p h [ f f ' | l j l k } } k j h s f f d e e w ",
"e d g j k k g g j j h f d d f ' h f f f f h j j [ ' h h h f a r r s a s g f d t g ' e e t e t t e t t t t f d e a h [ j f f j j j g j k j [ [ j f f s s s a w w ",
"w d j j l j g g g f t w w p f j j h h f h h f h j [ h j k j f e e e e h ] g d d j j f s t e e t e d f t f d e w r f j h f f f g h h j h s h [ [ j j f s t e e e ",
"e f j j j j h g j g d e e s h j h d f f h h f f h h j ' j } j f p s f f s d g g g d f f g j d e w f j f { { g f f h h h f h j g f h f s f j [ h j { h h d d e e ",
"w e g j g g g j j g f s s f j f f p f h h h f f f f h h ] [ j f f f f f s s g ] g d f g j k g d e f j ] { { ] j h h f f h j j g h f s h ' [ h h k { j f d d e w ",
"0 e d j f d g j j j f g j j f f f f h h s s s f f s f f j j f f f j h f d f j j t d s g g j g j j k j j ] g { g g g f d ] ] j j h h h l } h h } k j f s e e w 0 ",
"0 e e g g e g k j g g g ] h s f j j j f f f f f f s f f f f f f g g g d d ' j j f s f j j k j l l | k g f f h j j g f h g j j j j j [ | | ' j j h p p p d d e 0 ",
"e e d d e g g k j j g g h h s f j k j f f f f h f f f f s s f f g j ] f f f k j g f g j l l j l k } l f d s f h j j g g g g j l [ l [ | } | l h f p d s e g e 0 ",
"e e e g e e e k ] ] j g h f f g h h j j h h h f f f d s s f h j ] ] g g f d j k ] j j k l l j g j k j g g f f d g g g h g j l l l h [ [ h j l k j l h s g e e w ",
"e e d d g e e e g g j j h s s f h h g j h f d d s f h f h h h f g ] g f d s f j j j j j k j g g j k j f g j j d d h h f j k l j j j l h p h l h j l h d e e e 0 ",
"w e e k e e e g d g h h f s d f h g g g g g d p d e d f h h f p d g g d e e g e g j k j j j g j k k j f f j j s p d f f h j j g h l h f a j l h l j h d d e w 0 ",
"0 w e e e e e e g d f g f d f f f h f h j g d g d e w e d d d p t g g d e e e k j j j g j j f d g g g s f j g g d p p d f h g g h h h f d h j l j j h d e e 0 9 ",
"9 0 e e e e e g g d f d g g f d d g h h j g f j f d e a s d d d g d g f g e e k j j g j g d p p d f f s f j d d f d d s p d g d d h f d g j j j d p f p w w 9 ; ",
"9 0 e e e e k k g g t e f h s s f g g j j g g j f d f f p d f d e g e d e d g k j g d j g a 0 p w d f d f g d f h f f f p d g d d h d h h j j j a q a e w w 9 & "
};
