/* XPM */
static char *__resized[] = {
/* columns rows colors chars-per-pixel */
"80 80 224 2 ",
"   c #07051D",
".  c #0D0928",
"X  c #101227",
"o  c #161B2D",
"O  c #1A1837",
"+  c #241838",
"@  c #1A2134",
"#  c #1B2F36",
"$  c #1D2939",
"%  c #27282A",
"&  c #2B2C2C",
"*  c #352E28",
"=  c #2F302F",
"-  c #34322D",
";  c #3C332C",
":  c #3F382F",
">  c #262F33",
",  c #2D3334",
"<  c #283637",
"1  c #243B3D",
"2  c #2A3A3A",
"3  c #343334",
"4  c #3C3632",
"5  c #343A36",
"6  c #3C3933",
"7  c #34353A",
"8  c #3C3739",
"9  c #343C3B",
"0  c #3D3A3C",
"q  c #41362E",
"w  c #44382F",
"e  c #423730",
"r  c #453B32",
"t  c #4A3E34",
"y  c #443C3B",
"u  c #493F3C",
"i  c #2C423F",
"p  c #34423C",
"a  c #3A433C",
"s  c #434037",
"d  c #4D4136",
"f  c #4E4239",
"g  c #514337",
"h  c #53453A",
"j  c #58473B",
"k  c #56483B",
"l  c #5B4B3D",
"z  c #604F3F",
"x  c #61503F",
"c  c #272646",
"v  c #253C44",
"b  c #2B3F41",
"n  c #373D42",
"m  c #303252",
"M  c #35375A",
"N  c #373D63",
"B  c #453E40",
"V  c #493F40",
"C  c #423459",
"Z  c #2C4143",
"A  c #274448",
"S  c #2B464A",
"D  c #2B4B4B",
"F  c #364847",
"G  c #34514D",
"H  c #3E584F",
"J  c #314D52",
"K  c #2D5453",
"L  c #2E5955",
"P  c #2E5B5A",
"I  c #325552",
"U  c #335C55",
"Y  c #395658",
"T  c #325D5B",
"R  c #33615C",
"E  c #39665D",
"W  c #335E65",
"Q  c #346463",
"!  c #366A63",
"~  c #396B63",
"^  c #326668",
"/  c #396B6A",
"(  c #3A7166",
")  c #3B7469",
"_  c #3E7B6D",
"`  c #3A6A73",
"'  c #3B7372",
"]  c #3B7A77",
"[  c #454245",
"{  c #4C4241",
"}  c #514542",
"|  c #554845",
" . c #5E4E40",
".. c #514D4E",
"X. c #604F40",
"o. c #625141",
"O. c #695644",
"+. c #655E7B",
"@. c #446B66",
"#. c #477669",
"$. c #427D6E",
"%. c #447E71",
"&. c #4A806F",
"*. c #438473",
"=. c #4B8374",
"-. c #468979",
";. c #468C79",
":. c #558978",
">. c #46927B",
",. c #49927C",
"<. c #55937F",
"1. c #6C977F",
"2. c #3C7882",
"3. c #5B6283",
"4. c #6D718C",
"5. c #438B85",
"6. c #489586",
"7. c #4E9C85",
"8. c #45938C",
"9. c #4D9E8A",
"0. c #559583",
"q. c #509E84",
"w. c #428291",
"e. c #499B95",
"r. c #499B96",
"t. c #639A86",
"y. c #4FA088",
"u. c #50A086",
"i. c #51A38A",
"p. c #54AA8D",
"a. c #57B08E",
"s. c #58B18F",
"d. c #4CA399",
"f. c #54AC93",
"g. c #52AA96",
"h. c #57B292",
"j. c #59B493",
"k. c #5CBA95",
"l. c #56B39C",
"z. c #58B69E",
"x. c #5DBD99",
"c. c #66A78D",
"v. c #68AE93",
"b. c #69B696",
"n. c #75B899",
"m. c #4899A6",
"M. c #4DA7A6",
"N. c #55B4A2",
"B. c #58B7A0",
"V. c #57B9A6",
"C. c #5ABBA3",
"Z. c #53B4A9",
"A. c #56BAAC",
"S. c #58BDAB",
"D. c #4FA9B0",
"F. c #57BCB0",
"G. c #53B7BB",
"H. c #5EC39B",
"J. c #5FC89D",
"K. c #61C59D",
"L. c #63C99F",
"P. c #5BC2AD",
"I. c #5BC4B3",
"U. c #5DC9B6",
"Y. c #5BC6B9",
"T. c #5ECBBA",
"R. c #5FD0BF",
"E. c #61C7A7",
"W. c #65CDA1",
"Q. c #6ACEA3",
"!. c #78C7A4",
"~. c #66D1A4",
"^. c #69D4A6",
"/. c #6BD7A9",
"(. c #6CDCAB",
"). c #75D6AB",
"_. c #7ADAAD",
"`. c #60CDB9",
"'. c #70E1AF",
"]. c #78E1B1",
"[. c #51B5C4",
"{. c #5CCBC5",
"}. c #5DCED6",
"|. c #61D5C7",
" X c #63DAD7",
".X c #66E2D8",
"XX c #5ED2E2",
"oX c #63DEE9",
"OX c #68E7EC",
"+X c #6BEEF2",
"@X c #858599",
"#X c #9CA6BD",
"$X c #A0A4BB",
"%X c #85CDAB",
"&X c #86D4AD",
"*X c #89DAB2",
"=X c #93DBB3",
"-X c #A8D7B1",
";X c #8AE4B6",
":X c #89E8B9",
">X c #93E4B8",
",X c #95EDBE",
"<X c #85F0BB",
"1X c #98F0BF",
"2X c #ADEDBB",
"3X c #A3F3BF",
"4X c #CBFCBF",
"5X c #B0B5C6",
"6X c #8BEEC2",
"7X c #97EEC1",
"8X c #9BF3C2",
"9X c #9AF6C4",
"0X c #A6EEC7",
"qX c #A6F7C6",
"wX c #A5FBCB",
"eX c #B7FAC8",
"rX c #ADFAD6",
"tX c #B6FEDF",
"yX c #C9FDC7",
"uX c #D5FEC5",
"iX c #D9FEC8",
"pX c #CAFED3",
"aX c #D7FBD3",
"sX c #E1FFCD",
/* pixels */
"; * ; ; q w w w w r w w w w t q q d t q t d t t t w w w q q w w w w q q w r w w w r t w w s t t t t d t w s g t q * * * q w g w r w t t t t t t t t q q w t q * ",
"* ; ; q w w r d t t w q w w t t r t t 6 w t t t w w t t t w w t t w w w t t t t w w w w r g g g t g g t t t t t t w q q w w t w q t t t t t t t z t q q w t q ; ",
"* ; w q w t g g g t t w w t t t d t t r q w g t w t t t t t t t t w t t g t t t t w : t g g g g g g g t g d w g j j g w t r q * ; r t t t t t t j t w w w w w ; ",
"q w t r w w d g g t t t t t t t t d d d w d h t t t w w t t t d t t g j z j j t g d t g h g g j g g g g h d r d t t t g t w * q q e j j t t t t t t t w w w w q ",
"w t d d t t d g g d t t t t t t d h g d g h h t t t e t d r e r t g g j t g g t g t r g h g g h j h h j g d t s g t g g g w q * ; r g j g d t g j t t t t t q ; ",
"w r d d g h g g d g g t g g g t g h g g j j h u t t d h h r q r t t t t t z j t t e q d h g g h j j l j g s w g j t g g j t w q r g h h d d g h t t t t t t q * ",
"q w g g h l h h h h d r g j g g g t r r g j k d t g g g d t t h g g t g j j z t t t t u g g h j l l l j l g t g j g g j j g g g l k j g g g h h t t t t t t t w ",
"w t g g h j h h h h g r d j g g d t e r g h k g g g h u d d g k h g t g j j j j t g h g g g j k j j j l l l j g g j j z g t t z x j j h g h h d t t t t t t t t ",
"t d d g h h g g f h d s d h k g h f f t h k k h d d k h h d f h g t g h k h h j g d d g h d h k j k k k h k l k j j l j d ; * h l h k h g k k d t t t t t d w q ",
"w t f h h g t r t f h k g g l k g k g d h k k d u g k l k k g g g t u h k h g g d w e d d d h k o.k h h d g j k j j j j d d r r d k d t h j g : t d d s t t q ; ",
"w t d h g g t w t f k l h h k h f k k k h k k h h h k l l k k k g u t h g g d s d t e d g h h x o.l f d d d k h g g j h h j h r r h t d h j j t d g d d t t q ; ",
"w t d d d g g s r h l l l h h h k h k k k j j  .z l l k k l j k g t h h g t t t d f f h h h j l o.k h d g g k f g g h j l l l h t r g k h j l x j g d t d e w w ",
"w t t g d s d g h h l o.k h h l k d d h X.l k h k l j j h j l k h g g k k t d d r s h f d d t w t t d g k l l k h h h j h h k h g d h k k h h h k k g d t t r w ",
"r t g h g s g h l k l o.l h k k k d d k o.o.l h h h k k k h h h h g d h k t f h r t h h d r 6 e r t t t r d h h g h j j g d h h h h k k l h d h k k k d t t r w ",
"r t g k h f k l  .l  .o.l l k h h k j z o.o.l h d f d k j t s d h g t d d r d h f f h k k k f h l k d - & & = e g l l l h h h l j h h j k h g j k k h d t d t w ",
"t t g h k h l l l l l l x l k h h j l z z X. .k h d d h k d d f h h t t d t r t h k l l k k k k k d 6 F G I D p r h l l j f d h h t t r r h h t h k d t t g w w ",
"r t h h j j k k l l k h l l l k k h j l j l l j k h d f k f f h k h d d d f r t d x x x l l l h f a [ #.0.0._ U p s g j l g t d d d 6 : ; h h t g l g u t g r w ",
"t t t j j k u h  .l h h f f l l k d d d g k l j k k h f d d d k l k d d h h f d h l o.x l j l d ; F #.c.!.!.h.*.U 5 w s j h g d d h k d r h  . .l k h d s d w w ",
"r t t h k k g h  .l l h h h h l k d d s d g h j k k h h h h k j l k t t t e r r t s h d g g s ; % H <.%X7X6X^.i._ S 3 t f h d d h k h h t k o.o.z l h g g d w q ",
"r t h j h k g g l k h h k k h } k h h h g g k h k k k k h l l k l h w - 3 - - 3 - 4 6 - 4 w - % # I <.&X6X6X/.h.%.D , 6 d f f h h h f h k  .O.o.l l j h g g r q ",
"t d h j h t j h s h k h l h f k k k k | x l k h k l o.l g j l k l h : , 1 1 < < < < 2 < 2 , 2 > # D *.b.'.(.x.7.) A 3 6 d h h k h d h k x x x O.l h j l l h r q ",
"t t g h h h k k h h k l k k k k k k l o. .l l k l  .o.k g d t e w w a H ~ @.~ E R R L R R R R L D P *.p.H.j.,.( I p 6 t d h k k h d h k l l x l h d d j z h r w ",
"w t g g h h | z o.k h o.l k k k l X.o.o. .l l x  .o.k h f 6 - & * 5 H :.n.n.b.c.<.>.>.,.,.u.,.;._ _ >.p.i.;.E F 5 r d k h g k h h k h h k j k d d t w h l g r r ",
"t t g h g h h j l l l o.l l h h k X. . .l l l l l x l k d 5 2 S i G :.!.,X0X>X*X^.K.H.H.K.L.H.k.p.u.i.p.7._ L i 6 k k h u g h k k l k k l k k k g d h l l g t w ",
"t t h h h f g g k k  . .l j h h j  .l k j j k l l j j t 6 G @.=._ =.b.>XwXrXwX1X<X].(.^.^.^.^.W.K.j.s.p.6.*./ G a d s w q r h h d h k x l k k k k g l x j g g w ",
"t t t h h h f h f k j j l j h d h x  .k j j l l j h t - Z #.c.!.n.!.*X1XwXwXwX9X1X<X].).^.~.~.~.W.K.j.i.y.d.e.) G 5 = > - r f f d d k x x x k k j j j l j g d w ",
"t g h j k j k j h h k k j l j j h h h k k l j k d w 3 F #.n.=X0X0X0X9X1X1X1X1X9X9X1X;X).W.J.L.~.W.L.k.p.l.S.I.d.) S S G G a r s s h h l l o. .j g h g j j g t w ",
"t t h l l k k k } k k k l o.l k h g h h h h h t r a F $.n.=XeXpXpXeXeX9X1X,X1XqX3X1X;X).L.H.J.W.Q.L.k.i.l.I.|.d.' S R *.&.E F 6 f h h h h  .o.l k h g g j g g r ",
"t t h h k k l k h l l l o.O.X.l l j g t g t t r 5 i #.v.=XeXyXuXiXyXeX3X1X<X1X9X3X1X:X^.L.H.L.W.W.K.k.p.l.P.Y.r.^ D ~ u.a.*.G 5 r l h f h l x x l j k h g g t r ",
"t g d h g g h k l o.o.l  .o.z z l k h h g g t q , D <.&XeXyXiX4X4X4X2X3X1X1X1X1X1X;X_.Q.L.H.L.W.~.K.j.p.f.S.I.M.] E *.p.u.&.D 5 e l  .h k x x l l x l h d g d w ",
"t t h g k h h k z o.z l o.o. .| l j j l k | h q = D t.-XaXsXsX4X4X2X3X1X1X9X9X1X;X_.Q.W.L.K.L.W.Q.K.k.p.g.Z.Y.P.d.8.>.>._ H a a d l l x l x l h l x x k d g d w ",
"t h h j  . .k k z o.l l o.o.h d g h | o.o.X.j w , G 1.-XaXsXiX4X2XqX1X1X1X3X1X;X).Q.K.L.L.L.L.L.W.K.k.i.g.N.I.{.T.A.9.) i : d j l l l x x l k h k k k k g g w q ",
"d h k k j | k k l o.l k l l h k  .o. .k  .k r a ..#.%X-XuXaXpXeXrXwX9XwX1X1X;X_.Q.J.H.J.L.L.K.L.K.k.a.i.p.g.A.`.|.Y.e./ > ; g h h l l x x l l j l l k k j j d w ",
"h k l l l k k k l l k f h h k o.o.o.l h h r 5 H :.n.&X0XeXeXeXrXwXwX9X1X1X:X).W.L.H.H.J.W.W.K.K.k.p.p.i.i.i.g.I.|.Y.r.Q > * j t g k k l l x x l l j h h j j g d ",
"h l l x l l k k x k d d d d o.o.| h h d r , i =.!.1XwXwX7X;X*X*X&X*X>X,X:X].Q.H.H.L.L.L.L.W.L.H.s.i.q.u.u.q.i.B.I.F.e./ 2 ; t h g k s h j l l k d d h g d g g w ",
"h k l l l k k k l h d h f h l k j h h d 4 & v :.%XqXtXrX7X!.t.#.@.&.v.&X<X].W.H.L.L.L.L.W.W.L.H.p.u.9.u.u.q.q.z.I.S.e./ 2 ; t h k k d s k j l l k k h g g g g d ",
"h j j j h h h h j j h l k h h k j j k d : % i =.%XwXtXrX*Xt.Y O @ Z &.b.].(.W.H.L.L.L.L.L.W.L.H.h.i.q.i.9.q.u.z.I.F.r.~ < - d k k h h h h h k k l l k h f d d w ",
"g g h h h h h h k s g z x l h k l l l k e & 1 =.n.:X8X&Xt.Y $ . + M @.;.a.H.J.W.W.L.L.L.W.L.L.H.s.i.q.9.u.u.i.B.I.F.r./ 2 ; g l x k k k k l l k k k l l k h g w ",
"g g g h g g h h g t t h k k h h k h l k t = i =.b.).!.t.W + O m +.4.4.@.( >.H.~.W.W.L.L.W.Q.~.H.j.i.9.i.u.u.i.B.I.A.e./ 2 * t k x x k k k k k g d h h k k d s w ",
"g s h h g h j j g s t g g h h d s d h f r - 1 $.j.K.<.I O . c 3.$X5X@XY 1 ! a.(.^.W.L.L.W.W.P.b.s.i.9.i.u.u.i.B.I.F.e.~ < % ; d x l k x x k g d d d d k k d d a ",
"d d h k k k l l k f s k k g d d d d d w ; % % ! i.j.) #   X m 4.#X#X4.c X L p.(.(.~.J.~.W.K.x.h.p.i.y.y.u.u.i.B.I.S.e./ 2 - w t s d d g x k s s g k j l j g w w ",
"d g j k k k x l h f k x k d d d f h s 5 2 o o T 7.j.) #   O N 3.4.4.C + o R a.(.^.~.W.J.K.x.h.p.i.i.i.i.y.u.i.B.I.F.r./ < - t t s s k x x l h h k l l l l g r w ",
"d h l j h k x l f h k l k d d f h h a 5 v > $ W q.k.,.K @ c M N M c O O v $.k.(.^.W.L.L.H.h.i.u.i.i.i.i.y.u.y.C.I.F.e./ 2 - w d s k o.O.x x k k l l k l j g t w ",
"g h h h k l l l k l l d k k h f h h a 2 J Y T -.s.K.a.*.P m c O . . O S $.i.L./.^.~.J.H.j.p.i.9.y.i.i.i.u.u.y.x.I.F.e./ 2 - d h h h k x x l k k x l k j j h t t ",
"h d d h j l j j l  .l f h j l l j h 6 i W _ 9.k.W.J.W.k.;.W >   . X D *.j.L.W.~.^.L.x.h.p.y.y.i.y.i.i.i.i.u.i.z.I.A.e./ 2 ; d h k k k l o.o.l k l x h k l g g t ",
"h h h k l l k k k l l l h h l x l g : , ~ 0.H.^.^.~.'.(.b.*.J @ O A _ b.(.(.W.H.H.H.h.p.u.9.i.i.i.i.i.i.u.i.u.z.I.S.e./ 2 - d h x  .x k x  . .k k l k h j g g g ",
"d d h l l l l j d h o.O.x x x h d g 6 2 R ;.p.L.~.~.(.(.~.a.>._ ) *.p.L.(.~.x.h.s.h.p.i.u.y.y.i.i.i.i.i.u.,.u.l.P.V.8./ 2 ; g x o. . .k k k k h k l h f g g l g ",
"g d g j l l x k d k x o.o.O.x h g h r , T *.i.K.W.~.~.~.W.H.j.a.s.k.K.L.J.k.p.y.i.p.i.i.y.y.i.i.i.i.i.i.u.u.u.C.I.I.d.( 2 - h x  .x x k k k k k l l k f g l g g ",
"g d g h l l l k k k l k  .o.o.x l l 6 < T -.d.C.W.H.E.K.H.s.a.k.K.W.Q.E.k.p.u.9.9.q.i.i.i.i.i.i.i.i.i.u.y.y.g.I. X|.M.' 1 - g o.O.l l l l  . . .o.o.k t t h h g ",
"d g h k l X.X. .l l k k k k l l l l 5 < Q 8.V.`.E.b.x.k.i.-.) $.7.j.x.j.p.i.u.9.u.9.u.i.i.i.i.i.i.i.u.9.y.f.V. XOXoX[.] < - j x o.x l l l  .o. . .k h d d t t t ",
"t d h k k X.z z X.k k k h l l k h l e < R 5.N.A.f.7.q.7.-.E L R *.i.f.p.i.i.i.i.i.i.u.i.i.i.i.i.u.i.u.u.f.l.I. XOX}.D.` 2 : k l o.o.x l l l  . . .k h h g t t t ",
"t d d h h k j l l k h h l l l k k o.f 0 Y ' 5.5.] ~ E Q ! R P ( ;.9.p.i.9.i.i.i.i.i.u.u.u.9.u.u.9.y.p.f.N.I.I.Y.G.m.2.N 0 t h k l o.k l l  . . . .k k f g g t w ",
"t t h h k h | z  .k k k  .o.k k  .l k f F Y T P L D A D L ! *.7.9.u.i.i.i.i.i.i.i.i.i.u.y.y.y.y.q.i.f.S.Y.R.T.Z.w.W J F f f { h k x l l l l j l  . .l k k h t r ",
"t t g j h h  .X. .l k l  .l }  .X. .k k V n b A L P K K P *.7.h.p.i.i.i.u.u.i.u.u.i.i.f.f.f.p.i.p.l.V.I.|..X|.M.) < 3 0 { | { f k l x l l l j l  .o.l  .k g t t ",
"t t g h h j  .X.l l l  .l l l o.X.k j j B 7 1 P ] 8.-._ _ ;.i.h.f.i.q.q.u.u.q.u.7.y.f.l.N.N.l.N.C.U.T.|..X+XOX[.] 1 & e } | } u d l j k l l l l l l l l l j t w ",
"t t h h } j j j k k k l k h f l  .k g y B n b Q 8.Z.N.d.7.u.i.p.p.p.i.i.i.p.i.i.u.p.N.A.Y.Y.Y.I.I.F.P.I.|.OXoX[.2.v 3 y V } [ f g l l j k l l x o.o.l k k h t t ",
"d d h h k k l k f h k k k s s h j h t y B n n W 5.g.S.x.j.f.p.p.i.p.f.l.B.B.z.l.l.z.P.T.|..X X}.F.d.6.e.M.G.[.m.` n 8 y u V V u f k l j h j l x x z l j j g t t ",
"w d k l l l x l h h k k k k k l l h f s V B B F T ] 6.p.j.j.p.p.f.f.B.P.T.T.T.U.U.T.T.R..X+X+X}.m.' R / ' ] 2.` Y n y u f V B y d d t s j l l l z l j l l j g t ",
"s g h l l l l k x l k k k k k l l j h u V y y n n K ~ ;.i.i.9.7.0.u.g.Z.F.I.A.A.F.A.A.A.{.XXXX[.2.D < b A D J F n y V V f y y e s f r d h k l j j j t g j j g t ",
"d g h k k k d k x x k k h h k l l l l g y y y e 8 2 D ! *.*.$._ ) _ *.8.8.8.8.8.8.8.5.5.e.M.m.w.Y 2 % , , , = 3 e u V V u u u y s f h f d h h h h h g t g l g w ",
"r d g g d d f s d l l h h h l l l l z l t y y u y 0 n D P P L K K U P T Q R R R T T T P Q ^ ^ Y F 8 8 y y y 0 0 y { u 0 s k h t t g h h h h d t g k k l l j g w ",
"d g h g h d d f d k l k h l l l | j l l h h g { V V n n b A b Z Z b b b A 1 Z v b n b b b b v 7 n y u u { V u 0 B { y y { k k t w g d k l h d d g j l z l h g t ",
"d g j h k g d d f l k k k l k |  .j j j j  .j h V V B n 7 7 7 7 8 9 7 7 3 3 7 7 7 7 7 7 7 = 3 3 y u } u V u u B [ f y r h l X.d s s f h l h f f h j l l j g t t ",
"t h l g d f r d k l o. .l l d k o.X.j k  .X.z h u y 0 8 8 8 y u B y y y 8 y y y y y y y y y y y u u u u u u y V V f u t h k k k g h l x  .l k h k j g h h g t t ",
"t g h g g h d d k  .l X. .j d k  .l k l  . .h f d r s s f y f { { u V B u V V u V V u V V u { V { V B [ f u d f d f d h h h k l l l x x l l l l l l f h h d t t ",
"t t d j j j k j l k j k l k k k k h k l l l h f f f s f h d { | { B V V [ u V V V V V V u u { } { B B } { u k h d s f h h h k o.o.o.o.x h l  .x l l h k h t t t ",
"t t h j l x j k l l l | j j k h f h h k k k l l l h h h h d s u u f [ f u u u u u V u u y y u } u u u { u f k h d f  . .h h l o.o.l x x o.o. .l k f h h f d r r ",
"w g j z x x j h k j j k g g k k k h h h h h l l  .| k k k g t y u d d h j g h h j j t t t t u g u d d u f h k t r h  .o.} f l  .l k l x l  . .l h h d f f s r r ",
"t g l X.x k j j j k t r r d h l l k h h k k h k l  .k j  .k h u t u d k  .k h h l l k u g h t t t h j g k k u r s h k k h h h j k k  .k f k  .k l l h f d u t t ",
"t g l l l l l j k k g t t d k k k f h k k k h h k l k l  .X.l g d g h h k g j j j k h k j j h t r h k j  .X.k g h k k j h j j h h h h f h  . .k l z l h g d t t ",
"r t j l l j j l  .j h h f h k k h f k k h h h h h h h |  .o.l h h k h h u g j l h d h h  . .j h d k l  .X.o. .k k k h h k l l j h h f h l  . .k X.o.k h d h t w ",
"q r h k h g j l k k k k l k k h h h h k h f f h h f h k k k k h h k k h d k l l h f f k j j j | l l l l k k X.l k h h h  .X.l l k k k x o.} k o.x k h f t t t w ",
"w t t j g t z z j j j j l l d h l l j h h h h k h f h h h h h h j j j h g  . .l h d h l l l l z o.O.z j h h k | l l j j j l j l  .x  .o.o.x l k h h d s g t t w ",
"t t t g j t j z z j j j l | d k l x l h h h h k h h h h f f g k j l j k h h l  .k h j l z z z z x o.x h g g g k l l j j j l z z  . .o.O.o.x  .k h f h h t j t r ",
"t t g j t t t j z l  .j h h h h l k k l h h h h h h h f d h k l X.X.l h g g j X.l l j z z z l j l z l j j h h h j l j h j l x x l l  . .k x x x x l h d t j t w ",
"t t t g j t t z j | j j h f h h k k l l l h h g f h h h h k k k j l j h u g k l l l l z z l j l l z l h j l l h g j h h l z z l l l x k d l x l x l k h g t t w ",
"t t t z t t t t h j j k h d h h k l j k j h h g d t d h k k h d j j h h t t t j l l l l l j j z z z k h k l  .t d g h f j l l j l x k h s k l k l x h h g t r w ",
"w t t t t t t j h h k k k g h g h j k h l j g h g t t t h g h d t j h h h t t z l z z j l z g g j j k d k k h g g g d h h j l h k k h h h k x l l l k d t t w q ",
"q w t t t t t t j h g t h j h g h j k h l j k j h d d d d g d d h h h h t t t z l j j j j g g g d h h g k k h h g h g g d g j k h k h h k l l l h d d d t r q ; ",
"q q t t t t z z j j g t h | g g g h l l l j j l k d h f d g h h t h g g t h j z l j j j j s r s t d h g h k g h k h h g d g h g h h h h k l l l s r d t e r q * "
};
