/* XPM */
static char *__resized[] = {
/* columns rows colors chars-per-pixel */
"80 80 220 2 ",
"   c #09081E",
".  c #0A0723",
"X  c #14102A",
"o  c #171735",
"O  c #221238",
"+  c #182333",
"@  c #1B2A30",
"#  c #27292A",
"$  c #2C2E2E",
"%  c #352D27",
"&  c #332E2A",
"*  c #382F29",
"=  c #2C312E",
"-  c #35322E",
";  c #3C332D",
":  c #262938",
">  c #2C3433",
",  c #283437",
"<  c #2E3937",
"1  c #2D3B3A",
"2  c #343433",
"3  c #3B3532",
"4  c #343A35",
"5  c #3D3A33",
"6  c #33353A",
"7  c #3C3739",
"8  c #323C3A",
"9  c #3D3B3A",
"0  c #41362E",
"q  c #43382F",
"w  c #413730",
"e  c #453A32",
"r  c #4A3E34",
"t  c #443C3C",
"y  c #493F3C",
"u  c #2B403F",
"i  c #34423D",
"p  c #3B423C",
"a  c #4D4136",
"s  c #444238",
"d  c #4D423A",
"f  c #514337",
"g  c #53453A",
"h  c #58473B",
"j  c #56483B",
"k  c #5B4B3D",
"l  c #604F3F",
"z  c #61503F",
"x  c #1C1C41",
"c  c #231E48",
"v  c #282747",
"b  c #253C43",
"n  c #293946",
"m  c #363E43",
"M  c #2D2F52",
"N  c #463E40",
"B  c #493F40",
"V  c #403358",
"C  c #294647",
"Z  c #2C4546",
"A  c #2C4649",
"S  c #2C4C4B",
"D  c #314242",
"F  c #374947",
"G  c #2D504F",
"H  c #32514D",
"J  c #3C524A",
"K  c #2E4D51",
"L  c #354A51",
"P  c #2F5552",
"I  c #2F5956",
"U  c #315453",
"Y  c #345B55",
"T  c #335C5A",
"R  c #395958",
"E  c #2E675C",
"W  c #34635B",
"Q  c #3A655B",
"!  c #3D4E67",
"~  c #346462",
"^  c #396567",
"/  c #356A64",
"(  c #396D64",
")  c #356D6A",
"_  c #3C7264",
"`  c #3E756A",
"'  c #3E7A6D",
"]  c #386A73",
"[  c #3C7978",
"{  c #444141",
"}  c #4C4241",
"|  c #524642",
" . c #564840",
".. c #5E4E40",
"X. c #4C554A",
"o. c #604F40",
"O. c #625141",
"+. c #695644",
"@. c #44655A",
"#. c #4E4F70",
"$. c #625A7D",
"%. c #50696F",
"&. c #497568",
"*. c #417C6E",
"=. c #557F6E",
"-. c #3F827E",
";. c #438474",
":. c #4E8A77",
">. c #458778",
",. c #468C7A",
"<. c #498E7A",
"1. c #548978",
"2. c #4A937D",
"3. c #4C987E",
"4. c #678A74",
"5. c #3F7786",
"6. c #7B7995",
"7. c #3E8280",
"8. c #3F8690",
"9. c #428883",
"0. c #4B9581",
"q. c #4E9D84",
"w. c #46958C",
"e. c #4E9E89",
"r. c #509F85",
"t. c #5B9A86",
"y. c #428D98",
"u. c #479997",
"i. c #629982",
"p. c #4DA486",
"a. c #4FA089",
"s. c #50A187",
"d. c #51A38A",
"f. c #54AA8D",
"g. c #5BA98D",
"h. c #4FA797",
"j. c #51A593",
"k. c #54AC92",
"l. c #53AC9B",
"z. c #57B294",
"x. c #5AB593",
"c. c #5BBA96",
"v. c #56B39B",
"b. c #59B69C",
"n. c #5DBD99",
"m. c #68A58E",
"M. c #6DAA91",
"N. c #68B596",
"B. c #74B99A",
"V. c #4799A5",
"C. c #7A87A4",
"Z. c #4EACAC",
"A. c #51AEA5",
"S. c #55B4A3",
"D. c #58BAA7",
"F. c #59BEAB",
"G. c #4DA2B5",
"H. c #54B9B5",
"J. c #5EC29B",
"K. c #5FC89D",
"L. c #61C69D",
"P. c #63C99F",
"I. c #5BC1AB",
"U. c #5BC4B3",
"Y. c #5DC9B6",
"T. c #59C2B8",
"R. c #5ECBBC",
"E. c #5FD0BE",
"W. c #65CCA1",
"Q. c #6BCEA4",
"!. c #78C6A3",
"~. c #66D1A4",
"^. c #69D3A6",
"/. c #69D4A8",
"(. c #6CDBAB",
"). c #73D7AA",
"_. c #7BDBAE",
"`. c #61CBB0",
"'. c #6EE1AE",
"]. c #77E8B4",
"[. c #54BBC8",
"{. c #5CCAC6",
"}. c #5FD1C7",
"|. c #59C6D7",
" X c #5FD5D9",
".X c #62D8CC",
"XX c #63D9D3",
"oX c #66E1D8",
"OX c #5FD5E2",
"+X c #63DDE5",
"@X c #67E6E8",
"#X c #68E9F2",
"$X c #85BC99",
"%X c #8D93AA",
"&X c #A4A5B9",
"*X c #99C19B",
"=X c #88CDA7",
"-X c #88DAB2",
";X c #A0C9A1",
":X c #8CE4B7",
">X c #8AE9B9",
",X c #96E5BB",
"<X c #95ECBC",
"1X c #86F1BD",
"2X c #99F0BF",
"3X c #AFEFBD",
"4X c #CAF0BC",
"5X c #B2BCCE",
"6X c #91F5C3",
"7X c #9BF3C2",
"8X c #9AF6C5",
"9X c #A2FACA",
"0X c #A5F8C8",
"qX c #B3F7CD",
"wX c #B5FBCA",
"eX c #C8FDC8",
"rX c #DBFEC9",
"tX c #D3FDD6",
"yX c #E1FECC",
"uX c #E1FAD2",
/* pixels */
"; * ; ; q q q q q r q 0 q q e q q a r q a a r r q q q q 0 0 q e e q 0 0 q q q q q e a q r a f r r a r q q r a q 0 % % * 0 q f q q r e r e r r r r r 0 0 r q q * ",
"% ; ; ; q q r q r r q q q e r e q a q q q e r r q e r r e e e r e q q e r r r r q q q q q a f f r a f f a r r a a q 0 ; q q q q q e r r r r r r r h 0 0 q q q * ",
"* ; q 0 q r f f f r r q e r r r a e a s q r f r q r r r f r e a r q r r r h r r e q q e a f f f f a a f f a q a h h a 0 a q q ; 0 e f r r r r r r l q q q q 0 0 ",
"0 e e e q q a f f r r r r r r r e a a a q a g r r r q q a e e r r r f h l r l r g a e f f g f g f f a f f a s a f q f f q q * ; ; q g g r r h r r r q q q q q 0 ",
"q e a a e r a a f a a r r f r r a f f a f f d a r r w e f e e e r l r r r r l r g r e f g g f g h f h h f a s a f q f h f q ; ; 0 w g h f a a f h r r r r r 0 * ",
"q e f f g g f a a f a r f f r r a h f f h h f a r r a g g e 0 e r r r r r l r r e w q f g f f g h k k h f a q a h a f f h f 0 0 e r g h f r f h r r r r r r 0 * ",
"q e g f g h h f g g a e f g h f a a e e g g h a f f d f a r a g r r r l l r l r r r d r f f g h k k k h h h a f h f h h h f f f k h g g f f f g r r r r r r r q ",
"q e f f g h h h g g f q a g h f a r w e f h j d a f f d a a d g h h r r r l h l r d f f a f g h h h k h h h f f h h h h f r r l l k h g f f g f r r r r r r r r ",
"q a a f h g f a a g d r a g g f g g a a a j k g a d g g a a g g r h r h h h h h a a a f f a j k j j j h g g k j f h h h a * * j k h j f a j g a a s q a r a r 0 ",
"e a d g h g e e r a f j f g k j d j d a g j h d a d g k k j d f r r r h j f a f a q w a d a g h O.h g d a f k j h h j j a a q s f h a a f k f q e a a e r r 0 * ",
"q e a g f a s q e f j k g g j g g j g g g h j j g g k k k k j g h r r h j a a a a s e a a f g z O.k g a r r a r q a f j h j h q e f r a f k h s a g a a r q 0 ; ",
"e r a a a a a a s g k k k g g g j g j j h h h k l k k j j k h j r r r g d a e e a d a d g h h k z j d g e w - - * q a j k k k f r e a g j j k k h f a a a e q 0 ",
"q r f f a a a a g j k O.j g g k j d a j k k j g h k h j j j j j h f f h j r a a q a g d a a e e r a a g e 4 > , 1 > q f f g g d a a g j h j g j h j f a e e e q ",
"e r f g a s a f k j k O.k g j j g d a j O.O.k g g g g j j g g g g g r g h r f g q a g g a e 0 5 e e e a s F W Q W i p a a a d j j g j k k g a f j h j f a e e r ",
"e r f j g g j k k k ..O.k k j g f h h l O.O...g a a a j j a e d g r r f f e a g a d j h j g d g j a e 5 X.1.m.N.s._ H p e e g k j g g k j f g h h g f a a a r 0 ",
"e e a g g j k k k k k k z k j g g h l l l o...j g a d g j a a a g g r y r e e e a g j h j g j j j e 4 D &.M.-X>X).3._ F 4 5 a g g a e q e g j e g j a a e a r q ",
"r r f h h h h j j k k j j k k j j j j h h k k h j g d d g d d g h h a a r 3 & & 5 a a a r s a f g ; > Z 1.=X6X8X].v.>.I , - e d a a q ; ; g j s g k f r a a r q ",
"r r r h h h d g O.k j d d d k k j a a a f j h h h j g d a a a j k h a f a & # # # = - = = = * s j e - b &.L.1X].(.z.>.T , 3 a a d g g d e g k z k h g d e a q q ",
"e r f g  .g d g ..k j g g g j  .j a a s a f h h j j g g f j j f f f e r e D F U S Z S F H H i p s q 4 S ;.x././.n.0.) H > ; d a g g j g a j O.O.l k g f a a q ; ",
"e r h g g g f f j j g j j j g g j g g g a f j j j j j j g k k a q ; - - F @.1.2.;.' ' *.;.;._ i ; 5 F Q q.x.b.k.0.( H 8 2 w d g g g d d j z O.O.k k h g f f r 0 ",
"e r g j h f h d a g j g j j d j j g j  .k k j g j k O.h f k h 0 > # @ # X.i.!.Q.g.p.p.f.x.x.<.Y 1 u Q 3.L.J.z.q.' S 1 5 e f g k g d g k z z O.+.k g k k k g r ; ",
"e a f j g f k j g g j k k g j j k j ..O.O.k k j k ..o.k f a e p H Y G Q 1.=X:X<X).W.P.P.~.~.c.:.W Q <.n.L.c.,._ U < 5 a g g g h g a g j k k z k g a a h l f r q ",
"r a a f g g j ..z g j O.k j j j k ..O.O...k k z O.O.j g a ; 4 Y 1.g.t.M.!.,X0X8X>X].'.(.'.(.P.x.3.3.z.L.c.0.Q Z 4 ; d h f g k g g j j f j j g a a e e g k f r q ",
"r r f f g g g j k k k O.k j g j k ......k k k k k k k g w > A :.!.-X:X:X:X2X8X0X2X>X_.~.W.W.P.L.n.c.c.f.2._ S 4 e g j j d f g g j j j j j h j j f a g k k f r q ",
"r r g f g f d f h k k ..k h g f g o.k j h h k k k h g e 4 J =.$X,XqXqX9X8X7X2X8X0X<X_.P.L.L.W.~./.W.n.d.*.I > 2 d ..k f a e w a a h j z k j j j h h k z h f r r ",
"r r r g g d d f d j k k k j g d g ..k k g g h k h g q 5 J 4.$X4XeXeXwX9X8X8X2X0X0X2X_.P.K.K.P.^././.n.d.[ P , 2 a ..k a e - - - ; a h z z z k g h h k h h f a q ",
"r r g k j j g j j g g g h h k g g g h k k k h h a w > J 4.;X4XyXrXeX3X8X7X2X2X2X2X:X_.P.J.K.P.~.~.W.n.d.,.~ 1 4 e j h a p i S 8 p a h k j z z j f f f h h f r q ",
"r r g k k j k k j j j j k O.k k g f f f g h f r 5 p J 4.;X4XyXyXeXwX3X<X<X8X2X2X:X_.).P.K.L.P.W.W.W.c.d.0.*.Y i 5 5 q 5 i Q ' Q p s e a f z z z j f f f f h a r ",
"r f g g h k k k g  .k k O.+...k k h f a a r e w p X.=.*X4XyXrXeXwX3X2X2X8X8X2X>X_.^.P.P.P.P.P.W.W.L.x.f.e.0.*.Y 1 $ # > Q 3.g.<.Y - 5 q j k z z z j f f f f r q ",
"r r f f d f g h k O...k ..O.O.k ..j g g f f e & 1 &.$X4XuXyXeXwX2X8X8X2X2X2X>X_.W.K.L.P.P.P.P.P.W.b.z.d.g.f.0.*.W S K T ,.f.x.<.W > 5 a j z z k k z z j f f a q ",
"r r g d g g g j z O.z k O.O. .k h  .h  .k k y # 1 &.$XqXuXtXwXwX9X9X8X8X<X:X_.Q.L.K.L.P.P.P.P.L.c.z.f.d.f.k.f.2.;.' -.w.j.f.3._ J 5 a g k z k j j z z j a f r q ",
"g f g h k O.g j ..O.k k +.O.g g f f k O.O.o.g % 1 ( M.7XqXqXqX0X8X9X0X2X:X_.~.L.P.L.P.P.P.~.L.n.g.d.d.d.d.f.d.0.0.e.S.F.h.>.Y i s j j k z k j f j k j f f a q 0 ",
"d g g j k j g j k ..z j k k g j z ..z k  .j s i @.t.!.7X0X-XB.i.M.!.-X>X>X(.P.J.L.P.P.P.W.~.L.x.d.a.e.d.d.d.d.f.k.D.I.S.9.R 8 5 a h k z z k k k k k g j h h a q ",
"g g k k j g j k k k j d g g j z O.O.k f g e p @.i.=X9X8X-Xt.@.F H &.N._.]./.K.J.P.P.P.P.W.W.K.x.d.a.q.d.r.d.d.D.I.F.A.9.R 8 ; e a j h k k z z k k h f j h h f a ",
"j h k z ..k j k z g a a a d O.O.k g f a 5 > U 4.=X8XqX7Xm.! O   + F =.n.(.~.P.P.P.W.P.P.W.P.P.x.f.e.e.d.s.d.k.F.Y.A.9.T 8 w f g j h s a h k k h a a j f f f a r ",
"j h k k k j g j k j a g a g k k j g h s & , T g.-X6X-Xm.@.v O c #.%.%.0.p.c.P.~.W.P.P.P.W.~.P.N.f.d.e.d.r.r.k.I.R.A.[ S = 0 g g j f a s h h k h j j g a a f a a ",
"g j j j j g g j h h g h j j g g j k j s & > T f.`.!.m.Q x o v 5.%X%X$.R E 3.W.'.W.P.P.P.W.W.L.c.f.d.e.d.r.s.k.I.R.A.[ S = 0 j k j f f g g g j j k k j g g s a q ",
"f f g g g d g g j e f z z j g j k k k g - , I s.b.k.T + . o ! %X5X&X#.: @ -.K.'.~.P.W.P.W.P.J.x.f.d.q.d.r.s.k.I.R.A.7.U 2 e k l z z j j j k k j j j j k j f a q ",
"a a f f g f g g f e a j k j f j j j k g ; > P p.x.s.C . . x #.C.%X6.V X @ -.K.'.~.P.W.P.P.J.x.k.d.d.s.d.s.r.k.F.R.A.7.P > ; a k z z z j j k j a a f j j j f a s ",
"f g d g f g h g f s a a f f j d a a g d - 1 P q.n.d.P + X M ! #.$.V o X b ,.K.'.~.W.W.P.L.z.f.d.d.d.d.d.r.d.k.F.Y.A.-.P $ % w f j k j j z j f a a a a j j f s q ",
"a a g j j j k k j d a j j g a a a d j d 5 1 P 3.n.c.;.P n M M v o o o Z ` d.P.(.~.P.L.L.x.f.e.q.d.d.d.d.s.s.f.I.Y.A.7.U > ; a e s a a f z j a s a j h k k a r q ",
"a g h h j j z k g a g k j f a a g g j j 5 1 P 2.c.L.x.<.R n o .   o C *.f.J.~.(.~.L.N.x.f.d.q.a.a.d.d.d.r.q.k.I.Y.A.7.P > 5 a a s s f z z j g g j k k k k f q q ",
"a g k h g j z k d g g z k d s d j k ..k q 8 P >.c.(.'.J.>.L o   X b ' z.^.W.W.W.P.J.x.f.a.d.a.d.d.d.d.d.r.s.f.I.Y.A.-.U > ; f f s j O.O.z k j j k k j k h f q q ",
"f g g g j j k k j k k d g j f f g k ..k 5 > P >.n.'.].'.z.;.Y C G &.f.~.'.W.N.c.n.c.f.p.q.s.d.d.d.d.d.d.r.r.f.D.U.A.[ U 4 q j j g g k z z z j j k z j j k f f q ",
"f d a j h k h k k ..k a f j k j j k z k 5 < P ;.c.(.'.(.L.x.3.2.2.f.L.~.~.n.z.f.f.f.d.d.e.d.d.d.d.d.d.d.q.r.f.D.U.A.7.P > q k j j k j k ..O.k j z k j j h f f a ",
"g f g j k k h j j k k k g f z z z k O.k q > P ;.x.~.^.W.L.J.J.K.K.W.W.L.c.k.d.e.p.d.d.d.d.d.d.d.d.d.d.d.s.d.l.Y.{.H.7.P = q j j k z k k z O...j j j j j h f f f ",
"f a f k z k k j s j ..+.+.z z g a k z z q 8 P ;.z.~.~.J.f.3.3.3.c.W.J.c.f.f.q.r.s.q.d.d.d.d.d.d.d.d.s.d.d.k.D.XX@X{.u.I = ; k z O.....j j j j g j j g s f f h f ",
"f a a h k k k j a j ..O.+.O.z f f z z h 5 < P ' s.c.J.f.,._ Q -.d.x.x.k.f.d.e.e.a.d.d.d.d.d.d.d.d.s.s.d.k.S.T.@X#X|.u.Y = 5 k +.+...k j j j j j z z j a a h h h ",
"f a f j k k k h h k k j  ...O.k z O...f 5 1 S / -.2.2.-./ P P ( 0.d.d.d.d.d.d.d.d.d.d.d.d.d.d.d.s.r.r.s.z.F.{. X|.G.5.R 3 e k +.+.k k k k ......O...j a r f g f ",
"a f f j k ......k k j j k k z k  .O.k s 5 < S T W / W Y W Q ' ,.q.d.d.d.a.d.d.d.d.d.d.d.d.d.d.d.r.q.3.r.v.I.I.H.u.5.! F t a o.O.O.z k k k ..O.....k g d a a r r ",
"a a g j k ......k j j j j k k j j O.k d 5 i Z G G S C S Q -.q.d.d.d.d.a.d.d.d.d.d.d.d.s.d.d.d.d.d.e.s.f.D.`.H.u.] A m { f k o...O.O.z k j k ....k j g d f r e e ",
"r a a g g g k k ..j g g k k k g k O...j a p Z 1 b , C P ' q.f.z.k.a.s.d.d.d.d.d.d.d.s.s.s.q.a.k.l.k.k.k.E.XX|.u.I $ 2 }  ...k g k O.j h k ......k j j g f f r q ",
"r r f h h f k o...j j j k ..j j k z j } } d { n b S W -.3.3.f.k.d.d.d.d.d.d.d.d.d.d.d.s.q.s.d.k.S.D.D.D.XX@XOXV.~ , - }  . . .g k z z z k k j k ....k j j f r r ",
"r r d  .g g ..o...k j j ..z j ....j d d } } y 7 C E -.a.x.z.d.d.d.d.d.d.d.d.s.s.s.d.d.d.p.p.k.S.Y.R.}.}.+X+X|.y.~ 6 2 t } | | d h k k k k k j k O.O.k k k g f e ",
"r r f f h h ......k z ....j ....O.g g } } } y 6 C ~ w.I.`.c.a.a.d.d.d.d.s.s.s.q.q.a.k.S.l.l.v.I.R.oX@X@X+X[.y.] L m t N | | } y f k j j h l k k k z k k k g a q ",
"r r f h g  .h  .g j j k j g d j k g t t } } t 6 C E w.I.Y.c.a.p.e.d.d.d.d.d.s.s.d.k.v.U.U.U.U.T.R.XX@X#X[.y.T L N t B } B } f a g k k k g k k k O.O.k j g g f e ",
"a a j j j j k j s j j k g d s g k y e t } } t 7 m T -.h.D.v.f.d.d.f.f.f.f.z.k.v.z.S.I.E.}.XX}.T.A.H.|.[.V.^ > 2 t y | y B B y r g g k h f k k z l l h f f f r r ",
"s a f j k k z k g j j j j g g k k y y t } B t t 9 L T [ w.a.z.z.z.k.f.k.v.I.U.Y.Y.Y.E..X@X#X@XH.8.-.5.8.] L t t t y y y B B t y a a s r h z z k l l h h l l f r ",
"a a g k k k j k z k j j j j j k k h d y N t t t t F m K / ,.s.f.d.q.q.s.l.S.I.T.H.I.F.T.oX@X|.V./ S b G A N } d t t y B y t t e a d s s a j k k h h h h f l f e ",
"a a g j j j a g z z k d g j j k k k g y t 7 t t y t 2 < S / ;.,.>.;.;.;.,.w.u.h.h.u.w.u.Z.[.G.5.H # # $ 7 N | d t t y y y y y t a d g g a f g f h g r r r h f e ",
"r r f f a a a s d k k g g g k k k k k h r t t N y y t 6 D U T Q W W T W ~ / ) ) ) / / ) [ [ ] R m 6 2 t t B d t t } t 9 y h h r a a f j d g a a f h h k k h f e ",
"r a g g d a g a a j k h g j k k k h k k g y B y y y t t 6 n Z Z C Z A A Z Z Z C Z Z Z Z A A n m 9 t y y y B N t { } t t g k k r e e a g k g a a f g k l k g f e ",
"a f h g g g a a d j k j k j j k k k h h h h h | N N y t 7 m 6 6 1 6 6 6 6 6 < > 6 6 6 6 > $ 2 2 t d f B B y N N } d t e g k ..y s a a j k j a d g j k k h f r r ",
"r g k f a a r a j k ....k j d k O.o.k h .... .r t t t 7 7 7 9 9 t t t 7 7 t 7 t t 7 7 t t 7 t t t } y y N t N N N d r a g h k g g f k k z k j g h h f g h f r r ",
"r f f f f f a f k k  ...k h d j k k k h ..k j a s t e t s t d } } t t t B B y B y y B } y y B } } N N } B y d d d r d g g g k k k ..O.z k k k k k k d f g a r r ",
"r r f h k h h j j h k k k k j j j j j k k j g d a a s s d d } | } N } } } B B B B B } y y y } } } N N | } y g f r s g k g g j O.O...O.z j k z z k j j j g a r e ",
"r r g h z k h j k k k k h h g g g g g g j j j k j g d d a y { t t d d } y } d B d y t t t y d d } t y } d d k f a f  ...g g  .O.O.k l z O...z k j d g d d s e w ",
"e f h k z z h h j k j j f f j j g d j g j j k k k .. .j g a y t t d d d g d d d h g y y t r y y t d d y d g h r s j ..k g d k ..k j k k k ....k j g a d a a r e ",
"e f k ..k k h h h g y e e d g k k k g g j j j g  ...j j k j a a r r s j k h f g h h g d a a y r e g h f h h y w s g h k g g j h j j ..j d j ..k k j g d r y r r ",
"e f k k k k h h k h a r r a j j g g g j j j g g j k j k k O.k a a d f g g f h h h g g g g k h r w g j h ....j g g j h j g h h g j j s j g ....j k O.k j g f r r ",
"e r h k k h h k k j g d f g j j g a g j g g d d g g j k  .O.k g g g j g d d k k g d d j k k k f d j k ....O...k h k g g j k k h j s s j j .. .k o.o.k g f f r e ",
"q r f k g f h k k j h h k k g g g g g k g d g g d d d k k j j g j h j f a j  .h g d d j k h h k k k k k j k k k j j d g ....k k j z j ..O.j j O.o.k f d r r e q ",
"e r r h h r h l h h h h  .k g j k k k f g f g j g d d g j g f g h h h f f  ...k f d g h k k l z O.O.z h g d j k k h j j h k k k z z O.+.+.k k k g d a a f f r q ",
"r r r h r h h l l h k h k j a g z z k j f g g j j g g g d d g j h ..h h g j k ..h g j k z z k k z O.z j f g g j k k h h h k k z k ..+.O...O...j g d d a r h r q ",
"r r r h r r r l  .k k h j d g g g k j k j j j g g j f a d f j k o.o.h g f f k ....k k l O.z h h k k k h g h f g h k h j h k z z k k ..k j z ..z z k j a h r r e ",
"r r r h h r r r k h k k j d g g g j k k j g g f a g g j j j j j h ..h g f d h k ..k k l l k k h l l k j g k k g f j j f h l z k k k k j d k ..k z z k f r r r q ",
"q r r l r r r h g h k h d d f g j k j j h f f f a a a g j k g a g h g f g r r h h k l h k k h h k l k f g k  .g a f g g j k k h k z k f r k z k k z g g f r e q ",
"q r r r r r r r g g g k g f g g g j j g z h f f f a e e a f f a f g g g r r r h k k h h k k h g h h k a g k h f f a a d g h k h j j g g g h k k k j j f a e 0 0 ",
"0 q r r r r r h h g g f g h g f f j j j k h j h g a a a a f f d f g g f r r g l k h h h j f a a f g g d h h g f f f f a a f h f f j f g j h k k d a d a e e q ; ",
"0 q r r r r l l h g f e g k f d g j k h h k h k h a g g a f g f f f f d f g h l k h h o.j e a e e f g g g h f g j h g g a f h f g j f j j k k k a e a e e e 0 * "
};
