/* XPM */
static char *__resized[] = {
/* columns rows colors chars-per-pixel */
"80 80 223 2 ",
"   c #0E0B0B",
".  c #110D0D",
"X  c #0E110A",
"o  c #16190C",
"O  c #171413",
"+  c #1C1B15",
"@  c #261916",
"#  c #281D16",
"$  c #251B1A",
"%  c #2C1D1B",
"&  c #1B2606",
"*  c #1D2B07",
"=  c #172109",
"-  c #1B240B",
";  c #1E2C09",
":  c #1F3007",
">  c #1D2314",
",  c #202E07",
"<  c #20260C",
"1  c #202E09",
"2  c #223409",
"3  c #29340F",
"4  c #263B0A",
"5  c #293E0B",
"6  c #272516",
"7  c #33231E",
"8  c #3A2D19",
"9  c #2C3411",
"0  c #273813",
"q  c #363918",
"w  c #2E2F2E",
"e  c #362420",
"r  c #392621",
"t  c #3E2B23",
"y  c #2B3824",
"u  c #383A22",
"i  c #41391C",
"p  c #422E25",
"a  c #482E29",
"s  c #443126",
"d  c #463726",
"f  c #463329",
"g  c #4B342B",
"h  c #4E392D",
"j  c #51362D",
"k  c #543A2D",
"l  c #5A3C2E",
"z  c #573832",
"x  c #543C31",
"c  c #5B3B34",
"v  c #603E37",
"b  c #613F39",
"n  c #2B430B",
"m  c #2E4A0C",
"M  c #314E0D",
"N  c #34540E",
"B  c #365A0F",
"V  c #395D0F",
"C  c #2B4512",
"Z  c #2C4817",
"A  c #394617",
"S  c #334B13",
"D  c #2F5316",
"F  c #345512",
"G  c #395412",
"H  c #365911",
"J  c #395C10",
"K  c #355C1A",
"L  c #37581D",
"P  c #3D620E",
"I  c #3C6311",
"U  c #37621A",
"Y  c #39651B",
"T  c #3D6D1D",
"R  c #3F711E",
"E  c #2F4225",
"W  c #3A4A27",
"Q  c #385623",
"!  c #3D4638",
"~  c #3D6922",
"^  c #3F7220",
"/  c #41471A",
"(  c #41650C",
")  c #426B0F",
"_  c #46710E",
"`  c #4A750F",
"'  c #4D7C0F",
"]  c #507E0F",
"[  c #426A11",
"{  c #406A16",
"}  c #497715",
"|  c #41751F",
" . c #43791F",
".. c #517F11",
"X. c #424D23",
"o. c #4B4728",
"O. c #57422A",
"+. c #435423",
"@. c #455B24",
"#. c #495B27",
"$. c #515829",
"%. c #5B4335",
"&. c #5A4536",
"*. c #5B5636",
"=. c #60422F",
"-. c #644334",
";. c #684736",
":. c #6D4A36",
">. c #664239",
",. c #6A453B",
"<. c #644A3B",
"1. c #714E37",
"2. c #734C3B",
"3. c #67583B",
"4. c #7C543C",
"5. c #456627",
"6. c #436D23",
"7. c #526C2C",
"8. c #427620",
"9. c #4B7426",
"0. c #457C21",
"q. c #4A7D25",
"w. c #4F7A28",
"e. c #54782B",
"r. c #486A33",
"t. c #5A7231",
"y. c #5E7932",
"u. c #6B643C",
"i. c #617D34",
"p. c #3F4046",
"a. c #454946",
"s. c #52584F",
"d. c #674F41",
"f. c #754D41",
"g. c #6A5644",
"h. c #7C5242",
"j. c #755A46",
"k. c #745B4B",
"l. c #506344",
"z. c #756A42",
"x. c #766448",
"c. c #7D7246",
"v. c #7A6551",
"b. c #80573C",
"n. c #81583E",
"m. c #825642",
"M. c #855A42",
"N. c #8A5D43",
"B. c #895B48",
"V. c #8E6142",
"C. c #83664C",
"Z. c #86694E",
"A. c #886A4F",
"S. c #936445",
"D. c #996947",
"F. c #96644A",
"G. c #9B6A49",
"H. c #84754B",
"J. c #856C56",
"K. c #8C6D52",
"L. c #8C7355",
"P. c #947455",
"I. c #95765C",
"U. c #95795C",
"Y. c #9A7B5B",
"T. c #A16E4C",
"R. c #A8734D",
"E. c #B27E4C",
"W. c #AB7451",
"Q. c #B47B52",
"!. c #B87D55",
"~. c #8E7863",
"^. c #927560",
"/. c #967A64",
"(. c #9A7D65",
"). c #9A7E68",
"_. c #A07F62",
"`. c #52830F",
"'. c #578A0F",
"]. c #568913",
"[. c #5D9111",
"{. c #619611",
"}. c #669D12",
"|. c #6BA512",
" X c #6EA912",
".X c #71AB11",
"XX c #76B513",
"oX c #478022",
"OX c #498423",
"+X c #4C8A24",
"@X c #55832A",
"#X c #58872C",
"$X c #9C855A",
"%X c #9E875A",
"&X c #A4875E",
"*X c #BD8255",
"=X c #9C816B",
"-X c #A38363",
";X c #A88662",
":X c #A58D62",
">X c #AC8A63",
",X c #AA896A",
"<X c #B18E69",
"1X c #AA906C",
"2X c #B3916D",
"3X c #A88B73",
"4X c #B69472",
"5X c #B99674",
"6X c #BB9877",
"7X c #B5957B",
"8X c #BC9B7C",
"9X c #C58857",
"0X c #CA8D58",
"qX c #CD9057",
"wX c #C09E7E",
"eX c #B69A80",
"rX c #BE9E81",
"tX c #BEA186",
"yX c #C09F82",
"uX c #C2A285",
"iX c #C5A689",
"pX c #C7A88B",
"aX c #C8A98C",
/* pixels */
"D U | T T 8.R | | T T | 8.|  .| R R 8.| T T R 0.0.|  .| R T T T R 8.8.R R 0.| T U T R T R R R R | T T | ^ 0.^ R R R  .R T T R 0.0.R | 8.R T T T | ^ 8.R | | T K ",
"Y T | | 8.0.R R | T R 0.0.|  .R ^ 8.| R R R R 8.R R R R ^ 8.0.0.0.0.| R R  .oX0.8.8.R | | | R R R R R  .0.^ 0.R R 0.R R R R 0.R | R | T R 8.0.0.0.0.8.T | 0.| T ",
" .| |  .0.0.| | R | 0.oX0.0.0.8.8.0.^ ^ | 0.0.0.^ ^ R ^ 8.oX+X+XOXoX| T R 0.OX+X+XoX8.0.oX0.R T R R | oXoX0.oX^ ^ 0.R R R 0.0.^ 8.^ T | 8.0.+X+X+XoX| T | 0.0.| ",
"| 0.OX+XOX0.| 8. .|  .0.OXOX+X+XOXoX8.^ 0.oXOXOXoXoXoXoXoXq.OXOXOXOXoX0. .oXOXoXOXoXOX+XOXoX0.T Y Y R 0.OXOX+X+X+XOX^ R 0.OX+XOXoXoXoXOXoXOXOXOX+XoXoX0.| oX| | ",
"T 0.oXoXOX+XOXoXoX0.0.oX+X+X+XOXOXOXoXoX+X+X+X+X+X+X+X+XOX0.0.0.0.0.OXOX0.oXoXOXoXoXoXoXOX+XoXT K Y ^ OX+X+XOXOXOXOXoXoXOX+X+X+X+XOX+X+XOXq.0.0.0.0.+XoX0.0.8.| ",
"| | | | oX+X+X+XOXOXoXoX+X+X0.0.oX+X+X+X+X+X+X+X+X+X+X+XOX0.8.0.~ 8.OX+XOX0.oX+XOX0.^ 8.oX+X+X~ Z Y oXOX+XOXoX0.OX+X+X+X+X+X+X+X+X+X+X+XoX0.0.8.T 8.OX+X+X0.8.8.",
"T T | 0.0.0.0.0.0.8.8.0.0.0.OXOX+XOX0.8.0.0.0.OXOX+X+X+XOX0.| 0.R R 0.+XOX0.0.8.0.0.^ 0.oX0.oX~ Z U ^ ^ ^ oXOXOXOXOX0.0.0.0.OXOXOX+X+X+XOX0.0.0.T | 0.+X+X0.T T ",
"T T | 0.0.| 8.8.^ ^ ^ ^ T ^ 0.OXOXoX0.0.8.0.0.| 0.+XOX+X+XoXoXoX .0.OX+X+X8.R 8.0.0.^ oX0.^ ^ U Z Q ^ ^ ^ ^ 0.OX+XoX0.0.^ 0.0.^ 0.+XOX+X+XoXoXoX0.8.oX+X+X8.T K ",
"T R 0.0.0.R ^ ^ ^ ^ ^ R ^ R T 0.OXoXOX+XOXoX| |  .OX+X+X+X+X+X+XOXoX+X+XOX^ 8.0.0.0.8.0.0.^ ~ K Z Y R R ^ ^ ~ 0.oXoXOX+X+XOX^ R 0.OX+X+X+X+X+X+XOXOX+X+XOX| T | ",
"T R | 0.0.8.R ^ T ^ ^ R 8.0.^ oXOXoX+X+X+XOX0.OXOX+X+X+XOXOXOXOX0.8.0.oXOXOXOXOX0.0.8.0.0.0.^ K y Y R R ^ ^ 0.oXOXoX+X+X+XOXoXOX+X+X+XOXOXOXOXOX0.8.8.OXOX0.8.| ",
"T R 8.oXoXoX^ ^ 8.0.0.0.0.oXOX+X+XoX+X+X+XOXOX+X+X+X+XOX .oXOXOX^ T ~ 0.OXOX+X+XoX0.8.oXOXoX0.Q y ~ oXR oXOXOX+X+XOXOX+XOXOXOX+X+X+X+XOX0.0.OXOX8.T T 0.+XOX0.| ",
" .| 8.+X+X+X0.0.oXOX+X+XOXOX+X+X+XoX+X+X0.oX+X0.OX+X+XOX| OX+X+X0.T R OX+X8.0.OX+X0.0.OX+X+X0.Q y ~ +X+XOXOX+X+X+XOXOX+X0.oXOXoXOX+X+Xq.| oX+X+X8.~ | oX+X8.| | ",
"T R | oX+X+X+XoX8.0.OX+XoX0.+XOX0.OX+X+XOX+X+XOX+X+X+X+XOX+X+X+XoX0.OX+X+X0.0.OXoX0.8.oXOX+X+X~ y Q ^ +XoXoX+XoX0.OX+XOXOX+X+XOXOX+X+X+XOX+X+X+XoXoXOX+X+X0.| | ",
"T R 0.0.OX+X+XOX^ ^ 0.+XoX0.OXoX0.+XoX0.+X+X+XOXOXOX+X+X+X+X+X+XOX+X+X+XOXOXOXoX0.0.0.0.OX+X+X8.E W ~ +XoX0.OXoX0.+XoX0.+X+X+XoXOXOX+X+X+X+X+X+XOXOX+X+X+XoX8.| ",
"|  .oX+X+X+XOXOX+X0.0.+XOXoXOXOX+XoX| T 0.+X+X8.8.0.OXOXOX+X+XoX0.0.oX0.0.OX+X+XoXoXOXOX+X+XOXoXOXl.l.OXoX0.oXOX+XOX^ ^ 0.+X+X0.8.0.OXOX+X+X+X0.0.0.0.OXoXoX0.| ",
"|  .+XoX+X+XOXOX+X+XOXOXoXOXOX+XOX0.| 6.8.8.0.8.| 0.0.0.0.0.OXOXoXoXOXT Y } } Y T 8.OXOX+X+XOXOX+Xr.! Q ^ +XOX+X+X0.^ ^ ^ 0.0.^ 8.0.0.0.0.0.OXOXOXoXOXOXOX+XoX0.",
"R  .oX0.0.+XOXOX+X+XoX0.0.oX+X+XOX0. .8.8.8.0.8.0.0.0.0.8.0.OX+XOXOX..} _ ] ` [ } } OX|  .+XOXOX+X^ Q E ~ ^ OX+XOXoX^ ^ ^ ^ 0.^ 0.0.0.0.8.0.oX+X+X+X+X+X+X+X0. .",
"| 0.0.T | 0.0.oXoX8.^ ^ ^ 8.OX+X+XOXOX0.0.OX+XOX+XOX+XOX+X+X+XOX0.9...}.XX X X|.XX}.' H Y  .0.oXoX^ ~ D E ~ oX+X+XOXoXoXOXOX+X+X+X+XOX+X+X+X+X+X+X+X+X0.8.OXoX .",
"| 0.0.0.8.8.0.0.0.8.0.0.^ R oX+X+X+XOXoX0.0.OX+X+X+X+X+XoXOX .Y OX}.{..XXX|.|.|.XXXX}.{.} U |  .oX^ ^ ^ Q Q 0.+X+X+XOXOX0.oXOX+X+X+X+XOXoXOXOXOX0.0.oX0.| 8.|  .",
"T 0.+XoX0.8.0.0.8.8.0.oX8.R oXOX+X+XOXOX0.0.oX+X+X+X+XoX| | } J }.XXXX X{.`.' `.|..X.XXX[.V Y R ^ ^ 0.oX! ! 8.OXOXOX+XOX0.0.OX+X+X+X+XOX8.0.OX+X0.| 0.0.0.| |  .",
"8.0.0.+X+X+XoX0.oX0.8.~ ~ 8.+XOXoX0.OX+X+X+X+XoXOXOXOX8.U ` [. X X|.|.|.`.N V _ ] `.`.].'.`.B K oXoXR R Q ! ~ ^ oXoXOX+X+X+X+XoXoXOXOXOX+X+X+X+X+X+X+X+X+X0.0.| ",
"8.0.+X+X+X+X+X+X+XOX0.0.0.OX+X+XOX0.oX+XOXOXoXOXOXOX| { } [..XXX[.` P _ ` B V _ ` [ P M P '.`.] +X~ Y  .Q E E ^ OX0.oXOXOXoXoXOXOXOXoXOXOXOXOXOXOXOXOX+X+XOX . .",
"|  .+XoX0.OXoX+X+X+X+X+X+X+XOX+XOX8.8.0.0.| 8.+XOX .T _ '.|..X}.` M * n I ) ) _ _ ) N , m '.|.|.'.P U oXQ y E ~ +XR 0.oX0.^ R +X+X0.0.8.8.8.0.0.0.| 8.oX+X0.0.| ",
"|  .0.OX+X+XOX0.0.+X+X+X+X+X+XOX0.0.8.8.8.0.0.oX| I ].[.] ] [.|.] B N B H B V P ) ( V m V `.`.'.'.`.P B C y ! ~ 0.0.^ 0.R 0.OX+XOX^ 8.0.0.0.^ 0.| 8.0.oXOXOX0.| ",
"| | oXOXOXoXoX0.0.oX0.0.OX+XOX0.0.oX0.0.0.OX0.| ( ( ] ' I P ' |.`.P I J H V I I ( I J J [ ] P ) ` _ P M 5 y a.r.oXoX0. .0.oXOX+XoX^ ^ 8.0.8.^ ^ R R oXoXoXoX .R ",
"| 0.+X+X0.R 0.0.oX0.0.^ 0.+XOXOXOX+XOXoXoXOX0.J P _ V S n N I '.' ) P J V ) ) V J J J ( _ _ J F N M M V Z ! w 5.oX+X+XOX+X+X+X+XOX8.^ R R ^ R R R R OXoXoXoXoXR ",
"| 0.oXoX0.T T  .+X+XOXOX+XOX0.OX+X+X+XoXK [ } ( V I J n 4 m ) `.) J P ) ) V n 4 5 M J ) [ J m 5 2 n M H X.! E Z U OX+X+X+X+XOX+X+XOX0.T T ^ ^ 0. .oXoXoXoX+XoXR ",
"| 0.OXoX0.0.|  .+X+X+XOXOXOXOX+X+X . .| H J [ J H J J M 5 n N ) P N H ) ) N m n n N P ) I H m 4 * , n H a.a.q M P }  . .OXOX0.OX+X+X0.0.0.0.oXOXOXOXoXoXoX+XoXR ",
"| 0.+X+X+X+X+X+X+XOX0.0.0.+X+X+X .Y H J H H H N V V J H M 4 4 H J H J J P I P I V V ( I J F S n * = ; Z s.s.Z I ' _ P K  .0.| oX+X+X+XOX+X+X+X+X+X+X+XOXoXoX .R ",
"| | oX+XOX0.OX+XoXOX0.8.OX+X+X+X| S n M H H H I ) ) J J N F H J H J ( P V P G A H V J ) N : 0 > o X 6 w s.s.0 S P V P I | oXOX0.0.+X+X+X+X+X+X+X+XOXoXoXOXR R T ",
"T  .oX+XoX .oXOXOXOX0.8.0.OXOX8.U C 5 M H J H P ) ( I J J J J J J J ( P V P / 8 A S H I n o O O . . w p.p.w > 4 F M N V K T 0.0.oX+X+X+X+X0.oX+X+XoX .+X+X0.R R ",
"| 0.+X+XOX0. .oX+X0.^ 8.0.8.^ K m M n n N H N H J J J J H n m H J J H V V V / s 8 q A F 4 o O O   O w p.w O O 0 M 5 n n 5 C F  .+XoX+X+X+X . .OXOX+X+X+XOXOXoX .",
"R 0.OXOXoX0.oXoXoXoX0.R oX .K Z n n n n N N M N N m 5 M H M M N H N M N V V $.l i q G N 5 o + O   . + $ O . $ > 0 4 n n 2 4 n Z U R oX+X+XoX0.OX+X+XOX .oX+XOX .",
"R | oXoXoXoX+XOX0.OXoX0.OX| C 4 4 5 5 n N N m N M 4 5 n N N N N G A N N V B o.l i M B V n 6 > + X     O X X > + = C n n 2 2 2 : 5 K  .OX+XOXoXOX+X+XOXR ^ +XoXR ",
"T | 0.0.oX+X+X+X+X+X+X+X0.U 2 2 2 * , 5 n m n n n m M N N H B N d O.P B N G q 8 N B N B F n < - ; o O + - - = ; 4 n n n 4 2 2 2 2 n Y 0.+XOXOX+XOXoX0.oXOX+X^ T ",
"R R 8.^ 0.+XOXOX+X+X+XoXK n 2 2 2 , , 5 5 n n n n n M M m m M B i i M m m M 5 n N M 5 N N n 3 2 4 4 > 0 0 4 : : n n 5 4 2 2 2 2 2 2 n U oX0.oX+X+XOXoXOX+X+X^ U ",
"R R R R ^ oXoXoX+X+XoXR C : 2 4 2 2 4 5 4 5 n n n n n n n 4 m N q 9 5 5 5 n n m N n 4 m m n n n n n n n n n n n n 4 4 , 2 2 2 2 2 , ; n Y ^ oXOX+X+XoXOX+X+XR T ",
" .| R | ^ ^ 0.OX+X+X .K 5 2 2 2 4 2 2 2 4 5 n n 4 n n 4 n n n m n 5 5 n n n n n n m n n n n n n n n n n m m n n n 2 ; * ; : 2 2 2 : , , 4 ^ +X0.R  .+X+X+XoXoX .",
"|  . .0.oX0.oXoXoXOXT n 2 : 2 2 2 2 , , 2 5 5 5 4 4 2 2 4 n n n m m m m n n n n n n n n n n n m m n n n n n 2 n 2 2 , : , 2 2 2 ; ; * * 2 T +XOXR  .+XOX .0.R R ",
"R | oXOXOX+XoX0.0.0.Y : ; ; 2 : 2 2 , , 2 2 2 2 5 5 , 2 4 n n n 5 n n n n n n 5 n n n m n n n n n 5 2 n 4 4 : 2 2 2 2 2 2 2 2 , ; ; ; 4 Z T OX+X . .OX .R  .0.R ",
"U | OXoXoXOXOXOXOX0.U 4 : ; * * , 2 2 , * * 2 2 2 2 2 2 2 4 4 4 , & , 4 5 n 5 5 2 4 4 n n n 5 4 4 : ; ; 2 2 2 2 2 2 2 , 2 , * & ; ; 5 D ^ 0.oXoXoX+XOXoXoX+X0.R ",
"T | 0.0.0.oX0.0.0.0.R K C : * * , 2 , , * * 2 2 2 2 2 2 2 2 2 2 , < , 2 4 4 5 5 , 2 4 4 5 5 2 , : ; * ; : 2 4 2 4 2 , * , , * & 2 C D Y 0.oXOXOX+XOX0.8.0.OXoX| ",
" .| 8.0.oX0.| R R 0.0.0.U C 4 : , ; * , , , < , 2 2 2 2 2 2 2 2 2 2 2 2 2 2 2 2 * , 5 2 4 2 2 , * ; 2 2 2 2 2 2 2 2 , & & : 4 2 C Y T | ^ oX+X+X+XoX| R R 0. . .",
"R  .OX+XOX0.8.| 0.R ^ oX0.^ U Z 4 * * * , * * * * ; : : 2 2 4 2 4 2 4 , , 2 2 2 , 2 2 2 2 2 2 2 , 2 2 2 5 2 ; & * ; , * & 2 F T 0.0.0.OXOXoXoXOXOXOXoX . .oX .R ",
"R 8.oX0.OX+XOXoXoX0.0.OX+X+X^ Y K D F S 9 9 < * & & * * : 2 2 1 , , , , , 2 2 2 2 2 2 2 2 2 2 2 , 2 ; ; ; : * - ; q d A Z F 8.OX+X+X+X+X+X0.0.0.0.0.OXoX0.q.0.R ",
"| | 8.8.oX+X+X+XOXOXOXoX+X+XoX0.0.OXOX8.X.d d q q Z 0 3 9 < & & * * , , 2 , 2 2 2 2 , , 2 2 2 < * & * ; ; 0 9 9 u &.k.x.7.8.OX+XOX+X+XOXoXq.8.0.^ ^ OX+XOX0.8.| ",
"T T 8.0.0.0.0.0.0.^ ^ 0.^ 0.OXOX+XOXoX9.u.J.^.L.c.v.x.g.*.u < & & * , 2 2 , ; * * , , * * * < , * > 6 q y o.g.v.J./.,X(.t.8.q.oX+X+X+X+XoX0.8.0.T | oX+X+X0.T Y ",
"T | 8.oX0.| 8.8.^ ^ ^ ^ ^ ^ 0.OXOXoXoXw.c.-X8XrX7X3X3X3X/.v.*.d q 9 < < < & - & o o & & < < 9 q o.o.*.k.v.J.3X3X3XeX6X:Xt.8.8.0.0.+X+X+X+XoXoX0.8.0.OX+XOX8.T Y ",
"T { 0.0.0.R T R ^ R ^ R ^ R T 0.OXoXOX#Xc.;X8X8X8XrXtXpXrXtX3XC.-.a # @ # 8 i 8 @ o O 6 6 7 f g.~.=X3XeXrXiXrXrXeXrX5X&Xy.8.8.| 0.+X+X+X+X+X+X+X+XOX+X+XOXT T T ",
"T T 8.0.0.0.R R T ^ ^ T 8.0.0.0.OXoX+X+Xc.-X6X8XrXiXuXpXiX3XJ.k.j p l j l R.E.n.k g l 7 t &.f d.3XeXrXtXpXaXiXrXyXrX5X:Xi.0.0.oX+X+X+X+XOX0.OXOX0.8.8.oX+XoX0.8.",
"R R | oXOXoX8.| 8.0.0.0.0.oXoX+X+XOXOX#Xc.-X8X8XrXuXtXiXyXJ.<.%.s =.T.b.b.*X0XR.1.b.V.g t d.g <./.7XrXrXiXpXiXyXyX6X6X:Xi.0.OX+X+X+X+XOX0.0.OXOX6.T | 0.+XOX0.| ",
"| | 8.+X+X+X0.0.oX+X+X+XOXoX+X+X+XoXOX#Xc.-X6X8X8X8XiXpX7Xv.h r l D.qXn.l l b :.:.T.Q.%.t g %.%.&.).uXuXiXiXyXyXrXrX6X;Xt.9.+X0.OX+X+XoX| oX+X+X8.T | OXOX8.| | ",
"R R 0.0.+X+X+XoX8.0.OX+XoXoX+XoX0.OX+X@Xc.(.6X8X8XrXpXrX=X3.f p 1.T.Q.1.7 7 7 p 8 N.9Xb.g r %.%.g ^.rXiXyXiXiXyXyX8XwX:Xy.q.+XoXOX+X+X+XOXOX+X+XoX0.+X+X+X0.| | ",
"T R  .0.OX+X+XoX^ ^ 0.+XoX0.OXoX0.+XoXw.z.$X6X6X8XuXpX3Xv.&.g h b.T.n.g @ % % @ @ :.9XV.l t %.%.g J.eXiXyXrXiXyXyXwX6X:Xi.OX+XoXoX+X+X+X+X+X+X+XOX+X+X+XOX0.8.| ",
"| 0.oX+X+X+XOXOX+X0.0.+XOX0.OX+XOXoX| 9.z.Y.8X8X8XuXiX=X&.d.%.h n.S.l 7 % % % % @ l D.b.-.g O.h h v.3XrXyXyXrXyXyX6X5X:Xi.q.+X0.| 0.OXOX+X+X+XoX0.0.0.0.0.OX0.0.",
"T  .+XoXOX+XOX+X+X+XOXOXoXOXOX+X+X0.R 5.z.Y.4X6X8XuXuX/.%.%.c g S.T.g 7 % % % % % l N.n.;.h h h h k./.eXiXiXyXyXrX8X5X&Xt.8.0.8.8.0.0.0.0.0.OXOXOXoXOX+X+X+X0.0.",
"8.0.OX0.0.+XOXOX+XOXOX0.0.oXOX+XOX . .9.z.Y.2X6X8XyXyX/.x x h g D.T.l 8 % % % % % k N.N.1.j g g x k./.rXiXaXaXuXrX8X5X&Xt.|  .| 0.0.0.0.0.0.oX+X+X+X+X+X+X+XoX .",
"8.8.8.^ 8.0.0.0.OX0.^ ^ ^ 8.OX+X+XOXoXq.z.I.<X6XuXiXiX/.x z h p S.R.l p r % % % 7 -.F.S.1.j p f &.k.).uXpXuXuXrXyX8X2X$Xt. .OX+XOX+XOX+X+X+X+X+X+X+X+X0.| OX0. .",
"8.8.oX8.8.0.8.0.0.8.8.0.^ ^ OXOX+X+XOXq.z.P.<X6XrXiXiX).%.x h p S.!.n.l t c c g e :.W.T.4.g p f &.v.=XiXiXuXuXuXuX8X5X$Xt.9.OX+X+X+X+XOX0.oXOX+X0.0.oX0.| 0.0.| ",
"T 0.OXoX0.0.0.0.8.8.0.oX8.^ oX+X+XOX+X@Xz.Y.<X6X8X8XaX=X&.x h p n.9XW.-.p <.;.k p b.9XE.4.p 7 g %.k.=XiXpXiXiXuXuX8X4X&Xt. .q.+X+X+X+XOX0.0.OXOX0.R 0.0.0.R R  .",
"0.0.oX+X+X+XOXOXoX0.| 8.~ 0.OXOXoXoX+X@Xz.I.<X5X8XwXuX(.%.h f p B.!.W.4.h 7 7 t ;.T.0X*Xh.e e s %.k.).iXaXpXuXuXwX8X5X&Xy.OX+XOXq.OXOX+X+X+X+X+X+X+X+X+X+X0. . .",
"8.0.OXOXOXOXOX+X+XoX0.0.0.oX+X+XoX0.oX@Xz.P.>X4X8XwXuX(.%.h f g F.9XT.m.;.:.:.;.,.G.qX9X4.e e s c k.).rXiXiXiXrX8X6X4X%Xy. .0.OXOXOXoXoXOXOXOXOXOXOXoX+X+XOX0. .",
"| 0.+XOXOXOXOX+X+X+X+X+X+X+X+X+XOX|  .w.z.P.>X4X6X6XyX(.%.g a g G.9XT.4.h.9X9XF.%.B.0X*X4.r r s h k.).rXuXuXpXrX6X6X<XY.t.| | +X+X0.0.8.8.8.0.0.0.8.0.oX+XoX . .",
"|  .0.oXOX+XOX0.0.OX+X+X+X+XOXoX0.0. .6.*.Z.>X4X5X8XwX/.x p t a N.Q.F.2.4.0XQ.m.>.V.0XQ.4.r r s h k.).rXpXiX8X8X5X1X;XP.7.9.OX+XOX8.8.0.0.8.8.8.| 8.0.oXoXOX0.R ",
"|  .oXOXOXoX0.0.0.oX0.0.OXOXOX0.0.OX0.9.3.Z.&X>X4X8X8XU.x p t f M.W.F.2.4.0XW.h.,.S.0XQ.4.r t p h g./.rXiXyX6X8X6X<XY.c.7.0.+X+XOX| | 8.8.| | ^ R ^ oXoXoXoX .R ",
"R  .OX+XoX| 0.0.OX0.0.^ 0.+XOXOXOX+X+Xw.z.A.Y.&X2X6X8XI.h s p j m.F.B.h.n.9XQ.h.,.D.qXQ.h.p t p g g./.rXyXyX8X8X5X>XK.u.e.q.+X+XOX| | | ~ | ^ | R | OXoXoXoX .R ",
"| 0.OXoX8.T T 0.+X+XOXOX+XOXOXOX+X+X+X@Xu.C.Y.&X>X4X6X/.O.p p j 2.B.R.n.n.9XW.h.,.D.qXQ.4.t t p p d./.7XrX8X6X2X&XP.P.L.y.q.OX+XOXOX8.| T | 8.0. .0.oXoXOX+X0.| ",
"| 0.OXOX0.0.^ 0.+X+X+XOXOXOXoXOX+X+X+Xq.*.v.Y.;X;X;X4XU.&.s p j ,.B.G.h.4.!.T.2.-.D.qXR.2.a t t f <.L.2X6X4X7XW.P.P.P.H.e. .0.OX+X+X0.0.0.0.oXoXOXOXOXoXoXOXoX .",
"R 0.+X+X+X+XOX+X+XoX0.0.oX+X+X+X+XOXOX0.#.g.Y.,X_.K.;XI.<.p p c >.f.B.2.2.R.F.,.%.G.qXD.,.g s t d <.L.-X:X;X>XP.C.P.K.u.9.| | oX+X+XOX+X+X+X+X+X+X+X+XoX .OX .R ",
"R R oX+XOX0.OX+XOXoX0.8.OX+X+XOXoX0.0.0.9.i.A.I.&X&X-XP.<.g p k c f.M.,.b B.h.,.b T.0Xm.c j p t s <.Z.W.L.L.;XY.Z.Z.4.*.w.+XOX0.0.+X+X+X+XOX+X+X+XOXoXoXOX .R Y ",
"R R OX+XoX .oXOX+XoX0.| 0.OXOXoX0.oX0.0.0.7.3.C.I._.Y.k.%.g f j z ,.m.,.c f.f.b c S.Q.,.j j p t t <.C.Y.K.Z.Y.P.C.j.*.#.OX+XOX .oX+X+X+X+XoXoX+X+XoXoXOX+X0.R R ",
" .oX+X+XOX0.0.oX+XoXR R 0.0. . .0.OX+X+XOXY X.g.C.Z.K.3.f h k j z >.h.b c ,.,.b b f.h.c j j g t s &.C.Y.Y.P.K.x.j.3.$.|  . .| OX+XoX+X+X+X0.0.oXOX+X+X+X+XOXoX .",
"R  .OX+XoX0.oXoXoXoX0.| oXOX0.0.oXOXoX0.0.0.8.@.*.j.C.1.t f k x j c ,.v z b >.c v b ,.j g j p t s x 3.Z.A.Z.C.<.o.#.5.R 0.OXOXOX0.0.oX+X+X0.0.OX+X+XOX0.oXOXOX .",
"R R  .oXoXoXOXOXoXOXOX0.OX+X+XOXoX+X0.8.0.+XOXU L 3.3.%.s t g j j j b z z b c z c v v g a j p t p h %.3.<.3.u.$.Q T R | 0.+X+X0.0.0.oX+X+XOXOX+X+XOXoX| R +XoXR ",
"R |  .oXOX+X+X+X+X+X+X+X0.^ +XOXOX+XOXq.OXOX0.^ | | L W p t p j g g l j j l z j j c c f a j s 8 p g o.o.X.L 6.8.| OXOXOXoXoX0.8.0.oX0.OX+X+XOX+XOXoX0.oX+X+XR T ",
"R R  .| 0.+XOXOX+X+X+XoX0.0.+X+X+X+XOXOX+XOX0.0. . .{ Y L Q +.#.@.+.+.L X.X.X.A X.X.X.W X.#.+.@.@.5.5.5.~ T 0.OX+X+XOXOX+XoX0.8.0.oX0.0.0.0.oX+X+XOXoXoX+X+XR U ",
"R R R R  .0.0.oX+X+XOX .0.oX+X+XOXoXoXoX+X+XoX0.oXOX0.0.8.| 8.0.R R R T R R T U { T U U T | | oXOX+XOX . .oX+X+XOXOXoXoX+X+X0.0.oXOXoX0.8.0.0.OX+X+XOXOX+X+XR T ",
" .R R  .R R 0.oXOXOXOXoX0.oXOX0.0.8.0.0.+X+XOXoXOX+X+X+X0.+XOX0.R R OX+XoXoXoXOX+X0.T R | | 0.oXOXOXOXOX .OXOX0. . .8.0.+X+X+XoXoX+X+X+X0.OXOX0.|  .+X+X+XoXoXR ",
"T R R R 0.R  . . .R  . . . .0.| 8.8.8.0.0.0.0.0.0.0.0.q.0.0.0.0.T R oX .R R 0.oX0.| R 8.8.| | |  .| |  . . . .| | |  .0.0.0.0.0.0.0.0.0.0.0.0.0.T R  . .R R R R ",
"U Y T R R 0.R T T Y R R R R T R 8.|  .| T T | 8.0.| T | | | |  .R Y R T U T T | R R R R | | | | T T T R | R T |  .|  .| T T | 0.0.R 8.R 8.| 8.8.T Y | T U Y Y U "
};
