/* XPM */
static char *__resized[] = {
/* columns rows colors chars-per-pixel */
"80 80 222 2 ",
"   c #0D0B0A",
".  c #120F0E",
"X  c #0E120A",
"o  c #16170B",
"O  c #151B0D",
"+  c #161512",
"@  c #1C1B15",
"#  c #1B1918",
"$  c #251A16",
"%  c #2C1C1A",
"&  c #301F1D",
"*  c #1A2606",
"=  c #1D2B07",
"-  c #1C250A",
";  c #1E2C09",
":  c #1F3007",
">  c #1C2313",
",  c #20290A",
"<  c #202E09",
"1  c #223409",
"2  c #29340F",
"3  c #263B0A",
"4  c #293E0B",
"5  c #262516",
"6  c #32211E",
"7  c #3B2E1A",
"8  c #2D3412",
"9  c #283915",
"0  c #373918",
"q  c #362420",
"w  c #392622",
"e  c #3D2A23",
"r  c #2C3028",
"t  c #3B3921",
"y  c #353735",
"u  c #41391C",
"i  c #412D25",
"p  c #432E28",
"a  c #443126",
"s  c #463329",
"d  c #4B342B",
"f  c #453A28",
"g  c #4E392D",
"h  c #51352D",
"j  c #533A2E",
"k  c #5C3E2E",
"l  c #4B3B30",
"z  c #543731",
"x  c #543D31",
"c  c #5B3C33",
"v  c #613D37",
"b  c #2B430B",
"n  c #2E4A0C",
"m  c #314E0D",
"M  c #34540E",
"N  c #365A0F",
"B  c #395D0F",
"V  c #2B4611",
"C  c #2C4A17",
"Z  c #384817",
"A  c #2F5316",
"S  c #345512",
"D  c #395412",
"F  c #365911",
"G  c #395C10",
"H  c #32531C",
"J  c #355C1A",
"K  c #3A5A1E",
"L  c #3D620E",
"P  c #3C6311",
"I  c #37621A",
"U  c #39651B",
"Y  c #3D6D1D",
"T  c #3F711E",
"R  c #364926",
"E  c #39492E",
"W  c #3A5822",
"Q  c #3E6624",
"!  c #3F7220",
"~  c #41471A",
"^  c #41650C",
"/  c #426B0F",
"(  c #46710E",
")  c #4A750F",
"_  c #4D7C0F",
"`  c #507E0F",
"'  c #406717",
"]  c #426B11",
"[  c #477617",
"{  c #4B7914",
"}  c #41751F",
"|  c #43791F",
" . c #517F11",
".. c #414B23",
"X. c #4A4728",
"o. c #445324",
"O. c #445924",
"+. c #485A29",
"@. c #515829",
"#. c #494D32",
"$. c #574433",
"%. c #5B4335",
"&. c #5E4939",
"*. c #5B5636",
"=. c #644333",
"-. c #654536",
";. c #6D4A36",
":. c #6A453C",
">. c #644B3B",
",. c #6D493C",
"<. c #714D36",
"1. c #734D3A",
"2. c #66543C",
"3. c #685A3C",
"4. c #77513A",
"5. c #7D553D",
"6. c #456626",
"7. c #436E22",
"8. c #536A2C",
"9. c #427620",
"0. c #4B7426",
"q. c #457C21",
"w. c #4A7D25",
"e. c #4D782A",
"r. c #54782B",
"t. c #466435",
"y. c #5A7231",
"u. c #5E7932",
"i. c #6B643C",
"p. c #617D34",
"a. c #474A47",
"s. c #4A5342",
"d. c #535753",
"f. c #774F40",
"g. c #6C5342",
"h. c #6A5B46",
"j. c #7B5142",
"k. c #735945",
"l. c #735B49",
"z. c #756A42",
"x. c #776449",
"c. c #7D7246",
"v. c #7B6551",
"b. c #81583E",
"n. c #865B42",
"m. c #895D43",
"M. c #885A46",
"N. c #8E6143",
"B. c #83654C",
"V. c #86694E",
"C. c #886A4F",
"Z. c #936545",
"A. c #9A6A47",
"S. c #9A6849",
"D. c #84754B",
"F. c #856C56",
"G. c #8C6D52",
"H. c #8C7355",
"J. c #947455",
"K. c #95765C",
"L. c #9A7B5B",
"P. c #A16E4A",
"I. c #A4714B",
"U. c #A9744D",
"Y. c #AE7850",
"T. c #B67D52",
"R. c #8F7964",
"E. c #947761",
"W. c #967A64",
"Q. c #9A7C65",
"!. c #9A7E68",
"~. c #A07F62",
"^. c #52830F",
"/. c #578A0F",
"(. c #518717",
"). c #568913",
"_. c #5D9111",
"`. c #619611",
"'. c #669D12",
"]. c #6BA512",
"[. c #6EA912",
"{. c #71AB11",
"}. c #75B213",
"|. c #79BA13",
" X c #478022",
".X c #498423",
"XX c #4C8A24",
"oX c #55832A",
"OX c #58872C",
"+X c #9C855A",
"@X c #9E875A",
"#X c #A4875E",
"$X c #BB8253",
"%X c #9C8061",
"&X c #9D816B",
"*X c #A38363",
"=X c #A88662",
"-X c #A58D62",
";X c #AC8A63",
":X c #AA896A",
">X c #B08D67",
",X c #B18F6B",
"<X c #B3916D",
"1X c #A78A73",
"2X c #AB9070",
"3X c #B69472",
"4X c #B99674",
"5X c #BB9877",
"6X c #B6967C",
"7X c #BC9B7C",
"8X c #C18655",
"9X c #C38855",
"0X c #CD9058",
"qX c #C09E7E",
"wX c #B69A80",
"eX c #BE9E81",
"rX c #BDA186",
"tX c #C09F82",
"yX c #C2A285",
"uX c #C5A689",
"iX c #C7A88B",
"pX c #C8A98C",
/* pixels */
"A I } Y Y 9.} } } Y Y } } } | T T q.T } Y Y T q.| } q.} ! Y Y Y T 9.9.} Y q.} Y I Y } Y Y } T T T Y Y T ! !  XT T  X| | T Y T | q.} } 9.Y Y Y Y 9.! 9.T T | Y J ",
"U Y } } 9.q.T Y T T T q.q.} | T ! ! } T T T T q.T T T T ! 9.q.q.q.q.} Y } q.q.q.9.9.T } 9.9.! Y U U Y q. X! T T T T T T T T | T 9.Y Y } } 9.q.q.q.q.} Y T q.} Y ",
"| } } | q.q.} } } } q. Xq.q.q.9.9.q.! ! T q.q.! ! ! T Y 9. XXXXX.X X9.Y T q..XXXXX X9.q.q.q.! I C J T q. X!  X! T T T T T q. X! 9.9.Y } 9..X.XXXXX X} Y T q.| | ",
"} q..XXX.Xq.} 9.| } }  X.XXXXXXX.X X! ! q..XXX.X X X X.X.Xq..X.X.X.X Xq.q. X.X X.X.X.X.XXXq.9.H 9 J 9. X.X.XXXXXXXXXT T q..XXX.X X X X.X.Xq..X.X.X X Xq.q. X| T ",
"Y q. X X.XXX.X X Xq.q..XXXXXXX.X.X.X X XXXXXXXXXXXXXXXXX.Xq.q.q.q.q..X.Xq.q. X.X Xq..X X.X.Xq.H 9 Q  X XXXXX.X.XXX.X.X.X.XXXXXXXXX.XXXXX.Xq.q.q.q.q..X.Xq.q.} } ",
"} } } }  XXXXXXX.X.X X XXX.Xq.q. XXXXXXXXXXXXXXXXXXXXXXX.Xq.9.q.! ! .XXX.Xq. XXX.Xq.! 9. XXXq.J C ! XX.XXXXX X X X.XXXXXXXXXXXXXXXXXXXXX Xq.w.q.! 9..XXX.Xq.q.} ",
"Y Y } q.q.q.q.q.q.q.9.9.9.q..XXX.X.Xq.9.q.q.q..X.XXXXX.X.Xq.9.q.Y 7. XXXXXq.q.q.q.q.! q.q.q.U H H Q ! ! ! q. X.X.X.X X! !  X.XXX.XXXXXXX.Xq.q.9.Y } q.XXXXq.7.U ",
"Y Y } q.q.} 9.9.! ! T ! ! ! q..XXX Xq.q.9.q.9.q.q.XXXXXXXX X X Xq.| .XXX.X9.T T q.q.9.q.q.! I H R J ! ! T ! q..X.X.Xq.q.q.q.! ! q.XX.XXXXX X X.Xq.9. XXXXX9.Y I ",
"Y T | q.q.T ! ! Y ! ! ! ! T Y q. X X.XXXXXq.q.Y q..XXXXXXXXXXXXX X XXXXX.XT 9.q.q.q.9.q.q.T Y H 9 Q ! ! ! ! ! ! .X X.XXXXX X! T q..XXXXXXXXXXXXX.X.XXXXX.XT Y Y ",
"Y T 9.q.q.! ! ! Y ! ! Y 9.q.!  X.X.XXXXXXX.Xq..X.XXXXXXX.X.X.X.Xq.9.q. X.X X.XXXq.q.} q.q.9.T J C U ! ! !  X!  X.X XXXXXXX.X XXXXXXXXXXX.X.X.X.Xq.! q..X.X Xq.} ",
"T T 9.q. X X! ! 9.q.q.q.q. X.XXXXX XXXXXXX.X.XXXXXXXXX.X| .X.X.X! Y ! q.XX XXXXX Xq.9. X.X Xq.Y U ! ! ! ! .X.XXXXX.X.XXX.X.X XXXXXXXXX.Xq.q. X.X! Y Y q.XX.Xq.} ",
"| } q.XXXXXXq.q..X.XXXXX.X.XXXXXXX XXXXXq. XXXq..XXXXXq.[ .XXXXX9.Y !  XXX} w.XXXX X9..XXXXXq.q.q..X.X! q..XXXXXXX XXXXX X X.X X.XXXXX X}  XXXXXq.Q T .XXX9.} } ",
"Y T }  XXXXXXX X! q..XXX X XXX Xq..XXXXX.XXXXX X.XXXXXXX.XXXXXXX.Xq..XXXXXq.q. X Xq.9.q.XXXXXX X! q.! Q I ! .X Xq..XXXXX.XXXXX.X.XXXXXXX.X.XXXXX Xq..XXXXXq.} } ",
"Y T | q..XXXXX.X9.9.q.XX Xq..X Xq.XX Xq..XXXXX X.X.XXXXXXXXXXXXX.X.XXXXX.X.X.X Xq.q.q.q..XXXXX.X! ! Q J H I  X Xq.XX Xq..XXXXX.X.X.XXXXXXXXXXXXX.XXXXXXX.X Xq.Y ",
"} q. XXXXXXX.X.XXXq.q.XX X X XXXXX X9.! q.XXXXq.9.q..X.XXXXX.X.Xq.q.q.q.q. XXXXX X X X.XXXXX.X.XXX! T  XR R !  XXX X! T q.XXXX! 9.q..X.XXXXXXX Xq.q. X X X.Xq.} ",
"} | XX XXXXX.X.XXXXX.X X.X.X.XXX.Xq.T Y 9.q.q.7.9.q..Xq.| | .X.X.X.X.X! U [ [ U Y 9.XX.XXXXX.X.XXXXXXX XQ W R ! XXq.! ! ! q. X! ! q.q.q.q.q. XXX.X X X.X.XXX Xq.",
"Y | .X9.q.XX.X.X.X.X.Xq.q..X.XXXXXq.9.9.9.q.9.9.q.q.q.q.q.q..XXX.X X{ [ ( ` ) ] [ { .XY | XX.X.XXXXX X! ! Q r Q .X! ! ! ! ! ! ! q.q.q.q.q.q. XXXXXXXXXXXXXXXq.| ",
"} q.9.} 9.q.q. X.X9.! ! ! 9..XXXXX.X.Xq. X X.XXXXX.X.XXXXXXXXXXXq.w. .'.}.[.[.[.}.'.` F U | q. XXX! ! ! ! Q E Q .XXX X X XXXXXXX.X.XXX.XXXXXXXXXXXXXXXq.9. X X| ",
"} | q.9.9.9.q.q.q.9.9.q.! ! q.XXXXXX.X Xq.q..XXXXXXXXXXX X.X| U (.'.'.{.}.[.'.].|.}.'._.{ I } |  X! !  X! Q E W ! XXXX X!  XXXXXXXXXXXXX.X.X.XXXq.q. Xq.} 9.| | ",
"} q.XX Xq.q.q.q.9.q.q. X9.!  X.XXX.XXX.Xq.q..XXXXXXXXX XY | } B `.|.}.[.`.^.` ^.].{.[.|._.B U T ! ! q.XX! H C H Q .XXX.X X X XXXXXXXXX.X9.q. X.Xq.9.q.q.q.} } | ",
"q.q. X.XXXXX.X Xq.q.! ! ! 9..XXX X X.XXXXXXXXX X X.X.Xq.I ) _.[.[.].[.'.^.M B ( ^.^.^.)./.^.N J  Xq.T T T U C H Q w..XXXXXXXXX X X.X.X.XXXXXXXXXXXXXXXXX.X X| } ",
"9.q..XXX.X.X.XXXXX.Xq.q.q.w.XXXX.Xq. X.X.X.Xq..X.X X} ' [ `.{.}._.[ ^ ( ) N B ( ( ] L m ^ /.`  .(.T U |  X! E W ! !  XXXXX X X.X.X.X.X X.X.X.X.X.X.X XXXXX X| | ",
"} q..X.X.X.X.X.XXXXXXXXXXXXXXXXX.X9.9.q.q.9.9..XXX| Y ( /.].[.'.) m = b ] L / ( ( / M < n /.].]./.P I  X.Xe.a.t.! ! q.q.q.! ! XXXXq.q.9.! q.q.q.q.9.9..XXX.Xq.} ",
"} | q..X.XXX.X X X.XXXXXXXXX.X.Xq.q.9.9.9.q. X.X} P )._._ ^._.[.` N M N N N B L / / N n B ^.^././.^./ M I 6.d.t.T ! q.! ! q..XXX.X! 9.q.q.9.! q.} } q. X.X Xw.} ",
"} q.q..X.X.Xq.q.q. Xq.q..XXX.Xq.q. Xq.q.q..Xq.' ] ^ ` { L L ) ].^.L ^ G F B P P ^ P G G ] _ / L ( ( L n W E a.t. X Xq.T  X.X.XXX X! ! q.q.! ! ! T T .X X X X XT ",
"T | XXXXq.! q.q. X Xq.!  XXX.X.X.XXX.X X X Xw.B L ( B m n M P /._ / P G G ] L P G G P ^ ( ) G S F n m K #.a.r W  XXXXXXXXXXXXXXX.X! ! T T T T T T |  X X X X| T ",
"} q..X X| Y T | XXXX.X.X.X.X X.XXXXXXX XI ] { G N P G n 1 n ] ^./ N G ^ / B n 1 3 m P / ] G n 4 1 b Z #.d.s.' D I .XXXXXXXXX.XXXXX.Xq.Y Y ! q.q.|  X|  X X.X XT ",
"} q..X Xq.q.T | XXXX.X.XXX.X X.XXX| } } F B ] G F G G m 4 b M ( P F G / / N n b b M L / P F n 1 * : E d.a.W ( L L [ | T .X.Xq..XXXXXq.q.q.q.q..X.X.XXX X XXX XT ",
"} q.XXXXXXXXXXXXXX.Xq.9. XXXXXXX XU F G F F F F N B G F m 3 4 M G G G B L G P L B B ^ G F S m 9 ; > y d.E V G ] ) ( B J | q.T .XXXXXXX.XXXXXXXXXXXXXXX.X|  XT T ",
"Y }  XXX.Xq..XXX.X.Xq.9. XXXXXXX} n b m F D F P / / G F M F D G F G ^ P B L D Z F N G ] M : 9 > O # y a.r O 1 S P B L P T  X.Xq.q.XXXXXXXX.XXXXXXX.X|  XXXT T T ",
"T | .XXX X|  X.X.X Xq.9.q..X.X9.J V 4 n F F F ^ / / ^ G F M G N G G ^ L B B ~ u Z m F L b O # # . # y y #   O 4 M m M L I Y | q. XXXXXXXXX X XXXXX X XXXXX XT T ",
"} | XXXX.Xq.|  XXXq.! q.q.9.9.J n n n n F F M M N G G G F n m F G G N B B N ~ i 7 7 Z S b X + .   + % y #   # 9 m 4 b b 4 b A q.XX XXXXXXX| | .X.XXXXXXXXX X XT ",
"T q..X.X Xq. X.X X Xq.T  Xq.J V b b b b N M m M m m 4 m M m m M M M m D B B o.k u 0 D B 1 o # +     + # . . # > > V b b 1 3 b m I T .XXXXX Xq..XXXXX.X|  XXX X X",
"Y 9. Xq. X X.X.Xq..X.Xq. X} V 3 3 3 b b m m m m m 4 3 b B M M M Z Z M M B B X.k u m N B n 5 5 @ X   . + X O & > > b n b 1 1 1 ; 4 J } .XXX.X X.XXX.X.XT T XX XT ",
"T } q.q..XXXXXXXXXXXXXXXq.I 3 1 1 = < 3 n b b b b b M M M M N M X.X.B D M M u 7 M N m N M b 5 - ; O + @ > * - : 4 b b b 3 1 1 1 1 b U q.XXXX.XXX.X X X XXXXXT Y ",
"T T 9.q.q..X.X.XXXXXXXq.J b 1 1 1 < 1 3 b b b b b n m m b m m N u u m m n m 4 4 M m b M M n 1 1 3 2 < 2 3 3 : 3 b b 4 1 1 1 1 1 1 1 b J  X|  XXXXX.X X.XXXXXT U ",
"T T T T q.q.q. XXXXX XT V ; 1 1 3 1 3 4 3 b b b b b b b b 4 b N 0 8 4 4 b b b b M b 3 m m b b b n b b b n b b b b b 1 1 : : 1 1 : : : V U T  X.XXXXX X.XXXXXT Y ",
"| } T } ! ! q..XXXXX| I V 1 1 1 1 1 1 1 1 b b b 4 4 b 4 4 b b b b b 4 b b b b b b b b b b b b b b b b n b b b b 4 1 = = ; 1 1 1 : ; : 1 1 T XXq.| T XXXXXX X XT ",
"q.} | q. Xq. X X X XY b 1 : 1 1 1 1 < < 1 4 b 3 3 b 1 1 4 b b b n n n b b b b b b b n b b b b b n b b b b b 1 3 1 1 : = : 1 1 1 : ; ; ; : T XX.XT | XX.X|  XT  X",
"Y |  X X.XXX Xq.q.q.I : = ; 1 1 1 3 < = 1 1 1 1 3 3 < < 3 b b b 4 4 n b b b 4 b b b b b b b b b b 1 1 b b 1 : 1 1 1 1 1 1 1 1 1 ; ; ; 3 n T XX.X| | .X| T T T T ",
"I } .X X X.X.X.X.Xq.U 3 ; ; * : < 1 1 < * = 3 1 1 1 1 1 3 1 3 3 < * < 3 4 4 b 4 3 3 4 b b b 4 3 4 1 = = 1 1 1 1 1 1 1 < 1 < = * * 1 9 A T  X X X X.XXX X XXXq.Y ",
"Y } q.q.q. Xq.q.q.q.T J V : * = < < 1 < = = 1 1 1 1 1 1 1 1 1 1 < , < 1 3 3 3 3 < 1 3 3 4 4 1 1 = = = = 1 1 3 1 3 1 < = = < = * : V A U ! .X.X.XXX.Xq.9.q.XXq.} ",
"| } 9.q. Xq.} Y ! 9.q.q.I V 3 : < = = = < < < < 1 1 1 1 1 1 1 1 1 1 1 1 1 1 3 1 = < 1 3 1 1 1 < = = 1 1 1 1 1 1 1 1 < * * : 3 1 V U ! 7.! .XXXXXXX X} T T q.q.| ",
"} 9..XXX.X X9.9.q.! 9. Xq.T U C 3 = = = : = * = = = : : 1 1 3 1 3 1 1 1 < 1 1 1 < 1 1 1 1 1 1 1 1 1 1 1 3 1 = = = = < = * 1 M Y q.q.q..XXX X X.X.X.X X| }  Xq.Y ",
"Y 9. X X.XXX X X Xq.q. XXXXXq.U J A A m 2 2 , , * = = = ; 1 : : 1 < < < < 1 1 1 1 1 1 1 1 1 1 1 1 < = = : ; * - - 0 u R V H } .XXXXXXXXXXXq.q.q.q.q..X Xq..X9.} ",
"} } 9.9. XXXXXXX.X X X.X.X.Xq.q.q..X.Xq...f f 0 V 9 2 2 8 < * - = * = < 1 < 1 1 1 < < < 1 < 1 < * * - < , 1 9 8 t &.l.x.8.q.XXXXXXXXXX.X.Xq.q.9.9.! .XXX.Xq.9.9.",
"Y } 9.q.q.q. Xq.q.9.9.q.q.q..XXX.X.X X0.i.F.K.H.H.v.x.h.*.t ; ; * < < 1 1 < = * = < < < = < , , - - 5 0 r X.h.v.F.!.:XL.y.9.| .X.XXXXX.X.X9.9.q.' } q.XXXXq.Y U ",
"Y Y 9.q.q.} 9.9.! ! ! ! Y ! q..X.X X| r.c.*X7X7X6X1X1X1XR.v.$.r 0 u 0 0 < , * , * O O * , , 8 0 X.#.*.x.v.R.&X1X2X6X5X-Xy.} q.| q.XXXXXXXX.Xq..Xq.q..XXX.X9.Y I ",
"Y } } | q.} Y ! T ! Y 9.! Y ! q. X X XOXD.*X7X7XeXeXuXuXeXrX!.z >.k.=.a 6 5 5 5 $ o o + 6 e l h.W.&X1XwXeXeXeXeXwXeX4X#Xu.0.} } q..XXXXXXXXXXXXXXX XXXXX.XT Y Y ",
"Y Y | | q.q.} Y Y ! 9.T 9.q.q.q.XX XXXXXc.*X5X7XeXuXyXuXuX1XF.B.=.a i j k d 6 % f w $ $ q s x v.1XwXeXyXpXpXiXtXtXeX5X#Xp.| | .XXXXXXXXX.X.X.X.Xq.9.q..XXX Xq.9.",
"} } }  X.X X9.} 9.q.q.q.q. X XXXXX X.XOXc.*X5X5X7XuXrXuXyXF.k.l.g & a b.A.<.k h g d e 6 6 e x l.Q.6XeXeXpXpXuXtXtX6XqX-Xp.w..XXXXXXXXX.Xq.q. X.X! Y 7.q..X.Xq.} ",
"} } } XXXXXXq.q. X.XXXXX.X XXXXXXX XXXOXc.*X7X7X7X7XuXuX6Xv.c g d j <.8X0Xb.S.P.p a %.q % w %.g.>.!.yXrXtXpXtXtXeXeX4X#Xy.| .X.X.XXXXX.X}  XXXXX9.Y }  XXX} } } ",
"} Y }  X.XXXXX X! q..XXX Xq.XX Xq..XXXoXz.*X5X7X7XeXiXeX!.g.p w 5.A.4.4.<.k A.T.j d &.6 $ & d x %.Q.tXiXtXtXuXtXqXqXqX-Xu.w..X X.XXXXXXX.X.XXXXX.Xq..XXXXXq.9.} ",
"Y } q.q..XXXXX.X9.9.q.XX Xq.XX Xq.XX Xw.z.%X6X5X7XyXuX2Xv.&.s w P.$X=.w % 6 b.T.=.g x 7 % & w d >.E.wXtXuXtXuXtXtX7X5X-Xp..XXX X X.XXXXXXXXXXXXX.X.XXXXX.X.X9.} ",
"} q.q.XXXXXX.X.X.Xq.q.XX.Xq. XXXXX X} 7.z.*X5X7X7XyXuX&X&.g.x d P.U.6 $ % % <.A.=.d i e w & & s g.F.1XeXtXtXtXtXeX7X5X#Xp.w.XXq.} q..X.XXXXXXX Xq.q.q. Xq..Xq.9.",
"Y | XX XXXXX.X.XXXXX.X X.X.X.XXXXX| } 6.z.L.3X5X7XyXyXW.x %.x d A.S.& $ % % j 4.;.d e d p & & d g.v.W.eXtXpXtXtXeX7X5X#Xy.9.q.9.9.q.q.q.q.q..X.X.X.X.X.XXX.X.Xq.",
"! q..X9.q.XX.X.XXXXX Xq.q..X.XXXXX| | 0.z.L.<X5X7XtXtXW.x k h p Z.Z.6 % % & d ;.;.j e x d % & g g.v.W.7XuXuXuXyXeX7X4X#Xy.} [ 9.q.q.q.q.q.q..XXXXXXXXXXX.XXX X} ",
"9.q.9.! 9. Xq.q..X9.! ! ! 9..XXXXX.X Xw.z.L.,X3XtXiXuXW.x x g p Z.A.i % % % h <.1.k i c g q q s >.l.!.uXuXuXyXeXtX7X<X@Xy.| .X.XXX.X.XXXXXXXXXXXXXXXXXq.q..X X| ",
"T q.q.q.9.q.9.q.q.9.9.q.! !  XXXXXXXXXw.z.L.,X5XtXyXiX!.$.x x d A.I.i % & i k b.5.k i %.g & q s &.v.&XuXpXuXyXyXyX7X3X+Xy.9..XXXXXXXXXXXq. X.X.Xq.q. Xq.T q.| | ",
"Y q.XXq.q.q.q.q.9.9.q..X9.! .X.XXX.X.XoXz.J.,X5X7XqXiX&X$.x h d P.U.a 6 i p ;.N.b.v i $.g % q d &.l.!.uXuXuXuXuXyX7X3X#Xy.0..XXXXXXXXX.Xq.q..X.Xq.T q.q.q.T T | ",
"q.q. X.XXX.X.X.X Xq.} ! ! 9.XX.X X X.XoXz.L.;X5X7XtXyXQ.$.h g h P.Y.j j z 7 b.T.Z.=.p c g % w s %.l.!.uXpXuXyXyXqX7X4X#Xp..X.X.X.X.X.X.XXXXXXXXXXXXXXXXXXXq.| | ",
"9.q..XXXXX.X.XXX.X.Xq.q.9.w.XXXX Xq. XoXz.J.;X4X7XqXtXQ.%.g d d P.T.;.:.-.h N.8XP.-.p j s % w a x l.!.rXuXuXuXeX7X7X3X@Xp.9.q..X.X.Xw. X.X.X.X.X.X.X XXXXX.Xq.| ",
"} q.XX X X.X.XXXXXXXXXXXXXXXXXXX.X| | e.z.J.;X3X5X7XtX!.x g a h U.8Xb.b.b.v Z.8XP.;.e g a q w a g k.!.eXrXrXiXeX5X3X,XL.y.} 9.XX.Xq.q.q.9.9.q.q.q.9.q. XXX X| | ",
"} |  X XXXXX Xq. X.XXXXXXXXX.X Xq.| } 7.*.V.;X<X5X7XqXE.k i i d P.T.4.U.Y.c M.T.S.-.e g p & w a g l.!.eXiXiX7X7X5X,X=XJ.8.0..XXX.X9.9.q.q.9.9.9.T 9.q. X.X.X| T ",
"} |  X.X.X Xq.q.q. Xq.q..X.X.Xq.q..Xq.0.3.C.#X>X3X5XqXK.x i e d S.T.n.$X9Xz b.T.S.=.i d p & w i g l.Q.eXuXyX5X7X5X>XL.z.8.w.XXXX X} } 9.9.9.7.Y T T  X X X X| T ",
"Y q.XXXXq.} q.q. X Xq.! .X.X.X.X.XXX.Xe.i.C.L.#X<X5X7XK.g i p d N.U.M.T.T.z m.9XP.-.i a e q w i g g.W.wXtXeX7X5X5X#XJ.i.y..XXXXX.X} } } } ! T T T } .X.X.X| | T ",
"} q..X X9.Y Y q.XXXX.X.X.X.X.X.XXXXXXXoXi.v.L.#X>X3X7XW.x i i h M.U.Z.9X8Xz m.9XS.=.i p e & 7 i f g.K.6XeXeX5X<X#XJ.J.H.u.w..XXXXX.X} } T T q.q.|  X X X.X.X X| ",
"} q..X Xq.q.9.q.XXXXXX.X.X.X.X.XXXXXXX.X*.v.L.=X=X#X<XL.&.i i j M.S.N.T.T.j n.9XZ.k i i w % q i d g.F.3X4X3X,X#XJ.J.J.D.r.| | .XXXXX X| q.q. X X.X.X X X XXX| | ",
"T  XXXXXXXXX.XXXXX Xq.q. XXXXXXXXX.X.Xq.+.h.L.:XL.J.#XL.-.s p j j.M.M.Y.U.d m.8Xm.k i i q % 6 i d 2.G.#X=X=X;XJ.B.J.G.i.0.} |  X.XXXXXXXXXXXXXXXXXXXXX X|  XT T ",
"T T  XXX.Xq..XXX.X Xq.9. XXXXXXX.Xq.q.q.q.i.C.L.#X*X~.G.>.s i j j.M.f.Z.M.d Z.9X1.d i e w & 6 e s ;.C.L.H.J.-XL.V.V.5.*.w.XX.X| q.XXXXXXXX.XXXXXXX X X X X XT Y ",
"Y T .XXX X} q..XXX Xq.9. X.X.X Xq.q.q.q..X8.3.V.L.~.L.v.%.d p h f.j.:.j.j.h m.Y.v p i i e & 6 e s >.V.L.C.C.L.K.V.k.*.+..XXXw.|  XXXXXXXXX X XXXXX X| XXXX XT T ",
"|  XXXXX.Xq.q..XXXq.T | } q.} | q..XXXXX XU ..3.B.V.G.2.s g z h f.j.v :.f.d :.M.v i 7 i w 6 6 e f -.B.L.L.J.C.l.k.2.@.} q.9.} XXXX XXXXXXXq.q. XXXXXXXXXXX X XT ",
"T | .XXX Xq. X X X Xq.}  X.Xq.q. X.X.Xq. Xq.9.O.*.k.B.;.a s g h :.:.v :.v h v ,.z p e e e w w w f c 2.C.C.B.B.2.X.+.6.} q..X X.Xq.q. XXXXXq.q..XXXXX.Xq. XXX X X",
"T } |  X X XXX.Xq..X.Xq. XXXXX.X X.Xw.9.q..X.XI K 2.3.&.e i s j v v c v v h z c h p w i d z e w i f %.2.2.2.i.@.W U T } q.XXXX Xq.q. XXXXX.X.XXXXX.X XT T XX XT ",
"T | |  X XXXXXXXXXXXXXXXq.! XX.X XXX.X.X.X.Xq.! } } K Z a i s j k j j z z d h c h i w e x g.s 7 a g X.X...W 7.9.| .X.X X.X Xq.} q. Xq..XXXXX.XXX.X Xq. XXXXXT Y ",
"T T } } q.XX.X.XXXXXXX Xq.q.XXXXXXXX.X.X.X.Xq.q.| | Y K W Z o.+.+.+...K o.........R R Z +.@.O.O.6.6.6.6.U } q..XXXXX.X.X.X Xq.9.q..Xq.q.q.q. XXXXX.X X.XXXXXT U ",
"T T T T |  Xq..XXXXX.X| | .XXXXX.X Xq. XXXXX Xq..X.X.Xq.} } | q.T T T Y T T Y I Y Y I U Y T | q..X(..Xq.q. X.XXX.X.X X XXXXX Xq.q..X Xq.q.9.q..XXXXX X.XXXXXT U ",
"| T T T | T q. X.X.X X Xq. X.X Xq.q.q.q.XXXX.X.X.X.XXXXX X.X.Xq.T T XXXX X|  X.X.X| Y } } } q. X.X.X.Xq.q. X.Xq.q.| } q.XXXX.X X XXXXXXX X.X.Xq.} | XXXXXX X XT ",
"Y T T T T ! q.| | T | | | | q.} 9.} 9.q.9.q.q.q.q.q.q.q.q.q.q.q.T T  X! [ T | .X X} T } 9.9.} } q.} } q.q.} q.} } } 9.q.q.q.q.q.q.q. Xq.q.q.q.q.Y Y | | T T T T ",
"I U Y T q.T T Y Y Y Y T T T Y T 9.} q.} Y Y } q.9.9.T T } } } 9.Y Y T Y I Y Y } T T Y T } } } } Y Y Y Y } T Y } 9.} q.} } Y } 9.q.T T T T T 9.q.Y Y T Y U U U U "
};
