/* XPM */
static char *__resized[] = {
/* columns rows colors chars-per-pixel */
"80 80 226 2 ",
"   c #0B0B09",
".  c #120E0D",
"X  c #0D1209",
"o  c #13130B",
"O  c #161A09",
"+  c #151513",
"@  c #1B1915",
"#  c #261916",
"$  c #271916",
"%  c #271918",
"&  c #2A1B1A",
"*  c #301F1D",
"=  c #1A2606",
"-  c #1D2B07",
";  c #1B250A",
":  c #1E2C09",
">  c #1F3007",
",  c #1D2812",
"<  c #20290A",
"1  c #202E09",
"2  c #223409",
"3  c #29340F",
"4  c #263B0A",
"5  c #293E0B",
"6  c #262716",
"7  c #33221E",
"8  c #34291C",
"9  c #3B2D1B",
"0  c #2C3312",
"q  c #283815",
"w  c #363818",
"e  c #262626",
"r  c #362520",
"t  c #3A2722",
"y  c #372820",
"u  c #3C2B23",
"i  c #2D342B",
"p  c #393824",
"a  c #343536",
"s  c #413B1D",
"d  c #422E26",
"f  c #442F28",
"g  c #433126",
"h  c #483827",
"j  c #463229",
"k  c #4B342B",
"l  c #4E3A2D",
"z  c #51352E",
"x  c #523A2E",
"c  c #5A3D2E",
"v  c #4B3B30",
"b  c #543C31",
"n  c #553835",
"m  c #5B3D33",
"M  c #613E37",
"N  c #2B430B",
"B  c #2E4A0C",
"V  c #314E0D",
"C  c #34540E",
"Z  c #365A0F",
"A  c #395D0F",
"S  c #2B4611",
"D  c #2D4B12",
"F  c #2D461D",
"G  c #334C12",
"H  c #394618",
"J  c #2F5316",
"K  c #345512",
"L  c #395412",
"P  c #365911",
"I  c #395C10",
"U  c #33551D",
"Y  c #355D18",
"T  c #3A591E",
"R  c #3D630F",
"E  c #3C6311",
"W  c #37621A",
"Q  c #39651B",
"!  c #3D6D1D",
"~  c #3F711E",
"^  c #2E4420",
"/  c #394B24",
"(  c #3A5624",
")  c #3B4632",
"_  c #3D6821",
"`  c #3F7220",
"'  c #41471A",
"]  c #41650C",
"[  c #426B0F",
"{  c #46710F",
"}  c #4A750E",
"|  c #4D7C0F",
" . c #507E0F",
".. c #426A11",
"X. c #436A16",
"o. c #477616",
"O. c #4B7913",
"+. c #41751F",
"@. c #43791F",
"#. c #517F11",
"$. c #424C23",
"%. c #4B4728",
"&. c #564229",
"*. c #435A24",
"=. c #475927",
"-. c #515829",
";. c #574033",
":. c #5B4335",
">. c #5B4A38",
",. c #47503F",
"<. c #5B5636",
"1. c #634234",
"2. c #684639",
"3. c #644B3B",
"4. c #6C493B",
"5. c #754D3E",
"6. c #66543C",
"7. c #685A3C",
"8. c #79563F",
"9. c #7C553D",
"0. c #456726",
"q. c #426E22",
"w. c #536A2D",
"e. c #427620",
"r. c #4B7426",
"t. c #457C21",
"y. c #4A7D25",
"u. c #4F7A28",
"i. c #54782B",
"p. c #4B6B37",
"a. c #586535",
"s. c #5A7231",
"d. c #5E7932",
"f. c #69643C",
"g. c #617D34",
"h. c #454943",
"j. c #4C5446",
"k. c #585D54",
"l. c #704D42",
"z. c #6C5341",
"x. c #6A5B46",
"c. c #765945",
"v. c #735B49",
"b. c #756547",
"n. c #756A42",
"m. c #7B614D",
"M. c #7D7246",
"N. c #7B6551",
"B. c #81573F",
"V. c #835A3E",
"C. c #8B603F",
"Z. c #865A44",
"A. c #855D52",
"S. c #8E6242",
"D. c #83664C",
"F. c #86694E",
"G. c #886A4F",
"H. c #956647",
"J. c #9D6B4B",
"K. c #84754B",
"L. c #856C56",
"P. c #8C6D52",
"I. c #90665B",
"U. c #8C7355",
"Y. c #947455",
"T. c #95765C",
"R. c #95795C",
"E. c #9A7B5B",
"W. c #A16E4C",
"Q. c #A7724D",
"!. c #B07A4E",
"~. c #AA7350",
"^. c #B27B51",
"/. c #8F7964",
"(. c #947761",
"). c #967A64",
"_. c #9A7C65",
"`. c #9A7E68",
"'. c #52820F",
"]. c #578A0F",
"[. c #518717",
"{. c #568913",
"}. c #5D9111",
"|. c #619611",
" X c #669D12",
".X c #6BA512",
"XX c #6EA912",
"oX c #71AB11",
"OX c #75B213",
"+X c #79BA13",
"@X c #478022",
"#X c #498423",
"$X c #4C8A24",
"%X c #55832A",
"&X c #58872C",
"*X c #9C855A",
"=X c #9E875A",
"-X c #A4875E",
";X c #BC8253",
":X c #9C8061",
">X c #9D816B",
",X c #A38363",
"<X c #A88662",
"1X c #A58D62",
"2X c #AC8A63",
"3X c #AA896A",
"4X c #B08D67",
"5X c #B18F6B",
"6X c #B3916D",
"7X c #A78A73",
"8X c #AB9070",
"9X c #B69472",
"0X c #B99674",
"qX c #BB9877",
"wX c #B6967C",
"eX c #BC9B7C",
"rX c #C48955",
"tX c #C09E7E",
"yX c #B69A80",
"uX c #BE9E81",
"iX c #BDA186",
"pX c #C09F82",
"aX c #C2A285",
"sX c #C5A689",
"dX c #C7A88B",
"fX c #C8A98C",
/* pixels */
"J W +.! ~ ~ ~ +.+.! ! +.@.@.@.~ ~ ` @.@.! ! ~ t.t.~ @.@.` ! ! ~ ~ e.e.~ ~ t.+.! W ! ~ ! ~ ~ ` ! ! Y Q ` e.e.e.~ ~ @.@.~ ~ ! ~ e.e.+.@.+.~ ! ! ~ ~ e.e.~ ~ t.! Y ",
"Q ! +.+.e.e.~ ~ ~ ~ ~ t.e.e.@.~ ` ` e.~ ~ ~ @.e.~ ~ ~ ~ ` e.e.t.t.e.+.! ~ t.@Xt.e.e.~ +.+.@.` W F Y ` e.e.e.@.~ ~ e.~ ~ ~ ~ +.@.e.~ ~ ~ ~ e.t.t.t.e.~ ~ ~ t.+.! ",
"@.+.+.@.@Xt.~ ~ ~ @.@.@X@Xe.t.e.` t.` ~ ~ e.t.` ` ` ~ ` ` t.$X$X$X@X+.~ ~ t.#X$X$X#Xe.t.@Xt.~ U q _ t.@Xt.t.t.` e.t.~ ~ ~ ` t.e.~ ~ ! +.e.@X$X#X$X@X+.~ +.t.@.@.",
"+.t.#X$X#X@Xe.e.@.@.~ @X#X$X$X$X#X@X` ` t.#X$X#X@X@X#X@X#X#X#X#X#X#X#Xe.@.@X#X@X@X@X#X$X#X@Xe.! _ ! e.@X#X$X$X$X$X@X` ~ @X#X$X$X@Xy.#X#X@X#X#X#X#X#X@Xe.+.#X@.! ",
"! t.y.@X#X$X#X@X@Xt.t.#X$X$X$X#X#X#X#X@X$X$X$X$X$X#X$X$X$Xt.t.@Xt.t.#X#Xt.@X@X#X@X@X@X@X$X$X@X@X#Xe.t.@X$X$X$X#X$X#X#X@X$X$X$X$X$X#X$X$X$Xt.t.t.t.t.$X@Xt.@Xt.+.",
"+.+.+.+.@X$X$X$X#X#X@X#X$X#X@Xt.@X$X$X$X$X$X$X$X$X$X$X#X#Xt.t.e._ e.#X$X#Xt.@X$X#Xt.e.e.t.$X$X$X#X#X#X#X$X$Xt.t.@X#X$X$X$X$X$X$X$X$X$X#X@Xt.t.t.~ e.@X$X#Xt.e.+.",
"! +.+.t.t.t.t.t.t.e.` e.e.t.#X#X#X#X@Xe.e.t.@X#X#X$X$X$X#Xe.@.e.~ ~ @X$X$Xt.e.e.@Xe.~ t.@Xt.@Xt.e.e.e.e.` t.#X#X#X#X@Xe.t.t.@X#X#X$X$X$X@Xt.+.t.! ! y.$X$Xt.~ Q ",
"! ! +.@.t.+.+.+.` ` ~ ` ` ` t.#X$X@Xt.t.e.t.t.e.@X$X#X$X$X@X@X@Xt.e.#X$X#Xe.+.+.t.e.e.@Xt.~ ` ` ` ` ` _ ! ` t.#X#X#Xt.t.e.t.e.` t.$X$X$X$X@Xy.@Xt.t.#X$X#Xe.! W ",
"! ~ +.@Xt.~ ~ ` ~ ` ~ ~ ` ~ ~ e.#X@.$X$X$Xt.~ ~ @.#X$X$X$X$X$X$X#X#X$X$X#X_ ` t.t.t.e.@Xt.~ ~ ` ` ` ! W W _ _ ` #X@X#X$X$X@X` ` e.$X$X$X$X$X$X$X#X#X$X$X#X~ ! ! ",
"! ~ @.t.t.e.~ ` ~ ` e.~ e.t.` @X#X@X$X$X$X#Xt.#X$X$X$X$X#X#X#X$Xt.+.e.@X#X#X$X$Xt.e.~ t.t.e.~ ~ ! ` ! ! F U ` @X#X#X$X$X$X#X@X#X$X$X$X$X#X#X$X@Xt.e.e.#X$X@Xt.+.",
"! ~ e.#X#X@X` ` e.t.t.e.t.#X#X$X$X#X$X$X$X#X#X$X$X$X$X#X@.@.#X#X` ! ` t.$X#X$X$X#Xe.@.@X#X@Xe.` ` t.t.` ^ ^ _ #X#X#X#X$X#X#X#X$X$X$X$X#Xt.t.@X$X` ! ! t.$X@Xt.@.",
"@.~ ` $X$X$Xt.e.@X#X$X$X#X#X$X$X$X@X$X$Xt.@X$Xt.#X$X$X#X@.#X$X$Xe.! ~ #X$Xe.t.#X$X@X` $X$X$X@Xe.#X#X$X#X` ( J ~ $X#X#X$X@X@X#X@X#X$X$X#X+.@X$X$X` _ ~ #X$Xe.+.+.",
"~ ~ +.@X$X$X$X@Xe.e.#X$X@X@X$X@X@X$X$X#X#X$X$X@X#X$X$X$X#X$X$X$X#Xt.#X$X$Xt.t.#X@Xe.e.@X$X$X$X@X` t.#X$Xt.( i ( @X$X$X$X#X$X$X#X#X$X$X#X@X$X$X$X#Xt.#X$X$Xt.+.~ ",
"! ~ t.@.#X$X$X#Xe.` t.$X@Xt.#X@X@.#X@Xt.$X$X$X@X#X#X$X$X$X$X$X$X#X$X$X$X#X#X#X@Xt.t.t.t.#X$X$X#X~ ` @X$X#X_ i U ~ #X@Xt.$X$X$X@X#X$X$X$X$X$X$X$X$X$X$X$X#X@Xe.~ ",
"+.@.#X$X$X$X#X#X$X@Xt.#X#Xt.#X$X$Xy.e.! t.$X$X@.+.y.#X#X#X$X$X@.t.t.t.@Xt.@X$X$X#X@X@X#X$X$X#X#X$X@X@X#X#X_ q U ~ @Xe.` e.$X$Xe.e.t.#X#X$X$X$X@Xt.t.@X@Xt.#X@Xe.",
"~ @.$X@X$X$X#X#X$X$X#X#X#X#X#X$X$Xt.e.! e.t.t.+.+.@.@.y.@.@X#X$X#X#X#X_ Q O.o.Q ! e.$X#X#X$X$X#X$X#X#X#X#X` ^ U ~ +.` ` ` t.@X` e.e.t.t.t.t.#X#X#X@X@X#X$X$X@Xe.",
"~ @.#Xt.t.$X#X#X$X$X#Xe.t.#X#X$X$Xt.e.e.@.e.e.e.e.t.t.e.e.@X@X$X#X#X#Xo...'.} ....#X#X! @.$X#X#X#X$X#X@X@X_ ^ U _ ` ` ` ` ` ` @Xt.t.t.t.e.t.@X$X$X$X$X$X$X$X@X@.",
"+.t.e.~ +.t.t.@X#Xe.` ` ` e.@X$X$X#X@Xt.t.#X$X$X$X#X$X$X$X$X$X$Xy.o.#. XOXoX.X.X+X X .P W @.@.y.#X` ~ ~ ` _ ^ U ` #X@X@X@X$X$X$X#X$X#X$X$X$X$X$X$X$X$Xt.e.#Xt.@.",
"+.@.@Xe.e.e.t.t.t.e.e.t.` ` t.$X$X$X$X#Xt.t.#X$X$X$X$X$X@X#X@.W [. X XXXOX.X.X.X+XOX X}.O.Q +.t.@X` ` @X` _ ) ( ` $X$X@Xt.t.#X$X$X$X$X#X#X#X#X$X@Xt.@Xe.+.e.e.+.",
"~ t.$X@Xt.t.t.e.e.e.t.@Xe.` @X$X$X#X#X#Xt.t.@X$X$X$X$Xy.~ @.+.R }.+XOXXX|.].| '..XoXXX+X}.A Q ~ ` ` t.@X` _ j.p.` $X$X#Xt.t.@X$X$X$X$X#Xe.t.#X#X@.+.t.@Xt.+.+.@.",
"e.t.@X$X$X$X@X#Xt.e.e.` _ e.$X#X@X@X#X$X$X$X$X@X#X#X#Xe.W } |.XXXX.X.X X'.Z Z {  .'. .'.].'.A Y #Xt.~ ~ ! 0.k.p.t.#X#X$X$X$X$X@X#X#X#X$X$X$X$X$X$X$X$X$X$Xy.@.@.",
"e.t.#X$X$X#X#X$X$X#Xt.t.t.#X$X$X#Xt.t.$X#X#X@X#X#X@X@.X.o.|.oXOX}.} ] { } R A { } [ R C ] ]. .'.[.! Q @._ ( j.p.#X` #X#X$X@X@X#X#X#X#Xt.#X#X#X$X#X#X@X$X$X@Xt.@.",
"+.@.$X@X#X#X#X#X$X$X$X$X$X$X$X$X#Xe.e.t.t.+.e.#X#X@.! { ]..XXX X| B : B E R R { } ] C 1 B ]..XXX].E W @.( ) ) q.#X` t.#Xt.` ` $X$Xt.@Xe.` e.t.t.t.e.e.@X$X@X@.@.",
"@.@.t.#X#X$X#Xt.@X$X$X$X$X$X#X#Xt.t.e.e.+.t.@X#X+.E {.}.'.| }..X .Z C C I Z R R [ ] A B Z '.'.'.].'.R S j.k.` t.t.t.e.e.` e.#X$X#X` e.t.t.e.e.e.+.+.t.@X#X#X@.+.",
"+.@.t.#X$X@Xt.t.t.#Xt.e.#X$X#Xt.t.@Xt.t.y.@X@XX.E ] '.| E R |  X'.E E I P A E E ..R I P ..| [ R } o.=.) j.a.Q +.@X#X@.@.@X@X$X$X@X` ` e.t.e.` ` ~ ~ #X@X@X@X@.~ ",
"~ t.$X$Xt.~ e.@X#Xt.e.` t.$X#X#X#X$X#X@X#X@X@.A R } I B N C ..].| [ R A A [ [ A P A A ] { O.P C P ) h.k.w.] V Q @X#X#X#X$X$X#X$X#Xe.` ~ ~ ` ~ ~ ~ ~ @X#X@X#X@.~ ",
"+.t.#X@X@.! ~ t.$X$X$X#X$X#Xt.#X$X$X$X@XY X.O.R Z R I B 2 B [ '.[ A I [ [ A N 4 4 V E [ [ I B 4 6 h.j./ X.} [ A W #X$X$X$X$X#X$X$X#Xe.~ ! ` e.t.t.t.@.#X#X$X@X~ ",
"+.t.#X@Xt.t.~ @.$X$X$X#X#X#X#X$X$X@.@.+.L A ..A P I I G 5 N Z [ E P P [ [ Z N N N C R [ R P B q e h.,.B Z } | R E @.@.@.#X#Xy.#X$X$X@Xe.e.@X@X#X$X#X#X@X@X#X@X@.",
"+.t.$X$X$X$X$X#X$X#Xt.e.#X$X$X$Xy.W Y A P P P P Z R I P V 4 5 P P P P I R R E R A A ] A A C G F a a ) G J Z R { | [ I Y @.@.@.@X$X$X$X#X$X$X$X$X$X$X$X@X@X@X@.~ ",
"! +.@X$X#Xt.#X$X#X#Xt.e.#X$X$X$X+.B N V P P P A [ [ R P C C P P I A [ E I E L H L A A [ C 2 6 e i a i i , ; 2 G E A R E +.@X#X@.t.$X$X$X$X$X$X$X$X#Xt.@X#X` ~ Q ",
"~ @.#X$X@X@.@X#X#X#Xe.e.t.$X#Xe.W N 5 B P P P ] [ [ R I P A P A A I ] I A R ' 9 H G P R N O + @ e i a e +   @ 5 C V C R Y ! @.t.@X$X$X$X$X@X@X$X#X#X@X#X$X@X~ ~ ",
"+.t.$X$X#Xt.@.@X$Xt.` e.e.e.` Y D V N N P P C P P P P I P B B P I A P A A L ' s 9 w H P 4 o + .   e a a @   @ q V 5 N N 5 S K t.#X@X$X$X$X@.t.#X#X$X$X$X$X#X@.@.",
"+.e.#X#X@Xt.t.@X@X@Xt.+.@Xe.Y S 5 B N B C C C Z C B 5 V C V B C P V V C A A -.c s 0 L L 4 + @ +   + @ @ . . e , , 5 N N 2 2 S D W +.@X$X$Xt.t.$X$X$X#Xt.@X$X#X@.",
"~ +.@X@X@X@X$X#X@X#X#X@.#Xe.S 4 4 4 5 N C V B V V 5 4 N C C C C L ' C C A A ' c s V A A N 6 6 @ X   . + X + 6 @ ; N B N 2 4 2 - 5 Y +.$X$X#X@X#X$X#X@X~ ~ $X@X~ ",
"~ +.t.t.#X$X$X$X$X$X$X$Xt.W 4 2 2 - 1 4 N B N N N N C C C A Z C h x A A C L s 9 C A V A P N < ; : + + @ ; ; = - 5 N N 5 4 4 2 2 2 N W @.$X#X#X$X#X@X@X@X#X$X` ~ ",
"~ ~ e.e.t.#X#X$X$X$X$X@.Y S 2 2 2 1 1 4 N N N N N B V V N V C Z ' s V B B B 5 5 A B 5 C C N 3 2 5 2 3 3 4 4 > 4 N N 5 4 1 2 2 2 2 2 N Y @Xt.@X$X$X#X@X@X$X$X~ W ",
"~ ~ ~ ~ ` @Xt.@X$X$X@X~ S : 4 2 4 2 4 4 4 4 N N N N N N N 5 B C w 0 5 N N N N N C N 4 B B N N N N B N N N B N N N N 2 2 1 1 2 2 2 2 - S W ` @X#X$X$X#X#X$X$X~ ! ",
"@.~ ~ +.` ` t.#X#X$X@.W N 2 2 2 2 2 2 4 4 5 N N 5 5 5 5 5 N N N B N 5 N N N N N N N N N N N N N N N N N N N N N 4 2 > = - 2 2 2 > > > 2 5 ~ #X@X+.@.$X$X$X@X@X~ ",
"@.@.@.t.t.@X@X@Xt.#X! N 2 : 2 4 2 2 1 1 4 5 5 5 4 5 2 4 5 N N N B B B N N N N N N N B N N N N B N S 5 N N N 2 4 4 2 1 > 1 2 4 2 > : : : > ~ $X#X+.+.#X#X@.t.@.t.",
"! +.@X#X$X#X#Xt.t.t.Q > : : > 2 2 2 1 - 1 2 4 2 4 4 1 1 5 5 N N 5 5 N N N N 5 N N N N N B N N N N 5 2 N N 2 2 2 2 2 2 2 2 2 2 1 : : > > D ~ #X#X@.@.#X@.~ @.~ ~ ",
"W +.#X@X@X#X#X#X#X@XW 4 : : = : 2 2 2 1 = - 2 2 2 2 2 2 2 2 4 4 < = 2 4 5 N 5 5 4 4 N N N N 5 2 5 2 - - > 4 2 2 2 2 2 2 2 1 - = : > 5 U ~ t.t.#X#X#X$X@X@X$Xt.! ",
"! +.y.t.@X@Xt.@.@Xt.~ Y S > = = 1 1 1 1 - - 2 2 2 2 2 2 2 2 2 2 < < 1 2 4 4 4 4 1 2 4 4 5 5 2 2 - : - : > 2 4 2 2 2 1 - - - - = > S J Q t.@X#X#X$X#Xt.e.t.#X@X@.",
"@.@.e.t.@Xt.~ ~ ` ` e.t.W S 4 > 1 - - > 1 1 1 2 2 2 2 2 2 4 2 2 2 2 2 2 4 2 2 2 - 1 2 4 2 2 2 2 - - > 2 2 4 4 2 2 1 1 = = > 4 2 S W ! +.` @X$X$X$X@X+.~ ~ t.@.@.",
"+.e.#X#X#X@X@.~ t.e.e.t.t.` W J 4 - = - 1 - = - - > 1 1 2 2 2 4 4 2 4 1 1 2 2 2 1 1 2 2 2 2 2 2 2 2 2 2 4 2 = = - > 1 - = 4 C ! @.t.y.#X#X@X#X#X#X#X@Xe.@.@X@.~ ",
"~ e.@X@X#X$X#X@X#Xt.t.#X$X$X` Q Y J K G 5 6 < < - - - - > > > > 1 1 1 1 1 2 2 2 4 2 1 2 2 2 2 2 > 2 - - > > : ; , w s / S K e.#X$X$X$X$X$Xt.t.t.t.t.#X@Xt.@Xe.+.",
"~ ~ e.e.@X$X$X$X#X#X@X#X$X$X@Xt.t.#X#Xe.$.h h w q 5 3 3 q : : = = - - 1 2 1 2 2 2 1 - 1 2 2 2 1 = = ; : 1 6 q 0 p >.c.b.w.e.#X$X$X$X$X#X#Xt.t.t.~ ` #X$X$Xe.e.e.",
"! ~ +.t.t.@Xt.t.t.e.e.e.e.e.#X#X#X#X@Xr.f.L.R.U.L.N.b.x.<.w : = = = 1 1 2 1 - 1 - = - - - - - < ; , 6 w p %.x.N.L.).3X_.s.e.#X#X$X$X$X$X#Xe.+.e.! +.@X$X$Xt.! ! ",
"! ~ e.@Xt.~ ` e.` ` ` ` ` ` t.#X#X#Xt.u.M.1XeXeXyX7X7X7X`.N.>.8 w ' w 0 3 < = O O = = = < 6 0 w %.%.<.m.N.L.>X7X8XwXqX1Xs.e.e.e.t.#X$X$X$X@X@Xy.e.t.#X$X#X` ! W ",
"! +.+.@.t.~ ~ ~ ~ ~ ` ~ ` ~ ~ e.#X@X#X&XK.,XqXeXuXeXsXsXuXiX`.n 3.z.l g 9 8 # O o o o + 7 u v x./.>X7XyXuXpXuXuXuXyX0X-Xd.@.+.! t.#X$X$X$X$X$X$X$X#X$X$X#X~ ! ~ ",
"! ! @.@.t.e.~ ~ ~ ~ ` ~ e.t.` @X#X@X#X$XM.,XqXeXuXsXaXsXsX7XL.N.;.g m m k 7 8 9 $ + # & 7 j n m.8XyXuXiXdXfXdXpXpXuX0X-Xg.y.y.@X$X$X$X$X#X@X#X#X@.+.t.@X$X@Xe.~ ",
"+.+.@.@X$X@Xe.e.e.t.t.e.@X#X#X$X$X#X$X%XM.,XeXqXeXsXiXdXaXL.z.v.;.c S.V.1.k x b * $ & & r u :.v.).wXuXuXsXdXsXpXpXeXqX1Xd.y.#X$X$X$X$X#Xt.y.#X#Xe.! ! t.$X#Xt.@.",
"+.+.@.#X$X$Xt.e.@X#X$X$X#X#X$X$X$X#X#X%XM.,XeXeXeXtXaXdXwXN.z d 9.!.rXJ.9.V.8.;.* $ % & & y >.3.l.`.aXpXsXsXpXpXpXeXtX-Xs.t.$X@.#X$X$X@X+.@X$X$Xe.! ~ #X$Xe.~ @.",
"! +.@.@X#X$X$X@X` t.#X$X@Xt.$X@Xy.$X$X%XM.:XqXqXeXuXdXuX`.z.d t H.;XV.1.5.Q.9.g 7 $ $ $ & * v n ;.).pXsXpXsXsXpXpXtXqX1Xd.y.$X@X#X$X$X$X#X#X$X$X#Xt.#X$X$Xt.e.~ ",
"! +.@.y.#X$X$X@X` ` t.$X@Xt.#X@X@.$X@Xy.n.:XeXqXeXiXsX8XN.>.k f H.H.d $ c ^.V.7 8 * & $ & * t k 3.(.yXsXpXuXsXpXuXqXtX1Xg.#X$X@X@X$X$X$X$X$X$X$X#X#X$X$X#Xy.e.+.",
"! @.@X#X$X$X#X#X$X@Xt.#X#X#X#X$X#X@X+.0.f.,XqXeXeXaXsX>Xz.>.3.z 1.1.7 # x rXV.7 k u $ $ & * r j z.L.7XuXpXpXuXpXpXeXqX1Xg.y.$Xt.@.t.@X$X$X$X$X@Xt.t.#Xt.@X#Xt.e.",
"+.@.$X@X$X$X#X$X$X$X#X#Xt.#X#X$X$Xt.~ r.n.E.9XqXeXaXaX).v m :.z z f & # k !.V.f ;.j $ & & r & k z.N.).uXsXsXpXpXuXeX0X-Xs.e.t.e.+.e.t.t.@.y.#X#X#X#X#X#X$X#X@Xe.",
"+.t.#Xe.t.$X#X#X$X$X#Xe.t.#X$X$X#X@.~ r.n.E.6XqXeXpXaX(.b b m k f d * $ k W.V.z >.j & % & * * k z.m.(.uXsXdXdXaXuXeXtX-Xw.+.@.@.t.t.t.t.t.t.@X$X$X$X$X$X$X$X@X@.",
"e.e.e.` e.t.@X@X#Xe.` ` ` e.#X$X$X$X#Xy.f.R.6X9XaXdXsX(.b x b k k d * $ f W.B.k >.l % % & * r j 3.v.`.sXdXaXaXiXpXeX6X*Xs.o.$X#X#X$X#X$X$X$X$X$X$X$X$X@Xe.#Xt.@.",
"+.t.@Xe.e.e.e.t.e.e.e.e.~ _ t.$X$X$X$Xu.n.E.5XqXtXsXdX>X:.b m c c k 9 * c !.B.k :.j % % & * r j 3.m.>XsXdXaXaXaXaXeX9X*Xs.r.#X$X$X$X$X#Xt.@X#X$Xt.e.#Xe.~ e.+.@.",
"~ t.$X@Xt.t.t.e.e.e.#X#X` ` #X$X$X#X#X%XM.Y.5XqXqXeXdX>X;.;.;.m 2.1.f d 1.^.V.f :.g % % & & t k >.m.>XaXdXsXsXsXaXeX9X-Xs.e.y.$X$X$X$X#Xt.t.#X#Xe.+.t.@Xt.` +.@.",
"e.t.#X$X$X$X#X@X@Xe.+.~ ~ ~ $X$X@X@X#X%Xn.Y.2XqXeXaXaX_.:.k b 1.C.H.c d c rXC.g ;.j % % & & t j :.v.`.iXfXdXaXuXeXeX0X=Xg.#X#X#Xy.#X#X$X$X$X$X$X$X$X$X$X$Xt.@.@.",
"+.t.#X#X$X#X#X$X$X#Xt.t.t.#X$X$X#Xt.@X%Xn.T.2X0XeXtXaX_.:.k b m H.W.2.z 4.rXC.d v g & % & & t j b v.`.iXsXsXsXuXeXeX9X=Xd.@.y.#X#X#X@X@X#X#X#X#X$X#X#X$X$X#Xt.@.",
"+.@.$X#X@X@X#X#X$X$X$X$X$X$X$X$X#X+.@.u.n.Y.2X9XeXeXpX_.m k k M S.W.V.c 9.rXV.9 j u % % & r t g v v.`.uXaXaXdXuXeX9X5X*Xs.q.+.$X$Xt.t.e.e.e.t.t.t.t.+.#X$X@X@.@.",
"+.@.@X@X$X$X#X@X@X#X$X$X$X$X#X@Xt.t.@.q.<.G.2X6X0XqXtX(.c f f M Z.W.Q.2.M ;XB.d k u % % & * t g x v.`.uXdXsXeXeX0X5X2XY.w.e.@X$X#Xe.e.t.t.e.e.e.~ +.t.@X#X#Xe.~ ",
"+.@.@X#X#X@X@Xt.t.t.t.e.#X$X#Xt.t.#Xt.r.f.F.-X4X9XwXqXT.b g f n Z.W.~.4.M ;XV.d k 9 $ $ & 7 u d x v._.uXsXaXqXeXtX;XE.n.w.y.$X$X@X+.e.e.e.e.e.` ~ ` @X@X@X@X@.~ ",
"~ @.#X$Xt.+.e.t.#X#Xe.e.#X$X#X#X#X$X#Xu.f.P.E.-X5XqXtXT.b u d z Z.W.W.M M rXC.d f d % $ & * t d k z.(.uXpXuXeXeXtX-XP.f.s.#X#X$X@Xt.e.` ! ` ` ` ~ +.#X@X@X@X@.+.",
"+.t.#X@Xe.! ~ e.$X$X$X#X#X#X#X#X$X$X$X%Xf.D.E.-X4X9XtX(.;.d d z S.^.W.M 1.rXC.d f t % $ & * 7 d h z./.wXpXeX0X5X-XY.E.K.d.y.#X$X$X@Xe.! ~ +.e.t.t.t.@X@X#X$Xt.+.",
"+.t.#X#X@Xt.e.t.$X$X#X$X#X#X#X#X$X$X$Xy.<.m.E.<X<X,X6XE.:.g d n H.~.H.M M rXC.f d t % $ & & t d h z.L.6X0X9X6X,XY.P.E.K.i.t.t.#X$X$X@Xt.e.t.@X@X#X#X@X@X@X#X@X@.",
"~ @X#X$X$X$X#X$X$X@Xt.e.#X$X$X$X$X#X#X#X=.x.E.3X:XP.2XY.3.d d x Z.J.Z.z M rXS.d d 7 $ $ $ & * d h 3.P.1X2X2X2XY.N.Y.P.f.r.~ @.@X$X$X$X$X$X$X$X$X$X$X$X#Xt.@X@.~ ",
"~ ~ #X$X#Xt.#X$X#X@Xt.` @X$X$X#X#X@Xt.` t.f.G.E.-X-X,XU.3.k d z Z.S.5.z 2.rXH.k g 8 * $ * 7 t 9 h 6.D.~.P.Y.1XR.F.F.8.<.#X$X#X@.t.$X$X$X$X$X$X$X$X#Xt.@X@X@.~ ! ",
"~ ~ #X$X@X@.t.#X$X@Xe.@.@X#X#X@Xe.@Xt.t.#Xw.7.F.T.,XR.m.:.k f z l.Z.M z M !.Z.z g u & * * * 7 9 j 3.D.E.P.F.E.T.D.c.<.=.#X$X#X@.@X#X$X$X$X#X@X#X#X#Xt.$X$Xt.~ ! ",
"~ @X$X$X#Xt.@.#X$X@X` @.e.e.@.@.t.#X$X$X@XQ / 7.D.F.P.5.g l z z M Z.M k z Z.4.k g 8 * * * * 7 d j >.D.E.E.Y.F.m.c.x.-.X.t.e.~ #X$X@X$X$X$Xt.e.#X#X$X$X$X$X#X@X@.",
"~ @.$X#X@Xt.@X@X@X@Xt.~ @X#X@Xt.@X#X@Xt.@Xe.e.=.<.c.D.3.g g z z 2.l.m z z M M z f d t u t t t u j ;.7.F.F.F.D.6.%.=.0.~ @.#X#X#X@Xt.#X$X$Xt.t.#X$X$X#Xt.t.$X#X@.",
"~ @.@.@X@X@X$X#Xt.#X#Xt.#X$X$X@X@X$Xy.e.@X$X$XW *.<.7.>.d d j z M M n z z M n z f n M n n z u t g h :.6.6.6.f.-.( Q ~ +.y.$X$X@Xe.e.@X$X$X#X#X$X$X#X@X+.~ $X@X~ ",
"~ @.@.@X@X$X$X$X$X$X$X$Xt.~ $X#X#X$X$X@X@X@Xt.~ ~ +.T H u g f z m m z j k m z z d l.I.A.c.l.k 8 g k &.%.$.T q.e.@.#X#X@X@X@Xt.+.e.@X@X#X$X$X#X$X#X@X@.@X#X$X@.~ ",
"~ ~ @.~ t.$X#X#X$X$X#X#Xt.t.$X$X$X$X#X@X$X#Xt.e.@.@X! Y *.H *.=.0.=.$.L $.$.%.H / =.f.a.a.-.*.T 0.0.0.0._ ! t.#X$X$X#X#X$X@Xt.@.t.#Xt.t.@Xe.@X$X$X#X@X#X$X$X~ W ",
"~ ~ ~ ~ @.@X@X#X$X$X#X~ @X#X#X$X#X@X@X@X$X$X#Xt.@X$X@Xe.@.+.@.@.~ ~ ~ ! ! ~ Q W ! ! W W ! ~ @.@X#X$X#X@.@.#X$X$X#X#Xy.@X$X$X@Xe.@X$X@Xt.e.e.t.#X$X$X@X#X$X$X~ ! ",
"@.~ ~ ~ ~ ~ @.#X#X$X#X@X@.@X$X@X@.@.e.t.$X$X$X@X@X$X$X$X@X#X$X@.~ ~ $X$X#X@X#X$X#X@.! ~ +.~ t.#X#X#X#X@X@.@X#Xt.@.@.e.t.$X$X$X@X@X$X$X$X@X$X$Xt.+.@.$X$X$X@X@.~ ",
"! ~ ~ ~ e.~ t.~ @.~ @.@.@.@.@.~ @.+.@.e.e.t.t.@Xt.t.@X@Xt.t.t.t.~ ! @X~ ~ ~ @.#X@X~ ~ ~ e.e.+.+.@.~ @.@.@.@.e.+.+.e.t.t.t.t.t.@Xt.t.@Xt.t.t.t.t.! ! @.@.~ ~ ~ ~ ",
"W Q ! ~ @.e.~ ~ ! Q ~ ~ ~ ~ ~ ~ t.+.t.e.! ! ~ t.e.~ ~ ` ~ ~ ~ @.! ! ~ ! W ! ~ ~ ~ ~ ~ ~ +.e.+.! ! ! ! ! +.~ ~ +.e.+.@.+.! ! ~ @.@.~ ~ ~ ~ ~ e.e.! ! +.! W ! W W "
};
