/* XPM */
static char *__resized[] = {
/* columns rows colors chars-per-pixel */
"80 80 222 2 ",
"   c #0D0B0B",
".  c #120E0C",
"X  c #0E120B",
"o  c #161708",
"O  c #0F0F11",
"+  c #161412",
"@  c #1C1916",
"#  c #251815",
"$  c #261917",
"%  c #261B19",
"&  c #291B19",
"*  c #301E17",
"=  c #301F1D",
"-  c #1A2506",
";  c #1D2B07",
":  c #172209",
">  c #1B240B",
",  c #1E2C09",
"<  c #1F3007",
"1  c #1D2312",
"2  c #20290A",
"3  c #202E09",
"4  c #223409",
"5  c #29340F",
"6  c #263B0A",
"7  c #293E0B",
"8  c #272817",
"9  c #33221E",
"0  c #3B2E1A",
"q  c #2D3412",
"w  c #293615",
"e  c #363818",
"r  c #362420",
"t  c #3A2622",
"y  c #3D2B23",
"u  c #2E3826",
"i  c #3A3923",
"p  c #393A38",
"a  c #41391C",
"s  c #422E25",
"d  c #432F28",
"f  c #443126",
"g  c #463329",
"h  c #4B342B",
"j  c #463928",
"k  c #4E392C",
"l  c #51352E",
"z  c #533A2D",
"x  c #5B3F2E",
"c  c #4D3730",
"v  c #543631",
"b  c #543C31",
"n  c #5B3C32",
"m  c #5A3C38",
"M  c #2B430B",
"N  c #2E4A0C",
"B  c #314E0D",
"V  c #34540E",
"C  c #365A0F",
"Z  c #395D0F",
"A  c #2B4512",
"S  c #2C4C13",
"D  c #2C481B",
"F  c #334D12",
"G  c #384818",
"H  c #2F5217",
"J  c #345512",
"K  c #395412",
"L  c #375911",
"P  c #395C10",
"I  c #36561D",
"U  c #345C18",
"Y  c #3D630F",
"T  c #3F690C",
"R  c #3C6311",
"E  c #3F6812",
"W  c #36621A",
"Q  c #39651B",
"!  c #3D6D1D",
"~  c #3F711E",
"^  c #2E4324",
"/  c #364524",
"(  c #394B25",
")  c #3B5523",
"_  c #365822",
"`  c #3A4933",
"'  c #3E5334",
"]  c #3C6523",
"[  c #3F7220",
"{  c #41471A",
"}  c #41650C",
"|  c #426B0F",
" . c #46710F",
".. c #4A750E",
"X. c #4D7B0F",
"o. c #507E0F",
"O. c #426A11",
"+. c #406915",
"@. c #477617",
"#. c #4B7912",
"$. c #41751F",
"%. c #43791F",
"&. c #517E11",
"*. c #494828",
"=. c #54422A",
"-. c #445924",
";. c #455826",
":. c #51582B",
">. c #5B4334",
",. c #5A4736",
"<. c #425437",
"1. c #5B5636",
"2. c #634334",
"3. c #684536",
"4. c #644937",
"5. c #6C4936",
"6. c #63413B",
"7. c #634B3B",
"8. c #6B4B3A",
"9. c #724D3B",
"0. c #66543C",
"q. c #685A3C",
"w. c #74513C",
"e. c #7C543D",
"r. c #476724",
"t. c #436E22",
"y. c #536A2C",
"u. c #427620",
"i. c #4B7426",
"p. c #457C21",
"a. c #4A7D24",
"s. c #4F7A28",
"d. c #54782B",
"f. c #5B6333",
"g. c #5A7231",
"h. c #5E7932",
"j. c #6C623E",
"k. c #66693C",
"l. c #617D34",
"z. c #484B46",
"x. c #4E5748",
"c. c #664440",
"v. c #6C5342",
"b. c #6A5B46",
"n. c #745845",
"m. c #735B49",
"M. c #516148",
"N. c #756A42",
"B. c #776449",
"V. c #7D7246",
"C. c #7B6551",
"Z. c #83593F",
"A. c #845A41",
"S. c #8A5D43",
"D. c #845D51",
"F. c #8C6243",
"G. c #83664C",
"H. c #86694E",
"J. c #886A4F",
"K. c #916445",
"L. c #9A6A47",
"P. c #84754B",
"I. c #856B55",
"U. c #8C6D52",
"Y. c #91665C",
"T. c #8C7355",
"R. c #947455",
"E. c #95765C",
"W. c #95795C",
"Q. c #9A7B5B",
"!. c #A27149",
"~. c #947363",
"^. c #9B7264",
"/. c #967A64",
"(. c #9A7C65",
"). c #9A7E68",
"_. c #52820F",
"`. c #578A0F",
"'. c #568812",
"]. c #51891A",
"[. c #5D9111",
"{. c #619611",
"}. c #669D12",
"|. c #6BA411",
" X c #6EA912",
".X c #71AB11",
"XX c #75B213",
"oX c #79BA13",
"OX c #478022",
"+X c #498423",
"@X c #4C8A24",
"#X c #55832A",
"$X c #58872C",
"%X c #9C855A",
"&X c #9E875A",
"*X c #A4875E",
"=X c #9C8061",
"-X c #9C816B",
";X c #A38363",
":X c #A88662",
">X c #A58D62",
",X c #AC8A63",
"<X c #AA896A",
"1X c #B08D67",
"2X c #B18F6B",
"3X c #B3916D",
"4X c #A78B73",
"5X c #AE9077",
"6X c #B69472",
"7X c #B99674",
"8X c #BB9877",
"9X c #B6967C",
"0X c #BC9B7C",
"qX c #C09E7E",
"wX c #B69A80",
"eX c #BE9E81",
"rX c #BEA286",
"tX c #C09F82",
"yX c #C2A285",
"uX c #C5A689",
"iX c #C7A88B",
"pX c #C8A98C",
/* pixels */
"H W $.! ~ ~ ~ $.$.! ~ $.$.%.%.~ [ u.%.$.~ ! ~ p.u.~ %.%.[ ! ! ! ~ u.u.~ ~ p.$.! Q ! ~ ! ~ ~ ~ ~ $.~ ! $.u.u.u.[ ~ u.u.$.! ! ~ p.u.$.%.u.~ ! ! ~ ~ $.u.~ $.p.! J ",
"Q ! $.$.u.u.~ ~ ~ ~ ~ u.u.u.%.~ [ u.[ ~ ! ~ %.u.%.~ ~ ~ [ u.p.p.p.u.u.! ~ p.p.p.u.u.~ $.$.%.~ ~ ~ ~ ~ %.u.[ u.[ ~ u.~ ~ ~ ~ ~ %.$.~ ~ ~ ~ u.p.p.p.u.$.~ ~ p.~ ! ",
"p.%.$.%.OXp.~ ~ ~ $.%.OXp.p.p.u.[ u.[ ! ~ p.p.[ [ [ [ ! [ p.@X@X@XOX$.! $.p.@X@X@XOXu.p.OXp.~ ~ $.~ %.%.p.p.p.u.u.u.[ ~ ~ u.p.u.~ ~ ! ~ u.OX@X@X@XOX$.! $.p.%.%.",
"$.%.+X@X+XOXu.$.%.%.%.OX+X@X@X@X+XOX[ [ p.+X@X+XOXOXOX+X+X+X+X+X+X+XOXp.$.OXOXOXOX+X+X+X+XOXu.$.u.$.! W u.@X@X@X@XOXu.~ OXOX@X@XOXOX+X+XOXOX+X+X+X+X+Xu.$.+X%.! ",
"! $.a.OX+X@X+XOXOXp.p.OX@X@X@X@X+X+X+X+X@X@X@X@X@X+X@X@X@Xp.p.+Xp.p.+X+Xp.p.OX+XOXOXOXOX@X@XOXOX+XOX] H ] u.+X+X+X@XOX+X@X@X@X@X@X+X@X@X+Xp.p.a.p.p.@XOXp.OXp.$.",
"$.$.$.$.OX@X@X@X+X+XOX+X@X+Xp.p.+X@X@X@X@X@X@X@X@X@X@X+X+Xp.u.p.[ u.+X@X@Xp.OX@X@Xp.$.u.OX@X@X@X+X+X[ H D ] p.p.OX@X@X@X@X@X@X@X@X@X@X@XOXp.p.u.~ u.OX@X+Xp.$.u.",
"! ! $.p.p.OXp.p.p.u.u.u.u.p.+X+X+X+XOXu.u.p.OX+X+X@X@X@X+Xu.u.u.! [ OX@X@Xp.u.p.OXu.u.u.p.p.OXp.p.u.~ W ^ / p.@X@X+Xp.u.u.OXOX+X+X@X@X@X+Xp.u.p.! ~ a.@X@Xp.~ Q ",
"! $.$.p.%.$.$.u.[ [ ~ [ [ [ p.+X+X+Xp.p.p.u.u.%.OX@X+X@X@XOXOXOXu.u.+X@X+Xu.~ $.p.u.u.OXp.[ [ [ ~ ~ ~ ~ ^ ^ [ +X+XOXOXu.p.u.u.u.a.+X@X@X@XOXOXOXp.u.+X@X+Xu.! W ",
"! ~ %.OXp.~ ~ [ [ [ [ ~ [ ~ ! p.OXOX+X@X@Xp.u.~ $.@X@X@X@X@X@X@X+X+X+X@X+X~ ~ p.p.u.u.OXp.~ ~ ~ [ [ [ [ D D W u.+Xp.+X@X+Xp.[ ~ u.@X@X@X@X@X@X@X+X+X@X@X+X[ ! ! ",
"! ~ ~ p.p.u.~ [ ~ ~ ~ ~ u.p.[ OX+X+X@X@X@X+Xp.+X@X@X@X@X@XOX+X@Xp.u.p.+X@XOX+X@Xp.u.%.p.p.u.~ ~ ! [ [ [ H H ! p.+X+X@X@X@X@XOX+X+X@X@X@X+X+X@X+Xp.u.u.OX+XOXp.$.",
"~ ~ u.OX+XOX[ [ u.u.p.p.p.+X+X@X@X+X@X@X@X+X+X@X@X@X@X@X%.a.OX+Xu.Q [ p.@X+X+X@X+Xu.u.OX+X+Xu.[ [ u.p.[ ] W u.+X@X+X@X@X@X+X+X@X@X@X@X+Xp.p.OX+Xu.[ ~ p.@X+Xp.%.",
"%.$.u.@X@X@Xp.u.OX@X@X@X+X+X@X@X@XOX+X@Xp.OX@Xp.OX@X@XOX$.OX@X@Xu.! [ +X@X$.p.@X@Xp.u.@X@X@XOXu.OX@X@X@Xp.+X@X@X@XOX@X@Xp.OX+XOX+X@X@X+Xu.OX@X@X[ ! ~ OX@Xu.$.$.",
"~ ~ ~ OX@X@X@XOX[ u.+X@X+Xp.@X+Xp.+X@X@X+X@X@XOX@X@X@X@X+X@X@X@X+Xp.+X@X@Xp.a.+XOXp.u.OX@X@X@XOXu.p.OX@Xu.[ OXOXp.+X@X+X+X@X@XOX+X@X@X@X+X@X@X@X+Xp.+X@X@Xp.$.! ",
"! ~ p.%.+X@X@X+Xu.[ OX@Xp.p.+XOXp.@XOXp.@X@X@XOXOX@X@X@X@X@X@X@X+X+X@X+X+X+XOXOXp.u.u.p.+X@X@XOXu.~ p.@X] U u.p.p.@XOXp.@X@X@XOX+X@X@X@X@X@X@X+X+X+X@X@X+XOX%.$.",
"$.%.+X@X@X@X+X+X@XOXu.+X+X+X+X+X@XOXu.~ p.+X@Xp.$.p.OX@X+X@X@XOXp.p.a.p.p.+X@X@X+X+XOX@X@X@X+X+X@Xp.p.+XH D ~ @X@X+X[ ~ p.@X@Xu.u.p.+X@X+X@X@XOXu.a.+Xp.p.+XOXu.",
"~ %.@XOX@X@X+X+X@X@X+X+X+X+X+X@X+Xp.$.! u.a.p.$.$.u.p.p.p.p.OX@X+X+X+X[ Q @.@.Q ! u.@XOX@X@X+X@X@X@X+XOX' ' p.@X@Xp.[ [ [ p.OX[ [ u.p.p.u.+X+X+X+X+X+X+X@X@XOXu.",
"~ %.+Xp.p.@X+X+X@X@X+Xu.p.+X+X@X@Xp.u.u.u.u.p.u.p.p.p.p.p.p.OX@X+X+X@.@. ._...O.@.&.+X! %.@X+X+X+X@Xp.u.' z.+X@X@Xp.[ [ u.[ [ p.p.p.p.a.[ p.OX@X@X@X@X@X+X@XOX%.",
"$.p.u.~ $.p.p.OX+Xu.[ [ [ u.+X@X@X+XOXp.OXOX@X+X+X+X@X+X@X@X@X+Xa.p.&.}.XX.X|. XXX}.o.U Q %.%.a.+Xu.] ( ^ _ +X@X@X+XOXp.OX@X@X@X@X+X+X@X@X@X@X@X@X@X@X%.u.OXOXu.",
"$.%.OXu.$.u.p.p.p.u.u.u.[ [ p.@X@X@X+XOXp.a.+X@X@X@X@X@X+X+Xu.Q ].}.}..XXX|.}.|.oXXX}.[.@.R $.p.[ U / ` ( W %.@X@X@X+X+Xp.p.+X@X@X@X@X+XOX+X+X@XOXp.OXp.u.u.%.%.",
"~ p.@XOXp.p.p.p.u.u.p.+Xu.[ OX+X@X+X@X@Xp.p.OX@X@X@X@XOX! %.@.R {.oXXX X{.'.X.`.|. X XoX[.Z Q ~ [ _ ` z.] ~ %.@X@X+X@X+Xp.p.OX@X@X@X@X+Xu.OX+X+X%.~ p.OXp.$.$.%.",
"p.p.+X+X@X@X+X+X+Xu.[ [ [ u.@X+XOXOX+X@X@X@X@XOXa.+X@Xu.W ..{. X|.|.|.}._.C Z  .&._._.'.`._.L F ] M.x.) ] [ @X+XOX+X+X@X@X@X@XOX+X+X+X@X@X@X@X@X@X@X@X@X@Xp.p.$.",
"u.p.+X@X+X+X+X+X@X+Xp.p.u.+X@X@X+Xp.OX+X+XOXOX+X@XOX$.E @.{..XXX{. .} .. .C Z |  . .Y N | `.&.O.( x.M.u.~ +X@X@X+Xu.OX+X@XOXOX+X+X+X+Xp.+X+X+X+X+X+XOX@X@XOX%.%.",
"~ p.+X+X+X+X+X@X@X@X@X@X@X@X@X@X+Xu.u.OXp.$.$.@XOX%.!  .`.|. X}...B ; M E T |  . .| V 3 B _.|.'.^ ` <.p.@X@X@X@X+Xu.p.OXp.u.[ @X@Xp.p.u.[ u.p.p.p.%.u.+X@XOXp.$.",
"$.%.p.+X+X@X+Xp.OX+X@X@X@X@X+X+Xp.p.u.u.u.%.OXOX$.+.`.[.o.X.[.|.o.C V C P L Z Y | T Z N P _._.i.z.( F V Q %.+XOXp.p.u.u.[ u.+X@X+Xu.u.p.p.p.u.u.~ $.p.OX+X+Xp.$.",
"$.%.a.+X+XOXp.p.OX+Xp.u.+X@X+Xp.p.OXp.u.a.+Xp.+.E | o.#.R Y X.}._.T +.Z V Y R R +.} Z L | o.T ;.z./ M B R @.E $.p.OX%.%.%.OX+X@XOX[ [ u.u.u.~ [ ~ ~ +XOXOXOX%.~ ",
"~ p.+X@XOX~ [ OX+Xp.u.[ p.@X+X+X+X@X+X+X+X+Xp.L Y  .P B M V O.`.X.O.Y L Z | } P L Z Z Y  ...Z ( z.u 6 P #.#.V Q OX@X@X@X@X@X@X@X+Xu.[ ~ [ [ ~ ~ ~ ~ OX+XOX+X%.~ ",
"$.p.+XOX~ ~ ! p.@X@X@X+X+X+X+X+X@X@X@XOXP +.#.R Z R L B 4 B | _.O.Z L O.| C M 6 7 B P | O.Z N / z.u M L  .X.| P W OX@X@X@X@X@X@X@X+Xu.~ ~ ~ u.p.p.p.%.+X+X+XOX~ ",
"$.%.+X+XOXp.~ %.@X@X@X+X+X+X+X@X@X%.%.$.L Z O.P L L L B 7 7 Z | R L Z } | C N M M V Y | R L N / z.i w J T  .#.T Y %.%.%.+X+Xp.+X@X@XOXu.u.OX+X+X@X+X+XOXOX@XOX%.",
"~ %.@X@X@X@X+X@X@X+Xp.u.OX@X@X@XOXQ L P L L L J Z Z L L B 7 7 L L L L P R P R | Z Z } R L L N / p p ^ D J V Y  .#. .L L $.%.$.OX@X@X@X+X@X@X@X@X@X@X@XOXOXOX~ ~ ",
"~ %.OX@X+X%.+X@X+X+XOXu.+X@X@X@X$.S M B L L L R | | Y Z V V L L Z P | Y Z Y K G L Z P | V > 8 8 p p p u 1 , M V Z P R +.$.+X@Xp.p.@X@X@X@X+X@X@X@X+Xp.OX+X[ ~ ! ",
"~ $.+X@XOX%.%.@X+X+X[ u.p.@X+Xu.P A 7 B L L L } | | R P L L Z P L Z } Z Z Z { 0 G B J R M X + @ @ p p @ O X 1 A L B L Z U ! $.p.OX@X@X@X@XOX+X@X+X+XOX+X@Xp.~ ~ ",
"$.OX@X@X+XOX%.+X@Xp.[ u.u.u.[ U S N M M L L J V Z L L L L B M L L Z Z Z Z Z { s 0 0 G L 4 X O O O p p +   . @ 7 L 7 M M 7 M J p.@XOX@X@X@X%.%.+X+X@X@X@X@X@X%.%.",
"$.u.+X+XOXp.OXOXOXOXp.[ OXp.U A M N M N V V B V B B 7 B V B M Z L V B L Z C *.2.a e K Z 7 @ @ +   @ % X   + 8 8 3 A M M 4 6 M S Q $.OX@X@Xp.p.+X@X@X+Xp.OX@XOX%.",
"~ %.p.OXOXOX@X+Xp.@X+Xu.+Xu.A 6 4 4 7 M V V N V B 7 6 M L V V V { G V V Z C *.=.a B C Z G 8 @ +   X X . X @ 8 @ : M N M 4 4 4 < 6 W u.@X@X+X+X+X@X+XOX~ ~ @XOX~ ",
"~ $.p.p.OX@X@X@X@X@X@X@Xp.W 4 4 4 3 3 6 M N M M M M V V V L C V { =.Y L V V a 0 V C B C B 7 > > , 1 + @ > > > < 6 M M 6 6 6 4 4 4 6 Q p.@X+X+X@X@X%.OXOX@X@X[ ! ",
"~ ~ u.$.p.@XOX@X@X@X@Xp.U M 4 4 4 3 4 6 7 M M M M B B B M N V C a a B B N B 7 7 C N M V V M 4 4 6 5 5 3 6 6 < < M M M 6 4 4 4 4 4 4 M U OXp.OX@X@X@XOXOX@X@X[ W ",
"~ ~ ~ ~ u.OXp.OX@X@XOX~ A , 4 6 4 6 6 6 6 M M M M M M M M 7 N V e q 7 7 M M M M V M 4 N N M M M M N N M M N M M M M 4 4 , 4 4 4 4 4 ; M Q [ OX+X@X@X+X+X@X+X~ ! ",
"%.$.~ $.[ [ p.+X@X@X%.W A 4 4 4 4 4 4 4 4 M M M 7 7 7 7 7 M M M N 7 M M M M M M M M N M M M M M M M M M M M M M 6 4 ; ; , < 4 4 < , < 4 6 ! @Xp.~ %.@X@X@X+XOX~ ",
"%.$.$.p.OXp.p.OXOXOX! A 4 < < 6 4 4 4 3 4 M 7 M 6 M 4 4 7 M M M N N N M M M M M M M N M M M M N M M M M M M 4 M 6 4 ; ; 4 4 4 4 , ; , , < ! @X+X$.$.@XOX%.p.~ p.",
"! %.OX+X+X@X+Xp.p.p.W < , < < < 4 4 3 ; 4 4 4 4 4 6 3 3 6 7 M M 7 7 M M M M M M M M M N M M M N M 6 4 M 6 6 < 4 4 4 4 4 4 4 4 < , , , 6 S [ +X@X%.%.+Xp.~ %.%.~ ",
"Q $.@Xa.OX+X+X+X+XOXQ 6 < , > , 4 4 4 3 - ; 6 4 4 6 4 4 4 4 6 6 3 - 3 6 M M M M 4 7 M M M M 6 4 6 4 ; ; 4 4 4 4 4 4 4 3 4 3 ; - , < 7 U [ p.p.+X+X+X+XOXOX@Xp.! ",
"! $.p.p.p.OXp.%.p.OX~ J A < - , 3 3 4 3 ; ; 3 4 4 4 4 4 4 4 4 4 3 2 3 4 4 7 4 6 3 4 6 4 7 7 6 3 < < ; ; 4 4 4 4 4 4 3 ; ; 3 ; - < A H W [ +X+X+X@X+Xp.%.u.@XOX%.",
"%.$.u.p.OXp.~ ~ ~ u.u.p.W A 6 < 3 ; ; ; 3 3 3 4 4 4 4 4 4 4 6 4 4 4 4 4 4 4 6 4 ; 3 4 6 4 4 6 3 ; ; 4 4 4 4 4 4 4 4 3 - , < 6 4 A Q ! ~ [ +X+X@X@XOX$.~ ~ OX%.%.",
"~ %.+X@X+XOX%.$.p.~ u.OXOX[ W S 6 ; ; ; < ; - ; ; ; < 4 4 4 4 6 6 4 4 4 3 4 4 4 4 4 4 4 4 4 4 4 4 4 4 4 6 4 , , ; 3 3 ; - < J E %.p.OX+X+X+X+X+X+X+X+Xu.$.OX%.~ ",
"~ u.OXOX+X@XOXOX+Xp.p.OX@X@X[ Q U J H F 5 3 2 ; ; ; ; ; < < ; 4 3 3 3 3 3 4 4 4 4 4 4 4 4 4 4 4 3 4 ; ; < < - - , e a / D J [ +X@X@X@X@X+Xp.p.p.p.p.+X+Xp.OXu.~ ",
"$.~ u.u.OX@X@X@X+X+XOX+X@X@XOXp.p.+X+Xp.*.j j e w w 4 q 5 2 , - - ; ; 3 4 4 3 4 4 3 3 ; 4 3 4 3 - - - , , 8 w w i ,.m.B.y.p.@X@X+X@X@X@X+Xp.p.p.~ [ +X@X@Xu.u.u.",
"! ~ ~ p.OXp.OXp.p.u.[ u.u.p.+X+X+X+X%.i.k.I.W.T.I.V.B.b.1.i 2 , ; - 3 3 4 3 ; ; ; ; ; ; ; ; ; 2 , - 8 e i *.b.C.I.).<X=Xg.u.p.+X@X@X@X@X+Xp.u.p.! ~ a.@X@Xp.! Q ",
"! ! u.OXp.~ u.[ [ [ [ [ ~ [ p.OX@XOX%.s.P.<X0X0X5X5X4X4X/.C.,.u e e e q 3 - o - o - - - 2 8 q e *.=.x.B.C.I.-X4X5XwX8X>Xg.u.u.u.a.+X@X@X+XOXp.OXp.u.+X@X@X[ ! Q ",
"! $.$.%.p.~ ~ ~ ~ ~ [ ~ [ ~ ~ u.OXOXOX$XV.;X0X0X0X0XuXuXrXrX).c.>.>.k f 9 o X o o . X @ 9 y c b./.).4XwXtXtXtXeXeXeX7X*Xh.u.u.$.p.+X@X@X@X@X@X@X@XOX@X@X+X[ ! ~ ",
"! ! %.%.p.u.~ ~ ~ [ [ ~ u.p.u.OX+X+X@X@XP.;X0X0XrXuXrXuXiX4XI.n.>.z z b f * # # # + # % 9 g b C.5XwXwXrXpXpXuXtXtX9X8X*X$Xi.p.+X@X@X@X@X+XOX+X+Xp.$.p.+X+XOXu.u.",
"$.$.%.OX+X+Xu.[ u.p.p.u.OXOX+X@X@XOX@X#XV.;X8X8X0XuXrXuXeXI.7.2.n >.5.n g 9 & & # # & = 9 y >.m.(.9XtXtXuXpXtXtXtX0X8X*Xl.p.+X@X@X@X@X+Xa.p.+X+Xu.! ! p.@X+Xp.%.",
"$.$.$.@X@X@Xp.p.OX+X@X@X+X+X@X@X@XOX@X$XV.;X0X0X0X0XuXuX9XG.k 9 2.Z.Z.x t 9 & & $ # % & % t ,.7.7.).tXtXtXuXuXtXtXeXqX*Xg.u.@Xa.+X@X@XOX$.OX@X@Xu.! ~ +X@X$.$.$.",
"! $.%.OX+X@X@XOX[ u.+X@XOXp.@X+Xp.+X@X#XN.).8X0X0XrXuXwX).v.j h x 3.2.x z f 9 & $ $ & $ & = c v >.).tXuXuXtXuXtXtXqXqX>Xl.a.+X+X+X@X@X@X+X+X@X@X+Xp.+X@X@Xp.u.$.",
"! $.%.%.+X@X@X+Xu.[ OX@XOXp.@Xp.p.@XOXa.N.%X8X8X0XyXuX5XC.,.>.3.l s s x 8.>.y & & & & $ & = t c 7.~.9XuXtXtXuXtXtX0X7X>Xl.a.@X+X+X+X@X@X@X@X@X@X+X+X@X@X+X+Xu.~ ",
"! p.a.@X@X@X+X+X@XOXp.+X+X+X+X+X@XOX~ r.N.;X8X0X0XyXiX-Xc.,.v.w.s # & 2.A.4.s $ & $ & $ = = 9 d v.I.4XtXtXtXtXtXeX8X8X>Xl.a.@Xp.$.p.+X+X@X@X@XOXp.a.p.p.p.+Xp.p.",
"$.%.@XOX@X@X+X+X@X@X+Xp.+X+X+X@X@X%.~ i.N.Q.7X8X0X0XyX(.>.>.8.w.s # & 3.F.3.s & $ & $ & & = 9 h n.C./.wXuXuXtXtXtX0X7X*Xg.u.p.u.$.p.p.p.p.p.+X+X+X+X+X+X@X@Xp.u.",
"u.p.+Xu.p.@X+X+X@X+X+Xu.+X+X+X@X@X%.~ i.N.Q.3X7X0XqXyX~.>.z 4.w.h & * 5.K.3.y & & $ & & & = = h v.C./.wXuXiXiXyXeX0X7X*Xg.t.$.u.a.p.p.p.u.p.+X@X@X@X@X@X@X@XOX%.",
"u.u.p.[ u.p.p.+X+Xu.[ [ [ [ +X@X@X+X+Xa.N.E.3X7XyXiXuX/.b z 8.e.l & * 5.K.6.y & $ $ $ $ % = r h 7.m.).uXiXyXyXeXtX0X3X*Xg.@.@X@X+X@X+X@X@X@X@X@X@X@X@Xp.~ +XOX%.",
"$.u.p.u.u.u.u.p.p.u.u.p.[ [ +X+X@X@X+Xa.N.R.2X8XqXuXiX).>.c 8.Z.l * 9 Z.K.>.t & & & & # & = r d 7.C.-XuXiXyXyXyXtX0X7X%Xg.u.+X@X@X@X@X+X+XOX@X+Xp.u.OXp.%.u.u.%.",
"~ p.+X+Xp.p.p.p.u.u.p.+X[ [ +X+X@X+X@X#XN.Q.2X8X0X0XiX-X,.b 8.S.x s g Z.L.>.r & & # & & & = r h 7.m.).uXiXuXuXuXyX0X7X%Xg.u.OX@X@X@X@X+Xu.p.+X+Xp.~ p.OXp.[ ~ %.",
"u.p.+X@X@X@X+X+XOXu.[ $.! u.@X+XOXOX@X#XN.R.,X7X0XrXyX).>.c 7.S.2.y s Z.L.>.0 $ # & & # & & t g >.m./.uXpXiXrXyXqX9X7X*Xl.a.@X+X+X+X+X+X@X@X@X@X@X@X@X@X@Xp.%.%.",
"u.p.+X+X+X+X+X+X@X+Xp.p.p.OX@X@X+Xu.OX#XN.E.,X7X0X0XyX(.>.k 2.S.5.z l F.!.>.9 $ & & # & & = t f b m.).rXuXuXuX0X0X8X7X&Xl.u.a.+X+X+Xp.+X+X+X+X+X@X+XOX@X@X+X%.%.",
"$.%.@X+X+X+X+X@X@X@X@X@X@X@X@X@X+X%.u.s.N.R.,X7X8X8XtX(.>.g 2.S.e.3.5.L.!.=.9 & & & & % & r t f k m.).eXrXyXiXqX8X8X2X%Xg.t.$.@X@Xp.p.u.u.u.p.p.p.u.%.+X@XOXOX%.",
"$.%.OXOX+X@X+Xp.OX+X@X@X@X@X+X+Xp.p.%.t.1.H.,X6X7X0XqXW.b s x Z.e.2.m S.L.z 9 & & & & % & = t f k m.).eXiXuXqX9X8X2X,XR.y.u.OX@X+Xu.u.p.p.u.u.u.~ u.p.OXOX+X%.~ ",
"$.%.OX+X+XOXp.p.u.+Xp.u.+X@X+Xp.a.+Xu.i.q.H.*X1X6X8X0XE.b y b e.e.6.v S.L.n 9 # * & & # & 9 t d k n.(.eXuXyX8X0X8X1XQ.G.y.%.@X@Xa.$.~ u.p.u.[ [ ~ ~ +XOXOXOX%.~ ",
"~ p.+X@XOX$.u.p.+X+Xu.[ +X@X+X+X+X@X@Xs.N.J.Q.*X2X7X0XE.k s v 9.e.3.v S.L.l 9 & & # & & & r t d k v./.wXtXtX8X0X7X,XU.j.d.@X+X@XOX$.~ ~ ~ [ ~ [ ~ ~ +X+XOXOX%.~ ",
"$.p.+XOXu.~ ~ u.@X@X@X+X+X+X+X+X@X@X@X+Xk.G.Q.*X1X7X8X/.>.s h 8.9.3.v S.L.z 9 # # & & # & = 9 s j v.~.8XtX0X8X2X*XR.Q.P.h.a.@X@X@X+X%.~ ~ ~ u.p.%.%.%.OX+X+XOX~ ",
"$.%.+X+Xp.u.u.OX@X@X+X@X+X+X+X+X@X@X@Xs.1.B.(.:X:X;X7XW.>.d g 6.5.2.v Z.K.l 9 # & & & # & * t y j v.I.5X7X7X3X;XR.R.R.P.d.%.%.@X@X@Xa.%.u.p.OX+X+X@X+XOXOX@Xp.%.",
"~ OX@X@X@X@X@X+X@X+Xu.u.OX@X@X@X@X+X@Xp.;.b.W.<XQ.R.:XR.7.g g 2.3.n v n.F.k 9 & # & & & & & 9 s g 8.U.*X:X,X,XR.G.R.T.j.a.~ %.OX+X@X@X@X@X@X@X@X@X@X@X+X%.OX~ ~ ",
"~ ~ OX@X+Xp.+X@X+X+Xp.u.+X@X@X+Xp.+Xp.[ p.k.J.W.;X;X;XU.7.g s n 2.v v 9.e.k 9 & & & & & = r t t g 8.J.Q.T.R.>XW.J.J.w.1.s.@X+Xp.OX@X@X@X@X@X@X@X@X+X%.+X+XOX~ ! ",
"! %.+X@XOX$.OX+X+XOXp.$.p.@X+XOXp.OXp.p.+Xy.q.G.Q.*XQ.C.>.h h v n v l 6.5.g 9 * 9 * & = = = t y g 7.G.Q.U.H.Q.R.H.n.1.-.+X+XOX%.OX@X@X@X@XOXOX@X+X+XOX+X@X%.~ ~ ",
"%.%.@X@X+XOX%.OX@XOX~ %.u.u.%.%.p.+X@X@XOX+.*.q.G.G.U.v.g k b v l l h n n f 9 * * * * * & = 9 y j 4.G.Q.Q.R.J.B.n.q.:.! p.%.$.+X+XOX@X@X@Xp.%.+X+X@X@X@X@X@XOX~ ",
"~ %.+X+XOXp.OXOXOXOX%.$.OX+Xp.p.OX+Xp.p.a.p.u.-.1.n.G.8.f g l v l l l l l f s t r t t t t t 9 y f =.v.H.H.G.G.0.*.;.r.$.p.OX+X@XOXp.+X@X@Xp.p.+X@X@X+Xp.OX@XOXOX",
"~ %.OXOXOXOX@XOXp.@X@Xu.+X@X@X+X+X@Xp.p.OX@X+XQ -.1.q.,.s s g h l l l l l d b c.6.6.6.m m v s t f k >.0.0.q.k.:.I ! ! $.a.@X@X%.u.u.OX@X@X+X+X@X@X+XOX~ ~ @XOX~ ",
"~ %.%.p.+X@X@X@X@X@X@X@Xp.u.@X+XOX@X+X+XOXOXp.[ $.u.U G s s g h l h h g h s v.^.^.^.Y.D.n.8.g y f h *.*.*.I t.u.u.OX+XOX+XOXp.u.u.+XOX+X@X@X+X@X+XOXOXOX@X@X~ ! ",
"~ ~ $.$.p.+X+X@X@X@X@XOXu.p.@X@X@X@X+X+X@XOXp.u.%.%.$.I I G ;.;.-.-.G I G ;.:.b.k.b.k.f.f.:.-.I r.r.r.r.] ! p.+X@X@X@X+X+XOXp.%.p.+Xp.u.OXu.OX@X@X+XOXOX@X@X~ Q ",
"~ ~ ~ ~ u.p.p.+X@X@X+X%.p.+X@X@X+X+XOXOX@X@X+Xp.OX@XOXu.p.$.%.%.~ ~ ~ ! ! ~ Q W ! ! U Q ! ~ %.OX+X@X+Xp.p.OX@X@X@XOXa.OX@X@XOX%.+X+XOXu.u.p.OX+X@X@X+X+X@X+X~ Q ",
"%.~ ~ %.u.[ %.OX@X+X+X%.p.OX+XOXp.u.u.p.@X@X@XOX+X@X@X@Xa.+X+Xp.~ ~ @X@X+XOXOX@X+X%.! ~ $.$.p.OX+X+X+XOXp.OX+Xp.u.p.u.p.@X@X@XOX+X@X@X@XOX@X+XOX$.%.@X@X@X+XOX~ ",
"! ! ! ~ [ ~ p.%.~ ~ %.%.%.%.%.u.$.$.u.p.u.p.p.p.p.p.p.OXp.p.p.p.! ! OX%.~ ~ %.+XOX~ ~ ~ u.u.$.$.u.u.u.u.p.u.u.u.$.u.u.p.a.%.%.OXp.p.OXp.u.p.OXu.! ! %.%.~ ~ ~ ~ ",
"W ! ! ~ u.u.~ ~ ~ ! ! ~ ~ ~ ! ~ p.$.p.$.! ! $.u.u.$.~ [ $.~ $.%.! ! ~ ! W ! ~ ~ ~ ~ ~ ~ $.u.$.! ! ! ! ! $.~ ! $.u.$.%.u.! ! %.u.%.~ ~ ~ $.~ u.u.! ! ~ ! Q Q Q W "
};
