/* XPM */
static char *__resized[] = {
/* columns rows colors chars-per-pixel */
"80 80 222 2 ",
"   c #0C0808",
".  c #0D0C0B",
"X  c #120E0D",
"o  c #0E110A",
"O  c #141207",
"+  c #14140D",
"@  c #171B0A",
"#  c #110F10",
"$  c #1A1715",
"%  c #1C1B15",
"&  c #271A15",
"*  c #271917",
"=  c #271A18",
"-  c #291B19",
";  c #301E17",
":  c #301F1D",
">  c #1A2506",
",  c #1D2B07",
"<  c #1B250A",
"1  c #1E2C09",
"2  c #1F3007",
"3  c #1F2612",
"4  c #20290A",
"5  c #202E09",
"6  c #223409",
"7  c #29340F",
"8  c #263B0A",
"9  c #293E0B",
"0  c #292716",
"q  c #32211E",
"w  c #3B2D1B",
"e  c #2C3412",
"r  c #283812",
"t  c #363917",
"y  c #292B26",
"u  c #362420",
"i  c #3A2622",
"p  c #3D2B23",
"a  c #293023",
"s  c #393A21",
"d  c #363636",
"f  c #41391C",
"g  c #422E26",
"h  c #432F28",
"j  c #443226",
"k  c #473727",
"l  c #463228",
"z  c #49342A",
"x  c #4D392D",
"c  c #51352D",
"v  c #523A2E",
"b  c #5A3E2E",
"n  c #4C3A30",
"m  c #543C32",
"M  c #553835",
"N  c #5D3D34",
"B  c #603F3C",
"V  c #2B430B",
"C  c #2E4A0C",
"Z  c #314E0D",
"A  c #34540E",
"S  c #365A0F",
"D  c #395D0F",
"F  c #2B4611",
"G  c #2C4B13",
"H  c #2D471D",
"J  c #334C12",
"K  c #384818",
"L  c #2F5316",
"P  c #345512",
"I  c #395412",
"U  c #365911",
"Y  c #395C10",
"T  c #37571D",
"R  c #355D19",
"E  c #3C620E",
"W  c #3C6311",
"Q  c #3E6812",
"!  c #36631A",
"~  c #39651B",
"^  c #3D6D1D",
"/  c #3F711F",
"(  c #3B4B28",
")  c #3B5623",
"_  c #3A532B",
"`  c #3C4637",
"'  c #3D6722",
"]  c #3F7220",
"[  c #41471A",
"{  c #40650C",
"}  c #426B0F",
"|  c #46710E",
" . c #4A750E",
".. c #4D7B0E",
"X. c #507E0F",
"o. c #426A11",
"O. c #406A16",
"+. c #477617",
"@. c #4B7912",
"#. c #41751F",
"$. c #43791F",
"%. c #517E11",
"&. c #494828",
"*. c #504424",
"=. c #455926",
"-. c #515829",
";. c #414D3A",
":. c #5B4234",
">. c #584534",
",. c #5C493A",
"<. c #5B5636",
"1. c #634336",
"2. c #654936",
"3. c #67443A",
"4. c #644B3B",
"5. c #6C4D3B",
"6. c #704A3C",
"7. c #66543C",
"8. c #685A3C",
"9. c #79543D",
"0. c #7B543C",
"q. c #466626",
"w. c #436E22",
"e. c #536A2C",
"r. c #427620",
"t. c #4B7426",
"y. c #457C21",
"u. c #4A7D25",
"i. c #4D7929",
"p. c #54782B",
"a. c #486C31",
"s. c #586532",
"d. c #5A7231",
"f. c #5E7932",
"g. c #6C623E",
"h. c #67693C",
"j. c #617D34",
"k. c #444646",
"l. c #50554E",
"z. c #664441",
"x. c #764E40",
"c. c #6C5342",
"v. c #695944",
"b. c #775846",
"n. c #735B49",
"m. c #5C6059",
"M. c #756547",
"N. c #756A42",
"B. c #7A614D",
"V. c #7A7245",
"C. c #7B6551",
"Z. c #885C44",
"A. c #845D51",
"S. c #886044",
"D. c #83664C",
"F. c #86694E",
"G. c #886A4F",
"H. c #946549",
"J. c #84754B",
"K. c #856B55",
"L. c #8C6D52",
"P. c #91665C",
"I. c #8C7355",
"U. c #947455",
"Y. c #95765C",
"T. c #95795C",
"R. c #9A7B5B",
"E. c #A6714E",
"W. c #A8734E",
"Q. c #9D6E64",
"!. c #8F7964",
"~. c #947761",
"^. c #967A64",
"/. c #9A7C65",
"(. c #9A7E68",
"). c #A37768",
"_. c #53820F",
"`. c #588A0F",
"'. c #5E940F",
"]. c #4C841F",
"[. c #5D9111",
"{. c #619611",
"}. c #669D12",
"|. c #6BA411",
" X c #6EA912",
".X c #71AB11",
"XX c #75B213",
"oX c #79BA13",
"OX c #478022",
"+X c #498423",
"@X c #4C8A24",
"#X c #55832A",
"$X c #58872C",
"%X c #658732",
"&X c #9C855A",
"*X c #A4875E",
"=X c #9C8061",
"-X c #9D816B",
";X c #A38363",
":X c #A88662",
">X c #A58D62",
",X c #AC8A63",
"<X c #AA896A",
"1X c #B08D67",
"2X c #B18F6B",
"3X c #B3916D",
"4X c #A78B73",
"5X c #AE9077",
"6X c #B69472",
"7X c #B99674",
"8X c #BB9877",
"9X c #B6967C",
"0X c #BC9B7C",
"qX c #C09E7E",
"wX c #B69A80",
"eX c #BE9E81",
"rX c #BDA186",
"tX c #C09F82",
"yX c #C2A285",
"uX c #C5A689",
"iX c #C7A88B",
"pX c #C8A98C",
/* pixels */
"L ! #.^ ^ r.#.#.#.^ ^ #.#.#.$./ / r.#.#.^ ^ / y.$.#.y.#.] ^ ^ ^ r.r.r./ / $.#.^ ! ^ #.^ ^ #./ / #.^ ^ / ] r.#.#./ #.r.#.^ ^ / y.r.#.r.#./ ^ ^ ^ r.r.r./ #.r.^ R ",
"~ ^ #.#.r.r./ ^ / / / y.y.#.$./ ] ] r./ / / r./ / / / / ] r.r.y.y.r.#./ / y.y.y.r.r.#./ r.r./ / / / / #.! ' ] / / $.r./ / / #.#.r.^ / / ^ r.y.y.y.r.r.^ #.y.#.^ ",
"y.#.#.y.y.y.#.#.#.#.y.OXy.y.y.r.r.y.] ] / y.y.y.] ] / / r.OX@X@X@XOX#.^ / y.@X@X@Xy.r.y.y.y./ / / $.$.$.H H ] y.r.y.] ^ / y.y.y.r.] ^ ^ r.y.@X@X@Xy.#.^ #.y.y.#.",
"#.$.+X@X@Xy.r.r.$.#.#.OX+X@X@X@X+XOX] ] y.+X+X+XOXOXOXOX+Xy.+X+X+X+X+Xr.r.OX+XOX+X+X+X+X+X+Xr.r.y.$.$.$.T H +X@X+XOX] / y.+X@XOX+Xy.+X+X+X+X+X+X+X+X+Xy.r.y.$.#.",
"^ #.y.+X@X@X+Xy.OXy.y.OX@X@X@X+X+X@XOXOX+X@X@X@X@X@X@X@X+Xy.y.y.y.y.+X+Xy.+X+XOXOXy.+X+X+X@XOXOXOXy.y.OX] ' +X+X@X+XOXy.+X@X@X@X+X@X@X@X@Xy.u.y.y.y.@Xy.y.y.y.r.",
"#.#.#.#.y.@X@X@X+X+X+XOX@X+Xy.y.OX@X@X@X@X@X@X@X@X@X@X@X+Xy.y.r.] ] +X@X+Xy.+X@XOXy.r.] OX@X@X@X+X+XOXy.+X+Xy.y.OX@X@X@X@X@X@X@X@X@X@X@Xy.y.y.y.^ r.+X@X@Xy.r.r.",
"^ ^ #.y.y.y.y.y.y.y.r.r.y.y.+X@X+X+Xy.r.y.y.OX+X+X@X@X+X+Xy.#.y.^ ^ +X@X@Xy.#.r.y.y.r.y.OXy.y.y.y.y.] y.y.y.OX+X+X+Xy.y.y.y.OX+X@X@X@X@X+Xy.r.r.^ ^ y.@X@Xy.^ ~ ",
"^ #.#.y.y.#.r.r.] ] ] ] ^ / y.+X+XOXy.y.y.y.#.y.y.@X@X@X@X+Xy.+Xy.r.+X@X+Xr./ #.y.y.r.y.y.r.] ] / / ] ] ] ] y.+X+XOXy.y.r.y.r.y.y.@X+X@X@X+X+Xy.y.y.@X@X@Xr.^ R ",
"^ / y.y.y./ ] ] ] ^ ] ^ ] / ^ y.+XOX+X@X@XOX#./ $.+X@X@X@X@X@X@X+X+X@X@X+X] r.OXy.y.r.y.y.] ] ] ] ] ] ] ] ] ] y.+XOX+X@X@Xy.] ] y.+X@X@X@X@X@X@X+XOX@X@X+X^ ^ ^ ",
"^ / #.y.y.] ] ] ^ ] ] ] r.y.] OX+XOX+X@X@X+Xy.+X+X@X@X@X+X+X+X+Xy.r.r.+X+XOX+X+Xy.y.r.y.y.y.] ^ ] ] ] ] ] y.] OX+XOX@X@X@X@XOX+X@X@X@X@X+X+X+X+Xy.r.y.+X+X+Xy.#.",
"^ / r.y.OXOX] ] r.y.y.y.y.OX+X@X@X+X@X@X@X+X+X@X@X@X@X@X$.u.+X+Xr.' ] y.@X+X+X@XOXy.r.y.@XOX] ] ] y.y.] y.OX+X@X@X+X@X@X@X+X+X@X@X@X@X+Xy.y.+X@X] ~ ^ y.@X+Xy.#.",
"$.#.y.@X@X@Xy.y.+X+X@X@X+X+X@X@X@XOX@X@Xy.OX@Xy.+X@X@X+X#.].@X@Xr.~ ] +X@Xr.y.+X@Xy.r.@X@X@Xy.y.OX+X@X@X+XOX@X@X@XOX+X@Xy.OX@Xy.+X@X@X+Xr.y.@X@Xr.] / +X@Xr.#.#.",
"^ / #.y.@X@X@XOX] y.+X@XOXy.@X+Xy.@X+X+X+X@X@X+X+X@X@X@X+X@X@X@X+Xy.+X@X@Xy.y.+XOXy.y.y.@X@X@XOXr.y.+X@X] ! y.OXy.@X@X+X+X@X@XOX+X@X@X@X+X@X@X@X+XOX+X@X@Xr.#.#.",
"^ #.y.OX+X@X@X+Xr.r.y.@XOXy.+XOXy.+X+Xy.@X@X@X+X+X@X@X@X@X@X@X@X+X@X@X@X+X+X+X+Xy.y.y.y.+X@X@X+X] / ] i.T T y.y.y.+XOXy.@X@X@XOX+X+X@X@X@X@X@X+X+X+X@X@X+X+Xr.#.",
"#.y.+X+X@X@X+X+X@Xy.y.@XOXOXOX@X+X+X#.^ r.@X@Xr.r.y.y.@X@X@X@Xy.y.y.OXy.y.@X@X@X+XOX+X+X@X@X+X+X@X+X' ` _ ~ y.@X@XOX] ] y.@X@Xy.r.y.+X+X+X@X@XOXy.y.u.OXy.+Xy.#.",
"/ $.+X+X@X@X+X+X@X@X+XOX+X+X+X@X@Xy.#.w.r.y.y.r.r.r.y.y.$.y.+X+X+XOX+X^ ~ +.O.O.~ y.+X+X+X@X+X+X@Xa._ _ ' y.+X@X@Xy.] ] ] y.y.] ] y.y.y.y.OX+X+X+XOX+X+X@X@X+Xy.",
"/ $.+Xy.y.@X+X+X+X@X+Xy.y.OX+X@X@Xy.r.r.r.y.r.r.y.y.y.y.r.y.+X@X+X@X$.+.| X. .} +.$.].^ / @X+X+Xi.l._ ' $.OX@X@X@X$.#.$./ y.] y.y.y.y.y.r.y.+X@X@X+X@X@X@X@Xy.#.",
"$.$.r./ #.y.y.+X+Xr.] ] ] r.+X@X@X+Xy.y.y.+X+X@X+X@X@X+X@X@X@X@Xu.+.%.}.XX X X XXX|...R ! y.y.] ' ` ` ' / $.+X@X@X+X+X$.OX+X@X+X@X@X+X@X@X@X@X@X@X@X@Xy.r.+Xy.y.",
"#.y.y.r.r.r.y.y.y.r.r.y.] ] y.@X@X@X@X+Xy.y.+X@X@X@X@X@X+X+X#.R ].}.}..XXX X}.|.oXXX}.[.@.! / w._ _ ' OX/ / y.@X@X@X+X+Xy.OX+X@X@X@X@X+Xy.+X+X+Xy.y.OXy.r.r.r.$.",
"^ y.@X+Xy.y.y.r.r.y.y.OXr.] OX+X@X+X+X@Xy.y.+X@X@X@X@Xy.#.$.#.{ {.oXXX X{._._._.|..X XoX[.D ^ ) ;._ ' OX#./ OX@X@X+X@X+Xy.y.OX+X@X@X@X+Xy.y.+X@Xy.#.y.y.r.#.#.$.",
"y.y.y.@X@X@X+Xy.+Xr.] ] ] r.@X+X+Xy.+X@X@X@X@X+X+X+X@Xr.R @.[. X.X X X}._.A D | X._.X._.`._.A ( l._ ! / / / @X+XOXOX+X@X@X@X@X+XOX+X+X@X@X@X@X@X@X@X@X@X+Xy.$.$.",
"#.y.+X@X@X+X+X@X+X+Xy.y.y.+X@X@X+Xy.+X+X+X+Xy.+X@X$.#.O.+.'..XXX[.| { | | S E } | | E A } `. .e.m._ R y.OX+X@X@X+Xy.OX+X+XOXy.+X+X+X+Xy.+X+X+X+X+X@X+X@X@X+X$.$.",
"#.y.@X+Xy.+X+X@X@X@X@X@X@X@X@X@X+Xr.r.y.y.r.r.+X+X$.^ | `. X X}. .Z , C E } } | | } A 5 C _.[.%Xm.` R y.+X@X@X@X+Xr.y.y.y.r.y.+X@Xy.y.y.] y.y.y.y.#.r.+X@Xy.y.$.",
"#.$.y.+X@X@X+Xy.OX+X@X@X@X@X+Xu.y.y.r.r.r.y.y.+X#.O.`.[...X.'. XX.S A A D S E E } { D C S _...e.m.a.A P ! $.+XOXy.y.r.r.] y.+X@X+X] ] r.y.y.] y./ #.y.+X+X+Xy.#.",
"#.$.y.@X+XOXOXy.y.y.y.y.+X@X+Xy.y.OXy.y.y.+Xy.#.{ } X...Q E  .}._.E O.D A D W W O.{ D U o...E =.l.( F Z Q +.Q / y.OXy.r.y.+X@X@X+X] ] r.y.] ] ] / / OXOXOXOX$./ ",
"^ y.@X@Xy./ ] OX+XOXy.] y.@X+X+X+X@X+X+Xu.+Xy.Y D | Y Z V Z o.`...} E D D } } D Y U D { |  .S ( k.d ( Y @.@.A ! y.@X@X+X@X@X@X@X+X] ] ] / ] / / / / +X+XOX+X$./ ",
"#.y.+Xy.$.^ ^ y.@X@X+X+X@X+Xy.+X@X@X@Xy.W O.+.{ D Y Y C 6 Z o._.} D Y } } D V 8 8 Z D } o.D Z r d k.` J Q ..| E ! +X@X@X@X@X+X+X@X+X] ^ ^ ] y.y.y.y.OXOX+X+Xy./ ",
"#.y.+X+XOXy./ y.@X@X@X+X@X+X+X@X@X$.$.#.P D o.Y D U Y Z 9 V D } E P U } } A C V V A { } Q P C r 0 k.l.( Y |  .Q E +.$.y.+X+Xy.+X@X@XOXy.y.y.OXOX+X+X+XOX+X+X].$.",
"#.y.+X@X@X@X@X+X@X+Xy.y.y.@X@X@X$.~ R D U U U A U { Y P A 8 9 U U U U Y { D E Q D D { E R P J 8 3 ` l.k._ A E |  .| D R r.y.r.+X@X@X+X@X@X@X@X@X@X@X@X+Xy.OX/ / ",
"^ #.+X@X+Xy.+X@X+XOXy.r.OX@X@X@X#.J V Z U U U W o.{ W Y A A A U U D } E Y Q [ K I D D } A 6 e % # y k.k.a 3 6 Z { D D O.$.y.+Xy.OX@X@X@X@X@X@X@X@X+Xy.OX+Xy./ ^ ",
"^ $.+X@X+X$.OX+X+XOXy.r.y.+X+Xr.! V 9 Z A U U { } } { Y U A U D D D } Y D { K w K J P E V @ % $ # $ d d % . % r P Z U D R ^ $.y.OX@X@X@X@XOXOX+X@XOXy.@X+Xy./ / ",
"#.y.@X@X+X$.$.OX@Xy.] y.y.r.] R F Z V V D P A U U U U U U Z Z U Y D A D D D [ f w t K P V o $ #   # y d % . % r Z 9 V V 9 9 P y.+XOX@X@X@X$.y.+X+X@X@X@X@X+XOX$.",
"/ y.+X+XOXy.OXOXOXOXy.] y.y.R F V C V V A A A A A V 9 Z A Z Z A U A Z A D S -.b f t I D 8 + % $   . $ % # # 0 0 3 F V V 8 8 F C ! #.+X@X@Xy.y.+X@X@X+Xy.y.@X+X$.",
"/ r.OXOXOXOX@X+Xy.+X+Xy.+Xr.F 8 6 8 8 V A Z C Z Z V 8 V A A A A [ K A A S D *.b f Z S D F 0 0 $ . . # . o + % % < F C V 2 8 2 2 9 R #.+X@X+XOX@X@X+XOX/ ] +XOX/ ",
"^ #.y.y.OX@X@X@X@X@X@X@Xy.! 6 6 6 , 2 9 V C V V V V A A A D S A *.*.D S I I t t A S A S A V 4 < 1 @ $ $ < < < 2 2 V V V 8 6 8 2 6 V ! $.@X@X+X@X+XOXOXOX+X@Xy.^ ",
"/ / r.] y.@X+X+X@X@X@Xy.R V 6 6 6 5 6 8 V V V V V Z Z Z V C Z S f f Z Z C C 9 9 A Z 9 A A V 7 6 8 r 1 r r 8 1 2 F V V 2 2 6 6 8 6 6 V ! OXy.y.@X@X+XOXOX@X@X] ! ",
"/ / / / y.y.y.OX@X@XOX/ F 1 6 8 6 8 8 8 9 9 V V V V V V 9 9 C A t e 9 V 9 V V V A V 8 C C V V V V C C V V V V V V V 6 2 2 6 6 6 6 6 1 V ! / OX+X@X@XOX+X@X@X/ ^ ",
"$.#./ #.] ] y.+X@X@Xy.R V 6 6 6 6 6 6 6 6 9 V V 9 9 9 9 9 V V C C 9 V V V V V V C V V V V V V V V V V V V V V V 9 6 1 , 1 2 6 6 5 2 2 2 8 / @Xy.#.$.@X@X@XOXOX/ ",
"#.y.y.y.OXy.OXOXOXOX^ V 6 2 6 6 6 6 6 5 8 9 V 9 9 9 6 6 9 V V V C C V V V V V V V V C V V V V V V V V V V V 2 V 6 6 5 2 1 6 8 6 2 1 1 < 6 ^ @X+X#.#.@X+X$.$.y.$.",
"^ #.OXOX+X@XOXy.y.y.~ 2 1 1 2 6 6 6 5 , 6 6 6 6 6 9 5 5 9 9 9 V 9 9 V V V V V V V V V V V V V C V 8 8 9 V 8 6 2 6 6 6 6 6 6 6 1 1 1 2 6 G / +X@X$.$.+X$./ y./ / ",
"~ #.+X+Xy.+X+X+X+XOX! 8 2 1 , 1 6 6 6 5 > , 8 6 6 8 2 2 6 6 8 8 5 > 5 8 V V V V 6 8 V V C V 8 6 9 5 1 , 6 6 6 6 6 6 6 5 6 5 , > 1 6 r L / y.OXOX+X+X@XOXOX@Xy.^ ",
"^ #.y.y.y.+Xy.y.y.y./ R F 1 < 1 5 5 5 5 , , 6 6 6 6 8 6 6 6 6 6 5 4 5 6 6 9 6 8 6 6 8 6 9 9 6 6 2 1 , 1 6 6 8 6 8 6 5 , , 5 , > 2 F L ~ y.+X+X+X+X+Xy.r.y.@XOX/ ",
"$.#.#.y.y.y./ ^ / ] y.y.! G 8 1 6 , , 2 6 5 5 5 2 8 8 2 6 6 8 6 6 6 6 6 6 6 8 6 , 6 6 6 6 6 6 6 , , 5 8 6 6 6 6 6 6 5 > , 2 9 6 F ! ^ ^ ] OX@X@X@XOX#./ / y.y.$.",
"/ y.+X@X@XOXr.r.y.r.r.y.y.] ! G 8 , > , 2 , > , , , 2 2 6 6 6 8 8 6 6 5 5 6 6 6 6 6 6 6 6 6 6 6 5 6 6 6 8 6 , , , , 5 , > 8 L Q y.y.+X+XOXOX+X+X+X+XOXy./ OX$./ ",
"^ r.+Xy.+X@X+XOXOXy.y.OX@X@X] ~ R L P J 8 4 4 4 , , , , 2 2 2 2 5 6 5 5 5 6 6 6 6 6 6 6 6 6 6 6 5 6 2 , 6 1 > < 0 e s ( F L r.+X@X@X@X@X+Xu.y.y.y.y.@X+Xy.y.y./ ",
"#./ r.r.OX@X@X@X+XOX+X+X@X+XOXy.y.OX+Xt.&.k k t r t r 7 r 1 < < , , 4 5 6 6 6 6 6 5 5 5 5 6 6 5 > > , 1 4 5 7 e s ,.b.M.e.r.@X@X@X@X@X@X+Xy.y.y./ ] +X@X+Xy.] y.",
"^ / r.y.y.y.y.y.y.r.] y.y.y.OX@X+X+X].r.h.K.T.I.C.V.M.v.<.s 1 1 > > 5 6 6 5 5 , , , , , , 4 5 4 > < 4 s s ;.v.C.K.^.<X&Xd.w.y.+X+X@X@X@X+Xy.r.r.^ ^ y.@X@Xy.^ ~ ",
"^ ^ r.OXy.#.#.r.] ] ] ] ^ ] y.+X@XOX$.i.J.<X0XwX9X5X4X4X^.C.,.q e e 4 4 > @ @ @ @ > @ > 4 4 e t &.>.<.n.C.I.-X4X5X9X8X>Xd.r.r.y.y.@X+X@X@Xy.+Xy.y.y.+X@X@Xy.~ ~ ",
"^ ^ $.$.y./ / / ] / ] / ] / ^ y.OXOX].$XV.>X8XeX0XeXyXyXrXuX^.n z z * X X O O O O O O $ 0 p n v.!.-X4XwXtXtXtXeXeXwX7X*Xf.t.#./ y.+X@X@X@X@X@X@X@X+X@X@X+X/ ^ ^ ",
"^ #.$.$.y.r./ ^ ^ ] r.^ r.y.y.y.+X+X+X@XV.;X8X0XeXiXyXiXuX4XK.c.1.z - * * * * & $ $ & = u z M C.5XwXwXrXiXpXuXtXtX0X7X*Xj.y.y.].@X@X@X@X+X+X+X+Xy.#.y.y.@XOXy.] ",
"#.#.$.y.+X+Xr.r.r.y.y.y.y.OXOX@X@X+X+X$XV.;X0X0XrXyXyXiXtXK.4.2.1.z : : - : - - * * - - u h N n.^.9XyXeXuXiXtXuXtX0X8X>Xj.y.+X@X@X@X@X+Xy.y.+X@Xr.~ ^ y.@XOXy.$.",
"#.#.r.@X@X@Xy.y.+X+X@X@X+XOX@X@X@XOX+X$XV.<X9X0X0XeXyXiX9XB.b f b N g : * * * - * * = = - u ,.4.4./.yXyXuXpXtXtXtX0XqX*Xd.y.+XOX+X@X@X+X#.y.@X@Xr.^ r.+X@X$./ #.",
"^ #.#.y.@X@X@Xy.] y.+X@XOXOX@XOX$.@X@X#XV.=X7X8X0X0XuX0X(.c.v 1.0.0.b q * * * * * * - * - u z M :./.tXuXtXtXtXtXtXqX0X>Xf.u.@X+X+X@X@X@X+X+X@X@X+Xy.+X@X@Xy./ / ",
"~ #.y.y.+X@X@X+Xr.] y.@XOXy.+XOX$.@X].t.N.=X8X8X0XyXuX5XC.>.2.S.S.0.:.i - * - - - - * * - : i z 4.~.wXuXuXtXuXtXtX0X8X>Xj.+X@Xu.+X+X@X@X@X@X@X@X+X@X@X@X+X+Xy.^ ",
"#.$.y.@X@X@X+X+X@Xy.y.@X+Xy.+X@X@X+X#.q.N./.0X0X0XyXuX-Xz.,.b.E.6.l x i * - * - - * - * - : : z c.K.4XeXtXtXtXtXeX0X7X>Xj.u.@Xy.#.y.+X+X@X@X@XOXy.y.OXy.u.+Xy.y.",
"#.y.@X+X@X@X+X+X@X@X+X+XOX+X+X@X@X$./ t.N.R.6X0X0XtXuX^.>.>.b.H.v u l i * * - * - - * - - u : z c.C.(.wXuXuXtXtXeX0X7X*Xd.r.y.] r.y.y.y.y.y.+X+X+Xu.+X+X@X+XOXy.",
"] y.+Xr.y.@X+X+X+X@X+Xy.y.OX@X@X@X$./ t.N.R.3X7X0XtXyX~.v v 2.0.g ; h q - - - - * - * * - : : z c.B.^.eXiXiXiXyXeX0X7X*Xe.#.$.$.r.y.u.y.y.y.+X@X@X+X@X@X@X@XOX$.",
"r.r.y.] r.y.y.y.+Xy.] ] ] r.+X@X@X+X+Xu.N.T.2X7XyXuXuX~.>.b 2.0.j : l i - = - - - * - * - : u z 4.B.(.yXiXyXyXqXtX0X3X*Xd.$.@X@X+X@X+X@X@X@X@X@X@X@X@Xy./ +XOX$.",
"] y.OXr.r.y.y.y.y.r.r.y.] ] y.@X@X@X+X#XN.R.1X7XqXuXiX(.>.v 5.0.z q j i - - * - * - = * - : u l ,.B.-XyXiXyXyXyXyX0X6X&Xd.t.+X@X@X@X@X@Xy.OX+X+XOXy.OXy.] y.y./ ",
"^ y.@Xy.y.y.y.y.r.r.y.OXr.r.y.@X@X+X].#XN.T.2X8X0X0XiX-X:.m 5.S.b q g q * * - * - = - = - : u z ,.B.-XuXuXuXuXuXyX0X6X*Xd.#.u.@X@X@X@X+Xy.y.+X+Xy./ y.OXy./ / $.",
"y.y.OX+X@X+X+XOXy.r.r.r.] y.+X+Xy.+X+X#XN.Y.2X7X0XtXuX/.:.x 5.H.6.h h u * - * - = = - - - - i l :.n.(.yXpXuXyXrXqX0X7X*Xf.+X@X+X+X+X+X@X@X@X@X@X@X@X@X@X@XOX$.$.",
"r.y.+X@X@X@X+X@X@X+Xy.y.r.y.@X@X+Xy.].i.N.U.,X6X0XqXtX/.:.z 5.E.6.l g : * * * * = = - - - - i l m n.(.rXuXuXuXrX0X0X3X*Xf.$.y.+X+X+X+Xy.+X+X+X+X+X+X+X@X@XOX$.$.",
"#.y.@X+XOXOX+X@X@X@X@X@X@X@X@X@X+X$.$.i.N.U.,X6X8X8XtX/.:.l 6.W.0.c p : * * = = = = = = - u p g x n.(.eXyXyXuXrX8X6X2XR.d.w.$.@X+Xy.y.y.r.r.y.y.y.y.#.+X@X+X$.$.",
"#.$.y.+X@X@XOXy.u.+X@X@X@X@X+X+Xy.$.$.w.<.F.,X6X7X0XqX~.b j 2.W.H.3.g ; - - = = = = = = - u i j n n.(.eXiXyXqX0X8X2X:XU.e.r.+X@X+X] r.r.y.y.r.r.^ #.y.OX+X+X$./ ",
"#.$.+X+X+X+Xy.y.y.OXy.y.+X@X+Xy.y.+X] y.g.G.*X1X6X8XqXY.m p 1.E.H.6.g : * * - - * - * - - u i h x n./.eXuXyX8X0X8X1XR.D.e.$.@X@Xy.#.#.w.r.r.] / / ] +XOXOXOX$./ ",
"/ $.+X@Xy./ y.y.OXOXy.] y.+X+X+X#X@X+Xp.g.G.R.*X2X8X0XY.x p 1.H.Z.1.g ; * - * - - * * - - u i g x c.^.0XeXeX0X0X6X,XL.g.p.@X+X@X+Xr.#.#./ / / ] / / +X+XOXOX$./ ",
"/ y.+XOXr.^ ^ y.@X@X+X+X@X+Xy.+X@X@X@X#Xg.C.R.:X1X6X0X^.>.g :.H.Z.B h : * - - * - * * - - : q g z c.~.9XtX0X9X3X*XU.R.J.f.u.@X@X@X+Xr.#./ / y.y.$.y.y.OX+X@Xy.$.",
"#.y.+X+Xy.y.] y.@X@X@X+X@X+X+X+X@X@X@X@X<.M./.:X:X*X3XR.:.g v H.Z.B l : * - * - * - * * - ; q g z 7.K.6X6X6X2X*XU.U.U.J.p.r.y.@X@X@Xy.y.y.y.OXOX+X+X+XOXOX+XOX/ ",
"/ OX@X@X@X@X+X@X@XOXy.r.OX@X@X@X@XOX+Xy.=.M.R.>X&XU.*XY.4.h m Z.Z.N g : = - - - - - - - - : i g l 5.L.*X,X,X,XU.C.R.G.g.t./ #.+X+X@X@X@X@X@X@X@X@X@X@X+XOXOX/ / ",
"/ / OX@X+Xy.+X@XOX+Xy.y.OX@X@X@XOXOXy.] r.h.G.T.R.).:XL.4.h c b.x.N l u : : : - : - - - - : q i k 5.G.R.U.L.,XT.J.F.9.<.u.@X+X$.OX@X@X@X@X+X@X@X@X+XOXOXOX$./ ^ ",
"^ / +X@XOX$.OX+X@XOXy./ OX+X@XOXy.OXy.y.+Xe.8.D.R.;XR.C.:.z b 6.6.N l i : - : - : - - : : : u i l 4.D.R.I.G.R.U.F.9.,.=.+X@Xy.y.OX+X@X@X@XOXOX+X@X+XOX+X@Xy./ ^ ",
"$.OX@X@X+Xy.$.OX@XOX/ $./ y./ $.y.+X@X@XOX~ &.8.D.G.L.c.l z 1.x.6.N l i ; : ; - ; ; ; ; ; : u g k ,.D.R.R.L.G.B.b.8.-.#.y.r.#.@X@XOX@X@X@Xy.y.+X+X+X@X@X@X+XOX/ ",
"/ $.+X@XOXy.OXOXOXOX$./ OX+Xy.y.+X+Xy.y.y.y.r.=.<.b.D.5.g j m 3.B b h g u i i i q : g i i i i i j >.5.F.F.F.S.7.&.=.q./ y.+X+X@XOXr.+X@X@Xy.y.+X@X@X+Xy.OX+X+X].",
"/ #.y.].OXOX@X+Xy.@X+Xy.OX@X@X+X+X@Xy.r.OX@X+X! =.<.8.,.g g z N N c z M z.z.z.B B B B M M c g i j x >.7.7.8.g.-.) ~ / $.y.@X@Xy.y.y.OX@X@X+X+X@X@X+XOX/ / @XOX/ ",
"/ $.$.y.OX@X@X@X@X@X@X@Xy.y.@X+X+X@X+X+X+X+Xy./ #.^ R K g i l c b l l B.).).).Q.Q.Q.P.A.b.z.j w l k &.&.( T w.r.y.+X+XOX+Xy.y.#.y.OXy.+X@X@X+X@X+Xy.OXOX@X@X] / ",
"/ / / / y.@X+X+X@X@X@XOX] y.@X@X+X@X+X+X+X+Xy.y.$.].^ R =.T =.-.=.=.( e.N.N.N.h.h.g.h.s.s.s.=.) q.q.q.q.' ^ y.OX+X@X+X+X+X+Xy.r.y.+Xy.y.y.y.OX@X@X+X].OX@X@X/ ! ",
"/ / / / y.y.y.+X@X@X+X/ OX+X@X@X+X+Xy.+X@X@XOXy.OX+Xy.y.#.$.$.$.y./ / ^ ^ ^ ~ ! #.~ ! ! ~ $.y.y.].@XOX$.y.+X@X@X@XOX+Xy.@X@XOXy.y.+XOXy.y.r.y.+X@X@X+X+X@X@X/ ~ ",
"$./ / / ] / y.+X+X@XOX].y.OX+XOXy.r.r.y.@X@X+XOX+X@X@X@X$.].@X$./ / ].+X].OX].+X@X$.^ #./ #.y.OX+X+X+X].y.y.+Xy.#.y.#.y.@X@X+X+X+X@X@X@XOX+X+Xy./ $.@X@X@X+XOX/ ",
"/ / / / y./ / $./ / $.$./ $.$.$.r.$.r.y.y.y.y.y.y.y.OXOXy.OXy.$.^ ^ y.y./ / $.+XOX#./ #.r.#.r.$.$.#.#.$.y.$.y.y.r.#.#.y.y.y.y.y.y.y.y.y.y.y.y.y./ ^ $.y./ / / / ",
"! ~ ^ / / y./ / / ~ / / / / / / r.#.y.#.^ ^ / y.y.] / / / / / $.^ ^ / ^ ! ~ ^ #./ ^ / / #.r.#.^ ^ ^ ^ ^ #./ ~ #.y.#.y.#.^ ^ #.y.y./ / / / / r.y.^ ^ / ~ ! ~ ~ ! "
};
