/* XPM */
static char *__resized[] = {
/* columns rows colors chars-per-pixel */
"80 80 223 2 ",
"   c #0E0B0A",
".  c #110E0D",
"X  c #0E110A",
"o  c #141207",
"O  c #17180A",
"+  c #141A0C",
"@  c #151412",
"#  c #1A1413",
"$  c #1B1B15",
"%  c #261917",
"&  c #281A15",
"*  c #271A18",
"=  c #291B19",
"-  c #301E17",
";  c #301F1C",
":  c #162307",
">  c #1A2606",
",  c #1D2B07",
"<  c #1B250A",
"1  c #1E2C09",
"2  c #1F3007",
"3  c #1F2514",
"4  c #20290A",
"5  c #202E09",
"6  c #223409",
"7  c #29340F",
"8  c #263B0A",
"9  c #293E0B",
"0  c #252715",
"q  c #22211D",
"w  c #33211E",
"e  c #3B2E1A",
"r  c #2C3412",
"t  c #283714",
"y  c #373918",
"u  c #282728",
"i  c #362420",
"p  c #3A2622",
"a  c #3D2B23",
"s  c #2D3624",
"d  c #3B3921",
"f  c #343636",
"g  c #41391C",
"h  c #412E25",
"j  c #432F28",
"k  c #443226",
"l  c #443B26",
"z  c #463228",
"x  c #4A352A",
"c  c #4D392C",
"v  c #51362D",
"b  c #543C2E",
"n  c #5B3E2E",
"m  c #4B3B30",
"M  c #543C32",
"N  c #593A33",
"B  c #603F3C",
"V  c #2B430B",
"C  c #2E4A0C",
"Z  c #314E0D",
"A  c #34540E",
"S  c #365A0F",
"D  c #395D0F",
"F  c #2A4611",
"G  c #2C4B13",
"H  c #334D12",
"J  c #384618",
"K  c #2F5217",
"L  c #345512",
"P  c #395412",
"I  c #375911",
"U  c #395C10",
"Y  c #345C19",
"T  c #39591D",
"R  c #3C620F",
"E  c #376215",
"W  c #3C6311",
"Q  c #36631A",
"!  c #39651B",
"~  c #3D6D1D",
"^  c #3F711F",
"/  c #364926",
"(  c #3A5725",
")  c #3E4935",
"_  c #3C6722",
"`  c #3F7220",
"'  c #41471A",
"]  c #40630B",
"[  c #426B0F",
"{  c #46710E",
"}  c #4A750E",
"|  c #4D7C0F",
" . c #507E0F",
".. c #426A11",
"X. c #416818",
"o. c #477516",
"O. c #4B7913",
"+. c #41751F",
"@. c #43791F",
"#. c #527E11",
"$. c #494828",
"%. c #57422A",
"&. c #445923",
"*. c #485A27",
"=. c #515829",
"-. c #444E37",
";. c #5B4234",
":. c #5A4737",
">. c #445638",
",. c #5B5636",
"<. c #624331",
"1. c #62423A",
"2. c #644C3B",
"3. c #6A4938",
"4. c #734E3A",
"5. c #66543C",
"6. c #685A3C",
"7. c #77533C",
"8. c #466625",
"9. c #436E22",
"0. c #536A2C",
"q. c #427620",
"w. c #4B7426",
"e. c #457C21",
"r. c #4A7D25",
"t. c #4D7929",
"y. c #54772B",
"u. c #5B6333",
"i. c #5A7231",
"p. c #5E7932",
"a. c #6C623E",
"s. c #676A3C",
"d. c #617D34",
"f. c #3D3E41",
"g. c #4C4E4B",
"h. c #4C5844",
"j. c #52594E",
"k. c #664441",
"l. c #694E40",
"z. c #6C5341",
"x. c #6A5B46",
"c. c #765945",
"v. c #735B49",
"b. c #56614D",
"n. c #756547",
"m. c #756A42",
"M. c #7A614D",
"N. c #6F7242",
"B. c #7D7246",
"V. c #7A6651",
"C. c #82593F",
"Z. c #895E42",
"A. c #845D51",
"S. c #8D6044",
"D. c #83664C",
"F. c #86694E",
"G. c #886A4F",
"H. c #936446",
"J. c #84754B",
"K. c #846B55",
"L. c #8C6D52",
"P. c #91665C",
"I. c #8C7355",
"U. c #947455",
"Y. c #95765C",
"T. c #95795C",
"R. c #9A7B5B",
"E. c #9C6E64",
"W. c #8F7964",
"Q. c #947761",
"!. c #967A64",
"~. c #9A7C65",
"^. c #9A7E69",
"/. c #A37769",
"(. c #52820F",
"). c #578A0F",
"_. c #5D920F",
"`. c #4C841F",
"'. c #568812",
"]. c #5D9212",
"[. c #629A0F",
"{. c #619611",
"}. c #669D12",
"|. c #6BA411",
" X c #6EA912",
".X c #71AB11",
"XX c #75B213",
"oX c #79BA13",
"OX c #478022",
"+X c #498423",
"@X c #4C8A24",
"#X c #55832A",
"$X c #58872C",
"%X c #64882E",
"&X c #9C855A",
"*X c #9E875A",
"=X c #A4875E",
"-X c #9C8061",
";X c #9D816B",
":X c #A38363",
">X c #A88662",
",X c #A58D62",
"<X c #AC8A63",
"1X c #AA896A",
"2X c #B08D67",
"3X c #B18F6B",
"4X c #B3916D",
"5X c #A78B73",
"6X c #AE9077",
"7X c #B69472",
"8X c #B99674",
"9X c #BB9877",
"0X c #B6967C",
"qX c #BC9B7C",
"wX c #C09E7E",
"eX c #B69A80",
"rX c #BE9E81",
"tX c #BEA286",
"yX c #C09F82",
"uX c #C2A285",
"iX c #C5A689",
"pX c #C7A88B",
"aX c #C8A98C",
/* pixels */
"K Q +.~ ^ ^ ^ ^ @.~ ~ ^ @.@.@.^ ^ @.@.+.^ ~ ^ OX@.@.@.+.` ~ ~ ~ ^ q.+.^ ^ e.+.~ Q _ ^ ^ ^ ^ ^ ^ ^ ^ ~ ^ Y Y ^ @.^ ^ @.^ ^ ~ ^ @.q.+.@.q.^ ~ ~ ^ ^ ^ q.^ ^ e.~ Y ",
"! ~ +.+.+.q.^ ^ ^ ^ ^ e.q.q.q.^ ` ` ` ^ ^ ^ ` q.^ ^ ^ ^ ` q.e.e.e.q.+.^ ^ e.e.e.e.q.^ ^ @.q.^ ^ ^ ^ ^ ^ ~ ! ` ^ ^ e.^ ^ ^ ^ @.q.q.^ ^ ~ ^ q.e.e.e.@.^ ^ ^ e.^ ~ ",
"@.+.+.@.OXe.^ ^ ^ @.@.OXOXe.OX^ ` e.` ^ ^ @.e.` ` ` ` ~ q.e.@X@X@XOXq.^ +.e.@X@X@XOXq.e.OXe.^ ^ ^ ^ @.`.^ ^ e.^ ` q.` ^ ^ q.e.q.q.^ ^ ^ q.OX@X@X@XOX+.^ ^ e.@.@.",
"+.e.+X@X+XOX+.@.@.^ @.OX+X@X@X@X+XOX` ` e.+X@X+XOXOXOX+X+XOX+X+X+X+XOXq.+.OXOXOXOXOX+X@X+XOX` q.OX^ ^ `.+X+X@X@X@XOXq.^ e.+X@X+XOXOXOX+X+Xr.OX+X+X+X+Xq.@.+X@.^ ",
"+.+.r.OX+X@X+XOXOXe.e.+X@X@X@X@X@X+XOXOX@X@X@X@X@X@X@X@X+Xe.OXOXe.e.+X+Xe.OXOX+XOXOXOX+X+X@XOXOXOXe.e.+X@X@X+X@X@X+XOX+X@X@X@X@X+X@X@X@X@Xe.e.r.e.e.@XOXr.e.e.^ ",
"+.+.+.+.OX@X@X@X+X+XOX+X@X+Xe.e.OX+X@X@X@X@X@X@X@X@X@X@X+Xe.q.e._ q.+X@X+Xe.OX@XOXe.` ` OX@X@X@X+X+XOX+X@X+XOXe.OX@X@X@X@X@X@X@X@X@X@X+XOXe.q.q.^ +.+X@X@X@.q.q.",
"~ +.+.e.e.e.r.e.e.q.` q.q.e.+X+X@X+XOXq.q.OX+X+X+X@X@X+X+Xq.q.q.^ ^ OX@X@Xe.q.e.OXe.` e.r.e.e.e.` e.` OX` OX+X@X+X+XOX` e.e.OX+X@X@X@X@X+Xe.e.e.~ ^ OX@X@Xe.^ ! ",
"~ ~ +.@.e.+.+.^ ` ` ` ` ^ ^ e.+X+X+Xe.e.q.q.q.q.e.@X@X@X@XOXOXOXe.@.+X@X+Xq.^ +.e.e.` OXe.` ` ` ` ^ ^ ` ^ ` ` +X+XOXe.e.q.e.q.q.e.+X@X@X@XOXOXOXe.q.OX@X+Xq.! ! ",
"~ ^ @.OXe.^ ^ ` ^ ` ` ^ ` ^ ^ ` +X@.@X@X@Xe.` ^ @.+X@X@X@X@X@X@X+XOX@X@X+X` q.e.OXq.q.e.e.` ` ` ` ` ` ` ` ~ ! ^ +XOX+X@X@X+X` ` q.@X@X@X@X@X@X@X+X+X@X@X+X^ ~ ~ ",
"~ ^ ^ e.e.q.^ ` ^ ^ ^ ^ q.e.` +X+XOX@X@X@X+Xe.+X@X@X@X@X@X+X+X+Xe.+.q.+X+XOX+X+Xe.e.q.e.OX` ` ` ~ ` ~ Y K Y ^ OX+X+X@X@X@X+XOX+X@X@X@X@X+X+X+X+Xe.q.q.+X@XOXe.+.",
"^ ^ q.OX+XOX` ` q.q.e.e.e.+X+X@X@X+X@X@X@X+X+X@X@X@X@X@Xr.@.OX+X` ~ _ OX@X+X+X@X+Xq.q.OX@XOX` ` ` _ ( K K _ e.@X@X+X+X@X+X+X+X@X@X@X@X+Xe.e.+X+X` ~ ~ e.@XOXe.@.",
"@.+.q.@X@X@Xe.q.OX@X@X@X+X+X@X@X@XOX@X@Xe.OX@Xe.OX@X@X+X+.OX@X@Xq.~ ^ +X@Xq.e.+X@Xe.q.@X@X@XOX` ` / / ` ` q.@X@X@XOX+X@XOXOX+XOX+X@X@Xr.q.e.@X@X` ` ^ +X@Xq.+.+.",
"^ ^ ^ OX@X@X@XOXq.q.+X@XOXOX@XOXOX+X@X@X+X@X@XOX+X@X@X@X+X@X@X@X+XOX+X@X@Xe.e.+XOXq.q.OX+X@X@Xt.( ) _ OXe.OX@XOXe.+X@X+X+X@X@X+X+X@X@X@X+X@X@X@XOXe.+X@X@Xe.+.^ ",
"~ ^ e.@.+X@X@X+Xq.` e.@XOXe.+XOX@.@XOXe.@X@X@X+XOX@X@X@X@X@X@X@X+X@X@X@X+X+X+X+Xe.e.e.e.+X@X+X_ -.( ` @XOXe.+XOXe.@XOXe.+X@X@X+X+X+X@X@X@X@X@X@X+X@X@X@X+XOXq.^ ",
"+.@.+X@X@X@X+X+X@XOXe.@XOXOXOX@X@XOX@._ e.@X@Xe.+.e.+X+X+X@X@XOXe.e.OXe.e.+X@X@X+XOX+X+X@X+X_ / / _ OX@XOXOX+X@X@X+X` ^ e.@X@Xq.q.e.+X+X@X@X@Xe.e.e.OXOXOX+XOXq.",
"^ @.@XOX@X@X+X+X@X@X+XOX+X+X+X@X@Xe.^ ~ q.e.e.^ +.@.e.r.e.e.+X+XOXOX+X~ ! O.o.! ~ e.+X+X@X+X( / _ e.+X+X+X+X+X@X@Xq.` ` ` e.OX` q.e.e.e.e.e.+X+X+XOX+X+X+X@XOXq.",
"^ @.+Xe.e.@X+X+X@X@X+Xq.e.+X+X@X@Xe.q.q.+.q.q.q.q.e.e.e.q.e.+X@X+Xr.`.o.{ (.} [ +.O.+X^ @.+X>.>.` +X+Xe.e.+X@X@X@Xq.@.+.` +.q.q.e.e.e.e.q.e.OX@X@X@X@X@X@X@XOX@.",
"e.@.q.+.+.e.e.OX+Xq.` ` ` q.+X@X@X+XOXOXOX+X@X@X@X@X@X@X@X@X@X+Xe.o.#.}.XX.X|. XXX}. .P Q q.b.>.` ` ` ` ^ q.OX@X@X@XOXOXOX+X@X@X+X@X+X@X@X@X@X@X@X@X@Xe.q.+Xe.@.",
"+.e.e.q.q.q.e.e.e.q.q.e.` ^ OX@X@X@X+XOXe.OX+X@X@X@X@X@XOX+Xe.! `.}.}..XXX|.}.|.oXXX}.].O.T h.b.` ` ` OX` ^ OX@X@X@X+XOXe.e.+X@X@X@X@X+XOX+X+X@Xe.e.OXq.q.q.q.@.",
"~ e.@XOXe.e.e.q.q.q.e.OXq.` OX+X@X+X@X+Xe.e.OX+X@X@X@XOX~ @.o.U {.oXXX|.{.'. .(.|..X XoX{.U g.>._ ` OXOX` ^ OX@X@X+X@X+Xe.e.OX@X@X@X@X+Xq.OX+X+X@.^ OXOXe.^ +.@.",
"q.e.r.@X@X@XOXOXe.q.q.^ _ q.@X+XOXr.+X@X@X@X@XOXOX+X+Xq.Q O._. X X X X}.(.S D { #.(.(.'.).#.J s / ` ` ` ^ ` @X+XOXOX+X@X@X@X@XOXOX+X+X@X@X@X@X@X@X@X@X@X@Xr.@.@.",
"@.@.+X@X@X+X+X@X@X+Xe.e.e.+X@X@X+Xe.OX@X+XOXOX+X+XOX@.X.o._..XXX{.{ ] { { S D { } [ R Z [ ).} *.h.( ! e.e.+X@X@X+Xq.OX@X+X+XOX+X+X+XOXOX+X+X+X+X@X+XOX@X@XOX@.@.",
"^ @.@X+XOX+X+X@X@X@X@X@X@X@X@X@X+X+.q.e.e.+.q.@X+X@.~ o.).|..X}.| C , C R ..[ { { [ A 5 Z (.[.%Xb.) Q e.+X@X@X@X@Xq.q.OXq.q.q.@X@Xe.OXq.` q.e.e.@.+.q.+X@XOX@.@.",
"@.@.e.+X+X@X+Xe.OX@X@X@X@X@X+X+Xe.q.q.q.+.e.OXOX+.] '._. . ._. X .S A L S S R R [ ] D C D  .(.X.) g.>.G E q.+XOXe.q.q.q.q.e.OX@X@X` ` e.e.e.e.` +.q.e.OX+XOXe.+.",
"+.@.OX+X+X+Xe.e.OXOXe.q.+X@X+Xe.e.OXe.q.r.OX`.X.W [  .| R R | }.(.R ..I L D R W ..R U I [ | [ S J g.g.) X.o.W +.OXOXe.e.e.+X+X@X+X^ ` q.e.` ` ` ^ ` +XOXOXOX^ ^ ",
"^ e.@X@XOX^ ` OXOXOXq.` OX@X+X+X@X@X+X+XOX+X@.D R { U Z V L ..'.| [ R D D [ ] W U I R R [ | I A L -.g.j.0...A ! OX@X+X+X@X@X@X@X+X` ` ^ ^ ` ^ ^ ^ ` OXOXOXe.`.^ ",
"^ e.+XOX^ ^ ^ @.@X@X@X+X+X+XOX+X@X@X@XOXE X.O.R D W U C 6 C [ (.[ D D [ [ S V 8 8 Z W ....U Z 8 2 t ) j.-.P ..W Y +X@X@X@X@X@X@X@X+X` ^ ^ ^ ` e.OX` OXOXOX+X`.^ ",
"+.e.+XOXOXq.^ @.@X@X+X@X@X+XOX@X@X@.@.+.L U ..D I I I Z 9 V S [ W L I [ [ I C V V A R ..W I C 8 < 1 s g.f J { R R O.e.q.+XOXe.+X@X@X+X` q.OX+X+X@X+X+XOX+X+X+X^ ",
"+.e.@X@X@X@X@X@X@X+Xe.q.OX@X@X@X`.E Y I I I S L D D U I A 8 9 S I I P D W R W R D D ] W U I K 9 1 : u ) f t Y { } o.W Y q.e.q.OX+X@X@X@X@X@X@X@X@X@X@X+XOXOX` ^ ",
"^ +.OX@X+Xe.+X@X+XOXe.q.+X@X@X@X+.G V A I I P R [ [ R I A A L U S D [ W D W ' J I D R ] A 6 0 q + + q f f s 6 L R U W W +.OX+Xq.OX@X@X@X@X+X@X@X@X+Xe.+X+XOX^ ~ ",
"~ @.OX@XOX@.OX+X+XOXe.q.e.@X+Xq.Y V 9 C I I I ] [ [ W U L A U U I R ..R D R J e J H I R C + $ @   @ q f u q $ 9 A Z A U U ~ e.e.+X+X@X@X@XOXOX@X+X+XOX+X@X` ^ ^ ",
"+.OX@X@X+X@.@.+X@XOX` q.q.q.` Y G Z V V I I A I D I I U D C C I I D A D D R ' g e y J I 2 + @ @   @ u f.u . $ t Z 9 V V 9 F L e.+X+X@X@X@X@.e.+X+X@X@X@X+XOX`.@.",
"^ e.+X+XOXe.OXOXOXOXe.q.OXe.Y F V V V V A A A A Z Z 9 Z A Z Z A L A Z I D D $.<.g y P S 7 O $ #     # q @ @ q 0 1 9 V V 8 8 9 G Q q.OX@X@XOXe.+X@X@X+Xe.OX@X+X@.",
"^ q.OXOXOXOX@X+XOX+X+Xq.+X+.F 8 6 8 9 V A Z C Z Z 9 8 V A A A A ' J Z I I D $.n g Z S D V 0 q $ X X . . X + q $ < F V V 6 6 6 2 9 Y q.+X@X+XOX@X@X+XOX^ ^ @XOX^ ",
"^ +.q.e.OX@X@X@X@X@X@X@Xe.Y 6 6 6 5 5 V V C V V V V A A A D S A ' %.D I A A y e A S Z S A V 4 < 2 + @ $ + < : 1 8 V V V 8 6 6 8 6 V Q e.@X@X+X@X+Xe.OXOX+X@X^ ^ ",
"^ ^ q.q.e.@XOX@X@X@X@XOXY V 6 6 6 5 6 6 V V V V V C Z Z V C Z S ' g Z C C Z 9 9 S Z 9 Z A V 7 6 F 2 0 t 8 8 2 8 9 V 9 8 6 6 6 6 6 6 V E e.e.e.@X@X@XOXOX@X@X^ ! ",
"^ ^ ^ ^ ` OXe.OX@X@X+X^ F 1 6 8 6 8 8 8 9 V V V V V V V 9 9 C A y r 9 9 V V V C A V 8 C C V V V V V C V V V V V V V 6 5 1 6 6 6 6 5 2 V Q ` OX+X@X@XOX+X@X@X^ ~ ",
"@.+.^ +.` ` e.+X@X+X@.Y F 5 6 6 6 6 6 6 6 9 V V 9 9 V 9 9 V V C C 9 9 V V V V V V V C V V V V V V V V V V V V V 8 6 , , 1 6 6 6 6 1 2 5 8 ` @Xe.+.@.@X@X@XOXOX^ ",
"@.@.+.e.e.OXe.OXOXOX~ V 6 6 6 6 6 6 6 5 6 V V 9 8 V 6 6 9 V V C C C C V C V V 9 V V C V V V V C C V V V V 8 8 8 8 6 5 2 6 6 6 6 2 1 , , 6 _ @X+X^ +.@X+X@.@.q.e.",
"~ +.OX+X@X@XOXOXe.e.Q 6 , 1 6 2 6 6 5 , 6 6 6 6 6 8 5 5 9 9 V V 9 9 C V 9 V 9 V V V V C V V V V V 8 6 V V 8 6 2 6 6 6 6 6 6 5 1 1 1 1 8 G ^ +X@Xe.@.+X@.^ e.^ ^ ",
"! +.+XOXOX+X+X+X+Xe.! 8 2 , < 1 6 6 6 5 > , 6 6 6 8 6 6 6 6 6 8 5 > 5 8 9 V V 9 6 9 9 V V V 8 6 8 5 1 , 6 6 6 6 6 6 6 6 6 , , , , 5 9 K q.e.OXOX+X+X@XOXOX@Xe.^ ",
"~ +.e.r.e.OXe.e.OXe.^ Y F 2 , 1 5 5 5 5 , , 6 6 6 6 6 6 6 6 6 8 5 4 5 6 8 9 6 9 6 6 8 6 9 9 6 6 5 , 1 1 6 6 8 6 6 6 5 , , 5 , > 6 F K Q q.OX+X+X@X+Xe.q.q.@XOX^ ",
"@.+.+.e.OXe.^ ^ q.q.e.q.Q F 8 2 5 2 , 5 6 5 5 6 6 6 6 6 6 6 6 6 6 6 6 6 6 6 6 6 , 5 6 8 8 6 6 6 , , 5 8 6 6 6 6 6 6 5 > > 2 6 6 G Q ~ ` q.OX@X@X+XOX+.^ ^ OXe.@.",
"^ e.OX@X+XOX+.+.q.+.q.OXe.` Q G 8 , > , 2 , > , , 2 2 2 6 6 6 6 8 6 6 5 5 6 6 6 6 6 6 6 6 6 6 6 6 6 6 6 8 6 , > , 5 5 , > 8 A ~ q.e.OX+X+XOXOX+X+X+XOX@.+.OX@.^ ",
"^ q.OXOX+X@X+XOXOXe.e.+X@X@X@.! Y K L G 7 7 4 > , , , , 1 2 6 1 5 6 5 5 5 6 6 6 6 6 5 6 6 6 6 6 5 5 2 , 6 1 , < 3 y d d F L ` +X@X+X@X@X+Xe.e.e.e.e.@XOXOXOXq.^ ",
"^ ^ q.q.OX@X@X@X+X+X+XOX+X@Xe.@.@.+X+Xr.' c l y y t 6 t 7 5 < < , , 4 5 6 6 6 6 6 5 5 5 5 6 6 5 , > , 1 4 5 t r d ,.v.n.0.e.+X@X@X@X@X@X+Xe.e.e.^ ` +X@X+Xe.q.q.",
"~ ^ +.e.e.OXe.e.e.q.q.q.q.e.+X@X@X+XOXw.a.K.T.I.V.B.n.x.,.d 1 1 > 5 5 6 6 5 , , , , , 5 , 4 5 4 > 4 4 d d -.x.V.K.!.1X&Xi.q.+X+X@X@X@X@X+Xe.+.q.~ ~ OX@X@Xe.` ! ",
"~ ^ q.OXe.^ +.+.` ` ` ` ^ ` e.+X+XOX@.t.B.1XqXeX0X6X5X5X!.V.:.d g y 5 4 > : O : O : : > 4 4 r y $.-.,.v.V.K.;X5X6X0XqX>Xi.q.q.q.e.+X@X@X@XOXOXr.e.e.+X@X@Xq.! Q ",
"~ +.+.@.e.^ ^ ^ ^ ^ ` ^ ` ^ ^ q.+X`.OX$XB.:XqXqXqXqXiXiXtXtX^.1.z.2.= # o o o o o o o # q a m x.Q.^.5XeXyXyXyXrXrXeX8X=Xp.@.+.+.e.+X@X@X@X@X@X@X@X+X@X@X+X^ ! ~ ",
"~ ~ @.@.e.q.^ ^ ^ ^ ` ^ q.e.` +X+X+X+X@XB.:XqXqXtXiXtXiXiX5XV.l.N h = * % & # % # # % * p z N V.6XeXrXyXpXaXpXyXyXeX8X=Xd.r.@.r.@X@X@X@X+X+X+X+X@.@.q.OX@XOXe.q.",
"+.+.@.OX+X+Xq.+.q.e.e.q.e.+X+X@X@X+X+X$XB.:XqXqXqXiXuXiXtXK.z.5.j = = = - ; = = & = = = w j ;.v.~.0XyXyXpXpXpXyXyXwX8X=Xd.e.+X@X@X@X@X+Xe.r.OX+Xq.! ^ e.@X+Xe.@.",
"+.+.@.+X@X@Xe.q.OX+X@X@X+X+X@X@X+X+X+X$XB.:XqXqXqXqXiXiX0XD.1.2.N h = % * % = % = & = = = i :.k.1.^.yXyXyXpXyXyXyXyXwX=Xi.r.+XOX+X@X@XOX+.OX@X@Xq.~ ` +X@Xq.+.+.",
"~ +.@.OX@X@X@XOXq.q.+X@XOXe.@X+Xe.+X@X#XB.-X9X9XqXrXiXeX;Xl.v v x j = & % % = = * = = = = w v M :.~.yXiXyXyXpXyXyXqXwX,Xp.r.+XOX+X@X@X@XOX@X@X@X+XOX+X@X@Xe.+.^ ",
"~ +.e.@.+X@X@X+Xq.` e.@XOXe.+XOXe.@XOXr.m.-X9XqXqXuXiX6XV.:.;.n b j = & = = % = * * % = = ; p x 2.Q.eXiXyXyXyXyXyX9XwX,Xd.+X@X+XOX@X@X@X@X@X@X@X+X@X@X@X+Xr.e.^ ",
"~ @.r.@X@X@X+X+X@XOXe.@XOXOXOX@X@XOX` 8.m.R.qX9XqXuXiX;X:.2.c.H.7.x = = = % = = % = = % ; ; w z z.K.5XrXyXyXyXyXyXqX8X,Xd.r.@Xe.q.e.+X+X@X@X@XOXe.e.e.+XOX+Xe.q.",
"+.e.+XOX+X@X@X+X@X@X+XOX+X+X+X@X@Xe.^ w.m.R.7XqXqXrXiX!.;.;.z.Z.7.n ; = % = % % = % = = = w ; z z.K.!.eXpXpXyXyXyX9X8X=Xi.q.e.+.q.q.e.e.@.r.+X+X+XOX+X+X@X+XOXq.",
"^ e.+Xq.e.@X+X+X+X@XOXe.e.OX@X@X@X@.^ w.m.T.4X8XqXyXyX!.M M <.3.4.<.; = & = * = = % = % = ; ; v z.M.Q.rXiXaXaXuXrXqX8X=Xi.+.o.q.e.e.e.e.e.e.OX@X@X+X@X@X+X@XOX@.",
"q.e.q.` q.e.e.OX+Xq.` ` ` q.+X@X@X@X`.r.m.T.4X8XuXaXuX!.M M n n 3.<.w = = = * * = = % % = ; i z 2.v.^.iXiXuXuXuXyXqX4X&Xi.@.@X@X+X@X+X@X@X@X@X@X@X@X@XOXq.+XOX@.",
"+.e.OXq.q.q.e.e.e.q.q.e.` ` OX@X@X@X@Xt.m.R.2X8XyXuXpX^.M M n n 3.n w = = % * * = = = * = ; i z 2.M.;XiXpXuXuXuXyXqX8X&Xi.q.+X@X@X@X@X+Xe.+X+X+XOXe.+X` ` e.q.@.",
"~ e.@XOXe.e.e.q.q.q.e.+Xq.` OX+X@X+X`.#Xm.Y.3X8X9XwXpX;X:.M %.;.3.<.- & % = = = = = * * = ; i x :.M.;XuXpXiXuXuXuXqX7X=Xi.q.r.@X@X@X@X+Xe.e.OX@X@.^ e.OXe.^ ^ @.",
"q.e.+X@X@X+X+XOXOXq.^ ^ _ @.@X+XOXOX+X#Xm.U.3X8XqXyXuX~.;.c M ;.4.<.; % = = % = * * * * = ; p z :.v.!.iXiXiXuXtXqXqX8X*Xd.r.@XOXOX+X+X@X@X@X@X@X@X@X@X@X@Xe.@.@.",
"q.e.+X@X@X@X+X@X@X+XOXe.OXOX@X@XOXe.OX#Xm.U.<X7XqXyXuX~.;.c ;.4.7.<.w = = % = % = * * * = = p k M v.^.tXiXiXiXtXqXqX7X*Xd.w.e.+X+X+X+XOX+X+X+X@X@X+X+X@X@X+X@.@.",
"+.@.+X+XOXOX+X@X@X@X@X@X@X@X@X@X+X@.e.t.m.U.<X7XqX9XyX~.;.x <.C.C.<.i = % = = % * * = * = i a j c v.^.rXuXiXiXtXqX7X4X&Xi.9.@.@X@Xe.e.q.q.q.q.e.q.+.+.+X@X+X@.@.",
"+.@.OXOX@X@XOXe.OX+X@X@X@X@X+XOXe.q.@.9.,.G.<X7X8X9XwX!.b k <.S.S.<.; % % = % = * * * * = ; p j m v.^.rXiXiXqXqX9X3X>XU.0.q.OX@X+Xq.q.e.e.q.q.q.q.q.e.OX+X+X@.^ ",
"+.@.e.+X+XOXe.e.e.OXe.e.+X@X+XOXe.OXOXw.6.F.=X2X7XqXqXY.M a ;.H.C.3.- = = = = % = = % % = w p j b x.~.rXpXuXqXqX9X2XR.D.0.@.@X@XOXq.` q.q.q.q.` ^ ^ +XOXOXOX@.^ ",
"^ e.@X@XOX^ q.OXOXOXq.` e.@X+XOX+X@X+Xt.m.G.T.=X3X8XqXY.b a ;.H.S.n - = = = % = % = = = = i p j c z.Q.qXyXrXqXqX7X<XL.a.i.+X@X@XOXq.q.` ` ^ ^ ` ^ ^ +X+XOXOX@.^ ",
"+.e.+XOXq.^ ~ q.@X@X+X+X@X+XOX+X@X@X@X#Xs.D.R.>X<X8XqX!.;.j n Z.Z.B ; % = = % = = = % % = ; w h x z.W.0XyXqX7X3X:XU.U.J.p.+X+X+X@X+Xq.~ ^ +.q.e.^ OXOXOX+X@Xe.@.",
"+.@.+X+XOXq.q.OX@X@X@X@X+X+XOX@X@X+X@X+X,.n.-X>X>X:X7XT.:.a n S.Z.n w * & = = % % % = % = = p h x l.I.4X7X7X4X:XU.U.U.J.y.@.`.OX@X@XOXe.q.e.OXOX+X+X+XOXOX+XOX^ ",
"^ OX@X@X@X@X+X@X+X+Xe.e.+X@X@X@X@X+X+Xe.*.n.R.>X&XL.>XY.:.j n Z.C.n i = * * = = = = * * = ; i h l 3.L.=X<X>X<XU.B.Y.L.m.r.^ +.OX+X@X@X@X@X@X@X@X@X@X@X+X` OX^ ^ ",
"^ ^ OX@X+Xe.+X@X+X+Xe.` +X@X@X+XOXOXe.q.q.s.G.T.:X:X:XL.2.z v c.C.3.p ; = w = = = = = = ; ; i h x 3.G.R.I.U.>XR.F.F.7.,.r.@X+Xe.OX@X@X@X@X@X@X@X@X+XOXOX+X`.^ ~ ",
"~ ^ +X@XOX@.e.+X+X+XOX^ OX+X+X+Xe.OXe.e.OX0.6.D.Y.=XR.D.;.x N 4.4.n w ; i w = w - - = ; ; ; w p z 2.D.R.I.G.R.U.F.c.,.*.r.@XOXe.e.@X@X@X@XOXOX+X@X+XOX+X@Xe.^ ^ ",
"^ `.@X@X+Xe.@.+X@XOX^ ^ e.` ^ ^ e.+X@X@XOX! $.6.D.G.L.z.j v N 3.3.v w - w = - = - - - - ; ; i p l <.D.R.R.I.G.M.c.6.=.~ e.q.^ +X@XOX@X@X@Xe.e.+X+X+X@X@X@X+XOX^ ",
"^ `.+X+XOXe.OXOXOXOX@.^ +X+XOX`.OX+Xr.e.e.e.q.&.,.c.D.3.j k M 1.N v a p p p a p i p p p p p p p z ;.5.F.D.D.D.5.$.*.8.~ @.+X+XOXe.e.+X@X@XOXe.+X@X@X+Xe.e.@XOXOX",
"^ ^ e.OXOXOX@X+Xe.+X+Xe.+X@X+X+X+X+Xe.q.OX@X+X! &.,.a.:.a j x N v N k.k.k.k.k.k.B 1.1.M N v a p k c :.5.5.6.s.=.( ! ^ @.r.@X@X`.q.e.OX@X@X+XOX@X@X+XOX+.` @XOX^ ",
"^ @.@.e.+X@X@X@X@X@X@X@X@.` @X+X+X@X+X+X+XOXe.^ +.q.T J h j z v x 1.E./././.E.E.E.E.P.A.v.k.j e k x $.$.$.T 9.q.@.+X+XOXOXOXe.+.q.OXOX+X@X+X+X@XOX`.e.OX@X@X` ~ ",
"^ ^ ` ^ e.@X+X+X@X@X+X+Xe.e.+X@X@X@X+X+X@X+Xe.q.@.@.~ T &.J &.*.&.*.N.d.N.m.N.x.N.s.s.,.u.u.&.( *.8.8.8._ ~ e.+X@X@X+X+X@XOXe.+.OX+Xe.q.OXe.e.@X@X+XOX+X@X@X` Q ",
"^ ^ ^ ^ ^ OXe.OX@X@X+X^ OX+X@X@X+X+XOX+X@X@X+Xe.OX@XOXq.+.^ @.@.e.^ ~ ~ ~ ~ Q Q ~ ~ Y ! ~ ^ @.`.@X@X+X@.e.+X@X@X+X+Xr.OX@X@XOXe.OX+XOXe.q.q.e.@X@X@XOX+X@X@X^ Q ",
"@.^ ^ ^ ^ ^ OX+X+X@XOX`.e.OX@XOXq.q.@.e.@X@X@XOXOX@X@X@X`.OX+Xe.^ ^ OX@XOX`.OX+XOX+.~ ^ ^ +.e.+X+X+XOX`.e.OX+Xe.q.e.@.e.@X@X@XOXOX@X@X@XOX+X+Xe.^ @.@X@X@XOX`.^ ",
"^ ^ ^ ^ e.^ ^ @.^ ^ @.@.^ @.e.^ q.+.q.q.q.e.e.e.e.e.OXOXe.e.OXe.~ ~ e.e.^ ^ @.+X`.^ ^ ^ q.+.+.+.@.+.+.+.@.q.@.q.+.+.+.e.e.q.e.OXe.e.OXOXe.e.e.e.^ ^ OXe.^ ^ ^ ^ ",
"! ! ^ ^ ^ e.^ ^ ^ ~ ~ ^ ^ ^ ^ ^ e.+.e.@.~ ^ ^ e.q.` ^ ^ ` ^ ^ @.~ ~ ^ ~ Q ~ ^ ^ ^ ^ ^ ^ q.+.+.~ ~ ~ ~ ^ ^ ^ ~ +.e.+.e.+.~ ~ +.q.q.+.^ ^ +.+.q.q.! ! ^ ~ ! ! ! Q "
};
