/* XPM */
static char *Group_10_9__resized[] = {
/* columns rows colors chars-per-pixel */
"80 80 226 2 ",
"   c #170C0C",
".  c #0D120F",
"X  c #1D1C15",
"o  c #1C1819",
"O  c #241717",
"+  c #241C1C",
"@  c #301717",
"#  c #1D2517",
"$  c #20360F",
"%  c #202515",
"&  c #222C15",
"*  c #242519",
"=  c #2A241D",
"-  c #262A1A",
";  c #2A2D1B",
":  c #34271E",
">  c #233515",
",  c #243C14",
"<  c #283C16",
"1  c #2A3219",
"2  c #2B3C19",
"3  c #38391C",
"4  c #231C21",
"5  c #291F20",
"6  c #2C2222",
"7  c #2E2921",
"8  c #332626",
"9  c #372728",
"0  c #352A2C",
"q  c #3B2C2D",
"w  c #2E3223",
"e  c #383525",
"r  c #2F2631",
"t  c #332A35",
"y  c #3C2D31",
"u  c #3E3238",
"i  c #473418",
"p  c #472A25",
"a  c #402F2E",
"s  c #562D26",
"d  c #4B3625",
"f  c #41302F",
"g  c #553628",
"h  c #433332",
"j  c #4B3631",
"k  c #4C3A36",
"l  c #45373A",
"z  c #4C3B3B",
"x  c #543931",
"c  c #523F3C",
"v  c #693B2D",
"b  c #6A3F30",
"n  c #2B4517",
"m  c #2A4915",
"M  c #2C421A",
"N  c #2E4A18",
"B  c #37471A",
"V  c #2F5118",
"C  c #32541A",
"Z  c #39571B",
"A  c #355C1B",
"S  c #36631A",
"D  c #39651C",
"F  c #3D6D1D",
"G  c #3F711F",
"H  c #3F7220",
"J  c #4C461D",
"K  c #574B1D",
"L  c #6E4417",
"P  c #446D1D",
"I  c #4B681C",
"U  c #5B6719",
"Y  c #536D1C",
"T  c #41751F",
"R  c #4B731E",
"E  c #43781F",
"W  c #59761E",
"Q  c #6E6B1B",
"!  c #66771D",
"~  c #75741C",
"^  c #4D4B2C",
"/  c #5E4031",
"(  c #56413B",
")  c #5B453B",
"_  c #664629",
"`  c #76442B",
"'  c #7A5429",
"]  c #634432",
"[  c #684935",
"{  c #63493A",
"}  c #694C3C",
"|  c #744A33",
" . c #7A4A34",
".. c #6D503B",
"X. c #785337",
"o. c #7D5939",
"O. c #417620",
"+. c #4B7527",
"@. c #457C21",
"#. c #4B7C22",
"$. c #4D7D2D",
"%. c #5A7422",
"&. c #537C22",
"*. c #577C24",
"=. c #486137",
"-. c #55703D",
";. c #677721",
":. c #637A23",
">. c #767D23",
",. c #62673D",
"<. c #463A44",
"1. c #544345",
"2. c #514C44",
"3. c #5D4A44",
"4. c #56464A",
"5. c #5D4C4C",
"6. c #614D48",
"7. c #64524D",
"8. c #6B564D",
"9. c #6E594F",
"0. c #765B49",
"q. c #665450",
"w. c #6F5A51",
"e. c #725D52",
"r. c #676540",
"t. c #776357",
"y. c #776967",
"u. c #80771E",
"i. c #8F5A2B",
"p. c #8C4B33",
"a. c #924D36",
"s. c #875633",
"d. c #835D39",
"f. c #935B34",
"g. c #9A5936",
"h. c #A25836",
"j. c #847B21",
"k. c #897B22",
"l. c #8C6238",
"z. c #936639",
"x. c #996938",
"c. c #A56936",
"v. c #B56C33",
"b. c #AB7536",
"n. c #A47138",
"m. c #A97438",
"M. c #B37B38",
"N. c #C37C36",
"B. c #84684A",
"V. c #986F43",
"C. c #9A7747",
"Z. c #826C5D",
"A. c #88715B",
"S. c #A07D4A",
"D. c #897566",
"F. c #478022",
"G. c #498423",
"H. c #4C8A24",
"J. c #4D832A",
"K. c #538323",
"L. c #53842F",
"P. c #528E2B",
"I. c #598838",
"U. c #678827",
"Y. c #718324",
"T. c #7A8528",
"R. c #6F8A35",
"E. c #6A9038",
"W. c #7E9340",
"Q. c #98841B",
"!. c #898729",
"~. c #948727",
"^. c #909530",
"/. c #AC8C26",
"(. c #AA942A",
"). c #BA992A",
"_. c #BF8236",
"`. c #BA823D",
"'. c #AE9F36",
"]. c #BE913E",
"[. c #A8A837",
"{. c #B9A537",
"}. c #C4972A",
"|. c #CD8B35",
" X c #C48638",
".X c #D48E35",
"XX c #DA9234",
"oX c #E39C36",
"OX c #C8A32F",
"+X c #D8B52D",
"@X c #C4A332",
"#X c #D5AC35",
"$X c #E1A52A",
"%X c #ECA437",
"&X c #F5A432",
"*X c #E8BA38",
"=X c #F5B939",
"-X c #DFC53A",
";X c #F4C33B",
":X c #FCD43D",
">X c #8B9B46",
",X c #BA8C43",
"<X c #B28E56",
"1X c #B6B645",
"2X c #B3B24F",
"3X c #C69845",
"4X c #D5B744",
"5X c #CAA950",
"6X c #BCC159",
"7X c #BCC878",
"8X c #DBC542",
"9X c #D8CA5B",
"0X c #F8C84A",
"qX c #F8D546",
"wX c #E1C851",
"eX c #E2D35F",
"rX c #F8DA59",
"tX c #F8E953",
"yX c #CBCC72",
"uX c #F5DA6B",
"iX c #F7DC7D",
"pX c #FCE469",
"aX c #FEE779",
"sX c #F9EB8B",
"dX c #FFF185",
"fX c #FEF394",
/* pixels */
"V S T F G G G G T F F E T E E G G @.G F.G G G G.F.G E G G F F T G T H H H @.O.F D F G F G G G G T F F T O.E E G G E T T F F G E O.T E O.F F F F T O.O.G G E F C ",
"D F T T O.O.G G G G G E O.E E G H H G G G G G G G G G G P E @.@.J.J.$.O.H @.F.O.O.O.T G T E G G G G T E @.O.T G G E T G G G E O.T G G G T O.@.@.@.O.T F G @.T F ",
"E E T E F.@.T G E E E F.@.O.@.O.H H H G G F.E G G G G G E F.H.H.E.E.R.-.G @.G.H.H.F.O.@.F.@.G G G E E F.@.O.@.O.O.O.O.G G O.@.O.O.H F T O.@.H.H.H.F.T G T @.E E ",
"T E G.H.G.F.T T E G E F.G.H.H.H.H.F.H H G G.H.G.G.F.G.G.G.F.F.H.Y.^.!.:.O.F.G.F.F.G.G.G.G.F.E T E G E F.G.H.H.H.G.F.H G @.G.H.G.F.F.F.G.F.G.G.G.G.G.F.O.E G.E G ",
"G E F.F.G.H.F.F.F.@.@.G.H.H.H.G.G.G.F.F.H.H.H.H.H.G.H.H.G.F.R W ~ k.>.K.@.F.F.G.F.F.F.F.G.H.G.F.G.E @.F.H.H.H.G.G.G.F.F.H.H.P.H.H.G.H.H.G.@.@.@.@.@.G.F.@.F.O.T ",
"T T T T F.H.H.H.G.G.F.G.H.H.@.@.F.H.H.H.H.H.H.H.H.H.H.G.F.E W u.Q U &.G.H.O.F.H.G.@.O.O.F.H.H.H.H.G.F.G.H.H.@.@.F.H.H.P.H.H.H.H.H.H.H.H.G.@.@.@.G O.G.H.G.@.O.O.",
"F P G E F.@.F.@.@.O.O.O.O.@.G.H.G.G.F.H @.@.G.G.G.H.H.G.E Y !.OXk.I @.G.H.@.O.O.F.E G E @.F.F.F.E O.O.@.O.@.G.G.G.G.F.G H F.F.G.G.H.H.H.G.@.E O.F P F.H.H.@.F D ",
"F F T F.E T T T H H G H H G O.G.H.F.F.@.@.H H G E G.G.G.W !.OX;X~.I G.H.G.O.G O.@.O.E F.@.G G G G G G H G H @.G.G.G.@.@.@.E E G @.H.G.H.H.F.F.G.@.O.G.H.H.O.F S ",
"F G T F.@.G G H G G G G H G G O.G.F.G.H.H.F.G G T W G.R K.{.:X;X!.P F.H.G.T T @.@.E E #.E G G G H G G G G G G H G.F.G.H.H.F.G G O.H.H.H.H.H.H.H.G.G.H.H.G.G F F ",
"F G E @.@.O.G G G H G G O.@.O.F.G.G.G.H.H.G.F.F.Y.~.>.+.*.8XqX;X~.I O.F.G.F.G.G.@.E E @.E E G G G G G G H F.H G.G.F.H.H.H.H.F.G.H.H.H.H.G.F.G.G.@.O.O.G.G.F.@.T ",
"F G O.F.G.F.H H O.@.@.O.F.F.G.H.H.G.G.H.G.G.G.H.^.}.j.Y #.6XpXqX(.~ Y @.H.G.H.H.G.O.T F.G.F.O.G H F.F.G F.F.G.G.H.G.H.H.H.G.F.H.H.H.P.G.@.#.F.G.H F F @.H.G.@.E ",
"E T O.H.H.H.F.O.F.H.H.H.G.G.H.H.G.G.H.H.F.F.G.G T.).j.Y +.7XdXpX0X).Q &.H.E E H.H.@.T H.P.H.@.@.G.H.H.H.G.G.H.H.H.F.G.H.@.F.G.F.F.H.H.G.T F.H.H.O.F G G.H.O.T T ",
"G G T E H.H.H.F.O.O.G.H.F.@.H.F.@.H.H.H.G.H.H.F.!.}.).^.R.yXfXdXpX*Xj.K.H.E E G.F.@.O.F.G.H.H.F.G @.G.H.G.F.G.G.F.G.H.G.G.H.H.F.G.H.H.G.G.H.H.H.G.F.G.H.H.@.T F ",
"F G E F.G.H.H.G.O.H @.H.F.@.G.F.O.H.F.@.H.H.H.F.! /.#X#X{.eXaXfXaX9X~.! G.G.F.G.@.O.@.@.G.H.H.G.G G F.H.G.G G.F.E G.G.F.H.H.H.G.G.G.H.H.H.H.H.H.G.G.H.H.G.F.E T ",
"T E G.H.H.H.G.G.H.@.@.H.F.F.G.H.H.G.H F O.H.H.O.I ! @XqXtXqXrXiXaXwX~.! F.F.H.H.H.F.F.H.H.H.G.G.H.F.F.G.G.F.G.H.H.G.G G F.G.H.G O.@.G.G.G.H.H.@.@.@.F.@.@.G.F.O.",
"G E H.F.G.H.G.H.H.H.G.G.F.G.G.H.H.@.G H H @.O.F D R T.{.0XqX0X0X0X#X~ K.G.H.H.H.F.G.H.F.H.H.G.G.H.G.G.G.G.G.H.H.H.G G G G F.F.G O.O.@.@.@.G.G.G.G.G.G.G.H.H.F.O.",
"T E G.@.@.H.G.G.G.H.G.@.@.G.J.H.H.@.@.O.T T T %.*.E T >.@X*X;X=X$X(.;.G.H.H.H.H.G.G.G.O.@.H.G.G.G.H.G.F.F.G.H.H.H.O.E E G E O.O.@.@.@.@.O.@.F.H.H.H.H.H.H.H.F.E ",
"E E O.G T @.@.F.G.O.H H F O.G.G.H.G.F.@.@.@.:.(.~.W E K.Y.OX;X=X(.! K.E T G.H.H.G.F.O.H T @.@.F.G.H G G G O.G.H.H.H.G.E F.G.H.H.H.G.G.H.H.H.H.H.H.H.H.@.O.F.@.E ",
"T @.F.E T T @.@.@.O.O.@.O.F F.H.H.H.H.@.T Y >.~.T.R H.@.%.@X=X'.! R G.E T E G.H.G.F.#.:.%.T T @.F.H G F.G G @.H.H.H.G.G.@.F.G.H.H.H.H.G.F.F.G.H.F.@.F.O.T O.E E ",
"F E H.F.@.@.@.@.O.O.@.G.O.H F.H.H.G.H.J.U ~ ~.! R F.H.F.Y ).).;.T T E F.E G E G.F.#.U.^.!.T E @.H H @.G.G G F.H.H.G.G.G.@.@.F.G.H.H.H.G.@.@.G.G.E T @.F.@.T T E ",
"O.@.F.G.H.H.G.G.G.O.O.F F O.H.G.F.F.$.U.Q.}.).U.H H.G.F.R >.Y.K.G.H.H.H.H.E G.G.@.Y.(.-X[.K.G.G.F.H G G G G H.G.F.F.G.H.H.H.H.F.F.G.G.H.H.H.H.H.H.H.H.H.H.#.E E ",
"O.#.G.H.G.G.G.G.H.G.@.@.@.G.H.H.F.E E.2X+X+X{.U.F.F.F.@.O.R #.F.H.G.G.G.H.F.H.H.%.^.8XrX1XK.G.G.H.G.F.@.@.G.H.H.G.@.F.G.G.F.F.G.G.G.F.G.G.G.H.G.G.G.F.H.H.G.E E ",
"G @.G.G.G.G.G.H.H.H.H.H.H.H.H.H.G.@.>X9X:X-X[.P.G.F.@.O.H O.@.@.@.E E G.H.F.H.K.! {.tXpX2XR.&.#.H.H.H.H.H.H.H.H.G.O.O.F.@.O.O.H.H.@.F.O.H O.@.@.@.T T G.H.F.@.T ",
"E E @.G.G.H.G.@.F.G.H.H.H.H.G.G.O.@.W.1X;X*X[.U.@.O.O.O.@.@.@.O.G T E #.G.G.G.R W '.uXfXsX9XT.R F.G.H.H.H.H.H.F.@.@.O.O.O.O.G.H.G.H O.@.@.O.O.O.T T @.F.F.G.@.T ",
"T E G.G.G.F.F.@.@.@.@.@.G.H.G.@.@.F.E.^.).$X{.U.@.G G @.O.H H H F O.F.F.F.F.F.#.R !.5XiXiX2XY.O.@.F.@.@.G.H.G.F.@.F.@.O.@.G.G.H.F.G H O.@.O.G G G G F.F.F.G.E G ",
"G E H.H.F.G H F.G.F.O.H @.H.G.G.G.H.G.#.~ /.OXU.F.G G G G G H H F O.G.F.F.F.G.G.@.&.T.4X'.+.E @.F.F.O.H F.G.G.G.G.H.G.G.H.H.H.H.G.G H G G H G G G G G.G.F.G.E G ",
"G @.G.F.G G G E H.H.H.G.G.G.F.F.H.P.H.G.R ! >.K.G.G.G G G G O.@.@.@.F.F.G.H.H.H.G.#.K.Y.;.P F E H.H.G.G.G.G.@.G.H.H.H.H.H.H.G.H.H.G.E F G H O.@.E F.E G.G.G.F.G ",
"T @.G.F.F.E G E H.H.H.G.H.G.F.H.H.H.H.G.@.T P F.H.H.F.@.@.@.@.E O.G G T G T E E O.O.O.F T T G @.H.H.H.G.H.G.F.H.H.H.H.H.H.F.#.G.H.H.F.E O.@.G.G.G.G.G.F.F.H.F.G ",
"T E H.H.H.H.G.H.H.F.@.O.G.H.H.H.H.G.G.G.F.O.H F.G.H.G.H.H.H.@.D C C A C V V C V C C A F R G.G.H.H.F.@.O.F.H.H.H.H.G.G.G.F.@.H F.H.H.H.H.H.H.H.H.H.H.H.G.@.F.E G ",
"G E F.H.G.E H.H.F.G.@.O.F.H.H.H.F.@.@.@.H.H.H.O.F.H.H.H.H.F.D 2 1 ; ; - - ; ; - 1 3 i J J F E F.@.F.@.O.G.H.H.H.F.F.E @.G.H.G.@.E H.H.H.H.G.H.H.H.G.E F.G.E G F ",
"F E F.H.G.E F.G.G.F.@.O.F.G.H.F.@.F.@.@.G.H.F.@.F.G.H.G.F.S M 7 8 8 6 8 8 q 0 0 j _ ' _ ^ M C A F O.@.O.F.G.G.G.@.@.@.@.G.H.F.@.F.H.H.H.H.F.F.H.H.F.F.H.H.E G G ",
"T F.H.H.G.E E G.H.F.H O.O.O.O.O.@.G.H.H.G.O.G G.G.F.H.G.F , = y z z k k ( 3.4.3.z.].3X0.k = X # N D O.O.E E G G @.G.H.H.G.T G H.H.G.H.H.H.E E G.G.H.H.H.H.G.F.E ",
"G E G.G.G.E F.F.F.F.@.H F.G.F.@.F.G.F.@.#.F.F.G.#.@.O.Y K L v c z ( ) 3.5.5.0.S.3X5X<XA.8.j a q 3 N A G G.G.E E G.G.G.E G.G.G.G.F.O.H.H.H.@.@.G.H.H.G.@.F.G.G.E ",
"G E F.F.F.F.H.G.F.G.G.@.G.G.H.G.G.H.@.O.F.H.H.@.H F S J ` f.f.6.( z 1.3.7.9.C.3X5X<XD.D.t.8.7.6.h w n S E G.H.G.G.G.E E E H.H.E @.O.F.H.H.G.G.G.H.G.F.G G H.F.G ",
"G T @.@.F.H.H.H.H.H.H.H.O.@.H.G.F.H.H.F.F.F.@.H F A 3 d | g.x.x...( <.5.t.C.,X3X<XZ.y.D.D.D.Z.e.6.h w n S E H.H.G.H.G.F.F.F.R E O.G.@.G.H.G.G.H.G.F.F.F.H.H.H F ",
"G G T G @.H.G.G.H.H.G.F.@.@.H.H.H.H.G.G.G.G.@.O.A 2 = q c } z._.m.o.1.8.S.3X3XC.w.q.t.D.D.D.Z.e.8.3.( e B D G.H.H.H.G.G.H.G.F.E @.G.@.@.F.@.F.H.H.G.F.G.H.H.G S ",
"G G G G O.F.@.F.H.H.G.E @.G.G.H.G.G.F.F.H.H.#.@.C # ; 0 u l l..X.XM.d.V.3X*X3XB.4.5.w.t.y.Z.t.w.9.9.0.' J Z T E H.G.F.#.H.H.F.@.F.G.F.O.O.O.@.G.H.H.G.G.H.H.G F ",
"E T G T G G @.G.H.G.G.F.@.@.G.F.O.@.O.@.H.H.G.F.Z # 6 0 h c o._.XXXX X.XoX=X3XB.7.5.8.w.e.w.w.7.q.0.V.`.i.i m S O.O.O.@.H.H.H.F.G.H.H.H.F.G.H.F.G E H.H.H.F.F.E ",
"E E T E F.F.F.@.F.@.F.F.G.F.@.F.F.@.F.F.F.G.G.H.S & = q h k [ z.c.b.N.XX&X%X,XB.7.7.8.8.9.9.7.7.0.C.M.n._ : n S G.@.G.G.G.G.G.G.G.G.H.G.G.G.H.F.T T H.G.E E E E ",
"G E F.G.G.H.F.F.@.@.@.F.G.F.F.G.H.G.H.H.@.@.F.F.A & = q h h x ) ) } z.|.&X&XS.B.7.7.8.8.8.7.7.9.C.`.M.l.k ; $ D H.H.H.G.@.@.G.H.H.F.G.G.F.G.G.H.E E G.E G E G G ",
"S T G.F.F.G.G.G.G.@.@.H.H.G.H.G.G.G.H.G.@.@.T A 2 * 8 q h f h h t u o.|.&X&XM...1.1.6.6.1.1.8.C.M.b.n.x.i.i.i Z +.J.H.G.@.F.G.P.H.G.H.H.G.@.F.F.G.G.G.F.F.H.@.F ",
"F T @.E F.F.@.@.@.@.@.G.F.F.F.@.@.F.@.@.O.O.D 2 * 6 8 f f f q r t z d._.XXXXM.o.( <.z ( ( ) z.b.m.d.d.b.}.b.L J =.$.J.O.O.@.F.F.F.O.@.O.O.F.G.G.H.G.@.E O.H.F.E ",
"E E T #.F.@.G G G O.O.F.@.@.O.O.O.O.O.F T G A * + 8 q a h f q 0 k X.x.n.n.n.n.x.X.( u l / l.b.n.d.( { x. XM.L ] 2.$.O.H H @.@.H H H G G O.F.H.H.H.F.T G G F.E E ",
"T T F.H.G.F.T T @.G E F.G.H.H.H.G.#.O.H @.O.F - + 6 9 y f f q h | g.c...( ( l.M.n.X.l ( l.M.b.o.z z ( { } ] p / r.J.@.F @.G.G.G.F.F.F.F.G.F.F.G.G.G.F.E T F.E G ",
"G O.F.F.G.H.G.F.G.@.@.F.H.H.H.G.G.H.F.F.G.G.T 3 @ : 9 8 q q j | a.f. .k t u [ x.m.n.z.l.n.b.l.( l z ( z l y @ d ,.L.G.F.G.H.H.H.G.H.H.H.H.@.@.F.@.@.G.G.F.F.O.G ",
"G G O.O.F.H.H.H.G.G.F.G.H.H.@.@.F.H.H.H.H.@.P g p p q q f f [ h.f.| h y y y h ) l._.XX.Xm.X.( ( z ( ( z z q O 9 =.L.P.P.H.H.H.H.H.H.H.H.G.@.O.@.G H G.H.G.@.E T ",
"F G T @.@.@.@.@.@.O.O.O.T @.G.H.G.G.E E D N 1 : s v b  . .s.s.s.| x 0 q f q y u { x.|.XX`...( l c k k k k 9   0 =.L.H.H @.F.G.G.H.H.H.H.G.@.O.O.F T F.H.H.O.G D ",
"F F O.F.@.T T T H H H G G G O.G.H.F.F.T C > % @ p p.a.h.h.c.g.| j q q q f f q y h ..n..Xb.[ u l k h h h h 6   w =.$.G.H @.H @.H #.G.H.H.G.F.@.#.@.O.G.H.H.G F D ",
"F F E E E G G G G G G G G G G @.F.F.G.G.F n & > 3 g ` p.h.v.g.x 0 0 f a f f a q r j s.N.m.] h y h f q q q +   M +.$.H.H.H.@.H H @.G.H.H.H.H.H.H.H.G.H.H.G.G F F ",
"F T E E E E G G G G G G H @.H F.G.G.H.H.F.G F O.A 1 = p b h.a.x q q a a f f f q r f [ c.g.[ h y h f q 9 + * , S J.F.H.H.H.H.@.G.H.H.H.H.G.F.G.G.#.T O.F.H.F.O.T ",
"P T E F.G.F.O.T E @.@.E @.G.G.H.H.G.H.H.H.G.H.H.D # . o d a.p.x 0 8 q a f f f a y a x  .s.s.] j y 0 9 = * 2 S F.H.G.G.H.G.G.G.H.H.H.H.G.@.F.F.G.H F H @.H.G.@.E ",
"E E E G.P.H.@.O.F.H.H.H.G.G.H.H.H.F.G.H.E E @.O.A > o + s p.p.s 8 8 q a h f a a a a a j ` c.f.v 0 6 5 + 2 S F.H.G.G.H.H.@.F.H.F.G.H.H.F.T F.H.H.O.F G G.H.O.T T ",
"F G E F.H.H.H.F.H O.G.H.F.@.H.G.@.H.H.F.D C 2 2 M m C C e v v s p 9 q q q q q q a 9 0 0 | v.a.x 4 4 + o M F H.G.@.G.H.H.G.H.H.F.G.H.H.H.F.H.H.H.G.@.G.H.H.@.O.G ",
"F G E E G.H.H.G.O.H @.H.F.@.G.F.@.H.F.T A 2 % # < S O.O.Z B i g p 9 6 8 9 9 9 9 9 8 8 8 v g.` d # # = - M A E E @.H.F.@.H.H.H.G.F.H.H.H.H.H.H.H.G.H.H.H.G.F.O.O.",
"G E G.H.H.H.G.G.H.F.@.H.F.F.F.H.G.F.T F S N > > N H @.G.T A N B 3 : 6 5 + 6 6 5 6 5 4 5 p v d B N m n M 2 < V T H.F.O.F O.H.H.O.O.@.G.G.H.H.H.F.@.@.@.#.F.G.@.O.",
"G E H.F.G.H.H.G.H.H.G.F.G.G.G.H.H.E T F F S A A D H @.@.G F F P Z 2 + o o * * % * * * * * ; B D H O.H F N > , G H.@.H H O.@.@.O.O.O.@.@.@.#.G.G.G.G.G.G.H.G.F.O.",
"F @.G.O.@.H.G.G.H.H.G.O.F.G.H.H.H.E O.G G @.O.O.@.@.F.H H F.G.H.@.A & X X 2 n n n M n , > , S H G.G.G.@.C n m T H.@.O.O.O.H O.O.@.@.@.@.@.@.G.H.H.H.H.H.H.H.F.E ",
"O.@.O.O.O.@.@.@.G.H H H H H G.H.H.G.G.F.F.G.G.H.G.H.G.H.H.H.H.H.G.O.N # > D @.#.@.H F S D F H @.G.O.O.F F F O.G.H.G.F.@.F.G.H.H.H.G.G.H.H.H.H.H.H.H.H.@.T F.F.E ",
"T @.F.O.O.O.@.@.@.O.O.@.H H @.H.H.H.G.G.@.F.G.H.H.H.H.H.F.G.H.G.F m $ , C G G.H.H.G.G.O.H @.O.@.@.O.O.@.O.H F.H.H.H.G.F.@.F.G.H.H.H.H.G.@.G.G.G.@.@.G.O.T O.E E ",
"F @.G.G.@.@.@.O.O.O.@.G.H H F.H.H.G.H.G.@.@.F.H.H.H.H.G.H F.G.G.Z 1 > A O.G F.H.F.G.H.F.@.@.@.@.O.O.@.G.O.F F.G.H.G.G.H.@.@.F.H.H.H.H.G.@.@.F.G.E T @.F.@.G E E ",
"O.@.G.H.H.H.G.G.F.O.G T F O.H.G.F.F.G.H.H.H.H.G.F.G.G.H.H.H.H.H.I.W.-.L.G.F.G.H.H.G.G.G.H.H.G.F.G.O.O.G T T H.G.F.F.G.H.H.H.H.F.G.G.G.H.H.H.H.H.H.H.H.H.H.E E E ",
"O.@.G.H.H.G.G.H.H.G.@.@.@.F.H.H.G.F.F.G.G.F.F.G.G.F.F.F.G.H.H.J.L.I.I.I.H.G.G.H.G.G.G.H.G.G.H.G.J.F.@.@.@.F.H.H.G.@.F.G.G.F.F.G.G.G.G.@.G.G.G.G.H.G.F.H.H.G.E E ",
"T E G.G.F.F.G.H.H.H.H.H.H.H.H.H.G.H @.G.H H H H.H.F.F.H H H @.G.H H @.G.H.G.G.H.G.G.H.G.G.F.G.H.H.H.H.H.H.H.H.H.G.O.O.F.@.O.O.H.G.@.@.@.O.O.@.@.O.E E F.H.F.E E ",
"E E F.F.H.H.F.@.F.G.H.H.H.H.H.F.@.F.H H H F.G.H.G.H H @.@.@.H H H H @.@.G.G.F.G.G.G.@.F.H.H.G.@.F.G.H.H.H.H.H.@.@.@.O.O.O.O.G.H.G.O.O.@.@.O.O.O.H T #.F.G.G.E G ",
"T E F.G.G.F.@.@.@.@.@.@.G.H.G.@.@.F.@.O.E G.H.H.G.G G H @.H H H G G F.F.@.F.F.G.G.F.F.G.G.F.@.@.@.F.@.@.G.H.G.F.@.F.@.O.F.F.H.H.F.G H O.@.O.H H G G G.F.E G.E G ",
"T E H.H.@.T O.#.G.F.@.H #.G.G.F.H.H.G.G.H.H.G.H.G.O.G G G H G H G O.G.G.F.F.F.G.F.G.H.H.F.G O.F.F.F.O.H F.G.G.G.G.H.G.G.H.H.G.H.G.O.H G G H G H G E G.G.F.F.E T ",
"T @.G.F.O.G G O.H.H.G.G.H.G.F.G.H.H.P.H.H.H.H.H.H.G.H G G G @.@.@.@.F.F.G.H.H.G.G.G.G.F.E F G E H.H.H.G.H.H.@.G.H.H.H.H.H.H.G.H.H.G.O.G G G O.@.E E F.F.G.G.F.E ",
"T E G.F.F.O.H F.H.H.H.H.G.G.F.H.H.G.H.H.G.F.F.G.H.H.G.@.G @.F.G.G.G.F.F.F.G.H.H.H.G.G.F.@.@.G @.H.H.H.G.G.G.F.H.H.H.H.H.H.F.@.G.H.H.F.O.O.@.F.G.G.G.F.F.F.H.E E ",
"G F.G.H.H.H.G.H.H.F.@.O.F.H.H.H.H.G.G.G.G.H H G.G.H.H.H.H.H.H.H.H.H.H.G.@.F.F.G.F.G.H.H.H.H.H.G.H.G.@.@.@.G.H.H.H.F.G.G.G.O.E F.H.H.H.H.H.H.H.H.H.H.H.G.E G.E G ",
"G G G.H.G.@.G.H.G.F.@.O.G.H.H.G.F.F.O.@.G.H.G.G F.H.H.H.H.H.H.H.H.G.#.F.F.@.E @.@.F.F.H.G.@.G.H.F.G.@.G F.P.P.G.F.F.E @.G.H.G.E @.H.H.H.H.H.H.H.H.G.E G.G.E G D ",
"G G G.H.F.E F.G.H.F.O.T @.G.H.F.@.F.@.@.H.H.G.@.F.G.H.H.H.G.G.G.H.F.@.G.H.@.@.@.F.F.F.H.F.O.F.G.G.F.@.E F.H.G.F.F.F.F.@.H.H.F.#.F.H.H.H.H.F.F.H.G.G.E H.H.E G G ",
"G F.H.H.G.@.E F.H.@.E E @.O.E E @.G.H.H.G.G G H.G.G.G.H.H.F.E G.G.H.H.H.H.G.H.H.H.H.H.H.G.@.E G.H.@.G E G O.E G E F.H.H.G.G T G.G.F.H.H.H.@.E G.H.H.H.H.H.H.F.E ",
"G E H.G.F.@.F.F.F.F.E T F.G.@.E F.G.F.E E F.G.H.G.G G.H.H.F.@.G.H.H.G.E E H.H.H.G.G.G.G.F.#.F.F.G.F.@.G F.G.E F.F.G.F.E F.F.F.G.F.@.G.H.H.@.@.G.H.H.G.E F.G.G.E ",
"G E E F.F.G.H.G.E H.G.E F.H.H.G.G.H.@.E F.H.H.F.G F.F.H.H.G.G.G.H.H.E E E H.H.H.F.@.F.@.F.F.G.G.F.G.G.@.G.H.H.G.G.H.@.E F.G.H.F.E O.F.H.H.G.G.H.H.G.G.G G H.F.G ",
"G E E F.G.H.H.H.H.H.H.H.E @.H.G.F.H.H.F.G.F.@.G @.F.F.G.H.G.G.G.G.F.E F.G.H.F.@.F.@.@.@.G.H.H.H.H.H.H.H.E E H.G.F.H.H.F.F.F.@.T O.G.F.G.H.H.G.H.G.F.E G.G.H.E G ",
"G G G E E G.G.H.H.H.H.G.E E H.H.H.H.G.G.G.G.@.G F.G.E @.F.@.F.H.H.H.F.F.H.H.@.G F.@.T O.@.H.G.G.H.H.G.F.E E H.H.H.H.G.G.H.G.@.T @.G.@.O.@.@.F.H.H.G.F.G.H.H.G S ",
"G G G G E E E G.H.H.G.E E G.H.H.G.G.F.F.H.H.G.@.F.G.F.@.G @.F.G.H.H.F.G.H.H.@.O.G.@.T T O.@.@.F.H.H.G.G F.G.H.H.H.F.F.F.H.H.F.@.F.H.F.O.O.@.@.G.H.H.F.G.H.H.E D ",
"E G G E E G E G.H.G.G.F.E F.G.F.O.@.E @.H.H.G.G.G.H.H.G.G.G.G.F.T T H.H.H.G.G.H.H.@.F T O.T @.F.G.H.G.G.E F.G.F.O.E O.@.H.H.G.G.F.H.H.H.F.H.H.F.G E H.H.H.F.E G ",
"F F G G G G E E G G E E E E E E O.O.T @.H F.@.F.@.@.F.F.@.G.F.G F F @.E G G @.F.@.T G T T O.T E G G G E E E E E O.T O.@.@.@.@.@.@.@.F.@.O.@.F.O.G F E E G G G G ",
"S D G G E E G G G D G G G G G G @.T E T F G G @.H G G G G G E G F F G F S F F T T F G G T T T F G F G G G G G G O.E O.E F F G @.E G G G T G T O.F F G F S F S S "
};
