/* XPM */
static char *Group_10_resized[] = {
/* columns rows colors chars-per-pixel */
"80 80 186 2 ",
"   c #273A2F",
".  c #283A33",
"X  c #2F5216",
"o  c #335B1C",
"O  c #37631B",
"+  c #39651C",
"@  c #3D6D1E",
"#  c #3F711F",
"$  c #2C4824",
"%  c #2F4C2C",
"&  c #304E2E",
"*  c #2F5121",
"=  c #325523",
"-  c #365D23",
";  c #385E25",
":  c #33532C",
">  c #36582C",
",  c #395C2C",
"<  c #2E4830",
"1  c #314D33",
"2  c #354D3D",
"3  c #355434",
"4  c #395635",
"5  c #375835",
"6  c #3B5C34",
"7  c #355339",
"8  c #3A553D",
"9  c #375939",
"0  c #3B5A3B",
"q  c #3A6424",
"w  c #3D6C23",
"e  c #3D642C",
"r  c #3F6B28",
"t  c #3F7120",
"y  c #3E6233",
"u  c #41751F",
"i  c #43781F",
"p  c #406F26",
"a  c #40662F",
"s  c #416C2C",
"d  c #417620",
"f  c #457C21",
"g  c #487F23",
"h  c #437329",
"j  c #406633",
"k  c #406830",
"l  c #303F46",
"z  c #303C5E",
"x  c #2F3762",
"c  c #323C66",
"v  c #323D68",
"b  c #2E4144",
"n  c #2F414D",
"m  c #314545",
"M  c #354A45",
"N  c #384F42",
"B  c #31444A",
"V  c #354C4C",
"C  c #384F4C",
"Z  c #395443",
"A  c #3A524E",
"S  c #334553",
"D  c #344852",
"F  c #384C52",
"G  c #33435B",
"H  c #364959",
"J  c #384C5B",
"K  c #3B5355",
"L  c #3C5A54",
"P  c #3C535E",
"I  c #354463",
"U  c #3A4C64",
"Y  c #35416A",
"T  c #3B4D69",
"R  c #3C5362",
"E  c #3F5D62",
"W  c #3B4C74",
"Q  c #3E4F7C",
"!  c #3F527B",
"~  c #40546F",
"^  c #415574",
"/  c #455F7E",
"(  c #47637F",
")  c #478022",
"_  c #498423",
"`  c #4C8A24",
"'  c #3D4D80",
"]  c #425581",
"[  c #455A86",
"{  c #435689",
"}  c #465A8D",
"|  c #485E8D",
" . c #475C91",
".. c #495E93",
"X. c #495E98",
"o. c #4B6885",
"O. c #4C6A86",
"+. c #49638B",
"@. c #506F8B",
"#. c #53778F",
"$. c #4B6394",
"%. c #4C639B",
"&. c #4F689C",
"*. c #51699D",
"=. c #547595",
"-. c #4F66A0",
";. c #4F69A1",
":. c #526CA4",
">. c #546FAB",
",. c #5572AB",
"<. c #5A7AAC",
"1. c #5A77B4",
"2. c #5B7AB5",
"3. c #5D7DBA",
"4. c #5F80BD",
"5. c #6389B7",
"6. c #6081BE",
"7. c #6894BA",
"8. c #6B99BD",
"9. c #6FA3BC",
"0. c #6284C3",
"q. c #6489C6",
"w. c #6487C8",
"e. c #668CCA",
"r. c #688FCD",
"t. c #6D9BC3",
"y. c #6A92CF",
"u. c #6F9DC8",
"i. c #6C95D3",
"p. c #6E98D6",
"a. c #6F9AD9",
"s. c #719DDB",
"d. c #6FA0C4",
"f. c #73A8C7",
"g. c #73A2CD",
"h. c #78ACD4",
"j. c #73A1DE",
"k. c #76A5E3",
"l. c #78A7E6",
"z. c #77A8E4",
"x. c #78A9E6",
"c. c #7AADE9",
"v. c #7CB1E1",
"b. c #7DB2EB",
"n. c #7CAFF0",
"m. c #7EB5F0",
"M. c #7FB8F2",
"N. c #82BDDF",
"B. c #82BCE9",
"V. c #80B7F3",
"C. c #82BBF4",
"Z. c #84BEFA",
"A. c #85C4E4",
"S. c #88C6E4",
"D. c #88CBE6",
"F. c #8ACCEB",
"G. c #8ED4EA",
"H. c #93D8EE",
"J. c #88C9F5",
"K. c #86C3FD",
"L. c #88C6FF",
"P. c #8ACAFF",
"I. c #8ED1FF",
"U. c #94DCF0",
"Y. c #98DEF0",
"T. c #91D6FE",
"R. c #92DBFF",
"E. c #97E4F7",
"W. c #9BE7F5",
"Q. c #96E4FF",
"!. c #98E6FE",
"~. c #97E9FF",
"^. c #9BEAFF",
"/. c #9EF1FE",
"(. c #A4EEFF",
"). c #A8EFFF",
"_. c #A2F5FE",
"`. c #ACF2FF",
"'. c #A4FAFE",
"]. c #ABFCFD",
"[. c #B3F5FF",
"{. c #B8F6FF",
"}. c #BCF9FF",
"|. c #C3FBFF",
" X c #CCFEFF",
".X c #D3FFFF",
/* pixels */
"X O u @ # # u u u @ @ u i i u u # # i # # @ # ) i i i i # @ @ @ # # f # @ f i @ O @ # @ @ u # # u @ @ u # # i # # i i u @ @ # i f u u u u @ @ @ # u i # u i @ o ",
"+ @ u u u u # # # @ # f i u i # # i i # # # # i # # # # # d f f f f u @ # i f f f u # # u u # # u # u i f f i # # i # # # # u i u @ u @ @ d f f f i u # u f u + ",
"i i u i g f @ u u i i f f f f d t f # # # i f t t t # @ t _ ` ` ` ) u # # f ` ` ` ) d f ) f # # # i i ) f f f t t f # # # f f f u u @ u d _ _ ` ` f u @ u i i u ",
"u i _ ` _ _ u u i u i ) _ ` ` ` _ _ t t f _ ` _ _ ) ) _ _ ) ) _ _ _ ) i i ) ) ) _ _ _ _ _ ) i u i u u ) _ ` ` ` ` ) # # f ) ` _ _ i _ _ _ g _ _ _ _ ) f i _ i u ",
"u u g _ _ _ _ _ ) f f ) ` ` ` _ _ _ ) ) ` ` ` ` ` _ ` ` _ f f f f f _ _ f ) ) _ ) ) ) ) ` ` _ ) _ i f ) ` ` ` _ ` _ _ _ _ ` ` ` ` _ ` ` _ g f g f f _ _ f g i u ",
"u u u u _ ` ` _ _ _ ) ) ` _ f f ) ` ` ` ` ` ` ` ` ` ` ` _ f d f t t _ ` _ f ) ` ) f u d ) ` ` ` ` _ ) ) ` ` f f _ _ ` ` ` ` ` ` ` ` ` ` _ f d f # u _ ` _ i i u ",
"@ u u i g g i f f f d f f f _ ` ` _ f d f f f _ _ ` ` _ _ i i f @ # ) ` ` f f d f f # f f f f f i f d f f f _ _ _ _ ) t f f _ _ _ ` ` ` _ i u d @ @ g ` ` f @ + ",
"@ @ u i i u i u t @ # t @ # f _ _ ) f f d f f d ) ` ` ` ` ) ) ) f i _ ` _ d # u f f i ) f t # t # # # # @ t f _ _ ) f f t f f t g _ ` ` _ _ g _ f f _ ` ` d @ O ",
"# # # ) ) # # # # # # # t # @ t _ i ` ` ` ) i # f _ ` ` ` ` ` ` _ _ _ ` _ t t f f f f f f @ # # # # # # t # # t _ ) _ ` ` ) # # d _ ` ` ` ` ` ` _ _ ` ` _ @ @ @ ",
"@ # i i # f # # # t # @ f f t _ _ ) _ ` ` _ f _ _ ` ` ` ` _ _ ` f u f _ _ _ _ ` f t f f f f # # # t # # # ) t ) _ _ ` ` ` ` ) _ ` ` ` ` _ _ _ _ f t f ) _ _ f u ",
"# # f _ _ _ t # u f f f ) _ _ ` ` _ ` ` ` _ _ ` ` ` ` _ f f _ _ d + @ f ` _ _ ` ) f t ) _ _ t t t ) ) # ) ) _ ` _ _ _ ` _ _ _ ` ` ` ` _ f f _ _ t @ @ ) ` _ f u ",
"i # # ` ` ` ) t ) ` ` ` _ _ ` ` ` _ _ ` f ) ` f _ ` ` g u _ ` ` f @ t _ _ f f _ ` ) # ` ` ` f f ) ` ` ` _ _ ` ` ` _ _ ` ) ) _ ) _ ` ` _ u _ ` ` d @ # _ ` u u u ",
"# # # ) ` ` ` ) # f ` ` ) f ` _ f _ ` ` _ ` _ _ _ ` ` ` _ _ ` ` _ f _ ` ` f _ _ ) f f f ` ` ` _ # f _ ` ) f ` _ ) _ ` _ _ ` _ _ _ ` ` ` _ ` ` ` _ ) _ ` ` f u u ",
"@ # i ) ` ` ` _ # t f ` ) f _ f f _ _ f ` ` ` g _ ` ` ` ` ` _ _ _ _ ` _ ) f f f f t i i ) ` ` f # # f ` ) f ` f f _ _ ) ` ` ` _ _ _ ` ` ` ` ` _ _ _ ` ` _ f f @ ",
"u i ) ` ` ` _ _ ` ) f _ ) ) _ ` _ _ d @ f ` ` f d f _ _ _ _ f t w @ w @ t d f f t # t # f d t d _ # ) _ ) ) _ ` _ _ # # ) _ ` t d f _ _ ` ` ` ) f f ) f _ _ f i ",
"# i ` ) _ ` _ _ ` ` _ ) _ _ _ ` ` f u @ d f f d u d f f f d q : < 3 : : : : : > : : : : % : < : w ) _ _ _ _ _ ` ` i # # # ) ) t d f f f f f _ _ _ _ _ _ _ ` ) i ",
"# i _ i f ` _ _ ` _ _ f f _ _ ` ` f i u u t f f d f f f d ; 7 D G G D D S S S S S S S n S S G n 5 t ) t t _ _ ` _ f t f # t f t f f f f f f ) ` ` ` ` ` _ ` _ i ",
"i i i # u f f ) ) f # t # d ) ` ` _ _ i ) _ _ _ _ ` ` f h 0 R $.*.%.$....... . .$.%.&.-.-.:.<.=.E 5 = O o + f _ ` _ ) f ) _ ` ` ` _ _ ` ` ` ` ` ` ` ` i d _ f i ",
"u i _ i u u f f f t d f # # _ ` ` ` ` _ f f _ ` ` ` _ p 3 R $.4.w.0.3.3.3.1.1.3.0.w.i.i.i.a.v.d.#.K . .   % w _ ` ` _ ) f ) _ ` ` ` ` ` f ) _ ` ) i ) i u d i u ",
"# i ` ) f f f f t f f ) t # ) ` ` _ _ _ f f ) ` ` f d 4 G | 4.p.s.s.p.i.i.i.i.i.j.b.M.M.M.J.Q.G.9.O.I x z V , d ` _ _ _ i f ) ` ` ` ` _ f f _ _ i # ) ) f u u i ",
"f f _ ` ` ` _ _ ) f # # w d ` _ ) ) _ ` ` ` ` ) u p 7 R $.3.s.x.c.l.l.c.b.m.n.m.K.I.Q.R.Q.E./.W.F.d.5.<.<.@.L e # ) ` ` ` ` ` ) ) _ _ ` ` ` ` ` ` ` ` ` _ f f i ",
"u f _ _ ` _ _ _ ` _ f f f _ ` ` ) f f _ _ _ ) f p 3 U +.3.s.x.x.k.k.l.V.M.K.Z.K.I.Q.^.^.^.^././.Q.F.A.S.N.9.O.A = q f ` _ ) f _ _ ) ) ) _ _ _ ` ` _ _ ` ` _ i i ",
"# i ` _ ) _ _ _ ` ` ` ` ` ` _ ` _ f f f f # @ t 6 H $.3.a.l.j.j.p.s.l.V.K.P.P.P.I.Q.^.^.^.(.(.^.~.^./.'.W.D.t.o.b : + f f # f ` ` ) f f t t f f i f u _ ` _ i u ",
"u i f _ _ ` _ ) ) ` ` ` ` ` _ _ f f f t i # q 7 P | 0.s.l.j.j.p.j.k.V.Z.K.I.I.T.Q.Q.^._.`.[.[.`._././.'.'.~.F.7.( V : O # f ) ` _ t # f f f f t # u f ) _ _ i u ",
"u i _ _ _ ) ) f f ) f f _ _ _ f f ) f f d q 9 R $.4.s.z.j.j.j.j.z.V.K.K.L.I.R.Q.~.~./.`.}.|. X|.[.`./././._./.S.8.o.A * w f ` ` ) # t f f t # t # # ) ) ) ) i # ",
"# f ` _ f # t ) _ ) f t _ ` _ _ ) ` ) f w 5 J &.0.a.x.x.j.s.j.x.B.K.P.L.L.T.R.!.^.(.`.}. X.X.X X}.`.(.^.^./.'./.F.u.o.C y f _ ` ) f # # # # # # # # _ _ ) ) i i ",
"u i _ ) i # # i ` ` _ _ _ _ f _ ` ` ) w 7 J | 0.a.j.k.j.s.s.j.V.Z.J.L.K.L.I.R.^.'.{.}.|. X.X.X X X|.{.).^.^././.!.F.8.O.L 6 w g ` _ # # @ # t f ) i ) ) _ ` ) # ",
"u f _ _ f f # i ` ` _ _ _ _ _ ` ` _ t 9 R +.3.a.k.k.j.s.s.z.V.K.L.L.L.K.L.I.R.^.`.}. X X X X X X X X}.[.^.^./././.^.S.7./ M = f ` ` ) f f f _ _ ) ` ) ) ) _ ) # ",
"u i ` ` ` ` _ ` ` _ f f ) ` ` _ f r 9 R &.0.a.c.x.k.j.j.x.V.K.P.P.P.K.K.K.P.R.^.`.}.|. X X.X X X X|.}.`.^.!.Q.^.'.].E.h.&.z $ d ` ` _ _ ` ` ` ` ` ` ` ) ) ) # # ",
"# u ) ` _ i _ ` _ _ f # ) ` ` f q 7 R $.6.a.k.k.k.s.j.c.V.Z.L.P.P.L.K.K.L.P.R.~.(._.[.}. X.X.X.X|.{.`.(.^.^.!.^._.].Y.g. .S * + _ ` ` ` ` _ ` ` ` ` ) ) _ # # # ",
"@ i _ ` ) i ) ` _ _ f f ) _ ) w & D [ 3.a.k.k.j.s.s.k.b.Z.P.P.L.L.L.L.K.L.P.R.^.^.^.(.[.|. X X|.{.).^.!.^.!.^.^._.'.U.h.&.R 3 q f _ ` ` ` ) ) ` _ _ i ` _ ) # # ",
"u ) ` ` _ i i _ ` f t t i f t + < Y %.e.z.c.z.j.p.s.z.V.J.P.P.L.K.L.L.K.L.I.Q.^.~.~.Q.).[.}.}.{.`.^.~.E.!.^.^.^.^._.E.A.d.#.L 6 + u _ ` ` i i _ ` ` ` ` ` _ ) # ",
"# i _ _ _ i ) _ ) ) f # ) _ f + & I ..w.k.c.z.j.a.a.z.V.K.P.P.L.L.L.K.K.K.I.Q.^.^.^.^.^.(.).).(.^.^.Q.~.Q.^.^.^.^.^.^.E.G.f.=.E 1 - f ` ` f f _ ` ` _ f ) _ _ ) ",
"# i ) ) ) ) _ _ ) _ _ f _ ` ` w : G } 0.a.k.k.s.a.a.z.m.K.P.P.L.L.L.L.K.L.P.T.Q.^.^.^.~.^.~.~.~.^.^.^.^.^.^.^.!.^.^./.'.'.G.t./ b * f ` ` _ _ _ ` _ ) t # ` ) # ",
"# u f f _ ` ` ` ` ` ` ` i f ` t : G } 3.a.k.k.j.a.j.z.b.K.L.P.L.L.L.L.K.L.P.P.R.Q.^.^.^.Q.Q.Q.Q.Q.^.!.^.^.!.^.^.!.!./.'.].H.u.{ n = t _ ` _ _ ` _ ) ) ) ` ` # @ ",
"# # i # f _ _ _ ` ` _ ) f f ` t : G } 0.s.k.k.s.a.p.z.b.K.P.P.L.L.L.L.L.L.L.L.P.T.Q.^.^.~.~.~.~.^.!.^.^.^.^.!.^.^.!./.'.'.G.t.] n - t f _ f ) ` ` _ ) ) ` ` # O ",
"# # # # t ) ) _ ` ` ) i f _ _ t 3 G } 3.j.z.k.j.a.p.z.m.K.L.P.L.L.L.L.L.L.K.Z.K.P.R.!.^.^.^.^.^.^.!.^.^.^.^.^.^.^.^./.^.^.F.7.^ m - t f f t f ` ` _ _ _ ` _ # @ ",
"i # # u # # i _ _ ` _ ) f ) _ w & S  .6.a.z.k.j.j.p.z.m.K.J.P.L.L.L.L.L.L.K.K.K.L.P.T.Q.^./.^.^.^.^.^.^.^.Q.^.^.^.^._.(.R.B.0.^ b - _ ` ) ` _ f # f ` ` ` _ ) # ",
"u i i i f ) f ) ) ) ) ) _ ) ) + : z } 3.s.z.z.s.s.s.z.m.K.P.P.L.L.L.L.L.L.L.L.K.K.K.P.R.Q.^.^.^.^.^.^.^.^.^.^.^.^.^.(.Q.T.c.3.' b q f ` ) ` _ _ # # ` _ i i i ) ",
"# i _ _ ` ` ) ) i f i _ _ _ f w > G  .6.s.z.j.j.s.s.j.m.K.P.P.L.L.L.L.L.L.L.L.L.K.K.L.P.R.Q.~.^.^.^.^.^.^.^.^.^.^.!.R.T.I.c.3.Q b q t _ ) ) _ ` ) i _ i # i # # ",
"O u _ _ _ _ _ _ _ f f _ ` ` _ t 3 S } 3.s.l.k.s.s.s.k.b.J.P.P.L.L.L.L.L.L.L.L.L.K.L.K.L.P.T.Q.^._.^.^.^.^.^.^.(.Q.R.T.T.P.x.6.^ m - _ ` ) f f ) _ _ ` f f ` f @ ",
"@ u f g i _ f i f f f _ _ ) ) q & G } 0.s.l.k.k.p.s.z.V.K.P.P.L.L.L.L.L.L.L.L.L.L.L.L.K.L.P.T.Q.!.!.!.Q.^.!.^.Q.R.P.P.T.I.V.6.Q b = t f f ) _ _ _ _ f f i ` ) i ",
"i u u i ) f # # u u f ) f f f + % G } 3.s.l.k.s.p.s.k.V.L.P.P.L.L.L.L.L.L.L.L.L.L.L.K.K.K.L.I.I.R.R.T.R.R.R.R.T.I.L.P.P.P.B.6.Q b * + t t ) ` ` ` _ u @ u f i i ",
"# i _ ` _ ) u u i u u f _ ` _ t : G } 3.s.l.k.j.s.s.k.V.K.P.P.L.L.L.L.L.L.L.L.L.L.L.L.K.L.L.P.P.P.P.P.P.P.P.P.P.P.L.P.P.T.b.6.Q b - f _ _ ) _ _ _ _ _ i u _ i @ ",
"# d _ f _ ` _ _ ) f f ) ` ` _ w 3 G  .w.j.c.l.s.a.s.j.B.C.K.L.L.L.L.L.L.L.L.L.L.L.L.L.L.L.L.L.K.L.K.K.K.K.L.K.L.L.P.P.T.P.c.6.^ B - ) ` _ f f g f f _ _ g g i u ",
"u # u d ) ` ` _ _ ) _ _ ` ` f + & z X.w.k.c.l.j.s.s.j.j.x.C.K.J.P.P.L.L.L.L.L.L.L.L.L.L.L.L.K.K.K.K.K.K.K.K.Z.K.L.P.P.P.K.k.3.' B - f ` _ f f f @ d _ ` _ f u i ",
"@ @ u f f f f f f f d d i f _ w > S { 3.i.k.k.k.j.s.s.s.s.x.V.K.L.P.L.L.L.L.L.L.L.L.L.L.L.L.K.K.K.L.K.L.L.K.L.L.L.P.K.C.x.r.>.W M ; g ` _ f u d @ @ g ` _ f @ + ",
"@ # d _ f u u u t # # d # u f u e M ^ &.3.i.j.k.x.j.a.a.a.k.B.C.K.L.P.L.L.L.L.L.L.L.L.L.L.L.L.L.L.L.L.L.P.P.L.P.P.P.C.k.r.,.[ G 7 w _ ` _ g g _ i f _ ` ` u @ O ",
"@ u u i i u @ u # # # # t # @ t p , A ^ X.3.p.l.x.k.s.a.s.s.j.c.C.J.P.P.L.K.L.L.L.L.L.L.L.L.L.L.L.L.L.L.P.P.P.P.L.J.c.e.,.{ U N , d _ ` ` ` ` ` ` _ ` ` _ @ @ @ ",
"@ @ i i f i u @ @ t u @ u f f f d s 0 C ~ | 1.p.k.k.j.j.s.s.s.j.c.V.K.L.P.P.P.P.P.L.L.L.P.L.L.L.L.P.L.L.K.L.P.K.V.x.q.;.! H N y h g ` ` _ _ _ _ f i d _ _ _ f u ",
"u u i ) _ _ u u d f f f f ) ) _ f p , 4 m U | 3.i.j.x.l.j.a.i.s.k.c.C.K.L.P.P.P.P.P.P.P.P.P.J.P.P.P.L.Z.M.M.Z.C.z.r.:.! S 2 , s d _ ` _ f i _ _ d + u f ` _ i u ",
"u u i ` ` ` f i _ _ ` ` _ ) ` _ h p a a 4 M U ..3.p.x.x.j.s.s.s.s.j.v.V.K.P.P.L.P.L.L.P.P.L.P.P.P.P.J.V.x.z.m.x.i.,.] D 2 6 y e s g ` _ u g ` ` d @ u g ` i u u ",
"@ u i _ _ ` ` _ t f _ ` ) ) ` f p p p s a 6 M T $.2.i.k.k.l.l.k.s.s.k.c.V.J.Z.Z.Z.Z.Z.C.Z.C.Z.C.K.J.K.V.x.j.s.w.:./ F 2 6 s s s h g _ ` ) ` ` ` _ g _ ` ` g u u ",
"+ u i i _ ` ` _ u t f ` ) f ` f u f p p s a 4 V T [ 2.i.j.c.c.k.s.s.s.k.c.b.b.c.c.c.b.b.b.c.c.V.V.V.V.m.l.p.0.;.^ H 2 : s h h d d _ _ ` ` ` ` ` _ _ ` ` _ _ u u ",
"u i ) ` ` ` _ _ ` ) f _ _ _ _ _ _ _ p o , s s 4 m I | 2.i.k.k.j.s.s.s.j.j.j.j.j.j.j.j.j.j.j.k.j.s.k.k.x.j.r.>.! z 8 3 > e p d d u f _ ` ` ` ` ) g f g i g _ i i ",
"u u _ _ _ ` ` _ ` ` _ _ f _ _ ` _ i u + ; a q > 1 m ~ $.3.q.q.q.y.j.x.x.z.z.z.j.z.z.j.j.k.k.x.j.a.w.0.0.0.,.[ K 2 3 , ; ; q u w u i _ i i i ) _ _ g _ _ _ ` _ i ",
"@ f _ f f ` _ _ ` ` ) f f ) _ ` ` i i u @ w q , , 4 N ~ ..X.X.&.4.i.c.c.k.k.k.k.k.k.k.k.k.k.x.j.q.>.%.X.X.[ P 8 , , ; a + u u i f f f f d f ` ` ` ` ` ` _ ` ) i ",
"u f d # d f f f ) d # t t f _ ` ` _ ) i f d h s s s 0 A I c v W $.5.s.s.a.i.i.i.i.i.i.i.i.i.j.y.<.] v c c H Z j s a p p i i _ _ ` _ ` _ ` ` ` ` ` ` ` ) i _ ) i ",
"u f ) d d f d f f d f f # # ) _ ` ` _ _ f f d h h s j Z M l l V ^ *.3.3.3.1.1.1.1.2.1.1.2.3.6.1.+.U l l B M 8 k h p d d i g _ ` ` ` ` _ g ) _ _ i i _ i u i i u ",
"# f _ ) f f f f f t f ) d t ) ` ` _ _ _ g i g f h p j 0 4 4 6 0 K ^ | .. .} } } } } } } ....X.[ ~ N 4 4 1 4 y a p h g _ f f _ ` ` ` ` _ i g _ _ i i i ) i # u i ",
"i f ) ` ` ` _ _ ) f # # @ f _ _ g g _ ` ` ` _ g d p s s h h h a Z F I I I G I G G G I I I I Y G N 4 ; ; ; q s p p d _ ` _ ` ` _ g _ _ _ ` ` ` ` ` ` ` ` ` i i i ",
"u f _ ` ` _ _ ` ` _ f f f ) ` ` _ f g _ _ _ g _ g d d u h d h a 6 2 B M M M M M m M N M M M M N 8 6 q p d d f h d i g _ _ _ g _ _ _ g _ _ _ _ _ _ _ _ ` ` _ ) i ",
"u i _ _ _ ) _ ` ` ` ` ` ` ` ` ` _ u d g f u d ` ` d d d u @ q , 6 6 4 6 y 6 y y 6 y y y 6 6 , 6 y j a h _ ` _ _ _ u f g d u u _ ` f f f d d f f i i i _ ` ) i i ",
"i i i _ _ ` _ f f _ ` ` ` ` ` ) f i f u u i g ` _ u i d d u w ; ; q w h w h r h h p p h h h p a p p h i _ ` _ g f i d u i f _ ` _ d d d f f i d u u i ) _ _ i # ",
"u i _ _ _ _ f f f f f f _ ` _ g f _ f f f ) _ ` ) t # f f t @ q + @ f f f d f f f f f f ) t f t t t t t _ ` _ ) f _ f f f ) ` ` _ t t d f t # t # # ) ) ) ) i # ",
"u i _ ` f # f f _ ) f t f _ _ _ _ ` _ _ ` ` ` ` _ f t # @ # # # @ u f _ f f _ _ f _ _ _ f t t ) _ _ # # ) ` _ ) _ ` _ _ _ ` _ ` ) f # # # # # # # u ) _ ) ) i u ",
"u f _ ) u @ @ f ` ` _ _ ` _ f _ ` ` ` _ ` ` _ ` ` ) f @ # # # ) f f f _ _ _ ` ` _ _ _ _ t # @ f ` ` ` _ ` _ f _ ` ` ` ` ` ` _ ` ` _ d @ # # f f i ) ) ) _ _ ) i ",
"u f _ _ f f # f ` ` ` _ ` _ _ _ ` ` ` ` ` ) f _ ` ` f f # i ) _ _ _ _ f _ ` ` _ _ _ _ _ f f t f ` ` ` _ _ _ ) ` ` ` ` ` ` ) f _ ` ` ) f # f _ _ _ _ _ ) ) ` i i ",
"# ) _ ` ` ` ` _ ` ) f f ) ` ` ` ` _ _ _ _ f t _ ` ` _ ` ` ` ` ` ` ` ` _ f f _ _ _ _ _ ` ` _ ` _ ` _ f f ) ` ` ` ` _ _ _ ) f u _ _ ` ` ` ` ` ` ` ` ` ` ) ) ) i # ",
"# # _ ` _ f _ ` _ ) f d _ ` ` ` _ f f f _ ` ) f ) ` ` ` ` ` ` ` _ _ ) _ _ f i f f f _ ` _ f _ _ ) ) f # ) ` ` ` ) ) i f _ ` _ i ) ` ` ` ` ` ` ` ` ) ) ) ) i # @ ",
"@ # _ ` ) i ) _ ` ) f u f _ _ ) f f f f _ ` ) f ) _ ` ` ` _ _ ` ` _ f _ ` f f f _ _ _ ` _ f f _ _ ) f f f ) _ _ i ) f f ` ` _ i ) _ ` ` ` ) _ _ ` ) ) ` ` i # @ ",
"i ) ` ` _ ) i ) ` f u u i f i i f _ ` ` _ t # ` ` ) ` ` ` ) # _ _ ` ` ` ` _ ` ` _ ` ` ` _ f f _ ` f # # f f f t f _ ` ` ) u u _ _ _ ` ` ` ) i _ ) ` ` ` ` _ ) # ",
"# i ` _ ) i _ _ ) ) i u ) _ f i ) _ ) i ) _ _ _ ) # _ ` ` ) ) _ ` ` _ i i ` ` ` _ _ _ _ _ i f _ _ ) f # f _ ) i _ _ ) f f _ _ _ ) f _ ` ` f f _ ` ` _ i ) ` ) ) ",
"# # ) ) ) _ _ _ i ` _ i ) ` ` _ _ _ ) i ) _ ` ) # ) ) ` ` _ ) _ ` ` i i i ` ` ` _ f f _ f _ ` _ ) _ _ f ) ` ` _ _ _ f i _ _ ` i # ) ) ` ` _ _ ` ` _ _ # # ` ) # ",
"# u i i _ ` ` ` ` ` ` ` f f ` _ _ ` ` ) ) ) ) # ) ) ) _ ` ` _ ` _ ) i ) _ ` ) f f g f f _ ` ` ` ` ` ` ` i f ` _ ) ` ` ) _ g f d # ) ) _ ` ` _ ` ) ) ) ) ` ` # @ ",
"# # i i i _ _ ` ` ` ` _ i i ` ` ` ` _ _ _ _ f # ) ) # ) ) # ) ` ` ` ) ) ` ` i u _ f u u f _ _ _ ` ` ` ) f i ` ` ` ` _ _ _ _ f i ) ) f f f f ) ` ` _ ) ) ` ` # O ",
"# # # # i ) ) ) ` ` ) i ) ) ` ` _ ) ) ) ` ` _ f _ _ ) f # # ) ` ` ` ) _ ` ` f f _ f u u f f f ) ` ` ) i ) ) ` ` ` ) ) _ ` _ ) f ) ` ) f u f f _ ` ` ) ` ` ` # @ ",
"i # # # i # i ) _ ` _ ) i ) _ f i f i f ` ` _ _ _ ` ` _ _ ` _ ) # i ` ` ` _ _ ` _ i # u d u f ) _ _ ` ) i ) _ ) u f u f ` ` _ ) ) ` ` ` f _ ` f # i ` ` ` ) ) # ",
"@ # # # # # i u i # i i i i i i d u u f # ) ) ) f f ) ) f _ ) # @ @ ) i # # f f f u @ u u d u u i # i # i i i i u u u f f f f f f f ) ) f f ) f # @ i i # # # @ ",
"O + # # i i # # @ + @ # u # # # f u i u @ @ # f # # # # # # # i @ @ # + O @ @ u u # @ u u u u @ # + # # # # # # f u f u @ @ u f i # # # # # t i @ @ # @ O + + O "
};
