/* XPM */
static char *Group_10_10__resized[] = {
/* columns rows colors chars-per-pixel */
"80 80 229 2 ",
"   c #15160A",
".  c #1C1C15",
"X  c #18171A",
"o  c #251C0B",
"O  c #321B0C",
"+  c #201F17",
"@  c #221C1C",
"#  c #1E2215",
"$  c #1B2D11",
"%  c #1D2918",
"&  c #36320F",
"*  c #202217",
"=  c #232D16",
"-  c #23231B",
";  c #28201F",
":  c #252B19",
">  c #2C2B1C",
",  c #342719",
"<  c #253315",
"1  c #253B14",
"2  c #2A3D16",
"3  c #293418",
"4  c #2B3C1A",
"5  c #353719",
"6  c #2C1F25",
"7  c #2C2323",
"8  c #282A24",
"9  c #2D252C",
"0  c #302424",
"q  c #322B24",
"w  c #3B2925",
"e  c #372728",
"r  c #352A2C",
"t  c #3A2C2E",
"y  c #3B3229",
"u  c #2F2730",
"i  c #3B2E31",
"p  c #372D38",
"a  c #3E3337",
"s  c #482B0E",
"d  c #52260C",
"f  c #452C18",
"g  c #582315",
"h  c #45381D",
"j  c #583916",
"k  c #79290A",
"l  c #683115",
"z  c #783815",
"x  c #472C28",
"c  c #453326",
"v  c #4D342D",
"b  c #543325",
"n  c #52322A",
"m  c #5D3429",
"M  c #58392B",
"N  c #443334",
"B  c #4A3633",
"V  c #4D3935",
"C  c #43353B",
"Z  c #47383B",
"A  c #4D3B3B",
"S  c #513A33",
"D  c #5B3D32",
"F  c #513E3B",
"G  c #653D28",
"H  c #713D2D",
"J  c #254315",
"K  c #2A4516",
"L  c #2C4319",
"P  c #2E4C19",
"I  c #3D4817",
"U  c #304D1A",
"Y  c #2E5217",
"T  c #33541B",
"R  c #3D541B",
"E  c #345B1A",
"W  c #3B5D1C",
"Q  c #37621B",
"!  c #3A651C",
"~  c #3D6D1D",
"^  c #3F711F",
"/  c #3E6825",
"(  c #3F7220",
")  c #464A17",
"_  c #584917",
"`  c #485919",
"'  c #545A19",
"]  c #624315",
"[  c #6D4516",
"{  c #774515",
"}  c #45631C",
"|  c #49641C",
" . c #446D1E",
".. c #4D6D1C",
"X. c #586B1E",
"o. c #41751F",
"O. c #4C741F",
"+. c #43781F",
"@. c #53721F",
"#. c #5D721F",
"$. c #6E6F1F",
"%. c #68751F",
"&. c #454924",
"*. c #55413C",
"=. c #5B443C",
"-. c #445A34",
";. c #6E492B",
":. c #79492E",
">. c #6A5524",
",. c #674635",
"<. c #60463B",
"1. c #764533",
"2. c #734932",
"3. c #7B4C31",
"4. c #6B533E",
"5. c #77553A",
"6. c #7D5A39",
"7. c #476625",
"8. c #417620",
"9. c #4B7720",
"0. c #457C21",
"q. c #4A7D21",
"w. c #49782B",
"e. c #547C22",
"r. c #517827",
"t. c #5C7C22",
"y. c #596D31",
"u. c #4C7431",
"i. c #657721",
"p. c #6B7C22",
"a. c #747C23",
"s. c #746839",
"d. c #493941",
"f. c #513F40",
"g. c #4E4143",
"h. c #5A4845",
"j. c #624D45",
"k. c #644E47",
"l. c #6A554B",
"z. c #69544C",
"x. c #6C5752",
"c. c #715C51",
"v. c #7B634D",
"b. c #766255",
"n. c #8A2D0E",
"m. c #873815",
"M. c #8B3A16",
"N. c #9A4016",
"B. c #8C7516",
"V. c #85582F",
"C. c #854731",
"Z. c #8B4C34",
"A. c #895835",
"S. c #935A33",
"D. c #995C34",
"F. c #955B39",
"G. c #A15936",
"H. c #846735",
"J. c #8A603A",
"K. c #976735",
"L. c #9D6235",
"P. c #A26D2F",
"I. c #A46234",
"U. c #A86936",
"Y. c #B26A36",
"T. c #BA6B38",
"R. c #AB7436",
"E. c #AA7538",
"W. c #B37839",
"Q. c #C47735",
"!. c #896B46",
"~. c #966D45",
"^. c #967547",
"/. c #89735C",
"(. c #907C65",
"). c #478022",
"_. c #498423",
"`. c #4C8A24",
"'. c #4E8729",
"]. c #528122",
"[. c #538729",
"{. c #568832",
"}. c #678525",
"|. c #778628",
" X c #778F48",
".X c #858726",
"XX c #988727",
"oX c #8A9936",
"OX c #929330",
"+X c #AB8C29",
"@X c #AC9A2F",
"#X c #B79C2E",
"$X c #B7873A",
"%X c #AA9D34",
"&X c #9BA136",
"*X c #AAA432",
"=X c #BDA532",
"-X c #DD9719",
";X c #C78637",
":X c #D58C36",
">X c #CBA02B",
",X c #CCA932",
"<X c #DDB337",
"1X c #E4A83D",
"2X c #E7B335",
"3X c #F7CF3E",
"4X c #A4834D",
"5X c #B58C47",
"6X c #BA9149",
"7X c #AB9159",
"8X c #B4A345",
"9X c #B39865",
"0X c #C99A43",
"qX c #CC9D49",
"wX c #DBA842",
"eX c #D4AA57",
"rX c #EBB441",
"tX c #E9B546",
"yX c #D9B96A",
"uX c #DCCB46",
"iX c #C3C25D",
"pX c #F8CD43",
"aX c #EFD84C",
"sX c #F7D657",
"dX c #FCE04C",
"fX c #DBCC66",
"gX c #EFCE66",
"hX c #FBF178",
"jX c #FBF18D",
/* pixels */
"Y Q o.~ ^ ^ ^ ^ o.~ ^ ^ +.^ +.^ ^ ^ +.+.^ ^ ^ ).+.^ +.+.^ ~ ~ ~ ` B.-XB.'  .~ ~ Q ~ ^ ~ ~ ^ ^ ^ o.~ ~ o.8.+.+.^ ^ +.+.^ ^ ~ ^ 0.8.o.8.8.^ ~ ~ ~ ^ o.8.^ ^ +.~ E ",
"! ~ o.o.8.8.^ ^ ^ ^ ^ +.+.+.+.^ ^ ( ^ ^ ^ ^ 8.^ ^ ^ ^ ^ ^ 8.0.0...B.2X>XXX..o.).8.o.o.o.o.+.^ ^ ^ ^ ^ +.8.8.o.^ ^ +.o.^ ~ ^ ^ +.8.~ ^ ^ ~ 8.0.0.0.0.o.~ ^ 0.o.~ ",
"+.+.o.+.).0.^ ^ ^ +.+.).0.0.0.8.( 0.( ^ ^ +.).( ( ^ ^ ^ 8.0.`.`.O..X3X3X,X%.+.`.`.).8.0.).0.^ ^ ^ +.+._.0.0.0.( 8.8.( ^ ^ 8.0.8.8.( ~ ( 8.0.`.`._._.o.~ ^ 0.+.+.",
"o.+._.`._.).8.o.+.+.+.)._.`.`.`._._.^ ( +._.`._.).)._._._.).)._.@.oXaXdX>X#.+.).)._._.`._.).+.o.+.^ +.)._.`.`.`.`.).^ ^ 0._.`.`.).0._._._._._._._._._.8.+._.+.^ ",
"~ +._._._._._.).).0.0.).`.`.`._._._._.).`.`.`.`.`.`.`.`._.0.+.t.oXiXhXsX>Xt.^ _._.).).)._.`._.)._.+.0.).`.`.`._._.`.)._.`.`.`.`._.`.`.`._.0.0.0.0.0._._.0.0.8.o.",
"o.o.o.+._.`.`.`._._._._.`.`.0.0.)._.`.`.`.`.`.`.`.`.`.`._.0.O.|.iXjXjXgX#X#.+.`._.0.o.8.).`.`.`.`._._._.`.`.0.0.).`.`.`.`.`.`.`.`.`.`.`._.0.0.0.^ 8._.`._.0.8.8.",
"~ ^ ^ +.0.0.0.0.0.8.8.8.8.0._._.`._.).( ( )._._._.`.`.`._.+.e.OXfXhXgX8X}.O.^ +.).8.8.8.0.).).0.0.8.8.8.8.0._._._._.).( 8.0.)._.`.`.`.`._.0.8.0.~ ~ q.`.`.0.~ ! ",
"~  .o.+.0.o.o.o.( ^ ( ( ^ ^ 0._._.).).0.0.8.8.8.8.).0._.`.+.}.%XaXsX=X|.O.^ ^ +.0.8.8.).0.^ ^ ^ ^ ^ ^ ( ^ ( 0._.`.).).8.0.0.8.8.0._.`.`._._.0._.0.0._.`.`.8.~ Q ",
"~ ^ +.).0.^ ^ ^ ^ ^ ^ ^ ( ^ ^ ( ).)._.`._.).( ^ +.@.@.@.`.`.}.%X<X,X%.)._.( ( 0.0.8.8.).0.^ ^ ^ ^ ( ^ ^ ( ( ( 8.).).`.`.`.).^ ^ 8.`.`.`.`.`.`.`._._.`.`._.^ ~ ~ ",
"~ ^ +.+.0.8.^ ^ ^ ( ^ ^ 8.0.( _._.).`.`.`._.0._.}.XXXX.X_.).}.XXXX|.O.+.`.)._._.0.8.+.0.0.8.^ ^ ^ ^ ^ ^ ( 0.( )._.).`.`.`._.)._.`.`.`.`._._._._.0.8.8._.`._.8.o.",
"~ ^ +._._.).( ^ 8.8.0.0.0.).`.`.`._._.`.`._._.`.|.+X#XXX0.( @.a.X.} ~ )._._.`.`._.8.+.)._._.8.( ( ).0.( )._._.`.`._.`.`._._._.`.`.`.`._.0.0._._.( ~ ~ 0.`.).0.+.",
"+.^ ( `.`.`.).( ).`.`.`._._.`.`.`.).`.`.0.q._.0.}.XX+X.X+._.`.`. .~ ^ _.`.8.0._.`.).8._.`.`.).8.).`.`.`._._.`.`.`._._._.0.)._.)._.`.`._.8.q.`.`.( ~ ^ _.`.o.o.o.",
"^ ^ o.).`.`.`.).8.8._.`.).).`.).0.`.`._.9.}..X].].}.%.}._.`.`.`._.0._.`.`.8.0._.).8.8.)._.`.`.).^ 0._.`.).).`.).0._.`.`._.`.`._._.`.`.`._._.`.`._.)._.`.`.0.o.^ ",
"~ ^ +.+._.`.`._.( ( 0.`.).0._.).0._.).+.O.a.XX%.O.).+.).`.`.`._._._.`.`._._.)._.0.0.0.0._.`.`._.^ ^ ).`.).0._.).0.`.).0.`.`.`.)._._.`.`.`.`.`.`._.`.`.`._.).8.o.",
"o.+._.`.`.`._._.`.).0.`.).).).`.`.).8.~ o.#.p.$.#.+.)._._.`.`.).0.0.0.q.)._.`.`._._._._.`.`._._.`.0.)._._.0.).`.`.).( ^ 0.`.`.0.8.0._._.`.`.`.).0.0.0.).0._.0.8.",
"^ +.`._.`.`._.`.`.`._.)._._._.`.`.0.o.~ ~  .X.+XXX%.O.+.+.+._._._._._._._.`.`.`._._._._.`.`._._.`.`._._._._._.`.`.+.^ ( ( 0.0.( ( 0.0.0.0.0._._._.)._._.`.`.).+.",
"^ +._.0.0.`._._.`._._.8.)._._.`.`.8.o.8.o.9.|.<X>Xi.9.0.( ).).`.`.`.`.`.`.`.`.`.q._.`.8.0._._._.`.`._.0.).).`.`.`.8.o.o.+.8.8.8.8.).0.0.8.0.).`.`.`.`.`.`.`.0.+.",
"+.+.8.^ o.0.0.)._.8.( ( ( 8._.`.`.`._.+.9.oXuXpX=X#.q._.`.`.`.`.`.`.`.0.o._.`.`.`._.8.~ ~ 0.0._._.^ ^ ^ ^ 8._.`.`.`._.+.0._.`.`._.`._.`.`.`.`.`.`.`.`.0.8._.).+.",
"o.+._.8.o.8.0.8.0.8.8.0.( ^ ).`.`.`._.0.8.&XdXdX,X#._.`.)._._.`.0.8.).0.^ 8._.`._.0.w.i.%. .8.0.0.8.( ).^ ^ 0.`.`.`._._.0.0._.`.`.`.`._.)._._.`.0.0.).+.o.8.+.+.",
"^ +.`.).0.0.0.0.8.8.0._.( ^ ).`.`._.`._. .&XdXpX*X#.]._.8.)._._.+.o.).).0.^ 0.`.).0.[.+XB...8.0.8.8.0.).o.^ ).`.`._._.`.0.0.).`.`.`.`._.0.0._._.+.o.0.).0.^ o.+.",
"8.0._._.`.`._._._.8.^ ^ ~ 8.`.`.q._._.`.9.%XpX@X}.9._.`.`.`.`.`.`.`.`.`.`.0._.`.`.0.t.,X=Xi.e.).).8.( ( ^ ( `._._._._.`.`.`.`.).)._._.`.`.`.`.`.`.`.`.`._.0.0.o.",
"o.0._.`.`._._._._._.0.0.0.).`.`.).8._._.9..X@X|.e.0.q.0._._._._.`._._.`.`.)._.`.`.0.].@XXX#.q.`.`._.0.0.0._.`.`._.8.).`._._.)._._._.).)._._._._.`._._.`.`._.+.+.",
"o.+.`._.)._._._.`.`.`.`.`.`.`.'._.8.8.0. .X.$.].`.0.0.( ( ( 0.0.0.o.o._.`._._.`.).).].i.%.O.).`.`.`.`.`.`.`.`.`._.o.8.).8.8.8.`.`.).).8.( 8.0.0.+.8.+._.`.q.0.+.",
"o.+.0._._.`._.)._._.`.`.`.`._._.0.0.8.o.^ 9.q.`._.( 8.0.0.0.0.0.^ o.0._.).)._.).`._.0.e._._.).).)._.`.`.`.`.`.).0.8.8.8.8.8._.`._.( ( 0.0.0.0.( ^ o.0._._._.+.^ ",
"o.+._._._._.0.0.0.).0.0._.`._.0.0.).0.8.+.).`.`.).^ ( 8.0.^ ( ( ~ 8.).).).).).)._._.)._._.)._.0.0.0.0.0.).`._.).0._.0.8.0._._.`.).^ ^ 8.0.+.^ ( ^ ^ ).).).).+.^ ",
"^ 0._.`.0.^ 8.)._.0.8.( 0.`._._._.`.`._.`.`.`.`._.( ( ^ ^ ^ ^ ^ ~ 8._.).).)._._.)._.`.`.0.( ( )._._.8.( ).`._.)._.`._._.`.`.`.`._.^ ^ ^ ^ ^ ^ ^ ^ ^ _._.).).).^ ",
"o.0._._.+.~ ^ 0.`.`.`._._._.).).`.`.`.`.`.`._._.`._.0.^ ^ ^ ^ +.0.0._.)._._.`._._._._.).( ~ ~ ( '.`._._._._.)._.`.`.`.`.`._.`.`.`._.+.^ ^ ^ 8.0.+.).).)._._.).^ ",
"o.+._._.).+.^ +.`.`.`._.`._.).`.`.`.`.`.`.).).`.`.`.).8.^ )._.).0.8.O.8.)._.`.`._._._.).).0.( ).`.`.`._.`._.)._.`.`.`.`.`._.0._.`.`.).+.8.0._._._._.).)._._._.^ ",
"^ +.`.`.`.`.`._.`.).0.8.).`.`.`.`._._._._.8.^ _.`.`.`.`.`.`.`.`.O.} | ..0.).)._._._.`.`.`.`._.`.`.).0.8.).`.`.`.`._._._.).8.8._._.`.`.`.`.`.`.`.`.`.`._.).).^ ^ ",
"~ +.).`._.+._.`._.).0.8._.`.`.`.).0.8.0.`.`._.0.0.`.`.`.`._.`.`.| _ [ ' o.8.+.8.0.).).`._.0._.`._._.0.8._.`.`.`.).).8.0._.`._.8.).`.`.`.`._.`.`.`._.+.).`.^ ^ ~ ",
"^ +._.`._.+.)._._.).0.8.)._.`.).0.).0.0.`.`._.+.).`._.`.`.)._._.| ] M.{ |  .+.0.).)._.`.).+.)._._.).0.8.)._._.).0.).0.0._.`._.0._._.`.`.`._._.`._._.)._.`.+.^ ^ ",
"o.0.`.`._.+.+._.`.).( 8.8.8.8.8.0._.`.`.).^ ^ _.`.)._.`.`.).( `.| _ M.M.[ | 0.`.`.`.`.`._.0.8._.`.0.8.8.+.+.^ +.0._.`.`._.+.^ _._._.`.`.`.+.+._._.`.`.`.`._.).+.",
"^ +._._._.+.).).).).0.^ 0._.0.)._._.).0.0._._._.).0._.`.`.0.0._.O.' M.N.m..._.`._._.`.`.).).).).).).8.8.)._.0.0._._._.0.0.).)._._.8.`.`.`.0.0._.`.`._.0.).`.).+.",
"^ ^ ).).).).`._.0.`._.0.).`.`._._._.0.8.0.`.`.0.+.8.).`.`._.).0.` _ m.n.z } o.+.~ ~ ~ ~ ~ ! 8.).0.`._.8._.`.`._._._.0.8.q.`.`.).8.8.).`.`._.).`.`._.).^ ^ `.).^ ",
"^ +.).0.).`.`.`.`.`.`.`.0.8.`._._.`.`._._.q.0.8.8.).0._.`.`.+.! K O g g d 5 J J J 1 1 J 1 1 E ( `.`.`.`.8.8.`._._.`._._._.).0.o.8._.)._.`._._.`._.).).).`.`.^ ^ ",
"^ ^ ^ ^ 0.`._._.`.`._._.0.0.`.`.`._._._._._.0.8.8._.+.^ ~ ~ W L - @ , G G c > - 8 3 8 8 q I I } +.^ o.).8.0.`.`.`.`._._._._.0.o.0._.0.0.).0.).`.`._.).).`.`.^ ! ",
"^ ^ ^ ^ ^ ).)._.`.`._.^ 0.).`.`._._.0._.`.`.0.0._._.^ E L L 4 q 8 u B V.K.,.Z p C *.g.g.4.H.>.) Y P T / 0.)._.`._._.0._.`.`._.0.)._.).8.8.8.0._.`.`.)._.`.`.^ ! ",
"+.^ ^ o.^ ^ 0.).`._._._.0.)._.0.8.0.8.0.`.`._._._._.! L - X 8 t Z =.6.5X,X^.v.l.b./.(.(.9XeX$X>.# - 3 E ( ).`.0.8.8.0.0.`.`._._.).`.`.`.).`._.0.o.+.`.`.`.).).+.",
"+.o.+.+.0.).0.).).).)._.).).0.).).0.)._._._._.`.q.| &.w 8 6 9 p <.J.W.6X6X6X6X5X6XqXeXyXfXyX4Xl.p N y 5 T 8.0.0.).0.0._._._._._._._.`._._._.`._.o.o.`._.+.+.0.+.",
"^ +.).`.`.`.).).+.).^ _._.).)._.`._.`._.0.0.q.`.8.I b b B V *.*.6.E.W.~.!.0XwX2X1XtXeXgXyX9X/.x.k.z.h.q 4 E ~ _.`.`.`._.0.0._.`.`._.)._.)._._.`.+.+._.+.^ +.^ ^ ",
"Q ^ `._.0._._._._.0.0.`.`._.`._._._.`._.0.)._.`.~ 2 b :.G.U.E.E.R.E.J.j.k.!.qX2XrX0X^.7X7X(.c.x.c.c.z.A q 3 E ^ _._.`._.0.)._.`.`._.`.`.).0.0._._._._._.0.`.0.~ ",
"~ o.0.0.0._.0.+.).).0._.).)._.0.0._.0.8.8.0._._.Q < h :.T.;X:X:XW.A.*.A g.h.^.0XtX5X!.!.b.c.x.x.c.c.z.=.N > 1 E 0.).).8.8.0.)._.).8.0.0.8.)._._.`._.0.8.0.`.).+.",
"+.+.o.+.).0.^ ^ ^ ( ^ ).0.0.0.( 8.0.8.~ 8.8.0.8.E < > G U.Q.:X;XK.=.C C A d.k.!.5X5X^.c.h.k.l.c.z.j.j.j.B 0 # Y 8.8.8.~ 8.8.0.8.( ( ( ~ 8.).`.`.`.).o.~ ^ 0.+.+.",
"^ +._.`._.).o.o.0.^ +.)._._.`.`._.0.8.( 0._._.0.E 3 - e ,.I.T.A.=.Z A F A A f.h.!.0XqX!.z.h.k.l.j.=.*.h.B q : T 0.0.8.~ 8._.`._.).).)._._.).)._._._._.+.+.).+.^ ",
"^ 8._.0._.`._.).).0.0.).`.`._._.`._.).)._.`._./ L > 7 9 S D.I.2.B a *.*.*.V C d.!.;X1XJ.h.g.h.j.h.*.F *.V a y &.7.8.0._.`.`.`.`._.`.`.`._.).0.).0.0._._.0.).8.^ ",
"^ ^ 8.8.).`.`.`.`.`._.).`.`.).0._._.`.`.`.`.8.1 - @ 7 t D G.U.1.B a A *.*.*.Z A 5.R.;XJ.<.F A F F F F F *.=.=.j j 8._.`.`.`.`.`.`.`.`.`._.0.8.0.~ 8._.`.`.8.8.+.",
"~ ^ 8.0.0.0.0.0.).( ( ( ( )._._._._.).0.0.0.8.< - 7 9 t =.I.I.:.B t V *.*.*.A *.<.6.K.R.K.,.C p C Z a a l.K.K.G , / 8.8.8.0.)._.`.`.`.`._.8.8.8. .~ 0.`.`.0.~ ~ ",
"~ ~ 8.).0.o.o.o.( ( ( ( ( ( 0._._.).( ! W W T = @ 7 7 e M I.U.2.i u N A A *.S A F =.5.E.E.J.4.=.,.<.F h.J.W.P.j = ! 0.8.0.0.8.8.0._.`.`.`._.).).8.0._.`._.( ~ Q ",
"~ ^ o.).0.^ ^ ^ ^ ^ ^ ^ ( ^ ^ 8._.0.^ E 2 = = . + 7 9 9 v G.Y.2.t 9 i N Z B B B N C h.6.K.R.W.R.E.L.F.F.U.K.;., = ! _.`._.0.o.^ +.`.`.`.`.`.`.`.`._.`.`._.^ ~ ^ ",
"~  .+.+.0.o.^ ^ ^ ^ ^ ^ 8.0.8.)._.).~ U = . # = : ; 7 x G S.I.V.D i t i t i t t i N A <.V.R.;X;XQ.W.Q.T.S.M , X * P  .`.`._.0._.`.`.`.`._._._._.+.o.8._.`.).8.^ ",
"^ ^ o.)._._.+.o.o.0.0.8.0.)._.`.`._.o.W L 4 L P 4 : w m :.1.C.A.3.=.t r t t t t i N S 2.A.K.K.S.U.Q.Q.G.G 7 X X * : T 8._._._.`.`.`.`._.+.0._._.8.~ ~ 0.`._.0.+.",
"+.o.o.`.`.`.0.+.).`.`.`._._.`.`.`._._._.^ 8.q.8.E 2 h H Z.n b A.S.V.v B n V V n v B ,.D.L.,.i r ,.I.I.,.; X X + # + L ! 8._._.0._.`.`.).o._.`.`.8.~ ^ _.`.o.o.8.",
"^ ^ +.).`.`.`.0.8.8._.`.).).`.).0.`.`.`.`.`.`.`.~ J q x m w w D :.Z.Z.S.Z.S.S.S.D.D.S.A.2.B 9 9 m G.G.b - < E T P T W o._.`.`._.`.`.`.`._.`.`.`._.0._.`.`.0.8.^ ",
"~ ^ +.+._.`.`._.( ( ).`.).0.`.0.+.0.o.~ 8.8.o. .E 4 3 > > , 7 9 n H G.Y.Y.Q.T.Y.Y.U.D.,.B r r N D Z.C.x 3 Y 0.8.~ 8.8.8._.`._.9.O.).`.`.`.`.`.`._._.`.`._.q.8.8.",
"^ +.).`.`.`._._.`.).)._._.0.).`.0.E 2 = 3 3 < < < L E T 4 > @ . 0 n H 3.A.T.T.D.3.;.1.x r r c n G G n , 3 E 8.`._.).o.~ 0.).9.) ` ~ 0.`.`.`.`.+.0.0.0._.)._.0.8.",
"^ +.`.).`.`._.`.`.`._.)._._.`.`.0.2 * . # # # X = Y ~ ~ E 4 = % : 7 w e n C.C.H x w w 0 7 9 w b c 5 , : 2 U ~ _.`.0.( ( 8.^ } [ j ) 7.q.0._._._._._._._.`._.).8.",
"( 0.).0.0.`.'._.`.`.).o.+.)._.`.8.: + : 4 4 L 4 P ~ +.0.+.E Y Y L % X X @ x b x 0 @ X @ ; 7 > 5 R P K K 1 2 T 8._.8.^ ^ o.^ ` { k d X.{.0.0._._.`.`.`.`._.`.).o.",
"8.8.0.( 8.0.0.)._.8.} R E Q ~ ( Q 3 = U ~ 0.q.0.0._.).`.`._._.0.! L . X X . > f f > . . X . 1 E 8.( ! ! P < = T 8.( / ! ^ 8.O.[ k k H. X'.`.`.`.`.`.`.0.+._.).+.",
"( 8.0.8.( 0.0.0.w.y._ & $ < 4 4 4 K E ^ 0.q.`.`.`.`.`.`.)._.@.X.` U K % X $ K ` ` R T P P P E ^ 0.( 8.0.! P 2 4 L 4 4 4 T ( O.[ n.n.!. X_._.`.`.0.0._.+.o.+.+.+.",
"( 0.`.).0.0.0.).r.s.;.O . . # * 3 T 0.`.0.0._._.`.`.`._.+.+...] j _ ` L : Y ^ _.0.0.).0.( ( ^ 8.8.8.0._.8.~ W 4 * * * : 1 T ` [ k k s. X8.0._._.+.o.0.).+.^ o.+.",
"8.0._.`.`.`.).'.{.l.M o < Y Y P T ~ _.`.`.`.`.0._._._.`.`.`.O.] z { ' W Q ^ ).`.`._.)._.`._._.)._.( ( ( ~ o.0.Q P P T T K 4 5 z l ) @.[.`.`.`.`.`.`.`.`.`.).+.+.",
"8.0._.`.`._._.'.{.y.&.P Q o.o.o.8.8.0._._.).q._._._._.0.).`.O._ M.M.j } 0._._.`._._._.`.`.`._.`.`.).).0.0._.`.0. .! ~ o.Q 4 , g j K o._._._._._._._._.`.`.).+.+.",
"^ 0._._.)._._.'.`.w.7.^ _.`.`.`._.8.8.8.8.8.8.`.`.0.0.8.^ ( ` _ z z f } `.)._.`.)._.`._.).)._._.`.`.`.`.`.`.`.`._.o.0.0.~ U , s ,   7.u.8.8.0.0.0.o.o._.`.).+.+.",
"o.0.0._.`.'._.).0.0._.).`.`.`.q.0.0.8.8.8.0._.`._.8.8.0.0.0.` s d d & Q ).).)._.`._.0.).`.`._.0.)._.`.`.`.`._.).0.8.8.8.o.o.} 2     -.u.0.8.8.8.o.o.0._._._.+.^ ",
"o.+.0._._._.0.0.0.).0.0._._._.0.0._.0.8.0.).`.`.).^ ( 8.8.8.W & O 3 E ( 0.).).)._._.)._._._.0.).0.).).0._.`._.).0.).0.8.0._.).Q J 1 / u.0.8.( ( ^ ^ _.).+._.+.^ ",
"^ +.`.`.).^ 8.0._.).8.8.0.`._._.`.`._._.`.`._.`._.8.( ^ ^ ^ W 4 4 T 8._.).).)._.)._._.`.).^ ( )._.0.8.( )._._.)._.`._._.`.`._._.).^ ( ( ( ( ( ( ^ +._._.).).+.o.",
"o.+._.).8.^ ^ 8.`.`._._.`._.0._.`.`.`.'.`.`._.`.`._.8.^ / ( w.u.u.w.0.)._.`.`.`._._._.).^ ^ ^ +.`.`.`._._.`.)._.`.`.`.`.`.`._.`.`._.^ ^ ( ( 8.0.+.+.).)._._.).+.",
"o.0.`.).0.8.8.).`.`.`.`.`._._._.`.`.`.`.`.).0._.`.`.).0.( 0.'.{.{.{._.).)._.`._._.`._.).0.0.^ 0.`.`._._.`._.)._.`.`.`.`.`.).0._.`.`.).0.8.0.)._._._.).).).`.+.+.",
"^ +.`.`.`.`.`._.`.).0.8.).`.`.`.`._._._._.0.^ _._.`.`.`.`.`.`.`.`.`.`._.0.)._._._._.`.`.`.`.`._.`._.).8.).`.`.`.`._.)._._.8.+._._.`.`.`.`.`.`.`.`.`.`._.+.).+.^ ",
"^ ^ ).`._.0._.`.)._.0.8.).`.`.`._.0.8.0._.`._.0.).`.`.`.`.`.`.`.`._._.q.).0.+.+.0.).).`._.0._.`.)._.0.8.).`.`._.).).+.0._.`._.+.).`.`.`.`.`.`.`._._.)._._.+.~ ~ ",
"^ +._.`.).+.)._.`.).0.8.)._._.).0.0.0.0.`.`._.0.)._.`.`.`._._._._._.)._.`.0.0.0.).).).`.).8.)._._.).8.8.0.).`.).0.).+.).`.`.).+.).`.`.`.`._.).`.`._.).`.`.+.^ ~ ",
"^ ).`.`._.).8.).`.0.o.+.8.8.+.+.0._.`.`.).^ ^ _._._._.`.`.0.0._._.`.`.`.`._.`.`.`.`.`.`._.0.0.).`.0.( 8.0.0.( 0.0._.`.`._.^ ^ `._.).`.`.`.0.8.)._._.`.`.`._.).+.",
"^ +.`._.).0.)._.).).+.o.)._.0.+.)._.).0.).)._._._.( _.`.`.).0._.`._._.).+._.`.`._._._._._.0.0._._.).0.( )._.0.+._._.).0.).)._._.).0._.`.`.0.0._.`.`._.0.).`._.+.",
"^ +.+.).).)._._.+.`._.0._.`.`._._.`.0.+.+.`.`.).( ).).`.`._._._.`._._.^ +.`.`.`.q.0.0._.0._._._.0.`._.8.).`.`._._._.0.+.q._.`.0.8.8.).`.`._._.`.`._.).^ ^ `.).^ ",
"^ o.+.)._.`.`.`.`.`.`.`.+.8.`._._.`._.)._.).).^ 0.).).`.`._._._._.).+.)._.`.).+.).).0.0._.`.`.`.`.`.`.`.0.0.`._.).`.`.)._._.0.o.8.).)._.`.`._.`._.).0.).`.`.^ ~ ",
"^ ^ o.+.0._._.`.`.`.`.).0.+.`.`._.`._._.`._.0.( )._.0.( ).0.).`.`.`.)._.`.`.+.+.).0.o.8.0._._._.`.`.`._.8.0.`.`.`.`._._._._.0.o.0._.0.0.0.0.).`.`._.)._.`.`.^ Q ",
"^ ^ ^ ^ +.).).).`.`._.+.+._.`.`.`._.).).`.`.).0.).`.).( ( ( ).`.`.`._._.`.`.).8._.0.^ ^ 8.0.0.).`.`._.^ )._.`.`.`.).)._.`._.).0.).`.0.0.8.0.0._.`.`.)._.`.`.^ ~ ",
"+.o.^ ^ +.^ +.)._.`._.).+.)._.).8.8.+.0.`.`._._.).`.`.`._.`._.).^ +._.`.`._._.`.`.0.^ o.8.o.0._.`._._.).+.)._.0.8.8.0.0.`.`._._._._.`.`.)._.`.0.o.+.`.`.`._.).^ ",
"~ ~ ^ ^ ^ ^ +.+.+.^ +.+.+.+.+.+.8.o.o.8.0.0.0.0.0.0._.).0._.0.( ~ ~ ).^ ^ ^ +.).0.o.^ ^ 8.8.o.+.^ ^ +.+.+.+.+.+.+.o.8.8.0.0.0.0.0.0.).).0.0.0.0.~ ~ +.+.^ ^ ^ ^ ",
"Q ! ^ ^ +.+.^ ~ ~ ! ~ ^ ^ ^ ^ ^ 0.+.+.8.~ ~ ^ 0.+.^ ^ ^ ^ ^ ^ +.~ ~ ^ ~ Q ~ ~ o.^ ^ ^ ^ o.o.o.~ ^ ! ^ ^ ^ ^ ^ ^ 8.+.0.o.~ ~ ^ 0.8.( ( ^ 8.~ 8.8.~ ~ ^ ~ Q ! Q Q "
};
