/* XPM */
static char *Group_10_1__resized[] = {
/* columns rows colors chars-per-pixel */
"80 80 198 2 ",
"   c #2B3F36",
".  c #2F5216",
"X  c #345C1D",
"o  c #37621C",
"O  c #39661D",
"+  c #3C6D1D",
"@  c #3F711F",
"#  c #2C4724",
"$  c #2C452B",
"%  c #2E4B2B",
"&  c #304E2B",
"*  c #315325",
"=  c #355B24",
"-  c #395E26",
";  c #34542D",
":  c #365A2B",
">  c #3A5D2D",
",  c #2E4633",
"<  c #2F4A31",
"1  c #2E433E",
"2  c #314C33",
"3  c #32463D",
"4  c #334C3C",
"5  c #345233",
"6  c #385635",
"7  c #3B5C34",
"8  c #355339",
"9  c #39553E",
"0  c #37583B",
"q  c #3B5B39",
"w  c #376022",
"e  c #3A6424",
"r  c #3D6C23",
"t  c #3D642C",
"y  c #3E6A29",
"u  c #3F7120",
"i  c #3E6431",
"p  c #3F6239",
"a  c #41751F",
"s  c #43781F",
"d  c #406E26",
"f  c #416C2C",
"g  c #417521",
"h  c #457C21",
"j  c #487F23",
"k  c #427229",
"l  c #406631",
"z  c #406831",
"x  c #2C3A4B",
"c  c #303E4D",
"v  c #313D56",
"b  c #313D5A",
"n  c #313C65",
"m  c #2F4146",
"M  c #324644",
"N  c #354C43",
"B  c #384E45",
"V  c #31444A",
"C  c #354B4C",
"Z  c #384D4D",
"A  c #375443",
"S  c #395242",
"D  c #3C5B43",
"F  c #39524B",
"G  c #334354",
"H  c #354954",
"J  c #394E52",
"K  c #34435B",
"L  c #374C5A",
"P  c #384D5E",
"I  c #3B5458",
"U  c #344263",
"Y  c #374A61",
"T  c #394D62",
"R  c #36426A",
"E  c #38476B",
"W  c #3B4D6B",
"Q  c #3C5364",
"!  c #3E546B",
"~  c #364270",
"^  c #3C4C74",
"/  c #3C4B7C",
"(  c #3E5173",
")  c #3F517C",
"_  c #415A68",
"`  c #415775",
"'  c #41527E",
"]  c #445C7E",
"[  c #42606A",
"{  c #466471",
"}  c #476679",
"|  c #478022",
" . c #498423",
".. c #4C8A24",
"X. c #3C4A81",
"o. c #415383",
"O. c #455C84",
"+. c #425489",
"@. c #46598C",
"#. c #485D8C",
"$. c #465B91",
"%. c #495E94",
"&. c #4B5D9C",
"*. c #49638C",
"=. c #4E7083",
"-. c #4B6393",
";. c #4E6896",
":. c #4C639A",
">. c #4F699C",
",. c #516C9B",
"<. c #55739D",
"1. c #4E67A1",
"2. c #4F68A0",
"3. c #5067A2",
"4. c #516AA2",
"5. c #546DAA",
"6. c #5472A1",
"7. c #597DA0",
"8. c #5571AC",
"9. c #5877AC",
"0. c #5B7CAC",
"q. c #566FB1",
"w. c #5776B3",
"e. c #5876B2",
"r. c #5B7AB5",
"t. c #5D7DBB",
"y. c #5C82A6",
"u. c #5C83B2",
"i. c #5E80BC",
"p. c #618BAA",
"a. c #6290AB",
"s. c #6184BD",
"d. c #638ABB",
"f. c #6795B7",
"g. c #6183C0",
"h. c #6489C5",
"j. c #6588C8",
"k. c #668BCA",
"l. c #688ECD",
"z. c #6997C4",
"x. c #6991CD",
"c. c #6C95D3",
"v. c #6F99D6",
"b. c #6F9AD8",
"n. c #709BD6",
"m. c #719DDA",
"M. c #73A5D3",
"N. c #78ADD3",
"B. c #73A1DE",
"V. c #7BB2D5",
"C. c #7BB2D9",
"Z. c #7FBCDE",
"A. c #76A5E2",
"S. c #78A7E6",
"D. c #77A8E5",
"F. c #78A9E6",
"G. c #7AADEA",
"H. c #7CB2ED",
"J. c #7FB5F1",
"K. c #82BCD9",
"L. c #80B7F2",
"P. c #83BDF5",
"I. c #84BFF9",
"U. c #85C6DE",
"Y. c #83C4E4",
"T. c #86C5EC",
"R. c #8ED4EC",
"E. c #9EDCEE",
"W. c #85C1F5",
"Q. c #8CCEF4",
"!. c #87C3FE",
"~. c #88C6FF",
"^. c #8BCAFF",
"/. c #8ED8F5",
"(. c #8ED1FF",
"). c #90D7F6",
"_. c #94DDF2",
"`. c #91D5FD",
"'. c #93DBFF",
"]. c #9AE4F5",
"[. c #98E4F7",
"{. c #96E5FF",
"}. c #99E6FF",
"|. c #97E8FF",
" X c #9AEAFF",
".X c #9CF1FE",
"XX c #A4EEFE",
"oX c #A2F4FD",
"OX c #ACF2FE",
"+X c #A4F9FE",
"@X c #AAFBFE",
"#X c #B3F4FE",
"$X c #B9F7FF",
"%X c #B6FBFE",
"&X c #BDFAFF",
"*X c #C2FBFF",
"=X c #CBFFFF",
"-X c #D1FFFF",
/* pixels */
". o a + @ a @ a a + + a s a s a @ @ s @ @ @ @ | s @ s s @ + + @ @ @ s @ @ h s + O + @ @ + @ @ @ a @ + @ s @ s @ @ s s s + + @ s h a a a a + + + @ a s @ a s + X ",
"O + a a a a @ @ @ @ @ s s s a @ @ u s @ @ @ s u @ @ @ @ @ g g | h s @ + @ s | h g a @ a a s @ @ @ @ a s g s s @ @ s @ @ @ @ @ s a + a + + g h h h s a @ a h a O ",
"s s a s j h a a a a s | | g h g u h u @ @ s h @ u @ @ @ u  .......| @ @ @ h  .....| a h | s @ @ @ a s | h h h u u g @ @ @ g | g a a + a g  . ... . .a + a s s a ",
"a s  ... .h a a s a s |  ....... . .@ @ s .... . .|  . . .| |  ... . .s s |  .| |  . ... .| s s s a s |  .........| g @ |  ... . .s  . . .j  . . . . .g s  .s a ",
"a a j j  . . . .| h h  ....... . . .| | ..................h h | h h  . .h | |  .| | | |  ... .|  .s h | ...... ... . . ......... ....... .j h j h h  . .h j s a ",
"a a a s  ..... ... .|  .....h h | .................... .| h g h @ @  ... .h | .. .h @ g | ...... ...|  .....| h | ...................... .h g h @ a  ... .h a s ",
"+ a a s s s j h g g g g g h  . ... .| s g | |  . ....... .s u g + @ | ....h s g | h @ h | h | h h g @ h g h  . . . .| @ g | |  . ....... .s a s + +  ... .h + O ",
"+ + a s j s a a a @ @ @ @ @ h  . .| h h h u h g h .. .....| | | a a | .. .@ @ @ s s @ h g @ @ u @ @ @ u @ @ h  . .| | g h g h @ j  ..... . .j  .h s  .....g + o ",
"+ @ @ | | @ @ @ @ @ @ @ @ @ @ u | |  ... .| u @ g ............ .h g k h g O d d a d O d e w O O @ @ @ @ @ @ u u  .| | ....| @ @ g ..............| ...... .@ + + ",
"+ @ s | | u @ @ @ @ @ @ g h u  . . ....... .h  . ....... . .h r ; % & & & $ $ & # # # # $ $ # X @ @ u @ u | u |  .| ...... .|  ......... . . . .h g g  . .| h a ",
"@ @ @  . .| @ @ g g h h h  .......| .... . . . . . . .j s s r 7 C U K K L H H L H H v K K U M : e @ @ @ | | | .... ....... . ......... .h s  . .u + + h .. .h s ",
"s @ @ ......| u  ....... . .......| ....s  . .@ r e r e o + t F O.3.4.4.,.4.4.,.3.3.4.<.0.y.*.[ : u u r @ | ......| ....u |  .|  ..... .a j ....g + @  ...a a a ",
"@ @ @ | ......| @ h  ...| | ..| s .... . ... .e 2 3 3 < , , N _ 6.k.x.c.n.x.c.x.c.c.n.N.Z.K.f.=.C ,   , * u ....h ........ ... . ....... .......| h .... .h a @ ",
"+ @ s |  ..... .@ @ h ..| h  .| s ..| h .. .k q L ^ E E K K ` ;.k.D.L.P.W.W.L.L.L.T.Q._.].].Y.a.O.U n R C w u u @ h | s ......| | ...................... .| s a ",
"@ s  ....... . ...| h ..| | | .... .@ + @ r q Q -.q.5.3.4.8.t.x.H.W.^.`.`.`.`.`.'. XoX+X@XOX[.Y.z.u.u.u.} A = X = o e @ h ....g a h j ........h h h h h |  .h g ",
"@ s ..| .... ....... .|  . . .....h @ r o 8 Q -.i.c.k.h.x.n.D.L.I.~.(.(.(.^.(.`.}. XoXoX+XoX X/.Y.Y.Y.Z.a.{ V x m , = + @ h h @ g g h h h h | .. .| | ......| s ",
"a s  .s h .. . .....| h h  . .....g @ w < P %.t.v.A.B.B.L.P.~.^.~.^.~.~.!.!.^.'.|. X X X X].XX X.XoX+X].K.y.) X./ T 0 e + @ s s g h h h u |  ......... .....h s ",
"s s s @ a h h  . .| @ @ @ @  ..... .r 2 P -.t.c.B.G.L.L.W.`.`.`.^.!.!.!.^.(.'.}. X X|.|. XXX#X%X@X&X*X&XE.V.f.z.z.7.! 4 e s ...... . .................s g  .| s ",
"a s  .a a s g h | @ u h @ @  ... .u 0 T -.g.b.A.A.H.L.!.(.(.^.^.^.!.!.!.^.'.|. X X X}.|.XX$X*X=X=X=X=X=X#XE.R.R.R.V.y._ 8 e | ........ .|  . . .| s  .s a g s s ",
"@ s ..| h h h h u u | | u @ | | u 0 T %.g.b.F.A.D.H.P.~.^.^.!.~.~.!.~.(.`.}. X X X|. XXX#X*X-X-X=X=X-X=X*X%X@X@X+X_.C.0.T 8 y h ...... .s h  ...s @ | | h @ a s ",
"g h  ....... . .| u @ @ u u u e 0 Q -.t.c.A.F.G.L.P.!.^.^.~.!.!.!.^.^.'.}. X X X X XoX$X*X=X=X-X-X-X-X=X=X=X%X%X@X X).V.y.[ 0 w u  .......................h s s ",
"a h  ..... ... ...| | h | | u 5 H -.t.v.A.A.A.J.I.Q.^.~.^.~.!.!.~.^.`.}. X X X|.|.XX#X*X=X=X=X=X=X=X=X=X=X=X=X%XOX.X X_.N.<.P 2 O | | | .. ....... .| .... .s s ",
"a s .. .|  .| ..............u 4 R 5.c.A.A.A.A.J.!.^.^.~.~.~.~.~.(.`.}. X.X X|.}.}.XX$X=X-X-X=X=X=X=X=X*X-X-X=X$XoX.X+XoXR.i.) 2 e |  .u @ @ | u s g s  ...| s s ",
"a s h h ....| h | | ........u < b 1.k.A.A.m.A.H.!.^.^.~.!.!.^.(.'.}. X X X X|.}.}.XX$X=X=X=X=X=X=X=X=X=X-X-X=X#XoX X+XoXK.9.R < O @ @ s | u | u @ @ | |  . .h @ ",
"a s  . . . .h h h h h h | u y 8 E 8.k.m.A.A.D.J.!.^.^.!.!.!.^.`.}. X X X X X X}.|.XX$X=X-X=X=X=X=X=X=X=X-X-X=X$XOX X.X.XU.p.] A = e @ @ h @ @ @ @ @ | | | | | @ ",
"@ s  ...h @ g | | | @ r r t A Q -.i.x.B.D.H.H.W.!.^.^.!.!.!.^.'. X.X X X X X|.}.|.XX$X=X-X=X=X=X=X=X*X=X-X=X=X$XXX X X.XR.V.p.{ A : o O @ @ @ @ @ @  .| | | s @ ",
"@ h  . .s + @ s ......g - A ) 2.s.v.B.B.F.J.!.~.!.^.~.!.!.~.^.'.}. X X X X X|.{.}.XX$X=X-X-X=X=X=X*X=X=X=X-X=X#XXX|.|. X]._.U.f.} M & o @ @ u @ | | | |  ...| @ ",
"a h  . .| h @ s ......g ; H :.i.v.A.A.B.H.W.^.^.^.!.^.!.!.~.^.`.}. XoX X X|.|.{.}.XX#X*X=X=X=X=X=X=X-X=X=X=X*X#XXX|.|. X+X+X].V.,.b % o u | .... .|  .| |  .| @ ",
"a s ........ ..... .g r % K 1.j.B.G.A.B.H.W.^.^.^.!.~.!.!.!.^.'. X.X X X X X}.|. X XXXOX*X*X-X-X-X-X-X-X=X$XOXXX X|.}. X+X@XoXK.9.U < r  .............| | | @ @ ",
"+ a | .. .s  ...|  .h O & H :.i.v.D.A.A.H.I.^.^.^.!.~.!.!.!.^.`.}. X X X X X X X X|.|.XXOX*X=X=X=X-X=X=X&XOX X}. X|. X X+X+X[.C.4.K 5 @ .......... .| | ..@ @ + ",
"@ s  ... .s |  . .| g + & C -.t.c.A.A.B.G.W.~.~.^.^.!.!.~.~.^.(.'.}.}. X X|. X}.}.}.{.}.XX#X&X*X*X*X*X&XOXXX{.{.}. X X XoX+X[.N.,.H = @ ..| |  . .| |  ...h @ @ ",
"a | .... .s s  ...| @ r & G %.t.c.A.A.A.H.P.^.^.~.!.!.^.!.!.^.^.`.`.{. X X X X X X}.}.}.}.XXOX#XXXOXOXOXoX X{.}.}. X X X+X+X[.V.>.v ; @  .| |  . ......... .| @ ",
"@ s  . . .s | | | | u O & G %.t.c.A.A.B.G.P.^.^.^.~.~.~.~.~.!.!.~.^.{.}. X X X X X X}. X X X|. X X X X X X|.|.}. X X X XoXoX[.N.>.G & u ..| u ...... .@ | ..| h ",
"@ @ | | | | .. .| ....+ * H %.t.c.A.A.B.G.P.^.^.~.~.~.~.~.~.!.I.!.^.'. X.X X X X}. X X X|.}.{.{.|.{.{.{.}. X X X X X X.XoX.X/.M.:.v 2 u .. .| ........@ @ ..| @ ",
"@ s | h | ............g & V %.t.c.S.A.B.H.P.^.^.^.!.~.~.~.~.!.!.~.(.'. XoX X X X}. X X X X}.|.}.|.|.|.|. X}. X X}. X X.X X}.Q.c.:.K % r ....| ..| | | | ....@ + ",
"@ @ @ @ h .. ....... .u & G %.t.c.S.A.A.H.W.^.^.^.~.~.~.~.~.!.!.~.^.`.}. X X X X X X X X}. X X X X X X|. X X X X X X X X}.`.!.c.:.K % O h h | ......| | ....@ o ",
"@ @ @ @ | | s | ....| + & H %.t.c.S.A.m.L.P.^.^.~.~.~.~.~.~.~.!.!.^.(.`.'. X X X X X X X X}. X X X X X X X X X X X X}.'.'.`.P.c.:.K % O g u h ......| ......@ + ",
"s @ @ @ u @ | | .. .| u % G %.t.c.S.A.A.H.I.^.^.^.!.~.~.~.~.~.!.^.~.!.^.`.}. X X X X X X X X X X|. X X X}. X X X.X}.`.(.`.^.W.v.:.K ; r | .. .h @ @ ......| | @ ",
"a s s | | @ | | h | | u * V @.r.c.S.A.m.G.L.W.!.~.~.~.~.~.~.~.~.!.!.!.!.(.`.}. X X X.X X X X X.X X X X X X X X X}.`.^.^.^.`.W.c.%.x * @  .....| @ @ ..| @ @ | | ",
"@ s |  . ...| h h h | h * V @.r.c.S.S.m.B.A.L.P.!.^.~.~.~.~.~.~.^.!.!.!.^.^.`.}. X X.X X X X X X X X X.X.X X X X`.(.^.~.^.^.W.x.%.x * @ | |  . .| s ..s @ | @ @ ",
"o @  . . . . . . .h g u ; L :.i.v.S.S.m.m.m.A.J.!.^.~.~.~.~.~.~.!.!.!.!.!.!.^.`.}.|. X|.|. X|. X X X|. X|.}.}.'.(.!.!.~.(.(.W.b.,.Y 5 r | | h  . . . .j  ...s @ ",
"+ a h s h | h s h r e p I ) w.k.n.S.A.B.v.m.B.H.W.^.^.~.~.~.~.~.!.^.!.^.!.!.~.(.`.{.{.'.'.'.'.'.'.'.'.'.{.{.'.(.^.!.!.~.^.^.!.H.g.*.P ; O s  . ... .h a s  . .a ",
"s s s s | h a @ @ o 5 P } 9.x.b.m.B.B.m.v.m.A.H.W.^.^.~.~.~.~.~.~.~.~.~.!.!.~.^.^.(.(.(.(.(.(.(.(.(.(.(.^.(.(.^.!.!.!.!.^.^.~.!.G.d.-.H % r  ... . .a + a h s s ",
"@ s  ... .| a a u * V @.r.v.G.F.A.m.m.m.b.m.A.H.!.^.^.~.~.~.~.~.~.~.~.~.~.~.~.~.^.!.!.!.~.~.!.!.!.!.!.^.!.!.~.!.!.^.!.^.!.!.^.).).T.n.<.P 8 r |  . . .a a  .a a ",
"@ s h  . ... .| h ; G &.j.S.L.H.B.b.m.m.b.m.D.J.^.^.^.~.~.~.~.~.~.~.~.~.~.~.!.!.!.!.!.!.!.!.!.!.!.!.!.!.!.!.!.!.~.~.^.^.^.!.^.'.}.'.~.n.,.Q 0 e a h  . .h j s a ",
"@ a a g | ......h : V @.t.n.G.D.B.B.B.m.b.m.D.J.W.^.^.^.~.~.~.~.~.~.~.~.~.~.~.~.!.!.!.!.!.!.~.!.!.!.~.!.~.!.!.!.~.~.~.!.!.!.^.`.}.}.'.T.x.,.T & X +  ... .h a a ",
"+ @ a h h h h | g = 2 T @.r.v.A.D.B.B.B.b.n.B.H.L.!.~.~.~.~.~.~.~.~.~.~.~.~.~.~.~.!.^.^.!.~.~.~.~.~.~.~.~.~.~.!.~.!.W.I.I.!.^.`.}.}.}.Q.A.r.' 1 * + h ....h + O ",
"+ @ a | h a a @ g O = 5 L O.i.c.B.G.A.B.m.B.B.B.G.L.!.^.^.^.~.~.~.~.~.~.~.~.~.~.^.!.!.!.^.!.~.~.~.~.~.~.~.~.~.^.~.W.J.G.J.W.^.`.'.'.'.W.m.t.o.  = a  .....a + o ",
"+ a a s h @ @ @ @ @ + w < H :.t.v.S.S.m.m.m.m.m.B.G.L.~.^.^.~.~.~.~.~.~.~.~.~.~.~.~.~.~.!.^.~.~.~.~.~.~.~.~.~.^.!.W.G.B.G.J.~.(.^.~.I.G.j.5.' , r h .... .@ + + ",
"+ + s s h g @ + + @ a + = 4 ` -.r.v.A.S.F.A.m.n.m.B.G.L.!.^.^.^.^.^.~.~.~.~.~.~.~.~.~.~.~.!.~.~.~.~.~.~.~.^.^.(.^.W.G.B.B.H.I.!.I.L.L.F.l.q.' M : + g  . . .h a ",
"+ a s |  . .a @ g g h g + > J W %.r.c.A.F.A.m.m.m.m.B.G.L.!.^.^.^.~.~.~.~.~.~.~.~.~.~.~.~.~.~.~.~.~.~.~.~.~.^.(.^.W.G.B.m.D.H.H.G.F.G.S.l.q.'   = O + h  . .s a ",
"s a s ......h s  ..... .h f q N Y #.r.c.B.A.B.m.m.m.n.B.G.L.!.!.!.!.~.~.~.~.~.!.~.~.~.~.~.~.~.~.~.~.~.~.!.!.!.!.!.W.H.B.v.c.c.v.m.m.S.v.t.:._ 2 = O @ ....s a a ",
"+ a s  . ..... .a s j ..k l l 5 M Q *.e.k.b.B.B.B.m.n.m.A.H.H.L.H.L.!.^.^.^.^.^.^.^.^.^.^.^.^.^.^.^.^.^.!.J.H.H.H.J.H.D.c.i.r.h.n.A.m.g.-._ D d g h  .....s a a ",
"+ a s |  ..... .a a h  .g e l > 6 B T @.e.c.A.A.B.m.m.m.B.A.A.A.D.H.P.!.^.^.^.Q.^.~.^.~.!.^.^.!.~.^.^.~.W.H.D.D.D.D.H.D.d.2.-.8.l.m.k.3.T 9 d s  . ... . . .s a ",
"+ s  . ..... . ...j s  .g d f d f 6 c ~ 3.k.S.S.A.m.B.m.m.m.n.v.n.B.H.P.!.I.P.P.I.P.P.P.P.P.I.P.W.W.!.I.H.D.b.b.B.B.B.x.>.( U *.9.g.5.` 4 d s  .h s h j  . .j s ",
"a s  .|  ... ....... .j h g k h f 5 c ~ >.k.S.S.A.m.m.B.m.m.n.n.m.B.D.H.H.H.H.H.H.G.H.H.H.H.H.G.H.H.H.G.F.B.m.A.D.b.l.0.) C M T #.>.#.L ; +  ... . . . . . .| s ",
"+ h  .g h .. . . ...j g j h j h f 9 v ~ 5.l.S.S.A.B.m.A.B.B.B.m.m.B.B.B.A.A.B.B.A.B.A.A.B.A.B.A.A.A.A.S.A.B.B.F.A.x.w.#.H 4 6 F T ' _ D f d s .... ..... ...| s ",
"a h h @ a h h j j g a a a a j j f S K o.5.c.G.G.F.S.A.A.A.A.A.A.B.m.m.b.b.n.m.m.m.b.v.b.b.b.m.b.v.m.m.B.S.F.A.B.x.8.o.P 8 > z 9 Z C 8 f j  ...........| s  .| s ",
"a s h g a h a h h s g s a a g j f F b / q.c.G.G.F.S.A.S.D.A.A.A.m.m.m.m.n.v.n.m.b.b.b.b.b.m.v.b.b.m.m.S.F.G.B.l.w.X.I N : - f p q 6 l g s .... .s s  .s a s s s ",
"a h ..| h h h h g g j j a d h h f 9 G ` ,.j.m.A.m.m.n.b.b.b.n.m.B.B.B.B.B.B.B.B.B.B.B.B.B.B.B.B.A.m.m.m.A.m.l.9.@.K A i t t t l l f h h s s  . .s s s | s @ a s ",
"a h  ....... . . .a a a + s  .j d > 9 I *.8.t.t.t.r.r.r.r.w.i.c.A.G.G.D.D.A.F.F.D.D.F.D.F.F.F.G.G.m.l.t.t.t.q.@.T 4 : l d k k g d h j  ................. .| s s ",
"a h  . . . . ... . .j s g j .. .h d > D Q o.$.$.@.@.+.+.o.X.:.r.b.F.D.A.A.A.A.A.A.A.A.A.A.A.S.F.F.l.0.%.+.+.o._ S : > l d d g h j j j j  . . ..... . ..... .s s ",
"s s .. . . . . ................. .a d t 9 C n R U U U b v v W ;.g.v.v.c.x.x.x.l.x.x.x.x.l.x.c.c.v.r.#.E b b K B 7 > - l e + a ....j h g g g g h g s s  ...| s s ",
"s s s  . ... .h  . ......... .j s s a r : 4 Z C C M M 3 3 3 J ` >.w.w.8.5.8.5.8.5.8.5.8.8.5.8.e.e.-._ B N N B 9 > f e O d g  ... .a g h h g s g a s s j  . .s @ ",
"a s  . . . .h h h h | g .... .h h h h g r i p p q 5 ; ; : : 8 H ` o.o.o.' ' ' o.' ' ' ' o.' o.o.o.` Z 6 > l 7 7 t f + d s  . ... .a a g g g g @ @ @ | | | | s @ ",
"a s  ...h a g h  .| g g h .. .j .... . .| h g k k e - = - - : 4 c v b b v v G G v v G v v v v b b M 4 : d g d d f g g  ... ..... .g a a + a u @ @ a  .| | | s a ",
"a h  .h s @ + g ...... ... .h  ...........| h | | g e : : > > 6 8 N N N 9 N 9 S 9 S 9 4 3 3 3 N S 9 p l f g s h j j  ....... . . . .h + @ @ g h s | |  . . .| s ",
"a h  . .h g a | .... ..... .| .......... .| h  ...h y t > - l l l l l i l l l l i l l l l > > > l l l l k h j  . . . ... . .h  .....j h s h |  . . .| | | ..s s ",
"@ | .......... ...| h g | ........ . . .| g g  . . .g d d d k h h h j g d r g h g k h j j h g j a d d d a j ...... . . . .h s  ..... .................| | | s @ ",
"@ @ | .. .h  ...|  .h g  ..... .j h h h .... .g j ....j j j j j  .h k h h g g a s s s  .h g j  .s a a d h ...... .s s h  . . .s h ........ ....... .| | | s @ + ",
"@ @  ...| a |  ...| g s h  ...| h h h h ....| h s ........j j  . . .h  ...h h h j j s ..j a j  . .j h a j  .j j j | h h  . .s j | ........ .| .... .|  . .| @ + ",
"s | .... .| s | ..h s s s g s s h  .....| a @  ...j ......j g  . ......... ............. .h s j ..j a a a s a s s  ..... .s a ....| ......h s  . . .......| | @ ",
"@ s  . .| h h | | | s a |  .h s  . . .s s  . . .s s  .....s  . ..... .s s ...... . . . . .s j  . .s s s  . .s s  . . .s s  . ...h g ......| s  ..... .s | ..| | ",
"@ a | | |  ... .h .. .s | .... . . .h s  .....h s j j .... . . .....s s s .... . .s j j | j  . .s .. .j  ..... . ...j s j  ...s g h | .... . ..... .| s @ ..| @ ",
"@ a s s  ...............g h .. .j .. . . .j h a s  .s  ... . ... .| s |  ...| h j s h h  ...............s s .. . ... . . .j h s s | |  ... . .....s h | ....@ + ",
"@ a a s h  . .........| h h .... ... . . . .h a h  .j s  .s j ......| | ....h a  .s s s s  . . ..... . .s s .... ... . ... .s s h  .h s | h h ......| | ....@ o ",
"@ @ @ @ s s s  ..... .s s  ..... . .h  .....| h  . .j h s s j  .....|  . ...h h  .j a a g h h j .... .s s  . ... . .j  .....| s |  .| h g g h ...... . .....@ + ",
"s a @ a @ s s  . ... .s | |  .h h h s s .... . . ..... .j  ...s a a ...... . . ...s + a a g h  . ... .s s  . .s h s g h .... . . .......| .. .| a s ......| | @ ",
"+ @ @ @ s @ s s s @ s s s s s s g a s g h h h h h h j h h h j s + + h s a @ s  .h a a a a a a a s a s s s s s a a s g g h s s s h h | h h h h h + + s s @ @ @ + ",
"o o @ @ s @ @ @ + + + @ @ @ + @ g s s s + + a s a a + a a a a s + + @ + o + + a a + + a a a a a a O O a s a d a s a s s d + s s s @ @ @ @ @ a g + + @ + O O O o "
};
