/* XPM */
static char *Group_10_11__resized[] = {
/* columns rows colors chars-per-pixel */
"80 80 239 2 ",
"   c #0D1507",
".  c #1C1817",
"X  c #1D1C16",
"o  c #1B1619",
"O  c #291D17",
"+  c #261918",
"@  c #221C1A",
"#  c #351D17",
"$  c #1D2616",
"%  c #1E3616",
"&  c #212317",
"*  c #232B16",
"=  c #292A16",
"-  c #24231B",
";  c #2C231D",
":  c #242C18",
">  c #2B2C1D",
",  c #372819",
"<  c #243216",
"1  c #2A3416",
"2  c #263B17",
"3  c #253219",
"4  c #29341A",
"5  c #2A3B19",
"6  c #38351A",
"7  c #301D21",
"8  c #2C2223",
"9  c #2A2621",
"0  c #2D252A",
"q  c #332424",
"w  c #392726",
"e  c #322B24",
"r  c #35292C",
"t  c #3A2C2D",
"y  c #393427",
"u  c #2F2733",
"i  c #332B32",
"p  c #3B2E31",
"a  c #3C3236",
"s  c #411B15",
"d  c #551C14",
"f  c #4A2415",
"g  c #472719",
"h  c #562616",
"j  c #483719",
"k  c #593616",
"l  c #682915",
"z  c #722D15",
"x  c #7B2E14",
"c  c #673815",
"v  c #783717",
"b  c #743B14",
"n  c #472A26",
"m  c #562C23",
"M  c #42312E",
"N  c #4C352B",
"B  c #573426",
"V  c #433332",
"C  c #493836",
"Z  c #443639",
"A  c #4C3B3B",
"S  c #573B32",
"D  c #523E3B",
"F  c #623429",
"G  c #70392A",
"H  c #2A4216",
"J  c #2C4C17",
"K  c #2D4419",
"L  c #2D4A19",
"P  c #37471A",
"I  c #314B1A",
"U  c #2E5116",
"Y  c #2E5219",
"T  c #32531A",
"R  c #3A5418",
"E  c #355B1B",
"W  c #3A5C1B",
"Q  c #37631B",
"!  c #3A641C",
"~  c #3D6D1D",
"^  c #3F711F",
"/  c #354D24",
"(  c #3D6721",
")  c #3F7320",
"_  c #4D410F",
"`  c #474717",
"'  c #4D4C16",
"]  c #564916",
"[  c #475418",
"{  c #445D1A",
"}  c #4B5B19",
"|  c #515117",
" . c #595518",
".. c #535C19",
"X. c #5B5B19",
"o. c #72490D",
"O. c #684916",
"+. c #794716",
"@. c #6A5719",
"#. c #765817",
"$. c #43641C",
"%. c #4B641C",
"&. c #436C1D",
"*. c #4D6A1D",
"=. c #55661C",
"-. c #41741F",
";. c #49741F",
":. c #43781F",
">. c #53711E",
",. c #6E651C",
"<. c #5A5225",
"1. c #4E413B",
"2. c #5B4132",
"3. c #55413C",
"4. c #5A433A",
"5. c #684329",
"6. c #774728",
"7. c #684835",
"8. c #744A32",
"9. c #794A35",
"0. c #6D5438",
"q. c #785438",
"w. c #4D6B2A",
"e. c #417620",
"r. c #4C7527",
"t. c #457C21",
"y. c #4A7C21",
"u. c #5A7823",
"i. c #6A612A",
"p. c #657A21",
"a. c #7B7A23",
"s. c #493A43",
"d. c #544542",
"f. c #5C4946",
"g. c #534449",
"h. c #614D46",
"j. c #624F4B",
"k. c #6A5144",
"l. c #65514A",
"z. c #6A554D",
"x. c #6E594E",
"c. c #745B4A",
"v. c #675554",
"b. c #6D5A53",
"n. c #725D54",
"m. c #587443",
"M. c #7C624B",
"N. c #796559",
"B. c #7B6A65",
"V. c #802E13",
"C. c #873815",
"Z. c #963915",
"A. c #943C15",
"S. c #93590D",
"D. c #874917",
"F. c #984617",
"G. c #934B19",
"H. c #885716",
"J. c #955718",
"K. c #A64D19",
"L. c #A85819",
"P. c #B45B1B",
"I. c #B95A1C",
"U. c #8A6517",
"Y. c #966718",
"T. c #B86B0C",
"R. c #A66817",
"E. c #A96F15",
"W. c #A56219",
"Q. c #B9651B",
"!. c #B36A1A",
"~. c #BC6C1B",
"^. c #B97319",
"/. c #855728",
"(. c #925327",
"). c #864A32",
"_. c #885834",
"`. c #945B34",
"'. c #9A5D33",
"]. c #897D24",
"[. c #886438",
"{. c #966E32",
"}. c #9A6738",
"|. c #A66836",
" X c #B06C30",
".X c #AB7536",
"XX c #A77538",
"oX c #B87A35",
"OX c #C35C1C",
"+X c #C66B1D",
"@X c #C4731A",
"#X c #C8791B",
"$X c #D67E1E",
"%X c #CC732B",
"&X c #86684A",
"*X c #906F4A",
"=X c #9A7848",
"-X c #826D5E",
";X c #A17A43",
":X c #846F61",
">X c #8A7668",
",X c #907964",
"<X c #478022",
"1X c #498423",
"2X c #4C8A24",
"3X c #4B8228",
"4X c #538323",
"5X c #538627",
"6X c #588430",
"7X c #718324",
"8X c #878526",
"9X c #938B28",
"0X c #B98139",
"qX c #BB9134",
"wX c #C9841B",
"eX c #D7881C",
"rX c #DC951C",
"tX c #E59C1F",
"yX c #EFB01D",
"uX c #CE922E",
"iX c #C88734",
"pX c #D48F35",
"aX c #D89536",
"sX c #E2942C",
"dX c #D8A239",
"fX c #EEB22C",
"gX c #F4C032",
"hX c #AD8545",
"jX c #B88E46",
"kX c #BB9147",
"lX c #A98A5C",
"zX c #988065",
"xX c #C79945",
"cX c #CA9B4A",
"vX c #CEA14E",
"bX c #D7A544",
"nX c #E2AD41",
"mX c #E3B242",
"MX c #F0C342",
/* pixels */
"U Q -.~ ^ ^ ^ ^ ^ ^ ^ ^ :.^ :.^ ^ -.:.-.~ ~ ^ :.:.^ :.:.) ~ ~ ~ ^ e.e.^ ^ :.:.~ Q ~ -.~ ~ ^ ^ ^ ^ ~ ~ -.e.e.:.^ ^ :.:.-.~ ~ ^ :.e.e.e.e.~ ~ ~ ^ ) ) e.^ ^ :.~ E ",
"! ~ -.-.e.e.^ ^ ^ ^ ^ :.:.:.:.^ -.-.-.^ ~ ^ ^ :.:.^ ^ ^ ) e.t.t.t.e.e.~ ^ :.<Xt.e.e.^ -.-.:.^ ^ -.^ ^ :.e.e.:.^ ^ :.^ ^ ^ ^ -.:.e.~ ) ) ) e.t.t.e.t.^ ^ ^ t.-.~ ",
":.:.-.:.<Xt.^ ^ ^ ^ <X<X<X:.<X^ -.:.-.^ -.:.:.:.-.&.&.&.e.t.2X2X2X<X-.~ ^ t.1X2X2X1Xe.t.<Xt.^ ^ ^ :.:.1Xt.t.t.) ) e.) ^ ^ e.t.e.e.) ~ ~ e.<X2X2X2X<X-.^ ^ t.:.:.",
"-.:.1X2X1X<Xe.e.:.:.^ 1X1X2X2X2X1X<X-.^ :.1X2X2X;.>.].7Xy.t.y.2X1X1X1Xe.:.<X1X<Xt.1X1X2X1X<X:.-.:.^ :.<X1X2X2X2X2X<Xe.^ <X1X2X1X1Xt.1X1X1Xy.<X1X1X1X1Xe.:.1X:.^ ",
"^ -.1X1X1X2X1X<X<Xt.t.<X2X2X2X1X1X1X<X<X1X2X2X2X<X>.8X7X;.y.t.t.t.t.1X1Xt.<X<X1X1X<X<X<X1X2X1X<X1X:.t.<X2X2X2X1X1X1X1X<X2X2X2X2X1X2X2X2X1Xt.t.t.t.t.1X1Xt.<Xe.-.",
"-.-.-.:.y.2X2X2X1X1X1X1X2X2X<X:.<X2X2X2X2X2X2X2X<X>.a.p.y.:.e.t.) ) 1X2X1Xt.1X2X1Xt.-.e.<X2X2X2X1X2X<X1X2X2Xt.t.<X2X2X2X2X2X2X2X2X2X2X2X1Xt.t.t.^ -.1X2X1Xt.e.e.",
"~ ^ -.:.t.t.<Xt.t.e.e.e.e.t.1X2X2X1X<X:.:.:.&.;.;.2X4X4X1X:.-.e.~ ) t.2X2Xt.-.e.<Xe.^ t.t.t.<Xt.t.) e.t.e.t.1X1X2X1X<Xe.t.t.<X1X2X2X2X2X1Xt.e.e.~ ^ y.2X2Xt.^ ! ",
"~ ~ -.:.t.-.^ -.) ^ ) ^ ^ ^ t.<X1X<X<X:.:.>.p.>.;.2X2X2X2X1Xy.1Xt.e.1X2X2Xe.^ -.t.e.e.<Xt.-.^ ^ ^ ^ ^ ) ^ ) t.1X1X<Xt.t.e.e.t.) t.1X2X2X1X1Xy.1Xt.e.1X2X1Xe.~ Q ",
"~ ^ -.<Xt.^ ) ) ^ ) ^ ) ^ ^ ^ e.1X<X1X2X<X8XqXa.>.1X2X2X2X2X2X2X1X1X1X2X1X) ) t.<Xt.e.<Xt.^ ^ ^ ) ) ) ) ) ) ) e.1X<X1X2X2X<X) ^ t.1X2X2X2X2X2X2X2X1X2X2X1X^ ~ ~ ",
"~ ^ -.t.t.) ^ ) ^ ) ) ^ e.t.e.<X1X<X2X2X2X9XuX8Xu.2X2X2X1X1X1X1Xt.e.e.1X2X<X1X1Xt.) e.t.t.:.^ ^ ~ ) ) ) ) t.e.<X1X<X1X2X2X2X<X1X2X2X2X2X1X1X1X1Xe.) e.1X2X1Xe.:.",
"^ ^ e.<X1X<Xe.) e.t.t.e.t.1X1X2X2X<X2X2X<X9XdX8X7X2X2X1Xt.t.1X<X^ Q W e.1X1X1X2X1Xe.) <X1X<X:.-.e.e.t.e.t.1X1X2X2X1X1X2X1X1X1X2X2X2X2X1Xt.t.1X1X) ~ ~ t.2X<Xt.:.",
":.-.e.2X2X2Xt.e.<X1X2X2X1X1X2X2X2X<X2X2X^ 9XdX8X>.2X2X1X-.1X2X2X^ R ` %.y.e.t.1X2Xt.e.1X2X2Xt.e.<X2X2X2X1X<X2X2X2X<X2X2X<X<X1X<X1X2X2X1Xe.1X2X2Xe.~ ^ 1X2Xe.-.-.",
"^ ^ ^ <X2X2X2X<Xe.e.1X2X<Xt.2X1Xt.1X2X1X1X7X9Xp.4X2X2X2X1X1X2X2X&. .H.@.*.^ t.1X<Xe.-.;.y.y.1X<Xe.e.1X2X<Xt.2X<Xt.1X2X2X1X2X2X<X1X2X2X1X1X2X2X2X1X<X1X2X2Xe.-.^ ",
"~ ^ :.:.1X2X2X1X) ) t.2X<Xt.2Xt.t.1X1Xt.2Xp.p.>.;.2X2X2X2X2X1X;.X.Y.iX.X@.&.e.3Xt.t.e.u.,.p.4X1X-.^ t.2X<Xt.1X<Xt.2X<Xt.2X2X2X<X1X2X2X2X2X2X2X1X1X2X2X2X1X1Xe.-.",
"-.:.1X2X2X2X1X1X2X<Xt.2X<X<X<X2X2X1Xe.&.t.1X2Xe.-.t.2X2X2X2X;.' (.uXMXaXY.' &.2X2X<X4X].].7Xu.1X2Xt.<X2X<X<X<X2X2X<X) ~ t.2X2Xt.e.t.1X1X2X2X2X<Xt.t.t.<X<X<X<Xe.",
"^ :.2X1X2X2X1X1X2X2X1X<X1X1X1X2X2Xe.) ~ e.t.t.) &.:.t.y.) $. .H.wXfXgXuXL.' &.2X<X1X2Xu.p.7X2X1X2X2X1X<X1X1X1X2X2Xt.) ) ) t.t.) e.e.t.t.t.t.1X1X1X<X1X1X1X2X<X:.",
"^ :.1Xt.t.2X1X1X2X2X1Xe.t.1X1X2X2Xt.-.-.e.e.e.e.e.t.<Xt.e.` O.Q.yXgXyX#XS.| &.2X<X1X1X^ -.1X<X1X2X2X1Xe.t.1X1X2X2Xt.e.e.e.) e.e.e.t.t.t.e.t.1X2X2X2X2X1X2X2X<X:.",
":.:.e.^ -.t.t.<X3Xe.) ) ) e.1X2X2X1X<Xt.<X<X2X2X2X3X1X2X1X[ +.~.tXyXyX#XG.| &.2X2X<Xe.^ ^ t.t.<X1Xe.) ) ) e.1X2X2X1X<Xt.<X1X2X2X2X1X2X2X2X2X2X2X2X2X2Xt.e.1Xt.:.",
"-.:.1X-.-.e.t.t.t.e.e.t.) ^ <X1X2X2X2X1Xt.t.1X2X2X2X2X2Xt.R c I.rXyXyX@XG.` $.2X1X1X<Xe.-.e.t.t.t.e.e.t.) ~ 1X2X2X2X1Xy.t.t.1X2X2X2X2X2X<X1X1X1Xt.t.1Xe.-.e.:.:.",
"^ :.2X<Xt.t.t.e.e.e.t.<X) ) <X2X2X1X1X2Xt.t.<X2X2X1X2X1X&.` c P.$XtXtX@XG.` $.2Xt.<X2X<Xt.t.t.e.e.e.t.1Xe.e.t.1X2X1X2X2Xt.t.<X2X2X2X2X1Xe.t.1X2X:.-.<X<Xt.^ -.:.",
"e.t.1X1X2X2X1X<Xy.e.) ) ~ e.2X1X1Xt.1X2X2X2X2X1X1X1X1Xt.;...D.P.OX+X$X+XG.' ^ 1Xt.e.y.2X2X2X1X<X<Xe.e.) ~ e.1X2Xt.1X1X2X2X2X2X<X<X1X1X2X2X2X2X2X2X2X2X2X1Xt.:.-.",
":.t.1X2X2X2X1X1X2X1Xt.t.t.1X2X2X1Xt.1X1X1X1Xt.1X1X1Xt.%.X.Y.E.^.I.I.+XOXG.[ ~ ;.X.%.t.1X2X1X1X2X2X1Xt.t.t.<X2X2X1Xt.<X1X1X1X<X1X1X1X<X<X1X1X1X2X2X1X1X2X2X1Xt.:.",
"^ :.2X1X<X1X1X2X2X2X2X2X2X2X2X2X1Xe.t.t.e.-.e.2X1Xt.e.{ c E.eX^.K.Z.+XOXD.| $.=.D.#.>.y.<X<X1X2X2X2X2X2X2X2X2X2X1Xe.e.<Xt.e.e.2X2Xt.<Xe.) e.t.t.t.-.e.1X2Xy.t.:.",
":.:.t.1X1X2X1Xt.t.2X2X2X2X2X1X1Xt.e.e.e.e.t.1X2X1X) e.&.} U.S.K.Z.K.$XOXF.c O.Y.wX!.#.*.<X2X<Xt.t.1X2X2X2X2X2X1Xt.t.e.e.e.e.1X2X1X) e.t.t.e.e.e.^ -.t.1X1X1X:.^ ",
"-.:.1X1X1X1Xt.t.<Xt.t.t.1X2X1Xt.t.1Xt.e.:.<X2X2X1X^ ^ ^ &...O.D.Z.Z.L.K.v d l H.^.E.b ` Q :.t.t.t.1Xt.e.1X2X1X1Xt.1Xt.e.t.<X2X2X1X^ ^ :.e.:.^ ^ ^ ^ 1X<X<X<X:.^ ",
"^ t.2X1X<X^ ) <X<X<Xe.) <X2X1X1X1X2X1X1X2X2X2X2X1X-.e.) ^ ! [ k V.C.c l l d f j @.O.h O 1 E ^ t.t.t.e.^ t.2Xt.<X<X1X1X<X2X2X2X2X1X^ ^ ^ ^ ^ ^ ^ ^ ^ 1X1X<X<X<X^ ",
"^ t.1X<X^ ^ ^ :.2X2X2X1X1X1X<X1X2X2X2X2X2X2X1X2X2X1Xe.~ ~ ^ ! [ k h # w B k m e e ; q 9 = 5 T Q ~ t.1X1X1X:.! Q ! ! ^ t.2X1X1X2X2X1X-.^ ^ ) e.t.:.<X<X<X<X2X<X^ ",
"-.t.1X1X<X:.^ :.2X2X2X1X2X1X<X2X2X2X2X2X2X<X:.:.1X2X<Xe.:.<X-.E j , 0 p 4.q.{.0.a i a 1.C 6 4 2 I ~ t.1Xy.~ H 5 L 5 I ! t.1Xt.1X2X2X<X:.e.t.1X1X1X1X<X<X<X1X<X^ ",
"^ :.2X2X2X2X1X2X2X<Xt.e.1X2X2X2X2X1X1Xt.) ! Q ~ e.t.1X2X1X1X^ L > t d.g.n.jXbXxXM.v.b.N.x.3.e @ 9 I W &.Q L > e e e 4 H ~ e.e.<X2X2X2X2X2X2X2X2X2X2X2X1X<X<X:.^ ",
"~ :.<X2X1X:.2X2X<X1Xt.e.<X2X2X1X<Xt.e.! K < < < H E 1X2X2X~ L > y A f.j.c.kXbXcXN.b.N.>XB.l.3.C A N 6 1 2 y A f.l.f.A y K W t.e.:.2X2X2X2X2X2X2X2X1X:.<X1X^ ^ ~ ",
"^ :.1X2X<X:.<X1X1X<Xt.e.<X1X2X<Xe.e.Q I : - ; 8 > 5 Q -.&.I > t d.f.z.f.c.kXbXvXN.b.B.>X>XN.n.z.x.0.5.g > a l.N.:X:Xb.C * J e.t.<X2X2X2X2X<X<X2X2X<X<X2X2X<X^ ^ ",
"-.<X2X2X1X:.:.1X2X<X) e.e.e.e.e.e.~ L > t C A 4.A y 5 H P , M 3.l.b.v.j.c.kXdXbX>XB.B.>X>X,X:XN.n.;X.X/.S A b.N.:X,XN.3.- < ~ 1X2X<X2X2X2X:.:.1X1X2X2X2X2X1X:.:.",
"^ :.1X1X<Xt.<X<X<X<Xt.e.t.1Xt.1Xe.Y 4 w D h.x.n.b.d.a ] 6.5.D d.l.x.z.v.x.;XxXvXlXlXlXzX>X>XB.v.v.jXbX0X0.s.b.v.b.B.N.g.$ H ) 1X<X:.1X2X2X<X<X1X1X2X1X<X<X1X1X:.",
"^ :.t.<X<X<X1X1Xt.2X1Xe.1X2X2X2X-.L 4 M h.x.c.-XN.N.4.).|.`.0.g.d.l.z.z.x.c.=XkXvXbXvXlX>XB.b.v.b.xXmXqX0.g.l.l.v.N.b.1.$ K t.t.t.e.<X2X2X1X1X1X2X1X<X^ ^ 2X1X^ ",
"^ -.t.t.1X2X2X2X2X2X2X2Xt.e.2X2X-.J 4 p h.z.x.N.B.N.c.*X0X.X_.3.A d.l.z.v.f.x.=XbXdXbXcXlX,X&X&X*XkXkX{.4.g.j.c.&X*X&XS ; H ^ ^ :.1Xt.1X2X1X1X2X1X<X<X<X1X2X:.~ ",
"^ ^ :.-.t.1X1X2X2X2X1X<Xt.t.2X2X:.T 4 t 4.l.x.N.N.n.l.k.[..X.X_.4.Z d.l.z.v.z.M.=X=X=XkXcXvXxXxXxXhX[.k.A 1.d.*XkXbXoX_.g P ^ -.t.1Xt.t.<Xt.<X1X1X1X<X<X2X2X^ Q ",
"^ ^ ^ ^ e.<Xt.<X2X2X1X:.t.1X1X2Xt.E 5 e C 4.l.x.z.f.3.C A _..XXXq.D A d.f.l.l.j.v.x.&XhXbXmXnXdXdXhX0.A Z D 0.XXxXdXiX/.] W e.t.t.e.&.&.-.&.&.:.1X2X<X1X2X2X^ ~ ",
":.-.^ -.) ^ t.1X2X1X1X<Xt.<X1Xt.e.~ T 5 e V f.h.f.1.C p V D _.XXoX[.D s.s.s.s.g.f.*XkXkXhX;X=X=X{.{.}.0.d.8.XXXXXX[.5.` %.r.3Xy.e.$.' } :.} ' ! ^ ^ 2X2X2X<X<X^ ",
":.:.:.:.<Xt.<X<X<X<X<X<X1Xt.<Xt.<Xt.-.E 2 e M 3.4.D M r u V 9.XXoXXX_.k.7.0.0.c.&XhXiX;Xc.z.j.h.f.}.0XXX}.XXpX|.2.y 6 W e.y.1Xe.=.@.H.,.%.#.H.@.} ~ 1X1X:.:.:.:.",
"~ :.<X1X1X2X<Xt.t.e.t.1X1X1Xt.1X2X1X2X<XT 2 e M A A M r p S _.}.}.XX.XoX.X.XoXoX0X0X=Xc.d.s.s.s.Z {.pXaXpXpXaX`.y % Y t.e.t.t.$.,. XqX{. .E.@XW.O.E <X:.^ :.:.^ ",
"Q -.1X1X<X1X1X1X1Xt.t.2X1X2X2X1X1X1X2X1Xe.E 2 e p C p M 5._.`.9.7.0.oXpXsXpXiXiXoX}.4.A Z D A Z d.}.pXaXpXiXoX6.g L ~ 1Xt.<Xe._ (.aXfXiXG.^.wX!.@.[ 1X<X<X2Xt.^ ",
"~ -.t.t.t.<Xt.t.<Xe.t.1X<X<X<Xt.t.t.t.t.t.~ E 5 9 r M 7.`.`.9.S p A q.oXaXiXXX_._.k.A Z D D D Z 3.}.iXiX}.q.8.F N R ~ e.e.t.;.j H.rXfXuXA.K.W.U.=.&.t.e.:.2Xt.:.",
":.:.-.t.<Xt.^ ^ -.e.t.<Xt.t.e.e.-.e.-.~ ^ t.-.J * 8 S _.|._.S r r t n `.%X;Xh.Z A D D D D D D A 3.|.%XXX4.i t n B P ! ~ $.&.e.` D.wXrX@XC.x c %.;.<X-.^ ^ t.:.:.",
"^ :.1X2X1X<X-.-.e.-.-.t.1X2X2X2X1X1Xe.^ <X1X<XU 6 n ).).G N M t p t p /.oX}.7.a s.3.D D D D D s.s.}.oX}.S u p w 6 T ! { ` %.y.' D.@XrX~.C.] { ;.1X1X<X:.:.<X:.^ ",
"^ e.<X1X1X2X1X<X<Xt.t.<X2X2X2X1X1X-.E T E ! ! 2 , B ).G n w r p p p M 8.'.'.q.s.C Z Z C Z Z Z S 0.'.'.9.V 0 0 8 - I } ,.H.,.>.] +.@X$XP.v ' ^ <Xt.t.1X1X<Xt.e.^ ",
"-.^ e.e.<X2X2X2X1X1X1X1X2X2Xt.t.-.Q K & < 3 % X O n G F w 8 0 p p p V N G `.'.).C i p p p p Z 9.|.`.8.D r 0 @ o X , O.Y.wXR.O.k C.P.%XI.v } -.e.~ ^ 1X2X1Xt.:.:.",
"~ ^ ^ e.t.t.t.t.t.e.e.e.e.t.1X2Xt.E 1 $ $ * $ % 4 6 m m w 0 0 q n n V i Z 8.`.`.5.S 5.7.S 7.8._.'.9.C V N m # . . # b !.eXE.b l V.K.P.P.J.@.{ ~ ~ ~ t.2X2Xe.^ ! ",
"~ ^ e.<Xt.^ ^ ^ ) ) ) ) ^ ^ t.1Xy.~ T I L J J Y T P h n w 0 q n k B M u u C 7._.`.'.'.'.'.'.'.(.9.N M S 9.G g + + + k G.Y.D.h l x C.K.!.#XS.O.{ ~ t.1X2X2X^ ~ ! ",
"~ ^ -.:.:.~ ! ! &.^ ^ ^ ) ^ ^ e.<Xt.1X2X1Xe.~ Q E R n n 7 7 n b F.D.B M w 0 N ).oX%X X X X X|.8.M p S 9.).6.j 6 - $ = j k j = f z Z.K.@XrX!.+.%.-.1X1X2X1X^ ~ ^ ",
"~ ~ -.<X^ $.] _ ! ^ e.~ e.e.e.<X1X1X2X2X2X~ K 5 3 = ; + + # l W.@X~.G n w # F G.%X;X).7.8.8.5.N t F ).G B ` { $.( E E ~ *.! T j +.P.@X@XW.#.=.*.-.-.e.1X1X<Xe.e.",
"^ -.-.:.%. .D.o.} &.e.e.t.<X1X2X2Xe.e.( &.I & @ @ . > : & , b @XrXwXA.h n l G.Q.|.).C w p V t r r G ).G w % Q <X1X<X<X1X1X1X:.' +.Q.@XW.O.} :.1X^ ~ ^ t.2X1Xt.:.",
":.-.^ -.=.D.~.!.+...:.2X1X1X2X2X<XW K 3 < & @ @ @ * E ! R 6 +.@XtX#XZ.l z W.wX$XK.G w 0 0 u 0 8 7 m G F 8 $ H ( 1X<X1X2X:.1X;.' +.K.G.@.{ :.2X2Xe.~ ^ 1X2X-.-.-.",
"&.-.&. .H.^.@XP.F.] $.2X1X<X2X1X-.E 4 @ @ & : 3 5 T ) 1Xe.[ +.Q.$X+XA.z z R.#X^.x m n 7 8 8 8 - - , g n q 8 ; K W t.2X2X2X2X<X| +.Z.b  .:.2X2X2X1X<X1X2X2Xt.-.^ ",
"( w.i.D.T.eXQ.K.F.] { 1Xt.) <Xt.~ J 3 @ @ 4 I I E ~ <X2X2X} +.I.+XOXZ.d d b S.D.g s n w 8 - - 4 I 1 - ; ; 7 8 - 5 ~ ^ :.1X2X;.| b Z.b | 2X2X2X2X1X1X2X2X1X1Xe.-.",
"e.w.q.H.T.eXL.A.Z.] $.1X) E Q ~ ! 5 & @ * T t.-.^ e.1X2Xy.} +.K.P.K.z # + # h f > > n 6 = $ < E y.E 2 $ & ; 8 8 - 4 J E Q ~ &.] v Z.b | y.2X2X:.t.t.t.<Xt.1Xt.e.",
"e.r.u.@.S.~.~.P.F.@.~ ~ L 4 4 5 4 & X & L ~ e.e.-.e.<X<X-.[ c F.A.x s + o + + 1 T ( %.{ W ! ! e.2Xt.! E Y K ; @ X X & : 3 2 5 k x A.b ' ;.t.1X1X1X1X1X1X2X2Xt.t.",
"-.:.<XT ] J.@X~.D.' T L * o + . & : 3 H ~ e.t.e.t.:.:.<X-.[ c Z.V.h + . o X < T e.1X1Xe.t.2X1X1X1X1X1Xt.^ T 4 : : 3 & X . o + f x Z.c | e.t.1X2X2X2X2X2X1X2X1X^ ",
":.:.:.~ [  .J.D.h ; X $ . @ @ : I ! ~ ! t.1X2X1X2X1X2X2X1X} k Z.x h +   . * E <X1Xy.e.) e.t.t.t.1Xe.^ ^ ~ ~ ! ! ! ~ T 3 @ . @ 8 m v b X.2X2X2X2X2X2X2Xt.^ 1X1X:.",
"-.t.t.:.! [ c h 6 : * * < : 3 T ~ <X<Xt.t.t.1X2X2X2X1X;.=.#.S.L.C.f + X : L ^ 2X1X1Xt.e.e.e.t.t.t.e.e.t.^ ^ -.t.1X1X&.E 4 3 : - q m k ` W t.1X:.~ ~ <Xe.^ t.t.:.",
"^ t.1X1X-.T , > H J Y T J J E &.1X1X2X2Xt.t.1X1X2X2X1X&._ Y.#X@XA.d O * J ! t.2X1X1X2X<Xt.t.t.e.e.e.t.<X-.^ <X2X2X2X1Xe.E T T % 8 n n 6 4 ! ;.} ' ' -.<X<X^ ^ ^ ",
":.t.1X1X<X! K K ~ ~ ~ ~ ( ^ t.<X<X<X1X2X2X2X2X<X<X1Xt.$. .Y.wX#XF.d + L ^ ) 1X2X2X1X1X2X2X2X1X<X<Xe.) ) ~ :.2X1X1X<X1X2X1X1Xt.E 4 - 8 0 - I ..#.H.#.>.y.3X<Xt.:.",
"-.t.1X2Xt.e.Q ~ 1X1Xt.<Xt.1X2X2X1Xe.<X1X1X<X<X1X1X1Xt.;.} #.J.L.C.h O T t.<X1X2X1X1X1X1X1X2X1X2X2X1X<Xe.t.1X2X2X1Xe.t.1X1X1X<X) E 4 $ o @ g O.W.~.L.@.*.1X<Xt.e.",
"-.:.2X1X1X1X1X1X2X2X2X2X2X2X2X2X1Xe.e.<Xe.e.e.2X2Xt.t.^ ! ` c C.l f = E ^ <X1X2X1X1X1X1X1X1X1X1X2X2X2X2X2X2X2X2X1X-.t.<Xt.e.) 2Xe.T : $ = s v Q.#XP.c } <X<Xt.t.",
":.:.t.y.1X2X1X<Xt.1X2X2X2X2X1X1Xt.t.e.e.) t.1X2X1X) ^ E 2 h z z f = E ^ <X<X1X1X2X1Xt.1X1X2X1Xt.<X1X2X2X2X2X2X<Xt.e.e.) e.e.1X2X<X! E E E 1 f D.F.v , P ) 3Xt.( ",
"-.:.<X1X1X<Xt.t.t.<Xt.t.1X2X1Xt.t.1Xt.e.t.1X2X2X1Xe.~ L $ g h h 6 J ^ <Xt.<X<X<X1X1X<X1X1X1Xt.t.t.<Xt.t.1X2X1X<Xt.1Xt.e.<X<X2X2X<X^ ^ ^ ^ H 5 k ] k 2 K Y U ( w.",
"^ :.2X2Xt.^ e.<X<X<Xe.) <X1X1X1X1X2X1X1X2X2X1X1Xy.e.~ L X # , 6 T ~ <X<X<X<X<X1X<X1X1X2X<X^ ) <X<X<Xe.) <X1X1X1X1X2X1X1X2X2X1X2X<Xe.) ) ^ Q T T R R Y H $   / m.",
"^ t.1X<X-.^ ~ e.2X2X2X1X1X1X<X1X2X2X2X2X2X2X1Xe.&.) ~ I $ . : T ~ :.<X<X1X2X2X2X1X1X1X<X^ ^ ^ ^ 2X2X2X1X2X1Xt.1X2X2X2X2X2X2X1X2X2X1X) ) ^ ^ ^ ^ -.-.^ U $   L m.",
":.t.1X1Xt.t.) <X2X2X2X1X2X1X1X1X2X2X2X2X1Xy.e... .X.&.T @ $ L e.<X1X<X<X<X1X1X2X1X2X1X<X<Xt.^ <X2X2X2X1X1X1X<X2X2X1X2X2X2X<Xt.1X2X2X<Xe.^ t.1X1X1X1X<X~ U H W r.",
"^ <X2X2X2X2X2X2X2X<Xt.t.<X2X2X2X2X1X1X<X<X) } #.D.H.=.P & L ~ 2X2X2X2X1Xt.<X<X2X1X1X2X2X2X2X2X1X2X<Xt.e.<X2X2X2X2X1X1X1X1Xe.-.1X2X2X2X2X2X2X2X2X2X2X2X<X:.:.:.^ ",
"^ ^ <X2X1Xt.1X1X<X1Xt.) 1X2X2X2X1Xt.t.t.<X%.] W.+X!.+.f O H ~ 2X2X1Xt.<X<Xt.:.:.t.<X<X2X1Xt.1X2X1X1Xt.e.<X2X2X2X<X<X:.t.2X2X1X:.t.2X2X2X2X2X2X2X2X<X<X<X<X<X^ ~ ",
"^ ^ 1X2X1X^ <X1X2X<Xt.:.t.1X2X<Xt.t.t.t.1X%.] J.!.W.z # O 5 ! 1X2X<X<X1X2Xt.t.t.<X<X<X2X<X:.<X1X1X<Xt.:.<X2X3X<Xt.<Xt.<X1X2X1X:.<X1X2X2X2X<X<X2X2X<X<X2X2X<X^ ~ ",
"^ <X2X2X1X<X:.<X2X<X^ ^ :.:.^ :.t.1X2X2X<X) { X.+.C.g + @ 2 Q <X1X2X2X2X2X1X2X2X2X2X2X2X1Xt.:.<X2Xt.) e.e.e.e.e.:.1X2X2X1X^ -.1X2X<X2X2X2Xt.:.1X1X1X2X2X2X<X<X^ ",
"^ :.2X1X<Xt.<X<X<X<X:.^ <X1X<X:.<X1X<X:.<X^ %.#.Y.G.h # 2 U ^ 1X2X2X1X:.:.2X2X2X1X1X1X1X1Xt.t.1X1X<Xt.^ <X1Xt.:.1X1X<Xt.1X<X1X1X<Xt.1X2X2X<Xt.1X2X2X1X:.<X2X<X<X",
"^ :.<X<X<X<X2X1X:.2X1Xt.1X2X2X1X1X1X<X:.:.$.| U.!.E.c 6 R ^ :.1X2X1X<X^ :.2X2X2X<Xt.<X<Xt.<X2X1Xt.2X1Xe.1X2X2X1X1X1X<X:.t.1X2Xt.) t.<X2X2X1X<X2X2X1X1X^ ^ 2X<X^ ",
"^ :.:.:.1X2X2X2X2X2X2X2X:.:.2X1X<X2X2X<X<XW j S.T.E.o.[ <X2X2X2X1X<X:.<X1X2X<X<X1Xt.t.t.1X2X2X2X2X2X2X2Xt.:.2X1X<X2X1X<X<X1Xt.) e.<X<X1X2X2X1X2X1X<X<X<X2X2X^ ~ ",
"^ ^ ^ :.:.2X1X2X2X2X2X1X:.:.2X2X2X2X1X1X1X;.} #.H.H.=.~ <X:.:.2X2X2X<X1X2X2X:.^ <Xt.e.-.t.1X1X1X2X2X2X1X:.:.2X2X2X2X2X1X2X1Xt.-.<X1Xt.e.t.t.<X2X2X1X<X<X2X2X^ Q ",
"^ ^ ^ ^ :.:.:.1X2X2X1X^ <X1X2X2X2X<X<X<X2X2X<Xw.<.i.r.t.:.:.:.2X2X2X1X1X2X2X<Xe.1Xt.-.^ e.<Xt.<X2X2X1X:.:.1X2X2X1X1X<X1X2X2X<Xt.<X2X<Xe.e.t.t.1X2X2X1X1X2X1X^ ~ ",
":.^ ^ :.:.^ :.1X1X1X1X1X:.<X1X<X:.:.:.:.2X2X2X3X6X6X5X1X<X1X1X<X^ :.1X2X2X1X1X2X2X:.^ -.^ -.t.1X1X1X1X1X<X<X1X<Xe.) e.t.2X2X1X<X1X1X2X2X<X2X2X<X^ :.2X2X2X1X<X^ ",
"^ ~ ^ ^ ^ ^ :.:.:.^ :.^ :.:.:.:.:.-.:.:.) <X<X1X3X3X1Xt.t.t.t.:.~ ~ t.:.^ ^ e.<Xt.-.~ -.-.-.-.:.:.^ :.^ ^ :.:.:.e.:.:.e.t.t.t.<Xt.t.<Xt.e.t.<Xe.^ ~ :.:.^ ^ ^ ^ ",
"Q Q ^ ^ :.:.^ ^ ^ ! ^ ^ ^ ^ ^ ^ :.-.:.:.~ ) ) t.) ^ ^ e.^ -.-.:.~ ~ ^ ~ Q ~ ^ ^ -.^ ~ -.-.:.^ ~ ^ ! ^ ^ ^ ^ ^ ^ t.-.:.-.~ ~ ^ t.:.^ ^ ^ -.^ -.e.~ ~ ^ ~ Q ! Q Q "
};
