/* XPM */
static char *Group_10_2__resized[] = {
/* columns rows colors chars-per-pixel */
"80 80 209 2 ",
"   c #293D32",
".  c #283937",
"X  c #2B491F",
"o  c #2F521A",
"O  c #31541F",
"+  c #335A1E",
"@  c #37631B",
"#  c #39661C",
"$  c #3C6D1D",
"%  c #3F711E",
"&  c #2C4927",
"*  c #2F4C2B",
"=  c #314E2D",
"-  c #325523",
";  c #355B23",
":  c #33542B",
">  c #365A2B",
",  c #385B2A",
"<  c #3A5D2B",
"1  c #2D4434",
"2  c #2F4A33",
"3  c #2E433C",
"4  c #334E35",
"5  c #30473D",
"6  c #334C3D",
"7  c #355234",
"8  c #375735",
"9  c #3B5D33",
"0  c #35523B",
"q  c #39553B",
"w  c #3C5B3A",
"e  c #376023",
"r  c #3A6423",
"t  c #3D6C22",
"y  c #3D632C",
"u  c #3E692B",
"i  c #3F7121",
"p  c #3E6332",
"a  c #41751F",
"s  c #43781F",
"d  c #406E26",
"f  c #40672D",
"g  c #416C2B",
"h  c #427521",
"j  c #457C21",
"k  c #437229",
"l  c #406532",
"z  c #416930",
"x  c #40613B",
"c  c #2B3B45",
"v  c #2E3C49",
"b  c #303F4B",
"n  c #303B57",
"m  c #323E5A",
"M  c #2F3665",
"N  c #333E67",
"B  c #2E4143",
"V  c #2E4048",
"C  c #314446",
"Z  c #344B43",
"A  c #384F41",
"S  c #33444C",
"D  c #354B4B",
"F  c #384E4A",
"G  c #365142",
"H  c #395240",
"J  c #3A544D",
"K  c #334254",
"L  c #354A53",
"P  c #34435C",
"I  c #364A5B",
"U  c #384D58",
"Y  c #395354",
"T  c #3B525E",
"R  c #3E5A59",
"E  c #354364",
"W  c #394A64",
"Q  c #364468",
"!  c #38476E",
"~  c #3A4C6C",
"^  c #3C5364",
"/  c #3D526B",
"(  c #374375",
")  c #394772",
"_  c #3A4B74",
"`  c #3D4C7B",
"'  c #3E5274",
"]  c #3F5279",
"[  c #405F58",
"{  c #42596E",
"}  c #405573",
"|  c #425976",
" . c #41557C",
".. c #43597B",
"X. c #4A6A70",
"o. c #478022",
"O. c #498423",
"+. c #4C8A24",
"@. c #3E4D82",
"#. c #3F5080",
"$. c #404E83",
"%. c #415282",
"&. c #455C84",
"*. c #43558B",
"=. c #465A8B",
"-. c #485E8C",
";. c #475A93",
":. c #485A97",
">. c #495D94",
",. c #486383",
"<. c #49628C",
"1. c #4D6C8B",
"2. c #506E8C",
"3. c #4B6493",
"4. c #4F6A93",
"5. c #4C639D",
"6. c #4F689B",
"7. c #506B99",
"8. c #506B9D",
"9. c #557894",
"0. c #53729D",
"q. c #4F66A1",
"w. c #4F68A0",
"e. c #5066A1",
"r. c #526CA4",
"t. c #546EAA",
"y. c #5675A6",
"u. c #5570AC",
"i. c #5B7CAD",
"p. c #5773B1",
"a. c #5876B2",
"s. c #5B7AB5",
"d. c #5B77B8",
"f. c #5D7CBA",
"g. c #5C83B2",
"h. c #5F81BA",
"j. c #638AB5",
"k. c #6084BE",
"l. c #6997B9",
"z. c #6285C2",
"x. c #658AC6",
"c. c #678DCA",
"v. c #688ECE",
"b. c #6A94C3",
"n. c #6A97C5",
"m. c #6D9BC4",
"M. c #6A92CE",
"N. c #709FCD",
"B. c #698ED1",
"V. c #6C95D3",
"C. c #6E99D6",
"Z. c #6E95D9",
"A. c #6F9AD8",
"S. c #709AD7",
"D. c #719EDB",
"F. c #73A7CC",
"G. c #78B0CF",
"H. c #74A9D1",
"J. c #73A1DE",
"K. c #7DB8D3",
"L. c #75A5E2",
"P. c #78A7E5",
"I. c #77A8E4",
"U. c #79AAE6",
"Y. c #7AADEA",
"T. c #7DB5E3",
"R. c #7DB2ED",
"E. c #7FB5F1",
"W. c #81BEE4",
"Q. c #82BBEC",
"!. c #80B6F1",
"~. c #82BBF4",
"^. c #84BEF9",
"/. c #83C3E1",
"(. c #8BCCE7",
"). c #86C4EE",
"_. c #8ACBEA",
"`. c #8DD2ED",
"'. c #86C2F5",
"]. c #88C6F2",
"[. c #8BCAF6",
"{. c #87C3FD",
"}. c #88C6FF",
"|. c #8ACAFF",
" X c #8ED0F7",
".X c #8ED1FE",
"XX c #92DBF4",
"oX c #98DDF0",
"OX c #91D5FE",
"+X c #93DBFF",
"@X c #96E5FF",
"#X c #99E6FF",
"$X c #97E8FF",
"%X c #9BEAFF",
"&X c #9EF2FE",
"*X c #A1E9FA",
"=X c #A4EDFF",
"-X c #A8EFFF",
";X c #A3F4FD",
":X c #AAF1FE",
">X c #A5FAFE",
",X c #ABFAFE",
"<X c #B3F4FF",
"1X c #BAF7FF",
"2X c #B3FDFE",
"3X c #BCFBFF",
"4X c #C3FBFF",
"5X c #CBFFFF",
"6X c #D1FFFF",
/* pixels */
"o @ a $ a $ a a a $ $ a a s a a % % j s % $ % o.s % j s % % $ % % % % % % o.% % @ $ % % % % % % s % % % % % o.% % o.% % % % % s h a s a a $ $ a $ a a a a s # + ",
"# $ a a s h a $ a $ a j s a a a % % % % % % s % % % % % i i j j o.% % % % s o.j j % % % s % % % % % % s j s % % % % j % % % % s a a a $ $ h j j j h a $ a j a $ ",
"s s a s j j a a a a j o.j j j h % j % % % s j i % i % % i O.+.+.+.o.% % % s +.+.+.o.% j o.j % % % % s O.o.% i % % % % % % % o.% a a $ a h o.+.+.+.j a $ a j s s ",
"a s O.+.+.j a h s a a j O.+.+.+.+.O.i % j O.+.O.O.o.o.O.O.o.o.O.+.O.O.s s o.o.o.O.O.O.+.+.o.% % o.s % o.+.+.+.+.+.+.% % o.+.+.+.O.j j O.j o.O.+.+.+.o.j s j s a ",
"a a j O.O.+.O.j O.s j o.+.+.+.O.O.O.o.o.O.+.+.+.+.+.+.+.+.o.o.o.j o.+.O.o.o.o.O.O.o.o.o.O.+.O.o.O.o.o.O.+.+.+.O.+.+.o.+.+.+.+.+.+.O.+.+.+.j j j h j +.j j j s a ",
"a a a s j +.+.+.O.O.O.o.+.O.o.j o.+.+.+.+.+.+.+.O.O.+.O.o.i j i $ t j O.o.j j O.O.i i i i +.+.O.o.o.j o.O.+.j j o.+.+.+.+.+.+.+.+.+.+.+.o.j j j a a O.+.+.j a s ",
"$ $ a s j j j j j j j h j j O.O.+.o.o.i j j j t r e e e e ; O O O O e r e + - + ; + O + e e + ; + O O + $ i +.+.o.+.o.% i o.o.O.+.+.+.+.O.j s h $ a j +.+.j a # ",
"$ a a s s s s s % % % i $ % j O.O.o.j j j % r : 5 Z Z 6 6 3 3 5 3 3 3 6 6 3 3 3 3 3 3 5 3 3 3 3 3 c B 2 - $ i +.+.o.O.% o.i j i j O.+.+.+.o.o.O.s h O.+.+.h # @ ",
"% % % o.% % % % % % % % % % % i O.j O.+.O.d > L ! $. ._ _ _ _ _ ) ) ) _ _ _ _ ~ _ _ _ _ ! ) ) _ _ #.] L 0 ; $ % i o.+.+.O.j i i j O.+.+.+.+.+.+.O.o.+.+.O.% $ $ ",
"$ % s s o.o.% % % i % % i j i O.O.O.+.+.a < D ] e.d.a.i.i.a.a.a.p.p.p.s.s.g.j.j.g.g.g.g.g.g.g.g.g.b.h.9.R * X & - # o.+.+.+.j O.+.+.+.+.O.o.o.+.j h j o.O.o.j a ",
"% % % +.+.o.% % h j j j j o.+.+.O.O.o.h < J %.u.c.J.P.I.I.I.P.P.L.L.L.I.K././.(./././././././././.`.(.G.9.^ B V D 8 i +.+.O.O.+.+.+.+.O.j j +.o.h $ % j +.O.j s ",
"s % % +.+.+.o.i o.O.+.+.O.o.o.o.j h h y D  .s.V.!.{.|. X.X X XOX.X.X X+X$X&X&X&X;X;X;X;X;X:X:X>X;X>X&XXXF.y.*.3.,.Y p o.i j +.o.O.+.+.o.a o.+.+.h $ % o.+.h a a ",
"% % % o.+.+.+.o.% o.o.+.O.j i r = = = 6 } r.B.!.!. X.X.XOX|.OX+X@X@X#X#X=X;X&X&X;X,X2X3X3X3X3X3X2X2X>X$X/.H.m.N.m.2.Y > i +.+.O.O.+.+.+.o.+.+.+.o.o.O.+.+.j a a ",
"$ % s o.O.+.+.o.% % i +.j i u G b m P } 3.z.!.~.'.|.|.|.|.|.OX+X%X%X%X%X%X&X&X%X;X,X3X5X5X4X5X5X4X3X;X%XXX`.`.XX(.l.1.D y i +.O.o.O.+.+.+.+.+.+.O.+.+.+.O.o.j $ ",
"% s O.+.+.+.o.O.+.O.o.+.i u G ] 5.6.r.s.v.!.^.|.|.|.|.}.|..X+X@X%X;X%X&X%X%X%X=X:X1X4X6X6X6X6X6X5X4X<X;X;X;X>X>X&X`.m.4.Y y i i h j O.O.O.+.+.o.j j j o.j O.j s ",
"% s +.o.+.+.O.+.+.+.+.i e 0 / 8.f.v.Z.D.!.!.|.}.|.}.}.|.|.OX@X%X&X%X%X%X%X%X%X:X1X4X5X5X6X6X6X5X5X5X1X<X>X>X&X&X;X$X_.m.1.Y : # i j j j j j O.O.O.o.O.O.+.+.o.s ",
"% o.O.j j +.O.o.+.+.i r 6 W w.z.J.R.'.'.'.{.{.|.}.{.{.|.+X@X%X%X%X%X%X$X@X%X=X1X5X5X5X5X5X5X5X5X5X5X5X4X<X=X$X%X%X;X%X(.l.,.c : t i j j j j O.+.+.+.+.O.+.+.o.s ",
"s s a % a j j o.i $ > G ' w.v.Y.~. X.X.X.X|.|.{.}.{.}..X+X%X&X&X%X#X%X$X$X#X-X4X5X6X6X5X5X5X5X5X5X6X6X5X4X:X=X#X%X>X>X&X_.x.-.Y 9 i j O.+.+.+.+.+.+.+.s h o.j s ",
"% s o.s a s j a i - Z ' 8.x.Y.^.|..X.X.X|.|.|.{.{.{.}.|.+X%X%X%X%X%X%X$X@X%X:X1X5X6X5X5X5X5X5X4X5X5X5X5X5X4X<X=X%X&X&X&X@XT.z.4.R : h o.j o.O.+.o.j O.s a h s s ",
"% s +.O.j j j a r 1 P q.z.J.E.{.{.|.|.|.|.{.|.{.{.{.{..X+X%X%X%X%X%X%X$X@X%X-X1X5X6X5X5X5X4X5X5X5X5X5X5X6X5X4X-X%X%X%X%X%X.XU.f.] 3 t s j j O.O.s % o.o.j a a s ",
"s j o.O.+.+.O.j t B ) d.Z.Y.~.~.E.{.|.|.|.|.{.{.}.{.{.|.+X#X&X%X%X%X@X$X$X%X-X1X6X6X6X5X5X5X5X5X5X5X5X5X6X6X5X<X%X$X$X%X;X#XQ.k.] . r O.+.+.+.+.+.+.+.+.+.j s s ",
"s j O.+.+.O.O.o.i 4 W t.c.J.Y.Y.T.E.{.|.|.{.{.|.{.{.}.|.+X%X%X%X#X%X%X$X@X%X=X3X5X6X5X5X5X5X4X5X4X5X5X5X6X6X4X:X%X@X$X&X>X&X_.b.%.. ; s o.O.O.o.O.O.o.+.+.o.s s ",
"a s +.O.o.o.O.O.j y J ..0.k.V.A.J.Y.E.{.{.{.|.{.{.{.{..X+X%X%X%X%X%X%X@X@X%X=X<X4X5X5X5X5X5X5X5X5X5X5X5X5X4X1X-X%X$X$X%X>X%X`.F.4.U 8 r t a j j s j s O.+.o.j s ",
"a s j o.+.+.O.j j j u w ^ <.f.V.D.L.Y.E.~.{.|.|.{.{.{.|.+X%X&X%X%X#X%X%X#X#X%X=X<X3X5X6X6X5X4X5X5X6X6X5X4X<X=X*X%X%X%X%X;X=XXXQ.n.1.^ q ; $ a h % % j o.O.O.j % ",
"a s j O.O.o.i % % j % - B ' p.M.J.L.L.Y.E.|.|.|.{.{.{.|.+X@X%X%X%X#X$X%X%X%X@X%X=X:X4X5X5X5X5X5X5X5X5X4X<X=X$X$X%X#X@X%X&X%X#X@XW.c.3.I = ; % % $ a O.o.s o.s % ",
"% j +.+.o.i t r e t e * L ..s.V.L.L.Y.Y.E.{.|.|.|.{.{.|..X+X@X%X%X%X%X%X#X%X@X@X@X=X<X3X5X5X6X6X5X5X4X<X=X$X@X@X#X%X%X%X%X%X%X&XOXU.f.}   ; a a % a O.O.O.o.s a ",
"a j o.o.j $ + 2 V 3 B L ,.i.M.D.J.Y.E.E.{.{.|.|.|.{.|.{.|..X+X@X%X%X%X%X%X%X$X$X@X%X=X:X4X5X6X6X5X4X1X=X%X%X@X$X%X#X%X%X%X*X%X%X XL.p._   ; s j j j s O.O.+.o.s ",
"a s O.j i r 7 U ] _ ] 4.g.C.J.J.L.R.{.|.|.{.{.{.{.{.|.{.{.|..X+X%X%X%X%X%X%X$X$X%X$X$X=X<X4X5X6X4X1X=X$X@X%X%X#X%X%X%X%X%X#X#X#X[.D.t.~ & r o.o.O.O.O.o.o.O.s a ",
"a s O.o.t 9 ^ <.f.k.z.M.J.I.J.J.J.E.{..X|.{.{.|.{.|.{.{.{.{..X@X%X&X%X%X%X%X%X#X%X@X@X%X=X<X1X1X<X-X%X@X@X$X%X%X%X%X%X=X%X@X+X+X[.D.t./ = h +.+.+.+.+.o.j o.j % ",
"a s j t 8 ^ <.f.D.Y.R.R.Y.L.D.D.J.E.'.|.|.|.|.{.|.{.|.{.{.{.|.@X%X&X%X%X@X%X%X%X%X@X@X$X%X=X=X=X=X%X%X#X$X%X%X%X%X%X%X%X+XOX|.+X].D.u./ = h +.+.+.o.j o.o.s % $ ",
"$ s j < D ` u.Z.E.{.{.^.Y.J.V.C.L.R.'.|.|.|.{.{.{.{.|.{.{.|.|.+X#X%X%X%X%X#X%X#X%X%X#X%X%X%X$X$X#X%X%X#X%X%X%X%X%X%X%X+XOX|.|.OX'.V.q.M   - h o.+.o.j +.+.j % $ ",
"a o.o.e D @.d.L.E.{.{.E.Y.J.C.C.J.E.{.|.|.{.{.|.{.|.{.{.{.{.|..XOX@X%X%X%X%X%X%X#X%X%X%X$X@X$X@X@X@X%X%X%X%X%X%X%X%X+XOX.X|.}..X!.x.:.M . . : h j +.+.+.+.O.o.s ",
"i j j ; V @.p.V.U.Y.U.P.L.D.A.A.L.R.'.|.|.|.{.|.{.{.|.{.{.|.{.{.|.+X@X%X%X%X%X%X%X%X#X#X%X@X@X$X%X@X%X%X%X%X%X%X%X+X.X|.|.}.^.~.J.s.3.` ! Q Y y j +.o.j j +.o.s ",
"$ j j ; D @.5.d.x.V.S.D.J.D.D.D.L.R.{.|.|.{.|.{.|.|.{.{.{.{.{.{.}.|.OX#X%X%X%X%X%X%X%X%X%X%X%X%X%X%X%X%X%X%X%X%X@XOX|.}.}.~.Y.V.k.r.0.y.i.i.1.[ p h j a % +.o.% ",
"% a i > L @.;.:.r.k.V.L.L.D.D.A.L.R.}..X|.|.|.{.{.|.{.|.|.{.{.{.}.}.|.+X#X%X%X%X%X%X%X%X%X%X#X%X%X%X%X%X&X%X#X@XOX|.|.}.{.R.M.r.>.4.j.K.(./.l.2.D - h j O.+.j $ ",
"% % i ; 5 E N ( =.a.V.U.P.D.A.D.L.R.~.{.|.{.{.|.{.{.|.{.{.|.{.{.}.{.}.|.+X#X%X%X%X%X%X%X%X%X%X%X%X%X%X%X%X%X+X.X}.}.}.'.~.P.k.;.%.9.G.oX:X*X(.m.,.D 9 h O.+.% @ ",
"% % % @ : 5 v M *.a.V.Y.U.D.A.A.J.I.E.~.{.|.|.{.|.{.{.|.{.|.{.|.{.{.{.}.|.+X@X%X&X%X%X%X%X%X%X&X%X@X+X+X+X+XOX|.{.^.~.R.Y.D.z.:.5.g.W.*X2X,X*X).z.<.Y p h o.% # ",
"s % % i t ; 3 P ;.f.D.R.U.J.D.D.A.J.L.R.~.{.|.{.{.|.|.{.|.{.|.{.{.{.{.{.|.|.OX#X%X%X;X%X%X%X&X%X%X+XOX|..X|.|.|.{.~.Y.P.P.D.V.z.z.V.!.OX%X;X=X+XT.h.<.Y > i a s ",
"j a j j j h > A } r.c.L.U.L.L.D.A.C.D.I.E.{.|.|.|.{.{.{.|.{.{.|.}.}.}.{.{.}.|.+X@X#X#X@X#X#X#X#X@X+X|.{.{.{.{.|.}.~.P.D.S.S.D.D.L.R.^.|.+X#X%X%X|.L.d._ 3 @ % s ",
"$ h o.o.+.O.a < G } r.c.A.I.I.L.D.C.A.L.E.|.|.|.{.|.{.|.{.|.{.{.}.}.}.{.{.{.|.|.OX+XOX+XOXOX+XOXOX|.|.{.{.{.{.|.}.R.P.S.V.A.L.!.~.{.{.}.OX+X+XXX[.U.z.@.c ; % % ",
"@ % o.o.o.+.o.j u G ~ t.x.D.Y.L.D.C.D.I.E.|..X{.{.|.{.{.|.{.{.|.}.}.}.}.{.{.}.}.|.|.|.|.|.|.|.|.|.|.{.{.{.{.|.|.}.Q.I.S.C.A.L.!.'.|.{.|.|.|.}.{.I.c.t.~ 5 d a $ ",
"$ a j j j o.j j i ; Z ' 7.h.A.D.D.D.D.I.R.E.{.|.{.|.|.{.{.|.{.|.}.}.}.}.}.}.}.{.}.{.{.{.}.{.{.{.{.{.|.|.{.|.|.|.}.~.Y.S.V.D.I.~.|.|.{.^.'.{.^.Y.c.r. .D : h s a ",
"s a a j o.j $ i i # ; 6 ^ 3.h.C.J.L.L.D.L.Y.E.{.|.|.|.{.{.|.{.{.}.}.}.}.}.}.}.{.{.{.{.{.{.{.{.{.{.{.{.{.|.{.|.|.|.~.U.D.V.D.U.~.|.{.~.R.R.E.Y.V.r.| D : # s s s ",
"a s O.+.O.j h a j % # y Z ~ u.M.J.I.L.A.D.J.R.E.'.|.|.|.|.{.{.|.}.}.}.}.}.}.}.}.}.}.{.}.{.}.{.}.{.{.|.{.{.|.{.|.{.R.I.D.V.S.I.^.'.^.Y.L.L.D.c.t._ A r d a j s $ ",
"a a o.o.O.+.o.o.o.j s # 1 E r.c.L.I.J.A.C.A.J.R.E.{.|.|.|.|.|.{.}.}.}.}.}.}.}.}.}.}.}.}.}.}.}.}.{.{.|.|.|.|.|.{.E.R.J.D.C.D.L.R.Q.E.Y.L.A.x.t.' Z - j j j o.s a ",
"a a a h o.+.+.+.O.o.j r 3 Q r.c.J.I.J.A.C.A.J.J.R.E.}.|.|.|.{.{.}.}.}.}.}.}.}.}.}.}.}.}.}.}.}.}.|.{.{.{.|.|.'.E.Y.J.J.D.D.D.J.L.I.Y.Y.L.B.u. .Z : # o.+.+.s s s ",
"$ $ a j j j j j j j $ ; 3 E q.c.J.Y.U.J.J.D.A.A.L.Y.E.{.{.|.|.|.}.}.}.}.}.}.}.}.}.}.}.}.}.}.}.}.{.|.|.|.|.{.E.U.J.A.D.D.D.J.J.J.J.D.J.x.8.~ Z > @ $ o.+.o.s a # ",
"$ a h j j a a h a % $ ;   E q.x.J.E.E.R.J.A.C.C.A.L.R.E.{.|..X|.|.}.}.}.}.}.}.}.}.{.}.}.}.}.}.{.|.|.|.{.{.E.U.J.A.C.A.D.J.D.J.J.J.M.z.r./ G < h a j o.+.+.a # @ ",
"$ a a s j a % % % % $ - 1 Q q.x.J.^.{.~.Y.J.A.A.D.D.J.U.^.{.|.|.|.|.|.{.|.{.{.{.|.{.{.{.{.{.|.{.{.|.|.'.E.Y.J.D.D.A.D.J.D.J.J.Y.D.c.u...6 g O.+.+.O.+.+.O.a # d ",
"$ $ s s s h a $ $ # ; 7 L &.f.A.R.{.|.'.E.Y.J.J.D.A.A.L.R.E.'.~.~.{.{.|.|.|.|.|.|.|.|.|.|.|.|.|.|.|.{.E.Y.J.C.A.D.D.D.J.D.J.J.Y.J.x.5.Q 2 r j +.j a h j +.O.h s ",
"a a s s +.o.h $ t ; 0 W ,.a.A.R.^.|.|.|.}.~.R.L.J.C.A.J.P.Y.T.Y.R.E.{..X|.|.|.|.|.|.|.|.|.|.|.|.|.^.E.I.L.A.A.A.J.J.J.D.D.D.I.R.P.z.:.Q 1 < j j h # a j +.j j s ",
"a s s +.+.+.j h t : U 3.f.V.E.'.{.|.|.|.|.'.R.U.A.A.A.D.A.L.A.A.L.E.~.|.|.{.|.|.{.{.|.{.{.|.|.|.{.E.Y.D.A.A.J.A.D.D.D.D.J.D.J.Y.D.k.:.! C 9 k O.h $ a O.+.a a a ",
"a $ s j +.+.+.j ; B ) t.B.Y.^.^.^.{.|.|.{.~.R.L.J.A.D.D.A.A.C.C.D.U.R.E.E.E.E.E.E.E.E.~.E.E.^.E.E.Y.L.A.A.D.D.J.D.J.J.J.J.J.A.V.k.4.} U H 9 g j j j O.+.+.j a a ",
"# a j s O.+.+.k : v ) r.c.U.E.R.R.'.{.}.~.R.L.J.J.A.D.D.J.A.A.C.D.L.U.Y.Y.Y.Y.Y.Y.U.U.Y.P.P.Y.Y.I.L.D.D.A.D.J.J.J.J.A.J.I.J.M.h.-.} J w x z g h j +.+.+.+.j j a ",
"a s j +.+.O.h g x D E =.p.M.D.J.J.~.~.^.R.J.A.D.J.J.D.D.J.D.D.D.D.D.D.D.D.D.D.D.D.D.D.D.D.D.D.D.D.D.D.D.D.D.J.D.A.J.J.L.Y.L.c.w.` b 7 f g g g d j j j j j O.j h ",
"a s +.O.+.+.j f x w J / <.p.B.A.Y.E.{.^.R.I.D.J.D.D.D.J.D.J.D.J.D.D.A.A.A.A.A.A.A.A.A.A.D.A.A.A.A.D.D.D.J.D.D.D.J.L.I.Y.E.Y.M.t.) v 7 < f f f h j O.O.+.+.+.j j ",
"a j O.s j j h g x f 9 Z W =.a.V.P.Y.Y.U.U.L.J.J.D.D.D.J.A.J.L.A.D.D.D.D.D.D.D.C.D.A.D.D.D.D.D.D.D.D.D.D.D.D.D.D.J.J.L.I.R.I.c.t._ b 7 < y y g h o.+.+.+.+.+.o.s ",
"a s h a a j a d g < , 4 3 P =.a.c.B.c.x.z.c.V.D.L.L.L.A.L.D.A.L.D.J.D.D.D.D.J.D.J.D.D.D.D.D.D.D.D.D.J.J.D.D.L.L.J.A.M.c.V.c.a.3.~ A 8 f g g k j O.+.+.j a O.j s ",
"a s O.h h h a d # r < < = 5 { =.r.t.r.5.q.t.h.C.I.U.L.A.A.D.L.A.J.J.D.J.J.D.D.J.D.D.D.D.D.J.D.D.D.D.D.D.D.D.L.U.L.V.s.r.t.w.3./ J w x y d g s j j j o.j a j s s ",
"a j +.j j j j j d r r f , 7 Z {  .$.$. .( %.r.x.J.Y.L.L.D.J.A.J.D.D.J.D.D.J.D.D.J.D.J.J.D.D.J.J.D.L.D.L.D.L.P.U.J.h.5.` ` ` / J w z g f r h j +.j a j j j % a s ",
"a j j +.+.O.O.j s d d ; , , w F K P K S C L } 8.z.J.I.I.L.L.A.A.D.D.D.D.D.D.J.D.J.D.D.D.D.D.L.L.P.P.P.P.U.P.L.A.k.3.^ K V S F q p g g h j +.+.+.+.+.+.+.+.j s s ",
"a j O.+.+.+.+.O.+.s a d d < 9 w 0 4 4 7 7 7 L ' w.z.A.I.P.D.A.L.D.J.D.D.D.J.D.D.D.D.J.D.D.D.D.L.P.P.P.P.Y.P.V.f.6.~ F 7 4 4 7 p f d d a j O.O.O.O.O.o.+.+.o.j s ",
"s s +.O.j O.O.+.+.+.+.j k g z z y , < f r > 4 K ' t.c.J.P.L.D.L.L.J.J.J.J.D.J.J.L.J.J.J.L.L.J.A.C.C.V.A.J.D.k.5._ C 7 y y < > p g r h h h h j j j h j o.+.o.s s ",
"s s j j +.+.O.j j O.+.O.j j k d d d < < < < 9 0 L ] t.z.D.U.Y.Y.U.U.U.I.Y.Y.U.U.P.P.P.Y.R.Y.J.c.s.p.p.f.z.f.8.} D 4 : > y u u u g # h h j j a h a a j o.O.O.s % ",
"a s j +.O.j j j j j j j j j j j h k r < y u y y q L } e.z.J.U.U.L.J.L.P.J.L.L.L.J.L.J.P.U.P.c.y.=.$.%.*.:.*.} Y q < f , y l g j h d a a s a a a % % o.o.o.o.s % ",
"a s +.+.j a j O.O.j j h j +.O.O.O.k g g u g g k y 4 K _ r.x.V.V.M.c.c.c.c.c.c.c.M.c.c.M.c.j.9.| m n m m N E D q z k d d f f k O.j a a d d $ $ a % s O.O.o.o.s a ",
"a j O.j a d d s +.+.O.O.+.+.j O.O.O.j j j k t k z 9 6 U  .r.a.p.u.t.t.t.u.t.t.t.u.u.u.r.1.X.[ J A A Z F F S A w z k k j j j j j +.O.s a % a s s s s s O.O.+.j a ",
"a j O.O.s s s s +.+.+.O.+.O.j +.+.O.O.j o.j i u g z < H T  .*.%.%.%. .%. .%. .$.%.%.%.} [ x 9 < x < 9 9 9 p p l g k j j j s j j +.+.j j s s o.O.O.+.O.o.o.O.o.s ",
"a s +.+.+.+.+.+.+.O.j j o.+.+.+.+.O.O.O.o.j i i d g g l H K m P K K K K K m m K K m m D q y d g f r d d d k h k k h j O.O.s a O.O.+.+.+.+.+.+.+.+.+.+.o.o.o.s % ",
"$ a o.+.O.s O.+.o.O.j h o.+.+.+.O.j j j O.+.o.h h j g x w q A q A A 6 A q 6 6 6 A A A q 8 < f f f d d a j +.j j h j a j +.+.O.s o.+.+.+.+.+.+.+.+.O.o.o.o.s % # ",
"a a O.+.o.s s +.O.o.j a j O.O.o.j j j j O.O.o.j h j d g z < p l z z l z z < 9 < p l p z f , f f f d d a j j O.j s j j j O.+.j j o.+.+.+.+.o.o.O.O.o.s +.+.s % % ",
"s s +.+.O.o.s o.+.j a a j j s s j O.+.+.o.j i O.O.h k k j d d h j k j j j k j j h j j j d $ r d a a a s s j a j s O.+.+.j a a +.O.o.+.+.+.j s O.+.+.+.+.+.+.o.s ",
"a s O.O.o.j o.o.o.o.s a j O.j j j +.j j j o.o.O.j h j o.O.j h o.O.O.o.s s o.+.O.j j j j j s h h a s s a O.O.j s O.O.j j O.O.O.O.o.j o.+.+.o.j O.+.+.O.s o.+.o.s ",
"a a s o.o.o.+.o.j +.O.j o.+.+.O.O.+.j s o.+.+.j j h j +.+.o.j +.+.+.s s h +.+.+.O.j O.j j j +.o.s O.O.j j +.+.O.O.+.j s j +.+.j j j o.+.+.O.O.O.+.+.o.a % +.o.% ",
"$ a s o.O.+.+.+.+.+.+.+.j s +.O.O.+.+.j O.o.j a h j j +.+.+.+.+.+.s s o.O.+.j j O.s j j O.+.+.+.+.+.+.+.s j +.O.O.+.+.O.j j j s s o.j O.+.O.O.+.O.o.j o.O.+.s $ ",
"a a s s j O.O.+.+.+.+.o.j j +.+.+.+.O.O.+.O.j j j +.j j j j j +.+.+.o.o.+.+.j h O.s h a j +.O.+.+.+.+.j j s +.+.+.+.O.O.+.O.j s j O.j j o.j j +.+.O.o.O.+.+.% # ",
"a $ % % a s j O.+.+.O.s s O.+.+.+.o.j O.+.+.o.j j +.j j s j j O.+.+.o.o.+.+.j s O.j a a s s j O.+.+.O.s s O.O.+.O.O.j j +.+.j s o.O.j j j a j +.+.+.o.O.+.+.s # ",
"a a % a a s s o.O.+.O.o.s o.O.j s h s j +.+.O.o.O.+.+.+.j +.+.j a s +.+.+.o.+.+.+.s a a a a s O.O.+.s s j s O.s j s h j +.+.+.O.o.+.+.+.j +.O.j a s +.+.+.o.s % ",
"$ $ % a a a a s s a a a s s s a h a s h j j j j j j o.j h j j j $ $ s s a a a s s a a a a a a s s a a a s s a a a a j j j s s s j j o.j j j j j $ $ s s % % % $ ",
"@ # $ a s a a $ $ $ $ % a a $ a s s s s $ $ a j h a $ a a a a s $ $ a $ @ # a a a $ d a a a a d a d a a s s a a a a s a a d s s j % % a a a h a $ $ a $ @ $ # # "
};
