/* XPM */
static char *Group_10_12__resized[] = {
/* columns rows colors chars-per-pixel */
"80 80 248 2 ",
"   c #0E1311",
".  c #141517",
"X  c #1C1517",
"o  c #1D1B16",
"O  c #1C1619",
"+  c #1D1A1A",
"@  c #281A17",
"#  c #231C1B",
"$  c #351A17",
"%  c #1C320E",
"&  c #1E2416",
"*  c #1D2A16",
"=  c #212416",
"-  c #222C16",
";  c #26241C",
":  c #29241E",
">  c #242B19",
",  c #2B2A18",
"<  c #372817",
"1  c #243416",
"2  c #253B16",
"3  c #283A17",
"4  c #243319",
"5  c #2A331B",
"6  c #2A3B19",
"7  c #363818",
"8  c #1D1B20",
"9  c #241E23",
"0  c #2A1F21",
"q  c #1D2021",
"w  c #2C2222",
"e  c #2B2526",
"r  c #332525",
"t  c #382826",
"y  c #352A2C",
"u  c #373427",
"i  c #33312C",
"p  c #372D33",
"a  c #481C15",
"s  c #521E15",
"d  c #6B1F15",
"f  c #4D370C",
"g  c #482618",
"h  c #572918",
"j  c #4A3815",
"k  c #593715",
"l  c #6F2C02",
"z  c #682916",
"x  c #722C14",
"c  c #7A2C15",
"v  c #683714",
"b  c #653C15",
"n  c #7C3415",
"m  c #743B15",
"M  c #773618",
"N  c #462A25",
"B  c #562B25",
"V  c #473629",
"C  c #57372A",
"Z  c #432F38",
"A  c #443333",
"S  c #463737",
"D  c #4C3B3B",
"F  c #563C35",
"G  c #67362B",
"H  c #693A29",
"J  c #763C28",
"K  c #2A4317",
"L  c #2B4817",
"P  c #2D4419",
"I  c #2E4C1A",
"U  c #354518",
"Y  c #314D1A",
"T  c #2E5117",
"R  c #33531A",
"E  c #385518",
"W  c #355C1A",
"Q  c #3A5D1A",
"!  c #36621B",
"~  c #3A641C",
"^  c #3C6C1D",
"/  c #3F711F",
"(  c #3F7320",
")  c #484817",
"_  c #544415",
"`  c #5B4717",
"'  c #534A16",
"]  c #5B4A17",
"[  c #4C5419",
"{  c #435C1A",
"}  c #495819",
"|  c #555619",
" . c #5B5C19",
".. c #644717",
"X. c #694216",
"o. c #6D4A16",
"O. c #764917",
"+. c #665819",
"@. c #795717",
"#. c #44641C",
"$. c #4A651C",
"%. c #446B1D",
"&. c #4A6B1D",
"*. c #55631B",
"=. c #41741F",
"-. c #4A731F",
";. c #43781F",
":. c #66631B",
">. c #53422E",
",. c #58423B",
"<. c #734E2E",
"1. c #684938",
"2. c #774932",
"3. c #775439",
"4. c #417620",
"5. c #4B7620",
"6. c #457C21",
"7. c #497C21",
"8. c #4A3D41",
"9. c #574642",
"0. c #5C4B4B",
"q. c #574953",
"w. c #644E48",
"e. c #66524C",
"r. c #6B564A",
"t. c #6A554D",
"y. c #785C45",
"u. c #675554",
"i. c #6C5952",
"p. c #725E55",
"a. c #7C6147",
"s. c #79655A",
"d. c #746460",
"f. c #862D11",
"g. c #863715",
"h. c #8C3A14",
"j. c #923C15",
"k. c #9A3B15",
"l. c #9C590F",
"z. c #8B4315",
"x. c #8A4918",
"c. c #944315",
"v. c #9A4315",
"b. c #9A4B16",
"n. c #984918",
"m. c #885A17",
"M. c #9D5216",
"N. c #985619",
"B. c #A74918",
"V. c #A44C19",
"C. c #B34F1A",
"Z. c #A35316",
"A. c #AC531A",
"S. c #A45B19",
"D. c #A95B19",
"F. c #B6591B",
"G. c #8B6117",
"H. c #976518",
"J. c #9E751A",
"K. c #AB6E14",
"L. c #A96319",
"P. c #B36319",
"I. c #B96619",
"U. c #BB6C19",
"Y. c #BA7519",
"T. c #874825",
"R. c #96492A",
"E. c #895528",
"W. c #985826",
"Q. c #8B4A33",
"!. c #895533",
"~. c #9B5A35",
"^. c #A55B24",
"/. c #B85F26",
"(. c #A75C36",
"). c #956C2B",
"_. c #89633A",
"`. c #996938",
"'. c #A86627",
"]. c #B36B24",
"[. c #B7712E",
"{. c #AA6A36",
"}. c #A87738",
"|. c #B57A36",
" X c #C15F1D",
".X c #C4641D",
"XX c #C86B1D",
"oX c #D5651F",
"OX c #C2741B",
"+X c #C8761B",
"@X c #C47C1A",
"#X c #CB7B1B",
"$X c #D37B1E",
"%X c #D17722",
"&X c #876949",
"*X c #97764A",
"=X c #8F7253",
"-X c #A37E45",
";X c #816F60",
":X c #897566",
">X c #478022",
",X c #498423",
"<X c #4C8A24",
"1X c #B48437",
"2X c #B9863C",
"3X c #C7861B",
"4X c #CB831B",
"5X c #D2831D",
"6X c #DB851F",
"7X c #D48B1B",
"8X c #DB8C1D",
"9X c #DB951D",
"0X c #E18E1F",
"qX c #E3961D",
"wX c #E49C1E",
"eX c #DFA01F",
"rX c #EAA41E",
"tX c #ECAA1D",
"yX c #F0AE1C",
"uX c #F3B51E",
"iX c #D38A29",
"pX c #D89827",
"aX c #C48835",
"sX c #CB943A",
"dX c #E39127",
"fX c #E69821",
"gX c #D7A339",
"hX c #E9A423",
"jX c #EFB024",
"kX c #F4B923",
"lX c #E2A936",
"zX c #EAB438",
"xX c #F6C32A",
"cX c #FACD39",
"vX c #F7D53B",
"bX c #AB8546",
"nX c #AF8A4D",
"mX c #9E8967",
"MX c #B29868",
"NX c #C79945",
"BX c #D9A642",
"VX c #D3AA53",
"CX c #E4AF43",
"ZX c #EAB744",
"AX c #D0B267",
"SX c #F6CD48",
"DX c #FBE34E",
"FX c #EFD26D",
/* pixels */
"T ! =./ / / / / / / / / ;./ ;./ ( 4.4.4.^ ^ ( 6.4.=.;.;./ / ^ ! ) l l f E =.=.^ ! ^ =.^ / / / / / / / / 4.4.;.;./ ;.=.=.^ ^ / ;.4.=.;.4./ ^ ^ =./ 4.4./ / ;.^ W ",
"~ ^ / =.4.4./ / / / / ;.;.;.;./ ( 4.4./ ^ ^ 4.4.4./ / / / / ^ ) o.l.L.m.' %.;.;.4.=./ =.=.=./ / / / / ;.4.4.4./ / ;.=./ / / =.;.( ( / / / 4.4.6.6.4.=./ / 6.=.^ ",
";.;.=.;.6.6./ / / / >X>X6.;.>X;.4.6.( ( =.4.6.4.( ( ^ ( / ,X&.f H.dXhXP.m { ;.<X<X>X4.6.>X6./ / / ;.;.,X6.6.4.( ( 6.( / / 4.6.4.( ( ^ ( 4.,X<X<X<X>X=./ =.6.;.;.",
"=.;.,X<X<X>X4.=.;.;./ ,X,X<X<X<X,X6.4.( 6.,X<X,X>X>X>X>X>X,X#.f L.pXzX].v &.;.,X>X,X,X<X<X6.;.=.;./ ;.>X,X<X<X<X,X>X( / 6.,X<X<X>X>X>X,X,X6.>X,X,X,X,X=.;.,X;./ ",
"/ ;.,X,X,X,X,X>X>X6.6.>X<X<X<X,X,X,X>X>X<X<X<X<X<X<X<X<X,X%.[ o.[.zXSX3Xm. .&.=.>X>X>X>X,X<X,X>X,X;.6.,X<X<X<X<X,X,X,X>X<X<X<X<X,X<X<X<X<X>X6.6.4.>X,X,X6.>X4.=.",
"=.=.=.;.,X<X<X<X<X,X>X,X<X<X6.6.>X<X<X<X<X<X<X<X<X<X<X,X4.} o.H.pXSXSXlXY.O.| %.>X6./ 4.>X<X<X<X,X<X>X,X<X<X6.6.>X<X<X<X<X<X<X<X<X<X<X<X>X6.4.4./ / ,X<X<X4.4.4.",
"^ / =.;.6.7.>X6.4.4.4.4.4.6.,X,X<X,X>X6.4.6.>X,X,X<X<X,X4...z.4XkXcXcXxX9XP.o.{ 5.4.4.6.6.>X6.6.;.4.4.6.( 6.,X,X<X,X>X4.6.6.>X,X<X<X<X<X,X4.4.5./ =.7.<X<X6./ ~ ",
"^ ^ =.;.;.=.=./ ( ( ( ( / / 6.,X,X>X6.4.6.4.4.4.6.<X<X>X&.X.n.$XjXxXxXuXtX XO.U =.4.4.>X4.4.( ( / / / ( / / 6.,X,X>X6.6.4.4.6.( 6.,X<X<X<X,X,X,X4.4.,X<X,X4.^ ! ",
"^ / 4.6.4./ ( ( / ( / ( / / ^ 6.>X>X,X<X<X6.4.( 4.,X<X,X5...z..X0XyXyXyX9XF.o.E -.4.;.6.6./ ( / / / ( / ( ( / 6.,X>X,X<X<X>X( ( 4.<X<X<X<X<X<X<X<X,X<X<X,X/ ^ ^ ",
"^ / ;.6.6.4.( ( / ( 4./ 4.6.( >X,X>X<X<X<X,X6.,X<X,X<X,X4.` h.F.$XrXyXhXiXA.o.{ =.=.;.6.6.4./ / ^ ( / / ( 6.4.6.,X>X<X<X<X,X>X,X<X<X<X<X,X7.,X,X4.( 4.>X<X>X6.=.",
"/ / 4.>X,X>X( ( 4.6.6.4.>X>X,X<X<X,X<X<X<X,X,X<X<X<X<X5.[ b g.F.$XwXrXfX5XA.o.{ 4.6.=.,X<X>X4.( 4.6.6.6.6.>X,X<X<X,X,X<X,X,X,X<X<X<X<X<X6.4.,X,X( ^ ^ >X<X>X6.;.",
";.=.4.<X<X<X6.6.>X,X<X<X,X,X<X<X<X,X,X<X6.>X<X6.,X<X,X} k x h.C.%XdXfXwX5XA.o.Q ,X6.4.,X<X<X6.4.>X,X<X<X,X,X<X<X<X>X<X<X6.>X<X6.,X<X<X,X=.,X<X<X4.^ / ,X<X4.=.;.",
"^ / =.>X<X<X<X>X4.4.,X<X>X6.<X>X6.<X<X<X,X<X<X,X4.-.:.G.S.c.k.C.oX0XfXfX#XA.m ) #.4.4.>X,X<X<X>X4.4.,X<X,X6.<X,X6.,X,X,X,X<X<X,X4.%./ 4.,X,X<X<X,X>X,X<X<X6./ / ",
"^ =.;.;.,X<X<X,X4.( 6.<X>X6.,X>X6.,X,X4.<X<X<X,X%.} m.K.7XS.h.B.XXqXfX0XXXV.g.v | %.4.6.,X<X<X,X4.( 6.<X6.6.<X6.6.,X,X6.<X<X<X6.&.| [ &.<X<X<X,X,X<X<X<X,X>X4./ ",
"=.;.,X<X<X<X,X,X<X6.6.<X>X>X,X<X,X,X4./ 6.<X<X6.Q [ m.OX3XG.X.n F.8XrX$XA.k.v.Z.m.+.%.6.<X<X,X,X<X6.6.<X,X6.,X<X<X,X4./ 6.,X,X^ :.W.x.+.6.,X<X>X6.6.6.>X>X>X6.;.",
"/ ;.<X,X,X<X<X,X<X<X,X,X>X,X,X<X<X4./ / 4.6.4.4.~ #. .m.N.:.[ k S.5X7XP.h.c b.OX+XG.] &.>X<X<X,X<X<X,X,X,X,X<X<X<X4./ / 4.4.%.' G.sXaX).| %.,X,X,X>X,X,X<X<X>X;.",
"/ ;.,X4.6.<X,X,X,X,X,X6.6.,X<X<X<X6.4.4.4.6.4.4.6.6.#.[ ` $.^ ' N.oX#XZ.x v @.3X7XH.` { 4.<X<X,X,X,X,X6.;.,X<X<X<X;.;.4.4.^ { b ].ZXSXaXO.| %.,X<X<X<X<X<X<X>X;.",
";.;.4./ 4.6.6.,X,X4.( ( / 4.,X<X<X,X,X6.6.,X<X,X<X,X6.5.5.,X-._ N..XXXB.m *.*.+.m.+.%.^ / 6.6.>X,X6./ ( / =.,X<X<X<X>X6.6.6.&.v '.ZXDXZX1X@.| -.,X<X<X;.4.,X>X;.",
"=.;.,X=.4.4.4.6.6.4.4.6.( / 6.,X<X<X,X7.6.6.,X<X<X<X<X,X5.>X%._ Z.oX.Xh.f K U j g ) ! / 4.6.6.4.6.4.4.6.^ W T W W W ^ ;.;.;.$.b S.lXDXDXCXW.X.&.;.6.,X;.=.4.;.;.",
"/ 6.,X,X6.4.6.6.4.6.6.,X4./ >X<X<X,X,X,X6.4.6.>X,X<X<X,X4.6.%.` V..XI.v $ - * # @ , R ^ =./ ;.4.( 4.6.6.! K 1 1 1 1 T ^ ;./ $.b M.pXvXDXZX^.b &./ =.6.>X6./ =.;.",
"4.6.7.<X<X<X,X,X,X4.( ( / 4.,X<X>X>X,X<X<X4.W R ! 4.,X<X<X<X-.) m z.x.O.) u e 9 # e u T W W ^ -.6.6./ ! K 5 p S u i i I =.>X&.X.l.7XxXvXgXn.b 5.,X<X<X<X<X6.;.;.",
"4.6.,X<X<X<X,X,X,X,X6.4.6.,X<X<X>X4.>X,X4.R 5 5 P Q 4.,X,X>X^ 6 < g ..).1Xa.9.8.,.,.>.u 6 P Y ~ ,X6.~ K u S e.i.p.0.>.7 W ^ %.b M.7XkXxXpXn...=.>X,X,X<X<X>X;.;.",
"/ 6.<X,X,X,X,X,X<X<X<X<X<X<X,X<X,X4.4.( R u r y 7 P ~ =./ ^ R 5 q q >.bXNXnX*X=X=Xs.u.p u >.) { 4.( R , u w.s.:X:XmX&X>.2 T #.X.N.7XuXuX9X].@.| %./ / ,X<X,X;.;.",
";.;.6.,X,X<X,X6.,X,X<X<X<X<X<X>X6.6.~ I 5 u ,.w.D u P ! / L 5 S ,.9.0.y.bXNXCXBXNXmXd.u.=X1X).] * * > y D t.i.p.=XNX2XE.7 R &.X.b.#XrXjXkXlXaXE.' Q ;.,X,X>X;./ ",
"=.;.>X,X,X,X>X6.6.6.6.6.,X<X,X6.4.^ R 5 A w.s.s.i.,.u P Y 5 y 9.u.i.e.e.y.bXBXBXNXMXMXmXAXAXnX1.# # r S ,.0.r.&XbXNX|.<.U W -.X.n.%XqXuXkXcXlX^.` E ;.,X>X,X;./ ",
"/ ;.<X<X>X/ / >X,X>X4.( >X<X,X,X;.T u u w.s.:X:X;Xr.F V j t D 0.i.p.i.e.i.&X=XnXAXAXFXFXFXAX=Xe.S p S D p ,.a.bXNXbX3.V U ! 5...v.+XqXjXkXxXhXD...E >X,X>X,X;./ ",
"=.6.,X>X/ / ^ ;.<X<X<X,X,X,X>X,X/ 2 e ,.p.;X:X:X:Xs.y.<.!.1.F F w.e.i.t.t.t.u.p.MXAXFXFXAXmX:X&X&Xr.9.p ,.3.}.1X1Xy.S e 2 W -.X.n.#XwXjXkXyX9XF.X.E ;.,X,X,X>X/ ",
"=.6.,X>X>X;./ >X<X<X<X,X<X,X>X<X/ % e ,.p.&Xs.:X:Xd.&X}.[.3.1.G J 3.i.i.w.q.q.q.=XVXSXAX:Xd.=XnXNX&X0.9.1.`.|.}.3.9.p ; 2 W &.X.v.$XwXuXjXwX+Xb.` #.;.,X,X,X>X;.",
"/ 6.<X<X<X<X,X,X<X>X6.4.>X<X<X<X/ 1 : D r.r.i.;Xd.u.a.`.|.3.1.x.W.Q.w.w.u.w.q.0.&XsXCX-Xu.q.*XgXzX*Xt.r.`.|.{.w.Z Z t 5 I ! #.X.n.XXdXtXwX#XL.O.| =.,X,X>X>X/ / ",
"^ ;.>X<X,X;.,X<X>X,X6.4.,X<X<X<X^ 1 : A 9.t.r.p.i.0.9.1.2.J N.aXiX].J w.t.i.q.e.&XNXgX*Xu.0.*XNXBX*Xy.}.}.`.1.F Z r 5 I ( 6.%.b c..X6X0X4XS.O.*.-.>X;.,X,X;./ ^ ",
"/ ;.>X<X,X;.>X<X,X>X6.4.>X,X<X>X/ T 5 u F 9.e.0.w.r.3.1.G g.].zXlX].c Q.&X=X*X*X-XNXNX&Xe.q.&XnXNX-X*X|.`.y.8.D A w 5 W 6.,X$.b n.XX0XqXOXc.v [ -.>X>X,X<X;./ / ",
"=.>X<X<X,X;.;.,X<X>X( 4.4.4.4.4.;.;.W 6 u S 9.8.1.}.'.W.O.L.eXxX9XS.g.^.sXBXCXBXNX-X&Xr.t.e.i.&X*XbX|.!.1.F D S u w 6 ! 4.4.E b V.6XyXqXOXc.x v [ -.<X<X,X,X>X/ ",
"=.;.,X,X>X6.>X7.>X>X6./ 6.,X6.6.>X>XW 4 : A ,.3._.}.{.R.j.@XtXuXeXY.'.].%XaXsXNXbX&Xu.t.i.t.q.0.y.aXdX}.3.D p y e 5 I ! 4.;.#.b b.5XhXfX$XV.v.D.H.:.$.-.>X<X,X>X",
"/ =.>X>X>X,X,X,X6.<X,X4.,X<X<X,X,X<X~ 2 ; p 1.`.}.}.2.g.v.#XwXtXkXlXsX].W.!._._._.r.0.u.t.i.q.9.3.1XdXsX`.1.t w - Y ! / 7.,X&.X.v.XXdX0XY.n.Z.#XY.m.) Q / <X>X/ ",
"/ =.6.6.,X<X<X<X<X<X<X<X4.6.<X,X,X<X4.R 4 r 1.|.aX!.V h v.+XqXrXcXvXSX'.z B p 9.8.9.e.e.e.w.w.3._.}.|.NX|.!.C : 1 ^ ,X>X,X;.$.b c..X$X+XN.o.@.3XOXm.[ ^ ,X<X/ / ",
"/ / =.=.6.,X,X,X<X<X<X>X6.6.<X<X<X<X6.4.W 6 N {.}.3.g s c. X7XrXxXDXzX'.x F p p 8.F ,.9.D 8.3.{.|.!.3.2._.~.E.g * / >X,X<X;.#.b V.+X$XL...} *.m.m.:.%.-.<X<X/ ~ ",
"/ / / / 4.6.6.,X<X<X,X;.6.,X<X<X,X,X>X>X6.R u <.Q.2.B h M ^.#X9XxXxXlX'.c G F D D D D S F 1.`.|.}.3.Z p ,.!.!.C 3 ~ =.-.5.4.&.X.M.7X5XN.j ~ %.' [ %.,X,X,X,X;.~ ",
"=.=./ =./ =.6.,X<X,X,X>X6.7.,X6.4.4.4.6.<X,X~ ' H M z B B M S.7XuXxXpXD.c c d F 8.8.D Z 1.}.|.`.1.8.S Z Z F F B j #.#.' [ &.-.X.L.9X8XL.k &.,X%.~ / ,X<X<X,X;.;.",
";.;.=.#.Q %.;.>X>X6.>X>X,X6.,X6.>X6.>X,X,X,X5.) m Z.W.O.B z c.3XuXuX7XM.h.Z.W.T.J 3._._.`.1X`.1.p p D 1.2.2.G B g ) +.G.G.@.| v S.8X7XL.k %.<X>X=.=.,X,X;.;.;.;.",
"/ =.%.| | } =.6.6.6.6.,X,X,X6.,X<X,X<X>X( ( %._ x.#X#X^.x d z.4XuXuX@Xv.c.OXY.Z.T.{.aXaX|.`.1.Z p p F !.{.~.H N < j m.Y.3Xm.h x Z.5X5XL.k #.>X<X;.;.,X;.=.;.;./ ",
"! !  .G.l.@.$.=.,X;.;.<X<X,X,X,X,X,X,X/ R T Y j O.U.@XN.z x c.@XrXhXXXc.h.Y.I.N.2.W.|.1X`.1.A F 2.2.3.~.{.Q.C U 7 ) G.K.K.@._ x V.%XXXb.z ) ~ 7.,X,X,X>X>X<X>X/ ",
"Q [ O.@X4XK.@.$.=.=.=.;.;.=.=.=.( 4.~ I 5 4 - # g n n.X.s z c.OXwXfX#XV.h.b.x.m B >.<.<.>.A F !.{.{.~.!.G j 7 L W #.+.x.@. .[ b n..X/.V.m X.+.&.>X<X;.;.;.,X>X/ ",
") _ c.7XjXhX'.+.{ E R R R R R I R W K = # # o . X a a r r B h..X0XwX7XU.b.f.z B p p y e y C 2.`.{.{.!.C e . o K ! ~ U < < U { v n. XF.v.j.Z.H.*.-.6./ / / >X;.;.",
"z x h.@XjXcXlX).b < = * & = = & = = o o X # X . X @ @ 0 t z h.C.$XhXrX9XXXk.z N p p p y F E.~.Q.F G F p e . o & 4 > , @ o & < z V. XC.n.b.4X4XN. .%.,X;./ ;.;./ ",
"f z h.@XhXzXsX^.x g 1 1 2 5 - 4 > 4 5 6 U P P Y 2 & + e N z f.k..XdXrX8XOXA.T.B e p V F !.~.!.F y y r r # # X X X o X X     $ z n..XF.C.V.+XOXx.j U R R Y R Q ! ",
"E _ h.OXiX3XW.z.n ) Q ~ ~ ~ W W ! ~ / 4.=.4.4.6.! 1 & 9 N z n f.A.#X8XI.B.].(.F e p F Q.~.!.F y r e e 0 # o # # # # # o . o @ z n..X XB.c.M.x.k $ o * = & & 6 R ",
"E ' g.b.P.U.P.n.M [ ~ ( ( ( 6.>X7.6.4.~ R R W ~ R 5 w 9 < z g.l.U.Y.D.m M (.[.(.F y Z (.~.1.t e r 0 # # o 1 I U K 3 K 2 % @ a f.B.F.N.O.] ' ) 7 1 * 1 1 1 - K T ",
"! ] n h.Z.U.@XD.m [ ^ ( ( ( 6.>X>X4.^ Y 2 4 4 6 5 > e w < h c.Y.@XP.n h B Q.(.(.J F C ~.~.G r 9 w # X X & K ! ^ ! W ~ ~ U k g.B.C.V.o.} %.~ Q ! W R W Q W L T W ",
"E _ n z.l.4X4XP.n [ ~ / / / / ! W Q Y 5 : # + + # ; ; 4 7 h c.Y.OXM.d B F J Q.Q.Q.G J (.Q.B 0 8 # # X # ; K W 4.>X6.6.7.+.H.I.C.k.k.` #.,X<X<X<X,X6.,X<X>X^ ^ ^ ",
"E _ h.Y.7XY.Z.g.l [ ~ / / ;.~ L 4 , ; w e # X o # # 4 I ~ ` g.b.c.h.f.T.Q.F N y F Q.~.(.Q.N X . # X # @ r 5 6 ~ ,X,X%. .H.3X7XA.k.g.` #.,X,X,X<X4.4.4.,X<X,X4.4.",
"W _ z.7XwXY.n h ' $./ ;.;.^ T 5 # # 9 0 @ $ $ , , , 5 Q -...n n.k.h.g.Q.J Z + . r G Q.R.T.N X   X # 0 r r e ; P ^ 6.%. .G.@X4XA.k.j...{ 4.6.,X,X%.Q E 5.<X,X6.;.",
"! ' z.7XqX@XO.f -.,X<X<X/ I > w e r w 0 $ g k } E ) j } #.` x.U..XZ.x a $ # O O O 0 B G B $ + . # 0 r r t r : ; K ^ ,X7.} O.A.C.B.v.] Q 4.7.<X<X} j j &.<X=.=.=.",
"E _ z.4X9XOXo.) / 6.6.=.R 5 0 w 0 e # $ k E.).*. .@.H.@.' b n.4X8XP.z $ . X X X O = 7 ) ) U P 6 = 0 w w r 0 w : > Y W W U j c v.B.j.` #.,X,X6.&.@.m.m.:.&.4./ / ",
"T _ z.+X6XOXo.) ~ ^ ~ R 5 # r r > & @ a x.aXgX@.m.K.Y.H.v z b.9XqXU.d @   . X X # P ! ! ~ / / ~ Y 5 : : : : w r r > 4 1 * , g f.k.k...$.<X<X&.' H.5X#Xm.[ %.4.4.",
"! ' z.XX$XI.m ) Q W L = : 0 : , 2 K , h ^.CXSX[.D.I.Y.m.k l n.7X0XU.d $ 9 + O > I / 6.,X<X,X6.>X4.R 1 1 2 2 5 , e # = # . . $ z k.B.o.&.,X<X&.v U.fXfXZ.k &.6.4.",
"! _ g.I.oXC.x g 5 - = X # ; , R ~ ! U k ].lXSX[.n.h.@.*.} k x.#X$XD.x g w + > Y ^ 6.<X,X<X<X,X,X<X4.^ ~ ^ ~ R 5 # # o o o X $ h j.C.@.$.4.( } v L.6X6XS.v &.4.4.",
"W ) v b.A.c.h @ O O + & = 4 I ^ <X4.! ' ^.pXzX].g.h [ ^ =.` z.I.P.x.h r 0 ; R 4.6.,X,X4.6.<X,X,X,X<X,X4.6.,X4.R 1 1 1 1 1 5 7 g M T.b E E { | x.D..XOXK.m. .$.^ ",
"Q 6 < x n z $ X O O = K W ~ =.,X<X,X#.' N.iXhXI.O.[ %.,X5...g.k.g.v r 0 , R 4.,X<X,X4.4.4.6.6.7.,X4.4.4.=.=.,X4.4.-./ ^ ( ^ Q < < N r : < v x.F.A.B.D.3X3XN.] E ",
"6 * @ g g g 5 2 5 3 P ~ ^ =.6.<X,X=.) v M.4XwX5XH.+.#.Q R b g.n B t # > P ~ 6.<X,X6.6.4.4.4.4.6.4.4.4.6./ / 6.,X<X,X,X>X>X;./ R 5 w 8 0 < x B.oXF.B.Z.I.Y.o.| Q ",
"& o o , < L ~ ^ W W ~ 4./ 4.6.,X5.| b n n.U.qXrX3XG.f < , h c h N ; = I ~ / 6.<X,X,X<X,X6.6.6.6.6.4.4.,X4./ ,X<X<X,X,X<X;.;.>X=.R * q 0 N c B.XXF.v.h.N.m.} ~ =.",
"1 2 2 2 I ^ 4.6.4.=.^ =.^ 4.6.$. .J.D.b.j.A.6XyXrXU.m a $ h h t w 4 R 4.,X6.,X<X<X,X,X,X<X<X,X,X,X4.( ( =.=.<X,X,X,X,X<X<X<X<X6./ R * : g n B.F.V.M k ' &.-.;.=.",
"T W ~ ! ^ 6.,X<X<X,X>X;.4.>X4.[ O.Y.#XP.j.C.$XwX7XF.f.c M B N 0 * K ~ ,X<X,X,X<X,X,X,X<X,X,X,X<X,X,X6.6.6.,X<X<X,X4.,X,X<X,X>X,X>X=.T 5 g x f.j.M g , R -.=.=.;.",
"=.6.<X,X7.>X,X,X<X<X<X<X<X<X7.} @.Y.OXD.c.F.5X#XD.j.v.Z.L.O.N w > L 4.,X<X>X,X<X,X,X<X,X,X,X,X,X<X<X<X<X<X<X<X<X,X=.4.,X4.=.=.<X,X;.^ U < g z s g # & I ~ W ! ^ ",
"4.6.6.,X<X<X,X6.,X,X<X<X<X<X,X-.} +.x.h.M.Y.9XP.h.x b.OX7XS.z $ * L 4.>X,X,X,X,X,X,X6.,X,X<X,X6.>X,X<X<X<X<X,X,X4.4.4.4.4.;.,X<X,X/ =.^ E 5 @ @ # o . & > > 3 T ",
"4.4.7.,X,X>X6.6.6.>X6.6.,X<X,X>X4.} _ M M.4XpXL.m k @.J.@Xb.h < 3 ! 6.>X>X>X>X>X,X>X>X,X,X>X6.6.>X>X6.6.,X<X,X6.6.>X6.4.6.,X,X<X,X/ ( / ^ L 4 4 % 2 L 1 = o & - ",
"( 4.<X,X>X( 4.6.,X>X4.( 6.<X,X,X,X,X#.k M.+X6XF.O.U E +.x.k 7 K W =.,X,X>X6.,X>X>X,X<X<X>X/ ( >X>X6.4.( >X<X,X,X,X<X<X,X<X<X<X<X,X4.( ( ^ ! W W ! ~ -.^ Y > # o ",
"4.6.,X,X4.^ ( 4.<X<X<X,X<X,X>X,X<X<X/ [ n..X$XF.O.U 3 < f < U ~ ;.6.6.>X,X,X<X<X,X,X,X>X/ / ^ ;.<X<X<X,X<X,X6.,X<X<X<X<X<X<X,X<X<X,X4.( ^ / ( ( / ;.>X;.^ Y 3 1 ",
"=.4.,X,X>X6.4.6.<X<X,X<X,X,X>X,X<X5.$. .V. XXXB.m < & o @ L ^ >X,X,X,X6.>X<X<X<X<X,X,X>X>X6./ 6.<X<X<X,X,X,X>X<X<X<X<X<X,X>X6.,X<X<X6.4.( >X>X,X,X,X,X>X6.=.! W ",
"/ >X<X<X<X<X,X<X,X,X6.4.,X<X<X<X>X#. .m.U.P.B.k.x a . . & ~ <X<X<X<X<X,X6.>X,X,X,X,X<X<X<X<X,X<X,X,X6.4.,X<X<X<X<X,X>X,X,X4.=.,X<X<X,X<X<X<X<X<X<X<X<X>X/ >X/ / ",
"/ / >X<X,X6.,X<X,X,X6.( ,X<X<X,X=.) @.Y.7XI.j.f.z g O . & ! ,X<X<X,X6.>X,X4.;.6.6.6.>X<X,X6.<X<X,X,X6.4.>X<X<X,X>X>X;.6.<X<X,X;.>X<X<X<X<X<X<X<X<X,X>X>X,X>X/ ^ ",
"/ / ,X<X,X/ >X,X,X,X6.;.6.,X,X>X%.[ @.Y.#XP.j.j.x g # O = E ;.<X<X,X6.<X<X4.6.6.,X>X,X<X>X4.>X,X,X6.6.4.6.,X<X>X>X>X;.>X,X<X,X;.>X,X<X<X<X,X>X<X,X,X>X,X<X>X/ / ",
"/ >X<X<X,X>X4.>X<X>X/ / 6.4.;.;.6.>X&.+.M.C.B.k.M B e & = T =.,X,X<X<X<X<X,X<X<X<X,X<X<X,X6.4.,X<X6.( 4.6.4.4.6.;.,X<X<X,X/ / <X<X>X<X<X<X>X( ,X,X<X<X<X<X,X>X/ ",
"/ ;.,X,X>X;.>X>X>X,X;./ >X,X>X;.,X<X=.} ..z.B.k.f.B : 4 R ^ 6.>X<X<X,X;.;.<X<X<X,X,X,X,X,X;.>X>X,X,X6.( >X,X6.6.>X,X>X6.>X>X,X,X>X( <X<X<X>X6.,X<X<X,X>X6.<X,X6.",
"/ ;.>X>X>X>X<X,X;.<X,X6.>X<X<X,X,X<X;.=.{ o.j.j.x g > I ( >X>X,X<X,X>X/ ;.<X<X<X6.6.>X>X>X>X<X,X>X,X,X6.>X<X<X,X,X,X6.;.6.<X<X6.( 6.,X<X<X,X,X,X<X,X>X/ / <X>X/ ",
"/ ;.;.>X,X<X<X<X<X<X<X<X;.6.<X,X,X,X<X;.-.+.g.x h < T / <X,X,X<X,X>X;.>X,X<X>X6.,X6.6.6.,X<X<X<X<X<X<X<X6.6.<X,X,X<X<X,X>X>X>X( / >X>X,X<X,X,X<X,X>X>X>X,X<X6.^ ",
"/ / =.=.;.<X,X<X<X<X<X,X;.;.<X<X<X,X<X;.=.] x g 7 R ~ ;.6.6.6.<X<X<X>X>X<X<X;.;.,X6.=.=.6.,X,X,X<X<X,X>X4.6.<X<X,X<X,X,X<X,X6./ >X,X6.6.6.6.>X<X<X,X>X>X<X<X/ ! ",
"/ / / / ;.>X;.,X<X<X,X;.;.,X<X<X,X,X>X;.%.) h < Y ( 6.6.6.6.6.,X<X<X,X,X<X<X>X4.,X6.=./ ;.>X6.,X<X<X,X4.6.,X<X<X,X,X>X>X<X<X>X6.>X,X,X6./ 6.6.,X<X<X,X,X<X<X/ ^ ",
";./ / / ;./ ;.,X<X,X,X>X;.>X,X>X;.;.;.=.^ P , Y ( ,X<X,X6.,X<X6./ ;.<X<X<X,X,X<X<X4./ =./ ;.;.,X,X<X,X>X6.>X,X6.4.4.-.,X<X<X,X,X,X<X<X,X>X<X<X6./ ;.<X<X,X,X6./ ",
"^ ^ / / / / ;.;./ / ;.;.;.;.;.;.=./ ^ T 2 % P ~ 6.6.6.6.6.6.6.6.^ ^ 6.;./ / ;.>X>X=./ =.=./ =.;.4./ 4.;.4.4.;.;.4.4.4.4.6.6.>X>X6.>X>X>X4.>X6.6./ / ;.;./ / / / ",
"! ~ / / ;.;./ / / ~ / / / / / / ;.=.W %   % W 4.4.( / / ( ( ( 6.^ ^ / ^ ! ^ / / / ^ / / =.=./ / ^ ^ ^ / =./ / / 4.;.;.4.^ ^ / ( / / / / / / / 6.^ ~ / ^ ~ ^ ! ! "
};
