/* XPM */
static char *Group_10_3__resized[] = {
/* columns rows colors chars-per-pixel */
"80 80 227 2 ",
"   c #253E1F",
".  c #273D28",
"X  c #293A3A",
"o  c #2D4E1B",
"O  c #31551C",
"+  c #335B1D",
"@  c #37631B",
"#  c #39661C",
"$  c #3C6D1D",
"%  c #3F711E",
"&  c #2A4525",
"*  c #2C4A25",
"=  c #2E4B2B",
"-  c #304F29",
";  c #325425",
":  c #355B23",
">  c #33532C",
",  c #385C2A",
"<  c #2C4435",
"1  c #314D36",
"2  c #345333",
"3  c #375736",
"4  c #395D32",
"5  c #3A6523",
"6  c #3A6327",
"7  c #3E6C23",
"8  c #3F7121",
"9  c #3C6235",
"0  c #41751F",
"q  c #43791F",
"w  c #406E22",
"e  c #426C2B",
"r  c #427521",
"t  c #457C21",
"y  c #457229",
"u  c #487A29",
"i  c #4A7B2B",
"p  c #476A38",
"a  c #4C7533",
"s  c #4E7B33",
"d  c #4D743A",
"f  c #527B3A",
"g  c #2D3C4A",
"h  c #2E3C54",
"j  c #2E3C6F",
"k  c #2E4243",
"l  c #2F434A",
"z  c #324947",
"x  c #32454B",
"c  c #38544A",
"v  c #324453",
"b  c #364D53",
"n  c #394D54",
"m  c #35485C",
"M  c #3B5557",
"N  c #374867",
"B  c #36446A",
"V  c #3E5769",
"C  c #2D407B",
"Z  c #3A4879",
"A  c #3E5376",
"S  c #435B48",
"D  c #4A6842",
"F  c #567A46",
"G  c #516E52",
"H  c #617C59",
"J  c #445769",
"K  c #425577",
"L  c #42547D",
"P  c #4E5978",
"I  c #526675",
"U  c #697E6E",
"Y  c #478022",
"T  c #498423",
"R  c #4C8924",
"E  c #4C822A",
"W  c #4F8130",
"Q  c #558439",
"!  c #5C8546",
"~  c #61864D",
"^  c #668559",
"/  c #6C925B",
"(  c #6C8864",
")  c #718D68",
"_  c #76946B",
"`  c #6E807A",
"'  c #748973",
"]  c #7A9374",
"[  c #7D9777",
"{  c #81997B",
"}  c #87A37D",
"|  c #2E4584",
" . c #384B85",
".. c #3A5384",
"X. c #3C528C",
"o. c #3D5692",
"O. c #465687",
"+. c #455B84",
"@. c #535D89",
"#. c #455A92",
"$. c #485B96",
"%. c #4A6588",
"&. c #57678B",
"*. c #4D659D",
"=. c #4E689A",
"-. c #576796",
";. c #516B9E",
":. c #577598",
">. c #6D7695",
",. c #4B69A4",
"<. c #4868A6",
"1. c #526CA2",
"2. c #536EAB",
"3. c #5776A7",
"4. c #5573AC",
"5. c #4F72B0",
"6. c #5577B5",
"7. c #5975B3",
"8. c #5B7AB5",
"9. c #5C7DBA",
"0. c #677BAB",
"q. c #607FC0",
"w. c #7E859D",
"e. c #5E81BA",
"r. c #7B84A6",
"t. c #6185BD",
"y. c #7989B4",
"u. c #6995BD",
"i. c #5F87C5",
"p. c #6385C3",
"a. c #6489C5",
"s. c #658CCA",
"d. c #688FCC",
"f. c #6A95CA",
"g. c #6A92CC",
"h. c #6B94D3",
"j. c #6E99D6",
"k. c #6E95D8",
"l. c #6F9AD8",
"z. c #709AD7",
"x. c #729EDB",
"c. c #6FA1C2",
"v. c #73A6CA",
"b. c #76A9D2",
"n. c #73A1DE",
"m. c #7AB5D9",
"M. c #76A5E2",
"N. c #78A7E5",
"B. c #77A8E5",
"V. c #79AAE6",
"C. c #7AADE9",
"Z. c #7FB6E7",
"A. c #7DB2ED",
"S. c #7FB5F1",
"D. c #869B87",
"F. c #8B9A9A",
"G. c #8AA285",
"H. c #8DA48A",
"J. c #94AB8C",
"K. c #96B18E",
"L. c #96AA96",
"P. c #9CB39A",
"I. c #838CAC",
"U. c #8B94B3",
"Y. c #9198B2",
"T. c #9AAAA7",
"R. c #A6B8A8",
"E. c #A2ABBA",
"W. c #AAB8B5",
"Q. c #B1BEB6",
"!. c #ADC1AA",
"~. c #B6C4BA",
"^. c #A9B1C6",
"/. c #B3BBCC",
"(. c #82BBEE",
"). c #80B7F2",
"_. c #82BAF5",
"`. c #84BEF9",
"'. c #B9C6C4",
"]. c #BCC4D5",
"[. c #87C8E7",
"{. c #8DD1EC",
"}. c #94DCED",
"|. c #88C5F3",
" X c #86C3FD",
".X c #88C6FF",
"XX c #8ACAFF",
"oX c #8DD5F3",
"OX c #8ED2FF",
"+X c #93DBF2",
"@X c #91D6FF",
"#X c #93DCFF",
"$X c #9CE8F5",
"%X c #96E4FF",
"&X c #98E5FE",
"*X c #97E8FF",
"=X c #9BEBFF",
"-X c #9EF1FD",
";X c #A1E7F5",
":X c #A2EDFE",
">X c #A3F4FE",
",X c #ACF2FF",
"<X c #A5FAFE",
"1X c #AAFDFE",
"2X c #B3F4FF",
"3X c #B6FAFF",
"4X c #BDFAFF",
"5X c #C1CDC7",
"6X c #C5D2CA",
"7X c #C3CBD9",
"8X c #CBD6D5",
"9X c #D2DCD6",
"0X c #D9E2DC",
"qX c #CAD3E2",
"wX c #D3DCE7",
"eX c #DBE3E6",
"rX c #C4FCFF",
"tX c #CBFFFF",
"yX c #D1FFFF",
"uX c #E3E9EB",
"iX c #E3EAEC",
"pX c #E5ECF3",
"aX c #ECF2F6",
"sX c #F3F6F7",
"dX c #F2F6F9",
"fX c #F5FAFB",
"gX c #FCFEFE",
/* pixels */
"o @ 0 % $ 0 0 0 0 $ $ 0 0 0 0 0 % % q q $ $ % t q 0 t 0 % % $ % % % 0 % % t 0 $ # # 0 0 % 0 % 0 0 $ $ 0 0 0 q 0 % 0 q 0 $ $ % t t 0 0 0 % $ $ $ 0 0 0 % w q $ + ",
"# $ 0 0 0 t % $ 0 % 0 t t 0 0 0 % t % % % % % t % % % % % 8 t t q q 0 $ # % $ $ # # # @ # # $ $ % % 0 q t 0 0 % % q 0 % $ % 0 t 0 % % % % r t t t t 0 $ 0 q 0 # ",
"q q 0 q Y t 0 0 0 0 t Y t t t r % t % % % q t r % % $ 8 8 Y R R R Y % # : ; , , 5 ; ; ; ; : + # 0 q q t t t t r r t 8 $ % t t r r % $ 0 r Y R R R Y 0 $ 0 t q q ",
"0 q T R T t 0 r q 0 0 t T R R R T T 8 8 t T T T Y Y T T T Y Y T T R T # = k h l g g g g g g = # t 0 r t T R R R T Y 0 % t T R T Y Y Y T Y Y Y R T T Y t q Y q $ ",
"$ q q T T R T t Y t t Y R R R T T T Y Y T R R R T Y r r 8 7 7 7 $ 7 r 6 c L #.O.O.L +.#.+.%.M 9 7 0 t Y R R R T T R Y t T R R R R R R R T t t t t t R t t Y q w ",
"0 0 0 q Y R R R R Y Y Y R T Y t Y R R R R R R R Y 8 4 2 > 1 = = & * > c %.t.h.d.a.a.f.v.b.c.%.S , 8 t Y R R t t Y R R R R R R R R R R T Y t t t % r R R R t q q ",
"$ $ 0 q q t t t t r r t t t T T R T t t t t Y T 8 4 b N B N m m h h v %.t.(.`.(.(.[.{.$X$X[.c.%.x ; 7 t t t Y Y T T t t t t Y Y T R R R T t 0 t $ $ t R R t $ # ",
"$ w 0 q t q q 0 8 % % % % % t T T t t r t t 0 # 4 M O.$.$.#.O.$.#.#.#.8.b..X@X@X#X%X=X<X<X-X[.f.+.z = + O + 5 7 7 6 : @ % q 8 t t T R R R Y Y T t q T R R r # # ",
"$ % q Y t % % % % % 8 % % % $ 8 Y t T R R t 7 = b +.8.p.q.q.t.d.g.g.g.M.(.XX#X&X$X-X>X<X<X>X$X[.u.I k . . . . = < X = > 8 r r 8 % T R R R R R R R R R R T % % % ",
"$ % % t t t % % % % % $ t t 8 T R Y R R R 8 > m +.8.j.n.x.M.C.).|.|._.|..XXX#X&X=X>X>X=X=X=X<X$X{.u.%.N B B A V A A A M 9 8 Y T R R R R T T T T t % % T R Y t % ",
"% % q Y Y Y 8 % t t t t q Y R R R T T R r 4 b +.7.h.M.C.A.)..XOX@X@X@X@XXX@X#X=X=X=X=X&X*X*X-X>X*X[.u.,.4.7.e.e.e.t.e.&.J 9 8 E R R R T q t T T % $ % t R Y T q ",
"q 0 8 R R R t t t R R R T T R R R Y T t ; b +.4.d.z.n.N.). XXXXXXXOXXXOX#X#X&X=X=X=X=X=X*X*X-X=X*XoX[.m.m.m.m.m.[.[.[.c.e.M - 5 Y R R T q Y R R % $ % T R % % % ",
"$ % q t R R R Y 8 t T R Y Y R Y t T r 4 n +.8.h.n.V.N.C._.XXXXXXXX.XXXOX#X:X=X=X=X=X=X=X=X=X=X:X-X-X;X;X;X;X$X$X$X>X$X[.u.J < 6 t R R R Y R R R T Y T R R % % % ",
"$ % q Y T R R T 0 8 t R Y t T Y t r 4 b O.7.k.M.V.V.)._. XXXXXXX`.`.`.OX#X=X=X=X=X*X*X=X:X,X2X2X<X1X4X4X4X4X3X<X<X1X<X+Xu.A g : q R R R R R R R R R R R T Y t % ",
"0 q Y R R R T T R t t R Y Y Y R t ; b O.4.d.x.x.n.)._. X.XXX.X.X.X`.`.XX#X=X:X=X*X%X%X:X2X4XrXrXrXrXrXrXtXrX3X:X-X<X-X{.u.A X o % % T T T R R Y Y Y Y Y Y T T % ",
"% q R Y R R T R R R T Y Y Y t 8 9 n O.8.d.n.C.M.C.)..XXXXX.X.X.X.X.XXX@X#X=X=X=X=X=X=X,XrXtXtXyXtXtXtXyXyXtXrX2X>X<X*XoXb.:.m = : % t t t t Y T Y Y Y Y R R Y q ",
"% q T q t R T T R R Y t t t 8 4 M +.8.k.n.V.A.A.). XXXXXXX.X X X XXXOX%X*X=X*X*X=X:X2X4XtXtXyXyXtXtXyXyXyXyXtX4X2X,X:X%X[.c.:.M 1 @ 8 t 8 Y Y R R T R R R R T t ",
"0 t r 0 0 t t Y T q % % % 7 ; b #.8.h.M.n.M.C.`..XXXXX.X.X.X X XXX#X%X=X=X*X*X*X:X2X4XtXtXtXtXtXtXtXtXtXtXtXtXtXrX3X>X=X>X}.m.:.V = 8 T R R R R R R R q % T Y % ",
"0 t Y 0 0 r t t t 8 8 t % 5 = N *.p.n.V.x.x.C.`.XXXX.X.X.X.X.XXX#X%X=X=X=X=X%X*X:X2XrXyXyXtXrXtXrXtXtXtXtXtXyXyXtX2X:X=X<X-X{.m.w.M 3 7 8 Y T T Y q Y q % t t t ",
"$ t R Y t t t t t 8 Y Y % # = N *.p.n.C.x.M.C. XXXXXXX.X X.XXX#X%X&X=X=X=X=X*X%X:X2XrXyXyXtXtXtXtXtXtXtXtXtXtXyXrX2X:X$X-X-X=X+Xb.e.J 3 : 8 T R q % Y Y t % % % ",
"q Y Y T R R Y Y Y t 8 % % 5 > N $.9.x.V.M.M.S.`.XXXX.X X XXX@X%X=X-X=X=X=X=X%X*X:X2XrXyXyXtXtXtXtXtXtXtXrXtXtXyXtX3X:X=X$X-X-X<X+Xb.:.m > r R R R R R R R t % t ",
"0 q T R T R T R R Y t t q 8 > M #.9.l.C.V.S._. X.XXX.X X X.X@X&X=X=X=X=X&X=X%X*X:X2XtXyXyXtXtXrXrXtXtXtXtXtXyXyXtX3X:X%X*X*X>X1X$Xm.4.N = 8 R T R T T R R Y t t ",
"0 q R T Y Y Y T R R R R R t > m #.8.z.S.S. X X X.X.X.X X`.XXOX%X=X-X=X=X&X=X%X%X:X2XrXyXyXtXtXtXtXtXtXtXtXtXtXyXtX2X>X&X%X=X>X1X$Xm.;.N & 6 t t 8 q q T R Y t t ",
"0 q t Y R T r 7 7 t R R R t ; m O.7.x.). XXXXXXX.X.X.X X XXX@X%X=X=X=X&X=X=X%X%X:X,X3XtXtXtXtXtXtXtXtXtXtXtXtXtX4X2X=X*X*X*X-X<X+Xv.=.m = 5 q t 8 % Y Y T T % % ",
"0 q Y T T t 6 - > 7 8 Y R t > v O.7.k.)..XXXXXXX.X.X.X X X.XOX&X=X-X=X&X=X=X&X=X=X:X,X4XrXtXyXyXyXyXyXyXyXtXrX4X,X:X=X&X=X=X=X-X{.j.=.m * # % 8 0 0 T Y Y Y q % ",
"$ q T R t 5 1 l x 9 7 $ t 8 - m #.7.x.).`.XXXXXX.X.X.X X XXX@X%X=X-X=X=X=X&X=X&X*X=X=X,X4XtXyXtXtXtXtXyXyXtXrX,X:X&X=X=X=X=X=X%X|.g.$.m & 5 % % $ r Y T Y q q 0 ",
"0 t T t # 2 V O.%.c : # 7 6 z K 2.q.x.S.|..XXXXX.X.X.X.X XXXXX#X%X=X=X=X=X=X=X&X%X%X%X=X,X4XrXrX2X4XrX4XrX4X,X:X&X%X&X=X>X=X&X%X_.a.#.h & # t q t t t Y Y R q q ",
"0 q Y w 2 m =.8.6.A c 1 1 c V :.s.k.n.C._..XXX.X.X.X.X.X XXXXXXX@X%X=X=X=X&X=X=X=X*X*X&X:X:X,X,X,X,X:X,X2X:X:X=X%X%X&X=X-X=X=X#X).i.O.v & $ Y T T T Y Y Y T T 0 ",
"0 q t 4 n O.q.k.d.1.A B j K 1.g.n.n.n.C._..XXX.X.X.X.X.X X.X.X XXX#X&X=X=X=X=X=X=X=X=X=X=X*X=X=X&X&X=X=X=X=X=X=X=X=X=X=X=X=X&X#X|.g.,.V 2 r T T T T R Y t t t 0 ",
"# # 9 M %.8.h.n.x.f.e.,.*.1.p.x.N.n.M.C._.XXOXXX.X X.X.X.X.X X`..XXX@X&X=X=X-X=X=X=X=X&X*X*X%X%X&X%X%X%X%X*X%X*X=X=X=X=X&X%X@X@X|.V.a.%.b > ; ; : 7 q Y Y t % # ",
"O - n +.8.h.n.N.V.C.B.z.g.d.k.n.M.x.n.V._..XXX.X.X.X.X.X.X.X X X X.XXX#X%X=X=X=X=X=X=X&X*X*X*X*X*X%X=X%X%X*X%X=X&X=X=X=X#X@XXXXX.X|.A.u.%.n k z z 3 w Y R t 0 $ ",
"* k Z 4.h.V.N.V.A.|.XXXX).V.n.x.x.k.x.V.). X.X.X.X.X.X.X.X.X.X.X X X XXX@X&X&X=X&X%X=X=X=X=X=X*X=X=X=X=X=X=X=X=X=X=X=X#XXX.X X XXXOXOX(.f.:.#.=.L M 9 t R T t q ",
"* z L 7.h.C.A.). XXXOXOX XS.C.n.l.l.x.M.N.S.`. X XXX XXX XXX XXX.X X X.XOX@X@X@X#X%X=X=X-X=X=X=X>X=X=X=X=X>X=X=X=X=X#XOXXX X X XXXXX@X|.(.v.f.j.9.+.n > # T T q ",
"o g j 2.h.C.). X.XXXXXXXXX XA.M.n.l.l.n.n.M.S.`.XXXXXX X.X XXX X.X X X.XXXXXXXXXOX#X%X=X=X=X=X=X=X=X=X=X=X=X=X-X=X#XOX.X X X X X XXXXXXXoX{.{.{.V.t.%.x ; u t 0 ",
"& k Z 2.h.C.). X X.XXXOXOX.XS.M.l.l.l.x.j.l.C.|..XXXXX X.X.X.X.X.X.X.X.X X X`.`.XXOX#X%X&X#X%X#X%X#X&X%X%X#X%X%X#XOXXX X X.XXX.X.X X XOX&X>X<X>X+X).d.%.b , $ # ",
"o k Z 7.j.C.A.).).|.XXOXOXXXS.M.x.l.l.l.l.n.C.`.XXXXXX XXX X.X.X.X.X.X X.X X`. X XXXOX@X@X@X@XOX@XOXOX@XOXOXOXOXOXXX.X X X X.XXXXX X XOX&X>X<X<X&XOX(.a.%.M 2 o ",
"; < Z ;.a.n.n.M.C.S. XXXXX|.A.M.x.x.x.l.l.n.A.|..XXXXX.XXX XXX.X.X.X.X X.X X.X.X.X.XXX.XXX.X.XXX.X.X.XXX.XXX.XXXXX.X.X.X.X.X.X.XXX X XXX#X&X-X$X&X&X@XV.8.L k   ",
"w ; z J ;.p.g.z.M.A.A.|.`.S.C.n.x.l.x.x.x.n.A. XXXXXXX.X X.X X.X.X.X.X.X.X.X.X.X.X X X X X X X X X X X X X X X X X X.X.XXXXX X`.).`. XXXOX#X%X%X&X&X$X|.h.*.v . ",
"$ $ , 3 J ,.9.j.N.V.V.V.C.N.M.n.x.x.x.j.l.n.A. XXXXX.X X X.X.X.X.X.X.X.X.X.X.X.X.X X X X X X X X X X X X X X X X X.X.X.XXX.X_.A.V.A. XXXOXXXOXOX@X#X#X(.h.$.v . ",
"r u t ; z ..7.h.C.M.n.n.l.n.l.x.x.x.x.x.x.n.V._..X.XXXXXXX.X.X.X.X.X.X.X.X.X.X.X.X.X.X.X.X X.X.X.X.X.X.X X XXXXX.X.X.X.XXX|.S.n.n.M.). XXXXX.XXX.XXX@X(.t.O.x & ",
"p i t # < j 2.k.S.V.x.l.l.l.x.n.x.n.x.z.x.n.n.Z._..XXXXXXXXX.X.X.X.X.X.X.X.X.X.X.X.X.X.X.X.X.X.X.X.X.X.X.X.X.XXXXXOXXXXX`.S.B.x.x.n.V.). X XXXXXXXXX XM.9.X.l & ",
") F w O z O.7.h.C.M.n.l.x.l.l.x.x.x.x.x.x.x.x.n.V.).|.XXXX.X XXX.X.X.X.X.X.X.X.X.X.X.X.X.X.X.X.X.X.X.X.X.X.X.X.X.XXXXX XS.B.x.l.j.x.n.V.). XXXXX X X).k.7.O.x & ",
"H.( d p I >.7.p.g.l.n.n.M.x.x.x.x.x.n.n.n.j.j.j.n.V._..X.XXXXXXX.X.X.X.X.X.X.X.X.X.X.X.X.X.X.X.X.X.X.XXX.X.X X|. X XS.S.V.x.l.z.x.x.x.M.A.`..X.X`.).C.h.4.O.v & ",
") { L.W.E.Y.0.3.2.i.j.M.M.l.n.x.n.x.x.x.x.x.x.x.n.n.A.). XXXXXXXXX.X.X.X.X.X.X.X.X.X.X.X.X.X X.X.XXXXXXXOXXX XS.C.C.A.V.M.x.l.x.x.n.M.V.S._.).).C.).).k.q.$.v . ",
"d _ ~.uXpX7XI.@...5.h.N.n.n.x.x.n.x.n.x.x.x.x.x.x.x.n.C.(..XXX.X.X.XXX.X.X.X.X.X.X.X.X.X.X.XXXXX.X.X.X.X.X XS.C.n.x.n.n.x.x.x.n.n.n.x.x.x.n.n.n.n.C.M.g.4.L z & ",
"w H P.0XgXiXY.@.C ,.g.V.M.x.n.x.x.x.x.x.x.n.x.x.j.j.j.n.C.(.).)._. XXXXXXXXX.XXXXX.XXX.X.XXXXXXX.X X_.S.|.S.A.n.x.h.l.l.l.x.n.B.n.j.a.9.7.9.p.k.n.x.h.7.+.b 1 + ",
"w e H J.9XaXE.@.C ,.h.V.M.n.x.n.x.n.x.n.x.x.x.n.x.x.x.n.M.V.C.M.A.).XXXXXXXXXXXXXXXXXXXXXXXXXXXX.X(.A.M.V.V.M.n.x.l.l.x.x.n.B.Z.M.a.1.#.O.#.7.h.x.k.9.+.n 4 : + ",
"w w y ~ J.'.Y.@. .2.j.V.n.n.x.n.x.x.x.n.x.n.x.x.x.x.x.x.x.x.x.z.n.)._..X.X|. X X X X X|. X X.X|.|.A.B.z.x.x.x.x.x.x.x.x.x.n.n.n.g.1.A B h B %.t.d.t.=.J > # $ @ ",
"w 0 0 0 F U I P O.7.k.N.M.x.x.x.n.x.x.x.n.x.n.x.n.n.x.x.j.j.j.j.n.N.A.).(.).).).A.S.S.A.S.).S.S.A.B.l.l.j.l.l.l.n.n.n.n.n.n.h.d.3.J z < < < J =.2.=.K c 5 $ $ $ ",
"@ w 0 0 w S J J $.7.k.C.M.x.x.x.x.x.n.x.x.x.x.x.x.x.n.x.x.x.z.x.x.n.n.M.M.N.n.n.M.M.M.M.M.M.M.M.M.n.n.l.l.x.n.x.x.n.n.n.V.n.a.4.L b 1 , , 3 c K O.A n , r t t 0 ",
"w w w s p S S j O.7.k.C.N.x.x.x.n.x.x.x.n.n.x.x.n.x.x.x.x.x.x.x.x.x.x.x.x.j.x.j.x.x.x.x.x.z.x.x.l.x.n.l.n.x.n.x.x.n.n.M.C.M.e.#.B x D d w e 3 z v z 4 w Y T t q ",
"w f H { { U J j | 5.n.).N.n.x.x.x.x.x.x.x.x.x.n.x.x.x.n.n.x.x.n.x.x.x.j.j.x.x.j.j.x.z.z.x.z.l.l.l.l.n.n.x.x.x.x.x.l.n.n.).M.6.| j J ` ( d e 6 - & * 5 t T 0 w 0 ",
"p { ~.9X9XQ.>.@. .2.h.n.N.n.n.n.x.x.n.x.n.x.n.x.x.n.x.n.x.x.x.n.x.x.x.x.x.x.x.x.x.x.x.x.x.x.x.x.n.x.x.n.x.x.x.n.x.x.x.M.C.k.6. .O.w./.~._ s 6 4 4 : t Y T t 0 0 ",
"{ ~.fXgXgXpX/.I.-.,.5.p.k.N.N.N.M.M.M.M.n.x.x.x.x.x.x.x.x.n.x.n.x.x.x.x.n.x.x.x.x.n.x.x.x.x.x.x.x.n.x.x.x.n.x.n.x.M.x.l.d.p.4.-.y./.pXeX~.w.( ( ( / / Q E Y 0 0 ",
"9XuXfXfXdXpXwX/.I.-.#.<.s.C.).C.C.V.C.N.n.x.x.x.n.x.x.n.x.x.x.x.x.x.n.x.n.x.x.x.x.x.x.x.x.n.x.x.x.x.x.x.x.x.x.x.n.B.n.d.2.*.:.I.^.wXpXpXeX6X'.~.'.5X5XD.F t t t ",
"'.~.5X9XuXdXdXeX/.>.$.o.6.s.k.k.g.h.h.x.n.n.n.n.n.n.n.x.n.x.n.x.n.n.x.x.x.x.n.x.n.n.x.x.x.x.n.x.x.n.x.n.x.n.x.x.n.C.M.p.o.L -.^.eXdXfXpX8X'.W.~.5X8XwXL.~ i t q ",
"{ ] ] P.8XgXgXsXeX^.I.-.;.,.<.,.,.2.7.p.z.M.N.N.M.n.n.l.x.n.x.n.x.x.x.x.n.n.x.x.x.x.x.x.x.x.x.n.l.n.n.n.l.n.n.n.M.C.V.i.| j &./.aXgXgXeXR.G.} } K.R.!.{ F R q q ",
"i y f ( Q.fXgXsXpXeX/.U.-.C C j  .Z #.7.d.M.).C.M.M.x.n.x.x.x.k.x.n.x.n.x.x.x.n.n.x.n.x.x.n.x.n.n.n.l.n.n.n.l.n.M.A.C.i.| C @./.iXgXgX6X[ Q R W Q Q Q a r Y Y q ",
"$ 0 t f ] ~.uXaXdXfXpX].U.-.#.O.P h m K 3.s.z.h.h.l.n.N.N.M.N.N.n.M.M.M.M.M.M.M.M.M.M.M.M.M.M.M.M.M.M.M.M.M.B.B.n.k.s.9.,.>.I.E./.~.~.J.~ a q q % % q 0 0 r 0 0 ",
"w t R q f ] Q.0XgXgXfXpX].^.Y.U.>.S < x L 1.7.2.8.d.N.C.B.B.N.N.V.N.N.N.N.N.N.M.V.M.V.M.B.B.B.B.N.N.B.B.N.B.C.C.n.9.<.<.y.Y.E.F.[ ) ^ ^ ^ ^ ~ E q q t t r 0 0 0 ",
"0 q T T T Q { ~.sXsXpXuXwXwXuX9XR.H 3 1 n Z  .Z #.8.j.M.N.n.n.x.n.x.x.n.n.n.n.n.x.x.M.M.M.x.n.x.n.n.n.n.n.n.N.B.h.,.O.&.^.].W.( F i E Q _ W.P.! T R R R T Y q 0 ",
"0 q T R T T Q { R.R.P.K.J.R.9XpX0XR.' G S h h v N %.5.9.9.6.6.6.9.p.p.p.a.a.p.a.p.p.p.p.p.p.s.p.i.q.6.5.6.6.6.9.7.;.-.>.E.E.D.F u q q i ~ H.H.f i R Y R R T q q ",
"0 q R T T t u s ~ F f s E ~ J.9XfXpXQ.U J 1 < 2 c N ..o.O.X.X.X.o.$.,.;.1.;.*.,.=.;.;.*.;.,.;.;.$.$.o.X. . . . .#.0.Y.E.T.' D i u t t r e d F w r q q Y R Y q q ",
"q q q Y R R t u i T T T T i / R.eXdX5X{ G e w e 4 n K O.O.O.L O.L Z B B B B B B B N j B B B B B Z Z O.O.O.O. .j @.^.8X5Xw.F i R t 0 q q y u y r % 0 t Y T T q % ",
"0 q Y T T Y t t Y Y t u ! / ^ [ K.R.J./ d t t y p J >.I.I.U.U.U.>.I n x g z z g X < k k g X X k n P >.Y.Y.r.>.>.I.qXdX9X_ a T R T 0 % r t 0 % % $ % Y Y Y Y q % ",
"$ t T R t 0 t t Y t r p ] J.) ! a s s y t Y t e F ' E.7X8XqXwXwXE.U S 2 > 2 3 > > > > > - = - > D ` E.wXwXqX/./.5XaXdX8X) i T R T 0 0 0 % % % % % q T T Y Y q % ",
"0 t T Y r $ $ t R R E f H.P.^ s Y T T T R T Y r F D.8XaXiX8X7X8XT.U p 6 e e p p D D d p D D > 4 p ( T.8X7X6XeXpXaXaX~.{ Q E T T T T q % % % t t q q Y Y Y R q 0 ",
"0 t T Y t t r t R R E f _ _ f E R R R R R Y t t ! G.uXsX6XP.D.L.] F p 6 5 e F ' J.D.{ D.D.D.H p p F ) L.H.L.7XaXfX6X} Q i q T T R R q q t t Y T T T T Y Y R Y q ",
"% Y R R R R R T R Y t r u i Y R R T T T Y t 8 Y Q { 9X9XF.H p F D p e 6 : p H T.eXeX8X9XeX8XD.F 7 9 p D p F F.8X0XH.~ Y t t q Y R R R R R R R R R R R Y Y Y q % ",
"% % Y R T t T R Y Y t % t T R T Y t q q T T t a ^ [ H.[ F i 8 8 y 7 7 7 w e D ] ~.uXsXgX9XR.( d 7 7 7 7 8 s ! [ D.) F y t T T t t R R R R T R R R T Y Y Y q % $ ",
"% % T R Y q Y T R Y t r Y T T t t t t Y R T Q _ { ] ~ s r t Y Y t r r t t w y F } 5XsXiX~./ f u u 8 % % t t r a F ( _ ) Q t Y q Y R R R R Y Y R R Y Y R R q % $ ",
"q Y R R T t q Y R t % 0 q q t q t T R R T a H ~.R./ Q R R q t Y T T T R T Y R R Q } ~.R._ i r Y R t % % 8 t 8 r s ) R.~.^ e 0 T T Y R R R t q T T R R R R Y Y % ",
"% q T T Y t Y Y Y Y q 0 Y T t t Y T t y F ) D.L.] d R R R t t R R R T q q R R R r ~ _ ^ f q q Y Y Y t 8 Y T Y Y t F _ { F u q R Y t T R R Y t T R R T q Y R Y Y ",
"$ q q Y Y Y R Y t R T t Y T R T T T r d ] L.J.^ d r t R R Y Y R R T Y 0 0 R R T t u y y u Y R T t R T t T R T T Y i f d u E R q t 8 T R R T Y R R T T % % R Y % ",
"% 0 q Y T R R R R R R R t q R T T R t ! P.T.[ d r t Y Y R T T R T Y q Y T T Y t t t t r Y R R R R R R R t 8 R T Y R R E T t t 0 % Y Y T R R T R T Y Y Y R R % % ",
"% 0 0 0 t R T T R R R Y t t R R R R t E _ ) F r q T t q t t t R R R Y Y R R q 0 T t q q q R T T R R R Y t t T R R R T Y R Y t r Y T t q t t Y R R T Y Y R R % @ ",
"% % % % q t t Y R R T q q Y R R T Y t t i i u t Y T Y t t t t T R T T T T R t q T t 0 0 r t t Y R R Y q q T R R T T t Y R R t t Y R Y t t r Y T R R T T R R % # ",
"q 0 % 0 q % t Y R T T Y t Y T Y q q r t R R Y Y T T R T t T T Y q q R R R T T R R t w 0 0 0 t Y T R T Y t Y T t r t t t R R R Y T T R R Y T T t % q R R R Y Y % ",
"$ $ % 0 % % t q q % q q q q t 0 r 0 r r t t t t t t Y Y t t Y t % $ Y q 0 0 q Y q 0 w 0 0 0 0 0 % % q q q q t 0 0 0 r r t t t t t t Y t t t t t % $ q q % % % % ",
"@ # $ % q r % $ $ # $ % 0 % # 0 q 0 q q # $ % t t % % % % % 0 r $ # % # # # % 0 0 $ $ 0 0 0 0 w % # % % % % $ % q 0 q q $ $ 0 t q % % % % % r q $ # 0 $ # # @ @ "
};
