/* XPM */
static char *Group_10_13__resized[] = {
/* columns rows colors chars-per-pixel */
"80 80 252 2 ",
"   c #130D13",
".  c #1D1D16",
"X  c #181518",
"o  c #1C1A1A",
"O  c #231B1B",
"+  c #271A18",
"@  c #381A15",
"#  c #1D2315",
"$  c #1D2718",
"%  c #39320F",
"&  c #24231B",
"*  c #2A241E",
"=  c #262918",
"-  c #242C1A",
";  c #372518",
":  c #243416",
">  c #283917",
",  c #243419",
"<  c #2B3B19",
"1  c #383617",
"2  c #1A1922",
"3  c #271E22",
"4  c #311F20",
"5  c #2C2223",
"6  c #2C2724",
"7  c #332425",
"8  c #362828",
"9  c #3B2C2C",
"0  c #393327",
"q  c #3C2E31",
"w  c #382D38",
"e  c #3D3136",
"r  c #471914",
"t  c #561D14",
"y  c #601C12",
"u  c #56290F",
"i  c #472619",
"p  c #582A1A",
"a  c #4C3A15",
"s  c #593915",
"d  c #672B16",
"f  c #762B14",
"g  c #693615",
"h  c #783716",
"j  c #462B27",
"k  c #562B22",
"l  c #42302F",
"z  c #4D3428",
"x  c #573627",
"c  c #433332",
"v  c #4A3939",
"b  c #533937",
"n  c #533E3C",
"m  c #663829",
"M  c #783B29",
"N  c #643C33",
"B  c #294517",
"V  c #2C4419",
"C  c #2D4B19",
"Z  c #364819",
"A  c #2E5318",
"S  c #32541A",
"D  c #3C5318",
"F  c #355C1A",
"G  c #3B5C1A",
"H  c #36621B",
"J  c #3A641C",
"K  c #3D6C1D",
"L  c #3F711E",
"P  c #3D4226",
"I  c #3F7320",
"U  c #484916",
"Y  c #544415",
"T  c #5C4315",
"R  c #564A17",
"E  c #5C4B16",
"W  c #465519",
"Q  c #445B1A",
"!  c #4A5D1A",
"~  c #545419",
"^  c #595A1A",
"/  c #644416",
"(  c #684816",
")  c #764817",
"_  c #685818",
"`  c #775617",
"'  c #44631B",
"]  c #4B631B",
"[  c #436C1D",
"{  c #4B6C1D",
"}  c #55661C",
"|  c #41741F",
" . c #4B731F",
".. c #43781F",
"X. c #51701E",
"o. c #6E621A",
"O. c #514822",
"+. c #57423A",
"@. c #724A29",
"#. c #664737",
"$. c #784733",
"%. c #7A5637",
"&. c #427620",
"*. c #4B7420",
"=. c #457C21",
"-. c #497D21",
";. c #507720",
":. c #453842",
">. c #594745",
",. c #5F504E",
"<. c #634D48",
"1. c #704A43",
"2. c #69544C",
"3. c #775948",
"4. c #695751",
"5. c #735D54",
"6. c #7B6659",
"7. c #7C6D62",
"8. c #852C12",
"9. c #833B15",
"0. c #893916",
"q. c #8B3C1E",
"w. c #953916",
"e. c #933D15",
"r. c #9C480F",
"t. c #894716",
"y. c #944416",
"u. c #9A4415",
"i. c #9C4B16",
"p. c #944718",
"a. c #9B4518",
"s. c #9C4B19",
"d. c #885517",
"f. c #985718",
"g. c #A64717",
"h. c #A44C19",
"j. c #AC4C1A",
"k. c #B24C17",
"l. c #A35416",
"z. c #A75B17",
"x. c #A55419",
"c. c #AD5319",
"v. c #AB5C18",
"b. c #B3531A",
"n. c #BA5719",
"m. c #B45C1B",
"M. c #BC5B1C",
"N. c #886518",
"B. c #986418",
"V. c #A76618",
"C. c #AD6318",
"Z. c #B66916",
"A. c #B36419",
"S. c #BB631B",
"D. c #B46C19",
"F. c #BC6C1A",
"G. c #A07019",
"H. c #BD731A",
"J. c #B97519",
"K. c #92542B",
"L. c #874934",
"P. c #875A37",
"I. c #A9562E",
"U. c #966726",
"Y. c #8B6439",
"T. c #996636",
"R. c #B1692A",
"E. c #A46835",
"W. c #A77539",
"Q. c #B77935",
"!. c #C05B1A",
"~. c #C25D1C",
"^. c #C76915",
"/. c #C4631D",
"(. c #CA641E",
"). c #C56A1C",
"_. c #CA6C1D",
"`. c #D16E1E",
"'. c #C27415",
"]. c #C3731B",
"[. c #CC731D",
"{. c #C47D1A",
"}. c #CC7B1C",
"|. c #D3761E",
" X c #D37C1D",
".X c #CB6F27",
"XX c #C77824",
"oX c #D67920",
"OX c #936946",
"+X c #967648",
"@X c #8C6F52",
"#X c #867466",
"$X c #478122",
"%X c #498423",
"&X c #4C8924",
"*X c #508E26",
"=X c #B38127",
"-X c #CA871B",
";X c #CC841C",
":X c #D4831D",
">X c #DA841E",
",X c #D38B1B",
"<X c #DC8C1D",
"1X c #DD921D",
"2X c #D8951D",
"3X c #E18F1F",
"4X c #E2941E",
"5X c #E49B1D",
"6X c #E99B1F",
"7X c #E5A21D",
"8X c #E9A41D",
"9X c #EBAA1D",
"0X c #F2B41E",
"qX c #D78726",
"wX c #DB8421",
"eX c #DD8B21",
"rX c #D99526",
"tX c #CC8C33",
"yX c #D89837",
"uX c #E18521",
"iX c #E28C21",
"pX c #E39421",
"aX c #E59B21",
"sX c #EA9D21",
"dX c #E49829",
"fX c #E19A31",
"gX c #DAA22A",
"hX c #E7A322",
"jX c #EBA421",
"kX c #ECAB23",
"lX c #E9AC2A",
"zX c #F1A623",
"xX c #EDB329",
"cX c #F3B928",
"vX c #E9A937",
"bX c #F1AD3A",
"nX c #EDB638",
"mX c #F3BA33",
"MX c #F8C62C",
"NX c #EFC13D",
"BX c #F7C737",
"VX c #FCD337",
"CX c #B58D4A",
"ZX c #A08661",
"AX c #CB9B45",
"SX c #CFA047",
"DX c #D6A747",
"FX c #EDB642",
"GX c #F7C844",
"HX c #FDD948",
"JX c #FEDA51",
"KX c #FCE44E",
/* pixels */
"A H | K L L L L ..K L ..L ....L K D ` C.'.f.U ' L [ D E h.>XkXMXKXKXHXvX<X1XkXMXBXdXC./ U H L L L K K L &.....L L ..&...K K L &...| J D a % Z [ I I ..L ....K A ",
"J K L | &.&.L L L L L &.&.....L J Z ` F.;XB.Y Q K K S T i.:XcXMXHXJXGXlX5X5XxXBXVXlX{.f.E G K L L L ....&.&...L L L &.L K L &.&...K Q E ) ) E ' &.&.L K K ....K ",
"........=.=.L L L L =.$X=.=.=.L J U ` J.;XB.E ' K L S R y.}.jXBXVXGXBXxX8X7XlXBXBXMX4XM.) W J L L ....$X=.=.=.I &.&.I K L &.=.&.K Q E f.[.XXU.^  .=...K K $X$X..",
"| ..%X&X&X=.&.&.......$X%X&X&X&X%X*.^ ( ) _ ;...$X..J ( i.].4XkXcXcXkX5X1X<XaXjXxXhX:Xj.) G J ....L ..$X%X&X&X&X&X$X&.L =.%X&X%X' E f.;XcXNXyXU._ ' $X&...$X..K ",
"L ..$X$X%X&X%X$X$X=.=.%X&X&X&X%X&X%X&.Q ~ *.&X&X$X{ ^ d.A.[.>X5X9X8X1X:X XwX1X7XsX4X[.j.) Q &.$X%X..=.$X&X&X&X%X&X%X$X..&X&X%X{ E h ).6XVXKXGXtXU.^  .....%X..K ",
"L | | ..-.&X&X&X%X%X$X$X&X&X=.=.$X%X&X-.=.$X&X&X{ W t.Z.oXoX X4X8X7XwXoXoX X<XaXpXoX(.h.) ] $X&X%X&X%X%X&X&X$X=...&X*X&X&X%X .E 9.b. X8XMXHXJXHXtXU.U [ &X......",
"K | | ..=.=.=.=.=.&.&.&.&.=.%X&X&X%X&.&.I &.$X%X[ Y i._.eX>XpXnXcXxX5X<XwX[._.[.oX~.x.) ! [ &.=.....L =.L =.%X%X&X%X$X..K Q _ f.H.qXdXdXrXmXVXKXDXR.a ] &X..| J ",
"K K ....=...&.I I I I I I L =.$X%X$X=.=.=.&.=.&.' Y y./.wX1XlXBXBXmX8X5X1X[./.n.c.p.) ^ J K L ..L L L L L K L =.&X$X..| H Y d.-XvXGXvXrX>XhXVXHXvXR.s ' &X..J F ",
"K L &.=.&.I K I L I L &.L I K &.%X=.%X*X%X=.I L G Y e.k.`.3XkXBXNXxX9X8X7X<X(.j.9.s W | =.L K L L L | L J D D [ $X-.&X$XQ ( A.lXHXKXGXyX>X5X0XVXrXI.a [ &XL G D ",
"K | &.=.=.&.I I K I I L &.&.&.$X%X$X&X&X*X%X=.$X[ R y.k.!.}.5XkXkX5X<X1X5X8X<XC.g U J ..=...| K L L L K ~ E ( } =.$X&X%XQ ) R.vXHXJXGXxX7X8X0X0XrXU.T ' %X..Q Z ",
"L L &.$X%X$XI I &.=.=.&.=.%X%X&X&X%X%X*X&X%X=.{ o.N.C.c.g.n.|.4X<X:X[.oX5XkX4XF.h Y ' ..$X-.....&.&.| W ` B.V.` { =.=. ._ B.XXyXFXNXmXkX7X7X8X0XkX-XN.^ { ..[ U ",
"| ..&.&X&X&X=.=.$X&X&X&X%X%X&X&X&X$X&X&X=.=.-.Y d.;X;XA.0.g./.>X:X_.~.}.eX5X<X_.g.9./ X.%X&X=...$X&X{ Y B.;X<XB./  .' ~ B.;XaXeXeXhXkXaX<X<X5X8XmXGXyXd.Y ' L L ",
"K L ..=.&X&X&X$X&.&.%X&X$X=.&X%X=.%X&X%X&X%X-.Q _ V.].S.u.k.~.>X1X>X^.)._.|._.n.n.A.G.N.}  .&X..L &.&.! N.C.J.` ~ ..Q / F.4XzX4XdXxXmXjX5X4X:XJ.gXnXnXV.g ' L L ",
"K L ..$X%X&X*X$X&.&.=.&X$X=.&X=.=.&X%X=.&X&X&X&.! ` f.c.n.~.`.4X9X9X1X[.~.!.j.y.z.{.-Xf.E [ $X%X..L &.-._ ` d.^ | %XQ T f.qX5X5XlXNXBXxX5X<X'.i.J.rXrXf.g { L L ",
"....$X&X&X&X%X%X&X=.=.&X$X$X$X&X&X=.&.K =.&X&X&.K ' / e.n.`.3X7XcXMXmXrX).b.t.T _ G.{.d.^ | ..%X&X=.=.$X[ Q W  .&X$XK D / d.].1XxXMXVXcX2XZ.v.C.J.Z.d.^ ' =.=...",
"L ..&X$X%X*X%X%X&X&X%X$X%X%X%X&X&X=.&.K &.&.=.&.I K Q / y.F.>X7XMXVXVXxX,Xb.( W ] _ ` _ { %X$X&X&X&X&X$X..|  .%X&X..L H U ) m.:X8X0XcX9X,Xz.l.{.{.V.( ] =.%X=.=.",
"| ..%X=.=.&X%X%X&X&X$X=.=.$X&X&X&X&.&.&.I I =.I =.=.&.] ( f.H.1XcXBXVXcX1Xv.` J &.' U ' =.&X%X%X&X&X%X=.=.%X%X&X&X=.[ ' R d.S.,X5X8X9X5X:XC.z.H.;XD.` } ;.%X=.&.",
"....&.L &.=.=.=.%X&.L L L &.%X&X&X&X-.=.-.=.$X&X%X&X$X-. .( p.].4XkXlXaX:Xc.( J -.=.[ K I =.=.-.-.&.I K L &.%X&X&X%X' Y f.].4XhX7X1X3X<X1X>XF.p.C.-X-Xf.R *.=.&.",
"| =.=.&.&.&.=.=.=.&.&.=.L L $X&X&X&X&X%X&.' ! -.&X&X&X%X[ T h h.A.Z.'.:X|.c.) ' -.%X$X&.&.&.&.=.=.&.&.=.I L $X&X&X&X! / b.oXpXsX:XZ.S..XiXpX}.v.'.1X4Xc.g Q L ..",
"K =.&X$X=.=.=.=.&.&.=.$X&.L $X&X&X-.$X=.] E ( } -.&X&X$X[ T h e.e.y.h.S./.j.( D I &.$X$X=.&.=.=.&.&.=.-.| J | -.$X=.! / x.`.oXoXS.h.i.m.oXeX<X:XeX1X Xf./ G L ..",
"&.=.$X&X&X&X%X-.-.=.I I K &.&X&X%X$X&.] ` V.J.` } [ $X%X-.E h g.c.x.l.g.w.w.d 1 B A S ..&X&X%X=.=.=.I K H A < V Z B S Q _ f.~.b.v.D.C.c.j.).3XkXzX:Xf._ ! | ....",
"&.=.%X&X&X%X&X%X&X%X=.=.=.%X&X&X%X&.' ! d.D.,Xf.( G =.=.{ / 0.j./.[.].x.y.e.h a - * < J I &.&.%X%X$X=.&.G Z U x x 0 V F ! ( q.8.s.J.D.z.a./.iXjX>XB./ ] -.=.....",
"| =.&X%X$X%X%X%X&X&X*X&X&X&X&X&X%X&.J ! ` V.J.f.T S | ' Y h w.j.).qXpX{.C.C.i.g i 9 l P D S H I &X*X$XK W ^ OXOX1.+.P C S Z a d e.Z.D.Z.A.}.<X:XB.( G ..&X$X....",
"....=.$X&X&X%X=.=.%X&X&X&X&X%X-.=.&.&.[ ! ( ) p 1 C G ^ p.h.g.e.l.F.1X7X5X5X'.y.M #.<.@.x 0 < A &.=.H < _ W.SXZX6.5.+.0 > S ] / 9.y.z.].aXhX,Xv.( W L ..=.....K ",
"L ..=.%X%X$X=.=.=.$X=.=.%X&X%X=.=.%X&.H C z N c 0 U ~ d.m.g.g.z.v.C.F.2XkXzX`.g.q.1.@XW.P.N 8 , C C Z E T.AXAX#X7.6.>.6 = Z o.f.z.C.H.<XjXkX:Xi.Y S $X%X[ ~ Q H ",
"L =.&X&X$XL &.$X$X$X&.I -.&X%X%X%X%XK V , +.2.4.#.m t.A.}.h.i.;X-XC.i.].3XuX!.r.M 3.#XDXSX+X+.6 . # a U.Q.+X5.4.5.5.+.6 + u d.J.<X5X2XaX4X3X[.i.T G $X .} ( E W ",
"..=.%X$X..K L ..&X&X%X%X&X%X-.%X$XJ V 0 +.4.7.7.3.M u.^.>X).v.C.V.C.c.m.n.g.u.L.@X#XZXDXFXFX+X+.8 O.K.T.Y.3.>.,.4.2.c 6 @ f k.|.pXjX6X3X X(.b.w.E J ..} d.J.G.d.",
"| =.%X$X$X&.L =.&X&X%X=.=.=.-.&X..V < c 4.7.#X7.@XL.y.k..X:X'.z.z.Z.}._.n.g.p.P.#X#XZXDXFXFXCXOXP.W.Q.Y.#.n >.<.2.<.c 6 @ u i./.:XpX3X X(.~.n.a._ ' [ E f.-X'.f.",
"L =.&X&X&X&X%X%X%X%X[ G Q [ &X&XK : 6 +.6.#X7.ZX#X3.M q.m.eX<XZ.A.;XzXfXqXH.R.P.3.5.#XDXnXvXCXCXSXFXAXP.v c n <.<.+.v * = % ( t.M..X.X(.!.[.}.{.N.~ W R d.J.D.d.",
"K ..$X&X%X=.%X&X$X=.} _ ) _ -.%XK $ * +.5.5.6.7.#X5.$.M x.,XkXrX<X5XcXmXFXxX-Xf.M 1.+XSXCX+X+XCXFXFXSXP.:.w n n +.+.l 6 B J X.( y.(.(./.^.1X9X0X-XB.Y Q } ) ( ~ ",
"K ..$X&X$X..$X%X=.[ _ f.V.N.} *.J : = v <.4.2.5.5.2.$.f.J.lXmXcX8X8XxXBXVXMX2Xr.9.T.CXCX+X5.5.+XSXGXSXY.n c n n v l 0 < J .. ./ 0.M.(.`.:X9XcX0XiXv.Y [ $XW D H ",
"..=.&X&X%X=...$X-.R d.;XrXD./ ! K B - 9 +.<.4.5.1.M p.'.xXBXGXMX8X4X4XjXkX8X'.r.f.=XyX+X5.2.,.4.+XSXtXY.+.v n +.c 7 < H ..L Q g y.!.oX>X5X9X9X6X[.f.Y { &X ...L ",
"..&.%X%X%X..%X$X&.{ _ V.A.N.^ { =.J V < q :.,.+XT.p.r.'.cXBXBXcX<X[.[.3X5X'.u.8.p.E.ZX3.4.2.,.4.5.+X=X+XY.<.n v c 5 > H ..] s t.c._.oXwX<XhX5X Xf._ ! [ =.&X$X..",
"K ..=...[ [ .. .=.$XX.` ) _ -.=.%X-.G : 6 c %.W.R.h.r.Z.6XkXkX7X>X_./.}.}.v.y.8.q.P.6.3.2.4.,.,.<.+.%.Q.W.P.v q 0 * < G X.` y.g.M. XwXwXoX>XXXz._ ! &.&.L &X$XL ",
"L ....G U Y W  .&X&X-.' W Q &X%X%X%XH > 1 %.W.Q.T.y.u.M.>X>X X<X<X>X].m.z.J.Z.r.h N 4.4.4.4.,.>.:.w #.tXQ.P.w 3 6 V V U ` D.].h.m.,X4XuX/.m.d.E { &.=.%X%X&X=.K ",
"L J Q ~ d.f.` }  .$X$XL K L &X&X&X&XK A 1 K.Q.Y.#.m 0.b.(.!.~.`.4X5X,XC.l.'.J.l.M n ,.,.2.3.3.1.>.+.Y.tXtXP.5 2 : J J ~ f.}.,Xh.z.,XsXuXM.y.) ] -.%X=.-.&X&XL H ",
"K G ~ U.tXqXD.` } ..=.=.=.%X%X&X%X$XI F W K.T.#.c j m w.j.k.!.(.iXhX2XH.C.'.Z.d.N n >.>.2.OXW.W.T.T.Q.fXQ.%.3 X : L [ } N.J.H.h.v.,XjXpXS.9.g ..%X%X$X%X%X&XL K ",
"G R d.yXGXBX2XV.h ] &.-.=.-.%X=.&.=.&.&.&.O.x z q q z d w.n.(.oX XwX4X<X'.l.h m v >.+.n %.W.tXtXtXtXtXyXQ.%.8 O = H L |  .` y.g.M. XpXpX[.p.T [ L &.&X&X&X%X$XL ",
"R ` H.GXHXmX>Xj.f ! &.%X$X$X$X=.=.=.=.%X=.' Z 6 5 w j d 0.n.|.wXiXwXoX].v.M N b v :.+.P.T.W.E.W.W.W.T.T.T.P.@.; $ F &.%X..! / t.b._.iX3X].p.( [ L ..$X$X..=...=.",
"t.D.lXBXHXbX|.h.h ~ | =.%X$X=.%X&X%X&X&X=.&.[ > 6 3 9 d e.n.oXsXsX<XM.g.h m v v :.+.%.Q.Q.Y.#.+.+.#.+.v @.T.K.j $ K -.-...K ] g u.~.wX3X}.i./ ] L ..$X=.L ..L L ",
"{.2XcXMXVXmXvXtXV.` ^ [ ..&X&X%X&X%X&X&X=.=.=.K C $ * d w.~.oXsX3X).y.d j 9 w w <.Y.W.W.OX#.v e c c w 8 b @.@.k 1 =...Q G [  .( e.M.uXdX,Xi.d s ' ..&X..$X&X..L ",
"6X8X0X7XhXnXNXnX2XC.` Q | $X$X=.=.=.=.=.&.=.=.=.F : ; p 0.k.|.pX:Xv.f k b :.c b L.W.Q.P.#.v v w w q q q 9 l x k x ' } _ _ } ' g e.M.iXsX-Xi.9.t._ } ......&X$X| ",
"6XjX5X'.J.gXBXVX8X_.t.U [ =.=.&.&.&.&.K I &.=.&.F : & i g 0.M.eX}.f.f M L.L.L.P.T.T.Y.+.c e c l 9 9 l l 8 5 7 k p a ` V.B.` a g y.).pXsX;Xp.i.].V._ Q H L ......",
"|.oX}.l.f.J.7X7X;Xl.) Q ..&X&X%X&X=.I J K K &.=.H : o 3 j d s.,X,XV.q.I.Q.Q.Q..XE.@.l 9 q q c l l l l l w 5 8 i s s f.;X-Xf.d f i.[.pXpXF.y.i.-X;XC.T W K L L K ",
"b.b.l.C.D.J.Z.A.f.` }  .%X&X&X&X%X&XL F V V S S < = o 3 7 t r.2X,XD.e.R..XT.E.R.E.N 5 w 9 9 l l l l l l 8 5 * Z ! ^ N.G.G.` E h p.).iXeXF.y.y.m.).S.t./ R R Q H ",
"w.0.y.-X-XJ.e.f h ~ [ ..-.=.K [ ..=.K C & O + o . X o 5 j u p.,X,XC.e.I.E.N @.T.E.$.q q l l l l l l l 8 7 & - S &...^ T Y ! { ( y./.uXiX].y.f 8.x.S.S.s.9.9./ Q ",
"w.h.C.Z.V.r.f y i = , > < < : > > B > ; r r @ + X   X 3 7 d p.:X-XC.f m b w b E.R.$.q q l l q 9 9 9 9 8 5 O # : C C % ; % > Z g w.M.uXsX-Xi.f 8.M.yXvX;X'.F.f.) ",
"g.S. XF.r.8.d i = $ $ # # # # # $ # ; d 0.y.h r X   X 3 j d y.[.}.m.f p j q #.K.E.$.q 9 q 9 9 6 7 7 8 7 * + . & - = . .   . ; d w.!.iX8X-Xp.8.w..XFXBXxX4X<XA.e.",
"j.).uX;XS.p.d % B > : : > : > B > ; d l.-XrXQ.) i   X @ k d w.S.`./.a.d k m $.$.N c 7 7 7 8 6 5 3 7 7 3 O O O o O O o X X X ; d e.M.iXsX;Xy.8.k.oXmXBXcX6XiX/.k.",
"9.l._.4X1XJ.) U F H H H J K H L ' a t.;XcXBXnXQ.h r + + p d 0.M.oXoXM.w.8.I.L.N 7 3 7 j l z c j j 7 3 O . # = = = = = = $ $ ; d y./.oX>XH.i.a.S.wXsX9XaX3X>X_./.",
"T ) c.,XsX1XV.) ! [ ....$X$X%X&X;.R i.>XMXVXMXpXC.f r @ r d y.].iXuX(.g.w.I.K.x 2 2 9 N M M L.$.m j O X # > S S C C C C C C Z d a._..XF.x.v.].eX<X<X>X>X<X<XrXyX",
"G E 9.F.pXaXqXv.h } ..&X&X$X&X&X{ a ) S.2X8XkX5X:Xb.d @ + t y.-XsXiXb.w.q.I.L.N 8 7 j L.OXI.I.K.M 7 O X - S =.%X$X....&X| L { g l.}.F.x.y.].aX9X5XwXoX>X2X8XMXHX",
"F Y 9.H.5XzXwXb.9.~ &.&X$X$X%XH < = i h A.:X5XiXoX Xz.g r y p.;XpX[.y.d k m N $.L.1.M M M m m m k + X O * < J &.$X&X&X&X&X$X{ / s._.A.a.e.).pX9XxXvXvXaX5X7XcXVX",
"F Y 9.{.sXpX_.s.) W ..&X$XL K B O X @ d l.[.<X XiXhXrXV.f f u.'. Xm.f j 7 6 z $.I.I.L.b 7 & O + + + + 6 5 6 > S K &X%X..&X%XX./ s./.b.a.e.M.uX8XmXBXNXxX5X4XhXlX",
"F R t.{.4X:Xp./ ! ' =.%X=.H , $ + + r 9.n. X<X4XkXBXBXhXZ.y.r.S./.h.d @ 2 X * j M L.L.j O X   X X O 6 8 9 7 * > A ....K ..$X;./ s./.n.a.8.g./.1XcXMXBXkX4XiX X^.",
"F Y 9.]. X).) W =.%X$X=.F V 5 7 j g y.c./. X<X4XdXnXBXmX1Xl.e.n./.h.d @ X   X O @ p x 7 $ $ $ # & 5 7 7 7 7 5 * > S F H J J Q g a./.M.y.f g d.D.rXkX8XpXoX_.M.m.",
"F R 9.).`.m./ D %X%X=.F < & 7 j g V.].F.m./. X XqXqXvXlX5Xv.u.n.~.j.d @ X     X . > Z V B C C C V 6 5 + + & 6 5 * : > B B > 1 g a.(./.p.s Y E d.Z.3X6X>X/.j.m.F.",
"J R 0.M.(.n.g U &.I S : & 5 7 p ) -X-XC.e.j.(.~.(..XuXqXH.t.) l.n.h.d @ . X . . < F &.J K ..&.&.K > # . & & & 6 7 & O . . . @ d a.(.(.s.Y { } s l. X4XoXb.0.v.;X",
"F R 0.M.`.b.h a V < : . O O * U o.N.V.c.g.k.~.`.qXfXyXH.d._ ^ ` s.w.f i O O O : F &.%X=.&.=.=.=.| S C S C V < * + O X X X X @ d g.(.`.f.Y  .{ s f.<XsXoXb.w.g.A.",
"F R 9.b.(.j.f @ . o . . O & , F ..R t.k.n.k.!. XxXVXnXR.g W Q Y 9.w.f j 5 & > F &.%X%X=.=.=.=.&.&.| L ..L J G < & & + = & = ; u y.~.~.p.a [ { s V.1XhXoXj.t.9.t.",
"J Z p y.g.9.i + o O # - V A J &.[ U t.). X^.n. XxXVXxXV.t : 1 s h h j 7 * > G =.&X%X%X&X&X%X%X%X$X&.&.K K ..=.J C C S F F S Z ; d h.u.g Z I  .T V.<XeXA.) ~ ~ W ",
"A , + d g p * , = = > S J ..=.%X .a d. X6X>X!.[.eXgXrXD.9.a i s d k * 6 < G =.&X%X%X%X%X&X%X%X&X&X$X=.=.=.-.&X=...J K &...K G < a d d i , F W g C. XwXx.g ' K K ",
"$ # . @ ; 1 C A S V F &.&X&X&X&X .a t.:X8X6X:X^.S.m.J.J.J.) d p k 4 $ , F &.%X&X%X%X%X%X%X%X%X%X&X&X&X&X&X&X&X&X%X..&.=.=.&.K H 1 ; ; 5 $ , 1 g c.oX_.p.g ......",
"# # # # , F K I [ &.=.%X&X&X%X%X{ a t._.6X9X5X>Xb.0.r.J.,Xx.d j 3 O , F =.$X$X%X%X%X=.%X%X&X%X=.$X%X&X&X&X&X&X=.=.=.&.&.&.=.$X$XJ : & O 5 6 @ p y.n.n.) U ....L ",
"B B S C A K =.=.=.%X=.=.%X%X%X=.[ a t.~.wXaXhX6X).y.9.r.C.d.k 4 # , F &.$X$X$X$X%X$X$X%X%X%X=.=.=.$X=.=.%X&X%X-.=.%X=.&.=.%X&X&X=.A , & 5 4 3 @ g y.t._ { =...L ",
"J &.$X$X&.I =.=.%X$X&.&.=.&X%X$X*.~ ) c._.wXpXkX2XC.8.f d p 5 3 - C =.%X$X$X$X%X$X%X&X&X=.I &.$X%X=.&.I =.&X%X%X%X&X&X$X&X&X&X&X%XI A , * 5 3 o r s Y ! &.[ L L ",
"I =.%X$X=.K K &.&X&X&X%X&X%X=.%X&X;.^ ) h.(.uXzX5XS.8.t @ 7 5 3 - C &.%X%X&X&X&X%X%X%X$X..K L ..&X&X&X%X%X&X=.&X&X&X&X&X&X&X%X%X&X%XL S : 5 3 X @ @ ; : , < S J ",
"&.=.%X$X=.=.I =.&X&X&X%X&X%X%X&X&X-.] _ x.M.).wX{.B.g ; O 3 6 6 < H =.%X$X%X&X%X&X%X%X$X=.=.L =.&X&X&X%X&X&X=.&X&X&X&X&X&X$X=.%X&X&X$XL F < - = * : = = # o , C ",
"L =.%X&X&X&X%X&X&X$X=.&.$X&X&X&X-.Q _ B.H.A.w.c.d.^ W , X O 5 < J =.&X$X=.$X%X%X$X%X&X&X&X&X&X%X&X$X=.&.=.&X&X&X&X%X%X%X%X&...$X%X&X%X&X=.J S S S S A B : & . . ",
"L I %X&X%X=.%X%X%X%X=.&.$X&X&X&XL U ` D.-XD.y.w.) W F B . o < J =.$X=.-.$X&.....=.$X$X&X%X=.%X&X%X%X=.&.$X&X&X&X$X=.&.=.%X&X$X=.=.&X&X&X&X=.&.&.....K L G : # . ",
"L L %X&X%XI $X%X%X$X=.&.$X%X%X$X&.Q _ B.H.].v.e.g Z B $ . : F =.&X$X=.&X&X=.=.=.%X%X$X&X$X&.$X%X%X=.=.&.=.%X&X=.=.$X=.=.&X&X$X=.$X&X&X&X&X$X%X&X&X$X..&X$XF C B ",
"..$X&X&X%X$X&.%X&X$XL ..&.&.....=.-.[ ~ f._.oXv.h @ . X = S L $X%X%X&X&X&X%X&X&X%X&X&X&X%X=.=.$X*X=.&.&.&.=.&.&.=.%X&X&X$X..| %X&X$X&X&X&X=.=.%X&X&X&X*X&X..L L ",
"L ..&X%X$X=.$X$X$X$X=...$X%X=.=.$X%X' U p./.`.c.h @ X X $ S =.%X&X%X%X....&X*X&X%X%X%X%X$X=.$X$X$X$X=.I $X%X=.=.$X%X$X=.$X$X$X%X=.&.%X&X&X$X=.%X&X&X%X&...&X%X$X",
"L L $X$X$X$X&X%X=.%X%X&.$X&X&X%X%X%X' U p.~.(.j.f r o X = F =.%X&X&X$XL ..&X&X%X$X-.=.=.$X$X%X%X=.&X$X=.%X&X&X%X%X&X=...-.&X&X$X=.=.$X&X&X%X$X&X&X%X=...L &X%XL ",
"K ......$X&X&X&X&X&X&X&X&.=.&X%X%X&X[ R s.M.(.h.h r 3 o & S =.&X%X$X..$X%X&X$X$X$X=.=.=.%X&X&X&X&X&X&X&X=.&.&X%X%X&X%X$X$X$X=.&.=.$X=.%X&X&X%X&X%X$X$X$X%X&XL K ",
"L L ....=.&X%X%X&X&X&X$X=.=.&X&X&X&X' Y h.(._.k.9.k 3 2 : F &.&X&X&X$X%X&X&X=.L $X=.| ..=.&X%X&X&X&X&X$X&.=.&X&X&X&X%X%X&X$X=.&.=.$X=.=.=.=.$X&X&X%X$X$X&X*XL K ",
"L L L L ..=.=.$X&X&X$X....%X&X&X%X%X' R s.(.(.j.h i 6 , S K =.%X&X&X%X%X&X&X$X&.%X=.| L &.=.=.$X&X&X%X&.=.%X&X&X%X%X-.$X&X&X$X=.$X&X$X=.&.=.=.%X&X&X%X%X&X&XL K ",
"..L L L ..L =.$X%X&X%X$X=.$X%X$X&.&.J U ) c.M.a.d @ V H ..%X%X=.L ..&X&X&X%X%X&X&X=.K &.&.I =.$X%X&X$X$X=.$X%X=.&.&.&.=.&X&X%X$X-.&X&X&X-.%X&X=.....&X&X&X$X..L ",
"K L L L I I ..................&.I ..L ' ~ t.y.g i : F K =.=.$X=.L K =...L L &.$X=.&.L &.I &.....&.I ....&.&.=.&.&...&.&.=.=.=.$X=.=.$X=.&.=.=.=.K L $X..L L L L ",
"H J L L ..&.L L K J K L L L K L &.....L S T f t : B H &.L L ..&.K J L K H K L L | K L L L ..L L K K K L L L K ..&...=...K K L =.&.| L L &.I &.&.J J L K H K H H "
};
