/* XPM */
static char *Group_10_14__resized[] = {
/* columns rows colors chars-per-pixel */
"80 80 252 2 ",
"   c #0B0F14",
".  c #1A1617",
"X  c #1C1B19",
"o  c #231C1B",
"O  c #281A18",
"+  c #351D18",
"@  c #1E2617",
"#  c #1F3218",
"$  c #24241B",
"%  c #272819",
"&  c #372716",
"*  c #253517",
"=  c #283818",
"-  c #2A3B1A",
";  c #383717",
":  c #1C1920",
">  c #271E22",
",  c #361E22",
"<  c #2D2223",
"1  c #292526",
"2  c #322424",
"3  c #372828",
"4  c #3B2C2D",
"5  c #36322E",
"6  c #3C352A",
"7  c #382E32",
"8  c #4A1D15",
"9  c #571E1A",
"0  c #472718",
"q  c #592817",
"w  c #483916",
"e  c #5A3815",
"r  c #662917",
"t  c #782A13",
"y  c #693715",
"u  c #7C3415",
"i  c #743917",
"p  c #7B3B15",
"a  c #482A25",
"s  c #562B25",
"d  c #48332D",
"f  c #58362A",
"g  c #482E30",
"h  c #443332",
"j  c #483534",
"k  c #4C3A36",
"l  c #4D3B3A",
"z  c #583B32",
"x  c #523E3B",
"c  c #673628",
"v  c #65392F",
"b  c #763C26",
"n  c #2A4617",
"m  c #2C4319",
"M  c #364A18",
"N  c #2E5219",
"B  c #32541A",
"V  c #3B5219",
"C  c #355C1B",
"Z  c #3C5C1A",
"A  c #36621B",
"S  c #3B641C",
"D  c #3C6C1D",
"F  c #3F711F",
"G  c #3F7220",
"H  c #4B4315",
"J  c #474B16",
"K  c #5B4415",
"L  c #564817",
"P  c #5B4C17",
"I  c #475317",
"U  c #445518",
"Y  c #4B5518",
"T  c #445C1A",
"R  c #4B5C1A",
"E  c #5D5319",
"W  c #575819",
"Q  c #684916",
"!  c #7D4316",
"~  c #764917",
"^  c #675618",
"/  c #765617",
"(  c #43641C",
")  c #4B641C",
"_  c #416C1D",
"`  c #4C6B1D",
"'  c #54671C",
"]  c #41741F",
"[  c #4A731F",
"{  c #42781F",
"}  c #6E641A",
"|  c #4E433B",
" . c #55413D",
".. c #5A453E",
"X. c #6F4F2F",
"o. c #774829",
"O. c #774734",
"+. c #427620",
"@. c #497620",
"#. c #457C21",
"$. c #497C21",
"%. c #493C43",
"&. c #594746",
"*. c #554848",
"=. c #644E48",
"-. c #69544B",
";. c #725C4F",
":. c #685651",
">. c #716256",
",. c #7A6558",
"<. c #685A60",
"1. c #786B67",
"2. c #843414",
"3. c #8C3411",
"4. c #843B15",
"5. c #893817",
"6. c #8C3B15",
"7. c #973A17",
"8. c #933D15",
"9. c #A23D14",
"0. c #834216",
"q. c #8A4517",
"w. c #834C16",
"e. c #8C4B19",
"r. c #934316",
"t. c #994818",
"y. c #885518",
"u. c #995718",
"i. c #A44817",
"p. c #A34C19",
"a. c #AB4C1A",
"s. c #B14C17",
"d. c #A75617",
"f. c #AC531A",
"g. c #A45B1A",
"h. c #AD5B19",
"j. c #B25816",
"k. c #B4541B",
"l. c #BA551B",
"z. c #B45B1B",
"x. c #BC5C1C",
"c. c #9B6518",
"v. c #AD621A",
"b. c #A86618",
"n. c #B5631A",
"m. c #BD631B",
"M. c #B76B18",
"N. c #BB6C1A",
"B. c #AB7318",
"V. c #B97419",
"C. c #86482B",
"Z. c #945226",
"A. c #884933",
"S. c #885735",
"D. c #975833",
"F. c #A5582E",
"G. c #936C35",
"H. c #A86B26",
"J. c #A66335",
"K. c #B17531",
"L. c #C0551D",
"P. c #C25C1C",
"I. c #C56817",
"U. c #C4631D",
"Y. c #CA651E",
"T. c #C46A1C",
"R. c #CA6C1D",
"E. c #D06E1F",
"W. c #C4741B",
"Q. c #CD731D",
"!. c #C77A1A",
"~. c #D1751E",
"^. c #D47B1E",
"/. c #D97D1E",
"(. c #CC6620",
"). c #CC6A20",
"_. c #D06720",
"`. c #D16D21",
"'. c #CC7A28",
"]. c #D47421",
"[. c #D77723",
"{. c #D57B21",
"}. c #DA7B21",
"|. c #E27E23",
" X c #996E49",
".X c #997648",
"XX c #8A6B51",
"oX c #8C7765",
"OX c #877568",
"+X c #478022",
"@X c #498423",
"#X c #4C8A24",
"$X c #B4893F",
"%X c #CB871B",
"&X c #D5831D",
"*X c #D9851E",
"=X c #D68B1C",
"-X c #DB8C1D",
";X c #DE921D",
":X c #D9961D",
">X c #E08A1E",
",X c #E1951E",
"<X c #E39C1D",
"1X c #E89E1F",
"2X c #E5A21D",
"3X c #E9A51D",
"4X c #E5AC1D",
"5X c #EBAC1D",
"6X c #F0AD1D",
"7X c #EDB31F",
"8X c #F4B81E",
"9X c #DA8321",
"0X c #DC8B20",
"qX c #DA8528",
"wX c #DA9426",
"eX c #D29531",
"rX c #E18A22",
"tX c #E39421",
"yX c #E49B21",
"uX c #E79B24",
"iX c #E69C34",
"pX c #D7A136",
"aX c #E6A222",
"sX c #EAA422",
"dX c #EBAB23",
"fX c #E9A929",
"gX c #F1AA21",
"hX c #EEB325",
"jX c #EDB42A",
"kX c #F2B626",
"lX c #F3BB23",
"zX c #F3BB2B",
"xX c #E9A937",
"cX c #EBB43A",
"vX c #F3BC32",
"bX c #F3BB3B",
"nX c #F6C42B",
"mX c #F5C334",
"MX c #F8C738",
"NX c #FACC3B",
"BX c #FCD23A",
"VX c #B28B4C",
"CX c #A48B6A",
"ZX c #C79A46",
"AX c #C29552",
"SX c #CEA14A",
"DX c #D9A745",
"FX c #E6B242",
"GX c #F9CC44",
"HX c #FCD64B",
"JX c #FEDB53",
"KX c #FEF053",
/* pixels */
"N A ] F F F F F { D D { { { { F G +.+.F D D F #.#.] H y a.(.}.tX2XhXNXHXGXkXhX5X;X&XR.P.l.u.P T ] D D ] +.+.+.{ F A Q r.~.tXuX1X2X5X3X,X-X-X;X;X^.P.i.y V { D C ",
"S D ] F +.+.F F F F F #.+.{ { F G +.{ F F F +.+.F D H p l.`.9X0X,X5XMXNXNXkX7X3XyX{.Y.a.q.~ Y S F F F { +.+.+.F D D L ~ v.^.tX1X3X3X:XwX0X*X9XqX0X[.m.~ L ( D D ",
"{ { ] { +X#.F F F F { +X#.#.+.+.+.+.G G F +.#.+.F _ H p x.[.}.[.*XyXfXzXlX5X3X<XtX}.z.2.e V D D F F { +X#.#.+.+.{ { Z J ~ h.*X,XyX<X;X-X-X&X{.[.iXxXpXV./ J D F ",
"] { @X#X@X+X+.+.{ { { +X@X#X#X#X@X+X+.D #.@X#X@X+X{ T Q t.x.`.]./.-X<X2X2X;X-X-X}.`.k.i L { { { { ] { +X@X#X#X#X+X#.F S Y / u.W.^.&X-X;X;X-X^.9XcXBXnXaXM.i J D ",
"F { +X+X@X#X@X+X+X#.+.@X#X#X#X#X@X@X@X@X#X#X#X#X#X@X[ ) Q u.L.).).].-X=X&XW.R.~.[._.a.y Y @X@X@X@X{ #.@X#X#X#X@X@X@X@X{ +.Y ~ g.).~.9XwX<X,X-X0XxXnXnXtXn.y J F ",
"F ] { { +X#X#X@X@X@X@X@X#X@X#.#.@X@X#X#X#X#X#X#X#X#X#X{ I 0.a.x.x.P.^.9X~.x.P.Y.`.x.t.Q R @X#X#X#X@X+X@X#X#X#.#.@X@X#X#X#X` E g.).}.qX0X3X5X<X<X<X2X;XW.e.L T F ",
"D D ] { $.#.#.#.#.+.+.+.+.#.@X@X#X@X#.+.#.#.+X+X@X#X#X{ I p 7.3.3.8.N.0XtX~.R.P.L.t.Q ) +.#.#.#.{ { { +.+.#.@X@X@X#X+X] I ^ b.wXxXxXqX9X;X5X5X2X<X-XT.y.E ) D S ",
"D F { { #.{ { ] G G F G G G #.@X@X+X#.#.#.#.+.+.{ #X+X) K q.t.t.t.u.N.!.*X&XY.s.r.Q I #.+.+.G +.F F F F F F #.@X@X+X+X_ w ! V.jXMXGXiX^.:X7XlXkXdX&Xd.y M Z D A ",
"D D { +X#.F F G G F F G F F D +.+X+X@X@X@X$.] D #.+X( L u i.m.%XpXeXK.b.x.Q.x.r.K U _ #.#.G D G F G G F G G D +.+X+X@X@.e q.!.6XnXnXuX-X,XkXMXNXzX:Xu.t 0 J Z D ",
"D F { #.#.+.F G F G +.F +.#.G +X@X@X] _ #.#.#.#.{ ` ^ u.s.x.~.fXMXcXH.q.9.(.k.0.Y S +.+.+.+.+.D D G G F G #.+.@X#X{ ] ) Q u.R.*X>X-X9X&X-XjXMXNXzX:XM.d.Z.y.W Z ",
"F F +.+X+X+X+.G +.#.#.+.#.+X@X#X#X#.) P ' [ #X+X) ^ c.!.*X~.}.dXBXjXH.r.7.P.k.p R D +.#.@X@X+.+.G #.+.#.+X@X@X#X@X{ R ^ c.N.R.U.I.I.W.^.-XaXjXvXdX,X%XwXpXeXy.K ",
"{ { +.#X#X#X#.+.+X@X#X#X@X@X#X#X$.) / u.Q ' @X{ Y 4.!.sXfXrX[.9X2X2XV.p.p.k.p.4.R D +.#X#X#X#.#.@X#X#X#X@X@X#X#X@X_ Q t.W.*X~.P.l.P.Y.~.*X-X,X<X;X;X<XnXBXcXK.2.",
"D F { +X#X#X#X+X+.+.@X#X+X+X#X+.T Q b.%XB./ ( F W p W.dXMXbXwX].:X2X;X!.d.8.3.4.Y S +.#.#X#X#X#.G +.@X#X@X#.#X@X+.] Q 8.U.[.9X~.Q.~.-X;X,X*X*X^.*X;X,XhXlXfXn.u ",
"D F { #.@X#X#X@X{ G #.#X+X#.#XF T ~ V.=XV./ U ) ^ q.W.4XMXNXxXqX;X3X6X=Xn.3.3.p I D #.#.@X#X#X@XG +.#.#X#.#.#X#.+.+.W i p.(.9X,X;XyXhXjXsX-X~._.~.^.*XyX3X,Xh.u ",
"{ { @X#X#X#X@X@X#X#.#.#X@X#.+X@X$.R y.g./ Y T Q y.N.:X5XlXvXbXcXfX5X7X<XW.9.7.p Y _ @X#X#X#X@X@X#X#.+X@X@X#.@X#X#X#._ I y d./.1X5XhXMXNXvXyX^.Y.P.P.R.0X1X-Xh.2.",
"D { #X+X#X#X@X@X#X#X@X+X@X@X@X#X@X] Y P R Z U w.z.=X<X3X5XkXMXGXNXmXlX5X*Xx.9.p Y +.#X@X@X#X@X#X#X#X@X@X@X@X@X#X#X+._ S I ~ u.^.<XdXMXNXnXaX/.Y.P.P.P.`.~.N.y.Q ",
"] { @X#.#.#X@X+X#X#X@X+.#.#X#X#X#X+.S V D S Y e.Y.0XyX<X<X7XMXJXHXGXnX5X,XQ.f.4.I G @X+.#.#X@X@X#X#X@X+.#.+X#X#X@X#.+.G D U Q z.&XaXzXzXjXtX^.(.U.(.P.L.k.y.^ V ",
"{ #.+.F { #.#.+X#X+.D G G G #.#X#X#X#.#.#._ W e.m.9XtX-X-XaXcXHXHXGXvX5X<X-Xm.q.L T G G G #.#.@X@X+.G G F { +X#X#X@X+X#.#.S L t.Y.tX2X2X-X^.R.~.]._.P.i.p L ( _ ",
"] #.#.+.+.+.#.#.#.+.+.+.G G #.#X#X#X@X@X#.D I 0.k.Q.*X*X&X0XxXGXGXvXsX<X,X-XT.a.q.Q T D G #.+.#.#.+.+.#.] _ { @X#X+X@X+X{ S J q.x.{.>X-XW.R.R.*X}.(.l.4.L Z _ { ",
"D #.#X+X#.#.#.#.+.+.#.@X+.G @X#X#X@X@X@X$.D T ~ t.l.~.^.~.9XxXMXnX5X,X-X*X*X~.R.x.u.^ ` +.#.#.+.+.+.#.@X] { @X@X$.` $.#X$._ Y ~ p.U.~.].U.Y./.-X'.z.e.Q Z D { { ",
"+.#.+X#X#X#X@X@X#.+.+.G D +.#X#X$.@X@X#X#X@X$.) Q q.a.P.^.<XhXjXhX3X<X=X^.].*X,XaX%Xc.Q ) @X@X@X@XG G G G +.#X[ U K ' #X#X#X[ R ~ t.k.P.Q.*X0X&Xx.e.E [ +X{ { { ",
"+.#.@X@X@X@X@X@X#X@X#.#.#.$.#X#X@X#.#.@X@X@X#.#.W p t.P.-X5X8X7XkXjXsX,X/.^.-XsXlX2XN.~ H ) $.#X#X@X#.+.#.#.@.' y.c.} ' { +X{ _ P 6.i.P.^.tXyX~.p.y ( +X#X@X{ { ",
"] #.#X@X@X@X@X#X#X#X#X#X#X#X#X#X@X+.+.#.+.+.+.$.W i a.~.2X7X8X7XvXmXzXaX-X*X0X2XlX3XV.3.r L ` @X@X#X#X#X#X$.T / V.%Xc.P T D { ] E 5.a.Y.0XtX0XR.i.y ( { #X+X{ { ",
"{ { #.@X@X#X@X#.@X@X#X#X#X#X#X#.#.+.+.+.+.#.#.) Q 4.z.*XsX5X2XyXFXHXMXdX-X*X9X,X8X<XM.8.t.b./ ) +.@X@X#X#X$.J ~ c.B.y.e U ] $._ E 8.k._.rX^.T.k.h.u.E ( { +X{ { ",
"] { +X@X@X@X#.#.@X#.#.#.@X#X#X#.#.@X#.+.{ [ ` Q y 2.f.~.rX,X*X9XcXHXNXhX-X{.^.0XuX&Xg.r.v.%Xu.^ T +.#.#.+X] ; w y P e 0 C +.@X_ E r.z.].}.).f.t.V.V.y.E ( { { F ",
"D #.@X#X#.G +.#.@X#.+.G #.#X@X@X#X#X@X@X@X) L y r r 6.j.R.~.~.].iXMXNXjXtX^.^.^.^.N.t.C.b.%Xg.~ M _ #.D ] A m 1 1 1 1 % m G $.+.E 6.k.`.}.(.h.g.%X%Xm.~ J { { ] ",
"] #.@X+X+.D F G #X#X#X@X@X@X@X@X#X#X#X@X' P q & O + q 2.s.P.Q.9XuXjXNXNXvXyX~.P.a.r.A.O.X.~ r ; B #.#X#.N = 6 *.:.:.&.| 5 M S G W r.k.).}.0X:X%Xb.d.7.~ U @X+X{ ",
"] #.$.( U V U Z +.@X#X@X@X@X@X@X#X#X#X$.I e q 2 o + r q.j.R.^.0X,XfXvXNXvX3X*XI.9.5.v -.-.v X.H U C D C - 2 | ;.OXOX,.-.4 - N D ^ 8.k.(.].0X2X:XV.t.7.~ Y { { { ",
"D { ` K e e y e T +.+.+.@X@X#X#X#X@X+X{ M ; a k s r e.N.-X,X,X-X-X,XdXkXjXyX,X~.i.2.O.>.>.>.VX.XE - % % 2 h =.;.,.,.,.-.h - N D E q.l.Y.U.Q.-X<X=XT.j.Q J { { ] ",
"A T ^ c.h.b.M.H.X.R D +.@X#X#X@X@X#.D B - 5 *.=.O.u s.*X3X3X<X-X=X;X<X<X-X^.Q.N.g.C.XXOXCXCXAXSXG.^ ; 2 h x =.-.;.;.;.&.4 6 A A E 2.m.]._.U.Y.^.^.M.w.E _ { { D ",
"M P u.%X,X;XjXpXK./ R D +.@X@X@X#.#.B * 5 | >.,.S.7.k.~.1X1X<X,X<X<X2X;XQ.P.j.u.D.XX1.CX1.CXCXVXVXK.X.k k  ...&.=.=.=. .3 = B D ^ r.T./.~.P.P.x.j.u.E ` { { F F ",
"; ! I.4X8X8XBXNXbXK./ T D +.+.+.#.+.n o 5 ;.CXCX XA.t.k.E.*X,XuXhXlX6X,X~.L.7.2.-.1.1.1.1.1.<.CXSXFX$X&.l x x  .&.=.=.k 2 % = U } h.N.W.~./.Y.s.7.i ` +X#X#X{ { ",
"; ~ U.,X5X8XlXnXMXxXK.~ W ] { +X+X{ n X 7 ;.VXSXAXXXA.8.s.Q.,X5XmXNXvXdX>XW.i.2.X.-.>.>.OXOX<.XXZXFXVX-.x x x x &.x ..k 1 o & ~ V.%Xb.d.N.9X[.x.7.i ( ] { @X+XF ",
"e w.m.^.,X2X3XhXvXxXeX6.W ] @X@X+X{ m @ |  XVXSXVXoX=.b 8.j.!.%XcXNXmXdX-XW.u.p ..=.;..X.XVXXXVXSXpXVX:.&.x x x x x k h = % w y.V.%Xb.d.N.9X9X(.a.! T S ( ' ( U ",
"g.N.{.].{.;X3X5XaXqXz.2.L S #X@X+X+Xn $ / K.AX.XXX>.=...i 3.8.t.%XjXlX,XN.t.C.=.*.-.VXpXFXDXDXFXcXDXVX&.%.x x  .&.k a 1 n A ( I ^ d.N.!.^.{.].(.a.0.( F W Q y e ",
"~.-XtX0X*X0X2X5XxXwX'.d.^ R [ @X#X+XC M X.K.J.-.*.=...v r t r.b.V.%X0X!.f.2.v =.:.VXVXVXZXZXZXZXZXeXVX X=.l l  .x k 2 $ B F ] Z P r.m.{.[.].U.d.y.W T I Q i.d.u.",
"R.-XsXyX;X0X<XdXjXcXxX=Xb.^ R ] @X+X{ S P o.X.&.%.x v c t 3.g.!.b.d.m.P.a.u v :.VXVXeXVX.X.X.XXXXX.XVXK.S.&.l %.k h $ % A { $.D K 6.x.}.|._.d.p R Z I ~ t.].rX-X",
"w.b.*X,XtX;X;X2XvXNXMXhX^.d.L Z { { { _ B d d l *.x c 3.r.d.V.%Xb.d.x.m.f.5.C. X$XVXVX*.*.-.:.:.&.-.G.K.K.S...j 7 2 % - _ +X+X_ P 6.z.[.|.Y.r.q J U Q B.rXiXuXuX",
"e w.U.^.0X-X-XyXdXkXkXaXQ.e.H _ +X+X$.{ n % 4 l x z c 2.j.I.N.d.v.I.&XQ.f.6.F.K.K.XX-.*.*.:.=.*.*. ...S.K.VXX.g > $ m S { +X$._ P q.m.*X|.U.r.i y / b.:XMXMXiXrX",
"H w.m.~.}.^.&X0X<X1X,X!.u.~ T [ #X@X#X#.; & a f x k g i g.N.z.r.n.;XgX-Xv.6.H.K.O.&.%.=.:.=.-.=...l k  .G.K.G.X.< @ C @X#.#.#._ ^ q.T.^.Q.x.d.t.t.h.:XnXBXFXqX_.",
"g.N.,X,X-XQ.~.*X<X,XQ.p.^ ) { #X@X@X#X{ U e t t s g h g b r.f.x.Q.,X6X<XM.4.b X...x %.&.&....... .x l x ..S.J.D.f % N +X#.+X+XG E r.m.(.p.u.M.:X&X&X2X8XnXfX9X).",
"T.=X7X8XuXiXtXtX>XV.u.Q R ] @X{ #.+XF T ^ u.m.H.o.a , 8 q 5.k.].-XuX7X<XM.2.c x l x x x x x x x x  . .x l =.J.J.~ @ n G G #.#.D P 8.(.x.7.r.V.dX5X,X-X,X<X;X0X9X",
"^.<X8XlXvXFXbXfX!.u.Q T _ { { { +.+.U K u.:XcXpXJ.u q q r 2.k.0XuX6X8X2XM.u s x l x x x x x x x x  .x l 7 x J.J.o.% n D { +.+.A K 8.P.x.7.r.M.aXsX-XE.I.~.;X<X2X",
"^.<X8X8XnXNXMXsXV.p w [ @X#X#X#X#.U y 6.W.dXMXMXpXK.H.c.5.2.a.9X3X7X8X2Xn.t s k %.x ..x x x x x x x k h 7 h D.F.Z.& n A +.@X@X_ P 6.a.f.f.d.N.].~.R.U.I.!.:X<X<X",
"T.=XgX5XlXzXlXuXm.i H { #X#X#X#.) ~ Z.L./.uXkXnXvXcXFXpXH.r.i.~.*XuX6X<XV.2.s j l l x x x x x x j h h h 7 d S.D.A.w V +.#X#X#X] ^ 2.3.t.m.W.R.P.P.I.T.^.,X2X2XyX",
"t.m.*X,X<X1X3X,XN.! H ] #X@X+.R Q g.].rX0X*X-X5XnXHXKXHXpXg.i.j.Y.*X1X<X%Xu.i s j k l l k x x j h 4 4 4 z o.A.A.c a T @X#X#X@X_ P 2.t 5.N.*X/.P.P.R.-XaXjXzXfXfX",
"H 0.k.U.~.>XgX1X!.! w _ +.] U Q g.%XxXbXiX9X*X3X8XnXBXHXmX=Xj.r.a.).0X<X<X=Xb.i s g 7 h h h h h h 4 4 j S.G.O.d > % M +.#.#.#._ P 2.t 6.z.].*X&X;X<X2XhXMXHXGXFX",
"V L p i.I.>XkXzXwXc.~ Y _ S J w.m.0XvXMXxX>X=X2X4X4XmXBXMX2Xb.2.t.P.}.uX3X2XN.5.r a 4 4 7 4 3 7 5 d z O.D.D.c 2 @ - A +.#.#.{ S P 6.7.t.a.k.I.&X<X3X5XjXGXJXJXHX",
"D Z H q.m.<XmXBXmXwXb.Q R A M w.U.-XdXkXhXaX,X,X2X5XkXlXlX=Xh.2.t.Y./.uXaX;Xn.3.t r s 4 7 7 7 1 3 z O.J.S.f & @ m D +X+X+XG F A L r.k.z.i.7.i.I.*X<X3XkXNXJXJXHX",
"S A U ! v.;XzXBXMXdX~.r.e = & 4.P.rXaXdX5X<X0X*X;X2X<X=XW.j.d.p.l.R.}.rX&XI.i.8.a.u.y.c v O.S.O.h d C.J.O.3 : @ * C C C C C N M e 3.a.z.h.h.M.!.R.~.<X7XnXGXJXJX",
") S T ! h.=XgXzXlXyXT.r.q @ & p j.Q.*X>X<X,X*X~.9X;X*XI.p.t.i.m.(.).].).z.r.u 6.N.!.b.4.C.J.K.D.v z O.J.o.< . . @ - = * # # # ; e 3.3.i.V.:X:X:XR.R.=X3XlXmXGXHX",
"/ P w p a.Q.uX3X<XW.u.P ; * ; K ~ j.U.R.*X-X*X^.].^.^.U.j.d.d.x.).).(.a.5.q 9 r B.V.v.p b D.D.D.X.b A.F.v < . . . X + + o . . + q t t 8.!.hXnX4X^.I.=X<X5XkXzXNX",
"b.~ q u i.I.>X>XI.y.Q ` Z A _ T P q.i.l.*XyXaX*X~.Q.9X;X:X%Xv.t.z.U.l.6.9 , , a ! q.i a g f d f b D.F.D.s , . . . + q r 0 X   % q 2.t 3.N.yX8X5X:X^.*X;X3X7X7XhX",
"c.w.y 2.d.R.*XW.u.K T @X+X+X@XF I p i.I.uXzXkXyXQ.Y.&X3XnX4XV.4.a.P.k.u a 2 4 f r s 0 < 1 > 3 f A.A.A.c , o @ # & e e.d.i 0 @ & e 2.7.t.h.W.=X>X-X=X9X;X<X3X3X3X",
"W Y Y ! j.^.Q.u.P ( { @X@X+X+X{ R 0.z.;XmXGXNX2X~.P.R.,X8X2XV.6.a.P.k.u 8 3 v A.v a 2 1 > 3 v A.b g 3 , O % B C Y e.V.=Xn.^ M B L 6.k.z.p.t.s.U.`.^.*X-XwX,X,XwX",
"T S ) w.j./.I.e.J ] @X+X@X@X@X{ ' q.I.3XmXBXvXaX&XT.I.~.,X&Xb.3.f.x.k.u a g A.D.b g > < 2 g b A.v > . . O o - C ) / B.%Xu.^ S A P 6.x.U.i.5.3.s.P.`.{.0X,X-X!.N.",
"D D ) ! k.Q.P.e.J [ #X{ +X+X@X{ ' 0.z.wXjXkXdXtX=X^.R.U.P.P.p.3.f.(.k.u 0 a O.D.o.3 > < 2 3 c c a .   . > % 1 m C ( / c.^ ` +.S P r.U.U.i.t t 7.x.).].}.-X^.g.q.",
"+.D Y ! a.(.l.q.H ( F F F F { C ; r 0.v.=X,X,X^.*X>X~.U.l.i.3.4.p.(.k.u 8 3 c A.c 3 : 1 < 2 & + + . . 1 2 3 3 % = C R Y [ $.@X+.E q.U.W.f.2.t 7.x.`.`.[./.!.r.t ",
"F D Y ! a.(.l.e.H S { { { S B = % a c q.N.*X*X/.9X-X*XU.9.2.t 3.h.(.l.u 8 O a s 0 O . $ o $ o o . O O 2 3 3 3 < % - B ( G G #.( Q r.W.Q.d.u r 4.h.(._.[.~.Y.t.t ",
"F D R ! a.(.P.e.H S +X+XD N % % , a r 5.m.*X,X>X0X-X/.v.~ e e 3.k._.l.u 8 . O + O . @ * = * * * * % % < < < 2 < % $ m S C C C V K r.T.~.h.u e Q e.z.(.].[.R.t.t ",
"{ D U ! a.R.L.e.H D F D n # $ , a u 7.x.^.0XyX2XuX-XT.y.W ( W 0.k.Y.k.u 8 . . . o $ = D +.+.F _ F C = $ o o o O < < % % $ @ @ % q 8.m.R.k.Q Y ` ^ r.x.[.rX~.u.u ",
"{ D Y 0.l.`.P.t.w M N n % X : O q 3.l.`.}.9X=X-X,X-XU.w.U D ' p q.t.r.u 8 O . . @ m D +X#X@X@X#X@XF C m = m m = % < O . X . . O r 7.U.Y.k.Q T @.P 4.l.[.rX/.a.2.",
"F D R 0.s._.P.6.q % # % $ X @ < q 5.f.).[.].R.Y.^.-Xm.w.M S W p r 0 r i q , : O m S @X@X@X+X@X#X@X#X{ { _ { { C m < $ X o X X + q 8.P._.k.Q V +.P 4.x.].}.R.p.2.",
"{ F Z y q.s.i.i & o X o $ * n m M Y ~ t.l.(.Y.R.Q.{.m.w.U D ' 2.0 + 0 s s , $ - D #.#.+X#X#X@X+X{ @X@X+X+X@X+X] C - = * = m m = 0 c p.l.a.Q Z _ P 5.x.`.Y.u.Q H ",
"D A n & r 4.y 0 $ X X $ m C D S S S P 0.a.l.R.^.{.].l.w.J C Y i q < < 3 & % m S #.@X#.@X+X+X+X+X#.+X@X+.#X#X@X#.F S A C S D D C M 0 r 8.r.Q V C K q.U._.k.i J Z ",
"N n * @ + 0 & * - * = = A { +X+X$.) ^ u.p.k.I.-X0X].l.4.w - M q s 3 1 > $ - D @X@X@X@X@X+XF G +X@X#.+.G #.#X@X@X@X#X@X+X#X@X@X+XC * 8 q r e ; m e 6.U._.d.e U F ",
"@ @ X . . O = V +.+.+.+.+X@X+X+.) ^ B.%Xn.t.d.&XrX).f.u 8 $ 1 3 4 3 > % m D @X#X@X@X@X@XG F F G #X#X#X@X@X@X#.@X#X#X#X#X#X#X@X@X#.S = % 3 < 1 % q 6.x.Y.d.y T F ",
"% * = - = n B ] #X#X#X@X#X@X+X#.' / c.!.d.t.u.Q.~.z.y.K & o o 2 2 < % m A @X#X#X@X@X@X@X+X#.G +X#X#X@X@X@X@X@X@X#X#X#X#X#X+X#.@X#X+XC = $ > > & 8 y t.l.a.Q R { ",
"C S ] { ] ] { @X@X@X#.#.+X#X#X#X+X` ^ w.6.r.f.Y.P.e.^ S N % > 2 < % m A #.+X+X@X@X@X@X#X#X#X@X@X#X@X#.+.@X@X#X#X#X@X+X+X+X+.{ +X#X#X+XS * 1 < 2 O + u 7.r.y R D ",
"S F { @X+X] @X#X+X@X#.+.+X#X#X#X+X+.) L y q.z.W.x.0.' G B * > 2 > % m _ +X+.#.#.#.#.@X#X@X#.@X#X@X@X#.+.@X#X#X#X+X+X#.#.#X#X@X{ #.#X#X#.A - $ 1 . o 8 q r 0 ; n ",
"F { @X#X+X{ +X@X@X+X#.+.#.@X@X#.#.+X{ S w w.m.^.n.0.' #.S % > 3 < % B +.#X#.#.#.@X@X@X#X@XG @X@X@X@X#.+.#.#X#X#.#.+X#.+X#X@X+X#.@X@X#X#X+XV = $ @ @ $ & & & O @ ",
"{ +X#X#X@X+X{ +X#X#.{ { +.#.{ { #.@X#X#.J ~ U.^.m.q.' +.A % o > % - D +X#X@X#X#X@X#X@X#X@X#.+.@X#X+.+.+.+.+.+.+.#.+X#X#X+X{ F #X#X+X@X#X#X] B = = = n n = # @ X ",
"F { @X+X+X{ +X+X+X+X{ { +X@X$.#.+X@X+X] J ! l.(.z.4.' S N % X $ M D +.+.#.#X#X#X@X@X@X@X+X$.+X+X@X@X+.G +X@X#.#.+X@X+X{ +X+X@X@X#.#.@X#X#X#.F D D _ D A A C - @ ",
"F { +X+X+X@X#X@X{ #X@X{ +X#X#X@X@X#X$._ J ~ l.(.k.4.H n ; & & n D @X+X{ F #X#X#X+X#.+X#.#.+X#X@X#.#X#X+.+X#X#X@X@X#X#.{ #.#X#X$.+.#.@X@X#X@X+X#X#X#X@X+.F +XC * ",
"D { { { @X#X#X#X#X#X#X#X#.{ #X@X+X#X#X+.J ~ l.(.k.5.0 & 0 w P { +X+X#.+X@X#X+X#.+X$.#.#.@X#X#X#X#X#X#X#X#.#.#X@X+X#X#X+X+X+X#.+.+.+X#.@X#X#X@X#X@X+X#.@X+X+XF A ",
"F ] { { { #X@X@X#X#X#X@X{ #.#X#X#X#X@X$.I ! m.Q.x.4.9 q y.c.c.} [ #.+X@X#X#X#.G +X#.+.+.#.#X+X#X#X#X@X+X+.#.#X#X#X#X@X@X#X+X#.+.#.@X#.#.#.#.#.#X#X@X#.+X#X#XF A ",
"F F F F { { +X+X#X#X@X{ { @X@X#X#X@X+X+.J w.N.^.n.3.r 2.M.&XB.Q R #.+X@X#X#X+X+.+X#.] F +.#.#.+X#X#X+X+X#.+X#X#X@X@X$.+X#X#X+X#.+X#X@X#.+.#.#.#X#X#X+X+X#X#XF D ",
"{ { F { F { { +X@X@X+X+X{ +X@X#.+.+.#._ I ! U.Q.z.2.r i b.V.b.L Z F @X#X#X@X@X#X#X#.F +.G +.#.+X+X#X+X+X#.+X@X#.+.#.+.#.#X#X@X+X+X#X#X@X#.@X@X#.+.+.#X#X#X+X+XF ",
"S F F F { F { { { ] { { { { { { +.+.#._ J ~ L.).l.5.q s y ~ ^ ) S D #.+.F F +.+X#.{ F F +.+.{ { #.F { { { { { { +.{ +.#.#.#.#.+X#.#.#.#.#.#.#.#.F D #.{ F F F F ",
"A A F F F { F F D D D F { ] D ] +.{ #._ H 0.L.(.k.6.0 3 & ; U { F A F D A D D ] F F F F +.+.D _ D D D F F F F F +.{ +.{ D D F #.+.{ G ] +.G +.+.D D F D A D A A "
};
