/* XPM */
static char *Group_10_4__resized[] = {
/* columns rows colors chars-per-pixel */
"80 80 245 2 ",
"   c #1E2C38",
".  c #24352B",
"X  c #283C36",
"o  c #2F5419",
"O  c #31561C",
"+  c #345C1D",
"@  c #37621B",
"#  c #39651D",
"$  c #3C6D1E",
"%  c #3F711E",
"&  c #2C4B24",
"*  c #2B442C",
"=  c #2D4A2C",
"-  c #304E2B",
";  c #2F5125",
":  c #325524",
">  c #355B23",
",  c #385E25",
"<  c #33542B",
"1  c #365B2B",
"2  c #395D2C",
"3  c #2C4434",
"4  c #2E4639",
"5  c #314C34",
"6  c #31463C",
"7  c #334C3B",
"8  c #345334",
"9  c #3A5C33",
"0  c #36523D",
"q  c #39583A",
"w  c #376121",
"e  c #3A6423",
"r  c #3D6C22",
"t  c #3C632B",
"y  c #3E692A",
"u  c #3F7021",
"i  c #3D6231",
"p  c #3D6439",
"a  c #41751F",
"s  c #437A1F",
"d  c #416A29",
"f  c #416C2B",
"g  c #427521",
"h  c #457B21",
"j  c #44732A",
"k  c #487A28",
"l  c #4A7C2C",
"z  c #446A34",
"x  c #4C7436",
"c  c #4E7D32",
"v  c #517B38",
"b  c #537C3C",
"n  c #29304E",
"m  c #2C3C48",
"M  c #2E3B54",
"N  c #313E54",
"B  c #313E5C",
"V  c #2E3A63",
"C  c #2E4245",
"Z  c #344C43",
"A  c #34494B",
"S  c #355244",
"D  c #3A5748",
"F  c #2F4051",
"G  c #324254",
"H  c #364A58",
"J  c #3B5452",
"K  c #3B545C",
"L  c #3D5B58",
"P  c #3E6446",
"I  c #374866",
"U  c #3A4B6B",
"Y  c #3C5463",
"T  c #3E5768",
"R  c #3C4D73",
"E  c #3B4A77",
"W  c #3E5273",
"Q  c #3F547B",
"!  c #465952",
"~  c #577A47",
"^  c #516E50",
"/  c #425D6D",
"(  c #505D6E",
")  c #435977",
"_  c #41557C",
"`  c #466477",
"'  c #506970",
"]  c #627866",
"[  c #46801F",
"{  c #478022",
"}  c #498423",
"|  c #4C8924",
" . c #4D832A",
".. c #4F8030",
"X. c #538336",
"o. c #5C8546",
"O. c #5E8051",
"+. c #61874D",
"@. c #658656",
"#. c #6B8C5D",
"$. c #6D935A",
"%. c #6D8965",
"&. c #728D67",
"*. c #76946A",
"=. c #728776",
"-. c #7D9677",
";. c #849C7C",
":. c #85A27C",
">. c #3A4984",
",. c #3F5084",
"<. c #414F8E",
"1. c #415382",
"2. c #465989",
"3. c #475B92",
"4. c #4A6589",
"5. c #566F89",
"6. c #4B6394",
"7. c #4E6A97",
"8. c #4C659B",
"9. c #536B9B",
"0. c #55769A",
"q. c #677591",
"w. c #4D65A3",
"e. c #4968A5",
"r. c #536DA7",
"t. c #5573A4",
"y. c #5672AE",
"u. c #597AA9",
"i. c #526FB0",
"p. c #5776B3",
"a. c #5B7BB4",
"s. c #5C7CBA",
"d. c #647CAC",
"f. c #5D7FC3",
"g. c #598299",
"h. c #738496",
"j. c #5D84AA",
"k. c #5E83B7",
"l. c #6288AA",
"z. c #6488BA",
"x. c #758FB2",
"c. c #6997B7",
"v. c #6FA2BD",
"b. c #5D86C4",
"n. c #648AC4",
"m. c #6589C6",
"M. c #668BCB",
"N. c #6B99C5",
"B. c #6A93CF",
"V. c #769AC7",
"C. c #688FD0",
"Z. c #6B94D3",
"A. c #6B95D7",
"S. c #6E9AD5",
"D. c #6E9AD9",
"F. c #719CD4",
"G. c #719EDB",
"H. c #72A9C9",
"J. c #74A8CB",
"K. c #77ABD4",
"L. c #73A1DE",
"P. c #7BB4D7",
"I. c #729EE1",
"U. c #75A5E2",
"Y. c #77A8E5",
"T. c #78A9E6",
"R. c #7AADEA",
"E. c #7DB6E4",
"W. c #7DB2ED",
"Q. c #7FB4F1",
"!. c #7EB9F1",
"~. c #849984",
"^. c #8A9897",
"/. c #8CA488",
"(. c #8FA58F",
"). c #95AA94",
"_. c #96A998",
"`. c #9CB29A",
"'. c #A4BA9D",
"]. c #8994B3",
"[. c #9BABA5",
"{. c #91AAB2",
"}. c #A5B6A8",
"|. c #A9B4B6",
" X c #AEC1AB",
".X c #B7C6BB",
"XX c #8A9AC5",
"oX c #90AFCB",
"OX c #86B9D9",
"+X c #AEB6CD",
"@X c #82BBE9",
"#X c #80B6F3",
"$X c #82BBF5",
"%X c #84BEF9",
"&X c #91C2D9",
"*X c #BBC7CA",
"=X c #87C7E7",
"-X c #97CBE7",
";X c #8DD3EC",
":X c #95D7EA",
">X c #88C5F4",
",X c #86C3FD",
"<X c #88C6FE",
"1X c #8ACAFE",
"2X c #8ED2FF",
"3X c #8ED9FB",
"4X c #94DDF4",
"5X c #91D5FE",
"6X c #94D9F8",
"7X c #94DCFE",
"8X c #B0CAE1",
"9X c #AAD7E9",
"0X c #9DE2EF",
"qX c #98E4F5",
"wX c #95E3FE",
"eX c #99E5FD",
"rX c #97EAFF",
"tX c #9BEBFE",
"yX c #9EF2FE",
"uX c #A6E8F6",
"iX c #A2EDFE",
"pX c #BCEAF3",
"aX c #A3F3FD",
"sX c #AAF4FE",
"dX c #A6F9FE",
"fX c #ACFAFE",
"gX c #B3F5FE",
"hX c #BBF7FD",
"jX c #B3FBFE",
"kX c #BCFBFE",
"lX c #C2CDCB",
"zX c #C7D4CA",
"xX c #CCD6D5",
"cX c #D3DCD9",
"vX c #D8E2DE",
"bX c #D4D9E7",
"nX c #DBE4E3",
"mX c #C9F3F7",
"MX c #C3FCFE",
"NX c #CBFEFF",
"BX c #D2FEFE",
"VX c #E5EBE8",
"CX c #E9EEF0",
"ZX c #ECF1F5",
"AX c #F7FAFC",
/* pixels */
"o @ a $ a a a a a # $ a a a a a % s % % % % % [ h % h % + O O O + + O O + @ O O o @ % % % % % % a % $ a % s s s % % s % % $ % h a a a a a # d a $ a s a a a a + ",
"# $ a a g h $ a a a a h h a a a % u s % % % % u % % % # O * * * = & & * & * * * & @ % % % s % % % % % s h % u % % s s % % % s % g a a a a g h h s s a $ a h a @ ",
"s a a s h h a a a a s { h h h a u s u u % % [ u u u $ > 4 N B G F N N M M M B G Z t % h { h % % % a s { { h h u h u % % % h h u a a a a a } | | } } a $ a h s a ",
"a s } | { h a h a a a h } | | | | } u u h } | } h u t D ) t.y.t.0.0.0.0.0.t.u.u.` D e h } [ s % h % s { } } | | } } % % h } | } { h h } h { h | | } } a s { s a ",
"a a { { | | { { { h h { | | | | } } { { | | | | u r D ` k.S.P.K.K.K.K.P.K.K.E.P.j.` S t u | } } { h h { | | } } | | { { } | | | } } | | | h h h s s | h h h s a ",
"a a a a h | | | | } { { | | s h } | | | | | | | r 5 W p.G.>X7X4XqXqXqX4X4XqXtXeXOXj.Q 7 e } | | } } { { | | { h { { | { | { | | | | | | { h h h a a | | | h a a ",
"$ $ a a h h h h h a g h g h { | } } [ h u [ } [ 1 C 3.M.$XqXdXdXyXyXtXtXdXdXjXhXuX=Xz.` D t u u h u h h u h } } } u > ; ; : u { } | } | { h a h $ a h | | h a # ",
"$ a a s h a s a a a $ g $ a h { } [ h h h u u u 1 C ,.C.!.qXiXtXeXeXwXeXtXfXkXMXkXuX=Xj.` Z ; @ % % % % % % h } u t 7 F F C < r h | | | | { { { a s { | | g # @ ",
"% % % { { % % % $ u % % % $ $ h } u { } } u u % + 5 W t.J.$X1X$X$X,X<X2X7XiXgXMXNXkXiXP.t.I 3 O u % u u % % $ % y D / 8.8._ J < $ } | | | | | | { | | | { a # a ",
"$ % s { { u % % $ a % $ h h u { u > : r | | h } g r D ` u.B.F.M.L.!.1X3X5X7XiXhXkXkXdX=Xp.E 4 ; % s % u u % $ > 8 ` l.K.OX].' D 1 s } | } { { } h g h { | h h a ",
"% % % } { { u % g h h h { { } { u S S S y } } | | h f P ) 3.8.3.p.K.>X2X5X5X7XiXfXfXaXOXu.U 3 : % [ s u [ u e S / j.OXuXpX8X{.5.J t h { s h } | a # # h | { s a ",
"s % u | | | { h { | | | { { } y P 4.7.` P u { u h | } d 3 m n m Y 0.L.$X,X1X5X7XtXyXqXP.9.I 3 @ [ | | | { y S 4.k.@XrXkXBXmX9XV.4.S t g a { | | h $ a | | g a a ",
"% % % [ | | | { % u } | { % e L 5.v.H.c.` D w g | | | h w 1 < 1 S / j.G.Q.1X2X5XwXeX6XK.8.B = # u h [ { i H 4.k.E.qXdXkXNXMXgX-Xc.) S > a } | | { h | | | h a a ",
"$ % s { } | | } s % { | { e & K t.=X;XK.4.J < g { | | } h g h g w S 1.s.Y.1X5X1X3X5X>XL.r.V 8 @ # % r e 5 H t.L.1XqXyXuXuXsXdXyX=Xc.) S t k | | | { | | { { h a ",
"% s { } | | } } | { { } { u ; J 7.K.E.H.4.S w a g h } } } | | h @ = V 8.K.>X5X1X<X<X<XE.N.5.J t # + : : = H 7.Z.W.>X@XP.K.@X;XaXtX=Xz.2.D t g g h h h h h | h g ",
"% h } } } | } } | | } { } { y p ^ 0.j.5.! 2 e # g h h h h { } } # = V r.L.2X7X1X<X,X<X1X@XH.5.L 4 m 4 = 1 p ^ 5.s.k.j.t.7.k.K.;XtX7XE.k.4.J 2 g h { { | | | { s ",
"$ s } u h | } } | | { u { } } { y K I J w u u [ g h h h g h h h w Z _ y.L.1X2X1X<X,X<X7XqX:Xv.7.E E R S y u t J W Q R U I Q t.J.>X7X1XL.z.U 3 d h | | | | | h s ",
"+ $ h $ % { h { | u % % % % } | { y 1 t u } | | | { | | | { g t S / 9.m.L.$X1X1X<X,X1XwXyXyX;XJ.k.H.].5.! > > < 5 5 5 = * 5 K 7.V.2X7X$XM._ C t h | | h h { h s ",
"8 t s h % % h h { % u u % % { | } u u u u { } | | | | | h g 2 Z ) 0.n.F.U.R.$X,X1X,X<X6XyXyXwX;X:X9X9X{.5.D ; > u e r $ + > 8 Y t.T.1X$XM.E C w a h } s a g a s ",
"Y P h h h h h h { u } { % % u h u u } } { { } } | | | | a # 5 I w.M.U.T.U.L.R.$X,X1X<X2X7XrXrXyXfXMXmX8Xz.W 3 r | } } } h $ > m 2.Z.#X#Xn.) 4 w $ s h { h a a a ",
"g.' 8 r h | } { { u u % % r e < X * ; r } | | { { } } | | r 6 E i.D.#XT.U.L.T.#X,X1X1X1X5X5XtXaXfXMXpX&Xd.U = $ { { } | | h 2 m <.Z.Q.R.M.,.C t h | | | | h h s ",
"K.0.H < g } | } | { { h % r 9 J R W K p u k { } } { { { { # 8 H 3.m.G.U.U.G.G.L.R.$X,X1X1X1X7XtXdXjXuX=Xz.) 7 e h h { } } g : C 1.b.G.A.a.R 7 e s | { | | { s a ",
";Xz.V 5 e { } } | | | } g p / 0.z.V.g.' 8 w u | | h h s a # > 7 / 4.s.Z.L.L.Z.n.B.L.!.,X1X1X3X7XrXyXrX;XH.g.! p r r g h h $ > 8 Y 9.s.p.4.G ; e a g a | | | s a ",
"-Xd.B = $ | } { { } { e 9 / g.K.:X9XoXh.Y 5 # } } a g h h g $ e - H 2.s.G.U.M.y.y.M.R.1X2X2X2X2X3XwXtXeX4XP.l.` Z > $ a a a s j p W 8.4.Y i $ % a a h h { { h a ",
"9Xx.U 8 w h h h h { r = G 4.F.;XgXmXpXoX0./ 2 j s % % g h g a $ ; C _ p.M.n.0.) Q 0.n.K.E.!.,X<X5X7XtXyXyX;XN.4.F < $ s h { } | f Z I H 8 e % % % % { { h { % # ",
"uXoXg.Y 8 + $ h } { e * U y.E.qXMXBXMXpXOX0.K p e $ % % % a $ > 0 ! 7.s.a.6.K 8 4 K 6.y.k.n.U.>X5XeXeXeX4XOXl./ 0 e j } | | | | h > = = > $ % % % % { } { { r + ",
"fX0XP.g.Y 3 O a | | g - I e.I.;XsXgXjXfXqXP.0.Y 0 w $ % $ # > 6 ` k.S.B.y.U q r e D U Q ,.3.m.E.eXtXwX=XF.0.L P j h } | | | { | { g # , # % h s s h h } } } y = ",
"jXdX4XP.0.I 5 e } | h 2 D ,.k.E.;X;XqXyXdX;XJ.2.A > g s r > 7 I p.T.>XR.z.Y 9 e e D W Q 2.3.k.F.=X>X@XB.7.T 8 j | | | | | { h { | | h a s h h } } } } s s j P T ",
"dXaXtX6XP.u.T q u h u u t D 4.k.M.n.K.;XrXwXE.w.H w h h d S U 8.A.$X2X1XK.5.P 1 8 ^ j.c.c.l.j.z.m.Z.m.6.K 8 h } | } { } { g a h } | | | | } } | | | } h w 8 ` j.",
"7X6X5XeX:XOXj./ 7 e u % k y D Q ,.E 7.c.=X>XS.2.A e s r 0 / r.m.Y.,X1XeXqXP.g.T / j.OX:X:X=Xc.7.>.<.1.H 9 h | } s h a s } | { s h | { { } } | | | } h # 8 Y j.P.",
"$X%X<XtXdXqXP.u.Y 0 y % { { t 7 F m I 7.Z.A.u.T 8 e y P Y r.M.U.$X,X2XeXdXqXP.j.j.P.qXjXjXqXV.1.n n m < d } { r , > > e h } { h h  .o.X. .} { | } } h w 7 E B.-X",
"I.T.,X4XtXeX1XK.t.T 0 > u u r w > e 9 Y t.9.` p w < S T 8.M.R.#X>X2X7XtXyXtX;XP.P.;XtXfXfX4XN.>.  . & g s a e = X m 4 < g a a | | ~ :.;.b j h } } | | e 7 1.x.8X",
"y.f.G.@X>X2X5X>XS.e.I = r } h s a h r 8 I K p j w * / 8.f.I.%X%X2XwXtXtXtXtXeXqXqXtXaXdXsXqXK.7.m = @ u { u 9 K ,.4.) L i % % [ v &.}._.o.k h } | | } > 3 R x.&X",
"_ 6.m.M.S.T.>X1XY.i.U 3 r | h y j { h e - - g s w X _ i.C.#X%X1X5XeXtXtXtXtXyXdXdXsXsXsXaX7X=Xc.` P 1 > e i L 5.c.G.l.4.D p X.o.%.;._.:.X.k } } | } h + X R l.oX",
"m ) w.w.r.f.Y.#XD.e.I - # u t 8 8 h } s d r g a @ 3 _ 8.m.T.%X%X2XeXtXtXtXrXrXrXaXgXkXgXaXwXwX=Xc.` Z . . C ` v.=X4X=Xc.W ! ] {.}.-.O... .| } | } } h # 3 U l.P.",
"- 6 H B I ) d.B.S.s.' q + 2 D U Y p j { s } h e < Z 2.y.M.#X%X,X2X7XeXtXtXtXrXyXsXMXNXhXsXiXaXuX;Xv.4.R U 4.c.=XyXfX0XP.7.2.q.+X`.@.k % h h h | | } h w 5 I t.P.",
"+ O . * . 7 ) r.V.XX].] q Z W 8.8.Y 9 j | | g < Z / r.m.G.#X,X,X2X7XwXtXrXtXiXsXkXNXNXNXkXgXkXkXdX=XH.k.k.N.=XqXfXkXsX=Xk.6.5.^.-...h h h g h { | | } # = I t.J.",
"a d + a w : m ) XX8XlX^.( U 8.k.k.3.J : } h t A _ r.M.#X#X%X1X,X1X7XtXrXrXtXsXhXNXNXNXNXMXMXNXMXkX0X;X=X;X;X4XeXdXfXqX@Xj.Q A z ..| | | } { | { a s } r 5 I j.H.",
"a a a s s a * ! q.+X+XXXq.w.m.I.U.m.4.Z 2 , 0 ) y.M.@X#X,X1X<X1X2X7XtXrXwXiXgXNXBXBXNXNXNXNXBXBXNXhXgXaXyXyXyXtXyXdX6XOXu./ . a { | { } h { | { a % $ 2 J 4.N.@X",
"a s } } | h d 2 ^ ] ].XXm.M.U.#X,X!.z.4.Z m ! r.Z.#X%X<X1X1X<X,X2X7XtXrXtXiXgXNXBXBXNXNXNXBXBXBXBXNXNXkXfXdXyXyXtXyX6XK.y.I * h | { { } } { } } a w < J 5.v.=X4X",
"+ a | k } | } a d A _ p.C.T.#X1X2X5X@Xz.) Q 6.B.R.%X1X1X1X<X<X<X2X7XeXrXrXtXgXMXBXNXNXNXNXNXNXNXNXBXNXkXsXyXtXrXtXeX>XU.s.W 4 u { } | } } h { { r 8 H 5.J.:XeXeX",
"a a s s s s s a +   V w.A.#X1X5X5X7X>XL.k.a.n.R.%X1X1X1X1X,X,X,X1X2X7XwXtXaXiXgXMXNXNXBXBXNXMXMXkXkXMXjXsXtXwXwX7X5X<XR.S.0.Y q e % h h u h u y P / 7.F.;XaXiXeX",
"a a a s h h a # ;   V w.A.$X1X5X2X5X1X$XT.L.R.%X1X1X1X1X1X<X,X,X<X1X2X7XrXtXtXiXgXMXNXBXBXNXkXsXiXsXsXsXaXtXwX3X2X1X,X,X!.S.0.Y 7 : # u u h r - T r.F.=XeXiX6X-X",
"a a } | } s a a - ! 3.s.M.U.#X$X<X1X1X1X2X>X<X<X,X,X,X1X,X,X1X,X,X,X,X2X5XtXrXrXiXgXMXBXNXMXgXaXrXwXwXeXtXwX5X1X,X,X<X1X3X>XA.y.T 4 y h } u w 4 _ s.Y.<X1X$X@X#X",
"a s h k } | } h z ] XXXXz.a.B.R.,X<X1X5X6X5X<X$X$X,X1X1X<X<X<X<X,X,X,X1X2X7XwXrXtXsXgXkXkXgXsXtXwX3X3X3X7X5X2X<X,X<X1X1X1X>XT.M.8.T D u h u e 1 L 7.n.L.U.B.M.M.",
"a a a g h | | l x (.lX+Xd.3.i.S.$X,X1X2X5X<X#XT.R.$X1X1X<X<X<X<X,X,X,X,X1X2X7XwXyXaXaXaXsXaXyXtXwX3X2X1X1X1X1X<X<X1X1X,X@XR.U.D.b.8.Y 7 e % h u 1 J 4.t.r.9.w.w.",
"@ + > t j l k j x ;.~.^.) E w.A.#X$X,X,X>X$XY.L.L.R.%X<X1X<X1X<X<X,X<X,X,X<X2X7XwXwXwXwX7XwXwXwX3X2X<X,X,X<X<X1X<X<X%XW.Y.U.T.W.I.s.>.F : $ s u e 1 Z G G G M ! ",
"o & 0 ^ =.;.;.*.~ b ^ ! I >.i.A.#XR.W.W.W.T.U.F.G.G.#X$X,X1X1X<X,X1X<X,X,X,X1X2X5X3X2X2X2X2X2X3X3X<X,X,X,X<X1X1X<X%XW.U.G.I.T.Q.U.b.>.m ; % { { s e > ; - & . . ",
"& X ) ].+XnXVX.X*.b # & N 1.y.D.#XU.I.Y.G.Y.U.G.F.G.U.#X#X1X1X<X<X<X<X<X<X<X<X1X1X1X1X<X1X1X1X1X1X1X,X,X<X<X1X1X,XW.Y.G.G.U.U.T.S.a.<.A 2 k | | | h h k h d @ @ ",
"! ' x.].+XbXAXVX|.#.d & ! ) 8.s.A.G.U.G.G.F.G.G.G.D.G.U.#X#X>X1X1X<X<X<X<X<X,X,X,X,X,X,X,X,X,X,X,X1X1X<X%X$X$X$XW.Y.G.F.G.G.Z.n.m.d.x.h.] b k | s a s h | h a a ",
"h.v.+XXX].XXxXCXVX'.;.~ ! A U 3.s.B.I.U.G.F.G.G.G.D.G.F.Y.#X%X%X1X1X<X<X<X<X,X,X,X,X,X,X,X,X,X1X1X1X1X,X#XR.Y.Y.T.L.G.L.U.A.s.e.d.].+XlX.X;.~ l a a a h | h a a ",
"oX9XpXoXq.3.].xXCXZXlX*.x 2 4 I 3.a.S.U.U.G.I.G.G.G.G.G.G.G.#X$X<X1X<X<X<X<X<X,X<X<X<X<X<X<X,X,X,X<X,X!.T.G.G.G.L.G.L.L.R.B.i.>.2.q.*XVXAXxX`.b # a a } | a a a ",
"OX9XMX:Xv.0.q.].+X+X[.+.j a e Z ) 2.d.B.G.G.Y.G.I.G.G.G.S.G.U.#X$X<X1X1X1X1X1X1X1X1X1X1X1X1X,X$XW.$X#XR.U.G.S.D.G.S.L.U.W.G.p.>.R ' ^..XVXCXzX).~ g } | | h a a ",
"K.-XgXsX;Xv.j.9.q.q.5.! d s h i G ! 3.a.B.G.Y.I.G.G.G.G.G.G.I.U.W.$X1X1X1X<X<X1X<X1X1X1X1X,X$XT.L.U.Y.G.G.G.G.G.G.G.L.U.W.G.b.,.I A ^ *..XVXAXcX/.+. .h h h a a ",
"V.P.;XaXyX;Xc.8.>.>.W S 2 g g f q N _ w.m.L.U.G.G.G.G.G.G.G.S.G.U.E.,X,X,X,X!.,X,X!.%X,X,X$XR.U.F.S.G.G.G.G.G.G.G.L.L.L.G.n.r.,.G = 2 ~ ;.cXAXAXcX).b j k c k j ",
"XXJ.N.=XqXqXE.B.i.i.e._ J 0 d f i m V 8.m.U.#XG.I.G.G.Y.G.G.F.F.L.U.W.W.W.W.W.W.W.W.W.!.#XR.Y.U.D.D.D.G.G.G.L.G.L.U.L.B.b.t.) Y 7 o + x ~.vXAXAXAXxX'./.:./././.",
"].h.7.n.@X6X1X#XI.I.b.e.U A 1 t 9 m _ w.m.U.U.I.L.G.G.L.U.G.G.G.D.U.U.U.U.U.U.U.L.U.U.U.U.U.G.G.G.G.G.G.G.G.G.G.L.R.G.M.y.1.H 7 2 e t ~ h.zXVXVXVXvXlX*X.X*X*X*X",
"^ D C Q s.U.@XU.A.C.k.3.I C 9 t 9 N _ r.B.Y.#XU.U.L.L.G.G.G.G.L.L.D.D.G.F.G.G.S.G.G.G.F.S.G.G.G.G.G.L.G.U.L.G.G.U.R.U.M.w.I X 2 f x ~ ] #.*.:.~.(.).}.}.}.}.`.}.",
"z t 1 H 2.s.p.i.e.e.3.Y S i y t q N 1.i.B.T.#X#XY.G.G.G.G.G.G.G.G.G.D.D.D.G.S.D.G.G.D.G.D.G.G.G.L.G.G.G.G.G.G.G.U.R.Y.M.w.I X < x ~ ~.;.~ b X.X.o.~ #.#.#.@.#.#.",
"% a j q K 1.1.1.<.<.W 8 > u u y q N _ w.m.G.Y.G.G.G.L.L.G.U.L.L.L.L.L.L.G.L.G.L.G.I.G.G.G.G.G.U.G.U.G.U.G.U.U.G.U.T.G.z.8.U C q ~ (.zX|.#.c {  .g u g h g e $ % ",
"s h h u 9 ! 5.].XX].q.p w u } y q 0 ! 2.r.s.m.s.M.S.U.R.T.T.T.T.T.T.T.Y.R.Y.T.T.Y.T.T.T.T.T.T.Y.R.T.T.T.Y.T.R.Y.U.G.z.6.W J ! ] [.nXAXVX}.$.l | | | | } } h s a ",
"% h } { d z ] +XbXbX}.~ u }  .j 9 9 Z ! _ 2.<.3.r.n.L.R.T.U.U.U.U.U.U.U.U.U.U.U.U.U.U.U.U.U.U.U.U.U.U.U.U.Y.R.Y.D.f.3.U Z q ^ ^.lXAXAXCXVX`.$.l { } } | | } h s ",
"% h } } h c $.'.ZXAXzX$.X.| { u d , 9 0 H B V V _ t.B.G.Z.Z.B.B.Z.Z.Z.B.B.Z.Z.C.Z.B.B.Z.Z.Z.Z.B.B.Z.Z.C.Z.Z.G.S.m.8.U m = 2 ~ _.lXcXlXxXvX.X~.~ l g a } | { s s ",
"a s h } | | c *.}.CXxX$.X.|  .u , d 2 0 Z Z Z A ! 2.y.s.p.p.y.y.y.i.y.y.y.y.y.y.y.y.y.y.y.y.y.y.y.y.y.y.y.p.p.p.8.) A 5 < 2 v @.&.%.@.@.&.&.;.~.%.v h } { { s % ",
"a s { { } { h c *.zXxX/.o.[ { h g r t 9 9 9 t 2 D H 1.2.1.1.1.1._ 1.1.1.1.1.1.1.1.1.1.1.1.1.1.1.1.1.1.1._ 1.2.<.) J 8 2 2 d j c l d d d d x @._._.&.c h h { s % ",
"% h | } h a g g b  XcX.X*. . .} h j d f j j j j i 7 N B B N N N N N N N N N N N N N N G N N N N N N N N N N B B H q d d d d g | { g a a $ # ~ ~.[._.+.c k h s % ",
"% h } h a $ $ % c }.CXVX.X:.v h | } { h } h a d t 8 7 6 6 6 4 7 7 0 7 0 0 0 0 0 0 0 q 7 6 6 4 4 q 0 0 q q 0 Z 0 D 9 z f j h { | | | g % $ % j X.%./.}.-.o. .{ s ",
"a s } { s s $ j o.).lXVXxX).b } | | } } { h g x z d 9 2 2 2 d 9 9 2 z 2 9 d 9 d 2 2 z 9 2 2 9 9 z 2 9 9 9 9 2 z t z d j j h h } | | h h h h { h X.*.}.(.+. .h % ",
"a h | | | | c ~ #.&.;.}.`.:.b } | } { } { j d ^ ~ z j u d g f f d f f t t d d d d d f f f f d d d d d , d d j h g g g g h s a } } | | | } | | | h o./.*.O.h s % ",
"$ g { | [ k *.).).@.b +.+.o...| { h h s }  .@._.(.] j e r d y d z d t z d , , , , d t z d t z d i d 2 2 2 z j h h g g a } | { s h | | | | | | | }  .X.~  .s % $ ",
"% a h  .c ~ ).}.(.o.% % s [ } h h h h { } X.%.lX*X(.@.~ ~ x z d d t t d d 2 z z z z d j d e t d d t t 2 2 d g g h l l k | } } s { | | | | { h | } { s { { h % % ",
"s s | v @.;./.;.o.h % a a s a a h { | | } k @.cXZXbX[._.[.=.^ f g h j h k f ] -.=.~ h h j e e g g d e # + d g a g b @.+.l a a } | h | | | h h { } } | | | } s s ",
"% s  .#._.}.-.~ h h h a { } h h { } { h s h #.xXAXZXvXvXvX_.@.l } } s a a g ;.}._.#.h s h g h s h h a d h h h s X.*.).).o.g } | h g } | | { h } | | } s s } } s ",
"% % l &._.`.+.h { | { h { } | } } } h g ..$.`.vXZXnX*X*XzX/.o. .} } } a a l $.).`.*.v k { h | { h } } a h | | { ..*.`.}.*.o.X.s h h { } | } { | | } { a s } } % ",
"$ a h x ~ o. .} | | | } s h | { { | { c %. XCXAXxX).%.+.#.o.c } } } s s { } c b %.*.&.b l | | | | | | | h s | h h c @.;._.~.@.j a { { } | } } | } { { { } | s $ ",
"$ $ g g k l h } | | | { h h } | } } k o.(.xXAXcX`.+.j u j u u | | } } } } | a d ~ /..X/.@.| } | | | } } h h | | | { k +._._.-.x a } h h { h { | | } { { | | % @ ",
"a a % % s h h { } | } h h { | } } X.@.*.)..X.X).@.k { % u u } | } } } } } } s a x '.ZX.X*.k s { | | } s s } | | | { s c -./.;.c s } h h h h h } | | { } | } s # ",
"a a % a s % h { } } } h h { } a v -._._.#.o.X.X.l } | | } | } [ a a } | | } }  .v '.CX.X*.g s { } } } [ s s { h g h a h X.X.v k { | | | { { } h a s | | | } s a ",
"# $ % a % g s s s a a s s s g $ x ~.(.;.x u % % u { } { u { h u a # s a s a a a j ;.}.;.~ g a a s a a a s s a a a a a g a a a s s s h h h h h h $ $ s s a % $ % ",
"@ $ $ % h % % $ $ $ $ % a % $ $ v -.-.] u $ % { % % % % % % u [ a # a a @ # a a d ~ ] ^ j a a d a # $ a a a a a a a s a $ $ $ s s % a a a a g a $ $ a $ @ $ @ @ "
};
