/* XPM */
static char *Group_10_15__resized[] = {
/* columns rows colors chars-per-pixel */
"80 80 249 2 ",
"   c #0F1917",
".  c #1D1B18",
"X  c #221C16",
"o  c #221D1A",
"O  c #2A1B19",
"+  c #381C17",
"@  c #1E2516",
"#  c #1E3518",
"$  c #39250F",
"%  c #222316",
"&  c #232519",
"*  c #252B19",
"=  c #282918",
"-  c #382817",
";  c #243316",
":  c #293B16",
">  c #273718",
",  c #2A3C1A",
"<  c #393817",
"1  c #1C1B23",
"2  c #251D22",
"3  c #301F21",
"4  c #2C2324",
"5  c #2B2626",
"6  c #322425",
"7  c #382827",
"8  c #34292B",
"9  c #362F2F",
"0  c #3B2C2C",
"q  c #39342B",
"w  c #382D33",
"e  c #4E1D18",
"r  c #4F290E",
"t  c #4A2617",
"y  c #582718",
"u  c #473A16",
"i  c #573914",
"p  c #682C15",
"a  c #742B12",
"s  c #693616",
"d  c #743C14",
"f  c #7A3718",
"g  c #452A26",
"h  c #582925",
"j  c #45322D",
"k  c #58372A",
"l  c #4F2F30",
"z  c #463536",
"x  c #4C3B3A",
"c  c #583A34",
"v  c #513D3A",
"b  c #673528",
"n  c #6B392F",
"m  c #763C24",
"M  c #2A4716",
"N  c #2D441A",
"B  c #2E4B19",
"V  c #374818",
"C  c #2E5118",
"Z  c #3D5417",
"A  c #32541A",
"S  c #3A5419",
"D  c #355C1B",
"F  c #3B5D1B",
"G  c #36621B",
"H  c #3B651C",
"J  c #3D6C1D",
"K  c #3F711F",
"L  c #3F7320",
"P  c #444315",
"I  c #4C4415",
"U  c #444C16",
"Y  c #4B4B16",
"T  c #484B1A",
"R  c #534515",
"E  c #5C4415",
"W  c #534B16",
"Q  c #5C4A16",
"!  c #564D18",
"~  c #445217",
"^  c #4A5217",
"/  c #495817",
"(  c #445419",
")  c #4B5419",
"_  c #445C1A",
"`  c #4B5B1A",
"'  c #535217",
"]  c #5B5117",
"[  c #545419",
"{  c #5B5519",
"}  c #535C1A",
"|  c #5B5B19",
" . c #644516",
".. c #6C4415",
"X. c #634B17",
"o. c #6B4B16",
"O. c #6A4A18",
"+. c #734315",
"@. c #7B4516",
"#. c #734B16",
"$. c #7B4B16",
"%. c #774618",
"&. c #645419",
"*. c #685518",
"=. c #645C19",
"-. c #7B5417",
";. c #765718",
":. c #43641C",
">. c #4B631B",
",. c #436C1D",
"<. c #4A6B1D",
"1. c #53631B",
"2. c #58681C",
"3. c #41741F",
"4. c #4A741F",
"5. c #42781F",
"6. c #51731E",
"7. c #71611A",
"8. c #504134",
"9. c #59433B",
"0. c #68482A",
"q. c #784529",
"w. c #76572B",
"e. c #694537",
"r. c #764835",
"t. c #785539",
"y. c #466F20",
"u. c #427620",
"i. c #4B7520",
"p. c #457C21",
"a. c #497C21",
"s. c #7B6425",
"d. c #4E3F41",
"f. c #514747",
"g. c #5B4844",
"h. c #664B45",
"j. c #68534B",
"k. c #745B4F",
"l. c #6A5953",
"z. c #786451",
"x. c #786358",
"c. c #746060",
"v. c #833C16",
"b. c #883917",
"n. c #8A3C15",
"m. c #923D15",
"M. c #834B16",
"N. c #884618",
"B. c #934216",
"V. c #944B1A",
"C. c #984A18",
"Z. c #885718",
"A. c #945718",
"S. c #9B5319",
"D. c #A0410F",
"F. c #A74A18",
"G. c #A45C19",
"H. c #A85818",
"J. c #B7591A",
"K. c #896218",
"L. c #976719",
"P. c #A46617",
"I. c #AC6519",
"U. c #AB6A19",
"Y. c #B76816",
"T. c #B06F15",
"R. c #B36319",
"E. c #BB651A",
"W. c #BA6B1B",
"Q. c #BB731A",
"!. c #B9771A",
"~. c #864828",
"^. c #904D2D",
"/. c #995726",
"(. c #875836",
"). c #985A33",
"_. c #A4562D",
"`. c #936725",
"'. c #8B6539",
"]. c #976536",
"[. c #AF6F2B",
"{. c #B57627",
"}. c #A66735",
"|. c #A87537",
" X c #B87C36",
".X c #C25D1E",
"XX c #C4651C",
"oX c #C36C1C",
"OX c #C96A1B",
"+X c #D06C1E",
"@X c #C4731B",
"#X c #C97619",
"$X c #C37B1A",
"%X c #CC7B1B",
"&X c #D4791E",
"*X c #C77727",
"=X c #D57620",
"-X c #876653",
";X c #8B6D52",
":X c #478122",
">X c #498423",
",X c #4C8A24",
"<X c #B68333",
"1X c #BB8535",
"2X c #C7841B",
"3X c #CC831C",
"4X c #D4831C",
"5X c #D9861C",
"6X c #D48B1C",
"7X c #DC8B1E",
"8X c #D7931A",
"9X c #DD941C",
"0X c #E18E1B",
"qX c #E3941E",
"wX c #E49A1D",
"eX c #E99D1E",
"rX c #DEA01A",
"tX c #EBA41D",
"yX c #E9A81E",
"uX c #EFB11E",
"iX c #CB8727",
"pX c #D88923",
"aX c #D99828",
"sX c #C78733",
"dX c #CF9035",
"fX c #D69736",
"gX c #E38B21",
"hX c #E69721",
"jX c #E79B2F",
"kX c #DBA73B",
"lX c #ECA222",
"zX c #E9A925",
"xX c #F0A623",
"cX c #EDB426",
"vX c #F4B727",
"bX c #E4A63A",
"nX c #ECB838",
"mX c #F5B939",
"MX c #F8C629",
"NX c #F7C639",
"BX c #F9D338",
"VX c #B78E4B",
"CX c #A7946C",
"ZX c #C89C46",
"AX c #D4AB4A",
"SX c #EFBC44",
"DX c #F4C648",
"FX c #F8D348",
"GX c #F0D758",
/* pixels */
"C G 3.K K K K K 5.J J 5.5.K 5.K L L u.5.J J K p.H P V.+XhX=XV.P H u.J Y d W.OXH.n.I.yXBXkX[.E V J J J 3.5.5.3.K K 5.u.3.G P i ( ` o.M.;.H H J K K K 5.K K 5.K D ",
"H J K K u.u.K K K K K p.5.5.5.K L L L K K K L 5.J ~ #.P.%XU.;.V S J J U E L.E.E.H.!.yXBXDX<X..P J K 3.5.p.u.5.K K 3.K H ^ o.$.[ ~ R Q ' H 5.,.:.H J K K 3.5.K J ",
"5.5.5.5.:Xp.L K K K 5.:Xp.p.p.u.5.p.L K K u.:X5.3.H ^ #.S.*./ ( ^ ` J G ~ #.S.oX$X6XvXFXFXdX@.u K 5.5.:Xp.p.p.u.u.u.J U ..G.W.-.R V A H 3.:X5./ / :.J J 3.5.5.5.",
"5.5.>X,X>X:Xu.u.5.5.5.:X>X,X,X,X:X>XL J p.>X,X:X5.a.5.1.Q / / *.Z.;.<.J :.I N.OXqXtXuXBXnXsX+.P 3.K 5.:X>X,X,X,X>X:XF I S.%X7XJ.#.Z 3.:X5.,.2.A.A.;.>.J 3.>X5.K ",
"J 5.p.:X>X,X:X:X:Xp.u.>X,X,X,X,X:X>X>X>X,X,X,X,X,X,X,X4._ U &.L.$XU.*.>.,.V @.J.pXgXhXvXzX@X..Y 5.5.5.>X,X,X,X>X,X>X:.W H.5XtXoXZ.( :X,X5.^ ;.Q.#XL.' :.5.:X5.K ",
"K 5.5.5.:X,X,X,X>X>X>X>X,X>Xp.p.>X,X,X,X,X,X,X,X,X,X,X,Xp.I M.pXzXiXN.| 5.Z  .F..X=X7XtXwXQ.+.T :X>X:X:X,X,Xp.p.:X>X,.' V.3XtXiX`.} 4.:X4.Y M.3X6XT.X.>.>X5.5.3.",
"J 3.3.5.a.p.p.p.p.u.u.u.u.p.>X>X>X>X:Xp.u.p.:X>X,X,X,X>Xa.I M.aXmXfXN.[ 5.3./  .C..X=XqXpXW.+.Y 5.5.5.5.5.p.:X>X>X>XH Y V.%XuXnXdX`.{ >.p.,.=.Z.Z.;.1.5.,X5.3.H ",
"J J 5.5.p.5.5.K L L K L L K p.>X>X>Xp.u.p.u.u.u.5.,X,X,X>XP %.fXnXdXd [ p.5.F I m.J.=XgXgXE.d I ,.K K K K 3.p.>X:X5.( X.G.6XvXBXSXsX .^ :X:X<.] E / :X,X,X3.J G ",
"J K u.p.u.K L L L K L K L K J p.:X:X>X,X,Xp.u.K u.>X,X,X>XU $.iXzXiXd [ 5.K F W B.J.=XgX=XJ.f I J K K K L K J p.5.( X.S.3XwXvXFXDXsX#.T ,X,X,X,.:.3.,X,X>XK J J ",
"J K 5.p.p.u.L L J L L K u.p.5.:X>X>X,X,X,X>Xp.>X,X,X>Xi.>.Q A.6XhX6XA.*.>.5.5.<. .V.J.OX.XV.X.Z J L K K L p.u.>X4.i V.+XwXtXuXBXmX*XO.T a.>X:Xa.K K 5.>X,X>X5.3.",
"K K u.:X>X:XL L u.u.p.p.:X:X:X,X,X:X,X,X,X>X>X,X,X,Xa.<.X.Z.W.7XwX9X2XK.*.<.5.5.1.O.m.F.V.O./ J L p.p.u.:X:X>X,X4.E V.&XhXeXyXMXzX{. .U u.u.p.:XK J J 5.,X:X5.5.",
"3.5.u.,X,X,Xp.p.:X,X,X,X:X:X,X,X,X:X,X,Xp.:X,Xp.>X>Xu.| m.oX5XpX6X8XuX&XV.W ,.>X>X{ a a X.<.3.u.>X,X,X,X>X>X,X,X4./ o.G.&XpX7XtXqXW.#.U ,.3.u.:XL J K :X,X5.3.3.",
"K K 5.5.,X,X,X>Xu.p.>X,X:Xp.,X:X:X>X,X,X,X,X,X:X>X,Xu.{ b.OX5XW.I.!.uX%XV.Y J :Xu.! s i >.:X,Xa.L u.>X,X>Xp.,X>Xp.u.1.#.H.OX=XhX7XR.o.( 5.} ] <.p.:X>X,X>X5.5.K ",
"J K 5.:X>X,X,X:XL L p.,X>Xp.:X>Xu.,X:Xp.,X,X,X:X:X,Xp.1.o.P.W.R.I.Y.2XU.;.` ,.4.} ;.V.*.<.a.,X:XL L p.,X>Xp.>Xp.p.>Xu.) $.F.OX=X#XA.Q / 2.Z.Z.=.6.a.,Xi.4.5.5.3.",
"5.5.:X,X,X,X:X>X,Xp.u.>X>X>X:X,X,X>Xu.,.p.,X,Xu.3.p.>Xp.>.X.Z.@X3XQ.A.*.>.5.5.` -.W.2XP.;._ 5.>X,Xp.p.,Xp.p.>X,X,Xa.u.F ( %.F.J.A.] _ ' M.$X4XU.=.H p.) R ,.5.5.",
"3.5.,X:X,X,X>X,X,X,X>X>X>X>X>X,X,Xu.L J u.u.p.L J J :.,.,.P $.3XwX2Xd ] 3.>X:X<.#.I.6XP.*.:.p.,X,X,X>X>X>X>X>X,X,Xp.u.J H W  ...] :.J } #.Q.%XL.Q S [ -.M.&.>.J ",
"J 5.>Xp.p.,X>X>X>X,X>Xp.p.:X,X,X,Xu.u.u.u.u.p.u.,.( I / u.P #.4XtX2Xf [ 5.,X>X4.1.Z.P.-.} p.:X>X,X,X>Xp.p.>X,X,X,Xp.u.u.u.H S U >.3.5.<.| L.L.7.} ^ #.I.E.A.! Z ",
"5.5.u.K 3.p.p.p.>Xp.J L L u.>X,X,X,Xp.p.p.>X,X,Xy.T s &.>XT @.pXeX%Xv.' ,.5.5.5.a.} R ( ,.u.p.:X>Xu.J L K u.p.,X,X,Xp.p.p.>X>X>X5.5.5.5.>X] [ 6.3.| H.%X7XE.#.< ",
"5.5.:Xu.u.u.p.p.p.u.L p.L L p.,X,X>X>X>Xp.p.>X,Xi.T s X.i.T #.@X5XoXd Y :.` | 1.a.4.:.J K u.u.p.p.u.u.p.L L p.,X,X,X>X>Xp.>X>X,X6.} ] 1.5.:.,.>XH ] H.5XwXoX#.< ",
"K p.,X:Xp.p.p.p.u.u.p.>XL L >X,X,X>X>X,Xp.p.>Xp.2.7.Z.7./ U O.P.W.P...^ ` ;.M.;.2.5.>X:Xp.p.p.u.u.u.p.>Xu.u.p.,X,X>X>X>Xp.p.a.a.2.-.M.;.>.5.:X4.) o.R.aXzXY.o.V ",
"u.p.:X,X,X,X>X:Xa.p.L L L u.,X,X:X>X:X,X,X,X>X( w.{.fX<Xo.` 1.*.M.;.2.^ o.!.3X!.o./ p.>X,X,X>X:X:Xp.L L J L ,X,X:X:X>X,X,X,Xa.) ;.!.$XP.Q 4.5.` ;.H.pXNXnX[.o.< ",
"u.p.>X>X>X,X>X>X,X>Xp.p.p.p.,X,X>Xu.:X,X>X>Xi.V -.iXnXdXN.} J >.[ } i._ ;.Q.%XT.&.>.:X>X,X>X>X,X,X:Xp.p.p.:X,X,X>X5.:X>X>X:Xi.u M.pXlX{.d 1.3.U M.OXlXNXmX*XZ.R ",
"3.p.,X>X>X>X>X,X,X,X,X,X,X,X,X,X>Xu.u.:Xu.u.:.P Z.iXcXpXB.[ J K J J u.u.2.K.A.-.>.u.>X>X:X:X>X>X,X,X,X,X,X,X,X,X>X5.5.:X5.3.H i A.bXnXiXd / H i S.&XlXvXvXjXU.V.",
"5.5.p.>X>X,X>Xp.p.,X,X,X,X,X>X>Xu.p.u.u.L J _ E A.6XhX$XN.[ J K F G p.p.5.2.[ Y ,.5.:X:X,X,X:X:Xp.,X,X>X,X,X,X>Xp.5.5.K J H ( ..{.SXSXsXs ` G i V.+XqXxXxXlX5XXX",
"3.5.:X>X>X>Xp.p.p.>Xp.u.>X,X>Xp.p.:Xp.u.5.` X.A.$XqX7XY.v.' F ` ' } i.p.5.L F I { 2.5.>X,X:X:Xp.p.>Xp.p.>X>X:XK 5.5.5.5.K ` o.P.aXBXDX Xs / F P N..X=X0X0X0X&X.X",
"J p.>X,Xp.L u.:X>Xp.u.L p.,X>X>X,X,X,X:X5.{ v.oXhXlX5XE.v.R Y o.Z.Z.1.H G u.>.*.A.-.>.4.5.5.K :X:Xp.u.,.p.u.G G G G L p.L &.C.%XvXBXnX[.s ( G Z #.F.XXOXOXOXJ.B.",
"5.p.>X:X5.J K 5.,X,X,X>X>X>X>X>X,X,X,X,X>X{ f E.gXxX5XR.b.p +.U.3X!.+.< = u +.P.oXG.o.:.K K J 5.,X,X,X>X5.A ; * * * B G 5.=.B.oXlXvXzXU.s ^ K 3.` #.C.F.F.F.M.E ",
"5.p.>X:Xp.5.5.5.,X,X,X>X,X>Xp.,X,X>X,X,X5.^ i C.oX5X@XL.#.i ;.L.T.K.p - 6 t N.XX5XY.v.u M B A ,.,X,X>Xu.F , 9 9 0 0 q B S X.B.W.qXvXwXY.d ) 5.:Xu.1.#...s ..' Z ",
"K p.,X,X,X,X,X,X,X>Xp.u.>X>X,X,X,X:X>Xp.p.B $ i C.J.C.*.>.4.i.( u t - 0 v n m.E.5XE.b.t % ; q :.>X>XJ B > 9 g.l.x.l.8., = i B.@XqXxXqXH.f 1.5.>X,Xa.,._ H _ H H ",
"J 5.:X,X>Xp.>X,X>X>Xp.u.>X,X,X>X:Xp.p.J A , 5 k m a i ~ :X:XG , 5 8 0 f.h.n n.E.6XY.b.0.s.'.s.[ A D B ; q 8.x.-X;Xc.j.q O $ o.G.#X&XW.Z.{ 4.5.,.,.J u.p.5.K H H ",
"J 5.:X,X:X5.:X>X>X>Xp.u.p.,X>X>Xp.p.K D , q f.h.e.l - M 5.H V q 8.f.d.j.j.n V.Q.7XY.~.}.ZXAX<X7.< : ; 5 x j.x.x.c.;Xj.z X : ` ;.S.H.N.{ <.5.6.| | 1.i.>X,X:XK K ",
"5.p.,X,X>X5.5.:X,Xp.L L u.u.u.u.p.u.D N q v h.-Xc.f.q M F < - c l.l.l.j.r.~.H.4XaXJ.b.CXGXGXAX|.&.q 6 w 8.h.j.j.l.c.9.q * M J >.X.a i ` >X3.1.A.S.-.y.u.>X>X:X5.",
"3.p.>X>X:X5.5.5.>Xp.p.L p.,Xp.p.5.A q q 9.n ~.-X-Xc.f.v i y p q.k.c.k.r.f S.3XtXrXT.b.;XCXCXCXVX1Xt.c z d.g.9.h.j.j.8.0 * C p.5.' i i ' 5.} -.$X&XU.! :.K ,X>X5.",
"J 5.p.:X5.5.<.<.p.>X>Xp.>X,X,X,XK M > l r./.H./.;Xx.k.n b b.B.~.t.z.;X~.n.J.qXvXcXiXG.(.-Xk.-XVXAXVX'.9.x x v h.j.g.x 7 @ C >X4.2.-.Z.7.1.W ;.!.2XP.Q ( K ,X:XK ",
"J 5.p.p.5.>.R ' a.,X,X>Xp.u.,X,XK M = g N.{.6XQ.^.e.h.e.v.H.Y.H./.|.fX[.B.H.pXmXNXcX8XH.b.h.j.c.;XVXVX'.9.z v v 9.g.v 7 @ B 3.Y -.$X6XU. ./ 2.-.M.;.<.5.>X,X5.J ",
"Z F 5.J 2.7.`.`.1.i.>Xp.p.p.,X,XK M = t m I.%XR.^.e.g.b b.Y.#XY.V./.<X).N.J.pXvXBXMXuXY.b.b h.l.z.AXAX<X9.w v f.9.x q q B G u.~ ;.T.!.L.Y Z Z ^ 1.6.5.:X,X,XK H ",
"i ) :.S *.[.fX1X;.1.u.u.p.,X,X,XK M ; 7 n ~.S.A.t.g.v b v.#X8X@XB.m (.~.v.J.6XcXMXMXuXY.b.n f.j.z.dXAX<X9.w x 9.x j 5 , J >Xp.J | Z.A.*.( Y R ~ ,.:X>X>X,X>X3.H ",
"Y.K.Y r M.dXDXAX/.] J p.p.p.>Xp.K D M 5 0 k b e.g.g.n f G.aXzX%X~.h z h v.F.5XtXyXrX2XS.m e.j.l.l.<X<X|.t.f.x x z 6 * M p.,X>Xa.4.>.) ^ >.-.V.&._ 5.,X,X,X>X5.3.",
"9XT...y v.sXDXbXS.! F a.p.p.p.p.p.u.F N 5 0 l d.f.n m F.$XnXnXiXv.h l h b.J.&XeXtX!.C.~.h.j.j.l.j.j.'.|.<X'.9.x j 4 * C p.,X>X>Xp.5.F ^ -.Q.#XA.X./ >X>X5.K K 3.",
"8XT.@.p v.{.nXfXV.s ~ u.>X,Xp.>X>X>Xu.D @ 8 x f.l y n.J.pXmXNX2Xv.h k h b.F.+XeXwXH.b.n j.c.l.j.f.g.t.sXfX Xr.c j = N G L p.a.y.4.5.J =.F.&XgXXX+.U 5.:XJ :.H H ",
"C.-.1.P #.#XtX2XB.v.s ^ p.>X,X>X>X>XL A & 8 x f.z h b.F.=XxXtX#X~.h c b b.F.+XgX7XJ.v.n j.l.j.g.g.'. XbXjXdX}.m k Z J p.p.p.4.] Q >.3.=.F.%XpXOX#.~ :X:X:.E i V ",
"] 1.:.V -.#XwX!.b.C.S.s.2.,.p.p.p.>XL D , 0 c e.(.~.m.F.+XxXtXY.f h c c m C.J.+XXXS.f e.h.f.g.j.(.|. X*X X}.).m g S K p.K :.=.L.L.7.` Y #.I.W.Z.=.>.3.>.=.L.K.Z.",
"H J ,.~ $.oX5XY.n.[.dX1X;.U u.L u.p.L G A V k (.}./.m.F.+XgXgXY.b.h v d.c m m.m.m.q.c 9.f.d.e.'. X|.(.h.h.r.c g - A H J H Y %.$X4XP.E V / Z.M.' 4.5.,.I $.2X3XY.",
"Z H :X3.| Z.R.Y.I.kXDXbXZ.i a.,X>Xp.L J y.:.) 0.q.m f b.J..X+X.X/.n z l h b p b h l z z 8.e.'.|.|.(.9.z z z 0 2 = C H J K / O.!.#XP.| ,.5.>.^ U ,.:X5./ o.$X#XY.",
"X.| y.p.<.| V.Y.6XNXFXbXZ.i i.:X:X,X:Xp.,X>Xy.T u g g b b.m.C._._.t.z k s n b c c 9.9.z 9.'. X|.k.e.z w w w 8 O & A K :X:X4.2.K.K.7.2.5.>XK Z R ] 2.>X4.2.Z.Z.7.",
"[.K.[ y.K <.$.J.tXBXNXiX~.u y.p.:X,X,X,X,X,Xa.B = o 2 t y p p ^.(.~.b N.G.~.0.e.(.'.t.g.t. XdX}.z w z z j w 8 2 = A 5.,X,X,X:X/ ^ <.,X,X5.3.2.Z.A.-.6.:X4.Y U Z ",
"SXsXZ.>.H _ @.H.7XvXcX2X$.I i.,X,X:Xp.p.p.p.a.^ i t O 2 7 g w l c b f  XkX[.^.^.sXdX1Xt.t.|.1X].w w w z j 0 6 2 & A J u.p.p.a.3.3.5.,X>X5.' Z.2X3XU.X.<.:X,.F D ",
"GXfXS.` D _ N.J.&XlXtX%XN.i u.:X,X:Xp.p.u.,.` K.A.N.e 3 3 7 8 w g h m.fXDX1XS.N.|. X|.).(.'.'.e.w 8 w j j 0 6 o & C J p.u.p.5.:.<.5.,X>X4.E C.9XwXQ.s [ >X3.G S ",
"FXfX/.2.G ( M.J.+XgXhX#XN.i H 5.>Xp.>X,Xp.)  .!.6XQ.f e 6 8 8 w 7 h B.fXSXsX^.p 0.9.0.].}.).c j 0 w 0 w j 0 6 4 = B u.,X,Xp.,.R I >.5.>X4.E A.8XwXQ.s } >XK S V ",
"FXmXsXs.T Z R $.H.+XoXA.&.:.L :Xa.J :.,.>X_ i I.#XI.s + 6 3 2 5 3 y N.iXmXiXn.e 7 w j e.(.(.q.r.t.^.r.k 8 2 o = B J >X,X,Xi.| L.P.K.2.3.4.E N.8XtX6XA.&.>.p.:.V ",
"cXNXnX|.;.U S ' v.F.V.E :.u.:X>Xa.| { 1.i.V - %.A.$.t 2 6 8 4 5 7 y n.2XlX@XN.e 8 5 8 z e.~.).}.}.}.].0.0 2 o N J u.p.u.u.) #.$X4XP.=.H ,.R N.4XuXuX2XZ.X.4.H U ",
"tXMXBXjX`.Y :._ t p y < S L ,X:X2.K.`.`.) ; . - t - . 1 4 4 8 j h b n.Q.5XQ.b.h w w q l r.(.}.]._.}.).~.k 6 % D >XJ D A , u f Q.$XP.2.J :.R N.$XuXvXtXY.M.>.S U ",
"9XzXvXpXA.Y ,.F & O O % ; D >X>.o.sXkXdX@.+ % V H S * 1 6 4 0 n ^.~.b..X4XY.n.y w w l r.).(.0.l k j n ~.r.k = D K A , & X X t @.M.=.6.5.,.E N.@XwXtXpXH.@._ A V ",
"pXtXtX@XZ.i ) F , # ; * > A a.Y @.fXmXaXn.r , J u.u.B - g 3 w r._.F.m.J.4XY.n.e g z n ).^.e.8 1 2 1 7 q.~.0.N G K A , * @ . . e t V H J U i n.XX=X5XR.v.y V B N ",
"9XhXqXW.B.a s ) 3.J J J J u.p.Y %.3XlXpXN.R 3.K u.i.H [ p t g n ^._.m.E.&XXXb.e j n (.n k 8 6 6 4 4 7 k h T y.>X>X5.G D A ; . O O X @ % = y m.XX+XJ.v.y O X ; B ",
"gXhXhXW.F.D.P.L.=.6.u.p.>X>Xa.) +.W.5X6XP.;.` V N A / ;.A.d b ~._.^.s C.R.C.b 3 g r._.n 0 2 6 6 8 4 6 g ( y.>X,X,X5.K J J C ; * ; ; * ; > u o.H.H.V.] V N M A G ",
"=XgXpXI.S.I.6X!.#.1.K 5.5.5.:X[ d H.&XeX6XU...- % <  .P.6XP.b.~.^.r.h s N.f g 2 g n _.n w 2 4 8 6 4 = > G >X,X,X>Xp.u.L L J D D D D D D D H 1.$.+.*.,.J H H J J ",
"J.XXoXM. .-.!.T.O./ J H S G :X[ d J.&XxXyX4XS.t % - N.pXcX*XC.f n n g y h g 6 2 j ~.}.r.0 2 4 4 4 & ; : B H a.,X,X>X:Xp.:X:X>X>X:X>X:X:X>X,X4.` / :.>X:XJ :.H H ",
"b.m.N.{ / } -.;.} ,.,.[ X.| <.^  .H.&XqXqXoXN.' Z Y V.dXDXdXV.y + 7 g g 7 6 2 5 g r.).0.g O o . & B C M > B J p.:X>X>Xa.p.:X>X,X,X,X,X,X:X5.5.5.H ,.:XK :.=.] ' ",
"a p E <.L :.I ) 3.J 1.Z.G.A.} ( [ Z.Q.%XE.A.*.6.5.>.A.dXDXdXN.$ 2 = I 7 2 2 2 2 7 h n n g 4 * ; : H L A ; ; A D G u.>X,Xp.p.:X,X,X,X,X>X3._ >.5.5.3.K :.| G.A.M.",
"f  .` :X,X:Xu.p.5.~ O.!.6X2X#.[ :.' M.F.N.*.6.5.J / Z.dXDXdX/.P H a.i.N o X . X . & - t k S J L K K K G C , & % > A 5.,X>X,X>X>X>X>X>X>X4.*.o.>.5.,X5.] Z.3X3XQ.",
"R.Z.=.<.a.,X>X,X>X<.=.L.!.T.*.~ V u s @.Q >.5.,.} ;.T.bXDXdX/.U i.,Xp.B % & , N , , , j T :.a.,X>X>X:Xp.u.D > X X ; N A D u.:X>X>X>X3.<.7.L.P.-.2.4.,.X.V.9XwX5X",
"9X!.Z.^ J :X>X>X,X,X4.&.$.-.>.C : r p E :.K ,._ o.P.aXNXDXdXZ.U H u.H , & ; D p.J J J J J u.:X>X,X,X,X,X,X>XF > X X . @ ; B J >X>X5.H ^ M.2X6XI.&.S H  .S.9XwX5X",
"6XP.o.>.u.,X>X:X:X5.F - t I p.G V r r u ,.5.4.I M.%XuXBXNX*XZ.~ H H M = % N J p.:X:Xu.p.:X,X>Xp.:X>X,X,X,X>Xp.D , ; ; ; ; > N L 5.3.K / o.T.$XA.' D ,. .F.7XqX5X",
"A.;.1.4.5.5.,.J J A > X & V p.p.:.i s X.<.p.a.I M.%XcXMXuX#XM.U A B * . & A K :X>X>X:X,X>X:Xp.p.p.:Xp.p.>X,X:XL G G D D A : ; H L J G H } -.Z.=.>.J J ! N.%X&X#X",
"u >.:X,X5.D B B B = . . , G p.i.y.s.`.`.1.i.a.T #.oXtXuXtX#XN.u ; * % % > F p.>X:X>X,X,X:XK 5.:X>Xp.p.L p.,X>X>X>X,X>Xa.p.A , J J D D D J ( U G J 5.3./ O.I.G.V.",
"H 3.:X:XJ B ; @ % o o M H p.u./ ;.sXkXdX-.} 4.U #.E.gXuXtX@XN.t .   @ N J p.,X>X>X>X:Xa.K K J p.,X,X,X:X,X:Xp.,X,X,X,X,X,Xp.,.p.H , ; M H H ,.5.5.5.5.4.<.#...Q ",
"C J 5.:XK F , > > > N F p.,Xi.I %.fXFXkXN.W 3.U %..XpXlXwX@Xn.e . . N J p.>X,X,X,X>X>X:X:Xp.K p.,X,X:X,X,X,Xp.,X,X,X,X,X>X>X:X>Xu.A > > N C G 5.>X>X>X:X4.[ U Z ",
"& N 5.>X,X:X5.J 3.J J J 5.,X:XY %.fXSXfXN.W J U %.J.=XgX9XY.n.r & , L p.p.:X>X>X>X>X>X,X,X,X,X>X,Xp.p.p.p.,X,X,X,X>X>X>X>Xu.5.:X>Xp.F M & % > G 5.,X,X:X5.3.J J ",
"; C 3.,X:Xp.:X:X:Xp.p.3.:X,X,X^ +.dXnXaXN.' p.:.{ N.J.+XXXC.p $ N G u.:X:X5.5.5.p.>X>X,X:Xp.>X,X>X>Xp.u.>X,X,X>X:Xp.u.p.>X,X>X5.>X,Xp.F > o o > A K :X,X>XK J J ",
"A H 5.,X:X5.:X>X>X:Xp.5.a.>Xp.Y +.2XhXpX@.' i.u.<.{ M.S.N.s < , J p.p.>X,Xp.5.:Xp.>X>X,X>Xu.:X>X,Xp.p.u.p.:X,Xp.p.:Xp.p.,X>Xp.p.p.,X,Xp.F > o X ; A J :X>X:XK K ",
"5.5.,X,X>X:X5.:X,Xp.5.5.5.5.K I +.@X9X$XN.u G :Xa.,.' Q ^ V N H u.,X,X,X,X>X,X,X,X,X>X,X>Xp.u.>X,Xp.L u.p.p.u.u.p.>X,X,X>X5.3.,X,Xp.>X,X>XA : ; ; M A 5.>X>X5.5.",
"K 5.>X>X:X5.:X:X:X>X5.5.:X>X5.Y d oXpX@Xv.] 5.5.p.L 3.<.3.J H p.>X,X>X5.5.,X,X,X>X>X>X>X:Xp.:X:X>X>Xp.L :X>Xp.p.:X>X:Xp.:X:X:X>Xp.u.:X,X,Xu.H H A N ; A 5.,X:XK ",
"K 5.:X:X:X:X,X>X5.,X>X5.:X,X:X' d .X=XXXv.| 5.,.:.:.p.p.J ,.p.,X,X>X:XK K ,X,X,X:Xp.p.a.:X:X,X>Xp.,X>Xu.:X,X,X>X>X,Xp.5.a.,X,X:Xp.p.:X,X,X>X>X,XL A , A K >XK D ",
"K 3.5.5.>X,X,X,X,X,X,X,Xp.5.:X) d J.OXJ.@.' ,.' R [ ,.A ; B L >X>X:X:X:X,X,X>X:X:Xp.p.p.:X,X,X,X,X,X,X,Xp.5.,X>X>X,X>X:X:X:Xp.L p.p.p.,X,X>X>X,Xp.L J p.>X,XG M ",
"K K 5.5.5.,X>X>X,X,X,X:X5.p.>X4.| A.F.A.=.) [ L.P.K.&.- . , J ,X,X>X:X>X,X,X5.K :Xp.5.u.p.,X>X>X,X,X:X:Xu.p.,X,X,X,X>X>X,X:Xp.5.p.>Xp.p.p.p.>X,X,X>Xp.>X>X,XH M ",
"K K K K 5.:X:X>X,X,X>X5.5.>X,X>Xy.O...X.<._  .T.3X!.s + o N J :X,X,X>X>X>X,Xp.u.>Xp.3.K u.p.p.:X,X,X>Xu.p.>X,X,X>X>X:X>X,X,X:Xp.p.,X>Xp.u.p.p.>X,X,X>X>X,X,XK G ",
"5.3.K K K K 5.>X>X>X>X:X5.:X>Xp.i.:.~ U _ _ ' L.Q.I.p + o B J p.K K ,X,X,X>X,X,X,Xp.K u.u.L p.:X>X,X>X:Xp.:X>X:Xu.u.u.p.,X,X>X:X>X,X,X>Xp.>X>Xp.u.u.,X,X,X:XK K ",
"J J K K 5.K 5.5.5.K 5.5.5.5.5.5.u.K _ [ ;.=./ =.;.s $ o & B J u.J K :XK K K p.:Xp.u.J u.K u.5.5.u.u.p.5.u.u.p.5.u.5.u.u.p.p.p.:Xp.p.p.p.p.p.p.p.J J p.u.L K K J ",
"G H K K 5.K K K J J J K K K K K u.3.` *.P.-.Z Z < +     @ B J 5.J J K J H J J K 5.J K K 5.u.K J K G J K K K J K u.5.5.5.J J K p.u.L L L u.L u.u.J J L J G J H G "
};
