/* XPM */
static char *Group_10_16__resized[] = {
/* columns rows colors chars-per-pixel */
"80 80 242 2 ",
"   c #1B1B19",
".  c #291B1B",
"X  c #33191A",
"o  c #1E2315",
"O  c #1D2916",
"+  c #252919",
"@  c #382B1A",
"#  c #243415",
"$  c #253B15",
"%  c #283719",
"&  c #2A3B19",
"*  c #373817",
"=  c #1B1E21",
"-  c #261D20",
";  c #272626",
":  c #2D2324",
">  c #352727",
",  c #3C2D2D",
"<  c #353425",
"1  c #3D332C",
"2  c #2B2A35",
"3  c #3A2E31",
"4  c #3C3134",
"5  c #481C13",
"6  c #4A2619",
"7  c #57241A",
"8  c #463817",
"9  c #4C3C14",
"0  c #563914",
"q  c #66390E",
"w  c #66281A",
"e  c #792E16",
"r  c #683917",
"t  c #783A16",
"y  c #482825",
"u  c #422B2B",
"i  c #582C25",
"p  c #46342C",
"a  c #573628",
"s  c #433333",
"d  c #483636",
"f  c #4B3935",
"g  c #4C3C3B",
"h  c #583B33",
"j  c #523E3A",
"k  c #762E20",
"l  c #683627",
"z  c #753925",
"x  c #683D34",
"c  c #2B4217",
"v  c #284617",
"b  c #2D461A",
"n  c #2E4B19",
"m  c #394617",
"M  c #3D4B16",
"N  c #324C1A",
"B  c #2F5216",
"V  c #2E5119",
"C  c #3C5317",
"Z  c #325419",
"A  c #3C541A",
"S  c #355B1A",
"D  c #3B5C1A",
"F  c #37621B",
"G  c #3A641C",
"H  c #3D6C1D",
"J  c #3F711F",
"K  c #324322",
"L  c #3F7320",
"P  c #444315",
"I  c #444A16",
"U  c #4B4B17",
"Y  c #494818",
"T  c #5C4515",
"R  c #534B16",
"E  c #574917",
"W  c #5C4C16",
"Q  c #485217",
"!  c #435419",
"~  c #4C5418",
"^  c #435B1A",
"/  c #4B5C1A",
"(  c #545116",
")  c #5D5217",
"_  c #545418",
"`  c #5B5319",
"'  c #545B1A",
"]  c #5B5D1A",
"[  c #734B0F",
"{  c #654615",
"}  c #6B4415",
"|  c #634B16",
" . c #6B4A16",
".. c #674D19",
"X. c #784717",
"o. c #734B17",
"O. c #7B4C16",
"+. c #734A19",
"@. c #6B5417",
"#. c #625519",
"$. c #675418",
"%. c #645B19",
"&. c #6B5B1A",
"*. c #785618",
"=. c #44631B",
"-. c #4B641C",
";. c #436C1D",
":. c #4B6B1D",
">. c #53631C",
",. c #58681D",
"<. c #41741F",
"1. c #4B731F",
"2. c #43781F",
"3. c #53741F",
"4. c #6C611B",
"5. c #54413D",
"6. c #5B4439",
"7. c #7A462B",
"8. c #6C5327",
"9. c #684738",
"0. c #734232",
"q. c #774933",
"w. c #775537",
"e. c #427620",
"r. c #4B7620",
"t. c #457C21",
"y. c #4A7D21",
"u. c #786422",
"i. c #3E3641",
"p. c #483D41",
"a. c #5A3E43",
"s. c #594745",
"d. c #5C4A44",
"f. c #55494D",
"g. c #614C44",
"h. c #694844",
"j. c #68534B",
"k. c #6A554D",
"l. c #765646",
"z. c #685752",
"x. c #6D5A51",
"c. c #745C53",
"v. c #79624D",
"b. c #786355",
"n. c #863B18",
"m. c #933E15",
"M. c #883620",
"N. c #92570E",
"B. c #854216",
"V. c #8A4216",
"C. c #844C17",
"Z. c #894A17",
"A. c #8C4B19",
"S. c #9B4B16",
"D. c #974618",
"F. c #934C19",
"G. c #865718",
"H. c #8C541A",
"J. c #94551A",
"K. c #975818",
"L. c #9C5A1A",
"P. c #A54D17",
"I. c #A65719",
"U. c #B65A1B",
"Y. c #8B6218",
"T. c #9B6619",
"R. c #AD6B14",
"E. c #A96718",
"W. c #AB641A",
"Q. c #A36B19",
"!. c #B5641A",
"~. c #BB641A",
"^. c #B56A18",
"/. c #BC6D1A",
"(. c #B8751A",
"). c #BB741A",
"_. c #854727",
"`. c #914F26",
"'. c #965827",
"]. c #884B33",
"[. c #885533",
"{. c #985D33",
"}. c #A55B26",
"|. c #A85838",
" X c #896927",
".X c #986B26",
"XX c #9A7129",
"oX c #9A6A37",
"OX c #A86927",
"+X c #B66D2F",
"@X c #B5782B",
"#X c #A36A35",
"$X c #AA7639",
"%X c #B77B33",
"&X c #C15C1D",
"*X c #C7661E",
"=X c #C36C1B",
"-X c #D26B1F",
";X c #C57A17",
":X c #C3741B",
">X c #CB741C",
",X c #CC7B1B",
"<X c #D4771E",
"1X c #D27C1C",
"2X c #C77B26",
"3X c #D57320",
"4X c #835645",
"5X c #906F4F",
"6X c #A87B44",
"7X c #857166",
"8X c #478122",
"9X c #498423",
"0X c #4C8A24",
"qX c #B98434",
"wX c #CB8319",
"eX c #D4831C",
"rX c #D9841D",
"tX c #D58919",
"yX c #DB8C1C",
"uX c #DC921C",
"iX c #E18A1D",
"pX c #E59A1C",
"aX c #EAA41B",
"sX c #C88529",
"dX c #D68A25",
"fX c #D9952A",
"gX c #C78833",
"hX c #CD9434",
"jX c #E79822",
"kX c #DBA53A",
"lX c #E9A625",
"zX c #EDB22F",
"xX c #E6A839",
"cX c #F3B936",
"vX c #FBD03B",
"bX c #AD8646",
"nX c #B89050",
"mX c #998162",
"MX c #C89C48",
"NX c #D0A348",
"BX c #E2AE40",
"VX c #F2C242",
/* pixels */
"B F <.J J J J J J J J 2.J J 2.J L e.e.e.H H <.J ' r E ^ H J H J J J 2.J J <.` r 9 D <.H H <.J J J J J J e.e.e.2.J 2.<.J J D I r W H <.<.H H J J J 2.2.J J 2.H S ",
"G H J J e.L J J J J J 2.2.2.2.J H e.e.L H H H ^ @.N.*._ D J t.t.t.e.J H G ^ 4.'.*._ G H <.<.J J J J J 2.e.e.e.J J J J H D ( *.K.G.U D H J <.2.2.2.2.J J J 8XJ H ",
"2.2.<.2.8Xt.J J J J 8X8X8Xt.8XJ e.t.e.L L H =.0 N.;XR.[ M ;.0X0X0X8X<.F C 0 T.hX@X*.m H 8Xt.J J J 2.2.8Xt.t.t.L e.e.L H M { R.;XE.q M G <.9X0X0X0X8X<.J J 2.8X2.",
"<.2.9X0X9X8X2.<.2.2.J 8X8X0X0X0X0Xt.L H e.e./ B.=XaXiXI.0 =.9X9X0X9X8XH Q X.sXcXfXK.9 1.0X8XJ 2.2.J 2.8X8X0X0X0X0X8XL J C [ R.;XE.| ^ e.8X8X8X9X9X9X8X2.2.8X2.J ",
"J 2.8X8X9X0X9X8X8Xt.t.8X0X0X0X0X0X9X9X8X9Xt.>.X.~.pX1XI.T =.t.y.2.2.9X<.~ B.;XzXjXK.9 :.0X0X8X8X8X8X8X8X0X0X0X9X9X0Xe.H J ,.u.N.*.,.y.9X9Xt.t.8X2.8X9X8Xy.8Xe.J ",
"<.J <.<.8X0X0X0X9X9X9X9X0X0Xt.2.t.0X0X0X0X9X;.( N.~.I.*.^ H e.t.<.<.8X2.' t ^.uX,XH.9 G 8X0X0X0X0X8X8X8X0X0Xt.t.8X9Xr.:.9X8X1.( / 0X0X0X9Xt.e.t.J J 9X0X9Xt.L 2.",
"H J J 2.t.8Xt.t.t.e.e.e.e.t.8X0X9X9Xt.t.t.t.t.:.#.O. .>.2.<.<.t.J J 8X2.>.t !.rX>XZ.8 ;.8X8X8Xt.2.t.J t.e.t.8X9X9Xe.] | ( ;.2.;.y.0X0X0X9Xe.e.e.J H 8X0X0Xt.H G ",
"H J <.8Xt.<.<.<.L L J L L J t.8X9X9Xt.t.e.e.e.e./ R -.<.2.=.=.t.2.2.9X2.' B.U.rX<XA.9 <.8XJ J L J J J L J L t.8Xr.>.Y.OX*.>.H J t.9X0X0X0X9X8X9X2.2.9X0X0X<.H F ",
"H J 2.t.e.J L L J J J L J J J e.9X8X9X0X0Xt.e.J ;.e.9Xy.-.T #.y.9X8X0Xt.>.B.!.rX<XJ.9 :.t.J J J J J J J L L H H / +.qXxXqX*.M G t.9X0X0X0X0X0X0X0X9X0X0X0XJ H H ",
"H J <.t.t.e.L L J L L J e.t.e.8X9X8X9X0X0X9Xt.8X9X9Xe.,.*.T.Y.,.=.H e.2.1.` K.~.L. .^ <.t.e.J J J L L J e.e.e.G ~ Z.sXcXfXH.P r.0X0X0X0X9X9X9X9Xt.L e.8X8X8Xe.2.",
"J J e.8X9X8Xe.L e.t.t.e.t.8X9X0X0X8X0X0X0X9X9X0X0X9X=.%.E.eX;X+.U S H t.y.=.$.C.@.' H t.0X8Xe.J e.t.t.e.t.9X8X<.' A.sXlXdXJ.P r.0X0X0X9Xt.t.9X9XL H J 8X0X9Xt.2.",
"2.<.e.0X0X0Xt.e.8X9X0X0X9X9X0X0X0X8X0X0Xt.8X0X8X9X9XQ O.>XaXdXP.T Z J 9X0X<.^ U =.;.<.9X0X0Xt.t.8X9X0X0X9X9X0Xe.' B.=XpX,XC.Y :.0X0X0X8XL 8X0X0XL H J 8X0Xe.J 2.",
"J J <.2.0X0X0X8Xe.e.9X0X8X8X0X8Xt.9X0X0X9X0X0X9X0X9X~ X.=XiX1XS.W G 8X0X0Xt.e.;.<.<.e.8X9X0X0X8Xe.e.8X0X8X8X0X<.~ V.~.eX=XC.U 1.0X0X0X0X9X0X0X0X9Xt.9X0X0Xt.<.J ",
"H J 2.8X9X0X0X9Xe.e.t.0X8Xt.9X8Xt.0X8Xt.0X0X0X9X9Xy.Q o.U.3X*XD.W ;.9X0X0X8X8X9Xt.e.e.t.9X0X0X8X<.<.t.0X8Xt.9XH U V.U.<X*XZ.Y 1.9X0X0X0X0X0X0X0X9X0X0X0X9X8Xe.J ",
"<.2.9X0X0X0X9X9X0Xt.t.0X8X8X8X0X9X8Xe.L t.9X0Xe.e.e.Q +.U.-XU.D.W G y.8Xy.8X9X0X8Xy.8X0X0X0X9X8X0Xt.8X0X8X8X8X1.' V.U.-X&XC.U G e.8X9X9X9X0X9X8Xt.t.8X8X8X8X8Xt.",
"J 2.0X8X0X0X9X9X0X0X9X8X9X9X9X0X0Xt.L H e.t.t.L e.e.=._ +.S.F.&.-.<.8X9X0X0Xr.^ ;.t.0X8X0X0X9X0X0X0X9X8X8X9X9X8X:.W F.U.F...^ H L e.^ ^ G e.9X9X9X8X9X9X9X0X8XJ ",
"J 2.9Xe.t.0X9X8X9X0X9Xt.t.8X0X0X0Xe.e.e.e.e.e.e.e.t.t.=.R t +.:.t.0X0X9X0X3.>.| _ :.t.e.t.0X9X8X0X0X9Xt.t.9X9X0Xy.=. .B.| / J L e.:.` T ~ =.y.0X0X0X0X9X0X0X8X2.",
"2.2.e.J e.8X8X8X9Xe.L L H e.9X0X0X0X9Xt.t.8X0X0X0X9Xt.:.%.H.G.>.<.9X0X2.G ~ Y.R.T.%.D H e.8Xt.8X9Xe.J L L e.9X9X9X9X-.~ =.r.9Xt.;._ T.E.K.] ;.9X0X0X0Xt.e.8X8X2.",
"<.2.8Xe.e.e.e.t.t.L e.t.e.H 8X0X0X9X9X9Xt.t.8Xt.9X9X=.%.Q.wXwX*.' H 8XJ ^ T E.eX/.*.I H L e.e.t.t.e.e.t.H L t.0X0X0Xt.;.J t.9Xy./ | (.eX(.$.^ 9X2.J t.e.e.e.2.2.",
"J t.0X8Xt.e.t.t.e.t.t.8Xe.L 8X0X0X9X9X9Xt.e.e.-.r.y.Q O.>XpXtXS.T A 2.2.=.| T.wX(.*.! e.8Xt.t.t.e.e.t.8Xe.L 9X9X0X9X9X9Xt.t.8Xt.-...R.wXR.&.^ 8X=.! ;.e.t.J J <.",
"e.t.8X9X0X0X8X8X8Xe.L L H e.0X9X8X8X9X0X0Xy.-. .%.r.A +.~.rX2XD.) ;.0X0X8X:.&.C.@.>.<.9X0X0X9X8X8Xe.e.L H e.0X9X8X8X9X0X0X0X0X8Xt.3.@.O.&.3.y.y.#.{ ~ r.9Xt.2.2.",
"<.t.0X0X0X0X9X0X0X9Xt.t.t.9X0X0X9Xt.8X8Xe.,.u.OX X] 0 X.U.<X-XS.#.H <.;.1.2.:._ ^ 1.9X0X0X9X9X0X9X9Xt.t.t.8X0X0X9Xt.8X9X9X8X8X9X0Xt.~ U ^ e.1.,. XOX X,.r.t.t.2.",
"<.t.0X9X8X9X9X0X0X0X0X0X0X0X0X0X9Xe.t.e.A ..OXBXhX*.w e I.-X*XD.) G / W #.1.8X2.2.2.0X9X8X8X9X0X0X0X0X0X0X0X0X0X9Xe.e.8Xe.J <.8X9Xt.;.;.H G Q +.gXkXqXu.! e.t.<.",
"<.2.t.8X0X0X8Xt.y.0X0X0X0X0X9X9Xt.t.e.H M +.2XcXfXL.q 0 +.I.S.T I ~ Y.R.Q.%.:.8X0X8X2.8X0X0X8Xt.8X9X0X0X0X0X0X9Xt.e.e.e.e.<.;.^ =.J J e.t.G R D.fXcXdXC.I r.t.<.",
"<.2.8X0X9X8X8Xt.8Xt.t.t.9X0X9Xt.t.8Xy.;.M O.2XlXfXI.E M ~ o. .! m T Q.;X(.o.Y H 8X9X8X9X9X8X8Xt.t.9Xt.t.9X0X9X8Xt.9Xt.e.t.:.'  .` G ;.2.2.G E V.dXlXeXG.P 1.2.J ",
"J 2.9X0X8XJ L 8X8X8Xe.L t.0X9X9X9X0X9Xt.^ O.U.yXeXP.( S G ! ! H m 9 G..XY.r 6 b H 8X9X0Xt.J e.t.8Xt.e.e.8X9X9X8X9X0X9Xy.t.,.G.W.G.~ G H H D U V.wXpX>XO.P 2.8XJ ",
"J t.9X8XJ J J 2.0X0X0X9X0X9X8X9X0X0X0X8X^ +.U.eX>XS.R S H H H J v + @ 6 @ + + + n H 8X2.<.H H t.0X0X9X9X9X9X8X9X0X0X0X9X~ G.).uX).O.Q G H F U B.wXuX>XO.I 2.8XJ ",
"2.t.9X8X8X2.J 2.0X0X0X9X9X9X8X0X0X0X0Xy.! X.U.3X>XS.W G J S Z Z b < > X X > 4 p < n B B F e.e.t.0X0X0X9X0X9X8X0X0X0X0Xy.9 J.<XaX1XD.E G <.H ( V.;XuX;XO.U 8X8X2.",
"J t.0X0X0X0X9X0X0X8Xt.e.8X0X0X0X0X9X9Xt.! o.U.-X&XS.] H H %   o < 6.0.z l g.j.g.K ; o O N e.8X0X0X8Xt.t.8X0X0X0X0X8X0X1.U C.>XdX:XV._ <.9X<._ V./.rX=XO.P <.t.J ",
"H 2.8X0X0X2.0X0X9X8Xt.e.9X0X0X0X8X8Xt.e.1.] C.P.L.&.=.V % > 1 4 f 0.'.^.I.].l.b.d.5.> 2 ; & L 8X8X8Xt.e.8X0X0X0X8X8Xt.2.;.%.K.U.L.#.:.8X0X1._ V.=XrX/.O.I 1.J H ",
"J 2.8X0X8X2.8X8X9X8Xt.e.t.0X9X8Xt.8Xt.t.8X:._ O.@.=.D m < d 5.d.9.7.^.wX;X_.4X5Xb.z.g.g.5.* D e.9Xt.e.e.t.9X9X8Xt.8X2.t.8X:.| O.&.;.8X0X9XH ( V.=XrX=XC.U <.J H ",
"J 8X0X0X8X8X2.8X0X8XL e.e.e.e.e.t.9X0X0X8X<.G / ^ D I #.w.g.d.x.h.7.I.^.^.].4X7X7X7X7XbXbX X../ t.e.e.e.2.2.2.2.2.9X0X0X8X;.D ^ :.y.0X0X9XH E V.*X<X*XB.U 2.8X2.",
"<.t.9X9X8Xt.8X8X8X8Xt.e.t.9Xt.t.8X9Xt.y.8X8Xt.J n # 8..X#Xl.s.j.x.l.]._._.q.c.7X7XmXnXNXBXNX#X8.A H e.e.8X9Xt.t.9X9X8Xt.8Xt.e.L H t.9X0X0X;.~ t U.*XU.r I 8X9X2.",
"H e.t.8X8X8X0X9Xt.9X8Xt.9X0X0X0X9X0Xt.e.8X9X8XG % . 7.OX#X9.p.d.z.k.h.x l x l.b.mXnXNXMXMXNX6Xq.< A H e.8X9X0X9X9X9Xt.e.9X9Xy.-.;.2.8X0X0Xe.-.) J.P.A.W G 9X9X<.",
"J <.t.t.9X0X0X0X0X0X0X9Xt.e.0X8X8X0X0X8X8Xe.S + = 3 l n.M.6.p.a.d.j.z.l.0.t x l.bXMXMX5Xc.v.b.j.f + b t.t.t.0X9X9X0X9X8X9X:._ } ) 1.2.8X0X9X8X1.@.t E :.9X0XJ J ",
"J J e.e.t.9X8X0X0X0X0X8Xt.t.0X0X0X0X9X8X0Xt.S o . 7 J.R.L.l u d p.p.a.q.{.@X{.].oX$X5Xx.f.z.b.z.f + $ e.t.t.9X0X0X0X9Xy.=.&.Y.E.T.%.-.<.8X8X8X8X-.' =.2.0X0XJ F ",
"J J J J e.t.t.8X0X0X9Xe.t.8X0X0X0X9Xt.8X0Xe.Z + X w W.wX;XF.l h s.h a _.+XkXgXJ.7.l.c.x.j.z.c.k.g + # F t.8X9X0X9X9X8X<.! *./.yX(.} ~ H H H e.8X2.<.2.8X0X0XJ H ",
"2.<.J <.e.L t.9X0X9X9X9Xt.t.0Xt.e.e.t.t.8XS & 1 d l `.R.:X*X+X#X$XoX_.D.).cXdXS.z a.z.x.x.k.x.g.j < + c F 8X9Xt.e.2.t.<.;.&.T.).Q.#.3.2.;.^ =.t.<.<.9X0X0X8X8XJ ",
"e.<.2.t.8Xt.t.8X8X8X8X8X8X9X8Xt.8Xt.t.<.S K p 6.d.9.z F.~.2XgXgXgX%XP.F.E.aXwXS.l a.z.z.k.j.g.d.j f 1 * N G t.8Xt.8X8Xt.<.>.&.*.&.:.8X1.#.@.%.:.H <.0X9Xt.e.t.2.",
"J 2.8X8X9X0X8Xt.t.e.t.9X8X0Xt.8X0X0Xe.D K 1 d.x.h.9.k _.}.$X$X$X%X$X`.V.I.tX;XF.l a.f.g.g.g.5.j j 5.j d 1 ! ;.8X0X9X0X0X2.<.=.Q -.t.<.4.K.!.T.' =.<.8X2.J 2.J J ",
"F J 2.2.2.8X9X9X9Xt.t.0X9X0X0X0X9X9XS # 1 s.x.x.h.k S.}.oX9.6.d.d.6.l n.U.eX/.m.t h 6.5.j a.j j j 5.d.g.9.8.~ ;.0X9X0X9X8X2.8X8X9Xt.~ *.;XyX(.} / <.0X8X8X0X2.J ",
"J J <.Q -.<.e.t.t.e.t.9X8X8Xt.t.t.t.B o , d.x.x.0.e M.].9.j 4 d p.d i e P.-XU.D.D.[.w.5.d g j j 5.j f.s.4X$X8.^ F t.8Xt.J 8X8X8X8Xe.A ..T.(.Q.&.:.t.t.e.2.0X8XJ ",
"<.;./ { ..-.;.H L e.t.8Xt.t.t.e.e.e.n o > g g.x.q.n.t a d s s g p.g h n.P.*XP.m.I.%X6X6.g j j j j g s.6.bXhX Xm $ H J J J t.t.2.J J H / W X.&.1.8X8X2.J J t.8X2.",
"S ( G.(.R.*.Q G e.e.e.t.0X9X0X0X9Xt.B o > d 9.q.'.W.K.r y s s d 4 g [.}.*XU.m.z [.oX$XoXw.j p.p.s d 9.$XqXbXw.< O J J J t.8X0X8X8X8X8X2.-.Q -.y.9X9X8X2.J 8X2.J ",
"B E K.tX;XG.~ G t.t.t.8X0X0X9X0X0X8XZ O > d x t E.tX).Z.7 u , s d s.oX@X+Xm.z a 5.w.oX$X#Xh.j s s h [.qX$Xw.p ; v e.9X8X0X0X0X0X0X9X0X9Xt.H e.t.t.t.9X8X8X8XL J ",
"C R G.).(.&.>.e.0X9X8X9X0X0Xt.t.8X9XZ O 2 1 l t ^.aXuXI.w u 3 , h w.#XoX[.l h g i.g w.$X$XoX9.f j [.oX#X9., O v F 9X0X0X0X0X0X0X0X0X0X9Xy.e.e.e.H <.9X0X8Xt.e.2.",
"G =.'  ...~ ;.t.t.e.e.t.t.t.9X9X9X8XZ + ; > i e ^.pXeXP.7 u 2 4 q.|.[.9.p g j 5.g g g 9.[.#Xq.0.q.{.[.a : ; b H 8X9X8Xe.t.t.8X8X9X0X0X9Xt.J H e.H H 8X0X0Xt.J G ",
"H J H Q Y P ^ ;.L L H L H L t.8X0X8XH V + @ y e !.uX<XD.w u 3 4 7.`.7.y 2 s d d f d 4 s 6.q.[.[.[.[.a : o $ F t.0X8Xt.t.e.t.e.e.y.9X0Xy.;.! -.t.t.t.9X0X0XJ H F ",
"H J J <.' { E / H H L J L J J L 8X8X9Xt.B % 5 e I.sX=XD.7 u 4 u l t t p 3 s s s s s s , u d {.|.{.p . . % S F L 8XL y.0Xy.e.;.H e.0X0X3.` { #.9X9X8X0X0X8Xe.G G ",
"H H ;.^ u.@X#X&.! G L L L t.t.8X0X8X0X0Xt.A 8 r S.U.S.r y > u i A.I.L.z y u , s u 3 > , h 4X*X6X].>     b G L L F n H 0X;.^ ^ t.0X9X=.] .X%XXX] =.e.e.9X9Xt.^ 8 ",
"H H D T OXxXfXT.9 =.e.e.t.8X9X0X0X8X0X0X0XL A a e m.t y ; > 6 w ^.tX;XV.7 u 3 , 3 , 3 f 0.{.+X|.0.,   O N L t.e.Z + n :.4.$.%.3.0Xy.I *.gXxXgX} P S H t.9Xr.%.X.",
"H F ^ t +XcXzXOX0 :.0X0X8X8X0X0X0X8X9X9Xt.t.y.A 0 w i , ; : 7 e ).aXyXD.7 , , , 3 , h ].].].].z l y @ b G t.0Xy.H b b ` T.^.Q.` ;.y.Y H.fXcXfXn.6 % S t.r._ .XgX",
"M C ^ [ !.aXjXE.0 =.8X0X8Xt.9Xe.<.9X9X0X0X0X0Xe.^ p y > ; : 7 e ).pXwXS.w d s , > a 0.].0.a , > y y I e.e.t.0Xt.<.H ! { (.rX(.$.^ 9XR G.rXaXwXn.5 % G H >.H.hXVX",
"* C =.[ I.yXeXI.0 D 8X0X8Xe.:.^ ~ y.8Xt.0X0X0X8Xe.^ * : : > 6 e ^.rX;XF.k z h u d x ].0.a : = = @ m ;.0X8Xt.8Xt.t.0X-.) T.(.Q.#.=.2.U O.,XpX;Xt 6 * <.;.' I.fXvX",
"M D :.{ I.,X>XL.E ^ 8X9X8X1.~  .+.:.H H e.9X9X<.;.e.Z % - : 7 e !.,X/.S.M.|.x d x ].].u : : - + n G t.9X8Xt.8X0X9X8X<.^ T { W -.<.1.Y O.wXpX;Xn.( H 2.G _ F.,XlX",
"8 ^ 8X' *.I.S.&.-.t.8X8XH >.G.E.Q.$.* * S H <.U ! L H n + - y e ~.rX>XS.k 0.z z |.|.].: = : + b L 8X0X8X8X0X0X0X0Xt.<.H A ! ^ H 2.;.9 Z.1XjX,Xn._ <.8X;.R S.,XaX",
"P =.9XJ ' X.{ >.9X0X9Xe.^ | ^.dXwXA.7 @ $ C >. . .:.1.H n % 6 t !.,X=XV.7 y h ].|.|.z @   + b H 9X9X9Xt.t.9X0X0X0Xt.2.<.H H J <.t.e.Y C.=X1X/.X.>.2.9X<.' Z.=XiX",
"G ;.e.J G ! ^ ;.9Xe.L H P t <XjXjXI.q % v R Y.(.R.*.:.2.1.S B / G.I.S.r X . > l ].].a * v b F e.9Xe.L L L e.8X0X0X8X8Xt.t.9X9X0X9Xy.:.,.J.I.H._ 1.9X0X2.G ` H.U.",
"H <.t.e.;.G H e.e.e.e.t.I { !.1X,XA.) D C | L.yX).O.>.<.8XJ H 1.' { q @ o o + @ p E U D S F L t.t.e.e.e.G S D H t.8X9X8Xt.8X9X0X0X0X0X:.` } #.r.<.2.8X2.;.^ ) [ ",
"<.2.9X8Xt.t.t.e.e.e.t.9XG Q O.L.L.| 3.9X<.] N.(.Q.&.:.<.2.2.9X9X;.M m c v $ v v * N ;.e.t.t.t.e.e.e.8Xt.S $ % n G t.0X9Xt.t.8X9X0X0X0Xt.D M =.9X2.J 2.8X<.J C P ",
"<.2.9X0X0X0X9X9X8X2.<.J H ;.~ | { :.8X0X0Xy.,. ...-.1.0X0X0X9X2.y.y.8X8XL J J 8Xt.t.t.9X0X0X9X8Xt.e.L H b + o + n e.0X0X0X0X0X8X8X9X9X9X9X0X9X0X0X0X8X8X2.2.2.1.",
"<.2.9X9X0X0X9X0X0X9Xt.2.t.t.1.-./ <.8X0X9Xt.<./ ~ U =.2.9X9XH N F t.8X0X0X0X0X0X0X9X0X0X9X0X9X0X0X9Xt.e.G N b N D e.8X9X9X9X8X9X9X9Xt.9X8X9X9X9X0X2.-./ :.2.8X2.",
"<.2.0X9Xt.e.e.t.t.0X0X0X0X0X8X8X8X<.e.t.t.e.<.1.] +.W ^ G G n + & S 2.9X0X8X0X0X9X9X0X9X9X8X9X9X0X0X0X0X9Xy.t.t.t.e.e.t.t.e.e.0X0Xt.t.e.e.e.t.t.2.-.W { #.1.2.<.",
"<.2.2.8XH b % % N e.0X0X0X0X0X2.e.t.e.e.<.<.<.'  XqXXX@.* # # $ V H 2.8X9X8X8X8X9X9Xt.8X0X0X9Xt.8X9X9X0X0X0X9Xt.t.e.e.e.e.t.8X0Xy.e.e.t.t.t.J J ! | R.).Q.W ^ H ",
"<.2.8X8XG $   + c H t.e.9X0X9Xt.t.9Xt.e.t.<.-. .@XxXfX`.5 + $ B F J 8X8X8X8X8X8X9X8X8X9X8X8X8Xt.t.8Xt.t.9X0X9X9Xt.9Xt.e.t.9X0X0X8XJ F G H L L H M } ).eX(.T M H ",
"J 2.0X9XH c # $ Z L e.e.t.9X9X8X9X0X9X9X0X2./ B.2XVXxXI.7 # B ;.<.<.8X9X8X8X9X9X8X9X0X0X8XJ L 8X8X8Xe.L t.0X9X9X9X0X9X9X0X0X9X0X8Xe.B c n G L H C W Q./.T.( D J ",
"<.t.9X8XJ F Z G t.9X9X8X0X9Xe.e.t.0X0X0X0Xt.^ X.^.aXdXL.9 C J 2.t.t.t.8X8X9X0X9X9X9X9X8XJ J H t.0X0X0X9X0X0Xt.9X0X0X0X0X0X0X9X0X0Xt.b O # S J e.<.:.` | #.3.2.<.",
"2.2.9X9Xt.2.2.8X0X0X0X9X0Xy.=./ ' y.0X0X9X<.^ t R.tX1XN.P ;.9X9X9X9X9X8X8X0X0X0X0X9X9X8X8Xt.J t.0X0X0X9X9X9X8X9X0X0X0X0X0X8Xt.9X0X9XD & # c S t.0Xt.=.! =.8X8X<.",
"J 2.0X0X0X0X0X9X0X8Xt.2.8X3.' o.+.1.t.9X9XH ! t U.rX>XK.T 1.0X0X0X0X0X9Xt.8X8X0X8X9X0X0X0X0X0X9X9X9Xt.e.t.0X0X0X0X9X8X9X8Xt.2.8X9X0X0XH b # b 8X0X0X9Xy.t.t.2.<.",
"J 2.8X0X9Xt.9X0X9X8X8X<.;.>. X%X%X8./ H 9Xe./ B.U.<X-XS.0 ;.0X0X0X9Xt.8X8Xt.2.2.y.8X8X0X9Xt.9X0X9X9Xt.e.9X0X0X0X8X8Xt.e.9X0X9X2.t.0X0X9XG Z G 9X0X9X8X8X8Xe.J H ",
"J J 8X0X8X<.8X9X0X8X2.<.M | @XxXkXH.E G 9Xe./  .P.*XU.H.( ;.9X0X0X8Xt.0X0Xt.2.8X8X8X8X0X8X2.8X9X9Xt.t.e.t.9X0Xt.t.8X8Xt.0X9X8Xt.9X0X0X9Xt.e.e.9X9X8Xt.0X0Xe.F Z ",
"2.8X0X0X9X8X2.8X0X2.2.<.I } 2XcXlXI...H t.e.G / o.D.C.%.;.<.2.9X9X0X0X0X0X8X0X0X0X0X0X0X9Xt.2.8X0Xt.L e.t.t.e.e.t.8X0X0X8X2.<.9X0Xt.9X0X0Xt.e.9X9X0X0X0X0Xe.Z # ",
"J 2.9X9X8X8X8X8X8X8X2.J I { :XpXfXS.{ G 2.9Xt.<.` r E -.8X2.2.0X0X9X9X8X2.0X0X0X9X9X9X9X8Xt.8X8X9X8Xt.L 8X8X8X8X8X9X8Xt.8X8X8X9Xt.t.8X0X0Xt.t.9X0X0X9Xt.2.t.V O ",
"J <.8X8X8X8X9X9X8X9X9X<.! { !.rXwXS.T D 2.0X0X8XM @ * H 0X9X8X0X0X0X8XJ J 0X0X0X8Xt.8X8X8X8X0X9Xt.0X9Xe.8X0X0X8X9X9Xt.2.t.0X0X8Xt.t.8X0X0X9X9X0X0X9X8Xe.J 8XS c ",
"J <.2.8X8X0X0X0X0X0X0X0X! } !.1X,XS.| G t.9Xe.J n o # S 0X0X9X0X9X8X8X8X9X0X8X2.8Xy.t.t.8X0X0X0X0X0X0X0Xe.t.0X9X8X0X0X8X9X8Xt.L t.8Xt.9X0X0X9X0X9X8Xt.8X9X9X2.F ",
"J J 2.J 8X0X9X9X0X0X0X8XI } U.-X-XD.{ ;.8X9Xt.J n   # B t.t.t.0X0X9X8X8X0X0X8XJ 8Xt.<.e.t.9X9X9X0X0X0X9Xt.t.0X0X0X0X9X9X9X9Xt.<.t.9Xt.t.t.t.8X0X0X9X8X8X0X0X2.F ",
"J J J J J 8X2.8X0X0X9X<.^ | I.&XU.V.W ;.0X0X<.H n + c S <.2.8X9X0X0X8X9X0X0X8Xe.9Xt.J J e.8Xt.9X0X0X8Xt.t.8X0X0X9X9X8X8X0X0X8Xt.t.9X9Xt.e.e.t.9X0X0X8X9X0X0XJ H ",
"<.J J J 2.J 8X9X9X9X8X8X;.-.[ S.S.W ^ <.0X8XG & # n H t.8X9X9X8X2.J 0X0X0X8X9X0X0Xt.J <.L e.t.8X9X9X8X8Xt.8X9Xt.e.e.e.t.0X0X0X8X9X0X0X9X9X9X9Xt.<.e.0X0X0X8X2.J ",
"J J J J J J 8XJ 2.J <.2.2.;.Q T | =.<.2.e.J Z # $ F <.t.t.t.t.t.H H t.2.J J 2.8Xt.<.J <.<.J <.2.e.J 2.2.e.2.e.2.e.2.e.e.t.t.t.t.t.t.t.t.t.t.t.t.J H t.t.J J J J ",
"F G J J 2.J J J J H J J J J S M M <.e.<.H F Z # b H J J J J J 2.H H J H F H J J J J J J 2.<.J H J H H J <.J J J e.2.2.2.J H J t.e.e.L e.L H e.t.H G J H F H F F "
};
