/* XPM */
static char *Group_10_17__resized[] = {
/* columns rows colors chars-per-pixel */
"80 80 229 2 ",
"   c #1B1A1B",
".  c #251B19",
"X  c #1D2E14",
"o  c #222C15",
"O  c #26251A",
"+  c #25241C",
"@  c #2A241D",
"#  c #262A19",
"$  c #382218",
"%  c #253716",
"&  c #263B16",
"*  c #263218",
"=  c #2A3419",
"-  c #2B3D19",
";  c #333916",
":  c #373819",
">  c #1D1C24",
",  c #241E24",
"<  c #2B1E22",
"1  c #381F23",
"2  c #2D2223",
"3  c #2A2627",
"4  c #2D262B",
"5  c #332526",
"6  c #3B2525",
"7  c #342A25",
"8  c #332629",
"9  c #36292C",
"0  c #3C2C2D",
"q  c #383424",
"w  c #352C36",
"e  c #3D2E31",
"r  c #3D3231",
"t  c #3D323D",
"y  c #482717",
"u  c #592D16",
"i  c #423A1C",
"p  c #533C14",
"a  c #6C3811",
"s  c #763B19",
"d  c #482C25",
"f  c #422D2B",
"g  c #592C24",
"h  c #473421",
"j  c #42312E",
"k  c #4C352E",
"l  c #573628",
"z  c #412F32",
"x  c #443332",
"c  c #4A3531",
"v  c #4B3B35",
"b  c #44363B",
"n  c #453938",
"m  c #4C3B3B",
"M  c #533A31",
"N  c #5A3D31",
"B  c #523E3B",
"V  c #643A2D",
"C  c #693C28",
"Z  c #773D29",
"A  c #2B4816",
"S  c #2D4419",
"D  c #354918",
"F  c #2E5319",
"G  c #3A5617",
"H  c #33551A",
"J  c #3C5519",
"K  c #345B1A",
"L  c #3C5C1A",
"P  c #37631B",
"I  c #3B641C",
"U  c #3D6D1D",
"Y  c #3F711F",
"T  c #3F7320",
"R  c #4D4316",
"E  c #444B15",
"W  c #474B18",
"Q  c #554816",
"!  c #5A4C16",
"~  c #485617",
"^  c #445318",
"/  c #4C5418",
"(  c #445C1A",
")  c #4C5C1A",
"_  c #595417",
"`  c #535518",
"'  c #545C19",
"]  c #5C5B19",
"[  c #684515",
"{  c #634B16",
"}  c #6B4C16",
"|  c #7A4416",
" . c #744D16",
".. c #7C4C16",
"X. c #6B5217",
"o. c #685618",
"O. c #635B19",
"+. c #755417",
"@. c #7B5317",
"#. c #7B5717",
"$. c #745B19",
"%. c #7C5B18",
"&. c #43641C",
"*. c #4B641C",
"=. c #436C1D",
"-. c #4B6D1D",
";. c #54631B",
":. c #5A651B",
">. c #536C1D",
",. c #41741F",
"<. c #49741F",
"1. c #43781F",
"2. c #50701E",
"3. c #65611A",
"4. c #7B6019",
"5. c #55472F",
"6. c #56423D",
"7. c #5B453C",
"8. c #6A402C",
"9. c #73442D",
"0. c #634332",
"q. c #6B4A35",
"w. c #614639",
"e. c #644A3B",
"r. c #7D4632",
"t. c #764933",
"y. c #744C32",
"u. c #785538",
"i. c #4C6C20",
"p. c #427620",
"a. c #4A7620",
"s. c #457C21",
"d. c #497C21",
"f. c #4A3D49",
"g. c #4F4043",
"h. c #584645",
"j. c #5E4A44",
"k. c #5B4B51",
"l. c #624D46",
"z. c #624F4A",
"x. c #655047",
"c. c #65524C",
"v. c #6A554C",
"b. c #6D584F",
"n. c #73594A",
"m. c #604F50",
"M. c #6E5951",
"N. c #725D52",
"B. c #7C644C",
"V. c #786458",
"C. c #833700",
"Z. c #824D16",
"A. c #8C4719",
"S. c #815916",
"D. c #895817",
"F. c #835D18",
"G. c #925411",
"H. c #965A17",
"J. c #A04E16",
"K. c #A55B17",
"L. c #8F6219",
"P. c #996518",
"I. c #9C6418",
"U. c #A66617",
"Y. c #AE6710",
"T. c #A46219",
"R. c #AC6318",
"E. c #AC6A19",
"W. c #B6671A",
"Q. c #B46C19",
"!. c #B57219",
"~. c #BC7319",
"^. c #BB781A",
"/. c #82422A",
"(. c #954A29",
"). c #995626",
"_. c #864A34",
"`. c #884932",
"'. c #835333",
"]. c #8B5533",
"[. c #855C35",
"{. c #8C5B35",
"}. c #845E3A",
"|. c #925A34",
" X c #985B35",
".X c #A5552E",
"XX c #AC5629",
"oX c #8C6236",
"OX c #966435",
"+X c #9C6C37",
"@X c #946A3A",
"#X c #9A6B38",
"$X c #927031",
"%X c #A36B36",
"&X c #B66B35",
"*X c #AC7536",
"=X c #A67338",
"-X c #B57A37",
";X c #C66C1C",
":X c #C37B1A",
">X c #C9781A",
",X c #C3732E",
"<X c #85684A",
"1X c #8C714E",
"2X c #A67B45",
"3X c #8A7667",
"4X c #478022",
"5X c #498423",
"6X c #4C8A24",
"7X c #588831",
"8X c #628135",
"9X c #778045",
"0X c #BD8036",
"qX c #CA831A",
"wX c #D1831B",
"eX c #D48B1B",
"rX c #D88B1C",
"tX c #D8941A",
"yX c #CB8736",
"uX c #D18E35",
"iX c #D19739",
"pX c #E29834",
"aX c #AA8446",
"sX c #B88E46",
"dX c #BC944C",
"fX c #C99C48",
"gX c #DCA941",
"hX c #E2AD43",
"jX c #F0BB48",
/* pixels */
"F P ,.U Y Y Y Y 1.Y Y Y 1.Y 1.Y T T s.1.U U Y s.s.Y 1.1.T U U U T T s.Y U s.p.U P U Y Y Y Y Y Y 1.U U Y Y 1.1.Y Y 1.1.Y Y U Y 1.s.Y 1.,.Y U U Y Y Y s.Y Y 1.Y K ",
"I U Y ,.Y Y Y Y Y Y Y 1.1.1.1.Y T T Y Y Y Y T s.Y Y Y Y U p.s.s.s.s.T U Y s.d.s.s.T Y Y ,.,.Y Y Y Y 1.1.s.T 1.Y Y Y Y Y U Y 1.1.T Y Y Y U s.s.d.s.T Y Y Y 1.Y U ",
"1.1.,.1.4Xs.Y Y Y 1.4X4X4X4X4XY T s.T T Y s.s.T T T Y T p.4X6X6X6X4Xp.U Y s.5X6X6X4Xp.s.4X1.Y Y 1.Y 1.4Xs.s.s.T s.s.T Y Y s.s.s.Y T Y Y T 4X6X6X6X4XY Y Y 4X4X1.",
",.1.5X6X6X5XY Y 1.Y Y 4X5X6X6X6X5X4XT T s.5X6X5X4Xd.4X5X6X4X4X5X5X5X4Xs.T 4X5X4X4X5X5X6X6X4X1.Y 1.Y 1.4X5X6X6X6X5X4XT Y s.5X5X5X4X4X4X5X5X4X4X5X6X5X5X1.Y 5X1.Y ",
"Y 1.5X5X5X5X5X4X4Xs.s.5X6X6X6X5X5X5X4X4X6X6X6X6X7X7X6X6X6Xd.d.d.s.d.5X4X4X4X4X5X4X4X4X4X5X6X5X4X5X1.s.5X6X6X6X5X6X5X4X4X5X6X6X6X6X6X6X6X6X4Xs.d.s.s.5X4Xd.4XY Y ",
",.,.,.1.5X6X6X6X5X5X5X5X6X5X4X1.4X6X6X6X6X6X6X5X8X9X7X4X5Xa.p.s.T T 5X6X5Xs.4X6X5Xs.Y T 4X6X6X6X5X6X4X5X6X6X4Xs.4X6X6X6X6X6X6X6X6X6X6X5X4Xs.T p.Y Y 5X6X5Xs.s.T ",
"U Y ,.1.1.d.4X4Xs.T s.T T s.5X6X5X5Xd.T d.s.<.( _ ..Q &.d.s.p.p.U Y 4X6X6Xs.s.T s.s.Y s.4Xs.s.s.1.s.Y s.T s.5X5X5X5Xs.s.T s.5X5X5X6X6X6X5Xs.s.s.U Y d.6X6Xs.Y P ",
"U U ,.1.d.,.Y Y Y Y Y Y Y Y 1.5X6X4Xs.s.s.T ( ! G.Y.Z._ =.1.d.5XT s.5X6X5Xs.Y Y s.s.T 4Xd.Y T Y Y Y Y T Y Y s.5X5X4Xs.s.s.s.s.T s.5X6X6X6X4X4X4Xs.1.5X6X6XT U P ",
"U Y 1.4Xs.Y Y Y Y T Y Y Y Y Y T 5X4X5X6X6XU W Z.:XtXQ.@.^ d.6X6X5X5X6X6X5XT U p.p.p.p.d.s.U Y Y U T T T T U U s.5X4X5X6X6X4XT Y s.5X6X6X6X6X6X6X5X6X6X6X5XY U Y ",
"U Y ,.1.s.T Y Y Y Y Y Y T s.T 5X5X4X5X6X6Xs.=.] L.Q.D.:.-.d.5X5Xs.T s.5X6Xs.) W &.T p.s.s.s.Y Y U T T T T s.s.s.5X4X6X6X6X5Xs.5X6X6X6X6X5X5X5X5Xs.T T 4X5X4Xs.1.",
"Y Y s.4X5X4XT T s.s.s.s.4X4X6X6X6X5X6X6X6X5Xd.=.O...] =.s.d.5X5XT U U T d.>.$.@.] *.U s.6X4X,.Y T s.s.s.s.4X5X6X6X5X6X6X6X5X5X6X6X6X6X5Xs.d.5X5XT U Y 4X6X5Xd.Y ",
"1.Y T 6X6X6Xs.s.4X5X6X6X5X5X6X6X6X4X5X6Xs.4X5Xs.&.( <.s.Y 4X6X6XT U Y Y *. .U.:XH.{ L d.6X6Xd.s.4X6X6X6X5X5X6X6X6X4X5X6XT 4X5X4X5X6X6X4XY 5X6X6XT U Y 5X6XY Y 1.",
"Y Y Y 4X6X6X6X4XT s.5X6X4Xs.6X4Xd.5X6X6X5X6X5X5Xd.s.5Xd.p.,.d.6X5X4X5Xp.) | ^.rXR.{ G ,.5X6X6X4XT s.5X6X5Xs.6X5Xs.5Xp.p.4X5X6X4X5X6X6X6X4X6X6X6X5Xs.5X6X6X1.Y Y ",
"U Y 1.4X5X6X6X5XY T s.6X4Xs.5X4Xs.5X4Xd.6X6X6X5X5X6X6Xd.*.) *.5X5X6X6Xd.*.o.I.!.H.] &.1.5X6X6X5Xp.T s.6X5Xs.5Xd.p.s.;.' d.5X6X4X5X6X6X6X6X6X6X6X6X6X6X6X5X4X1.Y ",
",.1.4X6X6X6X5X5X6X4Xs.6X4X4X5X6X6X5Xp.U s.5X6Xp.,.s.4X>.X.| o.<.s.s.d.s.d.<.{ [ *.<.1.5X6X6X5X5X6Xs.s.5Xd.s.5X6Xd.*. .Z.` a.6Xs.T 4X5X6X6X6X6X4Xs.s.4X4X4X5X4X1.",
"Y 1.6X4X6X6X5X5X6X6X5X5X4X5X5X6X5Xs.p.U p.s.s.p.Y ,.( $.U.^.U.{ &.s.4X5X5X5Xi.) =.4X6X5X5X6X6X5X6X6X5X5X5X5X5Xp.;.#.Q.^.H.] &.U T T s.4XT d.5X5X5X4X4X5X6X6X4X1.",
"Y 1.5X1.d.6X5X5X5X6X5Xs.s.4X5X6X6Xs.T T s.Y s.T 1.<.E +.:XeX!.[ *.s.6X6X5X6X5X4Xs.5X6Xs.s.6X5X5X6X5X5Xs.d.4X5X=.' D.:XrXT.} J U s.s.s.s.s.s.5X6X6X6X6X5X6X6X4X1.",
"1.1.1.Y Y 4Xs.4X4Xs.T T T p.5X6X6X5X4Xd.4X5X6X6X5X5X<.3.H.K.L.;.<.5X6X4XT 5X6X6X6X5XT T T s.s.s.5Xs.T T T p.5Xd.-.o.I.E.+.;.d.5X6X5X5X6X6X6X6X6X6X6X6Xs.T 5X4XY ",
",.1.5X1.Y T s.s.s.T p.s.T T d.6X6X6X5X5Xs.d.5X6X6X6X6X2.O.X.] <.Y s.4XT T s.5X6X5Xs.s.T s.p.s.s.s.p.T s.T T s.5Xd.-.O.+.' =.d.6X6X6X6X5Xs.4X5X6X4Xs.4Xs.Y s.1.1.",
"Y 1.6X4Xd.s.s.s.T s.s.4Xp.T 4X5X6X5X6X5Xs.s.4X6X6X6X6X1.I L =.5Xs.Y s.4Xs.Y s.6Xs.6X5X5Xs.s.s.p.p.s.s.4Xp.T 4X6X6Xd.*.( =.s.4X5X6X6X6X5Xs.d.5X5X1.Y s.4X4XY Y 1.",
"T s.4X5X6X6X5X4X4Xs.Y Y T T 6X5X4X4X5X6X6X6X6X4X4X6X5X5X4X1.4X6X6X6X6X6X6Xs.5X6X6X5Xs.6X6X6X5X5Xs.s.T U U s.6X5X4Xd.d.4X6X6X6X4X4X5X5X6X6X6X6X6X6X6X6X6X6Xs.s.Y ",
"T d.5X6X6X5X5X6X6X5Xs.s.s.4X6X6X5Xs.s.6X5X5X4X5X5X5X4X1.-.' >.4X6X5X4X6X6X4X5X6X6X6X5X6X6X5X5X5X6X4Xs.s.s.4X6X6X4Xs.4X6X5X4X4X4X5X4X4X5X5X5X5X5X5X5X4X6X6X4X1.1.",
"Y 4X6X5X5X4X5X6X6X6X6X6X6X6X6X6X5XT s.s.s.Y Y 6X6X1.1.*.{ | X.-.=.I U ,.s.T T p.U T s.5X4X5X5X6X6X6X6X6X6X6X6X6X5XT s.4Xs.Y Y 6X6Xs.s.p.T p.s.s.s.s.,.5X6X4Xd.1.",
"1.1.s.4X6X6X4Xs.4X5X6X6X6X6X6X4Xs.s.s.T T s.5X6X4X=.E X.!.^.U.{ ; & : : ; X X % X S P s.6X6X5Xs.s.6X6X6X6X6X5X4Xs.s.T s.Y s.5X6X5XT p.s.s.s.s.T Y T d.4X5X5X1.Y ",
"Y Y 5X6X4X4X4X4X4X1.4X1.5X6X5Xd.s.4Xs.s.s.d.6X6X5XU D +.!.qXE.u $ @ d h l i = @ 3 * S P U U s.s.s.s.s.s.5X6X5X4Xs.5Xs.T 4X4X6X6X4XT T p.s.p.T T Y Y 4X4X4X4X1.Y ",
"Y 4X6X6X4XY Y 4X4X4X1.Y 4X6X4X5X5X6X5X4X6X5X5X6Xd.p.L ` F.H.A.y $ f B u.oX$Xu.6.g.f.= - & & I s.5Xs.p.T 4X5X5X4X5X6X5X5X6X6X6X6X4Xs.T T U T Y T Y ,.5X4X4X4X1.Y ",
"Y 1.5X4XY Y Y Y 6X6X6X5X5X5X4X5X6X6X6X6X6X5Xs.=.s.5X,.( p s g @ r m k.<XdXgXaXB.V.m.f.w 3 = - P 6X6X5X5X5X5X4X5X6X6X6X6X6X6X5X6X5X5Xp.U U T T s.1.d.4X4X5X6X4X1.",
"1.1.5X4X4X4XY 4X6X6X6X5X6X5X4X6X6X6X6X6X6Xp.( ` >.5XP S : d k w 6.j.k.1XfXjXfX3X9XV.m.g.v v q S T 5X6X5X6X5X4X6X6X6X6X6X5X4Xs.4X6X6X4Xs.s.d.5X5X5X5X5X4X4X5X1.1.",
"Y 4X6X6X6X6X5X5X6X5Xs.s.4X5X6X6X6X5X5X4Xd.*.{ Z.$.=.S 3 r 6.6.6.z.c.m.B.sXhXdX3X3X3XV.V.b.c.x q S U s.T 4X6X6X6X6X5X4X4X4XT U ,.d.6X6X6X6X6X6X6X6X6X6X5Xd.4X1.Y ",
"Y Y 4X6X6X1.5X6X5X4X4XY 5X6X6X5X4Xd.s.,.^ $.U.:XU.{ y 9 r 6.6.6.c.v.m.B.sXgXdXV.V.aX3X3XV.v.l.v q D P T 5X6X6X5X4Xd.s.s.6X<.E W *.6X6X6X6X5X6X6X6X5X4X5X5X1.Y U ",
"Y 1.4X6X4XY 4X6X5X4Xs.s.s.5X5X4Xs.4Xs.Y ^ +.!.eXE.s 8.q.6.v v 6.j.k.k.B.sXgXaXV.V.V.3XV.V.b.M.l.0 o A T 4X5X5Xs.s.s.d.s.d.3.+.+.O.<.5X6X6X5X5X5X<.=.Y 5X6X1.,.I ",
"Y 4X6X6X4X4X1.5X6X4XY Y 1.s.Y s.s.5X6X5X=.' @.U.).C OX=XB.6.t 6.6.6.f.B.sXgX0Xb.M.V.V.V.N.b.V.c.x X A Y s.s.T s.s.5X5Xd.^ S.^.:XP.Q -.5X6X1.1.1./ / 1.6X6X5X1.1.",
"Y s.5X5X4Xs.4X4X4X4Xs.T s.5Xs.s.4X5Xs.s.s.i.' [ g M oX*X=Xu.6.m 6.e.n.2XgXhX2Xv.c.c.M.N.b.b.M.l.r # % I d.5Xs.d.4X5X4XU E #.>XwXI.R *.5X5Xs.&.] F.D.3.*.,.5X5X1.",
"Y Y 4X4X4X4X6X5X4X5X4Xs.5X6X6X4X5X5Xs.s.d.p.J $ 6 x 0.oX*X+Xu.7.u.+X*XuXgXhXaXb.c.l.c.v.v.v.c.7.n j q E =.5X6X5X5X5Xs.=.( $.I.U.%./ p.5X6X=.) ..!.:XZ.` L 5X5X,.",
"Y Y d.s.4X6X6X6X6X6X6X6Xs.s.6X5X5X6X5X4Xd.P & + 5 0 9 c oX*X=Xu.=XyXyXuXiXiX2X<Xx.x.z.c.v.l.h.6.e.y.9.l D P 5X5X5X6X5X4Xd.*.W Q ' s.s.5X6X=._ H.qXrXK.{ I 5Xs.U ",
"Y Y T T s.6X5X5X6X6X6Xs.s.s.6X6X6X6X6Xs.K S O 3 9 0 9 f 5.].=X*X$X@X[.[.oX1X*X-XB.j.g.j.j.6.b 7.@X=X].k 7 S U d.6X6X5X5X6Xa.I ^ =.5Xs.s.s.U ) O.P.I.$.>.,.6XY P ",
"Y Y Y Y T 4X4X4X6X6X4Xs.s.5X6X6X5X4Xs.I - O 2 5 0 j j 9 w N OXuXOX7.m m 6.7.$X0X@Xq.6.m m 6.5.u.*X-XoXm < # K s.6X5X5Xs.6X6Xs.s.s.6Xs.s.p.p.p.=.{ [ &.s.5X6XY U ",
"1.Y Y 1.T T s.5X5X6X5X4Xs.4X6Xs.T T H & O 2 5 5 0 f j w , c |.,XOX7.f.b b 6.q.oX*X+Xq.b t w.oX=X=XoXe.m 8 # H U p.s.p.s.6X6X5Xs.s.6X6X6Xs.6X6Xp.( L d.6X6X4Xs.Y ",
"1.Y 1.4X4Xs.4X4X4Xd.4X4Xs.s.s.s.s.Y S + . 5 5 7 0 x f x c t.].OXt.B n n m n f.w.-XyX-Xq.m 7.*XyX#Xl.m x 2 # H U s.s.s.5X4X5X6X6X5X5X6X5X5X6X6Xs.U U 4X4Xs.p.s.s.",
"Y 1.4X4X5X6X4Xs.s.s.s.4X6X5X4X5X5Xs.S   2 5 0 5 0 r 9 k t.|.].V M c x n m m t B *XpXpX%Xe.e.0XuX@Xg.w f 2 # H p.6X6X6X6Xs.s.s.5X6X4X4X5X4Xs.5X6Xs.s.5Xs.T s.Y Y ",
"P Y 5X5X5X5X5X5X5Xs.s.5X6X5X6X6X4Xs.A . 2 5 7 9 0 0 9 M '. X].M c r e e k N 0.u.=X0XiX-XOX}.=X=Xu.B e 0 < # K p.6X5X6X6Xs.p.=.p.d.5X6X6Xs.s.s.5X5X5X6X5X4X6Xd.U ",
"Y ,.4X1.1.4Xd.1.s.s.s.5X5X4Xs.s.p.Y S   @ 5 5 5 5 0 9 j 5.r.|.'.V x 9 0 g Z .X*X@XoX}.@X*X-XoXy.N x e 0 . # H U s.s.s.s.p.=.` ` *.s.s.s.s.s.5X5X6X5Xs.1.s.5X4XY ",
"1.1.,.1.4X4XY Y T T s.4Xs.s.s.p.T Y A # + 5 5 5 5 5 0 9 w M ].&X_.c 9 d s K.,X,X[.m w w.$X-X{.N 0 e e 0 < # F I p.s.T U &.'  .| X.L U T p.5X6X6X5X4XY Y Y s.s.1.",
"Y 1.5X6X5X4X1.Y s.p.p.s.5X6X6X6X5Xd.U A * + 5 5 5 5 0 9 4 M ].,Xu.f d s Q.wX>X.XV z w b 0.'. X].0.0 4 6 < # H p.6Xs.T I W F.:X:XI.Q &.d.5Xs.5X5X6X5X5X1.Y 4Xs.U ",
"Y s.4X4X5X6X5X4X4Xs.s.4X6X6X6X5X6X5X5XU & O 2 5 8 5 4 w k q.|.%X].V g s U.qXW.C.V f e 0 e M ]. X'.N 9 < 3 - P s.5X6X4X=.W D.>XwXI.! i.5X5Xs.s.s.s.s.5X5Xs.4Xs.Y ",
"Y ,.T p.4X6X6X6X6X4X4X5X6X6Xs.s.4X5X6Xs.S O 2 5 8 < , 6 t.|.|.t.].|.C C Z.K.W.(.C f w 9 9 0 V u.|.r.k . - K Y s.5X5X6X6X=.3.H.T.4.*.s.5X4Xs.s.s.Y Y 5X6X5Xs.T s.",
"U Y Y s.4X4Xs.s.s.p.p.p.s.s.5X5X5X5Xs.p.A % + 2 1 1 d N _.].t.f t.|.'.9./.J.,X&Xt.k 9 0 x 0 9 M `./.V * F T 4X5X5X5Xs.p.p.*._ ! ;.d.5X6X5Xs.T s.Y U d.6X5Xd.T P ",
"U Y ,.4Xs.Y Y Y T T T T U T s.5X5X5Xs.p.U A o @ y u Z `.r.C z 9 k t.[. X.XXX,X&Xu.c 9 z x 0 4 0 V C Q H P p.s.5X5Xs.s.s.p.U K J U 5X6X6X5X4X4Xs.s.s.5X6X5Xp.U P ",
"U Y ,.1.1.Y Y Y Y Y Y Y T Y Y T 5X4X5X6X5XU S y a J.XX.XV 1 > < 0 M _.%X&X2X,X2Xt.f 8 0 f 0 8 5 d i J =.T U U s.4Xs.5X6X5Xs.T T p.6X6X6X5X6X6X6X5X5X6X6X5XT U U ",
"U U 1.4Xs.s.Y Y U Y Y Y T s.T 5X5X4X5X6X6XY E | Q.wX;XJ.g < > 1 V _.r.V V Z .X.XV 0 3 9 0 9 2 @ = J U U s.s.T 5X5X5X6X6X6X5X4X5X6X6X6X6X5X5X5X5Xs.p.p.5X5X4Xs.p.",
"Y ,.,.4X5X5X,.,.p.d.s.s.s.4X6X6X6X5X5X6X6X1.*.#.Q.rXK.s $ < 9 l r._.V 1 , f 8.`.9.l 6 5 2 2 + = H p.s.p.s.4X5X6X6X5X6X6X6X5X5X6X6X6X6X5Xs.s.5X5XT U U s.6X5Xs.s.",
"1.,.,.5X6X5Xs.s.4X5X6X6X5X5X6X6X6X5X6X6X4XY 1.' S.K.Z.y . 5 l _.Z V f < , 1 f V _.r.l .   + & K s.6X6X6X5X4X6X6X6X4X6X6Xs.s.6Xs.5X6X6X4Xp.5X6X6Xp.U T 5X5Xp.p.p.",
"U Y ,.4X1.=.1.1.Y s.5X6X4Xs.6X5Xs.5X6X5X5X6X5X<.;.} R = % : 8.(.V 1 , , 2 < , 6 Z 9.l * X S P T p.p.4X6X5Xs.6X4Xs.5X6X5X5X6X6X4X5X6X6X6X5X6X6X6X5Xs.6X6X6Xs.p.U ",
"U Y ,.<.' _ >.<.U T s.6X4Xs.6Xs.s.5X5Xs.5X6X6X4X=.L H K K J 5.t.d >   . @ ,   + f h W H K P 4X4Xp.U d.6X4Xs.6Xs.s.6X4Xd.6X6X6X4X4X6X6X6X5X5X5X5X5X6X6X6X6Xs.p.T ",
"Y 1.1.*.$.H.#.;.d.s.s.6X4Xs.4X6X6X4XT U s.6X6Xs.T p.d.4Xd.s.*.h $ .   X * o o X + % H s.6X5X5X5X5Xs.s.5X5Xs.5X6X6X4XT T s.6X6Xs.T s.5X4Xp.p.s.d.s.s.s.s.s.5Xs.p.",
"Y U *.X.U.qXE.#.*.d.6X4X5X4X5X6X6Xs.Y Y T s.s.T T s.d.4Xs.4Xp.L p u ; K U P I K F P s.s.6X6X5X5X6X6X5X5X5X5X5X6X6Xs.T T T s.s.T T s.s.i.Q Q >.6X6Xs.6X5X6X6Xs.s.",
"I U *...E.eX!.S.^ s.5Xs.d.d.p.a.a.s.p.s.T T s.T s.d.d.d.s.p.p.>.S.G.o.2.5X6X6X6Xd.5X5Xs.s.6X5X5X6X6X4Xs.d.4X5X6X6Xs.Y s.Y T s.T p.p.=.] Z.Z.3.2.5X6X6X6X5X6X4X1.",
"L I =.~ +.K.@.' <.p.Y T T U ~ W ' d.4Xs.s.5X5X6X6X5X5X6X6Xs.' ..!.qXE.X.^ 1.6X6X6X4XT T T s.s.4X4XT Y T Y p.5X6X6X5X4Xs.4X5X6X6X5Xa.Q D.qXqXI.! -.5X6X1.1.4X4X,.",
"G =.s.U ` { / =.s.p.p.p.I / #.H.%.;.<.d.s.s.5X6X6X6X6X5Xs.,.) } !.qXR.{ G ,.5X6X5X5X4XT T T s.s.s.T s.s.Y Y 4X6X6X6X5X4Xs.s.6X6X6Xd./ S.:X>XI.Q &.1.4X1.,.Y I G ",
"I Y 6Xs.=.L U Y T p.s.s.J { !.>X!.! ( d.s.d.4X6X6X6X6X5Xp.,.-.' L.U.#.;.U Y 1.6X4X5X6X4Xd.s.s.s.T s.s.5XT T 4X6X6X5X5X6Xs.s.4X6X5X5X=.3.P.H.4.*.U U 4X1.,.&.E p ",
"Y 1.4X5X5X5Xd.4X1.1.,.,.D [ !.wX!.{ ( 5X6X6X6X4Xs.5X5X6X6X5X6Xd.' _ >.d.5Xs.d.6X6X5X4X6X6X6X5X4X4Xs.T T Y 1.6X5X4X5X5X6X6X6X6X4X4X5X4X-.' _ ;.5X6X6X6X4X-._ D.Y.",
"s.s.4X6X6X6X5X6X6X5X1.1.*.:.F.P.F.` =.d.5X5X4X5X5X5X4X4X5X5X5X5X&.( ,.5X6X5X5X6X6X5X5X6X5X6X5X6X6X5Xs.s.1.5X6X6X5XT 4X6X5X5X4X5X5X5X4Xp.( I ,.5X6X5X4X=.;.G.~.eX",
"Y 1.6X5X4X4X5X5X6X6X6X6X6X<./ R / =.s.5XT T T 6X6Xd.s.s.T p.s.s.s.p.1.5X5X5X5X6X4X5X6X5X4X5X5X5X6X6X6X6X6X6X6X6X5XY s.d.s.Y Y 6X6Xd.d.p.T p.1.1.1.1.1.I _ H.:XtX",
",.1.4X4X6X6X5Xd.5X5X6X6X6X6X<.&.U s.T T T s.5X6X4XT T s.s.p.p.p.T p.4X1.5X4X5X5X5X5Xs.4X6X6X5Xd.4X5X5X6X6X6X6X4Xs.s.T s.Y s.5X6X5XT T s.s.s.,.,.,.1.1.1.-.] D.J.",
"Y 1.4X5X5X5Xs.s.d.4Xs.s.4X5X5Xs.s.4Xs.s.s.4X6X6X5XY T p.s.T T T Y T 5X4Xs.4X4X4X5X4X4X5X5X4X4Xs.4X4X4Xs.5X6X5Xs.4X4XY Y 5X5X6X6X5XY T s.s.T T T Y Y 4X5X1.=._ [ ",
"Y 1.6X6Xs.Y T 4X5X4Xs.T d.6X4X4X5X5X5X4X6X6X5X6X4Xs.T T Y T T Y Y Y 5X5X4X4X5X5X4X5X6X6X4XY Y 4X4Xs.T T 4X6X4X5X5X6X6X5X5X6X5X6X6XY Y Y Y Y T Y Y Y 4X5X4X1.I G ",
"Y 1.6X4XY U Y s.6X6X6X5X5X5X4X5X6X6X6X6X6X6X5X5X6X5Xs.Y U Y s.s.1.d.d.5X5X5X6X5X5X5X5X4XY Y Y Y 6X6X6X5X5X5X4X5X6X6X6X6X6X6X5X5X6X5XY Y Y Y s.s.4X1.4X4X5X5X1.U ",
"1.4X5X4X4Xs.Y s.6X6X5X5X6X5X4X6X6X6X6X6X6X4Xs.5X5X4Xs.T s.s.4X4X5X5X4X4X4X6X6X6X5X5X5X4X4X4XY 4X6X6X6X5X6X6X4X5X6X6X6X6X6X5X4X5X6X6X5XY Y 4X4X5X5X5X4X4X4X5X4X1.",
"Y 4X6X6X6X6X6X5X6X4Xs.s.4X6X6X6X6X5X5X5X4XT T 4Xa.=.d.5X6X6X6X6X6X6X6X5X1.4X4X6X5X5X6X6X6X6X6X5X6X4Xs.s.4X6X6X6X6X5X5X5X5Xs.Y 4X5X6X6X6X6X6X6X6X6X6X6X4X4X4XY Y ",
"Y Y 4X6X5Xs.5X6X5X4Xs.Y 5X6X6X6X4X4Xs.T 6X6X4XY / { *.d.6X6X5X6X6X5X1.5X5X1.1.1.4X4X4X6X5Xs.5X6X4X4Xs.p.4X6X6X5X5X4XY 4X5X6X5Xs.4X6X6X6X6X6X6X6X6X5X4X4X4X4XY U ",
"Y Y 5X6X5XY 4X5X6X4Xd.,.1.5X5X4Xs.d.s.4X6X4X<.' @.H.$.:.1.d.4X6X6X5X1.6X6X1.1.4X4X4X5X6X4XY 5X5X5X4Xs.p.s.5X6X4XY 4X4X4X5X6X5X1.4X5X6X6X5X5X4X5X6X4X4X5X5X4XY U ",
"Y 4X6X6X5X4XY 5X6X4XY 1.1.1.1.1.s.5X6X6X5XU E ..!.rXW.#.( U 1.5X5X6X6X6X6X6X6X6X6X5X6X6X5Xs.Y 5X6Xd.T T s.s.T s.4X4X6X6X5XY Y 5X6X4X6X6X6X4X1.5X5X5X6X6X6X5X4XY ",
"Y 1.6X5X4X4X4X4X4X4X1.Y 1.6X1.5X5X5X4X4Xd.,.) } E.wXK.X.&.,.d.5X6X6X5X1.1.6X6X6X5X4X5X5X5X1.4X5X5X4Xs.Y 4X5X1.4X4X5X4X1.4X4X5X5X4XT 6X6X6X4Xs.5X6X6X5X1.4X6X4X4X",
"Y 1.4X4X4X5X6X4X4X5X6X1.4X6X5X1.s.5Xs.T 4X4X<.' %.T.#.;.1.5X4X5X6X5X4XY 1.6X6X6X4X4X4X5X4X4X5X5Xs.6X5Xs.5X6X6X5X5X5X4X1.d.6X6Xd.Y 4X5X6X6X5X5X5X6X5X5XY Y 6X4XY ",
"Y 1.1.4X4X6X6X6X6X6X6X6X1.,.,.=.U 5X6X4X4Xd.s.U ~ Q ) s.6X4X5X6X5X4X4X4X5X6X4X1.4X1.1.1.5X6X6X6X6X6X6X5X1.s.6X5X4X6X6X4X4X4X4XY Y 4X4X5X6X5X5X6X4X4X4X4X6X6XY U ",
"U Y Y Y 1.6X4X6X6X6X6X4X1.=.` ! ] d.5X5X5X4Xs.Y =.&.U s.d.s.d.6X6X6X4X4X6X6X1.1.4X4X1.1.1.5X5X5X6X6X5X4X1.1.6X6X6X6X5X5X6X4Xs.,.4X5Xs.1.s.s.4X6X6X5X4X5X6X6XY P ",
"Y Y Y Y 1.4X1.4X6X6X5X1.=.:.Z.G.S.:.<.4X6X6X4Xs.4X6Xs.s.Y Y 5X5X6X6X4X4X6X6X1.1.5X1.,.,.1.1.1.4X6X6X5X1.4X4X6X6X6X4X4X4X6X6X4Xs.5X5X4Xs.1.s.4X5X6X6X4X5X6X6XY U ",
"1.1.Y Y 1.Y 4X4X5X5X5X1.~ } :XrX^.[ ~ Y 6X6X6X4X4X6X6X5X5X5X5X4XY 1.6X6X6X5X6X6X6X1.,.,.,.,.4X5X5X6X4X4X4X4X5X4Xs.1.,.s.6X6X5X5X5X6X6X5X4X5X5Xs.Y 1.6X6X6X4X4XY ",
"U U Y Y Y Y 1.1.1.Y Y ,.G ! G.Y.G.Q J =.T s.s.4Xs.s.5X4Xs.5X4XT U U 4XY Y Y 1.4X1.,.Y ,.,.,.1.1.Y Y Y 1.Y 1.1.1.Y ,.1.s.s.s.s.s.1.4X5X4Xs.s.s.s.Y U 1.1.Y Y Y U ",
"P P Y Y 1.1.Y Y U U U U K E a C.a D P ,.U Y Y s.T Y Y Y Y Y Y 1.U U Y U P U Y ,.,.U Y Y 1.,.,.-.Y Y Y Y Y Y Y Y s.Y s.,.U U Y s.Y Y Y Y Y Y T s.U U Y U P U P P "
};
