/* XPM */
static char *Group_6_6__resized[] = {
/* columns rows colors chars-per-pixel */
"80 80 228 2 ",
"   c #06031D",
".  c #0C0A24",
"X  c #120E2A",
"o  c #111329",
"O  c #110E32",
"+  c #191737",
"@  c #200C33",
"#  c #1C2639",
"$  c #1E3639",
"%  c #233C2A",
"&  c #202F3D",
"*  c #22363D",
"=  c #28471A",
"-  c #2C4C1D",
";  c #2F5316",
":  c #2E521D",
">  c #31571F",
",  c #335B1D",
"<  c #36621D",
"1  c #39661C",
"2  c #3C6D1D",
"3  c #3F711E",
"4  c #264524",
"5  c #2A4627",
"6  c #2B4C24",
"7  c #26442C",
"8  c #2B462B",
"9  c #2B4B2C",
"0  c #304929",
"q  c #314B2C",
"w  c #2D5223",
"e  c #2D522B",
"r  c #335624",
"t  c #325C23",
"y  c #35552B",
"u  c #355A2B",
"i  c #3A5D2C",
"p  c #254333",
"a  c #2A4335",
"s  c #2A4B33",
"d  c #25433B",
"f  c #2A4539",
"g  c #2A493D",
"h  c #314D32",
"j  c #334E39",
"k  c #2D5435",
"l  c #355736",
"z  c #325B34",
"x  c #325B3A",
"c  c #366223",
"v  c #3A6424",
"b  c #3D6C23",
"n  c #35612B",
"m  c #3D642C",
"M  c #3F682C",
"N  c #3F7220",
"B  c #3E6231",
"V  c #41751F",
"C  c #43781F",
"Z  c #406E26",
"A  c #40672F",
"S  c #416B2C",
"D  c #417620",
"F  c #457C21",
"G  c #437129",
"H  c #406731",
"J  c #416931",
"K  c #2C294D",
"L  c #2D2A4D",
"P  c #263946",
"I  c #45385D",
"U  c #254444",
"Y  c #294A44",
"T  c #294B4B",
"R  c #2E4D4C",
"E  c #2D5243",
"W  c #2C534D",
"Q  c #2F594B",
"!  c #315749",
"~  c #315B4C",
"^  c #2D5753",
"/  c #2E5954",
"(  c #2E5C5A",
")  c #325855",
"_  c #325D5B",
"`  c #366549",
"'  c #376653",
"]  c #34635D",
"[  c #34685C",
"{  c #37695D",
"}  c #3C4368",
"|  c #315E60",
" . c #346561",
".. c #366A64",
"X. c #396B64",
"o. c #376968",
"O. c #3B7464",
"+. c #3B7665",
"@. c #3C746A",
"#. c #3D7A6B",
"$. c #386D70",
"%. c #3B7977",
"&. c #3C7B74",
"*. c #47495F",
"=. c #406D57",
"-. c #4A666C",
";. c #487669",
":. c #437B6D",
">. c #417E71",
",. c #478022",
"<. c #498423",
"1. c #4C8924",
"2. c #3F826E",
"3. c #3E8474",
"4. c #3D827D",
"5. c #44856F",
"6. c #488777",
"7. c #468B76",
"8. c #468C7B",
"9. c #558D77",
"0. c #548D7A",
"q. c #4A937D",
"w. c #4A967E",
"e. c #58957E",
"r. c #6D6E8A",
"t. c #3F8784",
"y. c #428A86",
"u. c #4E9C84",
"i. c #48948A",
"p. c #4E9E88",
"a. c #589783",
"s. c #509F84",
"d. c #418A95",
"f. c #438D9A",
"g. c #489896",
"h. c #77829F",
"j. c #4EA285",
"k. c #4FA088",
"l. c #50A186",
"z. c #51A38A",
"x. c #54AA8D",
"c. c #5BAB8E",
"v. c #54B18E",
"b. c #4DA49B",
"n. c #4FA99C",
"m. c #54AB92",
"M. c #52AC99",
"N. c #57B393",
"B. c #59B493",
"V. c #5CBA95",
"C. c #55B29D",
"Z. c #5DBD99",
"A. c #68A88E",
"S. c #6AAF93",
"D. c #6BB999",
"F. c #75BA9C",
"G. c #489AA5",
"H. c #4FABA5",
"J. c #50AEA3",
"K. c #55B4A3",
"L. c #59BBA5",
"P. c #55B7AA",
"I. c #59BEAC",
"U. c #56BBB2",
"Y. c #58BEB2",
"T. c #5EC39B",
"R. c #61C59D",
"E. c #63C99F",
"W. c #5EC0A1",
"Q. c #5BC2AD",
"!. c #5BC4B2",
"~. c #5DC8B5",
"^. c #5AC6BB",
"/. c #5DCBBB",
"(. c #65CCA1",
"). c #6ACCA2",
"_. c #7CC5A3",
"`. c #78C7A4",
"'. c #66D2A4",
"]. c #68D4A6",
"[. c #6CD7A8",
"{. c #6BDBAA",
"}. c #75D7AA",
"|. c #79DAAD",
" X c #60D0BD",
".X c #6EE1AE",
"XX c #79E5B4",
"oX c #53B7C6",
"OX c #57BFD2",
"+X c #5BC8C8",
"@X c #5ED1C7",
"#X c #5BCBD7",
"$X c #5DD1DD",
"%X c #61D6C8",
"&X c #63DDD7",
"*X c #66E5DC",
"=X c #62DBE7",
"-X c #68E8E7",
";X c #68E9F1",
":X c #858699",
">X c #82CFAC",
",X c #83D1AB",
"<X c #88DBB2",
"1X c #88E6B6",
"2X c #98E7BC",
"3X c #94EDBD",
"4X c #90F2BF",
"5X c #9AF1BF",
"6X c #A9F2BE",
"7X c #CDFCBE",
"8X c #A4ACC1",
"9X c #B6BECC",
"0X c #9BEEC2",
"qX c #8DFEC5",
"wX c #96F2C1",
"eX c #9BF3C2",
"rX c #99F9C6",
"tX c #A3F6C2",
"yX c #AFF7CE",
"uX c #A3FACC",
"iX c #A8F8C8",
"pX c #B7FAC5",
"aX c #BBFCCB",
"sX c #ABFDD3",
"dX c #C7FEC6",
"fX c #D3FFC1",
"gX c #D8FFC7",
"hX c #C6FFD0",
/* pixels */
"; < V 2 V 3 V V V 2 2 V C 3 C V 3 F 3 3 3 3 3 ,.C 3 ,.3 3 2 2 3 3 V V 3 3 C C 2 1 2 3 2 2 V V V V 2 2 3 3 C V V 3 C C 3 3 2 3 C C V V V V 1 V V Z V V V V C 1 ; ",
"1 2 V V V F 2 3 V 2 3 F C C C 3 3 3 3 3 3 3 3 3 3 3 3 3 3 3 C C C C V 2 3 C ,.C V V V 3 V V 3 3 3 3 V C F V V 3 3 C 3 3 3 3 V C V V V V V V F F C V V V V F V V ",
"C C V C F F V V V V C F F F C V 3 3 3 3 3 3 3 3 2 1 3 3 3 <.1.1.1.,.V 3 V C 1.1.1.,.D F ,.C V 3 3 C C ,.F F F N 3 C 3 3 3 F C C D V V V V F 1.1.<.<.V 1 V F C V ",
"V C <.1.<.F D D C V V ,.<.<.1.1.<.<.3 3 F 3 2 > - : 1 3 ,.,.,.<.<.<.<.C C ,.,.,.,.<.<.1.<.,.C V C 3 V ,.<.1.1.1.<.<.3 3 F <.1.<.F F F <.F F F 1.<.<.C C C F C V ",
"2 C F <.<.1.<.F ,.F F ,.1.1.<.<.<.<.<.C F b w a p 7 r b ,.F ,.F C F <.<.C ,.<.,.<.F ,.F <.1.F <.<.C F <.1.1.1.<.<.<.,.F <.1.1.1.1.<.1.1.1.F F F C <.<.<.C C C V ",
"V V V V F 1.1.1.<.<.,.<.1.1.,.F ,.<.1.<.N z j ~ ( / x M N F N F 3 3 <.1.1.C ,.1.<.F V D <.1.1.<.<.<.,.,.1.1.F F ,.1.1.1.1.1.1.1.1.1.1.<.F F D C V V <.1.1.C C C ",
"2 V V C F F F F F D D D C F <.<.<.,.3 c z Q O.i.z.a.;.J u < 2 N 3 3 F 1.1.C C C F F D F F F F F C F N F N F <.<.<.<.F F D F ,.<.1.1.1.1.1.F D F V V C 1.1.F V 1 ",
"2 2 V C F D D V N N 3 3 3 3 F <.<.3 > 6 x O.u.).<X>XA.;.x w , F C C <.1.1.V 3 V F D D F F D D D 3 3 3 N 3 3 F <.<.<.F C F D F C F 1.1.1.1.F <.F V V <.1.1.C 1 < ",
"2 2 V ,.F 3 3 3 3 3 3 3 3 3 2 F F 2 6 p ] 8.N.XXqXwX,Xa./ 7 , <.<.<.<.1.<.2 D F F F D F F 2 V 3 N 3 3 N 3 2 b F ,.,.<.1.1.,.D 3 F <.1.1.1.1.1.1.<.<.1.1.<.3 2 2 ",
"2 3 C C F D 3 3 2 N N 2 N F N ,.,.2 6 d O.i.Z.XXqXrX<Xa.{ p w F F V C <.<.<.<.<.F F V F F F N 2 3 3 N 2 D F D <.<.,.1.1.1.<.F <.<.1.1.1.<.<.<.<.F V C <.<.<.C V ",
"3 3 D ,.,.,.N 3 D F F F F <.<.1.<.3 w d  .8.x.'.XXXX).q._ 7 > ,.3 2 2 F 1.<.<.1.,.F V F 1.F V V N F F F F ,.<.1.1.<.1.1.<.<.<.1.1.1.1.<.F F <.1.3 2 2 F 1.<.F C ",
"C 3 D 1.1.1.F F ,.1.1.1.<.<.1.1.<.3 t e Q X.6.x.Z.C.u.+.E e c <.F 2 3 <.1.D F <.1.F V 1.1.<.F F ,.<.1.1.<.<.1.1.1.,.<.1.F ,.1.F <.1.1.<.V F 1.1.D 2 3 <.1.V V V ",
"3 3 V C 1.1.1.,.N F <.1.,.,.1.,.F F N c z Q X.8.i.q.+.` u v F 1.,.,.<.1.1.F F <.,.F D F 1.1.1.,.3 F <.1.<.F 1.<.F <.1.<.<.1.1.,.<.1.1.<.<.1.1.1.,.,.<.1.<.F V 2 ",
"2 3 C ,.<.1.1.<.3 N F 1.,.F <.,.F <.F b c z Q  .X.X.Q u b F <.<.<.<.1.1.<.,.<.<.F F F F <.1.1.<.V 3 F 1.F F <.F F <.<.F 1.1.1.<.<.<.1.1.1.1.1.<.<.1.1.1.<.<.C V ",
"3 C <.1.1.1.<.<.1.,.F 1.,.,.,.1.1.,.3 2 b c e d * p w c ,.1.1.,.F F F F ,.<.<.1.<.,.<.<.1.1.<.<.1.,.,.<.<.F <.1.1.<.D 2 F <.1.C V F <.<.<.1.1.,.F F F ,.F <.F C ",
"3 C 1.,.1.1.<.<.1.1.<.,.,.<.<.1.1.F N 2 3 < w 4 4 6 , 3 C ,.,.<.<.,.<.<.1.<.1.1.,.<.<.<.<.1.<.1.1.1.<.,.<.<.<.1.<.F D 2 V F F V D F F F F F <.<.<.,.<.<.1.<.<.C ",
"3 C <.C F 1.<.<.<.<.<.F F F <.1.<.3 3 N 3 2 1 < < 1 b V F C <.1.1.<.1.1.1.1.1.1.,.<.1.N F 1.<.<.<.<.,.F ,.<.1.1.<.F 3 N N 3 3 F F F ,.F N ,.,.1.1.1.1.1.<.1.<.C ",
"C C C 3 3 F F ,.,.F N N 3 D ,.F b 2 N F F ,.<.<.<.<.<.<.1.<.<.1.1.1.1.F N 1.1.1.1.<.N 3 3 ,.F ,.<.F N N 3 3 <.1.1.<.,.F <.1.1.1.<.1.<.<.1.1.1.1.1.1.1.C C <.F C ",
"3 C <.C D V F F F 3 D F V N F b : w c N F ,.1.1.1.1.1.1.,.F <.<.F F <.F C F <.1.<.<.,.F 3 F F F F 3 N F 3 3 ,.<.1.1.1.<.F F <.1.1.1.1.<.,.<.<.<.,.F ,.F D D C C ",
"3 C 1.,.F D F F D D F ,.V 2 N n s s u b N F ,.<.1.1.1.<.F F ,.<.F 3 N N 3 2 N ,.F F ,.F N 3 C 3 F N F ,.3 3 ,.1.<.1.<.<.F F ,.1.1.1.1.<.N ,.<.1.3 3 F ,.F 3 V C ",
"C C ,.1.1.1.,.,.F F 3 2 1 < c ` O.+.' z b F ,.F ,.<.<.<.1.1.1.1.F 3 c < < , < < c c < < , < c 3 ,.F 3 3 3 3 <.<.,.<.<.1.1.1.1.,.,.<.<.<.1.1.1.1.1.1.1.1.1.F C C ",
"V F <.<.1.<.<.1.1.<.F D , e x +.w.j.5.` e c N ,.<.<.<.,.<.<.<.<.3 t 9 9 9 4 4 9 6 4 4 4 4 8 r 3 <.,.,.C C <.1.1.<.3 ,.1.<.,.F <.<.<.,.,.<.<.1.1.<.1.,.1.1.,.C C ",
"3 C 1.<.<.,.<.<.1.1.1.,.c 9 ^ 7.B.V.u.] p = < <.1.F F V 2 3 D N t 9 g U Y U U g U U U U T Y k v F ,.<.<.1.1.1.1.<.3 F F F 3 N 1.1.,.,.3 3 3 ,.3 C C C <.1.,.C C ",
"V C F <.<.1.<.F F <.1.,.2 r k 2.s.x.7.` 9 : 3 1.<.3 3 1 , > ; : e ~ @.5.:.@.O.O.+.;.5.0.0.9.=.z r , , < 3 <.<.,.,.C F 3 3 F <.1.1.3 3 C ,.C 3 ,.3 3 F ,.<.<.C 3 ",
"V C <.<.<.,.F F F ,.F F V b u ` +.:.' B c 2 ,.1.<.2 1 t 9 7 % 7 Q #.j.B.c.l.j.u.z.S.D._.,X_.e.' 9 % % 8 r D <.F F <.F 3 ,.,.1.1.<.3 3 3 ,.3 3 3 3 3 ,.,.,.,.,.3 ",
"3 C 1.1.F 3 C F <.F V 3 ,.<.N z s Y z c ,.1.<.<.<.N t 9 g U U T +.l.E.'.'.E.T.T.).|.1XtXuXeX_.0.~ U U Y k c F <.<.1.<.,.1.1.1.1.<.3 3 3 3 3 3 3 3 3 <.<.,.,.C 3 ",
"V C <.C C 2 2 C 1.1.<.<.<.<.F c w e c N 1.1.1.1.N < 6 E ] $.#.:.w.V.].{.{.[.[..X1X4XrXuXsXuX<XF.a.6.6.6.' z > 3 1.1.1.1.1.1.<.<.1.<.3 3 3 3 3 3 C ,.C <.<.<.<.3 ",
"V C <.<.,.C V C 1.1.<.<.1.<.,.D b b N <.1.1.N 3 c e E [ 6.u.x.x.V.E.].].'.[.|.1X4XrXuXuXiXiX0X<X`.`.`._.a.' 9 , 3 1.1.1.<.,.F <.1.1.<.C 3 ,.<.1.<.<.<.,.<.<.<.3 ",
"V C <.1.1.1.<.1.1.,.F F F <.1.1.<.,.1.<.<.3 b c e E X.7.p.B.R.(.(.(.T.T.T.'.|.3XeXrXeX5X5XwX5X5XtXiXiX0X>X9.R s < 3 ,.1.,.N N 1.<.1.<.1.1.1.1.1.1.1.1.<.,.,.3 3 ",
"2 V ,.1.<.C <.1.<.,.F V ,.1.1.1.,.,.N ,.1.3 < e Q %.i.b.m.Z.E.'.].'.(.T.T.].|.3XtXuX5X5X3X3XeXpXaXhXhXaX6XF.0.~ k > 1 3 <.1.1.N ,.1.1.1.1.1.<.1.1.<.C ,.<.C 3 2 ",
"V C <.1.<.C ,.<.<.,.F N F <.<.F N ,.F N ,.1 e Q %.b.J.C.m.B.R.'.].'.E.T.R.).<X3XtXtXwX3X3X3X5XpXdXgXgXhXaX2X`.0.` 7 > 3 1.1.<.3 ,.<.1.1.1.,.<.<.<.<.,.<.1.C 3 2 ",
"V C 1.1.<.C C <.1.F N F F D V F ,.<.1.,.c e E %.b.Y.!.L.x.x.V.E.(.(.E.T.E.E.[.1X3X5X5XwXwX3X6XpXdXfXfXfXdXaX5X`.e./ s c V 3 3 1.<.<.1.1.1.C C <.<.1.1.1.1.<.,.3 ",
"3 C <.<.,.C ,.,.,.,.,.3 F <.F ,.,.C 3 c z ` @.g.P.I.L.C.z.x.V.E.'.(.E.E.R.E.).|.1X2X5X5X5X5X5X6X6X7X7X7XgXgXaX6X_.9.' x t 2 C F <.F <.1.1.F C <.1.1.<.3 ,.1.,.,.",
"3 3 ,.<.,.,.1.<.C 1.1.3 ,.1.1.<.,.C , 7 Q &.g.P.I.C.m.j.x.x.D.E.(.(.E.E.E.E.E.E.}.1X3X5X5X5X5X5X6XpX7XgXgXgXdXpX2XF.0.] 9 r D F N F ,.1.1.<.,.1.1.1.<.3 3 1.,.3 ",
"3 3 <.C <.1.1.1.1.1.1.1.3 F 1.1.C C : % o.g.U. XQ.x.u.u.j.m.V.R.E.E.E.E.(.E.T.T.E.}.1X3X5X5X5X5XwXuXpXdXfXfXdXhXaX2XD.;.% % < 2 N <.,.<.1.1.<.1.<.F ,.,.<.1.3 2 ",
"3 3 3 3 C <.<.<.1.1.1.<.N F <.1.1.F - % ] g.Y. XQ.x.u.u.j.z.m.B.T.T.E.E.E.E.T.T.E.E.[.1X4X5XrXuXrXsXaXdXdXpXpXaXyX0XD.;.$ = < V F <.C F F F F 1.1.1.F <.1.1.3 1 ",
"3 3 3 3 ,.,.3 <.1.1.,.3 F ,.<.1.,.3 : 7  .i.U./.Q.m.u.s.z.p.z.x.v.T.E.(.(.E.T.E.T.E.'.}.1X3XrXtXrX0X0XyXtX6XiXyXiX1XS.5.p = c 3 ,.<.,.3 C 3 F <.<.<.,.<.1.1.3 2 ",
"C C 3 3 N 3 <.<.1.<.1.<.F ,.,.C 2 t 9 E &.b.U./.L.m.l.s.z.p.p.s.x.T.E.(.(.E.E.E.E.T.T.'.XX1X3X,XF.S.A.>X>X2XrXsXiX2X_.9.~ k c N F <.1.1.<.<.1.F F N 1.1.1.,.,.3 ",
"3 C C ,.,.N ,.,.,.,.,.,.<.F N 2 r k ~ #.g.U.^.~.K.m.l.s.z.p.p.p.v.V.E.(.(.(.E.E.T.T.T.].XX1X}.e.;.) ) ;.A.>XyXsXsX5X<XR.3.[ x c 1 F <.<.<.<.1.,.3 3 1.,.3 3 F ,.",
"3 3 ,.<.<.1.,.,.C F C ,.<.<.N , e ^ @.b.!././.!.K.x.s.s.z.p.p.z.v.T.E.(.(.E.E.E.(.T.T.'..X.Xc.:.P o X P -.F.0XyXiX5X1X{.v.2.' s > 3 ,.<.<.,.<.1.,.3 1.,.3 F 3 3 ",
"1 3 <.,.,.,.<.<.<.F F 1.1.,.N > 7  .i.U.@X@X~.L.m.k.k.s.z.p.p.z.v.T.E.(.(.E.E.E.(.(.(.T.v.j.6.-.I K X X L ;.F.<X2X1X}.R.u.&.] f w b <.1.,.F ,.,.F <.1.F F 1.C V ",
"3 3 ,.C ,.,.C C F ,.F <.<.C 3 - p  .i.!.@X XL.m.x.z.z.z.z.p.p.z.B.D.E.'.(.(.R.(.(.'.'.v.7.X.-.r.:Xr.I K + P ;.A.`.}.D.0.] ) ) d e < 3 F N ,.<.<.1.<.F V F 1.C V ",
"C C C C ,.F 3 3 3 N F F ,.3 3 : 7 | y.J./.Q.M.x.s.z.z.z.z.p.p.x.v.T.E.(.(.E.E.E.'.{.'.j.~ * *.:X9X8Xr.L + X P @.x.R.q.) # $ P d w < 2 3 3 ,.1.1.1.F V V V F C C ",
"3 C <.1.1.<.C 3 F 3 N ,.<.<.F > 7 | y.K.!.L.x.w.u.z.z.z.z.z.p.z.x.B.Z.E.E.(.(.(.'.{.'.w.P . K r.8X8Xh.} O   . ^ q.v.>.P . o * s u 2 F <.1.,.,.<.1.1.<.C C F V V ",
"3 F ,.<.<.1.,.,.,.F F <.1.1.F > a _ y.J.!.T.k.j.u.l.z.z.z.z.z.z.z.x.B.D.T.(.(.(.(.{.].w.T o @ I r.h.r.} + . . T q.N.:.P . o $ s u N <.1.1.F F F C C <.F C <.C V ",
"3 3 3 N ,.1.1.1.<.<.,.,.1.<.N - 7  .y.P./.Q.M.j.s.p.z.z.z.z.z.z.p.z.z.B.T.(.E.(.'.{.{.z.{ $ O + L } } } K + + ..j.V.8.R + # * s u D <.1.F F C F V V 1.1.1.C C C ",
"2 3 N F ,.,.F F F D D D D F D : a ..g.+X&X%XI.x.p.s.s.s.z.z.z.z.s.p.z.x.N.Z.R.(.'.{.].Z.q.X.P O O O + K L T ) 7.B.T.z.:.) T T d r D <.1.1.D D F V V F 1.<.C V 1 ",
"2 3 3 ,.F 3 3 N N 3 N 3 3 2 2 - 7 o.G.$X;X-X^.C.x.z.s.s.z.z.z.z.p.p.p.z.x.N.V.E.'.].'.W.V.l.X.P . . . + P -.w.B.E.R.T.c.8.+.( p 6 V <.1.1.<.F F V D <.1.<.V 1 1 ",
"2 2 V ,.C V 3 3 3 3 N 3 3 2 < ; 9 ] f.OX;X=X@XI.C.m.j.l.z.l.z.z.z.z.z.p.p.x.B.Z.T.(.(.'.].'.s.X.& X . # ) q.E.{.[.(.].'.B.q.{ % - Z <.1.1.1.1.1.<.<.1.1.<.V Z 2 ",
"2 2 C C C V 3 3 2 3 3 N D F 3 < t x o.g.oX+X^.!.L.C.m.z.l.s.s.z.z.z.z.p.i.z.x.B.Z.V.Z.T.{..XD.q. .T T ] 7.B.{..X{.'.].'.B.q.X.d 6 V <.1.<.<.<.<.C C C <.1.F C V ",
"3 3 V ,.1.<.V V F F F F F ,.,.,.C c l ) y.H.U.+X/.Q.K.m.l.u.l.z.z.z.z.s.l.z.z.x.x.x.x.V.W.{.(.V.s.q.q.s.B.E.[.{.].E.(.R.x.7.] a w V 1.<.C <.<.<.V 1 V C <.<.F V ",
"C V V <.1.1.C C F <.1.1.<.<.1.1.,.Z - %  .y.U.%X%X+XI.C.m.z.l.z.z.z.z.z.l.z.z.z.k.p.u.x.V.T.(.(.E.R.R.R.T.R.E.R.E.R.R.Z.u.&.] p w D <.<.V C 1.1.V V V F 1.V V V ",
"3 3 C ,.1.1.1.,.D D 1.1.,.F 1.<.V V = % _ f.+X-X*X@XQ.K.C.M.z.j.u.s.s.s.s.s.p.s.p.p.p.z.x.B.R.(.(.V.x.w.l.B.R.R.D.B.(.Q.M.y. .p 5 V <.1.<.1.1.1.F F 1.1.<.F V V ",
"2 3 C C <.1.1.<.D D F 1.,.F <.F Z A 5 %  .G.$X;X*X@X!.Q.Q.K.m.l.s.s.s.s.l.p.z.p.k.p.p.k.z.x.B.V.B.u.#.{ +.q.m.B.x.m.L.!.P.i...p = V F 1.1.1.1.<.1.1.1.1.<.<.F V ",
"3 C ,.1.1.1.<.<.<.F F <.<.F F F G B 0 * | f.oX=X-X@X@X@X/.!.L.x.x.x.x.m.m.z.x.z.z.l.l.l.p.z.z.m.z.7.{ ^ / O.q.p.x.M.L.I.b.y. .p - V F <.<.1.<.<.F F F F F <.F C ",
"3 C 1.,.<.1.1.<.1.1.<.F <.<.<.F G i h j W o.d.oX#X=X-X*X@X@X~.Q.K.C.M.M.C.C.m.z.l.w.s.p.u.u.s.p.k.8.#. ./ ) X.8.M.L.P.b.y.o.~ 9 , Z F F F F 1.<.<.<.<.<.1.1.F C ",
"3 F <.C F 1.<.<.1.<.<.F F ,.<.F S i i y l g _ d.oX=X;X-X@X/.~.~.!.Q.I.!.Y.I.K.m.p.p.l.k.z.p.p.z.z.p.u.8.X.^ ^ &.n.Q.n.4.) ! j i S D F F F F <.1.1.1.1.1.1.1.<.C ",
"3 C F b V F F F <.F b N 3 V F D S A A m i 0 q _ t.oX#X+XJ.n.n.K.Y.+X%X&X%X^.I.C.m.m.m.N.N.M.m.m.x.v.v.m.7...) %.g.b.y.] g q B G F F <.<.1.1.<.1.1.1.1.C V <.,.C ",
"3 C F F D F C F F D D F V b F G S A A A i r 0 E $.f.G.g.t.&.&.y.H.#X-X-X*X%X/.!.I.Q.Q.Q.!.Q.L.V.M.B.B.V.l.7.+.3.4.4. .E q q B G F 1.1.<.F <.<.<.,.C ,.C 3 C C C ",
"3 C 1.F F F F C D D F <.D D F D S A A A i v i l ^ |  . ./ W R | f.+X;X;X&X/.~.~.~.~././././.Q.K.m.x.x.x.x.z.i.3.O./ E k i m B S D <.1.<.F F <.<.C 3 ,.,.C 3 3 C ",
"C C <.1.1.1.<.,.F F 3 3 2 V <.F Z v A A A Z Z i s a * f a % % j $.G.OX+XU.n.n.n.J.J.n.J.J.H.b.p.q.7.7.q.u.u.8.O.~ f q i S G S Z D F <.1.1.1.1.1.1.1.1.1.1.C C C ",
"3 ,.<.1.1.<.<.1.1.<.F F F ,.1.<.D v v A A A A A i q 5 5 % 0 0 j | %.t.f.t.4.&.&.4.4.4.4.4.t.%.#.o.X.X.X.#.#.@.' j q y A S Z b F F <.<.F <.<.<.<.1.<.,.1.1.<.C C ",
"3 C <.<.<.,.<.1.1.1.1.1.1.1.1.1.<.V 1 A i i i A A i y y y r i i E ) ( ( / ^ / / ^ / ^ ^ / / ^ W W W W W ) ^ R E l y i i i v 2 <.1.F F D V V F F C C C ,.1.,.C C ",
"V C ,.,.<.1.,.F F <.1.1.1.1.1.F C C Z 1 i i i A A i i A A v v i q a a p p f f d f f p f f d f d f f f f f U j j l m A t v D F 1.<.V V C F V V V V V C ,.<.<.C 3 ",
"3 C ,.<.<.,.C ,.C ,.,.F <.1.<.F F <.F N b M M J B z i m v v i t y 0 0 0 0 q h q q q h q q q q q h h s q h j j l i J b b N F <.1.,.3 3 N F N N N 3 3 <.,.,.,.C 3 ",
"3 C <.1.C V C C ,.F 3 3 ,.1.<.<.<.1.<.,.F G M M H i y i y y i i r i i i i i i m i i B M i y y i m i i y i i i A B S S F <.1.1.1.,.F N 3 3 3 3 3 3 3 <.<.,.,.C C ",
"V C 1.,.V 2 3 C 1.1.1.<.<.<.F <.1.1.1.1.1.F N N S S v u y i i i i m m A A S S J A B M m i r u i S S J S S Z S Z G G F <.1.1.<.<.1.,.N N 3 3 N ,.C ,.C ,.<.<.,.C ",
"V C <.<.F F V F 1.1.1.1.1.<.,.<.1.1.<.1.1.F N N F F b v B l i H A A A A A S S S S M M M m m i m J J J S G F C C ,.F ,.<.<.,.,.<.1.1.,.F N F ,.<.<.<.<.,.,.<.,.3 ",
"3 C 1.1.1.1.1.<.<.<.C C ,.1.1.1.<.<.<.<.<.N N ,.<.<.F G A A A S S S S v m m m m M m M S S M M M A i i i Z F <.1.1.,.,.,.,.F V <.<.1.1.1.1.1.1.1.1.1.1.<.C <.C 3 ",
"3 3 ,.1.<.C <.1.<.<.,.3 ,.1.1.1.,.,.N F 1.1.1.N F 1.<.F G Z Z Z G S v S Z v v v b v b S b v Z S Z Z Z v D <.1.<.,.,.F F <.<.<.F ,.1.1.1.1.1.1.1.<.<.,.<.<.C 2 2 ",
"3 3 <.1.,.V ,.<.<.,.,.3 ,.<.1.,.F F F ,.1.1.<.F F 1.<.<.F D D F F D D F F V V D D D F F D b D F C V Z 1 D F <.F F F F F <.1.F F F 1.1.1.1.,.,.1.<.<.,.1.1.C 3 2 ",
"V ,.1.1.<.,.C ,.1.,.3 F 3 3 3 3 F <.<.1.<.N 3 1.1.F 1.1.1.F F F <.<.1.1.<.F 1.1.<.<.1.1.<.F D F 1.F V D F F D F F <.1.1.<.D V <.1.,.1.1.1.,.3 <.<.<.1.1.1.<.,.3 ",
"3 C <.<.,.C ,.,.,.,.C 3 ,.<.,.,.F <.F F F F <.<.F F <.1.1.F F 1.1.1.<.C C 1.1.1.<.1.<.<.<.F F <.F F C C F <.,.F ,.<.,.F F <.<.<.C F <.1.1.F F <.1.1.<.N C 1.<.,.",
"3 C C ,.,.<.1.<.C 1.1.C <.1.1.,.1.1.F F F 1.1.F F F F 1.1.<.F 1.1.<.C C C 1.1.1.F F F F F F 1.<.F 1.<.F ,.<.1.<.<.<.F V <.<.1.F F N ,.1.1.<.<.1.1.<.<.3 3 1.,.3 ",
"3 V C ,.<.1.1.1.1.1.1.1.C C 1.<.<.1.1.F <.<.F V F F <.<.1.<.1.1.<.,.C ,.<.<.,.C F <.F F <.1.1.1.1.1.1.1.F F 1.<.<.1.1.<.<.,.F N 3 ,.,.<.1.1.<.1.<.,.,.,.<.1.C 2 ",
"3 3 V C C 1.<.<.1.1.<.,.C C 1.1.1.1.1.F 1.<.F F F F F F F F F 1.1.1.,.<.1.1.C V F F V C F 1.<.<.1.1.1.F F F 1.1.<.<.<.<.<.<.F C ,.<.F C F C ,.1.1.<.,.,.1.1.3 1 ",
"3 3 3 3 C C ,.,.1.1.<.C C <.1.<.<.F F <.1.1.F F F 1.F C F F F <.1.<.<.<.1.1.C C <.F V V V C F <.1.1.,.C C 1.<.<.1.<.,.,.1.1.,.C ,.<.,.C C C F <.1.1.<.<.<.<.3 2 ",
"C V 3 3 C 3 C <.<.1.<.,.C ,.<.,.C C F F 1.1.1.F <.1.1.<.F 1.<.F C C <.1.<.<.1.1.1.F V V V V C F <.1.<.C F C <.F C D C F 1.1.<.,.,.1.1.1.,.1.1.,.C 3 1.1.1.<.C 3 ",
"2 2 2 C 3 3 C C 3 3 C C C C C 3 V V C F C C F C F C C F C F F F V 1 C C V V V C C V V V V V V V C V C V C C V V V V C C F F F F C C <.C C F F C 3 2 C C 3 3 3 2 ",
"< 1 2 3 C C 3 2 2 2 2 2 3 3 3 3 C V C V 1 V C C C V V V V V Z F 2 1 V 1 1 < V V V 1 Z V V V V V 2 1 2 V C V 2 V V V C V 2 2 3 C C 3 3 3 3 3 3 C 2 1 3 2 1 1 1 1 "
};
