/* XPM */
static char *Group_6_7__resized[] = {
/* columns rows colors chars-per-pixel */
"80 80 223 2 ",
"   c #06011C",
".  c #0C0824",
"X  c #130B2E",
"o  c #13182B",
"O  c #191936",
"+  c #1F2C25",
"@  c #1F3A23",
"#  c #1B2637",
"$  c #1A3030",
"%  c #233D27",
"&  c #253B35",
"*  c #263F39",
"=  c #2A4C1E",
"-  c #2E541A",
";  c #30561D",
":  c #345D1D",
">  c #36621C",
",  c #38651D",
"<  c #3C6D1D",
"1  c #3F711E",
"2  c #254224",
"3  c #284724",
"4  c #2B4C24",
"5  c #25422A",
"6  c #2B452D",
"7  c #2B4B2B",
"8  c #314B2C",
"9  c #2D5323",
"0  c #2E532C",
"q  c #305623",
"w  c #345B24",
"e  c #34542B",
"r  c #35592B",
"t  c #395B2C",
"y  c #294337",
"u  c #2D4B32",
"i  c #26413B",
"p  c #2A4D3B",
"a  c #304C31",
"s  c #324A3C",
"d  c #2E5334",
"f  c #2D543A",
"g  c #355837",
"h  c #366222",
"j  c #3A6524",
"k  c #3D6B22",
"l  c #3B652A",
"z  c #3D642C",
"x  c #3F7220",
"c  c #3D6231",
"v  c #41751F",
"b  c #43781F",
"n  c #406F26",
"m  c #40672F",
"M  c #416B2C",
"N  c #417620",
"B  c #457C21",
"V  c #43702B",
"C  c #416830",
"Z  c #262647",
"A  c #2B3147",
"S  c #2C2C53",
"D  c #3C3D62",
"F  c #264545",
"G  c #2A4C43",
"H  c #284844",
"J  c #29444B",
"K  c #2F4B49",
"L  c #2A4C4B",
"P  c #2D5242",
"I  c #2F5D47",
"U  c #2D524C",
"Y  c #335847",
"T  c #325C44",
"R  c #2E4258",
"E  c #2D5352",
"W  c #2F5A55",
"Q  c #2F5C5A",
"!  c #355656",
"~  c #315C53",
"^  c #315D5A",
"/  c #386149",
"(  c #376759",
")  c #33645C",
"_  c #3A705A",
"`  c #336363",
"'  c #366965",
"]  c #396C65",
"[  c #3A7264",
"{  c #3C7B67",
"}  c #3C746A",
"|  c #3D7B6B",
" . c #3A7572",
".. c #3D7A73",
"X. c #3B777B",
"o. c #3D7B7B",
"O. c #426E5B",
"+. c #46745E",
"@. c #4C526D",
"#. c #595C73",
"$. c #467467",
"%. c #47726E",
"&. c #427A6D",
"*. c #478022",
"=. c #498423",
"-. c #4C8924",
";. c #3E8378",
":. c #42816E",
">. c #438474",
",. c #4A8676",
"<. c #448A7C",
"1. c #4C8B7B",
"2. c #568671",
"3. c #538C7C",
"4. c #46927A",
"5. c #4C937D",
"6. c #5D9A7F",
"7. c #3B7981",
"8. c #767C98",
"9. c #3E8285",
"0. c #428783",
"q. c #418B84",
"w. c #4A9787",
"e. c #4E9C84",
"r. c #509E84",
"t. c #5A9B85",
"y. c #418694",
"u. c #4A9C95",
"i. c #629A84",
"p. c #4FA086",
"a. c #4FA088",
"s. c #51A186",
"d. c #51A38A",
"f. c #54AA8D",
"g. c #58AD8E",
"h. c #55B38F",
"j. c #4FA494",
"k. c #4DA49C",
"l. c #54AC93",
"z. c #54AD97",
"x. c #57B295",
"c. c #59B493",
"v. c #5CBA96",
"b. c #56B29B",
"n. c #5DBD99",
"m. c #66A388",
"M. c #6BAE92",
"N. c #66BB99",
"B. c #75BB9C",
"V. c #469BA5",
"C. c #4CA6A5",
"Z. c #51ACA3",
"A. c #54B4A4",
"S. c #58BAA4",
"D. c #54B5AA",
"F. c #56B9AA",
"G. c #59BEAB",
"H. c #4DAAB8",
"J. c #55B8B2",
"K. c #5EC49B",
"L. c #61C59C",
"P. c #6BC39F",
"I. c #63C99F",
"U. c #76C29E",
"Y. c #5DC2A6",
"T. c #5BC2AD",
"R. c #5BC5B3",
"E. c #5CC7B7",
"W. c #5ECCBB",
"Q. c #66CAA1",
"!. c #65CCA1",
"~. c #7AC8A6",
"^. c #7BC9A6",
"/. c #67D1A4",
"(. c #6AD4A6",
"). c #6AD6A9",
"_. c #6BDAAA",
"`. c #74D6AA",
"'. c #6AD5BA",
"]. c #6FE3AF",
"[. c #7AE3B2",
"{. c #55BCC7",
"}. c #5DCCC2",
"|. c #5FD2C7",
" X c #5BCCD7",
".X c #61D5C6",
"XX c #63DCD7",
"oX c #66E4DE",
"OX c #5ED3E3",
"+X c #61D9E2",
"@X c #68E8E9",
"#X c #67E8F3",
"$X c #9196AF",
"%X c #9298A8",
"&X c #81CFAA",
"*X c #85D2AB",
"=X c #84DCB1",
"-X c #87E4B6",
";X c #8EE9BA",
":X c #97E8BC",
">X c #94EDBE",
",X c #85F1BE",
"<X c #9AF1BF",
"1X c #A8F4BF",
"2X c #BAF9BF",
"3X c #D1FEBF",
"4X c #ACB3C7",
"5X c #97EDC1",
"6X c #8DF6C2",
"7X c #96F2C1",
"8X c #9BF3C2",
"9X c #9CF9C9",
"0X c #A3F4C4",
"qX c #A2F8C7",
"wX c #A2FACB",
"eX c #A7F9CA",
"rX c #B7FBC7",
"tX c #A7FCD0",
"yX c #A9FCD1",
"uX c #B6FDD2",
"iX c #C4FEC7",
"pX c #CCFEC2",
"aX c #D4FFC1",
/* pixels */
"- > v < v < v v v < < v v v v v 1 1 , = @ + + @ - < B 1 1 < < 1 1 v b 1 1 b b < , < v < < v v v v < < v 1 b b v 1 v b 1 1 < 1 b v v v v v , v v v v v v v b < : ",
", < v v b B 1 < v 1 1 B b v v 1 1 < h 0 p H U p 9 > < 1 1 1 b b *.b 1 1 1 b *.b v v v v v v 1 v 1 < v b B N v 1 1 b 1 1 < 1 b b v v v < v v b b b b v < v b v , ",
"b b v b B B N < v v b *.B B b v < h 0 P | <.3.$./ e w , 1 *.-.-.-.*.1 1 v b =.-.-.*.N B b b v < 1 b b b B B B N 1 b 1 1 1 B B b v v n v v B -.-.-.=.v < v B b b ",
"v b =.-.=.B N b v v v *.*.-.-.v h 0 I { a.P.~.M.2./ 9 > 1 B *.=.-.*.*.b v *.=.=.*.*.-.=.-.=.v v b v b *.=.=.-.-.-.*.1 1 B =.=.=.=.=.b =.b =.=.=.=.=.b v b B b v ",
"< b b =.=.-.=.*.*.B B *.-.-.-., 9 G ] e.Q.[.5X=XM.$.u = k b B *.b B -.*.b *.*.=.B B *.*.=.-.*.*.=.B B *.-.-.-.=.*.-.*.*.=.-.-.-.-.=.-.-.=.B B B b b =.=.b =.b v ",
"v v v v *.-.-.=.-.=.*.*.-.-.B ; 5 E ..f.(.6X9X;X~.1.H % , 1 x B 1 1 *.-.-.b *.-.-.B N N =.-.-.=.=.=.*.*.=.-.B B *.-.-.-.-.-.-.-.-.-.-.-.B B b b v b =.-.-.b b v ",
"< < v b B B B B B x N N N B B w 6 E  .e.Y.[.,X[.N.,.F % , 1 1 B 1 1 B -.-.b b b B B N B B B B B B x B B B B *.=.-.*.B v v B *.-.=.-.-.-.=.B B B v n b -.=.b v , ",
"< v v b b b b N x 1 1 x 1 1 B > 0 P ) <.a.Q./.L.r.[ p 4 x B *.*.b b -.-.-.b 1 1 B N N B B N 1 N 1 1 1 1 < x B =.-.*.B B B B N N B -.-.-.=.=.B =.b b =.-.=.b < > ",
"< 1 b B B 1 1 1 1 1 1 1 1 < < , h 0 I ) <.e.a.4.[ T e , B -.-.-.-.*.-.-.=.N N B *.B v B B v < x 1 1 x x N < k B *.B =.-.-.*.N 1 B =.-.-.-.-.-.-.=.-.-.-.-.1 < 1 ",
"< 1 v B B N x 1 1 x x < B B x B x k 0 I ` } ..) I t N B B =.=.=.B 1 B *.=.B *.=.B N v B B B v < 1 x 1 < N B B B -.*.-.-.-.=.B *.=.-.-.-.=.*.=.=.b 1 b =.-.*.b b ",
"< 1 v *.*.*.1 1 N B B 1 B *.=.-.-.x k 0 P U U f r x =.=.B B =.=.N , < B -.-.=.-.*.B v *.=.*.v v N B B B B *.=.-.-.*.=.-.-.-.-.-.-.-.-.-.B B =.=.1 < 1 b -.*.b b ",
"b 1 N -.-.-.B B *.-.-.-.=.=.-.-.-.*.x k 4 5 5 4 h *.-.=.b B -.-.B < 1 *.=.B B -.-.*.N =.-.=.B B B -.-.-.=.*.=.-.-.*.-.-.B B -.B *.-.-.*.v *.-.-.1 < 1 *.-.1 1 b ",
"1 1 v *.-.-.-.*.1 x =.-.*.*.-.*.*.=.*.x k k k < x -.-.-.*.=.-.-.*.*.-.-.-.B B *.B B N *.=.-.-.B 1 B *.-.=.B -.=.B =.-.=.*.-.-.B -.-.-.-.*.-.-.-.-.*.=.-.-.b v 1 ",
"< 1 b b -.-.-.=.1 1 B -.B x B 1 1 =.*.x *.=.=.=.=.=.=.-.-.-.-.-.-.-.-.-.*.B *.*.B B B B =.-.-.-.v x B -.B B =.=.B -.*.B -.-.-.*.*.-.=.-.-.-.-.-.=.-.-.-.=.*.b 1 ",
"1 b -.-.-.-.=.=.-.*.B =.1 h 9 : x *.1 1 x -.-.1 1 *.=.=.-.=.-.*.B B B B *.*.-.-.-.B *.-.-.-.-.*.-.B B -.=.B =.-.-.=.N < B -.-.B 1 B *.=.-.-.-.*.B B B *.*.=.b b ",
"1 b -.*.=.-.=.=.-.-.=.*.k 9 u 0 h x 1 1 1 *.*.1 1 x *.B B *.*.=.*.*.=.-.-.-.=.-.B -.=.*.-.-.*.-.-.=.-.*.=.=.=.-.=.B < < v B B v 1 B B B B B =.=.=.*.=.=.-.=.*.b ",
"1 b -.1 B -.-.*.=.=.*.x l P ( T g h < 1 x x B N B B B B B B *.-.-.-.-.=.-.-.-.-.*.-.=.B B -.*.-.-.=.=.B B *.-.-.=.B B x N v B N x *.*.*.1 *.*.-.-.-.-.=.-.-.*.b ",
"b b b 1 1 *.B *.*.< ; 4 I ;.5.4._ d q , B =.-.-.=.-.=.-.-.-.-.-.-.-.-.B 1 -.-.-.=.*.N 1 v B B B *.B x x 1 B *.-.-.=.*.B B =.-.-.-.=.=.=.-.-.-.-.-.-.-.*.b =.*.b ",
"1 b *.b x v b B x , 3 5 _ e.c.f.;.f 7 : 1 *.*.-.-.-.-.-.B B =.-.B B =.B 1 b =.-.=.*.*.x N v B N B N v B 1 x B -.-.-.-.B B B *.-.-.-.-.=.*.*.=.=.B *.*.1 1 b b b ",
"1 b -.*.B B B B x > 9 5 ( 5.c.f.:.f 7 > x B *.-.=.-.-.=.B B =.=.B x B B B 1 b -.=.=.-.*.B B B B N B B B 1 1 B -.-.-.*.-.B B *.-.-.-.-.=.1 *.=.-.1 1 *.=.*.1 1 b ",
"v B B -.-.-.*.*.=.1 : 9 T { 1.>.( e h B -.-.-.*.*.*.=.-.-.-.-.-.-.-.-.-.-.B -.-.-.=.*.=.-.-.*.=.B B 1 1 < x -.-.*.*.=.-.-.-.-.*.*.=.=.-.-.-.-.-.-.-.-.-.=.*.b 1 ",
"v B *.-.-.-.=.=.=.*.1 < l f / I l h 1 B *.*.B =.=.*.*.B B B b B B B B *.*.B b *.B B B B *.B B B B B b B B *.-.-.-.b B -.*.*.B =.=.=.*.*.=.=.=.=.=.-.=.=.-.=.b *.",
"1 b -.-.*.*.*.=.=.-.-.-.x 9 5 9 h 1 B B B 1 N -.-.B B 1 > : w > > : : , < , , k , , k , > , , , , 1 B -.-.-.-.-.-.1 N B B v N -.-.*.*.1 1 1 B B 1 *.1 =.-.=.1 1 ",
"v b B *.-.=.-.B *.=.-.=.B k w : , x B v 1 B B -.*.1 v , 4 2 5 2 2 % 2 3 3 2 3 3 2 2 2 2 @ = 2 % @ 9 , *.-.-.-.*.b B B v 1 B *.-.=.1 1 B B B B x 1 1 =.=.*.*.*.1 ",
"v b *.-.-.*.B B B B B B *.B N x 1 =.B x B *.=.-.=.1 > q u G G H p p G p G G p G p p G P P P K K P p e < B *.B N b *.B N B *.-.-.=.1 1 1 B 1 1 1 1 1 *.*.b =.b 1 ",
"1 b =.=.B 1 N B *.*.B 1 B =.*.=.=.-.=.=.-.-.=.-.*.< 9 p ~ ] } ' ' ] } } } } } [ [ &.&.,.&.2.3.%.3.$.g 9 > , : < b -.=.=.-.-.=.-.-.1 1 1 1 1 1 1 1 1 =.=.=.*.*.1 ",
"b b =.*.b 1 1 b =.-.=.*.-.*.B *.-.-.=.=.-.-.=.=.1 ; 7 U } <.q.>.,.1.e.r.s.e.e.4.5.g.M.B.U.B.B.&X^.s.O.u % @ % = < -.-.-.-.-.=.=.-.=.1 1 1 1 1 B *.1 *.*.=.=.*.1 ",
"v b =.*.b b v b -.-.=.-.-.-.*.-.-.-.=.-.=.*.B x h d W | 1.s.f.e.f.x.K.K.L.K.K.K.L.`.`.:X5X:X:X5X<X&X6.( F * G f h x *.-.=.*.B =.-.-.=.1 B B =.=.=.-.*.*.=.=.=.b ",
"v b -.-.-.-.=.=.-.*.B B B -.-.-.-.=.=.=.*.1 , q f ` <.u.f.x.v.v.K.!.)._._._._._.-X,X9XqXtXtXyXyXyX:X~.t.,.%.t.$.g q < *.*.x x =.=.-.-.=.=.-.-.-.-.-.-.=.b =.1 1 ",
"1 v *.-.=.b =.-.=.*.B N *.-.-.-.*.*.B *.=.1 - d ) 9.Z.A.z.f.c.n.Y./././././.`.[.,X8X9XqXqXqXqXqX0X5X=X~.~.~.^.i.[ 7 = , =.-.=.B *.-.-.-.-.=.-.-.-.=.*.*.=.b 1 < ",
"< b -.-.b b *.=.=.*.B x B *.-.B B *.1 x x h d ) ;.C.T.T.l.f.g.K.I./.I.K.K.I.`.-X<X<X8X7X<X<X<X<X0X8X5X<X8X0X5X^.t.( d 9 x *.*.*.*.=.-.-.-.=.*.-.=.*.*.*.-.b 1 < ",
"b b -.-.-.b b =.-.B x B b B 1 B B *.=.x l f ) 9.Z.T.T.S.l.f.c.L.!./.!.K.K.I.`.;XqXqXqX<X>X>X:X1X1XrXrXrXuXuXyX>X^.t.$.f w > , =.-.=.-.-.=.b b =.=.-.-.-.-.=.*.b ",
"v b *.-.*.b *.B *.*.B 1 *.=.*.B *.*.< q f ) q.Z.F.S.b.f.s.f.v.L.I./.I.K.K.I.`.;X1XqX<X<X>X>X1X1X2X3XpXpXrXrXqX7X;X&Xi.+.a 9 > B *.x -.-.-.*.B =.-.-.=.B b -.=.b ",
"1 v B *.*.*.-.-.B *.-.B *.=.-.=.=.B : 2 U X.Z.R.R.b.s.r.r.d.v.L.!.!.!.K.K.!.(.[.>X<X<X<X>X7X<X1X2X3XaXaX3X2X0X0XwX8X&X3.H 5 : N *.1 *.-.-.*.*.-.-.=.*.1 1 -.*.1 ",
"< v B B *.-.-.-.-.-.-.-.B N -.=.=.=.> % L o.D.|.W.v.r.5.e.l.v.L.!./.I.K.I.I.I.`.=X;X>X1X7X7X<X1X2X2XaXaX3X3XrXrXuXwX&X3.F @ - , 1 =.*.*.-.-.=.-.=.*.*.*.-.-.1 < ",
"< v v v B -.*.-.-.-.=.B B B =.=.-.=.: 3 U o.Z.W.R.b.r.w.e.f.v.L.!.!.!.I.I.I.I.I.(.[.;X<X9X<X<X<X<X1X3XpX3X3X3XiXuX0X^.w.F % - < *.=.B *.*.1 *.-.-.=.*.*.-.-.1 , ",
"v 1 1 1 b B B *.-.-.*.b B *.=.-.B N w u ) 0.Z.W.T.b.s.r.e.j.v.n.L.I.I.I.I.I.L.L.I.`.[.>X<X<X7X<X7X8XrXrXaXaX3XrXrX<X&Xt.) f w , *.*.*.1 1 x *.=.-.=.=.=.=.-.1 < ",
"b v 1 v x N B =.-.-.-.B B B =.N : q f ) <.C.J.}.R.b.s.r.e.f.f.l.K.L.I.I.I.I.L.K.K./.(.=X;X<X9X9X9XyXuXiXiXiX3XrX0X0X-X^.i.+.g r h x -.=.=.=.=.*.1 1 =.-.=.=.*.1 ",
"v b b B B B B *.*.B B *.B *.B > 9 p ( q.A.E.}.E.F.z.s.r.a.d.d.j.g.v.L.!.!.I.L.L.K.K.L.`.`.;X<X0X9X8X0X0XeXeX0X0X1X<X7X:X*XM.$.f 4 , *.=.=.-.=.=.1 1 -.=.B B B B ",
"1 b *.*.-.-.*.*.B B B *.-.*.B : 3 L X.b..X.X}.G.b.l.s.r.d.s.s.r.f.c.L.!.!.I.I.I.L.K.K.I.`.;X:X-X&XU.B.B.&X=X5X8X8X7XqXwX<X^.3.G 2 > 1 =.*.=.=.=.=.B =.B 1 1 1 1 ",
"> 1 *.*.*.*.-.*.*.B B =.-.=.-.> 3 E o.Z.W..XT.b.l.j.s.s.d.a.e.e.f.c.L.!./.I.I.I.I.L.K.I.].,X[.N.2.! ! O.i.^.7XyXyX0X9X9X6X`.1.L 5 ; *.-.*.*.*.*.=.=.=.B *.-.b < ",
"< v B B B *.B B B B B =.*.*.b : 2 L o.C.W.W.G.h.d.s.s.s.d.d.r.r.f.c.L.I.!.I.I.I.I.I.L.I.(.].L.2.! # X O ! i.=XqXyX8X>X;X`.c.>.H 2 ; x B x *.=.=.=.=.B v B =.B v ",
"b b v b B B 1 1 1 B B B B B b ; 2 L  .k.E.T.b.p.e.s.d.d.d.d.e.s.f.v.I.!.!.I.I.I.I.I.!.I.L.h.m.%.@.# X . Z ) m.=X<X>X`.P.p...) i 5 - , x 1 *.=.-.-.*.b v v B B b ",
"1 b -.-.-.*.v v B 1 N *.=.-.-., 7 P  .k.R.R.b.s.e.e.a.d.d.a.u.s.f.v.I././.I.I.I.I././.K.5.$.%.#.%X8.#.Z O Z @.t.U.`.P.t.` E L F 7 h B =.=.=.=.=.=.=.*.b b B b v ",
"1 v *.*.-.-.*.*.B B B *.-.-.=.> 4 L  .k.R.R.b.d.r.s.d.a.f.a.a.a.f.v.L.I.!.I.I.I.I._._.v.;.i S #.%X4X%XD O . O ^ 5.L.g.} & # Z i 0 k *.-.*.B B B B B =.*.B *.b v ",
"1 1 N x B -.-.-.-.*.*.*.-.=.B : 3 G  .k.R.E.b.d.e.r.s.f.a.s.s.s.f.x.v.L.I.I.I.I.I._._.c.) o X @.%X4X$X#.Z . . $ { c.w.E o . # i g j *.=.*.B B v v v *.-.-.b b v ",
"< 1 v B B B B B B N N N B B B , 7 G  .k.E.R.b.s.e.s.d.d.d.d.d.a.s.f.l.v.I.I.!.!.I._.].c._ o . A 8.8.8.8.S X   $ } c.e.E . . # i e j *.-.=.B B B v v *.-.=.B v , ",
"< < N *.B 1 N N N x 1 x < N B > 4 L  .k.R.R.b.f.r.e.d.a.d.d.d.a.a.a.d.x.v.I.!.!.I._._.c.;.F O O O D D D S O O L ,.v.a.` $ # # i d k *.-.-.B B B b b =.-.=.b , , ",
"< < v b B v < < N < x 1 1 < , : 4 L  .u.R.E.G.z.f.e.s.a.d.d.d.d.s.r.e.d.l.n.L.I.I.(._.L.s.&.J # X X O Z A S U &.s.L.c.1.~ L J F 7 j *.-.-.-.-.-.=.*.-.-.=.v < < ",
"< v b b B B v < < N N < N B v : 4 L } u.R.W.E.S.z.f.r.e.s.d.d.d.s.u.d.d.f.f.v.L./.(.(.I.L.g.&.J X . . X Z ! &.f.L.L.L.c.5.&.) i 7 j *.-.*.-.-.=.b v B *.=.*.B v ",
"< v b *.=.*.v v N B B B B *.*., 7 G  .u.W..X.XT.A.z.d.s.s.s.a.a.s.s.d.e.r.s.f.n.L.I.I.I././.g.&.J o . O J &.g.!.(.I././.n.r.&.H 7 > =.-.b b -.*.v , < B =.=.B b ",
"b v v -.-.-.B B *.=.-.-.=.*.=., 4 L 7.H.XX@XXXR.G.A.z.j.s.s.p.p.a.s.s.r.e.r.f.l.v.v.v.K.(.]./.f. .E F R &.s./.].]./.(._.I.d.&.p 2 k *.=.v =.-.-.v < 1 -.=.v v v ",
"< v b B -.-.-.B v N -.-.*.*.-.: 2 L 0.{.#X#XXXR.G.T.A.b.a.p.p.p.e.e.a.e.a.a.f.l.f.f.f.c.L././.L.d.4.4.5.g.K./._._./.!.Q.c.e.[ H 7 , B -.=.-.-.-.-.B =.-.-.B v v ",
"< 1 b b =.-.-.*.v v B -.*.B -.> 3 G 7.{.OX@XXX|.W.W.R.Y.b.f.a.a.f.d.d.f.s.a.e.s.d.p.p.f.h.n.L.I.I.K.K.v.v.K.I.I.I.L.Y.K.f.<.} i 6 > B -.-.-.-.=.=.=.-.-.-.*.b v ",
"1 b *.-.-.-.=.-.-.B B -.*.B B v l f ` 7.H. XOX+XoXXX.XE.R.S.b.x.z.b.A.z.f.a.e.e.e.e.e.e.s.g.n.L./.K.c.s.6.h.v.K.K.c.n.Y.b.u. .F 2 : B -.=.-.-.*.B B B B B *.B b ",
"1 b -.=.=.-.=.-.-.-.=.*.*.-.*.B M g K Q 7.V. X#X#XXX'.E.E.R.T.F.G.G.F.S.l.p.e.5.e.e.e.e.s.s.g.v.v.d.4.[ [ ;.f.h.g.f.n.T.R.k...F % ; v B B B =.=.-.*.-.*.-.=.*.B ",
"1 B =.N B -.*.-.=.-.=.B B B =.=.V z 8 & Y %.{.OXOX}.D.A.F.J.E.}.|.|.W.R.S.x.f.f.l.l.l.l.l.l.l.z.l.w.} W W ` <.e.f.f.S.T.D.u. .H 4 : b B B B =.-.-.-.-.-.-.-.*.b ",
"v B N v v B B B *.N < v N N =.=.B C t 8 s ` 7.C.C.u.q.<.0.u.{.+X#X@XXXW.R.T.G.G.T.T.G.T.G.G.S.S.x.s.>.{ ( ) ] <.j.S.F.Z.w.X.` f r n B -.-.=.-.-.-.-.-.b v =.*.b ",
"1 b *.N N B b B B N v B k N B B n M m t a s ^ ' ` ` W L E X.H.OX#X@X.XE.R.R.R.R.R.R.E.E.E.E.G.S.z.d.e.5.| ) E } w.F.D.w.` ! Y m V B -.=.B *.=.=.*.b =.b v v b v ",
"v b =.B B B B B B N B *.v N =.B v n M M t e a i * i & & & ^ y.{.OX XJ.A.A.A.D.D.D.D.A.D.D.F.D.k.w.e.e.p.>.) F Q 9.Z.k...G u e M B =.-.=.B B =.=.b v b *.b v v b ",
"b B *.-.-.*.*.*.*.b v v < N -.*.b n n V C c 8 8 y 6 6 8 8 Y ] y.V.u.q.0.;.q.q.q.0.q.q.q.q.q.0.o...| :.;.] E H E ] 0.&.` s t z b =.=.=.=.-.-.-.-.-.-.-.-.-.*.b b ",
"v b *.-.-.-.=.-.-.*.B B B *.-.-.b v v n m c t t r r r r w g Y ^ ` ` Q ~ Q Q ^ ^ ^ ^ Q Q ) ^ Q ~ ~ U ~ ~ E K H J E ^ ! Y t z N B =.=.B =.=.=.=.=.=.=.=.-.-.*.b b ",
"v b -.*.*.-.*.-.-.-.-.-.-.-.-.-.=.v v n t t t M M m m j t r 8 y & & & * i i i i y * * i i i * i i y i i y H H H F * u e j < v =.=.B B b v v b b b v v =.-.=.b b ",
"v b *.*.=.-.*.B b -.-.-.-.-.=.B b b v n , j m M m t t m j r e 6 6 & u 8 a a 7 u a a 6 8 a a a a u a a a g s g G s s 8 e k B *.-.*.v v B B b v v v v b =.=.=.b 1 ",
"v b =.=.=.*.B B B *.B B =.-.=.B B =.B B x x l C c t t t z t t e e e t t t t t t t w t t t r r e t t t e t m t c t c z z B *.-.-.B 1 1 N B x x 1 1 1 =.*.*.*.b < ",
"1 b =.-.b v b B =.*.x x *.-.=.*.=.-.=.*.-.*.B M l j w w w e t t r l m M M t m M m m M M m t z m m m t t m n n M V V B B -.=.*.-.*.B x 1 1 1 1 x < b =.=.*.*.b v ",
"v b =.b N < < b -.-.=.=.=.=.B *.-.-.-.-.-.=.B B B B z w e t t t c z z m m M M m m m C m t e t t m m m m M n n B =.B =.=.-.-.-.-.-.-.1 1 < 1 B B b b *.=.*.=.*.b ",
"v b -.=.B B v B -.-.=.=.-.=.*.-.-.-.=.-.=.*.B *.=.=.v k z t c m z M z z t m m M m m m m z z t t n m m m M n B =.-.=.=.-.=.*.B -.-.-.B B B B *.*.=.=.=.*.*.-.*.v ",
"1 b -.-.-.-.=.=.=.=.*.B =.-.-.-.-.*.=.=.*.x x =.=.-.=.B N M M n V V x l z k l k n n n n n n n n n M j w n B =.-.-.*.=.*.*.B N B =.=.-.-.=.-.-.-.-.-.-.*.*.*.b 1 ",
"1 v *.-.-.b =.-.*.=.B 1 *.-.-.=.*.*.B x -.-.=.x B -.-.=.B B B B B N k N N x k < n v B B v n B B v N n k b =.-.=.*.B B B -.=.-.B *.-.-.-.-.-.-.-.-.=.*.*.*.b < < ",
"< b *.-.-.b *.=.=.=.*.1 *.=.=.=.B B B *.=.-.=.B =.=.-.-.=.B B B B B B *.*.b v b b b b =.b v b *.B b v v B B =.=.B B B B -.*.*.B *.-.-.-.-.*.B -.-.*.*.=.=.*.< < ",
"b b -.-.*.b b *.-.*.1 b 1 1 b 1 B =.-.-.=.x x -.=.=.-.-.=.B B =.-.=.-.=.-.-.-.-.=.=.-.-.=.b b *.-.B v b b b b b B -.-.-.*.v v -.-.B -.-.-.B b =.=.=.-.-.=.=.*.b ",
"v b =.=.*.b *.*.=.=.b v *.=.B *.*.=.*.B *.B *.-.B B =.-.=.B B -.=.-.=.b b -.-.-.=.=.=.=.*.b *.b =.B b b B -.B B *.*.B B *.*.=.=.B B *.-.-.B B *.-.-.=.B b -.*.b ",
"1 v b *.*.=.-.=.b =.=.b *.-.=.=.=.=.B b B -.-.B B B =.=.-.=.=.=.-.=.*.b b -.-.-.*.B *.B *.*.-.-.B -.=.b B -.-.*.-.-.B b B -.-.B B B *.=.-.*.-.-.-.=.*.1 1 -.*.b ",
"1 v b =.*.-.-.-.-.-.-.=.B b -.=.=.-.-.*.*.*.B N N B B =.-.=.=.-.=.*.b *.=.=.*.B *.B B B =.-.-.-.-.-.-.-.B B -.=.*.-.-.*.*.*.B v x *.B =.-.-.*.-.=.B B *.=.-.b < ",
"< v v v *.=.=.=.-.-.=.=.b B =.-.=.-.=.=.=.=.B b B =.B B =.B B -.-.=.=.=.-.-.b 1 =.B v b B =.-.=.-.-.-.B B B -.-.-.-.*.-.=.*.B v B =.B B B B B -.-.-.*.*.-.-.1 , ",
"v 1 1 1 b b *.*.-.-.*.b b =.-.-.=.*.*.*.-.-.*.B *.=.B B N B B =.-.=.=.=.=.=.B B =.B v v v B B *.-.-.=.b b =.=.=.-.*.*.*.-.-.*.B *.-.*.b b b B -.-.-.*.*.-.-.b , ",
"v v 1 v 1 b b *.=.=.=.*.b *.-.b b B B B -.-.=.*.-.-.-.-.B =.-.B v v =.-.-.*.-.-.-.b v v v v B *.=.=.=.b *.b *.B B v v B -.-.*.-.*.-.-.-.*.-.-.*.v v -.-.-.*.b b ",
"< < 1 1 b 1 b b b v b b b b b v v v v b b B b b b b b B B B B B < < b b v v v B B v < v v v v b b b b b b b v v v v v b B B B b B b *.b b B B b < < b b 1 1 1 < ",
"> , 1 1 1 b 1 < < < < < v 1 < 1 b v b v < < b b v v v < v k N B < < v < > , < v v < < v v v v < v , , v b v < v v v b b < < 1 b v 1 1 1 1 1 v b < < 1 < > , , > "
};
