/* XPM */
static char *Group_6_8__resized[] = {
/* columns rows colors chars-per-pixel */
"80 80 228 2 ",
"   c #07031D",
".  c #0B0826",
"X  c #140A2A",
"o  c #110E2F",
"O  c #15152D",
"+  c #171634",
"@  c #192536",
"#  c #192D30",
"$  c #23282C",
"%  c #233D24",
"&  c #223C2E",
"*  c #20283E",
"=  c #22393A",
"-  c #26461D",
";  c #2A4A1D",
":  c #2F5316",
">  c #2E521E",
",  c #30541D",
"<  c #345D1D",
"1  c #37621C",
"2  c #39661C",
"3  c #3C6D1D",
"4  c #3F711E",
"5  c #254321",
"6  c #294722",
"7  c #2A4B25",
"8  c #25412D",
"9  c #29442C",
"0  c #2A4B2C",
"q  c #324E29",
"w  c #2E5324",
"e  c #2E532A",
"r  c #315621",
"t  c #335D22",
"y  c #385E25",
"u  c #35552C",
"i  c #34592C",
"p  c #395B2D",
"a  c #254331",
"s  c #2B4534",
"d  c #2C4A34",
"f  c #27473A",
"g  c #27433D",
"h  c #29493B",
"j  c #304C38",
"k  c #2D5335",
"l  c #2E543E",
"z  c #385A33",
"x  c #31533E",
"c  c #325C3C",
"v  c #366223",
"b  c #3A6424",
"n  c #3C6B22",
"m  c #35612A",
"M  c #3E642D",
"N  c #3F6929",
"B  c #3F7220",
"V  c #3B6136",
"C  c #41751F",
"Z  c #43781F",
"A  c #40692B",
"S  c #416B2B",
"D  c #417620",
"F  c #457C21",
"G  c #447428",
"H  c #426A30",
"J  c #221F44",
"K  c #2B254A",
"L  c #263945",
"P  c #2F3154",
"I  c #3F3F63",
"U  c #463557",
"Y  c #264343",
"T  c #284542",
"R  c #294A42",
"E  c #284648",
"W  c #294C4B",
"Q  c #334E40",
"!  c #2D5649",
"~  c #325746",
"^  c #325D44",
"/  c #2D4951",
"(  c #2D5453",
")  c #2F5A55",
"_  c #2F5D58",
"`  c #375456",
"'  c #305C55",
"]  c #345E5A",
"[  c #36624B",
"{  c #356657",
"}  c #34635D",
"|  c #3A705B",
" . c #325F60",
".. c #336562",
"X. c #386A65",
"o. c #3B6D65",
"O. c #356C6B",
"+. c #3C7364",
"@. c #3E7863",
"#. c #3B7369",
"$. c #3D7B6C",
"%. c #376D74",
"&. c #387576",
"*. c #48516C",
"=. c #5A5474",
"-. c #4A6E6C",
";. c #447869",
":. c #4A7D6C",
">. c #457C71",
",. c #478022",
"<. c #498423",
"1. c #4C8924",
"2. c #3E8270",
"3. c #438473",
"4. c #468878",
"5. c #488E79",
"6. c #508B74",
"7. c #53897A",
"8. c #46947C",
"9. c #4A937C",
"0. c #4D7089",
"q. c #6F728D",
"w. c #3F808B",
"e. c #448C86",
"r. c #499485",
"t. c #4E9C84",
"y. c #46948C",
"u. c #4D9D8A",
"i. c #509F85",
"p. c #479694",
"a. c #4A9B95",
"s. c #6E8B8D",
"d. c #4FA288",
"f. c #51A186",
"g. c #51A38A",
"h. c #55AA8D",
"j. c #5AAC8D",
"k. c #58B18E",
"l. c #4FA79B",
"z. c #54AB91",
"x. c #53AB94",
"c. c #57B092",
"v. c #59B493",
"b. c #5CBB96",
"n. c #56B29C",
"m. c #58B89B",
"M. c #5DBD99",
"N. c #66A78D",
"B. c #69AD93",
"V. c #6AB394",
"C. c #73BA9C",
"Z. c #499CAA",
"A. c #7B88A4",
"S. c #4BA3A9",
"D. c #51AFAA",
"F. c #55B3A4",
"G. c #57B8A5",
"H. c #59BBA5",
"J. c #54B5AA",
"K. c #56BAAB",
"L. c #59BDAB",
"P. c #4DA9B3",
"I. c #52B4B2",
"U. c #57BDB1",
"Y. c #5EC39B",
"T. c #5FC89D",
"R. c #61C59C",
"E. c #6FC79F",
"W. c #63C99F",
"Q. c #5CC2AC",
"!. c #5BC4B3",
"~. c #5CC7B8",
"^. c #5ECBBB",
"/. c #5FD0BE",
"(. c #60C7A5",
"). c #64CCA1",
"_. c #6ACEA3",
"`. c #7BC7A4",
"'. c #66D1A4",
"]. c #6AD4A6",
"[. c #69D7A8",
"{. c #6BDCAA",
"}. c #75D8AB",
"|. c #7BDBAE",
" X c #7DDDB0",
".X c #6DE0AD",
"XX c #75E5B2",
"oX c #5DCCC3",
"OX c #59C5D5",
"+X c #61D6C7",
"@X c #64DCD3",
"#X c #61DADD",
"$X c #63DDDC",
"%X c #63DDE8",
"&X c #68E9EA",
"*X c #67E6F0",
"=X c #9292A8",
"-X c #85D5AD",
";X c #87D9B2",
":X c #92DDB9",
">X c #86E6B6",
",X c #8BE4B6",
"<X c #8CEABA",
"1X c #92E2B8",
"2X c #95EDBE",
"3X c #99EFBF",
"4X c #94F1BF",
"5X c #9AF0BF",
"6X c #A6F3BF",
"7X c #B7F8BF",
"8X c #CAFCBE",
"9X c #D6FEBF",
"0X c #A9B0C5",
"qX c #96EEC1",
"wX c #8EFAC3",
"eX c #9BF3C2",
"rX c #9AF6C6",
"tX c #A7F5C4",
"yX c #A3FACB",
"uX c #AAFBCC",
"iX c #B4FAC3",
"pX c #BAFBC6",
"aX c #AAFCD2",
"sX c #B3FBD1",
"dX c #CBFEC2",
"fX c #C4FEC8",
"gX c #D6FFC1",
"hX c #CFFFD2",
/* pixels */
": 1 C 3 4 C 4 C C 3 3 4 4 Z Z 3 < - ; : 2 3 4 F Z 4 Z Z 3 3 3 4 C C C 4 4 Z Z 3 1 3 C 3 3 C 4 C C 3 3 C 4 4 Z Z 4 Z Z 4 4 3 4 Z F 4 Z Z 4 3 4 4 4 C Z 4 4 Z 3 < ",
"2 3 C C Z Z 4 3 4 4 4 Z Z Z C 2 w a 0 w 2 4 Z Z 4 4 4 4 4 C Z Z Z Z C 3 4 Z ,.Z C C 4 C C C 4 4 4 4 4 Z Z Z Z 4 4 4 4 4 4 4 4 Z 4 4 4 4 4 4 F Z Z Z 4 4 4 F C 3 ",
"Z Z C Z F F D 3 C C Z ,.F D 4 t k [ ! l t n D B 4 B 3 4 C ,.1.1.1.,.C 4 C Z 1.1.1.<.D F ,.Z C 4 4 Z Z ,.F F F B 4 Z 4 4 4 D F Z 4 4 4 3 4 ,.1.1.1.,.C 4 C F F Z ",
"C Z <.1.1.F D D Z C C ,.D n t c | 9.9.| c r n F ,.,.<.,.,.,.,.1.1.<.,.Z Z ,.,.,.F <.<.1.<.,.Z C Z 4 Z ,.1.1.<.<.1.<.4 4 F <.1.<.,.,.,.<.<.,.,.<.<.<.,.Z C <.Z 4 ",
"3 C F <.<.1.<.F ,.F F <.D v 7 ' 5.k.k.5.! 0 v F <.1.1.1.1.F ,.F F F <.<.Z ,.<.<.,.,.,.,.<.1.<.<.<.Z F ,.<.1.1.<.<.<.,.,.1.1.1.1.1.<.1.1.<.,.Z ,.Z Z <.<.Z ,.Z 4 ",
"C C C Z F 1.1.1.<.<.,.<.D t 9 [ 5.k.k.8.) d < F 1.1.<.<.<.F D D 4 4 <.1.1.Z ,.1.<.F C B F 1.1.1.<.<.,.<.1.1.F F ,.1.1.1.1.1.1.1.1.1.1.1.<.F Z Z 4 C <.1.<.Z C C ",
"3 3 C Z F F F F B B B B 4 2 v V | 5.4.X.k r 3 F 1.1.1.1.<.D Z D 3 4 F 1.1.Z C Z F F D F F F F F Z D D F D F <.1.1.<.F Z D F ,.<.<.1.1.1.<.Z 4 Z 4 4 ,.1.<.F 4 2 ",
"3 C C Z F D D D B 4 4 4 3 2 3 m c ' [ V v 3 C C F 1.1.1.1.,.,.,.F Z <.1.1.C 4 C F D D F F D 4 D 4 4 4 B 4 4 F <.<.,.,.F D D Z Z ,.<.1.1.1.,.,.<.Z Z <.1.1.D 3 2 ",
"4 4 Z ,.,.4 4 4 4 4 4 4 4 4 3 3 y % 7 t F F D 3 D <.1.1.1.1.1.1.<.<.<.1.<.D D F F D D ,.F 3 4 B 4 4 4 B B 4 B D ,.,.<.1.1.<.D 4 4 1.1.1.1.1.1.1.1.1.1.1.<.4 3 4 ",
"3 4 4 Z F B 4 4 4 B 4 4 4 ,.B B C < y C <.1.F <.1.<.1.1.<.<.<.<.F C Z <.<.F <.<.F D Z F F F 4 3 4 B 4 4 D F D ,.<.,.1.1.1.<.F <.1.1.1.1.<.<.<.<.Z 4 4 ,.<.<.F 4 ",
"4 4 4 <.<.,.4 4 F F B Z B ,.1.1.<.G F F <.1.<.1.1.1.1.1.F F <.<.4 3 3 F 1.<.<.1.,.D C ,.1.F C C D F F D F ,.<.<.1.<.1.1.1.<.<.<.1.1.1.1.Z ,.<.<.4 3 4 F 1.<.<.F ",
"4 4 4 1.1.1.F F <.1.1.1.1.,.1.1.1.F <.1.F F <.F F 1.1.<.Z F 1.1.D 3 4 <.1.D F <.1.,.D <.1.1.F F ,.1.1.1.<.,.1.1.1.,.<.<.F ,.1.,.,.1.1.,.4 <.1.1.4 3 4 <.1.4 4 4 ",
"4 4 4 <.1.1.1.,.4 Z 1.1.,.,.1.1.F 1.1.1.<.1.1.<.1.1.1.1.<.1.1.1.,.,.<.1.1.F F <.,.F C ,.1.1.1.,.4 F <.1.<.F 1.<.,.<.<.<.<.1.1.,.<.1.1.1.<.1.1.1.1.,.<.1.1.F 4 4 ",
"3 4 Z ,.,.1.1.,.4 4 B 1.,.4 <.,.F 1.F F 1.1.1.F F 1.1.1.1.1.1.<.<.<.1.<.<.<.<.<.F D F F <.1.1.<.4 4 F 1.,.F <.,.F <.<.F 1.1.1.,.,.1.1.1.1.1.1.1.1.<.1.1.<.,.4 4 ",
"4 Z ,.1.1.1.<.1.1.<.Z 1.,.,.,.1.1.F C C Z 1.1.Z C F <.1.<.1.1.F ,.F ,.,.,.<.<.1.<.<.,.<.1.1.<.<.1.,.,.<.<.F <.1.<.<.D 4 D 1.1.Z F F <.<.<.1.1.,.F F ,.F ,.,.,.Z ",
"4 Z 1.,.1.1.<.1.1.1.<.,.,.,.1.1.F C C C Z Z G C D F F F F F <.1.<.,.,.<.<.1.1.1.<.<.1.,.<.1.<.<.1.<.<.,.<.<.<.1.1.D 4 4 C F F 4 4 4 F F F F ,.<.<.,.<.<.1.1.,.Z ",
"4 Z 1.4 ,.1.<.,.,.,.B B ,.,.<.1.1.B B B 4 4 F B D F F F D F F 1.1.<.1.<.1.1.1.1.,.<.1.D F <.<.<.<.<.<.F ,.<.1.1.<.F B D 4 4 F B Z F F Z Z F ,.1.1.1.1.1.1.1.<.Z ",
"Z Z Z 4 4 Z 4 3 v w r 2 4 B ,.1.1.<.,.,.<.<.1.1.<.<.1.1.1.1.1.1.1.1.1.,.C <.1.1.<.,.D 4 C F F ,.<.F B B 4 D ,.<.1.<.,.F <.<.1.1.1.<.1.1.1.1.1.1.1.1.1.F 4 1.,.4 ",
"4 Z ,.4 B D 4 v 0 a 0 1 2 4 ,.1.1.<.1.,.F F 1.1.1.1.1.1.F <.1.1.,.F ,.D C C <.1.<.<.,.D D D Z F F 4 D F 4 4 F 1.1.1.1.<.F F <.1.1.1.1.<.,.,.<.<.,.,.,.Z 4 Z Z Z ",
"4 ,.1.,.,.D B t a g 0 v 3 4 ,.1.1.1.1.<.F F ,.1.1.1.1.1.D F <.<.D D F ,.F 4 Z 1.<.<.<.<.F F F Z D Z F ,.4 4 ,.1.1.1.<.<.F F ,.1.1.1.1.<.B ,.<.<.Z B F ,.,.4 4 4 ",
"Z F ,.<.1.1.F n w 0 7 < 3 D 1.<.,.,.<.1.1.1.1.,.F <.1.1.1.1.1.1.1.1.1.1.<.F <.1.<.<.<.<.1.1.,.,.,.D 4 4 4 4 1.<.,.,.<.1.1.<.1.<.,.<.<.1.1.1.1.1.1.<.1.1.<.,.4 Z ",
"4 Z <.1.1.<.<.B n n n 4 D <.1.1.<.Z ,.1.<.,.,.,.<.<.F F <.<.<.<.1.<.<.1.1.<.<.1.<.<.<.<.1.<.<.1.<.<.F F F <.1.1.<.Z ,.<.<.,.,.<.<.,.,.,.,.<.<.<.<.<.<.<.1.<.,.Z ",
"4 Z 1.<.,.,.<.<.1.1.1.1.1.1.<.1.<.4 Z ,.F 4 4 <.1.F F D C C D F Z Z C <.1.<.<.<.<.<.1.<.,.,.<.1.1.1.1.1.1.1.1.1.1.4 F ,.F 4 C <.1.,.F Z 4 Z F F Z Z B <.1.,.Z Z ",
"Z Z F ,.<.1.,.,.,.1.<.<.1.1.<.,.F F F 4 4 F <.1.<.C Z F D Z C C C C F Z F <.<.<.<.<.F <.1.1.,.,.,.<.1.1.1.1.1.,.F Z D D 4 F <.1.<.B B F Z Z B Z B B ,.<.<.,.Z 4 ",
"4 Z <.<.<.,.F ,.Z ,.F D <.<.<.F F ,.F Z 4 <.1.1.,.3 4 4 Z C 3 C 3 4 ,.F F ,.,.,.<.<.,.<.<.,.,.Z F ,.,.Z <.1.<.,.F <.F 4 ,.,.1.1.,.4 4 Z Z B B 4 4 4 ,.,.,.,.Z 4 ",
"4 Z <.1.Z 4 4 ,.<.,.Z 4 ,.<.<.<.1.1.<.<.1.1.1.1.,.3 1 < < < < < 1 3 ,.<.,.,.<.<.,.<.<.1.F 4 4 ,.<.,.4 4 Z <.<.<.<.1.<.<.1.1.1.1.,.Z 4 4 4 B B B 4 4 <.,.,.,.Z 4 ",
"Z Z <.,.Z 4 3 Z <.1.1.<.<.<.F <.1.1.1.1.1.1.1.1.B 2 ; 5 % % 5 5 ; 1 D ,.<.1.1.1.<.<.<.,.D 4 4 D 1.<.<.<.1.<.,.,.1.1.1.1.1.1.<.1.1.<.4 4 4 B Z Z ,.Z ,.,.<.<.,.Z ",
"C Z <.<.,.Z 4 Z 1.1.<.<.1.<.,.1.<.1.1.<.1.,.,.B B t h g f f f R d e n F Z ,.,.,.F ,.F Z 4 4 3 4 <.<.<.<.<.<.,.<.1.1.1.1.1.,.F <.1.1.,.Z Z F ,.<.<.<.<.,.<.<.,.Z ",
"4 Z 1.1.1.1.<.1.1.<.F D <.1.1.1.<.1.1.<.,.B 4 n m ^ | #.#.o.#.#.{ V m n 4 2 n n n n 3 4 n n n 2 2 3 3 4 ,.1.1.1.1.<.,.<.,.B 4 1.<.1.1.1.1.1.1.1.1.1.1.,.,.,.Z 4 ",
"3 Z ,.1.<.Z <.1.,.<.,.4 ,.1.1.1.,.,.B F 1.,.2 e ^ @.9.f.t.t.i.g.5.{ k 6 - - 6 5 5 - 5 6 - - 5 5 % 5 , 3 ,.1.1.1.<.,.B F <.1.1.4 ,.1.1.1.1.<.1.1.1.<.,.,.,.Z 4 2 ",
"4 Z <.1.,.Z ,.<.<.,.D F F <.<.,.F F F F <.4 > d { 8.v.W.R.R.R.).h.3.[ h a a f f h f h h h h f T h h e t 4 ,.,.B 4 ,.Z F 1.1.<.F ,.<.1.1.1.,.,.1.<.<.,.<.<.F 4 3 ",
"C Z 1.1.<.Z Z <.1.,.B B Z Z 4 F F <.1.1.,.1 5 Y X.d.W..X{.{.{.{.T.d.3.#.} o.o.X.X.#.;.:.>.:.>.6.5.;.[ e < < , 1 3 ,.1.1.,.4 4 1.1.,.1.1.1.Z Z <.<.<.1.1.1.<.,.Z ",
"4 Z <.<.,.Z ,.,.,.,.,.4 <.<.F F ,.<.,.F <.2 6 f  .5.b.'.{.[.'.R.v.h.i.t.r.r.9.9.8.9.N.B.V.C.V.C.`.N.6.x % % % 5 < F ,.F ,.,.,.<.<.F <.1.<.,.,.<.1.1.<.,.F 1.<.F ",
"4 Z Z ,.,.,.1.<.Z 1.<.4 <.<.<.<.<.<.F C D 2 e R ..4.g.R.).).R.v.h.k.b.M.R.M.M.Y.R.W.}.,X1X1X:X2XeX;XN.| R = = a e B C 4 ,.1.1.F B Z ,.1.1.<.<.<.<.<.,.4 4 1.,.4 ",
"4 C ,.,.<.1.1.1.1.1.1.1.D D <.1.<.1.1.Z 2 i x o.>.y.g.z.v.M.v.h.c.b.).[.{.[.[.{.XXXX4XyXuXuXyXaXaXeX-XB.4.>.7.-.[ i 3 Z ,.,.F 4 B <.,.<.1.<.<.1.,.,.,.,.<.<.Z 3 ",
"4 4 4 4 F <.,.1.1.1.1.,.F F <.1.1.1.Z 2 6 l o.y.l.x.g.f.h.c.v.v.b.T.).'.[.'.[.|.>X4XrXyXtXuXyXyXyXeX,X-X`.C.`.N.3.c 7 2 ,.<.F D Z <.Z ,.,.Z ,.<.1.<.,.,.1.1.B 1 ",
"4 4 4 4 4 ,.,.,.1.1.,.4 F ,.<.1.,.F 3 e h X.y.J.U.H.g.f.i.g.v.b.R.).W.W.T.T.'. X<X5XeXeX5XeX5X5XeXqX3X2X2X3XeX;XN.-.k w B ,.F F ,.<.,.4 B 4 F <.1.<.,.<.1.1.B 3 ",
"Z 4 4 Z B 4 ,.,.1.1.1.,.F ,.<.D 3 < e Q #.y.F.!.Q.n.g.t.r.g.h.R.).'.).W.Y.Y.].>X5XyXtX5X4X2X5X5X6XiXiXpXpXsXsXqX-XB.;.x r n F ,.<.<.1.<.<.<.1.F 4 Z <.1.1.,.Z Z ",
"4 Z Z Z ,.F ,.F ,.,.,.,.,.,.F 3 < 7 ^ #.y.F.L.G.n.z.g.i.t.g.z.Y.).'.W.R.Y.T.E.>X4XtXyX5X2X2X3X6X7X8XdXfXfXpXuXeXqX;XB.;.l e 2 ,.1.<.<.<.<.1.1.<.Z 4 1.,.Z Z Z Z ",
"4 4 <.<.<.1.,.,.F F Z ,.<.<.F 3 r a  .y.K.~.H.z.i.i.g.g.i.g.v.M.W.).W.R.T.R.W.|.<X5X5XeXqX2X4X6X7X8XgXgXdXpXtXtXrXrX;XN.+.Q w B ,.,.,.<.,.,.<.1.,.4 <.,.4 Z Z 4 ",
"2 4 <.,.,.,.<.<.<.F F <.<.<.1.4 > & } a.~.oXQ.h.t.t.i.i.u.g.v.M.).'.W.W.T.R.W.}.|.,X2X5XeXeX5X6X6X8X8X9X9X8X7XiXuXuXrX-XB.:.^ m n 4 <.1.,.F F ,.<.<.1.,.,.1.Z 4 ",
"4 4 ,.Z ,.,.F Z F F F ,.,.<.<.2 - & ..y.~.oXQ.h.i.t.f.g.g.g.v.M.).'.W.W.W.W.W.W.'.|.,X5XeXeX5X4X6X6X7X8X9X9X9XfXiXuXrXrX;XV.:.^ 7 < 4 F B ,.<.<.<.<.F Z Z 1.,.4 ",
"Z Z 4 Z ,.F 4 4 4 D D ,.F D B 1 0 f O.a.K.Q.H.z.i.i.g.u.t.g.c.b.R.W.W.W.W.W.R.T.R.E.|.<X5XeX5X4XqX2XtXpXdXgXgXdXiX6XrXrXuX;XN.` a - 1 4 B ,.1.1.1.,.4 4 4 F F Z ",
"4 Z 1.1.1.,.Z 4 F D D F F B v i ^ X.e.l.F.G.n.g.f.f.g.i.g.g.h.c.b.R.R.W.W.W.R.T.T.W.].|.,X5XeXeXqXeXtXpXhXhXhXhXiXtXrXuXaX1XN.` & > 4 <.<.,.,.<.<.<.,.Z Z ,.Z 4 ",
"4 F ,.<.<.<.<.,.,.F F ,.Z b e ~ $.u.F.H.l.z.g.g.g.g.g.g.g.g.g.g.k.v.R.W.W.W.W.R.T.T.R.'.|.,X5XeXeX4XeXtXtXtXiXtXtX5XrXaXaX:XN.] a > 4 1.1.F F F Z F 1.,.,.,.4 4 ",
"4 4 4 B ,.1.1.<.<.<.,.,.C r & ..p.U.~.Q.h.f.i.g.g.g.g.g.g.g.u.u.h.k.M.W.'.W.W.W.R.T.Y.Y._.|.<X5XrX2X,X-X`.`.C.-X,X4XyXrXeX-XN.+.^ e B ,.F F D Z 4 4 <.1.<.F Z Z ",
"4 4 4 F ,.,.,.F F D D D 1 ; & ..p.U./.Q.z.t.t.f.g.g.g.g.g.g.t.t.f.c.Y.W.W.W.W.W.W.R.T.T.W._.-X<XwX<XE.9.-.' -.7.`.3XuXyX<X|.R.f.3.V i v 4 B Z D 3 4 ,.1.1.D 4 2 ",
"3 3 4 ,.F 4 B B D 3 D 3 < ; & } p.U.^.Q.z.t.t.f.g.g.g.g.g.g.g.u.g.v.M.W.'.W.W.W.W.W.T.R.W.W.]..XXX_.f.o.* O $ ` 7.-XrXqX|.].W.M.f.@.l e 1 Z ,.,.Z Z <.1.1.4 3 2 ",
"3 4 C Z F 4 4 4 4 4 4 4 1 ; & } e.J.~.Q.z.t.i.g.g.g.g.g.g.g.u.t.g.v.R.W.'.W.W.W.W.W.W.W.T.T.T.Y.b.f.>.*.K X X J ` s.`. X).T.Y.v.t.>.( d r B 1.1.1.<.1.1.<.4 3 4 ",
"3 3 Z Z Z C 4 4 4 B B 4 2 ; & _ e.J.!.Q.z.t.t.g.g.g.g.g.g.g.u.i.h.v.R.W.'.).W.W.W.W.W.W.'.'.Y.d.2.o.-.s.q.q.K + K ` 7.V.T.b.h.3.X.] W d t B <.<.F 4 4 <.<.,.Z 4 ",
"4 4 Z ,.1.<.C C C F F D 3 , 8 } y.F.!.Q.z.d.t.d.g.g.g.g.g.d.i.u.g.v.R.W.).).W.W.W.W.T.).'.{.Y.5.! L =.=X0X=X0.J o @ W 6.b.k.4.W L L Y d r B <.1.4 2 4 ,.1.<.,.Z ",
"Z C C 1.1.1.Z Z <.<.1.<.3 > 8 _ e.F.!.!.n.g.d.d.t.f.g.g.g.g.g.i.g.k.v.R.W.W.).W.W.W.).T.'..XR.2.# X U =X0X=Xq.K .   # } k.h.o.@ . O L h w F 1.1.B 3 4 <.1.Z 4 Z ",
"3 4 Z ,.1.1.1.,.C D <.1.3 > 8 ' e.D.!.^.L.n.h.d.t.f.f.g.g.g.d.d.f.h.h.v.Y.R.).).).W.W.W.[..XR.3.* X J =.A.=X0.I o   @ } k.h.o.O   O = k t F 1.1.1.,.<.1.1.F 4 4 ",
"3 4 Z Z <.1.1.<.C C F 1.3 > & } e.D./.+X~.L.l.h.d.f.g.f.g.g.g.g.g.g.g.h.v.R.W.'.W.W.W.W.'..XR.9.W @ + K I *.*.P J O * @.v.k.;.* + @ L k v ,.1.1.<.1.1.1.<.,.Z 4 ",
"4 Z ,.1.1.1.<.<.1.F F <.C > & ..a.oX$X@XoXQ.G.l.g.g.i.i.i.f.f.f.g.t.t.g.k.v.Y.W.W.).).).'.[.R.h.3.W @ o X o J K P L { 9.Y.V.9.} E E Y k t F 1.,.F F ,.,.,.<.F Z ",
"4 Z 1.,.1.1.<.<.1.1.<.F 3 ; & O.S.#X&X&XoXQ.H.G.n.z.u.i.t.f.f.g.g.g.u.g.f.h.v.Y.W.'.'.).'.'.R.T.j.3.( @ . . o J / o.8.Y.T.W.b.i.3.} W a > B <.<.<.,.,.<.1.<.,.4 ",
"4 F <.D F 1.<.<.1.1.<.D 2 > % ..Z.OX*X%XoX^.~.~.K.n.g.d.d.d.g.d.g.g.g.t.g.t.h.b.T.W.W.W.W.W.W.'.].b.3.W #   O * ..t.R.].W.W.'.R.h.2.( 8 > n <.1.1.1.1.1.1.1.,.Z ",
"Z D F B C F F F <.D C D 2 < w ^ &.Z.OX#X%X$X@X+X^.!.G.n.x.z.z.g.i.i.f.i.t.t.f.g.v.b.M.M.V.R.W.{.XX[.j.3.( Y Y { 9.R.{.[.R.R.'.[.V.r.) a t D 1.1.1.1.1.,.Z <.,.Z ",
"4 Z F D D Z Z F D C C F 3 2 3 i ^ ..p.OX%X*X&X@X/.^.!.Q.Q.F.x.g.i.i.i.i.t.t.t.g.g.h.h.z.b.Y.T.[..X[.R.g.5.3.5.f.b._.].W.v.v.Y.R.c.4.) a > 4 1.<.Z Z <.Z 4 Z Z Z ",
"4 Z <.<.F F F C D F F F C C <.3 w g %.P.OX*X$X^.K.Q.!.~.^.~.Q.n.g.g.g.g.g.z.g.h.z.h.g.g.z.b.W.).).W.W.R.T.Y.b.Y.R.W.R.M.c.z.h.f.r.@.W 0 > 4 <.1.Z Z Z ,.Z 4 4 Z ",
"Z F <.1.1.<.<.<.,.C C C 3 C <.F < 6 ` 0.P.P.I.a.r.r.p.I.OX$X$X^.H.m.H.H.L.H.H.H.G.n.x.z.z.b.Y.R.R.W.).[.'.T.c.j.k.M.).Q.H.n.x.5.o.! k t D <.1.1.1.1.1.1.1.,.Z Z ",
"C Z <.<.1.<.<.1.<.<.F Z F <.1.<.D r x ] %.&.&.O._ _ O.p.OX%X&X@X~.Q.!.~.~.!.~.^.~.L.n.z.g.z.c.m.v.v.M.(.v.d.3.$.3.f.m.(.~.H.a.O.! e v 3 D F <.<.<.<.,.1.1.,.Z Z ",
"C Z 1.<.<.<.<.<.1.1.1.1.1.1.<.<.F M p x Y E T T = = W &.P.%X%XoX!.K.L.U.U.U.U.!.U.J.l.d.i.9.t.t.t.u.d.g.8.#.( W ' 3.z.Q.!.F.4.) d , 3 C C C F F Z Z Z ,.1.,.Z Z ",
"C Z Z <.<.<.<.<.F <.1.1.1.1.<.<.D D b 0 s a s d 9 % f  .w.P.P.l.y.y.y.y.y.y.y.y.y.y.5.2.$.;.$.$.$.$.$.3.#._ Y Y W { 3.a.a.e.} k r 1 C F F D C C C C Z ,.,.<.Z 4 ",
"C Z Z 1.<.<.F Z F ,.F F <.1.<.,.F <.B b u u u u u q q Q ] %.&.O.X.X.........X.......} ' ' ' ) ) ) ) ` ' ) W Y Y E W ] O.O.{ c n 3 3 4 D D D B 4 3 4 <.,.,.,.Z 4 ",
"4 Z 1.1.Z C Z F ,.,.B 4 ,.1.,.,.<.<.F D G A H H A M u u j = g = g = g g g g g g = T g T f L g Y g Y g Y Y T T T E E T Y g d t F <.D B 4 4 4 4 B 4 Z <.,.,.,.Z 4 ",
"C Z <.,.D 3 3 D 1.1.1.<.<.<.F <.1.1.<.<.<.G S A A H p q q 9 a s s s s s s s j s s j j s j g & s j j j j j j j Q Q Q j s 7 t 4 <.1.<.D B 4 4 D F Z ,.,.,.,.<.,.Z ",
"C Z <.<.F F C F 1.1.<.1.1.<.,.1.1.<.1.1.<.D n N H A H p u u u u p p p u u p p p p u p p u u u u p p p u z z z V H z z b b 3 C <.1.1.,.D D F ,.<.<.,.,.,.,.1.,.Z ",
"4 Z 1.1.1.1.1.<.1.,.Z Z ,.1.1.1.1.<.<.<.,.B n M S S A S A A S S A S S p M A A S A A A A S A M A M H M M A S G G S S G D F F D F <.1.<.1.1.1.1.1.1.1.1.,.Z ,.Z 4 ",
"4 4 ,.1.<.F <.1.<.,.,.4 ,.1.1.1.,.,.F F 1.<.F n D D G G S A H H A A H H H p p p p H A S H M H H H M H p A S G G D D D D <.1.1.F F 1.1.1.1.1.1.1.1.<.,.,.,.Z 4 3 ",
"4 Z ,.1.<.Z Z 1.1.,.Z ,.,.<.1.,.F F F ,.<.<.F D C F F F S H H H A M p H A p p H A A M A p y A A M p p p b S F F D F D F 1.1.F F ,.<.1.1.1.<.,.<.1.,.,.<.1.Z 4 3 ",
"Z Z 1.1.<.Z Z <.1.,.4 4 4 4 4 4 F <.<.1.<.D D <.1.F <.<.C b p A n A S D S A S A A A S A S b y A G b y y b b D D F <.1.1.<.C C <.1.,.1.1.1.Z Z <.<.<.1.1.1.1.,.Z ",
"4 Z <.<.,.Z ,.,.,.,.Z C ,.<.,.,.F <.<.F F F <.<.F F <.1.F G A C F D G n n D F F D G D D A D C G D D b b D F F F F <.F F F <.<.<.F F <.1.1.F F <.1.1.<.Z Z 1.,.,.",
"4 C ,.,.,.,.1.<.Z 1.<.Z <.1.1.,.<.1.F D F 1.1.F F D F 1.<.F Z Z <.Z Z 4 C <.<.F D D D Z Z D F F D F D C F <.1.<.<.1.F D F 1.1.F D D ,.1.1.<.<.1.1.<.,.4 4 1.,.4 ",
"4 C Z Z ,.1.1.1.1.1.1.1.Z Z 1.<.<.1.1.F <.<.F D D F F <.1.1.1.1.,.,.,.Z F 1.F F F F Z Z ,.1.1.1.1.1.1.1.D D 1.<.F 1.1.<.F <.F C B ,.,.<.1.1.<.1.<.,.,.,.<.1.4 3 ",
"4 4 C Z ,.<.<.<.1.1.1.,.Z Z 1.1.1.1.<.<.<.<.F C F <.F F Z Z Z 1.1.1.,.<.1.1.F D <.F Z Z Z 1.<.1.1.1.1.F F F <.1.1.1.<.<.1.<.F C F <.F Z F F F 1.<.<.,.,.1.1.4 2 ",
"4 4 4 4 Z Z Z <.1.1.,.Z Z <.1.<.<.F F <.1.1.F F F 1.F D Z Z F <.1.<.<.<.1.1.F D <.F C C C Z F F 1.1.,.Z Z <.<.1.<.<.F <.1.1.F F ,.1.<.Z Z Z ,.<.<.1.<.<.1.1.4 3 ",
"Z C 4 4 Z 4 ,.<.<.1.,.,.,.,.<.,.Z Z F F 1.1.1.<.<.1.1.<.<.1.1.F C C <.1.1.F 1.1.1.F C C C C Z <.<.1.<.Z F F <.F D D F F 1.1.<.<.,.1.1.1.,.<.<.F Z F 1.1.1.,.,.4 ",
"3 3 4 4 4 4 Z 4 4 4 Z Z Z Z 4 4 C C Z D Z Z Z F Z Z Z F Z F F D 3 3 Z Z C C D F F C 3 D C C C C Z C Z C Z Z C C D C C Z F D F F Z Z ,.Z Z F ,.Z 3 3 Z Z 4 4 4 3 ",
"1 2 4 4 Z Z 4 4 3 3 3 4 4 4 4 4 Z C Z Z 2 C Z Z Z Z C C C C C Z 3 3 C 2 1 2 3 C C 3 3 C C C C C 3 2 3 C Z C 3 C Z C Z C 3 3 C Z Z 4 4 4 4 4 C Z 3 2 4 3 1 2 2 1 "
};
