/* XPM */
static char *Group_6_9__resized[] = {
/* columns rows colors chars-per-pixel */
"80 80 222 2 ",
"   c #06031B",
".  c #213A1D",
"X  c #090524",
"o  c #0B0624",
"O  c #150B2A",
"+  c #0E1125",
"@  c #13152C",
"#  c #171536",
"$  c #231C39",
"%  c #1A2736",
"&  c #172832",
"*  c #243C29",
"=  c #23393A",
"-  c #28481D",
";  c #2F5316",
":  c #2E531D",
">  c #30551D",
",  c #325B1D",
"<  c #37621C",
"1  c #39661C",
"2  c #3C6D1D",
"3  c #3F711E",
"4  c #2A4B25",
"5  c #264528",
"6  c #2B442D",
"7  c #2A4B2C",
"8  c #314C27",
"9  c #314C29",
"0  c #2E5321",
"q  c #2E522C",
"w  c #325623",
"e  c #335C23",
"r  c #395E27",
"t  c #35542C",
"y  c #38572C",
"u  c #345A2B",
"i  c #395C2C",
"p  c #264633",
"a  c #2B4432",
"s  c #2C4A34",
"d  c #26423E",
"f  c #2A453C",
"g  c #2B4B3B",
"h  c #314D34",
"j  c #2E5433",
"k  c #2F583A",
"l  c #355434",
"z  c #345637",
"x  c #3A5B32",
"c  c #366222",
"v  c #3A6424",
"b  c #3D6C23",
"n  c #3D642C",
"m  c #3F692A",
"M  c #3F7220",
"N  c #3F6431",
"B  c #41751F",
"V  c #43781F",
"C  c #40672E",
"Z  c #416B2B",
"A  c #417620",
"S  c #447527",
"D  c #457C21",
"F  c #406631",
"G  c #416930",
"H  c #1E1E42",
"J  c #26264B",
"K  c #233543",
"L  c #263A46",
"P  c #323257",
"I  c #413558",
"U  c #264543",
"Y  c #294B44",
"T  c #294847",
"R  c #2D5445",
"E  c #2D534C",
"W  c #325844",
"Q  c #325B4D",
"!  c #324954",
"~  c #2C5552",
"^  c #2F5A55",
"/  c #315B54",
"(  c #325E5B",
")  c #356353",
"_  c #376857",
"`  c #33635D",
"'  c #386759",
"]  c #336663",
"[  c #346A63",
"{  c #3A6B64",
"}  c #356969",
"|  c #3B7365",
" . c #3E7964",
".. c #3B736B",
"X. c #3E7B6C",
"o. c #356F73",
"O. c #3B7776",
"+. c #4E5477",
"@. c #615773",
"#. c #45776C",
"$. c #4C716D",
"%. c #467E70",
"&. c #478022",
"*. c #498423",
"=. c #4C8924",
"-. c #3F8577",
";. c #41816F",
":. c #438573",
">. c #448B76",
",. c #488878",
"<. c #498E7C",
"1. c #538C7B",
"2. c #4B937D",
"3. c #4C997E",
"4. c #59937D",
"5. c #3D7E85",
"6. c #535D80",
"7. c #74748D",
"8. c #3F878D",
"9. c #418784",
"0. c #499484",
"q. c #4E9D85",
"w. c #45958C",
"e. c #4E9E89",
"r. c #599782",
"t. c #509E84",
"y. c #428D98",
"u. c #489B92",
"i. c #4FA089",
"p. c #50A087",
"a. c #51A38A",
"s. c #54AA8E",
"d. c #5AAA8C",
"f. c #58B18F",
"g. c #4BA297",
"h. c #4DA49B",
"j. c #55AC92",
"k. c #53AC99",
"l. c #56B192",
"z. c #59B493",
"x. c #5CBA95",
"c. c #56B39C",
"v. c #58B59D",
"b. c #5DBD99",
"n. c #64A48C",
"m. c #68AC93",
"M. c #69B597",
"N. c #75BD9E",
"B. c #4697A4",
"V. c #7E8DA9",
"C. c #4DAAA4",
"Z. c #51ACA9",
"A. c #56B6A3",
"S. c #5ABBA3",
"D. c #56BAAA",
"F. c #59BDAA",
"G. c #4EADB9",
"H. c #56BBB4",
"J. c #77BEA1",
"K. c #5EC39B",
"L. c #61C59D",
"P. c #69C59E",
"I. c #63C99F",
"U. c #5BC2AD",
"Y. c #5BC4B3",
"T. c #5DC9B6",
"R. c #5BC6B8",
"E. c #5DCBBB",
"W. c #5FD0BF",
"Q. c #65CCA1",
"!. c #6BCDA3",
"~. c #7CC5A3",
"^. c #78CBA4",
"/. c #66D1A4",
"(. c #68D5A6",
"). c #69D6A8",
"_. c #6BDBAA",
"`. c #74D6A9",
"'. c #77D9AC",
"]. c #60CEBC",
"[. c #6EE1AF",
"{. c #6FE5B0",
"}. c #77E3B2",
"|. c #54BAC7",
" X c #5CCAC6",
".X c #58C4D6",
"XX c #5ED2D9",
"oX c #61D6C9",
"OX c #63DBD8",
"+X c #66E5DE",
"@X c #62DDEA",
"#X c #66E3E7",
"$X c #69EAEB",
"%X c #69ECF3",
"&X c #969AB0",
"*X c #9EA4BA",
"=X c #81CEAA",
"-X c #81D6AD",
";X c #8BDAB3",
":X c #85E3B4",
">X c #8AE8B8",
",X c #94E3BC",
"<X c #97E8BB",
"1X c #94EDBD",
"2X c #83F1BC",
"3X c #96F1BF",
"4X c #9BF1BF",
"5X c #ABF3BE",
"6X c #C5FBBE",
"7X c #D5FFBF",
"8X c #B6C0D2",
"9X c #9CF4C2",
"0X c #99F7C5",
"qX c #A3E9C0",
"wX c #A6F7C4",
"eX c #A3FCCB",
"rX c #ABFDCD",
"tX c #B6FCC8",
"yX c #ACFDD4",
"uX c #BCFAD2",
"iX c #C7FEC6",
"pX c #D5FEC5",
/* pixels */
"; < B 2 3 B 3 B B 2 2 3 < 4 4 4 > B B B 2 2 B A V B V B B 2 2 B B B V B 2 V B 2 < 2 B 2 2 B 3 B B 2 2 B 3 V V 3 3 V V 3 3 2 3 V B B B B 2 1 B 2 B B B B B B 1 ; ",
"1 2 B B B D 3 3 B 2 B A c 4 p 5 4 2 B B 2 2 B V B B 2 B 2 B V V V B B 2 B V V V V B 3 B B B 3 3 3 3 3 V V V B 3 3 V 3 3 3 3 B V B B B B B A D D V V B B B D B B ",
"V V B V D D B B B B V &.c 7 d p w A B B B V D A A A 2 B B *.=.=.*.*.B 2 V V =.=.=.D A D &.V B 3 3 V V &.D D D M 3 V 3 3 3 A D V B B B B B *.*.=.=.*.B 1 B D V B ",
"B V *.=.*.D A A B B V D M c u e v A B B D *.*.*.D D *.D *.D *.*.*.*.*.V V D *.*.*.&.*.=.*.&.V B V 3 B &.*.=.=.*.=.&.3 3 &.*.*.*.*.D D *.D D *.*.*.*.V V B *.V B ",
"2 B D *.*.*.*.D &.D D &.D M M b A *.*.D *.=.=.=.=.*.=.=.*.D D D D D *.*.D D *.*.&.D *.&.*.=.*.*.*.V D &.=.=.=.*.*.*.&.&.=.=.=.=.=.*.=.=.*.D D D V D *.*.D D A B ",
"B B B V *.=.=.*.*.*.&.*.=.*.D D D *.=.=.=.=.=.=.=.=.=.*.*.D A V 2 B *.=.*.D *.*.*.D B 3 D =.=.*.=.*.*.*.=.=.&.D &.=.=.=.=.=.=.=.=.=.=.=.*.D V A B B *.=.*.D V V ",
"2 2 B V D D D D D M M A M D *.*.=.*.D D D D D *.*.=.=.=.*.A A D B 2 *.*.*.D B V D D A D D D D D V A A A M D *.*.*.*.&.V D D &.*.*.=.=.*.*.D V A B B D =.=.D B 1 ",
"2 B B V D A A B 3 3 3 M 3 M D *.=.D D A D A B A D =.=.=.=.*.D *.D A *.=.*.B B B D A A &.D A M A 3 3 3 3 3 3 D *.*.&.&.A V A V 3 D =.=.=.*.*.*.*.B V D =.*.A 2 < ",
"3 3 3 &.&.3 3 3 3 M 3 3 3 3 3 3 *.D *.=.=.D A A V *.=.=.=.=.=.=.*.*.*.=.*.B A D D D A D D B 2 3 3 3 3 3 3 3 b A *.D *.=.=.&.A 3 D *.=.=.=.=.=.=.=.*.=.=.*.3 2 2 ",
"2 3 3 &.D M 3 3 3 3 3 3 M &.M *.=.D =.=.=.*.D *.*.=.=.*.*.*.*.*.D B A *.*.*.*.*.D A B D D A B 2 3 3 M 3 V A A *.*.*.=.=.=.*.D &.*.=.=.*.*.*.*.*.A 3 V &.*.*.V B ",
"3 3 3 *.*.&.M 3 M D D M &.*.*.=.=.*.=.=.=.=.*.=.=.=.=.*.D D *.*.A 1 2 D *.*.=.=.*.A B &.*.*.B B A D D A D *.*.=.=.*.*.=.=.*.*.=.=.=.=.*.D D *.*.3 2 2 D =.*.D V ",
"3 3 3 =.=.=.D D *.=.=.=.&.*.=.=.=.D =.=.D D =.D *.=.=.*.V *.=.=.A 2 B *.=.A D *.=.&.B *.=.*.D D &.=.=.=.*.&.*.=.=.&.=.=.D &.*.&.*.=.=.*.B D =.=.A 2 3 *.=.B B B ",
"3 3 V &.=.=.=.&.3 M *.=.&.&.*.*.D =.=.=.*.=.=.*.*.=.=.=.*.=.=.=.*.D *.=.=.D D *.&.A B D =.=.=.&.3 D *.=.*.D =.*.D =.=.*.*.=.=.&.*.=.=.=.*.*.=.=.*.&.*.=.=.D B 3 ",
"2 3 V V *.=.=.*.3 M D =.&.D *.&.D =.D D =.=.=.*.*.*.=.=.=.=.=.*.*.=.=.=.*.&.D *.D D D D *.=.=.*.3 3 &.=.D D *.*.D *.*.D =.=.=.&.&.=.=.=.=.=.=.=.=.*.=.=.*.&.B 3 ",
"3 V *.=.=.=.*.*.=.*.D *.&.&.*.*.*.D B B V =.=.A V D *.=.*.=.=.&.D D D &.D *.*.=.*.*.D *.=.=.*.*.=.D D =.*.D *.=.=.&.A 2 D =.=.V B D *.=.*.=.=.&.D D &.D D *.D V ",
"3 V =.&.*.=.=.*.=.=.*.&.*.*.=.=.*.A B B B A A A B A D D V D *.*.*.*.*.*.=.=.=.=.*.*.=.*.*.=.=.*.=.=.*.&.*.*.*.=.=.A 3 2 B D D 3 3 V D D A &.*.*.*.&.*.*.=.=.&.V ",
"3 &.=.3 &.=.*.*.=.=.&.D D *.=.=.*.A A M V A A A A D &.V A &.&.=.=.=.=.=.=.=.=.=.&.*.*.A D *.*.*.=.=.&.D D *.=.=.*.A 3 M M 3 D M 3 &.&.D 3 &.*.=.=.=.=.*.=.=.&.V ",
"3 V V 3 3 &.V &.*.A 3 M 3 B *.*.=.=.*.D &.&.=.=.*.*.*.=.=.=.=.=.=.=.=.D B &.=.=.*.*.D 3 B D D *.&.A 3 M 3 D *.=.=.=.&.&.*.*.=.=.=.*.*.=.=.=.=.=.=.=.=.&.V *.D V ",
"3 V &.3 V V V V D 3 V D 3 3 &.=.=.=.*.&.D &.*.=.=.*.=.=.&.&.*.=.D V &.D 3 V *.=.*.*.D A B A A D D V M D 3 3 &.*.=.*.*.*.D &.*.=.=.=.=.*.&.*.*.*.&.&.&.3 V V V V ",
"3 &.=.&.D D V V A A D &.M 3 &.=.=.*.=.*.D A &.=.=.=.=.*.2 3 A A 2 1 3 A A 3 V *.*.*.=.&.D D D A A A D &.3 3 &.=.=.*.=.*.D D *.*.=.=.=.*.3 &.*.*.3 3 &.&.V 3 3 V ",
"V V &.=.=.=.*.&.&.V 3 3 2 A =.*.&.*.*.=.=.=.=.&.&.*.*.A 1 > 4 > 0 0 0 1 B D *.=.*.*.*.*.=.=.*.*.&.A 3 3 3 3 *.*.&.&.*.=.=.=.=.&.&.*.*.=.=.=.=.=.=.=.=.=.=.V V V ",
"B V *.*.=.*.*.=.=.&.D D D &.=.=.*.V &.*.*.&.&.&.*.*.M c q s g s s g g u b A =.=.*.*.*.*.*.*.*.*.=.&.D D D *.=.=.*.V &.*.*.&.&.&.*.&.&.&.&.*.*.*.=.*.&.=.=.*.V V ",
"3 V =.*.&.&.*.*.=.=.=.=.=.=.=.=.*.3 D &.V 3 3 =.=.M c u R / ` ( ( ( ^ k u b D D M A A M b M A D *.=.=.=.=.=.=.=.*.3 V &.A 3 3 =.=.&.&.D 3 3 D D V V 3 *.=.&.V V ",
"V V D &.=.=.*.D &.*.=.=.=.=.=.&.V D A V 3 V &.*.3 , j W  .<.0.2.<.,.X.) s 4 : : : : - - - - : 1 A *.=.=.=.=.=.&.V &.D V 3 D *.=.*.3 3 3 &.D D 3 3 3 &.*.*.*.V 3 ",
"B V &.*.*.*.D V &.&.D V &.=.*.D &.*.D 3 D *.*.*.< 5 R  .q.b.L.b.c.s.e.X./ g p p p s p s f g 9 t 3 3 D 3 &.=.*.D D *.&.3 &.*.*.=.*.3 3 3 &.3 3 3 3 3 &.&.&.*.&.3 ",
"3 V *.=.D 3 3 &.&.&.A 3 &.=.*.&.*.=.=.*.=.=.*.M w * ` 2.x._.[./.Q.K.z.q.%.` ^ ^ ` ` [ { #.#.Q x c 2 2 < 3 D *.&.*.=.*.*.=.=.*.=.=.3 3 3 3 3 3 3 3 3 *.*.&.&.V 3 ",
"B V *.*.V 2 2 V =.=.=.*.*.*.D *.=.=.=.*.=.=.*.D w * ^ <.b._._.L.b.b.b.l.p.2.:.-.-.2.r.n.m.m.4._ j - . . : 2 D =.=.=.*.=.=.=.*.=.=.*.3 3 3 3 3 D V &.V *.*.*.&.3 ",
"B V *.*.&.V 3 V =.=.=.*.=.*.&.=.=.=.*.=.=.*.M M w 5 ) <.x./.Q.z.l.x.Q.K.K.x.l.f.x.P.^.;X,X,X=X4._ p p d j c M *.=.=.=.*.*.&.&.*.=.=.*.3 3 &.*.=.*.*.*.&.*.*.*.3 ",
"3 V *.=.=.=.*.=.*.*.D A &.=.=.=.=.*.*.*.*.3 2 < q g | 2.f.K.b.s.f.x.K./.(.(.(._.{.>X0XeXyXyXqX~.4.| { #.' x v A =.*.*.*.&.3 D &.=.=.*.=.=.=.=.=.=.=.=.*.&.&.3 3 ",
"2 B *.=.*.V *.=.*.&.D V &.=.=.*.&.D M D =.V < 7 g ) :.p.s.z.x.z.x.K.Q././.(._.}.>X3X0XeXrXeX0X-XP.m.m.M.1.' 7 , 2 &.3 D *.=.*.D &.=.=.=.=.=.*.=.*.*.&.*.*.3 3 2 ",
"3 V *.=.*.V &.*.*.&.A V &.=.*.&.V &.D D &.b q R ` -.p.i.a.s.x.K.K.I.Q.K.K.I.`.:X1X9X9X0X9X9X9X,X>X;X;XqXJ.1.) 7 , 3 D &.=.=.&.D &.*.=.=.=.&.*.*.*.*.V *.=.&.3 3 ",
"B V =.=.*.V V *.=.D M A 3 V 3 D D *.*.&.c q R X.0.a.f.s.p.s.z.K./././.K.K.I.`.>X9XeX9X,X9X9X9XwXyXuXuXuX<X^.r.) 7 e 3 =.&.3 3 *.*.&.=.=.=.V V *.*.=.=.=.=.*.&.3 ",
"3 V *.*.&.V &.&.&.&.V 3 D *.D D &.=.V , 7 R | q.l.j.s.a.e.a.z.L././.I.K.K.K.'.>XwXwX9X3X1X1X4XtXtXiXpXiXtX<X~.1.Q 6 > B V D *.*.*.D *.=.=.&.&.*.*.=.*.D D =.&.D ",
"3 B &.&.&.&.=.*.V =.=.3 &.*.=.*.&.A < 7 R  .p.b.L.z.a.p.q.s.x.K.I.I.I.K.K.Q.`.:X3X4X9X4X3X1X4XwX6X7XpXpXiXuX<XJ.,.Q 9 > B D =.D M V &.*.*.*.*.*.=.*.&.3 3 =.&.3 ",
"3 B V D *.=.=.=.=.=.=.=.V D =.D 2 c x Q >.s.Q._.Q.z.i.0.e.s.z.L././.I.K.I.I./.'.:X1X3X9X0X1X3X5X5X7XpXpXpXpXiX4X=X1.) y e B B A M *.&.*.=.*.*.=.*.&.&.&.=.=.3 2 ",
"3 3 V B D *.*.*.=.=.=.&.D D *.M e j ) :.l./._.(.L.l.a.0.q.s.x.L./.Q.I.I.L.I.I.!.`.:X1X4X9X9X3X4X5X5X6X7XpXpXpXiX<X=X4.' l w , B D *.V D &.D &.*.=.*.&.&.=.=.3 1 ",
"3 3 3 3 3 &.&.&.=.=.&.V D *.*.1 7 g [ 3.L././.K.x.s.a.q.q.s.z.K.I.Q.I.I.I.I.I.L.I.'.:X4X9X9X4X3X9XwXtXiX7X7XiXiXtX<XN.%.Y 5 , 3 *.*.&.A B V D *.=.*.*.*.*.=.3 2 ",
"V B 3 3 3 3 D *.=.=.*.&.D D &.2 : 7 W  .3.z.M.K.z.j.a.q.i.a.j.x.K.L.I.I.I.I.K.K.I.I.'.:X1X4X0X0X0XeXtXuXiXiX6XiXuXyX=Xr.T * , B *.*.=.*.&.*.=.D 3 3 *.=.=.&.&.3 ",
"V V V D D &.D &.&.&.D &.&.&.D A M v c W ' <.a.l.l.s.a.a.p.a.a.j.f.K.L.Q.Q.I.K.K.K.I.I.'.:X>X9XeX0XrXyXtXtXtX5XrXrXeX=Xr.T * , V =.*.=.*.&.*.=.*.V 3 =.&.D D D D ",
"2 V &.*.=.=.&.&.D A D *.*.*.&.*.*.A c j ^ ..<.a.j.a.a.a.a.a.i.i.s.x.K.Q.Q.Q.I.I.I.K.I.I.'.>X3X3X1X;X;X:X<X<X4XeXrX9X^.r.^ 7 e D *.&.&.&.&.*.*.=.&.3 =.&.3 3 3 3 ",
"< 3 *.&.*.*.*.*.*.D D =.*.=.=.&.M v u W ..-.0.i.a.s.a.a.a.p.q.q.a.f.L.I./.I.I.I.I.K.K.K.{.2X:X^.n.%.$.1.m.=X0XyXyX9X:XN.>._ c c 2 A =.*.*.D D &.*.*.=.D D =.V 2 ",
"3 3 D V D &.D V D A D *.&.&.&.1 e j _ -.g.h.j.a.p.p.a.a.a.a.e.q.s.x.I.I.I.I.I.I.I.K.K.I.{.{./.4.' = & K $.m.:XyXyXeX>X'.z.>._ j : < A D A D &.*.*.*.D V D *.*.B ",
"V V B V &.D 3 3 M V D D D V V , 5 Y O.h.T.T.A.a.q.p.a.a.a.a.q.p.s.x.L.I./.I.I.I.I.I./.I.Q.I.a.X.! $ O o K $.~.qXeX3X>X`.b.0...Y 5 : < M A D =.=.=.*.B 2 B D D V ",
"3 V *.=.*.&.V 3 D 3 A &.*.=.*.< 4 ~ O.Z.].E.F.a.t.p.a.a.a.i.q.a.s.x.I././.I.I.I.I././.K.f.-.#.7.@.@.I $ # L $.m.=X-X`.M.<...` Y p c A *.*.*.*.*.*.*.*.B B *.V 3 ",
"3 V &.*.*.=.*.&.D D D &.=.=.*.< 7 E %.Z.E.T.S.a.q.p.a.a.a.e.q.i.s.x.L.I./.I.I.I.I._.(.K.-.R ! @.*X*X7.I # @ K { d.P.M.,.~ U T U j < &.=.*.D D D V D *.*.D &.A B ",
"3 3 3 M &.=.=.=.*.*.&.*.=.*.D , 4 T o.h.Y.Y.v.a.t.p.p.a.a.a.a.a.s.z.L.I.I.I.I.I.I._._.x.[ & $ @.*X8X*X@.H X X L ;.z.t.( @ O % L j b &.=.*.D B D 3 B *.=.*.D V B ",
"3 3 3 D D &.D D D A A A D D *.< 4 Y ..u.U.U.l.a.t.t.a.a.a.a.a.q.a.s.z.x.I./.Q.I.I._.[.f._ @ + I 7.&XV.6.J X   & | z.3.~ + X % = j b *.=.*.D B D 2 3 D =.*.D 2 2 ",
"2 2 A &.D 3 M M 3 A 2 A 2 B A < 7 Y O.h.Y.U.v.a.q.q.a.a.a.a.e.a.a.a.s.l.M.K.Q./.I._._.x.X.= @ # I +.+.+.P # + = -.z.t.` @ @ % U j v D =.*.*.D *.V V *.=.*.B 2 1 ",
"2 3 B V V B 3 3 3 M 3 3 3 3 2 > 4 T O.Z.oXoXF.j.e.a.e.p.a.a.a.a.i.q.p.a.z.b.I.I.I.(.).L.3.` K # H H J P J K K ( 4.b.d.%.T K L d q v D =.=.=.=.=.*.*.*.=.*.2 2 2 ",
"2 2 V V D B 3 2 2 3 M 3 A D B , 5 ~ 9.|.#X#XoXA.s.e.t.t.a.a.a.a.a.e.p.a.s.l.b.K.I._.).I.z.q.` K @ X X # J ! { 0.z.L.L.a.%.{ ^ U 7 1 &.=.*.*.*.*.D A V *.*.*.V B ",
"3 3 V &.*.*.B B A D D A D &.&.< 4 R 9.|.@X%XOXF.k.s.t.t.t.a.a.a.a.i.i.i.i.a.z.K.I./.Q.I./.I.q.[ K + X X K $.3.K./.I.Q.I.f.2.| Y 5 v *.*.V D *.*.A 1 2 D =.*.D B ",
"V B B =.=.=.D V *.*.=.=.*.*.*.3 w j } y.|.@X XR.F.A.j.a.a.p.p.a.a.a.a.i.q.i.s.z.M.L.L.L.).{.Q.r.] K % K ` 3.I.[.{./.(._.I.s.X.Y 4 v *.*.B *.=.=.A 2 B *.=.B B B ",
"2 3 V *.*.=.=.*.B A *.=.&.&.=.V B r z [ y.Z.H.T.Y.U.A.j.i.q.q.a.a.a.a.e.p.p.i.s.f.z.f.x.Q._./.z.2.X. .%.0.z.(.[._././.Q.x.t. .U 4 v D =.*.=.=.=.*.&.*.=.=.D B B ",
"2 3 V V *.=.=.*.B M D =.&.D =.D V V e s ] 9.Z.E.oXE.U.A.j.q.e.i.a.a.a.p.p.p.i.a.a.a.i.s.x.L.Q.Q.K.z.f.f.x.I.I././.I.Q.L.s.2.{ Y 4 , D =.=.=.=.*.*.*.=.=.*.&.A B ",
"3 V &.=.=.=.*.*.=.D D *.*.D *.*.*.V ; . U o.Z.OX+XoXT.A.c.j.i.i.p.p.p.p.p.p.p.e.i.q.p.i.s.z.K.Q./.Q.K.z.f.x.K.L.L.x.K.S.c.e...U 5 , D =.*.=.*.*.D D &.&.D *.D V ",
"3 V =.&.=.=.*.*.=.=.*.*.*.*.*.=.D Z - * Y 5.|.#X$XoXT.F.D.A.j.i.t.q.q.t.q.e.p.p.i.p.p.i.a.s.l.K.K.l.3.;.;.3.s.x.z.f.x.U.F.h.O.U * > A D D D *.*.*.*.&.*.=.=.D V ",
"3 D *.A D =.*.*.*.=.*.D D *.*.*.S C 8 * ! 5.|.@X$XOXW.T.R.U.A.j.p.p.p.i.a.a.i.a.p.p.p.p.p.a.s.j.l.0...^ ^ | 0.a.f.s.v.U.Y.g.O.Y 5 , B D D D *.=.=.=.=.=.*.=.&.V ",
"B A D 3 A D D D *.A 3 3 3 A *.*.S F y h R } y.|.XXXXOXOXoXW.Y.U.c.c.k.l.l.k.k.s.p.p.p.p.q.p.q.a.a.0.X.` ~ ^ | :.a.k.F.A.g.9.} z w B D *.=.*.=.=.=.=.=.D V *.&.V ",
"B V D D A A A D D A A D 2 A D D A C F x l E ( y.|.XX$X$XOXoXE.T.U.A.A.A.D.D.c.j.p.q.q.q.p.q.q.p.a.q.<.:.[ / ~ ..u.F.F.u.O.( Q x Z V =.*.D *.*.*.D V &.V B V V V ",
"3 V *.*.D D D D A A D *.A A D D Z C C C x 9 f ( 8.|.@X#X XY.D.U.Y.T.E. XE.E.D.c.j.a.a.s.a.s.a.s.a.s.j.s.<.' ~ } w.Z.k.8.~ f l C S D =.*.D D *.*.V B D &.V 3 3 V ",
"V D *.=.=.=.*.*.D D A A 2 A *.D Z v C G Z r 9 g o.8.|.G.h.w.0.w.C. X@X#X#XoXE.U.S.A.S.A.F.F.S.v.j.l.z.b.a.>.| ..9.u.,.( h h x C A D *.*.=.*.=.=.=.=.=.=.=.&.V V ",
"B V *.*.=.*.*.*.=.D D D D *.*.D Z r C C C r r l E } O.O.} ] ^ ` 8.G.@X%X$XoX].T.T.T.T.T.T.E.U.A.c.s.j.j.s.i.2.:.X.} / W l y i C Z D D *.*.*.*.*.=.*.*.=.=.&.V V ",
"B D *.*.*.D *.=.=.=.=.=.=.=.*.*.Z r i i i r r n z g U U U = = = ] B..X@XXXY.D.D.D.H.D.H.U.H.D.c.i.q.r.q.i.a.a.,.[ Y f h i r r Z Z B D V B B D D V V B *.=.&.V V ",
"B V V *.*.=.*.D D *.=.=.=.=.*.D B b n y i i Z Z i 7 = p 6 6 * * ~ O.B.G.C.w.0.w.w.w.u.w.u.u.w.9.-.X.X.X.:.>.>. .Q g 9 9 i C Z A A 2 B D D B A A B B D V *.*.V 3 ",
"B V &.*.*.*.V D D &.D D *.=.*.D A A b n N N m Z n t 9 9 9 9 9 8 h / } o.o.] ` ] [ ] ] [ { ] ] ` ( ^ / ^ ( ` ` Q W z y i n Z S *.D A 3 A A A A 3 3 3 &.&.&.&.V 3 ",
"3 V *.=.V B V D *.&.M 3 D =.*.*.*.=.D M m m N m n i i u t r r r t a f = d f U = d d d d U = d U U f U U d U U g z N Z Z Z S D *.*.A B 3 3 3 M 3 3 V *.*.&.&.V V ",
"B V *.&.A 2 2 V =.=.=.*.=.*.&.*.=.=.*.*.S m n N N G i i u r v m i t 6 6 a s s h h h h a = 6 * a s h s h h f f l x F Z S A D *.*.*.*.D b 3 3 A D V V V &.&.=.&.V ",
"B V *.*.D D B D =.=.*.=.*.*.&.*.=.=.*.*.D b n N F G n n r n n m C n y t t y i y y y y y y y y y i x x y x x x x N Z Z D D D D *.*.=.D D A D &.*.=.*.*.&.&.*.V V ",
"3 V *.=.=.=.*.=.*.*.D 3 *.=.=.=.=.*.*.*.*.M v m C Z Z Z C C C C Z Z Z m m n n C C n C Z Z Z Z C C C C i m Z Z Z m m b A &.D A D *.=.=.=.=.=.=.=.=.=.=.*.V *.V 3 ",
"3 V &.=.*.D *.=.*.&.&.3 &.=.=.*.*.D A D *.*.A b 2 S A Z C C F F F F n N n i n i i C C Z C n C Z C F n i C S D D S M b 3 *.=.*.A D =.=.=.=.*.=.=.*.*.&.&.*.V 3 1 ",
"2 V &.=.*.V V =.=.&.&.3 &.*.=.*.A D D D *.=.D M A *.D S Z F x F n n n n Z i n n C C v Z C r r C C i i i n A D D A A A D *.=.*.D &.=.=.=.=.&.&.=.*.*.V *.=.V 3 2 ",
"V V =.=.*.V V *.=.&.3 V 3 3 3 3 D *.=.=.*.M M *.*.D *.D S v r m m b Z S Z Z Z Z Z Z Z Z C v r C Z n r r v b A D D &.=.=.*.B B *.=.D =.=.=.V V *.=.=.=.=.=.=.&.V ",
"3 V *.*.&.V &.&.&.&.V B &.*.D &.*.*.D D D *.*.*.*.V *.*.D A Z A D S A b 2 S D D A S A A B Z A A B A Z , A D D D *.*.*.D D *.*.*.D A =.=.=.D D *.=.=.*.D V =.*.V ",
"3 B &.&.&.*.=.*.V =.*.V *.=.*.*.*.=.D A *.*.*.D D A D *.*.D D D *.V A 3 3 &.*.D A A A V B D D D V D V B D *.=.*.*.*.D A *.*.*.D A D &.=.=.*.*.=.=.*.&.3 3 =.*.3 ",
"3 B V V *.=.=.=.=.=.=.=.V D =.*.*.*.*.*.*.D D A A D D *.=.*.*.*.*.&.V &.*.*.&.D D D D D *.*.=.=.=.=.=.*.A A =.*.&.=.*.*.*.D D 3 V &.D *.=.=.*.=.*.&.D &.=.*.V 2 ",
"3 B B V V *.*.=.=.=.=.&.V V *.=.*.=.*.*.*.*.D V D *.D D D D *.*.=.=.&.&.*.=.D B *.D A V D *.*.*.=.=.*.*.D D =.=.*.=.*.*.=.*.D V D *.D V D D D =.=.*.&.&.=.=.3 1 ",
"3 3 3 3 3 &.V *.=.=.*.V V *.=.=.*.*.D *.=.=.D D *.*.D D V D D *.=.*.*.*.=.*.D D *.D A B B D D D =.=.&.V V *.*.*.*.*.&.*.=.=.&.V &.*.&.V V V D *.=.=.*.*.=.*.3 1 ",
"V B 3 V V 3 V *.*.*.*.&.V &.*.&.V D V D =.=.*.*.*.=.=.*.D *.=.D B V *.=.*.*.*.*.*.D 2 B B B D *.*.*.*.V V *.*.D A A A V =.=.*.*.&.=.=.=.&.=.=.D 3 V =.=.=.&.&.3 ",
"2 2 3 3 3 3 3 V V V 3 V V V V 3 B B V V V D V V V V D D V D D D 2 2 V V B B D D D A 2 A B B B B V B V B V V B B V B V V D V D D D V &.V V D D V 3 2 V V 3 3 3 2 ",
"< 1 2 3 V V 3 3 2 1 2 3 3 3 2 3 V B V V 2 2 V V V B 2 B B B V A 2 2 3 2 < 1 2 B B 2 2 B B B B 2 B 1 2 B B B 2 B V B V B 2 2 3 V V 3 3 3 3 3 B V 2 1 3 2 1 1 1 < "
};
