/* XPM */
static char *Group_6_10__resized[] = {
/* columns rows colors chars-per-pixel */
"80 80 227 2 ",
"   c #03001A",
".  c #0C0827",
"X  c #140A2A",
"o  c #13152A",
"O  c #140F30",
"+  c #181736",
"@  c #23163C",
"#  c #18262A",
"$  c #1C362A",
"%  c #1C293B",
"&  c #1E3A35",
"*  c #233825",
"=  c #223D2B",
"-  c #212E34",
";  c #253D37",
":  c #27441D",
">  c #2A4C1D",
",  c #2F5316",
"<  c #2E531C",
"1  c #30561D",
"2  c #335D1D",
"3  c #36621C",
"4  c #39661C",
"5  c #3C6D1D",
"6  c #3F711E",
"7  c #284326",
"8  c #2B4A22",
"9  c #25432A",
"0  c #2A4A2B",
"q  c #314A27",
"w  c #324E2B",
"e  c #2E5221",
"r  c #2D542E",
"t  c #335B22",
"y  c #34532C",
"u  c #365829",
"i  c #35592B",
"p  c #395C2B",
"a  c #2B4434",
"s  c #294636",
"d  c #2A4C3B",
"f  c #314B35",
"g  c #2D5336",
"h  c #355333",
"j  c #345936",
"k  c #3B5D31",
"l  c #33533A",
"z  c #366221",
"x  c #3A6523",
"c  c #3D6C22",
"v  c #35602B",
"b  c #3D642C",
"n  c #3F692B",
"m  c #3F7320",
"M  c #3D6232",
"N  c #41751F",
"B  c #43781F",
"V  c #406F25",
"C  c #40672E",
"Z  c #406A2C",
"A  c #417621",
"S  c #457C21",
"D  c #43702C",
"F  c #406632",
"G  c #426A30",
"H  c #2D1941",
"J  c #273945",
"K  c #2F2C51",
"L  c #353A60",
"P  c #264444",
"I  c #294747",
"U  c #2A4D43",
"Y  c #294C4A",
"T  c #2C5042",
"R  c #2D544D",
"E  c #325747",
"W  c #325B4B",
"Q  c #2C4356",
"!  c #314953",
"~  c #2D5352",
"^  c #2E5A57",
"/  c #335556",
"(  c #335B55",
")  c #345D5B",
"_  c #37644B",
"`  c #366557",
"'  c #34645C",
"]  c #3A655D",
"[  c #3B7257",
"{  c #356A63",
"}  c #376865",
"|  c #366C6B",
" . c #3B7266",
".. c #37746A",
"X. c #3B736C",
"o. c #3E7A6C",
"O. c #386C74",
"+. c #397272",
"@. c #3A7876",
"#. c #46415C",
"$. c #534C6A",
"%. c #4D666B",
"&. c #477A6A",
"*. c #417E6E",
"=. c #467B73",
"-. c #478022",
";. c #498423",
":. c #4C8924",
">. c #3F806E",
",. c #3E8176",
"<. c #448473",
"1. c #498877",
"2. c #468C79",
"3. c #548876",
"4. c #4A947D",
"5. c #4C977E",
"6. c #589076",
"7. c #3C7D83",
"8. c #586081",
"9. c #696B8A",
"0. c #6B7796",
"q. c #827C97",
"w. c #3F8688",
"e. c #438B82",
"r. c #499485",
"t. c #4E9D84",
"y. c #4E9E89",
"u. c #599684",
"i. c #509E84",
"p. c #4A9D94",
"a. c #45919A",
"s. c #4A9D98",
"d. c #4DA386",
"f. c #4FA088",
"g. c #51A187",
"h. c #51A38A",
"j. c #5CA089",
"k. c #55AB8D",
"l. c #59AE8D",
"z. c #57B18F",
"x. c #4DA495",
"c. c #4BA39B",
"v. c #54AC93",
"b. c #54AC96",
"n. c #57B192",
"m. c #5AB594",
"M. c #5BBA96",
"N. c #56B39C",
"B. c #58B69C",
"V. c #5EBE98",
"C. c #68A58D",
"Z. c #6BAC92",
"A. c #7AAC90",
"S. c #6CB596",
"D. c #75BB9B",
"F. c #4899A7",
"G. c #4EA8A2",
"H. c #51AEA3",
"J. c #56B5A2",
"K. c #58B7A0",
"L. c #59BBA5",
"P. c #57BAAB",
"I. c #50AFB3",
"U. c #58BEB1",
"Y. c #52B5B9",
"T. c #5EC39A",
"R. c #61C59D",
"E. c #63C99F",
"W. c #7AC29E",
"Q. c #5CC3AC",
"!. c #5BC4B3",
"~. c #5EC9B6",
"^. c #57C0BC",
"/. c #5BC6B9",
"(. c #5CCABC",
"). c #65CCA1",
"_. c #68CBA4",
"`. c #79C8A5",
"'. c #66D2A4",
"]. c #6AD3A6",
"[. c #6BD7A8",
"{. c #6BDCAB",
"}. c #74D5AA",
"|. c #79D9AC",
" X c #60CFBB",
".X c #6EE1AE",
"XX c #7BE6B4",
"oX c #52B5C4",
"OX c #5CCAC6",
"+X c #5CCDD0",
"@X c #62D6C8",
"#X c #63DDD7",
"$X c #68E7DF",
"%X c #62DBE5",
"&X c #69E9E9",
"*X c #6AEDF3",
"=X c #85899B",
"-X c #94AFA5",
";X c #9AA4BB",
":X c #84D3AD",
">X c #88D8B1",
",X c #8DD8B0",
"<X c #87E7B7",
"1X c #89E5B6",
"2X c #96E4BA",
"3X c #94EDBE",
"4X c #84F3BE",
"5X c #91F0BF",
"6X c #99F0BF",
"7X c #B6EDBA",
"8X c #AAF3BE",
"9X c #D2FEBE",
"0X c #ADB4C7",
"qX c #9AE8C2",
"wX c #9BF3C2",
"eX c #98F7C5",
"rX c #A2EBC4",
"tX c #A3F5C4",
"yX c #A5F9C9",
"uX c #B9FAC5",
"iX c #AAFED2",
"pX c #B3FCD8",
"aX c #BAFFE5",
"sX c #C9FEC9",
"dX c #D8FFC7",
"fX c #CAFFD0",
"gX c #E4FDD0",
/* pixels */
", 3 N 5 5 N N N N 5 5 N B 6 B B 6 B B 6 6 6 6 -.B 6 B B 5 5 5 6 6 N B 6 6 B B 5 3 5 N 5 5 N 6 N N 5 5 N 6 B B 6 6 B B 6 6 5 6 B B N B N V 5 N N N N N N N B 4 2 ",
"4 5 N N N S 6 5 N 6 6 B A B B 6 6 6 6 6 6 6 B B 6 6 6 6 6 B B B B B 6 6 6 B -.B B N 6 N N N 6 6 6 6 6 B B B B 6 6 B 6 6 6 6 6 B N N N 5 N N B B N N N N N S N 5 ",
"B B N B S S 6 N 6 N B -.S B B N 6 B 6 6 6 S S 6 6 6 6 6 B -.:.:.:.-.N 6 N B :.:.:.-.A S -.B N 6 6 B B -.-.A A m 6 B 6 6 6 S S B N V N N N ;.:.:.:.;.N 5 N S B B ",
"N B ;.:.:.S N A B N N -.;.:.:.:.:.-.6 6 B ;.:.-.-.-.-.-.-.-.-.-.:.;.-.B B -.-.-.-.-.;.:.;.-.B N B 6 B -.;.:.:.:.:.-.6 6 S -.:.;.;.S S S B B ;.;.;.;.B N B S B N ",
"5 B S ;.;.:.;.S -.S S -.:.:.;.;.;.;.-.-.:.:.:.:.:.:.:.:.;.S S -.S S ;.;.B -.-.;.;.-.-.-.;.:.;.;.-.B S -.:.:.:.;.;.;.-.-.:.:.:.:.:.;.:.:.:.S S S B B :.-.B -.B N ",
"N N N N S :.:.:.;.;.-.;.:.:.-.S -.:.:.:.:.:.:.:.:.:.:.;.-.S S A 6 6 ;.:.:.B -.:.;.S N 6 S :.:.;.:.;.-.-.:.:.S S -.:.:.:.:.:.:.:.:.:.:.:.S S B A N N ;.:.:.B N B ",
"5 N N B S S S S S A A A A S ;.;.;.;.-.B S -.-.-.:.:.:.:.;.A B A 5 6 -.:.:.S N B S A A S S S S S B A A S A S -.:.;.;.-.B B -.-.-.:.:.:.:.:.S A S N N B :.:.S N 4 ",
"5 5 N B S A A A m 6 6 6 6 6 S ;.;.-.-.m S 6 S 6 S :.:.:.:.-.-.-.B B ;.:.;.N 6 N S A A -.S A N A 6 6 6 6 6 6 -.-.:.-.S S A A A B S :.:.:.:.S S ;.N B ;.:.:.N 4 3 ",
"5 6 B S S 6 6 6 6 6 6 6 6 6 6 m -.-.;.:.;.S m 6 B :.:.:.:.:.:.:.;.;.;.:.;.5 A S S S A S S 5 6 m 6 6 6 m 6 6 c S -.S ;.:.:.-.A 6 A :.:.:.:.:.:.:.;.;.:.:.;.5 5 5 ",
"5 6 6 S S A 6 6 6 m m 6 A S S -.;.-.:.:.:.;.-.-.:.:.:.:.;.;.;.;.S N A ;.;.;.;.;.S A B S S S 6 5 6 m 6 6 N S A S ;.;.:.:.:.;.S -.:.:.:.:.;.S ;.;.A N B ;.:.;.B N ",
"6 6 B -.-.-.A 6 N S S A -.-.-.:.:.-.:.:.;.;.;.-.;.S S S B B :.;.6 5 5 -.:.;.;.:.;.A N -.:.S N 6 A S S A S -.;.:.:.;.;.:.:.-.;.:.:.:.:.:.B S :.;.N 5 5 S :.;.B B ",
"B 6 A :.:.:.S S -.;.:.:.;.-.:.:.:.-.:.:.S -.-.c 4 4 c 4 4 S :.:.A 5 6 -.:.N S ;.:.-.N ;.:.:.S S -.:.:.:.;.;.:.:.:.-.:.:.S -.;.-.;.:.:.S B S :.:.A 5 5 ;.:.N N N ",
"6 6 6 -.:.:.:.-.6 A ;.:.-.-.:.-.-.-.:.;.:.;.S t 7 9 9 > 2 B :.:.;.S -.:.:.A S ;.-.A B -.:.:.:.-.6 A ;.:.;.S :.;.S :.:.;.:.:.;.-.;.:.:.:.;.;.:.:.;.S ;.:.:.B N N ",
"5 6 B B -.:.:.;.6 m S :.-.S -.-.S ;.-.S ;.-.m r d I P d p A ;.:.:.;.:.:.;.;.;.;.S S B S ;.:.:.;.6 6 -.:.S S :.S S ;.-.S :.:.:.-.;.;.:.:.:.:.:.:.;.:.:.:.;.;.A N ",
"N B ;.:.:.:.;.-.:.-.S :.-.-.-.:.;.-.m 5 m x i _ X.3.6.&._ b m A S S -.S -.;.;.:.;.;.;.;.:.:.;.;.:.S S :.;.S ;.:.:.-.A 6 S :.:.B N S ;.;.;.:.:.-.S S -.S S ;.S B ",
"6 B :.-.:.:.;.:.:.:.;.-.;.;.:.:.:.S 5 3 e r _ o.i._.`.S.6._ r c A ;.;.:.:.:.:.:.;.;.:.-.;.:.:.;.:.:.;.-.;.;.;.:.:.A 6 5 N S S N A S S S S S -.:.;.-.;.;.;.:.;.B ",
"6 B ;.A -.:.-.-.:.:.-.A -.;.:.:.:.A 6 2 7 d  .4.R.XXwX>XZ.} d e c S -.-.S -.-.S B B B 6 m -.-.;.-.:.-.S -.-.:.:.;.S m m 6 6 S m A S S A S S -.:.:.:.:.:.;.:.;.B ",
"B B B 6 6 -.-.-.-.S 6 m 6 N -.;.:.:.6 t $ R ,.k.'.4XeX<XS.&.P $ < 4 4 2 1 2 z 3 3 2 < > < 5 A -.;.A 6 6 6 m -.:.:.;.-.-.;.;.:.:.:.;.:.:.:.:.:.:.:.:.:.B N ;.S B ",
"6 B -.B 6 B B S S 6 B S 6 6 -.:.:.:.A z = R @.f.).XXXX|.C. .J # $ 0 0 0 9 0 9 0 9 9 = $ 9 < 5 A S A A S m 6 -.;.:.:.;.-.6 -.;.:.:.:.:.:.-.-.:.;.-.S -.S N A B B ",
"6 B :.-.S S S A A A S -.m 6 -.:.:.;.-.5 8 T ' <.h.T.].T.t.' P ; P P P U Y P U U Y U Y ~ T 0 z c 5 6 6 -.6 m -.:.:.;.:.;.-.-.-.:.:.:.:.-.m S -.:.B 6 S -.S 6 N B ",
"B B -.;.:.;.;.-.-.B 6 6 6 m ;.;.-.-.;.-.m v g W  .t.n.v.5.o.' '  .o.<.o.o.o.o.*.<.3.u.u.3._ j < < > < 3 4 m :.;.-.-.-.:.:.:.:.-.-.;.:.:.:.:.:.:.:.:.:.:.;.-.S B ",
"N S ;.:.:.:.;.:.:.;.S S S -.:.:.;.S -.:.S x e s W >.t.d.f.4.1.4.h.l.l.l.k.g.d.z.S.`.:X,XD.6._ 0 9 $ 9 < 6 -.:.:.-.B -.:.;.-.-.-.-.-.-.-.;.-.;.-.;.;.-.:.:.;.B B ",
"6 B :.;.-.;.;.;.:.:.:.:.:.:.;.:.;.6 6 6 m 4 e 0 R X.4.f.v.h.k.m.T.Q.).).E.R.E.}.1X6XyXiX2XD.1.( P Y R i m -.-.:.;.B S -.S 6 6 :.:.-.S A 6 B S S B B B ;.:.-.B B ",
"B B S -.:.:.-.S B ;.:.:.:.:.:.-.6 3 1 > 1 t r W  .e.r.f.n.m.T.E.'.[.'.].[.{.XX4X5XyXiXiXtX>XZ.u.4.u.1._ r z m -.S A A 6 6 S ;.:.:.6 6 S S B S m 6 6 S -.;.-.B 6 ",
"N B ;.;.:.-.S S S -.S B -.:.;.S 5 t 0 9 9 d _ ,.p.b.x.d.l.M.E.'.'.'.'.'.{.XX<X6XeXyXyXyXwX3X>X:X:X:XD.3.W r 3 6 S ;.S A S -.:.:.-.6 6 m S 6 6 m 6 6 -.-.-.-.B 6 ",
"6 B :.;.B 6 B S -.-.B 6 -.:.-.m x j ^ ^ P Y ..c.!./.N.k.l.M.E.'.).E.T.E.'.XX6XtXwXwX6X5X6XwXwXtXyXpX2XD.1.W 0 z S ;.;.;.:.:.;.:.:.A m 6 6 6 m 6 6 N ;.;.-.-.B 6 ",
"N B ;.S N 5 5 B :.:.:.-.:.A z t M <.2.>.~ Y { c./. XJ.f.l.R.'.E.).E.T.E.].<X6XyXtXwX3X3X6XtXuXsXfXfXrX2XS.3._ j z N -.:.:.:.;.:.;.-.B 5 6 6 m S B S -.-.;.:.-.B ",
"N B ;.;.-.B N B :.:.:.;.-.m < g ` 5.z.d.' Q { s.!.~.N.v.l.R.E.'.).T.T.T.].<X6XtXwX6X6X5X6XtXsXsXdXdXsXuX2XD.3.W r 2 A :.:.-.S ;.:.:.-.B A -.-.;.;.;.;.-.-.;.B B ",
"N B ;.:.:.:.;.:.;.;.S A -.A < d ' 5.z.k.>.{ +.c.U.!.b.x.z.T.E.'.).T.T.E._.:X1X6X6X6X6X5X6X8X7XsXdX9XdXsXuX2XZ.} & 8 5 ;.-.A N -.;.:.:.:.;.:.:.:.:.:.:.;.-.-.B 6 ",
"5 N -.:.;.B ;.:.;.-.S B S -.c i g [ <.t.2.e.p.P.^.Q.b.k.l.T.E.'.).E.T.E.E.].|.1X3X6XeX6XeX8X8X8X9X9XdXgXfX7XA.) $ > 4 S :.:.;.A -.:.:.:.:.:.:.:.:.-.-.-.-.A 6 5 ",
"6 N ;.:.;.B -.;.;.-.A A S ;.A c t r ` @.r.H.^.(.!.P.x.k.l.V.E.E.).E.E.E.E.R.'.|.1X3XeX6X6X6X6X8XuX9XdXgXdX7XA.] & > 4 S ;.:.-.S -.;.:.:.:.-.-.:.;.-.B :.:.B 6 6 ",
"N -.:.:.;.B B ;.:.S A m A A B B c : d | c.(.@X@X!.b.v.f.k.M.R.E.E.).E.E.R.T.R.'.|.1X6X6X6XeXeXwXtXuXdXdX9X7X-X3.W r x S S N 6 ;.:.-.:.:.:.B B -.:.:.:.:.:.:.B B ",
"6 B ;.;.-.B -.-.-.-.S 6 -.;.-.S 5 : s | s.~.@X~.N.v.h.h.h.n.V.S.R.).E.E.E.T.T.E.'.|.1X3X6XyXyXiXiXpXsXsXuX8X,XA.3.[ j t 5 S -.:.-.S ;.:.:.-.S :.:.:.;.S B :.-.-.",
"6 N -.-.-.-.:.;.S :.-.B -.;.:.-.5 8 U +.s.!. XL.b.f.h.g.h.d.v.m.R.E.).).E.E.E.E.T.'.|.1X6XeXwX2XqXqXrXtXtXyXtX2XD.3.W 9 1 6 :.S A B -.;.:.;.-.;.:.-.-.6 6 :.-.6 ",
"6 N S S ;.:.:.:.:.:.:.:.B A :.-.4 8 T +.s.U. XN.h.5.g.f.y.y.h.n.T.E.).).E.E.E.T.T.T..XXX<X,XW.Z.C.Z.D.:XqXeXpXiX2XZ.] & 8 5 S 6 A ;.-.;.:.;.;.:.;.-.-.-.-.:.B 5 ",
"6 6 6 B B :.-.:.:.:.;.-.B -.:.;.5 8 U +.s.U.~.N.h.t.g.i.y.y.h.m.T.E.).E.E.).E.T.T.E.{.XX<XR.3.W J ! =.S.1XiXaXpX2XZ.] = < 5 -.m B ;.S A S S -.:.:.-.-.-.:.:.6 4 ",
"6 6 6 6 6 -.-.-.:.:.-.B S ;.;.-.5 8 U O.s.U.~.J.k.t.g.g.y.i.h.m.R.).'.E.E.E.E.E.E.E.'..X_.j.] @ X o J 3.:XrXpXyX>XC.` & t 6 -.-.-.;.-.S N A S ;.:.:.-.-.:.:.6 5 ",
"B N 6 N m 6 S -.:.-.;.-.S S ;.B 2 : U X.s.U.~.K.h.g.g.h.y.h.k.m.R.).).E.E.E.E.).'.E.T.d.4.%.%.#.@ X O Q 3.D.2X3X}.u.` 9 z m ;.-.;.;.:.;.;.:.;.S 6 B :.:.:.-.-.6 ",
"B B B B -.-.-.-.-.-.-.-.-.-.-.B 4 : U X.s.U.~.K.h.i.g.h.y.y.h.M.R.).'.E.E.E.E.'.[.T.d. .] %.=X=X9.#.@ + L &.S.`.E.j.` s t 6 :.;.;.-.;.;.;.;.:.;.B 6 :.-.B S 6 B ",
"5 B -.;.-.:.-.S S S -.-.;.;.-.B V > U +.s.U.~.B.k.y.i.h.y.y.k.n.R.E.E.'.E.E.E.'..XT.<.P K $.;X0X;X$.K . o J <.l.S.i.) = < 5 S :.:.-.;.;.S ;.;.;.S B -.S 6 B S 6 ",
"3 6 ;.-.-.;.;.;.;.S S :.:.;.:.-.5 : U X.s.U. XN.k.i.h.h.y.h.h.l.m.R.R.E.).).).'..XT.>.% X K q.0X;X0.K .   o [ 5.M.,.I # * e V B :.;.:.:.S S S ;.B :.:.B -.:.B 5 ",
"6 6 S S S -.S S S S S -.-.-.-.B 3 7 U +.s.U. XN.h.g.g.h.y.h.h.h.l.z.S.E.).).).'..XR.,.& X @ $.9.0.8.L O . # ' k.z.o.; o # a u 5 N B B S S S ;.;.:.:.B B B ;.-.N ",
"B B N B -.S 6 6 N A S S -.S A 6 2 : U X.s.U. XN.h.g.i.h.h.h.y.y.d.k.z.T.).).).'.{.E.4.( % O % K L L L K + J <.z.M.*.J + % s s 1 4 V 5 N N ;.:.:.:.-.N N N B B B ",
"6 B ;.:.;.-.B 6 A N N -.-.:.:.-.5 : U +.s.P. XN.h.i.h.h.h.h.h.i.f.d.k.M.T.R.).].{.).z.2.' % O . O + H J ~  .5.T.V.5. .~ / I d t A S S ;.;.S S :.;.:.-.B B ;.N V ",
"6 B -.-.;.:.-.-.S S S S :.:.:.S 5 8 U +.s.U. XN.k.i.g.h.h.h.h.f.f.f.h.k.n.V.).).].'.R.V.t.) % . . . + ^ <.d.E.E.T.S.g.1.+.R s t A :.:.:.:.S S S B B :.S B ;.B N ",
"6 N 6 m -.:.:.:.;.;.;.;.:.:.S A 3 > U X.s.P. XN.h.i.g.h.h.h.h.h.h.d.y.g.k.m.T.).E.E.'..XR.4.` % . O J X.k.[.{.'.'.{.E.z.1.~ 9 z A :.:.;.S S B S N N ;.:.:.B B B ",
"6 6 m S S -.S S B A V A S S ;.S c 8 U | p.L.Q.N.g.i.f.h.h.h.h.h.h.h.y.y.h.l.m.m.m.V.).{.[.m.2.] ~ ( X.y.T..X.X'.'.[.E.k.<.R = 1 N ;.:.:.:.S B A 5 N S :.:.B N 4 ",
"5 5 N -.S 6 m A N N 5 N N N S S 5 8 U O.p.L. XN.h.t.g.f.h.h.h.h.h.h.h.y.h.h.k.k.h.l.M.).'.).m.h.5.i.k.V.'.'..X[.T.).m.f.o.R 9 < N :.:.:.:.S S S B B :.:.;.N 4 3 ",
"5 6 N B S N 5 6 6 A m 6 6 6 6 6 4 : U ..G.^.OXQ.v.d.f.f.g.h.h.h.h.h.h.h.y.h.h.y.t.g.k.m.T.).'.).E.R.T.V.R.).).R.).L.b.r.X.R = > 4 :.:.:.:.:.:.:.:.S :.:.;.N 4 V ",
"5 5 B B B N N 5 5 6 6 6 A A B S 5 : U w.Y.%X&XOXJ.d.d.d.t.g.h.h.h.h.h.h.h.h.i.i.t.h.h.v.m.T.).T.l.5.4.t.n.R.R.R.Q._.Q.x.2.~ $ t A :.:.:.;.S ;.;.S N S ;.:.;.B B ",
"6 6 B -.:.;.N N A S S A S -.;.;.6 : T 8.oX%X*X#X!.N.v.h.t.g.h.g.h.y.h.h.h.h.y.y.y.y.h.h.v.m.m.v.2. .` o.t.v.m.n.B.Q.!.H.e.~ 9 t S :.:.:.S S :.;.N 4 V B :.S B N ",
"N N N :.:.:.S B ;.;.:.:.;.-.:.-.m 1 T O.F.+X%X+X/.J.N.v.h.h.g.g.g.g.h.g.y.h.h.h.h.h.h.h.h.h.v.t.o.^ ~ ` o.2.2.2.r.b.J.s.=.W 0 2 A :.:.S N S :.:.N V N ;.:.B N N ",
"6 6 B -.:.:.:.-.6 A -.:.-.S ;.m 2 p h ( +.a.I.Y.!.!.Q.J.v.f.f.t.i.i.i.i.i.h.h.h.h.h.y.h.f.h.h.y.2.o.{ ' ) ' ^ ^ } @.2.@.} E p 5 S :.:.:.;.:.:.:.;.B :.:.:.B N N ",
"5 6 B B ;.:.:.-.B m S :.-.A A n p Z k l U ' w.G.!.@X~.Q.J.b.d.t.i.g.g.h.y.h.h.h.h.h.h.y.h.f.h.f.y.t.2. .^ I P Y R ^ ^ ( W M V A S ;.:.:.:.:.:.:.;.:.:.:.:.S B N ",
"6 B -.:.:.:.;.;.:.-.S :.-.A c n C C u q * ; | G.+X$X#X X!.J.N.v.v.v.v.v.v.h.h.g.g.g.g.g.g.g.h.k.k.n.h.<.' ~ ~ ) ^ Y P ; f C S A N A ;.:.:.:.:.S B B ;.B B ;.B B ",
"6 B :.-.;.:.;.:.:.:.:.;.-.S n n C C u q * P O.Y.&X*X$X@X~.~.Q.L.N.J.J.J.N.v.g.5.t.i.i.i.i.y.f.h.k.v.h.4.o.o.e.e.w.| I - f p V V N B S S B S ;.;.;.;.;.:.:.:.;.B ",
"6 S ;.A S :.;.;.:.;.-.S S A A n F b p w * Y @.oX%X&X#XOX!.!./.!.!.!.~.!.Q.J.h.f.d.d.h.h.h.k.d.h.k.h.d.t.t.f.J.P.c.,.~ ; f u n 5 A S S S A S S :.:.:.:.:.;.:.-.B ",
"B S A 6 N S S S -.A 6 6 6 m c Z F F p u q T O.F.oXOXI.c.p.x.H.Y.+X#X#X@X(.Q.J.N.B.B.B.K.B.N.v.v.h.k.v.l.v.B.L.J.p.@.W f f M V S S ;.:.:.:.:.:.:.:.:.:.-.B ;.-.B ",
"6 B -.A A A B S S A B S m 5 c G F F C p y l ( O.w.w.,.+.{ ..w.I.%X*X*X#X@X~.!.Q.!.!./.~.!.L.N.n.k.k.v.m.m.n.x.e...( j j h p Z S ;.:.:.:.S ;.;.:.B B -.A N B B B ",
"6 B ;.;.S S S B A A -.-.6 c c Z F b C C C p j E ~ ~ ~ Y d P { F.+X*X%X+X!.!.!.!.!.!././.!.J.b.f.i.h.k.v.k.t.*.' R g k M C b Z S ;.:.:.;.S S ;.;.B B S -.B 6 6 B ",
"B S ;.:.:.:.;.;.-.B N N 5 A S D x b F G D Z p f s ; a a 7 = E =.G.oXY.G.p.p.x.x.c.c.c.c.x.p.2.<.<.<.2.2.2.*.` d a y C Z Z D B B S ;.;.:.:.:.:.:.:.:.:.:.:.-.B B ",
"N B ;.:.;.;.;.;.:.;.B B S S ;.S A p p F Z Z p y w 0 q q q q f ( O.7.w.+.| ..+...+.+.+.@.+.| { } ' ' ' { { ) T h y y C V D N A S ;.;.;.S ;.;.;.;.;.;.;.:.:.-.B B ",
"N B ;.;.;.;.;.:.:.:.:.:.:.:.;.:.S x p p p p p C C p p p p p i l Y Y Y Y Y P Y Y R U Y Y I Y Y U Y I Y Y ! U h k C p p C x N B :.;.S S N N N A S B B N ;.:.-.B B ",
"B B B -.;.:.-.S S ;.:.:.:.:.:.S B N n p p p F Z C p p b b b u 0 a s a a s s s s a a a a s s s s s s s d a l h p C C x 3 N B ;.:.;.N A S S B N A N N S S ;.;.B 6 ",
"N B -.;.;.;.S B -.-.B -.-.:.;.-.S -.m x x M F G b p p p x p p y q q q w w w w y y w y y y w y y h y y a h j k p b m m A S S :.:.;.m 6 m A A m 6 6 6 ;.-.B ;.B 6 ",
"6 B ;.:.B N N -.-.-.6 6 -.:.;.-.;.:.-.S D Z M Z n p p u u u u p u u C b b b b C b b C C p u p p b b p u b n C C n S S ;.:.:.;.:.;.A m m 6 6 m 6 6 B ;.;.-.-.B B ",
"N B :.-.A 5 5 B :.:.;.;.;.:.S -.:.:.:.;.S A n A D V p i h u p p p C C C C C C Z C F C b p p u b G G Z V D A V V S -.:.:.:.:.;.:.;.;.S c 6 6 S S B B -.-.;.:.-.B ",
"N B ;.-.S S N S :.:.:.;.:.-.-.:.:.;.:.:.-.S m S B A b p k k b M b C C b C Z C Z Z C C b b p p p G F Z D S S A S -.-.;.:.:.S S ;.:.:.S S m -.-.-.;.;.-.-.-.;.B B ",
"6 B ;.:.:.:.:.;.;.;.-.-.-.:.:.:.:.;.;.;.-.A m -.S S D Z C C Z Z Z Z V n x b n b b n n V Z n Z Z Z b x x S :.:.:.:.-.-.-.-.S B -.:.:.:.:.:.:.:.:.:.:.:.-.B -.B 6 ",
"6 B -.:.;.B ;.:.;.-.6 6 -.:.:.:.-.S A S :.:.-.S S :.S A D A D A D V c V V x 3 c c c V D V 4 A D C V V 4 S :.:.:.-.-.S S ;.:.;.A -.:.:.:.:.:.;.:.:.;.-.-.;.B 6 5 ",
"5 B ;.:.-.N -.;.;.-.-.6 -.;.:.;.S -.S S :.:.-.S S :.;.S S B B B S A A S S A 6 N A A A S B 5 A S B N N N S :.:.S S S S -.:.;.-.S S :.:.:.:.-.-.:.;.-.B ;.:.B 6 5 ",
"B B :.:.;.-.B -.:.-.6 -.6 6 6 6 S ;.:.:.;.m 6 ;.:.;.:.:.:.B B :.;.;.:.:.:.;.:.:.:.:.:.:.;.S B S :.B N N B A A S -.-.:.:.-.A N ;.:.-.:.:.:.B B -.:.:.:.:.:.:.-.B ",
"6 B ;.;.-.B -.-.-.-.B 6 -.;.-.-.S ;.;.S S S ;.;.S S :.:.:.S S :.:.:.;.B B :.:.:.;.;.;.:.;.B ;.S -.;.B N -.;.-.S -.;.-.B -.-.;.;.S S -.:.:.-.S ;.:.:.:.S B :.;.B ",
"6 N -.-.-.;.:.;.B :.:.B -.:.;.;.;.:.S A S :.:.S A A S :.:.;.S :.:.;.-.6 B :.:.:.S S S S S S :.;.B :.:.B -.:.;.;.;.:.S B S :.:.S B A -.:.:.-.-.:.:.-.-.6 6 :.-.6 ",
"6 N B B ;.:.:.:.:.:.:.:.-.6 :.;.;.:.:.S ;.;.S N S S S ;.:.;.:.:.;.-.B -.-.:.-.S ;.S B S :.:.:.:.:.:.:.:.S B :.;.-.:.:.-.;.-.S 6 A -.-.-.:.:.;.:.-.S S -.;.:.B 5 ",
"6 6 B B B ;.;.;.:.:.:.-.B B :.:.:.:.:.S :.;.S B S ;.S S S S S :.:.:.-.;.:.:.B 6 ;.S N N S :.;.;.:.:.:.B A S :.:.:.:.:.-.:.-.S B -.-.S S S B -.:.:.:.-.-.:.:.6 3 ",
"6 6 6 6 B B -.;.:.:.;.B B ;.:.;.;.S ;.S :.:.;.S B :.-.B B A S :.:.;.;.;.;.:.S N ;.S N N N S S ;.:.:.;.B B ;.:.;.-.-.-.-.:.:.-.B -.;.-.B B B S ;.:.:.;.;.;.:.6 5 ",
"B 6 6 B B 6 B ;.;.;.;.-.B -.;.-.B B S S :.:.:.S :.:.:.:.S :.:.S N B ;.:.;.;.;.:.:.B 5 N N N B ;.;.:.;.B B -.;.S B S B S :.:.;.-.-.:.:.:.-.;.:.S B B :.:.;.;.-.6 ",
"5 5 6 6 6 6 B 6 6 6 B B B B B 6 N N B B B B B B B B B B B A S S 5 5 B B N N B ;.S A N N N N N B N N N N B B N N 6 6 B B S A S -.B B -.-.B B -.B 5 5 B B 6 6 6 5 ",
"3 4 5 6 B B 6 6 5 5 5 6 6 6 5 6 B N B N 5 5 B B B N V N N N N B 5 5 6 5 3 4 5 N N 5 5 5 N N N 5 5 5 5 6 B N 5 6 B B B B 5 5 6 B B 6 6 6 6 6 N B 5 4 6 5 4 4 4 3 "
};
