/* XPM */
static char *Group_6_11__resized[] = {
/* columns rows colors chars-per-pixel */
"80 80 224 2 ",
"   c #07061E",
".  c #0C0523",
"X  c #160B2D",
"o  c #0F102E",
"O  c #13142B",
"+  c #171635",
"@  c #261C3D",
"#  c #243B26",
"$  c #23383A",
"%  c #2C4E1C",
"&  c #2F5316",
"*  c #2E521D",
"=  c #30561C",
"-  c #345D1D",
";  c #36621C",
":  c #39661D",
">  c #3C6D1D",
",  c #3F711E",
"<  c #254423",
"1  c #2B4525",
"2  c #2A4B24",
"3  c #28452A",
"4  c #2B4B2B",
"5  c #314D2C",
"6  c #2D5224",
"7  c #2E5428",
"8  c #315623",
"9  c #345B24",
"0  c #395D27",
"q  c #34532C",
"w  c #36592A",
"e  c #395C2C",
"r  c #264532",
"t  c #2A4434",
"y  c #2A4A34",
"u  c #27443C",
"i  c #2A453A",
"p  c #2B4C3B",
"a  c #314B32",
"s  c #2D5135",
"d  c #2E5539",
"f  c #345433",
"g  c #345B34",
"h  c #375937",
"j  c #3A5C32",
"k  c #376321",
"l  c #3A6523",
"z  c #3D6B23",
"x  c #3D632C",
"c  c #3F692A",
"v  c #3F7320",
"b  c #376432",
"n  c #3E6331",
"m  c #41751F",
"M  c #43781F",
"N  c #406F26",
"B  c #40672E",
"V  c #416B2C",
"C  c #417621",
"Z  c #457C21",
"A  c #43712A",
"S  c #406631",
"D  c #416A31",
"F  c #1E1B42",
"G  c #273647",
"H  c #233D43",
"J  c #312D50",
"K  c #4B3E60",
"L  c #264541",
"P  c #274941",
"I  c #294A43",
"U  c #274749",
"Y  c #2A4C4A",
"T  c #2D5342",
"R  c #2D544C",
"E  c #2F5B48",
"W  c #325946",
"Q  c #335A4C",
"!  c #374755",
"~  c #2D5453",
"^  c #2E5855",
"/  c #2F5A59",
"(  c #335857",
")  c #325C54",
"_  c #315C5A",
"`  c #366B56",
"'  c #34635C",
"]  c #386858",
"[  c #385063",
"{  c #346463",
"}  c #366B62",
"|  c #386C63",
" . c #376A68",
".. c #3A7166",
"X. c #3A766B",
"o. c #3C756A",
"O. c #3D796B",
"+. c #396F71",
"@. c #3B7A73",
"#. c #3C7A7A",
"$. c #415456",
"%. c #456B58",
"&. c #477159",
"*. c #43496E",
"=. c #6B5F7F",
"-. c #4A6E6D",
";. c #49766C",
":. c #437B6E",
">. c #417D71",
",. c #487D70",
"<. c #478022",
"1. c #498423",
"2. c #4C8924",
"3. c #3E837C",
"4. c #41806E",
"5. c #46896D",
"6. c #478776",
"7. c #458975",
"8. c #468D7B",
"9. c #598977",
"0. c #47927C",
"q. c #4A937D",
"w. c #74997D",
"e. c #3D7F82",
"r. c #6F738C",
"t. c #3D8388",
"y. c #428985",
"u. c #448D89",
"i. c #499583",
"p. c #4E9C84",
"a. c #4E9E88",
"s. c #579884",
"d. c #509F84",
"f. c #418A96",
"g. c #489995",
"h. c #629E85",
"j. c #4FA186",
"k. c #4FA089",
"l. c #50A186",
"z. c #51A38A",
"x. c #54AA8D",
"c. c #5AA98D",
"v. c #57B08F",
"b. c #4CA39B",
"n. c #4DA699",
"m. c #55AC93",
"M. c #52AA96",
"N. c #59B493",
"B. c #5CBB96",
"V. c #57B398",
"C. c #56B29B",
"Z. c #5DBD99",
"A. c #6CA589",
"S. c #6AB899",
"D. c #75BA9C",
"F. c #4693A1",
"G. c #7E89A5",
"H. c #4CA6A7",
"J. c #55B4A4",
"K. c #59BBA4",
"L. c #54B6AB",
"P. c #56BBAD",
"I. c #5ABEAB",
"U. c #4FB0BE",
"Y. c #53B6B6",
"T. c #5EC39B",
"R. c #5FC89D",
"E. c #61C59D",
"W. c #63C99F",
"Q. c #5BC1AD",
"!. c #5BC4B2",
"~. c #5CC7B4",
"^. c #5DCABA",
"/. c #65C5A1",
"(. c #65CCA1",
"). c #6ACEA3",
"_. c #7CC6A4",
"`. c #66D1A4",
"'. c #69D4A6",
"]. c #6AD5A8",
"[. c #6BDBAA",
"{. c #77D9AC",
"}. c #61CBB0",
"|. c #6DE1AE",
" X c #76E6B3",
".X c #71EAB4",
"XX c #52B5C6",
"oX c #5CCAC7",
"OX c #5CCCCF",
"+X c #62D6CA",
"@X c #63DBD8",
"#X c #66E3DE",
"$X c #5FD5E0",
"%X c #61D9E6",
"&X c #67E6E6",
"*X c #6AEEF3",
"=X c #6CF0F3",
"-X c #9395A9",
";X c #96C49F",
":X c #8CCDA8",
">X c #85D5AC",
",X c #8ADEB4",
"<X c #AAD4A8",
"1X c #85E4B4",
"2X c #89EABB",
"3X c #93ECBC",
"4X c #99EEBE",
"5X c #98F0BE",
"6X c #ACF3BE",
"7X c #CCF6BF",
"8X c #ABB3C6",
"9X c #9BECC3",
"0X c #8FF7C5",
"qX c #9BF3C2",
"wX c #99F7C5",
"eX c #AAF3CD",
"rX c #A5F9C8",
"tX c #B7FCC7",
"yX c #B8FDD3",
"uX c #C9FCC8",
"iX c #DAFBC7",
"pX c #D1F9D0",
"aX c #E3FDCD",
"sX c #E2FED2",
/* pixels */
"& ; m > > m m m m > > , M M M , , M M , , , , <.M M M M , > > > , m M , , M M > ; > , , , , , , m > > m , M M , , M M , , > , M M m m m m : m m m m m m m M m - ",
": > m m m Z , , m > , Z Z , M , , , , , , , , M , , , , > Z M Z M M m > , M <.M Z , , , m m , , , , , M Z , M , , , , , , , , M m m m N m m M M m m m m m M m : ",
"M M m M Z Z m m m m M <.Z Z M M , M , > , M Z , , , , > , <.2.2.2.<.m , m M 1.2.2.1.C Z <.M m , , M M <.Z Z Z v M M , , , Z Z M m m N m m 1.2.2.2.M m m m M M m ",
"m M 1.2.1.Z m C m m m <.1.1.2.2.1.1., , M 1.2.1.1.<.<.1.<.<.<.1.2.1.<.M M <.1.<.<.<.1.2.1.<.M m M , M <.1.2.2.2.1.1., , Z 1.2.1.1.Z M 1.M M 1.1.1.1.M m m 1.M m ",
"> M Z 1.1.2.1.Z <.Z Z <.2.2.2.1.1.1.<.<.2.2.2.2.2.2.2.2.1.Z Z Z Z Z 2.<.M <.<.1.<.Z <.<.1.2.<.<.<.<.Z <.2.2.1.1.2.1.<.Z 1.2.2.2.2.2.2.2.1.Z Z Z M 1.1.<.M <.M m ",
"m m m m Z 2.2.2.1.<.<.1.2.1.<.Z <.1.2.2.2.2.2.1.1.1.2.1.Z Z M C , , 1.2.2.M <.2.<.Z v v <.2.2.2.1.<.1.1.2.2.<.Z <.1.2.2.2.2.2.2.2.2.2.1.Z Z M Z m m 1.2.2.M m m ",
"> m m M Z Z Z Z Z Z C C Z Z 1.1.2.1.Z M , > : : > v 1.2.1.Z , Z > , <.2.2.Z m M Z Z v Z <.Z Z Z M M v Z v Z 1.1.1.1.Z Z Z Z <.1.1.2.2.2.2.Z Z Z N m M 2.2.M m : ",
"> > m M Z C C m v v , , > , Z <.1.<.<.m ; 6 2 3 2 - v 2.2.<.<.<.Z M 1.2.1.m , m Z Z v <.Z v v v , , , , , , Z 1.1.<.Z Z m Z Z , Z 2.2.2.2.Z Z Z M M <.2.1.m > : ",
"> , M Z Z , , , z , , , , , > v <.Z 1.<.k r $ $ r 4 l <.1.2.2.2.1.1.2.2.1.v v Z Z C C Z Z , , , > v v , , > z C <.<.1.2.1.<.C , C 1.2.2.2.2.2.2.1.1.2.2.<.m > m ",
"> , m Z Z C , , , , , , v Z v <.<.Z Z z g ` o.,.:.] b z , <.<.1.C , M <.1.<.1.2.Z Z m Z Z v v , > v , , C Z Z 1.1.<.2.2.2.2.Z <.2.2.2.2.2.Z 1.2.M m M 1.1.<.m m ",
"> , m <.<.<.v , , Z Z Z Z <.2.2.1.v 9 g ` 5.x.S.S.9.&.g k > v 1., > , Z 2.1.2.2.<.Z M <.1.1.v v C Z Z Z Z <.1.2.2.1.1.2.2.1.1.2.2.2.2.2.Z Z 1.1.m > > M 2.<.M m ",
"M , C 2.2.2.Z Z 1.1.2.2.1.1.2.2.<.= 4 R X.l.).2X3XD.9.E < - <.1.C > , <.1.v Z 1.2.Z , 1.2.2.<.v <.1.2.2.1.<.2.2.2.1.2.2.Z <.1.<.1.2.2.Z m Z 2.2.m > m <.2.M m m ",
", , m <.2.2.2.<.v v 1.2.<.<.2.<.> 2 i ' y.Z..X0XqX>Xs.( # 9 <.2., ; ; : : - - k ; - ; , 1.2.2.<.C Z <.2.Z Z 2.1.Z 2.1.2.1.2.2.<.1.2.2.2.1.2.2.2.1.<.1.2.2.Z m N ",
"> , M M 1.2.2.1.v v <.2.<.Z 1.<.> 2 p { 8.Z.[.2X2X).s.( # k <.<.l 6 4 4 4 2 2 2 < < 2 k Z 2.2.1.m v Z 2.1.Z 2.Z Z 1.1.Z 1.2.2.<.1.1.2.2.2.2.2.2.1.1.2.2.2.Z M m ",
", M 1.2.2.2.1.1.2.<.Z 1.<.<.1.2.Z 6 y ^ O.a.S.].).N.6.) 3 l Z z 7 p Y U u u P P U L y w v 2.<.<.2.Z Z 1.Z Z 1.2.2.<.C > Z 2.2.Z m Z 1.1.1.2.1.<.Z Z <.Z Z 1.Z M ",
", M 2.<.2.2.1.1.2.2.1.<.1.1.1.2.1.- 4 p ) @.l.Z.E.B.l.:.d 9 - 9 W ` O.o...} } } >.>.%.h k ; - - , Z 1.<.1.1.1.2.1.Z , > m Z Z , m Z Z Z Z Z 1.1.1.1.1.1.2.2.1.M ",
", M 1.Z Z 2.1.1.2.2.<.v <.1.2.2.1.z ; 7 p ) 3.p.N.Z.Z.j.` d 4 s ` 0.v.x.l.q.q.l.S.S.h.%.f < < 3 8 v <.Z Z 1.1.2.2.Z C C C C C C Z Z Z Z Z Z <.2.2.2.2.1.2.2.Z M ",
"M M M , , Z Z Z 1.Z , v , v <.2.2.1.Z , 6 p ) X.p.V.(.Z.q.| E ] q.T.`.(.W.E.W.'.1X3X>Xh.] u U I s 6 : , , C 1.1.2.1.1.Z Z 1.1.2.2.1.1.2.2.1.2.2.2.2.2.Z m 1.Z M ",
", M 1.M v , Z Z <., , <., , <.2.2.2.2.M ; 6 y E O.p.Z.E.B.8.:.7.v.`.|.'.`.[.|. XwXwX9X_.s.;.6.,.` y 6 ; > v <.2.2.2.1.1.Z Z 1.2.2.2.2.1.Z <.1.2.Z Z <.Z m C M M ",
", M 2.<.Z Z Z Z v v <.<.v v Z 1.1.1.1.1., : 7 y Q >.p.N.T.v.z.v.T.`.[.`.'.{.1X3XwXrXqX3X_.D._.D.s.] s - ; > <.1.1.1.1.1.Z Z 1.2.2.2.2.1.Z Z 1.1.Z C Z Z Z m m M ",
"M M <.2.2.2.1.<.<.v v v , v 1.Z Z v 1.2.2.1.v 6 i _ @.d.Z.T.(.`.(.W.W.R.`.{.3X5XrXwX5X5XwXqXeX9X:Xs.%.3 2 : 1.2.1.<.1.2.2.2.2.1.<.1.1.2.2.2.2.2.2.2.2.2.1.Z M M ",
"m Z 1.1.2.1.1.1.2.<.Z v Z <.v : = ; v 1.1.<.v % r ~ ..i.Z.(.`.].`.W.T.T.(.>X3XrXrX5X5XwXwXtXyXyX6X:Xw.Q y 8 m 1.1.Z <.1.1.Z Z 1.1.<.<.<.1.<.1.1.1.1.1.1.2.1.M M ",
", M 2.1.<.1.1.2.2.2.2.2.2.<.z 7 4 2 k <.Z , > % t ~ ..i.V./.`.'.`.W.T.T.W.{.3XrXrXwX5XwXwXrXtXuXiX7X<Xw.%.f - C 1.m m Z C m C 2.2.Z Z m , C Z Z Z m m 1.2.Z M m ",
"m M Z 1.1.2.<.Z Z 1.2.1.1.v w W E s 9 > , > : 4 T { >.p.V.W.W.`.(.R.T.R.W.{.1X5X5XqX5X5X5X6XtX7XiXaXuX<Xw.&.a 9 > m Z m m C 1.2.1., m Z Z Z v v , C Z 1.1.1.Z m ",
"m M 1.1.1.<.<.Z Z <.Z > l b ` 4.7.` 7 * * = 9 s ` O.0.a.V.T.W.`.(.W.W.R.W.).{.,X3X4X5X5X5X5X6X6XiXaXaX7X<Xw.%.h 9 z , v <.<.1.2.<., v v Z v v v > m 1.<.Z <.M , ",
", M 2.2.Z , m Z 1.<.> * < d 4.x.x.5.E # # # p ` O.p.a.z.N.T.W.(.(.W.W.W.W.W.).{.1X5XrX5X5X5X5XrX6XuXiXaX7X<X-X&.f 6 > 1.2.2.2.2.<.Z v , v , v v , m <.1.<.<.Z M ",
"m M 1.M M > , M 2.2.Z ; < T 4.x.N.l.4.' R R ] 4.p.m.x.z.x.N.S.W.R.W.W.(.R.T.R.W.{.,X3X4X5X5XwXwXrXtXuXiXaX7X;X9.T 2 ; 1.2.2.1.2.1.1.Z , > , v Z Z Z M 1.1.1.M M ",
"m M 1.1.Z M m M 2.2.<.z 9 g ` 5.l.M.n.u.#.O.:.q.z.m.x.z.z.v.N.T.W.W.W.R.E.R.T.R.W.{.1X3X5XrXwXrXrXtXyXpXsXuX;X,.I # ; 1.2.<.Z 1.2.2.Z M Z Z <.1.1.1.1.<.<.2.<.m ",
"m M 1.2.2.2.2.1.2.<.Z , , z g E o.a.J.L.M.a.0.q.l.z.z.z.z.z.x.N.T.W.(.(.W.E.E.W.R.W.{.,X3XrXwXrXrXeXtXyXyXeXD.;.L % : <.<., , 1.1.2.2.1.1.2.2.2.2.2.2.1.Z <.M , ",
"> m <.2.1.M 1.2.<.<.Z , <.<.v 7 T +.g.P.Q.J.m.x.z.z.z.z.k.p.z.x.B.W.(.(.W.W.W.E.T.T.). X2X3X>X:XD.D._.,XwXwX>Xh.] s 6 z Z 1.1.Z <.2.2.2.2.2.2.2.2.<.M <.<.Z , > ",
"m M 1.2.1.M <.1.1.<.Z Z <.<.M - 4 E @.b.L.I.I.V.m.l.l.z.a.p.a.x.B.E.(.(.W.W.W.W.T.T.(. X2X{.c.,.%.( ;.A.,XwX9X>Xh.&.d 9 , , 1.Z <.1.2.2.2.<.<.2.1.1.<.1.2.M , , ",
"m M 2.2.1.M M <.2.Z v v Z , m , > 6 T  .a.L.!.L.m.l.l.l.z.p.z.m.B.E.(.(.W.W.W.W.R.W.`.|.|.S.,.G O o G ;.D.wXeXeX>Xh.] y * ; , 1.2.<.2.2.2.M M 1.1.2.2.2.2.2.M M ",
"m M 1.1.1.M <.<.<.<.Z , Z 1.Z <.m * r ~ u.L.^.Q.m.d.p.z.z.a.z.x.T.W.(.(.W.W.W.(.`.R.R.R.v.7.-.$.@ X X J ;.D.9XwX3XS.,.I < ; M 2.Z Z 1.2.2.Z Z 1.2.2.1.Z M 2.1.M ",
"> m <.<.Z <.2.1.Z 1.1.M <.1.2.1.M * 3 Y y.P.^.Q.V.d.d.d.z.p.z.N.E.W.`.(.W.W.W.(.`.(.B.3...| r.r.r.J @ + G ;.D.>X1X).6.Y 3 : 2.Z C Z <.1.2.1.<.1.2.1.<., , 2.<., ",
", m Z Z 1.2.2.2.2.2.2.2.Z Z 2.1.m = y ~ u.L.^.Q.m.l.l.z.a.p.z.N.B.R.(.(.W.W.W.(.|.(.x.' H $.-X8X8Xr.J X . G ;.x./.N.:.L 2 ; Z m Z <.Z 1.2.1.1.2.1.<.<.<.1.2.M > ",
"> m m m Z 1.1.1.2.2.1.Z Z Z 2.2.Z = t ( u.L.^.K.m.l.p.z.z.k.z.x.v.S.W.W.(.(.R.(.|.`.j.Y O @ =.-X8X-X*.+   o L 0.B.v.O.p 2 ; Z m Z 1.Z M <.Z <.2.2.1.<.<.2.2., ; ",
"m , , , Z Z Z <.2.2.1.M Z <.1.2.Z % r / u.L.^.Q.m.l.d.z.z.a.z.z.x.N.B.E.(.(.(.`.|.`.j.Y O X K r.G.r.[ F . o H 7.B.v.O.P 8 l Z Z 1.1.Z M M C Z 1.2.1.<.1.2.2., > ",
"m m , m v v Z <.2.1.<.<.Z <.1.<.> % r / u.L.^.K.M.z.d.l.z.z.z.a.d.z.N.E.W.(.(.(.|.`.v.` G X F J *.[ [ J + F ) q.Z.v.o.P 4 > 1.1.1.1.2.2.Z 1.2.Z M M 2.2.2.<.<., ",
"M m M Z Z <.Z <.<.Z <.<.<.<.<.<.v * t / u.L.^.I.m.d.d.z.z.z.z.z.d.a.x.v.T.E.W.`.|.`.S.q._ G + o F F F J G ! 7.v.E.x.o.p 2 : 1.2.1.1.2.2.1.2.2.1., m 1.<.M Z M <.",
", M <.1.1.2.1.<.Z Z Z <.1.1.M 1.Z * y / u.L.^.I.m.d.d.z.z.z.z.z.a.a.l.x.v.T.W.(.'.`.R.B.q.{ $ o . . + G [ 8.V.W.E.l.| p 3 - 1.2.2.1.Z 1.1.Z 1.2.Z M 1.Z , , , , ",
"; , 1.1.<.1.1.1.<.Z Z 1.2.1.2.1.v * y / u.L.^.I.m.l.d.z.z.z.z.z.z.z.a.z.z.N.S.W.(.W.(.[.`.l.} G . . + ~ 8.T.|.|.E.d.| P 1 ; 1.2.2.2.2.2.1.M Z Z 1.1.2.M <.2.M m ",
"> , Z Z Z Z Z Z Z Z Z 1.<.<.<.<.z * y / y.J.!.K.x.p.d.l.z.z.z.z.z.z.a.d.z.x.N.B.B.B.R.[.[.T.q.] U L ) 5.v.[..X.XW.d.} P < ; Z 1.M M M M Z Z 1.1.2.1.M m M 2.M m ",
"M M m M <.Z , , , Z Z <.Z Z Z , > % r / u.J.!.K.m.p.p.z.z.z.z.z.z.z.a.a.z.z.m.v.x.x.B.(.'.`.N.p.8.6.q.v.E.[..X|.W.d.] L 1 - Z M m m N m M Z 2.2.2.1.m m m M M M ",
", M 1.2.1.<.m m Z , v Z 1.2.2.1.v * r / u.P.oXQ.V.z.l.k.z.z.z.z.z.z.z.z.a.z.z.z.k.j.x.V.T.(.(./.R.S.T.S.E.W.].].E.p.} L 2 : 2.1.<.<.M 1.1.Z 1.2.1.1.1.M m 1.m m ",
"> Z <.<.1.2.1.<.<.Z Z <.2.2.2.1.C * r _ b.OX%X+XI.x.z.z.l.z.z.z.z.z.z.z.z.z.a.d.p.p.z.x.N.T.(.(.T.v.q.x.N.S.`.`.Z.p.} p 2 z 2.2.1.2.2.2.2.1.M M M M 1.1.M <.M m ",
", , v v <.2.2.2.1.<.<.1.2.2.Z Z > * r { H.$X*X&XoXV.m.k.d.d.z.z.z.z.z.z.z.z.a.z.a.k.a.x.x.N.Z.N.j.3.` :.0.N.Q.W.N.0.{ P 2 z 2.2.2.2.2.1.1.M M M m m 1.2.1.M M M ",
", , C Z Z Z Z Z Z C m m C Z 1.2.Z = t ( F.XX%X@XoXQ.V.z.p.d.z.z.z.z.z.z.z.z.z.z.k.z.z.z.z.x.m.x.0.} ) ) o.q.z.a.i.>._ P 2 ; Z 1.2.2.2.2.1.M m M N m M 2.2.M m : ",
"> > C <.Z , , C m , m N > m Z 2.Z ; f ( >.F.U.XX^.Q.C.x.q.d.p.j.z.z.z.z.z.z.z.z.z.z.z.k.a.a.z.d.8.O.' ) ' } o.:.o.} ^ L 2 - M M M 2.2.2.2.<.1.M m M 2.2.1.m : - ",
"> > m <.Z m > > C > , v , > > Z Z N B j ( { e.H.I.}.K.z.j.p.j.p.z.z.z.l.z.z.z.z.z.z.z.z.z.k.x.z.p.i.8.X.' ~ Y ~ ~ / ~ P 2 k v , Z 1.2.2.2.2.2.2.2.1.2.2.1.m N m ",
"> > M M M M m > > C v , C Z v Z Z M N x a $ _ f.Y.+X!.V.k.k.x.x.z.l.l.l.l.z.z.z.z.z.z.z.z.z.k.z.x.m.z.8.| R L H H U I I e z Z <.2.2.2.1.1.Z Z 1.Z C Z Z 1.1.m M ",
"> , m <.2.1.M m C Z Z C Z <.Z Z C A A x # # ( g.OX&X+XI.m.C.C.m.x.k.d.p.d.l.z.z.z.z.z.z.z.z.k.z.m.m.v.p.3.` Y H H $ p h e z C 1.2.2.2.2.Z Z 2.2.m : N M 1.1.M m ",
"M m m 2.2.2.M M 1.1.2.2.1.Z Z A N V V x 5 $ { H.@X=X@X^.K.P.!.J.M.z.d.p.p.z.z.z.z.z.z.z.z.z.z.z.z.x.x.z.p.0...~ U i f j e x N z Z 2.2.Z C Z 2.2.M N N 2.1.M m m ",
", , M <.2.2.2.<.C C 1.2.1.Z C c x B B e q p [ e.XX%X%X@X+X+X+XQ.C.m.z.x.m.M.l.l.d.d.z.z.z.z.z.z.z.d.z.M.K.V.i.} I y q B D D V A Z 2.2.2.1.2.2.2.<.M 1.2.2.M m m ",
"> , M M 1.2.2.<.C v Z 2.<.C C x j B n e j j ) { f.U.OX%X=X&X+X~.K.J.M.J.J.M.z.d.p.d.d.d.z.z.z.z.z.p.x.Z.}.~.b.X.R t q B V D V z C 1.2.2.2.2.2.2.2.2.2.2.1.1.M m ",
", M <.2.2.2.1.1.2.Z Z 1.1.Z C V B n e w 0 B n a ~ y.XX%X=X&X+X}.Q.!.!.!.I.J.m.z.d.l.z.z.k.j.k.j.k.d.z.C.}.!.b.X.Y t 5 w x B N l > Z 1.2.1.2.2.Z M M 1.M 1.1.M M ",
", M 2.<.1.2.1.2.2.2.1.1.1.Z C N B j e w 0 B 0 # $ _ f.XXOXY.H.L.oX@X@X+X^.!.K.C.V.C.C.m.m.x.m.x.x.z.m.V.J.C.t.} p a 5 w e x e k > M Z Z M Z 1.2.1.1.1.1.1.2.1.M ",
"> Z 1.Z Z 2.1.1.1.2.1.Z Z Z C N B j j 0 0 x 0 = 5 T  .e.f.>.e.b.oX&X*X#X+X~.~.!.!.!.Q.K.V.x.x.x.m.N.m.z.i.3.{ Q h q w e e e e l N M Z M Z Z Z 2.2.2.2.2.2.2.<.M ",
"m Z C > m Z Z Z 1.C , , z m C V B n n e x B B V x h W R ~ H ~ e.XX%X*X@X^.!.!.~.^.~.P.C.x.j.j.j.z.v.z.8.X.) p h S B B e e S V A Z 2.2.2.2.2.2.2.2.2.2.M m <.<.M ",
", M <.Z m C Z Z Z C C Z C z C C N V B n e x B A V n q t $ # i  .F.XXOXU.b.b.b.b.J.b.b.g.8.7.7.0.0.i.8.| ~ p 5 e V V V S e x N Z 1.2.2.1.Z 1.1.1.<.M 1.M m M M M ",
", Z 1.<.Z Z Z M C C Z 1.C C Z Z N N B n j e B V V B e 5 1 1 a W +.t.t.e.@.X.@.3.#.#.o...} } ' } | ..} Q p y w x V B S B x z C Z 1.2.2.1.C Z 1.2.M m M <.M , m m ",
"M Z 1.2.2.2.1.1.<.C m m > C 2.1.M m V V B B B n x B x B V N B h T R Y R Y Y Y Y Y Y Y Y Y I Y I Y Y U i a w V V x x B V C 1.2.Z Z 1.2.2.2.2.2.2.2.2.2.2.1.<.M M ",
"m M 1.1.1.1.1.1.1.1.Z Z Z Z 2.2.M m N N B n j n n x x B V A V e a t # $ r t i t t t t i i i i i i i i f j x D D x e x N C Z Z 1.1.1.Z 1.1.1.1.1.1.1.1.2.2.<.<.M ",
", Z 1.1.1.1.1.1.2.2.2.2.2.2.2.2.1.m m N l e j S S x 0 0 0 0 0 e q 5 5 5 q a 5 f 5 f q q a f f f f f f j n D D S S 0 l C C m M 2.2.Z Z C m m M Z M M m 1.1.1.<.M ",
"m M M 1.1.2.1.Z <.1.1.2.2.2.2.Z M m m N N 0 x B x w x 0 x e e w w w e e x x x 0 x x e x x B x e 0 x c x V V x x x l > N M Z Z 2.1.m m Z M M m m m m M <.1.<.M , ",
"m M M 2.1.1.Z M Z <.Z <.1.2.1.Z Z <.Z Z v v c A c 9 w e e j w w w e B B x B B B V B x V B B x x S S B x N N N l l v C Z Z <.1.2.1.v v v v v v v > M <.<.<.<.M > ",
", M 2.2.M m M Z <.<., , Z 2.1.<.2.2.1.<.1.Z Z <.Z z 0 w f j j j w e n B n x x x n B S S x e e x S e e 0 z C C C Z <.1.1.2.2.1.2.<.Z v v v v v v > m <.1.<.<.M M ",
"m M 2.<.m > > Z 2.2.1.1.2.1.<.<.2.2.2.2.2.1.1.1.1.Z z 9 w w w 0 l x x x x z V c V x V x 0 8 9 0 V V l N Z Z Z 1.2.2.1.2.2.2.1.2.1.1.v v v v v Z M <.<.<.<.1.<.M ",
"m M 1.<.Z Z m Z 2.2.2.2.1.1.<.2.2.2.1.2.2.1.Z 1.2.1.v z l z z N A z v c N A A C N C N z N : x l A A A C 1.2.Z 2.2.2.2.2.1.<.Z 1.2.2.<.Z C Z <.<.1.1.1.<.<.1.<.M ",
", M 1.2.2.2.1.1.2.<.<.M <.2.2.2.2.<.<.1.<.Z v <.2.1.1.Z Z Z Z Z <.<.Z Z C C Z Z M M Z Z 1.Z Z Z Z C C m Z 2.2.2.2.<.1.<.<.Z Z Z 2.1.2.2.2.2.2.2.2.2.2.<.<.<.M > ",
", m <.2.1.Z 1.2.1.<.M , <.2.2.2.<.Z Z Z 1.2.1.Z Z 2.2.2.2.1.1.2.1.Z Z Z Z C C M Z Z Z 1.Z Z 1.1.Z Z C m Z 2.2.2.<.<.Z Z 1.2.<.Z Z 2.2.2.2.1.2.2.2.1.<.<.<.M > > ",
", M <.2.1.M <.1.1.<.<., <.<.1.<.Z <.Z Z 2.2.<.Z Z 2.2.2.2.1.Z 2.2.1.Z 1.1.Z M Z 1.Z 1.2.1.M Z 1.2.Z Z m Z 1.2.Z Z Z Z <.2.1.1.Z <.2.2.2.2.<.<.1.1.1.<.1.2.M , > ",
"M M 2.2.1.M M 1.2.<., , <., M , Z 1.2.2.<.v v 1.2.Z 2.2.2.Z C 2.1.2.2.2.2.1.2.2.2.2.2.2.1.Z Z 1.2.Z m C C Z C C Z 1.2.2.1.v m 1.2.Z 2.2.2.M Z 1.1.1.2.2.2.1.<.M ",
", M 1.1.<.<.<.<.<.<.M m <.1.<.<.Z 1.1.Z 1.Z 1.1.Z Z 1.2.2.Z Z 2.2.2.1.M M 2.2.2.1.1.1.2.1.M Z Z 1.1.Z C Z 1.<.Z <.1.<.Z <.<.1.1.Z Z <.2.2.<.Z 1.2.2.1.Z M 2.<.M ",
", m <.<.<.<.1.1.M 2.1.M <.2.1.1.1.2.Z C Z 1.2.Z C Z Z 2.2.1.Z 2.2.1.<.m m 2.2.2.Z Z Z Z Z 1.2.1.Z 2.1.C <.1.2.1.1.1.<., Z 2.2.Z Z Z <.1.2.1.1.1.2.1.<., , 2.<.M ",
", m M M <.2.2.2.2.2.2.2.M M 2.1.1.2.2.Z 1.Z Z m C Z Z 2.2.1.2.2.1.<.M <.1.1.1.M 1.Z M Z 1.2.2.2.2.2.2.2.Z Z 2.1.<.2.2.<.<.<.Z v Z <.Z 1.2.1.1.2.1.<.<.<.1.2.M > ",
", , m M <.1.1.1.2.2.1.<.M <.2.2.2.2.1.1.2.1.Z M Z 1.Z Z Z Z Z 2.2.2.<.<.1.2.M M 1.Z m m Z 2.1.2.2.2.1.Z Z Z 2.2.2.2.1.1.1.1.Z M Z 1.Z Z Z Z <.2.2.1.<.<.2.2., : ",
", , , , , <.<.<.2.2.<.M M 1.1.1.1.Z Z 1.2.2.Z M M 1.1.M C Z Z 2.2.1.1.1.1.2.Z C 1.Z m m m Z Z Z 2.2.1.M Z 1.1.2.1.1.<.<.2.2.<.M Z 1.1.M M M Z 1.2.1.<.1.2.2., : ",
"M m , M , , M <.1.1.<.<.<.<.<.<.M M Z Z 2.2.2.1.2.2.2.2.Z 2.1.Z M M 1.2.2.1.2.2.2.M m m m m Z 1.1.2.1.M Z Z 1.Z Z , M <.2.2.1.<.<.2.2.2.<.1.1.Z m M 1.2.2.<.<., ",
"> > , , M M , M M M M M M M M , m M M M M M M M M M M M C Z Z Z > > M M m m C Z Z m > m m m m M M m m M M m M m , M M M Z Z M <.Z M <.M Z Z Z Z > > M M , , , > ",
"; : > , M , , , > > > > , , > , m m M m > m M M M m N m m m C C > : , > ; ; > m m > > m m m m > > > > > m m > , M , M , > > , M m , , , , , m M > > , > : : : ; "
};
