/* XPM */
static char *Group_10_18__resized[] = {
/* columns rows colors chars-per-pixel */
"80 80 230 2 ",
"   c #0E0D0C",
".  c #1A1B16",
"X  c #201319",
"o  c #231D1C",
"O  c #291D1E",
"+  c #1A2A0E",
"@  c #1D2215",
"#  c #1E2A14",
"$  c #212516",
"%  c #222D15",
"&  c #24251A",
"*  c #28231E",
"=  c #262B19",
"-  c #2A2B1A",
";  c #35291D",
":  c #243415",
">  c #293819",
",  c #38381A",
"<  c #251E22",
"1  c #2B1C24",
"2  c #361D26",
"3  c #2C2123",
"4  c #2A222A",
"5  c #332526",
"6  c #382826",
"7  c #322629",
"8  c #34292B",
"9  c #3C2D2D",
"0  c #3B302B",
"q  c #2C2532",
"w  c #362930",
"e  c #3C2D31",
"r  c #3F3137",
"t  c #48270D",
"y  c #49271B",
"u  c #49351F",
"i  c #462D2B",
"p  c #542E24",
"a  c #4A3525",
"s  c #42312E",
"d  c #52332B",
"f  c #573829",
"g  c #433232",
"h  c #473637",
"j  c #4C3934",
"k  c #4C3B3C",
"l  c #533B33",
"z  c #553B34",
"x  c #65382A",
"c  c #743D2E",
"v  c #673F31",
"b  c #264215",
"n  c #2B4417",
"m  c #2B4A16",
"M  c #2D4419",
"N  c #2E4A19",
"B  c #38471A",
"V  c #3C441A",
"C  c #324C1A",
"Z  c #2F5118",
"A  c #33551A",
"S  c #345B1A",
"D  c #39591C",
"F  c #37631B",
"G  c #39651C",
"H  c #3D6D1D",
"J  c #3F711F",
"K  c #3B4529",
"L  c #394F29",
"P  c #3F7220",
"I  c #434A1B",
"U  c #6D4F1E",
"Y  c #4A671C",
"T  c #446D1D",
"R  c #576C1E",
"E  c #41741F",
"W  c #4B721F",
"Q  c #43791F",
"!  c #49791F",
"~  c #56741F",
"^  c #65741E",
"/  c #66791D",
"(  c #71751D",
")  c #444A28",
"_  c #544B28",
"`  c #514333",
"'  c #5A4835",
"]  c #55443B",
"[  c #5B4A3B",
"{  c #5A5437",
"}  c #75462C",
"|  c #665021",
" . c #634331",
".. c #6C4B36",
"X. c #624C3D",
"o. c #784731",
"O. c #715032",
"+. c #7A5638",
"@. c #456921",
"#. c #427620",
"$. c #477126",
"%. c #457C21",
"&. c #4A7D22",
"*. c #4B7C2C",
"=. c #567622",
"-. c #5C7B23",
";. c #637B22",
":. c #6B7B24",
">. c #7C7622",
",. c #747B23",
"<. c #7D643E",
"1. c #657138",
"2. c #5A4745",
"3. c #624E49",
"4. c #695747",
"5. c #65524B",
"6. c #6A554C",
"7. c #725C42",
"8. c #6B5852",
"9. c #735D51",
"0. c #5B7B47",
"q. c #776444",
"w. c #7A665A",
"e. c #757853",
"r. c #8E7E1D",
"t. c #97572A",
"y. c #894C33",
"u. c #934D35",
"i. c #845233",
"p. c #895A35",
"a. c #975835",
"s. c #A85A36",
"d. c #97612A",
"f. c #837C23",
"g. c #8A7C24",
"h. c #996936",
"j. c #91693B",
"k. c #A56634",
"l. c #AF7032",
"z. c #A67538",
"x. c #C57337",
"c. c #876949",
"v. c #96744A",
"b. c #826C5C",
"n. c #887A50",
"m. c #8A7565",
"M. c #887467",
"N. c #478122",
"B. c #498423",
"V. c #4C8A24",
"C. c #4F8829",
"Z. c #548424",
"A. c #558729",
"S. c #598838",
"D. c #5C9136",
"F. c #6D8429",
"G. c #778428",
"H. c #668F3B",
"J. c #5D8144",
"K. c #688649",
"L. c #6F8D49",
"P. c #838527",
"I. c #8C8325",
"U. c #948525",
"Y. c #8A9530",
"T. c #989536",
"R. c #A6952C",
"E. c #B7962A",
"W. c #AA8F34",
"Q. c #BA8B39",
"!. c #ABA338",
"~. c #BAA837",
"^. c #C8992C",
"/. c #C78735",
"(. c #D28E35",
"). c #C8993A",
"_. c #DE9834",
"`. c #E79D33",
"'. c #C4A52D",
"]. c #C7A833",
"[. c #D6A832",
"{. c #C5B638",
"}. c #D6B539",
"|. c #F2A930",
" X c #E4B437",
".X c #C9C03A",
"XX c #F7C73C",
"oX c #F0D13E",
"OX c #908E51",
"+X c #948A55",
"@X c #A88145",
"#X c #B78C46",
"$X c #BC9249",
"%X c #A59559",
"&X c #ACAB51",
"*X c #A88A60",
"=X c #A39B65",
"-X c #AAA368",
";X c #B4AC68",
":X c #B9B46F",
">X c #C69947",
",X c #CFAE4C",
"<X c #F3B948",
"1X c #E4B250",
"2X c #C3BF6A",
"3X c #CACA4F",
"4X c #F6C745",
"5X c #F9D746",
"6X c #F1D053",
"7X c #FBE447",
"8X c #F5E050",
"9X c #CEC96A",
"0X c #DAD67A",
"qX c #FBD868",
"wX c #EDD773",
"eX c #F8EB64",
"rX c #FDE87A",
"tX c #D0CC8F",
"yX c #DBD688",
"uX c #EEDC8E",
"iX c #FEF187",
"pX c #FAF692",
"aX c #EAEAA6",
"sX c #FAF4A9",
"dX c #FCFBB9",
"fX c #F6F5C7",
"gX c #FFFFD9",
"hX c #FFFFE5",
"jX c #FFFFEB",
"kX c #FFFFFB",
/* pixels */
"Z F E H J J J J Q H H E Q J Q J J Q #.Q J H J N.Q J Q Q P H H H J #.E J J %.Q H F H #.@.H J #.#.E H H E #.#.Q E J Q E E H H J Q #.E Q E J H H H J #.#.J J Q H S ",
"G H E E #.#.J J J J J %.Q Q Q J J P J J H J #.#.J J J J P #.%.%.%.#.E J J Q %.%.#.&.*.*.C.#.P #.H J E %.#.#.Q J J E #.J J J E Q E J J J J #.%.%.%.#.E J J %.E H ",
"Q Q E Q N.%.J J J J Q N.%.%.%.#.P %.P J J Q %.P P P J J #.%.V.V.V.N.E J E %.V.V.V.B.S.L.H.&.H H #.#.E %.%.%.#.#.#.%.P H J #.%.#.E J H J #.N.V.V.V.N.E H E %.Q Q ",
"E Q B.V.B.N.#.E Q Q Q N.B.V.V.V.B.N.P P %.B.V.B.N.N.N.B.B.N.B.B.B.B.N.#.E N.N.N.%.&.:.E.T.#.J #.%.E E N.B.V.V.V.B.N.#.J %.B.V.B.N.N.B.B.N.N.B.B.B.B.B.#.E B.Q J ",
"H Q N.N.B.V.B.N.N.%.%.N.V.V.V.B.B.V.N.N.V.V.V.V.V.V.V.V.B.%.%.N.%.%.V.N.%.%.N.B.B.%.=.g.r./ ! Q N.%.%.N.V.V.V.B.B.B.B.N.V.V.V.V.V.B.V.V.B.%.%.%.%.%.B.B.%.N.#.E ",
"E E E Q N.V.V.V.B.B.N.B.V.V.%.%.%.V.V.V.V.V.V.V.V.V.V.V.B.%.#.%.H #.B.V.V.%.N.V.B.Q T Y ( U.,.! N.N.&.B.V.V.%.%.N.V.V.V.V.V.V.V.V.V.V.V.B.%.%.Q J E B.V.B.%.#.E ",
"H J E Q &.%.%.%.%.#.#.#.#.%.B.B.V.B.N.#.#.N.B.B.B.V.V.B.B.Q #.#.H #.%.V.V.%.#.#.Q Q J T G.^.E.P.W E #.#.#.#.B.V.V.B.N.#.%.%.B.B.B.V.V.B.B.%.Q Q H E &.V.V.%.J G ",
"H H E Q %.E E E P P P P J J %.B.B.B.%.%.#.#.#.#.%.V.V.V.V.N.N.N.%.#.B.V.V.#.J #.Q Q J E P.[. XE.R T H H H P #.B.B.N.%.%.#.#.%.P %.V.V.V.V.N.N.B.%.E N.V.B.#.H F ",
"H J Q %.%.J P P J P J J P J J #.N.N.B.V.V.Q J J Q B.V.V.V.V.V.V.B.N.B.V.B.P P %.%.#.#.#.G.E.oX.Xf.W T Y Y H H Q B.%.B.V.V.N.P J #.V.V.V.V.V.V.C.B.B.V.V.B.J H H ",
"H J E %.%.#.J J J P J J #.%.P N.B.B.V.V.V.B.%.B.V.V.V.V.B.B.B.B.%.#.#.B.B.N.B.V.%.#.#.P ,.^.5X.X:.T / E.,.T Q N.B.B.V.V.V.V.N.B.V.V.V.V.B.N.B.B.%.P #.B.V.N.#.Q ",
"J J Q N.B.N.P P #.#.%.%.%.B.B.V.V.N.V.V.V.B.B.V.V.V.V.V.! N.B.B.P H H N.V.B.B.V.%.E #.;.U.}.eX2X1.#.G.[.I.W B.V.V.B.B.V.B.B.B.V.V.V.V.B.%.%.B.B.P H H %.V.B.%.Q ",
"Q J #.V.V.V.%.#.N.V.V.V.B.B.V.V.V.N.V.V.N.N.B.N.N.V.V.N.E B.V.V.#.H P B.V.#.%.V.V.E R R.[.oXrX0XL.*.G.[.g.W V.V.V.N.B.V.N.N.B.N.B.V.V.N.E N.V.V.#.H J B.V.E J Q ",
"J J E N.V.V.V.N.#.#.B.V.N.N.V.N.%.B.V.V.B.V.V.B.B.V.V.V.B.V.V.V.B.%.B.V.V.%.%.B.N.T R ].6XrXpXyXOXG.R. XU.T B.N.%.B.V.V.B.V.V.B.B.V.C.V.B.V.V.V.B.%.B.V.V.%.J J ",
"H J Q Q B.V.V.B.#.P %.V.N.%.B.N.%.V.N.%.V.V.V.B.B.V.V.V.V.V.V.B.B.B.C.V.B.N.N.B.%.T ;.}.qXiXiXwX3X~.].[.G.W B.N.%.V.N.%.B.V.V.B.B.V.V.V.V.V.V.V.B.V.V.V.B.N.Q J ",
"E Q B.V.V.V.B.B.V.N.%.V.N.N.N.V.V.B.#.H #.V.V.%.E %.N.B.V.V.V.N.&.%.N.%.N.B.V.V.B.W / }.qXuXqX8X7X7X}.U.-.E N.V.V.N.P J %.B.V.#.#.%.B.B.B.V.V.N.%.%.N.N.N.N.N.J ",
"J Q V.N.V.V.B.B.V.V.B.N.B.B.B.V.V.#.J J #.%.%.E J Q &.%.Q &.N.B.B.N.B.B.V.B.V.V.N.Q ;.^.<X<X4X4XoX}.Y.F.%.%.%.V.V.#.P P P %.N.P P %.%.%.%.%.B.B.B.N.N.B.V.V.N.Q ",
"J Q B.%.%.V.B.B.B.B.B.%.%.B.B.V.V.%.#.#.#.#.#.#.%.%.%.%.Q %.N.V.V.V.V.V.B.V.V.V.B.Q ~ U.^.|.|.XX[.I.~ &.~ -.~ V.V.Q E Q E Q Q #.%.%.%.%.%.%.N.V.V.V.V.V.V.V.N.Q ",
"Q Q #.J E %.%.N.B.#.P P P #.B.V.V.B.B.&.%.B.V.V.V.V.B.V.V.V.V.V.B.V.V.! Q B.V.V.V.N.Q Y f.[.XX}.P.~ H T P.U.,.Z.V.B.B.Q Q B.V.V.B.B.B.V.V.V.V.V.V.V.V.%.Q B.%.Q ",
"E %.N.#.E #.%.%.%.#.#.%.P H N.V.V.V.B.N.%.%.B.V.V.V.C.B.%.N.B.V.Z.-.! Q Q Q N.B.B.N.N.J R I.[.[.g.W J Q / >.>./ ! Z.B.N.%.N.B.V.V.V.V.V.N.B.B.V.N.%.N.#.Q Q Q Q ",
"J Q V.N.%.%.%.#.#.#.%.B.#.P N.B.V.B.V.B.%.%.N.V.V.V.V.B.Q %.B.B.F.P.G.~ E J N.B.N.B.B.N.Q W W.E.g.-.%.N.T Y >.f.,.Z.V.V.B.&.N.B.V.V.V.B.#.%.B.B.Q E %.N.Q J J Q ",
"#.%.N.V.V.V.N.N.B.#.P P H #.V.B.N.N.B.V.V.V.V.N.N.B.B.V.V.V.V.C.Y.~.{.Y.W Q B.V.V.N.N.V.V.B.;.;.R W E J H W G.E.'.F.Z.A.V.V.V.N.N.B.B.V.V.V.V.V.V.V.V.V.B.N.Q Q ",
"Q &.B.B.V.B.B.V.V.B.%.%.%.B.V.V.B.#.N.V.B.B.N.B.B.N.N.N.B.B.N.&.Y.,X7X{.P.! B.V.V.B.B.B.V.B.%.&.&.&.%.! %.&.F.{.oX~.Y.D.C.N.N.N.B.B.N.N.B.B.V.B.B.B.N.V.C.N.Q Q ",
"J Q V.B.N.B.B.V.V.V.V.V.V.V.V.V.B.#.#.N.#.#.#.V.V.%.%.%.E E ! ;.Y.9XeX4XR.~ N.V.B.B.V.B.N.N.B.V.V.V.V.V.V.A.F..X7X4X&XH.&.J #.V.V.%.%.#.P #.%.%.%.#.E B.C.N.! Q ",
"Q Q %.B.B.V.B.%.N.B.V.V.V.V.B.B.%.%.#.#.#.%.N.V.B.E E Q Q J ;.!.0XpXrX,XI.! N.N.V.B.! N.V.V.N.%.N.B.B.V.V.Z.F.{.5X XOXS.%.#.B.V.B.#.#.%.%.#.#.#.E E %.N.B.B.Q J ",
"E Q N.B.B.N.N.%.%.N.%.%.B.V.B.%.%.N.%.#.Q N.V.V.B.J P #.#.J =.Y.9XrXwXT.^ ! N.B.B.B.N.B.B.N.N.%.%.N.%.%.B.Z.G.'. XR.F.C.&.B.B.C.N.P P #.#.#.J P J J N.N.N.N.Q J ",
"J %.B.V.N.J P N.N.N.#.P %.V.B.B.B.V.V.B.V.V.B.V.B.#.#.P J J H $.Y.,XW.F.Q ! B.B.N.B.V.B.%.#.#.N.B.%.Q E N.A.>.E.E.A.B.B.V.V.V.V.B.#.#.J P P J J J Q B.N.N.N.Q J ",
"E %.B.N.J J J Q V.V.V.B.B.B.N.B.V.V.V.V.V.V.B.V.V.B.#.J P P #.#.-.:./ B.B.B.B.V.V.B.B.%.#.H H #.V.V.B.B.V.Z.~ ^ / Z.B.V.V.V.B.V.B.B.#.J J J #.%.Q Q N.N.B.B.N.J ",
"E %.B.N.N.%.J Q V.V.B.B.V.B.N.V.V.B.V.V.V.N.N.B.V.V.N.#.#.%.B.B.Q E J H J Q Q Q E #.%.N.%.%.#.%.V.V.V.B.B.&.W W ! V.V.V.V.N.%.B.V.V.N.Q #.%.B.B.B.V.B.N.B.B.N.Q ",
"E Q V.V.V.V.V.B.V.B.%.#.N.V.V.V.V.B.B.B.B.#.J B.B.V.B.V.V.V.V.V.! T G Z Z Z Z A Z S H N.V.V.B.B.B.B.%.%.N.B.V.V.B.B.B.B.B.%.#.N.V.V.B.V.V.V.V.V.V.V.V.N.%.N.J J ",
"H Q N.V.B.Q B.V.B.N.%.#.B.V.V.V.N.N.#.%.V.V.B.Q %.V.V.V.V.%.N.&.Y _ I u : = = - - > M E %.E B.V.N.B.%.#.N.V.V.V.N.N.#.%.B.V.B.#.%.V.V.V.V.V.V.V.V.B.N.N.B.%.J H ",
"J Q N.V.N.Q %.B.B.N.%.#.%.V.B.N.%.N.%.%.V.V.B.%.N.B.V.V.#.F A A K f +.} _ 5 1 3 6 5 - A A Z H %.B.N.#.#.N.B.B.N.%.N.%.%.B.V.B.%.N.V.V.V.V.N.N.V.V.N.Q V.V.Q J J ",
"E N.V.V.B.N.Q B.V.N.P #.#.#.#.#.%.B.V.V.N.J J B.V.N.V.%.G : . @ 8 X.@X).z.' h h k j 0 & @ $ M #.V.%.E E Q #.#.#.%.B.V.V.B.#.P B.V.N.V.V.V.Q Q B.B.V.V.V.V.V.Q Q ",
"J Q B.B.N.%.N.B.N.N.%.P %.B.%.N.N.B.N.Q N.N.N.V.N.#.E S > 0 9 8 h 5.v.#X>Xz.+.2.k k h 8 3 @ ; B #.&.%.#.%.B.%.%.N.B.N.%.N.N.N.B.N.%.B.V.V.%.%.B.V.V.B.Q %.V.B.Q ",
"J E N.N.N.N.B.B.%.V.B.#.B.V.V.B.B.B.N.Q Q V.V.N.E H S M 0 ] 5.3.5.5.9.n.#X>X@X..k h k h g g p a B #.N.#.N.V.V.B.B.V.%.#.N.V.V.N.#.%.N.V.V.B.N.V.V.B.N.Q J V.N.J ",
"J E %.N.B.V.V.V.V.V.V.V.#.%.V.B.B.V.B.N.B.N.Q J H S : 8 3.w.M.b.w.8.2.8.c.$X#Xh...2.h k X.i.o.d ; A E B.%.#.V.B.N.V.B.N.N.N.%.E #.N.N.B.V.B.B.V.B.Q %.N.V.V.J J ",
"J J J J %.V.B.B.V.V.V.N.%.%.V.V.V.V.B.B.V.B.W H D V s [ w.m.M.M.w.9.5.3.8.c.@X/.h...k X.p.k.i.d 3 = C H #.%.B.V.V.V.B.B.V.B.%.E %.B.%.%.N.%.N.V.V.V.N.N.V.V.J F ",
"J J J J %.%.%.N.V.V.B.Q %.B.B.V.B.N.N.N.V.V.J A I | +.b.M.M.M.M.w.w.6.5.2.2.v.(.(.k.p.p.k.d...s 4 . = M G Q V.V.V.B.N.N.V.V.N.Q N.B.N.#.#.#.N.B.V.V.N.B.V.V.J H ",
"Q J J E P J %.B.V.B.B.N.%.N.B.%.#.%.Q %.V.N.F : | Q.>X*XM.M.M.8.4.6.6.5.2.2.p./._._.(./.h. .s 9 8 3 * $ C H N.N.#.#.Q %.V.C.V.B.N.V.V.V.B.B.B.%.Q Q V.V.V.N.N.J ",
"Q E Q Q N.%.N.%.N.%.N.N.N.N.%.N.N.%.N.B.B.Q S @ a v.>X,X*Xw.5.3.2.2.3.2.2.] p./.`.`.(.k.O.g 0 e s 5 1 o N T %.%.%.N.&.N.N.B.B.B.B.B.V.B.B.B.V.N.E E B.B.Q %.Q %.",
"J Q B.B.B.V.N.N.%.Q %.B.B.N.N.B.V.V.V.C.&.H A & i 9.$X,X$Xc.3.5.6.6.2.2.h ` p./.|.`.z...s e e s 9 5 O o N H #.N.V.B.V.V.%.%.B.V.V.B.N.B.B.N.B.V.Q Q B.%.J Q J J ",
"F J B.N.N.B.B.B.B.%.%.V.B.V.V.B.B.B.V.C.*.D > U h.@X$X$XQ.h.v.%X;X-Xn.2.r h p.(.|.`.h.r 1 w r s 9 5 1 * - N H Q B.B.V.V.%.%.B.V.V.B.V.V.N.%.N.N.N.B.V.N.%.V.%.H ",
"H E %.%.N.N.%.%.%.%.%.B.N.N.N.%.%.N.%.B.0.L t d./.>X@Xc.j.Q.1X0XuXyX=X3.r  .p./._.).d.j 8 9 r e 9 6 5 5 3 : N H %.N.%.%.#.%.N.B.N.#.%.%.#.N.B.B.V.B.%.#.%.V.N.Q ",
"Q Q E Q N.%.E H #.#.#.N.%.%.#.#.#.#.J $.0.' t d./.Q.+.X.7.1XiXdXdXaX:X4.z p.h.z.z.k.j.o.v i 9 s 9 6 9 5 3 & > F #.%.#.H #.#.%.#.E J J J #.N.V.V.V.N.E J J %.Q Q ",
"J Q B.V.B.N.E E #.#.#.N.B.V.V.V.B.&.J $.K.X.t  .7.X.l [ +XyXdXjXgXaX;X<.+.l.z...g ` o.k.p.z s 9 e 9 8 7 3 = M H B.N.#.H %.B.V.B.N.N.N.B.B.N.N.B.B.B.N.Q Q N.Q J ",
"J #.&.N.B.V.N.N.N.%.%.N.V.V.V.V.B.B.%.C.K.{ f n.b.2.{ +XtXfXhXkXhXsX9XQ.d.l.p.` q 8 f p.a.p.v s 8 8 8 3 5 ; B W V.V.B.N.B.V.V.V.V.V.V.C.B.%.%.N.%.%.B.B.%.N.#.E ",
"E J P #.N.V.V.V.B.B.B.N.V.V.%.%.N.V.V.C.0.{ _ 9X;X4.n.:XaXhXkXkXgXsX6X).k...l s 9 9 s l y.k.p.z 8 3 5 8 p p I G #.V.C.V.V.V.V.V.V.V.V.B.B.%.%.#.J J B.V.B.%.#.#.",
"J J #.%.%.%.N.%.%.#.#.P #.%.N.B.V.B.%.*.0.) , +X+X5.7.=XaXfXhXgXsXwX,Xz.} j r r s 9 9 g  .i.i.o.o.c x p u , M b A %.N.#.%.%.N.B.B.V.V.V.B.%.#.%.H E N.V.V.#.J G ",
"H H #.%.%.E E #.P P P P P P %.B.B.N.#.*.0.K . ` [ h g 5.=XtXaXaXwX1Xl.} e e 0 9 s r 9 9 s z o.u.s.u.c p I A m : b J %.%.#.%.#.#.%.B.V.V.V.%.%.&.%.#.B.V.V.J H G ",
"H H E N.%.J J J J J J J P J J #.B.%.B.C.L.L   X 1 w 1 2 ' OX&X%X>X/.t.i 4 8 s s s s s s 7 q c s.s.y.x y L F A b m E V.V.B.N.Q E Q V.V.V.V.V.V.V.V.B.V.V.B.J H H ",
"H J Q Q Q Q J J J J J J #.%.P B.B.N.V.C.K.K   . 8 ` [ k j ` ` ' p.k.u.d q 9 s s s s s 9 7 q c u.u.d 1 X N G H J E Q V.V.V.B.Q N.V.V.V.V.B.N.B.B.Q Q %.N.V.N.#.E ",
"J E E N.V.N.Q J P %.%.#.%.B.B.V.V.B.V.C.J.A + < ` OX=X=Xq.9 2 f y.i...d e s s 9 w 6 9 9 7 3 o.u.o.3   . M H B.V.V.B.V.V.V.B.B.V.V.V.V.B.Q N.N.B.P H H %.V.N.%.Q ",
"E E E V.V.V.%.Q N.V.V.V.B.B.V.V.V.N.V.V.N.P Z = 4.2XuXyX=X .x s.p.x 9 e e s 9 7 7 5 5 7 3 7 c y.c 3 . . M H B.B.V.N.B.V.%.N.B.N.B.V.V.B.E N.V.V.#.H E B.V.#.E E ",
"J J Q N.V.V.V.N.P #.B.V.N.%.V.B.%.V.V.V.B.B.#.D $.OX-X-Xe.] } x.a. .4 7 s 6 9 6 6 5 3 1 5 p x x a , m C n n M N S N.V.B.B.V.V.N.B.V.C.V.B.B.V.V.B.%.B.V.V.%.#.J ",
"H E Q Q B.V.V.B.#.P %.V.N.%.B.N.%.B.N.%.V.V.B.H A K { { ] l } l.t.d < 4 5 6 5 5 5 5 * - , p p , M S J E N % . # m %.B.%.V.C.V.B.N.B.V.V.V.V.V.V.B.B.V.V.B.B.#.E ",
"J Q N.V.V.V.B.B.V.N.%.V.N.N.N.V.V.N.E J %.N.E m > b # & 6 d v } f 6 o < O * * 3 3 * - M C I B C G E Q N.G n : > S Q E J %.V.V.Q E %.B.B.V.V.V.N.&.%.%.N.%.B.%.#.",
"H ! V.N.V.V.B.B.V.V.B.N.B.B.B.V.V.%.J J E H S : > S b : O y u u - & $ $ = & - & o $ > S E W H J &.B.V.N.#.H G @.E E J E E %.Q E #.%.%.%.%.%.B.B.B.N.B.B.V.B.N.%.",
"E %.B.#.%.V.B.B.V.V.N.%.%.N.V.V.V.%.E #.#.H S b A W H S , I B > m b M m b M C b @ . > G Q V.B.B.V.B.B.#.%.B.V.V.V.Q Q Q E Q #.#.%.%.%.%.%.%.N.V.V.V.V.V.V.V.N.Q ",
"#.#.%.P #.%.N.N.N.#.P P P #.B.V.V.B.N.%.%.N.B.&.N.B.N.N.N.N.&.%.%.%.%.J G #.&.#.m # % S J N.%.N.B.#.H #.J #.B.V.V.V.B.Q N.N.V.V.B.B.B.V.V.V.V.V.V.V.V.%.Q B.Q Q ",
"E #.%.#.#.#.#.%.%.#.#.%.P P N.V.V.V.V.N.%.N.V.V.V.V.V.V.N.N.V.V.&.%.N.%.#.%.B.B.H m : % m H E %.%.#.#.%.E J N.V.V.V.B.B.%.N.B.V.V.V.V.V.N.B.B.V.%.%.N.#.E Q E Q ",
"J %.V.N.%.%.%.#.#.#.%.B.#.P N.B.V.B.B.B.%.%.N.B.V.V.V.V.Q Q B.B.Q E %.N.#.#.%.V.N.H m = m H #.%.#.#.%.N.#.J %.V.V.B.B.B.%.%.N.B.V.V.V.B.#.%.B.B.Q E N.N.#.J E Q ",
"#.%.N.V.V.V.B.N.N.Q J J H #.V.B.N.N.B.V.V.V.V.N.N.B.B.V.V.V.V.C.V.V.V.V.B.&.B.V.C.B.*.0.J.C.B.N.N.%.P P J Q V.B.N.N.B.V.V.V.V.N.N.B.B.V.V.V.V.V.V.V.V.V.V.Q Q Q ",
"Q %.B.V.V.B.B.V.V.N.N.N.%.N.V.V.B.#.N.V.B.N.N.B.B.B.N.N.B.B.B.B.B.B.B.V.V.B.B.V.B.C.S.D.D.C.B.V.B.B.%.#.%.B.V.V.B.%.N.B.B.N.N.B.B.N.N.N.B.B.B.B.V.B.N.V.V.N.N.Q ",
"E Q B.B.N.N.B.V.V.V.V.C.V.V.V.V.V.#.#.%.#.#.#.V.V.%.%.#.#.#.#.%.%.#.#.B.V.B.B.V.B.B.V.B.N.N.B.C.V.V.C.V.V.V.V.V.B.#.#.%.%.E #.V.V.N.%.%.P #.%.%.%.#.W B.V.B.Q Q ",
"E Q N.N.V.V.N.%.N.B.V.V.V.V.B.N.%.%.#.#.#.%.B.V.B.P #.%.%.#.#.#.#.#.%.N.N.N.B.B.V.B.%.B.B.V.N.N.N.B.V.V.V.V.B.&.%.%.#.#.#.%.B.V.B.P #.#.%.%.%.P J P %.N.N.B.Q J ",
"E Q N.B.B.N.%.%.%.N.%.%.B.V.B.%.%.N.%.#.%.B.V.V.B.J P #.#.P P P H #.N.N.%.N.N.N.B.N.N.B.B.N.%.%.%.N.N.%.B.V.B.%.%.N.%.#.%.B.V.V.N.E P #.%.#.P P J J N.N.N.N.Q J ",
"E Q V.V.%.J #.N.B.%.#.#.%.B.B.B.B.C.V.B.V.V.B.V.B.#.P J P J P P E E B.B.N.N.N.B.N.B.V.V.N.J #.N.N.N.#.P %.V.B.B.B.V.V.N.V.V.B.V.B.#.P J J P P J J Q B.B.B.Q Q E ",
"E %.B.N.#.J H #.V.V.V.B.V.B.B.B.V.V.V.V.V.V.B.V.V.B.P J J J %.%.%.%.N.N.B.B.V.V.B.B.B.N.Q H J Q V.V.V.B.V.B.N.B.V.V.V.V.V.V.B.V.V.B.#.J J J #.%.Q Q N.N.B.B.N.Q ",
"E Q B.B.%.#.#.N.V.V.V.B.B.B.B.B.V.V.V.V.B.B.Q B.V.V.N.%.Q %.N.B.B.B.N.N.N.B.V.V.V.B.B.N.%.%.J %.V.V.B.B.V.B.N.V.V.V.V.V.V.N.%.B.V.V.N.#.#.%.N.B.B.B.B.N.N.V.Q Q ",
"J Q V.V.V.V.V.V.V.N.%.#.N.V.V.V.V.B.B.B.B.%.J B.B.V.V.V.V.V.V.V.V.V.V.N.%.N.B.B.N.B.V.V.V.V.V.B.V.N.N.#.%.V.V.V.V.B.N.B.N.%.Q N.B.V.V.V.V.V.V.V.V.V.V.B.N.N.Q J ",
"J J N.V.B.%.B.B.B.N.%.#.N.V.V.V.B.%.#.%.B.V.B.%.N.V.V.V.V.V.B.V.V.B.N.N.B.#.Q %.%.N.N.V.B.%.B.V.N.B.%.Q N.C.C.B.N.N.Q %.B.V.B.%.%.V.V.V.V.V.V.V.V.B.N.N.N.Q J G ",
"J Q B.V.N.Q N.B.V.N.%.E N.B.B.N.%.%.%.%.B.V.B.%.N.B.V.V.V.B.B.B.V.N.%.B.V.%.%.%.B.B.N.V.N.#.N.B.B.N.N.J N.B.V.N.%.N.%.%.V.B.N.Q N.V.V.V.V.N.N.V.B.B.N.B.B.N.J H ",
"J N.V.V.B.N.Q N.V.N.J Q #.#.Q Q %.B.V.V.B.P J B.B.B.B.V.V.%.%.B.B.V.V.V.V.B.V.V.B.V.V.V.B.%.#.B.V.N.J J Q %.#.J %.B.V.V.B.E E B.V.N.V.V.V.%.Q B.B.V.V.V.V.N.N.Q ",
"J Q B.B.N.%.N.N.N.N.Q E N.B.%.Q N.B.N.%.N.N.B.B.N.%.B.V.V.N.%.B.V.V.B.Q Q V.V.V.B.B.B.B.N.%.N.N.N.N.%.J N.B.N.Q B.B.N.%.N.N.N.B.%.%.B.V.V.N.%.B.V.V.B.Q Q V.N.N.",
"J Q N.N.N.N.B.B.N.B.B.%.N.V.V.B.B.B.%.Q N.V.V.N.%.P B.V.V.B.B.B.V.B.N.J Q V.V.B.N.%.N.&.N.N.V.B.N.B.B.%.B.V.V.B.B.B.%.Q N.B.V.N.#.%.N.V.V.B.N.V.V.B.N.E Q V.N.J ",
"J Q Q Q B.V.V.V.V.V.V.V.Q %.V.B.B.V.V.N.N.N.%.P P N.N.B.V.B.B.V.B.N.Q N.B.V.N.%.N.%.%.%.N.V.V.V.V.V.V.V.%.J V.B.N.V.V.N.N.N.%.E #.N.%.B.V.V.B.V.B.N.%.N.B.V.J J ",
"J J E Q %.V.B.B.V.V.V.N.%.Q V.V.V.V.B.B.B.B.%.J B.B.Q Q N.%.N.B.V.V.N.N.V.V.Q Q N.%.E #.%.V.B.B.V.V.B.N.Q %.V.V.V.V.B.B.V.B.%.E %.B.%.%.%.%.N.V.V.B.N.B.V.V.J F ",
"J J J J Q N.%.B.V.V.N.Q N.N.V.V.B.B.N.N.V.V.N.%.N.V.N.%.J J B.B.V.V.N.B.V.V.%.#.B.%.E J #.%.%.N.V.V.N.N.Q B.V.V.V.N.N.N.V.V.N.%.N.V.N.%.#.#.%.B.V.V.N.B.V.V.J H ",
"Q J J J Q J Q N.B.V.N.N.N.N.B.%.#.#.Q %.V.V.B.B.N.B.V.B.B.V.B.N.E E V.V.V.N.V.V.V.%.J E E #.%.N.B.V.B.N.Q N.B.%.#.#.#.%.V.V.B.N.N.V.V.V.N.V.V.%.E Q V.V.V.N.Q J ",
"H H J J J J Q Q Q J Q Q Q Q Q Q #.E Q #.%.%.%.N.%.%.B.N.%.B.N.J H H %.Q J J %.N.%.E H E E #.E Q Q J J Q Q Q Q Q #.Q E %.%.%.%.N.%.%.N.%.#.%.%.%.H H Q Q J J J J ",
"F G J J Q Q J H H G H J J J H J #.E %.Q H H J %.#.J J J J J J Q H H J H F H H J E J J J #.E E H J G J J J J J J #.Q #.#.H H J %.Q J J J E J #.#.H H J H F H F F "
};
