/* XPM */
static char *Group_10_5__resized[] = {
/* columns rows colors chars-per-pixel */
"80 80 212 2 ",
"   c #16083D",
".  c #2F5216",
"X  c #345E19",
"o  c #37631B",
"O  c #39661C",
"+  c #3D6D1D",
"@  c #3F711F",
"#  c #2E4B2E",
"$  c #314E2E",
"%  c #325422",
"&  c #355C22",
"*  c #3A5F27",
"=  c #32522D",
"-  c #36592A",
";  c #3A5D2C",
":  c #2E4635",
">  c #2F4A35",
",  c #2E443C",
"<  c #314B35",
"1  c #314738",
"2  c #334D3B",
"3  c #355433",
"4  c #385734",
"5  c #375933",
"6  c #3A5C34",
"7  c #35523A",
"8  c #39543A",
"9  c #39593A",
"0  c #376121",
"q  c #3A6423",
"w  c #3D6B23",
"e  c #3D642B",
"r  c #3F692A",
"t  c #3F7220",
"y  c #3E6332",
"u  c #41751F",
"i  c #43781F",
"p  c #406F25",
"a  c #40672F",
"s  c #416B2B",
"d  c #417620",
"f  c #457C21",
"g  c #427029",
"h  c #406632",
"j  c #1A0F43",
"k  c #1E1648",
"l  c #221D4D",
"z  c #201D50",
"x  c #25224F",
"c  c #2C3B47",
"v  c #252254",
"b  c #262659",
"n  c #2A2A5C",
"m  c #2F3A56",
"M  c #303B52",
"N  c #292C61",
"B  c #2C3062",
"V  c #323767",
"C  c #343B6D",
"Z  c #353D71",
"A  c #2E4243",
"S  c #344B42",
"D  c #354B47",
"F  c #31444C",
"G  c #344B4A",
"H  c #375143",
"J  c #395347",
"K  c #395248",
"L  c #354554",
"P  c #364B54",
"I  c #374957",
"U  c #364A5B",
"Y  c #384C5D",
"T  c #395253",
"R  c #3A545A",
"E  c #3D585E",
"W  c #354564",
"Q  c #374867",
"!  c #394B64",
"~  c #38476E",
"^  c #394A6E",
"/  c #3C5164",
"(  c #3E5568",
")  c #374275",
"_  c #3A4575",
"`  c #3A4A73",
"'  c #3B467D",
"]  c #3D4C7B",
"[  c #3F517E",
"{  c #40566C",
"}  c #435377",
"|  c #436267",
" . c #478022",
".. c #498423",
"X. c #4C8A24",
"o. c #3E4D81",
"O. c #425484",
"+. c #455A86",
"@. c #44568A",
"#. c #465B8B",
"$. c #485E8C",
"%. c #475B91",
"&. c #495F91",
"*. c #4A628C",
"=. c #4E6B8B",
"-. c #4B6295",
";. c #4F6B92",
":. c #4D649E",
">. c #51679F",
",. c #506C9B",
"<. c #537495",
"1. c #537399",
"2. c #4E66A1",
"3. c #4F68A3",
"4. c #5067A3",
"5. c #516AA5",
"6. c #526CA9",
"7. c #5472A3",
"8. c #5C7EA4",
"9. c #5674AD",
"0. c #5876AF",
"q. c #5A79AF",
"w. c #5773B1",
"e. c #5976B2",
"r. c #5B7BB4",
"t. c #5D7DBA",
"y. c #5B849B",
"u. c #5C83A9",
"i. c #5F81B6",
"p. c #5E80BC",
"a. c #7A91AD",
"s. c #6389B7",
"d. c #6083BC",
"f. c #6994BB",
"g. c #6184C2",
"h. c #6489C5",
"j. c #668BCA",
"k. c #688ECD",
"l. c #6A94C4",
"z. c #6D9CC3",
"x. c #6991CE",
"c. c #6C9BCC",
"v. c #6C94D3",
"b. c #6E9AD6",
"n. c #6E97D8",
"m. c #6F9BD9",
"M. c #709FD7",
"N. c #719EDB",
"B. c #6FA1C3",
"V. c #73A7C9",
"C. c #75ABCB",
"Z. c #72A3D4",
"A. c #74ABD4",
"S. c #73A1DE",
"D. c #7CB6D3",
"F. c #7CBAD7",
"G. c #75A4E2",
"H. c #77A8E4",
"J. c #78AAE6",
"K. c #7AACE9",
"L. c #7DB5E7",
"P. c #7DB3ED",
"I. c #7FB6F1",
"U. c #7FB8F1",
"Y. c #87B3CC",
"T. c #81BBEE",
"R. c #80B7F4",
"E. c #82BBF4",
"W. c #84BEF8",
"Q. c #85C1D5",
"!. c #87C7E6",
"~. c #8ACCE5",
"^. c #8BCCEC",
"/. c #8ED3EA",
"(. c #93DBED",
"). c #96DBEC",
"_. c #86C5F4",
"`. c #89C6F3",
"'. c #89CAF6",
"]. c #86C3FD",
"[. c #88C6FF",
"{. c #8ACAFF",
"}. c #8DD4F2",
"|. c #8FD3FE",
" X c #90D6FF",
".X c #93DCFE",
"XX c #AEDFEA",
"oX c #B8DAE4",
"OX c #95E3F5",
"+X c #9BE9F4",
"@X c #96E2FF",
"#X c #99E6FE",
"$X c #97EAFC",
"%X c #9BECFE",
"&X c #9EF1FF",
"*X c #AEE2EE",
"=X c #A2E8F4",
"-X c #A2EEFE",
";X c #A2F3FE",
":X c #AAF3FE",
">X c #A5F9FF",
",X c #ACFCFE",
"<X c #B3F6FF",
"1X c #BCF7FD",
"2X c #B3FAFD",
"3X c #BCFCFF",
"4X c #C0EBF1",
"5X c #C3FCFE",
"6X c #CCFDFE",
"7X c #D2FFFF",
"8X c #DCFFFF",
"9X c #E2FFFF",
/* pixels */
". o u + + u u u u + + u u u i u @ i i i @ + @  .i i i i @ + + @ @ u i @ @ f u + O + @ @ + @ @ @ u @ + u i i i @ @ i i @ + + @ i i u i u u + + u + u d @ u i O X ",
"O + u u d f @ + u @ @ f i i u u @ t @ @ @ @ @ i @ @ @ @ @ d d f f i u + @ i  .f d u @ u u i @ @ @ @ @ i d d u @ @ i i @ @ @ u i u u u + + u f f f f u + u i u + ",
"i i u i f f u u u u i  .f f f u t f @ @ @ f f d t t @ + d  .X.X.X. .u @ @  ...X.X. .d f  .i @ @ @ i i  .f f f d d d @ @ @ d f d u u p u u ....X...f u + u f i i ",
"u i ..X...f i d i u u  .....X.X... .t @ i ..X. . . . ..... . .........i i  . . . .....X... .i i i u i  . .X.X.X.X. .@ @  . .X.X. . .i ....f ..........f i ..i u ",
"u u f ........f  .f f ..X.X.X.....X. . .X.X.X.X.X.X.X.X... . . .f f ....f  . ... . . . .X.X. . . .i  . .X.X.X...X.X. . .X.X.X.X...X.X.X...f f f f f ....f f i u ",
"u u u u ..X.X.X..... ...X.X.f f  .X.X.X.X.X.X.X.X.X.X.X...d d f t t ..X...f  .X...f @ d f X.X.X...X. ...X.X.f f  .X.X.X.X.X.X.X.X.X.X.X...f f d u d ..X...f d d ",
"+ u u i f f f f f d d d d f ....X. . .f d  . ... .X.X.....i d d + @ f X.X.f i d  .i @ f  .f f  .i f d d d f  .X. .X. .d f f  . .X.X.X.X...f d f + u f X.X.f u O ",
"+ + u i f i d u @ @ t t @ u f .... .f f d d d d  .X.X.X.X. . . .f f ..X.X.d @ u f d d  .f @ t t @ @ @ @ @ @ f .. . .f f d d f d f ..X.X.....f ..f i ....X.d O o ",
"+ @ i  . .@ @ @ @ @ @ @ t @ @ d  . ...X.X.i i @ d ..X.X.X.X.X.X.......X...t t  .f d f  .f t t t @ t @ @ @ @ t d  . .X.X. . .@ @ f ..X.X.X.X.X.X.....X.X...u + + ",
"+ @ @ f f d @ @ @ u u @ d f f  .X. .X.X.X.X.f  .X.X.X.X.........f u d ..........f d d f f d t @ @ @ @ @ t f d  .X. .X.X.X.X. . .X.X.X.X.........f d d ....f f u ",
"@ @ i  . . .t @ d f f d  . . .X.X. .X.X.X. ...X.X.X.X.X.f  .....d O + f X.....X...d d  .....d t f f f t  . ...X.X. .X.X.X. . .X.X.X.X...f f ....d O + f X...i i ",
"i @ d X.X.X. .d  ...X.X. . .X.X.X. .X.X.f  .X. . .X.X...t  .X.X.d + t ....f f X.X. .d ..X.X. .d  .X.X.X.X. .X.X.X. .X.X.f  .X. ...X.X...u ..X.X.d + @ ..X.d u u ",
"@ @ i  .X.X.X. .t f ..X. . .X. .f X.X.....X.X...X.X.X.X. ...X.X.......X.X.f f .. .f d  .X.X.X. .@ d ..X. .f X. .f X.X.X.X.X.X. ...X.X.....X.X.X...f ..X.X.f u u ",
"+ @ i i  .X.X...u t f X. . ... .i X. .f X.X.X... .X.X.X.X.X.X...f f ..f f f d d t t t t f  ...d + + f X. .f .. .f  . . .X.X.X. .....X.X.X.X.X.....X.X.X...f d u ",
"u i ..X.X.X. ...X. .f X. . . .X.X...d t f X.X.d d f  .X.X.X...t 0 & & X & 0 0 q 0 0 0 0 q q 0 0 0 q t .. . . .X.X. .t @ f X.X.d d f ......X.....f f ..f ....f i ",
"@ i X. .X.X.X...X.X... .......X.X.d @ w d f f t t d f f f ..t 0 2 c c , , A S 2 S A S S S S A G G 3 w  .......X.X.i @ @ t f  .@ d d f f f ..............X.....i ",
"u i ..i f X.....X.X...f f  ...X.X.f u i u i d d f f t t q t w 9 / ] ] _ ` ` ^ _ ~ ~ ~ ~ ~ _ _ o.] T 5 t f  ...X.X.d i u u i d d f f f f d f ..X.X.X.X.....X...u ",
"i i d u u f f ....d @ @ @ d ..X.X.....i f  .X.X... .w & % % y | u.l.h.t.r.r.e.9.6.5.5.5.5.6.w.e.e.*.R # & t ..X.X.....i  . .X.X...X...X.X.X.X.X.X.X.X.i d ..f i ",
"u i ..u u u d f f d d f t @  .X.X.X.....i f ..X...t 5 D F L ( y.D./.!.K.J.K.H.N.x.j.h.j.j.k.v.n.n.r.#.I < o f X.X.X... .f f ..X.X.X.X.........X. .i ..i u d i i ",
"@ i ....f f f f d d f  .d @  .X.X...X...f f  ...t y ( O.%.o.7.A.(.;X#X X{. X'.W.K.G.G.J.G.G.G.H.J.v.r.#.L $ d ..X...X...f f  .X.X.X.X...d f ....i u f  .d u u i ",
"d f ....X.X..... .d u @ w d X... . . .X.X.X.X.+ = R <.f.Z.c.A.!.$X&X&X@X@X#X.X{.W.I.R.R.I.J.G.G.J.G.v.r.@.P - w f ....X.X.X.X. . .....X.X.X.X.X.X.X.X.X...f f i ",
"i f ..X.X...........f f f ..X.X...d  .X.X.f w = R 1.C.~.(./.(.#X&X&X&X&X%X-X#X X{.[.[.].U.J.G.S.G.H.G.n.r.#.T 5 w d ...... .f .... ... .......X.X.....X.X...i i ",
"u i ............X.X.X.X.X.X.X.X...u f f t 0 = P <.A.}.;X,X2X2X,X:X;X;X:X;X;X#X.X X|.{.{.W.I.H.m.m.H.H.H.N.t.#.R 5 O d f f u i X.X. .f f t d f f i u u ..X...i i ",
"i i f ....X... . .X.X.X.X.X... .d f d @ o # I =.B./.@X&X,X3X3X5X1X1X3X1X2X;X%X@X@X X|.{.[.U.P.H.m.N.S.G.G.v.e.+.T = o u u d ..X. .u d d f f d d u u f ......i u ",
"u i f .... . .f f  .f d ..X...f f  .d q = R ;.z./.%X&X;X<X5X7X7X6X6X6X5X<X-X-X@X$X@X|.{.[.[.U.I.G.S.m.S.H.G.x.t.$.P 3 w @ ..X.X. .@ @ d f d @ t @ u  . . . .i @ ",
"@ f X.X.f @ d  . . .d t  .X. ..... .t 6 E <.A.}.%X,X:X<X5X7X8X9X8X7X6X5X:X-X%X#X%X$X|.[.[.{.]._.I.G.S.N.G.H.G.n.t.@.P 5 d ....X...i d + @ @ @ @ @ @ .... . .i @ ",
"u f ....i + @ i X.X.X....... .X...w 7 R <.C./.$X;X:X1X5X7X7X8X9X8X6X3X:X%X#X%X%X%X@X|.{.[.[.[.[.W.I.G.N.N.S.G.G.n.e.+.Y 5 t ..X.X...u + + d d f i i  . ..... .i ",
"u i .... .f @ i X.X.X.X.X... .X. .0 , ] f.~.&X&X;X:X3X5X6X4XoXoXoXXX=X#X#X#X%X%X%X@X X[.[.[.[.[.[.W.P.G.S.N.S.H.H.x.e.$.T 5 d f ..X. .i d f  .....X. . . .X. .@ ",
"u i X.X.X.X...X.X. .f i f X.X.X.f & c ' l.(.,X>X;X,X3X1X*XY.a.a.a.V.~.OX&X$X%X%X#X@X|.[.].[.[.{.{.[.W.P.J.S.S.J.H.G.n.p.*.T 3 q i X.X.X.X.X.X.X.X.X.X... . .i @ ",
"+ u  .X...i ..X... . .d  .X.X.X.d % A [ l./.>X>X;X;X,X=XY.u.} C } 8.D.OX>X&X%X%X%X@X|.[.].[.[.[.[.{.[._.P.J.N.N.G.H.H.n.r.#.U $ w X.X.X.X.X.X.X.X...i  . .f @ + ",
"+ u ..X...i  ..... .d d f .. .d r 7 ( <.C.(.&X>X&X#XOXF.u.] N N } q.F.OX>X&X&X%X%X@X|.[.].].[.[.[.{.{.[.U.K.m.n.m.G.J.J.k.5.] , 0 X.X.X.X. ......... ...X.i @ @ ",
"u ..X.X...i i ..X. .d d d i O % 7 | y.C./.OX;X>X%X'.A.u._ n N ] i.Y./.$X;X%X%X&X&X@X|.[.].].[.[.[.{.{.[.W.K.S.m.m.G.K.J.k.6.] 7 q ..X.X.X.i i ..X.X.X.X.X. . .i ",
"@ i .... . . . . . . .@  .f o > U 8.D.).-X&X$X@X`.n.9.Z z l ~ y.Q.+X&X&X$X%X%X%X%X.X X[.[.[.].[.[.[.{.{.E.K.S.m.M.G.J.H.j.3._ 2 0 f ..X.X.f f ..X.X...f f X. .i ",
"@ i  . . . .X. . .X. .d .. .q A _ f.^.,X,X&X.X_.m.4.o.v   k _ f.).,X>X&X$X%X#X#X.X X{.{.].[.[.[.[.[.{.[.U.J.M.m.m.G.H.S.g.2.^ < & f ....X.......X... .u @ X. .@ ",
"@ @ f f  .X.X.X.X.X.X.X.f @ q 1 Q s.!.;X,X-X'.M.9._ V v j l _ f.).,X>X&X%X&X%X@X X{.[.[.[.].[.[.[.[.{.[.E.J.S.m.S.G.J.G.g.:.~ : o f f ..X.....X... .i ..X.X.d @ ",
"@ @ i @ i X. .X.X.X.X. .f t q : Q s.!.#X#X!.c.6._ b v v b Z ,.C.(.>X&X&X#X#X@X X[.[.[.[.[.[.[.[.[.{.{.[.U.J.S.m.m.G.J.G.h.2.~ > q ..f f ..f  .X.X...f ..X.X.@ O ",
"@ @ @ @ t  . . .X.X. .i f d w > ! s.L.|._.c.:.' N k k n ] 1.B.!.#X;X;X%X#X@X X{.W.[.W.[.[.[.[.[.[.{.{.[.U.J.m.m.N.G.H.G.h.2.~ 1 w .. .i f f f X.X.X.....X...@ O ",
"i u @ u @ @  . .X. .X. . .d w : W i.L._.Z.7.) V N b v Z <.C.(.$X%X%X&X%X@X|.{.[.[.[.[.[.[.[.[.[.[.{.{.[.E.J.S.m.N.S.H.G.h.2.~ 1 q ..X.X.f ....f u i X.X.X... .@ ",
"u i i i  . . . . . . . . .f o : Q d.P._.S.i.#.#.%.$.@.,.B./.;X>X&X$X#X@X|.{.[.].[.[.[.[.[.[.[.[.[.{.{.[.U.J.S.m.N.G.H.G.h.:.^ 7 q ..............u u X...i i i i ",
"@ i .... .X. . .i f i  . .f 0 : Q r.P.{.W.M.p.h.x.c.z.C./.+X>X,X;X#X@X|.{.[.].].[.[.[.[.[.[.[.[.[.{.{.[.E.J.m.m.m.G.J.G.h.:.~ 7 w ............X.i i ..i u i i @ ",
"o u ..............f f X.X. .w > ! 0.G.[.{.].T.I.E.`.}.OX+X%X%X;X#X.X X{.[.[.[.[.[.[.[.[.[.[.[.[.[.{.{.[.E.J.N.m.N.G.J.G.h.:._ 2 O ..X.....f f ......X.f ..X.i u ",
"+ u f f f ..f i f d f ....d q 1 W :.h.Z.A.L.J.N.H.`..X;X>X-X#X#X@X X{.[.W.[.[.[.[.[.[.[.[.[.[.[.[.{.{.[.E.K.N.m.m.G.H.S.h.:.^ 2 * u f f d ........X.f d f ..f u ",
"i u u i  .f u + u u f f f d 0 2 W $.2.6.0.0.9.5.r.c.`.#X;X#X.X.X|.{.{.].W.[.[.[.[.[.[.[.[.[.[.[.[.{.{.{.E.K.N.m.N.G.H.G.h.:.~ : X u p u d ..X...X.f d u u f i i ",
"@ i ..X... .u u f u u f .. .w J W ' ' Z ) ) C B Z &.l.T.`.T.T.E.].[.[.[.[.[.[.[.[.[.[.[.[.[.[.[.[.{.'.].U.J.S.m.N.G.K.G.j.:.^ 2 p i i ....f ......X.f i i f i u ",
"@ d f ....X... ...f f ..X...r K _ ' C n x x k   l Z &.e.g.t.h.S.E.{.{.{.[.[.[.[.[.[.[.[.[.[.[.{.{.{._.I.K.G.m.n.N.G.K.H.k.3._ 2 q ..X.X.X.f f f f f ..f f f i u ",
"u u u d  .X.X.X....... .X.f 0 H { ' C n x x x x l N Z O.O.O.-.h.T.{.{.{.[.[.[.[.[.[.[.[.[.[.{.{.{.].I.J.G.N.N.N.S.G.P.K.k.6._ 2 p ..X.X...f f d u u ..X.X.i i i ",
"+ @ u d f f f f f d u u f d p 6 M V V B C Z ` ] _ } O.O.O.o.>.l.T.{. X{.[.[.[.[.[.[.[.[.[.{.[.[.].I.J.m.N.N.S.G.G.G.S.v.r.#.U 5 p ..X.X...d i i p u f X.X.i u O ",
"+ + d ..f u u u @ @ u u @ p u s ; A m C @.>.q.u.s.d.r.r.0.6.d.N.E.|.{.{.[.[.[.[.[.[.[.[.[.{.[.W.I.J.G.m.n.n.S.H.J.N.k.e.$.( J - u ..X.X.X.....i i d X.X...u O o ",
"+ + u i f u + @ @ @ @ @ @ @ + d d = F _ >.h.N.K.T.T.R.T.T.T.T.W.[.{.{.[.[.[.[.[.[.[.[.[.{.{.].I.J.S.m.N.N.N.S.K.G.v.e.$.! K 4 & p ..X.X.X.X.X.X.....X.X...u O p ",
"+ u i i f u u + + @ d + u d d  .i p 8 { -.t.G.R.{.|.{.].{.|.`.{.{.[.{.{.{.{.[.{.{.{.{.{.[.].P.J.S.b.b.N.H.G.G.G.v.9.+.! D 4 a d ..X.X.X.......X.i i f f X...d i ",
"u u i  .....u u d f f f f  ...X.X.i a J } ,.d.S.E.`.E.E.W.|. X|.{.{.[.{.{.{.{.{.[.{.{.{._.I.J.S.N.b.n.S.G.K.S.k.e.O.Y H 4 ; s d ..X.X...i i ....d + u f X.f f i ",
"u u i X.X.X.f f ....X.X. ...X.X.X.i g a H ! #.9.v.J.S.S.T.W.[.W.[.].].[.].].].].].{.[.].I.J.N.N.N.S.S.S.G.G.x.e.#.L H h e a a p f X.X...i ..X.X.d O u ..X.i u u ",
"+ u i ..X.X.X...d d ..X. . .X. .i f g a 4 D { @.9.k.n.J.R.W.W.W.E.U.I.I.I.R.R.R.P.E.E.P.J.S.N.S.H.K.K.J.S.x.9.+.! S 6 a p s g f f X.X.X.....X.X.f f ..X.X.f u u ",
"O u i i ..X.X...u t  .X. . ... .i i g a a 6 2 Y +.9.j.N.T.R.J.T.J.G.J.J.J.H.G.K.K.J.J.H.G.S.N.N.G.K.K.H.x.w.+.! H 6 ; ; p f f f ....X.X.X.X.X...X.X.X.X.X.f d d ",
"u i i ..X.X.....X. . ... . . .X.X.i q * a s h 1 L O.9.j.k.v.k.n.N.G.N.S.S.S.S.S.N.N.S.N.S.S.S.b.v.v.v.k.e.+.L S y s * * p f X.f u f ..X.X.X.X...f f f f f ..f d ",
"u i X.....X.X...X.X... .......X.f u p X q * ; $ S { $.6.w.6.e.j.N.K.G.H.J.G.G.G.H.G.H.H.K.K.S.x.r.w.w.9.$./ S 6 a e * X p d f d u f f f i f ......f X.X.X.X.f f ",
"u f X.d f X.......X. .f  . .X.X...f u u q * * ; 4 K { } O.} &.t.v.K.H.G.S.G.G.S.S.G.S.G.G.K.b.r.&.O.O.} { H y a a * w p u i i i f f f f f f ..X.X.X.X.X.X.X. .i ",
"u i d @ d  .f f ..d t @ @ d ..X.X...f f u p p g s 9 H M M M { *.t.k.k.j.g.h.h.g.h.h.h.h.k.x.r.-.! M M M , 4 s s s u d f i  .....X.......X.X.X.X.X.X.X. .u .. .i ",
"u i f d d d f f f d d f t @ f X.X.X.....i d p g a h 8 8 1 1 K { -.4.4.3.2.2.3.2.:.:.2.4.6.6.&.{ G 1 1 < < 4 a p d f ....f f ..X.X.X.X...........i f ..i u i i i ",
"@ f X. .f f f d d d f ..d t  ...X...X...f i d g s h h * ; ; 6 T ( O.o.] ] ] ] ] ] ] ] } O.' ^ K 8 ; ; ; 4 ; s g f ..X...f f ..X.X.X.X...d f ....i u i  .i @ u i ",
"i f ..X.X....... .d u @ @ i X...f f ..X.X.X.X.d p s s a g g a 8 P L L L L L G L L L L L L L G 8 y * ; - - * d f f f ..X.X.X.X.f ......X.X.X.X.X.X.X.X.X.X.i i i ",
"u f ....X.....X.X...f f f  .X.X...f ........f f f p p s a a a 6 4 7 7 8 8 7 8 9 8 8 8 4 8 8 8 ; a a a * s p f ....f ..X.....f ........f ..............X.X...i i ",
"u i X... .....X.X.X.X.X.X.X.X.X...i d f f d d X.f u O ; = - ; ; * * * s s s s s a a a a a a s s s a s a g ..X.X...i d f f u i X...f f d d d d f f u i ..X. .i i ",
"i i i ..X.X. .f  ...X.X.X.X.X.f f f d u d f ..X...u O p p p O p O p p d d d d g f d d d d f u p p p p d f ..X.f f f d u d f ..X...u d f f f d d u u f ......i @ ",
"u i ........f f f f f f ..X...f f ..f d d  .X.X. .@ @ @ w + + + + + f f f f f f f f f .. .f f d d d d t f ......f  . .d f ..X.X...@ u d d d d @ @ @ .. . . .i @ ",
"u i X...f @ d f .. .d d ..........X.....X.X.X.X...d @ @ @ @ t t @ u ......f ............f @ t  . . .d t  .X.f ....X.....X.X.X.X...d u @ @ @ @ t @ i .. . . .i u ",
"u f ....i @ + d X.X.............X.X.X.X.X.X.....X...d @ @ @ d f f f f ......X.X.........i + + i X.X.X...X...f X.X.X.X.X.X.X.........d @ @ @ f f i i  . ...X.i i ",
"u i ....f d u  .X.X.X.X.........X.X.X.X.X. . .X.X.X. .d f  . . .......f ......X......... .f @ f X.X.X.....X.f X.X.X.X.X.X. .f ..X.X. .d i  . . ....... . ... .i ",
"@ i X.X.X.X.X.X.X. .f d  .X.X.X.X.........f d  . .X.X.X.X.X.X.X.X.X.X...f f ..........X.X.X...X.....f d f X.X.X.X..... ...f u ..X.X.X.X.X.X.X.X.X.X.X. . . .i @ ",
"@ i  .X...f ...... .f d  .X.X.X...f d f ..X. .f  .X.X.X.X.X.X.X.X...f ....f u f f .. .X...f ..X.....f d ..X.X.X. . .i f ..X...i f X.X.X.X.X.X.X.X. . . . .i @ + ",
"@ i  .X. .i  ...X. .f i f .... .f f f f X.X. .f  .X.X.X.X. . . .X...f ..X.f f f ......X...u  .......f d f X...f f  .f f ..X. .i  ...X.X.X. . .X.X. .i X.X.i @ + ",
"@  .X.X. . .i  .X.f u i i d i i f ..X.X. .d @ ..X. .X.X.X.f i X...X.X.X.X...X.X.....X.X...f i ..X.f d d d d d f i ..X.X...u u X.X. .X.X.X.f i  .X.X.X.X.X... .@ ",
"@ i X... .f  ... . .i u  ...f f ......i  . . ...f f X.X.X. .f  .X.X...i i X.X.X...........f f f .. .f d  ...f i .... .i ..f .... .f  .X.X. .f  .X.X. .i  ..... .",
"@ i i  . . .....f ....f  .X.X.....X.f u  .X.X. .d d  .X.X. . .X.X.X.i i i X.X.X.f f f ..f ..X...f ....d  .X.X.....X.f i f ..X.f t f  .X.X... .X.X.X. .i @ X. .@ ",
"@ u i  ...X.X.X.X.X.X.X.f i X............. .f d f  . . .X. .X.X... .i  ...X. .f ..f f f ..X.X.X.X.X.X.X.d f X... .X.X.......f d i  . . .X... .X... . . .X.X.@ + ",
"@ @ u i f X.....X.X.X. .i f X.X.X.X.........f @ f  . .i  .i  .X.X.X. . .X.X.f @ ..f u u f ......X.X.X. .f f X.X.X.X.........f i f X.f f  .f  .X.X... . .X.X.@ O ",
"@ @ @ @ i i f ..X.X...i i  .X.X..... ...X.X. .f  ... .f f d  .X.X.......X...f f ..f u u d f f ..X.X. .i i ..X.X.........X... .i  ... .d i i  ...X.X. ...X.X.@ + ",
"i u @ u @ i i  . .X... . . ...f i d i i X.X.X. . .X.X.X. ... .f u i X.X.X.....X.X.i u u d u f .. .X... .f  ...f d d u f X.X..... .X.X.X. ..... .u i X.X.X...i @ ",
"+ + @ @ i @ i i i @ i i i i i i u u u f f f f  . .f  . .f  . .f + + f f u @ f f f u + u d u u i i @ i i i i i i i u i f f f f  .f  . . .f f  .d + + i i @ @ @ @ ",
"o O @ @ i u @ @ + + + @ @ @ + @ f u f u + + @ d i @ @ @ @ @ @ @ + + u O O O + u u + + u u u u + + + + @ u @ + @ d i i d + + @ d d @ @ @ @ @ d i + + @ + O O O o "
};
