/* XPM */
static char *Group_10_19__resized[] = {
/* columns rows colors chars-per-pixel */
"80 80 232 2 ",
"   c #1C1C15",
".  c #1A171A",
"X  c #1E1B19",
"o  c #25190C",
"O  c #221D1B",
"+  c #271C18",
"@  c #18230D",
"#  c #1D2314",
"$  c #1E2B16",
"%  c #36200D",
"&  c #212515",
"*  c #232C15",
"=  c #232319",
"-  c #2A231E",
";  c #2A2B1A",
":  c #332619",
">  c #253416",
",  c #263B16",
"<  c #2A3C16",
"1  c #29361A",
"2  c #273918",
"3  c #293C18",
"4  c #333719",
"5  c #1D1820",
"6  c #241A22",
"7  c #2B1C22",
"8  c #2C2323",
"9  c #2D2825",
"0  c #362825",
"q  c #34262A",
"w  c #342A2D",
"e  c #3D2D2D",
"r  c #353525",
"t  c #3C2F31",
"y  c #3E3132",
"u  c #3B313D",
"i  c #421B0E",
"p  c #47281A",
"a  c #562814",
"s  c #473716",
"d  c #4D3013",
"f  c #433C1C",
"g  c #6A2E10",
"h  c #683A14",
"j  c #793813",
"k  c #492C26",
"l  c #412D2B",
"z  c #552D22",
"x  c #493E20",
"c  c #41302F",
"v  c #4B322B",
"b  c #52332B",
"n  c #5A362B",
"m  c #402E39",
"M  c #443231",
"N  c #463436",
"B  c #4B3A36",
"V  c #4D3C3C",
"C  c #583B31",
"Z  c #523E3C",
"A  c #653A2D",
"S  c #783D2A",
"D  c #643D32",
"F  c #6A3F33",
"G  c #294416",
"H  c #2D4319",
"J  c #2D4B19",
"K  c #39471A",
"L  c #314D1A",
"P  c #2D5318",
"I  c #32531A",
"U  c #3A5419",
"Y  c #355B1A",
"T  c #3A5C1B",
"R  c #36621B",
"E  c #39651C",
"W  c #3C6D1D",
"Q  c #3F711F",
"!  c #324A21",
"~  c #3C582C",
"^  c #3B6722",
"/  c #3F7220",
"(  c #484717",
")  c #574714",
"_  c #46571A",
"`  c #674917",
"'  c #635118",
"]  c #43651B",
"[  c #4C651B",
"{  c #446C1D",
"}  c #4B6C1D",
"|  c #536C1D",
" . c #41751F",
".. c #4B731F",
"X. c #43781F",
"o. c #56731D",
"O. c #65751F",
"+. c #68701C",
"@. c #4D462A",
"#. c #4C4336",
"$. c #5B4F34",
"%. c #564739",
"&. c #59433D",
"*. c #6B4625",
"=. c #7D482C",
"-. c #715425",
";. c #684736",
":. c #7D4332",
">. c #774B32",
",. c #61543D",
"<. c #795439",
"1. c #427620",
"2. c #4C7620",
"3. c #457C21",
"4. c #4A7D22",
"5. c #4A782A",
"6. c #547521",
"7. c #5C7621",
"8. c #527A21",
"9. c #5B7C22",
"0. c #4F6E31",
"q. c #697722",
"w. c #787622",
"e. c #727B23",
"r. c #6E6C33",
"t. c #513E44",
"y. c #4E404A",
"u. c #5A4643",
"i. c #554548",
"p. c #614C48",
"a. c #675846",
"s. c #66514B",
"d. c #6A554D",
"f. c #785747",
"g. c #6B5751",
"h. c #715B52",
"j. c #5F6A43",
"k. c #7C694B",
"l. c #766156",
"z. c #7A6559",
"x. c #8D2E0F",
"c. c #853815",
"v. c #8C7919",
"b. c #894E2F",
"n. c #864A33",
"m. c #875837",
"M. c #945334",
"N. c #9B5236",
"B. c #9C5D33",
"V. c #A35B37",
"C. c #9B652E",
"Z. c #847C23",
"A. c #8B6339",
"S. c #996837",
"D. c #B5712F",
"F. c #AC6535",
"G. c #A66835",
"H. c #A57237",
"J. c #AD7636",
"K. c #B67B38",
"L. c #876849",
"P. c #956D46",
"I. c #88794B",
"U. c #9A7447",
"Y. c #826D5E",
"T. c #827A54",
"R. c #937650",
"E. c #A47043",
"W. c #867263",
"Q. c #8D7969",
"!. c #917D6B",
"~. c #478122",
"^. c #498423",
"/. c #4C8A24",
"(. c #4C832A",
"). c #4E8928",
"_. c #548223",
"`. c #548729",
"'. c #568634",
"]. c #678425",
"[. c #778727",
"{. c #678E38",
"}. c #6D8D49",
"|. c #8A8428",
" X c #968A28",
".X c #8B8B34",
"XX c #999537",
"oX c #A68A27",
"OX c #A6952C",
"+X c #AF972D",
"@X c #B7962C",
"#X c #BD8A3D",
"$X c #ABAA38",
"%X c #C8921C",
"&X c #C49B2E",
"*X c #C78636",
"=X c #CF9238",
"-X c #EC9E32",
";X c #C8AA2F",
":X c #C7A530",
">X c #D4A833",
",X c #D9B73A",
"<X c #E5C63B",
"1X c #948E56",
"2X c #A8844A",
"3X c #B68C45",
"4X c #BB9048",
"5X c #AEA750",
"6X c #A49F63",
"7X c #B7AE66",
"8X c #BFB864",
"9X c #BAB577",
"0X c #C79A45",
"qX c #E8AC45",
"wX c #CEB768",
"eX c #D2C54C",
"rX c #ECD54F",
"tX c #E1DE4D",
"yX c #F9DC48",
"uX c #E6C659",
"iX c #C8C56D",
"pX c #DBD97B",
"aX c #E9D66D",
"sX c #F7EF6C",
"dX c #CECA87",
"fX c #F5EC91",
"gX c #F5F5A8",
"hX c #F1F3B2",
"jX c #F7F7C7",
"kX c #FDFFD6",
"lX c #FFFFEB",
"zX c #FFFFF5",
/* pixels */
"P R  .W Q Q Q Q Q Q Q Q X.X. .Q Q Q X. .Q W Q 3.X.X.X.X.Q W W W Q 1.1.Q Q 3. .W R W ..9..X1X_.W Q W W X.X.X.X.Q Q Q X.Q W W Q X.1. .X. .Q W W W Q  .1.Q  .X.W Y ",
"E W  . .X.1.Q Q Q Q Q X.X.X.X.Q / 1.1.Q W Q X.1.Q Q Q Q Q 1.3.3.3.1. .Q Q X.3.3.X.W [ v.D. Xo.W Q Q Q X.X.X...Q Q X.X.Q Q Q X.X./ Q Q Q Q 1.3.3.3.1. .Q Q 3. .W ",
"X.X. .X.~.3.Q Q Q Q X.~.~.1.3.X./ 3./ / Q X.3.1./ / W / 1.~./././.~. .Q  .3./././...+.%X%Xv.o.W Q Q ~.~.~.X.X.X.X.X.Q Q Q X.X.X.1./ W Q 1.^./././.~. .Q  .3.X.X.",
" .X.^./.^.~. . .X.X.X.^.^./././.^.~./ / 3.^./.^.~.~.^.~.^.~.^.^.^.^.~.1. .~.~.~.~.].@X<X;X|.o.Q X.X.Q ~.^././.^.^.^.Q Q ~.^./.^.~.~.~.^.~.~.^.^.^.^.~.X.X.~.X.Q ",
"{ X.~.~.^./.^.~.~.3.3.~./././.^.^.^.~.~./././././.^./././.3.3.~.3.3./.~.3.~.~.~.~.[.&X<XeX.X_.^.^.~.X.^././.^.^.^.^.^.^.^././././.^././.^.3.3.3.3.3.^.~.4.~.X. .",
"Q Q  . .~./././.^.^.^.^./.^.~.3.~././././././././././.^.~.3.1.3./ / ^./.^.3.~./.^.O.oXyXtX5X[./.^.~.~.~././.~.~.~./././././././././././.^.3.3.3.W  .^./.^.3.1.1.",
"Q W  .X.X.4.3.3.3.1.1.1.1.3.^.^./.^.~.1.3.3.~.~.^./././.^.3. .1.W W ~././.~.1.1.X.w.+XaXsXfX5X[.X. . .X.X.X.~.^.^.^.~.Q X.~.^.^././././.^.3.X.3.Q W ~././.3.Q E ",
"W Q  .~.~. . . ./ / Q / Q Q 3.^.^.^.3.3.1.1.1.X.~.^./././.~.~.~.3.3.^./.^.1.Q  .X.o.|.iXsXfXuXXX{ W  .Q Q  .X.^.^.^.~.X.X.X.X.Q 3.^././.^.4.~.~.3.1.^./.^.1.W R ",
"W Q  .~.3.Q Q Q Q Q Q Q / Q Q 3.^.~.^././.~. .Q X.^././././././.~.~././.^./ / ~.3. .| .XeXsXrX$X{ W 1.1.Q W W 3.^.~.^././.~.Q Q 1./././././././.^.^././.^.Q W W ",
"W Q X.3.3.3.Q Q Q / / Q 1.3./ ~.^.~.^././.^.3.^././././.^.^.^.^.3.1.1.^.^.~.^.^.3./ 1.6. X,XrX$X} W W E ] } X.~.^.~././././.~.^././././.^.^.^.^.3.1.1.^.^.~.3. .",
"Q Q X.~.^.~./ / 1.3.3.1.3.^.^././.~./././.^.^././././.^.X.~.^.^./ W Q 3./.^.^./.4.1.1.1.].oX>XOX{ 1.2.} w.[.^.^./.^.^./.^.^.^././././.^.3.3.^.^./ W W 3./.^.3.X.",
"X.Q / /././.3.1.~.^././.^.^./././.~././.X.~./.~.^././.~.X.^././.1.W / ^./.1.3././.3.1.^._._.|.Z.2.^._.e.:X@X_.^./.~.^./.3.~.^.~.^././.~. .~././.1.W Q ^./.1. . .",
"Q Q Q ~./././.~./ 1.^./.~.3./.^.3.^././.^././.^.^./././.^.^././.^.3.^././.3.3.~.~.1.1.~.^.^._.9.W 1.8.e.@X:X_.X.3.^./.^.^././.^.^./.)./.^./././.^.~.^././.3. .W ",
"W Q X.X.^././.^.1./ 3./.~.3./.3.3./.~.3./././.^.^.^././././././.^.^././.^.^.^.^.3.3.1.4.^././.3.1./ 1.7. X X_.4.o._.4.3./././.~.~./././././././.^.^././.^.~.X. .",
" .X.^./././.^.^./.~.3./.~.~.~././.~.1.W 3././.1.X.3.^.^./././.~.4.3.~.3.3.^././.^.^.^.^././.^.^./.4.1.2.6.2.~.e.Z.q.} Q 3././.3.1.3.^.^.^././.3.3.3.~.3.~.^.~.1.",
"Q X./.^././.^.^././.^.^.~.^.^././.3.Q / 1.1.3.1.Q 1.4.4.X.3.^.^.^.~.^.^./.^.)./.^.^.^.~.^./.^./././.^.3.1.3.6.w.w.| { Q / 3.3.Q / 3.3.~.1.4.^.^.^.^.^.^.^./.~.1.",
" .X.^.3.3./.^.^.^./.^.3.3.^.^././.3.X.1.1.1.1.1.1.~.3.3.1.3.~./././././././././.~.^.^.1.3./.^.^./.^.~.3.X.9.|.w.O.{  . . .X.X.X.3.3.3.3.1.3.^././././.^././.3.X.",
"X.X.1. . .3.3.~.^.1./ / / 1.^././.^.~.~.3.^././.^./.^././././././././.3. .~./././.^.1./ 1.3.3.~.^.1./ / E e.>XoXq._.~.~.~.~./.^./.^.^././././././././.3.1.~.~.X.",
" .X.~. . .1.3.3.3.1.1.3./ / 3./././.^.~.3.3.^././././.^.~.^.^./.3.1.3.1.Q 1.^./.^.^.~.1.1.1.3.3.3.1.1.3.W q.>X,X$X{.`.^.X.~.^././././.^.^.~.^.^.3.3.~.3. .1.X.X.",
"Q X./.~.3.3.3.1.1.1.3.~.1.Q ~.^./.^./.^.3.3.~././././.^.1.~.^.^.X. .6.2.1.Q X./.3.^./.~.3.3.3.1.1.1.3.~.{ +.&XyXtX[._./.X.X.~././././.^.1.3.^./.X. .3.~.3. . .X.",
"1.3.~.^././.~.^.~.1.1./ W 1./.^.~.4.^././././.~.~.^.^./././././.~._. Xw...4.^././.^.^./././.^.~.~.1./ / E q.>XyXtX[._././././.~.~.^.^././././././././././.4.X.X.",
"1.3.^././.^.^.^./.~.3.3.3.~././.~.3.~./.^.~.~.^.^.^.~.~.^.^.^./.3.[.>X X7.4././.^.^.^././.^.^././.^.~.1.Q 7. X<XrX.X9././.^.~.^.^.^.^.~.^.^.^././.^.~././.~.X.X.",
" .X./.^.~.^.^./././././././././.^.1.1.3.3.1.3.^./.~.3.1./ / 3.3. .].,XOX7.4.^./.~.^.^.^.^.~.^././.)./././.~.o.$X;X|.q.~.3.X. ././.3.~.1./ 1.3.3.X. .1.^./.~.3.X.",
"X.X.4.^.^./.^.3.~././././././.~.3.3.1.1. .3.^./.^./ 1.3.3.3.3./ W | |.+...~.^.~./.^.~.~.^./.~.~.3.^././././.^.q.w.+.}  . .X.~./.^./ 1.3.3.1.1.1. . .3.~.^.~.3. .",
" .X.~.^.^.~.3.3.3.~.3.3.^./.^.3.3.~.3.1.3.^././.^.Q Q 1.3./ / / W { o...X.X.^.^.^.^.~.^.^.~.3.3.3.~.3.1.^./.^.4.} 2.1.1.4.^.^.).~./ Q 1.3.1./ Q Q Q ^.~.~.~.X.Q ",
"Q 3././.~.Q 1.~.~.~.1./ ~./.~.^.^././.^././.^./.^.1./ / Q Q Q / Q  .^.^.~.4.~.^.~.~././.3.1.1.~.^.3.3.1.~.^.~.~.^.^.^.^.^./././.^.1./ Q Q / Q Q Q  .~.^.~.~.X.Q ",
" .3.^.~.X.W Q X./././.^.^.^.~.^././././././.^./././.1.Q Q Q / X.X.X.~.~.^./././.^.^.^.~.1.W W 1.)./.^.^.^.^.3.^././././././.^././.^. .Q W / 1.3.X.3.X.^.^.^.~.X.",
" .3.^.~.~.X.Q X././.^.^./.^.~./././././.^.^.X.^././.~.1.Q ~.^.^.^.^.^.~.~.^.^././.^.^.~.3.3.1.3./././.^.^./.~././././././.~.3.^././.~.X.1.3.^.^./.^.^.~.^.^.~.Q ",
"Q X././././.^././.^.3.1.^././././.^.^.^.^.3.Q ^.^././././././././././.~.3.~.~.^.^.^.^./././.^.^.^.~.3.1.~././././.^.^.^.~.3.1.~././.^././././././././.~.3.~.X.Q ",
"Q X.^./.^.X././.^.~.3.X.~./././.~.3.1.3.^./.^.3.~././././.^./././.^.~.~.~.3.X.X.4.~.3.X.{ ] 3./.^.^.3.1.~./././.~.~.X.3.^./.^.1.3././././././././.^.X.~.~.3.Q W ",
"Q X.^./.~. .~.^.^.~.3.1.~.^.^.~.3.~.3.3.^./.^.X.~././././.~.~././.~.3.^./.3.3.X.4.~...[ ( ( } ^.^.~.3.1.~.^.^.~.1.~.X.~.^./.^.3.~././././.~.~././.~.~././.X.Q Q ",
" .X././.^.~.X.~.).~./ / X.1.1.1.3.^././.^.Q Q /.^.~./././.3.1.^.^.^./././.^././.^.~.o.` j ` } ^./.3.1.1.X.X. .X.3.^././.^.X.Q ^./.~./././.X.X.^.^./././././.X.X.",
"Q X.^.^.^.3.~.^.~.~.3./ ~.^.~.3.~.^.4.3.~.~.~.^.~.X.^././.~.X.^././.~.X.X.^././.~.} ' c.c.` } ~.~.~.1.1.~.^.3.3.~.^.~.3.~.~.~.^.~.3.^././.~.3.^./././.3.3./.^.X.",
"Q  .~.~.~.~.^.^.~./.^.1.~.^./.^.^.^.3.3.4././.3.X.3.~././.^.^.^./.4.E I I E W W R K a c.j ) 2.^.3./.^.1.^././.^.~./.3.1.~././.~.1.3.^.^./.^.~.^./.^.~.Q Q /.~.Q ",
"Q  .3.3.~./././././././.3.1./.^.^././.~.~.~.3.1.1.~.~.^./.^.~./.~.E , $ # $ $ * * o + g j ' 2./././././.3.1./.^.^./.^.~.~.~.3. .1.~.~.^./.^.^./.^.~.3.~.^./.3.W ",
"Q Q X.Q X./.^.^./././.~.3.3././././.^.~./.^.3.1.3.^.X.X.~.Q R Y T K 9 9 0 0 - - 9 8 7 p a d U 1./././.~.1.3././././.^.^./.^.3. .3.^.3.3.~.3.~././.^.~.^././.Q R ",
"Q Q Q Q / ^.3.~././.^.X.3.~.^./.^.^.~.~././.~.3.~.^.3.3./ I H 4 s @.#.i.u.#.B M N y y v z a ; P X./.~.1.3.^././.^.^.3.~././.~.4.~.^.~.1.1.1.3.^././.^.^././.Q W ",
"X. .Q  ./ Q 3.^.^.^.^.~.3.~.^.~.1.1.1.3././.^.^.~././.~.E H 9 v D <.U.R.l.s.u.u.&.V t.;.=.*.: $ J Q ^.4.3.3.^.3.1.1.3.3././.^.~.~./././.~./.^.3. .X./././.~.~.X.",
"X. .X.X.~.~.~.~.~.~.~.^.~.~.~.~.~.3.~.^.~.^.^.^./.^.^.W H r t.i.f.P.0X4XR.g.s.u.u.V u.A.H.C.n 8 1 L { 4.^.3.~.~.~.3.3.^.~.^.^./.^.^./.^.^.^./.^. . .^.^.X.X.3.X.",
"Q X.^.^.^.^.~.3.3.X.3.~.^.^.3.^./.^././.3.3.^././.3.E H 8 V g.z.z.R.0X0X2XL.h.i.V Z <.H.K.H.<.C v f U 1.^.^.3.^././././.3.3.^././.^.~.^.~.^.^./.X.X.^.X.Q X.Q Q ",
"R Q ^.~.~.^.^.^.^.3.3.^./././.^.^.^./.^.3.~.^./.^.W 3 9 B d.W.Q.W.Y.L.2X0X4Xk.t.V <.J.J.A.m.G.F.N.S A _ 1./.^.^.^.^./.^.3.~.^././.^././.~.3.3.~.^.^./.~.~./.X.Q ",
"W  .3.4.~.~.X.3.~.3.3.^.~.~.~.3.3.~.~.1.1.3.3.X.E J r B d.Y.Q.Q.W.l.g.R.4X4XU.L.m.S.J.A.;.;.m.V.M.n.n 4 I W 3.3.3.~.~.1.1.3.~.^.~.1.3.3.1.~.^.^./.^.3.1.1./.~.X.",
"X. . .X.~.3.Q Q Q X.3.3.3.1.3./ 1.1.1.Q  .X.1.Y , 9 V g.z.!.1XW.z.g.s.h.L.E.*X*X*XJ.A.,.V Z D ;.D n l + ; J / 1.1.1.1.Q / 1.3.1.1./ W / 1.~./././.~. .Q  .3.X.X.",
" .X.^./.^.~.X. .3.Q Q ~.^./././.^.~.1.W 3.^.~.Y 4 l p.h.Y.W.W.z.h.g.g.i.i.A.=X-X*XA.;.V N N c c c w q 7 : K 3./.^.3./ / 3.^./.^.~.~.~.^.^.~.^.^.^.^.~.X. .~.X.Q ",
"Q 1.~.~.^./.^.~.~.3.3.^././.^.^./.^.^.^././.^.T x C f.h.l.l.h.s.s.s.s.y.i.A.*X*XA.;.V N m l w w w w q l p f { ~.^.^.~.~./././././.^././.^.3.3.3.3.3.^.~.3.~.X.Q ",
"Q  .1.1.~././././.^.^.~./.^.~.3.^.^./././.~.{ _ -.M.f.g.d.p.u.u.u.u.u.u.<.S.H.A.&.V Z B M e e M c v b n z f L ^ 3./././././././././././.^.3.3.3.Q Q ^././.1. .1.",
"Q Q  .1.3.~.3.3.3./ 3./ / ~.^./.^.^.~.Q 3.Y H ' C.#XL.s.g.p.Z Z &.Z V m.J.J.m.%.V V Z B M e c e y F n.S v 8 * I Q ~.~.1.1.~.~.^.^./././.^.3.1.1.W { ~././.3.Q R ",
"W W 1.~.3.Q  ./ / Q / / Q / 3.^.^.~.~.3.Q J & *.D.*Xf.t.t.a.k.I.I.T.T.4X=XK.<.u V %.Z N M l y w w :.V.N.v 5 X H W ~.~.3.3.1.1.1.3./.^././.~.~.^.1.3.^./././ W E ",
"W { X.X.3.Q Q Q Q Q 1.Q Q Q Q 1.~.~.^././.P ; -.D.*X<.u t k.7XpXaXpXdXuXqXJ.;.t.V V N M c e m w t n.F.B.b . O H E  .4.^.^.3. . .3.^././././././.^.^././.^.Q W W ",
"W Q X.X.3.X.Q Q Q Q Q Q 1.3./ ~.^.~./././.Y < r.0XuX2XA.Y.9XhXjXkXhXgXpX0XC.=.;.N t w w w w w v D m.M.*.0 . O = 3 J I W ^.^.3.~././././.^.^.^.^.3.1.1.^./.~.1. .",
"Q Q X.~.^.~.X. .1.3.3.1.3.~./././.^.^./.~.P > j.8XaX=X#XwXgXkXzXzXkXgX8XI.=.b.m.C M c l c c v D n.n.;.0 +   X = & & > J 3.^.^././././.^.3.3.^.^./ W / 3./.^.3.X.",
"X. . ./././.3.X.~.^././.^.^./././.~.^.4.Y $ @ $.1X8X3X&XuXfXkXzXlXjXdXT.B b =.B.>.;.>.>.>.;.;.:.n.A 0 . . # > 1 * * 1 L W ~.^.~.^././.^. .4././.1.W / ^./. . . .",
"Q Q X.~./././.~.1.3.^./.~.~./.~.3.^.^.W 3     9 #.a.;.b.K.wXfXhXgXdXT.B q w C =.C.F.F.F.F.V.M.:.A l 8 6   > R R T E E  .~././.^.^././.^.^./././.^.3.^././.3.1.Q ",
"W Q X.X.^././.^.1.1.3./.~.3.^.~.3./.3.E H 1 , # . 7 k A c.E.5XiX8X1XB 0 q q m F F.D.F.V.B.B.b.F 0 7 6 7 O , 2.^.~./.^.X./././.~.^.^./././././.^.^.^././.^.~.1.1.",
"Q X.^./././.^.^.^.3.3./.^.3.~.^.^.~.Q W E / 1.G * k n.n.D Z %.a.,.%.v e e w M F V.M.F b v b v l q 8 + O   ,  .^.^.4. .W X.(./.3.1.3.^.^.^././.~.3.3.4.~.3.^.3.1.",
"Q X./.~././.^.^././.^.~.^.4.] { 3.1.Q Q / 1.1.E L f S E.2Xz.%.e e l e e w w l A V.M.b - 5 7 8 6 q - 1 H 3 3 L L L L H H L R 1.1.1.3.3.3.4.~.^.^.^.^.^.^././.~.1.",
" .3.^.1.3./.^.^.^.).4.3.3.[ ) ( [ X.X.1.Q 3.1.1.R K *.U.wX6Xa.6 7 w 0 0 q 8 e A M.n.v 6 .   # 8 - 1 I R Y J > & = & # = & J W / 3.3.3.3.1.3.^./././././.^./.~.X.",
"1.1.3./ 1.3.3.~.^.3.1.5._ ( j ` _ 4.^.3.~.^.^.4.E K K r.6X1X,.7 7 q 8 6 8 q k n S A 0 = $ G 3 , 3 J R W W Y , > > , * O = H 1.^./.^.^././././.)./././.X.X.^.~.X.",
" .1.3.1.1.1.3.3.3./ 5.{.' j x.` [ ~.~.Q Q  .1.R J 3 T } 0.@.r = O + = # O : p k 0 : + > J R R Y Y W 1.3.1.E R T R E T 3 = 2 E 3.3.3.X.X.X.4.^./.~.3.^.X. .X.X. .",
"Q 3./.~.3.3.3.1.1.1.'.}.M.x.x.` { 3.W I J P Y 3 < J X.Q G $ * > > > > > , 4 f f 2 #   G R / { { 1./ 3.3./ 1.~././.^.4.Q H 2 L Y T Y T T _ 5.).^.X. .X.~.X. . .X.",
"1.3.~./././.^.~.~.X.5.}.-.x.x.` ] W H = = # * > I  .^.^.3. .W 1.1.1. .X.Q {  .X. .H & H E | ` ' { 1.Q Q W X./.^.~.~.^.^.1.I ; * & # = i h {.}././././././.X.X.X.",
"X.3.^././.^.^././.~._.'.+.` j h ( G , , > ; 1 L { ^.~.~.^.~.~.^.^.~.4././.~.^.^.^.^ L L _ ' j ` 1.3.3.3.4.^././.~.3.~.^.~.R 3 1 , > * % a r.}.).^.^.~././.~.~.X.",
" .X./.^.~.~.^./././.)./.X._ h g p > P R Y I Y 1.~.3.3.X.1.1.3.3.4. .X.~./.~.^./.^.4. .U ` c.c.` X.^././././././.^.1.3.3.3.W Y W W E I < + j.}.5.X. .X.^./.^.X.X.",
" .X.3.~././.~.3.4.^./.`.E K i i : J R Q Q  .3./.~. . .3.3.1.1.1. . .4.~.~.^.^.~.^.~. .L h c.c.` { ~././././.^.~.3.3.1.1. .X.3.~.X.W W Y H 0.'.1.Q  .4.~.~.^.X.Q ",
" .X.~.^.^.~.3.3.3.3.(.'.! # o * L { X.1.~.^././.^.Q Q / 3./ / / W / ^.~.~.~.~.~.^.^.3.U 4 a g ) ] X.3.3.^./.^.3.3.~.3.1.3.^././.^.Q / W R / 5./ Q Q ~.~.~.~.X.Q ",
" .X.^./.3. .1.~.^.3.(.0.! @ @ J X.^.^.^././.^./.^.Q Q Q Q / / Q Q  .^.~.~.~.~.^.~.^.~.W H o i d { X.1.1.4./.^.^.^./.^.^././.^./.^.1./ Q Q / / /  .X.^.^.~.~.X. .",
" .3.^.~.1.Q W 1./.).).).5.E R / ^./././././.^././.^./ Q Q Q 3.3.3.3.4.~.^./././.^.^.~.X.Y H ; H  .^.^.^./.^.3.^././././././.^././.^.1.Q / / 1.5.X.X.~.~.^.^.~.X.",
" .3.^.^.~.1.1.~././.).^././.~./././././.^.~.~.^././.^.3.Q 3.^.^.^.^.^.~.~.^.^././.^.^.~.3.{ ~ 0.4././.^.^.^.~././././././.~.3.^././.~.1./ 3.~.^.^.^.~.~.~.^.~. .",
"Q X././././.^././.^.3.1.~././././.^.^.^.~.1.Q ^././.^././././././././.^.3.3.^.^.^.^././.).).'.'.).^.3.1.~././././.^.^.^.^.1.X.~./././././././././././.^.X.~.X.Q ",
"Q Q ~./.^.3.^./.^.^.3.1.^././.^.~.~.3.X././.^.X.~././././././././.^.3.~.~.3.X.X.3.~.^./.^.4.).).^.^.~.1.^./.).^.~.~.X.3././.^.3.3./././././././.^.^.~.^.^.X.Q W ",
"Q X.^./.^.X.~.^.^.~.3.X.3.^./.~.3.3.3.~.^./.^.3.~.^./././.~.^.^./.~.3././.3.1.~.~.~.^./.^.1.~.^.^.3.3.1.~./.^.~.3.~.3.3.^./.~.X.~././././.~.^././.^.~.^.^.~.Q W ",
"Q ~././.^.X.X.~./.3. .X.X.1.X.X.3.^././.^.Q Q ^.^.~./././.~.X.^.^././././.^./././.^././.^.3.1.^.).3.Q  .X.1.1.1.X.^././.^. . .^.^.~./././.~./ ^.^.^./././.^.~.X.",
"Q X./.^.~.3.~.~.~.~.X. .~.^.3.X.~.^.~.3.~.~.^.^.~.3.^././.~.3.^./.^.^.X.X./././.^.^.^.^.~.3.~.~.^.~.3.Q ~.^.3.3.~.^.~.X.~.~.~.^.~.3.^././.3.3.^././.^.X.~.^.^.X.",
"Q X.X.~.~.~.^.^.~.^.^.3.^././.^.^./.3.X.X././.~.Q 3.~././.^.^.^./.^.^. .X./././.~.3.~.4.~.~./.^.~.^./.1.^././.^.^./.3.X.4././.~./ 3.~././.^.^././.^.^.Q Q /.^.Q ",
"Q  .X.~.^./././././././.3.1./.^.~./.^.~.^.~.~.Q 3.~.~.^./.^.^./.^.~.X.~.^./.~.3.~.3.3.3.~./././././././.X.1./.^.~././.~.~.~.3.1./ ~.~.^././.^./.^.~.~.~.^./.X.W ",
"Q Q  .X.3./.^.^./././.~.X.3././././.^.^./.^.3.Q ~.^.X.X.^./ ~./././.~.~././.X.X.~.3.1. .3./.^.^./././.~.X.3././././.^.^./.~.3. .~.^.3.1.3.3.~././.^.~.~././.Q R ",
"Q Q Q Q X.X.~.~././.~.X.X.^.^./.^.^.~.^././.^.3.~.^.~.1.X.3.~.^././.~.^.^./.3.1.^.3. .Q 1.3.3.~././.^.X.X.^././.^.^.~.~././.~.3.~./.~.1.1.3.3.^././.~.^././.Q W ",
"X. .Q X.X.Q X.~.^./.^.~.X.~./.3.1.1.X.3././.^.^.^./././.~.^.^.~. .X./././.^./././.3.Q  .1.1.3.~./.^.^.~.X.~.^.~.1.1. .3././.^.~.~./././.~.^./.3.X.Q /././.~.~.Q ",
"W Q Q Q Q Q X.X.X.Q  .X.X.X.X. . . . .3.1.3.3.3.3.3.^.~.3.~.3.3.W W 3.X.Q Q 3.~.3. .W  .1. . . .Q Q Q X.X.X.X.X.1. .X.3.3.3.3.~.3.~.~.~.3.3.~.3.Q W X.X.Q Q Q W ",
"R E W Q X.X.Q Q W W W Q X.Q W  .3. .3. .W Q Q 3.1.Q Q Q Q Q Q Q W W Q W R W W Q  .Q Q Q  . . .W Q W Q Q Q Q Q Q 3. .3. .W W  .1.Q Q Q Q Q Q  .1.W W Q W R W R R "
};
