/* XPM */
static char *Group_10_20__resized[] = {
/* columns rows colors chars-per-pixel */
"80 80 237 2 ",
"   c #0D100B",
".  c #181516",
"X  c #1D1D15",
"o  c #1D1619",
"O  c #1E1A19",
"+  c #211A0F",
"@  c #261A1A",
"#  c #211C1A",
"$  c #351C17",
"%  c #1E2416",
"&  c #1E2519",
"*  c #1F3311",
"=  c #212416",
"-  c #232B16",
";  c #232419",
":  c #2A241C",
">  c #242A19",
",  c #2A2819",
"<  c #362818",
"1  c #263617",
"2  c #2B3B17",
"3  c #2B341B",
"4  c #2B3D19",
"5  c #383517",
"6  c #1C1922",
"7  c #291D24",
"8  c #2C2223",
"9  c #282525",
"0  c #322525",
"q  c #392725",
"w  c #32262B",
"e  c #34292D",
"r  c #3C2D2C",
"t  c #2E302A",
"y  c #3A3429",
"u  c #382B32",
"i  c #3C3339",
"p  c #471D17",
"a  c #5D1D14",
"s  c #6D1D12",
"d  c #462518",
"f  c #552817",
"g  c #5D2B15",
"h  c #4C3417",
"j  c #5A3718",
"k  c #682B15",
"l  c #762C14",
"z  c #6A3717",
"x  c #793815",
"c  c #482C27",
"v  c #532C28",
"b  c #44312F",
"n  c #4B342A",
"m  c #57352A",
"M  c #443332",
"N  c #4A3535",
"B  c #4C3936",
"V  c #453739",
"C  c #4D3B3A",
"Z  c #563B33",
"A  c #513D3B",
"S  c #65392C",
"D  c #6D3F31",
"F  c #264116",
"G  c #2A4317",
"H  c #2D4B17",
"J  c #264219",
"K  c #2C4519",
"L  c #2D4A19",
"P  c #384719",
"I  c #324C1A",
"U  c #2F5218",
"Y  c #33531B",
"T  c #3C5419",
"R  c #355B1A",
"E  c #3C5D1B",
"W  c #37631B",
"Q  c #3A651C",
"!  c #3D6D1D",
"~  c #3F711F",
"^  c #3F4E25",
"/  c #3F7320",
"(  c #3F7A20",
")  c #484716",
"_  c #434B16",
"`  c #584716",
"'  c #534D16",
"]  c #4C5217",
"[  c #4A5319",
"{  c #475819",
"}  c #435C1A",
"|  c #575819",
" . c #784408",
".. c #694916",
"X. c #774716",
"o. c #685519",
"O. c #645C1A",
"+. c #775517",
"@. c #43641C",
"#. c #4B621B",
"$. c #436D1E",
"%. c #4B6D1E",
"&. c #55681C",
"*. c #41741F",
"=. c #4A731F",
"-. c #43781F",
";. c #55701F",
":. c #606F1E",
">. c #524D2C",
",. c #55423C",
"<. c #5B463B",
"1. c #694B24",
"2. c #755227",
"3. c #694937",
"4. c #764633",
"5. c #67573F",
"6. c #795537",
"7. c #427620",
"8. c #4A7620",
"9. c #457C21",
"0. c #4A7D22",
"q. c #48742A",
"w. c #527A26",
"e. c #506E31",
"r. c #6F6829",
"t. c #6B7B22",
"y. c #777822",
"u. c #3E3344",
"i. c #4F464B",
"p. c #5A4845",
"a. c #604B44",
"s. c #695548",
"d. c #72594C",
"f. c #7C664D",
"g. c #707147",
"h. c #796557",
"j. c #7A645A",
"k. c #797067",
"l. c #8E2F14",
"z. c #843514",
"x. c #883A15",
"c. c #943A15",
"v. c #8F4F07",
"b. c #834316",
"n. c #894918",
"m. c #964717",
"M. c #875618",
"N. c #985518",
"B. c #A94B19",
"V. c #AA5619",
"C. c #B85A1C",
"Z. c #8B6319",
"A. c #976518",
"S. c #AC6917",
"D. c #AC631A",
"F. c #B66719",
"G. c #BB6B1A",
"H. c #B77319",
"J. c #944629",
"K. c #835629",
"L. c #854832",
"P. c #924B33",
"I. c #875534",
"U. c #995835",
"Y. c #A4552F",
"T. c #936427",
"R. c #886A31",
"E. c #8A6339",
"W. c #986939",
"Q. c #A96B26",
"!. c #B0742C",
"~. c #A76836",
"^. c #B86A36",
"/. c #AC7739",
"(. c #B87C35",
"). c #C6681D",
"_. c #C2731A",
"`. c #C97A1B",
"'. c #D2791C",
"]. c #CB7522",
"[. c #876F4C",
"{. c #997447",
"}. c #846C53",
"|. c #A47845",
" X c #856F63",
".X c #877265",
"XX c #478122",
"oX c #498423",
"OX c #4C8A24",
"+X c #5A8624",
"@X c #648424",
"#X c #6E842B",
"$X c #9A8927",
"%X c #B08C2E",
"&X c #BB843A",
"*X c #CC821B",
"=X c #D68A1C",
"-X c #D8921B",
";X c #E49D1E",
":X c #F0AF1D",
">X c #DB8B27",
",X c #CB8835",
"<X c #D38D35",
"1X c #DA9836",
"2X c #E39727",
"3X c #DBA83D",
"4X c #ECB12F",
"5X c #F6C131",
"6X c #9D8A58",
"7X c #A98449",
"8X c #B88A46",
"9X c #ACA759",
"0X c #988866",
"qX c #A89B65",
"wX c #B3A968",
"eX c #B1A96E",
"rX c #BEB578",
"tX c #C4984A",
"yX c #D2AB4D",
"uX c #EAB646",
"iX c #E7C646",
"pX c #CCC871",
"aX c #E7D168",
"sX c #FAED6C",
"dX c #93928E",
"fX c #D8D38B",
"gX c #E2DC8A",
"hX c #EFED97",
"jX c #E9E7A9",
"kX c #FAF7A7",
"lX c #F4F4B4",
"zX c #DBDAD5",
"xX c #F8F8C4",
"cX c #FFFFD3",
"vX c #F9F9DC",
"bX c #FFFFE5",
"nX c #FFFFFA",
/* pixels */
"U W *.! ~ ~ ~ -.~ ! ~ -.~ -.-.~ ~ -.-.-.! ! ~ XX-.-.-.-.! ! ! *.~ 7.7.*.~ 9.-.! W ! *.! ! ~ ~ ~ ~ ! ! ~ *.-.-.*.~ *.-.*.! ! *.-.7.7.7.7.! ! ! ! / 7.7.~ ~ -.! U ",
"Q ! ~ *.7.7.~ ~ ~ ~ ~ 7.7.-.-.~ / / ~ ~ ! ~ ~ 7.~ ~ ~ ~ / 7.9.9.9.7.7.! ~ -.9.9.9.7.$.~ -.-.~ ~ ~ ~ -.-.-.*.! ~ ~ *.*.*.! ~ *.-.7./ / / / 7.9.9.9.7.-.~ ~ 9.-.! ",
"-.-.-.-.9.9.7.! ~ -.-.XX9.7.9.7./ 9./ / ~ 9.9.7./ / ! / 7.XXOXOXOX9.7.! -.9.oXOXOXXX7.9.9.9.~ ~ ~ ~ -.9.-.=.;.;.~ -.-.! *.9.-.-./ / ! $.7.XXOXOXOXXX~ ! *.9.9.-.",
"*.-.oXOXOX9.7.7.-.-.-.XXOXOXOXOXoXXX/ / 9.oXOXoXXXXXXXXXXXXXXXOXOXXXXX9.-.XXoXXXXXXXXXOXoXXX-.-.9.-.-.XX=.t.%X#X-.-.-.~ 9.XXOXoXXXXXXXXXXXXXXXOXoXOXXX7.-.XX-.! ",
"! -.XXXXoXOXXXXXXX9.9.XXOXOXOXoXoXoXXXXXOXOXOXOXOXOXOXOXoX9.9.9.9.9.OXXX9.9.XXOXXXXXXXXXOXOXoX9.XX9.9.XX0.t.$Xt.0.XXXX9.OXOXOXOXOXOXOXOXOX9.9.9.9.9.OX9.9.XX-.*.",
"*.-.-.-.XXOXOXOXoXoXXXOXOXoX9.9.XXOXOXOXOXOXOXOXOXOXOXoXoX9.7.9./ 7.XXOXXX9.XXOXXX9.7.7.9.OXOXOXoXoXoXoXXX0.&.*.9.oXOXOXOXOXOXOXOXOXOXOXXX9.7.9.! 7.OXOXOX9.7.7.",
"! $.~ -.9.9.9.9.9.7.7.7.7.9.oXOXoXoXXX7.7.XXXXoXoXOXOXOXoX9.7.9.! ! 0.OXOX9.7.7.9.9.7.9.9.9.9.9.9.7.7.7.-.7.XXXX0.8.%.%.9.9.9.XXXXOXOXOXOX7.7.9.! ! 0.OXOX7.! Q ",
"! ! -.-.9.-.7.7./ ~ ~ / / / 7.oXOXoX9.9.7.7.7.7.9.OXOXOXOXXX9.XX9.9.XXOXOX7.~ 7.9.7.7.XX9.7.-./ ~ ~ ~ ~ ! ~ 9.OX+Xy.y.y.8.7.7.7.9.OXOXOXOXXXXXXX9.9.XXOXOX7.! W ",
"! ~ -.XX7.~ ~ / / ~ ~ ~ / ~ ~ 9.XXXXoXOXOX9.7.~ -.oXOXOXOXOXOXOXXXXXOXOXoX~ ~ 9.9.9.-.9.-.*.*.~ / ~ / ~ ~ ~ ! ( +X$X%X%X+XXX~ ~ 9.oXOXOXOXOXOXOXOXXXOXOXOX~ ! ! ",
"! ! -.9.9.7.~ / ~ / ~ ~ 7.7.7.XXoXoXOXOXOXoX9.oXOXOXOXOXOXoXXXOX9.7.9.XXOXXXoXOX9.7.-.9.-.-.! ! ~ / ~ ~ ( ( ( XX+X$X%X$X+XOXXXoXOXOXOXOXoXXXXXOX7.7.9.XXOXXX7.-.",
"~ ~ 7.XXoXXX7.7.7.9.9.9.9.XXoXOXOXoXOXOXOXoXoXOXOXOXOXOX-.0.XXoX7.! ! 9.OXXXOXOXoX7.-.9.-.*.} Q ~ 9.7.7.9.XXoXOX@X$X%X$X+XoXoXOXOXOXOXoX9.0.XXOX7.! ! 9.oXXX9.-.",
"-.-.7.OXOXOX9.7.XXoXOXOXoXoXOXOXOXXXoXOX9.XXOX9.XXOXOXXX-.XXOXOX7.! ! OXOX-.-.oXOX9.7.OX-.#.j ' 9.OXOXOXoXoXOXOX+X$X%X$XoXXXoXXXoXOXOX0.7.XXOXOX7.! *.XXOX7.*.-.",
"! ~ -.9.OXOXOX9.7.7.OXOXXX9.OXoX9.OXOXOXOXOXOXXXOXOXOXOXoXOXOXOXXX9.oX@Xt.;.=.XXXX7.*.! &.r.T.T.[ $.oXOXXX0.OXoX=.t.y.t.oXOXOXoXOXOXOXOXXXOXOXOXXX9.XXOXOX9.*.! ",
"! ~ -.9.OXOXOXXX7./ 7.OXXX9.OX9.7.OXXX9.OXOXOXXX0.OXOXOXOXOXOXOXoXoXOXt.y.:.w.XX9.9.-._ +.!.1X%X..[ *.OX0.-.OX-.-.-.=.$.oXOXOXoXXXoXOXOXOXOXOXOXOXOXOXOXOXXX7.*.",
"*.9.XXOXOXOXXXOXOX9.7.OXOX9.XXOXOX0.7.! 9.OXOX7.7.9.XXOXoXOXOXXX9.9.9.t.y.:.w.OXOXXX7.) n.<X5X4XH.+.] -.-.oXXXOXOXXX*.! -.OXOX=.7.9.oXoXOXOXOXXX9.9.0.XXXXXX9.7.",
"*.-.OXXXOXOXXXOXOXOXOXXXXXXXOXOXOX9.7.! 7.7.9.7.7.7.9.9.9.XXoXoXoXXXXX+X@Xw.+XOXXXOX0.) n.*X4X5X-XF.+.{ *.oXOXOXOX-.*.~ -.-.-.*./ 9.9.9.9.9.XXOXXXXXXXOXoXOXXX-.",
"! -.oX7.9.OXoXoXOXOXXX9.9.XXOXOXOX9.7.7.7.7.7.7.7.9.9.7.7.9.XXOXOXOXOXOXOXOXOXOX-.OX-.P  .).:X:X:X'.N.) @.oXOXOXOX-.-.*.-.-.-.-.7.9.9.7.7.9.XXOXOXOXOXOXOXOX9.-.",
"-.-.7.~ 7.XX9.XXXX9./ / / 7.XXOXOXOXXX9.9.oXOXOXOXOXOXOXOXOXOXOXOXOXOX9.7.XXOXOXOXoX-.h X.].;X:X;X).n.h E *.XXOXOXOXoX-.-.oXOXOXOXOXOXOXOXOXOXOXOXOXOX9.9.XX9.9.",
"-.9.0.7.-.7.7.9.9.7.7.9./ / 9.OXOXOXXX0.9.9.OXOXOXOXOXOXXXXXOXoX9.9.XX9.7.7.XXOXOXOX-.) X.).;X:X>XC.X.P E *.-.OXOXOXoXXX9.XXoXOXOXOXOXOXXXXXOXoX9.9.0.9.7.7.-.-.",
"! 9.OXXX9.9.9.9.7.7.9.XX/ / XXOXOXXXOXOX9.9.9.OXOXOXOXXX7.0.XXOX7.7.9.9.9.! 9.XX-.0.0._ X.G.>X2X'.C.n.' Q $.XXOXOXoXoXOX-.-.XXoXOXOXOXXX9.9.XXOX9.-.9.9.7.*.*.-.",
"7.9.9.OXOXOX9.XX9.7./ / ! 7.OXOXXXXXOXOXOXOXOXXX9.OXXXOXOXOXOXOXOXOXOXOXOX9.9.-.} *.-.[ X.C.].].C.).S.+.] Q oXoXXXXXoXOXOXOXOXXXXXOXXXOXOXOXOXOXOXOXOXOXOX9.-.-.",
"7.0.XXOXOXOXOXOXOXOX9.9.9.9.OXOXOX7.9.OXOXXXXXoXOXXXXXXXOXXXOXOXOXXXXXOXOXXX8.&.o.O.$.[ X.C.].C.c.G.*XS.o._ oXOXXX9.9.OXOXXXXXoXXXOXXXXXOXXXOXOXoXoXOXOXOXXX9.-.",
"~ 9.OXOXXXXXXXOXOXOXOXOXOXOXOXOXXX7.7.XX7.7.7.OXOX9.9.7./ 7.7.9.7.7.7.oXOX9.&.+.S.Z.| ) X.C.).B.x.D.`.H.+.{ -.OXOX7.9.9.7.-.-.OXOX9.9.7./ 7.7.9.9.7.-.XXOXXX0.-.",
"-.-.9.XXOXOXXX9.0.OXOXOXOXOXOX0.9.9.7.7.7.9.XXOXOX7.7.7.9.7.7.7.~ 7.9.0.7.{ +.S.-XH. .k z.B.).B.x.c.n.o.;.XXOXXX9.9.7.7.7.9.XXOXXX7.7.9.9.7.7.7.*.*.9.9.XXoX9.! ",
"-.-.oXoXOXXX9.9.9.XX9.7.OXOXXX9.9.9.9.7.9.XXOXOXXX7.7.7.7.7./ / ! Q R R _ < j n.A.M.g a k x.n.m.z.l ` } 9.OXOX9.9.9.9.7.9.0.OXOXXX7./ 7.9.7.7.~ ! ~ XXXXXXXX-.~ ",
"! 7.OXOX9.~ 7.9.oXXX7./ 9.XXXXOXOXOXOXoXoXOXOXOXoX7.7.! / ~ ~ ~ ! U - < h < $ < 5 < $ d f d d g x ` { $.9.OXXXXXOXOXOXXXOXOXOXOXoX7.7.! / / / ~ ~ -.oXoXXXXX-.~ ",
"-.9.oXXX-.! ~ -.OXOXOXOXOXOX9.OXOXOXOXOXOXOXoXoXOXOX7.! $.~ 7.*.L 3 y N S 2.1.>.e c ..S c 7 7 p z | 9.XXOXXX9.OXOXOXOXOXOXOXOXXXOXXX7.! ! / 7.9.9.9.-.oXoXoXXX-.",
"~ 9.oXXXXX7.-.-.OXOXOXOXXXOXXXOXOXOXOXOXOXXXXXoXOXOXXX7.7.9.*.R 4 y p.p.d.{.%XR.<.6.W.U.3.M V v S [ 7.9.OXOX9.OXOXOXOXOXOX9.9.OXOXOXXX-.7.9.XXoXoXoXoXXXXXOX-.-.",
"~ -.OXOXOXOXOXoXOX9.9.7.XXOXOXOXOXXXOXXXXX9.-.XXOXOXOXOXOX9.Q 3 r p.j.k. X6XtXtX7X8XtX~.W.W.E.6.c 3 I ! 9.OXOXOXOXoXoXoXXX7.7.XXOXOXOXOXoXOXOXOXOXOXOXoX9.XX-.~ ",
"! -.oXOXXX9.oXOXXXXX9.7.OXOXOXOXXX9.7.9.OXOXoX9.7.OXOXOXXXR 4 y a.j. X.X Xj.{.8XyX8X{.{.&X<X&XI.c : > K 7.OXOXOXXXXX9.7.OXOXOX7.9.OXOXOXOXOXOXOXOXoX9.XXoX7.~ ! ",
"~ -.XXOXXX-.9.oXOXXX9.7.9.OXOX9.9.9.9.9.OXOXXX9.9.OXOX7.W 4 y p.j..X.X Xk.i.s.|.4X8Xd.}.|.(.Q.2.b w 9 > U / oXXX9.9.7.XXOXoXXX9.XXOXOXOXOXXXXXOXOXXX9.OXOX9.~ ~ ",
"-.9.OXOXoXXX-.oXOX9./ 7.7.7./ 7.9.OXOXOXXX~ ~ oXOXXX9.W > y ,.j..X.X X Xd.i.d.7X3XtX}.s.<.1.n n B A V e 3 H ! 7.9.oXOXOXXX-.~ OXOXXXOXOXOX-.9.oXoXOXOXOXOXOX-.-.",
"~ -.oXoXXX9.-.XXXXXX9.~ XXoXXX-.9.OXXX9.9.XXXXOXXX( XXR O r p.j..X0XeXeXqX6X{.7X8X{.s.C M u V V i.d.U.T.2...{ $.9.oXoX9.9.XXXXOX9.9.OXOXOX9.9.OXOXOXoX9.9.OXoX-.",
"~ -.XXXXXXXXOXoX9.OXoX9.XXOXOXoXXXOX9.7.XXOXOX9./ / / L X r p.j..XeXaXhXgXaXyX&X}.s.,.r e u i.a.s.{.,X<X!.K.h E 7.oX9.7.0.OXOX9.7.9.9.OXOXOX9.OXOXXX9.-.~ OXXX~ ",
"~ -.7.9.oXOXOXOXOXOXOXOX-.-.OXOXXXOXOX0.XXXX9./ / ~ L 1 y M p.f.rXgXxXlXkXsXiX%Xp.u.V e u V s.}.|././.&X/.I.d ^ / oXOXoXXXXX9.7.7.XX9.XXOXOXOXOXoXXX9.XXoXOX7.! ",
"! ~ -.-.9.oXoXoXOXXX9.-.-.9.-.XXOXOXXXXXOXOX9.( / Q ^ >.,.p.h.qXfXxXbXcXkXsXyX/.3.A A Z A p.f.|.&X/.I.s.3.Z < I 7.oXoXoXOXXX9.7.9.OX9.9.9.9.9.OXOXoXXXXXOXOX~ W ",
"~ ! ~ ~ -.-.XXoXOX=.@.@.*.=.#.%.9.9.XXXXOXOXXX9./ e.g.f.h.h.0XfXxXbXnXbXkXaX%XW.I.E.E.R.I.{.|././.I.,.u.u 7 X L 7.9.XXXXOXOXXX9.XXOX9.9.7./ 9.OXOXOXXXoXOXOX/ ! ",
"-.-.! -.~ ~ -.OXXX| ` ' #.&...` @.7.7.9.OXOXoXoX9.@XpXrX}.6XpXlXbXnXnXcXhX9XR.K.,X<X,X,X<X<X,XW.5.,.C B r 9 X G ! 7.9.9.OXOXOXXXXXOXOXOXXXOXOX0.-.-.OXOXOXXX9.-.",
"7.-.-.9.XXXX-.$.| Z.A.M.| O.!.T.O.@.7.XXoXoXoXOX9.q.9X9X|.yXaXkXcXbXcXjXfXg.<.3.~./.|.].<X,X/.6.A C B B r 0 # L ! 9.oXXX0.OXOXoXOXXXOXOXXXOXOXXX*.*.oXoX-.7.-.7.",
"! -.XXoXXXOXXXE ` S.*XH.M.T.3X,XT.] $.OX9.9.oXOX( W >.2.(.3XuXsXhXlXjXrXf.,.N <.5.a.6.~.(.^.6.,.A B M M r w # I 9.XXOXoX9.9.XXOXOXXXXXXXXXXXXXOX9.-.XX9.-.-.-.~ ",
"W *.XXXXXXoXoX$.] Z.G.F.B.S.4X3XQ.` #.oXXX-.OXOX-.U - d K.].1XyXwXwXwX[.<.M N A C u.B I.~.U.A i B M b b r 8 X Y 9.OXOXOX9.9.OXOXOXOXOXOXXX9.9.XXXXoXOXXXXXOX9.! ",
"! *.9.9.0.9.7.*.@.O.+.m.m.F.;X;XD.j Q -.! ~ XXXX~ H % : 3./.<X&XR.s.5.<.B B A A V u M I.Y.U.N e M b b r 0 7 # 4 Q 9.9.9.7.9.XXXX9.9.9.7.9.9.OXXXOXoX9.7.9.OX9.-.",
"-.-.-.9.XX9.~ ~ *.W _ g z.C.-X'.N.) R Q T } *.-.Q H > i g.yXyX7XZ 7 y N A ,.,.A B u M P.~.U.N w e r r r 0 @ # - G ! ! ! / 7.9./ 7./ ~ ~ 7.XXOXOXOXXX-.! *.9.9.-.",
"*.-.XXOXoX9.7.-.-.~ E ] X.V.*X'.N.] T { ..o.=.-.! Y 3 g.fXhXgXeXa.u B C A ,.A B M e M I.~.U.N w 0 0 0 w 0 : X O > L E ! / 9.9.XX9.XXXXoXXXXXXXOXOXXX0.-.-.XX-.! ",
"! 7.XX9.oXOXoXXX-.oX*.E X.B.'.).N.j ' +.S.A.O.#.H * 3 k.lXcXjXrXs.u A A B B N V r e r I.Y.I.b 7 8 0 0 0 , 3 K , O - 4 L L I Y $.9.oXOXOXOX9.9.XX9.9.OX9.0.9.9.! ",
"-.*.7.7.XXOXOXOXOX-.=.#.X.B.).C.c.k x A.-X`.n.h +   9 k.zXvXjXwXs.b C N M M M y b e M L.U.L.c 7 0 w 0 7 > G W K = # ; & % X > R 7.OXOXOXXX9.7.9.! 7.OXOXoX-.-.-.",
"! ! -.9.9.9.9.9.-.Q | Z.S._.B.m.z.k k n._.F.x < . . & i.dXdXeX7XU.4.M u w e e e e N 4.4.4.D D v p $ 7 7 % - Y Y Y Y K 1 1 1 4 W 7.OXOXOXOX7.7.7.! *.9.OXOX-.! Q ",
"! ! 7.XX9.~ -.7.~ U ` N.*X*XV.c.l f h j M.X.h , & & 9 t i V s.I.W.I.Z M b n M M N 4.L.S m S L.J.x.m < 7 . X 3 U Q Q W W R R R Q 7.OXOXOXOXXX9.0.7.$.7.XXOX-.! W ",
"! ! -.-.7.-.~ ~ ! R ' M.`.*XF.B.x.h 2 H ) ) 2 * J L L *     @ m I.U.6.I.I.L.4.4.4.P.J.v q v m.).F.N.j $ o o # 1 I R ! 7.0.9.7.! -.XXOXOXOXOXOXOX0.@.} =.XX*.! ! ",
"! *.-.-.9.7.~ ~ ! ! @.| +.V._.G.m.` E *.=.$.! ~ ( 7.! G . . # 0 Z L.~.^.^.U.U.P.Y.J.m.g d c x._.2XG.b.p O & X = ; 3 4 Y 9.9.7.9.oXOXOXOXoXXXoXoX#.| +.O.-.-.9.*.",
"! *.-.XXOXXX7.~ 7.7.7.! | X.S.C.m.' =.OXoXOXoXOXOX0.Q K : 8 7 6 r 4.^.^.U.L.L.J.J.C.D.K.k a z.G.;X'.m.h 3 G 4 ; o # o - Y R Y 7.XXOXOXOX9.0.9.$.| n.V.M.| -.9.9.",
"-.*.-.OXOXOX9.9.0.OXOXOX7.| X.m.n.' %.OX-.XXOXXX7.R 3 8 8 @ o o q S U.L.m e q v x.G.-XH.x.s l.F.-X).n.) ! 9.7.L = # # O # # - I -.OXOXXX-.XX=.[ M.F.`.D.X.T Q q.",
"$.~ -.XXOXOXOXXX~ -.oXOX9.{ x x.n.' =.OXOXOXOX~ Y 3 0 7 7 @ o 7 c S S c 7 6 7 $ f N.G.N.k a l.C.'.).n.[ $.XXOXE I I G = # # # Y -.OXOXOXOXOX8.) b.B.D._.H. .O.e.",
"! ~ -.9.oXOXOXXX-.~ XXOX7.{ z c.x.' } *.9.9.*.Y 1 7 7 8 , = , < v h < : ; % X ; < z b.j p p x V.).C.n.[ $.9.OX7.! -.W G > # # K Q -.0.9.9.OX8.' z.B.V.*X*Xv.2.g.",
"~ -.oXOXOXOXoXoXOX-.XXoX-.{ z c.c.j P F L I L - # 8 : 3 G L L P P P K 4 F G K H 2 5 p $ + @ f z.B.B.x.[ $.0.XXoXoX0.~ U 2 = # = 1 K L L Y 7.0.] b.V.D.'._. .| e.",
"~ -.OXXXoXOXoXOXOXOXoXXXXX&.x x.z.f , & ; - ; X # ; ; 4 R Q ! *.$.$.! ! ~ $.*.*.Q L , o . . @ f z.c.x.[ 7.XXOXOXOX-.~ ! R 2 % X X = > > 3 Y E ) n.C._.D.M.| %.8.",
"7.9.XX7.9.OXOXXXOXOXoX-.~ #.x x k d @ o O ; > 4 2 2 K R 7.0.XXOXOXOXOXOXOXOXOXOXXX! L & . . + p l l.x ) $.XXoXOXOX-.-.9.*.W K 4 > ; # o # 1 1 3 z N.F.n.' =.-.-.",
"7.7.9.7.7.9.9.9.9.~ ~ ~ ! [ z z c 8 O X X 4 ! 7.9.7.9.XXOXOXOXOXOXOXOX9.7.OXOXOXOX0.Q J & . + d l c.x.' @.7.XXOXOXoXXX-.9.9.9.9.! K ; O X O X X < j x | $.XXXX-.",
"7.7.9.7.7.7.7.$.[ E ! ~ Y 5 f c q - 4 I L R 9.OXOXOXOXOXXXXXOXOX9.7.XX9.7.7.XXOXoXoX9.Q J & # p x V.H.Z.| { 0.OXOXOXoXXX9.9.OXOXXX! Y K 4 2 G L 2 < d P ! ~ -.-.",
"! 9.OXXX9.7.7.| ..| #.@.4 : q q 9 4 W 7.! 7.0.OXOXOXOXoX-.9.XXXX9.7.9.XX7.7.9.OXXXoXOX9.W F = p z._.=XH...) 7.OXOXoXOXoX9.9.XXOXOX0.7.~ ! ! 7.7.R 5 , Y ~ ~ -.-.",
"9.9.XXOXOX7.| +.D.Z...5 : O 7 , 4 W 9.OXOXOXOXXXXXOXXXOXOXOXOXOXOXOXOXOXOX9.XXOXOXoXXXOX-.H , a z.C.H.M.| Q XXOXXXXXoXOXOXOXOXXX9.OX0.OXOXOXOXOX-.! U ! XX-.-.-.",
"7.9.OXOX0.@...N.'.F.n.d : & ; J W $.9.OXOXXXXXXXOXXXXXXXXXXXOXOXOXOXXXOXOXXXOXOXoXoXOXOX-.R 3 p l m.v.` @.7.OXOXOX9.9.OXOXXXXXXXOXXXXXXXXXXXOXoXXX-.! -.OXXX-.-.",
"*.9.XXXX7.E j n.F.V.x d 4 L K Q 9.7.7.9.7.7.7.OXOX9.9.9.7.7.7.9.7.7.7.oXOXXXOXOXXXoXOXoX-.Q K 5 f l l ) @.9.oXOXXX7.7.9.9.*.7.OXOX9.9.9.~ 7.7.9.-.-.=.XXOXXX-.-.",
"-.9.q.9.! Y 5 h z z h 4 W 9./ 9.9.9.7.7.7.7.XXOXXX7.7.9.0.7.7.7.*.7.0.XXXXXXXXXXOXoX9.XXoXXX$.L : f k g 5 L 9.XX9.9.7.7.7.9.oXOXXX7.7.9.9.7.7.7.~ -.-.XXoXoX-.~ ",
"7.q./ J J J J I ) ) K U 7.OXOX9.9.XX9.9.7.XXOXOXXX7.7.7.7.7./ / ! 7.0.9.9.XXXXXXOXOX9.XXoXoX9.Q L 5 d d ; 2 7.XX9.XX9.7.9.oXoXOXoX7.7.7.7.7./ / ~ ~ XXXXXXXX-.~ ",
"! e.>.X   1 R 9.7.*.$.Q XXOXOXXXOXoXOXXXOXOXOXOXXX7./ / / / / / *.7.XXOXXXXXXXXXXXXXOXOX9.~ ( 9.7.K , : ; K 7.XX0.XXoXoXOXOXOXOXXX7./ / / ~ / ~ ~ -.XXoXXXXX-.*.",
"7.q.e.1 * L Q ( OXOXOXXXOXOX9.XXOXOXOXoXOXOXXXOXOXOX7./ ! 7.7.9.9.9.XXXXOXoXOXoXXXXXXXXX~ ~ ~ 7.OX7.I ; & G 7.@.{ $.oXOXOXOXoXoXOXOX7.~ ~ ~ 7.9.-.-.XXXXoXoX-.-.",
"7.q.7.Q Q ! / 9.OXOXOXOXOXXXXXOXOXOXOXOXOXXX9.OXOXOX9.7.7.9.XXXXXXOXXXXXXXOXOXOXOXOXOXXXXX9.~ 9.OXOXQ 1 % 2 %.O.+.O.;.-.oXXX9.oXOXOX9.7.7.9.XXoXOXoXoXXXXXOXXX-.",
"/ 9.oXOXOXOXoXoXOXXX9.7.XXOXOXOXOXoXOXXXXX9./ XXOXOXOXOXOXOXOXOXOXOXOXoX9.9.oXoXXXOXOXOXOXOXOXoXoXoX! F - , ' A.D.N.o.Q 9.7.7.XXOXOXOXOXOXOXOXOXOXOXOXXXXXXX~ ~ ",
"/ / oXOXoX9.oXOXXXXX9.7.XXOXOXOXXX9.9.9.oXOXOX7.9.OXOXOXOXOXOXOXOXXX9.XXoX9.-.-.9.9.XXOXOX9.oXOXoXoX! F , p z D.`.V...{ XXOXOX7.9.OXOXOXOXOXOXOXOXXXXXXXXXXX~ ! ",
"~ / oXOXoX7.9.oXOXXX7.-.9.OXoXXX9.XX9.9.oXOXXX7.XXOXOXOXOXXXXXOXOXXX9.OXOX9.9.9.XX0.XXOX9./ XXoXoXoX! 2 = $ g n.V.M.o.@.XXOXXX9.XXOXOXOXOXXXXXOXOXXXXXoXoXXX~ ! ",
"~ XXOXOXoX9.( oXOX9.7.-.-.7.-.-.9.oXOXOXoX7./ OXoXXXOXOXOX9.7.oXoXOXOXOXOXoXOXOXOXOXOXOXOX9.7.oXOXXXQ G - O $ k b.| =.OXXX7.! OXoXXXOXOXOX9.-.oXoXOXOXOXOXXXXX~ ",
"~ -.oXOXXX9.XXXXXXXX-.~ XXoXXX9.XXoXXX9.9.XXoXoXXX7.oXOXOXXX9.oXOXOXXX-.XXOXOXOXOXXXoXoXXX9.XXXXXXXX( R K 5 g N.H.Z.O.@.0.XXXXOXXX9.oXOXOXXX9.oXOXOXoX9.XXoXoXXX",
"~ -.9.XXXXXXoXoX9.OXoX9.XXOXOXXXoXoX0.7.XXOXOXXX7.9.XXoXOXoXXXOXOXoXXX~ ~ OXOXOX0.XX9.9.XXXXoXoXXXoXoX( Q ] X.S.`.S. .T 7.OXOXXX7.7.XXOXOXXXXXOXOXoX9.-.~ OXXX~ ",
"! -.-.9.oXOXOXOXOXOXOXOX9.7.OXoXoXOXoXXXXXXX9.7.7.XXXXoXOXOXoXOXoXXX9.XXoXOXXX9.XX9.9.9.oXOXOXOXOXOXOXOX-.Q ] M.v. .] Q 9.XX9./ 7.XXXXoXOXOXoXOXoXXX9.XXOXOX~ ! ",
"! ~ -.-.9.OXoXoXOXOXOXoX-.9.OXOXOXOXOXXXOXoX7.7.XXoX9.9.XX7.XXOXOXOXXXoXOXOX-.-.XX9.*.-.9.OXoXOXOXOXoXXX-.-.=.r.Z.O.%.-.XXOX9.7.9.oX9.9.XX9.9.OXOXoXXXoXOXOX~ W ",
"~ *.~ ~ -.XX9.oXOXOXoX-.XXXXOXOXoXoXXXoXOXOXoX9.9.OXXX7.-.7.XXoXOXoXoXoXoXOX9.7.XX9.-.~ 7.XX9.XXOXOXoX7.9.oXOXe.r.+Xq.OXOXOXXX9.XXOXXX9.7.9.9.oXOXOXXXoXOXOX~ ! ",
"-.-.~ ~ ~ ~ -.oXoXoXXXXX-.XXoX9.7.7.-.9.OXOXOXXXOXOXOXOXXXoXOX9.-.-.oXOXOXoXOXOXOX9.! 7.~ 7.9.XXoXoXoXXX9.XXOX0.q.q.9.9.OXOXoXXXoXoXOXoXXXoXOX9.-.-.OXOXOXXXXX~ ",
"! ! ~ ~ 7.~ 9.-.-.~ ~ -.-.-.-.-.*.-.-.7.7.9.9.9.9.9.XX9.7.XX9.7.! ! 9.-.~ ~ 7.XX9.7.~ -.7./ -.-.~ ~ -.-.7.7.9.-.( 7.q.9.9.9.9.9.9.9.XXXX9.9.9.9.! ! -.-.~ ~ ~ ~ ",
"R ! ! ~ 7.7.~ ~ ! ! ~ ~ -.~ ! ~ 7.-.9.7.! ! -.7.7.~ ~ ~ -.~ -.7.! ! ~ ! W ! ! -.~ ~ ! ~ / 7.$.! ~ ! ! ~ ~ ~ ! ~ ( / ( ( ! ! / 9.-.~ ~ ~ *.~ 7.7.! Q -.! W Q Q W "
};
