/* XPM */
static char *Group_10_6__resized[] = {
/* columns rows colors chars-per-pixel */
"80 80 225 2 ",
"   c #243A31",
".  c #2F5216",
"X  c #335A1D",
"o  c #37631C",
"O  c #39661D",
"+  c #3C6D1D",
"@  c #3F711F",
"#  c #2D4C25",
"$  c #294329",
"%  c #2E4B2B",
"&  c #304D2D",
"*  c #2F5027",
"=  c #315424",
"-  c #355C24",
";  c #34542C",
":  c #365B2A",
">  c #385A2B",
",  c #395C2D",
"<  c #2E4633",
"1  c #314E35",
"2  c #32463D",
"3  c #344B3D",
"4  c #355334",
"5  c #3A5D32",
"6  c #36523B",
"7  c #395839",
"8  c #376122",
"9  c #3A6423",
"0  c #3D6B23",
"q  c #3D642B",
"w  c #3E6A2B",
"e  c #3F7121",
"r  c #3D6331",
"t  c #3D6830",
"y  c #41751F",
"u  c #43781F",
"i  c #406E26",
"p  c #40672E",
"a  c #416B2C",
"s  c #417521",
"d  c #457C21",
"f  c #42732A",
"g  c #406631",
"h  c #426A31",
"j  c #1A1248",
"k  c #1D1549",
"l  c #1F194E",
"z  c #221A4C",
"x  c #221D51",
"c  c #26224E",
"v  c #29254C",
"b  c #2F3F4A",
"n  c #262556",
"m  c #2A2652",
"M  c #2B2956",
"N  c #282759",
"B  c #2B2B5B",
"V  c #2F3955",
"C  c #313A5C",
"Z  c #2B2E62",
"A  c #2E3264",
"S  c #303364",
"D  c #313867",
"F  c #343A6D",
"G  c #363D72",
"H  c #2E4442",
"J  c #2F414E",
"K  c #324545",
"L  c #344B43",
"P  c #32454B",
"I  c #344B4B",
"U  c #395344",
"Y  c #3A5A46",
"T  c #36514A",
"R  c #39544B",
"E  c #334454",
"W  c #374C55",
"Q  c #35445D",
"!  c #374A5D",
"~  c #394D5C",
"^  c #3A5356",
"/  c #3D6244",
"(  c #364363",
")  c #394B66",
"_  c #37456A",
"`  c #3B4C6C",
"'  c #3D5666",
"]  c #364174",
"[  c #394376",
"{  c #3B4B73",
"}  c #39447A",
"|  c #3C4C7C",
" . c #3F5377",
".. c #405E4A",
"X. c #456156",
"o. c #42586C",
"O. c #435A74",
"+. c #41547C",
"@. c #435D7A",
"#. c #466379",
"$. c #51677C",
"%. c #478022",
"&. c #498423",
"*. c #4C8A24",
"=. c #3C4581",
"-. c #3E4D82",
";. c #414D85",
":. c #425484",
">. c #455A84",
",. c #435389",
"<. c #465A8B",
"1. c #485F8D",
"2. c #465B93",
"3. c #475B94",
"4. c #49618D",
"5. c #4C6A88",
"6. c #566F8F",
"7. c #4B6296",
"8. c #4C639B",
"9. c #4E6898",
"0. c #53739C",
"q. c #607981",
"w. c #4B67A0",
"e. c #516BA4",
"r. c #536DA9",
"t. c #5672AC",
"y. c #5878A8",
"u. c #5670B0",
"i. c #5975B1",
"p. c #5B7BB3",
"a. c #5C7CBA",
"s. c #637EAE",
"d. c #5C81AA",
"f. c #5E81B7",
"g. c #6189AA",
"h. c #638BB3",
"j. c #6082BE",
"k. c #738DB3",
"l. c #6895BB",
"z. c #7A96B6",
"x. c #6FA3BB",
"c. c #6184C2",
"v. c #658BC5",
"b. c #668DCA",
"n. c #688FCD",
"m. c #6A95C4",
"M. c #6991CE",
"N. c #709EC6",
"B. c #6C95D3",
"V. c #6E99D6",
"C. c #6F9AD8",
"Z. c #709CD6",
"A. c #719DDB",
"S. c #71A3CB",
"D. c #75A9CB",
"F. c #79B2CD",
"G. c #76A9D7",
"H. c #73A1DE",
"J. c #7BB5D3",
"K. c #7DB8D9",
"L. c #76A5E2",
"P. c #78A7E5",
"I. c #77A9E4",
"U. c #79AAE7",
"Y. c #7AADE9",
"T. c #7DB6E5",
"R. c #7DB3EE",
"E. c #7FB5F1",
"W. c #7FB8F3",
"Q. c #819EB9",
"!. c #8BAABC",
"~. c #88A9C8",
"^. c #80BDDB",
"/. c #80B9E9",
"(. c #81BAEE",
"). c #80B7F1",
"_. c #82BBF4",
"`. c #84BFF9",
"'. c #83C1DC",
"]. c #9CC6DD",
"[. c #85C5E2",
"{. c #88C9E8",
"}. c #98C9E2",
"|. c #8DD4EC",
" X c #94D7EA",
".X c #86C2F4",
"XX c #88C8F6",
"oX c #8BCAF6",
"OX c #86C3FD",
"+X c #88C6FF",
"@X c #8ACAFF",
"#X c #8FD2F3",
"$X c #8ED1FF",
"%X c #95DCF2",
"&X c #91D5FE",
"*X c #93DBFF",
"=X c #A8CFE0",
"-X c #ACD6E5",
";X c #B2DBE5",
":X c #95E1F2",
">X c #99E3F2",
",X c #9DECF7",
"<X c #96E4FF",
"1X c #99E6FE",
"2X c #97E8FF",
"3X c #9BEAFF",
"4X c #9FF1FE",
"5X c #A4EEFF",
"6X c #A9E9F8",
"7X c #B5E9F3",
"8X c #A2F4FE",
"9X c #ABF2FE",
"0X c #A5FAFF",
"qX c #AAFCFE",
"wX c #B4F5FF",
"eX c #BAF6FD",
"rX c #B3FDFE",
"tX c #BCF9FE",
"yX c #C0EFF6",
"uX c #C4F6F9",
"iX c #C3FBFF",
"pX c #CCFEFF",
"aX c #D6F8FA",
"sX c #D2FFFF",
"dX c #E1FDFD",
/* pixels */
". o y + y y + y y + + y y u y y @ u u @ @ + @ %.u u u u @ + + + @ @ s @ @ d y + o + y y + y y y y + + y y y u y @ u y y + + @ u s y u y y O O y y y y @ y u + . ",
"O + y y s d y + y + y d u y y y @ @ u @ @ @ @ u @ @ @ @ @ s d d d d y @ @ u %.d s u y y y y y + + @ y u s d y @ @ u s @ @ @ y u s + y + y s d d d d y + y u y + ",
"u u y u d d y y y y u d d d d s e d @ @ @ u %.e e @ + e s %.*.*.*.%.y + @ d &.*.*.d s d u d y y y y u d d d d s s d @ + @ d d d y y + y s &.&.*.&.d y + y u u y ",
"y u &.*.&.d u s u y y &.&.*.*.*.&.&.e e u &.*.&.%.%.%.&.&.%.%.&.&.&.&.u u %.&.%.&.&.&.*.&.d u y u y y &.&.&.*.*.&.%.y @ d %.*.&.&.d &.&.&.d &.&.&.&.&.d y &.u i ",
"y y d &.&.*.&.d %.d d &.*.*.*.&.&.&.%.%.*.*.*.*.*.*.*.*.&.%.d d d d &.%.d %.&.&.&.d &.d &.*.&.&.&.u d &.*.*.&.*.*.&.%.%.&.*.*.*.&.*.*.*.&.d d d d d &.&.d d u y ",
"y y y y d *.*.*.&.&.%.%.*.&.d d %.*.*.*.*.*.*.*.*.*.*.*.%.d s d @ e &.*.&.d %.*.&.d y s &.*.*.*.&.&.%.%.*.&.d d %.*.*.*.*.*.*.*.*.*.*.*.&.d d d y s &.*.&.d u u ",
"+ y y u d d d d d s s d s d &.*.*.&.d s d d d &.&.*.*.&.&.u u d @ @ %.*.&.d y d &.u y s d d d d d d s d d d %.&.&.&.d d d d &.&.&.*.*.&.&.d s s + y d *.*.d y O ",
"+ + y u d u s u @ @ @ @ @ @ d &.&.%.d d d s d u d *.*.*.*.%.%.%.y d &.*.&.s + O O 9 O y y O O O O o o 0 + @ d %.*.%.d d e d e d &.&.*.*.&.&.&.&.d u &.&.*.s O O ",
"@ @ u %.%.@ @ @ @ e @ @ e @ + d &.d &.*.*.d y @ d &.*.*.&.*.*.*.&.&.&.*.&.@ 8 = * # # * = # # * # # # - + @ + d %.%.&.*.&.&.e e d &.*.*.*.*.*.*.&.&.*.*.&.@ + + ",
"+ @ @ u d e @ @ @ @ @ + u d e %.&.%.*.*.*.&.d &.&.*.*.&.&.&.&.&.d y d &.&.s 8 L E Q V J V P b V V Q J % 9 @ d %.&.%.*.*.*.&.d &.*.*.*.*.&.&.&.&.d e d &.*.%.d y ",
"@ @ d %.&.%.e @ d d d d %.%.&.*.*.&.*.*.*.&.&.*.*.*.*.&.d d u s - X X 0 e w / o.7.9.1.>.,.,.,.,.-.8.<.^ 5 9 0 s d d &.*.&.&.&.*.*.*.*.&.d d &.&.@ + + d *.%.d u ",
"u @ @ *.*.*.d d d *.*.*.&.&.*.*.*.%.*.*.d %.&.%.&.*.*.&.y d i ; $   $ # # 1 #.g.D.G.S.m.b.v.v.b.M.A.v.5.^ % % ; : e &.*.d %.&.d &.*.*.&.y d *.*.s + @ &.*.s y y ",
"@ @ y %.*.*.*.%.@ d &.*.%.d *.%.d &.*.&.&.*.&.&.&.&.&.&.d f 5 ^ ` ` ) E Q @.g.^.>X>X%X|.(.(.).(..XXXT.m.5.` ) ( W r s *.*.*.*.%.&.*.*.&.&.*.*.*.&.&.&.*.*.d y @ ",
"+ @ u u &.*.*.&.y e d *.%.d *.%.d &.&.d *.*.*.&.d s 0 i i g X.6.s.s.e.7.9.d.J.%XqXqX0X3X<X*X$X$X$X*XoXY.c.r.8.3. .T q @ &.*.*.&.&.&.*.*.*.*.*.&.&.&.*.*.&.%.d + ",
"y u &.*.*.*.&.&.*.%.d &.&.d %.*.*.&.y @ d &.*.d 9 =       Y $.~.].}.J.D.D.K.|.3X0X0X0X8X3X<X*X$X@X$X@X.XU.C.B.f.e. .L # e &.*.d @ d &.&.&.*.&.%.d d d %.%.&.d u ",
"@ u *.&.*.*.&.&.*.*.&.&.&.&.&.*.&.d y + s d d O ; T o.+.O.q.!.;X7XeX%X%X:X1X3X3X3X3X3X8X3X3X*X$X@X@X@X@XXX.X(.I.M.i. .J : 0 d e e d d d d &.&.&.&.&.&.&.&.*.%.u ",
"@ u &.y d *.&.&.*.*.%.d d &.*.*.&.d y s y @ + = Y $.k.z.k.~.=XtXiXeX0X0X0X0X4X3X1X1X3X3X3X3X<X$X@X@X&X&X*X$X@X.XY.B.u.| I ; 0 y e %.%.d @ %.%.*.*.*.*.&.*.*.d u ",
"u u d + s d d &.&.d @ @ @ @ &.*.*.&.%.%.%.@ 8 H O.z.=X7X-X;X7X9X9X0X4X4X4X4X3X3X3X1X3X1X3X3X<X<X<X<X*X*X$X@X@XOX_.Y.v.e.+.T ; s &.&.&.*.*.*.*.*.*.*.*.%.y &.%.u ",
"y u &.y y s d d d e e d e @ &.&.*.&.&.d e 8 R $.k.=XaXaXaXuX9X5X3X2X3X3X3X3X3X3X2X3X2X2X3X1X3X3X3X3X3X<X$X@X@X@XOX`.G.c.w.) % f *.*.*.&.&.&.&.*.%.%.%.@ y d u u ",
"@ u *.&.d d d u e d d %.@ @ %.*.*.&.&.d = U $.z.-XaXdXdXaXtXqX3X2X2X3X3X3X3X1X3X1X2X2X2X2X2X3X3X4X4X3X1X*X*X$X@X@X$X`.A.u.{ < i &.*.*.&.@ %.&.&.@ @ %.&.u y y u ",
"s d &.*.*.*.&.&.%.d @ @ @ e *.&.&.%.s 9 H #.Q.-XaXaXsXiXqX4X2X2X2X2X2X3X3X3X3X2X3X3X2X2X1X1X3X3X3X3X3X3X3X<X*X@X@X$X.XH.u.o.< 9 %.&.&.*.*.*.*.*.*.*.*.*.*.%.u u ",
"y d &.*.&.&.&.&.*.&.d d d %.*.*.d + : U  .h.].yXsXsXiX9X5X2X2X2X4X4X4X4X3X3X2X<X1X3X5X5X5X5X3X1X2X3X3X4X3X2X*X@X+X&XXXP.c.>.K ; e e %.%.&.&.&.&.&.*.%.*.*.%.u u ",
"y u &.&.&.&.&.*.*.*.*.*.*.*.*.*.d = L @.h.'.9XtXuXeX6X1X<X*X*X<X3X4X0X4X3X3X<X2X3X9XwXeXeXwX5X3X<X<X2X3X3X3X*X@X+X$X+X).A.y.O.I 5 0 e d @ e %.d u u u &.*.&.u u ",
"y u d &.&.*.&.d %.&.*.*.*.*.*.s - H #.l.{.,XqX8X*X&XXX_..X_.`.`.XX#X:X,X2X2X<X1X9XeXiXsXpXiXwX5X2X2X3X3X4X3X*X@X+X+XOX_.).Z.p.3.~ & 0 @ d %.@ d @ @ %.%.&.%.u @ ",
"y u &.&.&.%.d d d %.d d &.&.d : L O.h.{.5XqXqX3XXXT.B.b.M.M.n.n.j.m.S.^.|.3X4X8XwXiXpXsXsXsXiXwX5X5X3X3X3X2X*X@X+XOXOXOX`.).C.a.1.E ; 9 @ y @ e @ @ %.%.%.%.u @ ",
"@ u &.*.%.@ d d %.d d e d d - L O.d.[.8XqXqX9X:XT.v.w.2.8.8.7.-.-.:.9.l.'.4XqXrXiXpXpXpXsXpXpXiXwX9X3X2X3X3X*X@XOXOXOX+X+X`.R.A.p.,.E % 8 + e @ @ @ &.&.%.%.u @ ",
"y d &.&.@ @ + d *.*.&.%.d q L 5.l.'.,X8X>X|.{.T.v.w.] N A F |  .| { 1.g.'.9XiXiXpXsXpXpXpXpXpXpXtX9X3X3X2X1X*X@XOX+X@X@X$X+X`.R.B.a.<.! 4 8 @ e u d u &.&.*.u u ",
"y d &.&.%.d @ u *.*.&.s t Y #.l.{.4X8X XF.m.j.p.7.] N j l D -.0.y.y.d.D. XeXpXsXsXpXpXpXpXpXpXtXwX5X3X2X3X1X*X@X+X$X&X*X$X+X`.R.L.B.a.1.W 7 0 d &.&.&.%.&.&.%.y ",
"y u *.*.*.*.&.*.*.&.@ = H @.h.[.8X0X>XK.d.>.} } _ Z N x n | d.F.'.{.'. X7XpXpXpXpXpXpXpXpXpXeX9X3X1X3X3X3X3X&X@X@X*X*X<X*XXX).U.L.A.B.p.4.W ; e &.*.*.&.d %.u @ ",
"+ y &.*.&.u &.*.&.&.+ $ E 9.D.%XrXqX Xl.-.N j l l l M D [ d.J.:X0X0X9X9XeXpXpXpXsXsXpXpXiXeXwX3X2X2X3X3X3X1X*X@X@X*X*X*X&X+X).P.L.L.L.n.t.{ K 0 d &.u &.%.d @ + ",
"@ u &.*.&.u %.&.&.&.9 $ C 8.K.6XrXrX Xh.| l j j k k A -.d.J.:X4XqXqX0X0X9XeXuXpXsXsXsXiXeX9X3X1X<X2X3X3X3X3X*X@X+X$X*X*X&XOX).P.L.U.Y.B.p.| K 9 d &.d *.*.d @ + ",
"y u *.*.&.u u &.*.d o % Q 9.D.%XqXqX Xx.4.F N D A Z | y.J.:X4X4X3X3X3X3X3X8XwXiXsXsXpXeX9X3X2X2X2X3X3X3X5X1X*X@XOX+X+X@X@X`.).L.L.L.A.n.r._ 2 9 d *.*.*.*.&.%.u ",
"@ d &.&.&.d %.%.u 0 5 Y 5.l.[.3X0X0X>X^.l.d.0.0.6.9.d.D.|.0X0X3X3X3X3X<X<X3X8XwXiXiXeX9X5X<X2X2X3X3X3X3X2X*X&X@X+X@X@XOXOX).U.L.L.P.L.V.u.{ H 9 d *.&.d d *.&.u ",
"+ u d %.%.%.&.d O ; ^ 5.x.[.$X*X3X3X,X%X|.'.K.J.F.F.'.|.3X8X0X3X3X1X2X2X<X2X3X9X9X9X5X5X1X2X2X3X3X3X3X2X*X$X@X@X+X@XOX`.E.U.H.H.L.P.L.B.i.{ L 9 d *.%.s @ *.%.@ ",
"@ y d d %.*.*.d : P >.N. X3X$XXX.X*X2X2X:X:X:X3X,X,X,X3X3X3X3X2X3X3X1X1X1X3X1X3X2X3X2X3X1X1X3X3X3X3X1X*X@X+X`.OXOX@XOXW.Y.A.Z.A.L.L.Z.a.8.! 1 0 d %.d %.&.*.u + ",
"+ y y s d *.&.e : V 8.I.1X,X[.Z.Z.oX*X%X^.T.|.5XqX0X0X8X3X1X1X3X1X3X3X3X3X3X1X2X<X<X2X2X3X3X3X3X3X2X*X$X@XOX_.R.R.R.R.Y.L.A.A.H.A.B.p.5.o.3 - d *.&.%.&.*.*.@ o ",
"y @ @ @ d d %.e : E 3.G.#X{.m.e.d.T.XXK.p.d.S.#X8X0X8X8X3X3X2X3X3X1X3X3X3X3X2X2X2X2X2X2X3X3X4X3X<X*X$X@X+XOXE.U.L.L.L.L.A.H.L.L.V.a.3.) 1 9 u d &.*.&.&.*.&.@ + ",
"u y @ y @ e d u 9 1 ' j.H.B.8.} -.b.B.p.| G w.A.XX*X3X4X4X3X3X3X3X3X3X3X1X3X3X1X3X3X3X3X3X3X3X1X*X@X+X+X+XOX).U.H.C.C.A.A.H.L.L.B.u.| K - d &.d y y *.*.*.&.d u ",
"u y y d %.d %.d e 9 Y #.y.u.-.A G 9.e.2.D Z } t.H.XX3X8X4X3X4X3X3X3X3X3X3X3X1X3X3X3X3X4X3X3X1X*X$X@XOXOX+X+X`.R.U.A.B.B.B.L.L.Y.B.u.[ K - d *.&.y y &.&.u u d u ",
"@ u %.&.&.*.%.d d y w / O.:.] A A | -.[ A N A -.y.H.#X1X2X4X3X3X3X3X3X3X3X3X1X3X3X3X3X3X3X3X*X@X+X+XOXOX+X+X+XOX_.Y.H.C.A.L.L.L.B.y.| P - s &.&.u u &.u y u y @ ",
"o y &.&.&.&.&.&.&.d s 0 6 J V A A A Z B M c c S -.t.Z.{.$X<X2X*X<X*X<X2X1X3X4X3X3X<X<X*X*X*X&X@XOXOXOX+XOX@X@X@XOX_.R.L.H.H.L.L.B.i.+.P = s &.&.&.&.*.d &.*.u + ",
"+ y d d u d u d d d u u 9 % H D F A B m m c z M D | t.V.(.#X<X$X@X$X$X*X2X4X4X3X3X*X&X&X&X@X@X+XOXOX+X+X+X+X+X@X@X+X_.R.I.H.L.L.B.i.| P * s &.&.&.&.d y d *.u y ",
"u u y d d d y + @ y d %.d q 3 ) | F B v v v m B N A -.p.G.oX*X@XOXOX@X$X*X3X5X3X<X$X+XOXOX+X+X+XOXOX+X+X+X+XOX+X@X@XOX).U.H.L.L.B.u.+.b * u &.*.*.&.y y y d u u ",
"y y &.&.&.&.s y d y y d %.f U ` =.F B c v v m M m n [ t.H.oX$X+XOXOX+X@X&X*X<X*X&X@XOXOXOXOXOX+X+X+X+X+X+X+X@X@X+XOX_.R.L.L.L.L.V.u.=.P - i &.&.&.&.&.u u d u y ",
"@ y &.d &.*.&.d %.d d &.*.f 6 _ ;.F B v v v m B n n } e.A.oX&X+XOXOXOX+X@X@X@X$X@X+XOXOXOXOXOX+X+X+X+X+XOX@X@X@XOX).Y.L.H.L.L.L.B.i.;.P - y d d d u &.&.u &.u y ",
"y y y s &.*.*.*.&.&.&.d &.d 4 W F D C M v v v B N Z -.p.L.oX*X+X+XOX+X+X+X+XOXOXOX+X+X+X+X+X+X+X+X+X+X+X+X@X@XOX_.Y.A.C.A.H.L.L.B.i.+.P - i d d y i &.*.*.u u u ",
"+ + y d d d d d d s s s d s i 5 L C C S M v v B B Z +.p.I.#X*X+X+X+X+XOX+XOXOXOXOXOX+X+X+X+X+X+X+X+X+X@X@X@XOXW.Y.H.A.V.A.H.P.L.B.i.;.P - i u d y y d *.*.u y O ",
"+ y s &.d y y y s @ @ y @ 0 y i 5 I D F V v v B B B | p.P.oX&X@X+X+X+X+X+XOXOXOX+X+X+X+X+X+X+X+X+X+X+X@X@XOXW.Y.H.A.A.A.A.L.P.P.B.i.+.P = y d d u u &.*.&.y O o ",
"+ y y u d y + y + y @ + e @ + @ w T _ ] B m v B B B } t.Z..X$X@X+X@X+X+X+X+X+X+X+X+X+X+X+X+X+X+X+X+X+X+XOXW.T.H.C.C.Z.H.A.L.I.U.A.a.;.E - d *.*.*.&.*.*.&.y i + ",
"+ + u u d s y + + e y + y d d d w T ` } S M m B m N ] 8.M.(.@X@X@X@X+X+X+X+X+X+X+X+X+X+X+X+X+X@X$X$X@XOXW.Y.H.C.C.Z.A.A.A.L.Y.Y.L.a.,.Q > s &.&.d u s &.&.d u y ",
"y y u u &.&.y y s d d d d %.%.d w T _ G S B M B B A -.e.v.U.`.OX@X@X+X+X+X+X+X+X+X+X+X@X+X+X+X+XXX@XXXW.Y.H.C.H.A.H.A.H.H.I.I.L.M.t.+.K = s &.&.s O y d *.&.d y ",
"y u u *.*.*.d d &.&.*.*.&.&.*.%.t I _ } S B B S ] :.e.p.n.H.Y.R.`.+X+X@X@X@X@X@X+X@X@X@X@X+X`._.W.W.W.Y.H.C.C.C.H.Z.H.L.L.P.C.b.t.@.R ; X d *.*.s O y &.*.y y y ",
"y + u d *.*.*.&.y d *.*.%.d *.d 8 I _ } A B B F :.r.v.V.V.A.A.P.)._.+X@X@X@X@X@X@X@X@X@X@X+X_.Y.U.I.I.H.H.A.C.H.H.A.H.L.Y.L.n.u.+.U g f u *.*.*.&.d *.*.*.d y y ",
"O y d u &.*.*.&.y @ d *.%.d &.e : L _ G A M B F 2.f.H.Y.L.A.A.A.P.).`.`.`.`.`.OX`.OX+XXX`._.).A.C.C.A.H.A.H.C.H.H.H.L.L.L.M.i.,.W > d *.*.*.*.*.&.*.*.*.*.d d y ",
"y u d &.*.*.&.&.*.d d &.%.%.&.%.f 3 D F B M N F 2.j.U.R.L.A.A.V.C./.(.).).).).)./.).).).)./.P.L.V.C.C.A.A.A.H.A.H.U.U.C.M.t.:.) 4 9 u *.*.*.*.u d d d d d &.d s ",
"y u *.&.*.*.&.&.*.*.&.%.%.&.&.%.w I ( ] A B B G 3.j.L.Y.L.A.A.A.C.C./.A.L.L.A.L.A.P.P.A.L.L.A.A.C.C.H.C.A.H.H.A.L.U.H.b.r.:.Q 3 > i d d u d &.*.&.&.&.&.*.*.d d ",
"y d &.d d *.&.&.&.*.&.d d d d f ..o.+.;.F S G <.u.b.C.C.L.H.H.A.C.A.C.C.C.C.A.C.C.A.C.A.C.A.A.A.H.A.H.A.A.A.L.H.H.L.b.t.:.Q 2 4 a i u u u u u *.*.*.*.*.*.*.d u ",
"y d s + s &.d d &.d @ @ @ O : T O.y.s.e.[ [ <.p.n.C.~.).A.H.A.C.H.C.C.C.H.C.C.A.C.C.A.C.A.C.A.A.A.H.A.A.A.H.Y.Y.L.n.r.:.~ 6 5 g a f &.*.*.*.*.*.*.*.*.d u *.d u ",
"y u &.s s s s d d s s d @ - & ) 8.v.b.u.;.-.8.b.A.L.A.A.L.A.A.L.H.A.H.A.A.A.H.H.H.H.H.H.A.A.L.A.H.L.H.H.H.L.P.A.b.t.:.E 3 > p a a d &.*.&.&.*.*.d d d d y s u u ",
"+ d *.d d d d d s s d %.@ 8 4 ' e.j.a.r.:.-.8.c.B.L.C.).C.).L.A.P.L.P.L.P.L.A./.L.L.L.L.L.L.L.L.L.L.L.P.P.L.A.v.r.+.W 1 4 p i i f d *.&.u u &.&.u u d d d y u u ",
"d d &.&.*.*.&.&.d s y y @ + w Y o.<.7.3.;.} ;.3.a.B.P.).)./.H.).L.).L.).).).H.P.P.U.P.U.U.U.U.U.P.P.Y.Y.).L.b.t.:.~ 6 > g a i y d d *.*.*.*.*.*.*.*.*.*.*.d u u ",
"y d &.&.&.&.&.*.*.&.d d u d &.h 7 o.o.G _ ( ( ` 3.u.B.A.C.C.n.B.B.B.n.C.n.B.B.B.V.V.V.B.B.B.B.V.V.V.V.A.A.n.u.:.! 3 5 p p p i u d &.d &.&.&.&.&.&.&.&.*.*.&.u u ",
"u u *.&.&.&.&.&.*.*.*.*.*.*.*.f p & P E W K 2 K ' 4.u.a.a.i.i.i.u.u.i.i.i.u.u.u.i.i.i.i.i.i.i.i.i.i.i.a.a.t.>.E 3 ; p i i 9 y &.*.d d d u s u d d d d d *.&.u y ",
"u u u &.&.*.&.d &.&.*.*.*.*.*.d i > 4 6 4 5 r 5 U ) ;.3.,.,.,.,.,.;.,.,.,.,.,.,.,.,.,.,.;.,.,.,.,.,.,.,.;.+.o...> > , - O y u *.d y u d d s u i y d d d u &.u y ",
"y u &.&.&.&.d d d d d d &.&.&.d s f a q q p a a 7 I Q _ D ( C o.Q Q ( o.V Q o.C Q o.V Q Q Q Q ( ( ( S ( ( C ..4 p a q i y d *.*.d d i y u y y y y y d d d &.u y ",
"y u &.*.d y s d &.%.d e d *.&.&.&.&.d i i a a a r 6 3 b L L 2   2 2 3 3 3 2 3 3 2 3 3 3 3 2   U 3 3 ..K K ..7 5 a f y d d *.d *.d d y y y i y y y u &.&.&.d u u ",
"y d &.d s + + d *.*.&.&.*.&.&.&.*.*.&.s i p q g p p > ; ; > > > > > > > , q r , q , , , > % % > h h h h g p 5 p a d d *.*.*.*.*.*.*.u y y u y u u u &.u &.*.u u ",
"y d &.&.d d y d *.*.*.&.&.&.d *.*.*.&.d f 0 q 0 f f i i i i a p q h h a h a a a h a h a q q > q a i i i i i a i d d *.*.*.d d *.*.*.d d u d d d &.&.&.&.&.&.d u ",
"@ u *.*.*.*.&.*.*.%.d d &.*.*.*.*.&.&.d d 0 0 s d d &.d d d f a h h h q q p q p q p a a a h q h a i y y d d d d d d *.d d d d d *.*.*.*.&.*.*.*.*.*.*.&.u u u y ",
"@ @ %.*.&.d &.*.&.%.d s %.*.*.&.&.d d d &.&.%.s d *.*.*.&.d d f a a 9 q p > 8 8 q q p a p > p p i i u y d *.*.d d d d d *.*.*.d d *.*.*.*.&.*.*.*.*.u &.&.u y O ",
"@ u &.*.&.u %.&.*.%.d s d &.&.%.d d d d &.*.&.d d *.*.*.*.d u i f i i i y i i i i y y f y 9 i i u d d y d d *.d d d d d *.*.d d d *.*.*.*.d d *.&.u u *.*.u y y ",
"y %.*.*.&.d u %.*.d y y u d u u d &.*.*.&.s y &.*.d *.*.*.d u d d d d d d u d &.d d d d u y i u d d u d d d d d d *.*.*.d y u d *.&.*.*.*.d d &.*.*.*.*.*.*.u u ",
"@ u &.&.%.d d &.d %.u y %.&.d d d *.d d d d &.&.d d *.*.*.d d *.&.&.&.u u &.*.*.*.d *.d d d d d d d d d d *.d d d d d d d *.*.*.d d &.*.*.d d &.*.*.&.u u *.&.u ",
"@ y %.%.%.%.*.&.d *.&.d %.&.*.&.&.*.d d &.*.*.d d d d *.*.d d *.*.&.%.u u &.*.&.d d d d d d *.*.d *.d d d *.*.*.*.*.d d d *.*.d u d d *.*.&.*.*.*.&.d u u &.%.u ",
"@ y u u &.*.*.*.*.*.*.*.d d *.&.&.*.*.d &.d d u d d d *.*.*.*.*.&.&.d d &.*.&.d d d d d *.*.*.*.*.*.*.*.u u *.&.d *.*.*.d d d y d d d *.*.*.&.*.&.d d &.&.*.u y ",
"+ y u u d *.&.&.*.*.*.%.d d *.*.*.*.&.&.*.&.u u d &.d d d d d *.*.&.&.&.&.*.u u *.d y u d *.&.*.*.*.*.d u d *.*.*.*.*.d *.d d d d &.d d d u d *.*.*.&.d &.&.y o ",
"y @ @ @ u u d &.*.*.&.u u &.*.*.&.d d &.*.*.d d d &.d d d d d d d &.&.&.*.*.d u *.d y y u d d d *.*.d d d d *.*.*.&.d d *.*.d d d *.d d u u d *.*.*.&.&.&.&.y O ",
"y y @ u y y d %.&.&.%.%.u %.&.d u d d d *.*.*.d *.*.*.&.d *.*.d y y &.*.*.&.&.d *.d i y y y d d *.*.d u d d d d u d u d *.*.*.d &.*.*.*.d *.&.d u u &.&.*.&.u y ",
"+ + @ @ u @ u u u @ u u u u u y y y d u y u d d d d d d d d d d o y u u u y y u y y y y y y y u u y y y d u u y u y u u d d d d d d d d d u d u y y y y u y y y ",
"o O @ @ y u @ + + + + @ u @ + y u u u u y i y u u u y y y i u d y y y y . i y y y y y y y y y i y i y y u y y y u y u y y y y u u y i y u y u u i o y y o y . o "
};
