/* XPM */
static char *Group_10_7__resized[] = {
/* columns rows colors chars-per-pixel */
"80 80 229 2 ",
"   c #160D3C",
".  c #2E521B",
"X  c #31561D",
"o  c #335A1D",
"O  c #37631B",
"+  c #39661D",
"@  c #3C6D1E",
"#  c #3F711E",
"$  c #2C4827",
"%  c #2E4C2B",
"&  c #315324",
"*  c #355C24",
"=  c #395E27",
"-  c #33542C",
";  c #355A2B",
":  c #395D2C",
">  c #2C4434",
",  c #2F4B34",
"<  c #2E453B",
"1  c #304733",
"2  c #324C35",
"3  c #31463B",
"4  c #334B3C",
"5  c #385736",
"6  c #3A5B33",
"7  c #35523B",
"8  c #39543A",
"9  c #376022",
"0  c #3A6424",
"q  c #3D6B22",
"w  c #3C642B",
"e  c #3E692A",
"r  c #3F7121",
"t  c #3E6332",
"y  c #3F6738",
"u  c #41751F",
"i  c #43781F",
"p  c #406F25",
"a  c #416C2B",
"s  c #417521",
"d  c #457C21",
"f  c #467B26",
"g  c #1C1747",
"h  c #221C4E",
"j  c #221E51",
"k  c #25214E",
"l  c #2A264C",
"z  c #2C3D46",
"x  c #2C3C4C",
"c  c #303E4E",
"v  c #262355",
"b  c #2A2751",
"n  c #2B2955",
"m  c #2C2C5C",
"M  c #2C3658",
"N  c #303D5A",
"B  c #2D2F61",
"V  c #2E3162",
"C  c #313464",
"Z  c #333C65",
"A  c #323669",
"S  c #333A6C",
"D  c #353C72",
"F  c #383E75",
"G  c #2E4243",
"H  c #314646",
"J  c #334C43",
"K  c #32444D",
"L  c #344C4A",
"P  c #395443",
"I  c #395449",
"U  c #344354",
"Y  c #364954",
"T  c #35445B",
"R  c #384C5A",
"E  c #395252",
"W  c #3B5659",
"Q  c #354363",
"!  c #384966",
"~  c #36436A",
"^  c #3A4D6A",
"/  c #3C5168",
"(  c #374273",
")  c #384374",
"_  c #3C4D75",
"`  c #3A457A",
"'  c #3C4A7B",
"]  c #3E5175",
"[  c #416458",
"{  c #425876",
"}  c #445C7D",
"|  c #4C646E",
" . c #49687D",
".. c #478022",
"X. c #498423",
"o. c #4C8A24",
"O. c #3E4C81",
"+. c #3F5082",
"@. c #414E87",
"#. c #425485",
"$. c #465C87",
"%. c #43558A",
"&. c #465A8B",
"*. c #475A95",
"=. c #495E95",
"-. c #496388",
";. c #536E83",
":. c #557789",
">. c #4B6395",
",. c #4D6895",
"<. c #4C649B",
"1. c #4F699E",
"2. c #516D94",
"3. c #5A6F96",
"4. c #516C9B",
"5. c #5C7294",
"6. c #54729C",
"7. c #4F67A0",
"8. c #4F68A2",
"9. c #526CA5",
"0. c #536DA9",
"q. c #5878A2",
"w. c #5673AC",
"e. c #587AAC",
"r. c #5675B1",
"t. c #5976B4",
"y. c #5B7AB4",
"u. c #5D7DBB",
"i. c #647CA3",
"p. c #5C82A9",
"a. c #5E83B4",
"s. c #5F81BB",
"d. c #6987A9",
"f. c #7289AE",
"g. c #648FB3",
"h. c #6184BD",
"j. c #638ABD",
"k. c #6996B9",
"l. c #7A99BA",
"z. c #6286C2",
"x. c #658AC5",
"c. c #668CC9",
"v. c #688FCC",
"b. c #6996C6",
"n. c #6991CD",
"m. c #709BC6",
"M. c #6C94D2",
"N. c #6E9AD6",
"B. c #6F9AD8",
"V. c #709ED4",
"C. c #729EDC",
"Z. c #6FA2C7",
"A. c #75A8C9",
"S. c #7AB1CA",
"D. c #75A8D7",
"F. c #73A1DE",
"G. c #7CB6D8",
"H. c #76A5E2",
"J. c #78A7E6",
"K. c #77A8E5",
"L. c #79AAE6",
"P. c #7AACEA",
"I. c #7CB2E4",
"U. c #79BAE4",
"Y. c #7DB2ED",
"T. c #7FB5F2",
"R. c #839EB4",
"E. c #83A2BD",
"W. c #92B3CD",
"Q. c #82ADD0",
"!. c #94B5D0",
"~. c #98BAD3",
"^. c #82BDEC",
"/. c #80B7F2",
"(. c #82BBF5",
"). c #84BEFA",
"_. c #99C0CE",
"`. c #83C3DD",
"'. c #89CBDC",
"]. c #9BC2DC",
"[. c #A4C7DB",
"{. c #ABD3DE",
"}. c #87C9E5",
"|. c #94CEEC",
" X c #8ED5EA",
".X c #94D7EA",
"XX c #88C5F4",
"oX c #8BCCF4",
"OX c #86C3FD",
"+X c #88C6FF",
"@X c #8ACBFE",
"#X c #8ED5F4",
"$X c #8ED2FE",
"%X c #8EDAFE",
"&X c #93DCF5",
"*X c #91D5FF",
"=X c #93DBFE",
"-X c #98DCF9",
";X c #A9CCE0",
":X c #ABD7E7",
">X c #8FE4FF",
",X c #98E5F4",
"<X c #95E5FF",
"1X c #99E6FE",
"2X c #96E8FF",
"3X c #9BEBFF",
"4X c #9EF1FF",
"5X c #BDE5ED",
"6X c #A3EDFF",
"7X c #A9EAFA",
"8X c #B6EAF2",
"9X c #BFEEF2",
"0X c #AFF0F7",
"qX c #A3F4FE",
"wX c #ACF3FE",
"eX c #A4F9FE",
"rX c #ABFBFF",
"tX c #B2F0F7",
"yX c #B4F5FE",
"uX c #BBF6FC",
"iX c #B4FAFF",
"pX c #BCFAFF",
"aX c #C1EEF2",
"sX c #C6F4F8",
"dX c #CCF6F9",
"fX c #C4FCFF",
"gX c #CCFEFF",
"hX c #D2FEFE",
"jX c #DAFEFE",
/* pixels */
". O u @ u u @ u u @ @ u u u u u # # ..# # # # X...# i # # # # @ # # # # # d # # O @ u @ @ u # u u @ @ u # i i # # i i # # @ # i i u i s u + @ u @ u s u u i + o ",
"+ @ u u u d u @ u @ u d d u u u # # # # # # # # # # # # # # d ....i # # # ......d s u u u u # # u # u i d i u # # d # # # # i i s @ u @ @ d d d d i u @ u i u u ",
"i i u i ..d u u u u i ..d d d u r ..# # # i ..# r # # # r ..o.o.o...# # # ..X.o.o...s d d d u # # u i ..d d d # # d # # # d d d s u @ u s ..o.o.o...u @ u d i u ",
"u i X.o.X.d u u i u u ..X.o.o.o.X...r # i X.o.X.X...X.X.X.....o.X.X.X.# # ..........X.o.X...u u i u u ..X.o.o.o.X.X.r # d X.X.........X.......o.X.X...i u X.i u ",
"u u ....X.o.X.d ..d d ..o.o.o.X.X.X.X...X.o.o.o.o.o.o.o.o.......r ..o.....X.X.X.......d X.o.X...X.i d ..X.o.o.X.X.X.X...X.o.o.o.X.X.o.o.o.d d d d d o...d d i u ",
"u u u u ..o.o.o.X.X.....o.X.d d X.o.o.o.o.o.o.o.X.X.o.o...r r # # # ..o.X.# ..o...d s u ..o.o.o.X.o.X...o.o.d d X.o.o.o.o.o.o.o.o.o.o.o.d d d d u s X.o.X.d i u ",
"@ @ u i i d X.d d d s d s d X.o.X.X...i r ..d r # r r r r q + + O O @ r r + O + # # u i i ..d d i d s d d d X.o.X.X.d i d d X.X.o.o.o.o.X.d s d @ u d o.o.d u + ",
"@ u u i i i u u s # @ s @ u d X.X.....i ..# q * - % - - & % % % $ $ % - - % % % & 9 @ ..d u u u u # # # # r d X.o.....d r d d r d X.o.o.o.....X.d u ..o.o.s + O ",
"u u i X.u u u u # # # # r @ @ d ..d ..X.X.r 9 > x M x x x x G x x z x G x x M M H - + d i @ # @ @ # r # # @ + d ..d X.o.o...r # d X.o.o.o.o.o.o.X.X.X.o.X.# @ @ ",
"p u i i i u u u @ # # @ u d @ q 0 o + r r q 5 | 2.i.6.3.5.5.5.5.6.5.5.6.3.,.4.9.-.E - + + o o X X X X X X * + d o...X.o.o.X...X.o.o.o.o.X.X.X.X.d r d ..X...d u ",
"u u i f f d i i s d d d ..d q ; 4 4 , , % 7 [ d.!.~.~.!.!.!.!.!.!.!.!.W.S.A.G.G.k.;.E , 1 > > > > > > > < , ; s X.X.o.o.X...X.X.o.o.o.X.d d X.X.r # # ..X.X.d i ",
"u u i o.o.o.d i ..X.o.o.X.s w L ! ~ ~ Z M ^ i._.5XhXsX9X9X9X9X9X9XaX9X8X7X&X,X,X}.k.-.N M T Z T Q Q Q ~ ( ~ I a ....X.o.d ..o...X.o.o.X.u ..o.o.d @ # X.X.d u u ",
"O u u u o.o.o.d u i X.o.r ; I :.f.f.f.i.5.d.W.aXjXjXgXfXfXfXfXfXfXgXgXpXiXqXeXeX3X`.k.9.,.q.q.d.d.i.q.e.a.p. .I 0 r X.o.X.o.X.X.X.o.o.X.X.o.o.o.....X.o.o.d u # ",
"u u i i X.o.o.d u u i f ; J  .E.;X;X;X~.~.[.5XdXjXdXpXiXiXiXiXpXiXpXiXiXrXeXeXqX3X,X}.G.G.G.`.].].].`.G.}.`.k. .I w # d X.o.o.X.X.X.o.o.o.o.o.X.X.X.o.X.X...i # ",
"i i i o.o.o.X.f o.d u = J { E.5XdXhXdXdXdXdXgXgXfXiX6X1X2X3X3X3X3X3X3X1X3X3X3X3X3X3X3X,X,X4X0XuXsXuX0X3X4X,X}.k.-.J - + d o.o.d u d X.X.X.o.X.X.d d X...d X.d i ",
"u i o.d X.o.o.o.o.u w I  .l.:XuXgXhXhXgXhXjXgXfXpXwX3X<X>X<X<X<X<X>X>X<X<X<X<X1X3X4XqXeX4X4XrXpXfXpXrXrXeX3XoXI.s.$.L & 0 r d r r d ..d d ..X.X.X...X.X.o.o...i ",
"u i o.u i o.o.f d 9 I  .R.{.sXiXiXtXrXtXyXtXtXtXqX4X2X2X<X2X<X<X>X<X<X<X<X<X<X1X3X3X4X4X4XqXqXwXrXwXrX4X3X<X@XXXI.h.} H & + s s i ....d r ..X.o.o.o.o.o.o.o.d i ",
"i i i u u i i s w I -.A.:XdXfXwX<X#X}.`.`.`.`.G.}. X,X3X2X2X3X6X6X6X6X6X6X6X6X3X3X3X3X3X3X3X3X<X<X<X1X=X%X@X@X*XXXC.9.! 1 q o.o.X.o.X.X.o.o.o.o.o.o.X...i X...i ",
"u i d i u u p : E  .g.|.7XuXpX6X%XG.b.p.p.q.q.4.a.S.&X4X4X2X3XwXiXyXyXuXyXiXwX3X2X<X3X3X3X3X<X*X$X$X$X*X$X@X@X@X(.N.9.) 2 0 X.o.o.o.o.X.X.X.X.X.....X.# i i i i ",
"u i o.d i p . H } g.'.3X6X-X-X&X^.b.>.' ' ' ` ` >.k. X4X4X4XqXyXfXfXfXfXfXfXuX6X2X2X2X3X3X3X=X$X+X+X@X@X@X+X+XT.K.z.=.Q % 0 d o.o.o.o.X.# ..X.X.# # ..X.i # i i ",
"s d d o.o.d & c 4.G.>X3X}.F.V.M.h.@.V n ( +.>.$.6.Z. X4XeXwXiXfXgXhXhXhXhXgXfXyX6X3X1X2X2X3X<X*X@X+XOX).).(.T.P.C.t.+.T - s o.d X.X.X.o.o.o.o.o.o.o.o.o.X...i i ",
"s d X.o.o.d $ K <.K.%X&XD.r.<.>.@.B j m >.g.A.Z.Z.`.&X4XwXyXfXgXhXhXgXhXhXgXgXfXiX6X3X<X2X3X1X<X%X$X+X).T.P.J.J.B.u.+.M - + d o.X.o.X...X.X...X.X.X.X.o.o...i i ",
"u d X...d s - R 1.V.T.H.e.' V m m h M $.Z. X4X,X,X<X1X6XiXgXgXgXgXgXgXgXgXgXhXgXfXyXqX1X2X2X3X3X2X=X$X).T.J.H.H.C.z.<.! 2 = p X...r r # # r ....i i i X.o...i i ",
"u u d s q t [ :.j.n.z.7.( j     h C -.Z.'.4XrXrXqX3X3X6XuXgXjXhXgXfXgXgXgXgXgXhXgXfXuXwX6X3X3X3X3X3X=X@X(.Y.J.P.P.H.k.6.E % . & & $ $ & @ # r r # # ....X.X.i # ",
"u i d q 5 W p.A.G.k.1.D v j g g A 2.A..X3XqXqXqX4X3X2XqXuXgXjXgXgXgXgXgXgXfXgXgXgXgXgXuXwX3X3X2X3X3X1X=XoX).T.T.T.+X}.S.:.W H H K U U I ; 0 # # # # ........i # ",
"u i d * H #.A.&X,XA.,.~ ~ ~ S ' 4.A..XrXeX4X3X1X3X2X1X6X7XfXgXgXgXgXgXgXgXgXgXgXgXgXgXuXwX3X2X<X3X4X3X1X%X@XOX+X$X3XqX,XS.i.#.#.&.<.<.] I ; @ @ # # X.X.......# ",
"u ..f & K #.A.-XeX'.Z.p.p.d.d.g.A. XqXrXeX3X1X3X1X<X3X3X6XiXpXfXgXhXhXhXgXhXhXhXgXgXpXyX6X6X<X<X3X4X4X3X<X@X+X@X=XqXiXiX:X!.E.l.m.Z.A.k.-.7 & @ # ........X...# ",
"u d d * K #.b. XeX,X'.`.'.'.'.}. X,X4X4X3X3X3X3X3X3X3X1X1X6XyXfXgXhXgXgXgXgXgXhXgXuXwX3X3X1X1X3X3X3X3X<X%X@X@X$X<XwXpXgXdXaX:X|..X#X,X}.k.} L w # X.......X.X.# ",
"u i ..9 J { j.}.eXeXrXeXeXeXeXeX4X4X3X1X3X3X3X3X3X3X3X<X<X<X6XyXfXfXfXpXfXuXfXfXuXwX3X<X<X3X3X3X3X3X<X=X@X+X@X%X3XiXfXjXjXhXfXiXrXeXeX,X^.j.-.E e s X.......i # ",
"u i i = H O.z.}.4XrXeXqXqXqXqXqXqX4X1X<X1X3X3X3X3X3X3X3X<X2X3XqX6XwXwXwXwXwXwXwXwX6X3X<X<X3X3X4X3X<X=X@X+X+X@X>X3XiXfXhXgXfXwXrXeX4X3X=X$XY.b.2.W ; 0 d X.# # @ ",
"@ i i = J ' y.K.&X3X4X1X#XoX-X3X3X-XoXoX=X3X3X3X3X3X3X3X3X3X3X3X6X3X3X3X6X3X3X3X3X3X3X3X2X3X3X3X3X=X$X+XOXOX@X%X3XiXfXfXpXwX4X4X3X<X=X$X$XOXK.e.^ < 9 d X...# # ",
"u ..X.0 J ' 7.z.G.oX<X*XK.V.I.#X&XU.F.V.XX&X3X1X=X1X1X3X3X3X3X2X2X<X2X<X<X<X<X<X2X2X3X3X3X3X3X<X=X@X+XOXOX@X@X*X=X6XiXiXwX3X<X<X-X*X$X$X@XY.M.4.R - q X.o.X...i ",
"# d f 9 L ) O.*.a.I.oXXXj.0.v.^.oXM.t.w.F.oX1X$X$X=X3X3X3X3X3X3X3X2X<X<X3X<X<X2X<X3X3X3X3X4X1X=X@X+X+XOX+X@X@X+X@X-X6XqXqX3X<X=X*X@X*XoXL.z.-.W y f d r ..o.X.i ",
"# d s = L D D F &.c.D.N.<.#.9.V.D.e.#.#.a.G.@X@X@X=X<X1X3X3X<X1X<X3X3X3X3X3X3X3X3X1X<X3X3X1X=X$X+X+XOXOXOXOXOXOX@X*X=X2X3X3X=X$X@X+XoXL.g.$.L : ..X.X.r # o...# ",
"# i s = L ( A B D <.y.9.' A @.0.y.&.S A %.h.P.OX*X=X=X=X=X=X%X*X=X<X3X3X4X3X3X4X3X<X=X$X=X=X$X@XOXOX+XOX(.Y./.).+X@X$X%X=X=X=X*X@X/.H.p.{ J : d ........X.o.# @ ",
"# # @ - L ~ D V V ) @.' S m A { @.D B m C %.s.K.@X*X$X@X@X@X@X+X@X=X1X3X4X3X3X3X1X<X$X@X+X@X+X+X+X@X+X).Y.J.L./.OX@X@X@X@X@X@X*XXXH.u.} 3 * @ X.o.X.....o.o.# + ",
"# # # & K ) ) A n B V V m m m C V m m b k A =.j.L.OX@X@X@X+X+X).@X@X=X1X<X<X1X1X<X$X@XOX).OXOX+X+X@X@X).L.F.C.P.).OX+XOX@X@X@X$X(.n.<.Q $ q ..X.o.o...X.o.o.# + ",
"i # @ - Y O.` C n n m n n n n m m m b b j B ` >.j.I.oX*X$X@X+XOX+X@X$X*X*X*X*X*X$X@X@XOXOXOXOXOX+X@X@X).L.V.N.F.L.(.OX@X@X@X+X+XP.x.=.! $ s X...# i o.o.o.....d ",
"s s r 9 L ! F A m m n n l l b n n b l l l n V A %.j.^.XX$X+X+X+X+X+X+X@X+X@X@X@X+X+X+XOXOXOX+X+X+X@X@X).Y.F.C.N.F.Y.(.+X+X+XOX(.H.u.*.! $ r o.X.u # o.X.i d # # ",
"# d f r 6 L T S A V m n l l l b n b l l l b k k A =.x.H.T.OX+X@X@X+XOXOXOXOXOX).OXOX+X+X+X+X+X+X+X@X+XOX(.Y.F.C.C.F.Y.(.).(./.T.F.y.*.! % r X.X.d i X.i # i d # ",
"O # X.d s w L Q ` S B l l l l l l l l l l l l v V ` >.u.N.T.+X+X@X@X+XOXOXOXOXOXOX+XOX+X+X+X+X+X+X@X+XOXOX(.Y.H.C.F.H.L.P.P.P./.C.u.*.Z $ p d ..X.X.X.d ..o.i # ",
"@ # d d d q 6 K ~ S C n b l l l l l l l l l b b n V S +.w.M.Y.T.OX@X+X+X+X+X+X+X+X+X+X+X+X+X+X+X+X+X+X+X@X@X).P.F.N.C.C.C.F.F.H.C.z.8.{ 1 = d X.X.X.d d d o...u ",
"i i u d X.r 0 - H T A C m n b l l l l l l l l b l k v V ' w.v.F.(.+X@X@X@X+X+X+X+X+X+X+X+X+X+X+X+X+XOX@X@X*XXXP.F.N.N.N.B.B.C.H.F.M.z.,./ 7 w d X.X.u # # d i i ",
"# i X.o.X...# q : H T F A m n l l l l l l l l l l v m m S +.0.x.L.).OX@X@X+X+X+X+X+X+X+X+X+X+X+X+X+X+X@X@X@X(./.F.C.N.C.C.C.C.C.F.C.B.x.,./ J 0 d X...u u ..i # ",
"# i ..X.X.o.X...r 7 ! O.F C l l l l l l l l l l l b m m B ) <.s.J.(.).OX+X@X+X+X+X+X+X+X+X+X+X+X+X@X@X+XXXOX/.L.C.B.C.C.C.C.C.C.H.H.J.C.z.1.^ P 0 # X...d ..i u ",
"# # # # ..o.o.X.d P ! +.F m l l l l l l l l l l l b n m v D *.z.J./.P./.).@X@X@X+X+X+X+X+X+X+X@X@X@X@X+X(./.L.F.C.C.C.C.C.C.C.C.C.H.L.K.F.x.9.^ < * ..X.X.d u u ",
"# # # ....X...# q 7 T ` D m l l l l l l l l l l l b m m B ) <.s.C.J.C.J./.OX@X+X+X+X+X+X+X+X+X+XOX@X@XOX/.H.C.C.C.C.C.C.C.C.C.C.C.F.H.H.J.F.c.0.^ J w ..o.d # + ",
"@ # # X.i # # # + ; J T S A M l l l l l l l l l l b b n m ( +.9.z.M.N.F.P.(.XX+X@X@X@X@X@X+X+X).(.).(.Y.L.C.B.C.C.C.C.C.C.C.C.C.C.C.B.H.J.J.F.c.7./ I e d # + O ",
"@ @ i ..i u # # @ + * < Q ( D C l l l l l l l l l l l l n V ( O.7.s.n.F.L.P.T.OX@X$X@X@X@X@XOXT.L.L.L.L.F.C.C.N.C.F.F.C.C.C.C.C.C.C.C.F.H.J.J.B.z.8.{ I = O + @ ",
"@ @ i i i i # # # # q * J T ~ A m n l l l l l l l l l l b m m V O.0.c.F.K.F.L.T.XX+X+X+X+XOXT.P.F.C.C.F.C.C.C.C.C.C.C.C.C.F.C.F.C.C.C.C.C.C.J.J.F.c.8.^ 3 q # i ",
"@ # i ..o...u u s d d # w 7 T Z C C n b l l l l n l n n n m m m ) 7.c.F.H.B.F.P.T.T.T.T.T.T.P.H.C.N.N.N.C.C.F.C.C.C.C.C.C.C.C.C.C.C.C.C.C.C.H./.P.B.u.@.G q u i ",
"i u i X.o.o.i i ..X.o.o.d e 8 T D S V b l l l l n n n n m V B V ' 9.v.F.J.F.F.H.L.L.K.L.L.L.H.F.C.N.C.C.C.C.C.F.C.F.C.F.F.C.C.F.C.F.C.C.C.C.Q./.J.M.t._ < = @ u ",
"@ u i ..o.o.o...# ..o.o...r 6 R ` F A n b l b n m m m S ' @.` S ' <.c.F.P.F.C.C.C.C.C.C.F.B.F.F.C.C.C.C.C.C.C.C.F.C.F.C.C.F.C.C.F.C.C.F.H.H.H.H.v.t.-.E - q u # ",
"@ u i i X.o.o.X.# r r o.X.r w W O.` A n b n n m m C A ' <.0.>.` ` >.c.F.K.F.C.B.N.N.N.N.B.B.B.B.C.C.F.C.F.C.C.C.C.C.C.C.C.C.F.C.C.C.C.F.J.J.C.M.w.#.E : q s u u ",
"# i ..o.o.o.X.X.o...r o.X.r ; R ` ) A n n m V S A A S &.y.x.y.#.O.>.c.F.K.F.C.C.C.C.C.C.F.B.C.C.C.C.C.C.C.F.C.F.C.C.C.C.C.F.C.C.C.C.C.F.J.H.M.u.#.Y ; p d ..d i ",
"@ ..o...o.o.X.X.o.o.X.X.X...q P Y Z A A V A ) %.%.` F %.h.N.n.0.<.w.n.F.K.C.C.C.C.C.C.C.B.F.C.F.C.C.C.C.C.C.C.C.C.F.F.C.C.C.C.C.C.F.J.J.H.v.i.$.R 2 0 s o.o...i ",
"# ..X.i i X.X.X.o.o...........q 5 Y S ) A ) &.w.w.*.` #.t.C.F.c.s.z.N.C.H.C.C.C.B.F.F.F.F.B.F.B.C.C.C.C.F.C.C.F.C.C.C.C.C.C.C.C.C.J./.J.c.t.&.{ 8 : a i d o.d i ",
"i r d # # ....X.X.r # # @ # X.X.f 5 R ( A O.9.v.n.y.%.%.t.B.J.H.C.C.C.C.C.C.C.C.F.F.F.B.F.F.C.F.C.F.C.F.C.C.C.F.F.C.C.F.F.F.F.F.C.J.C.v.0.@.T 8 6 a a 0 u d d i ",
"# i ..r # ..r ....d # ..# r ..o.o.p 6 Y M O.y.B.H.M.y.w.x.H.T.T.T.P.P.J.H.C.C.C.B.F.B.F.F.F.F.F.C.F.C.C.C.C.C.B.C.F.J.K.L.J.L.P.J.C.n.t.%.T 3 5 : w = + p u i i ",
"# ..o...d d ..r r r ..X.r r ..o.o...p 5 x ' r.N.L.K.M.v.N.H.P.P.P.L.L.H.F.F.C.F.F.F.F.F.F.B.F.B.F.C.C.F.C.F.F.C.F.F.H.J.J.L.P.P.Q.n.t.$.{ 3 6 t = = p u u u u i ",
"# ....X.o.o.....X.# # # @ # o.X.X.d d s 5 ^ <.u.M.C.B.M.M.n.n.v.n.n.n.M.B.C.H.H.F.H.F.F.H.F.F.H.F.H.H.F.H.F.H.H.F.C.n.n.v.M.M.C.n.t.#.T 8 t a a p p f o.o.d d i ",
"i ..X.o.o.o.X.o.o...........o.o.X.s s a : I { >.w.s.u.y.t.r.w.r.w.0.0.u.n.H.P.P.J.J.J.J.J.J.J.L.K.K.J.J.K.K.L.P.H.M.s.w.0.0.r.y.3.#.{ 3 8 = a p f d d o.o.X.d i ",
"# ..o.X.......o.o.o.o.o.o.o.o.o.X.+ = a : 5 E { %.*.*.%.%.+.%.+.O.O.O.<.s.C.L.P.J.H.H.J.H.H.H.H.H.H.H.H.H.J.L.Y.F.z.1.#.O.#.%.*.#.{ P 8 : : = p u d d d o.d i u ",
"# i i X.o.o.X.....X.o.o.o.o.X...s + 0 = = : 8 L T Q T T T U T U U x U ^ ,.s.v.v.c.x.x.x.x.x.x.x.x.x.x.x.x.x.v.n.z.4.] N x c T T U J 8 : 0 = + p p d d d X.d i u ",
"# i X.X.X.X.i ........i X.o.X...i i s 0 e w 6 P J H H 3 3 3 3 3 1 1 2 I { >.8.0.7.7.7.7.8.8.7.7.7.7.8.8.7.7.9.0.<.{ Y 3 2 2 3 J J 8 : : = + p p u u d d d X.i u ",
"# ..X.X...# i i ....i @ X.X.X.X.X.o...d p e a a a 6 : - - - - : - - a 8 U { @.{ { F O.F F { { F ' ` F { ` ' ' @.{ W P a a a t a t : : = O p u u u i d X.X.d i i ",
"# ..X...# # # # o.o.X.X.X.X...X.o.o.o...f s a s p f a * = : : w : a a : 8 Y U Y Y Y N U c U N U U R Y Y Y U N T Y P 6 a a a a p p f 0 = O u u u d d d d X.X.d i ",
"# ..X.X.X.i # X.o.o.o.o.o.X...X.o.o.o.o...s s d X.X.s u p w : a w a a : 5 8 8 8 8 8 8 8 8 8 8 8 8 8 8 8 8 8 8 8 8 8 a a a t a p f d i p u d d d X.X.o.X.X.o.d i ",
"# ..o.o.o.o.X.X.o.X...i ..o.o.o.o...X.X...d # ..o.o.o.f p a a a a a a a 0 = a p a a a a a a a a a a = = a a a a a a a a t w = s o.o.o.o.X.o.o.o.o.o.o.X.i i u u ",
"# # X.o.X.d X.o.X...i # ..o.o.o...d d d X.X.X.d d o.o.X.i s a a p p p p u p p p u p s s s s s d p s u p p d f d s p p o p s d u d o.o.o.o.o.o.o.o.o.d d d u u u ",
"# # X.o.X.# ..X.......i ..o.....d d d d X.o...d X.o.o.o.X.d i i d d d d d i i i d d d X.d u d d i d s u d d d d i d s d d d i i d o.o.o.o.d d o.o.d d o.o.d u u ",
"# X.o.o.X.X.# X.o...# # i i i i d o.o.o.X.d # X.o.d o.o.o.i i o.X.X.o.o.o.X.o.o.X.X.o.o.X.d d d o.d u i i i i i d d o.o.d u u X.o.d o.o.o.d d d X.o.o.o.o.X.d i ",
"# ..X.X.............i # ..o.....d X.X.d X.i X.o.d d o.o.o.d d o.o.o.X.i i o.o.o.X.X.X.o.o.i d X.X.X.i u d X...d X.X...i X.X.X.o.d d d o.o.d d d o.o.o.i i o.d i ",
"# # ........X.X...X.......o.X...X.o.d i d o.o.d d i d o.o.X.d o.o.o.i i i o.o.o.i X.i f i f o.X.d o.X.i ..X.o.X.X.X.d i d o.o.i d d d o.o.o.o.o.o.o.d u u o.X.u ",
"# i # ....o.o.o.o.o.o.o...# o...X.o.X.d o.d d i i d d o.o.o.o.o.X...i ..X.o...i X.d i d o.o.o.o.o.o.o.o.d d o.X.X.o.o.X.X.d d u d d d o.o.o.d o.o.d d d X.o.u u ",
"# # # # ..X.X.o.o.o.o...# ..o.o.o.o.o.X.o.X.i i d X.d d d i d o.o.o...X.o.o.i i X.d u i i o.X.X.o.o.o...d d o.o.X.o.X.X.o.X.d u d o.d d d d d o.o.o.d o.X.X.u O ",
"# # # # ....# X.o.o.o...# ..o.o.X.X.d d o.o.X.i d o.d d i d d o.X.X.X.X.o.o.i i X.d u u s d d X.o.o.X.i i X.X.o.o.X.d X.o.o...d d o.d d i d d o.o.o.d o.o.X.u O ",
"..# # # # # ....X.o.........o...i d i d o.o.X.X.X.o.o.X.d o.o.d u i X.o.o.X.o.X.o.i u u s u d d X.X.X.i i ..X.d s i u d o.o.X...d o.o.o.d d o.d u i o.d o.X.u u ",
"@ @ # # # # # ..# # ..# i ..# # d u i d i i d d d d d d d d d i @ @ i i u u u i i u u u s u u u i u u u i i i u u u u d d d d d d d d d d d d i u u i u i u u u ",
"O + # # # ..# # # + @ # # # # # u u i i + p u s d s u u u u u i u + u u o + u u u u p u u u u u u @ @ u u u u u d u d u u + u d d i u u i i i i p O u u O u o O "
};
