/* XPM */
static char *Group_10_21__resized[] = {
/* columns rows colors chars-per-pixel */
"80 80 248 2 ",
"   c #171617",
".  c #1D1B16",
"X  c #1A1619",
"o  c #1D1B1A",
"O  c #271817",
"+  c #211D16",
"@  c #231C1C",
"#  c #2A1C1B",
"$  c #381D17",
"%  c #1D2515",
"&  c #1D2718",
"*  c #1F3513",
"=  c #222516",
"-  c #232B16",
";  c #2D2A15",
":  c #23231B",
">  c #2B231D",
",  c #252C19",
"<  c #2A2C1B",
"1  c #352718",
"2  c #233416",
"3  c #253A16",
"4  c #253219",
"5  c #2A341A",
"6  c #293B18",
"7  c #373717",
"8  c #1D1D21",
"9  c #271E22",
"0  c #301E20",
"q  c #272324",
"w  c #2C2323",
"e  c #332424",
"r  c #392928",
"t  c #2D3421",
"y  c #393427",
"u  c #3B2D31",
"i  c #3D3236",
"p  c #461B15",
"a  c #541C14",
"s  c #681D12",
"d  c #492717",
"f  c #582818",
"g  c #493816",
"h  c #583A13",
"j  c #662915",
"k  c #772C14",
"l  c #6A3714",
"z  c #643B14",
"x  c #7B3414",
"c  c #773916",
"v  c #462B29",
"b  c #4F2D2A",
"n  c #47362B",
"m  c #593527",
"M  c #473635",
"N  c #4C3B3C",
"B  c #583A33",
"V  c #523E3B",
"C  c #6E3626",
"Z  c #6A3929",
"A  c #2A4216",
"S  c #294715",
"D  c #2C4319",
"F  c #2E4B19",
"G  c #394718",
"H  c #314C1A",
"J  c #2E511A",
"K  c #2F5619",
"L  c #32541A",
"P  c #3E5318",
"I  c #355B1B",
"U  c #3C5C1B",
"Y  c #36631B",
"T  c #3B641C",
"R  c #3D6D1D",
"E  c #3F711E",
"W  c #3F7220",
"Q  c #464717",
"!  c #4C4415",
"~  c #444B17",
"^  c #4C4A16",
"/  c #564A16",
"(  c #475217",
")  c #445319",
"_  c #4B5419",
"`  c #445C1A",
"'  c #4C5A19",
"]  c #585819",
"[  c #794B0C",
"{  c #6A4515",
"}  c #644B16",
"|  c #734315",
" . c #7D4316",
".. c #7A4818",
"X. c #665618",
"o. c #795718",
"O. c #44651C",
"+. c #436D1E",
"@. c #4B681C",
"#. c #54661C",
"$. c #41741F",
"%. c #4A731F",
"&. c #43791F",
"*. c #51701F",
"=. c #65631B",
"-. c #76661A",
";. c #524A2A",
":. c #54413C",
">. c #5B443A",
",. c #77452B",
"<. c #654636",
"1. c #794731",
"2. c #715130",
"3. c #4F6E25",
"4. c #427620",
"5. c #497722",
"6. c #457C21",
"7. c #4A7B21",
"8. c #6E7A3A",
"9. c #3C3348",
"0. c #4C3C45",
"q. c #4A4142",
"w. c #5A4746",
"e. c #644D48",
"r. c #68544A",
"t. c #745B4D",
"y. c #6A5752",
"u. c #6F664A",
"i. c #796348",
"p. c #7B6658",
"a. c #863616",
"s. c #8B3514",
"d. c #853B15",
"f. c #8C3B15",
"g. c #933D15",
"h. c #983B15",
"j. c #8F3C20",
"k. c #9F5C0C",
"l. c #874817",
"z. c #934215",
"x. c #9A4818",
"c. c #885818",
"v. c #98551A",
"b. c #A54D18",
"n. c #A84A18",
"m. c #B44A18",
"M. c #A95718",
"N. c #B3541A",
"B. c #B35D1A",
"V. c #BA5B1B",
"C. c #816418",
"Z. c #966618",
"A. c #A76618",
"S. c #B46618",
"D. c #BD631B",
"F. c #B46C19",
"G. c #BB6C1A",
"H. c #AB7119",
"J. c #BB7319",
"K. c #BA7819",
"L. c #9A5829",
"P. c #864A34",
"I. c #8F5330",
"U. c #A85924",
"Y. c #A55634",
"T. c #90672E",
"R. c #9A6837",
"E. c #B87A27",
"W. c #A36835",
"Q. c #AF7130",
"!. c #A7793C",
"~. c #C05E1D",
"^. c #C6661D",
"/. c #C46B1C",
"(. c #C3741A",
"). c #CB731C",
"_. c #C47B1A",
"`. c #CB7C1B",
"'. c #D4791E",
"]. c #C37724",
"[. c #CF762D",
"{. c #886E4E",
"}. c #877458",
"|. c #A47D43",
" X c #478122",
".X c #498423",
"XX c #4C8A24",
"oX c #4D822B",
"OX c #51882D",
"+X c #7C9042",
"@X c #7C9B71",
"#X c #B88538",
"$X c #CC831A",
"%X c #CD8B19",
"&X c #D3841D",
"*X c #D7881D",
"=X c #DC8B1E",
"-X c #DD931D",
";X c #D9961C",
":X c #E18E1F",
">X c #E4971E",
",X c #E39B1E",
"<X c #EBA51D",
"1X c #E9A71E",
"2X c #EEB01F",
"3X c #F4B51E",
"4X c #C8852B",
"5X c #DA8623",
"6X c #C78833",
"7X c #D29433",
"8X c #E28B2A",
"9X c #E79821",
"0X c #DEA130",
"qX c #E9A723",
"wX c #F1B225",
"eX c #F4BA25",
"rX c #E4AB39",
"tX c #E9B43C",
"yX c #FBCC2F",
"uX c #F6C737",
"iX c #968456",
"pX c #AA8547",
"aX c #B28643",
"sX c #B09454",
"dX c #83A254",
"fX c #AEA05B",
"gX c #988666",
"hX c #A8986A",
"jX c #B3AD6D",
"kX c #C79947",
"lX c #D4AD4B",
"zX c #E7B543",
"xX c #CCB66E",
"cX c #F3CF4E",
"vX c #FCE65B",
"bX c #D7C470",
"nX c #E3CF6A",
"mX c #C4BD82",
"MX c #BECBB9",
"NX c #CFD18A",
"BX c #E3DE8F",
"VX c #F5F192",
"CX c #D5D8A8",
"ZX c #F7F7AF",
"AX c #FAFAC5",
"SX c #FDFDD6",
"DX c #FDFDE8",
"FX c #FEFEF7",
/* pixels */
"J Y $.E E E E E &.R E E &.&.$.E W 4.4.$.E R E  X&.&.&.&.R R R E E 4.4.E E &.$.R Y R $.$.4.5.4.4.4.R R 4.$.$.$.$.E $.$.$.R R E 6.4.4.4.4.E R R E E 4.4.E E &.R I ",
"T R $.E 4.4.E E E E E 6.4.&.&.E W W 4.E E E W 4.E E E E W 4.6.6.6.4.$.E E 6. X6.&.E $.E 3.3.@.E 4.W 4.4.6.&.&.$.E $.4.E E E $.&.4.W W R W 4.6.6.6.4.$.E E 6.$.R ",
"&.&.$.&.6.6.E E E E &. X6.6.6.4.W 6.W R E 6.6.4.W W R W 4.6.XXXXXX X4.R E 6..XXXXX XR +.2.,.] Y R 4.4. X6.6.6.$.4.6.W R E 6.6.4.4.W R R 4..XXX.XXX X$.E E 6.&.&.",
"$.&..XXXXX XW &.&.&.&. X.XXXXXXX.X.XW W 6. XXX X X X X.X.X.X.X.X.X.X X6.4. X.X X X&.O./ c.k.[ ^ T E 4.6..XXXXXXX.X X4.E 6. XXX.X6..X.X.X.X6..X.X.X.X X4.&..X&.E ",
"R &..X X.XXX.X X X6.6..XXXXXXX.X.X.X X X.XXXXXXXXXXXXXXX.X6.6.6.6.6..X.X X X X X7.+.) | A.%Xk.{ P R &. XXXXXXX.XXX.X.X XXXXXXXXX.XXXXXXXXX6.6.6.6.6..X.X6. X4.E ",
"$.$.$.$. XXXXXXX.X.X X.XXXXX6.6..XXXXXXXXXXXXXXXXXXXXXXX.X6.6.4.R W .XXX.X6. XXX.XT Q v.5XeX5Xv.~ +..X XXXXX6.6..XXXXXXXXXXXXXXXXXXXXXXX.X6.6.6.E 4..XXX.X6.4.4.",
"R $.$.&.&.7.6.6.6.4.4.4.4.6..X.XXX.X6.6.6.6..X.X.XXXXXXX.X4.4.6.R 4..XXXXX6.4.4.6.U ! M.0XcX7Xv.! T $.&.&.&..X.X.X.X X4.4. X X XXXXXXXXX.X4.4.4.R E 7.XXXX6.W T ",
"R R $.&. X$.$.$.W W E W W E 6..X.X.X6.4.6.4.4.4.6.XX.XXXXX X X X6.4..XXX.X4.E $.O.] o.].tXcXrXE.o.( U +.E E 6..X.X X6.4.6.4.6.4.6..XXXXX.X.X.X.X6.4..XXX.X4.R Y ",
"R E &. X6.E E W W E E W W E E 4. X X.XXXXX6.4.W 4..XXXXXXXXXXXXX.X.X.XXX.XW W 4.Q ..J.qXuXcXyXqXA.{ Q R W W W 4..X6..XXXXX XW W 6..XXXXXXXXXXXXXXX.XXXXX.XE R R ",
"R E $.6.6.4.E E E W E E 4.6.4. X.X.XXXXXXX.X6..XXXXXXXXXXX.X.X.X6.4.4..X.X.XXX6.g l.`.2XyXuXeX9X/.c g R W 6.4.6..X.XXXXXXXXX X.XXXXXXXXX.X.X.X.X6.4.4. XXX.X4.$.",
"E E 4. X X X4.W 4.4.6.6.6. X.XXXXX XXXXXXX.X.XXXXXXXXXXX6.6..X.XW R R 6.XX.XXX7.Q l.`.2X3XeX2X:XG.c Q $. X X.XXXXX.X.XXX.X.X.XXXXXXXXX.X6.6..X.XW R E 6.XX X6.&.",
"&.$.4.XXXXXX6.4. XXXXXXX.X.XXXXXXX XXXXX6. XXX6. XXXXX X4..XXXXX4.R 4..XXX4.6.5.Q l.(.,X3X<X9X'.N.{ ' .XXX XXXXXXX X.XXX6. X.X X.XXXXX.X4.7.XXXXW R E  XXX4.$.&.",
"E E $. XXXXXXX X$.6..XXX.X XXX.X6.XXXX.X.XXXXX.XXXXXXXXX.X.XXXXX.X6..XXXXX6.6.5.Q  .^.-X<X<X:X).M.c ^ &.6.7.XX.X6.XXXXXX.XXXXX.X.XXXXX.X.X.XXXXX.X.X.XXXXX6.$.E ",
"R E &.&..XXXXX.X$.$.6.XX6.6..X6.4.XX.X6.XXXXXX.X XXXXXXXXXXXXXXX.XXXXXXXXX7..X5.~  .^.=X,X>X8X).n.x h ' +.4.XX6.4..X X6.XXXXXX.X.XXXXXXXXXXXXX.X.XXXXX.X.X X4.E ",
"$.&..XXXXXXX.X.XXX6.7..X6.$.6..XXX.X4.+.6.XXXX4.4.6..X.XXXXX.X.X6.6..X6.6..X.X5.!  .^.=X,X9X'.^.n.s.d. .] 4.6.XXXX X4.E 4.XXXX4.4.6..X.XXXXX.X.X6.6..X6. X X X4.",
"$.&.XX XXXXX.X.XXXXX.X XO.) O.6.XX4.W R 4.4.6.4.4.4.6.6.4.6..X.X.X6..X.XXXXX+._ h d.B.=X9X,X5X~.h.x.M.J.Z.X.+. XXX6.W W W 6. XW W 6.6.6.6.6..X.X.X.X.X.X.XXX X&.",
"E &..X4. XXX.X.X.X.X.X+.] { ] *.&.&.&.$.$.&.&.4.4.6.6.4.6.6..XXXXX.XXX.X X*.=.[ a.s.n.).9XqX5XN.s.x.H.-XS.[ O.6.XX6.$.4.4.4.4.4.6.6.6.6.4.6. XXXXXXX.XXXXXXX X$.",
"&.&.4.E 4.6.6. XoX4.T Q C.Q.W.=.O. X.X&. X XXXXXXXXXXXXXXXXXXXXXXXXXXXE ` X.Z.K.B.h.h.M.`.-X(.v.h / c.J.c./ +. XXXXX.X7. X XXXXXXXXX.XXXXXXXXXXXXXXXXX6.4..X X&.",
"$.6.7.4.&.4.4.4.4.O._ c.6XrX7Xc.^ &.XX.X6. X.XXXXXXXXX.X6..X.X.X&. X XE ` { A.*XA.| l z./.=X^.l.~ U #.o.] ` &..XXXXX.X.X6.6..XXXXXXXXX.X.X.X.XXX6.6. X6.$.4.$.&.",
"R 6.XX X6.6.6.$.O._ o.6XcXvXrXL.h %.XX.X6.6. X.XXXXXXX.X6.6..X.X&.E &.&.O.} Z.K.-.^ h d.V.'.V...P R O.~ U E  X.X.X X.X.X6.6. XXXXXXXXX.X4.6. XXX6.4.6.6.6.E $.&.",
"&.6. XXXXXXX.X$.( ..E.zXvXcX7Xl.g $..XXXXXXXXX X.X.X.XXXXXXXXXXX X&.$.&.6.O.} c ' U ~  .b.D.N. .~ R E T R E XX.X.X X.XXXXXXXXX X.X.X.X.XXXXXXXXXXXXXXXXXXX7.6.&.",
"$.6..XXXXX.X.X$.( c.6XcXvXuX%Xl.g +. XXX.X X X.X.X.X6..X.X.X.X.XR L F L J S ; $ g G g d f l f...^ %. X X X.XXXXX.X4. XXXXX X X.X.X.X6..X.X.XXX.X.X.X.XXXXX X6.&.",
"$.&.XX.X X X.X&.` l.E.cXyXyX_.l.! O.4. X4.4.4.XXXX6.6.6.W W W R D , + + = = + = v f v + o $ j l ' %.XX&.&.&.&. X X4.4. X4.4.4.XXXX6.6.6.W 4.6.6.6.$.4. XXX X7.&.",
"$.&.6..X.XXX X+.P c A.wXyX3X_.l.g $.4.4.4.6..XXX.XW W 6.6.6.I 3 t n M M M M i B 2.I.,.y q e v g ` &.E S * A 7 P +.4.4.4.4.6. XXX.X4.4.6.6.4.4.4.$.4.6. X.X X4.E ",
"$.&. X.X.X X$.O.' c.].qX3X3X`. .! %. X&.6. XXXXX XE $.4.W Y D t M w.y.w.y.y.0.y.!.6XW.B i M r 5 S Y J t 7 n ;.n G +.$.&.&. XXXXX XW 4.4.6.4.W W E $..X X X X&.E ",
"E 6.XXXX XE T ' o.#X0X1X3X,X(.l./ %..X.XXXXX.XXX.X4.4.R Y 6 t M w.p.}.p.y.y.y.y.kXrX#Xe.0.w.u q * 3 y e.{.|.|.<.y L R  XXXXXXXXX.X4.W R W W E E E $. X X X X&.E ",
"$.6..X XE R ~ { #XtXuX2X2X:XD. .^ 7.XXXXXXXX.XXXXX.X4.I 4 t M r.}.gXhXgX}.y.y.{.kXkX!.w.M M M w o t r.sXxXbXsXr.u , L  XXXXX.X.XXX.X4.R R 4.4.6.&.6. X X XXX X&.",
"$.6..X X X$.g ..4XuXyX2X1X:XD. .^ 7.XXXXXX X6..XXX.XY D t M e.p.hXxXNXjX}.y.{.|.aXpXi.V u M M r u w.iXxXxXxXgXr.u . F 6..X.X7..XXXXX X6.4.6. X.X.X.X.X X X.X XE ",
"$.&.XXXXXX.X~ | G.<X3X2XqX>XD.l.^ %..X.X X6.4. XXX6.S 5 n r.}.gXNXVXVXBXjX}.|.zXaX{.0.N v e v M w.{.lXbXsX}.y.w.n = F 6. X6.4. XXXXX.XXXXXXXXXXXXXXXXX.X6. X&.E ",
"E $. XXX.X&.Q  ./.,X3X2X2X>XD. .g %.4.6..XXX.X6. X XS ; ;.#XxXbXCXAXZXVXnXkXrXzXpXe.9.i i M v C R.sXxXsX}.y.e.w.u . S $..XXX X6. XXXXXXXXXXXXXXXXX.X6. X X6.E R ",
"E &..XXX X$.( { M.&X,X1XqX:X^.l.^ %.6.6.XXXX X4.6.R 3 y T.lXvXVXSXDXSXVXcXlXrXzXpX{.e.>.:.B C l.E.kX|.p.y.r.e.N y - J &..XXX X6. X.XXXXXXX X XXXXX X X.XXX&.E E ",
"$.&.XXXX.X6.+.O.X.Z.`.>X>X'.V.x ! 5.XXXX X4.E 6.R D & ;.sXnXZXDXFXFXDXVXnXaX|.|.aX#X#XW.P.,.R.4X[.Q.P.e.w.w.n t 4 L E XX X&.E XXXX XXXXXXX&.&..X.XXXXXXXXXXX&.&.",
"E 6..X.X X6. XO.Q l.B.5X:X*XV. .! 7. X6. X X X&.L , t >.fXBXZXDXFXDXAXBXfXu.r.y.W.6X6XQ.x.j.#XrX;XL.,.e.e.0.v , A R 6.6.6. X X.X X6..XXXXX X X.XXXXX.X6. X.X X X",
"E $. X7. X X%.] h c b.`.>X:X/.l.! 7.6.&. XXX.XR A o u e.}.jXCXAXSXAXBXhXp.w.q.q.t.R.!.R.j.s.4XwXwXH.l.C B N r , S 6..X4.6.XXXX X4.6..X.XXX.X.X.XXX.X XW E XX XE ",
"E $.&.6. X7.#.[ f.g.M.5X2X<X`. .^ 5.XX X X X6.R S , :.r.p.p.hXVXVXnXjXp.w.e.w.w.B V 0.B Z v.$X1XeX;XS.a.Z M r 4 K .X.X.X X X6.4.4. X.X.XXX.X.XXX X X X XXXXXE R ",
"E E $.$.@.] Z.F.S.x.m.:X9X:XD.l./ 5..X.XXX X6.$.Y U 8.iXiXp.{.cXnXfX}.r.0.w.>.V 0.M B Z L.6X0X2X3X:XS.x f y 6 I 4..X.X.XXX X6.4.6..X4.6. X6. X.XXX X X XXXXXE Y ",
"E E E R ( { H.$XJ.c.v.`.5X'.~.c ^ %. X XXXXX X6.6.XXdXjXmX}.|.zXaX{.y.e.e.V V V 0.B m l.4XcXuXeX<X=XB.k p ; F E .X.X6..XXXXX X7..X.X X4.4.4.6..XXXXX XXXXXXXE R ",
"&.$.E E T ( c.A.c.X.X.v./.'.~.l.! +.&.&.XXXX X X XOX@XNXZXNXlXzXaXt.w.0.V V V V 0.M j j.6XcXyXeX<X:XV.a.p = K R 4.6.4.6.XXXX.X X.X.XXXXX.X.XXX6.&.&.XXXXXX X XE ",
"&.$.&.&.&.+.X.} ] O.' c S.=X).l.! &.$.+.W  X.X.X.XOX@XMXSXVXcXtX!.r.0.N V V >.V 0.b j l.4XcXyXwX>X).b.j $ ; J E .X6.6..X.X.X.XXX.X.X.X.X.X.XXX.XE $.XX X&.6.4. X",
"E &. X XXXXXT U O.$.' l F.:X`.c.^ %.@.' O.E .XXX.XoX@XMXDXZXvXrX!.<.N N V :.0.V B m k z.].eXyX2X$Xk.c d a f P $.XX.XXX.X6.6..XXXXX X.X.X.X.X.X.X6.&. X&.E E E E ",
"Y $..X X X.X6. X X$._ c J.;X$Xc.g @.=.c.{ #.&.XXXXOX@XMXAXBXlX#XR.2.>.:.N N B B P.d.s.z.J.1X3X1XF.k a v c c.] %..X.XXX.X6. X.XXXXX.XXXXX.X6.6..X.X.X$.E $.XX&.E ",
"R $.6.6.7.6.6.6.&.E _ c J.-X(.l.f } Z.K.A.X.' &. X5.@XNXCXhX{.T.W.R.2.:.0.V b C M.S.k.z.M.,X3X1XS.k a j A.K.Z.X.O.6. X6.4.6.6..X6.6.6.6.4.6..X.XXX%.' ( O..X X$.",
"&.$.$.6. X6.$.E R T ^ c S.'.D.z.j c H.;XK.c.~ +.R 3.+XfXjXr.i >.R.E.!.2.0.B Z j.K.$XS.z.M.5X1X1XF.a.k g.].*XJ.{ 7 T R T R 4.6.4.4.W E +.4..XXXXX X#.[ { / %.&.&.",
"E &..XXX.X6.4.E R ! j x M.).D.l.h ] C.A.C.=.&. X+.) =.i.u.>.M :.t.{.W.R.{.Y.Y.Y.F.M.z.s.b.*XqX-XA.a.a.Y.D.S.l.d , 3 4 6 R  XXXXX X X X.X.X.X.X6.` } k.H.Z.] T E ",
"E &..X X.X.X6.%.] c.z.s.M.^.V.l.! T / l / @.&.R ) b ;.<.:.M M N N B 2.W.Q.[.[.[.M.g.s.x.G.-X9X=XN.f.j.I.L.o.g # o + + = F Y R R R T R R T Y O.@.=.H.;X;XF.{ ! ( ",
"E R $.R 6.XX$.=.Z._.G.f.n.~.V.c g F ; # ; D L A < $ C ,.<.M i M i M N 1.Q.[.7X[.b.s.g.G.;X1X9X'.b.f.j.C ] P < o o : @ + = 4 6 6 5 3 2 2 2 5 7 / Q.0XuXqXG.k h h ",
"Y I J I Y T G | S.5X(.x.m.^.V.d.d +     . : < =   + Z L.L.<.n u u u M <.I.W.Q.W.C a.x.5X,X1X*XD.h.a.j v G K F 3 , 4 - - & & = = = = - & % = f v.#XtXyX;XS.k j z ",
"S 3 2 5 6 6 O d c.A.M.f.b.~.V.s.p O     X X O X   . d I.Y.I.<.y e u Z 1.P.<.1.Z m m d.F.=X,X/.b.s.k d 0 , A J L L J L L H D 6 6 D D H F F 7 h n.U.6XqX%XM.j h / ",
"A - = + = .   & d z c c x.S.V.g.f O + % = = = = = & # f I.Y.I.B M B I.Y.P.v e w 9 e b a.M.`.B.k.s.k p X X = 6 T 4.4.4.7. X6.E R 4..X.X.X.X+./ f.g.x.(.).M.h ~ R ",
"K H F F H F F S H ) _ _ } l.m.n.s.f 7 P T I L Y T U 6 1 b 1.P.P.P.1.2.1.1.1.b w 9 9 0 f c M.(._.N.k p X @ q < 6 D D A H 4. X X.XXXXXXXXXXXT ] z.S.(.S.b.f.z ' E ",
"R R T $.&.&.R R R E E E _ l n.m.n.l.X.#.&.&.&..X.XR S = 9 r Z I.Y.Y.Z B B P.Z b r w q r j f.J.`.S.c 1 ; q q : + . . o , I T R 6..XXXXX.X4.U / x.(.%XS.x.a.z ' E ",
"$.E $.XXXXXX&.&.6..XXXXX' j a.n.S.$XH.X.O.%..X&.R F 5 @ X 9 r Z Y.Y.<.v v Z P.P.B u 9 e f x b.M.b.| g H 4 : + + X   q q < 2 3 D T XXXX.X$.` X.x.M.F._.G.k.z ( E ",
"R E &. X&.$.&.&.4.4..XXX' l s.n.D.*XH.o.@.6.XXT D < w e q o 9 r 1.Y.Z r 8 r Z P.Z v 9 0 f k h.x.x.{ ' &.D + = = + O # 9 q > < , D 4.XXXX.X+.' c x v.%X-XF.z ~ R ",
"R E &.&.@.] #.%.$.4.6.XX' l s.n.B.S.c.X.5..X+.D , 0 e r e 9 X @ b Z b 0   o v m m v 0 # d a.b.M.n.{ (  X^ d 6 7 7 d p @ 9 w e # 5 H +..XXX6.%.^ f f.;X<X_.z ~ R ",
"E &.&.$.X.l.X.#.7.7.6..X' l n.m.x.l g U 4.R H < 9 e e e e w : = 7 v r ; % % X X $ p $ O p d.(.*XG.| ~ @.o.[ ` O.#.v.l # 9 9 e w 0 : H +..XXX.X4./ z.%X>XJ.z ( $.",
"E E %.X.Z._.A.o.@.7.XX7._ l h.h.k p = 4 D 5 < w 9 0 9 @ 9 @ 5 I U ` P U I H - X 0 O O O p f.`.,X(.d.j { H.$X-.-.T.6XU.f $ @ 9 9 9 9 < D Y 6..X6.} l.&X=XF.z _ $.",
"W R O...G.,X`.v.Q $..X&.'  .h.s.f O       + # w w : , , , , L 6..X X.X.X.X6.L 4 o   X O a f.$X;XJ.d.s [ K.$XM.v.#XcX4Xx d = & , w e @ = 6 Y R +.} z.'.'.S.l ` E ",
"4.R ' c D.9X'.v.Q ` E +.] l.m.h.a O   X o O @ + 5 I I U I T 4..XXXXXXX6.4..X6.I ,   8 1 f f.`.:X(.c g ^ -.M.z.B.6XcX4Xc Q L R H 5 w @ @ = 2 A 7 f x.^.'.D.{ ' E ",
"Y ' X.k.G.`.).v.h ) I I / ..n.k d , 4 4 , - , 5 I 4..X4.R 4..X.X6.6.7.4.4.4.6.6.J , @ e f x B.[.D.| ~ +.#.{ k v.7XcX].l.( R 6.+.H 5 5 , . % : > d a.N.~.b.h ) E ",
"J / c.K.J.B.N.U.l./ G G n h C d 7 H K L H F L I +..XXX.X6.6..X.X6.$.6. X4.W 6..X4.L , w r f l.b.n.| ( %.R G d c.5XqXE.l.' W 6..XR L I H - + @ # 1 f f.z.c 1 H E ",
"G X.A.%XJ.z.b.~.~.f.f 1 q q & , F W 6. X.X6..X4.6..X.XXXXXXXXXXXXXXXXXXXXX6..X.XXX4.L , 9 w f k s.l ! U Y ` / Z.*X,XG.c ^ +..X6.6.6.6.R L 2 = - & ; f f d . * K ",
"U ] C.A.x.a.b.^.^.g.j e 9 o & J W 4..XXX.X.X.X.X.X X X X.X.X.X.X.X.X.XXXXX.X.XXX.X7.4.L 4 9 9 d k l h 3 7 X.Z.%X,X;XM.d.c ] @..X.X.X.X6.T L J L K F ; $ O   & 2 ",
"$.$.#.{ l k b.V.V.s.j e 9 t J 6.XX4.4.6.4.4.4.XXXX6.6.4.4.4.4.6.4.4.4..XXX6..XXX.X.X.X4.J , q e f j a O a d.&X<X2X'.b.s.x.l.] 5..X7.7.&.$.$.$.&.&.T A - = = = . ",
"$.$.&.@.Q d l h.n.f.f w 4 J 4.6.6.6.4.4.4.4..XXX.X4.4.6.7.4.4.4.4.4.6..X.X.X.X.XXX.X6..X4.I 5 : e d f a s f.`.,X>X^.x.f.J._.A.X.` R 4.&.6.&.&.&.$.R T I L U J F ",
"R Y I I 3 % d j x k d ; L E .X6.6.6.6.6.4..XXXXX.XW 4.4.4.4.W W E W  X X6. X X X.X.X6..X XE 3 % 0 m ,.x.g.g.B.`.5X).x.z.(.`.H.X.P R E 4.6.4.W W R W 6.4.4.$.E R ",
"H A 2 2 &   # 1 d d 1 F E .X.X.X.XXX.X.XXXXX.XXX.X4.W W W E E 4.E 4..X.X X X.X.X X.XXXXX6.R * o $ c A.%XS.g.f.M.$X&XM.z.M.A.o.#.E 4.4.E W E E 4.E &..X.X X X&.E ",
"- = + = % % = = , 4 L 4..XXX6..XXXXXXXXXXXXX.XXXXX.X4.E E E 4.6.6.6.6. X.X.XXX.X.X.X.X7.E R S - $ c G.%XZ.{ j l._.-XG.d.c } #.7. X.X4.E E E 4.4.&.7. X X.XXX6.$.",
". + - F L L J J J I R .XXX X.X.XXXXXXXXXXX X6..XXXXX X4.4.6. X.X.X.X.X X.X.XXXXX.X.X.X.X XE Y J 7 l l.A.-._ g l.(.;XG.x h P W  XXXXX X4.4. X X.X.X.X X X X.X X&.",
"= - H &.XXXX.X.X.X X4.4. XXXXXXXXX.X.X.X.X4.4. X.XXXXXXXXXXXXXXXXXXXXX.X6. X.X.X.X.X.XXXXX.XXXW K 7 d f ' O.Q c.^.'.B. .` W 4.7..XXXXXXXXXXXXXXXXXXXXX.X&. X&.E ",
"F L R .XXX&..XXX.X.X X4. XXXXXXX.X6.6.6..XXX.X6. XXXXXXXXXXXXXXXXX.X7. X X4.&.6.6..X.XXX.X6..X.X$.H 7 $ 2 6 d z.~.'.N.c @.6..X4.6.XXXXXXXXXXXXXXXX.X&..X.X&.E R ",
"T $. X.X.X&. X.XXX X6.4.6..X.X X6.6.6.6.XXXX X6. XXXXXXXXX X XXXXX X6.XXXX6.6.6..X.X.XXX.XW  X.X XT A .   + d d.N.V.B.v.=.*.4.6. XXXXXXXXX.X XXXXX X6.XXXX6.E R ",
"$.7.XXXX.X&.&. XXX6.$.$.4.6.$.&.6..XXXXX.XW E .X.X XXXXXXX6.6. X.XXXXXXXXX.XXXXX.XXX.XXX.X6.6. XXXR A     + a k g.b.(.$XZ.{ P 7.XX XXXXXXX6.4. X.XXXXXXXXX.X X&.",
"$.&..X.X X6. X X X X6.$. X.X X6. X.X X6.6. X.X.X X4..XXXXX X6..XXXXX.X&.&.XXXXXX.X.X.X.X X6.6. X XR D . X # f k s.n.).&Xk.X.U 7. X6..XXXXX X6..XXXXX.X6.&.XX X&.",
"E $. X X X XXX.X6..X.X4. XXXXX.X XXX7.4. XXXXX X4.6. XXXXX X XXXXX.X XE &.XXXX.X X6. X X X XXXXX&.R H : 8 0 f a.h.n.S.A.c.#.4.4.&.4. XXXXX.X XXXXX.X X$.&.XX XE ",
"E $.&.&..XXXXXXXXXXXXXXX6.4.XX.X.XXXXX X X X6.W 4. X X.XXX X.XXX.X X&. X.XXX X X X7.6.6..XXXXXXXXX4.L 4 : e f f.n.n.d.{ @.6.6.$.4. X X XXX.X.XXX.X6.6. X XXX&.R ",
"E $.$.&.6..X.XXXXXXXXX X4.6.XXXXXXXX.X XXX.X6.4. X X6.6. X6. XXXXXXX X XXXXX&.$. X6.$.4.6..X XXXXX.X+.L , > j s.h.l.} ' 7. X6.$.6..X6.6. X6.6.XXXXXX X XXXXXE Y ",
"E E E E &. X6. XXXXX.X&.&..XXXXX.X.X X XXXXX.X6. XXX X4.4.4. X.XXXXX XXXXXXX6.4..X6.E E 4.6.6. XXXXX.XE F 4 d x s.l ' &.XXXX X6. X.X X6.6.4.6.XXXXXX X.XXXXX&.R ",
"&.$.E E &.E 6. X.XXX X X&. X.X6.4.4.4.6.XXXXXX X.XXXXXXX XXX.X XE &.XXXXXX XXXXXXX6.E $.4.W 6..X.X.X.X&.$.L ; f k c ] &.XXXX.X X.XXXXXXX X.X.X6.$.&.XXXXXX X&.E ",
"R R E E E E 4.&.&.E &.&.&.&.&.&.$.$.6.4.4.6.6.6.6.6. X6.4. X6.6.R R  XE E E 6. X6.$.E $.4.$.$.$.&.E &.&.$.R D 7 d f _ E &.6.6.6.6.6. X6.6.6.6.6.E R &.&.E E E E ",
"Y T E E &.4.E E R R R E $.E R $.6.$.6.&.R R $.6.4.E E E 4.E E &.R R E R Y R E E E E E E $.4.$.R R R R E $.E I 6 ; p ( E E R E &.&.E E E $.E 4.4.R R E R Y R Y Y "
};
