/* XPM */
static char *Group_10_22__resized[] = {
/* columns rows colors chars-per-pixel */
"80 80 250 2 ",
"   c #0E1416",
".  c #1D1C16",
"X  c #191618",
"o  c #200F16",
"O  c #221B1B",
"+  c #271A19",
"@  c #381B16",
"#  c #1C2316",
"$  c #1E2718",
"%  c #1E3717",
"&  c #222B16",
"*  c #23231B",
"=  c #272619",
"-  c #242B1A",
";  c #382618",
":  c #253316",
">  c #243A16",
",  c #283818",
"<  c #2A3C19",
"1  c #383817",
"2  c #1E1D26",
"3  c #261E21",
"4  c #391F21",
"5  c #2C2223",
"6  c #2A2426",
"7  c #332425",
"8  c #382829",
"9  c #39302F",
"0  c #441A15",
"q  c #541F15",
"w  c #49340F",
"e  c #462718",
"r  c #592817",
"t  c #483816",
"y  c #583814",
"u  c #682A15",
"i  c #752B14",
"p  c #663815",
"a  c #783715",
"s  c #472A26",
"d  c #562D24",
"f  c #473528",
"g  c #58372C",
"h  c #493737",
"j  c #4C3B3A",
"k  c #543C36",
"l  c #673829",
"z  c #70392A",
"x  c #294317",
"c  c #2C4519",
"v  c #2D4C19",
"b  c #354918",
"n  c #2D5319",
"m  c #32531A",
"M  c #3D5418",
"N  c #355B1B",
"B  c #3B5C1A",
"V  c #36621B",
"C  c #3B651C",
"Z  c #3D6C1D",
"A  c #3F711E",
"S  c #3C5B23",
"D  c #3F6D20",
"F  c #3F7220",
"G  c #474916",
"H  c #574716",
"J  c #534B16",
"K  c #5B4B16",
"L  c #475217",
"P  c #445418",
"I  c #4D5418",
"U  c #435C1A",
"Y  c #4D5C1A",
"T  c #575518",
"R  c #5B5319",
"E  c #535B19",
"W  c #694616",
"Q  c #634C16",
"!  c #774716",
"~  c #675518",
"^  c #765617",
"/  c #43641C",
"(  c #4B651C",
")  c #426C1D",
"_  c #4B6C1D",
"`  c #53681C",
"'  c #41741F",
"]  c #4A721E",
"[  c #42781F",
"{  c #51741F",
"}  c #6A621A",
"|  c #544322",
" . c #59433B",
".. c #744C2F",
"X. c #694636",
"o. c #774733",
"O. c #427620",
"+. c #457C21",
"@. c #497C21",
"#. c #4B7A26",
"$. c #4F772A",
"%. c #617037",
"&. c #513F47",
"*. c #5A4745",
"=. c #674D47",
"-. c #6F584B",
";. c #6C604A",
":. c #892C11",
">. c #863716",
",. c #843C15",
"<. c #8C3C15",
"1. c #943B15",
"2. c #983C17",
"3. c #A13E18",
"4. c #873E22",
"5. c #91420F",
"6. c #874717",
"7. c #9C4317",
"8. c #944B16",
"9. c #9C4B16",
"0. c #984718",
"q. c #895717",
"w. c #975717",
"e. c #AE4D0E",
"r. c #A54717",
"t. c #A44B19",
"y. c #AB4D1A",
"u. c #B34C19",
"i. c #A45316",
"p. c #A55A17",
"a. c #AB5A16",
"s. c #A55218",
"d. c #AC531A",
"f. c #A55B19",
"g. c #AC5A19",
"h. c #B3541B",
"j. c #B75519",
"k. c #B45B1A",
"l. c #BC5B1C",
"z. c #8D6219",
"x. c #976218",
"c. c #AC6218",
"v. c #A96618",
"b. c #B3631A",
"n. c #B76619",
"m. c #B46C19",
"M. c #BC6C1B",
"N. c #A57219",
"B. c #BB7419",
"V. c #BB7819",
"C. c #874527",
"Z. c #8F502C",
"A. c #885634",
"S. c #985934",
"D. c #A85933",
"F. c #956C2C",
"G. c #986838",
"H. c #AD7031",
"J. c #C25D1C",
"K. c #C4641C",
"L. c #CB651F",
"P. c #C46C1A",
"I. c #CB6C1D",
"U. c #D16D1F",
"Y. c #C67515",
"T. c #C4731B",
"R. c #CC731C",
"E. c #C37B1A",
"W. c #CC7B1C",
"Q. c #D3751E",
"!. c #D37B1E",
"~. c #CB6C21",
"^. c #C57625",
"/. c #D67820",
"(. c #8F734A",
"). c #987D57",
"_. c #478022",
"`. c #498423",
"'. c #4C8A24",
"]. c #558A35",
"[. c #76924F",
"{. c #7B976D",
"}. c #9D8E35",
"|. c #B78232",
" X c #CA851A",
".X c #CC841B",
"XX c #D98516",
"oX c #D4831D",
"OX c #DA851F",
"+X c #D58B1C",
"@X c #DB8B1D",
"#X c #DD931D",
"$X c #DD991D",
"%X c #E08D1E",
"&X c #E2951E",
"*X c #E69B1C",
"=X c #E49B1E",
"-X c #E9A71D",
";X c #EAA41E",
":X c #F1B21E",
">X c #DB8421",
",X c #DD8A21",
"<X c #D78829",
"1X c #D89323",
"2X c #CE8E31",
"3X c #DA9634",
"4X c #E38C21",
"5X c #E49421",
"6X c #E79725",
"7X c #E49C21",
"8X c #EA9C21",
"9X c #E59C31",
"0X c #DCA538",
"qX c #EBA421",
"wX c #ECAB23",
"eX c #E8A828",
"rX c #F1AD23",
"tX c #ECB228",
"yX c #F2B324",
"uX c #F3B829",
"iX c #F4BB2B",
"pX c #EAA839",
"aX c #ECB737",
"sX c #F3BC36",
"dX c #F8C329",
"fX c #F3C834",
"gX c #F8C739",
"hX c #FCD337",
"jX c #968C52",
"kX c #A99E5E",
"lX c #B19352",
"zX c #998E62",
"xX c #B3A86E",
"cX c #C79745",
"vX c #D3AE4D",
"bX c #E3B64F",
"nX c #C8B768",
"mX c #F2C649",
"MX c #FBD84B",
"NX c #FDE34A",
"BX c #E2D671",
"VX c #EBD571",
"CX c #CFD08D",
"ZX c #DDDD9B",
"AX c #EAE88E",
"SX c #F6F4B1",
"DX c #D4DCCF",
"FX c #FCFBC8",
"GX c #FEFED9",
"HX c #FFFFEE",
/* pixels */
"n V ' Z A A A A A Z N b b M C ' A O.O.' A Z A _.[ [ [ [ F C D A A F ' Z V G ^ T.yXdXuX@XOX,XmXNXMXhXyX%Xl.6.L C A Z B K v.p.^ U Z F O.O.A Z D A A F O.A ' [ Z N ",
"C Z ' ' O.O.A A A C P Q W Q U C F O.[ A A A O.O.A A A A F O.+.+.+.+.' V L ! v.#XsXhXiX7X#XeXgXMXNXhXuX&Xa.! M V Z C J ^ V.B.w.J B D F F A O.+.+.+.O.' A A [ A A ",
"[ [ ' [ _.+.A Z A Y ~ f.n.w.Q U Z O.O.Z A +.+.O.F F Z F F +.'.'.`._.[ M H 9.oXyXgXmXiX-X;XrXfXmXMXhXiX#Xa.a U Z ' C K 6. X.XN.H M F F D O.`.'.`.`._.' A A +._.[ ",
"' [ `.'.`._.O.Z M ~ H.0XeX+Xx.Q U +.O.A +._.`.`._._._._.`.`.`.`.`.`._.V H 9.T.qXuXtXeX=X#X=XwXiXiXuXwXoXt.W ( @.`.[ / T w.w.~ _ +.+.`.`.`.+.`.`.'.`._.O.[ _.[ A ",
"A [ _._.`.`.' U ~ H.0XMXhXyXY.6.y / O._.'.'.'.'.'.'.'.'.`._.+.`.+.+.`./ H 9.I.4XqX-XqX,X>X>X#X;XwX;X&X/.k.q.E ] [ `.[ _ R R _ `.'.`.'.'.'.+.+.@.+._.`.`.+.+.O.A ",
"A A A [ _.'./ Q H.0XMXNXhXuX%Xj.,.J _ '.'.`.'.'.'.'.'.'.`.O.O.+.F F `./ J 0.K./.%X*X#X>X/./.oX=X-X*X@X~.R.b.6.R / '.'.`.) ) [ '.'.'.'.`.+.+.+.+.A A `.'.`.+.O.' ",
"C Z A [ [ ] G 6.2XmXNXmXtX6X5X>X~.w.~ U A O._._.`.'.'.'.`.O.O.O.D A @.O.Y ! t.K.Q.!.!.R.W.>X+XqXtXtX6X/.>XQ.g.W U @._.[ ' ' [ '.`.'.'.'.`.+.O.O.A ' _.'.'.+.Z C ",
"P / A _._.Z w 6.cXMXMXuX1X4X9XaXtX.Xw.K U A O.O.+.'._._.`._._._.+.O.`.`.O.L ! 0.j.l.K.I.oX1X=XwXfXsXtX5X,X/.j.! L [ _.[ [ [ ' ' +.'.'.'.`.`.`.`.O.O.`.'.'.O.Z C ",
"W E ) +.+.C t ! 2XgXdX-XXXOXpXMXNXuXT.6.Y C ' A O.`.[ ] @.`.'.'.`._.`.'.`.Z G p ,.r.j.R.#X-X-XtXgXgXiX*XQ.L.r.W P [ '.'.`.`.O.Z +.'.'.'.'.'.'.'.'.`.'.'.`.A Z Z ",
"v.^ P ) _.A t a ^.wXdX-X;X;XsXNXNXmX^.6.Y A _.`.'.@.R J Y @.`.`.+.O.O.`.'.+.+.` y 8.R.&X;X&X=X7XtXiXwX%XU.u.3.W U +.'.'.'.`.+.`.'.'.'.`.`.`.`.`.+.O.O._.'._.+.' ",
"v.^ L ' ' ( R F.1X:X:X;X;XwXaXgXmXpX2Xw.~ _ +.`.@.` q.q.^ ( O.`.F C D _.'.`.@.( p w.oXwXwX@X!.oX1X;X@XT.j.u.a.q.} ` @.'.`.`.`.'.'.'.'.`.+.+.`.`.F Z A +.'._.+.[ ",
"Q E ' +.( Q F.0XfXyX;X*X+X=XeXtX9X<X,X Xx.~ / Z E 6.V.oXm.~ Y `.+.Z A _.`.) L H >.j.OXqX*X@XK.K.!.@XQ.u.2.9.E. Xx.J / '.+.`.`.`.`.'.'.`.O.+.'.'.F Z A _.'.O.' ' ",
"L / ' A T 5.2XfXtX+X.X&X&X=XtXtX9X@X*X;XP.q.P ) ( ~ B.W.v.~ ) '.`.`.`.+.O.~ q.v.d.J.I.oX!.R.K.R.OXOXR.y.2.t.!.T.x.J ) `.`.'.'.`.`.'.'.'.`.'.'.'.`.`.`.'.`.+.' A ",
"V Z ' Z T 5.1XeX2Xb.b.+X&XwXsXsXtX&X*X8XP.q.G ] ] E z.w.^ ` O.`.`.`.'.F Y ! B.+Xk.t.e.l.K.L.Q.#X;X=XQ.J.u.u.b.x.} _ F +.`.'.'.`.`.`.'.'.'.'.'.`.`.'.'.`.`._.+.A ",
"' [ _.[ ( T x.V.B.w.p.M.+XwXfXgXfX7XoXm.6.R / ' ' _ T I ( @.'.+.+.+._.Z Y ^ T. Xq.W a r.J.W.eXiXdX-X@XQ.J.r.a R ] +.O.D +.`.'.+.O.+.`.`.`.'.`.`.+.+.`.+.`.`.+.[ ",
"' [ '.`.[ ] Q q.Y.E.m.i.E.wXiXdXwX1XM.8.R U ' A A [ / C Z O.`.`.`._.`.+.] } q.q.` L H 9.I.=XsXhXdXrX&XQ.h.6.R _ _.[ F D O.+.+.F F +.+.+.O.`.`.`.`.`.`.`.`.'._.+.",
"' [ `.' [ { ~ q.E. Xm.9.V.7X:XrX*X#XM.8.R B ) O.+.+.+.+.O.+.`.'.'.`.'.'.`.+.T K _ Z I w.!.uXhXgXfXqXoXm.6.R ) `.'.+.O.O.F F O.O.+.+.+.+.+.+.`.'.'.'.'.'.`.'._.[ ",
"[ [ ' C L W N. XB.s.p.T.+X#X7X*X;X;X#XT.w.Q U +.'.'.'.'.'.'.'.'.'.'.'.+.O.+.@.O.`./ G 8.R.;XuXdXyX&Xb.! J / +.'.'.`.`.+.`.`.'.'.`.`.'.`.'.'.'.'.'.'.'.O.O.`.+.O.",
"' +.@.Z H <.W.#X Xp.n.+X5X,XR.T..X8X8X4XJ.6.L #.'.'.'.`.`._.`.'.+.+.`.O.O.+._.`.`./ J w.I.@X+X XT.n.0.p L Z `.'.'.`._ U F `.`.'.'.'.'.`.`.`.`.`._.+._.+.' O.[ [ ",
"Z [ `.' R 6.W.&X,XW.W.5X4X~.d.9.k.>X4X/.J.6.G @.'.'.'.`.O.+.`.`.O.O.O.O.D Z F `.[ / J 0.K.I.k.9.9.7.>.y P F +.`.`.O.T H ( O.+.`.'.'.'.`.O.+.`.`.O.' +._.+.' ' [ ",
"O.+.`.+.( Q w.T.8XqX&X/.n.h.s.p.g.j.J.j.8.Q ) O.`.`.`.`.'.'.'.'.'.`.' N v n m N V b t >.r.y.t.0.7.7.>.y L ' '.`.{ R q.N.~ ( @.+.+.`.`.`.'.'.'.'.'.'.'.'.`.+.[ [ ",
"O.O.`.`.O.( K w.oX;X8XR.y.0.m.B.b.1.1.6.R Y F `.`.`.@.`.`.`.`.`.`.+.M c < , , , < 1 y >.2.9.k.M.K.h.7.p Y O.`.O.Y q.T..Xw.R / @.`.`.`.`.`.`.'.`.`.`.`.'.'.`.[ [ ",
"F +.`.`.`.@.U Q x.+X5X!.h.s.V.E.c.i r H / F O.`.`.+.+.O.O.O.+.O.Z N G | f 7 6 7 @ e a 9.w.p.+X,X!.J.r.a R ) ) b t 8.V. Xw.Q B `.'.`._.O.F O.+.+.+.O.O.`.'.`.[ [ ",
"' O.+.`.`.'.+.U Q x.!.=X1XE.b.9.<.u H / Z O.`.'.`.O.O.+.+.+.' Z x 1 F.|.(.*.*.k d a a.W.#X#X7XoXg.2.2.r.6.W 1 # # r 6.q.~ ( @.`.`.F O.+.+.O.O.O.A O.+.`.`.`.+.A ",
"O.A ' / _ _._.Z G 6.Y.-X-X&XB.g.9.6.~ Y ) +.'.'.`.O.D O.[ A V v - f ).cXcX).).(.C.2.l.&XrX;X.XM.c.i.r.r.e.6.r @ * 8 r y C O.'.'.`.D F O.+.O.F F Z ' `._._._.[ A ",
"Z ) Y H I Z [ Z G 6.P.$X8X7X+X+X.XV.q.Q ( +.`.'.`.+.A D A V v & 9 *.;.kXnXVXbX2Xw.2.e.%X8X@Xg.p.V.V.a.2.n.P.8.z g j 8 - C `.`.'.`.O.F F D F F A A ' `.`._._.[ ' ",
"B T q.N.q.I / Z L ! e.I./.,X*XqXqX>Xl.8.E O.`.`.'.`.O.Z V c < h *.-.).xXVXVXbXcXS.C.4.h.K.K.e.p.m.m.c.g./.Q.e.4.o.*.9 $ C _.`.'.'.`.O.Z D F F +.+.+.[ `.`.'.[ [ ",
"b ~ c.oXv.W U C Y 6.y.J.L./.5X8X5X/.h.6.Y ) +.`.'.'._.C v 6 9 *.-.).xXZXAXAXnX(.-.X.4.0.u.K.P.M.c.c.n.E.!.I.e.C.=.=.9 # N O.@.`.'.'.+.O.F F _._.`.`.`._._.`._.' ",
"1 ^ m..Xm.W I L ~ x.P.K.K.L././.~.d.6.K U D O.`.'.'.'.C > - j ;.zXxXZXSXSXAXkX=.=.z Z.f.M.<XeX+Xc.a.Y.&XI.t.C.C.=.*.8 * N F O.`.`.'.'.@._ _ [ '.'.'.'.`._._.[ ' ",
"B I ~ q.^ ( G W N.$X-X&XI.J.L.L.j.! H ( @.`.`.O.+.'.'.Z > 6 &.;.xXAXGXHXFXBXzX=.g C.v.1XpXaXtX=X.XoX#X=Xb.0.o.=.*.h 6 - V +.`.O.+.'.'.{ K H ` '.'.`.+._.`.[ A Z ",
"A Z U T Y ) G ! Q.rXdX-X+XI.U.J.y.p I +.'.`.`.+._.`.@.B 1 f ;.xXZXFXHXHXFXCXkX=.u 1.Y.yXhXmXuXwX*XwXyXeXV.Z.A.X. .8 , c D _.`.O.+.`.{ } w.q.^ { @.`._.`.'.[ ' Z ",
"[ [ [ { [ ] H 6.T.8X:X:X&X+XQ.L.t.p T `._.O.A `.'.O.P f h -.kXAXFXHXHXHXFXAXkX-.u <.Y.rXiXuXqX=X*XuXgXmXtX.Xw.l e & m O.+.O.F '.`._ H q. X+Xx.H _ `.'.'.'.`.[ [ ",
"A O._._._.[ / Q w./.*XwX7X,X/.U.l.<.W U O._.`.`.+.Z 1 s o.(.kXCXSXGXHXFXSXBXjX=.z :.7.Y.$X;XOXQ.XXeXfXhXiX#Xk.u @ & n [ [ _._.`.[ ) L ^ T.B.x.Y ' '.'.[ [ '.`.[ ",
"A ' _._.`.@.[ _ Q w.R.,X>X>X,XoXK.r.a W ` @.`.+.+.Z < f G.cXcXkXCXSXSXSXVXbXjX-.z i :.a.E.XXI.K.!.qXuXuXyX%Xj.i @ & n [ _.'.'._.' ' / } w.q.~ _ [ '.[ C Z [ [ [ ",
"A ' +.+._.'.'._._ R q.M.K.~.4X,XT.y.h.m.^ E D F O.O.n U }.bXvX(.zXnXBXnXvXH.H.G.C.a 5.a.n.n.K.T.XX@X@X@X%XQ.d.a @ & n _.`._.[ ' [ `.[ ) Y L _ `.'.[ / L M / Z Z ",
"A A ' ' +.`.`._.@._ Q 0.h./.8X#XB.9.P.+Xc.~ M D +.@.V ) }.BXVXlX).(.;.(.(.(.lX^.9.9.c.E.c.i.E.#X&XoXI.K.I.K.r.u @ : N _.`.`.[ [ [ `.`.] C C ' `._.] K ! q.R U V ",
"A A A A O._.+.`.`.[ E a y.Q.qX#XB.9.n..XN.^ B ) `.`._.].[.ZXAXmX).=.&.&.&.=.(.H.H.n.E.E.m.a. XqX=X!.J.u.l.y.,.r ; x C '.'.'.`.[ _.'.[ [ [ [ [ _.] } q.M.^.z.T b ",
"[ ' A ' A ' +._.`.' T ,.k.>X8X#XP.u.y.w.~ _ @.`.`.`.`.].{.DXFXVXlX-.=.*.*.&. .A.H.^.b.i.b.oX1X,X/./.L.J.y.>.r ; x C ' [ '.'.'.`._.'.'.'._.'._./ H q.V.tXmX2Xq.y ",
"[ ' [ +._._._.@.[ ' T 6.l.OX6X/.K.7.! Q ( +.'.`.`.`.`.].{.DXGXAXkX-.*.*.*.j h  .(.G...a 8.R.>X,X4X>X/.K.7.i @ - n [ '.[ _.'.`.`.`.`.'.'._.'.`.) p <.Y.tXMXmX|.8.",
"A [ _.`.`.`._.+.[ Z J ,.n.%X4X/.h.,.K / O.O.+.`.'.+.`.].{.DXGXAXzX*.j k  .j j  .X.X.k d a e.K./.5X7X>XK.r.u @ , N [ '.'.[ [ `.'.'._._._._._.[ _ W 7.J.6XmXMXwX X",
"V A `.`.`.`.`.`.] G y ,.B.&X4XU.t.p E [ Z C ) `.'.`.'.].zXDXSXBX(.h 9 h &.k k k 9 &.k z z z 1.b.+X8X4XL.y.i 0 - n _.'.'._._._.'.'.'.'.'.`.' / T q.m.2XpXgXhXdX-X",
"Z ' +.+.+.+.F _ ` W a <.B.&X8X~.y.p I _ T ~ T ] _.O.O.`.[.BXVXcXG. .j j j j k &.9 k o.S.z d u 0.W.5X4XK.7.i ; , n A _.[ A _._._.[ [ [ +.[ C R q. X1XaXaXaXyX:X:X",
"[ [ ' [ _.+.Z Y ^ p.s.<.m.=X*X/.y.a t J q.w.q.Y C F V S $.kXbX<XH.G.X.&.&.h h h k A.G.S.k s q ,.T.@X!.t.>.r @ - n A [ A A O._.O.' A A ' ) P W k.1XdXhXfX1X X#X;X",
"A [ `.`._.[ G ! V..XM.<.c.+X8XoXg.i u ! V..XB.Q U F v - 9 %.H.9X3X|... .9 8 h k S.S.A.k h s d 0..X#XP.i d 7 O : n A A A O._.'._._._._.'.@.B Q t.Q.wXuX#Xv.w.T.5X",
"A ' ) ( Y E p 9.I.V.p.<.g.!.8X!.a.a p ^ N.V.N.} #.O.> = s ..G.H.H.H.G.o.h 9 k o.A.A.k 8 8 s r 0.+X$Xm.u s 5 . * < m n v n C `.'.'.'.'.'.'.) E ^ v.T.W.V.c.c.c.n.",
"A C L W p p 9.k.k.0.>.>.b.OX4XQ.i.a T { ^ ^ ~ ] `.+.> ; ..S.A. . ...G.S.o.g A.D.A.g 8 6 6 8 r 0.+X*Xn.u s 7 6 . # & & . # x C +._._.'.[ [ [ C L ! 0.5.c. X Xa.>.",
"N I ! p.b.m.<X3X~.>.i >.m.#X4XU.r.a t v 1 w 1 N S b = e ! A.X.8 9 h o.A.S.A.D.H.S.z 8 2 2 7 q 0.XX#Xm.i 0 6 c > $ . + 0 @ ; < v n v v v b x x : e u i 1.g.B.c.9.",
"1 W w.Q.&X7XsXaX<X3.:.>.B.=X8XI.r.i w & o o # : , , ; d d g h 8 6 9 f X.A.H.H.D.D.o.g 6 3 8 r 2.Y.!.a.u @ - v v > ; r i >.p ; - $ & & & & $ $ & = 0 q a 9.m.P.P.",
"w a n.%X8XrXhXgX9Xl.:.<.M.$X8XU.r.i e +     X O O * e 8 @ 3 6 8 9 8 2 s X.D.D.D.Z.A.z k d d a d.I.U.s.u @ # > x 1 p Z.^.R.f.p ; = : : : - : : > % 1 r a 9.B.oX4X",
"w a J.Q.%X&XwXyX6XK.r.<.b.>X4XR.y.i 0 + . X X . . O + + . X 3 8 8 8 7 7 8 z o.S.z g o.C.4.4.y.L.Q.I.r.u @   # + y w.2XmXuX+Xf.y b ) ) Z C S C C V b y w.W.#X>XI.",
"^ F.<XOX@X@X@X@X%X!.M.p.g.M./.R.g.a w < > < > < < < c , # . 3 7 6 6 2 2 2 s o.S.h s g 4.1.2.l./.%XR.e.u @ o o 0 ,.E.tXhXdX=Xn.W ( '.'.`.@._._.@./ R ! V.*X8XY.r.",
"2X0XfXqX&X@XQ.Q.@XqX$XW.s.9.M.W.m.a J ' Z D O.Z Z [ `.C : + 3 7 7 7 4 2 4 h 4.S.l 8 7 s u 1.l./.qX#Xa.u @ o 0 >.k.#XtXyXyXOXg.W U '.'.`.O.`.`.[ K 6.m.+X*XoX9.p ",
"pXsXhX-X=X=X3X9XeXrX;X>Xt.1.g.~.n.a Y +.`.'.`._.`.'.O.m - 5 4 d g z o.z s f o.D.z s 2 8 r a 1.M.&X%Xc.u 0 0 ! a.Q.4X*X&XW.p.a ; < V `.'.`.'.@.) ! r.U.8XqXoX8.u ",
"<XeXuX*X=X-XaXsXfXyX*X~.r.<.d.P.b.a I [ '.'.'.`.@.[ m , = 7 s d z S.D.o.g s o.S. .8 2 3 8 s u s.!.oXa.i u ,.B.@X&X>X@XoXn.,.0 O # x C `.'.'.@.) W 0.K.4XqX+Xw.u ",
"q.N.!.OX&X;XsXhXdXqX/.k.1.<.d.L.k.a G Z [ '.`.[ V v = = 7 8 s d z 4.o.z l d l l s 3 3 3 O + q <.P.P.a.>.7.E.tXfXrX4X@XoXn.<.r + 2 * < B `.'.`.) Y W 6.^.8X+Xw.u ",
"y 6.n.U.oX#XwXyXwX<Xf.,.i >.h.K.h.a G V Z ' ' V c = = 7 8 8 7 8 8 s s s s t s 7 + 3 o X X + q <.l.l.r.7.Y.;XgXgXtX7X%X!.~.h.<.u e 5 6 < N O.`.`.@.I p f.!.OXw.i ",
"W w.j.l.K.!.&X*XoXv.! y r ,.j.K.h.a w c v n m < - + + 5 5 5 3 * 2 % % < b G < : . X X   X o q <.l.l.y.0..XyXsXpX9XoXoXQ.K.n.K.f...s @ * , m O.'.'._ y 8.I.R.9.u ",
" X XB.7.r.I.4X%XM.! G U J a l.L.h.a e & # # # * 5 7 5 + O O O * m D F Z C #.#.C > O X X   @ r <.l.k.t.6.M.,X4X~.L.K.L.K.0.p. X.Xf.u s 3 6 < V `.'._ H 9.L.P.8.p ",
"N.M.n.2.r.U.5X4XM.W G [ J 6.K.U.l.:.e o X X X O + 5 , , < < < v S +.`.+.F F `.`.N < # X + ; u 1.u.w.^ ~ z.M.2X3X<XI.K.l.2.y.m.N.z.G ; 3 O * < N n b p 9.L.L.9.i ",
"~ 6.0.6.t.~.8X*XT.W G [ G a J.L.j.i e = . * + * * - m C Z C D O.F F +._._.F +.`.+.N , * + 8 u :.2.W P / W w.3XfXuX@XK.u.u.u.s.~ E / < * * . # & # ; u r.J.L.8.i ",
"U L H H ! g.,X7XB.! G ) b y 0.y.0.r ; x v v v < < v Z @.'.`.`.`.'.'.'.'.'.+.`.`.'.+.N < 5 7 s a >.p 1 x w ,.3XhXdX&XK.u.U.I.i.H U O.m v b : # O + + 0 a i.t.a e ",
"C C / / R 5.R.,XP.! G V x ; i a p ; v C C C V C Z Z [ `.`.`.`.'.`.`.`.'.'.`.`.'.`.`.+.B < = 7 e i d w ; r 8.+XtXwX!.K.K.%XXXc.p U `.F C C v : * # & = w a a e . ",
"' `.'.[ E a l.Q.K.! t m > * e 0 ; > V +.+.O.O.'.'.+.+.[ F F +.+.+.O.F `.'._.`.'._.`.`.+.B , 2 5 s r r p q.m.V.B.Y.P.R.OX;X*Xm.W U O._.+.A C n : : > : ; e 0 +   ",
"' [ [ [ E a h.L.j.a e - 6 5 3 - c C F O.' +.`.'.`.O.' +.+.+.O.O.F F +.+.`.`.`.`.'.`.+.`.+.Z < O 3 4 u 6. X.Xa.7.r.P.%X;X;X!.a.H P A [ [ [ [ Z C V C A n : + . . ",
"' [ @.`._ Q q.s.0.r @ 3 3 7 6 x V _.F +.F `.'.'._.F A +.+.F F F Z O._._.+._._._.`.`.+.`.`.O.N > * 5 e 6.m.B.0.<.t.oX;X;X8XQ.d.W P Z F +.O.F F F A [ `.Z n x > > ",
"Z [ `.`.O.B K a u @ 2 5 5 = c Z '.'.`.'.'.'.'.'._.+.F F A A F F A ' `.`._._._.`._.`.`.'._.A F N % * 7 d a <.:.0.T.;X;X@X/.L.t.W P O.F F F F F F A A `._.A Z Z C ",
"' [ ' m > > ; e @ O . 5 - b C _.'.'.'.'.'.'.`.'.'.'.F A A A +.+.+.+.+._.`.`.'.'.`.`.`.`.A A A N : 6 5 7 0 q i t.@XrXqXQ.l.8.~ ` @._.O.D A F O.+.[ _._._.`.`.[ A ",
"C N v & $ & = = * * # - b C #.'.'.'.'.'.`._._.`.'.'._.F F _._._.`.`.`._.`.`.'.'.'.`.`._._.+.A V x * 5 5 + + r q.E.4X!.K.h.! I ) '.'.`.O.O.+.`.`._.'._._.`.'._.[ ",
"c , = * = : < x x > < x Z `.'.'.`.`.'.`._.F F `.`.'.'.'.'.'.'.'.'.'.'.`._._._._.`.`.`.'.'.'.'.O.B < * 3 X . b R q.b.k.y.n.q.~ ( +.'.'.'.'.'.'.'.'.'.'._._._.A A ",
"# . . & x N Z A Z Z C C +.'.'.`._._._.F '.'.'.F _.'.'.'.'.'.'.'.'.`._.`._.[ [ [ +.+.`.'.`.O.'._.O.V < O o - B U Q <.1.w. X Xx.J / '.'.'.'.'.'.'.'.`._._._._.A Z ",
": , < v V [ _.`.'.`.+.+.+.`.`._.F _.+.+.'.'._.+._.'.'.'.'._._.`.'.`._.`.`._._._.`.`.`.'.`.O._.'.`.O.N : . - v b t <.t.c. XB.z.T ) `.'.'.'._._.'.'._._.'.'.A A Z ",
"Z ) +.+.+.+.+._.'.+.' ' O.+.[ [ _.`.'.'.`.F A `.`._.'.'.'.[ _.`.`.`.'.'.'.`.'.'.'.`.'.'.`.+.O._.'.+.Z N : X . + r 0.P.W.a.! G @.`.`.'.'.'.+.O._.`.`.'.'.'.'.+.+.",
"' [ `.`._.+._._.`._.+.' _.`._._.`.`.`.+._.`._.`._.+.'.'.'._._._.'.'.`.[ _.`.'.'.`.`.`.`._.+._.`.`.`.O.V , X   + q r.P.Q.y.W B +.`.O.`.'.'._.+.`.'.`.`._._.'._.+.",
"Z ' +.`._._.`.`.+.`._.+.`.`.`.`.`.`.+.O._.`.'._.F +._.`.'._._.'.'.`._.A A '.'.`._.+._._._.`.`.`.@.`._.C , X X + u 2.K.I.y.W U O.O.O.`.'.'._._.'.'.`._.' A '._.A ",
"A ' [ +.`.'.'.'.'.'.'.'.+.O.'.`.`.`.`.`.`._.+.O.+._._.`.'._.`.'.`.`._._.`.'.`._._.+.+.+.`.'.'.'.'.'._.A < . 2 4 u 2.l.L.r.! M Z O.`.+.`.'.'.`.'.`._._._.'.'.A Z ",
"A ' [ ' _.`.`.`.'.'.`._.[ _.'.'.'.'.`.`.`.`.+.F +._._.[ _.+._.'.'.`._.`.'.'.[ A `.+.' ' +.`.`.`.'.'._.Z < # O @ u 7.J.L.y.! M ) +.`.+.+.+.+._.'.'.`._._.'.'.A V ",
"A A A A [ _.+._.'.'.`.[ [ _.`.'.`.`._.`.'.'._.+._.`._.+.O.O._.`.'.'.`.`.`.'._.O.`.+.A A O._.+._.'.'._.A m > $ 7 u 0.K.L.y.! M ' `.`._.O.O.O.+.`.`.'._.`.'.'.A Z ",
"[ ' A A [ A +._.`.'.`._._._.`.+.O.+.' +.'.'.'._.`.'.'.`._.'.`._.A A '.'.'.`.`.'.'.+.A ' F O.+.`.`.'.`._.O.V > ; r 0.l.K.t.W U +.`.'.'.'._.'.'._.[ [ '.'.'._._.A ",
"Z Z A A A A [ [ [ A [ [ [ [ [ [ O.' ' O.+.+.+._.+.+._._.+._._.O.A Z _.+.A [ O._._.' A ' O.F ' [ [ A [ [ O.A n , ; a 8.9.W I ) +.+.+._._.O.+._.O.A A [ [ A A A Z ",
"V C A A [ [ A A A Z Z A A A A A +.' +.O.Z Z O.O.O.A A A A A O.O.Z C A Z V C A A A Z A A ' ' ' Z Z Z Z A O.A C x = r a 6.G S F O.O.F F F O.F O.O.Z C A Z C Z C V "
};
