/* XPM */
static char *Group_10_8__resized[] = {
/* columns rows colors chars-per-pixel */
"80 80 234 2 ",
"   c #160A37",
".  c #263D23",
"X  c #273D2B",
"o  c #293C3A",
"O  c #2E4F1A",
"+  c #335A1D",
"@  c #37621C",
"#  c #39651D",
"$  c #3C6D1D",
"%  c #3F711E",
"&  c #2C4827",
"*  c #2E4C2A",
"=  c #314E2D",
"-  c #2E5225",
";  c #325425",
":  c #365C24",
">  c #34542D",
",  c #365A2B",
"<  c #395E2C",
"1  c #2D4734",
"2  c #2D433B",
"3  c #314B34",
"4  c #31463A",
"5  c #344D3C",
"6  c #345332",
"7  c #395935",
"8  c #36533A",
"9  c #3B5A3B",
"0  c #376121",
"q  c #3A6423",
"w  c #3E6C23",
"e  c #3D642C",
"r  c #3E692A",
"t  c #3F7120",
"y  c #3E6333",
"u  c #41751F",
"i  c #43791F",
"p  c #406B29",
"a  c #416B2C",
"s  c #417521",
"d  c #457C21",
"f  c #447429",
"g  c #487A29",
"h  c #4A7C2B",
"j  c #456933",
"k  c #4B7433",
"l  c #4E7B33",
"z  c #517B38",
"x  c #547C3C",
"c  c #1E1644",
"v  c #221C4A",
"b  c #2B3949",
"n  c #292858",
"m  c #283351",
"M  c #2F3C55",
"N  c #2E3162",
"B  c #323969",
"V  c #363E70",
"C  c #2E4243",
"Z  c #334B43",
"A  c #324847",
"S  c #33444C",
"D  c #395447",
"F  c #2F4153",
"G  c #344553",
"H  c #374C57",
"J  c #34445A",
"K  c #364B5A",
"L  c #3A5557",
"P  c #3B535A",
"I  c #3E6053",
"U  c #354465",
"Y  c #36436C",
"T  c #394A68",
"R  c #3D5468",
"E  c #394774",
"W  c #3C4A7B",
"Q  c #3D5177",
"!  c #41564B",
"~  c #4D6B44",
"^  c #516D4D",
"/  c #577B45",
"(  c #405C61",
")  c #43597B",
"_  c #48656F",
"`  c #47841F",
"'  c #478022",
"]  c #498423",
"[  c #4C8A24",
"{  c #4D8629",
"}  c #568538",
"|  c #598243",
" . c #5E8449",
".. c #62894D",
"X. c #668A54",
"o. c #678758",
"O. c #70935F",
"+. c #718D68",
"@. c #759469",
"#. c #738B70",
"$. c #7C9775",
"%. c #83997B",
"&. c #829C7C",
"*. c #85A17B",
"=. c #3F5081",
"-. c #445785",
";. c #465B8C",
":. c #465991",
">. c #495D94",
",. c #4A668A",
"<. c #526F88",
"1. c #4C6494",
"2. c #4C649A",
"3. c #4D6A98",
"4. c #526C9B",
"5. c #537598",
"6. c #62799F",
"7. c #4F67A3",
"8. c #5269A6",
"9. c #526CA5",
"0. c #5673AB",
"q. c #5675A8",
"w. c #5875B3",
"e. c #5B7AB4",
"r. c #5C7BBA",
"t. c #647BA5",
"y. c #5B839E",
"u. c #5D83AE",
"i. c #5E81B9",
"p. c #668DB4",
"a. c #6184BC",
"s. c #648CBB",
"d. c #6A91B0",
"f. c #6285C2",
"g. c #658BC4",
"h. c #688DC5",
"j. c #668DC9",
"k. c #688ECC",
"l. c #6A97C4",
"z. c #6992CD",
"x. c #6D96CE",
"c. c #698FD1",
"v. c #6C95D3",
"b. c #6E99D5",
"n. c #6F9BD9",
"m. c #719EDB",
"M. c #72A7CB",
"N. c #73A7CB",
"B. c #75A9D3",
"V. c #73A1DE",
"C. c #7BB3D6",
"Z. c #76A5E2",
"A. c #77A8E4",
"S. c #78AAE6",
"D. c #7BAEEA",
"F. c #7CB2E5",
"G. c #7FBAE6",
"H. c #7DB3ED",
"J. c #7FB5F1",
"K. c #879D85",
"L. c #8B9C91",
"P. c #8CA585",
"I. c #8DA28A",
"U. c #92A98E",
"Y. c #96AA97",
"T. c #9CB19A",
"R. c #A0B69A",
"E. c #A6B7A6",
"W. c #AEBCB5",
"Q. c #B0BEB6",
"!. c #B0C2AF",
"~. c #B4C4B7",
"^. c #96B9D2",
"/. c #82BDE3",
"(. c #82BCEC",
"). c #80B7F1",
"_. c #82BBF4",
"`. c #83BEFA",
"'. c #87C5DF",
"]. c #BCCAC4",
"[. c #A2C8DB",
"{. c #88C8E9",
"}. c #8DD3EC",
"|. c #93D7ED",
" X c #86C2F5",
".X c #89C8F4",
"XX c #86C3FE",
"oX c #88C6FE",
"OX c #8ACBFF",
"+X c #8ED6F8",
"@X c #8ED2FE",
"#X c #95DAF0",
"$X c #94DAF4",
"%X c #91D6FE",
"&X c #93DCFF",
"*X c #97E2EF",
"=X c #97E3F5",
"-X c #95E4FF",
";X c #99E6FF",
":X c #96E9FF",
">X c #9BEAFF",
",X c #9EF1FE",
"<X c #A7EAF9",
"1X c #A3EDFF",
"2X c #B9EDF3",
"3X c #A3F3FD",
"4X c #ACF3FE",
"5X c #A5F9FF",
"6X c #ABFBFE",
"7X c #B2F4FF",
"8X c #B9F6FE",
"9X c #B4F8FD",
"0X c #BDFAFF",
"qX c #C2CDC9",
"wX c #C6D3CA",
"eX c #CBD5D3",
"rX c #CCD9D8",
"tX c #D1DCD7",
"yX c #DAE2DD",
"uX c #D3DEE2",
"iX c #DAE3E3",
"pX c #C4EDF1",
"aX c #C7F3F6",
"sX c #C3FCFF",
"dX c #CCFEFF",
"fX c #D2FFFF",
"gX c #DAFDFD",
"hX c #E5EBE9",
"jX c #E3EBEC",
"kX c #EAF0EF",
"lX c #E8EFF1",
"zX c #ECF2F3",
"xX c #F3F7F7",
"cX c #FBFDFE",
/* pixels */
"O @ u % u u u u u $ $ u u u u u % t d % % % % d d % d % % % $ % % % d % % d % % # # i % % % % % u $ $ u i % i % % i s i % $ % i d u u i $ $ $ $ u u s u u i $ + ",
"# $ u u s s $ u u $ u d d u u u t t % % % % d t % % % % % t d i ' i % % % i ' ' i % % % u u % % % % % i s i s % % i % % $ % % i u $ u $ u s d d d s u $ u d u # ",
"i i u i d d u u u u i ' d d d u t d t t % % ` % % % % % % ' [ [ ] ' % % % i ] [ [ ' u ' ' i % % % u i ' ' d d s t d % % % s ' s u s $ u s ' [ [ [ ' u $ u d i i ",
"u i ` [ ] d u i u u u ' ] [ [ [ ] ] t w d [ [ ] ] ' ] ] ] ' ] ] ] ] ] % % ' i ' ' ' ' ] ] ' i u d u i ' ] ] [ [ ] ] % % ' ] [ ] ' ' ' ] ' ' ] ] ] ] ' d s d i $ ",
"u u d d [ [ ] d ' d d ] [ [ [ ] ] ] ` ` [ [ [ [ [ [ [ [ ] ` ' ' d ' [ t w 0 : : : : 0 % ] ] ] ] ' d d ' ] [ ] ] ] ] ] ] ] [ [ [ [ ] [ [ [ d d d d d [ d d d i u ",
"u u u u d [ [ [ ] ] ' ' [ ] d d ` [ [ [ [ [ [ [ [ [ [ ] ] % % ' % t ] r > 2 2 1 2 2 1 ; s [ [ ] ] ] ' ] [ [ ' d ' [ [ [ [ [ [ [ [ [ [ [ ' d d d % u [ [ [ d i i ",
"$ u u i d d d d d s s s s d ] [ [ ] ] t t ` ] ] ] [ [ [ [ % % % % $ t y L -.-.) ,.-.Q D e % i ' i s s d s ' ] ] ] [ ' % s d ] ] ] [ [ ] ] d u i $ $ d [ [ d u # ",
"# u u i d i i s u u % % % u d ] ] ] d d d t d t d [ [ [ [ ' [ ] % @ 7 P <.s.l.s.l.l.d.<.I , 0 $ % % % t % % d ] ] ' d d d d d % d [ [ [ [ ' ' ] d i ] [ [ s # @ ",
"$ % % ' d % % % % % u % % % % s ` d ] [ [ d t t s ] ] ] ] [ [ ] t > G <.l.}.}.'.}.|.{.l.,.C - @ t % % % t % t t ] ' ] [ ] ' % % s [ [ [ [ [ [ [ ] ] [ [ ] % $ $ ",
"$ % i d d d % % % t % % s d s ' ] ] ] [ [ ] d [ ' s s w w t s t > L 5.M.}.<X<X3X5X,X|.N.,.C & + % % t % % ' t ' ] ' [ [ [ [ ' ] [ [ [ ] ] ] ] ] ' t s ] [ ' d u ",
"% % i ' ] ' % % u d d s d ] ] [ [ ] [ [ [ ] ] [ d e 6 3 = * * * D <.M.}.,X6X6X5X>X}.B.y._ 8 : # % ' d % ' ] ] [ [ ] ] [ ] ] ] [ [ [ [ ] d d ] ] % $ % d [ ' ' i ",
"i % s [ [ ] d d ' [ [ [ ] ] [ [ ] ` [ [ d ` ] t q 8 G B M m b M ,.d.}.>X3X,X1X=X(.l.<.L y d s s ] [ [ [ ] ] [ [ [ ' [ [ ' ' ] ' ] [ [ ' i ' [ [ t $ % ] [ t % i ",
"% % u ` [ [ [ ] u s ] [ ' d [ ' d ] [ d w 0 0 + 9 _ 4.q.4.3.1.5.s.'.3X5X3X$X{.B.q.) D e t [ [ ' % ' ] [ ' d [ ' ' ] [ ] ] [ ] ] ] [ [ [ ] ] [ [ ] ] ] [ [ d % % ",
"$ % s d ] [ [ ] u t d [ ' d ] ' d ] t w 6 3 1 5 ( y.B.{.C.B.M.B.}.=X5X5X>X(.n.e.R 4 ; s ] [ [ ' % % ' [ ' d [ d ' ] ' ' [ [ [ ] ' [ [ [ [ [ [ ] ] ] [ [ ] ' s % ",
"u i ] ] [ [ ] ] [ ' d [ ] d ' [ [ ` 0 3 K Y Y Q y.M.*X,X=X=X=X=X=X,X:X>X$XF.g.1.A ; t ] ] ] d ] ] s % ] ' ' ] [ ] ] % % d [ [ t i d ] ] ] [ ] ' s s i s s ' d % ",
"% i [ ] ] [ ] ] [ [ ] ' ] ] ] [ ] # > L 5.w.e.u.M.}.3X6X5X5X5X,X,X:X&X&XOXH.v.0.R 6 0 # 0 0 , ; 0 ; ; $ d ] ] [ [ i % % % d ] % % s ' ' s ' t w ; ; ; ; ; 0 w % ",
"% i ] i d [ ] ] [ [ ] t ` ] [ ] t 3 L 5.M./.'./.}.=X,X5X3X5X5X5X>X&XOXOXOX_.H.b.5.R Z 1 2 Z Z C A S Z > t ' ] [ ] s u u u u i t % s s d s s r 8 C F Z C A 5 , # ",
"i i s % u d d ' ] d t t t t [ t 7 K 5.B.|.3X4X3X3X>X>X>X>X>X,X>X-X@XoXXXXXOX+X}.B.u.;.W ) -.;.;.1.1.=.D , # d d d ' ' i ' ' ] s f s s d ] w y R ,.3.,.1.1.-.L > ",
"u d ' s s u d d ' t t d t % # 6 L ,.M.$X9X0XsX9X4X1X-X-X:X>X,X>X&XOX`.`.XXOX@X@X_.m.f.r.r.a.s.l.l.M.s._ Z & * - q i ' ] d d t : = * = ; - 6 L y.l.N.l.b.N.p.<.( ",
"$ d [ ' d d d d t t ' ` t @ - K 3.l.}.,X0XdXfXsX9X1X:X:X>X>X>X>X&XOXXX`.XXOXOXOXXXJ.D.Z.Z.D./.{.}.$X{.p.) b m b Z r d ] s w 0 Z G M M b b J <.M.}.$X}.}.|.'.d.5.",
"d d ' [ [ [ ' ' ' t t t @ * K 5.B.|.2XaXdXfXgXdXsX7X1X>X>X>X>X>X;X%XOXXXXXOXOX@X@X%X+X%X%X$X:X>X,X6X<X'.d.4.9.3._ D q % s r 9 <.t.t.t.<.6.y.N.|.<X6X3X6X4X=XC.j.",
"u d ' [ ] [ ] ] [ ] i @ 3 H 3.M.#X6XsXdXdXfXfXdXsXsX7X1X>X:X:X>X;X;X%XOXXXXXOX@X-X;X;X;X-X:X:X,X6X0X2X<X{.B.B.B.u._ 8 & * D _ d.^.[.^.^.^.^.|.1X3X3X5X6X6X>XH.k.",
"u d [ ' ' ] ] ] [ ] t , K ,.l.}.9X0XdXdXdXdXdXdXdXdXsX7X1X;X:X;X>X>X;X%XOXOX@X-X>X>X;X;X;X>X;X>X6X0XsX7X<X$X=X|.C.y.T m m R d.].pXaXpX2XuX2X4X<X,X,X,X,X=X.Xb.r.",
"u i d ] ] [ ] ' d t 7 K 5.M.|.2XsXdXdXfXdXdXsXdXfXfXsX8X1X:X-X:X>X>X>X&X@X@X&X:X:X:X>X1X3X4X<X1X7XsXdXdX8X2X6X5X*XM.u.2.2.p.[.aXgXgXdXdXaXsX8X3X>X,X=X-X Xb.4.) ",
"u i ' ] ] ] ' t w 6 H 3.M.#X4XsXdXdXfXdXdXdXsXdXdXfXsX8X1X;X:X>X>X,X>X:X&X-X-X:X;X:X>X3X9XsX0X0XsXsXdXfXdXsX9X4X:X}./.C.B.'.<XaXfXfX8X7X7X9X6X3X>X;X&X Xv.4.( S ",
"$ d [ ] ' t t w > K ,.M.#X6XsXdXdXdXdXdXdXsXdXdXfXfXsX9X1X:X-X;X>X>X;X>X>X>X>X>X;X;X>X7XsXdXfXdXdXdXdXdXdXsX7X1X:X:X:X,X:X,X9XsXsX7X1X-X;X>X>X>X>X$X.Xb.8.J 4 O ",
"u d ] ' t 0 + 6 P 5.M.}.2XsXdXdXdXdXdXdXdXdXdXfXfXgXdX8X1X:X:X>X>X>X>X>X>X1X<X7X7X4X7X0XsXfXfXfXfXfXfXdXsX9X<X>X:X,X,X,X5X5X6X9X4X1X:X:X:X:X>X;X+X(.z.5.( 8 + u ",
"u d ] ' t 0 & K 5.N.|.4XsXdXdXfXdXdXdXsXdXdXdXdXfXfXsX9X1X:X-X;X>X;X;X>X:X1X7X0XsXsXsXsXsXfXfXfXfXfXdX0X7X1X>X>X,X,X,X,X3X3X3X1X1X>X:X:X:X>X:X&X(.k.9.P 5 q u u ",
"u d ] [ ] q o E l.}.4XsXdXfXfXdXdXdXdXdXdXdXsXsXsXsX0X4X1X;X:X;X;X:X:X:X:X1X7X0XsXfXfXdXdXdXsXsXsXsXsX7X1X:X:X:X>X>X>X>X>X>X:X:X>X>X>X>X>X>X&X%XS.r.W C + s g u ",
"$ u ] [ ` 0 o U i.{.5XsXdXdXdXdXdXdXfXfXdXdX0X7X7X7X4X4X>X;X:X>X>X:X:X-X:X>X1X4XsXdXfXgXfXdXsX8X4X7X4X1X>X:X:X;X>X1X>X>X>X,X>X>X,X>X>X>X&X%X&X%XD.e.W 4 + s u u ",
"$ i ] ] s : o Q s.{.,X0XdXfXdXdXdXdXdXfXdXsX7X1X>X>X>X>X>X;X>X>X;X>X;X;X:X:X>X1X4X0XdXfXfXsX9X1X>X>X1X;X>X;X>X;X>X>X>X>X>X>X>X:X>X>X>X;X%XOXOX%XH.r.-.C + s u u ",
"u i ] d w 8 R 5.C.}.3X0XdXfXfXdXsXsX0X0X0X7X1X;X-X-X:X;X;X>X;X:X>X1X1X1X>X-X-X:X1X7X0XsXsX8X1X:X-X-X:X;X>X>X;X-X&X-X-X&X&X-X&X-X&X;X&X%XOXoXOX%XF.f.-.A : i i i ",
"u i s 0 D _ y.M.}.=X1X0XdXfXgXfXsX7X<X1X4X<X>X:X-X-X:X:X;X:X-X:X1X7X8X4X1X-X-X-X:X,X6X4X4X<X1X:X:X-X:X>X>X>X-X%X@XOX@X@X@X@X@X@X%X%X%XOXoXOXOX%X(.r.-.S ; ] ] i ",
"$ u w * K 5.C.|.,X;X1X7XsXdXfXsX8X4X>X:X>X>X>X;X:X>X;X;X>X;X;X>X4X0XsX8X<X>X:X:X:X:X>X>X>X>X>X>X>X:X>X>X>X:X%XOXoXoXoXoXoXOXOXXXoXOXoXoXoXOXOX%X(.r.-.b ; ] i i ",
"$ % q o T s.{.>X5X1X>X1X7X8X0X9X<X>X-X-X:X:X:X>X>X>X;X>X>X>X1X7XsXdXdXdX0X4X1X>X-X+X%X&X:X:X>X>X>X,X>X>X:X@X@XXXXX`.XXXXXXXXXXXX`.oXoX`.oXoXOXoX/.e.-.A : d u u ",
"$ % : X T u./.=X6X,X>X1X1X1X1X1X1X>X:X:X-X:X>X>X;X>X;X:X:X1X4XsXsXfXdXdXsX0X4X>X&X@XOX@X-X>X>X,X>X>X>X:X%XOXXXXXXXXXXXXXXXXXXXXXoXoX`.oXOXoX`.).c.0.-.S : i u + ",
"u $ @ X J q.C.*X5X3X>X:X;X:X;X>X>X>X>X>X>X>X>X>X>X>X>X:X:X1X7XsXdXfXdXfXdX0X7X1X&XOXOX@X&X;X;X;X>X>X:X@XOXXXXXXXXXXXOXXXXXXXXXOXoXoXoXOXOXoX).V.k.8.) b < g u u ",
"i u # . G 9.C.*X5X3X>X:X:X:X:X>X>X>X,X>X>X>X>X1X>X>X>X>X>X>X1X7XsXdXdXsXsX4X1X>X-X&X@X@X@X@X@X%X&X&X&X@XOXXXXXXXOXOXXXXXXXOXOXXXoXoXoXOXOX`.`.).j.7.E Z # d i u ",
"i % # & K q.C.=X5X,X>X>X>X:X>X;X>X>X>X>X>X>X>X>X>X>X>X>X>X:X>X1X7XsXdX0X4X>X;X>X>X>X-X&XOXOXoXOXOXOXOXOXOXXXXXXXXXXXXXOXOXXXXXOXoXoXoXOXOXOX).).k.8.-.M ; u u u ",
"# w 7 S ,.l.G.$X3X,X>X>X>X>X;X;X:X>X;X;X&X-X&X-X&X&X-X:X>X:X:X:X1X9X8X7X1X:X:X;X>X>X>X-X%XOXoXXX`.`.J.XXXXOXOXXXXXOXOXXXXXXXOXXXoXOXOX`.OX_.).).c.r.>.( 5 q p u ",
"O = L ,.s.F. X@X;X>X1X,X>X>X;X;X;X;X&X&X%X@X@X@X%X@X%X&X1X>X>X>X1X4X4X3X>X:X:X;X>X>X,X>X;X%X@XoXJ.D.D.J.XXOXOXOXXXOXXXoXoXoXOXOXOXOXOX`._.).).n.m.c.r.7.( Z ; + ",
". S ;.a.F.+XOXOX%X;X>X3X>X;X}. X(.(.{. XoXOXOXoXoXoXOX%X;X;X>X>X;X>X>X>X>X>X;X>X>X>X>X>X>X&X&XOXJ.A.Z.Z.H.XXOXOXXXOXOXOXOXXXoXXXoXoXoX_.).m.m.m.Z.Z.m.f.7.( 3 O ",
"X J 7.n..X&XOXOX@X&X>X3X>X%XF.v.r.r.k.V._.XXoXXX`.`.oXOX%X-X&X&X%X%X&X&X>X>X,X>X;X&X&X-X-X&X&XOXJ.S.n.m.S.).XXOXOXOXOXOXOXoXXX).).).).).m.b.b.n.Z.).).n.r.-.A - ",
". G 2.v.(.&X@XOX%X%X&X>X;X(.l.2.W W 2.f.H.OX@XoXoX`.oXOXOXOX%XOXOXOX@X&X:X,X3X>X;X&X@XOX@XOX@XoXJ.S.m.v.V.F._.XXOXOXOXOXOXOX).D.Z.Z.Z.Z.m.b.b.m.m.).D.n.r.V o & ",
". G >.k.(.%X@XoX_.(.(.{.F.l.>.B n B >.h.).OX%XOXoXoXoXoXoXoXoXoXXXXXOX@X-X:X>X:X&X@XoXoXXXoXOXoX`.J.Z.n.n.V.F._.XX.XXXXXoX_.H.Z.n.n.m.m.m.m.m.m.m.m.n.r.,.K 3 + ",
". S >.k.(.%X@X_.Z.k.f.r.0.:.N n n =.e.B.).OXOXoXoXoXoX`.`.oX`.oX`.XXXXOX@X&X&X&X@XOXXX`.XXXXoXoXXX`.J.Z.V.m.Z.D.J.J.H.J.(.H.Z.m.n.n.n.n.m.m.Z.Z.m.k.e.,.D = : # ",
". G >.z.(.@XXXZ.r.7.-.E V N v N -.a.F..XOXoXOXoXoXoXoXoXOXoXoX`.XXXXoXoXOXOXOXOXoXoXoXXXXXoXoXoXoXOXXXH.Z.V.V.V.Z.Z.Z.Z.Z.Z.V.V.m.m.m.m.m.Z.Z.Z.v.r.;.P , p u @ ",
". S >.x._.OXS.a.:.V n c v n n -.i.F.%X&XOXoXoXOXoXoXoXoXoXoXoXoXoXoXoXoXXXXXXXXXoXoXoXoXoXOXoXOXoXXX XH.V.V.n.n.n.m.n.m.n.n.m.m.V.m.m.m.m.V.Z.).v.8.) S O u @ + ",
". F >.m.XXJ.g.>.N n c   c N -.a./.`.%X&X@XoXoXOXOXoXoXoXoXoXoXoXoXoX`.OXOX`.`.`.`.OX`.OXOXOXOX`.XX_.H.S.Z.m.m.b.n.n.n.n.m.n.m.m.m.Z.m.m.m.Z.S.).v.w.-.b = @ p u ",
". G 1.n.J.H.i.=.N n n n V 2.j./.%XOXOXoXOX`._.).oXoXoXoXoXoXoXoXoXOXOX`.`.OXOX`.OX`.OXOXOX`.OX`._.H.Z.m.m.m.m.m.m.m.m.m.m.m.m.m.m.m.m.m.m.Z.Z.Z.j.8.) M 8 e u p ",
". G :.z.F.H.g.4.;.,.>.,.9.l.J.@X%X`.).).).).).).`.oXoXOXOXOXoXoXoXOXOXOXOXOXOXOXOXOX.X`.`._.).).H.Z.n.n.m.m.m.m.m.m.m.m.V.m.m.V.m.m.m.m.Z.m.n.j.q.-.B D 9 y p u ",
"& G :.i.V.H.Z.m.b.x.b.b.V.F.oX@X`.).).Z.).m.).).(.`.OXOXOXOXOXOXOXOXOXOXOXOXOX`.@XOX`.).).).v.).Z.V.m.m.m.m.m.m.m.m.Z.m.m.V.m.m.Z.m.m.V.Z.n.f.0.) H 5 9 y : + u ",
"X G :.w.n.J.`._..X.X.X.X.XXXOXoX).Z.m.n.V.V.m.Z.).).`.`.oX`.`.`.`.`.`..X).)._.`.`.`.`.(.n.v.n.).m.V.Z.Z.Z.m.Z.Z.m.Z.V.Z.Z.Z.Z.V.m.m.Z.Z.).n.r.:.U 4 < j a < + @ ",
"X G >.r.n.J.`.XXOX@X.XoXXX.XXX_.).V.n.n.V.V.V.Z.m.).).).).).).).).).).).).).).)._.).).).).v.v.v.n.Z.Z.S.Z.Z.S.Z.S.Z.S.Z.Z.Z.S.Z.).Z.Z.).).n.r.-.M 4 j a a e p @ ",
"X J >.r.m.D.D.D.D.H.H.D.S.S.S.S.S.V.m.m.Z.Z.Z.Z.m.Z.).Z./.Z.Z.Z.).m.).m.n.).).n.n.)./.c.c.v.n.n.Z.Z.Z.Z.S.Z.Z.S.S.Z.Z.S.S.Z.Z.S.Z.Z.Z.).).c.r.>.( o y e p e p @ ",
"; 8 R 1.f.V.S.V.m.z.z.n.Z.V.v.z.v.V.V.n.c.k.j.k.x.m.m.V.n.V.Z.V.n.b.).m.).m.c.).m.v.).m.).n.).c.n.v.z.j.k.k.k.k.k.j.j.k.k.k.k.k.j.k.j.v.c.f.9.) M 8 y j a p p u ",
"# q 6 K >.j.m.m.j.0.0.f.n.v.r.0.r.b.V.x.w.2.>.8.r.x.m.m.).Z.m.Z.m.).).n.V.).n.m.m.).v.).n.).).).b.r.8.>.8.8.8.8.8.8.7.7.7.8.8.8.7.7.8.8.w.2.) P D 7 y a f g u u ",
"% % q 1 T 8.k.v.r.;.-.0.c.h.2.-.2.h.x.r.;.Y B ) 4.a.m.).n.m.m.m.b.c.m.m.n.m.m.n.c./.n.n.).c.n.).f.7.) ) V V ) ) W ) ) ) ) V V -.) ) ) W -.E P 9 a a a 0 # d d u ",
"} l f > C Q 4.w.4.) U >.e.0.) ( ) q.r.9.( b o b ) 1.f.c.f.f.a.f.f.f.f.f.f.f.f.f.f.f.h.r.w.f.c.f.9.) J b M M M G M G G G G M M J G G G G N G D y e q r w % i i u ",
"&.%.+.~ 3 2 ) ;.) L Z ( ;.-.P A L ;.>.) H 3 , = Z ) 2.8.2.2.2.2.>.2.2.>.2.2.2.2.2.2.2.2.>.2.8.2.) P 8 7 3 3 8 8 8 8 8 8 8 8 8 8 8 8 8 5 5 8 9 y q q t s d % u i ",
"hXhXqX%.~ 7 G J A 7 > 4 G G 9 j 9 J J D j f k ~ 9 P V V Y ( B V U U B ( B ( V V Y ( V V V ( V ) H 5 > < ; < p e e < e j j j p < < e p j a a a a f d ] [ [ d d i ",
"hXzXxX].%.~ Z 8 < t t , 4 8 p p j 5 5 6 p f z ^ ^ ! o o o o o o o o o o o o A b S S S S S b M S ! 7 e e e e a a p < p j p e e j e j e p p f s p f i ' [ [ ' d i ",
"T.].kXxXwX%.^ j f ] { f e e u s f 7 < + u k / T.L.^ 7 & X = = = > > = > , > 7 7 9 9 9 7 9 8 7 7 7 y j p a a p j e < < e < < < p j < e q # u s s u s s ] [ ' i i ",
"x %.!.kXkXwXy.~ f f l k k k d i s p # + p X.E.iXqX$.~ a j j ~ ~ ~ ~ ^ ^ j j j f g f p p f k p p p p p p p p p p < q q : : : p p p , q q u u s s $ s d d ' ' d % ",
"# l %.!.yXhX!.K.@.&.P.U.&.X.h i i i s k ..T.yXcXjXW.K.+.#.K.L.Y.Y.Y.Y.Y.L.o.k t ' ' i ' i i i i u s p # s f s p w s w w w f f d t q 0 % u t % t % % ' ' d ' u % ",
"u u l %.wXxXiXeXqXwXtXlXwXI.| d [ [ h / T.tXxXzXjXuXqX].].qXeXrXuXrXuXlXiXY.X.{ d { { [ g d h ] h d u u s ] d i ' ' ' ' ' ' ' ] ' % $ $ % % % i % u ] ] ' ' i u ",
"u u / I.eXcXcXzXtXQ.Q.hXzXtXU...] [ g X.wXjXeXR.W.uXkXzXzXiX].L.&.P.E.yXxXiXT.X.z z | / / ~ / / l d ] ] ] ] ' ] [ [ [ ] [ ] ] ] ] ] t % % % s d i d ' ' ] ] ' i ",
"a X.U.qXhXcXcXhX!.%.%.E.jXxXeXP.} [ i X.tXeXI.X.@.!.zXcXcXeXU. .z } O.E.iXcXyXE.U.I.U.U.I.Y.E.U.O.} d ] [ ] ' [ [ [ [ [ ] ] ` ] [ [ ] d % d ] ] ] ] ] ' ' [ d i ",
"o.E.kXzXiXiXkX~.O.l g / E.kXxXwX*.} g O.wXE./ l } $.eXxXjXR.X.} [ [ { X.U.iXjXiXtXrXrXrXrXiXkXwXP.| p i ' [ [ [ [ ] ' ] ' d i ' [ [ [ ] [ [ [ [ [ [ [ ' i ` i % ",
"wXhXxXwXY.@.*.@.z d i f O.Q.xXxXqX$.+.T.hXQ./ f g } $.P.*.+.o.X.} i i h ..K.I.I.I.I.I.I.I.L.T.P.o.l u s ' [ [ ] ' ' d d ] [ ' d ' [ [ [ [ [ [ [ [ ] ' ] ' i % $ ",
"cXxXtX*./ a k h g d i u l @.].kXkX~.!.eXhXE./ g i ] } l l / +.U.@.z d d { x / x / | } | x / / / l f s u d ] [ ' d ' d d [ [ ' i ' ] [ [ [ ] ] ] ] ] ' ] ] ' % $ ",
"cXtXP...h d d ] [ d u u u g / Q.kXzXxXkXqX%.j { ] d [ [ { k +.Q.T.@.} ] [ [ [ [ { { [ { ] d d { [ i u u i d u i d ] [ [ ' u u [ ] ] [ [ [ i i ] [ ] [ [ ] ] ' i ",
"qXU...d i i ] i ] ] i u i [ h +.W.iXlXwX*. .h ] ' d ] [ ] d x @.U.U.*.| s ] [ [ ] ] ` ] ` i ' ' ] ] i u ' ] i ' ] ] ' i ' ' ] ] ' d ] [ [ ' i ] [ [ ] ' ' [ ` i ",
"%.X.u i ] i [ ] i [ ] i d [ ] l @.eXeXT.| d ] d d s ' [ [ ] d h +.Y.E.+.k [ ] ] ' d ' ' ' ] ] ] d ] ] i ] [ ] ] ] ] ' i d [ [ d s d ] ] [ ] ] ] [ ] ` % % [ ' % ",
"j f i d ] [ [ [ [ [ [ [ i d [ d X.~.!.&.} i d u i d ' ' [ ] ] { x +.E.U.o.l f i ' i ' ' ] [ [ [ [ [ [ ] d s [ ] ] [ ] ' ' ' d u % ' ' ] [ ] ] ] ] ' ' ' [ [ % $ ",
"p u u u i ] ] [ [ [ [ i i d [ i  .~.W.&.} ` i u d ] d i d d ' [ { } +.P.Y.P. .p d ' % % d ] ] ] [ [ ] ] d d [ [ [ [ ] ] [ ' d i ' ] d i ' d ] [ [ ] ' ' [ [ % # ",
"u u u u u u i ] [ [ ] i i ] ] d X.].].P.} [ ] ` ' [ ' s s i d ] ] ' h @.T.E.+.p ' i % % % ] ' ' [ [ ] i d ' ] [ ] ] ' ' [ [ ' d ] ] ] d i s ' ] ] ] ] ] [ [ % # ",
"u u # u u u i i ] [ ] i i i ] u o.rXrXY.} ` ] ] ' [ [ [ ] ] ] ' i u ] ..+.$...d ] ' % u ' t i ] ] [ ' ` d ' ] ' s s i d [ [ ] ' ] ] [ ] ' ] ] ' i i ] [ [ ] ` % ",
"@ # u u u u u u i u u u i i i p o.].].P.z u d d d d ' d d d d d $ $ d g j x l s d i % % t t t t i i % i i i s u i u i s d d d ' ' ' ' ' d ' d d % % i i % % % % ",
"+ u u u u u u u u @ u u i u p #  .~.W.$.f # u d s u % % s % % i $ # u $ + @ $ % % % % % t d t w % # % % % % $ u s i d u $ $ u s % % % % % % % s $ # % $ # # # @ "
};
