/* XPM */
static char *Group_10_23__resized[] = {
/* columns rows colors chars-per-pixel */
"80 80 250 2 ",
"   c #1B1818",
".  c #231C1B",
"X  c #281B18",
"o  c #361D17",
"O  c #1D2716",
"+  c #24231B",
"@  c #272718",
"#  c #252C1A",
"$  c #2A2C1C",
"%  c #372618",
"&  c #243316",
"*  c #283718",
"=  c #2A3C19",
"-  c #363817",
";  c #261E22",
":  c #381E20",
">  c #2C2223",
",  c #2A2427",
"<  c #332425",
"1  c #372826",
"2  c #3B2C2D",
"3  c #373227",
"4  c #3C3033",
"5  c #4F1D14",
"6  c #4F1E1E",
"7  c #472617",
"8  c #582718",
"9  c #4B3816",
"0  c #573914",
"q  c #662A16",
"w  c #772B14",
"e  c #683716",
"r  c #643D15",
"t  c #773816",
"y  c #472926",
"u  c #522C20",
"i  c #49322D",
"p  c #583529",
"a  c #463536",
"s  c #4D3B3A",
"d  c #563D36",
"f  c #66382B",
"g  c #66392D",
"h  c #763A26",
"j  c #2C4419",
"k  c #2C4818",
"l  c #364918",
"z  c #2F5119",
"x  c #32541A",
"c  c #395518",
"v  c #345B1B",
"b  c #3B5C1A",
"n  c #36621B",
"m  c #3B641C",
"M  c #3D6C1D",
"N  c #3F711E",
"B  c #3F7220",
"V  c #4B4415",
"C  c #484A17",
"Z  c #5B4315",
"A  c #574A17",
"S  c #475318",
"D  c #435C1A",
"F  c #4C5B1A",
"G  c #5B5319",
"H  c #565919",
"J  c #624516",
"K  c #6C4416",
"L  c #634A17",
"P  c #664C18",
"I  c #774817",
"U  c #685418",
"Y  c #775618",
"T  c #43641B",
"R  c #4B641B",
"E  c #436B1D",
"W  c #496C1D",
"Q  c #56681C",
"!  c #41741F",
"~  c #4A731F",
"^  c #43781F",
"/  c #6F641B",
"(  c #47482A",
")  c #56413A",
"_  c #684437",
"`  c #7A4732",
"'  c #745434",
"]  c #427620",
"[  c #497620",
"{  c #457C21",
"}  c #497C21",
"|  c #577331",
" . c #6D6720",
".. c #3F3545",
"X. c #5B4746",
"o. c #5D4F50",
"O. c #644D46",
"+. c #6C574D",
"@. c #7E6C4C",
"#. c #66784E",
"$. c #7A6658",
"%. c #8A2B0E",
"&. c #822D13",
"*. c #843314",
"=. c #883816",
"-. c #8C3B15",
";. c #923917",
":. c #933C15",
">. c #9A3E16",
",. c #A63F19",
"<. c #863C24",
"1. c #9D410E",
"2. c #884817",
"3. c #944316",
"4. c #9B4316",
"5. c #954418",
"6. c #9C4419",
"7. c #984B18",
"8. c #885518",
"9. c #985418",
"0. c #A54816",
"q. c #A44C19",
"w. c #AB4D19",
"e. c #B34B19",
"r. c #A65917",
"t. c #A45319",
"y. c #AC531A",
"u. c #AC5B19",
"i. c #B55717",
"p. c #B3541B",
"a. c #BA551B",
"s. c #B35B1A",
"d. c #BC5C1C",
"f. c #876018",
"g. c #9A6217",
"h. c #AB6518",
"j. c #B56719",
"k. c #BD631B",
"l. c #BB6B1B",
"z. c #AA7218",
"x. c #BC771A",
"c. c #874934",
"v. c #8E5031",
"b. c #995535",
"n. c #AC5B2B",
"m. c #936936",
"M. c #AD6B2B",
"N. c #AB7738",
"B. c #C35E1C",
"V. c #C65D1D",
"C. c #C16D17",
"Z. c #C4631D",
"A. c #CA641E",
"S. c #C46B1C",
"D. c #CB6C1D",
"F. c #D06D1F",
"G. c #C4731C",
"H. c #CC721D",
"J. c #C47A19",
"K. c #CC7A1C",
"L. c #D2741E",
"P. c #D47C1D",
"I. c #D87E1E",
"U. c #CC6A20",
"Y. c #D26D20",
"T. c #C6772B",
"R. c #D47321",
"E. c #D97522",
"W. c #D57C21",
"Q. c #DA7C21",
"!. c #E17F22",
"~. c #856A49",
"^. c #887656",
"/. c #826C64",
"(. c #478122",
"). c #498423",
"_. c #4C8924",
"`. c #5A8439",
"'. c #B2831B",
"]. c #B68237",
"[. c #CA851B",
"{. c #D4821D",
"}. c #D9851E",
"|. c #D68B1B",
" X c #DC8B1E",
".X c #DD931D",
"XX c #DB991B",
"oX c #E18E1F",
"OX c #E1951D",
"+X c #E49C1D",
"@X c #E89D1F",
"#X c #DEA31D",
"$X c #E6A21D",
"%X c #E9A51D",
"&X c #ECAC1D",
"*X c #F2AE1F",
"=X c #EEB21D",
"-X c #F3B51E",
";X c #DB8421",
":X c #DD8B21",
">X c #DA8528",
",X c #D89624",
"<X c #CD9035",
"1X c #D89735",
"2X c #E18A21",
"3X c #E29421",
"4X c #E49B21",
"5X c #E99C24",
"6X c #E39633",
"7X c #DCA734",
"8X c #E6A322",
"9X c #EBA321",
"0X c #EBAC23",
"qX c #EAA92A",
"wX c #EEB324",
"eX c #EEB42A",
"rX c #F3B523",
"tX c #F3BB24",
"yX c #F2B62A",
"uX c #F2BB2B",
"iX c #E8A837",
"pX c #EDB739",
"aX c #F3BB37",
"sX c #F6C528",
"dX c #F6C333",
"fX c #F8C737",
"gX c #F9CB3B",
"hX c #FCD23A",
"jX c #A39156",
"kX c #9A8E66",
"lX c #A6966B",
"zX c #AFA56F",
"xX c #C79D44",
"cX c #CEB14D",
"vX c #EEB842",
"bX c #C6BA71",
"nX c #F7C944",
"mX c #F6D24F",
"MX c #FCD54A",
"NX c #FDE351",
"BX c #CEC577",
"VX c #F2E070",
"CX c #CFD18C",
"ZX c #E2DB8F",
"AX c #DDE19D",
"SX c #F6F5AA",
"DX c #C3CFC2",
"FX c #FBFBD0",
"GX c #FEFEE7",
"HX c #FFFFFB",
/* pixels */
"z n ! M c V I x.wXaXvXE.R.K.:X:X.XOX5X@X}.s.I F M ! ! ! B M M M N B { N M m V t w.Y.:XOX%X-XsXtX0X4X}.L.I.E.V.-.0 E ^ N M M N { ] ] ] ] N M M M B ] ] N N ^ M v ",
"m M N N S 0 r.|.uXgXpX>XW.;X.X,X X}.}.K.h.8.G E M N ! N M { { { { { ! M M ! A e p.Y.>X:X.X.X$X%X$XOX;XW.L.Z.q.I C E B N N N ! ^ ] M N N M ] { { { { ! M N { N M ",
"^ ^ ^ ^ F e j.,XuXdXeX:X}.OX@X,X;XE.U.r.K S E N ] N M M B (._._._.(.! M ! ^ F r y.U.Q.R.H.D.{. XoXQ.Y.Y.V.q.K S m ! ! N N { { { ] N N M ] { _._.).(.! N N (.^ ^ ",
"N ^ )._.~ C 2.j.,X$X$XOX@X$X$XOX;X>XT.r.J D (.(.(.{ ).).).} ).).).).(.{ ^ ^ T A 5.a.Y.Y.Z.B.P.}.P.k.p.a.w.2.H E ).{ ! M { (._.(.).{ ).).).).).).).).(.{ ^ (.^ N ",
"N ^ (.(.^ ~ H 2.l.}.+X$X&X=X+X;X>XiXiX,Xg.U Q } _.)._._.).).{ { { { ).} ^ ).! R P 7.p.a.Z.D.;X;XG.q.:.6.>.t S ! _.).).{ )._._._._.)._._._.{ { { { { _.).{ { ] N ",
"N N ! ^ ^ ).S J q.K.5XwXtX=X.XP.6XvXgXdX|.7.0 ~ _._._.).).{ { ] B ] )._._.^ ).).T J -.w.Z.{. X{.j.7.2.2.6.2.Z F { _._._._._._._._._._._.).{ { { N ] )._.).{ { B ",
"N N N ^ ~ S 8 w 4.[.eXgXfXtX+X X3XuXsXrX[.3.0 W )._._._.).^ ! { M M )._._.{ ! ! ! F Z 2.p.H.k.s.M.<X7X[.S.w.*.Z D { { { ] { ).).)._.)._.).[ ! { M M { _._.{ M m ",
"M M N E Q Y 7.7.h.|.uXgXgXyXOX|.;X+X4X XH.9.K F ! ).)._.).).(.(.{ { )._.).] ! ! { M S t w.D.0.5.M.7XgX0X{.V.e.2.U R ! ] ] ] B m ] _._._.).(.{ ).{ { )._._.] M m ",
"M M T C / ].1X,X[.XX0XuXuXqX XL.D.C.Z.V.D.l.g.J S ! )._._._._._.).).)._.).B B { { M D t y.U.,.;.g.qXfX0XI.Y.L.G.z.A F (.(.^ D V F } _._._._._._.).)._._.(.N M M ",
"M M D r n.iXgXsX+XOXOX+X@X.X}.P.D.Z.a.B.L.{.H.4.P E )._.).)._.).{ ] ] ).).(.)._.{ M S K 6.p.0.7.j.+X&X}.Q.>X9X$XJ.=.H (.).Q Y 8.Y Q [ } ).).).).{ B { (._.(.{ ! ",
"M M D e j.iXdXtX+XOX}.P.{.}. X.X}.H.D.D.I.I.F.0.I E ).).^ ).).).B M N { _.).)._.).M S t ;.>.t.l.|.$X.XW.>XvXfXtX[.:.G ^ E / g.K.z.P R { [ { ).).B M N { _.(.{ ^ ",
"^ M D r r.|.%X@X}.P.L.D.H.}.0XwXwX8X@XOX}.D.w.I G ^ ).(.~ )._._.] M B )._.] { _._.] c t &.%.u.|.&X=X3XW.iXnXhXwX[.9.U T c U j.|.J.I F M N )._._.B M N (._.{ ! ! ",
"M M b r t.{.3X}.Y.U.B.V.L.OXeXgXfX0X0X@XP.y.t H ~ )._._.)._._._.).{ )._._.{ { ).{ N S t =.>.C.OX-X=XqXpXpXaXsX=XXXG.g.Y S H / h.8. .} (.)._._._.).(.)._._.{ N N ",
"M M R A 8.l.W.R.V.a.a.V.P.+XuXgXgXeX8X}.j.Y G W (.)._._._._._.).).)._._.).).} ).{ N D t >.a.P.%XtXuXfXnXfXtX%X%X@X XC.2.H E W Z G { (._._._._._._.)._._.).).{ N ",
"N ^ ^ ~ H 2.a.V.B.V.Z.U.P.:XwXuXuX0X Xj.I F ^ ! ! { ).)._._._.(.{ { { ).{ ).)._.).] D K 0.D..X*XdXnXmXMXgXtX$X+XOX.XD.7.H E ).T m [ ).).)._._.(.{ { (.{ { (.{ ! ",
"N (._.^ W G 2.w.V.Y.Y.R.L.P. X8X9X4XL.q.0 D { N ! { { ^ ^ ^ ).).).).).)._.)._._.{ T A =.p.P.+X%XuXnXMXMXaX8XOXOX3X2XD.7.V m ^ M B ] { { { { ).).).(.).)._._.(.{ ",
"M ^ ).^ ! ! A t w.U.Q.>XH.S.H.|.OX}.Z.4.0 b ! { ] ^ { ] ] { )._._._._._.)._._.).E G t 4.k.}..X+X9XuXnXMXpX:XP. X XW.d.5.V b { ] { { { { { { )._._._._.)._._.(.^ ",
"M ! ! N ! ^ T A 2.t.U.:XP.D.Z.D.L.Z.q.I S E )._.{ E ! { _._._._._._._.(.^ ).).~ G 9.C.D.H.;X;X XOX&XuXnXiX>XL.L.D.d.7.I D ~ _.).)._.)._._._._._._._._.{ ] (.{ ^ ",
"S T (.^ ^ ^ ! T A 2.u.{. X}.H.Z.a.0.2.H T ! ).).Q G F [ (.).)._.{ ^ ).^ ! ! T G f.J.@XOX XW.W.{.XX%XwXuXwX+XI.A.p.4.I F T { )._._._._.).(.).)._.{ { ).{ ] { ^ ^ ",
"l F _.(.{ ^ ^ N D r 5.H.3X4X}.V.0.;.L m ^ { { ~ / 7.Y U E ! ).).^ ! ^ ).^ N C e l.%XsX&X:XP.P. X9XwXwX&X-X&XOXZ.,.t H ! { { (._._._._.).] { ).).{ ] { { { N N ^ ",
"M ~ )._._.).).{ E r :.S.2X3X:XD.p.:.P E ).(.W L h.|.J.f.S [ _._._._._._._.{ S r x.%X-X$X X|. X5XyXfXaX=X-X=X%XP.u.*.G [ )._._.(.).).)._._._._._._._._._.).(.^ ! ",
"N ^ )._._.).^ ~ Q f.y.p.Z.W.;XL.a.5.L T } { E A / '.z./ C E _.).).).^ M n v - e j.OXrX@X;X;X|.%XdXnXnX8X$X&X9X2Xk.-.G ] (.(.(.).).).} (.).).).).).).} _._.).{ ^ ",
"N ^ ).).).} M H 8.x.J.7.w.d.E.W.d.6.P b ! ! m T R Q R F c E ] { { ] b j O & % q u. X9XOXW.L.}.%XgXMXvX>X|.OXOXI.d.-.A E ] B ] _.).{ { ] B ] { { { ! ] )._.).{ ^ ",
"! ^ { (._.).D P r.J.x.r.h.U.E.R.d.6.J c ! ^ ^ ).} E E [ ] ] ] B M v j $ 3 3 0 9.j.H.P.L.P.P.3XpXhXgXiXW.L.L.F.i.-.e C M B { (._.).] ] { { { { ] ] ] { ).).).! N ",
"! ^ (.)._.{ D K 0.u.j.x.[.;X;XR.d.>.Z b ^ )._._.).! B ] ] ] B N x j 3 s X.X.@.N.x.s.q.a.P. XeXfXgXuX5X}.L.Z.p.3.q 7 l m ! )._._.(.B ! ] { ] B B M B (.{ ^ ^ N M ",
"N ^ _._.(.E c r ;.;.h.XX%X4XW.U.a.6.L T )._.)._.).{ ] N N N N m = < s +.$.+.jXxXN.5.%.i.P.$XdXgXdX0XOXOXP.A.i.3.q % * v ^ )._._.).{ B M B B N B N ] { E T T T D ",
"^ ^ ).(.^ M l J q.l.|.4X XL.A.U.a.5.L E )._.).)._.).] M N N m C i ) +.$././.^.~.c.=.4.H.oXOXwXwXqX,X X XOXOX XG.9.q 7 - b ! )._.).).] N M B ] { { ] b Z e r e e ",
"! ^ ).(.^ ! D G 8.l.K.{.D.V.V.D.Z.>.L M ).).^ )._._.(.] N b l u _ O.^.kXzXzX^.$._ h 7.S.P.P.|.@X$XOX X X+X$X%X2Xk.=.5 @ j m ^ )._._.(.^ { { (.(.] R U 9.u.r.9.r.",
"! ^ _._._._.(.E H 8.y.B.B.V.R.;XH.5.P E ^ { ! ).)._._.{ M j 3 ) O.~.kXBXZXVXzX$.O.g c.9.w.i.L. X$X+XXX XOX@X5XI.a.-.8 X j n N (._._.)._.)._._._.T G M.1XeX|.|.XX",
"M ^ (._._.^ ).{ T K ;.e.A.L.K.G.j.j.8.U E { ).^ { _._.(.m & > s +.kXCXSXSXSXBX^.o.X._ =.1.B.L.OX0XyXeX0X5X2XI.B.q.<.8 % j n (.{ (._._._._.).^ R U N.7XgXhX-X-X-X",
"N ! (.(.^ M ^ (.W J ;.p.L.Q.H.u.h.[.z.Y F ! (.^ (.)._.{ v # 1 X.^.CXSXFXFXSXBX^.o.o._ w 1.S.}.$XuXgXdX0XOXP.i.>.h f 2 $ k M (.(.^ _._._._.^ R L M.1XfXgXsX-X*X*X",
"! (.).~ T b E ^ W I ,.Z.!.;XG.t.r.[.J.8.A v ! )._.(.(.M j 3 ) ^.bXSXGXHXFXSXBX^.o.X._ h 5.j.|.0XdXhXpX|.G.d.6.h p i 3 * z n N _._.)._._._.M C 3.N.iXdXwX%X$X3X:X",
"N ~ ~ G K I H E W K 6.Z.R.Q.H.H.l.h.8.G R ] )._.(.N n k 3 ( ~.BXSXFXHXHXGXSXbX^.o.O.O.d h 5.j..XrXwX,Xr.1.:.h f 2 , * x M { ).).{ { )._._.N F =.s.>XqX&X$XOX{.R.",
"m T Q 8.y.q.I S D G I t.Z.Y.Q.;XG.6.Z b { _._.{ { N k & 1 ) kXBXSXFXGXGXFXCXlX@.O.X.O.' g t q.G.OX|.x.9.:.w h p 2 + = M { )._.{ ! { (.).} R U 9.l.>X8X9X$X XI.P.",
"c A 8.x.|.L.q.e C E Q I t.U.E.E.Z.>.L m { ).{ B { { k O 2 X.+.^.bXSXFXSXZXkX@.+.X.X.' N.n.=.q.d.d.r.h.|.h.:.w q 8 + k N { ).{ ! { (.).] T Y g.[.iXaXaX0X+X.XXX+X",
"k Z 7.{.5X5X>XM.Y F c 8 3.V.!.Q.k.5.P m } ).{ ] { { v k ( @.^.+.$.zXCXVXVXjX~.X.....m.<XT.3.q.d.Z.r.h.'.x.u.0.*.8 X j N ).).{ ! { ).{ m C 2.D.%XdXgXaX8XOX:X3X+X",
"l J 0.H.6XaXaX8Xz.Y Z q -.B.Q.;XS.6.P m )._.).{ (.).^ M Q zXzX+.o.@.zXvXpX<X^.' ..X.m.<XT.3.q.C.P.C.u.u.l.G.j.=.8 + j E } ).{ { (.).(.T C 2.H.8XtXsXeX+X X X:X;X",
"V 2.i.Z.>XaXhXfXXXj.9.9.t.j.H.W.G.6.J D _._.).} ).)._.} `.CXAXzX^.~.].xX<XxX].m.' v.m.N.n.-.r.[.9XOXl.6.u.l.r.r o # j x D E E { (._._.(.D L 9.G.OX%X@X XP.P.P.;X",
"f.x.|.L.I.9XsXtX%X}.{.|.j.9.w.Z.S.6.L m { ).)._.).)._.).`.DXFXAXbX7XN.m.~.' m.N.].].N.c.f w h..X-X5XL.d.i.q.t 7 & v S A Y U F } ).).).).! R U 7.l. XOXoXW.W.:X3X",
"3X9XrXOX|.OXXXOXoXOX%X-X[.7.;.p.V.6.P T ] { )._.).).(.{ `.DXHXSXVXcXN.O.....' N.6X1XN.) y w h.+X-X@XoXQ.i.=.5 o - T  .g.U.r.Y Q } (.).).).{ R Z 8.l. XOX,X>X5X0X",
"aXgXgXqX$X.XP.D.C.}.@X%Xl.7.:.s.U.6.P T ^ (.)._._._._.).#.DXHXSXBXjX) ( ..s ) _ ].<XN.d 6 w u.XXtX*X$XoXk.-.q 5 8 r m.7XdX,Xz.P F } ).).(.{ ] R A 2.J.9XdXvXpXwX",
"hXhXgX0X$X.X{.C.B.D.P.I.C.r.t.y.y.;.L D N { { ).{ ] { B `.DXFXCXjX' a s ) ) a X.m.].M.d : q t.XX-X*X@XoXi.-.*.v.M.h.].dXhX0XJ.3.r F [ { { (.).{ C t l.5XfXgXsXwX",
"tXtXrX@X+X+XOX{.D.B.a.B.A.S.l.q.;.*.J c N { { { B B M M } CXAXkX+.s a s ) s a ) b.N.N.p y q h..X-X&XoXP.0.-.g.<XvXiXpXsXtX8XP.d.4.r S m B (._.).S t j.OXrXuXtX-X",
"P.{.|.5XqXuXeX$X}.L.C.Z.I.}.S.3.w &.0 c ! ).).).(.{ B E | cXzX' s a s d ) ) a a ' ' c.p e 9.J.OX%X;XH.k.1.r.<XnXNXMXfXwXOX:X>X2XT.h.K F E { ).(.C r i.oX9X%X+XOX",
"e.B.Q.iXnXmXfXeX$XXX|.P.Q.R.k.:.w *.J T )._._._._.).M S  .].N.) a a ) ) s a a a a d p w 9.[.+X+X2XD.p.>.r.[.pXNXNXsXtX&X}.Q.6XpXiX;Xr.U D ! ^ ! V K C.+X*XOXP.D.",
"6.a.1XnXNXNXnXyX=X&X$X XH.d.w.6.>.-.P E )._._._._.(.z 3 f n.n._ a a s a a i 4 4 2 y 8 *.j.5X*X5XQ.U.q.w r.XXsXhXdX&X&X$X|.:X6XgXfX5XH.7.V T ~ D L g.,XrXyX.XC.e.",
"n.1XmXMXNXMXnXuX%X$X XD.w.>.4.p.a.3.P m B { (.(.(.(.c V c.n.b.) a 4 i a 4 a 2 2 y q w %.r.|.@X+X;XU.w.*.r.{.yXtX=X&X$XXXXX@XwXeXrX3XD.2.S m F P g.|.aXhXfX@Xj.0.",
"T.iXMXMXmXMXdXyXOX}.D.D.j.r.r.d.p.:.0 l x x v v n m l i K b.v.' d i 2 2 2 2 2 y h 9.q.-.4.l.P.2XW.Y.a.0.q.h.K.|.+X$X3X}. X5X&X&X@X2XZ.2.9 j V =.l.%XfXhXdX$Xj.3.",
"k.,XhXMXnXdXsX&X.XS.Z.}.+XXXx.t.=.%.q % & O O O O O @ X 1 p ` M.c.d 2 2 4 4 y w h.[.J.5.&.6.s.U.Q.U.U.U.y.3.1.i.P.OX}.R.;X X+X+XoXP.B.-.7 X 7 -.l.+XrXtXrX:Xj.4.",
"Z. XtXhXdXyX=X$X XH.K.$XsX=X[.3.w &.q %     X X X         . i v.c.h 4 4 4 _ h <.S.K.h.e 8 8 =.w.U.Y.U.s.r.9.s.G.P.}.W.R.}.|.}.H.Z.s.8.J - * - J 9.l.@X*X8XW.y.;.",
"i.K.9XrXtX=X$X+X|.P.|.&XtX&XJ.3.w %.q %     % 8 8 o         X i c.c.g a i <.b.n.p.t.2.u : : 8 <.p.U.a.6.h.x.XX.X}.L.L.;X+X5X|.Z.w.7.P D c v n R L 2.G.oXoXD.w.=.",
"2.u.}.@X$X&X+X.X}.:X:X.X|.K.h.7.;.=.0 - O $ t r.9.r % & O     ; g b.b.` g c.b.c.h q 8 p 4 , : w w.V.y.*.h.#XsX=X}.Z.D.OXyXuX8XD.0.=.H M ! ^ _.).D A 2.l.Q.H.y.-.",
"V I s.K.OXOXOX:X}.W.R.S.y.4.q.i.p.>.L b x G t.[.J.2.A z z &   ; d b.n.b.h d i i 2 y p c.O.y y q w.B.y.*.h.XX-X@XD.B.H.$XdXhXdX,Xj.-.H N )._._._.^ T G 9.S.{.s.3.",
"c C I r.K.|.oX:XQ.U.V.e.;.&.4.d.Z.5.P M ]  .g.[.x.f.Q b c $ . ; p b.n.b.g 2 ; ; ; , i c.c.g 8 *.w.B.p.=.r.[.oXI.Z.S.K.,XaXhXfX0XJ.5.H N _._._.)._.^ S I k.P.k.5.",
"N E F I r.P. X}.R.D.d.>.&.&.6.d.U.>.J v ] ~ H 9.f.F b j + > .   g c.b._ 2 < 2 ; < < 2 i g c.<.;.0.d.i.-.0.i.B.V.D.P. XXX0XtXyX+Xl.3.H E _._._.} ^ E C 2.a.U.s.>.",
"N N W J 7.S.P.E.Y.R.B.0.&.w q.S.U.6.J b E ] T G S z k & > < > . 6 g g 6 ; ; ; : ; ; ; > p c.<.;.0.k.s.-.;.,.a.V.L. X;X;X:X@X|.j.5.h - z M { ).)._.~ C I i.U.p.>.",
"N ] [ r 3.k.R.E.Y.Y.s.5.w w t.H.H.7.J c m M M m x * # > 1 1 < < 4 y $ + O + + > .       % f w =.w.B.d.=.&.=.6.U.I. X;XW.}.}.G.7.q y o # k M )._._.[ S 2.e.U.p.>.",
"] B T r 5.U.E.E.U.d.7.J 9 e r.H.H.0.r l z v n n j # > < < > > < ; , k & & * j j @       X o 5 w p.U.U.-.0 9 K u.L. X X2X3X XC.3.h u 1 > # v ] _._.{ S 2.p.U.p.>.",
"! N R r 7.U.2XE.d.7.I R C Z q.D.S.3.e % & & & = $ > > @ . . . + # k v v v v n m j @         5 w w.Z.s.-.0 c C 8.Z.|.+X4X4X XL.d.6.t u : , = x ] { E C I a.Y.p.>.",
"N N W K 7.K.2XQ.d.=.L [ b Z w.A.d.1.q o         . < > & & * & & l M { (.^ N (.(.M j .       5 q 5.7.5.=.G m D Y s.}.OXXX X:XQ.R.a.;.q %     & v v l 9 2.a.U.i.>.",
"{ N T K 7.U.Q.R.d.-.K T z A y.A.U.>.q o       . . . = b { [ B ] { )._._.).(.(._.).M j +   , 8 w q 7 8 t A m D Y s.}.P.D.A.L.R.F.i.=.8 X       @ O + 7 =.a.D.p.>.",
"! { ~ H I t.U.U.d.3.J [ b L w.a.y.t 7 $ & * * = * = x M ).).).(.).).)._._.).)._._.(.N j # , u 8 7 o 5 t H N T Y s.P.L.D.A.A.B.y.8.U V = & & @       o e 4.i.5.t ",
"M ^ { ! F e w.U.U.5.P } E L >.>.*.7 - k n n v M M v M ] B ] { { { ! ! )._.).)._.} ).(.M j $ 1 1 < < 8 t Q [ T Y p.D.;XP.F.B.w.=.P T M N v z = O . O   7 e -.q 7 ",
"b E { (.T Z q.U.U.0.e c l 9 t q 7 * k m N ] { ).{ M ] ] { ] ] ] B ] { (.(.).(.)._.(.{ { E z $ ; , 2 y q C l 9 =.a.Y.2X XS.y.q.h.Y S m N N N x = & & j = 7 8 % . ",
"l D (.).R 0 t.Z.U.:.8 % $ 3 1 % $ x M ^ ^ (._._.).] B ] { B B B M ] (.(.{ (.(.).).).{ ).(.n j O , , 2 y $ $ % t q.A.;X Xs.7.r.x.z.J D M ^ ^ M x z v M x k @ .   ",
"l T _._.R Z 6.a.q.t 7 % . , ; # x (.).)._.)._._.(.{ B B M B N ] N ] ).).(.(.).).{ )._._.(.N v j # > < , ;   @ 0 Y u.L.W.t.7.r.J.z.K S n N N N N N ^ (.^ n * & & ",
"T ! ).(.D 0 -.>.q 7 X > ; + & v { _._._._._.(._.).).{ N N N { { { { { (.).)._.).).).).{ B N M b k # ; , ; + = T  .2.d.D.y.3.=.2./ Q E M N N ^ ^ ^ ^ (.(.^ N M m ",
"! (.^ m l 7 q q 5 X   . > * x { _._.)._._.(.(._._._.{ { { { (.(.).).).(.).)._._.).).).).(.B N N b # X 1 < # z M ~ t y.D.d.3.q A Q (.(.^ ^ (.(.)._.(.(.(.)._.^ ^ ",
"M ! M = @ X % % X   . + * x (._._.).(.).(.{ N (._._._._._._._._._._._.).{ { (.).).).)._._._._.N x $ ; < X , x N Q I s.P.S.2.0 T { _._._._._._._._._._.(.(.(.^ N ",
"= = = + X O = k = = = = c ^ _._.).(.{ { _._.(.{ { _._._._.)._._._.).{ ).).{ ^ { { (.).).).{ ).(.M l $ X ; # v N Q I s.P.S.2.C E (._._._._.)._._._.).(.(.(.^ N M ",
"O X X O & k n M M n v v M (.(.(.{ { { { ).).(.{ (.)._._._.(.(._.).).(.)._.{ { { ).).)._.).{ { ).{ m j $ . @ z n F t p.F.Z.2.C E (._._._._.).(._._.(.(.)._.^ N M ",
"O O & & z ! ^ ^ _.^ N N ] ] ! ^ { )._._.(.{ N _._.(._._._.{ { (.)._._._._.)._._.)._._._.).{ { { _.{ m k @ X & = C t w.V.a.2.V ^ _.(._._._.^ ^ (.)._._._._.).(.N ",
"c v m M N { (.(.(.(.{ ! (.).{ { ).).).{ { (.).).(.{ )._._.(.{ )._._.).^ ^ _._._.).).).).(.{ (.(.(.(.{ v A 0 0 % 7 t w.A.B.2.C ~ (.B )._._.(.{ (._._.(.(.(._.(.(.",
"N ^ (.(.(.(.).).{ _.(.{ (._._.).).).{ ! (._._.(.B { (._._.(.(._._._.(.N ^ _._._.{ { ).{ (.).).).{ ).^ F / g.2.q 7 &.y.L.Z.2.V E N (.(._._.(.(._._._.(.N N _.(.N ",
"N ^ ^ ^ (._._._._._._._.{ ^ _.(.).).).).).).{ B { (.(.)._._.)._.(.(.(.(.)._.(.{ ).{ { { )._._._._.{ R K z.|.x.-.q *.h.P.S.2.9 T { (.(.)._._.(._.(.(.(.(._._.N M ",
"N N ! ^ { _.)._._._._.(.^ { _._._._.).).).).{ ] { (.{ { (.{ { _._._.(.(._._.^ ^ ).{ ] ] { ).).)._.).W A g.x.M.2.q &.u.P.l.2.V m (.(.(.{ (.{ (._._.).(.(._._.N n ",
"N N N N ^ (.^ (._._.).^ ^ )._._.).).{ )._._.(.{ ).).{ { ! { { )._._.(.(._._.{ ] ).{ ! N { { { (._._.^ T U 8.I p 6 &.y.D.V.2.V E (.).(.{ N { { )._._.(.(._._.{ M ",
"^ N N N N N (.(._._.(.(.(.(.).(.{ ] ! { _._._.(.)._._._.(.).).(.^ N _._._.(.)._.).{ N ! N { { (.).).).^ W S % % 7 *.p.Y.U.5.A W ).)._._.(.)._.(.^ ^ _._._.(.N N ",
"M N N N ^ N ^ ^ N N N ^ ^ ^ ^ ^ ] ! { ! { { { { { { (.(.{ { (.{ M M (.^ N N { (.{ ] N ! ] N ! ^ ^ ! ! ^ N b = @ 7 w q.Z.p.I V ~ (.(.(.(.{ (.(.{ N M ^ ^ N N N M ",
"n m M N N ^ N N N M N N N N M N ] ! { ^ M M N { ] N N B N B N ! M M N M n M N ! N M N N ! ] ! M M M M N N N z & o q 6.s.7.K l E N N N N N N N B M M N M M M n n "
};
