/* XPM */
static char *Group_10_9__resized[] = {
/* columns rows colors chars-per-pixel */
"80 80 232 2 ",
"   c #1B1F3A",
".  c #253832",
"X  c #293B38",
"o  c #2E501A",
"O  c #325A1B",
"+  c #37621C",
"@  c #39661D",
"#  c #3C6C1D",
"$  c #3F711E",
"%  c #2C472A",
"&  c #2E4A2B",
"*  c #304E2C",
"=  c #335525",
"-  c #355C24",
";  c #33532C",
":  c #365A2A",
">  c #395D2C",
",  c #2B4333",
"<  c #2E4636",
"1  c #324E35",
"2  c #30453C",
"3  c #334C3C",
"4  c #345333",
"5  c #3A5C32",
"6  c #385937",
"7  c #36523C",
"8  c #39553A",
"9  c #376121",
"0  c #3A6424",
"q  c #3D6C22",
"w  c #3C642B",
"e  c #3E692A",
"r  c #3F7121",
"t  c #3D6232",
"y  c #3E6B30",
"u  c #41751F",
"i  c #42791F",
"p  c #416E25",
"a  c #40662D",
"s  c #416B2B",
"d  c #427521",
"f  c #457B21",
"g  c #487E26",
"h  c #43712A",
"j  c #48772B",
"k  c #4B7C2C",
"l  c #436932",
"z  c #4C7733",
"x  c #517B39",
"c  c #1E1645",
"v  c #26204F",
"b  c #2D3C48",
"n  c #282757",
"m  c #2F3D53",
"M  c #313F56",
"N  c #313E5A",
"B  c #2F3364",
"V  c #333A68",
"C  c #2F4344",
"Z  c #354C42",
"A  c #32424C",
"S  c #34494A",
"D  c #385545",
"F  c #3B5A43",
"G  c #39534B",
"H  c #354759",
"J  c #3B5556",
"K  c #3E6246",
"L  c #354463",
"P  c #394B64",
"I  c #374668",
"U  c #3A4A6C",
"Y  c #3D5667",
"T  c #3E546B",
"R  c #3C4C74",
"E  c #3A4778",
"W  c #3E5273",
"Q  c #425E52",
"!  c #4F6B4B",
"~  c #587B46",
"^  c #617D55",
"/  c #42596B",
"(  c #425876",
")  c #445B7B",
"_  c #476375",
"`  c #4B6770",
"'  c #46811E",
"]  c #478022",
"[  c #498423",
"{  c #4C8924",
"}  c #4C832A",
"|  c #4F8031",
" . c #558439",
".. c #5C8446",
"X. c #628353",
"o. c #678E52",
"O. c #66855A",
"+. c #698A5A",
"@. c #6D8863",
"#. c #728D68",
"$. c #769767",
"%. c #7B9574",
"&. c #7BA06A",
"*. c #829C7B",
"=. c #87A57E",
"-. c #3F4F81",
";. c #425483",
":. c #455B87",
">. c #43558B",
",. c #485C95",
"<. c #496684",
"1. c #49628B",
"2. c #557088",
"3. c #4B6393",
"4. c #4D649B",
"5. c #4F6B98",
"6. c #506C97",
"7. c #516B9E",
"8. c #577498",
"9. c #4E66A1",
"0. c #4F68A0",
"q. c #526CA3",
"w. c #536DAA",
"e. c #5573A4",
"r. c #5674AB",
"t. c #597AAA",
"y. c #5773B1",
"u. c #5B7AB4",
"i. c #5D7DBB",
"p. c #687EA2",
"a. c #607EC5",
"s. c #5A839D",
"d. c #5D83A8",
"f. c #5E82B5",
"g. c #5F82BB",
"h. c #6388AB",
"j. c #6388B6",
"k. c #6183BC",
"l. c #7193B1",
"z. c #6DA0BA",
"x. c #6287C3",
"c. c #648AC4",
"v. c #678CCB",
"b. c #6A93CD",
"n. c #6C99C9",
"m. c #759BC6",
"M. c #6C95D3",
"N. c #6E9AD6",
"B. c #6F9BD8",
"V. c #709DD4",
"C. c #719DDA",
"Z. c #75A7C9",
"A. c #7AB0CE",
"S. c #76AAD6",
"D. c #73A1DE",
"F. c #7CB4D7",
"G. c #7EBADD",
"H. c #76A5E2",
"J. c #77A9E3",
"K. c #78AAE6",
"L. c #7AADEA",
"P. c #7DB6E2",
"I. c #7DB2EC",
"U. c #7FB5F1",
"Y. c #7FB8F0",
"T. c #889E85",
"R. c #8BA388",
"E. c #91AA89",
"W. c #96A996",
"Q. c #9DB695",
"!. c #96ACA7",
"~. c #A5B7A8",
"^. c #ADBEB1",
"/. c #ADC2AE",
"(. c #B4C4B8",
"). c #829BC2",
"_. c #89AAC5",
"`. c #82BADB",
"'. c #93B8D1",
"]. c #82BBE7",
"[. c #80B7F2",
"{. c #82BBF4",
"}. c #84BEFB",
"|. c #95C3DB",
" X c #ABCAD3",
".X c #86C6E6",
"XX c #9BCDE8",
"oX c #8CD1ED",
"OX c #93D8EC",
"+X c #8ACBF5",
"@X c #86C6F8",
"#X c #86C3FD",
"$X c #88C6FE",
"%X c #8ACAFE",
"&X c #8ED8F7",
"*X c #8DD2FE",
"=X c #93DBF5",
"-X c #91D6FE",
";X c #93DCFE",
":X c #A7D3E4",
">X c #B0D9E8",
",X c #9BE6F5",
"<X c #95E4FE",
"1X c #99E5FD",
"2X c #96E9FF",
"3X c #9BEBFF",
"4X c #9DF2FE",
"5X c #BDE3ED",
"6X c #A6E9F5",
"7X c #A3EDFE",
"8X c #A9EEFC",
"9X c #B9EAF3",
"0X c #A3F3FE",
"qX c #ABF3FE",
"wX c #A4FAFE",
"eX c #ABFBFD",
"rX c #B4F5FE",
"tX c #BAF6FE",
"yX c #B4FBFE",
"uX c #BBF9FF",
"iX c #C5D1CC",
"pX c #CCD6D4",
"aX c #D3DED9",
"sX c #D7E2DC",
"dX c #D5E6E8",
"fX c #C9F5F8",
"gX c #C4FCFE",
"hX c #CCFEFF",
"jX c #D2FFFF",
"kX c #DAFEFE",
"lX c #E2E9EC",
"zX c #E4FDFD",
/* pixels */
"o + u $ # u $ i u # # u i i u u $ $ r ' $ $ $ ] i $ ] $ $ $ # $ $ $ i $ # $ O , / T.XX7X8XyXyX7X+XD.M.C.v.e.Y 1 O # $ $ $ # $ f i u i f # # u # u u i u u i @ O ",
"@ # u u i i $ # u # i f d i i $ $ ' $ $ $ $ i r $ $ $ $ $ r f f i i $ $ # + 3 J s._.5X8XqX3X3X;X+XI.I.[.J.j.<.S & 0 $ $ $ $ $ $ i $ # # u d d i i d u # u i u # ",
"i i u i g g u u u u i f f f d d r r $ $ $ ' ] r $ r $ $ r [ { { { f $ # 9 ; P 8.'.5XhXyX3X*X@XY.[.{.@X+XY.M.q.P & # $ $ $ i ] d $ @ + - + i [ { { i u # u f i i ",
"u i [ { ] f u i i i i f { { { { [ [ $ $ r [ [ [ [ ] [ [ [ ] ] [ { ] i - 4 / 8.`.6XuXgXyX,X@XB.v.v.M.H.K.N.t./ t # i $ $ ] [ { [ u = . . & : u [ { { g d u [ i # ",
"u u g [ [ { ] ] [ i i ] { { { { [ [ [ [ { { { { { [ { { [ ] f ] f i q 1 H 8.F.,XwXeX8X7XoXV.u.-.;.:.5.q.3./ K e f [ r r ] { { f w D P U H 7 w d i g [ [ f g i u ",
"u u u u i { { { { [ [ { { [ f i [ [ { { { { { [ { { { { [ f f f u @ = C -.n.OX4XwX4X&X%XJ.e.W C X b m M C 5 q d r r r q r r r e Q <.p.k.t._ 7 w @ u [ { { i i i ",
"# # u i i g i f d i d d d f [ { [ [ [ $ ] r [ [ [ { { { [ i r $ u + = A >.M.oX0X4X4X*XI.f.W 3 = * = % & = 9 f { r : , X , . % C ` T.|.XXF.d.Y * o @ [ { { i # @ ",
"# u u i ] i i u r $ r $ $ u d [ [ [ ] ] r ] f r ] [ { { { ] [ [ f # - 3 R k.P.&X<XoXJ.f.:.C = @ @ @ O + + # f d y J U R P L H / h. XfXuX,XF.t.P 3 - i { [ u # + ",
"$ $ i ] ] $ $ $ $ $ $ $ $ $ $ f [ ' [ { { ] r $ d [ { { { { { { ] f d : G <.g.H.U.H.u.W Z % @ $ u # # u u # O 8 / 8.l.m.l.p.p.m.|.9XhXfXeX=XS.r.T D s f [ # # # ",
"# $ $ i ] r $ $ $ $ $ $ d f r ] [ [ [ { { [ ] [ { { { { { [ [ [ f d p d e J <.y.a.y.-.J : # $ $ # u p u u # % J s._.:X>X:X X X:X>XrXeXeXqX3X+XV.t./ 7 0 i g d u ",
"$ $ f ] [ ] r $ d f f d ] [ [ { { [ { { { [ [ [ { { { { f ] } [ u # # i f t G R -.W G w d [ $ $ i f d d # : A 2._.>XfXkXfXfXfXfXrX0X4X2X2X2X;X+XB.0.H * u f f i ",
"i $ $ { { { ] d ] { { { [ [ { { { [ [ { ] ] [ ] [ { { [ $ ] { { d # $ { [ q = 1 C , = f { { ] f g { [ d : J 2._.5XhXzXzXzXkXjXtXeX4X<X;X;X,X,X;XI.i.V 3 0 u u u ",
"$ $ i f { { { ] $ f [ { ] f { [ ] [ { [ [ { { [ { { { { [ [ { { f f g { [ i q 0 9 9 @ f { { { ] u i q ; Q 8._.5XjXjXkXkXkXgXtX8X0X3X<X*X*X-X-X%XH.w.H 1 q i u u ",
"# $ i ] [ { { [ i r f { ] f { f f [ [ f { { { [ ] { { { { ] r r q d d d p d f [ ] r i f [ { { ] # 9 4 G 2.Z.>XfXkXhXhXhXfXrX7X;X;X2X<X-X+X%X@XJ.g.<.S : d f d u ",
"i d [ { { { [ [ { ] f { ] ] ] { { [ $ $ f [ { i $ f ] [ ] r = , X X , X & 0 [ { [ [ [ { { { [ ] q 6 J 2.Z.OX6XgXhXjXhXgXrX7X;X*X*X-X;X;X-X$XK.g.<.G - q i [ f i ",
"$ i { ] { { [ [ { { [ ] [ [ [ { { f $ $ r f f $ $ $ ] $ q > J W W T T R Y 8 h [ [ [ { ] { { [ r : J <.n.oX0X0XqXtXgXgXrX7X<X*X$X#X%X*X*X+XJ.f.W Z w d ] [ { [ i ",
"$ i { i f { [ [ { { ] d ] ] { { [ f i d i d i $ p O - - = G _ l.j.j.f.d.s.` K r d [ { i f { [ q < U y.P.,XwX4X4X0XuXrX8X<X*X%X#X}.#X}.U.L.i.) C 9 d { { { { g i ",
"i f d $ i f f f { i $ $ $ d ] { { [ ] f f [ [ f > X .   S ` !.:XXX`..X.XF.d._ 7 q $ d $ $ ] ] 0 < U y.Y.,XwX4X4X0XqX8X1X*X$X%X%X#X@XL.B.g.:.D e f { { f d [ i i ",
"u f f d d i f f ] r d f $ $ [ { { { ] i f i f e Q / ( ) 2.). XfX9X6X,X4XOXA.7.H 1 # [ r $ f d q & H 1.c.].&X<X3X3X2X1X-X%X$X#X@XY.J.c.0.( G - d f ] [ d d d i u ",
"# f { ] f f f f d d f ] d $ ] { { { { { f $ w K ` l.).)._.XX9XfXuXyXeXeX4XY.u.E < 0 [ [ f f f r + 1 J <.x.P.+X;X2X;X*X%X$X#X#XL.D.c.3.P 2 : r [ i $ f ] f # u i ",
"i i g [ { { [ f f i $ $ $ r { [ ] ] [ { { 9 1 _ l. XdX5X>X6X8X0XwX0X4X0X&XJ.w.I 1 q ] [ { { [ ] r r ; S 1.v.I.*X;X*X*X%X%X#XY.H.x.w.T Z e ' { { { { { { [ ] i i ",
"i i { { { [ [ { { { f f f ] { { [ f f f q Z T h.|.9XhXjXhXrXqX2X2X3X;X.XS.d._ G w r [ { { [ [ { [ ] 9 , W y.D.@X;X-X%X%X#X#XU.B.a.,.A * r [ { { { { ] { { [ f i ",
"$ f { { [ [ { { { { { { { { [ { [ $ $ 9 Z T d..X8XtXhXhXgXyX0X2X2X;XY.M.t.Y D q r ] { [ [ f [ [ { { r , U 9.M.Y.-X%X%X$X}.U.U.N.i.,.A & q r [ r $ d i { { [ i i ",
"i i f [ [ { f f ] { { { { { { ] f $ = 3 ) h.`.,XwX7X6X8X7X4X3X2X3X&XD.u.-.C 9 f { ] f ' [ [ [ f ] ] r 1 U 9.x.H.@X$X#XY.H.J.H.M.u.3.A * r r r ' $ $ f ] [ [ d $ ",
"u i [ [ [ [ f f f ] f f [ { [ ] $ 9 Z T h.G.=XwX4X;X;X&X;X<X<X;X-X+XK.c.2.G : 0 0 9 9 9 0 9 - 9 r [ r : G ) q.v.H.H.D.C.v.v.b.a.q.T Z - q r r $ $ r [ ] ] ] ' $ ",
"# f { { ] $ d ] [ f d r ] { [ r q 3 Y d..X,X0X4X<X*X%X%X*X*X*X*X%X$X{.P.z.` D & % , < 2 2 X 2 4 0 r r r 0 K W q.i.u.y.y.q.y.y.4.T D 9 @ # $ $ $ $ $ [ [ ] [ i $ ",
"u f [ f i # # d { [ { { { [ r 0 D ) f..X,XwX0X2X&X%X#X#X$X#X#X$X$X$X;X,XOXZ.8.W W W ) ) ;.;.:.T F r f ] r y Z P R U P P I U ( H F r r $ $ $ r $ f f f ] [ [ ' $ ",
"u f [ [ f d i i { { { [ { r 9 7 / d.G.<XwX4X4X<X&X*X%X#X}.}.}.#X$X*X1XwX4XoXZ.f.t.f.f.d.j.n.n.8./ t 0 w 0 9 ; 7 7 3 1 1 1 3 2 * r [ [ r r [ [ [ [ [ [ ] ] { [ $ ",
"$ f { { { { { [ { f f d d q < Y d.G.=X3X4X4X3X<X2X;X*X%X#XU.}.$X*X;X3X4X4XOX.XG.G.G.G..X.XoXoXA.s.H X X X 1 0 r ] r r r p @ 9 d ] [ [ [ [ { { { { { { [ ] ] r $ ",
"# i ] { [ f [ { [ ] d # w F _ d.G.,X0XwX0X7X7X3X4X2X<X*X%X$X$X*X;X2X3X2X4X4X4X4X6X6X0X4X6X4XwXOXZ.8.1.,.<.J w r i $ @ # u i u @ # $ r q q d ] { { [ i ] [ r $ # ",
"# i [ { ] i f [ { f q - D ` f.G.<X4XeXeXrXtXtXqX4X3X<X&X-X*X-X;X1X2X2X2X2X0XyXuXgXgXyXeXwX4X4X4XoXA.V.S.z.2.K 4 - : & ; > t > ; & 1 1 < 4 - r { { ] f { { ' $ $ ",
"i f { { { i f [ [ d O X W f.G.,X4X3XwXuXgXhXgXtXqX3X2X<X<X<X<X2X1X1X2X2X3XqXuXhXjXgXuXwX4X4X2X2X<XOX&X=X.Xz.<.m b m M H M M M M H m L N L 3 9 f { { { { [ [ ] ] ",
"r ' [ [ ] ' ] [ ] f =   ;.n.OX0XwXqXrXgXhXjXjXhXtXqX7X3X3X3X3X3X3X3X3X7X8XtXgXjXkXhXgXuXqX3X3X3X3X3XwXeX6X.Xl.5.1.5.5.6.6.8.8.e.8.7.e.r.e._ F 9 ] { [ f ' [ ' r ",
"r r ] ] ' ] [ [ f f - b :.n.&XqXrXuXuXhXjXjXjXhXhXuXrX7X3X3X3X3X2X3X7XqXuXgXhXjXjXjXhXgXtXqX7X3X3XwXeXqXwX1X.XF.Z.F.S.S.F.F.'.'.'.F.G.P.F.d._ 7 0 f [ r $ { ' r ",
"r r ] ] ] { { { [ f > C 1.n.oXqXgXhXhXhXhXhXhXhXhXhXtX7X3X3X2X1X<X2X7XtXgXhXhXhXhXhXhXhXhXrX7X1X<X3X3X3X2X1X,X<X<X<X,X<X,X8XtXfX9X8X2X4X,XG.d.T Z 0 r [ [ { i # ",
"$ $ r r f [ ] ] r t K _ h..X,XrXhXhXjXhXhXhXjXhXhXuXrX7X3X2X2X2X2X3X7XrXuXgXhXjXjXhXhXhXtXrX7X2X3X3X1X<X<X<X4XwXwX4XwXwXyXgXkXkXjXgXyXeXwX<XF.d._ F 0 $ [ { $ @ ",
"$ $ $ $ i ] i q > J <.z.|.,X9XgXhXhXhXhXhXhXhXgXtXrX7X2X3X2X2X3X2X2X3X7XqXtXhXjXkXhXgXuXqX7X3X3X3X3X<X-X*X;X3XwXwX0XwXyXgXjXkXkXkXhXgXyXwX4X=X`.h._ 3 - r [ $ # ",
"$ $ $ r r r i 9 < W f.G.6XuXgXjXhXhXhXhXhXhXhXtXqX3X2X2X3X1X1X3X2X2X2X2X3XqXtXgXhXhXtX7X3X2X3X3X3X2X;X%X$X%X-X<X3X3X0XrXgXhXhXgXhXhXuXrX0X4X0X,XF.e.H 1 q [ [ r ",
"' r ' ' ] ] ' - X :.c.oXqXgXhXjXjXhXhXjXhXhXtX8X7X2X<X<X3X3X3X3X1X3X<X2X<X7XqXrXtXtXqX7X<X2X3X3X3X;X*X$X%X$X%X-X<X2X0XrXyXuXuXyXuXuXyXqX3X0X0X;XG.r.L < @ r ' $ ",
"r r ' [ [ [ ] 9 , W f..X8XgXhXjXjXhXhXjXhXtXqX7X2X1X2X2X3X1X3X3X3X3X3X<X3X3X7X7X7X7X3X3X2X3X3X1X;X*X$X$X$X$X$X*X;X<X3X0X7XqX7X0X0X8X0X0X3X4X3X+XD.0.A , + r r $ ",
"@ $ { [ [ [ [ 9 % T u.G.7XyXuXgXhXhXhXhXuXqX7X2X<X3X3X3X3X3X3X3X1X3X1X3X3X2X2X2X2X2X3X3X3X3X2X;X*X#X#X#X%X#X#X%X*X;X<X<X<X;X;X;X;X<X<X<X<X<X;X{.N.4.b * u { i O ",
"$ $ r f ' ] $ + . P t.F.6XeXqXuXhXhXhXuXqX3X3X2X3X3X3X3X3X3X3X3X3X3X1X3X3X3X2X<X<X3X2X3X3X2X;X*X%X#X#X%X%X#X#X#X$X*X*X*X*X*X*X*X*X*X*X*X*X;X-X@XM.3.b * u [ 0 & ",
"$ $ $ ] ] r $ = X ( d..X,XwX4XqXuXhXuXrX3X2X3X2X3X3X3X6X3X3X3X1X3X3X3X3X3X3X3X1X3X3X3X4X3X<X*X$X#X#X%X#X#X%X%X#X$X%X%X%X%X%X%X%X$X$X%X%X%X-X-X{.N.4.m & + q 6 A ",
"$ ] { { ] r - 4 Y s.S.oX4X4X2X4XrXyXrX7X3X2X3X3X1X;X;X;X<X;X;X<X2X3X3X7X3X3X3X3X<X;X;X<X;X*X%X$X#X%X#X}.Y.{.#X#X$X$X$X#X#X#X#X#X#X#X#X$X$X%X$X[.C.u./ 3 & ; / 3.",
"$ $ [ [ r 0 Z / s.A.OX2X3X3X3X3X7X0X3X<X*X-X;X-X-X-X%X%X*X*X*X-X;X3X3X0X3X3X3X3X;X*X%X*X*X$X$X$X%X%X}.I.L.I.{.%X%X#X#X#X#X#X#X#X#X#X$X$X#X@X[.K.D.b.8.T S H 6.i.",
"$ $ r r q ; P e.A.,XwX4X3X3X3X3X3X3X;X@XY.I.Y.{.}.#X%X$X}.#X}.%X-X<X3X3X3X3X3X2X-X%X#X#X$X$X$X$X%X#XY.K.D.K.Y.#X%X%X#X%X#X#X#X%X$X%X%X$X#X[.K.C.J.D.b.e.>.,.t.v.",
"$ $ $ ' 9 , U t..X6XeXwX4X3X3X3X0X3X+XS.k.r.r.x.C.}.$X%X$X}.#X%X%X;X;X;X;X;X;X-X*X$X#X}.$X$X$X$X#XY.L.D.C.D.K.Y.}.%X%X%X%X%X%X%X%X%X%X@X{.L.H.C.C.H.C.M.k.u.i.i.",
"$ $ r ' q , I e.`.,XeX0X3X<X-X;X;X+XJ.u.-.E E 7.b.[.*X*X$X#X#X#X%X%X%X%X%X%X%X%X$X$X#X#X$X$X%X$XY.L.D.B.B.B.D.K.Y.}.%X%X%X#X%X%X%X%X}.[.K.C.C.C.D.H.H.H.C.k.w.3.",
"$ $ $ ' 0 % L 7.S.,XwX0X<X@XI.P.[.N.r.;.n n V q.M.{.*X*X#X#X%X#X$X#X#X#X#X#X#X#X$X%X$X%X$X$X#X{.L.D.B.B.C.B.B.C.L.U.}.#X}.Y.}.#X}.}.[.K.D.C.C.C.H.H.H.K.B.u.:.L ",
"# $ i i 0 & L 4.Z.oX0X0X;XP.v.y.w.4.( v v V 4.m.[.}.%X%X%X#X#X%X$X$X#X#X#X#X#X#X$X%X%X%X%X}.{.L.H.B.B.B.C.C.B.C.H.L.L.U.I.I.I.I.[.L.L.D.C.C.H.K.L.L.H.M.i.>./ C ",
"$ $ i ' q * P 9.N.+X<X;XY.c.3.E B V n v V 4.b.].%X%X%X%X#X%X%X#X$X#X$X$X$X$X$X#X$X$X$X%X$X{.L.D.B.B.D.D.D.D.D.D.H.H.H.H.H.H.H.H.H.H.H.D.D.D.C.D.K.H.M.i.,./ Z 8 ",
"i $ i { d ; P 9.B.#X$XI.g.>.B c c c n V 9.M.{.-X-X%X#X#X%X%X#X%X$X$X$X%X$X$X%X$X@X{.{.{.{.L.D.B.B.B.D.D.H.H.H.H.D.D.D.D.D.D.H.C.D.D.H.H.H.B.b.x.v.x.y.:./ X 1 5 ",
"$ $ i ] q ; P q.J.#XI.x.:.B n c c v V q.V.[.%X*X*X%X#X%X%X%X%X%X%X%X%X%X%X%X%X$X{.L.K.K.H.H.D.B.B.C.D.D.K.K.L.H.H.H.H.H.H.H.H.H.H.H.K.L.K.M.i.,.,.9.:./ S 8 : ; ",
"# $ f i q ; P q.H.Y.J.t.E B B n B ( w.C.+X*X%X%X$X%X%X#X#X}.}.}.$X@X@X#X$X$X+X}.I.H.C.D.D.H.H.D.D.D.D.D.B.B.C.C.B.B.B.B.B.B.N.B.N.B.C.H.C.k.3.R I E P G 6 a w : ",
"$ f [ { d ; P 4.M.I.H.g.q.4.e.7.q.u.V.{.;X;X-X%X%X%X}.{.[.[.[.[.[.[.[.[.[.[.[.I.H.D.C.C.H.H.H.K.I.K.C.v.g.i.i.g.i.i.i.i.u.i.u.u.i.i.i.a.i.6./ b b b 3 8 > s p 9 ",
"$ i { [ q 4 P ,.x.H.I.J.S.S.D.S.C.`.{.$X*X*X%X%X%X$X}.[.D.D.D.`.H.J.H.H.K.H.H.J.D.C.C.C.D.H.H.H.L.H.b.y.-.-.-.-.-.-.4.-.-.4.-.-.>.>.>.,.>./ Q 6 ; 5 5 5 s s p # ",
"q f { d 0 1 P ,.g.H.U.#X%X%X$X%X-X%X%X%X}.}.}.}.#X#X[.K.D.C.D.D.C.C.D.D.D.D.D.D.C.H.C.N.b.v.b.M.B.M.u.:.I m N H U I L L L L L L L L L I I S 6 s h s a a a d d u ",
"p d i i O < U 9.x.H.U.U.#X#X$X*X-X-X-X}.{.[.L.[.[.}.[.[.H.H.H.H.K.K.K.K.H.K.H.K.[.L.C.x.y.w.q.y.u.r.4./ A 2 Z Z Z Z Z Z Z Z Z Z Z Z Z Z Z F 5 a s s s 0 0 f f i ",
"a d f d 9 * L ,.i.B.L.L.K.J.K.].{.%X}.[.).H.H.D.H.H.D.C.C.C.C.D.C.C.C.C.C.C.C.D.H.C.x.9.;.E E ;.;.;./ S 4 = > 5 t t t 5 4 > > 5 t 5 t 5 6 > a a t w w q q i d i ",
"p j { [ # : Z / 7.x.B.H.B.v.x.M.H.[.[.m.v.v.B.B.b.x.k.a.a.v.a.v.x.x.x.x.x.x.a.v.b.x.w.( H b b M m m S 6 - > p s e e e e w w e e s s s e > a p p w 0 q d d $ u i ",
"d f g { [ i a F / 0.v.D.C.c.w.u.M.[.C.i.w.i.C.C.c.w.,.,.,.9.9.9.9.4.9.9.9.9.9.w.w.9.>.Q 8 4 8 3 3 3 1 4 = w s a a w a a a a s w w l a l s s h f f f [ [ { f i i ",
"p d f [ { { i 0 3 ( y.v.v.r.;.:.y.b.i.1.) 7.c.c.r.) E I ( ( ( V R E E ( E R R E ( ( L Q t a a w 5 t > > w a a s w w w s e w w a a a w w w p i g g f f { { [ i i ",
"^ ~ z g [ i ] u : H :.r.r.:.H P ;.w.:./ H ) w.w.:.H b b b A A b b A A A S A A A M S Z 6 a s a s s s l l l a s p d 0 0 p 0 0 0 d d 0 0 0 9 q i d d i d { { f f i ",
"aX~.+.k [ { g u @ Q / :.;./ F G / ;.( S 3 / ;.) / 3 4 4 8 8 3 1 3 8 8 8 8 8 8 8 8 8 6 5 l s a w a a l l a s d d d d # # q r f [ f # # q d d r d i d f f [ [ d u ",
"pX~.#... .g f i d w D L H G t 6 G P G 8 5 F H H G 5 w w - > > - : > a a a a a a s s a s p e q e e q w w w d f f f f f i d ] [ { i $ $ i d $ r $ # d [ f f [ i # ",
"%.*.%.*.O.l d g g p > 2 3 l d q 6 Z 8 0 h a 7 D > 0 # # # @ # q @ u f f u u f i i d i g i @ q r d d # @ r f f [ { { { [ { { { { { d $ $ $ $ $ r # i [ [ [ f i $ ",
"z x +.^.~.^ h i { g d w t e d d p a s f g d w w s g u u # u d i i i i g g { ] [ [ g [ i # @ @ i ] { ' ' g [ f [ [ { { { { { { { { [ i $ $ $ d ] i f f [ [ [ f i ",
"u u x W.E.+.z i { { g p d j ] [ g h g [ [ d p p g { i i i i g [ ] { { i i { { { [ [ { k ........o.o. .{ [ [ [ { { { { { { f f [ { { f d d f ' { [ { [ f [ [ [ i ",
"u i ] x x k g { { i i u i [ { { { [ [ g [ i # i g { { { { { { { { { { g f f g { [ i k ..*.~.W.W.~.E.@.h f { [ { { [ g { [ d i [ { { { { { { { { { { { [ f ' i $ ",
"u i i [ d p g { [ [ g u i { g i d d u i [ { [ i f { [ g f g [ { { i u d d u i i [ i k #.~.lXpXiXaXiXW.! j ] [ d f f d i { { [ f f { { { { { { { { { i [ { i $ # ",
"p u g .. .z g { { g i i f | X.$.$.o.z d [ { [ i ] { }  .o.x d ] x ..$.$.+.z f i g i k +.W.iX/.^.(.~.T.@.+.&.&...k f f i { { i i ] { { { { ] ] { { f i { { d $ # ",
"u u x R.T.X.k i { f i i p ~ R.pXsX^.$.j g u u [ { g x $.~.+.p g ..E.sXsX/.X.k { { [ g k x x x x  .x ~ #./.aXsXW.^ g { { ] $ u [ { ] { { { f i [ { { { { { { ' i ",
"@ z #.~.R.X.k i { ] i i p ..W.pXlX^.*.x f i ' i i p X.R.~.+.p g ..W.lXlX^.*.x k g g g g f i i i d f k ^ ^.lXlX~.X.k f f g [ [ { f f [ { { f f [ { { [ i i { [ i ",
"~ @.R.R.*.~ } [ i { ] f f x $.Q.~.R.*.@.^  .[ u z ~ %.T.*...d g  .$.~.Q.R.*.*.+.k i i g g g { [ ] [ [ ~ R././.%...f f d f { { i d f ] { { [ [ { { [ [ $ $ { [ $ ",
"W.!.W.O.k { { { { { { { i p }  .x  .o.R.E.$.p p @.Q.T.@. .[ [ { g k k }  .#.~.^.o.j i f g { { { { { [ } k z  .k f { { ] f [ f d $ ] ] [ { { ] { { i ] ] [ { i $ ",
"~.W.#.z i [ { { { { { g i i [ [ ' g *.^.aX=.p p =.aX~.#.f i f { { [ i i k ..*.~.*.^ j u i { [ { { { [ d $ i ] ] [ { { ] { [ f i ] { f d ] f f { { { ] ] { { $ @ ",
"T.^ a p u i g i { { i i g [ { { { g *.(.lXQ.u p E.lX^.#.f i i { { { i { { g ..*.W.T.^ z p i i g { { ] f f ] { { [ [ f [ { { f i ] { ] d f i f { { { { ] { { $ @ ",
"~ x u u u u i i [ { [ i i i [ i i u +.Q.iXT.p p *.iXQ.o.g [ { f u u { { { i g ..*.~.~.^ p u i [ [ [ [ ' f ] { ] d d i f { { { { ] { { { ] { { ] $ i { { { ] ' $ ",
"O p u u u u u u i u u u i f i u u u x O.T.@.~ ^ @.*.O.z d f f i u + i u u u u i ~ *.W.*.O.x u u $ $ i i d i d i d d i d f f f f f f ] f d f f d $ $ i i $ $ $ $ ",
"O p @ u u u u u u + u u i u p u u u u s ! ^ ^ ^ ^ x w # u $ d i u + u u O p p p 0 ! *.W.T.^ s p $ # # $ i $ # $ d i f i # # u d i $ $ $ i $ d i @ @ i # + @ @ + "
};
