/* XPM */
static char *Group_10_24__resized[] = {
/* columns rows colors chars-per-pixel */
"80 80 246 2 ",
"   c #1D1D16",
".  c #1B1A19",
"X  c #271C17",
"o  c #231D1B",
"O  c #351C19",
"+  c #1D2317",
"@  c #212317",
"#  c #222C16",
"$  c #27251A",
"%  c #392517",
"&  c #253417",
"*  c #283917",
"=  c #263318",
"-  c #2B3D19",
";  c #363817",
":  c #191A23",
">  c #251D23",
",  c #381E20",
"<  c #2C2224",
"1  c #2C2427",
"2  c #332426",
"3  c #362727",
"4  c #3D2C2C",
"5  c #343124",
"6  c #3C2F33",
"7  c #531D17",
"8  c #4F280E",
"9  c #472519",
"0  c #572916",
"q  c #473816",
"w  c #583914",
"e  c #682816",
"r  c #792D18",
"t  c #693815",
"y  c #763818",
"u  c #462926",
"i  c #512C28",
"p  c #493329",
"a  c #58352A",
"s  c #433333",
"d  c #4A3637",
"f  c #4C3B3B",
"g  c #553C36",
"h  c #673728",
"j  c #6D342A",
"k  c #763724",
"l  c #673D32",
"z  c #2D431A",
"x  c #284418",
"c  c #2E4B19",
"v  c #384817",
"b  c #314D1A",
"n  c #2E521A",
"m  c #3A5317",
"M  c #32531A",
"N  c #3C5419",
"B  c #355A1A",
"V  c #3C5C1A",
"C  c #36621B",
"Z  c #3A651C",
"A  c #3D6C1D",
"S  c #3F711E",
"D  c #3A4A25",
"F  c #3F7420",
"G  c #474817",
"H  c #434C16",
"J  c #4C4D17",
"K  c #5B4415",
"L  c #574817",
"P  c #544B17",
"I  c #5D4B17",
"U  c #435217",
"Y  c #4A5417",
"T  c #445519",
"R  c #4B5418",
"E  c #435C1A",
"W  c #4B5C1A",
"Q  c #5A5317",
"!  c #535418",
"~  c #5B5418",
"^  c #545B1A",
"/  c #5B5C1A",
"(  c #644415",
")  c #6C4416",
"_  c #644A16",
"`  c #6C4B16",
"'  c #684C18",
"]  c #744416",
"[  c #734C16",
"{  c #794A17",
"}  c #6D5317",
"|  c #635418",
" . c #635618",
".. c #6C5419",
"X. c #6B5C1A",
"o. c #775718",
"O. c #745B1A",
"+. c #43631B",
"@. c #4C631B",
"#. c #436C1D",
"$. c #4B6B1D",
"%. c #53631B",
"&. c #5A631B",
"*. c #536B1D",
"=. c #41741F",
"-. c #4B721F",
";. c #43781F",
":. c #49791F",
">. c #53711F",
",. c #65631A",
"<. c #70631B",
"1. c #564A2E",
"2. c #57423B",
"3. c #7A4427",
"4. c #72532A",
"5. c #694433",
"6. c #774534",
"7. c #7A5237",
"8. c #427620",
"9. c #4B7724",
"0. c #457C21",
"q. c #4A7C21",
"w. c #7A6A2A",
"e. c #5C4747",
"r. c #634A47",
"t. c #69564C",
"y. c #715C51",
"u. c #74674E",
"i. c #695F61",
"p. c #883A17",
"a. c #953E17",
"s. c #813C2E",
"d. c #874817",
"f. c #9C4A14",
"g. c #974818",
"h. c #885618",
"j. c #985817",
"k. c #9D531A",
"l. c #A34A0F",
"z. c #A44D18",
"x. c #A65616",
"c. c #A45C1A",
"v. c #AB5B19",
"b. c #B75A1B",
"n. c #8A6219",
"m. c #986518",
"M. c #9D741D",
"N. c #A66318",
"B. c #AC641A",
"V. c #A56B19",
"C. c #AC6A1A",
"Z. c #B3641A",
"A. c #BA6718",
"S. c #B46B1A",
"D. c #BB6C1A",
"F. c #AF7116",
"G. c #B8741A",
"H. c #86492A",
"J. c #914921",
"K. c #9B5525",
"L. c #894B35",
"P. c #895634",
"I. c #965835",
"U. c #A65924",
"Y. c #A25934",
"T. c #9B6826",
"R. c #946736",
"E. c #A86725",
"W. c #B76A27",
"Q. c #AA752B",
"!. c #B77327",
"~. c #A86435",
"^. c #AE7437",
"/. c #C25C1B",
"(. c #C57A0A",
"). c #C4641D",
"_. c #C66B1C",
"`. c #C4731B",
"'. c #C8771A",
"]. c #CC7B1B",
"[. c #D5771E",
"{. c #D27B1C",
"}. c #C37226",
"|. c #D87921",
" X c #E07F23",
".X c #8C6F4F",
"XX c #A26E4F",
"oX c #8C7661",
"OX c #478122",
"+X c #498423",
"@X c #4C8A24",
"#X c #538531",
"$X c #B9832D",
"%X c #CA851A",
"&X c #CB841B",
"*X c #D2841C",
"=X c #D9861C",
"-X c #D38B1B",
";X c #DA8C1C",
":X c #DB931D",
">X c #DA971D",
",X c #E18D1E",
"<X c #E5961E",
"1X c #E49B1D",
"2X c #E9A61E",
"3X c #F0B11E",
"4X c #DC8821",
"5X c #D99726",
"6X c #CF9034",
"7X c #E38921",
"8X c #E69822",
"9X c #DCA12B",
"0X c #DBA53A",
"qX c #EBA826",
"wX c #F1AB24",
"eX c #F3B523",
"rX c #E6AA36",
"tX c #EAB43B",
"yX c #F1BB32",
"uX c #F6C328",
"iX c #F7C934",
"pX c #F7D039",
"aX c #928555",
"sX c #AC8F56",
"dX c #979166",
"fX c #AA986B",
"gX c #B5AD6A",
"hX c #C69A48",
"jX c #D6A347",
"kX c #E8B242",
"lX c #EBB743",
"zX c #CCB766",
"xX c #EEC042",
"cX c #F6C847",
"vX c #FBD444",
"bX c #CFC97D",
"nX c #E6D363",
"mX c #AABDA5",
"MX c #AFC38F",
"NX c #D2CD89",
"BX c #E4D599",
"VX c #F0EE96",
"CX c #F1F0B2",
"ZX c #E0CDCC",
"AX c #F6F7D4",
"SX c #FCFCED",
/* pixels */
"n C =.S S S S S S A A S =.S +.( ] T m G t J S ;.;.=.;.;.S A A S S A V K k.0XvXiX%Xl.d.`.{.x.K m #.A m w c.|.*Xk.t Z S =.A A S ;.0.S 0.8.S A A S S S 0.S S 0.A B ",
"Z A =.S 8.8.S S S V N A ;.=.#.! L H Q [ d.` U #.S S S S S 8.0.0.0.S V w K.jXvXiX>XS.x.A.N.h.! Z A N H J o.N.Z.d.J #.S S S S S ;.8.S S S S 8.0.0.0.8.S S S 0.S A ",
";.;.=.;.0.0.A A +.I K @.#.=.=.A V G { Z.`.j.K E A S S A =.OX@X@X@X;.V ( U.kXvXpX2X-X_.b.d.J Z Z +.K K E Q ` d./ Z ;.=.S S 0.OX;.S S S S S +X@X@X+XOXS S S 0.0.0.",
"S ;.+X@X@X0.A E Q m.V.h./ =.+X@X$.q d.{.,XA.t @.S OXOX+X+XOX+X+X@X0.+.( k.5XiXuXqX4X|.z.[ +.A @.I j.n.^ U R W 9.+XOXS S 0.+X@X+XOXOXq.+X+X0.OX@X+X+X+X8.8.0.0.S ",
"S ;.OX+X+X+X#.Y [ G.*XN. .Z +X+X$.w N.5X1XA.y %.OX@X@X@X+X;.0.0.0.8.#._ k.5XqX2X7X|.).g...=.A ~ j.%X&Xn.~ N A 0.@X+XOXOX+X@X@X@X@X+X@X@X@X0.0.0.0.0.@Xq.0.OX8.S ",
"S =.=.;.OX@X;.^ { G.].N. .+.=.#.W 4.$XqX1XN.t $.OX@X@X@X@X;.;.;.S A +.( g.&X1X<X|.b.g.) ^ q.Z ..S.qXqX}...V 0.0.0.@X@X@X@X@X@X@X@X@X@X@X+X0.0.0.S 8.+X@X@X0.0.8.",
"S S =.;.OX0.;.=.%.o.d.Q +.A #.Q o.6XiXiX>XN.y W ;.@X@X@X+X;.;.;.S Z +.( f.'.,X,X).z.t ! 9.=.m ' W.tXtXW.' m q.+X@X+X0.0.0.0.+X+X+X@X@X@X+X8.0.8.S S 0.@X@X0.S Z ",
"A A =.;.;.=.=.S #.J G V Z S +.K k.jXvXpX1X(.h. .@.;.@X@X@XOXOXOX0.S +.) g._.4X X).f.t $.;.A m I B.rXrXZ.K D 0.+X+XOX0.0.0.F 0.F 0.@X@X@X+X+X0.+X8.0.+X@X+X8.Z C ",
"A S ;.OX0.S S S A Z Z Z =.A B K g.jXvXpX3X;X`.g._ @.OX@X@X@X@X@X+X0.#.` f.).|.|.).g.t @.S A m ' v.8X5XB._ v Z 8.OXOX+X@X+X0.F S 8.@X@X@X@X@X@X@X@X+X@X@X+XS A A ",
"A S =.0.0.8.S A A S S A ;.=.V K h.6XiXyX2X1X=Xb.{ T q.@X@X+X@X+X0.S A R [ z././.K.) R #.A E P h.&X1X1X`.h.I V =.+XOX@X@X@X@X0.+X@X@X@X@X+X+X+X+X0.F F +X@XOX0.=.",
"S S 8.0.OXOX8.S ;.;.;.=.=.=.#._ g.4XwXeX1X,X=Xb.{ E q.+X0.0.+X+XS A A #.%.[ a.g.t R #.0.#.P h.'.1X>X;X=XA.h.P $.@X+X@X@X+X+X+X@X@X@X@X+X0.0.+X+XF A A 0.@X+X0.;.",
";.=.8.@X@X@X0.0.OX@X:.#.#.=.:.| g.*X1X8X,X[.Z.{ ~ 8.@XOX8.q.@X@X8.A S OX:.E w t w T 8.+XW t `.2X3X'._.5X4Xb.t @.@XOX@X@X0.OX@XOX+X@X@X+X8.q.@X@XF A S +X@XF =.S ",
"S S =.OX+XOXOX0.=.=.$.| | &.-.P d.D.=X7X).z.{ / 9.+X@X+X+X+X@X@XOXOX+X@X@XS ! t ( ! =.0.@.K C.:X>XN.x.].|.c.K E 0.+X@X@X+X@X@XOX+X@X@X@X+X@X@X@XOXOX+X@X@X0.=.S ",
"A S 0.;.:.#.$.-.=.Z  .j.j.o.^ Y ' j._.).z.] R #.OX+X+X@X@X@X@X@X+X+X@X@Xq.$.<.h.j.O.W =.#.W O.C.%XN.B.D.c.o.W #.OX@XOX0.@X@X@X+X+X+X@X@X@X@X@X@X+X@X@X@X+XOX0.S ",
"=.;.+X@X>.! L ^ :.P h.%X-XF.K W 9._ d.z.] / q.=.=.0.+X@X+X@X@XOX0.0.OX0.#.L j.&X-Xm.K $.+Xq.W ..B.-X*XZ...Y 9.+X+XOXF A 0.@X@X0.8.0.+X+X+X@X@XOX0.0.0.OX0.+X0.=.",
"S ;.OX#. .d.h.o.%.R } F.D.m./ :.q.W K I J @.0.8.S 0.0.0.0.0.+X+X+XOX+X+Xq.W O.S.G.n.^ =.+X@XV _ v.1X>Xv._ V 0.-.@.S A S S 0.0.F 8.0.0.0.0.0.+X+X+XOX+X+X@X@XOX0.",
"=.;.q.H { A.`.j.w W %.o.{ O.:.OX:.=.Z V Z S ;.;.8.0.0.8.0.0.+X@X@X+X@X@X+X0.,.{ h.,.=.Z 0.+XV ' v.1X1Xv. .Z 8.! K +.F F F 0.8.F 9.0.0.0.0.0.+X@X@X@X@X@X@X@XOX;.",
";.;.#.w g.*X,XA.t Y Z E U +.:.#.E :.;.;.;.+X@X+X@X@X@X@X@X@X@X@X@X@X@X0.=.+X-.@.@.$.#.m V 8.V | b.<X<XA.| B @.( t $.0.0.0.+X@X@X+X@X@X+X@X@X@X@X@X@X@X0.8.+X0.;.",
"S ;.=.w h.4XqX'.y J Z S A Z #. .} %.;.+X;.OX+X@X@X@X@X+Xq.OX+X@X0.0.OX0.=.0.;.=.=.=.@.} | W N I k.].].x.L v E [ d.@.0.OX0.0.+X@X@X@X@X+X0.OX@X+XOX0.OX0.8.8.;.;.",
"S 0.q.q d.5XwX5Xj.' W q.S +.Q j.N.o.%.:.;.;.OX@X@X@X@X+X0.0.+X+X0.F 0.0.0.S ;.@X;.@.X.N.N.| H J [ c.c.[ G N / T.T. .$.0.0.0.OX+X@X@X@X+X0.0.OX+X0.F 0.0.0.S S ;.",
";.;.=.w h.6XpXtX'.k.[ V B ! j.].:XB.} E +X@X@XOXOX+X+X@X@X@X@X@X@X@X@X@X@Xq.+X+X#.~ j.*X-Xm.Q V @.[ ) W v P E.0X0XE. .+.OX@X@XOXOX+X@X@X@X@X@X@X@X@X@X@X+X0.0.=.",
"A +.Q { Q.rXiXyX{.b.{ T B ! c.5XqX}.[ N q.+XOX+X+X+X+X0.+X+X+X+X+X+XOX@X@X+X@X+X=.&.O.G.G.h.&.=.+X&.%.#.M _ !.tXrXU.' Z OX+Xq.+X+X+X0.+X@XOX+X@X+X+X+X@X@X+X0.=.",
"B Y y v.{.wXeXwX4Xb.{ @.Z &.U.rXlX}.o.U #.=.=.@X@X0.0.8.F 8.0.0.0.8.0.OX@XOX@X@XOX=.%.h.d.^ 9.+X+XOX+X@X+._ S.8X8Xv.` E =.S =.@X@X0.0.0.S 8.0.0.0.8.8.+X@X+X0.8.",
"B ( z._.7X2XwX8X|.b.h.+.Z &.U.jXvXrXV._ U A OX@X+XF 8.0.0.0.8.8.S =.q.OXOX+XOXOX0.+.H R *.q.OX0.8.E +.+X+. .B.=X<XG.h.I T S +X@X+XS 8.8.0.0.8.8.S F 0.OX+X+X8.8.",
"B P d.b.[.,X,X X_.z.] E C &.K.0XvXyX4Xj.K E +X@X+XS S ;.F F F F A S OX8.S A S 8.$.| _ E Z ;.S A W  .X.$.E _ x.{.1X;XD.h.K +.+X@XOXS S 8.0.8.F S S S OXOXOXOX;.S ",
"C T I g.x._._.b.l.{ ! Z C ~ k.5XiXiX8XS.y R OX@X+X;.S S S S F F S F 9.#.N c M T ' j.c.,.V M M N  .V.V.I q t x.].8XqX,Xb.t E @X@XOX0.F S S S S F S =.+X+XOXOX;.=.",
"S =.$.I y p.p.p.] &.9.OXZ Q k.&XwXwX;XZ.t W OX@X@X+X0.A A F F 0.0.8.Z G a ; q w z.`.].j.t ; % ) m.%X%Xh.e e g._.<X<X'.k.I +.+X@X@X+X0.A S S 0.0.0.0.;.+X+X+X;.;.",
"=.OXOX@.! I K L ! -.@X+X+.I z.].2XwX=Xv.t U 0.+X@X@X0.0.0.0.+X+X0.Z z a 5.7.4.p.z.'.*Xl.p.y H.E.`.G.M.o.K 8 t k._.A.c.o.@.=.:.+X@X@X0.0.8.0.OXOX+X+X+XOXOX@XOX=.",
"S ;.+XOX:.:.;.:.0.;.;.=.Z Q k.`.,X1X=Xv.t T =.OX@X@X@X+X@X@X@X+XA z 1 2..XhX!.U.f.G.].f.g.E.6X6X}.J.I +.B ; 9 y a.g.` E =.0.=.OX@X@X@X+X@X@X@X@X@X@X@X+X0.OX;.S ",
"A ;.OX@X+X;.OX@XOXE T Z =.*. .j.A.[.Z.{ &.=.+X;.0.@X+X@X@X@XOXZ z 5 f r.u.sXXXK.l.(.-Xf.p.I.XX^.R.H.5.G 5 D 2.7.L.L.a z Z ;.+X0.0.@X@X@X@X+X@X@X@X+X0.OXOX0.S A ",
"S ;.OX@X+X;.OX;.*. .' / :.;.@.' p.f.{ &.q.OXOX0.OX@X@X@X+X0.Z z 5 s i.i.dXfXXXH.l.G.>Xx.y 6.t.7.y.L.k a g y.i.oXy.y.g ; z A OX0.0.@X@X@X@XOXOX@X@XOX0.@X@X0.S A ",
"=.OX@X@X+X;.S E  .V.S.h.&.#.A K e w %.q.OX=.=.+X+XOX@X@XOXB z 5 f t.oXfXzXNXfXP.l.G.2X'.j.k a l L.L.6.e I.fXzXdXi.i.r.i ; m =.+X@XOX@X@X@X0.0.+X+X+X@X@X@X+X;.;.",
"=.0.+X+XOX0.#.R { %X*XN.| V +.' y J +.0.OXOX+X+X0.0.+X@XS x $ s r.oXgXBXVXVXzXY.j.%XeX8XD.g.s.s.L.r.j r W.jXzXfXy.t.7.H.K Y ;.+X0.0.+X@X@X0.0.@X@X@XOXS S +XOX;.",
"A 8.OX0.0.q.=.%.o.G.G.n.Q H / m.V.<.W A 0.@X@X0.0.8.+X+XS & > f u.fXNXCXCXNXhX!.'.5XuXwX].l.p.s.6.l k f.W.6XjXsX.XL.K.E.m.<.$.=.F 0.OX@X@X+XOX+X@XOX#.T R +XOX=.",
"S =.0.0.OX@X@XOX$.[ [ %.m J h.].:XB.} T 0.+X0.F 8.OX0.0.A * . f oXbXCXSXZXXXU.D.eXvXiXqX].f.r a g h g.'.D.v.K.6X6XJ.c.%X&Xm.w E 0.OX0.OX@X+X+X@X+X-.E ( ' -.S A ",
"A =.8.8.0.@X+X+X+X>.R H m U X.F.G.h./ #.q.+X0.0.0.+XS B z 5 1.aXNXCXAXSXZXXXf.(.uXpXyXqX].l.h i a r x.-X(.f.y I.R.H.f.A.C.O.R #.0.+X0.0.OX0.OX@X=.^ w.E.Q.X.E C ",
"S S S S 0.0.0.OX@XOX$.K K R @.X.h.Q #.;.@X@X0.0.OX0.Z - < 6 u.gXVXAXSXSXZXXXg.F.3XeX3X2X'.l.k i g r x.>X*Xv.k l 5.a y d.} *.=.;.OX+XOX0.8.0.0.+X+.| W.0X0XJ.L m ",
";.S S =.8.F 0.OX;.=./ j.j.o.R H H #.;.;.@X@X+XOX+X+XB * 1 f t.aXNXCXSXSXZXXXH.g.%X2X2X>X_.a.j d d e c.rXrX-Xg.j i u 9 q *.:.+XOXOX@X@X@XOX+X+X0.v ( 6XcXlXK.t 8 ",
"0.=.;.A #.F 0.0.=.! h.`.[.C.( T #.=.;.;.0.+X+X@X@XOXZ z 5 e.w..XfXNXVXVXNXdX6.k l.;X2X,X).l.k a g k U.0XiXqXZ.p.7 O = m =.OX+X@X+X+X@X+XOX+X+X8.H t &XtXtXk.e 8 ",
"A ;.;.@.@.#.q.0.#.t f.=X7X`.y ^ OX$.$.#.8.0.OX@X@XOXF B B .XsXaXXXsXzXgXdXoXe.e l.{.8X X/.a.p.k L.y k.9XiXqX_.l.e O - A =.:.OX@X@X+XOXOX+XOXq.@.w t !.rX9XK.t 8 ",
"C A $.} ` / -.+X-.P d.`.{.B.( W -.} ` ! =.OX+X@X@X+X@XOX9.gXbXnXhXR.t.u.u.t.e.j g._.=X[.b.p.J.Y.~.a.j.-XqX8Xb.a.e O x Z ;.OX+X@X@X+X@X@X0.F $.[ r p.B.>X:Xk.I m ",
"B E X.V.C.h./ #.=.+.| j.j.h.J J } V.C.n.! @.0.OXOXF F F OXMXCXVXnX.Xe.e.r.e.2.5.{ z.A.b.g.k 3.Y.W.g.l.&X<X7X/.a.e ; n Z S ;.OX+X0.0.0.0.#.W 4.Q.U.g.x.&X;Xl._ B ",
"Z P { ].;XF.( v =.S @.( ( Q +.P d.&X-XF.K N 0.0.F F S S F mXAXAXNXaXe.e.e.e.e.2.l y a.p.y u 6.I.W.a.g.`.,X X/.a.w V Z S S ;.;.;.S S A A N ) E.kX6XE.l.(.].g.I m ",
"A +. .C.D.j.^ Z =.E v H @.:.+X$.X.F.Z.h.! 8.+X+XOXOXOXF #XmXSXAXNXaXf s e.2.f f g h j 0 9 7 k ~.~.L.y z././.l.e q -.S S ;.+X@X+XOXOX+X=.E ] !.cXxX5XA.x.h.Q @.Z ",
"Z A @.O.o.,.>.;.$.| _ J =.@X@X;.*.O.o.,.9.+X@X@X@X+X@X@X+XmXAXAXNXaXg d g f 2.2.2.g d u i k U.Y.Y.l u y p.p.e O # +.8.0.@X@X@X@X@X+X@XOXE ] W.lXpXyX].d.( +.A S ",
"U +.Z N E =.OX-.Q V.C.O.*.q.0.0.=.+.+.8.@X@X@X@X+X@X@X+X#XMXCXNXgXR.P.2.f f f e.f f s i 3.E.}.W.H.i 1 , 9 7 O . + ; $.@X@X@X@X@X@X@X@Xq.E ) E.qXiXuX*Xd.w #.#.Z ",
"{  .Z #.=.=.#.Q g.%X>XS.[ T q.@X+X=.S S F 0.0.+X+X+X@XF 0.gXgXdXR.T.^.R.2.f f f f 6 u 0 K.rXrX!.e u u 4 u u 2 O 9 { } %.=.0.OXOX+X@X@Xq.@.] v.<X3X2X'.d.K $.E ; ",
"S.h.! =.;.S m L z.;X2X].] G =.+X+X%.W Z 8.0.0.;.OX+XOXA C w.aXr.2.4.^.^.R.5.d 6 6 6 u e Q.lXkXQ.e k l l 5.5.a 0 y Z.N.} W A ;.0.OX+X@X0.+.] x.,X1X,X).g.w #.v 8 ",
"1XF.] Y A A V I f.-X1XD.[ v A =.$.) ( ^ :.OXS S ;.+XA x $ u f f f 2.7.^.^.4.d 6 s d a e E.tX0XW.p.s.Y.Y.I.I.s.s.g.-X*Xc.P V 8.A 8.+X@Xq.+.` x.'.4X|.b.d.K V H q ",
"3XG.] ^ Z E ~ h.%X2X2XD.` v A ^ o.F.F.m.&.=.OX@X@X+XC - > < 4 s s s 1.4.R.P.I.I.I.I.H.r c.9X5XS.r r j j 6.6.j e y S.B.h.G C 8.H E 0.@X+X9.%.O.j.).A.d.I R J O.T.",
"2X`.d.&.A W h.`.2XeX2XD.` N ;.^ o.%X*XB.L N #.S 0.0.Z - o 2 4 s 6 s s g 3.I.~.W.~.~.K.p.k.-X:XN.e i s u 4 4 2 % q { ] 8 - B *.4.X.*.OX+X=.C U t a.d.L V $.I E.6X",
"2X_.d.>.8.! N.=XeXeX:XZ.` T +X-. .M.S.k.8 $ - & M 0.A z $ 2 4 6 6 4 p 5.7.P.P.P.P.P.H.r k.&X{.x.e , 1 > > + + x m T ; X o ; <.$XQ.O.>.;.A c * 9 7 0 v A >.] !.tX",
"{.v.( W B G d._.4X8X4Xb.] G #.A E ) t 0 X + @ + z S 8.M $ < 2 4 3 6 g I.~.6.d 4 3 4 9 r k.{.{.x.7 , > 1 > > & b A =.V * X 0 V.tX0XE. .+.#.x + @ $ = x Z @.y Z.>X",
"c.h.Y v * $ t d.A.|.|.b.t q c c - % O X . + - * b A 0.Z z $ < 2 1 3 a Y.~.l 2 : : > O e z.].'.x.e u 2 1 , u ; +.;.+X;.B % y W.yXyXW.| E 0.M - x x x M T K y x.].",
"t / =.x +   $ 0 d.b./.z.t % +   o     o + C OXA S 8.OX0.Z * . < < 3 a L.L.a 3 > < > 3 e g._.[.z.e , , 1 a y ( %.OX;.Z Z m [ Z.1X;XN.I E OXOX0.8.F #.T [ a.p.z.`.",
"H $.OXZ M n m U ~ g.g.[ P m c c c x x x n A 0.F 8.0.0.0.Z = . < u l H.6.a u 3 < 2 2 2 u y z.b.z.s.i , u d.v.V.O.J z - H } V.*X=X_.x.K N 0.+X@X+X#.^ n.G.A.g.x.`.",
"Z ;.OXA A 8.0.8.#.` ) J #.0.0.0.;.A A A A S 0.F 0.0.0.;.Z = o $ a 6.L.a 4 2 2 2 3 2 2 3 u y z.Y.L.a O 7 j.&X*Xj.0 $ X 8 x.-X2X=X/.z.( V =.#.-.+X#. .N.*X%Xg.k.D.",
"=.;.=.N N #.8.0.0.W H Z #.8.0.+X+X+XOX;.0.+X@X+X+X@X+X+X8.= X 3 h l l u 1 2 3 3 3 3 2 1 > u k Y.Y.i O e E.qXrXE.e v ; e A.1XwX<X[.v._ #.OXE W +X;.*.h.B.V./ } h.",
"=.A $.} [ ~ $.8.8.A Z A C Z OX@X@X@X@XOX;.OX@X@X+X0.=.Z B * $ p i i 3 2 < < 1 2 3 2 2 2 > > a 6.s.u X 8 !.tXlXE.w +.E | c.{.<X=XD.h.! +.&.O.O.*.-.#.&.}  .+.@.Q ",
"A E  .V.S.h.^ Z 8.8.8.@.T E 0.@X@X+X+X+X0.;.0.+X8.Z b - * x b T v < + > > < $ < o < o $ o > , i a v ; 0 !.kXkXE.w >.OX-...k.).A.h./ E R o.S.G.[ W Z S E T Z Z A ",
"B P g.-X1X`.` H 0.S @.[ [ ~ 9.OXOXOX+X@X@X0.=.=.B = $ @ = Z +Xq.#.z +   @ @ @ @ @ @ @ +       @ - C N w Q.kXlXQ.) @.;.+X-...p.p.` +.m | x.-X%Xj./ A OX+XOX;.;.=.",
"B K g.>X2X].] R q.@.} N.S.m.~ -.OX0.OX+X0.V z x = o o = c 8.+X+X=.C z c M b b b c b M M *     * C ;.+.w Q.kXcX5Xm.} %.;.8.W w e t v x R o.V.V.o.@.-.OX@X@XOX$.U ",
"m K d.-X<X].[ T q.! h.&X;XF.( $.OX=.=.=.B * @ o o @ = c A F 0.0.0.S #.;.0.0.0.OX;.;.OX;.M # # c OX@X@.w E.rXpXuX&Xl._ V =.S Y t e % c M T ) ) E S =.;.+X@XOXW q ",
"B K f.=X8X'.y J 8.#.,.N.B.h.%.#.0.;.Z x & - b M z x M A 0.0.8.F S S 0.OXOXOXOXOX@XOXOXOXB # o * B OX$.K m.qXiXuX:Xx.( m S ;.@.t 8 ; V A B q % & b S :.OX+X+X#.m ",
"B ! { `.{.S.' T 0.8.$.' O.,.q.A Z 8.B x & c 8.8.A B A S 8.F F S S 8.OXOX0.+XOX+X+X+X+X+XA *   o * B T w j.>XuXeX:Xz.` V =.9.$.{ ) G A A V = o   & b C Z Z ;.=.A ",
"Z V Q j.f.{ Y Z OXOX#.V #.q.0.B z S A B M A +X@XOX0.S S S S S S S 8.+XOXOXOX+X+X0.+X@X+XS n =   . = ; 0 x.;X3X3X{.z.' Z ;.*.4.$XQ.X.W Z A c # @ o @ * x M =.;.=.",
"S =.-._ K J +.=.@X@X+X0.8.S B = = V 8.0.0.OX+X@X@X+X8.A A F 0.0.0.0.0.OX+X+X@X@X+X+X+X0.F A n = .   % e x.,X3X2X}.z...#.+.<.E.lXjXQ.I m A A M = @   @ + x =.;.;.",
"=.OXOX+.E Z S OX@X@Xq.S B z = - M A +X@X@XOX0.+X@X@XOX0.0.0.OXOX+X+X+XOX+X+X@X+X+X+X+X+X0.F S B * + O 7 x.=X2X,X).z...Z V O.}.cXlX!.( m 8.OX8.C b c z z M ;.:.;.",
"S ;.@X+XOX@X+X+X+XOXC = @ o = B 0.OXOX+XOX0.F OX@X@X+X@X@X@X@X@X@X@X@X+X0.0.OX+X+X+X@X@X@X+X@X0.A * X 0 g._.,X|.b.d.| A V O.W.kXrXW._ V +X@X@X+X+X+XOX;.S OXS S ",
"S S OX@X+X;.@X@X0.B = @ o = Z 0.OXOX0.0.+X@X+X0.0.@X@X@X@X+X@X@X@X+X0.OXOX0.;.0.0.OXOX@X+X0.+X@X0.Z ; % t g./.b.g._ W A V ..B.qX8XE.~ +.+X@X@X@X@X+X;.+X+XOXS A ",
"S ;.+X@X+X=.;.=.Z - # $ = b 0.0.0.OX0.0.@X+XOX0.OX@X@X@X@XOXOX@X@XOX0.@X@X0.0.OX+XOX+X@XOX0.0.+X+X8.B = q t d.p._ $.8.8.E } v.<X5Xv.I +.+XOXOX@X@X+XOX+X@X;.S A ",
"S ;.@X@X+X;.A c & & - x M Z S ;.0.+X@X@XOX0.S +X@XOX@X@X@X0.0.+X+X@X@X@X@X+X@X@X+X@X@X@X+X0.0.OX@X0.Z n b m U U E 0.@Xq.E ` v.;X{.c.I +.@X0.0.+X+X@X@X@X@X+XOXS ",
"B B C ;.0.0.Z c # M Z C =.OX0.0.OX+Xq.0.0.OX+X+X0.0.+X@X@X0.0.+X@X@X+X;.;.@X@X@X+X+X+X+XOXq.OXOXOX+X0.Z A A A #.8.A 8.=.E [ v.[.[.b._ +.+XOX0.+X@X@X+X0.OX+X+XOX",
"& & x C ;.OXS B c S +X0.OX+X@X+X+X@X0.8.OX@X@X0.F 0.OX@X@X+XOX@X@X+XOXS ;.@X@X+XOX0.OXOXOXOX+X+X0.+XOX0.8.A Z 8.9.! @.Z V } z.[._.z.( Z @X+X+X+X@X+XOX8.S @XOXS ",
"o   # M ;.@X@X+X+X@X+X@X0.0.@X+X+X@X+X+X+X+X0.F 0.OX0.+X@X+X+X@X+XOX;.OX+X@XOXOXOX0.0.0.+X@X@X@X@X@X@X@XM # # v %.h.[ W E Q g.b.b.g.P +.@X@X+X@X+X0.0.OX@X@XS A ",
"z z b C S +X+X@X@X@X+XOX0.0.@X@X+X@X+X+X+X+X0.0.0.+X0.0.OX0.OX@X@X@XOX+X@X@X0.S OX0.8.8.0.+XOX@X@X@X@X0.b # X q n.G.F.n.Y E  .g.d.| @.S 0.0.OX@X@X@XOXOX@X@XS C ",
"A A A A S OX0.+X@X@XOX0.0.OX@X@X+XOX0.+X@X@XOX0.OX@X0.0.0.0.0.+X@X@X+X+X@X@X0.0.OX0.S S 8.0.0.OX@X@X+XS n & O 0 j.%X%Xm.R V W ` _ $.0.0.8.0.0.+X@X@X+X+X@X@XS A ",
";.S S ;.S S ;.+X+X+X+XOX0.OX+X0.0.0.0.0.@X@X+XOX+X@X@X@X0.+X+XOXS ;.@X@X@XOX+X@X@Xq.S 8.8.F 0.OX+X@X+XOXn & O % y Z.m./ E T H E $.q.@X@X0.+X+X0.=.0.@X@X@XOXOXS ",
"A S S S S S ;.;.0.=.=.;.0.;.;.8.8.8.8.8.0.0.0.0.0.0.OX0.0.0.0.0.A A OXS S S 0.OX0.=.S 8.8.8.8.8.0.S ;.S B x + . % ( Q Y / O.n.^ A 8.q.0.0.0.0.0.A A 0.;.S S S S ",
"C C A S ;.;.S S A A A S S S A S 8.8.0.8.A A F 0.8.S S S S S F 0.A A S A C A S S S S S S 8.8.S A A Z A S A x + .   ; v Y O.N.F.X.N A S S 8.S 8.8.A A S A C Z Z C "
};
