/* XPM */
static char *Group_10_25__resized[] = {
/* columns rows colors chars-per-pixel */
"80 80 233 2 ",
"   c #1D1919",
".  c #251C1C",
"X  c #391B1D",
"o  c #1B2517",
"O  c #222C16",
"+  c #272719",
"@  c #372818",
"#  c #243416",
"$  c #253B16",
"%  c #293C17",
"&  c #293719",
"*  c #2A341C",
"=  c #373719",
"-  c #241E22",
";  c #2C2224",
":  c #272229",
">  c #342B2B",
",  c #392928",
"<  c #37332B",
"1  c #3A2D36",
"2  c #481C19",
"3  c #4C2D1C",
"4  c #582818",
"5  c #4B3614",
"6  c #553716",
"7  c #5D3C14",
"8  c #652B16",
"9  c #6D2B15",
"0  c #673413",
"q  c #623C14",
"w  c #6B3D15",
"e  c #773619",
"r  c #421E20",
"t  c #472B29",
"y  c #562D26",
"u  c #49342A",
"i  c #5A3929",
"p  c #452F36",
"a  c #473738",
"s  c #4C3C3D",
"d  c #563A36",
"f  c #672D22",
"g  c #673928",
"h  c #743926",
"j  c #663C34",
"k  c #294116",
"l  c #2B4419",
"z  c #2D4B19",
"x  c #364919",
"c  c #2D5319",
"v  c #32541A",
"b  c #3A5418",
"n  c #355B1A",
"m  c #3B5C1A",
"M  c #36621B",
"N  c #3B641C",
"B  c #3D6C1D",
"V  c #3F711F",
"C  c #3F7220",
"Z  c #4C4415",
"A  c #434C16",
"S  c #4B4C17",
"D  c #454918",
"F  c #534416",
"G  c #5B4315",
"H  c #534B16",
"J  c #5C4C17",
"K  c #5A4D18",
"L  c #485217",
"P  c #445419",
"I  c #4A5319",
"U  c #445C1A",
"Y  c #4B5C1A",
"T  c #575217",
"R  c #545419",
"E  c #5C5518",
"W  c #535A1A",
"Q  c #5B5C1A",
"!  c #644416",
"~  c #6B4416",
"^  c #634B16",
"/  c #6C4B16",
"(  c #6A4B19",
")  c #734416",
"_  c #7B4A16",
"`  c #774918",
"'  c #665519",
"]  c #6C5D1B",
"[  c #785718",
"{  c #43631B",
"}  c #4B631B",
"|  c #436B1D",
" . c #4B6C1E",
".. c #53621B",
"X. c #55681D",
"o. c #41741F",
"O. c #4B731F",
"+. c #43781F",
"@. c #51711F",
"#. c #67631B",
"$. c #756219",
"%. c #4B472C",
"&. c #55423D",
"*. c #77432A",
"=. c #674736",
"-. c #694F30",
";. c #794833",
":. c #785438",
">. c #496722",
",. c #5A6128",
"<. c #427620",
"1. c #4A7520",
"2. c #457C21",
"3. c #4A7C21",
"4. c #4B782B",
"5. c #507A28",
"6. c #696320",
"7. c #4B3E43",
"8. c #574644",
"9. c #5C5253",
"0. c #654B44",
"q. c #704E42",
"w. c #67544A",
"e. c #6B5950",
"r. c #736252",
"t. c #883B19",
"y. c #913E1B",
"u. c #8C4316",
"i. c #864817",
"p. c #8D4919",
"a. c #984916",
"s. c #845B17",
"d. c #875618",
"f. c #8B5219",
"g. c #845B19",
"h. c #985717",
"j. c #A44C17",
"k. c #A24B19",
"l. c #A65418",
"z. c #A35C19",
"x. c #AC5C1A",
"c. c #B45A1B",
"v. c #B6591C",
"b. c #89621A",
"n. c #946318",
"m. c #9B6418",
"M. c #A96617",
"N. c #AC6519",
"B. c #B3631A",
"V. c #B86819",
"C. c #BB6B1A",
"Z. c #AA7016",
"A. c #BB7519",
"S. c #884627",
"D. c #8A5A26",
"F. c #975523",
"G. c #8D4F31",
"H. c #825333",
"J. c #895738",
"K. c #965834",
"L. c #A9572A",
"P. c #896423",
"I. c #956625",
"U. c #946A35",
"Y. c #966837",
"T. c #A76926",
"R. c #AE6E2C",
"E. c #B77726",
"W. c #A56637",
"Q. c #A97637",
"!. c #B47A36",
"~. c #C15F16",
"^. c #C36C1C",
"/. c #C8681C",
"(. c #D36C1F",
"). c #C57718",
"_. c #CB731D",
"`. c #C37A1B",
"'. c #CB7C1B",
"]. c #D5761F",
"[. c #D47C1C",
"{. c #CD7222",
"}. c #8C6F4D",
"|. c #987D52",
" X c #478122",
".X c #498423",
"XX c #4C8A24",
"oX c #588239",
"OX c #AB8335",
"+X c #B98435",
"@X c #CA861B",
"#X c #CD841B",
"$X c #D2821B",
"%X c #D7881B",
"&X c #DB8C1C",
"*X c #DC961C",
"=X c #E38B1E",
"-X c #E2941D",
";X c #E59B1D",
":X c #E6A21D",
">X c #C8862A",
",X c #D4922E",
"<X c #C58834",
"1X c #D59838",
"2X c #E69924",
"3X c #DAA338",
"4X c #EAA82A",
"5X c #E9AA37",
"6X c #F0B434",
"7X c #8A8858",
"8X c #988659",
"9X c #B2924F",
"0X c #938566",
"qX c #A59665",
"wX c #B6AB71",
"eX c #D7AE4E",
"rX c #E7B64B",
"tX c #C1B470",
"yX c #EBC657",
"uX c #D9CC71",
"iX c #EBCE65",
"pX c #E9D976",
"aX c #F7E879",
"sX c #D8D883",
"dX c #DDD890",
"fX c #E3DD90",
"gX c #F9F490",
"hX c #EFEDA2",
"jX c #FCFDBA",
"kX c #FCFCC3",
"lX c #FEFED5",
"zX c #FFFFED",
"xX c #FFFFF7",
/* pixels */
"c M o.B B V V V +.B B o.2.4.oX5.o.o.o.+.B B V 2.+.+.+.+.V B B B C <.<.B <.oXoX4.N N V V B V V V +.B <.5.oX3.+.o.o.o.<.+.B B V 2.2.C <.<.V B B B V C 2.V V +.B n ",
"N B V o.<.2.V V V V +.2.>.>.,.,.B o.+.V B V +.V V V V V V <.<.2.2.2.+.V >.,.,.>.o.+.+.V V 2.V V V V >.,...| +.o.V o.<.V B V +.+.C C C B V <.2.2.2.2.V B V 2.+.B ",
"+.+.+.+.2.2.C B V +.+.+.Y ^ i.E N o.V V V +. X+.C C B C C .XXXXX.X2.<.N Y ` ( Q 3..X<.2. X2.V B V | ,.) ~ T o.| +.2.V B V 2.2.<.C C V C <.2.XXXXXX X+.B V 2.+.+.",
"o.+..XXX.X X<.<.+.+.B A [ Z.A.f.G { B V +..XXX.X X X X X.X.X.X.X.X.X<.A ' Q.E.b.I | .X.X.X X2.V N S / Z.M.[ L o..X2.+.B 2..XXX X.X2..X.X.X.X.X.X.X.X X2.+..X+.B ",
"V +.+..X.XXX.X.X X XB A d.V.%Xh.G { +. X.XXXXXXXXXXXXXXX.X X2.2.+.V o.G f.3X4XR.G b 2. X.XXX.X2.| ! a.&X&XM.G } .X.X.X X.XXXXXXXXX.XXXXX.X2.2.3.2.2..X.X2. X2.V ",
"V o.+.+. XXXXX.X.X X+.{ ' h.Z.s.R 3.XXXXXXXXXXXXXXXXXXXX.X2.<.2.V B { ~ l.4X6X`.w A +.<. XXXXX2.} ) v.;X;XC.0 L .X.XXXXXXXXXXXXXXXXXXXXX.X2.2.<.V C .XXX.X2.<.<.",
"B B o.+.2.2.2.2.+.+.V o.U T / X.3.<.B B 2.2. X X.XXXXX.X.X2.+.2.V B { ^ a.*X2XC.! A V 2.2.2.2.2.| F f.)./.m.H  ..X.X2.2.2.2. X.X.XXXXXXX.X2.<.2.B B 3.XXXX2.C N ",
"B V o. X+.+.+.+.V V V V B n A o.3...I P <.2.<.<.2.XXXXXX.X X2. X+.V N ( a.[.%XN.q b <.2.2.+.V V B U ^ f.a./ U o..X X2.<.2.C 2.2.2.XX.XXX.X.X2..X2.2..XXX.X<.B M ",
"B V +. X XV V V V V V V V B B B X._ ` ] +.2.+.B 2..XXXXXXXXXXXXXXX+.| ^ a.[.[.B.q P <.2.2.B B N | B U G F P B 2..X X.XXXXX XC C 2..XXXXXXXXXXXXX.X.XXXXX.XV B B ",
"B V +.+.+.V V V V V V V +.+.B Y ] +X<XU.Q { 2..X.XXXXXXX.X.X.X.X+.V m ~ a.$X=Xv.q A <.2.3.+.m A Z { B P m B C  X.X XXXXXXX.X X.XXXXXXXXX.X.X.X.X2.C 2..XXX2.2.+.",
"V V +. X.X.X+.V +. X+.+. X+.o.J i.3X5X>X~ L .XXXXXXXXX.X3.2..X.X+.M m H p._.^.M.K U <.2.2.o.W ( ` W B C <.2. XXXXX.X.XXX.X.X.XXXXXXXXX.X2.2..X.XC B B 2.XX X2.+.",
"+.V V XXXXXX+.+. X.XXXXX.X Xo.G a.4X6X>Xw I .X2..XXXXX.X+..XXXXX<.B B { Q h.h.` 1.<.<.XX2.Y g.N.A.[ W 3.3..XXXXX.X.XXXXX X X.X X.XXXXX.X<..XXXXXC B V .XXX<.V +.",
"V V +.+.XXXXXX XV +..XXX.X+.O.^ u.*X2X).w I .X.X.XXXXXXX.XXXXXXX X2..X.X1.^ J Y 1.<.2.2.{ K N.%X;Xz./ O.2.2.XX X2..XXXXX.XXXXX.X.XXXXX.X.X.XXXXX.X.X.XXXXX2.+.V ",
"B V +. X.XXXXX.XV V  XXX X+.o.G u.'.%XV.~ Y XX.X.X.XXXXXXXXXXXXX.X.XXXXX2.U N o.2.<.2.2.U 7 B.=X;Xc._ } C 2.XX2.2.XX X2..XXXXX.X.XXXXXXXXXXXXX.X.XXXXX.X.X X<.V ",
"o.+..XXXXXXX.X.XXX X+.XX.X+.| J a.{.].B.w Y XX<.<.2..XXX.XXXXX2.2.2.2.2.2.3..XXX.X X.X.X} G z.{.[.l.) } C  X.X.XXX.XC C 2..XXX2.<.2..X.XXXXX.X.X2.2..X2.2..X2.2.",
"V +.XX XXXXX.X.XXXXX.X.X.X X| ^ u./.(.v.w S <.C C 2.2.2.2.2..X.X.X.X.X.XXXXXXXXX3..X.X.X} G l.(.(.k.~ U 2..X.XXXXX2.C C C 2.2.C C 2.2.2.2.2..X.X.X.X.X.XXXXX2.+.",
"V +..X+.+.XX.X.X.XO.O.o.2.2.+.E i.c.~.k.^ P <.<.2.2.2.2.2.2..XXXXXXX.XXX.X1.3.3. X.X.X+.{ H f.c.v.p.^ { <..X.XXXXX2.+.+.V <.2.<.2.2.2.2.2.2..XXXXXXXXX.XXXXX2.+.",
"+.+.+.o.+.2.2. X+.L S m B +.3.+.Q p.u./ >.3.XXXX.XXX.XXXXXXXXXXX.XXXXX2.>.S P | .X X2.V V  .H ) e E m B V <..XXXXX.X.X2.2..XXX.X.XXX.XXXXXXXXXXXXXXXXX2.<..X X+.",
"o.+. X+.V +.V | ..s.d.' I N +..XO.' J W <.2..XXXXXXXXX.X2..X.XXX2.2.2.| W s.g.#. .+.+.+.V | R ~ i.R N <.C V 3.XXXXXX.X.X2.2..XXXXXXXXX.X.X.X.X.X2.2. X2.<.<.+.+.",
"V +.XX+.2.2.B I / Z.'.h.K n 2.XX.X{ { | <.2.3.XXXXXXXX.X2.2..X.X2.V | I / ).).h.S | XX.XB U ] m.Z.[ Y o.C B 2..X.X.X.XXX2.2..X.XXXXXXX.X<.2..X.X2.<.2. X2.V V +.",
"2.2.2.o.+.3.<.W _ ).%XM.^ b .XXX3.2.2..XXXXXXX.X.X.X.XXXXXXXXXXXXX.X+.H i.@X#XM.T { 2.XX} G M.&X*XM./ m N B o.2..X2..XXXXXXXXX.X.X.X.X.XXXXXXXXXXXXXXXXXXX2.+.+.",
"V 2.3.Q R  .3.1.#.n.m.b... ..XXX.X2..XXX.X3.2..X.X.X.X2..X.X.X.X.X X<.X.$.m.m.$...o. XXX} 7 N.=X-Xc.) { N Y W 1..X2..X.X.X.X2..X.X.X2..X.X.X.X.X.X.X.XXXXX.X+.+.",
"B +.@.[ _ ' @. X+.' ! } O.XXXXXX.X<.<.2.<.<.<.XX.X2.2.2.C 2.2.2.2.<.<. X1.^ H Y <.2.2.3.{ 7 l.].[.j.) ..Q ' d.6.<.<.<.2.<.<.<.XXXX2.2.<.C 2.2.2.2.<.<..XXX3.2.+.",
"N L ] +X<XQ.' m +. . .+.XXXXXX3.2.2.<.<.<.2..XXX.XC <.<.2.2.C 2.V <.2. X2.}  .1.<.Y H 1.| H l.(._.k.e 0 P.OX<XP.H { C <.<.2..XXX.XC <.2.2.2.C 2.V +.2.2..X.X2.V ",
"n Z i.1X6X>X) D <.2.<.<.+.+. .o.2..X2.C 2..XXXXX.XV <.<.2.<.C C B C  X X2.2.2.3.#.b.s.#.} R d.x.v.i.0 8 M.3X5XT.7 | <.2.2..X.XXX XV V 2.2.C C C V V  X X X.X+.V ",
"n G p.2X6X>X` Z 3.2.<.V | Y S  ..X.X.X.X.XXX.XXX.X<.<.V V C C C V <. X.X X2.o.} s.`.@Xs.H b H _ a.T Z 8 T.4X6XB.w  .2..XXX.XXXXX X2.C V V V V V V V .X.X X.X+.V ",
"m F u.&X;X'.) D .XXX.X<...[ h.#.| .XXXXXXXXX.X.XXX.X<.B B V +.+.2.2. X.X.XC b 6 h.Z.OXi.6 k x S Q @.} G M.*X-Xz.w  ..XXXXXXX.XXXXX X+.B B C 2.2.+. X+..X.X.X XV ",
"n F i.@X-X).~ D XXXX3.} $.N.`.n.E >..XXXXX.X2..XXXXX2.2.2.2.2..X X X2.2.C n 5 4 e _ ^ 4 @ # $ b o..X .F z.[.%Xl.w >. XXX.X.X2..XXXXX X+.2.2.2..X.X.X.X X XXX XV ",
"n F i.#X*X).~ I 3..X{ 6 h.=X:X^.i.Y o..X X2.+. X.XXXXX.XXXXXXXXX.X2.<.V n D %.j t X   . + ; * v +.+.} 7 l.].[.a.~ { 2..X.X2.<. XXXXXXXXXXXXXXXXXXXXXXX.X X X+.V ",
"n H t.).%XC.) I 2..X| 5 l.%X2X^.i.L B 2..X.X.X2..XXXXXXXXXXXXXXX<.c # o = P.Q.}.j 3 2 r 1 a < * v +.| 7 a.(.{.k.w { V 2..XXX.X2.+.XXXXXXXXXXXXXXXX.X+. X.XV V B ",
"b H u.).[.C.) I .X.X>.D d.B.{.h.( { o.2.XX.X X2.2..XXXXXXX X2.+.v * + @ -.OX9XQ.;.S.a.h &.&.a > O c m F f.c.v.p.K | +.2.XX.X X2. XXXXXXXXX X.XXX.X X XXX.X XV V ",
"n F u.).%X/.w I XX2.C B R _ h.` U +..XXX.X+.V .XXX XXXXXXX2.B c * < -.U.OXOX}.H.F.A.@Xh.h j &.a > o $ m E i.p.' { 3.XXXX X+.V .XXX XXXXXXX+.+..X.XXXXXXXXX.X XV ",
"m G y.^.[./.e S +..X+.V  ...' ..<..X2.2.2..X.X.X2.2..XXXXXV x * > 8.}.eXeX}.0.j F.A.).h.h i &.&.&.%.H v b H E  .+..X3.2..X.X.X.X2.2..XXXXX X2..XXXXX.X2. X.X.X X",
"n H t./.(.V.) I +..X.X+.+.+.N +..XXX2.<..X.XXX2.<.2. X.X2.v * > 7.r.qXyXyX|.0.7.S.L.z.S.g a s 8.=.U.D.D x n { +..X.X3.+.2..XXX2.<.2..X.XXX.X.X.XXX.X XC V XX XV ",
"n L w l.~.k.J { .XXXXXXX+.B +.+..XXX.X.X.X2.2.C 2.2.2.B n * > 8.r.0XtXfXpXqX}.q.j h h j 8.8.a s :.R.T.i % v .X.X.X.X.X.X.X3.+.+.2. X2..XXX.X.XXX.X X2. X.XXXV B ",
"B N R ` u.~ W +.XXXXXX.X| I E @. XXX.X.XXX.X2.<.2. XB c = a 8.e.0XtXfXgXaXiX+XG.j j 0.0.8.8.s s =.F.S.3 & c .XXX.XXX.X.X.X.X2.+.2. X2.2. X2. XXXXX.X X.XXXXXV B ",
"o.V { F F L o..XXXXX X| Q [ f.$.1.3.2..XXXXX.X2..X XM $ + a e.|.wXfXjXgXgXyX,XB.p.;.e.e.e.8.a d g p.i.4 @ z C .X.X.X2..XXXXX.X2.2..X.X2.<.2.2..XXXXX X.XXXXXV B ",
"o.o.V { n B +..XXXXXo.A g.A.@XM.~ U B 2.XXXX.X.X.X.XB l + 1 r.qXfXjXlXjXpX{.E.>X<XY.h q.w.8.u f p.A.).p.4 @ z N 2.<.2.2.XXXX.X.X.XXXXXXX2.XX.X2.V +.XXXXXX X XV ",
"V +.+.V C  X2.| U +.o.Y g.C.%Xm.^ { +.3.3..X.XXX2.V z * < w.qXdXlXzXxXjXpXW.T.,X5XR.e =.8.7.d S.B.'.).h.q , * l N C 2..X.X.X.X.X.X.XXX.X.X.XXX.X+.+..X.X+.+.+.2.",
"V +. X.X.X.X .Y H Y o.O.#.g.M.[ } <..X.X2.2..XXX<.c * < w.qXdXkXxXxXxXjXuXK.z.'.2X^.9 d 7.7.;.T.].C.M.J.=.d , * z C .X.X2.2..XXXXX X.X.X X.X.XXX+.+..X+.V 2.V V ",
"M +..X.X+.o.Q s.m.] } O.O.X.T ..3..X.X.X2.2..XXXN % u :.9XuXgXkXzXxXlXhXtXG.l.).%XM.9 y &.=.}.9X!.G.h =.q.8.a + * N .X.X2.2..XXXXXXXXXXX.X2.2.3..X.XXX2.2.XX+.V ",
"B V 2.2.o.Y [ N.#Xh.'  .+.B U B 2.3.2.2.2.2. X.Xn = *.Q.rXyXiXhXjXjXhXwX}.h k.^.'.x.9 y =.U.OXQ.J.q.q.h ;.=.a ; O n C 2.2.2..X.X+.+.2.+.2.2..X.X.X X2.2.+.XX XV ",
"+.+.+.+.| L d.).&XM./ P | 2.2.V <.2.C B C 2.2.2.n = -.R.3X5XrXyXsXdXwX}.j f a./._.l.e *.K.!.Q.}.9.9.q.t.e f p : O n V B C 2.2.C o.o.B o.+..X.XXX2. .N N +.2.2.+.",
"V +..XXX+.O.W _ h.[ Y <. XXXXXXX.X XC C 2..XXX.XN % @ &.U.,X3X9X7X|.7Xr.=.e a.V.~.j.y.R.!.Y.=.8.8.e.q.h 9 y > . O M B C 2..XXX.X X X X.X.X2..X.X} S Z { +. X+.V ",
"B 2. X XXXXXo.R ^ Y +..XXXXXXX.X.X.X X.X.XXXXXXXB $ * w.qXrXrX9Xr.w.w.9.0.f t.j.l.a.S.R.Q.Y.=.7.7.0.H.F.p.g , . o N 2.2..XXXXXXXXX.XXXXXXX+.o.} ] s.s.] { +.+.| ",
"V V o.<.3.XX.XO.| <.3..XXX.X2.2..XXXXXXXXXXXXXXXM k %.7XsXaXaXeXW.=.a 8.s s g t.y.h d :.Y.W.J.=.s f F.^.A.h.4 . & N .XXXXXXXXXXXXXXXXXXX X+.U Z n.'.'.s.S | o.+.",
"B V V 2.2.2.2.+.C C 2.C C 2..X.X.X.X.XC 2.2..XXXM $ %.7XuXsXuXrX!.;.1 1 s q.H.S.e j s 7.&.J.K.J.*.e h.*X*XN.8 = c C 2.2.2.2..X.XXXXXXXXX.X+.N S n.`.'.s.A | B B ",
"B V +. X2.V V V B B C C C C 2..X.X.X2.C 2.2.C 2.n $ x e.0X7X8X1X<XU.a p =.Q.Y.J.d p a 1 1 d H.Y.K.t.l.*X;XV.8 x B 2.2.2.C 2.2.C +..XXXXXXX Xo.| #.h.n.#.{ B B M ",
"B V +.+.+.o.B N m { C C C B B 2..X2..XXXXX2.<.V n = t i j p &.!.<X!.:.:.Y.!.Q.:.7.a s t , ; d H.L.t.a.&X&XB.6 A B +..XXXXX.X<.B 2..XXXXXXXXX.X3.W F S O..XV B B ",
"B B +.+.+.+.N S 7 Y N V C 2.C  X.X.XXXXXXX.X3..XB x g S.K.d =.Q.,X1X<X+X!.Y.:.&.7.a t 8 8 t a d h e a.$X%Xx.8 @ l B .XXXXX.X2..XXXXXXXXX.X2. .' Z x { +.XX X+.V ",
"V V +. X Xo.W [ F.] { B 2. X X<. .2.+.+.B <..XXX>.x ! G.W.H.J.U.Q.{.!.>XQ.J.0.s a u g i.p.h t > t h k.^.N.d.6 = l B  XXXXX.X.XXXXXXXXX.X<.{ #.D.[ R { +.XX.Xo.{ ",
"+.V +.XX+.} b.+X3XT.' | +..X3.R H  .| v * n .X2.n % t d :.W.W.:.=.&.;.-.:.Y.J.j t y p.A.`.h.4 X t h L.v.d.R o.C B <..XXX2.2..X.X.XXXXX2.m K I.1X<XP.A | .X+.L 5 ",
"m B V M b 6 h.,XrX`.s.Y B  .#.b.m.$.I l % N .X.X<.v * > u H.K.H.=.u 1 > j R.W.;.t 4 k.*X*XM.8 X u K.L.S.7 b 2.C V  XXX.X.XXXXX.X.XXXXX2.U ~ N.6X5XT.F | .XU #.I.",
"Z U V c @ 2 j.*X6X_.d.{ N Y ` A.#Xh.G x n 2.XX.X2.<.z O ; u *.K.H.d : : d W.W.H.r 8 j.;X;XV.9 2 p G.G.g = v .X.X+.XX X2..X.X.X.X.X.XXX2.} _ C.6X4XC.7 } +.H Q.1X",
"8 T o.c # 2 j.$X:XC.i.{ B } _ A.$Xz.^ v <..XXX<.<.<.<.v o   , K.W.;.1 : u H.J.H.f e a.%X&Xx.8 r p h g t x B 2..XXX.XV B V  .| >.<.2..X<.{ ) x.-X&XN.F N  .w `.6X",
"4 T +.B b 6 h.$X:XC._ U V O.#.b.h.] Y N <.2.2.C o.<.2.B z o @ G.K.;.> ; > t j ;.S.t.a.#X[.x.9 r , , = x >.2. XXXXX+.V B U H E { V 2.2.<.U w l.$X].h.H |  .e E.4X",
"6 R  XC { S h.[.;XC.i.A |  X+.W G U V 2.C <.2.<.C  X2. XC z 5 *.S.y ; - ; - t j S.y.k._.[.x.e r   o k N o.O.O..X XM n U J [ h.T | +.2.+.N J f.C.N.s.Y o.X.w B.-X",
"8 H V C m H h.].&X^.i.x M +. XO.<.2.2.2.2..X.XXXXX.X.XXX.XC >.i f t . - > ; > t y e j.].[.c.9 X o k M B U S H O.2.$ + 4 h.A.@Xd.E >.2..X.XO.#.p._ ' .XV L w x.&X",
"F Y 2.C N P _ N.^.h.' { B o. X.X.XXX.X2.2.2.XXXXXXXXXX.X X X<.I u = O + ; - - - X 3 t.C.V.d.7 = $ M N { ] d.n.$.U % @ 8 B.-X;Xl./ { .XXX.X2. .' H {  X+.{ F h.C.",
"M o..X.X2. .Y ` a.' U +.V V  XXXXX.X.X.X2.<.<.2..X.X.X.XC 2.3.<.N v z * ; + ; - . @ 3 p.d.T m M M C | S n.'.@Xh.Z b x w V.=X-Xc./ } 3..X+.2.+.{ N B +. X| N ' p.",
"+.+.+.XXXX.Xo.W H } B o.B +..X.X.X2..X.X4.N z z n V 2.XXXXXXXX.X.X.X2.v & & # $ # # % 5 W 3.2.2.2.C N A b.A.'.d.S o.o...f.B.V._ R o.2.XXXXXXXX.X.X.XXXXX.X+.} S ",
"+.+.2..XXX.X.Xo. .+.+.+.+. XXXXX.X2..X.XC v O o $ M <..X3..X.X.X.X.X3.o.N n n N M n N U | 2.2..XXX.XC >.' s.b.#.X.<.2.O.' _ i.Q  .2.2..X.X.X.XXXXX.X XXXXX.Xo.m ",
"B |  .+.3..X.X.X.XXXXXXXXXXXXXXX.X2.2.2.N l + + & n C 2.C <.<.2.2.+.+..XXX.X.XXX.X.XXX.X<.N B <.XXXXXX3.Y D S O..X+.+.2.N D H O.XX2.2.<.o.+.+.+.+.+.o..XXX X+.+.",
"N H ^ Y 2.XX.X2..X.XXXXXXXXX.X X2.2.C C B B N B B N C 2.2.2.<.<.V o.2.2..X.X.X.X.X.X3.XXN % & n 2..X@.E F I O.2.2.2.+.+.| | O.XX.X<.<.<.+.+.o.o.o.+.+.+..X.X+.V ",
"' s.m.[ X.o.+.+.2..X2.2..X.X.X2.2.4.2.2.2. X.XXX XV C C  XC C C B <..X2.2. X X X.X.X X.XB l # $ v U #.D.D.6.+.3.2. X2.2.2. X.XXX XC C C V v z z v B +..X X X+.V ",
"p.Z.&XN./ A | .X3.<.<.V 2..X.X.XXXXX.X XXXXXXXXX.XV V V V V C C B +..X.X X X X.X X.X.XXXC M k # + 5 D.1X<XI.I | .XXX.X.XXX.XXXXX.XC C B n #   + $ n  X.X.X+.+.V ",
"_ N.$Xh.G b B +.XXN v N 2..X2..XXXXXXXXXXXXXXXXXXX.XC V V V 2.2.2.2.2. X.X.XXXXX.X.X.X XV B n k @ 8 N.6X5XE.q } XXXXXX.XXXXX.XXXXX.XC B n $ O O k N +. X.X.X X+.",
"J [ m.] ..B V +.<.z $ n 2.XX.X.XXXXXXXXX.X.X+..XXXXX.XC V  X X.X.X.X.X X.X.XXXXX.X.X.X X XC V M x 0 x.4X4XA.q } XXXXXXXX.X2.C .XXXXX XC B n v v B +..X X XXX+.+.",
"N L H O. X.X+.| v & * c <.XXXXXXXX.X.X.X XC V .X.XXXXXXXXXXXXXXXXXXXXX.X2.2..X.X.X.X.XXXXX.X.X X1.~ h.&X%XN.! } XX.X.X X<.{ m 2.XXXX.X.X.XXX.XXXXXXXXX.X X.X+.V ",
"B | { +..X+.B v O l n N 2.XXXX.X X X2.2..XXX.XC  XXXXXXXXXXXXXXXXX.X2..X.X2.+.+.2..X.XXX.X2..X.X>.~ a.$X].x.7 {  X2.2.<.U H ^ } 2.XXXXXXXXXXXXXXXX.X+. X X+.B B ",
"B +. XXX X+.N c % N 2.C  X.X.X X2.2.2. XXXXX.X2. X.XXXXX.X.X X.X.X.X X.XXX2.2.2..X.X.XXX.XC  X2.| ~ a.].].l.7 U 2.2.<.>.6.I.I.' { .X.XXXXX X XXXXX.X X.X.X XV B ",
"+.2.XXXX.X+.o.B V V V +.C 2.+.+.2..XXXXX.XC V XX.X.XXXXXXX X+..X.XXXXXXXXX.XXXXX.X.XXXXX.X2.2.+. .~ k.(.(.l.q Y 2..X{ H I.1X3XD.K N .XXXXX2.2..X.X.XXXXXXX.X XV ",
"V +..X.X X2.2.+.2.2.+.+.2..X2.2..X.X X2. X X.XXX X2..XXX.X X X.XXXXX.X X+.XXXXXX.X.X.X.X X2.2.+.o.W _ x.l.f.R  . X.Xm G E.5X6Xx.~ m 2.XXXX X2..XXXXX.X2. X.X.X X",
"V +.+. X X XXX.X2.XX X2. XXXXX.X.X.X2.+. X.XXX X2.C .XXXXX.X.X.XXXXX+.V V XXXXXX X2. X3.2..XXX.X2.| W _ w T o.2..XXXP q C.4X4Xx.~ m <.XXXX.X XXXXX.X XV V XX XV ",
"B +.+. X.XXXXXXXXXXXXXXX+.2.XX.X.XXXXX X X X2.C C  X X.XXX.X.X.X.X X X XXXXX X X X2.2.2..XXXXXXXXXXX..5 5 b .XXX.XXXU G N.&X&Xl./ m <..XXX.X.XXX.X X X X.XXXV B ",
"B V +.+.2.XX.X.XXXXXXX X2.2.XXXX.XXX.X.X.X.X2.V .X.X+.2. X2. XXXXXXX+. XXXXX+.V  X2.+.<.2..X.X.XXXXX| + O v .XXXXXXXU G x.[.'.k.~ { o.3. X2.2.XXXX.X X XXXXXV B ",
"V V V V +.2.2. XXXXX X+.+..XXXXX.X X X XXXXX.X2. X.X X2.V +. X.XXXXX.X.XXXXX2.2..X2.o.V <.2.2. XXX.XN o o v  XXXXX.XU G x.(.{.k./ | +.2.+.<.2.XXXXXX.X.XXXXXV B ",
"+.+.V +.C V 2. XXX.X.X X+. X.X X2.2.+.2.XXXX.X.X.XXXXX.X.X.X.X XV +.XXXXXX.X.XXXXX2.B +.<.C 2..X.X.XN o o x 2. X<.<.P 7 l.(./.k.~ { .XXX3..X.X2.+.+.XXXXXX X+.V ",
"B B V V 2.V +.+.V V +.+.+.+.+.+.<.o.+.<.2.2.2. X2.2..X X2. X XC B B  XV V V 2.2.2.<.V V <.<.+.+.2.+.M l $ % b B <.<.| S _ j.l.` R B +.2.2.2. X2.B B +.+.V V V V ",
"M M V V V 2.V B V B B V V V V V <.+.+.+.B B V C 2.V V V V V V 2.B B V B M B B +.V V V V <.<.B B B B N n k o # c <.+.V | G t.a.H N B V o.V V <.<.B B V B M B M M "
};
