/* XPM */
static char *Group_10_26__resized[] = {
/* columns rows colors chars-per-pixel */
"80 80 234 2 ",
"   c #1B181B",
".  c #251919",
"X  c #251C1E",
"o  c #391A15",
"O  c #1C2715",
"+  c #1D3414",
"@  c #242B17",
"#  c #25231B",
"$  c #2A251E",
"%  c #242C19",
"&  c #2A2A1C",
"*  c #362A19",
"=  c #233A15",
"-  c #2B3D16",
";  c #263618",
":  c #2B341C",
">  c #35391B",
",  c #281B22",
"<  c #2C1F35",
"1  c #2D2124",
"2  c #282427",
"3  c #2D252C",
"4  c #322425",
"5  c #372629",
"6  c #35292D",
"7  c #3C2C2D",
"8  c #3D312D",
"9  c #372A37",
"0  c #3D2E33",
"q  c #3E3031",
"w  c #3E323B",
"e  c #411E1C",
"r  c #452817",
"t  c #493A19",
"y  c #563015",
"u  c #662B1F",
"i  c #683718",
"p  c #773A19",
"a  c #452C28",
"s  c #492E2F",
"d  c #42312F",
"f  c #4A3329",
"g  c #543727",
"h  c #5C362C",
"j  c #443131",
"k  c #4B3432",
"l  c #4A3A35",
"z  c #43343A",
"x  c #4B3B3C",
"c  c #523832",
"v  c #593B32",
"b  c #523D3A",
"n  c #653828",
"m  c #6D3D2C",
"M  c #2D431A",
"N  c #2B4B18",
"B  c #3C4718",
"V  c #2E5218",
"C  c #375217",
"Z  c #32541A",
"A  c #3B5419",
"S  c #345A1A",
"D  c #3C5B1A",
"F  c #36631B",
"G  c #3B651C",
"H  c #3D6D1D",
"J  c #3F711F",
"K  c #3B4121",
"L  c #3F7220",
"P  c #4B4A16",
"I  c #574516",
"U  c #524C16",
"Y  c #5B4C16",
"T  c #465218",
"R  c #4C5519",
"E  c #435C1A",
"W  c #4B5C1A",
"Q  c #535418",
"!  c #585418",
"~  c #535D1A",
"^  c #5B5A1A",
"/  c #6E4109",
"(  c #644315",
")  c #644C17",
"_  c #6B4D16",
"`  c #774415",
"'  c #724D16",
"]  c #7B4C16",
"[  c #6C5317",
"{  c #685618",
"}  c #635C19",
"|  c #755217",
" . c #7B5717",
".. c #7C5416",
"X. c #735B18",
"o. c #7A5B18",
"O. c #44641C",
"+. c #4B641B",
"@. c #436C1D",
"#. c #4A6B1D",
"$. c #53651B",
"%. c #5C621B",
"&. c #566A1D",
"*. c #41741F",
"=. c #4A741F",
"-. c #43781F",
";. c #4B791F",
":. c #52701E",
">. c #65631A",
",. c #73611A",
"<. c #584436",
"1. c #574E31",
"2. c #5B453B",
"3. c #6B452C",
"4. c #77462A",
"5. c #775E29",
"6. c #694934",
"7. c #644A3A",
"8. c #754B33",
"9. c #784833",
"0. c #6A5333",
"q. c #7B5536",
"w. c #427620",
"e. c #497620",
"r. c #457C21",
"t. c #497D21",
"y. c #4F732B",
"u. c #676B37",
"i. c #463840",
"p. c #5B4846",
"a. c #584950",
"s. c #614E4A",
"d. c #665248",
"f. c #6B554D",
"g. c #755C44",
"h. c #715D4C",
"j. c #6B5553",
"k. c #725D54",
"l. c #78644B",
"z. c #7B6B4C",
"x. c #7B6856",
"c. c #786866",
"v. c #8C490F",
"b. c #894919",
"n. c #825216",
"m. c #8E5417",
"M. c #8B5A17",
"N. c #825D18",
"B. c #8A5D18",
"V. c #955617",
"C. c #9A5917",
"Z. c #A35C06",
"A. c #A45E18",
"S. c #8D6017",
"D. c #966418",
"F. c #A56418",
"G. c #AA6318",
"H. c #A66818",
"J. c #AC6B19",
"K. c #B56A18",
"L. c #B47219",
"P. c #BA731A",
"I. c #BC781A",
"U. c #8D4C27",
"Y. c #835B2C",
"T. c #864A34",
"R. c #865935",
"E. c #955B34",
"W. c #9B5E35",
"Q. c #AD5D28",
"!. c #8A6438",
"~. c #946535",
"^. c #936E33",
"/. c #9A6A36",
"(. c #A66B36",
"). c #B26B36",
"_. c #B96D35",
"`. c #AA7434",
"'. c #A87438",
"]. c #B47B36",
"[. c #BA7E36",
"{. c #C47C1A",
"}. c #C97B19",
"|. c #C87130",
" X c #846849",
".X c #977649",
"XX c #856C50",
"oX c #877756",
"OX c #A87E44",
"+X c #887366",
"@X c #478022",
"#X c #498423",
"$X c #4C8A24",
"%X c #4F8128",
"&X c #B88A3C",
"*X c #CD8413",
"=X c #CC841B",
"-X c #D4871C",
";X c #D38C1C",
":X c #DB931C",
">X c #C48434",
",X c #D18D35",
"<X c #D99435",
"1X c #E49834",
"2X c #DFA33C",
"3X c #968855",
"4X c #A78448",
"5X c #B68B42",
"6X c #BA9655",
"7X c #B5A554",
"8X c #988963",
"9X c #A89D68",
"0X c #B4AC6C",
"qX c #C39747",
"wX c #CAA44C",
"eX c #CEA851",
"rX c #D6B558",
"tX c #E2BA4D",
"yX c #C8B36C",
"uX c #C5B86D",
"iX c #EACB58",
"pX c #D0CA74",
"aX c #EAD66D",
"sX c #F2E273",
"dX c #DAD692",
"fX c #E2DE8D",
"gX c #F2EC90",
"hX c #DBDDA1",
"jX c #F9F9A9",
"kX c #FCFBBB",
"lX c #F9F9CA",
"zX c #FCFDD6",
"xX c #FEFFEB",
"cX c #FFFFF6",
/* pixels */
"V F *.H J J J J -.H H -.-.J -.J L L w.-.H H J r.r.-.-.-.H L H J J -.w.J J r.-.G F H -.H H -.J J -.H H J w.w.w.-.J J -.-.H H J -.w.w.w.w.J H H J J -.w.J J -.H S ",
"G H J *.w.w.J J J J J r.-.-.-.J L w.-.J H J w.w.J J J J L w.w.r.r.w.-.H J r.@Xr.w.w.J J *.-.J J J J -.-.w.w.w.J J w.J J J J J -.L L J J J w.r.r.r.w.J J J r.J J ",
"-.-.-.-.@Xr.L H J J -.@Xr.r.r.w.L r.L H J r.r.w.L L H J L @X$X$X$X@X-.J J @X#X$X$Xr.w.r.r.r.J J J -.-.@Xr.r.r.w.w.r.L J J w.r.w.L L H L w.@X$X$X#X@X-.H J @X-.-.",
"*.-.#X$X#X@Xw.w.-.-.-.@X#X#X$X$X#X#XL L r.@X$X@X@X@X@X@X#X#X#X#X#X#Xr.w.-.@X@X@X#X#X#X#X#X@Xw.w.-.J -.@X#X$X%X$X#X@Xw.J @X@X$X$X@X@X@X#X#X@X@X#X#X#X#Xw.-.@X-.J ",
"J -.t.@X#X$X#X@X@Xr.r.@X$X$X#X#X#X#X@X#X$X$X$X$X$X$X$X$X#X@Xr.r.r.r.#X#Xr.@X@X#X#X@X@X@X$X$X@X@X@Xr.r.#X$X$X$X$X#X$X@X@X$X$X$X$X$X#X$X$X$Xr.r.r.r.r.#X#Xr.@X-.J ",
"J *.-.-.@X$X$X#X#X#X#X#X$X$Xr.@X@X$X$X$X$X$X$X$X$X$X$X#X@Xr.r.w.L w.#X$X#Xr.@X$X#Xr.w.w.@X$X$X$X$X#X#X%X$X$Xr.r.@X$X$X$X$X$X$X$X$X$X$X$X#Xr.r.w.J w.#X$X#Xr.r.L ",
"H *.*.-.r.r.r.r.r.w.w.w.w.r.#X#X#X#X@Xw.w.r.r.#X#X$X$X$X#Xr.-.w.H H r.$X$Xr.w.w.r.w.w.r.r.r.r.@Xr.w.y.u.y.r.#X#X$X#X@Xw.r.r.@X@X#X$X$X#X#Xe.w.r.H J t.$X$Xr.J G ",
"H H *.-.r.-.-.w.L L J L L L r.#X$X@Xr.r.w.r.w.-.r.$X$X$X#X#X@X@Xe.r.#X$X$Xw.J w.r.w.w.r.r.w.L L H D ^ Y.0.W w.r.#X@Xr.r.w.w.r.w.r.$X$X$X$X@X@X#Xr.w.#X$X#Xw.G G ",
"H J -.@Xr.J J L J J J L J J H w.@X@X#X$X$X@X-.J -.#X$X$X$X$X$X$X#X#X$X$X#XL w.r.r.e.w.r.r.J J H V P / Z.v.y C H #Xr.#X$X$X@XL L w.$X$X$X$X$X$X$X#X#X$X$X#XJ H H ",
"H J -.r.r.w.J J J L J J w.r.r.@X#X#X#X$X$X#X@X#X#X$X$X$X$X#X$X#Xw.L w.@Xr.w.w.#Xr.w.-.r.r.w.L G C ( C.*XK.] P H $X#X$X$X$X#X@X@X$X$X$X$X#X#X#X#Xr.w.w.@X$X@Xw.-.",
"H J w.@X@X@XL L w.r.r.r.r.@X#X$X$X#X$X$X$X#X#X#X$X$X$X#X-.t.#X#Xw.G L w.e.~ #.r.@Xw.-.r.#X@Xw.H G { D.I.H.o.W t.$X@X$X$X#X#X#X$X$X$X$X#Xr.r.#X#XL H J @X#X#Xr.-.",
"*.-.w.$X$X$X@Xw.@X#X$X$X#X@X$X$X$X#X#X$X@X@X#X@X#X$X$X#X*.#X$X$Xw.H J w.&.` _ #.#Xr.w.$X$X$Xr.w.-.=.>./ Y #.#X$X$X@X$X$Xr.@X$Xr.#X$X$X#Xw.t.$X$XL H J @X$Xw.J -.",
"J J J @X$X$X$X@Xw.w.#X$X#Xr.$X@Xr.#X$X#X#X#X$X#X#X$X$X$X#X$X$X$X#Xw.O.^ S.I.J.o.+.@.w.@X#X$X$X@X-.-.@.~ O.*.$X#Xr.#X$X#X$X$X$X#X#X$X$X#X#X#X$X$X#X@X#X$X$X@XJ J ",
"H J -.-.#X$X$X#Xw.w.r.$X@Xr.#X@X-.t.r.w.#X$X$X#X#X$X$X$X$X$X$X$X$Xr.O.[ A.;X{.m.P G r.r.#X$X#Xe.G H -.-.w.r.#Xr.r.$X@Xr.#X$X$X@X#X$X$X$X$X$X$X$X$X#X$X$X#X@Xr.J ",
"-.-.#X$X$X$X#X#X$Xr.@X#X@Xr.@X$Xt.T A G r.#X$Xw.-.r.#X#X#X$X#X@Xr.w.@.Q ..I.F.[ +.-.r.$X$X#XO.E E @.-.#X@Xr.@X$X$X@XL L r.$X$Xw.w.r.#X#X$X$X$X@Xr.r.@Xr.@X@X@X-.",
"*.-.#X#X#X$X$X#X$X$X#X@X#X@X@Xe.%.n._ R @.w.w.w.J r.r.r.w.@X#X#X#Xr.r.e.%. .X.&.=.@X$Xr.r.t.} | X.&.-.@X#X@X#X$X$Xr.L L L r.@XL L r.r.r.r.r.#X#X#X@X#X#X#X#X@X-.",
"J -.#Xr.r.$X#X#X$X$X@Xr.r.r.r.~ o.L.G.' E H w.w.r.r.r.r.w.r.#X$X$X#X$X#Xe.T O.@X@X#X#Xw.O.~ D.K.G.X.O.J r.@X$X$X$Xr.-.-.J w.w.w.r.r.r.r.w.r.#X$X#X$X$X$X$X$X@X-.",
"-.-.w.J -.r.r.r.@Xr.L L L L O.) C.;X-XD.I O.$X$X$X#X#X$X$X$X$X$X$X$X$Xr.w.t.#X$X#X@Xw.H T I K.;X*Xn.P H H w.@X$X$X#X@Xr.@X@X$X$X#X$X#X$X$X$X$X$X$X$X$Xr.r.@X@XJ ",
"*.r.@Xw.w.w.r.r.r.L w.r.L H @.^ N.L.H.o.W L %X$X$X$X$X$X@X#X#X$Xr.r.@Xr.w.w.#X$X#X#Xr.w.D Q B.G.H.{ T =.J J t.$X$X$X#X#Xr.@X#X$X$X$X$X#X#X#X#X$Xr.w.@Xw.L r.-.-.",
"J -.#X#Xr.r.r.r.w.r.r.@XL L r.r.$.] _ W w.r.@X#X$X$X$X#Xw.r.#X#Xw.w.r.r.r.*.r.$X@X#X$Xt.r.*.! _ _ +.J @X-.J @X#X$X#X#X$Xr.r.@X$X$X$X$X#Xw.r.#X#X-.-.@X@Xr.J J -.",
"w.r.#X#X$X$X#Xr.r.w.L L H w.$X@Xw.W +.t.#X$X#X#X@X#X#X$X$X$X$X$X$X$X$X$X#Xr.#X$X$X#X#X$X$X$X=.+.#.*.J J H -.$X$X#X@X#X$X$X$X$X@X@X#X#X$X$X$X$X$X$X$X$X$X$Xr.-.J ",
"-.r.#X$X#X$X#X$X$X$Xr.r.r.@X$X$Xr.G L @X#Xt.r.#X#X@X@X@X#X#X#X#X#X#X$X$X$X#X#X$X#X#X#X#X$X$X-.J -.-.#X-.r.@X$X$X#Xr.@X#X#X@X@X#X#X@X#X@X#X#X#X$X#X$X#X$X$Xt.r.=.",
"J r.$X#X#X#X#X#X$X$X$X$X$X$X$X$X#Xw.r.r.w.L w.$X$X@Xr.r.L w.r.r.w.w.-.#X$X#X#X$X#X#X#X#X@X;.@.#.#.#X$X$X$X$X$X$X#Xw.w.@Xr.w.w.$X$X@X@Xw.L w.r.r.r.-.-.#X$X#Xr.-.",
"-.-.r.#X#X$X#Xr.r.$X$X$X$X$X$X@Xr.r.w.w.w.r.#X$X#XL w.w.r.r.r.L w.w.r.t.@X#X@X#X#X#Xr.#X#X#X} ] | :.;.#X$X$X$Xr.r.w.w.w.w.w.#X$X#XL w.w.r.r.w.w.*.*.r.r.#X#Xw.J ",
"*.-.#X#X#X#Xr.r.r.@Xr.r.#X$X#Xr.r.#Xr.w.r.#X#X$X#XJ w.w.r.L L L H w.#X@Xr.#X@X@X#X#X@X#X=.%.D.K.J.{ W *.@X$X$X-.r.@Xr.w.r.#X#X$X@XL L w.r.w.L L J J @X@X@X@X-.J ",
"H r.$X#Xr.J w.@X@X@Xw.L r.$X#Xt.#X$X#X#X$X$X$X$X#Xw.w.J J J J L H G J @.J J e.r.*.-.-.-.T i J.;X=Xn.I G -.$X#X#X#X$X#X#X$X$X$X$X#Xr.J J J L J J J -.#X#X@X@X-.J ",
"-.r.#Xr.w.J H -.$X$X$X#X$X#X@X#X$X$X$X$X$X$X#X$X$X#Xw.H J J w.w.F N + = + + - B M M + = @ o v.F.D.>.=.t.#X$X@X@X$X$X$X$X$X$X$X$X#X#Xw.J J L w.r.r.r.-.@X#X#X@X-.",
"*.r.#X#Xr.w.-.@X$X$X#X#X$X$X@X#X$X$X$X$X#X@X@X#X$X$X@Xw.L @X@XJ O.B & # & t t g g t > #     y i Y #.-.$X-.-.*.@X$X$X$X$X#X#Xr.t.$X$X@Xw.w.r.@X#X#X@X#X#X#X#X-.-.",
"J -.#X$X$X$X#X$X$X#Xr.w.r.#X#X$X$X#X#X#X@Xw.w.@X#X$X#X$X$X$XL S ! 5.R.v 1.^.!.q.!.~.5.d 2 2 , o * B @.*.O.T O.;.$X@X@X@X#Xw.w.@X#X$X$X$X$X$X$X$X$X$X$X#Xr.@X-.J ",
"H -.#X$X#Xr.#X#X#X#Xr.w.w.r.r.@X#Xr.w.r.$X$X#Xw.r.$X$X$X$XL V : 0.5XqXOX.XqX4X X.X5X5X!.d.7.k r r f P D }  .| &.w.@Xr.w.#X$X#Xr.@X$X$X$X$X#X$X$X$X#X@X@X@X-.J H ",
"H -.#X#X@X-.r.#X#X@Xr.L #.W ~ #.r.r.r.r.$X$X@Xr.@X#X$X$Xw.Z : 7 g.6XyXyXyXqX.Xl.XX4XqX5X&X'./.Y.3.h g I B.K.G.[ E w.r.@X$X#X@Xr.@X#X$X$X$X#X#X$X#X#Xr.#X$X@XJ J ",
"-.r.#Xt.t.-.r.@X$Xr.L w.! _ ` ~ w.t.$X$X@Xw.J #X$X@X$Xw.S : q s.k.+X0XiXrXXXf.s.s.g..XwX2X,X1X,X'.7.s p J.;X=Xn.P t.$X$X@Xw.J $X#X#X$X$X$X-.-.#X#X$X$X$X$X#X-.-.",
"*.w.e.Q R H r.#X#Xr.@.P M.L.L.N.Q =.r.r.r.@X#X#X@Xr.L Z : f s.x.c.+X6XrXqXh.s.s.s.j. XOXOX/.>X,X5X7.k n U.K.S.>.#.;.#X-.#X#X#X#X@Xw.$X$X$Xr.r.#X$X$X#Xr.r.#X@X@X",
"G @.$.' ' ^ =.t.r.@X#.I D.-X-XM.U =.w.w.@X$X$Xr.L G Z - 7 p.k.c.+X+XwXtXeX.Xk.s.s.d.j.f.d.p./.>X].7.w s n ` ! +.@X#X-.-.-.$X$X-.r.w.@X$X$X#X#X#X$X#X@Xw.-.$X@XJ ",
"S U n.I.I.M.~ @.#X$Xr.+.o.A.G.X.E t.#Xr.#X#Xr.L F N : l p.f.f.s.+X0XaXsXtXwX.Xh.a.a.a.p.z i.~.>X[.0.z q a r A @.#X$X#X#X#X#X-.-.w.#Xr.#X$X#X#X$X#X@Xr.@X#X$XJ J ",
"C U m.=X}.V.U H $X$X#Xw.^ [ { &.t.#X#X#X#X#Xr.L V + 4 x f.f.d.l.9XfXjXgXsXtX5X.X X Xd.x 9 z ~.>X[.7.9 0 5 1 ; F -.#X$X#X#X#Xr.-.r.#Xr.r.@Xr.@X$X$X#X@X@X$X$XJ F ",
"S T | J.J...Q H $X$X#Xw.G D E e.$X#X@X@X$X$X@Xe.N O 7 p.j.j.z.9XdXkXlXjXaXwX5X5XqXOX!.2.w z ^.>X].7.6 0 7 3 % N G r.t.#X$X$X#Xr.@X#X@Xw.w.w.r.#X#X$X#X#X#X$XJ H ",
"-.@.+.( I W =.@X#X#X#X#Xw.r.t.r.w.w.w.r.$X$X#Xw.D K 1.g.XXXX9XfXlXxXxXjXpXXX.X5X2X,X(.q.2.s./.].(.6.d q j 8 5 # = G -.r.$X$X#X#X#X$X$X$X#X#X$Xr.-.-.#X$X$X#X@XJ ",
"-.-.*.W O.*.r.@Xr.r.r.#X@X#X@X@Xr.@X@X@X#Xr.e.W u.3X7XwXqXuXdXlXcXcXxXjXpXx.f. X^././.`.`.`./.~.~.R.9.j q q 5 # ; H r.#X#X#X#X#X#X#X$X#X@X#X$X#X-.-.#X@X@X-.-.r.",
"H -.#X-.@X$X@X@Xr.r.w.#X#X@X@X#X$X#X$X$Xw.L G t !.uXpXiXiXsXjXzXcXcXlXgX0X Xs.b x <.R.].1X<X(.q.8.E.E.n k 0 4 % - -.$X#Xr.r.#X$X$X@X#X@X#X#X#X$Xr.-.@Xr.J -.J J ",
"F @.#Xr.#X#X#X#X#Xr.r.#X#X#X#X#X#X#X$X$Xr.w.D * <.3X3X4X&XiXgXkXzXlXhX9Xl.d.p.i.i.x 2.R.&X1X`.0.j 3.E.W.8.j , O = e.$X#Xr.@X#X$X$X#X$X$X@Xr.r.@X#X$X#X@X@X$X-.J ",
"H J r.r.r.@Xr.w.r.w.r.#Xe.w.@.w.r.@Xr.w.w.L S % 5 2.2.2.q.&XrXpXgXgXyXl.z b k k z x p.q.`.>X~.h 9 f 8.W.E.8.7 # = J @Xw.w.r.@X#Xr.w.r.r.w.@X#X#X#X#Xr.w.r.#X@X-.",
"-.-.-.r.@Xr.J J -.w.w.t.O.T T O.L w.L H J J S % X 7 9 0 <.0.^.3XrXtX5X2.< z v u h v 7.~.(.Y.6.d 3 6 c 8.W.E.3.* + H L J L w.r.L w.L L H w.@X$X$X$X@XJ J J @X-.-.",
"J -.#X$X#Xr.-.-.w.-.J @.} ] n.%.w.r.w.L r.w.F % X 7 p.h.z.z.d.2.5.`.`.q.b v 4.U.p 3.q.`.~.<.7 6 7 0 0 j q.W.4.* + G L L @X#X$X#X@Xr.#X#X#X#X@X#X#X#X@X-.-.@X-.J ",
"H w.r.#X#X$X#X@X@X@XH R B.L.I.o.R -.@X@X#X@XG % . 5 l.9XuX0X3X<.c 3./.'.E.4.V.K.G.U.m U.8.8 6 0 d d 7 6 v 3.h * + L @X@X$X$X$X$X#X$X$X$X#Xr.r.r.r.r.$X#Xr.@XL J ",
"J -.w.w.@X$X$X$X#X@XO.I D.-X-XV.Y =.#X$X$X@XG %   1 z.uXgXfX0Xg.z x !.>X|.b.A.=X}.C.u s q 8 7 d d d 7 0 7 4 $ @ N r.$X$X$X$X$X$X$X$X$X$X#Xr.r.r.J L #X$X$Xr.w.-.",
"J H J r.r.r.r.r.r.L @.E  .C.F.,.#.r.@X-.w.J S @   6 s.x.8X8XoXd.z x !.>X>X4.` V.K.Q.U.s 6 0 d d d j 7 6 < X % Z w.@X@XL r.@X@X#X$X$X$X$X#Xr.w.w.H H r.$X$Xr.J G ",
"H J w.@Xr.w.L w.J J J J R ( ( &.@Xr.r.w.r.J S ; 2 6 K 1.1.p.p.b w b R.|.].6.h b.Q.|.E.s 6 0 d d j 7 5 5 , O = G #X#Xr.r.w.L r.L r.#X$X$X#X#X@Xt.r.r.#X$X$XL G F ",
"H *.-.-.w.*.J J J J L J G C C @.@X@X#X$X#X@XH V ; 2 4 5 5 7 a j 0 k R.).(.b h U.|.|./.l 6 0 j j 7 7 r y o # ; G #Xr.#X$X$X@Xw.J w.#X$X$X$X$X$X$X$Xt.$X$X#XJ G J ",
"H H -.-.r.w.J J H L L J J *.*.r.#X#X#X$X$X#Xr.r.G M & 1 7 7 j j 3 7 9.).).8.9.E._.).E.m s 7 6 7 7 a p b.p y - G $X#X$X$X$X#Xr.@X$X$X$X$X#X#X#X#Xr.w.w.#X#X#Xr.w.",
"J J -.;.#X#X-.J w.r.w.w.r.#X#X#X$X#X#X$X#X@X$X$X-.H - 4 5 8 d 8 6 0 8.(._.W.R.R.9.9.T.T.m 7 5 1 e u V.}.G.] P @.$X#X#X$X$X#X#X$X$X$X$X#Xr.r.#X#XL H L r.#X#Xr.-.",
"-.-.-.#X$X$Xr.r.@X$X$X$X#X#X$X$X#X#X$X$X@X@X#X@X@X@XF M $ 5 8 6 7 c 9.W._._.R.c 3 9 v T.T.h 5 1 e p A.-XI.m.T w.$X@X$X$Xr.@X#X@X#X$X$X#Xw.#X$X$Xw.G L #X$Xw.*.-.",
"J J -.@X#X$X$Xr.w.w.#X$Xt.r.$X#Xr.#X$X#X#X$X#X#X#X$X@XG M 4 , , f m T.9.3.3.h 7 3 3 a v 9.T.n 4 . e ` G.M.>.e.e.r.#X$X#X#X$X$X#X#X$X$X$X#X#X$X$X#X@X#X$X$Xr.w.H ",
"H J -.@X#X$X$X#Xw.w.r.$X@Xr.$Xr.r.#X#Xr.$X$X$X#X#X$X$Xr.F M % O g 4.9.g 1 4 4 4 1 1 , 4 h T.n > O & r ` ! @.$Xr.r.#X#Xr.$X$X$X#X@X$X$X$X$X$X#Xe.r.#X$X$X#Xt.w.w.",
"J -.#X#X$X$X#X#X$Xr.r.#X@X@X#X#X$X#Xw.H r.$X$Xr.-.r.#X#Xw.G S S > t a 4     X X X X X   1 f t A G S C E @.r.t.$X$X#Xw.H r.#X$Xw.w.r.@X#X#X#X#.P E e.r.r.r.#Xr.w.",
"J -.$X@X#X$X-.*.w.@X#X@X#X#X#X$X$Xw.L L w.r.r.w.J w.r.r.w.w.L r.D B & & ; % % ; : ; @   o : A *.t.r.-.*.t.t.#X$X#Xr.L L w.r.r.w.w.w.r.w.@.$.X.M.X.~ w.t.$X#Xw.D ",
"J r.$Xw.-.%X#.R Q e.@Xw.r.#X$X$X$Xr.w.w.w.w.w.w.w.r.r.r.w.r.#X$Xr.F N N Z Z S Z S V > r r N H #X#X$X#Xr.r.#X#X$X$Xr.w.w.J J *.w.w.r.@XL D ) C.=XF.[ +.-.$X@XW U ",
"-.w.w.J J w.} n.m.! G H L L #X$X$X#X#Xr.r.@X#X$X$X$X#X#X$X$X$X$X#X#Xr.w.L w.@X@X#X@.! v...W *.-.#Xw.L L J w.#X$X$X#X@Xr.J *.*.#X$X$X#Xr.E ' K.:XP.n.W H *.+.X.C.",
"J r.r.w.G P S.P.{.n.U @.H L @X#X$X$X#X#Xr.@X#X$X$X$X$X$X@X#X#X#Xt.r.#Xr.w.w.#X$X@.} B.=XL.X.W @.r.w.w.r.w.J @X#X$X#X$Xt.W P Q #X$X$X$Xt.@.^ N.G.M.^ @.G E _ H.-X",
"J r.$X#XO.I D.=X-XV.Y O.H L @X$X$X#X$X#Xr.r.#X#X$X$X$X$Xw.r.#X$Xr.w.r.r.r.L r.#XE [ G.;X{.m.! F w.w.r.@Xw.J @X$X$X#Xt.:.{ ` ..&.t.$X$X#Xe.J ~ ( U O.-.@.W ` P.:X",
"-.r.#X#X#X=.X.V.C.{ E H H L $X$X@Xr.#X$X$X$X#X#X#X#X#X#X$X$X$X$X$X$X$X$X#X@X#X#Xr.$.[ A.D.^ @.r.@Xw.L L @.w.$X#X#Xr.W ) J.{.I.' R r.#X$X$X#X;.#.=.#X#X#X=.W B.G.",
"G -.#X#X#Xt.$.) { &.w.w.r.@X$X$X#Xr.#X#X#X#X@X#X#X#Xr.#X#X#X#X#X#X#X#X$X$X#X#X$X#Xe.$.[ } @.@X$X#X#Xr.r.-.#X$X$X#Xw.D Y J.-X{._ T e.r.#X#X#X#Xw.@X@X#X$X$X=.^ ' ",
"B O.$X#X#Xr.-.O.O.t.$X$X$X$X$X$X#Xw.w.r.w.w.w.$X#Xr.r.r.w.w.r.w.r.w.r.#X$X#X#X$X@X@Xr.E O.r.#X#X$X$X$X$X$X$X$X$X#X*.G R B.F.D.%.@.r.r.w.J -.r.r.-.-.*.#X$X@XO.C ",
"B E r.#X$X#Xr.w.-.#X$X$X$X$X$Xr.r.r.w.w.w.r.#X$X#Xw.w.r.r.w.w.w.@.w.r.r.@X#X@X#X#X#Xr.r.t.$X#Xr.r.#X$X$X$X$X$Xr.r.-.-.O.R U ^ :.r.J w.r.r.w.w.-.J J -.@X@X@X*.H ",
"A @.@X#X#X@X-.@Xr.@Xr.r.#X#X#Xr.r.@Xr.w.r.@X$X$X#XL L w.r.L L L H w.@X@Xr.#Xr.#X#X#X@X#X#X@X@Xr.@X@Xr.r.#X$X#Xr.-.#X@XJ G G O.#X#X*.J -.-.-.J J J J @X@X-.#X-.J ",
"J -.#X$X-.-.-.r.#X@Xw.w.r.$X#X#X%X$X#X#X$X$X$X$X@Xw.L L J L J L J -.#X@X#Xr.#X#Xr.#X#X$X@XJ L @X@Xr.w.L @X$X#X#X@X$X#X#X$X#X#X$X#X-.J J J J J J J -.#X#X@X@X-.*.",
"J @X#X@X-.J H w.$X$X#X#X$X#Xr.#X$X$X$X$X$X$X#X#X$X#Xw.L J J r.r.-.r.r.#X#X#X$X$X#X#X#X#XJ J J r.$X$X$X#X#X#Xr.#X$X$X$X$X$X$X#X$X$X#X*.J J J -.r.-.-.@X@X#X$X-.-.",
"J -.#X#Xr.w.-.@X$X$X$X$X$X#X#X$X$X$X$X$X#X@X@X$X$X$X@Xw.-.@X@X@X#X#X#Xr.@X#X$X$X#X#X#X@Xr.r.J @X$X$X$X#X$X#X@X$X$X$X$X$X$X@X-.$X$X$X@X-.w.@X@X@X#X#X#X@X@X#X@X-.",
"J r.$X$X$X$X#X#X$X@Xr.w.#X$X$X$X$X#X#X#X@Xr.L @X$X$X#X$X$X$X$X$X$X$X$X#Xr.@X#X#X#X#X$X$X$X$X#X#X#Xt.r.w.r.#X$X$X$X@X@X$X@X-.-.#X#X$X$X$X#X$X$X$X$X$X$X@X@X@X-.J ",
"J -.@X$X#Xr.#X$X@X#Xr.w.@X$X$X#X@X@Xr.w.#X$X@Xr.@X$X$X$X$X#X#X$X$X#X@X#X#X-.-.-.r.@X@X$X#Xr.#X#X#X#X*.D w.#X$X#X@X@X-.-.$X$X#X-.@X$X$X$X$X$X$X$X$X#X@X@X@X-.H H ",
"J J @X$X@X-.@X#X#X@Xr.w.@X#X#X@Xr.r.r.@X$X$X@X@X@X$X$X$X$X@X@X$X$X#Xr.$X#Xr.r.@X#X@X#X$X@Xw.@X#X#Xr.+.I W t.#X@X-.@X@X-.#X$X@X-.@X$X$X$X#X@X@X$X#X@X@X$X$X-.J H ",
"J @X$X$X@X@X-.@X$Xr.-.-.w.w.-.-.r.#X$X$X#XL J @X#X@X$X$X$Xr.r.#X#X#X$X$X$X#X$X$X$X#X$X$X#Xr.w.@X#XO.{ V...R @.L @X@X$X$X@X-.*.#X#X@X$X$X$X@Xr.@X#X$X$X$X$X#X@X-.",
"J -.#X#X@Xr.@X#X@X#X-.-.@X#X@X@X#X#X@Xr.@X#X@X#X@Xr.#X$X$X@Xr.#X$X$X#X@X-.#X$X$X#X#X#X#X#Xr.#X-.O._ D.-XK...R @.@X#X#Xr.@X@X@X#X@Xr.@X$X$X@X@X#X$X$X#X@X@X#X#X-.",
"J -.@X@X@X@X#X#Xr.#X#Xw.@X$X#X#X#X#Xr.-.@X#X$X@Xw.w.@X$X$X#X@X$X$X$X-.J -.$X$X#Xr.@Xt.r.r.#X#Xr.E _ F.;XP.M.R *.#X#Xr.w.@X$X$X@Xw.r.@X$X$X#X@X#X$X#X@XJ J $X#XJ ",
"J -.-.@X#X$X$X$X$X$X#X$Xr.w.$X#X#X#X#X#X#X@X@XL r.@X@X@X$X$X@X$X#X#X@X@X#X$X@X@X#Xr.r.r.#X$X$X#Xt.$.X.A.n.! t.@X#X$X#X#X@X@X-.*.w.@X@X#X$X#X@X$X#X#X@X@X$X$XJ J ",
"H J J -.@X#X#X#X$X$X#X@Xw.r.$X$X$X$X#X#X#X#Xr.L r.@X@X-.@Xr.@X$X$X#X@X@X#X$X@XJ @Xr.*.-.r.#X#X#X#Xt.$.) Q #.#X$X#X$X$Xr.=.G G *.@X@Xr.r.@Xr.@X$X$X@X@X@X$X$XJ F ",
"J J J J -.-.r.#X$X$X@X-.-.#X#X$X#X#X@X@X$X$X@Xr.@X$X@Xw.-.w.@X#X#X$X@X#X#X$Xr.w.#Xr.J J w.r.r.r.$X$X=.D G r.#X#X#X@X-.=.+.Q R @.r.#X@X-.-.-.@X@X#X$X@X#X$X$XJ H ",
"-.*.J *.J -.-.@X#X$X#X@X-.@X#Xr.w.r.-.r.$X$X$X@X@X$X$X$X@X@X$X@X-.J $X$X$X#X$X$X$Xr.H -.w.w.r.@X#X#X@Xr.r.r.#Xr.w.w.H O. .V.M.~ -.#X$X$X#X$X#X@X-.-.$X$X$X#X-.J ",
"H J J J -.-.-.-.-.J -.-.-.-.-.-.*.*.-.w.r.r.r.r.r.r.@X@Xr.@Xr.w.H H r.r.J J w.@Xr.-.J *.w.w.-.-.w.-.-.-.-.w.-.w.w.J D Y H.}.K._ T *.-.-.=.r.@X-.J J -.-.J J J J ",
"F F J J -.J J H J H H J -.J H -.w.-.r.-.G H -.r.w.J J J J J L w.H H J J F G H -.J H J J w.w.H H H G H J *.J H *.w.-.P i I.:X*Xp t G J *.J J J -.H F J H F H F F "
};
