/* XPM */
static char *Group_9_20__resized[] = {
/* columns rows colors chars-per-pixel */
"80 80 215 2 ",
"   c #0C0623",
".  c #150D2D",
"X  c #0D1128",
"o  c #14172D",
"O  c #181736",
"+  c #25163C",
"@  c #1B2537",
"#  c #253B2A",
"$  c #20263D",
"%  c #22393A",
"&  c #29471C",
"*  c #2F5216",
"=  c #2D521C",
"-  c #31561D",
";  c #335B1C",
":  c #37621C",
">  c #39661C",
",  c #3C6D1D",
"<  c #3F711F",
"1  c #2A4A23",
"2  c #27432A",
"3  c #2A442D",
"4  c #2A4A2C",
"5  c #324E2E",
"6  c #2E5326",
"7  c #2E532B",
"8  c #375B25",
"9  c #345C24",
"0  c #35542E",
"q  c #345B2B",
"w  c #395C2C",
"e  c #254334",
"r  c #2B4432",
"t  c #2A4A32",
"y  c #25423D",
"u  c #294938",
"i  c #334E33",
"p  c #304D3A",
"a  c #2E5437",
"s  c #355432",
"d  c #335435",
"f  c #3A5C31",
"g  c #356120",
"h  c #3A6424",
"j  c #3D6B23",
"k  c #3D642C",
"l  c #3F7120",
"z  c #3E6331",
"x  c #41751F",
"c  c #43781F",
"v  c #406F26",
"b  c #40672E",
"n  c #416A2C",
"m  c #417620",
"M  c #457C21",
"N  c #44722A",
"B  c #406731",
"V  c #416830",
"C  c #1E1E43",
"Z  c #1F3240",
"A  c #292949",
"S  c #263846",
"D  c #2E3053",
"F  c #3C3F63",
"G  c #48385B",
"H  c #413F62",
"J  c #264343",
"K  c #284642",
"L  c #2A4B43",
"P  c #27494A",
"I  c #294C4B",
"U  c #2E5443",
"Y  c #2D524D",
"T  c #325A45",
"R  c #335C49",
"E  c #2F4951",
"W  c #2E5754",
"Q  c #325B54",
"!  c #37565A",
"~  c #325C59",
"^  c #36644C",
"/  c #336455",
"(  c #34635B",
")  c #3A635E",
"_  c #36695C",
"`  c #385266",
"'  c #366B64",
"]  c #3A6C63",
"[  c #396865",
"{  c #366D6C",
"}  c #37716B",
"|  c #3B746B",
" . c #3C7669",
".. c #3A7573",
"X. c #3D7B74",
"o. c #3A7A7B",
"O. c #4E5575",
"+. c #695F7B",
"@. c #47726D",
"#. c #447A6D",
"$. c #478022",
"%. c #498423",
"&. c #4C8A24",
"*. c #3E8278",
"=. c #438373",
"-. c #478977",
";. c #518C76",
":. c #46957B",
">. c #4A937E",
",. c #3C7B83",
"<. c #6C7584",
"1. c #3E8487",
"2. c #448B85",
"3. c #489487",
"4. c #4E9D85",
"5. c #4E9E89",
"6. c #509E84",
"7. c #579D86",
"8. c #428B96",
"9. c #499C93",
"0. c #499996",
"q. c #609D88",
"w. c #4FA286",
"e. c #4FA088",
"r. c #50A187",
"t. c #51A38A",
"y. c #5CA588",
"u. c #55AB8D",
"i. c #57B28F",
"p. c #4CA29B",
"a. c #4DA598",
"s. c #51A692",
"d. c #55AD93",
"f. c #53AD9A",
"g. c #56B092",
"h. c #5AB493",
"j. c #5CBA96",
"k. c #56B39D",
"l. c #58B69C",
"z. c #5EBE99",
"x. c #67A58D",
"c. c #6AAC92",
"v. c #6AB698",
"b. c #75BB9B",
"n. c #489AA5",
"m. c #4DA5A5",
"M. c #50ABAF",
"N. c #55B4A3",
"B. c #57B8A3",
"V. c #59B9A3",
"C. c #54B4AB",
"Z. c #56BAAB",
"A. c #59BDAB",
"S. c #55B9B4",
"D. c #58BEB1",
"F. c #5EC39B",
"G. c #61C59D",
"H. c #6AC39D",
"J. c #63C99F",
"K. c #5BC2AD",
"L. c #5BC4B3",
"P. c #5EC9B6",
"I. c #5BC6B9",
"U. c #5ECCBD",
"Y. c #5FD0BE",
"T. c #65CCA1",
"R. c #6CCCA3",
"E. c #7AC8A4",
"W. c #67D2A4",
"Q. c #6AD3A6",
"!. c #6BD7A8",
"~. c #6BDBAA",
"^. c #73DCAD",
"/. c #7DDBAE",
"(. c #60D0BE",
"). c #7EDEB0",
"_. c #6EE1AE",
"`. c #79E8B5",
"'. c #53B7C5",
"]. c #5BC8C4",
"[. c #5FD0C6",
"{. c #5AC9D6",
"}. c #62D6C6",
"|. c #62D6CC",
" X c #63DBD6",
".X c #66E1D8",
"XX c #61D9E4",
"oX c #67E6E7",
"OX c #68E7F1",
"+X c #84829F",
"@X c #9197AD",
"#X c #A8ABBF",
"$X c #84D5AC",
"%X c #8CD9B5",
"&X c #93DCB8",
"*X c #89E6B7",
"=X c #97E5BB",
"-X c #94EDBD",
";X c #91F1BE",
":X c #9AF1BF",
">X c #A7F4BF",
",X c #C9FCBF",
"<X c #AFB8CC",
"1X c #9AEAC0",
"2X c #97F4C2",
"3X c #9BF3C2",
"4X c #A6F9C7",
"5X c #A3FCCC",
"6X c #B7FBC7",
"7X c #AAFCD1",
"8X c #B6FED5",
"9X c #C6FEC6",
"0X c #D1FFC1",
"qX c #D7FFC7",
"wX c #C2FBD3",
/* pixels */
"* : x , , x x x x , , x x x c x < c c x , , < $.c c c c , , , < < x c < < c c , : , x , x < x x x , , x c c c c < x c < , , < c c x c x x > x x v x c x x c x * ",
"> , x x m M , x x , < M c c x x < < x < < < < M < < < < < m M M M m x , < c $.M M m x , x x < < < < x c m m x < < c x < < < c c x x x v x x M c c x x , x M v > ",
"c c x c $.M x x x x c $.M M M x l M l < < c M m l l , < l $.&.&.&.$.x < < M %.&.&.$.m M c c x < x c c $.M M m m < m m < < M M m c x v x x %.%.&.&.$.x , x M c c ",
"x c %.&.%.M x m c x x $.%.&.&.&.&.$.< < M %.&.$.$.$.$.$.&.$.$.%.%.%.%.c c $.%.$.$.%.$.&.&.$.c x c x c c %.&.&.&.&.$.< < M $.&.%.c %.c %.c %.%.%.%.%.$.c c M c x ",
"x x M %.%.%.%.M $.M M $.&.&.&.%.&.%.$.$.&.&.&.&.&.&.&.&.%.M M $.M M &.$.M $.$.%.$.$.$.$.%.&.%.$.%.M M %.&.&.&.%.&.&.$.$.&.&.&.&.&.%.&.&.%.M M M c c &.M M %.c x ",
"x x x c %.&.&.&.%.%.%.%.&.%.M M M &.&.&.&.&.&.&.&.&.&.&.%.M M m < l %.&.%.M $.&.$.M x m $.&.&.&.%.%.%.%.&.&.$.m $.&.&.&.&.&.&.&.&.&.&.&.%.M m M x c %.&.%.M c c ",
", , x c M M M M M c m m m M %.%.&.%.$.M m $.$.%.&.&.&.&.%.c c m , x $.&.&.M m m $.M m M $.M M M M m m m m M $.%.$.&.M m m $.$.$.%.&.&.&.%.M M M x x M &.&.M x : ",
", x x c M x c x l < < l < m M %.%.$.M M m m m c M &.%.&.&.$.$.$.M m $.&.&.m x x M m x M M x x < < < < < < < M &.&.$.$.m M m M m M &.&.&.&.M M %.c c M &.&.x > : ",
", < c $.M < < l < < < < < < < m %.$.%.&.&.$.m < c %.&.&.&.&.&.&.$.$.&.&.%.j m M M m m $.M x < < < l < < < < l m $.M $.&.&.$.< < m &.&.&.&.&.&.&.%.$.&.&.$.x , v ",
", < c M M m < < < < < < m M M $.%.$.%.&.&.%.M $.&.&.&.&.%.%.%.%.M m M $.&.M &.&.M m x M M m < < < < < < l M m M &.$.&.&.&.&.$.$.&.&.&.&.&.M %.%.M x M %.%.$.x x ",
", < c $.$.$.m < m M M m $.$.$.&.&.%.&.&.&.%.%.&.&.&.&.&.c $.%.%.m > , M &.%.&.&.$.M x $.%.$.m x l $.M c $.$.&.&.&.$.&.&.&.$.$.&.&.&.&.&.M M %.&.x , , c &.%.M c ",
"c < m &.&.&.M M $.&.&.&.$.%.&.&.&.$.&.&.c $.&.$.$.&.&.$.x %.&.&.m , < &.&.m M &.&.M x &.&.&.M M $.&.&.&.&.$.&.&.&.$.&.&.M $.&.$.%.&.&.M x M &.&.m , x $.&.c x x ",
"< < c $.&.&.&.$.m m $.&.$.$.&.$.M &.&.%.%.&.&.%.%.&.&.&.%.&.&.&.%.M &.&.&.M M %.$.M m $.%.&.&.$.< M %.&.$.$.&.$.M %.%.&.%.&.&.$.&.&.&.&.%.&.&.&.$.M %.&.%.M c x ",
", < c c $.&.&.$.x l M &.$.M &.$.M &.$.M &.&.&.%.%.&.&.&.&.&.&.&.&.&.&.&.%.M M %.M M M M %.&.&.%.< < $.&.$.M &.M M &.$.$.&.&.&.$.M &.&.&.&.&.&.&.&.&.&.&.%.%.m x ",
"x c %.&.&.&.$.%.&.$.M &.$.M $.&.%.$.x , M %.&.m c M $.%.&.&.&.$.M M M M M %.&.&.%.$.$.&.&.&.%.%.&.c $.%.$.$.$.&.&.$.m < m &.&.M m M M &.&.&.&.M M M M $.M %.M c ",
"x c &.$.&.&.&.%.&.&.&.$.%.$.&.&.&.M x < m M M x x c $.c < $.%.%.%.M &.%.&.&.&.&.$.%.&.$.&.&.%.%.&.&.&.$.$.%.&.&.&.c < < l M $.l m M M M M M $.&.%.$.$.&.&.&.M c ",
"< c %.c M &.%.%.&.&.$.M M %.&.&.&.M c x x M m m l $.$.M M M %.&.&.&.&.&.&.&.&.&.$.&.&.c M &.&.$.&.&.$.$.$.$.&.&.&.l < < < < M < m M M m M M %.&.&.&.&.&.%.&.M c ",
"c c m x x M M $.$.m m , < m $.&.&.&.$.$.$.$.&.&.&.$.$.&.&.&.&.&.%.&.&.M l %.&.&.&.$.l < < M M $.$.m < < < l &.&.&.&.$.M &.%.&.&.&.&.&.&.&.&.&.&.&.&.&.c m %.%.c ",
"x c $.m x m M M M m m M m l M &.&.%.%.$.M M $.&.&.&.&.&.$.$.&.&.$.M $.M l m $.&.$.$.M l l M M $.$.m m $.l l $.%.&.&.&.$.$.$.&.&.&.&.&.&.M $.%.%.$.c $.c m m c c ",
"< c &.$.M M M M m M M $.m , $.&.&.$.&.%.M M $.&.&.&.&.&.< $.%.$.c < M $.$.l $.&.$.&.&.$.$.m l l < < l M l j $.%.&.$.$.&.c c $.&.&.&.&.$.M M %.%.c x $.$.m x x c ",
"M M M &.&.&.$.$.$.m m < , m &.&.$.$.%.&.&.&.&.$.$.&.$.&.&.&.&.&.&.&.&.&.&.$.%.&.&.&.$.&.$.l h ; ; = = = - , &.&.$.$.&.&.&.&.&.$.$.&.$.&.&.&.&.&.&.&.&.&.&.M c c ",
"x M %.&.&.%.&.&.&.%.M M M M &.&.%.M M &.%.%.$.%.$.$.$.$.%.%.%.%.&.$.%.&.&.%.%.&.&.$.%.&.M g 7 4 t 4 e # 1 : %.&.$.< $.&.&.$.$.$.%.$.$.$.$.$.&.&.%.%.%.&.&.%.c c ",
"x c &.%.$.$.$.&.&.&.&.&.&.&.&.&.%.m m M M m c &.&.$.$.M l l $.M M < < M M m M $.m M $.M j 7 p I I I I Y a g l %.&.< < $.$.< < &.&.M M m m m M M M c c %.&.%.M c ",
"c c M $.&.&.%.M $.%.&.&.&.&.&.$.M M m m x M $.&.&.< < l $.M l l < < > ; = = = = ; ; = ; 6 U _ | | | X.-.} ^ z g < M $.l < < &.&.&.m m M M m m m x x M M %.M M x ",
"x c M %.%.%.M M M $.M M &.&.$.M M $.M M c $.&.&.%.x x m l < < < < > 8 7 e e t 4 4 4 2 t a _ -.4.3.4.s.k.9...U 6 : M $.m M $.&.&.%.m v x c c m < , x %.$.$.%.x x ",
"x c &.&.M < m $.$.$.m l M &.%.%.%.&.%.$.&.&.%.&.%.M m , , > , , : g 0 ^ ] ) ~ ~ Q Y Y W ' -.t.d.u.d.A.(.S.3.~ e = $.%.%.&.&.&.&.$.M x , < x < < x c $.%.$.c c c ",
"x M %.$.c , < c &.&.&.&.&.$.$.%.&.&.&.&.&.&.%.%.%.%.m , > = & & & 4 ^ ;.c.c.q.>.-.=.*.=.4.u.j.h.u.g.K.}.L.2.W 3 ; $.&.&.&.%.%.%.&.$.x x , x m M M M M $.%.%.M c ",
"x M %.$.$.m x c &.&.&.%.%.&.$.&.&.&.&.&.&.$.$.$.&.&.$.j g 4 # % e R ;.E.&X&X$X$XG.i.i.h.j.F.G.z.i.d.K.(.D.8.~ 4 ; m &.&.%.$.M %.&.&.M m m M $.%.%.$.%.$.$.&.c c ",
"x M &.&.&.&.&.&.&.M M m $.&.&.&.&.%.$.%.$.M c $.&.&.$.j q ^ [ @.@.;.E.=X8X7X4X2X`._.~.!.Q.Q.J.G.h.d.l.K.N.0.{ T q j m $.$.M m $.&.&.&.&.&.&.&.&.&.&.&.%.M M M x ",
", x $.&.%.M %.&.%.%.M m $.&.&.&.%.M M M $.&.%.m $.$.> q T ;.x.v.c.v.$X3X7X5X5X2X;X*X^.~.W.T.J.J.z.j.l.l.N.f.9.X.^ 7 9 j %.&.%.M $.&.&.&.&.&.&.&.&.%.M $.$.M x > ",
"x c %.&.$.c $.%.&.$.M m $.%.%.$.M $.M M %.&.$.M c l 6 a #.b.%X1X=X*X:X:X3X3X3X3X:X;X).!.J.F.J.J.J.G.j.u.f.B.D.p.} u 1 ; $.&.$.M $.%.&.&.%.%.M &.%.%.M %.&.M x , ",
"x c &.&.%.c c %.&.m m m c m c m M $.&.&.%.x x M j 6 U =.b.=X6XwX8X6X4X3X;X-X2X4X4X:X*XQ.J.F.J.J.W.J.h.t.d.K.}.D.1.P 1 > c x x %.%.%.&.&.&.c M %.&.&.&.&.&.%.M c ",
"< c &.$.$.c $.$.$.$.M < $.$.$.$.M %.M M $.%.M > 6 T #.c.=X6XqXqXqX9X6X>X-X-X-X3X4X-X*XQ.G.F.F.W.W.G.h.t.g.L.[.C.o.K 2 ; c %.$.%.M M %.&.&.M M %.&.&.%.M M %.$.c ",
"< c M $.$.$.&.$.$.&.$.c $.&.&.$.&.&.M m M M m 6 T #.c.&X6X9X0XqX0X9X>X:X-X-X3X3X3X-X/.W.G.F.J.J.T.J.h.u.f.B.L.N.-.W 4 ; < %.&.c x M M &.&.&.%.&.&.%.M x m &.$.c ",
"< < M M $.&.&.&.&.&.&.&.m M &.%.M &.&.M m g 0 T ;.b.=X6XqXqX,X,X,X6X>X:X3X3X3X-X*X$X!.T.J.F.J.W.W.J.j.u.u.f.N.N.0.X./ a : , < < c %.M M &.&.%.&.&.M M %.%.&.c , ",
"< < c < $.&.&.&.&.&.&.$.M M &.&.&.&.&.M : 7 T =.b.=X6XqXqXqX,X,X>X>X-X-X3X3X3X*X/.Q.J.J.J.J.J.J.W.G.j.i.t.t.s.k.C.a.2._ t = , < M &.M M M M M &.&.&.c %.%.&.c : ",
"< < < < l $.$.$.&.&.$.c M $.&.&.&.$.$.m = t ~ x.%X6X6X9X0X0X9X6X5X2X2X3X:X:X-X/.Q.G.F.J.J.J.G.T.J.G.h.u.e.4.w.l.P.P.a...u & , x M &.M M x M M %.&.&.M &.&.%.c : ",
"c x < x < < c $.&.$.&.$.M $.$.M m m M x ; 2 ! 7.&X6X6X6X6X9XwX8X7X7X3X3X-X*X/.Q.T.F.F.F.T.T.T.G.v.i.i.t.r.>.e.l.P.U.m.| % & x M %.&.&.&.M &.&.M c c &.&.&.%.M x ",
"c x c c $.M M $.$.$.$.$.$.$.$.M $.M M m = e ! x.%X7X7X4X>X=X=X=X-X-X3X:X*X$XJ.J.G.G.G.G.T.T.J.z.i.t.t.t.r.4.r.l.P.L.m.X.u 1 , $.%.%.%.&.%.%.%.%.x x &.%.c c c c ",
"< c $.&.&.&.$.M $.c M $.&.$.M $.&.M M j q ^ =.v.*X5X5X4X%X$Xb.x.x.b.$X*X*X!.J.F.G.G.T.G.T.T.G.z.u.e.e.e.e.r.r.l.L.L.C.2.~ a w m %.M %.%.%.M %.&.c c %.c x c c x ",
": < %.$.$.%.%.%.$.$.M &.&.&.&.&.M m : 7 ^ -.j./.-X5X8X7X$X7.) S S ) x./.`._.W.F.F.J.T.J.T.T.J.z.u.e.4.r.r.4.e.k.A.I.I.N.2.( a w x x %.&.M M M %.%.%.&.M M &.c x ",
", x $.c $.$.M c $.$.M $.$.$.$.$.x 9 4 L  .w.J.).-X4X7X%Xq.O.+   @ E #.h.W.W.W.J.J.J.T.J.J.T.J.z.g.t.e.e.r.e.t.s.B.I.[.(.N.2.( t & x c c M M %.%.&.%.M m c &.c x ",
"c x x c $.M x < < < c $.M M M l , 9 e I [ -.y.H.$X*X$Xx.) $ . + G O.@.#.:.i.J.W.T.J.F.T.T.W.T.z.h.t.e.e.r.e.e.u.f.Z.(.}.I.p.| e & v x v M M &.&.&.M c x c M c c ",
"x c %.&.%.$.x x $.< < $.$.&.&.&.M g 4 J P I ( 7.H.R.;.! $ . A <.@X#X+.O.W -.F.~.W.T.J.T.T.T.T.z.g.t.e.e.t.t.t.t.u.f.L.(.D.9.{ e = x c M M %.%.&.%.%.M c c %.c x ",
"< x $.$.%.&.%.$.$.c $.$.&.&.&.%.M j 7 J @ O $ #.h.i._ @   C F @X<X#X+.A $  .j._.W.J.T.T.T.J.G.j.d.t.4.t.t.t.t.4.r.t.l.P.Z.0.' 2 - M %.&.&.M M M M c &.%.c %.c x ",
"x x m m $.&.&.&.&.&.$.$.&.&.M $.l j a y o   o ] w.w.I X   C ` <.@X+XG . o ] j._.W.T.T.T.J.F.j.g.u.t.5.t.t.t.u.4.>.6.l.K.C.3.' e - M &.&.%.M M c x v %.&.&.c c c ",
", < x M M M M M M l M l l $.%.%.$.j a % @ . @  .t.u.~ @   A O.O.@.H + . % =.z._.W.T.T.T.F.h.u.t.t.t.t.t.t.t.t.r.r.r.l.P.C.0.' e - M %.&.%.c x c v x c &.%.c x > ",
", , m $.M x x x l < < < < l M %.M : 7 K S S Y >.j.l.X.E C D D A $ O O S _ >.G.~.!.T.J.F.F.i.t.e.4.t.t.t.t.r.r.r.t.g.L.}.].0.{ r = c %.&.&.%.%.c x c &.&.%.x > ; ",
", x x c M x x x < l x < < < < m m g 4 L Q | -.h.G.G.u.=.! D O     X S ] 7.j.T.!.Q.T.F.j.i.t.e.e.e.t.u.e.e.e.e.e.s.V.|.OXXXM.o.% & c %.&.&.&.&.&.%.%.&.&.%.x v x ",
", x c c M m , , , x m , m m m %.M : 4 I  .r.F.W.W.T.!.v.-.W @   X Z ] u.W.T.T.T.T.F.j.u.t.e.e.t.t.t.u.e.w.w.t.u.B.L..XOX{.M.{ 2 ; M &.&.%.%.%.&.c c M %.&.%.x x ",
"x x c c %.$.c x m M M M M $.%.&.$.: 1 I =.i.R.!.W.W._._.i.#.Y % S ' 4.T._.W.G.j.F.j.d.t.e.e.t.t.t.t.5.4.e.s.d.l.K.I.{.{.M.1./ 7 , c &.%.c c %.%.x x v c &.M M x ",
"x c c &.&.&.M M $.%.&.&.%.&.&.&.$.; 4 L  .6.z.J.W.W._.!.G.i.4.-.-.6.j.T.!.G.h.u.g.d.u.e.e.e.r.t.t.t.6.4.e.d.B.L.P.L.Z.0.{ R g j c &.&.%.c %.&.&.x > x %.&.x x x ",
", x c %.%.&.&.$.c m &.&.$.M &.%.m : 4 L | 3.h.K.F.T.T.T.G.z.j.j.z.J.T.T.z.g.u.5.t.t.t.t.e.e.r.r.r.t.5.t.s.B.K.[.|.].m...J 4 > l %.&.&.%.%.&.&.&.M M &.&.&.M x x ",
"> x c c %.&.&.%.x l m &.$.M &.$.l : 4 P | s.V.z.j.F.F.z.h.r.w.h.G.T.T.z.d.u.5.4.4.5.6.6.w.t.r.r.6.r.u.d.k.A.L. XoX Xm.{ # & l $.%.%.&.&.&.&.&.&.%.&.&.&.&.M M x ",
"x c M %.&.&.%.%.&.$.M %.$.M $.&.$.; 2 P =.C.P.K.h.u.h.g.>. ._  .4.h.h.d.u.t.t.t.4.t.t.6.e.e.e.e.4.t.s.N.K.K.L. XOXOX'.,.% 1 k j x c %.&.%.&.&.$.M M %.M M M M c ",
"x c &.%.%.&.&.%.&.&.&.M &.%.&.&.%.; 1 L ..0.Z.A.l.d.w.>. .Q W ' >.u.u.t.t.6.6.r.r.5.u.s.s.u.t.t.u.k.A.P.[.[.[..XXX{.n.{ u 3 s 9 j c M M M M %.%.%.M %.%.&.&.%.c ",
"x M %.m M &.&.&.&.&.%.m $.$.&.&.%.h 0 d ~ X.3.C.Z.f.>.} W Q ' *.3.4.t.4.4.6.6.6.w.r.d.k.N.k.k.N.B.K.P.Y.|.oXOXXX].n...Q i i f w v m M m M M %.&.&.&.&.&.&.&.$.c ",
"x m M x m M m M $.m < l < c %.&.&.M v w p Y [ 9.Z.N.X.W Y  .>.w.t.t.t.t.r.r.t.6.e.t.k.A.L.L.L.L.L.P.L.P.|.oXOX{.n.~ L i w B B v m M &.&.&.&.&.&.&.&.&.M c %.c c ",
"x M M m m m M M m m m M x l $.&.&.M m k i r Y #.9.9.X.' ] >.g.h.d.d.d.k.l.l.l.k.k.l.K.U.[..X X[.S.a.s.a.S.'.{.n...L 5 8 w b B n M &.&.&.M $.%.%.M M $.M x M c c ",
", M &.$.M M M m m m $.%.m < M &.&.M m n f 0 i Q } *.*.=.>.t.h.h.h.d.V.K.L.P.L.K.K.L.P.[..XOXOX{.m.*.} ..*.1.1...W t 8 w b k b n N M &.%.M M %.%.c x M M M < x c ",
"c M $.&.&.&.%.M $.m x x , c &.%.M m N v n n w p I (  .3.t.t.w.e.w.e.k.A.L.L.D.D.L.A.A.A.{.XXXX'.,.P % J P I I U f w b n b b b v m M &.&.&.&.&.&.&.&.&.&.&.$.c c ",
"x M %.&.&.&.%.&.&.%.M M M $.&.&.$.x j N n b k 0 t U _ =.:.:.*.=.*.-.2.9.p.p.p.0.9.9.9.9.m.M.'.8.' u # r r r r 5 w w b B b w h v M M M %.%.%.%.&.%.%.%.&.&.$.c c ",
"x $.&.%.$.$.%.&.&.&.&.&.&.&.&.&.%.x x m j k w B f t R _ ' _ ( / / _ ' { } } } } { } } { ..o...[ T f 8 0 0 0 0 w w w b k w 8 > %.&.M M m m m m M M c c %.&.$.c c ",
"x c c $.&.&.$.M $.%.%.&.&.&.&.$.M m x , , h k N b 0 p L P J J J K J K K L K K K L L y K K K K p s k v n n b b h k w w w 8 v M &.$.m m M M m m m x m M M %.%.c < ",
"x c M %.%.$.M M M M M M %.&.&.M M %.M m m N N m n s p r % % r r # r p r 3 r r r r r r 3 # # r 5 8 b v k v n b B f z k b v c &.&.%.x x x M x x x , x $.$.$.$.c < ",
"< c &.&.$.x m M %.$.M l M &.%.M %.&.%.%.&.%.M N n f f s 0 0 0 0 0 0 f 0 w 0 f w 0 w f f 0 5 0 w k w k 0 k b b z B V b v %.%.%.&.%.c x x x v , x x c %.$.$.$.c x ",
"x M %.$.x < < M &.&.&.%.&.%.M %.&.&.&.&.&.&.M M N n k 8 8 8 w w k w w k b b b n b b b b 8 8 0 w b b B z b b k b n N M M %.&.%.&.%.%.c x x x x c c c $.$.%.&.c c ",
"x c &.$.M m x M &.&.%.&.&.%.%.&.&.&.&.&.&.%.M M M m m j v v b b n b b b b b n n v b b b k b w k b B B z b v v x M M M %.%.%.c %.&.&.c c c c $.$.%.%.%.$.$.%.$.c ",
"< c &.&.&.&.&.&.&.$.M m $.&.&.&.&.M &.%.M M m M %.%.&.%.m N n b B n n k w k b b k b b b b b b b b w f f b v c &.&.M %.%.M M x %.%.&.&.&.&.&.&.&.&.&.&.$.c $.c < ",
"< c $.&.%.M %.%.%.%.M m $.&.&.&.%.M M M &.&.%.M M &.&.%.M N v v v n h v v h 8 h v b v N v h v v v v b ; x c &.&.%.M c M &.&.%.M $.&.&.&.&.%.&.&.&.%.$.$.%.c < , ",
"< c $.&.$.c $.%.%.$.M c $.%.%.$.M M M M &.&.$.M M &.&.&.&.M m N m m m c M v m v x x m M v v x M x x v v M M %.c M M M M %.&.M c $.&.&.&.&.$.$.&.&.$.c &.&.c < , ",
"c c &.&.%.$.c $.&.M x c m m c c M %.&.&.M m x $.%.%.&.&.&.c c %.%.$.&.&.&.$.&.&.c %.&.%.M M c c &.M x x c c c c c %.&.&.%.x x %.%.$.&.&.&.M c %.%.&.&.&.&.&.$.c ",
"< c %.%.$.M $.$.$.$.c x $.%.$.c %.%.M M $.$.%.%.M M %.&.&.M M %.&.&.%.c c &.&.&.%.%.%.&.%.c c %.M M M x M &.c c %.%.M M %.M &.&.$.m %.&.&.$.M %.&.&.%.c c &.%.c ",
"< c $.$.$.$.&.%.M %.%.M $.&.&.%.%.&.M c $.%.&.M m M M &.&.%.%.&.&.&.c c c &.&.%.M M M M M %.&.%.M &.%.M %.&.&.&.%.%.M c M &.&.M M M $.&.&.%.$.&.&.%.$.c < &.$.< ",
"< x c c %.&.&.&.&.&.&.&.M c &.%.%.&.%.%.%.M M m M M %.%.&.%.%.&.%.$.c $.%.&.$.M %.M M M %.&.&.&.&.&.&.&.c c &.%.%.&.&.%.%.M M c M $.M %.&.%.%.&.%.$.M $.&.&.c , ",
"< < c c M %.%.&.&.&.&.$.m M &.&.&.%.%.%.&.%.M m M %.c M $.M M &.&.&.$.$.&.&.c c %.M x x M &.%.%.&.&.&.M c c &.&.&.&.%.%.&.M M c M %.M M $.M M &.&.%.$.%.&.&.< > ",
"< < < < c c M $.&.&.%.c $.$.&.&.%.%.M %.&.&.M M M &.M m M M M %.%.%.%.%.&.&.M c %.M x x c c c %.&.&.%.c c &.&.&.%.%.M %.&.&.c M M %.$.M m M M &.&.&.$.%.&.&.c > ",
"c x < x x c M $.%.&.%.c c $.%.M M m c M &.&.&.$.%.&.&.&.M %.%.$.c c &.&.&.%.%.&.&.c x x x x M %.&.&.c c M M %.c M c x M &.&.&.%.$.&.&.%.M %.%.M x c &.&.&.$.c < ",
", , < < c < c c c < c c c c c c m x c M M M M M M M M M M M M M , , c c x x c c c x v x x x x x c x x x c c c x x x M M M c c c M M $.M M M M M , , c c x < < , ",
": > < < x c < , , , , < x < , x M x c c , , x M m x x x x x c c , , x , : > x x x > x x x x x v x > x x c x v x m x x x v x x c c x x x x x m m , , x , > > > : "
};
