/* XPM */
static char *Group_9_21__resized[] = {
/* columns rows colors chars-per-pixel */
"80 80 223 2 ",
"   c #1B1D34",
".  c #1A2F30",
"X  c #1F353E",
"o  c #273A29",
"O  c #243D2D",
"+  c #262B3E",
"@  c #243E34",
"#  c #243F3A",
"$  c #25431D",
"%  c #2B4C1D",
"&  c #2F5216",
"*  c #2E531E",
"=  c #30551E",
"-  c #335C1D",
";  c #37631B",
":  c #39661D",
">  c #3C6D1E",
",  c #3F711F",
"<  c #2C4D22",
"1  c #26432E",
"2  c #29452C",
"3  c #2B4C2D",
"4  c #314C25",
"5  c #314D2B",
"6  c #2E5323",
"7  c #2E532F",
"8  c #305621",
"9  c #335C23",
"0  c #385D27",
"q  c #35542C",
"w  c #375A29",
"e  c #3A5C2C",
"r  c #254233",
"t  c #2C4534",
"y  c #2B4935",
"u  c #26443B",
"i  c #28473C",
"p  c #2A4B3D",
"a  c #314E35",
"s  c #2C5133",
"d  c #2E5738",
"f  c #345233",
"g  c #345A33",
"h  c #3A5B32",
"j  c #33583A",
"k  c #376223",
"l  c #3B6425",
"z  c #3D6B24",
"x  c #3D642C",
"c  c #3F692B",
"v  c #3F7220",
"b  c #3E6331",
"n  c #41751F",
"m  c #43781F",
"M  c #406E27",
"N  c #40672E",
"B  c #416B2C",
"V  c #417620",
"C  c #457C21",
"Z  c #487F25",
"A  c #406631",
"S  c #416930",
"D  c #282E40",
"F  c #253643",
"G  c #1F464C",
"H  c #294A45",
"J  c #264648",
"K  c #2A4D49",
"L  c #33444E",
"P  c #2F5349",
"I  c #31584B",
"U  c #2B4E51",
"Y  c #2E5853",
"T  c #325054",
"R  c #325C54",
"E  c #325C59",
"W  c #32624A",
"Q  c #386757",
"!  c #33635C",
"~  c #336563",
"^  c #356B63",
"/  c #3A6C65",
"(  c #366D6B",
")  c #37716F",
"_  c #3C756B",
"`  c #3E796B",
"'  c #376E73",
"]  c #3A7774",
"[  c #405D5E",
"{  c #486A53",
"}  c #496A66",
"|  c #506B68",
" . c #42726A",
".. c #437E72",
"X. c #478022",
"o. c #498423",
"O. c #4C8A24",
"+. c #428373",
"@. c #438B76",
"#. c #478A7A",
"$. c #458C7B",
"%. c #56887B",
"&. c #47937E",
"*. c #4C937C",
"=. c #59927C",
"-. c #7FA17E",
";. c #3B7C82",
":. c #438C85",
">. c #428889",
",. c #4A9481",
"<. c #4E9C84",
"1. c #47928D",
"2. c #489488",
"3. c #4E9F89",
"4. c #509E84",
"5. c #5B9883",
"6. c #479694",
"7. c #4A9C92",
"8. c #629B86",
"9. c #4FA088",
"0. c #4CA98C",
"q. c #50A186",
"w. c #51A38A",
"e. c #54AA8E",
"r. c #59AF8F",
"t. c #58B08F",
"y. c #4BA39A",
"u. c #4EA698",
"i. c #55AC92",
"p. c #53AD9A",
"a. c #54B295",
"s. c #59B393",
"d. c #5BBA96",
"f. c #56B39B",
"g. c #58B69D",
"h. c #5EBE9A",
"j. c #61A089",
"k. c #6CAD93",
"l. c #69B897",
"z. c #73BB9D",
"x. c #4799A6",
"c. c #4DA6A5",
"v. c #51AEA6",
"b. c #55B4A2",
"n. c #57B9A5",
"m. c #59BCA5",
"M. c #54B5AA",
"N. c #56BAAC",
"B. c #5ABFAA",
"V. c #4EA9B5",
"C. c #54B8B6",
"Z. c #5EC49B",
"A. c #5FC99E",
"S. c #61C59D",
"D. c #63C99F",
"F. c #7BC49C",
"G. c #5BC2AD",
"H. c #5BC5B3",
"J. c #5CC8B7",
"K. c #5DCABB",
"L. c #6BC6A0",
"P. c #65CCA1",
"I. c #6ACFA3",
"U. c #7BCAA6",
"Y. c #65D1A3",
"T. c #6BD2A6",
"R. c #68D6A8",
"E. c #6ADAAA",
"W. c #75D2A9",
"Q. c #74DAAB",
"!. c #7BDBAE",
"~. c #60D1BD",
"^. c #7FDEB0",
"/. c #6DE1AF",
"(. c #71E2AF",
"). c #78E8B4",
"_. c #53B8C4",
"`. c #5BC9C7",
"'. c #5FD1C5",
"]. c #5AC7D8",
"[. c #61D6CB",
"{. c #63DAD6",
"}. c #61D9E6",
"|. c #67E7E9",
" X c #86BC99",
".X c #84CDA9",
"XX c #9CCBA0",
"oX c #88D1AB",
"OX c #8AD6B2",
"+X c #8CDAB2",
"@X c #91D3B3",
"#X c #83E7B6",
"$X c #8BE5B7",
"%X c #8DEABA",
"&X c #94E3B9",
"*X c #93EDBE",
"=X c #8BF1BD",
"-X c #95F1BE",
";X c #99F0BF",
":X c #A8F4BF",
">X c #B7F2BD",
",X c #CAFCBE",
"<X c #D6FEBF",
"1X c #93ECC0",
"2X c #9AEBC1",
"3X c #95F3C2",
"4X c #9BF3C2",
"5X c #9DFBC9",
"6X c #A2F6C3",
"7X c #ACF9C3",
"8X c #A7F9C8",
"9X c #A3FBCC",
"0X c #A7F8CF",
"qX c #B6F8C0",
"wX c #BBFAC2",
"eX c #BAFECB",
"rX c #B5FDD1",
"tX c #BBFDD4",
"yX c #C6FDC5",
"uX c #CBFDC0",
"iX c #D5FFC0",
"pX c #D4FFC7",
"aX c #C1FCD1",
/* pixels */
"& ; n > , n , n n > > n m n m n , n m n > > , C C , m m , > > > n n n n , C n > ; > , , , , , , m > > , , m m m , , m n > > , m m n m n n > > , , n m n n m > & ",
": > n n n n , , n > n m m m m , , n n , , , n n , , , , v V C C C C n > , m X.C C , , , , m , , , , m m C V , , , C , , , , n m n n > n > n m m m m n > n m n > ",
"m m n m o.C n n n n m C C C C n v V V > n m C C v , > v V C O.O.O.C n , , C O.O.O.o.C C X.X., , , m m X.C C C v , C , , , C C C n n > n V Z O.O.O.C n , n m m n ",
"n m o.O.o.m n n m n m X.o.O.O.O.O.X.V , C o.O.X.X.X.X.o.o.o.C O.o.o.o.n n X.X.X.X.X.X.O.O.m m , m , m X.o.O.O.O.O.X.v , C X.O.o.m Z o.o.o.Z X.O.O.o.o.m m Z m n ",
"n n Z m o.O.o.o.X.C C X.O.O.O.o.O.o.C o.O.O.O.O.O.O.O.O.o.C C C C C O.o.C C o.o.X.X.X.o.o.O.o.X.o.m C X.O.O.O.o.O.o.X.X.O.O.O.O.O.o.O.O.o.Z m Z m C o.o.m o.m n ",
"n n n m o.O.O.O.O.o.o.o.O.O.C C C O.O.O.O.O.O.o.O.O.O.o.o.C V C , z o.O.O.C o.O.o.X., v X.O.O.O.O.O.X.X.O.O.C C X.O.O.O.O.O.O.O.O.O.O.O.o.C m C > n o.O.o.m m m ",
"> > n m Z m Z m V V V V V C o.O.o.o.C C m C Z o.O.O.O.O.o.m C C , > C O.O.C n n X., , C X.C X.C m C , C C C X.O.o.o.C C v C X.o.O.O.O.O.o.m m m > > Z O.O.C > : ",
"> n n m m m n n , , , v , , C X.O.o.C n C C m n C O.O.O.O.C C X.m m o.O.O.V , n C C v X.C , , v , , , v > v C o.o.X.C C C C C v m o.O.O.o.o.X.o.C C o.O.o.C > ; ",
"> , m X.C , , v , v , , v > > C X.X.o.O.O.m n n V o.O.O.O.O.O.O.o.O.O.O.o.> v X.v C v o.C v v v , , , , v , v v o.C o.O.o.C v , C O.O.O.o.O.O.O.O.o.O.O.O.> > > ",
"> , , C C v , , , , , > C C v X.o.X.O.O.O.O.o.o.O.O.O.O.o.o.o.o.C n V o.O.X.O.o.X.v , X.C v v , , , , , v C v X.o.o.O.O.O.O.X.o.o.O.O.O.o.o.o.o.C n n O.O.o.m n ",
", , , X.o.X.v , V C C C C X.o.O.O.o.O.O.O.o.o.O.O.O.O.O.C C o.o.v > > C O.o.O.O.O., , o.O.X.C v v X., C o.o.o.O.O.o.O.O.O.o.o.O.O.O.O.O.C m o.o., > > C O.Z m m ",
"m n C O.O.O.C C X.O.O.O.o.o.O.O.O.X.O.O.m o.O.m o.O.O.o.n Z O.O.V > > O.O.C v O.O.o., O.O.O.X.v X.O.O.O.o.o.O.O.O.X.O.O.C X.o.X.o.O.O.C n Z O.O.V > > O.o.n n n ",
", , n X.O.O.O.X.v C o.O.X.X.O.X.X.o.O.O.o.O.O.Z o.O.O.O.o.o.O.O.o.C O.O.O.C o.o.o., v o.O.O.O.X., v O.O.O.X.O.O.m O.O.O.X.O.O.X.o.O.O.O.Z O.O.O.X.C O.O.O.m m n ",
"> , m m o.O.O.o., v C O.X.C O.X.m o.o.m O.O.O.o.Z O.O.O.O.O.O.o.o.o.C C V v v v , , , , v X.o.o., , X.O.v , v , , X.C C O.O.O.X.o.O.O.O.O.O.O.O.O.o.O.O.o.X.m n ",
"n m O.O.O.O.X.o.O.X.C o.o.C X.O.o.o.n M m O.O.V n C o.o.o.O.O.C V : = * % * - - - - 6 8 8 - : v O.X.m o.> * % * - > > z C O.O.C n C o.O.O.o.O.C C C C C Z X.C m ",
", m O.X.O.O.o.O.O.O.o.o.o.o.o.O.o.m n n n C C n n C C C C C o.O.v 9 2 r u r r y r r r y p s 8 v O.O.O., 8 3 u i y 6 ; > , C C , , C C C m Z o.O.o.C o.O.O.o.o.m ",
", m O.n C O.O.X.O.O.X.C C X.O.O.O.C m n n , m C n C C n C C o.C c g R ~ [ E R R Y Y Y E E Y s k v , , z N { { } R s 9 z > , C v V C C V C C m O.O.O.O.O.O.O.Z m ",
"m m n , n Z m C o.V , , , V X.O.O.O.X.m X.O.O.O.O.O.O.O.O.O.V ; g { =.k.k.w.=.*.@.@.$.$.#.` I s 6 % % q | -. Xk.*.Q d 8 : v O.O.O.o.O.O.O.O.O.O.O.O.O.m V o.m m ",
"n m o.n n m C C C V V C v , X.O.O.O.o.Z C C X.O.O.O.O.O.C V 9 3 Q 8..X&X;XOXW.S.d.d.h.d.i.<._ I p . r { -.XX>X$Xl.@.W 3 6 > O.O.O.O.O.O.C o.O.O.C C o.m n V m m ",
"> m O.o.C C C m V C C X.V , X.O.O.X.O.o.C C C O.O.O.O.X.> 8 s I =..X5X0X0X9X-X#XE.R.R.P.A.s.,._ E J U +. X>XqX-XR.9.( G < ; o.O.O.O.O.o.C C C O.m n C X.C n m m ",
"m m C O.O.O.o.Z o.m , , z V O.o.X.X.X.O.O.O.O.C X.O.X.n - 5 Q =.U.*X3X5X5X5X3X=X#XQ.R.A.A.Z.w.&.` ) _ 5.F.&X-X^.Z.0.( K 3 z O.X.C O.o.O.O.O.O.O.O.O.o.O.O.Z m m ",
"n m O.O.O.O.o.O.o.o.C C m C O.O.O.C C O.O.X.C o.O.X.v 9 f Q 5.U.1X9X5X5X6X6X6X5X%X^.R.Y.P.P.d.e.9.&.<.e.l.I.Y.Z.0.+.R p 6 : X.o.O.X.C o.X.o.o.O.O.o.o.O.O.o.m m ",
"n m o.O.C o.o.O.O.O.O.O.O.O.O.O.X.n C C C , n O.O.v 9 s R 5.U.3X0X8X:X:X:X:X7X6X;X$X!.T.T.P.S.Z.d.s.i.i.a.a.0.&._ I d 6 ; > , O.O.C C C v C C C m n V o.O.o.m m ",
"m m C o.O.O.X.C o.O.O.O.O.O.O.o.C C V V , C O.O., * 2 I =..X1X3X6XeX>X,X,XyX>X:X;X%X$X#XT.P.D.A.Z.s.e.0.a.0.,.` Y 3 8 : z , o.O.o.v V V C C v C n V C o.o.m m n ",
"n m o.o.O.X.C C C o.C C o.O.O.C C C C C C o.X.C k s Q =.U.1X4X5X7X>XuX<XiXuXqX6X4X3X;X$XQ.P.A.D.S.h.s.w.e.w.#._ Y 7 8 , v o.O.O.X., , V C V , v , n o.X.X.X.m , ",
", C O.o.C , C C o.C V v C O.C o.O.O.O.X.O.o.v k d Q 5.U.1X9X0X7XwX,X<XiXuX>X:X:X4X6X6X%X!.I.A.A.P.S.h.r.e.w.2.:.` W x k X.o.O.O.o.V V , , > , , , n X.X.X.X.m , ",
"n C o.o.m > > m O.O.O.o.o.o.C X.O.O.O.O.O., 8 s Q 5.oX3X3X5XqXwX,X<XiX,XqX:X;X-X;X4X4X%XQ.L.S.D.P.D.S.s.r.w.u.b.p.:.W d k , o.O.O.o.n > > v C C m C m O.o.O.X.m ",
"n m O.C C C , m O.O.O.o.O.O.o.O.O.O.O.O.O.: < u  .z.1X9X6X7XwXuXiXiXuXwX6X*X*X3X4X4X4X%XQ.P.S.S.D.P.P.S.s.e.f.G.H.6.~ u * : C o.O.O.X.n C C X.X.X.O.o.X.X.o.m n ",
"n m O.O.O.O.O.O.O.o.C C X.O.O.O.o.C O.X.X.; $ # } z.6XrXrXyX,XiXiXuX>X:X;X*X*X*X4X6X6X&X!.I.Z.Z.D.P.P.S.s.e.f.B.B.2.! # 6 ; v X.O.O.O.O.O.O.O.O.O.O.O.X.C C C , ",
"> n X.O.O.m X.O.o.C C V X.O.O.O.o.C C m o.> < p  .z.2XrXaXuXpXpXyX>X4X-X*X*X*X3X4X4X4X$XQ.D.A.Z.P.I.P.S.s.e.w.s.e.#.~ p 6 > X.C C O.O.O.O.o.O.o.O.O.C C X.C , > ",
", n o.O.m m X.O.O.C C v C O.X.C C C C , v k d Q *.U.4XtXyXpXpXpXeX7X5X3X1X;X4X4X;X;X$X#XW.D.D.S.D.P.P.S.s.e.w.w.3.,.] ! d l v v C O.O.O.O.o.o.O.O.o.C O.O.m , , ",
"n o.O.O.O.m m o.O.C v C C V V C C O.C z 8 d W $.l.#X0XtXtXaXaXtXeX0X9X4X4X;X4X6X;X$X!.T.P.D.S.D.D.P.D.h.s.w.4.4.q.u.0.:.( d * z m o.O.O.O.m m o.o.O.O.O.O.O.X.m ",
", m o.o.o.m X.X.X.X.X., C O.C C X.X., 9 2 ! @.d.T.OX@X@X@X@XOXOX+X+X&X&X1X4X4X;X$X!.T.S.Z.D.D.D.D.P.D.S.s.e.<.<.w.m.H.M.:.E 1 9 > m O.o.O.C C O.O.O.O.m C O.X.m ",
", , X.X.X.X.O.o.m O.o.v X.O.O.o.o.O.> % @ ! w.P.T.l.8.%.%.%.%.%.5.j.l..X&X4X4X%X!.T.D.Z.Z.D.D.D.D.I.D.Z.s.e.<.<.e.G.~.K.y.~ @ < : m o.O.O.O.C O.O.o.m , , O.X., ",
", m X.C X.O.O.O.O.O.O.O.C C O.o.o.O., 6 r ! w.S.s.+.L D D D D D F [ ..k.OX4X-X#XT.D.S.S.A.D.D.D.D.P.D.S.s.w.<.<.w.B.J.H.6.~ O % : X.Z o.O.O.O.O.O.o.X.o.o.O.m > ",
", , , , C O.o.o.O.O.O.C C C O.O.O.O., 9 1 ! q.S.r. .D   + D + + F T ( 5.U.%X#XQ.A.Z.D.D.S.D.D.D.D.P.P.S.s.w.4.<.e.m.J.N.1.E O * > O.m C m C C O.O.O.m X.O.O., ; ",
", , , , v X.X.o.O.O.o., C o.O.O.O.o.> 6 1 ! *.d.s.$.E T Q | | | }  .+.w.D.!.!.Y.A.Z.S.D.D.D.D.D.D.I.P.S.s.e.<.<.w.m.J.N.1.E O 8 , O.C C m m m O.O.O.X.O.O.o., > ",
"m , , m , , m o.O.O.o.o.C C o.C , V > * O ! *.Z.S.d.e.l.F.oXoXoX.XS.d.Z.D.I.T.D.S.S.D.D.D.D.D.D.D.P.P.S.s.e.<.<.i.m.J.N.1.! 1 = > O.O.o.Z O.o.m n n O.O.O.X.C m ",
"m m m m C X.C X.X.X.X.X.X.X.C X.C C > * 1 E &.Z./././.).=X-X5X-X$X!.Y.S.A.S.S.D.D.D.D.D.D.D.P.P.P.D.S.d.s.w.4.<.w.m.H.M.2.! 1 9 n o.O.o.o.O.O.O.n n O.o.m m m m ",
", , X.O.O.O.X.X.C m m o.o.o.X.o.O.O.n 9 1 Y <.A./.).).).).=X=X=X#X(.R.D.A.Z.S.S.P.D.D.D.D.P.P.P.P.S.d.i.w.w.4.4.w.n.B.M.2.E 1 9 n X.X.o.O.m o.O.m m o.m , m m , ",
"; , o.o.o.O.X.o.o.C C O.o.O.O.o.O.O.n 9 1 R $.d.Y.R.I.D.Y.T.Y.I.Y.Y.D.D.D.D.D.D.D.D.D.D.D.P.P.P.S.d.e.3.q.w.q.q.e.m.J.C.1.E t 0 m o.O.o.o.Z Z m o.o.o.Z m O.m n ",
"> n m Z m o.C m C C C o.X.X.o.C C C > 6 r Y ` *.q.q.q.e.d.S.A.A.S.S.D.D.D.D.D.D.D.D.D.D.P.P.D.S.d.r.w.3.9.q.w.w.f.'.{.[.c.~ O = : m C C m m o.o.O.o.m m Z O.m n ",
"m m n m X.C , , , C m X.C C C v V C : < r K ! ! ! ! ` @.e.P.Y.A.D.S.D.D.D.D.D.D.D.D.D.I.P.P.S.d.i.w.w.3.3.q.w.p.B.{.|.}.V.~ O % ; n n n m o.o.O.o.o.n n n m m m ",
", m O.o.O.X.n n C , , X.o.O.O.o.o.C : 6 r H U K # X H ^ *.Y.E.P.D.D.D.D.D.D.D.D.D.D.D.D.P.S.d.e.q.q.q.q.9.q.i.m.K.}.}.].x.! 2 - n m Z o.o.Z o.o.o.o.X.m m o.n n ",
"> C X.X.o.O.o.X.X.C C X.O.O.O.o.O.o., 8 p K U J X   X ! 4.P.E.Y.D.D.D.D.D.D.D.D.I.D.Y.D.Z.d.e.w.3.3.3.q.4.w.f.B.K.`.C.x._ W - n m O.O.O.o.Z m Z m C o.o.m o.m n ",
", , n V C O.O.O.o.O.o.o.O.O.C C X.o.C k y K E E K X G ! 4.P.E.P.D.D.D.D.D.D.D.D.P.P.D.Z.d.t.0.9.q.w.w.q.q.w.f.H.H.V.>.~ j l m o.O.O.O.O.o.C C m n n o.O.O.m m m ",
"> , V C C C C C C v v C v C o.o.O.o.z 6 t U ( ] / R ! ` w.D.E.P.Y.D.D.D.D.D.P.P.P.D.S.d.e.w.q.9.w.w.w.q.4.q.g.H.C.7.~ @ % : Z X.o.O.O.O.o.m m m n n Z o.O.m n ; ",
"> > n X.C n n n v , v v v v C o.o.X.> 6 u E ..&.@.+.+.*.t.P.R.P.D.Y.P.Y.D.P.T.P.D.D.l.t.w.q.q.q.w.w.w.q.4.q.f.G.G.2.R o % : m m m o.O.O.o.X.m Z m m o.O.o.n : ; ",
"> n n m C n > , , , n , , , > C o.m n 9 y R +.<.9.<.<.e.d.P.I.P.P.P.P.P.D.P.I.P.S.d.r.w.3.w.w.q.w.w.w.q.<.w.g.H.H.7.^ u 6 : n n m o.O.O.O.O.O.O.o.o.O.O.o.n > M ",
"> n m m C V n > > , , , V C C C o.o.m z 8 d Q +.<.9.e.s.d.Z.S.h.h.h.h.h.h.h.S.S.d.r.w.3.3.w.w.w.w.q.3.q.9.i.H.[.{.v.( u < k m o.O.O.O.O.o.Z o.O.m m m o.o.Z m n ",
"n n m m o.o.n n V C C V C C o.O.O.o.o.C z 9 d Q +.,.e.s.s.s.s.s.i.s.s.r.r.s.s.s.r.w.3.3.3.w.w.w.w.q.3.q.0.N.'.|.}.V.] J 2 0 C O.O.O.O.o.m m o.o.m : M m O.o.m m ",
"n m m O.O.O.C C o.O.O.O.o.o.O.O.O.o.o.O.C : 7 p ! $.w.i.i.w.q.q.w.w.w.w.w.w.w.w.w.w.w.w.w.w.w.w.w.q.q.i.f.J.{.}.}.V.' J t e M V Z O.O.o.n o.O.O.m > n o.O.m m n ",
"> n m o.o.O.O.o.v C o.O.o.o.O.X.m O.O.O.o.> 4 u ~ :.n.m.e.q.<.<.9.9.9.9.3.w.3.3.3.w.w.w.w.w.q.q.q.w.i.b.G.H.`.`.V.>.E a f b B M V o.O.o.o.o.O.O.Z m O.O.O.m n n ",
": n m m o.O.O.o.v v C O.C C O.C m o.o.m Z N 3 u ~ 7.G.G.f.q.<.3.9.q.3.w.q.3.3.3.q.w.3.w.w.w.q.3.q.p.b.H.K.K.M.6.] E j q A N N N M V Z o.O.O.O.O.o.O.O.O.o.o.m m ",
"n m m O.O.O.o.o.O.X.C o.o.C o.O.O.o.n l l h a H ! :.M.G.g.e.0.q.w.q.w.w.w.w.q.q.w.q.q.w.q.q.q.q.i.b.H.'.{.[.u.) J @ 4 q N B N h e l m o.o.O.O.X.m Z m m Z o.m m ",
"n m O.o.o.O.O.o.O.O.O.C o.o.o.O.O.m > : w e f a P ^ :.c.N.G.g.e.q.3.w.w.w.w.w.q.3.<.4.4.4.3.w.p.b.n.H.'.|.|.C.] i o 4 0 l e e h w N V m m X.o.o.o.o.o.O.O.O.m m ",
"> C o.C C O.O.o.O.O.X.C C X.O.O.O.m n > 0 e h h f P ! :.b.H.G.i.w.3.w.w.w.q.w.w.q.q.q.q.4.q.i.b.H.G.J.{.|.|._.;.K o 4 0 0 0 e e e l V V V Z X.O.O.O.O.O.O.O.o.m ",
"V C V > v C C C X.V v v , V O.O.o.O.m z x N S B w 5 H ~ :.v.m.p.e.w.w.e.e.i.i.f.f.g.f.f.a.f.m.J.'.[.{.{.}.].x.' P 5 w 0 N N A A N M C o.O.O.O.O.O.O.O.C n O.C m ",
"n C C C V V C C C v V C v , C O.o.O.C M l A A B c 0 f P ~ $.9.0.r.s.i.e.i.i.g.B.H.H.H.G.G.H.J.~.[.|.|.}.].x.' R j e e N e b N A N M o.X.Z o.o.O.C C O.C , n n m ",
"> C O.X.C C C C V C C o.V v C O.O.O.Z C l e b N N B e j H E ` <.e.i.w.q.q.w.f.B.J.K.J.K.J.H.H.J.~.|.|.].x.( p 5 b N N N e e b b N M Z X.m m o.o.n , C C C , n m ",
"C C o.O.O.o.o.C C n , , > C O.O.C o.o.C C M N x x B c e f p R  .$.$.@.+.+.#.,.7.y.y.y.y.y.y.7.7.y.C._.V.' P 5 w l N B N N A N N B V Z O.O.O.O.O.O.o.O.O.O.C m m ",
"n C o.O.O.O.o.O.O.O.C m C X.O.O.o.C C o.C M l x N c x e w f P I ! ^ ! ! ! ! ~ ( ) ) ) ) ) ) ) ( ( ] ;.' R f 0 N N x x N A b 0 M V C Z m o.o.o.o.O.o.o.O.O.O.m m ",
"n m O.X.X.o.O.O.O.O.O.O.O.O.O.O.o.n C Z C z l B A e x e w q f H K H H H H H H H H K H H H H H H H H J H j A M B N w e e e 0 l C Z C C V V V C C C m m o.O.m m m ",
"m m m X.O.O.C C C O.O.O.O.O.O.C C C n V V V C C B w e x x e f t t u t p t y t y t t t t t a t t t t t 5 e B B N h e h e w N V o.o.V V C C V V V n n m Z o.O.m , ",
"n m C O.o.Z C C C C C C o.O.O.C C o.C V C C O.Z v 0 e e e e q 5 5 5 h q q q q q q q q q q q q 5 q 5 5 q 0 B B x h b b x l V C O.o.z V V V V V , > n o.C C o.m , ",
"n m O.O.C n m C Z C C , C O.o.C o.O.O.o.O.O.O.O.C l 0 w w 0 0 w w w N N x x c N N c A B c w e x x x e w N N x x c S c c C o.O.O.o.C v , , , v , n m X.O.O.m m n ",
"n C O.X.n > > C O.O.O.X.O.o.C o.O.O.O.O.O.O.o.O.O.m l ; k ; l x h b x N N N B S N N N N e q e e B S S A A b x z V V V C o.O.o.O.O.o.V , , , C C m m m X.o.O.m m ",
"n m O.C C C n C O.O.O.O.O.o.o.O.O.O.o.O.O.X.C o.O.o.m n n n M c c A c x N N B B N N N c c e e x B B B A A c c V o.Z o.X.o.C C o.o.O.C C C C X.X.o.O.o.X.X.O.m m ",
", m O.O.O.O.O.o.O.X.C C X.O.O.O.O.o.O.X.X.C V X.o.O.O.O.O.O.Z V B M M x l l c c c z c M M M M M M l l k x B V o.O.X.o.o.o.C m o.O.O.O.O.O.O.O.O.O.O.O.o.m X.m , ",
", , X.O.O.C X.O.o.X.C V X.O.O.O.Z C C C O.O.X.C C O.O.O.o.o.o.C C V M V V > > > M V V C V > V C V V V l V C o.Z o.X.m C o.O.o.m C O.O.O.O.O.O.O.O.o.m o.o.m , > ",
", m X.O.X.m C O.O.X.C n C O.O.C C C C C o.O.X.m C O.O.O.O.Z Z o.C C C C O.V m C m m o.o.C , m C Z C V n C C Z C C C C C O.o.X.m X.O.O.O.O.X.C O.O.X.m O.O.X., > ",
", X.O.O.O.C m X.O.C n n C n n m C o.O.O.X.n , O.O.X.O.O.O.C C o.o.O.O.O.O.O.O.O.o.O.O.O.O.C m o.O.C n n n C V V m O.O.o.o.n n o.O.X.O.O.O.C m X.O.O.O.O.O.X.X.m ",
", m o.o.X.C X.C X.X.m n X.O.C C C O.o.m m X.o.O.C C O.O.O.C C O.O.O.o.m m O.O.O.o.o.X.O.o.m o.m o.m m n C O.C m o.o.C C m o.O.O.C V o.O.O.X.C O.O.O.O.m X.O.X.m ",
", m X.X.C o.O.O.C O.X.C X.O.O.X.o.O.m n o.O.O.C n C C O.O.X.C O.O.o.X.n m O.O.O.Z o.m X.Z o.o.o.Z O.O.C X.O.O.o.o.O.C n Z o.o.m C C X.O.O.X.X.O.O.X.X., , O.X., ",
", n m m X.O.O.O.O.O.O.O.C m O.o.o.O.o.Z o.C C , C X.C O.O.O.O.O.o.X.m X.o.O.X.m m X.m Z X.O.O.O.O.O.O.O.C C O.O.C O.O.o.o.o.C n n X.C O.O.O.X.O.O.X.m X.X.O.m , ",
", , m m m O.X.O.O.O.O.X.m m O.O.o.O.O.O.o.o.C n C X.C C C m C O.O.O.X.X.O.O.m n o.m m m m o.o.O.O.O.O.C m m O.O.O.O.O.o.o.o.C n C X.C C X.C C O.O.O.m O.O.O., : ",
", , , , m m C O.O.O.X.m m O.O.O.o.o.C o.O.O.X.C C O.C C m n C O.O.O.X.o.O.O.C m o.m m n V C C Z O.O.o.m m o.O.O.O.o.Z m O.O.C C X.O.X.C n C C O.O.O.O.X.O.O.m : ",
"m n , n n m m X.O.O.o.X.m X.O.C C m n C O.O.O.X.O.O.O.O.X.O.O.C n m O.O.O.o.O.O.O.m n n n V C o.O.O.X.X.m X.o.C n n m C O.O.o.o.X.O.O.O.C O.O.C n n O.O.O.X.m , ",
"> > , , n , m m , , m n m m m n V n m C C C C C C C X.C C C C C > > m m , , m X.Z m > n n n n n , , n m m m n n n n m C Z m m o.C C X.X.C C C C > > m m , , , > ",
"; : , , m n , , > > > , n , > n V m m n > > , C V , , V , , , n > > n > ; : > , n > > n n n n n > > > , m n > n C n V m > > m m n , , , , , V n > : n > ; > ; ; "
};
