/* XPM */
static char *Group_9_22__resized[] = {
/* columns rows colors chars-per-pixel */
"80 80 209 2 ",
"   c #393D22",
".  c #4B1B30",
"X  c #403D26",
"o  c #44352C",
"O  c #453A2D",
"+  c #4E2736",
"@  c #532338",
"#  c #512D3A",
"$  c #5A2C3E",
"%  c #453B32",
"&  c #473936",
"*  c #4A3B32",
"=  c #55373C",
"-  c #533C3B",
";  c #36451E",
":  c #3A431F",
">  c #364B1E",
",  c #384D1F",
"<  c #2F5216",
"1  c #36521D",
"2  c #3A521E",
"3  c #355B1A",
"4  c #3A5B1E",
"5  c #37631B",
"6  c #3B641D",
"7  c #3D6D1D",
"8  c #3F711F",
"9  c #3C4522",
"0  c #364920",
"q  c #3D4B23",
"w  c #3C452D",
"e  c #3B4D2E",
"r  c #3C5322",
"t  c #375A23",
"y  c #3E5A22",
"u  c #3D532D",
"i  c #3A5D2C",
"p  c #3E4233",
"a  c #3B4C31",
"s  c #3C5331",
"d  c #3B6423",
"f  c #3E6B23",
"g  c #3D642C",
"h  c #3F692C",
"j  c #3F7220",
"k  c #3E6531",
"l  c #3F6830",
"z  c #416B1F",
"x  c #41741F",
"c  c #43781F",
"v  c #43422B",
"b  c #43492A",
"n  c #405526",
"m  c #415925",
"M  c #41552D",
"N  c #425B2A",
"B  c #444433",
"V  c #4B4434",
"C  c #4B4B35",
"Z  c #4E443B",
"A  c #444938",
"S  c #464C3A",
"D  c #4C4B3A",
"F  c #55433E",
"G  c #524A3C",
"H  c #445333",
"J  c #4D5335",
"K  c #415B33",
"L  c #416223",
"P  c #426C22",
"I  c #40672E",
"U  c #406C2D",
"Y  c #427620",
"T  c #457C21",
"R  c #447428",
"E  c #416731",
"W  c #592F40",
"Q  c #563641",
"!  c #5A3C43",
"~  c #5C3944",
"^  c #4E4942",
"/  c #554443",
"(  c #5A4444",
")  c #534844",
"_  c #5A4A47",
"`  c #5D4649",
"'  c #5E4B4B",
"]  c #4B5445",
"[  c #585547",
"{  c #5E514C",
"}  c #584E52",
"|  c #5E5353",
" . c #585458",
".. c #62454D",
"X. c #614C4E",
"o. c #64574D",
"O. c #644C52",
"+. c #6C4D54",
"@. c #645352",
"#. c #6A5355",
"$. c #655C56",
"%. c #6A5954",
"&. c #6B565B",
"*. c #6C5B5C",
"=. c #71575C",
"-. c #735A5D",
";. c #795D5F",
":. c #6B655F",
">. c #695760",
",. c #6A5B61",
"<. c #685E6C",
"1. c #775E60",
"2. c #6D6361",
"3. c #6E6C64",
"4. c #6E6368",
"5. c #6A686F",
"6. c #6F6B6E",
"7. c #726462",
"8. c #796263",
"9. c #726A65",
"0. c #75666C",
"q. c #726E6A",
"w. c #73766C",
"e. c #7A766E",
"r. c #74796E",
"t. c #79796F",
"y. c #696370",
"u. c #777776",
"i. c #767C72",
"p. c #797D72",
"a. c #767B7D",
"s. c #806A6A",
"d. c #83776D",
"f. c #867771",
"g. c #847C72",
"h. c #8A7E75",
"j. c #478022",
"k. c #498423",
"l. c #4C8A24",
"z. c #778175",
"x. c #7A8475",
"c. c #7C8877",
"v. c #77827A",
"b. c #78857C",
"n. c #7E8C7A",
"m. c #7F917D",
"M. c #8E8479",
"N. c #828E7C",
"B. c #8C897B",
"V. c #92857C",
"C. c #928B7E",
"Z. c #81937E",
"A. c #6A6E82",
"S. c #767E80",
"D. c #777D8C",
"F. c #768182",
"G. c #788684",
"H. c #7A8B84",
"J. c #7B8E8A",
"K. c #7C918C",
"L. c #798898",
"P. c #7D9493",
"I. c #7E9A96",
"U. c #7E9A9B",
"Y. c #7C8FA0",
"T. c #7E99A6",
"R. c #839680",
"E. c #8D9582",
"W. c #859B83",
"Q. c #8B9B84",
"!. c #959483",
"~. c #989B87",
"^. c #A49D8A",
"/. c #8BA48A",
"(. c #93A28A",
"). c #9CA38C",
"_. c #96AA8F",
"`. c #9DA88F",
"'. c #9BAD91",
"]. c #98B495",
"[. c #A1A28D",
"{. c #A9A38F",
"}. c #A4AD93",
"|. c #AAAF94",
" X c #A5B296",
".X c #ABB196",
"XX c #ACB498",
"oX c #A5B89A",
"OX c #ACBA9C",
"+X c #BBB495",
"@X c #B6B698",
"#X c #B5BB9C",
"$X c #819BA5",
"%X c #82A6AA",
"&X c #83A5B4",
"*X c #84AAB4",
"=X c #C7B794",
"-X c #C4B997",
";X c #CCBA96",
":X c #CDBE99",
">X c #D2BC96",
",X c #D3BE98",
"<X c #BBC19F",
"1X c #B5C1A1",
"2X c #BDC4A1",
"3X c #C4C19E",
"4X c #CBC39D",
"5X c #D3C39B",
"6X c #C6C8A2",
/* pixels */
"< 5 8 8 8 x 8 x x 7 7 x c x c x 8 c c c 7 7 8 T c c c c 8 7 7 8 8 8 c 8 8 T c 7 5 7 x 7 8 8 8 8 c 7 7 x Y c c c 8 c c 8 8 7 8 c c x c Y 7 7 7 7 8 x Y 8 7 c 7 3 ",
"6 7 8 x Y Y 8 8 8 8 8 c c c c 8 8 j 8 8 8 8 c j 8 8 8 8 8 Y T T j.Y x 7 8 c T T T x x z x c 8 8 8 8 8 c Y c 8 8 8 8 8 8 8 8 x c Y 7 7 x x Y T T T Y x 8 x T x 7 ",
"c c x c j.T x x x x c j.T T Y Y Y T j 8 8 T T c 8 j 7 j j j.l.l.l.j.x 8 8 T l.l.l.k.Y T j.T 8 8 8 8 c j.T T T Y Y Y 8 8 8 Y T Y Y Y 7 x Y j.l.l.l.j.x 7 x T c c ",
"x c k.l.k.T x Y c x c j.k.l.l.l.k.j.j 8 c k.l.k.j.j.k.j.k.j.j.l.k.k.j.c c j.j.j.j.j.k.k.k.j.c 8 c c c j.k.l.l.l.l.j.c 8 j.k.l.k.j.j.j.k.j.j.j.l.k.k.j.c c j.c x ",
"x x j.j.k.l.j.j.k.c T k.l.l.l.k.l.l.T j.l.l.l.l.l.l.l.l.k.T T j.T T l.j.T j.j.k.j.j.j.j.l.l.j.j.k.j.T j.l.l.l.k.l.k.j.j.k.l.l.l.l.k.l.l.l.T T T T T k.k.T j.c x ",
"x x x c j.l.l.l.k.k.k.k.l.l.T T T l.l.l.l.l.l.l.l.l.l.l.k.T Y T 8 j j.l.l.Y j.l.k.T x Y j.l.l.l.k.k.j.k.l.l.T Y j.l.l.l.l.l.l.l.l.l.l.k.T T T T x x k.l.k.T x x ",
"7 x x c T T T T T Y Y Y Y T k.l.l.k.j.T Y j.j.k.k.l.l.k.k.Y c Y 7 8 j.l.l.T Y Y T T x T T T T T c c 8 T Y T k.l.l.k.T c c T k.k.k.l.l.l.l.T c T 7 8 T l.l.T 7 6 ",
"7 7 x c T c x x 8 8 8 j 8 8 T j.k.j.T Y T Y Y x T l.l.l.l.j.j.j.Y T k.l.l.Y 8 c T Y Y j.T x x 8 8 8 8 8 7 6 8 Y Y Y T T Y T Y j T l.l.l.l.T j.j.T Y k.l.l.Y 7 5 ",
"8 8 8 j.j.8 8 8 8 j 8 8 8 8 8 j j.j.k.l.l.T c 8 Y l.l.l.l.l.l.l.k.j.l.l.l.7 Y T T Y Y j.T x z 8 8 8 8 7 4 , ; > 4 7 T l.l.T c z Y l.l.l.l.l.l.l.l.k.l.l.k.8 7 7 ",
"7 8 c j.j.j 8 8 8 8 8 8 Y T j k.k.k.l.l.l.k.T k.l.l.l.l.l.k.k.k.T Y Y k.l.j.l.k.T Y c T T c 8 8 8 j 8 5 r X * & v y c l.l.l.T j.l.l.l.l.k.k.k.k.Y Y Y k.k.j.T x ",
"8 8 8 k.k.j.j j Y T T Y T k.l.l.l.j.l.l.l.k.k.l.l.l.l.l.T T k.k.Y 6 8 T l.j.l.l.j.T x j.k.j.x x x Y z y b ) +.+._ J P T j.j.k.l.l.l.l.k.T T k.k.Y 6 7 T l.k.T c ",
"c 8 j l.l.k.T T j.l.l.l.k.k.l.l.l.j.l.l.T j.l.T k.l.l.T c T l.l.Y 7 8 k.k.Y T l.l.j.Y k.l.l.T T Y x L H [ 7.h.M.d.o.J z 6 T l.T k.l.l.j.x j.l.l.j 8 x j.l.Y x x ",
"8 8 8 j.l.l.l.k.8 T k.l.j.j.l.j.T k.l.l.k.l.l.k.k.l.l.l.j.k.l.l.j.T T k.k.T c T T c Y T j.l.l.T 7 2 b o.:.p.(.}.^.f.o.b y c k.k.k.l.l.l.k.k.l.l.k.T k.l.l.T x 7 ",
"7 8 c j.k.l.l.k.8 8 j.l.j.T k.j.T l.j.T l.l.l.k.T l.l.l.l.l.j.Y P P Y z z z z 7 6 6 6 6 L Y k.j.6 : * =.e.R.].oX}.C.=.- q x l.k.j.l.l.l.l.l.l.l.l.l.l.l.k.j.T x ",
"c c j.l.l.l.k.k.l.j.T k.k.j.k.k.k.j.Y 7 T k.l.T x T k.k.k.k.Y 2 9   9 ; : 9 : 9 9 9 9 9 b n z k.T n - -.e.Z._.].`.C.;.= 9 P l.T Y T j.l.l.l.l.j.T T j.T j.j.T T ",
"8 c l.j.k.l.k.k.l.l.k.j.k.k.k.l.l.T x z Y T T x z T T T Y P n C F ( F F F F F G F F F F F F n z c y C X.:.r.Z./.Z.t.#.* > 6 T x Y Y T T T T k.k.k.j.j.l.l.k.j.c ",
"8 c k.c T l.k.k.l.l.j.Y T k.l.l.l.Y c x x x Y Y T T T Y 6 r C %.9.s.8.8.8.-.-.&.&.%.=.,.=.@.D r z 4 q C [ :.e.p.w.$.G 9 y 7 Y Y Y T T Y Y j.j.l.l.l.l.l.l.l.j.c ",
"c c x 8 x j.T j.l.Y j 8 8 Y j.l.l.l.j.j.j.j.k.l.k.l.k.x r V %.d.!.!.B.C.C.B.M.p.w.w.t.p.w.2.{ V v 1 4 2 C X.1.8.%.D n z Y T l.l.l.k.l.l.l.l.l.l.l.l.l.c Y j.T c ",
"x c j.c c Y c T T Y Y T j 8 j.l.l.l.k.j.T T k.l.l.k.x m C %.h.~.XX#X.X|..X}.).Q.Z.Z.R.n.c.p.2.@.V q 3 7 n * ( ( G n P T T T j.l.l.l.l.l.j.k.k.l.j.c k.c x Y c c ",
"8 c l.k.T T T Y Y Y T j.Y 8 j.l.l.k.k.k.T T j.l.j.Y m C @.h.{.@X6X6X3X<X<XOXoX'._./.W.W.R.c.M.9.@.C r z 1 : b X q 6 T k.T T T l.l.l.l.k.c T k.k.c c c j.T x x c ",
"Y T j.l.l.l.k.j.j.Y x 8 j Y l.k.j.j.k.l.l.l.l.j.7 2 V @.e.[.@X-X:X,X:X-X@X.X X}._.(.W.m.m.m.N.r.:.' Z 9 > 5 T Y z Y j.l.l.l.l.j.j.k.k.l.l.l.l.l.l.l.l.l.l.T c c ",
"x T k.l.l.k.k.l.l.k.T T T T l.l.j.c j.l.k.k.T 7 y B %.f.~.@X3X:X>X>X=X+X.X X.X X[.(.W.m.Z.Z.m.x.w.7.@.& q 6 k.l.T x T l.k.j.T k.k.j.j.j.k.k.k.k.l.k.k.l.l.j.c c ",
"x c l.k.k.j.k.l.l.l.l.l.l.l.l.l.k.x Y j.Y 8 6 r C @.M.{.@X4X5X,X>X;X+X.X.X}. X.X'.(.Q.m.m.Z.m.c.i.e.7.{ D N Y k.k.c Y T Y x c l.l.j.j.Y j j T j.c x Y k.l.j.c c ",
"c c T j.l.l.j.T j.k.l.l.l.l.l.j.T T Y c x 6 q V @.g.).+X-X:X>X>X=X+X.X|.}.}..X.X}.~.W.m.m.Z.c.z.i.p.u.2.%.G n L x T T x x T k.l.l.j 8 T T T T j 8 Y T j.k.k.T x ",
"x c j.k.k.k.T T T T T T k.l.l.j.T j.Y 8 7 n C o.f.^.+X4X:X>X>X=X+X|.}.'.}. X.X.X`.(.Z.Z.m.Z.n.x.z.x.z.q.=...X 4 T j.T Y T T l.l.j.8 j Y T Y 8 j 8 8 j.j.j.j.c 8 ",
"8 c l.l.T 8 Y j.k.j.Y j T l.j.j.k.l.T 6 n D %.M.^.+X4X5X5X,X=X+X|.|.}.}.}. XXX.X}.(.Q.m.m.Z.Z.m.c.n.x.q.=.( X z j.l.l.T l.l.l.l.k.Y 8 j 8 8 8 8 8 c j.l.j.j.j.8 ",
"x T k.j.c 8 8 c l.l.l.k.k.k.j.k.l.l.Y y * o.g.[.+X3X4X5X,X=X+X.X|.}.}. X}.}..X}.[.(.Z.m.m.Z.Z.Z.m.n.z.q.&._ v m T l.l.l.l.l.k.l.l.k.c 8 8 8 8 T c c c j.j.l.j.8 ",
"x T k.j.j.c 8 c l.l.l.l.l.k.j.l.l.l.7 r * #.V..X2X6X4X4X4X3X#XOXXXoXXXXXXX X X[.(.Q.Z.m.m.m.Z.Z.Z.n.z.q.7.@.V M L T k.l.l.T T k.l.l.T c Y j.k.k.k.l.l.j.j.j.j.c ",
"x c l.l.l.l.l.k.l.j.T Y k.l.l.l.l.l.z 2 * #.M.}.1X2X2X2X<X#X<XOXOXOXOXXXXX}.`.~.Z.Z.Z.Z.Z.Z.W.Z.Z.c.z.w.w.3.| ) b 4 x j.k.Y Y k.l.l.l.k.l.l.l.l.l.l.l.k.j.j.8 8 ",
"7 c j.l.k.c k.l.j.j.j.Y k.l.l.l.j.T 6 > o #.B.}.XX}.~.!.!.!.!.!.~.~.~.[.}.[.(.Q.m.m.Z.Z.Z.Z.Z.Z.m.x.r.r.i.i.9.@.F b 4 T l.l.l.Y T l.l.l.l.l.l.l.l.k.c j.k.8 8 7 ",
"8 x k.l.j.c j.k.l.j.Y Y T k.k.j.T j.7 , O #.C.{.).M.1.O.=.&.=.=.8.s.g.E.~.(.Q.R.m.m.Z.Z.Z.Z.Z.Z.m.x.z.r.x.p.q.=...v 6 T k.k.T T j.l.l.l.k.j.j.l.l.j.j.l.k.j.8 8 ",
"x j.l.l.k.j.c j.l.T j Y c c Y c T k.x r * #.C.{.!.8.$ . @ @ @ @ W ..*.w.n.Q.W.R.Z.m.Z.Z.Z.Z.Z.Z.m.c.z.i.p.p.9.#.- , P l.k.Y 8 l.l.k.l.l.l.c c k.k.l.l.l.l.k.j.c ",
"8 c k.k.k.T j.k.j.j.T x j.j.T T j.k.z > * %.B.`.C.;.~ @ $ $ $ $ ~ ..$.6.z.H.Z.Z.Z.Z.Z.Z.Z.Z.Z.Z.m.c.z.w.i.r.7.+./ q z T T j.k.k.j.T k.l.l.T T k.l.l.k.c j.l.k.c ",
"8 c T j.j.j.k.k.c l.k.Y j.l.l.j.k.k.z > O X.g.C.C.M.;.-.;.;.;.;.1.7.3.w.x.m.Z.Z.Z.Z.Z.Z.Z.Z./.Z.m.c.z.r.i.w.7.@.F q 6 x T l.l.T Y T j.l.l.k.j.l.l.k.j.c 8 k.j.8 ",
"8 x T T j.l.l.l.l.l.l.l.T Y l.l.k.l.c 2 * ..q.Z./.`.).[.[.).).[.~.R.n.c.m.m.Z.Z.Z.Z.Z.Z.Z.Z.Z.Z.m.x.z.w.i.i.3.O.- b 7 j.k.k.T c Y j.j.j.l.l.k.l.l.c T j.k.l.T 8 ",
"8 8 c 8 T l.k.k.l.l.l.j.T T l.l.l.l.x 2 * _ 9.Z./.oXoXOX X}. X X'.(.W.R.m.Z.Z.Z.Z.Z.Z.Z.Z.Z.Z.Z.m.c.z.r.v.v.6.O.F q P j.l.T T c T k.T T j.T T l.l.l.j.j.l.l.8 5 ",
"8 8 8 8 T j.T j.l.l.j.c T k.l.l.k.k.7 2 * X.9.N./.].].].]._._.]./././.Z.Z.Z.Z.Z.Z.Z.Z.Z.Z.Z.Z.Z.m.x.z.z.b.H.u.&.- b z T l.l.T T j.k.j.T Y Y Y l.l.l.j.k.l.l.8 6 ",
"c 8 8 x 8 8 T j.l.l.k.j.T j.k.T T Y 6 0 O ..9.N.Z.Z.Z.m.m.Z.Z.Z.Z.Z.m.Z.Z.Z.Z.Z.Z.Z.Z.Z.Z.Z.Z.Z.n.x.r.x.J.K.a.>.F : 4 c l.l.l.k.j.l.l.l.T l.l.T x c l.l.l.j.j.8 ",
"x c c j.j.T T j.j.j.j.j.j.j.j.T j.j.z r * ` *.7.9.3.3.z.c.m.m.m.Z.Z.Z.Z.Z.Z.Z.Z.Z.Z.Z.Z.Z.Z.m.n.x.z.w.x.K.K.S.>.- 9 z T k.k.k.l.k.k.l.l.k.l.l.k.x x l.k.c T c c ",
"8 x j.k.k.l.k.T T c T k.j.l.T j.l.k.x m V ! ..X._ _ [ :.z.Z.Z.Z.m.Z.Z.Z.Z.Z.Z.m.Z.Z.Z.Z.Z.Z.c.x.z.w.w.x.K.K.S.>.F b P l.T T T l.l.j.j.j.j.j.k.l.c c k.c 8 c c 8 ",
"5 x k.j.j.k.k.k.k.T T l.l.k.l.l.k.k.x y & = ~ Q + + Q @.r.Z./.Z.Z.Z.Z.Z.Z.Z.Z.Z.Z.Z.Z.Z.Z.Z.m.z.w.q.w.v.J.L.S.>.F b z k.c j.k.l.l.k.l.l.T T T j.k.k.l.j.j.l.c 8 ",
"7 x T T j.j.T T T T T k.j.j.j.T T j.f r V ! ..Q + + # } r.Z./.Z.Z.Z.Z.Z.Z.Z.Z.Z.Z.Z.Z.Z.Z.Z.n.z.w.w.r.v.J.R.a.>.F > 6 c c c k.k.T T T T T j.k.k.l.k.T Y c l.j.x ",
"c c x c j.T x 7 x Y T T T Y T j Y Y 6 0 & ! ....! # Q o.r.Z./.Z.Z.Z.Z.Z.Z.Z.Z.Z.Z.Z.Z.Z.m.Z.c.z.w.w.w.v.J.R.a.>.F 9 4 7 x T c c Y j 7 x Y k.l.l.l.j.x 8 8 T c c ",
"8 c k.l.k.j.x x c x x j.l.l.l.l.k.j.6 > * ` *.7.*.@.@.:.z.Z.Z.Z.Z.Z.Z.Z.Z.Z.Z.Z.Z.Z.Z.Z.m.m.x.r.w.w.w.a.P.L.a.>.F : 3 z T k.l.k.j.j.j.k.k.T k.k.k.k.j.c c j.c 8 ",
"8 x j.j.k.l.k.j.j.T T k.l.l.k.l.k.k.z , * ' 9.t.z.w.w.r.n.Z.Z.Z.Z.Z.Z.Z.Z.Z.Z.Z.Z.Z.Z.Z.c.x.z.r.w.w.r.z.J.J.S.>.- b z T k.l.l.l.l.k.l.l.l.T T T T T l.j.T j.c 8 ",
"x x Y Y j.l.l.l.k.k.k.j.l.l.T T k.l.c y * ` q.c.R.m.m.N.Z.Z.Z.Z.Z.Z.Z.Z.Z.Z.Z.Z.Z.Z.Z.c.x.t.r.r.w.w.r.z.J.P.S.>.F n z l.l.l.l.l.l.l.l.k.k.T T Y 8 8 k.l.l.T x c ",
"7 8 x T T T T T T Y Y Y T T j.k.k.k.7 > O X.q.N.W././.W.Z.Z.Z.Z.Z.Z.Z.Z.Z.Z.Z.Z.Z.Z.m.x.t.w.w.w.r.w.r.z.J.P.a.>.F 9 4 c T T j.j.k.l.l.l.k.Y T T 7 7 T l.l.T 7 6 ",
"7 7 Y j.T x x x Y 8 8 8 z x T k.l.j.7 , * ..7.p.m.W.W.W.R.Z.Z.Z.m.Z.Z.Z.Z.Z.Z.Z.Z.Z.x.z.r.r.r.r.r.w.w.v.R.J.a.&.F q 6 T Y T Y T T l.l.l.l.j.T j.T Y l.l.l.Y 6 5 ",
"7 x x c T 8 8 8 8 8 8 8 8 8 8 j j.j.8 n * ` -.r.x.n.Z.Z.Z.Z.Z.Z.Z.Z.Z.Z.Z.m.m.m.b.z.r.w.r.r.r.r.r.w.r.b.K.K.a.>./ 9 z l.k.j.c x T l.l.l.l.l.l.l.l.k.l.l.k.8 7 7 ",
"7 7 c c T c 8 8 8 8 8 8 Y T j k.l.j.x 4 * ` *.w.z.x.c.m.Z.Z.Z.W.Z.Z.Z.Z.Z.K.m.m.z.z.r.w.w.r.r.r.r.z.v.J.P.K.i.&.F q z l.l.k.T j.l.l.l.k.k.k.k.k.T x T T l.j.T x ",
"7 x c j.k.j.c x Y Y T T j.k.k.l.l.k.x m * _ -.w.i.p.z.c.m.Z.Z.Z.Z.Z.Z.Z.Z.Z.c.z.z.r.r.r.r.r.w.r.i.v.H.K.I.K.a.>.F q P l.l.k.k.l.l.l.l.k.T T k.l.Y 7 z T l.j.T c ",
"c x c l.l.l.T c j.l.l.l.k.k.l.l.l.j.z n * ..7.r.i.i.r.z.c.m.Z.m.Z.Z.n.Z.m.m.z.z.w.r.r.r.r.r.w.w.i.b.J.U.T.T.S.,.- 9 z l.T j.l.T k.l.l.j.x T l.l.Y 7 x k.l.c x x ",
"z 8 c j.l.l.l.j.8 T k.l.j.T l.k.T k.x r * ..0.i.z.z.r.z.z.x.c.z.c.c.x.c.v.z.z.r.w.w.r.r.r.r.w.w.r.v.J.T.T.T.L.y.F 9 7 l.l.l.l.T k.l.l.l.k.k.l.l.j.T k.l.l.T c z ",
"7 8 c c k.l.l.k.8 j T l.j.T k.j.T l.8 , * ` 7.w.z.i.r.r.r.z.i.i.z.t.r.t.z.r.r.r.r.r.r.r.r.r.w.w.i.v.J.T.*X*XY.5.F : 6 j.l.l.l.j.k.k.l.l.l.l.l.l.l.l.l.l.l.T Y x ",
"8 c k.l.l.l.k.k.l.j.T l.j.j.j.l.l.k.7 0 v ) @.4.q.w.t.r.w.w.w.w.w.w.w.w.w.r.w.r.r.r.r.r.w.r.r.z.v.G.J.P.T.Y.A. .G n 3 6 T l.l.T c T k.k.l.l.l.j.T T j.T T k.T Y ",
"8 c l.k.k.l.l.k.l.l.k.j.k.k.k.l.l.Y 7 4 t A ) } $.7.w.r.r.w.r.r.w.w.r.w.r.r.r.w.z.r.r.r.w.r.i.v.H.K.K.G.L.5. .] K u t y f Y T Y x T T k.c c k.k.T j.k.l.l.l.T T ",
"8 T k.Y T l.k.l.l.l.k.T T k.l.l.l.Y R f d s A Q X.7.i.x.i.r.w.w.r.r.w.r.r.r.r.r.w.i.w.w.r.i.v.G.P.U.U.F.4.` B H I i i t f 8 Y Y Y T T T Y T j.l.l.l.l.l.l.l.j.c ",
"c T Y 8 Y T T j.k.j 8 8 8 j k.l.l.k.j.Y f i B = O.q.H.n.z.r.w.w.r.i.i.w.w.w.w.w.w.w.w.w.z.v.G.J.I.%X&XL.4.! o b U U g g f Y l.l.k.l.l.l.l.l.l.l.l.l.l.T x j.j.c ",
"8 c j.Y Y Y Y T T Y Y T j 8 j.l.l.l.k.T h i B - O.u.J.K.v.w.w.w.i.w.i.w.w.w.r.w.w.w.w.z.v.H.H.J.I.&X&XY.y.( O n U U U g f Y l.l.l.l.l.l.j.k.k.l.T c j.c x c c x ",
"8 T l.j.T T T Y Y Y j.j.j 8 j.l.l.k.k.T d s A ! } 5.G.J.G.i.i.i.w.i.i.i.z.z.z.z.i.i.z.b.J.P.U.U.U.&XT.L.<._ v M I g l h f Y T l.l.l.l.j.Y T k.k.c x j.j.c 8 x c ",
"c T j.l.l.l.j.T j.Y 8 8 8 c l.k.j.j.j.Y U K K S ) | 6.v.H.J.H.x.z.i.v.b.H.J.K.J.J.J.J.K.I.U.%X*X&X$XD.<.} S u i i k k U R j.l.j.T l.k.l.l.l.l.l.l.l.l.l.l.c c c ",
"c T k.l.l.l.l.l.l.k.j.T T j.l.l.k.Y Y Y U I i i H Z @.4.F.K.H.x.w.w.i.v.G.J.K.K.J.J.J.J.K.I.%X&XT.D.<.) S N U g k i k U Y Y j.j.l.j.T k.k.k.k.k.l.k.j.l.l.k.j.c ",
"x j.l.k.j.j.k.l.l.l.l.l.l.l.l.l.k.c 8 j d d h U i w -  .5.v.a.q.7.:.3.6.a.v.F.F.F.S.S.a.a.a.L.T.D.y./   u U U U g i d d P 7 Y l.l.T T Y Y Y T T T c c k.l.j.c c ",
"x c c j.l.l.j.T j.k.l.l.l.l.k.j.T T j 7 f f U E i e a ^ @.:.-.#.#.o.@.@.$.,.4.2.,.2.,.2.*.,.y.y.y. .^ s g U U l i i d 7 8 T k.l.k.Y Y T T Y Y Y x x T j.k.k.c 8 ",
"x c T k.k.j.T T T T T T l.l.k.T T T T Y Y Y R U h i s a ^ / ` ! ! / / ( ( / ( ( / _ / _ ! / ` ` ) ^ s i h h l i g P Y Y T k.k.l.k.f Y Y Y Y j 8 8 8 j.j.j.j.c 8 ",
"8 c l.l.j.8 Y j.k.T Y Y T l.k.k.l.l.k.l.l.j.T R f d i a p & & % % % % % % % % % % % % % &   & o   a i i g g I g R T T k.l.k.k.l.l.Y j 8 8 8 j x 8 c k.k.j.j.c 8 ",
"x c l.j.c 8 7 Y l.l.l.k.l.l.T k.l.l.l.l.l.l.j.T R h g s a p a a a s s s s H u s M s s a a w w e s k k l E k g P T l.l.l.l.l.k.l.l.k.Y j 8 8 Y j.c c j.j.k.l.c c ",
"x c k.k.T Y c j.l.l.l.l.k.k.T l.l.l.l.l.l.j.j.j.T R g g g g g g g k g g g g l k g k g g i i i g l E g h l U f T k.l.l.l.k.k.T l.l.l.T Y T c j.k.l.k.j.j.j.k.j.c ",
"8 j.k.l.l.l.l.k.l.j.T Y j.l.l.l.l.k.l.k.j.Y Y k.k.T R j Y R R l l l U h g g l l I U h U U U l l h h f d d R T k.l.k.j.j.j.T c j.k.l.l.l.l.l.l.l.l.l.l.j.j.j.c 8 ",
"8 8 k.l.k.T k.l.j.k.T Y j.l.l.l.T T Y T l.l.k.Y T k.k.k.k.T j.h l k h g g i g i g g g U l l l l h f f z T k.l.k.j.j.T T l.l.j.T j.l.l.l.l.l.k.l.l.k.j.j.j.c 8 7 ",
"8 8 k.l.k.8 j.k.l.j.Y x j.l.k.j.T T T T l.l.j.T j.k.l.l.l.T j h h h h h h h d d g h h h h i d h j j x x T k.k.T T j.T T k.k.j.c j.k.l.l.l.j.k.k.l.j.j.l.l.c 8 7 ",
"8 j.l.l.k.j.c j.l.T c x c Y c c T l.l.l.j.j 8 k.k.j.l.l.l.j.j T R j Y R Y j j R R Y Y Y j f d j T R x c T Y c R T k.l.l.j.c x l.l.j.l.l.l.j.c k.j.l.l.l.l.k.j.8 ",
"8 c l.j.j.c k.j.j.j.c x j.k.T c j.k.j.T j.j.k.k.k.j k.l.l.j.Y j.j.j.j.c 8 k.l.l.T T T T T Y Y T T T T j j.k.T c k.k.j.T j.j.k.k.j.T k.l.l.j.c k.l.l.k.c j.k.k.j.",
"8 c j.j.j.j.l.k.c l.k.c k.l.l.k.k.l.T c T l.l.j.j j.k.l.l.k.k.l.l.k.j.8 c l.l.l.k.j.j.j.j.j.l.l.T l.k.Y j.l.l.k.k.k.T c T l.l.T 8 T j.l.l.k.k.l.l.k.k.8 8 l.j.8 ",
"8 x c j.k.l.l.l.l.l.l.l.T c l.k.j.l.k.j.k.j.j.8 T j.j.k.l.l.k.k.l.j.j.j.k.l.j.T T j.T T j.l.l.l.l.l.l.l.Y T l.k.j.l.l.j.j.j.T x 8 k.j.k.l.k.k.l.k.j.j.j.k.l.c 8 ",
"8 8 c 8 c l.j.l.l.l.l.k.Y T l.l.l.l.k.k.l.j.T 8 j.k.T j j.j j.l.l.j.j.j.l.l.T 8 j.T Y x T l.k.k.l.l.l.k.T T l.l.l.l.k.k.l.j.T c j.k.T Y j.T j.l.l.k.j.j.l.l.8 5 ",
"8 8 8 8 c j.c k.l.l.j.c j.j.l.l.k.l.j.j.l.l.j.T j.l.j.Y T Y j.k.l.l.k.k.l.l.j.Y j.T Y x Y T T j.l.l.k.c c k.l.l.l.j.j.j.l.l.j.T k.k.j.Y c c T k.l.l.k.l.l.k.8 5 ",
"c 8 8 8 8 8 j.j.k.l.j.j.c j.k.T Y Y c T l.l.k.k.j.l.l.l.j.k.k.j.8 c l.l.l.k.k.l.l.T z x Y x T k.l.k.j.j.j.j.k.T Y Y x T l.l.k.j.k.l.l.l.j.l.l.j.c 8 l.l.l.j.j.8 ",
"7 7 8 c c 8 c c c c c c c c c c Y x x Y T T T j.T T j.j.T j.j.j 7 7 T T 8 8 T j.T x 8 x x Y x c 8 c c c c c c c c x c T T T T j.T j.j.j.Y j.T Y 8 8 c c 8 8 8 8 ",
"5 5 8 8 c 8 8 8 7 5 7 8 x 8 8 8 c c c c 7 7 8 T Y 8 8 8 8 8 8 T 7 7 8 7 5 5 7 x 8 8 8 8 x Y x 7 8 5 7 8 8 8 7 8 Y c T x 7 7 x Y 8 8 8 8 8 8 8 T 7 5 8 7 5 7 5 5 "
};
