/* XPM */
static char *Group_9_8__resized[] = {
/* columns rows colors chars-per-pixel */
"80 80 179 2 ",
"   c #1E3C2E",
".  c #2A3F27",
"X  c #213E2E",
"o  c #243E33",
"O  c #264C1D",
"+  c #2A4E1E",
"@  c #2F5216",
"#  c #2C531F",
"$  c #335C1B",
"%  c #37631B",
"&  c #39661C",
"*  c #3D6D1E",
"=  c #3F711F",
"-  c #1F402E",
";  c #2A4A25",
":  c #24422E",
">  c #2A4D2C",
",  c #324C2F",
"<  c #2F5421",
"1  c #2E542B",
"2  c #305622",
"3  c #325A23",
"4  c #35522D",
"5  c #365A28",
"6  c #3A5D2B",
"7  c #264331",
"8  c #2D4536",
"9  c #294B34",
"0  c #264739",
"q  c #2C453C",
"w  c #2D493E",
"e  c #334E32",
"r  c #2C5031",
"t  c #355233",
"y  c #3A5931",
"u  c #366222",
"i  c #3A6622",
"p  c #3D6B22",
"a  c #3D642B",
"s  c #3F682D",
"d  c #3F7221",
"f  c #41751F",
"g  c #43781F",
"h  c #406F24",
"j  c #416A2D",
"k  c #417620",
"l  c #457C21",
"z  c #487F22",
"x  c #2B4F46",
"c  c #2D5545",
"v  c #2C524D",
"b  c #325343",
"n  c #305B4C",
"m  c #2D5653",
"M  c #2E5B59",
"N  c #325D55",
"B  c #325D5A",
"V  c #35655A",
"C  c #37685C",
"Z  c #3A6A5D",
"A  c #356462",
"S  c #366B62",
"D  c #3B6E62",
"F  c #3A7368",
"G  c #3E7A71",
"H  c #3C7E7A",
"J  c #426F61",
"K  c #4A6F61",
"L  c #447162",
"P  c #4D7261",
"I  c #407D73",
"U  c #478022",
"Y  c #498423",
"T  c #4C8A24",
"R  c #3D817D",
"E  c #438374",
"W  c #478B77",
"Q  c #458679",
"!  c #458C79",
"~  c #47917C",
"^  c #4A927D",
"/  c #3E7F89",
"(  c #3F848D",
")  c #40898B",
"_  c #4C9681",
"`  c #4D9A84",
"'  c #4E9D88",
"]  c #509F83",
"[  c #569F88",
"{  c #418F94",
"}  c #469798",
"|  c #51A185",
" . c #56AA87",
".. c #51A48A",
"X. c #55AC8E",
"o. c #4CA298",
"O. c #4FAA9E",
"+. c #52A790",
"@. c #54AC91",
"#. c #54AE99",
"$. c #57B092",
"%. c #57B797",
"&. c #5AB594",
"*. c #5CBA95",
"=. c #5BBD99",
"-. c #66A78F",
";. c #62A790",
":. c #65A890",
">. c #6CAB92",
",. c #72AD92",
"<. c #7AAE90",
"1. c #62BF9A",
"2. c #4AA0A7",
"3. c #50AEA5",
"4. c #53B2A4",
"5. c #55B3A7",
"6. c #58BBA5",
"7. c #59BEAA",
"8. c #4FACB5",
"9. c #5EC39C",
"0. c #5FC99E",
"q. c #61C69E",
"w. c #63C99F",
"e. c #5AC1AC",
"r. c #5BC5B4",
"t. c #5BC6BB",
"y. c #5DCABA",
"u. c #64CAA1",
"i. c #73CCA4",
"p. c #67D3A5",
"a. c #6BD3A6",
"s. c #6ED5A9",
"d. c #6BD9A9",
"f. c #72D6A9",
"g. c #77DAAC",
"h. c #60CCB4",
"j. c #75E0AF",
"k. c #7DE5B4",
"l. c #52B3C4",
"z. c #59C5C4",
"x. c #5BCAD7",
"c. c #62D3C8",
"v. c #64DCD9",
"b. c #63DDE4",
"n. c #66E3E5",
"m. c #68E8F0",
"M. c #84B191",
"N. c #8CB391",
"B. c #84D8AE",
"V. c #85DBB3",
"C. c #8BDDB3",
"Z. c #92DEB3",
"A. c #83E5B5",
"S. c #8BE3B5",
"D. c #81E8B6",
"F. c #8AE8B7",
"G. c #85E9B8",
"H. c #8BEEBC",
"J. c #93E1B5",
"K. c #9BE1B3",
"L. c #96EFBF",
"P. c #8CF0BE",
"I. c #95F1BF",
"U. c #98F0BF",
"Y. c #A4E3B3",
"T. c #ACE5B3",
"R. c #B6E8B3",
"E. c #C1EBB4",
"W. c #94F4C1",
"Q. c #9BF5C4",
"!. c #9CF6CA",
"~. c #A2F7CA",
"^. c #A5FBCD",
"/. c #ABFACC",
"(. c #B3FBCD",
"). c #BCFBCD",
"_. c #C3FBCD",
"`. c #CAFBCB",
"'. c #D3FCCB",
/* pixels */
"@ % f * f = = f f * * f g g g f f f g f * * = l g f g g = * * * f f f f = l f * % & f = * = = = = * * = g = g = = g g f * * = g g f g f f * * f * f f = f g * $ ",
"& * f f f f = = f * f l g f f = = k f = = = g k f = = = d k l l l g f = = g l l g f f f f g = = g = f g k g g = = g = = = = f g f * f * * k l l l l f * f g f & ",
"g g f g l l * f f f g g l l l f k k f = = g l k = d * = k l T T T U f * f l T T T U f l U l = = = g g U l l l = d k = = = k l g f = * f k U T T T U f * f l g g ",
"f g Y T T z f g g f g U Y T T T Y U f d g Y T Y U U U Y Y Y U Y Y Y U g f U U U U Y Y T Y U g f g = g U Y T T T T U g = l Y T Y U z z U U U Y Y Y Y U l g z g f ",
"f f U U Y T Y z U l l Y T T T Y Y Y U U T T T T T T T T Y U l U l l Y U l U U Y U U U Y Y T Y U Y g l Y T T T Y Y Y Y U T T T T T T T T Y z l z l l T z l z g f ",
"f f f g U T T T Y Y U Y T Y U l U T T T T T T T T T T Y U l k l k k Y T T g U T Y l = d U T T T Y T U Y T T l l Y T T T T T T T T T T T U l k l * f T T Y l k g ",
"* * f g g g Y l l k k k k l Y Y Y Y l l l l z U Y T T T Y g g k * * U T T l k l U g = l U l U l g g k l d l Y T Y Y U k l l Y Y U T T T T l g k f f z Y T l * % ",
"* h f g g g g f f = = = = = l Y T U l k l k l f l T T T T U U U l k Y T Y k = f l l = U l = = = = = = = = = l Y Y U l l k k l = l T T T T z z Y k g U T T f * % ",
"* = g U l = = = = = f = = = = k U g T T T g f = g T T T T T T T T U T T Y d d U l l k U l = = = = = = = = = p l Y U Y T T U = = l Y T T T T T T Y Y T T Y = * * ",
"* = g g l g = = = d = = k l k U T U T T T T z U Y T T T Y T U T k f l U Y Y Y T l d = l U = = = = = = = = U d U Y Y T T T T U Y T T T T Y U U Y k k l U Y z l f ",
"= = k Y Y U d = f l l k l U Y T T U T T T T Y T T T T T g g Y Y k & * z T Y T T Y k g U Y Y = = = U = U U U Y T T Y Y T Y Y Y T T T T Y l z U T k * * l T Y g g ",
"g = = T T T U k U T T T Y Y T T T U T T g U T l Y T T U f T T T k * k U T k k Y T U = T T T U l U T T T Y Y T T Y Y Y T U U Y U Y T T Y f U T T k * f U T f f f ",
"= = = U T T T U f k Y T Y l T U z T T T Y T T Y Y T T T Y T T T Y l Y T T l l Y U d = Y T T T U = l Y T U l T U U Y T T Y T T Y Y T T T Y Y T T Y Y Y T T l f f ",
"* = g U Y T T Y f d l T U l Y U g T z g T T T Y Y Y T T T T T T Y Y Y Y k k l Y l l g l Y T T Y = = U T U l Y U g Y Y U Y T T Y Y Y T T T T T T Y Y T Y T U f f ",
"f g U T T T Y Y T U l T U U Y T T g f h l T T k f l Y Y Y T T U z k p 3 5 u k T Y Y U T T T Y Y Y U U Y U U Y T T Y = = l Y T l k l Y Y T T Y U l l Y l U U U k ",
"= g T U Y T T Y T T Y U Y Y Y T T g f f f k l f f g z l g U U Y Y k u > 0 1 d T Y Y T U T T Y Y T T Y Y Y Y Y T T g = = d l l d k k l l l z Y Y Y Y Y Y Y T U g ",
"f g Y g g T Y U Y T U k l U Y T T l g k f k l k l l l l k l Y T T l u r 0 1 d T U Y T g l T Y Y T T Y g l Y T T T k g f = g k k k U l l k l U T T T T T T T U g ",
"g g f f g z l U U l f k f k U T T Y U g l Y Y T T Y Y T T T T T T Y d 2 > 3 k T T U g = = l l U Y d = = = g Y T T T Y g U Y T T Y T Y T T T T T T T T g k U l g ",
"f g U f f f g l l k k l f = l T T T T z l z Y T T T T T U Y Y Y l k d p u & k T Y U U d d l l l U d d Y = = U T T T Y U l l Y T T T T Y U Y T T U g Y g f k g g ",
"* g T U l l l l k k l U k = U T T Y T T l l U T T T T Y k l Y T k d l U l d l T U Y T U l l l k l = l Y = = U Y T Y Y T l l U T T T T Y g g Y Y g g g U l f f g ",
"f g U T T Y U U U g f = p k T Y U U Y T T T T U U Y Y T T T T T T T T T T l Y T T Y U T T T Y U U = = = = = T T U Y Y T T T T U U Y Y T T T T T T T T T T l g g ",
"* g U T T T Y T T Y l l l Y T T U l U Y Y U U Y Y U U U Y Y Y Y T Y U T T Y Y T Y Y Y T T Y Y T T Y U l l Y T T Y k U T Y Y U Y Y Y U Y Y Y Y Y T Y Y T T U g g ",
"& g T Y U U Y T T T T T T T Y T Y k l l l f f T T U l k d k l l l k k Y T U Y T U Y T U U U Y T T T T T T T T T Y f k U l f f T T U U = = g U U g k g Y T U l g ",
"f g z U T T U z U T T T T T Y Y l l k k f l Y T Y f k l l l k l = f l U U Y U U T Y U U T T U U U Y T T T T T U l l k k f k Y T T d = l l l = = = = l U Y Y g f ",
"f g z Y Y U l l l l l l Y T Y l l U l l k Y T T Y f f k l d = d = k U U U U U U Y Y U Y Y U U l l l l l Y T Y l l U l k l Y T T Y = = g g g = = = = Y U U Y U = ",
"* g Y T U = k U Y U k d U T Y Y Y T T U T T Y T Y k f = = = = = = f Y Y U U U Y U Y T T l = d U Y Y k d l T Y Y Y T Y Y T T Y T Y = = = = = = = = = U U U Y = = ",
"f l Y U g * = g T T T Y Y Y U Y T T T T T T Y Y T Y k * = = g l k l U U Y Y T T Y Y Y U k = * k T T Y Y T Y l Y T T T T T T Y T T Y = = = = = U U g U U Y Y U = ",
"f l Y U U g = g T T T Y T Y U T T T Y T T U U Y T T U k k l U U Y Y U U U Y T T Y Y Y U U k = U T T T Y T Y U T T T T T T U l Y T T Y = g U Y Y Y Y Y U Y Y Y = ",
"f g T T T T Y T T U l k U T T T T Y Y Y U l g U T T T T T T T T T T T U l l Y Y Y Y T T T T Y Y T Y l k U T T T T Y Y Y U k k U Y T T T T T T T T T T Y U U = = ",
"= f Y T Y g Y T U Y l f U T T Y U z k l Y T Y l l T T T T Y T T T Y U U Y l f l l U U T Y l T T Y Y l k Y T T T U U l g T T Y l U T T T T Y T T T Y U Y Y = = = ",
"* g U T U g U T Y Y k k U Y T U l U l l T T U g U Y T T T U U T T U z Y T l l l U U Y T U f U Y Y l l k U Y Y U g U g U Y T Y l U Y T T T U Y T T Y g Y T l = = ",
"f U T T Y g g Y T U k k g f f k l U T T U g = Y T U T T T l l Y T T T T T U T T T T T T Y l l Y T l f k g g = g l Y T T U g = Y T Y T T T g g Y Y T T T T Y U = ",
"= U Y Y Y g U Y U U g = k k * d k T U g U U Y Y U l Y T T l l Y T T T g g T T T Y Y Y Y U g l U U U g = U Y l g Y Y U l U U U Y U l Y T T l l Y T T Y l U T U l ",
"= = U U U U Y Y g T Y g k i u u h U z g l T T l k l U Y T Y U T T U g g g T T T Y g l U U Y T Y l T Y l Y T T Y Y T l g U T T U g k U T T Y Y Y T Y U = = T U = ",
"= = l l Y T T T T T T T u 1 9 > u U T U U U l f k Y U Y T T Y T Y g g U T Y Y z U U U U Y T T T T T T T g k T Y U T Y U U U g f k Y U Y T Y Y T Y Y U U T T = * ",
"= = g = l Y Y Y T T T U 3 > 0 9 u Y T U T Y l k l Y l g U l U T T T Y Y T T l k U U = d l Y Y T T T T Y l g T T T T Y Y T Y g g g Y l l l = = d = d l U T T = % ",
"= = = = d Y U Y T T Y = & 3 t 3 p U U U T T U l U Y U g f g l Y T T Y Y T Y l k Y g = = g U l U T T Y g g Y T T Y U U U T T U l U Y U k k & 3 1 u p U Y Y Y = * ",
"g = = g = = g Y T T Y Y k f d d * k k l T T T U U T T T U Y T l = g T T T z Y T T g = = d = g Y Y Y Y U l U Y l k l l l T T Y Y Y T T T l & 1 w 7 3 Y T T Y U = ",
"g g g g U U l U U U U U z z l z l l U U U Y Y T Y Y T Y U T T Y f f T U U k Y T T U = l U U U l U Y U Y U U U U U l l U U Y Y T Y Y T Y U p 1 9 : 2 Y Y U U = U ",
"= g U Y Y Y U U l g g U T U l Y T Y T T l l Y T T Y U Y U U Y T g g Y l = g U Y U U Y Y Y T U l g g g Y Y Y l Y T Y T T l l Y T T U Y Y U d u 5 3 & U l = d = = ",
"% = Y Y U Y Y Y T g z T T Y Y Y Y Y T Y l U Y T T Y T T Y l U U Y Y T U U T T g f g T U U Y Y T Y l l Y T T Y T Y T T Y l l Y T T T T T U g k k l U T U U T g = ",
"* f g U U U l g g g g T U z z l l U l l k l U Y l l l l l U Y Y T Y l g g T T Y U l l l U Y g l l l l Y Y U U l l U l l l l Y Y g g g z g U Y T T T g g g T U = ",
"g f f g U k = * f f g g l k k f k k d * = k l k = * * * d U Y Y T l = * * g Y T T l f l g l * * k d k l l k k f k k k * = f l k * * * h f l Y U Y U = * = g g g ",
"= f g g = * & & & & & h f k k k d * & % & = k = d * * * * p = f = = = & & * = * = = = f = * & % & & & * d k k f * * % % * d k * * * h f f f f f f f = & & = = = ",
"* f p $ 2 < < < 2 + + 3 $ 3 3 $ 3 2 + + # # 3 # # # $ 2 # + O + + # # + O # + + + # # # # # + + # O O # < < # # # # + + < 2 3 3 $ 3 3 3 3 2 # 2 < 2 2 < ; 3 & * ",
"f & 2 7 7 0 7 7 7 : 8 : 7 7 o o : 7 : 7 : : : : : : : : X X   X     - : -   : : X X       : : : :       7 7 :   X . : : : 7 7 : 7 : o : o : 7 o X 7 7 7 7 > 3 * ",
"$ # 9 n V V B N N N N N V V V V C C Z J L L L L J D J Z J L P P P P P P P P L J D J J K P P L J L P P L L D L L L L J Z C C V C Z C V V N N m N N N B V V v 1 # ",
"; > n G Q Q I G F I I I I Q ^ ^ ^ ^ ..:.,.>.>.>.>.:.-.-.>.<.M.N.N.M.N.N.M.<.>.;.;.-.,.M.M.<.>.>.<.M.M.<.>.;.>.>.>.,.-.;.^ ~ ~ ^ ^ ^ ^ Q I I G I G I I Q Q S c : ",
"o x Z ^ | ] ] _ _ _ _ _ ' @.&.*.=.q.i.B.J.J.S.C.C.C.C.V.C.Y.R.E.E.E.E.E.R.T.Z.C.B.B.K.T.R.T.K.J.Y.R.R.Y.Z.V.C.S.J.J.B.i.1.*.*.*.1.*.*.X.] ^ _ _ _ _ ` ..[ Q C v ",
"B S E | $.&.&.=.=.&.&.#.=.u.p.p.p.d.j.H.W.W.W.W.~.~.~.~./.).`.'.'.'.'.'.`._./.~.!.~.(._.`._././.(.`.`.).^.Q.W.W.I.W.H.k.d.p.p.p.d.d.p.w.=.*.&.&.%.=.&.&.&.' E D ",
"Q Q ^  .&.q.w.u.u.u.u.u.u.a.d.d.d.d.j.k.D.k.D.P.W.^./././.(.)._._._._._._.(./.^.^.^.(.).).)././.(.)._.)./.Q.P.G.k.A.k.j.d.d.d.d.d.d.d.i.u.w.q.u.u.u.u.=.&...^ ! ",
"@...] ..$.*.w.w.u.u.1.u.q.w.w.u.u.u.u.u.w.w.u.f.A.L.Q.Q.U.U.U.U.U.U.U.U.U.U.U.U.U.U.U.U.U.U.U.U.U.U.U.Q.L.F.g.u.0.u.u.u.w.w.w.e.w.w.w.w.w.w.w.w.u.u.q.=.@.[ ] ] ",
"h.7.%.@.@.&.*.*.*.1.*.*.*.*.&.*.*.*.*.%.%.=.9.a.g.A.F.F.A.A.A.k.A.A.k.A.A.A.A.A.F.A.A.A.A.A.A.A.A.A.G.G.A.g.a.w.0.0.9.9.9.*.*.*.*.&.&.&.*.*.*.*.*.1.&. .^  .X.&.",
"c.h.e.6.4.&.X.X.X.X.X.@.X.X.X.X.@.@.X...@.*.9.u.f.f.f.f.f.f.s.s.s.s.s.s.s.s.f.f.f.f.f.f.s.s.s.f.f.s.s.f.f.s.u.w.0.w.9.*.X.X.X.$.@.@.X.X.X.X.X.@.$.X.X.| ^  .&.6.",
"7.r.t.z.y.6.@.....@.@.#.+.@...@.....' ..X.%.q.q.w.9.9.9.q.9.9.9.9.9.9.9.9.9.9.9.9.9.q.9.9.9.9.9.9.9.9.9.q.q.q.q.0.w.q.&.....| ....+.+.$.@.@.@.@.@.+.@.+.&.5.5.5.",
") } z.b.n.c.7.6.6.6.7.7.7.7.6.6.%.......@.*.=.q.9.=.=.=.=.=.=.=.=.=.=.=.=.=.=.=.=.=.=.=.=.=.=.9.=.=.=.=.=.=.=.q.q.9.=.&.@.....X.#.6.7.7.7.7.7.7.6.6.7.c.c.z.5.} ",
"v / 8.b.m.v.y.7.r.r.r.r.t.y.r.7.#.......X.@.@.@.$.X.@.X.@.@.X.$.X.@.$.@.@.$.$. .$.@.@.@.@.X.@.@.$.@.@.@.@.$.$.$.@.&.@.X.......X.#.7.t.y.r.r.r.r.r.7.t.v.b.x.2.I ",
"o m { l.x.l.5.3.O.3.3.3.3.3.3.o.' ! ! ! W ! ! ! ! ! ! ! ! ! ! ! ! ! ! ! R ~ ~ R Q Q ! ! ! ! ! ! ! ! W ! ! ! Q W ! ! ! ! ~ W ! ~ ' } 3.3.3.3.O.3.O.3.3.z.x.l./ B ",
". q A ) } ) I I I H H H H H H G F S D D D S S S S S S S S S D A C S S S S S S S D D A A S S S S S S A S S S A A S S S S S D S D F H I Q H R H R H H / { } ( A b ",
"4 t b N M M m m m m m m m m m m v m v v m v v v v v v v v v v v v v v v v m c c v v v x v v v v v v v v v v v v v v v v m v v v v m M m m m m m m v m M M m b t ",
"a 6 t 8 o q q q q q o q q q q q q q q q q x q x q w q w q x q w q x q x 0 x q w x o b b x q x x q w q q q x q x q q q q q x q q q q q q w w w w q w w 8 q 8 e t ",
"6 6 y 4 , e e t t t t t e , , t e e t t e e e t t t t e e e e e e e e t t t t t t e e e e e e t t t t t t t t t t e t e t e e t e e , , , , , , , e , , , , 4 6 ",
"5 6 j j y j j j j j j j j j j j j 5 6 j 6 6 y j s a a 6 5 6 6 6 a 6 6 j j s j j j j j j j a s s j j s j j j j j j 6 6 a 6 6 6 j j a a 5 5 5 6 6 6 6 6 j j j 6 6 ",
"& & j h l z k h h h l j l l l k h h i i i h h z k i i p h i h h i i h h h k k k z h h h h l k k j h k l l l l h p h h i i j k l h & h h h h h i i & h h k k a % ",
"& h k z z l k k k l l k l Y z l k l l k k l Y T l * = d f d * * & = l l l l z l U l l Y U l k k l l k k U Y Y k k U k k l l U Y z * * k k k p * * = g g g g f & ",
"f g T T z f f z Y U k d Y Y Y Y Y T Y Y T T Y T Y k = d = = d k f f Y Y z l U Y U Y Y Y l = d U Y U k d U T Y Y Y T T U T Y T T U k d k * * = = = g Y Y U U g f ",
"f l T z f * * l T T Y Y Y Y Y Y T T Y T T T Y T T Y k = = = k l l l z U Y Y T Y Y Y Y Y g = = g T T Y Y T Y l Y T T T T T T Y T T Y l * = = k l g g U U T T g g ",
"f g Y z l l f l T T T T Y Y Y Y T Y T T T U l Y T T U k g l U Y U T U U Y Y T T Y Y Y Y l l = l T T T Y Y Y Y Y T T T T T U l Y T T l l k l U Y Y Y Y U U Y U g ",
"f g T T T T T Y T U l k U T T T T Y Y Y Y k f U T T T T T T T T T T T U l l Y Y Y Y Y T T T T Y T Y l k Y Y T T T Y Y Y l l g U T T T T T T T T T T T U g Y g = ",
"= f U T Y l Y T Y U l k U T T T z Y k l T T T k l T T T T T T T T T z U Y l g g l Y Y T Y l Y T U Y l g Y T T Y U U g l Y T T g l T T T T T T T T Y U U Y g = & ",
"= f Y T U f U Y T U l f U Y Y U l z l l T T U l U T T T T U U Y T U l Y T l l l z Y Y Y Y k U Y Y U l k l Y T Y g U l l T Y U g U T T T T Y U T T U g T T g = = ",
"f U T T Y U g U T l f f g g f g l Y T T U k = Y T U T T T l g Y Y T T T T Y T T Y T T T Y l k Y T l k k k k k k l Y T T Y f f U T U T T T g g Y Y T T T T T U g ",
"= g Y Y U g U U U U g f U Y g U U Y U l U U Y Y l k Y T T l l T T T Y g g T T T Y U Y Y U g z U Y U l = U Y U l U Y U g U U Y T l l Y T T l l Y T T Y g g T Y g ",
"= f U U U Y T Y z Y Y g Y T T Y Y T l g g T T U g l U T T Y U Y T T g g g T T T U l z z U z T Y l T T k U T T U Y T l g U Y T z g k U T T Y Y T T Y U f = T Y = ",
"= f g g Y T T T T T T T g l T Y U T Y U Y U l = k U U Y T Y Y T Y U g U Y T U l U z l l U T T T T T T T l g T Y U T T U U U l f g Y U Y T T Y T Y U U U Y T g = ",
"* f g g g Y Y T T T T Y g l T T T T Y Y T Y l f U Y g l U l U T T T U U T T g f U g f f z T U T T T T U g g T T T T Y Y T U l f l Y l k l l U T T Y U U T T = & ",
"f = = = g g U U T T Y g g Y T Y Y Y U U T T U l U Y U k g g U Y T T U Y T T l k T g f f k l l U T T U g U U T T T U z U T T U l U Y U l g k U Y T T Y Y T T = & ",
"f f = f g f g U Y T Y U g U Y U k l g g T T T U Y T T T U Y T l g g T T T Y Y T T g f f k f l U T Y U U g U Y U k k k l T T T U Y T T T U Y Y U f g T T T U U = ",
"* * = f f = g g g g g g g g g f k g g l l l l U l l Y U l U l k * * l g = f g U z f * f f k g g = g g g g g g g k g k l l l l l l l U l l l l k * * g g = = = = ",
"% & = = f g = * * & & = g = * f k g g f * * = k g = = = = = = k = & = * % & * f f * * f f f f * = & * = f = * = g g g g * * f g g = = = f = k g * & f * % & & % "
};
