/* XPM */
static char *__resized[] = {
/* columns rows colors chars-per-pixel */
"80 80 238 2 ",
"   c #0B0A08",
".  c #120E0D",
"X  c #0F100D",
"o  c #13160D",
"O  c #191813",
"+  c #201D1D",
"@  c #1E2B07",
"#  c #19240A",
"$  c #1D2C0A",
"%  c #1E300D",
"&  c #1B2814",
"*  c #1E3118",
"=  c #202E07",
"-  c #202F08",
";  c #223409",
":  c #263B0B",
">  c #283E0B",
",  c #272817",
"<  c #3B2E1C",
"1  c #273915",
"2  c #393917",
"3  c #1F1E21",
"4  c #231E23",
"5  c #1A2B24",
"6  c #1E3422",
"7  c #1D342A",
"8  c #1F3734",
"9  c #272A27",
"0  c #2B252A",
"q  c #23282E",
"w  c #372928",
"e  c #35282D",
"r  c #3B2C2E",
"t  c #263627",
"y  c #30312E",
"u  c #243B33",
"i  c #363536",
"p  c #4C3825",
"a  c #443334",
"s  c #4A383A",
"d  c #523D3C",
"f  c #2A430C",
"g  c #2E4A0D",
"h  c #314E0D",
"j  c #34540E",
"k  c #365B0F",
"l  c #395D0F",
"z  c #2B4814",
"x  c #364817",
"c  c #2E521B",
"v  c #345511",
"b  c #365911",
"n  c #395C10",
"m  c #395519",
"M  c #345C1A",
"N  c #3C620F",
"B  c #3F680E",
"V  c #3C6311",
"C  c #37621B",
"Z  c #39651B",
"A  c #3D6D1D",
"S  c #3F711F",
"D  c #294628",
"F  c #374927",
"G  c #2E5327",
"H  c #375825",
"J  c #3B552B",
"K  c #3B5D2C",
"L  c #294739",
"P  c #374735",
"I  c #2F5338",
"U  c #3C6423",
"Y  c #3B6626",
"T  c #3D6A22",
"R  c #3E632C",
"E  c #3F7120",
"W  c #3A6231",
"Q  c #43431C",
"!  c #41660C",
"~  c #426B0F",
"^  c #46710E",
"/  c #4C7A0F",
"(  c #507E0F",
")  c #416715",
"_  c #436B11",
"`  c #497714",
"'  c #41751F",
"]  c #43791F",
"[  c #517F11",
"{  c #4B4D29",
"}  c #494837",
"|  c #54463E",
" . c #495733",
".. c #555639",
"X. c #62513E",
"o. c #416D25",
"O. c #41672B",
"+. c #556E2D",
"@. c #417620",
"#. c #487627",
"$. c #457C21",
"%. c #446831",
"&. c #6E653D",
"*. c #283E42",
"=. c #4D3940",
"-. c #523B41",
";. c #274646",
":. c #294446",
">. c #2A4B45",
",. c #2B4B4C",
"<. c #374949",
"1. c #2D544B",
"2. c #33594A",
"3. c #2E5653",
"4. c #355954",
"5. c #376750",
"6. c #33635A",
"7. c #375E66",
"8. c #346462",
"9. c #386A67",
"0. c #3C7769",
"q. c #3C6C75",
"w. c #387571",
"e. c #3B7C73",
"r. c #4A4844",
"t. c #584A44",
"y. c #595249",
"u. c #435657",
"i. c #5B5952",
"p. c #65534A",
"a. c #685748",
"s. c #6A564A",
"d. c #6A544C",
"f. c #76595A",
"g. c #426A58",
"h. c #74624B",
"j. c #796456",
"k. c #477566",
"l. c #447D73",
"z. c #836A57",
"x. c #847351",
"c. c #52820F",
"v. c #578A0F",
"b. c #518717",
"n. c #568912",
"m. c #5D9111",
"M. c #619611",
"N. c #669D12",
"B. c #6BA512",
"V. c #6EA912",
"C. c #71AB11",
"Z. c #76B513",
"A. c #478022",
"S. c #498423",
"D. c #4C8A24",
"F. c #57852B",
"G. c #3C807E",
"H. c #428273",
"J. c #448A75",
"K. c #468979",
"L. c #538C7A",
"P. c #59917C",
"I. c #417886",
"U. c #3F8781",
"Y. c #448C85",
"T. c #4E9D86",
"R. c #4B9989",
"E. c #509E85",
"W. c #579C87",
"Q. c #408B91",
"!. c #479897",
"~. c #609A83",
"^. c #4EA38A",
"/. c #50A186",
"(. c #51A38A",
"). c #54AA8D",
"_. c #5BA88E",
"`. c #4CA49B",
"'. c #4EA99D",
"]. c #55AD93",
"[. c #54AD99",
"{. c #57B092",
"}. c #59B393",
"|. c #5CBA97",
" X c #56B29A",
".X c #58B49A",
"XX c #5EBD99",
"oX c #6EB597",
"OX c #499CA9",
"+X c #50AEA2",
"@X c #50AFAD",
"#X c #58BAA6",
"$X c #5EC49C",
"%X c #5FC89D",
"&X c #61C69D",
"*X c #62C99E",
"=X c #5CC2AB",
"-X c #5BC3B2",
";X c #5ECBBB",
":X c #60C4A1",
">X c #64CCA1",
",X c #6ACEA3",
"<X c #7ACAA6",
"1X c #66D1A4",
"2X c #6CD6A8",
"3X c #77D8AB",
"4X c #60CBB5",
"5X c #7EDEB0",
"6X c #7CE5B4",
"7X c #5DCCC7",
"8X c #58C6D5",
"9X c #61D4C8",
"0X c #64DBD4",
"qX c #62DDE5",
"wX c #67E5EA",
"eX c #67E6F1",
"rX c #82CDA9",
"tX c #8ED7AE",
"yX c #86DAB3",
"uX c #84E2B4",
"iX c #89E7B8",
"pX c #96E3B8",
"aX c #93EDBD",
"sX c #8FF1BE",
"dX c #96F0BF",
"fX c #9AF1BF",
"gX c #A2F3BF",
"hX c #ADF6BF",
"jX c #B6F7BF",
"kX c #CEFDBF",
"lX c #97F4C3",
"zX c #9CF3C2",
"xX c #A1F6C4",
"cX c #A8F6CA",
"vX c #A7FBCB",
"bX c #BAFCC7",
"nX c #C8FEC5",
"mX c #D6FFC4",
/* pixels */
"c C ' A A ' S ' ' A A S ] ] ' S S S ] S S S S A.S ] ] $.S S A S S S ] S S ] ] A C Z S S S S S S @.o.U @.' ] ' ' S ' ' ' A A ' $.$.' ' ' ' A A A ' E @.S A $.A M ",
"Z A ' ' ' $.S S S S S $.$.S ] S S E ] S S S S $.S S S S S E $.$.$.] S S S $.$.$.$.@.S ] ] S S U H Y @.$.@.$.@.' S ] @.S A S ' ' @.S S A A @.$.$.$.$.' S ' $.' Z ",
"] ] ' ] A.$.@.A S ] $.A.$.$.$.$.S $.E S S ] $.E S E S S E S.D.D.S.S.S S S $.S.D.D.A.$.$.A.$.S H F O.@.$.$.$.$.' @.$.S A S $.$.$.@.E A ' @.A.D.D.D.A.' A ' $.$.$.",
"' ] S.D.S.$.@.] ] ' ' A.S.D.D.S.D.S.E E ] S.D.S.S.A.A.A.S.A.A.S.S.S.S.] E A.S.S.A.A.S.S.S.A.$.E o.@.@.A.S.S.D.D.S.A.@.S $.S.S.S.A.A.A.S.A.A.A.D.S.A.A.$.' A.] A ",
"A ] A.A.S.D.S.A.A.$.$.A.D.D.D.S.S.S.A.A.D.D.D.D.S.D.D.D.S.A.$.A.$.$.S.A.A.A.S.A.A.A.A.S.S.D.S.A.] $.$.A.D.D.D.D.S.S.A.A.S.D.D.D.D.S.D.D.D.$.$.$.$.$.D.A.$.$.@.' ",
"' ' ' ' A.D.D.D.S.S.S.S.D.S.A.$.A.D.D.D.D.D.D.D.D.D.S.D.S.$.$.E E E S.D.S.$.S.S.S.$.S E A.D.D.D.S.S.A.A.D.D.$.$.A.D.D.D.D.D.D.D.D.D.D.S.A.$.$.$.A @.A.D.D.$.$.@.",
"A ' ' ] $.$.$.$.$.$.E $.$.$.S.S.S.S.$.$.$.$.A.A.D.D.D.D.S.$.S $.S S A.D.D.A.$.] A.$.E $.A.$.A.$.$.@.@.' $.$.A.S.D.S.A.$.$.$.S.S.S.D.D.D.A.$.' $.S A $.D.D.$.A Z ",
"A A ' ] $.@.@.@.S S E E A S $.S.D.A.$.E $.$.@.] $.S.D.D.S.S.A.S.$.] S.D.D.E S S $.$.E A.$.E S S ' ' o.' o.' $.A.S.A.$.E $.$.E $.$.D.D.D.D.A.A.S.$.] D.D.D.@.Z Z ",
"S S S A.A.S S S S S S S E S S E S.A.S.D.S.A.] S ] S.D.D.D.D.D.D.A.S.D.D.S.E E $.$.$.E $.$.S S S E S @.o.o.o.o.$.S.$.S.D.D.A.E S $.S.D.D.D.D.D.D.D.D.D.D.S.S A S ",
"A S ] ] S $.S S S E S S E A.E S.S.S.S.D.D.S.$.S.D.D.D.D.S.S.D.S.$.E $.A.S.A.D.D.$.$.$.$.A.S S S S S o.T F F @.S.S.S.D.D.D.D.A.S.D.D.D.D.S.A.S.S.] S S A.D.A.] S ",
"S S ] S.D.A.E S E $.$.$.A.A.D.D.D.S.D.D.D.S.S.D.D.D.D.D.] A.S.S.E A A $.D.S.S.D.A.$.S A.S.S.E E @.$.$.@.H F o.S.D.S.S.D.S.S.S.D.D.D.D.S.$.$.S.S.S S S A.D.A.A.] ",
"] S E D.D.D.A.E A.S.D.D.S.S.D.D.D.S.S.D.A.A.S.A.A.D.D.A.' S.D.D.$.A E S.S.$.$.D.D.$.$.S.D.D.A.$.A.S.D.D.$.O.J #.D.S.S.D.A.A.S.A.S.D.D.S.' A.D.D.S A S S.D.S S ] ",
"S S S A.D.D.S.A.S $.S.D.A.A.D.A.$.D.S.S.D.D.D.A.S.D.D.D.S.D.D.D.A.$.S.D.D.$.$.S.A.$.E A.D.D.D.A.' @.S.D.A.R y H A.S.D.D.S.D.D.S.S.D.D.D.S.S.D.D.D.A.S.D.D.] S S ",
"A S ] A.D.D.D.S.S S $.D.A.$.S.A.] D.S.$.D.D.D.A.S.D.D.D.D.D.D.S.S.D.D.D.S.A.A.S.$.$.$.$.S.D.D.S.' ' $.D.A.Y D H $.S.A.A.S.D.D.S.A.D.D.D.D.D.D.S.S.D.S.D.S.A.] S ",
"S ] S.S.S.D.S.D.D.A.$.D.A.A.A.D.D.A.' A $.D.D.@.' $.A.D.S.D.S.A.$.$.A.A.A.S.S.D.A.A.A.D.D.D.S.S.D.A.$.D.A.E J R #.A.E S $.D.D.$.S $.S.S.D.D.S.S.$.$.A.A.A.A.A.A.",
"S A.D.A.D.D.S.S.D.D.S.A.S.S.S.D.D.] ' o.@.@.$.@.' $.$.$.$.A.S.S.S.A.A.T Z ` ` Z A @.D.A.S.D.D.S.D.D.S.A.A.#.J R #.E S S E $.$.E S $.A.$.$.A.S.S.S.A.S.S.D.S.A.S ",
"S ] S.] $.D.S.S.S.D.S.$.$.A.D.D.D.$.] S ] E $.$.$.$.$.$.@.$.S.D.S.S.$.` ^ ( / _ ` ] S.E ] D.S.S.S.S.S.$.] @.J O.#.@.$.@.@.@.$.@.E A.A.$.E A.A.D.D.D.D.D.D.D.A.A.",
"] ] E S ] $.$.A.S.$.S S S $.A.D.D.S.S.A.A.A.D.S.S.D.S.D.D.D.D.S.$.] [ N.Z.V.B.C.Z.N.[ b C $.$.$.S.$.E E ' o.J O.#.S.A.$.$.S.D.S.S.D.D.S.D.D.D.D.D.D.D.$.S D.A.S ",
"S ] S.$.S E $.$.$.E E $.S E A.D.D.S.S.S.$.$.S.D.D.D.D.D.A.D.] Z n.N.M.C.Z.B.N.B.Z.Z.N.m.` V ' $.$.@.@.$.' H y K #.D.D.A.$.$.S.D.D.D.D.S.A.S.D.D.A.A.A.S S S A.S ",
"S ] S.S.A.$.$.$.E $.A.A.E S A.D.D.S.S.S.$.$.A.D.D.D.D.A.T ] ` n N.Z.Z.V.M.c.( c.B.C.C.Z.m.n Z @.@.$.$.A.] M t J #.D.D.A.$.$.A.D.D.D.D.S.S A.S.S.S S A.S.A.S S ] ",
"$.$.A.S.D.D.S.A.S.] S S T @.D.S.A.A.S.D.D.D.D.A.A.S.D.@.C ` m.V.V.B.B.N.c.k k ^ c.c.[ n.v.c.j b $.$.E S S H 9 H S.$.A.D.D.D.D.A.A.S.S.D.D.D.D.D.D.D.D.D.S.A.S ] ",
"S $.S.D.D.S.S.D.S.S.A.$.$.A.D.D.S.$.A.S.S.S.A.S.S.A.] ) ^ M.C.Z.M.^ ! ^ ^ j l ^ ^ ^ N h ! m.c.[ b.A U $.T H t R S.$.A.D.D.A.A.A.S.S.A.A.S.S.S.D.D.S.S.D.D.A.A.] ",
"S $.D.S.S.A.S.D.D.D.D.D.D.D.D.D.S.@.$.$.$.S S D.S.] A ^ v.B.C.N.^ h = g B _ ~ ^ ^ ! j = h c.B.B.v.) V $.R F F #.D.@.$.$.$.@.@.D.D.A.S.E S E $.$.S A.S S.D.A.A.] ",
"] ] $.A.D.D.A.$.S.S.D.D.D.D.D.A.$.$.@.@.' $.A.A.' V n.m.( c.m.B.( b v v l k l N ~ ! k h l c.c.c.n.c._ x , t O.$.$.$.@.@.@.$.A.D.D.S S $.$.$.$.S S S A.A.S.S.S S ",
"S ] A.S.S.A.A.$.$.A.$.E S.D.S.$.$.A.$.$.$.S.$.' ! ! ( / ! N / N.( ! ) k b N N V ) ! l n _ ( ~ ~ ` ) m , y x Z ] $.$.$.] $.$.D.F.A.S S S A.S S S S S A.A.A.A.] S ",
"S $.D.S.A.S S A.S.A.$.E A.D.A.S.S.D.S.A.A.S.$.n ! ~ n h f h _ v.( ~ N n k ~ ~ l n k l ! ^ ^ M v v x 9 9 ) ) h Z A.D.D.S.D.D.D.D.D.S S S S S S S S S S.S.A.A.] S ",
"S $.S.S.S S S S D.D.D.S.D.S.A.S.D.D.D.A.M _ ` ! n n n g ; h ~ c.~ n n ! ~ l f ; > h n _ ~ l g f 1 0 9 x ) ^ _ n M S.D.D.D.D.S.D.D.D.S S S S S A.$.$.A.A.S.S.A.] ",
"] $.S.S.A.A.S ] D.D.S.D.S.S.S.D.D.] ] ' b n _ n n n n h > > b ^ N b b ~ ~ k g f f j N _ V b g 1 9 q y x ) _ / ! ! ] ] $.S.S.] S.D.D.A.S $.$.S.S.D.S.A.A.A.D.A.S ",
"S ] S.D.D.D.S.D.D.S.$.S S.S.D.D.] Z n n b b b j b l n j h : : b n n k l N n ! V l ! ! n b b h 1 9 q t g v j N ~ / _ n b ] ] ' A.D.D.D.D.D.D.D.D.D.D.D.A.$.A.] S ",
"S ] S.D.S.A.S.D.S.A.A.$.D.D.D.D.' h f h b b b V ~ ~ V n j j b n b n ! N l N Q x b l n ! j ; , & 9 y 9 , # & 1 j V N V ) ' S.S.] ] D.D.D.D.D.D.D.D.A.A.A.A.$.S A ",
"A ] S.D.A.S A.D.S.A.$.E A.S.S.] C f > h b n b N ~ ! V n n b k k n n ! N k N x 2 x h v V h # . O 3 i i O .   O > b h b l C A ] $.A.D.D.D.D.A.A.D.D.A.A.D.D.$.S A ",
"S A.S.D.S.A.] S.D.A.E S S ] S M z h f f j b j b l n n n b g g b n k k l l k Q p < < x b > O o . . q i i O   X 1 h > f f > f v $.D.A.D.D.D.] ] S.A.D.D.D.D.S.$.] ",
"S ] S.S.S.] A.A.A.S.$.] A.] C f > g f f j j j j j f f f b g g b b h h j N k { | < 2 b n : X O O   X 3 O .   O O - > f > ; : > h M S S.D.D.A.A.A.D.D.S.$.A.S.S.$.",
"S S A.A.A.A.S.S.] S.S.] S.' z : : : > f j h g j h f : f b j j j x x z h v j { p 2 f b j : o O O     . . . o 4 O o f h f : ; ; = f M S D.D.S.A.S.D.S.A.S S D.A.S ",
"S ] A.A.S.S.D.D.D.D.D.S.] C ; ; ; = = > f g f f f h j j j j k h Q p z z 1 > 2 , 1 f > 1 1 ; & O # X . O & - & % f f g f ; ; ; ; ; : C A.D.S.S.D.S.A.A.A.S.D.] A ",
"S S S S A.S.S.D.D.D.S.A.C f ; ; ; = ; : f f f f f f h h g g j b 2 < 1 t 7 t , + 6 6 6 6 6 6 5 5 5 & & ; : : 1 : f f > : ; ; ; : ; ; f C A.A.A.D.D.D.A.A.D.D.S C ",
"S S S S E S.A.A.D.D.S.S f % ; : ; : : : > > f f f f f f f : f g 1 6 L >.1.;.;.>.:.,.:.>.,.<.,.3.,.t 1 : : f f f f f ; % = $ ; ; ; = = f C S A.S.D.S.S.S.D.D.S A ",
"] S S S E E A.A.S.D.] C f - ; ; ; ; ; ; ; > f f > > f : ; % * % * L 0.J.H.H.H.K.L.~.P.P.~.Y.W.W.K.5.D $ $ $ % f : ; @ O # # $ $ % @ = = : S S.A.] S D.D.D.A.$.] ",
"] S ] A.A.A.$.A.A.A.A f ; % ; ; ; ; = = : > > : > > ; % * 7 u 7 L 0.P.}.|.).|.<XrXrXrXrX<X<XyXyX<XP.2.t 5 7 6 % ; - & 5 8 8 7 & $ @ @ $ ; A D.S.S S D.S.] ] ] ] ",
"S ] A.S.S.S.A.A.$.$.C ; @ - - - ; ; = = ; ; ; ; : : $ & u ,.3.,.0.J.$X1X2X2XyXiXzXcXzXzXzXcXvXvXxXoXL.4.3.3.L 6 $ % D 2.9.8.1.t % $ @ ; g A S.D.A.S D.$.S ] S S ",
"C S S.A.A.S.S.S.S.$.C : % @ @ @ = ; ; = # = ; ; % % * 8 3.0.H.H.L.}.%X2X6XiXsXlXvXvXvXvXvXbXnXnXnXtXoX_.~.W.k.P & 6 g.P.oX_.H.2.7 % % c S $.A.A.A.S.S.A.A.D.A.S ",
"A ' $.$.A.A.$.] $.$.S M f % # @ = = = = @ = = ; % * u 3.e./.{.}.$X%X1X2XuXdXlXlXzXlXlXvXbXnXmXmXnXbXzXyXpXtXoXk.L 2.P.rXiX3X).H.1.7 6 C S A.A.D.D.S.A.A.$.S.A.S ",
"] ] ' $.A.$.S S S $.$.$.C z : ; = = @ = - - = $ * 8 4.H.T.|.>X1X1X1X>X2XuXxXxXgXlXaXlXxXhXkXkXkXmXnXbXvXvXcXyX_.l.L.oXaXlX6X&XT.8.8 D M S A.D.D.D.A.S S S A.A.S ",
"S ] S.D.S.A.] ' $.' S A.] S Z h > @ @ @ - $ # & u 4.H.T.{.$X1X1X1X%X*X3XiXzXvXxXdXdXaXfXfXhXkXkXmXmXnXnXbXvXaX<XoXoX3XiX6X2XXXT.8.L G S D.S.A.S.S.S.S.S S A.A.S ",
"A $.A.A.S.D.A.A.A.$.$.A.D.D.@.Z M v v h 1 = & q 3.w.T.}.$X>X,X>X%X%X*X2XuXfXgXfXfXdXaXdXfXfXhXkXmXnXmXnXbXxXfXaXpXuX5X2X>X.X^.H.6.L H S S.A.$.A.S A.D.S.A.$.S S ",
"S S @.@.A.D.D.D.S.A.S.S.D.S.$.$.$.S.A.] { w y >.9.K.].$X>X1X1X>X%X%X*X,X3XuXaXfXzXzXzXdXlXaXfXhXkXkXkXjXhXgXzXvXvXsX6X%X].K.0.3.I G A E A.A.S A.S S S.D.D.S $.S ",
"A S ' $.$.A.A.$.$.@.@.$.$.$.S.D.S.S.A.#.&.a.r.<.8.K.(.$X>X,X,X>X%X%X*X*X,X3XuXaXzXxXfXfXsXaXfXfXgXbXhXhXgXfXzXvXvXlX6X%X^.0.1.I U E A.D.S.$.S ] S S A.D.D.$.S Z ",
"A S ' A.$.' E E E E S @.T E $.S.S.A.A.$.x.z.a.<.4.H.(.|.&X=X>X>X>X>X*X%X&X*X3XiXfXzXfXfXaXzXzXzXfXzXzXpXzXfXfXzXlXsX6X%XR.0.L D C S.D.D.S.A.A.S.] S A.D.D.S A A ",
"A S ' ] $.A S S S E S S E A A $.S.] S.F.x.x.s.<.4.l.(.}.XXXX&X&X*X1X*X&X$X&X*X3XuXaXfXxXxXzXfXlXfXlXlXpXzXzXfXaXuX5X2X1X).H.1.D G E D.D.D.D.D.D.S.S.D.D.S.A A S ",
"A A ] ] $.$.S S S S S S $.$.E A.S.S.S.F.x.x.s.<.3.H.(.{.].}.XX&X1X1X*X&X&X*X*X*X3XuXaXxXxXzXzXfXzXzXlXlXgXgXdXuX3X,X,X*X|./.H.6.I G E $.S.S.A.S.$.E E S.D.A.S S ",
"S ' ] A.S.A.@.' @.$.$.$.A.A.S.D.D.S.D.#.&.h.i.4.9.Y.(.).(.(.}.XX*X*X1X*X&X*X$X%X*X3XuXaXfXaXaXaXaXaXpXaXaXaXiX3X1X%X&X*X$X}./.J.9.I W E E E A.S.E A E A.D.D.A.$.",
"] ' ' D.D.D.$.$.A.S.D.D.S.S.D.D.S.S.S.@.{ y.g.K.R.T.(.(.(.(.(.{.XX*X*X1X*X*X$X&X&X,X3X5XyX5X5X5X5X5X5X5XuXuX3X,X&X&X%X*X$X}.].].^.J.6.G c E S.D.E A S S.D.S S $.",
"A S ] A.D.D.D.A.E $.S.D.A.$.D.A.$.D.$.H P u.L.+X#X X)./././.(.(._.XX&X*X,X*X*X*X*X*X,X,X,X,X,X,X>X,X,X,X,X,X1X*X*X*X*X*X|.].).XX$X^.H.2.D C A.D.S.S.S.D.D.$.S S ",
"A ' ] $.A.D.D.S.S E $.D.A.$.S.A.$.S.A G u 8.!.-X;X#X)././.^.T.T.).{.XX&X*X*X*X*X*X*X*X*X%X&X*X*X&X&X%X$X$X>X%X*X>X>X1X>X|.).).}.$XP.H.I G Z A.S.D.S.D.D.S.A.E S ",
"S ] A.D.D.D.D.S.D.A.$.D.A.A.S.D.D.A.U z u 8.!.-X4X#X(.P.T.^.^.T./.).}.XX&X,X1X1X,X*X*X*X*X*X&X>X>X>X%X>X=X*X*X>X>X,X,X>X$X).T.T.J.H.5.G U E A.A.$.$.A.A.A.A.$.$.",
"S ] D.A.S.D.S.S.D.D.S.S.A.S.S.D.D.$.C D u 8.!.-X;X=X)././././.(././.)._.XX*X*X*X*X&X*X*X&X&X&X:X$X&X$X*X*X&X*X&X*X>X>X&X&X}.T.K.8.L G U S E S.S.S.A.A.S.D.D.A.E ",
"A $.S.$.$.D.S.S.D.D.S.$.$.S.D.D.D.$.C c u 7.OX8X0X;X}.^./.^./.(.(.T.E.(.}.XXXX&XXXXXXXXXXXXXXXXXXXXXXXXXXX|.|.$X$X|.|.|.&XXX[.K.3.7 G A S A.S.S.D.D.D.D.D.D.A.$.",
"@.$.@.E @.$.$.$.S.E S E S E S.D.D.S.A c 8 8.@XwXeX0X#X^.^.P././.(.T.(.(.).{.{.{.}.}.{.{.{.{.{.{.{.{.{.{.{.{.{.{.{.).).{.:X4X#X!.6.7 c S D.D.D.D.D.D.D.A.S S.A.$.",
"S $.A.@.@.$.$.$.$.$.E $.E S A.D.D.D.S m u 7.OX8XwXwX9X=X}./././.(.(.E.(.(.).(.(.(.(.(.(.(.).(.).).(.(.(.(.(.^.(.(.(.).).#X#X@XY.6.L H E A.S.S.S.$.$.A.S S S A.S ",
"S $.S.A.$.$.$.$.$.E $.S.E S A.D.D.A.$.O.} 4.I.OX8XqXwX9X-X[.(./.E./.(.E.T.T.T.T.T.(.T.E.T.T.T.T.T.E.T.^.T.^././.E.(.].#X#X'.R.w.4.G T @.S A.A.S.S S A.S.A.S S S ",
"] $.A.D.D.S.S.A.A.] S S S S D.S.$.S.$.#.y.r.u.q.Q.8XeXwX9X#X)./.T.T.E.^.(.(.(.(.^.T.(.^.(.T./.^.(.(.(.T.(././.L./.[.=X-X@XY.6.3.I O.@.A.D.D.D.D.D.D.D.D.D.A.S $.",
"' $.S.S.D.D.S.D.S.S.A.A.$.A.D.D.A.$.$.#...p.t.<.q.OX8XwXqX9X-X#X].(.].(.(.T.(.T./.(.(.E.(.(./.(.T.(./.(./.).).].].#X=X#XY.8.L I W Y #.$.S.S.D.D.D.D.b.D.D.A.A.S ",
"' ] D.S.A.A.S.D.D.D.D.D.D.D.D.D.S.] ' #.a.a.s.t.u.q.OX8XqXwX0X;X#X#X#X[.(.E.E.E./././.E.T././.E.E.T.E././.).}.=X=X#X'.Y.8.>.P J R T E E S E A.E S A.S D.D.A.A.S ",
"] ] $.S.D.D.A.$.A.S.D.D.D.D.S.S.$.@.' Z ..a.j.j.i.<.q.!.8XeXeX9X-X=X-X#X[.(.T.E.E./.(./.(././.(./.(.E.(./.(. X=X-X+XU.6.>.P W R R Y E S $.A.A.E S S S A.S.b.S S ",
"' ] S.S.S.S.$.$.$.A.$.$.S.D.S.$.$.A.$.U } s.z.z.j.y.u.q.OX8X8X@X#X-X7X;X=X X X X X X X X+X X X X X.X.X X(.R.R.].+XQ.9.:.P J O.%.R W U A E E E E S S S.S.A.A.A.S ",
"S $.S.S.A.S $.A.A.A.$.E A.S.S.A.D.D.A.O.y.s.h.z.z.f.i.k.I.Q.Q.G.Q.+X;X9X9X-X=X=X=X-X-X-X;X#X-X-X-X;X;X#XT.l.9.w.e.w.4.} J K O.%.R W U A S S S S S S S.S.A.A.A.S ",
"S $.S.A.$.A A E D.D.D.S.S.S.A.S.D.D.S.#...p.d.z.z.z.z.i.<.,.;.:.4.Y.@X7X;X-X-X-X-X-X=X-X#X;X#X-X-X;X;X+XY.6.;.;.1.<.y.a. .R O.O.Y R T T S S A.$.A.S A.A.S.S.A.S ",
"' $.S.S.$.$.S A.D.D.D.S.D.S.A.D.D.S.A.#.{ X.f.j.j.z.z.f.i q q i <.8.R.'.+X'.`.`.`.`.`.`.`.`.@X`.'.+X+X!.l.4.<.i i r.p.a.%. .K R #.@.E @.S $.A.S.S.S.S.A.A.S.A.S ",
"S ] D.D.D.D.S.S.S.S.] ] A.D.D.D.D.S.A.$.{ ..z.f.j.d.z.s.=.y r d i ,.9.e.e.w.w.w.w.w.w.w.w.w.q.w.w.e.e.w.u.i.p.t.r.p.p.|  .W K R E A.A.D.D.D.D.D.D.D.D.A.$.A.S S ",
"S S A.D.S.$.S.S.S.A.A.S A.D.D.D.A.A.$.$.#.+.h.h.j.j.j.s.=.r a t.a q *.:.:.:.:.*.;.;.*.*.:.:.:.:.:.:.>.<.r.i.j.j.s.p.| } R R Y T E D.D.D.D.D.D.D.D.S.A.A.S.$.S A ",
"S S S.D.S.S S.D.D.A.A.S A.S.S.A.$.$.$.$.$.+.X.s.h.j.f.t.s a s X.r 4 q q q q q q 5 q q q q q q q y i i r.t.p.z.j.s.t.} P R Y T @.A.D.D.D.D.A.S.D.S.A.A.S.D.$.S A ",
"S A.D.D.S.A.] A.D.A.S ] ] ] S ] $.S.D.D.S.o.x X.s.s.s.-.a a s d e 4 0 0 0 q 0 0 0 0 q 0 0 0 0 y i i r.p.a.s.s.p.t.t.} K R T A S.D.A.D.D.D.A.S S.S.D.D.D.D.S.A.S ",
"S A.A.S.A.A.A.A.A.A.A.S A.S.A.A.A.S.A.$.A.A.' { { a.a.d w a a s e 0 e e e e e e e e e e e e e e i s t.p.p.p.y.} a F H H T $.A.S.A.A.S.D.S.A.A.S.D.D.S.A.A.D.A.A.",
"S ] A.A.A.A.S.A.A.S.A.] S.D.S.S.S.D.$.] A.D.S.C ) ....s w w a a =.=.-.-.-.-.-.-.=.=.-.s s a e e r a s | | t...} x H U T @.S.D.$.E E S.D.D.S.S.S.S.S.S.S S D.A.S ",
"S ] ] A.A.D.D.D.D.D.D.D.] S D.S.A.D.S.A.A.A.$.@.) o.m x p w < a i.f.f.f.f.f.f.f.f.f.d.p.t.-.r e r i a P i F J U T A.A.$.A.A.$.S S A.A.S.D.S.S.D.A.A.A.A.D.D.S A ",
"S S S S A.D.S.S.D.D.D.A.] A.D.D.D.D.S.S.D.A.$.@.#.$.Z C m m F Q ..+.y...y..... ...|  .}  .{ J F H H { J H K T $.S.D.S.S.S.A.$.$.A.D.A.E A.$.A.S.D.S.A.A.D.D.S Z ",
"S S S S S A.] A.D.D.S.] A.A.D.D.S.A.A.A.D.D.$.$.S.D.$.@.@.@.' A C U C C C C M M M M M M M T T E $.#.@.T o.@.$.A.S.S.$.A.D.D.A.$.A.D.A.$.S $.$.D.D.S.S.D.D.D.S A ",
"] S S S S S A.S.S.D.A.A.A.A.S.A.$.] $.$.D.D.D.A.S.D.D.D.$.S.S.@.S S A.S.A.$.A.A.$.' A T E A @.$.A.A.A.$.@.$.A.$.$.] @.$.D.D.S.A.A.D.D.D.A.S.S.$.] ] D.D.D.A.A.S ",
"S S S S ] S A.S S S ] ] S ] ] S @.' ' $.$.$.$.$.$.$.$.$.@.$.$.$.A A $.$.@.E $.A.$.' S @.@.@.] ] ] ' ] ] @.@.@.' S ' $.$.$.$.$.A.$.A.A.A.$.$.A.$.S S ] ] S S S A ",
"C Z S S ] S S S S A A S S S S S @.] ] ' A A @.@.@.' ' ' @.@.@.@.A A S A C A A ' S S S S ' @.' A A A A A ' ' A ' $.S ' ] A A S $.S S S S S S S $.A Z S A C Z Z C "
};
