/* XPM */
static char *__resized[] = {
/* columns rows colors chars-per-pixel */
"80 80 227 2 ",
"   c #0C0A09",
".  c #0F0F0B",
"X  c #120E0D",
"o  c #14180D",
"O  c #191713",
"+  c #221B1B",
"@  c #1A2606",
"#  c #1E2B07",
"$  c #19230C",
"%  c #1E2B09",
"&  c #1F300C",
"*  c #1D2913",
"=  c #202E07",
"-  c #202E09",
";  c #233409",
":  c #263B0B",
">  c #283F0B",
",  c #302E18",
"<  c #273715",
"1  c #261E22",
"2  c #1F2927",
"3  c #262627",
"4  c #2C2126",
"5  c #2C2229",
"6  c #3C2C24",
"7  c #32262B",
"8  c #35292E",
"9  c #3A2C2C",
"0  c #273725",
"q  c #363827",
"w  c #242D32",
"e  c #372B31",
"r  c #283739",
"t  c #3D3131",
"y  c #333638",
"u  c #463029",
"i  c #46352A",
"p  c #433433",
"a  c #493938",
"s  c #503B38",
"d  c #2B430B",
"f  c #2E4A0D",
"g  c #314E0D",
"h  c #34540E",
"j  c #365A0F",
"k  c #395D0F",
"l  c #2A4611",
"z  c #2C4C15",
"x  c #364917",
"c  c #2F5213",
"v  c #345512",
"b  c #365911",
"n  c #395C10",
"m  c #3A5619",
"M  c #355C18",
"N  c #3C620F",
"B  c #3F680E",
"V  c #3C6311",
"C  c #36621A",
"Z  c #39651B",
"A  c #3D6D1D",
"S  c #3F711F",
"D  c #29462A",
"F  c #364728",
"G  c #3A5726",
"H  c #274338",
"J  c #304E39",
"K  c #3D6723",
"L  c #3F7120",
"P  c #42431C",
"I  c #41660C",
"U  c #426B0F",
"Y  c #46710E",
"T  c #4C7A0F",
"R  c #507E0F",
"E  c #416715",
"W  c #436B11",
"Q  c #497714",
"!  c #41751F",
"~  c #43791F",
"^  c #517F11",
"/  c #474726",
"(  c #455A25",
")  c #515C2E",
"_  c #494A39",
"`  c #56443A",
"'  c #5A5835",
"]  c #64493D",
"[  c #67583B",
"{  c #426E24",
"}  c #466729",
"|  c #536D2D",
" . c #427620",
".. c #457C21",
"X. c #4A7D25",
"o. c #4A7728",
"O. c #53792A",
"+. c #5D6538",
"@. c #597531",
"#. c #69643C",
"$. c #333B40",
"%. c #533D43",
"&. c #294648",
"*. c #2D554B",
"=. c #31504E",
"-. c #365A57",
";. c #326045",
":. c #37645B",
">. c #305D62",
",. c #376863",
"<. c #3C746B",
"1. c #356671",
"2. c #3D7A75",
"3. c #554644",
"4. c #50574F",
"5. c #694D44",
"6. c #6A574A",
"7. c #745B47",
"8. c #6A5B53",
"9. c #765C54",
"0. c #51614A",
"q. c #466458",
"w. c #59675A",
"e. c #766646",
"r. c #756A42",
"t. c #7D7247",
"y. c #696759",
"u. c #776557",
"i. c #4C6E66",
"p. c #49786C",
"a. c #467B75",
"s. c #717062",
"d. c #825E59",
"f. c #85674D",
"g. c #84754B",
"h. c #866958",
"j. c #8B7458",
"k. c #947658",
"l. c #9A7B5B",
"z. c #887467",
"x. c #8C776B",
"c. c #957B64",
"v. c #987E68",
"b. c #A07F62",
"n. c #52820F",
"m. c #578A0F",
"M. c #518717",
"N. c #568912",
"B. c #5D9111",
"V. c #619611",
"C. c #669D12",
"Z. c #6BA512",
"A. c #6EA912",
"S. c #71AB11",
"D. c #76B513",
"F. c #478022",
"G. c #498423",
"H. c #4C8A24",
"J. c #55842B",
"K. c #458778",
"L. c #518976",
"P. c #48917A",
"I. c #9A855B",
"U. c #A4855F",
"Y. c #97816A",
"T. c #A78767",
"R. c #B18E6B",
"E. c #A68C74",
"W. c #AE9171",
"Q. c #B49474",
"!. c #B69779",
"~. c #BC9B7B",
"^. c #3C7C81",
"/. c #3F8592",
"(. c #478F84",
"). c #4E9D84",
"_. c #4A9889",
"`. c #428995",
"'. c #499A92",
"]. c #51A186",
"[. c #51A38A",
"{. c #54AA8E",
"}. c #5AAB8D",
"|. c #4EA190",
" X c #55AC92",
".X c #52A998",
"XX c #59B594",
"oX c #56B29C",
"OX c #5CBC99",
"+X c #6AB394",
"@X c #4FABAB",
"#X c #57B8A5",
"$X c #5FC49C",
"%X c #61C59D",
"&X c #63C99F",
"*X c #68C89F",
"=X c #5DC5A8",
"-X c #5CC7B8",
";X c #64CBA1",
":X c #68CBA4",
">X c #6CD1A7",
",X c #76D7AB",
"<X c #60CDBA",
"1X c #7BDEB0",
"2X c #53B7C1",
"3X c #5CC9C9",
"4X c #5BCBD3",
"5X c #61D1C7",
"6X c #61D9DA",
"7X c #63DEE3",
"8X c #BC9E82",
"9X c #BEA186",
"0X c #C2A184",
"qX c #C5A689",
"wX c #C9A88A",
"eX c #88E6B7",
"rX c #93EDBD",
"tX c #9AEEBD",
"yX c #97F0BF",
"uX c #A9F5BF",
"iX c #CCFDBF",
"pX c #97F1C0",
"aX c #9CF3C1",
"sX c #A7F6C2",
"dX c #B9FAC2",
"fX c #C8FDC2",
"gX c #D1FEC1",
/* pixels */
"c C ! A S S S S ~ A S S ~ ~ ~ S S ~ ~ ~ S A S F.S ~ ~  .S A A S S S  .S S ~ ~ A Z A S S S S S S  .K K  . . .~ ~ S S ~ S A A S .. .! ~ ! S A A S S !  .S S ~ A M ",
"Z A ! !  . .S S S S S  .~  .~ S S L S S A S ~ L S S S S L  .....F. .S A S ..F... .L S ! ! ! S K G K  ... . .~ S S  .S S S S S ~  .S S S S  ... ... .! S S ..! A ",
"~  . ...F...S A S S ..F.......L L ..L L S ....L L S S S L F.H.H.H.F.S S S ..H.H.H.F.! ..F...S G F K .... ... .L  . .L S S  ... .S S A S  .G.H.H.H.F.! S ! ..~ ~ ",
"!  .G.H.G.F. .! ~ ~ ~ F.G.H.H.H.G.G.L L ..G.H.G.F.F.G.G.G.F.F.G.G.G.G.~ ~ F.F.F.F.G.G.H.G.F. .L K {  .G.H.H.H.H.H.F.~ S ..F.H.H.G...G.G.G...F.H.G.G.G.! ! G.~ S ",
"S ! X.G.G.G.G.G.F.....G.H.H.H.G.G.G.F.F.H.H.H.H.H.H.H.H.G.F.F.F.....H.F...F.F.G.F.F.F.G.G.H.G.F.H. ...F.H.H.H.H.G.H.G.F.H.H.H.H.H.G.H.H.H.....F.....H.X..... .! ",
"! ! ! ! G.H.H.H.G.G.G.G.H.H.....F.H.H.H.H.H.H.H.H.H.H.H.G. . ...L L F.H.G...F.H.G...L  .F.H.H.H.H.H.G.F.H.H... .F.H.H.H.H.H.H.H.H.H.H.H.G..... .A ! H.H.G... . .",
"A A ! ..~ ........L  . . ...G.G.G.G.F. . ...F.G.G.H.H.G.G.~ L  .A S ..H.H... . .F. .L  ...F.F.F. . . . . ...H.H.G.G.F. .....G.G.H.H.H.H.G. .! ~ S A G.G.H...S Z ",
"A ! ! ....! !  .S S S L L S ..G.H.F....... . .~ ..H.H.H.H.F.G.F... .H.H.H. .S  ..... .F...L L S L S L L K  . .H.H.F..... . ...L ..G.H.H.G.G.X.G. ...G.H.G. .A C ",
"A S S F.F.S S S S L S S L S S L G.~ H.H.H... .S ! G.H.H.H.H.H.H.G.G.H.H.G.S L .... . .F...S S S L L L K K K K o.F.F.G.H.H.F.L S  .H.H.H.H.H.H.H.H.G.H.H.G.S A A ",
"A S ~ ....L S S S S S S L F.L G.G.F.H.H.H.G...G.H.H.H.H.H.G.G.H... . .F.G.F.H.H... .~ ....L S S L L L L G G L G.G.F.H.H.H.G.F.G.H.H.H.H.G.F.G.G. . . .F.H.G. .~ ",
"S S ~ G.G.F.L S  ..... .F.F.H.H.H.G.H.H.H.G.G.H.H.H.H.H.~ ..G.G.L A L ..H.G.G.H.G. .~ ..H.F. .L  .....L G J { G.H.G.H.H.H.G.G.H.H.H.H.H.....G.G.L A S ..H.F...~ ",
"~ S L H.H.H.F.L G.H.H.H.G.G.H.H.H.F.H.H...F.H...G.H.H.X.! G.H.H. .A S G.H. ...H.H... .H.H.H.F. .F.H.H.H.o.K G o.H.G.G.H...F.G.F.G.H.H.F.! F.H.H.L K S F.H. .! ! ",
"S S S F.H.H.H.F.S ..G.H.F...H.G...G.H.G.G.H.H.X.G.H.H.H.G.G.H.H.G...H.G.G...X.F.F... .F.H.H.H.F.L  .H.H.G.K y G ..H.H.H.G.H.H.F.G.H.H.H.G.H.H.H.H.F.G.H.H...S S ",
"A S ~ F.G.H.H.G.S S ..H.F...G.F...G.G...H.H.H.G.G.H.H.H.H.H.H.H.H.H.H.H.H.G.G.G..... ...H.H.H.G. .L ..H.F.K 0 G  .G.F.F.H.H.H.F.F.H.H.H.H.H.H.G.H.H.H.H.G.F. .! ",
"S ~ F.H.H.H.G.G.H.F...H.F.F.F.H.H.G. .A ..G.H...! ..G.G.H.H.H.G...........G.G.G.G.F.F.H.H.H.F.G.H.....H.F.{ J K o.F.L S ..H.H. .S F.G.G.G.H.H.F.......F.F.F... .",
"S ~ H.F.H.H.G.H.H.H.G.F.G.G.G.H.H...S S ! ....! !  ..... ...G.G.F.F.G.L Z Q ! E A  .H.F.H.H.G.G.H.H.H.F.F.o.( K o.L S L L ..F.L S ....F. .F.G.G.G.F.G.G.H.H.F.~ ",
"S ~ G. .F.H.G.G.H.H.F. ...H.H.H.H. .!  .!  . . .............G.H.G.X.M.Q Y R T U Q ~ G.! ~ H.G.G.H.H.F. .F.L G K o.o.L L L L ..L  ..... . ...G.H.H.H.H.G.H.H.F.~ ",
"~ ~  .S ! ....F.G. .L L A  .G.H.H.H.G.~ ..G.H.H.H.G.G.H.H.H.H.H.X. .^ C.D.A.Z.A.D.C.T b C ~ ..G.F. .L L S K G } o.F.G.o.G.G.H.H.H.H.H.H.H.H.H.H.H.H.H.~  .G...~ ",
"! ..F.!  . ....... . ...L S F.H.H.G.G.G.....G.H.H.H.H.H.G.G.! V M.C.V.S.D.Z.C.Z.D.D.C.V.Q C ! ~  . . ...S K F ( o.G.H.F.....H.H.H.H.H.G.F.G.G.H.F.~ G.~  . .! ~ ",
"S ..H.F....... . ....... .L F.H.H.G.G.H.....F.H.H.H.H...A ~ ! k V.D.D.A.V.n.R n.Z.S.S.D.B.k Z S  . ...H.S G 3 G G.G.H.G.....G.G.H.H.H.F. .F.G.G.~ ! ..F...S ! ~ ",
" .....H.H.H.G.F.G. . .L L  .H.H.G.G.G.H.H.H.H.F.G.G.H. .C Q B.A.A.Z.Z.Z.n.b k Y ^ R n.m.m.n.b M F...L L S G w G F.H.H.H.H.H.H.G.F.G.H.H.H.H.H.H.H.H.H.H.H.....~ ",
"~ ..G.H.H.H.G.H.G.G..... .G.G.H.G. .F.H.H.G...G.H.~ ! E Y B.S.D.B.Q I U Y h k Y Y Y I g I m.n.R M.A A ..K G 0 G G.L ..H.G.G...G.G.G.F.F.G.G.G.H.H.G.G.H.H.G.~ ~ ",
"S ..H.G.F.G.G.G.H.H.H.H.H.H.H.H.G.! .... .!  .G.H.~ A Y m.A.S.C.T f # f B W U Y U U h = f m.Z.A.B.V C X.G F F { G.L ..G...L L H.H...F. .L L ....~  .! G.H.F.~ ~ ",
"! ~ ..F.H.H.G...G.G.H.H.H.H.H..... . . .! ..F.G.! V N.B.R R B.A.R b h h n b k I U I j f k n.n.n.n.n.W x 0 0 { ..F.....L L L H.H.H.L L ........L S  ...G.G.X.~ S ",
"! ..G.G.G.F.F...........F.H.H.....G... ...G.X.E V U R T I V T C.n.N B n v N V V W I n n W R W W Y E m < , F Z  .F.F.~ ~ ~ G.H.H.F.S L  ... .S L S S F.F.F.F.~ S ",
"S ~ H.G.F.S L F.G.F. .L ..H.F.G.G.H.G.G.G.G.~ n N Y n g d g W N.R U N n n U B k j j n I Y Y n v m x 3 2 G E g V G.G.H.G.H.H.H.H.G. .S S S L S S S S G.H.F.F.~ S ",
"S ..G.F.S S S ~ H.H.H.H.F.H...H.H.H.H.F.V E Q N n V n f ; g U n.Y k k B U k d : : g N U W k g < < 3 3 F E T U k C G.H.H.H.H.H.G.H.G. .S S S  ...~ F.F.F.H.H.F.S ",
"! ..G.G.F.~ S ~ H.H.G.H.H.H.F.H.H.~ ~ ! b k W k v n n g > d j U N h b B U h f d d h V U V v f > 3 3 3 m I Y Q I C ~ ~ ~ G.G...G.H.H.F. . ...G.G.G.G.F.F.F.F.F.S ",
"! ~ G.H.H.H.G.H.H.F... .G.H.H.H.~ Z M n n n b v j N k v h : > b j j j k N V N B k I I k n v v < 3 3 q f v b V Y T U n M ~ ~ ! F.H.H.G.H.H.H.H.H.H.H.H.G.~ F.~ S ",
"S ! F.H.G...H.H.F.F... .F.H.H.H.! g d g b v v V U U V b h h h n n k I N k N m x k k j I b ; * * 3 y 0 * $ $ < h I V V I ! X.G.~ F.H.H.H.H.H.H.H.H.G.~ F.G.F.S A ",
"A ~ G.H.F.! F.G.H.F... .F.H.G. .C d > g h n v I U I V b b b j j n k I N k N P , P g v N g $ X O + y y + X   O > v g h k C A ~ ..F.G.H.H.H.F.G.G.G.F.F.H.H.S S S ",
"! F.H.H.G.F.~ F.H...L  . . .S M l g d d h n h n n n n n b f f j n j h k k k P u , 6 x m > o X X X 3 y y O   X < c > d d > l v ~ H.F.H.H.H.~ ..G.G.H.H.H.H.G.F.~ ",
"S  .G.H.F...F.F.F.F...! G.~ M l : f d d h h g h h d d d j f f h b h g h j g x i , , x b <   O O   X + + X   O $ % > d d ; ; d z C ! G.H.H.....G.H.H.G.~ F.H.F.~ ",
"S ~ ..F.F.F.H.G.F.G.G. .G.! l : : : : d h g f g f d : d j h h h P x g g z D F ` q l z c > o + O     X . . o 1 O o d f d : ; ; = > M ! G.H.G.F.H.H.G.F.~ S H.F.S ",
"S ! ....F.H.H.H.H.H.H.H...C : = ; # = d f f d d d f h j c j j h P / h l F -.-.-.=.-.*.G z l * * ; O o o * * $ & d d d > ; ; ; ; ; d C ..H.G.G.H.G.....F.H.H.L A ",
"S S L L ..H.G.G.H.H.H...M d ; ; ; ; ; ; d d d d d d g g d f h c x 9 D J :.].+X+X+X}.P.J D D * < d ; * ; : : : : d d d : ; ; ; : ; ; d C F...F.H.H.H.F.F.H.H.L Z ",
"S S S S ..F...F.H.H.G.S l & : ; ; ; : d : d d d d d d d > > l z D H *.,.P.1XyXtXtXeX*XK.>.*.H < d d f d d d d d d > : = ; = ; ; ; = = d C L F.G.H.H.F.G.H.H.S A ",
"~ ! S ! L L ..G.H.G.~ M d = ; ; ; ; ; ; ; d d d d d : d > d > D *.<.P. X1XrXaXuXdXuXeX%X[.P.,.J < > d l d d d d > ; # @ = = ; : ; & = = : L H...! ~ H.H.H.F.F.S ",
"! ~ ~ ~ F...F...F.F.A d ; & ; : ; ; = = ; d d : : d ; ; : ; 0 *.K.{.$X1XrXaXdXdXgXfXuXeX>X$X_.:.H & ; l d d ; : : ; = = = ; ; ; = # % % ; A H.G.! ! H.G.~  .~ ..",
"S ~ F.G.G.H.F.F.....C ; # # = ; ; ; = # ; ; ; ; ; : = = : D *.K.{.$X1XrXaXsXdXiXgXgXuXsXeX>X$XP.:.H < : d : ; ; ; ; ; ; : ; = = % # % ; z L G.H.~ ~ G.~ S ..S S ",
"C ! G.G.X.G.G.G.G.F.C : % % @ # ; ; ; = @ # : ; ; ; = & D ,._.oXOX;XeXpXsXsXsXuXfXiXgXdXyX,X$X$X|.2.*.& ; ; ; ; ; ; ; ; ; = @ @ # ; : M L  .F.F.F.G.H.G.F.H.~ S ",
"A ! ....~ F.....F...S M l & @ @ # ; = = # # = ; ; ; = 0 *.'.=X$X$X;XeXpXaXaXuXuXuXuXfXdXyX,X;X&X=X@X2.2 & ; ; ; ; ; = = # = = @ & l c C ..F.F.F.H.G... . .H.F.! ",
"~ ~  ...F...S S S  . ...C l : ; ; # # # = = = = ; ; $ 0 1.oX<X&X$X;X1XyXaXpXrXrXrXsXdXsXrX,X;X;X;X=X(.&.< & ; ; ; ; = @ @ & ; ; l Z A A  .F.H.H.H.F.! A S F...~ ",
"S  .G.H.G.F.~ S .. . .F...S Z z ; # # # = # @ # # % * D <._.$X$X&X&X1XrXaXaXpXyXrXaXaXaXeX>X;X$X$X.X^.*.0 % % % # = = @ @ : v E ~ ..G.G.G.F.F.H.G.G.G.~ ! F.~ S ",
"S  .F.F.G.H.G.F.F.....F.H.H. .Z M v v g < ; - - @ % r :.P.P.{.%X&X&X>X1XeXtXtXyXpXpXrXeX,X:X&X&X$X[._.K.;.0 $ $ * , q / l b L H.H.H.H.H.H.F...X.....H.G..... .! ",
"S S  . .F.H.H.H.H.G.F.F.H.H... . .G.G.X./ i i , * 0 :.K.{.{.}.%X;X&X$X>X1XyXtXtXaXrXeX,X;X%X&X&XXX{.#X#X2.&.* * q / 7.r.|  .H.H.H.H.H.H.F... . .A L G.H.H... . .",
"S S S ..F.F.F..... . . . ...G.H.H.G.~ o.#.h.I.j.6._ :.K.{.{.XX%X&X&X&X&X>XeXrXtXaXeX>X:X&X&X;X&X$X X|.|.<.&.r 0 y 4.l.I.+. ...F.G.H.H.G.G. . ...A A ..H.H. .S Z ",
"A A ! F...S L S L L L L L L ..G.H...~ X.g.T.~.8Xc.4.i.P.oX{.}.%X&X&X&X$X&X>XeXeXeX,X;X&X%X&X;X&XXX{.[.).,.=.:.p.L.w.s.k.|  . . .F.G.H.H.H.G...G... .H.H.H.L A Z ",
"A ! ! ~ ..S S S S S S S L S S L F.F.F.J.g.T.~.~.Y.8.p._.#XoX}.%X&X&X&X&X&X&X>X>X>X;X&X&X*X&X&X&X$X{.[.P.>.:.}.,X*XL.0.' | o.L S  .H.H.G.H.H.H.H.H.G.G.H.G.A A A ",
"A A ~ ~  . .S S S L S S  ...L G.H.G.H.H.t.U.~.~.T.8.p.'.-XoXXX%X>X;X&X&X&X&X&X&X&X&X&X&X&X;X;X*XXX{.[.P.-.:.+XeX1X).-._ | G...G.H.H.H.H.G.G.G.G...!  .G.H.F. . .",
"A ! ~ G.H.F.~ S  . .....F.F.H.H.H.F.H.J.t.U.!.~.c.8.a.'.-XoX}.%X&X&X&X;X&X&X&X$X&X&X&X&X&X;X;X&XXX{.{.).,.:.}.>X;XK.q.4.| X.G.H.H.H.H.G.....G.G. .A ! ..H.G...~ ",
"! ! ! H.H.H.....F.H.H.H.G.G.H.H.H.F.H.J.t.T.!.~.c.4.a.@X<XXX].XX%X&X;X&X&X&X&X&X&X&X&X&X;X;X%XOX{.{.oX#X2.-.p.K.K.q.y.f.| ..H.F.G.H.H.F.! G.H.H. .A A G.H.! ! ! ",
"S ! ~ G.G.H.H.F.S  .G.H.F...H.F.~ H.H.J.t.b.Q.~.Y.u.i.(.#XoX[.[.XX$X&X&X;X;X&X&X&X&X;X;X;X&XOX{.[.[..X.Xp.4.4.-.0.s.Y.I.@.X.H.H.G.H.H.H.G.G.H.H.G...H.G.H... .S ",
"A S ~ ~ G.H.H.F. .L ..H.F...H.F.X.G.F.o.#.U.Q.~.Q.Y.y.a._.@X#X|.[.XX%X&X&X*X&X;X&X&X&X;X&XOX{.[.].|.(.a.w.y.8.8.u.Y.R.U.@.G.H.F.G.H.H.H.H.H.H.H.G.G.H.H.G.G. .! ",
"S ~ H.G.H.H.G.G.H.F...H.G...F.H.H.X.Q E r.U.~.~.~.~.Y.s.1.#X=X X).[.XXOX%X%X&X;X&X%X%X%XOX{.].[. X|.2.=.s.!.!.!.!.E.T.j.@.X.H...! ..G.G.H.H.H.F.X.........H... .",
"A ~ H.X.H.H.G.H.H.H.G.G.F.G.G.H.H... .| #.b.Q.~.~.~.v.y.,.@X#X.X].].[.{. XXX%X;X&XOXXX{.{.[.).[.oXoXK.=.x.0XqXqX!.z.y.0.} o...L ! ....F.~ ~ G.G.G.F.H.G.H.G.....",
"S ..H. ...H.G.H.H.H.G.....G.H.H.H.~ ~ o.r.l.R.~.~.8XE.y.-.(..X.X{.[.].].[.{.OX$X$X X[.].].].].{..X'.a.w.Y.8XqX!.Y.i.i.q.K K S S ....X. . ...G.H.H.H.H.H.H.H.F.~ ",
"!  . .L  .....F.G.L S L S L G.H.H.G.F.X.r.k.R.Q.0XqX8Xj.a =.^.#XoX{.].].[.|.[.{.{.[.[.].|.[.{.[.(.,.w.E.8X9X8Xz.w.L.P.P.J K H.H.H.G.H.H.H.H.H.H.H.H.H.F.L G...~ ",
"!  .F. . . . .....L ....L S F.H.H.H.G.X.r.l.R.!.8X0XwXc.i &.^.4X5X#X[.].].[.].].[.[.[.[.].].oXoX_.-.8.8XwXqX8XE.s.p.L.<.J K H.H.H.H.H.G.F.G.H.G... .F. .S ..~ ~ ",
"S ..H.F....... . . ...G.L L ..H.H.G.G.J.r.k.R.!.~.~.wXv.a y ^.4X6X-XoX[.).[.|.].].[.[.{.].[.#X#X_.-.4.8XqXqXqXqXE.y.q.0.} S F.H.G.H.H.G. ...G.G...S F.F...S S ~ ",
" ...G.H.H.H.F...F. .! S S S H.H.G.X.G.J.r.k.R.~.~.8X0Xc.a t -.`.4X7X3XoX).).[.[.[.].).P.}.#X#X_.,.4.9.E.8X9X9X8X!.Y.h.t.O.G.G.G.F.H.G.H.H.H.H.H.H.H.H.H.H...~ ~ ",
"~ ..G.H.H.H.H.H.H.G.F.~ ..G.H.H.G. .F.J.r.k.U.~.~.8X0Xc.s p $.q.`.3X6X3XoX[.P.].].[.{.{.OX#X`.,.$.3.u.x.8X8X9XqX!.W.T.g.@.....G.G.F...G.G.G.G.H.H.G.G.H.H.F...~ ",
"! ~ G.G.F.F.G.H.H.H.H.H.H.H.H.H.H.! Q O.r.k.U.R.!.!.~.c.s p p a -./.4X6X3XoX{.].[. X#X=X#X'.>.$.$.3.u.x.Y.E.9X8X!.!.R.l.@.L o.H.H..... .L  .......! ! G.H.F.~ ~ ",
"! ~ F.F.H.H.F...F.G.H.H.H.H.G.F...~ ~ E [ f.R.Q.!.!.T.u.a 9 p 3.y $./.3X7X5X=XXX#X-X4X3X'.-.$.e a 3.9.x.x.x.E.W.!.R.T.k.|  .F.H.H. . ..... . . .S ! ..F.G.H.~ S ",
"! ~ F.G.G.G.......F.....H.H.H.........o.[ f.U.R.R.E.x.9.a e a 5.6 1 $.^.4X7X3X@X#X4X6X@X1.r 7 6 p 3.9.x.x.x.x.Y.R.R.l.t.| Q H.H.X.S  . . . .! L S L G.F.F.F.~ S ",
"S ~ H.H...S  ...G... .L ..H.F.G.H.H.G.O.r.h.l.U.T.c.x.8.t e s 5.u + 1 =.^.2X@X`.@X@X@X1.$.5 7 9 t 3.8.z.x.z.x.x.T.U.k.[ @.X.H.H.G.! S S S L L S S S G.G.F.F.~ S ",
"! ..G.F. .A S  .H.H.H.G.H.G...G.H.H.H.G.#.f.I.U.U.l.z.8.a 9 s 5.p + 1 w >.>.>.>.>.>.>.$.5 1 7 e t 3.8.z.z.z.z.z.k.k.k.g.@.G.H.H.H.G.! S S S  ...~ ~ F.F.G.H...S ",
"! ..G.G.F...S F.H.H.H.H.H.F.F.H.H.H.H.O.' e.l.T.U.h.h.8.a 9 p 5.p 1 1 5 5 w w w w w w 1 1 7 7 7 9 3.6.h.z.z.u.h.f.k.k.k.@.Q ..G.H.H.F.~ ~ ..G.G.G.G.G.F.F.G.F.~ ",
"S ~ H.H.H.H.G.H.H.F... .F.H.H.H.H.G.G...( r.l.T.l.7.u.8.s t p 5.u 1 1 1 5 1 5 1 1 1 5 1 5 5 7 7 e _ 6.u.9.u.h.7.7.k.f.#.X.S ~ F.H.H.H.H.H.H.H.H.H.H.H.G.~ F.S S ",
"S S F.H.G...G.H.G.G...L F.H.H.H.F.F.F.L  .#.f.l.U.l.j.9.3.e a ` 9 1 5 7 5 5 5 5 5 5 1 7 5 5 7 e t ` 5.u.6.8.j.h.f.f.[ [ o.H.G.~ ..H.H.H.H.H.H.H.H.G.~ G.F.F.S A ",
"S S G.H.G.S F.G.H.F...L F.G.G.F...F.....F.| [ f.k.b.k.6.a t a s u 1 7 5 5 5 5 1 5 5 1 1 5 7 7 e t s 6.9.8.7.j.j.f.7.' ( G.H.X.~ F.H.H.H.H.F.F.G.H.F.~ H.H.F.S S ",
"S F.H.H.H...~ F.H.F.S ~  . .~ ~ ..G.H.H.F.Z / [ f.f.f.5.9 p s %.7 1 4 4 4 5 7 1 1 1 5 5 1 7 7 7 t %.3.9.f.f.f.7.7.[ ) ! ..! ! G.G.F.H.H.H...~ G.G.H.H.H.H.G.F.S ",
"S ~ H.F.F...F.F.F.F...S F.G...~ F.G.F...F. . .( ' 7.f.[ u 6 u a e 4 e e 7 7 e e 7 5 e 7 e e 8 8 t p ` 6.7.f.f.] / ( E ! ..G.G.G.F...G.H.H.F...G.H.H.G.~ ..H.F.F.",
"S ~ F.F.F.F.H.G...G.G...G.H.H.G.G.H...~ F.H.H.Z ( ' [ ` u 6 u u s %.%.%.%.%.%.%.%.%.%.%.a p e 7 9 i s ' [ [ #.) ( Z A  .G.G.H... . .G.H.H.G.F.H.H.G.G.S S H.F.S ",
"S ~ ~ F.G.H.H.H.H.H.H.H... .H.G.G.H.G.G.F.G...S A ! m x 6 6 u s 6.h.d.h.d.d.d.u.9.d.9.5.5.s 9 7 6 i / / F G {  . .H.G.G.G.....!  .F.F.G.H.H.G.H.G.F.~ G.H.H.S A ",
"S S ~ S ..G.G.H.H.H.H.F. ...H.H.G.H.G.G.G.G...L ~ ~ S C ( ( / ( @.r.+.| r.+.+.' +.' ) ) ) ) ( m ( } } } E A ..G.G.H.G.G.H.G...~ F.G... .....F.H.H.G.F.G.H.H.S C ",
"S S S S ~ F...F.H.H.G.~ ~ G.H.H.H.G.F.F.H.H.G...F.G.F.~ S S S F.S S S A A A Z Z L A M C A S ~ F.M.H.F.~ ~ G.H.H.G.H.G.G.H.G.F...F.G.F. . .....G.H.H.G.H.H.G.S A ",
"~ S S S S S ..F.G.H.F.F.F.F.G.F. . . ...H.H.H.F.G.H.H.H.Q H.H.~ S S G.H.F.F.G.G.G. .L L S ! ..G.H.H.G.X...F.G... . .! X.H.H.G.G.F.H.H.H.F.G.H.F.S ~ H.H.H.G.F.S ",
"A S S S ~ S ~ ~ S S ~ ~ ~ ~ ~  . .! ~  . .......~ F.F.F.F.F.F.~ A A ....S S ..F.F.L S L !  .! ~ ~ ! ! ~ ~ ~ ~  . . . . .............F.F.....F. .S A ~ ~ S S S S ",
"C Z A S S ..S S S Z S S S S A S  .! ..~ A S S ~ ~ S S S S S S S A A S A C A S S S S S S  . .! A A Z A ! ! S A S .. .~  .A A S ~ ~ S S S S S  . .A Z S A C Z Z C "
};
