/* XPM */
static char *__resized[] = {
/* columns rows colors chars-per-pixel */
"80 80 224 2 ",
"   c #0C0A09",
".  c #0F0F0B",
"X  c #120E0D",
"o  c #14180D",
"O  c #191814",
"+  c #271B1A",
"@  c #301F1F",
"#  c #1A2606",
"$  c #1D2B07",
"%  c #19240B",
"&  c #1E2C09",
"*  c #1F300A",
"=  c #1D2813",
"-  c #1F321C",
";  c #202F07",
":  c #202E09",
">  c #223409",
",  c #26330C",
"<  c #263B0B",
"1  c #293E0B",
"2  c #262717",
"3  c #392A1C",
"4  c #283714",
"5  c #353917",
"6  c #1F1E21",
"7  c #2C1F21",
"8  c #1E3323",
"9  c #272726",
"0  c #3D2B23",
"q  c #352728",
"w  c #273626",
"e  c #393529",
"r  c #302D33",
"t  c #353535",
"y  c #41391C",
"u  c #412D26",
"i  c #453329",
"p  c #493729",
"a  c #593D2E",
"s  c #4A3639",
"d  c #533D35",
"f  c #2B430B",
"g  c #2E4A0C",
"h  c #314E0D",
"j  c #34540E",
"k  c #365A0F",
"l  c #395D0F",
"z  c #2A4611",
"x  c #2C4914",
"c  c #364916",
"v  c #2F5316",
"b  c #345511",
"n  c #3A5517",
"m  c #365911",
"M  c #395C10",
"N  c #355C19",
"B  c #3C620F",
"V  c #3F680E",
"C  c #3C6311",
"Z  c #37621A",
"A  c #39641B",
"S  c #3D6D1D",
"D  c #3F711F",
"F  c #364929",
"G  c #345326",
"H  c #3A5826",
"J  c #35552A",
"K  c #375A2A",
"L  c #3A5C2C",
"P  c #324A35",
"I  c #3D6525",
"U  c #3D6A22",
"Y  c #3D632C",
"T  c #3F7120",
"R  c #3F6431",
"E  c #41471A",
"W  c #41660C",
"Q  c #426B0F",
"!  c #46710E",
"~  c #4C7A0F",
"^  c #507E0F",
"/  c #416715",
"(  c #436B11",
")  c #497714",
"_  c #41751F",
"`  c #43791F",
"'  c #517F11",
"]  c #484826",
"[  c #4C562B",
"{  c #484938",
"}  c #5B4234",
"|  c #584637",
" . c #585639",
".. c #654C3B",
"X. c #724E3B",
"o. c #67563C",
"O. c #426E24",
"+. c #436628",
"@. c #546D2D",
"#. c #427620",
"$. c #457C21",
"%. c #4A7927",
"&. c #54782B",
"*. c #5C7532",
"=. c #6B643C",
"-. c #617D34",
";. c #313B43",
":. c #503B41",
">. c #2B4644",
",. c #354C47",
"<. c #38544A",
"1. c #2F5250",
"2. c #34655A",
"3. c #39625A",
"4. c #3B725F",
"5. c #355862",
"6. c #3B6A67",
"7. c #3B736D",
"8. c #565746",
"9. c #50554E",
"0. c #6A5746",
"q. c #6F5549",
"w. c #785959",
"e. c #46695D",
"r. c #756A42",
"t. c #786448",
"y. c #7A6C4D",
"u. c #656759",
"i. c #447769",
"p. c #677362",
"a. c #7F7965",
"s. c #885C43",
"d. c #85674C",
"f. c #85754B",
"g. c #876C54",
"h. c #8C7356",
"j. c #94765A",
"k. c #9A7B5B",
"l. c #887965",
"z. c #957A64",
"x. c #967C67",
"c. c #9A7D65",
"v. c #A07F62",
"b. c #52820F",
"n. c #578A0F",
"m. c #518717",
"M. c #5D9111",
"N. c #619611",
"B. c #669D12",
"V. c #6BA512",
"C. c #6EA912",
"Z. c #71AB11",
"A. c #76B513",
"S. c #478022",
"D. c #498423",
"F. c #4C8A24",
"G. c #55842B",
"H. c #3E8078",
"J. c #4A8774",
"K. c #458878",
"L. c #49927D",
"P. c #9C855A",
"I. c #A4875E",
"U. c #9B826A",
"Y. c #9B8871",
"T. c #A38363",
"R. c #A88A64",
"E. c #B18E6A",
"W. c #B3916E",
"Q. c #A88C73",
"!. c #AD9177",
"~. c #B49473",
"^. c #BA9674",
"/. c #BB9877",
"(. c #B5977C",
"). c #BC9B7C",
"_. c #3E7C84",
"`. c #448985",
"'. c #4C9986",
"]. c #4A9496",
"[. c #51A287",
"{. c #52A489",
"}. c #55AB8E",
"|. c #4FA496",
" X c #55AD92",
".X c #54A996",
"XX c #59B494",
"oX c #5AB795",
"OX c #56B29C",
"+X c #5CBC9A",
"@X c #4897A1",
"#X c #57B7A5",
"$X c #51AFB1",
"%X c #5FC29B",
"&X c #60C69D",
"*X c #62CA9F",
"=X c #5DC1A6",
"-X c #5CC4B5",
";X c #63CBA1",
":X c #66CCA3",
">X c #67D3A6",
",X c #6BD1A5",
"<X c #77DAAC",
"1X c #7DDEB0",
"2X c #7CE0B1",
"3X c #56BAC1",
"4X c #5BC6C8",
"5X c #5FD3D4",
"6X c #61D3CD",
"7X c #B59B80",
"8X c #BD9D81",
"9X c #BFA186",
"0X c #C09F81",
"qX c #C2A285",
"wX c #C5A689",
"eX c #C8A88B",
"rX c #82DFB2",
"tX c #88E6B6",
"yX c #93EDBD",
"uX c #97F0BE",
"iX c #9CF3C2",
"pX c #A8F6C1",
"aX c #B9FAC1",
"sX c #C3FCC0",
/* pixels */
"v Z _ S D D D _ _ S D _ _ ` ` D D ` ` D D S D $.$.D ` ` D S S D D D #.D D $.` S A S D D D D D D #.I O.#.#.#.#._ D _ ` _ S S D #.` _ _ _ _ S S S D #.#.D S $.S N ",
"A S _ _ #.#.D D D D D #.#.` #.D D #.T D D D ` #.D D D D T #.$.$.S.#.D D D ` $.$.#._ D _ _ _ D U H I #.#.$.#.` D D #.D D D D _ ` _ D _ S S #.$.$.$.#._ D _ $._ S ",
"` _ _ $.$.$._ S D _ ` S.S.#.$.#.T $.T D D ` $.T T T D D T S.F.F.F.S._ D D $.F.F.F.S.#.$.S.$.D H F I $.$.$.$.$.#.#.#.D D D #.$.#.#.U S _ #.$.F.F.F.S._ D _ $.` _ ",
"_ ` D.F.F.$.#._ ` ` ` S.D.F.F.F.D.S.T T $.D.F.D.S.S.S.D.D.S.S.D.D.D.S.` #.S.S.S.S.D.D.F.D.S.#.T U O.$.$.D.D.F.F.F.S.#.D $.D.F.F.D.$.D.D.D.D.D.D.D.D.D.#._ D.` _ ",
"S $.D.$.F.F.D.D.S.$.$.D.F.F.F.D.D.D.S.D.F.F.F.F.F.F.F.F.D.S.S.S.$.$.D.D.S.S.S.D.S.S.S.S.D.F.D.S.D.$.$.D.F.F.F.D.F.D.D.D.F.F.F.F.D.F.F.F.D.$.$.$.$.$.D.D.$.$.#._ ",
"D _ _ _ $.F.F.F.F.D.S.D.F.F.$.$.S.F.F.F.F.F.F.F.F.F.F.F.D.#.#.$.T T D.F.D.$.S.F.D.$.T #.S.F.F.F.D.D.$.D.F.D.$.$.S.F.F.F.F.F.F.F.F.F.F.F.D.$.#.$.D D D.F.F.$.#.#.",
"S _ _ ` $.$.$.$.#.#.#.#.#.$.D.D.D.D.S.#.#.$.S.D.D.F.F.D.D.` #.#.S D S.F.F.$.#.#.S.#.T $.$.S.S.$.$.#.#.#.$.$.D.D.D.D.S.T #.$.S.D.F.F.F.F.D.$.#.$.S D D.F.F.$.S A ",
"S S _ $.$.#.#.#.T D D T D D $.D.F.S.$.$.$.#.#.` $.F.F.F.F.S.S.S.$.#.D.F.F.#.D _ $.$.T S.$.T T D T D T #.O.T $.D.D.S.S.#.$.$.#.#.$.D.F.F.D.D.$.D.$.#.D.F.D.#.S Z ",
"S D D S.S.D D D D T D D D D D T S.` F.F.F.$.#.D ` F.F.F.F.F.F.F.D.D.D.F.D.T T $.$.#.#.S.$.D D D T T #.U +.I U $.D.S.D.F.F.S.T D #.F.F.F.F.F.F.F.F.D.F.F.D.D S S ",
"S D ` S.$.T D D D D D D #.$.T D.F.S.F.F.F.D.$.D.F.F.F.F.D.D.F.D.$._ #.D.F.S.D.F.$.#.#.$.$.#.D D U T T U G J T D.D.S.F.F.F.D.S.D.F.F.F.F.D.D.D.F.$.T #.D.F.D.#._ ",
"D D T D.D.D.T D #.#.$.$.S.S.F.F.F.S.F.F.F.D.D.F.F.F.F.F.` ` ` F.T S T $.D.D.F.F.D.#.` S.F.S.#.T ` $.S.#.H F O.D.F.D.F.F.F.D.D.F.F.F.F.D.$.$.D.D.T S S $.F.S.$.` ",
"` D D F.F.F.S.T D.F.F.F.D.D.F.F.F.S.F.F.$.S.F.$.$.F.F.$.` D.F.F.#.S D D.F.#.$.D.F.$.#.F.F.F.S.#.S.F.F.F.%.Y K O.F.D.D.F.$.S.D.S.D.F.F.D.#.$.F.F.T S D D.F.#._ ` ",
"D D D S.F.F.F.S.D $.D.F.S.$.F.D.$.D.F.D.D.F.F.D.F.F.F.F.F.F.F.F.D.$.D.F.F.$.$.D.S.$.#.S.D.F.F.S.D $.D.F.S.I e K S.D.D.F.D.F.F.S.D.F.F.F.D.D.F.F.D.S.D.F.F.#._ D ",
"S D ` S.D.F.F.D.D T $.F.S.$.D.S.$.D.D.$.F.F.F.$.$.F.F.F.F.F.F.F.D.F.F.F.D.D.D.D.S.#.$.$.D.F.F.S._ D $.F.S.I F G T F.D.S.F.F.F.S.S.F.F.F.F.F.F.F.D.F.F.F.D.S.#._ ",
"D ` S.F.F.F.D.D.F.S.$.F.S.S.S.F.F.D._ S %.F.F.$.` $.D.F.F.F.F.S.$.$.$.$.S.D.D.F.D.S.S.F.F.F.D.D.F.S.$.D.D.O.F Y %.S.T D $.F.F.#.#.$.D.D.F.F.F.S.$.$.$.S.S.D.S.#.",
"D ` F.S.F.F.D.F.F.F.D.S.D.D.D.F.F.$._ D _ ` $._ _ ` ` %.` ` D.D.D.D.D.U A ) ) A S #.F.S.F.F.D.F.F.F.D.D.S.%.L R %.#.D D T $.S.T T $.$.S.#.$.D.D.D.S.D.D.D.F.S.` ",
"D ` D.$.$.F.D.D.F.F.S.$.$.D.D.F.F.$.` _ #.#.#.#.$.$.$.$.$.$.D.F.D.G.` ) ! ^ ~ ( ) ` F.U _ F.D.F.D.F.D.$.S.T K +.+.%.T T T T $.T $.$.$.$.#.$.D.F.F.F.F.D.F.F.S.` ",
"` ` #.D _ $.$.S.D.#.T T D #.D.F.F.D.D.` S.S.F.F.F.D.D.F.F.F.F.F.$.) ' B.A.C.V.C.A.B.^ m Z $.$.$.D.#.D T D U K +.%.D.D.%.D.D.F.F.D.D.F.D.F.F.F.F.F.F.F.` #.D.$.` ",
"_ $.S.#._ #.$.$.$.#.#.$.D T S.F.F.F.D.D.$.$.D.F.F.F.F.F.D.D._ A m.B.N.Z.A.B.B.V.A.A.B.M.) C _ $.$.#.#.$.D U F [ %.F.D.S.T S.D.F.F.F.F.F.S.D.D.D.S.` D.` #.#.#.` ",
"D ` F.S.$.$.$.#.#.#.$.D.T D S.F.F.D.F.D.$.$.S.F.F.F.F.$.S ` _ l N.A.A.C.N.n.~ n.V.Z.C.A.N.M A _ #.#.$.D.D G 9 H S.D.F.D.S.S.D.F.F.F.F.D.#.S.D.F.` D $.S.$.D _ _ ",
"#.$.D.D.F.D.D.D.$.#._ D U #.F.D.D.S.D.F.F.F.F.S.D.D.F.#.Z ) M.C.C.V.C.V.n.j k ! ' b.^ n.n.b.k N $.$.#.U D H 9 L S.D.D.F.F.F.F.D.D.D.D.F.F.F.F.F.F.F.F.F.D.S.` ` ",
"` $.D.F.F.F.D.F.F.D.$.$.$.D.F.F.D.#.S.F.F.S.S.D.F.` _ / ) M.C.A.M.) B Q ! j l ! ! ! B h W n.^ ^ m.S S $.#.G w Y D.T S.F.D.D.S.D.D.D.S.S.D.D.D.D.D.F.D.F.F.D.$.` ",
"D ` F.D.S.D.D.D.F.F.F.F.F.F.F.F.D._ #.S.$._ _ D.F.` S ! n.V.Z.B.~ g $ g V ( Q ! ! W j ; g n.V.V.M.C Z $.L F F O.F.T $.S.S.T T F.F.S.S.T T T $.S.` #.` D.F.$.$.` ",
"` ` $.S.F.F.D.$.S.F.F.F.F.F.D.S.$.#.#.#.#.#.S.D._ C n.M.^ ^ M.C.^ k j k m k l V Q W k h l b.b.b.b.b.( c 2 w O.%.$.$.$.T T T D.F.D.T D $.S.$.S.T D T S.S.D.D.` D ",
"_ $.S.D.D.S.S.$.$.$.$.$.D.F.D.S.$.S.$.#.$.D.D./ / W ^ ~ V B ~ B.b.V C l m l B C W W M M ( ' ( V ) / G 4 w c A _ S.S.` ` $.D.F.F.D.D D ` $.T T T D D S.S.S.S.S.D ",
"D #.F.F.S.D T S.D.S.#.T $.F.D.S.F.F.D.D.$.D.` M W ! M h f h V n.~ Q C M l Q W C l k M W ! ) M m n c 9 9 n / h A S.F.F.F.F.F.D.F.D.D D D D D D D D D D.S.S.D.D D ",
"_ $.D.S.D D S ` F.F.F.D.F.D.$.D.F.F.F.S.Z ( ) l M C M g > h Q b.Q k M W Q k f < < h B Q Q M g z 4 9 w 5 / ) ! l Z S.F.F.F.F.D.F.F.D.D D D D T ` S.` S.S.D.D.S.D ",
"_ $.D.S.S.$.D ` F.F.F.D.D.F.S.F.F.` ` _ m l ( M m M M h 1 f m Q B m m Q Q k g f f j B Q C j g 4 9 9 q c / ! ) W C ` ` ` D.S.%.D.F.F.D.` $.$.D.D.D.D.D.S.S.F.D.D ",
"D ` F.F.F.F.F.F.F.D.$.#.S.F.F.F.S.Z m M m m m m k l M m h < 1 m M M M l B C B V l l W B M j b 4 9 9 w v b b M ! ~ Q M N ` ` ` S.D.F.F.F.F.F.F.F.F.F.F.D.S.S.D D ",
"S ` S.F.D.$.D.F.D.S.S.#.D.F.F.F._ g f h m m m C Q Q C m j j b M m M W C M B n c l l l W j 4 = = 9 r r = % & 4 b C B C W _ S.D.` S.F.F.F.F.F.F.F.F.D.S.D.D.D D D ",
"D ` S.F.S.` S.D.D.S.$.#.$.F.F._ Z f 1 h m m m W Q W C M m k M k M M W M k W y 3 5 h n B h % o X 6 r r 6 X . o 4 b h j l Z S ` $.S.D.F.F.F.D.D.D.D.D.` D.F.$.D D ",
"_ S.F.F.D.$.` S.F.S.T T #.#.D N x h f f m m j j M M M M m g g m M k m M l l E y u 5 c b z o O . . 9 t t O   . 4 h f f f 1 z b ` D.D.F.F.F.` ` D.D.F.F.F.F.D.S.D ",
"D ` D.F.S.$.$.S.S.S.$.D D.` N z f f f f j k h k h g 1 g j g g k m j h l l j [ a u 5 l l , . O X   . + = . . O O & 1 f f , < 1 g N D D.F.F.S.$.D.F.F.D.$.S.F.S.$.",
"D ` $.S.S.S.F.D.$.F.D.#.D._ z < < < 1 f h h g h g f < f l j j j E c h j l l ] a 5 h k l g o 2 O     X X . o 2 O o f g f < > < * f Z ` D.F.D.S.F.F.D.D.D D D.S.D ",
"D _ $.$.D.F.F.F.F.F.F.F.$.N > > > ; > < f g f f g g j j j j k j ] ] l l j j y y j k h k j z 2 2 & O X O = = = > f f f 1 < > > > > < Z $.F.D.D.F.D.S.S.S.D.F.S.S ",
"D D #.D $.D.D.F.F.F.F.S.N f > > > ; > < f f f f f g h h g g h k y y h g g g 1 1 k g f j j h < < f < = , < < , < f f f < > > > > > > f C $.$.S.F.F.D.S.S.F.F.D A ",
"D D D D $.$.$.S.F.F.S.D z & > < > < < < < f f f 1 f f f f < g j 1 y 1 1 1 1 f g j f < g g f f f f g g f f f f f f f > > $ > > > > ; * f Z T S.D.F.D.D.D.F.D.D S ",
"` D D _ T T S.S.F.F.` Z f > > > > > > > > 1 f f 1 1 1 1 < f f g g 1 1 f 1 g f f f f f f f f f f f f f f g f f f 1 > $ # $ > > > > $ * ; < D F.$.D ` F.F.F.D.S.D ",
"` _ ` $.S.$.S.S.S.S.S f > > > > > > > ; < 1 1 1 < < > < f f f f g f g f f g f 1 f f f f f g f f f f f f f f < < < ; ; $ > > > > * $ & * , S F.D.D D F.D.` ` D D ",
"S ` S.D.D.F.S.$.$.$.Z * $ $ * > > > ; ; > > > > < < ; > < f f f 1 1 g f 1 f f 1 f f f f f f f z f < < 1 < < * * > > > > > > > ; $ & * * x D D.F.S.` D.` D ` S.D ",
"A D D.D.D.D.D.D.D.S.A < * & # * ; > ; : # # > > > > > > > > < < ; # ; , f f f f f * * 4 z < < < < > $ # * < > > > > > > > ; # # & > < N D #.S.S.D.D.F.S.S.F.$.S ",
"S _ $.$.$.$.$.$.S.S.D v z * # & ; ; ; : ; : ; > > < > > > > > > ; ; ; ; * * * * # 8 G 2.P x > * ; * $ $ > > < > < > ; ; ; ; ; # * z v Z $.S.D.D.F.D.$.#.#.F.S._ ",
"` _ _ $.S.$.D D D D $.#.Z z < * ; ; : ; ; ; ; ; > > > > > > > > > , , : * 8 8 < 8 P 4.'.i.F * * # ; > > > > > > > > ; # # > > > z A S O.T S.F.F.F.S._ S D S.$.` ",
"D $.D.F.D.S._ _ S.D D S.S.D Z x < ; # : ; : # : $ $ * * > > < > * & : w 1.4.4.4.4.J.{.XXL.<.8 * ; > > > < > # # # ; ; # # > j S ` ` D.D.D.S.D.D.D.D.D.` _ S.` D ",
"D #.S.D.D.F.D.S.S.$.$.D.F.F.` A N v b h , 2 : : # & $ & * * * & - P 1.2.H.L.}.}.XXXXoX}.L.3.w = ; > $ $ * * # # 2 5 5 ] z n S D.F.F.F.F.D.$.$.$.$.$.F.D.$.S.#._ ",
"D D _ #.S.F.F.F.F.D.D.S.F.F.$.$.$.S.D.%.] p i 5 5 4 , < , & # - >.2.H.'.XX>X>X>X>X*X+X{.'.7.1.8 # # & & 2 : < 5 e | q.r.@.#.F.F.F.F.F.F.D.$.$.#.S T D.F.D.$.#.#.",
"D D #.#.S.$.$.$.$.#.#.#.T $.D.D.F.D.S.#.=.g.j.h.g.y.t.0. .5 9 >.H.|.OX#X&X*X>X>X>X*X%XoX.X|.L.2.8 = 2 5 e ] 0.t.g.U.T.U.*.#.$.D.D.F.F.F.D.$.#.$.S S $.F.F.$.S A ",
"S S _ S.$.D #.#.T T D T D T $.D.D.S.S.&.y.R.).).!.!.!.Q.l.| ,.7.|.=X;X;X*X>X>X,X>X>X%X%X=X=XOXK.1.e { q.y.g.Y.Q.!.(./.R.*.#.#.#.$.D.F.F.D.D.$.D.$.$.D.F.D.#.S A ",
"S _ _ ` $.D D D D D D D T D D #.D.S.D.G.f.T.).).).).wXwX7Xp.e.'.#X;X&X*X:X<X1XrXrX<X>X;X*X*X=X'.4.9.h.7X9XqX8X8X8X).^.I.&.%.` D #.D.F.F.F.F.F.F.F.D.D.F.D.D S D ",
"S S ` ` $.#.D D D D #.D #.$.#.S.D.S.D.F.f.T./.).9XwXqXwX7Xu.9.`.XX*X*X,X<XrXyXyXyXtX<X>X;X*X%X'.6.u.x.8XeXeXqXqX8X).^.R.G.&.` S.F.F.F.F.F.D.D.D.` _ #.D.D.S.#._ ",
"_ S ` D.D.D.#.D #.$.$.#.$.S.D.F.F.D.F.G.y.R.^./.).wXqXqX7X0.<.K. X;X,X<XrXyXiXiXpXyXtX2X>X;X+XL.6.u.x.7XeXeXqXqX0X)./.I.-.$.F.F.F.F.F.D.$.$.D.F.D S O.$.F.D.$._ ",
"_ _ _ F.F.F.$.$.S.D.F.F.D.D.F.F.F.S.F.G.r.R.).).).).wXwXQ.8.,.i.}.:X<XtXyXuXiXpXpXpXpXtX2X>X%XL.3.u.x.8XwXwX0X0X8X8X/.R.*.$.D.S.D.F.F.D._ $.F.F.#.S _ D.F.` _ _ ",
"S _ _ $.F.F.F.S.#.#.D.F.D.$.F.S.` F.F.F.r.c./.).).9XwX).z.{ >.K. X,XtXuXiXiXiXpXsXaXaXiXtX<X%XL.3.u.x.9XwXqXqXqXqX0X/.I.*.%.F.D.D.F.F.F.D.F.F.F.D.$.D.F.F.$._ _ ",
"S _ $.` D.F.F.D.T T $.F.S.$.F.S.` F.S.%.r.P././.).qXeXQ.t.s ,.K. X,XtXyXiXiXpXaXsXsXpXiXtX<X+XH.3.0.x.wXwX8XqXqX).)./.R.-.D.F.D.D.D.F.F.F.F.F.F.D.D.F.F.D.D.#._ ",
"D ` D.F.F.F.D.D.F.S.$.F.D.$.S.F.F.D.D @.r.T.^.).).qXeXU.8.e <.i. X,X<XtXyXiXpXaXaXaXpXtX2X,XoXL.3.9.g.8XqX8X8X0XqX).^.R.-.%.F.$._ $.D.F.F.F.F.$.$.$.D.$.$.D.$.#.",
"S ` F.D.F.F.D.D.F.F.D.D.S.D.D.F.F.` D O.r.k.^.).).).qXc.s e ,.J. X;X>X<XtXyXiXpXpXpXtX1X,X:X+XL.3.9.w.).qXwXwXqX9X).~.I.*.#.$._ #.#.$.$.` $.D.D.D.D.D.D.D.F.D.#.",
"D $.D.#.$.F.D.D.F.F.D.$.$.D.F.F.F.` D %.r.j.W.^.0X0X0Xz.d e ,.J. X&X*X,X<XtXyXyXyXtX1X,X;X*XOXL.1.9.g.7XwX9X9X7X/.).^.P.@._ ` #.$.$.$.$.$.$.D.F.F.F.F.F.F.F.D.D ",
"#.$.#.T #.$.$.S.D.#.T T D T D.F.F.D.D.D.=.k.E.^.0XeX0Xz.p t ,.J.}.%X&X&X:X<XrXrX2X<X,X*X&X&XXXL.6.9.g.8X9X!.l.U.Q.(.^.P.*.$.D.F.D.F.D.F.F.F.F.F.F.F.F.S.D D.S.` ",
"_ $.S.#.#.#.$.$.#.#.#.$.T D S.F.F.F.D.&.r.k.E.^.0XqXeXc.d e <.`. XoXoX%X*X:X,X,X,X,X;X%X+XoXXX'.6.9.a.7X!.Y.p.u.a.Q.E.P.*.%.F.F.F.F.F.D.S.D.D.D.$.#.D.#.D $.` ` ",
"D $.F.S.$.$.$.#.#.#.S.D.T D S.D.F.D.D.G.r.k.E./.).0XeXU.d e <.`.|.OXXXoX&X*X*X*X*X*X&XoXXX}..X'.3.9.l.7XY.p.i.i.u.U.E.P.*.#.$.F.F.F.F.D.#.$.D.F.$.D $.S.$.D D ` ",
"` $.S.F.F.F.D.D.S.#.D D D ` F.D.D.$.D.G.=.j.E./.).0XwXc.d i P 6.].OX X XXX&X*X*X*X%X+X}.}. X'.7.<.0.z.9XY.p.4.e.u.U.E.I.-.$.F.S.S.D.D.D.F.F.F.F.F.F.F.F.F.$.` ` ",
"_ $.D.F.F.D.D.D.F.S.S.$.$.D.F.F.D.` S.G.d.j.R.^.).).0Xc.} p s ,.K.#XOX}.{.oX%X&X%XoX}.}.}..X`.3.t q.c.8XQ.U.p.p.a.Q.W.I.*.%.` D.D.D.S.D.D.D.D.D.F.D.S.F.F.S.$.` ",
"_ $.D.D.S.S.D.D.F.F.F.F.F.F.F.F.F._ ` &.=.j.R.W././.0Xc.d p p t i.|.#X XL.oX}.oX X}.{.}..X|.7.,.e q.c.8X9X!.Y.U.R.~.E.k.*.O.` F.F.$.$.$.#.#.$.$.#.#.` D.F.D.` ` ",
"_ ` ` D.F.F.D.S.S.D.F.F.F.F.F.$.$.` ` )  .d.E.W./.).).z.d i p | e.7.XX+XoXL.}.L.{.{.{.OXOX'.3.t p q.x.0XwX9X!.~.~.E.I.h.@._ F.F.D.#.#.$.$.#.#.#.T _ $.S.D.D.` D ",
"_ ` $.D.D.D.$.$.$.S.$.$.D.F.D.S.$.S.S.O.o.f.I.E.W./.).j.d 0 a X.P 5.$X#X#X X'.[.L.}.oX-X$X_.>.q p q.c.0X0X0X0X)./.E.k.y.@.` F.F.$._ _ _ _ #._ T D D D.S.S.S.` D ",
"D $.F.F.S.D #.$.S.S.#.T $.F.D.S.D.F.F.&.r.d.k.I.E./.).j.a 0 } s.s >.].4X6XOX[.'.L.+X-X6X$X6.r 3 p 0.z.7X0X0X(./.W.I.d.=.&.G.F.F.D.` _ _ _ D D D D D D.D.S.$.` D ",
"D S.D.S.#.S D #.F.F.D.D.F.D.S.D.F.F.F.G.=.d.k.I.E.W.).z.a u } s.i r 7.$X6X-XOX}. X-X6X4X_.>.q @ p 0.j./.8X).W.z.g.t.h.f.*.D.F.F.F.D._ S D D #.$.` $.` D.D.F.$.` ",
"_ ` D.D.S.$.D S.F.F.F.F.D.D.S.F.F.F.F.D. .t.c.R.R.v.^.k...i } s.i 7 ;._.$X5X-X#X-X4X3X].5.9 3 u p o.h.W.^.~.T.d.o.X.g.f.&.` ` D.F.F.$.%.#.$.S.D.F.D.D.S.D.D.S.D ",
"D ` D.F.F.F.D.F.D.D.$.$.D.F.F.F.F.S.D.$.[ r.k.R.v.j.R.j...u a s.p + + ;._.3X5X5X6X4X@X1.6 7 3 u p ..g.I.R.I.I.t...t.t.=.%.D _ D.D.F.F.F.F.F.F.F.F.F.F.S.` S.D D ",
"D D D.F.D.$.D.F.D.D.$.D S.F.F.D.S.S.$.#.T =.d.k.v.v.v.g...u p s.u O @ @ >._.3X5X4X@X5.r 7 7 @ 0 p X.d.k.h.h.v.j.d.t.X. .%.F.D.$.$.F.F.F.F.F.F.F.F.D.` D.D.S.D S ",
"D D D.F.D.D S.D.D.D.$.D S.D.F.S.$.$.S.$.S.@.o.d.k.v.k.d.a p a X.u + 7 7 r 5.].$X@X6.r 7 7 7 7 3 i ..d.k.h.d.k.j.d.t. .[ D.F.` $.S.F.F.F.F.S.S.F.F.D.S.D.F.` D D ",
"D D.F.F.F.$.` S.F.D.T ` ` T #.` $.D.F.F.D.A G o.d.d.d.q.i d d a q O 7 7 7 r 5.6.5.;.9 7 7 7 7 q i } d.k.k.h.d.s.X.o.[ _ ` ` _ F.F.S.F.F.F.$.` D.D.F.F.F.F.D.S.D ",
"D ` D.F.S.$.S.S.S.S.` D S.D.$.` $.D.D.` S.` O.+. .X.d...u i p d r 7 r q q q t ;.r q q q q q q q u } o.d.g.d.d.o.] [ / S $.D.D.D.$.$.D.F.F.S.$.D.F.F.D.` S.F.S.S.",
"D ` S.S.S.S.D.D.S.D.D.$.D.D.F.D.D.F.$._ S.F.D.A n =.o.| u 0 0 s :.:.:.:.:.:.:.s :.s :.:.:.s r q 0 p } o.o.o.=.[ H S D #.$.F.F.$.#.$.S.F.F.D.S.F.F.D.S._ D F.S.D ",
"D ` ` ` D.F.F.F.F.F.F.F.$.$.F.D.D.F.D.D.D.D.$.D _ _ A F 0 q q s 0.w.w.w.w.w.w.w.w.w.q.9.:.:.s q t i i ] F n T T #.D.D.D.D.D.$._ #.S.S.S.F.F.D.F.D.S.S.S.D.F.D S ",
"D D ` D $.F.D.D.F.F.D.D.#.$.F.F.F.F.D.D.D.D.$.T ` ` / n F e F P [ 8.8.8.8.8.8.| 8.8. .{ { { P F F F H I Z D S.S.F.F.D.D.D.D.$.#.$.D.$.$.$.$.S.F.F.D.S.S.F.F.D Z ",
"D D D D D S.S.S.F.F.D.D S.D.F.F.D.D.$.D.F.F.D.$.S.D.S.T I L L L K K J J J G G G F G F G J K L L +.+.Y T T D.F.F.D.D.$.D.F.F.S.$.S.F.S.$.#.#.$.D.F.F.S.D.F.F.D S ",
"` D D D ` D ` D.D.F.D.S.` S.D.$.#.$.$.` F.F.F.S.D.F.F.S.O.R R L J Y Y Y I Y Y Y L K J J K J L R 9.R U T T S.F.S.#.#.#.$.F.F.D.D.S.F.F.F.S.F.F.$._ ` F.F.F.S.S.D ",
"S D D D D D $.` ` D D ` ` ` ` ` #._ _ $.#.$.$.$.$.$.S.T U I Y L J J Y L K K L Y Y K J K L L L L Y K U S $.T S.T #.#.$.$.$.$.$.$.$.$.S.$.$.$.$.$.S S ` ` D D D D ",
"Z A D D ` T D D S S D D D D D D #._ ` _ S D D $.#.T T S U K K L J P J G G J J K J K J K L L L K J G Z S T T S D $._ _ ` S S _ #.` D D D D D #.#.S S D S A A A Z "
};
