/* XPM */
static char *__resized[] = {
/* columns rows colors chars-per-pixel */
"80 80 228 2 ",
"   c #0C0A09",
".  c #0F0F0B",
"X  c #120E0D",
"o  c #15170A",
"O  c #191713",
"+  c #241715",
"@  c #261917",
"#  c #281A17",
"$  c #221718",
"%  c #251B1A",
"&  c #2A1C1A",
"*  c #301F1D",
"=  c #1A2506",
"-  c #1D2B07",
";  c #17200A",
":  c #1B240A",
">  c #1E2C09",
",  c #1F3007",
"<  c #1E2612",
"1  c #20290A",
"2  c #202E09",
"3  c #223409",
"4  c #29340F",
"5  c #263B0B",
"6  c #293E0B",
"7  c #262518",
"8  c #33211D",
"9  c #3C2D1B",
"0  c #2C3412",
"q  c #293914",
"w  c #373918",
"e  c #1F1E21",
"r  c #262524",
"t  c #262A25",
"y  c #352420",
"u  c #392621",
"i  c #3D2B23",
"p  c #2A3429",
"a  c #3A3924",
"s  c #2A3834",
"d  c #323435",
"f  c #41391C",
"g  c #422D24",
"h  c #442E29",
"j  c #473627",
"k  c #463429",
"l  c #49342A",
"z  c #533A2E",
"x  c #5B3E2D",
"c  c #4D3A33",
"v  c #543D31",
"b  c #573C32",
"n  c #2B430B",
"m  c #2E4A0C",
"M  c #314E0D",
"N  c #34540E",
"B  c #365A0F",
"V  c #395D0F",
"C  c #2A4611",
"Z  c #2D4B12",
"A  c #364916",
"S  c #2F5316",
"D  c #345511",
"F  c #395412",
"G  c #365911",
"H  c #395C10",
"J  c #3A571D",
"K  c #355C19",
"L  c #3C620F",
"P  c #3F680E",
"I  c #3C6311",
"U  c #37621A",
"Y  c #39651B",
"T  c #3D6D1D",
"R  c #3F711F",
"E  c #354828",
"W  c #3B5423",
"Q  c #395627",
"!  c #385C24",
"~  c #2C433C",
"^  c #31453E",
"/  c #38593B",
"(  c #3D6424",
")  c #3E6B22",
"_  c #3A6329",
"`  c #3F7220",
"'  c #3C6436",
"]  c #41471A",
"[  c #41660C",
"{  c #426B0F",
"}  c #46710E",
"|  c #4B750E",
" . c #4D7C0F",
".. c #507E0F",
"X. c #416715",
"o. c #436B11",
"O. c #487515",
"+. c #4B7913",
"@. c #41751F",
"#. c #43791F",
"$. c #517F11",
"%. c #494828",
"&. c #504424",
"*. c #455826",
"=. c #515829",
"-. c #5B4234",
";. c #5B4737",
":. c #5B5636",
">. c #654737",
",. c #644B3B",
"<. c #67573C",
"1. c #78523D",
"2. c #446627",
"3. c #426E24",
"4. c #526C2C",
"5. c #427620",
"6. c #457C21",
"7. c #4A7D25",
"8. c #4A7728",
"9. c #54782B",
"0. c #5A7231",
"q. c #5E7932",
"w. c #6B643C",
"e. c #617D34",
"r. c #364B45",
"t. c #305048",
"y. c #375749",
"u. c #386655",
"i. c #3B7364",
"p. c #3B766C",
"a. c #434B47",
"s. c #535548",
"d. c #455754",
"f. c #694D40",
"g. c #6C5442",
"h. c #685744",
"j. c #755A46",
"k. c #756A42",
"l. c #77634A",
"z. c #7D7246",
"x. c #7A6651",
"c. c #457D6B",
"v. c #447775",
"b. c #825A3F",
"n. c #875E43",
"m. c #83664C",
"M. c #88684D",
"N. c #84754B",
"B. c #846B55",
"V. c #8C6D52",
"C. c #8C7355",
"Z. c #947455",
"A. c #95775C",
"S. c #9A7B5B",
"D. c #8E7762",
"F. c #967A64",
"G. c #9A7C64",
"H. c #987C66",
"J. c #A07F62",
"K. c #52820F",
"L. c #578A0F",
"P. c #518717",
"I. c #568912",
"U. c #5D9111",
"Y. c #619611",
"T. c #669D12",
"R. c #6BA512",
"E. c #6EA912",
"W. c #71AB11",
"Q. c #76B513",
"!. c #478022",
"~. c #498423",
"^. c #4C8A24",
"/. c #55832A",
"(. c #58872C",
"). c #448777",
"_. c #4F917C",
"`. c #9C855A",
"'. c #A4875E",
"]. c #9C8061",
"[. c #9D816B",
"{. c #A38363",
"}. c #A98765",
"|. c #A58D62",
" X c #AC8A63",
".X c #B18E69",
"XX c #B3916D",
"oX c #A78B73",
"OX c #AB9070",
"+X c #B69472",
"@X c #B99674",
"#X c #BB9877",
"$X c #B6967C",
"%X c #BC9B7C",
"&X c #C09E7E",
"*X c #458D89",
"=X c #4B9883",
"-X c #54A58A",
";X c #50A990",
":X c #59B797",
">X c #5CBD99",
",X c #68BB9D",
"<X c #51AFAD",
"1X c #5CC29B",
"2X c #63C69E",
"3X c #5EC5A7",
"4X c #65CAA2",
"5X c #65CCA2",
"6X c #69D4A6",
"7X c #6BD6A9",
"8X c #76DAAC",
"9X c #7EDFB0",
"0X c #5ECEC6",
"qX c #B69A80",
"wX c #BE9E81",
"eX c #BEA286",
"rX c #C09F82",
"tX c #C2A285",
"yX c #C5A689",
"uX c #C7A88B",
"iX c #C8A98C",
"pX c #87E5B5",
"aX c #96ECBB",
"sX c #A3F3BF",
"dX c #9AF3C2",
"fX c #A8F7C3",
"gX c #B8FAC3",
"hX c #C7FCC4",
/* pixels */
"S U @.T R R R R R R R R #.#.#.R R #.#.R R T R 6.#.R 6.#.R T T T R 5.6.R T 6.R T U T R T R R R ` 5.( 2.@.5.5.5.@.R @.@.@.T T R 6.#.@.#.5.T T T T R ` 6.R R 6.T K ",
"Y T @.@.#.` R R R R R 6.#.R 6.R R ` R R R R #.` R R R R ` 5.6.6.6.6.@.T R 6.!.6.6.5.R R @.#.R ( Q ( 5.6.5.6.5.@.R 5.5.R R R @.@.@.R R R R 5.6.6.6.6.R T R 6.R T ",
"#.@.@.#.!.6.R R R R #.!.6.6.6.` ` 6.` ` R 6.6.6.` ` R R ` !.^.^.~.!.@.T R !.~.^.^.!.5.6.!.6.R ! E ( 6.6.6.6.6.5.5.6.` T R 6.6.6.@.R R T 5.!.^.^.^.!.@.R @.6.#.#.",
"@.6.~.^.^.!.R #.#.#.#.!.!.^.^.^.^.!.` ` 6.!.^.!.!.!.!.!.~.!.~.~.~.~.~.6.#.!.!.!.!.~.~.^.~.!.6.` ) ) 6.6.~.~.^.^.~.!.5.R 6.!.^.!.!.!.!.~.!.~.!.~.~.~.!.6.@.~.#.R ",
"T 6.!.!.~.^.~.!.!.6.6.!.^.^.^.^.~.~.!.~.^.^.^.^.^.^.^.^.~.!.6.6.6.6.~.~.6.!.!.~.!.!.!.!.^.^.!.~.~.6.6.!.^.^.^.~.~.~.!.!.^.^.^.^.~.^.^.^.^.6.6.6.6.6.^.!.6.7.#.R ",
"R @.@.@.!.^.^.^.^.~.!.!.^.^.6.6.!.^.^.^.^.^.^.^.^.^.^.~.!.6.5.6.` ` ~.^.~.6.!.^.!.6.` 5.!.^.^.^.~.~.~.!.^.^.6.6.!.^.^.^.^.^.^.^.^.^.^.^.!.6.6.6.R R ~.^.~.6.5.5.",
"T @.@.6.7.6.7.6.6.5.` 6.6.6.!.^.~.~.6.6.6.6.6.!.~.^.^.^.~.6.@.6.T R 6.^.~.6.6.5.6.6.` 6.6.6.6.6.6.6.` 6.5.6.!.~.^.~.6.6.6.6.!.!.~.^.^.~.!.6.@.6.T T 6.^.^.6.T Y ",
"T T @.#.#.@.R @.` R R ` R R 6.!.~.!.6.5.6.6.6.#.6.^.^.^.^.!.!.!.5.6.~.^.^.6.R R 6.6.5.!.6.` ` R 5.` ` ) ` 5.6.~.~.!.6.5.6.5.6.6.7.^.^.^.^.!.!.~.6.6.~.^.~.6.T U ",
"T R R !.!.R R R R ` R R R R R 6.!.!.~.^.^.!.@.R #.~.^.^.^.^.^.^.~.!.^.^.~.` ` !.6.` 6.6.#.R R R ` ` ` ) ) _ ) 6.~.6.~.^.^.!.` R 6.~.^.^.^.^.^.^.~.~.^.^.~.R T T ",
"T R #.!.6.` R R R R R R ` 6.` !.^.!.~.^.^.~.6.~.^.^.^.^.~.~.~.~.6.5.6.~.^.!.~.~.6.6.6.6.6.6.R R ` ` ` ) Q Q ` ~.~.~.~.^.^.^.!.~.^.^.^.~.~.~.~.~.6.` 6.!.~.!.6.@.",
"R R R !.!.!.` ` ` 6.6.6.!.!.~.^.^.!.^.^.^.~.~.^.^.^.^.~.#.!.!.~.` T ) 6.^.!.^.^.!.6.R !.^.!.` ` 6.6.6.` Q E ) ~.^.~.~.^.~.~.~.^.^.^.^.~.6.7.!.~.` T R 6.^.~.6.#.",
"#.R 6.^.^.^.6.6.!.^.^.^.!.~.^.^.^.!.^.^.6.!.^.6.!.^.^.!.#.~.^.^.5.T R ~.^.5.6.^.^.!.` ^.^.^.!.6.7.^.^.^.8.2.Q 8.^.~.^.^.6.!.~.!.~.^.^.~.5.!.^.^.6.) R !.^.5.@.@.",
"R R R !.^.^.^.!.` 6.~.^.!.!.^.!.6.^.^.^.~.^.^.!.~.^.^.^.~.^.^.^.!.!.~.^.^.6.6.!.!.6.` !.^.^.^.~.` 6.~.^.7.( s ! !.~.~.^.~.^.^.~.~.^.^.^.~.~.^.^.!.!.~.^.^.6.@.R ",
"T R #.!.~.^.^.~.` ` 6.^.!.6.~.!.6.^.!.#.^.^.^.!.~.^.^.^.^.^.^.^.~.^.^.^.~.~.~.!.6.6.6.6.~.^.^.!.` ` 6.^.~.( a Q 6.^.!.!.^.^.^.!.!.^.^.^.^.^.^.^.!.^.^.^.~.!.5.R ",
"@.#.!.^.^.^.!.!.^.!.6.^.!.!.~.^.~.!.@.R 6.^.^.6.@.6.~.~.~.^.^.!.6.6.!.6.7.!.^.^.!.!.~.^.^.^.~.!.^.6.!.~.~.5.E _ 8.!.` R 6.^.^.6.5.6.~.~.^.^.^.!.6.6.!.!.!.~.6.@.",
"R #.^.!.~.^.^.^.^.^.~.!.~.~.~.^.^.6.R ) 5.6.6.@.@.#.6.7.#.!.!.^.!.~.!.T Y +.O.Y T ` ^.!.~.^.^.~.^.^.~.~.~.8.Q ' 8.` ` ` ` 6.6.` ` 6.6.6.6.6.!.^.~.!.!.~.~.^.!.6.",
"R #.!.6.6.^.~.~.~.^.!.6.6.~.^.^.^.6.@.#.5.6.6.` #.6.7.#.#.7.!.^.^.7.P.O.} K.| o.@.$.~.T #.^.~.~.^.^.~.6.!.5.Q 2.8.3.` ` ` ` 6.` 6.6.6.6.6.6.~.^.^.^.^.^.^.^.6.#.",
"#.#.6.R @.6.6.!.~.5.` ` R 5.~.~.^.~.~.6.6.!.~.^.^.^.~.~.^.^.^.~.6.5.$.T.Q.W.R.W.Q.T.$.G U 6.6.6.~.` ` ` R ( Q 2.8.~.~.7.~.~.^.^.^.~.~.^.^.^.^.^.^.^.^.6.5.~.!.#.",
"@.#.!.5.5.5.6.6.6.` 5.6.` R !.^.^.^.~.~.6.6.~.^.^.^.^.~.~.~.#.Y P.T.Y.W.W.R.T.R.Q.Q.T.U.+.U @.6.6.` ` !.R ( E ! 8.~.~.~.6.!.~.^.^.^.^.^.6.!.~.~.6.6.!.#.@.5.6.#.",
"R 6.^.!.6.5.6.6.6.5.6.!.5.R !.^.^.~.~.~.6.6.!.^.^.^.^.#.T #.O.L Y.Q.Q.E.Y.I. .K.R.W.E.Q.Y.V Y R ` 6.6.!.` Q p Q ~.~.~.~.6.6.~.^.^.^.^.~.6.6.~.~.#.@.6.!.6.R R #.",
"6.6.7.^.^.^.!.!.!.6.R R ) 5.^.~.!.!.~.^.^.^.^.!.~.~.~.@.U +.U.R.E.R.R.T.K.B V } $.K.K.K.L.K.V K !.6.` ` ` ! t Q 7.~.~.^.^.^.~.~.!.~.~.^.^.^.^.^.^.^.^.^.^.7.#.#.",
"R #.~.^.^.~.~.^.^.~.6.6.6.~.^.^.!.6.!.~.^.!.!.~.~.~.@.@.O.U.W.Q.U.O.[ | } B V } | { L N [ L...K.P.T Y 6.) Q d ! ~.6.!.~.~.~.!.~.~.!.!.!.~.~.~.~.^.~.!.^.^.!.6.#.",
"R #.^.~.!.~.~.^.^.^.^.^.^.^.^.^.~.6.6.6.6.@.5.~.~.#.T } L.R.E.R. .m - m I P { } } [ N 2 m K.R.R.U.I U 6.! E E 3.~.` 6.!.6.` ` ^.^.6.6.` ` 6.6.6.6.5.@.~.^.!.#.#.",
"#.#.6.~.~.^.~.6.!.^.^.^.^.^.~.!.6.6.5.5.R 6.!.~.@.I I.U.K. .U.R...B N N H B L L { [ V m L K.K.K.I.K.o.A p p 3.6.6.6.6.` ` 6.~.^.~.` 6.6.6.6.6.` R @.6.!.~.!.#.@.",
"@.#.!.~.!.!.!.6.6.6.6.6.~.^.~.6.6.!.6.6.6.~.!.@.L [ .. .I L  .T...L P H G V I I P I H H {  .o.P O.o.J 7 w E Y @.!.~.6.6.6.!.^.^.!.` ` 6.6.` ` ` R R !.!.!.!.#.R ",
"R 6.^.^.6.R 6.6.~.!.6.` 6.^.~.~.!.^.~.!.!.~.#.H L } V M n D P L. .{ L G H { L L H H L L } +.H D F E t r J X.M Y !.~.~.!.^.^.^.^.!.6.` R R R R R R #.~.~.!.!.!.R ",
"R 6.~.!.#.R R R ^.^.~.~.^.~.6.~.^.^.^.!.U o.+.L V H H n 3 m P K.} H V { { V m 3 5 m L { { V m C q t t A X.| } H U ~.^.^.^.^.~.^.^.!.6.T T ` 6.6.#.6.!.!.!.~.!.R ",
"#.6.~.!.!.#.R !.^.^.^.~.~.^.!.^.^.#.#.@.D V o.V G H H N 6 n B } L F G P { B m n n N L { L F m q t r p A X.o.+.[ I #.6.6.^.!.6.!.^.^.6.#.6.6.!.!.^.~.~.!.!.~.!.R ",
"R 6.^.^.^.^.^.~.^.!.6.6.!.^.^.^.#.Y G H G H G F V V H N N 5 6 N H G H V L I L L V V [ L H N N p r r p A S G I o.+.{ I K 5.6.@.!.~.^.^.^.^.^.^.^.^.^.^.!.!.!.#.R ",
"T #.!.^.~.6.!.^.!.~.!.` !.^.^.^.#.Z n M G G G L { { I G N N F H F H [ L V L F A F V V [ N q > < t s p < ; < 5 D L L H I @.!.!.6.!.^.^.^.^.^.^.^.^.!.!.!.!.#.R T ",
"R #.!.^.!.#.6.^.~.!.6.` 6.!.~.5.K C 6 M F F B L { [ I H G B H H H V { I V L ] 9 A A D L m : X X e d d e X . o 6 F N F H H T 6.6.!.^.^.^.^.!.!.^.^.!.!.~.^.#.R R ",
"@.6.^.^.~.!.#.!.^.!.` 6.6.6.` K m M n n G G N G H H H H G m n H H B N V V V ] g 9 w A D C O O X X r d d O   . 4 Z n n n 6 C D 6.~.!.^.^.^.#.#.~.~.^.^.^.^.~.!.R ",
"R 6.~.~.!.6.6.!.!.!.6.R !.6.K C n n n n N N M N M M 6 m B M M N G N M N V V =.x f w F N 5 . O O   X O e . . O O > C n n 3 5 n Z K @.~.^.^.!.6.^.^.^.^.6.!.^.!.!.",
"T #.6.!.!.!.^.^.!.~.!.6.~.@.C 5 6 3 n n M M M M M 6 5 n N N N N F A N N V V &.x f M B V n o 7 O     X X . o 7 O o 6 m n 5 , 5 - 6 K 6.!.^.!.!.~.^.!.!.R R ^.!.R ",
"R @.6.6.!.^.^.^.^.^.^.^.6.K 3 3 3 - 3 5 m n n n n m N N N N B N j &.H N N N w 9 N B M B B m 7 1 2 O X O < < < 3 C n n 6 5 3 3 3 3 n U 6.^.^.!.^.!.!.6.!.~.^.` T ",
"R R 5.5.6.^.!.^.^.^.^.!.K n 3 3 3 3 3 5 n n n n n m M M m M M B ] f A M m m 6 6 B m n N N M 5 5 C 5 > 4 q 5 5 5 n n n 5 3 3 3 3 3 3 n U !.6.!.^.^.^.!.!.^.^.` U ",
"R R R R ` !.!.!.^.^.~.R C > 3 5 3 3 5 6 5 n n n n n n n n 6 m N w 0 6 n n n n m N n 6 m m n n n n n m n n n n n n 6 3 3 - 3 3 3 3 , - n U ` 6.^.^.^.!.^.^.^.R T ",
"#.R R @.` ` 6.!.^.~.#.K C 3 3 3 3 3 3 3 3 n n n 5 6 6 6 6 n n n n n 6 n n n n n n n n n n n n n n n n n n n n n 6 3 - - - 3 3 3 3 , 3 > 5 ` ^.6.@.#.^.^.^.!.!.R ",
"6.@.#.6.6.!.6.!.!.!.T n 3 , , 5 3 3 3 3 3 n n 6 5 6 3 5 6 n n n m m m n n n n n n n m n n n n m n n n n n 5 5 5 5 3 , - 3 3 5 , , > > > 3 T ^.!.R #.^.!.#.6.R 6.",
"T #.!.~.^.^.!.!.6.6.U 3 > > , , 3 3 2 - 3 3 3 3 3 5 - 3 6 6 6 n 6 n n n n n 6 n n n n n n n n n n 6 3 n n 5 , 3 3 3 3 3 3 3 3 - > > > 3 Z R ^.^.#.#.!.6.R #.#.R ",
"U @.~.!.!.~.~.~.!.!.Y 5 > > = > 3 3 3 2 = - 5 3 , 5 , , 5 3 5 5 1 = 3 3 n n n n 5 3 n n m n 5 3 5 3 - - , 5 3 3 3 3 3 3 3 2 = = > , 5 K ` 6.6.!.!.^.~.6.!.^.#.R ",
"T @.6.6.7.!.6.#.6.6.R K C , > > 2 2 3 3 = 1 3 3 5 5 5 3 3 3 3 3 1 - 3 3 3 5 3 5 3 3 5 3 6 6 3 3 > , - - , 3 5 3 3 3 3 - - - 1 = , C S U 6.!.~.^.^.~.6.6.6.^.!.R ",
"#.@.5.6.!.6.R R R 6.6.6.U C 5 , 2 - - - 3 2 - 3 , , 5 , 3 3 3 3 3 3 3 3 3 3 3 3 - 3 3 5 3 3 3 3 - - , 3 5 3 3 3 3 3 - = = , 5 3 C Y T @.` !.^.^.^.!.@.R R 6.6.#.",
"R #.~.^.~.!.#.@.6.R ` !.6.R Y Z 3 - - - - - = - > > , , 3 3 5 3 3 3 3 3 3 3 3 3 3 3 3 3 3 3 3 3 3 3 3 3 5 3 > : - , 2 - = 5 N T #.6.7.~.!.!.!.~.~.~.!.#.@.!.#.R ",
"R 6.!.!.~.^.!.!.!.6.6.~.^.^.6.Y K S D Z 4 2 1 - : = - > , > , > 3 3 3 - 2 3 3 3 3 3 3 3 3 3 3 3 3 > , - , , > : > w f E C D 5.~.^.^.^.^.~.6.6.6.6.6.~.~.6.6.6.R ",
"R R 5.5.!.^.^.^.~.!.!.!.^.~.6.6.6.~.~.5.%.j j w A q 4 4 4 > > > - = 1 2 3 3 3 3 3 2 3 3 - 3 3 2 = = - 1 > < q 0 a ;.j.l.4.5.^.~.^.^.^.~.!.6.6.6.R ` ~.^.~.6.5.5.",
"T R R 6.6.!.!.6.6.6.` 6.5.6.~.~.~.~.!.8.k.B.A.C.x.z.l.h.:.a : : = 2 3 3 3 3 - - - - - - - 1 1 1 : < 7 w a %.h.x.B.H.}.].0.5.~.~.^.^.^.^.~.6.6.5.T T !.^.^.6.T T ",
"T T @.!.6.5.R ` ` R ` ` ` ` 6.~.^.!.6.8.z.|.%X%X$XOXoXoXF.x.:.y f w 1 1 = o = o o = o = 1 1 0 w %.%.:.l.x.B.oXoXOXqX#X|.0.3.5.5.6.~.^.^.^.!.6.7.6.6.~.^.^.` T U ",
"T @.@.#.6.R R R R R R R R R R ` !.!.!.(.N.{.%X%X%XwXtXuXtXeXH.f.g.,.* X X o o o o   o O 7 i c h.D.H.oXqXrXrXrXwXwXqX@X'.q.8.@.T 6.~.^.^.^.^.^.^.^.~.^.^.!.R T T ",
"T T #.#.6.6.R T R ` R R ` 6.6.!.^.~.^.^.z.{.%X%X%XyXtXyXyXoXB.f.b g & # + # + + + O + # y l b x.$XqXqXeXuXuXyXrXrXwX@X'.(.8.7.!.^.^.^.^.~.!.~.~.#.@.6.~.^.!.6.R ",
"R @.#.!.~.!.#.R ` 6.6.6.!.!.!.^.^.!.~.(.z.{.%X#X%XyXtXyXrXB.f.>.g + & & & & & % + + # & y h b j.H.$XrXrXuXuXrXyXrX%X#X|.e.7.~.^.^.^.^.^.6.7.!.~.` T T 6.^.~.6.#.",
"@.@.@.^.^.^.6.6.!.^.^.^.~.~.^.^.^.!.~.(.z.{.%X%X%X%XuXyX$Xx.b x i & # # # & # % & & r % & y ;.f.f.G.rXrXuXiXrXrXrX%X#X}.0.#.~.!.~.^.^.!.@.!.^.^.5.T R ~.^.@.@.@.",
"R R #.!.~.^.^.!.` 6.~.^.!.!.^.!.6.^.^./.z.].#X#X%XwXuXwXH.h.z x g & # # # # # * ^ c._.a @ * l b -.H.rXyXrXrXrXrXrX&X%X|.q.7.~.!.~.^.^.^.!.^.^.^.~.6.~.^.^.6.R R ",
"T @.#.7.~.^.^.~.R ` 6.^.!.6.~.!.#.^.!.7.k.].#X#X%XtXuXOXx.;.>.>.g # # # # # + r y.-X,Xr.@ * u l ,.D.qXyXyXrXuXrX&X&X#X|.e.~.^.~.!.^.^.^.^.^.^.^.~.^.^.^.~.7.6.R ",
"R #.!.^.^.^.~.~.^.!.6.^.~.6.~.^.^.!.@.2.k.G.#X%X%XtXyX[.;.f.g.j.l # % & # & % & s u.c.t & * * l g.B.oXwXrXrXrXrXrX%X@X|.e.7.^.6.@.6.~.~.^.^.^.!.6.6.6.~.!.~.6.@.",
"T #.^.!.^.^.~.~.^.^.~.!.~.~.~.^.^.#.@.3.k.S.+X%X%XwXtXH.b ;.>.x g # & # # % % % r s d * & * * l g.m.H.qXrXuXrXrXwX%X@X'.0.5.6.@.R 6.6.!.#.#.~.~.~.!.~.~.^.~.!.6.",
"T 6.!.6.6.^.~.~.^.^.!.6.!.!.^.^.^.#.R 8.k.S.XX#X%XrXeXF.v b x g # # & & # # # # # # + # & * 8 l g.j.F.wXyXuXuXtXwX%X@X'.0.@.#.@.8.6.6.6.6.6.!.^.^.~.^.^.^.^.!.#.",
"@.6.6.) 5.6.6.6.~.` ` ` R 5.~.^.^.^.!.7.k.S..X@XtXiXtXF.b b z g * # & 7 & + + + % % # # # * * l ,.x.H.eXyXtXtXtXrX%XXX`.0.#.^.^.~.^.~.^.^.^.^.^.^.^.^.6.#.!.!.R ",
"R 6.6.6.5.6.6.6.6.` 6.6.R ` !.^.^.^.~.7.k.S..X#X%XyXuXH.-.v z l * + # 8 d y.y.t.s r @ @ & * y l ,.x.[.yXuXtXtXtXrX%X@X`.0.8.~.^.^.^.^.^.6.!.^.^.6.6.!.6.R 6.6.#.",
"R 6.^.6.6.6.6.6.6.` 6.!.5.` !.~.^.!.^./.k.Z..X#X%X%XuX[.-.v x l 8 + # p u.=X-X=Xi.r.% % # * u h ;.j.[.yXiXyXyXyXtX%X+X'.0.#.7.~.^.^.^.~.#.6.!.~.6.R 6.!.6.R R #.",
"#.6.!.^.^.~.~.~.!.6.@.R R 5.^.~.!.!.^./.k.A. X#X%XtXtXG.-.c z z 8 O 7 i.:X4X7X6X4X).p e % * u k ;.j.H.uXiXyXtXwX&X%X@X'.q.~.^.7.!.~.~.^.^.^.^.^.^.^.^.^.^.!.#.#.",
"R 6.~.^.^.~.~.^.~.!.!.6.6.!.^.^.~.#.!./.k.Z. X+X%X&XtXH.-.l -.>.g O r._.7X7X6X7X7X-Xy.t @ & u k v g.H.eXyXyXyXwX%X#X+X'.q.#.#.~.~.~.~.6.~.~.~.~.^.~.!.^.^.~.#.#.",
"@.#.^.~.!.~.~.^.^.^.^.^.^.^.^.^.^.R #.9.k.Z. X+X#X%XrXH.-.l -.1.g t i.:X7X4X1X5X6X>X).s @ * i i k f.H.wXeXtXuXwX#X+X.XS.0.@.#.^.^.6.6.6.5.5.6.6.6.6.#.!.^.!.#.#.",
"@.#.!.!.^.^.!.6.!.~.^.^.^.^.~.!.!.#.R 3.:.M. X+X@X%X&XS.b g x b.g p ).>X6X5X4X5X5X,X=Xs $ * u i k s.D.wXuXuX%X%X#X.X'.Z.4.8.~.^.~.` 5.5.6.6.5.5.T 5.6.!.~.!.#.R ",
"@.#.!.~.~.!.!.6.6.!.6.6.~.~.~.6.6.~.6.3.w.M.'..X+X#X%XA.z i -.n.g p =X>X6X8X8X8X4X3X-Xs @ * u i l f.D.wXyXrX#X%X@X.XS.m.4.#.^.^.~.5.` 5.6.5.5.` R R !.!.!.!.#.R ",
"R 6.^.^.6.R 6.6.~.6.6.` 6.^.~.~.^.^.^.9.w.V.S.'..X#X%XA.z i >.n.l ~ -X1X5XpXaXaX7X4X;Xt.r * u g l h.F.%XrXwX#X%X@X XV.w.0.~.^.^.~.5.5.R T ` R R R #.!.!.!.!.#.R ",
"R 6.^.!.5.T T 6.^.^.~.~.^.~.6.~.^.^.^./.w.x.A.}..X+X%XF.b g x n.s.u.:X6X8XaXdXaX8X6X1X).r.% 8 i l h.A.$X&X%X#XXX'.Z.S.N.q.~.~.P.^.~.5.) R R 6.6.!.#.!.!.^.~.#.#.",
"@.#.~.!.6.6.` 6.^.^.^.~.^.~.~.~.^.~.^.~.:.l.S.}.}.'.+XA.>.g x n.s.p.1X7X9XaXfXdXpX8X1X).t.8 8 g l h.C.OX@X+X+XJ.Z.V.S.N.9.#.#.~.^.^.6.6.6.6.!.!.~.~.!.!.!.^.!.#.",
"R !.^.^.^.^.^.~.^.~.6.6.!.^.^.^.^.~.!.6.=.h.S.|.S.Z.}.A.,.h z n.s.u.:X7XpXdXfXgXaX9X1X).^ 7 8 g l <.V.'.}. X XZ.m.Z.V.w.8.R #.!.~.^.^.^.^.^.^.^.^.^.^.!.!.!.R R ",
"R R !.^.~.6.!.^.!.!.6.5.!.^.^.~.~.!.6.6.8.e.M.S.'.J.{.V.,.k z j.s.i.>X7XpXdXgXhXaX8X1X).r.7 8 i l >.M.S.Z.V.|.S.M.M.j.:.7.^.~.6.6.^.^.^.^.~.^.^.^.!.!.!.!.!.R T ",
"R R !.^.!.R !.^.^.!.6.@.!.~.~.!.6.6.6.6.7.4.<.m.S.J.S.m.b l z 1.a.i.>X7XpXfXhXhXaX8X1X).r.& 8 i j >.m.S.V.B.S.Z.m.j.:.*.~.^.!.#.!.^.^.^.^.!.!.^.^.!.!.^.^.R R R ",
"#.!.^.^.^.6.#.!.^.!.R R 6.6.#.#.6.~.^.^.!.Y %.<.m.M.V.g.h z b -.r.i.>X7XpXfXhXhXaX8X1X).r.& 8 i j >.m.S.S.Z.M.l.j.<.=.@.6.@.@.~.^.!.^.^.^.6.6.!.!.^.^.^.^.^.!.R ",
"R #.^.!.!.!.!.!.!.!.6.R !.~.!.6.!.!.!.6.!.6.5.*.:.j.m.<.g h z b a.i.;X2X8XsXfXsX9X6X;X).r.y 8 u k -.<.M.m.m.m.<.%.*.2.T #.~.~.^.6.6.!.^.^.!.6.~.^.^.~.6.!.^.!.6.",
"R R !.!.!.!.~.~.6.^.!.6.!.^.^.!.~.^.6.6.6.^.~.Y *.:.<.;.g g h b d.).<X>X2X9XpX9X5X1X>X*Xd.h i u g l -.<.<.<.w.=.W T R @.7.^.^.#.6.6.!.^.^.!.!.^.^.~.!.R R ^.!.R ",
"R #.#.!.!.^.^.^.^.^.^.^.6.R ^.~.!.^.~.!.!.!.6.R @.@.J A i i g h u.*X0X3X:X>X>X>X:X4X0X<Xv.c g u j l %.%.%.J 3.5.@.~.~.!.!.!.6.5.6.!.6.~.^.^.~.^.~.#.!.!.^.^.R T ",
"R R #.R 6.^.~.~.^.^.^.!.6.6.^.^.^.^.~.~.^.~.6.6.#.#.T U J W %.*.y.).<X<X;X=X=X=X;X<X<Xv.d.*.J *.2.2.2.2.Y T 7.!.^.^.^.~.^.!.6.@.6.!.6.6.6.6.!.^.^.^.!.!.^.^.R Y ",
"R R R R #.!.!.!.^.^.!.#.!.!.^.^.^.!.!.!.^.^.!.6.7.^.!.6.5.#.@.@.( y.).*X).p.i.i.).*X).y.Q ) 5.!.~.^.~.#.#.~.^.^.~.~.6.!.^.^.!.6.!.~.!.6.5.6.6.~.^.^.!.^.^.^.R Y ",
"#.R R R R R #.!.!.^.!.!.#.!.~.!.5.6.5.6.^.^.!.!.!.^.^.^.!.~.!.6.R _ ' / ' / / y./ / / _ ) T 6.!.~.~.~.#.!.!.~.6.#.#.5.6.^.^.^.!.!.^.^.^.!.~.~.6.#.#.^.^.^.!.!.R ",
"T R R R #.R 6.#.#.R #.#.#.6.#.@.5.@.#.6.6.6.6.6.6.6.6.6.6.6.6.6.R U ) ! Q Q ! ! ! ! K ) @.5.@.@.#.@.@.@.#.#.#.5.@.@.@.6.6.6.6.6.6.6.!.6.6.6.6.6.T R #.#.R R R R ",
"U Y T R R #.R R R Y R R R R R R 5.#.5.#.T T R 6.6.@.` T @.R 5.6.T Y R U K K U ( U Y ` ` @.@.@.@.T T T @.@.@.T @.6.@.6.@.T T @.6.6.R R R R R 5.6.T Y R T Y Y Y U "
};
