/* XPM */
static char *__resized[] = {
/* columns rows colors chars-per-pixel */
"80 80 229 2 ",
"   c #0C0A09",
".  c #0F0F0B",
"X  c #120E0D",
"o  c #16160A",
"O  c #191713",
"+  c #231614",
"@  c #271917",
"#  c #281A16",
"$  c #261A19",
"%  c #291B19",
"&  c #301F1D",
"*  c #1A2506",
"=  c #1D2B07",
"-  c #17200A",
";  c #1B240A",
":  c #1E2C09",
">  c #1F3007",
",  c #1E2612",
"<  c #20290A",
"1  c #202E09",
"2  c #223409",
"3  c #29340F",
"4  c #263B0B",
"5  c #293E0B",
"6  c #262815",
"7  c #23211D",
"8  c #33211D",
"9  c #3B2B1C",
"0  c #2C3412",
"q  c #293914",
"w  c #373918",
"e  c #1F1E21",
"r  c #282726",
"t  c #262A24",
"y  c #362521",
"u  c #3A2722",
"i  c #3D2C23",
"p  c #2B3426",
"a  c #393824",
"s  c #2B3E37",
"d  c #323334",
"f  c #383A39",
"g  c #41391C",
"h  c #422E25",
"j  c #432F28",
"k  c #443226",
"l  c #4B3225",
"z  c #463328",
"x  c #4A352A",
"c  c #493A29",
"v  c #523B2E",
"b  c #583B2B",
"n  c #453832",
"m  c #543D31",
"M  c #5A3F31",
"N  c #2B430B",
"B  c #2E4A0C",
"V  c #314E0D",
"C  c #34540E",
"Z  c #365A0F",
"A  c #395D0F",
"S  c #2A4611",
"D  c #2D4B12",
"F  c #334C12",
"G  c #384719",
"H  c #2F5316",
"J  c #345511",
"K  c #395412",
"L  c #365911",
"P  c #395C10",
"I  c #39561E",
"U  c #355C18",
"Y  c #3C620F",
"T  c #3F680E",
"R  c #3C6311",
"E  c #37621A",
"W  c #39651B",
"Q  c #3D6D1D",
"!  c #3F711F",
"~  c #354727",
"^  c #334D2B",
"/  c #3C5523",
"(  c #395827",
")  c #2C4630",
"_  c #3D6424",
"`  c #3E6B22",
"'  c #3F7120",
"]  c #41471A",
"[  c #41660C",
"{  c #426B0F",
"}  c #46710E",
"|  c #4B750E",
" . c #4D7C0F",
".. c #507E0F",
"X. c #416715",
"o. c #436B11",
"O. c #487515",
"+. c #4B7913",
"@. c #41751F",
"#. c #43791F",
"$. c #517F11",
"%. c #494828",
"&. c #455A27",
"*. c #515829",
"=. c #4C4535",
"-. c #5B4234",
";. c #5A4737",
":. c #5B5636",
">. c #654836",
",. c #644B3B",
"<. c #67573C",
"1. c #78533C",
"2. c #446627",
"3. c #426E24",
"4. c #526C2C",
"5. c #427620",
"6. c #4B7426",
"7. c #457C21",
"8. c #4A7D25",
"9. c #477629",
"0. c #4C7B29",
"q. c #54782B",
"w. c #40623D",
"e. c #5A7231",
"r. c #5E7932",
"t. c #6B643C",
"y. c #617D34",
"u. c #324C44",
"i. c #365449",
"p. c #375753",
"a. c #3D6445",
"s. c #3A6757",
"d. c #3C6F69",
"f. c #49534B",
"g. c #694D40",
"h. c #6D5442",
"j. c #695944",
"k. c #745A44",
"l. c #735B49",
"z. c #506B5A",
"x. c #756A42",
"c. c #77634A",
"v. c #7D7246",
"b. c #7A6651",
"n. c #456C70",
"m. c #825A3F",
"M. c #8B5E43",
"N. c #83664C",
"B. c #88694D",
"V. c #84754B",
"C. c #846B55",
"Z. c #8C6D52",
"A. c #8C7355",
"S. c #947455",
"D. c #95775C",
"F. c #9A7B5B",
"G. c #8F7964",
"H. c #947761",
"J. c #967A64",
"K. c #9A7C65",
"L. c #9A7E69",
"P. c #52820F",
"I. c #578A0F",
"U. c #518717",
"Y. c #568912",
"T. c #5D9111",
"R. c #619611",
"E. c #669D12",
"W. c #6BA512",
"Q. c #6EA912",
"!. c #71AB11",
"~. c #76B513",
"^. c #478022",
"/. c #498423",
"(. c #4C8A24",
"). c #55832A",
"_. c #58872C",
"`. c #4C8875",
"'. c #4C977C",
"]. c #9C855A",
"[. c #A4875E",
"{. c #9C8061",
"}. c #9D816B",
"|. c #A38363",
" X c #A98765",
".X c #A58D62",
"XX c #AC8A63",
"oX c #B18E69",
"OX c #B3916D",
"+X c #A78B73",
"@X c #AB9070",
"#X c #B69472",
"$X c #B99674",
"%X c #BB9877",
"&X c #B6967C",
"*X c #BC9B7C",
"=X c #C09E7E",
"-X c #477980",
";X c #4D9988",
":X c #4C9899",
">X c #4EA285",
",X c #55A78C",
"<X c #52AC94",
"1X c #57B794",
"2X c #66AB8E",
"3X c #66B997",
"4X c #53B0A6",
"5X c #5EC297",
"6X c #60C59C",
"7X c #5EC2A2",
"8X c #5BC3B3",
"9X c #65CAA2",
"0X c #6BD2A5",
"qX c #76D9AC",
"wX c #74D7B2",
"eX c #B69A80",
"rX c #BE9E81",
"tX c #BEA286",
"yX c #C09F82",
"uX c #C2A285",
"iX c #C5A689",
"pX c #C7A88B",
"aX c #C8A98C",
"sX c #84E8B8",
"dX c #95EAB9",
"fX c #98F2BE",
"gX c #96F3C3",
"hX c #ADF6C3",
"jX c #C7FAC6",
/* pixels */
"H E @.Q Q ! ! @.@.Q Q @.@.@.#.! ! @.#.@.Q Q ! 7.7.! #.#.! Q Q Q ! 5.7.! Q 7.@.Q E Q ! Q ! ! ! ! ' ` ` 5.5.5.5.@.! @.@.@.Q Q ! #.5.@.@.5.@.Q Q Q ! ' 5.! @.@.Q U ",
"W Q @.@.5.7.! ! ! ! ! 7.7.@.7.! ! ' @.! ! ! ! 7.! ! ! ! ' 5.7.7.7.7.! ! ! 7.7.7.7.5.! ! @.#.! ` ( _ 5.5.5.7.5.@.! 5.! ! ! ! @.7.5.@.@.Q Q 5.7.7.7.7.@.Q @.7.@.Q ",
"#.@.@.7.7.7.@.Q ! @.#.^.7.7.7.! 5.7.' ! ! 7.7.7.' ' Q ' ' ^.(.(./.^.@.Q ! 7.(.(.(.^.5.7.^.7.! ( ~ _ 7.8.7.7.7.5.5.7.' ! ! 7.7.5.5.Q Q Q 5./.(.(.(.7.@.Q @.7.#.@.",
"@.#./.(.(.7.5.@.#.#.#.^./.(.(.(.(.^.' ' 7././.^.^.^.^.^./.^./././././.#.#.^.^.^.^././.(./.^.7.` ` 3.7.7././.(.(./.^.5.! 7.^.(././.7./././.7./././././.7.@./.#.@.",
"Q 7./.7.(.(././.^.7.7.^.(.(.(././.(.^.^./.(.(.(.(.(.(.(.(.7.7.7.7.7././.7.^./.^.^.^.^.^.(.(.^.^./.7.7./.(.(.(./.(./.^.7.(.(.(.(.(./.(.(.(.7.7.7.7.7.(.7.7.7.5.@.",
"@.@.@.@.7.(.(.(././.^.^.(./.^.7.^.(.(.(.(.(.(.(.(.(.(././.7.5.7.' ' /.(./.7./.(.^.7.' 5.^.(.(.(././.^.^.(.(.7.7.^.(.(.(.(.(.(.(.(.(.(.(.7.7.7.7.Q 5./.(.(.7.5.5.",
"Q Q @.7.7.7.7.7.7.7.5.7.7.7././././.7.5.7.7.7././.(.(.(./.#.5.7.Q ! ^.(.(.7.5.7.^.7.' 7.7.7.^.7.7.7.' 7.5.7.^./././.7.7.7.7.^.^.(.(.(.(.(.5.5.7.! @.7.(.(.7.Q W ",
"Q Q @.7.7.@.5.5.' ' ' ' Q ! 7././.^.7.7.7.7.7.5.^.(./.(.(.^.^.^.5.7./.(./.5.! ! 7.' 7.^.7.' ' ' ' ' ' ` ' 5.7./.(.^.7.7.7.' 7.7.7./.(.(.(./.7./.7.5./.(.(.5.Q E ",
"Q ! ! ^.^.! ! ! ! ! ! ! ' ! Q ' /.#./.(.(.7.5.! @.(.(.(.(.(.(.(./././.(./.' ' 7.7.7.' 7.7.! Q ! ' ' 3.3.` 3.` 9.^.7./.(.(.^.' ! 7./.(.(.(.(.(.(././.(.(./.Q Q Q ",
"Q ! #.^.7.' ! ! ! ' ! Q 7.7.' ^././.(.(.(./.7./.(.(.(.(.(./././.7.5.7./.(.^./.(.7.7.7.7.7.7.! ! ! ' ' ` ^ ^ 5./././.(.(.(./.^./.(.(.(./././././.7.5.7.^././.7.@.",
"! ! ! ^.^.^.' ' ' 7.7.7.^.^.(.(.(./.(.(.(././.(.(.(.(.(.7.7././.' Q Q 7././.(.(.^.7.' ^.(.^.' ' 5.7.7.5./ ^ 3./.(./.(.(.(././.(.(.(.(./.7.7././.' Q Q 7.(./.7.@.",
"#.! 7.(.(.(.7.7.^.(.(.(.^./.(.(././.(.(.7././.^./.(.(.7.@./.(.(.5.Q ' /.(.5.7./.(.7.@.(.(.(.7.7.^./.(.(.7.2.( 9.(././.(.7.^./.^./.(.(./.@./.(.(.' ` ! /.(.5.@.@.",
"! ! ! ^.(.(.(.^.' 7./.(.^.^.(.^.7.(.(.(./.(.(././.(.(.(./.(.(.(./.7./.(.(.7.7./.^.7.7.7.(.(.(.^.5.7./.(.^._ p ( 7.(.(././.(.(.^./.(.(.(./.(.(.(.^.^.^.(./.7.@.@.",
"Q ! #.^.^.(.(./.! ' 7.(.^.7.(.^.7.(.7.7.(.(.(././.(.(.(.(.(.(.(./.(.(.(././././.7.7.7.7./.(.(./.@.' 7.(.^._ ) / 7.(.^.^.(.(.(.^.^.(.(.(.(.(.(./.(.(.(.(././.7.Q ",
"@.#.^.(.(.(.^.^.(.^.7.(./.7.^.(.(.7.5.Q 7.(.(.5.@.7.7.(./.(.(.^.7.7.7.^.7././.(.^.7././.(.(././.(.7.7././.3.^ ( 9.7.! ! 7.(.(.7.5.7./././.(.(.^.7.7.^.^.^./.7.@.",
"! #.(.^.(.(.(.(.(.(././.^././.(.(.5.@.@.5.5.7.5.5.5.7.7.7.7./././.^./.` W +.O.W Q 7./././.(.(./.(.(./././.6.w._ 9.7.' ' ' 7.7.' ' 7.7.7.7.^./././.^././.(././.7.",
"! #./.7.7.(./././.(.^.7.7././.(.(.7.@.@.@.7.7.' 7.7.7.7.7.7.^.(./.(.#.O.{ P.| X.X.$./.@.@.(././.(././.7.^.5.( w.9.7.7.' ' 7.7.' 7.7.7.7.7.7./.(.(.(.(.(.(.(.7.@.",
"#.#.5.! @.7.7.^.^.7.' ' ! 5.^.(.(././.7.^.^./.(./.(./.(.(.(.(.(.8.O.$.E.~.!.Q.W.~.E.+.L W 7.7.7./.7.! ' ! _ ( &.9./.^.^.^.^.(.(./././.(.(.(.(.(.(.(.(.7.5./.^.#.",
"@.#.^.5.@.5.7.7.7.' 5.7.! ' ^.(.(.(././.7.7./.(.(.(.(.(.^./.#.W U.E.E.!.~.W.W.W.~.~.E.T.+.E @.7.7.5.5.7.' _ ) ( 0././.^.7.^.^.(.(.(.(.(.^.^././.7.7.^.#.@.5.5.#.",
"! 7.(.^.7.7.7.7.5.7.7./.5.! ^.(.(./.(./.7.7.^.(.(.(.(.7.Q #.O.P R.~.~.Q.R.P. .P.W.~.!.~.T.A W 5.' 7.7.^.7.( r ( 8./.(./.7.7.^.(.(.(.(./.7.7././.#.@.7.^.7.@.@.#.",
"7.7././.(.(./././.5.! ! ` 5.(././.7./.(.(.(.(.^././.(.5.E +.T.Q.Q.W.W.W.P.C A } $.P.P.Y.I.P.C U 7.7.' ! ! ( p ( 7.^./.(.(.(.(.^.^././.(.(.(.(.(.(.(.(.(./.7.#.#.",
"@.7./.(././././././.7.7.7./.(.(./.7.^.(.(.^.^./.(.#.@.X.} T.!.~.T.O.Y } } Z A } } o.Y V { I...P.U.Q Q 7.` ( p ( /.7.^././.^.^././.^.^.^.^./.(./.(././.(.(./.#.#.",
"! #.(./.^././.(.(.(.(.(.(.(.(.(./.@.5.7.7.@.@./.(.#.Q O.I.W.!.E.| V = B T T { } } { C 1 B I.W.W.T.R W 7.( ~ ~ 3.(.5.7.7.7.@.5.(.(.^.7.' ' 7.7.7.7.7.@./.(.7.7.@.",
"@.#.7././.(./.7.^.(.(.(.(.(././.7.7.5.5.@.7.^./.@.Y Y.T. .P.T.Q...Z C C A A A Y { [ A B A P.P.P.P.P.o.G p p 3.7.7.7.7.' 5.7.^.(.^.' 7.7.7.7.7.' ! ! 7.^././.7.@.",
"@.#././.(.^.7.7.^.^.7.7./.(./.7.7.^.7.7.7./.7.X.X.{ .. .R Y | E.P.Y R P C Y R R [ R P P {  .{ [ O.O.I 6 p G W @.7./.7.7.7././.(.^.' ' 7.7.' ! ' ! ! (.^.^.^.#.! ",
"! 7.(./.7.' ' ^.^.^.7.' 7.(./././.(./.^././.#.A Y } A V N C o.I. .{ Y A P { { A P A R Y } | P J J w t t I X.V W /./././.(.(.(.(.^.7.' ! ! ! ! ! ! ! ^.^.^./.#.! ",
"! 7./.^.#.Q Q 7.(.(././././.^.^.(.(.(.^.E X.+.A A P P B 4 B { P.} P P { { A B 2 4 V R { X.P V S q r t ~ X.+.o.P U /.(.(.(.(.(./.(.^.7.Q Q ' ' 7.7.^.#.^././.^.! ",
"@.7././.7.7.! #.(.(.(./.(./.^.(.(.#.#.@.L A o.P L P P V 4 N Z { Y C L { { C B N N C Y { Y Z B q t r p G [ | +.R R O.7.7././.7./.(.(.7.7.7.7.^.(.(.^./.^.^.(.^.#.",
"@.7.(.(.(.(.(.(.(.^.7.7.7.(.(.(.#.W L P P L L L A A A L V 4 5 L L L Z A Y R Y R A A [ A P C D S t r p D J L R }  .} P U @.7.@.7.(.(.(./.(.(.(.(.(.(.(./.7.^.! ! ",
"Q @.^.(./.#./.(./.^.^.' ^.(.(.(.@.D N V L L P Y { { R L C C C P L A { Y A Y K G K A A { Z q , e r d d , - , 4 J [ P P [ @././.7.7.(.(.(.(./.(.(.(.^.^.^.(.! ! Q ",
"Q #./.(.^.#.^././.^.7.7.^./.^.7.E S 5 V L P L Y { [ R P L C P P A A [ Y Z Y ] 9 G V L R B - . X e d d e . . o q J F L A U Q #.7.^.(.(.(.(.^./.(././.#.(.(.7.! ! ",
"@.^.(.(./.7.#.^.(.^.' ' 7.5.' U B V N N J C C K A P P P L B B P P A Z Z A A ] l 9 w G J N O O X   r d d O   . 3 F 5 N B 4 S J 7.(.^.(.(.(.#.#././.(.(.(.(.(.#.#.",
"@.#././.^.7.7.^.^.^.7.! ^.#.U S N B N N C C V Z C B 5 B A B B Z L C V K A A *.b g w C A 2 . O O   o O $ .   O , ; N N N 2 4 N D W @./.(.(.^.^./.(.(./.#.^.(.^.#.",
"! @.^.^.^.^.(.(.^.^.^.7./.#.S q 2 2 N N C C B B B 5 4 N C C C C K G V C A A %.b g V A A N o 7 O     . X . O 7 O - 4 B N 2 2 4 : 4 E @./.(./.^./.(./.^.#.! (.^.! ",
"! @.7.7.^.(.(.(.(.(.(.(.7.E 2 2 2 1 1 4 N N N N N B C C C A Z C c %.A Z C K g w C C V A L S 6 ; > o X O , : , > S N N N 4 2 2 2 2 4 W 7.(.(.^.(./.7.7.^.(.(.' Q ",
"! ! @.@.7.(.^.(.(.(.(.^.U N 2 2 2 1 2 5 N N N N N N V V B N V Z g g F V N B 5 5 A B N C C V 5 3 S q : q 4 q 2 4 N N 5 4 2 2 2 2 2 2 N E 7.7.^.(.(.(.^.^.(.(.' E ",
"! ! ! ! 7.7.7.^.(.(.^.! S 2 2 2 2 4 4 5 5 N N N N N N N N 5 N Z 5 w 5 5 5 5 N B Z N 4 B B N N N N N B N N N N N N 5 4 1 1 2 2 2 2 > = N E ! 7.(.(.(.^.(.(.(.! Q ",
"@.@.! @.' ' 7.^.(.(.#.E 4 2 2 2 2 2 2 2 2 5 N N N 5 5 5 5 N N N 5 5 5 N B N N N N N N N N N N N N N N N B N N N 5 2 = = = 2 2 2 2 > 2 : 4 ! (.7.@.#.(.(.(.^.^.! ",
"@.#.#.7.7.^.7.^.7.^.Q S 2 2 2 2 2 2 1 1 2 N N 5 4 5 2 2 N N N N B B B N N N N N N N B N N N N B N N N N N 4 4 4 4 2 > = 1 2 2 2 > : : : 2 Q (./.! #.(.^.#.7.! 7.",
"! @.^./.(.(.^.^.7.7.E > : : > > 2 2 1 = 2 2 2 2 2 5 1 2 4 4 N N 5 5 B N N N N 5 N N N N N N N N N 4 4 5 5 4 > 4 2 2 2 4 2 2 1 1 : : > 2 S ! (.(.#.#.^.7.! #.#.! ",
"E @./.7././././.^.^.W 2 > : * : 2 2 2 1 * = 2 2 2 4 2 2 2 2 5 5 1 < 1 4 N N 5 N 4 4 N N N N 2 4 4 2 = : 2 4 2 2 2 2 2 2 1 1 = * : 1 q H ! #.^.^./.(./.^.^.(.7.! ",
"Q @.7.7.7./.7.#.7.7.! U S > : : 1 1 2 1 = = 2 2 2 2 2 2 2 2 2 2 < < 1 2 4 4 2 4 1 2 4 2 N N 2 2 : > = : > 2 2 2 2 2 1 = = 1 = * 2 S H W 7.^.^./././.7.5.7./.^.! ",
"#.@.5.7.^.7.! Q ! 7.7.7.E S 2 > 2 = = 1 1 1 1 2 2 4 2 4 2 2 2 2 2 2 2 2 2 2 4 2 = > 2 4 2 2 2 1 = = > 2 4 2 > 2 2 1 1 * = > 5 2 S W Q Q 7.^.(.(.(.^.@.! ! 7.7.#.",
"! #.(.(./.^.@.5.7.! ' ^.^.' W H 4 = * = > = * = * = > 1 2 2 2 2 4 2 2 2 1 2 2 2 1 2 2 2 2 2 2 2 2 2 2 2 4 2 : : = > > = * > C Q 7.7.7./.^.^.^./././.^.#.#.^.#.Q ",
"! 5./.7./.(./.^.^.7.7./.(.(.#.W U H H F 4 < < < * = = = : > 2 > 2 1 1 1 1 2 2 2 2 2 2 2 2 2 2 2 1 > = > 1 > : - 6 q k G S J ' /.(.(.(.(.(.7.7.7.7.7.(./.7.^.7.! ",
"! ! 5.5./.(.(././.^.^.^.(./.7.7.7././.7.%.c c w q q 4 3 3 2 ; ; * < = 1 2 1 2 2 2 2 1 1 2 2 2 1 = * ; : : 1 q 0 a ;.l.c.4.7.(.(./.(.(.(./.7.7.7.! ' /.(./.7.' 7.",
"Q ! @.7.7.7.^.7.7.7.' 7.7.7./.(././.^.6.t.C.D.A.A.b.c.j.:.a < : * = 2 2 2 = = = = = = > = = 1 < * * 6 w a %.j.b.C.K.+X].e.5.7./.(.(.(.(./.5.5.5.Q Q 7.(.(.7.Q W ",
"Q Q 5.^.7.@.@.5.' ! ' ' Q ' 7././.^.^.0.v.|.*X*XeX@X+X+XG.b.=.y g g 1 < * * * o o * * o * 6 0 w %.=.g.c.b.C.+X+X@X&X%X.Xe.3.5.7.7./.(.(.(././.7.7.7./.(.(.' Q W ",
"Q Q @.#.7.! ! ! ! ' ' ! ! ! Q 7.^.^./._.V.|.*X*X*X*XiXiXrXtXL.g.h.,.% O X X o o o X o O % i n l.G.}.+XeXyXyXyXrXeXrX$X[.r.5.@.@.7./.(.(.(.(.(.(.(./.(.(./.! Q Q ",
"Q @.#.#.7.5.! Q ! ! ! Q 7.7.' 7./././.(.v.|.%X*XtXiXtXiXiX+XC.g.b j % $ # % + + + O + $ y x m b.@XeXeXtXpXpXpXyXyX*X%X[._.6.7./.(.(.(./././././.7.@.7.7./.^.7.@.",
"Q @.#./././.@.@.5.7.7.7.7.^.(.(.(.^./._.v.|.*X%X=XuXuXiXyXC.g.>.i + % % % 8 % % + # % % y j M l.J.&XtXtXiXpXyXiXyX*X%X.Xy.7./.(.(.(.(./.7.7././.5.W Q 7.(./.7.#.",
"@.@.@.(.(.(.7.7././.(.(./.^.(.(.(.^.(._.v.|.*X*X*X=XiXiX&Xb.M m i % # # # # @ % # # % $ % y -.g.,.}.uXrXpXpXyXyXyX*X%X Xe.6.(.7./.(.(./.@./.(.(.5.Q 5./.(.@.@.@.",
"@.! @.7.(.(.(.7.' 7./.(.^.^.(.^.7.(.(.).v.{.$X*X*XrXpXeX}.g.v b h # % # @ @ % @ # % @ @ @ & x m -.K.yXiXyXyXyXyXuX=X*X.Xy.8.(.7./.(.(.(././.(.(./.7./.(.(.7.@.! ",
"Q @.7.7.(.(.(./.5.' 7.(.^.7./.^.7./.^.6.x.{.$X%X*XtXpX+Xb.;.>.>.j # % % % @ @ % # @ % @ & % y x ,.H.eXiXiXyXpXyX*X*X%X.Xy./.(./././.(.(.(.(.(.(./.(.(.(././.5.! ",
"Q #./.(.(.(././.(.7.7.(./.7./.(.(./.#.2.x.{.*X*X=XtXiX}.;.,.h.m.l @ # % % % @ % % @ % @ & & & x h.C.+XrXyXyXyXyXuX%X$X Xy.8.(.7.@.7./.(.(.(.(.^.7.7.7.8.7./.7.7.",
"@.#.(.7.(.(././.(.(././.^././.(.(.7.! 3.x.F.#X*X*X=XuXK.;.;.>.-.9 # % % @ @ % % @ % @ % & & & x h.b.J.rXyXpXyXyXrX*X$X[.e.5.7.@.! 7.7.^.#.#.^.(././././.(././.5.",
"Q 7.^.7.7.(././.(.(./.7.7.^./.(.(.#.! 6.x.F.OX$X=XyXyXJ.m v v j & # % % % # % # @ % @ @ % 8 8 x h.l.J.rXiXpXaXuXrX*X$X[.e.@.@.@.9.7.7.7.#.7.^.(.(.(.(.(.(.(.^.! ",
"@.7.7.` 5.7.7.7.^.7.' ' ' 7./.(.(.(.^.8.x.S.oX$XyXpXiXJ.m m m j 8 # % & % % # % % % % @ % & 8 x g.c.L.uXpXuXuXrXyX*XOX[.e.#.(.(.(.(./.(.(.(.(.(.(.(.(.7.#./.^.#.",
"! 7.7.7.5.7.7.7.7.' 5.7.' ' ^.(.(.(.(.0.x.F.oX$XyXyXpXL.M M M l 8 + # % % % # % % @ @ @ % & y x ;.b.}.iXiXuXuXuXuX*X$X].e.#./.(.(.(.(./.^././.(.7.7.^.7.! 7.7.#.",
"! 7.(.7.7.7.7.7.' 7.7.^.5.' ^./.(././.).x.F.oX%X=X=XpXL.;.m m l 8 + # # # % # # @ % % @ % & y x ,.l.L.iXaXiXiXiXuX*X#X].e.@.8.(.(.(.(./.#.#././.7.! 7.7.7.! ! #.",
"#.7.^.(.(.(./.^.7.7.! ! ! #.(./.^.^./.).x.S.oX$X*XyXyXK.-.v m b 8 + % % % % % @ @ % @ @ % % u k ;.l.L.uXaXiXuXrXrX%X$X[.y./.(.#.^././.(.(.(.(.(.(.(.(.(.(.^.#.#.",
"@.7./.(.(././.(.(./.^.7.7.^.(.(.^.7.^.).x.S.XX$X*X=XyXJ.-.c m >.h # % % $ # % % % @ % % % & u k m l.L.tXiXiXiXtX*X%X#X].y.6.#.(./././.7./././././././.(.(.^.#.#.",
"@.#.(.^./.^./.(.(.(.(.(.(.(.(.(./.@.7.q.x.S.XXOX%X=XyXL.-.x -.1.l + % % % % @ @ @ @ $ % % y u j x l.L.rXuXuXpX=X%X&XoX].e.3.#.(.(.7.7.5.5.5.7.7.7.5.@./.(./.^.#.",
"@.#.^.^./.(./.7.7./.(.(.(.(.(.7.7.7.@.3.:.B.oXOX$X%X=XJ.b k -.m.l + % % $ + + + $ $ % % % & u j m l.L.rXpXiX*X*X#XOXXXS.4.5./.(./.5.5.7.7.5.5.5.! @.7./.^.^.#.! ",
"@.#.7././.^.7.7.7.^.7.7./././.7.7.^.7.9.t.B.[.XX#X*X*XJ.v i -.M.l + # + % i.p.u.8 @ # @ % & u j c l.J.rXpXuX%X%X%XoXF.N.4.+.(.(./.! @.5.7.5.' ' ! ! ^.^.^.^.#.! ",
"! #.(.(.^.! 7.^./.7.7.' 7.(././.(.(.^.q.t.Z.S. XOX%X*XD.v i M B.l + @ r u.2X2X`.p @ % % % y u j c h.J.*XtXrX*X*X$XXXZ.t.e./.(.(./.5.' ' ! ! ' ! ! #.^./.^.^.#.! ",
"@.7./.^.' Q Q 7.(.(././.(.(.7./.(.(.(.).t.N.F.|.XX#X*XJ.M h M M.l + $ z.3XwX,Xu.r + % @ % y u i x g.H.&X*X*X&XOX[.S.S.V.r./././.(./.5.Q ! ! 7.7.#.#.^.^.^.(.7.! ",
"@.7.(.^.^.7.! 7.(.(.(./././././.(.(.(./.:.c.K. X X[.OXF.-.l M M.x , u.2XgXsX2Xp.7 + + @ % % y i x g.A.#X$X#XOX[.S.S.S.A.q.7.7./.(.(.7.7.7.7.^.^.(.^.^.^.^.(.^.#.",
"! ^.(.(.(.(.(.(.(./.7.7.^.(.(.(.(./.^.7.&.x.F..XF.S. XD.,.k b M.l ) ,XwXfXsX9X'.s $ e $ $ & 9 i l <.Z.[.XX XXXS.N.S.Z.t.6.! @./.(.(.(.(.(.(.(.(.(.(.(./.#.^.! ! ",
"! ! ^.(.^.7./././.^.7.5.^.(.(././.^.7.7.5.t.B.F.|.[.|.C.,.j j 1.z.'.9XgXfXdX0X1X'.`.d.u.r & 8 i x ,.B.F.A.S. XF.B.B.k.:.8.(./.#.7.(.(.(.(./.(.(.(.^.^././.^.! Q ",
"! #.^.(.^.#.^.^./.^.7.@.^./.(.^.7.7.7.7.^.4.<.N.S.|.J.M.M x x g.'.9XqXsXhXhXdX0X0X7X1X`.p.d y u z ,.N.F.Z.B.F.S.N.k.:.&./.(./.#.^.(.(.(.(.^.^.(.(.^.#.(.(.#.! ! ",
"! ^.(.(.^.^.7.^.(.^.! @.#.7.! #.7./.(.(.^.W %.<.N.B.Z.h.j l f.s.>X7X9XqXdXjXhXdX0X6X7X7X:Xd.d 9 z ;.N.F.F.S.B.c.k.<.*.@.7.5.@./.(.^.(.(.(.7.#.^.^.(.(.(.(.(.^.! ",
"! #./.^.^.^.^.^.^.^.#.! ^./.^.^.7././.7.7.7.5.&.:.k.N.<.h l n s.<X4X1X5XqXdXhXfXqX5X1XwX4X-Xf 9 k -.<.B.B.N.N.<.%.&.2.! 7././.(.7.' /.(.(.^.7./.(.(./.7.^.(.^.7.",
"! #.^./.^.^././.7.(./.7.^.(.(.^.(.(.7.5.7.(./.W &.:.<.;.h h f f.;X4X<X<X3X9XqXqX9X1X4X4X4Xn.f 9 k c -.<.<.<.t.*./ W ! @.7./.(.7.7.7.^.(.(./.^.(.(./.^.! ! (.^.! ",
"! #.#.#.^.(.(.(.(.(.(.(.7.' (./.7.(.(.7.(.7.7.! ! @.U ~ u h j n n.:X8X<X'.'.>X>X>X<X<X4X-Xf.a u j l %.%.%.I 3.5.#././.^././.7.@.7.^.^.^.(./.^.(.(.#.^.^.(.(.! Q ",
"! ! @.#.7.(.^.(.(.(.(.^.7.7.(.(.(.(././.(./.7.5.#.^.Q U &./ / &._ s.d.d.s.s.s.a.s.s.d.s.s.( / &.2.4.2.2.W Q 7./.(.(././././.7.5.7./.7.7.^.7.^.(.(.(.^.^.(.(.! E ",
"! ! ! ! #.^.7.^.(.(.^.#.^.^.(.(.(./.7./.(.(.^.7.7.(./.7.@.@.@.#.Q I ^ ^ ^ ^ ^ ^ ^ ^ ~ H W @.#.#./././.#././.(.(././.^./.(.(.^.7.^./.^.7.5.7.7./.(.(.^.(.(.(.! Q ",
"#.! ! ! ! ! ^.^.^.(.^.^.7.^./.7.5.7.@.7.(.(./././.(.(.(.#./.(.7.! ! ' ' 9.' ' ^.! ' E ` ! @.7././././.#.#.#.(.7.7.#.5.7.(.(./.^.^.(.(.(.7././.7.! #.(.(.(.^.^.! ",
"Q ! ! ! 7.! ! #.#.! #.#.#.#.7.#.5.5.@.7.7.7.7.7.7.7.7.7.7.7.7.7.! Q ^.' ' ' ' /.' ! ' ' @.@.#.#.#.@.@.#.#.#.#.@.! @.5.7.7.7.7.7.7.7.^.^.7.7.^.7.! Q #.#.! ! ! Q ",
"E W Q ! ! 7.! ! Q Q Q ! ! ! Q ! 6.@.#.@.Q Q 5.5.5.@.Q @.@.@.@.@.Q Q ! Q E Q ! ! ! ! ! ' @.@.! Q Q Q Q ! @.@.Q @.7.@.#.@.Q Q ! 7.#.! ! ! ! ! 5.7.Q W @.Q W W W E "
};
