/* XPM */
static char *__resized[] = {
/* columns rows colors chars-per-pixel */
"80 80 226 2 ",
"   c #0C0A09",
".  c #0F0F0B",
"X  c #120E0D",
"o  c #13120C",
"O  c #161809",
"+  c #191713",
"@  c #231613",
"#  c #261917",
"$  c #281917",
"%  c #261A19",
"&  c #291B19",
"*  c #301F1D",
"=  c #1A2506",
"-  c #1D2B07",
";  c #17200A",
":  c #1B240A",
">  c #1E2C09",
",  c #1F3007",
"<  c #1E2612",
"1  c #20290A",
"2  c #202E09",
"3  c #223409",
"4  c #29340F",
"5  c #263B0B",
"6  c #293E0B",
"7  c #262716",
"8  c #32211D",
"9  c #39261E",
"0  c #3C2D1B",
"q  c #2C3412",
"w  c #293914",
"e  c #373918",
"r  c #1F1E21",
"t  c #2A2421",
"y  c #262A24",
"u  c #292928",
"i  c #352521",
"p  c #3A2722",
"a  c #3D2B23",
"s  c #2B3427",
"d  c #383925",
"f  c #343635",
"g  c #41391C",
"h  c #422E25",
"j  c #482F2A",
"k  c #443226",
"l  c #4B3325",
"z  c #443B26",
"x  c #463328",
"c  c #49342A",
"v  c #4D392C",
"b  c #563B2A",
"n  c #533B2E",
"m  c #4D3630",
"M  c #543D31",
"N  c #593935",
"B  c #5C3A3D",
"V  c #2B430B",
"C  c #2E4A0C",
"Z  c #314E0D",
"A  c #34540E",
"S  c #365A0F",
"D  c #395D0F",
"F  c #2A4611",
"G  c #2D4B12",
"H  c #334C12",
"J  c #384719",
"K  c #2F5316",
"L  c #345511",
"P  c #395412",
"I  c #365911",
"U  c #395C10",
"Y  c #3A571D",
"T  c #355C18",
"R  c #3C620F",
"E  c #3F680E",
"W  c #3C6311",
"Q  c #36631A",
"!  c #39651B",
"~  c #3D6D1D",
"^  c #3F711F",
"/  c #354828",
"(  c #3B5524",
")  c #395827",
"_  c #2F423C",
"`  c #34443C",
"'  c #3D6424",
"]  c #3E6A22",
"[  c #3F7120",
"{  c #41471A",
"}  c #41660C",
"|  c #426B0F",
" . c #46710E",
".. c #4B750E",
"X. c #4D7C0F",
"o. c #507E0F",
"O. c #416715",
"+. c #436B11",
"@. c #487515",
"#. c #4B7913",
"$. c #41751F",
"%. c #43791F",
"&. c #517F11",
"*. c #494828",
"=. c #504424",
"-. c #455925",
";. c #515829",
":. c #5B4234",
">. c #5A4737",
",. c #5B5636",
"<. c #664838",
"1. c #644B3B",
"2. c #66543C",
"3. c #685A3C",
"4. c #79533D",
"5. c #446627",
"6. c #426E24",
"7. c #536A2C",
"8. c #427620",
"9. c #4B7426",
"0. c #457C21",
"q. c #4A7D25",
"w. c #477629",
"e. c #4C7B29",
"r. c #54782B",
"t. c #5B6333",
"y. c #5A7231",
"u. c #5E7932",
"i. c #69663D",
"p. c #627A36",
"a. c #394745",
"s. c #3C544F",
"d. c #375E5A",
"f. c #3A6155",
"g. c #474B43",
"h. c #445A56",
"j. c #694D40",
"k. c #6D5442",
"l. c #695944",
"z. c #765844",
"x. c #735B49",
"c. c #756547",
"v. c #756A42",
"b. c #7B614D",
"n. c #6E7142",
"m. c #797345",
"M. c #7A6651",
"N. c #49776C",
"B. c #825A3F",
"V. c #895D42",
"C. c #855D53",
"Z. c #83664C",
"A. c #8A674C",
"S. c #86694E",
"D. c #84754B",
"F. c #846B55",
"G. c #8C6D52",
"H. c #90655B",
"J. c #8C7355",
"K. c #947455",
"L. c #95765C",
"P. c #95795C",
"I. c #9A7B5B",
"U. c #9C6D64",
"Y. c #8F7964",
"T. c #997364",
"R. c #967A64",
"E. c #9A7C65",
"W. c #9A7E69",
"Q. c #A37669",
"!. c #52820F",
"~. c #578A0F",
"^. c #518717",
"/. c #568912",
"(. c #5D9111",
"). c #619611",
"_. c #669D12",
"`. c #6BA512",
"'. c #6EA912",
"]. c #71AB11",
"[. c #75B213",
"{. c #79BA13",
"}. c #478022",
"|. c #498423",
" X c #4C8A24",
".X c #55832A",
"XX c #58872C",
"oX c #4D846E",
"OX c #468A79",
"+X c #9C855A",
"@X c #9E875A",
"#X c #A4875E",
"$X c #9C8061",
"%X c #9D816B",
"&X c #A38363",
"*X c #A88662",
"=X c #A58D62",
"-X c #AC8A63",
";X c #AA896A",
":X c #B08D67",
">X c #B18F6B",
",X c #B3916D",
"<X c #A78B73",
"1X c #AB9070",
"2X c #B69472",
"3X c #B99674",
"4X c #BB9877",
"5X c #B6967C",
"6X c #BC9B7C",
"7X c #C09E7E",
"8X c #4A9688",
"9X c #579990",
"0X c #57AB94",
"qX c #77B79C",
"wX c #70D0AA",
"eX c #B69A80",
"rX c #BE9E81",
"tX c #BEA286",
"yX c #C09F82",
"uX c #C2A285",
"iX c #C5A689",
"pX c #C7A88B",
"aX c #C8A98C",
"sX c #93DCBA",
"dX c #88DFC1",
"fX c #98E6C2",
/* pixels */
"K Q $.~ ^ ^ ^ ^ %.^ ~ ^ %.%.^ ^ ^ %.%.^ ^ ^ ^ }.%.^ 0.%.^ ~ ~ ^ ^ [ 8.^ ^ 0.$.~ Q ~ ^ ~ ^ ^ ^ [ 8.' ] 8.8.8.8.$.^ $.%.$.~ ~ ^ 0.8.$.%.8.^ ~ ! $.^ 8.8.^ ^ %.~ T ",
"! ~ $.$.^ 8.^ ^ ^ ^ ^ 0.8.%.0.^ ^ [ [ ^ ^ ^ ^ 0.^ ^ ^ ^ [ 8.0.0.}.8.$.~ ^ 0.0.0.8.$.$.$.$.$.^ ] ) ' 8.0.0.8.8.[ ^ 8.^ ^ ~ ^ $.8.$.^ ^ ^ ~ 8.0.0.0.8.$.^ ^ 0.$.~ ",
"0.$.$.0.}.0.^ ^ ^ %.%.}.0.0.0.8.[ 0.[ ~ ^ %.0.[ [ [ ^ ^ [ }. X X X}.$.^ ^ 0. X X X}.8.0.}.0.^ ) / ' 0.0.0.0.0.[ 8.8.8.^ $.8.0.8.8.[ ~ ~ 8.0. X X X}.$.^ ^ 0.0.0.",
"$.%.|. X|.}.$.%.%.^ %.}.|. X X X|.|.[ [ %.|. X|.|.}.}.}.|.}.0. X|.|.}.%.%.}.}.}.}.|.|. X|.}.8.8.6.8.8.0.}. X X X|.}.8.^ 0.|. X|.0.|.|.|.|.|.|.|.|.|.|.8.$.|.%.~ ",
"~ $.q.|.|.|.|.}.}.0.0.|. X X X|. X|.}.}. X X X X X X X X X0.0.}.0.0. X}.0.}.|.|.}.}.}.}. X X|.}.|.0.0.0. X X X X X|.|.}. X X X X X|. X X X0.0.0.0.0.|.|.0.0.0.$.",
"$.$.$.$.|. X X X X|.}.|. X X0.0.}. X X X X X X X X X X|.|.0.0.0.] [ |. X X8.}. X X0.[ 8.0. X X X Xq.|.|. X X0.0.}. X X X X X X X X X X X|.0.0.%.^ ^ |. X X0.8.8.",
"~ ~ $.0.%.0.q.0.8.8.[ 0.8.0.|.|. X}.}.8.8.0.}.|.|. X X X|.%.^ 8.^ ^ }. X X0.8.8.}.8.8.8.0.}.}.0.8.8.8.8.0.0.|.|.|.|.}.8.0.0.}.|.|. X X X|.8.$.%.~ ^ |. X X0.~ ! ",
"~ $.$.0.0.$.$.^ [ ^ ^ [ ^ ^ 0.|. X}.0.0.8.0.8.8.0. X|. X X}.}.}.%.%.|. X X8.^ $.0.8.8.}.0.[ [ ^ [ [ [ [ ] 8.0.|.|.}.0.0.8.0.8.8.0. X X X|.|.q.|.0.8.|. X|.8.! ! ",
"^ ^ ^ }.}.^ ^ [ ^ ^ ^ ^ ^ ^ ^ [ |.0.|. X X0.%.^ %.|. X X X X X X|.|. X X}.[ [ 8.0.8.8.}.0.^ ^ ^ [ [ [ ] ] ' ] 0.|.0.|. X X}.[ ^ 8. X X X|. X X X}. X X X|.^ ~ ~ ",
"~ ^ %.%.}.[ ^ ^ ^ [ ^ ^ [ }.[ |.|.}. X X X|.0.}. X X X X|.|. X|.0.$.8.}. X}. X X0.8.8.0.0.8.^ ^ [ [ [ ] ) ) 8.|.|.|. X X X|.}.|. X X X X|.|.|.|.0.8.8.|. X}.0.$.",
"^ ^ %.|.|.}.[ ^ 8.8.0.0.}.}. X X X|. X X X|.|. X X X X X%.q.|.|.^ ~ ] }. X|. X X|.8.8.|.|.|.8.[ [ 0.w.0.) / 5.|. X|. X X X|.|. X X X X|.0.0.|.|.[ ~ ~ 0. X}.0.%.",
"%.^ ^  X X X}.[ |. X X X}.|. X X X}. X X0.}. X}.}. X X}.$.}. X X8.~ ^ |. X8.8. X X0.8. X X X}.8.}. X X Xw.' ) 8. X|.|. X0.}.|.}.|. X X|.$.|. X X8.] ^ }. X8.$.$.",
"^ ^ ^ }. X X X}.^ [ |. X}.}. X}.0.|. X|.|. X X|. X X X X|. X X X|.}. X X X8.0.}.}.0.8.}. X X X}.[ 8. X X}.' f ' }. X X X|. X X}.|. X X X|.|. X X|.0. X X X0.$.^ ",
"~ ^ %.}.|. X X}.%.[ 0. X}.0.|.}.0.|.|.0. X X X|.}. X X X X X X X|. X X X X|.|. X}.8.0.0.|. X X}.8.[ 0. X}.' s ) [ |.}.}. X X X}.|. X X X X X X X|. X X X|.}.$.$.",
"^ %.}. X X X|.|. X}.0. X}.}.|. X X|.8.~ 0. X X8.$.%.|.|. X X X}.0.0.}.}.0.|. X X|.}.|.|. X X}.|. X0.0. X|.8.` ' w.}.[ ^ 0. X X8.8.0.|. X X X X}.0.0.0.0.}.|.}.0.",
"^ %. X}. X X|. X X X|.|.}.|.|. X X0.[ ~ 8.0.0.$.$.%.q.%.%.%.}.|.}.}.}.~ ! @.+.! ~ 8. X}. X X X|. X X X}. Xw.) 5.w.8.^ [ [ 0.}.[ [ 8.0.0.0.0.|.|.|.}.}. X|. X}.8.",
"^ %.|.8.0. X|.|. X X}.8.0. X X X X8.$.8.8.$.8.8.%.0.q.%.%.0.|. X Xq.|.@. .o...+.@.%.|.[ %. X|.|. X X|.8.}.[ ) ' w.w.[ [ [ [ }.[ 8.8.0.8.8.0.|. X X X X|. X X0.%.",
"%.%.8.^ %.0.0.}. X8.[ [ ^ [ }. X X X|.%.}.|. X X X X|.|. X X X X0.@.&._.[.'.`.'.[.`.#.I Q %.%.q.}.8.[ [ ^ ] ) 5.w.}.}.q.|.|. X X X X X X X X X X X X X%.8.|.0.8.",
"$.8.|.8.8.8.0.0.0.8.8.0.[ ^ }. X X|.|.|.0.0.|. X X X X X|. X$.! ^._._.'.[.'.`.`.{.[._.(.#.W $.0.0.[ 8.0.^ ' _ ) e.|. X|.0.}.|. X X X X X}.|. X|.}.%.|.%.$.8.8.%.",
"^ 0. X}.0.0.0.8.8.8.0.}.8.^ }. X X|. X|.0.0.}. X X X X%.~ %.@.U ).{.[.'.).!.X.!.`.].'.{.(.I ! $.8.8.0. X^ Y s ) e.|.|.|.0.0.|. X X X X}.8.}.|.|.%.^ }.}.0.$.$.%.",
"8.0.|. X X X|.}.|.%.^ ^ ] 8. X X}.|.|. X X X X}.}. X X$.Q @.).'.`.`.`.`.!.A D  .&.!.!.!.~.!.I T }.0.[ [ ^ ( y ) }.|.|. X X X X}.}. X|. X X X X X X X X X|.0.%.$.",
"$.0.|.|. X X|. X|.|.0.0.0.0. X X|.8.}. X|.|.}.|.|.}.$.~ ..(.].[.(.@.} |  .S R | ..| R A } ~.o.!.^.~ ~ 0.] ( s '  X[ }. X|.}.}.|.|.}.}.}.|.|.|. X X|.|. X X|.0.%.",
"^ %. X|.|.}.|.|. X X X X X X X X|.$.8.}.0.$.$. X|.%.~ @.~.`.]._.X.C - C E E |  ...} A 2 C ~.`.`.~.W ! 0.' / / w.|.[ 0.}.0.[ [  X X}.}.8.[ [ 0.0.%.$.8.|. X|.%.$.",
"%.%.0.}. X X|.0.|.|. X X X X X}.0.8.8.8.8.8.0.|.$.R /.(.!.X.(.'.X.D A A D D D R | } S C D !.!.!./.!.+.J y s ] w.0.0.0.[ [ 0.|. X X[ [ 0.0.0.0.[ ^ 8.0.|.|.|.%.$.",
"$.%.}.|.|.|.0.0.}.}.0.0.}. X X0.0.}.0.8.q.q.0.$.R } o.X.R R .._.!.R } U I W W W +.R U U | X.| |  .@.Y 7 s J ! $.}.}.%.%.0.q. X X}.^ [ 8.0.8.^ ^ ^ ^ |.}.}.|.%.^ ",
"^ 0. X X}.^ [ }.}.}.8.[ 0. X}.|. X X|.|.|.|.%.D R  .D Z V A +.~.X.| R D I | | D U D D R  ...I L L d u y Y O.Z ~ }. X X|. X X X X|.8.^ ^ ^ [ ^ ^ ^ ^ }.|.}.|.%.^ ",
"$.0.|.}.^ ^ ^ %. X X X|. X}.0.|. X X X}.T +.#.R D R I Z 5 C +.!.| I D | | D V 3 5 Z U | +.D C F w u y J O...+.U T  X X X X X|. X X|.8.^ ^ ^ [ 0.%.}.%.|.|.|.}.^ ",
"$.0.|.}.0.0.^ %. X X|. X X X}. X X%.%.$.I D +.I I D I Z 5 V D | W I I | | S C V V A R +.W I Z w y y s J O. .@.} W %.%.%.|.|.%.|. X X}.8.8.}.|.|.|.|.|.}.|.|.|.^ ",
"^ 0.|. X X X|. X X}.0.8.}. X X X}.W I U I I I I D D D I Z 6 6 A I I D D R D R +.D D } W U L L w y u y G K S R  .#.| U T %.%.$.|. X X X|. X X X X X X X|.0.}.^ ^ ",
"~ $.}. X|.%. X X|.}.}.8.|. X X X8.G V Z I I I W | | W I A A L D I U } R D W P J P D U } L 5 < r y f u < ; < 5 L } W U } $.|.|.8.0. X X X X|. X X X|.%.}.|.}.^ ~ ",
"^ %.|. X|.%.}.|. X}.0.[ 0. X X8.T F 6 C I I A } | } W U I D I D U W } D S R { 0 J Z P W G : X X r f f r X . O w L Z I D T ~ %.0.}. X X X X}.}. X X}.}. X X^ ^ ^ ",
"$.}. X X|.0.%.}. X0.[ 8.8.8.^ T G C V C I I A I D I I U I C C I D D D D D S { h 0 e J L F O + X   u f f +   . 4 H V V V 6 F L 0. X}. X X X%.%.|.|. X X X X|.}.%.",
"^ %.|.|.}.0.}.}.}.}.0.[ q.0.T F 6 V V V A S Z S A C 6 Z S C C S I Z Z A D D ;.b g e P S 3 X + o   X + t X . + + > F V V 3 5 5 G T 8.|. X X}.0. X X X|.0.}. X}.%.",
"^ %.}.}.}.}. X|.0. X|.8.|.8.F 5 5 5 6 V Z Z C Z C 6 5 V S A A A { J A A S S =.b g Z S D V O 7 +       X . O 7 + ; 5 C V 5 3 3 3 V T 8.|. X|.}.|. X|.}.^ ^  X}.^ ",
"^ $.0.0.}. X X X X X X X0.T 5 3 3 2 3 5 V C V V V C Z P Z S S A =.b D S A P J 0 A S Z S I C 7 7 , + o + < < < , F V V V 3 3 3 3 3 5 ! 0. X|.|. X|.}.}.}. X X[ ~ ",
"^ ^ $.^ 0. X|.|. X X X}.T V 3 3 3 3 3 5 V V V V V C Z Z C C Z S J g Z Z C C 6 6 S Z 6 A A C 5 5 V 5 < 4 5 w 3 5 V V 5 5 3 3 3 5 3 3 V Q 0.}.}. X X|.}.}. X X[ Q ",
"^ ^ ^ ^ [ }.}.}. X X}.^ F > 3 3 3 3 5 5 5 V V V V V V V V 5 C A e q 6 V 6 V V C A V 5 C C V V V F V C V V V V V V V 3 3 3 2 3 3 3 3 - V Q ^ 0. X X X|.|. X|.^ ~ ",
"%.$.^ $.[ [ 0.|. X X%.T F 3 3 3 3 3 3 5 3 V V V 6 5 V 6 5 V V C V V 6 V V V V V C V V V V V V V V V V V V V V V 6 3 - = - 3 3 3 3 > , , 5 ^  X0.^ %. X X X|.}.^ ",
"%.%.$.0.0.}.0.}.}.}.~ F 3 , 3 5 3 3 3 2 3 6 5 5 5 5 3 3 V V V V C C C V V V V V V V C V V V C V C V V V V V 3 V 3 3 3 - - 3 3 3 , > > > 3 ~  X}.$.$. X|.%.0.^ 0.",
"~ $.}.|. X X}.}.0.0.Q , > > , 3 3 3 2 1 3 3 5 5 5 5 2 3 5 V V V 6 6 V V V V V 6 V V V V V V V V V 5 3 V V 3 3 , 3 3 3 3 3 3 3 3 > > , , G ^  X X%.%.|.%.^ %.%.^ ",
"! $.|.|.q.|.|.|.|.0.Q 5 , > = > 3 3 3 2 = 2 3 3 3 3 3 3 3 3 6 3 2 = 2 5 V V V V 5 3 V V V V 5 3 5 3 - - , 5 3 3 3 3 3 3 3 2 = = - 3 5 K ^ 0.0.}.}. X X|.}. X0.~ ",
"~ $.0.0.%.}.0.0.}.0.^ T F , = > 2 2 3 2 = - 3 3 3 3 3 3 3 3 3 3 2 1 2 3 3 5 3 5 3 3 5 3 6 6 3 3 , - - - 3 3 3 5 3 3 3 - = 2 2 = , F K ' 8.}.|.|. X|.0.8.8. X}.$.",
"%.%.8.0.}.0.^ ^ ^ 8.0.8.Q F 5 , 2 - 2 2 3 3 3 3 3 3 3 3 3 3 3 3 3 3 3 3 3 3 3 3 = 3 3 5 5 3 3 3 - - 3 3 3 3 3 3 3 3 2 = - , 3 3 G ! ~ ~ [ }. X X X0.$.~ $.0.0.%.",
"^ 8.|. X|.}.%.^ 0.^ %.}.0.[ Q G 3 - = 2 - = = = - - , 3 3 3 6 3 3 3 3 3 3 3 3 3 3 3 3 3 3 3 3 3 3 3 3 3 5 3 - : - 3 2 = = , T +.$.0.|.|. X}.}. X|.|.}.%.%.}.%.^ ",
"^ 8.}.}.|. X|.}.}.0.0.|. X X%.! T K K H 4 1 1 1 = - - - , > , > 3 3 2 2 2 3 3 3 3 3 3 3 3 3 3 3 3 - , - > , = : > e g / F K 8. X X X X X Xq.0.0.0.0. X|.0.0.8.$.",
"^ ^ 8.8.}. X X X|. X|.}. X X0.%.%.|.|.0.*.z z e F w 4 4 4 > > > = = - 3 3 3 3 3 3 3 2 3 2 3 3 2 = = = 2 > 4 w q d >.x.c.7.0. X X X X X X}.0.8.0.^ [ |. X X0.8.8.",
"^ ^ ^ 0.0.}.0.0.0.8.8.8.8.8.|. X X|.}.9.i.F.P.J.F.M.c.l.,.d > > = - 2 3 3 2 - - = = 2 = = 1 2 1 : < 7 e d z l.M.F.W.;X$Xy.8.0.|.|. X X|.|.8.8.0.~ $.0. X X8.~ ~ ",
"~ ~ 8.}.0.$.^ 8.[ ^ [ [ ^ [ 0.|.|.}.%.9.D.;X6X6XeX1X<X<XY.M.>.a g { 1 1 = O = O O = = = 1 1 q e *.*.,.M.M.Y.%X<X1X5X4X*Xy.8.8.8.}.|. X X X|.0.|.8.8.|. X X[ ~ Q ",
"~ $.$.%.0.^ ^ ^ ^ [ ^ [ ^ ^ ^ [ }.}.|.XXD.&X6X6XrX6XiXiXtXtXW.j.k.2.& o o o O o o o o @ 7 a m x.Y.W.<XeXrXyXrXrXrXrX3X#Xu.8.8.$.8. X X X X X X X X|. X X}.^ ~ ~ ",
"~ ~ %.%.0.8.^ ^ ^ ^ ^ ^ 8.0.[ |.|.|.|. Xm.&X4X6XrXiXuXiXiX<XM.j.N h & % # % @ @ @ + @ % i x M b.1XeXrXuXaXaXiXyXyXeX4X#XXX9.0.|. X X X X|.|.|.|.%.$.8.|. X}.8.8.",
"~ $.%.|.|.}.%.^ 8.8.0.0.}.}. X X X|. XXXD.&X4X6X6XiXtXiXtXF.1.1.a @ $ 8 & * & & # $ % & i h :.x.W.5XrXrXiXpXyXiXyX6X4X*Xu.q.|. X X X X|.%.0.|.|.^ ] ~ 0. X|.0.%.",
"$.$.$. X X X0.0.}. X X X|.|. X X X|.|.XXm.&X4X4X6X6XiXpX5XZ.:.n a $ $ $ $ # $ & $ $ % % % i >.1.1.W.yXyXiXaXyXyXyX6X7X#Xy.0.|.q.|. X X|.$.|. X X8.~ ~  X X%.$.$.",
"^ $.%.|.|. X X}.[ 8.|. X}.0. X}.0. X|..Xm.$X4X4X6XrXpXrXW.j.b n h $ $ $ % % $ % $ % $ % & i c N :.W.yXiXyXiXyXyXuX6X4X=Xu.q. X|.|. X X|.|. X X X|.}.|. X X0.$.^ ",
"~ ^ %.%.|. X X}.%.[ 0. X}.0.|.}.%. X}.9.v.$X4X4X6XuXpX1XM.>.<.<.h $ & $ $ & & $ $ $ $ $ & * p c 1.T.eXiXyXyXiXyXrX7X4X=Xp.|. X|.q. X X X X X X|. X X X X|.q.8.^ ",
"^ %. X|. X X|.|. X}.0. X}.}.|. X X|.$.9.v.Q.4X6X6XuXpX%Xj.>.k.B.l $ $ & & $ $ & & $ & % * * * c k.F.<XrXyXyXyXyXyX6X4X=Xp.q. X8.$.0.|. X X X|.}.0.0.0.0.}.|.0.%.",
"~ %. Xq. X X|. X X X|.|.}.|.|. X X%.~ 9.i.I.3X6X6XrXuXR.M >.1.N 0 $ & & % $ % $ % % & $ & * * c k.M.R.eXiXiXyXyXrX6X3X#Xy.8.0.$.$.0.0.0.%.0.|.|.0.|.|. X X|.}.%.",
"^ 0. X8.0. X X X X X|.8.}.|. X X X%.^ 9.v.I.,X3X6XrXrXR.n N n h * $ & & $ & & $ & # & & & * * c k.b.Y.rXiXpXpXuX6XrX3X#Xy.8.8.8.8.0.0.8.0.0.|. X X X X X|. X}.%.",
"%.8.8.^ 8.0.8.}.|.[ [ [ ^ [ |. X X|.}.q.i.P.>X3XuXpXiXR.:.M n k 8 $ & * & & $ $ $ & # # & * i c 1.x.W.iXpXuXyXuXyX6X,X@Xy.@. X X X|. X X X X X X X X X}.8.|.}.%.",
"$.8.}.8.8.8.8.0.0.8.8.0.[ ^ }. X X X Xr.v.K.>X4XrXuXpXW.:.M :.l 8 @ $ & & $ $ $ & & & # & * i j 1.b.%XiXpXuXuXuXuX6X2X+Xy.8.|. X X X X X0.|.|. X0.8.|.8.^ 8.0.%.",
"^ 0. X|.0.8.0.8.[ 8.}.|.[ ^ }.|. X|.|..Xm.I.>X4X6X6XiX%X:.M n l 8 @ $ & & & $ $ # & & # & * i j >.b.W.iXpXiXiXuXuX6X2X#Xy.8.q. X X X X|.0.0.|.|.%.^ 0.}.}.^ ^ %.",
"8.0.}. X X X}.0.}.8.^ ^ ^ %. X|.|.}. X.Xv.K.-X4X7XuXuXE.:.m n n 9 @ $ $ & & $ & & & # # % * p c >.x.W.uXaXpXtXuXrX4X3X#Xp.q. X|.0. X|. X X X X X X X X X X%.%.%.",
"%.0.|. X X X X X X|.}.0.0.|. X X|.0.}.|.v.P.-X3X6X6XuXE.:.v :.<.0 $ & & $ % $ % # & & # % & p x M x.W.tXiXiXiXrX6X4X2X@Xp.0.%.|.|.|.0.|.|.}. X X X|.|. X X|.%.%.",
"$.%. X|.}.}.|. X X X X X X X X X X^ %.r.v.K.-X2X4X4XuXE.:.c <.4.l @ * & # % % $ & & & & & i p k v x.W.rXuXuXpX7X4X2X>X+Xy.6.%. X X0.0.8.[ 8.0.0.8.%.%.|. X}.}.%.",
"$.%.0.}. X X}.0.}.|. X X X X|.}.%.%.%.6.,.S.-X,X4X6X6XR.M h b B.l @ $ $ % % % % # # & & % * p h v x.W.rXpXiX6X6X5X,X*XK.7.8.|. X X8.8.0.0.8.8.8.[ [ 0.}.}.|.%.^ ",
"$.%.0.|.|.|.0.0.0.}.0.0. X X X0.0.0.0.w.,.S.*X:X2X4X6XR.n a :.V.l @ # $ i h.a.y % % $ % & * p j m x.E.rXiXyX4X6X4X:XI.Z.r.%. X X%.$.^ 8.8.8.8.[ ^ ^ |.}.}.}.%.^ ",
"^ 0. X X}.^ 8.0.}.0.8.[ 0. X|.|.|. X Xr.v.G.I.#X,X3X6XL.v a <.A.b @ # @ d 9XN.u % % $ $ * * p h c l.R.rXyXrX6X6X3X-XG.3.y.|. X X|.%.^ ^ ^ ^ [ ^ ^ ^ |.|.}.}.%.^ ",
"$.0.|.}.8.~ ^ 8. X X X|. X|.0.}. X X X|.i.Z.P.#X:X2X6XR.N h b V.l @ % % y ` s 7 & & & $ & * p h c l.L.5XuX6X2X2X#XK.K.D.u.|.|. X X|.8.^ ^ ^ 0.0.%.%.}.}.|.|.0.%.",
"$.%. X}.}.0.^ }. X X X X X|.}. X X X Xr.,.b.I.*X*X&X,XI.:.l :.V.l @ # % @ % f g.f 7 @ % % * i a c j.J.1X3X3X,XI.K.K.I.D.r.%.q.}. X Xq.%.%.0.}.|.|.|.|.}.}. X}.^ ",
"^ }. X X X X|. X X}.0.8.|. X X X X|. X0.-.c.I.;XE.G.*XL.1.x b V.c # t 7 r f oXqXN.` < + 7 t i a c 2.G.#X-X#X:XK.Z.P.G.i.9.^ $.}. X X X X X X X X X X X}.%.}.^ ^ ",
"~ ^ }. X|.0.|. X}.|.0.8.}. X X|.}.}.0.8.$.i.A.I.#X#X&XG.1.k b z.c y s.oX9XsXsXfXsX0XOXf.a.u i p l <.A.I.J.K.*XI.S.S.4.,.q. X|.%.0. X X X X X X X X|.}.}.|.}.^ ~ ",
"^ ^ |. X}.%.0.|. X}.8.%.}.|.|.}.0.%.}.%.|.7.3.Z.I.I.I.Z.B j b k.g.d.OX0XwXdXdXsXwXwX0X8XN.d.f i z 1.Z.I.G.S.I.K.S.z.,.-.|. X|.%.}. X X X X}.}. X X}.%. X X%.^ ^ ",
"^ }. X X|.0.%.|. X}.[ %.8.8.%.%.}.|. X X}.! ( 3.Z.A.G.3.l b B <.N.8X0X8XOXOXOXOXoXOXOX8X0X9Xa.* x <.Z.I.I.J.S.b.z.2.;.$.0.8.$. X|.}. X X X0.%.}.|. X X X X X}.^ ",
"^ %. X|.}.0.}.}.}.}.0.^ }.|.}.0.|.|.|.0.0.0.8.-.,.x.Z.<.k x n B g.g.h.g.a.a.a.a._ _ s.g.h.h.f 9 k :.2.S.Z.Z.Z.2.*.-.5.~ 0.|.|.|.}.0.|. X X0.0.|. X X|.%.[  X X0.",
"^ %.}.}.}.}. X|.0.|.|.0.|. X X}.|.|.0.8.q. X XQ -.,.3.>.h h j b N B B B B B B B B B N m m j h p k v >.2.2.3.i.;.( ~ ^ $.0.|. X0.[ 0.}. X X|.|. X X|.|.^ ^  X}.^ ",
"^ %.%.%.}. X X X X X X X0.^  X|.|.|.|.|.|.}.0.[ $.$.Y J h h j n C.Q.Q.E.Q.Q.Q.U.U.U.H.C.C.<.x a l c *.*.*.Y 6.8.%.|.|.|.}.|.0.$.%.|.}.|. X X|. X|.}.}.}. X X0.~ ",
"^ ^ ^ %.0. X|.|. X X X|.0.0. X X X X|.|.|.|.0.8.%.%.^ ! Y Y -.-.p.n.n.p.n.n.c.i.n.l.t.i.,.;.-.Y 5.5.5.5.! $.%.}. X X|.|. X|.0.$.0.|.0.8.0.0.}. X X|.}.}. X X^ Q ",
"^ ^ ^ ^ %.0.0.|. X X|.^ }.|.|. X|.|.|.|. X X|.0.0. X|.8.$.$.$.%.%.^ ~ ~ ~ ~ Q Q ! ~ Q Q ~ ^ %.}. X|.|.%.%. X X X|.|.|.q. X X}.0.}.|.}.0.8.8.0.|. X X|. X X X^ ! ",
"%.^ ^ ^ 8.^ %.|.|.|.|.}.%.}. X}.8.8.$.0. X X X}.|. X X Xq.|.|.0.^ ^ }. X|.}.}.|. X^ ~ ^ $.^ 0.}.|.|.|.%.%.}.|.q.8.8.$.0. X X|.}.}. X X|.}. X X0.^ %. X X X}.}.^ ",
"~ ~ ~ ^ 8.^ 0.%.%.^ %.%.%.%.%.^ 8.$.$.0.0.0.0.0.0.0.0.|.0.0.0.0.~ ~ }.%.^ ^ }.}.}.^ ^ ^ 8.8.$.%.%.$.$.$.%.%.%.8.%.%.8.0.%.0.0.}.0.}.}.}.8.}.0.0.^ ~ %.%.^ ^ ^ ^ ",
"Q ~ ^ ^ %.[ ^ ^ ~ ! ^ ^ ^ ^ ^ ^ 0.$.%.$.~ ! $.0.8.^ ~ $.$.$.$.$.~ ~ ^ ~ Q ~ ^ ^ ^ ^ ^ ^ $.8.$.~ ~ ~ ~ $.%.$.! 8.8.$.0.$.~ ~ ^ 0.8.^ ^ ^ $.^ 8.8.~ ! ^ ~ Q ! ! Q "
};
