/* XPM */
static char *__resized[] = {
/* columns rows colors chars-per-pixel */
"80 80 227 2 ",
"   c #080506",
".  c #0D0B0B",
"X  c #120D0C",
"o  c #12110B",
"O  c #10100C",
"+  c #161809",
"@  c #151410",
"#  c #1B1A13",
"$  c #1B1817",
"%  c #231613",
"&  c #271917",
"*  c #281A17",
"=  c #271A18",
"-  c #291B19",
";  c #301F1D",
":  c #1A2506",
">  c #1D2B07",
",  c #17200A",
"<  c #1B250A",
"1  c #1E2C09",
"2  c #1F3007",
"3  c #1E2612",
"4  c #20290A",
"5  c #202E09",
"6  c #223409",
"7  c #29340F",
"8  c #263B0B",
"9  c #293E0B",
"0  c #252715",
"q  c #2C211D",
"w  c #33211D",
"e  c #3D271E",
"r  c #3C2D1B",
"t  c #2C3412",
"y  c #283913",
"u  c #373918",
"i  c #292926",
"p  c #342321",
"a  c #3A2622",
"s  c #3D2B23",
"d  c #38282B",
"f  c #2C3426",
"g  c #2B3429",
"h  c #373A23",
"j  c #293739",
"k  c #323537",
"l  c #42341D",
"z  c #422E25",
"x  c #432F28",
"c  c #443226",
"v  c #4B3225",
"b  c #443B26",
"n  c #463328",
"m  c #49342A",
"M  c #4D3A2C",
"N  c #573B2B",
"B  c #523B2E",
"V  c #4B3B30",
"C  c #553C31",
"Z  c #593B34",
"A  c #603F3C",
"S  c #2B430B",
"D  c #2E4A0C",
"F  c #314E0D",
"G  c #34540E",
"H  c #365A0F",
"J  c #395D0F",
"K  c #2A4611",
"L  c #2D4B12",
"P  c #2E4419",
"I  c #334C12",
"U  c #374619",
"Y  c #2F5316",
"T  c #345511",
"R  c #395412",
"E  c #375911",
"W  c #395C10",
"Q  c #345C18",
"!  c #3A591E",
"~  c #3C620F",
"^  c #3F680E",
"/  c #3C6311",
"(  c #3E6812",
")  c #36631A",
"_  c #39651B",
"`  c #3D6D1D",
"'  c #3F711E",
"]  c #2F4124",
"[  c #344826",
"{  c #324429",
"}  c #3A5626",
"|  c #3C6523",
" . c #3F7220",
".. c #41471A",
"X. c #41660C",
"o. c #426B0F",
"O. c #46710F",
"+. c #4B750E",
"@. c #4D7C0F",
"#. c #426A11",
"$. c #406A16",
"%. c #477516",
"&. c #4C7913",
"*. c #41751F",
"=. c #43791F",
"-. c #507E11",
";. c #494828",
":. c #504424",
">. c #455A25",
",. c #515829",
"<. c #5B4234",
"1. c #5A4737",
"2. c #5B5636",
"3. c #664837",
"4. c #63413C",
"5. c #644B3B",
"6. c #67573C",
"7. c #79523C",
"8. c #466725",
"9. c #436E22",
"0. c #436B29",
"q. c #536A2C",
"w. c #427620",
"e. c #4B7426",
"r. c #457C21",
"t. c #4A7D25",
"y. c #497729",
"u. c #54782B",
"i. c #5B6333",
"p. c #5A7231",
"a. c #5E7932",
"s. c #69663D",
"d. c #627B36",
"f. c #343D42",
"g. c #334745",
"h. c #39584B",
"j. c #316664",
"k. c #405D50",
"l. c #664640",
"z. c #6D5442",
"x. c #695944",
"c. c #765944",
"v. c #735B49",
"b. c #756547",
"n. c #756A42",
"m. c #7B614D",
"M. c #6E7142",
"N. c #7B7446",
"B. c #7A6651",
"V. c #825A3F",
"C. c #8A5E43",
"Z. c #865E53",
"A. c #83664C",
"S. c #8A674C",
"D. c #86694E",
"F. c #84754B",
"G. c #846B55",
"H. c #8C6D52",
"J. c #91665C",
"K. c #8C7355",
"L. c #947455",
"P. c #95765C",
"I. c #95795C",
"U. c #9A7B5B",
"Y. c #9D6E64",
"T. c #8F7964",
"R. c #947761",
"E. c #967A64",
"W. c #9A7C65",
"Q. c #9A7E69",
"!. c #A47669",
"~. c #52820F",
"^. c #588B0F",
"/. c #558812",
"(. c #51891A",
"). c #5D9111",
"_. c #629513",
"`. c #669D12",
"'. c #6BA512",
"]. c #6EA912",
"[. c #71AB11",
"{. c #76B513",
"}. c #478022",
"|. c #498423",
" X c #4C8A24",
".X c #4B8228",
"XX c #55832A",
"oX c #58872C",
"OX c #548A75",
"+X c #4F967B",
"@X c #9C855A",
"#X c #9E875A",
"$X c #A4875E",
"%X c #9C8061",
"&X c #9D816B",
"*X c #A38363",
"=X c #A88662",
"-X c #A58D62",
";X c #AC8A63",
":X c #AA896A",
">X c #B18E69",
",X c #B3916D",
"<X c #A78B73",
"1X c #AB9070",
"2X c #B69472",
"3X c #B99674",
"4X c #BB9877",
"5X c #B6967C",
"6X c #BC9B7C",
"7X c #C09E7E",
"8X c #4F9784",
"9X c #54A48C",
"0X c #54AA94",
"qX c #5EA895",
"wX c #67D6B3",
"eX c #77E3B7",
"rX c #B69A80",
"tX c #BE9E81",
"yX c #BEA286",
"uX c #C09F82",
"iX c #C2A285",
"pX c #C5A689",
"aX c #C7A88B",
"sX c #C8A98C",
"dX c #89E9BE",
"fX c #90EBC8",
"gX c #BCF7DA",
/* pixels */
"Y ) *.` ' ' ' ' ' ' ' =.' =.=.' ' =.=.' ' ` ' r.=.=.w.=.` ` ` ' '  .w.' ' r.*.` _ ` ' ' ` ' ' ' ' ' ` '  .r. . .'  .w.' ' ' ' =.w.*.=.*.' ` ` ` *.w.w.' ' =.` Q ",
"_ ` *.*.w.w.' ' ' ' ' =.=.=.=.' ' w. .' ' ' =.w.' ' ' '  .w.r.r.}.w.*.` ' r.}.r.w.*.' *.*.=.' ' ' ' =.=.r. .r. .' r.' ' ' ' ' =.w.` ' ' ' w.r.r.r.w.*.' ' r.*.` ",
"r.*.*.r.}.r.' ' ' ' }.}.r.r.r. . .r. .' ' r.r.w. . .' ' w.}. X X X}.*.` ' }.|. X X}.w.r.}.r.' ' w.w.w.r.r.r.r. . .r.' ' ' r.}. .w. .` ` w.|.|. X X}.*.` ' r.=.=.",
"*.=.|. X|.}.*.*.=.=.' }.}. X X X|.}. . .r.}. X}.}.}.}.}.|.}.}.|.|.|.|.=.*.}.}.}.}.|.|. X|.}.w.=.w.w.w.0.t. X X X X}.' ' r.}. X X|.r.|.|.|.r.|.|.|.|.|.w.=.|.=.' ",
"` w.|.t.|. X|.}.}.r.r.|. X X X X|. X}.}. X X X X X X X X|.}.r.}.r.r.|.|.r.r.|.|.}.}.}.}. X X}.}.|.r.w.0.0.y..X|.|. X}.}.|. X X X|. X X X|.r.r.r.r.r.|.|.=.}.w.*.",
"*.*.*.*.r. X X X|. X}.}. X Xr.r.r. X X X X X X X X X X X}.r.r.r. . .|. X Xr.}. X}.r. .w.}. X X X|.|.}.0.} [ r.}.}. X X X X X X X X X X X|.r.r.r.' w.|. X|.r.w.w.",
"` *.*.r.t.}.=.}.r.w.w.w.w.r.}. X X|.}.w.r.r.}.}.}. X X|.|.w.w.w.` ' }. X Xr.*.w.}.=.' r.r.r.}.r.r.w.w.w.{ { t. X X|.}. .r.r.}.|. X X X X|.r.*.=.` ' t. X Xr.` _ ",
"` ` *.=.=.*.*.*. .' '  . .' r.}. X}.r.r.w.w.w.=.}. X X X X}.}.}.r.w.|. X Xw.' *.}.w.w.}.r. .' ' ' '  . .[ { 0..X|.}.r.r.w.r. .r.r.|. X X|.|.t.|.w.r.|. X X*.` ) ",
"` ' ' }.}.' '  .' ' ' '  .' '  .}.}.|. X Xr.*.' =.|. X X X X X X|.|.|. X}.'  .}.r.w.w.}.r.' ' '  . . . .} } |  .}.}.|. X|.}. .' w.|. X X X X X X|.|. X X|.' ` ` ",
"` ' =.}.r. .' ' '  .' ' w.r.r.}.|.}. X X X|.r.|.|. X X X|.|. X|.r.w.w.|. X}. X|.r.w.=.r.}.w.' '  . . . .0.| | t. X}. X X X X}.|. X X X X|.|.|.|.r.w.w.|.|.}.r.*.",
"' ' ' }.}.}. . .w.r.r.w.}.}.|. X X|. X X X|.|. X X X X X=.t.|.|. .` ` }. X}. X X}.w.=.}.|.}. . . .}.}. .y.y.t..X X}. X X X|.}. X X X X|.r.r.|.|. .` ` r. X|.r.=.",
"=.' r. X X Xr.r.}. X X X}.}. X X X}. X Xr.}. X}.|. X X|.*.}. X Xw.`  .|. X=.=. X X}.w.|. X X}.r.}. X X X.X.X.X X X}. X X}.}.|.}.|. X X|.w.|. X X . .' |. Xw.*.*.",
"' ' ' }. X X X}. .w.|. X}.}. X}.r.|. X|.|. X X|.|. X X X|. X X X|.r.|. X|.r.=.}.}.r.w.}. X X X|. . . X Xt.y..X}.}.}. X X}. X X}.|. X X X|.|. X X}.}.|. X|.r.*.' ",
"` ' =.}.|. X X|.=. .}. X}.}.|.}.r.|.|.r. X X X|.|. X X X X X X|.|.|. X X|.|.t.|.r.r.w.r.|. X X}. . .}. Xy.0.y.y.r. X}.r. X X X}.|. X X X X X X X|. X X X|.|.w.*.",
"' =.|.|. X X}.|. X}.r.|.|.r.|.|. X|.w.` r. X Xw.*.r.|.|. X X X}.r.r.}.r.t.|.|. X}.}.|. X X X|.|. X}.}..X0.| y.}. X}.' ' r. X Xr.w.w.|.|. X X X}.r.r.r.}.r.|.r.=.",
"' =. X|. X X|.|. X X|.|.}.|. X X Xw.w.` *.r.r.*.*.r.r.=.r.=.|.|.|.|.|. ._ %.%.` ` w. X}. X X|.|. X X|.}.} [ 0. X Xr. .'  .r.}. .w.r.r.r.r.r.|.|.|.}.|.|. X X}.w.",
"' =.|.r.r. X|.|. X X}.w.}.|.|. X Xr.*.*.w.w.w.w.w.r.r.r.r.r.}. X|.|.&.%.O.~.+.#.%.&.|.*.=. X|.|.|. X|. .{ { y. X Xr. .w.w.r. .r.w.r.}.w.r.r.|. X X X X|. X Xr.=.",
"=.=.w.' *.r.r.}.|.w. . .' w.|. X X|.|.r.}.}. X X X X X|. X X X Xt.r.-.`.{.].'.].{.`.@.Q _ =.=.t..X .| | ] [ r. X X X}.r.}.}. X X X|.|. X X X X X X X X=.w.|.}.=.",
"*.=.}.w.*.w.r.r.r.w.w.r.' ' }.|. X X|.|.r.}.|. X X X X|.|.|.=._ (._.`.[.{.'.`.'.{.{.`.).%.( *.=. . .} ] [ | r. X X X|.}.r.}.}. X X X X X}.}. X|.}.=.}.r.w.w.r.=.",
"' r. X}.r.r.r.w.w.w.r.}.w.' }. X X|. X|.r.r.}. X X X Xt.` =.%.W _.{.{.'._.~.@.^.'.[.[.{.).W _ *. .| [ g [ w.|. X X|.|. Xr.r.}. X X X X}.w.}.|.|.=.' }.}.r.` *.=.",
"w.r.|.|. X X|.}.|.w. . . .w. X|.|.}.|. X X X X}.=. X Xw.) &.).].].'.].`.~.G J O.-./.-.^.^.~.R ! t.[ g [ | '  X|.}.}.}. X X X X}.}. X|. X X X X X X X X X|.r.=.*.",
"=.r.|. X X X|.|.|.|.r.r.r.|. X X}.r.}.|.|.|.r.|. X}.*.$.O.).[.{._.+.~ O.O.H ~ o.O.#.~ F X.^.-.-.w.g g 0.r.}. X X|.r.}. X|.}.}.}.|.}.}.}.|.|.|.|. X|.|. X X|.r.=.",
"' =. X|.}.|.|. X X X X X X X X X|.*.r.}.w.*.*. X|.=.` %.^.'.[.`.+.D > D ( ^ o.O.O.X.G 5 F /.]._.>.f { r. X X|. X|.*.r.}.r. .w. X X}.r.w. .w.r.r.=.=.w.|. X|.=.=.",
"=.=.r.|.|. X|.r.|.|. X X X X|.}.r.r.w.w.*.r.r.|.*.~ /.).~.@.).].-.H G H H J J ~ O.X.H D W -.~.$.{ g U T _ =.|.}.r.r.w. .w.r.|. X|. .w.r.r.r.r.w.' w.r.}.|.|.r.` ",
"*.=.}.|. X}.r.r.}.}.r.r.|. X|.r.r.}.r.w.r.|.t.$.$.X.~.@./ ~ +.`.~.^ #.E H J / / #.~ W E o.-.#.Y f g ] F ( %.( *.r.}.=.=.=.|. X X}. .*.w.r.w. . .' ' }.}.}.}.=.' ",
"' r.|. Xr. . .}.}.}.w. .r. X|.|.|. X|.|.|.|.=.J J O.W F D F #.^.@.o.~ E J o.o.J E J ~ ~ O.+./ P f g U W &.&.G _ }. X X X X X X X|.w. .' ' ' ' ' ' =.|.|.}.}.=.' ",
"*.r.|.|.=.` ' =. X X X|. X|.}.|. X X X}.Q #.&./ J / E F 8 D o.~.o.W J o.o.J S 8 8 F W o.o.J D y i f P E O.@.O.W ) }. X X X X|. X X}.w.' '  .w.=.=.r.}.}.|.|.}.' ",
"*.r.|.}.}.w.' =. X X|.|.|. X}. X X=.=.*.E J #.E E E E F 8 S H o.~ G E o.o.H S S S G ~ o./ E D y i i ] T ~ O.+.~ ~ =.=.=.|.|.r.|. X X}.w.w.r.}. X|.|.}.}.}. X}.=.",
"' r.|. X X X X X X|.r.w.}. X X X}._ E E W E E E J J E E F 9 S E E E H J ~ / ~ / J ~ X./ W T I y i i g U Y H ~ O.&.O.W Q *.=.=.|. X X X|. X X X X X X X|.}.}.' ' ",
"` *.}. X|.r.|. X|.}.r.w.|. X X X*.L K F E E E / o.o./ J G G G E E J o.~ W ~ R U R J J o.E 8 0 3 i i j 0 3 < 7 T X.W / X.*.t.|.=.r. X X X X|. X X X|.}.}.}.r.' ` ",
"' =.|. X}.=.}.|.|.}.r.w.}. X}.w.Q S 9 F E E E X.o.o./ J J H E E J J ~ ~ H ~ ..r U I T / D 3 X X $ k k $ . . + y T F E J Q ` =.r.}. X X X X}.}. X|.|.r.|. X=.' ` ",
"*.}. X X|.=.=.|. X}. .w.w.w.' Q D F S S E E G G J E E E R D D J E J H J J J ..v r u U T 8 + @ X X g k $ . . O y I 9 S S 9 K T =. X}. X X X=.=.|. X X X X X}.}.=.",
"' r. X}.}.r.}.|.}.}.r. .}.r.Q D 9 D S S G G G G G D 9 F H F D H R G F G ~ J ,.N l u H J 6 o $ o   @ $ @ . O # # 1 8 S S 8 8 S L ) *.|. X Xr.}.|. X X|.r.}. X}.}.",
"' ' }.}.}.}.|.|.}.|.|.w.}.' K 7 8 8 9 S G F D F D 9 8 S H G G G R U G G H H :.N l F H J S + 0 # O . X o O @ 0 # , S S S 6 6 8 1 9 Q *.|. X|.}.|. X|.}.*. . X}.' ",
"' ' }.r.|. X X X X X X X}.) 6 6 6 5 6 8 D D S S D D F G F H H F :.:.~ H G R u u G H F H E S 0 3 2 @ @ $ 3 3 3 2 8 S S S 8 6 2 6 8 8 ) r. X|.|. X|.}.r.}.|. X .` ",
"' '  . .}.|.|.|. X X|.}.Q S 6 6 6 6 6 8 8 S S S S S F F D D F H l l F D D I 9 9 H D S G G F 9 7 K 7 5 6 8 y 8 8 K S S 8 2 6 6 8 6 6 K Q }.r.}. X X X}.}. X X' _ ",
"' ' ' '  .}.}.}. X X}.' K 5 6 8 6 6 8 8 8 S S S S S S S S 8 D G u t 9 S 9 S S D G S 8 D D S S S S S S S S S S S S 8 6 6 2 6 6 6 6 2 1 S _ ' }.|. X|.}.|. X X' ` ",
"=.' ' =. . .}.}. X|.=._ K 6 6 6 6 6 6 6 6 9 S S 9 9 9 9 S S S D D 9 9 S S S S S S S S S S S S S S S S S S S S S S 6 > > > 6 6 6 6 2 2 6 8 '  Xr.=.=. X X X}.}.' ",
"*.=.=.r.}.}.}.}.}.}.` S 6 2 6 8 6 6 6 5 8 9 S 8 8 9 6 6 8 S S S D S D S S S S S S S D S S S S D D S S S S S 2 8 8 6 > 2 6 6 6 6 2 1 > < 2 `  X|.*.*.|.|.=.r.=.r.",
"' =.}.}.|.|.}.r.r.}.) 2 > 1 2 2 6 6 6 4 6 6 6 6 8 8 5 6 S 8 S S 9 S S S S S S 9 S S S S D S S S S 7 8 S S 8 2 8 6 6 6 6 6 6 6 > > > 2 8 L ' |. X=.=.|.r.' =.' ' ",
") *.|.|.t.|.|.|.}.}._ 8 2 < < 2 6 6 6 5 : > 6 6 6 8 6 6 6 6 8 8 5 : 6 6 S 8 S S 8 8 8 S S S 6 8 8 6 > > 2 6 6 6 6 6 6 6 6 5 : : > 6 8 Y ' r.}.}.|.|. X}.}. Xr.' ",
"` *.r.r.=.}.r.r.}.r.' Q K 2 < > 5 5 5 6 : 5 6 6 6 6 6 6 6 6 6 6 4 4 6 6 8 6 8 6 6 6 8 8 9 S 6 6 2 > 2 > 2 8 6 8 6 6 6 5 : 5 5 : 2 K Y | w.}.|.|. X|.r.w.r. Xr.=.",
"=.*.*.r.}.r.' ' ' w.r.w.) K 8 2 5 > > 5 6 6 6 6 6 6 6 6 6 6 6 6 6 6 6 6 6 6 6 6 : 6 6 8 6 6 6 6 > > 2 6 8 6 6 6 6 6 5 : > 2 6 8 K _ ` ' w.}. X X X}.*.' ' r.=.=.",
"' r.|. X|.}.=.*.r.' =.}.}.' ) L 8 : : 5 > : : : > > 2 6 6 6 6 8 6 6 6 6 6 6 8 6 6 6 6 6 6 6 6 8 6 6 6 6 8 6 1 < > > 5 : : 2 T ( =.=.|.|.|.}.|.|.|.|.}.=.*.}.=.' ",
"' w.}.}.|. X}.}.}.r.r.}. X X' ` Q Y Y I 7 7 4 : : > > > > 6 5 6 6 6 5 5 5 6 6 6 6 6 6 6 6 6 6 5 6 1 > 2 2 2 : < < u b [ P Q '  X X X X X|.}.r.t.r.r.|.|.r.}.w.' ",
"*.' w.w.}. X X X X|.}.|. X Xr.w.=.|.|.w.;.b b u P y 7 7 7 5 < < : : 5 5 5 6 6 6 6 6 5 6 5 6 5 5 : : > 4 1 0 y t h 1.c.b.q.w. X X X X X X|.r.w.w.' ' |. X Xw.w.w.",
"' ' ' r.r.}.}.r.r.w.w.w.*.r.|. X X|.}.e.s.G.I.K.G.B.b.x.2.h < 1 : 5 5 6 6 5 : > : : 5 : : 4 5 5 > , 0 u h ;.x.B.G.Q.:X@Xp.w.r.}.|. X X X|.w.w.r.*.` r. X Xr.` _ ",
"` ` w.}.r.*.'  . . .'  .' ' r.}. X}.=.u.F.*X6X6X5X1X<X<XE.B.1.h l U 4 4 : : : + + : : : 4 0 t u ;.1.2.v.B.G.<X<X1X5X4X-Xp.w.w.w.r.|. X X X|.r.|.w.r.|. X X .` _ ",
"` *.*.=.r.' ' ' ' ' ' ' ' ' '  .}.}.|.oXF.*X6X6X6XtXpXpXyXyXQ.A 7.5.* @ o + o o o o o # q s V v.T.&X<XrXtXuXtXtXtXrX3X$Xa.w.w.*.w.|. X X X X X X|.|. X X|.' ` ' ",
"` ` =.=.r.w.' ' ' ' ' ' w.r.r.}.|.}. X XN.*X6X6XtXpXiXpXpX<XB.z.B z ; & % * % % % # % = w x C B.<XrXtXyXsXsXaXuXuX6X4X$XoXe.r.|. X X X X|.|.|. Xr.*.w.|.|.}.w.w.",
"*.` =.|.|.}.=.' w.w.r.r.}.}.|. X X|. XoXN.*X4X4X6XpXiXpXuXG.5.5.s % - - ; ; - - % % - - p c <.v.E.5XyXtXaXsXpXuXuX6X4X-Xd.r.|. X X X X|.r.r.|.|.w._ ` r. X|.r.=.",
"*.*.*. X X Xr.r.}. X X X}.|. X X X}.|.oXN.*X6X6X6X6XpXpXrXA.<.C s - - - - % - & * * - - - p <.5.5.Q.iXyXuXaXuXuXuXtX4X=Xp.w. Xt.|. X X|.*.|. X Xw.` *.|. X*.*.*.",
"` *.*.t. X X X}. .w.|. X}.}. X}.r. X XXXN.%X4X4X6XtXpXtXQ.z.N N s - - - & & - - * - - - * ; M Z <.W.uXpXuXuXpXuXuX6X4X-Xd.t. X|.|. X X X|.|. X X|.r.|. X Xr.*.*.",
"` *.=.r.|. X X}.w. .}. X}.r.|.}.=.|.}.e.n.%X4X4X6XiXpX1XB.1.<.3.c - - - - - & - - - - - * ; a m 5.R.rXpXpXuXuXuXuX7X4X-Xd.|. Xt.|.|. X X X X X X|. X X X|.|.w.' ",
"' =.|. X X X|.|. X}.r.|.|.r.|. X X|.=.8.n.W.6X6X6XiXaX&X1.l.z.V.v % & - - & - - & - - & ; ; ; m z.G.<XtXuXuXuXuXuX4X3X-Xd.|. X=.*.r.|. X X X X}.r.r.r.t.r.|.r.r.",
"` =. X|.|. X X|. X X|.}.|.|.|. X X=.*.9.n.U.2X6X6XtXpXE.C 1.5.<.e & - - & - & & - - & - ; ; ; m z.B.E.tXuXaXpXuXtX6X3X$Xp.w.r.*.*.=.r.}.=.=.|.|.|.|.|.|. X Xr.w.",
"' r.|.w.r. X|.|. X X}.r.}.}. X X X=.' e.n.U.,X3X6XuXiXE.C B C z w - q * - - - - - & - & - p ; m z.v.R.tXpXaXaXpXtXtX3X$Xp.*.*.*.r.r.r.r.w.r.}. X X X X X X Xr.=.",
"=.r.w. . .}.r.|.|. . . .'  .|. X X|.}.t.n.U.,X3XiXsXiXE.C B Z v w - * w * - - - - & & & - ; p m 5.m.Q.iXaXpXtXtXuX6X,X$Xp.=. X X|. X|. X X X X X X X Xr.w.|.}.=.",
"' r.}.w.w.w.w.r.r. .r.r. .' }. X X X X|.n.P.>X3X7XiXpXQ.<.C C v w % * * - - - - & - & & - ; p n 5.B.&XpXaXiXpXtXiX6X3X@Xp.w.|. X X X X|.}.|.|. Xr.r.}.r.' w.=.=.",
"' r. X}.r.r.r.w.w.w.r.|. .' }. X X}. XXXn.U.>X3X6X7XsX&X1.C C v w % % * & & - & - & - & - ; p m 1.v.&XpXpXpXpXaXiX6X2X@Xp.y.&. X X X X|.w.}.|.|.=.' r.}.r. .*.*.",
"=.r.}. X X X|.|.}.w.*.' ' w. X|.}.}.|.XXn.L.>X3X6XuXiXW.<.V C N w % - - & & - & & - & - - - a n 1.v.Q.pXaXpXtXtXtX6X3X#Xd.|. Xt.r.|. X X X X X X X X X X Xr.=.=.",
"*.r.|. X X|.|.|. X|.r.=.r.}. X X}.r.}.XXn.L.;X3X6X7XuXW.<.M C 3.z & - - - - - - - & - & - ; a n <.x.E.iXpXpXpXtX6X4X3X#Xa.r.r.|.|.|.t.}.|.|.|.|. X|.|. X X}.r.=.",
"*.=.|.|.}.|.|. X X X X X X X X X|.w.=.u.n.L.;X2X4X6XiXW.<.m 3.7.l % ; - - & & - - - - - - p a x V v.Q.tXiXpXaXtX4X2X,X@Xp.9.w. X Xr.r.w.w.w.w.r.r.*.*.|. X|.=.=.",
"*.=.r.|. X X}.r.}.|. X X X X X}.r.r.' 9.2.D.;X2X4X4X7XR.C z N V.v % - - & - - & & - = - - ; a c B v.Q.tXaXpX7X5X4X,X=XL.q.w.|. X|.w.w.r.r.r.w.w. .*.r.|.|.|.=.' ",
"*.=.}.|.|.|.r.r.r.}.r.w.|. X|.r.r.|.r.0.2.D.=X;X3X4X6XI.C z <.C.v % * - & % $ % & = = = - p a z B v.E.tXpXuX6X6X7X;XU.N.q.=. X Xt.*.' w.w.w.w.' ' ' }.}.}.}.=.' ",
"' r. X Xr.' w.r.|.}.w.w.}. X|.|. X X Xu.n.H.U.$X,X4X6XP.V s Z S.v % - * = - i $ = = & - - p a z m z.R.tXuXuX4X6X3X$XH.7.p.|.|. X|.*.w.*.'  . .' ' *.|.}.}.}.=.' ",
"*.r.|.}.w.` ' w. X X X|.|.|.}.|. X X X Xs.A.U.$X;X2X6XE.<.z <.C.N % & & i { k.f.j = & & - w a s m z.T.4X7X6X4X,X$XL.L.F.a.|. X X X|.*.` ' ' w.r.=.}.}.}.|.|.}.=.",
"*.=. X}.}.r.' }. X X|. X X|.}.|. X X Xt.2.m.U.-X=X=X2XI.3.v N C.v % & i g.9XdXrXOXh.i = - - a z m 6.K.1X3X2X,X!.L.L.U.L.u.=.=. X X X}.=.w.r.}.|.|.|.}.}.|.|.}.*.",
"' }. X X X X|. X X}.r.w.}. X X X X X|.t.>.b.U.-XW.L.=XL.3.x B C.v % - g.+XfXgXgXfX0Xh.g = q p s m 6.H.$X-X$X>XL.A.I.H.s.e.' w.}.|. X X X X X X X X X X}.=.}.=.' ",
"' ' }. X|.r.}. X|.}.r.w.}. X X|.|.r.r.w.*.s.D.U.$X*X*XH.5.x M C.v = g.8XwXeXdXdXeXwX0Xj.f.q w s n 3.S.U.L.K.$XU.S.D.6.2.t. X|.=.}. X X X X X X X X|.}.}.}.=.' ` ",
"' =.}. X}.=.}.|.|.}.r.w.}.|. X}.r.r.r.r.}.q.6.D.L.!.U.A.<.m B 7.z = f.8XqX9X8X8X+X9X9Xj.j ; p s n 3.A.U.K.D.U.L.A.c.2.>.|. X|.=.}. X X X X|.}. X X}.}. X X}.' ' ",
"' }. X X}.}.=.}. X}.' =.=.w.' =.r.|. X X}._ ;.6.A.D.H.z.n M Z A p % q k g.f.k k k f.f.i - ; p s b 5.A.U.U.L.S.m.c.6.,.*.r.w.*. X|.}. X X Xr.=.}.}. X X X X}.}.' ",
"' =.|.}.}.}.}.}.}.}.=.*.}.|.}.}.|.|.|.r.}.r.w.>.2.s.A.6.z v C Z z ; p a d d d p p d d a a a p s c C 6.S.A.A.A.6.;.>.$.9.r.|.|.|.}.r.|. X X}.r.|. X X|.=.}.|.}.}.",
"' =.}.}.}.}.|.|.r. X Xw.}. X X}.|.|.r.*.r. X|._ ! 6.6.<.z z v Z Z A l.l.4.l.l.l.A A l.Z Z B s e c M <.6.6.6.s.,.} _ ' w.r. X Xr.w.w.}. X X}.}. X X|.}.=.'  X}.' ",
"' *.=.}.}. X X X X X X Xr.=. X|.|.|.|.t.|.|.r.' *.*.! [ s s x Z Z.!.W.!.!.!.!.Y.Y.Y.J.m.c.l.n s x M ;.;.;.! 9.w.w.|.|.|.|.r.r.' w.}.}.|. X X|. X}.}.r.}. X X .` ",
"' ' =.' r. X}. X X X X}.w.r. X X X X|.|. X|.r.w.=.=.$._ ! ! ;.>.d.N.M.d.n.M.x.M.M.M.s.i.i.2.>.! >.8.8.8.| ` r.|.|. X|.|. X|.r.=.}.}.r.r.r.r.}. X X X}.}. X X' ) ",
"' ' ' ' =.}.=.|. X X|.=.=.|. X X|.|.|.}. X X}.r.|. Xr.r.*.*.*.*.' ' ` ` ` ` ) ) _ _ ) ) ` ' =.}. X X|.=.r.|. X X X|.t.}. X X}.r.}. X}.w.r.=.r.|. X X}.|. X X' ` ",
"=.*.' ' ' ' }.}. X|.}.}.=.}.|.}.w.w.=.=. X X X}.|. X X X|. X X=.' ' |. X|.}.}.|.}. .' ' ' ' }.}.|.|.|.|.r.r.|.r.w.w.w.r. X X|.}.}.|. X X}.|. X}.*.=. X X X}.}.' ",
"` ` ' ' w.' r.' ' ' =.*.=.=.w.w.w.w.=.w.w.r.r.r.r.r.}.r.r.r.t.=.` ` }.r.' ' }.}.}.' ' ' w.*.w.=.*.*.*.=.=.w.=.w.w.w.r.r.=.r.r.}.}.r.}.r.r.r.}.w.` ` =.=.' ' ' ' ",
") _ ' ' =.w.' ' ' ` ` ' =.' ` ' =.=.=.w.` ` *.r.*.' ' ' *.' *.=.` ` ' ` ) ` ' ' ' ' ' ' *.w.*.` ` ` ` ' *.' ` *.w.w.=.*.' ` ' =.=.' ' ' ' ' w.w.` ` ' ` _ _ _ ) "
};
