/* XPM */
static char *__resized[] = {
/* columns rows colors chars-per-pixel */
"80 80 228 2 ",
"   c #0B0906",
".  c #0D0C0A",
"X  c #110E0B",
"o  c #0E100A",
"O  c #16180A",
"+  c #191714",
"@  c #231614",
"#  c #271917",
"$  c #291917",
"%  c #271A18",
"&  c #291B19",
"*  c #301F1D",
"=  c #1A2506",
"-  c #1D2B07",
";  c #17210A",
":  c #1C2509",
">  c #1E2C08",
",  c #1F3007",
"<  c #1D2611",
"1  c #20290A",
"2  c #202E09",
"3  c #233409",
"4  c #29340F",
"5  c #263B0B",
"6  c #293E0B",
"7  c #272718",
"8  c #33211E",
"9  c #3B2E1A",
"0  c #2C3412",
"q  c #293914",
"w  c #373919",
"e  c #262A24",
"r  c #2A2C26",
"t  c #282928",
"y  c #352421",
"u  c #3A2622",
"i  c #3C2B23",
"p  c #39282A",
"a  c #2C3827",
"s  c #3A3923",
"d  c #293739",
"f  c #323434",
"g  c #333739",
"h  c #41391C",
"j  c #412E25",
"k  c #432F28",
"l  c #453126",
"z  c #463329",
"x  c #473728",
"c  c #4A352A",
"v  c #4D392C",
"b  c #523A2D",
"n  c #573B2D",
"m  c #4B3B30",
"M  c #533C31",
"N  c #553835",
"B  c #5A3B32",
"V  c #613E38",
"C  c #2B430B",
"Z  c #2E4A0D",
"A  c #314E0D",
"S  c #34540E",
"D  c #365A0F",
"F  c #395D0F",
"G  c #2B4611",
"H  c #2D4914",
"J  c #374817",
"K  c #2F5316",
"L  c #345511",
"P  c #395412",
"I  c #375911",
"U  c #395C10",
"Y  c #3A571C",
"T  c #355C18",
"R  c #3C620F",
"E  c #3F680E",
"W  c #3C6311",
"Q  c #36631A",
"!  c #39651B",
"~  c #3D6D1D",
"^  c #3F711F",
"/  c #2F4026",
"(  c #354826",
")  c #3A5726",
"_  c #3D6623",
"`  c #3F7220",
"'  c #41471A",
"]  c #41660C",
"[  c #426B0F",
"{  c #46710E",
"}  c #4B740E",
"|  c #4D7C0F",
" . c #507E0F",
".. c #426A11",
"X. c #446A18",
"o. c #477515",
"O. c #4B7912",
"+. c #41751F",
"@. c #43791F",
"#. c #507D13",
"$. c #494828",
"%. c #465825",
"&. c #515829",
"*. c #474532",
"=. c #5B4335",
"-. c #5A4736",
";. c #5B5636",
":. c #674736",
">. c #62433B",
",. c #644B3B",
"<. c #6C4C3B",
"1. c #734E3C",
"2. c #68563C",
"3. c #73513B",
"4. c #7A5338",
"5. c #7B553C",
"6. c #456725",
"7. c #426D24",
"8. c #536A2C",
"9. c #427620",
"0. c #4B7426",
"q. c #457C21",
"w. c #4A7D24",
"e. c #497528",
"r. c #54782B",
"t. c #5B6333",
"y. c #5A7231",
"u. c #5E7932",
"i. c #69663D",
"p. c #617D34",
"a. c #343D42",
"s. c #374E46",
"d. c #3A594C",
"f. c #316664",
"g. c #4E5647",
"h. c #6F4941",
"j. c #6C5341",
"k. c #6A5B46",
"l. c #725745",
"z. c #785946",
"x. c #735B49",
"c. c #6B6B40",
"v. c #756A42",
"b. c #77634A",
"n. c #7D7246",
"m. c #7A6651",
"M. c #825A3E",
"N. c #895D43",
"B. c #845D51",
"V. c #83654C",
"C. c #88684C",
"Z. c #976748",
"A. c #84754B",
"S. c #856B55",
"D. c #8B6D52",
"F. c #91665C",
"G. c #8C7355",
"H. c #947455",
"J. c #95765C",
"K. c #95795C",
"L. c #9A7B5B",
"P. c #A36F4C",
"I. c #A5724C",
"U. c #AA754D",
"Y. c #B47C52",
"T. c #9B6D63",
"R. c #8F7964",
"E. c #947761",
"W. c #967A64",
"Q. c #9A7C65",
"!. c #9A7E69",
"~. c #A27966",
"^. c #53820F",
"/. c #578A0F",
"(. c #518717",
"). c #568812",
"_. c #5D9111",
"`. c #619611",
"'. c #669D12",
"]. c #6BA411",
"[. c #6EA912",
"{. c #71AB11",
"}. c #76B513",
"|. c #478022",
" X c #498423",
".X c #4C8A24",
"XX c #55832A",
"oX c #58872C",
"OX c #4F8E75",
"+X c #9C855A",
"@X c #A4875E",
"#X c #BC8353",
"$X c #9C8061",
"%X c #9D816B",
"&X c #A38363",
"*X c #A88662",
"=X c #A58D62",
"-X c #AC8A63",
";X c #AA896A",
":X c #B18E69",
">X c #B3916D",
",X c #A78A73",
"<X c #AB9070",
"1X c #B69472",
"2X c #B99674",
"3X c #BB9877",
"4X c #B6967C",
"5X c #BC9B7C",
"6X c #C48857",
"7X c #C09E7E",
"8X c #4F9E80",
"9X c #629786",
"0X c #54A48C",
"qX c #54AA94",
"wX c #7DAD97",
"eX c #6CCFA9",
"rX c #76E5B6",
"tX c #B69A80",
"yX c #BE9E81",
"uX c #BEA286",
"iX c #C09F82",
"pX c #C2A285",
"aX c #C5A689",
"sX c #C7A88B",
"dX c #C8A98C",
"fX c #8EE2BF",
"gX c #8BF0C6",
"hX c #BCF8DB",
/* pixels */
"K Q +.~ ^ ^ ^ ^ ^ ~ ~ @.^ ^ @.^ ^ ` @.+.~ ~ ^ q.q.+.@.@.` ~ ~ ~ ` 9.q.~ ^ q.+.~ Q ! +.~ ~ ^ ^ ^ +.~ ~ +.e.` ` |.` ` q.` ` _ ^ q.q.^ +.9.^ ~ ~ ~ +.9.9.~ ^ @.~ Q ",
"! ~ +.+.^ q.^ ^ ^ ^ ^ q.q.@.@.^ ^ q.` ^ ^ ^ ^ ` ^ ^ ^ ^ ` 9.q.q.q.q.9.~ ^ q.q.q.q.9.+.+.+.q.^ ^ ^ ^ ^ q.6._ ` ` ` ` ` ` ` ` ` ^ +.^ ^ ^ ~ 9.q.q.q.q.9.~ ^ q.+.! ",
"q.+.+.q.|.q.^ ^ @.@.q.|.q.q.q.q.` q.` ` ^ q.q.q.` ` ^ ~ 9.|..X.X X X+.~ ^ q..X.X.Xq.9.q.q.q.` ^ ^ 9.@.q.) ) 9.9.` ` ` ` ^ ` |.` 9.` ~ ~ 9.|..X.X X|.9.~ +.q.@.@.",
"+.@. X.X X|.9.9.@.^ ^ |. X X.X.X X|.` ` q. X.X|.|.|.|. X|.|.|. X X X X+.q.|.|.|. X X X X X|.q.^ q.+.9.w.) )  X.X.X.X` ` |..X X.Xq. X X X|.|.|..X.X X|.q.+. X@.^ ",
"~ +.|. X X.X X|.|.q.q.|..X.X.X X X X|.|..X.X.X.X.X.X.X.X Xq.q.q.q.q. X Xq.q. X X|.q. X X X.X X|.|.q.q.|.e.7. X.X.X X X X.X.X.X.X.X X.X.X.Xq.q.q.q.q..X Xq.w.q.^ ",
"+.+.^ ` |..X.X.X.X X|.|..X.Xq.q.|..X.X.X.X.X.X.X.X.X.X.X Xq.q.9.` `  X.X Xq.|..X|.q.9.` |..X.X.X X X|.|..X.Xq.q.|. X.X.X.X.X.X.X.X.X.X.X Xq.q.q.~ 9.|..X Xq.9.9.",
"~ ^ ` q.q.q.q.q.q.9.` q.q.q. X X X Xq.q.q.q.q.|. X.X.X X Xq.9.q.~ ~  X.X.Xq.9.q.q.q.9.q.|.q.q.q.q.q.9.q.9.q.|..X X Xq.` q.|.|. X.X.X.X.X X9.+.@.~ +.q..X.Xq.~ ! ",
"~ X.9.|.q.+.9.9.` ` ` ` ~ ` q. X.X|.q.` q.q.q.9.q..X.X.X.X|.|.|.9.q. X.X X9.^ ^ q.q.9.q.q.9.` ` ^ ^ ^ ` ` ` q.|. X Xq.q.q.` q.` q. X.X.X X Xw. Xq.9. X.X X9.~ ! ",
"~ ^ @.q.q.^ ` ` ^ ` ^ ` ` ^ ~ q.|.|. X.X.Xq.@.^ @. X.X.X.X.X.X.X X X.X.X X` 9.|.q.q.` q.q.~ ` ` ` ` ` ` ` ` ` `  X|..X.X X` ` ^ q. X.X.X.X.X.X.X X|..X.X X^ ~ ~ ",
"~ ^ +.q.q.` ^ ` ~ ` ` ~ 9.q.` q. X X.X.X.X Xq. X X.X.X.X X X.X Xq.9.9.|. X|. X Xq.q.9.q.q.q.` ~ ` ` ` ` ` |.` |..X|. X.X.X.X|..X.X.X.X X X X X Xq.` q. X X|.q.+.",
"^ ^ ^ |. X|.` ` 9.q.q.q.q. X X.X.X X.X.X.X X X.X.X.X.X.Xq.w. X X` ~ ` q..X X X.X|.q.9.|..X|.` ` ` ` ` |.|.|. X.X X.X.X.X.X|. X.X.X.X.X Xq.q. X X9._ ~ q..X Xq.@.",
"@.+.q..X.X.Xq.q.|..X.X.X X X.X.X.X|. X.Xq.|..Xq. X.X.X|.+.|..X.X9.~ 9.|. Xq.q. X.Xq.+..X.X.Xq.q.|..X.X.X|. X.X.X.X|..X.X` |..X|. X.X.X X+. X.X.X` ~ ^  X.X9.+.9.",
"~ ^ +.|..X.X.X|.` q. X.X|.|..X|.q. X.X.X X.X Xw..X.X.X.X X.X.X.X|.q. X.X.Xq.q. X|.q.9.q..X.X.X|.` q.|..Xe.e. X Xq. X.X.X.X.X.X X X.X.X.X X X.X.X Xq. X.X.Xq.+.~ ",
"~ ^ q.q. X.X.X X9.` q..X|.q..Xq.q..X|.q..X.X.X X X X.X.X.X.X.X X.X.X.X.X X|. X Xq.q.q.q. X.X.X|.` q.` e.) _  Xe.q..X|.|..X.X.X|.|..X.X.X.X.X.X.X.X.X.X.X X|.9.+.",
"+.@. X X.X.X X X.Xq.q..X|.|.|..X X X9.^ q..X.Xq.+.q. X X X.X.X|.q.q.q.q.w. X.X.X|.q.|..X.X.X X X.Xq._ / ) e.|..X.X|.` ^ q. X.Xq.9.q. X X.X.X.X|.q.q.|.|.|. Xq.+.",
"^ @..X X.X.X X X.X.X X|. X X X.X.Xq.^ ~ +.q.q.+.+.q.q.q.q.q. X Xw.|. X` ! o.o.! ~ q..X|. X.X.X.X X_ / ) 7.|. X.X.X@.^ ` ` q.q.^ ` q.q.q.q.q.|..X X|.|. X X.X|.q.",
"^ @. Xq.q..X X X.X.X|.q.q.|..X.X.Xq.9.9.9.9.q.` q.q.q.q.9.q. X.X X X Xo.{ ^.} ..X.(..XX.9..X X Xe./ d 7.q.|..X.X.Xq.+.+.9.9.q.9.9.q.q.q.q.q. X.X X.X.X X X.X X@.",
"@.@.9.^ +.q.q.|.|.9.` ` ` 9.|..X.X X Xw.q. X X.X X.X X.X.X.X.X.Xw.o.#.'.}.[.].[.}.'.O.T Q q.q.e._ / a ` ` 9. X.X.X X Xq.q. X.X X.X.X.X X.X.X.X.X.X.X.Xq.q.|.q.@.",
"+.q.q.9.+.9.q.q.q.9.9.q.9.` q..X.X.X.X|.q.q. X.X.X.X.X.X X X@.! (.'.'.[.}.].].].}.}.'._.o.! 9.7.) ( ) q.^ ` |..X.X.X X Xq.q. X.X.X.X.X.Xq. X X.Xq.q. Xq.+.9.q.+.",
"~ q..X Xq.q.q.q.9.q.q.q.9.` q..X.X|..X|.q.q.|..X.X.X.Xq.~ @.o.U `.}.}.].`.^.| ^.].{.[.}.`.F ! ) a ) e.|.9.^ |. X.X X.X Xq.q. X X.X.X.X Xq.q. X Xq.+.q.q.q.^ +.@.",
"q.q. X X.X.X|.|.|.q.` ` ` q..X.X|.q. X.X.X.X.X|. X X.X+.Q O._.[.[.].].].^.D D { ^.^.^.)./.^.P 0 t ) 9.~ ~ q..X.Xq. X X.X.X.X.X X|. X X.X.X.X.X.X.X.X.X.X Xq.@.@.",
"+.q. X.X X.X X.X.X Xq.q.q.q..X.X Xq.|. X.X Xq. X.X@.+.X.{ _.{.}._.o.] { { U R [ { [ E Z ] /.#.Y e / _ q.q.|..X.X Xq.|. X X Xq. X X|.|.|. X X X X.X X X.X.X X@.@.",
"^ @..X X X|.|..X.X.X.X.X.X.X.X.X Xq.q.q.q.+.9. X.X@.~ o./.].{.'.| Z - C E E E { { ] S , A ).'.X.e a ! @. X.X X.X X9.q.q.q.+.9..X.Xq.q.q.` q.q.q.@.9.9. X.X X@.+.",
"+.@.w.|..X.X|.q.|. X.X X.X.X X|.q.q.9.+.+.q.|. X+.R )._.| ^._.[.| D S D D L R R { ] D Z U #.#.) e K X.L ! @. X|.q.q.9.` 9.q. X.X X` ` 9.q.q.` q.+.+.q.w. X X@.+.",
"+.@.|. X X|.q.q.q.|.q.q. X.X.Xw.q. Xq.q.q.|.|.+.R ]  .| R R | '. .] ..U I R W W E W W U [ | X.J e ( Y A W o.~ ^ q. Xq.q.q.w. X.X|.` ` q.q.` ` ` ^ ^ |.|.|.|.@.^ ",
"^ q. X.X|.^ q.q.|.|.q.` q..X|.|.|..X Xq.w. X@.U R { F A C S E ).| ..R F D [ E F U U F R [ | U H e r a U | } S ! |. X X X.X.X.X.X X` ` ^ ^ ^ ^ ^ ^ ^  X X|. X@.^ ",
"^ q. X X@.~ ^ @..X.X X X.X Xq. X.X.X.X XW X.O.R D R I A 5 Z ..^.[ F U ..[ F C 5 5 Z R [ ..W Z q r t a P { O.{ D Q  X.X.X.X X.X.X.X X9.~ ~ ` 9.q.q.q.|.|. X.X|.^ ",
"+.q. X Xq.q.^ @..X.X X X X.X|..X.Xq.@.X.L U ..U I I I A 6 C S { W L I ] [ S Z C C S R ] W S Z q e t t J Q { | E R o.q.q. X Xq. X.X.X|.q.q.q.|. X X X X|.|. X|.@.",
"^ @. X.X.X.X X.X.X Xq.q.|..X.X.X|.Q T D I I I L F R U L S 5 6 I I I D F R W R E F R R R U L H G 7 r f e H L W { O.[ U T @.@.+.|..X.X X.X.X.X.X.X.X.X.X X|.|.@.^ ",
"~ @.|..X Xq..X.X X|.q.` |..X.X.X+.H C A I I I W [ [ W I S S S I I U ] R U R P J P F R E L 4 1 O O t g f e < q L ] R U ..+. X Xq.|..X.X.X.X.X.X.X.X X@.|. X` ^ ! ",
"^ @. X.X|.+.|. X X|.q.` q.|. X9.Q G 6 Z D I I ] [ [ ] U D P D U F F ] R F F J j J J L W Z ; + .   % g g + . ; q L A S F T ~ q.q.|. X.X.X.X|. X X X|.|..X.Xq.^ ^ ",
"+.|..X.X X|.@.|..X|.` q.q.q.` T Z Z C Z S I S I I I I I I A Z D U U D F F F ' j 9 w J L q O + X   + t f +   o 4 L C C C 6 G L @..X|..X.X.X@.q. X X.X.X.X.X.X@.@.",
"^ q. X X|.q.|. X|.|.q.` |.q.T G C C C C S S S S S Z 6 A S A A S P S A S F F &.n h w S F 3 X + +   . + + o . + + , C C C 3 3 C Z Q 9.|..X.X|.q. X.X.X Xq.q..X X@.",
"^ +.|.|.|.|. X X|. X|.q. X+.G 5 5 6 6 C S A Z S Z 6 5 C S S S S P J S S F F &.n h A D F C O @ +   . X o o O e + ; 6 Z C 5 3 5 , 6 T 9. X.X X|. X.X X|.+.^ .X|.^ ",
"~ +.q.q. X.X.X.X.X.X.X.Xq.T 3 3 3 - 2 5 C Z C C Z Z S S S D D S $.n F D S P w 9 S D S D P C 7 < > O X + < < < 3 q C Z 6 5 3 3 3 3 C Q q..X.X X.X X|.|.|..X.X` ~ ",
"^ +.^ q.q. X X X.X.X.X|.T C 3 3 3 2 3 5 C C C C C C A A Z Z A D h h A Z C Z 6 5 S A 6 S S A 5 5 G q 2 3 5 5 q 5 C C C 5 3 3 3 3 3 3 C Q q.q.|..X.X X|.|..X.X` Q ",
"^ ^ ^ ^ q.q.q.|..X.X X^ G > 3 5 3 3 5 6 5 6 C C C C C C 6 C C S 6 9 6 C C C C C S C 5 Z Z C C C C C Z C C C C C C C 3 3 > 3 3 3 3 , - C Q ^ |. X.X.X|. X.X.X^ ~ ",
"@.^ ^ +.` ` q. X.X Xq.T G 3 3 3 3 5 3 3 5 6 C C 5 6 C 6 6 C C Z Z 6 C C C C C C Z C C C C C C C C C C C C C C C 6 3 - = > , 3 3 3 > 3 - 5 ^ .Xq.+.@..X.X.X|.|.^ ",
"+.@.@.q.|.q.|.|.|.|.~ G 3 , 3 5 3 5 2 2 3 6 6 5 5 6 3 3 6 C C C Z C C C C C C C C C Z C C C C Z C C C C C 6 5 5 5 3 3 - , 3 5 3 , > - = , ^ .X X^ +..X X@.q.^ q.",
"^ +.|. X X.X|.q.q.q.Q , > > , , 3 3 2 - 3 3 5 3 5 5 2 3 6 C 5 C 6 C C C C C C C C C C C C C C C C 6 3 C C 5 , 3 3 3 3 3 3 3 3 - > > , 5 H ^  X.X@.@. Xq.^ @.@.^ ",
"Q +. X Xw. X X X X|.Q 5 , > = > 2 3 3 2 = - 5 3 3 3 3 3 3 5 5 5 2 1 2 5 6 C C 5 5 5 C C C C 5 3 5 3 - - 3 3 3 3 3 3 2 3 3 2 - = : 3 q K ^ |.|.|. X X.Xq.|..Xq.~ ",
"~ +.q.q.q.|.q.@.q.q.^ T G , : > 2 2 3 2 - - 2 3 3 3 3 3 3 3 3 3 1 1 2 3 5 5 5 5 2 3 5 5 6 6 5 3 2 > - - 3 5 3 3 3 3 2 - - 2 - = 3 G K Q q.|. X X.X Xq.q.q..X|.^ ",
"@.@.9.q.|.q.^ ^ ^ ` q.q.Q H 5 , 2 - - - 2 2 2 3 3 3 3 3 3 3 3 3 5 3 3 3 3 3 5 3 - - 3 5 3 3 3 3 - - 3 3 3 3 3 3 3 3 2 = = , 5 3 G Q ~ ~ ^ |..X.X.X|.^ ^ ^ q.q.@.",
"+.+. X.X X|.+.+.q.9.` |.q.` Q H 5 - - - , - = - - - 3 3 3 3 3 5 3 3 5 2 - 3 3 3 2 3 3 3 3 3 3 3 3 3 3 3 5 3 - : - - 2 - = 5 S ~ q.q.|. X X|. X X X X X@.^ |.@.^ ",
"^ 9.|.|. X.X X|.|.q.q.|..X.X` _ T L L H 5 2 1 1 - - - - , , , , 2 2 2 2 2 3 5 3 5 3 2 3 3 3 3 3 3 - 3 - , , : : 1 q x J G L `  X.X.X.X.X Xq.q.q.q.q. X Xq.q.q.^ ",
"^ ^ 9.9.|..X.X.X X|.|. X.X Xq.q.q. X Xq.$.x x w q G 4 4 q > > : - - - 3 3 3 3 3 3 2 , 3 3 3 3 2 = = : - > > q q s -.x.b.8.9..X.X.X.X.X.X Xq.9.q.^ ^  X.X Xq.` q.",
"~ ^ +.q.q.|.q.q.q.q.` ` q.q. X.X.X|.q.0.i.S.K.G.m.m.b.k.;.s ; : = - 3 3 3 - - - - - - - - 1 - 1 - > 7 w s m k.m.S.!.;XQ.y.9.|.|..X.X.X.X Xq.@.q.^ ~ q..X.Xq.^ ! ",
"~ ~ 9.|.q.^ +.9.` ` ` ` ` ` q.|..X|.q.w.A.&X5X5X4X<X,X,XW.m.;.8 w h 1 1 = O = O O = = O 1 1 0 w *.*.;.x.m.S.,X,X<XtX3X=Xy.9.9.q.q. X.X.X X Xq.w.q.q. X.X.X` ~ ! ",
"~ ~ +.@.q.^ ^ ^ ^ ^ ` ` ^ ^ ^ q. X|.|.oXA.&X5X5X5XyXaXaXyXpX!.h.l.<.& O X O o O O X X + 7 i v k.W.%X,XtXiXiXiXyXyXtX2X@Xu.9.+.+.q. X.X.X.X.X.X.X.X X.X.X X` ~ ^ ",
"~ +.@.@.q.@.^ ^ ~ ^ ` ~ ` q.` q. X|. X.Xn.&X3X5XyXaXuXaXaX,XS.S.z.,.& @ @ # # @ @ + @ # y z M m.<XtXtXuXdXdXaXiXiXyX3X@XoX0.q. X.X.X.X X X X X Xq.+.9. X.X|.` ` ",
"~ +.@. X.X|.+.^ 9.q.q.q.q. X X.X.X X.XoXn.&X5X3X7XaXpXaXiXS.l.D.j.M c u * * & & $ @ & & y k =.x.W.4XiXiXaXaXaXiXiX5X3X*Xp.w. X.X.X.X.X Xq.q. X X9.~ ~ q..X|.q.q.",
"@.+.+..X.X.Xq.q.|..X.X.X X X.X.X.X X XoXn.&X5X5X3X7XaXaX4Xm.,.z.=.b <.c @ @ $ & $ @ & $ & u >.,.h.&XiXiXaXaXiXiXiX5X7X@Xy.q. Xw. X.X.X X+. X.X.X9.~ 9.|..Xq.` ` ",
"~ +.+.w. X.X.X|.` q. X.X|.|..X|.q..X.XXXn.$X3X5X5XyXsXyX!.j.v M <.3.v 9 & $ $ $ $ $ $ & $ * c B =.W.iXaXiXiXaXiX7X7X7X=Xu.w..X X X.X.X.X X X.X.Xw.q.|..X.Xq.9.X.",
"~ +.q.@. X.X.X X` ` q..X|.q..Xq.q. X|.e.v.$X3X3X5XuXsX<Xm.-.x c N.Z.B j 8 $ $ & $ $ & & $ * u c ,.R.tXaXaXiXaXiXpX5X3X=Xp.w..Xw. X X.X.X.X.X.X.X X X.X.X X|.9.+.",
"~ +. X.X.X.X X X.X|.q..X|.|.|..X X Xq.6.v.L.3X5X5XyXsX%X-.h.-.B M.P.I.3.l * # & # & & & * * * c j.S.,XyXiXiXiXiX5X5X3X@Xp.|..X@.+.q. X.X.X.X Xw.q.q.|. X|.|.q.9.",
"+.q..X X X.X.X X.X.X X|. X X X.X.Xq.^ 7.v.L.1X3X5XyXaXW.M -.j.5.B 1.Y.C.c 7 # # & & # $ * * * c j.m.!.tXiXsXiXiXyX5X3X&Xy.9.q.^ ^ q.q.|.@.@. X X X|. X X.X.X|.q.",
"^ q. X9.q..X X X X.X|.q.q.|..X.X.X@.^ 0.v.L.>X3X5XiXpXE.b b <.Z.c l U.M.n * $ $ % $ & % & * * c j.m.E.yXaXsXsXaXyX5X2X@Xy.9.9.q.q.q.w.q.9.q. X.X.X.X.X.X X.X|.+.",
"9.9.q.` 9.q.q.w.|.q.` ` ` 9. X.X.X X Xw.v.K.:X3XpXdXaXE.n b 3.C.n j M.4.x * $ $ & $ % % $ * y z ,.b.!.pXsXaXyXyXpX5X>X+Xy.o..X.X X X|..X.X.X.X.X.X.X.Xq.q. X|.@.",
"+.q.|.9.9.q.9.q.q.` 9.q.` ` |..X.X.X.Xr.v.L.:X3X7XpXsX!.=.m 3.Z.n j M.:.x & @ @ $ & $ % & * u z -.m.%XaXsXpXaXyXpX5X1X+Xy.0. X.X.X.X.X.X|. X X.Xq.q.|.q.^ q.@.@.",
"~ q..Xq.q.q.q.q.9.q.q.|.9.9.|. X.X X XXXv.H.:X3X5X7XsX%X=.M 3.Z.n j M.V l * & & $ % $ % & * u z >.x.%XaXaXaXaXaXpX5X1X@Xy.9. X|..X.X.X.Xq.q. X Xq.^ q.q.q.^ ^ @.",
"q.q.|..X.X.X|.|.q.9.9.9.` 9. X X|.|..X Xv.H.:X2X5XiXpXQ.=.c <.P.n l M.:.j $ & & % $ $ % & * u z -.x.Q.aXsXaXpXyXyX5X2X@Xp.w..X X|..X|..X.X.X.X.X.X.X.X.X.Xq.@.@.",
"^ q. X.X.X.X X.X.X Xq.q.9.|..X.X Xq.|.XXv.H.-X2X5X5XpX!.=.c <.Z.:.:.U.3.j $ @ & $ % % % & & u z M x.!.uXaXaXaX7X5X3X1X+Xu.q.q. X X|.|.|. X X X|. X X X.X.X Xq.@.",
"+.q..X X|.|. X.X.X.X.X.X.X.X.X.X.X^ @.e.v.H.-X2X3X5XiXQ.=.x <.Z.5.5.#XM.j 7 & & % % % % & 8 u l v x.!.yXuXaXsXyX3X3X:X+Xy.7.+..X.Xq.q.9.9.9.q.q.q.9.+. X.X|.@.@.",
"+.@.@.|..X.X|.q.|. X.X.X.X.X.X|.q.@.@.0.;.C.-X>X2X5X7XE.n l :.P.Z.Z.6XM.u & $ $ % % % % & 8 u l m l.!.yXaXaX7X4X3X:X*XH.8.9. X.X|.9.9.q.q.q.9.9.^ +.q. X|. Xq.^ ",
"+.@.|. X X Xq.q.q.|.q.q.|..X.Xq.q.|.q.e.2.A.@X-X1X3X7XJ.b i :.P.P.U.6XM.8 $ @ $ $ % % % & y u k b l.!.yXaXiX3X5X3X:XL.b.8.w..X.X X~ ^ 9.q.9.9.` ^ ` |.|.q.|.@.^ ",
"^ @..X.Xq.^ q.q. Xq.q.` |. X|. X.X.X Xr.v.D.L.@X>X3X7XE.b i =.Z.Y.#X#XM.i * e y & % % % & * u k v j.W.tXiXiX3X5X4X#XC.v.r.w..X.X X9.9.^ ~ ` ^ ` ^ +. X X|.|.@.^ ",
"+.q. X|.q.~ ~ q..X.X X X.X X|.|..X.X.XXXi.V.L.@X-X2X5XE.B j n N.P.#X6X4.l s.d.d.t % $ $ & * u j x j.E.3X7X5X3X>X@XH.H.A.u.w. X.X.X X9.^ ~ ^ 9.q.@.q.|.|. X X|.@.",
"+.q. X Xq.q.^ q..X.X.X X X X|..X.X.X.X|.;.b.L.=X*X&X1XJ.-.j c N.P.Y.6XM.*.9XwXwXOXd.t % $ * 8 j x j.G.<X2X2X>X~.H.H.L.A.r.@.q. X.X.Xq.q.q.q.|. X X X X|.|..Xq.@.",
"^ @..X.X.X.X X.X.X|.q.q. X.X.X.X.X X Xq.&.k.K.;XL.H.@XH.,.k c h.Z.Y.6X4.g.fXhXhXgXqXd.t % * u u x <.D.@X-X@X-XH.n.J.D.i.e.^ +. X.X.X X.X.X.X.X.X.X.X.X|.q.|.@.^ ",
"^ ^ |..X|.q. X.X X|.q.9.|..X.X X|.q.q.q.7.p.C.L.&X&X&XD.,.z c 1.N.U.6XM.g.eXgXgXrXeXqXf.d t u u x <.C.L.G.G.-XL.C.C.l.;.w. X X@.q..X.X.X.X X.X.X.X X|.|. X@.^ ~ ",
"^ ^  X.X|.@.|. X.X|.q.q.|. X X|.q.|.q.q. X8.2.V.L.~.L.m.=.c b :.h.Z.Y.4.z OX8X8X8X0X0Xf.d 8 8 i x ,.V.L.D.C.L.H.V.x.;.%. X.X X@.|..X.X.X.X|.|..X.X|.q. X.Xq.^ ~ ",
"@.|..X.X Xq.q.|..Xq.^ ^ 9.q.@.@.q. X.X.Xw.! $.2.V.C.D.l.z v V V >.h.Z.>.u f d d g s.a.t & 8 y i x -.V.L.L.H.D.b.l.<.8.X.w.9.+. X X|..X.X.Xq.q. X X.X.X.X.X X|.@.",
"^ @..X X|.q.|.|.|.|.q.+.|. X|.q. X Xw.q.|.q.9.%.;.5.V.<.j z M B V :.h.V j u p p p p p u u u y 9 l =.<.V.C.V.m.2.$.&.X.^ q. X X.X|.q.|..X.Xq.q. X.X.X Xq.|..X|.@.",
"^ +.@.|.|.|..X Xq. X Xq.|..X.X|. X Xq.9.q..X XQ ) t.2.-.j j c N B V V c k V h.h.V N h.N N N i i l v -.2.2.2.i.&.) ! ^ 9.q. X.Xq.q.q.|. X.X X X.X.X X|.^ ^ .X|.^ ",
"^ @.@.|. X.X.X.X.X.X.X.Xq.` .X X X.X X X|.|.q.^ +.9.Y J j j z b b B M l N F.~.T.T.T.F.B.z.h.z i z x $.$.$.Y 7.9.q. X X|. X Xq.^ q.|.|. X.X.X X.X X|.|.|..X.X^ ~ ",
"^ ^ ^ @.q. X X.X.X.X.X|.q.q..X.X.X X.X X.X Xq.q.@.@.^ ! ) J %.%.%.%.%.K $.i.c.c.c.c.i.t.t.&.%.Y 6.6.6.6.! ~ q. X X.X X X X Xq.q.q. Xq.q.q.q.|..X.X X|.|..X.X^ Q ",
"^ ^ ^ ^ @.q.q.|..X.X X@.@. X.X.X X|.q. X.X.X|.q.w..X Xq.+.+.+.@.@.^ ^ ^ ^ ~ Q Q ~ ~ Q Q ~ ^ @.|..X.X X@.@. X.X.X.X|.q. X.X.X|.q.q. X|.q.q.9.q. X.X.X X X.X.X^ ~ ",
"@.^ ^ ^ q.^ q.|. X X X|.q.|. Xq.q.q.+.q..X.X X|. X X.X.X X X.X@.^ ^  X.X X|. X X X` ~ ` ^ ^ q. X X X Xw.q. X Xq.9.q.9.q..X.X X|. X.X.X.X|. X Xq.+.@..X.X.X|.|.^ ",
"~ ^ ^ ^ ^ ^ q.@.@.@.^ @.@.@.q.@.9.+.q.+.q.q.q.q.q.q.q.q.q.q.q.q.^ ~ |.@.^ ^ q.|.|.` ~ ` 9.9.+.@.+.+.+.@.@.+.@.9.` 9.+.q.q.q.q.q.q.q.q.q.q.q.q.q.~ ^ @.@.^ ^ ^ ^ ",
"Q ! ^ ^ q.^ ^ ~ ~ ! ^ ^ ^ ^ ~ ^ 9.+.q.@.~ ~ ^ q.@.^ ^ ^ +.+.+.@.^ Q ^ ~ Q ~ ^ ^ ^ ^ ^ ` +.9.+.~ ~ ~ ~ ~ +.^ ~ +.q.9.q.+.~ ~ ^ q.q.^ ^ ^ ^ ^ 9.q.~ ! +.~ Q ! ! Q "
};
