/* XPM */
static char *__resized[] = {
/* columns rows colors chars-per-pixel */
"80 80 221 2 ",
"   c #0B0606",
".  c #0D0C0B",
"X  c #110E0C",
"o  c #0F100C",
"O  c #12130D",
"+  c #181B0D",
"@  c #151310",
"#  c #1B1A15",
"$  c #241916",
"%  c #2C1D1B",
"&  c #301F1D",
"*  c #1B2606",
"=  c #1D2B07",
"-  c #16200A",
";  c #1C240A",
":  c #1E2C09",
">  c #1F3007",
",  c #1E2416",
"<  c #202E09",
"1  c #21280C",
"2  c #223409",
"3  c #29340F",
"4  c #263B0B",
"5  c #293E0B",
"6  c #232A11",
"7  c #272218",
"8  c #33221F",
"9  c #372B19",
"0  c #2C3511",
"q  c #283618",
"w  c #363818",
"e  c #1F1F21",
"r  c #262824",
"t  c #2B2C2C",
"y  c #362520",
"u  c #392621",
"i  c #3D2B23",
"p  c #2C3525",
"a  c #363A23",
"s  c #323335",
"d  c #41391C",
"f  c #422E25",
"g  c #482F27",
"h  c #472E29",
"j  c #453026",
"k  c #463826",
"l  c #463228",
"z  c #4C332B",
"x  c #4E392D",
"c  c #51352D",
"v  c #52392D",
"b  c #5B3E2E",
"n  c #543630",
"m  c #543C31",
"M  c #5C3C33",
"N  c #633F38",
"B  c #2B430B",
"V  c #2E4A0D",
"C  c #314E0D",
"Z  c #34540E",
"A  c #38540F",
"S  c #365A0F",
"D  c #395D0F",
"F  c #2A4611",
"G  c #2C4B13",
"H  c #334C12",
"J  c #384618",
"K  c #2F5316",
"L  c #345512",
"P  c #395412",
"I  c #375911",
"U  c #395C10",
"Y  c #355C18",
"T  c #3B591D",
"R  c #3C620F",
"E  c #3F680E",
"W  c #3C6311",
"Q  c #37631A",
"!  c #39651B",
"~  c #3D6D1D",
"^  c #3F711F",
"/  c #364926",
"(  c #3B5825",
")  c #3D6525",
"_  c #3F6A24",
"`  c #3F7220",
"'  c #41531B",
"]  c #41650B",
"[  c #426B0F",
"{  c #46720F",
"}  c #4B750E",
"|  c #4D7C0F",
" . c #507E0F",
".. c #436B11",
"X. c #406A16",
"o. c #487516",
"O. c #4B7A13",
"+. c #41751F",
"@. c #43791F",
"#. c #537D15",
"$. c #424C23",
"%. c #4B4828",
"&. c #504424",
"*. c #435323",
"=. c #455A24",
"-. c #495B28",
";. c #515829",
":. c #5B4235",
">. c #5A4536",
",. c #5B5536",
"<. c #634434",
"1. c #684534",
"2. c #6E4A36",
"3. c #654238",
"4. c #6A453C",
"5. c #634B3B",
"6. c #704D36",
"7. c #734C3C",
"8. c #67563C",
"9. c #765139",
"0. c #7B533C",
"q. c #446726",
"w. c #436D24",
"e. c #526C2C",
"r. c #427620",
"t. c #4B7426",
"y. c #457C21",
"u. c #4A7D24",
"i. c #4C7A28",
"p. c #54782B",
"a. c #5A7231",
"s. c #5E7932",
"d. c #6B643C",
"f. c #617D34",
"g. c #6B4B40",
"h. c #754D42",
"j. c #6B5444",
"k. c #6A5D45",
"l. c #765846",
"z. c #756A42",
"x. c #766448",
"c. c #7D7246",
"v. c #7C6351",
"b. c #796951",
"n. c #80573F",
"m. c #835A3F",
"M. c #835746",
"N. c #865A43",
"B. c #8B5D44",
"V. c #83664C",
"C. c #89684B",
"Z. c #956645",
"A. c #99684A",
"S. c #84754B",
"D. c #9D7043",
"F. c #886C54",
"G. c #8B7356",
"H. c #947455",
"J. c #95775C",
"K. c #9A7A5B",
"L. c #A16E4B",
"P. c #A5714C",
"I. c #AB754E",
"U. c #AD794C",
"Y. c #B17B4F",
"T. c #AD7551",
"R. c #AC7650",
"E. c #B07754",
"W. c #B47B52",
"Q. c #B97E54",
"!. c #967A63",
"~. c #9B7D64",
"^. c #997E68",
"/. c #52820F",
"(. c #578A0F",
"). c #568912",
"_. c #51891A",
"`. c #5E9211",
"'. c #619611",
"]. c #669D12",
"[. c #6BA412",
"{. c #6EA912",
"}. c #71AB11",
"|. c #75B213",
" X c #79BA13",
".X c #478022",
"XX c #498423",
"oX c #4C8A24",
"OX c #55832A",
"+X c #58872C",
"@X c #9C855A",
"#X c #9E875A",
"$X c #A4875E",
"%X c #BB8353",
"&X c #9D826A",
"*X c #A38363",
"=X c #A88767",
"-X c #A58D62",
";X c #AD8A63",
":X c #B18E69",
">X c #AA906C",
",X c #B4916D",
"<X c #A78A73",
"1X c #B69472",
"2X c #B99674",
"3X c #BB9877",
"4X c #B6967B",
"5X c #BC9B7C",
"6X c #C48857",
"7X c #CB8D59",
"8X c #CE905A",
"9X c #D2945A",
"0X c #C09E7E",
"qX c #B69A80",
"wX c #BE9E81",
"eX c #BFA186",
"rX c #C09F82",
"tX c #C2A285",
"yX c #C5A689",
"uX c #C7A88B",
"iX c #C8A98C",
/* pixels */
"K Q +.~ ^ ^ ^ ^ ^ ^ ~ ^ @.^ @.^ ^ ^ y.@.^ ^ ^ .X^ @.y.@.^ ~ ~ ^ ^ ` r.^ ^ y.+.~ ! ~ ` ^ ^ ^ ^ ^ ^ ^ ^ ^ q._ y.` ` r.@.^ ^ ~ ^ @.@.+.@.r.~ ~ ~ ~ ^ r.r.^ ^ y.~ Y ",
"! ~ +.+.@.r.^ ^ ^ ^ ^ y.y.@.@.^ ^ ` ^ ^ ~ ^ @.` ^ ^ ^ ^ ` r.r.y.y.y.^ ~ ^ y..Xy.` ` ^ ^ @.` ^ ^ ^ ^ ^ @.w._ ` ` ` r.` ^ ^ ^ @.r.+.^ ^ ^ ^ r.y.r.y.r.+.^ ^ y.^ ~ ",
"y.+.+.y.y.y.^ ^ ^ @.@..Xy.y.y.r.` y.` ^ ^ @.y.` ` ` ^ ^ r..XoXoXoX.X+.^ ^ y.XXoXoXXX` y.XX` ^ ^ ^ @..X.Xy.y.y.` r.r.` ` ^ r.y.r.+.^ ^ ^ r..XoXoXoX.X+.^ +.y.@.@.",
"+.@.XXoXoX.X+.+.@.^ @..XXXoXoXoXXX.X` ^ @.oXoXXX.X.X.X.X.X.X.XoXXXXXXX@.@..XXX.X.XXXXXoXoX.X` @.y.^ ^ .XXXoXoXoXoX.X` ` y.XXoXXX.Xy.XXXXXX.X.XoXXXXXXXr.+.XX@.^ ",
"~ +.u.XXXXXXXX.X.Xy.y..XoXoXoXXXXXXX.XXXoXoXoXoXoXoXoXoXXX.Xy..Xr.y.oX.Xy..X.XXX.X.X.XXXoXoX.X.XXXy.y.XXoXoXoXXXoXXXXXXXoXoXoXoXoXXXoXoXoXy.y.y.y.y.XXXXy.y.@.^ ",
"+.+.+.+.XXoXoXoXXXXXXXXXoXoXy.y..XoXoXoXoXoXoXoXoXoXoXXX.Xy.r.y.` ` XXoXXXy..XoXoX.X` ` .XoXoXoXoXXX.XXXoXoXy.y..XoXoXoXoXoXoXoXoXoXoXoXu.y.y.y.^ +.XXoXXXy.r.r.",
"~ ~ +.y.@.y.u.y.y.` ` y.r.y.XXXXXXXX.Xr.y.y.XXXXXXoXoXoXXXr.@.r.^ ^ .XoXoXy.r.r..X` ` ` .X` .X.Xr.y.` y.^ y.XXoXXXXX.X` y..XXXXXXXoXoXoXXXr.+.y.~ ^ u.oXoXy.^ ! ",
"~ +.+.y.y.+.+.+.` ^ ^ ` ` ^ y.XXoX.Xy.y.y.` r.r.y.oXoXoXoX.X.X.Xy.r.XXoXoXr.^ r..X.X` .X.X` ` ` ^ ^ ^ ` ^ ` y.XXoX.Xy.y.r.` y.` y.oXXXoXoXXXy.XXr.y.XXoXoX+.~ Q ",
"~ ^ ^ .X.X^ ^ ^ ^ ^ ^ ^ ^ ^ ^ ` .X.XXXoXoX@.^ ^ @.XXoXoXoXoXoXoXXXXXoXoX.X` ` y.y.r.r..X` ` ` ` ` ` ` _ ` _ _ y..Xy..XoXoXy.^ ^ r.oXoXoXoXoXoXoXXXoXoXoXoX` ~ ~ ",
"~ ^ @..X.X` ^ ^ ^ ` ^ ^ ` .X` XXXXXXoXoXoXXXy.XXoXoXoXoXXXXXoXXXy.+.r..XoXy.oXXXy.r.r.y..X` ` ` ` ` ` ) ) ) r..XXXXXoXoXoXoX.XXXoXoXoXoXoXy.XXXXy.` r..XXX.Xr.@.",
"^ ^ ` XXXX.X` ` r.r.y.y..X.XoXoXoXXXoXoXoXXXXXoXoXoXoXoXy.u.XXXX` ~ ~ .XoXoXoXoXXXr.@..XoX.X` ` ` _ ( ) q.q..XoXoXXXoXoXoXXXXXoXoXoXoXoXy.y.XXXX` ~ ~ .XoXXXy.@.",
"@.^ ^ oXoXoX.X` XXoXoXoXXXXXoXoXoX.XXXoX.X.XXX.XXXoXoXXX+.@.oXoXr.~ ~ oXoXr.r.oXoXy.r.oXoXoXXX.Xu./ / i.i..XoXoXoX.XoXoX` .XXX.XXXoXoXy.+.u.oXoX` ~ ^ XXoX` +.+.",
"^ ^ ^ .XoXoXoX.X^ y.XXoX.XXXoXXXy.oXoXoXXXoXoXXXXXoXoXoXXXoXoXoX.Xy.XXoXoXy.y..X.Xy.r..XoXoXoX_ / / _ XX.Xy.oX.Xy.XXoXoXoXoXoXXXoXoXoXoXXXoXoXoXXXy.XXoXoXy.^ ^ ",
"~ ^ @..XXXoXoX.X^ ^ y.oX.X` XX.X@.oX.Xy.oXoXoXXXXXoXoXoXoXoXoXoXoXoXoXoXXXXXXX.X.Xr.r.y.oXoX+X) s ) y.oX.Xy.XX.Xy.oX.Xy.oXoXoX.XXXoXoXoXoXoXoXoXoXoXoXoXXX.X@.^ ",
"+.@..XoXoXoXXXXXoX.Xy.oX.X.X.XoXoXXX+.w.y.oXoXr.+.y.XXXXXXoXoXy.y.y.y.y.y.XXoXoXXX.X.XoXoXXXq.( / _ .XXX.X.XXXoXoXXX^ ^ y.oXoXy.r.y.XXoXoXoXoX.Xy.y.y..Xy.XX.Xr.",
"^ @.oX.XoXoXXXoXoXoXXX.XXXXXXXoXoX@.^ ~ r.r.y.r.+.r.y.y.y.y.XXXX.X.XoX_ ! O.o.! ~ r.oX.XoXXX( / _ .XoX.XXXXXoXoXoX^ ^ ` ` y.y.^ ` r.y.y.r.y..XoX.X.X.XoXoXoX.Xr.",
"^ @.XXy.y.oXXXXXoXoXy.r.y.XXoXoXoXr.+.@.^ r.r.r.r.y.y.y.r.y.XXoXXXXX.Xo.../.} ..{ @.XX~ ` u./ / XXoXXX` .X.XoXoXoX` ^ ^ ^ ^ ^ .Xr.y.y.r.r.y.XXoXoXoXoXXXoXoXy.@.",
"@.@.r.^ +.y.y..XoXy.` ` ^ r..XoXoXoXXXy..XXXoXoXoXoXoXoXoXoXoXoXy.o. .].|.{.[.[.|.[.| Y ) ` p / i.` ` ` ` ` oXoXoXoX.X.XXXoXoXoXoXoXoXoXoXoXoXoXoXoXoX@.r.oXy.@.",
"+.y..X+.r.r.y.y.y.r.r.y.` ^ .XoXoXoXXXXXy.y.XXoXoXoXoXoXXXXX+.Q _.].].{.|.{.[.[. X|.].`.O.Y p a ` ` ` XX` ^ .XXXoXoX.X.Xy..XXXoXoXoXoXXX.XXXXXoX.X@.XX@.+.r.r.@.",
"^ @.oX.Xy.y.y.r.r.r.y..Xr.^ .XoXoXXXXXXXy.y..XoXoXoXoXy.~ @.o.W '. X|.{.]./.| /.[.}.{. X`.L p p _ ` i.XX` ` .XoXoXoXoXXXy.@..XoXoXoXoXXXr..XXXXX@.^ y..Xy.^ +.@.",
"r.y.XXoXoXoXXX.X.X@.^ ^ _ r.oXoX.XXXXXoXoXoXoX.X@.oXoXr.Q O.`.{.{.[.[.]./.A D { /././.).(./.J p / _ ` ` ` ` oXoX.XXXXXoXoXoXoX.X.XXXoXoXoXoXoXoXoXoXoXoXoXy.@.@.",
"+.y.XXXXoXoXXXoXXXXXy.y.y.y.oXoXXXr..XoXoX.X.XXXXXXX+.X.{ '.}.|.`.} ] { { S D { { [ R C ] (.#.=.s / ` ` .XXXoXoXXX` .XoXXX.X.XXXXXXXy..XXXXXXXoXXXoXXXoXoXXXy.@.",
"+.@.oXXX.XXXXXXXoXoXoXoXoXoXoXoXXX+.r..Xr.+.+.oXXX@.~ o.(.[.{.].} V : V E E [ { { [ Z < C /.[.#.p p Q y.XXoXoXoXoX^ y..X.X^ ^ oXoXy..Xr.` ` y.y.@.r.@.XXoX.X@.@.",
"+.@.y..XoXoXXXy..XoXoXoXoXoXoX.Xy.y.r.r.r.y.y..X+.R ).`./.| `.[./.S Z A D D D R [ ] D V D #.).X./ r q K Q ` oX.Xy.@.y.` ^ ` oXoXoX` ` y.y.y.y.` +.r.y..XXXu.@.^ ",
"+.@.XXXXXXXXy..Xy..Xy.y.oXoXXXy.y..Xy.r.y.XXu.X.W [  .| R R } [./.W W U I R W W ..R U U [ | E U T p r q T o.X.@..X.X@.@.@.XXoXoX.X^ ` r.y.r.^ ` ^ ^ .X.X.X.X@.^ ",
"^ y.XXoX.X^ ` .X.X.Xr.` y.oX.XXXXXoXoXXXu.XX@.D R { D C V L E (.| [ R S D [ ] U U D D R { } U L Z p r r =.o.C ! .XoXXXoXoXoXoXoXXXr.` ^ ^ ^ ^ ^ ^ ^ oXXX.X.X@.^ ",
"^ y.XX.X^ ^ ^ @.oXoXoXXXXX.X.X.XoXoXoX.XQ ..O.W D U U V 2 V E /.[ D W [ [ D V 2 4 V R ....D C 5 2 w p t a T [ D Q .XoXoXoXoXoXoXoXXXr.^ ^ ^ ` y.@..X.X.XXXXX.X@.",
"+.y.XXXX.Xr.^ @.oXoXoXXXoXoX.XoXoX@.@.^ L D ..U I U U C 4 B S { W L I E [ L V B B Z W ..W I V 4 = q q t t J o.R R @.@.@.XXXX@.XXoXoX.Xr.r..XXXXXXXXX.X.XXXXX.X^ ",
"+.@.oXoXoXoXoXoXoX.Xy.r..XoXoXoX.XQ Y U U I I Z D D I I C 4 B L U S S D R W W R D D ] W I L G F : , , t t / I { O.[ U Y @.@.+.XXoXoXoXXXoXoXoXoXoXoXoXXX.X.X^ ^ ",
"~ @..XoXXXr.XXoXXX.X.Xr.XXoXoXoX+.V B C I I U W [ [ W I Z A A I S D ] R D R P J P D W ] Z 4 6 # O O , t s r 2 L R W W W +.u.XX@.y.oXoXoXoXXXoXoXoXXX@..XXX@.^ ~ ",
"^ @.XXoXXX@..XXXoX.Xy.r.y.oXoXr.Q B 5 C A I I R [ ] W U I S I D U D ] R D D $.9 J H P W V - @ . . @ r s t e O 4 I C A U Y ~ @.y..XoXoXoXoX.X.XoXoX.X.XoXoX@.^ ^ ",
"+.y.oXoXXX@.@.XXoXy.` ` r.r.^ Y F C B B A S Z I D U U U I V V I U D S D D A ' g 9 w J I F O @ .   @ t s e . o 3 H 5 B B B B L y.oX.XoXoXoX@.@.XXXXoXoXoXoX.X.X^ ",
"^ y.XXoX.Xy.y..X.X.Xy.+..Xr.Y F B B B B S Z C S Z B 5 C D V V A L Z C A D S ;.b d 0 A D 2 X # @   . # # o . # # = B B B 2 4 4 V Q ^ .XoXoXy.y.XXoXoXXXy..XoX.X.X",
"^ r.y..X.X.XoXoXy.XXXXr.oXr.F 4 4 5 B B C C V C V B 4 B Z Z Z Z P J Z A D S &.b d C D D B + $ # o . . @ O O 7 # - B V B 4 2 2 > 5 Y r.oXoXXXXXXXoXXXXX^ ^ oX.X^ ",
"^ +.r.y..XoXoXoXoXoXoXoXr.Y 4 2 2 = < 4 B V B B B V Z Z Z D S Z k &.] A A A w w A Z C D U H 6 6 < + @ @ 6 6 , 2 4 F B B 4 2 2 2 2 B ! y.oXoXXXoXXX.Xy..XoXoX^ ^ ",
"^ ^ r.r.y.oX.XoXoXoXoX.XY F 2 2 2 < 2 4 B B B B B V C C B V C S d d H V V V 5 5 D V B Z Z C 4 4 F 2 6 2 4 B 2 5 F B 4 4 2 2 2 2 2 2 B Y .Xy.y.oXoXXX.XXXoXoX^ Q ",
"^ ^ ^ ^ r..Xy..XoXoX.X^ F : 2 4 2 2 4 4 4 4 B B B B B B B 5 B S w 0 5 B 5 B B B Z B 4 V V B B B V F V B B B B B B B 2 > 2 2 2 2 2 > > B Q ^ y.oXoXoXXXXXoXXX^ ~ ",
"+.+.^ +.` ` y.XXoXoX@.Q B 2 2 2 4 2 2 2 4 5 B B 5 5 4 B 5 B B B B B 5 B B B B B B B B B B B B B B B B B B B B B 5 2 : = : > 2 2 2 : : 2 2 ^ oXy.@.^ oXoXoXXX.X^ ",
"+.@.@.@.y.y..X.X.X.X~ V 2 > 2 2 2 4 < < 4 5 5 4 4 B 2 4 B B B B B V V B B B B B B B V V B B B B V B B V B 5 4 4 4 2 > : 2 2 2 2 > : : : 4 ~ oX.X^ @.oXXX^ ^ @..X",
"^ +.XXXXoXoX.Xy.y.y.Y > : : 2 > 2 2 < < < 2 4 2 4 4 < < 4 5 B B B B B B B B B B B B B B B B B B B 2 2 4 B 4 > 2 2 2 2 2 2 2 2 > : : > > G ^ oXoX@.@.XX@.^ .X^ ^ ",
"Q +.XXu.XXXXXXXXXX.XQ > > > ; = < 2 2 < = = 2 2 2 4 > 2 2 4 4 4 < * < 4 5 B 5 5 4 4 5 B B B 4 4 5 2 = = 2 4 2 2 2 2 < 2 2 < = * : > q Y ^ y..X.XXXoXXXXX.XoXy.~ ",
"~ +.y.y.@..Xy.y..X.X^ Y F > ; : < < < < = = 2 2 2 4 2 2 2 < 2 2 < * < 2 2 4 5 4 < 2 4 4 5 5 2 2 = = : : 2 2 4 2 2 2 < = = < = * > F K ! r..XXXXXXXXXy.r.@.oX.X+.",
"@.@.r.y..Xy.^ ^ ^ ^ r.y.Q F 4 > < = = = < = < 2 2 2 2 2 2 2 2 2 2 2 2 2 2 2 2 2 = < 2 4 4 2 2 < = = 2 2 2 2 2 2 2 2 < * * > 4 2 V ! ~ ~ ` .XoXoXoX.X+.~ ^ y.y.@.",
"+.+.XXoXXX.X+.+..X^ ^ .X.X` Q K 4 = * > < = * = = = > > 2 2 4 2 4 2 4 < < 2 4 2 < 2 2 2 2 2 2 2 2 2 2 2 2 2 = * = = < = * 2 Z ~ +.y.XXXXXXXX.XXXXXXXXXr.@..X@.^ ",
"^ r..X.XXXoXXX.X.Xy.y..XoXoXr.Q Y K L H 5 6 1 * = = = > : < 2 < < < < < < 2 2 2 2 2 < 2 2 4 2 2 2 : = > > > = * 6 w w $.F Y +.XXoXoXoXoXoXy.y..Xy.y.oXXXy.y.r.^ ",
"+.^ r.r..XoXoXoXoXoXXX.XoXoXy.y.y..XoXr.%.k k w 0 q 3 3 3 < ; : * = = 2 2 2 2 2 2 < < < 2 < 2 < * * * = 1 6 0 q a >.l.x.e.r.oXoXoXoXoXoXXXy.y.y.^ ` XXoXoXy.r.@.",
"~ ^ ^ y..Xy.y.y.y.` r.r.r.y.XXoXoX.X.Xt.d.F.J.G.F.b.x.k.,.w 6 ; * = 2 2 2 < * < = < = = = = < * * , 6 w s %.k.b.F.^.=X~.a.r.u.XXXXoXoXXXXXr.+.r.~ +.y.oXoXr.~ ~ ",
"~ ~ +..Xy.r.^ r.` ^ ` ` _ ` y..XoX.Xy.i.c.-X5X0XqX<X<X<X^.b.>.a w w 1 * * * * + * + + * 1 1 1 w %.%.,.v.b.G.&X<X<X4X3X-Xa.r.+.+.y.oXoXoXoX.Xy.u.y.r.XXoXoX` ~ Q ",
"~ +.+.@.r.^ ^ ^ ^ ^ ` ^ ^ ^ ^ y.XX.XXX+XS.*X5X5X5XwXtXyXeXwX<Xv.2.g $ $ $ d 9 9 1 $ + $ 7 9 u >.G.^.<XqXwXrXwXwXqXwX2X$Xs.@.+.~ r.XXoXoXoXoXoXoXoXXXoXoXXX^ ~ ~ ",
"~ ^ @.@.y.r.+.^ ^ ` ^ ^ r.y.` .XXX.XXXoXS.*X3X5XeXtXtXuXyX<XF.v.b f g g b m.P.D.1.1.1.k u u >.j.v.<XwXeXuXiXuXrXrXwX2X$Xf.u.y.XXoXoXoXoXXXXXXXXX@.+.r.u.oX.Xr.+.",
"^ ^ @.u.XXXX@.+.r.y.y.r.y..XoXoXoXXXXX+Xc.*X5X5X0XyXeXyXwXF.5.5.g g n.n.m.Q.Q.I.9.m.I.m.v 8 >.5.g.<XwXwXyXuXyXrXrX5X2X-Xf.y.XXoXoXoXoXXXy.@.XXoX` ~ ~ .XoXXXy.@.",
"@.+.+.oXoXoXy.r..XXXoXoXXXXXoXoXoX.XXX+Xc.$X2X5X5X0XtXuX4XV.x y b m.Q.D.n.n.N c c m.Q.Q.0.y z :.5.^.qXwXyXuXrXrXwXwX0X$Xa.y.oXu.XXoXoXXX+.XXoXoXr.~ ^ XXoX+.+.+.",
"^ ^ @.XXXXoXoX.Xr.r.XXoX.Xy.oXXX@.oXoXOXc.@X2X5X5XeXyXwX^.j.l f b Z.7Xm.i u u 8 u b m.8XZ.i y c 5.v.^.yXyXrXyXrXrX0X0X-Xs.u.oXXXXXoXoXoXXXoXoXoXXXy.oXoXoXy.+.^ ",
"~ ^ @.@.XXoXoXXX` ` y.oX.Xy.XX.X@.oX.Xi.z.&X2X3X5XeXiX<Xb.>.x z 6.Z.I.b $ $ % % % & b 7XU.z 8 z 5.g.F.rXyXwXrXrXrX5X2X-Xf.u.oXXXXXoXoXoXoXoXoXXXoXoXoXoXXXu.y.+.",
"^ @.XXoXoXoXXXXXoX.Xy.oX.X.X.XoXoX.X+.t.z.~.5X5X5XtXyX&X>.g.>.x n.m.0.g % % % % % $ g %XY.v i z >.m k.qXrXwXwXrXrX5X2X-Xf.u.oXr.+.y.XXoXXXoXoX.Xy.y.XXy.y.XXy.r.",
"^ @.oX.XXXoXoXXXoXoXXX.XXX.XoXoXoX@.^ q.z.K.1X5X5X5XyX!.>.:.:.z n.Z.6.g % % % % % $ f W.I.M j z >.x j.qXuXyXyXrXwX5X2X$Xa.r.y.r.^ y.y.@.@..XXXXX.Xy.XXXXoXoXy.r.",
"^ y.oXr.y.oXoXoXoXoXXXr..XXXoXoXoX@.^ t.z.K.,X2XwXrXrX!.m m x l n.Z.9.g 8 % % & % % g I.P.<.c z x x l.5XuXuXuXtXwX5X2X$Xa.+.@.+.r.y.y.y.r.y.XXoXoXoXoXoXXXoX.X+.",
"+.r.r.` r.y.r..XXXr.` ` ^ ` XXoXoXXX.Xu.z.K.:X2XrXuXyX!.m m x h m.L.m.b 8 & % & 8 8 z E.T.1.v g l x v.eXiXtXrXtXrX5X,X#Xa.@.XXXXXXoXoXoXoXoXoXoXoXoXoXy.r.XX.X@.",
"+.y..Xr.r.r.r.y.r.r.r.y.` ^ .XoXoXoXXXu.z.J.:X2XwXtXuX^.>.m x h m.U.L.b 8 v b c z g M %XR.2.v g l x v.eXiXtXtXtXrX5X2X@Xa.@.XXoXoXoXoXXXu.XXXXoXy.r..Xy.+.r.@.@.",
"^ y.oX.Xy.y.y.r.r.r..XXX` ^ y.oXoXXXoXOXz.K.:X3X5XwXuX&X>.m x f m.Q.Q.2.i <.1.:.v b 0.6XE.7.v f f x v.tXiXyXyXyXtX5X1X$Xa.t.XXoXoXoXoXXXr.y.XXXXy.^ .X.Xy.^ ^ @.",
"@.y..XoXoXoX.Xy..Xr.+.^ ^ r.oXoXy.XXXXOXz.K.:X2X5XrXrX^.:.x z i m.E.Q.Z.1.8 8 8 y 6.E.9X%X0.x u i x v.eXiXuXtX5X0X5X1X$Xf.u.XXXX.XoXXXoXoXoXoXoXoXoXoXoXXX.X@.@.",
"+.y.XXoXoXoXoXoXoX.X.X@.y..XoXoXXXy..XOXz.H.;X1X5X0XrX~.m x z j N.Q.E.L.l.<.<.<.l 7.W.9X%Xh.l y i z l.wXuXtXyXtX5X3X1X#Xf.@.@.XXXXXXy.XXXX.XoXoXoXXXXXoXoXXXy.@.",
"+.@.XXXXy..XoXoXoXoXoXoXoXoXoXoXXX@.@.i.z.H.;X1X3X5XrX^.:.x l g B.Q.E.Z.N.Z.Y.Y.3.4.L.7X%X9.z u i f k.qXyXtXyXeX3X3X:XK.a.+.@.oXoXy.y.r.r.r.r.y.r.+.+.XXoX.X@.@.",
"+.@.y.XXoXoX.Xy.y.oXoXoXoXoXoXy.y.@.@.q.,.C.;X1X2X3X0X!.m l i g n.I.R.B.0.Z.Q.W.M 3.P.7XY.9.z u j l l.wXiXyX5X5X2X>X;XH.e.t.XXoXXXr.r.y.y.r.r.r.r.+.y.XXXXXX@.^ ",
"+.@..XXXXXXXy.y.y.y.y.y.oXoXoXy.y.y.y.t.d.C.$X;X1X5X0XJ.m f i l h.A.L.A.B.B.W.U.c N E.7XY.0.c i f j j.wXyXtX5X5X2X;XI.x.e.u.XXoXXX+.+.r.r.@.^ ^ ^ ^ .X.Xy..X@.^ ",
"^ y.oXoXy.^ r.y..Xy.r.r.y.oX.XXXoXoXoXi.d.F.K.$X,X2X5XJ.x f g z g.B.A.L.L.N.U.W.c 4.E.7XY.0.c f j i j.4XtX5X5X5X0X$XG.d.a.XXoXoXXX+.r.^ _ ^ ^ +.^ +.XXXX.X.X@.^ ",
"^ y.XX.X+.^ ^ r.oXoXoXXXoXoXy.XXoXoXoXOXd.F.K.$X;X1X5X!.:.f f c N l.L.R.L.n.I.W.c N E.7XY.7.c f f i g.4XrX5X2X,X$XH.H.S.s.XXXXoXoXXXr.~ ^ ^ r.y.@..X.X.XXXXX.X@.",
"+.y.XXXXy.y.^ .XoXoXoXoXXXXXy.oXoXoXoXi.,.x.K.=X=X*X,XK.>.j f v M h.A.P.A.0.L.I.c 4.E.8XI.4.z f j 9 5.>X2X1X,X$XH.H.K.H.p.@.@.oXoXoXy.y.r.y.XXXXXXXX.X.X.XoXy.@.",
"^ .XoXoXoXoXoXXXoX.Xy.y.XXoXoXoXoXXXoXy.-.d.J.=XT.F.$XH.<.l j b n 4.M.A.B.4.Z.L.z 3.T.8XT.M c h j i 1.$X;X;X;XH.V.H.G.d.t.^ +.XXXXoXoXoXoXoXoXoXoXoXoX.X.X.X^ ^ ",
"^ ^ .XoXXXy.XXoXXX.Xy.` .XoXoXXX.X.Xy.` r.d.F.K.&X$X;XG.5.l f c n N M.B.h.N h.B.c 4.T.8XA.n z h j i >.K.H.G.-XK.C.V.8.,.u.oXXX@..XoXoXoXoXoXoXoXoXXX.X.X.X@.^ ~ ",
"^ ^ XXoXXX^ .XXXoX.Xy.^ .XXXoX.Xy..Xy.y..Xe.8.C.J.*XK.v.M x l x n N M.M.4.n 4.h.z N A.E.B.z h h f i >.K.F.F.K.H.V.l.,.-.XXoXXX@..XXXoXoXoX.X.XoXoX.X@.oXoX@.^ ^ ",
"^ .XoXoXXX.X@..XoX.X^ @.@.r.^ @.y.XXoXoXXX! $.8.x.F.F.j.j x m c c N h.h.N n 4.h.z M M.M.g.z h h j i <.K.K.H.C.x.l.8.;.+.y.r.+.XXoX.XoXoXoXy.@.XXXXoXoXoXoXoX.X^ ",
"^ @.XXXX.Xy..X.X.X.Xy.^ .XXXy.y.y.XXXXy.y.y.r.=.,.l.V.8.f g v c c n 4.4.N n N 4.c n g.h.N c h f i i >.V.C.C.v.5.;.-.q.~ y.XXXXXX.Xy.XXoXoX.Xy.XXoXoXXX@..XoX.X.X",
"^ @..X.X.X.XoXXXy.XXXXy..XoXoXXXXXoXy.+.y.oXoXQ T d.8.>.f f z c c c N N M n M N z n N 3.M z h i i i k 8.8.8.d.;.( ! ~ +..XXXoXy.^ y..XoXoXXX.XoXoXXXXX^ ^ oX.X^ ",
"^ +.@.@.XXoXoXoXoXoXoXoXy.y.oXXXXXoXXXXXXXXXy.^ ^ +.T J 9 f l c h z m m n l m n h c M M n z g f f f k %.$.T w.+.r.XXXXXXXXXXy.+.r..X.XXXoXXXXXoXXX.X.X.XoXoX^ ^ ",
"^ ^ @.@.y.XXXXoXoXoXoXXXr.y.oXoXXXoXXXu.oXXXy.r.@.@.~ Q *.( *.=.=.=.*.' %.$.$.$./ $.$.$.$.=.=.=.=.=.q.q.! +.@.XXoXoXXXXXXXXXy.+..XXXy.r..Xy.y.oXoXXX.X.XoXoX^ Q ",
"^ ^ ^ ^ @.@.y..XoXoXXX^ .XXXoXoXoXXX.XXXoXoXXXy.y.oXXXr.r.+.@.r.^ ^ ^ ^ ~ ^ ~ Q X.~ Y Q ~ +.@..XXXoXXX@.@.XXoXoXXXXXu.XXoXoX.X@..XoX.Xr.r.y.y.oXoXoX.XXXoXoX^ ! ",
"@.^ ^ ^ ^ @.y..XXXXXXX.X@..XXXy.r.r.+.y.oXoXoX.XXXoXoXoXy.oXXXy.^ ^ XXoX.X.X.XXXoXr.~ +.^ +.y..XXXXX.X.X.X.XoX@.r.@.r.y.oXoXoX.XXXXXoXoX.XoXXX.X^ @.oXoXoXXX.X^ ",
"~ ~ ~ ^ r.` @.@.@.^ @.@.@.@.@.@.r.r.r.y.r.y.y..Xy.y..Xy.y.y..Xy.~ ^ .X@.^ @.y..Xy.r.^ r.r.+.r.@.@.@.+.@.@.@.+.+.r.r.r.@.y.r.y..Xy.y..Xy.r..X.Xy.^ ~ @.@.^ ^ ^ ^ ",
"Q ~ ^ ^ @.r.^ ^ ~ ! ^ ^ ^ ^ ^ ^ @.+.@.+.~ ~ +.r.r.+.^ ^ r.^ +.+.~ ~ ^ ~ ! ! ~ +.^ ^ ^ ^ +.r.+.~ ~ ~ ~ ^ +.^ ~ +.@.+.@.y.~ ~ ^ y.@.^ ^ ^ ^ ^ ^ r.~ ~ ^ ~ Q ! ! Q "
};
