/* XPM */
static char *__resized[] = {
/* columns rows colors chars-per-pixel */
"80 80 220 2 ",
"   c #0D0A0A",
".  c #110E0D",
"X  c #0E120A",
"o  c #13140B",
"O  c #181D0A",
"+  c #151412",
"@  c #191613",
"#  c #1C1A15",
"$  c #241917",
"%  c #2D1D1B",
"&  c #1A2606",
"*  c #1D2B07",
"=  c #152009",
"-  c #1B240B",
";  c #1E2C09",
":  c #1F3108",
">  c #1C2313",
",  c #23260E",
"<  c #202E09",
"1  c #262D0B",
"2  c #223409",
"3  c #26330C",
"4  c #263B0A",
"5  c #293E0B",
"6  c #232414",
"7  c #292517",
"8  c #33211E",
"9  c #392D1A",
"0  c #2B3412",
"q  c #283913",
"w  c #363716",
"e  c #282728",
"r  c #352421",
"t  c #3A2622",
"y  c #3D2B23",
"u  c #2C3726",
"i  c #3C3923",
"p  c #393C38",
"a  c #42371C",
"s  c #422E25",
"d  c #452D29",
"f  c #482F2A",
"g  c #443126",
"h  c #463228",
"j  c #4B332B",
"k  c #493A2A",
"l  c #51362D",
"z  c #523A2E",
"x  c #5B3E2E",
"c  c #553731",
"v  c #553D31",
"b  c #5C3C33",
"n  c #613E37",
"m  c #2B430B",
"M  c #2E4A0C",
"N  c #314E0D",
"B  c #34540E",
"V  c #365A0F",
"C  c #395D0F",
"Z  c #2B4612",
"A  c #2C4917",
"S  c #334C12",
"D  c #374618",
"F  c #2F5316",
"G  c #345511",
"H  c #395412",
"J  c #365911",
"K  c #395C10",
"L  c #37561D",
"P  c #355C1A",
"I  c #3D630E",
"U  c #3C6311",
"Y  c #37621A",
"T  c #39641B",
"R  c #3D6D1D",
"E  c #3F711E",
"W  c #384826",
"Q  c #395725",
"!  c #3A4534",
"~  c #3D6822",
"^  c #3F7220",
"/  c #49471D",
"(  c #41650C",
")  c #426B0F",
"_  c #46710E",
"`  c #4A750F",
"'  c #4D7C0F",
"]  c #507E0F",
"[  c #426A11",
"{  c #406A16",
"}  c #477617",
"|  c #4B7914",
" . c #41751F",
".. c #43791F",
"X. c #517F11",
"o. c #484626",
"O. c #50432B",
"+. c #445525",
"@. c #455A25",
"#. c #495B28",
"$. c #515829",
"%. c #4F4230",
"&. c #574333",
"*. c #5B4435",
"=. c #5C4936",
"-. c #5B4938",
";. c #455739",
":. c #5B5735",
">. c #65482D",
",. c #644334",
"<. c #634239",
"1. c #6A453C",
"2. c #644B3C",
"3. c #6B4938",
"4. c #724C3B",
"5. c #69563C",
"6. c #78523A",
"7. c #7C543D",
"8. c #456627",
"9. c #436E23",
"0. c #4D6329",
"q. c #526C2C",
"w. c #427620",
"e. c #4B7426",
"r. c #457C21",
"t. c #4A7D25",
"y. c #4F7A28",
"u. c #54782B",
"i. c #5A7231",
"p. c #5E7932",
"a. c #6B643C",
"s. c #617D34",
"d. c #3F4147",
"f. c #4F564C",
"g. c #684A40",
"h. c #754C42",
"j. c #6D5945",
"k. c #7C5144",
"l. c #745B46",
"z. c #506443",
"x. c #766547",
"c. c #756A42",
"v. c #7D7246",
"b. c #796650",
"n. c #82593E",
"m. c #855A41",
"M. c #845844",
"N. c #8C5C49",
"B. c #82664B",
"V. c #89674B",
"C. c #946545",
"Z. c #996947",
"A. c #95644A",
"S. c #9B694B",
"D. c #84754B",
"F. c #846C54",
"G. c #8B6D51",
"H. c #9B6750",
"J. c #8B7356",
"K. c #947455",
"L. c #94775C",
"P. c #9A7A5B",
"I. c #A26E4F",
"U. c #A8744D",
"Y. c #AC7552",
"T. c #AF7854",
"R. c #B47A55",
"E. c #B87E55",
"W. c #967B64",
"Q. c #9C7E65",
"!. c #9B7F68",
"~. c #A07F62",
"^. c #52830F",
"/. c #578A0F",
"(. c #518717",
"). c #5D9111",
"_. c #619611",
"`. c #669D12",
"'. c #6BA512",
"]. c #6EA912",
"[. c #71AB11",
"{. c #75B213",
"}. c #79BA13",
"|. c #478022",
" X c #498423",
".X c #4C8A24",
"XX c #55832A",
"oX c #58872C",
"OX c #9C855A",
"+X c #9E875A",
"@X c #A4875E",
"#X c #BD8156",
"$X c #9D8064",
"%X c #9E816B",
"&X c #A38263",
"*X c #A98764",
"=X c #A48E61",
"-X c #AC8A64",
";X c #A3856D",
":X c #B08D67",
">X c #B18F6B",
",X c #AA906C",
"<X c #B4916D",
"1X c #A88B73",
"2X c #B69576",
"3X c #B99674",
"4X c #BB9877",
"5X c #BC9B7C",
"6X c #C58A56",
"7X c #C68A57",
"8X c #C28558",
"9X c #C98C5A",
"0X c #CE9059",
"qX c #D1935A",
"wX c #C09F7F",
"eX c #BF9E81",
"rX c #C09F82",
"tX c #C2A285",
"yX c #C5A689",
"uX c #C8A98C",
/* pixels */
"F Y  .R R w.E  . .R R  . . ... .^ w. . .R R E r.r. ... .^ R R R E w.w.E E r. .R Y R E R E E E E  .R R  .r.^ ^ E E ..r.E R R E r.w. .w.w. .R R E E E r.E R r.R P ",
"T R  . .w.r.E E  .R E r.r. ...E ^ w.w.E R E E w.E E E E R w.r.r.r.r. .E E ..|.r.r.w.E E  . .E E E E E ..r.^ r.^ E ^ ^ E E E  . .w.R  .R R w.r.r.r.r.E R  .r. .R ",
".. . ...r.r. . .E  .r.|.r.r.r.w.w.r.w.^  .r.r.r.^ ^ R ^ w.|..X.X X|.w.R E r. X.X.X Xw.r.|.r. .R R R  ...r.r.r.^ r.r.^ R E r.r.r.w.^ R  .w.|..X.X.X|. .R  .r.r...",
" .r. X.X Xr.w. ... . .|. X X.X.X Xr.^ ^ r. X X X|.|.|. X|.t. X.X X X|.r...|. X|.|.|. X.X X|...R T R E |. X.X.X.X X|.^ E r.|..X|. Xr.|. X Xt.|. X X X|.r.w.|...R ",
"R r.|.|. X.X X|.|.r.r.|..X.X.X X X X Xr..X.X.X.X.X X.X.X.Xr.r.r.r.r. X Xr.|.|. X|.|.|.|..X.X X~ L T ^  X.X.X.X X.X X|.r..X.X.X.X X.X.X.X.Xr.t.r.r.r..X|.r.r.w. .",
" . . . .|..X.X.X X X|.|..X.Xr.r. X X.X.X.X.X.X.X.X.X.X X|.r.w.r.^ w. X.X Xr.|..X|.r.w.^ |..X.X~ A T  X X.X.Xr.r.|..X.X.X.X.X.X.X.X.X.X X|.r.w.r.R w. X.X.Xr.w.w.",
"R R  .r.r.r.r.r.r.r.w.r.r.r. X X.X Xr.w.r.r.r. X X.X.X.X.Xr. .r.R ^ r..X Xr.r.w.r.r.^ r.r.|.r.Y A Y ^ ^ ^ r. X.X X Xr.r.r.r.|.|..X.X.X.X Xr.w.r.R R r..X.Xr.R T ",
"R R  .r.r. .w.w.^ ^ ^ ^ R ^ r. X X Xr.r.w.r.r.w.|..X X.X.X|.r.|.r.w. X.X.Xw.E w.r.r.^ |.r.E ^ Y A Q ^ ^ ^ ^ r. X X|.r.r.r.^ r.r.r..X.X.X.Xr.r. Xr.r. X.X.Xw.R T ",
"R R r.r.r.E ^ ^ ^ R ^ ^ E E R r.|.|. X.X.Xr.r.R .. X.X.X.X.X.X.X|. X.X.X XE w.r.r.r.w.r.r.E E P A T ^ E E ^ ~ r. Xr. X.X Xr.^ ^ w. X.X.X.X.X.X.X X|..X.X X .T  .",
"R E  .r.r.w.^ ^ R ^ ^ ^ w.r.r.r. X X.X.X.X Xr. X.X.X.X.X X X X Xr.w.w. X.X|. X Xr.r. .r.|.^ E P u T ^ E ^ r.r.|. X X.X.X.X.X|. X.X.X.X.X X X X Xr.w.r. X X|.r. .",
"E E w.|.|.|.^ ^ w.r.r.r.r.|.|..X.X X.X.X.X X X.X.X.X.X X.. X X X .~ ^ r. X X.X.X|.r.w.|..X|.^ Q u ~ |.^ r.|. X.X.X X.X.X.X X X.X.X.X.X Xr.r..X Xw.~ R r..X X.. .",
".. .w..X.X.Xr.r.|. X.X.X X|..X.X.X|. X.Xr.|..Xr. X.X.Xt. . X.X.Xr.T ^  X.Xw.r..X.Xr.w..X.X.X|.Q u ~ .X.X X|..X.X.X|..X.Xr.|..Xr. X.X.X Xw.r..X.Xr.T E |..Xw. . .",
"R E  .|..X.X.X|.w.r. X.X|.|..X|.r..X.X.X X.X.X X X.X.X.X X.X.X.X|.r. X.X.Xr.r. X|.r.w.r..X.X.X8.u P ^ .X Xr..X Xr. X.X X X.X.X X X.X.X.X X.X.X.X|.r. X.X.Xr. . .",
"R E r.r. X.X.X X^ ^ r..X|.r. X|.r..Xr.r..X.X.X|. X X.X.X.X.X.X.X X.X.X.X X X|. Xr.r.r.r. X.X.Xw.W ! ~ .X|.r. X|.r..X|.r. X.X.X|. X X.X.X.X.X.X X X.X.X.X X|.r. .",
" ...|..X.X.X X X.Xr.r..X Xr. X.X Xr.w.R r..X.Xr. .r. X X X.X.X|.r.r.|.r.r. X X.X|.|.|..X.X.X Xr.^ z.z..X|.r.|..X.X|.^ ^ r..X.Xr.w.r. X X.X.X.X|.r.r.|.|.r. Xr.r.",
" ....X|..X.X X X.X.X X X|. X X.X.Xw. . .w.r.r. . .r.r.r...|.|. X X|. XR T } } T R w..X X X.X X X Xz.Q Q w. X X.X.Xr.^ ^ ^ r.r.^ w.r.r.r.r.r. X X X|. X X.X.Xr...",
"R r. Xr.r..X X X X X Xr.r. X X.X.Xr.r.w.w.w.r.w.w.r.r.r.w.r. X.X X|.(.} _ ] ` ) } .. Xw. ..X X X.X^ Q A Q r..X.X.X^ E ^ ^ E |.^ r.r.r.r.w.r.|..X.X.X.X X.X.Xr. .",
" ...w.E  .r.r.r. Xw.^ ^ ^ w. X.X.X X|.r.r. X.X X X.X.X.X.X.X.X.Xr.e.X.`.{.].].'.{.`.] J Y r.r.|. X^ ~ F A ~ |..X.X.X|.|..X|..X.X X.X X.X.X.X.X.X.X.X.Xr.r.|.r.r.",
" .r.r.w.w.w.r.r.r.w.w.r.^ ^ r..X.X.X.X|.r.r. X.X.X.X.X.X|. X .T (.`._.[.{.].`.'.}.{._.).} U  .r.|.^ ~ ~ ! Q r..X.X.X.X|.r.|..X.X.X.X.X.X X X X.Xr.r.|.r.w.w... .",
" .r..X|.r.r.r.r.w.r.r.|.w.^ r..X.X X X Xr.r. X X.X.X.Xr. . .} K _.}.{.]._.^.' /.'.[.].}._.K T ^ ^ ^ |.|.;.;.r..X.X|..X|.|.^ |..X.X.X.X Xw.r.|..Xr.w.r.r.r. . ...",
"w.r.r..X.X.X|. X Xw.^ ^ ^ w..X X|.|. X.X.X.X.X|.|..X.X .P | _.].].'.'.`.^.V V ` ] ] ^././.^.V J |.^ E E ! ! Q ^ |.|.|..X.X.X.X|.|. X X X.X.X.X.X.X.X.X.X.Xr.r. .",
" .r..X.X.X X X.X.X Xr.r.r. X.X.X|.r.r..X.X|.r. X X|.w.R ` ).[.{.).` ( ` ` V C ) ` _ C N ) /.] X..X^ R r.Q W Q ^  Xr.|..X|.|.|..X X X X|. X X X|. X X X.X.X|.....",
" .r..X|. X X X X.X.X.X.X.X.X.X.X.Xw.r.r.w.w.w..X X} R } /.'.].`.' M * m I [ ) _ _ ( B < M ^.'.].).U Y ..Q u A ~ .XE r.|.r.E E .X.Xr.r.w.^ w.r.r.r. .w. X.X Xr. .",
" ...r. X X.X Xr.r. X.X.X.X.X Xt.r.r.w.w.w.r.|.|. .U /.).' ^.).'.| V B J C V C I ) ) V N I ^.^.^./.^.I V Z u ! ~ r.r.E r.^ r.|..X X^ w.r.r.r.r.w. . .r.|. X X . .",
" . .|. X X|.|.r.r.|.r.r. X.X.Xr.r.|.r.r.r. Xr.{ { ( ] ' U I ' `.^.) U K K C U U ( U K K [ ' ) I ` ) ( N q u p 8.|.|.r...r.|..X.X|.^ ^ w.r.w.^ ^ E E |.|.|.|...E ",
"E r. X.Xr.E r.r.|.r.r.^ r..X X X|..X X|.t. Xr.K I _ K N m N [ /.' ) I J C ) ( I K K U I _ ` K G V N N J A u p Q |..X.X X.X.X.X.X|.r.^ ^ ^ ^ ^ E E .. X|.|.|...E ",
" .r. X|.r.R R ...X.X X X.X X|. X.X.X.X|.U { | I V U K M 4 N ) ^.) J C [ ) C m 4 5 N K ) [ C M 4 2 5 N J ;.p W Z Y  X.X.X.X.X X X.X Xw.R R ^ r.r.r.r.|.|.|..X|...",
" .r. X Xr.r. ....X.X.X X X X|..X.Xr.}  .G K [ K V K K S 4 m V ) I J K ( ) G M m m B I ) U J M 4 & 2 5 N ;.f.D V I } .... X Xr. X.X.Xr.r.w.r.|.|..X|.|.|.|..X|.E ",
" ....X.X.X.X.X.X.X Xr.w.|..X.X.Xr.T J K K J J G V C K J S 4 4 J J J J C I U I U C C ( U K G G q & = ; A f.f.W U ' _ C P ..r. .|. X.X.X.X.X.X.X.X.X.X.X|.|.|.E E ",
"E  .|..X Xr. X.X X|.r.w.|..X.X.X .A m N J J J U ) ) K K V V J K J I I U K I H D C C K [ B ; 0 6 o o 6 p f.f.q S I C I U  .|. Xr.|..X.X.X.X.X.X.X.X|.|.|.|.r.E R ",
"R ..|..X|...|. X X|.r.w.r. X Xw.Y Z 4 N J J J ( ) ) ( K J J K K C I I I C C / 9 D S J U m o # @ . + e d.f.e > 5 G N B I P R ..r.|..X.X.X.X|.|..X.X|.|. X.X..E E ",
" .|..X.X Xr...|..Xr.^ r.r.w.^ P M N m m J J N J V K K J J m m K K J V C C V / a 9 w D G 4 o + .   + e d.e + # q N 5 m m 5 Z G r. X|..X.X.X.... X X.X.X.X.X|.|...",
"E r. X X|.|.|.|.|.|.r.E |.|.P Z m m m m V B N B N M 5 M V N N B V B N H C C $.x a w H C 4 @ # @   . @ $ X . 7 6 > m m m 2 2 m A Y  .|..X.Xr.r..X.X.X|...|..X|...",
"E  .|.|.|.|.|..X|.|..XE |.E Z 4 4 4 5 m B N N N N m 4 m V B B B H D N V V K / x a N V C M 6 > # X   . + X + 7 # = Z M m 4 2 4 : 5 P .. X.X X|. X.X X|...E .X|.E ",
"E  .r.r.|..X.X.X.X.X.X.X|.Y 3 : 2 * 2 4 m M m m m M N H N V V B k / ( V H H w 9 B V N V B m , - ; + + # > - = ; 5 m m 5 4 2 2 2 2 m T ...X.X|..X|.|.|.|..X.XE E ",
"E E w.^ r..X|..X.X.X.X|.P m 2 2 2 2 2 4 5 m m m m m N N M M N V a a S M M N 5 5 V N 5 B B m 4 3 m q < q 4 4 2 4 m m m 4 2 2 2 2 2 2 m Y |.r.|..X.X X|.|..X.X^ T ",
"E E E E ^ |.|.|..X.X|.E Z : 3 4 2 2 4 5 4 5 m m m m m m m 5 m B w w 5 5 5 m m m B m 4 M N m m m m m m m m m m m m m 2 2 ; 2 2 2 2 : ; m T E r. X.X.X|. X.X.XE T ",
" . .E  .^ ^ r.|..X.X..Y 5 2 2 2 2 2 2 2 4 5 m m 5 5 m 5 5 m m M m 5 m m m m m m M m m m m m m m m m m m m m m m 4 2 * & ; < 2 4 2 ; < : 4 E .X|......X.X.X|.|.E ",
" .......|.r.|.|.|.|.R m 2 : 2 2 2 2 2 < 2 5 5 5 4 5 2 2 5 m m m M M M m m m m m m m M m m m M m M m m m m m 4 4 4 2 2 * : 2 2 2 : ; * * 2 R .X XE  ..X|.....r.r.",
"E ..|. X X.X|.r.r.r.Y : * ; 2 : 2 2 < * 2 4 2 2 4 5 < < 5 5 m m m 5 m m m m m m m m m m m m m m m 4 2 m m 4 : : 2 2 2 2 2 4 < ; ; ; ; 4 Z E  X.X.... Xr.E r.E E ",
"Y  . X|.|. X X X Xr.T 4 ; ; * * 2 < 2 < & * 2 2 2 4 2 2 2 2 4 2 * & 2 4 5 m m 5 4 4 5 m m m 4 4 4 < ; ; : 4 2 : 2 2 2 2 2 < & * * 2 q F E r.|.|.|. X.Xr.|..Xr.R ",
"R  .r.r.r.|.r.r.r.r.E P Z : * * < 2 < < * < 2 2 2 2 2 2 2 2 2 4 * & 2 2 4 4 4 4 < 2 4 4 5 5 2 < : ; ; ; : 2 4 4 2 2 < * * * * & 2 Z F T r.|. X X.X Xr.r.r..Xr. .",
".. .w.r.|.r. .R E w.r.r.Y Z 4 : < * * * < 2 < 2 2 2 2 2 2 2 4 2 4 2 2 2 2 2 4 2 * < 2 4 4 2 4 < * ; : 2 2 4 3 : 2 2 < & & : 4 2 Z T R  . .|..X.X.X|. .E E r.r...",
"E .. X.X X|.w.w.r.^ w.|.r.E T A 4 * * * < * & & * : : < 2 2 2 2 2 2 2 < * 2 2 2 2 2 2 2 2 2 2 2 < 2 2 2 4 2 * * * < < * & 2 B R w.r.r. X X|.|. X X X|... .|.r.R ",
"R w.|.|. X.X|.|.|.r.r. X.X.Xr.T P F F S 3 1 , * * * * * ; 2 2 ; 2 < < < 2 < 2 2 2 2 2 < 2 2 < < < < 2 * < : - - 6 w w k Z L  . X.X.X.X.X.Xr.r.t.r.r..X|.r.|.r.E ",
" . .w.w.|..X.X.X X|. X|. X Xr.r.r. X Xr.o.k k w q A 3 0 3 * & * & & < < 2 < 2 2 2 < < < 2 2 1 < & & & ; < < q 0 i -.l.x.q.w. X.X.X.X.X Xr.r.r.w.w.R  X.X Xr.w.w.",
"R E w.r.r.r.|.r.r.w.^ r.r.r.|..X X Xr.e.a.F.L.J.b.b.b.j.:.9 = * * & < < 2 * * * * * * < * < < < < - , w ! o.j.b.F.%X&XOXi.w.|. X X.X.X.X.Xr.w.r.R  .r..X.Xr.R T ",
"R R w.r.r. .w.w.^ ^ ^ ^ R ^ r. X.X|.r.y.v.=X5X5XeX1X1X;XF.%.7 6 , 0 / / a < & O O O & 1 w 0 , O , 7 i -.b.b.;X1X1X2XwX=Xi. . ...r..X.X.X.Xr.r. Xw.w..X.X Xw.R Y ",
"R w.w.r.r.E R ^ E ^ ^ ^ E E R r. X|. XoXv.&X5X5X5XeXtXeXW.g.j r % c Z.Z.>., o o o o o a >.>.9 $ 8 j 2.b.1XyXeXeX5XeX3X@Xp.w.w. .r..X.X.X.X.X.X.X.X X.X.X XE R R ",
"R {  .r.r.r.E E R E ^ E w.r.^ |. X|..X.XD.&X4X5XeXyXyX;Xb.-.j t t >.6Xn.l % $ $ $ $ $ s n.U.x % 8 &.2.2.1XuXyXrXeX5X3X=Xs.r.r.r..X.X.X.X.Xr. X Xr.w.r.r..X|.r. .",
"E E w.|. X|.w. .w.r.r.r.r.|. X.X.X X XoXv.&X5X5XeXtXtX%X-.&.k y y n.9Xn.8 % % % % % % 8 n.qX4.t t &.*.v !.uXyXrXeX5X3X=Xs.r. X.X.X.X.X.Xr.r. X Xw.R 9.r..X Xr. .",
".. .w..X.X.Xr.r.|. X.X.X X X.X.X.X|. XoXv.&X4X5X5XeXyX%Xb 2.*.s t ,.9Xn.$ % % % % % % $ 7.qXn.j h z z &.!.uXrXrXeXeX4X=Xi.e..Xr.|..X.Xr. .r..X.Xw.R  .|..X . . .",
"R E  .|..X.X.X|.^ r. X.X|.r..X Xr. X.XXXc.$X4X4X5XeXuX%X&.&.v s y 3.9Xn.$ % % % % % % % 6.9X7.j j j k =.!.yXyXrXwXwXwX=Xs.t..Xr..X.X.X.X X X.X.X|.r. X.X.Xr. . .",
"R  .r.r.|..X.X Xw.w.r..X|.r. X|.r..X|.y.c.$X4X5XeXeXuX%X-.v k g s n.9Xn.% % % % % % % 8 7.8X7.l j g j 2.!.rXtXrXeX4XwX=Xs. X.X|.|..X.X.X.X.X.X.X.X.X.X.X Xt.w. .",
"E ..|..X.X.X X X.Xr.r..X|.|.|..X.X|. .8.a.&X4X5X5XeXyX%X-.v j s s n.qXn.% s r % 8 8 t s n.8X7.x j s h g.!.rXrXrXeX4X3X=Xs.t..Xr. .r. X X.X.X.X|.r.r.|.r.|.|.r.w.",
"E ...X|..X.X X X.X.X X|. X X X.X.X..E e.c.OX3X4X5XeXtX%X2.v k d f n.9Xn.l s l x j f j l N.8Xm.x j s h 2.;XuXyXrXeX5X3X@Xi.w.r.w. .r.r.r.r.r. X X|.r. X.X.X.X|...",
"E r. Xw.r..X X X X.X|.r.r. X X.X.X..E e.c.P.<X4X5XtXtXQ.2.x j s l n.#XU.n.f l ,.z l z 4.U.6XC.x j t g 2.;XuXuXtXeXeX3X@Xi. . .e.r.r.r.r.r.r. X.X.X.X.X.X.X.X|. .",
"w.r.w.^ w.r.r.r.|.r.^ ^ ^ w. X.X.X X Xt.c.P.:X2XtXuXtXQ.2.x j s f n.8X#Xn.c t t y t s C.6XqXC.,.g t g 2.;XyXrXrXeX5X<XOXi... X X X.X X.X.X.X.X.X.X.X.Xr...|.|...",
"E r.r.r.w.r.r.r.r.w.w.r.^ ^ |..X.X.X.Xy.c.P.>X4XeXtXuX;X2.k h f f n.8X#Xn.,.x ,.3.z l S.9XqXZ.,.y t y -.%XyXtXtXrX5X3XOXi.e. X.X.X.X.X.Xr.|. X Xr.r.|.r.E r.r. .",
"R r..Xr.r.r.r.r.w.w.r. Xw.^  X X.X X XXXc.K.>X4X5X5XuX;X2.j s f f n.9XR.n.3.n.R.Y.6.c S.6X0XZ.3.y t y v %XuXyXyXrXeX<X@Xi...|..X.X.X.X Xr.r. X Xr.E r.r.r.E  ...",
"r.r.|..X.X X X|.r.r.w.^ ^ r. X X|.|. XXXc.P.-X3X5XtXtX;X,.h s f f n.7XR.N.,.S.0XR.h.f N.#X6XZ.,.y t g &.%XyXtXeX5X5X3X@Xs. X X Xt. X X X.X.X.X.X.X.X.X.X.Xr.r...",
"w.r. X X.X X X.X.Xr.r.r.w.r..X.X|.r.|.XXc.K.-X3X5X5XrXQ.x s s s f 4.6XY.n.n S.qXE.1.d N.8X6XZ.,.s y s z !.yXyXeX5X4X3X+Xp...r. X X X|.|. X X X X X X|..X.X|.....",
" .r..X X Xt. X X.X.X.X.X.X.X.X.X X ...y.a.K.-X3X4X5XtXW.l s s s d 1.#XY.n.3.Z.9XR.4.d S.9X6XC.,.h y s z W.yXyXwX5X2X>XOXi.9. ..X.Xr.r.w.w.w.r.r.r.w.r.|..X|.....",
" ...r.|..X.X Xr. X X.X.X.X.X.X Xr.r...9.:.G.-X<X2X4XwXW.x s s f f 1.Y.Y.N.,.n.9XR.4.f S.9X6XC.,.j g y k %XyX5X5X2X>X-XK.q.w. X.X Xw.w.r.r.w.w.w.w.w.r.|. X|.r.E ",
" ...|. X X|.r.r.r.|.r.r. X X Xr.r. Xr.e.5.B.@X:X2X4XwXQ.*.h y h f 1.I.R.A.,.C.8XR.4.f S.9X6XC.,.j s s j W.yX5X5X4X:XP.D.q.r. X.X X . .w.w. .E ^ E ^ |.|.|.|...E ",
"E r. X.X|.E r.|. Xr.r.^ r..X X X.X.X Xy.c.G.P.@X>X4X5XQ.2.h 9 s f ,.A.Y.Z.,.m.E.T.4.f S.7X8Xn.b f s 9 h L.eX5X5X3X-XG.5.i. X.X.X Xw.w.R 9.E E  .E E  X|.|.|...E ",
" .r. X|.w.R R r..X.X X X.X Xr. X.X.X.XXXc.b.P.@X:X3X5XQ.g.f t f l 1.N.H.M.n n.Y.I.,.j A.7X7Xk.c l s 9 h L.wX2X>X@XK.K.D.p.r. X.X.X X . .E E r.r.r.r.|.|. X X|...",
" ... X Xr.r.^ r..X.X.X X.X X X X.X.X.Xt.:.l.P.*X*X@X>X~.j.j 9 s f n M.N.4.b 4.A.N.n l A.7X8X4.f l s s f J.4X>X@XK.K.L.D.u...r. X.X.X|.r.r.r.|.|. X.X|.|.|..Xr...",
"E |..X.X.X.X X.X.X Xr.r.|..X.X.X.X X Xr.#.j.K.,XP.K.@XP.h.j t g d c M.M.4.b n k.M.b j N.#XE.1.d j g y h b.-X-XK.b.K.G.c.e... .|. X.X.X.X X.X.X.X.X.X.X X|.|.E E ",
"E E |..X Xr. X.X|. Xr.w.|..X.X.X|.r.r.r.r.a.G.P.~.@X&XF.&.j h y d b k.M.h.c n h.k.b f M.H.N.b d d g y g 4.K.*XP.G.V.6.:.t..X Xr.|..X.X.X.X.X.X.X.X.X..|.|...E R ",
"E ..|..X|...r. X X|.r.w.|. X X|.r.|.r.r.|.q.5.V.P.T.P.l.h k k y d c h.k.1.c b g.h.b f h.M.h.c d d s y g 5.F.P.L.V.l.:.+.t..X X..r..X.X.X.X|.|. X|.|....X.X..E R ",
".....X.X Xr.r.|..X|.E  . .r. ...r. X.X.X|.T Q 5.B.F.G.j.s h j y f c 1.g.n l b 1.1.c f n 1.1.c d d s s s l.K.V.x.l.5.$. .r... . X.X|..X.X.Xr.r. X.X.X.X.X.X.X|...",
"E .. X.X|.r.|.|.|.|... .|.|.|.r.|. X|.r.r.r.w.@.:.l.x.4.s g y y j b <.1.<.c b 1.1.b j n 1.1.c j s s y h 5.V.B.5.O.@.{ ^ r. X X Xr.r.|..X.X|.r. X.X.X Xr.|..X|...",
"E  ...|.|.|..X Xr. X Xr.|. X.X X|..Xr.w.|..X XT @.:.a.-.g y y g x ,.n <.<.c b <.1.b c <.1.<.b c j h g g &.5.a.$.Q R ^ w.r..X.Xr.r.r.|..X.X|.|..X.X X|. .E .X|.E ",
"E ....|. X.X.X.X.X.X.X.Xr.r..X X|..X Xt. X|.r.R E w.P D D i o.&.&.=.=.=.=.*.&.v -.&.&.*.-.-.=.=.-.O.o.i W L e.w.w. Xt.|.|.|.r.w.r.|.r. X.X.X X.X X|.|.|..X.XE R ",
"E E  . .r. X X.X.X.X.X|.r.r..X.X.X.X.X|..X Xr.r.r...R T Q Q @.8.0.0.@.L #.@.+.Q +.+.+.@.#.0.0.q.q.q.8.~ T R r.|..X.X X X.X|.r.w.r. Xr.r.r.r.|..X.X X|.|..X.XE Y ",
"E E E E r.r.r.|..X.X|...|.|..X.X.X|.|.|..X.X Xr.|..Xr.r... .....E E E R E E T Y R R Y Y R  .....|..X|..... X.X.X X Xr.|..X.X|.r.r. Xr.r.r.w.r. X.X.X|. X.X.XE R ",
"..E E E r.E |.|.|..X|.|.r.|. Xr.w.r.r.r..X.X.X|. X.X.X.X|. X Xr.E E .X.X|.|.|..X|...E E  . .r.|. X X X|.|.|. Xr.w.r.w.r..X.X X|. X.X.X.X|. X Xr. ....X.X.X|.|.E ",
"R E E E E E ..E ..E ......r...w.w.w. .r.r.r.r.r.r.r.|.r.r.r.r.r.R E |.r.E E ..|.|.E E E w. . . ...E  ...........w.w.w.r.r.r.r.r.r.r.r.|.r.r.r.r.R R ....E E E E ",
"Y T R E ^ r.E E R R R E E E R E r. . . .T R E r.w.w.E E E E  .r.R T E R Y R E E E E E E w. . .R R R R E E E R E w.w.r. .R R w.r.r.E E E E E w.r.R R E R T T T Y "
};
