/* XPM */
static char *__resized[] = {
/* columns rows colors chars-per-pixel */
"80 80 217 2 ",
"   c #0E0C0A",
".  c #110D0C",
"X  c #0E120B",
"o  c #13130A",
"O  c #181C09",
"+  c #161412",
"@  c #191616",
"#  c #1A1B14",
"$  c #241816",
"%  c #2D1D1B",
"&  c #1B2606",
"*  c #1D2B07",
"=  c #1A230C",
"-  c #1E2C08",
";  c #1F3108",
":  c #23260E",
">  c #202E09",
",  c #262D0B",
"<  c #223409",
"1  c #26330C",
"2  c #263B0A",
"3  c #293E0B",
"4  c #272616",
"5  c #33211E",
"6  c #392D1A",
"7  c #2B3412",
"8  c #283916",
"9  c #363716",
"0  c #282927",
"q  c #352421",
"w  c #3A2622",
"e  c #3D2B23",
"r  c #2F362D",
"t  c #3B3924",
"y  c #393B39",
"u  c #42371C",
"i  c #422E25",
"p  c #452D29",
"a  c #482F2A",
"s  c #443126",
"d  c #463228",
"f  c #4B332B",
"g  c #493A2A",
"h  c #51362D",
"j  c #523A2E",
"k  c #5B3E2E",
"l  c #553731",
"z  c #553D31",
"x  c #5C3C33",
"c  c #613E37",
"v  c #2B430B",
"b  c #2E4A0C",
"n  c #314E0D",
"m  c #34540E",
"M  c #365A0F",
"N  c #395D0F",
"B  c #2A4611",
"V  c #2C4A16",
"C  c #374816",
"Z  c #2F5217",
"A  c #345512",
"S  c #395412",
"D  c #365911",
"F  c #395C10",
"G  c #32531C",
"H  c #355C1A",
"J  c #3B591D",
"K  c #3D630E",
"L  c #3C6311",
"P  c #37631A",
"I  c #39651B",
"U  c #3D6D1D",
"Y  c #3F711F",
"T  c #384925",
"R  c #3A5A25",
"E  c #3A4733",
"W  c #3D6324",
"Q  c #3F7220",
"!  c #49471D",
"~  c #41650C",
"^  c #426B0F",
"/  c #46710E",
"(  c #4A750F",
")  c #4D7C0F",
"_  c #507E0F",
"`  c #406716",
"'  c #426A11",
"]  c #477516",
"[  c #4B7914",
"{  c #41751F",
"}  c #43791F",
"|  c #517F11",
" . c #484626",
".. c #50432B",
"X. c #445525",
"o. c #455A25",
"O. c #475A28",
"+. c #515829",
"@. c #4F4230",
"#. c #574333",
"$. c #5B4435",
"%. c #5C4936",
"&. c #5B4938",
"*. c #49533E",
"=. c #5B5735",
"-. c #65482D",
";. c #644334",
":. c #634239",
">. c #6A453C",
",. c #644B3C",
"<. c #6B4938",
"1. c #724C3B",
"2. c #69563C",
"3. c #78523A",
"4. c #7C543D",
"5. c #476726",
"6. c #436E23",
"7. c #4D6329",
"8. c #526C2C",
"9. c #427620",
"0. c #4B7426",
"q. c #457C21",
"w. c #4A7D25",
"e. c #4D782A",
"r. c #54782B",
"t. c #496836",
"y. c #5A7231",
"u. c #5E7932",
"i. c #6B643C",
"p. c #617D34",
"a. c #3F4142",
"s. c #484A47",
"d. c #50544F",
"f. c #684A40",
"g. c #754C42",
"h. c #6D5945",
"j. c #7C5144",
"k. c #745B46",
"l. c #766547",
"z. c #756A42",
"x. c #7D7246",
"c. c #796650",
"v. c #82593E",
"b. c #855A41",
"n. c #845844",
"m. c #8C5C49",
"M. c #82664B",
"N. c #89674B",
"B. c #946545",
"V. c #996947",
"C. c #95644A",
"Z. c #9B694B",
"A. c #84754B",
"S. c #846C54",
"D. c #8B6D51",
"F. c #9B6750",
"G. c #8B7356",
"H. c #947455",
"J. c #94775C",
"K. c #9A7A5B",
"L. c #A26E4F",
"P. c #A8744D",
"I. c #AC7552",
"U. c #AF7854",
"Y. c #B47A55",
"T. c #B87E55",
"R. c #967B64",
"E. c #9C7E65",
"W. c #9B7F68",
"Q. c #A07F62",
"!. c #52830F",
"~. c #578A0F",
"^. c #518717",
"/. c #5D9111",
"(. c #619611",
"). c #669D12",
"_. c #6BA512",
"`. c #6EA912",
"'. c #71AB11",
"]. c #75B213",
"[. c #79BA13",
"{. c #478022",
"}. c #498423",
"|. c #4C8A24",
" X c #55832A",
".X c #58872C",
"XX c #9C855A",
"oX c #9E875A",
"OX c #A4875E",
"+X c #BD8156",
"@X c #9D8064",
"#X c #9E816B",
"$X c #A38263",
"%X c #A78A63",
"&X c #AC8A64",
"*X c #A3856D",
"=X c #B08D67",
"-X c #B18F6B",
";X c #AA906C",
":X c #B4916D",
">X c #A88B73",
",X c #B69576",
"<X c #B99674",
"1X c #BB9877",
"2X c #BC9B7C",
"3X c #C58A56",
"4X c #C68A57",
"5X c #C28558",
"6X c #C98C5A",
"7X c #CE9059",
"8X c #D1935A",
"9X c #C09F7F",
"0X c #BF9E81",
"qX c #C09F82",
"wX c #C2A285",
"eX c #C5A689",
"rX c #C8A98C",
/* pixels */
"Z P { U Y Y Y { { U Y Y } } } Y Y 9.9.{ U U Y q.q.{ } } Q U U U Y 9.9.{ U 9.{ U P U Y Y Y Y Y Y Y U U Y 9.} } Y Y } 9.} U U Y 9.9.{ q.9.{ U U Y Y Y 9.Y Y 9.U H ",
"I U { { 9.9.Y Y Y Y Y 9.9.} } Y Q 9.{ { U Y 9.9.Y Y Y Y Q 9.q.q.q.9.{ Y { q.{.q.9.Y { { { { Y U P U U } 9.Q 9.Y Y 9.Y Y Y Y { } 9.U Y U U 9.q.q.q.9.{ Y Y q.{ U ",
"q.} { } {.q.Y Y Y Y q.{.q.q.9.9.9.9.Q Q { 9.q.9.Q Q U Q Q q.|.|.|.{.{ U { q.}.|.|.{.9.q.{.q.Y H V P { {.{.q.9.Q Q q.Y Y Y Q q.9.9.Q U { 9.{.|.|.|.{.{ Y Y q.} } ",
"{ } }.|.}.{.9.{ } } } {.}.|.|.|.}.{.Q Q q.}.|.}.{.{.}.{.}.}.}.}.}.}.{.q.{ {.}.{.}.{.}.|.|.q.Y G 8 H } q.}.|.|.|.|.{.Q Y {.}.|.|.{.{.{.}.}.w.{.}.}.}.{.} } }.} Y ",
"U 9.w.{.}.|.}.{.{.q.q.}.|.|.|.}.}.|.{.{.|.|.|.|.|.}.|.|.|.q.q.{.q.q.|.{.q.{.{.}.{.{.{.}.}.}.Q G V W {.}.|.|.|.|.}.}.}.{.|.|.|.|.|.}.|.|.|.q.q.q.q.q.|.{.q.w.9.{ ",
"{ { { { {.|.|.|.}.}.{.}.|.|.q.q.q.|.|.|.|.|.|.|.|.|.|.}.{.q.9.q.Q Q }.|.}.q.{.|.}.q.Q Q {.}.W G G Q }.}.|.|.q.q.{.|.|.|.|.|.|.|.|.|.|.}.{.q.q.q.Y 9.}.|.}.q.9.9.",
"U { { } q.q.q.q.q.9.Q 9.9.q.}.}.|.}.{.9.q.q.{.{.}.|.|.|.}.q.9.9.U U {.|.|.q.9.q.q.} Y q.{.Y H G R Y Q Q Q q.}.}.|.}.{.9.q.q.{.}.|.|.|.|.}.q.{ 9.U Y q.|.|.q.U I ",
"U U { q.q.{ { 9.Q Q Q Q Q Q q.}.}.}.q.9.q.9.q.9.{.}.|.|.|.{.{.{.9.q.}.|.}.9.Y 9.{.q.Y {.{.Y G Z G P Q Q Y Q q.}.}.{.q.q.9.q.9.Q q.}.|.|.|.{.w.|.9.q.}.|.|.{ U P ",
"U Y { {.q.Y Q Q Q Y Y Q Y Y Y 9.{.q.}.|.|.q.9.Y } }.|.|.|.|.|.|.|.w.}.|.}.Y Q q.q.9.9.{.q.Y P Z V P Q Q Q Q Q Q }.{.}.|.|.{.Q Q 9.}.|.|.|.|.|.|.}.}.|.|.}.Y U U ",
"U Y } q.q.9.Y Q Y Q Y Y 9.q.Q {.|.{.|.|.|.}.q.{.|.|.|.|.}.}.}.}.q.9.9.}.|.{.}.|.q.9.9.q.q.9.Y H V U Q Q Q {.Q {.}.{.|.|.|.|.{.}.|.|.|.|.}.}.{.}.q.9.9.{.}.{.q.{ ",
"U Y 9.{.}.{.Q Q 9.9.q.q.q.{.|.|.|.{.|.|.|.}.}.|.|.|.|.|.} {.}.}.Q U Q q.|.{.|.|.}.9.9.{.}.{.9.U P Q Q Q {.{.}.|.|.}.}.|.|.}.}.|.|.|.|.}.q.q.{.|.Q Q U {.|.}.q.} ",
"} Y 9.|.|.|.q.9.{.|.|.|.}.}.|.|.|.{.|.|.q.{.|.{.{.|.|.{.{ {.|.|.9.U Y }.|.9.q.}.|.{.{ |.|.|.q.9.{.Q {.Q {.{.|.|.|.{.}.|.q.{.}.q.}.|.|.}.9.{.|.|.Q U Y {.|.9.{ { ",
"Y Y { {.|.|.|.{.9.9.}.|.{.q.|.}.q.}.|.|.|.|.|.{.}.|.|.|.}.|.|.|.}.q.}.|.|.q.w.{.{.9.9.q.|.|.|.{.Q q.Q R W Q |.{.q.}.|.}.}.|.|.}.}.|.|.|.}.|.|.|.}.{.}.|.|.q.{ Y ",
"U Y } q.}.|.|.}.9.Q q.|.{.q.}.{.q.|.{.q.|.|.|.}.}.|.|.|.|.|.|.|.}.|.|.|.}.}.}.{.q.q.q.q.}.|.|.}.Q Q W G G W }.{.q.|.{.q.|.|.|.{.{.|.|.|.|.|.|.|.}.}.|.|.}.{.9.{ ",
"Y q.}.|.|.|.}.}.|.{.q.|.{.{.{.|.}.{.9.U q.}.|.9.{ q.{.|.|.|.|.{.q.q.q.q.q.}.|.|.}.{.}.|.|.|.}.}.|.{.Y {.G T q.}.|.}.Q Y q.|.|.9.9.q.{.}.|.|.|.q.q.q.q.}.q.}.{.9.",
"Y } |.{.|.|.}.}.|.|.}.{.}.}.}.|.|.q.Y Q 9.q.q.9.Y } q.w.9.q.}.}.}.{.}.Q I ] ] I U 9.|.{.|.|.}.}.|.}.}.{.W T R q.|.9.Q Q Q q.{.Q 9.9.q.w.q.q.}.}.}.{.}.}.|.|.{.9.",
"Y } }.9.q.|.}.}.|.|.{.9.{.{.}.|.|.q.} 9.9.9.9.9.q.q.w.q.} q.{.|.}.}.w.] / !.( ' ] } }.Q 9.|.}.}.}.|.}.Q Y W r W |.Q Q Q Q Q {.Q w.9.q.9.9.q.}.|.|.|.|.|.}.|.{.{ ",
"} } 9.9.9.q.q.{.}.9.Q Q Q 9.}.|.|.}.}.q.q.}.|.|.}.|.}.|.|.|.|.|.q.] | ).].'._._.].)._ D P q.q.{.}.Q Q Q U W E W |.|.{.{.}.}.|.|.}.|.|.|.|.|.|.|.|.|.|.} 9.}.{.} ",
"{ q.q.9.9.9.q.q.q.9.9.q.Q Q {.|.|.|.}.{.q.q.}.|.|.|.|.|.{.}.} P ^.).).'.]._._._.[.].)./.[ P { q.{.Q Q {.Q W r W }.}.}.{.Q {.}.|.|.|.|.}.}.}.|.}.{.q.{.} { 9.q.} ",
"U q.|.{.q.q.q.q.9.9.q.{.9.Q {.}.|.}.|.}.q.q.{.|.|.|.|.{.U } ] L (.[.].`.(.!.) !._.'.'.].(.N I Q Q Q {.}.Q P r G {.}.|.}.{.{.{.}.|.|.|.}.9.q.}.}.} Y q.{.q.Y { { ",
"9.q.w.|.|.|.{.{.w.9.Y Y Q 9.|.}.{.{.}.|.|.|.|.{.}.}.}.{ P [ (.`.`._.`.).!.m N / | !.!.~.~.!.m D {.{.Y Y Y H 8 R Y }.}.|.|.|.|.{.{.}.}.|.|.|.|.|.|.|.|.|.|.q.} { ",
"} } }.|.}.|.}.|.|.}.{.q.9.}.|.|.{.q.{.|.}.}.{.}.}.}.{ ` / /.'.]./.] ~ / ( M N / ( ^ K n ^ ~._ | ^.U U } q.9.E W } Q }.}.}.}.{.}.}.}.}.{.}.}.}.|.|.}.{.|.|.{.q.} ",
"Y q.|.}.}.}.}.}.|.|.|.|.|.|.|.|.}.9.9.q.q.{ 9.}.}.} U ] ~._.'.).) b * b L ^ ^ / / ~ m > b ~._.`.~.L P {.}.e.d.t.{.Y q.{.q.Q Y |.|.q.{.9.Q 9.q.q.} 9.9.}.|.{.q.} ",
"} } q.}.}.|.}.q.q.|.|.|.|.|.}.}.q.q.9.9.9.q.{.{.{ L ~./.) _ /._.| M m m F N N K ^ ~ M n N !.!.!.~.!.K M H R s.t.} q.q.Q Q q.}.|.}.Q 9.q.q.9.9.9.Y Q {.{.}.}.} { ",
"Y } {.}.}.}.q.q.{.{.q.9.}.|.}.q.q.{.q.q.w.{.w.` L ^ ) ) K K [ _.!.K ' F D N L L ' L N M ^ ) ^ ~ ( ^ K n T E y R }.}.q.9.q.{.|.|.{.Q Q 9.q.9.Q Q Y Y {.{.{.{.} Y ",
"Y q.|.|.{.Y Q {.{.{.9.Q {.}.}.}.}.|.}.{.}.{.} N K ( F n v m K ~.) ^ L F M ^ ^ F F F K L / ( M A m n n H *.s.8 H {.}.|.}.|.|.|.|.}.Q Q Y Q Y Y Y Y Y }.}.{.{.{.Y ",
"Y q.}.{.Y Y Y } |.|.|.}.|.}.q.}.|.|.|.{.P ' [ K M L F b 2 b ^ !.^ M N ~ ^ N v 2 2 n L ' ' F n 2 < 3 C s.d.*.L F P }.|.|.|.|.}.|.|.}.9.Y U Q 9.q.} {.} }.}.}.{.Y ",
"{ q.}.{.{.9.Y q.|.|.}.|.}.|.{.|.|.} } { A N ' F D F F n 3 v m ^ L D F ^ ^ M v v v n K ' L D b 2 & < E d.s.R ] K K ] } } }.}.q.{.|.|.{.9.9.{.{.}.}.}.}.{.{.|.{.Y ",
"Y q.|.|.|.|.}.|.|.}.q.9.{.|.|.|.} I D F F D D A M N F D n 2 3 D D D D F K F L ^ N N ~ L D A b 8 * 4 y d.T V K / ) ' L F } q.Q {.|.|.}.|.|.|.|.|.|.|.|.}.{.{.} Y ",
"U } {.|.}.} }.|.}.{.{.9.{.|.|.|.9.n B n D D F K ^ ^ K S m m A F M L K K F K ! C S M L ~ A - 7 4 O 0 a.a.0 = 2 m L L F L { {.}.q.{.|.|.|.|.}.|.|.|.}.} {.}.Q Y U ",
"Y } {.|.{.} q.}.}.{.q.9.{.|.}.9.H B 3 n D F D K ^ ^ L F D M F F M L K K M K C 6 C S A L v X @ @ . 0 y r @   = v A n m N P U 9.q.{.|.|.|.|.{.{.|.|.}.{.}.|.q.Y Y ",
"{ {.|.|.}.{.} }.|.{.Q Q 9.9.Q H b n v v A m m S F F F F D b b M F M M N N N ! u 6 6 C D 2 X @ .   @ 0 0 @   @ 8 m v v v 3 B A q.}.{.|.|.|.q.} }.}.|.|.|.}.}.{.} ",
"Y q.}.}.{.q.{.{.{.}.q.Y {.{.H V v b v v m M n m m b 3 b m n n M S m n m N N +.k u 9 m M 3 # # +   . @ @ X + 0 4 - 2 v v 2 2 v V H { {.|.|.{.q.}.|.|.|.} {.}.}.} ",
"Y Y {.{.{.}.}.}.{.}.}.} }.Y v 2 2 2 2 v n n b n n v < v m m m m S C m m N M ! k u n N N B 4 # + X   X   X # 4 # = v b v ; 2 < - v H } }.|.}.{.}.|.}.{.Y Q |.}.Y ",
"Y { {.q.}.|.|.|.}.|.|.|.q.P 1 ; < * ; 2 b b v v v b m m m S M n  ...N m S S u 9 m m n N m v : = - # @ # = = = * 2 v v v 2 < < < 2 2 P q.|.|.}.|.}.{.{.{.}.|.Q U ",
"Y Y Q Q q.}.}.}.|.|.}.{.H v < < < > < 2 v v v v v v n n b n n M u u n n v b 3 3 N b v m m v 1 1 2 1 1 1 2 ; ; 2 v v v ; < < < < < < v H q.q.{.|.|.}.{.{.|.|.Q P ",
"Y Y Y Y Q {.{.{.|.|.}.Y B - 1 < < < 2 2 2 v v v v v v v 3 3 b m 9 9 3 3 v v v b m v 2 b b v v v B v v v b v v v v v < < ; < < < < ; ; v P Q {.}.|.|.{.}.|.|.Y U ",
"} Y Y } Q Q q.}.}.|.} P v < < 2 < 2 < < < v v v v 3 3 3 3 v v b v v 3 3 v v v v b v v v v v v v v v v v v v v v 3 < * & - < < < < - - < 2 Y }.{.{ } |.|.|.{.{.} ",
"{ } } q.{.{.{.{.{.}.U v < - < < < < < > 2 2 v 2 3 3 < < 3 v v v b b b b v v v v v v b v v v v v v v v v v v ; v < < ; * < < < < ; - * ; 1 U |.}.Y } }.}.} } Q Y ",
"Y { {.}.}.}.{.q.q.q.P ; * * < < < < > > < < < < < v > > 3 3 v v 3 3 v v v v v 3 v v v v v v v v v v ; v v 2 < ; < < < < < < < - * * ; ; V Y }.|.} } }.q.Y q.q.Y ",
"P Y }.{.{.}.}.}.}.{.P 2 ; * & - > < < > & * < < < 2 < < < < 3 3 > & > 2 2 v v 2 2 2 2 v v v 2 2 < < - * ; 2 < < < < > < < > * & * 1 2 H Y q.{.{.}.}.|.{.{.|.q.Y ",
"U { q.q.{.{.q.q.q.q.Y H B ; & * > > > > * > < < < < < < < < < < > & > < 2 2 2 2 < < 2 2 2 v 2 > ; - * - < < 2 < < < > * * > * & ; B Z P Q {.}.}.|.}.q.9.} |.{.Y ",
"} { { q.{.q.Y Y 9.9.9.q.P V 1 ; > * * > > > > > < < < < < < < < < < 2 < < < 2 < > > 2 < < < 2 > * - < < < < < < < < > * & ; < < B P U 9.Q {.|.|.|.{.{ Y Y q.q.} ",
"Y q.}.|.}.q.9.{ 9.9.9.q.q.Q P Z 3 & * * * * * * * - ; < < < < < < 2 < > > < < < > < < < < < < < < < < < 2 < * & * > > * & < M U } q.w.{.|.{.{.}.}.{.{.9.} {.} Y ",
"Y 9.{.q.}.|.}.{.}.q.q.}.|.|.9.I H A A Z 3 , : & * * & ; - ; ; ; > > > > > < < < < < > < < < < < > < - * ; ; * = : 9 9  .B G { }.|.}.|.|.}.q.q.{.q.q.|.{.{.q.9.{ ",
"{ { 9.9.{.|.|.|.}.}.}.{.|.|.q.q.q.}.{.9. .g g 9 8 V 1 1 7 > & & & * > > < < < < < > > > < < > > & & & * ; 1 8 7 t &.k.l.8.q.}.|.|.|.|.|.}.q.q.9.Y Q }.|.}.q.9.9.",
"U U 9.q.q.q.q.q.9.9.9.9.9.q.}.}.}.}.{.0.i.A.J.G.c.c.c.h.=.6 = & * * * < > > * * * * * > & & * > > & : t r @.h.c.S.W.*XXXy.{ {.}.|.|.|.|.}.q.9.q.U Y w.|.|.9.Y I ",
"U Y 9.{.q.{ 9.9.Q Q Q Q Q 9.q.}.}.{.q.e.x.*X2X2X0X>X>X*XS.@.4 4 : 7 ! ! 9 , O O O & & , 9 6 : : : 4 t &.c.c.#X>X>X0X1X%Xy.6.} } q.|.}.|.|.{.{.{.9.} }.|.|.Q U P ",
"U { { } q.Y Y Y Y Y Y Q Y Y Y 9.}.{.{..XA.$X2X2X2X9XwX0XR.h.d q % h V.B.-.$ o o o o O u -.-.5 $ % g ,.c.>XwX0X0X0X0X<XoXu.0.{ U 9.|.|.|.|.|.|.|.|.}.|.|.}.Y U Y ",
"U U } } q.9.Y Y Y Q Q Y 9.q.Q }.}.{.}.|.x.$X2X2X0XeXeX*Xk.&.d w w <.+XB.h % $ $ $ $ $ i v.I.k % 5 x ,.,.>XrXeXwX0X,X1XOX.Xw.q.}.|.|.|.|.}.{.}.}.} { 9.{.}.{.9.9.",
"U { } {.|.{.9.{ 9.q.q.9.q.}.}.|.|.}.|. Xx.$X2X1X2XeXeXR.f.#.g e i 1.4Xv.6 % % % % $ % % v.8X1.w e #.$.z W.rXwXqX0X2X,X%Xu.w.}.|.|.|.|.}.q.w.}.}.Q U Y {.|.}.q.} ",
"} } 9.}.|.|.q.9.{.}.|.|.}.}.|.|.|.}.}..Xx.$X2X2X2X0XrX#Xx &.$.i i <.4Xv.$ % % % % % % $ v.8Xv.a a f z #.W.rXwXqX0X0X2X%Xy.q.}.{.}.|.|.{.{ {.|.|.9.U Y }.|.9.{ } ",
"U { } {.}.|.|.{.9.9.}.|.{.{.|.{.} |.|. Xx.@X,X2X2X0XrX#X#.#.z a w 1.6Xv.% % % % % % % % 4.6X4.f f f j $.W.eXeXqX9X9X2X%Xu.w.|.}.}.|.|.|.}.}.|.|.}.q.}.|.|.q.{ Y ",
"U { } w.}.|.|.{.9.Q q.|.{.q.}.{.} |.{.w.z.XX1X1X0XqXeX#X&.z g i i 3.7Xv.% % % % % % 5 5 4.5X4.h f s f ,.W.wXwXwX9X9X1X%Xp.}.|.}.{.|.|.|.|.|.|.|.}.}.|.|.}.}.9.{ ",
"U 9.{.}.|.|.}.}.|.{.q.|.{.{.{.|.|.}.} 5.z.E.1X2X2X0XeX#X&.z f i i v.6Xv.5 6 5 5 5 5 i i v.5Xv.k f i d ,.$XqX0XqX9X2X1XOXu.w.|.9.} q.{.|.|.|.|.{.q.q.{.q.w.}.q.9.",
"{ q.|.{.|.|.}.|.|.|.}.{.}.}.}.|.|.} Y 5.z.K.<X2X2X0XwX#X,.z g a a v.6Xv.h i f k f a f a b.3Xn.k h e d ,.*XeXeXqX0X2X1X@Xy.9.w.9.{ 9.q.q.} w.}.}.}.}.}.}.|.}.{.9.",
"Q q.}.9.q.|.}.}.}.|.{.q.q.{.|.|.|.} Y 0.z.K.:X,X2X9XwXW.,.#.h i h v.+XP.v.a h ;.j j j <.P.6XB.k d e s f.*XrXrXqX9X9X1XOXy.{ { { q.q.q.q.9.q.}.|.|.|.|.|.|.|.{.} ",
"9.q.9.Q 9.{.q.q.}.9.Q Q Q 9.}.|.|.}.}.w.z.J.-X<XwXrXwXW.,.j f i a v.3X+Xv.l w w i 5 i B.3X8XB.;.i w s ,.#XeXqX0X0X2X:XoXr.w.|.}.}.|.}.|.|.|.|.|.|.|.|.q.9.{.{.} ",
"9.9.q.q.9.9.q.q.q.9.9.q.Q Q {.|.|.|.|.w.z.H.:X<X9XwXrX*X,.j d a a v.3X+Xm.;.k ;.1.j h L.7X8XV.;.e e e &.#XrXwXeXqX2X,XoXy.{ }.|.|.|.|.}.}.{.|.}.q.q.{.9.Y 9.9.} ",
"U q.|.{.q.q.q.9.9.9.q.}.9.Q {.}.|.}.}. Xz.K.-X1X2X9XeX*X,.f i d a v.6XY.v.1.v.I.P.1.x C.3X7XV.;.e w e #.R.rXeXeXwX2X:XoXy.0.w.|.|.|.|.}.9.q.}.}.q.Y {.{.q.Q Y } ",
"9.q.}.|.|.|.}.}.{.9.Y 9.Q 9.|.}.{.{.}. Xz.H.-X<X2XwXwX$X:.d i d a v.3XY.n.;.V.6XT.>.a m.+X3XV.;.e e i z #XeXwX0X2X2X<XOXu.}.|.{.w.}.}.|.|.|.|.|.|.|.|.|.|.q.} } ",
"9.q.}.}.|.}.}.}.|.{.q.q.9.{.|.|.}.q.{. Xz.H.&X<X2X2XqXW.k i e d a 1.5XY.v.c V.8XT.>.a m.5X3XV.;.e e e #.#XeXeX0X2X1X<XoXu.q.{.{.}.}.{.{.}.}.}.}.|.}.{.|.|.}.q.} ",
"{ q.|.}.}.}.}.}.|.|.|.|.|.|.|.|.}.9.q.e.z.H.&X:X<X2XwXR.h i i i p <.+XP.v.;.V.6XY.1.a C.6X4XB.;.d e i j R.eXeX9X1X,X-XK.y.{ } |.|.q.q.9.9.9.q.q.q.} { }.|.{.} } ",
"{ } {.{.}.|.}.q.}.}.|.|.|.|.|.{.q.q.9.6.=.N.=X:X<X2X2XR.k i i p a >.I.I.m.1.v.6XY.g.f V.6X3XB.;.f s e g @XeX9X2X,X:X&XG.8.0.{.|.}.9.9.q.q.9.9.9.Q 9.q.{.{.}.q.Y ",
"{ } {.}.}.}.q.q.q.{.q.q.}.|.}.q.q.}.q.0.2.M.OX=X<X2X2XE.&.i i i a ;.L.U.C.;.B.5XY.1.f V.6X3XB.;.f i 6 d R.wX2X2X1X=XK.x.8.w.|.|.{.{ Q 9.9.9.9.Q Y Y {.{.q.{.9.Y ",
"Y } }.|.w.Y } {.{.{.9.Q q.|.}.}.|.|.}.e.z.D.K.OX:X,X2XW.,.a e d h ;.F.I.B.;.n.T.I.1.a V.4X5Xv.x a i i d J.wX2X2X<X&XD.2.y.}.}.|.{.} 9.Y Q Y Q Y Y { }.}.{.{.} Y ",
"{ q.}.{.} Y U 9.|.|.}.}.|.}.}.}.|.|.|. Xi.N.K.OX&X:X2X$X,.s 6 a h c m.F.n.;.v.I.Z.>.f C.6X4Xv.l f i i d J.9X<X:X%XH.H.A.u.w.}.|.|.}.9.Y Y Y 9.q.q.q.{.{.}.}.{.} ",
"{ q.}.{.q.q.Q q.|.|.|.|.}.}.{.}.|.}.|.}.=.k.R.%X%XOX:XQ.g.f w i a c m.m.g.x 1.C.m.c h C.5X4X>.p h i i i G.<X-XOXH.H.H.A.r.} } |.|.|.{.9.9.q.{.}.}.}.{.{.{.|.q.} ",
"Y {.}.|.|.|.}.|.|.{.q.9.{.|.|.|.|.}.}.w.O.h.J.;XQ.D.OXK.h.f e i p x n.n.g.x c j.n.x h m.T.T.>.p f s e s M.&X=XH.c.H.D.z.0.Y } {.}.|.|.|.|.|.|.|.|.|.|.}.q.{.} Y ",
"Y Y }.|.}.q.}.|.}.{.q.9.{.|.|.|.}.{.q.9.5.p.N.K.OXOX$XS.#.f d e i l j.n.1.h c g.j.x a n.F.m.x p f s e s f.H.%XK.D.N.3.=.}.|.}.q.q.|.|.|.|.|.|.|.|.}.q.{.{.} Y U ",
"Y Y }.|.}.Y {.}.|.{.q.Y q.}.|.{.q.q.q.q.}.8.2.N.K.Q.K.k.d g f e p l g.j.>.l x f.g.x a g.n.g.l p a i e s ,.S.K.H.N.k.=.O.w.|.{.} {.|.|.|.|.{.{.|.|.{.{.}.|.q.Y U ",
"Y {.|.|.}.q.} {.|.{.Y } q.9.Q } q.}.|.|.{.I X.2.M.N.D.h.s f d e a l >.f.c l x >.>.l a c f.>.l p i i i d k.H.D.l.k.2.+.U q.q.{ }.|.{.|.|.|.q.} }.}.|.|.|.|.}.{.} ",
"Y } |.}.{.q.{.{.{.{.} Y {.}.q.q.{.}.{.q.q.q.9.O.=.k.l.1.s i i e f c :.:.:.l x >.>.x f c >.:.l f i i e d 2.D.M.,...X.I { q.{.}.|.q.q.}.|.|.{.q.}.|.|.}.q.{.}.}.} ",
"Y } {.{.{.{.|.{.q.|.}.q.{.|.|.}.}.|.q.{ {.|.}.P o.=.i.%.t e e i j ;.x >.:.x x ;.>.x h :.>.>.x z f d t s #.2.i.+.R U { 9.w.|.|.} 9.q.{.|.|.}.{.|.|.}.{.Y Y |.}.Y ",
"Y } } } }.|.|.|.|.|.|.|.9.q.|.}.{.|.|.w.{.{.q.Q { 6.J C C t g #.#.%.%.%.%.%.#.#.%.#.#.%.&.,.%.%.#...g t T J 6.9.q.}.{.{.{.{.q.{ 9.{.q.}.|.|.}.|.}.{.{.{.|.|.Y U ",
"Y Y } Y q.}.}.|.|.|.}.}.q.q.|.|.|.|.}.}.|.}.q.9.} } Y P R J o.5.7.7.o.R X.O.X.T X.X.X.X.O.7.7.7.8.8.5.5.I U q.}.}.|.}.}.|.{.q.} q.}.q.q.q.q.{.|.|.}.{.{.|.|.Y I ",
"Y Y Y Y Y {.} }.|.|.}.Y {.}.|.|.}.}.{.{.|.|.}.q.}.}.{.q.9.{ } 9.Y Y Y U Y U I P U I P P U Y } {.}.|.}.} } }.|.|.|.{.{.{.|.|.{.q.{.|.{.q.9.9.q.}.|.|.{.}.|.|.Y U ",
"} Y Y Y } Y {.}.}.|.}.{.} {.}.q.q.9.} q.|.|.}.}.}.|.|.|.{.}.}.q.Y Y |.|.}.{.}.}.}.} Y Y Y { 9.}.}.}.}.{.} {.}.q.9.q.{ w.|.|.}.{.{.|.|.|.{.}.|.q.{ } |.|.|.{.} Y ",
"U Y Y Y Y Y q.Y Y Y } } } } } } 9.9.{ q.9.q.q.q.q.q.q.q.q.q.{.q.Y U } } Y Y } }.}.Y Y Y 9.{ 9.} } Y } } } } } } 9.9.9.9.q.q.q.q.q.q.{.{.q.q.q.q.U U } } Y Y Y Y ",
"P I Y Y q.Q Y Y Y U U Y Y Y U Y 9.} } { U U { q.9.Y Y { Y { { 9.U U Y U P U Y Y Y Y Y Y { 9.{ U U I Y Y Y Y Y Y 9.} 9.} U U { q.9.Y Y Y { Y 9.9.U U Y U P U P P "
};
