/* XPM */
static char *__resized[] = {
/* columns rows colors chars-per-pixel */
"80 80 222 2 ",
"   c #0B0A0A",
".  c #120E0C",
"X  c #0F100C",
"o  c #13130B",
"O  c #171C0A",
"+  c #191815",
"@  c #241816",
"#  c #2D1D1B",
"$  c #1B2606",
"%  c #1D2B07",
"&  c #1B240C",
"*  c #1E2C09",
"=  c #1F3108",
"-  c #1E2913",
";  c #23260E",
":  c #202E09",
">  c #262D0B",
",  c #223409",
"<  c #26330C",
"1  c #263B0A",
"2  c #293E0B",
"3  c #272616",
"4  c #33211E",
"5  c #392D1A",
"6  c #2C3511",
"7  c #283813",
"8  c #363716",
"9  c #272727",
"0  c #352421",
"q  c #3A2622",
"w  c #3D2B23",
"e  c #2C3627",
"r  c #3C3923",
"t  c #312F30",
"y  c #333434",
"u  c #42371C",
"i  c #422E25",
"p  c #452D29",
"a  c #482F2A",
"s  c #443126",
"d  c #463228",
"f  c #4B332B",
"g  c #493A2A",
"h  c #51362D",
"j  c #523A2E",
"k  c #5B3E2E",
"l  c #553731",
"z  c #553D31",
"x  c #5C3C33",
"c  c #613E37",
"v  c #2B430B",
"b  c #2E4A0C",
"n  c #314E0D",
"m  c #34540E",
"M  c #365A0F",
"N  c #395D0F",
"B  c #2B4511",
"V  c #2D4B12",
"C  c #2D461D",
"Z  c #334C12",
"A  c #384618",
"S  c #2F5316",
"D  c #345512",
"F  c #395412",
"G  c #365911",
"H  c #395C10",
"J  c #36561E",
"K  c #345C19",
"L  c #3D630F",
"P  c #3C6311",
"I  c #37621A",
"U  c #39651B",
"Y  c #3D6D1D",
"T  c #3F711E",
"R  c #2E4520",
"E  c #394B26",
"W  c #3A5925",
"Q  c #3B4632",
"!  c #3D6822",
"~  c #3F7220",
"^  c #49471D",
"/  c #41650C",
"(  c #426B0F",
")  c #46710F",
"_  c #4A750E",
"`  c #4D7C0F",
"'  c #507E0F",
"]  c #426A11",
"[  c #436A16",
"{  c #477616",
"}  c #4B7913",
"|  c #41751F",
" . c #43791F",
".. c #517F11",
"X. c #484626",
"o. c #50432B",
"O. c #445525",
"+. c #455A25",
"@. c #495B28",
"#. c #515829",
"$. c #4F4230",
"%. c #574333",
"&. c #5B4435",
"*. c #5C4936",
"=. c #5B4938",
"-. c #5B5735",
";. c #65482D",
":. c #644334",
">. c #634239",
",. c #6A453C",
"<. c #644B3C",
"1. c #6B4938",
"2. c #724C3B",
"3. c #69563C",
"4. c #78523A",
"5. c #7C543D",
"6. c #466727",
"7. c #436E22",
"8. c #4D6329",
"9. c #526C2C",
"0. c #427620",
"q. c #4B7426",
"w. c #457C21",
"e. c #4A7D25",
"r. c #4B7728",
"t. c #54782B",
"y. c #4B6A37",
"u. c #516838",
"i. c #5A7231",
"p. c #5E7932",
"a. c #6B643C",
"s. c #617D34",
"d. c #3E3D40",
"f. c #464944",
"g. c #4B5345",
"h. c #595E55",
"j. c #684A40",
"k. c #754C42",
"l. c #6D5945",
"z. c #7C5144",
"x. c #745B46",
"c. c #766547",
"v. c #756A42",
"b. c #7D7246",
"n. c #796650",
"m. c #82593E",
"M. c #855A41",
"N. c #845844",
"B. c #8C5C49",
"V. c #82664B",
"C. c #89674B",
"Z. c #946545",
"A. c #996947",
"S. c #95644A",
"D. c #9B694B",
"F. c #84754B",
"G. c #846C54",
"H. c #8B6D51",
"J. c #9B6750",
"K. c #8B7356",
"L. c #947455",
"P. c #94775C",
"I. c #9A7A5B",
"U. c #A26E4F",
"Y. c #A8744D",
"T. c #AC7552",
"R. c #AF7854",
"E. c #B47A55",
"W. c #B87E55",
"Q. c #967B64",
"!. c #9C7E65",
"~. c #9B7F68",
"^. c #A07F62",
"/. c #52820F",
"(. c #578A0F",
"). c #518717",
"_. c #568913",
"`. c #5D9111",
"'. c #619611",
"]. c #669D12",
"[. c #6BA512",
"{. c #6EA912",
"}. c #71AB11",
"|. c #75B213",
" X c #79BA13",
".X c #478022",
"XX c #498423",
"oX c #4C8A24",
"OX c #55832A",
"+X c #58872C",
"@X c #9C855A",
"#X c #9E875A",
"$X c #A4875E",
"%X c #BD8156",
"&X c #9D8064",
"*X c #9E816B",
"=X c #A38263",
"-X c #A98764",
";X c #A48E61",
":X c #AC8A64",
">X c #A3856D",
",X c #B08D67",
"<X c #B18F6B",
"1X c #AA906C",
"2X c #B4916D",
"3X c #A88B73",
"4X c #B69576",
"5X c #B99674",
"6X c #BB9877",
"7X c #BC9B7C",
"8X c #C58A56",
"9X c #C68A57",
"0X c #C28558",
"qX c #C98C5A",
"wX c #CE9059",
"eX c #D1935A",
"rX c #C09F7F",
"tX c #BF9E81",
"yX c #C09F82",
"uX c #C2A285",
"iX c #C5A689",
"pX c #C8A98C",
/* pixels */
"S I | Y Y 0.T | | Y Y 0.|  .| | T ~  .| Y Y T w.w.|  . .~ ! Y T T T | T T w.| Y I Y | Y Y | ~ Y U K I 0.w.T  .T T  .w.T Y Y T  .w.| | 0.Y Y Y Y 0.0.0.T | | Y K ",
"U Y | | 0.w.T T T T T w.w.|  .T ~ 0.0.T Y T T 0.T T T T ~ 0.w.w.w. .| T T w.w.w.w.0.| | | 0.~ I C I Y w.w.~ ~ T T w.T T T T T w.0.Y | Y | 0.w.w.w.0.| Y | w.| Y ",
" .| |  .w.w.| | | |  .w.w.w.w.0.0.w.~ ~ T w.w.0.~ ~ Y ~ 0..XoXoXoX.X| T | w.oXoXoX.X0.w.w.w.0.J 7 W w.w.w.w.w.~ T w.T T T w.w.w.0.0.Y | 0..XoXoXoX.X0.Y | w.w.| ",
"| w.XXoXXXw.0.|  .|  ..XXXXXoXoXXX.X~ ~ w.XXoXXX.X.XXX.XXX.X.XXXXXXX.X .| .X.X.X.X.XXXoXXXw.0.Y ! ~ 0..XXXoXoXoXoX.X~ T w.XXXXXX.Xw..XXX.X.X.XoXXXXX.X0.| .X| | ",
"Y w..X.XXXoXXX.X.Xw.w..XoXoXoXXXXXXX.XXXoXoXoXoXoXXXoXoXoXw.w.w.w.w.oX.Xw.w..XXX.Xw..X.XXXoX.X.XXX.Xw..XoXoXoXXXXXXXXX.XXXoXoXoXXXoXoXoXoXe.w.w.w.w.oXw.w.w.w.| ",
"| | | | .XoXoXoXXXXXXX.XoXoXw.w..XoXoXoXoXoXoXoXoXoXoXXX.Xw.0.w.~ 0..XoXoXw..XoX.Xw.0.0..XoXoXoXXX.XXXXXXXoXw.w.XXoXoXoXoXoXoXoXoXoXoXoX.Xw.0.w.T 0.XXoXoXw.0.0.",
"Y Y | w.w.w.w.w.w.w.~ 0.w.w.XXXXXXXXw.w.w.w.w..XXXoXoXoXXXw.0.w.Y 7..XoXoXw.w.0.w.w.0.w..Xw.w.w.~ w.~ ~ ~ w.XXXXXXXXw.~ w..XXXXXoXoXoXoXXXw.0.w.Y | w.oXoXw.| U ",
"Y Y | w.w.| 0.0.~ T ~ ~ ~ ~ w.XXXX.Xw.0.w.w.w.0..XoXXXoXoX.X.X.X| w.XXoXXX0.T | w.w.0.w.w.0.~ 0.~ ~ ~ T ~ ~ w.XXXXXXw.w.w.~ w.~ w.XXoXoXXX.Xw.XXw.0.XXoXoX0.U I ",
"Y Y 0..Xw.~ ~ ~ ~ T ~ T ~ T Y w..X.XXXoXoXw. .T  .XXoXoXoXoXoXoXXX.XoXoX.X0.0.w.w.w.0.w.w.~ T ~ ~ ~ ~ I I U T ~ XXw.XXoXoXXX~ T w.XXoXoXoXoXoXoXoX.XoXoX.X| Y Y ",
"Y T  .w.w.0.~ ~ Y ~ ~ T 0.w.w.w.XXXXoXoXoXXXw.XXoXoXoXoXXXXXoXXXw.0.w..XoX.X.XoXw.0.0.w.w.0.T Y ~ ~ ~ ~ R R ~ .XXXXXoXoXoXXX.XXXoXoXoXoXoX.XXXXXw.0.w..XoX.X0.| ",
"T T 0.w..X.X~ ~ 0.w.w.w.w..X.XoXoX.XoXoXoXXXXXoXoXoXoXXX .e.XXXX~ Y ~ w.XXXXoXoX.Xw.0..XXX.X0.0.~ ~ ~ ~ J R U .XXXXXXXoXXXXXXXoXoXoXoXoXw.w.XXoX0.Y Y w.oX.Xw.| ",
" .| 0.oXoXoXw.w..XXXoXoXXX.XoXoXoX.XoXoXw..XoXw.XXoXoXXX| XXoXoX0.Y ~ .XoX0.w.oXoXw.0.oXoXoXw.w.XXXXoXoX~ J C T oXXXXXoX.X.XXX.X.XoXoX.X| w.oXoX0.! | .XoX0.| | ",
"Y T | w.oXoXoX.X0.w.XXoX.X.XoX.Xw.XXoXoXXXoXoXXXXXoXoXoXXXoXoXoX.Xw.XXoXoXw.w..X.Xw.0.w.oXoXoX.X~ w.XXoX.XW e W .XXXoXXXXXoXoXXXXXoXoXoX.XoXoXoX.X.XXXoXoXw.| | ",
"Y | w..XXXoXoXXX~ 0.w.oX.Xw.XX.Xw.oX.Xw.oXoXoX.XXXXXoXoXoXoXoXXXXXoXoXoXoX.XXX.Xw.w.w.w.oXoXoXXX~ ~ w.oX.X! e J ~ XX.Xw.XXoXoXXXXXXXoXoXoXoXoXXXXXXXoXoXXX.Xw.| ",
"| w..XXXoXoXXXXXoXw..XXX.X.X.XoXXX.X| Y w.oXoXw.| w.XXXXoXoXoX.Xw.w..Xw.w.XXoXXX.X.X.XoXoXoXXXXXoX.Xw.oX.X! C J T .Xw.~ w.XXoXw.0.w..XoXoXoXoX.Xe.w..Xw..XXXw.0.",
"T  .oXXXoXoXXXXXoXoXXX.XXXXXXXoXoXw.| 7.0.0.w.| | w.w.w. .w.XXXXXX.X.X~ U { | [ Y 0.oX.XXXoXXXXXoXoXXX.XXX! C J Y 0.~ ~ ~ w.w.~ ~ w.w.w.w.w.XXXXXX.X.XoXXXoX.Xw.",
"T  .XXw.w.oX.XXXXXoX.Xw.w..XoXoXoXw.0.0.0.w.0.0.0.w.w.w.w.w..XoXXXXXe.{ ) ' _ ] { } XX|  .oXXXXXoXXXXXw.XX~ R J ~ ~ ~ ~ ~ ~ ~ .Xw.w.w.w.w.w..XoXoXoXoXoXoXoXw.| ",
"|  .0.| 0.w.w..X.Xw.~ ~ 0.0..XoXoXoX.Xw.w.XXXXoXoXoXoXXXoXoXoXXXw.{ ..].|.{.{.[.|.].` G I w. ..X.Xw.T ~ ~ ! C C ~ XXXX.XXXXXXXoXoXoXXXXXoXoXoXoXoXoXoXw.0..X.X .",
"|  .w.0.0.0.w.w.w.0.0.w.~ ~ w.XXoXoXoXe.w.w.XXoXoXoXoXoX.XXX0.I ).].].}.|.[.].[. X|.].`.} U |  .w.~ ~ w.~ W Q W ~ XXXXXX~ .XXXoXoXoXoXXXw..XoXXXw.w..Xw.0.0. . .",
"| w.oX.Xw.w.w.w.0.0.w..X0.~ .XoXoX.XXXoXw.w..XoXoXoXoXw.~ | | / '. X|.[.'.(.` (.[.}.{. X`.N U | ~ w.w..X~ ! g.y.~ XXoXXX.Xw.XXoXoXoXoXXXw.w..XoXw.| w.w.w.| |  .",
"w.w..XoXoXoX.X.X.Xw.~ ~ ~ 0.oXXX.X.XXXoXoXoXoX.X.XXXoX0.I _ `.{.{.[.[.]./.m M _ .././._.(./.M K .Xw.| Y Y 6.h.y.w..XXXoXoXoXoX.X.XXXXXoXoXoXoXoXoXoXoXoXoXw.w.| ",
"| w.XXoXoX.XoXoXoXXXw.w.w..XoXoXXXw..XXXXXXX.XXXXX.X0.[ { '.}.|.'.{ / _ _ M L ( ) ] L n ( (.' ..).Y U w.! W g.y.XXw..XXXXXXX.XXXXXXX.X.XXXXXXXXXXXXXXXoXoXXX . .",
"T  .oXXX.X.X.XoXoXoXoXoXoXoXoXoXXX0.w.w.w.0.0.XXXX .Y ) (.[.}.]._ n % v P ( ( ) ( ( m : b /.[.[.(.L I 0.W Q Q r.XXT w..Xw.~ ~ oXoXw.w.~ ~ w.w.w.w.| 0..XoXw.w.| ",
"|  .e..XoXoX.Xw.w.XXoXoXoXoXoXe.w.w.0.~ 0.w..X.X| / _.`.' ' `.[...M m m N N N L ( / M n L /././._./.L B g.h.~ ~ w. .w.~ ~ w.XXoXXX~ 0.w.w.w.w.~ | 0.w..XXXXXw.| ",
"|  ..XXXXX.Xw.w.w..Xw.w.XXoXXXw.w..Xw.w.w.XX.X| / / ' ` L N ` ]././ / G D P P P / P P H ( ` L ( _ { +.Q -.u.U T .XXXw.w.w..XXXoXXX~ ~ w.w.~ ~ ~ T T XX.X.XXX .T ",
"T w.XXoXw.T w.w..X.Xw.~ .XoXXXXXXXoXXX.X.X.X .N N _ H n b n ( (.` ( / M H ] ( H H N H L ) } G m F Q f.h.y./ n U .XXXXXXXoXoXoXoXXX~ ~ T T T ~ T T T .XXX.XXX .T ",
"| w.XX.Xw.Y Y  .oXoXXXXXXXXX.X.XoXoXoX.XK [ } L N P G n 1 n ( ' ] M H ( ( N b , 1 n H ( ( H b 1 3 f.g.E [ ) ) H I XXoXoXoXoXXXoXoXXXT T Y ~ ~ w. ..X .XXXXXX.XT ",
"| w.XX.X.Xw.T  .oXoXXXXXoXXX.XoXoX . .| G N ] H G G G n 2 2 G ) P G G ( ( M v v v m P ( L G b 7 9 f.g.b N ) ` L L {  .w.XXXXw.XXoXoX.X .w.w..XXXXXXXXX.XXXXXXXT ",
"| w.oXoXoXoXoXoXoXXXw.w.w.oXoXoX .U D G G G G F M / H G n 2 2 G G G G N L P L P N N / P G G m C y d.Q C V G P ] } ) H K  .w.0..XoXoXoXoXoXoXoXoXoXoXoXXX.X.XT T ",
"T | .XoXXXw.XXoXXX.Xw.0..XoXoXoX| Z b n G G G P ] / L G m m G M M H ( P H L ^ A F N L / m = > 9 e y y e - & < D L H P / | .XXXw. .oXoXoXoXXXoXoXoXXX ..XXXT T T ",
"Y  ..XoX.X ..XXXXX.Xw.~ .XXXXX0.I B 2 b G G M / ] ( P N G m G M G L L L M L Z 5 A Z G L v O + + + t t t +   O 7 m n m N K Y  .w..XoXoXoXoX.X.XoXoX.X.XoXXX.XT T ",
"| .XoXoXXX . .XXoX.X~ w.w.0.~ K b b v b m G m G G G G H G n n G G M M N N N ^ u 5 8 A D 1 o + o X 9 t t +   + 7 n 2 v v v v S w.oX.XoXoXoX . .XXXXoXoXoXoXXX.XT ",
"T  .XXXX.Xw..X.X.X.Xw.~ .Xw.K B 1 b v b m m m m m b 2 b m n n m G m n m N N #.k u 8 F M 2 o + +   + + + X X 9 3 - v v v 1 , v V I T XXoXoX.Xw.XXoXoXXXw..XXXXX.X",
"T | .X.X.X.XXXXX.XXX.Xw.XX~ B 2 1 1 1 v m n b n n 2 2 v m m m m ^ A m m N M ^ k u n N N B ; 3 + X   X . X O @ + & v v v = 1 , = 2 K 0.XXoXXX.XXXoXoX.XT T oX.XT ",
"T | w.w.XXoXoXoXoXoXoXoXw.I 1 = , : , 1 v b v v v v m m m G M m ^ o.N M m F 8 u m M m M G v ; & * + + + & & $ % 1 v v v , , , , , v U w.oXXXXXoXXX.X.X.XoXoX~ Y ",
"T T T w.w.XXXXoXoXoXoXw.K v , = , , , , v v v v v b n n v n m M A u n b b b 6 2 M b 1 m m b 1 < v < > 7 < 1 = 1 v v v 1 , , , 1 , , v K w..X.XoXoXXX.X.XoXoX~ U ",
"T T T T ~ .Xw..XoXoXXXT B = < 1 , , 1 1 1 2 v v v v v v v 2 b m 8 6 2 2 v v v v m v , b b v v v v v b v v v v v v 2 , , = , , , , , = v U T .XXXoXoX.XXXoXXXT Y ",
" .| T | ~ T w.XXoXXX .K 2 , , , , , , , 1 2 v v 2 2 2 2 2 v v v v v 2 2 v v v v v v b v v v v v v v v v v v v v 1 , % % % , , , = * % , 1 Y oX.X .T oXoXoXXX.XT ",
" .|  .w..X.X.Xw..X.XY B , = , , , , , , 1 1 2 1 1 2 , 1 2 v v v b b b b v v v v v v b v v v b v v v v v b 1 1 1 1 , = % , , , , = % * * < Y oXXXT  .oXXX .T .X .",
"T  ..X.XXXoX.X.Xw.w.U = * * , = , , : : : , 1 1 1 2 % : 1 2 v v 2 v v v v v v v v v v v b v v b v 1 1 1 v 1 = 1 , , , , , , , % * % = = V T XXoX . .XX .T w.T T ",
"I | XX.X.XXXXXXXXX.XU 1 * * & % : , , : $ % 1 , , 1 = , , , 1 1 : $ : 1 v v v v 1 , v v v v , , 1 , % % , , , , , , , : , : % $ % : 7 K T  ..X.XXXXXoXw..XoXw.Y ",
"Y | w.w.w..Xw.w.w.w.T K B = % % : : : : % % , , , 1 1 , , , , , : $ : , , 1 , 1 , , , 1 v 1 , , , % % % , , 1 , , 1 : % % % % $ , B S U w..XXXXXoXXXw.w.w.XX.X| ",
" .| 0.w.w.w.0.Y T ~ w.w.I V 1 = : % % : : : : : = = 1 = , , , , 1 , , , , , , , % , , 1 , , , , % % : , , 1 , , , , : % $ = 1 1 B I Y 0.T .XoXoXXX.X| Y | w.w. .",
"T  .XXoXoX.X0.0.w.0.0.w.w.T I V 1 % % % % % $ % % = = = , , 1 , , , , , , , , , , , , , , , , , , , , , 1 , % % % % : % $ < D P w.w.w..XXX.X.XXXXXXX.Xw.| .X .T ",
"Y 0..X.XXXoXXX.X.Xw.w.XXoXoXT Y K S D Z 2 > ; % % % % % % : : : , : : : : , , , , , , , , , , , : : % % = = % & ; 7 g A B S 0.XXoXoXoXoXXXw.w.e.w.w.XX.Xw.w.w.T ",
"| | 0.0.w.oXoXoXXX.XXX.XXXoXw.w.w.XXXX0.X.g g 8 8 7 7 < 6 : $ % % % : : , : , , , : : : : , , : $ $ % : - = < 7 r =.x.c.9.w.XXoXoXoXoXoX.Xw.w.w.~ 0.XXoXXXw.0.0.",
"Y T 0.w.w.w..Xw.w.0.0.0.w.w.XXXXoXXX.Xq.a.G.P.K.b.n.n.l.-.5 O % % ; % , , % % % % % % : % $ % % * & ; 5 e $.l.n.G.~.>X&Xi.0..XXX.XoXoXoXoXw.w.0.Y | .XoXoXw.T U ",
"Y Y 0.w.w.| | 0.~ ~ ~ ~ T T w.XXXX.X .e.F.*X7X7XtX3X3X*XG.$.3 3 ; > ^ ^ u : O O O O $ > 8 5 ; ; > 3 r =.n.G.3X3X3X4X6X;Xi.7.0.w.w.oXoXoXoXw.w..X0.w..XoXXX0.Y I ",
"Y Y |  .w.T Y ~ T ~ T ~ T Y ! w..X.XXX+XF.=X7X7X7XtXiXtXQ.j.f 0 4 h A.Z.;.; o . o o o u ;.;.5 @ # g <.n.3XuXtXtXtX7X5X$Xp.0.0.| w.XXoXoXoXoXoXoXoXXXoXoXXXT Y Y ",
"Y |  . .w.w.| Y Y ~ 0.Y 0.w.w..XXXXXXXoXb.=X7X7X7XiXiX>Xn.=.g q q ;.%XZ.h # @ @ @ @ @ i m.Y.k # 0 z <.j.3XpXiXyXtX7X5X;Xs.w.w.w.oXoXoXoXoX.XXXXXw.0.0..XoX.Xw.| ",
"| |  ..XXX.X0.| 0.w.w.w.w.XXXXXXoX.XXX+Xb.;X7X4XtXuXuX~.=.z g w q 4.qXm.q # # # # # # 4 m.eX2.q w z &.z ~.pXiXyXtX7X6X;Xs.w.oXoXoXoXoXXXw.w.XXXX~ Y 7.w.oX.Xw. .",
"| | 0.oXoXoXw.w..XoXoXoXXXXXoXoXoX.XoX+Xb.=X7X7X7XtXiX*X%.<.&.i q 2.qXm.@ # # # # # # @ 5.eXm.f d j j %.~.pXyXyXtXtX6X;Xi.q.oXw.XXoXoX.X| w.oXoX0.Y T XXoX| | | ",
"Y | 0..XXXoXoX.XT w.XXoX.Xw.oXXX .oXoXOXb.@X4X7X7XtXpX*X&.%.z p q 2.wXm.@ # # # # # # # 5.qX5.f d f f =.~.iXiXyXrX7X7X;Xp.e.oXe.oXoXoXoXXXXXoXoX.X.XoXoXoX0.| T ",
"Y | w.w.XXoXoX.X~ ~ w.oX.Xw.oXw. .oXXXq.v.&X6X6XtXyXiX*X=.j g i p 4.qXm.# 4 # # # # # 4 5.0X5.h f d g <.~.uXuXuXyX7XrX;Xs.XXoX.X.XXXoXoXoXoXoXoXXXoXoXoXoX.X0.T ",
"Y | .XXXoXoXXXXXoX.Xw.oX.X.X.XoXoXXX .6.v.!.6X7X7XtXiX*X=.z f p p m.wXm.4 5 4 # 4 4 i i m.0Xm.k h p d <.~.yXyXyXtX6X6X;Xp.e.oXw.| w.XXXXoXoXoX.Xw.w..Xw.w.e.w.w.",
"|  .oXXXoXoXXXoXoXoXXX.XXXXXXXoXoX .T 6.v.I.4X6X7XtXuX*X<.z g a a m.qXm.h i f k f a h a M.0XM.x f w s j.>XpXuXyXtX7X5X$Xi.0.w.0.0.w.w.w.w.w.XXXX.X.XXXoXoXoX.X .",
"T w.XX0.w.oXXXXXoXoXXXw.w..XXXoXoX .T q.v.I.2X7X7XyXyX!.<.j f a h m.%XY.m.a h :.j f k 1.U.8XZ.k f w d <.>XpXpXuXtXtX5X$X9.|  .q.w.w.w.w.w.w..XoXoXoXoXXXoXoX.X .",
"0.0.w.~ 0.w.w.e..X0.~ ~ ~ 0.XXoXoXXXXXe.v.P.,X5XyXpXiX!.<.k d i a m.8X%XB.a i q i 0 i S.wXeXZ.:.i q s =.*XiXyXyXtX7X2X$Xi. .oXXXoXXXXXoXoXoXoXoXoXoXoXw.T XX.X .",
"| w..X0.0.w.0.w.w.~ 0.w.~ ~ .XoXoXoXoXe.v.L.2X6XyXuXpX>X<.j a a a m.8X%XB.:.k :.2.j h D.wXwXA.:.w q s &.*XpXuXuXyX7X5X@Xi.q.XXoXoXoXoXXXw..XXXoXw.w.XXw.T w.w.T ",
"Y w.XX.Xw.w.w.w.0.w.w..X0.~ .XoXoXXXXXOXv.I.,X6X7X7XpX>X<.g i d a m.9XE.m.1.m.T.Y.4.x S.0XwXA.;.w q w z *XpXiXiXuX7X5X@Xi.| XXXXoXoXoXXXw.w.XXXXw.T w..Xw.T T  .",
"w.w..XoXoXXX.X.Xw.w.| 0.Y 0.oXXX.X.XXXOXv.I.,X5XrXyXuX>X<.s i d a m.9XE.N.:.A.wXE.k.a B.%X8XA.:.w q s z *XiXuXtX7X7X5X$Xs.XXoX.X.XXXoXoXoXoXoXoXoXoXoXoXoXw. . .",
"T w.XXoXoXoXoXoXoX.Xw.w.w..XoXoXXXw..XOXv.L.:X5X7X7XyXQ.k i w d a 2.0XT.m.c D.wXE.2.p B.0X8XA.:.i w i %.~.iXiXtX7X7X2X#Xp. .w.XXXXXXe..XXXXXXX.XoXXX.XoXoX.Xw. .",
"| w.oXXX.X.XXXXXoXoXoXoXoXoXoXoXXXT  .t.v.L.:X2X6X7XuXQ.h i i i p ,.%XY.m.:.A.qXE.2.a S.8X9XA.:.d w w j Q.iXiXuX7X4X,X@Xi.| | oXoXw.w.0.0.0.w.w.w. .| XXoXXX . .",
"|  .w..XoXoXXX.Xw.XXoXoXoXoXoXw.w.w. .7.-.V.,X2X5X6XrXQ.k i i a a ,.E.T.N.:.Z.9XE.2.a D.qX8XZ.:.f s w g *XiX7X7X4X,X-XL.9.q.XXoX.X~ 0.w.w.w.0.0.~ 0.w..XXXXX .T ",
"|  ..XXXXX.X.Xw.w..X.Xw..XoXoXw.w.e.w.q.3.V.$X,X4X6XrXI.&.a w s a ,.U.R.S.:.Z.0XE.2.a D.qX8XZ.:.f i 5 f Q.iX6X7X6X,XY.b.9.e.oXoX.X0.~ 0.0.0.0.~ T T XXXX.X.X .T ",
"T  .XXoXw.| w.w..Xw.w.~ .XXXXX.XoXoXoXr.v.H.L.-X2X4X7X!.<.d w d h :.S.T.D.:.M.E.R.2.a D.0X8Xm.x a i i d P.yX6X7XrX$XH.a.t.e.oXoX.X0.~ ~ ~ ~ ~ ~ T T XXXXXX . .T ",
"| w.XX.X0.Y Y w.oXoXXXXXoXoXw..XoXoXoXOXa.V.I.$X,X2X7X>X<.f q i h :.B.J.N.:.m.T.D.,.f S.qX9Xm.h h i i d P.yX6X<X$XL.L.F.p.e.XXoXoX.Xw.~ Y | 0.w. . ..X.XXXXX.X .",
"| w.XXXXw.w.~ w.oXoXoXXXXXXX.XoXoXoXoXe.-.n.I.;X;X$X2X^.k.f 5 i a c N.B.2.x 2.S.B.>.f S.0X0X2.p f a 5 d H.5X2X=XL.H.I.K.t.0.w.XXoXoXw.w.w.w..X.XXXXXXX.X.XoX . .",
"T .XoXoXoXoXXXoXoX.Xw.w..XoXoXoXoXXXXXw.@.c.L.1XI.L.-XI.l.f q i p x N.N.k.x c z.N.c l B.W.W.,.p f s w s V.:X:XL.n.L.H.a.q.| 0..XXXoXoXoXXXoXoXoXoXoXoX.X.XXX.XT ",
"Y T .XoXXXw.XXoXXXXXw.0..XoXoXoX.X.Xw.~  .a.H.I.=X$X=XC.%.f d w p l z.N.2.h c k.z.x a N.J.B.x p a s w s l.K.-XI.H.C.5.-.e.oXXX ..XoXoXoXoXoXoXoXoXXX.X.X.XT T U ",
"T T XXoXXXT .XXXXX.Xw.0.w.XXXX.Xw..Xw.w..X9.3.C.I.$XQ.x.d f g w p l k.z.,.l x j.k.l a k.N.k.l p a i i s <.H.I.L.C.x.-.O.XXoX.Xw.w.oXoXoXoX.X.XXXoXXX.XXXXX.XT T ",
"T .XoXoXXXw.w..XoX.XT T w.w. . .w.XXoXoX.XU E 3.V.V.H.3.p f g w a l ,.j.c l x ,.,.l a c j.,.l p a w w d x.L.H.c.x.3.#.| w.0.| oXoX.XoXoXoXw.w.XXXXXXoXoXoXXX.XT ",
"T  .oXXX.Xw..X.X.X.Xw.T .XXX.Xw.w.oX.Xw.w.w.0.+.-.x.V.3.i s w w f c >.,.>.l x ,.,.x f c ,.,.l f p w w d 3.C.V.3.o.O.6.Y w.XXXXXXw.w..XoXoXw.w.XXoXoXXXw..XoX.X.X",
"T  ..X.X.X.XoXXXw.XXXXw..XoXoX.XXXoXw.0.w.oXXXI +.-.3.-.s w w s j :.x >.>.z x :.,.x z >.,.,.x z f d r s %.3.a.#.W Y T  .w.oXoXw.w.w..XoXoXXXXXoXoXXX.X| T oX.XT ",
"T  . . .XXoXoXoXoXoXoXoXw.T oXXXXXoX.X.XXX.Xw.~ T 0.J A A g g o.*.*.*.*.&.%.%.&.%.&.%.&.*.=.*.&.%.o.g E E J 7.0. .XXXX.X.Xw.w.0.w..Xw.XXoXoXXXoXXX.Xw..XoXoXT Y ",
"T T |  .w.XXXXoXoXoXoX.Xw.w.oXoXoXoXoXXXoXXXw.w. . .Y U K W +.6.8.8.+.J @.@.O.E O.O.O.O.@.8.8.9.9.9.6.+.U Y w..XoXoXXXXXoX.Xw.0.w.XXw.w.w.w..XoXoXXX.X.XoXoXT U ",
"T T T T  ..Xw..XoXoXXX . .XXoXoXXXoXw..XoXoX.Xw..XXX.Xw.0.w.|  .T T T Y T T U I Y U I U Y | |  .XXoXXX . .XXoXoXXXXXw..XoXoX.Xw.w.XX.Xw.0.w.w.XXoXoX.XXXoXoXT U ",
" .T T T T T w..XXXoX.X.X ..XXXw.0.0.0.w.oXoXXX.XXXoXoXoXw.XXXXw.T T XXoXXX.X.XXXXX .T T | | w..XXXXXXX.X ..XXX.X . .| w.oXoXoX.XXXoXoXoX.X.XXXw.|  .oXoXoX.X.XT ",
"Y T T T  .T  . .T T  . . .w. .w.0.| 0.w.w.w.w.w.w.w..Xw.w.w.w.w.Y Y .X .T T .X.X.XT T T | 0.| |  .T  . . . . . .| | | w.w.w.w.w.w.w.w.w.w.w.w.w.Y Y  . .T T T T ",
"I U Y T ~ w.T T T Y Y T T T Y T 0.| w.0.Y Y | w.0.| T ~ T T T w.Y Y T Y I Y T T T T T T 0.| | | Y Y Y T | T Y T w.| w.| Y Y | w.w.T T 0.0.Y 0.w.Y Y | Y U U U I "
};
