/* XPM */
static char *__resized[] = {
/* columns rows colors chars-per-pixel */
"80 80 220 2 ",
"   c #0C0B0A",
".  c #100E0B",
"X  c #13120B",
"o  c #181D0A",
"O  c #161412",
"+  c #1B1A16",
"@  c #231A15",
"#  c #241918",
"$  c #2D1D1B",
"%  c #1B2606",
"&  c #1D2B07",
"*  c #1B230C",
"=  c #1E2C09",
"-  c #1F3108",
";  c #23260E",
":  c #202E09",
">  c #262D0B",
",  c #223409",
"<  c #26330C",
"1  c #263B0A",
"2  c #293E0B",
"3  c #262717",
"4  c #33211E",
"5  c #392D1A",
"6  c #2C3511",
"7  c #293913",
"8  c #363716",
"9  c #2A2E27",
"0  c #352421",
"q  c #3A2622",
"w  c #3D2B23",
"e  c #393925",
"r  c #333432",
"t  c #373935",
"y  c #42371C",
"u  c #422E25",
"i  c #452D29",
"p  c #482F2A",
"a  c #443126",
"s  c #463228",
"d  c #4B332B",
"f  c #493A2A",
"g  c #51362D",
"h  c #523A2E",
"j  c #5B3E2E",
"k  c #553731",
"l  c #553D31",
"z  c #5C3C33",
"x  c #613E37",
"c  c #2B430B",
"v  c #2E4A0C",
"b  c #314E0D",
"n  c #34540E",
"m  c #365A0F",
"M  c #395D0F",
"N  c #2A4511",
"B  c #2D4917",
"V  c #364818",
"C  c #2F5217",
"Z  c #345511",
"A  c #395412",
"S  c #375911",
"D  c #395C10",
"F  c #345C19",
"G  c #3B5A1E",
"H  c #3C620F",
"J  c #3C6311",
"K  c #3F6812",
"L  c #37621A",
"P  c #39641B",
"I  c #3D6D1D",
"U  c #3F711E",
"Y  c #2E4024",
"T  c #364826",
"R  c #3B5628",
"E  c #3F4537",
"W  c #3D6723",
"Q  c #3F7220",
"!  c #49471D",
"~  c #41650C",
"^  c #426B0F",
"/  c #46710F",
"(  c #4B750E",
")  c #4D7B0F",
"_  c #507E0F",
"`  c #426B11",
"'  c #446B19",
"]  c #477617",
"[  c #4B7912",
"{  c #41751F",
"}  c #43791F",
"|  c #517E11",
" . c #484626",
".. c #50432B",
"X. c #445525",
"o. c #455A25",
"O. c #495B28",
"+. c #515829",
"@. c #464935",
"#. c #574333",
"$. c #5B4435",
"%. c #5C4936",
"&. c #5B4938",
"*. c #435537",
"=. c #5B5735",
"-. c #65482D",
";. c #644334",
":. c #634239",
">. c #6A453C",
",. c #644B3C",
"<. c #6B4938",
"1. c #724C3B",
"2. c #69563C",
"3. c #78523A",
"4. c #7C543D",
"5. c #476725",
"6. c #436E22",
"7. c #4D6329",
"8. c #526C2C",
"9. c #427620",
"0. c #4B7426",
"q. c #457C21",
"w. c #4A7D24",
"e. c #4F7A28",
"r. c #54782B",
"t. c #436330",
"y. c #5A7231",
"u. c #5E7932",
"i. c #6B643C",
"p. c #617D34",
"a. c #3F3F40",
"s. c #4C5549",
"d. c #505A4A",
"f. c #684A40",
"g. c #754C42",
"h. c #6D5945",
"j. c #7C5144",
"k. c #745B46",
"l. c #556948",
"z. c #766547",
"x. c #756A42",
"c. c #7D7246",
"v. c #796650",
"b. c #82593E",
"n. c #855A41",
"m. c #845844",
"M. c #8C5C49",
"N. c #82664B",
"B. c #89674B",
"V. c #946545",
"C. c #996947",
"Z. c #95644A",
"A. c #9B694B",
"S. c #84754B",
"D. c #846C54",
"F. c #8B6D51",
"G. c #9B6750",
"H. c #8B7356",
"J. c #947455",
"K. c #94775C",
"L. c #9A7A5B",
"P. c #A26E4F",
"I. c #A8744D",
"U. c #AC7552",
"Y. c #AF7854",
"T. c #B47A55",
"R. c #B87E55",
"E. c #967B64",
"W. c #9C7E65",
"Q. c #9B7F68",
"!. c #A07F62",
"~. c #52820F",
"^. c #578A0F",
"/. c #568812",
"(. c #51891A",
"). c #5D9111",
"_. c #619611",
"`. c #669D12",
"'. c #6BA411",
"]. c #6EA912",
"[. c #71AB11",
"{. c #75B213",
"}. c #79BA13",
"|. c #478022",
" X c #498423",
".X c #4C8A24",
"XX c #55832A",
"oX c #58872C",
"OX c #9C855A",
"+X c #9E875A",
"@X c #A4875E",
"#X c #BD8156",
"$X c #9D8064",
"%X c #9E816B",
"&X c #A38263",
"*X c #A98764",
"=X c #A48E61",
"-X c #AC8A64",
";X c #A3856D",
":X c #B08D67",
">X c #B18F6B",
",X c #B4916D",
"<X c #A88B73",
"1X c #B69472",
"2X c #B99674",
"3X c #BB9877",
"4X c #B5967C",
"5X c #BC9B7C",
"6X c #C58A56",
"7X c #C68A57",
"8X c #C28558",
"9X c #C98C5A",
"0X c #CE9059",
"qX c #D1935A",
"wX c #C09F7F",
"eX c #BF9E81",
"rX c #C09F82",
"tX c #C2A285",
"yX c #C5A689",
"uX c #C8A98C",
/* pixels */
"C L { I U U U U } I I U } } } U U } } { I I U q.q.} } { U I I I U Q q.U U } { I L I U I I U U U U I I { Q q.Q U U U q.U I I U } q.{ { 9.{ I I I U U q.U U } I F ",
"P I { { Q 9.U U U U U q.q.U } U U Q Q U U U U } U U U U I q.q.q.q.q.U I U q.|.q.q.{ U { { q.U U U U { } q.Q q.Q U q.U U U U U q.9.I U I I 9.q.q.q.q.U I U q.{ I ",
"q.} { } |.q.U U U U q.|.q.q.q.Q Q q.Q Q U q.q.Q Q Q U Q Q  X.X.X.X|.U U U q. X.X.X|.9.q.q.q.U U { { } } q.q.q.Q Q q.U U U q.q.q.U Q Q I 9.w..X.X.X|.U U U q.} } ",
"{ }  X.X X|.9.9.} } } |. X.X.X.X.X|.Q Q q. X.X X|.|.|.|.|.w. X X X X X} q.|. X|.|. X X.X X|.q.{ q.{ I L Q  X.X.X.X XU U q. X X X Xq. X X X X|. X X X|.q.{  X} U ",
"I { |. X X.X X|.|.q.q.|..X.X.X X X X|.|..X.X.X.X.X.X.X.X Xq.q.q.q.q. X Xq.q.|. X|.|.|.|..X.X|.|.|.q.I C W 9. X.X X.X|.|. X.X.X.X X.X.X.X Xq.q.q.q.q. X Xq.q.q.U ",
"{ { U Q |..X.X.X X X|.|..X.Xq.q.|..X.X.X.X.X.X.X.X.X.X.X Xq.9.q.Q Q  X.X Xq.|..X|.q.9.Q |..X.X.X X|.q.F B T Q |.|..X.X.X.X.X.X.X.X.X.X.X Xq.q.q.U U  X.X Xq.9.{ ",
"I U Q q.q.q.q.q.q.q.Q q.q.q. X X X Xq.9.q.q.q. X X.X.X X Xq.{ q.I Q q..X.Xq.q.9.q.q.U q.q.q.|.q.q.q.U I Y T q..X X Xq.q.q.|. X X.X.X.X.X Xq.q.9.U U w..X.Xq.U P ",
"I ' 9.|.q.{ 9.9.Q U U Q U Q q. X.X|.q.q.9.q.9.q.q..X.X.X.X|.|.|.9.q. X.X Xq.U U q.q.9.|.q.Q U Q Q U U Q T Y W  X.X|.|.q.Q Q q.Q q. X.X.X X Xq. Xq.{  X.X.X9.I L ",
"I U } |.q.U U Q Q U U Q U U U Q |.|. X.X.Xq.9.U } .X.X.X.X.X.X.X X X X.X XU Q q.q.q.U q.q.U I U Q Q Q Q B B F Q |.|. X.X Xq.Q U q. X.X.X.X.X.X.X X X.X.X XI I I ",
"I U U q.q.Q U U I Q Q I Q q.Q  X X X.X.X.X Xq. X.X.X.X.X X X X Xq.9.q. X.X|. X.Xq.q.} q.q.q.U U U Q Q Q F C L Q .X|..X.X.X.X|. X.X.X.X.X X|. X Xq.Q q. X.X|.q.{ ",
"U U U |. X|.Q Q 9.q.q.q.|.|..X.X.X X.X.X.X X X.X.X.X.X.X}  X X XQ I Q q..X|..X.X|.q.Q |..X|.Q Q Q |.Q Q W W Q  X.X|..X.X.X X X.X.X.X.X Xq.q. X XQ Q I q..X|.q.} ",
"} U q..X.X.Xq.q.|..X.X.X X X.X.X.X|. X.Xq.|..Xq. X.X.X} {  X.X.X9.I Q |..X{ q..X.Xq.9..X.X.Xq.q. X X.X.X|.|..X.X.X|..X.Xq.|. X|. X.X.X X{  X.X.XQ I U  X.X9.{ { ",
"U U { |..X.X.X|.Q q. X.X|.q..X|.q..X.X X X.X.X|. X.X.X.X X.X.X.X|.w. X.X.Xq.}  X|.q.Q |..X.X.X|.U q. X.XQ Q |.|.|. X X.X X.X.X|. X.X.X.X X X.X.X|.w. X.X Xq.{ U ",
"I U q.}  X.X.X XU Q q..X|.q. X|.q. X Xq..X.X.X X X.X.X.X.X.X.X.X X.X.X.X X X X|.q.q.q.q. X.X.X XU U |..XP W Q Q q. X Xq..X.X.X|.|..X.X.X.X.X.X.X X.X.X.X X Xq.U ",
"{ }  X.X.X.X X X.X|.q..X|.|. X.X X X9.I q. X.Xq.{ q.w. X X.X.X|.q.q.|.q.w. X.X.X X|. X.X.X.X X X.X|.|. XR B I |..X XQ U q..X.Xq.U q. X X.X.X.X|.q.q.|.q.|. Xq.9.",
"U } .X|..X.X X X.X.X X X|. X X.X.Xq.U Q 9.q.q.{ U q.q.q.} |.|. X|.|. XI P ] ] P I Q  X X X.X.X X.X X X|.R R Q  X.X} Q Q Q q.q.Q Q q.w.q.q.q. X X X|. X X X.X|.} ",
"U }  X9.q..X X X X.X|.q.q. X X.X.Xq.{ 9.{ q.9.9.q.q.q.q.q.q. X.X.X|.w./ / _ ( ~ ' | |.{ } .X X X.X.X|.Q E s.q..X.XQ U Q Q U q.Q q.w.q.q.q.q.|..X.X.X.X.X X.X|.} ",
"} } q.U { q.q.|.|.q.Q Q Q 9. X.X.X X X} q. X X.X X.X X.X.X.X.X.Xw.] | `.{.[.].[.{.`.| Z L } q. X|.Q W C T R |..X.X.X Xq. X X.X.X X.X X.X.X.X.X.X.X.X.X} 9. Xq.q.",
"{ q.q.9.9.9.q.q.q.Q 9.q.Q Q |. X.X.X.X Xq.q. X.X.X.X.X.X|. X} P (.`.`.[.{.].`.'.}.}.`.).[ L { } q.W R E R W } .X.X.X.X Xq.|. X.X.X.X.X Xq.|. X.X|.q.|.q.9.9.} { ",
"U q..X|.q.q.q.q.9.q.q.|.Q U |..X.X X X.Xq.q.|..X.X.X.X|.I } ] D ).}.{.'.`.~._ ~.'.].].}.).M P { Q W R s.t.U |. X.X X X Xq.q. X.X.X.X.X Xq.q. X X} U q.|.q.{ { } ",
"} q.w..X.X.X X X|.q.Q Q Q q..X X|.|. X.X.X.X.X X|..X XU D [ _.].].'.'.`.~.m m / | ~.~./.^.~.A Z Q l.d.T W U .X.X|.|. X.X.X.X X X|. X X.X.X.X.X.X.X.X.X.X Xq.q.{ ",
"{ q. X.X X X X X X Xq.q.q.|..X.X Xq. X X X Xq. X X|.{ ' ] ).[.{.).[ ~ / / m M / / ` H n ~ ).~.^ R d.d.W U  X.X.X Xq.|. X X X|. X X X|.|. X X.X X.X X X.X.X Xq.} ",
"U } .X X|. X X X.X.X.X.X.X.X.X.X X9.9.q.q.{ 9. X X} I ] ^.'.[.`.) v & v K K ^ / / K n & b ~.'.).R E *.w..X X.X.X XU q.|.q.U U .X.Xq.q.9.Q q.q.q.} q.{  X.X Xq.} ",
"} } q. X X.X X|. X X.X X.X.X X|.q.q.9.9.9.q.|. X{ J /.).) ~.).]._ m n n M m M H ^ ^ M v M _ ~.] E T B b L }  X|.q.q.q.Q Q q. X.X XQ 9.q.q.9.Q q.U U q.|. X X} I ",
"{ } |. X X Xq.|.q.|.q.q. X.X X|.q. Xq.q.w. Xw.' J ^ _ ) J H ( `.~.H ~ D S D J J ~ J D D ` ) K R E 9 7 b K ] I U |.|.q.q.q. X X.X|.Q Q q.q.Q Q U U U  X|.|.|.} U ",
"U q. X.X|.U Q |.|.|.q.Q w..X X|. X X X|.|.|.} M H / M b v b ` ^.) ^ J D D ` H H D M J ~ ^ [ D T E 3 7 D ) ( n P |..X X X.X.X.X.X X9.U U Q U U U U } |.|.|.|.} U ",
"U q. X|.U U I } .X.X X X X X|.|..X.X.X|.L ` [ J M D M v 1 v ` ~.^ D J ~ ^ M v , 1 n D ^ ^ M v 8 r 3 < Z / ) / M D  X.X.X.X.X X.X.X Xq.I I Q Q q.} |.|.|..X.X|.U ",
"{ q. X Xq.q.U |..X.X.X X.X X|..X.X} } { Z M ` M S D D b 1 c m ^ H n m ^ ^ m v c 1 Z ~ ^ J S v B t r B n H / ( K J } } }  X Xq. X.X.Xq.q.q.q.|. X X X|.|.|.|.|.} ",
"U q..X.X.X.X.X X.X|.q.q.|..X.X.X} P D D S S S Z M M D S b 1 2 S M m m M H J H J M D ~ J D S B 7 r a.E C Z S H / ( ^ D F { q.{ |..X.X.X X.X.X.X.X.X.X.X X|.|.U U ",
"I } |..X Xq. X.X X|.q.Q |..X.X.X9.b c b S S D H ^ ^ J m n n n D m M K M D H ! V M M D ^ n - 3 9 9 r Y e 3 * - S J M J J {  X Xq.q..X.X.X.X X.X.X.X X} |. XU U I ",
"U } |..X|.} |. X X|.q.q.q. X X{ F c 2 b S S S J ^ ^ J D S n D D M M K H M H V 5 V V Z K c o O + + r a.9 O   o N S b S D D I } q.|..X.X.X.X|.|..X X|.|..X.X|.U U ",
"{ |..X.X Xq.} |..X|.Q Q q.q.Q F B b c c S S Z n D D D S S v b S M M m M M M ! y 5 8 V D - . O O   9 a.O     + 7 n c c c 2 N Z q..X|..X.X.X} }  X.X.X.X.X.X|.|.U ",
"U q. X X|.q.|.|.|.|.q.U |.q.F N c v c c n n b m n c 2 b n b b n n n b n M m +.j y 8 A M 1 O + O   + + X   O + 3 : N c c , , c C F {  X.X.Xq.q..X.X.X Xq.|. X X|.",
"U 9.|.q.|.|..X Xq. X Xq. X{ N 1 1 1 1 c b b v b b c 1 c A n n n ! V n n M M ! j y b m M V ; @ + .   . O . O 3 + o N v c , , , - 2 F q. X.X X|. X.X X|.U U .X|.U ",
"I { q.q.|..X.X.X.X.X.X.Xq.L , , , : , 1 v v c v c b b n n m m b ! ..H m A A 8 5 n m b m n c * * = + O + * * * - 1 c c c 1 , , , 1 2 L q..X X X.X X|.|.|..X.XQ I ",
"U { 9.9.q..X|..X.X.X.Xq.F c , , , : , 1 1 c c c c c b b v b b m 8 y b b v b 2 2 m b 2 n n c < , c < < < 1 1 - - N c 1 1 , , , , , , c L |.q.|..X.X X|.|..X.XU L ",
"U U U U q.q.q.|..X.X|.U N = , 1 , , 1 1 1 c c c c c c c c 1 v m 8 6 2 2 2 2 c v n c 1 v b c c c c c v c c c c c c c , , - , , , , , & c P U q. X.X.X X X.X XU I ",
"{ { U { Q Q q. X.X.X} L N , , , , , , , , c c c 2 2 2 2 1 c c v v c 2 2 v c c c v c c c c c c c c c c c c c c c 2 , & % & , , , - = , & , U .X|.U } .X.X.X X|.U ",
"} } } q.|.q.|.|.|.|.I c , - , , , , , : , 2 c 2 2 2 , , c c c v c v v v c c c c c c v c c c c v c c c v c c 1 c , , , % , , , , - = = - 1 I .X XU } .X X} q.U |.",
"I { |. X X.X|.q.q.q.L - & = , , , , : : , , , , , , , , 1 2 2 c 2 c c c c c c 2 c c c c c c c c c 1 - c c - - - , , , , , , , & = = - - N U  X.X} }  X} U } Q U ",
"P {  X Xw. X X X|.q.P 1 - = % = : , , : % % , , , , , , , , 2 1 : % : 1 c 1 c c 1 1 1 c c v 1 1 1 , & & , 1 , , , , , , , : % % = , 7 C U } |.|. X X.Xq.|..Xq.U ",
"I { q.q.q.|.q.} q.q.U F N - % = : : , : % : , , , , , , , , , , : % : , 1 , 1 , , , 1 1 1 1 , : & & & & , , , 1 , , , : % : % % - N C P q. X X X.X Xq.q.q..Xq.U ",
"} { { q.|.q.U U U q.q.q.L N 1 - : & & : : , , , , , , , , , , , , , , , , , , , % , , 1 1 , 1 : & & , , , , , , , , : % % - 2 , N P I I U |..X.X.X|.{ I U q.q.} ",
"U q. X.X X|.{ { q.U 9.|.q.Q L B 1 - % : : & % % & & - , , , 1 , , , 1 : , , 1 , : , , , , , , , , 1 , , 1 , = % & , : % % 1 Z K 9.q. X X X X|. X X X X} { |.} U ",
"I q.|.|. X.X X|.|.q.q.|..X.X9.I F C Z b 6 > ; % % & & & & : , : , , : : : : , , , , : , , , : , & : : & - = % % ; 6 e  .B F U  X.X.X.X.X Xq.q.w.q.q..X Xq.q.q.U ",
"U U 9.9.|..X.X.X X X|. X.X Xq.q.q. X X} ! f  .8 7 B < 7 6 : % & % % : : , , , , , , : : : , : > % % % : = = 7 6 e &.k.z.7.q. X.X.X.X.X.X Xq.q.9.I Q  X.X Xq.9.9.",
"U I U q.|.q.|.q.q.9.9.9.9.q. X X X X|.0.i.D.K.H.v.v.v.h.=.5 o % % : : : : , % % % % : : : : : > : % ; e e @.h.v.D.E.;XOXy.9. X X.X.X.X.X Xq.9.q.I I q..X.Xq.U P ",
"I U { |.q.9.U Q Q Q Q Q Q Q q. X X X} e.c.;X4XeXeX<X<X;XD...3 3 ; 6 ! ! y : % o % o % > 8 6 ; o ; 3 e &.v.D.%X<X4X4X3X*Xy.9.9.9.q. X.X.X X|.q. Xq.q. X.X.XQ I P ",
"I { { } q.U U U U U U U Q U U Q |.|.|.oXS.&X5X5X5X5XyX4XE.f.d 0 $ j C.C.-.; X X X X o y -.-.4 @ $ d ,.v.<XtXeXeXeX5X2X@Xu.9.9.' q. X.X.X.X.X.X.X.X X.X.X XU I I ",
"I I } } q.q.U I U Q U U Q q.Q  X.X|. X.Xc.&X5X5X5XyXyX<Xv.&.f 0 q -.8Xb.g $ @ @ @ @ @ u b.I.j $ 0 j ,.,.<XuXyXrXeX5X3X@XoXw.q. X.X.X.X.X X X X Xq.{ q.|. X|.q.U ",
"I { }  X X|.} U Q q.q.q.q.|..X.X.X|..XXXc.&X5X5XeXtXyX$X&.#.f w q b.9Xb.0 $ $ $ $ $ $ 4 b.qX3.q w l $.l Q.uXyXrXeX5X3X=Xp.q. X.X.X.X.X Xq.}  X XQ I I q..X Xq.} ",
"{ { { .X.X.Xq.q.|..X.X.X X X.X.X.X|..XoXc.&X5X5X4XeXyX%X$.:.$.u q <.9Xb.# $ $ $ $ $ $ @ 4.qXb.d s g l #.Q.uXrXrXeXeX3X*Xy.q. Xw. X.X.X X{ w..X.X9.I U  X.X9.{ { ",
"U { { w. X.X.X|.Q q. X.X|.|..X|.q..X.XXXc.$X3X5X5XrXuX%X#.#.l p q 1.9Xb.$ $ $ $ $ $ $ $ 4.9X4.d d d f &.Q.yXyXrXeXeX5X=Xu.e..X|. X.X.X.X X X.X.X Xw. X.X.Xq.U U ",
"I I q.}  X.X.X X9.Q q..X|.q. X|.}  X|.e.i.$X4X3X5XtXuX%X%.h f u q b.9Xb.$ $ $ $ $ $ $ 4 4.8X4.g d a d ,.Q.rXtXrXeX5X3X=Xp. X.X|. X X.X.X.X.X.X.X X.X.X.X X|.q.U ",
"{ }  X.X.X.X X X.Xq.q..X|.|.|..X.X X{ 5.x.&X5X5X5XtXyX%X&.l d u i b.qXb.4 0 0 $ 4 4 q u b.#Xb.j d u s ,.Q.rXrXrXrX3X3X=Xu.w..Xq.{ q. X.X.X.X.X|.q.q.|.|.|. Xq.9.",
"I q..X X.X.X X X.X.X X|. X X X.X.X} U 0.x.L.1X3X5XeXtX%X,.l f p p b.9Xb.g u g j d p d g M.8Xb.z d u s f.;XuXyXrXeXeX2X=Xy.9.w.Q U q.q.q.} q. X X|.|. X X X.X|.q.",
"U q. X9.q..X X X.X.X Xq.q.|..X.X.Xq.U 0.x.L.1X1XwXrXtXQ.,.j g a g b.#XI.b.p g ;.h d j <.I.9XV.z d w a ,.;XuXuXrXeX5X2X@Xy.6.9.9.q.w.q.q.q.q.|..X.X.X.X.X X.X|.{ ",
"9.9.q.U Q |.q.w.|.q.Q Q Q 9. X.X.X X|.w.x.J.>X1XtXuXtXQ.,.h s u p b.6X#Xb.g q q w q u V.9XqXV.;.u q a ,.;XyXrXeXeX5X,X@Xy.] .X.X X.X X.X.X.X.X.X.X.X.Xq.q. X|.} ",
"U q.q.q.Q q.q.9.q.Q 9.q.Q Q |..X.X.X X Xx.L.>X2X5XtXyX;X,.h p a p b.8X#Xb.;.j >.1.h g G.9X0XC.;.w q w &.%XyXrXyXrX5X1XOXy.9. X.X.X.X.X Xq.|. X.Xq.q.|.q.U q.} } ",
"U q..X|.q.q.q.q.Q q.q.|.9.Q |. X.X X.XXXx.L.>X3X5XwXuX;X,.d a a p b.9XT.b.<.b.U.I.1.z Z.6X0XC.-.w q w l %XuXyXyXtXeX1XOXy.9. X X.X.X.X Xq.q. X Xq.U q.q.q.U { { ",
"} q. X.X.X X X Xq.q.{ { I q. X X|.|. XXXx.J.:X2X5XrXtX&X;.s u d p b.9XT.M.;.C.0XT.1.p M.#X6XC.;.w q a l %XuXtXrXeX5X2X+Xp. X.Xw.|. X X.X.X.X.X.X.X.X.X.X X|.} } ",
"U q. X X.X X X.X.X Xq.q.q.|..X.X Xq.|.XXx.J.-X1X5XwXrXQ.j u u u i 1.8XU.b.x A.qXR.>.i Z.8X6XC.;.u w w #.E.uXyXrX5X3X1X+Xp.0.}  X X|. X|. X X X X X X X.X.X Xq.} ",
"{ } .X X X X X.X.X.X.X.X.X.X.X.X XQ Q r.x.J.-X1X3X5XrXE.g u u u i >.#XU.b.<.C.9XT.1.p Z.9X7XV.;.s w u h E.yXuXrX3X1X>XOXy.6.} .X Xw.q.9.9.9.q.q.q.9.{  X.X|.} } ",
"{ } |.|. X.X|.q.|. X.X.X.X.X X|.q.q.q.6.=.B.-X1X2X3XwXE.j u u p p >.T.U.b.>.b.9XT.1.d A.9X6XV.;.d a w f E.yXeX5X1X,X*XJ.8.9. X.X X9.9.q.q.9.9.9.U { q. X X X} U ",
"{ } |. X X|.q.q.w.q.q.q.|..X Xw.q.|.|.0.2.F.@X:X,X5XwXL.$.a u u p >.P.Y.Z.;.V.8XT.1.d A.9X6XV.;.d u w s E.yX3X3X3X:XI.x.y.w..X.Xw.9.Q 9.q.9.Q Q U U  X|.q.|.} U ",
"U }  X.X|.U q.|. X|.q.Q q..X X|. X.X Xe.i.F.L.@X,X3X5XW.,.s 5 s p ;.G.U.V.;.n.R.Y.1.d Z.7X8Xb.z p u u s K.tX5X5X3X@XH.i.y. X X.X X9.Q Q Q U Q U U }  X X|.|.} U ",
"{ q. X|.Q I I q..X.X X X.X X|. X.X.X.X Xi.v.L.@X:X2X5XQ.,.p w p g ;.M.G.m.z m.U.G.>.d Z.9X7X4.k g u 5 a K.rX3X,X@XJ.K.H.r.w..X.X X Xq.I U U q.q.} } |.|. X X|.} ",
"{ q. X Xq.q.Q q..X.X.X X X X|..X.XXX.X X=.z.W.*X@X&X,X&Xg.p 5 u p x M.M.3.z 1.Z.M.;.d Z.8X7X1.i g u u p H.2X,XOXJ.J.J.S.r.q.q. X.X.Xq.q.q.q.|.|. X X|.|.|..Xq.} ",
"U }  X.X.X.X.X.X.X|.q.9.|..X.X.X.X X.Xw.O.h.K.*X!.F.@XL.h.d q u i z m.m.g.z :.g.m.x g M.R.R.>.i d a w s N.*X:XJ.N.J.F.i.0.U { |..X.X X.X.X.X.X.X.X.X.X|.} |.U U ",
"U U  X.X Xq. X X|. Xq.q. X.X.X X|.|.q.Q 6.p.F.L.Y.@X&XD.$.d s w u k j.m.1.k x g.j.z p m.G.M.z i p a w a 2.J.*XJ.F.N.4.=.w..X X} q..X.X.X.X X.X.X.X.X|.|.|.|.U I ",
"U U  X.X XU |. X.X|.q.9.q. X X|.q.|.q.q.|.8.2.N.K.;XL.k.d f f w i k g.g.>.k z 1.g.k p g.m.g.k i p u u u ,.F.W.J.N.k.=.O. X.X X} |..X.X.X.X|.|..X|.|.|..X.X|.U U ",
"U  X.X.X.Xq.}  X.Xq.U { } q.q.} q. X.X.X XP  .2.v.B.F.h.u s d w i z >.f.x k z >.>.k d x >.>.k i p w w a k.J.F.z.k.2.+.I w.9.{ .X.X|..X.X.Xq.q.|..X X.X.X.X|.|.U ",
"U } .X X|.q.|.|.|.|.} { |. Xq.}  X X Xq.q.q.9.o.=.k.N.<.a u u 5 d x :.>.:.k z >.>.z d x >.:.z d u u w a 2.F.N.,...X.5.U q. X X Xq.q.|..X.Xq.q. X.X.X Xq.|..X|.|.",
"U } |.|.|.|..X Xq. X Xq. X.X.X X X Xq.{ w..X XL o.=.i.%.e u w p k :.$.:.:.k z ;.>.z g :.>.:.z l d s w a #.2.i.+.G I U { q..X.Xq.q.q.|..X.X X X.X.X X|.U U .X|.U ",
"U } } }  X.X.X.X.X.X.X.Xq.Q .X X X X X X X Xq.Q { { F V V e f ..%.$.%.%.$.$.#.#.#.#.#.%.&.,.%.%.%... .T T G 6.9.{  X X|. Xq.q.Q q.|.q. X.X.X X.X X|.|.|..X.XQ I ",
"U U } U q. X X.X.X.X.X|.q.q..X.X.X.X X X X Xq.q.} |.I L G R o.7.5.7.o.G O.O.X.T X.X.X.X.O.7.7.7.8.8.5.o.P I q. X.X.X.X X.X Xq.{ q. Xq.q.q.q.|..X.X X|.|..X.XU L ",
"U U U U } q.q.|..X.X|.} |. X.X.X X Xq. X.X.X|.q. X Xq.q.{ { { } U U U I U I P L I P L P I U } |. X.X X} q. X.X.X X X|.|..X.X|.q.q. X|.q.9.q.q. X.X.X|. X.X.XU I ",
"} U U U } U q. X X.X|.|.} |. Xq.q.9.9.q..X.X X|. X.X.X.X X X Xq.U U  X.X X|. X X Xq.U U U { q.|. X X X|.q.|. X|.Q } 9.q..X.X.X|.|..X.X.Xq. X Xq.{ } .X.X.X X} U ",
"I U U U Q Q } } U U U } } } } } 9.9.{ q.q.q.q.q.q.q.|.q.q.q.|.q.I I |.} U U q.|. XU U U 9.{ 9.} } U } } } } q.U } } 9.9.q.q.q.q.q.q.|.q.q.q.q.q.I I } } U U U U ",
"L P U U } Q U U U I U U U U U U 9.} } { I I U q.9.9.U U { U 9.{ I I U I L I U U U U U U 9.{ { I I P U U U U I U q.U } q.I I U q.q.U U U { U 9.q.I I U I P P P L "
};
