/* XPM */
static char *__resized[] = {
/* columns rows colors chars-per-pixel */
"80 80 221 2 ",
"   c #0D0A0A",
".  c #120E0D",
"X  c #13130B",
"o  c #10110D",
"O  c #171D0A",
"+  c #181614",
"@  c #1C1B15",
"#  c #241917",
"$  c #2D1D1B",
"%  c #1B2606",
"&  c #1D2B07",
"*  c #1B240C",
"=  c #1E2C09",
"-  c #1F3108",
";  c #1D2711",
":  c #23260E",
">  c #202E09",
",  c #262D0B",
"<  c #223409",
"1  c #26330C",
"2  c #263B0A",
"3  c #293E0B",
"4  c #232414",
"5  c #2A2617",
"6  c #33211E",
"7  c #392D1A",
"8  c #2C3412",
"9  c #2A3B11",
"0  c #2B3A19",
"q  c #363716",
"w  c #292B26",
"e  c #352421",
"r  c #3A2622",
"t  c #3D2B23",
"y  c #2B3124",
"u  c #3C3923",
"i  c #363736",
"p  c #42371C",
"a  c #422E25",
"s  c #452D29",
"d  c #482F2A",
"f  c #443126",
"g  c #463228",
"h  c #4B332B",
"j  c #493A2A",
"k  c #51362D",
"l  c #523A2E",
"z  c #5B3E2E",
"x  c #553731",
"c  c #553D31",
"v  c #5C3C33",
"b  c #613E37",
"n  c #2B430B",
"m  c #2E4A0C",
"M  c #314E0D",
"N  c #34540E",
"B  c #365A0F",
"V  c #395D0F",
"C  c #2B4611",
"Z  c #2D4A14",
"A  c #374816",
"S  c #2F5316",
"D  c #345512",
"F  c #395412",
"G  c #365911",
"H  c #395C10",
"J  c #37561E",
"K  c #355D19",
"L  c #3C620E",
"P  c #3C6311",
"I  c #3E6812",
"U  c #37621A",
"Y  c #39641B",
"T  c #3D6D1D",
"R  c #3F711F",
"E  c #3B4A27",
"W  c #3B5628",
"Q  c #3D6921",
"!  c #3F7220",
"~  c #49471D",
"^  c #40650C",
"/  c #426B0F",
"(  c #46710E",
")  c #4A750D",
"_  c #4D7C0F",
"`  c #507E0F",
"'  c #426A11",
"]  c #406A16",
"[  c #477617",
"{  c #4B7912",
"}  c #41751F",
"|  c #43791F",
" . c #517E11",
".. c #484626",
"X. c #50432B",
"o. c #445525",
"O. c #455A25",
"+. c #475B29",
"@. c #515829",
"#. c #454936",
"$. c #574333",
"%. c #5B4435",
"&. c #5C4936",
"*. c #5B4938",
"=. c #425438",
"-. c #5B5735",
";. c #65482D",
":. c #644334",
">. c #634239",
",. c #6A453C",
"<. c #644B3C",
"1. c #6B4938",
"2. c #724C3B",
"3. c #69563C",
"4. c #78523A",
"5. c #7C543D",
"6. c #456627",
"7. c #436E23",
"8. c #4D6329",
"9. c #526C2C",
"0. c #427620",
"q. c #4B7426",
"w. c #457C21",
"e. c #4A7D25",
"r. c #4D7929",
"t. c #54782B",
"y. c #496632",
"u. c #526C30",
"i. c #5A7231",
"p. c #5E7932",
"a. c #6B643C",
"s. c #617D34",
"d. c #444546",
"f. c #495343",
"g. c #565A54",
"h. c #684A40",
"j. c #754C42",
"k. c #6D5945",
"l. c #7C5144",
"z. c #745B46",
"x. c #5F635C",
"c. c #766547",
"v. c #756A42",
"b. c #7D7246",
"n. c #6D6556",
"m. c #82593E",
"M. c #855A41",
"N. c #845844",
"B. c #8C5C49",
"V. c #82664B",
"C. c #89674B",
"Z. c #946545",
"A. c #996947",
"S. c #95644A",
"D. c #9B694B",
"F. c #84754B",
"G. c #846C54",
"H. c #8B6D51",
"J. c #9B6750",
"K. c #8B7356",
"L. c #947455",
"P. c #94775C",
"I. c #9A7A5B",
"U. c #A26E4F",
"Y. c #A8744D",
"T. c #AC7552",
"R. c #AF7854",
"E. c #B47A55",
"W. c #B87E55",
"Q. c #967B64",
"!. c #9C7E65",
"~. c #9B7F68",
"^. c #53820F",
"/. c #588A0F",
"(. c #558812",
"). c #5D9111",
"_. c #619611",
"`. c #669D12",
"'. c #6BA411",
"]. c #6EA912",
"[. c #71AB11",
"{. c #75B213",
"}. c #79BA13",
"|. c #478022",
" X c #498423",
".X c #4C8A24",
"XX c #55832A",
"oX c #58872C",
"OX c #648532",
"+X c #9C855A",
"@X c #9E875A",
"#X c #A4875E",
"$X c #BD8156",
"%X c #9D8064",
"&X c #9E816B",
"*X c #A38263",
"=X c #A98764",
"-X c #A48E61",
";X c #AC8A64",
":X c #A3856D",
">X c #B08D67",
",X c #B18F6B",
"<X c #AA906C",
"1X c #B4916D",
"2X c #A88B73",
"3X c #B69576",
"4X c #B99674",
"5X c #BB9877",
"6X c #BC9B7C",
"7X c #C58A56",
"8X c #C68A57",
"9X c #C28558",
"0X c #C98C5A",
"qX c #CE9059",
"wX c #D1935A",
"eX c #C09F7F",
"rX c #BF9E81",
"tX c #C09F82",
"yX c #C2A285",
"uX c #C5A689",
"iX c #C8A98C",
/* pixels */
"S U } T R R R R } T R } | | | R ! 0.| | T T R |.| | 0.| R T T R R } | R R | } T U T R T T } R R } T T R ! ! ! R R R |.R R T R | 0.} 0.} R T T T 0.0.0.R R w.T K ",
"Y T } } 0.0.R R R R R 0.0.0.| R ! ! R R R R ! 0.R R R R Q 0.0.w.w.w.R R R w.|.w.0.} R } } } R R R R R } Q J ! ! R ! ! R R R | R 0.T } R R 0.w.w.w.0.R R R w.R T ",
"w.} } w.|.w.! T } R | |.|.0.w.0.! w.! T R 0.w.0.! ! T ! !  X.X.X.X|.} R R w. X.X.X X0.w.|.w.R R R | | | Z E 0.0.! ! ! R R w.|.R 0.R R T 0. X X.X.X|.} R } w.| | ",
"} |  X.X X|.0.} | | | |. X.X.X.X X X! ! w. X.X X|.|.|. X X|. X X X X|.| 0.|. X|. X X X X X X0.} w.R | w.S J  X.X.X X! R |. X.X X Xw. X X Xw. X X X X X0.}  X| R ",
"T } e. X X X X X|.w.w. X.X.X.X X X X Xw..X.X.X.X.X X.X.X.Xw.w. Xw.w. X Xw.|. X X X|. X|..X.X X|. Xw.w.|.Q T  X X X.X X X X.X.X.X X.X.X.X Xw.w.w.w.w. X Xw.w.w.R ",
"} } } }  X.X.X X X X|. X.X X|.w. X.X.X.X.X.X.X.X.X.X.X X Xw.0.w.Q !  X.X.X0.|..X Xw.R 0.|..X.X.X X X X|. X.Xw.w.|. X.X.X.X.X.X.X.X.X.X.X Xw.w.w.T }  X.X Xw.0.0.",
"T T } w.| w. Xw.w.0.! 0.0.w. X X X X|.w.0.w.|. X X.X.X.X X0.0.0.R R |..X.Xw.0.0.|.0.R w.w.w.|.w.w.0.0.0.0.w. X X X X|.! w.|.|. X.X.X.X.X Xw.} 0.T T e..X.Xw.T Y ",
"T } } w.w.} } } ! ! ! ! R ! w. X.X|.w.0.w.0.0.0.|..X X.X.X|.|.|.0.|  X.X.X0.R } w.0.0.|.w.R R ! R R R ! ! ! w. X X X|.! w.! w.! w. X.X.X X X|. Xw.w. X.X.X0.T U ",
"T R | |.w.R R ! R ! R R ! R R 0.|.| .X.X.Xw.| R |  X.X.X.X.X.X.X X X.X.X XT 0.|.w.0.w.w.w.R R R ! R ! ! ! ! ! !  X|. X.X.X|.! R 0..X.X.X.X.X.X.X X X.X.X XR T T ",
"T R } w.w.0.R ! R ! 0.R 0.w.! |..X|..X.X.X Xw. X X.X.X.X.X X X Xw.0.0.|. X X X Xw.0.0.w.w.0.R R R ! R ! ! |.! |. X|..X.X.X X|. X.X.X.X.X X X X Xw.0.0.|. X|.w.} ",
"R R 0.|. X|.! ! 0.w.w.0.w. X X.X.X X.X.X.X X X.X.X.X.X.X| e. X X! T ! w..X X X.X X0.0. X X|.0.! ! |.|.! |.|. X.X.X X.X.X X X X.X.X.X.X Xw.w. X X! Q R w..X Xw.| ",
"| R 0..X.X.Xw.0.|. X.X.X X X.X.X.X|. X.Xw.|..Xw. X.X.X|.} |..X.X0.T R  X.X} w..X.X|.0. X.X.X|.0.|. X.X.X|.|..X.X.X|. X.X|.|. X|. X.X.X X0.e..X.X0.T R |..X0.} } ",
"R R } | .X.X.X|.0.0. X.X|.|..X|.w..X.X.X X.X X X.X.X.X.X X.X.X.X Xw. X.X.Xw.|  X|.0.0.|. X.X.X|.R w. X.XT U |.|.|. X X.X X.X.X X X.X.X X X.X.X.X X|. X.X.Xw.} R ",
"T R | |. X.X.X X! ! |..X|.w. X|.w. X|.w..X.X.X X X X.X.X.X.X.X.X X.X.X.X X X X Xw.w.w.w. X.X.X|.R R ! e.W K ! |.w. X Xw..X.X X X X.X.X.X.X.X.X X.X X.X.X X|.0.} ",
"R w. X.X.X.X X X.X|.0. X X X X X X X} R w..X.X0.} w. X X.X.X.X|.w.w.w.|.w. X.X.X X X X X.X.X X X.X.XQ f.W Q |..X.X X! R |..X.Xw.0.w. X.X X.X.X|.w.w.|.w.|.|.w.0.",
"R | .X|..X.X X X.X.X X X X X X.X.Xw.} Q 0.w.w.} } w.w.w.0.w. X X X X XQ Y [ [ Y T 0. X X.X.X X.X.Xf.W W Q w. X.X Xw.R ! ! ! |.! 0.0.w.w.0.|. X X X X X X.X.X|.0.",
"R |  Xw.w..X X X.X.X X0.w. X X.X.Xw.} 0.} 0.0.0.w.w.w.w.0.w.|..X X X .[ ( ` ) / [ [  X7.0..X Xw.|.f.f.Q |  X.X.X.XR R R R R |.R w.w.w.w.0.w. X.X.X.X.X X.X.Xw.| ",
"| | 0.T } w.w. X X0.! ! ! 0. X.X.X X Xw.w. X.X.X X.X X.X.X.X.X.Xw.q. .`.{.[.'.].{.'.{ G U w.w.! Q E =.Q R R  X.X.X.X|.|. X X.X.X.X X X.X.X.X.X.X.X.X.Xw.0. X|.| ",
"} w.w.0.0.0.0.w.w.0.0.w.! R w..X.X.X X Xw.w. X.X.X.X.X X X X| U .X`.`.[.{.'.'.'.}.{.`.).[ Y R 0.W W W |.R R |..X.X.X X X| |. X.X.X.X.X X X X X.Xw.w.|.0.0.0.0.| ",
"R w..X Xw.w.w.w.0.0.w.|.0.! |..X.X X X.Xw.w. X X.X.X.Xe.T | [ P ).}.{.'._./._ ^.'.[.'.}._.V Y 6.f.W Q  XR R |..X.X.X.X X|.|  X.X.X.X.X X0.w. X X| } |.|.w.} } } ",
"0.w. X.X.X.X X X X0.! ! Q 0..X X Xw. X.X.X.X.X X| .X.X0.U { _.].].'.].`.^.B B ( ^.^.^.(./.^.N E g.=.Y R R R .X X|.|. X.X.X.X.X X X X X.X.X.X.X.X.X.X.X.X Xe.| | ",
"} w. X.X X X X X X Xw.w.w. X.X.X Xw.|..X X Xw. X X X} ] ( ).].{.).) L ( ) B L / ( / L N / /.) 8.x.W U R |. X.X.X Xw.|. X X|.|. X X X Xw. X X X.X.X X X X.X X| | ",
"} w. X X X X X.X.X.X.X.X.X.X.X.X X0.0.|.0.} 0. X.X| T ( /.'.[.`._ m & m I I ( ( ) ^ N > m ^.).OXx.W W |. X.X.X.X XR w.|.| R R .X.Xw.|.0.! 0.w.w.w.} 0. X.X X| | ",
"} | w. X X.X Xw.|..X.X.X.X.X X Xw.0.0.0.0.w.|. X} P (.).^.` ).].` B N B G G B L / ^ B m B ^.) u.x.y.N S U R .X|.w.w.w.| R |  X.X X! 0.w.w.0.0.0.R } w. X X X| R ",
"} | w. X.X|.w.w.w. Xw.0. X.X Xw.w. Xw.0.w. Xe.] I ^  .{ P L _ `.` L P H V V P P P ^ P H ' _ L +.g.o.Z M L } I R |.|.| | |  X.X.X|.! ! 0.0.0.R ! R R |.|.|.|.| R ",
"R w..X.Xw.R 0.|. Xw.0.! w..X X X X.X X X X X| H L ( H M n N ' (._ / L G V / / H H V H L / _ B E d.i y H _ { N Y |. X.X X.X.X.X.X X0.! R ! ! R R R R  X X|. X| R ",
"} w. X XR R T | .X.X.X X.X Xw. X.X.X.X|.P ] { L V H H M < m ' ^.( V V / / V m < 2 M L ' ' P m 0 i d.#.Z / _ ( B U  X.X.X.X.X.X.X.X X0.R R ! 0.w.w.w.|  X X X|.R ",
"} w. Xw.|.w.R w..X.X.X X X X X.X.X| | } D H ' V N H H M 3 n B ( L N H / / B n n n M P / P N m 9 y d.f.E H ( _ I L | | |  X X| e..X.X|.0.0.w. X X X X X|.|..X|.| ",
"} w..X.X.X.X X.X.X Xw.0. X.X.X.X| Y G H G H D D V L G G N 2 3 N H N V V L P L P V L ^ P G D Z 9 ; i f.d.E G P ( _ ( H K | | | |..X.X.X X.X.X.X.X.X.X.X X|.|.R R ",
"T } |..X X| .X.X X Xw.0. X.X.X.X0.M n M H D H P / / P G N N D H G V / V H L ~ A F V L ^ D 1 8 4 + y d.d.w ; - D P V P ^ } |. X0.w..X.X.X.X X.X.X.X X|.|. X! R T ",
"R |  X.X X| |. X X X0.0.w..X X0.U C 3 M D D H ^ / ^ P H G B H V H V I L B L A 7 A A D P n X + +   # i i @   O 9 N M N V U T | w.|..X.X.X.X|. X.X X X| .X.X|.R R ",
"} w..X.X X| | |..Xw.! 0.0.0.! K C M n n N H N D H H H H G m m D H V B B L V ~ p 7 q A G 2 o + .   . w i @   + 9 M 3 n n 3 C D w..X|..X.X.X| |  X X.X.X.X.X X| | ",
"R w. X X|.w.|.|. X X0.0. Xw.K C 3 n n n N V M N N m 3 m V m m N D N M N V B @.z p q B B 2 + @ +     + @ o o w 4 ; n n n 2 2 2 Z U }  X.X.X|.w..X.X.X Xw.|..X X| ",
"R } |.|.|.|. X Xw..X X0. X0.C 2 2 3 3 n M M m M m 3 2 m N N N B ~ A N N V B ~ z p M V V m 4 4 +     . X o O # @ * n n n - 2 2 - 2 K }  X.X X|. X.X X|.R ! .X|.R ",
"R } w.w. X.X.X.X.X.X.X.X0.U < < < > > 2 m m n n n m M N N F B M ~ X.L B F F q 7 N N M V F n ; * = + + @ ; * * - 2 n n n 2 < < < < n U w..X X X.X X|.|.|. X.X! T ",
"R R 0.0.w. X X.X.X.X.Xw.K n < < < < < 2 n n n n n m M M m M M B q p M M m M 3 n V m n N N n 1 2 n 1 1 1 2 - - 2 n n n 2 < < < < < < n K |.w.|..X.X X|.|..X.X! U ",
"R R R R 0.|.w.|..X.X XR C = < < < < 2 3 2 3 n n n n n n n 3 m B q q 3 3 3 n n m N n 2 m m n n n n n m n n n n n n 3 < < = < < < < < - n Y ! |. X.X.X X X.X XR T ",
"} } R } ! ! w.|. X X0.U n < < 2 < < < < 2 3 n n 3 3 3 3 3 n n n n 3 3 n n n n n n n n n n n n n n n n n n n n n 3 < & & = - < 2 - = = < 2 T .Xw.} | .X.X.X X|.| ",
"} | | w.w.|.|.w.w. XT C < - < < < < < > < 3 3 2 2 3 < < 3 n n n n m m m n n n n n n m n n n n n n n n n n n 2 2 2 < - & - < < < - = = = - R .X XR } .X X| w.R R ",
"R } |. X.X X X|.w.w.U - = = - < < < > & < < 2 < 2 2 > < 2 3 n n n n n n n n n 3 n n n n m n n n n 2 2 2 n 2 - - < < < < < < < = & = = < Z R  X.X| |  X| R | w.R ",
"U }  Xe. X X X X X|.U 2 = = % = < < < > % & < < < < < < < < 2 2 & % < 2 2 n 3 3 2 2 3 3 n n 2 < 2 < & & < 2 < < < < < < < > % % = < 2 S R 0.w. X X X.X|.|..X| R ",
"T } w.w.| |.w.w.|.w.R K C - % = > > < > % > < < < < 2 < < < < < & % < < 2 2 2 2 < < 2 3 3 3 2 < & = & = - < 2 < < < < & & & > % - C S Q 0.|. X X.X Xw.0.w..X|.R ",
"| } 0.w.|.w.R R ! 0.w.0.U C 2 - > & & > > < > < < < < < < < < < 2 < < < < < < < & > < 2 < < < < & & < < < < 1 < < < & % % - 2 < C Y T 0.0. X.X X.X|.} R R w.|.| ",
"} |  X.X X|.} } w.! 0.|.w.! U Z 2 % & & & & % % & > > < < < 2 < < < < > > < 2 < < < < < < < < < < < < < 2 < & % & > > & % < D I w.w.w. X X X X X X X|.| } |.| R ",
"R 0.|.|. X.X X|.|.w.w.|..X.X0.Y S S D Z 8 , : & % & % > = < = < < > > > > < < < < < < < < < < < < > & & - = % % : 0 u ..Z J R  X.X.X.X.X Xw.w.w.w.w. X X|.w.0.R ",
"R R 0.0.|..X.X.X.X X|. X X.X|.0.|. X.Xq.~ j j q 0 0 1 1 1 = % % & % > > < < < < < > > > < > > > % % % > = > 8 0 u *.z.c.8.w..X.X.X.X.X X Xw.w.w.R !  X.X Xw.0.0.",
"T R } w.w.|.w.w.w.! 0.0.0.w. X.X.X X|.w.v.F.P.K.G.b.n.k.-.7 * % % % > < > > > & & & & > & % > > & % : q u X.z.n.G.Q.:X+Xi.0.|. X.X.X.X.X Xw.} 0.} T w..X.X0.R Y ",
"T T 0.|.w.R } 0.! ! ! ! ! ! w. X X|.! r.b.&X6X6X3X3X2X:XG.#.5 4 : 8 ~ ~ q , O O O O % , 8 7 : : : 5 u h.n.G.:X2X2X6X5X-Xi.0.0.} w. X.X.X X X|.e.0.w. X.X.X! T Y ",
"T T | | w.R R R R R } R ! R R w.|.|. XoXb.=X6X6X6XrXyXrXQ.k.h e $ z U.m.;.: X . X . O a ;.;.7 # 5 j <.n.2XyXrXrXrX6X4X#Xp.0.0.T w. X.X.X.X.X.X.X.X X X.X XR T T ",
"T } | | w.0.R R R ! ! R 0.0.! |. X X X.Xb.*X6X6XrXuXuX:Xz.*.d r r ;.$XZ.k $ # # # # $ 7 m.Y.z $ 6 v <.h.2XiXuXrXrX6X4X-Xs.w.w. X.X.X.X.X X X X Xw.} 0. X.X|.0.0.",
"R R | e. X X0.} 0.w.w.0.w. X X.X.X X XoXb.*X6X5XrXuXuXQ.*.$.l r t 4.0Xm.r $ $ $ $ # $ 6 m.wX2.r r $.%.c ~.iXuXtXrX6X5X-Xp.e. X.X.X.X.X Xw.w. X X! T T e..X|.w.| ",
"| } } .X.X.Xw.0.|. X.X.X X X.X.X.X|..XoXb.*X6X6X6XrXuX&X%.*.%.a r 2.0Xm.# $ $ $ $ $ $ # 5.wXm.h g l c c ~.iXtXtXrXrX5X-Xi.w. Xe. X.X.X X}  X.X.X0.T R  X.X| } } ",
"R R |  X X.X.X|.0.0. X.X X|..X|.|. X.XXXb.+X5X6X6XrXiX&X$.$.$.a r 1.0Xm.# $ $ $ $ $ $ $ 5.0X5.h h h l %.~.uXyXtXtX6X6X-Xp.e..X X X.X.X X X X.X.X Xw. X.X.Xw.} } ",
"T R | |  X.X.X X0.! w..Xw.w..Xw.|  X Xq.v.%X3X5X6XrXiX&X*.l h f a m.0Xm.$ 6 $ $ $ $ $ 6 5.9X5.k h f h <.~.yXuXyXtXeX5X-Xs. X X X X.X.X.X.X.X.X.X X X.X X X X0.} ",
"R |  X.X.X.X X X.Xw.w..X X X X X.X X} 6.v.!.5X6XrXrXuX&X*.c h a s m.wXm.$ 7 6 $ 6 6 a a m.9Xm.z h a g <.:XtX6XtXrX6X5X-Xs.e..Xw.} w. X.X.X.X.X|.w.w.w. Xe. Xw.0.",
"R | .X|. X.X X.X.X.X Xw. X X X.X.Xw.R 7.v.I.3X5X6XrXyX&X<.c l a d m.0Xm.k a k z k d h h M.9XM.z k t g <.:XuXuXtXrX6X4X*Xi.0.w.0.0.0.w.w.| w. X X X X X X.X X|.0.",
"R w. X0.w. X X X.X.X X0.w. X.X.X.X| R q.v.I.1X5X6XtXtX!.<.$.h a k m.$XY.2.d k :.l h z 1.Y.8XZ.v d t a <.:XiXiXyXrX6X4X#Xi.} | 0.w.w.w.w.w.w.|..X.X.X.X.X.X.X|.| ",
"0.w.0.! 0. X0. X X0.! ! ! 0. X.X.X.X|.e.v.I.,X5XyXiXuX!.<.z h a s m.7X$XZ.k r r t r a Z.8XwXZ.:.a r a <.&XuXtXtXtX6X1X@Xi.|  X.X.X X X.X.X.X.X.X.X.X.Xw.|  X|.| ",
"} w. X! 0.0.w.w.0.0.0.0.! !  X X.X.X Xr.v.I.1X5XrXyXiX:X<.k g d d m.7X$XB.:.z :.2.l k J.qXwXA.:.t r a %.&XiXyXyXtX6X4X+Xi.q. X.X.X.X.X Xe. X X.Xw.w.|.w.R 0.0.| ",
"T w. X Xw.w.w.0.0.0. X X! !  X X.X X XXXv.L.;X5X6X6XuX:X<.j a d d m.0XE.m.2.m.T.Y.2.v S.7XqXA.:.t r a #.&XiXuXuXyX6X1X#Xi.0.e..X.X.X.X X0.w. X X0.R w.|.w.! R | ",
"0.w. X.X.X.X X X|.0.0.! T 0. X X X X XXXv.L.,X5X6XtXuX!.:.h a g s m.0XE.N.:.A.0XE.2.d B.9X8XA.:.t t a c &XuXyXrXeX6X4X#Xs. X.Xe. X X X.X.X.X.X.X.X.X.X.X.Xw.| | ",
"0.w. X X X X X X.X Xw.w.w. X.X.X X0.|.XXv.L.;X4X6XtXtX!.z a t g d 2.7XT.m.b D.wXE.,.d S.9X7XZ.:.a t f c %XuXuXrX6X6X1X@Xp.| |  X X X Xw. X X X X.X X X.X.X|.| | ",
"} | .X X X X X.X.X.X.X.X.X.X.X.X.X0.0.r.v.L.;X1X5X5XtX!.k a a d s 1.$XY.m.:.A.0XE.2.d S.8X7XA.:.g t t l Q.uXuXeX5X3X,XI.i.7.| .X Xw.w.w.0.0.w.w.0.0.}  X.X|.| | ",
"} | w. X X.X X|.w. X.X.X.X.X X Xw.0.w.7.-.C.;X1X5X6X6XQ.x a a d d :.E.T.B.1.m.0XW.2.d D.0X7XZ.:.h f t j %XiX6X6X5X,X=XL.9.0..X.X X0.0.w.w.0.0.0.! } w. X X.X| R ",
"} | w. X X Xw.w.w.w. X0. X.X Xw.w. Xw.q.3.F.#X>X1X5XeX!.%.f a a d ,.U.R.S.:.Z.9XW.2.d J.8X8XZ.:.h a 7 h Q.uX5X6X5X>XI.c.i.w..X.Xe.R R 0.0.0.0.! R R  X|.|.|.| R ",
"R w..X.X|.R 0.w. X|.0.! w..X X X X.X Xr.v.H.L.=X,X5X6X!.<.f t g d ,.S.T.A.:.M.W.T.1.d D.8X9Xm.v d a a g P.tX5X6X4X;XS.a.i. X.X.X X| 0.R ! ! ! R R R  X X|.|.| R ",
"} w. X|.0.T R 0..X.X.X X.X X X X.X.X.XXXa.V.I.#X,X1X6X~.1.f 7 s k :.B.S.N.v N.T.J.,.h D.8X8X5.x k a a g P.eX3X1X#XL.L.F.p. X X.X X X0.R R R 0.w.| | |  X X.Xw.R ",
"} |  X Xw.w.0.w..X.X X.X X X X X.X X.X X-.z.!.-X=X*X1X*Xk.h r a d b B.B.4.v 2.S.B.>.h Z.8X9X2.s k a 7 d H.5X1X*XL.L.L.L.t.0.w. X.X.X|.0.0.w.|. X.X X X|.|. X|.| ",
"R w..X.X.X.X.X.X.X|.w.0.|..X.X.X.X X Xw.+.z.L.<X%XH.=XI.k.j r a s v N.N.j.v >.l.N.v k B.$XW.,.s h f t f c.;X>XL.b.L.H.a.e.R |  X X.X.X.X.X.X.X.X.X.X.X|.| |.R R ",
"R R |..X Xw. X X X Xw.! |..X.X.Xe. Xw.0.7.s.H.I.#X#X*XV.v h s a s x l.N.2.x v j.j.b d N.J.B.v s g f t f k.L.=XI.H.C.k.-.q..X X| |..X.X.X.X.X.X.X.X X|.|. X|.R T ",
"R R  X.X|.| |. X X|.0.| |. X X|.w.|.w.w. X9.3.V.L.*X!.z.g h h t s x j.j.,.x v h.j.v d j.N.j.x s s a t g 1.G.I.L.C.z.-.+. X.X|.| w..X.X.X.X|.|..X.X X|. X X|.R R ",
"| |..X.X Xw.|  X.X|.0.| 0.0.} | w. X.X.Xe.Y ..3.V.C.H.3.f h j t d v ,.h.>.k v ,.,.x d b ,.,.x s s a t g z.L.H.c.z.3.@.T w.0.R  X.X|..X.X.Xw.|  X X X.X.X.X X|.R ",
"R | .X X|.w.|.|.|.|.| } |. Xw.w. X X Xw.|.w.0.O.-.z.V.1.f a a r h b >.,.>.k v ,.,.v h b ,.,.x h s a t f 3.H.V.3.X.O.] 7.|  X X.Xw.w. X.X.Xw.w. X.X.X X| |..X|.|.",
"R R |.|.|.|. X X|. X Xw.|..X.X X X Xw.0.w..X XY O.-.a.&.u t t g c :.b >.>.v v :.,.v k >.,.>.v c h g f f X.3.a.@.W Y R 0.e. X.Xw.0.w.|..X.X X X.X.X X|.} R .X|.R ",
"R | | |  X.X.X.X.X.X.X.Xw.w..X X X X X X X Xw.R } 0.J A A u j $.$.&.&.&.%.%.$.$.%.%.$.&.*.*.&.&.$.$...u E J 7.0.0. X X X X Xw.} 0.|.|. X.X.X X.X X|.|.|..X.XR T ",
"R R } | w..X X X.X.X.X|.0.w..X.X.X.X X X X Xw.0.| | R U W J O.6.8.8.O.J O.O.o.E o.o.o.o.+.8.8.8.9.9.6.Q Y T w. X.X.X X X X Xw.} |. Xw.0.|.0.|..X.X X|.|..X.XR Y ",
"R R R R | |.w.|..X.X X| w. X.X.X X Xe.|..X.X Xw. X X X0.| | } | R R R T R T Y Y T T U U T R | |. X X X| |. X.X.X X X X X.X X|.w.|. X|.w.0.0.|. X.X.X|. X.X.XR Y ",
"| R R R ! R w. X X.X X| w.|. Xw.w.0.| w..X.X.X|. X.X.X.X X X Xw.R R .X.X X|. X X X| R R R } w. X X X X X| |. X|.0.0.0.w..X.X X X|..X.X X|..X Xw.} | .X.X.X|.|.R ",
"T R R R 0.R 0.| R R | | | | 0.| 0.} } 0.0.w.w.w.w.w.|.|.w.w.|.0.T R |.R R R |  X|.R R R 0.} } } | R | R R | | | 0.0.0.w.w.w.w.|.w.|.|.|.w.w.w.w.T T | | R R R R ",
"U Y T R | 0.R R R T T R R R R R w.} w.| T T } 0.0.R R ! R R | 0.T T R T U T R R R R R R 0.} } T R Y R R R R R R 0.0.w.0.T T R 0.0.R R R } R 0.0.T T R T Y Y Y Y "
};
