/* XPM */
static char *__resized[] = {
/* columns rows colors chars-per-pixel */
"80 80 225 2 ",
"   c #0D0A0A",
".  c #110E0C",
"X  c #0E120A",
"o  c #13130B",
"O  c #171C0A",
"+  c #151311",
"@  c #191613",
"#  c #1C1A15",
"$  c #241917",
"%  c #2D1D1B",
"&  c #142107",
"*  c #1A2606",
"=  c #1D2B07",
"-  c #1A240B",
";  c #1E2C09",
":  c #1F3108",
">  c #1F201C",
",  c #23260E",
"<  c #202E09",
"1  c #262D0B",
"2  c #223409",
"3  c #26330C",
"4  c #263B0A",
"5  c #293E0B",
"6  c #242414",
"7  c #292618",
"8  c #33211E",
"9  c #392D1A",
"0  c #2C3412",
"q  c #293813",
"w  c #363716",
"e  c #282825",
"r  c #352421",
"t  c #3A2622",
"y  c #3D2B23",
"u  c #2B3522",
"i  c #3B3924",
"p  c #343634",
"a  c #42371C",
"s  c #422E25",
"d  c #452D29",
"f  c #482F2A",
"g  c #443126",
"h  c #463228",
"j  c #4B332B",
"k  c #493A2A",
"l  c #51362D",
"z  c #523A2E",
"x  c #5B3E2E",
"c  c #553731",
"v  c #553D31",
"b  c #5C3C33",
"n  c #613E37",
"m  c #2B430B",
"M  c #2E4A0C",
"N  c #314E0D",
"B  c #34530E",
"V  c #365A0F",
"C  c #395D0F",
"Z  c #2B4612",
"A  c #2C4B13",
"S  c #374816",
"D  c #2F5217",
"F  c #345512",
"G  c #395412",
"H  c #375911",
"J  c #395C10",
"K  c #345C19",
"L  c #39591E",
"P  c #3C620F",
"I  c #376215",
"U  c #3C6311",
"Y  c #37631A",
"T  c #39651B",
"R  c #3D6D1D",
"E  c #3F711F",
"W  c #384925",
"Q  c #385625",
"!  c #3E4A33",
"~  c #3D6821",
"^  c #3F7220",
"/  c #49471D",
"(  c #40630B",
")  c #426B0F",
"_  c #46710E",
"`  c #4A750E",
"'  c #4D7C0F",
"]  c #507E0F",
"[  c #426A11",
"{  c #426819",
"}  c #487516",
"|  c #4B7913",
" . c #41751F",
".. c #43791F",
"X. c #517E11",
"o. c #484626",
"O. c #50432B",
"+. c #445525",
"@. c #455A25",
"#. c #495C29",
"$. c #515829",
"%. c #444C35",
"&. c #574333",
"*. c #5B4435",
"=. c #5C4936",
"-. c #5B4938",
";. c #45583A",
":. c #5B5735",
">. c #65482D",
",. c #644334",
"<. c #634239",
"1. c #6A453C",
"2. c #644B3C",
"3. c #6B4938",
"4. c #724C3B",
"5. c #69563C",
"6. c #78523A",
"7. c #7C543D",
"8. c #466726",
"9. c #436E22",
"0. c #4D6329",
"q. c #526C2C",
"w. c #427620",
"e. c #4B7426",
"r. c #457C21",
"t. c #4A7D25",
"y. c #4E7A2A",
"u. c #54772B",
"i. c #5A7231",
"p. c #5E7932",
"a. c #6B643C",
"s. c #617D34",
"d. c #474B46",
"f. c #4B5445",
"g. c #505350",
"h. c #684A40",
"j. c #754C42",
"k. c #6D5945",
"l. c #7C5144",
"z. c #745B46",
"x. c #526348",
"c. c #5C6155",
"v. c #766547",
"b. c #756A42",
"n. c #7D7246",
"m. c #796650",
"M. c #82593E",
"N. c #855A41",
"B. c #845844",
"V. c #8C5C49",
"C. c #82664B",
"Z. c #89674B",
"A. c #946545",
"S. c #996947",
"D. c #95644A",
"F. c #9B694B",
"G. c #84754B",
"H. c #846C54",
"J. c #8B6D51",
"K. c #9B6750",
"L. c #8B7356",
"P. c #947455",
"I. c #94775C",
"U. c #9A7A5B",
"Y. c #A26E4F",
"T. c #A8744D",
"R. c #AC7552",
"E. c #AF7854",
"W. c #B47A55",
"Q. c #B87E55",
"!. c #967B64",
"~. c #9C7E65",
"^. c #9B7F68",
"/. c #A07F62",
"(. c #52820F",
"). c #578A0F",
"_. c #568712",
"`. c #538915",
"'. c #5D9212",
"]. c #60970F",
"[. c #619611",
"{. c #669D12",
"}. c #6BA411",
"|. c #6EA912",
" X c #71AB11",
".X c #75B213",
"XX c #79BA13",
"oX c #478022",
"OX c #498423",
"+X c #4C8A24",
"@X c #55832A",
"#X c #58872C",
"$X c #63862F",
"%X c #9C855A",
"&X c #A4875E",
"*X c #BD8156",
"=X c #9D8064",
"-X c #9E816B",
";X c #A38263",
":X c #A98764",
">X c #A48E61",
",X c #AC8A64",
"<X c #A3856D",
"1X c #B08D67",
"2X c #B18F6B",
"3X c #AA906C",
"4X c #B4916D",
"5X c #A88B73",
"6X c #B69472",
"7X c #B99674",
"8X c #BB9877",
"9X c #B5967C",
"0X c #BC9B7C",
"qX c #C58A56",
"wX c #C68A57",
"eX c #C28558",
"rX c #C98C5A",
"tX c #CE9059",
"yX c #D1935A",
"uX c #C09F7F",
"iX c #BF9E81",
"pX c #C09F82",
"aX c #C2A285",
"sX c #C5A689",
"dX c #C8A98C",
/* pixels */
"D Y  .R E E E E  .R R  ..... .E E ..w. .E R E r.r. .....^ R R R E ^ w.E E r. .R ~ T ^ E R E E E E E T R K K E E E E ....E R E ..r.E .. .E R R R ^ ^ w.E E r.R K ",
"T R  . .^ r.E E E E E r.r.E ..E ^ ^ E E R E E ^ E E E E ^ w.r.r.r.r. .E E r.r.r.r.w.^ ^ ^ r.E E E E E E R T E E E oXE E E E r.E w.E E E R w.r.r.r.r. .R E r.E R ",
".. . ...r.r.E E E ..r.oXr.r.r.r.w.r.^ ^  .r.r.r.E E E ~ ^ oX+X+X+XoX .R E r.OX+X+XoXw.r.oXr.E E E ....oXr.E r.^ E ^ E E E r.r.^ E E R E w.oX+X+X+XoXw.R  .r.....",
" .r.OX+X+Xr.w.w.....E oXOXOX+X+XOXoX^ ^ r.OXOXOXOXoXOXOXOXoXoXOXOXOXOXw...oXOXoXoXoXOX+XOXoX^ r...E E oXOXOX+X+X+XOX^ E r.OX+XOXoXoXOXOXOXoXOXOXOXOXoXr. .OX..E ",
"R r.oXoXOX+XOXoXoXr.r.oX+X+X+X+XOXOXoXoX+X+X+X+X+X+X+X+XOXr.r.r.r.r.OXOXr.oXOXOXoXoXoXoXOX+XOXoXOXoXr.oX+X+X+XOXOXOXOXOX+X+X+X+X+XOX+X+XOXr.r.r.r.r.OXOXr.r.w.E ",
" . .w.^ oX+X+X+XOXOXoXoX+XOXr.r.oX+X+X+X+X+X+X+XOX+X+X+XOXr.r.w.^ ^ OX+XOXr.oX+XOXr.^ ^ oX+X+X+XOXOXOXOX+X+Xr.r.OX+X+X+X+X+X+X+X+X+X+X+XOXr.w.r.R w.OX+XOXr.r.w.",
"R { w.r.r.r.r.r.r.r.^ r.r.r.OXOX+XOXr.w.r.r.r.OX+X+X+XOXOX....r.R ~ oX+X+Xr.w.r.r.r.^ r.r.oXoXr...^ r.r.^ r.OXOXOXOXoX^ r.oXoXOXOX+X+X+XOXr. .r.R R t.+X+Xr.R T ",
"R R  .oXr. .w.w.^ ^ ^ ^ R E r.OXOXoXr.r.w.r.w.r.r.+X+X+X+XoXoXoX..r.OX+XOXw.E E r.r.^ oXr.^ ^ ^ E E E E E E r.OX+XoXoX^ r.^ r.^ t.OX+X+XOXOXt.OXr.r.OX+X+Xw.R Y ",
"R E ..r.r.E ^ ^ ^ ^ ^ E ^ E R r.OXoXOX+X+XoXw.E ..OX+X+X+X+X+X+XOXOX+X+XOXE w.oXr.w.w.r.^ ^ ^ ^ ^ ^ ^ ^ ~ T R r.oXoXOX+XOXoX^ E r.OXOX+X+X+X+X+XOXOX+X+XOXR R R ",
"R E  .r.r.^ E ^ R ^ ^ E w.r.^ r.OXoXOX+X+XOXr.OX+X+X+X+X+XOXOXOXr.w.w.OXOXoXOXOXr.r...r.t.^ ^ ^ ~ ^ R K D K ^ oXOXoX+X+X+X+XoXOX+X+X+X+XOXOXOXOXr.^ r.OX+XoXr. .",
"E E ^ oXOXoX^ ^ w.r.r.r.r.OXOX+X+XOX+X+X+XOXOX+X+X+X+X+X..t.OXOX^ R R r.+XOX+X+XoXr.w.oX+XOX^ ^ E ~ Q K D ~ r.+X+XOX+X+X+XOXOX+X+X+X+XOXr.r.OXOX^ ~ R r.+XoXr...",
".. .r.+X+X+Xr.r.oXOX+X+XOXOX+X+X+XoX+X+Xr.oX+Xr.OX+X+XoX .oX+X+Xw.R ^ OX+X .r.OX+XoXw.OX+X+XoX^ ^ W W ~ r.r.+X+X+XoXOX+Xr.oXOXoXOX+X+XOXw.OX+X+Xr.R E OX+Xw. . .",
"R E  .oX+X+X+XoX^ r.OX+XoXr.+XOXr.+XOXOXOX+XOXOXOX+X+X+XOX+X+X+XOXr.OX+X+Xr...OXoXr.w.oXOX+X+Xy.! Q ~ OXr.oX+XoXr.OX+X+XOX+X+XoXOX+X+X+XOX+X+X+XoXoXOX+XOXr. .E ",
"R E ..r.OX+X+XOXw.^ r.+XoXr.+Xr.r.OXOXr.+X+X+XOXOXOX+X+X+X+X+X+XOX+X+X+XOXOXOXOXr.r.r.r.OX+XOX~ ;.~ ^ +XoXr.OXoXr.+XoXr.+X+X+XOXOXOX+X+X+X+X+XOXOXOX+X+XOXoXr.E ",
" .r.OX+X+X+XOXOX+Xr.r.+XoXoXoX+X+XOXw.R r.OX+Xr. .r.OXOXOX+X+XoXr.r.r.oXr.OXOX+XoXoXOXOX+XOXQ W ! ^ OX+XoXoXoX+X+XoX^ E r.+X+X^ w.r.OXOXOX+X+XoXr.r.oXr.OXOXr.w.",
"E ..OXOX+X+XOXOX+X+XOXoXOXOXOX+XOXr. .^ w.r.r.E  .r.r.r.r.r.OXOXOXOXOX~ T |  .{ R w.OXOX+XOXQ W ~ ^ OXOXOXOXOX+X+Xr.E ^ ^ r.oX^ ^ r.r.r.r.oXOXOXOXOXOXOXOX+XoX..",
"E ..OXw.r.+XOXOXOX+XoXr.r.OXOX+X+Xr. . .w.w.r.w.r.r.r.r...r.oX+XOXt.`.} _ ] ` [  .| +XR w.OX;.;.oX+XoXr.OXOXOX+X+Xr.E E E E oX^ r.r.r.r.r.r.OX+X+X+X+X+XOX+XoX..",
"....r.R w.r.r.OXOXw.^ ^ E w.OX+X+XOXOXr.r.OX+XOX+XOXOX+X+X+X+X+Xr.w.X.{..X X}.|..X{.X.H Y e.x.x.r.^ ^ ^ E ^ OX+X+XOXoXoXOXOX+X+XOX+XOX+X+X+X+X+X+X+X+Xr.w.OXr.r.",
" .r.r.w.w.w.r.r.r.w.r.r.^ E r.+X+X+XOXOXr.r.OX+X+X+X+X+XoXOX..Y `.{.{. X.X}.{.}.XX.X{.'.} L x.x.^ ^ ^ oXE E oX+X+X+XOXOXr.r.OX+X+X+X+XOXr.OXOXOXr.r.oXr. .w.r...",
"R r.+XOXr.r.r.w.w.w.r.OXw.E oX+X+XOX+XOXr.r.oX+X+X+X+XoXR ..} U [.XX.X}.[._.' ).}. X|.XX'.J f.;.~ ^ oXoX^ E oX+X+XOX+XOX..r.OX+X+X+X+XOXr.r.OXOXr. .r.r.r.E  ...",
"w.r.OX+X+X+XOXOXOXr.^ ~ ~ w.OX+XOXoXOX+X+X+X+XoXoXOX+X .Y | ].|.|.}.}.{.(.B C _ X.(.(.).)._.o.p Q ~ ^ ^ E ^ +XOXoXoXOX+X+X+X+XoXoXOXOX+X+X+X+X+X+X+X+X+XOXt.....",
" .r.OX+XOXOXOXOXOXOXr.r.r.OX+X+XOXr.oXOXOXOXoXOXOXt. .{ } '. X.X'.} ( _ ` V P ) ` ) P N ( ).} #.f.Q R ^ oXOX+X+XoXr.oX+X+XOXoXOXOXOXOXr.OXOXOXOX+XOXOXOX+XOX....",
" ...OXOXOXOXOX+X+X+X+X+X+X+X+X+XOX .r.r.r. .w.OX+X..R _ ).}.|.{.` M ; M P ) ) _ ) ) B < N (.[.$Xc.! K oXOX+X+X+XOXw.r.r.r.E E +X+Xr.r.r.^ r.r.r.r. .w.OX+XOX.. .",
" .r.r.OXOX+XOXr.OXOX+X+X+X+XOXOXr.r.w.w.w.r.r.OX .U ).'.] ] '.}.] V B V C C C P ) ) V M C (.(.{ ! f.! D I E OXoXr.r.r.^ E r.OX+XOX^ ^ w.r.r.^ r.E  .r.OXOXOX..E ",
" .r.r.OXOXoXr.r.r.oXr.r.OX+XOXr.r.oXr.r.r.OXr.{ U ) ] ' U P ' }.(.P U J H C U U [ P J J ) ' ) H W g.d.W T _ R E r.oX....r.OXOX+XoX^ ^ r.r.^ ^ ^ E E oXoXoXoX..E ",
"E ..+X+XoXE r.r.oXoXr.^ oX+XOXOXOXOXOXOXOXOXr.J P ` J M m B U ).' ) P J C ) ) J J C C P _ | H B F %.g.g.q._ B I oX+X+XOX+XOX+X+XOX^ ^ E E E E E E ..OXoXoXoX..E ",
" .r.OXOXE E E ..+X+XOXOXOXOXoXOX+X+X+Xr.J { | U J U J M 4 M ) (._ H J ) ) C m 4 4 N P ) ) J M 4 2 q %.g.%.H _ C I OX+X+X+X+XOX+X+XOXr.R R ^ w.r...oXoXoXOXOXoXE ",
" .r.OXr.oXr.E ..+X+XOXOX+XOXoXOX+X.... .H C [ J H J J N 5 m B ) U H H ) _ B M m m B U [ P H M 4 - - u g.p Z } U U ......OXOXr.+X+X+Xr.r.r.r.oXOXOXOXOXoXOXOXoX..",
" ...+X+X+X+XOX+X+XOXr.r.r.+X+X+Xt.I H J H H H B V C J H N 4 5 H J J C C P J U P C C ( U H F A q * & e d.p q J _ | _ U K .... .OX+X+X+XOX+X+X+X+X+X+X+XOXoXoXE E ",
"E  .oX+XOX..OX+XoXOXr.w.oX+X+X+X .A m B H H H U ) ) P H B B F J H J ( ( C P +.S H C U P B : 0 7 o O > p p u q M P J U U  .t.OX..r.+X+X+X+XOX+X+X+XOX..oXOXE E R ",
"E ..OX+XOX .oXOXOXoXr.^ r.OXOXw.I Z 5 M H H H P ) ) U J H H J J J C ) C V C S 9 S S F U m o # @ . @ e p e > # 5 B N B J J R ..r.oX+X+X+X+XoXoX+XOXoXoX+XOXoXE E ",
" .r.+X+XOXr...OX+XoX^ r.r.r.^ K Z N m m H H B H J J J H H M M V J C V C C V / a 9 w S F m o + +   # e p > X # q B 5 m m 5 Z F r.+XoX+X+X+X....OX+X+X+X+X+XOXoXE ",
"E r.OXOXoXr.oXoXoXoXr.E oXr.K Z m m m m B V N V N N 5 N H N N B H N N B C C / >.a w G C 4 @ # +   . # > + + 7 > : m m m 2 2 m A K  .OX+X+XoXr.OX+X+XOXr.oXOXOXoX",
"E  .oXoXoXoX+XOXoXOXoXr.OXw.Z 4 4 4 5 m N N M N N 5 4 m G B B B G S B B V C / &.a N V C M 6 6 # X   . . X @ 7 # & Z M m 4 : 2 : m K w.OX+XOXoXOX+X+XoXE E +XoXE ",
"R  .r.r.oX+X+X+X+X+X+X+Xr.K 2 2 2 < 2 4 m M m m m m B B B B V B k O.P V S ( w 9 B V N C G m , - ; @ + # - - - : 5 m m m 4 2 2 2 2 m T r.+X+XOX+XOXoXr.oX+X+X^ R ",
"E  . . .r.+XOXOX+X+X+Xr.Y m 2 2 2 < 2 4 m m m m m M N N m N B V a a N N M N 5 5 V N 5 B B m 2 2 m 3 3 q 4 4 : : m m m 2 2 2 2 4 2 2 m K r.r.oX+X+XOXoXOX+X+XE Y ",
"E E E E r.r.r.oX+X+XOXE Z ; 2 4 2 4 4 4 4 5 m m m m m m m 5 M B w w 5 m 5 m m M B m 4 M M m 5 m m Z m m M m m m m 5 2 < ; 2 2 2 2 2 = m Y E oXOX+X+XoXOX+X+XE R ",
" . .E  .^ ^ r.OX+XOX..K m 2 2 2 2 2 2 2 4 5 m m 5 5 m 5 5 m m m m 5 5 m m m m m M m m m m m m m m m M m m m m m 4 4 = = ; 2 2 2 2 ; = 2 5 R +XoX..E +X+X+XoXoXE ",
" .....r.oXr.oXoXoXOXR Z 2 < 2 2 2 2 2 < 2 5 5 4 5 5 2 2 5 m m m M M M m m m m m m m M m m m m M m m m m m m 4 m 2 2 : = 2 2 2 2 : = = = : R +XOXE ..+XOX..E r.oX",
"E  .oXOXOX+XoXr.r.r.Y : = ; < 2 2 2 < < 2 2 4 4 2 4 = 2 5 5 m m 5 m m m m m m 5 m m m m m m m M m 4 : m m : : : 2 2 2 2 2 2 2 ; ; ; ; : D E OX+X....OX..E r.E E ",
"I w.OXOXoXOXOXOXoXoXY 2 : ; = = < 2 2 < * = 2 2 4 2 2 2 2 2 4 4 = * 2 4 5 5 m 5 4 4 5 5 M m 4 2 4 2 : = < 4 2 2 2 2 2 2 2 < * * = : q D E r.r.oXOXOX+Xr.oX+Xr.R ",
"R  .r.t.r.oXr...r.r.E K Z : - = < < 2 < * < 2 2 2 2 2 2 2 2 2 2 = * 2 2 4 4 4 4 2 2 4 4 5 5 2 2 : = = < 2 2 4 2 2 2 < = = = < * : Z D R r.oXOX+XOXOXr.r.r.OXoX .",
"r. .w.r.oXr.E E ^ r.r.r.Y A 2 : < = < < < 2 < 2 2 2 2 2 2 2 4 2 2 2 2 2 2 2 4 2 = < 2 4 2 2 2 < = = 2 2 2 2 2 2 2 2 < * = : 4 2 Z T ~ ^ E oX+X+X+XoX .R E r.r...",
"R r.OXOXOXoX.. .r.^ w.r.r.^ T D 2 = = = < = * * = = : : 2 2 2 2 2 4 2 < < 2 2 2 2 2 2 2 2 2 2 2 < 2 2 2 2 2 = - < < 2 = * 2 F U r.r.oXOXOXoXoXOXOXOXoXr...oX..E ",
"R r.oXoXOX+XoXoXoXr.r.OX+X+Xr.T K D F N 3 1 , = = = = = = < < 2 2 = < < < 2 2 2 2 2 2 2 2 2 2 2 < < : = : : = * , w i o.Z D w.OX+X+X+X+XOXr.r.r.r.r.OXOXr.oXr.E ",
"E E w.w.oX+X+X+XOXOXOXoX+XOXr.r.r.OXOXw.o.k k w q Z q 3 3 < * * * = < < 2 2 2 2 2 < < < 2 2 < < = * * < , 3 q 0 i -.k.v.q.r.+X+X+X+X+X+XOXr.r.r.^ ^ OX+XOXr.w.^ ",
"R E E r.oXr.oXr.r.^ w.w.w.r.OXOXOXOXoXe.a.G.I.L.m.m.m.k.:.9 * - = * = 2 2 < * < = = = < * * = < = - , 9 i O.k.m.H.!.<X%Xi.w.r.OXOX+X+X+XOXr.w.r.{ R OXOX+Xr.R T ",
"R R w.oXr. .^ ^ ^ ^ ^ ^ ^ ^ r.OX+XoX..y.G.-X0X0XiX5X5X5XH.O.7 6 , 0 / / w 1 O O O O * 1 w 9 1 * 1 7 i -.c.L.<X5X5X9X0X>Xi.9.w.r.r.OX+X+X+Xr.oXoXr.r.OX+X+X^ R T ",
"R R ....r.R E E E E ^ E ^ E R r.oXoXOX#XG.;X0X0X0XiXsXiX!.h.j r % l S.A.>., o o o   O s >.>.9 $ 8 k 2.z.5XaXiXiXiX0X7X&Xp.w.w.~ r.OXOX+X+X+X+X+X+XOXOX+XOXE R R ",
"R  .....r.r.E E R ^ ^ R w.r.^ oX+XoXOX+Xn.;X0X0XiXaXsX<Xm.-.k t s >.*XA.l % $ $ $ $ % 9 M.T.x % 8 &.h.h.5XdXsXpXiX0X8X&X$Xr.t.OX+X+X+X+XOXOXOXOX..w.r.OXOXoXr. .",
"E E ..t.OXOXw.E w.r.r.r.r.oXOX+X+XoX+X#Xn.;X0X8XiXaXsX!.-.v k y t 4.rXM.8 % % % % % % 8 M.yX4.t t &.-.&.^.dXsXpXiX0X8X>Xs.r.OX+X+X+X+XOXt...OXOX^ R R r.+XOXr...",
".. . .+X+X+Xr.r.oX+X+X+XOXOX+X+X+XoXOX#Xn.;X0X0X0XiXdX-X*.<.-.s s 4.tX6.% % % % % % % $ 7.yXM.j h z z v ^.dXpXpXiXiX0X&Xi.r.+Xr.OX+X+XOX .OX+X+Xw.R w.OX+Xw. . .",
"E E ..r.+X+X+XoX^ r.OX+XoXr.+XOX..+X+X@Xn./.8X8X0XiXsX-X&.&.b s t 3.tXM.$ % % % % % % % 7.rX7.j h j k -.^.sXsXpXuX0X0X>Xp.t.+XOXOX+X+X+XOX+X+X+XOXr.OX+X+Xr. .E ",
"R E r...OX+X+XOXw.^ r.+XoXr.OXoX..+XoXt.b.%X9X0X0XaXsX-X-.v k s s 6.tXM.% 8 % 8 % % % 8 7.eX7.l j h j 2.^.pXaXpXpX0XuX>Xs.t.+XOXOXOX+X+X+X+X+XOXOXOX+X+XOXOXw.E ",
"E ..OXOX+X+XOXOX+Xr.r.+XoXoXoX+X+XOX..8.b.~.8X0X0XaXsX-X-.v j s s M.tXM.8 8 8 % 8 8 s s M.eXM.x j s h 2.^.pXpXpXiX0X7X>Xs.t.+Xr. .r.OX+X+X+XOXoXr.r.r.t.r.OXr.w.",
"E ..+XOX+X+XOXOX+X+XOXoXOXOXOX+X+X..E 8.b.U.6X8X0XiXaX-X2.v k f f M.wXM.l s l x j f l f N.eXN.b j s h h.<XdXsXpXiX0X7X&Xi.w.r.^  .w.r.r.r.r.OXOXOXOXOXOX+XOXOXr.",
"E r.OXr.r.+XOXOX+X+XOXr.r.oXOX+XOX....e.b.U.4X7XuXpXpX^.2.x j s l M.*XT.M.f l ,.z j x 3.T.qXA.x h t g h.<XdXsXsXiX0X7X&Xi. .} w.r.r.r.r.r.r.OX+X+X+X+X+XOX+XoX .",
" .w.r.~ w.oXr.r.OXw.^ ^ ^ w.OX+X+XOXoXt.b.U.4X7XpXdXaX^.2.x j s f M.eX*XM.c t t s r s D.qXyXA.,.g t g 2.-XdXiXiXiX0X4X&Xi...OX+XOXOXOX+X+X+X+X+X+X+X+Xr.r.OXoX..",
"E r.r.r.w.w.w.r.r.w.w.r.^ ^ oX+X+X+XOXt.b.P.2X8XpXaXdX<X2.k h h f M.qX*XV.,.x ,.4.z l K.tXyXS.,.y t y -.-XdXsXiXpX0X6XU.i.w.OX+X+X+X+X+XOXOXOX+Xr.r.oXr.E r.r. .",
"E r.+XoXr.r.r.r.w.w.r.oXw.^ oX+X+XOX+X@Xb.I.2X8X0X0XdX<X2.j s h f M.rXW.M.4.M.R.T.4.b D.qXtXS.,.y t y &.!.dXsXsXpXiX6X&Xi.w.OX+X+X+X+XOXw.r.OXOXr.E r.r.r.E  ...",
"r.r.oX+X+XOXOXOXr.r. .E ~ r.OXOXoXr.+X@Xb.P.2X7XuXpXaX<X<.h s j f M.qXQ.M.,.S.tXW.4.f V.*XqXS.,.y y s v -XdXaXiXiX0X7X&Xs.OX+Xr.oXOXOXOX+X+X+X+X+X+X+X+XOXr.r...",
"E r.OX+X+XOXOX+X+XOXr.r.r.oX+X+XOXr.oX@Xb.P.,X7X0X0XpX!.x s y h f 4.eXR.B.n S.yXQ.1.d D.eXqXS.,.s y y &.=XsXsXiX8X8X6X%Xs.e.r.OXOXOXOXoXOXOXOXOXOXOXOX+X+XOX....",
" .oX+XOXOXOXOX+X+X+X+X+X+X+X+X+XOX .r.y.b.P.,X4X8X0XaX!.l s s f d 1.*XR.M.,.S.rXW.4.f D.rXwXA.,.h y s z !.aXsXiX9X7X2X%Xi.9...+XOXt.r.w.w.w.r.r.r. . .OX+XoX....",
" .....oXOX+XoXr.oXOX+X+X+X+X+XoXw.r.r.9.:.Z.1X4X7X8XuX!.x s s f f ,.R.R.V.3.M.rXW.4.j F.rXqXA.,.j g y k -XsXuX0X7X4X:XP.q.w.OX+XOXw.w.r.r.w.w.w.E  .r.OXOXoXr.E ",
" ...oXOXOXOXr.r.r.oXr.r.OXOXOXr.r.OXr.e.5.H.&X2X6X8XuXU.-.s y h f 1.Y.E.D.,.A.eXW.4.f F.wXeXA.,.f s 9 j !.sX8X0X9X1XU.v.i.r.+X+Xt.E ^ w.r.w.^ ^ R ^ OXoXoXoX..E ",
"E ..+X+Xr.E r.r.oXoXr.^ OXOXOXOXOX+XOXy.b.Z.P.&X4X8X0X~.2.j 9 f l ,.D.R.A.,.N.Q.R.4.f F.wXeXM.,.f s s h I.iX0X8X8X*XJ.a.i.OX+X+XOX..E E E E ^ ^ E w.oXOXoXoX.. .",
"E r.OXoXw.R R r.+X+XOXOXOXOXOXOX+X+X+X@Xa.C.U.&X,X6X0X^.2.d t f j ,.V.K.B.*.M.R.K.1.f F.wXwXM.c l s s h I.uX9X4X&XP.U.G.p.t.+X+XOXOX..E E E r.r...r.oXoXOX+Xr...",
" .r.OXOXr.r.E r.+X+X+XOXOXOXOXOX+XOX+XOX:.m.U.:X:X&X4X/.k.j 9 s f n V.V.j.b 6.D.V.n j D.wXwX1.f l s 9 f L.8X2X&XP.P.P.G.u.....OX+X+XoX..r.r.oXoXOXOXOXoXoXOXoX .",
"E oX+X+X+X+X+XOX+XoXr.r.oX+X+X+X+XOXOXr.#.k.I.3X&XJ.&XU.j.j y s d b B.B.j.b <.l.B.n l V.Q.Q.<.d j g y g C.,X1XP.m.I.J.a.e.E w.oXOX+X+X+XOX+X+X+X+X+X+XOXr.oX..E ",
"E E oX+XOXr.OX+XOXoXr.w.oX+X+X+XOXoXr.r.r.a.Z.U./.&X;XH.&.j h y d c l.B.4.l n j.l.b f B.K.V.n f j g y g 2.I.;XU.Z.Z.z.:.t.+XOX..r.+X+X+X+X+X+X+X+XOXr.oXoX..E R ",
"R E OX+XOXE oXOX+XoXr.r.r.OX+XoXr.r.r.r.OXq.5.C.U.E.~.z.h j k y d c j.j.1.c b 1.j.c f j.B.1.c f d s y g 2.J.U.P.Z.v.:.#.OX+XOX..oX+X+X+X+XoXoXOXOXOXr.+X+Xr.E R ",
"..oX+X+XOXoX..oX+Xr.E E ..r.E ..r.OX+X+XoXT +.5.C.m.Z.k.g j j y f c 1.j.n l b 1.1.c j n h.1.c f s s s h z.P.J.v.5.k.$.{ r.w. .+X+XoX+X+X+Xr.r.OXOX+X+X+X+XOXoX..",
"E ..+XoXoXr.oXoXoXOX..E oXOXr.r.OXOXOXr.r.r.w.@.:.z.v.4.s s s y j n <.1.<.c b 1.1.b j n 1.1.c j d s y g 5.Z.C.5.o.@.8.E r.OXOXOXr.r.oX+X+XoXr.OX+X+XOXr.r.+XOX..",
"E E oXoXoXoX+XOXr.OXOXr.OX+X+XOXOXOXr.w.oX+XOXY @.:.a.-.i y s s v ,.n <.<.c *.<.1.b l <.1.<.b v j h g g &.5.a.:.Q T E  .r.OX+Xr.r.r.oX+X+XoXoX+X+XOXoXE E +XoXE ",
"E  ...oXoX+X+X+X+X+X+X+Xr.^ +XOXt.+XOXOXOXOXr.E ^ w.L S S k k O.&.&.=.=.*.*.&.&.*.&.&.=.-.-.=.=.&.O.o.i W L 9.w...OXOXoXOXOXr. .r.oXr.OX+X+XOX+XOXoXoXoX+X+X^ R ",
"E E ..E r.+XOXOX+X+X+XOXr.r.+X+X+X+XOXOXOXOXr.r.oXr.R Y L Q @.8.0.8.@.@.@.#.+.W +.+.+.+.#.0.0.0.q.q.8.~ T R r.OX+X+XOXOXOXOXr...r.OXr.r.oXr.r.+X+XOXoXoX+X+X^ Y ",
"E E E E r.r.r.OX+X+XOX....OX+X+XOXOXoXoX+X+XoXr.oXOXr.r.^ r.^ r.E E E R R E T Y R T Y Y R E ..oXOX+XOX....OX+X+XOXOXt.oX+X+XoXr.r.OXoXr.w.r.r.OX+X+XOXOX+X+X..R ",
".. .E E ^ E r.OXOXOXOXoXr.oXOXoXr.^ ..r.+X+XOXoXOX+X+X+XoXOXOXr.E E OX+XOXoXOXOX+Xr.E E E E r.OXOXOXOXOXr.oXOXr.....w.r.+X+XOXoXOX+X+X+Xr.OXOXr. ...+X+X+XoX..E ",
"R E E E r.E ..E ..E ........r.E w. . .r.r.r.r.r.r.r.OXoXr.oXr.r.E E oXE E E r.OXoXE E E  .w. ..... . . .....w.w. . ...r.r.r.r.oXr.r.oXr.r.r.r.r.R R ....E E E R ",
"I T R E E r.E E R T E E E E R E w. .r. .R R E r.r.E E E E E ^ E R R E R I R E E E E E E w.w. .R R R R E  .E R  ... .r. .R R E ....E E E w.E w.r.R R E R Y R Y Y "
};
