/* XPM */
static char *Group_9_resized[] = {
/* columns rows colors chars-per-pixel */
"80 80 235 2 ",
"   c #261D3D",
".  c #2B3B29",
"X  c #292A3A",
"o  c #2D3C34",
"O  c #2D363B",
"+  c #2B3838",
"@  c #313A38",
"#  c #2B491B",
"$  c #33551D",
"%  c #355C1D",
"&  c #3A5F1F",
"*  c #37631B",
"=  c #39661D",
"-  c #3D6D1E",
";  c #3F711F",
":  c #2D4629",
">  c #324C25",
",  c #304528",
"<  c #324D2B",
"1  c #355A23",
"2  c #365824",
"3  c #34532C",
"4  c #365A2B",
"5  c #395D2C",
"6  c #2D4233",
"7  c #344837",
"8  c #355332",
"9  c #395533",
"0  c #395934",
"q  c #366020",
"w  c #3A6423",
"e  c #3D6C22",
"r  c #3D642C",
"t  c #3F692B",
"y  c #3F7220",
"u  c #3C6431",
"i  c #41751F",
"p  c #43781F",
"a  c #4E473F",
"s  c #406E25",
"d  c #416B2D",
"f  c #417620",
"g  c #457C21",
"h  c #427128",
"j  c #406632",
"k  c #2B2C49",
"l  c #342E4E",
"z  c #2D3346",
"x  c #343848",
"c  c #2F2E51",
"v  c #373756",
"b  c #3B335B",
"n  c #343A5D",
"m  c #333C63",
"M  c #313A66",
"N  c #3B3965",
"B  c #433941",
"V  c #453B5A",
"C  c #701369",
"Z  c #46386A",
"A  c #50316E",
"S  c #4A3874",
"D  c #334349",
"F  c #3A584B",
"G  c #384758",
"H  c #395555",
"J  c #2E466F",
"K  c #364867",
"L  c #3B446C",
"P  c #3A4B6C",
"I  c #3D5369",
"U  c #344B74",
"Y  c #3B4976",
"T  c #35537C",
"R  c #3A5479",
"E  c #39527E",
"W  c #5C5349",
"Q  c #464155",
"!  c #504D52",
"~  c #655A52",
"^  c #416854",
"/  c #6E655B",
"(  c #45546B",
")  c #545465",
"_  c #42477A",
"`  c #5A4275",
"'  c #44597A",
"]  c #655077",
"[  c #6F6B6D",
"{  c #7C766A",
"}  c #9D0D5F",
"|  c #8D1470",
" . c #AD176B",
".. c #962C7A",
"X. c #B22E78",
"o. c #C73170",
"O. c #BE4A77",
"+. c #857B75",
"@. c #CA517A",
"#. c #478022",
"$. c #498423",
"%. c #4C8A24",
"&. c #8D816C",
"*. c #998D78",
"=. c #583D82",
"-. c #7C3890",
";. c #355483",
":. c #3A5582",
">. c #335888",
",. c #3C5A89",
"<. c #3F658F",
"1. c #4E4583",
"2. c #534385",
"3. c #58478A",
"4. c #425483",
"5. c #475A87",
"6. c #43558B",
"7. c #445D8B",
"8. c #594B94",
"9. c #495792",
"0. c #54579A",
"q. c #6F4E8D",
"w. c #664A9A",
"e. c #496588",
"r. c #516F8F",
"t. c #446593",
"y. c #466897",
"u. c #496E9B",
"i. c #47739D",
"p. c #49729E",
"a. c #577996",
"s. c #7B6E86",
"d. c #5D56A2",
"f. c #5D5BA6",
"g. c #794EA6",
"h. c #6556A8",
"j. c #625AAA",
"k. c #7356AA",
"l. c #695AB1",
"z. c #755DBC",
"x. c #5668A1",
"c. c #4B75A2",
"v. c #4B78A6",
"b. c #4E7DA9",
"n. c #5479A7",
"m. c #5577AC",
"M. c #537DAB",
"N. c #7271BC",
"B. c #7F5FC7",
"V. c #7C73C9",
"C. c #AB1D81",
"Z. c #8B318B",
"A. c #AB3191",
"S. c #CC358B",
"D. c #88469C",
"F. c #8B499C",
"G. c #A95186",
"H. c #9F709E",
"J. c #8857A9",
"K. c #8855AC",
"L. c #8D6BB3",
"P. c #E25591",
"I. c #E5718B",
"U. c #E66993",
"Y. c #965DC3",
"T. c #8661C8",
"R. c #956ACB",
"E. c #8A79C5",
"W. c #9866D5",
"Q. c #A465D5",
"!. c #4E84AE",
"~. c #5F82A7",
"^. c #5282AE",
"/. c #5987B7",
"(. c #5589B3",
"). c #5793BD",
"_. c #5992BB",
"`. c #6A92AD",
"'. c #6C91AF",
"]. c #6C98BC",
"[. c #5F89C2",
"{. c #5B96C3",
"}. c #6292C4",
"|. c #6897C8",
" X c #749AC6",
".X c #708CD1",
"XX c #6A99D2",
"oX c #5EA0C9",
"OX c #6FADCD",
"+X c #73A7C9",
"@X c #67A7D4",
"#X c #73A9D9",
"$X c #77B4D9",
"%X c #76ABE3",
"&X c #69B8E4",
"*X c #79B6E8",
"=X c #7EBEF2",
"-X c #78C2EC",
";X c #9B958B",
":X c #AA9C8C",
">X c #ADA693",
",X c #B9AEA0",
"<X c #BAB6A6",
"1X c #FA95A6",
"2X c #FC93A9",
"3X c #D3CEBA",
"4X c #8989D0",
"5X c #8894D9",
"6X c #8BAFD9",
"7X c #85A8EA",
"8X c #87B7EB",
"9X c #8FB5EA",
"0X c #87B8F4",
"qX c #90CBDA",
"wX c #88C9EA",
"eX c #8FCEEF",
"rX c #99D6E9",
"tX c #86C5F7",
"yX c #8BCCFC",
"uX c #89D4F9",
"iX c #8DDCFD",
"pX c #94D8F6",
"aX c #92DCFD",
"sX c #ACDBEC",
"dX c #96E5FB",
"fX c #9BEBFC",
"gX c #9EF6FD",
"hX c #A6E9F8",
"jX c #A5F8FE",
"kX c #B4F7FB",
"lX c #DDD9C7",
"zX c #E2DCCA",
"xX c #E7E3D6",
"cX c #C4FDFE",
"vX c #C8FBFC",
/* pixels */
"$ * ; - - i i i i - - i i p p i i i p i - - ; g p ; p p ; - - - i i i ; ; p p - * - i - - ; ; i i - - i p p p i ; p p ; - - ; p i i i i i = i i i i p i i p i % ",
"* - i i f g ; - i ; ; g p i i ; ; f i ; - ; i p i ; ; ; y f g g g f i ; ; p #.g f i i i i i ; ; ; ; i p f f i ; ; p i ; ; ; p p i i i i i i p p p p i - i p i * ",
"p p i p g g i i i i p #.g g g f f f f ; i p g f y y ; - f #.%.%.%.$.i - i g %.%.%.g f g #.g ; ; ; i p #.g g g i f f f ; ; g g f i s i s i $.%.%.$.$.i - i p p i ",
"i p $.%.$.g i p p i i #.$.%.%.%.$.#.y - g $.%.$.#.g #.%.#.g $.$.$.$.$.i i #.#.#.$.$.$.%.$.$.i i p i p #.#.%.%.%.$.#.; ; g #.%.$.$.#.p $.#.p $.$.$.$.g p p #.p s ",
"i i #.#.$.%.$.g #.g g $.%.%.%.$.%.%.g $.%.%.%.%.%.%.%.%.$.#.g $.g g %.$.g #.$.$.$.g $.g $.%.$.#.$.p g $.%.%.%.$.$.%.#.#.%.%.%.%.%.$.%.%.$.g g g g g %.#.p $.p i ",
"i i i i #.%.%.%.$.$.$.$.%.$.g g g %.%.%.%.%.%.%.%.%.%.%.$.g f g - y $.%.$.g #.%.$.g i f #.%.%.%.%.$.#.$.%.%.g g #.%.%.%.%.%.%.%.%.%.%.%.g g g g i h $.%.%.p p i ",
"- i i p p #.p g f f f f f g $.%.%.$.g i g g g $.$.%.%.$.$.p i f - i g %.%.g i f #.p i g #.g g g p f p f i g #.%.%.#.g f g g #.#.$.%.%.%.%.g p g i i p %.%.g i = ",
"- - i p p p p p i ; ; ; ; ; g $.$.$.g g f g p p g %.%.%.$.$.#.#.g f $.%.%.f ; i g f f g g i f ; ; ; ; ; ; ; g #.#.#.g p f f g f g %.%.%.%.g g $.i i $.%.$.p = = ",
"- ; p #.g ; ; y ; ; ; ; y ; ; g $.p %.%.%.p p i p $.%.%.%.%.%.%.$.$.%.%.#.f f g g g f g g ; ; ; ; ; y y y - * = y y h g g f f ; p $.%.%.%.%.%.%.$.$.%.%.#.i i s ",
"- ; i p g f ; ; ; f ; ; p f y #.$.$.%.%.%.%.p #.$.%.%.%.$.$.$.$.g i f $.%.#.#.%.g f f g g f ; ; ; ; y y ; e $ : 6 6 6 < 5 i #.$.%.%.%.%.$.$.$.$.p p p #.%.p i p ",
"; ; p #.#.#.f ; i f g g #.#.$.%.%.$.%.%.%.$.$.%.%.%.%.%.p $.$.$.f = - g %.#.%.%.g g f $.%.g i i y g g y y t F I R ( P ( F u f %.%.%.%.$.p g $.%.p - i p %.#.p p ",
"p ; g %.%.%.g f #.%.%.%.#.$.%.%.%.#.%.%.p #.%.#.$.%.%.#.i $.%.%.f - f #.%.f g %.%.g f %.%.%.g f #.%.%.$.u F a.].+X'.]. Xa.^ r e g %.%.$.p g %.%.h - i #.%.i i i ",
"; ; i #.%.%.%.#.f f #.%.#.#.%.#.p %.%.%.$.%.%.$.%.%.%.%.$.%.%.%.%.g %.%.%.g g #.$.f g g %.%.%.$.; g y e ^ r.+XrXsXsXsXrXOXr.F 5 i %.%.$.$.%.%.%.#.#.$.%.%.g i i ",
"- ; p p %.%.%.#.i y g %.#.g %.#.p %.#.p %.%.%.$.g %.%.%.%.%.%.%.#.%.%.%.%.g $.#.g g g g $.%.%.g ; = u F ' (.+XqXkXvXkXsX+Xp.P 8 s $.%.%.%.%.%.$.$.$.%.%.$.$.p s ",
"i p $.%.%.%.#.#.%.#.g %.#.g #.%.%.#.i s g %.%.f p g $.%.%.%.%.#.g g #.g g #.%.%.%.g $.$.%.%.$.$.y q F ~.+X].[ `.qXkXqX`.9.:.Y 7 % g $.%.%.%.%.$.g p #.p g $.g g ",
"i p %.#.$.%.%.%.%.%.%.#.$.#.%.%.$.i i i s g g i i f g g p p $.$.#.#.%.#.%.%.%.%.$.$.%.g %.%.$.g y 6 ' OXqXqX' ~.`.rX6Xa._ M U 7 w f g g g p $.$.$.$.$.%.%.%.g p ",
"; p $.g g %.$.$.$.%.$.f g $.$.%.%.g i p i f f f f g g f g g $.%.%.%.%.%.%.%.%.%.g $.$.f g %.$.f w D y.=XfXqX~.~.+XuX$X~.6.Y Y 7 = g g p p g p %.%.%.%.%.%.%.g p ",
"p p i i i g g g $.f ; ; ; f $.%.%.%.$.g g $.%.%.%.%.%.%.%.%.%.%.%.%.%.p i $.%.%.%.$.f i f g g i w D ,.XXeXpXeXqXwXuXyX8X|.x.Y 9 s $.$.%.%.%.%.%.%.%.%.p g g g p ",
"i p $.f i f g g g f f g i ; #.%.%.$.$.$.g g $.%.%.%.%.$.g $.$.$.g g #.p i g $.%.$.$.g g p g g i w 8 G r.].wXfXdXuX*X*X0X].e.F 4 & & 1 w p #.%.%.p p #.p i g p p ",
"; p $.$.g g g g f f g $.f ; #.%.%.$.$.$.g g $.%.%.%.%.$.g g $.$.p p $.p p s p %.$.$.%.g g g g p e w 3 D 5. XpXaX$X/././.r.^ q 1 > o 6 < % h #.%.p i #.#.g i i p ",
"g g g %.%.%.$.$.$.p i ; e f %.%.$.$.$.%.%.%.%.#.$.$.$.%.%.%.%.%.%.%.%.%.%.g $.%.%.$.$.%.%.%.$.$.#.y % . x e.#X#X_.T L K 0 t y 3 D L K D 3 s %.%.%.%.%.%.%.g p p ",
"i g $.%.%.$.$.%.$.$.g g g g %.%.$.f #.%.$.$.g $.$.$.g $.$.%.#.%.%.$.g %.%.$.%.%.$.$.$.%.%.$.$.%.%.$.= # X _ m./.y.M z 6 3 1 5 H ' r.5.( D 9 s $.%.%.g %.%.$.p p ",
"i p %.%.#.#.$.$.%.%.%.%.%.%.%.%.$.i g g f i p %.%.g g f y f f g g p p $.$.p g g g g $.g g g g g %.%.f > x L 7.7._ v 7 % % , z R p.(.v.t.L x > f p p p %.%.g p p ",
"p p g #.%.%.#.g $.$.%.%.%.%.%.#.g p f f i g $.%.$.i f g g f f f s g g g i s & $ 2 $ $ $ $ 2 2 $ = g %.y 4 D n M v 6 1 = % 6 m r.(.).!.u._ l o f p p p g $.$.g i ",
"i p g $.$.#.g g g g g g %.%.#.#.g #.g f p #.%.%.$.; f f g f ; y s i p p i 2 @ @ 6 @ o @ 6 7 @ o < w g g e < z z 6 q f ; % 6 b 7.v.^.c.7.L c o - ; ; #.#.#.#.p ; ",
"- g %.%.#.; f #.$.#.f y g %.#.#.$.%.$.$.%.%.$.%.$.f ; ; ; ; y ; = * i s 2 x b ( N n n n n N L n x 3 % = = 5 o . 4 #.%.g - < x P e.y.,.U n + > y ; i $.$.#.#.p i ",
"i g $.$.p - ; p %.%.%.%.%.#.g $.%.%.%.%.%.%.$.%.%.$.f ; - i i i $ . . . 7 P e.u.e.7.4.E Y 4.7.4.K 7 : . > > 1 w g %.%.%.g s 5 D K _ _ n + < = f p #.p $.$.%.p p ",
"i g $.$.#.f i p %.%.#.%.%.%.#.%.%.%.%.%.%.#.#.%.%.%.#.f p g f e < O X x G e.^._.(.M.i.y.y.u.c.y.,.K x z @ 6 $ p %.%.%.%.$.g e 3 D v x x 3 e g $.%.$.$.#.#.$.#.i ",
"i p $.%.%.%.$.%.%.#.g f $.%.%.%.%.$.$.$.#.g ; #.$.%.%.%.%.#.e 7 G ( :.,.t.M.).oX{._.(.!.b.b.b.v.u.5.Y Y m x < e #.$.$.$.$.g - w > . . 3 i $.%.%.%.%.%.#.#.#.p ; ",
"- i $.%.$.p $.%.%.#.g f #.%.%.%.$.#.f g %.%.#.g g %.%.%.%.= < G ' p.^.!.M.(._.)._._.(.(.b.c.c.p.p.u.t.e.E L G 7 1 g p f $.%.$.i - s s f $.$.%.%.%.$.p #.#.p ; - ",
"- p $.%.$.p $.$.#.#.g f #.$.$.#.g g g g $.%.#.g #.%.%.#.e : z R v.{.oXoX{.(.(.^.(._.(.(.b.i.u.i.i.c.c.t.,.Y _ b 7 w i g %.$.g p p %.%.%.$.$.$.%.$.$.#.%.%.g ; ; ",
"i g %.%.$.p p $.%.g f f p f f p g $.%.%.#.p ; #.%.g #.e , X J v.{.&X-X-X@X).^.M.(._._.(.^.i.u.i.c.v.c.<.6.9.0.=.V , = $.#.i i %.%.#.%.%.%.p p $.$.%.%.%.%.#.#.p ",
"; #.$.$.#.#.#.#.#.#.g y g $.g #.$.$.$.g #.#.#.$.g y e 5 ! ' ~.OX-XuXiX-X-XOX{.(.(.(.(.^.b.p.u.u.i.v.i.e.,.6.j.d.3.n 7 w f #.$.$.g g $.%.%.g g $.%.%.$.p #.%.#.p ",
"; ; $.g #.#.%.$.g %.$.y #.%.%.$.$.$.g i #.%.%.g - 1 8 ( ~.+XwXsXhXhXgXdXiX-X$XoX(.M.b.v.c.p.u.p.i.p.i.<.,.6.0.f.d.2.Z @ 5 f %.g g i $.$.%.$.$.$.%.$.#.i ; %.#.; ",
"; ; #.g #.%.%.%.%.%.%.%.g y %.$.$.%.$.$.$.#.g ; $ . G ~.qXhXkXvXvXcXkXgXdXfXrX$X_.v.c.i.p.p.p.p.c.c.u.<.:.T T 9.f.h.2.V , % p i g $.g $.%.$.$.%.$.#.#.#.#.%.g ; ",
"; ; ; ; #.$.#.$.%.%.%.$.g g %.%.%.$.$.$.$.#.g f $ . I `.pXkXkXcXcXkXkXjXgXjXfX-X@X(.i.t.t.p.p.p.i.c.<.,.>.;.>.:.5.` S N + 1 g i p $.g g $.g #.%.%.$.#.#.%.%.; * ",
"; ; ; ; g #.g #.%.%.$.g g #.%.%.$.$.#.#.%.%.#.f % o R +XdXkXkXkXkXkXhXjXgXjXfXpX*XXXv.t.<.<.c.c.y.<.,.,.;.;.>.R ) ) Z B + 1 g p g $.$.g f f g $.%.%.$.$.%.%.; = ",
"; ; ; p ; ; g #.%.$.$.#.g #.$.g f g p g %.%.#.y 4 H M.$XdXjXgXfXeXqX6X6XeXdXfXdXyX*X}.n.c.c.i.c.t.:.P L P J U ( [ / / ! @ > i g #.%.%.$.#.$.%.g i p %.%.%.#.g p ",
"p p p #.#.#.g #.g #.#.#.#.#.#.#.#.g g $.$.g t 0 ^ p.OXuXdXgXjXsX6XL.q.J.4X8XiXdXyXtX*X|.!.v.!.i.t.( H @ x x x ~ ;X,X;X/ B . < w f $.$.$.$.$.%.$.i i $.$.p p p p ",
"; ; #.$.$.%.g #.g g #.#.$.#.#.#.%.$.%.%.g = 4 G t..XwXaXfXfXfX9XL.Z.| | F.5XwXiXyXyXtX%X[.c.<.r.e.) W W W a a +.<XzX,X+.B X O 4 f #.$.$.#.$.$.%.p p $.p i p p ; ",
"* ; $.#.$.$.$.$.$.g g $.%.%.%.$.$.$.%.%.g = 0 K 8.N.5X9XhXyX6XL.Z.C. .o.O.L..X7XtXyXaX0X|.c.<.' [ &.*.*.:X>X>X>X<X<X;Xs._ N z < s $.%.$.$.g g $.$.$.%.g g %.p i ",
"; ; g #.g #.g g #.g g $.$.g #.#.g #.g g f e 3 K A -.K.4XyX5XL.Z.A.S.P.I.@.X.D.N.8XaXaX-XXXi.I ! / *.3X3X3XzXxXlX>X{ s.s.8.S l , = f g p f $.$.$.%.$.g i p %.p i ",
"p p ; p #.#.; ; ; p g g g p p y f f f - ; - 4 K A C Z.L.9XV.g.| S.U.2X1XU. .| g.8XiXaX=XXXi.P ! / *.<X3XlXxXxX3X>X[ ] q.3.Z z : % i i i i g %.%.%.g p i p g p p ",
"; p %.%.$.$.; ; g ; y #.%.%.%.%.$.#.i ; g ; u K A C | R.7XE.Z.} @.1X1X2XP.} | g.7XiXdXtXXXv.R P ^ { &.*.*.*.*.>X<X<X;X[ Q l z < - g g $.$.$.$.$.%.$.g p p $.p i ",
"; g #.$.$.%.$.#.g g g #.%.%.$.%.%.%.#.#.%.g u K A C F.E.0X.XK...@.I.I.U.S.C.Z.E.0XiXuX*X].i.,.;.( ! W ~ W W ! { :X3X,X+.! B l < - $.%.%.%.g g $.g p $.$.p #.p i ",
"; ; ; ; #.%.%.%.%.$.#.$.%.%.g g #.%.%.%.%.y 4 H 5.k.4X7X0X%X4XH.G.@.o.C.A.F.E.7XyXyX*X}.v.<.,.;.T K G x x z X ! +.>X,XH.q.A l < s %.%.$.g g g p i s $.%.%.p p p ",
"; ; ; #.#.#.g g g p p y y g #.%.%.#.#.y p - 3 K 9..X9XyXyXyXtX5XJ...} | A.E.0XuXtX%X}.u.,.:.:.;.;.R Y U Y U U K ) / H.H.K.` z : - $.%.%.%.p p p i s g %.%.p i * ",
"- ; ; #.g ; ; ; y y y y y y g #.%.#.#.p p * > K x.@XyXaXyXaXaXtXE.g.-.-.E.0XyXuX#X_.p.,.E :.E E :.:.;.;.;.>.9.4.( ! q.K.J.` 6 $ i %.%.%.%.g p #.i p $.%.%.i * * ",
"- ; ; #.p ; ; ; ; ; ; ; ; ; ; ; $.p %.%.%.- < K t.oX=XyXyXiXiXyX0X5X.X5X9XeXuX#XM.t.:.:.T E T E E :.;.T ;.,.0.d.0.3.3.3.Q 7 & = p %.%.%.%.%.%.%.%.$.%.%.$.i - s ",
"- - ; #.#.; ; ; ; ; ; - p p p $.$.#.%.%.%.i 3 G 6.N.%X=X0X0X=X*X=X0X0X=X=XtX#X/.,.U U T E T T T T T T ;.6.9.d.z.T.z.w.Z @ $ p #.%.%.%.%.$.$.$.$.p i g $.$.$.p i ",
"; ; ; $.$.$.p ; ; p #.p #.$.$.%.%.$.%.%.%.i > x :.j.V.%X0X%XXX}.%X=X*X@X{.[.M.t.U U U T T T T T T T T 6.0.d.h.T.W.W.g.N . $ g %.%.%.%.$.p g $.%.i = s p %.#.p p ",
"#.; ; %.%.%.#.p $.%.%.%.#.$.%.%.%.#.%.%.g i 2 z N 8.B..XXX/.y.t.[.XX[.u.;.:.:.;.E ;.T E :.:.:.:.T T :.0.j.k.l.T.W.Q.D.S X , d s p %.%.$.p g %.%.p - i $.%.p i i ",
"- ; ; #.%.%.%.#.; ; $.%.#.#.$.#.#.%.%.%.$.p e 7 b A 8.f.x.' J Y m.XX[.t.J J J U T T T T 6.6.9.9.9.9.0.l.B.B.W.W.Y.F.` Q 7 0 t f $.%.%.%.$.$.%.%.$.g %.%.%.g i s ",
"- ; p #.$.%.%.#.p ; #.%.#.#.$.#.p $.#.p %.$.h 5 D b b Z N c c L m.XX[.9.J J U T T T T ,.0.j.h.h.f.j.j.l.B.B.Q.Q.g.` v 7 u u d t p $.%.%.%.%.%.%.$.%.%.%.$.g g i ",
"; p #.%.%.%.#.$.%.$.#.$.#.$.$.$.$.$.i s g $.#.d 3 7 X X     k N x.[./.t.;.6.9.9.9.9.6.0.j.z.T.T.K.k.8.8.0.k.Y.K.` @ : 3 u d d e - p $.%.%.%.%.#.g g g g g $.g p ",
"; #.%.#.%.%.%.$.%.%.$.#.$.$.$.%.$.p i i i p s w 4 3 @ X X k M Y t.p.y.<.7.0.f.j.f.f.f.f.l.z.W.Q.W.w.S N N S =.S Q 7 > 4 5 5 r q s g g g g p $.$.$.g %.$.%.%.g g ",
"; g $.f g %.%.$.$.%.#.g #.#.%.%.%.p p p i i s r r r 9 7 z n L :.:.;.T E 6.d.h.l.h.h.h.h.h.h.Y.W.K.` l k z l x x 7 5 5 5 5 4 r e f g g g f g $.%.%.%.%.%.%.%.#.p ",
"p g f ; y g g #.%.; ; ; ; y $.%.%.$.$.g g g g f h d j 0 7 D m m m M m m L S 2.2.2.2.=.2.1.2.w.q.q.Q o . . o @ 7 5 t j u 5 s h g $.$.$.%.%.%.%.%.%.%.%.#.p $.p p ",
"i p #.f i f f g p ; g g y ; #.%.%.%.$.$.g g $.$.g h d r 0 7 x b c k k l v c b b b b b b b b b b V 7 3 5 3 > 3 5 t u d r w s g %.%.%.%.$.g $.$.$.g g #.f i f i p ",
"; g %.#.g g g f ; g #.#.y ; #.%.%.$.$.$.g g $.$.$.g h d r 0 7 z z O O O O O + + O o O O + + X X o 8 r d w w d d u t t t s f g %.%.%.%.$.g g $.$.p i g #.g i i p ",
"p g $.%.%.%.#.g #.f i ; ; p %.$.g g $.%.%.%.%.$.g g f h d j 9 9 9 9 9 9 9 9 8 9 9 8 < 3 9 9 8 3 3 4 5 2 2 5 d d u u d f $.%.%.g g %.$.%.%.%.%.%.%.%.%.%.%.p p p ",
"i g $.$.%.%.%.%.%.#.#.g g #.%.%.$.g $.%.%.#.g $.$.$.g h d d j d j r j j j 5 r j r r j j r r r j j r 5 5 5 j d d d w s g $.$.g $.$.$.g $.%.#.%.#.$.$.$.%.%.#.#.p ",
"i p %.$.#.$.#.%.%.%.%.%.%.%.%.%.$.i g g g f f %.%.g g i * = s s e 5 5 d d j d d j d d t j j d d d d j j j d s g s s f g f f f %.%.g g f f f f g g g p $.%.#.p p ",
"p p p $.%.%.#.#.#.$.%.%.%.%.$.#.g g f f f f #.%.#.i p f p i i i w 1 5 r w d w d d w r r d s w r r j d j d h g p i i f i p g $.%.$.f f g g f f f i i g g $.$.p ; ",
"i p g $.$.$.g g g g g g #.%.#.g g #.g g g $.%.%.g f ; f g f ; ; = e d h s s s s h h h f f d y t y d e t h g #.#.g #.g f g $.$.%.$.; ; f g f ; ; ; ; $.#.#.#.p ; ",
"; p %.%.g i f g $.#.g y g %.%.#.%.%.%.#.%.%.%.%.$.f f ; ; ; ; f i i $.g $.g $.$.#.$.%.%.g ; f g #.#.f y g %.%.#.$.%.%.$.%.%.%.%.$.f i ; ; y ; f ; p #.$.#.#.p i ",
"i g $.#.p ; ; f %.%.$.$.%.%.g #.%.%.%.%.%.%.$.%.%.$.f ; ; ; f g p g g $.$.$.%.%.#.%.#.#.p - ; f %.%.%.#.%.#.g %.%.%.%.%.%.%.$.%.%.$.f ; ; ; f g p p #.#.$.%.p p ",
"i g $.$.g f i #.%.%.%.%.%.#.#.%.%.%.%.%.$.$.g $.%.%.g f f g #.$.$.$.$.$.$.$.%.%.%.#.%.#.#.g ; g %.%.%.%.%.%.g %.%.%.%.%.$.#.g $.%.%.#.f p g #.$.$.$.$.#.#.$.$.i ",
"; #.%.%.%.%.%.$.%.#.g f #.%.%.%.%.#.#.%.g g y g %.%.%.%.%.%.%.%.%.%.%.$.g $.$.$.#.%.%.%.%.%.$.%.%.$.g f g %.%.%.%.$.$.$.$.g i $.%.%.%.%.%.%.%.%.%.%.%.#.p #.p ; ",
"; ; #.%.$.g $.%.$.#.g f #.%.%.%.#.g g g %.%.%.g #.%.%.%.%.%.%.%.$.$.g $.$.g p p g g g %.#.g $.%.$.$.g i #.%.%.%.#.#.p g $.$.$.g g %.%.%.%.%.%.%.%.$.#.#.$.p ; - ",
"; p #.%.#.i #.$.%.#.g i g %.$.#.g g g g %.%.#.g #.$.%.%.%.#.#.%.%.$.g $.$.g g g #.g %.%.#.f #.$.$.g g f g #.%.g g #.g g $.%.$.p #.%.%.%.%.#.#.%.%.#.p %.%.p ; - ",
"; #.%.%.$.#.p #.%.g i p f f p p g %.%.%.g f f #.%.#.%.%.%.g p #.$.%.%.%.%.$.%.%.%.%.%.%.%.g f $.%.g f f g g f f p $.%.%.$.i i $.%.#.%.%.%.g p #.$.%.%.%.%.%.#.p ",
"; p $.$.#.g g #.#.$.p i #.$.#.p $.$.$.p #.#.$.$.#.f $.%.%.#.#.#.%.%.$.p p %.%.%.$.$.$.$.g g g $.$.$.g i #.$.g g $.$.#.p g $.$.$.g g #.%.%.#.g $.%.%.$.p p %.$.p ",
"; p #.#.#.$.%.$.g $.$.p #.%.%.$.$.%.g i g %.%.#.p g #.%.%.#.#.%.%.$.#.i i %.%.%.g g $.g $.$.%.$.g $.$.f #.%.%.$.$.$.g p g %.%.g f g #.%.%.#.#.%.%.$.#.p ; %.$.; ",
"; p p p $.%.%.%.%.%.%.%.g p %.$.$.$.$.$.$.$.g ; f #.#.$.%.#.$.%.$.#.#.p $.%.#.g $.g g g $.%.%.%.%.%.%.%.g p %.$.$.%.%.$.g $.g i f #.#.#.%.%.$.%.#.#.#.#.%.%.p ; ",
"; ; i p g $.$.%.%.%.%.#.f g %.%.$.%.$.$.$.$.g p g #.#.p #.g #.%.%.%.#.$.%.%.p i $.g i i g $.$.$.%.%.%.#.f g %.%.$.%.$.$.%.$.g p #.$.g g g g #.%.%.$.#.#.%.%.; * ",
"; ; ; ; p p #.#.%.%.$.p #.#.%.%.%.$.$.#.%.%.#.g #.%.#.f f p #.#.%.$.$.$.%.$.g g $.g i i f g g g %.%.$.p p $.%.%.%.$.$.g %.%.#.p #.%.#.f f g g $.%.%.#.$.%.%.p * ",
"p i ; p ; p p #.$.%.$.p p #.$.g f f p p %.%.%.#.#.%.%.%.#.%.%.#.i p %.%.%.$.$.%.$.g i i f i g $.$.%.$.#.p #.$.#.f p f g %.%.$.$.#.$.%.%.#.%.%.g p p %.%.%.#.p ; ",
"- ; ; ; p ; p p p ; p p p p p p f p p g f g g #.g g #.#.g #.g f - - #.f i i g g g i - i i f p p p ; p i p p p i i i g g g g g #.#.g #.g p g #.g - - p p ; ; ; ; ",
"* * - ; i p ; - - - - ; i ; - i f i p i - - ; g f ; ; ; ; ; ; p - - ; - * * - i i - - i i i i - - - - ; i ; - i f i p i - - i f p ; ; ; ; ; i f - - ; - * - * * "
};
