/* XPM */
static char *Group_9_1__resized[] = {
/* columns rows colors chars-per-pixel */
"80 80 234 2 ",
"   c #271B3C",
".  c #293A29",
"X  c #232A36",
"o  c #2E3B35",
"O  c #2A3638",
"+  c #313E37",
"@  c #2F4D1C",
"#  c #33551E",
"$  c #365C1C",
"%  c #385C1D",
"&  c #37621C",
"*  c #39651C",
"=  c #3C6D1D",
"-  c #3F711F",
";  c #2D452A",
":  c #2E472E",
">  c #314A27",
",  c #324D2B",
"<  c #345324",
"1  c #365A22",
"2  c #385C26",
"3  c #34542B",
"4  c #365C2B",
"5  c #3A5C2D",
"6  c #334436",
"7  c #344C36",
"8  c #33453B",
"9  c #384C3B",
"0  c #395936",
"q  c #366021",
"w  c #3A6523",
"e  c #3D6B22",
"r  c #3D642C",
"t  c #3F6A2B",
"y  c #3F7220",
"u  c #3D6231",
"i  c #3D643C",
"p  c #41751F",
"a  c #43781F",
"s  c #4E473E",
"d  c #406B2B",
"f  c #416C2C",
"g  c #417620",
"h  c #457C21",
"j  c #42712A",
"k  c #406831",
"l  c #2A1F43",
"z  c #2D2B48",
"x  c #312D49",
"c  c #2D3544",
"v  c #353A47",
"b  c #31314A",
"n  c #332D51",
"m  c #353758",
"M  c #373B62",
"N  c #3B3A64",
"B  c #363E77",
"V  c #463F4E",
"C  c #6E0A62",
"Z  c #4E2F6B",
"A  c #45396B",
"S  c #463972",
"D  c #4A3A74",
"F  c #374646",
"G  c #3B5A4B",
"H  c #354758",
"J  c #3C5658",
"K  c #3F644B",
"L  c #394768",
"P  c #3C5563",
"I  c #3C516D",
"U  c #2E4C73",
"Y  c #374A75",
"T  c #3C5274",
"R  c #35527C",
"E  c #3B527D",
"W  c #5C5248",
"Q  c #494557",
"!  c #504F53",
"~  c #6C6359",
"^  c #4D4D66",
"/  c #42586B",
"(  c #484676",
")  c #5B4478",
"_  c #445776",
"`  c #64447E",
"'  c #456372",
"]  c #746D6E",
"[  c #930E67",
"{  c #891775",
"}  c #B1196D",
"|  c #972D7A",
" . c #B32E76",
".. c #C52D75",
"X. c #BB4776",
"o. c #877C6A",
"O. c #C95079",
"+. c #478022",
"@. c #498423",
"#. c #4C8A24",
"$. c #7C8073",
"%. c #978C78",
"&. c #5A3D80",
"*. c #7A368F",
"=. c #345484",
"-. c #3B5483",
";. c #3C5984",
":. c #3C5389",
">. c #3B5A8A",
",. c #3D638D",
"<. c #484A86",
"1. c #57488B",
"2. c #425A83",
"3. c #435789",
"4. c #5E508F",
"5. c #5C4B96",
"6. c #495994",
"7. c #56569B",
"8. c #535A9D",
"9. c #68558C",
"0. c #614B99",
"q. c #47648B",
"w. c #436593",
"e. c #476997",
"r. c #486E9B",
"t. c #536D95",
"y. c #46709B",
"u. c #49719D",
"i. c #77668F",
"p. c #5C5AA5",
"a. c #784AA1",
"s. c #6558AB",
"d. c #7453A7",
"f. c #6D5BB6",
"g. c #765BB8",
"h. c #556FAD",
"j. c #4B75A2",
"k. c #4B79A5",
"l. c #4E7DAA",
"z. c #547AA8",
"x. c #5A7AB5",
"c. c #6E6BB6",
"v. c #7D5CC1",
"b. c #7B76C9",
"n. c #8F348B",
"m. c #AF2689",
"M. c #CF3991",
"N. c #864498",
"B. c #97509F",
"V. c #A64B8D",
"C. c #857882",
"Z. c #8553AA",
"A. c #8757B3",
"S. c #8D6BB3",
"D. c #E35693",
"F. c #E46F8A",
"G. c #EC67A0",
"H. c #915EC9",
"J. c #8C6EC8",
"K. c #9865D6",
"L. c #A466D6",
"P. c #5D8296",
"I. c #63829D",
"U. c #5D84A7",
"Y. c #5183AD",
"T. c #5486B1",
"R. c #5589B3",
"E. c #598AB9",
"W. c #5792BD",
"Q. c #5A92BC",
"!. c #6186AB",
"~. c #6A94AD",
"^. c #6389BB",
"/. c #6A93BD",
"(. c #74A5BC",
"). c #5E8DC3",
"_. c #5C98C4",
"`. c #648EC3",
"'. c #678FC9",
"]. c #6797C8",
"[. c #7781D0",
"{. c #6B9AD4",
"}. c #7499D9",
"|. c #5DA0CC",
" X c #6EA8CE",
".X c #6AA8D6",
"XX c #74A7DB",
"oX c #7AB7D7",
"OX c #799FE2",
"+X c #73B2E5",
"@X c #7AB6E7",
"#X c #7CBCF2",
"$X c #75C3E8",
"%X c #98938D",
"&X c #A79D8D",
"*X c #AFA895",
"=X c #B2ABA1",
"-X c #BCB6A5",
";X c #F993A4",
":X c #FC95AA",
">X c #D1CCB9",
",X c #898BD1",
"<X c #8CAED3",
"1X c #82BEDC",
"2X c #8799E1",
"3X c #85A8E8",
"4X c #87B8EC",
"5X c #94B2E7",
"6X c #84BAF4",
"7X c #85C2D9",
"8X c #88CAE9",
"9X c #8CD3EC",
"0X c #95D3E7",
"qX c #87C6F6",
"wX c #8ACCFC",
"eX c #92C7F0",
"rX c #88D4F3",
"tX c #8DD4FC",
"yX c #8CDBFD",
"uX c #93D9F6",
"iX c #91DCFD",
"pX c #A6DDEA",
"aX c #97E5F9",
"sX c #9CECFB",
"dX c #9DF4FE",
"fX c #A8E2EC",
"gX c #A4ECF9",
"hX c #A6F7FE",
"jX c #ADF5FD",
"kX c #B8F8FC",
"lX c #DBD5C1",
"zX c #E2DCCB",
"xX c #E8E4D6",
"cX c #C5FBFD",
/* pixels */
"@ & p - p - p p p = = p p p a p - p p p = = - h h p a p = = = - - p p p - h p = & = p = = p - - p - = - y h y - # . X X X X . q y y y y - - = - - - - - p a = $ ",
"* = - p p g = - p = p h a a p p - y g - - - p p - - - - y g h h h h p - = h +.h g p - p p p - - - - p a h y - w 0 P I I I I P 0 w e y - - - h h h h - - p a p = ",
"a a p a h h p p p p a h h h h p g h g = p h h h y - - = g h #.#.@.@.p = - h @.#.#.@.g h +.h - - - a a +.h y e 0 T !./././.].T.' 0 q e y - +.#.#.#.+.a - p h h a ",
"p a @.#.#.h p a a p a +.@.#.#.#.#.h g y a @.@.@.+.+.@.@.@.@.h #.@.@.@.p a +.@.+.h @.@.#.@.+.a p a p p +.@.y : P U.$X9X9X9X9XoXU.P : e @.@.@.+.@.@.@.+.a p @.a = ",
"p p +.+.@.#.@.h +.h h +.#.#.#.@.#.@.h @.@.#.#.#.#.#.#.#.@.h h h h h #.@.h +.@.@.h +.+.+.#.#.@.+.@.a a h t i P U.oXfXjXjXjXjXsX7XU.J i j h h h h h h @.@.h @.a p ",
"p p p a +.#.#.#.#.@.+.+.#.@.h h @.#.#.#.#.#.#.#.#.#.#.#.@.h h g - e @.#.@.h +.#.@.h g g +.#.#.#.@.#.h q 0 ' I.oXdXjXkXcXcXkXjXsX7X!./ 0 w g h h - y @.#.@.h a p ",
"= p p a a +.a h h g g h h h @.@.@.@.h g h h h #.@.#.#.@.@.h p h = - h #.#.h p h h a - h h h h h a a * , J z.1XaXgX0XpXkXkXfX0XsXaXoXz.P , w h g - - h #.@.h = * ",
"= = p a a a a a y = - y = g h @.@.@.h h g h g p h #.#.#.#.+.+.+.h a @.#.#.g = p h h h +.h - y - - - q : T ^.uXaX7X~.<XpXpX<X~.oX9XqX^.I , e +.@.h p @.#.#.g = & ",
"= - - +.+.- - - y - - - y = = h h h #.#.#.h p p a #.#.#.#.#.#.#.@.@.#.#.@.e g h h h g h h = - - - - q ; I !.9X8X~./ P.7X7XI./ !.@X4Xx.I 3 g #.#.@.@.@.#.@.p * p ",
"= - a a h y - - - y - = h h y +.#.@.#.#.#.@.h @.#.#.#.#.#.@.@.#.h p g @.#.h #.#.h g g h h h - - - p q ; Y ^.tX8X(.' ~.0X0X~.q./.@X6Xx.T , d @.@.h g h @.@.@.g p ",
"- - h +.@.+.y - g h h h h +.@.#.#.@.#.#.#.#.@.#.#.#.#.#.a a @.@.g * = h #.#.#.@.@.h g h @.+.h - p h e ; / h.@X9X7X(.7XuXuX7X(.7XqX+Xl.P > e @.#.g * = h @.@.a p ",
"a - y #.#.#.h h +.#.#.#.@.@.#.#.#.h #.#.h h #.h h #.#.h a @.#.#.h = = #.@.g h #.#.h g #.#.#.h h @.#.h 2 J 6./.4XsXsXaX9X0XaXsXsX4X'.e.H < g #.#.g e p @.#.g p p ",
"- - a +.#.#.#.+.y h @.#.@.h #.+.h @.#.#.#.#.#.@.#.#.#.#.@.#.#.#.+.h #.#.@.h h @.h h g +.#.#.#.+.p h h g u J q.].eXiX8X X X0XsXiX Xq.! i g @.#.#.@.h @.#.#.h p p ",
"= - a a #.#.#.@.y y h #.+.h #.+.h @.@.h @.#.#.@.@.#.#.#.#.#.#.#.#.#.#.@.@.@.@.@.h h h h @.#.#.@.p = h @.p 3 F j.+XwX{.z.z. XqXXXz.H u y @.#.#.#.@.#.#.#.#.h a p ",
"p a @.#.#.#.+.@.#.+.h #.@.h +.#.@.@.p p h @.#.g g h h @.@.#.#.a h h h h h #.@.#.@.@.@.@.#.#.@.@.#.h h @.@.2 O e.}.qX{.6.<.h.'.t.J 4 j #.@.#.@.h h h h @.h #.h h ",
"- a #.+.@.#.@.#.#.#.@.@.+.@.@.#.@.g p g g h h g p h h h a +.@.@.@.h #.#.@.#.#.#.+.@.@.@.@.#.@.@.#.#.@.@.a r O q.}.6X{.6.B -.3.J 4 = a h h h @.@.@.@.@.@.#.#.h a ",
"p a @.h h #.@.@.#.#.h h h @.#.#.#.g p p p h g g h h h h g h @.#.#.@.#.#.#.#.#.#.h #.@.g h #.@.@.@.@.#.h h w 7 ' `.XX/.q.H H H 3 e h e * - h @.#.#.#.#.@.@.#.@.a ",
"a a g - p h h +.@.g y y = g @.#.#.#.@.h h @.#.#.#.@.#.#.#.#.#.#.#.#.#.h p #.#.#.#.h g p g h h h @.h y e = = e K ' x.q.G 4 1 t y @.h 3 > w h #.#.#.#.#.h g @.h a ",
"p a @.g p p h h h g g h g - h #.#.#.@.@.h h @.#.#.#.#.#.h @.@.#.h h @.h p h h #.@.@.h h g h h h h g g h y - h t G P G r = - - @.h 5 F F 7 e h @.h h @.h p g a a ",
"- a #.+.h h h h g h h +.g - +.#.#.@.@.@.h h h #.@.#.#.@.h h @.@.a p h h g p h #.@.@.#.h h h h h g h h h y y h h r , r y - +.@.- u F L Y H 7 w @.a p h h g p p a ",
"h h @.@.#.#.#.h h a p - e g #.@.@.@.@.#.#.#.#.h +.#.@.#.#.#.#.#.#.#.#.#.#.h @.#.#.@.@.#.#.#.@.h h h g y = g @.@.y e h @.#.#.@.# 8 L 3.q.T v 3 @.#.#.#.#.@.h h a ",
"p h @.#.@.@.#.@.#.@.h h h @.#.#.@.h h #.#.@.+.@.@.@.h +.@.+.#.+.#.@.@.#.#.@.#.#.@.@.@.#.@.#.@.#.#.+.h h h +.#.#.@.h h #.#.@.a 1 8 H 2.3.I v 3 h #.#.@.@.#.#.a a ",
"p a #.@.@.@.#.#.#.#.#.#.#.#.#.#.@.p g h h p g #.#.h h g y g h h a p p h #.h @.#.@.@.@.@.h @.@.#.#.#.#.#.#.#.#.#.@.y h h h - - h r 8 L L H , * h a p a @.#.h h a ",
"p a h h #.#.h h @.#.#.#.#.#.@.h h h g g p h @.#.@.y p h h h h - * & % d p h h h #.#.h h #.#.@.h h #.@.#.#.#.#.+.h h h y - a +.#.g < : o , w - h p p h @.@.@.a p ",
"p a h #.@.+.h h h +.h h @.#.@.h h h h h h +.@.#.+.- y g h g - = # @ : ; < y h #.#.@.@.#.@.@.h h h +.h h #.#.@.+.h @.h y +.+.#.#.+.= @ @ % = y y - p @.+.+.+.a - ",
"- h #.#.+.- h h +.+.h y h #.@.@.@.#.@.@.#.#.#.#.@.h y - - - = w ; O n z 6 1 g h h h h @.g = p a h g g e h @.+.+.@.#.@.@.#.#.#.#.@.- * * * y - - - - @.+.+.+.a - ",
"p h @.h a = - a #.#.#.+.@.@.h #.#.@.#.#.#.#.@.#.#.#.h = e * 1 , H _ 2.N c : # $ % < # < @ @ @ @ 1 1 < < < e h @.#.#.#.#.#.#.@.@.#.@.- = = y g h a h +.+.+.#.+.a ",
"p h @.@.h h - a #.#.#.#.#.#.+.#.#.#.#.#.#.@.a @.#.#.h h g % > F _ t.j.3.L v o + o o o + O o O O o + + + o , e @.#.#.@.#.#.@.h @.#.#.+.h h h +.@.@.@.@.+.+.@.+.- ",
"p a #.#.#.#.#.#.#.h h h h #.#.#.#.#.+.@.+.h - @.@.#.#.#.@.$ o L q.Y.Y.y.-.Y L m L N m m M m M M M m M N m c 4 y @.@.@.@.+.y - @.#.#.#.@.#.#.#.#.#.#.#.@.h +.a - ",
"= p @.#.@.a @.@.@.+.h g +.#.#.#.@.h h h @.#.@.h h #.#.#.#.% o m Y w.k.k.j.e.e.e.e.3.2.2.-.2.2.2._ Y Y B Y m O 3 = h +.a @.#.@.h h #.#.#.#.@.#.#.#.@.+.+.+.h - = ",
"- a @.#.@.a @.@.#.+.h g h @.#.h h h h h #.#.+.h h @.#.@.g < + m L ;.y.Y.R.R.T.T.Y.l.j.r.e.e.u.r.e.>.-.E E Y M v , = - +.@.#.@.h +.#.#.#.#.@.@.#.@.@.a #.#.a - - ",
"p a #.#.@.a a @.#.h y g h h y g h @.#.#.+.p - @.#.h #.h 2 7 H 2.2.w.u.T.Q.Q.Q.]._.W.R.Y.z.k.k.k.j.y.,.>.>.3.1.D v < - #.@.- - @.@.@.#.#.#.a a @.@.#.#.#.#.@.+.a ",
"- +.#.+.+.h h +.+.h h - +.@.+.h @.@.@.h h @.@.@.+.a y 2 + J q.Y.Y.Y.Y.R.W.W.W.W.Q.Q.W.T.Y.u.u.j.j.u.y.,.>.6.s.5.D v , = h +.@.@.h h @.#.#.h h #.#.#.@.h h #.@.a ",
"- - h +.+.+.#.+.h #.#.y +.@.#.#.@.@.h p h #.#.h - e 4 8 m 2.k.W._._.|.|.W.W.T.Y.T.Q.R.R.Y.u.y.u.u.k.y.q.;.3.p.p.5.A v , d +.#.a p h @.#.#.@.+.@.#.@.+.p - #.+.- ",
"- - +.+.+.#.#.#.#.#.#.#.h y #.+.h #.@.@.@.@.h - * < F H ;.y.l.W.|..X$X$X.XW.Y.Y.T.Q.Q.R.Y.u.u.y.u.k.y.,.;.-.3.8.7.1.( v > * a a g +.h @.#.@.@.#.@.+.h +.@.#.a = ",
"- - y - h #.#.#.#.#.#.+.h +.#.#.#.#.@.@.@.@.h g $ . v 2.R.].].(.$XrXyX$X$X XQ.R.R.R.R.Y.k.u.y.y.u.u.y.w.;.R R 6.p.f.5.A . # a a h @.h h +.h +.#.#.@.+.+.#.#.- & ",
"- - - - a h h +.#.#.+.a h +.#.#.#.@.h @.#.#.+.h $ . v t.oX8X0X0XpXgXhXaXyX$XoX|.R.Y.Y.k.j.u.u.u.u.k.y.w.-.R U 3.p.f.0.D o # h a +.@.+.h g g h #.#.#.@.@.@.#.- = ",
"a - - - a - h +.#.#.#.+.h +.+.+.g h p h #.#.#.h $ . / !.8XgXkXcXcXcXjXdXaXdX9XoXQ.Y.u.y.y.u.u.u.u.u.j.,.-.R R 3.p.f.0.A o # h @.+.#.#.#.+.@.#.h p a #.#.#.@.h a ",
"- a h +.h h +.+.+.h h +.+.+.+.+.h h h @.@.h p * 5 K P.oXaXjXcXcXcXcXkXhXdXhXdX9X XE.u.w.w.y.u.u.u.y.e.,.=.=.=.:.<.) ) <.H 9 2 g +.@.#.@.@.@.#.h p p #.@.a a a a ",
"- - +.@.#.#.+.h h h h +.#.+.h +.#.#.#.@.h - & ; ! t.1XaXsXhXjXjXjXjXgXdXdXhXdXyX#X{.k.w.w.y.j.u.y.w.>.=.=.=.=.R / Q ) 4.1.A 6 2 p +.+.@.+.@.#.#.a a @.a - a a - ",
"* - @.+.+.@.@.@.#.h h #.#.#.#.#.@.@.#.#.h = < c 3.<XaXjXsXdXdXaX0X5X<X<X0XuXsXaXtX@X].l.u.u.k.j.e._ I H L L L / ~ ] ] i.0.D v 3 e @.#.@.@.h h +.@.#.@.h h #.h = ",
"- - h h +.+.h h h h h +.+.h +.h h @.h h h * 3 b t.@XaXhXdXdXhXuX<XS.a.Z.S.4XyXaXtXqX@X{.Y.k.j.j.w./ H V v v c ~ %X-X=XC.^ A b : % g h h h h @.@.@.@.h a h #.h p ",
"h - - +.+.h - - - a h +.h y h y g h g = - e 3 H e.{.wXaXsXsXaX0XS.| [ { a.,X4XyXwXwXwX+X].u.y.y.q.^ W W W W s o.-XxX>X$.V x x ; $ p p p g @.#.#.#.@.p = p h a a ",
"- h #.#.@.@.- - h - - h #.#.#.#.@.h g = h y 4 H <.d.,X5XuXuX<XS.B. .}  .X.B.,X2X6XtXiX6X{.k.;._ ] %.%.&X&X*X*X-X-X=X%Xi.Z m b > p a a @.@.h @.@.#.@.@.a p @.a p ",
"- h +.@.@.#.@.+.+.h h +.#.#.#.#.#.#.+.+.#.y u P Z *.*.J.4X3XS.n.m.M.D.F.O. .n.b.4XiXaX#X{.k.I ! ~ %.-X>XlXzXxXlX*Xo.i.i.9.S b > p @.#.#.@.h h h h h @.@.h h a p ",
"- - - - +.#.#.#.+.#.+.#.#.#.h h h #.#.#.#.h 4 H Z C n.A.4Xb.a.[ ..G.:X;XF.} { a.3XiXyX#X{.k.P Q ~ %.-X>X>XzXxX>X*X] ] 9.1.A b > d #.#.@.@.h h h = g @.@.@.h a a ",
"- - - +.+.+.+.h h a y a y h +.#.#.+.+.a h = 4 U Z C { S.3XJ.n.[ O.G.:X;XD.} [ a.3XiXaXqX.Xk.;.I / ~ %.%.%.%.%.&X=X-X&X] Q n b > p h #.#.@.h g h p p h #.#.a = * ",
"= = - +.h - - - y y y y - - h +.#.+.h h y * 4 H Z *.N.J.6XOXZ.| O.F.;XD.M.| n.c.4XtXtX@X).j.>.-./ ! W s W s s ] &X>X=Xo.V x b > w #.#.#.#.h h h g h @.#.#.p = % ",
"= - - +.+.- - - - - - - - - - a +.a #.#.#.- 3 H <.d.,X5X6X6X,XS.V..... .m.n.J.3XwXwX@X].z.w.>.=.T L H F m c c ! $.&X%Xi.A m x . % +.#.#.#.#.#.#.#.@.#.#.@.p * p ",
"= - - +.a a - - - - - - a a - +.#.+.#.#.#.p 3 H 6.'.4XeXwXwXqX2XS.n.[ { B.,X4XtXqX+X).r.>.;.=.-.E R Y Y Y U U T / ~ ] i.4.D b > p @.#.#.@.+.@.@.a a h h #.h h p ",
"- - - +.#.+.a - - a +.a +.+.@.#.#.@.#.#.#.g 4 H e..XwXyXwXyXiXqX,Xa.*.N.J.5XtXrXXXE.r.;.R E R R R =.R =.=.:.6.:.^ Q 9.J.H.&.v , p @.#.#.a a @.#.p = p h #.@.h p ",
"a - a #.#.#.a a +.#.#.#.@.@.#.#.#.+.#.#.h = 4 H 6.).#XwXwXiXiXtX4X2X,X2X5XwXrX+XY.w.-.-.R R R R R R R R =.:.8.7.4.4.A.L.H.0.x ; d #.#.h a @.#.#.g * p @.#.p p p ",
"- - a +.@.#.#.+.- a @.#.+.+.#.+.h @.#.@.#.g 5 H 3.x.OX6XwXqX@X@X6XqX#X#X@X@X.XY.;.U U U R R -.-.>.;.-.;.6.7.s.f.v.H.H.L.Z.D v 3 p #.#.#.@.#.#.#.h h #.#.#.h p p ",
"= - a +.@.#.#.+.p - +.#.+.+.#.a h @.@.h #.h < v S p.[.OX#XOX].).XX$X+X|.).E.Y.w.Y U U R R R 3.7.7.7.7.7.p.p.f.H.K.L.H.Z.` V 9 d p @.@.#.#.#.#.#.@.#.#.#.@.@.h p ",
"- a +.#.#.#.+.#.#.+.a #.+.+.@.#.#.@.p - g g 2 O N 1.f.b.}.x.e.w.).{.'.u.=.-.;.;.-.-.E -.=.;.6.s.f.f.f.s.s.p.s.g.K.L.Z.D v 7 k d p p @.#.#.#.#.h h h h h h @.h g ",
"- +.#.+.#.#.#.+.#.#.@.+.@.@.@.#.#.a p e g = % 6 m D 1.p.8.-.L E x.{.).e.Y <.6.7.8.8.8.8.8.p.p.f.H.K.K.g.0.&.<.1.a.a.` v ; > d * p h h h a h @.#.@.@.@.@.#.#.h h ",
"= h @.a h #.+.#.#.#.+.h h +.#.#.#.a p h a p d 5 9 m N N M n n N h.{.`.w.-.1.p.s.s.s.s.s.s.s.s.f.H.L.L.Z.D n m A Z A V 8 3 2 r e g h h h g h h #.#.#.#.#.#.#.+.a ",
"p h h e g h h h @.- - y - h +.#.#.@.h h h h @.h d 7 z z       m 6.h.j.;.B <.5.0.0.0.0.0.0.7.5.5.d.A.Z.` v X O O O o 7 0 r f d h h @.#.#.#.#.#.#.#.#.#.+.p @.+.a ",
"p a h h g g h h h g h h - y +.#.#.#.#.h h h #.@.h k 8 O l   z x A ( I M N N D D S S S S D D S N D &.) Q 6 > > , , , 4 5 r e h @.#.#.#.#.h @.#.#.a a @.a p a a a ",
"- h #.+.h h h h h y h +.y y h #.#.@.#.#.h h @.@.@.g u 9 b z b b b b c b z x x x b b x x b b x b b n b 8 3 2 r k k 5 k u w g h #.#.#.#.@.h h h #.a a a +.a - p a ",
"a h @.#.#.#.+.h +.h - - - h @.@.@.h #.#.#.#.#.h h @.f k s F F F + + 6 6 8 6 6 6 6 6 6 6 6 7 8 6 6 o o : 3 r f d k r d j h @.#.@.h #.@.#.#.#.#.#.#.#.#.#.#.a a a ",
"p h @.@.#.#.#.@.#.@.h h h +.#.#.h h h #.#.@.h @.#.h p d 3 k 0 5 k k 3 5 0 5 5 5 5 5 5 5 5 5 5 5 5 4 4 4 5 r f f r w d h h @.h @.@.@.h @.@.@.@.@.#.@.@.#.#.@.a a ",
"p a #.@.+.@.@.#.#.#.#.#.#.#.#.#.@.p g h h g h #.#.h h g % * p d d < 5 d d d f f k d f f d d d k k j j k d d d d d w d a g g g @.@.h h g g g g h h a a @.#.+.a a ",
"a a h +.#.#.+.h h @.#.#.#.#.#.+.h h g g g h h #.@.g p g p p p d 2 2 5 k k k k k k r r r k k t r u t k u k f g g p p g g g h @.#.@.g g h h h g g p a h a @.@.a - ",
"p a @.@.@.@.h h h h h h @.@.#.h h @.h g h +.#.#.+.y y g g g - = w w f f f f d j j j j j j t t t t y t t t j +.h h +.h a h +.#.#.@.- - g h g y - - - @.+.+.+.a - ",
"- a @.#.h p h h @.h h y h #.@.h #.@.#.@.#.#.#.#.@.g y y - - y y p p @.@.@.a @.@.a @.#.#.h - a +.+.h g e +.#.+.#.@.#.@.@.#.#.@.#.@.h y - - y - y - a +.@.+.+.a p ",
"p +.@.+.h = * h #.#.#.#.#.@.@.@.#.#.@.#.#.#.@.#.#.@.g - - - h h a h h @.@.#.#.#.@.@.@.@.a - - a #.#.#.#.#.+.h #.#.#.#.#.#.#.@.#.@.#.y - - - h h a a +.+.@.#.a a ",
"p a @.@.h h p h #.#.@.@.@.@.@.#.#.#.#.#.#.+.h @.#.#.h h h h +.@.#.@.@.h @.@.@.#.@.@.@.@.+.a - a #.#.#.#.#.#.h #.#.#.#.#.#.+.h @.#.#.h h h h +.+.@.@.@.+.+.@.+.a ",
"- +.#.#.#.#.@.@.#.+.h h @.#.#.#.#.@.@.@.+.h g +.@.#.#.#.@.#.#.#.#.#.#.@.h h @.@.@.@.@.#.#.#.#.@.#.+.h h h #.#.#.#.+.@.@.@.h p @.#.#.#.#.#.#.#.#.#.#.#.+.+.+.a - ",
"- - +.#.@.h @.#.+.@.h g +.#.#.#.@.h h h #.#.+.g +.#.#.#.#.#.#.#.#.@.h @.@.h a h +.h +.#.@.a @.#.+.@.h p +.#.#.#.+.+.a h @.#.@.a h #.#.#.#.@.#.#.#.@.+.+.+.a - = ",
"= - +.#.@.- +.@.#.+.h p h #.@.+.h h h h #.#.+.h +.@.#.#.#.@.+.@.@.@.h @.#.h h h @.+.@.#.@.a +.@.@.+.h g h @.#.h +.+.h h #.@.a h +.#.#.#.#.+.+.#.#.+.+.#.#.a - = ",
"a +.#.#.#.+.a +.#.h p p a g a a h @.#.#.h g y #.#.+.#.#.#.h a @.#.#.#.#.#.@.#.#.@.#.#.#.@.h a @.#.h - y h h g g a @.#.#.@.p p #.@.+.#.#.#.h a @.+.#.#.#.#.@.+.- ",
"- a @.+.+.h +.+.+.+.a p +.@.h a @.@.+.h a +.@.#.+.h @.#.#.+.h @.#.#.@.a a #.#.#.@.@.@.#.@.h @.h @.+.h - h @.+.h +.@.+.h @.@.@.@.+.h @.#.#.+.h @.#.#.@.h +.#.+.+.",
"- a +.+.+.@.#.@.a #.@.h +.#.#.@.@.@.h a +.#.#.+.h y +.#.#.@.+.#.#.@.+.p p #.#.@.h h h h h h #.@.h #.@.h +.#.#.@.@.@.h a h @.@.h y h +.#.#.@.+.#.#.@.+.- - #.+.- ",
"- a a +.@.#.#.#.#.#.#.#.a h #.@.@.#.#.+.@.+.h y y @.+.@.#.@.@.#.@.+.+.a @.#.+.h @.h h h @.#.#.#.#.#.#.#.h a #.@.@.#.#.+.@.@.h p - +.+.@.#.@.@.#.@.+.+.+.#.#.- = ",
"- - a - a @.@.#.#.#.#.+.h a #.#.@.#.@.@.@.@.h - +.@.a a +.h +.#.#.#.+.@.#.#.a a @.h p p h #.@.#.#.#.#.+.h h #.#.#.#.@.@.@.@.h p +.@.h h +.h h #.#.@.+.+.#.#.- & ",
"- - - - a a +.+.#.#.+.a +.+.#.#.@.+.h @.#.#.+.h +.@.h h - a h @.#.@.@.@.#.#.h g @.a p p g h h h #.#.@.a a @.#.#.@.@.@.@.#.#.+.h +.@.+.h g h h #.#.#.+.#.#.#.- = ",
"a - - a - a a +.#.@.@.+.a +.@.h h h a h #.#.@.@.+.#.#.#.+.#.@.+.p a #.#.#.@.@.#.#.h p p g p h @.@.@.+.+.+.+.@.h g h p h #.#.@.@.+.#.#.#.h @.@.h p a #.#.#.+.+.- ",
"= = - - a - a a a - a a a a a a g g p h h h h h h h @.+.h +.+.h = = h a p p h h h g = p p g a a a - a a a a a a - p p g h h h h h h +.+.h h +.a = = a a - - - = ",
"& * - - - a - - = * = - p - - - a p a p = = - h h - - - - - y - = = - = & * = p p = = p p g p = = = = - - - = - h p a h * = p h a - - - - - g h = = - = & * * & "
};
