/* XPM */
static char *Group_9_2__resized[] = {
/* columns rows colors chars-per-pixel */
"80 80 237 2 ",
"   c #1B0C26",
".  c #2A362B",
"X  c #2B3A2D",
"o  c #2B2E37",
"O  c #2C3736",
"+  c #363B3C",
"@  c #2E4B1B",
"#  c #32551D",
"$  c #355C1D",
"%  c #37631B",
"&  c #39651C",
"*  c #3D6D1D",
"=  c #3F711F",
"-  c #2E4626",
";  c #314829",
":  c #324C2C",
">  c #345323",
",  c #375A22",
"<  c #395D25",
"1  c #35532B",
"2  c #375A29",
"3  c #395D2B",
"4  c #2E4635",
"5  c #344D32",
"6  c #35483B",
"7  c #2E5338",
"8  c #365737",
"9  c #3A6423",
"0  c #3D6A22",
"q  c #3C632C",
"w  c #3D6829",
"e  c #3F7220",
"r  c #3C6433",
"t  c #41751F",
"y  c #43781F",
"u  c #47423F",
"i  c #406D28",
"p  c #417620",
"a  c #457C21",
"s  c #447828",
"d  c #426B30",
"f  c #2A2547",
"g  c #302D4C",
"h  c #2D3543",
"j  c #303641",
"k  c #313942",
"l  c #363849",
"z  c #343A4D",
"x  c #2E2D53",
"c  c #2D3757",
"v  c #3A315F",
"b  c #373858",
"n  c #383963",
"m  c #373D72",
"M  c #780A5E",
"N  c #413E59",
"B  c #7D1771",
"V  c #453868",
"C  c #523476",
"Z  c #7D247D",
"A  c #344845",
"S  c #35514A",
"D  c #364459",
"F  c #3C5858",
"G  c #3C6247",
"H  c #3A4563",
"J  c #384566",
"K  c #3B4C6B",
"L  c #3D526B",
"P  c #384B76",
"I  c #3C5476",
"U  c #35527B",
"Y  c #39537E",
"T  c #4E4C4F",
"R  c #484B55",
"E  c #516259",
"W  c #6F675C",
"Q  c #776B5B",
"!  c #584B69",
"~  c #485668",
"^  c #484677",
"/  c #544372",
"(  c #455677",
")  c #634F72",
"_  c #4A6477",
"`  c #516471",
"'  c #686A67",
"]  c #76766C",
"[  c #96156D",
"{  c #AE196D",
"}  c #8E2478",
"|  c #B13177",
" . c #C63273",
".. c #AE497E",
"X. c #877A76",
"o. c #CD537B",
"O. c #478022",
"+. c #498423",
"@. c #4C8A24",
"#. c #8D8579",
"$. c #948B7C",
"%. c #9B937F",
"&. c #553C86",
"*. c #7C348B",
"=. c #335282",
"-. c #355481",
";. c #3B5583",
":. c #3B5A85",
">. c #3A5A8A",
",. c #3E618B",
"<. c #3F6595",
"1. c #4A4782",
"2. c #574789",
"3. c #435584",
"4. c #465C86",
"5. c #44558C",
"6. c #435D8A",
"7. c #5A4A95",
"8. c #4A5893",
"9. c #56569A",
"0. c #654686",
"q. c #65549A",
"w. c #73509C",
"e. c #42638D",
"r. c #496589",
"t. c #516C88",
"y. c #436592",
"u. c #4C6292",
"i. c #446995",
"p. c #4B6A95",
"a. c #456D9A",
"s. c #496E9B",
"d. c #516796",
"f. c #46709B",
"g. c #49729E",
"h. c #547297",
"j. c #746F8C",
"k. c #5C5AA6",
"l. c #7C4DA3",
"z. c #6453A5",
"x. c #6658AA",
"c. c #7D56A6",
"v. c #695AB3",
"b. c #765CBC",
"n. c #4671A2",
"m. c #4B75A2",
"M. c #4D79A6",
"N. c #4E7BA9",
"B. c #5A77A7",
"V. c #5974AD",
"C. c #7E6CBA",
"Z. c #705DC1",
"A. c #7B68C6",
"S. c #8D358F",
"D. c #B22F8F",
"F. c #D33B85",
"G. c #924F99",
"H. c #A34D8A",
"J. c #8A56A8",
"K. c #8A53AE",
"L. c #9467B0",
"P. c #DF4C99",
"I. c #EA6E91",
"U. c #F27DA5",
"Y. c #995EC8",
"T. c #8A63CA",
"R. c #8E70CD",
"E. c #9A67D7",
"W. c #A365D4",
"Q. c #5382AC",
"!. c #4F8AB8",
"~. c #5485B2",
"^. c #558AB5",
"/. c #5B89B7",
"(. c #568DB8",
"). c #5992BD",
"_. c #6B8EAE",
"`. c #6995B7",
"'. c #79A1B5",
"]. c #658BC4",
"[. c #6798C9",
"{. c #6A9AD2",
"}. c #7895D6",
"|. c #6AA3C7",
" X c #78ADC9",
".X c #6EA4D8",
"XX c #73A7D9",
"oX c #78B3D3",
"OX c #6EA9E1",
"+X c #76A8E2",
"@X c #7BB6E9",
"#X c #7EC1DC",
"$X c #7AC2EE",
"%X c #958C86",
"&X c #A19B8F",
"*X c #AAA797",
"=X c #B4AB97",
"-X c #BCB5A6",
";X c #EF8494",
":X c #FC99A9",
">X c #C4BCA9",
",X c #FFA0B1",
"<X c #CDC6B5",
"1X c #8F94CA",
"2X c #898AD3",
"3X c #8897D7",
"4X c #94B9CF",
"5X c #88B7D9",
"6X c #8A99E1",
"7X c #85A9EC",
"8X c #86BCEA",
"9X c #86BAF2",
"0X c #91B7F0",
"qX c #85C4D8",
"wX c #A0C6D8",
"eX c #86C8E5",
"rX c #8FCFEC",
"tX c #96D6EC",
"yX c #86C5F9",
"uX c #8BCBFD",
"iX c #8BD5FB",
"pX c #95DDF7",
"aX c #91D3FD",
"sX c #A6DBE6",
"dX c #90E4FA",
"fX c #95E5FB",
"gX c #9CECFD",
"hX c #9DF2FE",
"jX c #AFE1EC",
"kX c #A6E9F5",
"lX c #A3F4FF",
"zX c #AAF9FF",
"xX c #B8F9FD",
"cX c #D9D4C5",
"vX c #EBE7D6",
"bX c #C6FCFE",
"nX c #D3FEFE",
/* pixels */
"# % t * t * t t t * * t t y y t y t y t * * = a a t y y = * * = = t t t = y y * & * t * * t = = t * * t p y y y = = e e # 4 J =.K A 2 * e * e * = e a = = y = $ ",
"% * = t t a = * t = = a y t t t = p = = = = = y = = = = = p a a a p t = * a a a p t = t t t = = t = = y p e = = = y 0 9 8 ` B.`._.t.G 3 & e a a a e = = = y = = ",
"y y t y O.a t t t t y O.a a a p p p = = = y a p e e * = p O.@.@.@.O.t = t a @.@.@.+.p a O.y t = = t y O.a a a e p e % 7 ! _.wXjXtX|._ A > e @.@.@.O.= = = O.O.y ",
"t y +.@.+.a t t y t t O.+.+.@.@.+.O.t 0 y @.@.+.O.O.O.+.+.O.O.+.+.+.O.y t O.O.O.O.O.+.@.+.O.y t y t y O.+.@.@.@.+.0 - h h.4XxXbXtX|.h.L : 0 +.@.+.+.@.= = O.y = ",
"t t O.O.+.@.+.O.O.a a +.@.@.@.@.+.+.+.+.@.@.@.@.@.@.@.@.+.O.a a a a @.O.a a O.+.O.O.O.O.+.@.+.O.+.y a O.@.@.@.a w 7 o f t.4XkXsX'.u.8.K 7 0 a +.a O.+.+.O.O.y = ",
"t t t t O.@.@.@.+.+.O.O.@.+.a a +.+.@.@.@.@.@.@.@.@.@.@.O.a a a 0 p +.@.@.a O.@.+.a t p O.@.@.@.+.@.+.+.@.@.a 0 8 J x x ` 4XtX Xt.c m H 8 0 p a = = +.@.@.= y = ",
"* t t y y O.a a a p p p p a +.+.@.+.a a a a a O.+.@.@.+.+.y p p = * O.@.@.a p a O.p t a O.a O.a a p y p p O.O.0 S Y 5.9._.qXfXqX_.4.5.L 5 w e p = = O.@.@.O.= & ",
"* * t y y y t t p = = e = t a +.+.O.a p a a a t a @.@.@.@.O.O.O.y y +.@.+.p = t a p t a a t = = = = = = = = a 9 8 I n.[.5XdXdXsXqX`.p.L 5 e +.+.= a +.@.+.e * % ",
"* = y O.O.= = = = = = = = = = p +.O.+.@.@.O.p t y +.@.@.@.@.@.@.+.+.@.@.+.= p a a a p O.a = = = e = = = e e e & 2 D p.{.rXfXfXlXtX Xt.G q O.@.@.@.O.@.@.O.t & t ",
"* = = a a e = = = = = = p a e +.+.O.+.@.@.+.a +.@.@.@.@.@.+.+.+.a t a O.@.O.+.+.a p t a a p = = = = = = e a e p a r F h.XXiXpXaXoXt.F r e O.+.+.a p a a @.a a t ",
"= = y O.+.O.e = p a a p a +.+.@.@.+.@.@.@.+.+.@.@.@.@.@.y O.+.+.p & * a +.+.@.@.+.p y O.@.O.p = e O.a e O.O.+.@.+.p 3 F B..X9X.Xh.F d a e +.+.+.p & t a @.O.p y ",
"y = e @.@.@.a a O.@.@.@.+.+.@.@.@.O.@.@.a O.@.a O.@.@.O.t O.@.@.p * p +.@.t s @.@.O.p +.@.@.a a +.@.@.@.+.+.@.@.@.O.e r F h.].p.F q a O.e +.@.@.p * t O.@.p t t ",
"= = y O.@.@.@.O.t p +.@.O.O.@.O.a +.@.+.@.@.@.O.+.@.@.@.+.@.@.@.+.a +.@.@.a a +.O.p y a @.@.@.O.= y @.@.O.a @.O.O.+.+.p 8 ~ ( F q a @.+.a @.@.@.+.a +.@.@.a t t ",
"* = y y +.@.@.+.t e a @.O.a +.O.a @.O.a @.@.@.a +.@.@.@.@.@.@.@.+.@.@.@.+.+.+.a a a y a +.@.@.+.= = O.@.O.a +.O.a @.+.e p 8 A > i @.@.@.@.@.@.@.@.+.@.@.@.O.y t ",
"t y +.@.@.@.+.+.@.O.a @.+.a +.@.@.a t * a @.@.a t a O.+.@.@.@.O.a a a O.a +.@.@.+.O.+.@.@.@.@.+.@.O.a +.O.O.+.@.+.+.e = e e 0 9 t t +.@.@.@.@.a a a a +.a O.a a ",
"= y @.O.@.@.+.+.@.@.+.O.+.+.+.@.@.p t t p a a t t a O.a y y +.+.+.+.+.+.@.@.@.@.+.+.@.O.+.@.+.+.@.@.+.+.+.+.+.@.@.y = = e = = * i p a a a a +.+.@.a +.+.@.@.O.y ",
"t y +.y a @.+.+.@.@.O.a a O.@.@.@.a t y p p p p p a a p p O.O.@.@.@.@.@.@.@.@.@.a +.+.p a @.+.@.+.@.+.a O.+.@.@.@.p y = y y p p a a a a p a +.@.@.@.@.@.@.@.a t ",
"y y p t t a a O.+.p = e t p +.@.@.+.+.a a +.@.@.@.+.@.@.@.@.@.@.@.@.@.a t +.@.@.@.+.p t y a a a +.e = = = p +.@.@.@.+.y a +.@.@.@.@.+.+.+.+.+.@.@.@.@.p p +.O.y ",
"t y O.p t p a a a p p a = = O.+.@.@.+.+.a a +.@.@.@.@.@.O.+.@.@.a p O.a t p +.@.+.+.a a p p y a O.p e O.= = O.+.@.@.+.O.a a +.@.@.@.@.a w 3 d @.O.a +.p t p y y ",
"= y @.O.a a a a p p a O.p = O.@.@.+.+.+.a a O.@.@.@.@.+.y y +.+.y = a a t = y +.a +.@.a a a a a e e a +.= = O.@.@.+.+.@.a a O.@.@.@.@.0 - . : a a p a a p t t y ",
"a a O.@.@.@.O.O.O.a = e * p @.+.O.O.+.@.@.@.@.O.O.+.+.@.@.@.@.@.@.+.O.t * = O.@.@.@.a @.@.@.a a +.= = = = = @.@.O.O.+.@.@.@.@.O.O.+.+.s : X 5 +.@.@.@.@.@.a y y ",
"t a +.@.@.+.+.@.@.+.a a a +.@.@.O.a O.@.@.O.O.+.+.+.O.O.+.+.+.+.@.O.9 > 1 9 O.@.@.+.+.@.@.@.@.@.@.+.O.a a +.@.@.+.a O.@.@.O.O.+.+.+.+.p , 1 q +.@.+.O.@.@.O.y y ",
"t y @.O.O.+.+.@.@.@.@.@.@.@.@.@.+.p p a a t t @.@.a O.p = e a a p 9 : O + : p a a +.@.a a +.@.@.@.@.@.@.@.@.@.@.+.t p O.a t t @.@.O.a y = * y a y p t +.@.O.a y ",
"t y a O.@.@.+.a a @.@.@.@.@.+.+.a a p t t a +.@.@.e = a a a e * $ : D P ( S u i a +.a +.@.@.O.a O.+.@.@.@.@.@.O.p a p t t p +.@.+.e p p a p p p t t a O.@.O.a t ",
"t y O.+.+.O.O.a a a a a +.@.+.a a O.a a a O.@.@.+.= t p a p = & @ O K 6.6.J k > p a a @.@.a y a a a y y a @.@.a a +.a p O.O.@.@.O.e = p p p = e = = O.O.O.O.y = ",
"= a +.@.a = p a +.+.p e a @.+.+.+.@.+.O.@.@.+.@.+.p p = = = = & - O K 6.6.K A > p +.@.@.a p y y +.a a t a @.+.+.+.@.+.O.@.@.@.@.+.p p = = = = = = t +.+.O.O.y t ",
"t a +.O.y = = y @.@.@.+.+.+.O.+.@.@.@.@.@.@.+.@.@.+.p = = = p t 0 3 A n J A 3 p a @.+.+.p i t t @.@.@.+.@.@.a @.@.@.@.@.@.@.+.@.@.+.p * = = y a y a y +.+.+.O.t ",
"t a +.O.a y t y @.@.+.+.@.+.O.@.@.@.@.@.@.+.y +.@.@.O.p p a O.O.+.a 2 6 6 3 p @.+.+.@.a a a t y @.O.t i t i 9 p +.@.@.+.@.O.a O.@.@.O.y p O.O.+.+.+.+.O.+.+.O.y ",
"t a @.@.@.@.+.@.@.+.a p O.@.@.@.@.+.O.+.O.a p O.@.@.@.+.@.@.@.@.@.@.y $ , p O.O.a +.@.@.@.@.+.+.O.& ; . - - - > 0 a +.+.O.a p a +.@.@.@.@.@.@.@.@.@.@.+.a O.y t ",
"* t O.@.+.a @.@.+.+.a p +.@.@.@.O.O.a a +.@.+.y a @.@.@.@.+.@.@.@.+.y t t t = = y y p a y t +.O.i 5 k l l l z 6 1 p y a +.@.+.a O.@.@.@.@.@.@.@.@.+.O.O.+.p = & ",
"t y +.@.O.y O.+.+.+.a p a +.+.O.a O.a a @.@.O.a O.+.@.@.@.O.+.@.@.y t i i # # @ > , $ < , # < $ : A H ^ ^ P P D A 2 9 t +.@.O.a a @.@.@.@.O.O.@.@.O.y @.@.a = * ",
"t y @.@.+.y y +.@.a e p p a y p a +.@.@.+.t = +.@.O.@.@.@.p p +.@.a i ; . o . o . O . O . o . . k K e.a.y.y.s.6.J + > t a t t +.@.+.@.@.@.y y +.+.@.@.@.@.+.O.y ",
"= y +.+.+.a O.O.O.+.O.= a +.O.a a @.a a O.O.O.+.O.y +.@.@.p & 9 t 9 8 S J H H H H D D b D b b D J :.p.m.m.M.M.i.P h ; $ a O.+.@.a a @.@.@.a a @.@.@.+.a p @.+.y ",
"= = O.O.O.+.+.+.y +.+.p O.@.@.+.@.@.a y a @.@.a y y +.@.@.p > ; ; ; A ( p.s.p.d.p.r.5.3.3.:.3.3.:.6.y.g.M.N.n.e.P x X # p @.@.y p a a @.@.+.O.@.@.O.O.t t @.O.= ",
"= y O.a O.@.@.@.@.@.@.@.a p @.+.a @.@.a +.O.a t y O.y +.+.3 4 z g b ( g.(.(.(.(.^.Q.M.f.a.g.g.g.a.>.:.e.a.a.>.;.n x 6 , a a a y a O.a O.@.@.+.@.+.O.a O.+.@.p * ",
"= = = = O.+.+.+.@.@.@.O.a a @.@.@.@.+.+.@.+.a p y +.y * # 4 c U m P >.M.^.!.(.(.).(.~.Q.M.M.M.m.g.i.,.,.e.e.:.;.1.^ N 5 i t a y a O.a a O.a a @.@.+.O.O.@.@.y % ",
"= = = = e +.O.+.@.@.+.y a +.+.@.@.O.a +.@.@.O.a O.+.t > - D 3.M.M.M.Q.~.(.(.(.(.(.(.(.~.N.m.m.m.g.f.i.y.:.-.U >.9.9.2.b ; $ y y a @.a a p p a @.@.@.O.+.@.@.y & ",
"y = = y e = y +.@.+.+.+.a a +.O.p a y a @.@.@.O.+.a q 6 ~ Q.|.oXoXoX X X XXX|.).!.^.(.^.Q.m.a.g.g.M.g.y.;.U P 5.9.x.9.2.N 6 < p a @.@.@.O.+.@.a t y @.@.@.O.a t ",
"y y y y O.O.a O.O.O.O.O.O.O.a O.a a a +.O.O.+.@.t $ 6 ` `.#XrXrXfXkXjXjXsXtXqX|.^.~.^.^.Q.g.a.s.g.M.g.r.;.U U -.5.8.k.k.2.b 6 < t O.@.@.O.@.@.a t t @.+.y a y t ",
"* y O.+.+.+.O.O.y a y +.+.+.O.+.@.@.@.@.a a a a 9 5 ( _.rXhXlXzXxXbXnXbXxXxXdX$X|.(.~.Q.M.g.s.s.g.m.f.y.:.Y Y U U Y 8.x.z.C l > t O.O.O.O.O.@.@.y y +.y t y y t ",
"% = O.O.O.+.+.+.+.a a +.@.@.@.+.@.+.@.+.y t t # 8 _ `.eXgXzXxXbXnXnXnXbXxXzXgXpX#X|.^.f.a.s.s.g.g.M.n.<.>.=.=.U D z ( v.v.2.g > t O.@.@.a a a +.+.+.+.O.O.@.a * ",
"* t a a O.O.a a O.a a +.O.O.+.a a a y y y t $ X ~ _.rXkXlXzXxXbXnXnXbXzXlXhXhXgXdX#X`.g.i.s.n.n.g.g.f.:.=.U =.K R E ) w.z.&.x ; $ p a a a a O.+.@.+.a p y @.O.t ",
"y y y a O.a = = = y a a a p a e p p p i t & > o ( oXkXzXgXlXxXbXbXxXzXgXfXfXgXgXgXrXoX~.m.g.n.f.f.r.( L J b c ~ ] %X%Xj.2.&.V A : & & t p +.@.@.@.O.t t t a y y ",
"= y +.@.+.O.t t a = = O.+.@.@.@.@.a p t a t < l r.oXkXzXgXlXlXzXzXzXlXgXgXgXgXfXaXuX$X.X).M.n.f.p.( T u T + o W &XcX-X%X! / 9.C z - & a O.a +.+.+.+.O.y t O.y = ",
"= t O.O.+.@.+.O.O.a a +.@.@.@.+.@.+.O.a a i G ( ~.8XfXzXhXgXrX5X5X5XtXfXhXgXfXaXuXuXuX@X{.M.i.r.` ' W Q Q Q Q $.-XcX=X] ! 2.x.7.n X i O.@.a a a a a @.a a a y t ",
"= t p p O.@.@.@.+.@.+.O.@.@.a a O.@.@.+.9 G _ ^.+XyXdXhXhXrX1XJ.l.J.}.rXdXdXiXuXuXuXaXyX{.M.I ~ ' #.*X-X>X>X<X<X-X&X] ` ( 9.v.q.n o < a a a a a t = +.@.+.a p y ",
"* = t a a a a a a p e p p a +.+.+.+.O.9 : L B.XX9XuXaXpXpX1XG.[ [ } G.3XyXuXuXyXyXuXaX9X.XM.I R W %.>X<XvXvXvXcX*X] T ~ 3.k.x.7.V . q O.@.a a p * t O.@.@.a = & ",
"* * t O.a t p t e = e e e e a +.+.+.p 9 4 K B.R.6X0XyXrX1XL.D.{ { | H.L.3X+XyXuXuXuXaX9X{.N.I ~ W #.=X>X>X>XcX>X=X$.' E ( q.x.7.N X & a @.a a a p a +.@.@.y & & ",
"* * y y a t * = = = t = = = = p O.O.O.a 7 K &.S.K.3X0X2Xl.S.D.P.I.o.o.S.l.2X@XiXuXaXaX8X{.N.y.e.` ' W Q Q Q W X.=X<X*XQ T 2.x.7.V X 9 O.@.@.@.@.+.+.@.@.+.= * * ",
"* t y y a a t * * p = = p p p O.+.+.+.s G b C M S.2X7XA.Z { F.U.,X;Xo.{ Z A.9XdXiXuX9X.X).N.f.a._ ~ T T T A + W %X>X*XX.) 0.k.2.n X 9 O.+.+.+.@.y y p +.@.O.p t ",
"t t t O.+.O.t t p a a a a O.@.@.@.+.+.a 7 b C M S.2X7XC.B { o.:X,XU. .[ Z C.eXdXiX@X.X/.M.m.a.<.:.P D D D c c F ] $.#.j.q.z.x.2.b X 9 a y y +.+.p & = a @.+.a t ",
"y t t @.@.@.a a O.+.@.@.+.+.@.@.@.O.+.+.7 H C S.J.3X0X}.S...o.;XI.P.D.S.G.2XyXiXyXOX/.a.y.a.<.:.U Y Y U =.=.=.L R T ) q.b.A.b.7.v X 9 a t +.@.@.p * = +.@.t t t ",
"* t y O.@.@.@.O.p a +.@.O.a @.+.O.@.O.= 7 L k.K.2X0X9X7XR.L.H. . . .D.K.2X0XuXyX.X].M.i.,.,.,.;.U -.-.-.-.=.=.U ^ / 2.z.Z.E.E.c.V . 9 a +.@.@.@.+.O.+.@.@.a t t ",
"& t y y +.@.@.O.= e a @.O.a @.a y @.O.* : ( V.+X0XuXuXuX8X1XG.[ [ [ K.6XyXaXyXXX(.M.f.y.,.:.Y Y Y Y -.-.=.=.=.-.8.7.z.v.T.E.W.l.N . 9 a @.@.@.+.+.@.@.@.+.O.p t ",
"t t +.+.@.@.+.+.@.O.a +.+.+.O.@.@.O.= $ . K V.@XuXuXyXiXdX9XR.l.*.G.A.XX$X$X.X/.y.,.,.,.:.U U U U U U ;.>.6.8.k.x.Z.A.E.Y.L.K./ N @ t +.+.@.@.O.a a O.O.O.O.a t ",
"t y +.+.@.@.+.@.@.@.+.O.O.+.+.@.@.y = $ . D h..X@X@X@X$XiXuX9X6X6X}.}.[.).).~.f.:.U Y :.-.U U U U U :.5.9.x.k.v.v.b.T.W.W.J.C N 1 & t y y O.+.+.+.O.O.+.@.@.O.a ",
"= a @.p a @.+.+.+.@.+.a a +.@.@.@.a t i @ + ( B.}.+X+X+X+XXX+X8XyX$XOXN.i.y.y.>.;.;.;.5.5.5.8.5.>.:.8.z.b.b.v.q.9.z.T.Y.K.0.l - & a a a a a +.@.@.@.@.@.@.@.O.y ",
"t a p = p O.a a +.p = e = p O.@.@.@.O.t * 2 A ^ V.}.+X[.B.t.p.Q.@X$XOXN.>.>.:.>.-.5.9.k.v.k.k.k.k.k.x.T.E.Y.w.C m C &.0.0.N 6 9 a +.+.@.@.@.@.@.@.@.@.y t O.O.y ",
"t y a p p p a a a p p a = = O.@.@.+.+.O.t t 1 6 ^ V.].V.^ o f ^ V.[.].a.P U U U Y 5.9.z.x.x.z.z.z.k.v.Y.W.K.C N h h c b z A q a +.@.@.@.a O.+.@.O.y O.y t y y t ",
"= a @.O.a a a p p p a +.p e a @.@.+.+.+.y y t @ S ( d.3.f     f ^ u.u.P c n c J n P &.2.7.2.7.2.2.2.7.l.J.0.N + . X O O ; 3 p +.@.@.@.@.y a +.+.y t O.O.y = t y ",
"y a O.@.@.@.+.+.O.p t = = t @.+.O.O.+.@.@.@.+.t 3 A H n g f f f x n b v x c x x x x v n v v v v n v v V V N 6 5 2 1 8 3 q s a a O.@.O.@.@.@.@.@.@.@.@.@.@.y y y ",
"t a +.@.+.@.+.@.@.+.a a a O.@.@.O.a O.@.+.O.a +.p 1 + j j l h j j o h + h h k k k k k + h + k k j + h h j 6 d d d 3 d i s s a O.@.O.a O.O.+.+.+.@.+.O.@.@.+.O.y ",
"t y @.+.O.O.+.@.@.@.@.@.@.@.@.@.O.t a a a t y @.y * @ ; 6 6 A 5 6 ; 4 5 5 5 5 5 5 5 5 5 5 5 5 : 5 5 5 : ; 1 d d d 3 q i p p a @.@.a a p p p a a a y y O.@.O.y y ",
"y y y O.@.@.O.a O.+.@.@.@.@.@.O.a a a t t y O.@.+.* * i 9 3 d 3 1 1 3 q q q q r q q 3 q q q q 3 q q q q d 3 i i 3 9 9 t t a O.@.O.p p a a a p p t t a O.O.+.y = ",
"t y O.+.+.O.a a a O.a a +.@.+.a s O.a a a O.+.@.O.t t p e 0 0 & 9 0 s s s i s s s s p s s s i s i s i i s s s p i p p p a O.@.@.a p t i t t t = = = O.O.O.O.y = ",
"t y @.@.a t a a O.O.p p O.+.+.+.+.@.+.O.@.@.@.@.+.p = = = e e p t t a +.a a O.O.a O.@.@.a t p a a a p p a +.a +.+.@.+.O.@.@.@.@.O.p t t t = = t = y +.+.O.O.y t ",
"t a +.O.p = * p @.@.+.+.@.+.+.+.@.@.@.@.@.@.+.@.@.+.p = = = p a a a O.O.+.+.@.@.@.+.+.a y * * a @.@.@.+.@.@.a @.@.@.@.@.@.@.+.@.@.@.p t = = t a y y O.O.+.@.y y ",
"t a +.O.a p t O.@.@.@.@.+.+.+.+.@.@.@.@.@.O.a +.@.@.O.p a y +.+.+.+.+.O.O.@.@.@.+.+.+.+.a a t a @.@.@.+.+.@.a @.@.@.@.@.@.O.a +.@.@.a a y a O.+.+.+.+.O.O.+.O.y ",
"= O.@.@.@.@.@.@.@.O.a p O.@.@.@.@.+.+.+.+.a y O.+.@.@.@.@.@.@.@.@.@.@.+.a a +.+.+.+.@.@.@.@.@.+.@.+.a p a @.@.@.@.+.+.+.O.a t O.@.@.@.@.@.@.@.@.@.@.@.O.O.O.y = ",
"= = O.@.+.a +.+.+.+.a p +.@.@.+.O.O.p a +.@.@.y O.@.@.@.@.@.@.@.@.+.a O.O.a y a a a +.@.O.s +.@.O.O.a t +.@.@.@.O.O.y a +.@.+.a a @.@.@.@.@.@.@.@.+.O.O.O.y = * ",
"* y +.@.+.y O.+.+.O.a t a +.@.O.a O.a a @.@.O.y O.+.@.@.@.+.O.+.@.O.a @.@.a a a +.a +.@.O.y O.+.@.a a t a @.+.a a O.a a @.@.a y O.@.@.@.@.O.O.+.@.O.O.@.@.y = * ",
"= O.@.@.+.y y +.@.O.= y a p y y a +.@.@.O.t = +.@.O.@.@.@.a y +.+.@.@.@.@.+.@.@.@.@.@.@.+.a y O.@.a p p p p p a a +.@.@.O.t t @.@.O.@.@.@.a y +.O.@.@.@.@.+.O.= ",
"= y +.+.O.a O.O.O.O.y t O.+.a y O.+.O.a O.O.+.+.O.p +.@.@.O.a +.@.@.+.y y @.@.@.+.+.+.+.O.a O.O.@.O.a t O.+.a a O.+.O.a O.O.+.@.a p @.@.@.a a +.@.@.+.y O.+.+.O.",
"= y O.O.O.O.+.+.O.+.+.a +.@.@.+.+.@.a y O.@.@.O.= a O.@.@.+.+.+.@.@.O.t t @.@.+.O.a O.O.O.O.+.+.a +.O.a O.@.@.+.+.+.a y a @.@.a p a O.@.@.+.+.@.@.+.O.y = @.O.= ",
"= y y y +.@.@.@.@.@.@.@.y p @.+.O.@.+.O.O.O.a = a O.O.+.@.@.+.@.+.O.O.O.+.@.O.a O.a a a +.@.@.@.@.@.@.@.a p @.+.+.@.@.O.O.O.a t y O.O.O.@.@.+.@.+.O.y O.+.@.y * ",
"= = t y a @.+.+.@.@.@.O.a a @.@.@.@.+.+.@.O.O.= O.+.y a O.= O.@.@.@.y O.@.@.y y O.a t p a +.+.@.@.@.@.O.a a @.@.@.@.+.+.@.O.a t a +.a a a a O.@.@.+.O.+.@.@.= % ",
"= = = = t y a +.@.@.+.y O.O.@.@.+.+.O.O.@.@.+.a O.+.O.a y a O.+.@.@.O.+.+.@.a a +.a t t p a a O.@.@.+.y y +.@.@.+.+.O.O.@.@.O.a O.+.O.a p a a +.@.@.+.+.@.@.= * ",
"y t = y t y y O.+.@.+.y y O.+.a p a y a @.@.+.+.+.@.@.+.O.+.+.O.t y @.@.@.+.+.@.@.a t t t p a O.+.@.+.O.a O.+.a a y p a @.@.+.O.O.@.@.@.O.+.@.a t y @.@.@.O.O.= ",
"* * = = t = y y y y y y y y p y t t t y p a a a a a +.O.a O.a a = * O.p t t a a a t * t t t t t y y y t y t y t t t t a a a a a a a O.a a a a a = = O.y = = = * ",
"% % = = y t = = * & * = t = = = a t a y * = = a p = = = = = = = * & = * % & * t t * * t p t t * * & * = t t * t p t a t t * t t y = = t = = p p & & = * % & & % "
};
