/* XPM */
static char *Group_9_3__resized[] = {
/* columns rows colors chars-per-pixel */
"80 80 230 2 ",
"   c #2D392D",
".  c #292D3A",
"X  c #2A3537",
"o  c #2D3D33",
"O  c #343B38",
"+  c #413F3C",
"@  c #2E4B1C",
"#  c #355B1D",
"$  c #37631B",
"%  c #39651D",
"&  c #3C6D1D",
"*  c #3F711F",
"=  c #2C4328",
"-  c #314828",
";  c #335424",
":  c #355A24",
">  c #385E25",
",  c #36552C",
"<  c #36592A",
"1  c #3A5C2D",
"2  c #2E4537",
"3  c #314333",
"4  c #324C33",
"5  c #34433B",
"6  c #334B3B",
"7  c #385636",
"8  c #376224",
"9  c #3A6324",
"0  c #3D6B23",
"q  c #3D642C",
"w  c #3F692A",
"e  c #3F7220",
"r  c #3C712B",
"t  c #3D6235",
"y  c #41751F",
"u  c #43781F",
"i  c #49423D",
"p  c #406B2A",
"a  c #416B2C",
"s  c #417620",
"d  c #457C21",
"f  c #447429",
"g  c #416731",
"h  c #281F41",
"j  c #292947",
"k  c #322F49",
"l  c #2E3447",
"z  c #353B46",
"x  c #33354D",
"c  c #2E3959",
"v  c #343353",
"b  c #363859",
"n  c #273F65",
"m  c #373B64",
"M  c #7C0C5C",
"N  c #4A3A55",
"B  c #453D58",
"V  c #6B1669",
"C  c #483968",
"Z  c #493B77",
"A  c #543D7B",
"S  c #2F4D42",
"D  c #354646",
"F  c #37455B",
"G  c #3C5659",
"H  c #374668",
"J  c #3D5467",
"K  c #2D4970",
"L  c #344B74",
"P  c #3A4C77",
"I  c #344E7A",
"U  c #3A5275",
"Y  c #35537C",
"T  c #39537E",
"R  c #494947",
"E  c #4E4D4D",
"W  c #454755",
"Q  c #585456",
"!  c #685C51",
"~  c #58665E",
"^  c #706556",
"/  c #4C4F65",
"(  c #42566A",
")  c #474776",
"_  c #584478",
"`  c #43557C",
"'  c #6B5176",
"]  c #506770",
"[  c #7D7566",
"{  c #706A70",
"}  c #940C5F",
"|  c #8D106E",
" . c #B11770",
".. c #922D7C",
"X. c #B52969",
"o. c #C63577",
"O. c #81745E",
"+. c #B4477B",
"@. c #877C6B",
"#. c #CE5F7C",
"$. c #478022",
"%. c #498423",
"&. c #4C8A24",
"*. c #888476",
"=. c #978F7D",
"-. c #593D81",
";. c #743488",
":. c #345484",
">. c #3A5582",
",. c #3D5B86",
"<. c #385789",
"1. c #3D5C89",
"2. c #3F608D",
"3. c #3C6091",
"4. c #4F4B88",
"5. c #435585",
"6. c #435B84",
"7. c #44568A",
"8. c #445D8B",
"9. c #5B4D97",
"0. c #4D5694",
"q. c #4B5898",
"w. c #52599B",
"e. c #664486",
"r. c #695092",
"t. c #42618D",
"y. c #4A6589",
"u. c #436692",
"i. c #446A95",
"p. c #496893",
"a. c #476E9B",
"s. c #496E9B",
"d. c #47719F",
"f. c #4A729E",
"g. c #547091",
"h. c #7D6F8B",
"j. c #5B59A3",
"k. c #7D4BA4",
"l. c #6654A6",
"z. c #645AAB",
"x. c #7752AA",
"c. c #6C5BB4",
"v. c #7B5AB9",
"b. c #4B75A2",
"n. c #4C79A7",
"m. c #5278A7",
"M. c #586EB0",
"N. c #6F6BB8",
"B. c #7E72C7",
"V. c #8E368F",
"C. c #87388D",
"Z. c #AE2688",
"A. c #CA328A",
"S. c #8F489C",
"D. c #A05C96",
"F. c #8553A9",
"G. c #9257B3",
"H. c #866AB6",
"J. c #906AB0",
"K. c #E55893",
"L. c #DD6C85",
"P. c #E86F90",
"I. c #945DC5",
"U. c #8967C9",
"Y. c #9666D3",
"T. c #A465D5",
"R. c #A46AE3",
"E. c #4F82AB",
"W. c #5283AE",
"Q. c #5C87AB",
"!. c #5586B3",
"~. c #568BB5",
"^. c #5889B8",
"/. c #5A8CBA",
"(. c #5A92BC",
"). c #5F98BD",
"_. c #6A8EAF",
"`. c #5E8DC3",
"'. c #5B99C4",
"]. c #6887C6",
"[. c #6596C8",
"{. c #7D88D2",
"}. c #6A96D1",
"|. c #69A6D4",
" X c #6CABD0",
".X c #72A6DB",
"XX c #74ADE3",
"oX c #78B6E7",
"OX c #75BAEB",
"+X c #77C5F3",
"@X c #948D87",
"#X c #A6958C",
"$X c #B1A996",
"%X c #A282AE",
"&X c #BCB8A5",
"*X c #FF95AB",
"=X c #C3BCA9",
"-X c #FEA5AF",
";X c #C7C0AE",
":X c #D5CFBB",
">X c #8889CB",
",X c #8A93D6",
"<X c #87A7D5",
"1X c #89B4D9",
"2X c #8DAAE4",
"3X c #86A7E9",
"4X c #88B8F3",
"5X c #8BC4DE",
"6X c #84C5E8",
"7X c #91CBE9",
"8X c #89C7F8",
"9X c #8BCDFC",
"0X c #92CAF5",
"qX c #8CD3FD",
"wX c #8AD8F8",
"eX c #93D7F6",
"rX c #A9D6E6",
"tX c #8FE3FF",
"yX c #93E4FD",
"uX c #9AEAFA",
"iX c #9DF4FE",
"pX c #A7EAF6",
"aX c #B8EBF6",
"sX c #A7F9FE",
"dX c #B3F6FC",
"fX c #BDFCFD",
"gX c #D7D3C5",
"hX c #EAE5D3",
"jX c #C6FBFD",
"kX c #D0FFFF",
/* pixels */
"@ $ * & & y y y y & & y y y u y y y u y & & * d u y u u & & & * * y u * * d y & $ & y & & y * * y * & y u u u * * u e * & & & : = j j o ; $ & * * * u * * u & # ",
"& & y y y s * & y * * d u u y y * s y * * * u s y * * * * s d d d s y & * u $.d s y * y y y * * * * * u s y y * * u * * & & 9 7 ( ` t.( S 8 * d d s * * y d y & ",
"u u y u d d y y y y u $.d d d y e s s & * u d s * e & e e $.&.&.&.%.y * * d %.&.&.$.s d $.d * * * y u $.d d d e s d e & 0 8 7 ] _.<X<X_.] w * &.&.$.* * y u u u ",
"y u %.&.&.d y u u y y $.%.&.&.&.&.$.e * u %.&.%.$.$.$.%.%.%.$.%.%.%.%.y u $.%.$.%.%.%.%.%.$.u y u y u $.%.&.&.&.%.$.u & $ 6 J ~.1XaXjXrX<X( 4 %.&.%.%.d u %.u & ",
"* u u %.%.&.%.d $.d d %.&.&.&.%.&.&.d $.%.&.&.&.&.&.&.&.%.$.d %.d d %.%.d $.%.%.%.$.$.$.%.&.%.$.%.u d $.&.&.&.%.&.&.%.e 8 D 1.}.eXjXkXjX1X8.D f u $.%.$.u %.u y ",
"y y y u $.&.&.&.%.%.$.%.&.%.d d d &.&.&.&.&.&.&.&.&.&.&.%.d s d e e %.&.%.d %.%.%.d y s $.&.&.&.%.&.$.%.&.&.$.s $.&.&.%.8 S 7.}.7XpXfXpX<X7.D s * * %.&.&.u u y ",
"& y y u u u d d d s s s s d %.&.%.&.d s d d %.%.%.&.&.%.%.d y s & & $.&.&.d y s $.u * d d $.$.d u s s d s d %.&.%.%.$.* 8 4 H m..X0XwX1XQ.G 4 s * * $.&.&.d * % ",
"& & y u $.u u u * * * e * * d %.%.%.d d d s s y d &.&.&.%.$.$.$.d d %.&.&.s * y d s y $.d * s * y * * * * * d %.%.%.$.* * 9 7 ( m.}.}.~.] t 0 %.u u %.&.%.y & $ ",
"* * * $.d * * * * e y * * * * s %.u %.&.&.d s y y &.&.&.&.&.&.&.%.%.&.&.%.0 s d d s s $.s * * * * * * * * e e d %.$.%.&.&.e e 7 J 8.7.J t f &.&.%.%.&.&.%.y % y ",
"& * u d d d * * * * * * s d s $.&.d &.&.&.&.d %.&.&.&.&.&.%.%.%.d y s $.&.%.&.%.d s y d d u * * * e * * e d e $.%.$.%.&.&.&.e r 7 D D 7 w d %.%.s s d %.%.%.s y ",
"* * * %.%.$.e * s d d s d %.%.&.&.%.&.&.&.%.%.&.&.&.&.&.u u %.%.e & & d &.d &.&.%.s u $.&.$.s y e $.d e $.$.%.%.&.%.%.&.%.%.%.d s > 9 0 r u %.%.s & & d &.%.u u ",
"u * e &.&.&.d d %.%.&.&.%.%.&.&.&.%.&.&.d d &.d $.&.&.$.y &.&.&.s & * &.&.s d &.&.$.s %.&.&.d s %.&.&.&.%.%.&.&.&.$.&.&.$.$.%.d d &.&.d y $.&.&.s & & %.&.y y y ",
"* * * $.&.&.&.$.s s %.&.$.d &.%.d &.&.&.&.&.&.d &.&.&.&.%.&.&.&.%.d &.&.&.s d %.$.s u d &.&.&.$.* $.%.&.$.$.%.%.$.%.&.%.%.&.&.%.&.&.&.&.%.&.&.&.%.d %.&.&.d y y ",
"& * u $.%.&.&.%.* e d &.$.d &.d d &.d d &.&.&.%.u &.&.&.&.&.&.&.%.&.&.&.%.%.%.d d d d d %.&.&.%.* * $.&.$.d %.$.d %.%.$.%.&.&.%.d &.&.&.&.&.&.&.%.&.&.&.%.%.s y ",
"y u $.&.&.&.%.%.&.$.d &.%.d $.&.&.d y & d &.&.s u d %.&.&.&.&.$.d d %.d d %.&.&.%.%.%.%.&.&.%.%.&.$.$.%.%.$.%.%.&.$.e e d %.&.e s d %.&.%.&.&.d d d d d d %.d u ",
"* u &.$.%.&.%.&.&.&.%.%.$.$.&.&.&.s y y s s d y y d d u u u %.%.%.d %.%.&.&.&.&.%.%.%.%.%.&.&.%.&.&.%.$.%.%.%.&.&.d e e e $.$.e s s d d d d %.%.%.%.%.&.&.&.d u ",
"* u %.u d &.%.%.&.&.%.s d %.&.&.&.s y u y y s s s d d d s d %.&.&.&.&.&.&.&.&.&.d &.%.s d &.&.%.%.&.%.d d %.&.&.&.d u y y s s s d d d s s d $.&.&.&.&.&.&.&.d u ",
"u u y * y %.d d %.s * * * s %.&.&.%.%.u $.%.&.&.&.%.&.%.&.&.&.&.&.&.&.d u %.&.&.&.d s s u d d d %.* * * * s %.%.&.%.%.d $.%.&.&.%.&.&.&.&.&.&.&.&.&.&.u s %.%.u ",
"y u %.y y u d d d s y d * * $.&.&.&.%.%.d d %.&.&.&.&.&.$.%.%.%.d d d d y u %.&.%.%.d s u s d d $.e e $.* * d &.&.&.&.u d d %.&.&.&.&.%.$.%.&.%.%.u %.u y s u u ",
"* u &.%.d d d s s s d %.s * $.&.&.%.&.%.d d $.&.&.&.&.%.s $.%.&.d u d d s y u &.d %.&.d d d d d e e $.$.y * %.&.&.%.%.&.d d %.&.&.&.&.%.s d $.&.u u u $.s y y u ",
"y d %.&.&.&.%.%.%.y * * 0 s &.%.d %.%.&.&.&.&.$.$.%.%.&.&.&.&.&.&.&.&.&.&.u %.d d u d &.&.&.d d %.e * * & * &.&.%.%.%.&.&.&.&.d $.%.&.&.&.&.&.&.&.&.&.&.&.d u u ",
"y d %.&.&.%.%.&.%.%.d d d d &.&.%.d d &.%.%.d %.%.%.$.$.%.%.%.&.%.%.d &.&.%.u y g g y d &.&.&.%.&.&.$.$.$.%.&.&.%.d d %.%.%.d %.%.%.$.$.%.$.&.&.&.%.d &.&.%.u u ",
"y u &.%.$.%.%.%.&.&.&.&.&.&.&.&.%.y s $.d y s &.&.d $.s e e d d d u d %.&.%.y g O   > d %.d %.d &.%.%.%.%.$.%.%.%.y d d s y u &.&.d $.s e s d d u y y %.&.d d u ",
"u u d d &.&.%.d %.&.&.&.&.&.&.%.d d s s y d %.&.&.e e d d d s d y s d d u u p #   - > d &.&.%.d $.* & 8 & % 8 % y y s y s d %.&.%.e s d d s s s y y d %.%.%.d y ",
"y y %.%.%.$.d d d d d d %.&.%.d d %.d s d $.&.&.%.* * s d e e e y s d %.u %.u p 1 p y d %.%.u u s ; - o 3 3 3 - # d %.y d d &.&.$.* y s d s s * * * $.%.$.$.u * ",
"* d &.&.$.* s $.%.$.s e d &.%.$.%.&.%.%.&.&.%.&.%.s s * * * * * p y %.%.%.d &.u s d u d y y y y > 3 x v v v b z , f d %.&.&.&.&.%.s e * * * * * * y %.%.$.$.u y ",
"y d %.d u & * u &.&.&.&.&.$.d &.&.&.&.&.&.&.%.&.&.%.s * * * u u u u d %.%.&.%.u # @ - @ = = @ @ = l m P P ` ` H D , 0 d &.&.&.&.&.%.s * & e s u u d u %.%.%.u u ",
"y d %.%.d d y u &.&.$.&.&.&.$.&.&.&.&.&.&.$.d %.&.&.$.s s d $.%.d %.%.u u u y p 5 z O X . X . X z H I 8.p.a.f.8.H z ; 0 %.d d %.&.&.$.s s d %.%.%.%.%.$.$.&.$.y ",
"y u &.&.&.&.&.%.&.$.d s %.&.&.&.&.%.%.%.$.d u $.&.&.&.&.&.&.&.&.&.&.d % # # g O J ` ` ) P H m H P >.t.i.d.b.E.f.5.v 3 % d d d d &.&.&.&.&.&.&.&.&.&.&.%.d $.u * ",
"& y %.&.%.u %.&.$.%.d s $.&.&.%.%.d d d %.&.%.d d &.&.&.&.%.%.&.&.d % -     O F y.m.b.s.t.8.6.8.t.i.i.2.3.i.n.a.` k   # d &.%.d d &.&.&.&.&.&.&.&.%.d %.$.d * & ",
"* u %.&.%.u $.%.&.$.d s $.%.&.$.d d d d &.&.%.u $.&.&.&.&.$.$.&.%.0 - z v k b 6.E.(.(.~.m.n.f.f.f.b.a.u.1.1.a.u.P v o ; s %.%.d d %.&.&.&.d %.%.&.%.d %.&.d * * ",
"y u &.&.%.u u %.&.d e s s s y u d %.&.&.$.* * %.&.$.%.&.&.s d $.% ; z U 8.5.y.b.(.'.'.(.~.!.E.n.b.b.f.i.t.t.u.1.T H z o ; $ y %.&.%.&.&.&.u u %.%.&.&.&.&.%.d u ",
"* u %.%.$.d $.%.$.$.d * d %.d d d %.%.u d %.%.%.d d %.&.&.%.y 0 - D ` n.(.~.~.~.~.(.(.(.(.~.W.n.f.f.f.f.f.u.1.,.T Y H F 5 < y %.%.u %.&.&.d d &.&.&.&.u s &.%.u ",
"* u $.$.$.$.%.%.d &.%.u %.&.&.$.&.&.d y %.%.&.d d d d &.&.u 9 - l H n.'.|.OX|.'.~.E.W.~.(.(.W.b.a.a.a.n.f.i.,.T Y ,.7.T c 6 > & u d %.&.&.%.d &.&.%.u y u %.$.* ",
"* * d d %.&.&.&.&.&.&.&.s s &.&.%.&.%.%.%.d d s s d d &.&.& ; . m t.'.|.+X+X+X'.W.E.W.~.~.(.W.n.a.a.f.f.f.i.1.T Y >.t.u.T b O ; % u u %.&.&.%.&.%.%.d %.%.&.u & ",
"* * u * d %.%.%.&.&.&.$.d $.&.&.&.&.%.%.&.%.d y d %.s & & , G ] Q. X5XwXtXtX+XOX X).~.Q.W.W.E.f.f.a.f.n.f.i.2.Y I T 3.b.s.,.F D , y u u u d d &.&.&.u %.&.&.u $ ",
"* * * * e $.$.%.&.&.%.u d %.&.&.%.%.d %.&.&.$.d %.%.y # - G g.1X5XrXaXdXsXiXuXwX+X X).E.n.n.b.f.f.f.f.f.f.a.1.Y I >.u.b.n.b.8.H D ; 9 u u s d &.&.&.%.%.&.&.s % ",
"u y * y * * u %.&.%.%.$.d $.%.d y s u d &.&.%.%.%.%.u - . y. XaXfXjXkXjXdXsXiXuXuXwX XQ.f.f.a.a.a.f.f.f.a.i.2.:.Y >.1.t.f.b.p.P z - p u d &.&.d y u &.&.%.%.d y ",
"u y u u $.$.d $.d $.$.$.$.d d $.d d d %.%.%.%.%.%.%.u - j g.1XdXfXfXjXfXdXsXsXiXsXeX6X[.n.a.u.i.f.f.f.a.3.3.2.:.:.:.T ( ( U T G 6 1 s %.%.&.&.d y u %.%.u u u u ",
"* u %.%.%.&.$.$.d d u %.%.&.d $.&.&.&.&.d u %.&.&.d y , z Q.oXsXsXsXsXiXpXpXuXiXiXuXqXXX/.f.i.i.f.f.f.2.2.:.Y :.:.Y ( W E W b 3 9 d %.d %.d %.&.u u %.u y u y y ",
"$ * &.%.d %.%.%.%.d d &.%.&.&.&.%.&.&.&.d d &.&.%.e t G i. XeXiXsXiXeX1X,X>X<X7XuXiXyX4X.X[.m.f.d.b.a.y.J b F z c H ] @.@.^ k   # d &.%.u %.d %.%.%.&.%.d &.d & ",
"& y d d d %.d u $.s d %.$.$.$.d d d d d s d %.d 0 , G f.[.6XyXsXiXiX1XH.;.C.F.>X7XyXwX9X4XXX[.n.a.b.a.` W i R i z R @X&X=X*.i O   ; p u u d %.%.%.%.d s d &.$.u ",
"u y y u d d y * * u s $.d s s s s d s & y s d y : 2 t.N.1X0XpXuXuXrX%XV.} } ..D.3X8X9XqXqX8X.X!.3.i.g.] ^ ! ^ ! ! [ $XgXgX#X! N k   @ & u %.&.&.&.$.y & y d u u ",
"y u %.&.&.$.y y d * u $.&.&.&.&.%.d s & d %.&.%.w 2 ` l.N.,X0X0X<X>XS.Z.o.o.+.D.J.U.XXqXqX9XXX!.t.( ] [ #X$X$X&X;X;X&X$X@Xh.' A v X 9 u %.d %.%.%.%.%.u y $.u & ",
"* s %.d %.&.%.%.%.d u $.&.&.%.&.%.%.%.$.%.&.&.&.r S ) A C.J.3X4XH.C. .A.K.P.#.+...k.,XwXtX9XXX^.` W Q *.&X:X:XhXhXhX;X=.{ ' r.4.b o 9 %.&.d d d d d &.d d $.u y ",
"* y y s d &.&.&.%.%.%.%.&.&.d s $.&.&.&.&.&.&.&.r S ) V M F.Y.3Xx.|  .K.-X-X*Xo.} ;.N.wXyX9XXX^.2.G E [ #X=X;X:XgX:X&X=.{ r.r.) v   p u %.d s d * y &.&.%.d s u ",
"& * y d d d d d d s s s s d %.&.&.%.d s s d $.%.r S m V M F.,X3Xv.| X.L.*X*XK.A.} ;.>X8XtX9XXX^.2.U ( ~ ^ O.O.[ O.*.$X=X&XD.Q W k   w %.%.d s d & y d &.&.d & & ",
"& & s $.d y y y s e * e * * d %.%.$.d d d d y y 8 S ) ;.C.H.3X4XB.S.D.#.P.K.A.Z.V.G.3X9XwXOX}.W.2.<.Y / E R R + R g *.&X;X#X{ N k X 9 d &.d d %.s s %.&.%.* & % ",
"& & u u d y & * * * * y * * * s %.$.%.&.&.$.u * : 6 ` z.U.2X4X8X3X>XF.+.X. . .S.H.2X0XqX+X}.m.u.,.<.:.L H F W c D F ~ *.#X%XD.r.C X $ $.&.&.&.&.&.%.&.&.%.* & & ",
"& y u u d y y & & * * * s s s $.%.$.%.&.&.%.u %.0 2 6./.oX8XqXqXwX7X>XS.| | V.H.2XqX9XXX).b.t.>.Y :.T T I I L I :.I / E { D.G.k.B = % $.%.$.%.%.u y s %.%.%.s y ",
"y y u $.&.%.y y s d d s d $.&.&.&.%.&.&.&.&.%.&.0 6 y.`.OX9XqXqXtXwX4XU.x.F.U.2XqXwXoX/.s.6.Y I T T T ,.:.:.:.<.3.q.4.) _ r.F._ R 8 u %.d d %.%.e & * d &.%.d u ",
"y y u &.&.&.d u %.&.&.&.&.$.&.&.&.$.&.&.u $.%.d 9 6 8.M.XXOX9X9XqXqX4X3X3X3X4X8XqXoX^.8.T >.>.T Y Y T :.:.:.:.>.0.l.z.l.r._ C 3 9 %.&.d * %.&.&.s & * %.&.y y y ",
"& y u %.&.&.&.d y s &.&.$.$.&.$.d %.&.%.%.&.&.%.9 2 ) M.].3X8X8XOXXXoX4X+XOXoXXX.X/.p.I L I :.Y Y Y Y Y Y Y >.0.j.l.U.Y.F.-.j = & &.&.&.%.%.&.&.&.d %.&.&.d y & ",
"% y u u %.&.&.%.y e s &.d d &.d d %.%.d &.&.&.%.8 = m 4.N.{.3XoX[.!.'.XXOX[.`.n.m.a.>.L L Y T Y Y Y Y Y Y 5.0.j.l.c.Y.R.I.-.j = 9 d &.&.&.&.&.&.%.&.&.&.&.d d * ",
"y u %.&.&.&.%.%.&.$.s &.&.d $.&.&.%.y * d &.&.u # = v Z 9.c.].M.8.>.s.].}.m.Y K L Y I T Y Y >.,.5.5.>.>.7.q.j.c.v.v.Y.T.G.A l 2 , p d %.&.&.&.u d d $.d d %.d d ",
"& u &.$.%.&.&.%.&.&.&.$.$.$.&.&.&.d * & s s d y % ; D B Z 4.0.5.m m p.].}.b.I K K K I Y Y Y 5.q.w.0.q.q.j.z.c.B.Y.Y.I.F.A B 5 4 , p d d u u %.&.$.$.%.&.&.&.d s ",
"y d %.s d &.%.&.&.&.$.d d %.&.&.&.u y u y s y s e 0 i z v v v v j v 0.].}.m.>.L Y T >.Y Y >.q.j.c.z.c.z.c.l.z.v.Y.T.G.A x 3 7 1 1 9 s s d d %.&.&.&.&.&.&.&.$.u ",
"y s d * s d s $.%.s * e * s %.&.&.%.%.u $.%.&.&.$.d a 7 O . h h h c u.m.^.a.7.>.w.w.w.w.w.w.j.c.U.Y.Y.v.9.4.4.9.x.F.e.N 4 : a g g p s %.&.&.&.%.&.&.&.u u $.u u ",
"y u d s s s s d s s s d e * d &.&.&.%.%.d d %.&.&.f a g , O . j c L >.q.u.1.1.0.l.z.z.z.z.z.z.c.U.Y.T.F.A v b C Z C W 5 ; > a g a f d %.d %.&.%.$.u $.u u u y u ",
"* d &.%.d d d d s s $.%.s * $.&.&.%.&.%.d d %.%.d f p p g , 5 x m I I P K L I 4.9.l.l.l.l.9.9.l.x.I.G.;.v . . . j . 3 g q 9 g g a f %.d d d %.%.u y $.$.u * y u ",
"u d %.&.&.%.%.d $.s y y & s &.%.$.%.%.&.&.&.&.$.d d s f a g g D c n m c c c m m Z Z Z Z Z Z Z Z A -.e.C O 4 4 4 3 4 , q a g g q f d %.&.&.&.&.&.&.&.&.&.&.$.u u ",
"y d %.%.&.&.%.&.&.%.d u d $.&.&.%.u d &.&.%.d %.%.$.s f p p 1 7 D x k k k k x v x b v v v x x v v v z R 1 q q q 1 < q g g q q s d d d %.%.%.%.%.&.%.$.&.&.$.$.u ",
"y d &.%.$.%.%.&.&.&.&.&.&.&.&.&.&.y s $.s e s &.&.d s y $ 9 p 1 4 O O O 5 O O o o o o o o o o 3 o o 3 , a f f f a 9 1 q 1 > 9 %.&.d d s s s d d u u u %.&.$.$.u ",
"y u u %.&.&.$.d $.%.&.&.&.&.&.$.d d s s y s %.&.%.s y d u p > 1 7 , 7 1 , 1 7 1 1 1 , 1 1 q < , , , < q a a q q 1 q 1 1 > 0 d &.%.s s d d s s s y u u $.$.$.u * ",
"y u %.%.%.%.d d d d d d %.&.%.d d %.d s d $.&.&.%.e s s s 0 9 8 : 8 p p q q q q a q g g g q q q q q t q t g t q 9 w q q 0 d %.&.%.e e s s s s * & u $.$.$.$.u & ",
"y u %.&.d * s d %.d d e d &.%.%.%.&.&.%.%.&.%.&.%.s * * * * % & & 0 p a g q g g q g g a q 1 1 q q q 1 1 1 g g q a s d s d %.&.&.%.s s * * * e * & u %.%.$.$.u * ",
"y d %.%.u & & s &.&.&.%.&.%.d $.&.&.&.&.&.&.%.&.&.%.s * * * y s u d s p q q p p w w w 9 > : ; 9 a a w w q q 1 p d &.&.%.&.&.&.%.&.%.s * * * s d u $.$.$.%.%.$.u ",
"y u %.%.d d y $.&.&.&.&.&.%.%.&.&.&.&.&.&.%.d %.&.&.$.s s d $.%.%.&.d s s f s d s f s f r 0 0 e f d s s s f s d %.%.&.&.&.d d %.&.&.d s u d %.%.$.&.$.$.$.%.$.y ",
"* $.&.&.&.&.&.%.&.$.d s $.&.&.&.&.d &.$.$.d e $.&.&.&.&.&.&.&.&.&.&.&.d d d %.%.d %.&.&.&.&.%.&.&.d d d %.%.&.&.%.%.%.%.%.d y %.%.&.&.&.&.&.&.&.&.&.&.$.$.$.u * ",
"* * $.&.%.d %.&.%.$.d s %.&.&.%.%.d d d &.&.&.s d &.&.&.&.&.&.&.&.%.d %.%.d u u d %.d &.%.d %.%.%.%.d y %.&.&.&.%.$.u d %.&.%.d $.&.&.&.&.&.&.&.&.$.$.$.$.u * & ",
"* * %.&.$.y $.%.&.$.d y d &.&.$.d d d d &.&.$.s $.%.&.&.&.$.$.&.%.%.d &.&.d d d d %.%.&.d u %.%.%.d d y d %.%.d d $.u d %.&.u u d &.&.&.&.%.$.%.&.$.$.&.&.u * & ",
"* $.&.&.%.$.u $.&.d y y u s u u d %.&.&.d s * &.&.$.&.&.&.d u %.%.&.&.&.&.%.&.&.&.&.&.&.%.d u %.&.d y y d u y d d %.&.&.%.y y &.&.$.&.&.&.d u %.$.&.&.&.&.%.$.* ",
"* u %.%.$.d $.$.$.$.u y $.%.d u %.%.%.u $.$.%.%.$.s %.&.&.d d %.&.&.%.u u &.&.&.%.%.%.&.%.d d %.&.%.d y $.%.d d %.%.%.u d %.%.&.d d %.&.&.d d %.&.&.%.u $.&.$.$.",
"* u $.$.$.%.&.%.u &.%.u %.&.&.%.%.%.d y u &.&.$.u d $.&.&.%.$.&.&.%.$.y u &.&.&.d d d d d d &.%.d %.%.s $.&.&.%.%.%.d u d &.&.d s d $.&.&.%.%.&.&.%.%.* * &.$.* ",
"* u u $.%.&.&.&.&.&.&.&.u s &.%.%.&.&.%.%.%.d * s %.$.%.&.%.%.&.%.$.u $.%.&.$.d %.d d d %.&.&.&.&.&.&.&.d s &.%.%.&.&.%.%.d d s u $.$.%.&.&.%.&.%.$.$.$.&.&.* & ",
"* * y y u %.%.&.&.&.&.%.d d &.&.%.&.%.%.%.%.d y d %.u d $.d $.&.&.&.$.$.&.&.u y %.d y y d &.%.&.&.&.&.$.d d &.&.%.&.%.%.&.%.d y d %.d s d d $.&.&.%.$.$.&.&.* $ ",
"* * * * u u $.$.&.&.%.u u %.%.&.%.%.$.%.&.&.%.d $.%.$.s u s $.%.&.&.$.%.%.&.d s %.u y y s d d d &.&.%.u u %.%.&.%.%.d %.&.&.d d $.&.$.s s d $.%.&.&.$.%.&.&.* & ",
"u * * u * u u $.%.%.%.$.u $.&.d s d u u &.&.&.$.%.&.&.&.$.%.%.$.y u &.&.&.%.&.&.&.d y y s y d %.%.%.%.$.u $.&.d s s y d &.&.%.%.$.&.&.&.$.&.%.$.* u &.&.%.%.$.* ",
"& & & * u * u y u * u u u u u y y y y d s d d d d d $.$.d $.$.u & & d u y y d d d s & y s y y u u y u y u u u y u y u d d d d d d d $.d s d $.s * & u u * * * & ",
"$ & & * y u * * & & & * y * & y d y d y & * * d s * * * * * * s & & * & $ % & y y & & y y y y & & & & * y * & y s u d y & & y d u * * * y * y u & & * & $ & $ $ "
};
