/* XPM */
static char *Group_9_4__resized[] = {
/* columns rows colors chars-per-pixel */
"80 80 229 2 ",
"   c #2B392C",
".  c #292737",
"X  c #2A3832",
"o  c #2D353A",
"O  c #2E3B3A",
"+  c #313C38",
"@  c #2E491E",
"#  c #314E1C",
"$  c #33571C",
"%  c #37631B",
"&  c #39651D",
"*  c #3D6D1D",
"=  c #3F711F",
"-  c #2D4529",
";  c #33482A",
":  c #335523",
">  c #385725",
",  c #365A23",
"<  c #385E25",
"1  c #34532C",
"2  c #37592B",
"3  c #3A5E2C",
"4  c #2C4536",
"5  c #324434",
"6  c #344C33",
"7  c #354639",
"8  c #385834",
"9  c #3A6323",
"0  c #3E6B24",
"q  c #3D642C",
"w  c #3F692B",
"e  c #3F7220",
"r  c #3E6533",
"t  c #41751F",
"y  c #43781F",
"u  c #40472D",
"i  c #406D27",
"p  c #416A2D",
"a  c #417620",
"s  c #447627",
"d  c #457C21",
"f  c #406831",
"g  c #2C2A4B",
"h  c #312D4E",
"j  c #2E3442",
"k  c #2E3949",
"l  c #303641",
"z  c #353948",
"x  c #352C57",
"c  c #2F3054",
"v  c #323254",
"b  c #34325A",
"n  c #373759",
"m  c #3B3160",
"M  c #3A3C67",
"N  c #3E356A",
"B  c #5B195B",
"V  c #453957",
"C  c #453768",
"Z  c #533F6F",
"A  c #4B3B76",
"S  c #394744",
"D  c #39574A",
"F  c #344D57",
"G  c #364559",
"H  c #3E6249",
"J  c #354466",
"K  c #39436A",
"L  c #3B496B",
"P  c #3E5669",
"I  c #2E4771",
"U  c #334B76",
"Y  c #374B77",
"T  c #3C4B74",
"R  c #3E5171",
"E  c #35537C",
"W  c #39537E",
"Q  c #464349",
"!  c #474856",
"~  c #564F53",
"^  c #675A4A",
"/  c #645C56",
"(  c #4F625B",
")  c #6B645B",
"_  c #46446A",
"`  c #465868",
"'  c #504972",
"]  c #41547D",
"[  c #6A6A67",
"{  c #7A7268",
"}  c #797B73",
"|  c #90116B",
" . c #B3176B",
".. c #B63471",
"X. c #C52C77",
"o. c #857B6A",
"O. c #CF557A",
"+. c #478022",
"@. c #498423",
"#. c #4C8A24",
"$. c #898375",
"%. c #978E7C",
"&. c #503F80",
"*. c #76348A",
"=. c #365482",
"-. c #3A5582",
";. c #3D5985",
":. c #365689",
">. c #3A5C8A",
",. c #3E5590",
"<. c #3D648B",
"1. c #3F6493",
"2. c #4A4884",
"3. c #564489",
"4. c #435A85",
"5. c #45558C",
"6. c #45588B",
"7. c #51528D",
"8. c #594A93",
"9. c #4C5693",
"0. c #495A96",
"q. c #565698",
"w. c #664486",
"e. c #644B99",
"r. c #764B95",
"t. c #46648B",
"y. c #526B8A",
"u. c #436592",
"i. c #476895",
"p. c #466D9A",
"a. c #496E9B",
"s. c #46709B",
"d. c #4A729D",
"f. c #567A9A",
"g. c #5C57A2",
"h. c #5B5AA4",
"j. c #5F5CA9",
"k. c #784CA3",
"l. c #6454A6",
"z. c #6757AA",
"x. c #635BAC",
"c. c #7051AA",
"v. c #6B5CB3",
"b. c #775BB9",
"n. c #4B75A1",
"m. c #4D79A6",
"M. c #547AA9",
"N. c #587DB2",
"B. c #7167B7",
"V. c #7F5DC0",
"C. c #7674C8",
"Z. c #8C348B",
"A. c #AB2A8B",
"S. c #C83291",
"D. c #8A4497",
"F. c #8D4C92",
"G. c #AA5387",
"H. c #8C51AE",
"J. c #8A67B3",
"K. c #8B6CB4",
"L. c #D9588C",
"P. c #E05094",
"I. c #E96B91",
"U. c #8662CA",
"Y. c #9761CB",
"T. c #877CC6",
"R. c #9566D4",
"E. c #A260CC",
"W. c #A166D8",
"Q. c #59809A",
"!. c #4F82AC",
"~. c #5D82A6",
"^. c #5181AE",
"/. c #5688B4",
"(. c #558AB4",
"). c #5A8DBB",
"_. c #5891BB",
"`. c #678FB3",
"'. c #5C99C5",
"]. c #638CC5",
"[. c #7588CE",
"{. c #6597C8",
"}. c #6A9CD3",
"|. c #5EA0CC",
" X c #6EAAD3",
".X c #6BA7D8",
"XX c #7BB9DA",
"oX c #7C99E1",
"OX c #72B3E8",
"+X c #79B6E9",
"@X c #7EBAF3",
"#X c #74C6EE",
"$X c #9B9686",
"%X c #A29A87",
"&X c #AAA497",
"*X c #B4AC9A",
"=X c #BBB4A4",
"-X c #F891A1",
";X c #FC95AC",
":X c #C2BBA9",
">X c #C9C5B3",
",X c #D4CEBA",
"<X c #8D8DCE",
"1X c #8598D9",
"2X c #8EAED5",
"3X c #849DE3",
"4X c #88A8E5",
"5X c #89B7ED",
"6X c #92B0E5",
"7X c #87B9F4",
"8X c #8CCDEF",
"9X c #85C5F6",
"0X c #8BCBFD",
"qX c #87D5F4",
"wX c #8CD4FD",
"eX c #8DDAFD",
"rX c #93DAF7",
"tX c #A5CAE0",
"yX c #8DE1FD",
"uX c #97E8FC",
"iX c #9EF4FC",
"pX c #A6E8F6",
"aX c #A6F7FE",
"sX c #B3F7FE",
"dX c #DCD6C4",
"fX c #E1DCCE",
"gX c #E9E5D5",
"hX c #C8FCFE",
"jX c #D4FFFF",
/* pixels */
"# % = = * t t t t * * t t t y t = t y t * * = d y t y t = * * * t t y = = d t * % * t * * t = = t * * t y y y t = y y = * * = y e 9 4 - @ % = = = = y = t y * $ ",
"& * = t a d = = t * = d y y t t = a t = * = t a t = = = e a d d d a t * = y +.d a t = t t t = = = = t y a a t = = y t = = = t = w r P P D < = y y y = = t y t & ",
"y y t y d d t t = t y +.d d d t a a a * t t d = e e = * a d #.#.#.d t = t d #.#.#.@.a d +.d = = = t y +.+.d d a e a = = = a y & 8 ` ~._.s.H = @.@.+.y = t d y y ",
"t y @.#.@.d t y y t y +.@.#.#.#.#.d a = d #.#.#.+.d +.#.@.d @.@.#.@.@.t t +.+.+.d @.@.#.#.d y t y t y +.@.@.#.#.@.@.a = d #.d : D Q.XX8X'.` 8 @.#.@.@.y t @.y = ",
"t t +.+.@.#.@.d +.d d +.#.#.#.@.#.@.d @.#.#.#.#.#.@.@.#.#.d d @.d d #.@.d d @.@.d +.+.+.@.@.@.+.#.y d +.#.#.@.@.@.@.@.+.#.#.@.9 H s.XXXX`.` 6 d +.d #.d d +.y t ",
"t t t y +.#.#.#.#.@.@.@.#.#.d d d #.#.#.#.#.#.#.#.#.#.#.@.d a d = 0 @.#.#.y @.#.#.d t a #.#.#.#.+.#.+.@.#.@.+.a +.#.#.#.#.#.#.e r ( Q.~.y.8 & d = = #.#.#.d t t ",
"* t t y y +.y d a t a a a d @.#.@.@.d a d d d @.@.#.#.#.@.y t a * t d #.#.d t a +.y t d d d +.d y a a d d d #.@.#.@.+.a d d d +.s w D D r 0 t a = = +.@.#.d * & ",
"* * t y y y y y e = = e = = d +.#.@.d d d a y t +.#.#.#.#.+.+.+.y t @.#.#.a = t d a a d d t t = = = = e = = a #.@.+.d d e d a a +.e 2 2 0 e d @.y y @.#.#.= * % ",
"* = y +.+.= = = = = = = = = = a +.+.@.#.#.y t t y @.#.#.#.#.#.#.@.#.#.#.@.0 t d d a y +.a = = = = = = = = = e e @.+.@.#.#.+.e e a @.d d d #.#.#.@.@.#.#.#.t * i ",
"* = = d d a = = = = t = a d a +.@.@.#.#.#.#.@.@.@.#.#.#.@.@.@.@.d t a +.#.@.#.@.d a t d d a = = = e = = e +.e @.@.+.#.#.#.#.+.@.#.#.#.#.@.@.@.@.d t d @.#.y y t ",
"= = y +.@.+.e = a a d a d @.@.#.#.@.#.#.#.@.@.#.#.#.#.#.y @.@.@.e * * d #.d #.#.#.a t @.#.+.y t e +.+.= +.+.@.@.#.@.@.#.@.@.@.@.#.#.#.#.d d @.@.t * * y #.y d y ",
"y t a #.#.@.d a @.#.#.#.@.@.#.#.#.+.#.#.y @.#.y @.#.#.+.t @.#.#.a * = #.#.a d #.@.d t #.#.#.d a @.@.#.#.@.@.#.#.#.+.@.#.+.+.@.+.@.#.#.d a d #.#.a * t @.#.y t t ",
"= = t +.#.#.#.+.a a @.#.+.d #.@.+.@.#.#.@.#.#.@.@.#.#.#.@.#.#.#.@.d #.#.#.a d @.+.a y +.#.#.#.+.= +.@.#.+.d #.@.+.@.#.@.@.#.#.@.#.#.#.#.@.#.#.#.d d @.#.#.d y t ",
"* = y y #.#.#.@.t e d #.+.d #.d y #.+.y #.#.#.@.@.#.#.#.#.#.#.#.@.#.#.#.@.@.@.d d d d d @.#.#.+.= = +.#.+.d @.+.d @.@.+.@.#.#.@.d #.#.#.#.#.#.#.#.#.#.#.@.d a t ",
"= y #.#.#.#.+.@.#.+.d #.@.d +.#.@.+.t i d #.#.a t d @.@.#.#.#.+.d d @.d d @.#.#.#.d @.@.#.#.@.@.@.+.d @.@.+.@.@.@.@.e = d @.#.d a a @.#.#.#.#.d d d d d @.@.d y ",
"= y #.+.@.#.@.#.#.#.@.@.+.+.#.#.@.y t t a a d t t d d d y y +.#.@.d @.@.#.#.#.#.+.#.@.@.#.#.#.+.#.#.@.@.@.@.@.#.#.d e e e d d e a d d d a d @.@.#.d @.#.@.#.d y ",
"t y #.t d #.#.@.#.#.d a d #.#.#.#.a t t t t a a a d d d a d y #.#.#.#.#.#.#.#.#.@.#.#.a d #.#.@.#.#.@.d d d #.#.#.d y y t a d a d d d d a d y #.#.#.#.#.#.#.d y ",
"y y a = t d d d #.a e e = t @.#.#.#.@.d +.@.#.#.@.@.#.#.#.#.#.#.#.#.#.d y @.#.#.#.d a t y d d d @.e = = t a @.#.#.@.@.d d @.#.@.@.#.@.#.#.#.#.#.#.#.#.y a @.@.y ",
"t y @.y t t d d d a a d = = d #.#.#.@.d d d #.#.#.#.#.#.+.@.#.#.d d d d t a @.#.@.d d a a a d d +.e e +.t t d #.#.@.@.@.d d @.#.#.#.@.#.d @.#.#.d y @.y a a y y ",
"= y #.d d d d d a a d @.a = @.#.#.@.@.#.d d d #.#.#.#.#.a d +.#.y t d d d t y #.d #.#.d d d d d e e d @.a t d #.#.@.@.@.d d d #.#.#.#.@.d d @.@.y t d @.a t t y ",
"a d d #.#.#.d @.d d t * * a #.#.d @.#.#.#.#.#.d d #.@.#.#.#.#.#.#.#.#.#.#.d @.#.#.@.@.#.#.@.@.d @.= e = * e d @.d @.@.#.#.#.#.d d #.@.#.#.#.#.#.#.#.#.#.#.d y y ",
"t d #.#.#.#.@.#.#.@.d d d d #.#.#.a d #.#.@.d @.#.+.d +.#.+.#.#.#.@.d #.#.d #.#.#.@.@.@.#.#.@.@.#.@.e * $ : > 9 t a d #.#.@.@.@.#.+.d @.@.+.#.#.#.@.d #.#.@.y y ",
"t y #.#.@.d @.#.#.#.#.#.#.#.#.#.@.t d d a t t #.#.d d a = e d d d y d @.#.@.#.#.@.@.#.@.d @.d #.#.#.+.w 5 o o ; 9 i d d a t t #.#.d d a e a d d d t t @.#.d d y ",
"t y d d #.#.@.d @.@.#.#.#.#.#.d d d a a t d #.#.#.a a d d a a a t a d d @.@.d d #.#.d d #.#.@.d @.d 0 6 G L K G 6 $ & t t d @.#.#.a a d d a a a t t d @.@.@.d t ",
"t y @.#.#.+.d d d d d d @.#.@.d d d d d +.#.#.#.@.= e a d a e e i t d @.d @.d #.@.@.@.#.@.@.d d t < 8 F t.a.a.W G 6 : 9 d @.@.#.@.t i t y t = e * t @.d d @.y t ",
"= y @.@.+.= a d #.d a e d #.@.@.@.#.#.@.#.@.@.@.#.t t = = = = = t t @.@.d d d d a d d d t i t t 9   z 4.M.(.^.i.T j ; & @.#.#.#.@.a t = = t = = t t @.@.@.y y y ",
"t d @.@.y * * t #.#.#.#.#.+.+.@.#.#.#.#.#.#.+.#.#.#.a * = = a a y d @.#.y i > @ ; # # : @ @ @ @ - . h 4.^.).!.s.T b 5 9 @.#.@.#.#.@.a t * t y y d d y @.@.@.d y ",
"t d @.@.d y t y #.#.#.@.#.#.@.#.#.#.#.#.@.+.d #.#.#.+.a a d +.d y y y y i ; + z O O O o o o X o o . v ] d.m.1.;.K v 7 & d @.d @.#.#.d a a d +.#.@.@.@.@.@.@.y y ",
"= y #.#.#.@.#.#.#.+.d a +.#.#.#.#.d #.+.+.a = +.#.#.#.#.#.#.#.#.t t i & > z L ] _ L K K K K K K n x b Y 6.u.W J k X > t d d d d #.#.#.#.#.#.#.#.#.#.#.@.d d d t ",
"* t @.#.#.d +.#.@.+.d a @.#.#.@.@.d d d @.#.#.y d #.#.#.#.+.#.@.< ;     + ` a.M.d.i.6.;.4.4.6.4.] T U W 4.W M k - < i y @.#.#.d d #.#.#.#.@.#.#.#.@.d d @.d t & ",
"t y #.#.d y +.#.@.+.d a d @.@.+.d d d d @.@.#.y d #.#.#.#.d a 0 6 l h v L t.^._.(.^.m.d.p.a.d.d.i.<.-.-.W Y K l ; 9 i & d d d d d #.#.#.#.@.d #.#.@.d @.@.d t * ",
"t y @.#.#.y y @.#.d a a a a a d d #.#.@.@.y = #.#.d #.#.#.= , - G ] 4.4.t.^._.{.'._.(.^.m.m.m.m.n.s.u.>.W ] 2.C S > : : $ & t @.@.@.@.#.#.d d @.@.#.#.#.#.@.d y ",
"= +.@.@.+.+.+.+.+.+.+.= +.@.+.+.+.@.+.d +.@.@.@.+.y @.#.@., 5 G ] M._.(.(.(._._._._._.(.!.d.d.d.m.n.s.<.-.5.l.8._ z l z 4 2 t @.y y #.#.#.y d #.#.#.@.y a #.@.y ",
"= = +.+.+.+.#.@.+.@.#.= @.#.@.@.@.@.+.y +.@.#.+.y y +.y 0 6 k 4.^.|.OX X|._.(.!.(.(._.(.!.d.a.a.d.n.s.<.,.9.v.l.3.x v K G D q 0 y y @.#.#.#.d #.#.@.y y y #.d y ",
"= = +.y +.#.#.#.#.#.#.#.= +.#.@.@.@.@.@.@.+.d e d +.= $ ; k W m.'.OX#X#X X'.!.!.(._._.(.!.d.s.s.d.n.s.<.-.9.v.e.A h M ;.4.L O - & y d @.#.#.#.#.#.y d @.@.#.y * ",
"= = = = +.@.+.#.#.#.@.+.d d #.#.#.#.@.@.@.+.d e d +.* - g _ f.2X8XqXyX#X#X X'.(.!.(.(.^.M.s.s.s.d.n.s.<.:.9.x.l.3.C T ;.4.G o @ i @.d d y d d #.#.#.d @.@.#.t & ",
"= = = = = +.+.+.#.#.@.= d +.@.@.@.@.+.+.#.#.+.+.+.@.= - g y.2XpXsXsXaXuXyX#XXX X(.!.m.m.n.d.d.s.d.m.s.<.;.5.g.v.l.8.2.] J S 6 9 t #.d d a a d #.#.#.@.@.#.#.y & ",
"y = = = = = d @.@.#.@.@.d +.@.+.a d y d #.#.#.+.@.@.e 8 G ~.tXhXjXhXsXaXiXiXuXXX{.^.n.s.p.d.a.p.d.d.p.<.;.5.g.v.b.z.3.C 4 , a a d @.#.#.d #.#.d y y #.#.#.d d t ",
"y = y +.d +.d +.+.+.+.+.@.+.+.+.d +.+.+.@.@.@.#.e e H P f.2XpXhXhXsXsXiXiXaXiXqX X).d.1.u.d.p.n.s.p.1.>.:.,.0.g.8.' Z h   , @.#.#.@.#.#.@.#.#.d t t #.@.y y y a ",
"= y +.@.#.@.+.+.+.= +.@.@.+.+.@.#.@.#.#.e +.@.#.e 1 P Q.XXrXpXsXsXaXpXiXiXiXiXyX9X}.^.u.u.s.n.n.p.u.:.=.=.=.,.5.' ~ V h X : +.#.#.@.d @.@.d @.#.y y @.y y y y t ",
"% = @.+.@.#.@.@.@.= +.@.#.@.@.@.@.@.@.#.d +.@.#.9 S <. XrXaXaXuX8X2X<X2X6XrXiXuXwX5X{.N.d.d.m.n.i.W J G G J b ` } $.{ ~ + > d #.#.#.#.#.@.d d @.@.@.#.d y #.y t ",
"= y +.y y +.y y +.+.+.@.+.+.@.+.d +.+.d a d +.+.2 4 t. XpXaXsXrX<XJ.Z F.K.6XrXyXwX0X+X}.(.d.n.n.y.` Q V S z o / $X>X*X{ ; $ d d d a d a d d @.@.#.#.d t y #.y t ",
"y y t y +.y t = = = = +.+.+.e e e a e = = y d t , 4 t.{.8XiXpX2XK.| | | F.T.5XwX0X0XwX+X{.M.s.i.y.( ^ ^ ^ ^ ^ o.=XgX=X$.u # a a a t t t a @.#.#.@.d y t y d y y ",
"= y @.#.@.+.y t +.= d +.@.@.#.#.#.+.= = y +.#.#.0 1 ] {.8X8X2XJ.G...X.X.G.F.K.3X7XwXeX9X|.M.W ` [ $.%X*X*X=X:X:X=X&X$X' + < d @.@.d d d @.d d #.@.#.d y y @.y t ",
"= a d @.@.#.#.+.+.+.d +.#.#.#.#.@.#.+.+.#.#.#.@.< 5 4.].7X3XJ...A.P.I.I.L...Z.b.5XeXyX9X}.n.R ! ) %.:X,XdXgXgXfX*Xo./ V   i y #.@.#.#.#.#.d d d d a #.d y +.y t ",
"= t t a +.#.#.@.@.#.+.+.#.@.+.e +.#.#.#.@.@.+.e u l w.[.7XC.*.| S.I.;X-XI. .| k.4XeXyX5X}.m.P ! ) %.*X>X,X,XfX,X*Xo./ Q 5 < d #.#.#.#.#.d d d y t t @.#.#.y y y ",
"= = = d +.d +.y +.e e e e +.+.#.@.#.+.= e e q D V B *.U.7XC.Z.| S.-X-X-XL. .B k.4XeXyX9X}.M.;.R ` [ o.o.o.o.o.$X=X=X&X{ u $ y @.#.#.#.#.#.d y y i t d #.#.y t & ",
"* * t +.d t t t e = e = = = +.@.@.+.+.+.e 0 1 F A *.D.<X7XoXJ.Z.O.I.I.L.S. .H.U.7XwXwXOX_.n.>.=.` ~ ~ u ~ u V [ $XdX*Xo.u # t y d #.#.#.#.d @.y y a #.#.@.y & $ ",
"* t t y d t * = = = = e = = = d +.y @.#.#.= 1 J 9.b.<X6X9X7X3XJ.G... . .A.H.T.5X0X0XOX'.n.u.:.=.W L G n G k c ` } %.%./ 7 : i * a #.#.#.#.#.#.#.@.@.#.#.@.t i t ",
"* * y y d y t * * = t * a a a +.#.@.@.#.#.a 1 G 0.}.5X0X0XwX9X4XU.Z.| | Z.<X7XwX9X.X).i.;.;.-.=.=.Y Y Y U U E R ( / ~ Q + : y +.#.#.#.#.@.@.@.#.d t a @.#.@.y t ",
"* t y +.@.@.t t a d d a d +.@.#.#.@.@.#.#.e 2 F i..X0XeX0XyXyX0X1Xb.D.H.T.7XeXqX X/.i.-.E E W W =.;.;.:.:.:.:.W _ ! V v X : y #.#.#.#.#.d d @.@.t t t d #.d d y ",
"y t y #.#.#.d d @.#.#.#.@.@.#.#.#.@.#.#.+.= 2 G 0.].+X0X0XwXwX0X7X4X3X4X7XrX8X.XM.6.-.W =.E E W =.=.-.=.=.=.E ,.9.8.3.m X < @.y @.#.#.d t d #.#.t i a d #.t t t ",
"t * y @.#.#.#.d t a #.#.+.d #.@.d #.#.@.@.e : G 2.N.oX7X0X9X+X+X@X7X#X@XOX+X.X^.4.Y U E -.W =.-.-.-.E E E E -.q.B.U.c.A X $ d @.@.#.#.#.@.#.#.#.y d #.#.#.d t t ",
"* t y y @.#.#.#.t e a #.+.d #.d y #.d d #.a < z A g.C.oX@X}.].)..XOXOX|.(./.n.0.Y I U Y W =.-.W W -.W E E ;.5.v.R.W.H.Z X $ #.d @.@.#.#.#.#.#.#.#.#.#.#.@.d d t ",
"t y +.@.#.#.@.@.#.+.a #.#.d +.#.#.#.t = d a 9 O b 3.z.C.[.M.>.:.N.}.].i.U U E =.E W -.=.W W W W W E E W ;.5.h.V.R.E.H.Z X $ d a t d @.#.#.#.#.y y d @.d d @.d y ",
"* y #.+.@.#.#.@.#.#.#.+.+.+.#.#.#.a = = a = < ; z C 2.7.5.K M K N.}.].0.M I U Y -.-.-.-.E E E E E E E -.9.h.x.v.c.k.' ! ; , i i t d d d y y @.@.@.d @.@.#.#.d y ",
"t d #.a d #.#.#.#.#.+.d d #.#.#.#.y t d y t i > 7 z b m m g g M j.{.].u.U U U =.W W =.W W W W E E =.:.9.j.v.b.z.3.C z 7 2 q < 0 s d d a a d @.#.#.#.#.#.@.@.+.t ",
"t y a = a d a d @.a = e = a +.#.#.@.d d d d @.s f O g x m x x M i.N.N.u.E U E E E E E W ,.6.5.5.5.5.q.j.b.U.R.J.&.g X 1 w w r e d @.#.#.#.#.#.#.#.#.@.d y #.+.y ",
"t y d a a a a d a a a d = = d #.#.#.@.@.d d d s 8 O c C 3.3.] Y 6.u.u.;.E E E E E E E -.9.q.x.g.g.h.j.z.b.U.W.Y.*.g X 2 q q r s @.#.#.@.@.@.@.@.d d @.d t y y y ",
"* d #.@.d d d d a a +.@.a e d #.#.@.#.#.d y d p 8 + n A 8.g.0.=.E =.W -.;.;.5.5.5.-.,.0.h.v.b.U.b.c.l.g.l.b.R.H.w.z 4 2 q q q a d #.#.@.y d @.#.y t d d d t t y ",
"a d @.@.#.@.@.d +.a t = = t #.#.d d #.#.#.@.a p f 6 S V _ 2.5.>.;.E =.;.6.9.j.x.j.h.h.x.v.V.R.W.Y.k.&.C A &.e.*.' 7 8 q q r w 0 a @.#.#.#.#.#.#.#.#.#.#.#.y y y ",
"y d #.#.#.#.@.#.@.@.d d d +.#.#.@.d d #.@.d a p f f 8 7 v M Y ;.E E U Y ,.q.z.z.z.z.l.l.j.v.R.E.Y.&.n g z v V z u 8 < p r q q s d @.d @.@.@.@.@.@.@.@.#.#.+.+.y ",
"t @.#.@.+.@.@.#.#.#.#.#.#.#.#.#.@.t a d d a i a s i f ; 5 j b Y I K J I N 2.3.8.8.3.8.3.2.3.k.k.r.! 7   4 X   5 8 2 q q 3 < 9 d @.d d a a a d d d y y @.#.+.y y ",
"t y y d #.#.+.+.d #.#.#.#.#.#.d d d d a t a d @.a < 3 8 8 4 k c c c c b b m m m m m m m m m C C V Q 8 < 2 8 1 2 2 3 3 8 < 0 d #.@.a a d d a a a t a d d @.@.y = ",
"t y @.@.@.d d d d d d a #.#.#.d d d d d d @.#.#.d 9 < < q 6 l l l l l l l l j l l o l l j o j j O 8 q q w p p q 3 3 3 q i d @.#.@.t * a d y t = = t +.+.y +.y = ",
"= y #.#.d t d d @.d d a d #.@.d #.#.@.@.#.#.#.#.@.t & 9 2 8 7 7 5 5 6 6 6 6 ; ; 5 6 6 6 ; 5 - 5 1 2 < < q p p r f p p i d @.#.#.@.d a t 0 = = = = y #.+.+.+.y t ",
"t y @.d a = * d #.#.#.#.#.@.d @.#.#.#.#.#.#.+.#.#.d e 9 < < q q 3 3 3 3 f f f f p 3 f 3 2 1 : 2 q p q r p q q q p p s d #.#.@.@.@.@.a = = = a d y y y +.#.#.y y ",
"t y #.@.d a t d #.#.@.#.@.@.@.#.#.#.#.#.@.+.a #.#.#.d a 0 0 s e i p p f p p i p p p p p q q 3 q p p f f q q 0 a s s d #.#.d d @.#.#.d d y d +.#.@.#.@.@.+.#.y y ",
"= d @.#.#.@.@.@.#.+.d a +.#.#.#.#.@.@.@.+.d a +.@.#.#.@.+.#.#.+.s p f f q q q q p q p f p p p p f 3 3 3 q p d @.@.d @.@.@.d y @.#.#.@.#.@.#.#.#.#.#.#.+.y +.y = ",
"= y @.#.#.d @.#.+.@.d a +.#.#.#.d d d d #.#.#.a +.#.#.#.@.@.#.@.d i q 0 0 q 9 9 9 q i s i < i i i i p 9 0 s #.@.@.+.y y @.@.@.d +.#.#.#.#.@.#.#.#.@.+.+.@.y = * ",
"= = #.@.#.y @.#.#.+.d t d #.#.d d d d d #.#.+.a +.@.#.#.#.+.+.@.d s a d d i a a y a d d a * i d a a i & a d d @.d d d d #.@.@.y +.#.#.#.@.@.@.@.@.+.y #.#.y = * ",
"y +.#.@.+.y y +.#.d t t y a y y d #.#.#.d a = #.@.+.#.#.#.d d @.@.#.#.#.@.@.#.#.@.@.@.#.@.d y d #.d t t a y a a y #.#.@.@.t t @.@.+.#.#.#.d d @.#.#.#.#.#.#.+.y ",
"= y @.@.+.d +.d @.y d t +.#.y y +.+.+.y +.@.@.@.@.e @.#.#.+.d @.#.@.@.y y #.#.#.@.#.@.#.@.y +.d @.d d a +.#.d y @.@.d d @.@.@.@.+.d @.#.#.+.+.@.#.#.@.+.+.#.+.y ",
"= t +.+.+.+.#.@.d #.#.d #.@.@.#.#.#.+.y +.@.#.+.d d @.@.#.@.@.@.#.#.+.= y #.#.@.d d d d d @.#.#.d #.@.d @.@.#.@.@.#.d t d #.@.d a d @.@.#.@.+.@.#.@.+.= = #.+.= ",
"= t y y @.#.#.@.#.@.@.@.d a #.@.+.@.@.+.+.+.d = e +.+.@.#.@.@.@.#.+.+.y #.@.#.d @.d d d @.#.@.#.#.#.#.#.a d @.#.@.#.@.@.@.d d t y +.+.#.#.@.@.@.@.+.+.+.@.#.y * ",
"= = y y a #.#.#.#.@.#.#.y a #.#.#.@.@.#.@.@.+.= +.@.d d +.d +.#.#.@.+.+.#.@.y t d d t t d #.@.#.#.@.#.@.d d #.#.#.#.@.@.@.@.d t d @.d y +.d +.@.#.@.+.+.#.#.= % ",
"= = = = y y d +.#.#.@.y y #.#.#.@.@.+.+.#.#.@.d @.@.+.d e d +.@.@.#.#.#.@.@.d d @.y t t a d d +.#.#.+.y y @.#.#.@.#.d @.#.#.d d +.#.+.a a d +.#.@.#.@.#.#.#.= * ",
"y t = t = y d @.@.@.+.+.+.y #.d d d y d #.#.@.@.@.@.#.@.@.@.@.+.t y #.@.#.+.#.#.#.d t t a t d @.@.#.#.+.y @.@.d a t d d #.#.#.@.+.#.#.#.d #.@.d y y @.#.#.+.+.= ",
"* * = t y = y y y y t y y y y y a y t a = +.+.+.d d @.+.+.@.+.= * = d y y = d d d a * t t a t y t y y y y t y t t t y a d d d d a d +.+.d d +.d = = y y = = = = ",
"% % = = t y = * = * * = = = * t y y a y * * = d = = = = = = = e * & = * % * * t t * * t t a t * * & * * t t * t d t y a * * t y y = = = = = t a * & t * % % % % "
};
