/* XPM */
static char *Group_9_5__resized[] = {
/* columns rows colors chars-per-pixel */
"80 80 232 2 ",
"   c #241B3B",
".  c #29392B",
"X  c #323D2A",
"o  c #2C283D",
"O  c #2C3633",
"+  c #2C3B35",
"@  c #2E353D",
"#  c #313B3A",
"$  c #433A3B",
"%  c #2D471E",
"&  c #2F511A",
"*  c #32551D",
"=  c #355B1D",
"-  c #395F1D",
";  c #37631B",
":  c #39651D",
">  c #3D6D1D",
",  c #3F711F",
"<  c #2D4529",
"1  c #34472A",
"2  c #324C2D",
"3  c #2E5029",
"4  c #335522",
"5  c #365B24",
"6  c #395E24",
"7  c #34532C",
"8  c #365A2A",
"9  c #3A5D2C",
"0  c #2E4535",
"q  c #2E443A",
"w  c #344D33",
"e  c #33493A",
"r  c #375334",
"t  c #376026",
"y  c #3A6424",
"u  c #3E6C24",
"i  c #3D642C",
"p  c #3F692C",
"a  c #3F7220",
"s  c #3E6332",
"d  c #3E6830",
"f  c #41751F",
"g  c #43791F",
"h  c #4E463D",
"j  c #406F26",
"k  c #416B2D",
"l  c #417620",
"z  c #457C21",
"x  c #43712A",
"c  c #406731",
"v  c #2B2946",
"b  c #2E3749",
"n  c #303542",
"m  c #333948",
"M  c #302F52",
"N  c #2E3354",
"B  c #333254",
"V  c #353757",
"C  c #3A315C",
"Z  c #363C67",
"A  c #443B54",
"S  c #463A66",
"D  c #453C73",
"F  c #523E7B",
"G  c #344C47",
"H  c #384648",
"J  c #374458",
"K  c #3D5853",
"L  c #3E6246",
"P  c #2C4268",
"I  c #38456A",
"U  c #3E546D",
"Y  c #2F4771",
"T  c #374673",
"R  c #344B73",
"E  c #3C4B74",
"W  c #354E7A",
"Q  c #2F5376",
"!  c #365274",
"~  c #36537C",
"^  c #39537E",
"/  c #46454D",
"(  c #484958",
")  c #555352",
"_  c #655B52",
"`  c #6E665C",
"'  c #464968",
"]  c #564E68",
"[  c #47586B",
"{  c #454479",
"}  c #59417C",
"|  c #44587B",
" . c #4C6573",
".. c #586A78",
"X. c #6C6B69",
"o. c #7A746A",
"O. c #A00F5E",
"+. c #901370",
"@. c #A8136C",
"#. c #922677",
"$. c #AA236A",
"%. c #857E70",
"&. c #CD507B",
"*. c #478022",
"=. c #498423",
"-. c #4C8A24",
";. c #8D8779",
":. c #948977",
">. c #5E3E80",
",. c #334F83",
"<. c #365483",
"1. c #3A5481",
"2. c #3B5A85",
"3. c #355688",
"4. c #3E5C89",
"5. c #3E6391",
"6. c #58468C",
"7. c #50488D",
"8. c #43558B",
"9. c #445989",
"0. c #4C5593",
"q. c #4E5A99",
"w. c #545699",
"e. c #6A458A",
"r. c #684B9B",
"t. c #764A9A",
"y. c #44638D",
"u. c #48648A",
"i. c #5C738C",
"p. c #446592",
"a. c #466995",
"s. c #4B6993",
"d. c #446C9B",
"f. c #4A6D9B",
"g. c #46709C",
"h. c #4A719D",
"j. c #5C5AA5",
"k. c #784DA3",
"l. c #6255A5",
"z. c #6955AB",
"x. c #635AAB",
"c. c #6C5DB3",
"v. c #765BB7",
"b. c #486FA1",
"n. c #4B75A2",
"m. c #4B79A7",
"M. c #4D79A6",
"N. c #5875A9",
"B. c #517BAA",
"V. c #5B7AB2",
"C. c #7762B7",
"Z. c #7B5FC1",
"A. c #7C69C5",
"S. c #8A338E",
"D. c #B12B8F",
"F. c #CA338A",
"G. c #974894",
"H. c #B25984",
"J. c #8A57AF",
"K. c #8C59B8",
"L. c #886EB2",
"P. c #8967B8",
"I. c #E36290",
"U. c #875DC2",
"Y. c #975BC2",
"T. c #8862C5",
"R. c #9362CD",
"E. c #867AC8",
"W. c #9967D6",
"Q. c #A062CE",
"!. c #A768D9",
"~. c #5483A8",
"^. c #5889B8",
"/. c #5C94BD",
"(. c #688CB2",
"). c #5F96C1",
"_. c #658CC8",
"`. c #6597CA",
"'. c #6998D3",
"]. c #6AA6CB",
"[. c #71ABD7",
"{. c #72A5DA",
"}. c #73A9E1",
"|. c #7CB5EB",
" X c #7AB8E8",
".X c #7FBCF4",
"XX c #7CC0D6",
"oX c #7AC3EE",
"OX c #969083",
"+X c #A59C88",
"@X c #ABA599",
"#X c #B3AB98",
"$X c #8B8BB8",
"%X c #B9B3A4",
"&X c #F5899D",
"*X c #FB8FA9",
"=X c #C2BDAD",
"-X c #FEA7B2",
";X c #D1CBB8",
":X c #888CCE",
">X c #90B5C9",
",X c #8CA3DE",
"<X c #8AAAE7",
"1X c #88B6EA",
"2X c #84B6F2",
"3X c #82BCF3",
"4X c #92C4D8",
"5X c #86CBE7",
"6X c #96CFEE",
"7X c #88C7F6",
"8X c #8BCCFC",
"9X c #8DD4FD",
"0X c #8CDBFD",
"qX c #94D9FA",
"wX c #A8D2E4",
"eX c #8DE3FF",
"rX c #97E6FB",
"tX c #92E3FE",
"yX c #9CECFD",
"uX c #96F4FD",
"iX c #9BF3FE",
"pX c #A2E9F9",
"aX c #B8E8F1",
"sX c #A4F6FE",
"dX c #B7F9FD",
"fX c #DAD5C4",
"gX c #E1DCC9",
"hX c #E6E3D4",
"jX c #CAECF2",
"kX c #C7FAFC",
"lX c #D5FDFE",
"zX c #F0EDE0",
/* pixels */
"& ; f > f f f f f > > f g g f f , f g f > > f l z f g f a > > f , f f f , l g > : > f > > f , f f > > f g g g f , g g , > > , g g f g y 0 m G u , , z , , g , = ",
": > f f l l > > f , f l g f f f f l f , > , f g f , , , > l l z z l f > > z *.z l l f f f f , , , , f g l l f , , f , , , , f g f f j 5 0 H L a z , , , , g , > ",
"g g f g *.z f f f f g *.z l z l l l l > f z z l a a , > l =.-.-.-.*.f f f z =.-.-.*.l l *.g f , f f g *.z z l l l l f , f l z l g f f j 3 r s -.-.*., , , *.*.g ",
"f g =.-.=.z f l g f f *.=.-.-.-.=.*.l a l =.-.=.*.*.*.=.=.z *.-.=.=.*.g f *.=.*.*.=.=.-.=.*.g f g f f *.=.-.-.-.=.=.l , z =.-.=.z z g z x x p -.-.=.*.z , =.g , ",
"> g z =.=.=.=.z *.z z *.-.-.-.=.-.=.*.*.-.-.-.-.-.-.-.-.=.*.z *.z l -.*.z *.*.=.*.*.*.*.-.-.*.*.*.g z =.-.-.-.=.=.=.=.*.-.-.-.-.=.-.-.-.-.g z z z *.=.=.*.*.g , ",
"f f f g =.-.-.-.=.=.=.*.-.-.z z z -.-.-.-.-.-.-.-.-.-.=.*.z z l l l =.-.=.z *.-.-.z f f *.-.-.-.-.=.=.=.-.-.*.z *.-.-.-.-.-.-.-.-.-.-.=.=.z z l , , =.-.=.g g , ",
"> > f g g z z z z l l l l z =.=.-.=.*.l l z z *.=.-.-.-.=.g g l > > *.-.-.z l l *.l l l z z z z g l l l l z =.=.-.=.*.l z z *.=.-.-.-.-.=.g l z > , *.=.-.*., ; ",
"> f f g z g g f l , , l , f z =.-.*.z z l z g f z -.-.-.-.*.*.*.l l =.-.=.l f g z l f *.z f f f f , , , , , z *.=.*.z z l z l l z =.-.-.-.=.z =., *.=.-.=., > ; ",
"> , g *.z , , , , , , , , , , l =.*.=.-.-.*.g f g =.-.-.-.-.-.-.=.=.-.-.=.u f z z l g *.z f , , , , , , a a a z =.z =.-.-.*., , l -.-.-.-.-.-.-.=.-.-.-.=.f : f ",
"> , g g z z , , , , , , l z l *.=.*.=.-.-.=.z =.-.-.-.-.=.=.=.=.z l l =.=.=.=.-.z l g z z l , > , a , , a z a *.=.=.-.-.-.=.*.=.-.-.-.-.-.z =.=.l l l *.-.*.g f ",
"> , l =.=.*.a a l l z z z =.=.-.-.=.-.-.-.=.=.-.-.-.-.=.g *.=.=.l > f z -.=.-.-.=.l f *.-.*.l f a *.z , *.*.=.-.-.=.=.-.-.=.=.-.-.-.-.-.z z =.-.l > > z =.*.l g ",
"g , , -.-.-.z l *.-.-.-.=.=.-.-.-.*.-.-.g *.-.*.=.-.-.*.g =.-.-.l > f *.-.l l -.-.z f -.-.-.z l =.-.-.-.=.=.-.-.-.*.-.-.z *.=.*.=.-.-.z f z -.-.l > f =.-.l f f ",
", , f *.-.-.-.*.a z =.-.*.z -.=.g -.-.-.=.-.-.=.=.-.-.-.=.-.-.-.=.l =.-.-.l l =.*.z g *.-.-.-.*., z =.-.*.z -.*.*.=.-.-.=.-.-.=.-.-.-.-.=.-.-.-.=.z =.-.-.z g f ",
"> , g g =.-.-.=.f a z -.*.z =.*.g =.=.g -.-.-.=.=.=.-.-.-.-.-.-.-.-.-.-.=.=.=.=.z l l *.=.-.-.=., , *.-.*.z -.z z =.*.z =.-.-.=.=.-.-.-.-.-.-.-.=.-.-.-.=.z g f ",
"f g =.-.-.-.=.=.-.*.z -.*.*.*.-.=.=.f j z -.-.l g z =.=.-.-.-.*.l z *.z z =.-.-.-.*.=.=.-.-.=.=.-.*.*.=.*.*.*.-.-.=.a , z -.-.z l l =.-.-.-.-.z z l z z =.=.*.l ",
", g -.=.-.-.=.=.-.-.=.*.=.=.=.-.=.g f f l l z f f z z z g g =.=.=.*.=.-.-.-.-.-.*.=.-.*.=.-.-.=.-.-.=.*.=.=.=.-.-.g , , a z z a l l z z l z =.=.-.=.=.-.=.-.*.g ",
", g =.l z -.=.=.-.-.*.l z =.-.-.-.l l l g l l l l z z l l z =.-.-.-.-.-.-.-.-.-.=.=.-.l z -.=.-.=.-.=.z *.=.-.-.-.z a a a , *.a l *.z l l z *.-.-.-.-.-.-.-.z g ",
"g g l f f *.z *.-.l > l f l *.-.-.-.*.z *.*.-.-.-.-.-.-.-.-.-.-.-.-.-.z f =.-.-.=.*.l f l z l *.=.a , , , a *.-.-.=.*.*.*.*.-.-.=.-.-.-.-.-.-.-.-.-.-.g l =.z g ",
"f g *.l g l l z z l l l f > *.-.-.-.=.*.z z =.-.-.-.-.=.=.=.-.=.z z =.z f g =.-.=.=.z l l l z z *.a , z , > > u y a a *., *.=.-.-.-.-.=.*.=.-.-.*.g *.g f l g f ",
", g -.*.z l z z l l *.*.l , *.-.-.*.=.-.z z *.-.-.-.-.=.l z =.=.g f z z l f g -.=.=.-.=.z z z l a a z =., ; 8 r e r p *.*.*.=.=.-.-.-.=.l *.*.=.g f *.*.l f f g ",
"l z *.-.-.-.=.*.*.l l f > l -.-.=.=.=.-.-.-.-.*.*.=.=.-.-.-.-.-.-.-.-.-.-.z =.-.-.=.=.-.-.-.=.z =.z , , > 8 ( | 9.! L u =.-.-.=.*.=.=.-.-.-.-.-.-.-.-.-.-.z z g ",
"g z =.-.-.=.=.-.-.=.z z z z -.-.*.l *.-.-.*.*.=.=.=.*.*.=.=.=.-.=.=.=.-.-.=.-.-.=.=.=.-.-.-.-.-.-.=., y 5 K i.].[.~. .L u a *.=.=.=.*.*.=.=.=.=.=.=.=.-.-.=.g g ",
"f g -.=.*.=.=.-.-.-.-.-.-.-.-.-.=.g l *.l l g -.-.z *.l a l z z l g g z -.g z =.z z =.z z z z z =.-.z = e ..>XaXaX4X(. .w 4 a -.-.z *.l l l z z g l g =.-.=.z g ",
"g g z *.-.-.*.z *.=.-.-.-.-.-.z z l l g l l *.-.=.l l z z l l l l l z =.=.-.g f j - - : : : 6 - , *., & H i.%XaXdXyX XM.J 3 *.-.=.l l z z l l l f f z *.=.z g f ",
"f g z =.=.*.*.z *.*.z l =.-.-.z z =.z l l =.-.-.=.f f l l l f , j f =.=.g =.g 6 2 < + 1 1 0 + 1 4 l > % m | (.4XpXrX1XN.J 7 *.-.=., l l l l l , > f *.*.*.*.g , ",
"f g -.-.z f l z =.z l l z -.=.=.=.-.-.=.-.-.=.-.=.l f f , , , a f f z z l g j 7 m N B M M M B m # 5 ; < m I u.^.[.1X].h.G 6 =.-.=.l , , , l , , , f =.=.*.*.g f ",
"g z =.z g > , z -.-.-.=.=.=.*.=.-.-.-.-.-.-.=.=.-.=.l > , , f z g g f = % % 1 H U 9.^ ~ I E 8.E J w < q ' ^ 2.d.V.N.u.K c l =.=.=.=.l f > , l g z z *.*.=.=.g g ",
"f z =.*.z g f g -.-.-.=.-.=.*.-.-.=.-.-.-.*.*.=.-.-.*.l g z *.*.g l 4 # @ O m U h.~.m.5.a.s.f.a.! J H K | a.3.~ E U / p z z z =.-.-.*.l l *.=.=.=.=.*.*.*.-.*.f ",
"f l -.-.-.-.-.=.-.=.l l =.-.-.-.-.=.=.=.=.z g *.=.-.-.-.-.-.-.-.z y e J E Z | f.^./.^.m.m.m.~.M.a.E E 9.a.a.2.Z o . 6 l z z l *.-.-.=.-.-.-.-.-.-.-.-.*.z *.g , ",
"f g *.-.=.z =.-.=.=.z l *.-.-.-.*.*.l z =.-.=.g z -.-.-.-.-.-.z 4 < J 2.f.a.f.M.^.^.^.m.~.n.n.h.f.a.9.y.9.1.T b . = > g -.-.=.l z -.-.-.-.-.-.-.-.=.z *.*.z , > ",
"> g *.-.*.g *.=.=.*.z l *.-.=.*.z *.z z -.=.=.g *.-.-.-.=.*.l i r ' i.(.]./.`./.).).^.~.m.h.g.g.h.h.h.a.1.T C # & l z z *.l l l z =.-.-.=.*.=.-.=.=.*.=.-.z , , ",
"f z -.-.=.g g =.-.z l l l l f l z =.-.-.*.g f =.-.z =.-.-.> 8 G ..(.4XwX6X5X5XoXXX]./.~.n.g.g.g.n.m.n.d.<.I B O * l -.=.l * < u z *.-.-.-.g g =.=.-.-.-.-.=.z g ",
", g =.=.*.*.*.=.*.=.*., z =.z *.*.=.*.*.*.*.=.=.*.z =.-.z 8 K i.>XjXjXlXdXpXrXrXqX5X].~.n.n.d.g.h.M.n.a.1.T Z @ 4 l z g 5 # n r y l *.-.-.z z =.-.-.=.z z -.*.g ",
", , *.=.*.=.=.=.*.=.=.a *.-.-.=.=.=.*.a *.-.-.=.l a z a p K i.>XjXlXlXkXdXdXsXsXsXqX X/.B.h.f.d.n.n.n.5.<.W Y b 1 - - 4 e J E H w : l -.-.=.*.-.-.=.*.f , -.*., ",
", , *.g *.-.-.-.-.-.-.-.z l -.=.=.-.=.=.=.*.a a z *.a 8 G i.>XjXlXlXkXdXsXpXsXiXpXyX7X{.^.n.d.d.h.n.b.5.2.~ ~ I H 1 X O J ^ 9.| H < j g -.-.=.-.=.*.z *.=.-.l > ",
", , , , *.=.=.=.-.-.=.=.z z -.-.-.-.=.=.=.=.*.a z *.: 3 N (.wXjXlXdXdXiXuXiXyXrXtXtXqX X`.n.d.d.h.a.4.! I P P [ X.%.` ) J 1.9.E m 1 - g z z z -.-.=.*.=.-.-.g ; ",
", , , , , *.*.*.-.-.=., z *.=.-.=.=.*.*.-.-.*.*.=.=.> 0 Z (.6XkXdXdXsXyXuXiXyXqX9X9X9X2X`.m.g.g.a. .) / H # m X.@X=X@XX.( I ' J w y f g l l z -.-.-.*.=.-.-.g : ",
"g , , g , , *.*.=.=.=.=.z *.-.z a z l z -.-.=.*.=.*.p r U (.5XsXpX6X6X6XqXrXrXqX8X8X8X|.`.m.5.a... ._ _ _ _ h ;.=XhX=X%.$ o n 7 j z -.=.z =.-.z g g -.-.-.*.z f ",
"g g g *.*.z , *.*.*.=.=.*.*.*.*.*.z *.=.=.=.=.=.a p L  .~.XXrXpX4X:XJ.P.:X6XtXeX8X8X8X|.`.h.2.[ X.;.:.+X+X#X#X=X%X@X%._ O . 4 u =.-.-.=.-.-.-.z f f =.=.g g g l ",
", , *.=.-.-.=.*.*., *.*.=.=.*.=.-.=.-.-.*.a =.-.a 3  .~.4XrXpX6X$XS.} #.L.,X8X0X8X8X9X X`.h.U ) ` :.;X;XgXhXzX;X@Xo.) A O 3 u =.-.z =.=.=.z -.-.g g =.g f g g f ",
"; , =.=.*.=.=.=.=.*.z =.=.=.=.=.=.=.-.=.z z =.-.y G a.[.rXrXwX$XG.+.@.@.G.L.:X2X7X9X9X|.).n.E ( ` :.#X;X;XfXgX;X#X%.` / < 4 z -.-.=.-.-.z z z z =.=.-.z =.-.g f ",
"> f z g *.*.g g *.*.z =.=.=.=.*.l *.*.z g z *.*.5 b a.{.qX1X:XS.D.F.&.I.&.H.J.E.3X9X9X|.`.n.y. .X.%.%.:.:.:.:.+X%X%XOX` 1 - z =.g g g z z =.=.-.-.=.z g g =.g f ",
"g g g g *.z f , , , , *.z z z a a l a , , z z , = q a.'.3X:XS.+.F.I.&X&X&.$.#.v.1X0X0X|.`.M.d.d.u.[ / h ) h $ o.@X;X%Xo.h * l l g f j f g z -.-.-.z g f f g g g ",
", g =.-.=.*.f f *., , *.=.=.-.=.-.*.l , z =.=.=.y q y.'.3XA.S.O.F.I.-X*XI.O.+.t.<XtXtX7X`.m.d.5.2.' ( H J m m [ L.:.:._ 1 5 =.-.z =.g z z =.=.=.=.=.z g g =.g f ",
", g *.=.=.-.=.*.=.*.z =.-.-.-.=.-.=.=.=.=.-.-.-.y G u.'..XA.G.$.&.&X&XI.F.$.S.C.2X0X0X X`.h.p.<.^ ! E R R R Y [ ] _ _ / X t -.-.=.-.-.-.-.z z z z l -.z =.g g f ",
", f f l *.-.-.-.=.=.=.*.-.=.*.z *.=.-.-.-.-.-.-.y e u.'..X2XE.G.H.&.&.F.D.D.J.,X7X8XoX'.~.a.1.^ ~ <.3.<.3.3.3.1.] S A B . 5 =.-.-.-.-.-.=.z z g f f =.-.=.g g g ",
"> , l l z z z z z a z a a *.=.=.=.=.*., l z *.*.y q y._..X9X1X:XG.#.O.+.G.T.,X7X8X.X'.M.p.2.1.W ~ <.<.<.3.<.<.9.w.6.6.C O 4 l =.-.-.-.-.-.z g g f j z -.-.g f ; ",
"> > f *.z f l f a , , a , a z =.=.=.*.l z z g , 5 G u._.3XeXtX1X:XG.#.S.P.<X9X0X X`.~.4.^ 1.^ ~ 1.1.1.1.~ ~ ~ 9.j.x.6.Z . * l l z -.-.-.-.z z g f z -.-.=.f ; - ",
"> > f g z f f , , , f , , , , l =.g =.-.=.=.g f 4 e 9.'.3XtXyX8X<XE.A.E.,X9X0X|.^.f.4.1.W ^ ^ ~ 1.1.1.1.^ ~ Q 8.j.j.7.S + * a > l -.-.-.-.-.-.-.-.z -.-.=.f j j ",
"> f g g z l f > > f f f l l l *.=.=.-.-.-.=.g =.y q 9._..X8X8XoX.X3X3X|.3X7X X^.p.W W W ~ ~ 1.1.1.^ 1.~ 1.1.~ q.x.v.r.S + * l =.-.-.-.-.=.=.=.=.z l z =.-.=.g f ",
"f f g *.=.*.g f l l z l *.*.=.-.-.=.-.-.-.=.=.-.: + | (.<X|.}.'. XoXoX}.'.{.^.f.W Y R ~ 1.1.1.^ 1.1.1.~ 1.1.8.x.T.R.k.D . * *.-.-.-.-.-.z z =.=.f f j g -.z z g ",
"f f g -.-.-.z l *.-.-.-.=.=.-.-.-.=.-.-.g =.=.g - X { V.{.'.^.n._.{.`.M.p.a.p.4.^ W W 1.1.1.1.^ 1.1.~ ~ ,.4.w.Z.W.!.J.D O = *.z =.-.-.z g z -.-.f j g =.=.g f f ",
"> f g *.-.-.-.*.l l =.-.*.z -.*.g -.-.-.=.-.-.=.- . J 0.N.s.^ ^ V.'._.p.R Y W <.1.1.1.1.^ 1.1.^ ~ ~ ~ Q ~ 8.j.v.Y.J.e.' 2 y =.=.-.-.-.-.=.-.-.-.g g -.-.-.g f f ",
": f z g =.-.-.=.l a z -.*.z =.*.g =.=.g -.-.-.g 6 X B D { V M Z V.'._.4.P P R W ^ 1.1.1.1.1.1.<.1.1.~ Q ~ 0.j.z.t.} S H t z -.=.z =.-.-.-.-.-.-.=.-.-.-.-.z g g ",
"f g g =.-.-.=.=.-.*.z -.*.*.=.-.=.=.f j g -.=.f 5 < m v v   v I b._.V.5.W W W ~ 1.1.1.1.^ ~ ^ <.1.1.1.1.4.w.C.z.} M O w p z =.a f z =.-.-.-.-.z g g z z z =.z g ",
"f g -.=.=.-.-.=.-.-.=.*.=.=.=.-.=.g f f g g f - 5 2 # v o   M T s.N.n.4.W 1.1.1.1.1.1.~ ~ ~ Q ~ 1.0.w.0.w.c.W.K.>.v . 2 y a u a f l z z g z =.=.=.=.=.-.-.-.z g ",
"f *.=.l z -.=.=.=.-.=.l *.=.=.-.-.g f g l f j c 6 c w # v B T 1.8.4.4.1.^ 1.^ 1.~ ~ <.~ 1.~ ~ ~ 4.j.x.x.v.T.!.K.e.v . w t y t u l z z z l z =.-.-.-.-.-.-.-.z g ",
"f l l , l *.z *.=.l a a , l =.-.-.-.z z z z l k k k c 0 v Z 0.q.8.W ! ~ 1.1.1.~ ~ ~ ~ ^ 8.0.8.8.w.x.Z.R.R.Q.Q.t.] H 2 9 s s p x z -.=.-.-.-.-.-.-.-.-.*.f =.*.g ",
"f g *.l l l l z z l l z , , *.-.-.-.-.z z l l k k k 9 e M D w.x.q.1.W ~ 1.1.^ ~ <.~ W 3.0.j.l.j.j.x.Z.W.!.K.t.S m r i i 9 s i l =.-.-.=.z =.-.=.z l *.l f l g g ",
", z -.=.z l z l l l z =.l , *.-.-.=.-.-.z g j k k k c w n S 6.w.0.1.~ <.1.1.1.4.8.8.8.w.j.v.Z.U.v.z.z.K.Y.G.S # 2 y k k 9 9 p x z -.-.=.z z =.=.g f *.*.l f f g ",
"g z *.-.-.-.=.=.*.l , f > l -.=.z =.-.-.-.z l c c c c 7 r / S 7.8.1.2.2.2.<.4.q.j.j.j.x.c.Z.W.!.Y.r.>.F >.F / 7 5 i k k c c c j l =.-.-.-.-.-.-.-.-.-.-.-.z z g ",
"f z =.-.=.-.=.-.-.=.z z z *.-.-.z z z -.-.z l k c c 6 c 9 e m V I ~ 1.1.~ ~ 8.0.l.z.z.l.x.z.Y.Q.K.F V v m H 7 i k 9 i c c i i j z =.z =.=.=.-.=.-.=.=.-.-.*.g g ",
"g g -.=.*.*.=.-.-.-.-.-.-.-.-.-.z z z z z f f l j c c 6 6 8 < @ N Z T Z I P Z { 6.6.6.6.7.7.t.t.e.( # . . 7 i x j 9 9 9 9 6 y z -.z z l l l z z l g g =.-.*.g g ",
"g g g *.-.-.*.z *.=.-.-.-.-.-.*.z z l f g l z g j 5 7 c i t 8 w m M M M M M M B C C C C M C S S A G 8 5 9 i k i i 9 9 9 6 j z -.=.l l l z l l l l l z z =.*.g , ",
"f g *.=.=.*.z z z *.z l -.-.-.l z =.l l z *.-.-.z y 9 9 9 9 9 7 0 @ n n n n @ n # # n # @ @ o @ q 7 i i k k i s c 9 9 i j l -.-.*.l > l l l l , > l *.*.z *.g , ",
"f g =.-.*.f l z *.*.l l z -.=.z -.-.-.-.-.=.=.-.*.g : 5 8 7 9 9 2 1 w w w w w 1 w w w w w < < w 7 9 t t i k i s c c k j z -.=.-.*.l l f l , > l f g *.=.*.*.g f ",
"f z =.*.l , , l -.-.-.=.-.=.z =.-.-.-.-.-.-.=.-.-.=.f y 4 5 9 i 9 c 9 9 c c c k c 6 c c 9 7 7 8 i k d s c k i i k x l =.-.-.=.-.-.=.l l , , l z g z z *.=.-.z g ",
"f g =.*.z l l *.-.-.-.=.-.=.=.-.-.-.-.-.-.*.z =.-.-.z l u f j j j k k k k k k k k j c c i i 6 y k c c s i y u x z x z =.-.=.l -.-.-.z l l z *.=.=.=.=.*.*.-.z g ",
"f g -.-.-.-.-.=.-.*.z l =.-.-.-.-.=.-.=.*.l g *.=.-.-.-.*.=.=.=.x k c c 9 i c c c c k c k c k c c c c 9 i k z =.=.=.z =.=.z g z =.-.-.-.-.-.-.-.-.-.-.=.g *.g , ",
"> f *.-.=.z =.-.=.*.z l *.-.-.=.=.l l z -.-.=.l z -.-.-.-.-.=.=.z k k y j y 6 y j : j j j y x x j j y 6 j z -.=.=.z z z =.-.=.z z -.-.-.-.-.-.-.-.=.g =.=.g , > ",
", g =.-.*.g *.=.-.*.l f *.=.=.*.l z z z -.-.*.z *.-.-.-.-.*.*.-.z z l l z f l l f g l z l j f z f f j > l z =.z z *.z z =.-.g z *.-.-.-.-.*.*.-.-.*.z -.-.g , > ",
"g g -.-.=.*.g *.-.*.l g g l g g z -.-.-.*.f f =.=.*.-.-.-.z l =.=.-.-.-.-.*.-.-.z =.-.-.=.z g g -.g l l l l l l z =.-.-.z g f -.-.*.-.-.-.z g =.=.-.-.-.-.=.*.g ",
"f g -.=.*.z *.*.*.*.z f *.=.z z *.=.*.z *.*.=.=.*.l =.-.-.*.z =.-.-.=.g g -.-.-.=.=.=.=.*.z z =.=.*.g g *.=.z z =.=.*.z z =.=.-.z z =.-.-.*.g =.-.-.=.g z -.=.g ",
"> f g *.*.*.-.=.z =.-.l *.-.-.=.=.-.z g z -.-.z l z *.-.-.=.*.-.-.-.*.f g -.-.-.z =.z z z =.-.=.z =.=.l =.-.-.=.=.=.z g z -.-.z l z *.-.-.=.=.-.-.=.*.g , -.*., ",
", f g *.=.-.-.-.-.-.-.-.z g -.=.*.-.=.*.=.*.z f z *.*.=.-.=.=.-.=.*.g *.=.-.*.z =.z z z =.-.-.-.-.-.-.-.z l -.=.=.-.=.=.=.z z f l *.z =.-.=.=.-.=.g z *.=.-.g > ",
"> f f g z =.=.-.-.-.-.*.g z -.-.-.-.=.=.-.*.z f z =.z l *.z *.-.-.-.*.*.=.-.g g =.z f g z -.=.=.-.-.-.*.l z -.-.-.-.=.=.=.=.z g z =.z z *.z z -.-.-.*.*.-.-., ; ",
"f , , , g g z *.-.-.=.g g =.-.-.=.=.*.*.-.-.=.z *.=.*.l l l *.-.-.=.*.=.=.-.*.g =.z f f l l z *.-.-.=.g g =.-.-.=.=.z =.-.-.*.z *.-.*.l l z z -.-.-.=.=.-.-.g > ",
"f f , f f f g =.-.=.=.g *.*.=.z l z g z -.-.-.*.=.-.-.-.*.=.-.z f g -.-.-.=.=.-.-.g f f l l z =.-.=.*.*.g *.=.l l g l z -.-.=.=.*.-.-.-.*.-.=.*.g g =.-.-.*.g , ",
"> > , f g , l g g , f g g g g f f l g l l z z *.z z *.*.l *.z l > > g f f f g g g f j f f f f f g f f g g g g g g g l l z l z z z z *.z l z z z > > g g , , , > ",
"; : , , f f , , > > > , f , > , l g g g > > f l l f , , f , f g > > f > ; > > f f > > f f f f f > > > > g f > f l g g g f > f l g , , , f f f l > > f > ; > ; ; "
};
