/* XPM */
static char *Group_4__1__resized[] = {
/* columns rows colors chars-per-pixel */
"80 80 242 2 ",
"   c #1C0D03",
".  c #0B1C00",
"X  c #161900",
"o  c #220E04",
"O  c #271703",
"+  c #2D1504",
"@  c #2E130C",
"#  c #371907",
"$  c #3C1B04",
"%  c #31140D",
"&  c #2B1210",
"*  c #341511",
"=  c #3B1510",
"-  c #0E2100",
";  c #142400",
":  c #192600",
">  c #162800",
",  c #1B2C00",
"<  c #1C3200",
"1  c #1F3A00",
"2  c #1E3108",
"3  c #2C2302",
"4  c #272906",
"5  c #2C2B02",
"6  c #372505",
"7  c #342C02",
"8  c #392D02",
"9  c #253706",
"0  c #213D00",
"q  c #383505",
"w  c #332E13",
"e  c #441D04",
"r  c #441D0A",
"t  c #521D0D",
"y  c #4C1B13",
"u  c #4C2304",
"i  c #432C02",
"p  c #442509",
"a  c #4D220D",
"s  c #562807",
"d  c #53250C",
"f  c #5B2A0A",
"g  c #483604",
"h  c #56370A",
"j  c #4B2612",
"k  c #532512",
"l  c #582A15",
"z  c #4A3917",
"x  c #593716",
"c  c #652D0A",
"v  c #693609",
"b  c #652D16",
"n  c #693417",
"m  c #78391B",
"M  c #583022",
"N  c #6A3623",
"B  c #773826",
"V  c #7C3B23",
"C  c #244300",
"Z  c #264A00",
"A  c #294D00",
"S  c #294509",
"D  c #344904",
"F  c #285302",
"G  c #2C5300",
"H  c #2E5900",
"J  c #325C00",
"K  c #345809",
"L  c #2C4911",
"P  c #364C13",
"I  c #2F5213",
"U  c #325415",
"Y  c #3A5716",
"T  c #345B14",
"R  c #345C19",
"E  c #366100",
"W  c #3A6501",
"Q  c #3C6A00",
"!  c #3C640C",
"~  c #3B6615",
"^  c #36631B",
"/  c #3A651B",
"(  c #3C6D1D",
")  c #3F711E",
"_  c #3E7220",
"`  c #45480A",
"'  c #5D4503",
"]  c #584804",
"[  c #58560C",
"{  c #514814",
"}  c #465913",
"|  c #634A03",
" . c #675506",
".. c #775604",
"X. c #684619",
"o. c #704F1A",
"O. c #426B05",
"+. c #427200",
"@. c #4A7B02",
"#. c #54700F",
"$. c #45661A",
"%. c #436C1C",
"&. c #4A7A15",
"*. c #41751F",
"=. c #4A731D",
"-. c #43781F",
";. c #6B660D",
":. c #776709",
">. c #6E6913",
",. c #787512",
"<. c #594A25",
"1. c #674A24",
"2. c #7A4729",
"3. c #6C5221",
"4. c #755527",
"5. c #7A5934",
"6. c #417620",
"7. c #457C21",
"8. c #4A7D21",
"9. c #7A652F",
"0. c #7E6A4B",
"q. c #813F1D",
"w. c #833D26",
"e. c #855903",
"r. c #8B5B01",
"t. c #8A560F",
"y. c #896404",
"u. c #956202",
"i. c #9A6604",
"p. c #967214",
"a. c #A36D04",
"s. c #AB7405",
"d. c #A97409",
"f. c #B37B04",
"g. c #B57B0A",
"h. c #A97717",
"j. c #B47D19",
"k. c #8A4428",
"l. c #934A2D",
"z. c #875926",
"x. c #894432",
"c. c #974C34",
"v. c #845737",
"b. c #9A5339",
"n. c #A04F35",
"m. c #A4553A",
"M. c #91662B",
"N. c #876535",
"B. c #946A39",
"V. c #AA792B",
"C. c #A85943",
"Z. c #B15D46",
"A. c #8E6E47",
"S. c #9B7949",
"D. c #B56249",
"F. c #A57A4A",
"G. c #A26753",
"H. c #AF7353",
"J. c #C76E55",
"K. c #CA7462",
"L. c #4E8100",
"P. c #548803",
"I. c #5B9201",
"U. c #528A19",
"Y. c #649A03",
"T. c #6BA601",
"R. c #72AE02",
"E. c #7AB801",
"W. c #478022",
"Q. c #498423",
"!. c #4C8A24",
"~. c #508A23",
"^. c #9F830C",
"/. c #A2860C",
"(. c #BB810C",
"). c #A38716",
"_. c #B78117",
"`. c #80BE01",
"'. c #B88424",
"]. c #B08732",
"[. c #C68A0B",
"{. c #DB9909",
"}. c #C88B17",
"|. c #CF9114",
" X c #D89717",
".X c #E29E1A",
"XX c #E9A41D",
"oX c #CD922D",
"OX c #E29D27",
"+X c #E7A329",
"@X c #E9A737",
"#X c #83C401",
"$X c #88CB01",
"%X c #8FD201",
"&X c #94DA01",
"*X c #9BE401",
"=X c #B98948",
"-X c #B78855",
";X c #B38958",
":X c #B59168",
">X c #CB9650",
",X c #C99856",
"<X c #DAA355",
"1X c #E7A742",
"2X c #ECAB45",
"3X c #ECAC4C",
"4X c #F0AF44",
"5X c #EAAC56",
"6X c #EEB05A",
"7X c #F2B45D",
"8X c #C99868",
"9X c #D19D6E",
"0X c #E38470",
"qX c #D7A569",
"wX c #D3A574",
"eX c #E6AE6F",
"rX c #ECB265",
"tX c #F2B464",
"yX c #F2B66B",
"uX c #F5B86D",
"iX c #F9BA6A",
"pX c #EAB479",
"aX c #F3B772",
"sX c #F5B974",
"dX c #F8BC76",
"fX c #F6BB7C",
"gX c #F9BD7D",
"hX c #FAC17E",
"jX c #E59080",
"kX c #D3BA98",
"lX c #E2B483",
"zX c #F5BD82",
"xX c #F9BF82",
"cX c #F3BC88",
"vX c #FAC284",
"bX c #F6C288",
"nX c #FCC58A",
"mX c #FEC98D",
"MX c #FDCA93",
"NX c #F9C997",
"BX c #FFD19E",
"VX c #FDD3A6",
/* pixels */
"I ^ *.( ) _ ) *.*.( ) *.-.-.-.) _ 6.6.6.( ( 6.7.6.*.6.6.) ( ( ( ) *.6.) *.-.-.( ^ ( *.( ( *._ *.*.( ( 6.6.6.6.6.( 6.6.6.( ( 6.7.6.6.6.6.6.( ( _ _ 6.6._ 6.6.( R ",
"/ ( *.*.6.6.) ) ) ) ) 6.6.6.6.) _ 6.6.6.( ( 6.6.6._ ( *.) *.7.7.7.6.) R T ~ ~ T ^ ( *.*.6.6.*._ ( ( 6.7.7.6.6.6._ 6.6._ ( _ 6.6.6.( 6.( ( 6.7.6.7.6.6.( ( 7.6.( ",
"7.6.6.7.W.7._ ( ) *.7.W.7.7.7.6.6.6.6.( 6.6.7.6.6.6.( _ *.Q.!.!.Q.-.%.! K +.! ! 8.6.%.6.7.7.*.( _ 6.7.7.7.7.6.6.6.6.6.( 6.6.7.6.6._ ( _ 6.Q.!.!.!.7.6.( 6.7.7.6.",
"*.6.Q.!.Q.W.6.6.-.-.*.W.Q.!.!.!.!.7.6._ 7.Q.Q.Q.7.7.Q.Q.Q.-.Q.!.^ ~ Y.E.$X#X#X#X`.Y.O./ *.7.6.6.6.6.6.8.Q.!.!.!.Q.8.6.( 7.Q.Q.Q.Q.7.Q.Q.Q.8.7.!.Q.Q.Q.7.6.8.7.( ",
"( 6.8.Q.Q.Q.Q.Q.W.7.7.W.!.!.Q.Q.!.!.7.W.!.!.!.!.!.Q.!.!.Q.7.%.~ #.Y.`.&X*X*X*X*X&X`.Y.Y.U.~ -.Q.Q.7.7.Q.!.!.!.Q.!.Q.W.W.Q.!.!.!.!.Q.!.!.!.8.7.7.7.7.Q.Q.7.7.7.*.",
"*.*.*.*.Q.!.!.Q.Q.Q.Q.Q.!.!.W.7.7.!.!.!.!.!.!.!.!.!.!.Q.7.-.$.O.E.&X$X$X%X#X#X$X%X%X&X&XY.K =.Q.W.Q.W.Q.!.!.7.7.W.!.!.!.!.!.!.!.!.!.!.Q.W.7.7.6.( 6.Q.!.!.7.6.7.",
"( *.*.7.7.7.7.7.7.6.6.6.6.7.Q.Q.!.Q.7.6.7.7.7.Q.Q.!.!.*.U &.R.`.$X#XE.$X`.O.W P.E.$X#X%X&XE.O.P ( 6.6.6.6.7.Q.!.Q.Q.7.7.7.W.Q.Q.Q.!.!.!.Q.6.6.7.*.*.8.!.!.7.( ^ ",
"( ( *.7.7.6.6.6.6._ ) _ _ _ 7.Q.Q.Q.7.7.7.6.6.6.7.Q.-.&.P.R.#X$X#XE.E.R.I.9 C @.T.T.Y.R.$X#XP.O.R ^ / 6.( _ 7.Q.!.W.7.7.6.6.6.6.7.!.!.!.!.Q.W.8.6.6.Q.!.Q.6.( ^ ",
"( ) 6.W.7.) ( _ ) ) _ _ _ ) ( 7.Q.-.!.!.!.7.6.( ( *.! I.&X*X`.Y.T.R.R.I.W 0 W I.Y.@.+.P.P.P.R.Y.O.T ^ ( _ ( ( 6.W.7.Q.!.!.W.6._ 6.!.!.!.!.!.!.!.Q.Q.!.!.Q._ ( ( ",
"( ) *.7.7.6._ _ ( _ 6.( 6.6.6.W.Q.Q.Q.!.!.!.8.6.( O.T.#X%X%XT.Q A D W Q Q E +.@.@.+.J G C A Y.E.R.R.P.K R _ 6.Q.Q.Q.Q.!.!.Q.7.Q.!.!.!.!.Q.Q.Q.!.7.6.6.W.!.Q.6.-.",
") *.6.W.Q.7.6.6.6.7.7.7.7.W.Q.!.!.Q.!.!.Q.6.*.U.P.P.E.#XE.#XT.E , > 0 J Q Q W Q Q W J 0 , C @.R.$X#XT.O.T ~ ( 8.!.Q.!.!.Q.Q.Q.!.!.!.!.Q.7.7.Q.Q._ ( ) 7.!.W.7.-.",
"*.*.6.!.~.!.7.7.Q.Q.!.!.Q.Q.!.!.!.-.!.!.*.~ ! Y.R.T.I.I.T.#XT.Q G A G G H G A G W W G Z Z G Q @.P.I.Y.Y.@.K T 6.!.W.Q.!.7.W.!.7.Q.!.~.Q.6.7.!.!.6.( ) Q.!._ ) -.",
"( ) *.W.Q.!.!.W.6.7.Q.!.Q.W.!.Q.7.Q.Q.( T @.Y.P.@.+.O.+.L.R.T.+.W J A Z G Q +.Q E J E W J E P.L.J O.@.L.Q W P.P.&.( _ !.Q.!.!.Q.Q.!.!.!.Q.!.!.!.Q.7.Q.!.Q.W.) ) ",
"( *.6.7.Q.!.!.Q.*.6.7.!.7.7.Q.7.-.Q.( T J P.T.+.Z 0 Z G Q Y.I.+.Q E G A J O.O.Q G G J Q Q Q P.@.G H J A G W I.L.+.O.( _ Q.!.!.Q.Q.Q.!.!.!.!.!.Q.Q.!.!.!.Q.W.7.) ",
"*.-.Q.!.!.!.Q.Q.!.7.7.Q.Q.7.Q.!.Q.( U G O.Q J J 0 > , C E L.L.J H J G Q +.Z 0 < 0 C G J Q +.W J H A 0 , 1 G E W @.I.O.w *.!.!.7.6.7.Q.!.!.!.!.W.7.7.W.W.W.Q.W._ ",
") 7.Q.Q.!.!.Q.Q.!.!.Q.W.Q.8.6.( ! ! W E E J G G C 9 0 Z H @.@.J F J E Q E C < < 0 A W Q Q J G Z 0 0 < , C Z Z Q @.I.@.O.U / 6.6.6.6.7.7.7.7.Q.Q.Q.W.Q.Q.!.Q.W.-.",
") 7.Q.6.7.!.Q.Q.!.!.W.6.6.*./ K G W O.W G G G G Z C Z A G W Q G G H W J F G Z Z A J +.+.J A G Z 9 > < 0 Z A A W +.+.P.I.K K / / ) 7.7.7.7.7.Q.!.!.Q.!.!.!.!.W.-.",
"*.-.6.) *.8.7.W.Q.6._ _ U S A H J G A A Z G J H Z C C C < A G G A A J G G Q Q @.W J J J G Z G G C 0 0 Z Z Z Z G G J Q L.I.@.J I / W.Q.Q.!.!.!.!.!.!.!.W.6.!.7.-.",
"*.7.7.6.6.6.6.7.7.6.6.7.L 9 0 G H G A A H J W J G Z Z Z Z A G G J J G H E W J ` J H F J G A Z G J A Z A C 0 C Z Z G E Q @.+.E A ! 7.!.!.W.W.!.Q.W.-.W.-._ 6.) -.",
") 7.!.Q.7.7.7.7.6.6.7.6.L < 0 Z G A H H J W Q W J G A G G J G G W W F H Q H q 6 q A A J G A Z J Q E H G Z C C A G J J G A J E A I ( W.W.-.W.W.Q.-.) W.W.W.) ) -.",
"6.7.Q.!.!.!.Q.Q.W.-./ L S 0 0 Z G G G G G G J W E G A Z C G J W J H G E W H q p 5 8 i G F F G G W O.Q E Q Q J J E W E F C C C C 9 S ^ 7.!.!.!.~.!.!.!.!.!.7.7.-.",
"6.7.Q.Q.!.Q.Q.Q.Q.) I 1 1 0 0 C Z C Z Z A Z C Z A G G C 1 A J J G G G J H G D s s i 8 A F G C Z H W W J W W J J J J G C 1 < 1 C < , S K ( 7.Q.!.!.Q.W.!.!.Q.7.-.",
"*.7.!.Q.7.Q.Q.Q.Q.T 9 1 < 1 < C Z C C C A C 0 , 0 Z A Z Z G A A G A G A A Z g v c g C G F G 0 C Z G G J G G G G G Z 1 , , 1 0 0 0 , , 0 9 R 6.6.) -.6.Q.!.Q.-.-.",
"*.-.7.Q.!.!.Q.7./ S 2 < 1 0 0 0 C C C C A Z 0 0 0 C C A G C 9 q Z F Z C Z C g c 8 C F G G G A Z Z Z G G C C G A C 1 1 1 1 0 1 0 0 < < < < 9 L R ( ) W.W.Q.W.6.) ",
"*.6.Q.Q.Q.W.W.( L 2 < < , < < 0 C C C 1 C 0 C Z Z Z C Z G Z 8 u q F C Z Z 0 i p C F H G Z G Z Z Z Z C 0 C C Z Z C 1 1 0 0 0 0 1 0 , < < < , 0 9 ~ ) W.W.W.W.-.) ",
"( 7.Q.!.7._ _ ^ 9 < < < : : < 0 0 1 < , < < 0 G G A C Z G F q t q Z C Z F 0 5 5 H H G C Z Z C C Z C 0 > < C Z C 0 1 1 0 0 0 1 1 < < , < < < , , L ) W.Q.W.Q.-.) ",
") 7.Q.Q.6.( I S < < < < < , < < 1 < 1 1 < 0 0 C C C 1 0 C F D 7 7 0 1 C C 1 0 C Z Z 0 1 0 A C 1 0 0 1 1 0 0 C 1 0 0 1 1 1 1 1 < , , , < < < , , 1 I ) W.Q.Q.W.) ",
"*.7.Q.Q.7.( S < < < < < < < < 0 < 1 1 1 0 1 0 0 1 1 1 1 1 A A 1 0 9 < 1 1 0 1 1 C C 1 < 0 C 1 1 1 0 1 C 1 1 0 1 1 1 0 1 < < < , , > < < , < < , , < T ) !.Q.W.-.",
") 7.Q.~.Q.) 9 , < , , < < , , < < 1 0 0 1 1 0 < < 1 1 1 1 0 0 0 1 1 1 0 1 1 0 0 1 1 1 1 0 1 0 1 0 1 1 1 1 0 1 0 1 1 1 1 1 < > > : , , < < < 2 , , , , T 7.W.) ) ",
") *.Q.!.-.I 9 , , < < < , < , < < 1 < 0 < 1 0 , , < 1 1 0 1 1 1 C C 0 0 0 1 1 0 1 1 1 0 0 0 1 1 1 0 0 0 1 1 1 1 1 1 < < < , > > , , < < , , , : > : > R Q.7.) ( ",
"( -.Q.!.~ 2 2 > , , < < < , , , , < < < < < < > > < < 1 1 1 1 1 0 0 0 1 1 1 1 1 1 1 1 1 1 1 1 0 0 0 1 1 1 < 1 < 1 < < , < , > , < < < , , , : , : , S *.!.W.) ) ",
"*.W.Q.!.~ , > > > , , < < < > : > , < < < < < < < < < < 1 1 1 < < 1 0 0 1 1 1 1 1 1 1 1 1 1 1 1 1 1 < < 1 < < < , < < , < , < 9 , < , , : : : , : 9 *.!.Q.Q.W.-.",
"6.6.Q.Q.( L : > , : : : , , , > > < < < < < < , < < < < < < , : ; , < < 1 1 < 1 < 1 1 1 1 1 1 < < , > , : > < < , < , < , 9 , , , , : : > , , 9 I ( 7.6.W.Q.Q.-.",
") 6.W.W.6./ L 9 , : : : , , < , , , , , , , < < < , < , , < > : > > < , < < < < , , < < 0 < < , , > : : ; : , < , < < < , , , , > : : > : 9 S U 6.!.W.6.) !.Q.) ",
") *.7.7.Q.!.6.U 2 : , , > , : : : , , , < , 2 < , < < < < < , < < < , < < < < < : : < < < < < < < , > , < < , < < , < , , > : : : > > > > L ( 8.Q.7.7.W.Q.!._ ( ",
") ) 6.6.7.Q.Q._ R L 9 9 > X - ; > : , > > > , , < , , < , < < < < < < , , , < < > > < , , < , < < , < , < < < < < , , : > ; - ; ; : q q L R -.!.!.!.W.W.!.!._ / ",
") ) ) ) 6.7.7.W.Q.( U L 9 q w 4 : > ; ; ; > > > > > , , 2 , < < < 4 , , , , < < < < < < < < < , < , < , < , , < > ; ; > : : : w g z ..>.$.6.7.Q.!.!.Q.Q.Q.!._ ( ",
"*.*.) *.6._ W.Q.Q.Q.6.7.[ p.].3.8 5 : . - > > ; > : : , : > > > , , , , < < , < < 4 , < , , < 9 9 , > : : : > > > ; . : 5 q z 1.B.H.>X].6.7.!.7.6.6.Q.!.!.Q.7.-.",
"6.-.6.7.7.7.W.W.8.7.Q.Q.p.'.3X>XB.B.5.<.<.4 . 4 9 > X . . - - - ; > > , > > > , > , , - > , > > > > ; . ; - - - : w q z 1.4.B.H.qX5X@X).%.8.!.Q.6.*.Q.Q.7.7.-.7.",
") 6.W.Q.!.!.W.7.7.7.7.Q.,._.6XhXdXyX9X-Xv.<.z z { <.{ w 2 4 2 , > > , > : ; > ; ; > : w w > ; ; ; : : : 4 4 w w z 3.v.S.H.-X<XtXiXiXXX/.=.7.Q.!.7.6.Q.7.) -.) ) ",
"/ ) Q.Q.Q.Q.Q.Q.Q.7.7.!.,._.3XiXdXdXbXwX1.A.kX0.A.kXkX8X;X9.4.3.z 7 5 > - ; - - - . X :X0.. X 4 5 7 i z 1.v.A.H.8X8XwXpXpXsXyXyXyX7X+X).$.6.8.W.Q.!.Q.W.Q.!.7.( ",
"( *.7.7.7.7.7.7.W.6.7.Q.,._.@XtXuXiXMXlX1.5.:X9.N.:XH.S.v.1.X.{ g i 5 3 3 3 4 3 3 X O 0.5.6 z 1.4.N.A.H.>X8XqXpXzXzXvXvXmXvXdXuXyXtX@X).$.6.Q.Q.Q.Q.7.6.7.Q.7.*.",
"-.-.6.7.W.7.) ) -.6.7.8.,._.@X7XuXyXgXpXB.X.{ ;. .i i i i i i 8 i i i i g i i i i 8 6 g X.5.S.;X,XwXpXeXpXfXxXxXvXmXvXfXxXfXfXsXuXiX@X).$.7.!.!.!.W.*.) ) 7.7.-.",
") 6.Q.!.Q.W.6.6.6.*.*.-.,._.1XtXuXyXuXyXeX8X;Xz g y.y.y.y. . .| ' ' |  .| ' ' ' | g i x A.qXpXfXpXzXxXfXfXfXfXfXzXvXvXvXfXfXfXsXsXtX+X).=.7.Q.Q.Q.Q.Q.6.*.Q.-.) ",
"( 6.7.Q.Q.!.Q.W.W.7.7.Q.>.j.3XiXyXyXyXaXhXbX:Xz 8 ..:.:.:. .| ] ] ] ] ' ] ] ] ] ] g i X.-XmXmXmXmXvXgXgXfXsXfXxXvXfXxXvXfXfXsXsXsXtX+X/.6.6.7.7.7.7.Q.Q.7.Q.6.*.",
"*.*.6.6.W.!.!.!.!.Q.Q.Q.,.j.5XiXyXyXyXfXvXpX-Xz 3 8 8 8 8 8 8 8 8 7 8 8 8 8 8 8 8 5 8 o.-XNXmXbXmXfXfXvXfXzXzXxXnXfXxXxXvXfXfXaXsXtX+X/.=.6.7.7._ 6.Q.!.Q.7.6.6.",
"( ) ) 7.7.7.7.7.6.6.-.-.;.h.5XtXyXtXsXfXgXpX-Xw X 8 8 8 7 7 7 3 3 7 7 3 5 7 5 5 5 O 3 3.8XVXVXbXvXvXxXzXcXnXBXNXMXMXbXfXzXxXfXsXsXtX+X).=.*.6.6.( %.7.!.!.7._ / ",
"( ( 6.Q.7.6.) 6.) ) ) =.;.h.1X7XyXyXsXfXdXfX8Xz X 3 3 O 3 O 3 6 3 6 # 6 6 p 6 p p 6 6 o.;X:XlXbXvXvXmXmXeX9X9X9X8X8XqXyXzXxXfXaXsXtX+X).=.6.W.Q.6.7.Q.!.Q._ ( / ",
"( %.*.W.7.) ) ) ) _ _ *.;.h.+X7XyXyXsXfXfXcXwX3.3       o + 6 6 6 r e t l l b N N k 6 ..| x :XxXfXvXMXNX=Xz.2.w.m m M.>XzXxXfXaXuXtX+X).=.Q.!.!.Q.Q.!.!.Q.) ( ( ",
"( *.*.7.7._ ) ) ) _ ) *.>.s..X4XyXyXyXyXxX:X9.9.o.M l k d d f B V m f s c b b B m l 6 g g { 9XMXvXnXpX-Xb.m v m w.v n z.pXbXaXsXsXtXOX^.=.-.Q.Q.7.-.6.Q.Q.W.6.6.",
") ) *.W.Q.Q._ ) _ 7.7.-.>.d.{.4XyXyXyXdXnXF.g 3.v.x.c.x.q.q.k.m.Z.m.q.q.q.w.b.C.b.m 6 i X.S.lXMXbXmXqX9.m q.k.k.w.l.b l -XaXsXsXsX7X X^.%.-.Q.Q._ ( ) 7.!.Q.7.*.",
"-.*.6.Q.~.!.W.7.Q.Q.!.!.,.f.{.@XyXtXfXnXmX-Xx 6 k x.Z.Z.n.l.b.D.D.D.Z.C.C.D.K.0XK.b.a z ;XNXbXbXvXmX8Xs b c.D.x.k.J.B p N.8XzXsXyX6X.X^.$.-.!.!._ ( ) Q.!.6.*.6.",
") ) 6.W.Q.!.!.Q.) W.!.!.,.d.{.@XtXrXaXxXnXqXB.n n w.N l l k l M M M M M l M N v.jXJ.N n ;XVXnXfXfXbX;Xw c.G.N j k l.B l X.-XbXsXyX5X.Xd.=.7.!.!.Q.W.Q.!.!.7.6.*.",
"( ) -.7.Q.!.~.Q.) ) ) !.,.d.{.@XrXyXyXsXvXeX=Xm.w.n e O o   o o o o o o       j K.K.c.X.S.BXmXfXfXzXH.p G.G.o   @ l B x.h F.MXdXtX3XOX).=.Q.!.!.Q.!.!.!.Q.Q.6.6.",
") 7.Q.Q.!.!.Q.Q.!.Q.7.!.,.d.{.@X6XyXyXsXvXqXF.J.c.d d y @ @ % % @ @ % @ % % # u l C.K.x A.VXMXzXfXbX;Xd b m & & % 6 w.C.x S.BXfX6X2XOX).8.8.!.7.7.7.W.7.7.Q.7.6.",
") -.!.Q.!.!.Q.Q.!.!.Q.W.,.d.{.@X6XyXsXdXvX,XV.K.C.f c y @ @ % % * % * % % % $ p $ b.K.x A.NXMXxXfXbX:Xb c b @ & % + 2.C.X.S.MXdXrX3XOX).$.6.Q.Q.Q.W.Q.Q.!.!.W.6.",
"*.7.Q.6.7.!.Q.Q.!.!.Q.7.>.a.{.+X5XtXyXfXvX,XM.J.m.c f a % @ % % @ * * @ & * r e e l.J.x A.NXmXxXzXMX:Xk c n @ & @ + B C.1.;XxXsX7X3XOX).$._ Q.!.!.!.!.!.!.!.Q.-.",
"6.6.7._ 6.7.7.Q.Q.) ) *.>.d.|.+X3XrXrXyXvX=Xp.J.c.u d t % @ % % % @ @ * % * # e u l.D.l v.cXxXfXzXnX8Xz m V + o % 6 N c.z.=XdXyXtX6XOX).8.W.!.!.!.!.!.W.) Q.W.-.",
"*.7.7.6.6.6.6.7.7.) _ 7.>.d. X+X@XrXyXyXhX=XM.D.l.u d r # @ % % * * @ @ % * # e s l.m.d v.NXxXfXxXBX:Xj l.b.# O r c n B M.>XiXyXtX3X X^.$.7.!.!.W.7.W._ ) 7.W.) ",
"( 7.!.Q.7.7.7.7._ 7.W.Q.>.p. X.X@X7XyXuXdX>Xz.m.k.u e r # % % % @ % % % % * # e f l.m.t v.bXzXfXzXBXwXx x.b.f u f k.l l F.5XyXtX6X1X|.p.$.6.Q.Q.-.) 7.W.W.) ) ) ",
"6.7.Q.!.!.Q.Q.7.W.6.( *.[ e.|..X+X5XtXaXhX=Xt.m.k.u u r % % % % @ * * @ * * # $ c k.n.t v.pXfXfXbXMXqXB.x M c.k.m x.k z qXhXiX5X3X@Xg.:.=.Q.!.!.!.Q.!.!.Q.W.-.-.",
"6.7.Q.!.!.!.Q.!.!.Q.7.8.;.e.h. X@X2X6XuXhX=Xt.m.w.a d a @ @ % % % @ % % @ * % e s q.k.t v.eXzXbXvXxXfX8X5.l B b f k n N.eXhXyX@X+X Xa. .*.7.!.Q.!.Q.Q.!.!.Q.-.-.",
"6.7.Q.Q.7.Q.Q.!.!.!.!.~.,.y.y._.+X@X3XtXhX].t.c.m s f a + @ % @ % * % * % * # $ s m V t v.qXxXxXzXsXxXNX-X4.z a u 6 N.>XyXuXtX+X X[.d.:.$.*.7.7.7.6.-.Q.Q.Q.W.-.",
"6.7.7.8.!.!.Q.7.7.!.!.~.>.u.V._.[..X@X4XhX>Xt.k.m f l k @ @ * * % @ % % % * + e c m V t z.qXfXxXfXaXsXfXpX9X8XB.z.F.<XyXdX7X@X+X[.r.j.p.$.( 6.6._ ) 7.W.Q.Q.-.) ",
"_ 6.8.Q.Q.Q.7.7.7.7.7.6.;.t.j.j.j.|.+X4X7X>Xt.w.b f b l % % * & * @ * % * * # $ s m q.t 4.qXaXsXsXsXaXaXdXgXsXqX>XrXaXyX6X@XXX{.d.y.j.p.%.( 6.6.) _ Q.W.W.W.-.) ",
"( 7.!.!.7._ 6.W.Q.8.6.6.} ..(.V.V._.|.+X3XoXp.V c s b l # % % % @ % @ % * * # $ u q.l.t 2.<XrXaXyXaXaXyXyXyXtXiXiXiX7X3XOX.X Xs.d.d.d.y.$.( 6._ ) ) Q.Q.W.W.-.) ",
"6.7.Q.7.6._ ( 6.!.!.!.Q.}  .f.[.oX].V.g.+X|.i.m b s m b + @ % % @ * * @ @ * # $ e q.c.y 4.qXyXuXyXrXyXtXyXtX6X3X@X@X@X+X.X[.a.i.d.g.i. ./ _ 6.6.-.7.W.W.Q.Q.W.) ",
"6.7.Q.Q.7.6.6.W.!.!.!.Q.$.[ i.[.}.oX].'.}.g.e.b t d b l + @ & % * @ % % * * % $ e q.n.y X.1X2X3X2X3X3X2X2X2X@X@XOX X}.}.[.(.d.a.d.d...{ 6.7.Q.Q.Q.Q.W.W.W.Q.W.-.",
") 7.Q.!.!.!.!.Q.Q.Q.7.6.*.#.e.a.g.}.oX<XV.y...d t d b d % @ % % % % % @ * * # $ s q.c.t v |. X{. XOXOX.X{.{.{..X.X[.g.p.V.j.oXg.a.e.] } !.!.!.!.!.!.!.Q.W.W.-.) ",
") -.Q.!.Q.7.Q.!.Q.Q.7.6.W.=.[ e.a.d._.}.}.oXV.x e e c t + + % % % % % * @ * + $ s m w.y v d.f.(.(.(.(.(.(.f.f.s.d.g.}.oX_.h.a.u.r.e.} %.!.Q.!.!.!.Q.W.W.Q.-.) / ",
") ) Q.!.Q.6.W.Q.Q.Q.7.*.W.-.Y | e.i.a.a.}.oXV.n e e b l + @ * @ % % % % * % + e c v b y X.h.'.'.'.)._.(.f.f.s.d.d.g.}.oXg.a.e.e...| $.7.!.Q.Q.Q.!.Q.7.!.!._ ) ) ",
"-.W.!.Q.Q.W.6.W.!.7.*.*.7.6.( } v r.u.u.d.d.i.f $ s m b + % = % % % % % % * % $ b b s r 2.oX<X5X<X@XoX|.}.[.}.|.}.(.s.a.u.r.e.e.] P *.!.!.7.7.Q.Q.Q.!.!.!.!.W.-.",
") -.Q.Q.W.7.W.W.Q.Q.-.) W.!.-.*.} ] ..u.i.a.u.s = e n l O + $ # # # # # # # + # V B e = X.j.|.oXoX|.}.g.g.f.d.d.d.u.u.u.i.r.| ] } R 6.!.!.7.7.Q.!.!.Q.7.W.!.W.-.",
") ) W.Q.W.W.Q.Q.7.Q.Q.7.Q.!.Q.!.6.U [ ....y.u.s r t s l a a d d k k k k d t r y B b r = v u.s.s.f.f.s.s.a.u.i.u.r.e.e.e.y. .` P R ( 7.!.!.Q.Q.!.!.Q.W.6.) !.W.) ",
") -.-.-.Q.!.!.!.!.!.!.!.W.) Q.!.7.7.( Y ` | ..g r k 6 k w.V B B B w.w.w.w.N B N d u r y f ..e.r.e.e.r.r.r.u.u.u.u.e.v ] P P R / _ W.7.Q.!.!.Q.!.Q.W.7.W.!.!._ ( ",
") ) ) -.7.Q.!.Q.!.Q.!.Q.) W.!.Q.!.!.7.( $.} } q 6 * + j B w.w.B B B B N b l y j # # # % u h ' | v | h | ' ' [  .;.[ $.} ( ) ) ) 7.Q.7.7.7.7.W.!.!.Q.W.W.!.!.) ^ ",
") ) ) ) _ W.7.W.!.!.Q.-.W.Q.!.Q.Q.Q.W.W.Q.7.( R L 9 w q x 1.N 1.x x x g w 6 3 w 5 4 5 6 7 q ` ` ` ` ` ` P Y Y T / ) _ W.Q.Q.W.7.8.Q.8.7.6.6.7.Q.!.Q.W.Q.Q.!.7.( ",
"-.) ) ) 6.) 7.Q.!.!.Q.W.-.W.!.W.6.7.6.7.!.!.Q._ _ ) ) %.$.$.} P P L T U Y U U R R T I U R / *.%.-.W.-.-.*.=.8.*.) ) 6.7.!.~.Q.Q.Q.!.!.!.W.!.!.7.-.7.!.!.Q.Q._ ) ",
") ) ) ) _ ) 6.-.) ) ) -.) W.) -.6.6.6.7.7.7.7.W.7.7.6._ _ _ ( ( R R / / ^ ^ ^ _ _ ^ ^ ( ( _ *.6.-.-._ -.-.*.7.6._ 6.-.6.W._ W.W.7.7.7.7.6.7.7.7.( ( 7.7.-.) ) ) ",
"^ / ) ) -.7.) ) ) / ) ) ) ) ) ) 6.6.7.6.( ( _ 7.6._ _ _ _ _ _ _ ( ( ) ( ^ / ( *.6._ _ _ 6.6.( ( ( ~ ) ) *.*.( *.7.) 7.-.( ( _ 7.6._ 6._ 6._ 6.6.( / *.( / / / ^ "
};
