/* XPM */
static char *Group_4_resized[] = {
/* columns rows colors chars-per-pixel */
"80 80 244 2 ",
"   c #1B0C04",
".  c #0B1C00",
"X  c #151901",
"o  c #2B1608",
"O  c #361A07",
"+  c #281C17",
"@  c #0E2100",
"#  c #142400",
"$  c #192600",
"%  c #162800",
"&  c #1B2C00",
"*  c #1C3200",
"=  c #1F3A00",
"-  c #1E3108",
";  c #282905",
":  c #372A06",
">  c #213D00",
",  c #243806",
"<  c #383606",
"1  c #292612",
"2  c #2D231A",
"3  c #33251C",
"4  c #372818",
"5  c #3A2A1D",
"6  c #2A3111",
"7  c #383418",
"8  c #372920",
"9  c #3B2C22",
"0  c #3D3922",
"q  c #52160C",
"w  c #432C01",
"e  c #452508",
"r  c #57290A",
"t  c #493704",
"y  c #54390A",
"u  c #4A2A1B",
"i  c #572914",
"p  c #493618",
"a  c #573817",
"s  c #6D3212",
"d  c #6B3515",
"f  c #422E24",
"g  c #5F2A21",
"h  c #443225",
"j  c #493626",
"k  c #4B342A",
"l  c #4C3A2C",
"z  c #553D29",
"x  c #533C2C",
"c  c #543D30",
"v  c #5A3D32",
"b  c #663B2D",
"n  c #7A3B24",
"m  c #244300",
"M  c #264A00",
"N  c #294D00",
"B  c #294509",
"V  c #344904",
"C  c #285302",
"Z  c #2C5300",
"A  c #2E5900",
"S  c #325C00",
"D  c #345809",
"F  c #294212",
"G  c #2D4A11",
"H  c #374B15",
"J  c #2F5114",
"K  c #365616",
"L  c #345B14",
"P  c #345C19",
"I  c #366100",
"U  c #3A6501",
"Y  c #3C6A00",
"T  c #3C640C",
"R  c #3B6615",
"E  c #37631B",
"W  c #3A651B",
"Q  c #3C6D1D",
"!  c #3F711E",
"~  c #3E7220",
"^  c #45480A",
"/  c #5B4705",
"(  c #58560C",
")  c #464E10",
"_  c #5A4616",
"`  c #475813",
"'  c #634B04",
"]  c #685607",
"[  c #765504",
"{  c #664A17",
"}  c #6C5019",
"|  c #7A5618",
" . c #426B05",
".. c #427200",
"X. c #4A7B02",
"o. c #54700F",
"O. c #45671A",
"+. c #436C1C",
"@. c #4A7A15",
"#. c #41751F",
"$. c #4A731D",
"%. c #43781F",
"&. c #6B660D",
"*. c #776709",
"=. c #6E6913",
"-. c #787512",
";. c #5B442A",
":. c #554132",
">. c #5B4434",
",. c #5F4838",
"<. c #654928",
"1. c #7A4528",
"2. c #745529",
"3. c #674737",
"4. c #6B4A34",
"5. c #624B3A",
"6. c #6E5039",
"7. c #785638",
"8. c #417620",
"9. c #457C21",
"0. c #4A7D21",
"q. c #796530",
"w. c #6D5440",
"e. c #775743",
"r. c #7E6348",
"t. c #813A23",
"y. c #845903",
"u. c #8B5C01",
"i. c #8B5E0C",
"p. c #896404",
"a. c #956303",
"s. c #996605",
"d. c #967413",
"f. c #A36D04",
"g. c #AB7405",
"h. c #A97409",
"j. c #B37B04",
"k. c #B57B0A",
"l. c #A97717",
"z. c #B47D19",
"x. c #894428",
"c. c #8F532F",
"v. c #845B3C",
"b. c #92692F",
"n. c #896339",
"m. c #936A3A",
"M. c #A87926",
"N. c #AD7C30",
"B. c #875B42",
"V. c #975847",
"C. c #A65843",
"Z. c #8D6242",
"A. c #83674A",
"S. c #966846",
"D. c #9B6C46",
"F. c #9B7949",
"G. c #8E7253",
"H. c #A37249",
"J. c #A67849",
"K. c #AD7B4B",
"L. c #AF7650",
"P. c #A47F61",
"I. c #C46A52",
"U. c #4E8100",
"Y. c #548803",
"T. c #5B9201",
"R. c #528A19",
"E. c #649A03",
"W. c #6BA601",
"Q. c #72AE02",
"!. c #7AB801",
"~. c #478022",
"^. c #498423",
"/. c #4C8A24",
"(. c #508A23",
"). c #9F830C",
"_. c #A2860C",
"`. c #BB810C",
"'. c #A38716",
"]. c #B78117",
"[. c #80BE01",
"{. c #B88424",
"}. c #B08732",
"|. c #CA8C0E",
" X c #DB9909",
".X c #C88B17",
"XX c #D89717",
"oX c #E29E1A",
"OX c #E9A41D",
"+X c #C68C25",
"@X c #D09531",
"#X c #E29D27",
"$X c #E7A329",
"%X c #E9A737",
"&X c #83C401",
"*X c #88CB01",
"=X c #8FD201",
"-X c #94DA01",
";X c #9BE401",
":X c #B9874A",
">X c #BB8353",
",X c #B38856",
"<X c #B78855",
"1X c #B59168",
"2X c #C69349",
"3X c #CB9356",
"4X c #CA9755",
"5X c #D9A356",
"6X c #E7A742",
"7X c #ECAB45",
"8X c #ECAC4C",
"9X c #F0AF44",
"0X c #EAAC56",
"qX c #EEB05A",
"wX c #F2B45D",
"eX c #C99868",
"rX c #D19D6E",
"tX c #D8A569",
"yX c #D3A574",
"uX c #E6AE6F",
"iX c #EEB263",
"pX c #F2B464",
"aX c #F2B66B",
"sX c #F6B96C",
"dX c #EAB479",
"fX c #F3B772",
"gX c #F5B974",
"hX c #F8BC76",
"jX c #F6BB7C",
"kX c #F9BD7D",
"lX c #FAC17E",
"zX c #D3BA98",
"xX c #E2B483",
"cX c #F5BD82",
"vX c #F9BF82",
"bX c #F3BC88",
"nX c #FAC284",
"mX c #F6C288",
"MX c #FCC58A",
"NX c #FEC98D",
"BX c #FDCA93",
"VX c #F9C997",
"CX c #FFD19E",
"ZX c #FDD3A6",
/* pixels */
"J E #.Q ! ! ! #.#.Q Q %.! %.%.! ~ 8.8.#.Q Q ! 9.8.#.%.8.! Q Q Q ! #.8.~ ~ 9.8.Q E Q 8.Q Q 8.! ! 8.Q Q 8.8.8.8.8.! #.8.#.Q Q 8.9.8.8.8.8.! Q Q ! ! ~ 8.~ Q 9.Q P ",
"W Q #.#.8.8.! ! ! ! ! 9.9.8.8.! 8.8.8.! Q ! 8.8.8.! ! ! ! #.9.9.~.8.Q P L R R P E +.#.#.8.8.! ! ! ! 8.8.9.8.8.8.! 8.8.! Q Q 8.8.8.! ! ! ! 8.9.9.9.8.8.! ! 9.#.Q ",
"%.8.8.9.~.9.~ Q ! ! 9.~.9.9.9.8.8.8.~ ~ #.8.9.8.8.~ Q ~ ! ~././.^.9.+.T T  .U T 9.8.+.8.8.9.8.! #.8.8.9.9.9.9.8.8.9.8.! 8.9.9.8.8.! ! ! 8.^./././.9.8.Q ! 9.9.8.",
"#.8.^./.^.~.8.8.%.%.8.~.^./././.^.~.8.~ 9.^./.^.~.9.^.^.^.^.^.^.E T E.!.&X&X&X&X!.E. .W 8.9.8.8.8.8.8.^.^./././.^.9.8.Q 8.^.^.^.~.9.^.^.0.9.~./.^.^.^.8.8.^.9.Q ",
"Q 9.0.~.^./.^.~.~.9.9.~./././.^.^.^.~.~.^././././.^./././.8.+.R @.E.[.-X;X;X;X;X-X[.E.E.R.R %.^.~.9.9.^././.^.^.^./.^.~./././././././././.0.9.9.9.9.^.^.9.9.8.8.",
"! #.#.8.~./././.^.^.^.^././.9.9.~././././././././././.^.%.%.O. .[.-X*X*X=X&X&X*X=X-X-X-XE.T +.^.^.^.~.~./.^.9.9.~././.(././././././././.^.9.8.9.! 8.^./.^.9.8.8.",
"Q #.#.9.9.9.9.9.9.8.8.8.8.9.^.^./.^.~.8.9.9.0.^.^././.#.L @.Q.[.*X[.!.=X!. . .Y.!.&X&X=X=X[. .H ! 8.8.8.9.9.^.^.^.^.9.8.8.~.~.^.^./././.^.8.8.9.! +.^././.9.! W ",
"Q Q #.9.9.8.8.8.~ ! ~ ~ ~ ! 9.^.^.^.9.8.9.8.8.9.9.~.%.@.Y.Q.&X*X&X!.Q.!.Y., m X.W.W.E.!.&X&XY. .L P Q ~ ~ ~ 9.^./.~.9.9.9.8.8.8.9.^././.^.^.9.^.8.8.^./.^.9.Q E ",
"Q ! 8.~.9.! ! ~ ~ ! ! ~ ! ~ ! 8.^.9.^././.9.#.Q 8.8. .T.-X-X&XT.E.Q.Q.T.U m U T.T.U...Y.Y.Y.Q.E. .L E Q ! ! ! 8.~.~.^././.~.~ ~ 9.^././././.(././.^././.^.! Q ! ",
"Q ! #.9.9.8.! ! Q 8.8.! 8.8.8.~.^.~./././.^.9.#.Q  .E.&X-X*XQ...V V Y Y Y I  .U.X...S Z m N E.!.Q.Q.Y.D P ! 8.^.^.~.^././.^.9.^./././.^.^.^.^.^.8.~ 8.^./.^.8.! ",
"! ! 8.~.^.9.8.~ 8.9.9.8.9.^.^././.^./././.%.#.R.Y.Y.!.&X!.&XW.A & % m S Y U U U Y U S > & m X.W.*X&XW.Y D R Q 9./.^././.^.^.^././././.^.9.9.^.^.~ Q ! 9./.~.~.%.",
"%.#.8./.(./.9.9.^.^././.^.^./././.0.^./.#.E T E.Q.E.T.T.W.&XQ.Y Z Z N Z A Z Z Z U U A m M S Y X.Y.T.E.E.X.D K 8./.~.^./.9.~./.~.^././.^.8.^././.8.Q ! ^./.~ ! %.",
"Q ! %.9./././.~.#.9.^./.~.9./.^.9./.0.Q L X.W.Y.X... ...U.Q.Q.Y I I Z M Z Y ..Y I S S I S I Y.U.S  .X.U.Y U Y.Y.@.W 8./.^././.^.^./././.^./././.^.~.^././.9.! ! ",
"Q ! 8.~.^././.^.#.8.9./.~.9.^.~.9.^.Q L S U.W. .N m m Z Y T.E.Y Y I N Z S Y  .U Z Z S Y Y Y Y.X.N S S Z Z U T.Y... .Q 8.^././.~.^.^././././././.^./././.^.~.8.! ",
"#.%.^./././.^.^.^.9.9.^.^.9.^.^.^.Q J Z Y Y S S > $ * m I U.U.S A S Z Y ..M > , > m Z I Y ..I S A N > & > N S Y X.T. .6 ~ /./.8.8.9.^.^.^././.9.9.9.~.9.9.^.~.9.",
"! 9.^.^././.^.^././.^.^.^.^.#.Q T T U U I S Z Z m , > M A X.X.S C S S Y U > * * = N U  .Y I Z N > > & & > M Z Y X.T.X. .K W 9.8.8.9.9.9.8.^.^.^.^.^.^.^././.~.! ",
"! 9.^.9.9./.^.^.^./.^.8.8.#.W D N U Y U Z Z A Z M m M N Z U Y Z N S U I C M M M N S ....I N Z M , $ * m M N N U ....Y.T.S L R Q ! %.9.%.%.9.~././././.^././.~.%.",
"#.%.8.! 8.9.9.~.^.8.~ ! J B Z A S Z N M M Z A A N m M m = M Z Z N Z Z Z Z Y ..Y I S S S Z M N Z m > = m M M M Z Z S  .Y.T...A J W ~./././././././././.%.8.^.~.%.",
"#.9.9.8.#.8.9.9.9.8.8.9.G , > Z A Z N Z Z S U S Z M M M m N Z Z S S Z Z I I  .^ S S C S Z N M Z S Z M N m > m M N Z S U X...S V L ~././.~.^.^./.~.%.^.%.8.8.8.%.",
"! 9./.~.9.9.9.9.8.8.9.8.G - > M Z N Z S S U  .U S M Z Z Z S Z Z U U C I Y A < : V N N S Z N M S Y I A Z N m > N A S A Z M S I Z D Q ~.^.%.9.^.^.%.! ~.~.9.~ ! %.",
"8.9.^.^././.^.^.~.%.W G B > > m Z Z Z Z Z Z S U I Z N m > Z S I S A Z I I C < : ; : w V C C Z Z U Y Y I Y Y S S I I I Z m m m m > , E %./././././././././.9.%.%.",
"8.9.^./.^.^.^.^.^.! J > = > > m M m M M N N m M N Z N M > Z A A A Z Z S S C ^ r r e : N C Z m N S I I I U U S S I S Z m = = = = = & B K Q 9.^.^./.^.~././.^.9.%.",
"#.9./.^.0.^.^.^.9.L , = = = = m M m m m N m > & > N N M M Z Z N N N N Z N M t s s t m Z C Z m m M Z C S Z N A A Z M = & & = m = = * & = , L #.8.! 8.8.^./.~.%.%.",
"#.9.9.^.^./.^.9.Q B - * = = = > m m m m N M > > > m m M Z M < < M C M m M m t r : M Z C Z N M M M M Z Z M m N M m = = = = > = = = * * = - , B P ! ! ~.~.^.^.8.! ",
"#.8.^.^.^.^.~.Q G - * * & * = > m M = = > m > m M m m M A M : e < C M M M > : e M C Z Z M Z M M M M m > > m N M m = = > m > > = = & * * * & - B E ! ^.^.~.~.%.! ",
"Q 9.^./.9.! ~ E = * * * $ $ $ > = = = * * * m Z Z Z m M C C < q < M m M M > ; < A A Z m M N m m N m * % = M m m > = = > = = = = * * & * * * * & G ! ~.^.~.~.~.! ",
"! 9.^.^.! ! J B * * * * & & * = = * = = = = = m m m > > m C V : : > = m m m > > N M > * > N m = > > = = = > > > = > = = = = = * * & & * * * & & * J ! ^.^.^.~.! ",
"#.9.^.^.%.Q F * * * * & * * * = * = = = > = = = = = = = = M N > , = = = = = = = m > = = = m = = > > = m > = > = = = > = * * * & & $ * * & * * & $ = D ! ^.^.~.%.",
"! 9././.~.Q B & * * * * & * & * * = = = = = = = = = = = = > > > = = = m = = = = = = = = > = = = = = = > = = = = = = = = = * % % $ & * & * * * $ & & & L ~.~.! ! ",
"! #.^./.%.J - $ & & * & * & & * * * = > = * = & & & = = = = = = m m = = = = = > = = = > = > = = = > m = = = = = = = * = * & $ $ & & * * * & & & $ % & L ^.~.! Q ",
"Q %.^./.R - & $ & * * * * * $ & & * = = & , * & % * * = = = = = = > = > = = = = = > = = = = = = = = = = = = * = * * * & * & & & * * * & $ & $ & $ $ F ! /.~ ! ! ",
"#.~././.R & & & $ & & * * & & $ % & & & * & & * * * * * = = = * * = > > > = = = = = = = = = = = = = = * * = * * * & * & * * * * & * & & $ $ $ & $ B ! /./.^.~.%.",
"! 9.^.^.Q F & $ $ $ $ & & * * $ % * * * * * * & * * & * * * & $ % % * * = = * = = = = = = = , * & & $ $ $ $ * * & * * & * * & * * $ $ $ $ $ & - J Q ~.9.~.^.^.%.",
"! #.~.~.9.W G - & $ % & $ & & & $ & & * & & * * & * * * * * $ % $ $ * & * * * * & & & = = * = * & $ $ % $ $ * & & * * * & & $ & $ $ % % $ , B L 8.^.~.~ ~ /.^.! ",
"! #.9.9.^.^.8.L - & * & $ $ % $ $ & & & & * * * * & * & & * * & * * & * * * * * $ $ * & & * & & & & & & & * * * * * * * & % $ $ % % $ $ & G W ~.^.~.9.~.^./.~ Q ",
"! ! %.! 9./.^.! P F , - $ # . @ % % $ $ & $ & & & * & * * * * * = & * & & & * * $ & * * & * * * * * & * * * * * * $ $ $ % # # # X $ < V G E #././.^.~.^./.(.~ E ",
"! ! ! ! 8.9.~.~.^.Q P F 6 < 6 ; % $ % # @ % % % % & & & * * & * * & & & & & * * * * * * * & & * * * * * & & & & $ # # # % $ ; ; e p | =.+.~ ~.^././.^.^././.! Q ",
"%.! ! #.~ 8.9.^.^.0.9.8.&.d.N.2.: ; $ . @ % % # # % % $ % @ % % $ & & * * * & * & * & & * * * = * & $ $ $ $ $ $ % # . % ; < p 4.m.K.@X}.$.9./.9.#.%./././.~.~.! ",
"%.#.%.9.~.9.9.~.~.0.~.^.-.].8X2XN.m.7.<._ ; X , ; % # . . @ @ @ % % $ & & $ % & $ & & X # & $ $ % % # @ # . # . $ 6 7 p <.2.b.>X5XiX%X'.$.9./.^.#.#./.^.%.9.~ 9.",
"! %.~.^.^./.^.9.9.9.9.^.d.{.qXlXjXuXtX:Xn.;.0 p _ :.) 7 6 6 - & & $ $ $ % # # % # % $ 7 6 % # % # $ # $ - ; 6 7 p 2.n.D.J.3X3XiXsXsXOX_.8.8.^.^.8.%.^.8.! %.%.! ",
"E ! ^.^.~.^.^.^.^.9.~./.-.].8XsXgXgXMXyX;.G.zXr.Z.zXzXeXJ.n.2.{ y : ; % # @ # . @ . + ,Xr.X X , ; ; < a <.v.S.L.eX3XtXdXcXdXaXaXsXwX#X'.$.8.0.^.^./.^.^.~./.9.! ",
"Q ! 9.9.9.~.8.9.9.9.9.^.-.].%XpXaXgXBXxX<.q.1Xq.n.1X,XG.q.2.{ _ t : ; ; o ; ; ; ;   ; r.7.: p <.2.n.S.J.>XeXtXdXcXbXnXnXMXnXhXsXsXpX%X'.O.8.^.^.^.^.9.8.9.^.~.#.",
"%.%.8.9.~.9.#.! ! 8.9.0.-.].%XwXgXaXlXdXm.} ( ] ' t w w w : w w w w w w t w w t w : ; t _ 7.D.,X4XtXdXuXfXkXkXkXnXNXnXjXcXcXjXfXsXpX%X'.O.9.^././.~.#.Q ! 9.9.%.",
"! 9.^./.^.~.#.8.9.#.~ 0.-.].6XpXaXaXaXaXuXeX,Xp t p.p.p.p.[ ' ' / / ' [ ' ' / / ' t w a D.yXdXcXjXmXvXjXjXjXkXvXnXmXmXnXhXhXhXgXhXwX$X'.$.8.^.^.^.^.^.8.%.~.8.! ",
"! 8.9.^.^./.^.~.^.9.9.0.-.z.8XsXaXaXaXaXlXmX1Xp : [ *.*.[ ] ( { _ _ { ] / y / t / t w { >XNXNXNXNXnXkXkXjXjXfXvXvXkXvXnXjXhXjXfXgXpX$X'.8.8.9.~.9.9.^.^.9.~.8.#.",
"! #.8.8.~./././.^.^.^.^.=.M.8XsXaXaXfXjXlXdX<Xp ; < : : : 4 h :.:.:.:.l 0 4 ; : : ; : } <XVXMXmXMXjXjXnXjXcXcXvXMXjXvXvXvXcXjXfXgXpX$X_.$.~ 9.9.~ ~ ^././.8.8.8.",
"Q ! ! 9.9.9.9.9.8.8.%.%.*.l.8XpXaXpXfXcXhXfX<X7 X : : 4 7 j l l l :.:.:.c h l :.: o ; } eXZXZXmXnXnXcXcXbXMXCXCXBXBXbXkXvXvXjXfXfXpX$X'.$.#.8.8.Q +.^.^./.9.~ W ",
"Q Q 8.^.9.#.~ 8.#.! ! %.&.l.6XwXaXaXfXjXjXjXeXp o 6 : 5 l >.>.:.:.:.:.5.5.w.5.:.7 o ; | J.1XmXmXlXmXNXNXuXrXrXeXeXeXtXaXjXvXcXfXfXpX$X'.$.8.~.^.8.9.^././.8.W W ",
"Q Q %.9.9.! ! ! ~ ! ! #.&.l.%XwXgXaXgXgXjXbXyX} : 2 5 j v 5.5.:.c v c ,.e.G.e.l 9 4 : } ] a 1XcXjXnXBXVX>Xc.x.x.n s b.2XjXmXjXfXsXpX$X'.$.^./././.^.^./.^.! Q Q ",
"Q #.%.%.9.8.! ! ! ~ ! #.=.g.oX9XaXaXiXgXnX1Xq.q._ 5 j :.k f 9 9 9 9 8 f k l ,.w.,.9 4 t t _ eXVXmXMXdX<Xc.n s s n s s c.uXmXdXgXfXpX#X_.#.%.^.^.9.#.8.^.^.~.8.8.",
"! ! #.^./.~.8.~ ~ 8.9.9.-.g. X%XaXaXaXjXMXJ.t { ;.9 :.c 9 8 8 9 f k 9 9 8 + k 5.w.:.5 : _ F.dXVXMXNXtXc.n t.x.x.x.c.s i 1XdXhXgXgXqXXX).O.%.^.^.8.W ~ 9./.^.9.8.",
"%.#.#./.(./.9.8.~./././.-.k. X%XaXiXhXMXNX,Xa 1 2 l :.0 2 k v x w.w.v ,.v f + 8 w.5.j p F.VXNXnXlXBX1Xt s c.C.x.x.I.n e b.4XlXgXaXqXOX).O.9././.9.Q ! ^./.8.8.8.",
"Q ! 8.~./././.~.#.%.^.(.-.h. X%XiXiXgXlXmXtXb.4 f 6.l 9 9 e.V.3.B.V.3.e.B.v 8 + :.,.>.p G.ZXNXkXkXnX,Xe V.C.b q u x.n g { :XbXgXpX0XoXh.$.~././.^.9.^././.9.8.~ ",
"Q #.9.9.^././.^.#.#.%.(.=.h. X%XiXaXaXgXmXuX:Xp c A.k 8 k S.H.4.V.S.7.S.D.3.k 8 9 :.6.p G.VXBXkXjXcXP.e V.L.o   O i n x.y J.BXjXpX0X#X'.$.^./.^.^./././.^.^.8.8.",
"! %.^.^././.^.^./.~.%.(.-._. X%XiXaXaXgXlXtXm.;.>.A.k 8 b H.D.4.D.H.6.S.H.6.v h 3 :.e.5 A.ZXBXcXjXmX,Xr g d O o o O 1.C.t F.CXjXqX6X#X'.$.^./.^.9.9.~.9.0.~.9.8.",
"! 9./.0.^././.^././.^.^.=.h. X%X0XaXfXjXnX5Xb.p 5.A.f 8 e.L.H.6.J.L.4.m.J.Z.4.k 2 >.B.7 r.CXBXvXkXmX1Xi s i o + o O 1.C.d ,XBXjXiX8X#X'.+.8.^.^.^.~.^.^././.~.8.",
"~ 9.^.9.9./.^.^././.^.9.=.h. X$X0XiXaXhXcX3Xc.p 5.A.8 5 v.L.K.7.K.>X4.v.K.D.7.z 2 :.r.5 A.VXNXcXvXNX1Xi s s o o o O n C.1.:XmXlXwX8X#X'.Q ~ ^./././././.^./.^.%.",
"8.9.8.~ ~ ~.9.0.~.8.~ #.=.f.XX#X8XiXaXaXvX4X| p ,.e.8 u S.2XK.6.K.>X3.n.K.S.7.<.2 l w.5 r.MXnXjXvXMX1Xi n t.o   o O b x.x.:XlXiXpXqX#Xl.0.~./././././.~.! ^.~.%.",
"~ 9.9.8.~ 9.9.9.8.8.8.9.=.h.XX#X%XiXaXaXkX4X| p :.w.3 f D.3XJ.7.2XL.v v.K.Z.B.3.3 l w.5 r.mXnXhXvXCX1Xu x.c.O o e s g n b.4XpXpXwX8XXX).O.9.^./.~.%.~.~ ~ ~.~.! ",
"! 9./.~.9.9.9.~ 8.8.~.^.=.d.XXoX%XqXaXfXjX2X| h l ,.3 f S.L.H.7.L.3Xz n.K.n.7.3.2 c w.5 e.bXvXjXvXZXrXa x.C.i e i t.s i }.0XaXiXqX6XXXd.O.8.^.^.%.! ~.~.9.! ! ! ",
"8.9.~.^././.0.0.~.8.~ #.( i..XoX$XqXaXsXhX}.} p l 5.2 0 Z.L.D.B.3X>Xz B.L.v.3.z 2 l 6.5 e.dXkXvXnXNXyXb.a g c.x.n x.r p rXlXaX0X7X%Xh.*.9.^./././././././.9.%.%.",
"8.9.^././././././.^.9.9.&.y.h.XX$X7XqXfXlX:X[ 5 l ,.8 8 z 4.6.4.Z.B.x 4.Z.7.v h 1 :.5.9 7.uXkXnXvXvXdXrX2.i n s r i a b.uXnXaX6X$XXXf.] $.9./.^./.^.^././.^.%.%.",
"#.9./.^.9.^./././././.(.-.a.p.+X$X%X8XpXhX2X| p l >.9 2 3 5 j k b :.h x ;.3.;.h 3 l 5.9 7.tXvXnXjXjXvXNX1X2.u e e e n.4XiXlXwX$XXX|.f.=.O.Q 9.9.9.8.%.~./.~.~.%.",
"#.9.9.^././.~.9.9.^././.=.i.l.z.|.oX%XqXsX2X| h l >.8 9 3.<.;.z z z z z <.<.<.z 3 j 5.5 7.tXdXvXjXfXjXcXjXyX<Xb.c.J.5XaXgXpX%XOX|.a.z.d.O.+.8.8.! ~ 9.~.~.^.%.! ",
"! 8.~.^.^.^.9.9.9.9.9.8.( p.z.z.z.|.$X9XiX2Xi.p j :.2 h e.B.Z.Z.B.Z.S.S.S.V.7.v 2 k v 8 2.tXaXlXfXfXfXgXlXlXlX4X3XiXfXsX8X%X$X Xh.a.z.d.O.Q 8.8.! ~ ^.~.~.~.%.! ",
"! 9./.^.9.8.8.9.^.^.9.8.` y.k.M.N.].XX%X6X@Xb.7 9 c 2 9 6.B.L.L.L.3X3XL.L.L.e.k 3 k >.3 6.5XuXsXaXaXfXaXaXiXpXlXsXsXpX8X#XoX Xg.f.h.h.p.W Q ~ 8.! ! ^.^.~.~.%.! ",
"#.9.^.~.8.~ ! 8./././.0.` ] k..X+X}.M.k.$XXXp.p 9 c 8 3 k k c v v v v v c k k f 3 h c 3 6.5XaXaXaXaXiXiXaXaXqX8X%X%X%X#XoX|.s.s.h.z.s.] W ! 8.8.%.9.%.~.^./.9.%.",
"#.9.^.^.9.8.8.9././.^.^.O.( s.|.+X@X}.z..Xk.[ p 9 l 2 9 v k f k k k k h f k l k 8 9 h 3 2.6X8X9X7X8X8X7X9X9X%X$XoXoX.X.X|.`.h.f.h.h.[ ( #.9.^.^.^./.^.~.~.^.~.! ",
"! ~./././././.^.^.^.9.8.8.o.p.f.k..X@X5Xl.i.[ u 9 l + k D.B.v.V.v.v.7.7.e.S.V.4.9 8 h 8 } .X XXX X#X$XXX X X XoX#X|.g.l.l.{.+Xk.f.u./ ` /././././././.^.~.^.%.! ",
"! ! ~./.^.9.^./.^.^.9.8.0.@.( [ f.g.z..X+X+XM.p 9 k 1 k H.D.S.D.H.D.Z.7.v.K.H.7.5 8 h 3 _ h.`.`.`.`.`.`.`.j._.g.h.k..X+X{.l.f.a.u.[ ` +././.^././.^.%.^.~.! ! Q ",
"Q %.^./.~.%.~.^.^.^.9.8.0.9.` / y.s.f.g..X@XN.z 9 l + z D.F.S.D.K.J.S.7.m.L.H.6.8 8 h 5 { l.{.{.{.].].`.j.g.g.f.h.k..X+Xk.s.y.y.[ ' O.9./.^.^.^./.^.~.^./.%.! ! ",
"! ~././.^.~.8.~./.0.8.8.8.8.Q ) ' u.u.a.g.k.s.a 9 h + j D.D.S.n.D.H.n.7.v.H.S.3.5 8 h 3 2.@X5X5X0X2X@X.X|.|..XXX.Xk.k.f.s.u.y.y.' H #././.9.9.^.^././././.^.~.! ",
"! %.^.^.~.9.~.~.~.~.%.#.~.^.~.#.` / [ a.f.f.a.a 8 h + k Z.S.e.4.B.B.3.>.3.B.B.b 5 8 h 5 } z..X@XXX.X.X|.j.g.k.k.f.a.a.a.s.u.' ( K P 8././.9.9.^././.^.9.~.^.^.~.",
"! %.~.~.~.~./.^.9.^.^.9.^./.^.^.! K ( [ [ p.p.p 9 9 + f 7.B.3.v b 3.v c v 3.3.v 8 9 k 9 d a.g.g.j.j.g.f.f.f.a.a.u.y.y.y.y.] ^ H P +.~././.^.^././.^.~.#.! /.~.! ",
"! %.%.%.^./././././././.~.~ /.^.~.9.+.K t ' | p 9 h 2 9 v b v v v v v k k b v k 3 9 h 8 y [ u.u.u.u.y.u.u.u.a.a.a.u.s / ) K P W ! ~.~.^././.^./.^.~.9.~././.~ ! ",
"! ! ! %.9.^.^./././.^.^.~ ~.^./././.9.Q W O.` 9 9 9 8 3 f u u f f u u 5 3 5 9 3 3 9 f 3 : y / ' ' y / / / / ( ] ] o.` T W ! ~ ~ 9.^.9.8.9.9.~./././.9.^././.! E ",
"! ! ! ! 9.~.9.~././.^.! ~.^././.^.^.^.~.^.~.Q H 0 0 7 7 u p p u 7 : 4 : ; 1 1 1 4 0 9 6 6 < ^ ^ ^ ^ ) ^ ) H K L E Q ~ 9.^.^.~.9.^.^.^.9.8.8.~.^./.^.^.^././.! Q ",
"%.! ! ! ~ ! ~.^.^./.^.~.%.~.^.^.8.8.8.9././.~.~ 9.9.8.Q K P K J F G K J P J J P E P J K P E +.#.$.%.%.%.#.%.0.8.~ ~ 8.9././.^.~.^.^././.^.^.^.9.%.%./././.^.%.! ",
"! ! ! ! ~ ! %.! ! ! %.%.%.%.%.! 8.8.8.9.9.9.~.~.~.9.9.! Q ! Q W E P Q E E E W Q Q Q E Q ! ! ! #.9.#.8.8.%.8.9.8.9.8.8.9.9.9.9.~.9.9.9.9.9.9.9.9.Q Q 9.9.! ! ! ! ",
"E W Q ! 8.9.! ! ! Q Q ! ! ! ! ! 8.#.%.%.Q Q ! 8.8.! ! ! ! 8.8.8.W Q ~ Q E E ! ~ ~ ~ ~ ~ 8.8.#.Q Q Q Q Q #.+.Q ! 8.8.9.8.Q Q ~ 9.8.#.#.! #.Q 8.8.Q Q ! W E W W E "
};
