/* XPM */
static char *Group_3_resized[] = {
/* columns rows colors chars-per-pixel */
"80 80 217 2 ",
"   c #1E3718",
".  c #0C0424",
"X  c #14162D",
"o  c #0E0C30",
"O  c #130F33",
"+  c #181836",
"@  c #241738",
"#  c #1D3A2E",
"$  c #182635",
"%  c #1F333C",
"&  c #213D25",
"*  c #212F3E",
"=  c #254618",
"-  c #2E531A",
";  c #30571D",
":  c #325B1C",
">  c #37631B",
",  c #39661C",
"<  c #3D6D1D",
"1  c #3F711F",
"2  c #1C4C36",
"3  c #254929",
"4  c #2D552A",
"5  c #335B24",
"6  c #315A27",
"7  c #284A38",
"8  c #2D5437",
"9  c #345B38",
"0  c #3C6D22",
"q  c #386428",
"w  c #3F7220",
"e  c #356331",
"r  c #41751F",
"t  c #43781F",
"y  c #417620",
"u  c #457C21",
"i  c #47762A",
"p  c #4B7C2B",
"a  c #4E7C33",
"s  c #48703B",
"d  c #1D1640",
"f  c #291F43",
"g  c #282549",
"h  c #243A46",
"j  c #2F3351",
"k  c #3E3D55",
"l  c #3B3E66",
"z  c #403D56",
"x  c #1C564E",
"c  c #284749",
"v  c #2B5647",
"b  c #33564E",
"n  c #345A49",
"m  c #2C4651",
"M  c #314B53",
"N  c #2B5652",
"B  c #335B53",
"V  c #385A52",
"C  c #335D5C",
"Z  c #2F664C",
"A  c #366349",
"S  c #2B6758",
"D  c #336354",
"F  c #34635A",
"G  c #3D6758",
"H  c #2E5D60",
"J  c #236662",
"K  c #256A65",
"L  c #2B6A69",
"P  c #366663",
"I  c #396C63",
"U  c #376A68",
"Y  c #28706B",
"T  c #357463",
"R  c #377569",
"E  c #3D7569",
"W  c #3C7B6B",
"Q  c #346E73",
"!  c #367777",
"~  c #46684D",
"^  c #4F7447",
"/  c #52754C",
"(  c #557A48",
")  c #5A7B4E",
"_  c #466A54",
"`  c #416A5A",
"'  c #4D7256",
"]  c #5C7C54",
"[  c #444668",
"{  c #504C6F",
"}  c #4C5276",
"|  c #605777",
" . c #456666",
".. c #44786C",
"X. c #427D6C",
"o. c #457E71",
"O. c #478022",
"+. c #498423",
"@. c #4C8A24",
"#. c #4D8529",
"$. c #4F8929",
"%. c #508D26",
"&. c #518C2B",
"*. c #4F8231",
"=. c #558B34",
"-. c #57863A",
";. c #5D913C",
":. c #3E8770",
">. c #3D8477",
",. c #5D8943",
"<. c #5E864F",
"1. c #618C48",
"2. c #619242",
"3. c #648955",
"4. c #6A9554",
"5. c #43816E",
"6. c #4D826E",
"7. c #448473",
"8. c #478976",
"9. c #42867D",
"0. c #498D7C",
"q. c #578979",
"w. c #449276",
"e. c #4B927D",
"r. c #5A9A7C",
"t. c #45A07F",
"y. c #3A7D83",
"u. c #707587",
"i. c #448B82",
"p. c #4B9581",
"a. c #4E9C84",
"s. c #40938A",
"d. c #539D84",
"f. c #479F93",
"g. c #659C87",
"h. c #4CA686",
"j. c #50A186",
"k. c #52A48A",
"l. c #54AA8D",
"z. c #58AF8D",
"x. c #49A095",
"c. c #4BA49B",
"v. c #49A99E",
"b. c #54AB93",
"n. c #57B294",
"m. c #59B493",
"M. c #5BBB96",
"N. c #56B39D",
"B. c #5DBD9A",
"V. c #67AB8E",
"C. c #64B796",
"Z. c #75BE9E",
"A. c #7683A0",
"S. c #49ABA0",
"D. c #51ADA3",
"F. c #52AFAE",
"G. c #4EB3A8",
"H. c #54B4A2",
"J. c #56B7A6",
"K. c #5ABCA4",
"L. c #59BEAA",
"P. c #4BA7B8",
"I. c #5EC39A",
"U. c #5FC99D",
"Y. c #61C49D",
"T. c #6AC29D",
"R. c #62C99F",
"E. c #76C19E",
"W. c #5EC3A1",
"Q. c #5AC1AC",
"!. c #5BC5B3",
"~. c #5ECAB8",
"^. c #64CCA1",
"/. c #79C6A5",
"(. c #66D1A4",
"). c #6AD3A5",
"_. c #6CD7A8",
"`. c #6BDBAA",
"'. c #78D8AB",
"]. c #62D2BD",
"[. c #7CDFB0",
"{. c #6EE1AE",
"}. c #76E1AF",
"|. c #6FE7B2",
" X c #75E9B4",
".X c #53B8C5",
"XX c #5FCFC6",
"oX c #5ED2C8",
"OX c #61D5CA",
"+X c #62D7CD",
"@X c #5FD6E6",
"#X c #62DAE6",
"$X c #66E3E7",
"%X c #87869C",
"&X c #8890A9",
"*X c #88D4AD",
"=X c #88E8B8",
"-X c #94EEBE",
";X c #98EFBF",
":X c #95F0BF",
">X c #9CF1BF",
",X c #ABF5BF",
"<X c #B2F4BE",
"1X c #C6FCBF",
"2X c #B4BCCC",
"3X c #91EEC2",
"4X c #9CF3C2",
"5X c #9AF5C4",
"6X c #A2F4C4",
"7X c #A7F9C7",
"8X c #A4FACB",
"9X c #B9FAC5",
"0X c #B4FCCB",
"qX c #AAFDD3",
"wX c #C6FDC5",
"eX c #D4FEC3",
"rX c #D5FFC6",
/* pixels */
"- > r < r r r r r < < r r r t r 1 t t r < < 1 u y 1 t t 1 < < < r r y r 1 u r < > < r < < r 1 r r < < r y t t r 1 t r r < < 1 t u r r r r < < r < y y 1 r t < : ",
", < r r y y < < r < r u r t r r w y r 1 < 1 r y t 1 1 1 w y u u u y r < < u u u y y r r r r 1 1 r 1 1 t y y r 1 1 t y 1 1 1 r t r < r < < y u u u u r < r t r < ",
"t t r t u u r r r r u O.u u u y y y w 1 r t u y w w 1 < y u @.@.@.O.r < r u @.@.@.O.y u u u r 1 r r t O.u u y y y y y < r y u y r r < r y +.@.+.+.O.r < r u t r ",
"r t +.@.+.u y t t r r O.+.+.@.@.+.O.y w u +.@.+.O.O.O.+.+.O.+.+.+.+.O.u r O.O.O.+.O.+.@.+.O.r r t r r O.+.@.@.@.+.O.y 1 u +.@.+.O.O.O.O.+.u +.+.+.+.O.u t O.t r ",
"r r u +.+.@.+.u O.u u O.@.@.@.@.+.+.O.O.@.@.@.@.@.@.@.@.+.O.u O.u u +.O.u u O.+.O.O.O.u +.@.+.O.+.t u O.@.@.@.@.+.@.O.O.@.@.@.@.@.+.%.@.+.u u u u u +.O.t O.t r ",
"r r r r t %.@.@.+.+.O.+.@.+.u u +.@.@.@.@.@.@.@.@.@.@.@.O.u y u 0 y +.@.@.u O.@.+.u y y O.@.@.@.@.+.+.+.@.@.u u O.@.@.@.@.@.@.@.@.@.@.@.+.u u u r y #.@.+.u t t ",
"< < r t t t u u u y y y y u +.+.+.+.u y u u u O.+.@.@.+.+.t t y r < O.@.@.u u r u u r u u u u u y y y y y u +.+.+.+.O.y y O.O.+.+.@.@.@.+.u t t < r u @.%.u < , ",
"< r r t +.r t t w y 1 w 1 r u +.+.+.u u u y u t u @.@.@.@.O.O.O.u t +.@.+.y r r u y r O.u y y 1 r 1 1 w 1 1 u +.@.O.O.y u y y y u @.+.@.@.O.t +.u y O.@.+.t < > ",
"< 1 t O.u 1 1 1 1 1 r 1 1 w 1 y +.t @.@.@.t u < r +.@.@.@.@.%.@.O.O.@.@.+.y y u u u u u u r 1 1 1 w 1 1 1 1 1 w O.O.+.%.+.O.1 1 t +.@.@.@.@.%.@.+.+.@.@.+.r < < ",
"< 1 r t u y 1 1 1 w 1 1 y y y O.+.O.@.@.@.@.u O.@.@.@.@.+.+.+.+.u y y +.+.O.+.+.u y r u u y 1 1 1 1 1 1 w u u O.+.O.+.@.%.+.O.+.@.@.@.@.+.O.O.+.u y u +.+.u y r ",
"1 1 t O.+.O.y w r u u u O.O.+.@.@.+.@.@.@.+.+.@.@.@.@.@.t t +.+.r < 0 u @.+.+.@.O.u y O.+.O.r r w O.u 1 O.O.+.+.@.+.+.@.+.+.+.@.%.@.@.+.t u +.+.y , < u @.+.u t ",
"t 1 1 @.%.@.u y O.+.@.@.+.+.@.@.+.+.@.@.t O.@.O.+.@.@.+.r +.@.@.y < r +.+.u u @.@.O.y +.@.@.u u +.@.@.@.+.+.@.@.@.+.@.@.O.O.+.O.O.@.%.O.t O.%.@.y 0 r O.@.y r r ",
"1 1 r O.@.@.@.O.y y +.@.O.u @.O.t @.@.@.+.@.@.+.+.@.@.@.+.@.@.@.O.u +.@.@.u u +.O.u y u @.@.@.O.1 O.+.@.O.O.+.+.O.+.@.+.+.+.@.+.+.%.@.@.+.+.@.%.O.+.+.@.@.u t r ",
"< 1 t t +.@.@.+.r w u @.O.u +.O.t %.O.u @.@.@.u +.@.@.@.@.@.@.@.+.@.@.@.O.#.O.O.u y u O.+.@.@.+.1 1 O.@.O.u +.O.u +.+.O.+.%.@.+.O.+.@.@.%.@.@.+.+.+.%.+.+.O.y r ",
"r t +.@.@.@.+.+.@.O.u @.O.O.+.@.+.t r r u @.@.u t t t %.@.@.@.+.u u u u O.+.@.@.+.O.+.+.@.@.+.+.@.O.O.+.O.O.+.@.@.+.1 1 O.+.@.w r u +.+.+.@.@.O.u u u O.O.+.u t ",
"r t @.O.@.@.+.+.@.@.+.O.+.+.+.@.#.y r r y u u t t t t t t t +.+.+.+.+.+.+.@.@.@.O.+.@.O.+.%.+.+.@.@.+.O.+.+.+.%.@.1 1 1 w u +.1 y u u u u u +.+.+.O.+.+.+.@.u u ",
"1 t +.u u @.+.O.+.@.+.u u O.+.@.@.u t y r y y y t t t t t u t %.@.@.@.@.+.@.%.@.O.+.+.u u @.+.+.+.@.+.O.O.+.@.@.@.y t t r y y y u u u u y u +.@.@.@.@.+.@.@.u t ",
"t t y r r u u O.+.y w 1 r y +.@.@.+.O.u O.+.@.@.@.+.+.%.@.%.@.@.@.@.@.u t +.@.@.@.O.y < r O.u u +.1 1 1 1 y O.@.@.@.+.t O.O.@.@.+.@.+.@.@.@.@.@.@.@.@.u y O.O.t ",
"r u O.r y r u u u y y u w 1 O.+.@.@.+.+.u O.+.@.%.@.%.+.t +.%.@.u u O.t r r +.@.+.O.u u y u t u O.1 1 O.w 1 u @.@.@.+.O.u u +.@.@.@.@.+.O.O.+.@.O.t O.t r y t t ",
"1 t @.O.u u u u y y u O.r 1 O.@.@.+.@.+.u u O.+.@.+.%.+.t t @.+.t r u O.t r t @.O.+.@.u u u u u w w O.O.w w O.@.@.+.@.+.u u O.@.@.@.@.+.u u +.+.t r O.O.u r r t ",
"u u O.@.@.@.+.O.O.t r 1 0 y @.+.O.O.+.@.@.@.@.O.u @.#.@.%.@.@.@.@.@.@.@.+.u +.@.@.+.+.@.@.@.O.O.+.w w w 1 w @.+.O.O.+.@.@.@.@.O.O.+.+.@.@.@.@.@.@.@.@.@.@.u t t ",
"r u +.+.+.+.+.@.@.O.u u u +.@.@.O.u O.+.+.O.O.+.+.+.u +.+.+.+.+.@.+.O.%.%.u +.@.+.+.+.+.@.+.+.@.@.+.O.u u +.@.@.O.u O.@.+.+.O.+.+.+.O.O.+.+.+.@.+.+.O.@.%.O.t t ",
"r t @.+.+.+.+.+.@.%.@.%.@.@.@.@.+.y u u u r y @.+.u u y r r i t u u y @.@.#.&.@.#.+.@.&.+.#.$.@.%.&.%.@.%.%.@.@.+.y y u u y y @.@.O.O.y w y u u u r y +.@.O.t t ",
"t t u +.+.@.+.u u +.@.@.@.@.+.+.u u y r r u O.%.+.y t u u y r r r t p -.1.2.2.2.2.2.,.2.2.2.2.,.2.2.;.&.@.@.@.O.u u y y r u O.@.+.w y y u u y y r r u O.O.+.u r ",
"r t u +.+.O.O.u u O.u u +.+.+.u u O.u u u O.+.@.O.1 y y r r r r r r p s / / / / ( ^ ^ / ( ) / / / / s i #.@.+.u u O.u y u +.+.%.O.1 w y y y 1 1 1 1 +.O.O.O.t 1 ",
"1 u @.@.u 1 y u +.O.y w +.@.+.+.+.@.+.O.@.@.@.@.+.u y < r , r > , q 0 9 V V V V V n V b b b n V V V n 4 y +.+.+.+.@.+.+.@.@.+.@.+.y 1 1 1 w 1 1 1 t O.O.O.O.t 1 ",
"r u +.O.t 1 1 t @.@.+.+.+.+.u +.@.@.@.@.@.@.+.@.@.+.y < r r : = = = = G 5.7.7.5.6.6.6.X.T S S T R T Z 3 5 < u +.@.@.@.@.@.@.+.@.@.+.r 1 1 1 y u t u O.O.+.+.O.1 ",
"r u +.O.u t r t @.@.@.+.@.+.O.@.@.@.@.@.@.O.u +.@.@.u u r r 5 4 3 7 A r.E./.E.Z.E.E.E.T.z.h.h.t.h.h.w.S 4 5 w +.@.@.+.@.@.O.u +.@.@.O.t y O.+.+.@.+.+.O.+.+.O.t ",
"r t @.@.@.@.+.@.@.+.u y O.@.@.@.@.+.+.+.O.y t O.+.@.@.#.u q n ....o.V.*X0X0X0X0X8X8X8X5X=X}.`._.`.`.U.a.F 7 q u @.+.+.+.O.u y O.@.@.+.@.@.@.@.@.@.@.@.O.u O.1 1 ",
"< t O.@.O.u +.@.+.+.u y +.@.@.@.O.u u u @.@.+.y u @.@.y 5 n q.Z.*X*X*X<XwXrXwX0X7X5X5X5X5X=X}.`.).).R.n.7.D 8 5 1 u u u @.@.+.y u @.@.@.@.@.@.@.@.+.O.O.+.t 1 < ",
"r t O.@.O.r O.@.+.O.u y u +.+.O.u O.u u @.@.O.u O.O.y 6 8 6.Z.;X>X6X<XeX1XeXwX9X,X:X:X5X4X:X*X).W.I.R.I.k.W F 8 5 0 y u @.+.+.u O.@.@.@.@.O.O.@.@.O.t @.@.u 1 < ",
"r u @.@.+.O.t O.@.u y y y u y y u +.@.@.O.y 1 +.+.w 6 9 6.Z.3X7X0XwXrXrX1X1X<X,X:X:X:X>X7X6X=X).U.I.^.^.B.l.8.F 8 5 1 +.O.y r +.@.O.@.@.@.t t +.+.@.@.@.@.+.O.t ",
"1 t +.+.O.u O.O.O.O.u y u +.u u +.+.O.u u O.O.u 0 6 n o.Z.3X8X7X0XwXeXeX1X<X>X-X;X;X4X4X4X:X=X(.U.Y.^.).^.B.l.7.C 3 ; y u O.O.+.O.u +.@.@.O.u +.@.@.+.u u @.+.t ",
"1 t O.O.O.O.@.+.u +.+.y +.@.@.+.+.+.u y O.@.O.0 6 9 ..C.-X8XqX7X0XwXwXwX,X;X-X-X;X>X4X;X=X=X}.`.R.R.^.^.^.^.n.p.F # - < u @.@.u y u O.+.@.+.O.+.@.@.O.r 1 @.O.1 ",
"1 r u u O.@.@.@.@.@.@.@.u y @.+.+.@.+.+.O.O.< = 7 R b.).=X6X4X4X4X6X6X6X4X4X;X-X;X4X4X-X}.).(.R.^.^.^.(.^.B.l.0.C & ; u O.u u r u O.u O.@.+.+.@.+.O.u O.+.@.u < ",
"1 1 r 1 u @.O.@.@.@.@.O.u u @.@.@.+.@.+.@.O.0   7 >.B.[.3X=XZ.g.q.g./.-X8X6X6X4X4X8X5X'.z.W T 7.z.U._.).B.M.k.9.B & : O.@.#.u u u +.u u O.u O.@.@.+.O.O.@.@.1 > ",
"1 1 1 1 u u u O.@.@.O.t u +.+.@.+.+.+.+.@.@.0   7 9.Y.|. XZ.8.M * h o.*X6X8X5X4X4X5X=XC...h $ h W m.).Y.M.l.k.9.B 3 ; t @.@.#.t O.+.O.u y y O.+.@.@.O.+.@.@.1 < ",
"t r 1 r 1 1 O.O.@.@.+.O.u +.+.u y u y u %.u : 3 B a.Y.R.M.p. .z @ X k q.*X*X3X3X=X'.C.i. .z @ O h X.k.l.b.k.k.p.R 7 3 q +.&.+.+.O.@.@.@.O.@.+.u r t @.@.@.O.u t ",
"t r t t O.u O.O.O.O.O.O.+.u O.O.O.u p +.=.s 4 Z w.I.Y.j.U  .u.%X| j + m o.V.'.=X[.l... .u.%X| j + h P 8.d.l.k.b.x.R v 4 -.=.+.@.+.+.@.+.+.+.+.+.r r @.+.t t t t ",
"1 t O.+.+.@.O.u u y u +.+.+.u +.@.+.@.&.<.~ c :.I.|.(.8.h z u.2X&X{ O o h o.Y. X).W h z u.2X&X} O o % I a.n.k.K.Q.x.P v ] -.O.%.@.+.O.+.+.O.+.@.t t +.t 1 t t 1 ",
"> r +.+.O.+.+.+.+.u u @.+.@.+.+.+.+.+.&.3._ N w.U. X`.:.$ @ { %XA.} d . X T I.|.(.W $ @ { &Xu.} d . X C a.m.k.K.!.S.Q B 3.,.O.@.@.+.@.+.O.O.u +.+.+.@.u O.@.u < ",
"< r u u u O.u t u y u +.+.O.O.u u O.t p 1._ N 8.I.|.(.w.c + f M { l g + % X.Y.|.(.w.c + f [ } l j + % P a.n.k.K.!.v.L N ] ,.O.O.u u u u u u +.+.@.+.u r u @.u r ",
"t r r u O.u r r r y u O.u u u y y u w i <.~ v T z.).^.m.8.c + o O g j M I j.R.{.(.l.E % O o + g j m C 7.j.l.k.K.Q.f.K v ] -.u 1 r r < r y O.@.+.+.O.r r r u t t ",
"r t +.+.+.u r r u r r O.+.+.@.@.+.u r i <.~ v K a.R.R.(.Y.0.M X . X m 8.z.Y.(.(.R.Y.l.I h O . X h E e.j.j.j.k.K.Q.f.Y v <.;.@.+.O.u O.+.O.+.+.+.+.+.O.t r O.t r ",
"r r O.O.+.@.O.O.O.u u O.@.%.@.+.+.+.O.#.4.' v ! h.Q.I.R.(.z...c % h E z.{.{.(.Y.Y.Y.B.p.P h $ h H i.b.l.k.a.l.!.oXP.! b 3.2.&.@.@.+.%.@.+.u u u u u +.O.u O.u r ",
"r r y y O.%.@.@.+.+.+.O.@.@.u u O.@.@.&.4.' N >.N.Q.M.z.C.m.k.e.7.8.l.^.{.{.(.C.m.m.M.l.0.E P U 8.d.z.k.h.l.H.+X#XXXy.C 3.,.@.@.@.@.%.+.+.u y u y r +.@.+.u r r ",
"< < r u u u u u y y y y r u +.+.@.+.u p -.A x Q c.Q.N.b.l.l.m.Y.R.R.I.m.z.Y.Y.M.l.a.p.p.a.k.k.k.j.k.k.j.b.Q.XX@X@XP.L 7 ( -.O.+.+.@.@.@.+.u t u r < u @.@.u < , ",
"< < y O.u r r r y 1 w y < r u +.+.O.u u *.q 4 v ! D.J.N.k.j.m.Y.).W.l.8.5.t.m.Y.l.0.I E 0.b.M.n.l.k.j.k.G.oX$X@X.XY v 6 i #.w w u @.+.@.@.O.u u t t #.%.+.r < , ",
"< r r t u r 1 1 1 1 1 1 w 1 1 y O.O.+.@.+.u > = v i.J.L.N.l.k.l.m.k.7.F B W a.b.k.W C C W k.l.l.k.k.b.K.XX#X$X.Xy.7 : u +.O.r r t @.@.@.@.@.@.%.+.O.@.@.+.1 < < ",
"< r t t t t 1 1 1 1 1 1 t y y +.+.+.@.%.%.+.r < 9 Z i.D.L.Q.N.b.l.j.7.T F F G I I F D I 7.j.b.N.N.K.~.+X#X#X.Xo.n 5 r @.%.+.u O.+.@.@.@.+.O.+.+.t r t +.@.O.y r ",
"r r t t +.O.r r r u u u u O.+.@.@.+.@.%.+.+.+.O.w 6 F 9.D.L.K.k.k.k.j.e.7.P b c N F W p.j.k.N.Q.!.!.OX$X#X.X! n 5 y +.@.+.#.+.@.%.@.%.+.t t +.+.r < < u @.+.u r ",
"r r r %.%.@.u t O.+.@.@.+.+.@.@.@.O.+.@.u +.+.p u w 4 B 9.c.x.0.a.b.Q.Q.N.i.Q C U i.c.W.W.J.!.~.!.J.F..XP.y.8 q t u @.@.u +.+.+.O.@.%.O.t +.%.@.y < r +.+.t r r ",
"< r t O.@.%.@.O.y y +.@.O.O.@.O.u +.@.@.+.+.@.+.+.+.w e D P U P i.H.].].!.J.c.c.c.H.!.~.~.!.OX~.D.y.Q Q U n 0 < u +.@.+.+.@.@.O.+.%.@.+.+.@.@.@.O.u +.@.@.u r r ",
", r t t +.@.@.+.y w u @.O.u +.O.u @.O.u @.%.@.O.+.#.+.w 4 7 7 7 P s.G.G.v.v.S.S.S.S.S.c.v.v.G.v.>.B 7 7 3 5 u t u @.O.u @.@.@.O.+.+.@.@.@.@.@.@.+.@.@.@.#.+.t r ",
"r t t +.@.@.O.+.@.O.u @.O.O.O.@.+.O.y < u +.@.y w u +.u , : ; - 3 x Y K J K K K K J J J J K Y N 2 3 - ; q < u @.@.O.r < u +.@.u r u +.@.@.@.+.+.u u u O.u +.u t ",
"r t %.+.+.%.+.+.@.@.+.O.+.+.+.@.@.y r y y u u r w y O.y < 1 1 1 e A `  .` ` ` ` ` G G G G G  ._ 9 0 1 1 r t +.%.@.t 0 r y u u y r t u t t t +.+.+.O.+.+.@.+.O.t ",
"< u +.y u @.+.+.+.@.+.y O.O.@.@.+.t t t r u u y u u u u u u +.@.=.( ] ] ] ) ) ) ) ) ) / / ] ] ] a #.+.u u O.+.%.+.u t t r y u y t u u u t u +.@.@.@.@.@.@.@.O.t ",
"y u u w y O.u u +.y w w w y +.@.@.@.O.u u O.+.@.+.+.+.%.%.@.@.@.%.&.=.a p *.=.=.=.*.p i i a *.*.*.y 0 y r t +.@.@.+.O.u u +.@.+.@.+.+.@.@.@.@.@.@.@.@.u r @.t t ",
"r u O.y y y u u u y y u r w O.+.%.+.+.+.u O.+.@.@.@.@.+.u +.+.@.O.u +.u y u @.%.#.+.+.u u i u u p t y u r r O.+.@.@.+.+.u u +.@.@.@.@.@.O.+.@.@.u t +.t r t r t ",
"< u +.O.u u u y y y u +.y 1 O.@.@.+.@.+.u u O.@.@.@.@.+.u u +.+.y y u +.u r u @.+.+.+.O.u u t t y u u +.y < O.@.@.+.@.+.u u O.@.@.+.%.+.t t +.+.t r u O.t 1 r t ",
"t u O.@.@.+.+.+.O.y 1 r < y @.+.O.O.+.@.@.@.@.O.p +.+.@.%.@.@.@.+.%.@.@.+.u O.@.@.+.O.@.@.@.+.O.O.u 1 1 < r @.+.O.O.+.@.@.@.@.O.O.+.+.@.@.@.@.@.@.@.@.@.+.t t r ",
"r u +.@.@.@.+.@.@.+.u t u O.@.@.O.u O.+.+.O.O.O.@.+.+.t u #.+.+.+.+.O.%.@.#.+.@.+.+.+.@.@.+.+.@.+.+.u u t +.@.@.+.u u @.+.+.O.+.+.O.O.O.+.+.+.+.@.+.O.@.@.+.+.t ",
"r t @.+.O.O.+.@.@.@.@.@.%.@.@.@.+.r u u u r t @.@.u t t y y u u t t t +.@.O.@.@.+.+.@.+.+.+.+.+.@.@.@.@.@.%.@.%.+.y y u u y y @.+.p u y y y u u u y t +.@.+.t t ",
"t t u O.@.@.O.u O.+.@.@.@.@.+.O.u u y r r u O.@.#.t t t u y y r r t u O.O.+.O.O.+.+.u +.+.+.+.O.u +.@.@.@.%.+.u u u y y y u O.@.+.y y u u y y y r r u O.+.+.t 1 ",
"r t O.+.+.O.u u u u u u +.+.+.u u +.u t t +.@.@.O.1 1 y u w 1 w < y O.u u O.O.O.+.O.O.+.+.O.O.u u O.u u +.@.+.u u O.u y u +.@.@.O.r y y y y w 1 1 1 +.O.O.O.t 1 ",
"r t @.@.u r u u +.O.u w p @.+.O.+.@.+.+.@.@.@.@.+.y 1 1 1 w 1 t r y +.+.O.O.+.+.O.+.@.@.u 1 y u O.O.y w O.@.+.+.+.@.@.O.@.@.+.@.+.y y 1 1 w 1 r 1 t O.O.O.O.t r ",
"r u +.O.y < < u @.@.+.+.@.+.O.+.@.@.@.@.@.@.+.@.@.+.w 1 1 1 u u u u u O.+.+.@.+.+.+.+.O.t 1 1 t @.@.@.+.#.+.u +.@.@.@.@.@.@.+.@.@.+.y 1 1 1 y u t O.t O.+.@.t r ",
"r t +.O.O.y y u @.@.@.@.+.+.O.@.@.@.@.@.+.O.O.+.@.@.+.y 1 u O.+.+.+.+.O.O.@.@.@.@.+.+.O.u u 1 u @.@.@.+.@.+.O.@.@.@.@.@.@.O.u +.@.@.O.y y u O.+.+.+.+.O.O.+.+.t ",
"1 O.@.@.@.@.+.@.@.O.u y +.@.@.@.@.+.+.+.O.u 1 +.@.@.@.+.@.@.@.@.@.@.@.+.u u +.+.O.+.+.@.@.@.@.+.@.O.u y O.@.@.@.@.+.O.+.O.u t O.+.@.@.@.@.@.@.@.@.@.@.+.O.O.t 1 ",
"1 1 O.@.+.u +.@.+.+.u y O.@.@.+.O.u u u +.@.+.t O.@.@.@.@.@.@.@.@.+.u O.O.u t t u O.O.@.+.u +.@.O.+.u y O.@.@.+.O.O.t u +.@.+.u u @.@.@.@.@.@.@.@.+.+.O.O.t 1 , ",
"< t +.@.O.t u +.+.O.u r O.+.+.O.u O.u u +.@.+.t O.+.@.@.@.O.+.+.@.O.u @.@.u u u +.+.+.@.O.y O.+.+.O.u t u @.@.O.u O.u u +.@.O.t O.@.@.@.@.O.O.@.+.+.O.+.+.O.1 < ",
"1 O.@.@.+.u t +.@.u r t t y t t u +.@.@.+.1 1 @.+.O.@.@.@.O.t +.+.@.@.@.@.+.@.@.@.+.@.@.+.u u O.@.O.r y y y y y u +.@.@.+.r t +.@.O.@.@.@.u t +.+.+.@.@.@.+.O.t ",
"1 t +.+.O.u O.O.O.O.t r O.+.u u O.+.+.t O.+.+.+.+.w +.@.@.O.t +.@.@.+.t t @.@.@.+.+.+.+.O.u O.O.O.O.u 1 O.+.O.u O.+.O.t O.+.O.+.u y @.@.@.O.u +.@.@.+.t t @.+.O.",
"1 t O.O.O.O.@.+.u +.+.u O.@.@.+.+.@.u t O.+.@.O.1 O.+.@.@.+.+.+.@.@.t t t @.@.@.O.u O.u O.O.+.+.O.+.+.u O.@.@.O.+.@.u t u @.%.t y u O.@.@.+.O.@.@.+.O.t 1 @.O.1 ",
"1 r t t O.@.@.@.@.@.@.@.u t @.+.O.@.+.O.+.O.O.1 t O.O.+.%.@.+.@.+.O.t O.+.@.O.u O.u u u +.@.@.@.@.@.@.@.u t @.+.O.@.@.O.O.O.u y y O.u +.@.+.+.@.@.t u O.+.@.t < ",
"1 r r t u @.+.+.@.@.@.+.t u @.@.@.@.+.+.@.O.t 1 O.+.t u O.w O.@.@.@.O.O.@.@.u 1 O.u u r u +.+.@.@.@.@.O.y u @.@.@.@.+.+.@.O.u r u +.u u O.u u @.@.@.O.O.@.@.1 , ",
"1 1 1 1 t t u +.@.@.+.t t +.@.@.+.+.O.O.@.@.O.O.+.+.+.t 1 1 +.+.@.@.O.+.+.@.u u O.u r r y u u O.@.@.O.t O.O.@.@.@.O.O.O.@.@.O.u O.@.O.u y y u @.@.@.O.+.@.@.t , ",
"t r 1 r r t t +.+.+.O.O.t O.+.u t y t u %.@.+.O.+.@.@.+.+.+.+.O.r t @.@.@.+.+.@.%.t r r y y u O.+.@.O.O.t O.+.u y y r u @.@.+.O.O.@.@.@.O.@.+.O.r t @.@.@.O.t 1 ",
"< < 1 1 r 1 t r t 1 t t t t t t y y t y 1 O.O.O.u u +.+.1 O.O.1 < < u u r 1 u u u r < r y r r t 1 1 t t t t t t y r u u u u u O.u u O.u u u u u < < t t 1 1 1 1 ",
"> , 1 1 r t 1 1 < < < 1 r 1 1 1 y r t t < < 1 u 1 1 1 1 1 1 1 O.< < 1 , > < < r r < < r r r 1 1 1 < < 1 r 1 1 1 u r t r < < r y t 1 1 1 1 1 r y < < 1 < > < > > "
};
