/* XPM */
static char *Group_5_resized[] = {
/* columns rows colors chars-per-pixel */
"80 80 89 1 ",
"  c #150C07",
". c #190E07",
"X c #1A0F08",
"o c #1E130C",
"O c #22160C",
"+ c #26190E",
"@ c #291B0F",
"# c #231711",
"$ c #261A11",
"% c #2A1C11",
"& c #261F18",
"* c #291F18",
"= c #301F11",
"- c #2E2014",
"; c #27201A",
": c #2D231B",
"> c #332315",
", c #382615",
"< c #3C2A16",
"1 c #34261B",
"2 c #382718",
"3 c #35281E",
"4 c #3C2B1A",
"5 c #2E2720",
"6 c #2F2822",
"7 c #312720",
"8 c #352B23",
"9 c #3A2D23",
"0 c #372F29",
"q c #382F28",
"w c #3D3126",
"e c #3D322B",
"r c #402D17",
"t c #412E1B",
"y c #45311D",
"u c #4A351D",
"i c #4E381F",
"p c #50371D",
"a c #523A1E",
"s c #443322",
"d c #4A3620",
"f c #4E3821",
"g c #42362D",
"h c #45382F",
"j c #493A2E",
"k c #543D22",
"l c #583E21",
"z c #433730",
"x c #463A31",
"c c #4A3D33",
"v c #503F35",
"b c #574023",
"n c #5B4223",
"m c #4E4136",
"M c #4E4238",
"N c #514336",
"B c #534539",
"V c #58473A",
"C c #56483B",
"Z c #5A4A3D",
"A c #5F503F",
"S c #614625",
"D c #644A27",
"F c #694B27",
"G c #664B28",
"H c #6B4D29",
"J c #6D5129",
"K c #72542B",
"L c #79562D",
"P c #76582D",
"I c #7B5A2E",
"U c #604E3F",
"Y c #7E5C30",
"T c #5E4F40",
"R c #604F40",
"E c #625141",
"W c #835E31",
"Q c #866132",
"! c #8B6534",
"~ c #8F6836",
"^ c #906736",
"/ c #926A37",
"( c #956C38",
") c #996F39",
"_ c #9D713B",
"` c #A1743D",
"' c #A5783E",
"] c #A8793F",
"[ c #A97B40",
/* pixels */
"e0eegxggxxg>o XOO. @9jcchhggeeceMeeexxxxemmxxmMmmmmeemmxe6-+o@unar+O>gcxvceexxe0",
"0eeegxccxg1+,pFKJFu=1svchjccxMcccxzzMccxxxexxmNMmmmmmmxMx6$+<SIQWWp=*sccMczzgxge",
"0exexxNNc9#OpW`']]Pr+8ccxxvvMeeTxeMcMBMcmeemmNNNmmmmMmxMm,o=D!__]]WrO9cvBNxxxxxe",
"exxmxjmNN2+%ua<,rpHF%=gxcxzzMxxeMMTcVBMvNmmMMNNNCMmBMmmmh-@<pu<,raSu$8hcNccxgxxz",
"xxmmccmmc,+@>,+Oo+<i@@3mccecTeeTcvcTBMvvMmxBCNNBCBNVNmmMh=@=@@@+O%<,+1gvNccccxee",
"emMMBBMmj,+oO=pr,@oXO;:eMceTTeeeccccvTMvMeeMNNNNCCZCNmemm=OoO>up,$oXO*sBNcxMMce0",
"exMBBZCMx1OO<llu44-@O@1mTTMTTeTMTccvBTTvemmMMNNCZZZCZVmBj=o+rbliyr=@O*9vMcccccxx",
"xMMMBCCBm1+Oyauy44,@O+>eeeee0eeTcexcvBBvmmMmmMCCZCZZZCBBm-+@abiusyt=O+9vMccccMxx",
"xxMNNmmmx1+@@@%%=@@+o+-:7:117179000qsghjgexxmemNvvvvvNVVh=+@<,,22r4=*@1xvxzcvvzz",
"xmmNNm931+ooooXoXXooooo+$$$+#O######+O+$$$&*%=->*1==**1>-OoOOO++O@%%OO*19qqzxczq",
"xxmmw3=@@@@@@@@=>,>,<<<<tt4trrrrr<4<<,,,,<,,,====,,,,,,,-@@@++++O@@==%@%*==9qzee",
"gmm9-+O=<yiaannSnDHJJJHJKKKKKKLLLLLLPPKPKJHFDSSllSHHJFnnnapiuyrtrrrrr===%*+%**9z",
"xjg-+@<aSFFHHHHDluuiiaaiyuuyualnnnaaaalaappppaiuilFHFFDKIQ~^~!WILJSau<=@%++OO%1g",
"xe3+O@<ialaaaapu<@@@-=>++++++=,=<<>>=,=>,>,>,<,>,<ruuruaFKWWWILKFSlau<,,=%@OOO*=",
"x9%+OooOOOoooOOOoOO+OO@+@=@@%====,<<r<<<<<<<>==@@+OOOoooX XooXXXOo+==rrpt,=+OOO+",
"e1OO=rppurr,>>>><<<<yrrrryyuudpduuiipipiippippipurrr<<=>@@+OO@@@%>2rrryuuyt<=OOO",
"1*+@4nHJFSnlfffffffkkkllkkkkkkkklkkkkkkkkfkkkllllllkffssyyt44tttydkkfdsddffdt+OO",
"*%@2t4tysssyyyyysssysddddsdddddydddddddddsststtttt9ttrr44r444r4t9ttttsdssuddy2$O",
"@+@24424r4444tt4trtt4tttttttstttstssssttstt2t9924444444444rtt4t4t444ttyyyttytr=o",
"O+%>22444444444444444444t22tt29t44=ts=tt2ttt=tts4444444444444444444t4444t4442r=o",
"%++>1>>244444444444444t4ttttttrt4stttt19=9======>>>>>,12142221222222122421=12=%o",
"1*+%--->,2,>,21,>,1,12,12=11=2=21=4=======1====1*%>>>=>>=====================*OO",
"g7%@@%%%@%%%%%%%%%%%%%%%%=%==*===%*%%%%====*@====%%@%%%%=*%=%%*=@=%%*%$%*=%=$O%*",
"xg2=++++OOOOOOOOOOoOOOOOOOOO#+OOOOOOOOOOOOO#OOOOOOOOOOOOOOOOOooOOoOOOO+$O@O@@%2g",
"xxh915111%OO+++#O+O++OOOO+OOO+++#OOOOOOOOOOOOOOOOO+O+OOOOOoO=@++@+$@++$=22844wex",
"ccvvMcxMM7%%>>===1>==@OO@%%%%=%%%%@@O%OO+#++%OO@%%====%=%%O@=rr=212>>+*sMNNNBMmx",
"cMNZCBBCB8$%2t4r44t4>@O+=%=%%@OOOOOOOOO@OOOOOOOOO+OO%%%=%+O@=tt22444>+*gMNNBCNmh",
"ccNZTCZCB9$+2tsttyyt2@O+%%%%OOOooOOOOOOOOOOOOoOOOOOOO%%%%+O=ttttttt42+=hMBBBBNmx",
"cNMCCCZTN9$+,tsssfdy1@o+%=OOOOOooooooooOOooooooooooOOO=%%+O%tytyytt4,+>jBCCNmBmh",
"vcMMBMCZV9%+14dfnHDf,+O%%%OoOOoooooOOoOoOoooXoooooooOOO=%+O%sstyuyt41$-gBETBmNmx",
"vvMMBBBCZ9%+>uGJKPHk>OO+%%OOoOooooOO#+#OO##OOoOOooooOoo%=%O%sdfddsyt>+*sBTTCmMmm",
"cMMTZTCCZt%+>k(_!JDk>$O%%+OOooooo#+%%%+%$%$%%#+++OooooO%=+O%dnGkyys4>+-eBZCBNmhe",
"MBCCTTBBZ9;+4n__QLDd>+O@%O#oooXO#$%+%+%%%%%%+%%%%+#oooO%%%O%pFKHDbu4-@-gBZBCCCme",
"BCZZMMTTZ9+o4H'_!!Gy2@O%%OO#ooO+$%%++%++%++%#%%+%+#oooO%%+O%lHW!Pny41@-gNCBBCCNm",
"CCZTTBCTZ4$+4G____H42%X@%OooooO$%%$%#%%%%#%%+%+#%%#oooO++%O+pL^_Wbw4,@;3mMCNmMmx",
"BZZCTBCCZ9+o4H_[__H42%O@+Ooooo#%%$%$+%%+%+%+%%%%%%#Oooo+%+O%dH^`!Hu4,@@wmCNMmmmm",
"BBZBBBBCB4$+2n(__/H42@O@+OOooo#%%#%#%%%+%%+#%+%+%%++Ooo++@+@tFW[)Pb4,+;wmCBBMMmx",
"NNBBBMBCB,+@4bP~(!Gy2@O+@OooO##%%%%%%+%%%+%%%%%%%+%+ooO++++@tlL[_Yi4,@@9mCACCMmm",
"MBBBMMBCm3$@4fGQ/!Gy4%O@+OoO#X##+%%%%##+%%%+#++%#%%%#ooO+@+$tnK((Iu1,@;3hmNCCNmx",
"mMMBBBCBm3$@,fDY!!D4<@X++OooOXOX#%#%+%%%+#%%%%#%%+%OooOO+@#$ylLW~Pu4,@$8mmMCCMme",
"mMMCCCZZC3@@,dHY!!G42%O@@oooooX#+%%%%+%+%+%%+%%%%+%+#ooO++O@rlK~~Ku1,@$8mBZZCmme",
"mMCCCCTTB3$@2dnP!!n2>%O+@oOoooOo+%%++%+%%%%+#%%++%+#oXOO++O@rlK!!Ku3<@%8mZZACmmh",
"mBZZBCAZM7%@4dbK!Qn2-+O@@OOoOoOX+++%%+%%+%#%+%+%%%$OooOO+++@4kH~!Ju34@;wmZCZCMme",
"MBCBCZZTB9%@4dsDYQn4-+O@+OoooO#O#+%+%O%+%%%+%%%#+%$OoOoO++O@rsk~~nu44@@9MABCZMmj",
"BMMCZZZZZ9%-4dwnKPn2-+O@@OOoooOO#O%%#%#%#%+%%#+%%+#oOX#O+@+@tyk/!nw4<@&9NABCVNmm",
"BNMCZZVCB9%%4dunJJk2>+O%%OOOooo#oo%%+%%%%+%%%+%%%#o#O#OO+@O@4sn(!nu4<@@9NCCBBBNN",
"MMBCAZZCc7%-4kDGJJk2>@O@%OO#ooo#O#O##%%%%%%%%%%+#oooOXO++@++4fD^!ny3<-&9MCCMmVVB",
"NmMZZZACx3%%3kJPJGk2>@O@%%Oooooooooo+OO#+#++++#ooooooXO+@++#4kH!!Ji<<@@0BABMmBVM",
"mmBBVTVBB8%%=dHKJbd41@O+@@+Ooooooooooooooo#oOoooooooooO+%+OOtlKW!Yf44@;wVAVmmmBm",
"mNNCTTTTT9%%2ykSHDf4-@o@--+OOooooooooooooooooooXooooooO+%+O+uSL!~!Gu1+-wNZBMmmmm",
"mmBCTTTTV9%%2ttkbnu4>@o@%=@+OOooooooooooooooooXOooXoOOO%%+o@ylJLYPHf1+-wMCBMmmjm",
"cmmBBBBTV9$%2tssddu<1@O+%=@+OOOoooooooooooooooOOooo#OO+%=+O+tfkdfbbd<@%3mCCNmmme",
"ccMTTcTTZ9%@2tysysuy,@O+%%%%$+OO#oOoOoooooooOOXXooOOo+%=%+O+tsdyuddd4@;3mAZCBNmh",
"xvcMTMTEZ9%%2tttyywy<@O+%%=%%++O#OOOOOOO#OO#OOOOo#OO+@%=%+O@tyttyyyy4@+3VAAZZNmj",
"ccMTMTTRZ4%%4tt4<<,,>@O+%%%%===%+++OOOOOOOO+OOOOOOO+==%%%@O+4ttt44<w4@@3NAAZZVmj",
"ccTcTMMMc1%$%==*@;@@+oXo+OOOO$OOOOOOOOOO++O+@O@@%%%%@%%%%@O+,42>1,,,,@@wVAAVCVmh",
"cNCCNcjs9*OOOOOOOOOOO+++OO+O+++++@@@@O@@++++O++O+O+++OO+OOoO@@@++@@@@+@3mNNcmNNc",
"ccBBj>-+OXoOO@==--,<<<ruuppupuiiyrrrr,,,====@O+Ooo..XXXXX...   ....XXoo@@->2wNNc",
"cMNs1@>ryaaSDFJJPYQQQQQQQWQQWWWWWWWWLHKKJJKJJHKFlllDlapaaalallaau<r<,=@=@+@%>4hj",
"cch>O+raSJLWQQWY~___)))/!QQQ!QQQW!WWWWLWIWQQQQ^QPWQ!WWLLWW!^^^WLJnnlr<=@@+OOO@3e",
"cg1#O++++==>=,>,,,,,=%@@@@O+@O+oO@++OoOooo+++++$@@=,rtualSSSSSlur<@+oo   X OOO@-",
"cq%X+,<<,,<,>==@@+oooo++OO@@@@@=@@@%@===-%@@@@@$@=@@===,,,,<=,===>==,<yaaau=OO+@",
"z2++,innnnnlaiu<<<44<4uypualakknnnlllnnnnbkaabbiiiprr<,,==%@@%=,<<plnSK!((Wa@OOO",
"1%+unDSnnlbiiuuywuyuuuuuuuiuduuiiidfddpuuuyyuuuuuuiifkpffpuuuuupiiuuuuianFIHu+OO",
"*$+ulkfsddudsydy4syydsyyysyyyyyswy4u4ywy44yww4yyyyyddfffdfddddddddu444449ynnf,+O",
"$+%24444t44t4yyy4242444444442tt4u444w444<4<<44<4444444444444442442444yrw42,4<w=o",
"++@>244r4tt444t4444444444t4t4t4t4444<,,,244444<34<<44444444444444444t4<22>>-,4-o",
"*@@=244424222224444222,242424422<22,,11>1,44,4,231,,14244,4,42444442221,>>--->@o",
"1%O%1>1>>>>>-->,1,>---->>--->>>>>---->>--->->->--=---->---->->->1,>>>-->-->>*%OO",
"e1+++%%%%$$%@%%%@$@@$@@+%@--%%%%%+%@@@@@@@@@@@@@@+;$%%@-@%;@%@@@@%%@@+++$%%@@%$$",
"g9*+O+++++++++OOOO+O+++++++o+oO+++++o+++@++o+++++++++o+++++O++OOOOOOO++O+++O++&&",
"qq1*#%#%$++OO++++++O++O+$++$$$$$$$$$$$$@++$;$$$$$@$%$$$+$@+OO+++++++++O++$$$$$&5",
"ggq9q981:7:++%,1>>-><-+$;:7353:638888ww98039wwwwwww33::::3-+O-<,>,>1,%+$&:;;;:66",
"xggzzzge807%+%ty42<<y1o$:eeeeeeejgggeghhggjmmmccmmmhee0800:+O>y4444tt>+$70077770",
"xxggeeze771&O+<yyyyw<-o$3xxeeemxmcjghemmmjhjjmjgjjjhggee83;;O=<4424t2%+-wcgweeee",
"ccvccxze07::%+%tbnu,-O@:8exxmmjmmmmxxxmmNmNNNNNNNNmmmcge08:;@O-ybny,@+&8jmgeeeez",
"xcBNBvcee057:$O,any%o@-wegjmmmmmmmMmccvNZZVVCZBBZZCMMmcjew8::oO<knt@O@2jMmjggeex",
"zcvcccvxgee0:;@@+@@@@-8exxxxmNmmBBBBcjvVZZZCCABBVZCMVCMmxe005-@@@@@+%2hNBCMmmxxe",
"gzccccBBmjgqew7;&%-13wgjmmmmMMmMBNBMMcNUZZZZBBmmmCBMBCNBMxee0w3:*$:1wgcNMmMmxxee",
"gzccxcTBBxeqgge03:8ejmjmMMBMMMBMNNMMmMVUZVNZBxmxxMBNBVBBBmxeeehq330gNcmVmxmxxxee"
};
