/* XPM */
static char *__resized[] = {
/* columns rows colors chars-per-pixel */
"80 80 232 2 ",
"   c #06001C",
".  c #1F391C",
"X  c #0C0424",
"o  c #0B0928",
"O  c #16092D",
"+  c #0F1626",
"@  c #14172D",
"#  c #140C32",
"$  c #161634",
"%  c #191D34",
"&  c #261538",
"*  c #1B2437",
"=  c #1D3837",
"-  c #283D27",
";  c #233D2C",
":  c #20283A",
">  c #233A39",
",  c #26431E",
"<  c #2B4C1E",
"1  c #2F5316",
"2  c #2E531D",
"3  c #30551F",
"4  c #335C1D",
"5  c #36621C",
"6  c #39661D",
"7  c #3C6D1D",
"8  c #3F711E",
"9  c #264322",
"0  c #294625",
"q  c #2A4C23",
"w  c #25412C",
"e  c #2C442F",
"r  c #2C4A2C",
"t  c #324C2A",
"y  c #2E5222",
"u  c #2E532B",
"i  c #2F582E",
"p  c #335C21",
"a  c #365A25",
"s  c #35542B",
"d  c #355A2B",
"f  c #3A5D2C",
"g  c #2A4735",
"h  c #26453C",
"j  c #29463E",
"k  c #2A4A3B",
"l  c #304C37",
"z  c #2D5334",
"x  c #2D523C",
"c  c #345535",
"v  c #345B3E",
"b  c #366222",
"n  c #3A6524",
"m  c #3D6B23",
"M  c #36632D",
"N  c #3D642C",
"B  c #3F692A",
"V  c #3F7221",
"C  c #3E6331",
"Z  c #346039",
"A  c #41751F",
"S  c #43781F",
"D  c #40682D",
"F  c #416A2D",
"G  c #417620",
"H  c #457C21",
"J  c #437329",
"K  c #406732",
"L  c #416931",
"P  c #1D1B41",
"I  c #261F44",
"U  c #1F3242",
"Y  c #28274A",
"T  c #263B49",
"R  c #2D2C52",
"E  c #343051",
"W  c #393C62",
"Q  c #453656",
"!  c #254543",
"~  c #2B4C44",
"^  c #29474B",
"/  c #32484F",
"(  c #2E5544",
")  c #2F5749",
"_  c #325A46",
"`  c #31564B",
"'  c #2B4C50",
"]  c #344655",
"[  c #2E5553",
"{  c #2D5955",
"}  c #2F5E5D",
"|  c #315554",
" . c #315B54",
".. c #325D5A",
"X. c #35624B",
"o. c #2E625C",
"O. c #366759",
"+. c #33625D",
"@. c #366B5E",
"#. c #3A705F",
"$. c #3D4369",
"%. c #336461",
"&. c #356B63",
"*. c #3B6C65",
"=. c #33676C",
"-. c #366A69",
";. c #3B7264",
":. c #3D7A65",
">. c #3C746A",
",. c #3F7A6D",
"<. c #3A7574",
"1. c #45705E",
"2. c #4D4E6E",
"3. c #635777",
"4. c #446B67",
"5. c #47786A",
"6. c #407B6D",
"7. c #51726F",
"8. c #447D71",
"9. c #478122",
"0. c #498423",
"q. c #4C8924",
"w. c #3F8278",
"e. c #42806E",
"r. c #51856F",
"t. c #438474",
"y. c #468978",
"u. c #468B7A",
"i. c #498E7C",
"p. c #518774",
"a. c #48947C",
"s. c #4B947E",
"d. c #56937F",
"f. c #3F7A87",
"g. c #6B728B",
"h. c #827D94",
"j. c #438C84",
"k. c #448E89",
"l. c #4C9681",
"z. c #4E9C84",
"x. c #45938B",
"c. c #4B9B8C",
"v. c #559A84",
"b. c #529D84",
"n. c #489994",
"m. c #789F9F",
"M. c #4FA289",
"N. c #51A286",
"B. c #51A48A",
"V. c #54AA8D",
"C. c #5BA88E",
"Z. c #55AD92",
"A. c #53AA96",
"S. c #52AB96",
"D. c #56B293",
"F. c #59B494",
"G. c #5BB995",
"H. c #56B29B",
"J. c #58B69C",
"K. c #5DBC9A",
"L. c #68AD92",
"P. c #6BB698",
"I. c #70B293",
"U. c #4798A5",
"Y. c #4A9EB0",
"T. c #51AEA2",
"R. c #53B3A3",
"E. c #58BAA5",
"W. c #54B5AA",
"Q. c #51B1AF",
"!. c #55B9AC",
"~. c #59BEAA",
"^. c #5FC29B",
"/. c #5EC89E",
"(. c #61C59C",
"). c #62C99F",
"_. c #5FCCA0",
"`. c #5CC3AD",
"'. c #5BC4B3",
"]. c #5CC7B5",
"[. c #5ECBBA",
"{. c #64CCA1",
"}. c #6BCCA3",
"|. c #65D3A5",
" X c #6AD4A6",
".X c #68D7A8",
"XX c #6BDBAA",
"oX c #76D7AB",
"OX c #72D1AF",
"+X c #61CEB6",
"@X c #6FE6B1",
"#X c #77E5B3",
"$X c #73E9B3",
"%X c #5DCCC4",
"&X c #5FD2CC",
"*X c #58C4D5",
"=X c #62D5C7",
"-X c #63DCD8",
";X c #67E3DB",
":X c #61DAE5",
">X c #66E5EB",
",X c #68E9F1",
"<X c #8B91A9",
"1X c #9699AC",
"2X c #89D0AB",
"3X c #86DDB3",
"4X c #85E3B4",
"5X c #8BE7B8",
"6X c #94E6BA",
"7X c #94EDBD",
"8X c #88F1BC",
"9X c #96F1BF",
"0X c #9BF0BF",
"qX c #A5F3BE",
"wX c #ACF4BF",
"eX c #B7F8BF",
"rX c #C7FCBF",
"tX c #D6FEBF",
"yX c #ACB2C4",
"uX c #AAB4C8",
"iX c #98ECC3",
"pX c #8FF5C3",
"aX c #9CF3C2",
"sX c #9AF8C5",
"dX c #A1F6C4",
"fX c #A5F8C8",
"gX c #A2FDCB",
"hX c #B7FCC8",
"jX c #AAFDD2",
"kX c #B6FFD2",
"lX c #C7FDC5",
"zX c #D5FFC4",
/* pixels */
"1 5 A 7 A 8 8 A A 7 7 A S 8 S S A A A A 6 7 A S S A A A 7 7 7 A A A S A 7 S A 7 5 7 A 7 7 A 8 A A 7 7 A 8 S S 8 8 S S 8 8 8 8 S S A A A 7 7 A 7 A A A A A S 7 4 ",
"6 7 A A A H 8 8 A 7 8 S G S S 8 A S A A 7 A A S A A A A A A S H S A A 7 A S 9.S S A 8 A A A 8 8 A 7 A S H 8 S 8 8 8 8 8 8 8 S 8 A A A A A A H H S A A A A H A 6 ",
"S S A S H H A A A A S 9.9.G S 8 G G A A A G H G A G 7 7 A H q.q.q.0.A A A S q.q.q.H G H 9.S A 8 8 S S 9.9.S H V S S 8 8 8 S H 8 G G A A A H q.q.q.H A 6 A H S A ",
"A S 0.q.0.H A G S A A 9.0.q.q.q.0.H A A S 0.0.0.H 0.H 0.0.0.H q.0.0.S S S 9.q.S 0.0.0.0.0.9.S A S 8 A 9.0.q.q.0.0.0.8 8 H 0.q.q.H H H 0.H H 0.0.q.q.S S S H S A ",
"7 S H 0.0.q.0.H 9.H G 9.q.q.q.0.0.q.H H 0.q.q.q.0.0.q.q.0.H H H H H q.0.H 0.0.H H 0.H 9.0.q.0.0.9.S H 9.q.q.q.0.q.0.9.0.0.q.q.q.q.0.q.q.0.H H H S H 0.0.H H S A ",
"A A A A H q.q.q.0.0.0.0.q.q.H H H q.q.q.q.q.q.q.q.q.q.0.0.H G H 7 A 0.q.0.S 0.q.0.H G G H q.q.0.0.0.9.0.q.q.H H H q.q.q.q.q.q.q.q.q.q.0.0.H H H A A q.q.q.H S A ",
"7 A A S H H H H H G G G S H 0.0.0.0.H G H H H 0.0.q.q.q.0.H G G 7 7 H q.0.H A A H H V H H H H H S G G V 8 8 S H 9.9.H G G 9.0.0.q.q.q.q.0.G H G A A H q.q.H A 6 ",
"7 7 A S H A G G V 8 8 8 8 8 H 0.q.0.H H H G G G 0.0.q.q.0.0.H 0.H H 0.q.q.A A A H G G 0.H G 8 A 8 8 8 7 4 2 5 b 7 8 S H S S V 8 H 0.q.q.q.0.H 0.A A H q.0.G 7 4 ",
"7 8 8 9.H 8 8 8 8 8 V 8 8 8 8 S 0.H 0.q.q.H G G A 0.q.q.q.q.q.q.0.0.0.q.0.7 G H H H G 9.H 7 7 8 A A A 4 < - ; ; q 5 H q.0.9.8 8 H 0.q.q.q.q.q.q.0.0.q.q.0.7 7 7 ",
"7 8 S H H G V 8 8 V 8 8 V H V 9.0.0.q.q.q.0.H 0.q.q.q.q.0.0.0.0.H A G 0.0.0.0.0.H G A H H H A 7 6 A 6 s z  .| | ( d V 0.q.0.V 0.0.q.q.0.0.0.0.0.G A S 0.q.0.S A ",
"7 8 S 9.0.9.G 8 A G H H H 0.0.q.q.0.q.q.q.q.0.q.q.q.q.q.H H 0.0.A 6 7 H q.0.q.q.0.H A 9.q.H G 7 A 4 a v 1.p.v.p.;.X.M V 9.9.0.q.q.q.q.0.H H 0.0.A 6 7 H q.0.S S ",
"S 8 8 q.q.q.H G 9.q.q.q.0.0.q.q.q.H 0.q.H H q.H H q.q.0.A 0.q.q.G 7 8 0.q.G H 0.q.H G 0.q.q.H A 6 3 c 1.L.}.OX(.s.#.v y 4 8 q.9.0.q.q.0.S H q.q.G 7 7 0.q.A A A ",
"8 8 8 9.q.q.q.9.8 H 0.q.9.9.q.9.H q.q.q.q.q.q.H q.q.q.q.0.0.q.q.0.9.0.q.q.H H H H H A H q.q.q.G 2 ; ` d.OX6XiXoXG.u.+.g y V 0.0.0.q.q.0.0.0.q.q.0.H 0.q.q.S A A ",
"7 8 S 9.q.q.q.0.8 V H q.9.H q.H H q.H H q.q.q.0.H 0.q.q.q.q.q.q.0.q.q.q.0.9.0.0.H G H H 0.q.q.G < ; | C.3XsXpX#X^.z.%.! q V q.9.0.0.q.q.q.q.q.q.q.q.q.q.0.0.G A ",
"8 S 9.q.q.q.0.0.q.9.H 0.9.9.9.q.0.H A A H q.q.G G H 0.0.q.q.q.9.H H 9.H 9.0.0.q.0.0.0.0.q.q.q.A p ; | v.}.#X4X XD.j.%.! q V q.H A H 0.0.0.q.q.9.H H 9.9.H 0.H S ",
"8 S q.9.0.q.0.0.q.q.0.9.0.0.0.q.0.G A A A G H A G H H H G H 0.0.0.9.0.0.0.q.q.q.0.0.0.0.0.q.0.H b r ( 5.B.^.{.D.s.>.) w q 6 H 8 A H H H H H 9.q.0.9.9.0.0.q.0.S ",
"8 S q.8 9.q.0.0.q.q.9.G 9.0.q.q.0.H G G V A G G G H H G H H 9.q.q.q.q.q.q.q.q.q.0.0.0.G H q.q.H G p s X.:.a.c.u.>.) z y 4 7 G G H H H H G H 9.q.q.q.q.q.0.q.0.S ",
"S S S 8 8 9.S 9.0.G 8 V 8 A 9.q.q.q.0.H 9.0.q.q.q.0.q.q.q.q.q.q.q.q.q.H V 9.q.q.0.0.G 8 A H H H H 7 p z ) &.,.&. .z M V G 9.q.q.0.0.q.0.q.q.q.q.q.q.q.H G 0.H S ",
"8 S 9.8 G S S S H A S H 8 8 9.q.q.q.0.9.H H 0.q.q.q.q.0.9.9.0.0.H H 9.H 8 H 9.q.0.0.9.G G A G H H A 7 b r j ~ ~ z p V 9.H 9.9.H V G 0.0.H 0.0.0.9.H 9.G A G S S ",
"8 9.q.9.H G H H G G H 9.G 8 9.0.0.0.q.0.H H 9.q.q.q.q.0.G H 0.q.H 8 H 9.9.8 9.0.0.0.q.9.H H H G G G A 8 2 9 9 q p m H 0.H H G b p p H 9.G H 0.0.S V H 9.H 8 A S ",
"S H 9.0.q.0.0.9.9.G 8 8 8 G q.0.9.9.0.q.q.q.q.9.9.0.0.q.q.q.q.q.0.0.q.q.0.H 9.0.q.0.0.0.q.q.0.0.9.G 8 7 5 5 8 m 8 S 0.q.q.0.H u w r b H q.q.q.q.q.q.q.q.0.9.S S ",
"A S 0.q.q.q.0.q.q.0.H H H 9.q.q.0.S 9.0.0.9.9.9.0.9.9.9.0.0.0.H 8 8 6 8 8 6 7 V 7 6 6 6 V G 0.0.q.0.9.S H S 0.0.9.8 9.0.G V M X.O.X.Z n 8 H 9.0.0.0.9.q.q.0.S S ",
"8 S q.0.9.9.0.0.q.q.q.q.q.q.q.q.0.S H 9.G 8 G 0.q.H H H 8 G V 6 2 , 9 q y < < q < q y q q 4 G 0.q.q.q.q.q.q.q.q.0.G V 8 4 y _ e.a.a.O.z 2 5 8 H S G S 0.q.H S S ",
"S S H 9.q.q.0.H H 0.q.q.q.q.0.9.H H S V S H 9.q.0.8 A G H S 7 p u h ! ! h k h h h h j ^ k u b A 9.0.0.0.q.q.q.0.H H V 5 < g @.z.F.D.t.) 9 4 8 V 8 A H 9.0.0.S A ",
"A S 9.0.q.9.S H H H H H 0.q.0.H H 9.H G H 0.0.q.0.7 5 5 4 4 p u X.&.6.4.*.*.4.4.4.*.*.>.O.x u 4 5 5 6 7 9.q.0.H H 9.H 7 2 z O.a.D.B.:._ 0 4 6 8 7 A H 0.9.9.S 8 ",
"8 S 0.q.S 8 S H 0.9.S 8 H q.0.0.0.q.0.0.0.0.0.q.0.7 2 , . . 0 _ p.F.P.P.L.L.L.L.I.I.L.C.a.@.x 0 9 9 , 2 8 q.0.0.0.q.0.G 6 M v :.u.e.X.i 2 5 7 8 8 A 0.0.9.9.S A ",
"A S 0.0.S 7 7 S q.q.q.0.0.0.H 0.q.q.q.q.q.q.q.q.H n u h ! > ` 7.P.6XiXiX6X6X6X6X6X6X4X#X(.a.#.( h ~ k u m 9.9.0.q.q.q.0.0.V B v ) _ i b 5 8 8 H H H S 0.0.0.9.S ",
"A S 0.9.9.S A S q.q.0.0.q.0.9.q.q.0.q.q.0.0.H S m d X.*.8.*.p.I.6XhXlXkXhXgXgXdXgXfXsXpX#XG.a.>.+.-.@.v M n 8 0.q.q.q.q.q.H V y 0 r b V V 9.0.0.0.0.0.9.0.0.H S ",
"A S q.q.q.q.0.q.q.9.H G 0.q.q.q.q.9.0.0.9.V 7 4 u _ r.L.P.P.P.2XfXlXzXzXlXhXsXsXsXgXsXsX5XoXP.B.z.M.a.#.x y 7 9.q.9.9.0.9.H 8 5 5 5 G 0.q.q.q.q.q.q.q.0.H 9.G 8 ",
"7 A 9.q.0.S 0.q.0.9.H S 9.q.q.q.9.H H S q.9.b q _ r.P.6XiXiX6XhXlXzXzXtXlXhXdXsXaX9XsXdX9X4XoX}./.|.^.l.;.( u m 8 9.H 9.0.q.9.V 8 S 0.q.q.0.0.q.q.0.S 9.9.S 8 7 ",
"8 S 0.q.9.A 9.0.0.9.H V H 0.0.9.H 9.H H S m i ( 5.P.3XsXkXkXhXlXzXzXtXrXhXwXaX7X9X9X0XdXaX7X#XXX.XXX|.G.s.;.x u 6 V V 9.q.q.9.H 9.q.q.q.0.9.0.q.0.9.H q.q.H 8 7 ",
"A S q.q.0.9.S 9.q.H V G S S 8 G H 0.q.9.5 y ( 5.I.5XiXdXkXkXzXzXzXtXrXeXqXqX0X9X9X0XaXfXaX7XoX.X|.|. X{.K.a.@.x q V 9.q.0.V 8 0.q.9.q.q.q.S S 0.0.q.q.q.q.0.9.S ",
"8 H 0.0.9.H 9.9.9.0.H 8 9.0.H 9.9.0.V b q _ 8.I.3XfXsXaXwXhXlXtXtXrXeXqX9X7X7XiX0X0XsX0X9X4XoX X(.).{. X|.(.l.@.~ s n S H 0.9.0.H H q.q.q.H H 0.q.q.0.S S q.0.S ",
"8 8 9.9.9.0.0.0.H 0.0.H 9.q.0.0.9.H b y ~ ;.L.3XfXjXgXaXqXeXrXlXrXeXwX9X7X7X9X0X0X0X9X7X4XoX X).^.(.{. XXX XG.i.O.x u 4 A 0.q.H G S H q.q.0.0.q.q.0.H A 8 q.9.8 ",
"8 8 9.H 0.q.q.q.q.q.q.q.V H q.9.8 5 u ( @.z.}.5XfXfXdXaX0XqXwXwXqXwX0X9X9X7X9X9XqX0X0X4XoX X).).).(.{.|.|. XK.B.6.+.x q 5 8 H 8 G 0.H 0.q.q.0.q.0.0.H 0.0.q.S 6 ",
"8 8 8 8 H 0.0.0.q.q.0.9.H H q.q.V q k O.u.K.#X5XiXsXaX0XdXdXsXsXiX9X0XiXaX9XaX9XqX7X4XoX X).{.{.{.{.).{.{.(.(.D.l.,.[ g p 7 H G H 0.H S H H H q.q.0.H 0.0.q.S 7 ",
"8 8 8 8 H H H 9.q.q.0.H 9.9.0.0.V < h &.z.{.#X#X4X5XsXgXfXgXsXsXpXaX0X0XaXdX0X0X5X4XoXXX|.|.|..X|. X).(.(.G.K.G.B.t.[ > y 7 0.H H q.H S G G H q.0.0.0.0.0.0.G 6 ",
"S 8 8 8 8 8 H 0.0.0.9.9.V 9.0.9.6 , h +.a.^.XX.XXX4XaXfXjXfXgXgXsXaX0X0XdXdXaX7X4XoX X|.|.XXXXXX.X X{.G.G.V.D.Z.z.,.' ; p G 0.H H q.q.q.0.0.q.H A H 0.q.q.0.G S ",
"S 8 9.9.9.9.9.9.9.0.9.9.9.9.V m b q ( >.z.(..X|. X X}.2X2X2X2X5X7X9X9X8X6X7X6X5X@X|.^.D.V.B.V.D.(.).).^.V.V.B.B.z.u.%.( i b H 0.0.0.0.q.0.0.q.H A A 0.0.S H S S ",
"8 8 9.0.0.0.9.H 9.8 H 9.0.H 8 b d _ :.l.D./..XXX|.G.v.5.7.7.d.P.oX8X8X4X3X3X3X#X@X|.D.a.@.o.+.4.a.C.(.G.C.N.N.M.B.c.j.;._ d b G H 0.0.0.0.H q.q.H S 0.H 8 G S 8 ",
"6 8 0.9.9.9.0.0.0.H H 0.0.V 4 u ) 6.N.K.(.).|.$X XN.O.> @ : ] p.P.#X#XXX|. X XXX$X@Xd.e.Y o @ > %.l.D.K.Z.B.N.N.A.R.T.n.,.` r m A H q.q.H H H H 0.0.q.H H q.A A ",
"8 8 9.S 9.9.9.8 9.H H 0.0.V q g +.a.(.XX.X|.(.(.F.p.4.E & O $ ' y.D.).)._._._.(.).d.a.e.Q I O $ T %.u.B.B.B.N.N.Z.`.[.!.x.} w 2 A G G H H H 0.0.q.0.H A H q.S A ",
"S 8 S S 9.9.8 8 8 8 G 9.9.7 9 j *.B.{.$X@X|.D.u.5.7.g.3.2.& O $ ^ >.s.^._.XX|./.a.5.1.d.g.3.R P # U ..8.l.M.N.N.Z.].+X[.n.%.> < 4 A G A G 0.q.q.q.H S A A H H S ",
"8 S q.q.q.0.8 8 9.8 8 9.0.8 y k +.s.(.XX@X|.a.) ~ 2.1XyX1X3.I o @ ! :.V.|.@X|.s.X./ Q 1XyX1Xg.R o # * ..t.N.V.V.Z.'.[.!.n.+.; 2 A H H 0.0.H H q.q.0.H S S H S A ",
"8 8 9.0.0.q.0.9.9.H H 9.q.G 2 k ..u.G..X@X).y.= & Q <XyXuXg.R X X @  .b.XX$X@Xa.! % Y h.yXyXm.W # X @ T ,.M.V.B.A.`.'.W.k...w p A 0.q.q.q.H H H S G q.H H H G A ",
"8 8 8 8 H q.q.q.0.0.9.0.q.A q g { 8.V.{.@X|.a.= O I 3.<Xm.g.W #   + ) s.@X;X$Xs.! + & 3.g.<Xg.$.P X o = >.b.Z.V.V.~.'.W.k...w y A 0.q.0.H H S H A A 0.q.q.S S S ",
"8 8 8 H 9.0.9.8 H G G G G 6 < k { ,.z.^.XX(.z.[ $ # R W f.W $.Y @ * ..N.XX$XXXd.} * O I 2.2.2.$.R $ % ! ,.B.V.V.A.`.'.W.k...w y A 0.q.q.q.G G G A A H q.q.S A 6 ",
"8 8 8 9.9.8 8 8 V 8 V G 8 5 < k | <.l.D.{.^.z.>.R # P P P I R R T | t.C. X@X{.d.,.^ % $ # P R R R Y T %.y.B.D.Z.H.`.'.R.k. .; 2 A 0.q.q.q.0.H H A S q.q.0.A 6 4 ",
"7 8 8 9.S 8 8 8 8 8 8 8 8 5 < h | ,.s.V.G.G.B.s.*.T % o X O I ] *.i.F.(.{.}.K.V.l.>.' * o X O % T ] -.y.l.V.H.R.~.+X'.T.j. .; < 6 0.q.q.q.q.q.q.q.H q.q.0.A A A ",
"7 7 8 9.S S 8 8 8 8 8 8 8 8 < g | 6.z.A.A.V.V.Z.z.-.T % X X * ..d.(..X|.(.J.V.B.Z.l.<.' * X X % ' >.l.V.B.V.H.W.[.=X%XW.k. .; 3 G 0.q.q.0.H 0.0.H A G 0.q.H A A ",
"8 8 8 9.0.9.S 8 S S S S H 7 q g ..j.A.J.Z.B.B.G.V.i.&.T * * ^ ,.F..XXX{.G.V.B.V.J.F.z.*.^ * * T +.u.V.F.B.B.H.!.%X;X-X%Xn.} ; 3 G q.q.0.H H q.0.A 6 A H 0.0.H S ",
"9.8 8 q.q.q.9.S 9.q.q.q.9.V < k %.c.!.+XJ.V.b.V.V.l.t.>.%.} >.l.G.(.{.G.A.B.c.B.G.J.V.i.>.%.+.*.y.z.V.V.B.z.V.E.=X>X,X-XY.%.; < G q.q.0.A H q.q.A A A 0.q.A A A ",
"8 8 8 9.q.q.q.9.8 G 0.q.9.7 y k ..k.R.'.E.Z.N.B.V.B.M.z.z.z.z.z.M.B.B.V.B.B.B.B.b.b.B.z.M.z.z.z.z.B.B.B.N.V.H.'.*X>X,X*Xn.%.; 3 A 0.q.0.0.q.q.q.H H 0.q.q.H A A ",
"7 8 S 9.0.q.q.9.S V H q.9.V b i  .<.x.T.E.E.H.V.B.M.V.D.K.K.D.l.t.,.t.z.V.Z.Z.b.u.t.t.z.Z.G.F.D.V.B.N.z.B.H.'.=X:X:X*XY.f. .s 4 G 0.q.q.q.q.q.0.q.q.q.q.q.H G A ",
"8 8 9.q.q.q.0.0.q.9.H q.0.G m d _ ` -.k.T.`.`.J.B.z.N.Z.D.G.M.6.+.{ >.l.D._.G.l.>.+.+.t.B.F.Z.V.N.b.N.M.A.~.-X,X>X*Xn.=.| _ N 5 7 H 0.0.0.q.q.H H H H H H 0.H S ",
"8 9.q.9.0.q.q.0.q.q.0.9.0.0.H B C k ~ o.k.R.'.E.A.V.V.V.Z.Z.z.,.{ [ +.t.z.V.M.t.+.[ { ,.l.D.Z.V.V.B.V.J.`.&X>X:X*XU.=.j l f n 6 A H H H H H 0.0.H 0.0.q.q.q.H H ",
"8 9.0.G H q.0.0.0.q.0.G H 9.9.J K t - / &.k.R.W.E.K.D.Z.V.V.z.e.@...O.&.>.,.>.*.o. .@.e.l.Z.A.H.J.J.~.%X-X:X:X*XU.=.l - t a D A G H H H H H 0.q.q.q.q.q.q.q.9.S ",
"S G G V A H H 0.0.V 8 8 8 8 J J D N c c ( %.j.T.'.+X~.D.N.M.N.s.y.6.+.[ ~ ^ ' ) O.,.y.a.b.Z.J.E.'.'.[.-X,X>X*XU.=.` t s f N F A 0.0.0.q.q.0.q.q.q.q.q.9.S 0.9.S ",
"8 S 9.G A A S H H G G H 8 7 m B D F K a e ~ *.x.T.!.A.M.z.B.Z.H.D.B.t.%.' ! ' &.w.z.H.D.D.J.`.].].~.'.&X:X*XU.=.~ t f D N N F S 0.q.q.q.0.0.0.0.S S 0.S 8 S S S ",
"8 S 0.9.H H H G G G 9.9.A 7 m B K D D N t e ) -.j.x.w.,.a.A.`.+X+X`.A.j.<.-.<.j.S.`.].`.`.'.=X%X!.T.n.U.Q.Y.8./ t t D F N f D A H q.q.0.G H 0.0.S S S 0.S 7 8 S ",
"S S 0.q.q.q.0.0.9.G A V 8 V G B N N K D D f v  .+.+.[ o.w.S.[.=X=X[.'.!.R.T.T.W.'.].[.[.[.[.=X%XT.w.-.} -.-. .v s n D D K K D A H 0.0.0.q.q.q.q.q.q.q.q.q.9.S S ",
"S S 0.q.0.0.0.0.q.0.H H H H H F D f N K D D c l k h > ~ ;.x.W.'.~.!.!.!.!.!.!.!.!.!.!.!.!.'.].R.x.&.~ h > l c C D f N K C N D A H 0.0.9.9.0.0.q.0.0.9.q.q.9.S S ",
"A H 0.0.0.0.0.0.q.q.q.q.q.q.9.H D a f N D a a s l - - k  .>.j.n.x.x.x.n.n.n.n.x.x.k.k.k.x.x.x.j.*.` g - - t s D F N f f f a A S 0.H H S A A S S S S S 9.q.9.9.S ",
"A S S 9.0.q.0.H H 0.q.q.q.q.0.G G n f f f f f N f t s s x [ } } o.} } %.o.%.o.o.o.} } } } o.+.} ` c f f s N N N f f f 4 D A S q.0.A A H S S A A A A S 9.9.9.S 8 ",
"A S 9.0.0.0.S H H 9.H H 0.q.0.9.G J m f f C C F N N f f s k j j ! ! l ~ ! j ~ l ! l ! ~ ~ j j ~ l c f D D D D f f C N n G H q.q.0.V V S G V V 8 7 8 9.9.9.9.S 7 ",
"8 S 0.q.S A A 9.0.0.8 8 9.0.9.0.0.9.J m B C K K N N n d t r e - - e e e e e e e e e t e e - - e s f f a D D K K C F m G 0.0.0.q.0.J 8 8 8 8 V 8 7 S q.9.9.9.S S ",
"A S q.9.S 7 7 S q.q.0.0.q.0.9.9.q.q.0.H J B C C B B f d s a s s s d d f N f N f f f f f s t t s N K D D D n f D F G H 0.q.q.0.0.q.0.A 8 8 8 H H S 9.9.9.9.q.9.S ",
"A S 0.9.H H A H q.q.0.q.0.0.9.q.q.q.q.0.G m N B F B N f f f K K D D D N K D D D D K K C N N a N K D K D D D D D J J 0.0.0.0.H 0.q.q.9.G S H 9.0.0.0.9.9.9.q.S S ",
"8 S q.q.q.q.0.0.0.0.9.S 9.q.q.q.q.9.0.9.G V m V G J D K K K L F F F F D N N N N D K D D F F D D K C N a A J G G H H 0.0.H H H H 0.q.q.q.q.q.q.q.q.q.q.9.9.9.S 8 ",
"8 8 9.q.0.H 0.q.0.9.S 8 9.q.q.0.9.H H G 0.0.9.G A H J F K K D F F N N N N N f N N N D D D N D D N N f a G H q.H H H H H 0.q.0.H 9.q.q.q.q.q.q.0.q.0.9.9.9.S 8 6 ",
"8 S 9.q.9.A 9.0.0.9.9.S 9.0.q.9.H H H 9.q.q.9.H H H J J D n D D J n n D F n n N D D A F D a D D D D f A G q.q.H H H H H 0.q.H H H q.q.q.q.0.9.0.0.9.9.q.q.S 8 7 ",
"8 9.q.q.0.9.S 9.q.9.8 8 S 8 S 8 H 0.q.q.9.G 8 0.0.H H H G A 7 A J G H H H G G H A S A G A A 6 A G A 6 A A G G H H 0.q.q.0.G A 0.q.9.q.q.q.S S 0.9.q.q.q.q.9.9.S ",
"8 S 0.0.9.9.9.9.9.9.S A 9.0.9.9.H q.H H 0.H 0.0.H H 0.0.0.H G H 9.0.9.S A 0.q.0.0.H 0.H H H H S G H G A H q.H H 0.0.H H 0.0.0.0.H H 0.q.q.9.H 0.q.q.0.S 9.0.9.9.",
"8 A 9.9.9.9.0.0.S q.0.S 9.q.0.0.q.q.H G H q.q.H G H H q.q.0.0.q.q.q.S S A q.q.q.H H H H H H q.0.H 0.0.G 0.0.0.0.0.q.H S H q.q.H V H 9.q.q.9.9.q.q.0.9.8 8 q.9.8 ",
"8 A S S 9.q.q.q.q.q.q.q.S S q.9.0.q.q.H 0.H H A H H H 0.q.0.0.q.0.9.S 9.0.0.9.H 0.H H H 0.q.q.q.q.q.q.q.H H 0.q.H q.q.H H H H G S 9.H 0.q.q.0.q.0.9.9.9.0.q.8 7 ",
"8 8 S S 9.9.q.9.q.q.q.9.S S q.q.0.q.0.0.q.0.H G H 0.H H H H 0.0.q.q.9.9.0.q.S S 0.H A A H q.0.0.q.q.q.H H H 0.q.q.q.q.0.q.0.H A H 0.H G 9.G 9.q.q.0.9.9.q.q.8 6 ",
"8 8 8 8 S S 9.9.q.q.9.S 9.9.q.q.0.0.H 0.q.q.0.H H 0.H S G G H 0.q.0.0.0.0.q.H G 0.H A A A H H 0.q.q.0.S S 0.q.0.q.0.0.H q.q.0.S 9.q.9.S 8 S H 0.q.0.9.0.q.q.8 7 ",
"S A 8 S S 8 9.9.q.0.9.9.S 9.0.9.S S G H q.q.0.H 0.q.q.q.0.0.q.H A A 0.q.q.0.q.0.q.H A A A A S 0.0.q.0.S H H H H G A S H q.q.0.0.0.0.q.q.9.q.q.H S G 0.q.q.9.9.8 ",
"7 7 7 8 8 8 S 8 8 8 S S S S S 8 A A S S S S H S H S S H G H H H 7 7 S S A A S H H A 7 A A A A A S A A A S S S A A A A S H H H S S S 9.9.S S 9.S 8 8 S S 8 8 8 7 ",
"5 6 7 8 S S 8 8 7 7 7 7 S 7 7 8 S A S S 7 7 S S S A A A A A A H 7 7 A 6 5 6 7 A A 7 7 A A A A 7 A 6 6 A S A 7 A S A S A 7 7 A A S 8 8 8 8 8 A S 7 5 8 7 6 6 6 5 "
};
