/* XPM */
static char *__resized[] = {
/* columns rows colors chars-per-pixel */
"80 80 226 2 ",
"   c #0A051F",
".  c #213D1D",
"X  c #0A0323",
"o  c #0C0828",
"O  c #160A2B",
"+  c #11102F",
"@  c #14152D",
"#  c #181637",
"$  c #271B3B",
"%  c #1E3927",
"&  c #1B2837",
"*  c #1D313A",
"=  c #243C28",
"-  c #283D2C",
";  c #213A39",
":  c #28491E",
">  c #2F5316",
",  c #2E521C",
"<  c #30561D",
"1  c #335B1D",
"2  c #36621C",
"3  c #39661D",
"4  c #3C6D1D",
"5  c #3F711E",
"6  c #254424",
"7  c #274822",
"8  c #2A4C23",
"9  c #26442D",
"0  c #2B432E",
"q  c #2A4B2C",
"w  c #324E2D",
"e  c #2E5224",
"r  c #2D522C",
"t  c #335C23",
"y  c #355A27",
"u  c #35532C",
"i  c #335B2A",
"p  c #3A5C2C",
"a  c #244134",
"s  c #2A4731",
"d  c #2C4A35",
"f  c #26443D",
"g  c #29453E",
"h  c #2B4A3C",
"j  c #314C36",
"k  c #2D5439",
"l  c #345436",
"z  c #355A34",
"x  c #395B32",
"c  c #315B3C",
"v  c #366222",
"b  c #3A6524",
"n  c #3D6B23",
"m  c #3E642C",
"M  c #3F692A",
"N  c #3F7220",
"B  c #3E6331",
"V  c #41751F",
"C  c #43781F",
"Z  c #406F22",
"A  c #40672D",
"S  c #416A2C",
"D  c #417620",
"F  c #457C21",
"G  c #45712D",
"H  c #416831",
"J  c #1D1942",
"K  c #261D43",
"L  c #1D3242",
"P  c #252848",
"I  c #263745",
"U  c #2D2E50",
"Y  c #373357",
"T  c #49385C",
"R  c #254445",
"E  c #2A4740",
"W  c #2A4B44",
"Q  c #2A494E",
"!  c #2A4D4C",
"~  c #2E5645",
"^  c #2C524C",
"/  c #335947",
"(  c #2C4A52",
")  c #384254",
"_  c #2D5353",
"`  c #2C5B56",
"'  c #315556",
"]  c #315C52",
"[  c #335C5B",
"{  c #386449",
"}  c #2F645A",
"|  c #34635C",
" . c #38695A",
".. c #3B735E",
"X. c #3E456A",
"o. c #356562",
"O. c #356A65",
"+. c #396D62",
"@. c #366D6A",
"#. c #386B6B",
"$. c #357267",
"%. c #3B7365",
"&. c #3C746B",
"*. c #3E7A6C",
"=. c #3A7876",
"-. c #404A5A",
";. c #416F5D",
":. c #494D71",
">. c #645977",
",. c #486D6D",
"<. c #467567",
"1. c #417B6D",
"2. c #427E71",
"3. c #4A7A72",
"4. c #62787F",
"5. c #478022",
"6. c #498423",
"7. c #4C8924",
"8. c #3E817B",
"9. c #438373",
"0. c #458A76",
"q. c #47867A",
"w. c #468A7A",
"e. c #498E7A",
"r. c #508975",
"t. c #47957C",
"y. c #4A927D",
"u. c #3B7A82",
"i. c #72738C",
"p. c #428987",
"a. c #4B9785",
"s. c #4E9C84",
"d. c #519A83",
"f. c #438B9A",
"g. c #4A9D94",
"h. c #489C99",
"j. c #619F87",
"k. c #7F8595",
"l. c #4CA185",
"z. c #51A286",
"x. c #52A48A",
"c. c #5DA38A",
"v. c #54AA8D",
"b. c #57B08E",
"n. c #4BA195",
"m. c #4CA49B",
"M. c #55AD92",
"N. c #52AA97",
"B. c #57B193",
"V. c #59B494",
"C. c #5BBA95",
"Z. c #56B39B",
"A. c #58B69B",
"S. c #5CBC9A",
"D. c #64A389",
"F. c #6AAE93",
"G. c #6AB79A",
"H. c #71B89B",
"J. c #7A86A3",
"K. c #4EA9A5",
"L. c #51ADAF",
"P. c #59BBA3",
"I. c #56B8A8",
"U. c #59BDAC",
"Y. c #4DABB6",
"T. c #54B9B6",
"R. c #5EC49C",
"E. c #5EC89D",
"W. c #61C49D",
"Q. c #62C99E",
"!. c #5CC3AC",
"~. c #5AC3B4",
"^. c #5DC8B5",
"/. c #5AC5B9",
"(. c #5DCBBA",
"). c #64CCA1",
"_. c #6CCDA3",
"`. c #78CAA6",
"'. c #65D3A5",
"]. c #6AD4A6",
"[. c #68D8A8",
"{. c #6BDBAA",
"}. c #77DAAC",
"|. c #62D2BD",
" X c #71D8B4",
".X c #6CE0AE",
"XX c #77E6B3",
"oX c #71EBB4",
"OX c #53B5C9",
"+X c #5CCBCC",
"@X c #61D5C8",
"#X c #62D9D7",
"$X c #67E4DD",
"%X c #5FD4E3",
"&X c #61D9E7",
"*X c #68E7E9",
"=X c #6AECF3",
"-X c #8F96B0",
";X c #A5A8BB",
":X c #85CCA8",
">X c #84D2AD",
",X c #88DDB2",
"<X c #86E6B7",
"1X c #8DEBBA",
"2X c #94E8BA",
"3X c #94EDBE",
"4X c #8CF2BF",
"5X c #93F1BF",
"6X c #99F0BF",
"7X c #A2ECBA",
"8X c #A1F2BF",
"9X c #ACF5BF",
"0X c #B9F8BF",
"qX c #C8FCBF",
"wX c #D6FEBF",
"eX c #AFB7CB",
"rX c #97EDC1",
"tX c #9BF3C2",
"yX c #99F5C5",
"uX c #A6F7C8",
"iX c #A2FBCB",
"pX c #B1F7CB",
"aX c #B9FBC9",
"sX c #A9FDD0",
"dX c #CAFDC5",
"fX c #D6FFC5",
/* pixels */
"> 2 V 4 5 V 5 V V 4 4 5 C 5 C C V V V V 4 4 V F C V V V 5 4 4 4 V V V 5 5 C C 4 2 4 V 4 4 V 5 V V 4 4 5 D V V V V V V 5 4 4 5 C V V C V Z 4 4 V V V V V V C 4 1 ",
"3 4 V V V V 5 5 V 4 5 C C C C 5 V V V 5 4 5 V V V V V 4 4 V C F C C V V 5 C 5.C V V 5 V V V 5 5 V 5 5 C D D V V 5 V C 5 5 5 V C V Z V 4 4 V C C C C V 4 V C V 4 ",
"C C V C 6.F V 5 V V C 5.F F C C V C V Z V V F V 5 D 4 V V 6.6.7.7.6.V 4 V C 7.7.7.5.D F 5.C V 5 5 C C 5.F F D V 5 5 4 4 5 C C C C V Z Z V 5.7.7.7.5.V 4 V C C C ",
"V C 6.7.6.F D D C V V 5.6.7.7.6.6.F V V F 6.7.6.F F 6.6.F 6.6.6.6.6.5.C V 5.5.5.6.6.6.6.6.5.C V C 5 V 5.6.6.6.D 4 1 , 1 4 5.6.6.5.5.C 6.5.5.5.7.6.6.5.C C 5.C Z ",
"4 C C 6.6.7.6.F 5.F F 5.7.7.6.7.6.6.6.F 7.7.7.7.7.6.7.7.6.F F F F F 6.6.C 6.6.6.5.F 6.5.6.7.6.F 6.C F 5.7.7.C 3 8 6 6 7 v F 7.7.7.6.7.7.6.F F F C C 7.5.C 5.C V ",
"V V V C 6.7.7.7.6.5.5.5.7.6.5.F 6.6.7.7.7.7.7.7.7.7.7.6.6.F F D 4 V 6.7.7.C 5.6.6.F V N 6.7.7.7.6.5.5.5.7.5.3 < a R R d t N 7.7.6.7.7.7.6.F C D V V 6.7.6.C C V ",
"4 Z V C F F F F F F D F D F 6.6.6.6.F C F F F 6.6.7.7.7.6.D V F 5 5 F 7.6.F V C F F D F F F F F C F 5 5 4 2 z ;.<.q.r. .~ i n N 6.6.7.7.6.F C C V 4 C 7.7.C V 3 ",
"4 4 V C F V V V N N 5 5 5 5 F 6.6.6.F F D D C V 6.6.7.7.7.6.F 6.C C 6.7.7.V V V F D D F F D 5 D 5 5 5 3 , r { r.F.`.W.t.$.c r 2 Z 7.7.7.7.F 6.6.C C 7.7.7.V 4 2 ",
"4 5 C 5.F 5 5 5 5 5 N 5 5 5 5 N 6.F 6.7.7.F C V D 6.7.7.7.7.7.7.6.6.6.7.6.n V F F F V F F 4 5 5 5 5 4 < : j 3.H.,XrXXXG.y.| f : 1 6.7.7.7.7.7.7.6.6.7.7.6.Z 4 4 ",
"4 5 C C F N N 5 4 N 5 5 N F 5 6.6.F 7.7.7.6.F 6.6.7.7.7.6.6.7.6.F V F 6.6.6.6.7.F C V F F D V 4 5 5 4 , % ^ r.`.yXyXXX).x.@.W 9 b 7.7.7.6.6.6.6.C V C 6.6.6.C V ",
"4 5 5 5.6.5.5 5 N F F F F 5.7.6.7.6.6.7.7.6.6.7.7.7.7.6.F F 6.6.5 4 4 F 7.F 7.7.5.F V 5.6.6.V 5 N F 5 < = Q y._.XX4X XW.s.@.^ q 3 7.7.7.C C 6.7.V 4 4 C 7.6.F C ",
"C 5 F 7.7.6.F F 5.6.7.7.6.7.7.7.7.6.7.7.F 6.6.F 6.7.7.6.D F 7.7.D 4 5 6.7.D F 7.7.F V 7.7.7.F F 5.7.F n 8 f %.l.Q.].R.z.9.| f 8 n 7.7.F C C 7.7.V 4 V 5.7.V V V ",
"5 5 5 5.7.6.7.5.N N 6.7.5.5.7.5.C 7.7.7.7.7.7.6.6.7.7.7.6.6.7.7.6.F 6.7.7.F F 6.5.F D 5.6.7.7.6.5 F F F t r { 8.s.v.l.9. .~ r 2 D 7.7.7.6.7.7.7.6.5.6.7.6.F V 4 ",
"4 5 C 5.6.7.7.7.C N F 7.5.F 6.F C 7.6.C 7.7.7.F 6.7.7.7.7.7.7.7.6.7.7.7.6.5.F 6.F F F F 6.7.7.6.V 5 F 5.5 v z { %.=.=.} ~ z n 5 F 6.7.7.7.7.7.7.6.6.7.7.6.6.F V ",
"C C 5.6.7.7.6.6.7.5.F 7.5.5.6.7.7.C V Z F 6.7.C V F 6.6.6.7.7.5.F F 5.5.F 6.6.7.5.6.5.6.7.7.6.6.7.F F 6.5.N v r h ^ ! f r n 6.N V F 6.6.6.7.6.5.F F 5.5.F 6.F C ",
"5 C 6.6.7.7.6.7.7.6.6.5.6.6.6.7.7.C Z Z V F F V Z F F F F F 6.6.6.5.5.6.7.7.7.7.5.6.6.6.7.7.6.6.7.6.6.5.6.6.5 v q 9 9 8 < 5 5.N 5 F F F F 5.6.6.5.5.6.6.7.6.6.C ",
"5 C 6.5 5.6.6.6.6.7.5.F F 5.7.7.6.F F N N V F N F F F F F F 6.7.7.7.7.7.6.7.7.7.6.6.6.F F 7.6.6.6.6.5.F F 5.5.N 3 < , 1 3 N N F F 5.N F N 5.6.7.7.6.7.6.6.7.6.C ",
"C C C 5 5 5.5.5.5.F N N 5 D 5.7.7.7.5.5.5.6.6.6.7.6.6.7.7.6.7.7.7.7.7.F F 6.7.7.6.5.D 4 D F F F 6.F n N 5 C 6.6.6.5.F F F 5.7.6.6.6.5.N F 6.6.6.7.7.7.5.V 6.F C ",
"5 C 6.C N 5 C F F 5 F F 5 5 5.6.7.7.6.6.F F 6.7.7.7.7.6.F 5.6.6.F F 5.F V F 6.6.6.6.F F D D D F F D V F 5 5 6.7.7.7.7.6.F F 6.7.7.7.N 1 t 4 5.6.5.C 5.C V D C C ",
"5 C 6.6.F F F F F 5 F 5.D 5 5.7.6.6.6.6.F F 6.7.7.7.7.6.F F 6.6.F 5 F F F 5 5.6.6.6.7.5.F F F F D C F 5.5 5 5.6.7.6.6.6.F F 6.6.7.N v e 9 t 5 6.C 5 C 5.F 5 V C ",
"C C 6.6.7.7.6.6.5.F 5 5 5 D 7.6.5.5.6.7.7.7.7.5.5.6.6.7.7.7.7.6.7.7.7.7.7.F 6.7.6.6.6.6.7.6.6.6.5.F 5 5 5 5 7.6.5.6.6.7.7.7.7.5.N v / ] ] c b 5.6.6.7.7.6.5.C C ",
"C F 6.6.6.6.6.7.6.6.F F F 5.7.7.5.F 5.6.6.5.5.6.6.6.5.5.6.6.6.5.6.6.6.7.7.6.6.7.6.6.6.7.7.6.7.6.6.5.5.F F 6.6.7.7.5 5.7.6.5.5 n v c ..0.0...{ b 5 5.5.7.7.6.C C ",
"5 C 6.6.5.5.6.6.7.7.7.7.7.7.7.7.6.C C F F 5 D 7.7.F F V 5 V F F C 5 5 F 6.F 6.6.F F 6.F F F 5.6.6.6.6.6.7.7.6.7.6.5 5.5.F 5 4 1 d ] t.b.b.0.] 6 , 4 5 6.7.C C C ",
"C C 5.6.6.7.5.5.F 6.7.7.7.7.6.6.F F F 5 5 F 6.7.5.5 V F F F 5 5 3 2 1 3 3 3 3 3 n 3 3 4 4 4 4 v 4 3 n V 6.6.6.6.5.5 N N 5 F N 1 r / e.B.B.0.] 6 , 3 F F 6.6.F V ",
"V C 5.6.6.6.F C 5.F F C 6.7.6.F F 5.F F F 5.7.7.5.5 5 N C V 5 4 , : 8 7 7 7 7 : : : : e e 8 8 8 6 8 8 < D 6.6.F 5.5.C 5 5.6.6.5 v ~ %.0.0...c e 1 4 5.5.5.5.C 5 ",
"5 C 6.7.C 5 5 5.6.5.F 5 F 7.5.6.6.7.6.5.6.7.6.7.5.N 5 5 4 4 4 1 8 = * a a a a a ; a a a a a a a a f a q b F 6.6.6.7.6.5.7.6.6.7.N v c ] { k t 4 5 5 6.6.5.6.C 5 ",
"V C 6.6.C 5 4 C 7.7.6.6.6.6.5.6.7.7.7.6.7.7.6.7.7.5.5 1 > 1 1 e ~  .3.1.&.%.%.<.<.<.<.%. .|  . .O.&. ./ z v 5 5.7.7.7.7.7.7.6.7.6.F t 9 9 e 4 N C C C 6.6.6.5.C ",
"V C 6.5.5.C 5 C 7.7.7.6.7.6.6.6.7.7.7.7.7.5.C 6.7.6.2 : = . 7 c 9.c.H.H.F.F.F.F.H.F.D.c.a.t.t.t.s.v.s.*./ r t F 7.7.7.7.6.5.F 5.6.6.4 < e 4 F 6.6.6.5.5.5.6.5.C ",
"V C 6.7.7.6.7.6.7.5.F F 5.6.7.7.7.6.6.6.6.F 5 6.6.N t q ; * f  .j.:XrXrX<X,X,X,X2X,X,X`.W.C.C.C.W.).W.s.%./ 8 n 6.6.6.6.5.N N 7.6.6.6.5.C 7.7.7.7.7.7.6.5.5.5 5 ",
"4 V 6.7.6.5.6.7.5.5.F 5 5.7.7.6.5.F N F 6.7.6.5 v v c ;.3.%.3.d.:XuXaXaXpXpXuXuXiXiXtX3X,X{.].].'.{.].S.s.1.~ r v 5 5 F 6.6.7.N 5.7.6.6.6.6.6.6.6.6.C 6.6.C 5 4 ",
"5 C 6.7.5.C 5.6.6.5.F F 5.6.6.5.F F F F 6.7.F 2 e k <.c.`.G.G.:X7XaXfXfXdXaXaXiXiXiXiXyX4X<X.X{.].[.[.).W.z.%.~ r 1 4 C 7.6.5.C 5.6.7.7.7.6.6.6.6.6.5.6.7.C 5 5 ",
"V C 7.7.6.C C 6.7.5.N N C C 5 F F 6.7.7.6.N 2 e k ..D.>XrXrXrX7XaXdXfXfXdX0XuXtXyXtX6X6X6X1X,X'.E.Q.Q.'.'.Q.l.&.~ q n 5.6.5 5 7.6.6.7.7.7.C C 6.6.6.7.7.7.6.C C ",
"5 C 6.6.5.C 5.5.5.5.5.5 5.7.F 5.5.6.6.N C b e l <.D.`.rXsXsXpXdXdXwXwXwX0X9X8X6X1X6X6XtXuX6X,X].R.R.E.).{.].C.d.+.W i v N C 6.6.F F 5.7.7.5.F 6.7.7.6.F 5.7.6.C ",
"5 5 5.5.5.5.7.6.C 7.6.5 5.6.6.6.6.6.5.5 4 t l ;.j.>XrXiXpXaXdXfXfXwXqXqX9X7X6X6X6X6XtXuXtX6X,X_.R.R.Q.).[.].Q.M.e. .W s t V 7.F F F 5.6.7.6.6.6.7.6.5.5 5 7.5.5 ",
"5 5 5.F 6.7.7.7.7.7.7.7.5 C 7.6.5.7.6.N 8 d  .D.>XyXyXyXpXaXqXwXwXqX0XuX6XrX6X6X6X6X6X8X6X3X}.].R.E.Q.Q.).).W.S.x.9.| W q 2 F N F F F 6.7.6.6.7.6.5.5.5.6.7.5 4 ",
"5 5 C 5 C 6.5.7.7.7.7.5.F 5.7.7.7.C 4 v k } r.`.rXsXiXyX8X9X0XqXqXqX9X7X5X3X3XrXtXtX6X3X1X}.}.Q.E.Q.Q.Q.).).).S.M.w.o.W 8 2 F D F 5.F F F F 5.7.7.6.5.5.7.7.5 3 ",
"5 5 5 5 N 5.5.5.7.7.5.5 F 5.6.6.F 3 e k } 0.G.XXtXiXiXyXrXtXpX9X9X9X8X6X3X5X5X6X8XuX3X1X}.].'.Q.Q.Q.Q.Q.].).Q.R.v.w.o.W 8 3 F F 5.6.5.F V F F 6.6.7.5.6.7.7.5 4 ",
"C 5 5 C 5 5 5.5.7.7.7.5.C 5.6.5.4 , a ^ 9.B.{.<XrXtX6XuXyXrX6X6XtX5X6X6X6XrX6X6X6X3X1X}.].E.Q.E.Q.Q.Q.Q.Q.Q.R.C.x.w.O.^ q v F 5.5.6.7.6.F 7.6.F C N 7.7.7.5.6.5 ",
"5 C C 5.5.F 5.5.5.5.5.5.5.5.5.5.5 , 9 ! 0.C.{.XX<X3X5XiXsXsXiXuXyXyXtX6X6XuXtXtX3X1X}.}.].].[.[.{.].'.Q.W.R.b.b.x.a.*. .~ i b N F 6.6.6.6.6.7.6.5 5 6.6.5 F 5 5.",
"5 5 5.6.6.7.5.5.C 5.5 5.6.6.C 6.F < a ! 9.V.{.[.{.}.1XyXuXuXiXuXyXtX6XtX6XtXuXtX2X}.].].'.'.[.[.].].).Q.G.b.v.z.x.s.t.0. .~ s v V 5.6.6.6.6.6.6.5.C 6.F 5 C 5 5 ",
"3 5 6.6.5.6.6.6.5.F F 6.7.6.6.5.n e k  .y.V.'.'.'.Q.`.`.:X:X:X,X1X3X5X3X1X5X3X1X<X].Q.C.b.v.v.b.V.W.Q.S.V.x.s.s.x.M.B.v.p.o.W u 4 6.7.6.6.F F 6.7.6.7.C 5.7.C 4 ",
"5 5 C C 5.5.C C F F F 6.5.F 5 v i c { 0.x.R.'..X{.R.v.r.<.<.r.F.`.<X4X<X,X,X,X}.XX.XE.t.$.] `  .r.v.S.R.V.x.s.s.x.A.P.P.s.#.R 8 1 C F F F F 6.6.7.6.C C C 7.C C ",
"C C 5 5.5.5.5 5 5 F F 5.5.5 1 8 d  .t.b.W.Q.'..X{.C.9.R $ $ ; ,.D.].oXXX]._._.].XX.XE.0.! & @ * ' 9.v.S.V.x.s.s.x.P.!.U.g.@.E 6 < Z V Z D F 7.7.7.C C Z C C C C ",
"5 C 6.7.6.5.C 5 F 5 N 5.6.F t 9 ^ 8.C.'.{.'.Q.Q.V.y.,.) $ O @ ; +.l.R.Q.Q.).Q.E.W.R.t.<.-.K # O & ( =.s.x.z.z.z.x.P.^./.m.@.E 8 3 F 6.F 6.F 6.6.6.7.5.C C 6.C Z ",
"5 F 5.6.6.6.6.5.5.F F 5.7.F e s _ y.R.{.oX{.C.t.3.,.i.i.>.U J + L } t.b.R.'.).R.t.0.<.4.i.>.T K + & ( @.w.d.v.z.v.P.^.~.m.@.E e 4 7.7.7.6.6.5.C C C 6.6.C C C C ",
"5 5 5 N 5.7.7.6.6.6.5.5.7.F < 9 ! 9.B.[.oX{.b.$.Q -.k.;XeXi.Y + + L  .t.E..X.XC.8.~ ( i.;XeXJ.X.# + & ( &.d.v.v.x.P.^./.h.#.g 8 3 7.7.7.6.C C C V V 5.7.7.C C C ",
"4 5 5 5.5.5.5.F F D D D F V 1 9 W 9.x.Q.oX{.v.^ # K i.eXeXi.X.# X @ ; 8.Q.oXoXC.] % # >.;XeX-X:.J X o * [ a.b.v.v.I.~.!.h.@.g 8 4 7.7.6.6.C V C 4 Z 5.7.6.C V 3 ",
"4 5 5 5.F 5 5 N N 5 5 D 5 3 < 9 W &.t.R..X{.v.` # O X.i.-Xi.:.J X   * 8.Q.oXoXR.} @ O T i.-Xi.>.P + X # [ e.b.v.z.P.~./.g.@.g 7 3 6.7.7.6.6.5.5.C C 6.7.7.V 3 2 ",
"4 5 V C C 5 5 5 5 5 5 N 5 3 , 9 W %.p.B.[.'.b.+.* O K T :.:.:.U # @ E r.Q.oXXXC.&.; O J Y :.:.:.Y J + * | y.b.v.x.P.~.~.g.@.g 6 1 7.7.7.7.7.7.7.7.6.7.7.6.Z 4 Z ",
"4 4 C C F V 5 5 5 N 5 5 F 4 , 9 ! +.r.x.R.).B.9.' & # + J K U U I Q %.t.Q..X[.V.0.[ P # + J K U U P I _ &.t.v.M.M.U.^.U.g.#.f 8 3 6.7.7.6.6.6.6.C V C C 7.6.C C ",
"5 5 C 5.7.6.V V D F F F F F t 9 W %.w.s.V.V.M.s.2.' & o   o # U [ 3.v.R.).].!.b.s.2.` L + X X # P ) o.2.t.s.M.N.P.^.(.I.g.O.f e Z 6.7.6.C 6.6.6.V 3 V C 7.F C C ",
"C 5 C 6.7.7.C C 5.6.7.7.6.N t q W %.p.x.M.M.v.M.s.=._ & o   # Q 2.M.].].Q.R.V.x.M.z.q.` P o   @ I o.q.x.x.x.N.I./.@X@X~.g.O.g : Z 7.7.6.V C 7.7.V Z V 7.7.C C V ",
"5 5 C C 6.7.7.5.5 F 6.7.6.5 1 q ! =.x.A.A.v.l.b.M.d.&.( * & I o.s.).{.].S.B.x.x.V.A.v.2.' ; # ; _ &.s.V.b.M.P.!.@X$X*X%XK.=.E 6 3 7.7.7.6.7.7.7.6.C 6.7.7.C V Z ",
"4 5 C 5.6.7.7.6.V D F 7.5.5 < 9 ! p.N.^.P.M.s.x.v.s.e.&.| [ +.0.v.).).S.B.x.l.x.M.A.V.s.9.o.[ | *.0.z.B.Z.A.!.^.@X*X=X&XY.=.f : 3 6.7.7.7.7.7.6.7.7.7.7.6.6.C V ",
"5 C 6.6.7.7.7.6.6.F F 6.6.D < q ! 2.K.!.!.Z.x.x.x.z.x.s.s.s.s.s.s.x.x.x.x.x.x.x.z.z.s.s.s.s.s.s.s.l.x.Z.I.~.^./.^.#X*X&XY.=.f : 1 C 6.6.7.7.6.6.C C F F F 6.F C ",
"5 C 7.5.7.7.6.6.7.7.6.5.6.F 3 r ~ O.p.m.I.P.P.I.P.P.Z.M.v.M.M.s.9.&.2.a.x.V.Z.x.y.9.1.w.l.b.C.C.A.A.P.^.#X#X+XI.N.L.Y.OXf.o.d 8 2 F F F D F 6.6.6.6.6.7.7.7.F C ",
"5 F 5.F C 7.6.6.7.7.6.F F F D m x ' [ 2.g.I.(.|.^.!.A.B.v.B.v.e.+.[ | 0.x.A.A.x.9.| ] %.t.V.!.!.!.!.^.#X*X=X+Xm.=.#.=.u.#.] x y 4 F F F F F 6.7.7.7.7.6.6.7.5.C ",
"5 D F 4 V F F 6.5.F 5 5 5 D F D A l h ' =.m././.~.I.I.M.v.B.v.w.o._ [ *.s.M.v.t.$.` _ %.y.A.!.(.(.~.~.+X&X%XOX=.! ; ; E ~ x S F 6.6.6.7.7.6.7.7.7.7.7.5.C 6.5.C ",
"5 C 5.F V F F F F D V F 5 5 D G S x 0 h | q.g.n.n.n.N.I.!.!.I.N.a.=.=.*.2.9.9.1.*.=.8.p.N.^.@X*X#XT.K.h.Y.Y.f.o.j = = 0 w p S F 6.7.7.6.F 6.6.6.5.C 5.C C C C C ",
"5 F 6.5.F F C C D D F 5.V 5 V G A B p u / | @.O.@.8.g.!.|.|.(.~.T.m.p.*.[ ^ ^ | =.a.K.I.^.@X*X=X%XY.u.o.#.=. .-.l u u u x p S G 6.7.7.6.F F 6.6.C C C 5.C 5 5 C ",
"C C 6.6.7.7.6.6.5.C 5 5 4 5 F G m A A A x h ; ; ; [ 8.m.~.~.~.U./.U.p.O.R % & ! =.g.U.~.U.T.%X%XOXp._ * - ; j x p A S A H S Z Z C 6.6.7.7.7.7.7.6.7.7.7.7.5.C C ",
"5 5.6.6.6.6.6.6.6.5.5.5.F 5.6.C Z Z A A x j - = s W  .8.n.g.g.h.m.n.8.} I & & R O.p.n.n.g.h.Y.Y.f.@.h = = - w p A A A A A A Z D 6.6.6.F 6.6.6.6.6.6.6.7.7.5.C C ",
"5 C 6.6.6.6.6.6.7.7.7.7.7.7.6.6.C n p A x j u p u l / | @.@.O.@.$.@.} _ W * * W _ } $.@.O.@.@.=.#./ z p p p p m A b p m p Z Z F 7.C C C V V C C C C C 5.7.5.5.C ",
"C C 5.6.6.7.6.C 5.6.6.7.7.7.6.5.C Z 3 p p p m G M z d h ; R f f f E f R W E h W E E g g E g f f h z m S Z S A m p p p 1 Z C F 7.6.V C C C C C V 5 C C 5.5.5.C 5 ",
"V C 5.6.6.6.C C C 5.C 5.6.7.6.5.C 5.N n M m S G S z w 0 - - - - - - d j j l l l j 0 0 s 0 - - - w u b A S S S H B m b n N 5.7.7.6.N N N 5.N 5 N 5 5 5.5.5.5.C 5 ",
"5 C 6.7.C 5 C 5.6.5.5 5 6.6.5.6.6.6.5.F D S B H H p u u j w w u w u p x x z x x z x x x u w u u p p p u m A H x B G N D 6.7.6.7.6.N N N 5 5 5 5 5 5 6.6.5.5.C 5 ",
"5 5.6.5.C 4 4 C 7.7.6.6.6.6.5.5.7.7.6.6.F G M M S M b e p u p m p m m m A A S S A A A A p y u p A H H A S S m A M D 5.7.7.7.6.6.7.6.N N 4 5 N 5.5.C 5.5.5.7.5.C ",
"V C 6.6.F F V F 7.7.7.7.6.6.6.7.7.6.7.6.5.D n N D G M m p m A A S A A A A A S S A A A A b A p p S H H A M Z Z D D F 6.7.7.6.F 6.7.7.5.N N 5.5.7.6.6.5.5.5.6.5.C ",
"5 5.6.7.7.7.6.6.7.5.5.C 5.7.7.7.7.6.5.6.F 5 5 F F F D S H H S H S H S m m m m m A A A A A A A H H m p y n F 6.7.5.5.5.6.5.F C 6.7.7.7.7.7.7.7.7.7.7.7.5.5.5.C 5 ",
"5 5 6.7.6.C 6.7.5.6.C 5 5.7.7.7.6.5.F F 6.7.6.F F 6.F G S S Z S n M m b m y b b b b A Z Z p Z S b A m b C 7.7.6.5.F N 5.6.7.6.C 5 7.7.7.7.7.7.7.7.6.5.5.5.C 5 4 ",
"5 5 6.7.5.V 6.6.6.5.5.5 5.6.7.5.F 5.F 5.7.7.6.F 6.7.6.F D G Z D D N G D F n 4 n Z D G C Z Z Z D G Z 4 4 F 6.6.F F 5.F F 7.7.6.C 6.7.7.7.7.6.5.7.7.5.5.6.6.5.5 4 ",
"5 5.6.7.6.5.C 5.7.5.5 5 5.5 5 5 F 6.6.7.6.5 5 6.7.F 6.6.6.D D F 5.5.6.6.6.F 7.7.F 6.5.7.F C V C 6.C n V V C D F F 6.7.7.6.5 5 6.7.5.7.7.7.5.5 5.6.6.7.7.7.5.5.5 ",
"5 C 6.6.5.C 5.5.5.5.C V 5.6.5.5.6.6.F F F 6.6.6.F F 6.7.7.F F 6.7.7.6.C C 6.7.7.6.6.6.6.6.C C 6.6.6.C V 5.6.F F 5.6.5.C 5.6.5.6.5.5.7.7.7.5.C 7.6.7.6.5 5.6.5.5.",
"5 C 5.5.5.5.7.6.C 7.6.C 5.7.7.5.6.7.F C 6.6.7.F F F F 7.7.6.F 7.6.6.5.5 C 7.7.6.F F C 6.F 6.7.6.C 6.6.C 5.6.7.6.6.6.6.5 5.6.6.5.5 5 5.7.6.6.6.6.7.7.7.5 5 7.5.5 ",
"5 C C C 5.7.7.7.7.7.7.7.5.5 7.6.6.6.6.6.6.F F V D 6.F 6.7.6.7.7.6.5.C 5.6.6.6.C 6.F F F 6.7.7.7.7.7.7.7.F F 7.6.6.7.7.5.6.5.5.5 5 5.C 6.7.7.6.7.6.5.5.5.6.7.C 4 ",
"5 5 V C 5.7.6.6.7.7.6.5.5 5.7.7.6.7.6.6.6.6.F V F F F F F F F 7.7.7.5.5.6.7.5.5 6.F V V F 6.6.6.7.7.7.F F 5.7.7.6.6.6.6.6.6.C 5 5.7.5.5 5.C 5.6.7.6.5.5.7.7.5 3 ",
"5 5 5 5 5 5.C 5.7.7.6.C 5.5.7.6.6.6.F 6.7.7.6.C 6.6.6.C D D F 7.7.6.5.6.7.6.F F 6.F V V C F F 5.7.7.5.C C 6.6.6.7.6.5.6.7.6.5.C 5.7.6.C 5 5.5.6.7.6.6.6.7.6.5 3 ",
"C 5 5 C 5 5 5.5.6.6.5.5.C 5.6.5.C F D F 7.7.6.6.6.6.7.6.6.6.7.F C C 7.7.7.5.6.7.6.C 4 V V V F 6.6.6.6.5.C 5.6.F F 5 C 5.7.7.7.6.5.7.7.6.5.7.6.5.5 5 6.7.7.6.5.5 ",
"4 4 5 5 C 5 C C C 5 C C C C C 5 V V V C V C 6.C C C C 6.C C F F 4 4 C 5 5 V C 5.F V 5 V V V V C C V V V C C V V 5 C C C F N 5.5.C 5.5.C 5 5.5.C 5 5 C C 5 5 5 5 ",
"2 3 4 5 C 5 5 5 4 4 4 5 5 5 4 5 C V C V 4 4 V C V V 4 V V Z D D 4 4 5 4 2 4 4 V V 4 4 V V V 5 4 4 4 4 5 V V 4 5 C 5 C 5 4 4 5 C 5 5 5 5 5 5 5 C 5 3 5 4 2 3 3 2 "
};
