/* XPM */
static char *__resized[] = {
/* columns rows colors chars-per-pixel */
"80 80 227 2 ",
"   c #06001D",
".  c #0D0827",
"X  c #110D27",
"o  c #0E112E",
"O  c #121128",
"+  c #140E32",
"@  c #181536",
"#  c #251238",
"$  c #18262D",
"%  c #1C2538",
"&  c #1D2C3D",
"*  c #1C363A",
"=  c #223E28",
"-  c #21253E",
";  c #233936",
":  c #2C4D1D",
">  c #2F5316",
",  c #2E541C",
"<  c #345917",
"1  c #31561E",
"2  c #335C1D",
"3  c #36631C",
"4  c #39661C",
"5  c #3C6D1D",
"6  c #3F711E",
"7  c #284925",
"8  c #26442C",
"9  c #2D442B",
"0  c #2B4B2C",
"q  c #314B2C",
"w  c #2E5222",
"e  c #2E532C",
"r  c #315622",
"t  c #335C23",
"y  c #35542C",
"u  c #34592B",
"i  c #3A5D2D",
"p  c #264433",
"a  c #2A4533",
"s  c #2B4A32",
"d  c #27423A",
"f  c #29443A",
"g  c #2A493D",
"h  c #314E32",
"j  c #2D5434",
"k  c #2C553A",
"l  c #335335",
"z  c #345936",
"x  c #366224",
"c  c #3A6424",
"v  c #3D6C23",
"b  c #3D632D",
"n  c #3F692A",
"m  c #3F7220",
"M  c #366130",
"N  c #3D6330",
"B  c #41751F",
"V  c #43781F",
"C  c #406B29",
"Z  c #416A2C",
"A  c #417620",
"S  c #457C21",
"D  c #44712B",
"F  c #416931",
"G  c #271D43",
"H  c #1E3642",
"J  c #282A4B",
"K  c #342E4E",
"L  c #253944",
"P  c #33365C",
"I  c #383E64",
"U  c #423358",
"Y  c #493C61",
"T  c #254544",
"R  c #2C4B43",
"E  c #2A4D4C",
"W  c #2E5646",
"Q  c #2D514C",
"!  c #325845",
"~  c #325B4C",
"^  c #2D4E50",
"/  c #324B51",
"(  c #2D5352",
")  c #2A5554",
"_  c #2D5A54",
"`  c #2F5D5A",
"'  c #355657",
"]  c #325B54",
"[  c #335D5B",
"{  c #38664D",
"}  c #386656",
"|  c #33635D",
" . c #34695D",
".. c #3E456A",
"X. c #325F61",
"o. c #346562",
"O. c #356967",
"+. c #396C63",
"@. c #3C7464",
"#. c #3C756B",
"$. c #3E7A6D",
"%. c #376D70",
"&. c #3D7B74",
"*. c #416A54",
"=. c #524E68",
"-. c #59506D",
";. c #4A616A",
":. c #46756B",
">. c #417D6D",
",. c #526871",
"<. c #447D75",
"1. c #478022",
"2. c #498423",
"3. c #4C8924",
"4. c #39816D",
"5. c #3E8373",
"6. c #3E837C",
"7. c #43836F",
"8. c #438273",
"9. c #488978",
"0. c #548776",
"q. c #528C7A",
"w. c #4B957D",
"e. c #49967D",
"r. c #5B957E",
"t. c #5B6789",
"y. c #70738F",
"u. c #3F8780",
"i. c #418B84",
"p. c #428B86",
"a. c #4C9681",
"s. c #4E9C83",
"d. c #44938C",
"f. c #4B9B8C",
"g. c #549983",
"h. c #428D9A",
"j. c #479895",
"k. c #6B9193",
"l. c #51A286",
"z. c #52A48A",
"x. c #52AB8A",
"c. c #54AA8C",
"v. c #5AAC8E",
"b. c #4DA499",
"n. c #55AC92",
"m. c #52AD9B",
"M. c #57B292",
"N. c #59B494",
"B. c #5CBA96",
"V. c #56B39B",
"C. c #5CBC9A",
"Z. c #68AA8E",
"A. c #75BC9C",
"S. c #499DA4",
"D. c #4CA7A7",
"F. c #54B4A4",
"G. c #5ABCA4",
"H. c #56B9A9",
"J. c #56BAAD",
"K. c #56BDB1",
"L. c #5FC39B",
"P. c #5FC89E",
"I. c #61C59D",
"U. c #6BC09A",
"Y. c #62C99F",
"T. c #5DC4AA",
"R. c #5AC3B3",
"E. c #5DC8B2",
"W. c #5ECDBB",
"Q. c #64CCA1",
"!. c #69CCA2",
"~. c #7AC4A2",
"^. c #7ACAA7",
"/. c #65D2A4",
"(. c #69D5A6",
"). c #6BD6A8",
"_. c #6BDBAA",
"`. c #76D5AB",
"'. c #7ADAAC",
"]. c #63D5BB",
"[. c #70D6B2",
"{. c #6EE2AE",
"}. c #7DE3B3",
"|. c #74EAB4",
" X c #78EAB5",
".X c #54BCCC",
"XX c #55BBD0",
"oX c #5AC8D0",
"OX c #63D8C4",
"+X c #63DBD6",
"@X c #66E1DE",
"#X c #5FD5E3",
"$X c #62DCEC",
"%X c #65E3EA",
"&X c #68E9F2",
"*X c #878399",
"=X c #9090A4",
"-X c #81CCA8",
";X c #84DFB1",
":X c #8BE5B6",
">X c #84EBB8",
",X c #8DEBBA",
"<X c #97E6B9",
"1X c #94EEBE",
"2X c #88F2BD",
"3X c #94F1BF",
"4X c #99F0BF",
"5X c #A7F4BF",
"6X c #B6F7BF",
"7X c #C2FBBF",
"8X c #D2FEBF",
"9X c #9CA9C0",
"0X c #A6AEC2",
"qX c #BBC3D1",
"wX c #99EEC1",
"eX c #95F2C1",
"rX c #9CF3C2",
"tX c #9DF9C7",
"yX c #9EFBCA",
"uX c #A2F5C2",
"iX c #A2FCCB",
"pX c #A8F9C8",
"aX c #B8FBC7",
"sX c #B0FFD0",
"dX c #C9FEC6",
"fX c #D5FFC3",
"gX c #C6FFD1",
/* pixels */
"> 3 B 5 5 B B B B 5 5 6 V 6 V B B B B B 5 5 B V V B V B 5 5 5 B B B B 5 B V V 5 3 5 B 5 5 B 6 B B 5 5 B 6 V V B 6 B B 6 4 < , < 4 6 6 6 6 6 6 6 6 6 V 6 6 V 6 < ",
"4 5 B B B S 6 5 B 6 6 S V V V 6 B V B 5 5 B B B B B B 5 B B S V V B B B 5 V V V B B 6 B B B 6 6 B 5 B V A S B 6 6 V S m 5 , : 7 2 5 6 6 6 6 6 1.V V 6 6 6 V B 5 ",
"V V B V S S B B 6 B V 1.S S V V B A B B B A S A A A 5 A B S 2.3.2.2.B 5 B V 3.3.3.1.A S 1.V B 6 6 V V 1.S S S A 6 V 6 4 x e p p e 4 4 6 6 1.2.3.3.2.6 6 6 1.1.V ",
"B V 2.3.2.S A A V B B 1.2.2.3.3.2.S B B A 2.3.2.S S 2.S 2.2.2.2.2.2.2.V V 1.2.2.1.2.2.3.2.1.V B V B 6 1.2.2.3.2.2.V 4 1 j { #.@.{ u c 6 2.2.2.2.2.2.2.V 6 1.V 6 ",
"5 V S 2.2.3.2.S 2.S S S 3.3.3.2.2.2.2.S 3.3.3.3.3.3.3.3.2.S S S S S 2.2.S S 2.2.2.S 1.S 2.3.2.2.2.V S 2.3.3.2.3.2.m 2 7 { 5.l.s.$.k t v S S S S V 1.2.2.V 1.V 6 ",
"B B B B S 3.3.3.2.1.1.2.3.2.1.S 2.2.3.3.3.3.3.2.3.3.3.3.S S V S 5 B 2.3.2.S 2.2.2.S B A S 3.3.2.2.2.1.1.3.3.1.S 1.m t s } e.B.N.9.} s 2 S V S V 6 6 2.3.2.V V 6 ",
"5 B B V S S S S S A A S A S 2.2.2.2.S S S S S 2.2.3.3.3.3.S A A B 5 S 3.2.S B V S S B S S 1.S S V S m S m S 2.2.2.6 2 7 ~ 8.l.l.$.k y 3 S S B V 6 6 2.3.3.1.6 4 ",
"5 5 B V S A A A m m 6 6 6 6 S 2.2.2.S A S A V V S 3.3.3.3.S S 2.S A 2.3.3.B B B S A A S S A B B 6 6 6 m 6 6 S 2.2.S 6 x M { @.@.{ M v S 2.S 1.2.6 V 2.3.2.6 5 4 ",
"5 6 B 1.S 6 6 6 6 m m 6 6 6 5 S 2.S 2.3.3.S V B S 2.3.3.3.3.3.3.2.2.2.3.2.5 A S S S A S S 5 B v 6 m 6 6 6 5 v S 1.1.2.2.m j k p u S 1.3.3.3.3.3.2.3.3.3.2.5 5 6 ",
"5 6 B V S A 6 6 6 6 m 5 m S m 1.2.2.2.3.3.3.S 2.2.3.3.3.3.1.3.2.S B A 2.2.2.2.3.S A B S S A B 5 6 6 m 6 m S V 1.2.1.3.3.1.x 7 w v 2.3.3.2.1.2.2.1.6 6 1.2.1.1.6 ",
"5 6 A 1.1.1.A m A S S S S 1.2.3.3.2.3.3.3.3.2.3.3.3.3.2.S S 2.2.A 4 5 S 2.2.3.3.2.S B 2.2.2.B B m 1.S m 1.1.2.3.3.2.2.3.2.6 4 v V 3.3.2.V V 2.2.6 5 6 1.3.2.2.V ",
"V B A 3.3.3.S S 1.2.3.3.2.2.3.3.3.S 3.3.S S 2.S 2.3.3.S B 2.3.3.A 5 B 2.3.A S 3.3.S B 2.3.2.S S 1.2.3.3.2.2.3.3.3.1.2.3.S 1.2.S 1.3.3.1.6 2.3.3.6 5 6 2.3.6 6 6 ",
"6 6 6 1.2.3.3.1.m S 2.3.2.S 3.1.1.3.3.2.3.3.3.2.2.3.3.3.2.2.3.3.2.S 2.3.3.S S S S S A S 3.3.3.2.6 S 2.3.1.S 3.1.S 3.3.2.2.3.3.2.2.3.3.2.2.3.3.3.2.1.2.3.3.V 6 6 ",
"5 6 V V 3.3.3.2.m m S 3.1.S 2.1.V 3.2.V 3.3.3.S 2.2.3.3.3.3.3.3.2.3.3.3.2.2.2.2.S S S S 2.3.3.2.6 6 1.3.1.S 3.S S 2.1.S 2.3.3.2.2.3.3.3.3.3.3.2.2.3.3.3.2.1.V 6 ",
"B V 2.3.3.3.2.2.3.1.S 3.1.1.2.3.3.V B C S 2.3.A B S 2.3.2.3.3.1.S S S 1.S 2.2.3.2.S 2.2.3.3.2.2.3.S 1.2.1.1.1.3.3.1.6 6 S 3.3.V 6 1.2.3.2.3.3.1.V 1.1.1.1.2.1.1.",
"6 V 3.1.2.3.2.2.3.3.2.1.1.2.2.3.2.B B B B S S A B A S S S S 1.2.2.2.2.2.2.3.3.3.2.2.2.2.2.3.2.3.3.3.2.1.2.2.2.3.2.S 6 6 6 S 1.6 6 V V 1.6 1.2.2.2.1.1.2.2.2.1.6 ",
"6 V 2.V S 3.2.2.2.3.2.S S 2.3.3.2.S S m A A S A S S S S m S 1.3.3.3.3.3.3.3.3.2.2.2.2.S S 3.2.2.3.3.2.S 1.2.3.3.3.S 6 m S 6 S m m 1.1.m S S S 2.2.2.3.2.3.3.1.1.",
"V V V 6 6 S S 1.1.S m 6 5 A 2.2.3.2.2.S S 2.3.2.3.2.2.3.3.3.3.3.3.3.3.1.6 2.3.3.3.2.m 6 6 S S 1.2.m 6 m m m 1.3.3.2.2.S 1.1.3.3.2.2.2.3.3.S m m m S 3.S 6 2.1.6 ",
"6 V 1.V A B S S S 6 B S m 6 S 3.3.3.2.1.S S 2.3.3.3.3.2.1.1.2.3.1.6 1.m 6 1.1.3.2.1.S m m 6 S S S 6 m S 6 6 1.2.3.3.2.2.S S 2.3.3.3.3.3.S m t e t x S S 6 S S S ",
"6 V 3.2.S A S S A S S 1.A 6 2.2.3.2.3.2.S S 1.2.3.3.3.2.S S 2.2.1.6 1.2.m 6 1.3.1.2.3.1.1.1.S m S S S 1.6 6 1.3.3.2.2.2.S S 1.3.3.3.3.2.m t s d 8 t m 1.S 6 6 6 ",
"V V 1.3.3.3.1.1.S S 6 6 5 A 3.2.1.1.2.3.3.3.3.1.1.2.2.3.3.3.3.3.3.3.3.3.2.1.2.2.3.2.1.3.3.3.2.1.1.m 6 6 6 m 2.2.1.1.2.3.3.3.3.1.1.2.2.3.3.x e p e x 2.3.3.S S 6 ",
"B S 2.3.2.3.2.3.3.2.S S S 1.3.3.2.V 1.2.2.1.S 2.2.2.1.1.2.2.2.2.2.2.2.3.3.2.2.3.2.2.2.2.2.3.2.3.3.2.1.S S 1.3.3.2.V 1.2.2.1.S 2.2.1.1.1.1.v x u x m 1.3.3.2.S S ",
"6 V 2.2.2.1.2.2.3.3.3.3.3.3.3.3.2.V S S S A S 2.3.S S m 6 V S S V V 6 3.2.2.2.2.1.2.3.2.1.1.1.1.2.1.2.2.3.3.3.3.2.6 S S S 6 S 2.3.1.1.1.m m 6 5 v 5 m 1.3.1.S 6 ",
"B V S 2.2.3.2.S 1.2.3.3.3.3.3.1.S S A A 6 S 2.3.2.6 V S V S m m 6 6 V 1.2.2.2.2.2.1.1.1.2.3.S 5 3 2 t 3 6 2.3.1.S S S m 6 S 2.3.2.6 6 m m m m m m 6 S 1.1.1.S 6 ",
"B V 2.2.2.1.S S S 1.S S 2.3.2.S S 1.S S 1.1.2.3.2.6 6 m S m m m 6 6 2.2.2.2.2.2.2.2.2.2.3.1.5 t 7 9 9 9 x A 2.1.S 1.S S S 1.3.3.1.m 6 m S m m 6 6 6 2.S S 1.V 6 ",
"6 V 2.2.S 6 V S 1.1.V 6 S 3.1.2.2.3.2.1.3.3.2.3.2.m m 6 6 6 6 m 6 6 6 1.6 V S 1.S m 2.1.S 4 2 e g Q E g e v S 1.2.3.2.1.2.3.3.3.1.S m 6 6 6 m m 6 B 2.2.1.1.V B ",
"B V 2.2.V 5 5 V 3.3.2.2.3.2.1.2.3.3.3.3.3.3.2.2.2.2.S 6 5 6 m S 6 3 , , , 2 2 2 2 2 2 < , > 7 W @.q.g.<.*.u 3 6 3.3.3.3.3.3.2.2.2.2.A 6 6 6 m S S S V 2.2.2.1.V ",
"B V 2.2.1.V B V 3.3.3.2.2.2.1.2.3.2.3.3.2.1.1.2.3.3.1.S S S 2.1.v r 8 8 8 0 0 7 7 8 8 7 = = k  .s.!.-XA.r.{ 0 3 S 2.3.3.2.1.S 2.3.3.1.V S S 1.2.2.2.2.2.2.2.S V ",
"B V 3.3.3.3.2.3.2.1.S S S 3.3.3.3.2.1.2.1.S m 2.2.3.2.1.1.2.2.S b z ^ ( ) E Q Q Q Q Q T T R  .e.C.>XeX:XA.0.g e c S 1.2.1.S m 1.2.3.3.3.3.3.3.3.3.3.3.2.S 1.S 6 ",
"5 B 1.3.2.V 2.3.1.2.S A 1.3.3.3.1.S S S 2.2.2.m 1.3.1.m 2 , , 1 M } q.g.w.9.0.0.0.q.0.0.0.0.r.N.Q. XeXeX^.v.+.! e x 4 m 2.3.2.S 1.3.3.3.3.3.2.3.2.2.V 1.1.V 5 5 ",
"6 V 2.3.1.V 1.2.2.1.S A S 2.2.S S 1.S S 2.3.1.S 1.2.m M 0 = = s } g.^.^.^.~.~.~.~.~.~.~.~.~.~.Y./._.{._._.!.l.@.~ w w 5 2.2.2.S 1.2.3.3.3.V 2.3.2.2.1.2.3.S 6 5 ",
"B V 3.3.2.V V 2.3.1.m A V S B S S 2.3.3.2.m 6 3.2.m x M ~ ) ) | r.-XpXpXpXuXeX3XrXrXeXuXrXeX,X}.!.Y.P.T._./.L.s.@.d w 5 S S 6 2.3.2.3.3.3.V V 2.2.3.3.3.3.2.1.V ",
"6 1.2.2.1.1.1.1.1.1.1.6 1.2.1.1.1.2.1.V V 1.2.V 5 1 l ;.0.g.a.g.A.<XgXgXgXaXsXsXyXyXiXiXiXiXeX,X'.!.Y.I._._.P.s.+.* : 2 S 1.1.2.S S 2.3.3.S S 2.3.3.2.S S 3.1.V ",
"6 6 1.1.1.1.3.2.1.2.3.6 1.2.2.2.2.2.V V 1.3.3.C : 8 } g.~.-X-X-X<X6XfXfXdXdXaXpXtXtXtXiXiXiXtXeX,X'.Y.Y././.L.l.+.; : 4 A 3.3.S V S S 3.3.2.2.2.3.2.1.B 6 3.1.6 ",
"6 6 1.V 1.3.3.3.3.3.3.3.m 1.3.2.2.3.2.1.1.1.B w 0 ] g.^.wXpXsXpX7X7XfX8X8X7XpX5XeXwX4X4X4X4XrXrX4X:X'.Y././.I.l.>.k 0 x S 1.S 6 B S S 2.3.3.2.3.2.1.S 1.2.3.V 6 ",
"6 6 6 6 1.2.2.2.3.3.2.2.6 1.3.2.2.3.3.1.1.B 1 s ~ q.~.<XpXsXsXdXfXfX8X8X7X6X5X4X3X1X1X3X1X4XuXpXuX<X'.Y.Y.Y.I.B.w.@.! e 3 6 V S S 2.S S S S S 3.3.2.1.1.3.3.6 3 ",
"6 6 6 6 6 1.1.1.3.3.2.6 S 1.2.2.2.1.1.V S t 9 { r.~.<XrXiXpXdXdXfX8XdX7X6X5X4X4X3X3X4X4X4X4XrXuXrX,X'.Y.Y.Y.Y.Y.C.s.@.~ 0 x m S S 2.S S B S 2.2.3.2.2.2.3.2.6 4 ",
"V 6 6 6 6 6 1.1.2.2.2.2.S 1.2.1.V V V B c l } g.-XwXiXyX4X5X6X8XfX8X7X6X4X1X1X1X4X4X4X4X4XeX4X4X,X;X).Y.L.L.Y._.).I.z.>.W 0 x 6 2.2.3.3.S 2.2.S B S 2.3.3.2.S V ",
"V 6 V 1.1.S 1.1.1.1.1.1.1.V 1.1.S S 4 < l *.r.^.wXtXyXrX4X5X5X6X6X6X5X5XwX1X,XeX3X4X4XrXuXrX4X:X;X`.Y.Y.Y.L.Y.).).!.B.a. .W j x A S 2.2.2.2.2.2.B B 2.1.V V V S ",
"6 6 2.2.2.2.1.1.1.6 1.2.2.2.V 2.2.S 2 0 ' r.A.wXtXtXrXtXrX4XuXrX5X5X5X4X3X1XwXeX4X4X4XrXuXrX,X;X).Y.Y.Y.Y.Y.Y./.(.Y.C.c.8.| W e 2 B 1.2.2.2.2.3.S V 2.S 6 S 6 6 ",
"4 6 2.2.1.2.2.2.2.m 1.2.2.2.2.2.A x s ~ w.A.:XtXiXrXrXuXyXtXyXtXtXeXeXeX4XrX4XrXrX4X4XrX4X3X>X_./.P.Y.Y.Y.Y.Y.Y.Q.Y.Y.B.a.&.] p w A 2.3.2.S S S 2.3.3.S 1.3.V 5 ",
"5 6 V 1.V 1.1.V 1.1.1.1.2.1.m 5 t k } >.v.).}.eXrXrXuXiXiXiXiXyXtXeXrXrX4XrXuXrXuXuX4XtX3X>X X{._./.Y.Y.Y.Y.Y./.Q.Y.Y.B.s.$.' = : 6 S S A S 2.2.2.2.V V V 3.V B ",
"V V 6 V 1.1.6 6 6 6 m 1.1.6 6 , 8 ~ >.l.Q./.!.[.:XeXrXpXrXwXwXtXrXeX4XrX4X4X4X4X4XtXuX3X;X)./.Q./.P.Y.Y.Y.Y.Y.!.Q.Y.I.N.a.#._ ; : 3 5 5 A S 3.3.3.2.B 5 B V V V ",
"6 V 3.3.2.2.6 6 1.6 m 1.2.2.6 w ;  .a.I.)./.Y.).}.,X:X~.Z.Z.Z.=X-X:X3X2X,X:X:X:X3X3X3X'.N.e.4.7.e.M.I.(.).).Y.Y.Y.L.N.v.a.9.$.~ j t v S S 2.2.2.2.2.2.V V 2.V B ",
"6 V 1.2.2.3.2.1.1.S S 1.3.3.S : ;  .e.L.).(.P.). X XU.q.} / / :.Z.U.>X X X'.`.'.}.2X>XI.9.W ; * ] 8.N._.{._.Y.I.B.M.c.z.z.b.f.5.} j x A S S S S V V 2.2.V 1.V B ",
"6 6 6 6 1.3.3.2.2.2.1.1.3.2.v : 8  .9.M.).)./.)._.(.g.} - X O J +.c./.{.)./.Y./.(.{.).x.+.H X X % [ w.Y._._.Y.B.v.z.s.l.m.H.K.b.&.] 0 2 S S V S B B 2.3.3.V V V ",
"6 6 6 1.1.1.1.V S m S m 5 3 t j ! $.s.L.(._./.L.v.e.,.,.=.K @ + L X.s.M.I.P./.P.L.x.e.9.,.-.U # @ - | w.N.I.C.N.c.s.a.s.n.R.W.J.d.o.s 1 A V V A 5 B S 3.3.V B 4 ",
"5 6 6 1.S 6 6 6 m 6 m 5 1 w j ~ @.e.M.P.(.{.Q.l.@.} ,.y.*Xy.I @ o & ` 9.v./._./.x.4.| ;.k.=Xy.=.- @ & ' >.s.M.N.n.s.a.s.n.Q.W.J.d.| a 1 S S S 2.A V 2.3.2.B 4 3 ",
"5 5 B 1.V B 6 6 6 6 6 4 : 8 _ @.9.n.C.I.(.{.Q.e.E & =.=XqX9Xy.J o . - | l._.|._.s._ * Y *XqX0Xy.P + . @ ^ >.z.n.n.z.l.l.n.E.W.F.p.X.a 1 S 3.3.3.2.2.2.3.3.B 5 C ",
"5 5 V V V B 6 6 6 m 6 3 7 p ] &.a.M.B.C.Q._./.9.* O K y.9X9Xy.P o   O E e.{.|.{.e.T O # t.9X0Xk...@   . ; O.z.n.c.l.s.z.H.OX+XoXj.o.a 1 V S 2.2.S A S 2.2.S A V ",
"6 6 6 1.3.2.B 6 A S S 5 w p [ $.s.n.M.M.L.)./.9.T X # Y y.y.t.I @ . O E e.{. X{.s.E + # U y.y.t...G X X * O.z.c.z.l.z.V.E.%X&X#XS.o.8 : B S 2.2.A 4 B S 3.2.S V ",
"V B B 3.3.3.V V 2.2.2.S 1 a ] &.a.n.n.z.N.I.Q.s.o.; + # J P I I J % H  .l._.|._.z.@.J + # G P I I J - % E $.z.v.c.n.F.R.+X%X$X.Xh.| 0 , 5 S 3.3.A 5 B S 2.B B B ",
"5 6 V 1.3.3.3.1.m S 1.S w p | i.m.H.V.z.x.M.N.l.<._ J o o + G J P ' :.s.B.(.{.).B.e.+.L @ o o @ J J K ( +.9.l.z.v.H.OX+X%X#XXXh.O.z x v S 3.3.3.2.S 2.3.3.S B B ",
"5 6 V V 2.3.3.2.6 m S S , p o.p.F.E.G.n.s.l.c.x.g.8.) & .   . % / <.n.L.Q./.).(.Y.N.a.X.L o . . @ K [ >.w.e.z.z.V.R.@X&X$X.Xh.| j i m 1.3.3.3.3.2.3.3.3.3.S A B ",
"6 V 2.3.3.3.2.2.3.S S S 1 0 ] &.b.K.H.V.z.z.x.n.V.n.<.( % X O & | e.I./.Q.Q.Q.Q.P.B.z.>._ - O X % ) 8.n.N.M.n.F.R.+X%X$XXXh.| 8 , A S 2.2.3.3.S S S S S S S S V ",
"6 V 3.1.2.3.2.3.3.3.2.S 5 t k } 5.b.F.T.T.T.T.T.Q.C.a.#.( L L Q } 7.w.v.C.Q.Q.Q.N.l.8.+.[ ^ L ; E $.b.E.].T.E.OX+X$X#XXXh.O.R 7 < A S S S S 1.3.2.2.2.3.3.3.2.V ",
"5 S 2.S S 3.2.2.2.3.1.A A m x j ~ 8.b.J.].OXW.R.T.V.s.e.8.>.>.4. .|  .8.l.C.Q.V.s.8.| ] | >.>.>.5.f.F.W.W.W.].@X&X$X.Xh.X.R l u C S S S A S S 3.3.3.3.3.3.3.2.V ",
"6 S A 5 B S S S 1.S m 6 6 6 S 2 q ' <.S.K.K.J.m.f.a.s.z.V.G.L.M.9.O.[ | 8.e.s.a.5.O.` O.9.n.L.T.B.V.F.J.F.F.K.oX#XXXh.[ a q b D S 2.2.3.3.3.3.3.3.3.3.S B 2.1.V ",
"6 S S S A S V S S m A S m 6 S v y / o.9.j.j.u.6.$.$.e.m.E.].OXW.F.f.&.%.+.+.+.@.#.#.&.j.F.E.].].W.G.b.u.6.u.d.S.S.h.%.Q 9 q F D S 3.3.3.S 1.3.2.V S 1.V 6 V V V ",
"6 S 3.S S S S V A A S 1.A 6 S A F z ' [ o.o.o._ Q _ $.m.].OXOXW.W.K.D.i.O.E T E o.u.b.R.W.W.OXOXW.m.6.o._ _ | ;.%.o.~ l r i F C S 1.3.1.S S 1.3.V B 1.1.V 6 6 V ",
"V 1.1.3.3.3.2.1.1.S 6 6 5 A 2.2.B b h f ; R f ; ; f | 9.F.K.J.J.K.R.b.6._ * $ * _ 6.b.K.R.J.J.J.F.6. .p ; ; ; ; ; a h N D D C C A 1.2.3.3.2.3.3.3.3.3.3.3.V V V ",
"6 V 2.3.3.2.2.3.2.2.S S S 1.3.3.V C i q f ; 9 q 0 s ~ O.6.p.u.u.d.d.u.#.E * % * E O.u.d.d.u.u.d.6.O.~ s 9 9 q q q 9 y b C C B V S 2.1.1.2.2.2.2.3.2.1.3.3.2.V V ",
"6 V 2.2.1.1.2.2.3.3.3.3.3.3.3.3.S C 2 i i l y b b u l ~ ] ` ` ` ` | ] ( E T d T E ) ` | ` ` ` ` [ ~ z N b b N i i y y b 2 C C 1.2.S S B B B S S V V B 2.3.1.1.V ",
"B V 1.1.3.3.1.1.S 2.3.3.3.3.3.S V B B C b b Z Z Z i l s f d d d d d f f g g T g g f d f f g d d f h z n D D F b b i i t C B V 3.2.B B S S A A B B B V 1.1.2.V 6 ",
"B V 1.2.2.2.V V S 1.S S 2.3.2.S S 1.S m m n Z D N i y q 9 9 9 9 = 9 q h h l l l l h q q 9 9 9 9 9 y i i C Z Z F n n b v m S 2.3.2.m m m S m m m 6 6 2.1.V 2.V 6 ",
"6 V 2.3.V B V 1.1.2.m 6 1.3.2.1.3.3.3.1.S D n F N N u y y y y y y y i N i i i i z N i N i y i i i i i i b Z b N N Z m A 2.3.3.3.2.A m m m m m m 6 V 2.2.1.1.V 6 ",
"6 V 3.1.B 5 5 V 3.3.3.2.2.2.1.2.3.3.3.3.2.S m n n n b u i u i b i b b b F F Z Z F Z F F i y y i F Z F N Z C C C Z D S 2.3.3.2.2.3.1.m m 6 m m S V V 1.1.2.3.V V ",
"B V 2.2.S S B S 3.3.2.3.3.2.1.2.3.3.2.3.2.S m m S S v c i b b b F Z Z Z F F Z Z Z F F b C i i Z Z F F N C C A A S S 1.2.2.1.1.2.3.3.1.S m S 1.2.2.2.1.1.1.2.1.V ",
"6 V 3.3.3.3.2.3.2.2.1.6 2.3.3.3.3.1.2.2.2.m 6 1.2.2.S C Z Z Z Z n F Z b b b b b i Z Z Z Z Z Z i Z N b b c S 2.3.2.1.2.1.S S S S 2.3.3.3.3.3.3.3.3.3.3.2.V 1.V 6 ",
"6 6 1.3.2.S 2.3.2.1.S 6 1.3.3.2.1.S m S 3.3.2.S S 3.2.S D C C C D n c v v c c c C c C C C t A D C C c t B S 3.2.2.S S S 2.3.2.V 1.3.3.3.3.3.2.3.2.2.1.1.2.V 6 5 ",
"6 V 1.3.2.V V 3.3.1.1.6 1.2.3.2.S 1.S 1.2.3.2.S S 3.3.S S A B S S A m S S v 5 m B A S S B C B V B B C 4 S S 2.S S S S S 2.3.2.S 1.2.3.3.3.2.2.2.2.2.V 3.3.V 6 5 ",
"V V 3.3.2.V V 2.3.1.6 V 6 6 6 6 S 2.2.3.2.m 6 3.3.2.3.3.2.S A S 1.2.2.3.2.2.3.3.S 2.2.3.2.S B V 3.A B A A S A S S 2.3.3.2.A B 2.3.1.3.3.3.V V 2.3.3.3.3.3.2.1.V ",
"6 V 2.2.1.V 1.1.1.1.V B 1.2.1.1.2.2.S S S 2.2.2.S S 3.3.3.S S 3.3.3.2.V V 3.3.3.2.2.2.2.2.V S 2.S S S B S 2.S S 2.2.S S 2.2.2.2.S m 2.3.3.S S 2.3.3.2.V 1.2.2.V ",
"6 B 1.1.1.1.3.2.V 3.2.V 2.3.2.2.2.3.S V S 3.3.S A S S 3.3.2.2.2.3.2.1.B B 3.3.3.2.S S S S 2.3.2.S 3.2.S S 3.3.2.2.2.S S S 3.2.S S S 1.3.3.2.2.3.3.2.1.6 6 3.1.6 ",
"6 V V V 2.3.3.3.3.3.3.3.S m 3.2.S 3.2.2.2.2.S V A S S 2.3.2.2.3.2.1.V 1.2.3.1.S S S S S 2.3.3.3.3.3.3.3.S S 3.2.2.3.2.2.2.S S B m 1.1.2.3.3.2.3.2.1.1.1.2.3.6 5 ",
"6 6 B V V 3.2.2.3.3.3.1.V V 3.3.3.3.2.2.2.2.V V S 2.S S S S S 3.3.3.1.2.2.3.V B 2.S V V S 2.2.2.3.3.3.S A S 3.3.2.3.2.2.2.2.S B S 2.S V S S S 3.3.2.1.1.3.3.6 4 ",
"6 6 6 6 V V 1.2.3.3.2.V V 2.2.3.2.2.S 2.3.3.1.V 1.3.V V S A S 3.2.3.1.2.3.2.S A 2.S B B B S S S 3.3.2.V V 2.3.3.2.2.2.S 3.3.S S 1.3.2.V V V 1.2.3.2.2.2.3.2.6 5 ",
"V 6 6 6 V 6 V 2.2.3.1.1.V 1.3.V V V A S 3.3.2.1.2.3.3.3.S 3.3.S V V 2.3.3.2.2.3.3.S B B B B V 2.2.2.1.V V 2.S S B S V S 3.3.2.2.1.3.3.3.1.2.2.1.6 S 2.3.2.2.1.6 ",
"5 5 6 6 6 6 V 6 6 6 V V V V V V B B V V V V V V V V V V V S S S 5 5 V B B B V S S B 5 B B B B V V B B B V B V B B B V V S S S S V V 1.V V S 1.V 6 5 V V 6 6 6 5 ",
"3 4 6 6 V V 6 6 5 5 5 6 6 6 5 6 V B V V 4 B V V V V B C B B B A 5 4 B 5 3 4 5 B B 5 5 B B B B 5 B 4 5 B V B 5 B B B V B 5 5 6 V V 6 6 6 6 6 6 V 5 4 6 5 4 4 4 4 "
};
