/* XPM */
static char *__resized[] = {
/* columns rows colors chars-per-pixel */
"80 80 238 2 ",
"   c #08031E",
".  c #1D381E",
"X  c #223F1F",
"o  c #0B0224",
"O  c #0C0928",
"+  c #150B2A",
"@  c #13172B",
"#  c #0F0930",
"$  c #170C32",
"%  c #161335",
"&  c #151B34",
"*  c #1A1B33",
"=  c #261237",
"-  c #16282B",
";  c #1E3524",
":  c #192635",
">  c #1C3638",
",  c #243828",
"<  c #233D2B",
"1  c #222A3C",
"2  c #213A37",
"3  c #233D34",
"4  c #28491E",
"5  c #2F5316",
"6  c #2E521D",
"7  c #31561F",
"8  c #335B1E",
"9  c #36621B",
"0  c #39661C",
"q  c #3C6D1D",
"w  c #3F711E",
"e  c #254323",
"r  c #2B4525",
"t  c #2A4C22",
"y  c #26432A",
"u  c #2C452C",
"i  c #2C4A2C",
"p  c #304A2C",
"a  c #2E5327",
"s  c #345C23",
"d  c #355825",
"f  c #35542B",
"g  c #36592A",
"h  c #3A5C2C",
"j  c #244233",
"k  c #2B4634",
"l  c #26433B",
"z  c #29443A",
"x  c #2A4B3D",
"c  c #324C34",
"v  c #2D5332",
"b  c #2E563C",
"n  c #335737",
"m  c #395A30",
"M  c #3B6525",
"N  c #3D6B23",
"B  c #36622A",
"V  c #3D642C",
"C  c #3F692B",
"Z  c #3F7221",
"A  c #3C6233",
"S  c #41751F",
"D  c #43781F",
"F  c #406E27",
"G  c #40672E",
"H  c #416B2C",
"J  c #417620",
"K  c #457C21",
"L  c #43702A",
"P  c #406631",
"I  c #416930",
"U  c #1F1941",
"Y  c #241E43",
"T  c #331C45",
"R  c #2A2748",
"E  c #243A45",
"W  c #28364A",
"Q  c #2B2B52",
"!  c #353255",
"~  c #3A3E65",
"^  c #4D3B5E",
"/  c #2B4D42",
"(  c #29434B",
")  c #284648",
"_  c #2D5544",
"`  c #2D524B",
"'  c #325846",
"]  c #325B4D",
"[  c #2A4B51",
"{  c #324754",
"}  c #2D5452",
"|  c #2E5954",
" . c #2E5B5A",
".. c #315C55",
"X. c #355358",
"o. c #315F5B",
"O. c #37644B",
"+. c #2E615A",
"@. c #33625C",
"#. c #376858",
"$. c #3B725E",
"%. c #3D4A63",
"&. c #356562",
"*. c #366A62",
"=. c #396D64",
"-. c #34696C",
";. c #396D69",
":. c #3B7365",
">. c #3E7964",
",. c #3C746B",
"<. c #3E7A6D",
"1. c #3E7C71",
"2. c #48496B",
"3. c #4C5071",
"4. c #5D5975",
"5. c #486866",
"6. c #506061",
"7. c #437469",
"8. c #477769",
"9. c #417C6E",
"0. c #457E71",
"q. c #547473",
"w. c #478022",
"e. c #498423",
"r. c #4C8924",
"t. c #3E8578",
"y. c #428373",
"u. c #458A76",
"i. c #4E8972",
"p. c #4C8877",
"a. c #438579",
"s. c #468A79",
"d. c #528878",
"f. c #46967B",
"g. c #4A937D",
"h. c #5C6889",
"j. c #686784",
"k. c #6D768C",
"l. c #418B84",
"z. c #428C89",
"x. c #469286",
"c. c #4B9581",
"v. c #4E9C84",
"b. c #45928B",
"n. c #579985",
"m. c #509F85",
"M. c #418C98",
"N. c #469699",
"B. c #4FA287",
"V. c #51A186",
"C. c #52A48A",
"Z. c #5FA58C",
"A. c #54AA8E",
"S. c #55B28F",
"D. c #4EA496",
"F. c #55AD92",
"G. c #52AC9D",
"H. c #56B193",
"J. c #59B594",
"K. c #5BBC96",
"L. c #56B39C",
"P. c #5CBC99",
"I. c #69A88E",
"U. c #69AC93",
"Y. c #69B699",
"T. c #72B999",
"R. c #489BA5",
"E. c #50AEA5",
"W. c #53B3A5",
"Q. c #59BBA4",
"!. c #56B9AA",
"~. c #56BDB2",
"^. c #5EC49C",
"/. c #5FCB9E",
"(. c #61C59D",
"). c #6AC49E",
"_. c #62C99F",
"`. c #72C39F",
"'. c #5DC1A6",
"]. c #5CC3AD",
"[. c #5BC4B2",
"{. c #5EC9B4",
"}. c #5CC7BA",
"|. c #5ECCBA",
" X c #64CCA1",
".X c #6CCCA3",
"XX c #7DCAA6",
"oX c #66D3A5",
"OX c #6AD3A6",
"+X c #68D7A8",
"@X c #6AD9A9",
"#X c #75D6A9",
"$X c #75DBAD",
"%X c #60CBB3",
"&X c #6DE1AE",
"*X c #76E6B3",
"=X c #72EFB7",
"-X c #54BBCC",
";X c #5BC9C6",
":X c #5CCCD7",
">X c #62D5C6",
",X c #63DBD7",
"<X c #66E1DD",
"1X c #5ED5E2",
"2X c #62DDED",
"3X c #66E4E6",
"4X c #67E7F2",
"5X c #858BA6",
"6X c #9195AA",
"7X c #9A9EB3",
"8X c #8BD5AD",
"9X c #82DEB1",
"0X c #8BDCB3",
"qX c #85E2B4",
"wX c #8CE6B8",
"eX c #94E6B9",
"rX c #94EDBD",
"tX c #89F2BD",
"yX c #97F0BF",
"uX c #9AF1BF",
"iX c #AAEFBB",
"pX c #A8F4BF",
"aX c #B6F8BF",
"sX c #C4FBBF",
"dX c #D4FEBF",
"fX c #ACB3C7",
"gX c #97F0C3",
"hX c #95F2C2",
"jX c #9BF3C1",
"kX c #9DFAC8",
"lX c #A4F7C7",
"zX c #A2FACB",
"xX c #B5F9CA",
"cX c #AAFCD3",
"vX c #B6FAD1",
"bX c #C7FEC7",
"nX c #D4FEC1",
"mX c #D7FFC8",
/* pixels */
"5 9 S q S w S S S q q w D D D w S S S S 0 q S D D S S S q q q S S S S S q D S q 9 0 S q w S w S S q q S w w D S w D D w q q w D S S S S q q S S S S D S S D q 8 ",
"0 q S S S J q w S q w K D S D w S S S S q S D D S S q S S J D D D D S S S D D D S S S S S S w w w w w D K D D w w D w w w w S D S S S F S S D D D D S S S D S 0 ",
"D D S D K K S S S S D w.K K D S S J S S S J K J J J S q S K r.r.e.e.S q D D r.r.r.w.J K w.D S w w D D w.K K K Z w D w w w K K D S J S S S w.e.r.r.D S 0 S D D D ",
"S D e.r.r.K S J D S S w.e.r.r.r.e.K S S J e.e.e.e.K K e.e.K e.e.e.e.e.D D w.e.w.e.e.e.e.e.w.D S D w S w.e.e.r.r.e.w.D w K e.r.w.e.K K e.D w.w.e.e.r.D D D w.D F ",
"q D K e.e.r.e.K w.K K w.r.r.r.e.e.e.K e.r.r.r.r.r.e.r.r.e.K K K K K e.e.D e.K e.K K e.w.r.r.w.K w.w.K w.r.r.r.e.e.e.w.K e.r.r.r.e.r.r.r.e.K K K D w.e.e.K K D S ",
"S S S S K r.r.r.e.w.w.w.r.e.K K e.r.r.r.r.r.r.e.r.r.r.r.e.K D K q S e.r.e.K e.r.e.K J Z w.r.r.r.r.w.w.w.r.r.K K w.r.r.r.r.r.r.r.r.r.r.e.e.K D J S D e.r.e.K D D ",
"q S S D K K K K K K J K K K e.e.e.e.K D K K K e.e.r.r.r.e.K J J S q K r.e.K S S K K J K K K K K D D w K K K w.r.r.e.K D K K w.w.r.r.r.r.e.K J K S S D r.r.K S 0 ",
"q q S D K J J J Z Z w w q w K e.e.e.K J K J D D K e.r.r.r.K K e.K J e.r.r.S S S K K J K K J w J w w w Z w w K w.e.w.K K J J K K K e.r.r.e.e.K e.S D K r.r.J 0 0 ",
"q q S K K w w w w w w Z w w w w e.K e.r.r.K J S D e.r.r.r.r.r.r.e.e.e.r.e.S J K K K S K K w w w Z w w w Z q q K w.w.e.r.r.K K q J e.r.r.r.r.r.r.e.e.r.r.e.w q q ",
"q w D K K K Z w q w Z q Z K K w.e.e.r.r.r.e.K e.r.r.r.e.e.e.r.e.K S S e.e.e.e.e.K J S K K J S q w w Z w Z K K w.e.w.r.r.r.e.K e.r.r.r.r.e.K e.r.K S D e.e.e.D S ",
"w w D w.w.w.Z w J K K K w.e.w.r.r.e.r.r.r.r.e.r.r.r.r.e.D K e.e.J 0 q K e.e.r.r.e.K S e.e.e.S S w w.Z w K w.K e.r.e.e.r.e.e.e.r.r.r.r.e.K K e.e.w 0 q K r.e.K S ",
"D w w r.r.r.K K w.r.r.r.w.w.r.r.r.K r.r.K K e.K e.r.r.e.S e.r.r.J q S e.r.J J r.r.K S e.r.e.K K w.r.r.r.K Z K K K K e.r.K K r.K e.r.r.e.D K r.r.K q w e.r.S S S ",
"w w w w.r.r.r.w.w K e.r.w.w.r.w.K r.r.r.e.r.r.e.e.r.r.r.e.e.r.r.e.w.e.r.r.K K e.K K J K e.r.r.K w w.w.w.9 4 4 6 8 q e.e.r.e.r.w.e.r.r.r.e.r.r.r.w.w.e.r.r.K S w ",
"q w D D e.r.r.e.w Z w.r.w.K w.w.D r.K K r.r.r.K e.e.r.r.r.r.r.r.r.e.r.r.e.e.K e.K K K K e.r.r.e.w w Z Z a y l j i M S K r.r.r.w.e.e.r.r.r.r.r.r.e.r.r.r.e.K S S ",
"w D e.r.r.r.e.e.r.w.K e.w.w.w.r.e.K S S K r.r.K S K e.e.e.r.r.w.K K w.K K e.r.r.e.K e.e.r.r.e.e.r.D N B ' 5.7.=.] v 8 0 K e.r.K S K e.e.e.r.r.w.K K w.K e.e.D S ",
"w D r.e.e.r.e.e.r.r.e.w.e.e.r.r.e.S S F S K J J S K K K K K w.e.e.K e.e.r.r.r.r.e.e.r.e.r.r.e.e.w.N B O.i.Z.U.m.t.O.v a 9 S K w w K K K K K w.e.e.w.e.e.e.r.e.D ",
"w D w.D K r.e.w.e.r.w.K K e.e.r.r.K K Z J K S J K K K K K K w.r.r.e.e.e.e.e.e.w.K w.w.w S e.e.K w a b i.U.8XqX.XA.<.' y 6 0 J J K w.Z w.Z w.w.r.r.r.r.r.r.r.w.D ",
"D D K w w w.K w.w.K Z w w J e.r.r.e.w.K w.w.e.r.e.e.e.r.r.r.e.r.r.e.w.q 9 0 N q N 0 9 5 8 q q 0 4 ; ] d.#XhXhX*X(.c.@.l t N e.r.e.e.r.r.r.r.r.r.r.r.r.D S e.w.D ",
"w D w.D Z S K K K w J K w w K e.r.r.e.w.K K e.r.r.r.r.r.K w.r.r.w.Z 0 6 e e t t 4 4 4 4 4 4 6 r , - ) d.`.qXtX*XP.v.-.) y 0 e.r.r.r.r.r.w.w.r.w.w.K w.K S D D D ",
"w D r.w.K K K K J K K w.J w w.r.r.e.r.e.K K w.r.r.e.r.w.Z K K w.w 0 s i j > 3 2 j j j j j 3 j j > > ) 9.U.@X@X_.A.a.o.z t 0 w.r.r.r.r.e.w w.w.r.w w w.w.K w w S ",
"D K w.r.r.r.e.w.w.D w w q J r.e.w.w.e.r.r.r.r.w.w.r.w.e.e.w 0 0 w M g #.7.0.0.7.7.7.7.8.8.7.$.#...` #.u.S._.^.v.<.#.b a N K r.w.w.r.w.e.r.r.r.r.r.r.r.r.r.K D D ",
"S D e.e.r.e.e.e.r.e.K K K e.r.r.e.D w.e.e.w.K w.w.w.w.w.w s t 4 4 v O.g.Y.Y.Y.I.U.U.U.U.I.Z.g.g.u.u.f.A.K.^.A.9.] x a N K K w.e.w.w.w.w.w.w.r.w.w.r.w.r.r.w.w.D ",
"w D r.e.e.w.e.r.r.r.r.r.r.r.r.r.e.D K K J S J r.r.w.D q 8 i 2 > 2 n i.T.eXeX0X0X0X0XwX0XqX#X).(.H.H.K._. X^.g.*./ e 9 J S w w e.r.K w.Z w w D w.D D D w.r.w.D D ",
"S D K e.e.r.w.K K e.r.r.r.r.e.w.K K J J S K e.r.w.w 0 M v O.7.0.7.i.I.eXxXvXvXxXxXlXzXlXzXyXwX*X+X+X+X@X+X^.m.:.` t 8 9 8 8 0 e.r.w w D K K w.Z w w w.w.e.e.D w ",
"S D e.e.r.w.K K K w.K K e.r.e.w.K w.K K K w.r.r.w.0 5 i O.d.U.T.Y.T.8XaXmXmXbXbXxXzXzXzXzXkXyXtX*X&X@X+XoX(.A.p.#.' v t y t a Z Z w Z Z w.w Z w w w w.w.w.w.D w ",
"w D e.e.D w D K w.w.S w K r.e.w.e.r.e.w.r.r.w.r.K s X / 0.T.eXgXeXeXiXsXnXnXbXbXaXlXyXyXjXuXuXrXqX#X X_._._.P.A.s.$.` l ) l v B Z w w w w w w w w S e.e.w.w.D w ",
"S D e.e.D q q D r.r.e.e.e.e.w.w.r.r.r.e.r.w.w.Z N m ] i.T.0XlXcXvXvXbXdXdXdXbXxXpXuXrXrXyXuXlXlXeX#X X^.(._._.(.A.<.} ) @.>.>.O.B 0 0 q w w D Z D K w.w.w.r.w.D ",
"D D e.w.w.D S D r.r.e.r.r.e.w.r.r.r.r.r.r.K q 8 n O.i.Y.wXhXlXxXbXbXmXmXdXsXaXiXuXuXhXrXyXkXlXlXeX#X_.^.(. X+X_.S.<.} } 0.f.B.>.O.a 9 w Z w.w.r.e.e.e.w.w.e.w.D ",
"S D r.r.r.r.r.e.r.w.K K K r.r.r.r.w.w.w.w.w 8 X b 0.U.0XlXgXjXxXsXsXdXdXsXaXpXrXrXyXjXjXuXuXjXuXqX#X_.(.(. X+XOXJ.y.| | u.S.S.p.O.y s w e.r.r.r.r.r.r.w.w.w.D w ",
"q S w.r.e.D e.r.w.w.K J w.r.r.e.w.K K K r.e.q . ) d.8XjXcXzXjXiXaXsXsXsXaXpXjXrXrXrXyXjXjXuXrXqX#XOX_.(._. X+X+X^.g.,.=.u.m.g.$.b a 0 w.r.r.r.r.r.e.w.w.w.D w 0 ",
"w D e.r.w.D w.e.e.w.K w K w.e.w.K w.K K r.w.0 . z d.XXgXvXkXgXuXpXpXxXpXpXuXrXgXrXrXuXlXjXrXqX#X X X_._.(._.OXOX_.S.g.y.y.<.#.A B N D e.r.w.w.r.r.w.D r.r.D w q ",
"S D r.r.e.D D e.r.w.Z K D K S K K w.r.r.w.q 6 y ] d.T.eXcXkXjXjXuXyXrXuXyXyXyXyXuXuXuXuXrXqX#X X_._._._._._._.(.(.(.H.f.<.` j B w D r.r.r.D D e.w.r.r.r.r.r.D D ",
"w D w.e.w.w.w.w.e.w.w.w w.w.K w.e.e.e.S q 8 v b >.V.).$XkXkXlXlXzXzXkXhXhXhXjXjXkXuXuXrXqX$X&XoX+X+X&XoXoX X(.P.K.P.L.c.7.[ , 8 q K e.r.r.K K e.r.r.w.K D r.w.w.",
"w D w.w.w.w.w.r.D w.r.Z w.r.r.w.e.e.D 0 6 v O.7.g.(.).#XqXgXlXlXzXzXkXjXjXjXyXlXpXuXrXqX#XoXoX/.+X+X+X+X.X XP.J.H.J.F.v.1.` < a 0 K w.e.r.e.w.e.r.r.w.w w r.w.w ",
"w S K K w.r.r.r.r.r.r.r.K K r.e.e.e.w.0 e _ ,.m._.@XoX_..X#X8X8X8X8XwXeXrXrXrXrXyXrXwX$X X^.S.S.A.S.S.^.(.(.J.A.C.A.C.c.1.` < 4 0 w.K w.r.e.e.r.w.w.w.w.r.r.w w ",
"w w D w D r.w.r.r.r.w.w.K K r.r.r.r.w.0 y / <.A.oX*X*X+XJ.g.i.6.q.n.T.qXtXtXqX9X9X9XqX*X+XS.t.$.| O.y.f.J. XP.F.m.A.C.c.9.] j a q e.K K K K w.r.r.w.w.w.r.r.w 0 ",
"w w w w w w.w.w.r.r.w.w K w.r.r.e.e.D 0 t / ,.m._.=X=X_.m.o.W 1 1 X.d._.*X*X&XOXOX#X@X&XOXV.#.3 @ - E =.v.J.K.F.C.F.C.c.1.} j a q e.w.K J K w.e.r.r.w.w.r.r.w 0 ",
"D w w S w w K w.r.r.r.w.K w.w.K S D J 0 t x =.m._.+X_.S.0.6.R + + & [ y.S./._._./._.(.^.S.d.6.! = + % E &.s.C.C.C.F.A.c.<.` < 7 w r.r.r.K e.e.K D D r.r.r.w.w.D ",
"w D D w.w.w.w.w.w.w.w.w.w.w.K w.K K K J 4 k $.g.(.(.g.y.q.k.j.2.R $ : [ y.f.K. X+X_.S.f.0.q.k.k.4.! = % E o.0.c.A.J.F.g.,./ , 8 S e.r.e.e.e.r.w.w S e.w.D D Z D ",
"w D w.w.w.r.w.K w.K D w.e.w.K w.r.e.e.J 4 x 7.A.K.f.+.{ 4.6XfX5X3.* O : ` y.S.+X&XoXg.+.) 3.6X7X6X4.Y # @ E &.a.A.P.F.g.,.` < M J w.w.w.w.w.e.r.K D e.K w K D w ",
"9 w e.w.w.e.w.e.w.K K r.r.w.r.e.e.K Z B i ] u.K.K.u.> * ^ 6XfXfXj.Q o o - o.C.&X=X+Xf.2 * ! 5XfXfXk.! #   @ ( 1.A.L.F.v.s.=._ n N S w.r.w.K K w.e.e.r.K K r.D q ",
"w w K K w.w.K D K K K w.w.w.w.K w N s v _ >.B.'.^.u.> + T j.5X5Xh.~ #   + } V.&X=X$Xg.) + = 4.5X6Xh.~ % o O E <.A.J.F.C.D.z.<.O.n 8 q w K w.e.e.r.e.K D K r.K S ",
"D D D D w.K w w w K K w.w.K K w 0 t k ` *.g.K.oX^.f.[ * $ ! 2.3.3.~ U # : @.A.@X=X+Xg.} * $ R 2.h.%.~ R $ * [ 0.A.H.A.A.Q.W.N.1.` e 6 0 w w.r.r.e.e.S q S K K D ",
"w D w.r.e.w.S D K w Z K w.r.r.e.Z t x &.y.C.^.oXY.m.=.W % % % Y Q Q W W ..u.K.+X&X_.V.,.( & % % U Q ! W R ( &.s.C.C.C.F.{.{.!.b.o.< 7 q w.w.w.w.e.e.e.S S e.D S ",
"w D w.w.e.r.w.w.w.K K w.r.r.e.e.J t / &.a.A.J.Q.J.C.g.&.E & o o $ R { 5.c.J.(.oX XP.C.g.;.( & O # # U W X.;.s.c.C.V.v.F.].{.!.b.@.< s S e.K K K D D e.e.K K K S ",
"w w D Z w.r.r.r.e.w.w.e.r.r.K K N t x o.y.m.H.J.A.A.A.g.&.W @   O : o.v.(.oXoX(.K.A.C.F.c.;.( * o o U [ ,.c.A.A.V.m.V.F.{.[.W.x...< s S K K K J S S e.r.e.K S S ",
"w w Z K K w.K K K J J J K K w.e.J r / &.a.m.H.A.C.F.J.F.s.o.E : : ( y.J.@X@X XJ.A.C.C.K.J.c.;.( : : ( &.g.F.J.F.C.v.F.!.>X,X;XN.@.< 8 S e.K S K q S K r.r.K w 0 ",
"q q S w.K w Z J J w w Z q S K K Z t / &.p.C.H.A.C.A.F.F.v.y.;.o.&.,.v.K. X XK.A.C.C.C.J.J.A.s.;.@.o.:.t.m.F.H.C.C.A.G.}.<X4X:XR.&., d S e.e.K e.D D e.r.e.S q 0 ",
"q w S w.K S w w w w w w w q q J Z t x @.y.v.F.A.C.C.C.C.C.v.v.v.v.v.B.C.A.C.C.C.C.C.C.C.B.m.v.v.v.m.v.m.C.C.B.V.C.F.!.;X4X3X:XN.@.r 8 K e.r.r.r.e.e.r.r.e.w q q ",
"0 w D D D D w q q S Z q K K Z w.K 0 a b O.<.c.v.V.C.C.C.C.F.H.J.H.A.g.y.1.s.m.F.H.F.v.s.0.t.v.F.J.J.F.F.C.V.v.v.C.L.].;X:X-XR.,.b 7 q K e.e.e.e.K S S e.e.e.D S ",
"w w S w.e.e.S S J K K K w.w.w.r.e.S N s v +.<.s.v.C.C.C.C.F.H.K.J.C.1.@.o.,.c.H.P.F.c.:.@.*.s.A.P.J.F.F.C.C.m.v.A.Q.].~.E.z.&.b M S w.D D K e.e.J 0 q K e.e.K S ",
"D S S e.r.r.D D e.e.r.r.e.e.r.r.r.K K J t / @.u.C.J.C.C.C.C.C.F.F.v.,.} ` *.s.C.F.C.y.o.}  .1.m.F.F.C.C.V.V.m.B.F.[.}.~.M.+.j t S r.r.w.S e.r.r.J q S e.r.S S S ",
"w w D w.r.r.r.w.Z K e.r.w.K r.w.K r.K q e l &.c.L.Q.L.V.v.v.C.A.C.v.t.*.o.@.:.<.1.<.=.@.@.:.y.m.F.C.V.m.m.v.B.C.!.>X,X:XN.| ; 4 F r.r.w.e.e.r.r.e.w.e.r.r.K S S ",
"q w D D e.r.r.e.w Z K r.w.K r.w.K e.L h y ) *.N.~.%XP.C.v.V.C.C.C.C.c.s.<.*...} [ } o.$.9.g.v.B.C.C.V.m.g.V.C.L.}.3X4X:XR.| , r F K r.r.r.r.r.e.e.e.r.r.e.e.S S ",
"w D w.r.r.r.e.e.r.w.K r.e.K w.e.e.J G f u / &.x.W.].W.F.C.C.C.C.C.C.F.A.v.,.} ) > ) o.9.v.F.A.C.B.C.C.C.A.F.Q.[.>X4X2X-XM.X.< u m G J e.e.r.r.e.K K w.K K e.K D ",
"w D r.w.e.r.r.e.r.r.e.w.w.e.r.r.K F g c c x } ;.x.E.!.Q.Q.K.F.C.m.V.A.A.C.y.#.} ` | :.u.V.A.C.V.C.D.L.W.Q.].>X<X3X1X-XR.-.` c c f M J K D K e.e.e.e.e.e.r.e.e.S ",
"q K w.K K r.e.w.e.r.w.K K e.r.r.w.C B h m f n ` *.l.E.].[.P.A.C.m.C.C.A.m.g.s.y.<.y.g.v.C.C.V.C.A.W.!.].%X|.3X4X2X-XM.&.' c h m h M J S J K e.r.r.r.r.r.r.r.w.D ",
"w K K w S K K w.w.K w w w Z w.r.w.J G h V G g p / &.z.E.!.D.v.v.C.F.F.F.F.F.F.H.H.H.F.F.F.F.A.F.W.[.}.}.!.~.:X1X-XM.o.3 p h H I G H L e.r.r.r.r.r.r.r.K S e.w.D ",
"w D w.Z J K D K K w K K w w w.e.w.L H A V G h f c ] ,.l.l.t.9.c.G.'.[.%X'.].{.%X%X%X{.].].Q.Q.].{.>X>X~.N.b.R.R.R.-.` r d V H I I F K K K e.e.e.D K e.D S D D D ",
"w w.e.w.K K K D Z K K w.Z w w.r.K J G V V h C V m b ] o.+.` @.s.G.}.>X|.}.|.|.|.|.|.|.}.{.}.}.|.>X>X|.D.a.*.@.-.&.] n h d h G I P I K K J K e.e.D S D w.D w w S ",
"D w.w.r.r.r.w.w.w.K w w w w r.r.K J C C G P H G V h c z 3 3 / =.b.W.~.!.W.W.W.W.W.W.W.E.E.W.W.W.!.~.G.t.X.3 3 , k f V H H H G V C J J w.r.r.r.r.r.r.r.r.r.D D D ",
"w D w.r.r.e.e.r.r.w.w.K K w.r.r.e.J N F C V V H H h f u < , c X.1.l.b.l.l.l.l.l.l.l.l.l.l.l.l.l.x.x.t.@.' c , p p p V H G P V G L J K K e.e.e.e.r.e.e.r.r.w.w.D ",
"w D r.w.w.w.r.w.r.r.r.r.r.r.r.r.e.S N J M g m I G h h f f f n n }  .@.@.o.o. .o.@.+. .@.o.o.o.o.+.@. .' m m V V m f h V h h h S K K K J w S K K D D S e.r.e.D D ",
"S D w.w.r.r.w.K w.w.r.r.r.r.e.K K D S J 0 M V H V m h V G M h v k l l l z l l l z z l z z z l l l l z c h F F G V h h h h M L K K S S K K S S J S S K D w.e.D w ",
"S D w.e.e.e.D D D w.w.w.e.r.r.w.K w.w.D K Z N H A m h h V V d f u u u i u p i i c u c u i u u u u u u p G F F G A A V g M F K r.w.J w K J Z w Z w w e.w.D e.D w ",
"w D e.r.D w D w.e.w.w w w.r.w.w.e.r.r.w.r.w.K F G m h g g g g g f f m m m m h V h h A h h f m h h m g m h G G G V I P C F K w.r.w.J Z Z w w w w w D e.e.w.w.D D ",
"w w.e.w.D q q D r.r.e.e.w.r.D w.r.r.r.r.r.r.K K L C M d d g h h V V V V H I H H G G G C h g g V H H H G P G V G H H F L K w.r.r.r.w.K N w Z K K D D w.w.e.r.D D ",
"S D e.e.K K D D r.r.e.r.r.w.w.r.r.r.w.r.r.w.K w.K K J M M G h P V H H V V H H I H H G V V h h V H I I P P G M J K K K K w.w.K e.r.r.K K K K w.w.e.e.w.w.w.e.w.D ",
"w w.e.r.r.r.e.e.r.w.w.w.w.r.r.r.r.w.w.r.w.K w w.e.e.r.K J L H H I C I V h h V V V G G G H G V V G h h h h H J K e.e.w.K K K K K r.r.r.r.r.r.r.r.r.r.r.e.D w.D q ",
"q w w.r.e.K e.r.w.w.w w w.r.r.r.w.w.Z K e.e.r.w K r.r.r.K L F F N C M C N M M M M M F L C M F F F F F h G L K K w.K K K e.e.e.K K r.r.r.r.w.r.r.r.e.D e.e.D w q ",
"w w e.r.w.S w.e.r.w.w.w w.e.r.w.K w.K w.e.r.w.K K r.r.r.e.K J J K J L K K Z w Z J J J L S q J J D S M 0 J K K K K w.K K r.r.e.D w.r.r.r.r.w.w.r.e.w.w.e.r.D w q ",
"D w.r.r.e.w.D w.r.w.w K w w w w K w.r.r.r.Z w r.r.K e.r.r.K J e.w.e.e.r.e.w.r.r.r.w.r.r.e.D S K e.D S S J J J K K w.r.r.e.J S e.e.w.r.r.r.D D w.e.r.r.r.r.r.w.D ",
"w D e.e.w.D w.w.w.w.D w w.e.w.w.e.e.K K K e.e.e.K K e.r.r.K K r.r.r.e.D D r.r.r.e.e.e.e.e.D K e.K e.D S K e.K K e.e.K K e.e.e.e.w.K w.r.r.w.K e.r.r.r.K D r.e.D ",
"q D w.w.w.e.r.e.D r.r.D e.r.e.e.e.r.K D e.e.r.K L K K r.r.e.e.r.r.e.D D w r.r.e.K K e.K K e.e.e.K r.e.D w.r.r.e.e.e.K D K r.e.K Z K w.r.r.e.w.r.r.w.w.w w r.e.w ",
"w D D D e.r.r.r.r.r.r.r.D D r.e.e.e.e.e.e.K K D D e.D e.r.e.e.r.e.w.D w.e.r.w.w.e.K K K e.r.r.r.r.r.r.r.K J r.e.e.r.r.e.e.K K S D w.w.w.r.e.e.r.e.w.K w.e.r.D q ",
"w w S D D e.e.e.r.r.r.w.D D r.r.e.r.e.e.e.e.D D K r.K D e.D K e.r.r.w.e.r.r.D w K K S D K e.e.e.r.r.e.K K K e.r.e.e.e.e.e.e.K S K w.K K K K w.r.r.w.w.w.r.r.w 9 ",
"w w w w D w.w.e.r.r.e.w w.e.e.r.e.e.K e.r.r.w.D D r.w.D D J K e.r.e.e.e.r.e.K K e.K S S S K K K r.r.r.D D e.r.r.e.e.K e.r.r.w.K w.e.w.D D D K e.r.r.e.e.r.e.D 0 ",
"D w w w w w D e.e.e.e.w.D w.e.w.D K D K r.r.e.e.r.r.r.r.K r.r.K S D e.r.e.e.e.r.r.K S S S S K e.e.r.w.D K K K K S K D K r.r.e.w.w.r.r.r.w.e.e.w.w K r.r.r.e.w.w ",
"q q q D w w D D w w D D D D D w S S D D D D D D D D D D D K K K q w D D S S D K K S q S S S S D D D S S D D D S S S S D K K K w.D D w.w.D D w.D w w D D w w w q ",
"9 0 q w D D w q q q q w w w q w D S D S 0 S D D D S F S S S S D q 0 S q 9 0 q S w q q S S S S q S 0 q S S S q S D S D D 0 q w D D w w w w w S D 0 0 w q 9 0 0 9 "
};
