/* XPM */
static char *__resized[] = {
/* columns rows colors chars-per-pixel */
"80 80 222 2 ",
"   c #08011C",
".  c #0B0827",
"X  c #140A28",
"o  c #13152B",
"O  c #140C32",
"+  c #0E1330",
"@  c #191737",
"#  c #26183B",
"$  c #1A2537",
"%  c #1D2B3C",
"&  c #1B3231",
"*  c #223E24",
"=  c #243D2C",
"-  c #212239",
";  c #273D32",
":  c #294B1C",
">  c #2F5619",
",  c #2E531D",
"<  c #30571E",
"1  c #335C1D",
"2  c #36621C",
"3  c #39661C",
"4  c #3C6D1D",
"5  c #3F711E",
"6  c #264424",
"7  c #2B4D25",
"8  c #25432A",
"9  c #29462B",
"0  c #2C4A2C",
"q  c #324A26",
"w  c #324D2D",
"e  c #2E5323",
"r  c #2E532B",
"t  c #335A24",
"y  c #365927",
"u  c #35542C",
"i  c #345A2B",
"p  c #395D2B",
"a  c #2A4232",
"s  c #2A4A32",
"d  c #264538",
"f  c #2B4C3D",
"g  c #314E36",
"h  c #2C5134",
"j  c #2D543D",
"k  c #345432",
"l  c #355737",
"z  c #366221",
"x  c #3A6423",
"c  c #3D6C23",
"v  c #3D642C",
"b  c #3F682B",
"n  c #3F7220",
"m  c #3E6331",
"M  c #41751F",
"N  c #43781F",
"B  c #406B2A",
"V  c #416A2C",
"C  c #417620",
"Z  c #457C21",
"A  c #44732B",
"S  c #406631",
"D  c #416830",
"F  c #1F2741",
"G  c #272949",
"H  c #233B43",
"J  c #332E52",
"K  c #33355B",
"L  c #453356",
"P  c #463D61",
"I  c #274547",
"U  c #274844",
"Y  c #2A4B45",
"T  c #2A4C4B",
"R  c #2E5548",
"E  c #2D524C",
"W  c #325948",
"Q  c #274F52",
"!  c #2C4952",
"~  c #344A53",
"^  c #2E5353",
"/  c #2F5A57",
"(  c #325C55",
")  c #35575A",
"_  c #335E5A",
"`  c #36684E",
"'  c #376658",
"]  c #34625C",
"[  c #356561",
"{  c #356B63",
"}  c #396D64",
"|  c #356A6A",
" . c #3B7364",
".. c #3B746B",
"X. c #3D796B",
"o. c #397771",
"O. c #3B7B74",
"+. c #3A7779",
"@. c #50506F",
"#. c #407C6D",
"$. c #497969",
"%. c #596F76",
"&. c #427E72",
"*. c #616278",
"=. c #478022",
"-. c #498423",
";. c #4C8924",
":. c #3E836E",
">. c #3E817A",
",. c #438373",
"<. c #458777",
"1. c #468C7A",
"2. c #498D7A",
"3. c #4A937E",
"4. c #48977D",
"5. c #57917F",
"6. c #3C7A83",
"7. c #5B6283",
"8. c #63698A",
"9. c #7C7592",
"0. c #3E8688",
"q. c #418784",
"w. c #438C85",
"e. c #4B9581",
"r. c #4E9C84",
"t. c #469388",
"y. c #599583",
"u. c #509F85",
"i. c #479794",
"p. c #659B85",
"a. c #4EA286",
"s. c #50A186",
"d. c #52A48A",
"f. c #54AA8E",
"g. c #59A88D",
"h. c #57B08F",
"j. c #4DA294",
"k. c #4CA49A",
"l. c #4EA99E",
"z. c #55AD92",
"x. c #54AC96",
"c. c #56B293",
"v. c #59B494",
"b. c #5BBA96",
"n. c #56B29B",
"m. c #57B799",
"M. c #5CBC9A",
"N. c #67A98D",
"B. c #6AAE92",
"V. c #6DB998",
"C. c #479DAA",
"Z. c #4FACA1",
"A. c #51ADA3",
"S. c #56B7A7",
"D. c #59BBA4",
"F. c #56BAAC",
"G. c #4BA4B3",
"H. c #56BCB4",
"J. c #5EC39B",
"K. c #5FC89D",
"L. c #61C59D",
"P. c #62C99F",
"I. c #5DC1A6",
"U. c #5CC2AD",
"Y. c #5AC4B3",
"T. c #5DC9B5",
"R. c #5DCBBC",
"E. c #5FD0BF",
"W. c #64CCA1",
"Q. c #68CDA2",
"!. c #7BCBA7",
"~. c #65D2A4",
"^. c #6AD3A6",
"/. c #67D8A9",
"(. c #6BDCAB",
"). c #75D5A9",
"_. c #78DAAD",
"`. c #60CEBB",
"'. c #72E5B1",
"]. c #71E8B2",
"[. c #7AE8B5",
"{. c #57C1CA",
"}. c #5FD1C8",
"|. c #5AC9D8",
" X c #62D7C9",
".X c #64DDD8",
"XX c #63DEE7",
"oX c #66E4E7",
"OX c #68EAF4",
"+X c #898A9F",
"@X c #9297AE",
"#X c #9EA6BD",
"$X c #A4A5B8",
"%X c #87D5AD",
"&X c #88D2AC",
"*X c #87DAB3",
"=X c #8AE5B6",
"-X c #89E8B7",
";X c #95EEBE",
":X c #98EDBE",
">X c #8FF3BF",
",X c #97F0BF",
"<X c #9BF1BF",
"1X c #A2E8B6",
"2X c #A8F4BF",
"3X c #B8F9BF",
"4X c #C9FCBF",
"5X c #D5FEBF",
"6X c #B5BCCE",
"7X c #9BEDC0",
"8X c #9BF3C2",
"9X c #99F7C5",
"0X c #A1F5C4",
"qX c #A8F6C8",
"wX c #A4FCCD",
"eX c #ABF8CF",
"rX c #B6FAC7",
"tX c #CDFEC2",
"yX c #C4FDC8",
"uX c #D5FFC3",
"iX c #D9FFC1",
"pX c #C6FFD1",
/* pixels */
"> 2 M 4 4 M M M M 4 4 M M 5 N M M M M M 3 B M N N M M M M 4 4 M M M M M 4 M M M 3 4 M 4 4 M 4 M M 4 4 M C M N M 5 M N 5 4 4 5 N 5 3 3 3 4 4 4 5 5 5 Z 5 5 N 4 2 ",
"3 4 M M N Z 4 M M 4 5 Z Z M N 5 M M M M 4 M M M M M M M M C N N N M M M M M N M N C M M M M M M M 4 M N Z M M 5 5 N 5 5 5 5 M M 3 t e t 2 5 Z Z Z 5 5 5 5 =.5 4 ",
"N N M N Z Z M M M M N =.Z Z N N Z Z M M M M N M M M M 4 M Z ;.;.-.-.M M N N ;.;.;.=.C Z N N N 4 M M N Z Z Z Z C M N 5 4 5 Z Z 4 t 8 d 8 < n ;.;.;.=.5 5 5 =.=.=.",
"M N -.;.-.Z M C M M M =.-.-.;.;.Z Z M M M =.;.;.-.Z -.N -.Z -.-.-.-.=.N N =.=.=.=.=.-.;.-.=.N N Z M M =.-.-.;.;.-.=.N 5 Z -.-.Z z 9 d r z 5 ;.-.-.-.-.Z 5 =.N 5 ",
"4 N Z =.-.;.=.=.=.Z Z =.;.;.;.-.;.-.Z -.;.;.;.;.-.;.;.;.-.Z Z Z Z Z -.-.N =.-.-.Z =.=.Z -.;.-.Z =.Z Z =.;.;.;.-.;.-.=.Z -.;.;.-.C u r i B M Z Z Z Z -.=.=.=.5 5 ",
"M M M M =.;.;.;.-.-.=.=.;.-.=.Z Z ;.;.;.;.;.;.;.-.;.;.;.-.Z N C M M -.;.-.N -.-.=.Z C C =.;.;.-.-.=.=.=.;.;.Z Z =.;.;.;.;.;.;.;.Z M c c M C N Z 5 5 -.;.;.5 Z 5 ",
"4 4 M N Z Z Z Z Z Z C C M Z -.-.-.-.Z N Z Z Z -.-.;.;.;.-.N N Z M 4 Z ;.-.Z N N Z Z C Z Z Z C Z Z Z n Z C Z =.-.-.-.Z N C Z Z -.=.=.=.-.-.M C Z 5 5 =.;.;.=.4 3 ",
"4 M M N Z M M M 5 c 5 M 5 5 Z -.;.Z Z C Z N M M Z ;.;.;.;.Z Z -.C C -.;.-.M M M Z Z C Z Z C M C 5 5 5 n 5 5 Z -.-.=.Z Z N C Z C -.;.;.;.;.N Z -.5 Z -.;.;.5 3 3 ",
"4 5 M Z Z 5 5 5 5 5 n 5 5 5 4 Z -.Z -.;.;.Z N M N -.;.;.;.;.;.;.-.=.-.;.-.C C Z Z C N Z Z M M M n 5 5 n M 4 c Z =.=.-.;.;.=.C 5 Z -.;.;.;.;.;.;.-.=.;.;.-.M 3 M ",
"3 5 N Z Z Z 5 5 5 5 5 5 n Z n =.-.-.;.;.;.-.Z -.;.;.;.;.-.-.;.-.Z M Z -.-.Z -.-.Z Z N Z Z Z M 3 5 5 n 4 C Z Z =.-.=.;.;.;.-.Z -.-.;.;.;.-.-.-.-.Z M Z =.-.Z N M ",
"5 5 N =.=.=.n 5 Z Z Z Z Z =.-.;.;.-.;.;.;.;.-.;.;.;.;.-.N Z -.-.M 3 4 Z ;.-.-.;.=.Z M Z -.Z N M C Z Z Z Z =.-.;.;.-.;.;.-.-.-.;.;.;.;.-.Z Z -.-.C 3 4 Z ;.-.N N ",
"N 5 n ;.;.;.Z Z Z -.;.;.-.-.;.;.;.Z -.;.Z Z ;.Z Z ;.;.-.M -.;.;.C 4 M -.;.C Z -.;.=.C -.;.;.Z Z =.-.;.;.-.=.;.;.;.=.-.;.Z =.;.Z -.;.;.-.M Z ;.;.C 4 M -.-.N M M ",
"5 5 M =.;.;.;.=.n Z -.;.-.Z ;.=.N ;.;.;.;.;.;.-.;.;.;.;.-.-.;.;.=.=.-.;.;.Z Z -.Z Z C =.-.;.;.=.M Z =.;.=.Z ;.=.Z -.;.-.-.;.;.=.-.;.;.;.-.-.;.;.=.=.-.;.-.Z N M ",
"4 5 N N -.;.;.-.5 n Z ;.=.Z -.=.N ;.-.N ;.;.;.Z Z ;.;.;.;.;.;.;.-.;.;.;.-.=.-.-.Z Z Z Z -.;.;.-.M 5 Z ;.=.Z ;.Z Z ;.=.Z ;.;.;.=.=.-.;.;.;.;.;.;.-.;.;.;.-.=.N M ",
"5 N -.;.;.;.-.-.;.=.Z ;.-.Z -.;.;.N M B Z ;.;.C M Z -.-.;.;.;.=.Z Z =.=.Z =.-.;.-.=.=.-.;.;.-.-.;.Z Z ;.=.=.=.-.;.=.C 4 Z -.;.Z M Z -.-.-.;.;.=.Z Z =.Z =.-.Z N ",
"5 N ;.=.-.;.-.-.;.;.-.=.=.-.-.;.;.M M M M C Z M M Z Z Z Z N =.-.-.=.=.-.;.;.;.;.=.-.;.=.;.;.-.-.;.;.-.=.=.-.;.;.;.Z n 4 M Z Z M C Z Z Z Z Z -.-.-.=.-.-.;.-.=.N ",
"5 N -.N Z ;.-.-.-.;.=.Z Z =.;.;.-.Z C Z 5 C Z C N N N N N Z =.;.;.;.;.;.-.;.;.;.-.-.;.5 =.-.-.-.;.;.=.Z N =.;.;.;.Z M C M C Z C Z Z Z Z Z Z =.;.;.;.;.;.-.;.=.N ",
"N N M 5 5 =.Z =.=.Z n 5 5 C =.;.;.-.-.Z Z -.;.-.-.;.;.;.;.;.;.;.;.;.;.Z Z -.;.;.;.-.n 5 5 -.n =.Z n 4 4 4 4 Z =.-.-.-.N Z -.;.-.;.-.-.;.;.-.;.;.;.;.;.Z C =.=.N ",
"5 N =.N 5 5 N Z Z M C Z n n =.;.;.;.-.=.Z Z -.;.;.;.;.;.=.=.-.;.Z Z =.Z 5 Z =.;.-.-.=.n 5 5 Z n 3 e : , , 7 < 4 Z -.;.-.Z Z -.;.;.;.;.-.Z =.-.-.Z Z =.Z M C N N ",
"5 =.;.=.Z Z Z Z C N Z =.M 5 =.-.;.-.;.-.Z Z =.-.-.;.;.-.N Z =.-.N 5 Z Z C 4 Z -.=.-.-.=.=.=.n 3 7 8 8 9 8 = 9 e c Z -.-.Z Z =.-.;.;.;.-.Z Z =.;.Z C Z Z Z M M N ",
"N N =.;.;.;.-.=.=.Z 5 4 4 C ;.-.=.=.-.;.;.;.;.=.-.-.-.;.;.;.;.;.-.-.=.Z N M M Z Z n n -.-.=.n t h W ( E E ( ( j i c Z ;.;.;.;.=.=.-.-.;.;.;.;.;.;.;.;.;.;.Z N N ",
"M Z -.-.;.-.-.;.;.-.Z Z Z =.;.;.-.Z =.-.-.=.Z -.-.-.N -.-.-.-.-.=.5 2 1 e < < 1 1 < > 1 2 2 t j ` O.&.....&.,. .W i c Z =.=.=.=.-.-.=.=.=.-.-.=.-.=.=.;.;.-.N N ",
"5 N ;.-.=.=.-.-.;.;.;.;.;.;.;.;.-.M Z Z Z C Z -.-.N N M 5 M M M 4 1 6 = = 8 8 8 8 8 8 8 * * h ` <.f.d.3.e.s.h.r. .j 7 2 M M M ;.;.Z Z M 5 N Z Z Z M M =.;.=.N N ",
"M N Z =.;.;.-.Z =.-.;.;.;.;.-.=.N Z C M 5 Z =.;.-.M N M 4 4 3 2 t r W ] ' _ ` ' ( ( ` ] E R ' :.h.P.P.v.v.M.Q.v.4.( a : 4 Z =.;.=.5 C Z Z Z n Z 5 M Z =.=.-.Z M ",
"M N =.-.;.=.N N =.Z Z Z -.;.-.=.Z -.Z Z Z =.-.;.=.5 5 4 1 : : : 7 W $.y.g.y.y.y.y.y.y.y.%.,.:.a.J./.W.W.M.W.Q.m.1._ d : c =.;.;.=.5 5 Z Z 5 n 5 4 M =.=.Z =.N 5 ",
"5 N -.;.N 5 N Z -.=.N 5 Z ;.-.=.-.;.-.=.;.;.-.;.-.5 4 1 6 & & * h $.N.&X*X!.!.!.!.&X&XV.V.h.f.c.L.W.W.W.W.W.M.u.O./ s e Z -.;.;.=.Z 5 5 n 5 5 n 5 M -.-.=.=.N M ",
"M -.-.=.N 4 4 N ;.;.-.-.-.-.Z -.;.;.;.;.;.;.-.;.;.Z z r W _ _ ) ,.B.1XqXeXqX7X7X0X0X0X9X;X[.^.~.W.W.W.W.W.M.c.e. .^ s t =.;.-.;.-.-.M 5 4 5 C Z Z Z =.=.-.-.=.N ",
"M N -.=.=.N M N ;.;.;.-.;.-.=.;.;.;.-.;.-.=.=.-.N 4 r W $.p.g.y.B.&X2XyXpXpXpXeXwXwXwX0X9X>X-X).Q.W.W.Q.W.m.z.1.{ T 8 1 =.-.Z =.;.;.=.N Z Z =.=.-.-.=.=.=.;.=.N ",
"5 N -.;.;.;.-.;.;.=.Z Z Z ;.;.;.;.-.=.=.=.Z n Z 4 e R $.N.&X*X_.&X1XrXuXiXuXrXrX9X<X9X9X9X9X-X_.^.L.J.W.W.M.z.2.| T 8 1 n n 5 -.;.;.;.-.;.;.;.;.;.;.;.=.Z Z Z M ",
"4 M =.;.-.N -.;.=.=.Z M =.;.;.-.=.Z Z Z -.-.Z 2 r j $.B.*X7XeXeXrXyX5X5XiXtX3X2X<X,X,X,X2X0X<X=X).W.J.W.L.L.v.r.,.] j 7 c Z -.Z N ;.;.;.;.-.;.;.;.-.N =.=.Z 4 3 ",
"4 M -.;.=.N =.-.-.=.Z C Z -.-.Z Z Z Z =.;.Z 4 r j $.B.*X7XeXrXrXyXuXiX5X4X3X3X<X,X,X,X<X9XqX<X-X).P.J.K.P.L.M.z.r.&.` f r z 5 =.=.;.;.;.;.=.=.;.-.=.=.;.;.Z 5 5 ",
"M -.;.;.-.N N -.;.=.n C N Z M Z Z =.;.;.Z 2 6 f $.N.*X7X8X8XrXyXuXiXiX4X3X2X<X:X,X,X,X<X9X0X,X=X).K.K.I.P.W.P.J.c.r.O.] f 6 < =.;.N -.;.;.N N -.-.;.;.;.;.;.N N ",
"5 =.-.-.-.N =.-.=.-.=.5 =.-.Z =.-.-.n n z e s  .g.%XqXwX9X0X2X4X4XtXtX3X2X,X,X>X,X,X<X<X8X,X=X_.^.P.L.L.P.^.P.P.L.f.u.1...W l x 4 M Z ;.;.Z Z -.;.;.-.Z Z ;.=.N ",
"5 5 N =.=.-.-.-.=.-.-.N =.;.;.-.-.-.5 1 r W ' u.!.7XeXwX9X8X1X2X3X3X2X2X<X,X>X;X,X0X0X8X;X=X).^.P.P.L.P.P.^.^.P.M.v.v.v.d.,.` h e 3 Z -.;.-.=.;.;.-.Z M 5 ;.=.5 ",
"5 5 =.=.-.-.;.;.-.;.;.;.n Z ;.-.-.-.4 7 j [ 3.L._.>X8X0X8X<X:X<X<X0X2X:X<X<X;X;X,X<X0X,X=X_.~.K.P.P.P.P.P.Q.W.L.v.f.c.M.J.f.,.f 9 1 N -.;.;.-.;.-.=.=.=.=.;.N 4 ",
"5 5 5 5 =.-.-.-.;.;.-.-.n Z -.;.;.-.2 6 U  .d.^.[.[.>X<X0XwXwXwX8X9X8X8X7X8X8X8X<X,X;X=X_.).~.~.~.^.^.P.P.L.L.b.h.d.f.f.s.2.` s e 3 M Z Z Z Z ;.;.;.Z =.;.;.5 3 ",
"5 5 5 5 n -.=.-.;.;.-.5 Z =.-.;.-.-.2 6 U ..f.^._._.[.-X0XeXwXwX9X9X9X8X7X8X8X0X<X;X=X_.^./././.(.(./.^.P.M.v.c.z.f.a.4.,.` l t 4 N Z Z C Z Z -.;.-.=.-.;.-.N 3 ",
"N 5 5 5 5 5 5 -.-.-.-.-.Z Z -.Z 5 5 1 6 R  .d.P./.W.Q._.*X:X7X<X,X,X,X,X,X,X8X8X;X=X).P.L.J.J.L.P.P.P.P.L.b.f.z.d.d.e.X.W h t 5 =.-.;.-.Z -.;.Z M N ;.;.;.=.Z 5 ",
"N N N =.=.=.=.=.=.=.-.=.=.=.=.Z 5 z r j  .2.h.P.(./.W.M.N.p.5.p.V.%X-X>X,X-X=X=X=X[.'.~.c.4.:.X.,.r.f.L.L.b.f.s.d.d.r.>.[ R r n N Z -.-.-.-.;.-.M M -.=.N Z N Z ",
"5 5 =.-.-.-.=.=.N Z N -.-.-.Z n z i j  .4.h.J.~.(.'.P.s.$.~ g ~ $.N._.[.-X_.).).).'.].~.a.{ d % ; _ <.f.M.M.d.s.r.d.f.j.0.o.` i t M =.-.=.-.-.-.Z N -.Z 5 N N 5 ",
"3 5 -.=.=.=.=.;.-.Z Z -.-.-.-.3 e U  .r.L.~.^.P.~.~.h.,.E - X X H ..d.W./.K.W.W.W.~.~.J.e.) - X X % ^ ,.s.z.d.s.a.d.n.F.Y.l.&.E 7 1 Z ;.Z Z Z =.Z ;.;.Z Z ;.N 4 ",
"5 5 N =.=.=.N N Z Z Z -.=.-.Z 2 6 U ..z.^.'.(.P.c.a.<.%.%.P J O @ H } r.c.J.K.~.K.h.4.<.%.%.@.L # @ F ! &.e.r.a.d.a.m.`.`.F.q.^ = > M Z Z -.-.-.;.-.Z M N ;.Z M ",
"N 5 N N =.=.5 5 5 Z Z =.Z Z n < 6 U X.f.~.'.].J.1.[ ) *.@X+X8.J + + H [ 4.J.(.].K.4. .] *.+X@X9.P @ + % ! ..4.d.f.d.n.T.R.F.q.^ = : 3 M M Z ;.;.;.Z N M M Z Z N ",
"5 N -.;.-.-.N 5 Z 5 n =.-.;.;.4 7 U { a.L.'.].M...; G *.$X6X@X*.@ . . H  .c.].].I.:.d $ @.@X6X#X7.G . . $ ) <.f.z.s.n.T.T.A.>.T 9 1 C -.Z -.-.-.-.;.Z N M -.M M ",
"5 Z =.-.-.;.=.=.-.Z Z =.;.;.=.4 7 f [ 3.b.(.'.M. .$ X P p.#X@X7.G .   $ ' h.].].~.:.% o L 9.#X@X8.K O . o T >.d.c.a.c.U.Y.A.7.Q 0 1 N ;.-.Z Z Z N Z -.Z Z Z Z M ",
"5 5 5 n =.;.;.;.-.=.=.=.;.;.Z 1 6 U ] <.f.~.(.J.:.% X # @.8.8.@.K O . $ ' h.].[.~.,.H X # P 7.8.7.K @ . o T <.f.c.a.x.U.Y.A.>.R 0 1 =.;.-.Z N C M M -.;.-.Z N N ",
"5 5 5 Z =.=.Z Z Z C C Z C Z Z 4 7 Y _ ,.s.J.~.b.1.^ F O # G K K K G % ! ,.b.(.].P.4.( % o @ G J K K G F H ] >.d.h.f.S.Y.Y.Z.>.U 9 1 Z ;.-.Z C Z M M -.;.;.N M 3 ",
"4 4 5 =.Z 5 5 5 5 n 4 n 5 n Z z 7 f _ &.r.h.L.h.i.+.! F O O + # G K _ ,.f.L.^.^.b.s.,.^ % + . O @ G J ! ] :.r.f.n.n.U.T.Y.l.:.Q 9 3 Z ;.;.Z Z Z M N -.;.-.M 3 1 ",
"4 4 M =.Z M 5 5 5 5 5 5 5 4 4 1 7 d _ ,.u.g.c.f.f.u...! $ .   X G ) 2.b.W.W.W.M.h.d.r.&._ % . . . $ ! | 2.r.s.z.n.F.T.E.T.l.>.U 9 1 Z ;.;.;.;.;.;.-.;.;.-.M M M ",
"4 5 N N N N 5 5 5 5 n 4 Z Z n 2 7 U } w.x.n.x.d.f.v.r.#.! $ o o T &.b./.(.W.b.z.s.z.n.d.,.^ $ o @ H [ 2.f.h.d.d.n.Y.}..X}.F.0.T 6 1 Z ;.-.-.-.-.N M Z Z -.-.M M ",
"5 5 M =.;.=.M M C Z Z Z Z =.=.x 7 U | j.D.D.x.s.d.v.z.2.} ^ I T } r.J./.^.M.z.u.s.x.M.v.r.O.) I ! _ &.u.c.c.d.d.n.U.}.oXoX{.0.R 8 1 N ;.N N -.;.M 3 M Z ;.Z Z M ",
"N M M -.;.;.N N =.-.;.;.-.=.;.4 7 I ..k.Y.T.M.s.s.d.s.r.e.<.,.<.3.s.z.v.v.z.f.s.s.f.z.z.s.e.1.,.,.w.r.u.d.s.a.d.x.U..XOXOX|.0.E 6 3 =.-.N -.;.;.C M M Z ;.M M M ",
"5 5 N =.;.;.;.=.5 Z -.;.=.=.;.4 7 f ' w.A.F.D.n.z.d.d.d.f.f.z.f.d.e.2.2.e.d.z.h.z.r.e.1.e.u.f.z.g.f.d.s.s.s.a.x.W.}.XXXX|.G.6.E q 3 =.;.-.;.;.;.Z Z -.;.;.Z M M ",
"4 5 N N -.;.;.=.M n Z ;.=.Z -.c t k ( } q.k.S.D.D.z.s.s.f.v.M.M.s.,.{ } :.r.n.m.z.2.X.} #.e.c.M.v.f.d.s.s.s.z.U.}.XXXX|.G.6.[ j y M =.;.;.;.;.-.-.;.;.;.-.-.N M ",
"5 N =.;.;.;.-.-.;.Z Z ;.=.=.=.=.A v k Y / >.l.Y.U.n.s.u.d.f.z.z.3. .^ /  .r.c.M.f.,.] ^ ] ,.d.h.z.d.s.s.d.x.D.}.oXOX|.C.} ~ j u y M -.-.-.;.;.=.Z Z Z Z Z -.Z N ",
"5 N ;.=.-.;.;.-.;.;.-.=.-.-.-.-.Z S w a d ] q.Z.F.D.n.n.z.f.f.f.1. .( ^ ' O.1.1.,. ./ ^ ] ,.s.z.z.x.z.x.D.T. XXXXX|.C.+.Y ; w y x C Z Z Z Z -.-.-.-.-.-.;.;.Z Z ",
"4 Z -.Z Z ;.-.-.;.-.=.Z Z =.;.-.C S y q 0 Y ) q.k.S.U.I.M.z.d.d.4.<.X.' ] ] ( ( _ _ ]  .#.2.u.x.n.S.D.U.`.XXOXXX|.C.+.T a q y y c C Z Z Z Z =.;.;.;.;.;.;.;.=.N ",
"M Z C 4 M Z Z Z =.Z 5 5 5 C -.Z C V p S p u g ( >.l.T.U.n.d.s.s.f.d.s.<.{ ^ I ; T _ O.4.d.s.f.n.F.Y.Y.Y.}.XXOX|.C.| Y w y S V V B Z =.;.;.-.;.;.;.;.;.N M -.=.N ",
"5 N Z Z C C N Z Z n C Z c C =.Z B V D D p y w Y [ 0.k.j.e.3.r.x.D.W.U.n.t.+._ / | <.u.D.W.m.D.Y.E.R.Y.A.G.H.|.G.6.E 0 y y v S D B Z ;.;.Z =.-.-.=.N -.N M N N N ",
"5 Z ;.=.Z Z Z Z C Z Z =.C C Z Z C S D S p p y g R { o.o.[ ..e.A.`.E.E.U.A.Z.0.0.i.Z.F.`.`.T.`.`. XR.A.w.+.6.q.&.) f u p v v S S B Z -.-.Z Z =.;.N M N =.N 5 5 N ",
"N Z -.;.;.;.=.=.Z Z M M 4 Z -.Z B x S S V V V p k R U U H ( >.l.Y.}.Y.Y.Y.H.F.F.F.H.Y.Y.Y.H.Y.R.E.S.0.] Y ; ~ Y g p S V V S S v c C =.;.;.;.;.;.;.;.;.;.;.=.N N ",
"M N -.-.;.-.-.;.;.=.Z Z Z =.;.=.Z x x v m v V D v s ; = = Y { w.k.Z.k.k.k.Z.Z.Z.Z.Z.k.k.k.k.k.Z.l.t...W ; = ; w u y B D S v y M A Z Z =.-.-.-.-.-.-.-.;.;.-.N N ",
"M N ;.=.=.-.-.;.;.;.;.;.;.;.;.;.Z 4 x v p p p V v u w 0 0 g W { O.O.O.o.O.O.O.O.O.O.o.o.o.o.o.O.O.{ ` j u q w y m y m m p y x Z =.Z Z Z M M N N N N M -.;.=.=.N ",
"M N =.=.-.;.=.Z Z -.;.;.;.;.-.Z Z Z 4 x p p v D v y y p v u j U U U T U U T T T U T U U U I U U I Y l l V B S v p p p p p B C -.Z M M N Z N N M M N N N =.=.N 5 ",
"M N N -.-.=.N N Z =.Z Z -.;.-.=.Z =.Z c c b b m m m v v v y u a ; ; ; a ; a a ; a ; a a ; ; a ; ; 0 q p B A V S m m v z x A =.;.=.5 n n Z n 5 5 5 5 =.=.=.=.N 5 ",
"5 N ;.-.-.5 N =.-.=.n 5 =.;.=.-.-.;.-.=.A n b m m m p i i i u w w w u k k u u q u u k k u w w u k k u y V V v S m m v b Z =.-.;.-.Z 5 n 5 5 5 n 5 5 ;.=.=.=.N 5 ",
"M N -.-.C 4 4 N ;.;.;.-.-.-.Z -.;.;.;.-.;.Z n b b b v i i i p p p p p v S S B S S S V p y q y y S S V S V v v v b b V Z -.;.-.;.-.-.n 5 5 5 Z Z N =.=.=.=.;.N N ",
"M N -.-.Z Z M Z ;.;.-.-.;.-.=.-.;.;.;.;.;.Z n n b n b z p p v b V B V D S B V V B V V V B S y S V V S S v V x C A A Z =.-.-.Z -.;.;.=.Z n Z =.-.=.;.=.=.=.;.=.N ",
"5 N -.;.;.;.;.-.-.-.n N -.;.;.;.-.-.-.-.-.n 5 n Z Z Z A V D S S V V D S p v m v S S S V S S v p S S p p v B Z Z =.Z Z Z Z Z M =.;.;.;.-.;.;.;.;.;.;.;.=.=.=.N 5 ",
"5 M =.;.-.N -.;.-.-.=.5 -.;.;.-.=.=.=.n -.;.-.5 Z ;.=.Z A b v B B v v x v x p x 1 B B A B y B B x D v p b Z -.-.=.Z C Z -.;.-.Z =.;.;.;.;.;.-.;.;.-.=.=.=.N 4 4 ",
"5 N =.;.-.N =.-.;.-.5 =.N -.-.-.Z =.n =.;.;.-.=.=.;.;.-.C C c A A n 4 A A c c c B M C A M B B M B C x x c Z -.=.Z Z Z Z ;.-.=.N =.-.;.;.;.-.-.-.-.=.=.;.;.N 5 4 ",
"N N ;.;.-.N N -.;.-.5 5 N 5 N 5 Z -.;.;.-.5 5 -.-.=.;.-.=.M M N Z Z =.=.=.Z =.=.N =.Z Z N M M M Z C c 4 M M C Z Z -.;.;.=.Z M ;.-.=.;.;.;.N N -.-.-.;.;.;.=.=.N ",
"5 N -.-.=.=.=.=.N -.N M =.-.N =.=.-.=.Z =.=.-.=.=.Z -.;.;.Z Z =.-.;.=.N N -.;.;.=.-.-.=.=.N N =.Z Z Z M Z -.Z Z =.-.=.Z =.=.=.-.=.Z -.;.;.Z Z -.;.;.-.Z N ;.=.=.",
"5 M =.=.=.=.;.-.=.-.-.N -.;.-.-.-.;.Z C =.-.;.Z C Z Z ;.;.-.-.-.;.-.=.5 N ;.;.;.Z Z Z Z =.=.;.-.Z ;.-.C =.;.;.=.-.;.Z C =.-.;.Z n Z -.-.;.-.-.-.;.-.=.5 5 ;.=.5 ",
"5 M N N =.;.;.;.;.;.;.;.N N ;.=.=.;.-.-.=.=.Z C C =.Z -.;.-.-.;.-.-.=.N -.;.=.Z -.Z Z Z -.;.;.;.;.;.;.;.Z C ;.-.-.;.;.=.=.=.Z n 5 =.=.-.;.;.-.;.-.=.=.=.-.;.N 4 ",
"5 M M N N ;.-.;.;.;.-.=.N =.;.;.;.;.-.-.-.-.Z N Z =.Z Z =.Z Z ;.;.-.=.=.-.;.N 5 -.Z N N Z -.-.-.;.;.-.Z Z Z ;.;.;.;.-.=.;.-.Z M =.-.=.5 =.N Z ;.;.-.=.=.;.;.5 3 ",
"5 5 5 5 N N N =.;.;.=.N =.=.;.-.-.=.=.=.;.;.=.Z =.;.Z Z C Z Z -.;.;.-.-.;.;.Z Z -.Z M M M Z Z =.;.;.-.N N =.-.;.-.=.=.=.;.;.=.Z =.-.=.N N N =.-.-.;.=.-.;.;.5 3 ",
"M M 5 M N 5 =.=.-.;.=.=.N =.;.N N N Z Z ;.;.-.-.=.;.;.-.=.-.;.Z N N -.;.-.=.=.;.-.Z M M M M N -.-.;.-.N Z Z Z Z M Z N Z ;.;.-.=.-.;.;.;.=.;.-.=.N 5 ;.;.;.=.=.5 ",
"4 4 5 5 5 5 N 5 N N 5 N N N N M M M N N N N N Z N N N Z Z Z Z Z 5 4 N N M M N Z Z M 4 M M M M M N M N M N N N M M M N N Z Z Z N N =.=.N N N =.N 5 5 N 5 5 5 5 4 ",
"2 3 5 5 N N 5 5 4 3 4 5 M 5 4 5 N M N M 4 4 N N N M M 4 M M M C 4 3 M 3 3 3 4 M M 4 4 M M M M 4 M 3 4 M N M 4 M N M N M 4 4 5 N 5 5 5 5 5 5 5 N 4 3 5 4 3 3 3 3 "
};
