/* XPM */
static char *__resized[] = {
/* columns rows colors chars-per-pixel */
"80 80 230 2 ",
"   c #08021D",
".  c #1D371E",
"X  c #223F1E",
"o  c #0C0524",
"O  c #0D0B2C",
"+  c #130B2A",
"@  c #0F122D",
"#  c #14122A",
"$  c #15162B",
"%  c #160D34",
"&  c #171633",
"*  c #25163A",
"=  c #1D3824",
"-  c #1A2338",
";  c #1D2A3B",
":  c #1A363C",
">  c #223D24",
",  c #243D2D",
"<  c #21273D",
"1  c #253B34",
"2  c #2B4D1E",
"3  c #2F5316",
"4  c #2E531C",
"5  c #30561D",
"6  c #325B1D",
"7  c #36621C",
"8  c #39661C",
"9  c #3C6D1D",
"0  c #3F711E",
"q  c #254323",
"w  c #2A4B22",
"e  c #2B422C",
"r  c #294829",
"t  c #314B24",
"y  c #304B2C",
"u  c #2E5322",
"i  c #2E532D",
"p  c #325523",
"a  c #335A23",
"s  c #35542D",
"d  c #35592B",
"f  c #395C29",
"g  c #3A5C2C",
"h  c #264332",
"j  c #2A4131",
"k  c #2B4C33",
"l  c #27463A",
"z  c #2A4B3C",
"x  c #304F39",
"c  c #2D5338",
"v  c #345637",
"b  c #335A34",
"n  c #3A5B32",
"m  c #376322",
"M  c #3A6424",
"N  c #3D6C22",
"B  c #3D642C",
"V  c #3F692A",
"C  c #3F7220",
"Z  c #376536",
"A  c #3E6331",
"S  c #41751F",
"D  c #43781F",
"F  c #406D27",
"G  c #416B2C",
"H  c #417521",
"J  c #457C21",
"K  c #457528",
"L  c #406632",
"P  c #416931",
"I  c #231E44",
"U  c #262448",
"Y  c #33294D",
"T  c #233C43",
"R  c #253845",
"E  c #2E3653",
"W  c #35365A",
"Q  c #3A3D64",
"!  c #46375B",
"~  c #264547",
"^  c #2B4D42",
"/  c #2B4E4B",
"(  c #2D5142",
")  c #2C524C",
"_  c #2D5848",
"`  c #325746",
"'  c #30564A",
"]  c #304D53",
"[  c #2E5453",
"{  c #2D5A56",
"}  c #325756",
"|  c #315B54",
" . c #325D5A",
".. c #386755",
"X. c #386C55",
"o. c #34635D",
"O. c #36685D",
"+. c #374D66",
"@. c #376A63",
"#. c #366966",
"$. c #3A6C63",
"%. c #3B7166",
"&. c #3E7966",
"*. c #37736E",
"=. c #3C756B",
"-. c #3E7A6D",
";. c #3B7A76",
":. c #464D5C",
">. c #44705C",
",. c #52516D",
"<. c #427465",
"1. c #417C6E",
"2. c #546972",
"3. c #427E71",
"4. c #4D7974",
"5. c #478022",
"6. c #498423",
"7. c #4C8924",
"8. c #3D8275",
"9. c #43836E",
"0. c #438373",
"q. c #498677",
"w. c #468C7A",
"e. c #4B8C7B",
"r. c #528678",
"t. c #4A937D",
"y. c #4B987D",
"u. c #58937D",
"i. c #3B7C85",
"p. c #576486",
"a. c #676888",
"s. c #707795",
"d. c #807994",
"f. c #3D828A",
"g. c #428983",
"h. c #4B9581",
"j. c #4E9C84",
"k. c #4A998A",
"l. c #5A9782",
"z. c #509F85",
"x. c #408591",
"c. c #489A93",
"v. c #4FA288",
"b. c #51A186",
"n. c #52A48A",
"m. c #54AA8E",
"M. c #5AAC8E",
"N. c #54B18D",
"B. c #4CA497",
"V. c #4CA299",
"C. c #55AD92",
"Z. c #57AE97",
"A. c #57B293",
"S. c #59B494",
"D. c #57B897",
"F. c #5BBB96",
"G. c #56B39C",
"H. c #5CBD9A",
"J. c #68AF92",
"K. c #68BB99",
"L. c #77BA9A",
"P. c #74BC9D",
"I. c #51AFA8",
"U. c #57B9A4",
"Y. c #57BCAB",
"T. c #59BEAC",
"R. c #4DABBA",
"E. c #5EC29B",
"W. c #5FC99E",
"Q. c #61C59C",
"!. c #68C49D",
"~. c #62C99F",
"^. c #5DC4AD",
"/. c #59C1B2",
"(. c #5EC9B4",
"). c #59C4B9",
"_. c #5ECBBB",
"`. c #64CDA1",
"'. c #69CDA3",
"]. c #78C6A4",
"[. c #65D2A4",
"{. c #6AD3A5",
"}. c #67D9A8",
"|. c #6BDBAA",
" X c #74D4AA",
".X c #7BDBAD",
"XX c #70D7B4",
"oX c #6DE1AE",
"OX c #77E7B3",
"+X c #72EEB6",
"@X c #52B5C5",
"#X c #5BC9C0",
"$X c #61D3C6",
"%X c #63DAD8",
"&X c #5DD3E3",
"*X c #61DAE7",
"=X c #67E6E9",
"-X c #67E8F3",
";X c #878A9C",
":X c #9393A9",
">X c #9DA7BE",
",X c #82D3AC",
"<X c #88E5B7",
"1X c #8DE9BA",
"2X c #97E5BB",
"3X c #94EDBE",
"4X c #82F1BB",
"5X c #95F0BF",
"6X c #9BF1BF",
"7X c #A5ECBE",
"8X c #A3F3BF",
"9X c #AEF6BF",
"0X c #B6F7BF",
"qX c #C2FBBF",
"wX c #D5FFBF",
"eX c #AAB2C6",
"rX c #9CEBC2",
"tX c #9BF3C2",
"yX c #98F7C5",
"uX c #A3ECC3",
"iX c #A0F6C4",
"pX c #A5F7C7",
"aX c #A3FBCB",
"sX c #B7FBC6",
"dX c #A8FCD1",
"fX c #B8FDD3",
"gX c #C2FEC7",
"hX c #CCFEC2",
"jX c #D5FFC3",
"kX c #C5FED2",
/* pixels */
"3 7 S 9 0 S 0 S S 9 9 S D 0 D D S S S S 8 9 S D D S S S S 8 9 S S S S S 9 D S 9 8 9 0 9 0 0 0 0 S 9 9 0 0 D D 0 0 D D 0 0 0 0 D D S S S S 8 S S S S S S S D 8 6 ",
"8 9 S S S S 0 0 S 9 0 D H D D 0 S D S S 9 S S S S S S S S D D D D D S S S D D D D 0 0 S S D 0 0 0 0 S D J 0 D 0 0 0 0 0 0 0 D 0 S S S 9 S S D D D D S 9 S J S 9 ",
"D D S D 6.J S S 0 S D 5.J D D S S D S F S D J D S S F 9 S J 7.7.6.6.S S S D 6.7.7.6.H J 5.D S 0 D 0 D 5.J D C 0 D 0 0 0 0 0 5.0 S S F S S 6.7.7.6.6.S 9 D J D S ",
"S D 6.7.6.J H H D S S 5.6.7.7.7.7.D S S D J 7.6.D 5.6.D 6.J 6.6.6.6.J D D 6.6.6.5.5.6.7.6.5.D S D 0 D 5.7.7.7.7.7.6.0 0 5.6.7.7.6.5.D 6.D D 6.6.6.6.D D H J D S ",
"9 D J 6.6.6.6.J 5.J J 5.7.7.6.6.7.6.J 6.7.7.7.7.7.7.7.7.6.J J J J J 6.6.D J 6.6.5.5.5.5.6.7.5.5.6.D C 7.7.7.7.6.6.6.5.5.7.7.7.7.7.6.7.7.7.J D D D 6.6.6.J J D S ",
"S S S S 6.7.7.6.6.6.5.6.7.7.5.J J 7.7.7.7.7.7.7.7.7.7.7.6.J J D S S 6.7.6.J 6.6.7.J 0 C 5.7.7.7.6.6.6.6.7.7.5.D 5.7.7.7.7.7.7.7.7.7.7.7.6.D D K S S 6.7.6.J S D ",
"9 S S D J J J J J H H H H J 6.6.6.6.J D J J J 6.6.7.7.7.6.J D H 9 S J 7.6.H D D 5.H C J J J J J 0 C J C 0 D 6.7.6.6.J D H 5.5.6.7.7.7.7.6.D J J 9 S D 7.7.J S 8 ",
"9 9 S D J S H H C 0 0 0 0 0 J 6.7.J J J H D H S D 7.7.7.7.J J 6.H H 6.7.7.S S S J H H 5.J C 0 C 0 0 0 0 7 6 7 N C H J D J 0 D 0 J 6.7.7.6.6.J 6.D D 6.6.7.H 8 8 ",
"9 0 0 5.J 0 0 0 0 C 0 C 0 0 0 C 6.J 6.7.7.J D S D 7.7.7.7.7.7.7.6.6.6.7.6.0 C J J H D 5.J 0 0 0 0 0 9 7 2 > > q a 8 5.7.7.J C C J 6.7.7.7.7.7.7.6.6.7.7.6.S 9 9 ",
"9 0 D D J H 0 0 0 0 0 0 C J C 6.7.J 7.7.7.6.J 6.6.7.7.7.6.6.6.6.J S S 6.6.5.6.7.J H 0 J H D 0 0 9 H 8 p k ~ / ^ c a J 7.7.7.5.5.6.7.7.6.6.6.6.6.H S J J 6.6.D S ",
"9 0 D 5.6.5.0 0 H H J J J 5.7.7.7.6.7.7.7.7.6.7.7.7.7.7.J J 6.6.H 8 9 J 7.6.6.7.6.H D 5.7.5.J 0 9 N M b ..<.3.=...b m C 5.6.5.7.7.7.7.6.J J 6.7.S 8 9 J 6.6.D D ",
"D 0 H 7.7.7.5.H 5.7.7.7.6.6.7.7.7.J 7.7.J J 7.J J 7.7.J D J 7.7.H 9 S 6.7.S J 7.7.5.0 7.7.7.J 0 8 6 A >.l.L.].M.0.X.b a 7 C 6.5.6.7.7.5.D J 7.7.H 9 S 6.7.S S S ",
"0 0 0 5.7.7.7.5.C C 6.7.5.5.7.5.J 7.7.7.6.7.7.6.7.7.7.7.6.6.7.7.J S J 5.5.0 0 H D 0 0 0 5.7.7.C 4 r ' u.].3X1XXXN.8._ r a C 7.6.6.7.7.7.6.7.7.7.6.J 6.7.6.J D S ",
"9 0 D 5.6.7.7.6.H C 5.7.5.J 7.J D 7.J J 7.7.7.J J 7.7.7.7.7.6.J N 7 m 7 7 7 7 7 6 6 6 6 8 J 7.0 4 = } l.,XyXyXOXH.h.o.T u C 7.6.6.6.6.7.7.7.7.7.7.7.7.7.6.6.H S ",
"0 D 5.7.7.7.6.6.7.5.J 6.5.5.5.7.6.J S S J 6.7.H S J 6.6.6.7.5.8 2 > = q X q q q X X > = w m J 5.N > / l.].OX4X|.D.g.o.l u C 7.C S J 6.6.6.7.7.J J J 5.J J 6.D D ",
"0 D 7.5.6.7.6.7.7.7.6.5.6.6.6.7.6.D S F H J H S S D H H 0 S C d c ) | ' ) ' ' _ ' ' ' | _ d m 0 m k [ e.H.'.{.D.y.-.) h w 9 5.0 S J J J J J 6.6.6.6.6.6.7.6.6.D ",
"0 D 6.0 5.7.6.6.7.6.6.H 5.5.7.7.6.H C H 0 0 J H H C 8 5 4 5 5 b <.e.l.e.q.q.r.r.r.q.q.q.%._ p a a ` &.v.D.D.A.t.%.| c w 6 0 C C H 5.J H H 5.5.7.7.7.7.6.6.7.6.D ",
"D D D 0 0 5.J 5.6.H 0 C 0 H 6.6.7.7.5.J 5.6.7.7.6.C u X = . e >.l.P.].].P.P.P.L.L.].P.F.y.X.z r c &.y.E.H.A.j.=._ i a N C 5.7.7.6.6.7.7.7.7.7.7.7.7.7.J H 6.J D ",
"0 D 6.D 0 D H J J D 0 J 0 0 5.7.7.7.6.5.J J 6.7.K M v ' / / ..u.,XrXuXuX2X3X2X6XrX3X1X<XQ.y.X.| >.y.~.~.C.t.=.[ z u 9 C 5.5.7.7.7.7.7.7.5.5.6.7.5.J 5.J S H S D ",
"0 D 7.5.5.J J H H D J 5.H 0 5.7.7.6.6.7.J J J 0 M v >.r.h.e.l.,X7XkXkXkXfXsXdXdXdXdXyX5XOXF.y.w.v.Q.[.E.w.#.[ ~ h a C 7.C C 5.7.7.6.7.6.D J 6.6.D 0 J 5.J S S D ",
"D J 5.7.7.7.6.5.5.D 0 0 0 H 7.6.6.J 6.7.7.7.H 4 k ..l.P..X].].2X9XhXjXjXgXsXiXyXiXyXyXyX1X XK.N.E.~.~.y.%.( T ~ l u C 7.7.7.7.7.5.6.6.6.7.7.7.7.7.7.7.7.6.J D D ",
"S D 6.6.7.6.6.7.7.5.J J J 5.7.7.6.H J 6.5.C m k ..l.].2XuXuX7X0XqXwXjXjXgX9X6X5X5X6X6XpX6X<X X`.`.[.E.y.O.) ~ ~ l u C 7.5.C C 5.6.5.5.5.6.6.6.6.6.6.6.6.7.6.D D ",
"0 D 7.6.5.6.6.6.7.7.7.7.7.7.7.7.6.H H H 8 a c ..l.].rXdXfXfXkXjXjXwXjXgX0X8X6X5X5X5X8XpXyX5X<X|.}.[.W.n.0.$.| ~ h 4 9 C m 4 4 C 7.J J H 0 D J J D D S 6.7.J D D ",
"S D J 5.7.7.5.J 5.6.7.7.7.7.6.5.J J C 7 2 k >.l.].1XyXtXsXgXjXjXwXwXqX9X6X6X5X5X5X6X6XpX6X<X.X[.W.W.W.E.F.y.-.) h a 9 9 u r r C H 0 D J H D H C 0 S J 6.6.6.J S ",
"S D 5.6.7.5.D 5.D 5.J D 6.7.6.5.J 6.S 6 . z 4.L.rXdXyXtX9X0XwXwXwX0XsX6X3X3XyX3X6X6X6X6X3X,X X~.E.Q.`.|.{.Q.j.O.z u 6 m b _ ` Z m 7 0 S D S C C 0 0 5.5.5.5.D 0 ",
"0 D 6.7.D 0 D D 6.5.H 0 J 7.5.5.6.7.6.8 = ^ r.,XrXfXaXtX8X0X0X0X0X9X8X3X1X3X5X5XiXtX5X1X<X|.'.~.Q.Q.`.|.|.[.S.w.| i r a X.w.w.X.b 4 7 8 0 0 0 C 0 D 6.5.5.6.D 0 ",
"S D 6.6.D 9 0 D 7.7.7.6.6.6.J 6.7.7.6.8 2 l q.].rXdXyXtX6X6X8X8X8X8X6X5X3X5X5X6X8X6X1XOX{.~.~.Q.~.~.~.{.{.[.K.v.8._ l _ 9.M.M.9._ w 4 8 9 0 H J D J 5.5.6.6.5.D ",
"S D 6.5.5.D 0 5.7.7.7.6.7.6.5.7.7.J H m r ..r.P.2XyXaXaXpXpXyXyXtX6XrX6X6XtXtX6X6X1X<X X[.~.[.[.[.~.~.~.Q.E.H.C.y.%.o.%.b.N.n.9._ w 7 0 H 5.5.6.6.6.5.5.5.7.5.D ",
"S D 6.7.7.7.6.6.7.5.J H 6.7.7.7.J N a c ..9.M.!..XtXyXaXdXdXaXyXtXyX6X6XiXiXtX6X<XOX X}.}.}.}.|.|.[.~.Q.H.A.A.C.n.h.w.w.b.y.9...b 7 0 5.7.7.7.7.7.7.7.5.D 5.J 0 ",
"0 S 5.7.6.D 6.6.5.5.J D 5.7.7.6.9 w x o.w.N.~.~.'..X1X6XpXyX6X8X5X6X6X6XtXiX6X1X.X[.~.~.~.`.`.[.[.'.~.F.C.m.n.n.n.C.v.t.0.O.( a m 5.6.7.7.7.6.7.7.6.5.5.6.D 0 8 ",
"9 S 6.7.5.D 5.6.6.5.H H J 6.6.D 7 q ( =.b.~.oX|.[.~.P.L.L.].,X,X1X5X5X1X1X1X1X<XoX[.E.v.y.y.y.m.S.Q.Q.F.C.z.z.k.n.C.h.9...z w 7 0 7.7.7.5.5.5.7.7.5.D 7.7.D 0 0 ",
"S 5.7.7.6.5.D 5.7.5.C H D D D 0 7 q ( -.b.[.+X+X}.m.9. .] :.4.J..X4X4XOX X.X.X.X+X[.N.8._ T ~ O.e.M.H.Q.C.z.n.n.v.h.8...c w 6 J 7.5.7.7.7.D D 6.6.7.7.7.7.5.5.D ",
"0 D 6.6.5.D 5.5.5.5.D 0 5.6.J D 8 w ^ =.b.W.oXoXQ.e.} < # & R ;.M.[.|.{.~.`.[.[.|.Q.y.o.; # + < } q.n.S.C.n.C.n.k.0.o.l u N D 6.5.H 6.7.7.J J 6.7.7.6.D D 7.6.D ",
"0 S 5.5.5.5.7.6.J 7.6.D 5.7.7.5.N w z %.b.W.[.E.y.r.,.W * % @ R -.v.E.E.~.[.~.F.F.b.r.2.:.Y * % < } 3.h.v.n.A.m.h.=./ , 6 H 7.5.C D 5.7.7.6.5.6.7.6.6.0 0 7.5.0 ",
"0 S J J 6.7.7.7.7.7.7.7.D H 7.5.8 w z =.n.E.N.8.>.2.;X;Xa.Y % @ T @.t.D.[.}.~.m.8.O.2.;X;Xd.! I @ ; ] 1.h.m.D.C.h.=./ , 5 0 J 0 D 5.J 6.7.6.6.7.6.5.5.5.7.7.0 9 ",
"0 0 D 0 J 6.5.7.7.7.7.5.D 5.6.6.N w c &.N.F.y./ R ,.>XeX>X,.I O @ T %.N.}.+X[.y.) < ! :XeX>X2.Y O + ; ] 0.m.H.C.h.-.[ h a 0 5.C J 6.J D 5.J 5.7.7.6.5.5.7.7.0 8 ",
"0 0 0 0 J J J 5.7.7.6.0 J 6.6.6.N w z -.S.F.w.: * ! ;XeX>Xp.W O   $ | n.oX+XoXy.: % Y d.eXeXs.Q % o # T 1.M.H.A.h.-.[ h a C 5.J 5.6.5.D H J J 6.7.6.5.6.7.6.0 9 ",
"D 0 0 S 0 0 J 6.6.7.6.5.J 5.6.D 7 q ( -.D.K.y.T # * ,.s.s.p.Q %   $ | b.oX+X}.y.~ # % :.a.s.p.Q * o O T -.m.H.A.h.-.| h a C 6.6.5.7.7.7.6.6.6.J D C 7.7.7.6.5.D ",
"0 D D J 5.J J 5.5.5.5.5.6.J 5.D 8 q z -.M.F.z. .< % I W Q :.W I & 1 O.M.oX+X[.y. .; % I E Q +.Q U & ; [ 0.m.F.M.h.-.) h u C 6.7.6.6.7.6.6.6.7.6.0 0 7.6.0 5.0 0 ",
"0 D 5.6.6.7.6.J 5.H J 6.6.6.J J C w ^ %.z.S.m.3.] & + + % I E E ] $.y.E.[.|.Q.n.;.[ - % O % I Y E E { *.t.m.G.m.y.-.[ h 4 9 5.7.7.5.6.6.J 6.6.6.5.D 6.D 0 0 5.0 ",
"8 0 6.5.5.6.6.6.6.J 5.6.7.6.7.5.N w ^ #.w.m.C.n.1.~ & O o + < ] 3.n.Q.~.`.`.A.n.z.3.] ; @   o & E o.3.j.b.m.C.n.t.1.) h u 9 6.7.7.7.7.7.6.D J 6.6.6.6.J 6.7.D 9 ",
"0 0 J J 5.5.D D J H J 6.5.5.5.D 7 w z @.0.v.A.D.z.=.] & O # R $.m.'.|.[.H.A.m.n.Z.n.;.] - O # ; } 3.z.C.m.n.A.C.k.-.[ h u 7 5.5.D D D D D 6.6.6.6.6.J S D 7.D S ",
"D D 0 D 5.J 0 0 S D J J J J D 0 7 w z o.1.h.A.H.A.t.$./ : R } w.H.|.|.~.C.n.z.m.H.F.b.-.[ R R / %.h.A.D.m.m.G.G.B.3.{ , 2 8 J D S F S S S 6.6.7.7.6.D S S D D D ",
"0 D 6.7.7.6.H 0 H S H 5.6.7.7.5.N r z o.3.z.C.A.m.k.e.1.&.=.0.j.A.H.K.C.m.n.n.n.Z.C.m.t.0.=.=.3.g.z.n.m.v.C.U.T.G.g.{ 1 u 0 6.6.6.J J 6.6.J 6.6.6.6.J D D 6.D S ",
"0 H 5.6.6.7.5.5.J J J J 7.7.7.J N w ^ #.w.m.G.C.n.n.n.n.n.n.b.j.h.h.j.v.C.n.n.n.j.h.h.b.n.n.n.n.n.n.n.z.b.C.^._.I.c.{ h 5 H 7.7.7.7.7.7.6.J J J J J 6.J D 6.D S ",
"0 0 0 C 5.7.7.7.6.6.6.6.7.7.J D 8 q ^ %.k.U.^.G.m.n.C.D.H.F.m.w.-.%.0.j.C.D.C.j.3.=.-.h.A.H.F.A.C.m.b.h.y.C.(._.).c.o., u S 7.7.7.7.7.6.6.J D H S S 6.7.6.D D D ",
"0 0 C J 5.5.J J D S S K H J 6.J 9 q ^ *.B.T.(.G.m.k.n.C.A.A.j.-.| [ =.h.Z.H.C.t.$.|  .0.b.D.C.m.n.n.n.z.j.C.(.#X).c.o., 2 8 5.6.6.7.7.6.6.J H J S S J 7.7.D S 8 ",
"9 0 0 5.J 0 C 0 S 9 S S S S J J S u ( #.g.I.T.Z.n.z.j.n.C.C.k.=.| [ O.8.j.z.h.3. .[ o.-.j.C.m.n.n.b.b.b.n.C.U.Y.V.;.| e 5 8 D D J 7.7.7.6.6.J J D D 6.7.6.S 8 7 ",
"9 0 S D J 0 0 0 0 C 0 C 0 0 0 D J f n } <.g.k.k.b.n.b.n.n.C.j.q.=.O.O.O.@.O.@.@.o.$.-.e.z.m.n.n.b.z.b.C.N.G.B.k.;.O.` g N H H 0 J 6.7.7.7.7.7.7.6.6.7.7.6.S F 9 ",
"9 9 D D D D S 9 9 0 C 0 H H H 5.J H A v '  .*.w.z.m.m.n.n.n.n.n.h.w.@.[ ~ ~ / | %.w.k.z.n.n.n.n.b.z.m.G./.Y.f.*.) ( n V J J J 6.7.7.7.7.7.J 6.7.J H J J 6.6.D D ",
"0 0 D 5.6.6.S S H J J H J 5.5.5.J K G s 1 ~ o.w.C.D.C.z.z.n.m.C.C.j.9. .~ ~ ~ @.0.b.A.C.n.z.n.z.b.b.Z._.$X#Xf. .1 j B K K J 5.6.7.7.7.6.J J 6.6.S 8 F D 7.J D D ",
"D S S 7.7.7.J D 6.6.7.7.6.5.J J H F G n 1 l $.k.Y.^.G.z.j.z.n.C.C.v.w.-.o.o.$.1.y.m.A.C.n.z.j.j.b.n.T.%X-X&XR.{ 1 e g K C C H C J 7.7.6.S J 7.7.S S S 6.7.D S S ",
"9 0 D 5.7.7.7.5.H H 6.7.5.H K V G G G s 1 ^ #.c.T.(.G.n.j.n.n.n.n.n.j.j.t.t.t.h.j.n.m.n.v.v.j.v.C.G._.=X-X&XR. .1 y f G P G K H J 7.7.7.6.6.7.7.D 6.6.7.7.J S S ",
"9 0 D D 6.7.7.6.H C 5.7.5.H C B g G B s y ( @.g.V.Y.U.G.C.n.z.z.v.n.n.n.m.m.m.m.n.v.b.j.b.b.n.C.^.#X%X=X&X@Xf. .j s f L P P G C J 6.7.7.7.7.7.6.6.7.7.7.6.6.D S ",
"0 D 5.7.7.7.6.6.7.J J 6.6.H N V L L s s s v ` o.8.V.T.^.U.C.j.y.j.b.n.n.m.m.m.b.b.z.j.j.j.v.n.U.$X=X=X&XR.i.o.` n g d d n P G N S J 6.6.6.7.6.6.D J J J J 6.J D ",
"0 D 7.5.6.7.7.6.7.7.6.5.6.J C P L B s d g g x l  .;.V./.^.G.n.n.n.n.n.m.n.m.m.m.n.n.n.b.v.Z.U.#X*X-X&XR.;.] z n L g f s g n M 8 9 H J J J 6.6.6.6.6.6.6.7.7.J D ",
"0 J 7.H J 7.6.6.7.7.6.H J J H G g n g f M f y t l  .f.B.Y.U.G.H.D.G.U.G.G.G.G.G.G.G.G.Z.G./.$X%X*X&X@Xi.] , t f F G f f n s M N H J J J J J 6.7.7.7.7.7.7.7.5.D ",
"D D H 0 S J J 6.5.H 0 0 0 C C A L L L g G G G g s x o.;.B.Y.(._._.(.(._.(.(.(.(.(.(.(.^.(.%X=X-X&XR.i.] x t f G G G L g n L G K 6.6.6.6.7.6.7.7.7.7.7.D D 6.5.D ",
"0 D J H S S D J J H H J 0 N N G L B L g f G G G A v z | ;.B.T._.(.T.T.).T.).T.T./.Y.Y.^.(.$X=X&XR.i.' x t s M G G G B B g g F D 6.7.7.7.6.6.6.6.5.D 5.D 0 D D D ",
"0 D 7.6.J H J H H H J 6.C N H H G G G L g g M F G g t l o.g.V.I.V.V.V.c.V.c.V.V.V.c.V.c.V.R.#X@Xx.} j t t M G G L B L B B N F J 6.7.7.6.H J 6.6.D S 5.5.D 9 0 D ",
"D J 5.7.7.6.6.5.5.H 0 0 9 H 6.J F G B L L P G V M B f s ` O.-.;.;.=.*.=.*.;.*.*.=.*.*.%.;.;.i.3.@.( y t p g G G L n g G F J 6.J J 6.6.6.7.7.7.7.7.7.7.7.7.5.D D ",
"D D 6.7.7.6.6.7.7.6.J J J 5.7.6.H M M L A B B A B L B g x ( / / / / / / / / / / / ) ) / / / ] ` x n g L f G L G g g G G K D J 6.6.6.6.5.6.6.6.6.6.6.6.7.7.6.D D ",
"0 D 6.6.5.6.6.6.7.7.7.7.7.7.7.7.6.S N M g g n L P M V B s e , 1 , 1 1 e j 1 j j 1 j j j 1 1 , , y G F K G L L L L f f S S S H 7.7.J D D S S D D D D S 6.7.5.5.D ",
"S D 5.5.7.7.5.5.J 6.7.7.7.7.6.5.J H 9 m f g n L A f g g g s y y y y x s s s s s v s s s s d s y d B L G G L L L g M N 9 S J 6.7.6.S D D D D S S S S D 5.5.5.D 0 ",
"S D 5.6.6.5.J D 5.5.D 5.6.7.6.5.D 5.H 0 V V B A V d f g g s g s s f B B g g g L B g g L g g g g g B g g G G L M V C C H J 6.6.7.5.0 C C 5.C C 0 0 0 5.5.5.5.D 0 ",
"0 D 6.7.D S D 5.5.5.0 0 5.7.5.5.7.7.6.5.J C C K N m d n s g f g d B B G M L G G G G G G G f B G P g g p N F N F C 5.6.6.7.7.7.7.7.C 0 C 0 0 0 C 0 0 6.6.5.5.D 0 ",
"0 D 7.5.D 0 9 D 7.7.7.6.7.6.D 6.7.7.7.7.7.5.J 5.J H M d n g g g B g A B P P P G L G L B g s d g P L L G K J D J 5.7.7.7.7.7.6.6.7.6.C C 0 0 C 5.5.D 5.5.5.7.5.D ",
"S D 6.6.J H S J 7.7.6.6.6.6.6.7.7.7.7.7.6.5.5.6.6.K G M g B M G V V V B G M G G G G M G G f f L L G G H J 6.J 6.7.6.7.7.6.5.5.6.7.7.5.C 0 5.5.7.5.7.5.5.5.7.5.0 ",
"0 5.6.7.7.7.6.7.6.6.5.5.5.7.7.7.7.5.6.6.6.C 0 6.6.6.K H F H K H K H K C N N C C 9 F F K S K H H H F N 9 J 6.7.7.7.6.5.6.6.H D 6.7.7.7.7.7.7.7.7.7.7.7.5.5.5.D 0 ",
"0 0 5.7.6.J 6.6.6.5.0 0 5.7.7.7.5.J J C 7.7.7.H J 7.6.6.6.J J 5.5.J H J J C C 0 S S J 6.D S D 6.H H H S 6.7.7.7.5.J H J 6.7.6.H C 7.7.7.7.7.7.7.7.6.5.5.5.D 0 8 ",
"9 D 6.7.5.S 5.6.6.5.5.0 5.6.7.5.J 5.J J 7.7.6.J J 7.7.7.6.6.5.6.6.5.J 7.7.H D 5.J J 6.7.D D D 6.6.J J S J 6.6.6.J 5.J J 7.7.6.J 5.7.7.7.7.6.5.6.6.5.D 7.7.D 0 9 ",
"D D 7.7.6.5.D 5.7.5.0 5.0 0 0 0 J 6.7.7.6.C 0 6.6.5.7.7.7.J J 6.6.7.7.7.7.6.7.7.7.7.7.7.6.5.D 6.7.J S S D D D D J 6.7.7.6.0 0 6.7.5.7.7.7.5.0 5.6.7.7.7.7.6.5.D ",
"0 D 6.6.5.5.5.5.5.5.D 0 5.6.5.5.6.6.5.J 5.5.6.6.5.J 6.7.7.J J 6.7.7.6.5.D 6.7.7.6.6.6.6.6.D 5.6.6.6.J H 5.6.J J 5.6.5.D 5.5.6.6.5.J 6.7.7.5.D 6.7.7.6.0 5.6.5.5.",
"0 S 5.5.5.5.6.6.5.6.6.D 5.7.6.6.6.6.J S J 7.7.J H H 5.7.7.6.5.7.6.6.5.0 0 7.7.6.5.J 5.5.J 6.6.6.J 6.6.J 5.7.7.6.6.7.J D 5.6.7.J 0 J 5.7.7.6.6.7.7.6.6.0 0 7.5.0 ",
"0 S D D 5.7.7.7.7.7.7.7.D D 7.6.6.6.6.6.6.6.J 0 H 6.5.6.7.7.6.7.6.5.5.5.6.7.5.5.5.J D J 6.7.7.7.7.7.6.7.H J 7.6.5.7.7.5.5.5.J 0 0 5.5.5.7.7.6.7.5.5.5.5.6.7.0 9 ",
"0 0 D D 5.6.6.6.7.7.6.5.D 5.7.7.7.7.6.6.6.6.J S J 6.J H 5.D J 7.7.6.5.6.7.7.D 0 6.J D S J 6.6.6.7.7.6.6.J J 7.7.7.7.6.6.7.6.J D 5.7.5.0 5.D D 7.7.7.5.5.7.7.0 8 ",
"0 0 0 0 D 5.D 5.7.7.5.D 5.5.6.7.6.6.5.5.7.7.5.J 6.6.6.D S D 5.6.6.6.6.6.7.6.5.H 6.J S 0 D J J 5.7.7.6.D J 6.6.6.6.6.5.5.7.7.5.D 5.6.5.D 0 D 5.6.7.7.5.6.7.7.0 9 ",
"D 0 0 0 0 0 5.6.7.7.5.5.5.5.5.5.S D H J 7.7.6.6.5.7.7.6.5.6.7.J D D 6.7.7.6.6.7.6.D 0 S 0 S J 6.6.6.6.D J 6.6.J C D D J 7.7.6.6.5.7.7.6.5.7.6.5.0 0 7.7.7.5.5.0 ",
"9 9 9 D 0 0 D 0 0 0 D D D D D 0 S S D D D D 5.D D D D 6.J J J H 9 9 D D 0 0 D 5.J S 0 S S S S D D S S D S S S S 0 0 D D J J J 5.D 5.5.5.D 5.5.D 0 0 D 0 0 0 0 9 ",
"7 8 9 0 D D 0 0 9 9 9 0 0 9 9 0 D S D S 9 9 S D D 0 0 0 0 0 S D 8 9 0 9 7 9 9 S 0 9 0 0 S S 0 9 9 9 9 9 S S 9 S D D D D 9 9 0 0 0 0 0 0 0 0 0 D 0 8 0 9 8 8 8 7 "
};
