/* XPM */
static char *Group_10_10__resized[] = {
/* columns rows colors chars-per-pixel */
"80 80 211 2 ",
"   c #16093E",
".  c #26392D",
"X  c #242D3F",
"o  c #2A3C39",
"O  c #315717",
"+  c #37631B",
"@  c #39661C",
"#  c #3D6D1D",
"$  c #3F711F",
"%  c #2D472E",
"&  c #2E4A2E",
"*  c #314E2D",
"=  c #355B25",
"-  c #355826",
";  c #33522B",
":  c #375A2A",
">  c #395C2B",
",  c #2D4335",
"<  c #2F4A31",
"1  c #2E453B",
"2  c #314E31",
"3  c #344D3C",
"4  c #375433",
"5  c #395635",
"6  c #3B5D33",
"7  c #36523C",
"8  c #39563C",
"9  c #3B5B3B",
"0  c #376023",
"q  c #3A6325",
"w  c #3D6B22",
"e  c #3C632C",
"r  c #3E6A2A",
"t  c #3F7221",
"y  c #3E6232",
"u  c #41751F",
"i  c #43781F",
"p  c #406F25",
"a  c #40672E",
"s  c #416C2B",
"d  c #417521",
"f  c #457C21",
"g  c #427129",
"h  c #416930",
"j  c #1D1446",
"k  c #1F194D",
"l  c #221C4D",
"z  c #2A3743",
"x  c #262557",
"c  c #2A2F51",
"v  c #2C2C5D",
"b  c #2D3558",
"n  c #2B2D63",
"m  c #2D3163",
"M  c #2E376B",
"N  c #303366",
"B  c #313669",
"V  c #343A6D",
"C  c #343E71",
"Z  c #2F4241",
"A  c #324543",
"S  c #354C46",
"D  c #384E44",
"F  c #34464A",
"G  c #364C4A",
"H  c #384E49",
"J  c #365243",
"K  c #3A5746",
"L  c #364957",
"P  c #384E55",
"I  c #374A5C",
"U  c #3C5458",
"Y  c #354263",
"T  c #394C65",
"R  c #36436C",
"E  c #3A4C6B",
"W  c #3C5166",
"Q  c #3D526B",
"!  c #384376",
"~  c #3B4B71",
"^  c #3A4579",
"/  c #3E5173",
"(  c #3F527A",
")  c #405E58",
"_  c #40576F",
"`  c #425977",
"'  c #41557A",
"]  c #445C79",
"[  c #46607F",
"{  c #478022",
"}  c #498423",
"|  c #4C8A24",
" . c #3C4581",
".. c #3F4E84",
"X. c #425484",
"o. c #445A84",
"O. c #43558B",
"+. c #455A8B",
"@. c #555F87",
"#. c #455790",
"$. c #465992",
"%. c #495E94",
"&. c #4A5E9A",
"*. c #4B6A82",
"=. c #4A628E",
"-. c #4F7283",
";. c #4B6296",
":. c #4D6B95",
">. c #4D649C",
",. c #4E689A",
"<. c #5D6E93",
"1. c #516B9F",
"2. c #567196",
"3. c #4F64A3",
"4. c #516BA3",
"5. c #5168A7",
"6. c #5672AB",
"7. c #5879AC",
"8. c #5976B2",
"9. c #5A7AB4",
"0. c #5D7EBB",
"q. c #5D81AD",
"w. c #5F81BC",
"e. c #618BB4",
"r. c #6082BF",
"t. c #648CBC",
"y. c #6691B5",
"u. c #6B94B6",
"i. c #6895BA",
"p. c #6B9CB9",
"a. c #799CBB",
"s. c #5F80C0",
"d. c #6285C2",
"f. c #648AC5",
"g. c #668ACA",
"h. c #688CCA",
"j. c #6C9DC3",
"k. c #6A94CB",
"l. c #6D9ACD",
"z. c #688FD0",
"x. c #6C95D3",
"c. c #6E9AD5",
"v. c #6F9AD9",
"b. c #709DD5",
"n. c #719DDB",
"m. c #73A7C9",
"M. c #75A6D7",
"N. c #74A1DE",
"B. c #7DBADB",
"V. c #749FE0",
"C. c #76A4E2",
"Z. c #78A7E5",
"A. c #77A9E4",
"S. c #78AAE6",
"D. c #7AACE9",
"F. c #7CB3E4",
"G. c #7DB1EC",
"H. c #7FB6F1",
"J. c #7FB8F1",
"K. c #98BBCB",
"L. c #80BEDC",
"P. c #81BCE9",
"I. c #80B6F2",
"U. c #82BBF5",
"Y. c #83BDFA",
"T. c #85C2DC",
"R. c #9AC5D7",
"E. c #83C3E4",
"W. c #87C9E4",
"Q. c #88CAE3",
"!. c #84C4E8",
"~. c #98CEE2",
"^. c #8DD4EA",
"/. c #94DCEE",
"(. c #85C1F2",
"). c #8BCDF6",
"_. c #87C3FD",
"`. c #88C6FF",
"'. c #8ACAFE",
"]. c #8CD9F3",
"[. c #8ED1FE",
"{. c #91D6F5",
"}. c #93DCF3",
"|. c #90D4FF",
" X c #93DBFE",
".X c #A9D6E3",
"XX c #95E1F5",
"oX c #9BE6F6",
"OX c #9EEBF7",
"+X c #96E2FE",
"@X c #98E5FE",
"#X c #97E9FF",
"$X c #9BEBFE",
"%X c #9EF1FE",
"&X c #A7EDF9",
"*X c #A1EEFD",
"=X c #BAEEF5",
"-X c #A2F3FE",
";X c #ABF5FD",
":X c #A4F9FF",
">X c #AAFCFF",
",X c #B2F5FE",
"<X c #BDF3FA",
"1X c #B3FBFD",
"2X c #BCFBFF",
"3X c #CCF5F7",
"4X c #C4FCFF",
"5X c #CBFCFD",
"6X c #D4FFFF",
"7X c #DAFEFE",
"8X c #E4FDFE",
/* pixels */
"O + u # $ u $ u u # # u i u i u $ $ i $ $ $ $ { i $ i i $ # # $ $ u i $ $ f i # + # u # # u $ $ u # # u i $ i $ $ i i u # # $ i i u i i # # u # u u d u u i # O ",
"+ # u u u i $ $ u # u i i i u $ $ $ i $ $ $ i t $ $ $ $ $ d d f { i $ # $ i { f d u $ u u u $ $ u $ $ i f d i $ $ i $ $ $ $ i i u # u # p i i i i i u $ u i u # ",
"i i u i } i u p u u i f f f f u t f t $ $ i { $ $ $ $ $ d { | | | { $ $ $ f } | | f u f { f $ $ $ u i { f d f d $ f $ $ $ d f d u $ # p u i | | } { u # u i i u ",
"u i } | | i u i i u i { } | | | } } $ $ i } | } { { } } { { { | } } } i i { } { } } } | } } u u i u i { } | | | | { t $ f } | } } i } } } } } } } } } i u } i u ",
"p u i } | | } f { i f } | | | } } } { } | | | | | | | | } { f { f f } } f { { } } { { { } | } { } i f } | | | } | } } } | | | | | } | | | f f f f f | f f f i p ",
"u u u i i | | | } } } } | } { f { | | | | | | | } | | | { f d f $ t } | } f { | } f u d { | | | } | } } | | f f } } | | | | | | | | | | } f f d $ u } | | f d i ",
"# u u i } f f f f d d d d f } } } } { i d { { } | | | } } i d d $ # f | | f i d f i $ f { f { f i f d d u f } } } } { t d { } } | | | | } d i f # u f | | f # @ ",
"# # u i i i u u $ $ $ t $ $ f } | { f f d d d i f | | | | { { { i f } | | d $ u { d u { f $ $ $ $ $ $ $ $ $ f } } } f i f d f $ f } | | | } f } f i } | | d # + ",
"$ $ i { { $ $ $ $ $ $ $ $ $ $ f { { } | | i d $ d } | | | | | | } } } | } $ $ f f d d { f $ $ $ $ $ $ $ $ $ $ f } f } | | { $ $ d } | | | | | | } } | | } # # # ",
"# $ $ i i t $ $ $ d $ $ d f t { } } | | | | f { | | | | } } } } f d d } | { } | f d i i f d $ $ $ $ $ $ t t t { } } | | | } { } | | | | } } } } f d d { | } f u ",
"$ $ i } } } t $ u f f d f } } | | } | | | } } | | | | | f { } } t # $ f | } } | } d i { } } d d $ { $ { } } } | | } } | } } } | | | | } f f } } d # # f | } i i ",
"i $ t | | | f f { | | | } } | | | { } | i { | { } | | { t { | | d # $ } | d f } | { u | | | f d } } | | } } | | } } | | { { } { } | | } u } | | d # $ } | u u u ",
"$ $ $ { | | | { $ f } | { { | { f | | | } | | } } | | | } } | | } { } | | f f } { f t { | | | f $ t } | { f | { { } | } } | | } } | | | } | | | { f } | | f u $ ",
"# $ i { } | | } $ $ f | { f | f i | { f | | | } } | } | | | | { d d f f d d d d w w # # d d f t @ # { | { f | f f } } { } | | } } | | | | | | } } | | | } f d u ",
"$ i } } | | } } | { f | { { { | | } d $ f } | f d f } } } | t 0 4 < & & * * ; ; ; & ; ; ; ; & & ; 0 t } { { } | } } $ $ { | | f d d } } | | | { f f { { } } f i ",
"$ { } } } | } | | | } { } } } | | d $ # d f f $ t d { f { t r J I T I I I I I I I I L I I I T T P 5 t { } { } | | $ $ $ $ t { $ d f f f f f } } } { } } } | { i ",
"$ i } i i } } } | | { f f } } | | d i u u d d d f f { d t 0 J Q $.3.$.#.#.#.#.#.$.$.&.&.&.;.6.4.=.) e q 0 w d } | d i d $ i d d d { f f d f } | | | | | } | } i ",
"i i u u i } f } } d $ $ $ d } | | | } i { { | | } } } f q 7 W :.s.g.s.0.0.8.8.8.0.d.g.k.z.x.N.M.j.-.G . . , - f | | { f f } | | | } } | | | | | | | | i d } f i ",
"u i } u u d d f f d d f $ $ { | | | } } f f } | | | { r 7 / ,.d.v.Z.V.v.v.v.v.v.n.S.I.(.(.(.{.XX^.p.*.T R W K y d | | { i { } | | | | } { } | } { i { i u d i i ",
"$ i | { f f f i d d f } u $ { | | } | } f f { } | { w 8 W 4.h.N.D.D.Z.D.G.H.G.H.U.'.|.+X+X+X$X:X%X!.j.7.w.q.*.K e d } } f d { | | | | } i f } } i $ { { f u u u ",
"i f } | | | } } } u $ $ $ d | } { } } | | | | { d w 3 T ;.f.n.N.V.C.n.Z.G.Y.Y.Y.Y.'.+X$X@X#X#X%X#X].E.B.!.L.y.[ S = i | | | | { { } } | | | | | | | | | } f f i ",
"u f } } | | } } } } f f f { | | } d f | } } f i q 7 Q >.d.n.A.N.V.n.n.D.U._.'.'.'. X@X$X*X$X*X*X%X%XoX&X-XoXB.e.*.S 0 d } } f { } } { { } } } } | } } | | } i i ",
"$ i | } } } } } | | | | | | | | } u i { d d # w 9 W >.g.n.D.A.N.n.N.D.I._.'.[. X X+X$X-X;X,X,X,X;X1X2X1X1X;X+XE.t.] J - # u i | | { { d $ d { f i i u } | } i i ",
"i i f } } | } f } } | | | | | { f i d d u $ 0 3 E ,.f.n.Z.C.N.v.N.D.I._._.'.[. X@X#X@X*X,X4X5X4X2X4X4X4X;X-X#X#XW.y.` Z ; # } | } t $ f f f t f $ u f } } } i $ ",
"u i } } } { f f f f f f } | } f f } f i p q 5 T ;.f.n.C.N.N.v.N.A.I._.`.`.'.[. X$X#X#X*X,X2X5X6X6X7X7X5X2X;X-X:XoXL.q.] K e f } { $ $ d f d $ t $ $ { { { { i $ ",
"$ i | | { $ d { } { d t f | { } } | } f w 7 W ,.d.V.Z.C.N.n.N.S.U._.`.'.`.`.[.+X$X%X#X$X*X,X4X6X7X8X8X7X5X4X1X>X:X#XE.i.*.K : g f d t $ $ $ $ $ $ $ } { { { { $ ",
"u f } f u # $ i | | | } } } { } | | f r 7 _ 4.d.n.Z.C.V.n.N.S.J._.'.`._.`.`.[.+X$X$X$X#X@X$X,X<X3X3X3X5X5X5X2X;X%X%XoXW.i.] Z 0 f } i $ $ $ d i i { { { { } { $ ",
"u f } } { f $ i | | | } | } { } | { r K E >.g.n.Z.Z.C.n.N.S.J._.'.'.'._._.'.[. X$X$X$X#X$X#X/.R.K.K.K..X=X4X2X;X%X:X:XXXm.O.z : d | { i $ { } } } } | { { } { $ ",
"u i | | | | } | | } f d } | | | f q J Q :.d.V.V.C.C.N.C.D.J._._.'.'.`._._.`.'.+X$X$X$X%X%XOXT.u.<.@.<.a.~.;X1X;X:X:X:XXXl.' X - f | | } } | | | | | | } { { i $ ",
"# u } | } f } | } { f i { | | | t & T >.d.n.D.C.n.n.n.A.J._.'.'.'.`.`._._.`.|. X$X$X$X%X%XOXB.q.' n N +.i.T.oX-X%X:X%X}.M.:.L ; w } | | | } | | | } i } } $ $ # ",
"$ i } | } i { } } { d i { } } i q , ~ 6.h.Z.I.C.n.v.n.S.U.'.[.'.`.`.`._._.`.|.+X$X%X$X%X%X%XW.j.:.M x n ..y.E. X@X:X:XXXW.p.[ U 6 t } } | } } | } } { } } { $ $ ",
"u i | | } i i } | { t d i i d i w < E 3.f.n.D.C.n.v.n.S.J.`.'.'.`.`.`._._.`.[.+X$X%X$X$X$X%XOX].M.1.C x m +.t.F.{.-X%X#XOXT.p.2.U * u | | i i } } | | | | } { $ ",
"$ i } } { f { } { { { $ { } { i p * T >.s.V.S.C.n.n.n.A.I._.'.'.`.`.`._._.`.[.|.@X$X$X$X$X$X:X-X/.u.~ k j x +.0.A.[.@X-X;X&XT.y.( o w } | f f } | | } f { } } { ",
"$ i { { { { } } i | } i { | | { p 2 T >.d.n.S.C.n.b.N.S.I._.'.`.`.`.`._._.'.'.[. X@X@X$X$X$X>X>XOXm.X.k   k B O.0.M.[.$X;X;X].l.o.o 0 f | } } } | } { t $ | { $ ",
"$ $ f f } | | | | | | | i i | } p * E >.s.n.D.C.n.b.n.S.I._.'.`.`.`.`.`._.`._.`.'. X@X$X$X$X:X:X}.m.+.v x x v M X.w.F. X;X*XQ.t.] , 0 { | } } | | i { { | | $ # ",
"$ $ i $ f } } } | | | } i i | | g * T >.s.n.Z.C.n.n.n.C.H.).'.'.`.`.`.`.`.`._._.'.'. X@X@X$X:X%XXXL.e.o.V x k k n O.9.M.{.}.E.t./ , = t { f { | | | { { | | $ @ ",
"$ $ $ $ $ { { } | | } $ f } } | d * T >.0.n.D.C.n.n.n.C.I.).'.'.`.`.`.`.`.`._._._.`.'. X+X$X:X$X$X}.T.y.;.B k k x M ..7.F.).J.t.] , 0 $ f t { } | | { } | | $ # ",
"i u $ u $ $ i } | | } } f { } i q % T >.d.n.D.V.n.c.n.S.I._.'._.`.`.`.`.`.`.`._.`._.`.'.|.+X$X$X$X:XOXQ.i.=.V R ^ C ! ;.c.J.G.r.( , t } } } } { u i | | | } { $ ",
"u i i i { { { { { { { { { { { f w < T &.d.n.D.N.n.n.N.A.I._.'.'.`.`.`.`.`.`.`.`.`._._.'.[. X@X$X$X>X:XOXB.p.7.7.9.6.6.w.F._.J.d.( < q { } } } } $ i } } i i i f ",
"$ i } } } | { { i i i } } { { { g 2 T >.0.n.D.C.n.b.n.A.I._.'.'.`.`.`.`.`.`.`.`._._._._.'.'.|.@X$X:X:X$X/.T.B.B.F.N.N.F.).'.G.d.( , q f { } } } i i } f $ i $ $ ",
"+ $ | } f } } } } f f | } | | { d & T >.r.n.Z.C.n.v.n.N.I._.'.'.`.`.`.`.`.`.`.`.`._.`._._._.'.|.@X$X$X$X-X-XXX).J.G.G.J._.F.l.8./ , t } { { { } } | | i i | i # ",
"# u f f f } f i f f f } { { { f q & T >.r.n.Z.C.n.v.n.I.I.).'.`.`.`.`.`.`.`.`.`.`.`.`._._._.'.[.|. X@X$X:X-X}.F.c.f.f.k.k.f.7.>.~ 1 0 t t { } } } | f i i | } u ",
"i i u i f f u # i u i { f d f $ q % T 3.d.n.D.C.n.b.n.N.I.'.'.'.`.`.`.`.`.`.`.`.`.`.`._._._.'.'.'.'.{.{.oX{.F.w.=.....=.$.$.....R 1 - w t { } | | i u # u } i i ",
"$ i } | | } u u d u u { } | | | t < T 3.g.C.D.C.n.v.n.I.I.I._.'.'.'.`.`.`.`.`._.`.`.`.`.`._.'.'._.G.N.l.M.l.8.X.m l x v v M C ..~ S r f } } } } | | } u u } i p ",
"$ i f { } | } } { i f { | | } } p 2 E 5.g.C.D.C.n.v.n.n.n.I.U.Y.'.'.`._.`.`.`.`.`.`.`.`.`.`.'.'.U.b.7.>.3.,...N l j l l l x m  .~ G r } | f f f i f | } f f i u ",
"$ u d d f | | | | } } } | | f f w * T >.s.n.D.C.n.c.n.n.n.n.I.I.`.'.'.`._.`.`.`.`.`.`.`.`.`.[.[.U.k.,.! ! ^ C V v v v v b m B ! T J g } } f f i # u } | | f i u ",
"# $ u f f f f f f d d d d f } } d > H ' ,.0.v.C.C.I.n.n.c.n.C.I.U.`.'.'.'._.`.`.`.`.`.`.`.`.'.[.U.c.7.%.%.,.,.<.:.;.;.+...V v L D e d } } f i i u p f | | i u @ ",
"# # d { f u u u t $ $ t $ d f } f w 9 P ' >.0.x.n.I.C.n.c.n.n.n.D.U._.'.'.'.`.`.`.`._.`.`.`.'.'._.F.M.k.k.l.l.b.b.l.h.9.>.^ c , > d } | | f i } u d } | | u @ + ",
"# # u i f u # $ $ $ u $ $ $ # d f f h 9 F _ &.0.x.I.I.h.n.n.n.n.v.I.I.I.[.Y.'.'.`.`.'.Y.'.Y.'.'.'.'.'.'._.)._.).'.Y.Z.h.6.' z ; p } | | | | | | } | | | } $ # # ",
"# u i i i u u # # d $ $ d f d { f f s y 2 ) ' @.0.v.v.I.C.n.n.c.v.x.I.I.Y.'.'.'.'.'.'.'.'.'.'.'.'.[.|.[.'._._.[.'.I.x.8.=.) 4 d } | | } } } } } i i i } } } i u ",
"u u i } | } u u d f f d f { } | | p s a > 5 ) Y &.s.x.I.I.n.n.n.v.n.I.I.Y.'.Y.Y.'.`.'.'.'.`.Y.Y.'.[.[.'.Y.H.G.U.I.k.6.o._ K s f | | | | i i } } u @ # f | } i i ",
"u u u | | | f f } } | | } } | | f d p s q > 4 A _ @.0.h.n.C.C.n.I.v.z.L.I.U.I.I.Y.Y.Y.U.Y.Y.I.I.U._._.U.G.C.n.x.r.,.' z 2 a g d f | | } u } | | d # u } | i u u ",
"# u i } | | | f i d } | } f | { f f f d s a 6 4 z _ &.0.x.I.I.Z.n.I.z.v.x.I.I.I.P.I.I.I.I.I.I.V.G.H.J.U.H.D.x.s.>._ P 5 5 a g d } | | | } | | | } f | | | d i p ",
"@ u i i } | | } $ t f | { f } { f | f u p s a e , ) ' @.0.x.I.Z.v.n.z.I.I.x.x.I.I.c.n.x.v.I.z.L.C.C.C.Z.D.V.d.4.' P 3 > a s g d i | | | | | | | | | | | } } d u ",
"u i } } | | } } | { f | } f } | | f u p u p s q - 4 F Y &.0.g.0.g.h.I.x.v.I.v.x.V.x.n.L.x.n.I.v.N.x.d.0.d.s.4.' L 3 ; > a p d p p i } | | | | i f f f f f } f i ",
"# i | } | | } } | | } { } } } | f u u u p p p q > ; 4 ) _ $.&.$.3.0.h.I.I.v.I.I.V.I.V.v.I.n.n.I.n.d.4.$.&.%.' U 5 4 ; - + p u u u f f f i f } | } f } | | | f i ",
"$ f } i f | } } | | } f f } | | | i d f i u p e q e y 5 ) b _ V ' <.g.n.V.n.x.n.x.v.v.v.x.v.I.x.h.6.X.R B _ ) ) y e > q p u i d d f f f d f i | | } | | | | { i ",
"i f d $ $ { f } { d $ $ $ d { | | | f f f f f f p s a y 5 ) z A ) ' 4.9.s.9.8.9.8.8.8.9.9.9.0.0.8.X.) o z o , y a s p p u i | | } } | | | | | | | | | i i { { u ",
"u i f d d d d f f d d f t $ { | | | | f f f | | f f s a 4 4 > > 3 )  .@.#.O.O.O.' @.X.@.O.O.#.#.' _ D > ; 2 > y s p f f f f f | | | | | f } | | { i { i $ i i i ",
"$ f | } f f f d d d { { u $ f | | f | | f f f | f f p a q > s p 5 3 b Y V I B I Y Y N b Y Y Y Y L A 6 a q > a a s d f | f f f | | | | } f f } } i i { { i $ u i ",
"i f { | | | } { } d u $ $ i | } f | | | | | | f f f f g s a s s a 6 ) H H S S H ) A D ) A ) A ) ) 4 4 > > > s s p f } | | | | | f | } | | | | | | | | | | i i i ",
"u f } | | } } | | } f f f { | | f f f | | f | f | f f g p e a a a > - 6 a 6 6 a y y y 6 > 6 > a > > e > y h p f f i f | | f f f } } f } } } } | | } } | | { { i ",
"u f | } { { } | | | | | | | | | f f f f f d i | | f f f + 0 0 q q q p p g d g g g d d d p p p g g g p p s g d } } i i f f u f | | f f d d d f f i i u } | } i i ",
"u i i { | | { f { } | | | | } { f i i d d i | | f p i f u p p + p p d i f f f f f f d f f f f d f f f f f f f f f i i p u i | | } u i f f d u u u u i } } } i $ ",
"u i { } } } f f f { f d } | } f f } f d f { | | { $ $ d i t $ # # # f f f f f f } } f } { { f d f f f t { } { f f { f d f } | | } $ u d d d u $ $ $ } { { { i $ ",
"u i | | f $ d f { { d d { | } } } | } } | | } | } d $ $ $ $ $ $ $ u } } f } } } f } | | f $ t { { { d t { | } } } | } } | | } | } d $ $ $ $ t $ $ $ } } { { i $ ",
"u f } { i # $ d | | } } } } { } | | | | | | } | | } d $ $ $ d f f f f } } } | } } } } f i # $ d | | | } | } f } | | | | | | } | | } d $ $ $ f i i { { { { } { i ",
"u i | { f i u { | | | | | } } } | | | | | { f } | | { f d f { } } } } f } | | | } } } } { f $ i | | | } } } { | | | | | | { f } | | { d i f } } { | } { { } { i ",
"$ i | | | | | } | { f d { | | | | } } } } f $ } } | | | | | | | | | | } f f } } } } } | | | | | | } f i { | | | | { } } } d u } } | | | | | | | | | | { { { i $ ",
"$ $ { | } f } | } } f d } | | } } { d f } | } f { | | | | | | | | } f } } f i i f f } | } f } | { } f d { | | | { { i f } | } f { | | | | | | | | { { { { i $ # ",
"$ i } | { i { } } { f i f } | { f f f f | | } f { } | | | } { | | } f } | f f f } f } | } d { } } { f u { } | { { { { i | | i f { } | | | } { } | { { } | i $ # ",
"$ { | | } { i { | { $ i i d i i f } | | { $ $ } } } | | | i i } } | | | | } | | | | | | } f i { | f $ i i d d d i { | | } u u | | { | | | f i } | } | | | } { $ ",
"$ i } | { f { } { } i u { } f i { } } i { { } | { f } | | { f } | } } i i | | | } } } } } f i } } { f $ { } f f { } { i } } } } { f } | | { i } | | } i { } } { ",
"$ i i { { { } } f } } d } | | } } | f u { } | { i t { | | } } } | | { u i | | | } f f } f } | } f | | d { | | } } | f i f } | i t f { | | { } | | } } $ $ | { $ ",
"$ u i { } | | | | | | | i d | } } | | { { { f $ f { { } | | } | } { { { } | { f f f f f } | | | | | | | f i | } { | | { } } f u i { { } | | } | } { { { | | $ # ",
"$ $ i u f | } } | | | } f f | | | | } { | } { $ { } i i } t { | | | i { | | i i } f u u f } } } | | } { i f | | | | } } } } f u f } f i { f f | | } { { | | $ + ",
"$ $ $ $ i i { { | | } i i } | | } } { } | | } i { } { f $ i { } | | { } | | f f } f u u d f f } | | } i i } | | | { f } | | { f { | f f d d { } | | } } | | $ # ",
"i $ $ i i $ i { } | } { i { } f u d i i | | } } } | | } } } } { u i | | | } } | | i # u d u f } } | } { i { } { d d i f | | } } } } | | { | } { $ i | | } } { $ ",
"# $ $ $ i $ i i i $ i i i i i i u u i d $ { f { f f } { f } { $ $ # f f $ $ f f f u $ u d u u u i $ $ i i i i i i u i f f f f { f f { { i { f f $ # i i $ $ $ # ",
"+ @ # $ $ i $ $ # @ # $ i $ # $ f u f i # $ $ f t $ $ $ $ $ $ i # @ $ # + @ # u u # # u u u u # # # $ $ $ $ $ $ d i i d # # $ d i $ $ $ $ $ u d # @ u # @ @ @ + "
};
