/* XPM */
static char *Group_10_resized[] = {
/* columns rows colors chars-per-pixel */
"80 80 239 2 ",
"   c #0D0A07",
".  c #1E1E17",
"X  c #161718",
"o  c #231C1B",
"O  c #261C1D",
"+  c #391E1F",
"@  c #1B2B0E",
"#  c #1D2615",
"$  c #1F3213",
"%  c #213C0F",
"&  c #232E16",
"*  c #23241B",
"=  c #272419",
"-  c #252C19",
";  c #2C2C1C",
":  c #362C1C",
">  c #243315",
",  c #263B15",
"<  c #293917",
"1  c #2A3C19",
"2  c #383A1A",
"3  c #281C23",
"4  c #341F21",
"5  c #2D2323",
"6  c #2B232A",
"7  c #2A2528",
"8  c #332525",
"9  c #382927",
"0  c #332728",
"q  c #35292C",
"w  c #3C2C2D",
"e  c #373729",
"r  c #332931",
"t  c #3D2D31",
"y  c #4C1E10",
"u  c #4D3112",
"i  c #43361B",
"p  c #4B2C26",
"a  c #412E2D",
"s  c #492F2A",
"d  c #4A3621",
"f  c #42312F",
"g  c #48332F",
"h  c #573628",
"j  c #423131",
"k  c #4D3531",
"l  c #463839",
"z  c #4C3C3C",
"x  c #533A34",
"c  c #693B2A",
"v  c #733E2F",
"b  c #2B4217",
"n  c #2C4C16",
"m  c #2C4119",
"M  c #2E4C19",
"N  c #34431B",
"B  c #36491B",
"V  c #2F5216",
"C  c #305817",
"Z  c #33541A",
"A  c #365C1B",
"S  c #395C1C",
"D  c #37631B",
"F  c #39641C",
"G  c #3D6D1D",
"H  c #3F711F",
"J  c #384629",
"K  c #3F7320",
"L  c #47491E",
"P  c #42581C",
"I  c #46661C",
"U  c #426B1D",
"Y  c #536A1D",
"T  c #41751F",
"R  c #4C731D",
"E  c #43781F",
"W  c #54761D",
"Q  c #51791E",
"!  c #676B17",
"~  c #66741E",
"^  c #73741B",
"/  c #424923",
"(  c #554425",
")  c #52562E",
"_  c #594333",
"`  c #54423C",
"'  c #5D453B",
"]  c #5C4B3C",
"[  c #69472D",
"{  c #77482E",
"}  c #745628",
"|  c #674736",
" . c #734C32",
".. c #794832",
"X. c #68573C",
"o. c #7B5A39",
"O. c #417620",
"+. c #4C7620",
"@. c #457C21",
"#. c #4B7D21",
"$. c #497829",
"%. c #547520",
"&. c #547B23",
"*. c #5C7823",
"=. c #50743A",
"-. c #6A7724",
";. c #647B22",
":. c #6B7B23",
">. c #747B22",
",. c #797A23",
"<. c #6A6A3E",
"1. c #706333",
"2. c #513F40",
"3. c #5A4744",
"4. c #5B4A4B",
"5. c #5A5141",
"6. c #614D48",
"7. c #69544C",
"8. c #6E594E",
"9. c #695653",
"0. c #745F53",
"q. c #4D6640",
"w. c #556C47",
"e. c #5C7647",
"r. c #77664C",
"t. c #746D49",
"y. c #657649",
"u. c #7B704B",
"i. c #786357",
"p. c #786860",
"a. c #82771B",
"s. c #834E2D",
"d. c #854A34",
"f. c #924E36",
"g. c #865734",
"h. c #975934",
"j. c #AE5A3A",
"k. c #9C662B",
"l. c #887C24",
"z. c #8A6939",
"x. c #9A6737",
"c. c #B6722F",
"v. c #A06B37",
"b. c #A97537",
"n. c #B17732",
"m. c #B47B36",
"M. c #C07036",
"N. c #886844",
"B. c #847B4B",
"V. c #9A7646",
"C. c #846D5A",
"Z. c #877C55",
"A. c #836F63",
"S. c #897567",
"D. c #967F64",
"F. c #478022",
"G. c #498423",
"H. c #4C8A24",
"J. c #4E842A",
"K. c #4F8829",
"L. c #528423",
"P. c #568529",
"I. c #578436",
"U. c #678427",
"Y. c #788628",
"T. c #788D3B",
"R. c #739135",
"E. c #878927",
"W. c #978B28",
"Q. c #8D9028",
"!. c #9B922B",
"~. c #8F8F35",
"^. c #989B38",
"/. c #A48D26",
"(. c #AE9426",
"). c #BA9A2B",
"_. c #AB8136",
"`. c #B3853C",
"'. c #A69B37",
"]. c #A0A536",
"[. c #B1A83F",
"{. c #C69C2C",
"}. c #C78836",
"|. c #D48E35",
" X c #CA983D",
".X c #D99536",
"XX c #E59933",
"oX c #CAA72E",
"OX c #C8AB37",
"+X c #DAAA32",
"@X c #C9B837",
"#X c #D8B638",
"$X c #E7AA33",
"%X c #F0AE35",
"&X c #F3B836",
"*X c #E3C035",
"=X c #FCCB3D",
"-X c #968D51",
";X c #97895C",
":X c #A8844B",
">X c #B08F4A",
",X c #BE9244",
"<X c #B0AD4B",
"1X c #9A9264",
"2X c #A19963",
"3X c #B5B168",
"4X c #C79845",
"5X c #C69C51",
"6X c #D3AD4E",
"7X c #E4B950",
"8X c #C4BC71",
"9X c #C0C74E",
"0X c #DEC744",
"qX c #DCC658",
"wX c #F6C944",
"eX c #FBDB45",
"rX c #EFCE54",
"tX c #F9CA57",
"yX c #FBE557",
"uX c #CACC79",
"iX c #D6D474",
"pX c #E5D879",
"aX c #F1D872",
"sX c #FDE76E",
"dX c #FFE478",
"fX c #FEF179",
"gX c #CDC885",
"hX c #FDE98C",
"jX c #FCF18D",
"kX c #E6E496",
"lX c #F6F193",
"zX c #FFFCAD",
"xX c #EEEDB0",
"cX c #F9F9B8",
"vX c #FFFFC6",
"bX c #FFFFD8",
"nX c #FFFFE7",
"mX c #FFFFF6",
"MX c white",
/* pixels */
"V D T G H H H H T G G T E T E H H O.O.T G G H @.E H E E K G G H H O.O.H H @.O.G D G H G G H H T T G G T O.O.O.E H E E T G G H @.O.T @.T H G G G H T O.H H E G A ",
"F G T T O.O.H H H H H E O.E E H K O.E H H H O.O.E H H H K K O.@.@.@.O.K K @.G.@.O.O.T T T T H H H H T E O.O.E H H H H H G H T E K K H G H O.@.@.@.O.T H H @.T G ",
"E E T E F.@.H H H E E F.F.O.@.O.O.O.K G H E @.K K K H G K G.H.H.G.@.T $.=.J.K.K.H.G.O.@.F.@.H H H E E F.@.@.O.O.O.O.K H H O.@.O.K K K G O.@.H.H.H.@.T H H @.E E ",
"T E G.H.G.F.O.T E E E F.G.H.H.H.G.F.K K @.G.H.G.F.F.F.G.G.#.G.G.H.G.G.~.<X~.P.F.@.G.G.H.G.G.T T E H E F.G.H.H.H.H.F.O.H @.G.H.G.F.@.G.G.G.G.G.G.G.G.G.E E G.E H ",
"G E F.G.G.H.G.F.F.@.@.F.H.H.H.H.G.G.G.F.H.H.H.H.H.H.H.H.G.@.@.@.@.E W E.W.:.&.G.F.F.G.F.H.H.F.F.G.E @.G.H.H.H.G.G.H.F.G.H.H.H.H.G.H.H.H.H.@.@.#.@.@.G.G.@.F.O.H ",
"T T T T F.H.H.H.G.G.F.G.H.G.@.@.F.H.H.H.H.H.H.H.H.H.H.H.F.@.O.O.U Y ! ! ! S O.H.G.@.H O.F.H.H.H.H.G.F.G.H.H.F.@.F.H.H.H.H.H.H.H.H.H.H.H.G.@.O.O.G O.G.H.G.@.O.O.",
"G H H E @.@.@.@.@.O.O.O.O.@.G.G.H.G.F.O.O.F.F.F.G.H.H.H.G.@.H O.Y l.{.Q.R O.O.O.@.@.O.@.@.@.F.@.O.O.O.@.O.@.F.G.H.G.@.O.O.F.G.G.G.H.H.G.G.O.O.@.G G #.H.H.@.K F ",
"G U T F.@.T T O.K K K K H H @.G.G.G.@.@.O.O.O.E @.G.H.G.G.F.@.Q E.{.&X!.O.O.G O.@.O.T @.@.T K H H H H K H H @.G.G.F.F.O.@.O.O.O.G.G.H.H.H.G.@.G.@.@.G.H.G.O.G D ",
"G H T F.@.H H K H K K H K H H O.G.@.G.H.H.@.T H E G.G.G.Q H.L.;.OX=X+XE.E G T @.@.O.O.#.@.H H H H H H H K K K O.F.F.G.H.H.F.K H O.H.H.H.H.H.H.H.H.G.H.H.G.H G G ",
"G H E @.@.O.H H H H H H O.@.O.F.G.F.H.H.H.G.@.G.H.H.F.U.Q.;.T ;.@XeX+XE.E #.G.H.@.O.E @.@.O.H H H K H H K @.K G.H.F.H.H.H.G.F.G.G.H.H.H.G.G.G.G.O.K O.G.G.G.O.E ",
"G H O.F.G.F.K K O.@.@.O.@.F.G.H.H.G.H.H.H.G.G.H.H.H.#.E.{.>.U &.9XyX$X!.W G.G.G.G.@.T F.H.F.O.O.O.@.@.O.F.F.G.H.H.F.H.H.H.G.G.H.H.H.H.G.@.@.G.G.K G G @.H.G.@.E ",
"E T O.H.H.H.@.O.G.G.H.H.G.G.H.H.H.F.H.H.@.F.H.F.F.H.E Q.+XE.E I.uXfX=XoXW.Y T H.H.@.T H.H.H.@.O.F.H.H.H.G.G.H.H.H.F.G.H.@.F.G.F.G.H.H.G.O.G.H.H.O.G H G.H.O.T T ",
"H H T F.H.H.H.F.O.O.G.H.F.F.H.F.@.G.H.G.G.H.H.G.G.H.F.Q.$XW.;.T.uXjXsXrXOX-.R F.@.O.O.F.G.H.H.F.H O.G.H.F.@.H.F.@.G.G.H.G.H.H.F.G.H.H.H.G.G.H.H.G.G.G.H.H.@.T H ",
"G H E E G.H.H.G.O.K @.H.F.@.G.F.@.G.G.@.H.H.H.G.G.G.E Y.oX).].<XpXjXjXsX0X,.W F.@.@.@.@.G.H.H.F.H T F.H.F.@.H.@.@.H.F.@.H.H.H.F.G.H.H.H.H.H.H.G.G.H.H.G.G.F.O.H ",
"T E G.H.H.H.G.G.H.F.@.G.G.@.G.H.H.G.O.H @.G.H.E E @.F.~ W.#XeXeXyXsXhXdX7X>.W H.G.G.G.G.H.H.G.G.H.F.@.H.F.F.G.H.H.G.K H @.H.H.O.O.@.G.G.H.H.H.G.@.O.G.@.@.G.@.O.",
"H E H.F.H.H.G.G.H.H.G.G.G.G.G.H.G.@.T G O.@.@.T T E E E W !.7XeXeXrXtXtX#X>.Q H.G.G.G.G.H.H.G.H.H.H.G.F.G.G.G.H.H.O.H K K @.F.K O.O.@.@.@.@.G.G.G.G.G.G.H.H.F.E ",
"T E G.@.@.H.G.G.G.H.G.O.@.G.G.H.H.@.O.O.O.O.O.O.O.+.&.Q O.~ W.#XwXwX&X$X).:.Q H.F.G.G.O.@.H.G.G.H.H.G.O.E F.H.H.H.E E E T E E E O.G.@.O.O.G.G.H.H.H.H.G.H.H.@.E ",
"E E O.H T @.@.G.G.O.K K K O.G.H.H.G.G.@.@.G.H.G.#.W W.E.L.G.U.E.#X=X&X/.~ G.G.H.G.G.@.H O.@.@.G.F.O.H K H T G.H.H.G.G.E E G.H.H.G.H.G.H.H.H.H.H.H.H.H.@.O.G.F.E ",
"T E G.T T O.O.@.@.O.O.@.K K @.H.H.H.H.G.@.@.G.@.W :.E.,.O.@.&.:.+X&X(.:.U O.G.H.G.G.@.O.H T R +.O.O.O.@.T H F.H.H.H.G.G.@.@.G.H.H.H.H.G.G.G.G.H.F.E F.@.O.O.E E ",
"G @.G.G.@.@.@.@.O.O.@.G.O.K G.G.H.G.H.G.#.@.#.W >.l.^ W T @.Q ~ ).oX;.+.O.H E H.G.G.G.@.+.*.Y.U.O.K @.G.T T F.G.H.G.H.G.@.@.#.H.H.H.H.G.O.O.G.G.E H @.F.@.H T E ",
"O.@.G.H.H.H.G.G.@.O.O.K G O.H.G.F.F.G.H.K.H.P./.).W.U.G.H.H.L.W ,.Y.L.H.G.E G.H.H.G.F.@.U.].@X].G.O.T U H E H.H.F.F.G.H.H.H.H.F.G.G.G.G.H.H.H.H.H.H.H.H.G.@.E E ",
"T @.G.G.H.G.G.G.H.G.@.@.O.G.H.H.G.O.F.H.K.R.].#XoX~.P.F.G.G.#.+.%.&.G.H.H.F.G.H.G.G.H.;.].0X*X].G.@.F.E E F.H.H.G.@.F.H.G.G.F.G.G.G.@.G.G.G.G.G.H.G.G.H.H.G.E E ",
"T E H.G.G.G.G.G.H.H.H.H.H.H.H.H.G.K @.F.J.^.7X=X@XQ.L.O.K O.@.@.O.T E G.H.G.G.H.F.G.L.,.@XyXqX<XU.L.H.H.H.H.H.H.G.T O.F.O.T T H.H.F.@.@.K O.@.@.E E O.G.H.#.O.E ",
"T E @.G.G.H.G.@.F.H.H.H.H.H.H.@.@.@.@.K $.^.rXeX@XY.&.O.@.O.@.O.O.O.@.#.F.F.G.F.H.G.Q a.[.sXlXpX<XR.F.H.H.H.H.F.@.@.O.O.O.E G.H.G.K O.O.@.@.@.K H O.@.G.G.G.@.H ",
"T E G.G.G.G.@.@.@.G.@.O.G.H.G.@.@.G.@.K $.R.[.*X+XQ.*.H O.K K K G O.@.G.@.G.@.G.G.G.#.~ '.iXhXaX<XU.O.O.G.H.G.F.@.F.@.O.@.G.G.H.F.H H E E E H K H H G.F.F.F.E H ",
"H @.H.G.@.H O.F.G.@.O.K G.G.G.G.J.H.G.H.K.H.U.(.)./.&.H H H K K G O.G.G.G.@.G.G.F.G.G.@.>.'.qX<XU.+.H K F.G.G.F.G.H.G.G.H.H.H.H.H.E H H H H H H H E F.F.F.F.F.H ",
"T @.G.G.E G H E H.H.H.G.H.G.@.G.H.H.H.H.H.H.G.~ ^ >.+.H H H O.E @.@.@.G.G.G.G.H.G.G.J.@.+.*.,.Y.L.L.G.G.G.G.F.G.H.H.H.H.H.H.H.H.G.G.E H H H O.@.E F.F.F.F.G.F.H ",
"T @.G.F.F.E H E H.H.H.G.G.G.G.H.H.H.H.H.G.G.E T R &.#.O.E @.G.G.G.G.G.@.@.G.G.F.F.F.@.O.H G I R H.H.G.G.H.G.F.H.H.H.H.H.G.#.@.G.H.H.F.E O.@.G.G.G.G.G.F.F.G.G.H ",
"H E H.H.H.H.H.H.H.G.@.O.G.H.H.H.H.G.G.G.G.@.K G.G.H.H.H.H.H.H.H.H.H.H.G.@.O.F F F G F G U O.+.#.H.G.E E F.G.H.H.H.G.G.G.G.O.O.G.G.H.H.G.H.H.H.H.H.H.H.G.F.F.H H ",
"H T F.H.G.E G.H.G.G.@.O.G.H.H.H.G.F.@.K G.H.G.O.@.H.H.H.H.G.G.H.H.G.E G.@.C 1 - > > < & ; 2 / I E G.#.E G.H.H.H.F.G.K @.G.H.H.O.G.H.H.H.H.G.H.H.H.G.F.F.G.H H H ",
"G E G.H.F.E F.G.G.G.O.O.@.G.H.F.O.G.@.@.H.H.G.@.F.G.H.H.H.G.F.H.H.E A F F 1 ; 5 3 . . : d [ h / A A D G @.G.G.G.@.F.@.@.H.H.F.@.F.G.H.H.H.G.G.H.G.G.E G.G.F.H H ",
"T F.H.H.G.E E G.H.@.K O.O.O.O.O.@.G.H.H.F.K H G.H.F.H.H.H.O.O.G.G.F , > & ; f l j q w z._.b.| e > # $ C H E H H E G.H.H.F.O.H G.G.G.H.H.H.E E G.G.H.H.H.H.G.F.H ",
"H E G.G.G.@.F.G.F.G.@.H @.G.G.@.F.G.#.@.@.F.G.G.G.O.G.H.H.@.@.#.I 2 * # 7 f z ` 2.' N.`.4X:X8.l 9 0 ; 1 A T @.F.F.G.G.@.@.F.G.G.G.@.G.H.H.F.@.G.H.H.G.@.F.H.F.F.",
"H H F.G.F.F.G.G.F.G.G.O.G.H.G.G.G.H.@.O.F.H.H.@.O.O.G.G.H.G.@.I / d w r j z z ` 3.N.,X4X:XC.8.4.` 5.z e B F @.G.G.G.@.O.#.H.H.@.O.O.G.G.H.G.F.G.H.H.F.H H H.F.H ",
"H E F.E F.H.H.H.H.H.H.H.O.@.H.G.F.H.G.G.G.G.@.O.O.F.#.G.H.F.F N h c | | 3.t z ` g.m.4XV.r.4.7.0.i.C.i.5.9 , F E G.H.H.G.G.G.@.T O.G.G.G.H.G.G.H.G.F.@.F.H.H.H G ",
"H H H H F.G.G.G.H.H.H.F.@.@.H.H.H.H.G.G.G.G.@.O.@.G.@.@.@.A 1 = p { h.g.3.2.` g.n.4XV.r.7.4.9.i.S.S.S.0.x e N S E H.G.G.G.G.@.T @.G.O.@.F.@.F.H.H.G.F.G.H.H.H D ",
"H H H H K F.F.F.H.H.G.E @.G.G.H.G.G.F.F.H.H.G.O.G.G.@.T A < . 3 9 { h.x.o.| o.b.|.b.8.6.6.8.0.0.A.S.S.A.p.6.( P U O.@.@.H.H.F.@.G.G.@.O.O.O.@.G.H.G.G.G.G.H.H G ",
"E H H T H H F.F.G.G.G.G.@.F.G.@.O.O.O.@.H.H.G.G.G.G.G.F < = 3 0 w k [ x.m.}.}.|.|.v.6.6.7.9.9.0.0.A.S.A.S.V.`.} 2 C G @.H.H.G.G.G.G.H.H.G.G.H.@.H E H.H.G.G.F.H ",
"E T E E F.F.F.@.F.G.F.F.G.@.@.G.F.@.F.G.G.G.G.G.G.G.F.A # o 0 w t a j  .v.}.XXXX|.v.| 2.4.6.6.2.6.9.p.D.>X5X>X| - M G G.G.H.G.G.G.G.G.G.G.G.H.G.E H H.G.E F.H F.",
"H E F.H.G.G.F.F.@.H @.G.G.G.@.G.H.G.H.H.@.@.G.H.H.@.O.Z o O 8 a j t w g  .c.XX%X|.x.' z 2.6.6.6.6.6.0.:X6X6XV.x ; M K K.@.@.G.H.H.G.G.G.G.G.G.G.E E H.E H E H H ",
"D H G.F.F.G.G.G.G.@.@.H.G.H.H.G.G.G.H.G.@.@.G.H.H.E F b o = 8 w a j w 6 q g..X%XXXx._ t z 0.;X2X;XC.N.m.4X,XV.g.( 2 S J.@.@.G.H.H.G.H.H.G.@.@.G.G.G.H.F.@.H.@.G ",
"G T #.@.F.F.@.O.@.@.@.G.F.F.G.@.O.F.G.O.O.@.G.G.T A 1 ; 5 8 8 9 w j t 6 q g.}.$X.Xv.| t 3.Z.8XgXuX5X,Xv.V.:X,X Xk.u B =.$.E #.G.@.O.@.@.O.@.G.G.H.G.@.O.@.H.F.E ",
"E E T E F.@.H H H E O.F.@.@.O.K O.O.O.G K O.@.O.D b = 3 8 0 w w t w t k | g.n.`.`.v.o.g 5.2XkXzXzXdX6Xx.7.z.4X.X/.u h w.$.H @.O.O.K G K O.G.G.H.G.F.T G H @.E E ",
"H E G.H.G.F.E T @.H E F.G.H.H.H.G.G.O.K @.G.H.G.H M * O 8 q w a w t t  .k.h. .| o.v.n...X.1XkXvXbXzXpX-X' l o.o.{ y [ y.$.G.H.G.G.@.G.G.G.G.G.G.G.G.G.E E F.E H ",
"H O.F.F.G.H.G.F.F.@.@.F.H.H.G.G.G.G.G.G.H.H.H.K.E S : : 8 0 r r w k [ h.h...j r x g.b.h.x.3XkXbXMXnXxXgXZ.| 3.r.B.h ] y.K.H.H.H.H.G.H.H.G.@.@.@.@.@.H.G.@.F.E H ",
"H H O.O.F.H.H.H.G.H.G.F.H.G.F.@.F.H.H.H.H.H.H.H.E P d p 0 8 3 6 f  .h.x. .x w q j ' o.k.}.rXlXbXmXMXnXcX8XB.5.1X3X1.) w.K.H.H.H.G.H.H.H.G.@.@.@.H K G.H.H.O.O.T ",
"H H T @.@.F.@.@.F.K K O.K F.H.H.H.G.F.K @.F.@.F Z B L d p p h c | s.h...k w w t t t l  .b.6XsXzXbXmXnXcX8XB.6.;X3X( ) q.$.F.G.G.H.H.H.H.G.@.O.O.G G @.H.H.@.H F ",
"G G T F.@.T K H K K K K H K K F.H.F.@.@.O.K H n , 1 S ( p c d.f.f.d.| x w w t f t t t g { n.7XaXxXvXxXgXZ.] ` r.<.: J q.$.O.O.O.@.H.G.H.G.G.F.#.@.@.G.H.H.H G F ",
"G T T E @.H H H H H H K H H G O.F.F.G.H.H.F.G b $ n H U i c f.j.j...q q t a j j a f r 6 s s.M.6X3XuX3XN.j 3 j a 3   J e.I.F.K K O.H.H.H.H.H.H.H.G.G.H.H.G.H G G ",
"G G E E @.E H H H H T H O.@.O.G.G.F.H.H.H.G.E H H H @.F = : h d.f.d.9 0 w a j j j j t 6 g s.c.b.o.<.X.( w q j w O   e y.K.H.F.F.H.H.H.H.G.G.G.G.@.E O.F.G.F.O.O.",
"G T E F.G.G.T H O.@.@.O.@.G.G.H.H.G.H.H.H.G.G.H.H.H.G.S . X 4 v f.f.a 0 q w a w w f a t k  .h.d.h w w ] t.Z.t.] 3   B I.J.G.G.H.H.H.H.G.@.@.G.G.K G K @.H.G.@.E ",
"T T E H.H.H.@.@.F.G.H.H.G.G.H.H.H.F.H.H.E F.H.@.G.G.G.Z . X O [ f.d.9 5 0 w 9 0 q w f a f k [ g.f.h 2.T.uXkXiXu.9 , F K.@.F.G.F.G.H.H.G.T #.H.H.O.G H G.H.O.T T ",
"T G E G.H.H.H.F.O.O.G.H.F.@.H.G.F.G.H.H.H.H.G.F Z B Z N , , 2 d v v p + 8 5 0 9 8 w w a q q g h.M.d._ u.3XgX3X<.B F @.J.H.H.H.F.G.H.H.H.G.G.H.H.G.@.G.H.H.@.O.H ",
"F T E E G.H.H.G.O.K @.H.F.@.G.@.O.H.F.@.G.H.G.C > * & b D G F N d h p p = 5 5 0 8 9 w 9 7 7 a s.M.f.' | t.-Xt.P D G.G.@.H.H.H.F.F.H.H.H.H.H.H.H.G.H.H.H.G.G.O.T ",
"T E G.H.H.H.G.G.H.F.@.G.G.@.G.H.H.G.O.G @.H.H.V $ * & Z @.H.@.F b ; i 2 < = = 5 5 5 4 5 O 3 8 c s.{ h a 3 # , M D K K G @.H.H.@.E @.G.H.H.H.H.F.@.O.G.@.@.G.@.O.",
"T E H.F.G.H.G.G.H.H.G.G.G.G.G.H.H.O.H H O.@.O.D C Z Z G O.@.G.O.F S I T F m = o o o o . o o o = i p p + . $ C M , M D K K @.@.K H O.@.@.@.E G.G.G.G.G.G.H.G.G.O.",
"K @.G.O.@.H.G.G.G.H.G.O.@.G.H.H.H.E T O.T O.O.O.@.@.@.@.@.O.G.H.H.H.H.H.E V & o - > > - & > > $ > : i 2 1 A G.Z , b F O.O.K O.O.O.G.@.O.O.@.G.H.H.H.H.H.H.H.F.E ",
"O.@.O.K O.@.@.G.G.O.K K K O.G.H.H.G.G.@.F.G.H.H.G.H.H.H.H.H.H.H.H.H.H.F.F b * & F G F A A F F F F S S S A G G.@.K K O.@.G.G.H.H.G.H.G.H.H.H.H.H.H.H.H.@.E G.E E ",
"T O.G.K O.O.O.@.@.O.O.@.K K @.H.H.H.G.G.@.@.G.H.H.H.H.H.F.G.G.G.F.E F.A % @ , Z O.G.@.K G O.T O.O.T O.O.H H F.G.H.G.G.G.@.@.G.H.H.H.K.G.G.G.H.G.@.E F.@.T E E T ",
"H @.G.G.@.@.@.O.O.O.@.G.K G G.H.H.G.H.G.@.@.G.G.H.H.H.G.E E G.H.E T E Z > > C E G.G.G.G.@.@.@.O.O.O.@.@.O.T F.H.H.G.H.G.@.@.G.G.H.H.H.G.O.@.G.G.E T @.F.@.H T E ",
"O.@.G.H.H.G.G.G.F.O.O.K G O.H.G.G.F.G.H.H.H.H.F.G.G.G.H.H.H.H.H.H.H.H.e.w.=.$.H.H.G.G.H.H.H.G.G.G.O.K G H O.H.G.G.G.G.H.H.H.H.G.#.G.G.H.H.H.H.H.H.H.H.H.H.E E E ",
"T @.G.H.H.G.G.H.H.G.@.@.@.G.H.H.G.O.F.G.G.F.F.F.G.#.F.F.G.G.G.G.G.H.G.I.I.I.K.H.H.G.G.G.H.G.G.G.H.G.@.@.@.G.H.H.G.@.@.G.G.G.@.G.G.G.G.@.G.G.G.G.G.G.G.H.H.F.F.E ",
"T E G.G.G.G.G.H.H.H.H.H.H.H.H.H.H.O.O.@.O.O.O.H.H.@.@.O.K O.O.@.@.O.O.G.H.#.H.H.G.G.H.G.G.G.G.G.H.H.H.H.H.H.H.H.G.K @.G.O.O.O.H.H.@.@.O.O.O.@.@.@.T E G.H.G.E E ",
"T E @.G.G.H.G.@.@.G.H.H.H.H.H.@.@.@.O.O.O.@.G.H.G.O.O.@.@.@.O.O.K O.@.F.F.G.G.G.G.G.@.G.G.G.G.@.G.G.H.H.H.H.G.F.@.O.O.O.O.O.G.H.G.O.O.@.@.O.O.O.H T @.G.G.G.E H ",
"T E G.G.G.G.@.@.@.G.@.@.G.H.G.#.@.F.@.O.F.F.G.H.G.H H K @.K K K G O.F.F.@.F.F.G.G.G.F.G.G.F.@.@.@.F.@.@.G.H.G.@.F.F.@.H F.G.G.H.G.H H O.@.K K K H H G.F.E G.E H ",
"T E G.H.@.H O.@.G.@.O.K @.G.G.G.J.H.H.G.H.H.H.H.G.K H H H H H K H T G.G.F.F.G.G.@.G.G.H.F.H O.F.G.F.O.K G.G.G.G.G.H.G.G.H.H.H.H.G.O.H H H K H K H E G.G.F.F.E H ",
"T @.G.F.O.G G O.H.H.H.G.H.G.@.G.H.H.H.H.H.H.G.H.H.G.K H H H @.@.@.@.@.F.G.G.H.H.G.G.G.G.H H H O.H.H.G.G.G.G.@.G.H.H.H.H.H.H.G.G.H.G.K H H H O.@.E E F.F.G.G.E E ",
"T @.G.G.F.@.T F.H.H.H.G.H.G.G.G.H.H.H.H.G.F.F.G.H.H.G.@.H @.G.G.G.G.G.F.G.G.H.G.G.G.G.F.F.@.H @.H.H.H.G.H.G.G.H.H.H.H.H.G.G.F.G.H.H.F.@.K @.G.G.G.G.F.F.F.H.F.E ",
"H E H.H.H.H.G.H.H.F.@.O.G.H.H.H.H.G.H.G.F.K H G.H.H.G.H.H.H.H.H.H.H.H.G.@.F.G.G.G.G.H.H.H.H.H.G.H.G.F.O.G.H.H.H.H.G.G.G.F.@.H G.G.H.H.H.H.H.H.H.H.H.H.G.E F.E H ",
"H H F.H.G.@.G.H.G.G.@.O.F.H.H.G.F.@.K @.H.H.H.H F.H.H.H.H.H.H.H.H.G.@.G.G.O.E E @.F.F.H.G.O.G.H.F.G.@.O.@.K.H.H.F.F.H @.G.H.H.O.F.H.H.H.H.H.H.H.G.G.F.G.G.E H G ",
"H E G.H.F.E @.G.G.F.O.T F.G.G.F.@.F.@.@.H.H.G.@.F.G.H.H.G.G.G.G.G.G.F.G.H.@.@.@.G.F.G.H.F.E F.G.G.F.@.O.@.H.G.G.E F.F.F.G.H.#.E F.G.H.H.H.F.G.G.H.G.F.G.G.F.H G ",
"H F.H.H.G.@.E G.H.F.O.E E O.E E @.G.H.H.G.H H G.H.F.H.H.H.F.E G.G.H.H.H.H.G.H.H.G.H.H.H.G.F.E F.H.@.H O.O.O.O.K F.G.G.H.G.H T H.H.F.H.H.H.F.E G.G.G.H.H.H.G.F.E ",
"H E H.G.F.@.F.G.F.F.E T F.G.@.@.F.G.F.@.F.F.G.G.F.H G.H.H.F.@.G.H.H.G.E F.G.H.H.G.G.G.G.G.@.@.G.G.F.@.H F.G.@.E G.G.F.E G.G.G.G.F.@.G.H.H.@.@.G.H.H.G.E E H.G.E ",
"H E E F.F.F.G.G.@.G.G.@.F.H.H.G.G.H.@.E E H.H.F.H F.F.H.H.G.G.G.H.G.F.H E H.H.H.#.@.@.G.@.G.G.G.@.H.G.O.F.H.H.G.G.H.@.E @.G.G.@.H @.F.H.H.G.G.H.H.G.G.H H H.G.H ",
"H E E F.G.H.H.H.H.H.H.H.@.E H.G.G.H.G.F.G.F.@.H @.F.F.G.H.G.G.G.G.F.E F.G.H.F.E F.F.@.@.G.H.H.H.H.H.H.H.O.@.H.G.F.H.H.F.G.G.@.O.H G.F.G.H.H.G.H.G.F.E G.H.H.H H ",
"H H H E @.G.G.H.H.H.H.G.E @.H.H.G.H.G.G.H.G.F.H F.G.E @.F.@.F.H.H.H.F.F.H.H.E E F.@.T O.@.G.G.G.H.H.G.G.E @.H.H.H.H.G.G.G.G.@.T F.G.@.O.@.@.F.H.H.G.F.G.H.H.H D ",
"H H H H E E @.G.H.H.G.E E G.H.H.H.G.F.F.H.H.F.@.F.G.F.@.H @.F.G.H.H.F.G.H.H.F.O.F.@.H H O.@.@.F.H.H.G.E E G.H.H.H.F.F.G.H.G.F.@.F.H.F.E E O.@.G.H.H.F.G.H.H.H G ",
"E H H H H E E F.G.G.G.F.E F.G.@.O.O.E @.H.H.G.G.G.H.H.G.G.G.G.F.H E H.H.H.G.G.H.H.@.H T O.T @.G.G.H.G.F.E F.G.F.O.O.@.@.H.H.G.G.F.H.H.H.F.G.H.F.H E H.H.H.F.E H ",
"G H H H E E E E E H H E E E E E T T T O.@.@.@.F.@.@.G.F.F.G.F.H G G F.H H H O.G.@.T H T T O.T E H H E E E E E E O.O.O.O.@.@.@.@.@.F.F.F.@.@.F.O.H G E E H H H H ",
"D F H H E H H G G G H H H H H H @.T @.E G G H @.H H H H H H K H G G H G D G G T H H H H O.T T G H G G H H H H H O.E E E G G H @.H H H H H H O.O.G G H G D G D D "
};
