/* XPM */
static char *Group_10_27__resized[] = {
/* columns rows colors chars-per-pixel */
"80 80 229 2 ",
"   c #170E05",
".  c #181917",
"X  c #1D1E15",
"o  c #1D1B1B",
"O  c #32170A",
"+  c #231C1B",
"@  c #241D1B",
"#  c #1A2C0F",
"$  c #1D2414",
"%  c #1E2617",
"&  c #26270B",
"*  c #202415",
"=  c #222B16",
"-  c #23231A",
";  c #242A1A",
":  c #2D281A",
">  c #36291D",
",  c #243316",
"<  c #263B16",
"1  c #293C17",
"2  c #293618",
"3  c #2B3D19",
"4  c #383818",
"5  c #231D22",
"6  c #2A1C23",
"7  c #321F28",
"8  c #2C2223",
"9  c #2E2926",
"0  c #382725",
"q  c #342B24",
"w  c #342529",
"e  c #342A2D",
"r  c #3D2D2E",
"t  c #333123",
"y  c #393827",
"u  c #3A2E31",
"i  c #3E3233",
"p  c #451E0B",
"a  c #54300D",
"s  c #49281A",
"d  c #572514",
"f  c #46361D",
"g  c #5B3A17",
"h  c #702E0E",
"j  c #793513",
"k  c #482B27",
"l  c #402E2D",
"z  c #592E24",
"x  c #43312E",
"c  c #4B322C",
"v  c #5C342C",
"b  c #563829",
"n  c #443331",
"m  c #483836",
"M  c #4C3A35",
"N  c #44343A",
"B  c #4C3B3C",
"V  c #583630",
"C  c #513D3B",
"Z  c #683A2D",
"A  c #783E2D",
"S  c #673F33",
"D  c #2A4217",
"F  c #294716",
"G  c #2C4419",
"H  c #2E4A19",
"J  c #354517",
"K  c #33441B",
"L  c #324C1A",
"P  c #3D4B1B",
"I  c #2E5317",
"U  c #33551A",
"Y  c #355C1B",
"T  c #3B581A",
"R  c #36621B",
"E  c #39641C",
"W  c #3D6D1D",
"Q  c #3F711F",
"!  c #3B5629",
"~  c #3D6822",
"^  c #3F7320",
"/  c #46471A",
"(  c #574616",
")  c #475B19",
"_  c #565218",
"`  c #654C17",
"'  c #6B4C17",
"]  c #6A4E18",
"[  c #43611B",
"{  c #4A631B",
"}  c #466C1D",
"|  c #58681C",
" . c #41751F",
".. c #4A721F",
"X. c #43781F",
"o. c #53721D",
"O. c #59731F",
"+. c #656D1D",
"@. c #6A731F",
"#. c #5D4128",
"$. c #564535",
"%. c #504935",
"&. c #54423D",
"*. c #5B443B",
"=. c #6C452A",
"-. c #794528",
";. c #6A4233",
":. c #644839",
">. c #764A32",
",. c #794A34",
"<. c #625537",
"1. c #7C5839",
"2. c #476B24",
"3. c #427620",
"4. c #4B7520",
"5. c #457C21",
"6. c #4B7C21",
"7. c #4A782C",
"8. c #527520",
"9. c #547B21",
"0. c #54752F",
"q. c #697823",
"w. c #767922",
"e. c #6F7035",
"r. c #4C3C41",
"t. c #523F45",
"y. c #544447",
"u. c #5A4442",
"i. c #5D4944",
"p. c #5C4A4A",
"a. c #624D49",
"s. c #654D48",
"d. c #65524E",
"f. c #6A534A",
"g. c #6D584F",
"h. c #755A4A",
"j. c #6D5951",
"k. c #6C5955",
"l. c #725D53",
"z. c #79655A",
"x. c #787451",
"c. c #8F3613",
"v. c #853816",
"b. c #8B522F",
"n. c #814632",
"m. c #874B34",
"M. c #895534",
"N. c #835C39",
"B. c #975634",
"V. c #9C5C34",
"C. c #A45A37",
"Z. c #847C24",
"A. c #8A663A",
"S. c #976637",
"D. c #A86F2B",
"F. c #B8782D",
"G. c #A46537",
"H. c #AC6535",
"J. c #B56A35",
"K. c #A97336",
"L. c #B47A39",
"P. c #815E41",
"I. c #876849",
"U. c #9A7448",
"Y. c #8E7550",
"T. c #827B54",
"R. c #A37747",
"E. c #836E60",
"W. c #867263",
"Q. c #897667",
"!. c #8E7A69",
"~. c #478122",
"^. c #498423",
"/. c #4C8A24",
"(. c #4C832A",
"). c #4F8B29",
"_. c #578425",
"`. c #598234",
"'. c #648425",
"]. c #788828",
"[. c #628136",
"{. c #898628",
"}. c #988B27",
"|. c #899130",
" X c #999934",
".X c #A6952D",
"XX c #B6972D",
"oX c #AD8F32",
"OX c #B3AA38",
"+X c #C28235",
"@X c #CB8935",
"#X c #CB9337",
"$X c #C9A835",
"%X c #DAA832",
"&X c #DFB73A",
"*X c #E7AA34",
"=X c #DBC23F",
"-X c #92854E",
";X c #928C56",
":X c #AF8A4A",
">X c #BD9448",
",X c #B5AE55",
"<X c #B7B566",
"1X c #C59643",
"2X c #CCB553",
"3X c #E3B452",
"4X c #C4B867",
"5X c #DCB163",
"6X c #D0C54F",
"7X c #E5CC46",
"8X c #F6D945",
"9X c #F7DB58",
"0X c #F2E751",
"qX c #E9CC65",
"wX c #E5DD79",
"eX c #EBE36F",
"rX c #FEE666",
"tX c #BABC86",
"yX c #CFCD84",
"uX c #EDE188",
"iX c #FAEB88",
"pX c #FBF392",
"aX c #ECEEA7",
"sX c #F7F7A7",
"dX c #E5E7B6",
"fX c #F9F8C8",
"gX c #FDFED9",
"hX c #FDFDEC",
"jX c #FFFFF6",
/* pixels */
"I R  .W Q Q Q Q  .W W  .X.X.X.Q  . .X. .W W Q 5.5. .X.X.^ ~ E W }.&X8XXX+...X.Q R W  .W W  .Q Q  .W W X.3.X.X.Q Q X.X. .W W Q X.3. .5.3.Q W W Q Q  .3. .W X.W Y ",
"E W  . .3.3.Q Q Q Q Q X.3.X.X.Q ^ 3.3.Q W Q Q 3.Q Q Q Q ^ 3.Q ...X7X8X.XO...~.~.3. .Q  . . .Q Q Q Q Q X.5.3. .Q Q 3.Q Q Q Q  .X.3.W Q W Q 3.5.5.5.3.Q Q  .5. .W ",
"X.X. .X.~.5.Q Q Q X.X.~.5.3.5.3.3.3.3.W  .X.5.3.Q ^ W ^ ^ ~.(.'.,XrX9X.X| X.^././.~.3.5.~.5.Q Q Q  .X.~.5.3.5.3.3.3.^ Q Q 3.5.3. .Q Q W 3.^./.^.^.^. .Q  .5.X.X.",
" .X.^./.^.~. . .X.X.X.~.^./././.^.5.3.Q 5.^./.^.~.~.~.^.^.3.].6XeXpXrX.X| ~.~.~.^.^.^.^.^.~.X. .X. .X.~.^./././.^.^.3.Q 5.^./.^.^.5.^.^.^.5.^.^.^.^.^. . .^.X.Q ",
" . .~.~.^./.^.~.~.5.5.^./././.^.^./.^.~././././././././.^...|.eXpXiX6X|.O.~.~.^.~.~.~.~././.~.~.^.5.5.~./././.^.^.^.^.^././././.^./././.^.5.5.5.5.5.^.^.5.5.X. .",
" . . . .~./././.^.^.~.^././.5.5.5././././././././.^./.^.^... X0XrX2X].O.~.X.~././.5. .3.~./././.^.^.~.^././.5.5.~./././././././././././.^.5.5.5.Q  .^./.^.5.3.3.",
"W } Q X.5.5.~.5.5.3.3.3.3.5.^.^.^.^.5.5.X.5.X.X...9.6.^.^.o. X8X$X{.O././.X.X.X.~.3.Q 5.5.5.~.~.5.3.3.5.3.5.^.^./.^.5.3.3.~.^.^.^././.^.^.5.3.5.W  .5././.5. .E ",
"W W  .~.5. . . .^ ^ Q ^ ^ Q 5.^.^.^.5.X.5.5. ...q.{.'.^./.O.Z.$X}.O.~./.^.X.}  .5.3. .~.5.Q Q Q Q Q Q ^ Q Q 5.^.^.~.~.3.5.3.3.3.^.^././.^.^.5.^.5. .^././.3.E E ",
"W Q X.~.5.Q Q Q Q Q Q Q ^ Q Q ^ ~.~.~././.~.X.{ }.&X{.~./.o.@.{.'.~././.^.^ 3.5.~.3.3.~.5.Q Q Q Q ^ Q Q ^ ^ ^ 3.^.~.^././.~.^ Q 3./././././././.^.^././.^.W W W ",
"W Q X.X.5.3.Q Q Q ^ Q Q 3.5.^ ^./.^././.^.~.~.o.}.%X].X.^.~...O.X.Q X.~.^.~.^.^.5.3.3.5.5.3.Q Q Q Q Q Q ^ 5.^ ~.^.~././././.~.^././././.^.^.^.^.5.3.3.^.^.^.X. .",
"W Q 3.^.^.~.^ ^ 3.3.5.5.5.^.^././.~./._.'._...o.]..X'.X.X.~.^.~.Q W Q ~.^.^././.^.3.3.~.^.~.^ Q ^ ~.5.^ ~.^.^././.^.^./.^.^.^././././.^.5.5.^.^.3.W W 5./.^.5. .",
"X.Q ^ /././.5.5.~./././.^.^./././.~.~._.{.{.O.X...o./.X. .^././.X.W Q ~./.3.5.^./.5.3./././.~.5.~./././.^.^./././.~.^./.5.~.^.~.^././.~. .~././.3.W Q ^./.3. . .",
"Q Q  .~./././.~.3.3.^./.~.~./.~.~./.~./.'.w.+.o.X.~./.^.^.^././.^.5.^././.5.5.~.~.3.3.~./././.~.Q 5.^./.~.5./.~.5./././.^././.^.^.)././.^.^././.~.^.^././.5. . .",
"W Q X.X.^././.^.3.^ 5./.~.5./.5.X./.~.X...@.Z.w.'./././././././.^./././.^.~.^.^.5.5.3.~.^././.^.Q Q ~./.~.5./.5.5.^.~.5./././.~.~././././././.^.^.^././.^.5.3. .",
" .X.^./././.^.^./.5.5./.~.~.~././.~.X.X...].XX#X{...~.^./././.~.5.5.~.~.~.^././.^.^.5.^././.^.^./.~.5./.~.~.^././.~.^ Q 5././.5.3.~.^.^./././.^.5.5.5.^.^.^.5.3.",
"Q X./.^.^./.^./././.^.^.~.^.^././.X.Q ..].OX=XXX{.X.~.X.X.X.^.^.^.~.~.^.^./././.^.^.^.5.^./.^.^././.^.~.^.^.^././.3.Q ^ ^ 5.5.^ ^ 3.5.5.5.6.^.^.^.5.^.^./.^.^.X.",
"Q X.^.5.5./.^.^.^./.^.3.5.^.^././.5.Q 6. X7X0X.X@.6.5.X.X.5.~./././././././././.^.~.o.| 6./.^.^.^./.^.5.5.^././.^.5.X. .3. .3.3.5.5.5.5.3.5.^./././././.^./.5.X.",
"X.X.3.Q  .5.5.~.^.3.^ ^ ^ 3.^././.^.~._. X7X0XXXw.^./././././././././.X. .^./././.O.w.w.q.~.5.~.^.3.Q Q Q 3.^././.^.^.X.~.^./././.^.^././././././././.5.3.^.^.3.",
" .5.^. . .3.5.5.5.3.3.5.3.Q 5.^././.~.'.OX&X=X|._.^./.^.^.^././.~.X.^.X. .X.^./.^.].oXoX{. .3.5.5.3.^ 5.Q Q ~.^././.^.^.5.5.^././././.^.^.^.^.^.5.5.~.X.3.3.X.X.",
"Q X.^.^.5.5.5.3.3.3.5.~.3.^ ~././.^.^._.XX$X.X_.~././.^. .X.^.^.X.X.X.~.X. .X./.X.].XXXX{.5.3.5.3.3.5.^.3.Q ~././.^./.^.5.5.^.^./././.^.3.5.^.^.X. .5.~.3. . .X.",
"3.5.^.^././.^.^.^.3.3.Q W 3./.^.~.~.~._.'.w.@.~.5.^.^././././././././././.X./././.O.@.w.'.^.^.^.~.3.^ ^ Q ^ /.^.^.^.^././././.^.~.^.^./././././././././.^.5.X.X.",
"X.5.^././.^.^.^.^.^.5.5.5.^././.^.X.~.^.o...Q ~.^.^.~.~.^.^.^./.^.^.^././.~.^./.^.~.^.o.6.^./.^./.^.~.3.5.~././.^.3.^.^.^.^.5.^.^.^.^.~.^.^.^././.^.^.^./.^.X.X.",
" .X.^.^.^.^.^.^././././././././.^. .X.5.X. .X./.^.~.5.3.3.3.3.5.5.X...^./.~.^./.~.~./.^.~.~.^./././././././././.^. .3.~.3. .3././.5.~.3.^ 3.5.5.X. .3.^./.^.5.X.",
" .X.5.^.^./.^.~.^.^././././.^.^.5.5.X. .X.X.~./.^.3.3.5.5.3.3.3. . .X.^.^.~.^.^.^.^.~.~././.~.5.~.^./././././.^.5.3.3.3.3.5.^./.^.^ 3.5.5.3.3.3. .3.5.^.^.^.X. .",
" .X.^.^.^.^.5.5.5.~.5.3.^./.^.5.5.~.5.3.5.^././.~.Q ^ 3.3.3.^ ^ W 3.^.^.5.5.^.^.^.~.~.^.^.~.~.5.5.^.5.5.^./.^.~.5.^.5.3.5.^.^./.~.Q ^ 3.5.3.Q ^ Q Q ^.~.~.~.X.Q ",
"Q 5./.^.5.Q 3.~.~.~.3.^ 5./.^.^.^././.^././.^./.^.3.3.Q Q Q Q ^ W 3.5.^.5.^.^.^.~.^././.5.Q 3.~.^.5.3.3.5./.^.~.^./.^.^././././.^.3.^ Q ^ Q Q Q Q X.~.~.~.~.X.Q ",
" .5.^.^.X.W W 5./././.^.^.^.~.^././././././.^././.^.3.Q W  .Q  .) [ 3.5.^.^.^.^.^.^.^.~.3.Q W 3.)./.^.^.^.^.~.^././././././.^.^./.^.3.W W ^ 3.5.X.5.~.~.^./.~.Q ",
" .5.^.5.~.3.X.X.)././.^./.^.~././.^././.^.~.~.^././.~.3.5.5.X..._ ( { X.^.^.^./.^./.^.~.~.3. .5./././.^.^./.~.^./././././.^.5.^././.~.X.3.5.^.^.^.^.^.~.~.^.~.X.",
" .X././././.^././.~.5.3.^././././.^.^.^.^.5.Q ^././././././.^.} ' v.` { 5.5.^.^.^.^././././.^.^.^.~.5.3.~././././.^.^.^.^.3.3.^.^././././././././././.^.5.~.Q Q ",
"Q  .^./.^.X.^./.~.^.5.3.~./././.~.~.3.5.^./.^.X.5././././.^.^.X.' v.v._ [ 3.3.X.X.X.X./.^.5.^./.^.^.5.3.^./././.~.~.3.5.^./.^.3.~././././.^./././.^.X.~.^.X.Q W ",
"Q X.^./.^.X.~.^.^.~.5.3.~.^.^.~.5.~.5.5.^./.^.X.~.^./././.~.5...' j v.g J U U U U U U W 3.3.^.^.^.~.5.3.5.^.^.~.5.~.5.5.^./.^.5.5././././.^.^./.^.^.~././.5.Q Q ",
" .X././.^.X.X.^./.~.^ 3.X.3.3.3.5.^././.^.Q Q /./.~./././.5.Q X.' h d O X $ = * = $ $ D R 3.3.~./.5.3.3.X.X.X.X.5.~././.^.X.Q ^./.~./././.X.X.^.^./././././.X.X.",
"Q X.^.^.^.5.~.^.~.~.5.3.5.^.~.5.^.^.^.5.X.^.^.^.~.5.~././.X.W J a d k : 6 9 8 q q e e t K T I Y X.^.X. .5.^.5.5.^.^.^.X.^.^.^.^.^.3.^././.~.5.^././.^.5.~./.^.X.",
"Q X.~.~.~.~.^.^.5./.^.3.^././.^.^.^.6.X.^././.5.3.3.~././.W H > d z c n i m m m &.i.p.$.b f : D E 5.^.X.~././.^.^.^.5. .5.^./.X.3.3.^././.~.~././.^.~. .Q ^.~.Q ",
"Q  .5.5.~./././././././.5.3./.^.5./.^.^.^.5.5. .3.^.~.~.X.F % t =.b.;.&.r.*.:.p.p.z.U.U.1.V c t 3 } ^./.5.X./.^.^./.^.^.^.^.5. .3.^.~.^./.^.^./.^.5.5.~.^./.5.W ",
"Q Q  .Q 5./.^.^././.^.~.5.5././././.^.^.^.^.5.X.5.^.3.~ L 2 e #.S.L.N.*.B u.a.d.j.Y.>X1XU.s.a.&.y L R X.5.3././././.^.^.^.^.5.X.5.^.5.5.~.5.~./././.~.~././.Q R ",
"Q Q Q Q 5.5.5.~././.^.X.5.^.^./.^.^.5.^././.5.X.~.^. .P s c ;.M.K.L.S.1.*.r.p.g.I.:X#X>XY.z.z.l.&.t 1 R  .^././.^.^.5.^././.^.5.~.^.~.3.3.3.5.^././.~.^././.Q W ",
"X.Q Q  .Q Q 5.^./.^.^.~.5.^.^.5.3.5.3.5././.^.^.~.5./ b A C.H.H.N.N.L.K.1.r.y.I.1X1X:Xz.E.Q.Q.E.l.B q < Y 5.^.5.3.3.5.5././.^.5.~./././.~./.^.5. .X./././.^.5.X.",
"X. .X.X.~.5.5.~.~.~.~.~.^.5.~.5.^.5.^.5.^.^.^.5.W L 4 z ,.B.V.M.:.:.S.K.K.B.I.U.1X:XI.j.k.Q.!.!.W.k.C t G Y Q 5.5.^.5.^.^.^.^./.^.^./.^.^.^./.^. . ./.^.X.X.X.5.",
"W X.^.^.^./.^.5.5.3.5.^.^.^.5.^.^.^././.5.5.5. .U ; 8 k c S ;.:.C C s.N.K.@X@XoXR.I.g.d.k.z.Q.!.!.T.f.m t < E ~./.^./.^.5.5.^././.^.~.^.~.^.^./.X.X.^.X.Q X.Q Q ",
"E Q ^.^.^.^.^.^.^.5.5./.^././.^.^././.^.5.~.^. .P 0 8 8 e r i r m N N *.A.@X*X@XN.u.y.d.g.l.z.E.W.E.l.:.0 2 W ~.^.^./.^.5.~.^././.^././.~.5.5.~.^.^.^.^.~./.X.Q ",
"W  .5.5.5.^.5.X.5.5.5.^.~.~.~.5.5.5.5.5.3.5.5.E f s k w e e e u r m N m :.S.+X@XN.s.y.d.d.s.d.g.l.z.l.h.v b T Q 5.5.5.5.3.5.5.^.~.3.5.5.3.~.^.^./.^.5.3.X./.~.Q ",
"X. . .X.~.5.Q Q  .3.5.~.5.5.3.3.3.3.3.W 3.3.E J f z Z v c r i r r n M N B *.A.K.S.1.s.u.y.u.*.u.a.d.g.h.M.-./ Y W 3.3.Q  .5.5.3.^ ^ W ^ 3.~./././.~. .W Q X.~.X.",
" .X.^./.^.~. . .3. . .5.^./././.^.^.3.W 3.W L ; 8 k ,.m.;.n e x l n B C B C *.1.L.L.N.C B &.&.$.a.d.g.I.L.D.( J Y 5.3.W 3.^./.^.~.~.^.^.^.~.^.^.^.^.^.X.X.^.X.Q ",
"Q 3.^.5.^./.^.~.^.5.5.~./././.^.^./.^.^./.^ D + 6 c V.C.>.r e r x n m C C m N :.F.#X>X-XT.-X-XT.s.r.t.P.+XF.Z 4 I ~.^.~././././././././.^.6.5.5.5.5.^.^.5.~.3.Q ",
"Q Q  .3.~./././.^.^.^.~././.X.5.~.^.^.^.^.E 3 % 6 c C.H.,.n e r n l l N B B B :.F.3XqXuXuXwXuX<Xx.N N 1.oXF.b 4 I ^./././././././././.^.^.5.5.3.Q Q ^./.^.5.3.3.",
"W Q 3.5.5.5.5.5.5.3.3.3.3.5.^.^.^.3.Y H H 2 % o + 0 =.M.M.S n u e w e e u C >.B.B.#XeXsXfXfXfXdXtXY.A.>X3X2X<.P R ~.~.3.3.5.~.^.^./././.^.3.3.5.W  .5./.^.5.W W ",
"W W 3.~.5. . . .^ Q ^ ^ Q  .5.^.^.Q H * $ $ X o + @ 0 v m.m.S l r m x r n V M.S.Z A.<XaXgXjXjXhXaX4X#X1XqX4X<.3 I ^ 5.3.5.5.3.3.5./.^././.^.5.^.3.5.^././.Q W E ",
"W }  .~.5.Q Q Q Q Q Q Q ^ Q Q 3.^.W L , ; , , = $ . . w Z n.n.A >.,.>.>.>.,.B.m.k m x.yXfXhXhXgXpX3X1XoX,X;X%.; # Y 5./.^.^.3. .5.^.^././././././.^././.^.Q W W ",
"W  .X.X.5.3.Q Q Q Q Q Q 3.5.3.~.^.5. . .W } W Y 3 + 5 6 w V ,.C.H.H.H.J.J.V.>.V r w l T.tXsXsXuX5XR.m.S $.n 9 o $ 1 W /./.^.5.^././././.^.^.^.^.6. .3.^.^.~.3.3.",
"Q Q Q ~./.~.3. .3.3.5.5.5.~.^././.^././././.^. .G + @ 6 5 r Z b.V.B.B.H.J.G.S u r w 8 $.Y.4X<X,XS.n.Z k @ + = 2 3 G W /.^.^.^.^././././.5.5.^.^.^ W W 5./.^.5.X.",
"X. . ./././.5.3.~./././.^.~./././.5.^.^.3.5.5.E 3 + + + 8 0 l x c k l Z B.V.S l u r r n $.*.<.$.c S n.n.k ; Y X.3. .^./.5.5.^.5.^././.^.X.5././.3.W  .^./.X. . .",
"Q Q X.^.^././.~.3.3.^./.~.~./.3.R L L L G G H G D L L 3 : 8 8 5 - 5 5 b m.C.S e e r r r l r w &.T.:XR.A f Y X.X.X.^././.^.4.{ E ../././.^.^././.^.5.^././.3.3.Q ",
"W Q X.X.^./.).^. .3.5./.~.5.^.W G ; * * ; * * , L W  .Y 2 ; 5 % $ o o c ,.B.Z w w w w 0 w 7 7 i.<X4XR.b P W ^.~.~./.~.X./.| ( / ) ^././././././.^.^././.^.^.3.3.",
"Q X.^./././.^.^./.5.5.^.~.~.~.E D - * = , , = 1 Y  .^.3.U G D F D , % 0 v A z k 8 8 8 8 8 8 8 %.;X;Xe.L J Y X.^./.~. .W X._ h h ( 2.(.^./././.~.5.5.6.~.~.~.5.3.",
"Q X./.~./././.^.).5.^ ^ ^ 3.3.Y 1 ; 3 U U U U Y E X.5.5.~ E E ^ W U , + @ s f s > @ % X - : - q %.2.2.! < < E X.X.W E W X.) a h v.A.0.^.5.5.^.^.^.^.^.^././.~.3.",
"Q 5.^.5.^ /.^.`.`.2.P L L U U L D D R 5.3.3.5.5.3.5.5.5.3.X.4.8.^.3., . $ < P / K 1 , , , 1 < # # I W  .H , D U Y H G U ^ ) ( h c.U.e.^.5.5.^././././.^././.~.X.",
"Q 5.3.^ ^ ~.5.`.T.g O X $ $ * 2 L  .5.5.5.^./.^././.^./.^.} _ ] O.~ , $ < Q 6.X.3.^ E R E W W W W W W W E L 2 ; * @ $ 2 W [ a v.c.A.[.)./././././././.5.X.^.X.X.",
"Q ~.~.^ ^ ~.3.[.T.s O 1 , , 2 L W ^.^.^.5.5.^./././././.5.{ ( v.' _ 3 F R 3.^.^.~.~.~.3. .X.X.5.3.3.3.5. .R G 3 1 1 3 1 F / h h ' e.)./.^.^.^.^.5.5.^.5. .X.X.X.",
"Q 5.^.~.5.~.5.`.x.4 # R R Y R  .5.^./.^.5.5.^././././.^. .) ( c.v.g T } 3.Q 5./.^.^./.~.X.5.5.5.3.3.5.^. .W  .W W W } Y , 4 h a ) ^.).^.3.5.^.^.X. .5.5.5. .X.X.",
"Q X.^././.(.^.(.0.! F W W Q ^.~.~.5.^././././.~.~.^.^././...` c.j g ) 5.^.5.^././.^.^.^././.^.~.~.3.^ ^  . .^.^.5.5.^.X.U 4 s O 4 2.^.)./././././././././.X.X.X.",
"X.~.^././././.(.`.3. .X.5.^././.^.3.~./.^.~.5.^.^.~.~.~.5.[ ( h d 4 E ^./.^.^./.^.^.^./.^.^./.^./.^.5.5.X.^././.^.X.^.^.W P &   * ! 7.(.^.^.^.^.^.^.^././.^.X.X.",
"Q ~./.^.~.~.^././././././././././.3.3.5.5.3.3././.~.5.3.3.U 4 p O < R 5./.~.^./.~.^./.^.^.~.^./././././././././.^. .X.X.X.E F # = ! 7.7.3.3.3.6.3.X.X.^./.~.X.X.",
" .X.X.~././.~.~.~.^././././.^.~.5.5.3.3.3.3.^./.^.3.3.5.5.Y D > G R  .5.^.^.^.^./.^.5.~././.^.5.~.^./././././.5.5.5.X. .X. . .W ~ ~ 3.5.5.5.3.3. . .5.^.~.^.X.Q ",
"Q X.~.^.^.^.~.5.5.~.5.5.^.^.^.5.5.^.5.3.X.~././.^.^ ^ 3.5.2.! ! ! Q ^.~.~.~.~.~.^.^.~.^.^.^.5.5.~.~.5.5.^./.^.5.5.~.5.3.5.^././.^.Q Q 3.5.3.^ ^ Q Q ~.~.~.~.X.Q ",
"Q X././.X.Q 3.5.^.5.5.^ ^.^.^.^.^.).^.^././.^./.^.3.^ Q ^ 3.7.7.7.3.^.^.~.~.~.^.~.^.^./.~.Q ^ ~.~.5.3.^ ~./.^.^.^./.^.^././.^./.^.3.^ Q ^ ^ Q ^ Q X.^.^.~.~.X. .",
"X.X./.~.X.Q W 3./././.^.^.^.^.^././././././.^././.^.3.^ ^ ^ 7.(.^.5.5.5.^./././.^.^.^.~.Q Q Q 5./././.^./.^.5.^././././././.^././.^.3.Q Q Q 3.5.X.X.~.~.^.^.~.X.",
"Q ~.^.~.5.5.Q ~./././.^.^.^.^.^./././././.^.5.^././.~.3.5.5.~.~.^.^.^.^.~.^./.^./.^.^.^.~.X.Q X./././.^.^.^.~././././././.~.5.^././.~.5.3.5.~.^.^.^.^.~.~.^.~. .",
"Q ~.^./././.^././.~.5.3.~././././.^.^.^.^.5.^ ~./././.^./.^./././././.^.5.^.^.^.~.^./././././.^./.^.5.3.~././././.^.^.^.^.3. .^.^././././././././././.~.~.~.X.Q ",
"Q Q ^./.^.5.^./.^.~.5.3.~./././.^.5.3.5.^./.^.5.~././././././././.^.5.^.^.3. .5.5.~.~./.^.X.^./.~.^.5.3.~.)./.^.~.~.X.5.^./.^.X.~././././././././.^.~.~.~.X.Q E ",
"W Q ^./.^.Q ~.^./.~.5.3.~.^.^.~.5.5.5.5././.~.5.~.^./././.^.~./.^.^.~.^.^.5.5.5.~.~.~./.^.X.~.^.^.~.5. .~.^./.~.5.~.5.5././.^.X.5././././.~.~./.^.~.X././.X.Q W ",
"Q ~./././.5.X.~./.5. . .X.X. .X.5.^././.~.3.Q ^.^.~./././.~.^ ^.^././././.^././././././.^.X.X.^./.5.3.3.3.3.3.3.X.^././.^. . .^./.~./././.5.X.^././././././.~.X.",
"Q X./.~.~.X.^.~.~.~.X. .~.^.5.5.^.^.~.5.~.~.^.^.~.5.^././.~.5.^././.^.X.X./././.^.^.^.^.^.5.5.^.^.~.5.Q ~.^.5.X.^.^.~.X.^.^.^.^.5.5.^././.5.5.^././.^.X.~.^.~.~.",
"Q X.~.~.~.~./.^.X./.^.X.^././.^.^.^.5.X.X././.~.~.^ ^.^./.^.^.^./.^.~.Q X./././.5.5.5.^.5.^.^.^.~.^.^.5.~././.^.^./.5.X.5.^.^.5.3.5.~././.^.^././.^.~. .Q /.~.Q ",
"Q X.X.~.^./././././././.X.3./.^.^././.~.^.~.~.Q ^ ~.~.^././.^.^.^.~.X.~.^./.~.5.^.5.5.5.^./././././././.3.5./.^.^././.~.^.^.5. .3.~.~.^././.^./.^.~.~.~././.Q Q ",
"Q Q X.Q X./.^././././.^.5.5././.^./.^.~./.^.5.Q ~.^.5.5.^.^ ~./././.~.~././.X.X.^.5.3. .5.^.^.^./././.~.X.5././././.^.^.^.^.5. .5.^.5.3.~.3.~././.^.~.~././.Q E ",
"Q Q Q Q X.~.X.~././.^.X.X.^././.^.^.~.~././.~.5.~./.~.5.^ 5.~.^./.^.^.^././.~.3.^.5. .Q 3.5.5.~././.~.~.X.^././.^.^.^.^./.^.~.5.^.^.~.5.3.3.~.^././.~.^././.X.E ",
"X.Q Q X.Q Q ~.~.^.^.~.~.X.~.^.5.3.5.X.5././.^.^.^.^./.^.^.^.^.~. .X./././.^.^././.X.Q  .3.3.5.^.^.^.~.~.X.~.^.~.3.3. .5././.^.^.^./././.~./.^.5. .X./././.~.X.Q ",
"W W Q Q X.Q X.X.X.Q X.X.X.X.X.X. . . .3.5.5.5.~.5.5.^.~.5.^.~.^ W W 5.X.Q Q 5.5.5. .W  .3. . .X.X.Q Q X.X.X.X.X.3. .3.5.5.5.5.~.5.5.~.5.5.5.5.5.W W X.X.Q Q Q Q ",
"R E W Q Q X.Q Q W W W Q X.Q W Q 5. .5.3.W W Q 5.^ Q Q Q Q ^ ^ ^ W W Q W R W W  . .Q W  . . . .W W W Q Q Q Q Q Q 3.X.5. .W W Q 3.X.Q Q Q Q Q 3.3.W W  .W R W R R "
};
