/* XPM */
static char *Group_10_11__resized[] = {
/* columns rows colors chars-per-pixel */
"80 80 214 2 ",
"   c #2B3E3B",
".  c #2F5216",
"X  c #335A1D",
"o  c #37631B",
"O  c #39651D",
"+  c #3D6D1D",
"@  c #3F711F",
"#  c #294528",
"$  c #2E4B2B",
"%  c #314D2D",
"&  c #325524",
"*  c #355C23",
"=  c #33542B",
"-  c #365A2C",
";  c #3A5E2C",
":  c #2E4638",
">  c #324D33",
",  c #334B3C",
"<  c #345333",
"1  c #385733",
"2  c #3B5C33",
"3  c #36533A",
"4  c #385839",
"5  c #395B3A",
"6  c #366120",
"7  c #3A6423",
"8  c #3D6B23",
"9  c #3D642B",
"0  c #3F6A2B",
"q  c #3F7121",
"w  c #3C6232",
"e  c #41751F",
"r  c #43781F",
"t  c #406F27",
"y  c #416B2C",
"u  c #417620",
"i  c #457C21",
"p  c #487F24",
"a  c #427129",
"s  c #416830",
"d  c #160A41",
"f  c #1D1448",
"g  c #201B4E",
"h  c #221E53",
"j  c #25214D",
"k  c #2A264C",
"l  c #2D3D44",
"z  c #252152",
"x  c #292753",
"c  c #2B2955",
"v  c #272659",
"b  c #2B2B5C",
"n  c #2F3B55",
"m  c #313B5C",
"M  c #2B2D61",
"N  c #2E3162",
"B  c #303364",
"V  c #333768",
"C  c #343A6D",
"Z  c #353C71",
"A  c #383F76",
"S  c #2F4043",
"D  c #324544",
"F  c #344C45",
"G  c #32424D",
"H  c #344B4B",
"J  c #395644",
"K  c #36514C",
"L  c #39534D",
"P  c #324354",
"I  c #364B54",
"U  c #33435A",
"Y  c #364B5A",
"T  c #394C58",
"R  c #3B5556",
"E  c #3D6343",
"W  c #354465",
"Q  c #394B64",
"!  c #36446A",
"~  c #38476E",
"^  c #39496D",
"/  c #3C5365",
"(  c #364175",
")  c #394475",
"_  c #3A4B72",
"`  c #3A467A",
"'  c #3C4A7C",
"]  c #3E5176",
"[  c #425B5A",
"{  c #40605B",
"}  c #435C68",
"|  c #41547C",
" . c #425879",
".. c #47637B",
"X. c #478022",
"o. c #498423",
"O. c #4C8A24",
"+. c #3E4C81",
"@. c #414F85",
"#. c #415383",
"$. c #455A85",
"%. c #43558B",
"&. c #475B8D",
"*. c #485E8D",
"=. c #465991",
"-. c #495E94",
";. c #495F99",
":. c #4A6689",
">. c #556C84",
",. c #57768B",
"<. c #4B6394",
"1. c #4E6A97",
"2. c #4B629A",
"3. c #516C98",
"4. c #54739C",
"5. c #647D90",
"6. c #4E67A2",
"7. c #526CA4",
"8. c #556CA6",
"9. c #5672AA",
"0. c #5778A8",
"q. c #5A77B2",
"w. c #5B7AB4",
"e. c #5E7DBB",
"r. c #667CA9",
"t. c #6D8695",
"y. c #5E83AB",
"u. c #5F81BD",
"i. c #6088AE",
"p. c #6186B6",
"a. c #658BBC",
"s. c #6996BC",
"d. c #7A9EBE",
"f. c #6385C3",
"g. c #648AC5",
"h. c #6586C9",
"j. c #668AC9",
"k. c #6C99C4",
"l. c #6992CD",
"z. c #6C99CC",
"x. c #709DCB",
"c. c #6C95D3",
"v. c #6E9AD6",
"b. c #6E97D8",
"n. c #6F9BD8",
"m. c #709CD6",
"M. c #719EDB",
"N. c #6FA3C5",
"B. c #73A7C9",
"V. c #79B1CF",
"C. c #73A7D5",
"Z. c #73A1DE",
"A. c #7CB4D3",
"S. c #7CB8D8",
"D. c #75A4E1",
"F. c #77A8E4",
"G. c #78AAE6",
"H. c #7AACE9",
"J. c #7CB5E6",
"K. c #7DB3EC",
"L. c #7FB5F1",
"P. c #85A4BD",
"I. c #88A7C5",
"U. c #97BAC8",
"Y. c #88B8D5",
"T. c #80BDDA",
"R. c #81BAED",
"E. c #80B7F2",
"W. c #82BBF5",
"Q. c #83BEF9",
"!. c #83C2DC",
"~. c #A1C5DA",
"^. c #88C8E8",
"/. c #8DD4EC",
"(. c #8FD8EC",
"). c #95D8EC",
"_. c #88C6F3",
"`. c #86C3FD",
"'. c #88C6FF",
"]. c #8BCBFF",
"[. c #8DD4F2",
"{. c #8ED2FE",
"}. c #92DCF3",
"|. c #90D4FE",
" X c #93DBFE",
".X c #9BDDF8",
"XX c #A8D5E5",
"oX c #B4DAE8",
"OX c #96E2F4",
"+X c #9CE7F4",
"@X c #96E4FF",
"#X c #99E6FE",
"$X c #97E9FF",
"%X c #9BEAFF",
"&X c #9EF0FF",
"*X c #A4E9F7",
"=X c #A3EDFE",
"-X c #B4E5F0",
";X c #A3F0F6",
":X c #A2F4FE",
">X c #ABF2FF",
",X c #A5F9FF",
"<X c #ACFBFE",
"1X c #B9F1F7",
"2X c #B4F5FE",
"3X c #BAF7FF",
"4X c #B3FCFF",
"5X c #BBF9FF",
"6X c #CBEEF3",
"7X c #C4FCFE",
"8X c #CCFEFF",
"9X c #D4F7FA",
"0X c #D2FEFF",
"qX c #E2FEFD",
/* pixels */
". o e + + e e e e + + e e e r e @ r r r @ @ @ X.r r r r + + + @ @ @ e @ @ i r + o O e e + e e e e + + e r r r e e e r e + + e u r e r e e O e + e e e e e r + X ",
"O + e e e e @ @ e + e r i e r @ @ q @ @ + @ @ u @ @ @ @ @ u i i X.u e @ @ r i i r r e e e e e + + @ e r u r e @ @ e @ @ + @ e r e e e + e u i r r r e + e r e + ",
"r r e r p i e e @ e r X.i i i e @ i q + @ r i @ @ q @ @ q X.O.O.O.X.e @ @ i O.O.O.X.r i r i e e e r r i i i u u u i @ @ @ r i u e e e e e p O.O.O.X.e + e r r r ",
"e r o.O.o.i e r r e r X.o.O.O.O.o.o.q @ r O.O.o.o.X.X.o.O.X.i O.o.o.X.r r X.X.X.p o.o.o.o.X.e e r e e X.o.O.O.O.o.X.u @ i o.O.O.X.X.r o.p p X.o.o.o.X.i r X.r + ",
"e e p X.o.O.o.o.X.i i o.O.O.O.o.O.o.X.X.O.O.O.O.O.o.O.O.o.X.i X.i i O.X.i X.o.X.X.p X.p o.O.X.X.X.i i X.O.O.O.o.O.o.X.X.O.O.O.O.O.o.O.O.o.i i p i i o.o.p p r e ",
"e e e e X.O.O.o.O.o.X.o.O.o.i i X.O.O.O.O.O.O.O.O.O.O.o.X.i i u + q O.O.O.u o.O.o.i r e X.O.O.o.o.o.X.o.O.O.i u X.O.O.O.O.O.O.O.O.O.O.O.o.i r i e e o.O.o.r r r ",
"+ e e r p r p i u r u u u i o.o.o.o.X.u u i X.o.o.o.O.O.o.r r i @ e X.O.O.u r r i u e i p p i i i u u u u i X.O.o.o.X.r u X.X.o.o.O.O.O.o.i r r + e p o.O.p + O ",
"+ + e r r r e e @ @ @ q @ e i o.O.X.i i i u u r X.O.O.o.O.i u @ + + u X.i + + + e + e r r e e u e @ @ e @ e i O.O.X.X.u i u u u p o.O.O.o.p X.o.u r X.O.o.r + o ",
"@ @ @ X.X.@ @ @ @ q @ @ q @ @ i X.X.o.O.o.X.e @ u O.O.O.O.i q 7 * * 0 0 7 & & * & X o u r e e + @ @ @ @ @ @ @ q X.X.o.O.O.X.@ @ i o.O.O.O.O.O.O.o.o.O.O.X.e O e ",
"+ @ r i X.q @ @ @ @ @ @ r i q X.o.o.O.O.O.o.i o.O.O.O.O.p 7 > D l : : : : :     l   $ 8 r u e + @ @ q @ @ X.q X.o.X.o.O.O.O.X.o.O.O.O.O.o.o.o.o.i u i X.o.X.r e ",
"@ @ r o.o.X.@ @ u u i r i o.o.O.O.o.O.O.O.o.o.o.o.i i u 7 4 Y ' ' _ ) ^ ^ _ _ ] ] ] K 9 e e + O O q q @ X.X.o.O.O.o.o.O.O.o.o.O.O.O.O.o.p r o.o.u + + i O.O.r r ",
"r @ @ O.O.o.i i o.O.O.O.o.o.O.O.O.X.o.O.r X.o.r 7 7 * & > / 4.g.g.e.w.e.e.p.a.a.x.i.>.J ; X & $ $ & 8 X.X.o.O.O.O.X.O.O.u X.O.i o.O.O.X.e p O.O.u + e o.o.u e e ",
"@ @ @ X.O.O.O.o.@ i o.O.X.X.O.X.i O.O.o.o.O.O.8 4 H G G Q 3.k.R.R.H.F.F.G.R.^./.}.!.s...K l l U U G < q q o.O.o.X.o.O.o.O.O.O.o.o.O.O.O.o.o.O.O.p i O.O.O.r r e ",
"+ @ r X.o.O.O.o.@ q i O.X.i o.X.r O.X.i O.O.u 2 R ' +.+.1.g.J.|.{.].].].{..X%X:X<X+XS.i.:.' #.*.1.:.} w 7 O q q @ o.o.X.o.O.O.X.X.o.O.O.O.O.O.O.o.O.O.O.o.X.r e ",
"e r X.O.O.O.o.o.O.X.X.o.X.X.o.o.O.X.u @ r q 7 I $.9.u.h.z.H._.|.{.{.|. X#X%X,X,X<X&X}.S.z.a.k.B.Y.I.t.{ : # # & q i @ @ i o.O.u e i X.o.O.O.o.X.i i i i X.X.p r ",
"@ r O.X.o.O.o.O.O.O.o.X.o.o.o.O.O.u @ + 7 = I $.q.c.F.L.W.].].].].].|.#X%X:X:X&X&X&X%XOX(././.+X-XoXU.5./ U ^ K w 8 @ @ @ i X.q e i p i i p X.O.o.X.X.O.O.o.p r ",
"@ r o.r i O.o.o.O.O.X.u X.X.O.O.O.u @ 7 = I ' w.m.H.`.{.{.{.].].].]. X@X%X%X%X#X%X%X&X&X,X&X,X<X7X7X-XI.r.3.r.>.[ = o e e r r u u X.i u u i o.O.O.O.O.O.o.O.X.r ",
"r r e @ e X.i X.O.u @ @ @ u X.O.O.X.8 = T $.9.c.H.W.].].].|. X X X X@X#X%X%X%X%X@X%X%X&X&X,X&X,X4X4X1XXX~.~.~.I.>.D $ e r X.o.o.X.O.O.O.O.O.O.O.O.O.O.r u o.X.r ",
"e r X.r e u u i i u u i q @ X.O.O.X.* D #.9.l.H.`.`.].].{. X#X%X%X#X$X%X%X%X%X$X%X%X%X&X&X&X%X%X%X=X;X1X6X6X9XoXP.>.R - e r o.O.O.O.O.o.X.o.O.o.X.r X.r e u r r ",
"@ r O.o.i i i i u u i X.r @ X.O.o.i = P 2.h.G._.].].].{.|. X=X%X&X%X%X%X$X$X$X#X#X%X%X$X%X$X%X$X@X%X:X4X9XqXqX9XoXI.,.L = + p O.O.O.O.X.r i o.o.r e X.X.u e e r ",
"i r X.o.O.O.o.X.X.u u @ + q O.o.X.r & S *.f.H.].{.].{.|.@X%X%X%X%X%X%X$X@X@X@X%X$X%X%X%X%X%X%X@X$X$X&X:X4X7X0X0X9XoXP.>.D - r p X.o.o.O.O.O.O.O.O.O.O.O.O.p i r ",
"e p o.O.O.o.o.O.O.X.i i i i O.O.i 7 > T 3.c.R.].].].{.@X%X%X%X%X%X$X%X%X=X%X%X%X%X@X@X#X$X&X&X&X&X%X$X$X:X>X3X9X0X9XXXd. .L - u X.o.X.X.o.o.O.o.o.o.X.O.O.X.r r ",
"e r O.o.o.X.o.O.O.O.O.O.O.O.O.p t > P  .p.D.W.{.].].|.@X%X&X%X$X@X#X%X>X2X2X2X>X=X$X@X$X%X&X,X:X&X#X@X X@X*X=X1X7X7X2X).s.:.H 9 q i X.q @ q X.i r r u o.O.X.r r ",
"r r i X.O.O.X.i X.o.O.O.O.O.O.7 < Q *.w.M.K.`.].].].{.@X%X%X%X%X@X#X:X3X7X8X7X3X>X%X@X@X%X&X&X%X@X{.].].].].{..X*X>X,X;X^.k.:.H & + @ i i i @ q e e i X.X.o.r r ",
"e r X.o.o.o.i i i X.i i o.o.8 < Y <.p.M.R.Q.`.`.`.'.|. X%X$X%X%X%X:X3X7X8X0X0X7X2X>X%X&X#X/.^.A.C.m.M.Z.D.Z.Z.K._. X,X<X;X/.k. .H = o @ u u @ q @ @ X.X.i X.i @ ",
"@ r O.O.i @ u X.X.i u q i 8 < Y =.f.D.E.`.'.`.`.`.].|. X%X$X%X%X>X3X7X8X0X0X0X7X7X5X>X,X}.A.i.3.<.2.6.9.9.9.6.u.F.[.=X4X<X:X/.s.$.H = o + @ q @ @ @ X.O.X.X.i @ ",
"e i o.X.r + @ r O.O.O.X.8 4 Q -.u.Z.E.Q.].].].`.'.'.|.#X%X$X%X=X2X7X8X8X8X8X8X8X0X7X5X4X(.N.3._ ( ` +.' ( C Z %.u.J._.OX+X:X;X/.k.>.H $ O q q i i i i X.O.O.X.@ ",
"e i o.X.X.r @ r O.O.i a 5 / 2.e.b.H.W.`.].|.|.{.].'.{. X%X$X%X=X2X3X7X8X8X8X8X8X0X0X7X7X*XV.y.1.<.:.+.( v g z C <.u.z.C.S./.;X%X/.k.:.L - 8 i o.o.o.X.X.i O.X.@ ",
"e r O.O.O.O.O.O.O.u 6 > Q <.e.c.D.G.E.Q.]. X#X|.].].{. X%X%X%X%X=X>X5X7X0X0X8X7X8X0X8X8X1XXXT.V.S.N.i.+.v f h M Z @.%.-.0.B.}.:X&X/.s.:.K - @ O.O.O.O.o.i X.r @ ",
"@ e o.O.o.r o.O.X.8 < G &.u.n.D.G.D.H.Q.|. X#X X{.'.{. X%X%X%X%X@X%X>X2X7X8X0X8X8X8X8X8X5X<X+X+X+XOX!.s.| M b z z x h v _ 0.!.;X4X;X!.i.] , 6 o.O.o.X.X.o.r @ + ",
"@ r o.O.X.e X.o.o.8 = U <.h.D.G.D.D.H.Q.{. X X|.].].{.@X&X%X%X$X@X@X%X>X2X7X8X0X0X0X7X7X5X<X,X,X<X&XOX!.i.$.C h f f d d M 1.V.;X4X<X(.a.' : X o.O.o.X.o.O.i @ + ",
"e r O.O.o.X.r o.O.+ $ n &.u.n.D.D.D.H.Q.].|.].].'.'.|.@X%X&X%X%X$X@X%X%X>X3X7X0X0X8X7X2X;X&X&X&X&X&X&X+XT.i.#.b h b z h C 4.V.;X4X,X^.u.( : X X.o.o.o.O.O.o.i r ",
"@ r o.o.o.r X.o.i 8 < n -.f.Z.F.D.D.G.E.`.'.'.'.'.].{. X#X#X%X%X%X$X$X@X%X>X5X7X7X7X2X=X#X@X%X%X%X%X&X,XOXS.i.:.#.*.*.*.4.s.^.;X<X,X/.z.3.R - q X.O.o.q i O.o.i ",
"@ e X.X.X.X.o.o.i q - m -.h.Z.G.G.M.D.F.K.Q.`.'.].].].{.|.#X%X%X%X%X$X@X$X%X>X2X2X>X>X#X$X@X$X@X#X%X&X<X%X}.S.N.s.N.N.B.A.^.OX&X&X%X X^.B.,.R 2 0 q o.q @ O.X.@ ",
"@ e i i o.O.O.O.O.u - P &.e.v.D.F.Z.M.M.F.L.Q.].].'.`.'.]. X#X=X%X%X%X%X%X%X%X%X%X=X%X%X%X@X%X%X#X%X%X%X%X#XOX}.).}.}.}.}.#X+X$X|.{.|.@X}.V.,.U = O X.X.o.O.r @ ",
"@ @ r e i o.o.O.O.i 7 < Q :.w.l.M.Z.M.m.D.G.R.W.W.L.W.Q.'.|. X#X%X%X%X%X%X@X%X#X$X$X@X%X%X%X%X#X%X%X#X%X%X&X:X,X<X,X$X(.^.(.@X X_.C.J.}.&X^.g.~ , 8 q o.O.O.@ o ",
"@ @ @ @ i X.i X.O.o.u 6 < R $.q.c.Z.Z.M.Z.Z.G.G.F.G.K.W.'.].]. X#X%X%X%X%X%X@X@X@X@X$X@X%X%X%X%X%X%X$X#X%X&X,X,X,X&X^.x.a.C._._.M.w.a.T.OX_.g._ , 6 X.o.O.o.r O ",
"r e @ e q q r o.o.o.X.i 7 3 W 2.f.M.H.D.Z.Z.M.M.M.Z.H.Q.'.'.'.]. X@X%X%X%X@X%X$X%X#X%X%X#X%X%X%X%X%X%X%X%X%X%X%X X_.l.;.' 4.n.C.y.+.<.u.J.M.9.P $ 6 o.O.o.o.i @ ",
"e r r r X.i i X.X.X.X.X.+ $ m =.f.M.G.D.Z.c.c.n.Z.G.W.`.'.'.Q.].]. X@X%X%X&X%X%X%X%X#X%X%X%X%X%X%X%X%X&X&X:X&X@X_.c.6.Z V +.q.u.<.V ` 7.j.0...w * + o.o.i i @ i ",
"@ r X.o.o.O.o.i i u X.X.O > W -.f.M.H.D.Z.c.n.Z.H.W.`.'.'.'.'.].'.]. X@X%X&X&X%X%X%X%X#X%X%X%X%X%X%X&X%X%X%X%X^.v.7.` M M Z +.$.) N C +.<...E q q @ o.i @ i r @ ",
"o e X.X.X.o.o.o.o.i i O.8 > W <.h.M.G.D.M.M.D.L.Q.'.].].'.'.'.Q.`.`.]. X@X#X#X@X#X%X%X%X%X%X@X@X#X@X@X%X@X{._.c.2.) c z c c N V B N N b P < 8 q X.o.O.i X.O.r @ ",
"+ e p r r o.p r X.u i o.7 > W 2.h.M.D.D.D.H.H.Q.`.].].].'.'.'.Q.`.`.].{.|.|.|. X#X%X&X&X%X@X X{.{.|. X@X[.J.z.7.' N z j k c v N B C n l $ 7 X.o.O.o.i r r O.X.@ ",
"r r e p X.i e @ e r i p 7 > W 2.f.Z.D.D.D.H.Q.'.].'.].`.'.'.'.'.`.'.'.].'.'.].{. X%X&X&X$X X{.'.'.].{. X_.c.7.' N b c x k k v N Z ( G > 7 q O.O.O.X.e @ @ i X.r ",
"@ r X.O.o.X.e e r e e i O < W 2.f.Z.D.Z.D.H.W.'.].`.].].'.`.'.'.'.'.'.`.`.Q.`.].|. X@X@X X{.'.`.Q.`.].{.J.g.&.N h v c k k k k N ( +.I w p X.o.o.o.X.X.r r X.r @ ",
"@ e X.X.o.O.X.X.X.i i X.8 3 W 2.f.Z.F.D.D.D.H.W.`.].].'.'.'.`.'.'.'.`.`.`.Q.`.`.].{.{.{.{.].'.`.`.`.].|.J.g.&.N z c c k k k k B A +.T w p i i i u X.O.X.i X.r @ ",
"e e e u X.O.O.O.O.X.X.X.8 1 W -.h.M.F.D.Z.M.M.G.E.`.].].'.'.'.'.'.'.'.'.'.'.'.'.'.].'.'.'.].'.`.'.'.].|.R.l.<.C v b c k k k c B Z _ K w i i i i @ @ o.O.O.u r @ ",
"+ + e i i i X.i i u u e X > W 2.f.M.G.D.M.n.n.Z.H.E.Q.].].].'.'.'.'.'.'.'.'.'.'.`.`.`.`.`.'.'.'.`.'.|.|._.l.2.Z c b x k k c m V U H w u p u e i @ + X.O.O.i @ o ",
"+ e e X.i e e e e @ @ e X : W 2.h.Z.G.D.M.m.n.M.Z.F.E.Q.].].].`.'.'.'.'.'.'.'.'.'.`.`.`.`.`.'.'.].].|.|.R.l.<.Z v b x k k m C U F 9 a X.o.X.i p i i X.O.O.@ + o ",
"+ e e r r e e e @ q @ 8 X : W 2.h.D.F.D.M.M.M.M.M.M.F.E.`.'.'.].'.'.'.'.'.'.'.'.'.'.'.'.'.'.'.'.'.'.].|.J.l.<.C v c x k x V ) P J q O.O.O.O.O.O.o.O.O.O.o.@ + @ ",
"+ + r r i i + + + e e + X , ) 8.c.G.H.F.D.M.M.M.m.M.M.H.E.`.].].].].].'.'.'.'.'.'.'.'.'.'.'.'.'.].].].].Z.e.+.N v c x x b C ) Y w X.O.O.o.X.o.o.i q q X.O.X.q r ",
"e e r r o.X.e e u i i i 6 > ^ 2.j.D.H.D.M.M.M.M.M.M.M.M.G.E.`.].].`.`.'.'.'.'.'.'.'.'.'.'.'.'.'.].].`.W.n.q.%.V b b b c b Z ) T w a O.o.p X.X.o.q + @ X.O.o.X.r ",
"e r r O.O.O.i i X.o.O.O.q - J ] 8.j.b.D.F.D.M.M.M.M.m.M.M.G.R.Q.W._.`.'.'.].'.].'.'.].'.'.].'.'.'.W.E.H.v.e.7.%.! N b b b Z ` U 4 q o.o.q X.O.O.q + @ o.O.r @ @ ",
"e + r o.O.O.O.X.q X.O.O.i 8 0 J } 8.h.Z.E.D.M.M.M.M.M.m.M.D.H.H.H.H.L.`.].].].].].].].].].].].`.W.H.F.D.m.c.f.9.%.A B c B C ` U 4 u O.O.X.O.O.O.o.X.o.O.O.i r @ ",
"O e r r o.O.O.o.@ q q O.X.i i 7 D | 8.h.M.E.F.M.M.M.Z.M.M.Z.Z.M.n.D.H._.`.'.].`.'.`.`.`.`.].]._.K.D.M.M.M.Z.D.h.7.' B v b C ) P 4 u o.O.O.O.O.O.o.O.O.O.o.X.u @ ",
"e r p o.O.O.o.o.O.X.q O.X.p p q 2 [ | 8.h.b.M.G.F.M.M.M.M.M.M.b.c.n.D.K.L._.L.L.L.L.L.L.W.W.L.L.G.M.v.m.Z.H.L.b.9.' M x c V Z n < q X.O.O.O.O.X.X.i X.X.X.o.i u ",
"e r o.o.o.O.o.O.O.O.o.X.X.o.o.p y 3 P | 8.f.b.E.F.Z.Z.M.Z.M.M.b.n.n.Z.D.G.G.H.G.G.F.F.J.F.H.G.F.D.M.n.m.D.H.H.c.8.' m c b V C n < @ r X.r r X.o.o.X.X.o.O.o.X.r ",
"@ X.o.r i O.o.o.O.O.o.q X.O.O.o.a s , P | 8.h.M.D.D.D.D.Z.M.Z.M.M.M.Z.n.Z.Z.n.Z.D.M.M.Z.M.M.Z.n.Z.M.M.M.Z.D.D.c.q.=.( N b A | ^ J 9 q q u i X.O.O.O.O.O.O.O.r r ",
"@ u i @ @ X.i X.o.q @ @ @ @ X.X.u s 2 , [ | 3.h.D.D.F.F.M.M.M.M.Z.Z.n.n.n.n.n.n.n.n.n.n.n.n.n.n.M.M.Z.M.Z.D.Z.m.l.e.<.` C %.7.4...R 2 q O.O.O.O.O.O.O.i r o.X.r ",
"@ r o.q q i i i X.i @ X.@ @ X.X.a y s ; , G | 8.h.M.G.D.D.n.n.Z.Z.n.n.Z.n.n.n.Z.n.n.M.b.n.n.Z.n.M.Z.M.Z.Z.Z.M.D.Z.c.q.%.` -.e.g.9. .3 * q X.O.O.i i X.i e u r r ",
"@ X.o.X.i i i u q q X.o.q q X.X.u y t t 1 > l | 7.g.b.D.D.D.D.D.D.D.D.D.D.D.D.D.D.D.D.D.D.D.D.D.D.D.D.Z.D.D.D.D.Z.c.q.&.+.2.p.j.w.*.L - q X.X.o.r e i i i e e r ",
"r r o.O.O.O.o.X.o.@ @ @ @ @ O.O.u t t y s 2 3 T | 7.h.M.H.L.H.H.H.H.H.H.H.H.H.H.H.H.H.H.H.H.H.H.H.H.H.H.H.H.L.D.c.q.2.@.+.=.7.8.:.} 3 y o.O.O.O.O.O.O.O.O.r r r ",
"@ X.o.O.o.O.o.O.O.o.X.r q o.O.O.p e e t s s ; 3 T ] 7.j.D.D.Z.n.n.M.n.n.n.n.n.n.M.M.b.M.b.M.M.M.b.M.M.b.Z.D.Z.l.9.$.^ ! ( ` ' ] [ [ y u o.o.o.o.o.o.o.O.O.o.X.r ",
"@ r O.o.o.X.o.o.O.O.O.O.O.O.O.O.o.e e t 7 * 7 ; 3 P ] 7.u.f.f.u.u.u.u.u.u.u.u.u.u.u.u.u.e.u.u.u.u.u.u.u.f.f.f.9. .U l n P U U K 1 7 u u u u u i r r r o.O.X.r r ",
"r r X.X.o.O.o.X.o.o.O.O.O.O.o.o.r e e e O t 9 s 2 , R  .;.6.6.;.;.;.;.;.;.;.2.2.;.;.;.;.;.;.;.;.;.;.;.;.;.2.6.#.[ J < < 3 J J 2 ; 7 u i i u u e e e p p X.o.r @ ",
"@ r X.o.o.o.i i i i X.i X.O.o.i i p i u q q y a 9 1 F T ^ _ ) ^ ^ ^ ^ ^ ^ ^ } Z | } Z } } Z } ! } Z ! ! | | ) [ [ ; ; ; ; 9 s a u t t e e e e e @ e X.i p X.r @ ",
"@ r O.O.i @ u i o.X.u u i O.o.o.o.O.O.o.O.p u a t 9 3 , l P G G l l D D D D D l   l l l l l l l D l   [ l l G l 1 s y y y t a o.r e e e e e t e e r X.O.X.X.r e ",
"e i O.X.@ @ @ u O.O.O.o.O.o.X.o.O.O.O.O.O.O.p i t 0 1 < > > 1 1 < 1 1 1 2 2 2 2 1 2 2 1 1 % % = 2 2 2 2 2 2 3 2 s s s s y u u p O.O.r e e e e e r r p o.o.O.i r ",
"r r o.X.X.i @ X.O.O.o.O.o.o.o.O.o.O.O.O.O.X.i i u y 9 9 y t y y t s s 9 y y y y s s 9 y ; ; ; ; s s y y y y y y y t y y t t u p O.O.p r r r o.r o.o.X.X.X.o.X.e ",
"@ X.O.O.O.O.O.o.O.X.i u X.O.O.O.o.O.O.X.X.i e i p i i i r o.o.i a y y s 9 9 9 y y y s s y y s s s 9 7 t i p p p r r u t r e e p O.O.O.O.o.O.O.O.O.O.O.X.r X.r e ",
"@ @ X.O.o.i o.O.X.o.i u o.O.O.o.o.i u i O.O.o.u i o.o.o.o.o.o.p u y 9 9 t ; ; ; ; ; y s y ; y 9 9 9 7 O p O.O.p p r u u p o.o.r r O.O.O.O.O.O.O.O.o.X.X.o.r @ + ",
"@ @ X.O.o.@ X.o.O.X.i e i O.O.X.i i i i O.O.X.i p o.O.O.O.o.p p u y 0 y y 7 0 7 t t t t t * 7 t y y 7 e p p O.p r o.r r o.O.p r o.o.O.O.O.o.X.o.o.X.r O.O.r e + ",
"@ X.O.O.o.X.r X.O.i e e r u r r i o.O.O.X.@ @ o.o.p O.O.O.i r p p i u p i u i i r r r i e e t e r e e e r r r r r O.O.O.o.e e o.o.o.O.O.O.r r o.O.O.O.O.O.o.r r ",
"@ X.X.o.X.r X.X.X.X.r e X.o.i r X.o.X.p X.X.o.o.p i o.O.O.r p o.o.o.X.r e o.O.O.p p p p r r p r r p r e r O.p p p o.p r p p o.O.p r o.O.O.X.r o.O.O.o.r r O.X.r ",
"@ r X.X.X.X.O.o.r O.O.r X.O.O.o.o.O.r r r O.O.X.i u X.O.O.o.X.O.O.O.X.e e O.O.O.X.X.r o.o.o.o.o.i o.p r o.O.O.p o.o.p r p O.O.r r r o.O.O.o.o.O.O.o.X.r e O.X.r ",
"@ r r X.o.O.O.O.O.O.O.O.r i O.o.X.O.o.X.o.X.i e u p r o.O.o.o.O.o.X.r X.o.o.X.i X.r r r o.O.O.O.O.O.O.O.r r O.o.o.O.o.o.p p r r r X.p o.O.o.o.o.o.X.r X.o.O.r @ ",
"+ @ r @ r O.o.O.O.O.O.X.i r O.O.O.O.o.o.O.o.i u p o.p r X.r p O.O.O.X.X.O.O.r r o.r r e p o.o.o.O.O.O.p r r O.O.O.O.o.o.O.o.r r p o.i r p i X.O.O.o.X.o.o.O.r o ",
"@ @ @ @ r r X.X.O.O.o.r r o.O.O.o.X.X.X.O.O.X.i X.o.p i r r X.o.O.O.X.o.o.O.p r o.o.e e u i i p O.O.o.r r o.o.O.o.o.p p O.O.r p r O.p r r r p o.O.O.o.o.O.O.r o ",
"r @ @ r r @ r X.X.O.X.X.X.X.o.i i r r p O.O.o.X.X.O.O.O.X.o.o.p e e O.O.O.o.X.o.O.r e e u e i p O.o.p r p p o.r r r r r O.O.O.p o.O.O.o.o.o.o.i r r O.O.O.X.r e ",
"+ @ @ @ @ @ r r r @ r r r r r r u e r r i i i i p i i i i i r r + + r e e e r p r e + e u e e e r e e e r e r e e r r r r r r r r i p i i i i i + + r r e @ @ + ",
"o o @ @ r r @ @ + + + @ @ @ + @ r e r r + + e r e e @ e e e r r + + e + o + e e e + + e e e e e e e o e e e e e r e r r e e e r r e e e e e e u + O e + o + o o "
};
