/* XPM */
static char *Group_10_28__resized[] = {
/* columns rows colors chars-per-pixel */
"80 80 243 2 ",
"   c #0C0D07",
".  c #13150B",
"X  c #161517",
"o  c #1E1B16",
"O  c #1D1618",
"+  c #1D1A1B",
"@  c #2C1A16",
"#  c #231B1B",
"$  c #261818",
"%  c #3A1E16",
"&  c #1A2B0E",
"*  c #1D2416",
"=  c #1E2C14",
"-  c #1F281C",
";  c #212517",
":  c #232C16",
">  c #23241A",
",  c #2B271C",
"<  c #242C18",
"1  c #372619",
"2  c #243316",
"3  c #263318",
"4  c #29351A",
"5  c #283A18",
"6  c #2A3B19",
"7  c #373918",
"8  c #1F1D23",
"9  c #2A1E20",
"0  c #2C2223",
"q  c #2A2429",
"w  c #322325",
"e  c #372726",
"r  c #352A2D",
"t  c #3A2B2C",
"y  c #373425",
"u  c #2F2731",
"i  c #372D35",
"p  c #3C3135",
"a  c #4B1E14",
"s  c #591F17",
"d  c #472917",
"f  c #582617",
"g  c #453318",
"h  c #5A3615",
"j  c #682915",
"k  c #772B14",
"l  c #643714",
"z  c #6D3B14",
"x  c #643419",
"c  c #743C15",
"v  c #7A3916",
"b  c #482A26",
"n  c #572D22",
"m  c #48332D",
"M  c #583829",
"N  c #422D34",
"B  c #443333",
"V  c #4B3533",
"C  c #493937",
"Z  c #443539",
"A  c #4C3B3B",
"S  c #573B32",
"D  c #523E3B",
"F  c #65382B",
"G  c #753624",
"H  c #6C3E31",
"J  c #294316",
"K  c #2C4419",
"L  c #2D4B19",
"P  c #32441B",
"I  c #324D1A",
"U  c #2E5219",
"Y  c #32541A",
"T  c #3C531B",
"R  c #355B1B",
"E  c #3B5E1A",
"W  c #37621B",
"Q  c #3A641C",
"!  c #3D6D1D",
"~  c #3F711F",
"^  c #3F7320",
"/  c #4A4617",
"(  c #574617",
")  c #534C17",
"_  c #485417",
"`  c #45551A",
"'  c #435C1A",
"]  c #4C5B1A",
"[  c #535519",
"{  c #565919",
"}  c #7B550F",
"|  c #664A16",
" . c #774716",
".. c #665819",
"X. c #735416",
"o. c #785618",
"O. c #44641B",
"+. c #4C651C",
"@. c #436B1D",
"#. c #4C6A1D",
"$. c #53621B",
"%. c #546B1D",
"&. c #41751F",
"*. c #4A731F",
"=. c #43781F",
"-. c #55711F",
";. c #61671C",
":. c #726E1F",
">. c #4C4C2D",
",. c #5A4821",
"<. c #59433B",
"1. c #66462B",
"2. c #785129",
"3. c #674737",
"4. c #764733",
"5. c #7B5237",
"6. c #427620",
"7. c #4B7422",
"8. c #457C21",
"9. c #4A7D21",
"0. c #4B702C",
"q. c #597620",
"w. c #53773A",
"e. c #647621",
"r. c #70712A",
"t. c #4D3C42",
"y. c #564645",
"u. c #554B54",
"i. c #644B44",
"p. c #68534B",
"a. c #765B49",
"s. c #6B5852",
"d. c #705C53",
"f. c #7C6E4D",
"g. c #796557",
"h. c #7B6D66",
"j. c #862F13",
"k. c #873715",
"l. c #963916",
"z. c #953C16",
"x. c #863826",
"c. c #83560D",
"v. c #874717",
"b. c #9A4416",
"n. c #9D4C16",
"m. c #994518",
"M. c #885617",
"N. c #9A5818",
"B. c #A75D0A",
"V. c #A34C19",
"C. c #A85619",
"Z. c #B75B1B",
"A. c #886317",
"S. c #976417",
"D. c #B86E0B",
"F. c #AC6518",
"G. c #B5671A",
"H. c #BB6B1A",
"J. c #AC7218",
"K. c #B97519",
"L. c #BD7A1A",
"P. c #8D482F",
"I. c #855D26",
"U. c #874934",
"Y. c #875A36",
"T. c #985A35",
"R. c #A65628",
"E. c #A55736",
"W. c #937528",
"Q. c #8A6439",
"!. c #986938",
"~. c #AC752D",
"^. c #A56735",
"/. c #B46A36",
"(. c #AA7539",
"). c #B47A36",
"_. c #C7671D",
"`. c #D06E1F",
"'. c #C5731B",
"]. c #C97A1B",
"[. c #D67C1E",
"{. c #CB782F",
"}. c #877449",
"|. c #8E704D",
" X c #967648",
".X c #A57744",
"XX c #816C62",
"oX c #877464",
"OX c #478022",
"+X c #498423",
"@X c #4C8A24",
"#X c #4D822A",
"$X c #558425",
"%X c #6D8424",
"&X c #828526",
"*X c #9D8828",
"=X c #AE902A",
"-X c #B8992D",
";X c #BB823C",
":X c #CA841A",
">X c #D68A1C",
",X c #DD921C",
"<X c #E0921E",
"1X c #EFB01D",
"2X c #CB8935",
"3X c #D28B35",
"4X c #CE9032",
"5X c #EA9921",
"6X c #CBA130",
"7X c #D9A835",
"8X c #EDAE2F",
"9X c #F5BA21",
"0X c #E7A938",
"qX c #948C54",
"wX c #AA8348",
"eX c #B68C46",
"rX c #B39250",
"tX c #A4A54F",
"yX c #8A846B",
"uX c #968765",
"iX c #A99B69",
"pX c #B1A96B",
"aX c #CB9B43",
"sX c #D8A841",
"dX c #E8B84B",
"fX c #C7B867",
"gX c #C5BD74",
"hX c #EED054",
"jX c #E7D469",
"kX c #FAF27C",
"lX c #A3A09A",
"zX c #D3CE89",
"xX c #DDDA99",
"cX c #EDEB8B",
"vX c #EDEBAE",
"bX c #F9F7A8",
"nX c #F7F6BB",
"mX c #C5C5C2",
"MX c #FEFDCB",
"NX c #FBFBD3",
"BX c #EBEBE0",
"VX c #FEFEE8",
"CX c #FFFFF6",
/* pixels */
"U W &.! ~ ~ ~ =.~ ! ~ =.~ =.=.~ ~ =.=.=.! ! ~ 8.8.=.=.=.~ Q ;.=X8X6X7.! ~ 8.=.! W ! ~ ! ~ ~ ~ ~ =.! ! =.6.6.=.=.~ =.=.~ ! ! ~ =.6.=.=.6.~ ! ! ! ~ 6.6.~ ~ =.! R ",
"Q ! &.&.6.6.~ ~ ~ ~ ~ 6.=.=.=.~ ~ 6.~ ~ ! ! ^ 6.~ ~ ~ ! ! &.q.&X=X*X#.! ~ =.8.8.6.6.&.~ =.=.~ ~ ~ ~ ~ =.6.6.6.~ ~ ~ ~ ~ ~ ~ =.=.^ ~ ~ ! ~ 6.8.6.8.8.=.! ~ 8.=.! ",
"=.=.&.=.8.8.^ ! ~ =.=.OX8.8.6.6.^ 6.^ ~ =.6.8.6.^ ^ ~ ! 6.OX@X9.q.e.@.! =.8.+X@X@XOX6.8.8.8.~ ! ~ =.=.OX8.8.6.6.6.6.^ ~ ~ 8.8.6.6.^ ! ~ 6.OX@X@X@XOX~ ~ ~ 8.=.=.",
"&.=.+X@X@X8.6.=.=.=.=.OX+X@X@X@X@XOX6.~ 6.@X@X+XOX8.OX@XOXOX9.OX@X$XOX6.=.OX+XOX+X+XOX@X+XOX=.=.6.~ =.OX+X@X@X@X@XOX6.~ 8.OX@X+XOXOXOX+XOX+XOX@X+X+XOX6.=.+X=.! ",
"~ =.OXOX+X@XOXOXOX8.8.+X@X@X@X+X@XOXOXOX@X@X@X@X@XOX@X@X+XOX9.8.6.8.@X+X8.8.OX+XOXOXOXOX+X@XOXOX+X8.8.+X@X@X@X+X@X+XOX+X@X@X@X@X@X+X@X@X@X8.8.8.8.8.@XOX9.8.6.=.",
"&.&.=.=.OX@X@X@X@X+XOXOX@X@X8.8.OX@X@X@X@X@X@X@X$X@X@X+XOX=.6.8.^ ^ OX@XOX8.OX@X+X8.6.6.OX@X@X@X+X+XOX+X@X@X8.6.OX@X@X@X@X@X@X@X@X@X@X+X9.8.8.8.~ 6.+X@X@X8.6.6.",
"! ! &.=.9.8.8.8.6.6.6.6.6.8.+X+X@X+XOX=.=.8.*.q.e.&X%X@X+X=.=.8.! ^ 9.@X@X8.8.6.OX6.6.6.8.9.8.8.8.6.6.6.6.8.OX@X+X+XOX6.6.OXOXOX@X@X@X@X@X6.6.8.! ! OX@X@X6.! Q ",
"! ! &.=.8.=.=.&.^ ^ ^ ^ ^ ~ 8.+X+XOX8.8.6.8.=.%.:.&X$X+X@XOXOXOX8.6.OX@X@X6.~ 6.8.6.6.OX8.6.^ 6.~ ~ ~ ^ ~ ^ 8.@X@XOX8.6.8.6.8.6.6.@X@X@X@XOXOX+X8.6.+X@X@X6.! W ",
"! ~ =.OX6.~ ^ ^ ~ ^ ~ ^ ~ ^ ! 8.+X=.+X@X+X+X*.O.%.:.$X+X@X@X@X@X@X+X@X@XOX~ 6.8.8.6.6.OX8.! ~ ~ ^ ~ ^ ^ ^ ^ ^ 6.OXOX+X@X@XOX^ ^ 6.#X@X@X@X@X@X@X@X@X@X@X@X~ ! ! ",
"! ! =.8.8.6.~ ^ ! ~ 6.~ 6.6.6.OX+X+X+X+X=.=.=.+X$X$X@X@X+X+X+X+X6.6.6.OX@XOX@X+X8.6.6.8.8.8.~ ~ ! ^ ~ ~ ^ 8.6.8.+XOX@X@X@X+XOX+X@X@X@X@X+XOX+X+X6.6.6.OX+XOX6.=.",
"! &.6.OX+XOX6.^ 6.8.8.6.8.OX+X@X@X+XOX@X%Xe.*.@X@X@X@X+X9.8.+X+X^ ! ! OX@XOX@X@X+X6.6.OXOXOX=.=.6.8.8.6.8.OX@X@X@X+X+X@X@X+X+X@X@X@X@X@X8.8.OX+X^ ! ! OX@XOX8.=.",
"=.=.6.@X@X@X8.6.OX@X@X@X+X+X@X@X@X+X=.%X6X*Xq.=.+X@X@XOX=.OX@X@X6.! ^ +X@X6.8.@X@X8.6.@X@X@X8.8.8.@X@X@XOX@X@X@X@XOX@X@X6.OX@X8.+X@X@X9.=.OX@X@X6.! ~ OX@X6.~ =.",
"! ~ =.8.@X@X@X8.6.6.@X@XOX8.@X+X=.@X=.%X6X=X-.9.@X@X@X@X+X@X@X@X+X8.+X@X+X=.8.OXOX8.6.OX@X@X@XOX6.6.+X@X+X8.@XOX8.+X@X@X+X@X@X+X@X@X@X@X+X@X@X@XOX8.+X@X@X8.=.&.",
"! ~ =.8.@X@X@XOX6.^ 6.@XOX8.@X8.=.@X=.e.7X=Xq.9.+X+X@X@X@X@X+X+X6.9.@X@X+X+XOXOX8.6.8.8.+X@X@X+X&.&.8.@X8.8.@X8.8.@X8.8.@X@X@XOX8.@X@X@X@X@X@X@X@X@X@X@X+XOX=.! ",
"&.8.OX@X@X@XOX@X@X8.6.@XOX8.OX@X@XOX! q.7X-Xq.*.=.=.+X+X+X@X+X6.` ` =.OX9.OX@X@X@XOXOX+X@X@XOX+X@X8.8.@X+XOX+X@X@XOX^ ^ 6.@X@X6.6.8.+X@X@X@X@X8.8.8.8.8.OXOXOX6.",
"~ =.@XOX@X@XOX@X@X@X@XOX@XOX@X@X@X=.! *.*XW.#.! =.=.OX=.6.6.7.$.o.2.O.*.+X@X@X@XOX9.9.*.OX@X+X+X@X@X+XOXOXOX@X@X@X6.^ ^ 6.8.OX^ 6.6.8.8.6.8.+X+X@X8.+X@X@X@XOX6.",
"&.=.OX8.8.@X+X+X#X@XOX6.8.@X@X@X@X6.&.@.e.%.@.6.8.8.8.8.6.@.$.2.~.=X..+.=.@X@X@XOXe.e.%.7.@X+X+X@X@XOX6.8.+X@X@X@X6.6.6.6.6.6.6.8.8.8.8.6.8.OX@X@X@X@X@X@X@X8.=.",
"=.=.6.&.6.8.8.9.+X6.^ ^ ~ ^ OX@X@X@XOX8.9.+X$X+X+X+X+X@XOX] X.:X0X0XR.( E OX@X@X+X%X*X:.-.8.8.OX@X6.^ 6.! 6.+X@X@X@XOX9.OXOX@X@X+X+X+X@X@X@X@X@X@X@X@X8.6.+X8.6.",
"&.=.OX6.6.6.6.8.8.^ 6.8.^ ~ OX@X@X@X+X+X8.8.+X@X@X@X@X7.{ o.J.8X9X0XC.| T &.+X@X+X%X%Xe.*.6.8.8.8.6.6.8.^ ^ 8.@X@X@XOXOX8.8.@X@X@X@X@X@X8.+X@XOX8.8.OX8.=.6.=.=.",
"! 8.@XOX8.8.8.8.8.6.8.OX6.~ OX@X@XOX+X+X8.8.OX@X@X+X@X+.h N.,X9X9X>Xn.| E ! 8.+X+X=.8.8.8.6.8.6.6.6.8.OX6.6.8.+X@X+X@X+X8.8.8.@X@X@X@X+X8.8.OX@X8.6.8.8.8.~ ~ =.",
"6.8.8.@X@X@XOXOX8.6.6.^ ! 6.@X@XOXOX@X@X@X@X@XOXOX+XOX+.l Z.<X9X9X>Xn.| O.=.+X@X@X+XOX+X@X+XOXOXOX6.6.^ ! 6.@X@XOXOX@X@X@X@X@XOX8.@X+X@X@X@X@X@X@X@X@X@X@X9.=.=.",
"6.8.OX@X@X@X@X@X@X@X8.8.8.8.@X@X@X6.8.@X+X+XOXOX+XOXOX] h V.[.1X1X].n...@.=.@X@X+X+X+X@X@X@X@X+X@X+X8.6.8.OX@X@X@X6.8.@X@XOXOXOX@XOX8.+XOX@XOX@X+X+XOX@X@X+X8.=.",
"&.8.@X@X+XOXOX@X@X@X@X@X@X@X@X@XOX6.6.8.8.6.6.@X@X8.=.' h b.`.5X5X].m...O.=.+X+XOX+X@XOXOXOX+X@X@X@X@X@X@X@X@X@X+X6.6.OX6.6.6.@X@X8.8.6.^ 6.8.8.8.=.6.OX@XOX8.=.",
"=.=.8.8.@X@XOX8.8.@X@X@X@X@X@X9.8.8.6.6.6.8.OX@XOX&.Q _  .V._.].>X'.n.( ! =.=.=.+X+XOXOX@X@XOXOX8.@X@X@X@X@X@X+X8.6.6.6.6.6.@X@X@X6.6.8.8.6.6.6.&.&.8.9.+XOX8.~ ",
"=.=.OX+X+XOXOX8.8.8.8.8.+X@X+X8.8.8.8.6.8.OX@X@XOXQ ) o.J.G.Z.Z._._.m.{ Q @.] [ 8.OXOX+X+XOX8.8.8.8.8.8.+X@X@X8.8.OX8.6.8.+X@X@XOX~ ^ 6.6.6.6.^ ~ ~ OXOXOXOX=.~ ",
"! 8.+X@X8.~ 6.8.+XOX6.^ 8.@X+XOX@X@X@X+X@X@X+X@X8.O.| N.>XL.C.b.Z._.m.| ' ] | X.%.9.@X+X8.=.6.OX#X8.8.! 8.@XOXOX@X@X+X+X@X@X@X@X+X6.6.~ ^ ^ ~ ~ ~ =.+X+XOXOX=.~ ",
"=.8.+XOX=.~ ~ =.@X@X@X@X+X+X8.@X@X@X@X@X@X@X+X@X+X*._ X.F.N.m.b._.`.l.k | A.L.L.} $.=.=.6.! ! 6.@X@X@XOX@X@X8.@X@X@X@X@X@X@X+X+X@X+X6.! ! ^ 6.8.6.8.=.+X+X@XOX=.",
"=.8.+XOX8.8.~ =.@X@X@X+X@X@XOX@X@X@X@X@X@XOX8.+X@X+X=.$.X.v.k.m.R.C.l.j f M.J.K.z ( O.Q ! ! ! 8.@X@X+X@X+X+XOX@X@X@X@X@X@X9.8.+X@X@XOX8.6.8.OX+X+X+X+XOXOX+X=.=.",
"~ 8.@X@X@X@X+X@X@XOX8.6.+X@X@X@X@XOX@XOXOX8.6.OX@X@X@X=.+.( c k.v x j s a h | | d d 7 J I R 6.@X@XOX6.6.OX@X@X@X@X+X@XOXOX6.6.OX@X@X@X+X@X@X@X@X@X@X@X+XOXOX=.~ ",
"! =.OX@XOX8.@X@X+XOX8.6.OX@X@X@XOX8.6.8.@X@X+X6.=.@X@X@X=.] h x % 9 b n h 1 , 1 g M F M y 6 Q 8.OX@X8.6.OX@X@X@XOXOX6.8.@X@X@X6.8.@X@X@X@X@X@X@X@X+X8.OXOX=.~ ! ",
"! =.OX@XOX=.OX+X+XOX8.6.8.@X+X8.8.8.8.8.@X@XOX8.OX@X@X@X@XO.( n t q B 1.2.,.V C r.T.5.i.C r P W 8.8.8.6.OX+X@XOX8.OX8.8.OX@XOX8.OX@X@X@X@XOXOX@X@XOXOX+X@X8.~ ! ",
"=.8.@X@X+X8.=.OX@X8.^ 6.6.8.6.6.8.@X@X@XOX~ ~ +X@XOX+X@X+XT g F H i.y.!.).). X XaXeX|.g.p.y.e 6 ! ^ 6.6.=.=.~ 6.8.OX@X@XOX=.~ @X@XOX@X@X@X=.=.+X+X@X@X@X@XOXOX=.",
"~ 8.+X+XOX8.OXOXOXOX8.6.8.+X8.8.OXOXOX8.9.OXOXOXOX8.+X8.Y : 1 1.!.eX).(..X.XeXaXwX XoXoXXXd.D e 6 R ! ^ OX@X8.8.OX@XOX8.OXOXOX+X8.8.+X@X@X8.8.+X@X@X+X8.8.@XOXOX",
"! =.8.OXOXOX@X+X8.@X+X6.+X@X@X+X+X@X9.6.8.@X@X8.^ ^ ^ Y - + r 1./.3X2X(.|. XaXaX|.s.g.oXXXXXs.D e I R ! 8.@X@XOX+X+X8.6.OX@X@X8.6.8.OX@X@X+XOX@X@X+X8.=.~ @XOX~ ",
"~ =.6.8.OX@X@X@X@X@X@X@X6.6.@X+XOX@X@XOX+XOX8.6.^ 8.L - q u t S 2.I.!.a.d.wXsXsXa.u.u.d.XXoXXXd.y.y 6 R ! 6.@X+XOX@X@X9.OXOX8.6.8.OX9.OX@X+X+X@X+XOX8.OXOX@X8.! ",
"! ~ =.=.8.@XOX@X@X@X@XOX8.8.@X@X@X@X+X+X@XOX6.6.! ' / ,.3.3.y.V m m S A p. XaXaX Xa.XXqXuXuXoXXXd.B y J W 6.@X@X@X@X+XOX@X+X8.6.8.+X8.8.OX8.OX@X@X+XOX+X@X@X~ W ",
"&.~ ~ ~ 6.OX8.OX@X@XOX8.8.+X@X@X@X+XOXOX@X@XOX! ` ( I.^.). Xa.t.Z i u i A a. XwXeXrXpXgXgXpXuXXXg.<.q & W OX@X@X@X@X8.OX@X@XOX9.OX+XOX8.6.6.8.@X@X@XOX+X@X@X~ ! ",
"=.&.! =.^ ^ 8.OX+X@XOXOX8.8.@X8.6.6.6.8.@X@XOXY >.U.).3X3X;X|.a.p.t.r r Z t.i. XdXhXkXbXbXxXiXoXd.A y 5 R 8.@X8.6.6.8.8.@X@X@XOXOX@X@X@XOXOX@X8.=.=.@X@X@XOX8.=.",
"=.=.=.8.OXOXOXOXOXOXOXOX8.OXOX8.8.8.OXOXOX@X8.Y g M Y.!.Q.(.)..Xg.y.Z p N p D }.7XhXkXnXMXMXzXiXa.y.C y 5 Y 6.8.8.8.8.OXOX@X@XOX+X+X@X+X+X+X@XOX&.=.OX+X=.6.=.6.",
"! =.OXOXOX@XOX8.8.8.8.OX@X+X8.OX@X@X@X@X8.8.8.R K e V D y.Y.).eX Xp.i.3.3.<.3.Q.6XhXkXMXVXVXbXgXuXg.p.<.>.I ! OX@X@X@X@X8.8.OX9.9.6.OX8.*.8.OX@X=.=.+X=.=.=.=.~ ",
"Q ~ @X8.OX+X+X+X@X6.8.@X@X@X@X@X@XOX@X@X8.OX8.R 6 9 t Z A 3.5.(.).).).).(.).).~.Q.tXcXMXCXCXVXnXzXuXf.oXqXqX$X8.+X@X@X@X8.8.9.O.` E 9.q./ ' =.9.OX+X@XOX8.@X8.! ",
"! =.9.8.8.OX8.8.OX6.8.+XOX8.OX8.6.9.OX6.6.8.6.Y 4 # r B Z t.<.Y.).3X3X2X2X2X).!.3.}.fXvXVXCXVXMXcXpXwXiXpXtX9.=.6.8.8.8.6.^ #...X...$.$.M.X.$.*.OX+X8.6.8.@XOX=.",
"=.=.=.8.8.8.~ ~ 6.6.8.OX8.6.6.6.6.6.6.! ~ 8.6.U : 0 r m B p Z <.Q./.3X{.(.!.Q.5.C y.}.zXbXNXMXbXkXdXaX.X%Xw.6.&.6.6.6.! ^ E [ W.;X~.| } ].F.X.' 8.OX=.! ~ 8.=.=.",
"~ =.OX+X+XOX6.6.6.6.6.8.@X@X@X@X@XOX^ ^ 8.@XOXR 4 , e N N B C A D 4./..X5.A A <.A Z C f.pXcXzXjXdX0X2XI.y I =.@X@X8.6.! 6./  .3X0X4XN.B.>XK.o.` =.+XOX=.=.OX=.~ ",
"! 6.OXOX+X@X+XOX8.8.8.OX@X@X@X@X+X@X+X8.OX@X@XW 4 # r t t m N i Z 3.^.T.S i i t.D B N 3.f.qXqX;X7X{.^.n o & &.+X+X+XOX=.8.[ v 4X8X7XV.b.G.A...O.@.8.@XOX8.OX6.~ ",
"~ =.6.6.OX@X@X@X@X@XOX+X@X@X8.6.8.@X@X@X@X@X8.U 4 # w e N N N t N 4./.T.1.p B <.D D D D A A S |.aXaX}.B - 2 ! =.OXOXOXOX+X] z '.<X:Xb.k c [ @.6.~ ~ +X@X@X6.6.=.",
"! ~ 6.6.8.8.OX8.6.6.6.6.^ 6.#X@X@X@X+X8.8.! Y : # # w r e e w u N 4./.!.1.t p C D <.<.D V N A }.fXjXfXf.y & =.@X9.O./ ` *._ z K.>X].v.h _ O.~ 8.~ ! 9.@X@X8.! Q ",
"! ~ 6.OX8.~ =.^ ^ ^ ^ ^ ^ ^ 8.6.~ E R Y R L < o > 4 , w e w u q e 1./.T.H u i B D D D D C Z A |.cXbXvXpX>.& R &.%...X.X.+./ z G.[.'.k.( 6.8.OXOX6.6.@X@X@X^ ! Q ",
"! &.=.=.8.~ ~ ~ ~ ~ ^ ~ ~ ~ ~ R K : : 3 3 : # : J Y 4 9 u w 9 9 u F E.P.S r i N V V V A A A D qXcXNXBXlXy.  & 6 ) S.L.J.X.h v Z.`._.v ) 9.@X@X@X+XOX@X@X@X! ! ! ",
"! ! =.=.8.=.~ ~ ~ ~ ~ ~ 6.8.^ W 5 ; ; : 2 2 3 I R Y < # 9 9 w e m H U.U.4.V r t r t r i N D 3.qXfXvXmXlXi   X 1 l G.:XL. .j k m.Z.G.n.X.+.6.8.OX8.6.6.@X@XOX6.6.",
"~ @.=.=.OX=.=.&.~ 8.8.6.OXOXOX^ R K K I L I R R Y K # O 9 b f G 4.G F H H H V t t t t r N 3.T.!.}.yXh.u.q . O # d v.F.N.h j k j.V.G.].S.| ' *.8.^ ! ! 8.+X+X8.6.",
"=.=.=.OX9.7.&.8.OX@X@X@X+XOX@X@X+X8.+X+X! &.6.L : # O # w h z.C.R.4.N M P.P.H S M <.M M <.U.E.Y.m 8 X X * : : - < g h g , 1 j j.n.K.>XL.v.] =.@X6.! ! @X@X6.=.6.",
"! ~ ~ @._ { 7.8.6.6.OX@XOXOX@XOX8.@X@X8.T J P < o X X @ a m.L.].R.x w b G x.P.P.U.T.T.E.T.Y.4.M r O . = L R E Y U ' ' ' E / z V._.].F.M.;.*.+X@X+X8.@X@X@X6.6.! ",
"! ~ @.)  .v.;.*.! ^ 6.@XOX8.+X=.Q &.! Y : O # O * < : 1 j F.>X>XV.j b j  .V.E.E.T.T.E.{./.T.M r 0 9 > 5 R 6.8.8.6.+X8.=.=.] z F.'.J.c.[ =.+X@X+X@X@X@X@X+X+X6.6.",
"~ ! ` o.F.H.o.[ 6.8.8.@XOX8.OX! I 5 : : o # > ; 5 R R / x G.>X>Xb.k j n.L.].Z.x.H M 3.T./.T.m 8 # 9 9 , 6 R 8.@X@XOX=.! =.{ c V.V.X.$.*.@X@X+X+X8.8.8.8.8.+X8.6.",
"O.[ } F.'.G.m.| @.9.@XOX@X+X@XQ K ; # o * : < 5 R 6.6.' h F.[.[.b.j j N.].'.v.s e 0 w F U.U.b 9 O 9 9 0 , 6 R 9.@X8.~ ~ ~ _ z b.v.( @.=.=.=.+X+XOXOX@X+X@X@X8.8.",
",.} B.:X'.V.b. .+.8.OX^ 6.8.OXR 3 > # ; 5 L Y R =.=.=.+.l V.`._.z.j a v B.N.l $ + X + 0 b n n e $ o # w 9 , 6 R 6.6.~ ~ ~ _ z l.c / @.OX=.=.+X@X@X@X@X@X@X@X8.=.",
"1.M.D.:XG.z.l. .O.! ! U R W Q L ; # ; K ! 8.OX+X+X+X+XO.l V.Z.C.v a O % s d 1 = = = * * ; 4 g 1 2 : * > w w > 5 Y ! ! Q W / c l.k.) *.@X@X@X@X@X@X@X@X8.=.+X8.=.",
"$...c.K.'.Z.m.| O.W L 5 3 4 6 ; # ; I Q 6.OX+X@X@X@X+X#.| z.V.j.f O X O @ , J W R R R U L Y E ' T Y L K , 9 $ o : 6 K 5 6 g k l.v ) *.@XOXOX+X+X8.6.OX8.~ 6.=.=.",
"~ W ) M.H.'.m.h T L 2 O O O ; ; < K ! +X9.8.OX@X@X@X@X+.l k.j.f @ X X $ ; J ! @XOXOX+X8.8.~ 6.6.~ =.~ R 3 - < < ; o O + $ d j k.v.{ *.+X=.OX+X+X6.=.8.OX8.~ &.=.",
"^ ~ *.{ M.n.x 1 ; * O # # > P R R ! 8.@X@X@X@XOX9.+X+X#.h k.j.j @ X O : J ! +X@X@X+XOX@X@X@X+XOXOX6.~ W Y Y Q Q Y 3 o + $ @ b v v ) *.@X@X@X@X@X@X@X@X@X@X9.8.=.",
"^ OX=.O.( j g 3 : : 3 3 3 K ! 8.8.=.8.@X+XOXOXOXOX=.#...c.V.b.f @ X = I @.=.@X@X@X+X+X@X@X+X@X+X@XOX8.=.=.=.8.+X6.U 6 3 : > w n F / O.=.+X=.@.*.OX+XOX@X@XOX8.=.",
"~ 9.+XE 7 1 P U Y Y R R R ! OX@XOX6.6.8.8.&.=.@XOXO.) M.L.K.V.f @ o J ! +XOX+X@XOX+X@X+XOXOX+X@X@X@X@X@X@X@X@X@XOX! Y U U 3 0 e d g 6 Y ! ` / ' @.6.6.+X@XOX8.=.",
"=.=.=.Q L 5 Q ~ ~ =.8.8.9.+X+X9.8.8.6.&.&.8.@X@X=.Q / M.].].C.f @ = ! =.+XOXOXOX+X+X8.OX@X@XOXOX8.+X@X@X@X@X+X9.=.=.! ! ! Y 5 , 0 0 > 5 ' X.M.X.{ ! 6.OXOXOX=.&.",
"~ =.8.&.W R ^ 8.8.+X+X8.@X@X@X8.8.OX8.6.8.OX@X@XOX@.' ..S.C.b.j @ 2 &.OX8.OXOXOX+X+XOX+XOXOXOX8.8.OX8.6.@X@X@X8.8.OXOX8.OX=.Q 6 - 8 O 1 ( N.H.C.| _ =.OXOXOX=.! ",
"~ =.+X@X8.^ ^ 8.8.8.6.^ 8.@X+X9.+X#X+X@X+X@X+X@XOX=.W / l j.k d , K ~ 8.OXOXOX+XOX+X+X@XOX~ 6.OX+X8.6.^ 8.@X+X+X+X@X+XOX@X@X8.W 5 * ; d j Z.].H.c / =.@X@X=.=.=.",
"=.8.+XOX^ ^ ^ 6.@X@X@X@X@X+X8.+X@X@X@X@X@X@X+X@X9.~ K g z k f 1 I ! 8.OX+X@X@X@X+X+X+XOX~ ~ ~ 6.@X@X@X+X@X+X8.+X@X@X@X@X@X@XOX6.! Q Y 6 d v n.v.d 7 ~ +X@X+XOX8.",
"&.=.+XOXOX8.^ 8.@X@X@X@X+X+X+X@X@X@X@X@X@XOXOX+X8.Q 3 % j f g U ! +XOXOXOX+X@X+X+X@X+XOXOX8.~ =.@X@X@X+X+X@X8.@X@X@X@X@X@X8.8.OX@XOX^ Y 4 h | ( 6 J R R E #X#X=.",
"~ OX@X@X@X@X@X@X@XOX8.6.OX@X@X@X@X+X@XOXOX6.&.8.8.Q < @ 1 1 T =.@X@X@XOX8.OX+X+X+X+X@X@X@X@X@X@X@X+X8.6.8.#X@X@X@XOX+X+XOX6.=.8.@X@X@X6.Q E O.O.R L = . - w.#X~ ",
"~ ~ OX@XOX8.OX+XOXOX8.6.OX@X@X@XOX8.6.8.@X8.! ! &.! 3 O ; I &.+X@X+X8.OXOX8.=.=.9.OXOX@X+X8.+X@XOX+X8.=.+X@X@X@XOXOX8.6.@X@X+X8.8.@X@X+X8.8.8.8.=.R : . * w.w.! ",
"~ ~ OX@XOX~ OX@X@XOX6.=.8.@X+XOX8.8.8.8.OX-.{ [ O.Q < - K Q =.+X+XOX8.@X@X8.8.8.OXOXOX@XOX=.OX+X+XOX8.6.8.@X@XOX8.OXOX8.@X+XOX8.8.@X@X@X@X@X#X@X@X&.U J U 0.8.! ",
"~ OX@X@X@XOX=.OX@X8.6.=.=.6.=.=.8.@X@XOX@...v.o.{ T ; 6 ! =.=.+X+X@X@X@X@X+X@X@X@X@X@X@X+X8.=.OX@X8.~ =.6.6.^ 6.8.OX@X@XOX=.=.+X@XOX@X@X@X8.6.OX+X+X+X+X@X#XOX=.",
"~ =.+X+XOXOXOXOXOXOX=.=.OX+X8.8.OXOX8.O.( M._.G.v.g @ 5 ! 6.8.+X@X+X+XOX=.+X@X@X@XOX+X+XOX8.OX9.OXOX8.~ OXOXOXOXOX+XOX8.OXOX+X+X8.8.+X@X@XOX8.OX@X@X@X8.OX@XOXOX",
"~ =.OX+XOXOX+X+X=.@X+X=.OX@X@X+XOX@X8.O.( M.H.G.v.f $ 6 ! 8.+X@X@X+X+X~ =.@X@X@X8.OX8.8.OXOX+X@XOX@X@X6.OX@X@XOX+X+X8.=.9.@X@X8.6.6.OX@X@XOXOX@X@X+XOX=.~ @XOX~ ",
"~ =.=.=.+X@X@X@X@X@X@X@X8.=.@X+XOX@X@X9.7.;. . .f $ O 5 ! 8.+X@X+XOXOXOX+X@XOX=.OX8.8.8.+X@X@X@X@X@X@X@X8.=.@X+XOX@X@XOXOXOX8.6.6.OXOX+X@X@XOX@X+XOX8.OX+X@X8.! ",
"! ~ =.=.=.@XOX@X@X@X@XOX=.8.@X@X@X@XOX8.@...M.M.x @ ; P ! 6.OX@X@X+XOXOX@X@X=.=.OX8.6.6.8.@XOX@X@X@X+XOX=.8.@X@X@X@X+X+X@XOX6.=.8.@X8.6.OX8.8.@X@X+XOXOX@X@X~ W ",
"~ ~ ~ ~ =.OXOXOX@X@X+X=.=.OX+X@X@XOX8.@._ } J.D.v.7 P W ! 6.8.@X@X@XOX+X+X@XOX6.+X8.&.~ 6.8.8.OX@X@X+X=.=.OX@X@X+X+XOXOX@X@XOX8.OX@XOX6.6.8.8.@X@X@XOXOX@X@X~ ! ",
"=.~ ~ ~ ~ ~ =.+X+X@XOXOXOXOX+X8.6.8.&.Q g c.D.D.} / =.@X8.@X+X8.~ =.@X@X@XOX@X@X@X8.! =.6.~ 8.OX+X@X+XOXOXOX+X8.6.6.6.8.@X@X@XOXOX@X@X@X8.@X@XOX=.=.@X@X@XOX8.~ ",
"! ~ ~ ~ =.~ =.=.=.~ =.=.=.=.=.=.&.&.&.@.` ..M.M...O.8.OX8.8.8.6.! ! OX6.~ ~ 8.8.8.6.~ &.6.6.=.=.=.~ ~ =.=.=.=.=.6.6.6.8.8.8.8.8.8.8.OX8.8.8.8.6.! ! =.=.~ ~ ~ ! ",
"W Q ~ ~ ~ =.~ ~ ! ! ! ~ ~ ~ ! =.=.=.=.=.! ] ,.( +.~ ~ ~ ^ ~ 6.6.! ! ~ ! W ! ! &.&.~ ! ~ 6.6.! ! ! ! ~ ~ ~ ~ ~ ~ 6.=.=.=.! ! =.6.6.~ ~ ^ 6.~ 6.6.! Q =.! Q ! Q W "
};
