/* XPM */
static char *Group_10_13__resized[] = {
/* columns rows colors chars-per-pixel */
"80 80 224 2 ",
"   c #15093B",
".  c #2D3F3E",
"X  c #2F5216",
"o  c #335C1D",
"O  c #37631C",
"+  c #39661D",
"@  c #3C6D1D",
"#  c #3F711E",
"$  c #2D4A26",
"%  c #2A452E",
"&  c #2D492C",
"*  c #304D2C",
"=  c #2F5024",
"-  c #315326",
";  c #355B23",
":  c #385D25",
">  c #33552B",
",  c #365A2C",
"<  c #3A5C2C",
"1  c #2E4A32",
"2  c #2E4538",
"3  c #324D34",
"4  c #324C3C",
"5  c #355334",
"6  c #395637",
"7  c #365832",
"8  c #3A5C33",
"9  c #36523B",
"0  c #39553A",
"q  c #3B5A3A",
"w  c #376124",
"e  c #3A6424",
"r  c #3D6C23",
"t  c #3C642B",
"y  c #3F692B",
"u  c #3F7121",
"i  c #3B6132",
"p  c #41751F",
"a  c #43781F",
"s  c #406E24",
"d  c #40672E",
"f  c #416C2B",
"g  c #417521",
"h  c #457C21",
"j  c #487F26",
"k  c #427129",
"l  c #406C33",
"z  c #1E1749",
"x  c #211B4E",
"c  c #26224E",
"v  c #2A264C",
"b  c #2C3B48",
"n  c #303E4E",
"m  c #262252",
"M  c #2A2751",
"N  c #2B2955",
"B  c #29265C",
"V  c #2C2C5B",
"C  c #2E3658",
"Z  c #2F3E5A",
"A  c #303F5B",
"S  c #2C2E60",
"D  c #2E3263",
"F  c #313465",
"G  c #323C65",
"H  c #31366A",
"J  c #333A6C",
"K  c #353D71",
"L  c #383E76",
"P  c #2E4344",
"I  c #334C42",
"U  c #344A45",
"Y  c #33444D",
"T  c #354C4B",
"R  c #365144",
"E  c #3A5745",
"W  c #39534D",
"Q  c #344553",
"!  c #364953",
"~  c #394D57",
"^  c #34445B",
"/  c #374A5C",
"(  c #3B5756",
")  c #354365",
"_  c #3A4C67",
"`  c #36436D",
"'  c #38456E",
"]  c #3D5567",
"[  c #364273",
"{  c #394475",
"}  c #3D4D74",
"|  c #3A457A",
" . c #3C4B7D",
".. c #3E5177",
"X. c #405754",
"o. c #405372",
"O. c #405675",
"+. c #41547C",
"@. c #44597B",
"#. c #496571",
"$. c #478022",
"%. c #498423",
"&. c #4C8A24",
"*. c #3C4581",
"=. c #3E4C82",
"-. c #3F5081",
";. c #404F84",
":. c #425383",
">. c #475D87",
",. c #42548B",
"<. c #45598D",
"1. c #475993",
"2. c #495E94",
"3. c #4B6787",
"4. c #58738A",
"5. c #4B6294",
"6. c #4C6995",
"7. c #4C629A",
"8. c #4F689B",
"9. c #516B96",
"0. c #526E95",
"q. c #567697",
"w. c #60779D",
"e. c #64799D",
"r. c #4E65A1",
"t. c #4F6AA2",
"y. c #516BA4",
"u. c #546EA9",
"i. c #5673AB",
"p. c #5777A8",
"a. c #5875B4",
"s. c #5B7BB4",
"d. c #5E7EBB",
"f. c #667DA3",
"g. c #5C83AC",
"h. c #5E82B8",
"j. c #6685AC",
"k. c #6492A9",
"l. c #7590AF",
"z. c #668AB6",
"x. c #6085BC",
"c. c #6996B9",
"v. c #6185C2",
"b. c #658AC5",
"n. c #668DC9",
"m. c #688ECC",
"M. c #6B98C6",
"N. c #6A92CD",
"B. c #6C94D2",
"V. c #6E9AD5",
"C. c #6F9AD8",
"Z. c #709FD6",
"A. c #729FDC",
"S. c #74A5C7",
"D. c #76ADCC",
"F. c #7AB3CC",
"G. c #6EA0D3",
"H. c #75AAD7",
"J. c #73A1DE",
"K. c #7CB7D8",
"L. c #76A5E2",
"P. c #78A7E5",
"I. c #77A8E4",
"U. c #78AAE5",
"Y. c #7AACEA",
"T. c #7EB7E1",
"R. c #7DB2ED",
"E. c #7FB5F1",
"W. c #8BA8BC",
"Q. c #89ABC7",
"!. c #8BB0CD",
"~. c #84BAD8",
"^. c #95BCD7",
"/. c #9DBFD6",
"(. c #82BCEC",
"). c #80B7F3",
"_. c #82BCF5",
"`. c #84BDFA",
"'. c #88C2DF",
"]. c #9CC3DA",
"[. c #A4C8DA",
"{. c #86C7E7",
"}. c #8ED3E4",
"|. c #8DD3EC",
" X c #92D9EC",
".X c #85C2F3",
"XX c #8ACBF5",
"oX c #86C3FD",
"OX c #88C6FF",
"+X c #8BCBFF",
"@X c #8ED2FF",
"#X c #93D9F4",
"$X c #91D6FD",
"%X c #93DBFF",
"&X c #ABD6E6",
"*X c #B3D8E8",
"=X c #8FE4FF",
"-X c #98E4F4",
";X c #95E5FF",
":X c #99E6FE",
">X c #97E8FF",
",X c #9BEBFF",
"<X c #9EF1FD",
"1X c #A1E5EE",
"2X c #B5E3ED",
"3X c #A9E9F7",
"4X c #A3EDFF",
"5X c #AAEEFD",
"6X c #AEF0F6",
"7X c #A2F4FE",
"8X c #ABF3FE",
"9X c #A5FAFE",
"0X c #ACFBFF",
"qX c #B3F4FF",
"wX c #BAF6FE",
"eX c #B3FAFF",
"rX c #BCFAFF",
"tX c #C5EBF1",
"yX c #C5F4F8",
"uX c #CCF6F9",
"iX c #C5FDFF",
"pX c #CCFEFF",
"aX c #D2FEFE",
"sX c #D8FBFC",
/* pixels */
"X O p @ p # p p p @ @ p p p a p # h # h # @ # $.# h # h # @ @ # # # h # # # h @ + @ # @ @ # # # p # @ p a # a # # a a # # @ # h a p a p @ @ p p p p a p p a @ o ",
"+ @ p p p a @ # p @ p h a a a # # # # # # # h # # # # # # u u %.h h # # # $.$.$.g p p p p a # # # # # a h # g # # a # # # # a # p p p s p p a a a a p @ p a p + ",
"a a p a $.h p p p p a h h h h g u h # # # # %.# # # # # # $.&.&.&.$.# # # $.%.&.&.%.p h $.h # # # a a $.h h h # g g # # # # h g p p s p p $.&.&.&.$.p @ p a a a ",
"p a %.&.%.a p a a p a $.%.%.&.&.%.%.# # h %.&.%.%.$.%.%.%.$.%.%.%.%.%.# # $.$.$.$.$.%.&.%.$.a p a p a $.%.&.&.&.&.$.a # $.%.&.&.$.$.a $.a %.$.%.%.%.$.g a j a p ",
"p p j $.%.&.%.$.%.h h %.&.&.&.%.%.%.%.h &.&.&.&.&.%.&.&.%.$.%.%.a $.%.%.$.$.$.$.%.$.$.$.&.&.$.$.%.a h $.&.&.&.&.%.%.%.%.&.&.&.&.&.&.&.&.%.j a j h j %.$.a %.a p ",
"p p p p $.&.&.%.%.%.$.%.&.&.h h %.&.&.&.&.&.&.%.&.&.&.&.&.# # h # # %.&.%.$.$.&.%.h p g $.&.&.&.&.%.%.%.&.&.h h %.&.&.&.&.&.&.&.&.&.&.&.$.h h a p p %.&.&.a p a ",
"@ p p a a j a j h g g g g h %.%.%.%.%.# h $.$.%.%.&.&.%.%.h # # # # $.&.&.$.# $.$.g p h h h $.h g h g h g h %.%.%.&.$.# h $.$.%.&.&.&.&.%.a a a @ p h &.&.h p + ",
"@ @ p a a a a a # # # # # g h %.%.%.$.%.u u $.u $.&.&.&.&.$.%.%.a # %.&.&.# # # h a g $.h p g u # # # # # # h &.%.$.$.a u g h u a &.&.&.&.$.%.%.a a j &.%.a + + ",
"# # # %.%.# # # # # # # u # # h %.$.%.&.&.$.# # a %.&.&.&.&.&.&.&.%.&.&.%.# u %.u u u $.g # @ @ u @ u @ # r r g $.$.%.&.%.u u u a &.&.&.&.&.&.&.%.$.&.&.$.p @ s ",
"# # # $.$.u # # # u # # a h u $.%.%.%.&.&.%.h %.%.&.&.&.&.%.%.%.h # u %.%.%.%.u # O O O w O o o o o o o o O o O r u %.&.&.&.%.&.&.&.&.%.%.%.%.%.h p h %.%.$.p a ",
"# # # %.%.%.# # g g h a $.%.%.&.&.%.&.&.&.%.%.%.&.&.&.&.a $.$.%.# @ # %.&.%.h u * % % 1 & & % % % % % % & 1 3 3 1 , u &.&.%.%.&.&.&.&.%.h a %.%.g @ @ a &.%.a a ",
"# # # &.&.%.%.u %.&.&.&.%.%.&.&.&.%.%.&.$.$.%.$.$.&.&.j p $.&.&.u + # %.&.u e 8 Q G G G A A C n Z Z Z Z A Z A J ^ 2 y %.u $.%.h %.&.&.$.p j &.&.g @ p %.%.a p p ",
"# # # %.&.&.&.%.# u &.&.$.h &.%.h &.%.%.%.&.&.%.%.&.g : ; w e w w o ; + + o , ( 0.p.p.q.p.e.e.e.w.w.e.e.4.e.e.j.j.#.X.w + r w ; ; s $.%.%.%.&.&.$.h %.&.&.a a p ",
"# # # $.%.&.&.%.a u h &.$.h %.$.h &.%.h &.&.&.%.a h , 4 I 4 4 4 2 4 4 3 2 3 ( 4.S.T.K.K.~.^./.]./././.].].].[.[.].l.#.I 1 1 2 P 4 5 k %.&.&.&.%.&.&.&.&.%.$.a p ",
"# # %.&.&.&.%.%.&.%.h %.$.$.$.&.&.%.# # h &.&.h r , ~ } :...} } ..} } ' ` ` 3.c. X<X<X<X3XwXyXuXyXyXyXyXyXyXtXsXtX[.l.O.` ' ..-.+.X.8 g %.&.&.$.a a j j $.%.j a ",
"# $.&.%.%.&.%.%.&.&.%.%.%.%.%.&.&.g # # u h u O = W 4.g.b.h.j.l.l.z.j.s.p.p.M.{.<X9X<X9XeXiXiXpXiXiXiXiXiXyXsXsXsXtX[.l.f.j.l.S.l.4.X.< @ a %.&.%.$.$.%.%.&.$.a ",
"# $.&.a a &.%.%.&.&.%.h h %.%.&.&.g p g a u r = T 3.c.~.|.{.'.[.[.[.'.'.K.~.{.#X<X9X9X9X9X0XeXeXwX0XeXeX0X0XwXpXaXaX2X*X[.[.*X*X&XW.4.W = e a &.&.&.&.&.&.&.j a ",
"a a a # a $.a $.%.g # # # u %.&.&.&.$.$.h u t ! 3.M.|.,X7X7X6XrXiXiX6X7X<X<X<X<X,X,X>X>X,X,X>X>X>X,X,X>X>X>X4X6XiXuXpXuXuXuXsXsXuX2X!.w.! < p %.&.&.&.a g %.a a ",
"# a %.# p a a h h g g h # # %.&.&.&.%.h r 7 ( 3.z.(.$X:X7X0X0XrXiXrX0X9X<X9X7X<X,X;X;X;X;X;X=X=X=X=X;X>X;X=X,X9XeXiXpXpXpXpXaXpXpXwX2XQ.4.X.> s a a $.a p g a a ",
"# a &.$.h h h a g g h %.u # %.&.&.%.%.g = T >.h.U.+X+X$X:X,X9X9X9X9X<X<X<X<X<X,X,X>X;X>X;X;X;X;X;X>X>X>X;X;X,X<X7X6X6X6X6X6X6X6X9XeXiX*XW.4.X.> s p a j g p p a ",
"g h $.&.&.&.$.$.$.a # # # u %.&.$.%.%.k 1 _ u.C._.$X+X+X@X%X;X;X%X;X>X,X,X,X,X>X>X,X4X4X4X4X4X8X4X,X,X,X,X,X;X{.K.H.F.F.K.K.{.|.;X0XiXyX*XD.q.( < p $.&.&.h g a ",
"a h %.&.&.&.&.&.&.%.h h h $.&.&.%.g $.g 1 _ u.B.(.+X+X+X@X@X@X+X@X@X;X,X,X,X>X;X;X,X8XwXwXwXwXwXwX8X,X,X<X,X#XD.g.6.6.t.0.p.c.H.XX8XqXqX5X#XS.4.X.8 s $.&.$.a a ",
"# a &.%.%.$.$.&.&.&.&.&.&.&.&.&.%.a a u & ) 2.d.J._.oXOX+X+XOXOX+X@X%X,X,X,X,X:X:X4XwXiXpXpXpXpXpXwX5X,X<X<X|.c.6.[ [  .[ | -.v.(.|.#X#X%X4X|.c.3.b - p &.%.a a ",
"a a h $.&.&.$.h $.%.&.&.&.&.&.$.h g g + % Z =.a.B.Y.R.E.`.`.oXOX+X$X;X>X,X>X;X,X5XwXiXpXaXaXpXaXpXiXwX8X9X9X|.D.g.6.6.6.[ B B =.i.N.m.G..X,X,XK.2.C = @ %.%.a p ",
"p a %.%.%.%.$.h h h h h %.&.%.j $.%.$.@ $ Q ,.a.B.P.P.Y.E.`.OX@X%X:X,X>X>X;X,X5XwXiXpXaXaXpXaXpXaXpXiXwXeX<X#X{.K.D.F.S.0.` x B L ,.,.y.V.|.#XY.7.Z > u %.%.a # ",
"# g &.&.h # u $.%.$.u u g h u g g $.h r 5 ( y.b.A.P.L.L.R..X@X%X,X,X,X,X,X,X8XwXiXaXpXpXpXpXiXpXpXpXaXpXwX7X>X>X<X<X9X<XD.3.F c m N B J y.C.R.G.8._ 6 u a a a # ",
"p h %.$.g # @ a &.&.&.%.u ; & $ = = $ 3 E g.G.H.Y.E.P.R._.@X%X:X,X,X,X,X4X8XwXiXpXaXpXpXpXiXpXpXpXaXaXaXwX8X>X<X<X<X9X<X}.S.0.' x     x J 1.s.N.c.g.X.i r p a a ",
"p h %.$.h h # h &.&.%.h i T ^ ^ ! Y T ] g.F.|.XX`.`.E.E.@X%X,X,X,X,X>X,X8XwXiXpXpXpXpXpXpXpXpXiXpXpXaXpXwX4X>X,X<X<X<X9X7X XF.p.` x z x B J 7.M.K.F.k.o.1 r # a ",
"# a &.&.&.&.&.%.&.$.u , ( 3.p.p.8.5.9.j.~.1X0X-X@XOXOX+X%X>X,X<X,X:X;X,X8XwXpXpXpXpXpXpXpXpXpXpXpXpXiXrXqX4X>X>X,X:X,X,X9X9X-XK.p.@...} { { 0.F.-X-XD.3.b - @ # ",
"# a %.&.$.a %.&.$.@ > T 3.c.K.H.S.S.Q.].2XwXrX9X;X+XOX@X%X>X<X<X,X;X,X,X4XqXwXiXpXaXaXaXaXaXaXaXaXpXwX8X4X,X>X:X;X,X:X,X9X9X7X XK.c.c.c.k.j.S.}.<X-XS.>.b - O @ ",
"# a %.&.$.a a $.u 8 W 3.c.{.-X-X X&X2XtXuXpXrX6X:X$X+X+X$X;X,X,X,X,X,X;X,X,X5XwXpXpXpXpXpXpXaXpXpXiXqX4X,X>X;X,X,X,X,X,X,X<X,X-X X}.}.}.}.}. X7X<X#XM.:.b - @ # ",
"p a &.&.%.h p r i ( 6.V..X-X<X9X9XwXrXpXsXsXiXeX,X%X+X+X+X%X;X,X,X,X,X>X;X;X,X5XwXrXrXrXwXwXrXwXwX8X4X;X;X;X,X,X,X,X,X,X,X,X,X7X9X9X0X9X9X9X9X9X,X{.M.@.2 ; @ a ",
"p g %.%.%.g w 6 X.9.N._.+X%X:X7X7X9X9XwXpXpXpXeX<X%X+XOXOX+X$X;X,X,X,X,X:X;X,X,X4X8X8X5X5X8X8X8X8X4X,X:X;X,X,X,X,X,X,X,X:X%X:X:X<X7X7X,X,X7X9X9X,X.Xb.O.b w # a ",
"# a $.h $.h + 4 } p.J.XX+X+X$X%X:X,X,X8XwXiXiXqX,X%X+XOXoXOX+X%X:X,X,X,X,X,X,X,X,X,X,X,X,X,X,X,X,X,X,X:X,X,X,X:X,X,X,X,X#XXX.X$X>X>X@XXXXX;X4X,XXXI.d...2 t # a ",
"# p h h &.&.g , ! 3.b.(.OX+X$X$X%X;X;X,X9XwX8X4X%X@X+X+XoXoXOX+X%X;X,X,X<X,X,X,X>X;X>X;X;X;X>X>X>X,X,X,X<X<X:X:X%X;X,X:X(.G.M.(.#X#XH.V.H.XX:XXXJ.d.r.{ U w @ @ ",
"# # g g h $.g g l ( @.x.J..X$X$X+X@X;X,X7X7X,X%X@XOXOXOXoXoXoXOX+X%X;X,X<X,X,X;X>X;X>X>X;X:X>X>X>X,X,X,X,X,X:X%X@X$X%XXXZ.i.8.N.E..Xx.y.s.T.+XH.p.,.=.) I t + O ",
"# # # # g h h %.$.w 4 @.a.G..XOX+X@X;X:X>X>X%X@XOX`.oX`.oXoXoXoX+X+X%X:X:X:X:X:X,X,X,X,X,X,X:X:X:X;X;X:X:X:X%X%X@XOXoXU.p.;.{ i.V.V.5. .2.n.L.x.,.H K J T t @ + ",
"a p # p p a h %.%.a t 9 ] q.G._.OX@X%X$X%X@X@X+XOX`.E.R.).oX+XoXOX+X+X$X$X$X%X:X,X4X<X,X,X,X,X;X%X@X@X$X$X$X%X%X%XoXL.h.:.H F <.y.i. .J { y.i.5.J S J ) T t # g ",
"a p a a $.a $.$.j h p e 4 _ s.L..X$X+X+X+XOXOX+XOXE.P.L.R.`.OXOXOXOX+XOXOX+X+X%X:X,X,X,X,X,X:X%X+XOXOX+X+X+X@X$XXXJ.d.,.D N V J  . .H V F |  .K D V L ` T ; @ g ",
"# a $.%.%.&.$.a a h a p $ n 7.m.(.+X+XOXOXOXOXOXE.U.C.A.U._.+X+XOXOXoXoX`.`.+X$X%X:X%X;X;X:X%X+XOXoXoXoX+X+XOXoXU.h.,.F m M N V V V V N V V B V V D | ` ! , @ # ",
"O p %.%.$.%.$.%.%.h a g > Q 7.b.L.oX+XOX+X+XoX_.Y.A.V.A.Y._.OX+XOXOXoXoXoXoXOX+X$X$X@X$X$X@X+X+XOXoXOX+X$X%X+XU.x.<.[ D c c M N V V N N N N V N N F *.{ / t @ @ ",
"@ p a a $.$.h a $.h a u & Z 2.d.Z._.oXOX+XoX_.Y.A.C.C.L.R.`.+XOX+XOXOXOXOXoXOXOXOXOXOXOXOX+X+XOXOXOXOX+X+XXXI.h.<.D V N m v M M N N N v v N V V V H [ ) R y p p ",
"a a p j $.h p # # g p u & Z 2.d.V.Y.).)..X).Y.J.A.A.J.R._.oX+X+XOXoXOXOXOXOXOXoXoXoXoX`.oX`.oXOX+X+XoX_.).H.h.<.J m c M v v v M N v v v v v V F J J ^ P > r p a ",
"p p $.&.%.h p p a p p # > Q 2.d.C.Y.Y.Y.U.U.J.J.Z.L.(._.OXOXOXOXOXOXOXOXOXOXoXOXoXoXoXOXoXOXOXOX+XOXoXY.N.a.,.[ D N c M v v v v v v v v v M V L | ) R , u h a # ",
"# g $.$.%.&.%.$.j p @ t I _ u.b.A.P.L.A.J.Z.A.A.J.Y..X+X+XOXOXOXOXOXOXOXOXOXOXoXOXOXOXOXOX+XOX+XoX_.I.n.i.-.H V V v v v v v v v v v v v N V D ` ) T t g h $.a # ",
"p # p g $.&.&.&.%.g t I ] 9.b.B.A.J.A.C.V.V.V.V.J.R.oX+X+X+XoXOXOXOXOXOXOXOXOXOXOXOXOXOX+X+X+XoX).J.b.8.=.D m c M v v v v v v v v v v N V D G Q 2 , g &.%.h p p ",
"# # u h h $.h h g - U @.y.b.J.L.A.A.A.A.C.A.A.V.J.Y._.+X+X+XOXOXOXOXOXOXOXOXOXOXOXOXOXOX+X+XoX_.Y.b.t. .H V N M v v v v v v v v v v N V J { ) I - r j &.&.h @ + ",
"@ @ p $.h p # + ; I } i.m.J.P.P.A.A.A.A.A.A.A.C.J.U.E._.OX+X+X+X+XOXOXOXoXOXOXOXOXOXOXOXOXoX_.).U.v.2.K D V N v v v v v v v v v v v M V L *.' 9 r g %.&.&.a + + ",
"@ # p a h @ + - I } y.m.J.P.P.L.J.C.A.A.A.A.A.C.J.L.P.R._.OX+X+X+XOXOXOXOXOXOXOXOX+X+XOXoXE.R.E.Y.b.7.K D V B M v v v v v v v v v v v V [ ;.} 0 k %.&.&.$.# @ @ ",
"@ @ a a a @ > U O.u.m.L.P.L.J.A.A.A.A.J.A.J.J.A.C.A.C.L.R._.OX+XOXoXOXOXOXOXOXOXOX+X+X`.E.P.A.A.Z.d.2.K V V M M v v v v v v x . v N N F K L / 6 r # g $.&.$.g a ",
"# # a a g t T O.i.m.J.Y.U.J.A.A.J.A.A.A.A.J.A.A.A.C.V.Z.U.E.).E.E..XoXOX+XOXOX+XOXOX`.E.Y.J.V.n.x.y.=.H V V M v v v v v x x v c M N D J G Q R t r + # $.&.$.h a ",
"a p p p < R O.u.n.A.L.L.L.J.A.A.J.C.J.A.A.A.A.A.A.A.Z.A.L.L.U.L.U.E.oX+X@X+X@X+XOXoXE.U.P.L.N.s.8.-.J V N M v v v v v v v . v c N D [ [ ^ 9 s j g @ # %.&.a p p ",
"@ p p w 4 _ u.m.P.U.U.J.Z.A.A.A.A.A.A.A.A.J.A.A.A.A.A.A.A.A.A.C.J.U.E.oXoXoX.XoX.XE.U.J.J.P.n.y.=.D V N M M v v v v v v v v v N V J ` _ 0 k $.&.%.h %.&.&.g p # ",
"@ p p ; U | a.A.R.R.P.A.A.A.A.A.J.A.A.J.A.A.A.J.A.A.A.A.A.A.C.B.C.J.Y.R.E.E.E.E.R.Y.L.Z.L.L.n.t.| V B V N M M M M M v v v v V C D ) Q 0 y %.&.%.%.&.&.&.%.%.a # ",
"# a a e 4 ' y.N.P.Y.L.A.A.A.A.A.A.A.A.A.A.A.A.A.A.A.J.A.A.Z.A.A.A.A.H.I.I.I.L.I.L.L.J.J.I.U.n.y.=.H D J D V N N N N v v v M S L ` Q 6 y %.&.&.$.h h $.$.$.$.h a ",
"# a &.p , W @.p.m.A.P.L.L.J.A.A.A.A.J.A.A.J.A.A.A.A.A.A.A.A.A.A.A.A.A.C.C.A.C.A.C.A.Z.J.I.I.n.7.| [ | -. .` D V V N M v v M F | | / 8 # g $.%.$.%.$.$.%.&.&.$.a ",
"p h j p + t E O.u.n.A.Y.P.J.A.A.A.A.J.A.A.J.A.J.A.A.A.A.A.A.J.A.A.A.C.C.C.C.C.C.C.C.A.J.P.P.v.7.| =.7.a.u.-.J S F V N N M N F +. ./ i # a $.$.&.&.&.&.&.&.&.$.p ",
"p a p p p g > T +.u.m.P.P.J.J.A.A.A.A.A.A.A.A.A.A.J.A.A.J.A.A.J.A.A.A.A.A.A.A.A.A.A.J.J.P.P.n.7.=.-.s.B.x.-.K J L L H V N V S L ' ! i g &.&.&.&.&.&.&.$.p %.$.a ",
"p a $.g p s o 3 ^ :.i.N.A.P.U.L.A.A.C.J.A.A.A.A.A.J.A.J.C.J.A.A.A.J.A.J.A.J.J.A.A.A.A.J.L.L.m.a.t.s.m.J.h.-.K =.<.1.| H F H J J ! q k a $.%.&.&.h h %.g p g a a ",
"@ h %.h p r : , 4 / :.i.n.A.Y.P.J.J.J.C.J.A.J.A.A.A.A.A.A.J.A.A.A.A.A.A.A.A.A.A.A.A.J.J.J.J.C.n.v.N.J.J.v.-.[ 5.a.f.1.{ K L ' Y 8 g $.$.a a %.%.a p h h h p p a ",
"a h $.$.g f f d < 4 n +.y.b.J.L.L.J.J.L.J.L.J.A.A.A.J.A.A.A.A.J.A.J.J.J.A.J.A.A.A.J.A.A.A.J.J.A.L.Y.U.C.s.5.1.s.V.N.i.=.K G ! 8 s $.$.&.&.&.&.&.&.&.&.&.&.$.a a ",
"p h %.$.h k f f d < I / @.y.m.A.L.Y.P.P.P.L.L.J.A.A.C.A.A.A.A.A.A.J.C.C.A.A.A.A.A.A.A.A.J.L.Y.R.R.E.E.L.n.s.s.V.Y.A.a.=.A b 6 g $.$.$.$.$.%.%.%.%.%.$.&.&.$.a a ",
"p a &.%.j a g s d d d E ~ :.u.m.L.Y.Y.L.P.L.L.J.J.J.J.J.A.A.J.C.J.J.C.L.J.C.J.J.A.A.A.J.L.L.L.Y.Y.Y.U.L.C.B.V.L.Y.B.i.-.b = + %.&.j j g g g h h a a h $.&.$.a a ",
"p a j $.%.&.g s d f f i 4 ~ :.u.b.B.B.n.b.m.B.V.L.L.L.L.L.L.L.L.L.L.L.L.L.L.L.L.L.L.L.J.C.B.n.n.n.n.n.m.m.B.B.C.B.s.5._ 3 e $.&.$.p a h h g g p p p j $.%.%.a # ",
"p a a &.%.$.a p s s t < , 9 / >.r.u.u.u.7.y.s.m.L.).P.P.P.P.P.P.P.P.P.P.P.P.P.P.P.Y.Y.J.m.s.r.r.r.y.r.u.u.i.a.a.y.2.o.E < d h %.j s p g g g g p @ p $.$.h $.a # ",
"p a &.&.j p a h j s e , < d W X.+.;.;.+.L +.7.d.Z.P.P.L.L.J.L.J.A.L.L.A.A.L.L.J.J.P.P.C.s.>.+.L +.+.;.+.;.;.;.,.+.o.X.< d s s j h g p p p @ # # p a %.%.$.$.a p ",
"p a %.$.p @ @ h &.$.k f f f q R X.^ A Q Y Y o.9.s.m.b.v.v.v.v.v.v.v.v.v.v.v.v.v.v.n.m.s.>.o.n n n Q Q ! ! ^ ^ ^ ^ W q d f f f g %.%.g @ # p g h a a a $.%.&.h p ",
"p a &.$.h h p h &.%.h g k f 8 q 4 4 4 6 5 5 U o.2.y.r.2.7.2.7.2.7.2.7.7.2.7.2.r.2.r.r.2.o.X.3 * 0 0 6 4 9 9 9 9 E 0 d f f g p a &.&.j a g h $.$.%.&.%.$.%.%.$.a ",
"# a &.&.&.&.&.%.&.$.h g s d d l d d d d t : 0 ! _ { { ' { { ' ' ' ' ' ' ' ' ' ' { { o.G X.6 f f d d < < d d f f d d d d s g a %.&.&.%.&.&.&.&.&.&.&.&.%.a $.a # ",
"# a $.&.%.h %.&.$.$.h p g g j g s s : d f f q 9 Y ! ! ! Q Q Y ! ! Y Y ! ! Y Y Y Q Q Q W 9 < f f d d d < d k j g g s e e g %.%.a h &.&.&.&.&.&.&.&.%.$.$.%.a # @ ",
"# a %.&.$.a h %.&.j h p h j h g p s f d f d < 8 6 q q q q 6 6 q q q 6 6 q 6 6 6 6 q 6 q q < t f d t < < s g j a a a p p j &.a a $.&.&.&.&.$.$.&.%.$.a &.&.a # @ ",
"a a &.&.%.h a %.&.h p a a g a a g g s f d : : f s f k k k + d f f f k h f f f k f k k k f e : d f : : : s p a a a j &.&.%.p p &.&.$.&.&.&.h a %.&.&.&.&.&.&.$.a ",
"# a &.%.$.h $.$.$.$.h p $.%.$.a %.a p s s s g g s p h j h p p g a $.j p @ h $.j h g h h g p s g p s s + a a $.a %.%.%.j a %.%.&.h h $.&.&.$.a %.&.&.%.a a &.%.a ",
"# p h $.$.$.&.%.h %.%.g %.&.&.%.%.$.a p g j %.g p p h %.%.j j %.%.$.a p p $.%.j g h h a h a j a a h g p j %.&.%.%.%.a a j %.&.a g h $.&.&.%.%.&.&.%.$.a # &.%.# ",
"# p a h %.&.&.&.&.&.&.&.h g &.%.a &.%.j %.j h p a j a &.&.%.%.&.%.$.a $.$.&.$.h j j a a j &.&.&.&.&.&.%.a a &.%.%.&.&.$.%.%.a a h $.$.%.&.&.%.&.&.a h $.%.&.a @ ",
"# p p a h &.%.%.&.&.&.%.g h &.&.&.&.%.%.&.%.h a h %.a a $.j a &.&.&.$.$.%.&.j p %.a p a j %.%.%.&.&.%.%.a j &.&.&.&.%.%.&.%.a a h $.h h h h $.&.&.&.$.$.&.&.# O ",
"# # # # a a h %.&.&.$.a a %.&.&.&.%.j $.&.&.$.h $.%.j h a a a &.&.%.%.%.&.&.$.a %.a p p p h h j &.&.%.a j $.%.&.%.%.a %.&.&.$.a $.%.$.h g h $.%.&.&.$.%.&.&.# @ ",
"a p # p p a h $.&.%.%.$.a $.%.h a a a a &.&.%.%.%.&.&.%.a &.&.%.p a &.&.&.%.%.&.&.a p p p p h %.%.&.%.a a $.%.h a a a j &.&.%.$.$.&.&.&.j %.%.h p a &.&.&.$.$.# ",
"@ @ # # p p a a a # p a a a a a g a a a a h a j a a h j g h a a @ @ a a p p p a a p p p p p a p a p a p a a a p a a p g j a a j h h h h a h h h @ @ a a # # # @ ",
"O + # # p g # @ @ @ @ # a # @ # a a a a @ @ a a a a p p p p a a @ @ p @ O + s p p @ s p p p p s p + @ p a p @ p a p g a @ @ a a h p p # p p p p @ @ p @ O @ O O "
};
