/* XPM */
static char *Group_10_29__resized[] = {
/* columns rows colors chars-per-pixel */
"80 80 249 2 ",
"   c #101312",
".  c #1C1517",
"X  c #1D1B16",
"o  c #131619",
"O  c #1B1619",
"+  c #1D1A1A",
"@  c #271916",
"#  c #231C1C",
"$  c #2A1D1C",
"%  c #351A17",
"&  c #1E2416",
"*  c #1E2A17",
"=  c #1C3112",
"-  c #212416",
";  c #2B2717",
":  c #232B16",
">  c #24241C",
",  c #242C1A",
"<  c #292D1B",
"1  c #362717",
"2  c #243316",
"3  c #2A3716",
"4  c #253A16",
"5  c #243319",
"6  c #29331B",
"7  c #263A18",
"8  c #2A3B19",
"9  c #353818",
"0  c #1E1E22",
"q  c #251E22",
"w  c #381D22",
"e  c #2C2323",
"r  c #282624",
"t  c #322526",
"y  c #382827",
"u  c #353326",
"i  c #372F31",
"p  c #461C17",
"a  c #561E13",
"s  c #661D14",
"d  c #522D0C",
"f  c #472718",
"g  c #582818",
"h  c #483815",
"j  c #583814",
"k  c #722E01",
"l  c #662815",
"z  c #6C2C15",
"x  c #722C14",
"c  c #7A2C15",
"v  c #693815",
"b  c #773517",
"n  c #472A25",
"m  c #562B25",
"M  c #483229",
"N  c #583228",
"B  c #452C34",
"V  c #423333",
"C  c #483838",
"Z  c #583933",
"A  c #513D3B",
"S  c #6A3828",
"D  c #6F3E30",
"F  c #2B4717",
"G  c #2C4419",
"H  c #2E4B19",
"J  c #364718",
"K  c #324C19",
"L  c #2E5218",
"P  c #32531A",
"I  c #3A5418",
"U  c #345C1A",
"Y  c #3C5A19",
"T  c #36621B",
"R  c #3A641C",
"E  c #3D6D1D",
"W  c #3F711F",
"Q  c #3F7320",
"!  c #45460F",
"~  c #484816",
"^  c #584916",
"/  c #445419",
"(  c #495318",
")  c #425C1A",
"_  c #4C5C1A",
"`  c #545419",
"'  c #5B5318",
"]  c #585718",
"[  c #535C1A",
"{  c #654416",
"}  c #684717",
"|  c #6A4B16",
" . c #7A4916",
".. c #665818",
"X. c #775617",
"o. c #44641C",
"O. c #4A631C",
"+. c #446C1D",
"@. c #4B6C1E",
"#. c #56621A",
"$. c #41741F",
"%. c #4B731F",
"&. c #43781F",
"*. c #57701E",
"=. c #65631B",
"-. c #4E442E",
";. c #5C4535",
":. c #54423D",
">. c #6D4D2E",
",. c #76432B",
"<. c #684734",
"1. c #774732",
"2. c #75553B",
"3. c #427620",
"4. c #4A7520",
"5. c #457C21",
"6. c #4A7C21",
"7. c #55712B",
"8. c #4C3D43",
"9. c #5A4543",
"0. c #584647",
"q. c #5D504A",
"w. c #68544C",
"e. c #71584C",
"r. c #7B6748",
"t. c #7B6757",
"y. c #832D13",
"u. c #883816",
"i. c #923C15",
"p. c #9B3D15",
"a. c #A13F16",
"s. c #8F3E23",
"d. c #884719",
"f. c #944315",
"g. c #9A4415",
"h. c #9C4C16",
"j. c #984A18",
"k. c #875917",
"l. c #9B5318",
"z. c #985719",
"x. c #A74A18",
"c. c #A44C19",
"v. c #A75717",
"b. c #AB5313",
"n. c #AA5319",
"m. c #AC5C19",
"M. c #B35B1A",
"N. c #B8581B",
"B. c #8D6618",
"V. c #966318",
"C. c #AB6D14",
"Z. c #AA6519",
"A. c #BB631B",
"S. c #B66819",
"D. c #BA771A",
"F. c #8A4B28",
"G. c #954927",
"H. c #8C5726",
"J. c #995A26",
"K. c #884B34",
"L. c #8A5734",
"P. c #985635",
"I. c #AB5B2F",
"U. c #93632F",
"Y. c #A96726",
"T. c #B76627",
"R. c #B87426",
"E. c #A96935",
"W. c #AE7434",
"Q. c #C35F1E",
"!. c #C6681D",
"~. c #D46D1E",
"^. c #C87A17",
"/. c #C3731A",
"(. c #CC731D",
"). c #C47C1A",
"_. c #CC7A1D",
"`. c #D37B1D",
"'. c #CA7B2F",
"]. c #D57820",
"[. c #846547",
"{. c #877549",
"}. c #987448",
"|. c #826D55",
" X c #877457",
".X c #8C725A",
"XX c #478022",
"oX c #498423",
"OX c #4C8A24",
"+X c #5A883A",
"@X c #BE821A",
"#X c #B98738",
"$X c #C9851B",
"%X c #CD841B",
"&X c #D2831D",
"*X c #D9831E",
"=X c #D58B1C",
"-X c #DA8C1D",
";X c #D6901C",
":X c #DB931C",
">X c #E28E1E",
",X c #E3961E",
"<X c #E49C1E",
"1X c #DFA01E",
"2X c #EAA41E",
"3X c #EAA81E",
"4X c #F1AC1D",
"5X c #F3B41E",
"6X c #DC8922",
"7X c #DB9824",
"8X c #C58A36",
"9X c #C99539",
"0X c #D99338",
"qX c #E19226",
"wX c #E69921",
"eX c #DDA738",
"rX c #ECA421",
"tX c #E9B22F",
"yX c #F2B925",
"uX c #E6AC38",
"iX c #F7C429",
"pX c #FACF3A",
"aX c #988D59",
"sX c #B0904D",
"dX c #9D9464",
"fX c #B09963",
"gX c #B1A56E",
"hX c #C49944",
"jX c #CCA54D",
"kX c #E9B944",
"lX c #ECBC48",
"zX c #CFB669",
"xX c #F3CC49",
"cX c #FAE54C",
"vX c #D7CC74",
"bX c #E7D474",
"nX c #F8EA77",
"mX c #BBB381",
"MX c #BBCBBA",
"NX c #D0D28E",
"BX c #E2DE9A",
"VX c #F2EE8F",
"CX c #D0D7A3",
"ZX c #F4F2AF",
"AX c #FEFEAA",
"SX c #FAFAC9",
"DX c #F9FAD5",
"FX c #FBFCE8",
"GX c #FFFFF9",
/* pixels */
"L T $.W W W W W &.E E W &.W &.W Q Q 3.$.E E W 5.5.$.&.&.W W W E U ! k k d o.W E T E W W E W W W &.W E W 3.3.3.&.W &.&.$.E E W 5.3.3.3.3.W E E W W 3.3.W W &.E U ",
"R E W $.3.Q W W W W W 5.&.&.&.W Q 3.3.W E W 3.3.W W W W W W W $.( | C.b.k.( +.&.3.Q $.$.$.&.W W W W W &.3.3.3.$.W W W W E W $.&.3.Q Q E Q 3.5.5.5.3.Q W W 5.$.E ",
"&.&.$.&.XX5.W W W W &.XXXX5.5.3.Q 5.Q E $.3.5.3.Q Q E Q W oXXX%.{ l.<XwXD.v _ OXOXoX3.5.XX5.W W &.W &.oX5.5.3.Q 3.3.Q W W 3.5.3.Q Q W W 3.oXOXoXOXXX$.W W 5.5.&.",
"$.&.oXOXoXXX&.$.&.&.&.oXoXOXOXOXoXoXQ Q 5.oXOXoXXXXXXXXXXXXX&.%.j l.uXuXR.j I XXXXXXoXOXoXXX&.W &.W &.XXoXOXOXOXOXXX3.W XXoXOXoX5.oX6.oXXX6.oXoXoXoXXX3.$.oX&.W ",
"W $.XXXXoXOXoXXXXX5.5.XXOXOXOXoXoXoXoX5.OXOXOXOXOXOXOXOXoX$.o.#.X.S.lXlX9X .` +.4.5.XXoXoXOXoXXXoX&.5.oXOXOXOXOXoXOXXXoXOXOXOXOXOXoXOXOXoX5.5.5.5.5.oXXX5.XX3.$.",
"$.$.$.$.XXOXOXOXoXoXXXoXOXoXXX5.oXOXOXOXOXOXOXOXOXOXOXOXXXE ( | C.7XxXxXtXC. .( $.W W Q XXOXOXOXOXoXoXoXOXOX5.5.oXOXOXOXOXOXOXOXOXOXOXOXoX5.5.5.W 3.oXOXoX5.3.3.",
"E W $.&.&.6.5.5.5.3.3.3.Q 5.oXoXoXoXoX3.5.5.XXoXoXOXOXOXXXY ^ l.%XrXpXpXiX:Xv.| O.W 3.5.XX5.5.5.5.Q 3.3.3.5.XXoXoXoX5.3.5.5.XXoXoXOXOXOXoX5.3.5.E W 6.OXOX5.E R ",
"E E $.XXXX$.$.$.Q Q Q Q Q W 5.oXoXoX5.5.3.3.3.3.5.OXOXOXOX) { n.*XrXyXiXiX<XS.k _ E 3.5.5.$.3.W W W W Q W W 5.oXoXoX5.5.3.5.3.Q 5.OXOXOXOX5.6.oX5.3.oXOXOX3.E T ",
"E $.5.5.3.W Q Q Q W W Q Q W E 3.oXXXoXOXOXXXQ W 3.oXOXOXOX+.' h./.-X2X5X5X=Xv.v O.W $.XX5.W W W W Q Q Q Q Q W 3.oX5.oXOXOXXXQ W 3.OXOXOXOXOXOXOXoXoXOXOXoXW E E ",
"E E $.5.5.3.Q Q E Q 3.E 3.3.3.oXoXXXoXOXOXoX5.oXOXOXOXOXXXo.^ g.Q.].2X5X3X`.l.v ) W &.&.5.3.W W E Q Q Q Q 5.3.oXoXoXOXOXOXoX5.oXOXOXOXOXoXoXXXoX5.Q 3.oXOXXX5.$.",
"E $.3.XXoXXXQ Q 3.5.5.5.5.oXoXOXOXoXOXOXOXoXoXOXOXOXOXoX+./ v f.N.].wX3XrX_.c.v +.W $.XXoXoX3.Q 3.5.5.3.5.oXoXOXOXoXoXOXOXoXoXOXOXOXOXoX5.5.XXOXQ E E 5.OXXX5.&.",
"&.$.3.OXOXOX5.3.XXOXOXOXoXoXOXOXOXXXOXOX5.XXOX5.oXOXOX3.! j c f.N.].>XwX<X`.l.v %.&.$.oXOXOX5.3.6.OXOXoXoXoXOXOXOXXXOXOX5.XXOX5.oXOXOX5.$.5.OXOX3.E W oXOX3.$.$.",
"E W $.XXOXOXOXoX3.3.oXOXoX5.OXoX5.OXOXoXOXOXOXoXoXoX4.#.k.z.c.p.N.~.6XwXwX`.c.v ~ o.W XXOXOXOXXXQ 3.oXOXoX5.OXoX5.oXOXoXoXoXOXoXoXoX+.+.5.oXOXOXoX5.oXOXOX5.$.W ",
"E W 5.5.oXOXOXoX3.3.5.OX5.5.oX5.5.oXXX5.OXOXOXXX5.4.( X.D.).m.u.x.!.:XwX>X!.g.b v ^ o.$.oXOXOXXX3.Q 5.OX5.5.oX5.5.oXoX5.OXOXOXXX6.4.` ] 6.oXOXoXoXOXOXOXoXXX&.W ",
"$.&.XXOXOXOXoXoXOX5.5.oXoX5.oXOXOX6.3.E 5.oXOX3.W +.~ k.$XD.B.v u.N.6XwX].n.i.i.m.k...%.XXOXoXoXOX5.5.OX5.oXoXOXOXoX3.E 5.oXOXQ ) ] J.B.[ 4.oX6.5.5.oX5.XXXXXX3.",
"$.&.OXXXOXOXoXoXOXOXoXoXoXoXoXOXOX5.W W 3.5.5.Q Q 3.O...B.X...[ } j.=X=XS.u.y.f._.).V.] +.OXOXoXOXOXoXXXoXoXoXOXOX5.Q W 3.5.5.U ' B.9X8XU.] $.oXoXoXoXoXOXOXXX3.",
"W &.oX5.5.OXoXoXoXoXoX5.5.oXOXOXOX5.3.3.3.3.5.3.5.5.5.@.^ ~ o.6.' f.(.`.n.v v k.@X$XV.^ R OXoXoXOXOXoX3.5.oXOXOXOX3.&.$.$.&.W J | R.lXlX'.H.[ 4.OXOXOXoXOXOXXX&.",
"&.&.3.W $.5.5.XXoX3.Q Q W 3.XXOXOXXXoX5.5.oXoXoXoXOXoXoX4.6.5.%.} f.~.~.M.v ( *.k.k...O.$.XX&.XXoX4.Q Q W &.XXOXOXOXoX&.XXoXoX) | R.lXcXxX#XX.( 3.OXOX6.3.oX5.3.",
"$.5.XX$.3.3.5.5.5.3.3.5.Q W 5.OXOXOXoX6.5.5.oXOXOXOXOXOX3.XX5.@.| u.c.j.b h I / d d 9 L L L L T 3.3.Q 3.W W XXoXOXOXoXoX&.oX&.) | T.uXcXcXeXY.j ) 5.6.5.3.3.3.3.",
"E 5.OXXX5.5.5.3.3.5.5.5.3.W XXOXOXOXOXoX5.5.oXoXoXoXoX3.Q 3.5.$.| b z g 1 1 9 h % - : 4 4 : : 8 T Q 5.oXW W XXOXOXoXOXoXXX&.%.) | m.7XpXcXkXY.j Y 3.5.5.5.Q 3.3.",
"3.5.XXoXOXOXoXXXoX3.Q Q W 3.OXoXXX5.oXOXOXOXOX6.+.Y U U P 3.XX6.^ g 1 q 0 y ,.,.M r u u i i y u G U W W W W OXoXXXXXoXOXOXOXoXY | m.:XiXpX0XJ.h o.OXOXOXoX5.5.3.",
"3.5.OXOXOXoXoXOXoXoX5.5.5.6.OXOXXX5.oXoXoXXX5.+./ ~ u J G P E Q J 1 y t i <.U.W.2.;.C 9.8.8.0.A u K T W XXoXOXOXoX3.XXOXoXoX&.Y | b.:X5XiX7XZ.j o.oXoXOXOXXX5.3.",
"$.&.OXoXoXoXoXoXOXOXOXOXOXOXOXOXoX5.5.5.3.Q E P -.,.<.:.-.u H P , q V 8.8.L.8XhX.Xe.w.w.t.t.t.w.C 9 H &.OXOXOXOXoX3.3.XX5.$.+.Y ..m.;X4X5X<XD...[ +.3.6.OXXX6.3.",
"$.&.5.oXoXOXoX5.oXoXOXOXOXOXOXoX5.5.3.3.3.T H u -.[.fXjXaXq.r & + t V 8.A [.0XkX}.w.q.t.t..Xt.t.w.C u F W OXOXXX5.5.3.$.$.5.5.) | c.%X2X4XyXuX#XX.^ +.5.oXXX5.Q ",
"$.&.5.oXoXXXXX5.5.XX5.5.oXOXoX5.5.XX5.5.5.T 4 r A |.fXvXzX.X;.q r i B V A 2.sX9XsXr.q.e..XgXfXdX.X8.i < P Q 5.5.5.XX5.5.5.oX6.o.| c._.,X3XiXpXeXl.^ +.&.XXXX&.W ",
"W 5.OXOXXXW Q XXoX5.3.Q 5.OXoXoXXXOXoXXXOXR 4 u :.t.}.fXbXzX.XA V V i i B 9.[.}.sX#X[.|.gXVXVXvXdXt.0.i r G E 5.oXOXoXXXOXOX5.) | c._.<X3XiXiX7Xl.v @.XXXXXX&.$.",
"$.5.oXXXW W W &.OXOXOXoXOXoX5.oXOXOXOXOXOXR 2 u A e.w.|.fXzXjX{.<.m n y i 8.0.t.jXuX#XfXNXAXAXBXmXfXaX>.1 = R oXOXOXOXOXOXOX6.) | n.`.<X4XiX5X-Xc.v o.&.oXOX&.&.",
"$.5.oXXXXX5.W &.OXOXoXoXoXoXoXOXOXOXOXOXOXT 4 r B 9.8.w.t.fXjX#XP.S M C C 8.q.[.jXuXuXkXbXAXDXDXZXBXjXW.M * U 5.OXOXOXOXOXoX4.Y | c._.<X4X4X<X/.f.^ %.&.XXoXXX$.",
"$.5.OXOXOXOXOXoXOXoX5.3.oXoXOXOXOXoXXXoXXXE H < y C 9.0.0.r.W.0X(.J.,.D <.[.[.}.sX8X0XxXVXAXFXGXDXAXnXeX>.6 H E XXoXoXoXXXQ Q Y } c.(.qX2X,X%Xv.| ( 5.5.5.XX&.$.",
"E $.oXOXoX&.oXOXoXoX5.3.oXOXOXOXXXXX5.5.oXoXQ H 6 t C 9.0.w.F.T.0X9XH.F.J.8X0X8X}.[.[.sXvXAXFXGXFXDXVXzX{.C u H T &.5.5.OXOX5.Y { c.!.].qX6XZ.} #.4.5.XXoX&.W E ",
"W &.oXOXXX&.5.oXoXoX5.3.5.oXoXXX5.5.5.XXOXoX5.T 8 $ V A w.1.F.D.uXuXv.f.J.8X8XE.e.9.0.|.gXBXDXFXFXDXBXgX|.A t 5 L W XX5.oXOX5.Y } c.(.>X,X(.j.j ( 4.5.oXOX&.$.E ",
"$.&.OXOXoXXX&.oXOX5.Q 3.3.5.3.3.5.oXOXOXXX5.E R G > V A S f.S.wXiX1Xn.c S 2.2.w.;.9.0.w. XgXBXAXZXBXgX Xw.A t 2 L XXOXOXoX$.E / | m.=XrX<X!.f.x j ` 6.OXOXoX&.&.",
"W 5.oXoXXX5.XXXXXXXX5.Q 5.oXoX5.XXoXXX5.XXXXXXW P 5 u n l h.^.4X5X1X@XH.,.Z Z A A :.9.q.w.|.gXbXnXzX Xw.{.+X/ K R XXXX5.oXoX5.Y } n.&XwXrX(.c.f.z.B.=.O.$.oXXX&.",
"W $.XXXXXX6.OXoXXXoXoX3.oXOXoXoXoXOX5.$.&.OXOX5.R H 5 % a h.`.4X5XtXpX#XL.m B C C A :.:.9.w.|.sXxXsX}.t.gXdX7.W 5.oX5.5.5.OXoXY { c.(.>XwXS.l.c._.). .^ R oXXX$.",
"E $.5.5.oXOXOXOXOXOXOXOX5.3.OXoXXXOXOXXXoXXX5.W Q Q = @ a g.(.<X3XyXcXuXW.x m 0.:.A A :.9.q.0.[.9XhXjXmXBXNX+X5.oXoXoXXXoX6.3.I { x.!.`._.z.| X.D.$Xk.` E oX5.E ",
"W $.3.3.5.oXoXoXOXOXOXXX5.5.OXOXOXOXoXoXOXXX3.$.5.Q 2 @ a g.!.,X2XiXcXtXT.x m A A A A A :.9.8.[.9XkXbXBXDXMX+XXXoXOXoXoXoX6.3.I { n.(.(.M.../ #.k.k...@.5.OXW T ",
"W W W W 3.5.5.XXOXOXoX5.5.oXoXOXoXoXXXXXOXOXXX5.oX3.9 % a b n.&X2XyXpXeXY.x m Z A :.:.A A :.0.e.#XxXnXSXFXMX+XXXOXoX5.6.@.4.3.Y | M.*X&Xc.' U $._ ^ $.XXOXoXW E ",
"&.$.E $.3.$.5.XXoXoXoXXX5.oXoX5.3.5.$.5.OXOXOXXXoX3.^ g f m S m.;X5XiX1Xm.c x x Z :.A :.A C C 2.W.xXnXSXFXMX+XQ 3.3.$.O.^ ' +.Y ..M.:X-Xv...Y 4.o.E OXOXOXoX&.&.",
"3.&.&.&.o.Y W XXXXXX5.XXoX5.5.oXXX5.XXXXoXoXoXoX%.=.V.z.S g g j.$X5X5X%Xv.i.g.J.,.N i 8.C :.2.L.Y.#XgXBXSXCX+X5.5.E _ ..V.B...^ } n.;X=Xv.' R oXW W OXXX&.&.&.&.",
"W &.5.%.[ ^ O.%.&.3.&.oXoXoX5.oXOXoXOXOX3.W &.%.[ X.D.$Xl.l s f.$X5X4X/.h.f.S.%Xl.S A i 0.<.W.W.L.<.r.gXNXmXOXQ XX+.' k.6X@XX.l v v.%X6Xv.| o.6.&.&.XX&.W &.&.W ",
"T W &.#.k.V.| _ 5.5.5.oXOXoXoXoXoXoXOXXXR U P K h d.D.&XT.i.c f.$X2X2XS.f.u.C.%XM.G.1.2.L.U.W.E.2.V i e.aXaX7.@.XX5.[ k.).D.X.j v c.(.(.c.v ~ o.5.oXOXXXXXOX&.E ",
"Y Y _ k.D.=XC.X.O.$.3.3.3.3.3.Q $.$.$.R F 7 6 : ; g  .z.I.G.s.f.D.,X<X^.c.u.f.v.A.T.E.E.E.P.[.2.:.V V C >.>.;.( o.&.@.' k.X.` ! v c.!.T.f.y.} ] %.XX5.&.&.OXXX&.",
"[ ! j l.=XyXrXY...) U P P P P H H P P G & # @ O o X 9 S ,.G.s.i.!.>XrX-XS.f.c u.I.'.0X'.E.L.A V C V C Z Z N m 9 G U U J f h F J { x.Q.N.f.h.c.k.=.%.+.W W &.&.&.",
"z.b l f.$XyXpXeXY.v 1 - & - & > - - - & . X . O . & I O.^ S y.i.N.`.<X2X:XA.i.u.I.'.0XI.1.Z V V V i V ;.L.H.m @ X : , - @ @ & ; z x.Q.N.i.m.$X$Xk.` $.W &.XX$.E ",
"k.} g f.).rXtX9XY.b f 2 2 3 , 5 5 5 5 3 8 G G J G G T P 9 g x i.a.A.:X2X,XM.u.S P.P.P.L.1.<.C y i B <.L.I.L.f .   . . .   o   @ l x.Q.N.p.m././.d.f J P P P K H ",
"( ! ! f./.6XR.Y.g.v ! Y E R U U T R R E 3.3.3.3.3.E H * X % l y.y.c.&X-X/.d.g B m m M 1.L.P.Z y r A L.I.G.v t + + # # # @     % z x.!.Q.h.j.h.d.g - - - & & - 2 ",
"o.Y ( d.x.S.S.S.c.v ~ +.Q 3.5.5.6.5.3.W T U P T T P 6 + o % g i.v.S./.Z.u.f y t 0 q B D L.L.,.Z D K.P.F.N 1 8 G F 7 7 7 8 5 @ a u.x.M.l.| ^ ^ ~ 9 2 2 2 2 : 2 2 ",
"E Y ! u.p.g.D.^.M.} J W W 3.5.oXoX5.Q R H 7 6 8 8 8 r r + @ g h.D._.S.u.g w q q q B D D D S K.P.P.K.<.M $ - H R E T U T T J h u.x.x.g. ._ O.R T U U U U U H F H ",
"E Y ! u.g.b.$X%XS.v ~ E Q Q E Q E U U P < # # O X # q r 5 3 j h.D./.h.z w q e y M D K.D n n K.I.P.D y O O > 7 R 5.5.oXoX@...k.A.N.a.y.} %.oXOXOXXXXXoXOXXXE E E ",
"E U ! l.D.=XC.b.i.v ! E 3.5.3.R K 6 < < e e # @ O . # 6 P I ^ i.h.g.i.z n r e B 1.K.D y w B P.I.D n O O q q < G R oXOX4.' B.$X%XN.y.y.} +.5.oXOX5.3.3.XXOXXX3.&.",
"$.Y ~ l.=X3XC.u.v ^ o.$.5.5.W L < q $ # r q % ; < 8 % 9 R E ] f.p.g.i.x p q w m D D n O q n ,.D n q O q e y t < G E 5.4.` B.@X).N.y.y.} o.&.XXoX3.T / o.&.oX&.$.",
"$.U ! l.&X2XS.d.~ @.OXOXoXW H 6 q t y t O % f d ( +.j j Y R =.l.A.!.x.x % q w m n % q O + w N N 1 # q t y y y q > G W oX+.[ X.n.N.x.i.{ Y 3.OXOX3./ j ` @.$.$.$.",
"$.I ~ l._.<XA. .I W oXOXW H < r e q t $ $ j z.H.=.#.B.V...` v h.%X-XM.z @ . % p % X & 7 G J ~ -.9 > > t e e e e e < H U U J f b p.x.u.v o.5.oX5._ ..z.B...o.E W ",
"E Y ~ l.(.-XA.d.! R Q 3.K < > e e < > $ p d.8X8XU.X.D.@Xk.v v h.=X<XS.z % O . @ . * F T E E R R T G 6 < > $ ; e e e < 2 4 * @ f y.a.u.} 4.oXoX+.' z.=X).k.( T W ",
"W R ^ l.!.`.Q.d.~ K U H , # t ; < 4 4 ; a J.kXlX8Xf./.D.k.j v h.=X<XS.c p + o X - H Q XXOXoX5.oXoXE H 2 6 4 4 6 ; e $ # > X   1 z p.a.X.4.oX5.o. .S.wX>Xm.j Y &.",
"W R ( f.N.!.x.b 1 < , - & @ $ < H U T K d Z.kXtX$Xu.f.X.] ( { h.^.%Xb.b % q + * K Q oXXXOXOXoXOXOXoX$.T R E E P 8 # # X X o o @ l p.x.k.o.3.4.)  .n.-X*XZ.{ ) W ",
"$.R ( } g.n.f.g % . o . - 5 6 K o.&.&.+.h z.eXuXS.x l ( $.E ] g.N.S.d.S % r , H Q oXoX3.5.OXoXoXOXoXoX5.XXoXoXQ P 3 5 2 3 2 7 1 g b d.} J I O.' d.n.A./.C.k.] Y ",
"%.U 8 f z u.g % . X . > G U $.&.&.OXXX+.~ z.:X<XS.v _ &.oX+.' f.i.u.g y e , P 5.oX5.3.Q 3.5.5.5.oX3.Q 3.Q 3.oXXX3.3.W E E 3.3.P 9 y n t > 1 v j.A.N.f.S.%X$Xk.j ",
"H 4 , $ p g 1 8 8 7 8 G U E 5.OXOXOXo.( g h.%X2X$XV...o.Y J j u.c l y e > G E OXoXoX5.3.3.3.3.5.4.Q 3.5.Q W XXOXOXoXoXXX&.XXoXW P < r q q % z x.!.Q.i.n./.C.X.! ",
"- & X # > 1 H T R T T E E $.XXoXoX6.] v x f.S.<X2X$XB.j ; 1 g c g y e 6 F T 5.OXoXoXOXoX5.5.5.5.3.3.5.5.3.3.6.OXOXoXOXoX5.5.XXOXQ L * 0 r n b x.!.A.i.f.l.X.[ R ",
"2 2 4 8 G H R Q 5.$.E E E 3.OX3.O...V.S.f.i.n.>XrX2XZ.b a p f g 1 r , P Q 3.oXoXoXoXoXoXOXOXoXoXoXQ Q Q W 3.OXoXoX6.oXOXOXOXOXXX5.3.L 5 + f c x.N.c.z g ^ @.$.$.",
"L U R R R E 5.OXOXoX5.6.5.XXOX$._  .D.=Xv.f.n.].wX=XM.i.y.v m y q > G $.OXoXoXOXoXoXoXOXOXoXoXOXOXoX5.3.5.oXOXOXoX5.XXOXoXXX5.XXoXXXE H , f z i.i.x f 9 K E $.+.",
"W oXOXoXoX5.oXOXOXOXOXOXOXOXOX$.[ k.D._.j.j.M.&X_.m.i.g.b.v.,.% # - U 5.OXXXoXOXoXoXoXoXoXoXoXoXOXOXOXOXOXOXOXOXoX3.3.5.5.3.3.OXOXXXXXR F 1 f l g % # , H U U P ",
"$.&.&.oXOXOXoX5.5.oXOXOXOXOXoX5.o.#...d.y.l.).;XS.u.x f.$X&XZ.g % , U 3.oXXXXXoXoXoXoXoXoXoXoX5.oXoXOXOXOXOXoXXX5.3.3.3.3.5.XXOXoXQ Q &.E P ; % % # X X - - : : ",
"$.&.XXoXoXXXXX&.5.oX5.5.oXOXoX5.5.5._ j l l.%X:XZ.z j ..C.D.z.a ; G E 5.XXXXXXXXoXoXXXoXoXXX5.5.5.oX5.5.oXOXoX5.5.XX5.3.XXXXOXOXXXQ Q 3.5.U H 5 2 2 G G 6 - X X ",
"W &.OXOX&.$.&.XXoX5.3.Q 6.oXoX5.oXOX6.o.j z._.*XZ.v / _ '  .v ; G E 6.XXXXXXXXoXXXoXOXOXXXW 3.XXoX5.3.Q oXoXoXoXoXOXoXoXOXOXoXOXoX3.Q Q E E R U T T E W E F : @ ",
"$.&.OXXX3.E E 3.OXOXOXoXOXoXoXoXOXOXOX5.h d.~.].m.v J 9 1 f 9 J E 3.XXXXXXOXOXOXoXoXoX5.&.E W &.OXOXoXoXoXoX5.oXOXOXOXOXOXOXoXOXOXoX3.Q W W Q Q &.&.&.XX&.E K 4 ",
"$.&.oXoXXX5.W XXOXOXOXoXoXoXoXoXOXOX6.%.^ f.!.!.x.z 1 - X - F W XXoXXXXXXXoXOXoXoXOXoXXX5.5.W &.OXOXOXoXoXoXoXOXOXOXOXOXOXXX5.oXOXOXXX3.Q XXoXoXoXOXXXXXoXXXE U ",
"W XXOXOXOXOXoXOXOXXX5.3.XXOXOXOXoX3.o.` k.S.A.x.i.x % O   = T oXOXOXOXXX5.XXoXOXoXoXOXOXOXOXOXOXoXoX5.3.oXoXOXOXOXoXoXoXoX3.$.XXoXOXOXOXOXOXOXOXOXOXOXXX&.XXW W ",
"E W XXOXoX5.oXOXoXoX5.3.XXOXOXOX6.+.`  .@X$XA.p.c x p @ X 2 U oXOXoXXXXXoX3.&.&.5.XXXXOXoX5.oXOXoXoX5.3.oXOXOXOXXX5.&.5.OXOXoX5.XXOXOXOXOXOXOXOXOXoXXXXXXXXXW E ",
"W W oXOXXX&.XXoXoXXX3.$.XXoXoXXX5.3.[ X.D.).A.p.y.x f $ + : P XXOXXXXXoXOX5.&.&.XXXXXXOXXX&.XXoXoX5.5.3.5.oXoXXXXXXX5.5.oXOXXX5.XXOXOXOXOXXXXXoXOXXXXXOXOX&.W W ",
"W XXOXOXoX5.&.XXOXXX3.&.&.3.&.&.5.5.6.*...f.n.x.p.x n e r : L XXoXOXOXOXOXoXOXOXOXOXOXOXoX5.&.XXOX5.3.3.5.3.3.5.&.oXOXOXoX$.$.oXoXXXOXOXOXXX&.oXXXOXOXOXOXoXXXW ",
"W &.OXoXXX5.XXXXXXXX&.$.XXoXXX5.oXoX&.$.O...d.x.a.c g e 5 H E oXOXOXXXXX&.OXOXOXoXXXoXoXXX5.XXXXoXoX5.Q XXoXXX5.XXoXXX5.XXXXXXoXXX5.oXOXOXXX5.oXOXOXoX&.XXoXXXXX",
"W &.XXXXXXXXOXoX&.OXoX&.XXOXOXXXoXoXoX$.$.O.{ f.p.x f 6 L E oXoXOXOXXXW W OXOXOXXXXX5.XXXXXXoXoX5.OXoX5.XXOXOXXXoXOX5.$.6.OXOXXXQ 5.XXOXOXoXXXOXOXoXXX$.W OXXXW ",
"W $.&.&.oXOXOXOXOXOXOXOX&.5.OXoXXXOXOXXXXX@.^ u.c g ; K 5.oXoXoXXXXX&.XXOXOXXXXXXX6.5.5.oXOXOXOXOXOXOXoX5.3.OXoXoXOXOXXXXXXX5.3.3.XXXXoXOXOXoXOXoXXXXXXXOXOXW E ",
"W W &.&.&.OXoXOXOXOXOXoX&.&.OXOXoXOXoXXXOX@.~ v g 3 K R 5.5.5.OXOXOXXXXXOXOX&.W XX5.&.$.5.oXoXOXOXOXoXoX3.5.OXOXOXOXoXoXOXXX5.3.XXoX5.3.5.5.XXOXOXoXXXXXOXOXW T ",
"W W W W &.XX&.XXOXOXXX&.XXXXOXOXoXoXXXoXOX@.! f 1 H W 5.3.5.5.oXOXOXoXoXOXOXXX3.oX5.W W &.5.5.XXOXOXoX3.5.oXOXOXoXoXXXXXOXOXXX5.XXOXXX3.3.5.5.oXOXOXoXoXOXOXW E ",
"&.W W W W W XXXXOXoXXXXXXXXXOX&.&.&.&.&.OXR 3 ; K 5.OXOX5.oXoX5.W &.OXOXOXoXoXOXOX5.W $.$.$.&.oXoXOXoXXX5.XXoXXX3.&.3.5.OXOXoXXXoXoXOXOXXXOXOXXX$.&.OXOXOXXXXXW ",
"E W W W W W &.&.W W W &.&.&.&.&.$.$.$.W L = = H E 5.5.5.5.5.5.5.E E XXW W W 5.XX5.$.W $.$.$.$.&.3.W 3.&.3.3.5.&.3.3.3.5.5.5.5.XX5.5.XX5.3.XX5.3.E E &.&.W W W W ",
"T R W W &.&.W W W E W W W W E W &.$.&.T =   = U 3.3.W W Q Q Q 5.E E W E T E E $.W W W W $.$.$.W E E E W W W E W 3.$.&.&.E E $.3.&.W W W W W 3.3.E E W E T E T T "
};
