/* XPM */
static char *Group_10_30__resized[] = {
/* columns rows colors chars-per-pixel */
"80 80 243 2 ",
"   c #1D0D15",
".  c #1C1B16",
"X  c #1A1618",
"o  c #271A16",
"O  c #231C1C",
"+  c #2B1D1C",
"@  c #371C18",
"#  c #1D2315",
"$  c #1E2719",
"%  c #1E3816",
"&  c #222316",
"*  c #23231B",
"=  c #242A1A",
"-  c #292819",
";  c #362617",
":  c #243316",
">  c #283819",
",  c #363718",
"<  c #1E1B22",
"1  c #271E22",
"2  c #2B2224",
"3  c #2A2527",
"4  c #332424",
"5  c #392828",
"6  c #3B2B2B",
"7  c #382D32",
"8  c #481B14",
"9  c #561C15",
"0  c #492518",
"q  c #572817",
"w  c #453915",
"e  c #593514",
"r  c #5B3D14",
"t  c #672A16",
"y  c #752C15",
"u  c #683715",
"i  c #743616",
"p  c #7C3415",
"a  c #7B3C15",
"s  c #472925",
"d  c #532B23",
"f  c #48332C",
"g  c #58352B",
"h  c #483737",
"j  c #533C38",
"k  c #673829",
"l  c #6C3A2E",
"z  c #294517",
"x  c #2C4419",
"c  c #2D4B19",
"v  c #3A4716",
"b  c #324C1A",
"n  c #2E5119",
"m  c #33531B",
"M  c #3C5419",
"N  c #345B1B",
"B  c #3C5C1A",
"V  c #37631B",
"C  c #3B641C",
"Z  c #3D6D1D",
"A  c #3F711E",
"S  c #3F7320",
"D  c #464916",
"F  c #4C4C16",
"G  c #534315",
"H  c #584A17",
"J  c #445419",
"K  c #4A5318",
"L  c #445C1A",
"P  c #4A5C1A",
"I  c #575718",
"U  c #5D5418",
"Y  c #634515",
"T  c #694816",
"R  c #774816",
"E  c #675618",
"W  c #775717",
"Q  c #43641B",
"!  c #4A631B",
"~  c #446B1D",
"^  c #4A6B1D",
"/  c #55651B",
"(  c #41741F",
")  c #4B731F",
"_  c #42781F",
"`  c #54711F",
"'  c #726219",
"]  c #484B34",
"[  c #57423B",
"{  c #79462D",
"}  c #705626",
"|  c #694735",
" . c #794832",
".. c #775338",
"X. c #427620",
"o. c #4A7621",
"O. c #457C21",
"+. c #497C21",
"@. c #787232",
"#. c #474341",
"$. c #5A4545",
"%. c #684D46",
"&. c #695649",
"*. c #715A4F",
"=. c #74644C",
"-. c #786653",
";. c #862A11",
":. c #863615",
">. c #843C15",
",. c #8C3B15",
"<. c #933C15",
"1. c #983B16",
"2. c #A13D17",
"3. c #8C4216",
"4. c #874917",
"5. c #944315",
"6. c #9A4416",
"7. c #9C4C16",
"8. c #974819",
"9. c #895817",
"0. c #9A5717",
"q. c #A54817",
"w. c #A44C19",
"e. c #AB4D1A",
"r. c #B34D19",
"t. c #AA5B16",
"y. c #A35418",
"u. c #AC531A",
"i. c #AC5C19",
"p. c #B45A15",
"a. c #B3531A",
"s. c #BA541C",
"d. c #B55B1A",
"f. c #BC5B1C",
"g. c #896018",
"h. c #986518",
"j. c #A76618",
"k. c #AC6319",
"l. c #B66917",
"z. c #B46419",
"x. c #BC631B",
"c. c #B36B19",
"v. c #BC6B1A",
"b. c #AF7019",
"n. c #B7751A",
"m. c #BC7419",
"M. c #8F4D2F",
"N. c #885834",
"B. c #9A5934",
"V. c #AD5931",
"C. c #956631",
"Z. c #AF6D2F",
"A. c #C0571D",
"S. c #C25D1D",
"D. c #C56614",
"F. c #C4631D",
"G. c #CA651E",
"H. c #C36C1C",
"J. c #CB6C1D",
"K. c #D16C1F",
"L. c #C57516",
"P. c #C3741B",
"I. c #CC741C",
"U. c #C47D1A",
"Y. c #CC7C1C",
"T. c #D2741E",
"R. c #D37B1D",
"E. c #DA7E1F",
"W. c #CA6F22",
"Q. c #D77921",
"!. c #D57A21",
"~. c #8B704D",
"^. c #937B5B",
"/. c #478122",
"(. c #498423",
"). c #4C8A24",
"_. c #4D852B",
"`. c #638738",
"'. c #63884E",
"]. c #BA8A35",
"[. c #CA861A",
"{. c #CC841B",
"}. c #D4831D",
"|. c #DA851D",
" X c #D48B1D",
".X c #DB8B1D",
"XX c #DD921D",
"oX c #D8951C",
"OX c #E08E1C",
"+X c #E2941E",
"@X c #E39B1D",
"#X c #E79D1C",
"$X c #E6A21D",
"%X c #E9A41E",
"&X c #EBA91E",
"*X c #F2B41E",
"=X c #DB8420",
"-X c #DA8926",
";X c #DB9626",
":X c #CF8F31",
">X c #E28721",
",X c #E28C21",
"<X c #E49421",
"1X c #E49C21",
"2X c #EA9D20",
"3X c #E5992A",
"4X c #E39932",
"5X c #DCA337",
"6X c #E6A626",
"7X c #EBA421",
"8X c #EBAB23",
"9X c #F2A822",
"0X c #EEB329",
"qX c #F3B928",
"wX c #E7A536",
"eX c #ECB837",
"rX c #F2BA35",
"tX c #F9C72C",
"yX c #F5C333",
"uX c #F9C838",
"iX c #FAD338",
"pX c #B6934C",
"aX c #A69A5C",
"sX c #B4AD6A",
"dX c #CFAB4F",
"fX c #EDB642",
"gX c #C5B267",
"hX c #F7CB44",
"jX c #FCD849",
"kX c #EBC659",
"lX c #FCE650",
"zX c #CAC571",
"xX c #EBD671",
"cX c #FAF17D",
"vX c #A8BB8C",
"bX c #A8B8A7",
"nX c #D4D091",
"mX c #E2DD93",
"MX c #F2ED92",
"NX c #F8F7AF",
"BX c #F8F7C4",
"VX c #FDFEDA",
"CX c #FDFDEE",
/* pixels */
"n V ( A A A A A A A Z _ ( _ _ A A X.Z M v m A _ _ A A B G 4.p.L.}.3XwX>XQ.|.+X[.h.Y D V A A A A A Z Z _ X.X.X._ A _ ( ( Z Z A X._ _ _ A A Z A A A ( _ A A O.Z N ",
"C Z ( A X.X.A A A A A X.X.X._ A A ~ L I T U Q ( _ A C F R t.Y.XX6XeXfX4XQ.E.+X#X[.h.T K Z A A A A A A _ X.X._ A A ( X.A A A _ _ A A A Z V C Z _ _ _ ( A A O.A Z ",
"_ _ ( _ /.O.A A A _ _ /./.X.O.X.X.C U 9.k.9.K C A A N H 6.I.%XtXjXlXjXwX|.}.%XtXrX<Xz.E P ( ~ A A _ _ /.O.O.X.X.X.O.S A A X.O.X.A A C M D K ! +.(./.( Z A O.O.X.",
"( _ (.).(./._ ( _ _ _ /.(.).).).o.D W m..Xb.R L A _ ~ H 5.L.&XuXjXjXhXrX%X@X8XuXiXrXXXt.T L Z ( _ ( _ /.(.).).).(./.S A O.(.).(.(._ ! E 4.4.E ! O.(./._ _ /.O.A ",
"A _ /./.(.).(././.O.O./.).).).).O.! W j.[.h.E ^ _ ).( I >.m.7XrXiXuXyX0X%X@X8XrXuXqX1Xx.R J ( (./._ O.(.).).).(.(.)././.).).).)._ ^ E 9.I.Z.Z.E ! ( (./.O./.X.X.",
"A ( ( ( /.).).).(.(.(.(.).(.O.O././.` E 4.W ) /.)./.) U 3.x.XX8XqX0X8X7XXXXXoX8XqX8X.Xd.4.L O.).(.)./.(.).).O.O./.).).).).).).).^ F 9.{.0XuX5Xh.U M O._.(.O.X.X.",
"Z Z ( _ _ +./.O.O.X.X.X.X.O.(.(.).(.~ L K L O./._ ~ I 9.i.H.R.+X%X$X+X}.!.=X+X%X%X<XE.A.R D ~ /._ _ _ X.( O.(.(.(.(.O.X.O.O.O.C G p p.@XtXlXkX5XC.E L O.).O.Z V ",
"Z A ( /./.( ( A S A A A A S O.(.(./.X.A C Z O.X.~ K W k.Y.R.E.+X&X$X.XR.T.R. XXX.XE.G.q.T J Z S ( A A A A S O.(.(.(.O.O.X.( Q H 4.a.R.#XyXiXlXjX4Xh.G ^ (.X.Z V ",
"Z A X.O.O.A A S A A A A A Z Z O.(._ (.).).O.( A B G 7.G.,X|.<XwXqX0X;XXX}.I.I.G.T.S.u.R F B Z A Z A A A A A Z O././.(.).O.L H 0.P.4X3X3X<XwXiXlXfXm.u P (.A Z Z ",
"Z A X.O.O.X.S A A A A A O.O.S /.(./.).).).(./.(.~ F 8.s.T..X8XuXuXrX&X%X@XR.F.s.r.5.T I ~ A A Z A A X.A A ( Z +.(.(.).).( U 4.[.0XhXfX4XR.@XtXlXfXZ.e L (./.( A ",
"A A X./.(./.S S X.O.O.O.O./.(.).).(.).).).(.(.).X.K >.r.G.OX8XyXuX0X&X%X$X.XJ.r.,.u F ) (./.( A X.O.O.X.( Q P o.).(.).(.Z T w.;XjXlXhXwX|.#X*XtXwXj.e L ).(.~ Q ",
"_ ( X.).).).O.X./.(.).).(.(.).).)./.(.).O./.).O.~ F ,.r.s.T.XX8X8X6XXX.X1X&X+Xv.i D ~ (.).).O.O.(.(.).).! H T / (.O.)./.C Y y.5XhXlXhX0X$X&X*X*X;Xj.r ! (.S M D ",
"A A ( O.).).)./.S X.(.)././.)./.O.).).).).)./.P E h.c.d.1.a.I.XXXXR.J.R.@X8X#XP.4.e J X.).).).O.X.X.X.! ' j.b.9./ ) _ ^ E 0.m.4XwXeXrX8X#X#X&X*X0X:XC.' ! ( C M ",
"Z A _ /.(.).).(.X.S O.)./.O._./.O.(./.O.).).+.J W m. Xc.<.2.A.E.|.I.F.J..X@X.XJ.q.3.T / o.(.)./.X.A C F 9.Y..Xh.Y ) Z K 9.U.;X-X3X6X8X6XXXOX#X$X0XrX5XC.Y ! ( Z ",
"( _ /.).).).(.(.)./.O.)./././.).)./.X.A O.(.(.B T j.U.x.q.q.f.E.XX XL.F.J.T.G.f.a.v.n.W I ) O.(.).O.~ L W c.m.g.I _ B r z.+X*X+X;XwX0X8XXX@X}.l.:XeXeXc.R ! ( _ ",
"( _ )./.).).(.(.).).(.(./.(.(.).).X.( Z X.O.X.C ! E 9.q.r.A.K.+X&X8X@XR.S.f.q.3.8.n. Xt.E ~ X.).).)./.) / E W ' ` _ N G 8.P.XXXX6XyXuXqX$X.Xm.y.b.[.;Xh.Y ^ ( _ ",
"A _ (.O.O.).(.(._.(.(.O.O./.(.).).O.X.X.X.X.X.X.~ C H >.r.G.|.$XqXtXyX2XI.a.3.r E h.m.0.E ~ O.(.).).(.X.Z L J ^ ).O.Z J H 9.H..X8XuXuXqX$XL.k.i.l.c.h.E P _ O._ ",
"( O.X.A ( O.O./.(.X.A A A X.(.).).(./.O.O.(.).).)./.! U 3.z.}.$XqXuXhXrX@Xd.W J ) E R I ~ O.O././.X.A S Z Z X._.).(.O.) L T 7.I.1X9XqX*XoX0.7.[.}.b.T K Z /./._ ",
"( O./.X.X.X.O.O.O.X.X.O.S S /.(.).).(./.O.+.).).).).(.^ U 4.c..XqXtXuXtX@Xz.W M S ^ F ~ Z X.O.O.O.X.S O.A A /.).).).O.~ U 9.l. X$X&X9X%X Xl.t.c.L.b.9.E L ~ A _ ",
"A _ )./.O.O.O.X.X.O.O./.S S /.).).(.).(.O.X.X.(.).).).O.L H 4.H.+X9X0X7X.Xd.R J O.O.X.O.O.O.O.X.X.X.O.(.X.A /.).).(.~ H 4.l.-X%X%X+XXX-XXX.Xv.7.j.[.[.0.r B A _ ",
"X.O.+.).).).(./.O.X.X.A Z X.(.).(./.(.).(.~ J ~ O.(.(.)./.H i 7.t.k.l.}.Q.f.R J +.(.O.).).).(././.X.A A Z O.).(.(.O.Q u a.Q.,X2X=Xz.i.H.>X<X}.z.L. X1Xd.a P A _ ",
"X.O.(.).).(.(.).).(.O.O.O.(.).).(._ _ _ ^ ' W I ) +././._ H i <.5.6.7.d.A.e.R M ( ( Z A A Z S /.(.(.O.O.O./.).)._.X.Q H 0.F.Q.Q.H.y.q.i.T.=X.X}.XX+X!.0.T ~ ( _ ",
"A O.)./.(.(.(.(.).).).).).).).).(._ A Q H h.m.9./ ) X._ ~ G i 1.q.w.w.q.q.1.i , b m m c c c N ~ ).).).).).).).).(.S Z L T 8.r.e.y.i.y.y.e.G.>X9X7X{.0.T P ) A _ ",
"_ _ O.(.(.).(.O.+.).).).).).).O.O._ C J 4.m.;Xc.R v Z ( Q G :.r.J.R.Y.t.5.<.i q - = = & = 6 , M X./.).).).).).O.O.X.X.Z L H p ;.7.U.U.k.6.d.|.7X.Xj.Y P o.O._ A ",
"( _ /.(.(.(.O.O.O./.O.O.(.).(.O.+./.( P W h.m.0.e # x M H R <.q.f.}.+X[.c.z.0.i s 5 7 7 h ..} I n Z /.O./.).).O.O.(.O.O.X.! H t >.t.c.l.z.I..X Xj.E K ( /.(._ A ",
"A O.).).O.A X./././.O.A (.(.(.(.(.).(.O.~ E R q @ X & q a 7.q.1.7.z.XX@X$X1XL.7.i l %.$.~.pX].W = n Z A _ )./.(.(.).(./.(.(.! Y p ,.y.P.XX%XXXz.T K /.(._ _ ( A ",
"A O.(./._ Z A O.).).(.(.).(.O.(.).).).).O.K 0 f f ; t 4.i.q.q.k.c.c.k. X7X9XR.q.1.B.pXdXpXpX^.*.6 > c X.).(._ (.).).).).+.^ U 9.k.v.P. X7X8X.Xi.Y M _ (.) J M N ",
"( O.(././._ A _ ).).(.(.).(./.(.).).).(._ x O h [ l 3.p.R.u.w.c.m.c.7.x.|.E.f.q.M.W.dXkXxXgXpX*.#.6 , C _ /./.).).).).(.X.I 4.v. XoXoXXX<XXXI.w.Y B (._ / W E I ",
"( _ ).).).).).(.).(.O.X.O.(.).).)./.(./.A z < #.%.M.q.S.|.H.z.k.c.k.y.f.S.r.6.>. .~.dXxXcXmXsX^.*.$.7 > m A ).).).(.(.O.L T e.K.<X9X7X<XR.K.S.1.Y Z (.! T m.j.0.",
"Z _ /.).(.O.(.)./.(.X.Z A (.).)./.O.X._ A z . ] %. .8.e.J.|.Y.i.y.z.=X!.S.q.3. .%.&.~.zXMXNXmXvX^.-.$.6 > N (.)././.O.X.Z E 3.d.R.-XOXQ.G.S.p.y.E L Q H 9.}.Y.z.",
"A _ /.)./._ /.(.(./.X.L P ! /./.O./.O._ A x O h $.%.M.1.e.}.XXm.z.U.7X3X:Xm.j.M.| $.*.zXMXNXNXmXsXaX%.7 = c /.(.O.O.O.O.X.! Y 4.i.K.K.G.S.J.U.U.h.E D G W n.b.h.",
"( /.).).(._ _ (.).O.! H u E ~ S O.(.).).( x & 6 #.%.%.l 5.[.$X1XXX@XqXuXhXyXoXy.p j -.gXNXVXCXBXnXaX&.6 = z Z X.O.(.(.).(.~ L r 5.S.G.G.D..X*X*X Xj.G ! ` R H F ",
"( _ (.(.(._ /./._ L E h.c.h.E ! O.(./.O.X.Z m > 6 j M.0.m.5XrXqX%X$X8XrXtXtX@Xp.y l ~.zXNXCXCXCXBXmXsX&.h , J ^ O._.O.O.(.(.X.G >.s.J.Q.!.$XqX*X#Xd.u J ( ! P V ",
"A ( /./././.).(._ J W P.|.m.Y K O.(.O.X.O./.S > + 0 4.m.6XuXiXyX%XXXXX$XqX7XY.q.y j -.zXMXVXCXCXCXNXnXaX| f , L /.(.O.X.O.+.^ Y ,.f.K.=XXX7X*X7XR.y.r L A O._ A ",
"A ( _ _ /.).).).(.~ E h.l.h.I ~ O.).(.(.(.+.S % o 8 <.L.&XtXuXqX<XI.J..X#XL.y.;.y l *.dXxXNXVXVXBXnXaXpXC. .; m O.).).(.O.! G >.e.J.Q.=X-X$X2X=X0.T L ) (.).A Z ",
"A A A Z Z ~ ~ _ (.+.^ E W E o.+.).(.(./.)._.S % o 9 5.J.<X8X8X%X.XI.F.I.L.k.7.;.y { ~.pXdXxXMXmXnXaXaXdX].@., N (.)./.X./ E 8.q.d.Y.=X=XT.}.P.0.W ! ( O.(.).O.V ",
"A A Z B K H K ^ (.).O.B M L (.).(.(.+.(.).).A % o q ,.x.Q.R.R.}..X|.I.z.t.l.y.5.:.B.Z.Z.Z.aXsXsXaX~.pXfXdX`.B A (.(.( ! E j.P.a.d.{.<X=XF.f.0.Y ! S /.(.(.).A Z ",
"_ A Q H { y.4.I ) (./.O.X.X.(.O.X.X.X.O.).).O.z ; 8 :.u.G.s.A.J.OX7XoXk.7.[.[.l.w.Z.pX~.-.&.&.*.-.:XkXMXsX`.(.A _ ( B F 0.{. Xy.7.[.$X<XS.6.R L Z X.).).)././.A ",
"S Q F g.m.4Xn.9.U ! _ /.(././.O.O./.O.(./.(._ Z v , e :.e.s.S.J.=X<X@XU.l.l.l.m.Z.Z.C.%.$.$.$.$.-.dXMXNXvX'.(././.O.( ! W h.v.e.a.{.7X<XH.6.i Q Z _ (.(.O.O.X.O.",
"B D R :XhXiXoXj.a K ~ /.(.(.O.(.).(.).(.O.O.(.).Z > ; q <.a.G.K.!.=X<X.XL.7.7.k.Z.C.%.#.$.$.$.%.~.gXNXVXvX'./.(.).(.).(.Q T 8.q.d.!.<X<XI.7.T ~ A X.(.X.A X.S A ",
"w R b.yXjXuX-Xq.p F A (.).(.).(.(.).).).O./.(.).S z - 8 :.a.J.=X<X,X=XI.t.y g  .C.&.h h #.[ [ $.=.zXNXCXbX'._.(.(.(.).(._ ! H R w.J.-X,X!.w.R Q _ ).(./.(.)._ Z ",
"4.b.@XiXjXfX-Xd.5.U Q O./.O./.O.O.O./.X.X.X./.(.V z - q ,.r.Q.<X1X}.x.q.:.k g j [ [ j [ [ [ h h &.sXNXCXbX'._.O.O.O._ Z Z Z ! u <.f.Q.<X{.y.T K ( /._ _ _ (.(._ ",
"L..X*XtXuXeXwX:Xn.W I Q X.X.O.S X.X.S Z S X.O.X.N % ; q ,.a.Q.2X<XP.6.t g {  .j 7 h [ #.[ j h h | pXxXNXvX'.O.S X.X.~ M J ) ~ G >.s.E.<X Xy.i r ! _ ( ~ ( _ _ _ ",
"<X7X&X$X;XeXuXyX&Xm.4.K ) ).).)._./.X.A O.(.).(.Z > - 9 ;.w.J.,X|.d.y s h N.B.N.h h h j j #.h [ ..Z.fXxXaX`.(.(./.O.I T W U ~ r ,.S.>X7XoX0.,.5.R / _ _ _ /._ Z ",
"<X2X@XL.m.:XtXtX8XK.8.F X.).).(.(.(./.O.).).).).A z = ; q :.t..X}.z.y s f | M.B.N.j h f h 7 | N.].:X:XpX@.] V S _ ! ' j.j.g.H u 3.x.<X2X{.0.8.l.b.g.^ ( /./._ A ",
"Q.R.R.y.0.c.oX&X Xd.R K o.).O.O./.).).).O.O./.).Z z * 2 s q 5.}.XXm.y d 5 7 j N.B.N.h 6 7 h &.Z.:X;X:XC.f = % N ) G h.[.[.j.y y 5.v.<X<XP.6.7.[.{.j.Y P _ A ( A ",
"q.w.y.l.m.m.b.z.i.W P ~ ( O._.(.).(.S V z % z z > # . 3 4 9 3.[.oXm.p 0 5 3 7 g  .N.N.f h | C.C.C.N.N.B. .s # N (.) ' g.h.W F u 3.F.>X,XI.8.,.0.l.a.<.Y G e D m ",
"<.,.5.n.[.l.5.:.i G b V N N C Z Z Z N > O o O # # # 3 3 5 9 3.[.@Xm.y 0 1 1 3 h  .B.V.| | N.B.N.f 7 | N.M.r - c ( ( K r Y K M r ,.f.=X,X{.7.;.:.y.G.H.0.R 4.Y D ",
";.6.k.c.l.8.y 9 8 ; % : : : : : > z > , 9 9 8 o & > n x ; 9 3.Y.|.x.y 8 1 < 4 g M.V.Z.Z.B.M. .j 3 3 h | l k 0 : x b , ; ; : x e :.s.>X<X Xy.;.y e.:XwX4XR.I.y.R ",
"1.f.R.P.t.,.t 8 & # # # # # # # & & ; u 5.7.4.q ; c N x o 9 >.H.R.V.:.d 5 7 d l B.V.V.V.B.| f 7 7 6 5 5 s 0 s @ & = . X X . ; q ,.a.>X2X X0.;.1.G.wXhXqX2X+XJ.y.",
"6.f.=X}.v.7.y w z z z x x x z c > - u 0.[.;X:XM.r , x % o 8 :.f.K.J.e.:.t l l  . .B.V.B. .f 3 3 6 6 3 1 O + ; + O . . X X   @ q ,.s.>X2X X7.:.q.Q.0XuXqX%X+XT.s.",
">.8.H.<X#XY.R G ) /.(.(._ _ (.(.~ D 4.I.0XiXeX:X4.8 . X o 8 :.p.Q.Q.G.2.;.M. .j d %.B.k 6 2 3 3 4 5 1 O . . - * & O O # # . ; q <.f.Q.=Xm.7.6.f.=X2X%X@X-XQ.J.d.",
"G T 7.R.@X<Xb.W U ^ +.).(.(.).).) F 9.T.qXtXyX3Xv.p @     8 >.L.,X,XK.r.:.M.d 7 7 l B.l 4 1 1 1 1 3 2 1 O > B m c N N m n N M e 4.J.Y.v.u.i.P.|.-X|.}.|..XOX;XwX",
"m G a l.OX7X=Xd.a K Z )._ _ )._ B D R d..X&X8X7XR.i.y 8 o 8 >.U.2X<XF.1.;.9 4 1 d M.M.l 5 3 6 s s s 4 2 & x _ O.( _ ( A /._ ~ r 8.I.P.u.5.v.XX&X$X-X!.-XXX#XqXiX",
"Z F i c.<X9X>XS.1.H Z (././.(.C > & 0 y t.Y.+X.X>XR.k.R 9 9 :.U.+XY.8.i d 5 1 1 h M.V.$.f g M.M. .g s @ - : N X.(._ A A _ (.) Y 8.J.x.q.,.x.+X9XqXeXwX3X$X@XqXiX",
"V D a n.@X2XH.8.R / ( /.(.+.C x $ X o t 7.L.|.|.<X7X7Xn.,.y <.D.Y.x.y d 5 1 1 1 s l M.g d l M.B.M.l d 5 4 2 > m ( _ A A _ _ ^ G 3.F.f.7.,.a.T.#XqXuXrXrX$X+X@X6X",
"B F R m.,X|.7.T K ) X.O.X.Z x = O + 8 y u.I..X.X2XrXuX0XL.6.5.d.F.u.t @ O . . 1 ; s g f d g l l k d s 6 5 4 2 - m Z X.A A S ~ r 3.S.f.6.:.1.d.}.0XtXyX0X+X>XT.L.",
"C F a v.R.H.R F _ A Z Z N > - 2 s k 6.a.F.!.|.XX6XrXhXrX$Xt.5.a.S.a.y @ o   X X X . & 0 w ; * # - * 4 4 4 4 4 - - b C X.Z Z Q r 8.S.F.w.y t R j.-X&X%X<X}.J.A.a.",
"C F i f.K.x.a D O.O.Z N > O 4 s i j.L.L.u.F.!.T.Q.-X4X8XoXk.6.a.S.u.y @   X X X . : n J J b x z > = O 1 1 O 2 1 - > x x x x , e 5.S.F.w.u G H R l. X<X|.H.e.i.v.",
"C F a f.K.f.a w V Z C x * 1 4 0 R n.[.c.5.q.F.F.F.G.!.-X{.0.4.y.f.e.y 8 . X X O : N O.O.X.X.X.X.C > * & & * & 4 4 O O . X . o t 6.F.G.w.r ! ~ G 0.R.<XQ.f.1.t.Y.",
"Z F >.S.K.S.,.w > > : # O 1 + , K ' j.u.2.r.A.I.-XwXwXW.0.' / E 7.2.;.q + 1 . : C O.O.(.).).(./.X.N c z c b c - + O o . X . @ t 6.G.K.u.T o.) w 0.{.7X>XS.1.e.f.",
"Z F u u.A.a.i 8 & & # O = > > B ~ F 4.p.A.r.s.Y.8XiXhXZ.i D N D 4.,.i 0 ; * > N O.(.(.).).(.(.).).O.( Z ( _ Z b : = & = = * ; 0 ,.f.S.8.r ^ ^ G 0. X7XR.u.R R R ",
"C b 0 3.6.,.0 ; O O O = c N N X._ w R D.R.D.r.I.8XiXeXn.t , x w y y d 5 3 > N O.+.(.(./././.(.(.).).).).).).(.C b z c c c z > ; u 6.7.u ; V Q G h.|.+Xv.4.U D D ",
"n : # q e q - $ & & : b X.(.O.O.~ D 4.I.#XOXH.J.{.oX;Xb.4.e 0 q t d 1 1 > N X./.(.(././.).)./.O./.(.).).).).(._ Z A Z C Z ( Z z ; q t 0 $ c M e y.T.E.y.u ! Z Z ",
": # X o @ ; c n m c b C /.).)./.~ D 4.I.$X$X.XT.F.p.l.m.m.4.u q 0 4 $ : m S /.(.(./.(.(.(./.O.O././.O.O./.).(././.(.O.O.O.(./.Z b ; @ 4 * > , q 7.G.K.7.u ^ A A ",
"# . # & = z Z _ O.O.X.Z O.).(.(.X.F 4.x.OX8X$X|.a.,.6.l.oXk.a 8 2 < = N O.O.(.(.O.(.).(./.A S /./.O.O.A /._.(./.(.).(.(.).).).).Z > = 2 2 O o q 3.f.f.4.Y ~ A ( ",
"c b N m n V Z _ ).).).(.).(./.(.o.G 4.S.=X1X$X7XY.w.,.6.z.4.q 4 & > N ( (.).).(.(.(.(.O.A A Z O.).).).(.).(./.(.).).).).).).(.).(.Z x & 4 1 + @ t 3.4.' ` (.O._ ",
"C ( X.( A A A O.).).).(.(.(./.)._.P R y.F.Q.<X9X+Xl.:.y i q 5 2 = x ( /./.(.(.).(.(.(.(./.O.A O.).).).(.(.(./.(.).).).).(./.O.(.).).C x - 2 1 . 0 q e F V Z A A ",
"A /.(.).).).(.(.)./.O.X./.).).).(.X.L Y 7.S.Q.9X#Xm.:.9 @ 4 1 2 = n /.(.O././.(.(.(.).).).).).(.)./.O.X./.).).).).(./.(./.O._ /.(.).(.Z x 3 * . o @ ; : : > c N ",
"A A (.).).O.(.).(./.O.X./.).).).+.X.L T y.d.f.Q.m.0.Y ; O 1 2 2 > N _ (./.X.O.O.O././.).(.O.(.).(.(.O.X.(.).).(././.X.O.(.).(.X.O.).)./.~ x : = : = & & $ & = : ",
"A A (.).(.A /.(.)./.O.( O.).(./.X.Q U g.n.z.q.q.0.E P > X X * > m A O.).).O.O.O.(././.)./._ /.(.(./.O.X./.(.)./.O./.O./.).)./.O./.(.).).(.B b m m n n c x & . . ",
"A /.).).(.O._ /.).O.( ( O.X._ _ ~ K W m.;Xc.5.,.i M C c O X : B X.(.).).).(.).)._.).).).(.O._ /.).O.X.X.X.X.X.X._ (.).)./.( A (.)./.).).).O.X.O././.(.(.~ x & . ",
"A _ )././.O././././._ ( /.(././._ ~ U W c.m.z.w.i , % # # > N X.(.).(._ _ ).).).(./.(.(./.O././././.O.S /.(./.O./.(./._ /././.)./.O.(.).)./.O.).).).).O._ Z N b ",
"A _ /./././.(.(.+.).).X./.).(.(.).).~ G 8.H.!.d.p 0 X X # b X.(.).(./.A _ ).).(./.O././././.).(./.(.).X./.).)./.(.).O._ +.).).+.X.X./.).).(.(.(.).(./._ A /._ A ",
"A _ _ _ (.).).).).).).).O.X.).(.(.).( K 3.x.!.a.a @   X & N X.).(./._ /.(.)././././.O.O./.).).).).).).).O.X.).(./.).)./././.O.X.X./.O.(.).).(.).(./.O././.).A Z ",
"A A _ _ O.).(.(.).).)./.X.O.).).).).~ K 3.s.J.a.:.8 o X . b A ).).)././.).).O.A /.O.( ( O.).(.(.).).)./.X.O.).).).).(.(.)./.O.X.O.(.O.O.O.O./.).).(././.).).A Z ",
"A A A A _ /.O./.).)./._ /.(.).).(.(.Z F 3.s.G.r.:.0 O < & b X.(.).).(.(.(.)./.X./.O.( A X.O.O./.).).(._ _ (.).).)./././.).)./.O./.).O.O.O.X.O.(.).).(.(.).).A Z ",
"_ A A A _ A O./.(.(././._ /.(.O._ X.C F 8.f.G.a.:.q 2 < : N O.O._ A ).).).(.(.).).+.A ( X.S O.(.).(.(./.O./.(./.X.O.X.O.).).(././.).).)./.(.(.O.( _ ).).)./._ A ",
"Z A A A A A _ _ _ A _ _ _ _ _ _ ( ( B F 3.s.G.a.>.s * : m Z O.O.Z Z /.X.A A O./.O.( A A A _ ( _ _ A A _ _ _ X.( X.( O.O.O.O.O./.O.O././.O.O.O.O.Z Z _ _ A A A A ",
"V C Z A _ _ A A Z Z Z A A A A A _ ) C F 4.a.G.r.p 8 # > Z A X.X.Z Z A Z V Z Z ( A A A A ( _ A Z Z Z Z A A A A ( X.( _ ( Z Z ( X.X.A A A X.A X.X.Z Z ( Z V Z V V "
};
