/* XPM */
static char *Group_10_14__resized[] = {
/* columns rows colors chars-per-pixel */
"80 80 230 2 ",
"   c #1A0F3D",
".  c #273A2F",
"X  c #293C37",
"o  c #2C4C1D",
"O  c #2F521C",
"+  c #31551E",
"@  c #345D1C",
"#  c #37621C",
"$  c #39651C",
"%  c #3C6D1D",
"&  c #3F711E",
"*  c #2C4728",
"=  c #2E4A2B",
"-  c #314F2A",
";  c #2F5024",
":  c #325424",
">  c #355B24",
",  c #33542B",
"<  c #365A2A",
"1  c #385C28",
"2  c #3A5D2B",
"3  c #2C4335",
"4  c #2E4539",
"5  c #314A38",
"6  c #365335",
"7  c #375537",
"8  c #3A5A34",
"9  c #3B5A39",
"0  c #366120",
"q  c #3A6424",
"w  c #3D6B22",
"e  c #3C632B",
"r  c #3E6A29",
"t  c #3F7120",
"y  c #3D6234",
"u  c #41751F",
"i  c #43791E",
"p  c #40692A",
"a  c #416C2B",
"s  c #417521",
"d  c #457C21",
"f  c #44722A",
"g  c #487929",
"h  c #4B7C2C",
"j  c #466937",
"k  c #4C7535",
"l  c #4E7C33",
"z  c #517D37",
"x  c #537B3C",
"c  c #1C1342",
"v  c #201A49",
"b  c #2D3D44",
"n  c #2D3A4C",
"m  c #282858",
"M  c #2D3857",
"N  c #303D54",
"B  c #333A6A",
"V  c #2F4249",
"C  c #334C44",
"Z  c #32434A",
"A  c #344948",
"S  c #375446",
"D  c #3A544B",
"F  c #344758",
"G  c #3B5456",
"H  c #3D6242",
"J  c #344564",
"K  c #384A66",
"L  c #364569",
"P  c #3A4B6C",
"I  c #3D536A",
"U  c #3A4777",
"Y  c #3B4B73",
"T  c #3E5376",
"R  c #445C46",
"E  c #55734E",
"W  c #587948",
"Q  c #637D5E",
"!  c #415968",
"~  c #41567A",
"^  c #435B7B",
"/  c #44666C",
"(  c #48677B",
")  c #47831F",
"_  c #478022",
"`  c #498423",
"'  c #4C8A24",
"]  c #4D822B",
"[  c #4F832F",
"{  c #528235",
"}  c #56843B",
"|  c #5B8346",
" . c #61884C",
".. c #66934C",
"X. c #678858",
"o. c #6D9359",
"O. c #6A8762",
"+. c #738C6D",
"@. c #759569",
"#. c #748A73",
"$. c #7D9777",
"%. c #80987A",
"&. c #839C7B",
"*. c #83A178",
"=. c #445985",
"-. c #465A8B",
";. c #485D97",
":. c #495E97",
">. c #4A6885",
",. c #4A628D",
"<. c #53728D",
"1. c #4C6595",
"2. c #4C639C",
"3. c #536C99",
"4. c #607A97",
"5. c #4E66A1",
"6. c #516AA4",
"7. c #536DAA",
"8. c #5673AB",
"9. c #5979AD",
"0. c #5876B1",
"q. c #5B7AB3",
"w. c #5E7FBB",
"e. c #667CA8",
"r. c #5F7FC0",
"t. c #738A8D",
"y. c #5D83A9",
"u. c #5E84B6",
"i. c #6089A9",
"p. c #638AB8",
"a. c #6895BA",
"s. c #6285C3",
"d. c #648AC5",
"f. c #668BC9",
"g. c #688FCB",
"h. c #6B98C5",
"j. c #6991CC",
"k. c #6C94D3",
"l. c #6F9AD6",
"z. c #6F9AD8",
"x. c #709ED4",
"c. c #719EDB",
"v. c #6FA3C8",
"b. c #75A6CB",
"n. c #73A3D4",
"m. c #76ABD6",
"M. c #73A1DD",
"N. c #7DB7D9",
"B. c #76A5E2",
"V. c #77A8E3",
"C. c #79ABE6",
"Z. c #79ACE9",
"A. c #7CB5E5",
"S. c #7DB3ED",
"D. c #7FB5F1",
"F. c #899D88",
"G. c #8CA487",
"H. c #91A78F",
"J. c #96AD93",
"K. c #96A998",
"L. c #9BB199",
"P. c #A1B69A",
"I. c #9DADA3",
"U. c #A6B9A7",
"Y. c #AFBEB7",
"T. c #AFC1B1",
"R. c #B7C6B7",
"E. c #B5C4BC",
"W. c #97B7CD",
"Q. c #82BDDC",
"!. c #81BCE6",
"~. c #80B7F2",
"^. c #82BBF4",
"/. c #84BEFA",
"(. c #84C1DD",
"). c #BBC8C4",
"_. c #A1C4DB",
"`. c #87C7E6",
"'. c #8ED1E9",
"]. c #93D7ED",
"[. c #86C2F4",
"{. c #8BCBF4",
"}. c #86C3FD",
"|. c #88C6FE",
" X c #8ACAFF",
".X c #8DD7F9",
"XX c #8ED2FE",
"oX c #94DDF2",
"OX c #9ADDF0",
"+X c #90D5FE",
"@X c #93DCFF",
"#X c #9AE5F5",
"$X c #9BE8F5",
"%X c #95E5FF",
"&X c #99E5FF",
"*X c #97E9FF",
"=X c #9BEBFF",
"-X c #9EF1FE",
";X c #A2E7F6",
":X c #A3EDFE",
">X c #A8EFFD",
",X c #A3F3FE",
"<X c #ABF2FF",
"1X c #A5FAFE",
"2X c #ABFBFE",
"3X c #BCF0F7",
"4X c #B5F5FF",
"5X c #B9F6FE",
"6X c #B4FAFE",
"7X c #BCFAFF",
"8X c #C0CDC8",
"9X c #C8D4CB",
"0X c #CCD7D5",
"qX c #D2DCD5",
"wX c #D3DDDA",
"eX c #D5DEE1",
"rX c #D7E2E4",
"tX c #DAE3E4",
"yX c #C8EFF4",
"uX c #C4FCFF",
"iX c #CCFFFF",
"pX c #D6F2F8",
"aX c #D2FFFE",
"sX c #E4EAE9",
"dX c #EBF0ED",
"fX c #E8EFF1",
"gX c #EDF3F4",
"hX c #EAF9FB",
"jX c #F4F8F9",
"kX c #FCFDFD",
/* pixels */
"O # u % u u u u u $ % i u u i u & & d i & % & d s i s i & % % % & s i u % d u $ $ % & & & & & & & & % u i i u u & u u u % % & s d u u u u % % % u u u % u i $ + ",
"$ % u u s d % u u u u d d s u u & & & & & & i s & & & & & s d d d s u % u d _ d s u & u u u & & & & & i s s i & & s u & & & u i s % u % % s d d d d s % u s u u ",
"i i u i d d u u % u d d d d d s t d t & & i d t t & & t s _ ' ' ' _ u & u d ` ' ' _ s d _ i & & t i i _ d d d s s d & & & s d s d u u u s _ ' ' ' _ u % u d i u ",
"u i ) ' ` d u u i u u d ` ` ' ` ' ` & t d ` ' ` _ _ ` _ ` _ _ ` ` ` _ i i _ _ ` _ ` ` ' ` _ i s d u u _ ` ' ' ' ` _ s & d ` ' ' _ d d ` d _ ` ' ` ` _ d d d i u ",
"u u d d ' ' ` ` _ d d _ ' ' ' ` ` ` _ _ ' ' ' ' ' ' ' ' ` _ d _ d d ' _ s s u s t t s d ` ' _ _ _ d i ` ' ' ' ` ` ' _ _ ' ' ' ' ' ` ' ' ` d d d d d ` ` d d i u ",
"u u u s d ' ' ' ' ` _ _ ' ' d d _ ' ' ' ' ' ' ' ' ' ' ` _ d d s w s _ d w > > 1 > : > $ d ' ' ' ` ` ` ` ' ' d d _ ' ' ' ' ' ' ' ' ' ' ' ` d d d u u ` ' ' d s i ",
"u % u i d d d d d s s d d d ` ` ' ` _ d d d _ _ ` ' ' ' ` s i s & & d w - b b b b b X > % d d d s u s s s d ` ` ` ` _ i d d _ ` ` ' ' ` ` d i d % % d ' ' d % $ ",
"$ u u i d s s i s u % s % u d ` ` _ d s d s s i d ' ' ' ' _ _ _ u w a y ! =.=.T =.~ T S e $ & t u & & t & & d ` ' _ d d s d s s d ' ' ' ' d _ ` d d ` ' ` d $ $ ",
"% & i _ d & & t % & & t & & & s ` d ` ' ' d u & s ` ' ' ' ' ' ' i q S ( i.b.b.h.h.h.p.( C + $ & & & & t & t t t _ d ` ' ' _ t & s ' ' ' ' ' ' ' ' ` ' ' ` & % & ",
"% & u i d d & & % t u % s d s _ ` _ ' ' ' ` d ` ' ' ' ' ` ` ` _ > 5 ! i.N.oXoX'.].oX(.a.( 4 ; $ & t & & t d d ` ` ` ' ' ' ` _ ` ' ' ' ' ` _ ` ` d t s ` ' _ s u ",
"& & s ` ` _ & & s d d d d ` ` ' ' ` ' ' ' ` ` ' ' ' ' ' d _ ` _ > X I y.N.=X,X,X,X2X$XQ.y.T 5 : $ $ 0 0 w t t ' ' ` ' ' ` ` ` ' ' ' ' ` d _ _ ` t % & d ' ` d i ",
"i & & ' ' ' d d _ ' ' ' ` ` ' ' ' _ ' ' d _ ' _ ` ' ' ` & _ ' ` $ : C ( i.`.@X=X2X2X1X$X(.y.I 4 * ; = 3 3 ; w ` ' _ ` ' d _ ` d ` ' ' ` u _ ' ' t % & ` ' & u i ",
"& & u _ ' ' ' _ t d ` ' _ d ' ` d ` ' ' ` ' ' ` ` ' ' ' ` ' ' ' d s f H ! 9.l.`.OX=X:X1X#XQ.y.( F K I I I G 8 t t _ _ _ ` ' ' ` ` ' ' ' _ ' ' ' ` d ` ' ' s u & ",
"% & d d ' ' ' ` & t d ' _ d ' d i ' _ d ' ' ' ` _ ` ' ' ' ' ' ' ` ' ` % 6 G 1.p.!.XX%X1X1X#XN.i.2.2.8.y.9.<.G < 0 w q w ` ' ' _ _ ` ' ' ' ' ' ' ' ' ' ' ` _ s & ",
"u d _ ' ' ' ` ` ' _ d ` _ _ _ ' ' _ u & d ' ' s u d ` ` ` ' ' _ d d d d w < A =.p.Z.+X:X1X,X].Q.m.b.N.A.(.v.>.A 3 . 3 ; t ' ' t u d _ ' ' ' ' _ d d _ _ _ ` _ i ",
"$ % u & t s & t ` ' ` _ _ ` ` ' ' d & & s s d s u s d s & & t t s w u _ d q 5 P 0.B.[.&X=X=X=X$X#X#X$X$X-X'.a.>.T U P A e t _ t s s d _ s d ` ` ` _ _ ` ` ' _ i ",
"@ > < - , < , 1 s d _ d d _ ' ' ' d d s u s d s d d d w : - - < < < e r r e D ( s.Z./.XX+X&X-X1X1X1X2X2X2X$X`.h.u.d.y.>.A < w t t _ d d t _ ` ' ' ' ' ` ' ' ` i ",
"+ 5 n n n n n b , w u u % d _ ' ' ` d d d _ ' ` ' ` d e 5 n n V V b b X X F <.d.S.}.|. X X+X%X=X-X-X,X-X,X$XoX`.`.{.N.i.^ C > d ' ` ' ` ' ' ' ' ' ' ` ) t ` _ & ",
"S ! 1.1.1.,.1.=.D < @ p @ @ 0 t d ` ' _ d s d s t t r y I ,.1.,.=.-.=.U ~ 6.f.!. X+X|./.}. X+X&X-X-X-X*X*X*X=X:X$X<X;X(.u.( C r d ' ' ' ` ` ` ` d ) ` t t d s i ",
"( i.b.m.b.b.m.a.( S * : * 3 3 , q d ` ' d t 1 , - - 7 / y.m.m.v.h.g.s.r.s.l.D. X+X X}././.|.+X%X=X=X*X*X%X=X2X7X7XuX7X>X'.a.T S r t ' ` t ) ` ` t t d ` _ & & i ",
"a.N.oXoXoXoX$X`.i.( N m N B L Z 6 t _ ' ' s 6 F M M ~ y.N.oX$X].'.^.S.S.S.^.[. X X X|.}./. X+X&X=X=X=X%X%X=X<XuXiXaXuX7X,X`.u.^ C 0 t ' ' ' ' ' ' ' ' ' ' _ d & ",
"m.'.2X2X2X1X2X$XQ.a.4.3.3.e.e.,.! 8 0 % w y G 1.2.1.y.m.OX<X2X-X*X@XXX.X+X+XXX X{.|.}.}. X+X@X&X=X=X*X=X=X<X5XiXaXaXaXuX7X;X(.u.^ S e t _ ` ` ` ' ' ` ' ' _ d i ",
"Z.{.<X1X2X1X1X,X;X_.W.W._._._.W.t.G 3 * = G <.b.N.m.Q.].4X7X5X,X-X=X%X*X=X=X&X@XXX X}. X+X@X%X=X=X*X=X:X4X5XuXiXaXaXaXaXiX7X;X`.a.T C : w t _ ) t & ) _ ' _ d i ",
"f.m..X%X-X-X=X-X<X3XyXyXyXpXpXyXW.4.Y M P <.v.#X-X$X;X3XuXuX5X:X=X=X=X=X=X=X=X=X+X X XXX@X=X=X=X=X*X=X<X7XiXiXiXiXiXiXiXiXiX7X;X`.a.T C : t t & t t _ _ ` _ s & ",
"1.u.Z. X&X=X=X-X2X7XiXiXiXiXhXaXOXW.6.2.9.h.`.-X2X6X7XuXiXuX5X<X,X<X,X>X=X=X=X*X@X+X+X@X&X=X=X=X*X*X&X<XuXiXaXiXiXiXiXiXiXaXiX7X>X(.i.( C : # & & u _ _ d _ i & ",
"F ^ s.Z..X=X=X=X<X2X2X2X6XuXiXiX3X].N.m.N.`.oX-X6X7XiXaXaXiXuXuX7X7X7X<X=X*X*X*X&X%X%X%X=X=X=X=X*X*X=X4XuXiXaXaXiXiXuXiXiXiXiXiX5X;XN.u.T C ; w % s ` _ _ _ i & ",
"- A ~ q.m. X+X*X-X=X=X=X=X>X5XuX7X2X$X$X-X$X*X,X<X5XiXiXiXiXiXiXaXaXiX5X<X=X=X-X=X=X=X&X=X=X=X=X&X*X&X<X7XiXaXiXiXiXiXiXiXiXiXiXiX7X;X`.a.( A q t s _ _ ` ' _ i ",
"# , A ! q.m.[.+X=X*X*X%X*X=X>X<X2X2X1X-X1X-X-X=X:X<X7XuXiXaXaXaXaXaXiXuX5X4X<X4X4X,X=X=X=X&X=X&X*X%X=X<XuXaXaXaXiXiXuXiXiXiXiXaXaXiX7X;X`.p.^ G y s d _ _ ` ) & ",
"& % e 5 ^ p.V.{.*X=X=X=X=X&X=X,X,X=X-X-X=X-X=X=X&X=X>X5XiXiXaXiXiXiXiXuXuXuXuXuX5X,X=X*X*X&X&X*X*X*X&X<XuXiXaXaXiXiXiXiXiXiXiXiXiXiXiX6X,XN.u.( C 0 _ _ _ _ & & ",
"% & w = J 6.k.[.@X%X&X=X=X=X=X=X=X=X=X=X=X=X=X=X*X*X=X<X5XuXuXuXuXiXaXaXaXiXiXuX5X>X=X*X*X*X=X=X*X%X=X>X5XuXuX5XuXiXiXiXiXiXiXiXiXaXiXiX5X#Xn.2.Z * s _ ` t & & ",
"& i s * F 2.k.^.@X+X@X&X=X=X=X=X=X=X=X=X=X=X=X=X*X%X*X=X>X<X<X<X5XuXaXaXaXiXiX5X<X=X&X*X*X*X*X&X&X=X&X:X>X<X<X4X4X7XiXiXiXiXiXiXiXaXiXiX7X#Xm.6.N * s ` ' d & & ",
"u i s = K 7.z.[.+X X X@X&X=X=X=X=X=X=X=X=X=X=X=X=X=X*X=X=X=X&X:X>X5XiXaXaXuX4X:X&X*X=X=X&X&X=X=X=X&X=X=X=X=X&X$X,X5XiXiXiXiXuXiXiXiXiXuX6X].n.3.F - d ' ` ` _ t ",
"u u p = ! 8.c.[.+X X X X+X%X@X%X@X@X&X@X@X@X@X@X*X=X=X=X%X%X%X*X>X<X7XuX7X5X<X=X%X%X%X=X:X,X:X=X*X*X&X&X*X*X%X%X=X<X5X7X5X7XuXiXaXaXaXuX6X#XQ.a.>.H y w t ` ` d ",
"% u u * F 8.M.[.+X X|. XXXXXXX X+X+X X X+X+X X+X+X*X=X=X*X%X%X*X=X>X<X<X<X,X=X*X%X%X*X,X5X5X>X:X%X*X=X&X*X*X%X%X=X=X:X>X>X<X7XuXaXaXaXuX<X%X].`.v.( G - > ` _ & ",
"% u p * K 7.l.~.+X X|.|.|.|.|.|.|.|.}.|.}.}.}.|.XX@X=X=X*X=X=X=X&X=X=X*X*X*X&X=X*X=X=X5XuXuX5X>X=X&X=X*X=X&X&X=X=X&X=X%X*X=X<X7XuXiXuX5X<X-X-X,X'.h.-.V > _ & % ",
"u $ 1 * K 6.f.~. X X|.|.}.}.}.}.}.}.}.}.}.}./.|. XXX@X&X=X=X,X=X=X=X*X@XXX+X+X*X:X<X5XuXiXiXuX5X>X:X&X*X&X=X=X=X=X*X*X%X%X*X>X4X5X5X5X<X:X-X1X1XoXv.-.F : _ ) # ",
"u $ # * J 5.r.C./.}.|. X|.}.}.}.}.}.}.|.}.}.}.}.}.|.XX@X&X:X=X=X=X=X*X+XXX X.X%X,X5XuXiXaXiXiXuX5X>X=X*X&X=X=X=X=X=X*X*X%X&X=X:X:X>X:X:X=X-X1X1X'.h.-.Z < d & % ",
"u u @ * F :.w.z.^.}.|. X|.|.|.|.|.}.|.|.|.|.|.}.}.}.|.XX+X;X&X&X*X%X%XXX X X.X%X,X5XuXiXiXiXiXiX5X,X=X*X=X=X=X=X=X=X=X=X=X*X=X=X*X*X*X*X=X=X1X,X'.a.~ A > d _ d ",
"s u p * F ;.q.z.^.|. XXX X|.|.|.|.|.|.|.|.|.|.|.}.}.|. X+X@X+X+XXXXXXXXXXX+X%X*X:X<X4XuXiXiXuX5X>X:X&X*X=X=X=X=X=X=X-X=X=X-X=X*X*X%X*X*X=X=X1X1X`.p.Y 4 + & d & ",
"% u s = K :.r.c.^.}.|. X X|.|. X|.|.|.|.|.|.|.|.|.|.|. X X X X|.|.|. XXX%X&X*X*X*X=X:X5XuXiX7X,X=X=X=X=X=X=X=X=X=X=X=X=X=X=X=X=X=X=X*X=X=X-X1X,X`.a.T V ; w & & ",
"+ @ 6 D ^ q.f.c.D.D.^.|. X X X X|.|.|.|.|.|.|.|. X X|./.^.^././.|. X+X%X=X-X-X=X*X%X*X,X5X7X<X=X*X=X=X&X&X@X@X%X%X@X@X&X&X=X=X=X=X=X=X=X-X-X-X=X'.n.9.! S r $ $ ",
"o 5 ! -.9.k.z.c.B.C.S.D.|. X X X X|.|.|.|.|.|.|. X X/.^.~.~.~./. X+X@X&X=X:X=X=X=X%X*X:X,X<X,X=X*X=X=X*X+X+X X X XXX+X+X+X@X@X@X@X*X=X=X-X=X&X@X X~.M.y.( S > @ ",
"= F -.w.l.C.B.c.z.c.B.S.}. X}.}.|.|.|. X|. X|.|.|.|.~.~.z.M.~./.+X@X=X=X=X&X=X=X=X=X&X=X*X*X*X*X=X=X=X+X X X}.|. X X|.}.^.^.~.^.{.+X=X,X,X&X@X X X X[.M.8.J 5 : ",
". J 6.g.C.~.Z.c.l.l.M.B.S.S.S.^.^.|. X X X X X X/.~.~.M.k.c.Z./.+X@X@X@X@X@X&X=X,X=X=X%X@X@X+X+X@X%X+XXX X}./.}.|. X^.C.g.q.0.p.M.[.$X<X,X&X+XXXXX+X+XS.w.L X o ",
". F :.s.M.~.B.c.l.c.c.B.B.B.B.C.S.}. X X X|. X}.~.~.M.z.l.c.~.|. X+X+X X X+X@X&X=X-X=X@XXX X X X X X X X|.}.}.|. XXX[.l.8.=.B =.7.c.{.@XoX.X X|.XX+X+XC.w.P X ; ",
"* A ~ 3.s.M.M.M.M.c.c.c.c.l.l.c.V.D.[.}.}.}.[.[.~.M.z.z.c.~.~./.|.|.}./.}. X+X%X=X=X%X+X X}./.}.|.|.|.|.|.|.|.|. XXX[.x.8.Y m m ~ 9.n.~.~.~.~.^. X+X XM.9.L 4 O ",
"@ : 7 I 3.s.k.c.B.B.c.c.c.l.l.c.B.Z.S.S.S.D.D.Z.~.k.k.Q.~.~./. X|.|.}.}.}.|. X+X+X@X+XXX|.}.}.}.}.}.}.}.|.|.|.|. XXX}.S.l.7.B m m B 6.w.9.s.z.~. X+X Xm.8.J X o ",
"$ $ , 5 P 7.f.c.V.B.M.c.c.c.z.c.M.M.B.B.B.B.B.B.c.z.c.~.^./.|.|.|.|.|.}.}.|. X X X X X X|.}.}.}.}.}.|.|.|.|.|.|.|. X X{.[.c.7.B v m B B B -.8.f.!. X|.C.9.B X o ",
"% % q * F :.s.M.Z.B.c.M.c.c.M.c.c.z.z.z.z.z.z.z.z.z.B.~.~././. X X X X|.|.}.|.}.}.}.}.}.|.|.|.|.|.|.|.|.|.|.|. X|.|. X+X&X{.x.6.U m v c c m U 5.k.~. XZ.q.L X O ",
"% $ 2 X J 2.f.B.~.C.c.c.c.M.M.M.c.c.c.z.c.c.z.c.z.c.c.c.B.~././. X X X X|.|.|.|.}.}.}.|.|.|.|.|.|.|.|.|.|.|.|. X X X XXX+X+X^.n.0.U m     v m B 8.M.}.S.p.P 3 O ",
"$ q 6 Z K :.w.x.B.B.c.M.c.c.c.c.c.c.c.c.c.c.c.c.c.c.c.c.z.~.~./.|.}.|.|.|. X|.|.|.|.|.|.|.|.|.|.|.|.|.|. X|.|.|.}.}.|.{.{. XXX{.m.0.U B m M B B 3.l.^.C.w.L 4 O ",
"w 2 7 7 G ! ,.q.g.z.M.M.M.M.c.M.B.c.c.c.c.c.B.c.c.c.c.z.k.z.~.~.^.D.D./.|. X X X X X|. X|. X X|. X X X X X|.[.~.S.D.S.D.~./.XX+X{.B.u.6.3.2.:.2.u.n.S.M.9.L 3 ; ",
"@ 1 8 2 9 R K -.0.k.M.B.M.M.c.c.c.c.c.c.z.z.z.k.c.c.c.c.z.c.B.B.V.V.C.D.[. X X X|.|. X X X|. X|. X|. X X X|.~.Z.B.V.V.V.c.Z./. X X[.Z.n.M.n.n.M.V.S.V.j.6.L 4 o ",
"@ 1 8 p j 7 Z U 7.g.B.Z.B.B.M.B.c.c.B.B.~.k.~.k.B.B.c.B.B.B.c.c.l.l.M.Z.^.}.}.}.[.}.[./././.[.}.}.}.[.}.}.^.S.B.c.c.c.c.c.M.~./.|.|. X|. X X X{.|.D.B.f.6.L 4 O ",
"> 1 p a r 7 n U 7.k.Z.~.Z.Z.Z.Z.~.B.~.~.c.~.~.~.Z.Z.Z.Z.Z.B.B.z.l.l.M.B.Z.S.D.S.S.S.D.S.S.S.S.S.S.S.S.S.S.S.Z.C.C.C.B.c.c.c.V.~.[.}.[.|.{. X X|./.D.Z.k.7.U Z O ",
"@ p p p e 9 Z L 5.s.B.Z.B.c.M.c.c.z.k.c.z.k.k.Q.c.c.c.B.c.c.c.c.x.c.c.M.B.B.B.B.B.B.B.B.B.B.B.B.M.B.B.B.V.M.M.M.c.c.c.c.c.c.c.M.B.C.C.Z.Z.Z.Z.Z.Z.Z.B.d.5.L 5 + ",
"@ $ p 2 e 8 C K ;.q.f.g.f.f.s.f.r.f.f.f.r.f.f.f.d.f.d.r.d.g.l.c.B.B.B.M.M.M.M.M.M.M.M.c.M.M.c.M.M.M.M.M.B.c.k.g.s.r.f.k.c.M.l.f.f.k.c.l.g.f.g.c.B.M.g.8.~ S > @ ",
"u u p @ 2 8 7 S ! :.5.7.7.6.6.5.5.5.6.6.6.6.5.5.6.5.5.2.5.0.g.B.Z.S.Z.C.C.B.B.Z.V.V.V.Z.B.Z.Z.B.Z.Z.Z.Z.Z.c.d.8.2.:.6.s.c.c.g.7.8.f.c.k.0.7.w.c.B.l.8.Y 5 a u u ",
"u i i p 1 2 2 8 D K ~ ~ ~ ~ U ~ ~ P P ~ ~ ~ L U ~ ~ ~ B L -.0.k.B.B.c.l.z.z.z.k.l.l.l.l.k.z.z.z.k.z.z.M.c.j.6.~ B B ~ 3.g.f.0.=.-.9.g.p.:.=.3.f.g.0.~ A : % u u ",
"u i ` u p p p 2 5 A n N n n b n Z Z n Z n Z Z Z n b b b b ! -.0.s.s.w.w.w.w.r.r.w.w.u.w.r.r.w.w.w.r.p.s.s.9.~ F X X Z ^ 8.7.=.! K ,.0.3.I F ~ 9.7.=.n 5 j k x x ",
"u d ` ` h s f p 9 7 5 5 3 6 9 6 7 6 7 7 9 9 9 6 6 9 7 8 8 R ! ;.2.:.;.;.;.;.;.;.2.;.;.;.;.;.;.;.;.:.:.5.2.-.G 5 - , 7 ! =.=.! R D ! -.^ G S I -.T F 6 y X.J.U.Y.",
"u i ` ` ' d s p j a p 2 2 e j p p 2 e j e e e e e e e e e 9 A ! B ~ B ! P U P L L J J J J J J J B J J J K F D j p p e 9 ! N R 9 9 S F F 8 y y F F V y +.U.qXtXwX",
"u d ' ` d d u g f d d g f a p p p 2 2 e e 1 1 f p p e e e 2 6 A N N b A A A Z A V 4 3 3 3 3 3 X 3 3 3 X X C E Q  .f $ q 5 4 5 f s , 3 = # % 0 * 4 D O.U.dXjXtX8X",
"u i i ` ' ' d s d d d f a j p e e 2 2 2 2 2 e j p 1 2 2 2 2 , 6 6 6 7 8 8 8 9 9 9 < , , < < < , , , < < 6 R F.U.L.x u p 1 1 p h s > : > & u $ > R #.Y.tXjXtXJ.Q ",
"u i d ' ` d d d d _ d p p p p e e p e q e r r f r < 0 e q e q q q q f f r r s a a j E W X.X.Q Q E E E j j O.E.rXqX&.x s q f d ' d q j W  .W k j Q I.tXsX9XK.W p ",
"u d ' ' d u d d _ g d $ u i s s d s s s d s s d t w 0 0 0 0 % w & u _ _ _ _ ` _ s W %.L.I.K.I.K.F.F.#.+.+.L.rXjXdXE.&.l g d ` ' h k #.G.F.%.#.#.I.0XhX8X&.x s u ",
"u s ` d u % u d ' ' ' d d _ d d ` ` _ ] ` ` _ ` ` _ t % $ t & & i & i i d _ ) ` z G.0XtXqX8X).8X0X0X0X0XqXwXrXeXsXdXR.&.{ _ ` ` { @.).sXwX0X9XqXsXgXfXP. .` i i ",
"u i ` ` d d s d ' ' ' ` ` ' _ ' ' ' ' ' ' ` d ` ' ' _ d s s [  .o.o.X.X...o...o.*.9XjXdX9XP.J.L.Y.rXkXkXkXfXE.L.U.sXwXL.} i d { @.R.gXgX8XE.9XjXkXkXjXR.$.} d u ",
"u d ' ' ' ' ` ` ' _ d d _ ' ' ' ' ` ` ` ` d s ` ` ' ' ' ' h  .K.R.E.U.I.P.I.K.P.wXjXdXR.&.{ ] l X.T.fXjXkXqX&.| o.).).L.} & h @.R.jXkXR.@.| G.wXjXjXjXsX).@.x f ",
"% u _ ' ` d ` ' _ _ d d _ ' ' ' _ _ s d ` ' ` s _ ' ' ' ' h X.U.0XwX).E.E.E.Y.8X0X0XT.@.z i ) d x %.Y.qX0XP. .g } H.).T. .f X.R.dXkXR.*.} ] | G.R.8XR.wXfX9XG.W ",
"u u ` ' _ i d ` _ _ d u _ ' ` d d _ d d ' ` _ d _ ' ' ' ] g | G.P.U.J.J.K.J.L.L.L.H.@.{ i i {  .O.X.@.H.F.X.` i { &.8XqX*.@.L.dXkX9X*.} ' _ ] | @.&.%.U.sXkX9XK.",
"u d ' ' ` d i ` ' d u u d d i i d ` ' ' _ i & ' ` _ ' ' ' s s l l { { { l l z { z l ] ' ) h X.H.U.X.j f g s u & l G.qXdX8X8XtXjXqX*.} ` ' _ s g h ] ] @.U.dXkXgX",
"u i _ ` _ d _ _ _ _ i i _ ` d d _ _ _ d i _ ` ` _ s ` ' ` d i d d ` i u u i ' d d i d i l  .G.K.%. .u $ i ` d i h X.L.qXsXgXfXE.&.x h ' ' d d _ ` ) _ h X.Y.sXkX",
"u u _ d _ _ ' ` d ` _ d _ ` ' ` ` ' d d _ ' ' _ s d _ ' ' ` _ ' ' ' ` i u ' ' ' d ` d l X.F.J.&.W { ) i d ' ' ` g h X.I.sXgX0X$.k s i ' ' ` _ ' ' ` d % f @.T.sX",
"u u i d ` ' ' ' ' ' ' ' d d ' _ _ ' ` _ ` _ d u d _ _ ` ' ' ` ' ' i i i ` ' d d ` d h X.I.E.$.{ [ ' ' ' i d ' ` ` ' l o.).8XH.W s _ d ` ' ' ` ' ` _ d _ _ { @.G.",
"% u u d d ` ` ' ' ' ' _ d d ' ' ' ' ` ` ' _ d s d ` i d _ s _ ' ' ' ` ) ' ' i s g z X.&.K.G. .h ' ' ` ) i i ' ' ' ' i W T.Y.%.z i ` d d d d _ ' ' ' d ` ` _ k E ",
"u u u % u d d _ ' ' ` i d _ ' ' ` _ _ _ ' ' _ d _ ' _ s i s _ ' ) ' ) ` ' ' i u k O.G.H.+.x f d ' ' ` i i ` ` ' ' ` u W R.Y.&.z i ` _ d u i d ` ' ` _ ` ' ` u q ",
"u u % u u u d _ ' ` ` d d _ ` d d d d d ' ' ' _ _ ' ' ' d ` ' d u i ' ' ' ` ' d x H.Y.%.W s i d ` ' ` i d d ) i i i u W R.).G.{ i ' ' ' _ ` ` d u i ' ' ' ` i & ",
"% % u u u u i s i i u u d u i s u s i d i d _ _ d d _ _ d d d s u $ i i u u u i k O.%.W s u u u i u u i i i d u u i p Q 9X0XJ.} i i ) i d d d d % % i d & & & & ",
"@ $ % u u s u % % $ % u u u % u d u i u % % & s s u & t & & u i u $ u % @ p u u p e j p p u u % u $ $ u i u p u u u s X.qXsXU.W % & u u u u s s % $ u % $ $ $ # "
};
