/* XPM */
static char *Group_10_15__resized[] = {
/* columns rows colors chars-per-pixel */
"80 80 236 2 ",
"   c #180C3A",
".  c #22382A",
"X  c #283A3B",
"o  c #2D4F19",
"O  c #355D1D",
"+  c #36621B",
"@  c #39651C",
"#  c #3C6D1D",
"$  c #3F711E",
"%  c #2B452C",
"&  c #2E4C28",
"*  c #304E2A",
"=  c #2F5024",
"-  c #325524",
";  c #355B24",
":  c #385F24",
">  c #34542B",
",  c #365B2A",
"<  c #395D2B",
"1  c #2D4635",
"2  c #2E443B",
"3  c #334C36",
"4  c #324C3C",
"5  c #365334",
"6  c #385636",
"7  c #3A5C32",
"8  c #38573C",
"9  c #376024",
"0  c #3A6424",
"q  c #3D6C23",
"w  c #3C642B",
"e  c #3E6A2A",
"r  c #3F7121",
"t  c #3D6232",
"y  c #3C6139",
"u  c #41751F",
"i  c #437A1F",
"p  c #406E25",
"a  c #40672C",
"s  c #416B2C",
"d  c #427521",
"f  c #457C21",
"g  c #46762A",
"h  c #4A7C2B",
"j  c #466C33",
"k  c #4D7336",
"l  c #4E7A34",
"z  c #507939",
"x  c #527B3C",
"c  c #221D4C",
"v  c #2B3B43",
"b  c #2D3C4B",
"n  c #272655",
"m  c #2D3955",
"M  c #313E59",
"N  c #303567",
"B  c #323968",
"V  c #2E4242",
"C  c #2F434D",
"Z  c #344A42",
"A  c #33454D",
"S  c #344A48",
"D  c #365343",
"F  c #3B5B44",
"G  c #395649",
"H  c #39544B",
"J  c #324354",
"K  c #374B55",
"L  c #35445D",
"P  c #3B5658",
"I  c #384866",
"U  c #3D5466",
"Y  c #3D536D",
"T  c #394672",
"R  c #3C4B78",
"E  c #3E5375",
"W  c #415A58",
"Q  c #587A47",
"!  c #41615A",
"~  c #415A6C",
"^  c #415973",
"/  c #41557C",
"(  c #435A7C",
")  c #486579",
"_  c #566E77",
"`  c #478022",
"'  c #498423",
"]  c #4C8A24",
"[  c #4D842A",
"{  c #50862E",
"}  c #548338",
"|  c #598243",
" . c #5D804B",
".. c #688958",
"X. c #6A9057",
"o. c #6F8B65",
"O. c #718D68",
"+. c #729364",
"@. c #78976B",
"#. c #7D9775",
"$. c #7EA06F",
"%. c #809A79",
"&. c #86A37B",
"*. c #3F4E81",
"=. c #404E81",
"-. c #425484",
";. c #455B84",
":. c #43568A",
">. c #475C8D",
",. c #485D94",
"<. c #4A6488",
"1. c #546A88",
"2. c #56778B",
"3. c #4B6394",
"4. c #4D649B",
"5. c #4E699A",
"6. c #526A95",
"7. c #516D9C",
"8. c #587796",
"9. c #687E9A",
"0. c #4F67A0",
"q. c #4F68A0",
"w. c #516BA3",
"e. c #546DAB",
"r. c #5472A3",
"t. c #5672AC",
"y. c #597AA8",
"u. c #5774B1",
"i. c #5975B3",
"p. c #5B7CB4",
"a. c #5D7DBA",
"s. c #677CA4",
"d. c #607EC1",
"f. c #76919F",
"g. c #5C83A9",
"h. c #5E81B4",
"j. c #5E81BB",
"k. c #648CAB",
"l. c #7691AC",
"z. c #638BB3",
"x. c #6084BD",
"c. c #648BBB",
"v. c #6896BD",
"b. c #799BBC",
"n. c #6284C2",
"m. c #658AC6",
"M. c #668BC9",
"N. c #688FCB",
"B. c #6A97C7",
"V. c #6A92CE",
"C. c #6A8FD6",
"Z. c #6C95D2",
"A. c #6E9AD5",
"S. c #6E97D9",
"D. c #719FD4",
"F. c #719DDA",
"G. c #75A7CB",
"H. c #73ACCB",
"J. c #76A9D7",
"K. c #73A1DD",
"L. c #7BB5D7",
"P. c #75A4E2",
"I. c #77A9E3",
"U. c #78A8E6",
"Y. c #79AAE6",
"T. c #7AADE9",
"R. c #7DB5E4",
"E. c #7DB2ED",
"W. c #7FB5F1",
"Q. c #889D86",
"!. c #8BA484",
"~. c #8DA28B",
"^. c #94A794",
"/. c #98AF92",
"(. c #9AAC9A",
"). c #A3B69F",
"_. c #809CAB",
"`. c #9EAFA2",
"'. c #A4B6A6",
"]. c #AFBDB5",
"[. c #B1C4AB",
"{. c #B4C3B9",
"}. c #88A8C5",
"|. c #8FB4D3",
" X c #83BCDB",
".X c #82BCEA",
"XX c #80B7F2",
"oX c #82BBF4",
"OX c #84BEFB",
"+X c #98C4D9",
"@X c #BCC9C4",
"#X c #A5CADB",
"$X c #87C8E7",
"%X c #8DD2EC",
"&X c #93D7ED",
"*X c #85C2F4",
"=X c #86C3FE",
"-X c #88C6FE",
";X c #89C9F8",
":X c #8ACAFE",
">X c #8ED6FA",
",X c #8ED3FE",
"<X c #93DBF3",
"1X c #94D8F5",
"2X c #91D5FE",
"3X c #93DCFE",
"4X c #AAD8E9",
"5X c #97E3F3",
"6X c #9AE5F6",
"7X c #96E4FE",
"8X c #99E5FE",
"9X c #96E8FF",
"0X c #9BEBFF",
"qX c #9EF1FE",
"wX c #BAE5ED",
"eX c #A9E6F5",
"rX c #A3EDFE",
"tX c #B8EBF5",
"yX c #A3F3FD",
"uX c #ACF3FE",
"iX c #A5F9FD",
"pX c #AAFAFD",
"aX c #B4F5FE",
"sX c #BBF4FB",
"dX c #B4FAFE",
"fX c #BCFAFE",
"gX c #C4D1CC",
"hX c #CDD8D5",
"jX c #D5E7E7",
"kX c #C8F4F7",
"lX c #C4FCFE",
"zX c #CCFEFF",
"xX c #D1F6FA",
"cX c #D2FFFE",
"vX c #DBFEFE",
"bX c #E4F1F2",
/* pixels */
"o + u $ u u u u u @ # u u u i u $ $ ` $ $ $ $ $ ` @ * b N n B 8.H.6XpX5XL.y.I . o + d # # u $ $ $ $ # $ $ i i i $ $ i $ # # $ i f u u u u # # # u u u $ u u # O ",
"@ # u u u d # u # u u f f u u u $ i $ $ $ $ $ $ 0 t P <.0.,.7.B.$XqXpXrX&XH.2.W > ; # $ u u $ $ $ $ u i d i $ $ $ d i $ $ $ i d u # u # # d f f i f u $ u f u @ ",
"i u u i f f u u u u i f f f f u $ r $ $ $ $ $ + 5 P 5.B.Y.K.P.oX6XyXiXiXyXeX|.9.W 5 9 r ` f $ $ $ u i ` f f f r i d $ $ $ i f r u u # # d f ] ] ' ' u # u f i u ",
"u i ' ] ] f u u i u u d f f ' ' ' ` $ $ ` ' ' ; S *.j.Y.:X;XOXOX;X;X1X0XuXkXjX|.g.U * q ' ` u u f u u ` ' ] ] ] ] ` r $ f ' ] ] f ' ' ' ' ' ' ' ' ' ' d u ' i u ",
"u u f ' ] ' ' i ' r q 9 , , 0 d ' ' ' ` ] ] ' e F Y y.D.W.oXT.P.K.P.oX3XuXlXkXeX|.8.P y r r ` ` ' i i ` ] ] ] ' ] ' ' ' ' ] ] ] ] ] ] ] ] f f f f f ] f f f i u ",
"u u u u f ] ] ] ' r 9 4 b v 1 , r ] ] ] ] ] ' ' r F ) t.m.m.a.t.e.h.K.%XrXaXdXpX6XH.8.P 8 r ` ] ' ' ' ' ] ] ` f ` ' ] ] ] ] ] ] ] ] ] ' f f f f $ u ] ] ] f i u ",
"# # u u f f f u r w H E 3.3.( F w r $ # # # # f ' r y P R T I J M R r.J.>X3XyXiXiX&XD.3.K * r f f d d f d f ' ' ' ' ` $ i ` ' ' ' ] ] ] ] f u f # # ' ' ' f u @ ",
"# u u i f u u u - D ) j.}.|.l._ 8 - = % % % * q ` ' r 7 1 1 1 & % 4 Y h.I.;X5XiXiX9XR.e.I % q $ $ $ $ $ $ $ f ' ' ' f f d d f r f ] ] ] ] f f ' f i ' ] ] d @ + ",
"# # u f u u @ - 1 E h. XeXtX#Xf.~ v X v m n b * r ' ' d q r r r q 9 S <.m.E.>XqXyX&XK.q.L % @ $ r $ $ $ $ $ $ r ' ` ' ] ] ` $ $ d ] ] ] ] ] ] ] ' ' ] ] ' # # # ",
"# $ i f u # , S Y h. X6XdXzXwX+Xl.1.;.6.8.8.1.W t r ' ] ` r ` ` i @ - S E h.I.;X*XJ.p.^ Z - @ r $ $ $ $ $ ` r ' ' ` ] ] ] ' ` ' ] ] ] ] ' ' ' ' f d d ` ] ' f u ",
"u u u f u < H ^ u.J.3XqXsXsXfXwX+X}.}.|.|.|.}.8.P w r ' f ` ' ' $ @ + > H <.a.S.C.p.) G w q $ $ i ` i r ' ' ' ' ] ' ] ] ] ' ' ] ] ] ] ' i f ' ' $ # # ` ] ` f i ",
"u u d f 0 3 / i.K.;X9X0XqXqXyXuXwXkXwXwXxXkXwX}.1.C , r r ` ] ] r # $ r e K E 4.4.E G s ' ] f f ` ] ] ] ' ' ] ] ] ` ' ] ` ` ' ` ' ] ] ' u ' ] ] d # $ ' ] d u u ",
"# $ u u < b 4.S.*X3X0X7X5X9X0XiXfXcXvXvXvXvXxX4XG.2.W t q ` ] ] ' ' ' ] f , S J J 4 , r ] ] ] ` $ r ] ] ` f ] ` ` ] ] ' ' ] ] ' ' ] ] ] ` ] ] ] ' ` ' ] ] f u $ ",
"# u u u > b 4.F.;X3X6X2X>X<X9XiXdXlXzXvXvXvXvXzX4X_.2.W w r ' ] ' ] ] ] f q ; * * - # d ' ] ] ' $ $ ` ] ` f ' ` r ' ` ` ' ] ] ' ` ] ] ] ] ] ] ] ] ' ] ] ' ` u $ ",
"u i ' i 0 2 ( a.J.;X,X-X,X3X9X9X0XrXaXlXvXvXzXvXxX4X}.1.C w d i ` ` ` ` ` ` ` ' f f f ` ` f d d ` r $ ] ' ` ' ] ] ' $ $ ` ' ] $ i f ' ' ] ] ] ` f f ` f ` ' f i ",
"u i ] f u w W <.a.Y.-X:X2X3X7X3X2X3XrXaXlXzXzXvXzXsX4XG.1.P t p $ ' ` ' ] ' ] ] ' ' ` 9 - > > * * ; # ` ' ' ' ] ] i $ $ $ ` ` r u d f f f f ' ' ' ` ' ' ' ] ` i ",
"# u ] u u d w H ;.j.R.;X>X>X,X:X:X,X7X9XdXlXzXzXsXpXrX%Xv.1.W > r ' ] ' ] ] ] ] ` f e 8 C J A C C 4 w q r ` ' ] ] r r r r $ f r f ` f f r ` ' ] ] ] ] ] ] ] ` u ",
"u u d u u f r , Z E h.I.*X-X=X=X=X:X>X>XyXdXlXaXyXqXyXqX$Xv.;.2 e ' ] ` r ' ] ] ' e F ) 5.7.5.w.y.<.P > @ # r r ' ] ` ` ' ' ] ] ' ] ' ' ] ] ] ] ] ] ] i d ' ` i ",
"u d ' u u d d # - S ) j.K.W.W.=X=X:X:X,X3XuXuXuXqX0XiXqX:XZ.>.v - r ` d $ f f d w F ) z.G.J.G.}.|._._ D . . % ; r ' ] ' ` ` ] ] ] ] ] ' ' ' ' ' i ` ` i u d d i ",
"u u ] f f f f i # , K *.i.Z.E.W.=X:X:X:X2X8XrXyXqX0X0X<XR.x.( 2 ; $ ` ` f $ $ 0 1 Y z.L.&X<X%XeXsX#X_.) m n M D r ` ' ' i r ` ] ] ] ] ' $ ' ' ' i $ ` ` f $ u u ",
"u f ` ] ] ] ' ` ` q > V I 5.m.K.XXOX-X-X:X,X7X9X9X3X;XL.h.<.P 9 r ] ] ] ] f r , J 3.D.<XyXiXuXdXlXkX#Xb.k.9.s._ F 0 f ] ] ] ] ` ` ' ' ] ] ] ] ] ] ] ] ] ] f i u ",
"u f ' ' ' ' ' ] ' ` $ ; 4 Y q.n.F.oXOX-X:X,X,X3X3X;XY.h.E H t r ` ' ` ] ] ` d , m ,.K.,XyXiXiXpXaXaXeX#X#X#X#Xl.) 4 9 i ' ' ` ` ` ` ' ` ' ' ' ' ] ' ' ] ] ` f i ",
"u i ] ' ` ' ' ' ] ] ] ` 9 S :.u.V.XXOX-X:X:X:X2X,XE.M.3.V * q r d d i ' ] ' d 0 V ( x.R.>X6X0X9X0XrXuXsXxXxXkX+Xk.K 4 9 $ $ $ ] ] ` ` f r r ` ` i d i ' ] ` f i ",
"u i f ` ] ] ' f ` ' ] ' 9 S *.e.V.T.oXOX:X,X2X2X-XT.n.*.v - # r u u f ` ` ' ` d e F ^ 7.B..X3X9X9XqXuXfXzXxXzXtX Xg.Y 4 ; $ ' ] ] $ $ $ ` f i r $ $ f ` ' ' i $ ",
"u i f ' ' ' f f f f ` d ; Z R e.C.Y.XXT.oX-X:X:X.XF.a./ X = # r $ $ f ` f f ` ` ` 0 4 Y e.F.;X7X9X0XyXiXaXsXaXpXeXL.g.^ 4 0 ` ] ' $ $ r ` r $ r $ $ ` ` ` ` i $ ",
"$ f ] ] f $ d ` ` ` d $ 9 4 E 5.n.S.S.Z.K.T.XXXXK.n.w.T 1 ; @ r @ # g r r r d d r q 7 U 5.Z.oX3X7X0X0X9X7X7X7XqXiX8XL.k.Y 4 e ` ' r $ $ $ $ $ $ $ $ ' ' ` ' i $ ",
"$ f ' ' d $ # i ] ] ] ' f e D ~ q.d.a.a.d.n.N.Z.n.w.~ 8 0 $ $ $ - % % % % * * = o > F 2.B.Y.=X:X,X2X3X>X,X:X,X7XqXyX5X.Xg.Y 4 0 r ] r $ $ $ $ f i ` ` ` ' ' ` $ ",
"u f ' ' f f u f ] ] ] ' ' f e F ~ >.>.-.;.;.>.,.>.Y D : $ ` r e D K I K K K K A V G g.H.$X>X:X-X:X:X:X:X-X-X:X2X8XqXyX6XL.g.^ 8 q ` ` f f ` ` ' ' ' ' ` ' ' ' $ ",
"u i ' ] ] ] ' ' ] ` f d ' ] ] e 5 M b A V v v A b 3 , q f f e F ) r.p.y.r.r.q.5.3.g.L.5XiX0X2X=X=XOX=XOX=X=X-X,X5X0XiXiX6XR.z.~ 8 e ` ' ' ] ] ] ] ] ] ' ` ` $ $ ",
"# u ' ] ' f ' ] ` ` f $ ' ] ] f p < ; - e s e < < 0 , * 1 % 4 ~ g.L.L.L.J.H.H.D.B.L.%X9XyXqX3X,X-X=XOXOX-X:X2X3X7X9X0XqX0X5X Xg.U 4 0 ` ] ] ] ' ' ' i ' ` ` $ $ ",
"# u ' ] ` u f ' ' ` i # $ d f i u u p u i i u u u q 7 K T M Y 8.L.5X6X5X&X&X<X<X&X<X6X0XqX0X9X2X,X-XOXOX:X>X7X0X9X0X0XrXqXqX9XL.g.U 8 0 ' ` ` ' ' ` ` ' ] $ $ $ ",
"u ' ] ] ' i i ' ] d @ - = = - - O @ @ p @ O O d d < ! 2.c.h.c.L.&XiXiXiXiXpXdXdXfXdXiX0X9X0X0X0X2X,X:X:X,X3X9X0XrXuXuXuXpXpXyX5XR.g.) F q # $ ' ] ] ] ] ] ' ` $ ",
"u i ' ' ` f f ' ` r , 4 b b v V v Z Z Z S V X 2 4 P 2.b.$X$X$X%X6XiXqXqXiXdXfXzXzXfXpX0X8X9X0X0X7X3X3X3X7X7X7X0XaXfXlXlXaXuXyX0X<X Xh.) 8 ; $ ' ] ] ' f ` ] ` ` ",
"# i f ` ` ` ] ' r w F E :.:./ / / / / / E *.E T R 2.v.%XyXyX8X0X0X8X8X0XuXsXzXcXcXlXsXyX0X0X0X8X8X0X0X0X8X8X0XuXfXzXcXcXlXaXiXqXyX5XL.6.m * q ' ] ' ` $ $ ] ` $ ",
"$ u f f ' ] ] f 9 G ) z.B.D.B.v.b.G.G.v.B.v.v.z.c.H.$XqXpXpXiXqX0X0XrXaXfXzXzXcXvXzXlXfXuXrX8X0X0X0X0X0X8XuXaXlXlXcXvXcXzXfXaXdXpXqXL.r.m * q ' ' ` ` ` ] ] $ # ",
"# $ u u f ' d 9 D ) z.$X&X<X%X4X4X4X&X%X$X$X%X%X$X%X5X0XrXyXqX0X0X0XuXfXzXzXzXzXzXzXzXlXfXuX8X0X9X0X9X9XrXaXfXzXzXzXzXzXzXzXzXfXdX0XL.7.N % @ ' ] ' f ` ] ] $ @ ",
"u $ # $ $ d 9 D E z.$X6XiXpXdXlXvXvXlXaXiXyXyXqXqXqXqX9X7X8X8X9X9XrXuXfXlXzXzXzXcXzXzXzXfXuX0X9X9X0X9X9XrXaXfXlXzXzXzXzXzXzXcXzXdXyX$Xk.E D w r ' ' ' ' ] ' $ # ",
"i u $ $ 9 - H <.z.$X6XqXpXfXlXcXvXvXcXlXdXpXyXiXiXqX9X3X2X8X0X0X0X8XrXaXfXlXzXvXxXzXlXsXuXrX8X9X0X9X9X9X8XrXaXfXzXcXzXzXzXzXzXzXlXtX&X Xk.<.H > @ $ ' ] ] ' ` $ ",
"u u u d - 1 ) z.$X6XqXqXpXfXzXcXcXcXcXzXfXpXqXqXqX0X2X,X:X3X8X0X0X8X8X0XyXsXzXzXzXlXaXuX8X8X8X0X9X0X8X8X0X0X0XuXfXzXcXzXzXzXzXzXzXzXsX6X$Xz.<.2 = @ ' ' f ` $ ` ",
"u i f f , v 3.A.%XqXiX0XrXdXlXlXfXfXlXlXaXuX0X9X7X2X:X=X-X2X3X0X0X0X9X9X0XuXfXlXlXaXuX8X9X9X9X0X0X0X0X0X9X7X9X0XuXfXlXzXzXzXzXcXcXcXzXpX9XL.5.m & # ` f $ r $ $ ",
"+ u ' u - V <.N.*X5XqX0XyXuXpXuXuXpXpXuXuXyX0X8X2X:X:X-X-X-X:X3X8X0X0X9X0XrXyXuXuXuXrX8X9X9X8X8X0X0X0X0X9X9X9X9X0XuXfXlXcXzXzXcXcXcXzXdX<XJ.3.b > d ' f f ] f u ",
"O # f u , X :.n.E.1X0X0X8X0X0X9X0X8X9X9X0X0X0X2X:X-X-X-X-XOX-X2X3X0X0X0X0X0X0X0X0X8X8X0X0X8X0X0X0X0X0X0X0X0X0X9X8X0XuXfXzXzXzXzXzXzXfXuX%XB.<.v ; d f u f ] f u ",
"> 9 d f ; 1 / d.Y.,X7X>X2X3X>X>X,X>X>X3X>X3X2X,X-X-X-X-X-X-XOX-X,X3X8X0XqX9X9X7X7X9X0X8X0X0X8X0X0X0X0X0X0X0X0X0X9X9X0XuXfXlXzXzXlXdXdXiX%XB.<.X ; d u u u i i i ",
"L D # ' 0 1 ( n.E.,X2X,X,X:X:X:X:X:X:X:X:X,X:X-X-X-X-X-X-X-X-X-X-X,X3X0X0XqX9X0X9X9X9X0X8X0X0X0X0X0X0X0X0X0X0X0X0X0X0XyXaXfXzXzXsXyXiXqX%XB.;.X ; f ' i d f u u ",
"3.~ , e ; H 3.m.T.;X,X-X-X-X-X=X-X=X-X=X-X=X=X-X-X-X-XOXOX:X-X-X=X-X2X7X8X8X8X8X0X0X0X0X0X0X0X0X8X8X8X7X9X7X7X8X9X0X9X9XyXaXlXfXuX0XiXqX&XL.y.P 6 w f f f f u u ",
"N.6.A 1 Z ~ p.A.I.W.-X-X-X-X=X=X=X=X=X=X=X=X=X:X-X-XXXXXXXoX-X-X=X-X:X2X2X2X3X3X9X0XqX0X0XqX0X8X3X2X2X2X2X2X2X3X3X9X7X3X8XrXuXuXyX0XqX9X5X%XH.2.~ 8 9 f ' f u u ",
"K.h.;.T ( y.A.K.K.T.W.=X-X-X-X=X=X=X-X-X-X=X=X:X-XOXXXU. XXX-X:X-X-X-X-X-X-X-X2X3X0X0X0X0X0X0X7X,X-X-X-X-X:X:X-X;X;X;X;X,X3X8XrX0X0X0X0X0X0X&XL.g.^ 3 e ' f u @ ",
"V.j.u.w.p.V.K.I.D.K.T.W.=X:X:X:X-X:X-X-X:X:X:X-XoXXXP.F.F.U.XXoX-X-X-X-X=XOX-X:X2X7X8X3X8X8X3X2X:X=XOX=X-X-X-XW.P.Z.N.Z.I.*X7X0X0X0X8X0XyXpXyX%XB.;.2 9 ' u @ + ",
"q.t.a.N.S.P.P.K.F.F.K.T.XX-X:X:X:X:X:X:X:X2X-XOXXXY.F.F.F.F.XXXX-X:X:X-X-XOX-X-X:X,X2X2X2X2X2X:X-X=X=X=X-X:X:XJ.x.,.*.,.j.I.>X9XrX8X8X0XyXpXyX%XB.;.2 w f u # # ",
"T ;.u.Z.P.P.P.K.K.F.F.F.Y.XX-X-X-XOXOX-X-X-XOXXXP.F.F.F.F.F.F.XXXX-X-X-X-X-X-X-X-X-X-X-X-X-X-X-X-X-X=X=X-X,X;XK.u.*.N N *.p.J.*X;X.X;X3X0XpXrX$Xc.( X : ' f f u ",
"V I 3.j.S.P.U.U.XXF.F.F.F.XXXXXXXXXXXXXXXXXXXXU.F.A.F.F.F.F.F.K.XXXX-X-X:X:X:X-X-XOXOX-X-XOX-XOX=X-X-X-X:X,X-XR.m.3.B n n / t.m.N.V.T.1X0XiX8XL.z./ X @ ' ' f u ",
"> Z Y 4.a.C.Y.XXY.P.P.F.F.K.U.Y.F.XXF.XX XP.P.P.K.F.F.F.F.F.F.D.F.Y.XX-X,X:X:X:X-X-XOX-X-X-X-X-X-X-X-X-X:X-X-X-X.XV.4.N c n T *.:.3.N..X8XrX<XR.a./ X q ' u u u ",
", 3 S I >.p.V.S.Z.Z.F.P.K.U.K.P.F.P.P.P.P.P.P.P.P.P.P.P.F.F.F.S.F.K.XXXXoXOX*X*X-X-X-X-X-X-X-X-X-X-X-X-X-X-X-X2X2X.XB.6.N n n c c N ,.m..X;X;XU.a./ 1 w ' f u u ",
"; - 3 S U <.e.u.e.a.N.P.Y.Y.P.F.P.P.P.P.F.F.P.P.Y.Y.U.Y.Y.P.F.S.S.F.F.XXXXXXXXXX-X-X:X:X:X:X:X:X:X:X:X:X:X-X-X,X2X2XXXD.4.B n     c N :.a.XX*XXXx.;.3 0 ' f u u ",
"< < w 7 H ~ / =./ ,.a.F.Y.T.P.P.F.P.P.F.P.P.P.P.P.P.P.P.P.P.F.S.F.F.F.K.K.K.K.XXOX;X:X:X-X-X-X-X-X-X-X:X-X-X-X:X:X-X:X.XA.e./ n c n n B 3.A.XXXXn.;.2 : f f f i ",
"; a s a 8 H M M M / 6.n.N.N.M.M.M.M.M.M.M.M.M.M.M.n.n.M.V.F.P.XXXXY.P.U.K.F.F.K.XXoXOXOXOXoXoXoXoX*XoXoX*X=X-X-X:X:X3X3XoXZ.e.:.-.-.=.-.7.Z.XXY.a.( 1 9 ' ] ' u ",
"O p p < 7 6 3 3 3 H ~ 4.w.e.0.0.q.q.q.q.q.q.q.q.q.4.3.4.p.N.Z.XXP.P. XK.S.F.F.P.Y.T.XXXXY.T.XXT.XXXXP.XXXXoX-X:X:X:X2X3X2XoXD.N.c.N.c.z.N.J.T.S.i./ 3 a ] ] f i ",
"u u a ; < 7 < w a 5 A T R R B T B / / B B / B / / T B B >.i.N.XXF.A.S.F.S.F.K.F.K.F.F.F.K.F.F.P.S.F.F.F.K.XXOX-X:X-X-XOXOX-X;XoXoXoX*X*XoXoXY.M.e./ 2 : i f f u ",
"u u d 0 ; < w w w 7 4 S A M J A J A S S A J A A b b X W ~ ,.i.M.n.a.a.a.n.S.P.XXU.P.P.P.P.P.P.P.F.P.F.P.XXXXXXOXoXXXXXXXOX:X2X2X2X2X:X:X-XoXT.M.e.-.v : u u u u ",
"u i ' u p a w t < < 6 5 3 3 8 8 6 6 5 6 5 3 6 6 6 7 7 3 W ~ >.3.4.,.:.,.e.M.F.U.Y.U.P.P.U.P.P.P.P.P.P.P.P.Y.XXXXXXXXF.XXoX;X:X2X-XoXoXXXXXXXU.C.i.-.X : u u p u ",
"u i ' ' ' d e 0 w : < - > < a a w w < j j a a < a a s a 7 W L B I L M I / r.M.F.S.Z.N.N.N.C.N.C.V.V.V.V.V.N.V.A.F.K.Z.V.F.XXoXoXU.Z.A.A.F.U.S.a.3.~ 3 p ] f i u ",
"u i ' ] ' g p g d p 0 w a a s a a w a a a a a a a a p a < 6 X W b 4 X 2 W -.e.a.i.i.i.i.u.u.u.u.i.i.u.i.e.e.e.n.Z.F.N.i.a.A.XX XN.i.a.Z.P.F.x.<.~ 3 < i ] f i i ",
"u i ] ' f f f ' ' f g s j s a s a < < < < < < a a < w < < > 7 5 6 6 > 7 8 W / >.>.:.:.-.:.:.:.:.:.:.:.:.-.=.-.t.N.F.a.4.6.a.S.C.t.>.t.M.F.N.4.I 3 : u i ] f i i ",
"i i f f ] ' ' f f f d p s s p a @ a < : O p p g a : : < < < < < < : a w 6 W L B M I M I L L W M L L L M J J L ;.u.d.3./ ~ 3.a.e.;.I ;.t.x.u./ 4 - u i f h i j j ",
"u i f ] ] ' i i f f d q d f d r q d r q r r f f r 0 ; < 7 < < < , : a a < 6 Z S Z 4 Z Z Z 4 Z Z Z 2 Z 2 4 3 Z ~ -.4./ W A ^ ,.-.W b W -.4.-.W . O u i ' i l %.^.",
"p f ] ] f p i f ' f u $ d ' ` ` ' ' ` ` ' ' ' ] ` r 0 - < , > < : < a a a 7 7 a t t t j 7 > 7 < t t < > t a < W W T W 6 6 W T W W 6 S ~ T ~ 8 < p u i h l Q '.jX",
"u i ' i u u u u ] ] ' ' ' ' f ' ] ] ] ] ] ] ' ] ] ` q 9 ; 0 q p u u p i g g d d g g p p q : O p g f g g f f u < W S 6 a a 6 W Z 7 p 7 4 W 3 7 p i i u x X.@.Q.(.",
"u i ' ' f f u f ] ] ] ] ] ' ' ' ] ] ] ] ' ' f ' ] ] f r $ u i i i i i i i i ' ' i f f f u p u u ' h f ' h ' i a < 6 j i g w * < p h p > 3 w p ' ] h l %.^.%.o.Q ",
"u i ] ] ] ] ] ' ] ` f d ' ] ] ] ] ' ` ' ` f r ' ] ] ] ' ' { { { { { { h h f h ' ] ' ] ] ] ] ' ] ] ' f u ' ] ] h p p g f h u : p i ] f g a u f ] ] { | /.].o.k u ",
"u u f ] ' f ' ] ' ' f u ' ] ] ' ` f f f ' ] ' f f ] ] ] ' } +./.&.&.!.&. .g u i f i f ] ' f ] ] ' h f u f ] ] ' i i p u f f h u i ] ] f i h ] ] ] ' k ..+.k p @ ",
"# u ' ] ' i f ] ' ` f d f ' ' ' f f f ` ' ] ` d d ' ` f { o./.hX{.].gX].%.z d f ' f ' ' f p u f ' i i u i f ' i i f i f ] ] f i f h ] ' ' f f ] ' f u d d u u u ",
"u f ] ] ' f i f ] f u u i i d i f ' ] ] ' r r f h l { }  .#.[.hXhXgXhXgX~.x f ] ] ' f { z z g h ] i p a g u i i f f ] ] f i p x z l h ] ] f i ' ] ' [ { h f i i ",
"u i ' ' ' f f f ' ' i u f ' ` i ` ' ` f ` ` ` l @.).[.).#.o.+.$.%.%.%.o.Q l [ ] ' i l %.'.[.~...h u x %.o.Q f f ] ] f f i x %.[.[./...h ] f f ' ] ] x @.%.} h i ",
"u u f f f ' ] ' i ] ' d ' ] ] ' ' ] f d f ] [ x ~.hXbXhX!.| g f f f i u u f ] ' f g Q (.jXbX{.@.g u X.(.Q.%.h f f ] f u h Q ^.hXbX@X+.h ] ' ' ] ] h x Q.'.O.x p ",
"u u i f ' ] ] ] ] ] ] ] d i ] ' ' ] ] ` ' ` g k #.{.hX{.o.} f ' ' i i i ' ' i f l Q @.^.[.gX(.+.h i } %.~.%.Q h f ] f h Q %.~.[.gX).Q l ] ] ' ] ' f k @.(.~.Q j ",
"u u u i f ' ' ' ] ] ] ` f f ] ] ] ] ' ' ' ' f d Q +.$.X.l g f ] ] ' ' ' ] ] i k %.^.Q.o.X.@.X.} ' ] { Q o.&.&.o.h f h %.%.%.Q %.+.X.l g f f f ] ] [ h } O.~.(.^.",
"u # # u u i f ' ] ] ' i i ' ' ] ' ' ` ` ] ] ` d i ` d $ r r ` ' ' ' ' ' ] [ z Q '.'.%.k # u u i ] ] ' u k %.@X!.x h X./.{.&.g p i i f i i f f ] ] ] ' i { +.`.gX",
"u u u u u u f ' ' ' ' ' f f ] f i d d i ] ] ' ` ` ] ] ' ` ' ' f u i ] ] ' z o.~.^.@.k p $ u i ' ' ' ' i x &.bX).x f %.@XjX).h f i ] ] ] f f ' f u u ' ] ] z O.~.",
"# u # u d d i i i i i i i d i u d u i i $ ` ` ` f f ` ` f ` ` $ u @ i u z @.(.(...k a p u u u i i u u u k %.hX(.x g %.].gX&.p i i i f f f i i f p u i i u p k x ",
"O @ # u u u $ # # @ @ $ u $ # u i u i d # # $ f $ $ $ $ $ $ $ f @ p p O Q (.].(.z + u u u d u # u p @ u j O.].Q.z p Q ~.).o.p u i i u u u p i i u O u @ O @ + O "
};
