/* XPM */
static char *Group_10_31__resized[] = {
/* columns rows colors chars-per-pixel */
"80 80 251 2 ",
"   c #0F1519",
".  c #191717",
"X  c #1D1B1B",
"o  c #271918",
"O  c #231C1C",
"+  c #361C17",
"@  c #1D2D10",
"#  c #1E2916",
"$  c #222B16",
"%  c #25231C",
"&  c #2A231E",
"*  c #242D19",
"=  c #282818",
"-  c #382618",
";  c #263518",
":  c #2B3C19",
">  c #353819",
",  c #1F1A21",
"<  c #261E23",
"1  c #3E1F27",
"2  c #2B2223",
"3  c #2B2426",
"4  c #322324",
"5  c #382725",
"6  c #3C2D2E",
"7  c #38302D",
"8  c #3D3136",
"9  c #4B1D16",
"0  c #5A1F1A",
"q  c #472717",
"w  c #592916",
"e  c #4A3715",
"r  c #573515",
"t  c #5C3B14",
"y  c #68390F",
"u  c #692A15",
"i  c #772A14",
"p  c #693615",
"a  c #623C14",
"s  c #783717",
"d  c #472A26",
"f  c #522C26",
"g  c #4B342D",
"h  c #56342A",
"j  c #493737",
"k  c #5C3C33",
"l  c #523E3A",
"z  c #68382A",
"x  c #753924",
"c  c #673D31",
"v  c #2B4718",
"b  c #2C4419",
"n  c #354918",
"m  c #2E5218",
"M  c #32551A",
"N  c #3B5518",
"B  c #355B1A",
"V  c #3C5C1A",
"C  c #36631C",
"Z  c #3B641C",
"A  c #3D6C1D",
"S  c #3F711F",
"D  c #3F7220",
"F  c #494916",
"G  c #544415",
"H  c #5C4415",
"J  c #564B17",
"K  c #5D4B16",
"L  c #455518",
"P  c #4B5418",
"I  c #445B1A",
"U  c #4B5C1A",
"Y  c #525519",
"T  c #585718",
"R  c #674616",
"E  c #634A17",
"W  c #794817",
"Q  c #665518",
"!  c #795617",
"~  c #43631B",
"^  c #4B641B",
"/  c #426C1D",
"(  c #4A6B1D",
")  c #56631B",
"_  c #41741F",
"`  c #4A721E",
"'  c #43791F",
"]  c #6E691A",
"[  c #544931",
"{  c #68493A",
"}  c #794832",
"|  c #755137",
" . c #496D25",
".. c #427620",
"X. c #4C7720",
"o. c #457C21",
"O. c #497C21",
"+. c #7C6321",
"@. c #473940",
"#. c #594747",
"$. c #644C47",
"%. c #6D584E",
"&. c #786650",
"*. c #7D6861",
"=. c #842F13",
"-. c #8C3514",
";. c #8B3C15",
":. c #853818",
">. c #8F3C1F",
",. c #933D15",
"<. c #993C16",
"1. c #874717",
"2. c #8B4516",
"3. c #944216",
"4. c #9A4416",
"5. c #9C4A16",
"6. c #984618",
"7. c #944C19",
"8. c #9C4B19",
"9. c #895817",
"0. c #995518",
"q. c #A44717",
"w. c #A44C19",
"e. c #AA4B19",
"r. c #B64E1A",
"t. c #A65717",
"y. c #A45319",
"u. c #AC541A",
"i. c #AB5A1A",
"p. c #B3551B",
"a. c #BA5519",
"s. c #B45A1B",
"d. c #BC5C1C",
"f. c #876218",
"g. c #986417",
"h. c #AB6518",
"j. c #B7651A",
"k. c #BB6A1A",
"l. c #A97219",
"z. c #BC7319",
"x. c #B87719",
"c. c #91542F",
"v. c #854833",
"b. c #AB5831",
"n. c #936A3C",
"m. c #B1712C",
"M. c #A77539",
"N. c #C0571C",
"B. c #C35D1D",
"V. c #C06017",
"C. c #C4631D",
"Z. c #CA641E",
"A. c #C46A1C",
"S. c #CB6C1D",
"D. c #D0691E",
"F. c #C4731B",
"G. c #CC731D",
"H. c #C27B19",
"J. c #CD7B1C",
"K. c #D2751E",
"L. c #D47C1E",
"P. c #D97F1F",
"I. c #CC6920",
"U. c #D16D20",
"Y. c #C97526",
"T. c #D47421",
"R. c #D67B21",
"E. c #D77824",
"W. c #DA7B21",
"Q. c #C07838",
"!. c #887253",
"~. c #A27B41",
"^. c #897764",
"/. c #478122",
"(. c #498423",
"). c #4C8A24",
"_. c #638D38",
"`. c #5F8A48",
"'. c #B48638",
"]. c #C9841B",
"[. c #D5831C",
"{. c #D9851E",
"}. c #D48C1B",
"|. c #DC8C1E",
" X c #CB921C",
".X c #D7941B",
"XX c #DD931D",
"oX c #E08F1F",
"OX c #E1951E",
"+X c #E59A1A",
"@X c #E49B1D",
"#X c #DAA21F",
"$X c #E6A31D",
"%X c #E9A51E",
"&X c #EBAC1D",
"*X c #F0AE1E",
"=X c #EEB11D",
"-X c #EEB81E",
";X c #F2B61E",
":X c #DB8421",
">X c #D98626",
",X c #DC8A21",
"<X c #DA962A",
"1X c #CE8D32",
"2X c #E18821",
"3X c #E49421",
"4X c #E59B21",
"5X c #E59B27",
"6X c #E39733",
"7X c #D9A336",
"8X c #E7A626",
"9X c #EBA422",
"0X c #EBAB23",
"qX c #F1AE2A",
"wX c #EEB323",
"eX c #EEB62B",
"rX c #F1B424",
"tX c #F3BA25",
"yX c #F3BC2B",
"uX c #E9A938",
"iX c #ECB638",
"pX c #F3BC35",
"aX c #F6C22D",
"sX c #F9C629",
"dX c #EFC93C",
"fX c #F7C636",
"gX c #FACB3D",
"hX c #FDD13C",
"jX c #948A55",
"kX c #AD8C4C",
"lX c #A29E64",
"zX c #B5A96E",
"xX c #C99E45",
"cX c #DDB546",
"vX c #EDBA43",
"bX c #C4BB6F",
"nX c #F8CB43",
"mX c #FCD448",
"MX c #F6D454",
"NX c #FEE152",
"BX c #D8D17A",
"VX c #EFEA76",
"CX c #9FAB8E",
"ZX c #C6BE82",
"AX c #D7D28C",
"SX c #D9E09D",
"DX c #F5F192",
"FX c #F0EFB3",
"GX c #DFE4D8",
"HX c #FEFECD",
"JX c #FFFFEF",
/* pixels */
"m C _ S S S S S S S S _ ' S ' S D ....S A S A V E 4.B.T.W.OX$XyXgXgXwX=X&X&XXXJ.d.q.=.e V S S ..S A A _ ......N G 8.F.,XXX@X%X4X<X|.|.|.|.:XE.I.1.H ~ A S ' A C ",
"Z A S S ....S S S S S ..' ' ' S D ....S S S S N R q.C.U.L.{.OX0XyXpXtX=X&X@X,XI.p.;.a L A ..S S S S S o.o.....Z L W i.L.,X@X9XOXXX|.|.{.R.>X6X<Xx.9.K I A ..S A ",
"' ' _ ' /.o.S S S ' ' o./...o.....o.D D S ' ..V E 7.d.I.U.E.,XOX0X0X&X$X4X2XR.C.q.a N ` (.o.S S S ' ' /.o.o.o.../ P W i.J.|.XX|.|.,X,X[.T.6XiXgX0Xx.1.G V ' ' ' ",
"_ ' (.).(./.....' ' ' /.(.).).)././.....o.(.(.o.^ Q 1.p.Z.E.2XoXOXXX[.L.L.W.T.C.e.R ~ o.(./.....o.S ' /./.).).).(.' ^ K 7.s.S.L.XX4X@X|.R.<XpXfXrX{.w.E V /.' S ",
"S ' /./.(.).(././.o.o./.).).).).(.(././.(.).).).o.^ R ,.a.B.Z.G.{.|.G.C.I.T.U.d.7.K ~ o.(.).(././.o.o./.).).(.(.(.).Z L W u.Y.E.,X4X$X@XXXOX0X0XXXk.9.T ~ ' ' S ",
"_ _ _ ' /.).).).(.(.(.(.).(.o.o./.).).).).).(.).(.O.E i <.<.q.i.J.|.K.C.B.B.r.7.E L A S /.).).).(.(././.).).o.o.O.' ( Q g.].6X6X,X|.%X&X$X$X+X{.h.W T ( ' ' ' ' ",
"A S _ ' O./.o.o...........o./.(.(.(./.....o././.o.^ R :.6.3.7.i.F.[.,XL.C.q.:.H ^ _ S ..o.o.o.o.o...........(.).' ( Q h. XeXnXuX>X{.$XwXrXrXOXA.;.t ~ ' ).o.A C ",
"A A _ ' o._ _ S ..S S S S ..o.(.(./.o.o...o...S U E 2.5.s.m.m.m.j.k.L.K.p.s t I _ o...o.o...S ..S S ..S S ..o.).' N W d.OXsXdXuX,X{.$XtXfXsX8Xz.s w J ` /.' A Z ",
"S / o.o.o.S D D S S S S S D A ..o.../.).).o./ L R 4.e.B. XaXnX7Xb.,.j.B.w.t L ' o.o.' o.o.S S S S S S S S S S ..' P W i.J.OX0X4XOX|.%XyXnXhXwXx.4.:.1.T ( A A A ",
"A S ..o.o.D D D S S S S ..o.o.A I L ` ).)...I Q g.F.N.Z.}.tXdX<X7.:.B.Z.y.G ( (.o.S ' o.o...S S S S S S ....../ U ! t.A.A.S.G.G.K.{.OXqXfXaX0X}.x.x.1Xm.Q I A _ ",
"A S ..o./.o.......o.o.o.o.o...) Q W ] ' ).~ F 0.J.+X>XT.L.9X&X.X0.,.a.d.8.H ( ).(..._ /.(.(...S ..o.o.o.o./.(.I E t.G.P.C.a.a.C.S.[.|.4X0X9XXXXX8XeXvX1X0.P Z o.",
"' ..o.).).).o.o./.(.).).(...U ! l.z.f.Y ` V G h.oXsXpX6XR.{.+X.XF.u.w.q.;.t ~ ).)./.S ).).).o.o./.(.).).(.(.).Y s j.W.2XK.C.V.G.L.|.|.{.{.{.XXOX0XyXgX7Xi.G N ..",
"S S ..o.).).)./...o.(.).o./ F 9.G.[.g.G ~ I E h.+XsXgXiX6X>XOX&XOXJ.w.<.=.t ^ /./...../.).).)./...o.(.)././.).I H 8.Z.P.|.{.|.4X0X8XOX[.K.G.L.{.OX9XtX,Xt.G N S ",
"A S o.o.(.).).(.....o.)././ U f.l.l.9.F P K 9.H.+XtXfXfXuX5X8X*X&X|.p.<.s t ^ /.o.o.o.o.(.).)./...S o.)./.o.(._ L R 8.C.|.@X%XyXfXaX8X|.U.Z.Z.U.L.|.+XJ.0.G V ..",
"S ../.).).).(.(.(.o.o.(.O.o.o.^ K K P I t 1.G.OX&X&X*XyXnXnXfXwX=X@XG.r.,.G ^ ).)././.(.).).(.(.).o.o.(./././.).O.I R y.F.XX%XpXnXgXwXXXK.B.r.N.Z.L.[.k.9.P Z ' ",
"S o.)./.(.).(.(.).).(.(.(.(.).O.~ L Z ~ t 7.K.@X$X$X%XyXmXmXnXaXwX%X|.C.4.G ( ).(.(.)./.(.).(.).).).(.(./.(.(.).)./ U E 0.F.XXrXaXpX0X|.U.I.B.B.B.C.d.0.Q ( _ ' ",
"S o.(...o.).(.(.).)./.o.o./.(.).o...D ~ t 7.G.3X@XOX+XqXnXMXmXgXrX%X+XK.w.a U /.o.(.(...o.).(.(.).).(.o.o.(.(.).).o.A L s t.L.9XrX0X|.P.K.D.U.Z.N.q.3.Q / (./.' ",
"_ o...S ..o.o./.(...D D D ..(.).).(... .p 4.U.2X3X|.{.5XnXmXnXeX9X@X@XL.p.s t U O./.o.A ..o.o./.(...S S S ..(.(.).(...U s e.T.@X@X}.G.C.L.:XE.I.e.:.J I S (./.' ",
"_ o./.......o.o.o.....o.D D o.(.).).(. .G W p.U.L.L.K.<XvXgXpX$XXX,XoXP.A.p.7.Q ( ..o.........o.o.....o.S A A ..(.).O.( H ;.s.K.[.K.A.S.[.:XT.u.W G ~ ..S o.S S ",
"S ' )./.o.o.o.......o./.D D /.).).(.(.O.I K W u.Z.S.L.4XqXyX=X$XXX[.L.L.{.|.J.h.Q U o.o.o.o.o.o.....o.o...~ P ~ O././...I E 1.s.C.S.Z.L.,X[.h.W G Z ../.o.S S Z ",
"..o.O.).).).(././.o.D D D ..(.).o.(.(.).(.^ K ,.r.D.OX&X=XwXrX0X4X:XT.:X@X;X*X}.u.Q ~ O.).).(./.o.o...A V Y 1.! Y X./.(.(.) a <.r.D.:X3XOXA.7.G ( (.).).).O./ Z ",
"..o.(.).).(.(.).).(.o.o.o.(.).).(.o.o.(.).~ G 3.B.{.%X=X=XrXyXpX0XXX:X[.OX;XtX+Xp.R ~ (.).).).(.)./...Z J 9.z.l.! U ..).(.U t ,.N.K.oX3X|.d.1.F / )./.).)./._ / ",
"S ' ).(.(.(.(.(.).).).).).).).).(...../...V e 8.K.3X%X&X&XeXgXnXyX$X}.:X|.@X&X}.y.R I S ..../.(.).).(. .E h. X Xg.G ~ o...L t q.Z.:X:X:XD.d.7.K ~ ..../.)./.o.' ",
"' ' o.(.(.).(.o.O.(.).).).).(.O.o.o.......I H y.K.3X@X+X|.6XvXmXyX+XL.J.2X%X%X[.4.w = @ ; M ..(.o.(./...^ ) ] ] T V Z ....L t w.Z.E.T.d.q.j.x.l.Q L _ o././.o.S ",
"_ ..(.(.(./.o.o.o.o./.o.(.).).o.o.O.o...o.~ G 1.p.U.R.L.K.<XiXmXaX8X:XL.R.[.[.J.s.W d % * : M / o./.o./ / ' ' _ ........o.U a w.D.E.K.d.5.j.x.z.1.G _ /././.' A ",
"S ' (.(.o.D ..o.(.o...D o.).(.(.(.).(.(.(.A n w :.e.a.C.S.,XqXgXgXpX8X{.S.d.i.j.Y.b.{ l 8 7 ; M o.o.....O.)./.(.(.).(.(.(.U a w.D.W.P.L.x.x.z.s.-.H ` /././.' _ ",
"C A / Z V B C o.).).).(.).(.o.(.).).).(.' B ; q s w.s.Z.L.XX$XeXdXgXyX4XS.e.-.8.1XkX!.$.#.#.7 : V o.(.(.).).o.(.).).).).).^ a 8.Z.K.P.OX$X].h.3.s R / /.(.).' ' ",
"F J K K J P Z o.).).).(.(.(.(.).).).).o.C > - u 7.k.J.[.XXXXXX9XyXpXwX@XL.u.-.:.~.~.^.^.*.*.[ j [ ~ O.(.).(./.).).).).).(.U t w.B.K.S.{.%XXXF.q.s H ` /./.(./.' ",
"R 1.5.5.7.W )  .(.(.o...O.).).).).(./.A ; o w 4.G.@X%X%XOX|.|.OX%X+XXX|.[.k.4.x $.&.^.lXjX^.*.$.c F N  ./.).).).).(.(.(.o.L t w.Z.D.B.C.L.oX}.k.W J ' /././.' S ",
"l.x.[.}.1X'.9.Y  .o.o...(.).).)././...B # + u q.D.3X@X+X,XXXOX+X+X|.S.V.s.0.} { #.!.zXAXAXzX^.%.$.g > m S ).).).O.o.o.o.(.^ t y.K.:XD.N.V.A.h.! Q ( ' /.(.' A A ",
"}.+X=XtXpXiXm.f.)  .D ..o.(.(.o.o.o.o.C # % w 6.B.K.2XoX4X9X0X0X+X}.D.a.<.x { $.$.jXBXDXDXAXzX!.%.j 2 @ C ).(./.o.o.o...X.) W h.G.[.D.D.B.N.3.G ^ /.' ).).' A A ",
"{.$X;XsXsXgXvX1Xf.L B ..o.......o.(.(.S # 3 h x 4.p.S.2X@XyXfXfXqX+X|.B.<.i $.%.$.jXBXFXHXHXAXzX&.j < @ B ......o.(.(. .J 9.x.z.j.s.J.L.D.r.2.F / ).).).)././.' ",
"K.|.%X=X;XyXgX6Xb.R n _ (.(.o.o./.(.o.A b * 7 h z >.e.A.].7XdXhXyX+X|.i.:.z $.$.$.jXBXFXJXJXFXAXzX%.7 $ M S o.o.(.(...~ G 9.].x.h.u.J.:XE.B.6.G ..)./ Z ~ ' /.' ",
"G.R.,X$X%X0XqX6Xk.R F ../.(.).(.(.(.o.A B v : 7 g x ;.5.t.].8XaX0X.XF.7.x k $.%.$.jXBXHXJXJXJXHXAXlX{ 5 : V o.o.(.(...~ Y ! g.z.k.j.L.W.W.B.7.F / X.Y H J ^ / ' ",
"W.R.R.OX%X%X3XE.d.W U O.....).(./.).)././.B ; 3 g c s i -.t.].+X3XS.4.s c $.$.$.$.!.bXSXHXJXJXHXFXbXjX8 O ; / /.(.).(.(.O.U a i.T.2XT.U.I.u.W L Z T W q.5.Q U Z ",
"OX3X|.XX$XwXuXuX<Xl.! Y ~ o.).).).).(.(.).C ; - f x i -.h.x.k.h.A.j.,.2.c.n.%.#.$.&.^.ZXFXHXHXFXAXjX&.j < $ A /.).(.(.(.(.I t y.U.2XU.B.u.! Y I J W q.S.].h.Q n ",
"$X4XXXXX@XwXfXgXfXXXt.a U o.(.).(./././.).Z ; - u -.-.t.].].h.4.d.a.;.u.x.M.&.j #.$.&.lXBXDXDXzX*.&.%.{ > b _ (.).(././.).^ a w.U.W.T.d.3.G m U 9.u.U.5X9XG.1.q ",
"G.:X3XXXXX9XeXfXaXOXs.s U o.(.o...o.o.o.).C ; - u q.j.z.h.i.h.A.J.k.,.s.>X1X%.8 8 $.~.cXnXMXlX&.#.!.lX`. .C o.o.......o.(.^ a t.L.2XW.r.-.w e Q l.5XuXiX5XZ.s q ",
"K.K.[.[.{.OX%X*X$XG.0.H ^ o.o./.o.o.A ~ ~ M b ; w 2.j.k.w.t.A.oXOXF.3.8.m.'.c.{ { c.kX7XcXxXjX!.&.bXAXlX_._ o.o.o././././.I a i.K.{.S.t.5.1.1.l.#XhXhXiX2XB.3.y ",
"{.{.{.K.P.oX+XOXJ.0.E ~ ../.o./.(.O.U J G F m v > p 7.u.e.s.L.9X%X[.5.:.} n.n.M.M.M.M.n.~.M.'.kXzXSXFXlX`././.(.).(.).)...L a i.S.S.u.t.z.z.F.|.wXsXfX8XE.I.j.g.",
"&X9X3X>X>XOX}.A.7.K ~ ' ).(.(.).O.U ! i.i.+.I B : + u <.d.E.3X*X=X.Xy.u d %.m.6X1XM.{ @.#.&.'.nXVXHXGXCX`.).).(.(.(.).(.o.L a u.Z.p.,.0..X9X9XOX+X%X&X|.:X3X9X0X",
";XwXuXiX8X<XF.0.H L S /.(./././ U ! l.,XuX'.+.K r 0 u -.C.|.9X&X=X.Xy.w 1 | 1X6XM.n.l 8 j { n.kXDXGXGXCX`.o.O.o.o./.o.o...L a u.B.p.-.8.}.0X9X:XG.J.}.XX4XeXfXgX",
"=XtXgXgXyX.Xi.W L Z ' /.' O.` L a i.|.yXdXiXm.7.:.2.=.,.A.OX*XrX=X.Xw.w 1 | M.Q.v.#.j @.l j j &.bXFXGXCX`.o.o.....o...A ..L a y.d.s.4.t.G.{.{.S.V.C.}.OX$XaXgXmX",
";XtXsXaX0X}.u.y N A ' /.).' I a ,.C.|.0XaXiXuXcX7Xm.:.-.a.{.4X*X=X}.5.0 1 { Q.m.| @.@.[ l j j #.&.ZXSXzX_./.).(.(.o...S ..U a ;.q.i.k.k.A.B.B.V.S.{.XX+XXX0XaXsX",
"@X%X%X*X@XL.e.R I S ' ' ' ) Q 0.I.>X>XXX$XwXgXmXMXuXm.8.u.I.:X4X%X.Xj.s f { c.~.{ l j l l l l j [ lXbXlX_.D O.(.(.)././.(.^ a i -.y.J.R.A.B.B.G.}.@X0X0X5X4XOX+X",
"D.L.oX+X@X}.e.W ~ _ /._ U E y.R.uXuX>XL.XX=XsXmXNXmX#Xl.w.e.j.:XOX+X.Xh.1.u k k j j j j l [ l j 8 &.'.'.T m D ../.).).).).) a i =.8.T.:XK.J.[.XX%XyXfXnXvX3XS.a.",
"<.p.L.%XeX8XF.9.P ( S / E 3.S.8XnXpX5XL..X&X-XaXgXhXsX X6.-.e.T.|.@XrX}.t.u 9 d 6 8 8 j j l l j 7 | n.i.t : S /.).(./.....U a ;.<.q.s.C.G.|.$X&X0XyXmXNXMXvXY.p.",
"u 3.J.qXfXdX#Xx.! Y B Z R 4.K.qXpXpX9XXX+X.X$X=XtXyXtX].3.-.e.T.:X3X*X|.t.i 0 f d 6 6 g j j j 7 8 | b.b.z > Z /.(.o.......L a 8.a.u.q.q.V.L.@X&XwXpXmXNXNXmX7XQ.",
"w 2.H.;XgXnXsX4Xk.y n n H 3.A.oX*X*X%X$X|.,X@X%X$XXX}.k.8.4.a.E.:X|.,Xk.4.-.;.1.h g 1 j 6 6 d j g } c.b.z - M Z S A S ' S P y q.B.d.5.5.a.A.L.XX%XyXgXmXNXNXnXuX",
"q W G.*XyXpXyX@XC.u + - w 4.B.{.@X+X@X3XL.:X,XXXL.s.w.5.u.d.I.T.W.G.s.<.-.y.z.x.2.f 1 6 8 8 8 k c.n.| h - o = : ; ; ; b : > u -.q.h.H.].}.G.S.J.$X;XyXfXmXmXpX<X",
"w 1.A.OX*X*X4XJ.0.t - ; e 1.t.A.L.{.|.|.L.R.:X[.S.p.5.5.u.C.D.D.Z.p.;.u u 7.].[.u.:.c j 6 4 @.x c.c.h O . . . . o o . . . - u i -.t.XX;X;X}.G.G.XX=X0XpXgXhX0X}.",
"u -.p.{.@XOXL.0.E I Z B V Y W 4.a.S.|.+X{.R.T.R.}.}.].z.t.p.C.Z.u.:.w 1 + a 0.d.b.b.v.c d 6 } v.} h & . . .   + 9 + o   . q u i s t.XXtX;X$X[.L.XX$X&XwXsXyX@X}.",
"u =.d.P.[.z.9.E I A S /...I H :.a.L.8XeX9X{.Z.K.|.=X-X X0.5.p.C.8.u 1 < d f x >.v.c.c.v.c c v.v.k & X # # $ + u 7.1.r o = > u -.,.y.Y.}.@XOX,X:XXXOX$X=XrX%XJ.d.",
"w 2.V.L.A.2.K I A S /.)./.~ e 1.A.8XpXfXtXXXA.C.{.=XsX.X0.<.e.V.4.w 4 d k c 0 1 h z c c v.c.b.c.g O   $ b n e 0.F.z.W - n F a 4.r.p.w.i.A.K.L.>X,XXXOX$X+XL.t.1.",
"e 1.F.L.t.y U o.(.' ' (.(.~ G 0.[.aXhXnXyXXXS.d.S.}.@X].5.4.r.V.4.u f c v.v.j < 3 < < f v.b.b.c.f < X ; M I G g.[.].9.F / I R y.Z.a.<.=.<.a.I.T.:X|.,X|.L.i.R F ",
"r 2.A.S.t.y ^ /.).).(.(.(.( r 0.L.rXaXyXwXXX[.S.C.C.K.d.3.4.s.d.4.=.v.v.c j 1 3 3 < < 1 k v.b.v.d O X * : M ^ ] g.9.Q ~ ..I a u.I.d.-.i =.q.B.T.R.{.|.L.h.W L Z ",
"q 2.B.I.y.y ^ o.(.)./...S V e 1.j.,X9X@XOX|.|.[.Z.N.r.q.-.4.s.B.4.-.c.v.f < < 4 4 4 < < 4 f } x 5 < < 4 & ; Z U J J ( S ' L a i.Z.j.,.i =.q.d.T.K.L.{.A.7.J Z ' ",
"r 2.B.I.w.p U ..(.' S A m * & d s s.].OXL.R.:X,XT.N.e.<.=.4.s.B.<.:.:.z 1 . . o O < < O O 4 d d 5 4 4 5 3 2 ; b ~ ` (.S /.I a h.G.F.3.i =.e.I.T.U.D.K.B.7.F ~ ' ",
"r 2.B.I.y.p U _ ' _ Z v ; O 4 w s u.G.oX:X2XXX:XA.y.W a u w.B.D.q.i 0 1 o . . . = ; ; ; * $ ; = + 3 4 4 4 2 2 : M A A C B F p h.L.F.7.u p 1.t.I.U.E.L.B.7.F Z _ ",
"w 2.B.I.y.s U _ S A M ; 2 1 d u 4.j.L.OXOX4X3X[.s.W Y F t w.I.I.q.u q o . . . O v B B M M m M : % & & & & 2 3 > : v v ; ; - p u.D.C.2.t F F ! d.D.P.[.S.3.e V ' ",
"r 2.B.Z.p.s F Z A v $ & 2 5 u <.B.E.:X{.XX@X3XJ.0.a ( ( J 1.u.w.,.u + X   . % v ..o.o.o././.o.A b $ # # $ % 2 2 % % % X % + i u.I.B.;.Q O.~ E e.D.W.2XS.0.G V _ ",
"r 2.Z.Z.e.u > : b $ X X X + u 4.B.E.W.K.G.[.2XL.0.r ( ( J y s r s i q O . % n A (.(.(.).).(.).' A B M M B v = O o . . . . + u e.B.I.2.E O.V E w.Z.W.L.Z.6.G ~ ' ",
"e s p.a.6.w + . . . % $ $ ; e W y.I.D.B.B.Z.[.G.0.t ( ( H w 9 o w u d 4 * b A )./.(.).(././.(.(.(.).).).).A : $ % $ # # @ + w 5.d.a.2.E / N R e.I.U.C.y.W P A ' ",
"@ r ;.,.u + o o X $ : Z Z /  .P R q.a.Z.G.L.W.C.6.t ( ^ J u f < 5 d 4 % b A o./.).(.O./.).).(.O./.(.(.).).(.Z B m N B M M : - p ,.e.-.E / N E e.Z.I.w.W Y ` _ S ",
". - w w q $ $ ; ; : B ..o.O...T ! t.r.p.J.,X2XI.<.p L N e t f 4 3 2 * b Z o.(./.(.(./.(./././.o.o./.o.o./.)./.o...o..._ ..C b q u s s G B n R a.D.B.3.K Z o._ Z ",
". . - - : m m M M Z A S /.O.L ! l.H.i.8.J.,X2XI.q.u - = - d d 4 < * b Z o./.(.(.o.(.(.).o....././.o.o.D /.(././.(.).(./.).(.A : - q d 5 $ - i a.D.B.;.K / ' S V ",
"# $ $ : M Z Z A /.(.(.(.(...F 9.x.J.t.;.k.>XY.t.W e = O 3 3 3 3 = b Z o.(.(.).).(.(.(.(...A S ..).).).(.(.)./.(.).).).(.).).o.Z b 2 2 3 & - w 6.a.a.,.Q _ (.' Z ",
"m m M C S ' _ /.).).(.(.).o.~ ] g.i.3.;.d.U.j.W Y L = o 3 3 3 = v A /./.(.(.(.).(.(.(././.....o.).).).(.).(./.(.).).).).(.(.o.o.A b # , < O + p ;.q.;.E / /.' / ",
"S ' (.(.).).(.).)./.o.o./.).(.' P y =.3.C.C.u.K ~ o.; O 3 4 2 ; Z ).).(.o./.(.(.(.(.(.).).).(.).(.(.o.../.).).).).(./.(./.o..././.A : & 2 < . + w i u e N _ _ _ ",
"S ' (.).(.' (.(.(.(.o.../.).)././ F a 4.F.T.i.G ~ o.: % 4 4 & @ Z )./././...' ' o././.).(.o.(.).(.(.o.../.).).(././.o.o.(.)./...o./.A v % X . . + + + - $ m Z Z ",
"S ' (.)./.' /.(.(./.o...O.(.)./.' Z E 5.J.L.i.K ~ ..: X 2 2 * b A /.o.).).o.o.o.(./.(.).(.../.(.(.o.o...o.(.)./.o./.o.o.).(./.o./.).(.A : ; = = ; $ ; % o $ b m ",
"' ' ).(.(./.' /.).o._ _ ..o.S ' ' ~ E 4.I.S.i.Q ~ ..; X O % v / o.).).).).(.).).(.).).).(.o...(.).o.D ..o.....o.o.(.).)./.' _ (.(./.).o.A M M V C Z Z b . % % $ ",
"S ' (.(./.o././././.' S /.(.o./.../ E ,.B.Z.y.H n v = o $ n A /.(.).(.' ' ).).).(.(.(.(./.o././.(./.o.../.(.o.o./.(./.o.o./.(.(./...(.)./...S .././.' M ; $ $ @ ",
"S _ /./././.)./.O.).(.o./.).).(.O./ R 6.B.B.e.r - > w e n / /.(.).(./.S ' ).).).o./.o.O././.).(.o.)./.o.(.).).(.(.(.o.' O.).)./...o.o.).).(.(.).).)./.A B m m v ",
"S _ ' ' (.).).).).).).).o.' ).(.o.( E 4.A.I.w.u q w 7.9.) ` /.).(./././.(.)././.(.o.o.o./.).).).).).).).o...).(./.).)./././.o....././.(.).).(.).(./.o./.(.(.S C ",
"S _ _ ' o.(.(.).).).).(.' o.).)./.~ E 4.G.F.w.i u ;.x.].g.T / (.).(./.(.).).' S /.o.....o.).(.(.).).)./...o.).).).).(.(.)./.o._ o.(.o.o.o.o./.).).(././.).).' C ",
"S S S S ' ' ' (.).).(.' /./.).)./.Z E 8.J.G.y.i u 9.].].0.Q Z /.).).(.(.).)./.../.o.S S ....o./.).).(.o.o./.).).)./././.).)./.o./.(./.o...o.o.(.).).(.(.).).S A ",
"' _ S ' S _ ' /.(.(.(.(.' /.(./.S V R 4.C.Z.w.u w z 7.0.T X.(.' ' S (.).).(.(.).).O.S ......o.(.(.(././.o./.(./.......o.).).)././.).).).O.(.).o.S ' ).).(.(./.S ",
"A A S S ' S ' ' ' S ' S ' ' ' ' / V R 4.I.Z.e.p 9 4 r K ~ ' ' ' A S /.S S S ../.o...S ....S ..........................' o.o.o./.o.o.o.o.o.o.o.o.S S ' ' S S S A ",
"C C S S ' _ S S A Z S S S S S S ..L R q.I.I.r.i + , ; N / _ ' ' S Z S A C A S _ S A S S ....S A A A A S ....A S ....' o.A A _ ..o.S ..S S S ....A Z S A A C C C "
};
