/* XPM */
static char *Group_10_32__resized[] = {
/* columns rows colors chars-per-pixel */
"80 80 254 2 ",
"   c #1C1A18",
".  c #271A17",
"X  c #231C1B",
"o  c #361C17",
"O  c #1D2416",
"+  c #1C2518",
"@  c #1F3E1A",
"#  c #222517",
"$  c #232A16",
"%  c #23251A",
"&  c #2B2718",
"*  c #242B19",
"=  c #3A2717",
"-  c #253416",
";  c #283A17",
":  c #253418",
">  c #383716",
",  c #1D1E26",
"<  c #251D23",
"1  c #361E22",
"2  c #2C2225",
"3  c #2A2526",
"4  c #322426",
"5  c #362726",
"6  c #3C2B2C",
"7  c #383326",
"8  c #342E35",
"9  c #3A2D32",
"0  c #441E18",
"q  c #571D10",
"w  c #4F230C",
"e  c #482619",
"r  c #572817",
"t  c #4A3916",
"y  c #543C13",
"u  c #5B3814",
"i  c #6B270F",
"p  c #672A15",
"a  c #732C15",
"s  c #663616",
"d  c #6B3413",
"f  c #643B14",
"g  c #6B3B14",
"h  c #783816",
"j  c #472925",
"k  c #552B24",
"l  c #46312C",
"z  c #59352B",
"x  c #493837",
"c  c #593932",
"v  c #523E3B",
"b  c #662D24",
"n  c #693929",
"m  c #773B25",
"M  c #6E3C31",
"N  c #2A4317",
"B  c #2A4917",
"V  c #2C4419",
"C  c #2D4C19",
"Z  c #384719",
"A  c #314D1A",
"S  c #2E5119",
"D  c #395217",
"F  c #32541A",
"G  c #3D5519",
"H  c #355C1B",
"J  c #3B5B1A",
"K  c #36621B",
"L  c #3B641C",
"P  c #3D6C1D",
"I  c #3F711F",
"U  c #3A4628",
"Y  c #3E7420",
"T  c #444717",
"R  c #4B4515",
"E  c #444B16",
"W  c #4B4B16",
"Q  c #5C4315",
"!  c #554817",
"~  c #544B16",
"^  c #5C4B16",
"/  c #475117",
"(  c #445419",
")  c #4C5518",
"_  c #435C1A",
"`  c #4B5C1A",
"'  c #575317",
"]  c #535418",
"[  c #5B5318",
"{  c #535A1A",
"}  c #5C5B19",
"|  c #664716",
" . c #6B4C17",
".. c #744C16",
"X. c #794817",
"o. c #665417",
"O. c #6B5419",
"+. c #635C19",
"@. c #6C5A1A",
"#. c #7C5316",
"$. c #775719",
"%. c #44641B",
"&. c #4B641C",
"*. c #436B1D",
"=. c #4B6B1D",
"-. c #52631C",
";. c #5B631B",
":. c #546C1D",
">. c #41741F",
",. c #4A731F",
"<. c #43781F",
"1. c #4A781F",
"2. c #52731F",
"3. c #68621B",
"4. c #726019",
"5. c #56423B",
"6. c #564E39",
"7. c #754C2D",
"8. c #684735",
"9. c #774836",
"0. c #427620",
"q. c #4A7521",
"w. c #457C21",
"e. c #4A7C21",
"r. c #4A742C",
"t. c #756E2F",
"y. c #533D45",
"u. c #5C4847",
"i. c #664D47",
"p. c #6A554B",
"a. c #6E594F",
"s. c #78644F",
"d. c #7B6E64",
"f. c #863A17",
"g. c #8B3A14",
"h. c #813722",
"j. c #9B470D",
"k. c #8D4416",
"l. c #884818",
"z. c #974917",
"x. c #885718",
"c. c #9B531A",
"v. c #965818",
"b. c #A54C17",
"n. c #B34C19",
"m. c #A75718",
"M. c #AB5B1A",
"N. c #B6581A",
"B. c #8C6318",
"V. c #996418",
"C. c #AF6E14",
"Z. c #A86719",
"A. c #B5651A",
"S. c #B36B1A",
"D. c #B86818",
"F. c #B5731A",
"G. c #BC741A",
"H. c #BA7819",
"J. c #89492B",
"K. c #924D29",
"L. c #995825",
"P. c #874934",
"I. c #875634",
"U. c #965836",
"Y. c #A55824",
"T. c #AB5C32",
"R. c #8E6826",
"E. c #996736",
"W. c #A56926",
"Q. c #B76B26",
"!. c #B77629",
"~. c #A86434",
"^. c #AC7634",
"/. c #C35E1D",
"(. c #C6691D",
"). c #CD6D1A",
"_. c #C57915",
"`. c #C4731B",
"'. c #CB751B",
"]. c #C37A1B",
"[. c #CC7C1B",
"{. c #D5771E",
"}. c #D37D1E",
"|. c #D36E21",
" X c #C47828",
".X c #D07524",
"XX c #897254",
"oX c #987258",
"OX c #478122",
"+X c #498423",
"@X c #4C8A24",
"#X c #53822D",
"$X c #7B944F",
"%X c #79946E",
"&X c #BF801A",
"*X c #B78433",
"=X c #CB841B",
"-X c #C9861A",
";X c #D7851C",
":X c #D48A1B",
">X c #DA8B1E",
",X c #DC921D",
"<X c #DA981B",
"1X c #E18D1E",
"2X c #E6971D",
"3X c #E49B1D",
"4X c #DFA01E",
"5X c #EAA51E",
"6X c #F2B31F",
"7X c #CA872A",
"8X c #DB8722",
"9X c #DB9827",
"0X c #C68734",
"qX c #D28E35",
"wX c #D79A37",
"eX c #E28A21",
"rX c #E79722",
"tX c #DDA436",
"yX c #EAA626",
"uX c #F1AA22",
"iX c #F3B726",
"pX c #F0B02A",
"aX c #E5A939",
"sX c #ECB73A",
"dX c #F2B935",
"fX c #F6C52B",
"gX c #F9C936",
"hX c #F8D236",
"jX c #9A8B5A",
"kX c #AA8C52",
"lX c #AFA75C",
"zX c #9B8F65",
"xX c #A7916D",
"cX c #B4AA6C",
"vX c #C4964E",
"bX c #D5A64B",
"nX c #E3AB40",
"mX c #EBB643",
"MX c #F2BC45",
"NX c #CDB66F",
"BX c #F6C745",
"VX c #F7D447",
"CX c #D5CE79",
"ZX c #F2DB70",
"AX c #CBA687",
"SX c #D1CB88",
"DX c #EDEA8D",
"FX c #DADDAB",
"GX c #F1EDB2",
"HX c #DDDCCF",
"JX c #DACFD1",
"KX c #FAF9C9",
"LX c #FEFED8",
"PX c #FDFCF0",
/* pixels */
"S K >.I I I I I <.I I I <.I <.I 0.0.0.>.P P I w.w.>.<.<.I P E d G.yXrXv.y *.G y z./..X8X3X5X[.v.t H P >.I <.<.I I <.<.P > X._.3X7Xc.^ J P K E h _.3X[.#.T *.P H ",
"L P >.I I 0.I I I I I <.<.<.<.I Y 0.0.I P I 0.0.I I I I I I _ d !.pXyXv.y *.*.-...m.(..XrX5X'.x.t J I <.<.<.I I I <.>.*.Z X.D.5X4X7XB.{ J P =.o.V.F.v.o.( <.I P ",
"<.<.>.<.OXw.I I I <.<.OXOXw.OXI 0.0.Y Y I 0.OX0.I I P I >.w.` s  XsXaXL.t *.@Xe.) X.n.|.eXeX).z.t %.OXOXOXw.<.I Y Y I L T X.`.5XhXBX0X#.T >.@X1.@.X.^ _ I w.<.<.",
">.<.+X@X+XOX>.<.<.I <.OXOX@X@X@X+Xw.Y P w.+X@XOXOXOXOXOX+X<.&.s !.pXwXl.t q.+X0.T X.n.|.{.eX|.z.y L I OXOX@X@X@X@XOXL E | Z.:XiXVXVXqXL.t L OXOX&.` %.>.<.OX<.I ",
"I <.OXOX+X@X+XOXOXw.w.OX@X@X@X@X+X+X+XOX@X@X@X@X@X@X@X@XOX>.) g F.yXrXV.u &.<.1._ | b./.|..XN.l.W *.<.+X@X@X@X@X+X+X) f m.}.3X6XgXVXwXL.R %.OXOX>.L <.<.OX<.<.I ",
"I I >.>.OX@X@X@X+X+XOX+X@X@Xw.<.+X@X@X@X@X@X@X@X@X@X@X+X>.) | v._.3X3XH.x.~ =.+X>.` | c.N.N.l.| %.<.+X+X@X@XOX<.w.w.[ f.(.1XuX5XdXfX7Xx.T L <.<.I >.+X@X@X<.<.<.",
"I I >.<.<.<.OXw.w.0.0.0.0.w.OX@X+X+XOX0.0.w.OX+X+X@X@Xw.` ..m.=X;X>X<X<X-Xz.^ L >.*.) h g.h [ %.>.I <.<.<.<.+X@X+Xw.) f M.}.2X2X5X5X}.x.R L I I P P OX@X@Xw.I K ",
"P P >.OXOX>.>.>.Y Y I Y Y I w.+X@XOXw.w.w.0.0.<.w.@X@X0.` l.N.1X.XG.-X5X3Xb.| J <.I G d p Q J I >.I I I I I <.+X+XOX*.] #.M.{.}.2X2X).x.W P =.) _ P +X@X@X>.P K ",
"P I 0.e.0.Y P Y Y Y Y >.Y I P 0.OXOX+X@X@Xw.>.I <.@X@X1.%...m.[.A.m.Z.:X:Xz.[ L <.*.) h | _ L I Y P 0.Y Y Y P 0.+Xw.+Xe.{ X.N.).}.eX(.x.( *.;.X.o.>.+X@X+XL L P ",
"P I 0.w.0.0.Y Y I *.Y Y 0.0.0.+X+X+X@X@X@X+Xw.+X+X@X@X+Xe.{ ..v.A.F.G.C.B.+.=.<.%.[ x.F.Z. .( K P Y Y Y Y w.0.+X+X+X@X@Xe.{ X.Y.(.D.x.] ( o.V.H.V.$.*.<.,./ _ I ",
"I I 0.OX+X+X0.Y 0.w.w.0.w.+X+X@X@XOX@X@X@X+X+X@X@X@X+X<.>.*.) X.S.:X:Xv.| %.OX+X%.o.Z.:XH.#.W K 0.0.0.0.w.+X+X@X@X+X@X@X+X>.' l.z.l.;.L ( ..A.<XC.X./ L ;. .[ %.",
"<.>.0.@X@X@Xw.0.OX+X@X@X+X+X@X@X@XOX@X@Xw.OX@XOX+X+X=._ G <.=.s F.5X,Xv.t L w.OX>.} x.G.Z.o._ >.+X@X@X@X+X+X@X@X@XOX+X@X0.0.q./ R ) 1.OXL +.v.H.v.^ Z W x.M.x.Q ",
"I I >.OX@X@X@X+X0.0.+X@X+X+X@X+Xw.@X@X+X+X@X@X+X@X@X{ y R 2.:.d F.3X1Xv.y *.>.>.>.=.} ..@.2.1.<.>.0.e.@X+Xw.@X+Xw.+X@X@X+X@X+X>.*.,.<.OX0.1.3.#.3.&.G #.A.}.A.k.",
"P I <.<.+X@X@X+X0.Y w.@Xw.0.+Xw.w.@XOXw.@X@X@X+XOXOX' u f 2.=.g D.1X;Xx.y >.*.` &.*.>.( _ +X@XOX>.>.w.@X+Xw.+Xw.w.@XOX0.@X@X@X+X+X+X=.-.2.OX,.( <.1.( x.{.2X'.b.",
">.<.+X@X@X@X+X+X@Xw.w.@X+X+X+X+X@X+X0.P 0.@X@X<.I >.[ | | ,.=.u M.[.`.l.! *.+...^ -.1.1.+X@X+X+X@Xw.w.@XOXe.+X@X@XOX0.P e.@X@X0.>.*.o. .o.2.OX<.<.*.W v.[.yX`.z.",
"I <.@XOX@X@X+X+X@X@X+Xw.+X+X+X@X@X0.I I 0.w.w.I L ) B.^.^.4.) { $.v.v.o.) [ B.F.C.4.&.<.@X@X+X+X@X@X+X+XOX+X@X@X@X0.Y Y 0.0.0.>.L ' v.Z.v.3.=.OX=.] X.F.aXdX Xz.",
"I <.@X0.w.@X+X+X@X@XOX0.w.+X@X@X@X0.0.0.Y 0.0.0.G y !.aXtXx.! ,.;.| [ =.%.| Z.>X].x.W L +X@X+X+X@X@X+X0.w.+X@X@X+X0.0.0.0.0.0.Y E g H.>X=X..E +X` | m.>XgXBX7Xb.",
"<.<.0.I >.OXw.OX+X0.I Y Y 0.e.@X@X@X+Xw.w.+X@X@X` u !.pXaXL.Q 1.e.1.1.<.*.` B.S.V.@.L P Y w.w.e.+X0.Y Y P 0.+X@X@X@XOXw.w.OX@XOX) h 7XpX9Xl.! e.] h D.rXiXdX9X X",
">.<.OX0.0.0.0.w.w.0.0.w.I I w.@X@X@X@Xw.w.0.w.w.' h '.5X2Xv.| 1.I I I I P %.;.$.^ ` 0.0.0.0.0.w.w.0.0.w.P 0.e.+X@X@X+XOX0.w.e.>.[ l.wXBXaXx.R e.' h (.1XuXiXyXeX",
"I w.@XOXw.0.w.w.0.0.w.+X0.I +X@X@X+X+X@Xw.0.q.` O.v.=X1X[.k.Q ,.P _ %.,.I I *._ T ` q.e.0.0.0.0.0.0.0.+XY Y +X@X@X@X@X+Xe.0.*.' $.C.sXVXwX7.R e.] h N.}.2X3XrXrX",
"0.w.OX+X@X@XOXOXw.0.0.Y P 0.@X@XOX+X+X@X@Xw.&.X.m.[.3X2X`.k.Q *.} ..o.:.w.I <.q.'  .$.2.w.<.>.>.0.0.0.P P 0.@X@XOXOX+X@X@X0.` l.S.<XhXBXqX#.W e.&.| b.(.}.8X}..X",
"0.w.+X@X@X@X+X@X@X+Xw.w.w.w.@X@X+X0.OX@X@X0.` h N.1XuX2X`.z.d | B.C.Z.$./ V A { x.m.m.O./ A Z D %.w.+X0.0.+X@X@X+Xw.OX@X@XP ) l.(.3XfXdX7XX.R e.>.] X.b.N.M.n.N.",
">.w.@X+XOX+X+X@X@X@X@X@X@X@X@X@X+X0.0.OX0.P _ | v._.2X>XA.g.p d V.:X-Xv.r = = s M.'.G.l.r = j l T q.@X@X@X@X@X@X+X>.0.OX0.L E l.N.>X6XuX XX.t 0.0.*.W X.g.f.f.f.",
"<.<.w.+X+X@X+Xw.+X+X@X@X@X@X@Xe.0.w.0.0.0.0.q.2.3.j.N.m.f.w = E } 4.Q. X!.W.l.f.N.`.`.z.x.R.E.8.9 V H @X@X@X@X+Xw.w.0.0.<.L W k.(.1XuX5X}.g.y *.I Y *.` [ { ) W ",
">.<.OX+X+X+Xw.w.w.+Xw.0.+X@X+Xw.w.OXw.0.w.OXOX0.` f z.z.n = * C Z | L. XqX*XL.k.m.)._.j.Y.0XkXI.x 3 N K w.@X+Xw.w.OXw.0.OX0.` ..M.}.rX;XZ.X.W P K K <.*.P I L K ",
"I w.@X@Xw.I 0.OX+Xw.0.Y +X@X+X+X@X@X@X+X@X+X0.K U z i.I.u.u.U U t n K.oXoX^.P.f.C._._.j.Y.kXzXd.u.x 4 : L +XOXOXOX@X+X+X@X+X>.{ #.M.D.m.X./ J *.( / *.1.OXOX<.I ",
"I w.+XOX<.P P <.@X@X@X+X+X+X+X+X@X@X@X@X@XOXL > 8 u.a.XXoXzXXXn n P.P.9.5.8.n k._.:X-Xg.P.xXxXxXXXa.x 7 V L 0.+X@X@X@X@X@X+Xe.e.-. .g.h R %.P *.@.x.O.:.<.+XOXI ",
">.w.+XOXOXw.I w.@X@X+X+X@X+Xw.@X@X+X@X@X@X0.G t c u.a.d.xXNXkXJ.m M P.i.M b m Y.<X3X_.k.U.cXSXSXcXXXi.u.7 V K <.@X@X@X@X+XOXw.+X0.` d u Z *.*.[ V.D.V.+.%.+XOX<.",
"I <.@X@X@X@Xw.e.e.+Xw.0.+X+X@X@X@X+X+X+XOX*.) X.J.i.i.s.kXNXbXY.n n i.P.K.h.b.'.uXuX].c.~.ZXDXGXSXzXd.p.x 7 N P @XOX+X+X+X0.0.+XOX1.o.| ' =.{ X.H.:X_.#.E 1.I I ",
"I <.+X@X+X<.*._ E q.w.0.+X@X@X+XOXOXw.>.%.} x.H.A.K.U.kXbX0X XD.z.h.M M m f.b.}.pXgXaX-X!.qXAXHXKXSXzXp.9 & N P +XOXw.0.+X@X+XY _ +.Z.H.C.o./ ;.B.C.x.3.*.I I I ",
"P L >.+XOXP { O...-.0.Y w.+X+XOXw.OXw.0.L o.c.:X`.z.W.*X*Xc.b.[.D.z.b c n h b.[.pXBXgX5X`.z.xXJXPXGXCXXX6.7 ; H >.w.w.w.+X@XOX0.) | C.=XH.o.D %.o. .} 2.+XOXI I ",
"K ( ) 1.<.` R.!.*X$.E P 0.0.0.0.w.+X@X+X>.) ..C.M.g.J.I.I.h j.>X_.m.b l z h b.[.pXfXhX6X_.g.xXJXPXLXGXSXjX6.3 - H w.@X@X+X0.I OX>.] V.Z.B.] D E ( &.OX@X@XOXOXI ",
"^ $.x.-./ u ^.nXmXL.Q L 0.+Xw.w.OXOXOXw.e.1.:.O.h r k c M f.D.yX:Xm.k l z h b..X5X6X6X4XC.f.xXJXPXPXKXDXcXa.8 % - I OX<.OXOXOX+X0.*.+.o.[ ( ' #.} %.w.w.<.@X+X<.",
"x.C.F.O.u a !.BXBXQ.g _ w.@X@X+X+X+Xw.,.e.+X+X( > = 1 r h A.9XdX9Xc.b x c a b.(.2X5X<XD.l.m xXFXLXKXGXcXzXs.x X - 0.OX<.OX+X@X<.0.0.%.J ( ' x.A.v.} *.Y I @XOXI ",
"D.-X-Xv.i i Q.aXsXY.g _ P 0.@X+X+X@X@XOXOXOXw.Y C + o a b.;XpXBXqXc.b n n h.g.(.rX2X-Xg.b i.xXCXDXDXcXXXXXs.u.7 B <.@XOX+XOX<.<.*.>.<.P ` x.(.>X(.v.W *.+X@XI J ",
"x.v.Z.o.y p F.9XtXm.d f / >.@X@X@X@X+XOX@XOXw.Y S + o a b.{.yXdX7Xv.h.J.J.g.b./.2X1X_.g.b i.XXzXlXlXkX^.vXcXr.r.P +X+X+X@X+X<.I _ ] %.P ( v.(.1X.Xz.R *.@X+X` t ",
"E ^  ._ D u C.1X<Xc.f.g. .&.e.+XOXOXOXOX@X@X+XY H : = d n.(.eXuX_.b.z.T.T.h k.N.}.}.D.l.n i.a.a.p.a.kXtXZXCX$X#X+X+XOXOX@X+X,.*.o.#.+._ / $.A.}.A.l.` *.e.2.@.l.",
"P %._ >.( u D.eX-Xk.g.!.!.t.` P w.0.0.OX@X@X+X+XY L T h n.|.eXuX_.b.b.T.T.n m z.n.b.j.m c u.u.u.i.a.jXZXGXFX%X#X<.0.<.w.@XOX%. .V.-XZ...T W $.M.#.` e.0.=...Z.=X",
"I L K <.=.] v.D.G.m.!.mXtXW.! %.OXw.OXOX+X+X+X+X+X0.G Q z./.{.}.M.k.L.T.T.k k p f.f.n c 5.5.5.u.y.i.zXDXLXHX%X#XOXw.w.+XOX<.%. .Z.:XD.#._ L :.O.W D OX0.%.| S.2X",
"L _ ` <.<.=.+.l.A.G.tXVXMXQ.u ` @X@X@X@Xw.0.+X@X@X+XF t a j.N.n.l.m P.~.T.b k j k z c u.x v u.y.x i.zXDXLXHX%X#X@X@X@X@Xw.I =.[ B.F.V.@.>.OX<._ T / 1.>.%.[ V.F.",
"! ..x.-.0.w._  .m.,XfXVXaXW.y _ OX@X@X@Xw.w.+X@X@X>.B * = r a a e j 8.U.Q.L.m k l x u.x 5.x x x x p.jXCXGXHX%X#XOX+X@XOXw.w.OX+X;.| -.1.1.OX<.*.O.#.o.:.1.1.;.f ",
"B.!.0Xx.-.q.H ^ m.>XiXfX9XZ.! _ w.OXw.w.0.w.OXOX,.{ t . X o j 0 1 < k K.Q.qXQ.7.k l 8 5.5.5.x v 7.R.*XjXFXFXjX#X<.OXOXw.<.w.OXw.*.( L >.<.<.&.+.V.D.Z.+.&.+X*.E ",
"7XnXmXY. .P F Q n.{.3XuX>Xm.y G Y 0.0.I >.0.0.*.} X.g e . j l l l 1 e f.!.mXtXL.p 6 8 u.5.x x 8.E.*XR.8.zXNX$X,.I <.I I >.0.w.<.>.L P I I I { X._.5X[.l.T >.<.<.",
"qXmXmXY.| I H  .n.|.rX5X>XM.u &.+XOXY I w.e.>.[ B.H.S.l.p M P.P.P.P.m f.!.BXtXm.r 4 3 8 8 8 9.^.*XE.8.5.p.$X6.Z S <.I I w.OX@XOX%.R J 1.OX*.) f.=X3X_.X.t 1.<.I ",
" XaXBX!.$.-.J [ l.Q.{.eXG.x.] =.@X+X0.P 0.w.,.Q c.;XG.k.b P.U.P.U.P.h.f.Q.MXwXm.b b c c c 5.I.^.E.8.x x v x 6 * N >.+XOX@X@X@X2.3.x.4.2.1.P ) f._.5X>Xv.! %.>.I ",
"(.wXgXtX*X3._ ( ^ l.n.N.x.} *.0.OX+X=._ =.1.=.t X.S.v.X.e n 9.M M M b f.S.aX7Xc.h.J.E.~.U.~.R.I.8.x 8 x l 4 < X ; <.@X@X@XOX,.+.V.-XZ.$.*.L ) l.G.5X6X&Xx.W %.>.",
"D.>XfXhXaXW.[ J %.| a h t E 0.+XOX0.3.B.$.} F % e f Q > % 1 1 4 < 1 j f.A.<X_.j.k.K.~.~.~.~.U.8.x l 9 l l 6 4 # ; I >.K H F T X.D.:XD.4.%.P ` h C.5XiX5XH.l.W P ",
"N.[.6XgXyXQ.o.F L t 0 o o : H 0.e.' R.0X^.$.>   % Z G A @ + , < < < 1 a M.;X_.j.m m 9.7.7.I.I.P.8.l 9 9 6 6 2 # N I K ; ; $ # r l.C.B.3.<.I { h A.<XiX5X'.g.R H ",
"N.[.rX6X>Xm.Q Z S - O O   O ; K :.g !.sXaXW.r o N >.+X<.K > . 1 3 4 e a m.;X).z.k 1 3 2 3 6 P.~.U.z 3 9 6 4 & * A >.H : %       0 d ~ *.0.>.~ f.N.8XrX}.m.d t S ",
"N.'.rX3X[.c.h u T S S B S F K I &.g Q.pXrXm.w G >.@X@XOXJ y 0 5 3 4 0 a M.8X'.b.p 1 , < < 3 9.T.U.j 3 6 4 2 : F 0.w.0.L J A -   . o & * : > e f.N.}.{.b.d e & $ ",
"N.{.rX2X'.b.g.l...;.*.I Y Y OXOX:.f Z.eX9XZ. .-.q.*.>.=.{ #.h j 4 2 j f.n.[.A.g.r 1 3 2 3 2 n P.P.z 5 4 < % N P @X+XOX+XOXY F : * & * O + $ t X.m./.m.l.t & $ + ",
"/..XeXrX`.b.N.G.H.#.{ 1.OXOX@X+X&.g z.'.8X-XV.+.> ; ; R $.C.D.X.j 5 z J.n.M.k.p 6 1 4 4 2 4 6 z 9.9.n 6 < % V 0.@XOX@X@Xw.w.0.F S H F S N S H ` l.k.X.{ K S B B ",
"k.m.|.}.Z.X.v.F.=Xx.' +XY I <.>.&.g b.|.2X5X:Xc.u & & s S.9X8Xz.r 1 c U.T.f.p j 1 2 5 5 5 4 < 6 n P.9.l 1 & V L w.+X@X@X+X@X+X0.0.w.w.0.>.0.w.e.} ^ ] =.w.Y K S ",
"u l.b.N.x.} +.B.Z.O.` OX=.` -.*.&.f z.(.rXuX>Xb.f > = X. XdXyXm.q 1 z P.U.k 1 < 3 4 5 4 5 4 2 2 6 n n k 5 & V H 0.+X+X0.+X@X@X+XOX@X@X@X@X@X@XOX*.%.>.e.+Xw.&.~ ",
"D Q f.d } e.*.) ~ &.>.1.@.#.#.;.%.! x.S.1X;XA.X.~ P G @. XMXnXL.w . j 9.M j < < 2 1 < 5 4 4 4 2 2 2 5 k = & V H Y P P P w.@X@X0.0.w.+X@X@X@Xe.*.>.0.w.w.0.*.$.c.",
"Z y i ! =.@X0.*.*.e.1.[ B.G.H.x.~ ` ' x.N.m.X.' *.,.D O. XmXnXY.^ Z Z t j X X X < X < < X X X X   X : / %.J V V ; ; S P 0.w.w.0.0.0.w.w.0.0.&.! ` 0.+Xw.&.O.Z.].",
"^  .l.' =.+X+X+X+X+X*.y V.-X-Xx.! D D u f.X.^ *.I *.) $.7XMXaXY.+.P P V X     # * * # % O $ $ # * * V P w.0.J : X X - F H L P Y 0.w.w.0.>.` @.x.@.:.1.>.{ l.].5X",
"Z.H.&Xx.~ L 0.+XOX0.P %.@.v.v.3.F ; e s s } 1.+X=.] #.H.dXBXbXY.+.*.w.L ;   $ C L K F C C F F F F F F P 0.0.0.H - X X O # : F 0.@X@X@X0._ $.Z.-XC.$.=.K ) l.[.6X",
"m.G.=X#.~ L Y 0.w.0.0.P R r Q &.Y B e r y &.OX@X&.Q m.<XfXgXwXc.^ L +XK - X ; L 0.w.Y P P P I I I P 0.w.I I w.0.J ; * $ O $ N H 0.+X@Xe._ ..Z.:XA...%.K W z.}.6X",
"#.V.Z.@.` P 0.0.0.P P H > . > *.OXL R p y _ w.OX{ d S.5XhXfX8Xc.^ L P C $   V I w.+X@X+Xw.0.w.0.0.Y 0.OX>.I OX+Xw.H C A C N N ; H w.+Xw.*.} x.S.B.} >.P { l.'.2X",
"&.] ^ 2.+X+X0.P H F V %   + A P w.0.+.x.$.:.e.<.` f Z.3X6X6X;Xc.o.D B * # # A 0.+X@Xe.+X@X@X+X+X+XY Y Y P 0.@X+X+X0.0.w.w.>.H - A 0.Y 0.e.e.:.o.;.OX+X<.&.| M.'.",
"K %.&.OX@X+XL C : : #   O N P w.q.{ R.*X*XR.` 1.` u m.:X6X5X=Xj.u : + + $ C P OX+X+X+X@X@X+X+X@X@X+Xw.0.w.OX@X@X+Xw.+X@X@X0.P H L 0.F V J Y q.%.,.OX+X+X1.{ #.c.",
"H L <.+X+Xw.J V % # % % C P +X+X-.g !.MXaXW.y ,.=.f m.}.uX5X=Xz.r o   + C 0.+X@X+X+X@X+X+X+X+X+X@X@X@X@X@X@X@X@X+X0.0.+X0.0.0.+X@X0.N $ - F P P I <.,.+X@X<.' f ",
"$ - N I +X@X0.J F F H H Y +X+X0.` g !.MXmXW.y 1.-.f b.|.rXrX}.z.p o + N >.w.+X+X+X+Xw.+X+X+X+Xw.+X+X@X@X@X@X@X+Xw.0.0.0.0.0.+X@X+XY L S ; - * ; H I <.OXOXOX*.G ",
"O $ N *.OXOXw.0.Y Y 0.P w.@X+X0._ g !.sXaXW.y q.,.Q k.Q.{.}.A.f.r & B P w.OXOXOX+XOXOX+X+XOXOXw.OX+Xw.w.+X@X+Xw.w.OXOX0.w.+X@X@XOX>.I P C $     - F 0.w.OXOX>.P ",
"N B K <.w.Y 0.w.+Xw.0.Y w.@X+Xw.&.f W.yXrXZ.y 0.OX%.^ k./.n.k.u = V >.OXOXOXOX+XOX+X@X@Xw.I 0.w.+Xw.0.Y w.@X+X+X+X@X+X+X@X@X+X@X+X0.I I L N $ % X - J 0.OXe.<.I ",
"L P <.<.0.P P w.@X@X@X+X@X+Xw.w.&.g Z.1X>Xv.y =.@XOX%.! g | t > A P 0.OX+X@X@X@X+X+X+XOX<.P P w.@X@X+X+X+X@Xw.@X@X@X@X@X@X@X+X@X@X+X>.I P L C - # $ ; H Y +XOX<.",
">.OX@XOXw.w.Y w.@X@X@X@X@X+X+Xw.=.g M.;X}.c.y =.+X+XY L ) _ F F P OX+XOXOX+X@X+X@X+X+XOXOXw.I <.@X@X@X+X@X@Xw.@X@X@X@X@X@XOXw.+X@X@Xw.0.0.w.>.H F B ; ; F w.OX>.",
"I OX@X@X@X@X@X@X@X+Xw.0.OX@X@XOX-.g m.{.{.c.y ,.0.1.e.+X+Xw.w.@X@X@X@XOXw.OX+X+XOX+X@X@X@X@X@X@X@X+Xw.0.w.@X@X@X@XOXOXOXOXw.0.OX@X@X@X@X@X@X@X@X@X<.F - N I <.I ",
"I <.OX@X+Xw.+X+XOXOXw.0.OX@X@XOX&.g b.|.).z.y *.&.' &.>.0.A F 0.@X+X<.OXOX<.<.<.w.OXOX@X+Xw.+X@X+X+Xw.0.+X@X@X@XOXOXw.w.@X@X+X<.w.@X@X@X@X+X@X@X@X<.L K P I I P ",
"P I OX@XOX<.OX+X@XOXw.I OXOX@X<.%.^ z.N.M.X.W ) +.x.4.;.G $ : >.OX+Xw.@X@Xw.<.OXOXOXOX@XOX0.OX+X+Xw.w.0.w.@X+Xw.w.OXw.OX@XOXOXw.OX@X@X@X@XOXOX@X+XOX<.+X+X<.I P ",
"<.OX@X@XOXw.w.OX@XOXI <.0.w.<.<.<.=.@.k.X.~ G Q V.-XH.#.e X : *.OX@X@X@X@X+X@X@X@X@X@X@X+Xw.<.+X@Xw.0.0.0.0.0.0.OXOX@X@XOX<.>.+X+XOX@X@X@Xw.0.+X+X@X@X@X@X@XOXOX",
"I <.OX@XOXOXOXOXOXOX<.>.OXOXOX<.OX<.-.~ R D G R B.=X`.l.e . + I +X@X+X<.OX@X@X@X+X+X+X+XOXw.OXOX+X+X0.Y OX+Xw.w.OX+XOXw.OXOX+X+XOXw.+X@X@Xw.w.+X@X@X+Xw.OX@XOXI ",
"I <.OXOXOXOX+X+XOX+X+Xw.OX@X@XOX+X@X>.K / ] { ) +.V.v.d o   ; I +X+XOXI I @X@X@XOXe.OXOXOXOX+X+Xw.@X+X0.OX@X@X+X+X@Xw.>.e.@X@Xw.0.0.+X@X@X+X+X@X@X+XOX>.I @XOXI ",
"I <.<.<.OX@X@X@X@X@X@X@X<.w.@XOX+X@XOX,.o.x.x.{ ( ~ t .   + C <.OXOXOXOX+X@XOXOXOXw.w.w.+X@X@X@X@X@X@X@Xw.0.@XOX+X@X@XOXOXOXw.I 0.OXw.+X@X@X+X@X@X<.w.OX@X@XI I ",
"I I I <.w.@XOX@X@X@X@XOX<.w.@X@X@X@X=.{ V.H.H.#.' _ ;   + N P +X@X@XOXOX@X@X<.I OXw.>.0.w.+X+X@X@X@X@X+Xw.w.@X@X@X@X+X+X@X+Xw.>.w.+Xw.w.w.w.OX@X@X@XOXOX@X@XI K ",
"I I I I <.<.<.OX@X@X+X<.<.OX@X@X+XOX%.! Z.-X-Xx.' K B - ; L OX+X@X@XOXOX@X@Xw.0.+Xw.>.I 0.w.w.OX@X@X+Xw.w.OX@X@X+X+XOXOX@X@XOXw.OX@XOX0.0.0.w.+X@X@XOX+X@X@XI P ",
"<.I I I <.I OXOX+X@X+XOXOXOX+XOX<.<.I &.o.v.v.;.A - ; S P OX+XOX<.I @X@X@XOX@X@X@Xw.I >.Y 0.w.+X+X@XOXOXw.OX+XOX0.<.0.OX@X@X@XOXOX@X@X@XOX@X@XOX>.<.@X@X@XOX<.I ",
"P P I I I I <.<.<.I I <.<.<.<.<.<.>.>.>._ ~ [ *.H ; B H <.OXOXY P P w.<.I I <.OXw.>.I I >.Y >.<.0.I 0.<.0.0.w.<.0.>.0.0.w.w.w.OXw.w.OXw.0.w.w.0.P P <.<.I I I P ",
"K P I I <.<.I I P P I I I I P I <.>.>.>.J A D >.P B S K I I I <.P P I P K P I >.I I I I >.<.I P P P P I >.I P I 0.<.0.<.I P I 0.0.>.>.I 0.0.0.0.P P >.P P K P K "
};
