/* XPM */
static char *Group_10_33__resized[] = {
/* columns rows colors chars-per-pixel */
"80 80 236 2 ",
"   c #1C1919",
".  c #231D1A",
"X  c #331718",
"o  c #1D2417",
"O  c #252718",
"+  c #242C1A",
"@  c #382617",
"#  c #243416",
"$  c #253B16",
"%  c #283619",
"&  c #2A3D19",
"*  c #383817",
"=  c #271E22",
"-  c #3A1E21",
";  c #2C2526",
":  c #322C24",
">  c #372829",
",  c #3B2F34",
"<  c #471D17",
"1  c #5D270F",
"2  c #462716",
"3  c #57271A",
"4  c #493917",
"5  c #543B13",
"6  c #583A16",
"7  c #742E13",
"8  c #653015",
"9  c #683617",
"0  c #6C3C15",
"q  c #723C15",
"w  c #7B3C15",
"e  c #7A3519",
"r  c #452826",
"t  c #572C24",
"y  c #4B322A",
"u  c #58362B",
"i  c #402A33",
"p  c #463638",
"a  c #4B3C3C",
"s  c #563A37",
"d  c #5A3D34",
"f  c #6B3529",
"g  c #683829",
"h  c #783C27",
"j  c #663B32",
"k  c #2A4217",
"l  c #294916",
"z  c #2B4418",
"x  c #2E4B19",
"c  c #394817",
"v  c #324C1A",
"b  c #2F5119",
"n  c #32541A",
"m  c #3D5418",
"M  c #355C1B",
"N  c #3B5D1A",
"B  c #37621B",
"V  c #3B651C",
"C  c #376A1E",
"Z  c #3D6C1D",
"A  c #3F711F",
"S  c #3F7320",
"D  c #444415",
"F  c #4D4315",
"G  c #444B16",
"H  c #4C4C16",
"J  c #494D19",
"K  c #534415",
"L  c #5B4315",
"P  c #534B16",
"I  c #5B4D17",
"U  c #574E18",
"Y  c #495217",
"T  c #445419",
"R  c #4B5519",
"E  c #435B1A",
"W  c #4B5C1A",
"Q  c #5B5417",
"!  c #545418",
"~  c #5B5419",
"^  c #535B1A",
"/  c #5A5B1A",
"(  c #6B4316",
")  c #624C17",
"_  c #694B17",
"`  c #744215",
"'  c #7C4316",
"]  c #754A15",
"[  c #794B18",
"{  c #625319",
"}  c #695618",
"|  c #635A1A",
" . c #785718",
".. c #44631B",
"X. c #4B641C",
"o. c #436C1D",
"O. c #4B6C1D",
"+. c #52641C",
"@. c #56681D",
"#. c #41741F",
"$. c #4A731F",
"%. c #42781F",
"&. c #49781F",
"*. c #53721E",
"=. c #64621C",
"-. c #65651E",
";. c #776019",
":. c #524630",
">. c #58433A",
",. c #5C443B",
"<. c #74422B",
"1. c #70512A",
"2. c #694636",
"3. c #794934",
"4. c #7A5439",
"5. c #406F20",
"6. c #427620",
"7. c #4A7520",
"8. c #457C21",
"9. c #4A7B21",
"0. c #716320",
"q. c #4E3B41",
"w. c #4E474E",
"e. c #584644",
"r. c #654C45",
"t. c #69534B",
"y. c #6C554D",
"u. c #6E6545",
"i. c #796853",
"p. c #873917",
"a. c #833D15",
"s. c #913E16",
"d. c #8B3E24",
"f. c #8C4316",
"g. c #844C16",
"h. c #884818",
"j. c #944818",
"k. c #875618",
"l. c #955718",
"z. c #9B5419",
"x. c #9B5B19",
"c. c #A44C19",
"v. c #A45319",
"b. c #A95919",
"n. c #B65A1B",
"m. c #8D6119",
"M. c #976518",
"N. c #9D6319",
"B. c #A36319",
"V. c #AA6719",
"C. c #B4631A",
"Z. c #B86919",
"A. c #A3751C",
"S. c #BB7518",
"D. c #BC741A",
"F. c #844927",
"G. c #974926",
"H. c #8C5727",
"J. c #965922",
"K. c #914C32",
"L. c #855435",
"P. c #895A36",
"I. c #975A35",
"U. c #A7562D",
"Y. c #8B6624",
"T. c #986925",
"R. c #94712F",
"E. c #8A643B",
"W. c #996337",
"Q. c #A76A27",
"!. c #AF7228",
"~. c #B67528",
"^. c #A76934",
"/. c #A97537",
"(. c #B77A36",
"). c #C05E18",
"_. c #C9671E",
"`. c #C46C1B",
"'. c #D1691F",
"]. c #C4741A",
"[. c #CB731C",
"{. c #C97918",
"}. c #D3751F",
"|. c #D37C1C",
" X c #C47A25",
".X c #D87920",
"XX c #825E42",
"oX c #8B714D",
"OX c #A97E45",
"+X c #8C7862",
"@X c #478122",
"#X c #498423",
"$X c #4C8A24",
"%X c #B78432",
"&X c #CA821B",
"*X c #D3841D",
"=X c #DA841D",
"-X c #D68818",
";X c #D48B1B",
":X c #DC931B",
">X c #E18E1F",
",X c #E5981D",
"<X c #E8A31C",
"1X c #CC8826",
"2X c #D68A26",
"3X c #D8962A",
"4X c #C78933",
"5X c #CE943A",
"6X c #D59737",
"7X c #E69A25",
"8X c #DDA43A",
"9X c #ECAA28",
"0X c #E6A737",
"qX c #F0B335",
"wX c #978758",
"eX c #B38E4B",
"rX c #9E8F66",
"tX c #B4AE71",
"yX c #C99B4A",
"uX c #D6B155",
"iX c #E7B647",
"pX c #C5B569",
"aX c #F6C84D",
"sX c #CAC779",
"dX c #D7CA73",
"fX c #EFD268",
"gX c #F6E372",
"hX c #D2CD89",
"jX c #F4F18D",
"kX c #F8F596",
"lX c #EDEEA4",
"zX c #F8F6A6",
"xX c #F6F5B4",
"cX c #FFFFDA",
"vX c #FFFFE8",
"bX c #FFFFFB",
/* pixels */
"b B #.A A A A A %.Z A #.#.%.#.A S 6.%.#.Z A Z c ] S.-XV.8 m B Z #.#.%.A B c k.1X8X!.6 m B A A A %.Z Z %.6.A %.%.A %.%.A n 5 f.-X-XV.L c Z Z A A A %.%.A A %.A M ",
"V Z A A 6.6.A A A A A %.%.%.%.A S S S A Z A o.4 g.|.,XS.w Y Z %.%.%.A A N 4 k.2XqX~.q G Z %.A A A A A %.8.6.6.A A A #.Z B G ] S.{.l.P m A %.%.%.%.%.#.A #.%.#.Z ",
"%.%.#.%.@X8.A Z A A %.@X8.8.8.6.S 8.S Z A A #.5 j.-X,X{.f./ %.$X$X@X#.A N 5 M.7XqX Xw R Z %.A A A %.%.@X8.6.8.S 6.%.A Z Z ..Q M.x._ E B A @X$X$X$X@X#.Z #.%.%.%.",
"#.%.#X$X#X@X6.#.%.%.%.#X#X$X$X$X#X#XS Z 8.#X#XW ] C.`.b.I X.%.#X#X#X#X%...4 k.*X,XD.w W %.@X%.A %.#.%.@X#X$X$X$X$X@XZ M V &.&./ ~ X.&.#X@X@X#X#X#X#X@X%.%.#X%.A ",
"#.#.#X#X#X#X#X#X@X8.6.#X$X$X$X$X#X#X#X#X#X$X$X6.+.] g. .X.A A @X%.8.#X#Xo.4 k.{.=XC.w W A $X#X@X#X%.%.#X$X$X$X#X#X$XO.R Q *.$Xo.o.6.$X$X#X8.8.#X%.@X$X@X%.@X%.A ",
"A #.#.%.#X$X$X$X#X#X#X#X$X#X8.8.#X$X$X$X$X$X$X$X&.W P W %.#...Z Z A #X$X$.5 j.}.=XC.w Y A $X$X$X#X$X@X#X$X$X8.8.8.%.-.F.l.;.&.#X#X$X$X$X#X8.6.6.A #.#X$X$X%.%.A ",
"A A #.%.%.#X%.8.8.6.6.6.6.8.#X#X#X#X#X6.6.8.@X#X&.%.$.&.&.Q K Y V A #X$X$.F j.[.=Xn.w W A @X@X8.%.%.%.%.%.8.#X$X&.Y Y.4X6XA.I O.@X$X$X$X#X6.#.6.Z #.&.$X$X%.A V ",
"Z Z #.%.8.#.#.#.S S A S S A 8.#X#X#X8.9.6.6.6.%.@X#X#X&.@. .k.} W o.#X$X&.Y [ V.`.x.) O.A A S A A A A A A A 6.#XO.5 T.0XqX~.0 Y #.#X$X$X$X#X#X#X%.%.#X$X$X#.Z V ",
"Z A %.@X6.A A S A S S A S A Z 8.@X@X#X$X$X8.6.A 6.#X6.X.) S.{.V.{ E #X$X@XZ ! ] j.] V #.%.A A A A S A S S S S S O.5 N.7X9XD.q G A #X$X$X$X$X$X$X$X#X$X$X#XA Z Z ",
"Z A #.8.8.6.A S A A S A 6.8.S @X#X#X$X$X$X#X8.#X$X$X6.~ h.&X,X].] D #.#X$X8.O.W U W #.%.@XS A A A A S A S 8.S @Xo.5 x.=X7XV.0 X.8.$X$X$X#X#X#X#X6.S 6.#X$X#X6.%.",
"A A 6.@X#X@X6.S 6.8.8.6.8.#X#X$X$X@X$X$X$X#X#X$X$X$X$.Q j.|.7X}.' 4 Z @X$X#X8.#.V o.#.@X#X@XA A S 8.8.S @X@X#X$X$.5 l.|.=Xn.q X.#X$X$X#X8.8.#X#XS Z A 8.$X@X8.%.",
"%.#.6.$X$X$X8.6.@X#X$X$X#X#X$X$X$X@X$X$X8.@X$X8.9.$Xo.Q j.`..X_.` D Z #X$X%.6.#X$X%.#.$X$X$X@X8.@X$X$X$X#X#X$X$X$.L j.}.}.b.q W 6.$X$X#X#.@X$X$XS Z A #X$XA #.#.",
"Z A %.@X$X$X$X@X6.6.#X$X@X8.$X#X#X#X$X$X#X$X$X#X$X$X$.! p.n.'.n.` G 9.$X$X%.6.#X%.%.A @X$X$X$X@XA 8.#X$X#X6.$X#X..K j._.'.c.0 W 8.$X$X#X8.$X$X$X#X8.#X$X$X8.A A ",
"Z A %.%.#X$X$X#XS S 8.$X@X8.$X8.6.#X#X6.$X$X$X#X#X#X6.+._ z.b.j.) X.$X$X#X#X%.#...o.8.8.#X$X$X#X#.A 8.$X#X8.$X8.o.! [ v.n.k.I O.8.#X#X7.O.#X$X#X$X$X$X$X#X@X6.#.",
"#.%.#X$X$X$X#X#X$X@X8.$X#X#X#X#X$X#X6.S 6.$X$X6.6.8.#X6.O.` w U X.%.&.8.@X#XO.R K ^ 9.#X$X$X#X#X$X@X@X#X#X8.#X$X#X6.~ q f.} $.#.6.6.o.R L *.#X#X8.8.#X8.@X#X@X6.",
"#.%.#X#X$X$X#X#X$X$X#X8.#X#X#X$X$X6.S S 6.6.8.6.6.8.6.o.W  .k.} X.%.#X$X8.o.=.m.N.;.+.$.@X$X#X#X$X$X#X#X#X#X#X$X$X6...J K W 6.#.o.E } m.N.0.+.6.8.#X#X#X#X$X@X6.",
"A %.#X6.8.$X#X#X#X$X#X6.8.#X#X$X$X8.6.6.6.6.6.S 6.6.6.W ) A.S.M.| ..#X$X%.Y  .D.*XB.L N S $X#X#X#X$X#X8.8.#X#X$X#X6.Z V B Z #.6.V G k.].;Xk.I $.@X$X@X@X$X$X@X%.",
"%.%.6.A 6.8.8.#X#X6.S S S 6.#X$X$X#X#X8.8.#X#Xo.o.6.#./ j.*X,X{.[ H #X@XZ T  .S.&XB.L m Z @X8.@X#X6.A S A 6.#X$X$X$X9.%.%.#X$X$XO.R k.{.&Xl.) &.%.%.o.o.6.#X8.6.",
"#.%.#X6.6.6.6.8.8.6.6.8.S S #X#X$X$X$X#X@X%.7./ | X.o.| j.}.>X[.' F 9.6.Z V / m.l.;.+.o.A 6.6.8.8.6.S 8.A A #X$X$X$X#X#X8.#X$X$X#XO.-.k.l.| *.#XO.^ ) X.A 6.6.%.",
"A 8.#X#X8.8.8.6.6.6.8.#XS S 8.$X$X#X#X#X%.o.+.H.m.| ^ I s.Z.}._.` G 6.O...V o.W P X.$X#X8.6.8.6.6.6.8.@X6.6.8.#X$X#X$X#X8.6.9.$X$X$X#.R K O.%.&.=.k.J.;...Z #.6.",
"6.8.#X#X$X$X#X#X#X6.S S Z 6.$X#X@X@X#X$X%.W ] 4X6X/.] 8 s.n.'.n.] E 9./ L E #.&.&.&.@X$X$X$X#X#X#X6.S S S S $X#X#X#X#X$X$X$X#X#X#X#X8.#.$.$X$.H T.5X6XT.I ..6.6.",
"#.8.#X$X$X$X#X#X$X#X8.6.8.#X$X$X#X%.@X$X%.U g.6XqX4Xw 1 ( z.n.l.~ W -.m.B. .*.#X@X@X#X$X#X$X#X$X$X#X8.8.8.@X$X$X#X6.#X#X#X#X6.....#.8.@X@X#X..5 Q.0XqX!.0 X.6.6.",
"#.%.$X#X#X#X#X#X$X$X$X$X$X$X$X$X#X#.%.%.Z K f.3X9X1X' 4 T [ ' U m T ] S.;XV.} ..%.#X#X#X@X@X#X$X$X$X$X$X$X$X$X$X#X#.6.@X#.#...U P ..6.6.#.6.E 6 V.7X9XV.q ..6.6.",
"%.%.8.#X#X$X#X8.9.$X$X$X$X$X#X#X8.8.%.A V K a.&X,X].` G 5.W Y b k * ( m.A.x.0 4 B A @X@X#X$X@X@X8.#X$X$X$X$X$X#X6.%.6.#.Z V ! M.l.} X.A 6.6.T 5 b.:X,XV.0 ..Z Z ",
"#.%.#X#X#X@X@X8.8.#X8.6.#X$X#X8.8.@X8.%.Z U a.].=X`.` G 6.S M k # O - 4 6 f 8 2 G B #.6.8.@X8.8.8.8.8.6.#X$X#X8.8.#X8.6.o.! k.&X*XB.I N #.%.E 5 b.-X:XV.0 ..A A ",
"A 8.$X#X@XA S @X#X8.6.S 8.$X#X#X#X$X#X@X6.~ a.`..X_.` D Z C n : : ; =   X - j 3.:.G N M B C S 8.#X#X6.6.8.$X#X#X#X$X$X6..._ b.:X7X[.q D Z A N 5 N.-X:Xb.0 ..A #.",
"#.8.#X@X%.Z A %.$X$X$X#X$X#X8.#X$X$X$X$X9.~ a.n.'.n.q G C z & : p a y t 3 u u.eX%X0.+ o % x V 8.$X$X#X#X$X#X8.#X$X$X$X#Xo.) c.*X=XZ.0 c Z A ..5 x.|.*Xv.( X.A %.",
"#.6.#X#X8.8.A %.$X$X$X#X#X#X#X$X$X$X$X#X6.X._ c.n.z.) m l % ; , s ,.<.l.v.F.I.OXeXR.U y : % b A $X$X$X#X$X#X#X#X$X$X$X$X6.R [ C.C.l.~ ..6.@X..5 z.}.*Xv.( ..#.#.",
"#.%.$X$X$X$X$X$X$X#X8.6.#X$X$X$X$X#X#X#X@XA W ] ' { O.n + : , >.s g h.D.2Xb.F.4.oXeX%XoX>.; & M #X#X8.6.@X$X$X$X$X#X#X#X9.o.R g.g.~ $.#X$X$XO.6 x.}.=Xv.( ..Z #.",
"Z %.@X$X#X%.#X$X#X#X8.6.#X$X$X$X@X@X8.6.#X$X&.W H T N W 1.2.>.>.s j a.V.].B.h q.XXeXiXeXy.q.: z M 6.9.6.@X$X$X$X@X@X6.8.#X$X7.^ ^ $.#X$X$X$XO.6 b.}.|.b.w E V Z ",
"A %.@X$X#X%.@X#X#X#X6.6.8.$X#X@X8.@X8.8.#X$X@X#.M x c 1.Q.P.e.a a s h G.z.K.2.e.i.pXfXpX+Xt.p : & N S 6.8.#X#X@X8.@X8.8.$X$X@XC Z @X$X$X$X@X..L z.'.'.c.( E Z Z ",
"#.@X$X$X#X%.%.#X$X8.S 6.6.6.6.6.8.#X$X$X#XA A #XZ x 4 <.~.P.,.w.a e.q.j f j 2.XXeXfXjXdXtX+Xy.q.: & n C %.6.#.%.%.#X#X$X#X#.Z o.$.%.$X$X$X8.Z R ' c.b.g.Y $.#.%.",
"#.%.#X#X#X%.8.#X@X@X8.6.8.#X#X8.#X#X#X8.8.#X@X#XZ & @ 9 j.F.s q.e.e.t.r.r.f F.!.uXgXjXkXhXtX+Xt.s : % n %.#X%.@X@X#X@X8.@X%.O.} ) X.&.$X$X@X%.#./ _ ` I o.#X8.%.",
"A #.8.#X8.#X$X#X8.$X#X6.#X$X#X#X#X#X8.6.#X$X#XS x O 6 ' z.<.g s e.e.y.y.3.H.n. X8XfXkXzXxXhXrXi.e.> O x A $X$X#X#X#X9.#.%.$.-.N.x.} @.%.$X#X@X$XO.Y P ..A $X@X#.",
"A #.8.8.#X$X$X$X$X$X$X$X6.8.$X#X#X$X#X9.#X8.A l O < g.Z.;XV.a.u e.w.y.h F.5X5X XQ.uXkXcXcXxXhXwXe.; + M Z %.$X#X#X$X#X%.o.~ k.&X;XV.) E $X$X#X$X8.$.o.6.#X$X6.Z ",
"A A 6.#.8.#X#X#X$X$X#X#X8.8.$X$X#X$X#X#X#XZ v % @ t F.Z.{.`.b.j a q.r.f j.3X3X~.I.yXkXvXbXvXxXhXwXw.: % b Z #X$X$X$X$X@X#.^ ] D.S.x.Q V %...E 8.$X#X6.#X$X$X%.B ",
"A A A A 6.8.8.@X$X$X#X%.8.#X#X#X#X#X#X@X8.M + : p r.4.H.b.[. XP.e.q.s f j.:X:XZ.h.eXzXcXbXbXcXlXsXwX>.+ & M #X$X$X#X@X@X#X&.^ k.k.} *.#...I I O.9.#X#X#X#X$X#.C ",
"%.#.A #.#.#.8.#X$X#X#X@X6.#X#X#X6.6.6.%.6.v . , >.r.2.h h ^.OX(.XX2.i t f.&X-XV.F.OXhXxXvXvXcXzXgXuXOX2.* v 8.@X6.6.#.8.$X$X9.! W &.@X*.) N.V. .W Z $X$X$X@X8.%.",
"%.%.#.#.#.#.8.@X8.@X@X@X#X8.8.#X8.@X#X8.S k   , s h h h r.y.oXeX/.E.u 8 p.{.{.b.e 3.wXhXlXxXkXgXaXiX5XP.4 c #.@X@X8.8.@X#X#X#Xo.$.%.#./ k.{.1Xl.K N #X$X%.%.%.6.",
"A %.%.O.o.$.6.@X8.8.8.@X#X#X8.#X$X#X$X#XC k . , y f e 3.y.w.r.XX/./.H.w s.).{.n.e u t.rXpXdXuXiX8X6X%X1.y v #.$X$X$X$X$X8.8.#X$X$X%.o./ k.S.{.x.I N &.%.#.%.%.A ",
"B A &.Q L P $.$X#X8.8.$X$X#X#X#X#X$X$X#XZ k   ; r f p.3.t.e.e.s 4./.(.G.s.n.n.c.p.j y.i.i.i.wXyX8X%X2.> % n 9.$X#X#X$X#X@X8.#X$X$X$X#X9.+.g.g./ O.@X#X@X@X$X%.Z ",
"Z ..+.m.N.m.| o.8.6.8.#X#X@X#X8.8.8.@X6.C &   > 6 h.z.J.3.q.q.j P././.H.d.j.c.j.f d r.e.r.r.OXuXfXpXwXw.% x 6.8.6.@X@X6.6.8.@X#X8.6.8.6.Z ! ! o.@X$X8.%.%.$X@X%.",
"Z T ( S.;XS.( G Z #.6.@X8.6.8.6.6.6.6.Z B k O < ' S.&XZ.h u s XX^.E.3.,.j a.p.h s q.q.q.d I.5XfXjXjXtX*.& z A 6.6.6.6.A 6.6.8.6.S S Z Z Z 5.6.#X$X@X#.Z #.%.%.%.",
"Z m P V.].V.Q N 6.6.6.8.#X$X$X$X#X#X6.Z #.Z c 2 g.;X<X].p.d.P.I.P.2., a s u <.H.E.r., , s ^.6XuXtXsXtX,.& x #X$X#X#X6.Z 8.#X$X#X#X8.#X#X#X8.9.#X#X#X#X%.%.#X%.A ",
"Z V X. .k. .O.#.9.8.8.@X$X$X$X#X#X$X@X@X#X8.o.4 j.-X<XS.s.G.I.L.>.i , p a p 2.W./.E.>.p 4.(.6XeXu.i.i.:.& b 8.$X$X#X#X#X#X$X$X$X#X#X$X$X#X6.6.8.6.8.#X#X%.@X%.A ",
"6.6.Z m c G O.&.#X#X#X@X$X$X8.8.@X$X$X$X$X%.m 5 h.|.:XS.p.G.K.j > > t y p p ,.E././.E.P./.4X%XL., s g u 4 n 6.#X#X#X$X$X$X$X$X$X$X$X$X$X8.E E Z Z S #X$X$X%.%.#.",
"Z o.S 6...F _ =.o.6.6.6.6.8.#X#X#X#X8.%.Z x + 2 h.Z.1Xn.p.f s , y t e t p p a 2.4./.4X4X6X6X(.P.d L.I.<.4 v 8.$X#X8.6.6.6.6.8.#X$X$X$X9.O.{ _ E V A 8.$X$X%.Z V ",
"Z A 6.o.@.;.Q.m.^ V Z S A A 8.#X#X#X8.%.A x # 4 ( l.Z.n.p.t , - g j.b.g.t p p ,.4.W././.!.^.W.P.P.W.I.<.y z 6.$X6.M M V 6...E Z 8.$X9.O.-.T.Q.} X.Z #X$X$X#.N x ",
"Z Z Z G } (.0X4X` G B #.A S Z 6.#X8.#X$X#X#.V V E I j.U.I.j i < f.S.;XV.e r s 4.^.L.:.s s u 1.I.^.L.d > + z C 6.Z % & M o./ ( T o.#Xo.~ J.6XyX!.) N %.$X#XA Y 5 ",
"m ..o.c k.2XqX6Xf.H M Z 6.6.6.#X$X#X#X$X$X#X8.#XZ c e G.U.j r < f.-X<XZ.e - u I.(.L.i , , :.3.P.K.u : O x B 6.#X6.n z D  .M.V. .@.6...{ b.0XqXZ.q 4 n %.&...-.T.",
"5 R o.4 k.2X9X;Xj.U V 6.6.#X#X#X%.8.#X$X$X#X#X$X#.b y <.I.j r < j.&X<XD.p.r j I.^.F.> ; y 4.I.F.y ; + z C 6.@X$X#XS n H k.D.;Xx.| $.Z } B.7X9XD.7 X $ C &.Y T.6X",
"7 I V G k.|.,X{.f.~ 6.$X#X9.$X6.E o.#X$X%.#X#X8.#.o.c y h i r < f.{.:XC.p.e h L.3.j > ; d I.^.<.  o x 6.@X@X$X$X$X8.#.+.k.S.&Xk./ 7.Z | v.:X:XC.8 @ k A *.8 ~.qX",
"7 I V G ] Z.|.Z.w Y #.$X#X6.9.=.} ! #.8.%.#X$X%.%.#Xo.c @ ; - 3 j.`.-Xn.s.d.K.j r > ; = u K.K.u o k Z $X@X8.$X@X%.#X#X&.@. .k.=.*.#X..{ b.-X,XZ.` c #.@XO.8 V.7X",
"7 I o.V | l.C.x.) E A $X6.o.@.m.b. .Q N N #.$XO.O.&.@XV $ o . t j.`.-XC.s.d.h p ; = ; = > g h u z B 8.$X@X8.$X@X8.#X#X8.%.W H o.@X#XV ) v.*X:XZ.] E $X$XO.6 b.-X",
"0 I #.#X$.I ' } *.%.8.#Xo.R g.D.:XS.w 2 + M #X{ L R &.@XC $ O 3 j.`.|.b.p.t r > ; > ; . - t u R 6.8.8.#X@X@X#X$X$X#X#.Z #.#X&.#.#.6.V ) c.|.*Xn._ T %.%.O.6 v.|.",
"K X.@X@X&.O.! +.#X$X$X9.Z U j.|.,X|.f.< # v | M.V.m./ ..S b z J _ x.Z.j.3 X = = = = = O & T E o.$X$X#X#X#X#X#X$X$X%.#.Z #.%.%.#.#.6.o.^ _ V.b.k.^ #.@X#X&.+. .b.",
"V 6.$X6.6.8.5.6.#X$X#X6.C ! h.[.:X[.g.4 n G ( S.*XS.) T #.A A %.O.} k.8 @ O o O O O O z M 6.6.8.#X$X#X6.6.6.6.6.8.#.#.#.6.#.6.6.6.8.8.o.W [ [ / &.$X$X$X#X@X+.] ",
"6.6.6.Z 6.8.8.8.#X%.A S Z E Q l.n.l.| o.6...{ V.D.N.@.o.#X$X#X$X#X*.H * $ k k & k & & M Z 6.8.8.#X6.S S V n z & n o.6.8.@X#X$X$X#X#X#X$X#XW W $.#X$X$X%.%.#XX.G ",
"6.6.8.6.6.6.8.8.6.6.6.8.Z Z ..} [ { *.@X8.6.+.;. .} *.6.@X#X#X%.A V V N M M B Z V V C S 6.6.8.8.6.6.6.8.B $ O   % V 6.#X8.8.#X$X$X$X$X#X8.o.#.#X&.%.@XZ V %.A Z ",
"Z 9.#X#X8.6.8.8.6.6.8.@X6.6.8.W Y ..6.#X8.8.8...G G O.9.%.%.#.N b M %.#XS S 8.$X#X#X$X@X8.8.8.6.6.6.8.9.B x % O k V #X#X8.8.@X$X$X$X$X#X%.9.#X#X%.#.#.E E V A %.",
"6.8.#X$X$X#X6.6.6.6.A #.Z 6.$X9.#.6.#X$X$X$X$X#.X.K _ | @X$Xo.k # v #X$X$X@X#X$X$X#X#X$X$X$X#X#X#X6.S S Z Z 6.6.6.6.#X$X$X$X$X#X@X#X#X#X$X$X$X$X$X@XO.) ] ..o.%.",
"6.8.#X$X8.Z n v v B #.6.6.#X$X$X#X6.#X#X#X#X%.o.@.Y.Q.T./ Y x % k M @X$X$X#X#X$X#X#X#X$X$X#X#X$X$X#X8.6.9.#X$X$X$X6.8.$X#X#X8.#X#X#X#X#X$X#X$X$X&.@.;.V.V. .^ V ",
"#.8.$X#XS n O   O n 8.$X$X$X$X$X#X%.6.@X6.%.o.G  .4X8X%X9 @ O z B S A #X$X@X#X$X#X#X#X#X#X#X#X#X$X$X$X$X$X$X$X$X#X6.6.@X6.6.6.$X#X8.#.A Z A %.%.M K l.&X-Xx.I c ",
"#.%.8.@X6.V k # & B 8.$X$X$X#X@X8.8.6.A #.8.&.F l.8XqX1Xw 2 & M Z S 8.@X#X#X#X#X#X#X@X#X#X#X#X8.@X#X$X$X$X$X$X#X6.6.6.6.6.6.#X$X#XA B x x V %.A V Y  .Z.]. .H M ",
"#.%.@X#X8.A M M B Z 6.6.#X$X#X6.Z 6.8.6.8.#X6.K k.2X9X{.a.5 n Z Z A @X@X8.@X@X@X#X#X@X#X$X@X8.8.8.@X8.8.#X$X#X8.8.@X8.6.8.#X$X$X#XZ n $ # x B Z V ..^  .k./ ..Z ",
"A %.$X#X%.#.6.8.9.#X6.S 8.$X#X..E O.9.#X$X$X9.F g.|.:X`.w Y Z A A #.#X#X@X@X#X#X@X#X#X$X8.A 6.@X#X8.6.S 8.$X#X#X#X$X#X#X$X$X#X$X#X6.M k + # l B C #.%.W G $.%.A ",
"#.8.#X@X6.A Z 6.$X$X#X#X$X8.5.| ] ^ 7.$X$X$X9.F g.`.=XZ.w Y Z %.8.8.8.@X#X#X$X#X#X#X#X@XA A Z %.$X$X$X#X#X#X#X#X$X$X$X$X$X$X#X$X$X@XS B b + # n #.8.%.#.#.#X%.%.",
"#.8.$X@X8.6.6.@X$X$X$X#X9.7./ T.~.Y.-.6.#X@X$.F h._.}.n.a.R A #X#X#X#X9.@X$X$X$X#X#X#X#X@X8.A 8.$X$X$X#X#X#X#X#X$X$X$X$X$X@X8.#X$X$X@X6.Z v x V 8.#X#X#X#X$X#X%.",
"A %.$X$X$X$X$X$X#X#X8.6.Z ^ [ 4XiX4X .G 6.8.o.F h.Z._.n.w ^ 8.$X$X$X$X#X8.#X#X#X#X#X$X$X$X$X$X$X$X#X8.6.#X#X$X$X$X#X#X#X#X6.#.#X#X$X$X$X#X@X8.#X$X$X$X@X@X%.#.Z ",
"A #.@X$X#X8.#X#X#X#X8.6.V ^ j.1XqX2Xk.D 9.$X@X..I j.v.k./ O.@X$X$X#X8.#X#X6.%.%.8.@X@X$X#X6.#X$X#X#X8.6.#X$X$X#X@X@X%.8.$X$X#X%.8.$X$X$X$X#X#X$X$X#X%.#X#X%.M l ",
"A %.#X$X@X%.@X#X$X@X6.6.V ! j.*X9X.Xk.D 9.$X#X6.X.L w ) &.%.@X$X$X#X8.$X#X8.8.8.@X@X#X$X@X%.@X#X#X#X6.6.8.#X$X#X8.@X8.@X#X$X#X%.@X$X$X$X$X#X@X$X$X9.%.$X$X%.n $ ",
"#.@X$X$X#X8.%.#X$X8.6.6.B ! a.].:X`.[ J 7.6.A #Xo.c @ J #X%.%.@X#X$X$X$X$X#X$X$X$X$X$X$X#X@X6.@X$X8.6.6.8.6.6.6.%.#X$X$X#XA #.#X$X@X$X$X$X8.6.#X$X$X$X$X$X#XV b ",
"A %.#X#X@X8.@X#X@X#X%.#.V ! f.Z.=X`.g.D #.#X#X#XV % o x 8.8.8.#X$X$X#X%.%.$X$X$X#X#X#X#X@X8.@X@X#X#X6.S @X#X@X%.#X#X@X8.8.#X#X#X8.8.#X$X$X8.8.#X$X$X#X8.%.$X%.Z ",
"A #.@X@X@X#X#X#X8.#X#X6.Z ! f._..X).g.D &.$X$X@XM %   z #X#X#X#X$X#X@X#.%.$X$X$X8.8.@X@X@X@X$X#X8.#X$X6.@X$X$X#X#X#X8.%.@X#X$X8.6.8.#X$X$X#X#X$X$X#X@XA A $X#X%.",
"A #.%.%.@X$X$X$X$X$X$X$XZ H ' n._.n.[ J 7.@X6.6.M $ o x #X$X#X$X#X@X%.@X#X$X@X8.#X8.8.8.#X$X$X$X$X$X$X$X8.6.$X#X@X$X$X#X#X@X@XA 6.@X8.#X$X$X#X$X#X@X@X@X#X$X%.Z ",
"Z #.%.%.8.$X#X#X$X$X$X@X#...~ j.c.h.{ o.#X#X6.n $ % x N 8.8.8.$X$X$X@X@X$X$X%.#.#X8.#.#.8.#X#X#X$X$X#X#X6.8.$X$X$X$X#X#X$X@X8.#.@X#X8.6.8.8.@X$X$X#X@X@X$X$XA C ",
"A A A A %.@X8.#X$X$X#X%.@X%.O.} w U X.#X$X$X6.k # z C %.6.6.@X#X$X$X@X#X$X$X@X6.#X8.#.#.6.8.8.#X$X$X#X%.8.@X$X$X#X#X#X#X$X$X@X8.@X#X@X6.6.6.8.#X$X$X#X#X$X$X%.V ",
"%.#.A A A A %.#X#X$X#X%.%.@X9...G N 5.6.$X$X8.n v B 8.$X@X#X$X8.%.%.$X$X$X#X#X$X$X6.A #.S 6.8.#X#X$X#X@X8.@X#X@X6.6.6.9.$X$X#X#X#X$X$X$X#X$X$X@X#.%.$X$X$X@X%.A ",
"Z Z Z A %.A %.%.%.A %.#.%.%.%.Z V #.6.6.8.8.6.Z V Z 8.8.8.@X8.6.Z Z 8.%.A A 6.@X8.#.Z #.6.#.6.6.S A A %.%.%.%.6.6.#.6.6.8.8.8.8.8.8.@X@X6.8.8.6.Z Z %.%.A A A A ",
"B Z A A %.%.A Z Z Z Z A #.A Z #.6.6.6.6.Z Z #.6.%.A A A A S S 6.Z Z A Z B C A #.A A A A #.6.#.Z A Z A A A A Z #.6.%.%.6.Z Z A 8.6.A A A #.#.6.6.Z Z #.Z B C B B "
};
