/* XPM */
static char *Group_10_34__resized[] = {
/* columns rows colors chars-per-pixel */
"80 80 239 2 ",
"   c #0F1216",
".  c #1D1A1A",
"X  c #251B19",
"o  c #231C1C",
"O  c #361B18",
"+  c #1F2418",
"@  c #24231A",
"#  c #292618",
"$  c #252919",
"%  c #2A2C1B",
"&  c #372B19",
"*  c #273A17",
"=  c #2C351C",
"-  c #373218",
";  c #1A1725",
":  c #261D22",
">  c #2B1D22",
",  c #2C2324",
"<  c #2C252D",
"1  c #322325",
"2  c #392927",
"3  c #33262B",
"4  c #35292C",
"5  c #3C2D2E",
"6  c #3D322D",
"7  c #2E2533",
"8  c #352A36",
"9  c #3C2E33",
"0  c #3E313A",
"q  c #4A1F1D",
"w  c #492418",
"e  c #44391D",
"r  c #5C3614",
"t  c #693512",
"y  c #693815",
"u  c #72381B",
"i  c #482A26",
"p  c #402E2E",
"a  c #502E2F",
"s  c #42322E",
"d  c #4B3528",
"f  c #543729",
"g  c #5B332C",
"h  c #432D32",
"j  c #433231",
"k  c #4A3632",
"l  c #483936",
"z  c #4C3A3B",
"x  c #503433",
"c  c #543D35",
"v  c #5A3C32",
"b  c #523E3B",
"n  c #673928",
"m  c #743F2A",
"M  c #6C3F30",
"N  c #2B4516",
"B  c #284616",
"V  c #2C4419",
"C  c #2E4C19",
"Z  c #3C4C16",
"A  c #344718",
"S  c #324D1A",
"D  c #2F5216",
"F  c #395217",
"G  c #33541A",
"H  c #3C551A",
"J  c #355C1B",
"K  c #3E5C1A",
"L  c #37631B",
"P  c #3A651C",
"I  c #3D6D1D",
"U  c #3F711F",
"Y  c #3F7220",
"T  c #4B400D",
"R  c #444B16",
"E  c #4A4916",
"W  c #594915",
"Q  c #445318",
"!  c #495418",
"~  c #435B1A",
"^  c #4B5C1A",
"/  c #585517",
"(  c #555418",
")  c #5B5418",
"_  c #525C1A",
"`  c #5C5A19",
"'  c #6C420F",
"]  c #684515",
"[  c #634C16",
"{  c #6B4C16",
"}  c #784617",
"|  c #734D16",
" . c #645317",
".. c #6C5317",
"X. c #645718",
"o. c #695618",
"O. c #645B19",
"+. c #6C5918",
"@. c #725216",
"#. c #7B5415",
"$. c #735B18",
"%. c #7B5C19",
"&. c #43631C",
"*. c #4B621B",
"=. c #436B1D",
"-. c #4A6B1D",
";. c #56641B",
":. c #536C1D",
">. c #41741F",
",. c #4A711F",
"<. c #43781F",
"1. c #51721F",
"2. c #67631A",
"3. c #4A4F20",
"4. c #554425",
"5. c #56423C",
"6. c #5C4539",
"7. c #684928",
"8. c #784829",
"9. c #765426",
"0. c #644636",
"q. c #734532",
"w. c #7C4C32",
"e. c #6C533D",
"r. c #775438",
"t. c #596320",
"y. c #427620",
"u. c #497620",
"i. c #457C21",
"p. c #497C21",
"a. c #507A21",
"s. c #6F642B",
"d. c #4B3B43",
"f. c #4E4046",
"g. c #5C4A47",
"h. c #624E46",
"j. c #64524D",
"k. c #685648",
"l. c #6A554D",
"z. c #755C48",
"x. c #6B5650",
"c. c #79654C",
"v. c #7C714C",
"b. c #7B6558",
"n. c #786868",
"m. c #96520C",
"M. c #894819",
"N. c #885817",
"B. c #975818",
"V. c #A45D13",
"C. c #8B6318",
"Z. c #986517",
"A. c #936418",
"S. c #9D6418",
"D. c #B06709",
"F. c #A66214",
"G. c #A36418",
"H. c #AB6518",
"J. c #A46A19",
"K. c #AC6B19",
"L. c #B66916",
"P. c #B36C19",
"I. c #AE7119",
"U. c #B57219",
"Y. c #BC771A",
"T. c #8F4623",
"R. c #844A32",
"E. c #865734",
"W. c #8B5634",
"Q. c #935B34",
"!. c #995D32",
"~. c #8C6538",
"^. c #966737",
"/. c #9B6A34",
"(. c #9A713A",
"). c #B46328",
"_. c #A36A35",
"`. c #B76B35",
"'. c #A87537",
"]. c #B57A36",
"[. c #C47014",
"{. c #C2741A",
"}. c #C47D1A",
"|. c #CA7B1A",
" X c #CA722F",
".X c #C27136",
"XX c #816342",
"oX c #8C764D",
"OX c #967548",
"+X c #A37B41",
"@X c #857165",
"#X c #478022",
"$X c #498423",
"%X c #4C8A24",
"&X c #528E2C",
"*X c #598B32",
"=X c #698B3E",
"-X c #B98437",
";X c #B68A3C",
":X c #CC8518",
">X c #D6881C",
",X c #D7901C",
"<X c #E29D1D",
"1X c #C48535",
"2X c #CA8836",
"3X c #D0923A",
"4X c #E29735",
"5X c #E2A23C",
"6X c #918453",
"7X c #A88747",
"8X c #B58A45",
"9X c #B99549",
"0X c #A89458",
"qX c #AAA05D",
"wX c #938268",
"eX c #A39362",
"rX c #B6AB69",
"tX c #B5AC6C",
"yX c #C69945",
"uX c #D5A646",
"iX c #C3A45B",
"pX c #D6B150",
"aX c #E3B950",
"sX c #CDB768",
"dX c #EAC659",
"fX c #D3C970",
"gX c #E9CF63",
"hX c #FAE677",
"jX c #DBD68C",
"kX c #D2D39E",
"lX c #F4F18F",
"zX c #EBE99A",
"xX c #E4E3A3",
"cX c #FFFDA8",
"vX c #F8F8B8",
"bX c #FAFACD",
"nX c #FDFDDB",
"mX c #FFFFEB",
"MX c #FFFFF7",
/* pixels */
"D L >.I U U U U <.I U U <.<.>.U U U i.<.U I U i.i.<.<.>.Y I I I Y y.y.Y U i.y.I L I U I I >.U U >.U I U y.y.<.U U <.<.>.I I U <.y.>.<.y.U I I I U y.y.U U <.I J ",
"P I U >.y.y.U U U U U <.<.<.<.U U y.U U I U y.y.U U U U I y.i.i.i.i.y.I U i.#Xy.y.y.>.U >.>.U U U U >.<.y.y.<.U U <.U U U U >.<.>.U U U U y.i.i.i.y.>.U U i.>.I ",
"<.<.>.<.#Xi.U I U U <.#X#Xy.i.<.Y i.U U U <.i.y.Y Y U U y.$X%X%X$X$XY I U i.$X%X%X#Xy.i.#Xi.U U U <.<.#Xi.i.i.Y y.y.Y U U y.i.y.U U I >.y.$X%X%X%X#X>.U >.i.<.<.",
">.<.$X%X$X#Xy.>.<.<.<.$X$X%X%X%X$X#XY U i.$X%X$X#X#X#X$X$Xp.$X$X$X$X$Xy.y.#X$X#X$X$X$X$X$X#X<.>.<.>.<.#X$X%X%X%X%X#XY U i.$X%X%X$Xi.$X$X$Xi.#X$X$X$X#X<.<.$X<.U ",
">.>.$X$X$X$X$X$X#Xi.i.#X%X%X%X$X$X$X#X$X%X%X%X%X&X&X&X%X&Xi.i.i.i.i.$X$X#X#X#X$X$X#X#X#X$X%X$X#X$X<.i.#X%X%X%X$X$X$X$X#X%X%X%X%X%X$X%X%X$Xi.i.i.i.i.$X$Xi.#Xy.U ",
">.>.>.>.$X%X%X%X$X$X#X$X%X$X#Xi.#X%X%X%X%X%X%X$X*X=X*X&X$Xy.i.i.Y Y $X%X$Xi.$X%X$Xi.>.y.$X%X%X%X%X$X$X$X%X%Xi.i.$X%X%X%X%X%X%X%X%X%X%X%X$Xi.i.i.U >.$X%X$Xi.y.y.",
"I U >.i.i.i.i.i.i.y.y.y.y.i.$X$X$X$X#X<.<.#X#X<.t.@._ y.$Xi.y.y.I U i.%X%Xi.y.y.#Xy.y.i.i.i.i.i.i.<.Y y.y.i.$X$X$X$X#Xy.i.i.#X$X$X%X%X$X$Xi.>.<.I U p.%X%Xi.U P ",
"I I >.<.i.>.>.>.Y Y U Y Y U i.$X%X#Xi.i.<.U &._ #.B.#.` -.i.i.$Xy.i.$X%X%Xy.U >.i.y.>.i.i.y.U y.U U U Y U Y i.$X$X$Xi.i.y.y.i.Y i.%X%X%X$X$X$X$Xi.y.$X%X$Xy.I L ",
"I U <.#Xi.U U Y Y U U U Y U U y.#X#X$X%X%XU Q ' F.:XD.#.Q u.&X%X$X$X$X%X$XY Y i.y.y.y.i.i.U U U U Y Y Y Y Y Y y.$Xi.$X%X%X#XY U y.%X%X%X%X%X%X%X%X$X%X%X$XU I I ",
"I U >.i.i.Y U U U Y U U y.i.Y #X$X$X%X%X%X<.&.W V.:XF.@.~ >.$X$Xi.y.y.$X$X$X=.~ I y.>.i.i.y.U I U U Y U y.y.y.$X$X$X%X%X%X%X#X$X%X%X%X%X$X#X$X$Xi.Y y.$X%X$Xy.>.",
"U U <.#X$X$XY Y y.y.i.i.i.$X$X%X%X#X%X%X%X#X>.;.$.Z.%.` I <.$X$XY I I i.$Xu.`  ._ &.>.i.$X$Xy.U y.y.i.y.i.$X$X$X%X$X$X%X$X$X$X%X%X%X%X$Xi.i.$X$XY I I i.%X#Xi.<.",
"<.U Y %X%X%Xi.i.#X%X%X%X$X$X%X%X%X#X%X%X<.#X$X<.*.E *.>.>.#X%X%Xy.I U i.i.! N.H.N./ P $X%X%Xi.i.#X%X%X%X$X$X%X%X$X$X$X%Xi.#X$X#X#X%X&X$X>.#X%X%XY I U $X%X>.>.>.",
"U U U #X%X%X%X#Xy.y.$X%X#X#X%X#Xi.$X%X%X$X%X%X$X,.,.<.$Xp.p.$X%X$Xi.$Xi.*.} P.,XK.| Z <.%X%X%X#X>.y.$X%X#Xi.%X$Xy.$X$Xi.#X%X$X#X$X%X%X$X$X%X%X%X$Xi.$X%X$Xi.>.U ",
"I U <.<.$X%X%X$XY Y i.%X#Xi.$X#Xi.%X#Xi.%X%X%X$X$X%X%X$Xy.-.u.$X$X%X%Xy.^ | K.:XK.@.Q >.$X%X%X$X>.U #X%X$Xi.$X#Xi.$Xu.&.i.%X%X$X$X%X%X%X%X%X%X$X$X%X%X%X$X#Xi.U ",
">.<.$X%X%X%X$X$X%X#Xi.$X$Xi.$X%X%X$X>.I i.$X%X<.>.<.$X,.^ W ) u.i.i.$Xi.y.-.$.M.o.;.i.$X%X%X$X$X%X#Xi.%X#Xi.p.%X$Xi.( y ^ i.%Xy.y.i.$X$X$X%X$X$Xi.i.$Xi.#X$Xi.y.",
"U <.%X$X$X%X$X%X%X%X$X$X$X$X$X%X%Xy.>.U >.i.<.>.>.<.&.;.N.G.C.` -.y.$X$X%Xi.;.) ^ <.%X#X$X%X%X$X%X%X$X#X$X$X$X$X-.O.A.J.%.` =.U y.y.i.i.y.$X$X$X$X$X$X$X%X%X#X<.",
">.<.$X<.i.%X%X$X%X%X$Xy.i.$X$X%X%Xi.>.y.y.y.y.y.i.y.H ..P.>XU.{ ^ y.%X%X%X%X<.=.y.#X$Xy.i.%X$X$X$X%X$Xi.#X$X$X>.^ } P.>XH.{ H I i.i.i.i.y.i.$X%X%X%X%X$X$X%X$X<.",
"<.<.y.U >.i.i.#X$Xy.Y Y Y y.$X%X%X$X$Xi.i.$X%X%X$X$X~ X.H.|.I.[ *.i.%Xi.>.$X%X$X$X$Xy.Y y.i.i.$X$Xy.U Y U <.$X<.*.@.K.:XV.X.&.p.$X%X$X%X%X%X%X%X%X%X%Xi.y.$Xi.<.",
">.<.$X>.>.y.y.i.i.y.y.i.Y Y #X%X%X%X%X$Xi.i.$X%X%X$Xi.t...N.%.;.=.y.#Xy.>.y.$X%X$X#Xi.y.y.y.y.i.i.y.y.i.U U i.#X1.:.%.N.o.;.y.$X%X%X%X$X$X$X%X$Xi.i.#Xi.>.y.>.<.",
"U <.%X#Xi.i.i.i.y.y.i.$XY Y #X$X%X$X$X$Xi.i.#X%X%X%X%Xi.K R ^ $Xi.>.i.#Xi.U i.%X#X$X%X$Xi.y.i.y.y.y.y.$XU U #X%X%X#X^ W P y.p.%X%X%X%X$Xy.i.$X$X<.>.i.#Xi.>.>.<.",
"y.i.$X$X%X%X$X$X$Xy.Y Y I y.%X$X$X$X$X%X%X%X%X#X$X$X$X$X%Xp.p.%X%X%X%X%X$Xi.$X%X%X$X$X$X%X%X$X$X$Xy.U U U Y %X$X$X#Xu.i.p.%X%Xi.$X$X$X%X%X%X%X%X%X%X%X%X$Xi.i.<.",
">.i.$X%X%X$X$X$X%X$Xi.y.i.$X%X%X$Xy.$X$X%X$Xi.$X$X$X$Xi.y.&.,.$X%X$X#X%X%X$X$X%X%X$X$X%X$X$X$X%X%X$Xi.<.i.$X%X%X$Xy.i.$X$X$Xp.$X$X$X$Xi.$X$X$X%X%X$X$X%X%X$X<.<.",
">.<.%X$X#X$X$X$X%X%X%X%X%X%X%X%X$X>.y.#Xy.>.y.%X%Xi.i.=.! W ( y.<.>.>.$X%X$X$X%X$X$X%X$X$X$X$X%X%X&X%X%X%X%X%X%X$X>.i.#Xi.>.y.%X%Xi.#Xy.Y y.i.i.<.>.y.$X%X$X<.>.",
"<.<.i.$X$X%X$X#X#X$X%X%X%X%X$X$Xi.y.y.y.y.i.$X%X$XI K ` N.H.A.( &.>.i.#X#X$X$X$X$X$Xi.$X$X%X$Xi.i.$X%X%X%X%X%X#Xi.y.y.y.Y y.#X&X$XY y.i.i.y.y.y.>.>.i.$X$X$X<.>.",
">.<.#X$X%X#Xi.i.i.$Xi.y.$X%X$Xi.i.$Xi.y.<.$X$X%X$XI Z [ H.>XU.] R L y.U U >.>.I <.U U U #X$X#Xi.i.p.i.y.$X%X$Xi.i.$Xi.y.#X#X%X%X#XU y.y.y.y.U U U U #X$X<.#X<.U ",
"U i.$X%Xi.U y.#X$Xi.y.Y i.%X$X$X$X%X$X$X%X$X%X%X$X>.F [ J.:XP.t - N J J G K H G G G G L I U y.i.$Xi.i.y.i.%X$X$X$X%X$X$X%X%X%X%X$Xy.Y U Y Y U U U >.$X$X$X#X<.>.",
"U i.$X$X<.I U <.%X%X%X$X$X$Xi.$X%X%X%X%X%X%X$Xp.$X$X>.^ [ } u O X + $ - e d d = $ $ % = C P I y.%X$X%X$X%X$Xi.$X%X%X%X%X%X$X$X%X%X$X<.U U Y y.i.y.i.<.$X$X%X$X<.",
">.i.$X$X#X<.U <.%X%X%X$X%X$X$X%X%X%X$X%X%X<.=.^ u.$Xy.H - w O : ; , e 9.8.M 9.7.d s f 7.E S L i.&X%X$X$X%X$X$X$X%X%X%X%X%X$Xi.$X%X%Xi.<.y.i.$X$X$X$X#X#X$X$X<.>.",
"U <.%X%X%X%X$X%X%X$Xi.y.$X%X%X%X%X$X$X#Xi.=.Q W ` p.*.E O O 1 j 0 5.(.8X;Xz.+X;XXXXXOX].%.= J i.$X#Xi.y.#X%X%X%X%X$X$X$X$Xy.y.i.$X%X%X%X%X%X%X%X%X%X%X$Xi.i.<.>.",
"I <.#X%X$X<.%X%X$X$Xi.y.$X%X%X%X$Xi.i.y.=.` N.K.A.` e d v 7.9.^.(.'.8X8XOXz.OX9X8XiXiXyXXXs = D Y #Xi.y.$X%X%X%X$X#Xy.y.$Xi.P H =.%X%X%X%X$X%X%X%X%Xi.#X$Xy.U I ",
"U <.$X%X#X<.#X$X$X$Xy.y.i.%X$X#Xi.i.#Xy.K ..H.>XU.| i v E.'.1X1X3XuX8XoXb.x.z.oXiXsXsXeXoXg.6 = G U i.>.i.$X$X#X<.#Xi.i.i.1.` [ ` <.$X%X%X#X$X$Xi.<.<.$X%Xi.U I ",
">.#X%X%X$X<.<.$X%Xi.Y y.y.y.y.y.i.$X%X$XK  .B.:XU.8.a 0.(.3X4X-X2X9XOXx.g.x.d.j.iXaXsX@Xn.b.h.l = C I >.<.<.>.<.i.$X%X$X=.O.B.P.N.^ ,.%X%X<.<.i.-.&.,.%X%X$X<.<.",
"U #X$X$X$X<.#X#X#X$Xi.Y i.$X$Xi.$X$X$Xi.,.:.2.N.8.f j 6.(.3X.Xr.z.c.x.x.j.j.g.z.yXaXpX@X@X@Xb.h.s = B I i.$Xi.i.$X$X$X=.Q #.{.>XK.] &.#X%Xi.<.=.+.| _ =.i.%X$X<.",
"U U #X#X#X$X$X$X#X$X$Xy.$X%X$X$X$X$Xi.>.#X<.&.w q 9 0 6._.1X'.b l f.g.j.j.x.b.+XaXdXfXrXwX@Xb.x.g.6 = S I $X%X$X$X$Xi.I Q $.P.}.S.[ *.#X%Xi.-.O.Z.F.$.( P $X#X>.",
"U U #Xi.$X%X%X%X%X$X%X%Xy.i.%X$Xp.%X$X$X$XU G # O 9 8 6._.2X'.6.z d.g.h.x.z.+XuXgXlXlXfXqXb.l.l.x.6.6 $ C Y %X$X$X%X$X$Xp.;.[ } +.,.y.$X%X=.( M.:X,XP.{ K p.i.I ",
"U U U U i.$X$X$X%X%X%X#Xi.i.%X%X%X%X%Xi.I G = , 3 5 7 c (.2X'.b 8 l k.+X8X8X7XyXgXlXvXvXjXeXc.h.g.f.3   B Y %X%X%X%X$X$X%Xy.^ E *.#Xi.i.i.I ^ ..K.Y.B.` =.%XU L ",
"U U U U Y #X#X$X%X%X$X<.i.$X$X$X$X$X$X>.G * # 4 5 5 3 c /.1X'.6.z 5.Q.1X5XuX+XOXfXzXbXnXvXjXeXv.x.j.4.% G y.p.%X$X$Xi.$X%X$Xy.P Y $Xi.y.y.y.=.*.#.N.X.-.$X$XU I ",
"<.U U <.Y U #X#X%X$X$X$Xi.i.$X$Xy.y.i.I N % 3 6 9 4 f w./._./.^.~.^._.'.].+XXXc.tXzXnXMXmXnXkXtX0X8X0X=Xs.3.y.y.i.y.i.i.%X%X$Xp.$X%X&X$Xi.$X$Xy.! R =.$X%X$X#XU ",
"<.<.<.<.#X#Xi.#Xi.#X#X#X$Xi.$Xi.i.#X$Xy.B $ 1 5 j x w.Q.E.r.^.2X3X].^.r.0.e.g.k.qXjXbXMXMXmXvXfXaXpXpXsX6X4.J I i.i.$Xi.i.$X$X%X$X$X$X$X$X$X$X$XP K i.$Xy.i.y.i.",
"U <.#X$X$X$X#X#Xi.i.<.$X$X$Xi.$X%X$X%Xi.B $ , 5 v w.^.W.0.c ~.4X4X].e.z 8 0 z h.v.tXxXbXmXmXcXhXaXyXiXfXoX4.A I %X%X%X$Xi.i.$X%X%X$X$X$X$X$X$X%Xi.i.$Xi.Y y.Y U ",
"L U $X$X<.$X$X$X$Xi.i.%X%X$X%X$X$X%X%Xy.C + , k R._.W.v 3 f ~.2X].r.5.z z b b z k z.tXzXcXlXhXaX'.r.g.h.k % G I $X$X%X$Xi.i.i.$X%X$X%X%X$Xi.i.$X$X$X%X#X#X%X<.U ",
"I <.$X<.$Xi.i.<.i.i.i.$X$X#X$Xi.i.i.$XY B % d w.Q.Q.0.s < j 7.^._.^.e.5.x g v z 7 d.7XdXgXrX8X~.0.h 8 h 1 $ C I i.$Xi.i.i.y.P *.&.i.i.i.i.i.$X$X%X$Xi.<.<.%X#XU ",
"<.>.>.<.#Xi.>.U U y.i.i.i.y.i.Y y.y.y.L * - n _.Q.0.k 5 5 5 k v /.].^.0.g u n c 0 6.(.yX;Xz.e.g.6.b d.j 1 $ N L y.y.y.I =.&.( r ) =.I I Y $X%X$X%Xi.>.I U #X#X<.",
"U <.$X%X$X#X>.>.i.U y.#X$X%X%X%X$X#Xy.L * & f w.q.k 5 9 j 5 5 5 9.~.w.8.T.L.B.m w.Q._.!.0.5.v.eXsXqXoXl > $ G >.$X$XY P H +.S.U.N.( =.i.$Xi.$X$X$X$X$X<.>.#X<.U ",
"U y.#X#X$X%X$X#X#Xi.i.$X%X%X%X%X%X$X$XY D * 2 d s 5 5 6 j 5 5 5 j v n T.H.|.F.M._.]._.0.h b wXfXzXfX6X0 : # C I %X$X$Xy.Q #.{.>XK.W *.p.$Xp.i.i.i.i.%X$X#Xi.y.U ",
">.U y.y.#X%X%X%X$X$X$X#X%X$Xi.i.#X%X%X%XL B + . : 3 5 6 s j p 5 7 3 n B.[.{.M.T.{.2X'.z 8 5.6XsXfXtXv.6 : $ N I $X$X%Xp.~ $.K.}.S.) -.i.$Xi.i.y.U U $X%X$Xi.y.y.",
"I U >.i.#Xi.#Xi.i.y.y.y.y.i.$X$X$X$X#Xy.U L N + . 1 5 5 j s s h < j w.). XT.u M _..X'.5.l z h.k.k.6.5.4 , $ G y.$X$Xi.y.=.^  .| +.u.$X$X$Xy.y.i.I I i.%X%Xy.U P ",
"I I y.i.i.>.U >.Y Y Y Y Y Y i.$X$X#Xi.y.y.I C + O q i 5 5 h j p 4 j E..X XT.g a ^.]./.5.0 l j 5 3 3 1 , , * J i.$X$Xi.i.i.=.Z R *.$X%X%X$X$Xi.$Xi.i.$X%X%XU I L ",
"I I <.<.i.>.U U U U U U Y U U y.$Xi.$X%X%XI C # w u q i 3 h j 6 7 x R.`. X`.q.v Q._.Q.k 9 j s j 6 5 , # V J I Y $X#X$X%X$Xi.U I y.$X%X%X%X%X%X%X$X$X%X%X$XU I U ",
"I U <.<.i.>.U U I U >.U y.i.Y #X$X#X%X%X%XU A y B.P.V.u i 3 < 3 x q.W.W.W.W.E.Q..X`.W.6 < j j j 6 , # V L y.y.$X$X#X%X%X%X$Xi.#X$X%X%X%X$X$X$X$Xi.>.y.$X%X#Xy.>.",
"I >.<.$X$X$X>.>.y.i.i.y.i.#X%X%X%X$X%X%X%Xy.~ { P.,XL.M.q 1 1 5 M R.w.v l 6.R._..X`.E.k 5 5 s p 4 % V L y.$X$X$X%X$X$X%X$X$X$X%X%X%X%X$Xi.i.$X$XY I I i.%X#Xi.<.",
"<.>.<.$X%X%Xi.i.#X$X%X%X$X$X%X%X%X#X%X%Xi.y.,./ B.{.V.u O > i m R.R.v 4 : 4 4.R.W.W.R.q.g 2 3 % $ S y.$X$X#X%X%X%X#X%X%Xi.#X%Xi.$X%X%X#X>.$X%X%Xy.I y.$X%X<.>.>.",
"I >.<.$X$X<.i.<.Y y.$X%X#Xi.%X$Xi.%X%X$X$X%X$Xu.2.#.y & X # f R.M a 1 : , , 5 i 2 f M R.n % + + V J i.%X$X#X%X$Xi.$X%X%X$X%X%X#X$X%X&X%X$X%X%X%X$Xi.$X%X%Xy.>.U ",
"I U <.<.=.;.,.<.Y Y i.%X#Xi.%Xi.y.$X$Xi.$X%X%X$X&.R Z * B A 4.M i > . o X X o ;   : i n f V * B L I i.%X#Xi.%Xi.i.%X#Xi.%X%X%X$X$X$X$X%X%X%X%X%X$X$X&X%X$X#Xy.U ",
"U >.#X<.;.} W -.%X#Xi.$X$Xi.$X$X%X$Xy.I i.%X%Xy.y.>.y.i.y.=.H % X X . o X @ . . . o X % G y.y.y.$Xi.i.$X$X#X#X%X%X#Xy.I y.%X%Xy.y.i.$X$Xp.$X$Xp.i.i.p.i.#X$Xi.<.",
"U >.,.O.A.P.S.$.-.i.$X$X$X$X%X%X%Xi.y.=.y.y.i.y.Y y.i.p.i.i.U G & O # A J C C A C V C A P %X%X%X%X%X$X#X#X$X$X%X%Xi.Y Y y.i.i.y.Y i.p.y.H ~ &.$X$X$X$X$X%X%X#X<.",
"I I -.] F.,X{.N.E y.$Xi.i.#X#Xp.p.i.y.y.y.y.y.y.y.i.<.<.i.<.<.,.W y W *.#X<.<.>.I Y I P y.%X$X$X$X%X$Xi.i.$X%X%X%Xy.<.<.U >.y.y.y.i.y.*.) ] ` p.$X$X%X$X$X%X#X<.",
"P I =.E N.Y.G.$.&.=.Y Y Y U I ~ &.p.$Xi.y.$X%X$X%X%X%X%X%X#X,./ Z.U.Z.X.P <.$X$X$Xi.y.I Y i.i.#X$Xy.I y.U y.$X%X%X%X$X<.#X$X%X%X%Xp.~ +.J.P.A.( ,.$X%X<.<.#X#X<.",
"F &.i.&.X.#. ._ =.Y y.y.I ^ ) @.$.-.i.i.y.$X$X%X%X%X%X%X#X>.^ [ I.,XU...F =.$X%X$X$Xi.y.y.y.i.i.i.y.y.i.U U i.%X%X%X$X#Xi.i.$X%X%Xp.Q #.{.>XK.W ~ U #X<.<.U I L ",
"F =.$X$X&.R K I Y i.i.$XP ( N.P.J.) -.i.i.i.$X$X%X%X%X$X<.U *. .J.Y.J.+.Q I #X%X$X$X%X$Xi.i.i.y.y.y.i.i.y.>.#X%X%X$X$X%Xi.i.#X%X$Xp.~ $.U.Y.Z.( &.U #X#X<.I Q R ",
"Y y.#X%X$Xp.p.$X#Xy.>.=.Z ] P.,X:X} ( i.$X%X%X#X$X$X$X$X%X%X$Xa.o.{ ` 1.#X<.$X%X%X$X$X%X%X%X$X$X$Xy.Y Y I <.%X$X$X$X$X%X%X%X%X#X$X$Xu.:. .{ O.a.$X%X%X%X<.&.{ M.",
"y.i.#X%X%X$X%X$X$X#Xi.y.&.` A.P.J.{ *.y.$X$Xi.$X$X$X$X#X$X$X$X$X*.! ~ #X%X$X%X%X$X$X$X$X%X$X$X$X$X$Xi.i.i.$X%X%X$Xy.#X%X%X#X#X$X$X$X$Xy.K Q *.$X$X$X%X<.:.+.S.{.",
">.i.%X$X$X$X$X$X%X%X%X%X%Xp.) } { *.Y i.y.y.y.%X%Xi.i.>.>.y.<.<.>.I =.$X%X#X$X%X$X$X%X$X$X$X$X$X%X%X%X%X%X%X%X%X$X>.y.#Xy.y.y.%X$Xi.i.y.I I >.<.<.<.<.P ( B.}.<X",
">.<.i.#X$X%X$Xi.$X$X%X%X%X$X-.~ ~ >.y.y.y.i.$X%X$Xy.>.i.i.<.>.<.U U <.#X#X$X#X$X%X$Xi.$X$X$X$Xi.$X$X%X%X%X%X%X#Xi.y.y.y.y.y.$X%X$Xy.y.i.y.>.>.>.>.<.<.<.*. .G.[.",
"U <.#X$X$X$Xi.i.i.p.i.i.$X$Xi.I =.$Xy.y.<.$X%X%X#XU U y.i.Y Y Y I y.$X#Xi.#X#X$X$X$X#X$X$X$Xi.i.i.#X$Xy.$X%X$Xi.i.#Xi.y.#X#X%X%X#XU Y y.i.y.Y Y U U #X#X=.*.o.N.",
"U i.$X%X#XU y.i.$X$Xy.y.i.$X$X$X$X%X$X$X%X%X%X%X$X<.U U U U Y Y U >.$X#X#X#X$X$Xi.$X$X%X#XU Y #X$X#Xy.Y $X$X$X$X$X%X$X$X%X%X$X%X$Xy.Y U Y U Y Y U >.#X#X$X<.K T ",
"U #X$X#Xy.U U y.%X%X%X$X%X$Xi.$X%X%X%X%X%X%X$X$X%X$XU U U U i.i.i.i.i.i.$X$X%X%X$X$X$X$XY U I <.%X%X%X$X$X$Xi.$X%X%X%X%X%X%X$X%X%X$Xy.U U U y.i.<.#X#X#X$X$X<.=.",
">.<.$X$Xi.y.<.i.%X%X$X$X%X$X$X$X&X%X%X%X$X#X#X%X%X%X#Xi.U i.#X$X$X$X$X$X$X$X%X$X$X$X$X#Xi.i.U i.%X%X$X$X%X$X$X%X%X%X%X%X%X#Xi.$X%X%X#Xy.U i.$X$X$X$X#X#X#X$X#X<.",
"U #X$X%X%X%X%X%X$X$X<.<.$X%X%X%X%X#X$X$X#XY U #X$Xp.$X$X%X%X%X%X%X%X%X$Xi.#X$X$X$X$X%X%X%X%X%X%X%X$Xi.i.$X$X%X%X%X$X$X$X$Xy.>.$X$X%X%X%X%X%X%X%X%X%X%X$X#X#X<.U ",
"U U $X%X$Xi.$X$X$X$Xi.<.#X%X%X%X#Xi.i.i.$X%X%XU &.! -.#X%X%X%X%X%X$Xi.$X$Xi.<.<.i.#X#X%X$Xi.$X%X#X$Xi.y.i.&X%X$X#Xi.<.i.%X%X$X<.#X%X%X%X%X%X%X%X%X$X#X#X#X<.U I ",
"U U $X%X#X<.#X$X$X$X<.<.#X$X$X<.i.#Xi.i.$X$X<.-. .| O.1.p.<.#X%X$X$Xi.%X$Xi.i.i.$X#X$X%X#X<.#X$X$X#Xi.U #X$X%X#X#X#Xi.i.$X%X$X<.#X$X%X%X%X#X$X$X$X$X#X%X$X#XU I ",
"U #X%X%X$Xi.<.$X%X<.<.<.<.<.<.<.i.$X%X%X$XU K W A.}.S.$.&.U <.$X$X%X%X%X%X$X%X%X%X$X%X%X$Xi.<.#X%Xi.<.U y.i.y.Y <.$X%X%X$X>.>.$X$X$X%X%X%X#X<.$X$X$X%X%X%X#X#XU ",
"U <.$X$X#X<.$X#X#X#X<.>.<.%X<.#X#X$X$X<.#X>.^ ] H.,XL.N.~ =.i.$X%X%X$X<.<.%X%X%X$X#X$X$X$X<.#X$X$X#Xi.U #X$X<.#X#X$X#X<.$X$X$X$X#Xi.$X%X%Xi.i.$X%X%X$X<.#X%X#X#X",
"U <.#X#X#X#X%X$X<.%X$X<.#X%X%X$X$X$Xi.>.#Xi.=.X.B.Y.S.+.&.y.$X%X%X$X#XU <.%X%X%X#X#X#X$X#X#X$X$Xi.%X$Xy.$X%X%X$X$X$X#X<.i.%X$Xi.U i.$X%X%X$X$X%X%X$X$XU U %X#XU ",
"U <.<.#X$X%X%X%X%X%X%X%X<.<.$X<.i.$X$X$X$Xi.i.&./ ' ) -.%X$X$X%X$X#X<.#X$X%X#Xi.#X#X<.<.$X%X%X%X%X%X%X%X<.i.%X$X#X%X%X#X$Xi.i.U <.#X#X$X%X%X$X%X#X#X#X#X$X%XU U ",
"U U <.U <.%X$X%X%X%X%X#X<.<.=.! ^ $X%X$X$X$Xi.U &.^ ~ Y i.i.i.%X%X%X#X#X%X%X<.<.#X<.<.<.<.$X$X$X%X%X$X$X<.<.%X%X%X%X$X$X%X$Xi.>.i.$Xi.y.i.i.#X%X%X$X#X#X%X%XU L ",
"U U U U <.<.<.#X%X%X$X<.>.-.` { ..:.i.i.%X$X#Xi.i.i.i.y.y.y.i.$X%X%X#X$X$X%X<.<.$X<.<.>.<.#X<.#X%X%X$X<.#X#X%X%X$X$X#X$X%X%X#Xi.#X%X#Xy.y.y.#X$X%X%X$X$X%X%XU I ",
"<.U U <.<.U #X#X$X%X$X<.~ ) V.Y.I.{ ! >.%X%X$X$X$X$X%X%Xi.%X$X$X>.<.%X%X%X$X%X%X%X<.I <.U <.#X#X%X$X$X#X<.#X$X#Xy.y.y.i.%X%X%X#X#X%X%X%X#X%X$X#X<.<.%X%X%X#X<.U ",
"I I U U U U <.<.<.U U <.F W V.[.D.r Z I y.i.i.i.i.i.i.i.i.i.i.i.I I <.<.U >.<.#X<.<.U >.>.U <.<.U U U <.<.<.<.<.y.<.y.i.i.y.i.i.i.i.#X#Xy.#Xi.i.I U <.<.U U U U ",
"L P I U <.<.U U I I U I D e m.D.m.r Z P I I >.y.y.>.U Y Y Y y.y.I I U I L I I >.<.I I >.>.<.>.>.U I U U U U U U y.<.<.y.I I >.i.<.U U U >.U Y y.I L >.I L L I L "
};
