/* XPM */
static char *Group_6_1__resized[] = {
/* columns rows colors chars-per-pixel */
"80 80 223 2 ",
"   c #080A1D",
".  c #1D371E",
"X  c #213D1D",
"o  c #0A0522",
"O  c #110C2B",
"+  c #13152C",
"@  c #171733",
"#  c #21183A",
"$  c #1C322C",
"%  c #1A2536",
"&  c #253D28",
"*  c #26263F",
"=  c #233A3A",
"-  c #27481D",
";  c #2F5316",
":  c #2E531C",
">  c #30541C",
",  c #335C1D",
"<  c #36621C",
"1  c #39651D",
"2  c #3C6D1D",
"3  c #3F711E",
"4  c #264325",
"5  c #284625",
"6  c #274827",
"7  c #2A4B24",
"8  c #26432B",
"9  c #2A442C",
"0  c #2A4C2B",
"q  c #324C2B",
"w  c #2F5423",
"e  c #2E542C",
"r  c #345C22",
"t  c #345826",
"y  c #35542C",
"u  c #345B2B",
"i  c #395B2B",
"p  c #2C4633",
"a  c #2C4A33",
"s  c #26413C",
"d  c #29453A",
"f  c #2A4B3C",
"g  c #314C37",
"h  c #2E5333",
"j  c #2E5638",
"k  c #345532",
"l  c #365A36",
"z  c #366223",
"x  c #3A6424",
"c  c #3D6B23",
"v  c #34602A",
"b  c #3E642C",
"n  c #3F692B",
"m  c #3F7220",
"M  c #3D6332",
"N  c #41751F",
"B  c #43781F",
"V  c #406E26",
"C  c #40672E",
"Z  c #416C2B",
"A  c #417620",
"S  c #457C21",
"D  c #44722A",
"F  c #416831",
"G  c #1C1942",
"H  c #272749",
"J  c #263846",
"K  c #343053",
"L  c #264543",
"P  c #284647",
"I  c #294B44",
"U  c #2A4C4B",
"Y  c #2E5544",
"T  c #2F5946",
"R  c #2E534B",
"E  c #335846",
"W  c #354A50",
"Q  c #2D5552",
"!  c #2F5B57",
"~  c #315C56",
"^  c #365858",
"/  c #315E5C",
"(  c #346146",
")  c #2E635A",
"_  c #396657",
"`  c #32625D",
"'  c #395166",
"]  c #346562",
"[  c #366B67",
"{  c #3A6C64",
"}  c #3B7265",
"|  c #3D7369",
" . c #3C796B",
".. c #366E73",
"X. c #3A7271",
"o. c #3D7B74",
"O. c #3E7C79",
"+. c #416C57",
"@. c #464366",
"#. c #4E567A",
"$. c #436863",
"%. c #45796D",
"&. c #457D73",
"*. c #616779",
"=. c #478022",
"-. c #498423",
";. c #4C8924",
":. c #3F817C",
">. c #49806A",
",. c #438474",
"<. c #478779",
"1. c #4A8D7A",
"2. c #538C7A",
"3. c #45937D",
"4. c #4A937D",
"5. c #5A937C",
"6. c #3B7B81",
"7. c #72728B",
"8. c #3F8288",
"9. c #428B83",
"0. c #499582",
"q. c #4E9C84",
"w. c #44928B",
"e. c #4E9D89",
"r. c #5A9681",
"t. c #509E85",
"y. c #438C99",
"u. c #4A9D96",
"i. c #67928B",
"p. c #4EA087",
"a. c #50A186",
"s. c #51A38A",
"d. c #54AA8D",
"f. c #58AB8C",
"g. c #56B18F",
"h. c #4EA59B",
"j. c #4EA69D",
"k. c #54AB93",
"l. c #52AB9A",
"z. c #57B395",
"x. c #59B493",
"c. c #5CBB96",
"v. c #56B39C",
"b. c #5DBD99",
"n. c #66A58C",
"m. c #70AB93",
"M. c #6CB899",
"N. c #73BA9B",
"B. c #499FA1",
"V. c #4DA7A3",
"C. c #50ACA2",
"Z. c #55B5A3",
"A. c #55B6A7",
"S. c #59BAA5",
"D. c #56BAAC",
"F. c #59BDAA",
"G. c #4DAAB6",
"H. c #57BCB3",
"J. c #5EC49B",
"K. c #61C59D",
"L. c #6CC59F",
"P. c #63C99F",
"I. c #5DC1A4",
"U. c #5BC2AE",
"Y. c #5BC4B3",
"T. c #5DC9B4",
"R. c #5BC6B9",
"E. c #5DCBBB",
"W. c #65CDA1",
"Q. c #6ACBA2",
"!. c #76C3A2",
"~. c #7AC8A5",
"^. c #66D1A4",
"/. c #68D4A6",
"(. c #6AD6A8",
"). c #6ADBAA",
"_. c #74D6A9",
"`. c #75D7AB",
"'. c #77DAB0",
"]. c #6EE1AE",
"[. c #77E5B3",
"{. c #53B8C8",
"}. c #5CCAC4",
"|. c #5ED0CF",
" X c #62D6C8",
".X c #63DBD7",
"XX c #66E2DB",
"oX c #61D9E5",
"OX c #68E8EA",
"+X c #69ECF5",
"@X c #9299B0",
"#X c #83CEA8",
"$X c #85D6AE",
"%X c #84DCB1",
"&X c #83E3B4",
"*X c #8CE7B9",
"=X c #8CEABA",
"-X c #93E4BA",
";X c #93EDBD",
":X c #98EBBC",
">X c #88F3BE",
",X c #9AF0BF",
"<X c #A6F3BF",
"1X c #B8F8BF",
"2X c #C5FBBE",
"3X c #D4FEBF",
"4X c #AAAEC1",
"5X c #B4C1D3",
"6X c #98EDC1",
"7X c #88F0C1",
"8X c #94F2C2",
"9X c #9BF3C2",
"0X c #9DFAC8",
"qX c #A3FBCB",
"wX c #A6F8C8",
"eX c #B6FBC6",
"rX c #A8FAD2",
"tX c #B7FDD2",
"yX c #C5FEC3",
"uX c #CDFEC3",
"iX c #C4FFCA",
"pX c #D4FFC1",
"aX c #D9FFC0",
/* pixels */
"; < N 2 N 3 3 N N 2 2 N B B N 3 N N N N 1 2 N B B N N N 2 2 2 N V N N N N B N 2 < 2 N 2 3 N 3 N N 2 2 3 3 3 B 2 : . . $ . - 1 B B N N N 2 2 2 2 N N B N N B 2 , ",
"1 2 N N N A 3 3 N 2 3 S B N B 3 N B N N 2 N N B N N V N N B B S B N N 2 2 B =.B A A 2 N N N N 3 3 2 3 B S B 3 1 w h f I d 0 , N N N 2 3 2 N S B B B N 2 2 B N 2 ",
"B B N B S S N N N N B S S S B B N B N V N B S B N B 2 N N S ;.;.;.=.N N N B -.;.;.-.A S B B N 3 3 N B =.=.3 2 v E $.<.<.{ T e < 2 2 2 3 N S ;.;.;.B N 2 N S B B ",
"N B -.;.;.S N A N N B =.-.-.;.;.;.B N N B S ;.-.S B -.B -.-.S ;.-.-.=.B B =.=.-.S -.-.;.;.=.B N B 3 B =.m 1 t ( >.n.!.M.4. .( e r 2 =.-.-.-.-.-.;.-.-.B N -.S N ",
"2 B S -.-.;.-.S =.S S -.;.;.;.-.;.-.S -.;.;.;.;.;.;.;.;.-.S S S B B ;.;.B =.=.-.S S -.S ;.;.-.S -.B S =.2 w a $.n.$X6X[.K.0.} h 0 1 -.;.;.S S S B S ;.-.S S B N ",
"N N N N S ;.;.;.-.-.S -.;.;.S S S ;.;.;.;.;.;.;.;.;.;.;.S S A S N N =.;.;.B =.;.-.S A A S ;.;.;.;.-.-.-.1 6 L &.!.7X0X7X(.f.:.U 9 r S ;.S S S A 3 N -.;.-.S N B ",
"2 N N B S S S S S A A A S S -.-.-.-.S B A S S -.;.;.;.;.;.S B S 2 N B ;.;.B N B S S A S S S S S B S m m , 4 L ,.L.&X>X[.I.s.&.U p , S ;.;.A A S 2 N S ;.-.S 2 1 ",
"2 2 N B S A A A m m 3 3 2 3 S -.;.-.S A S A A N B ;.;.;.;.S S S B B -.;.;.N N N S S A S S A 2 A 3 3 3 3 , 4 s _ t.W./.^.d.1.{ L 7 x S ;.;.-.S -.B B -.;.;.A 2 < ",
"2 3 N =.S 3 3 3 3 3 3 m 3 3 2 S -.S -.;.;.S B N A -.;.;.;.;.;.;.-.S ;.;.-.N A S S S A S S N 2 A 3 3 3 3 < : 6 T | 4.d.p.<.{ R 0 : m -.;.;.;.;.;.-.-.;.;.-.3 2 2 ",
"2 3 N B S S 3 3 3 m 3 3 m S m =.-.-.;.;.;.-.S -.;.;.;.;.-.-.-.-.S N A -.;.S -.-.S A N S S A N 2 3 m 3 3 3 c c u ( { o.o.] T h c S -.-.;.-.-.-.-.S N B -.-.-.B N ",
"2 3 A =.=.S m 3 A S S S =.=.-.;.;.-.;.;.;.;.-.;.;.;.;.-.S S -.-.N 1 2 S ;.-.;.;.-.S N S ;.S A N S S B 3 =.=.S c u Y R Q R h z S ;.;.;.-.S S -.-.3 1 2 S ;.-.S N ",
"B N A ;.;.;.S S =.-.;.;.-.-.;.;.;.S ;.;.S S ;.S -.;.;.-.B S ;.;.A 2 N -.;.A A ;.;.S N ;.;.;.S S -.-.;.-.-.=.;.=.c 7 8 8 4 z m m -.;.;.-.N S ;.;.S 2 3 -.;.N N N ",
"3 3 N B ;.;.;.=.m S -.;.=.S ;.=.S ;.;.;.;.;.;.S -.;.;.;.-.;.;.;.-.-.-.;.;.S S -.S S A S ;.;.;.S 3 S -.;.=.S ;.S 2 2 z z c 3 =.=.-.;.;.;.-.-.;.;.=.=.-.;.;.S N 3 ",
"2 3 B =.-.;.;.-.3 m S ;.=.S -.=.B ;.S S ;.;.;.-.S ;.;.;.;.;.;.;.-.-.;.;.-.-.S -.S S S S -.;.;.-.3 3 =.;.S S -.S B =.B 3 =.-.;.=.S S S -.;.;.;.-.-.;.;.;.-.S N N ",
"N B -.;.;.;.-.-.;.=.S -.-.S =.;.-.S N N S ;.;.A A S -.-.-.;.;.S S S S S S -.-.;.-.S -.;.;.;.-.-.;.S S -.-.S =.;.;.=.3 3 =.-.;.3 < , , 1 S ;.;.=.S S S =.-.-.S B ",
"3 B -.=.;.;.-.-.;.;.-.=.-.-.;.;.-.N N V N S S A N A S S S S -.-.-.-.-.-.;.;.;.;.-.-.;.S ;.;.-.-.;.;.-.-.-.-.-.;.-.S 3 3 3 B =.3 r 6 9 e 1 S -.-.=.=.-.-.-.;.=.B ",
"3 B =.B S ;.-.-.-.;.-.S S =.-.;.;.S A A m A A S A S S S S S -.;.;.;.;.;.-.;.;.;.=.-.-.S S ;.-.=.;.;.-.S S =.;.;.;.S m S m 3 2 z v T T j r 1 S -.;.-.;.;.-.;.=.B ",
"B B S 3 3 S S =.=.S 3 m 3 A -.;.;.-.-.S =.-.-.-.;.-.;.-.;.-.;.;.;.;.;.=.3 -.;.;.;.=.m 2 N S S =.=.m 3 m 3 S =.;.;.-.-.S S 3 z h ( 3.3.:.( u 1 S -.;.;.S B -.=.B ",
"3 B -.B A N S S S N N S 3 3 S -.;.;.-.=.S S -.;.;.;.;.-.-.-.-.-.=.3 =.3 3 =.=.;.-.-.S S A S N S S B m S 3 3 =.-.;.;.-.=.A < w Y  .5.c.4._ h : 3 3 S -.m N B B B ",
"3 B ;.=.S A S S m S S =.A 3 =.;.;.-.-.;.S S =.;.;.;.;.-.A S -.-.=.3 S =.=.3 =.-.-.-.;.S S S S S S 3 S -.m 3 =.;.;.-.-.-.A , 7 Y :.d.c.4.} h w 2 3 3 =.-.B 3 3 B ",
"B B =.;.;.;.-.=.=.S 3 3 2 A ;.-.=.=.-.;.;.;.;.-.S -.-.;.;.;.;.;.;.;.;.;.;.=.=.-.;.-.-.-.;.;.-.=.=.m 3 m 2 m -.-.=.=.-.;.-.A x e ) <.3.>.( v 2 S ;.;.;.;.-.=.B B ",
"N S -.-.;.-.-.-.-.-.S S S -.;.;.-.S =.-.-.=.S -.-.-.-.S S -.-.S =.=.B -.-.S =.-.S S S =.=.=.=.=.-.S S m 3 =.;.;.=.S S -.-.S m c M ( ) ( v c m =.-.;.=.;.;.=.=.B ",
"3 B ;.-.=.-.-.;.;.;.;.;.;.;.;.;.-.B B S A N A -.;.S S A A N 2 2 < < < 2 c 1 2 3 1 1 m c 1 2 c 2 m m m m S =.;.;.-.B B S S 3 S =.c 8 8 6 1 3 =.S B 3 B -.;.=.B B ",
"N B S -.-.;.=.S =.-.;.;.;.;.-.=.S S A A N S -.;.-.N A S S 2 < - . . . - - - - 7 7 7 - 7 7 7 - - 7 6 6 7 r m -.=.S S S 3 3 S =.;.m : : < 3 3 m m 3 3 =.=.-.=.B 3 ",
"N B -.-.-.=.S S S =.S S -.;.-.S S =.S S S -.-.;.=.2 2 3 N < w d I Y g I f g f f f f f f f f f f f f I I h r A S S =.S m S =.-.;.S < < 2 m m m 3 2 3 =.-.S =.B 3 ",
"3 B ;.;.S 3 B S =.=.B 3 S ;.-.-.-.;.-.=.-.;.-.;.S < > > , : j +.&.<.%.&.%.%.%.%.{ { { { { } { { ] ] { [ ~ j r m =.;.-.=.;.;.-.;.-.m m 3 3 3 3 3 3 N -.-.=.=.B N ",
"N B -.S B 2 2 B ;.;.-.-.-.-.S -.;.;.-.;.;.;.-.-.m : . . . 0 +.5.N.!.m.m.m.m.n.q.3.3.4.4.p.4.4.1.,.,.<.<.} T 0 r 3 ;.;.;.;.;.-.;.;.-.S 2 3 3 3 S S S B -.-.-.=.B ",
"N B -.-.=.B N B ;.;.;.-.;.-.=.;.;.;.-.;.-.-.S N z h f s = _ 5.~.-X:X-X-X-X*X$XQ.J.c.J.J.J.J.K.g.s.p.p.s.1.} R h z S -.;.-.=.S =.;.;.S S S S -.-.-.-.-.=.-.-.=.B ",
"N B -.;.;.;.-.;.-.-.S S S ;.;.;.;.=.=.-.=.A 1 r l _ <.<.%.r.!.;XrXrXqXqXrXqX0X>X[.'.).).(.)./.W.K.v.x.x.k.w.<.` j r 3 -.=.S m =.-.;.;.-.;.;.;.;.;.;.;.=.S =.B N ",
"2 N =.;.-.B -.;.-.-.S N =.;.;.-.=.S A S -.3 > a _ r.N.~.N.!.$X:X0XqXqXqXqXqX0X,X=X[.`.^.^.^.^.^.W.b.x.g.k.Z.V.9.) 0 : 2 -.;.;.m S ;.;.;.;.;.-.;.;.-.B =.=.S 3 1 ",
"2 N -.;.-.B =.-.-.-.A A S -.-.S S S S S S z e _ 2.!.-X6X-X-X:X,X9X9X,X8X,X,X,X0X,X&X`.P.J.P.P.^.P.K.x.d.k.S.Y.V.:.Q 0 w m -.-.S S ;.;.;.;.B -.;.-.=.=.;.;.B 3 2 ",
"N =.;.;.-.B B -.;.S m A B S N S S =.=.S z j _ r.~.=XrXtXtXtXeXeX<X<X,X,X,X,X,XwX9X=X`.P.J.J.P.P.^.K.x.d.k.S.U.H.V.<.` j z < 2 -.;.-.;.;.;.B B -.-.;.;.;.;.-.=.B ",
"3 B -.-.=.=.=.=.=.-.=.3 =.=.=.=.=.=.2 w g +.r.#X*X7XwXeXtXuXuXyX1X<X,X;X;X,X9XqX,X*X`.P.J.K.W.W.^.K.g.f.s.k.v.F.S.j.9.` h w 1 S S S -.;.;.S S -.;.;.-.S B ;.-.B ",
"3 3 =.=.=.-.-.-.=.-.;.3 =.;.-.-.-.=., X W &.N.-XqX9XwX1X2XaX3XpX1X1X,X,X;X,X9X,X;X&X_.P.J.K.P.W.W.J.c.f.a.a.a.v.Y.Y.V.&.I 0 , A S S S ;.;.-.-.-.;.-.S N 3 ;.=.3 ",
"3 3 -.=.=.;.;.;.-.;.;.;.m m ;.-.-.-., & U 2.#XrXtXeXeX2X3X3X3X2X1X<X,X8X9X,X,X=X%X_.^.P.J.J.P.W.^.J.c.d.q.4.t.v.T.E.D.6.I & > 2 S S S S ;.-.-.;.-.=.S =.-.;.B 3 ",
"3 3 3 3 B -.-.-.;.;.-.=.S =.;.;.;.-.> & R <.!.wXtXeXpX3X3X3X1X1X<X,X,X,X9X,X;X&X_.P.P.P.K.P.W.W.^.J.c.d.a.4.t.v.T.E.A.9.L & > 2 S ;.S B S S =.;.;.-.=.-.;.;.3 < ",
"3 3 3 3 m =.=.=.;.;.=.3 m -.-.-.=.m r 0 _ r.!.9XtXyXuX3XpXiXeXwX9X8X,X,X,X;X&X_.P.J.K.P.P.P.P.P.P.J.x.d.a.q.t.v.Y.R.A.9.Q 0 w 1 S -.S A N B S -.;.-.=.-.;.-.B < ",
"B 3 3 3 3 3 =.=.-.;.-.-.S =.-.3 < w l +.r.!.%XwXeXeXyXyXiXiXtXrX0X0X9X,X;X%X_.P.J.J.J.P.P.P.P.K.c.x.k.s.a.q.e.v.F.R.Y.j.:._ j r 1 S ;.;.S ;.;.S A S ;.;.;.=.S B ",
"3 B B -.=.=.S =.=.=.=.-.=.=.S 1 w a +.n.#X-X9X9X9X<XwX<XwXwXwXwX0X0X,X;X%X(.P.K.K.K.P.P.P.^.K.c.x.d.s.s.a.t.s.k.S.R.E.R.l.9._ h w 2 S ;.-.;.;.-.N N -.=.B S B S ",
"3 3 =.-.-.-.=.=.=.B B -.-.-.S , 7 U ,.!.9XqXqX9X9X9X,X*X$X#X!.#X$X*X;X=X`.P.J.J.P.P.P.P.^.P.K.c.d.q.e.p.a.t.p.k.Z.H.}. XE.j.:.U 9 , A -.-.S -.;.S N -.S 3 B 3 3 ",
"1 3 -.=.=.=.-.-.-.S S -.;.;.-., 8 R 1.~.8XqX0X0XrXrX9X#Xn.%.+.+.2.M.&X>X].P.J.J.P.P.P.P.P.^.K.x.d.q.q.s.s.a.s.s.k.v.T. XE.A.<.U 9 , B ;.-.S S S -.-.;.S S ;.B N ",
"3 3 =.B =.=.B B =.=.m ;.=.=.S , 4 U  .x.'.7X8X0XrXqX%Xn.$.% + % ^ 2.K.).].W.J.J.P.P.P.P.P.^.K.c.d.e.e.p.s.s.s.s.p.k.S.E.E.C.:.P 4 > N S S S -.-.;.-.S N B ;.B N ",
"B B B B -.B 3 3 3 m 3 =.=.B 3 , 4 I ` :.f.L.&X;X9X-Xm.$.H O O # ^ %.4.c.W.P.P.P.W.P.P.W.^.P.K.c.k.p.e.s.s.s.s.a.q.a.v.U.Y.j.O.L 4 > 1 N N S ;.;.;.S B N N S B B ",
"3 B -.;.-.-.B 3 =.3 3 =.-.-.;.m 0 I U Q } t.L.'.~.n.$.J @ * @.7.7.*._ :.4.J.^.^.P.P.P.P.P.^.P.c.f.s.q.s.s.s.s.a.q.p.v.U.Y.V.o.I 5 , A ;.-.S -.;.;.-.S B N -.B N ",
"3 S =.-.-.;.-.=.=.S m -.;.;.-.c q L J % J { f.L.p.` = O G @.7.5X4X*.* Y %.M.).).W.P.P.P.W.^.K.c.k.p.p.s.s.s.s.a.p.s.v.U.Y.j.O.L 5 1 S ;.-.-.B B B A ;.S B B B B ",
"3 3 3 m =.;.;.;.-.-.-.-.;.;.S z e L % O + Q q.k.:.=   o G 7.@X5X@X*.+ % ) g.).).W.P.P.P.P.K.c.x.d.s.q.s.s.s.s.a.p.s.v.U.Y.V.O.I 5 x S ;.-.S B B N N -.;.;.B B B ",
"3 3 m S =.=.S S S S m S 3 S =.c e L % o o U 4.g.o.% o O G 6.7.i.*.K O % ) g.).).^.W.^.W.K.c.g.f.s.s.s.s.s.s.a.a.4.a.v.U.Y.j.O.I 5 1 S ;.-.A B B V N S ;.;.B N 1 ",
"2 2 3 =.S 3 3 3 m 3 3 3 3 3 B x e I % @ % _ p.x.:.J G G K @.#.' K # # * %.J.).).W.P.P.P.J.g.s.a.s.p.s.s.s.s.a.a.a.a.v.Y.Y.h.O.L 5 1 S ;.;.-.-.B N B ;.;.B N N , ",
"2 3 N B B 3 3 3 m 3 3 3 3 3 1 < e P P P ^ &.g.J.a.} P K K H G O O % J { t.K./.).W.P.P.c.g.s.e.q.s.s.s.s.s.a.a.a.s.k.U.T.Y.h.o.s 5 1 S ;.;.;.;.;.;.S ;.;.-.N V N ",
"2 2 B B S N N 2 3 3 m 2 A S 3 z 0 I ! | 1.k.J.P.K.a. .W H + o o @ J %.a.c.W././.W.P.c.k.s.s.s.q.s.s.s.s.a.t.q.s.l.S.T.E.U.h.o.I 7 , S ;.-.-.-.-.S N S -.;.-.N N ",
"3 3 B =.;.-.N N A S S S S =.=.z 7 I { 4.M.I.^.W./.^.d.%.P +   + J [ d.P./.W.W.W.P.c.x.s.s.s.a.s.p.s.s.s.s.p.p.k.Z.Y.}. XR.j.O.L q 1 S ;.B S ;.-.N 1 V B ;.S S N ",
"B N N ;.;.;.B B -.-.;.;.-.-.;.1 0 Y | d.^.(.).^.].].W.t.} U = f } s.^.].).K.c.c.c.x.d.e.q.q.p.s.a.a.t.q.p.s.l.v.F.Y. XXX.XH.:.I & 1 -.-.B S ;.;.N N N -.;.N N N ",
"2 3 B =.;.;.;.=.3 S -.;.=.S ;.< 5 I { 0.v.W.W.^.).).^.J.a.4.,.1.s.c.^./.P.x.k.k.f.d.s.e.q.q.a.a.t.q.q.q.s.l.S.F.F.H..X+XOX{.8.U X 1 S ;.S ;.;.;.B -.-.;.;.B N N ",
"2 3 B B -.;.;.=.N 3 S ;.=.S -.< 4 I ] <.k.b.J.P.W.W.K.J.c.c.c.J.J.P.P.J.x.s.a.a.s.s.s.s.s.s.s.s.s.s.s.s.l.S.Y.E.}.R..X+XoX{.8.U - 1 S ;.;.;.;.;.-.;.;.;.-.-.B N ",
"3 B -.;.;.;.-.-.;.S S -.-.S S z 7 U [ u.S.I.b.b.J.K.M.g.a.5.J.J.W.P.c.g.a.t.q.4.t.t.t.a.s.l.v.v.k.l.v.v.I.T. X X.XOXoX|.{.y...f 7 1 S ;.;.;.;.S B S S S S -.S B ",
"3 B ;.=.-.;.-.;.;.;.-.-.-.-.-.1 0 U X.u.Y.W.b.f.g.x.d.3. .%.3.d.c.c.f.s.t.t.q.q.q.4.q.s.k.A.S.F.F.S.I.Y.T.E.E.XXOXOX|.G.6./ R q r V A S S S -.;.-.-.-.;.;.;.S B ",
"3 S -.A S ;.-.-.-.;.-.S S -.-.1 7 I %.u.H.H.S.k.s.s.1.{ Q ~ } 4.f.z.k.k.k.k.s.k.d.s.d.k.Z.F.E.}.}.R.R.Y.D.S.F.}.oXoX{.6.R d g i V A S S A S S ;.;.;.;.;.;.;.=.B ",
"N N S m A S S S -.S 3 m 3 A -.V i E / &.u.A.F.Z.h.3.} _ _ } ,.p.z.S.S.S.S.F.F.F.F.S.S.F.T.E. XOXOX.X}.V.w.9.w.B.G.G.y.` p q i Z D S -.;.;.;.;.;.;.;.;.B N -.=.B ",
"3 B S S A N B S S A A S 3 N B S D M E ^ [ w.S.D.u.| ! )  .3.4.f.k.S.Y.Y.R.Y.T.T.R.Y.Y.T.T.E. XOX+XoXG.6./ R ^ | ....] E q t b Z A S ;.;.S -.-.;.=.B -.B N B B B ",
"3 S -.-.S S S N A A S S N N S -.A C y q R X.j.C.9./ U ` ,.q.a.4.s.l.A.H.H.D.D.D.D.D.D.A.A.A.R.|.oX{.y.^ = = I J s s d l i C C Z D S -.-.S S -.-.B N B =.B 3 3 B ",
"B S -.;.;.;.-.-.S S 3 N 2 N ;.-.S A C y Y ] &.9.X.Q L Q } ,.,.:.o.<.w.w.w.w.w.w.w.w.w.w.9.9.w.B.G.y...I & & q & p & g i Z Z D N A S ;.;.;.;.;.;.;.;.;.;.;.=.B B ",
"N B -.-.-.-.-.;.;.-.S S S =.;.;.S N N C k E / / ! U L U Q ~ ) Q ! ~ ` ` ] ] / / ] ` ` ` ` ^ ] [ ..] R l i i i i i y y b C V V A S -.S -.=.-.-.;.;.-.=.;.;.-.B B ",
"N B -.-.-.-.-.-.;.;.;.;.;.;.-.;.;.B N N b q d L L I L L d L s s s s = s s s s s d = s d s s s = = p k F D D F F C i i C t V N -.;.S S B N B B B B B N =.;.=.B B ",
"N B B -.-.;.-.S S -.;.;.;.;.-.-.B B B V V i k g g I f a d p p p p p p p q a p a a a p a a a p p 9 q y C D D F C b b x i 1 N B ;.-.N A B B B N N N N B =.=.-.B 3 ",
"N B =.-.-.-.S B S =.S S -.;.-.S S -.S m m m b M l l y y y y y q y y y u y i i y i y i i i y y y y i i i C Z C b b b x c m S ;.;.-.m m S S m m 3 2 3 =.=.=.=.B 3 ",
"3 B -.;.B N B S -.=.m 3 =.;.-.-.-.;.-.-.;.-.A D Z b x i i i i i i i n n b b C Z b Z Z C b i x b b b i y b C x C n n A S ;.;.-.;.-.m m m 3 2 m 3 3 B -.=.=.=.B 3 ",
"N B ;.=.A 2 2 B ;.;.;.-.;.-.S -.;.;.;.;.;.-.S S S S c r i i i b b M b b C C C C C C C b i y y b C Z F F C V V N S D S -.;.;.-.;.;.-.m m 3 3 S S =.B =.=.=.;.=.B ",
"N B -.-.S S N S ;.;.-.-.-.-.=.;.;.-.;.;.-.-.S =.;.;.S c x b M b C b b b C C Z Z n C C b b b i b Z C F F C V S S -.-.-.-.-.-.S -.;.;.-.m m S =.-.=.;.=.=.=.;.=.B ",
"3 B -.;.;.;.-.;.-.-.B B -.;.;.;.;.-.-.-.S m m -.;.-.-.S D V Z Z D D c n x x c c c n V V Z V n c Z x x x V B ;.;.;.-.-.=.=.S N =.;.;.-.;.;.;.;.;.;.;.;.=.=.=.B 3 ",
"3 3 =.;.-.S -.-.-.-.=.3 =.;.;.-.-.S S S ;.;.-.S S ;.;.-.S A A S D A m A A c c 2 c A D A A c A S A A V x N -.;.-.=.S S S -.;.-.S =.;.;.;.;.;.;.-.;.-.=.=.=.B 3 1 ",
"3 B -.;.-.B -.-.;.=.=.3 =.-.;.=.S S S S ;.;.-.S -.-.;.;.-.S S S S S S S -.A 3 B S S S -.B N B S S S N 2 S S -.S S S S S -.;.S S =.-.;.;.;.-.-.-.-.=.B ;.;.B 3 2 ",
"3 =.;.;.-.B B =.;.=.3 3 B 3 3 3 S -.;.;.-.m 3 -.;.S ;.;.-.S S -.-.;.;.;.;.-.;.;.;.;.;.-.-.S B -.;.S N B A B B B S -.;.;.-.A N -.;.=.;.;.;.B B -.-.;.;.;.;.-.=.B ",
"3 B -.-.=.B =.=.=.=.B N =.-.=.=.-.-.S S =.=.-.-.S S -.;.;.S S -.;.;.-.B B ;.;.;.-.-.-.-.-.B =.=.S -.S N S -.=.S =.-.=.S S -.-.-.S S -.;.;.=.S -.;.;.-.B =.-.=.=.",
"3 N =.=.=.-.;.-.B ;.-.B -.;.-.-.-.;.S N S ;.;.S A S -.-.;.-.-.;.;.-.=.3 3 ;.;.;.S -.B =.S =.;.-.S ;.-.B =.-.;.-.-.-.S B -.-.;.S m S =.;.;.-.=.;.;.-.=.3 3 ;.=.3 ",
"3 N B B -.;.;.;.;.;.;.;.B B ;.-.-.-.-.-.-.-.S 3 S S S -.;.-.-.-.-.=.B =.;.-.=.=.-.S S S -.;.;.;.;.;.;.;.S S ;.-.=.;.-.-.-.=.S 3 m =.=.=.;.-.-.;.-.=.=.=.=.;.3 2 ",
"3 N N B B -.-.;.;.;.;.=.B B ;.;.-.;.-.-.-.-.S N S -.S S -.S S ;.;.;.=.-.;.;.B 3 -.S N B S -.-.-.;.;.;.S S S -.;.;.;.-.-.-.-.S N =.-.S B =.B S ;.;.-.=.=.;.;.B 1 ",
"3 3 3 3 B B B -.;.;.=.B B -.-.;.-.-.S -.;.;.=.S -.-.=.B A m S -.;.-.-.-.;.-.S B -.S N 3 B S S =.;.;.=.B B -.-.;.-.-.=.=.;.;.=.S =.;.-.B B B S ;.;.-.-.-.-.;.3 2 ",
"N N 3 N B 3 B -.;.-.=.=.=.=.-.=.B S A S ;.;.-.-.-.;.;.;.-.-.-.-.N B -.;.;.-.-.;.-.B 3 N N N S -.-.;.;.B S S -.S N S B S ;.;.-.=.-.-.;.;.=.-.-.=.3 S ;.;.-.-.=.3 ",
"2 2 3 3 3 3 B B 3 3 B B B B B 3 N N N B B B =.B B B S S S S S S 2 3 B B 3 3 B =.S N 3 N N N N B B N B N B B N N 3 N B B S S S S B =.=.B B B =.B 3 2 B B 3 3 3 2 ",
"< 1 3 3 B B 3 2 2 2 2 3 3 3 2 3 N N B B 2 2 N B B 3 3 3 2 3 m S 2 2 3 2 < 1 3 3 3 3 2 3 N N 3 2 2 1 2 N N N 2 N B N B N 2 2 3 B 3 3 3 3 3 3 N B 2 1 3 2 1 1 1 < "
};
