/* XPM */
static char *Group_6_2__resized[] = {
/* columns rows colors chars-per-pixel */
"80 80 226 2 ",
"   c #08031D",
".  c #0A111D",
"X  c #0B0725",
"o  c #130B2B",
"O  c #13162C",
"+  c #150D33",
"@  c #181636",
"#  c #200E30",
"$  c #1B2637",
"%  c #1F303B",
"&  c #253525",
"*  c #233D23",
"=  c #263C2D",
"-  c #253C31",
";  c #243A36",
":  c #283F32",
">  c #27461D",
",  c #2B4C1E",
"<  c #2F5316",
"1  c #2E521E",
"2  c #30561E",
"3  c #335B1D",
"4  c #36621C",
"5  c #39661D",
"6  c #3C6D1D",
"7  c #3F711E",
"8  c #274424",
"9  c #284626",
"0  c #2A4C24",
"q  c #29442A",
"w  c #2B4D2B",
"e  c #314B27",
"r  c #314D2D",
"t  c #2D5222",
"y  c #2D522C",
"u  c #305522",
"i  c #345C24",
"p  c #33552C",
"a  c #325B2C",
"s  c #3A5E2D",
"d  c #254333",
"f  c #294234",
"g  c #26443A",
"h  c #294838",
"j  c #294B3C",
"k  c #314B32",
"l  c #2D5331",
"z  c #2D523B",
"x  c #345431",
"c  c #35593A",
"v  c #366222",
"b  c #3A6523",
"n  c #3C6C22",
"m  c #3D632C",
"M  c #3F692A",
"N  c #3F7220",
"B  c #346138",
"V  c #41751F",
"C  c #43781F",
"Z  c #406A29",
"A  c #416B2D",
"S  c #417620",
"D  c #457C21",
"F  c #487F23",
"G  c #406631",
"H  c #426A30",
"J  c #2D1C44",
"K  c #282649",
"L  c #253944",
"P  c #303251",
"I  c #254444",
"U  c #2B4C45",
"Y  c #284649",
"T  c #2B4D4C",
"R  c #2D5444",
"E  c #2C524B",
"W  c #2D584B",
"Q  c #335746",
"!  c #325A44",
"~  c #2C4B51",
"^  c #324953",
"/  c #2D5352",
"(  c #2E5954",
")  c #305B54",
"_  c #355A59",
"`  c #356147",
"'  c #366758",
"]  c #34645C",
"[  c #39615B",
"{  c #3A705B",
"}  c #366A63",
"|  c #396A65",
" . c #3C7364",
".. c #3A7668",
"X. c #3A746D",
"o. c #397572",
"O. c #3C7B74",
"+. c #3C797A",
"@. c #414D5D",
"#. c #424569",
"$. c #515073",
"%. c #467A6A",
"&. c #497D72",
"*. c #507074",
"=. c #62627C",
"-. c #478022",
";. c #498423",
":. c #4C8924",
">. c #3E817E",
",. c #4B836C",
"<. c #438373",
"1. c #478376",
"2. c #458A76",
"3. c #468B79",
"4. c #498E7A",
"5. c #578877",
"6. c #4B957B",
"7. c #4B927C",
"8. c #3D7882",
"9. c #7D788F",
"0. c #3D8589",
"q. c #3E8891",
"w. c #438984",
"e. c #4E9C84",
"r. c #4A978A",
"t. c #4E9D89",
"y. c #579A85",
"u. c #509E84",
"i. c #438991",
"p. c #439196",
"a. c #4B9D93",
"s. c #4BA085",
"d. c #51A186",
"f. c #51A38A",
"g. c #55AB8D",
"h. c #58AF8F",
"j. c #58B18F",
"k. c #4CA296",
"l. c #4CA39B",
"z. c #52A791",
"x. c #55AC92",
"c. c #54AE98",
"v. c #57B192",
"b. c #59B593",
"n. c #57B993",
"m. c #5CBA96",
"M. c #56B29C",
"N. c #58B59B",
"B. c #5DBD99",
"V. c #65A48D",
"C. c #6AAC92",
"Z. c #6CB296",
"A. c #69B697",
"S. c #75BA9B",
"D. c #489BA8",
"F. c #4B9EB1",
"G. c #4EA8A1",
"H. c #52AEA5",
"J. c #56B6A7",
"K. c #58BAA4",
"L. c #58BDAD",
"P. c #55B9B3",
"I. c #5EC29B",
"U. c #61C59D",
"Y. c #6DC69F",
"T. c #63C99F",
"R. c #5CC0A6",
"E. c #5BC2AE",
"W. c #5AC3B3",
"Q. c #5EC9B5",
"!. c #5CC7B9",
"~. c #5DCBBC",
"^. c #65CCA1",
"/. c #6ACDA4",
"(. c #74CFAF",
"). c #67D2A4",
"_. c #69D4A6",
"`. c #69D7A8",
"'. c #6BDCAB",
"]. c #75D8AB",
"[. c #7ADAAD",
"{. c #60CDB5",
"}. c #73E4B1",
"|. c #55BDCB",
" X c #5AC5C7",
".X c #5FD1C3",
"XX c #59C5D6",
"oX c #61D4C7",
"OX c #62D9D5",
"+X c #66E2D9",
"@X c #62DCE8",
"#X c #67E6EB",
"$X c #6AEDEF",
"%X c #9094AD",
"&X c #9FA3B4",
"*X c #8BD5B0",
"=X c #8AD7B2",
"-X c #8CDBB4",
";X c #8AE5B6",
":X c #89E8B9",
">X c #93E5BA",
",X c #94EEBE",
"<X c #86F1BC",
"1X c #97F0BF",
"2X c #9CF1BF",
"3X c #AAF4BF",
"4X c #BBF9BF",
"5X c #C7FCBF",
"6X c #D1FDBF",
"7X c #B0B7CA",
"8X c #8FEDC0",
"9X c #99ECC2",
"0X c #95F2C1",
"qX c #9CF4C3",
"wX c #9DF8C7",
"eX c #A5F7C5",
"rX c #A3FCCB",
"tX c #ABFECB",
"yX c #B8FCC5",
"uX c #B1FFCC",
"iX c #A9FFD1",
"pX c #B8FFD2",
"aX c #C9FEC4",
"sX c #D5FFC2",
"dX c #D6FFC5",
"fX c #C1FFD3",
/* pixels */
"< 4 V 6 7 7 V 7 V 6 7 7 C 7 C 7 7 V V V 6 6 7 D C V C V 6 6 6 7 V V C 7 7 C C 6 4 6 7 6 6 V 7 V V 6 6 V 7 7 C V 7 V S 7 6 3 > & 8 3 7 C 7 6 7 7 7 C C 7 7 C 6 3 ",
"5 6 V V V D 7 7 7 7 7 C C C C 7 7 V V 7 6 7 V C V 7 7 7 7 V D C C C V 6 7 C ;.C D V 7 V V V 7 7 7 7 7 C D S C 7 7 V V 6 4 a l R z u 4 6 6 7 C C C C 7 7 7 D V 6 ",
"C C V C D D 7 6 V V C D D D C C V D V 7 V C D S V S 6 7 V -.:.:.:.;.V 6 V C ;.:.:.D S D ;.-.V 7 7 C C -.D D D N V C 6 3 t c  .>. .` t 3 6 -.:.:.:.-.V 6 V D C C ",
"V C ;.:.;.-.S V C V C -.;.:.:.:.;.-.V 7 D ;.;.;.D D ;.;.;.D ;.;.;.;.;.V C C ;.;.;.-.;.:.;.C V V C 7 C -.;.:.:.:.;.-.4 > h { 6.h.d...j 0 4 C -.;.;.;.;.C C ;.C 7 ",
"6 C F F ;.:.;.;.-.D D -.:.:.:.;.;.;.;.D :.:.:.:.:.;.:.:.;.;.D D D D ;.;.C -.;.;.-.D ;.-.;.:.;.;.-.C D -.:.:.:.;.:.;.5 t h { f.n.f.<.z 0 5 V D D C C :.-.C -.C 7 ",
"V V V V F :.:.:.;.;.-.-.:.;.-.D F ;.:.:.:.:.:.:.:.:.:.;.;.D C S 6 V ;.:.:.D -.;.;.D V 7 D :.:.;.:.;.-.;.:.:.D D -.:.N v y ' 2.d.4.{ l 3 6 V D V 7 V ;.:.:.D C V ",
"6 V V C D D D D D S S D V D ;.;.:.;.D V D D D ;.;.:.:.;.;.S V D 6 7 D :.:.D V C D D S D D -.D D C C N D D D -.;.;.;.N 7 4 c ` ' ' B M D D D S D 7 7 C :.:.D 7 5 ",
"6 6 V C C V V S N N 7 7 7 7 D ;.;.;.D D S D C C -.:.:.:.;.;.D ;.D D ;.:.:.V 7 V D S S D D S N V 7 7 7 7 6 7 D ;.;.-.-.N 7 v w j l v -.:.:.-.D ;.C C ;.:.;.V 6 4 ",
"6 7 V D D 7 7 N 7 7 7 N 7 7 6 D F C :.:.:.D C 7 C ;.:.:.:.:.:.:.;.;.;.:.;.6 S D D D S D D 7 6 N 7 7 7 N 7 n 6 S -.D ;.:.:.n 1 > 2 S ;.:.:.:.:.:.;.;.:.:.;.7 6 6 ",
"6 7 V D D D 7 7 7 7 N 6 N D N -.;.;.:.:.:.;.C ;.;.:.:.:.:.;.;.;.D 7 V ;.;.;.;.;.D D V D D V V 6 7 7 N 6 V D D F ;.;.:.:.:.-.7 7 S ;.;.:.;.;.;.;.D 7 C ;.;.;.C V ",
"6 7 C -.-.D N 7 S D D D D -.;.:.:.F :.:.:.;.;.:.:.:.:.:.D D ;.;.N 6 6 D ;.;.;.:.-.D V D :.F S 7 N D D D D -.;.:.:.;.;.:.;.;.;.:.:.:.:.;.C D ;.;.7 6 6 D :.;.D C ",
"C 7 S :.:.:.D D -.;.:.:.;.;.:.:.:.F :.:.D ;.;.C ;.:.:.F V ;.:.:.S 6 7 ;.:.D D ;.:.D V :.:.:.D D -.:.:.:.;.;.:.:.:.-.;.:.D -.;.D ;.:.:.;.V D :.:.S 6 7 ;.:.V V V ",
"7 7 V -.:.:.:.-.7 D ;.:.-.-.:.-.C :.:.:.:.:.:.F ;.:.:.:.;.;.:.:.;.-.;.:.:.D D F -.D D D ;.:.:.;.7 D ;.:.-.D :.;.D ;.:.;.;.:.:.;.;.:.:.;.;.;.:.:.-.-.;.:.;.D V 6 ",
"6 7 C C ;.:.:.;.7 N D :.-.D :.D C :.;.C :.:.:.F F :.:.:.:.:.:.:.;.;.:.:.;.-.;.;.D D D D ;.:.:.;.7 7 D :.F D ;.F D ;.;.D :.:.:.-.;.;.:.:.:.:.:.:.:.;.:.:.;.;.C V ",
"7 C ;.:.:.:.;.;.:.-.D :.-.-.-.:.;.;.V V D ;.;.D C D F ;.;.:.:.-.D D -.-.D ;.;.:.-.-.;.;.:.:.;.;.:.D D :.;.D ;.:.:.;.S 6 D ;.:.C V D ;.;.;.:.:.-.D D D -.D ;.D C ",
"7 C :.-.;.:.;.;.:.:.;.-.;.;.;.:.;.V Z V V D D V V C D D D D ;.;.;.;.-.;.:.:.:.:.;.;.;.-.:.:.;.;.:.:.;.-.;.;.;.:.;.D 7 7 V D D V 7 D D D S D D D D D -.;.;.:.-.C ",
"7 C ;.C D :.;.;.;.:.-.D D ;.:.:.;.D S D N V D S D D D D D D -.:.:.:.:.:.:.:.:.:.-.-.;.D D :.;.;.:.;.-.D D ;.:.:.;.D N N C 7 D N D D -.-.N 7 N N n N D ;.:.:.D C ",
"C C V 7 7 -.D D -.D N 7 6 S -.:.:.;.;.D D ;.:.;.:.;.;.:.:.;.:.:.:.:.:.D C ;.:.:.:.-.D 7 7 D D -.;.D N N 7 C ;.:.:.;.;.D -.;.:.:.;.:.;.;.;.-.v y l a N N C ;.-.C ",
"7 C ;.C N 7 D D D V V D N 7 -.:.:.:.;.-.D D ;.:.:.:.:.;.-.-.;.;.D D -.D 7 D -.:.;.-.D N N D C D D 7 N D 7 7 -.;.:.:.;.-.D D ;.:.:.:.:.;.-.7 i g d w N N V C C C ",
"7 C :.;.D D D D N D D -.S 7 -.;.:.;.:.;.D D -.;.:.:.:.;.S D ;.:.D 7 D D D 7 D :.-.;.:.-.D D D C D C D -.7 7 -.:.:.;.:.;.D D -.:.:.:.:.;.N 7 v l d y n D D 7 7 V ",
"C D -.:.:.:.;.-.-.D 7 7 6 S :.;.-.-.;.:.:.:.:.-.-.;.;.:.:.:.:.:.:.:.:.:.;.D ;.:.:.;.;.;.:.:.-.-.-.D 7 7 7 N :.;.-.-.;.:.:.:.:.-.-.;.;.:.:.;.N n b N -.:.;.D C C ",
"V C ;.;.:.;.;.:.;.;.D D D ;.:.:.;.D D ;.;.-.D ;.;.;.-.-.;.;.;.-.;.;.;.:.:.;.;.:.;.;.;.:.:.;.;.:.;.-.D D D ;.:.:.-.D -.;.;.-.-.-.;.;.-.-.-.;.N 7 N N C :.:.;.-.C ",
"7 C :.;.-.-.;.;.:.:.:.:.:.:.:.:.;.C D D D S D ;.:.D D V 7 V C D C V V ;.:.-.;.:.-.;.;.;.-.-.;.:.:.:.:.:.:.:.:.:.;.C C D D 7 S :.:.-.-.7 7 N -.-.D D 7 ;.:.-.C C ",
"C C D -.:.:.;.D -.;.:.:.:.:.;.-.D D D 7 7 D ;.:.;.7 N D D D D N V V D D -.;.-.;.;.;.D ;.;.:.-.-.D ;.:.:.:.:.:.;.D D D 7 7 D ;.:.;.7 7 D -.N N N 7 7 -.-.-.-.C 7 ",
"V C ;.;.;.-.D D D -.D D ;.:.;.D D -.D D D -.:.:.-.7 7 D D N 7 N 6 V -.-.D -.;.-.;.;.-.;.;.-.D N 7 7 n 6 S V 7 7 V -.D C D -.;.:.;.7 7 N D N 7 N 7 7 -.-.-.-.C 7 ",
"7 C :.;.D 7 C D -.-.C 7 D :.;.;.;.:.;.-.:.:.;.:.;.7 7 7 7 7 N 7 7 S ;.;.;.D ;.;.-.;.:.;.D 7 N N 4 t , > 1 u 1 4 7 ;.;.;.:.:.:.:.;.N 7 7 7 7 7 7 7 V ;.;.-.-.C C ",
"V D ;.C C 6 6 C :.:.;.;.;.;.D ;.:.:.:.:.:.:.;.:.;.;.N 7 6 N D D D D ;.;.;.:.:.:.;.:.;.;.7 7 6 4 t d ; = - d d 0 b -.:.:.:.:.;.:.:.;.7 6 7 7 N D C C C ;.-.:.-.C ",
"V C ;.;.-.C V C :.:.:.;.:.;.-.:.:.;.:.:.:.-.D ;.:.:.-.D 7 D D 7 6 n 6 6 7 7 S V N N 7 7 7 5 3 u z ( _ ) ) ( ] ! B 7 D ;.;.-.D ;.:.:.;.C N -.;.;.;.:.;.-.-.;.C C ",
"V C ;.:.:.:.;.:.;.-.D D -.;.:.:.:.;.;.;.-.N 7 -.:.:.:.:.:.;.S v 1 t 1 1 , , 1 t 2 1 u u 3 3 t c { 4.6.7.4.r.7...` a b N D D N ;.;.:.:.:.:.:.:.:.:.:.:.;.-.-.C 7 ",
"6 V ;.:.;.C ;.:.-.;.D 7 -.:.:.:.-.D D D :.:.;.D -.:.:.:.:.N b y d g d q d d d d d d d d d = z ' 6.n.U.m.B.B.A.d...W w 3 D :.;.N -.:.:.:.:.:.;.:.:.;.C -.-.C 7 6 ",
"7 C ;.:.;.C -.;.;.-.D D D ;.;.D D -.D D ;.:.;.D N N N N 7 v a ` [ | [ _ [ _ ) ) ( ( ( ( E T ] <.f.T.`.).`.'._.b.2.( d 1 -.:.;.-.-.;.:.:.:.-.;.:.;.;.-.;.:.C 7 6 ",
"V C :.:.;.C C ;.:.-.N N D C V D D ;.:.;.;.7 7 ;.-.3 1 , 1 t ` ,.C.Z.V.V.V.V.y.r.2.>.3.3.3.2.7.u.j.U.`.`.'.'.).h.<.W q 2 7 7 7 ;.;.-.:.:.:.C C ;.;.:.:.:.:.-.-.C ",
"7 -.;.-.-.D -.-.-.-.-.7 -.;.-.-.;.;.;.C D ;.;.D b 0 g ; d ! ,.S.-X>X-X-X-X=X[.Y.m.j.n.b.m.m.n.j.j.v.B.^.).^.B.t.%./ d , 7 -.;.;.D D ;.:.:.D D :.:.:.;.D -.;.-.-.",
"6 7 -.-.-.-.:.;.-.;.;.7 -.:.;.;.;.:.C V ;.;.D 5 p Q | | _ %.C.-XeXiXeXrXrXrX,X;X]._.).)._._.^.I.j.g.v.B.U.m.x.e.+.| W y 5 D :.D S D D :.:.;.-.;.:.;.-.7 7 ;.-.7 ",
"7 7 -.-.-.:.:.:.:.:.:.:.7 D :.-.D :.;.;.F V 4 0 ! &.V.Z.V.A.(.:XwXrXrXrXrXrXwX0X<X}.]._._.`.).T.B.b.v.b.v.g.d.k.k.r.o.! w 3 6 7 C -.D -.:.;.;.:.;.-.D -.:.:.7 7 ",
"7 7 7 7 D :.;.;.:.:.:.-.D D :.:.;.:.;.;.F 4 e Q %.Z.*X9X>X;X>X1XwXwXwXqXqXwXqXwX1X:X].).^.^.^.^.^.I.b.g.f.u.d.c.J.L.l.O.W w 3 6 D ;.D C D D -.:.:.;.-.-.:.:.7 4 ",
"7 7 7 7 D D D -.:.:.-.7 -.-.;.;.;.;.D C n p z &.Z.=XrXuXuXtXyXeX3X2X2X1X1X1XqXeX2X<X[.T.I.U.T.).^.T.B.g.e.e.e.v.L.{.L.a.X.W w v 7 -.D C N D -.;.:.;.;.;.;.:.7 6 ",
"7 7 7 C 7 7 D ;.;.:.;.;.7 -.;.-.C C 6 3 0 z %.Z.=X,XrXtXpXaXaXaX4X3X2X,X,X1XqXeX3X,X[.T.I.U.T.^.^.T.m.g.e.e.u.x.b.K.L.J.a.O.' l i 7 :.:.-.;.;.D 7 D ;.:.;.;.;.7 ",
"-.7 -.-.-.D -.D -.-.-.-.-.-.-.-.D D 4 y Q &.Z.-XqXwXeXyXaXdXsXaX4X3XqX1X,X1XqXqX2X;X].^.I.I.T.^.^.T.b.g.t.e.d.f.f.z.N.E.L.l.o.U w 4 -.;.;.;.;.;.7 7 :.;.D -.7 -.",
"7 7 -.-.;.:.-.-.D D D -.;.-.-.-.D n a ! &.Z.-XrXtXtX3XyX6X6X6X6X4X3X2X,X0X2X2X,X;X[._.^.I.U.T.T.^.T.m.g.t.t.d.t.u.u.N.Q.oXP.w.T 8 3 7 ;.;.-.;.:.-.C ;.C 7 7 7 7 ",
"4 7 -.-.-.-.-.;.;.D -.;.:.;.;.7 v y Q ,.Z.=X9XrXtX4X5X6X6X6X5X4X3X2X2XqX2X2X2X;X[._.T.T.T.T.T.).^.T.B.g.d.t.d.d.6.d.M.{.{.P.&.Y 8 3 -.:.;.D D -.;.;.:.-.D :.C 6 ",
"7 7 -.C -.-.C -.D -.N ;.;.;.-.4 8 h %.Z.-XeXwXqXeXaXaXsXdXsXyX3X2X1X2X2X2X1X<X[.^.U.U.T.T.T.T.T.^.U.m.x.f.t.f.d.u.d.M.E.!.H.0./ q t 6 7 C D ;.;.;.;.D C C :.-.V ",
"7 7 7 -.-.-.7 6 7 7 N -.C -.7 2 > I &.S.eXiXrXqX3XyXaXdXdXyXtXqX0X0XqX2X,X;X[.).I.I.I.T.T.T.U.U.I.m.v.z.d.f.f.f.d.d.x.J.J.H.r.X.! y t 3 6 D :.:.:.-.V 6 V D D C ",
"7 -.:.:.;.-.C 7 -.7 N -.;.:.:.6 > ; %.S.9XiXrXqXeXuXpXfXpXpXtXeXqXqXqX1X;X[./.T.I.I.U.T.T.T.U.U.b.x.f.f.f.f.f.f.f.f.g.x.x.M.H.a.O.] l t 6 D -.;.;.;.;.C V -.D 7 ",
"7 C -.-.;.:.-.-.-.D D -.:.:.D b y R &.S.9XrXrXwX3X>X-X*X*X;X;X,X0XqX2X:X[.).T.I.^.^.T.T.^.^.U.m.x.f.f.d.f.f.f.f.f.d.d.d.f.N.W.L.l.o.U 0 5 V D D C D ;.;.D -.C 7 ",
"7 C 7 7 -.:.:.:.;.;.-.-.-.N 4 y ` %.d./.=X0XrXwX-XS.5.5.,.5.U.=X<X0X:X[./.U.I.I.I.T.T.T.^.^.U.n.g.u.e.t.f.f.f.f.f.f.u.e.e.N.{.~.P.w.E 8 3 6 D S 7 V ;.:.;.D C V ",
"7 7 7 C -.-.-.C D D N C 5 t 0 ` <.g.T._.'.8XrXwX*X*.^ $ $ E ,.Y.}.<X]._.T.T.U.U.^.^.T.T.^.^.U.n.g.t.e.f.f.f.f.f.f.f.e.e.f.N.Q.~.H.>.T q 3 6 C D 7 6 -.:.:.C 6 6 ",
"6 7 7 -.-.7 7 7 7 7 7 7 3 8 d ' 2.h.I.R.^.[.:X*XV.@.O X # ^ *.6.T.`.T.T.T.T.T.T.T.T.T.T.^.^.T.I.x.f.e.f.f.f.f.f.f.f.d.s.d.N.W.W.G.O.U 9 4 D D ;.C C ;.:.;.7 6 4 ",
"6 6 V -.-.7 7 7 7 7 7 7 3 9 I ) %.1.d.m.I.T.A.5._ $ # J $.=.=.[ >.s.I.I.^.T.T.T.T.T.T.T.^.).T.B.x.d.t.d.f.f.f.f.f.f.d.e.d.M.E.W.l.&.T 9 b -.:.:.:.;.:.:.;.7 6 7 ",
"6 6 V C C V 7 7 7 7 7 7 4 t I Y Y Y | d.m.h.,.^ @ + K 9.%X&X%X^ E { g.^.`.^.T.T.T.T.T.T.T.^.T.B.j.d.f.d.f.f.f.f.f.f.d.e.d.N.W.W.G.+.U 9 4 7 ;.;.D N C -.;.-.D 7 ",
"7 7 V -.;.;.V V V C C C 6 y j % @ O T 4.m.e.) O X + #.9.7X7X9.K $ W f.).'.^.T.T.T.T.T.^.T.T.I.b.g.f.t.f.f.f.f.f.f.d.d.d.f.K.Q.W.l.O.U 8 4 7 ;.:.7 5 7 D :.;.D C ",
"V 7 V :.:.:.C -.-.:.:.:.n a j $ X   L 1.m.7.I . X + 8.9.%X%X$.# . I f.).}.^.T.T.T.^.^.T.T.U.b.x.f.f.f.f.f.f.f.d.d.d.f.z.M.E.Q.L.l.O.U * 3 N :.:.D 6 7 ;.:.C 7 V ",
"7 7 V -.:.:.:.-.N D ;.:.6 y j % O o Y 4.m.6./ O o K #.8.9.#.K + $ ( g.).'.).T.T.T.^.^.T.B.b.g.f.f.f.f.f.f.f.f.d.e.d.z.M.L.~..XW.a.+.T 9 4 C :.:.;.-.;.:.:.D 7 7 ",
"6 7 C -.;.:.:.;.7 N D :.n t j L L L | y.U.g. .L K K P K @ + + $ / >.n.).`.^.^.^.T.^.T.U.b.g.f.e.t.f.d.d.d.d.e.d.f.z.v.J.!.oXOX.XH.1.U 9 5 -.:.:.;.;.:.;.;.-.D 7 ",
"7 C -.;.:.:.;.;.:.-.D ;.6 t g T [ X.6.n.T.A.d.X.^ P @ X X + $ / <.h.n.).`.^.^.^.^.T.A.n.g.f.t.e.f.f.d.e.e.e.e.d.z.M.K.L.!.oX#X#X|.i.T * 3 ;.:.-.D D -.-.-.-.D C ",
"7 -.;.-.;.:.;.;.:.:.;.-.4 0 g ] 2.g.T.).T.).^.g.+.~ @ X X @ ( 0.I.).^.I.^.^.^.^.^.I.b.f.f.f.f.f.f.f.f.f.d.d.d.g.M.L.W.W.!.OX$X@X|.i.U * 2 V ;.;.;.-.;.;.:.:.-.C ",
"7 D ;.C D :.;.;.;.:.-.D 4 0 g } t.^.`.`.I.).'.).d. .L $ $ E <.B.'.}.).T.U.U.U.A.I.n.f.d.e.d.d.d.d.f.f.z.z.z.x.K.W.!.~.oXoX+X@XXXD.o.j 0 4 7 -.:.:.:.:.:.:.:.;.C ",
"C 7 D n 7 D D D -.D 7 7 1 9 g X.f.U.^.A.n.I.).`.U.d.<. .%.2.g.T.'.'.).T.m.n.n.j.j.g.s.e.6.e.d.e.e.d.f.x.N.K.E.!.~.oX+X#X$X@XXXq.X.! v n -.:.:.:.:.:.:.D C ;.C C ",
"7 C D D S C D D D S S D 3 8 g ] 3.g.b.v.g.b.^.^.T.U.n.j.j.m.I.).`.`.).I.n.g.f.f.g.f.k.s.f.z.f.d.d.z.M.L.!.!.W.W.W.W.OX#X@X|.D.] k i D C D -.;.:.D C ;.C V V C C ",
"7 D :.-.D D C D S S D -.6 , w R ] <.r.z.c.N.B.I.U.b.m.U.).).).^.I.I.U.B.v.f.z.z.c.M.M.n.N.N.M.x.x.K.!.oXOX XH.l.k.k.P.|.|.F.o.g , 6 ;.:.C D -.;.C V -.C C V 7 C ",
"C -.;.:.:.:.;.;.D D 7 7 6 6 b p z } w.G.E.{.^.n.6.2.2.6.n.T.^.I.I.I.I.I.v.x.M.K.W.W.!.!.Q.W.W.E.E.~.+X$X@X|.r.o.} o.1.i.p.8.| U i V F :.:.:.:.:.:.:.:.:.:.C C C ",
"7 C ;.;.:.;.;.;.:.;.D C V D D n y R X.a.E.Q.R.s.,.' ( ..6.g.v.f.f.g.6.6.e.d.z.M.W.W.W.W.E.W.W.E.E.~.OX$XXXD.X.T g T / ^ / / Q s Z D F F ;.;.F ;.;.;.;.:.:.-.-.C ",
"7 C :.-.-.;.;.:.:.:.:.:.:.:.;.C b 9 W O.l.H.k.>.) I I T } >.2.>.<.>.>.>.<.>.3.r.l.l.l.l.l.l.k.k.l.G.|.|.F.8.E = & - - - = = r S ;.D D D V V D D C V V ;.:.-.C C ",
"V C -.-.;.:.-.D D ;.:.:.:.:.;.-.7 4 l ' o.+.O.] / I I Y ( ] { ] ' ' ] ] ' ] } X.o.o.o.o.o.o.o.o.o.O.8.0.+.| c r 0 r k k k p G F D V V D C V S S V V C ;.;.;.C 7 ",
"7 C -.;.;.-.-.C C -.-.C :.:.;.-.C C b l R / / T U Y : Y U ^ U U T T T T U U T E E E E E T T E T E E E / T Q x m G m s s m Z S :.-.S N D S N N N 7 7 -.-.-.-.C 7 ",
"7 C ;.:.C V V -.-.-.7 7 -.;.-.;.;.:.N 4 0 = f j j U ^ h : : : f : : f f f h f f f : : q : - : : f : : & e p m A A A Z Z S F -.:.-.S N N N N 7 7 7 V ;.-.-.-.C C ",
"V -.;.-.V 7 6 C :.:.:.;.:.;.C -.:.:.;.D n i p c c c x k k r x x x x p p x x x p p p x p r e e e p p x e p p s G H H H S -.-.:.;.:.-.S n 6 N D D C -.-.-.;.:.C C ",
"V C ;.-.D C C C :.:.;.:.;.;.;.:.:.;.:.;.D S b M G H G s s s G s m m s s m m G G s G G s s s p s G G G m G Z G G H A Z D -.;.F ;.:.:.-.D D D -.-.;.;.;.-.-.;.-.C ",
"7 C :.:.:.:.:.;.:.-.-.C -.:.:.:.:.;.;.;.;.N N N A F S S Z H H A A A A G m m M M A A A A A A A G A G m s Z Z S Z Z n S D D D C D ;.;.:.:.;.:.:.:.:.:.:.-.C -.C 7 ",
"7 7 -.:.;.C ;.:.;.-.C 7 -.:.:.;.-.-.N D :.:.;.7 F ;.F S Z A H H Z G m G m s s s m s G A G m Z G G m m s Z Z F C D S V S ;.:.;.D -.:.:.:.:.:.;.:.:.-.-.-.;.C 7 6 ",
"7 C -.:.-.V -.;.;.-.C -.-.;.:.-.N -.C -.:.:.;.C F ;.;.D Z M G Z Z m m G Z m m m G m Z A m i m Z Z m s s G S F C C -.D D :.:.F C -.:.:.:.:.-.-.:.;.-.C ;.:.C 7 6 ",
"7 -.:.:.;.-.C -.:.-.7 7 C 7 7 7 -.;.;.:.;.7 7 ;.:.F :.:.C Z 5 Z Z S S S S N Z S V S S Z V Z 5 Z V Z 5 3 Z V C C D ;.:.:.-.S V :.;.-.:.:.:.C C ;.:.:.:.:.:.:.-.C ",
"7 C ;.;.-.C -.-.-.-.C 7 -.;.-.-.;.;.F D D ;.;.;.F D ;.:.F C S D -.-.D V 7 -.;.;.D D D D D V S D V C C Z D F D D ;.;.F C D ;.;.;.-.D -.:.:.D D ;.:.:.;.D C :.-.C ",
"7 C C -.-.-.:.;.-.;.:.C -.:.;.;.;.:.C V F ;.:.D S D F ;.:.;.F ;.:.;.D V S ;.:.;.D -.D -.D -.;.;.C ;.-.C ;.:.:.;.;.;.D V ;.;.;.D D S -.:.:.;.;.:.:.;.-.7 7 :.-.V ",
"7 V C -.-.:.:.:.:.:.:.:.C C :.-.;.;.;.;.;.F D S D D F ;.:.:.;.:.;.-.C -.;.:.-.D -.D D D ;.:.:.:.:.:.:.:.C C :.;.;.:.:.;.;.F D V D D D ;.:.:.;.:.;.-.D -.;.:.C 6 ",
"7 7 V C -.:.-.:.:.:.:.-.C -.:.:.;.:.;.;.;.;.D V D F D C F D F ;.:.:.-.-.;.:.D S ;.D S V D ;.;.;.:.:.:.C C C :.:.;.:.;.;.;.;.D V D ;.D D D D D :.:.;.-.-.:.:.7 5 ",
"7 7 7 7 C C C -.:.:.-.C -.-.:.;.;.;.-.;.:.:.;.D F :.D C C C D ;.:.;.-.;.:.:.D C ;.D 7 7 C D D ;.:.:.;.C C ;.:.:.;.;.-.-.:.:.-.D D ;.-.C C C D ;.:.;.-.-.:.:.C 5 ",
"C 7 7 C C 7 -.;.-.;.;.-.C -.;.-.C C V D :.:.;.;.F :.:.:.F ;.:.D C C :.:.;.-.;.:.:.D 7 V V V D -.;.:.C C C -.C C V C C D :.:.;.;.;.:.:.:.-.:.:.D V D ;.:.:.-.C 7 ",
"6 6 7 7 7 7 C 7 V V V V C C C V V V V C C C C C C C D D C D D D 6 6 C 7 7 V D -.D V 7 7 V V V C C V V V C C C V V V V C D D D C D C -.C D C D D 6 6 C C 7 7 7 6 ",
"4 5 6 7 C C 7 6 6 6 6 7 7 7 6 7 C V C V 6 6 C C C V 6 V V V V C 6 6 7 6 4 6 7 7 7 6 7 7 V V 7 6 V 5 V V C V V V C V C C 6 6 7 V V 7 7 7 7 7 V C 6 6 7 6 5 5 5 5 "
};
