/* XPM */
static char *Group_6_3__resized[] = {
/* columns rows colors chars-per-pixel */
"80 80 225 2 ",
"   c #06051B",
".  c #0C0725",
"X  c #130B2A",
"o  c #141C2D",
"O  c #120831",
"+  c #191837",
"@  c #261839",
"#  c #1C3829",
"$  c #192235",
"%  c #1B2839",
"&  c #1D333E",
"*  c #233D25",
"=  c #273B2B",
"-  c #243C2B",
";  c #273D35",
":  c #294B1B",
">  c #2F5316",
",  c #2E531C",
"<  c #30561E",
"1  c #335C1D",
"2  c #36621D",
"3  c #38661C",
"4  c #3C6D1D",
"5  c #3F711E",
"6  c #264324",
"7  c #284726",
"8  c #2A4C25",
"9  c #26432C",
"0  c #2B4629",
"q  c #2B4C2A",
"w  c #314D2C",
"e  c #2E5325",
"r  c #2E532C",
"t  c #2F5B2B",
"y  c #335B21",
"u  c #365827",
"i  c #34532D",
"p  c #335B2B",
"a  c #3A5D2C",
"s  c #294133",
"d  c #294638",
"f  c #2B4E3C",
"g  c #324D34",
"h  c #2D5339",
"j  c #345536",
"k  c #3B5B32",
"l  c #376424",
"z  c #3A6523",
"x  c #3C6B23",
"c  c #3D642C",
"v  c #3F682B",
"b  c #3F7220",
"n  c #3E6231",
"m  c #41751F",
"M  c #43781F",
"N  c #406F26",
"B  c #40662F",
"V  c #416B2D",
"C  c #417621",
"Z  c #457726",
"A  c #457C21",
"S  c #406631",
"D  c #416A30",
"F  c #1F1A43",
"G  c #282442",
"H  c #253245",
"J  c #2C3352",
"K  c #333459",
"L  c #443657",
"P  c #274643",
"I  c #2A4C44",
"U  c #2B4D4B",
"Y  c #304F46",
"T  c #2D5342",
"R  c #2C524B",
"E  c #2F5948",
"W  c #315442",
"Q  c #325A48",
"!  c #2D4D51",
"~  c #354C54",
"^  c #2D5452",
"/  c #2F5B54",
"(  c #335456",
")  c #325B54",
"_  c #325D5A",
"`  c #346149",
"'  c #36665A",
"]  c #34645D",
"[  c #3A715E",
"{  c #356665",
"}  c #356B63",
"|  c #3A6D63",
" . c #3A7165",
".. c #39746A",
"X. c #3A746D",
"o. c #3E7B6C",
"O. c #397572",
"+. c #3B7A79",
"@. c #4F5071",
"#. c #437D6D",
"$. c #487B6B",
"%. c #4E6F72",
"&. c #417F71",
"*. c #65617E",
"=. c #478022",
"-. c #498423",
";. c #4C8924",
":. c #3F8467",
">. c #3E8279",
",. c #48816B",
"<. c #448474",
"1. c #458A76",
"2. c #46887A",
"3. c #4A8F7C",
"4. c #558B7B",
"5. c #4A947A",
"6. c #4A937D",
"7. c #5F6C8D",
"8. c #697086",
"9. c #3E8488",
"0. c #3F8A93",
"q. c #438C84",
"w. c #448C8D",
"e. c #4B9583",
"r. c #4E9D85",
"t. c #4E9E89",
"y. c #579A86",
"u. c #509F85",
"i. c #438C96",
"p. c #499C93",
"a. c #619C87",
"s. c #4FA287",
"d. c #4FA088",
"f. c #51A187",
"g. c #51A38A",
"h. c #55AA8E",
"j. c #59AB8A",
"k. c #57B18E",
"l. c #4CA296",
"z. c #4CA49B",
"x. c #55AC92",
"c. c #53AC96",
"v. c #57B595",
"b. c #59B594",
"n. c #5CBA96",
"m. c #56B29B",
"M. c #5DBD99",
"N. c #65A68C",
"B. c #69AE94",
"V. c #67B796",
"C. c #73B899",
"Z. c #4799A5",
"A. c #51AFA6",
"S. c #56B8A6",
"D. c #59BBA4",
"F. c #53B4AC",
"G. c #59BDAA",
"H. c #4CA5B5",
"J. c #52B2B1",
"K. c #5EC39B",
"L. c #61C59D",
"P. c #69C29C",
"I. c #63C99F",
"U. c #71C09E",
"Y. c #5BC2AD",
"T. c #5AC4B3",
"R. c #5ECAB5",
"E. c #5BC7BC",
"W. c #5DCABB",
"Q. c #64CCA1",
"!. c #6ACEA3",
"~. c #7AC8A5",
"^. c #67D2A4",
"/. c #69D4A6",
"(. c #69D7A8",
"). c #6BDAAA",
"_. c #74D7AA",
"`. c #7BDBAD",
"'. c #68D3B8",
"]. c #6FE3AF",
"[. c #76E7B3",
"{. c #56BEC7",
"}. c #57C1C7",
"|. c #5FD1C2",
" X c #5AC8D9",
".X c #61D6CA",
"XX c #62DAD5",
"oX c #66E1D6",
"OX c #62DBE6",
"+X c #68E8EA",
"@X c #66E4F2",
"#X c #6CF3F2",
"$X c #8C90A8",
"%X c #A3A4B8",
"&X c #81CBA9",
"*X c #82D2AB",
"=X c #8ADAB2",
"-X c #94DEB7",
";X c #86E6B6",
":X c #8AE5B6",
">X c #8DEAB9",
",X c #97E6BC",
"<X c #95EEBE",
"1X c #96F0BF",
"2X c #9AF1BF",
"3X c #A9F4BF",
"4X c #BCFABF",
"5X c #D0FEBF",
"6X c #ACB6CA",
"7X c #98EEC2",
"8X c #95F2C2",
"9X c #9CF3C2",
"0X c #9DFBC8",
"qX c #A2EECA",
"wX c #A1F6C5",
"eX c #A8F6C9",
"rX c #A5FBCB",
"tX c #B2FAC5",
"yX c #B7FAC9",
"uX c #A9FDD1",
"iX c #B5FED4",
"pX c #C7FEC7",
"aX c #D4FFC4",
"sX c #DAFFC7",
"dX c #CFFCD2",
/* pixels */
"> 2 m 4 4 m m m m 4 4 5 M 5 M m 5 m m m 4 4 m M M m M m 4 4 4 4 m m m m 4 M M 4 2 4 5 4 4 5 5 m m 4 4 5 5 M M m 5 M 5 5 5 4 5 5 y 9 d q e 2 4 5 5 5 M 5 5 M 5 1 ",
"3 4 m m m A 5 5 m 4 5 A M M M 5 5 m m 5 4 5 m M m 5 5 5 5 m M A M M m 4 m M =.M M m m m m M 5 5 5 5 m M M M m 5 5 5 5 5 5 5 5 4 t 9 # q < b A A A 5 5 5 5 M m 4 ",
"M M m M A A m m 5 m M =.A A M M m M m N m M A m m C 4 5 5 =.;.;.;.-.m m m =.-.;.;.=.C A =.M m 5 5 M M =.A A A b M M 5 5 5 A M 4 y 0 0 w 2 A ;.;.;.=.M 5 5 A =.M ",
"m M -.;.-.A C C M m m =.-.-.;.;.-.=.m m M -.;.-.A A -.-.-.=.=.-.;.-.M M m M -.-.=.-.-.-.-.=.M m M 5 m =.-.;.;.-.-.=.M 5 A -.-.=.b x x C b =.-.-.-.-.-.M M =.M 5 ",
"4 M A -.-.;.-.A =.A A =.;.;.;.-.;.-.A A ;.;.;.;.;.;.;.;.-.A A A A A -.-.M A -.-.A -.A =.-.;.-.A -.M A =.;.;.;.-.-.-.-.A -.;.;.;.A A -.A -.A A A M M -.-.A =.M 5 ",
"m m m m A ;.;.;.-.-.=.-.;.-.=.A A ;.;.;.;.;.;.;.;.;.;.;.-.A A m 5 5 -.;.;.A -.-.-.A C C -.;.;.;.-.-.=.-.;.;.=.A =.;.;.;.;.;.;.;.;.;.;.;.A C M M 5 5 -.;.-.M M 5 ",
"4 m m M A A A A A C C C C A -.-.-.-.A M A A A -.-.;.;.-.-.A C A 4 5 -.-.;.A m M A A C A A A A A M A 5 A b A -.-.-.-.A M A A A -.;.;.;.;.;.A C A 5 5 =.;.;.A 5 3 ",
"4 4 m M A C C m b 5 5 5 5 5 A -.;.-.A M A C C M A ;.;.;.;.A A -.m A -.;.-.m 5 m A m C A A C 5 C 5 5 5 b 5 5 A -.-.-.A A C m A m A ;.;.;.;.A -.A M M -.;.;.b 4 2 ",
"4 5 m A A 5 5 b 5 5 b 5 5 5 4 A A A ;.;.;.A C 4 M -.;.;.;.;.;.;.-.-.-.;.=.C C A A A m A A 4 5 b 5 b b b 5 4 x A =.A -.;.;.=.C 5 C ;.;.;.;.;.;.;.-.-.;.;.-.4 4 4 ",
"4 5 m A A A 5 5 5 5 5 5 b A b =.-.-.;.;.;.-.A -.;.;.;.;.-.-.-.-.A m A -.;.A -.-.A C m A A A m 4 5 5 5 4 C A A A -.-.;.;.;.-.A =.;.;.;.;.-.A -.-.A 5 A -.;.-.M m ",
"4 5 M =.=.A b 5 C A A A A =.-.;.;.-.;.;.;.;.-.;.;.;.;.-.A A -.-.5 4 4 A ;.-.;.;.=.M m =.-.A C m C A A A A -.;.;.;.-.-.;.;.-.-.;.;.;.;.;.M A -.;.5 4 4 A ;.-.A M ",
"M 5 C ;.;.;.A A =.-.;.;.-.-.;.;.;.A ;.;.A A ;.A -.;.;.-.m -.;.;.C 4 5 -.;.C A ;.;.=.C -.;.;.A A =.-.;.;.-.=.;.;.;.=.;.;.A =.-.=.-.;.;.A M A ;.;.C 4 4 -.;.m m m ",
"5 5 5 =.;.;.;.=.5 A -.;.=.=.;.=.A ;.;.;.;.;.;.A -.;.;.;.-.;.;.;.=.=.-.;.;.A A =.=.A m A ;.;.;.=.5 A -.;.=.A ;.=.A -.;.-.-.;.;.=.-.;.;.;.-.;.;.;.=.A -.;.;.M m 4 ",
"4 5 M =.-.;.;.-.5 b =.;.=.A ;.A M ;.A A ;.;.;.-.A ;.;.;.;.;.;.-.-.-.;.;.-.=.A -.A A A A -.;.;.-.m 5 A ;.=.A ;.A A -.-.A ;.;.;.=.-.-.;.;.;.;.;.;.-.;.;.;.-.-.M m ",
"5 M =.;.;.;.-.-.;.=.A -.=.=.=.;.;.A m m A -.;.C M A -.-.;.;.;.=.A A =.=.A -.-.;.-.=.-.-.;.;.-.-.;.A A ;.=.=.=.;.;.=.C 4 A -.;.M m A -.-.-.;.;.=.A A =.=.A -.M M ",
"5 M ;.=.-.;.-.-.;.;.-.=.-.-.-.;.;.M 4 N m A A m m C A A b =.=.-.-.-.=.-.;.;.;.;.=.-.-.-.-.;.-.;.;.;.-.=.=.-.-.;.;.A 5 5 m A A m b A A A A A =.-.-.=.-.-.;.;.-.M ",
"5 M -.M A ;.-.-.-.;.-.A A =.;.;.-.A A b b A C C A A A A A A -.;.;.;.-.;.;.;.;.;.A -.-.M A ;.-.-.;.-.=.A A -.-.;.;.A C C m C M A A A A A b =.=.;.;.;.;.;.;.;.=.M ",
"M M M 5 5 A A =.=.A 5 5 5 C -.-.;.;.-.A =.=.-.;.-.;.-.-.;.-.;.;.;.;.;.A 5 -.;.;.;.-.C 5 m A A -.=.A b b 5 C -.-.;.-.-.A A -.-.-.-.-.-.;.;.;.;.;.;.;.;.M m -.A M ",
"5 M -.M b 5 A A A 5 C A b 5 =.;.;.;.-.=.A A -.;.;.;.;.-.=.-.-.-.A A =.A 5 A -.;.-.-.A C m 4 4 x 4 4 4 4 4 4 A ;.;.;.-.-.A A -.;.;.;.;.;.=.-.-.-.=.A =.A C C M M ",
"5 M ;.=.A A M A C A A A m 5 =.-.-.-.;.-.A A =.;.;.;.;.-.b =.-.-.A 5 =.=.A 5 M ;.A -.;.A C 3 1 e , , 1 y 1 l =.-.-.-.-.-.A A =.;.;.;.;.=.b A -.;.M 5 A =.A 5 m M ",
"M A =.;.;.;.=.=.=.A 5 5 4 A -.-.=.=.-.;.;.;.;.=.=.-.-.;.;.;.;.;.;.;.;.;.;.A -.;.;.-.-.-.C e 0 - 9 * = - : 1 -.;.-.A -.;.;.;.;.=.=.-.-.;.;.;.;.;.;.;.;.;.-.A M M ",
"m M -.-.;.;.-.;.;.-.A A A =.;.;.-.M =.-.-.=.=.=.-.-.=.=.-.-.-.-.-.A m M A 5 5 A A C M C l h T R R R R R f p b =.=.A A -.-.=.=.=.-.-.=.=.-.-.-.-.-.-.=.;.;.-.M M ",
"5 M ;.-.=.=.-.-.;.;.;.;.;.;.;.;.-.M A A M 5 C ;.;.A A M 5 5 =.M 5 3 , < y < 1 y 1 z l y h E X.&.&.<.2.<.[ Q l b A m M A C m C ;.;.=.A A 5 5 =.A A M m -.;.=.M M ",
"m M A =.;.;.-.A A -.;.;.;.;.-.-.A A C m m A -.;.-.5 5 M =.M 5 5 3 , 6 # # * 9 6 - * * 9 T ' 3.g.h.k.b.b.5.[ T e 1 5 C m m A -.;.-.5 5 M =.M b b 5 5 A =.-.-.M 5 ",
"m M -.-.-.=.A A A =.A M -.;.-.=.A =.A A A -.-.;.-.5 5 5 4 3 2 2 y r W ) ) Y R R R I I / | 1.h.n.K.Q.(.^.b.<./ 9 , C M M M =.;.;.=.5 5 b A b b 5 5 5 =.=.=.=.M 5 ",
"5 M -.;.A 5 M A =.=.A 5 =.-.=.=.-.;.-.=.;.-.-.;.-.5 5 3 : : : : q ` ,.a.N.a.4.2.:.o.o.<.r.h.M.L.Q.^.).].L.e.] s < A ;.-.;.;.;.;.;.b 5 5 5 5 5 5 5 m -.-.=.=.M m ",
"m M -.=.M 4 4 M ;.;.-.-.;.-.A =.;.;.;.;.;.;.-.-.-.-.b < 6 # # # T ,.C.=X=X&XU.V.h.s.s.k.b.K.K.n.x.n.Q.(.K.3._ s < =.;.;.;.;.-.;.-.-.C 4 5 5 b A M A =.=.-.-.A M ",
"m M -.=.=.M m M ;.;.;.-.;.-.=.;.;.;.-.;.-.=.=.-.;.=.l r I ^ ! ^ $.N.:XeXuX9X:X`.^.Q.I.I.Q.Q.L.b.x.x.n.Q.b.5.] f 8 N =.-.-.-.M =.;.;.=.A A A -.-.-.-.-.=.=.-.=.m ",
"m M ;.;.;.;.-.;.-.=.A A =.-.;.;.;.-.=.=.=.A b -.5 5 u ` $.y.a.y.B.*X9XuXiXuX0X8X;X[.]./././.I.M.b.b.b.M.b.u.&.` d e l A =.M M =.;.;.-.;.;.;.;.;.;.;.;.=.A A M 5 ",
"4 M =.;.-.M -.;.-.=.A m =.;.;.;.=.A A A -.;.-.b 2 8 Q $.B.*X=X*X=X,X2X9X9X9X0X9X>X;X).^.I.I.I.I.L.M.b.b.x.g.e.#.' f 8 2 =.;.-.A A ;.;.;.;.;.-.;.;.-.=.=.=.A 5 4 ",
"5 M -.;.=.M =.-.-.=.A b A -.-.A A A A A -.-.b 2 8 h #.B.-XeXiXeX9X2X2X1X1X1X9XwX9X;X_.K.K.K.I.Q.Q.L.b.h.g.g.h.r.<.] h e b M =.A M ;.;.;.-.=.=.;.;.=.M ;.;.A 5 4 ",
"m M ;.;.-.M M -.;.A b A M A m A A -.;.;.-.5 1 8 T ..V.-X3XpXdXpXyXtX2X<X<X1XwXrXwX>X`.I.K.K.Q.Q.^.L.b.g.t.g.x.x.g.5. .h e < 4 -.;.=.-.;.;.M M -.-.;.;.;.;.-.=.M ",
"5 A -.-.=.A =.=.=.=.A 5 A -.=.A =.-.-.M M 1 0 Q $.B.-XyXpXaXaXaXpX3X2X1X<X1X9XwX2X:X_.I.L.L.I.Q.^.L.n.j.d.r.g.b.M.n.r. .f 8 2 A -.M -.;.;.A A -.;.;.-.M M ;.-.M ",
"5 5 =.=.=.=.;.-.A -.;.5 =.;.;.-.-.;.M 4 z p W $.B.=XyXpXaXsX5X5X5X3X2X1X1X1X2X1X>X`./.I.K.L.Q.Q.Q.L.b.h.t.e.g.b.Q.^.V.t. .Q c z x b A -.;.-.=.-.;.;.=.5 5 ;.=.5 ",
"5 5 =.A -.;.;.;.;.;.;.;.5 A ;.-.=.-.5 2 t Q $.C.-XtXpXsXaX5X5X4X3X2X2X9X9X2X1X;X`._.Q.I.L.L.I.Q.^.I.n.h.t.r.r.b.Q./.(.Q.s.:.` q , 4 m -.;.-.-.;.-.=.=.=.-.;.M 4 ",
"5 5 5 5 A -.=.;.;.;.;.=.A =.;.;.;.-.3 8 Q $.B.-XeXpXaXsXaXaX4XeX2X1X2X9X9X2X>X`.^.I.I.I.L.I.I.Q.Q.L.b.h.r.r.f.x.n.Q.(.(.M.e.} d 8 3 5 A =.A =.;.;.-.=.=.;.;.5 3 ",
"5 5 5 5 M =.A =.;.;.=.M -.-.-.-.-.A 1 # ^ 4.~.eXyXpXpXaXaXpXuX9X0X8X2X2X1X>X`./.L.K.K.L.I.I.I.L.K.M.k.h.t.r.t.h.b.K.I.L.k.5.[ g e 4 C A m M A -.;.-.=.-.;.-.5 4 ",
"5 5 5 A 5 5 A =.;.-.-.=.5 A -.A M M > * U 2.&XqXiXyX4XyXyXdXiXuX0XrXwX1X:X`./.P.L.L.K.I.Q.I.L.K.n.k.h.g.d.d.t.x.k.b.j.6.o.` p l b M ;.;.=.;.-.A 5 A ;.;.;.=.A M ",
"5 M A A =.A =.=.=.=.=.=.A -.A -.=.5 > 7 ) 4.~.wXuXwXwX2X7X-X-X,X7X8X2X>X`.!.I.L.I.I.I.I.^.I.L.n.k.s.d.d.d.g.g.h.h.g.e.o./ h e 5 -.-.-.-.-.-.;.-.m m -.-.M M b M ",
"5 5 =.-.-.;.=.A A A A =.-.-.A -.b 4 t E ,.N.*X9XuXrX1X=XU.N.a.N.C.*X>X;X_.L.K.K.I.I.I.I.I.^.L.n.h.r.r.d.g.g.g.h.h.g.e.+./ T t A =.A -.-.=.-.-.-.A M -.M 5 A M 5 ",
"3 5 -.=.=.-.-.-.-.A A -.-.;.-.5 l r ` :.k._.:XwXiXiX7XU.y.~ ; H | j.`.[.].^.K.K.I.Q.I.I.Q.Q.L.b.h.t.r.t.g.g.g.g.g.g.d.p.q.O.` t 3 N =.;.=.M M -.-.-.;.A M ;.M m ",
"5 5 M =.=.=.=.5 -.A A -.-.=.A 2 8 f ] 5.K._.;X9XeXwX~.y.~ X . @ ~ ,.V./.).I.K.I.I.I.K.Q.Q.!.L.n.h.g.r.g.g.g.g.g.r.g.m.G.G.p.X.T 8 1 m M M =.-.-.;.;.M m M ;.M m ",
"M M 5 M =.=.5 5 5 5 b =.A A 5 < 9 U { >.h.U.`.;X=X~.y.( @ X @ L @.%.&.e.k.I.I.^.I.I.Q.Q.Q.Q.L.n.x.g.r.g.g.g.g.u.r.f.D.'..XF.q.U - , 3 N m A ;.;.;.M M m m M M M ",
"5 M ;.;.-.-.5 5 -.5 5 A -.-.;.x r I U ! _ 6.V.!.B.4.~ $ + J *.$X$X8.( ] >.K./.^.Q.I.I.Q.I.^.I.K.h.g.u.g.g.g.g.f.u.g.m.R.R.A.9.P 6 1 M ;.-.-.-.-.-.;.A M M -.m m ",
"5 5 -.-.-.;.-.=.-.5 -.=.;.;.-.x r P ; $ % _ j.V.5.! o . O @.$X6X%X*.G ;  .n.).).Q.I.I.Q.Q.Q.L.b.h.g.t.g.g.g.g.t.u.g.m.R.G.A.+.I 7 3 A ;.;.A A M M M ;.A M -.M m ",
"5 5 5 5 =.;.;.;.;.-.-.-.;.-.=.l r P + . X U e.h.:.$   . F 7.$X6X$X@.X o _ b.).).Q.I.Q.Q.I.K.b.h.g.g.f.g.g.g.g.u.u.u.b.Y.G.z.+.I 7 3 A ;.A A M M m m -.;.-.M M M ",
"5 5 5 A =.=.A A -.5 b b 5 =.-.x r P $ . X U e.k.>.& . O J 7.7.7.@.@ X % | b.).).Q.Q.^.I.K.b.k.s.g.g.g.g.g.g.g.u.u.u.v.Y.G.z.+.I 0 3 A ;.;.A M M m N A ;.;.M m 3 ",
"5 5 5 =.A 5 5 5 b 5 5 5 5 5 5 l r P & % H | h.n.e.^ F F J J K J @ + % Y <.K.(.).^.I.I.K.b.j.s.f.d.d.g.g.g.g.g.u.u.g.D.W.}.A.2.I 0 3 A ;.;.A -.M m M ;.;.;.m 3 1 ",
"4 4 5 =.M 5 5 5 5 5 5 5 5 5 4 1 q I ! ( | e.n.L.j.<._ ~ J @ O . O % ^ <.j.I./.).Q.L.K.n.x.g.r.r.d.g.g.g.f.f.u.f.g.m.W.oXOX{.w.U 6 1 M ;.;.;.;.;.;.A ;.;.-.m N m ",
"4 4 5 =.M M 5 5 5 5 5 5 5 -.b 2 q I ] 2.h.L.I.I.I.M.3._ H X     % ^ 3.n.Q.Q.^.^.Q.L.b.h.g.g.g.d.d.g.g.g.f.r.r.g.c.G.XX+X@X}.i.U * 1 -.;.-.-.-.-.M M M -.;.-.m m ",
"5 5 5 -.-.-.M 5 5 M M M =.-.=.l 8 I | g.L./.^.^.).).V.2.^ % o $ ! 1.M.(.).L.L.I.L.n.x.g.r.g.g.g.g.g.g.g.r.g.g.c.D.T.XX@XOXH.+.I , N -.;.M A ;.-.m N m M ;.A M M ",
"M 5 5 ;.;.-.=.M -.;.;.;.-.-.-.3 q U  .r.L.^.^./.].].^.k.1.' ^ ] <.h./.).^.M.b.b.b.x.g.t.r.d.g.g.g.f.f.r.s.x.m.G.Y.T.E.J.Z.+.` e 1 M ;.A M A ;.;.m N m -.-.M m m ",
"5 5 M -.-.;.;.=.5 b -.;.=.A -.2 7 I { 6.b.L.Q.^.^./.I.L.b.j.g.j.b.L.Q.I.K.x.h.g.h.g.g.g.g.f.g.g.g.f.t.u.h.m.G.W.W.W.F.i.{ E p x A ;.;.;.A ;.;.;.M M ;.;.;.M m m ",
"4 5 5 =.-.;.;.-.M 5 A ;.=.A -.2 7 I { 3.x.D.K.K.I.I.K.K.b.K.K.Q.Q.^.L.M.h.g.u.r.r.g.g.f.f.f.f.f.f.f.d.g.c.S.E.|.oX.XF.+.P 6 1 m A ;.;.;.;.;.;.;.;.;.;.;.-.-.M m ",
"5 5 -.-.;.;.-.-.;.=.A ;.=.=.=.2 q I X.p.G.Y.M.b.n.V.n.s.5.5.s.n.I.L.M.k.g.g.t.t.r.s.r.u.u.u.u.r.r.g.x.c.S.G.T.|.+X+X{.9.d * < 4 m M A ;.;.;.;.A M M M M M -.M M ",
"5 =.;.-.-.;.-.;.;.;.-.=.-.-.-.l 8 I O.l.T.Y.m.h.h.k.r.>.' ' :.d.v.b.h.g.g.f.g.r.g.g.f.g.f.f.f.s.u.g.m.G.T.T.T.XX+X@X{.9.P = w u N M A A A A -.;.-.-.;.;.;.;.-.M ",
"5 A -.C A ;.-.-.;.;.-.A A -.-.4 e g { w.A.G.D.c.g.e.#.] ^ / | 3.g.h.u.r.t.u.f.f.s.s.x.c.h.l.x.x.x.m.Y.R.|.|..XXXOX XH.+.U d g a x C C A C A A ;.;.;.;.-.;.;.-.M ",
"m C A 5 m A A A -.b 5 5 5 5 =.A B j ) { q.c.Y.D.l.o.) ^ ] X.2.r.d.g.r.r.u.u.u.u.s.g.m.S.S.m.m.D.Y.R.W.|.oX+X@XOX{.Z.+.) g j n B V A -.;.;.;.;.;.;.;.;.A m -.=.M ",
"5 M A A C A m A A M b A b b A A Z B j Y _ q.A.F.p.{ R _ &.e.g.g.g.g.g.g.g.g.u.f.s.m.G.T.E.W.T.T.T.T.T.T.XX+X@X XZ.{ U g u a B B N A ;.;.A -.-.;.A M =.A 5 M M M ",
"5 M -.=.A A A A b M =.=.m b =.-.Z D i g d { q.l.w.{ ] o.r.b.n.h.x.x.m.m.m.m.m.c.m.Y.T.|..XXX.X}.F.z.p.l.F.{.{.H.+.P 0 i a B B B N A -.-.A A -.-.M m =.=.M 5 5 M ",
"M A -.;.;.;.-.-.=.C m 5 4 C ;.A N B a a j Q ] +.>.>.1.r.k.v.b.x.m.D.Y.W.W.R.R.T.R.R.W.XX+X#XOX{.p.O.} O.>.0.0.+._ g u y V V S B v C -.-.;.;.;.;.;.;.;.;.;.M M M ",
"m M -.;.-.-.-.-.;.-.A A A =.;.=.C a a B a j I )  .<.r.g.s.h.s.s.g.S.G.T.R.T.T.G.T.Y.T.E.XX@XOXH.O.U d R R ( ^ / j u a B B B a B N C A -.-.-.-.-.;.-.-.;.;.-.M M ",
"m M -.-.-.-.-.-.;.;.;.;.;.;.;.=.C z z B a w s d E o.5.r.1.>.<.>.3.p.l.z.z.z.z.z.z.p.p.z.J.{.H.9.( - * ; ; = = w k a B B a a a N C C A C 5 m M A M M m -.;.=.=.M ",
"M M M =.-.;.-.A A -.;.;.;.;.;.A M N 3 a a u u j Q ] }  .} ' ' ] } } O.O.O.O.O.O.O.O.O.O.+.9.+.{ W i w i i w w i u a a a a a N A A 5 m A M A C C m m A M =.-.M 5 ",
"m M =.-.-.-.A M A =.b A -.;.-.=.A A b z c n V n j U U R U U I U I R R R U R Y R R R R R ! ^ U h j c z a a v a a c c a a c v A ;.A b 5 b A b b 5 5 5 -.=.M -.M 5 ",
"5 M -.;.M m M A -.=.A 5 =.-.-.=.-.;.=.C N N N D k g d ; ; d s ; s ; s s ; s ; s s s 9 ; = = = i a B x u B V V B n D c c N A =.;.=.C b 5 5 5 b 5 5 M -.-.=.=.M 5 ",
"m M -.=.m 4 4 A ;.;.-.-.-.-.=.-.;.;.;.=.A Z V n n k g d g q w i g i i w i i i i i i i i w 0 0 u B V N B V c c B S S V V =.-.-.;.;.;.C b 5 5 A A M M =.=.-.;.M M ",
"m M ;.=.A A m A ;.;.;.;.;.-.=.-.;.;.;.;.=.C x v S D n c a a n n c c c c c B B B S a c B a a a a B V B B V v c B V v V A =.=.A -.;.;.A Z b A =.-.-.-.=.=.=.-.=.M ",
"5 M -.;.;.;.-.-.-.-.5 M -.;.;.;.;.=.=.-.=.b z b N Z A N V V D V V V V B c c v V B V V V V V V V B n k k c B N C b x C A =.A m =.-.-.;.;.;.;.;.;.;.;.;.-.=.=.M 5 ",
"5 5 =.;.-.A -.;.-.-.-.5 =.;.;.-.=.A A A -.;.A b A ;.A Z V V D D B v c B c a a a a B v B B B B B c n n i c C Z A A C C C -.;.-.A =.;.;.;.;.;.-.;.;.-.M -.=.M 4 4 ",
"5 M -.;.-.M =.-.;.=.5 =.=.-.;.-.A =.A A -.;.=.A A ;.-.A V c c V v c z V V c a c B z B B z u c B B c a a z C =.A M =.A A -.;.-.M =.-.;.;.;.=.=.-.;.=.M ;.;.M 5 4 ",
"5 =.;.;.-.M M =.;.-.5 5 5 5 5 5 A -.;.;.-.b b -.;.A -.-.A z z C N N Z Z C x C Z C N C Z N N 3 N C z z z x N C A A =.;.;.-.C m -.;.=.;.;.;.=.M -.-.;.;.;.;.-.=.M ",
"5 M -.-.=.M =.=.=.=.M 5 =.-.=.=.-.-.A A -.A -.-.A A -.;.-.C C A =.=.A m 5 A =.=.A A A A A C C m C A C 3 A =.A A =.-.=.A =.-.-.-.A A =.;.;.=.A -.;.;.-.A M ;.-.M ",
"5 M M =.=.=.;.-.M ;.;.M -.;.-.-.-.;.A M A ;.;.A Z A A ;.;.-.A -.;.-.A m C ;.;.-.A =.A =.A A ;.-.A ;.-.A A ;.;.-.-.;.A m A ;.-.A M A =.;.;.-.=.;.;.-.=.5 5 ;.=.5 ",
"5 m M =.-.;.;.;.;.;.;.;.M M ;.-.A ;.;.A -.A A m C A A -.;.-.;.;.-.=.M =.-.;.=.A -.A A A -.;.;.;.;.;.;.;.M A ;.-.=.;.;.=.=.=.A 5 A =.A -.;.-.-.;.-.=.A =.-.;.M 4 ",
"5 5 m M M ;.-.-.;.;.;.=.M M ;.;.;.;.-.-.;.-.A M A -.A A A A A ;.;.;.=.=.-.;.A C -.A m m A -.-.-.;.;.;.A A M ;.;.;.;.-.-.;.-.A m A =.A A A A =.;.;.-.=.=.;.;.5 3 ",
"5 5 5 5 M M M -.;.;.-.M M -.;.-.;.-.A -.;.;.-.A M ;.=.M C C A -.;.-.=.-.;.-.A M -.A 5 5 m A A -.;.;.-.M M -.-.;.-.=.=.=.;.;.=.A A -.=.M M M A -.;.;.-.-.-.;.M 3 ",
"M m 5 5 M 5 =.-.-.-.-.=.M =.-.=.m M C A ;.;.;.A ;.;.;.;.-.;.;.A m m ;.;.;.-.-.;.-.A 5 C m m A -.-.;.-.M A A -.M M A M A ;.;.-.=.=.;.;.;.=.-.;.A 5 M ;.;.;.=.M 5 ",
"4 4 4 M 5 5 M 5 5 5 M M M M M 5 m m m M M M M M M M M M M M A A 4 4 M M 5 5 M =.A m 5 m m m m M M m M m M M M m 5 M M M A A A A M M =.=.M A A M 5 4 M M 5 5 5 4 ",
"2 3 4 5 M M 5 5 4 4 4 4 5 5 5 5 M m M m 4 4 M M M m m m m N m C 4 4 5 4 2 4 5 5 5 5 4 5 m m m 4 4 3 4 m m m 4 N M 5 M 5 4 4 5 M M 5 5 5 5 5 m M 4 3 5 4 3 3 3 3 "
};
