/* XPM */
static char *Group_6_4__resized[] = {
/* columns rows colors chars-per-pixel */
"80 80 225 2 ",
"   c #06031D",
".  c #1E3B1C",
"X  c #0D0A28",
"o  c #100F29",
"O  c #131729",
"+  c #181736",
"@  c #27193A",
"#  c #17282B",
"$  c #1D3624",
"%  c #1C2738",
"&  c #1F3338",
"*  c #233A29",
"=  c #202F3E",
"-  c #253B36",
";  c #25451E",
":  c #2A4C1D",
">  c #2F5618",
",  c #2E531E",
"<  c #335C1D",
"1  c #36621C",
"2  c #39661C",
"3  c #3C6D1D",
"4  c #3F711E",
"5  c #264524",
"6  c #2B4C22",
"7  c #29452A",
"8  c #2B4A2A",
"9  c #324F23",
"0  c #324D2D",
"q  c #2E5223",
"w  c #2E542B",
"e  c #345A24",
"r  c #35542B",
"t  c #395C2B",
"y  c #254336",
"u  c #2A4335",
"i  c #2C4A33",
"p  c #25423C",
"a  c #294239",
"s  c #2C4C3B",
"d  c #314B33",
"f  c #2E5639",
"g  c #345233",
"h  c #345A36",
"j  c #3B5D32",
"k  c #366325",
"l  c #3A6524",
"z  c #3D6C23",
"x  c #3D642C",
"c  c #3F692A",
"v  c #3F7320",
"b  c #3E6431",
"n  c #41751F",
"m  c #43781F",
"M  c #406E26",
"N  c #40672E",
"B  c #416A2C",
"V  c #417620",
"C  c #457C21",
"Z  c #437129",
"A  c #416731",
"S  c #416931",
"D  c #221D42",
"F  c #1F3642",
"G  c #2A2A4D",
"H  c #273A46",
"J  c #333250",
"K  c #38385A",
"L  c #383D64",
"P  c #254243",
"I  c #284544",
"U  c #2A4C43",
"Y  c #274849",
"T  c #2A4E4C",
"R  c #2C514B",
"E  c #325849",
"W  c #325A4C",
"Q  c #2F4850",
"!  c #2C5352",
"~  c #2D5855",
"^  c #2D5959",
"/  c #325D56",
"(  c #375A58",
")  c #335E5B",
"_  c #34604B",
"`  c #3A634A",
"'  c #366452",
"]  c #34645D",
"[  c #36695E",
"{  c #394E67",
"}  c #336563",
"|  c #366B62",
" . c #3A6D64",
".. c #376A69",
"X. c #3C7465",
"o. c #3B746A",
"O. c #3E7A6C",
"+. c #346D72",
"@. c #3B7977",
"#. c #4F4865",
"$. c #65597B",
"%. c #466A68",
"&. c #46766B",
"*. c #477D72",
"=. c #527D72",
"-. c #478022",
";. c #498423",
":. c #4C8924",
">. c #3E8871",
",. c #3D817B",
"<. c #41806D",
"1. c #438474",
"2. c #4D8373",
"3. c #458879",
"4. c #468C79",
"5. c #498D79",
"6. c #568976",
"7. c #47937C",
"8. c #4B937C",
"9. c #676F89",
"0. c #787894",
"q. c #3E8481",
"w. c #438C87",
"e. c #4E9C84",
"r. c #489588",
"t. c #4F9E88",
"y. c #509F85",
"u. c #428D97",
"i. c #479795",
"p. c #499792",
"a. c #4FA085",
"s. c #4FA089",
"d. c #50A186",
"f. c #51A38A",
"g. c #54AA8E",
"h. c #5CAA8D",
"j. c #5AB28F",
"k. c #4DA498",
"l. c #4FAA9D",
"z. c #54AC93",
"x. c #53AD99",
"c. c #57B192",
"v. c #5AB593",
"b. c #5CBB96",
"n. c #56B29C",
"m. c #58B598",
"M. c #5DBD9A",
"N. c #62A88E",
"B. c #6AAD93",
"V. c #6BB597",
"C. c #76BA9B",
"Z. c #4899A8",
"A. c #4BA4A7",
"S. c #4FACA2",
"D. c #56B5A2",
"F. c #59BCA5",
"G. c #54B6AA",
"H. c #56BAAB",
"J. c #59BEAB",
"K. c #4EADB3",
"L. c #57BCB1",
"P. c #56BAB5",
"I. c #5EC39B",
"U. c #5FC89E",
"Y. c #61C69D",
"T. c #63C99F",
"R. c #77C19E",
"E. c #5FC6A6",
"W. c #5BC1AD",
"Q. c #5BC5B4",
"!. c #5AC6B9",
"~. c #5DCABB",
"^. c #61C6A5",
"/. c #65CDA1",
"(. c #6BCEA3",
"). c #77C5A3",
"_. c #66D1A4",
"`. c #6AD5A6",
"'. c #6AD6A8",
"]. c #6BDBAA",
"[. c #77DAAC",
"{. c #7ADAAC",
"}. c #70E2AF",
"|. c #76E6B3",
" X c #59C6C8",
".X c #5FD1CF",
"XX c #59C6D5",
"oX c #61D5C7",
"OX c #63DBD7",
"+X c #65E1DA",
"@X c #63DDE9",
"#X c #69EAEA",
"$X c #6AECF3",
"%X c #91A3A5",
"&X c #90C29B",
"*X c #88CBA9",
"=X c #83D5AD",
"-X c #87DDB2",
";X c #93DCB8",
":X c #84E4B5",
">X c #88E8B8",
",X c #97E7BA",
"<X c #94EDBD",
"1X c #8FF0BD",
"2X c #94F0BE",
"3X c #9AF1BF",
"4X c #BAE9BA",
"5X c #B1F7BF",
"6X c #D0FDBE",
"7X c #ABB3C6",
"8X c #9AECC2",
"9X c #86F0C0",
"0X c #9BF2C1",
"qX c #9BF9C6",
"wX c #A5EECA",
"eX c #A2F8C6",
"rX c #A6F9C7",
"tX c #B8FCC8",
"yX c #ABFBD3",
"uX c #B4F8D4",
"iX c #B6FFE1",
"pX c #C8FEC7",
"aX c #D8FEC7",
"sX c #CDFED4",
"dX c #E4FDCF",
/* pixels */
"> 1 n 3 3 n n n n 3 3 n n m n n n n n n 2 3 n C m n n n 3 3 3 n n n n n 3 m n 3 1 3 n 3 3 n n n n 3 3 n m m m 4 4 m m 4 4 3 4 m m n n n 3 3 n n 3 m m n n m 2 < ",
"2 3 n n m V 3 n n 3 n C V m m 4 n m n n 3 n n m n n n 3 n V m m m m n n n m m m n n n n n n n 3 3 4 n m V m n 4 4 m 4 4 4 4 4 m n n n M n n m m m m n 3 n C n 3 ",
"m m n m C C n n n n m C C C m n n V n 3 n V C n V V 3 3 n C :.:.:.C m 3 n C :.:.:.;.n C m m m n n n m C C V C 4 4 m 4 4 4 V C m n n 3 n n ;.:.:.:.m n 3 n C C n ",
"n m -.:.:.C n V n n n -.;.;.:.:.;.C n n V ;.:.;.C C ;.-.;.C ;.;.;.;.;.m m m ;.;.;.C ;.:.:.m m n V n n -.;.:.:.:.:.-.4 4 C ;.:.;.;.C C ;.m -.m :.:.:.m m V C m n ",
"n n C C :.:.;.C -.C C -.:.:.:.;.:.;.C ;.:.:.:.:.:.:.:.:.;.C C C C C :.-.C C ;.;.C ;.C ;.-.:.;.C ;.C C -.:.:.:.;.;.;.-.-.:.:.:.:.:.;.:.:.:.C C C m C ;.;.C C m n ",
"n n n n C :.:.:.;.-.-.;.:.:.C C C :.:.:.:.:.:.:.:.:.:.;.C C m C 3 V ;.:.:.m C :.;.C V V C :.:.:.;.;.;.;.:.:.C C -.:.:.:.:.:.:.:.:.:.:.;.C C C V n n ;.:.;.C n m ",
"3 n n m C C C C C V V V m C ;.;.;.;.C m V C C ;.:.:.:.:.:.C V V n 3 C :.:.C m m C C V C C -.C C V V V V V C ;.;.;.;.-.m V C -.;.:.:.:.:.:.V m V 3 n C :.:.C 3 2 ",
"2 n n m C n V n v v 4 4 4 4 C ;.:.;.C C V V m n C :.:.:.:.C C ;.C V ;.:.-.n n n C V V C C V V V 4 4 4 v 4 4 C ;.:.-.C C V V m m C ;.:.:.:.;.;.C m m ;.:.:.V 3 1 ",
"3 4 n -.C 4 4 4 4 v 4 v 4 4 3 V C C :.:.:.C V n m ;.:.:.:.:.:.:.;.;.;.:.-.V V C C V V C C n n 3 v 4 4 4 4 4 4 v -.C ;.:.:.-.V 4 C ;.:.:.:.:.:.:.:.;.:.:.;.4 3 4 ",
"3 4 n C C V 4 4 4 4 v 4 V C V -.;.;.:.:.:.;.C ;.:.:.:.:.;.;.;.;.C n V ;.:.C ;.-.C C n C C V n 3 4 v 4 4 4 C v -.;.;.;.:.:.;.C -.:.:.:.:.;.;.;.:.m 4 m ;.:.-.m m ",
"3 4 4 -.;.-.V 4 V C C V C -.;.:.:.;.:.:.:.:.;.:.:.:.:.:.m ;.;.;.n 2 3 C :.;.:.:.C C n ;.;.C m n v v v -.;.;.;.:.:.;.;.:.;.;.;.:.:.:.:.;.C C ;.;.4 3 4 m :.-.m m ",
"m 4 V :.:.:.C V -.;.:.:.;.;.:.:.:.C :.:.C C :.C C :.:.C n ;.:.:.V 3 n ;.:.V C :.:.C n :.:.:.C m ;.:.:.;.;.-.:.:.:.-.:.:.m -.;.-.;.:.:.-.n C :.:.4 3 4 -.:.n n n ",
"4 4 n -.:.:.:.-.v V ;.:.;.C :.-.C :.:.:.:.:.:.;.:.:.:.:.;.;.:.:.;.C ;.:.:.C C -.;.V V C :.:.:.m 4 C ;.:.4 2 3 l 3 m ;.;.:.:.:.-.;.:.:.;.-.:.:.:.;.-.;.:.:.m n 4 ",
"3 4 m m :.:.:.;.n v C :.-.C ;.-.m :.C C :.:.:.C C :.:.:.:.:.:.:.;.:.:.:.;.;.C ;.C C C C :.:.:.;.4 4 v C 1 : 5 5 6 z n C :.:.:.-.-.:.:.:.:.:.:.:.:.:.:.:.;.-.m 4 ",
"4 m ;.:.:.:.;.;.:.-.C :.-.-.;.:.:.C n M C ;.:.V m C ;.;.:.:.:.-.C C C -.C -.:.:.;.C ;.:.:.:.;.;.:.-.v v q y p p y q 1 3 C :.:.m n C ;.:.;.:.:.C -.C C -.-.-.-.m ",
"4 m :.-.;.:.;.;.:.:.;.-.-.;.;.:.;.n n n n C C n n V C C V C -.;.;.-.;.;.;.:.:.:.;.;.:.C ;.:.;.;.:.C z x `  .*.&.[ f w < 3 n C 4 4 m C C V -.;.;.;.-.-.;.;.:.-.m ",
"4 m ;.m C :.;.-.:.:.-.V C ;.:.:.:.V V v m V V V V C -.C V C -.:.:.;.:.:.:.:.:.:.-.;.;.V C :.;.-.C z k _ 6.B.C.V.7.[ f 8 < 3 v V v C -.C v C ;.:.:.;.:.:.:.:.-.m ",
"m m m 4 4 -.C -.;.V 4 v 4 V -.:.:.:.;.C C ;.:.:.:.;.;.:.:.:.:.:.:.:.:.C V -.;.;.;.-.V 3 4 C C n z : f <.B.-X1X[.b.4.' s q 2 :.:.:.;.;.:.:.:.:.:.:.:.:.C 4 :.-.m ",
"4 m ;.m n m V C C n n C 4 4 -.;.:.:.;.;.C -.;.:.:.;.:.;.-.;.;.:.C 4 m 2 < < 1 l 2 k < < < < 1 < : $ P 2.).1XqX:X/.t. .U 5 1 ;.:.:.:.:.;.-.;.;.;.-.C -.v 4 m m m ",
"4 m :.-.C C C V V V C -.V 4 -.:.:.;.;.;.C V -.:.:.:.:.-.v C ;.;.m 4 3 q 5 $ 5 8 5 6 6 6 5 6 6 5 $ # P *.V.|.9X|.^.t.o.T 5 k ;.;.:.:.:.;.v -.;.:.4 4 C ;.-.4 4 m ",
"m C -.:.:.:.;.-.-.m 4 4 4 V :.;.-.-.;.:.:.:.:.-.-.;.;.:.:.:.;.:.:.-.k f U T U U U U U U U U U U H & Y X.f.T.'.^.f.,.] U w z :.-.-.;.;.:.:.:.:.:.:.:.:.:.:.4 m 4 ",
"n m ;.;.:.;.;.:.:.-.C C V -.:.:.;.m -.:.;.-.C -.-.;.-.-.m 4 2 1 2 1 t ' *.2.2.&.o. .| |  .X. . .[ ^ ] O.a.v.c.e.O.' f w k 4 C ;.;.;.-.-.;.;.;.;.:.:.-.:.:.:.m -.",
"4 m :.;.-.-.;.;.:.:.:.:.:.:.:.:.;.m V -.C n m ;.:.C -.4 3 , 5 $ . 8 _ 6.C.*X).V.h.d.7.e.a.d.f.a.8.1.1.4.a.g.8.O.W i q 2 4 4 4 :.:.C C C 4 4 C C 4 C 4 ;.:.-.4 4 ",
"n m C -.:.:.;.C -.:.:.:.:.:.;.-.C m V m 4 V ;.:.;.4 m z e w U R U W 6.R.,XwXwX>X-X`.U.I.Y.T.T.T.M.c.f.f.g.f.4.| R 8 < 4 4 4 m :.;.4 4 v C C v v 4 4 ;.;.;.;.-.4 ",
"n m ;.;.;.;.C C C -.C m ;.:.;.-.C -.C V C -.:.:.;.4 2 < r ' &.3.1.3.B.-XrXyXyXqX2X:X}.].`.`.].`./.Y.M.c.z.s.7.@.[ f w 1 < k l v -.v v v v v v 4 3 n ;.-.C -.m 4 ",
"4 m ;.:.C 4 m C -.-.V 4 -.;.-.-.;.:.;.;.;.;.;.:.-.4 , 5 E 2.B.).R.R.=X<XeXyXrXeXqX1X>X}.`._._._._./.Y.b.g.s.s.k.w.X.f 8 5 5 q v v v v v v v v 4 4 n -.;.-.-.m n ",
"n m ;.C n 3 3 m :.:.:.;.:.;.C ;.:.:.:.:.:.:.;.:.v k 8 W 6.C.;XwXwX0X0X0X0X0XqXqXeX3X1X{.`.Y.Y.T./._.T.b.g.g.n.Q.J.r.[ U U E E h z -.4 4 4 4 v C V C C ;.;.:.-.m ",
"n m ;.;.-.m n m :.:.:.;.:.;.-.:.:.:.:.:.:.-.V v c k E 1.C.,XtXsXsXtXtXqX<X<X<X0XeXrX3X-X(.Y.I.Y./._.T.I.g.g.E.~.~.i.} Y / X.>.' b z 4 4 v -.;.;.;.;.;.-.-.;.C n ",
"n m :.:.:.:.;.:.;.-.C V -.:.:.:.:.-.;.;.-.v 2 > w ' 1.V.,X5XpXaXaXpX5XrX<X<X<X0XrXeX3X-X_.I.I.Y././.T.b.g.g.D.~.!.q.^ U X.8.j.5.' 8 < 4 ;.:.:.:.:.:.:.;.C -.m 4 ",
"3 m -.:.;.m ;.:.;.-.C m -.:.:.;.-.-.V C ;.:.4 ; s o.B.;XuXpXaX6X6XaX5X3X0X<X0X0X3X3X:X{._.I.U.Y././.T.b.g.g.D.Q.Q.i...) >.g.j.7.' 7 e 4 :.:.:.:.:.;.m -.;.V 4 3 ",
"4 m ;.:.-.m -.;.;.-.V V -.;.;.-.C C C C :.:.3 . p &.&X4XdXaXaX6X6X5X5X3X0X0X0X0X,X:X{.(.T.Y.Y.T.T._./.b.g.g.S.Q.Q.A.w.,.r.8.7.<._ q 3 m :.-.-.:.;.-.-.:.:.C 4 4 ",
"n m :.:.;.m m ;.:.-.v V m m n m C -.:.:.-.4 1 . y %.C.4XdXdXaXpX5X5X3X0X<XqX0X<X>X{.`.T.T.T.T.T.T./.T.Y.c.s.n.W.!.!.G.k.r.O._ e k z C :.:.m m ;.;.:.:.:.:.:.m m ",
"4 m ;.;.-.m -.-.-.-.-.4 -.;.C C -.;.;.4 v z k 8 ` 6.&X4XdXaXpXtXtXeXqX0X0X3X<X>X{.T.Y.I.T.T.T.T.T.T.Y.j.g.f.z.D.Q.oXoXQ.p.} - q 1 n ;.:.;.C C ;.:.:.;.C C :.-.m ",
"4 4 -.;.-.-.:.;.m ;.:.4 -.:.:.;.;.:.-.4 v k k ` 6.C.;X4XsXpXpXtXyXqXqXqX0X<X:X{._.Y.I.I.T.T./.T.Y.I.b.g.g.f.f.z.J.~.oX!.p.^ * : 2 C ;.;.:.;.;.;.;.;.-.n 4 :.-.4 ",
"4 m -.m ;.:.:.:.:.:.:.:.4 C :.:.-.:.;.4 q i ' 6.&X;X8XrXrXrXyXyXrXeXeXeX3X:X{.T.T.U.T.Y.T.T./.T.I.v.g.f.f.f.f.f.n.W.~.Q.p.} - ; 1 C C ;.:.;.;.:.;.-.C -.;.:.m 3 ",
"4 4 4 4 C ;.;.;.:.:.:.;.v -.;.:.:.:.;.z : s %.B.;XrXyXeX<X-X*XC.C.R.=X1X<X:X`.Y.I.U.T.T.T.T./.T.I.v.f.d.d.d.d.d.f.F.~.J.p.} y : 3 ;.C C C m -.:.:.;.C ;.;.:.4 2 ",
"4 4 4 4 v ;.-.;.:.:.-.4 C -.;.:.;.:.-.3 ; s *.C.8XiXiXrX-XB.=.( ( %.h.).:X|.'.I.I.Y.T.T.T.T./.T.b.g.f.t.t.d.y.8.f.F.Q.L.p.} y 6 2 ;.-.V m n C ;.:.;.;.;.:.;.4 3 ",
"m 4 4 4 4 4 4 :.:.:.:.-.C -.;.C 4 4 4 2 : s  .B.;XyXiXwXR.=.H O O = [ z.`.}.`.T.Y.T.T.T.T././.T.I.v.f.t.t.d.d.d.g.F.Q.L.p.} y 6 3 ;.:.:.C ;.:.m n C ;.:.:.-.C m ",
"m m m -.-.C -.-.-.-.-.-.-.-.C -.C -.;.4 6 s o.N.=X8X8XR.6.Q + X @ K %.6.a.b.U.T.T.T.T.T.T./././.I.j.d.t.s.f.t.e.g.F.~.J.p.} u q 3 ;.:.;.;.:.:.;.n n ;.;.m V m m ",
"4 4 -.;.;.:.-.-.m C m -.;.;.C -.:.:.:.C , s  .h.).{.V.=.K + + G $.0.9.%.[ >.j.T._._.T.T.T./._./.Y.j.f.a.a.f.y.y.g.F.Q.L.p.} y q 3 -.;.;.C ;.;.:.C m ;.m 4 C m 4 ",
"1 4 ;.-.-.;.;.;.;.C C ;.:.;.:.;.;.;.;.v : y [ g.I.v.&.H O X G 9.7X7X%X#.& ~ 7._.]._.E.U.T.T._.T.Y.v.f.t.a.d.d.d.g.F.~.L.p.} u q M -.:.:.-.m m ;.;.;.:.C C :.m 3 ",
"4 4 -.m m -.C m -.C C ;.-.-.-.-.v 4 z < . & ~ 8.v.a.! O X X L 0.7X7X0.@ o P 7._.]._.T._.T.T.T.I.v.g.f.t.f.d.d.e.g.J.Q.L.p.} u 6 1 m m m m -.;.;.:.;.C n C :.m n ",
"m m 4 m -.C 4 4 4 V V -.C m V 4 4 k q * O O P 4.j.a.U O   + L 9.%X0.#.@ o p 7._.].`._./._.U.V.v.g.f.f.f.f.f.d.y.z.J.!.L.p.} y 5 < n n M m ;.:.:.:.m n n m C m m ",
"4 m :.:.;.;.m 4 C 4 V -.;.:.:.:.C e i P % % Y 3.c.g.[ = + G L { K J @ @ % ( y./.]._.T.T.U.I.m.g.y.f.t.f.f.d.d.y.f.F.Q.L.p.} y q 3 m ;.-.;.C C :.:.;.;.m m C m n ",
"4 V -.;.;.:.;.-.-.C C -.:.:.;.:.V w s T Q Q  .y.b.b.5.] H J G D + X o F ! 3.v._.]._.T.T.I.v.g.f.t.t.f.f.f.f.d.d.g.F.Q.L.p.} u q 3 ;.:.:.:.C C ;.m C ;.C m ;.m n ",
"4 4 4 v -.:.:.:.;.;.-.;.:.:.C C v q s ! [ 2.d.v.Y.U.b.7...Q + X X X F ] 5.m.Y.(.`._.Y.I.v.g.f.t.t.y.f.f.f.d.d.y.g.J.Q.L.p.} y q 3 :.:.:.C C m m n n ;.:.:.m m m ",
"4 4 v C C -.C C V V V V V C -.;.V q y / 3.j.T.`._._.].E.r.( & X X % ) e.^.'.`.^._.U.I.v.g.a.a.d.t.f.f.f.f.f.d.y.f.J.Q.J.p.} y q 3 :.:.:.:.V m m M n C :.;.m n 2 ",
"3 4 4 -.C v 4 v v 4 v v 4 V C ;.V , i / 5.b.'.`._.].}.}.V.5.( s F ^ 3.V.].]./.b.b.b.v.g.f.e.t.f.f.f.f.f.f.d.y.y.f.F.W.G.p.} y 6 2 ;.:.:.:.;.m m m m :.:.;.n 2 1 ",
"3 4 n m C n 4 4 4 4 4 v 4 4 4 V v , y ~ 1.f.Y././.`.].'.Y.j.d.5.8.8.j.T.`./.b.g.g.g.g.f.f.t.d.f.f.f.f.f.f.d.y.e.f.M.J.H.p.} - 5 < ;.:.:.:.:.:.:.;.;.;.:.;.n 3 M ",
"3 3 m m m n 4 4 3 4 v 4 V V V -.V , i ~ O.s.M.^././././.Y.I.Y.b.Y.T.T./.Y.b.z.f.t.f.f.f.f.f.f.f.f.f.f.f.d.d.d.d.z.Q.~. Xi...y , n ;.:.:.;.;.;.;.m m m ;.:.C V m ",
"4 4 m -.:.;.n n V C C V C ;.;.:.C q s ^ 3.l.J.^.U.I.^.V.v.g.d.g.b.T./.^.b.g.f.e.y.y.t.f.s.f.f.f.f.f.f.y.t.y.a.g.D.oXOXOXA.+.y : n ;.:.;.m ;.;.;.n 2 n m ;.;.C m ",
"m n n :.:.:.m m ;.;.:.:.;.;.:.:.V , y ^ w.H.~.^.M.m.I.m.e.O.[ o.8.c.b.v.z.f.f.t.t.t.s.d.f.f.f.f.f.f.f.y.t.a.f.x.Q.+X$X@XP.+.- : 3 :.:.-.n m :.:.m 3 n ;.:.n n n ",
"3 4 m -.:.:.:.-.4 V ;.:.-.-.:.-.3 < i / w.l.G.l.t.7.8.7.&.] ! ] 1.d.g.g.f.f.f.f.f.f.f.t.a.f.d.d.t.f.t.f.f.f.n.F.!.OX@XXXZ...a q 3 ;.:.;.C :.:.:.C ;.:.:.:.m n n ",
"3 4 m m ;.:.:.;.m 4 C :.-.C ;.-.n l r E o.q.w.,.o.] [ } ] ^ ] o.5.t.f.f.y.t.f.f.f.f.f.f.a.a.t.y.y.y.y.f.z.D.E.Q.!. XK.Z.@.) r r M m :.:.:.:.:.:.;.:.:.:.:.C m n ",
"4 m ;.:.:.:.;.;.:.-.C :.-.-.-.:.-.Z t g W ) } ~ T Y P T ] o.1.e.t.f.f.f.f.t.f.f.f.f.f.y.t.t.a.a.e.e.y.z.D.Q.~.~.P.A.w.) W h b t t M V C :.:.:.C C C C C C ;.C m ",
"4 m :.-.;.:.;.;.:.:.;.-.;.;.;.:.-.V l g i I Y ! ^ ^ T ! ] 1.a.z.g.f.s.f.f.y.y.f.d.y.f.f.z.f.z.f.f.g.z.F.Q.~.OX+X Xi...- - q t t t t M V C C ;.:.;.C :.;.:.:.C m ",
"4 C :.V C :.;.;.;.:.;.V C ;.:.:.;.Z M r u - Y } ,.,.+.| O.7.g.m.z.f.d.y.y.y.y.y.e.a.f.z.x.G.n.n.n.D.E.Q.~.oX#X$XOXA.} & * 9 N t j x z V V C C :.:.:.:.:.:.:.-.m ",
"m V V 4 n C C -.;.V 4 4 4 V ;.:.:.C M r u I ^ w.l.H.x.e.7.e.f.f.f.f.f.f.d.d.d.y.e.a.g.n.H.Q.W.W.W.Q.Q.!.~.oX+X$X@XK.+.- * e B B B z V C :.:.:.:.:.:.:.C m ;.m m ",
"4 m C V V m m V V V m C 4 4 C :.;.C B j d s ( *.l.J.F.n.g.g.f.g.f.g.z.z.n.m.n.n.c.c.n.W.~.oXOXOX.XQ.G.l.n.D. XXX XZ...s 0 r N B S B C C C ;.;.;.m C ;.m n m m m ",
"4 m :.-.-.V C m V V -.-.v 4 -.:.;.V B b j d E [ ,.k.c.c.b.v.c.g.g.z.m.J.W.Q.W.W.W.W.Q.Q.oXOX#X#X.XK.w.@.O.,.u.i.u.@./ g 9 t N A B B Z C V C ;.:.m n C -.m 4 n m ",
"m m ;.:.:.:.;.;.-.m 4 4 4 v :.:.C z B N B b j s W | 4.s.v.c.f.f.s.s.n.J.Q.~.~.Q.Q.!.Q.Q.~..X#X#XXXq.+.Y U ! ^ ^ ^ E h x N B N N x c Z -.:.:.:.:.:.:.:.:.:.-.m m ",
"4 -.;.:.:.;.;.;.:.;.-.C C -.:.:.;.3 z c B x j d s R [ 1.7.7.7.4.7.7.r.k.S.S.S.S.S.S.S.l.l.K.XXXXZ.@.R & - - a a u d t B B N t N B z n V C ;.;.;.;.;.;.:.:.-.m m ",
"4 m ;.;.-.-.;.;.:.:.:.:.:.:.;.:.;.n 3 z z t t j g s W [ o.o.| [ [ | o.@.@.,.,.,.,.,.,.@.@.,.u.u.@.( g 8 9 0 0 0 0 0 t x x t t B Z V V n n n C C C m n ;.:.-.m m ",
"n m -.-.:.:.-.C -.-.:.:.:.:.;.-.C V V z l l x B x g s U T T T T T R T T ! T ! T R T T R R ! ! ! R h t c N x t t e t t t t t B Z V 3 n m C C V n n n m C ;.;.m 4 ",
"4 m -.;.;.-.-.m m -.m C ;.:.;.-.C -.C V v c c Z c h s a I - a a - - a u u u u a - a u a - - - - 0 r x N N M N N c x j t t x Z C C V 4 V C v v 4 4 4 -.-.-.-.m 4 ",
"4 m ;.:.m n n -.-.-.m 4 -.:.-.-.;.:.;.;.;.C V Z c j h d d u d d i 0 g d 0 d 0 0 0 0 g r 0 7 0 0 r t t e N M N N b A b x B Z C :.;.Z v 4 4 4 4 v 4 m -.;.-.-.m n ",
"4 -.;.-.m 3 3 m :.:.:.-.;.;.C ;.:.:.:.:.:.;.C V B c t r e 9 t t t t t t N x N x t N x t e r 9 t N N B N N B t M c c c B C C -.:.:.;.m 4 4 4 V C m m -.-.-.:.m m ",
"m m ;.-.C m m m :.:.:.:.:.;.-.:.:.:.:.:.:.;.C V Z Z z z N N N N B B B N B B N B B B N N x x t t N N N N N N t M Z Z Z Z C C C ;.:.:.C V v C ;.;.:.;.;.-.-.:.-.m ",
"4 m :.:.:.:.;.:.:.-.-.-.-.:.:.:.:.-.;.;.-.C v V C C C C m Z B A N A A N t B N N N N N N B A N N A j x j j A B V C V Z V C V V C ;.:.;.:.:.:.:.:.:.:.:.-.-.-.m 4 ",
"4 4 -.:.;.C ;.:.;.-.4 4 -.:.:.:.-.C V C ;.;.:.v C :.:.;.C Z B B B B x x B t t t t N B B N x M N N x x t t B Z C C C m m ;.:.;.C -.:.:.:.:.:.:.:.:.:.m -.-.m 3 3 ",
"4 4 -.:.-.n m :.;.-.-.4 -.;.:.-.C -.C C ;.:.;.C C :.:.:.;.M M M M M M Z M z z z M M M C M < M M n M l < l M V C C -.C C :.;.;.m -.;.:.:.:.;.-.:.-.-.m :.:.m 3 3 ",
"m -.:.:.;.-.m -.:.-.4 4 -.4 4 4 C ;.:.:.;.v 4 :.:.C :.:.:.n n n V C C C C V C C m m m m m n M n m M 3 2 M M n V C ;.:.:.;.n n ;.:.-.:.:.:.m m -.:.:.:.:.:.;.-.m ",
"4 m ;.;.-.m -.-.-.-.m 4 -.;.-.-.C :.C C C C ;.;.C C :.:.:.C C C ;.;.-.m n ;.:.:.C ;.;.C C m C m m m m n m ;.C C ;.;.C C ;.;.;.;.C C ;.:.:.C C ;.:.:.;.V m :.-.-.",
"4 n -.-.-.-.:.;.m :.:.m -.:.:.-.;.:.C C C :.:.C C C C :.:.C :.:.:.;.-.n n :.:.:.;.C C C C ;.:.;.m :.:.m ;.:.;.;.;.;.C n C :.;.C V V -.:.:.;.;.:.:.;.-.4 4 :.-.4 ",
"4 m m m -.:.:.:.:.:.:.:.m m :.;.;.:.;.C ;.C C V C C C :.:.;.;.:.;.-.m -.;.:.-.m C C C C ;.:.:.:.:.:.:.:.C V :.;.;.:.:.;.;.C C n m -.-.-.:.:.;.:.;.-.-.-.-.:.4 3 ",
"4 4 n m -.:.-.:.:.:.:.-.m m :.:.:.:.;.;.:.:.C m C C C C C C C :.:.:.-.-.:.;.m n ;.C m n C :.;.:.:.:.:.C V C :.:.;.;.;.;.;.;.C n C ;.C V C C C :.:.;.-.-.:.:.m 2 ",
"4 4 4 4 m -.m -.:.:.-.m -.-.:.;.;.C C ;.:.:.;.C C :.C m C V C ;.;.;.;.;.:.:.m m ;.C n n n m C C :.:.;.m m ;.;.:.;.;.-.-.:.:.-.m -.:.;.m m m -.;.:.:.-.-.:.:.4 3 ",
"m 4 4 4 4 4 -.-.:.-.;.-.m -.-.-.m m C C :.:.:.C ;.:.:.:.C :.:.C m m ;.:.:.;.:.:.:.C n n n n V ;.:.:.;.m C m ;.C V m n C :.:.;.;.-.:.:.:.-.;.;.C m 4 :.:.:.-.-.4 ",
"3 3 3 m 4 4 m m 4 4 m m m m m m n n m C m m m m m m m m m m C C 3 3 m m n n m m m n M n n n n n n n n m m m m n n n m m C V C -.m m -.m m C -.m 4 3 m m 4 4 4 3 ",
"1 2 3 4 m m 4 3 3 3 3 3 4 4 3 4 m n m n 2 n m m m n n n n M n C 3 2 n 3 1 1 3 n n 3 3 n n n n n n 2 2 n m n 3 n m n m m 3 3 4 m m 4 4 4 4 4 n m 3 2 4 3 2 2 2 1 "
};
