/* XPM */
static char *Group_6_resized[] = {
/* columns rows colors chars-per-pixel */
"80 80 222 2 ",
"   c #07051E",
".  c #0E0B26",
"X  c #120A29",
"o  c #15162E",
"O  c #171535",
"+  c #21163B",
"@  c #1E3929",
"#  c #1B2437",
"$  c #1E383A",
"%  c #243B28",
"&  c #20273E",
"*  c #233A38",
"=  c #27481B",
"-  c #2B4D1C",
";  c #2F5316",
":  c #2E531C",
">  c #30551D",
",  c #335C1D",
"<  c #36621D",
"1  c #39651D",
"2  c #3C6D1D",
"3  c #3F711E",
"4  c #254423",
"5  c #284726",
"6  c #2B4D24",
"7  c #26432B",
"8  c #2A472B",
"9  c #2B4A2B",
"0  c #324D26",
"q  c #314D2C",
"w  c #2E5225",
"e  c #2E542A",
"r  c #2F592E",
"t  c #335B23",
"y  c #345924",
"u  c #35562C",
"i  c #355A2B",
"p  c #3A5C2C",
"a  c #264335",
"s  c #2A4335",
"d  c #2C4A33",
"f  c #2A443A",
"g  c #2A4C3C",
"h  c #324E32",
"j  c #314A37",
"k  c #2E5536",
"l  c #2D523D",
"z  c #345635",
"x  c #3A5D33",
"c  c #366222",
"v  c #3A6524",
"b  c #3D6B23",
"n  c #366229",
"m  c #3D642C",
"M  c #3F692B",
"N  c #3F7220",
"B  c #3E6332",
"V  c #35633C",
"C  c #41751F",
"Z  c #43781F",
"A  c #406E26",
"S  c #40672E",
"D  c #416A2C",
"F  c #417620",
"G  c #457C21",
"H  c #43702A",
"J  c #406731",
"K  c #416930",
"L  c #221C43",
"P  c #2E2B4E",
"I  c #29374A",
"U  c #383D64",
"Y  c #403153",
"T  c #274743",
"R  c #294B43",
"E  c #2A454B",
"W  c #2B4D4A",
"Q  c #2D5646",
"!  c #2F5943",
"~  c #2C514D",
"^  c #335946",
"/  c #2A4D50",
"(  c #2D5452",
")  c #2E5B59",
"_  c #315A55",
"`  c #37575A",
"'  c #335D5A",
"]  c #336147",
"[  c #2F695C",
"{  c #34645D",
"}  c #366859",
"|  c #3A6C5D",
" . c #3B755F",
".. c #376965",
"X. c #396C62",
"o. c #3B7365",
"O. c #3B7666",
"+. c #3A736D",
"@. c #3C796B",
"#. c #3A7875",
"$. c #3B7A74",
"%. c #426C50",
"&. c #4F526F",
"*. c #496F6B",
"=. c #447565",
"-. c #417D6D",
";. c #447E72",
":. c #478022",
">. c #498423",
",. c #4C8924",
"<. c #3F837B",
"1. c #428374",
"2. c #458975",
"3. c #488779",
"4. c #498D7A",
"5. c #558C78",
"6. c #4B937D",
"7. c #4A967D",
"8. c #3C7C85",
"9. c #6D768E",
"0. c #837D98",
"q. c #3E8487",
"w. c #428985",
"e. c #4B9886",
"r. c #4E9D84",
"t. c #599784",
"y. c #509F84",
"u. c #428C94",
"i. c #4A9B94",
"p. c #469399",
"a. c #4FA088",
"s. c #51A186",
"d. c #51A38A",
"f. c #5DA288",
"g. c #55AA8D",
"h. c #58B28F",
"j. c #4DA599",
"k. c #4CA59B",
"l. c #54AC93",
"z. c #53AD9A",
"x. c #57B293",
"c. c #5AB494",
"v. c #5CB996",
"b. c #56B39C",
"n. c #5DBD99",
"m. c #65A48B",
"M. c #68AB91",
"N. c #62A898",
"B. c #63BA98",
"V. c #73BB9A",
"C. c #4EABA1",
"Z. c #51ADA5",
"A. c #56B5A3",
"S. c #59BBA5",
"D. c #55B6A8",
"F. c #57BAAC",
"G. c #59BDAB",
"H. c #4CA7B5",
"J. c #55B8B3",
"K. c #5EC39B",
"L. c #61C59D",
"P. c #6BC19B",
"I. c #63C99F",
"U. c #5BC2AD",
"Y. c #5BC5B3",
"T. c #5CC8B7",
"R. c #5DCBBA",
"E. c #65CCA1",
"W. c #6ACAA2",
"Q. c #7CC8A6",
"!. c #66D1A4",
"~. c #69D4A6",
"^. c #69D7A8",
"/. c #6BDBAA",
"(. c #76D7AA",
"). c #74DCAD",
"_. c #61D1BE",
"`. c #7FDCB0",
"'. c #6FE5B0",
"]. c #7AE6B4",
"[. c #51B0C2",
"{. c #58C2C7",
"}. c #5DCDC1",
"|. c #5ED1CD",
" X c #59C6D3",
".X c #61D5C4",
"XX c #60D5CB",
"oX c #63DBD5",
"OX c #5DD2E3",
"+X c #61DAE6",
"@X c #67E6E6",
"#X c #68EAF2",
"$X c #6BF0F0",
"%X c #86899B",
"&X c #84CEAC",
"*X c #87D5AD",
"=X c #87D8B1",
"-X c #86E7B7",
";X c #8BE3B5",
":X c #8DE9B9",
">X c #94EDBD",
",X c #98EFBE",
"<X c #8FF1BE",
"1X c #98F0BF",
"2X c #A8F3BF",
"3X c #B1F6BF",
"4X c #CDFDBF",
"5X c #ACB5C7",
"6X c #9AEDC2",
"7X c #8CF5C3",
"8X c #9BF3C2",
"9X c #9BF7C5",
"0X c #A3EDC6",
"qX c #A2F5C3",
"wX c #A5F7C7",
"eX c #A9FBCD",
"rX c #B7FBC5",
"tX c #AAFDD2",
"yX c #B6FED1",
"uX c #C7FEC7",
"iX c #D6FEC5",
"pX c #CCFFD2",
/* pixels */
"; < C 2 C C 2 C C 2 2 C Z 3 Z Z C C C C 2 2 C Z Z C C C 2 2 2 2 C C C C 2 Z C 2 1 1 C 2 3 C 3 C C 2 2 3 3 Z Z C 3 Z Z 3 2 2 3 Z Z C C C C 2 2 A C C Z C C Z 2 , ",
"1 2 C C C F C 2 C 3 3 Z Z C Z 3 3 C C 3 2 2 C Z C C C 3 C C G Z Z Z C 2 C Z >.Z F C C C C C 3 3 3 3 3 Z G F Z 3 3 3 3 3 3 3 3 Z C 2 C 2 2 C Z Z Z Z C 2 C Z C 2 ",
"Z Z C Z G G C C 3 C Z :.G G Z C C Z C C C Z G C C F 2 2 C G ,.,.,.>.C C C Z ,.,.,.G F G Z Z C 3 3 Z Z :.G F N 1 2 b 2 2 3 G G Z C C 2 A C >.,.,.,.:.C 2 C Z Z Z ",
"C Z >.,.,.G C F Z C C :.>.>.,.,.,.Z C A Z >.,.>.G G >.>.>.G >.>.,.>.Z Z C >.>.Z >.>.>.,.,.>.C C Z 3 3 :.:.F < - = : > 1 G :.,.:.>.Z >.>.>.Z >.>.>.>.:.Z C >.Z 3 ",
"2 Z G >.>.,.>.G :.G F >.,.,.,.>.,.>.G >.,.,.,.,.,.,.,.,.>.G G G G G >.>.G :.>.>.G >.G G >.,.>.G :.Z G :.G b w s f d 6 < G ,.,.,.,.>.,.,.,.G G G Z Z ,.>.Z :.Z C ",
"C C C C G ,.,.,.>.>.>.>.,.,.G G G >.,.,.,.,.,.,.,.,.,.>.>.G G C 2 3 >.,.>.G >.>.>.G C F G ,.,.,.,.:.:.G M n ^ { ..) ! n G >.,.,.,.,.,.>.G G Z G C C >.,.>.Z Z C ",
"2 C C Z G G G G F F F F F G >.>.,.>.G Z Z Z Z >.>.,.,.,.>.G F G 3 2 G ,.,.G C Z G G F G G >.G G Z 3 1 , z %.5.m.f.e.O.V r c N G ,.,.,.,.,.F F F 2 C Z ,.,.Z C 1 ",
"2 2 C Z G C F F N 3 3 3 3 3 G >.,.>.G Z G Z Z C G ,.,.,.,.G G >.Z G >.,.,.C 3 C G F F G G F 3 F 3 1 ; 4 ] 5.V.=X`.B.7.[ l 6 > N Z ,.,.,.,.>.>.G Z Z >.,.,.C 1 1 ",
"2 3 Z G G 3 3 3 3 N 3 3 3 3 3 F >.G >.,.,.G Z A Z ,.,.,.,.,.,.,.>.>.>.,.>.C F G G F F :.G 2 C N 3 , = @ *.M.=X9X7X).x.2.( a - 1 G >.,.,.,.,.,.,.>.>.,.,.>.3 2 2 ",
"2 3 3 G G F N 3 3 3 3 3 N G F :.>.>.,.,.,.>.G >.>.,.,.,.>.>.,.>.G C F >.>.G >.>.G F C G G G C 2 2 , 4 $ +.B.-X7X7X/.b.3.) f : N ,.,.,.,.>.>.>.>.Z C Z >.>.>.Z Z ",
"3 3 Z :.:.:.F 3 F F G G :.>.>.,.,.>.,.,.,.,.>.,.,.,.,.,.Z G >.>.C 1 2 G ,.>.,.,.:.G C >.,.G C C 3 1 6 * { f.E.'.).L.y.$.( d w G ,.,.,.>.Z G >.>.C 1 2 Z ,.>.Z Z ",
"Z 3 F ,.,.,.G G >.,.,.,.:.:.,.,.,.G ,.,.G G ,.G >.,.,.G C >.,.,.F 2 C >.,.F G ,.,.G C >.,.,.G G :.F c e ^ @.r.x.x.e.;.{ g e 1 3 >.,.,.>.C >.,.,.Z 3 3 >.,.C C C ",
"3 3 3 :.,.,.,.:.N F >.,.:.:.,.:.G ,.,.,.>.,.,.>.>.,.,.,.>.,.,.,.>.:.>.,.,.G G G :.F C :.>.,.,.G 3 3 3 b r ] @.4.e.;.} l r b N >.>.,.,.,.>.,.,.,.>.G >.,.,.G C 2 ",
"2 3 Z :.>.,.,.:.3 N G ,.:.G :.:.Z ,.G G ,.,.,.>.G ,.,.,.,.,.,.,.>.,.,.,.>.:.>.>.G G G G >.,.,.>.3 3 F :.v r ^ ....) ! r N :.>.>.:.,.,.,.,.,.,.,.>.,.,.,.,.G Z A ",
"3 Z :.,.,.,.>.:.,.:.G ,.>.G >.,.>.G C A Z ,.,.Z C G >.>.>.,.,.:.G G :.:.:.>.>.,.>.>.G >.,.,.>.>.>.G G >.F c 6 a $ 7 5 > N >.,.N C G :.>.>.,.,.:.G G :.:.G >.Z Z ",
"3 Z ,.:.,.,.>.,.,.,.>.:.:.>.,.,.,.C C C C Z Z A C G G G F G >.>.>.:.:.>.>.,.,.,.>.>.,.>.,.,.>.>.,.,.,.:.G F , w 6 6 : 1 N :.>.N Z F G G Z G >.>.>.:.:.>.,.,.>.Z ",
"3 Z >.Z G ,.:.>.,.>.>.F :.>.,.,.,.F F F F Z F F Z G G G Z G >.,.,.,.,.,.,.,.,.,.:.,.,.F G ,.>.>.>.,.:.F :.G F F N 2 2 3 N N 3 3 3 G G F G G :.,.,.,.,.:.,.,.G Z ",
"Z Z Z 3 3 :.G :.>.F 3 3 3 F :.,.,.,.:.G :.:.,.,.,.>.>.,.,.,.>.,.,.,.,.G Z ,.,.,.,.:.F N 3 G G :.>.F 3 3 3 N :.:.>.>.:.:.G F N 1 b F >.,.,.,.,.,.,.,.,.G F >.>.C ",
"3 Z :.Z C Z Z G G Z C G 3 3 :.>.,.,.>.:.G G :.,.,.,.,.>.:.:.>.>.G G :.:.3 G :.,.>.>.:.F F F G G G 3 C F 3 3 G ,.,.,.,.:.:.1 w w t N >.,.:.:.>.>.:.G :.G C F Z Z ",
"3 Z ,.:.G G G F F F G :.N 3 :.,.,.>.,.>.G G :.,.,.,.,.>.C G >.>.Z 3 F N N 1 3 G F G :.F F 3 N F F Z G >.3 3 :.,.,.>.:.:.N n 9 g l v G G 3 G :.,.Z 3 G :.G 3 C Z ",
"Z Z :.,.,.,.>.:.:.F 3 3 2 F ,.>.:.:.>.,.,.,.,.:.:.:.>.,.,.,.,.,.:.F 1 < > : , < < , t < , > < b G Z N 3 2 N ,.,.:.:.G N n V | -. .V n 2 :.>.,.,.,.,.,.,.>.G Z Z ",
"C G >.>.,.>.>.,.>.>.:.G G >.,.,.:.Z :.,.>.:.:.>.>.>.:.:.>.>.,.>.G c e 7 7 8 7 8 9 8 7 8 d 8 6 t F :.:.G :.:.,.,.>.G 1 , k } 4.g.7. .k : 2 :.>.>.>.>.>.,.,.>.Z Z ",
"3 Z ,.>.>.:.:.,.,.,.,.,.,.,.,.,.,.Z F :.F C F ,.,.Z Z C 2 2 3 3 1 y g ~ ~ W R R R R R W W ( g i b G :.:.:.,.,.,.>.C , 6 g  .s.K.g.1.R 4 ; b :.:.Z Z C >.,.:.Z Z ",
"C Z G >.>.,.:.G :.>.,.,.,.,.>.:.G Z F C C Z :.,.>.3 Z 3 , - = - 6 ^ -.5.f.5.3.<.@.@.@.@.1.2.O.V e , , , b 3 :.:.G G 1 : 8 } 4.s.7.[ k - 1 3 N N 3 C G :.>.>.Z 3 ",
"C Z >.>.>.:.G G G :.G F >.,.>.G G :.G F :.:.>.,.:.3 3 < 6 % @ % l =.M.&X=XQ.V.B.g.s.d.g.c.v.7.1.! 7 7 7 w c G :.G >.C 1 c V } O.} l n < 2 N N 3 3 3 :.:.:.:.Z 3 ",
"3 Z >.,.G 3 Z G :.:.F 3 :.,.:.>.>.,.,.>.,.,.>.,.>.3 < e g ( / W =.m.=XwXeXqX:X`.!.I.I.E.!.^.K.7.o.( E ( Q r b F >.,.>.:.>.M e g d t 2 3 3 N N N 3 C >.>.:.:.Z C ",
"C Z >.>.Z 2 2 Z ,.,.,.>.>.>.:.:.,.,.,.>.,.,.>.>.:.b 6 l *.4.t.3.m.Q.,XeXtXeX9X<X].)./.^././.E.v.r.1.@.;.{ l 6 c Z ,.,.,.,.F , 6 t 2 3 3 2 N N G Z Z :.:.:.,.:.Z ",
"C Z >.G :.Z C Z ,.,.>.,.,.>.:.,.,.>.,.,.>.:.:.G 2 t k o.m.Q.=XQ.&X;X1XwXwXwX9X9X<X-X).^.!.!.!.K.n.g.d.s.1.{ l e v G ,.,.,.F 1 1 3 :.G Z N :.:.:.>.>.>.:.:.>.:.Z ",
"C Z ,.,.,.,.>.,.,.:.G F :.,.,.,.,.:.:.,.:.F 3 b w g =.M.=X0XtXwXqX8X8X1X8X>X9X9X1X-X).I.K.L.I.I.!.E.L.v.y.3...Q r v F :.:.F F :.:.,.,.,.,.,.,.,.,.,.,.>.G :.Z 3 ",
"2 Z :.,.>.Z >.,.>.:.:.3 :.,.,.>.:.:.F G ,.:.1 6 l } m.*X2XpXpXuXrXrX8X>X:X8X8XwX2X>X`.I.K.L.I.!.~.!.L.v.l.i.i.#.Q w , 3 >.,.>.G :.,.,.>.,.>.,.,.,.>.Z :.:.G 3 1 ",
"3 Z >.,.:.Z :.>.>.:.G Z G >.>.:.Z :.G :.:.N t l } t.=X0XrXiXiXiXuXrX1X>X>X>XqXqX1X>X).I.K.K.I.!.~.I.n.x.x.A.F.i.#.Q e , G >.:.G :.,.,.,.:.:.>.,.>.:.:.,.,.F 3 3 ",
"C Z ,.,.>.Z Z >.,.G N F Z Z F Z G :.,.:.N w g =.M.*XrXpXiXiXiXiX4X2X8X>X8X8X1X1X:X=X(.I.K.L.I.!.I.L.c.g.l.S.R.F.i.+.! e v 2 3 ,.,.:.,.,.,.Z Z >.>.,.,.,.,.,.Z Z ",
"3 :.>.>.:.:.:.:.:.:.:.3 :.>.:.:.>.>.C v u l =.M.*XqXuXiXiX4X4X3X2X1X1X8X8X8X1X:X`.(.!.I.L.I.I.!.!.I.v.g.g.z.S.U.A.i.+._ i t 3 :.>.G >.,.,.:.G >.,.,.>.G Z ,.:.Z ",
"3 3 :.:.:.:.,.>.:.,.>.3 :.,.>.:.>.G 1 = g =.t.*XrXrXiXiXiX4X4XrX2X8X1X8X8X8X>X`.~.E.L.I.I.I.I.I.E.L.v.g.d.d.l.b.G.F.i.#.l 6 1 F F G G >.,.>.>.>.,.>.:.3 3 ,.:.Z ",
"3 3 :.Z :.,.,.,.,.,.,.,.N G ,.>.G ,., = R 3.Q.0XyXuX4XiXiXuXrXqX9X9X9X8X,X:X`.~.I.K.K.I.I.I.I.I.L.n.h.g.y.7.r.b.Y..XJ.w.( 7 - 1 G G G >.,.>.>.,.:.:.G :.:.,.Z 2 ",
"3 3 3 3 :.>.:.>.,.,.,.:.3 :.,.,.,.,., 4 R 3.Q.0XyXrXrXuXuXyXyXeX9X9X9X8X;X=X(.I.K.K.K.I.I.I.I.L.n.x.g.d.s.y.7.l.E.}.F.w.E % : 2 G >.G Z G G :.,.,.,.:.:.,.,.3 1 ",
"3 3 3 3 N :.:.:.,.,.>.3 N :.,.>.>.Z < 5 R 3.V.8XtXwXwXqX0X0X6X6X1X1X1X>X`.~.I.I.L.I.L.I.E.E.L.v.h.d.d.d.s.y.s.b.U.R.D.w.( 7 : b G >.G G Z F G >.,.>.:.:.,.,.3 2 ",
"Z 3 3 Z 3 3 :.:.>.>.>.:.:.:.:.G A , w k o.m.&XqXtXeX9X;X&XV.m.m.V.*X>X-X).I.K.K.L.I.I.I.E.E.L.v.g.s.e.a.s.s.s.z.G.T.J.i.+.Q e c 3 :.,.,.:.,.>.G Z F ,.,.,.:.:.3 ",
"Z Z Z Z :.:.:.:.:.:.:.:.:.:.G 3 t e k O.s.W.;XwXtXtX6XQ.5.%.I U =.f.(.].'.E.K.K.L.E.I.I.E.E.L.v.g.s.r.a.a.y.s.l.G.T.R.J.i.@.] r t 3 :.>.>.>.,.>.C C >.:.Z G 3 G ",
"3 Z :.:.>.>.:.Z :.Z :.>.:.:.G 1 w d } 7.n.).:X8XtXeX=Xm.` O . X E 1.v.^.'.E.I.L.I.E.I.I.E.E.L.n.l.s.y.y.s.a.s.l.A.Y.}.}.G.i.$.R 6 < F >.>.:.>.>.G Z >.G 3 Z Z 3 ",
"< 3 >.:.:.:.>.>.:.G G >.,.>.>.b 6 R ' $.d.P.`.;X:X*Xm.&.# X + P &.*.t.t.K.K.I.E.E.E.K.E.E.!.I.n.l.a.y.d.d.s.s.d.z.D.R..X.XD.w.( 7 , G ,.G G G >.Z ,.,.Z Z ,.Z C ",
"3 3 Z :.:.:.Z Z :.:.G :.:.:.:.c 8 R / ) ..5.B.~.P.5.` & X P 9.0.%X*.` ..<.v.!.!.E.K.K.E.E.E.I.n.x.a.y.s.d.d.s.j.g.l.U._._.D.w./ % : 3 G F >.>.>.,.,.Z C Z >.Z C ",
"Z Z 3 Z :.G 3 3 3 N G :.:.Z G c 6 T $ # # ' y.B.s.' # . O &.N.5X5X0.P * [ h.^./.E.I.E.E.E.E.K.v.l.s.y.i.d.s.y.y.y.a.b.U.T.Z.1.W % : 1 F F >.,.>.,.:.Z C Z Z Z Z ",
"3 Z >.,.>.:.Z Z G 3 N :.>.,.>.N r T # . . E 6.x.2.$     + &.0.5X%X&.+ o ~ h.^./.E.I.E.E.L.L.n.x.g.d.y.d.d.d.g.y.r.r.l.G.G.Z.$.W 7 , F ,.>.G >.>.>.,.:.Z Z >.C C ",
"3 Z :.:.:.,.:.:.:.G G :.,.,.,.b u T # X . E 6.h.1.* . . P &.9.9.&.Y X o { h.^./.E.E.E.I.L.v.l.g.d.d.y.d.d.d.d.y.y.y.l.G.Y.C.$.W 5 < G ,.>.>.G Z Z Z ,.>.Z >.Z C ",
"3 3 F N :.,.,.,.,.:.:.:.,.,.G 1 9 T * # & ' s.v.r.' # L P U U P L + O E -.n.~./.E.E.I.L.v.h.d.y.s.d.s.j.d.s.d.y.y.d.b.Y.T.Z.w.~ 8 , G ,.>.G Z Z A C :.,.,.Z Z Z ",
"3 3 N G :.:.:.G G F F F F G >.v w T W ( } 3.h.L.x.1.` I P L O X o # E =.s.P.~./.!.I.K.v.g.d.a.r.d.d.s.d.s.y.y.y.d.l.Y.oX+X{.u.( 8 > G ,.>.Z Z Z C C Z ,.>.Z C 1 ",
"2 3 3 :.G 3 3 N N 3 3 3 3 3 F 1 w T ` ;.y.c.I.I.E.b.w...I O     o / 1.h.I.I.!.!.E.K.v.h.g.s.a.a.d.d.d.d.s.y.y.s.l.S.XX@X#X Xp./ 8 , G ,.,.G :.Z Z Z >.,.>.C 1 , ",
"2 3 C :.Z C 3 3 3 3 3 3 3 3 2 , 6 T X.s.I.~.~.E.^.'.v.4.( # . o E ;.v.^./.E.E.E.L.n.l.d.r.a.d.s.d.d.d.d.a.a.a.l.A.Y.oX+X+X[.q.W = , Z ,.,.,.,.,.>.>.,.,.,.C A C ",
"1 3 Z Z Z C 3 2 2 C N 3 F G N < 6 T ..7.K.!.~.!./.'.!.h.4.} ( _ @.d.E./.^.n.x.v.v.x.g.a.y.s.d.g.d.s.y.y.a.g.z.D.U.Y.}.{.H.q.} r A Z ,.,.>.>.>.,.Z Z Z G ,.:.Z C ",
"3 3 C :.,.>.C C F G G F :.:.:.v w T ..6.c.K.E.I.^./.!.L.h.s.7.7.g.L.E.!.K.l.l.d.g.d.d.a.a.a.d.d.d.d.y.y.a.b.D.T._.R.F.p.#._ r b Z >.,.,.Z G ,.>.C 1 C G ,.Z Z Z ",
"Z C C >.,.,.Z Z >.>.,.,.:.:.,.3 6 T { 2.g.v.U.L.L.L.L.L.L.L.I.I.E.E.E.n.x.d.y.e.y.s.d.s.d.a.d.s.s.s.s.d.l.D.U.XXoXXXD.$.T 7 > 3 >.,.,.G Z Z ,.,.C A C >.,.Z C C ",
"3 3 Z >.,.,.,.:.F F >.,.:.:.,.1 4 T ..i.S.U.K.c.v.L.n.g.7.7.d.K.E.E.v.l.g.y.y.y.y.y.a.y.y.s.r.7.r.y.d.z.A.G.F.XX@X@X{.u.T % - N >.,.,.,.>.,.,.,.Z :.,.,.,.Z Z A ",
"2 3 Z Z >.,.,.>.C N G ,.:.G >.< 5 f +.i.U.Y.S.l.h.h.s.2.| | @.s.x.v.l.g.d.d.i.s.y.a.d.a.s.s.s.r.r.g.z.S.U.Y.T.XX@X#X Xp./ 7 0 v Z :.,.,.,.,.,.,.,.,.,.,.,.G Z C ",
"3 Z >.>.,.,.>.>.,.G G >.>.:.:.2 y g ..w.Z.F.S.x.s.e.1.{ ( ( X.4.d.g.s.y.y.s.s.y.s.d.l.l.l.j.g.l.l.z.G.T.}..XXXoX+XoXH.8.W j z p A A G ,.,.,.,.G Z Z G G G >.G Z ",
"3 Z >.>.>.,.>.,.,.,.>.>.:.>.>.F v z ( ..w.j.F.F.d.1.{ ( ) o.<.e.y.s.y.y.y.r.r.y.s.d.z.Z.A.z.b.A.G.Y.R._.oX@X@X@X[.H.8.` l h u u t A G G G Z >.>.>.>.,.>.,.,.G Z ",
"3 G ,.F G ,.>.>.,.,.>.G G >.>.>.H p j W ` 4.A.F.i.+.( _ @.e.a.a.d.d.d.y.d.d.y.y.d.l.D.U.T.Y.Y.Y.Y.T.T.T.oX@X#XOXH.8.( j u p x p v A Z Z Z G G ,.,.,.,.,.,.,.:.Z ",
"Z F F 3 C G G :.>.F 3 3 3 C >.>.G H x j g { w.k.u...{ o.e.x.c.g.l.z.z.b.A.b.z.x.b.A.Y..XoXoX|.}.F.k.j.j.D.[. XH.8.W 8 0 p D D S D F >.,.,.,.,.,.,.,.,.Z Z :.:.Z ",
"3 Z G F F C Z G F F F G N N G :.G D B q j Q ..1.2.$.1.7.d.c.v.x.x.A.E.Y.T.Y.U.U.U.R.R.XX@X$X@X Xk.#.o.#.q.u.p.8.{ j 0 y p S J K A G ,.>.G >.>.,.Z Z :.Z C C Z Z ",
"3 Z ,.>.G F G Z F F :.:.F N :.G A S S m u h R _ +.2.r.d.g.g.g.a.l.A.J.R.R.T.T.T.T.T.T.R.oX#X+XH.q.( g ~ _ ) ' _ ^ x m D m p J S D F ,.>.G G >.>.Z Z :.:.Z 3 C Z ",
"Z G :.,.,.>.>.:.:.F N 3 2 F >.:.A A A A K p h g _ O.6.r.4.2.<.2.w.e.j.C.Z.C.k.C.k.k.j.k.J.{.[.u.) a % * * * s 8 u m D D S S S v A G >.,.,.,.,.,.,.,.,.,.,.:.Z Z ",
"Z Z >.,.,.>.>.,.,.>.G G G :.,.,.Z C A A S p u h l } o.O.o...[ | X.+.#.$.;.#.#.#.$.$.#.#.8.u.8...Q k 0 0 q q 0 u p v S S m m v F G >.G >.>.>.>.,.,.>.>.,.,.>.Z Z ",
"3 Z ,.:.:.>.>.>.,.,.,.,.,.,.>.,.:.C A A m p p x z Q ~ ~ W W W W W ~ / ~ ~ ~ / ( ~ ~ ~ ~ ( ) ~ Q x S S m S S p S p p p m p p b ,.>.G G C C C Z Z Z Z C >.,.:.Z Z ",
"C Z :.:.,.,.:.:.G >.,.,.,.,.>.>.Z C C A , S D J x g f f f f s s a a s s s f s s s f s s s * s q p D A D D D D S x p p p t b G ,.>.C F G Z Z C C C Z Z Z :.:.Z 3 ",
"C Z >.>.>.>.Z Z :.:.G :.:.,.>.:.G :.G N N M H K x h h d 8 q 8 j 0 8 q q q q q u h q u q q 8 0 u p A S v S D D S B B p v b G >.,.>.N N N F N N N 3 3 :.:.:.:.Z 3 ",
"3 Z >.,.Z 3 Z :.:.:.3 3 :.,.>.:.>.,.,.>.,.G N K J p p u u u u u u p m m m p m S p m m B p u p p m p p u m S S p B M b F >.,.>.,.:.G N N N N N N 3 Z :.:.:.:.Z C ",
"C Z ,.:.Z 3 2 Z ,.,.>.>.>.>.:.:.,.,.,.,.,.:.G N H H v c y u m m m p m S S S K D S J M m p y u p S J J B S S v A H H G :.,.,.>.,.,.:.N N 3 3 N :.Z :.:.:.:.,.:.Z ",
"C Z >.:.G F C G ,.,.>.,.,.:.:.,.,.,.>.,.,.G N G :.>.Z b S m m S S S S m S S S D S M K m m m p m S J J B S A A G :.G G >.>.:.G >.,.,.:.G 3 :.:.>.>.:.>.:.:.>.:.Z ",
"3 Z ,.,.,.,.>.>.,.:.:.Z :.,.,.,.,.:.:.,.:.G N :.>.,.>.G A D S D D D D m m m v M M M M D D M M m S S m p v F G ,.,.:.:.:.:.G F :.:.,.,.,.,.,.,.,.,.,.,.:.Z :.Z 3 ",
"3 3 :.,.>.G >.,.>.:.Z 3 :.,.,.,.:.:.F G >.,.:.G G ,.,.G Z A A H H b b b b v v v v v b H b v F H A A v t A >.,.,.:.G G G >.,.>.F :.,.,.,.,.,.>.,.,.>.:.:.:.Z 2 2 ",
"3 3 :.,.>.Z :.>.>.:.:.Z :.>.>.:.G :.G G >.,.:.G G ,.,.,.G G C Z G F F G G F 3 3 G G F G Z 2 F G Z C A 2 F G >.G G :.G :.,.,.>.Z :.,.,.,.,.:.:.>.,.:.:.>.,.:.3 2 ",
"C :.,.,.>.Z Z >.,.:.3 3 Z 3 Z 3 G :.,.,.>.N 3 ,.,.>.,.,.,.Z Z >.>.>.,.,.>.>.,.,.,.>.,.,.>.G Z G ,.Z C Z F G F F G :.,.,.:.C C >.,.:.,.,.,.:.Z >.>.>.,.,.,.:.:.Z ",
"3 Z >.>.:.:.:.:.:.:.Z C :.>.:.:.G >.>.G G G >.>.G G >.,.,.G G ,.,.,.:.Z :.,.,.,.>.>.>.,.>.Z >.Z >.>.Z C :.:.:.G :.:.:.Z :.:.>.>.G G :.,.,.:.G >.,.,.:.G :.>.:.:.",
"3 Z Z :.:.:.,.:.Z ,.>.Z :.,.>.>.>.,.G F G ,.,.G F G G ,.,.>.G ,.,.>.:.3 3 ,.,.,.Z >.Z >.Z >.>.>.Z ,.>.Z :.,.,.:.>.,.:.Z G ,.,.G 3 G :.,.,.:.:.,.,.>.:.3 3 ,.:.3 ",
"3 C Z :.:.,.,.,.,.,.,.,.Z Z ,.>.>.,.,.G >.>.G C F G G ,.,.>.,.,.>.:.Z :.:.,.:.:.>.G Z Z ,.,.,.,.,.,.,.,.G G ,.>.:.,.>.:.>.:.G 3 F :.:.:.,.,.>.,.:.:.:.:.>.,.Z 2 ",
"3 3 C Z Z ,.:.,.,.,.,.:.Z Z ,.,.,.,.,.G ,.>.G Z G >.G G G G G ,.,.,.:.>.,.,.Z 3 >.G C C Z ,.>.>.,.,.,.Z F G ,.,.,.,.,.>.,.:.G C :.:.G G :.Z Z ,.,.,.:.:.>.,.3 1 ",
"3 3 3 3 3 :.:.:.,.,.:.Z :.:.,.>.>.G G >.,.,.>.G >.,.Z Z F F G >.,.>.>.>.,.>.G Z >.G C 2 C Z Z >.,.,.>.Z Z >.>.,.:.:.:.:.,.,.:.G :.,.:.Z Z Z :.>.,.,.:.>.,.,.Z 1 ",
"Z C 3 Z 3 3 Z :.>.>.:.:.Z :.>.:.Z Z G G ,.,.,.G >.,.,.,.>.,.,.G C Z >.,.,.>.>.,.,.Z C C C C >.>.>.,.>.Z Z >.>.G F Z Z G ,.,.,.:.:.:.,.,.:.,.>.:.3 Z ,.,.,.:.Z 3 ",
"2 2 3 3 Z 3 Z Z Z 3 Z Z Z Z Z 3 C C Z Z Z Z Z Z Z Z Z Z Z Z G G 2 3 Z Z C 3 G G G C 2 C C C C Z Z Z C C Z C Z C Z Z Z Z G G G Z :.:.:.Z Z Z :.Z 3 2 Z Z 3 3 3 3 ",
"< 1 2 3 Z 3 3 3 2 2 2 2 C 3 2 3 C C Z Z 2 2 Z Z Z C C C Z A C F 3 1 C 1 1 1 2 C C 2 2 C C C A 2 2 1 2 C C C 2 3 Z 3 Z 3 2 2 3 Z 3 3 3 3 3 3 3 Z 2 1 3 2 < 1 1 1 "
};
