/* XPM */
static char *Group_6_5__resized[] = {
/* columns rows colors chars-per-pixel */
"80 80 234 2 ",
"   c #07031B",
".  c #223F1C",
"X  c #0C0728",
"o  c #120C28",
"O  c #13182A",
"+  c #110C31",
"@  c #181536",
"#  c #23183C",
"$  c #1B3129",
"%  c #1C2B3A",
"&  c #253C29",
"*  c #22323C",
"=  c #25441D",
"-  c #2B4D1D",
";  c #2F561A",
":  c #2E531E",
">  c #30571E",
",  c #335C1D",
"<  c #36621B",
"1  c #39661C",
"2  c #3C6D1D",
"3  c #3F711E",
"4  c #264525",
"5  c #284722",
"6  c #2B4B24",
"7  c #26442C",
"8  c #2B442C",
"9  c #2A4B2C",
"0  c #314A27",
"q  c #314D2C",
"w  c #2E5223",
"e  c #2E532C",
"r  c #345325",
"t  c #335C23",
"y  c #3A5C27",
"u  c #35542B",
"i  c #355A2A",
"p  c #3A5C2C",
"a  c #264533",
"s  c #2B4534",
"d  c #274835",
"f  c #2A4A34",
"g  c #26433C",
"h  c #29463D",
"j  c #2A4A3C",
"k  c #314F36",
"l  c #2D5233",
"z  c #2D533A",
"x  c #335533",
"c  c #345A34",
"v  c #3B5D31",
"b  c #34583B",
"n  c #366223",
"m  c #3A6523",
"M  c #3D6B22",
"N  c #35612D",
"B  c #3D632C",
"V  c #3F692A",
"C  c #3F7220",
"Z  c #3E6331",
"A  c #41751F",
"S  c #43781F",
"D  c #406E25",
"F  c #40672E",
"G  c #416B2C",
"H  c #417621",
"J  c #457C21",
"K  c #437328",
"L  c #406631",
"P  c #426B31",
"I  c #272747",
"U  c #273D46",
"Y  c #323052",
"T  c #36365B",
"R  c #383D63",
"E  c #463D5B",
"W  c #264443",
"Q  c #284644",
"!  c #264845",
"~  c #2A4B43",
"^  c #2A4D4B",
"/  c #2D5247",
"(  c #335948",
")  c #325C4C",
"_  c #304C52",
"`  c #2C5352",
"'  c #2E5B57",
"]  c #315B55",
"[  c #355A57",
"{  c #325C5A",
"}  c #39654A",
"|  c #396656",
" . c #33635C",
".. c #3A7158",
"X. c #336364",
"o. c #366B64",
"O. c #3A6C64",
"+. c #366C6B",
"@. c #357565",
"#. c #3B7364",
"$. c #3C746C",
"%. c #3D7A6C",
"&. c #376D71",
"*. c #3A7775",
"=. c #39767C",
"-. c #446B53",
";. c #45735B",
":. c #514B69",
">. c #427C6D",
",. c #4B7B6C",
"<. c #50706F",
"1. c #417D71",
"2. c #4C7972",
"3. c #478022",
"4. c #498423",
"5. c #4C8924",
"6. c #42836D",
"7. c #438374",
"8. c #458A76",
"9. c #488578",
"0. c #458B7A",
"q. c #498D7A",
"w. c #568C79",
"e. c #4A937D",
"r. c #4C987D",
"t. c #5B927D",
"y. c #6A967B",
"u. c #74997B",
"i. c #3A7980",
"p. c #596182",
"a. c #6E718F",
"s. c #3D8282",
"d. c #4A8F83",
"f. c #4E9C84",
"g. c #489688",
"h. c #4F9F88",
"j. c #589582",
"k. c #509E84",
"l. c #428D99",
"z. c #4A9E96",
"x. c #44909C",
"c. c #629D81",
"v. c #4EA185",
"b. c #4FA188",
"n. c #50A186",
"m. c #51A38A",
"M. c #54AA8D",
"N. c #58A88B",
"B. c #57B08F",
"V. c #4CA49B",
"C. c #54AB93",
"Z. c #53AD9C",
"A. c #59B493",
"S. c #5CBA96",
"D. c #57B398",
"F. c #56B29B",
"G. c #5DBD99",
"H. c #69A68D",
"J. c #6CAB90",
"K. c #66BA98",
"L. c #73B89A",
"P. c #4898A9",
"I. c #4CA6A4",
"U. c #56B6A2",
"Y. c #57B7A4",
"T. c #59BAA3",
"R. c #59BFAC",
"E. c #4FAEB8",
"W. c #52B6BA",
"Q. c #5EC39B",
"!. c #61C59D",
"~. c #63C99F",
"^. c #7AC39F",
"/. c #5DC2A7",
"(. c #5BC2AE",
"). c #5BC4B3",
"_. c #5DC8B5",
"`. c #5CC7B8",
"'. c #5DCABA",
"]. c #64CCA1",
"[. c #6ACEA3",
"{. c #7AC6A3",
"}. c #66D1A4",
"|. c #6AD5A6",
" X c #66D2A8",
".X c #6AD6A8",
"XX c #6BDCAB",
"oX c #73D6AA",
"OX c #79DAAD",
"+X c #6FE4B0",
"@X c #79E7B4",
"#X c #53B7C7",
"$X c #5DCBC1",
"%X c #5DCCD1",
"&X c #60CFC1",
"*X c #61D6CA",
"=X c #63DBD6",
"-X c #66E2DD",
";X c #5ED4E2",
":X c #63DDE7",
">X c #67E6E7",
",X c #6CF0ED",
"<X c #69EBF2",
"1X c #9292A7",
"2X c #8CA2A4",
"3X c #9AA5BC",
"4X c #8ACFAA",
"5X c #89DCB3",
"6X c #A1CAA2",
"7X c #A7D7AE",
"8X c #85E3B4",
"9X c #88E9B9",
"0X c #97E8BC",
"qX c #94EDBD",
"wX c #8EF0BE",
"eX c #99F0BF",
"rX c #B1EFBD",
"tX c #CBF0BC",
"yX c #B5BCCD",
"uX c #9AEAC3",
"iX c #96F2C1",
"pX c #9BF3C2",
"aX c #9AF8C7",
"sX c #A6EDC7",
"dX c #A5F7C6",
"fX c #A2FBCB",
"gX c #B8FBC6",
"hX c #AAFED2",
"jX c #B8FDD1",
"kX c #CCF9C5",
"lX c #D8FEC7",
"zX c #CBFED6",
"xX c #DFFED1",
"cX c #E2FDCF",
/* pixels */
"; < A 2 2 A A A A 1 2 S 3 3 S 3 3 S S 3 2 2 3 J S S S A 2 2 2 3 A A S 3 2 S S 2 < 1 S 3 2 3 3 3 S 1 2 S 3 3 S S 3 S 3 S 2 2 3 S A A A A 2 2 A A A A A A A S 2 , ",
"1 2 A A S H 2 A A 3 3 J J S S 3 2 S 3 3 2 3 S S 3 3 3 2 3 H J S S S S 2 A S 3.S S S 3 3 S S 3 3 3 3 3 S J S S 3 3 3 3 3 3 3 3 S A A A D A A S S S S A 2 A S A 1 ",
"S S A S J J A A A S S J J J J S H J S 2 S J J H A H 2 C S J 5.5.5.3.S 2 S S 4.5.5.3.H J S S S 2 3 3 S 3.J J J 3 3 S 3 3 3 J J J H A A A A 3.4.5.5.3.A D A J S S ",
"A S 4.4.5.J A H S A S J 4.5.5.4.4.J H A J 3.4.4.J 3.3.3.3.3.3.4.4.4.3.S S 3.4.3.3.3.4.5.5.3.S S 3.S 3 3.4.4.5.5.5.3.S 3 J 4.4.4.4.J J 4.S 3.4.4.5.5.S A S 3.J 2 ",
"A A J 3.4.4.3.3.3.J J 3.5.5.5.4.4.4.3.3.5.5.5.5.5.5.5.5.4.J J J J J 4.3.J 3.3.3.J 3.3.3.5.5.3.3.4.S J 3.5.5.5.4.4.4.3.J 4.5.5.5.5.5.5.5.4.J J J S S 5.S S 3.S A ",
"A A A A 3.5.5.5.4.3.4.3.5.4.J J 3.5.5.5.5.5.5.5.5.5.5.5.3.J S J 3 A 4.5.4.S 3.5.3.J H C 3.5.5.5.4.4.3.3.5.5.J J 3.5.5.5.5.5.5.5.5.5.5.4.4.J S J A A 5.5.5.S S S ",
"2 A A S J J J J J J H H H J 4.4.4.4.J S J J J 3.4.5.5.4.4.J H J 2 3 3.5.5.J S S J J C J J J J J C C J J C J 4.5.4.4.J S H J 3.4.4.5.5.5.4.J H J 2 A S 4.5.J 2 1 ",
"2 2 A S J S H A C C 3 3 3 A J 4.4.3.J J H J S S J 5.5.5.5.3.J 3.H J 4.5.4.H 2 S J J S 3.J C 3 C 3 3 3 3 2 2 C J 3.J J J J J 3 J J 4.5.5.5.J J 4.A S 5.5.5.S 2 < ",
"2 3 3 3.J 3 3 3 3 3 3 C 3 3 2 J J J 5.5.5.J H M S 4.5.5.5.5.5.5.4.3.5.5.4.3 C J J H S J J 3 2 C 3 3 3 M < > : > 1 C 4.5.5.4.C C H 4.5.5.5.5.5.5.5.4.5.5.4.3 2 2 ",
"1 3 S J J J C 3 2 3 C 2 C J C 3.4.4.5.5.5.4.J 4.5.5.5.5.4.4.4.4.J A J 3.5.3.4.5.J J 3 J J J 3 2 2 A 3 1 : = $ & 6 < C 5.5.4.J 4.5.5.5.5.4.3.4.4.S 3 S 4.4.3.S S ",
"3 3 J J 3.3.C 3 H J J J J 3.4.5.5.4.5.5.5.5.4.5.5.5.5.4.J 3.4.4.H 1 2 J 5.3.4.5.3.J S 3.4.3.3 3 H J H t w j ^ ^ j i C 3.4.4.4.4.5.5.5.4.S J 4.4.3 2 2 S 5.4.S S ",
"S 3 3 5.5.5.J J 3.5.5.5.4.4.5.5.5.J 5.5.J J 5.J 3.5.5.4.3 3.5.5.H 2 3 4.4.J J 5.5.3.H 4.5.5.J J J J C N -.,.d.9.#.( N M C J 4.3.4.5.5.3.S 3.5.5.C 2 3 3.5.S S 3 ",
"3 3 S 3.5.5.5.3.C J 4.5.4.J 5.3.J 5.5.5.4.5.5.3.4.5.5.5.4.5.5.5.3.3.4.5.5.S J 4.3.J J J 5.5.5.J < > i -.w.L.{.K.v.@.( e n 3 5.4.4.5.5.5.3.5.5.5.4.3.4.5.5.S S 3 ",
"2 3 S S 4.5.5.4.3 C J 5.3.J 4.3.J 5.J J 5.5.5.J 3.5.5.5.5.5.5.4.4.4.5.3.J S H C 3 2 2 3 J 4.5.J , . d ,.J.5XiX@XQ.e.| j w C 5.4.3.5.5.5.5.5.5.4.5.5.5.5.4.3.S 3 ",
"3 S 4.5.5.5.4.4.5.3.J 5.3.3.4.5.5.J A 2 J 4.5.J H J 3.4.5.5.5.3.3.J S 1 , : t < , , , > , M J 3.A & W 9.L.iXaX9X}.m.%.` 7 m 5.3 3 J 4.4.4.5.5.3.3.J J 3.3.3.3.S ",
"3 S 5.3.4.5.4.4.5.5.4.3.3.4.4.5.5.H A A H J J C A H J J C 3.4.4.4.J 1 w 4 7 7 9 7 9 7 a 9 r C 4.S 5 g ,.K.@X@XXXQ.f.+.^ 4 < J 3 3 J J J J 3.4.4.4.3.3.4.5.5.3.S ",
"3 S 5.S J 5.4.4.4.5.3.J J 3.5.5.4.J H J C S H H S J J J J S C 3.3.C m l ^ ^ ^ ~ ~ ~ / ^ ~ z M 3 A w / >.M.!..X/.m.7. .j 6 < H J C 3.3.J 3 3.3.5.5.5.5.4.5.5.3.A ",
"S S S 3 3 3.J 3.3.J C 3 2 J 3.5.5.4.4.J J 4.5.4.4.4.4.5.4.2 < : > N N ;.w.e.8.%.%.%.7.0.7...l : r l ..f.A.G.S.b.7. .z e t C 4.4.4.4.5.4.5.5.5.5.5.5.5.J S 4.3.A ",
"3 S 4.3 C 3 S J J 3 S J C 3 3.5.5.5.4.3.J J 4.5.5.5.5.4.C t 6 & & d -.y.^.{.K.m.b.M.B.S.M.8.} 7 l ..r.Q.Q.D.h.7. .z i m M J 4.5.5.5.5.5.3.4.4.5.3.J 3.J 3 S S S ",
"3 S 5.3.J J J J H J J 3.H 3 3.4.5.4.5.4.J J 3.4.5.5.5.H t f ~ ` ! ) w.{.qXwXOX~.Q.Q.~.|.}.M.%.]  .q.S.~.G.m.%. .j w m 3.J J 3.5.5.5.5.4.3 3.4.4.3 3 J 3.3.3 3 A ",
"S J 3.5.5.5.4.3.3.S 3 3 M H 5.4.3.3.5.5.5.5.5.3.3.3.S t l | 9.j.d.j.L.0XaXaXwX@X+X.X.XXX.XQ.n.q.q.M.Q.G.m.1.) j 9 < J 5.5.5.5.3.3.4.4.4.5.5.5.5.5.5.5.5.4.3.3 S ",
"S S 4.4.5.4.4.5.5.4.3.S J J 5.5.4.S 3.4.4.3.3.3.J A > e | t.L.5X4XOX5XeXdXpXaXwX@XoX}.}.}.~.Q.B.B.S.A.h.7. .f t 1 2 J 4.3.3.J 3.4.3.3.3.4.4.4.4.4.5.4.4.5.4.3.S ",
"3 S 5.4.3.3.4.4.5.5.5.5.5.5.5.5.4.S S J H S S 4.J y 6 ( t.4XeXhXhXpXpXpXeXdXdXeX8X|.Q.Q.!.~.}.}.~.G.M.7. .^ 6 m 3.J S J 3 1 2 3.5.3.3.3.3 3 3.J 3 3.3 4.5.3.S S ",
"S S J 3.5.5.4.J S 5.5.5.5.5.4.4.J J H S 3 J J S , 8 } w.6XrXkXjXjXfXpXiXeXpXdXeX8X.XQ.Q.!.}.}.XX}.Q.M.*.{ g 5 < J J S 3 < : : M 3 3 3 3 J J C C 3 3 4.4.3.4.S 3 ",
"3 S 3.4.4.3.3.J J 3.J S 4.5.4.J J J J J J 3.H t e | y.6XtXlXkXkXdXdXaXeXeXaXdXeX8X[.!.!.!.~.}.}.].Q.M.7. .! 5 , S 3.3.2 w 9 l i M 2 3 C C 3 3 C 2 3 3.3.3.3.S 3 ",
"3 S 4.5.J 3 C 3.3.3.J 3 3.4.4.4.3.5.4.3.4.J m l | u.6XtXcXcXkXrXrXeXwXeXeXeXeX8XOX|.!.!.~.~.}.~./.S.M.0.$.| f , C J S M c )  .b N 2 2 3 3 3 3 3 3 S 4.4.3.3.S 3 ",
"S S 4.3.S 2 3 S 5.5.4.4.5.4.3.3.5.5.5.3.3 m B -.u.6XtXlXxXkXgXrXeXeXeXeXeXqX8XOX|.~.Q.~.~.~.}.[.Q.S.C.d.8.#.( l w : - w } 6.r.%.} w , 1 3 3 C 3.S J 3.3.4.4.3.S ",
"S S 4.3.3.S 3 S 5.5.5.4.4.4.3.5.5.4.5.J ; e } y.6XtXcXlXkXgXrXeXeXeXpXaXeX8XoX[.~.~.~.~.~.~.}.~.Q.A.M.b.b.e.#.) d 7 7 / 6.M.A.e.| 7 : 1 C 4.4.4.4.4.3.3.4.4.3.S ",
"3 S 5.5.5.5.4.4.4.3.J J 3.4.5.5.5.4.4.C = d <.2XtXcXxXkXgXdXaXiXeXeXeXqX9XOX~.!.Q.Q.~.~.~.~.!.!.A.M.M.M.C.M.e.%.X.` { %.v.A.B.q. .9 t 3 4.5.5.5.5.5.5.4.J J J 3 ",
"2 S 3.5.4.S 4.5.4.3.J H 3.5.5.4.3.J J 2 . a | J.7XzXzXzXjXjXhXaXfXeXqX8XOX|.!.!.Q.!.~.].].Q.K.S.M.M.m.m.M.M.e.7.%.s.g.V.Z.v.7.} c m 3 3.5.5.5.5.5.4.S 3.3.J 3 1 ",
"2 S 4.5.3.S 3.5.4.3.J C J 4.4.J J J J M - f O.J.0XjXhXsXuXuXuXuXeXeX9XOX~.!.!.!.~.~.].].~.Q.D.C.m.m.m.m.M.m.f.f.h.Z.T.Y.V.*.) e M C 4.5.5.S 3.5.4.3.3.5.5.J 3 3 ",
"S S 5.5.4.S S 3.5.J C J S J 3 J J J C m l | t.{.uXiX5XL.H.H.H.{.8XwX8X|.!.Q.!.~.~.~.~.].~.Q.B.m.f.f.m.m.k.m.M.Z.G.).(.V.*./ 4 M S S 5.5.5.S S 4.4.5.5.5.5.5.S S ",
"3 S 4.4.4.S 3.3.3.4.J 3 J 4.J 3.J 2 r b -.c.4XuXfXwX2X2._ Q [ q.!.8X@XXX~.Q.Q.~.~.~.].].~.!.A.m.f.h.m.m.k.M.Z.T.R.Y.z.%.} c < C J J 3.5.5.J J 4.5.5.4.J J 5.4.S ",
"3 3 3.3.3.4.4.4.S 4.4.J 3.5.5.4.3 w 9 ) t.{.iXhXdX^.w.U o o %  .t.!.XXXX~.~.~.~.~.~.~.[.~.!.A.M.f.v.m.f.k.m.F._.).V.*.( 7 m J 3.J J J 5.5.3.3.5.5.4.3.3 3 4.3.3 ",
"3 3 3.3.4.5.5.5.5.5.5.4.S J 5.4.C - d O.J.8XeXeX^.2.U @ o # T :.,.q.m.S.~.].}.~.~.~.].].~.!.A.m.b.f.m.f.k.M.T.'.`.z.X.g - 1 J C J J J 3.5.5.4.5.4.3.J 3.4.5.S 2 ",
"3 3 3 3 S 4.4.4.5.5.4.3.J J 5.5.J w d X.N.oXOXL.2.U + # E a.1X1X<.[ @.v.!.|.}.~.~.~.~.}.].!.A.M.h.b.k.m.k.M.T._.).z.X.* 6 1 3.C J 3.J J J J J 5.5.4.3.4.5.5.3 1 ",
"3 3 3 3 C 3.3.3.5.5.4.3 J 3.5.5.C : d { v.!.S.>.Q O o I p.3XyX3X:.* ! 8.!.XX|.~.!.].].].].G.A.M.h.b.f.m.f.m.T._.).z.+.! w 1 3.J 3.4.3.S S J 3.4.5.4.3.4.5.4.S 1 ",
"S S 3 3 3 3 3.3.4.5.4.4.J 3.4.J 2 - a ' v.S.m.` O   X Y a.3X3Xa.Y X % 6.!.XXXX~.].].~.!.G.A.M.M.b.b.m.m.k.M.U._.).V.+.j w 1 4.4.3.5.5.5.J 4.4.J S J 5.5.5.4.J S ",
"3 S S 3.3.3.3.S 3.4.3.3.3.3.3.3.3 : a  .m.S.m.] @ X @ R p.a.a.:.# o * 8.Q.XX|.~.].].~.G.A.M.m.m.m.m.m.k.k.M.U._.R.z.+.! 6 M 4.4.4.4.4.4.4.5.4.4.3 3 4.3.S 3 J J ",
"3 3 3.4.4.4.4.3.3.C J 4.4.4.S 4.J : 7  .v.S.B.%.U @ I T R R I @ O %  .r.~.XX|.~.].!.!.A.M.h.h.m.m.m.m.f.k.M.U._.).z.+.h 5 < 4.5.5.4.4.4.3.3.4.5.J S 4.J 3 J 3 3 ",
"1 3 4.4.3.4.4.4.4.J J 4.4.5.5.4.C : a  .e.S.Q.n.>._ Y I # + O O * [ w.A.~..XXX~.~.Q.A.M.m.f.h.h.m.m.m.h.k.m.T._.).z.+.~ 6 1 3.5.5.4.5.4.4.J J 3.4.4.5.J 4.5.S 2 ",
"3 3 S 3.S 3.3.S J J J 3.3.3.3.3.M : a [ q.S.}.~.B.>._ % X   X I X.r.G.~.}.|.}.!.Q.B.M.m.h.f.m.m.m.m.m.k.k.M.T._.W.z.+.j 5 , J 3.J H J J J J 4.4.4.4.J A S 4.J A ",
"S S 3 S 3.3.3 3 3 J J 3.J J J 3 1 : d ` q.S.XX+X|.N.#.U o o % [ r.!.XX.X/.!.~.K.A.M.v.f.m.m.m.m.m.m.m.k.k.m.Y.).).z.+.Q 4 < J S A H A A H J 5.5.5.3.S A A J S S ",
"3 S 5.5.4.4.3 3 J 3 C 3.4.5.5.4.C : a ' 7.S.+X@X+X!.n.%.{ `  .q.S..XXX].S.A.S.A.M.m.h.h.h.m.m.m.m.m.m.k.k.m.Z.].(.z.+.j 6 1 4.4.3.J J 4.4.J 4.4.4.4.J S S 3.S A ",
"3 J 3.4.4.5.4.3.3.J J 3.5.5.5.4.J : s ` q.S..X+XXX}.S.M.k.k.m.A.~.|.].G.M.M.M.M.M.m.h.h.m.m.m.m.m.m.m.k.k.m.F._.R.V.+.h 6 2 5.5.5.4.5.5.4.J J J J J 4.J S 3.S A ",
"3 3 3 C 3.5.5.4.4.3.3.4.5.5.J J C : f ' 7.A.}.}.].Q.Q.S.!.~.].].].!.A.M.b.f.h.h.b.m.m.m.m.m.m.m.m.m.h.m.h.C.(.&X'.I.&.~ 6 2 5.5.5.5.5.5.3.J J S A A 4.5.4.S S S ",
"3 3 3 3.3.3.3.J J H H H H J 4.4.H w s ' 8.B.}. X~.A.r.r.r.M.!.].!.A.M.m.h.h.h.h.b.m.m.m.m.m.m.m.m.m.n.M.C.U.&X>X:XW.=.~ = , 3.3.5.5.5.5.4.J H J A A J 5.5.S A 1 ",
"2 2 3 J J C 3 3 C 3 3 H 2 H J 4.J : d ' %.b.D.Q.A.f.%. .#.q.M.D.A.M.M.h.m.h.h.h.m.m.m.m.m.m.m.m.k.k.h.M.Z.).=X<X:X#X=.j = , H J J 4.5.5.4.3.J J A J 4.5.5.A 1 < ",
"2 3 A 3.S S 3 3 3 3 3 C 3 3 2 J C : d ` o.8.g.g.q.%.{ ` { >.f.M.M.m.k.m.m.m.m.m.m.m.m.b.m.b.b.v.k.k.m.C.T.`.=X;X%XP.&.k r 1 H 2 S 4.5.5.5.5.5.5.5.J 5.5.4.A 2 D ",
"1 3 A S S S 3 2 3 C C 2 C J J 3.S r d `  .o.@.X. . . . .*.8.f.m.m.f.m.k.m.m.m.m.m.m.m.b.m.b.b.v.k.r.n.C./.).W.E.x.=.[ b M H J 4.5.5.5.5.4.J 4.4.J A J 4.5.J H S ",
"3 3 A 3.4.4.S 3 S J J J J 3.3.5.J i d ^ ` ` ^ ! ^ { #.8.h.h.h.m.h.m.m.m.m.m.m.m.m.m.m.m.m.m.b.b.k.f.m.D.).).I.s.X.^ b L K J 3.5.5.5.5.4.S J 5.4.A 1 D S 4.4.S S ",
"A 3 A 5.5.5.S S 3.4.5.5.4.3.5.5.J t z ~ W U U g ^  .8.m.A.B.m.m.m.m.m.m.m.m.m.m.m.m.m.v.m.m.m.C.M.M.C.(.*X*XI.X.U & u K M H J J 4.5.5.4.S J 5.5.A D A 4.5.S A A ",
"3 3 A 4.5.5.5.3.3 J 4.5.3.J 3.K m B c k g W ! ^  .7.e.M.C.M.m.m.m.m.m.m.m.m.m.m.m.v.f.r.f.b.Z.F.U.Z.U.&X>X>XE.*.g & r G K K K S J 5.5.5.4.4.5.5.4.S 5.5.5.S S A ",
"2 3 S S 4.5.5.4.S 3 J 5.3.J J m B V B u s W ` @.0.m.M.M.M.m.m.m.m.m.m.h.m.m.m.m.m.v.m.n.v.C.U.(.).(.`.*X>X:X#X=.^ 8 0 B G K K C J 4.5.5.5.5.5.5.5.5.5.5.4.4.S A ",
"3 S 4.5.5.5.4.4.5.J J 5.4.J C V L F p r 8 Q ' 0.D.].F.C.h.h.m.m.m.m.m.h.n.k.k.m.b.C.C.M.M.F.(.'.*X-X=X:X;X#Xx.+./ 0 r u B L V m D S 4.4.5.5.5.3.S S 4.S 4.4.S S ",
"3 S 5.3.4.5.5.4.5.5.4.3.3.3.K G V B p u 8 h  .g.R._./.C.k.k.m.m.m.m.m.k.k.f.f.v.Z.U.T.U.U./.).&X-X,X,X;X#Xl.X.) b u u u v p p n 2 J J J J J 3.4.5.S 4.4.4.5.J S ",
"3 J 4.S J 5.4.3.4.5.4.J J J J G F B p u 8 h { d.U.`./.C.m.v.M.m.m.m.m.M.m.m.m.M.U.(.'.'.'.`.).'.=X>X:X#Xl. .j u F y y y p v p m H J J J H J 3.5.5.5.4.4.5.5.3.S ",
"S S J M S J J J 3.J C 3 3 C H G L L B p u k ] $.s.Z.Z.C.M.M.M.M.M.C.D.F.U.U.F.T.).'.*X-X-X%XW.I.V.W.#Xx.X.s 0 y G G F p v L F D J 4.5.5.5.5.5.5.5.5.5.3.S 3.3.S ",
"3 S J J H S J J J S 3 J 3 2 M G F L L B u v b ` *.0.g.M.B.B.C.M.m.M.F./.).)._._.`.'.=X,X<X;XE.s.X.i.=.+./ q r G G G G B v v F H 3.5.5.4.J J 5.5.3.S 3.S 3 S S S ",
"3 S 5.J J J J J H H J 3.H 2 3 K F Z F F B p x k ~  .6.d.M.M.b.f.k.m.Z.T.).`.).).R.(.$X>X:X%Xs.X.* W ^ ~ k u G G G F F F p y V K 3.5.5.4.J J 3.4.S S 3.3.S 3 3 S ",
"S J 3.5.5.5.3.3.J J A A 3 3 3.H D B B L G G F u f ~ | %.0.8.7.6.%.7.0.g.z.z.z.z.g.g.V.E.E.P.<./ & & & q q y K G B B L F F D H H S 5.4.5.5.5.5.5.5.5.5.5.5.3.S S ",
"S S 4.4.5.4.4.5.5.3.J J J 3.4.4.H m y L F V B B i l / )  .X. .'  . . .o.+.+.+.o.+.o.&.=.=.&.[ x r r 0 u p F G G B v p B G D H J 4.4.3.3.4.4.4.5.4.4.3.5.5.4.S S ",
"A S 4.4.3.4.4.5.5.5.5.5.5.5.4.5.J M m p p p p G F p z ~ ! ! W W ! ! ~ Q ! ~ ! ! ~ Q W ^ W ~ x Z G K P G F F F L L p p B m A H 5.5.S S S A A S S S S S 3.5.3.3.S ",
"S S 3.3.4.5.3.J J 4.4.5.5.5.5.3.S H M m y p L P L u k s s d s s s a s s s s s s s s s & s q u y G G G G P L L v p p y m 2 H 4.5.3.S S S S A A A 3 S S 3.3.4.3 3 ",
"3 S 3.4.4.3.J J J 3.J 3.4.5.4.3.J 3.J M M Z Z Z V c u u 9 q q q q q u u u x u u u u u u u u p y V V B B B B Z v Z V M C J 3.4.5.4.C C C 3.3 C 3 3 3 3.3.3.3.S 3 ",
"3 S 4.5.S S S J 4.3.C 3 3.4.3.4.4.5.4.J 3.V V V B B p i p p i i p p B B B B F F B B F F B p p p B y p i B V B F V C J 4.5.5.5.5.4.C 3 C 3 3 3 C 3 3 4.4.3.3.3.3 ",
"A S 4.3.H 2 2 S 5.5.5.4.4.4.3.4.5.5.5.4.3.K C C C V m i v p p B y B F F F F F F F F F V p u u v L L Z B D K M D C 3.4.5.5.5.4.4.5.4.C 3 2 3 C 3.3.S 3.3.3.5.3.S ",
"A S 4.4.J H S J 5.5.4.5.5.4.3.4.5.4.5.5.4.J C 3.3.J M B p B B F F F F B F F F F F F F B B B p p L L L F H J S J 4.4.4.4.4.3.3.4.5.5.4.C 3 3.4.4.4.4.3.3.3.4.3.3 ",
"3 S 4.5.5.5.4.5.5.4.S 3 3.5.5.5.5.4.4.4.4.C C 3.4.4.H G F V D G M G G B B m B M V M V D G G V M G B B m H 4.5.5.4.4.4.4.3.J 3 4.5.4.5.5.5.5.5.5.5.5.5.3.3.3.3.3 ",
"3 S 3.5.4.J 4.5.3.3.3.3 3.5.5.5.3.J C J 5.5.4.J J 5.J J K K K H K K M H C M m M M M K K D 2 K H D D 2 M J 5.5.5.3.J J J 4.5.5.J 3.5.5.5.5.5.5.5.5.4.3.3.3.S 2 1 ",
"2 S 4.5.4.S S 5.4.3.3.3 3.4.5.3.J 3.J 3.5.5.4.J 4.4.4.4.3.J S J J J H J J H 3 S J J J J S 3 S J S S A 2 J 4.4.J J 3.J 3.4.5.3.S 3.4.5.5.5.3.3.5.5.3.3.4.4.3.3 2 ",
"S S 5.5.4.S S 3.5.3.3 3.3 3 3 3 J 4.4.5.4.C 3 4.5.J 4.5.5.S S 3.4.4.5.5.5.4.5.5.5.4.4.5.3.J S 3.5.J A H H H H J J 4.5.5.4.3 3 4.4.3.5.5.5.3.3 4.4.4.5.5.5.3.3.3 ",
"3 S 4.4.3.S 3.3.3.3.S 3 3.4.3.3.3.4.J J 3.3.3.4.J J 4.5.5.3.J 4.5.5.4.S S 5.5.5.4.4.4.4.3.J 3.3.3.3.S S 3.4.J 3.3.4.3.J 3.3.3.4.3.3 5.5.5.3.S 4.5.5.4.3 3.5.3.3.",
"3 S S 3.3.4.5.4.S 5.5.S 4.5.4.4.4.5.J J J 5.5.J H J J 5.5.4.4.5.5.4.3.3 3 5.5.5.3.J 3.J 3.3.5.4.J 4.4.J 3.4.4.4.4.4.3.3 J 5.5.3.3 3.3.5.5.4.4.4.5.4.4.3 3 5.3.3 ",
"2 S S 3.4.5.5.5.5.5.5.5.S S 5.4.3.5.5.3.3.3.J C J J J 4.5.4.4.5.4.3.S 3.5.5.3.S 3.J J J 4.5.5.5.5.5.5.5.J J 5.4.4.5.5.3.3.3.3.3 3 3.3.4.5.5.4.5.4.3.3.3.5.5.3 2 ",
"2 3 S S S 4.4.5.5.5.4.3.S S 5.5.5.5.4.4.4.4.J S J 4.J J 3.J J 4.5.5.3.3.5.5.S 3 3.J H S J 4.4.4.5.5.4.3.J J 5.5.4.5.4.4.5.4.J 3 3.4.3.3 3.S S 5.5.4.3.4.5.5.3 1 ",
"3 3 3 3 S 3.S 4.5.5.4.A S 4.5.4.4.3.3.3.5.5.3.J 3.5.J S J J J 4.5.5.3.4.4.5.J J 4.J S 3 3 J J 3.5.5.4.S S 4.5.4.4.4.4.4.5.5.3.S 4.4.3.S 3 3.S 5.5.4.4.4.5.4.3 1 ",
"S S 3 3 3 3 3.4.4.5.4.3.3.3.4.3.S S J J 5.5.5.3.3.5.5.5.J 4.5.J A A 5.5.5.3.4.5.5.S 3 A S 3 J 3.4.5.4.3.S 3.4.J 3 S 3 3.5.5.4.4.4.4.5.4.4.4.5.3.S 3 5.5.5.4.3.3 ",
"1 3 3 3 S 3 S 3 3 A A A A A S 3 A A S S S S J S J S J J J J J J 3 2 3.S S 3 J J J S 2 S 3 S S S S S S A S S S S 3 3 S S J C 3.3.3.3.3.S 3 3.3.S 3 3 S 3 3 3 3 3 ",
"< 1 2 3 3 S 3 3 3 1 3 3 3 3 3 3 S A S S 2 1 S S S S A 2 3 3 C J 2 1 3 1 < 1 2 3 3 2 2 A S S 2 1 1 2 1 3 S 3 1 3 S S S S 2 2 3 S 3 3 3 3 3 3 3 S 3 1 3 2 < 1 1 < "
};
