/* XPM */
static char *Group_9_resized[] = {
/* columns rows colors chars-per-pixel */
"80 80 235 2 ",
"   c #2A391B",
".  c #1E3622",
"X  c #2A3A2C",
"o  c #2F2F34",
"O  c #2D3936",
"+  c #2D333D",
"@  c #31393C",
"#  c #2C4A1D",
"$  c #31471D",
"%  c #2F511C",
"&  c #35571C",
"*  c #345C1B",
"=  c #37631B",
"-  c #39641D",
";  c #3D6D1E",
":  c #3F711F",
">  c #2D4528",
",  c #324828",
"<  c #324C2B",
"1  c #335325",
"2  c #365C25",
"3  c #395D24",
"4  c #34542A",
"5  c #37582D",
"6  c #3A5D2C",
"7  c #2E4834",
"8  c #314333",
"9  c #344B34",
"0  c #364739",
"q  c #344C3A",
"w  c #375837",
"e  c #366123",
"r  c #3A6424",
"t  c #3D6B22",
"y  c #3D632C",
"u  c #3F6A2A",
"i  c #3F7120",
"p  c #3E6331",
"a  c #406F1F",
"s  c #41751F",
"d  c #42781F",
"f  c #494F32",
"g  c #436C28",
"h  c #416C2C",
"j  c #417620",
"k  c #457C21",
"l  c #43732B",
"z  c #426731",
"x  c #271F41",
"c  c #2C2B45",
"v  c #2E3141",
"b  c #2C354A",
"n  c #2F304F",
"m  c #343747",
"M  c #333354",
"N  c #373958",
"B  c #343C5B",
"V  c #2F3E64",
"C  c #3B3766",
"Z  c #463D4C",
"A  c #443D57",
"S  c #591762",
"D  c #7A1372",
"F  c #433769",
"G  c #483D76",
"H  c #573071",
"J  c #334547",
"K  c #375446",
"L  c #374859",
"P  c #3B5356",
"I  c #3E6252",
"U  c #2C436A",
"Y  c #384768",
"T  c #304F71",
"R  c #344B74",
"E  c #3B4A76",
"W  c #35537C",
"Q  c #3B5578",
"!  c #38537E",
"~  c #3C6062",
"^  c #514B46",
"/  c #484257",
"(  c #57595B",
")  c #635855",
"_  c #4F6649",
"`  c #6D6C57",
"'  c #504E6C",
"]  c #464778",
"[  c #445778",
"{  c #65507B",
"}  c #496779",
"|  c #726D69",
" . c #8F1775",
".. c #A41068",
"X. c #902277",
"o. c #A4286F",
"O. c #D43D7B",
"+. c #B84C7C",
"@. c #847D6C",
"#. c #D5457F",
"$. c #D1577A",
"%. c #478022",
"&. c #498423",
"*. c #4C8A24",
"=. c #8D8575",
"-. c #978F7A",
";. c #7E2889",
":. c #3B4F80",
">. c #365481",
",. c #3A5481",
"<. c #3C5A85",
"1. c #3D5C8A",
"2. c #3F618C",
"3. c #57468A",
"4. c #415585",
"5. c #425589",
"6. c #465A8A",
"7. c #4F4692",
"8. c #5A4993",
"9. c #4C5794",
"0. c #545698",
"q. c #704A8F",
"w. c #664A98",
"e. c #44638C",
"r. c #4D6889",
"t. c #51708E",
"y. c #446592",
"u. c #456A95",
"i. c #466E9A",
"p. c #4C6998",
"a. c #496E9B",
"s. c #4A729E",
"d. c #587798",
"f. c #5B56A2",
"g. c #5B5AA4",
"h. c #5C59A7",
"j. c #704EA1",
"k. c #6655A8",
"l. c #645AAB",
"z. c #7953A8",
"x. c #665DB0",
"c. c #6C5AB3",
"v. c #765CBA",
"b. c #5669A3",
"n. c #4B74A1",
"m. c #4C79A5",
"M. c #4C7CAB",
"N. c #557AAA",
"B. c #587DB3",
"V. c #6D6FB5",
"C. c #7D5DC0",
"Z. c #7E60C4",
"A. c #7C77C8",
"S. c #85338C",
"D. c #8D358F",
"F. c #B12A8E",
"G. c #CA3189",
"H. c #994A93",
"J. c #A46D86",
"K. c #8652AA",
"L. c #8959B7",
"P. c #866AB7",
"I. c #8C6FB3",
"U. c #8876BC",
"Y. c #DA4B81",
"T. c #EC66A1",
"R. c #955EC5",
"E. c #8561C6",
"W. c #9567C8",
"Q. c #8878C3",
"!. c #9867D4",
"~. c #A466D6",
"^. c #5B819A",
"/. c #4F80AB",
"(. c #5383AD",
"). c #5485B1",
"_. c #558AB4",
"`. c #5A89B9",
"'. c #5691BC",
"]. c #5A92BC",
"[. c #6387B5",
"{. c #6B95B4",
"}. c #5D99C5",
"|. c #658CC6",
" X c #6496C7",
".X c #7C8BD3",
"XX c #6A99D2",
"oX c #5FA0CC",
"OX c #69A2C7",
"+X c #76A9C5",
"@X c #6CA5D7",
"#X c #70AFDB",
"$X c #79B4D8",
"%X c #77ACE5",
"&X c #6ABAE6",
"*X c #7AB6E8",
"=X c #7DCAEF",
"-X c #9C9685",
";X c #A69E8B",
":X c #A49C91",
">X c #AEA596",
",X c #B3AC99",
"<X c #B9B39B",
"1X c #F6929F",
"2X c #F98BA5",
"3X c #CFCAB9",
"4X c #878CD5",
"5X c #8CAFD7",
"6X c #83BBD8",
"7X c #829DE5",
"8X c #88A7E6",
"9X c #8FAFED",
"0X c #86B6EB",
"qX c #84BAF4",
"wX c #95C4DA",
"eX c #88CCEA",
"rX c #97CFED",
"tX c #97D3EA",
"yX c #87C6F6",
"uX c #8BCCFD",
"iX c #8BD6FB",
"pX c #94D8F5",
"aX c #93DCFE",
"sX c #A0DBE0",
"dX c #94E3FC",
"fX c #99E7FA",
"gX c #98EFFE",
"hX c #A8E6F0",
"jX c #A4F8FE",
"kX c #BAF8FB",
"lX c #D9D6C6",
"zX c #E1DDD4",
"xX c #E7E3D7",
"cX c #C5FBFC",
"vX c #F7F6EE",
/* pixels */
"% = s ; s s : s s ; ; s s d d s : : %.: : ; : %.%.: : : : : : : : : : : : d : : = ; : : : : : : : : : : j d : : : d d s ; ; : d k s s s a ; ; s : s d : ; d ; * ",
"- ; s s s s : ; s : s d d s s s : : : : : : d : : : : : : : : %.%.%.: : : &.%.%.j : : : d d : : : : : d j d d : : d : : : : d d j ; s ; : j k k k j s ; s k s ; ",
"d d s d k k s s s s d %.k k k j i k i : : : %.: : : : : : %.*.*.&.%.: : : %.&.*.*.%.: d %.%.: : : d d &.k k k i j j : : : j k j j s a a j %.*.*.*.%.s : s k d d ",
"s d &.*.*.k s s d s s %.&.&.*.*.*.&.: : %.&.*.&.%.%.&.*.&.%.%.*.&.&.&.: : %.&.%.&.&.*.*.*.d : d d : d %.&.*.*.*.*.%.j : k &.*.&.%.%.k &.%.%.%.&.*.&.%.j d %.d a ",
"s s %.%.&.*.*.%.%.k k %.*.*.&.*.&.&.%.%.*.*.*.*.*.*.*.*.&.%.%.%.k k *.&.%.%.&.&.%.%.%.&.&.*.&.%.&.d k &.*.*.*.&.&.&.%.&.*.*.*.*.*.&.*.*.*.k k k k k &.%.k k d s ",
"s s s d %.*.*.*.&.&.%.&.*.*.k k %.*.*.*.*.*.*.*.*.*.*.&.%.%.: %.: : &.*.&.d %.*.&.%.: : %.*.*.*.&.*.%.&.*.*.k k &.*.*.*.*.*.*.*.*.*.*.*.&.k k j ; s *.*.*.k d d ",
"; a s d d d %.d k j j j j k &.&.&.&.%.: k k &.&.&.*.*.*.&.: : : ; : %.*.*.%.: d %.: : : %.%.&.%.d d j k i k &.*.&.*.%.j k k &.&.*.*.*.*.&.j j k ; a k *.*.k ; - ",
"; ; s d %.s s s s s i : i s k &.*.%.%.k k i i k %.*.*.*.*.%.&.&.d d &.*.&.d : : %.%.: %.%.: : : : : : : : : k &.&.%.k k j j k i k &.*.*.*.&.k &.k d &.*.*.j - - ",
": : d %.%.: : : : : : : : : : j &.%.&.*.&.%.i : i k &.%.%.*.*.*.&.&.*.*.%.i i k k i k %.: : : : i : : : : : i i %.%.&.*.*.%.i : j *.*.*.*.*.*.*.&.&.*.*.&.s - a ",
"; : : d k j : : : i : : j k j %.&.%.&.*.*.&.i - 1 < 4 < < e i *.k : j %.*.%.*.*.k i : %.%.: : : : : : : i %.i %.&.&.*.*.*.&.%.&.*.*.*.*.&.&.&.&.k j j %.*.&.d s ",
": : j &.&.%.i : j k k k k %.&.*.*.%.*.*.*.%.i p P L P P L K p i : ; : k *.*.*.*.%.%.: &.&.%.%.: i %.k : %.&.&.*.*.&.&.*.*.&.&.*.*.*.*.&.k k &.*.j ; ; %.*.%.k s ",
"d : : *.*.*.%.j %.&.*.*.&.&.*.*.*.%.*.*.: i I } d.[.d.[.`.r._ u ; ; : &.*.i i *.*.%.: *.*.*.%.i &.*.*.*.&.&.*.*.*.%.&.*.%.%.&.%.&.*.*.&.s k *.*.j ; : &.*.s s s ",
": : s %.*.*.*.%.j j &.*.&.k *.&.%.*.*.%.r w } {.6XtXwXtXsX+X} q 2 : &.*.*.i %.%.%.: : &.*.*.*.%.: %.&.*.%.k *.%.%.&.*.&.&.*.*.&.&.*.*.*.%.*.*.*.&.%.&.*.*.k s s ",
"; : d d &.*.*.&.s i k *.%.k *.k : *.&.: 4 P t.OXtXkXcXcXsX6X(.} K u %.%.&.*.&.%.%.k : %.*.*.*.&.: : %.*.%.k &.%.k &.&.%.&.*.*.&.&.&.*.*.*.*.*.*.&.&.*.*.*.k s a ",
"s d &.*.*.*.&.&.*.%.k *.%.%.%.*.*.&.: e < Y 9.t.{.sXkXsX6X{.[.{.t.I u ; i &.*.*.&.&.&.&.*.*.&.&.*.%.%.&.&.%.&.*.&.&.i : k *.*.i j k &.*.*.*.*.k k k k &.k *.k s ",
": d *.&.*.*.&.&.*.*.&.&.%.&.&.*.*.%.: t 4 L ] B t.+XhX5Xd.t.{.eX+Xt.K e &.*.*.*.%.&.&.&.&.*.*.&.*.*.&.%.&.&.&.*.*.d : : : k &.: j j k k k k &.&.&.%.&.&.*.*.%.k ",
": d %.k k *.&.&.*.*.k j k %.*.*.*.j d t 4 L E C r.+XyX$Xt.d.+XfXyX).B 5 k *.*.*.k &.&.j k *.&.&.&.*.&.%.k &.*.*.*.j d s : d j j j k k k j k &.*.*.*.*.*.*.*.k d ",
"d d k ; s k k %.&.j j j j j &.*.*.*.%.j 4 Y b.`.@XyXaXeX6X6XrXfX0XB.b < j &.*.*.*.&.j j j k k k &.: : : : d &.*.*.*.&.d %.&.*.*.*.&.*.*.*.*.*.*.*.*.*.d j &.k d ",
"s d %.k s j k k k j j k ; ; k &.j g - = % K 6.[.%XqX*XeXpXfXtX$X).[ 0 4 a j k *.*.k k j j j k k %.: : %.: : %.*.*.*.&.%.k k &.*.*.*.*.*.%.&.*.&.k d %.d s j d d ",
": d *.%.k j k k k j k k j s k j 3 , , , 1 2 I d.|.XX X$XfXfX$Xd.' K 3 j j a k *.k *.*.&.k k k k i i k &.: : %.*.*.&.&.*.k k %.*.*.*.*.&.j k &.&.d s %.%.k s s d ",
"s k k *.*.*.%.%.k k j ; ; j k 3 8 N N J 4 t l I R ,.6._.*X0XB.N 7 ; %.*.*.k &.*.*.&.&.*.*.*.&.k &.i : : : : *.&.%.%.&.*.*.*.*.%.%.&.&.*.*.*.*.*.*.*.*.*.*.k k s ",
"s k *.*.*.*.&.*.*.%.k k j j y q L [ 5.Q K 5 e 4 7 b V 4.N.d.' x > = %.*.*.&.*.*.*.*.&.*.*.*.&.*.*.&.%.d d &.*.*.&.d %.*.&.&.%.&.&.%.%.%.&.&.&.&.*.*.&.*.*.%.d d ",
"s d *.*.%.%.%.*.*.*.*.*.k 3 8 L [ s.(.d.[ J > - 3 > c A ( ( A c X * : &.k k d &.k k k k k k %.*.*.*.*.*.*.*.*.*.&.s k %.j j s *.*.%.%.j i j k k d s s %.*.%.k s ",
"s d k %.*.*.&.k k *.*.*.a < m R 9.N.]._.a.Y o l k 1 o Z ` | ) @ , = k : a * - - g * & a - - - s %.&.*.*.*.*.*.&.k k j j j j &.*.&.i j k k k j k s s k %.*.%.d s ",
"s s %.*.&.&.k k k %.k k - < M C 1.m.).).b.Y o l d % f ) >X,X=.^ 1 = d r > 8 X 8 , , X X 8 8 1 - k k k k %.*.*.%.k %.k j k %.*.*.%.: j j j j : i : : %.%.%.%.d : ",
"s k *.*.k : j %.&.k j i ; 1 + B R 1.i.i.[ L X g s g ) :XxXxX<X) , * t 9 n M n n n n M n M N @ 1 j j j ; k *.%.%.&.*.&.%.*.*.*.*.&.j : : : i : : : : &.&.%.&.d : ",
"s k k %.d ; : d *.*.*.&.k t 1 m B E <.[ L 9 , & z ` <XzXvXxX>Xf     8 L E [ [ E E E Q [ 6.r.L q , $ $ * k *.%.%.*.*.*.*.*.*.*.*.*.&.s : : : j d d d %.%.&.*.%.: ",
"s k *.%.%.j s d *.*.&.&.&.%.t 5 m N B B 9 3 * $ ) ;XlXvXvXlX-.) , o m E y.a.p.e.y.p.n./.).).r.Y @ + @ < g k k *.*.*.*.*.*.%.k %.*.*.%.d j %.&.&.&.*.&.%.%.&.%.: ",
"s d *.*.*.*.&.*.*.&.k d %.*.*.i 4 O o X r s a & _ -.lXxX3X<X;X=.) Z L e.m.M.M.M./.(._.}.oX X(.e.] ] Y J 9 t &.*.*.&.%.&.%.k j %.*.*.&.*.*.*.*.*.*.*.*.&.k %.d : ",
"; s %.*.&.d &.*.&.&.k j %.*.*.k - 2 1 2 k %.k ; k ` -.@.@.-.,X3X;X) N Q m.M.M.m.(._.'.].].]._.m.u.s.p.[ J < g d &.%.j k &.*.&.j k *.*.*.*.*.*.*.*.&.%.%.&.d : ; ",
"a d *.*.%.d %.*.&.&.j j k *.&.%.d d d d %.*.%.d d g f ^ ^ @.,X3X<X@.( } r.p.s.m.(._.]._._.).)._.}.}.].n.R b , = s d k k *.&.&.k %.*.*.*.*.%.%.*.*.%.d *.*.d : : ",
"s d *.*.&.k d %.*.k j j j j s j k %.*.*.%.d s *.k & o o H { J.;X<X,X-X| ' [ u.M._.'.]._.(./.'.}.&X&X&X}.s.R v > = %.*.*.%.d : &.*.%.*.*.*.d d &.&.*.*.*.*.&.%.d ",
": d &.&.&.k %.&.%.&.k s %.&.k k &.&.&.k %.d %.*.; > n C 3.3.{ ` -.<X,X@.) ' e./.)._.'._._._.oX&X=X=X=X=XOX(.[ / < t j k %.%.%.*.%.k &.*.*.%.k &.*.*.&.k k *.&.d ",
": s %.%.%.%.&.&.k &.&.j %.*.*.&.&.*.k s %.*.%.- 4 m F 7.h.9.] / @.-.;X@.( [ u.M./.(./._._.OX$X=XdXgXgXdXtX6X+Xt./ w * ; k *.*.k j k %.*.*.&.%.&.*.*.%.s : *.%.: ",
": s %.k %.*.*.*.*.*.*.*.k j *.&.k *.*.k &.d - # m ] 8.h.0.1.W T ( ` | } t.2.i.s.n.s.m._.OX$XpXgXfXjXkXkXkXhXsXwX^.P , = k %.k s j %.k %.*.&.&.*.&.%.d %.&.*.d : ",
": : : : k *.&.&.*.*.*.%.k k *.*.*.*.&.&.*.%.= X c 3.k.h.9.>.W W ' ^ ( } s.m.s.i.y.i.m. X=XpXgXjXjXjXcXcXcXkXkXpXOX[ @ % k *.k s k &.k k %.k %.*.*.&.%.&.*.*.: - ",
": : : : k k k %.*.*.&.d k &.&.*.*.&.k &.*.*.g X M 8.c.l.6.>.W >.Y Y Q u.n.M.s.2.y.a.`.%XiXfXjXjXjXjXkXkXkXkXkXhX$X6.J % k *.%.k %.&.%.k k j k &.*.*.&.&.*.*.i - ",
"d s : s : : k &.*.&.&.%.k &.&.k s j s k *.k 3 X A 3.l.l.9.>.W >.W W <.2.s.n.n.s.a.).@XyXaXfXfXpXrXrXtXpXfXjXjXdX$XN.P 4 k *.&.&.&.&.*.*.%.&.*.k s d *.*.*.%.k d ",
"d d d d %.k k %.%.%.%.%.&.k %.%.k k k &.s 3 0 N ] k.c.k.9.,.W ! W >.1.2.s.i.s.M.`.XX*XuXdXgXrX8XU.V.U.5XpXjXjXgXeX@X/.~ p g k *.*.&.*.&.&.&.*.&.s s &.&.d k d d ",
"; d %.&.&.*.&.k k d k &.&.&.k &.*.*.*.k & O N ] j.v.c.l.6.W W ! ! >.1.u.i.u.s._.@X*XuXuXaXiX5XP.S. .X.I.wXgXjXgXaXuXXXp.J < j *.*.%.&.&.%.%.&.&.d d &.d s d s : ",
"- s *.%.%.&.&.*.&.k k &.*.&.&.&.*.*.*.k , v G w.c.v.l.9.5.! W ,.! ! <.y.s.u.n.`.*XuXaXuXqX8XU.H.o.....H.U.5XpXaXpX9X.Xg.Y q t &.*.*.*.*.%.k k &.%.%.*.%.%.*.d s ",
"; s k d k %.k d %.j k &.&.%.&.k k k k j # @ G f.c.x.9.1.<.! W ,.! ! 1.u.i.u.n.].*XiXaXqX4Xv.H.+.Y.Y.G.F.H.I.8XuX9XW.K.3.Y K t k k k k j k %.&.&.*.*.k j k *.k s ",
"d s s d %.k s ; s s k k k k j j j k j - # @ F w.k.h.<.W W ! ,.! ! >.<.y.u.u.n.].*XiXdXqXU.;.o.#.1X2XT.G...D.Q.8X4XD. .S U w - i j s ; a j &.&.*.*.%.s a s k d d ",
": d *.*.*.k s s k s j %.&.*.*.*.&.k j - # m C 8.f.p.>.T W ! ,.! ! >.,.1.1.e.n.|.0XaXfXqXz.D ..O.2X1X1X#... .Z.%X4XX.D S L K i %.%.%.%.%.%.%.&.&.*.&.%.d s %.s s ",
": j %.%.&.*.&.%.%.k k &.*.*.*.*.*.*.%.s % 0 G 8.c.l.4.W W W >.W ! ! ! ,.,.<.i.].%XiXaXyXA.;.F.F.T.2X1XY.o.S.Q.8X4XD.D H L w i *.*.&.*.*.*.k k k k k *.k k k d s ",
"s s s j k *.*.*.&.%.&.%.*.*.d d d *.*.%.% m G z.E.v.0.4.>.W W >.>.>.>.E W ! y.N.}.*XuXuX8XU.H.F.G.Y.$.J.H.P.8XqX9XI.z.3.L q i &.*.*.*.*.%.k j k ; s &.*.*.d d s ",
"; ; j k k k k %.k j j j s k &.*.*.&.%.; $ @ 3.L.~.!.c.9.<.W W :.,.,.! ! ! ! <.e.a. X*XuXuX0XQ.D. ...o.H.4X5XqXuXuX9X.Xb.T 7 i %.*.*.*.*.*.j j k a a k *.*.k : - ",
"; a j k k s s j j ; j j ; s k %.*.%.d s % 8 A K.R.R.v.f.9.,.! >.! ! ! ,.! W ! >.1.s.[.*XiXiX9XU.S.X.S.L.8XuXaXiXuXaX*X(.U 7 e i k *.*.*.*.%.%.k k j *.*.&.s ; - ",
"; s s d k s ; : : s s : : : : j %.k *.*.d r 8 A q.z.c.l.h.0.1.>.W W >.,.! ! ! W >.<.u.`.#XiXiX9X4XP.Q.7XyXaXaXuXuXuX%XB.U 7 e t k *.*.*.*.*.*.*.&.&.*.*.&.a - ; ",
"; ; d d k d s ; ; : i ; j j j &.*.%.&.*.*.d 2 O N 3.c.E.v.l.7.1.,.W W W ! W ! ! ! R R 1.).%XyX=X%X*XqX*X=XyXyXuX*X*X|.n.V q t k *.*.*.*.*.k &.*.k d k k *.%.k d ",
"s s d %.*.%.s s j k k k k %.&.*.*.%.*.*.*.k r . n 3.R.!.Z.c.h.7.5.! T W W W W ! ! R U R 6.).XX@X&X*X=X*XXXXX%X*XqX.XA.7.M 7 t &.*.*.*.&.k k &.&.j - a k *.&.k d ",
"s s s *.*.*.k d %.*.*.*.&.&.*.*.*.%.*.*.d t 5 X A q.!.~.E.c.h.h.0.4.W W W W W W :.! ! >.1.6.2.2.n.|.@XXXB.n.|.%X%XA.x.G b 4 i i &.*.*.&.s k *.*.j a a &.*.s s s ",
"a : d %.*.*.*.%.j k &.*.%.%.*.%.k *.*.*.k h w 8 m { K.R.~.R.Z.v.x.0.6.1.5.5.6.5.>.W W W R R U T >.B.XX|.5.R 5.N.V.k.3.F 8 2 j k *.*.*.*.&.*.*.*.&.k *.*.*.k s a ",
"; s d d *.*.*.%.s i k *.%.k *.k d *.%.j k h z 5 @ A ' z.R.~.!.C.x.l.h.h.f.h.f.0.4.W W W W T U U >.B.XXB.:.n V C E F A m 5 t k &.k *.*.*.*.*.*.*.*.*.*.*.*.k j s ",
": d &.*.*.*.%.&.*.k k *.%.%.%.*.*.&.i ; t h z y 4 8 v H K.R.R.j.f.8.k.v.C.C.v.l.9.<.,.<.5.5.! ! 1.B.|.B.] n x x c c v q y k &.k s k &.*.*.*.*.k k k k k k k k j ",
"; d *.%.*.*.*.%.*.*.&.%.&.&.&.*.*.j : ; r y 6 6 3 1 8 / { q.w.G G 3.w.L.!.!.Z.x.h.g.f.h.h.h.0.5.1.m.M.b.:.C c x x o 8 4 y t j l s j k k k d &.&.%.%.*.&.*.*.&.k ",
"s k *.j k *.&.&.*.*.&.k k &.&.*.*.s s j t 3 6 6 y y 5 q N A N N c n ' L.~.~.v.k.k.k.k.c.c.c.f.9.,.<.2.5.>.E B c o < 5 6 y r j j k k k k j k &.*.*.*.*.&.*.*.%.d ",
"d j j i j %.k k %.j i i : j &.*.*.*.%.k s l h z y z h 3 9 O @ O X @ A q.K.z.w.3.3.3.8.8.8.8.7.] Y V U U R Y B J 9 p y t t j &.&.*.&.&.*.*.*.*.*.*.*.*.k s &.k d ",
"s k k j j j k k k j j k i : %.*.*.*.*.k s k j h u z h y 4 < 4 4 4 < J / H F C C C F F F F F C M M n M n M M J w u p h j j k %.*.*.*.*.*.k &.*.&.k k %.k s k d d ",
"; k *.%.k k k j j j k &.j : %.*.*.%.*.*.d d k j l p z z 6 y y h r e 6 8 + + + c + c + + c + o c v c c v c v q p l u l k j k %.*.*.*.*.&.k k &.&.k s k k k s s d ",
"d k %.*.*.&.&.&.%.d s : ; j *.&.%.%.&.*.*.*.*.k i t p p h z h h h h p 5 8 8 9 9 9 9 9 9 9 9 9 9 q 8 8 8 @ q z z h t k *.*.*.*.%.k *.&.*.*.*.*.*.*.*.*.*.*.d d d ",
"s k &.*.*.&.&.*.*.&.k k k %.*.*.%.k k *.&.&.k %.k l y y y y h z h h y p y 5 y y y 6 z 6 p 6 y p p 6 6 6 6 z z z g j k &.&.%.%.&.&.&.k &.&.&.&.&.&.&.&.*.*.&.k d ",
"s k *.&.&.&.&.*.*.*.*.*.*.*.*.*.&.j k k k j j *.&.j t r r 3 r 6 6 5 6 u l h u h y h h h h h h h h l l l k k l j j s k k k j j *.*.k k j j j k k k j s &.*.%.d d ",
"s d d %.&.*.&.k k &.*.*.*.*.*.%.k k j j j j &.*.&.: i j j t r 6 w 5 6 y y y p u h y y y z h y y p p z h k *.&.k s j j s j k %.*.&.j j k k j j j s s k %.&.&.d : ",
"s d k *.&.%.k k k k k k &.*.*.k k k k k k %.*.*.%.j : j k : r e 2 3 h u r h h r h h r h u r u r r u y t k *.&.%.k &.k j k &.*.*.%.s s j k j i : : s %.%.d &.d : ",
"s d *.*.k s j k &.%.k j k *.&.k *.*.&.&.&.*.*.*.%.j j i : : ; ; r - j j j j j j s j k k t ; ; i j i t t k *.&.%.&.*.*.%.*.*.&.*.&.j : : : : : i : d &.&.%.%.d s ",
"s k &.%.d ; ; k *.*.*.&.*.&.k &.*.*.*.*.*.*.&.*.*.&.j : : : i j j k k k k %.*.%.%.%.k k : ; ; d &.*.&.&.&.&.k &.*.*.*.*.*.*.&.*.*.&.j : : : j k d d %.%.&.&.%.d ",
"s d *.%.k k j k *.*.&.&.&.&.&.*.*.*.*.*.*.%.%.&.*.*.%.j j k %.&.&.*.%.%.%.*.*.*.*.&.*.&.%.j : k *.*.&.&.*.&.%.*.*.*.*.*.*.%.k &.*.*.%.j d k %.*.&.&.%.%.%.*.d d ",
": %.*.*.*.*.&.*.*.%.k k %.*.*.*.*.&.&.&.&.k j %.&.*.*.*.*.*.*.*.*.*.*.*.k k %.&.&.&.&.*.*.*.*.&.*.&.k j %.*.*.*.*.&.%.&.%.k s %.*.*.*.*.*.*.*.*.*.*.*.&.d %.d : ",
": : %.*.&.k &.*.&.%.k j %.*.*.*.k k k k &.&.&.j %.*.*.*.*.*.*.*.*.%.k %.&.k d k k k %.*.&.k &.*.%.%.%.j %.*.*.*.%.%.k j &.*.&.k k *.*.*.*.*.*.*.*.&.d &.&.d : ; ",
": : &.*.%.d %.&.*.%.k j %.&.&.%.k k k k *.&.&.k %.*.*.*.*.%.%.*.*.%.k &.*.k k k &.k &.*.&.j %.&.&.%.k j k &.&.%.k %.%.k *.&.%.d %.*.*.*.*.%.%.*.&.&.%.&.*.d : ; ",
"s %.*.*.&.k d %.*.k s s s k d d k *.*.*.&.j i &.&.%.*.*.*.k d &.*.*.*.*.*.&.*.*.*.*.*.*.&.k k %.*.%.j j j j j k d &.*.*.%.d a *.&.%.*.*.*.k d %.&.*.*.*.*.*.%.d ",
": d *.&.%.k %.%.%.%.d s %.&.k d %.&.%.k d %.&.*.%.j &.*.*.%.k &.*.*.&.d d *.*.*.&.&.&.*.%.k %.k %.%.k : %.&.k k %.&.%.k %.%.&.*.%.j *.*.*.%.d &.*.*.&.d %.&.&.d ",
": s d %.%.%.*.&.k *.&.d &.*.*.&.&.&.k d %.*.*.%.j k %.*.*.&.%.*.*.&.%.s d *.*.*.k k k k %.k *.*.%.&.&.k %.*.*.&.&.&.k d k *.*.k j k %.*.*.&.&.*.*.&.%.d : *.&.: ",
": s d %.%.*.*.*.*.*.*.*.k j *.&.&.*.*.%.&.%.k : k %.%.&.*.&.&.*.&.%.d %.&.*.%.k &.k d k *.*.*.*.*.*.*.*.k k *.&.&.*.*.%.%.%.k s d %.k &.*.&.&.*.*.d k %.&.*.d : ",
": : s d k *.&.&.*.*.*.%.j k *.*.*.*.&.&.&.&.k : k &.d k %.k k *.*.*.%.%.*.*.d s &.k s s k *.%.*.*.*.*.%.j k *.*.*.*.&.&.*.%.k s k &.k k %.k %.*.*.*.%.%.*.*.: = ",
": : : : d d k &.*.*.%.d d &.*.*.&.&.%.%.*.*.&.k %.*.%.j d j %.&.*.*.%.&.*.*.k k &.k a s j k k %.*.*.%.d d &.*.*.&.&.k %.*.*.%.k %.&.%.j j k k &.*.*.%.&.*.*.d - ",
"d s : s s d d &.&.*.&.%.d %.&.k j k d k *.*.&.&.%.*.*.*.%.&.&.%.s d *.*.*.&.&.*.*.k a s s j k &.&.*.&.%.d %.&.k j d s k *.*.*.%.&.*.*.*.%.*.*.%.: d *.*.*.%.d : ",
"; : : : s : d d d : d s d d d s j s s k k k k %.k k %.%.k &.%.d ; ; d d : : k k k s ; s j s s s : : d d d d j d j j d k k k k k k k %.k j k %.j : ; d d : : : : ",
"= = : : s d : ; ; ; ; : d s ; s k s d s ; ; : j d : : : : : i : ; ; : ; = ; ; s s : ; s s s s ; : ; ; : d : ; s d s k s ; ; s k d : : : s : s j ; ; : ; = ; = = "
};
