/* XPM */
static char *Group_9_1__resized[] = {
/* columns rows colors chars-per-pixel */
"80 80 236 2 ",
"   c #261A3B",
".  c #2A3A2A",
"X  c #2A2D3B",
"o  c #2C3637",
"O  c #2D3B34",
"+  c #2D3639",
"@  c #31383A",
"#  c #2C491C",
"$  c #30501C",
"%  c #32531D",
"&  c #355C1D",
"*  c #3A591D",
"=  c #37631B",
"-  c #39651D",
";  c #3C6D1E",
":  c #3F711F",
">  c #2E4728",
",  c #314B28",
"<  c #335422",
"1  c #365A23",
"2  c #385E24",
"3  c #34552B",
"4  c #37592B",
"5  c #3A5C2C",
"6  c #2E4333",
"7  c #2E443B",
"8  c #324333",
"9  c #354938",
"0  c #2F583B",
"q  c #345333",
"w  c #365637",
"e  c #376025",
"r  c #3A6324",
"t  c #3D6B22",
"y  c #3D642D",
"u  c #3E6A2A",
"i  c #3F7220",
"p  c #3C6134",
"a  c #406F1F",
"s  c #41751F",
"d  c #43781F",
"f  c #4C5635",
"g  c #426926",
"h  c #406B2B",
"j  c #417620",
"k  c #457C21",
"l  c #457827",
"z  c #55653C",
"x  c #291F43",
"c  c #2B2646",
"v  c #2E3545",
"b  c #333A42",
"n  c #333846",
"m  c #33354B",
"M  c #2F3256",
"N  c #33355B",
"B  c #363859",
"V  c #383A64",
"C  c #40395E",
"Z  c #581D66",
"A  c #7A1171",
"S  c #45396A",
"D  c #533D6E",
"F  c #463A72",
"G  c #4C3C78",
"H  c #553A77",
"J  c #364846",
"K  c #385547",
"L  c #2B435E",
"P  c #364757",
"I  c #3C5856",
"U  c #384665",
"Y  c #3A4B6B",
"T  c #324D70",
"R  c #394A78",
"E  c #395476",
"W  c #36537C",
"Q  c #3A537E",
"!  c #454654",
"~  c #505152",
"^  c #5F585A",
"/  c #6C6657",
"(  c #6B6C51",
")  c #504C6E",
"_  c #455663",
"`  c #474679",
"'  c #42587A",
"]  c #51646F",
"[  c #49647C",
"{  c #6C6A66",
"}  c #74726D",
"|  c #8F1772",
" . c #A41B66",
".. c #A9156A",
"X. c #8E287B",
"o. c #CC3579",
"O. c #847B6B",
"+. c #CB5079",
"@. c #478022",
"#. c #498423",
"$. c #4C8A24",
"%. c #8A8775",
"&. c #8F8C75",
"*. c #948B7A",
"=. c #772F88",
"-. c #3D4985",
";. c #355482",
":. c #3A5481",
">. c #3D5886",
",. c #3D5D8A",
"<. c #4A4685",
"1. c #57468A",
"2. c #425A86",
"3. c #44558B",
"4. c #5B4B96",
"5. c #485A97",
"6. c #54569A",
"7. c #585498",
"8. c #545A9D",
"9. c #624993",
"0. c #614D9C",
"q. c #784998",
"w. c #62509C",
"e. c #46648B",
"r. c #546D89",
"t. c #446995",
"y. c #476B96",
"u. c #526897",
"i. c #47709D",
"p. c #49719E",
"a. c #567799",
"s. c #595AA4",
"d. c #6B4EA1",
"f. c #6657AB",
"g. c #6459AB",
"h. c #7A55AB",
"j. c #6A5BB3",
"k. c #735CB9",
"l. c #4B75A3",
"z. c #4B7AA5",
"x. c #4D7CAB",
"c. c #5773AA",
"v. c #5678AA",
"b. c #6666B4",
"n. c #7965B8",
"m. c #7B78C8",
"M. c #8E2A87",
"N. c #AC2F8A",
"B. c #C83187",
"V. c #88489D",
"C. c #8F529E",
"Z. c #A84D85",
"A. c #844AA1",
"S. c #8856A5",
"D. c #8E58B9",
"F. c #9564A9",
"G. c #DD4C97",
"H. c #E76F8E",
"J. c #F278A5",
"K. c #9B5DC4",
"L. c #8A62CB",
"P. c #9669D1",
"I. c #A161CC",
"U. c #A266D6",
"Y. c #5F809D",
"T. c #4F81AD",
"R. c #5182AD",
"E. c #5D82AD",
"W. c #5788B5",
"Q. c #558AB4",
"!. c #5B8CBB",
"~. c #5991BB",
"^. c #6D95AC",
"/. c #6289BB",
"(. c #6795B7",
"). c #72A5BB",
"_. c #5D84C0",
"`. c #5B99C5",
"'. c #638AC2",
"]. c #6796C7",
"[. c #7594D8",
"{. c #67A5CB",
"}. c #74A9CD",
"|. c #7CB6CC",
" X c #6BA9D6",
".X c #73A8D8",
"XX c #7AB5D6",
"oX c #76A1E2",
"OX c #75ABE3",
"+X c #7DB5EB",
"@X c #74B8EA",
"#X c #7BB9EA",
"$X c #7CC3EB",
"%X c #9B9989",
"&X c #A29986",
"*X c #AFA793",
"=X c #B5AB95",
"-X c #BDB7A7",
";X c #F7919F",
":X c #FFA3B1",
">X c #CBC6B7",
",X c #CEC8B6",
"<X c #8986CD",
"1X c #8899CA",
"2X c #848AD4",
"3X c #8997D8",
"4X c #8BB3D6",
"5X c #84A7EA",
"6X c #88B7EB",
"7X c #8DB6EC",
"8X c #88BBF4",
"9X c #87C5DC",
"0X c #88CAE9",
"qX c #94CFE8",
"wX c #8DD2E9",
"eX c #95D2ED",
"rX c #84C2F5",
"tX c #89CAF7",
"yX c #88D5F8",
"uX c #8CD2FE",
"iX c #8DDBFE",
"pX c #92DAF8",
"aX c #A5DAE7",
"sX c #96E3EE",
"dX c #97E5F6",
"fX c #94E3FB",
"gX c #9CECFE",
"hX c #9DF5FE",
"jX c #AAE9F2",
"kX c #A7EBF9",
"lX c #A7F6FE",
"zX c #B6F8FC",
"xX c #E3DFD0",
"cX c #E7E4D7",
"vX c #C4FCFC",
"bX c #F5F3EC",
/* pixels */
"$ = s ; : s : s s ; ; s d s d : : : k : : : : @.: i k : : ; ; : : : d : : @.: : = - s ; : : : : s ; ; s i d s : : : d : ; ; : k j s d s s ; ; ; : s s : a d ; & ",
"- ; s s s s : : : : s d d d d : : i : : = = 1 - = & = ; : : d d @.d : : : d @.d k s : s s d : : : : s d k j k : : d : : : : s d j s a ; : j k k k k s ; s k s - ",
"d d s d #.k s : : d d k k k k s i k i t = , 7 6 6 6 6 < t @.$.$.$.@.: : : d $.$.$.@.j k @.k : : : s d @.k k k k k k : : : k k k s ; a s s #.$.$.$.k s : s d d d ",
"s d #.$.#.k s s d s d @.#.$.$.$.#.@.: = 0 I Q E Q ' T K r k @.#.#.#.#.: : @.#.@.@.#.#.$.#.@.d s d s d @.#.#.$.$.#.@.: : k #.$.@.#.k #.#.#.k #.#.#.#.#.d d #.d a ",
": d @.@.#.$.#.#.@.k k #.$.$.$.$.$.@.t 3 I a./.W././.E.[ K u : @.k k #.@.#.@.@.#.@.k #.@.#.$.#.@.#.d k @.$.$.$.#.#.$.@.k #.$.$.$.$.#.$.$.$.k k k k k #.#.k k j s ",
"s s s d @.$.$.$.#.#.@.#.#.#.k k @.#.4 I a.}.eX0XtXwX4X(.' 0 = : i : #.$.$.d @.$.#.k : j @.$.$.$.#.$.@.@.$.$.k k @.$.$.$.$.$.$.$.$.$.$.#.k k k k : j #.$.#.k s d ",
"; a s d @.d @.d k k k i i k @.@.i p I a.XXdXzXzXzXzXkXwX].[ K e - ; @.$.$.k : d k k : k k @.@.k d k d k k k @.#.#.#.@.k k k @.#.#.$.$.$.$.k d j ; ; #.$.$.k ; - ",
"; ; s d d d s s : : : : : : k t p _ Y.XXfXzXzXvXvXzXlXhXwX(.[ K 3 ; @.$.$.k : : k k s @.k : i : : : : : ; i k #.$.@.k i k k i k k $.$.$.$.k k #.k d #.$.$.j ; = ",
": : : @.@.: : : : : : : : : ; , J p.}.pXdXsXjXzXvXzXsXdXgX0X/.Y q r #.$.#.: i k k k j k k : ; : : i : : : i i k @.@.#.$.$.@.i : k #.$.$.$.$.$.$.#.@.$.$.#.; ; : ",
": : : @.: k : : : i : ; k d i < P v.6XpX|.^.^.aXaX4X^.).sXeX}.Q 7 & i #.#.@.#.$.k k s k k k : : : : : : i k i @.$.@.$.$.$.#.@.#.$.$.$.$.#.#.#.#.k j k @.$.#.d s ",
": : : $.$.@.: : i k k k i @.i 4 J v.+XtX(.r.r.9XqX^.[ a.wXpX}.` 7 $ ; @.$.#.$.$.@.k s @.$.@.i : i @.k : @.#.#.$.$.#.#.$.#.#.#.$.$.$.$.#.k k #.#.i ; ; k $.#.d d ",
": : : $.$.$.@.i @.$.$.$.$.#.#.e P c.oX8X(.a.r.9XqX).r.a.0XwX].R 7 % : #.$.s k #.$.k s $.$.$.k k @.$.$.$.#.#.$.$.$.@.$.$.k @.$.k #.$.$.#.s #.$.$.k ; : #.$.s s s ",
": : d @.$.$.$.@.: : @.$.#.@.$.3 P l.oXrX6X|.4XsXsX9X|.XXpX8X'.' 7 r @.$.$.d k #.@.k k k $.$.$.@.: k $.$.@.k $.@.k #.$.$.#.$.$.#.#.$.$.#.#.$.$.$.@.@.#.$.#.k s a ",
"; : d @.@.$.$.@.: : @.$.@.i @.e 9 e.'.+XpXgXdXsXsXsXfXdXwX Xl.U 0 : $.$.#.#.#.#.k k k k #.$.$.#.: : k $.@.k $.k k $.@.k $.$.$.@.#.$.$.$.$.$.$.#.#.#.$.$.#.#.j s ",
": d @.$.$.$.@.#.$.$.k $.@.@.@.i u I e./.wXgXdX}.{.4XpXyX.Xu.I 0 r : @.@.k #.#.$.#.#.@.#.$.$.#.#.$.k @.$.@.@.#.$.$.@.i : k $.$.k s k #.#.$.$.$.@.k k @.k #.#.k k ",
": d $.@.$.$.$.$.$.$.$.@.@.#.$.$.k r J [ ].#XOXa.p.].rX6XE.Y q i d @.@.#.$.$.$.$.@.#.#.#.#.$.$.#.$.$.#.@.#.#.#.$.$.d : : i k k i s l k k k k #.#.#.#.#.#.#.$.k d ",
": @.#.d d $.#.#.#.$.#.k k #.#.$.$.j < J r.W.v.3.>.'.+XoXc.P $ #.$.$.#.#.$.$.$.$.k #.#.j k $.#.#.$.$.#.k k @.$.$.$.k d d i : k k k k k k k k #.$.$.$.$.$.$.$.k d ",
"d d d : d @.k @.#.k j t ; s #.$.$.#.j h I [ 8.-.5.].8X+Xc.P 3 #.$.$.$.k d #.$.$.$.#.j j j k k k #.: : : : k #.$.$.#.#.d @.#.$.#.$.#.#.$.$.$.$.$.$.$.$.k j #.k d ",
": d @.d s s d k k j j j : : @.k s s d l e K U P ] R..X].e.K e @.k k #.k s j #.$.#.#.k j j j k k k : i @.: : @.$.$.$.#.#.k @.#.$.$.$.$.$.k @.#.#.k k @.d s j s d ",
": d $.@.k k k k j j k k j : k r < 3 j k i 1 < < K ] c.y.K y : #.d d k k k s d $.#.#.$.#.k k k k i k k #.: : @.$.$.#.#.#.k k @.#.$.$.$.#.k k #.#.d s k @.k s s d ",
"k k #.#.$.$.#.@.k k j j ; s d w b n w j #.$.@.i y w P I l @.$.$.$.$.$.$.#.k #.$.$.#.#.#.$.$.k k @.k i : : i $.#.@.@.#.$.$.$.$.@.@.#.#.$.$.$.$.$.$.$.$.$.#.k k s ",
"s k #.$.$.#.#.#.$.#.k k a r 5 P Y Y P q u i #.$.j 2 q 4 s @.#.#.#.#.#.$.$.#.#.$.#.#.#.$.$.$.$.$.$.#.k k k #.$.$.#.k @.#.#.@.@.#.#.@.@.@.#.#.#.#.$.#.#.$.$.#.d d ",
": d $.#.@.#.#.$.$.$.$.$.s < @ Y e.e.T n > = i $.#.j - ; a s d d j d d #.#.#.#.$.#.#.#.#.k #.#.$.$.$.$.$.$.$.$.$.#.s k k k : j $.$.k k i i k k k d j s #.$.#.d d ",
"d d k #.#.$.#.k k #.$.$.j 2 8 U 2.3.U o $ t $.$.k j j j k j s s j j k k #.#.#.#.#.#.k #.#.$.#.k k #.$.$.$.$.$.@.k k k i j k #.$.#.i k k k k k i s s k #.#.#.d s ",
"s d @.#.#.@.k k k @.k k k i 5 J U U J 5 t d #.$.#.s s j d s s a a s #.#.k k #.#.$.#.k #.#.k k k j k d k #.$.$.k k @.k k k #.$.$.#.: i k k i : : : : @.@.@.@.d : ",
": k #.$.@.: k k @.@.i i @.#.k 4 O O 4 l $.#.#.$.#.j s a ; = ; s a s k #.k #.#.#.k #.$.$.k j s s j j - ; k $.#.#.#.$.#.#.$.#.$.$.#.i : : : : : : : d #.#.@.@.d : ",
"s k #.#.d ; : d $.$.$.#.$.#.k t 2 2 j #.$.$.#.#.#.#.j & # # * d k k k #.#.#.$.#.#.#.$.d k a = % > . > * j $.k #.#.$.$.$.$.$.#.$.$.#.s : : : i k d k @.@.$.$.@.: ",
"s k #.@.@.k : d $.$.#.#.#.$.@.k k j @.$.#.#.k #.$.#.a g f f f l k d s s j j k k d d d s s - % 8 m m n 9 g k k #.$.$.$.$.$.k k #.$.$.@.d k k #.#.$.#.@.@.@.@.@.d ",
": d $.$.$.$.$.#.$.#.k k @.#.$.$.#.#.@.#.@.k d @.#.#.h ( %.%.( g - 2 1 < < * 1 1 < 1 1 2 - r > b V <.' P w g k $.$.#.#.#.#.k j @.$.$.$.#.$.$.$.$.$.$.$.@.k @.: : ",
"; d @.$.#.d #.$.#.@.k i @.$.$.$.#.k k k #.#.#.d a - f %.>X-X%Xf 8 O o v + + + + @ @ + O + o n L :.p.v.e.P 8 r j @.@.d k #.$.@.k k $.$.$.$.#.$.$.$.#.@.@.#.d : ; ",
": s #.$.#.d @.#.#.@.k i @.#.#.k k k k k #.#.d a g z O.-XbXcX*Xf @ c M M N N B B N N B B B B U Q e.x.R.e.V + % : k @.k k #.$.@.k @.$.$.$.$.@.#.$.#.#.d $.$.d : : ",
"s @.$.$.#.d d #.$.@.i k k j j k k #.$.$.#.: = % z *.,XbXbXxX%X~ @ B R :.2.2.2.' ' 2.2.y.e.y.y.p.z.z.i.' N X % - k #.#.$.#.s s #.$.#.$.$.$.d d #.#.$.$.$.$.$.d d ",
": d #.#.#.d @.@.@.@.k : k #.k @.k #.#.d #.d g $ ( &XxXbXcX,X&X/ ~ Y :.t.p.l.i.i.i.T.T.Q.Q.Q.~.Q.R.i.,.E U n , t @.#.#.d @.#.#.#.k k #.$.$.@.k #.$.$.#.k @.$.#.d ",
": : @.@.@.@.#.#.@.#.@.k @.$.$.#.$.$.k d d d s * z &.-X-X-X*X*X%X} ) E y.x.x.x.x.R.Q.Q.~.`.`.`.~.Q.T.t.,.Q Y J 1 : @.k s k $.$.d k k @.#.$.#.@.#.$.$.@.: : $.@.: ",
": d @.@.#.$.$.$.$.$.$.$.k k $.#.#.$.#.k $.k k a g f / O./ *.-X,X*X} ! ' l.l.l.z.R.Q.Q.~.Q.~.Q.Q.Q.Q.T.T.T.y.Y 7 , k @.#.k #.d s k k k #.$.#.#.$.#.@.@.@.$.$.: ; ",
": : : : k #.#.$.$.$.$.@.k k $.$.$.$.$.#.$.#.j - % f ~ ~ b { %X>X=X*.{ ] e.e.i.x.Q.~.~.Q.Q.R.Q.~.`.`.`.`.Q.z.e.U 7 4 t k #.#.k d k #.k k @.k @.$.$.#.@.@.$.$.: - ",
": : : : i @.@.@.$.$.#.: k @.$.$.#.#.k #.$.$.j < 8 ! ) G V ) { *.=X=X&X} ^ ' t.R.Q.~.~.Q.R.R.Q.{. X$X@X{.`.Q.R.e.Y 9 < - #.$.#.k @.#.@.k k k @.#.$.$.#.#.$.#.: ; ",
"d : : s i : @.@.$.#.#.#.k @.#.k d j d k $.#.t . B 1.f.g.,.T P ~ *.-X=XO.~ _ e.x.T.R.Q.Q.Q.~.{.$X$X$XyX$X{.{.{.~.u.V + % #.$.#.#.@.$.$.$.k #.#.k s d $.$.$.#.k d ",
"d d d d @.k k @.@.@.@.#.@.@.k @.k k k #.k k r . M 4.j.j.5.T L P { *.*.} _ [ y.z.T.T.T.Q.`.|.$XyXhXhXlXjXaXqXqX|.v.B o $ k #.#.#.#.#.$.#.#.#.$.#.s s #.#.d d k d ",
": d @.#.#.$.#.@.d k d @.#.@.@.#.$.#.$.$.j j r . N 1.j.s.5.;.E E ~ / { ] y.i.i.l.t.i.z.~.XX$XfXgXhXlXzXvXzXzXzX9X(.` 8 % ; k #.$.$.@.@.@.#.#.#.#.d d #.k : d : : ",
"= : #.#.#.#.#.#.#.k k $.#.$.$.#.#.$.$.k a 2 9 n ` w.k.g.5.;.;.W U ! _ e.l.l.l.t.,.t.T. X0XfXlXlXlXzXvXvXvXzXzXdXXX^.] 3 & ; i $.$.#.$.#.#.k k @.#.#.$.k #.$.d ; ",
"; s k k d #.k d k k k #.@.@.#.k k k k j * 8 ! ` 0.k.j.w.3.Q ;.;.R U E e.l.l.l.t.t.l.].#XiXgXgXlXhXkXkXzXzXzXlXlXsX9X^.] 6 $ i @.k k k k k k #.#.$.#.k j d $.#.s ",
"d d s d @.k : : : k d @.k k k i l d d - > b F 0.j.k.g.6.3.Q W Q ;.;.>.t.p.p.p.p.l.!.OXtXfXfXdXeX6X4X9XeXfXgXgXhXlXlX9XY.v > ; i s s a a j #.$.$.$.#.s ; s d d d ",
": d #.$.#.@.s s k : : @.#.$.$.#.#.d d - # v F d.j.b.6.3.:.Q W :.-.;.,.t.i.i.p.R.].OX8XuXfXgX0X<Xh.V.h.1XpXhXhXlXhXhX$XQ.M > i @.#.k #.#.#.k #.#.#.#.#.d s #.d a ",
": j #.k #.$.#.#.@.d k @.$.$.$.$.#.$.#.: $ b F 4.j.s.3.W W Q Q :.W ;.,.t.i.t.p./.OXrXuXtXuXtX3XS.X.| | C.4XjXkXgXpXeX.Xc.L w k #.$.#.$.$.$.k k k k k $.k k k d s ",
"s : j j @.$.$.#.$.$.#.#.$.$.k k @.$.$.@.$ b F w.f.u.;.W W ;.:.Q W Q ,.t.i.t.l.`.+XuXiXtX5X<XS.Z. .o...N.F.3XtXpX8X<Xn.6.P w l #.$.$.$.#.k k k k ; s $.$.#.k d d ",
"; : s k k k @.k k i i k i k @.#.#.#.#.; # b F 4.g.s.:.W W :.Q :.W Q >.t.i.t.z./.+XuXiX8Xm.q.N.+.H.H.G.N.M.S.3X7X3XC.=.H P 0 t @.$.$.$.$.$.k k j a s k $.$.k a - ",
"; ; j @.k s s s i : : i : i k #.$.@.d : > v F w.g.8.>.W W :.:.;.W -.>.e.t.,.l.`.+XiXfX6Xn.M. .+.;X:XJ.B...=.P.5X<XM.A Z B 0 ; : k $.$.$.$.k k k d j #.$.#.d - = ",
"; ; d d k s : : : : : : s ; ; k #.@.#.k $ b F 7.j.s.:.W W ;.:.Q Q Q ;.>.,.,.l.].+XiXfX7Xk.A ..B.J.:X;X+. .X.[.5X<XX.A Z B 0 r ; k $.$.$.$.$.$.$.$.#.$.$.#.s ; a ",
"; s d d k s : ; : : : ; k k i @.#.@.$.@.< b F 4.f.s.2.W W W Q :.;.;.Q Q :.:.y.!..XtXiXtX2XA...B.G.J.H.+.X.q.1X5X3XV.=.H P 5 ; @.$.$.$.#.#.#.#.#.d s j #.$.k j d ",
"a s d @.#.#.s s j k k k k @.#.$.$.#.$.@.$ @ F 4.g.j.s.3.:.W W Q :.:.W Q Q ;.,.l.'. XtXtX7X<XD.N...o.+.+.F.L.5X8X7XP.n.9.L q j #.$.$.$.#.k k #.$.j - a k #.#.k d ",
"d s d #.$.$.k d #.#.$.$.#.#.$.$.$.@.$.@.$ v V 4.j.k.j.6.3.W W Q :.Q Q Q Q Q :.,.i.!..XtXuX8X<XC.| | X.q.3X8XuXuXtX8X.Xc.P q j k #.$.$.#.s k $.$.j ; s #.$.d s s ",
"; s d #.#.$.$.#.i k #.$.#.k $.#.@.$.$.d $ b G h.L.L.k.s.6.3.;.W W W W W W W Q Q >.t.W..XtXiX8X<XA.M.A.P.rXfXiXuXuXuXOXv.U q j k #.$.$.$.#.$.$.$.#.k $.$.$.j s s ",
"; s d d #.$.$.#.: i k $.@.k $.k d $.@.: # b H D.U.P.k.f.f.6.3.-.W W W W W ;.W W W W ,.v.{.tXuX7X3X[.[.5XtXiXuXuXrX$XOXc.U q j k #.#.$.$.$.$.$.#.$.$.$.$.#.#.j s ",
": d #.$.$.$.#.#.$.@.k $.@.@.@.$.$.@.d - $ J D A.K.P.L.k.k.j.s.5.3.:.:.,.-.:.;.;.R T T W l.{.@X$X#X$XrX$X#X#X$X8X+XoX'.5.B q j j d k #.$.#.$.$.@.k k k k k #.k j ",
"; d $.@.#.$.$.#.$.$.#.#.@.#.#.$.$.d : - & 9 P D q.K.I.P.L.k.s.s.6.6.6.6.6.>.;.T W T T T ,.l.W._.`.@X@XOX].'.OX+X5X[.b.<.v > ; i s k k d d #.#.#.k #.#.$.$.$.k k ",
"; k #.d k $.#.#.$.$.#.k k @.#.$.$.k d s - 5 9 b D A.I.U.D.j.g.f.j.j.k.j.f.8.>.;.Q :.:.>.2.2.>.,.i._.[.].i.t.W.[.[.m.w.F + > - i j k k j k k #.$.$.$.$.$.#.$.@.d ",
"s k k t j @.k k @.k i i : k #.$.$.#.#.k j h 5 3 b ) q.q.4.<.G 1.h.K.U.L.k.j.8.8.8.8.8.8.6.6.-.R ,._.oX'.2.V E 8.s.4.G C 9 2 k #.$.$.$.$.$.$.$.$.$.$.$.d d #.@.d ",
"s d k k j j j k k i j k i : @.$.$.$.#.k t u y y w ! C S V M M S q.I.U.L.k.g.s.g.g.g.g.f.f.f.<.R ;.W.[.v.Y c c B V N B J 5 t k $.$.$.$.#.k #.#.#.@.d @.d : d d d ",
": k $.@.k k k k i k k @.j i @.#.$.#.$.#.s r h h g 3 . X X X o @ ) A.K.h.4.4.0.0.0.0.0.0.0.0.1.<.-.i.v.u.V x       c @ f u k @.#.$.$.$.#.k k #.#.d s @.#.d ; : d ",
"d k @.$.$.$.#.#.@.d s s : s $.#.k #.#.$.$.#.j h 5 w 9 9 q 5 q 9 ! D 1.G F S F F F F F F F F S V V R ` Y M c x c v 8 w l #.$.$.@.#.#.#.$.$.$.$.$.$.$.$.$.$.@.d d ",
"s k #.$.#.#.#.$.#.#.k k k @.$.$.#.k k $.#.k j g h h 5 5 p y y 5 f n m m M m m m m m m m m m m m v n m m m m c m @ q g k #.#.k #.#.#.k #.#.#.$.#.$.#.@.$.$.#.d d ",
"s k $.#.#.#.#.$.$.$.$.$.$.$.$.$.#.s j k j j s k j y g 5 5 e u r , 6 . O 8 6 6 6 6 8 8 8 O O 8 8 8 O 6 8 9 J J J 5 r j k j j j $.#.k k k s j d k d d d #.$.@.d d ",
"s d d @.#.$.#.k @.#.$.$.$.$.#.#.k k j j j k #.$.l - y 5 y e 5 5 3 3 4 4 5 5 5 4 y 5 4 5 5 y 5 5 5 5 5 y y p f 5 r l j j j k #.$.#.j j j k k d s s s d @.@.$.d : ",
"s d @.#.#.#.k k k @.k k #.#.#.k k #.l k k @.$.$.@.t 2 e r 2 4 4 4 5 h p y g y h h p h h u p y y y y p r h l l u j k k k k k $.$.#.i : j k j : i ; : #.#.@.@.d ; ",
": d $.$.k : k k @.@.k i k $.#.#.$.$.#.#.#.$.#.$.#.: ; ; r - 5 4 w 5 h h y p h p p h h h y 5 y y p p 5 2 j #.k k @.$.$.#.#.$.$.$.#.j j i : i : : : : #.#.@.@.d : ",
"s @.#.@.d ; ; k $.$.#.#.$.#.k #.$.$.#.$.$.$.#.#.$.#.: ; ; t t e e y r y h g u t u u h y e 1 1 r h u h j @.#.k #.$.$.$.$.$.$.#.#.$.#.j ; : : k k d @.@.@.#.$.d d ",
"s d #.#.k k : k $.$.$.#.$.#.#.#.$.$.$.$.$.@.@.#.$.$.@.k i k k j j l j j j j l l j l g j t t t t k k l k #.#.#.#.$.$.#.$.$.#.k #.$.$.k k k k @.#.#.#.@.@.@.#.@.d ",
": @.$.$.$.$.#.$.$.@.k k @.$.$.$.$.#.#.#.@.k d @.#.$.$.$.$.$.$.#.#.$.#.k k k k #.k #.#.#.#.$.#.#.#.k k j @.#.$.$.$.#.#.#.@.k s #.#.$.$.$.#.$.$.$.$.$.$.@.@.@.d : ",
": : @.$.#.k #.$.#.#.k j @.$.$.$.#.k k k #.$.#.k @.$.$.$.$.#.$.$.$.#.k #.@.d d d k k @.$.#.d #.$.@.#.k s #.$.$.#.@.@.d k #.$.#.d @.$.$.$.$.$.$.$.$.#.@.@.@.d : ; ",
"; : #.$.@.d @.#.#.@.k s k $.#.@.k k k k $.$.#.d @.#.$.$.#.@.@.$.$.#.k #.$.k k @.#.#.#.$.#.d @.#.#.@.k j k #.#.#.k @.k k $.#.#.d @.#.$.$.$.#.@.#.#.#.@.$.$.d : ; ",
"d @.$.$.#.k d @.$.@.: s s k d d k #.$.$.@.: : #.$.@.$.$.$.k k #.#.$.$.$.$.#.$.$.#.$.$.$.#.d d #.$.k j j k j j k k #.$.$.#.s s #.$.@.$.$.$.k d #.#.$.$.$.$.#.@.: ",
": d @.$.@.k @.@.@.@.d s @.#.@.k #.#.#.k @.@.@.$.@.k #.$.$.k k #.$.$.@.d d $.$.$.#.#.#.#.k k #.k #.@.k : @.#.k k @.#.@.d #.#.#.#.@.k #.$.$.k k #.$.$.#.d @.$.@.@.",
": d d @.@.@.$.#.k #.#.k @.$.$.@.#.#.k s d $.$.@.i k @.$.$.#.@.$.$.$.@.: d $.$.$.k k #.k #.#.#.#.k $.#.k #.$.$.#.#.$.k d k #.#.k k i @.$.$.#.#.$.$.#.#.: : $.@.: ",
": d d @.#.$.$.$.$.$.$.$.k d $.#.#.$.$.@.#.#.k i k @.k #.$.#.#.$.#.@.@.@.#.$.@.d #.k k k #.$.$.$.$.$.$.$.k : $.#.@.$.$.@.#.#.k s d @.@.#.$.$.#.$.#.@.@.@.$.$.: ; ",
": : : d k #.#.$.$.$.$.@.d d $.$.$.#.#.#.#.#.k : k #.k k @.k @.$.$.#.@.@.$.$.d d #.k s s k #.#.#.$.$.$.@.k k $.$.$.$.#.#.#.#.k s k @.k k k k @.$.$.#.@.@.$.$.: = ",
": : : : d d @.@.$.$.@.d @.@.$.$.#.@.@.#.$.$.@.k @.#.k k d k k #.$.#.@.#.$.$.k s #.k s s j k k #.$.$.#.d d #.$.$.$.@.k #.$.$.@.k @.$.@.k k j k #.$.$.@.$.$.$.: ; ",
"d : : : : d d @.#.$.@.@.@.@.$.d k d s k $.$.$.@.@.$.$.$.@.#.$.k d d $.$.$.#.#.$.#.k a s s j k #.#.#.@.@.k @.#.k j k j k $.$.#.#.#.#.$.$.@.#.#.k : d $.$.$.@.@.: ",
"; : : : d d d d d : d d d d d d j d s k k k k k k k #.@.k @.k k : ; @.d : : d #.k s ; s j s d d d d d d d d d d s s s k k k k k k k @.k k k k k : : d d : : : ; ",
"= - : : d : : ; ; - : : : : ; : j s d s ; ; : k k : : : : : : i ; - : ; - - ; s s : ; s s s s ; ; - ; : : : : : k s d d ; ; : k d : : : : : j k ; - : ; = - - - "
};
