/* XPM */
static char *Group_9_2__resized[] = {
/* columns rows colors chars-per-pixel */
"80 80 236 2 ",
"   c #1D0D2C",
".  c #231738",
"X  c #2A392B",
"o  c #2E3B34",
"O  c #2B3439",
"+  c #303132",
"@  c #343A37",
"#  c #323D3B",
"$  c #2C4A1F",
"%  c #2F5119",
"&  c #33561D",
"*  c #37631B",
"=  c #39651D",
"-  c #3D6D1D",
";  c #3F711F",
":  c #2E4B21",
">  c #2E4629",
",  c #314828",
"<  c #324C2B",
"1  c #335324",
"2  c #365B23",
"3  c #385D24",
"4  c #35532C",
"5  c #3A552F",
"6  c #37592B",
"7  c #395C2B",
"8  c #2F4634",
"9  c #324235",
"0  c #334D36",
"q  c #33423A",
"w  c #375935",
"e  c #376122",
"r  c #3A6323",
"t  c #3E6C22",
"y  c #3D642B",
"u  c #3F692B",
"i  c #3F7220",
"p  c #3C6133",
"a  c #406A1F",
"s  c #41751F",
"d  c #43781F",
"f  c #485C29",
"g  c #406C27",
"h  c #406B2C",
"j  c #417620",
"k  c #457C21",
"l  c #41712A",
"z  c #416931",
"x  c #241F48",
"c  c #2A2A46",
"v  c #2F2E4A",
"b  c #312F4D",
"n  c #2E3442",
"m  c #2F3547",
"M  c #333A44",
"N  c #34364C",
"B  c #332F59",
"V  c #2E3857",
"C  c #343758",
"Z  c #383B65",
"A  c #343E6C",
"S  c #5C2F5E",
"D  c #6F1068",
"F  c #4E2F6A",
"G  c #463B69",
"H  c #493B76",
"J  c #4A3A76",
"K  c #364A46",
"L  c #34454B",
"P  c #3A5B47",
"I  c #2E4153",
"U  c #344658",
"Y  c #38476A",
"T  c #365269",
"R  c #3D4B73",
"E  c #374A78",
"W  c #385274",
"Q  c #35537C",
"!  c #39537E",
"~  c #4F4F51",
"^  c #464858",
"/  c #575757",
"(  c #645C4C",
")  c #69634D",
"_  c #716B59",
"`  c #544E6B",
"'  c #435669",
"]  c #424B77",
"[  c #465B76",
"{  c #43557B",
"}  c #67527A",
"|  c #5C6469",
" . c #4D6878",
".. c #72706E",
"X. c #9B0E5D",
"o. c #911870",
"O. c #AC126A",
"+. c #8D237A",
"@. c #AB2569",
"#. c #D03C7C",
"$. c #BD577F",
"%. c #837C73",
"&. c #CC517A",
"*. c #D2627E",
"=. c #478022",
"-. c #498423",
";. c #4C8A24",
":. c #8F8776",
">. c #6B3C87",
",. c #355382",
"<. c #395581",
"1. c #3B5A84",
"2. c #375789",
"3. c #3D5D8A",
"4. c #3D618C",
"5. c #3F6493",
"6. c #4E488A",
"7. c #534586",
"8. c #43558B",
"9. c #485A88",
"0. c #5C4B97",
"q. c #4A5B94",
"w. c #535698",
"e. c #535A9C",
"r. c #664E92",
"t. c #624D9C",
"y. c #77479B",
"u. c #43648D",
"i. c #496788",
"p. c #517786",
"a. c #446592",
"s. c #4B6797",
"d. c #446A95",
"f. c #446D9A",
"g. c #54689B",
"h. c #49709A",
"j. c #48719E",
"k. c #6D6F8C",
"l. c #5A5AA3",
"z. c #6C4EA1",
"x. c #6557A9",
"c. c #645AAC",
"v. c #7855A9",
"b. c #6E5AB4",
"n. c #795BB8",
"m. c #4A75A3",
"M. c #4977A7",
"N. c #4D79A4",
"B. c #5479A8",
"V. c #5D7BB1",
"C. c #777DC5",
"Z. c #882683",
"A. c #90328A",
"S. c #B12F90",
"D. c #CB378C",
"F. c #904A95",
"G. c #B65882",
"H. c #8555A8",
"J. c #8D54A9",
"K. c #8E65B4",
"L. c #8672BC",
"P. c #D85589",
"I. c #E1588D",
"U. c #EE7B97",
"Y. c #F479A5",
"T. c #935EC4",
"R. c #8662C7",
"E. c #9E60CC",
"W. c #8C79C5",
"Q. c #9966D3",
"!. c #A367D6",
"~. c #61839C",
"^. c #5683AC",
"/. c #4D86B3",
"(. c #5584B2",
"). c #5A85B4",
"_. c #578BB7",
"`. c #578EB9",
"'. c #5A92BC",
"]. c #6D90B2",
"[. c #6797BA",
"{. c #72A2BE",
"}. c #5895C0",
"|. c #6799C6",
" X c #7093CF",
".X c #7499D7",
"XX c #6DA2D4",
"oX c #6CABDA",
"OX c #73A8DA",
"+X c #75B2D0",
"@X c #76AAE3",
"#X c #7CB8EB",
"$X c #7FB9F1",
"%X c #7AC1E1",
"&X c #8F8B87",
"*X c #ACA795",
"=X c #B2A895",
"-X c #B5AB94",
";X c #958EA2",
":X c #B9B1A8",
">X c #F897A5",
",X c #FC95A7",
"<X c #C5BCA9",
"1X c #CBC6B8",
"2X c #8A93D0",
"3X c #87B5D6",
"4X c #8F9DE1",
"5X c #87AAEA",
"6X c #86B5EA",
"7X c #8FB2F0",
"8X c #86BBF3",
"9X c #91C5DA",
"0X c #A9CDDE",
"qX c #88C8E6",
"wX c #91C8EB",
"eX c #8ED3EA",
"rX c #97D8E9",
"tX c #87C7F9",
"yX c #8BCBFD",
"uX c #8BD7FA",
"iX c #8CD2FD",
"pX c #91D7FA",
"aX c #8EE2FF",
"sX c #97E5F9",
"dX c #9CECFD",
"fX c #9CF3FE",
"gX c #B1EBF7",
"hX c #A3F3FE",
"jX c #A8F9FF",
"kX c #B3FBFF",
"lX c #BBF9FC",
"zX c #D7D2C5",
"xX c #E7E5DC",
"cX c #C6FAFC",
"vX c #D3FFFF",
"bX c #F7F5ED",
/* pixels */
"% * s - ; ; ; s s - ; s s s d s ; = & : X % = ; =.; k ; i i - ; ; ; d ; ; =.; ; = - s - ; ; ; ; s ; - s d d s ; ; d d s - - ; d k s s s s - - - s s j s s d - & ",
"= - s s j j ; ; ; ; ; d d s d ; - 2 0 L I 8 & ; ; ; ; ; i i j k =.k ; ; ; d =.k j j ; s s s ; ; ; ; ; d j j d ; ; d ; ; ; ; s d j - s - - j k k k j s - s k s = ",
"d d s d k k s s s d d k =.k j ; r P ' q.u.' f r - ; ; ; i =.;.;.-.-.; ; ; d -.;.;.=.j k =.d s ; ; s d =.k k k i i j ; ; ; j k j j s s a j =.;.;.;.=.s ; s d d s ",
"s d -.;.;.k s s d s d =.-.-.k r w p.{.qX3X{.p.~ r =.=.-.-.=.-.-.-.-.-.; d =.=.-.=.=.-.;.-.=.d s d s d =.-.;.;.;.;.=.j ; =.-.;.-.=.k =.-.=.=.-.-.-.-.=.d d =.d s ",
"- d -.-.-.-.-.=.-.i k -.;.-.i w ' B.3XgXcX0X].^ 0 i -.;.-.=.=.=.k k ;.=.=.=.=.-.=.=.=.=.-.;.-.=.-.d k -.;.;.;.-.-.-.-.-.;.;.;.;.;.;.;.;.;.k k k k k ;.=.k =.d s ",
"s s s d -.;.;.;.-.-.-.-.;.=.e L E B.+XrXcXcX3X] n 8 u =.-.i i =.; i -.;.-.k =.;.-.k ; j =.;.;.;.-.;.=.-.;.;.=.k -.;.;.;.;.;.;.;.;.;.;.-.k k k k - s -.;.-.k s s ",
"- ; s d d d =.k =.; i k k i r K A Y  .~.3X0X].C x V 0 u =.i i i - ; k ;.;.=.; k k k ; k =.k =.k d d j k j k =.-.-.-.=.; j k =.-.-.;.;.;.;.k k j ; a =.;.;.k ; = ",
"- a s d d d s s ; ; ; i ; ; r U Y Z { ~.eX9X+X{ Y E U p -.-.-.-.j j -.;.;.j ; ; =.j s =.k ; ; ; ; ; ; ; ; ; k -.-.=.=.j k k j j k ;.;.;.;.k k -.k j -.;.-.j - * ",
"; ; ; -.=.; ; ; ; i ; ; i - & L R g.].+XrXsXqX[.V.g.Y w k ;.;.;.;.-.;.;.-.i i k k k j =.k ; ; ; i ; ; ; ; ; i i -.=.-.;.;.=.; ; k -.;.;.;.;.;.;.-.-.;.;.-.; - - ",
"; ; ; k k i ; ; ; ; ; ; =.; e 8 ' ).3XsXdXfXpX6X Xs.K 6 k -.-.-.k s j =.-.=.-.;.k j j k k j ; ; ; ; ; ; i =.i =.-.-.;.;.;.;.=.-.;.;.;.;.-.-.-.=.k j j -.-.=.k d ",
"; ; ; -.-.-.; ; i =.k ; k k i y P p.+XsXsXdXiXOXB.T z y k k -.-.i - ; k ;.-.;.;.-.j j =.;.=.d ; i -.k i -.-.-.;.-.-.-.;.-.-.-.;.;.;.;.-.k k -.;.i - - k ;.-.d d ",
"; ; ; ;.;.;.-.i -.;.;.;.-.-.-.-.l P i.|.qXiX@XB.T p k k s -.;.;.j - i -.;.j k -.;.=.j -.;.;.k j -.-.;.-.-.-.;.;.;.-.-.;.=.=.-.=.-.;.;.-.s k ;.;.j - ; -.;.s s s ",
"; ; ; -.;.;.;.=.; k -.;.-.k ;.-.s u P i.|.XX^.T p k ;.;.k ;.;.;.-.k -.;.;.k k -.=.j j =.;.;.;.=.; =.-.;.=.=.;.=.=.-.-.;.-.;.;.-.-.;.;.;.=.;.;.;.-.k -.;.;.k s a ",
"; ; ; =.-.;.;.-.i i k ;.k k ;.k d d y K s.g.[ w - -.;.;.;.;.;.;.-.;.;.;.-.-.-.-.k k d k -.;.;.-.; ; =.;.=.k -.=.=.-.-.=.-.;.;.-.-.-.;.;.;.;.;.-.-.;.;.;.;.=.j s ",
"; ; -.;.;.;.-.-.;.-.k -.-.-.-.-.;.=.- 6 L K w r s k =.-.;.;.;.d k k =.k k -.-.;.-.=.-.;.;.;.-.-.;.=.=.-.-.k -.;.-.-.; ; k -.;.k j k -.-.;.;.;.=.k k =.=.k =.k d ",
"; =.;.-.;.;.-.-.;.;.-.-.k -.-.;.;.d ; r < 4 2 t s k k k d k ;.;.-.=.-.-.;.;.;.;.-.-.;.=.-.;.;.-.;.-.-.-.-.-.-.;.;.d ; i i k k i i k k k k =.-.-.-.=.-.-.;.;.=.k ",
"; =.;.d =.;.-.-.;.;.=.k k =.;.;.;.j d s = = - j j k k k j k =.;.;.;.;.;.;.;.;.;.=.-.-.k k ;.=.;.-.;.-.=.k -.;.;.;.k d d s j j j k k k k j k -.;.;.;.;.-.;.;.k d ",
"; d d ; ; =.d =.=.j i s ; j -.;.;.-.k k k =.=.;.-.-.;.;.;.;.;.;.;.;.;.k s ;.;.;.;.=.j a j k k k -.; ; ; ; j =.;.;.-.=.d k -.;.;.-.;.-.;.;.;.;.;.;.;.;.d k =.k d ",
"; d =.; d d d d k j j k s ; d ;.;.;.;.=.k k ;.;.;.;.;.;.k =.;.-.k k =.k s d =.;.-.=.k k j k j k =.i ; =.; ; k ;.;.;.;.=.k k -.;.;.;.;.-.=.-.-.;.=.d -.d s j j d ",
"; =.;.=.d d =.d j k k =.t e j k -.=.=.;.k k k ;.;.;.;.-.k k -.;.d s k k k a d ;.-.-.;.k k k k k i i k -.j i =.;.;.-.-.;.k k =.;.;.;.;.-.j =.-.-.d ; =.=.j s s d ",
"j k =.;.;.;.=.=.=.j s - 1 X < y k k -.;.;.;.;.=.=.;.-.;.;.;.;.;.;.;.;.;.;.k -.;.;.-.=.;.;.;.=.=.-.k i i t j ;.-.=.k -.;.;.;.;.=.=.-.-.;.;.;.;.;.;.;.;.;.;.k d d ",
"d d -.;.;.;.-.;.;.-.k j 1 X o 3 k k k ;.;.=.k -.-.=.=.=.-.-.-.-.;.=.-.;.;.-.;.;.;.-.=.-.;.;.k k k =.k k k -.;.;.-.k =.;.;.=.=.-.-.-.=.=.-.-.-.-.;.-.=.;.;.-.d d ",
"; d ;.-.=.-.-.;.;.;.;.;.y , 8 y k d k k j s j ;.;.k k j j j k k k j d -.;.=.;.;.=.-.;.-.=.k t = r =.;.;.;.;.;.;.-.j j k k s s ;.;.k k j i j k k d d s -.;.=.k d ",
"d d k =.;.;.=.k k -.;.-.k l i j k j j s j k ;.;.-.j j k k j j j s d k k =.=.=.=.;.-.k =.;.k < o > i ;.-.;.;.-.=.k k j j s k -.;.;.i j k k k k i ; s k =.=.;.d s ",
"s d -.-.-.-.k k =.=.k j =.;.-.k k k k k k k ;.;.=.s s j j j j i - j =.=.k =.=.=.;.-.k d g z K V C w y - =.;.-.=.k =.k k k =.;.;.=.; i j k j ; i ; ; =.=.=.=.d ; ",
"; d ;.;.=.; i =.=.=.j i =.;.=.-.-.;.-.-.;.;.;.;.-.j s a s - ; s - j =.;.=.=.=.;.k -.-.a , # R 9.! L > & j ;.-.=.-.;.-.-.;.;.;.;.-.j ; ; i ; ; ; ; ; -.-.=.-.d ; ",
"; k -.=.; ; ; d ;.;.;.-.-.-.=.-.;.;.;.;.;.;.;.;.-.-.j ; s s d d k k k =.=.;.;.;.-.-.d * > v { u.9.I @ 2 k -.=.-.;.;.;.;.;.;.-.;.;.=.d - ; ; d k d d =.=.-.;.=.; ",
"d k -.=.k k ; d ;.;.-.;.;.-.=.;.;.;.;.;.;.=.k =.;.;.k k d =.=.=.;.=.=.=.k -.;.;.-.;.;.g 6 K Y { R K < t k -.=.-.;.;.;.;.;.=.k =.;.;.=.d j =.=.-.-.;.-.=.=.-.=.d ",
"; d ;.;.;.;.;.;.;.-.k d =.;.;.;.;.-.=.;.k k j =.-.;.;.-.-.-.;.;.;.;.;.-.k k -.-.-.-.;.;.k g K N L 7 - j =.;.;.;.;.-.-.-.=.k j k ;.;.;.;.;.;.;.;.;.;.;.-.=.=.; ; ",
"; d =.;.-.d -.;.-.=.=.j =.;.;.;.k k k k -.;.=.k k ;.;.j 3 6 3 & 3 & s k -.k d k -.k k ;.-.s 7 4 4 g k s =.;.;.;.=.=.j k ;.;.=.k d ;.;.;.;.;.;.;.;.-.=.=.-.; ; - ",
"- d =.;.-.d =.-.-.=.k j =.-.;.=.k k k k ;.;.=.k =.-.j 3 9 @ o @ @ 9 2 j ;.d s d k k d =.d s - - s j k s k -.-.=.k =.k k -.;.=.k =.;.;.;.;.=.=.;.;.=.d ;.-.=.; ; ",
"s =.;.;.-.d d -.;.=.i i d j ; j k ;.;.;.=.s s =.;.j 3 9 m C C Y Z L < g k s g j j j j s g - t j -.k s d d d s d k =.;.;.=.s s ;.;.=.;.;.;.d d -.-.;.;.;.;.-.=.d ",
"; d -.-.-.d =.=.=.=.k s =.-.=.k k -.-.k -.d -.k g & + + @ C ! a.q.R L , , , , , , , , , X , , , = d d d k ;.d d -.;.k k k k -.;.=.k -.;.;.=.k -.;.;.-.d k ;.-.d ",
"; d k =.=.=.;.-.k ;.-.j =.-.;.-.-.;.k d d ;.;.d & + @ N ~ | i.j.j.u.Y m O n n O n n O n m O v n , y d - s -.;.-.k -.k d -.;.;.d j k =.;.;.-.=.;.;.-.=.d ; ;.=.; ",
"; s k k =.;.;.;.;.;.;.;.k j ;.-.-.;.;.k ;.k d s % + ~ %.&X&Xk.p.d.u.1.R Y R ] Y R R { { { { 9.[ U 0 & 1 & = ;.-.-.;.-.-.k -.k d j =.=.-.;.;.-.;.;.d k =.;.;.; - ",
"; ; d ; k ;.-.-.;.;.;.=.k k ;.;.;.;.;.d ;.;.d - % X %.:XzX-X..~ W u.a.a.s.s.u.q.a.h.N.N.B.B.(.N.[ I @ @ o < j ;.;.;.-.-.;.k k d k -.k k =.d k ;.;.;.=.=.;.;.; = ",
"; ; ; ; i =.=.=.;.;.-.d k -.-.;.;.k k -.;.;.k g f ) -XxXbX<X_ @ Y 2.f.M.m.m.j.N.N./.`.'.'.'.'./.h.R Z Z V q 6 d -.k -.k ;.;.k k =.-.=.j j j =.-.;.;.-.-.;.;.; - ",
"d ; ; s ; ; k -.;.-.-.=.k k -.=.s d d k ;.=.- f _ -XxXbXbX-X) + Y f.M.M.m.m.N.^.^.`.'.`././././.m.a.4.d.<.U + : a d k k ;.;.;.-.=.;.;.;.-.-.-.k s d ;.;.;.=.k d ",
"d s d d =.=.k =.=.=.=.=.=.=.k =.k k k k k t 7 ( :.1XxXbX1X-X..~ W d.5.M.M.h.N.^.`.`./.`.'.}.'.[.[.'.[.}._.h.' K 1 s k k k ;.-.;.-.-.;.-.-.;.;.=.; s ;.-.d d k d ",
"; d -.-.-.;.=.=.d k d -.-.-.=.-.;.;.;.k & , ^ } ;X-X1X:X*X-X*X:...[ 9.f.M.h.m./.`.`.^.`.+X%X9X9X9XwXeXqX%X+X[. .^ 3 j ;.k k k ;.;.-.=.-.=.=.-.;.d d -.d ; d ; ; ",
"* s -.=.=.-.-.;.-.k k -.;.;.;.-.;.-.=.g > N 7.z.k...( ( _ =X1X1X%./ ' i.m.f.m.^./././.|.%XsXgXgXcXcXgXhXsXsXrX{. .o & j k k -.;.;.;.;.;.=.=.=.=.-.-.;.=.=.;.d - ",
"- s k k k =.k d =.j k -.-.k =.k k k d & X B 0.b.t.` @ @ ~ G.-X1X*X..|  .i.d.h.M.^.(.[.%XpXhXkXcXvXvXvXcXkXjXjXeX[.' K 2 = j k -.k j k j j =.-.-.;.-.k d k ;.=.s ",
"d s s d =.k s - s s d =.k j k i s k a & X B 0.b.l.6.I V T | %.*X-X-X:./ ' u.f.f.^.'.%XeXdXfXjXjXcXcXvXvXcXkXjXdXeX]. .q : = k j j ; ; - j =.;.;.;.=.s a s k k d ",
"; d ;.;.;.k s s k s s =.-.;.;.;.-.k = , O G 0.l.l.2.,.Q Q I ~ _ -X:X:.) ' 9.f.M.(.+XeXfXhXdXsXdXgXlXcXcXcXkXhXhXhXrX].' X & ;.;.=.=.=.=.-.=.=.-.-.-.=.d s =.d - ",
"; j =.=.-.;.-.=.=.k k =.;.;.;.;.k t 4 M G 7.w.w.8.2.2.2.,.Y U / :.:...| [ d.M._.XX%XpXdXdXdXsXdXhXjXkXlXkXjXdXhXjXsX|.[ > = ;.;.;.-.;.;.-.k k =.k k -.-.k =.d s ",
"s s s j k ;.;.;.;.-.=.-.;.;.k k j 1 q G 7.x.e.8.Q Q 2.<.,.,.! ' / ( | p.h.d.B.XXtXyXyXiXpXdXdXdXdXsXsXdXsXsXdXjXhXrX|.i.K r -.;.-.;.;.;.=.k k j ; ; -.;.-.k s d ",
"- - s k k k k k j j j j j k -.;.j : M H t.b.e.<.Q Q ,.<.,.2.,.R U ^ [ d.m.5._.oXtXyXyXyXiXpXhXsXeX2XL.L.2X9XfXfXhXeX#X}. .P r j k ;.;.;.-.k s k ; a =.;.;.k a = ",
"- a j =.k s j j j ; i i ; ; k -.j : M H x.b.l.1.Q ! <.<.<.,.<.E R R 4.h.m.5._.OXtXiXyXtXyXiXaXpX4XK.>.+.F.2XrXfXsXyXyX#X`.W K 2 s ;.;.;.;.=.=.=.d k =.;.-.s - * ",
"- ; s -.d s ; ; ; ; s ; ; ; ; k j $ M H 0.c.l.<.Q Q ! ! Q <.<.,.,.2.d.f.f.d.(.OXtXiXyXtXtX8X$X5XL.+.@.X.o.J.2X0XyX8X8X7X Xl.Z > - k ;.;.;.;.;.;.;.k ;.;.;.- - - ",
"- ; s d d s s - ; ; ; ; j k i =.j : M G t.c.e.2.Q Q ! <.<.<.! ,.<.2.5.f.h.d.).OXyXiXyXiXtX7X.XH.F.&.&.&.S.S.J.2X7X7X4XW.v.7.U w j ;.;.;.-.-.-.-.k j k -.;.=.k s ",
"; s s -.;.-.s s s k k j k =.-.;.k 1 M H 0.x.l.1.Q Q Q <.<.Q ,.! ! <.a.d.f.f.^.XXqXyXyXuXyX5Xv.Z.@.*.>XY.I.D.o.J.2X8XW.Z.D F U p k ;.;.;.k k ;.-.s - g d ;.k k d ",
"d s s -.;.;.d d =.;.;.;.-.;.;.;.k : n G 0.c.c.e.8.! Q Q ! <.! ! <.<.1.u.a.h.N.'.XX$XyXaXuX5Xy.o.@.I.,X,XU.#.X.>.C.7XT.o.D B T w j ;.;.k j k ;.;.s - a ;.;.d s s ",
"- s d -.;.;.;.-.s j -.;.=.=.;.-.g $ # H 0.b.n.c.e.8.! ! ! ! ! ! <.,.! 2.u.a.f.m.(.XX$XuXuX6Xn.Z.O.I.Y.,XU.&.o.F..X7XW.Z.D F U w j ;.;.;.=.;.;.;.=.=.;.;.;.d s s ",
"- ; d d -.;.;.-.s j k ;.=.k -.=.- : M J v.R.R.b.l.w.8.<.Q Q ! ! ! ! E ! 2.a.u.a.h.).OX%XiX8X2XJ.S.D.D.P.&.$.F.L.4X7X2XK.z.7.U 6 j -.;.;.;.;.;.;.;.;.;.;.;.k j s ",
"; d -.-.;.;.-.-.;.=.=.-.=.=.-.;.k $ N 7.T.Q.Q.b.x.l.l.2.Q Q Q Q Q ! ! ! ! 1.3.a.h.M._.OXtXyXyX5XK.S.O.O.@.F.W.5X8XyX8X4XC.q.U < - d ;.;.;.;.;.=.k k k k k -.k d ",
"; d -.-.-.;.;.-.;.;.-.=.-.-.-.;.k & @ G H.E.E.R.n.n.c.e.8.1.,.,.Q Q Q ! Q Q 1.4.d.5.d.(.XX$XiX%XC.H.>.o.A.2X7XpXyXtXtXtX.Xf.I < = d k k d d =.-.=.=.;.-.;.;.k d ",
"; k -.j k ;.-.-.;.;.-.k k =.;.;.=.= 1 K S v.T.!.Q.R.b.c.l.e.w.8.1.! Q Q Q Q Q 1.1.1.! d.).|.oXoX X Xn.n.C.5XuXuXtX$XtX%X@Xq.b < - k k k j k =.;.;.;.;.;.-.;.=.d ",
"s k j i j k k =.=.j ; i ; j -.;.;.-.j 7 @ G J.!.Q.R.b.x.x.b.b.l.8.<.Q <.<.<.<.<.2.<.! 4.f.N.j.^.[.OXtX8X8XtXtX$X#X@X@X@XV.E O 2 j ;.-.;.;.;.;.;.;.;.;.d d -.=.d ",
"s d =.j j j k k j j j k s i =.-.;.;.-.i : ^ 7.J.v.t.7.6.r.n.T.R.b.e.q.q.e.e.e.e.q.8.2.,.4.5.<.5._.8XtX#X X'.]. X.X@X.XV.[ L < t k ;.;.;.k -.;.;.=.d -.d s d d d ",
"; k ;.=.k k k j j k k -.j i k ;.;.-.-.k e 0 ^ F J F C B J y.E.!.R.c.l.c.c.c.c.c.x.w.1.Q <.<.Q 1.V.@X@X].9.Z R g.|..XV.q.L 4 - =.-.;.;.-.d k -.-.d s d =.d ; s d ",
"d k =.;.;.;.-.=.-.j s s - j ;.-.=.=.-.-.-.z w n c O O O N } J.E.n.t.t.0.t.t.z.t.t.6.] E Y Y A E a.B.B.] c   . G g.V.9.K 6 s -.k k -.-.;.;.;.;.;.;.;.;.;.;.d d d ",
"s k -.;.;.-.-.;.;.=.k d k =.;.;.-.j =.;.-.i 2 0 > 9 > > 9 ^ J >.7.J H H H H 7.H J A Z Z V V V Z Y 8.] B .   . B ] { K < a d k ;.;.k k -.=.-.-.-.;.-.-.;.;.-.d d ",
"s =.;.-.=.=.-.;.;.;.;.;.;.;.;.;.;.j j =.j t r z p y y y 5 q M b b b v b b b v v v v v v c v v v b b b b b c b b C M 4 t j s d ;.;.k k j j j k k d d d =.;.-.d d ",
"s d d =.;.;.=.k =.-.;.;.;.;.;.=.k k j j j j k k t 7 7 p 7 4 9 o O O q o # 8 # # 8 q # # q L q q o @ @ # q K K @ @ : e a s k =.;.-.j j k k k j j s s d -.-.-.d ; ",
"s d =.-.-.=.k k k k k k -.;.-.k k -.k j k =.;.;.j r 7 y 7 6 1 < < 4 4 5 4 6 7 4 5 5 5 w 5 5 6 5 4 4 4 < w z z 5 3 - s k k =.-.;.=.s g s d s s ; ; ; =.=.=.=.d ; ",
"s d ;.;.k s k k -.=.k i k -.-.-.-.;.-.-.-.;.-.;.k r 3 6 2 3 7 7 7 7 h h u y y h u u h l y 7 y y u u y r g j h l =.;.-.-.-.;.;.;.-.j s s s ; ; s ; s =.-.=.=.d ; ",
"s k -.=.d - - j ;.;.;.-.;.-.k -.;.;.;.;.;.;.-.;.-.k l - r e e p 7 7 y y z h h z z y z y 7 6 5 7 p z h l k k k -.;.;.;.;.;.;.;.;.;.=.j - ; ; j k d =.=.=.-.-.=.d ",
"s d -.=.k k j k ;.;.;.-.;.-.-.;.;.;.;.;.;.=.k -.;.;.d d s i u y h h h h y h u h h h u u y y y y z l l j ;.;.k -.;.;.;.;.;.k k =.;.;.=.k d k =.-.-.-.-.=.=.;.d d ",
"; =.;.;.;.;.;.-.;.=.k j -.;.;.;.;.-.-.-.=.j i -.-.;.;.;.;.=.k j j k l g t t l j j g j j l k j j j g t - k ;.;.;.;.=.-.-.=.k d =.;.;.;.;.;.;.;.;.;.;.;.=.=.=.d ; ",
"; ; =.;.-.k -.;.-.=.k j =.;.;.-.-.k k k ;.;.;.j k ;.;.;.;.-.-.-.-.k k k k s ; s j k k -.k j k =.k k k j -.;.;.;.=.=.d k ;.;.=.k k ;.;.;.;.;.;.;.;.=.=.=.=.d ; - ",
"; ; -.;.=.s =.-.;.=.k s =.-.-.=.k k k k -.;.=.k -.-.;.;.-.-.-.-.;.=.k ;.;.k k k =.=.=.;.-.k k ;.-.-.k j k -.-.k k =.=.k -.;.k d =.;.;.;.;.=.=.-.;.=.=.;.;.d ; - ",
"d =.;.;.-.=.d =.;.k s d d j d d k -.;.;.-.j ; -.-.-.;.;.;.k k -.-.;.;.;.;.-.;.;.;.;.;.;.-.k k =.;.k j j k j j k k =.;.;.=.s s ;.-.=.;.;.;.k d -.=.;.;.;.;.-.=.; ",
"; d -.-.=.k =.=.=.=.d s =.-.=.k =.-.=.k =.=.-.-.k k -.;.;.k k -.;.;.-.d d ;.;.;.=.;.=.;.=.k k =.-.-.j j k -.=.k =.-.=.k =.=.=.;.=.j ;.;.;.=.d -.;.;.-.d =.-.-.=.",
"; s =.=.=.=.-.-.k ;.-.d =.;.;.=.=.;.k d d ;.;.=.j k -.-.;.-.-.;.;.;.d d d ;.;.;.=.k k k =.=.;.;.k -.-.j =.;.;.-.-.-.k d k ;.;.k j k =.;.;.-.-.;.;.-.=.s ; ;.=.; ",
"; s d d -.;.;.;.;.;.;.;.k d ;.-.=.;.-.=.-.=.k ; j -.=.-.;.-.-.;.-.=.d =.-.;.=.k =.k k k =.;.;.;.;.;.;.;.k d ;.-.=.;.;.=.=.=.k s d =.k -.;.;.-.;.-.=.k =.;.;.; - ",
"; s s d k ;.-.-.;.;.;.-.j k ;.;.;.;.;.=.;.-.k j k -.k k =.k =.-.;.;.=.=.;.;.d s =.k d s k ;.=.;.;.;.;.-.k k ;.;.;.;.-.-.;.-.k s k -.k k =.j =.;.;.-.=.-.;.;.; * ",
"; ; ; ; d d k -.;.;.=.d d -.;.;.;.=.=.=.;.;.-.k =.-.=.j j j =.;.;.;.=.-.;.;.k j -.k s s j k k =.;.;.-.d k -.-.;.;.=.=.=.;.;.=.k =.-.=.j k j =.-.;.;.-.-.;.;.; - ",
"d s ; d s s d =.-.-.-.=.d =.-.k j k d k ;.;.;.=.-.;.;.;.=.-.-.k s d ;.;.;.=.;.;.;.k a s j s k =.-.;.-.=.d =.;.k j j s k ;.;.-.=.-.;.;.;.=.;.-.=.s d ;.;.;.-.=.; ",
"- - ; ; d ; d d d ; d d d d d d s d d j j k k k k k =.=.k =.=.j - - d d ; ; d =.k s s s s s s d d ; d d d d j d d s d k k k k =.k k =.k j k =.j - ; d d ; ; ; - ",
"* * ; ; ; d ; ; - - - ; s ; ; ; j s k d - - s k j ; ; ; ; i j j - - s - = = - s s ; - ; s s s a - = - ; ; ; ; ; j d k s - - s j d ; ; ; s ; s d - = ; - * = = * "
};
