/* XPM */
static char *Group_9_3__resized[] = {
/* columns rows colors chars-per-pixel */
"80 80 231 2 ",
"   c #21332A",
".  c #2C3C2C",
"X  c #2A2D39",
"o  c #2A3534",
"O  c #2E3D34",
"+  c #2D343D",
"@  c #313F39",
"#  c #2F4D1C",
"$  c #32551D",
"%  c #355C1D",
"&  c #37631B",
"*  c #39651C",
"=  c #3D6D1D",
"-  c #3F711F",
";  c #2C4625",
":  c #314C24",
">  c #344528",
",  c #324C2C",
"<  c #345323",
"1  c #365B24",
"2  c #395D24",
"3  c #35542D",
"4  c #38562E",
"5  c #375A2B",
"6  c #395C2C",
"7  c #2D4337",
"8  c #324237",
"9  c #344B33",
"0  c #32423A",
"q  c #364C3B",
"w  c #355735",
"e  c #3B5D32",
"r  c #376123",
"t  c #3B6423",
"y  c #3D6C22",
"u  c #3C632B",
"i  c #3F692C",
"p  c #3F7220",
"a  c #3D6333",
"s  c #41751F",
"d  c #43781F",
"f  c #485132",
"g  c #40692A",
"h  c #406B2D",
"j  c #417620",
"k  c #457C21",
"l  c #447628",
"z  c #426731",
"x  c #566C38",
"c  c #281F40",
"v  c #2D2A48",
"b  c #322F4D",
"n  c #333B43",
"m  c #35384A",
"M  c #2E2D52",
"N  c #2E3459",
"B  c #343854",
"V  c #343C5B",
"C  c #263D64",
"Z  c #383C63",
"A  c #443A58",
"S  c #730E68",
"D  c #463868",
"F  c #483B75",
"G  c #4B3B79",
"H  c #543171",
"J  c #2F4445",
"K  c #38464A",
"L  c #38544B",
"P  c #324555",
"I  c #374359",
"U  c #3B5854",
"Y  c #374668",
"T  c #344C6D",
"R  c #344B75",
"E  c #3C4D74",
"W  c #374B78",
"Q  c #36537C",
"!  c #3B5578",
"~  c #38537F",
"^  c #4F5050",
"/  c #4C515B",
"(  c #665C50",
")  c #536250",
"_  c #666850",
"`  c #696855",
"'  c #4D496E",
"]  c #435978",
"[  c #67477A",
"{  c #5F666C",
"}  c #496479",
"|  c #716E6A",
" . c #90166F",
".. c #AF176B",
"X. c #8B277D",
"o. c #B13177",
"O. c #C83676",
"+. c #B7507E",
"@. c #857D6D",
"#. c #CF547A",
"$. c #478022",
"%. c #498423",
"&. c #4C8A24",
"*. c #938A78",
"=. c #583E80",
"-. c #7A3087",
";. c #365383",
":. c #3A5481",
">. c #3C5985",
",. c #3F5789",
"<. c #3D5D8A",
"1. c #3A5D90",
"2. c #3D6696",
"3. c #4A4A86",
"4. c #54458A",
"5. c #44558B",
"6. c #455989",
"7. c #5A4D98",
"8. c #4C5896",
"9. c #55569A",
"0. c #535A9C",
"q. c #6E4690",
"w. c #634D9B",
"e. c #43638D",
"r. c #49668B",
"t. c #56758F",
"y. c #436592",
"u. c #456A95",
"i. c #456D9A",
"p. c #4B6999",
"a. c #47709D",
"s. c #49719D",
"d. c #5B59A3",
"f. c #704EA3",
"g. c #6756AA",
"h. c #645AAC",
"j. c #7753A8",
"k. c #6A5AB1",
"l. c #775CBA",
"z. c #4B75A3",
"x. c #4D79A5",
"c. c #4877A9",
"v. c #4C7AAA",
"b. c #5476A7",
"n. c #5071A8",
"m. c #527DAB",
"M. c #746BB8",
"N. c #7E5FC1",
"B. c #7871C6",
"V. c #90308D",
"C. c #B62D8F",
"Z. c #D43D87",
"A. c #8E4C96",
"S. c #A0518E",
"D. c #8650A5",
"F. c #9157AC",
"G. c #8759B3",
"H. c #8B72B8",
"J. c #DB4C8B",
"K. c #DF5E8F",
"L. c #EE6E96",
"P. c #F27BA4",
"I. c #865EC2",
"U. c #985CC3",
"Y. c #8E6FC7",
"T. c #8B63CB",
"R. c #9966D5",
"E. c #A163CF",
"W. c #A466D7",
"Q. c #6A8392",
"!. c #5283AE",
"~. c #4E80B0",
"^. c #5385B1",
"/. c #558AB5",
"(. c #5A88B8",
"). c #5A93BD",
"_. c #6890B6",
"`. c #5E95C3",
"'. c #648AC3",
"]. c #6697C9",
"[. c #6C9ED4",
"{. c #7990D6",
"}. c #6EA7CF",
"|. c #6AAADA",
" X c #79B8DB",
".X c #75AEE4",
"XX c #74B3E9",
"oX c #7BB6EB",
"OX c #7BC6EE",
"+X c #7ACAF5",
"@X c #988E84",
"#X c #9B9589",
"$X c #A59B86",
"%X c #AEA793",
"&X c #B3AB99",
"*X c #BCB6A5",
"=X c #FC98A8",
"-X c #C2BAA5",
";X c #D2CCBB",
":X c #8C86CE",
">X c #8A95C9",
",X c #8894D9",
"<X c #8EAAD1",
"1X c #839CE4",
"2X c #83A6E7",
"3X c #8AB5E9",
"4X c #95B4EA",
"5X c #87B9F4",
"6X c #8FC7DF",
"7X c #88C6ED",
"8X c #8FCCEF",
"9X c #98D6EC",
"0X c #88C8F9",
"qX c #89D7F7",
"wX c #8BD3FD",
"eX c #8DDCFC",
"rX c #94D9F9",
"tX c #A9D2E9",
"yX c #8EE2FC",
"uX c #92E5FD",
"iX c #99EAFD",
"pX c #9EF5FE",
"aX c #A4EBFC",
"sX c #B5E9F3",
"dX c #A5FAFF",
"fX c #B7F9FD",
"gX c #DAD5C9",
"hX c #E1DED1",
"jX c #E5E2D8",
"kX c #C7FCFD",
"lX c #F7F6EF",
/* pixels */
"$ & s = s = s s s = = s s s d s - - & # ; ; % - d - d d = = = = - s d - - k s = * * d = - - - - s - = s j d d - - d d - = = - d s s s s s = g s = s d s s d s % ",
"& = - s s k - = s - s d j d s s p r w J J 7 , y - - - - y j k k k j s = - d $.k j s s s s s - - - - - d j s d - - d - - - - d d s s s s s s k k d d s = s d s * ",
"d d s d $.k s s s s d $.$.j j s y r / ] 2.] L a t p - - j %.&.&.&.$.s - - k %.&.&.$.j k $.d s - - d d $.$.k j j p j - - - j k j s s s l s %.&.&.&.$.s = s k d s ",
"s d %.&.%.k s s d s s $.%.&.%.p a ) Q.}.3X}.t.U w = d %.%.k %.&.&.%.$.d d $.%.$.$.%.%.%.%.$.d s d s d $.%.&.&.&.&.$.d - k %.&.%.$.k d $.k k k &.%.%.$.d d $.d s ",
"s s $.$.%.&.%.$.%.d k %.&.&.$.5 K t.<XjXsX9X}.u.L r %.&.%.k k k k k &.$.k $.$.%.$.$.$.$.&.&.%.$.%.d k %.&.&.&.%.%.%.%.$.&.&.&.&.&.&.&.&.%.k k k d $.&.$.k $.d s ",
"s s s s $.&.&.&.%.%.$.%.&.%.- 7 Y _.tXkXkXsXOXB.! , k &.%.k j k - p %.&.%.k $.&.%.k s j $.&.&.&.&.%.$.%.&.&.k k $.&.&.&.&.&.&.&.&.&.&.%.k k k k s s $.&.%.k s s ",
"= s s d d $.k k k p p k $.p k , P (.9XfXfXaXoXn.T , l &.%.j j j = - $.&.&.k j j $.k - k k k $.k d j j k s k %.%.&.%.$.j j $.%.%.%.&.&.&.&.k k k = s k &.&.k s * ",
"= = s d d d s s - - - - - p p 1 q t.}.8X9X3X'.r.L r k &.&.%.$.%.j k %.&.%.j s s k j s $.k - - - - - - p - - k %.%.$.$.j k j j j k &.&.&.&.k $.$.d d $.&.&.j * * ",
"- - - $.$.- - - - p - - - - = * u / t.).}._.y.L z s %.&.&.&.&.&.%.$.&.&.%.- j k k k j $.k - - - - - - - - - p p %.$.%.&.&.$.- - j &.&.&.&.&.&.&.%.%.&.&.%.s * s ",
"- - - $.$.p - - - - - - - $.- k k h L ! ,.E U i k %.&.&.%.%.&.%.k s k %.&.$.%.%.k j s k k j - - - - - - - $.p %.%.$.&.&.&.&.$.%.&.&.&.&.%.$.%.$.k j k $.%.k k s ",
"- - - %.%.$.p - p $.d k $.$.%.&.&.s 6 8 n 7 5 k %.&.&.&.d k %.%.j * = k &.$.&.&.%.j d $.&.$.d - p $.k p $.%.%.&.&.%.%.&.&.%.%.&.&.&.&.&.k k $.&.j * = k &.%.d s ",
"d - - &.&.&.$.p %.&.&.&.%.%.&.&.%.k j l r t k k k &.&.k s %.&.&.j = p %.&.d l &.&.$.j %.&.&.k j %.&.&.&.%.%.&.&.&.$.%.&.k $.%.$.%.&.&.k s $.&.&.j = s $.&.j s s ",
"- - - $.&.&.&.$.- k %.&.$.$.&.$.k %.%.%.k %.%.%.%.&.&.&.%.&.&.&.%.k &.&.&.k k k $.j j $.&.&.&.$.- k %.&.$.k &.$.k %.&.&.%.&.&.$.%.&.&.&.%.&.&.&.%.k %.&.&.k s s ",
"= - d $.%.&.&.%.- - $.&.$.k %.$.k &.k k &.&.&.k %.%.&.&.&.&.&.&.%.&.&.&.%.%.%.%.k k d $.%.&.&.%.- - $.&.$.k &.k k &.$.$.&.&.&.%.%.%.&.&.&.&.&.&.%.&.&.&.%.$.k s ",
"- d $.&.&.&.%.%.&.%.p &.$.$.$.&.&.k s s k &.&.k s k %.%.%.&.&.k k k k k k %.%.&.%.$.%.%.&.&.%.%.&.d $.%.$.$.$.&.&.%.- - k &.&.p j k %.&.&.&.&.k k k %.k k %.k k ",
"- $.&.$.&.&.%.%.&.&.&.$.$.$.&.&.%.j s s j k k s s k k k k k %.%.%.%.%.%.&.&.&.&.%.%.&.$.%.&.&.%.&.&.%.%.%.%.%.&.&.d - - - k $.p j j k k k k %.%.%.k %.&.&.&.k d ",
"- d %.d d &.%.%.&.&.%.j $.$.&.&.&.k d d j j j j k k k k k k %.&.&.&.&.&.&.&.&.&.$.%.%.j k &.%.%.&.&.%.k $.%.&.&.&.j d d - - k j k k k k j k $.&.&.&.&.&.&.&.k d ",
"d d d - d $.d $.%.j - p - j $.&.&.%.$.k k %.&.&.&.%.%.&.&.&.&.&.&.&.&.k j &.&.&.&.k k s j k k k %.p - - - j %.&.&.&.%.d $.%.&.&.%.&.%.&.&.&.&.&.&.&.&.d j $.$.d ",
"s d $.d s d k k k j j k - - $.&.&.&.%.$.k k %.&.&.&.&.&.k k %.&.k k $.k j j $.&.%.$.$.j s k k k k d p $.- - $.%.&.&.%.%.k $.%.&.&.&.&.%.$.$.&.&.$.d $.d s j d d ",
"- d &.$.k k k d j j k $.j - $.&.&.%.%.&.k k $.&.&.&.&.%.k k %.%.k s k k j s k %.$.%.%.$.k k k k p p k %.- - $.&.&.%.%.%.k j $.&.&.&.&.%.k k $.%.d s $.$.k s s d ",
"j k $.&.&.&.%.$.$.j j - = j &.%.$.$.%.&.&.&.&.$.k &.%.&.&.&.&.&.%.&.&.&.&.k $.&.&.$.$.&.&.&.&.$.%.- - - - - &.&.$.%.%.&.&.&.&.$.$.%.%.&.&.&.&.&.&.&.&.&.&.k k s ",
"d k %.%.&.%.%.&.&.%.k k k %.&.&.%.k $.%.%.%.$.%.%.%.k %.%.%.%.%.%.%.%.&.&.&.&.&.&.%.%.$.k j l k &.%.k k k %.&.&.%.j $.%.%.%.$.%.%.%.$.$.%.%.%.&.&.%.$.&.&.$.d d ",
"s d &.%.%.%.%.%.&.&.&.&.&.&.&.&.%.j j $.k s s &.&.k k d d d d d k d d %.&.$.%.&.$.$.%.k t < 1 j &.&.&.&.&.&.&.&.%.d k $.k s s &.&.$.k k p j k k d s j %.&.$.k d ",
"d d k %.%.&.%.k $.%.&.&.&.&.%.$.k k j s s k %.&.k j s k d d d s s j k k $.$.k %.&.$.k s < + O 1 k &.&.&.&.&.&.$.k j j s s j %.&.%.p j j k k j j s s k $.%.%.d s ",
"s d $.%.%.$.$.k k k $.j %.&.%.k k $.k j k k &.&.k s s s % % % $ $ 1 2 * t k k $.%.%.$.d 6 O ; 2 j $.k k %.&.%.k k %.k j k $.&.&.$.- p j k j - - = s %.$.d $.d - ",
"- k %.&.k - j k %.$.j p $.&.%.%.%.&.%.%.&.&.&.&.%.d s 2 # > . .   . . O : t k $.k $.%.%.= $ % y %.$.l j k &.%.%.%.&.%.%.&.&.&.&.%.j - - - - - - - s %.%.%.$.d s ",
"s k %.$.d - - d &.&.&.%.%.%.$.%.&.&.&.&.&.&.%.&.&.k * f ( ( ^ A m B V Z n < g $.j g y = * & & j &.&.%.%.&.%.k %.&.&.&.&.&.&.%.&.&.%.j - - - j k k k d %.%.&.$.s ",
"s k %.$.k k - d &.&.%.&.&.%.$.&.&.&.&.&.&.k k %.k s g _ @X@X@.A V ' :.Z Z 0 : 2 < < : ; > : % - &.&.&.%.&.%.%.%.&.&.&.&.&.$.k %.&.&.$.d j k %.%.%.%.%.$.$.%.$.d ",
"s k &.&.&.&.%.&.&.%.k j %.&.&.&.&.%.%.%.$.j s k d 2 _ *.gX;X@X^ / <.2.1.T N + X X X + + + + , g %.k k s %.%.%.&.&.%.%.%.$.k j $.&.&.%.&.&.&.&.&.&.&.&.$.k $.d s ",
"= s $.&.%.d &.&.%.%.k d %.&.&.&.$.$.j k &.%.s * x ` %XhXlX;X@Xf I >.c.2.>.E Y Z Y Y Y ' ] E K , 1 $ $ & k &.&.&.k $.k d %.&.&.j k &.&.&.&.&.&.&.&.%.k $.$.k - * ",
"- d $.&.%.d $.%.%.%.j j k %.%.$.k k k $.&.$.* $ ( *.jXlXlX;X*.f I ~ 2.a.u.u.e.6.6.e.p.s.b.z.] K O . . < p %.%.$.k k k k %.&.$.k $.&.&.&.&.$.%.&.%.%.$.%.&.k - = ",
"s $.&.&.%.d d %.&.k p j d d j j k %.&.&.$.= $ : _ &XjXlXhX-X*.| / T :.u.z.x.z.s.z.!./.).].).s.] B Z V @ 1 = - d k %.&.&.%.d - %.&.$.&.&.&.d d %.%.&.&.&.&.%.k d ",
"- d %.%.$.d $.$.$.$.k - $.%.k k $.%.$.d $.d s g x | $X%X#X%X&X%X@./ Y <.v.c.v.x.!././.).`.).!.2.} <.>.I O $ s s $.$.k k k $.%.%.k k %.&.&.k k %.&.&.%.k k &.$.d ",
"- d $.$.$.$.&.%.$.%.&.j $.&.&.%.%.&.k d $.&.&.s s f _ ` ( *.*XgX$X| / ] s.z.z.!././.)././.)././.!./.!.e.P 7 2 s $.&.k k $.&.&.k j k $.&.&.%.$.&.&.%.$.s j %.$.s ",
"- s k k %.&.&.&.&.&.&.&.k j &.%.%.&.%.$.%.%.k & < 8 K I n { @X*X-X*.*.` } r.a.~./.).)./.!.!./.`.|.|.|./.<.V . < s %.&.$.k %.k d k $.k $.&.&.%.&.%.$.k $.%.&.d = ",
"- - d - k %.%.%.&.&.&.$.k k &.&.%.&.%.%.&.d r , J / ! W R / ` *.%X&X$X| ^ ] u.~./././.^.^./.`. X+X+XOX|.^.r.Y 9 2 k $.$.&.k k d k %.k k $.k k &.&.%.$.%.&.&.s * ",
"- - - - p %.$.%.&.&.%.d k %.%.&.%.$.$.k k g , m E y.z.a.1.T B ^ *.&X%X| ^ ] u.!.!.^.^./.).).}.OX+XpXeX7X X_.Q.] 0 g s d &.&.k k $.%.$.k j j k &.&.&.%.%.&.&.d * ",
"d - - s - - d %.%.&.%.$.k %.%.k k d d s 2 q I E y.z.c.i.1.R Y I | | *.| } r.i.z.x.x.~.^.}. XqXyXuXpXfXfXsXtX6X_.} 0 : s &.&.%.%.$.&.&.&.$.%.&.k s d &.&.&.$.k s ",
"d s d d $.k $.$.$.$.$.$.$.k %.k k k k k $ @ I ! y.z.a.y.<.;.W E / ) ` r.s.s.a.a.i.a.!.`. X9XiXpXpXfXkXkXkXfXsX6X_.B . % k &.%.&.%.%.&.&.$.&.&.k s s %.%.d d d d ",
"- d $.&.%.&.$.k k d k $.%.%.k %.&.&.&.k % 9 J Y >.y.y.<.>.;.;.Q Y K T r.c.c.a.u.y.s./.}.qXpXdXdXpXdXfXkXfXkXfX9X}.' @ $ s k %.&.&.$.$.%.$.$.%.&.d d %.d s d d s ",
"& s %.$.$.%.%.%.%.k k &.%.&.&.%.&.%.&.&.d g 1 @ V E 5.:.:.:.:.;.E E >.y.s.s.s.u.u.m.[.0XuXiXpXpXiXiXaXaXaXdXdX9X].] J & - $.%.&.&.$.&.&.$.k k %.%.%.&.k %.&.d s ",
"= s k k $.$.k k k k k %.%.$.%.k k k d s s % 9 m Z ] :.:.:.:.:.~ Q ;.<.u.s.s.s.z.!.].oXwXuXuXrX3X>X>X<X7XiXdXdXuX X(.} L t p k $.k k k k k k %.%.&.%.k s d &.d s ",
"d s s d $.k s = s s k $.k k j j k k j g $ > A D 4.5.;.Q ;.:.:.~ ;.;.1.u.s.u.s./.|.2X5XwXyXyX2XH.A.[ A.>X9XpXdXiXrXXX(.] 9 1 j j s s s s j %.&.&.&.$.s s s d d d ",
"- d %.&.%.$.s s d s s $.%.%.&.&.%.k j % ; m ' g.h.0.:.Q Q :.~ :.Q ;.6.i.s.u.x.].3XwXrX0X0X<X:XS. ... .F.<X9XiXiXrX4X{.n.P w j %.$.k k %.%.$.k &.%.$.%.d s $.s s ",
"- j $.$.%.&.%.$.$.k k $.&.&.&.%.&.%.$.= ; m 4.g.k.d.>.Q :.Q :.Q Q :.<.i.a.u.x.].oXeXwX5X1XY.F.+.O.O.o.C.F.>X3XrX3X:Xl.7.Y w k &.&.%.&.&.%.k d %.k k &.k d %.d s ",
"s s s j $.&.&.&.%.%.%.$.&.&.k k $.&.&.k ; n F w.h.d.;.Q Q :.:.:.Q :.<.i.i.u.x.].oXeXeX3XB.-.o.#.L.L.J.C.X.A.,X3X:XV.-.H P a k %.&.&.&.&.%.k d d s s &.&.&.d s d ",
"= = s k k k k k k j j j j k %.%.%.%.$.= ; m F 7.d.0.Q Q Q :.:.~ ~ :.:.6.e.2.x.].5XuXuX2Xj.S ..#.=X=XP.O. .X.{.2XY.X.S H P w p %.&.&.&.&.%.d s d g s k &.&.d s * ",
"= s j $.k s s j p - p - p j k %.%.%.d * ; n G w.g.p.;.Q Q :.:.~ ~ ~ :.>.>.<.s.].oXeXyX3XG.X...Z.P.=XP.#. .V.{.2XY.X.S D P w p p k %.&.&.&.%.%.d s k %.&.%.s * & ",
"= s s d k s s = - - - - p - = j $.d &.k ; m G j.l.k.8.Q ;.Q Q :.:.~ ~ Q Q :.i.(.|.0XwX5X:XD.V.C.J.L.K.+.S.G..X5X,XD.q.G I w = = k &.&.&.&.&.&.&.&.%.&.&.%.s g s ",
"= = s d k d s = = s s - s k j $.&.$.&.k # m q.I.R.T.d.,.Q W Q :.:.:.~ Q ;.:.6.s.(.|.0X0X3X:XF.C.....o.S.H.,X5X5X4X,XM.9.I 6 j $.&.&.&.&.%.$.%.%.k d k $.%.$.d s ",
"s s d $.%.$.s s j k k j k %.%.&.&.%.&.k # n [ D.W.U.k.8.5.~ W ;.~ ~ ~ ~ ~ ~ :.<.p.^.|.7XwX0X,XF. . .X.H.2X8XwXwX0X0X{.n.P 3 j &.&.&.&.%.k k %.%.s = s k &.%.k d ",
"s s s %.&.&.k k $.&.&.&.%.%.&.&.&.$.%.%.& 3 ^ [ j.l.k.h.d.5.:.Q Q Q :.:.:.W Q Q ~ e.x.}.OXeX5X,XG.f.G.,X0XyXeXwX0X0XXXn.P 3 j k %.&.&.$.d k &.&.s g j k %.s s s ",
"s s d $.&.&.&.$.j j %.&.$.k &.%.k &.&.%.k l 6 m D w.l.l.g.d.5.;.Q Q :.:.Q Q ~ Q ~ W :.s.].7X0X0X2X1X2X5X0XwXwXwX+XXX'.p.P 5 k $.%.&.&.&.$.&.&.&.%.d %.&.&.k d s ",
"* s d d %.&.&.%.s p k &.$.k &.k k %.$.k %.k r   N q.I.T.l.h.8.,.:.~ Q Q Q Q Q Q ~ R T :.b.]..XoXoX+X0XoXXXXX5X5X5X{.B.5.B 5 k k %.%.&.&.&.&.&.%.%.%.&.&.%.$.d s ",
"s d %.%.&.&.%.%.&.$.k &.%.%.%.%.&.$.s = k l 5   D f.W.W.N.g.d.d.5.Q R Q Q Q Q Q Q W W ;.1.s.z.v./.|..X[.(.(.|.2X1XB.h.3.n < k p s k %.&.&.&.&.%.d d $.k $.%.k d ",
"s s %.%.%.&.&.%.&.&.%.k %.%.%.&.&.s s s = 6 9 o A q.U.E.T.N.l.k.d.8.>.;.,.>.,.:.Q Q Q W Q Q R Q u.'.[.(.5.>.b.'.B.k.4.Z o < p p s k k k k d %.%.%.%.%.&.&.%.$.d ",
"s k %.j k &.%.%.%.&.%.k k %.%.&.&.k s j y 6 w 9 @ [ f.G.U.R.T.l.k.d.0.9.8.9.9.5.:.Q Q Q R T C T ;.'.{.b.W N Y 3.8.3.D m 9 % l s j k k k j k $.&.%.&.&.%.%.&.$.d ",
"s k j - j $.k $.%.j - p - j %.&.&.%.$.j y i z h f @ A q.U.W.T.k.h.h.g.g.k.l.g.9.5.;.Q ;.;.Q R W 5.'.].b.Z c v M M M m q g j $.$.&.%.&.&.&.&.&.&.&.&.&.$.d $.$.d ",
"s d $.j p j j k k j j k p - $.&.&.&.&.k y u z h u < @ D f.D.f.4.3.4.j.I.R.T.N.h.d.8.8.0.0.0.5.<.2.m.(.n.W M v c X + 0 e g j k &.&.&.&.&.k $.%.&.$.d $.d s d d d ",
"- k &.$.k k k j j j k %.j - $.&.&.%.%.$.y 6 a h i u w ^ D H D Z M D w.U.W.R.N.h.h.h.h.h.h.h.d.5.>.y.p.y.:.Z M X X 9 z z g j $.%.&.&.&.%.k k %.%.d d $.$.d - s d ",
"d k $.&.&.&.%.%.$.j s - = d &.%.$.$.&.%.k l i u u i u w 0 v + n o + H D.U.G.g.7.w.w.w.w.w.d.4.3.R R R R R Y N n 9 6 g g l k %.k k &.%.&.&.&.&.&.&.&.&.&.%.$.d d ",
"s k %.&.&.%.%.&.&.%.k k k $.&.&.%.j $.%.l j i i i i i 5 , ; ; , ; > ^ ' 4.=.F F F G G G G =.Z Z N N M N Z V K q z 6 g l j k k %.&.$.k %.$.$.&.$.&.%.$.&.&.%.d d ",
"s $.&.%.$.%.%.&.&.&.&.&.&.&.&.&.%.d j $.j - y g u u u 5 4 5 6 6 r 6 9 m b M M v b b b b M M b b v b M v b n q z z 2 * s j k k &.&.k k j j j k k d d d %.&.%.d d ",
"s d d $.%.&.%.k $.%.&.&.&.&.%.$.k k j s s k k %.g 5 e e u 6 u u r 6 3 9 @ O @ @ 8 8 @ @ 8 0 0 @ @ 0 0 @ K q e z t t g l j k k &.$.j j k k k k j s s d $.%.%.d - ",
"s d k %.%.$.$.k k k k k %.&.%.k l %.k d j %.&.&.j 1 6 6 u 6 6 2 5 6 u 5 3 3 5 4 6 6 4 w 5 < 4 4 4 4 4 9 w e z u y l d d k $.&.&.$.s s j j j s - = - $.$.$.$.d - ",
"- d &.&.k s j k %.$.k p k %.%.%.%.&.%.%.&.&.%.&.$.y r r 1 5 5 6 4 6 i i i i i i u h h g i 6 6 u i u u r j j g g j &.&.$.&.&.%.&.%.j s p - p - p - d %.$.$.$.d - ",
"s k %.$.d - - j &.&.%.%.&.%.k %.&.&.&.&.&.&.%.&.%.$.y * t r 2 e 6 e 6 z u u h z u z h u 6 5 6 6 z z h i k k j k $.&.&.&.&.&.%.&.&.$.j = - - j k $.d $.$.%.%.$.d ",
"s d &.$.k j s $.&.&.&.&.&.%.%.&.&.&.&.&.&.%.d %.&.&.d d d j y i z h g u i i h g h g h g u i 6 u h h h l k %.$.%.&.&.&.&.&.$.k %.&.&.$.k d k %.%.%.%.$.$.%.%.$.d ",
"- $.&.&.&.&.%.&.&.$.k j $.&.&.&.&.%.%.%.$.j - %.&.&.%.&.&.%.$.l l k l j = g j j j g j l k l j j l j y = k &.&.&.&.%.$.$.$.k d $.%.&.&.&.&.&.&.&.&.&.&.%.$.$.d - ",
"- - $.&.%.k %.&.%.$.k j $.&.&.&.$.k k k &.&.&.d k &.&.&.&.%.%.%.%.d d k d s g s j k k $.k s $.%.l k j - %.&.&.%.$.$.k k %.&.%.k $.&.&.&.&.&.&.&.&.%.$.$.$.d - = ",
"- - %.&.%.d $.%.&.$.k s $.%.%.$.k $.k k &.&.%.d $.&.&.&.&.%.$.&.&.$.d &.&.$.k k $.$.%.&.$.d $.%.%.$.k d k %.&.%.k k k $.&.%.$.d k &.&.&.&.%.$.%.%.$.$.%.%.$.- = ",
"s $.&.&.%.d d $.&.k s d j d s d k %.&.&.$.- - %.&.$.&.&.&.k j %.&.&.&.&.&.%.&.&.&.&.&.&.%.k d %.&.$.s d j s j l k %.&.&.$.d s %.&.$.&.&.&.k d %.%.&.&.&.&.$.$.- ",
"- d %.%.$.k $.$.$.$.d s $.%.k k $.%.$.k $.$.%.%.k j %.&.&.$.k %.&.&.%.d d &.&.&.%.$.%.%.$.k $.$.$.$.k - $.%.$.k $.%.$.k k $.%.%.k k %.&.&.k k %.&.&.%.d $.&.$.$.",
"- d $.$.$.$.&.%.k %.%.k $.&.&.%.%.&.k d d &.&.$.j k $.&.&.%.$.&.&.%.$.s d &.&.&.$.$.k $.$.$.&.%.$.%.%.k $.&.&.$.%.&.k s k &.&.$.j k $.&.&.%.%.&.&.%.%.- - &.$.- ",
"- s d d %.&.&.&.&.&.&.&.k k &.%.$.&.%.$.%.$.k s k $.$.%.&.%.%.&.%.$.$.$.%.&.$.k $.k k k $.&.&.&.&.&.&.&.k d &.%.$.&.&.$.$.$.k s d $.$.%.&.&.%.&.$.$.$.$.&.&.- = ",
"- s s d k %.%.&.&.&.&.$.j k &.&.&.&.%.%.&.%.k - k %.d k $.k k &.&.%.$.$.&.&.d s $.k s s k &.%.%.&.&.&.$.d d &.&.&.&.%.%.&.%.k s k %.k j k k $.&.&.%.$.$.&.&.- & ",
"- - - - d d $.$.&.&.%.d $.$.&.&.%.%.$.$.&.&.%.k $.%.$.j d j $.%.&.&.$.%.&.&.k k %.k s s j k k $.&.&.%.d $.$.&.&.&.$.$.$.&.&.$.k $.&.$.j j k $.%.&.&.$.&.&.&.- = ",
"d s - s - d d $.%.&.%.d d $.%.k j k d k &.&.&.$.%.&.&.&.$.%.%.$.s d &.&.&.$.%.&.&.k s s j s k %.%.&.$.$.d $.&.d j d j k &.&.%.$.$.&.&.&.$.&.%.$.d d &.&.&.$.$.- ",
"= - - s d - d d d d d d d d d d j s s k j k k $.k k %.$.j $.$.d - = k k s s s k k s s s s j s s - - - d d d d d j s k k k k k k k k $.k j k $.j = - d d - - - = ",
"& & = - s d - = = * = - s - = s k s d s = - - j d - - - p - - d = * s * & * = s s = = s s s s = - = - - s - - - d d s s = = s k d - - - s - s d = * - = & * * & "
};
