/* XPM */
static char *Group_9_4__resized[] = {
/* columns rows colors chars-per-pixel */
"80 80 230 2 ",
"   c #293928",
".  c #2A2C37",
"X  c #2B3534",
"o  c #2C3A34",
"O  c #2D373B",
"+  c #393030",
"@  c #35393A",
"#  c #493C31",
"$  c #2E4C1C",
"%  c #34541E",
"&  c #345A1D",
"*  c #385D1D",
"=  c #37631B",
"-  c #3A661C",
";  c #3D6D1D",
":  c #3F711F",
">  c #2C4426",
",  c #2E432C",
"<  c #33492B",
"1  c #335521",
"2  c #365C22",
"3  c #3A5C25",
"4  c #34542C",
"5  c #375A2A",
"6  c #395C2B",
"7  c #2E4231",
"8  c #324434",
"9  c #334738",
"0  c #385736",
"q  c #376020",
"w  c #3A6424",
"e  c #3D6A23",
"r  c #3D642C",
"t  c #3E692A",
"y  c #3F7120",
"u  c #3E6330",
"i  c #406E1F",
"p  c #41751F",
"a  c #43781F",
"s  c #4C403C",
"d  c #406C25",
"f  c #416C2C",
"g  c #417620",
"h  c #457C21",
"j  c #43742A",
"k  c #416733",
"l  c #416930",
"z  c #526038",
"x  c #2B2A47",
"c  c #2E3546",
"v  c #313445",
"b  c #32374C",
"n  c #352B53",
"m  c #2F355B",
"M  c #383756",
"N  c #32345B",
"B  c #2E3C61",
"V  c #3D3462",
"C  c #373C63",
"Z  c #433A4B",
"A  c #41365A",
"S  c #473867",
"D  c #413469",
"F  c #503A6E",
"G  c #4A3C79",
"H  c #64216A",
"J  c #374645",
"K  c #314B46",
"L  c #344456",
"P  c #3A5457",
"I  c #3F6446",
"U  c #2D446D",
"Y  c #384668",
"T  c #3D546A",
"R  c #334A74",
"E  c #384A76",
"W  c #3C5477",
"Q  c #35537C",
"!  c #39537E",
"~  c #434652",
"^  c #4B525A",
"/  c #585753",
"(  c #645B59",
")  c #5D6942",
"_  c #6A6458",
"`  c #736856",
"'  c #4E4C6C",
"]  c #48467B",
"[  c #435676",
"{  c #675575",
"}  c #51666C",
"|  c #6D6C69",
" . c #787169",
".. c #8D0E6C",
"X. c #B61972",
"o. c #912C7E",
"O. c #B03271",
"+. c #C62B75",
"@. c #A15C78",
"#. c #C74C77",
"$. c #478022",
"%. c #498423",
"&. c #4C8A24",
"*. c #8D8273",
"=. c #938A78",
"-. c #97937C",
";. c #573E82",
":. c #7A2C89",
">. c #375583",
",. c #3A5481",
"<. c #355A83",
"1. c #3C5A84",
"2. c #3D5E8B",
"3. c #3E618B",
"4. c #4C4686",
"5. c #524689",
"6. c #435884",
"7. c #43568B",
"8. c #435C8C",
"9. c #5C4994",
"0. c #5C4A94",
"q. c #4D5995",
"w. c #55579A",
"e. c #67458B",
"r. c #6E4A97",
"t. c #476588",
"y. c #43628D",
"u. c #536E8D",
"i. c #436592",
"p. c #456A94",
"a. c #4A6993",
"s. c #466D9A",
"d. c #496D9A",
"f. c #47709D",
"g. c #49719E",
"h. c #577B96",
"j. c #5A4CA1",
"k. c #5A5AA4",
"l. c #5C5BA5",
"z. c #704DA4",
"x. c #6657AA",
"c. c #6559AC",
"v. c #7B52A8",
"b. c #6A5BB4",
"n. c #745BB8",
"m. c #4A75A4",
"M. c #4E79A6",
"N. c #4E77A8",
"B. c #4D7CAA",
"V. c #5779A7",
"C. c #527DAA",
"Z. c #5179AD",
"A. c #6A60B3",
"S. c #7473C5",
"D. c #A91E82",
"F. c #893992",
"G. c #AB2F8F",
"H. c #86459A",
"J. c #A94E85",
"K. c #8252A4",
"L. c #9054B4",
"P. c #8E69AD",
"I. c #DD5385",
"U. c #E55895",
"Y. c #E5718A",
"T. c #EE6CA0",
"R. c #8D5DC1",
"E. c #8D6DCB",
"W. c #9561CB",
"Q. c #A366D7",
"!. c #789196",
"~. c #4F80AB",
"^. c #5883AC",
"/. c #4E82B2",
"(. c #5787B5",
"). c #5589B3",
"_. c #598EB9",
"`. c #5992BC",
"'. c #688AB0",
"]. c #6394B7",
"[. c #5C99C5",
"{. c #6E8ACA",
"}. c #6697C9",
"|. c #6C96D2",
" X c #70A6C8",
".X c #67A8D6",
"XX c #73ABD9",
"oX c #79B7D9",
"OX c #779DE0",
"+X c #73B2E7",
"@X c #7AB7EA",
"#X c #7DB9F2",
"$X c #73C3EC",
"%X c #8F988F",
"&X c #9A9487",
"*X c #A69C8E",
"=X c #B4AC93",
"-X c #B6AFA3",
";X c #FE95AB",
":X c #C6C2AB",
">X c #C8C5B5",
",X c #8884C7",
"<X c #8589D4",
"1X c #8898DF",
"2X c #8DADD6",
"3X c #85A6E7",
"4X c #91ACEA",
"5X c #89B7E9",
"6X c #84BBF4",
"7X c #83C7EA",
"8X c #93D0EF",
"9X c #87C7F8",
"0X c #8BCCFC",
"qX c #87D6F6",
"wX c #8CD3FD",
"eX c #8CDCFD",
"rX c #96DBF7",
"tX c #A1D3E5",
"yX c #8EE2FC",
"uX c #95E5FC",
"iX c #9CECFB",
"pX c #9FF4FA",
"aX c #A7ECFA",
"sX c #A6F7FD",
"dX c #B2F8FE",
"fX c #D3CEC1",
"gX c #E6E3D9",
"hX c #C7FBFD",
"jX c #D4FBFE",
"kX c #F8F7F1",
/* pixels */
"$ = p : : : : p p ; ; p p p p 1   > * p : ; : h a a a a : ; ; : : p a : : h p ; = ; : ; ; p : : p ; ; p a a a a : : a p ; ; : a h p p p p ; ; ; : p g p p a ; & ",
"- ; : p p a : : : : : a p p w I P I 0 - ; ; : a : : : : : g g h $.g p ; : a $.h a p : p p p : : p : : a g g : : : a : : : : p a g ; p ; ; g h h h g p ; p a p - ",
"a a p a h h p ; p a a $.y e 0 } ^.^.T 4 = : h g y y ; : g $.&.&.&.$.p ; : h %.&.&.$.g h $.h : : : a a $.h h h y g g : : : g h g p i p i g %.&.&.&.h p : p h a a ",
"p a %.&.&.h p p a p a h e 0 W ].7XoX~.P 4 : &.%.$.$.$.%.%.$.$.%.%.%.%.a a $.%.$.%.%.%.%.%.%.p p a p a $.%.&.&.&.&.$.g : $.%.&.%.%.h %.h %.h %.%.%.%.%.a p %.a ; ",
"p p %.%.%.%.%.%.$.h h $.y 0 T ].$X2Xh.K r h &.&.&.&.&.&.%.$.$.$.h h %.$.h $.$.%.$.$.$.$.%.&.%.$.%.a h %.&.&.&.%.&.%.%.$.&.&.&.&.&.&.&.&.&.h h h h h &.h h %.h p ",
"p p p a %.&.&.&.&.$.&.&.h t I } '.^.} r y %.&.&.&.&.&.%.$.h g h y y %.&.%.h %.&.%.h p g $.&.&.&.&.%.$.%.&.&.$.h $.&.&.&.&.&.&.&.&.&.&.&.h h h h ; g %.&.$.h p p ",
"; i p a a a %.h y y h y y y y I P P u e y g h %.%.&.&.&.%.a g g : ; $.&.&.h p g h h : h $.h $.h g h a g g h $.%.%.%.$.g h h $.%.%.&.&.&.&.h g g : p h &.&.h i - ",
"; ; p a a a p p y y y y y y y t 4 4 w h h g g g h &.&.&.&.$.$.$.h h %.&.&.g : p $.g p $.h : : : : : : : : y h %.&.$.h h g h y a h &.&.&.&.h %.h h p %.&.&.g ; = ",
": : : $.h : : : y : : : : : : y : y $.&.&.h g : p &.&.&.&.&.&.&.%.%.%.&.%.e g h h h g $.h : : : : : : : : : e h $.h %.&.&.$.: : h %.&.&.&.&.&.&.%.%.&.&.%.; ; ; ",
": : : $.h h : : : : : : : h y h %.a %.&.&.%.h %.&.&.&.&.&.h &.%.h p g %.%.%.%.&.h g p h h g : : : y : : : $.: $.%.%.&.&.&.%.h %.&.&.&.&.%.%.%.&.h g g %.%.%.h p ",
": : : %.%.$.y : h y $.h h $.%.&.&.%.&.&.&.%.%.&.&.&.&.&.a a %.%.y ; ; h &.%.%.&.%.g p $.&.$.g : y $.h : $.$.%.&.&.%.&.&.&.$.%.&.&.&.&.%.h h $.&.y ; ; h &.%.a a ",
": : : &.&.&.$.y %.&.&.&.$.&.&.&.&.%.%.&.h %.%.h h &.&.$.p &.&.&.g ; g %.&.g h &.&.h p &.&.&.$.g %.&.&.&.$.&.&.&.&.$.&.&.y $.&.$.%.&.&.%.p h &.&.g ; : %.&.g p p ",
": : : %.&.&.&.$.y h &.&.$.$.&.$.h &.&.&.&.&.&.$.&.&.&.&.%.&.&.&.%.h %.&.&.h h %.$.h a h &.&.&.$.: $.%.&.$.h &.$.h %.&.&.&.&.&.%.%.&.&.&.%.&.&.&.%.$.%.&.&.h p p ",
": : a $.%.&.&.%.: y y &.$.h &.h h &.h h &.&.&.$.$.&.&.&.&.&.&.&.%.%.&.&.&.h %.h $.g h h %.&.&.%.: : $.&.$.h &.h h &.$.$.&.&.&.$.%.%.&.&.&.&.&.&.%.%.&.&.%.h p p ",
": : %.&.&.&.%.%.&.$.h &.$.$.$.&.&.h p i h &.&.h p h $.&.%.&.&.a h h h %.h %.&.&.%.%.$.%.&.&.%.%.&.a $.%.$.$.%.&.&.$.y : h &.&.h g h %.%.&.&.&.h h h $.h %.%.h a ",
": $.&.$.&.&.%.&.&.&.&.$.$.$.&.&.&.h p i g g h i p h h h a %.%.%.%.%.%.%.&.&.&.&.%.%.&.$.%.&.&.%.&.&.&.$.%.%.%.&.&.a : : y g $.: y h h h h h %.%.%.%.%.%.%.&.%.a ",
": $.&.a a &.%.%.&.&.%.g $.$.%.&.&.g a p p p g g h h h h g h %.&.&.&.&.&.&.&.&.&.h %.%.g h &.%.&.&.&.%.h $.%.&.&.&.g a a : : h g g h h g g $.$.&.&.&.&.&.&.&.h p ",
"a : a : a $.a $.%.g : : : g %.&.&.&.%.a $.%.&.&.%.%.%.&.&.&.&.&.&.&.&.h p $.&.&.&.%.g p p h h h %.: : : : y %.&.&.&.%.a $.%.&.&.&.%.&.&.&.&.&.&.&.&.&.a g %.%.p ",
": a $.: a a a a h g g h : : $.&.&.&.%.%.h h %.&.&.&.&.&.%.%.%.&.h h $.h p g &.&.&.h h g g g g h $.y y $.: : $.&.&.&.%.$.h h %.&.&.&.&.&.$.%.%.&.$.a %.a p g a a ",
": $.&.$.h a $.a g g h $.g : $.&.&.%.&.%.h h $.&.&.&.&.%.g h %.%.p p h h h p a &.h &.&.%.h h h h y y h %.: : $.&.&.%.&.%.h h $.&.&.&.&.%.a h %.%.a a a $.h p p p ",
"h h $.%.&.&.%.$.$.a : : e g &.%.%.$.%.&.&.&.&.$.h %.%.%.&.&.&.&.&.&.&.&.&.a $.&.&.$.%.&.&.&.%.h %.h : : : : &.%.$.%.%.&.&.&.&.$.$.%.%.&.&.&.&.&.&.&.&.&.%.h h a ",
": h %.&.&.%.%.&.&.%.h h h %.&.&.%.h $.%.%.%.$.%.%.%.%.h e 3 3 - h $.$.&.&.&.&.&.&.&.$.&.&.&.%.&.&.%.$.h h %.&.&.%.g $.&.%.%.$.%.%.$.$.$.%.%.%.&.&.%.%.&.&.%.a a ",
": $.&.%.%.$.%.&.&.&.&.&.&.&.&.&.%.p h $.g g p &.%.h h q , X X > 3 p a $.&.$.&.&.$.$.&.$.%.h %.&.&.&.&.&.&.&.&.&.%.p g $.h : : &.&.$.$.g : y $.h a g a %.&.h h p ",
"p a h $.&.&.$.h $.&.&.&.&.&.%.$.h g g p g g %.&.%.; 2 > . M S L 9 3 h $.$.$.h $.&.&.h $.&.&.%.h h %.&.&.&.&.&.$.h h g g p h %.&.&.y y h h h y h : p h %.%.%.a p ",
": a %.&.%.%.h h $.$.h h %.&.%.$.h %.h g a h &.&.h &   + + ~ 7.8.P 9 e g %.%.%.%.&.%.h &.&.%.h h h $.$.g $.&.%.$.h $.h g h %.&.&.%.: : g h g y y : : $.$.$.%.a : ",
": a %.&.$.: y $.$.$.g y $.%.%.$.%.&.%.%.&.&.&.&.d > @ @ s } h.N.1.L > - h g h h h h %.h g d p a %.$.y y $.&.%.$.%.&.%.%.&.&.%.&.%.g y : : : : : : : %.%.$.%.a : ",
": $.%.$.: : : a &.&.&.%.&.%.h %.&.&.&.&.&.&.&.&.i > Z ( =.%X!.u.[ M .   2 & & 1 & & % % $ $ % p &.&.&.%.%.%.h %.&.&.&.&.&.&.%.&.&.%.: : : : g a a $.a %.%.%.$.: ",
"a a %.$.$.a : a &.&.&.%.&.%.$.&.&.&.&.&.&.%.a a * > ( &X>X>X%X( M n . . o 8 8 @ o @ o X O X > w &.&.$.%.&.%.$.&.&.&.&.&.&.%.h %.&.&.$.a g h %.%.%.%.%.$.$.&.$.a ",
": a &.&.&.&.%.&.&.$.h a $.&.&.&.&.%.%.%.$.h p a i z =.fXkXfX-.# . x m B C C C M C Y C Y Y Y J 5 y ; ; ; %.&.&.&.&.%.%.%.$.g g %.&.&.&.%.&.&.&.&.&.&.&.%.h $.a : ",
": a %.&.%.a &.&.%.$.$.g %.&.&.&.%.$.h g %.$.i * ) -.fXkXkXfX*.+ . B >.>.6.6.6.6.[ 6.y.a.d.i.T 9       % y &.&.&.$.$.g a %.&.%.h h &.&.&.&.&.&.&.&.%.a $.%.a : - ",
": a %.&.$.p $.%.%.$.g g h &.%.$.h h h $.&.a = < ` -XgXkXgX:X*./ A Y >.i.g.f.s.s.d.g.~.).`.(.t.Y x x v , w $.&.$.h h a $.%.&.$.h $.&.&.&.%.$.$.&.&.$.$.&.&.a : : ",
"p a &.&.%.$.a $.&.$.y g a g p a h $.&.&.%.; % + ( *X:X:X=X=X*X&X| ' Q s.B.B.B.B.~.).`.[.}.`.V.y.[ [ [ L , & : : h %.&.&.%.a : %.&.%.&.&.&.a a %.%.&.&.&.&.%.$.a ",
": h %.%.%.a $.$.$.$.h : $.%.h h h %.h h $.y 1 O A _ ` ` _ =.:X>X&X_ ^ t.m.m.m.~.)._.`.`.`.`.).^.~.).~.[ L   q g %.%.%.h h $.$.&.%.g &.&.&.h h %.&.&.%.a h &.%.a ",
": : $.$.$.$.%.%.$.&.%.g $.&.&.%.%.&.h g g r 0 L M b + + s @.=XfX=X=._ } t.i.g.~.)._._.).).~.`.[..X.X[.~.W b < e h %.h g h &.&.h g g $.&.&.%.$.%.&.&.$.a : &.$.: ",
": p h h %.&.&.&.&.&.&.&.g h &.%.%.&.%.g 1 9 Y 1.[ L x n ] { u.-.=X-X-. .^ [ s./.)._._.).~.~.`..X$X$X+X[.f.R b , & h &.h $.$.h g g %.$.%.&.&.%.&.%.$.h $.&.&.y : ",
": : a : h %.%.&.&.&.&.$.h h &.&.&.&.%.g 1 O Y 1.1.Y V G z.9.{ _ -.=X=X ./ [ s./.).).).).).`..X$X$XyXqX$X XV.[ O $ h &.%.&.$.h g h %.h h $.a $.&.&.%.$.$.&.&.: = ",
": : : : : %.h $.&.&.%.: h %.%.&.&.%.h g w 0 K T [ 4.4.j.b.j.;.~  .-.%X .} t.s.m.M.B./._.[.oX$XqXpXpXsXaXtX2Xu.M   p $.h &.&.h h $.%.$.g h g $.%.&.&.$.%.&.&.: ; ",
"a : : a : : h %.%.&.%.%.h $.%.$.g g g h &.h 5 c V 5.b.n.n.k.>.E ^ / ( } s.f.f.g.s.m.M.`.oXrXiXiXpXdXhXjXhXtX'.P > d p h &.&.&.%.$.&.&.&.$.%.%.h p a &.&.&.$.$.: ",
"a p a a h $.h $.$.$.$.$.$.$.$.h h h h &.&.: & X V 0.n.n.x.q.2.Q P ~ [ t.m.m.s.p.i.s.(. XqXiXpXsXsXdXdXjXhXaX2Xh.P 0 d p h %.%.&.%.%.&.%.%.%.&.%.p p &.%.a a a a ",
": a %.%.&.&.$.$.h a a %.%.%.h %.&.%.&.&.y : q X V 0.b.A.w.2.>.Q R Y W s.m.m.s.p.p.N.}.7XyXiXpXaXpXaXdXdXaXaXtXoXh.P 0 d h h $.&.&.%.$.%.$.%.%.%.a a %.a : a a : ",
"= : &.h %.%.%.%.%.h h %.&.&.&.%.%.&.&.&.h : 2 o V 0.c.l.8.Q Q Q Q >.2.s.g.g.g.g.^.}.+X0XuXiXrX8X2X2X2XtXiXsXsXtX X8.K 6 g $.%.&.&.%.&.%.%.h h %.%.%.%.%.h &.h ; ",
"; p h h h %.h a $.h h %.$.h $.h h h h h g ; 1 X V 0.c.l.6.Q Q ,.>.>.2.p.g.p.g.(.}.+X6XrXuXyX5X,XH.r.P.1XyXsXsXiX X8.K 1 y h h %.h h h h g $.%.%.&.%.h a h &.$.p ",
"a a p a $.h p ; a : g $.$.g h g g h g ; : ; 1 X V 0.c.l.7.Q Q ,.! >.2.s.d.p.M.}.@X0X0X0X8X9X,XK.....F.P.2XsXaX8X X[ K $ : g h g : : : i g h &.&.%.%.p ; p h a a ",
": a %.&.%.$.p p g p a $.%.&.&.&.%.h g e h p 3 o A 0.b.l.7.Q Q ,.! >.2.s.g.p.M.}.6XwXrX6X3X,XP.J.O.X.G.J.P.2XrX9X}.1.K % g %.&.%.%.h %.h %.%.%.%.%.%.%.p p %.a : ",
": g %.h %.&.%.%.$.h h $.&.&.&.%.%.&.$.%.&.h q o D 0.c.l.7.Q Q ,.! ! 2.p.d.p.M.}.6XeXrX5XS.F.O.#.Y.U.I.D.o.L.2X6X}.6.J 1 h &.&.&.%.&.&.&.&.h h h h h &.%.h %.p p ",
"p : p g $.&.&.%.&.%.%.$.&.&.h h $.&.&.&.&.a 3 o M 0.c.l.7.Q Q ! ! ! 1.i.p.i.M.}.6XeXyX3Xv...+.#.;X;XT.+...F.E.6X|.] b # j &.&.&.&.&.&.&.%.h g h ; g %.&.%.h a p ",
"; : p h h h h h h g g g g h %.&.%.%.h g g ; 2 X D 0.c.l.7.Q Q ,.! ! >.1.2.3.M.}.9XeXyX3Xv...X.I.;X;X;X+...F.<X3X,XH n Z 0 t g %.&.&.&.&.%.h p h ; i h &.&.h i - ",
"; ; p %.h p p g y : : y : y g %.&.$.h h h - 1 X V 0.c.l.7.! Q Q >.! E >.,.<.m.}.+XwXeX5XS.F.D.G.U.Y.Y.#.F.K.3X4X<XF.:.F L 4 : p h &.&.&.&.h h %.h g %.&.%.p ; = ",
"; p p a a p : : : : p : : : : g %.a &.&.&.: 1 X V 0.c.k.7.Q Q ,.,.! E ! ! ! i.C.}.@X0X0X4XE.H.G.X.+.#.J.P.<X5X6X4XE.P.0.L 0 w e h &.&.&.&.&.&.&.&.$.&.&.&.i ; ; ",
"; ; a a h a : ; : y : : g h g $.%.$.&.&.&.a 1 X V 0.c.k.7.,.Q ! ! >.>.! ! ! ,.2.d._.XX9XrX5X,XH.....o.P.1X9X0X0X8X5X|.l.L 4 y $.&.&.&.&.&.$.&.$.a p h $.&.$.a p ",
"; p a %.%.%.p p g h h g $.$.%.&.&.%.&.&.&.p 2 X V 0.c.k.1.Q Q Q ,.,.>.! ! ! ! ! <.d.(.+XqXeX5XE.H.:.K.<X9XuXwXwXwX$X+XN.L 4 h %.&.&.&.&.h h $.&.p ; d a &.$.h a ",
"p p p &.&.&.h a %.%.&.&.%.%.&.&.&.$.&.&.h : 2 o V 0.l.w.>.Q Q >.,.! ! ! ! ! Q ! ,.,.8.(.XXwX0X4X1X<X1X6XwXeXwX0X0X#X|.m.L 4 h $.$.&.&.$.p h &.&.p ; p &.&.p p p ",
"p i a %.&.&.&.$.g g %.&.$.h &.$.$.&.&.&.&.a 2 X V z.n.S.w.>.Q Q Q ,.,.,.>.! ! ! ! R R 8.Z.XX5X#X#X#X6X#X#X@X6X9X6XOXS.8.K 4 $.$.$.&.&.&.$.&.&.&.%.h &.&.&.h p i ",
"; p a a %.&.&.%.p y h &.$.h %.$.a %.$.a &.h 2 X S v.W.R.x.q.>.R Q Q ,.! ,.,.,.! ! R U Q i.Z._.[..X+X#X+X}.}.+X5XOX{.l.] c 1 $.$.%.&.&.&.&.&.&.&.$.&.&.&.&.h h i ",
": a %.%.&.&.%.%.&.$.h &.$.$.%.&.&.%.p : g a q o S K.Q.Q.n.j.7.>.Q Q Q ,.Q ,.,.Q ,.! ! ! ,.,.Q >.s.[.|.Z.i.i.(.|.{.n.5.D o 2 $.y p h &.&.&.&.&.a h h $.h h $.h h ",
"; a &.%.&.&.%.%.&.&.%.%.$.%.%.&.&.a : ; : e 2 8 ~ { K.L.n.x.k.q.,.Q Q Q Q Q Q ! ! ,.,.! ! R U U 2.{.|.Z.E N W q.w.0.] M 7 q y y p p h h a h %.%.$.$.$.&.&.&.h h ",
": h %.g h &.%.%.&.&.%.h h %.%.&.%.h p p e 3 6 6 9 J F e.x.n.b.k.q.,.Q Q Q Q ! ! ! ,.,.Q Q Q U R i.{.|.V.C x n C C V n J 3 e p g h h h h g h %.&.&.&.&.&.&.%.$.a ",
"p h g : g h h $.%.y : y : g %.&.&.&.%.g e t l f 6 o n G n.E.E.n.c.q.7.7.8.7.7.6.,.Q Q Q Q Q R ! 8.Z.(.d.U n n n n x O 0 d h %.&.&.$.&.%.&.&.&.&.&.&.&.a a $.$.a ",
"p h $.g g g h h h g g h y : $.&.&.&.%.h w r l f 3 o x 5.R.Q.W.n.b.l.k.w.w.k.w.q.1.Q Q Q Q Q ! ,.8.d.p.8.E C 5.;.D x v 0 d g %.&.&.&.&.&.h %.&.&.$.a $.a : a a a ",
": h &.$.h h h g g g h %.y : $.&.&.%.%.%.e w r f 6 7 M :.R.Q.R.x.j.x.x.n.n.n.b.j.7.1.>.>.6.,.,.,.,.,.>.,.>.q.l.0.G n 9 0 w g h &.&.&.&.%.h h %.$.a p $.%.a : : a ",
"a h $.&.&.&.%.$.$.g p : : a &.%.%.h %.%.g f k r 6 4 J ' e.r.9.] G ;.z.W.Q.Q.S.c.k.k.k.k.l.k.w.7.>.Q >.<.<.8.0.4.A J 0 6 f h %.h %.%.%.&.&.&.&.&.&.&.&.&.%.$.a a ",
"p h %.&.&.%.%.&.&.%.h h h $.&.&.%.h h %.j k 6 r r r 6 J M N M n x M { L.Q.W.n.k.c.c.c.c.b.c.w.7.Q Q Q Q ! ! Y M ~ 0 0 k f g h %.%.%.h %.%.%.%.%.&.%.%.&.&.%.$.a ",
"p $.%.%.$.$.%.%.&.&.&.&.&.&.&.&.%.p a h ; q 3 k f f r < o X . X   . S H.L.z.j.;.9.9.9.9.9.9.5.E Y U R R U C c @ 4 3 r e w d g &.&.h h g g g a h a p p %.&.$.a a ",
"p a a %.&.&.%.$.$.%.&.&.&.&.%.$.h h p p p d d f k 0 6 3 4 4 7 4 < < ~ S G G D V D D D D D D V N N m n N m b J 4 6 3 w ; i g %.&.%.g p h h h a p p p a %.%.$.a : ",
"p a %.%.%.%.h h h h h h %.&.%.h h %.h h h $.h j t 6 5 6 6 5 5 6 6 5 4 v v v c c v c b v v v v v v v v v v v 0 u r t e y h %.&.&.h j p g g g g y : : %.$.$.$.a : ",
": a %.&.h p g h %.$.g g %.%.%.%.%.&.%.%.%.&.%.h d 6 6 0 6 6 6 3 3 r 5 4 7 7 < 9 < 8 9 < 8 7 7 8 < 8 9 o 9 0 u k j g h %.&.%.&.&.%.p : : : : : : : : %.%.$.$.$.: ",
"p a &.$.a : ; g &.&.&.%.%.&.h %.&.&.&.&.&.&.%.%.h f r 5 2 6 6 6 r 3 r 3 r r r r r 6 r 3 5 4 4 6 k l k r l k 6 f h %.&.&.&.&.%.%.&.%.g : : : h h $.a $.$.$.&.$.: ",
"p a %.%.h g p $.&.&.&.%.%.%.%.%.&.%.&.&.&.$.h &.%.%.e e e w r u u u r k t f f f l f l f r 3 6 r f l f j d h d j h %.&.&.%.%.h %.&.&.$.g a h $.%.%.%.$.$.$.&.a a ",
": $.&.&.&.&.&.%.&.$.h g $.&.&.&.&.%.%.%.$.h g $.%.%.h %.$.j j u k k k r r u u t u f k f f k t l k u k w a $.%.%.%.%.%.%.%.g p %.&.&.&.&.&.&.&.&.&.&.&.$.$.$.: : ",
": : $.&.%.h %.&.%.$.h g $.&.&.&.%.h h h %.%.%.g h &.&.&.%.$.g j f t w e t w w w e t f f e w f d e d w - a &.&.%.$.$.a h %.&.%.a h &.&.&.&.&.&.&.&.%.$.$.$.$.: ; ",
": : %.&.%.: $.%.&.$.h p $.%.%.$.h h h h &.%.%.h %.%.&.&.&.h h g g g j g h e e y d g g g j ; d h g d d i h %.&.h a $.h h &.%.%.a $.&.&.&.&.$.$.&.&.$.$.&.&.a : ; ",
": $.&.&.%.$.a $.&.$.: a a g p a h %.&.&.%.g y %.%.%.&.&.&.h g %.%.%.&.&.&.%.&.&.%.&.&.%.%.a a h &.h p p h a p h h %.&.&.%.p i %.%.$.&.&.&.h a $.%.%.&.&.&.%.$.: ",
": a &.%.$.h $.%.$.$.a p $.%.h h %.%.%.h $.$.%.%.$.h %.&.&.h h %.&.&.%.a a &.&.&.%.%.%.&.%.a h %.%.%.g p h %.$.h $.%.%.a %.%.%.&.$.h %.&.&.$.a %.&.&.%.a a &.%.$.",
": a a $.$.$.%.%.a &.%.h $.&.&.%.%.%.h p h &.&.h g h %.&.&.%.%.&.&.&.$.: a &.&.&.h h h h h %.&.%.h &.%.h $.&.&.%.%.%.h a h &.&.a y h $.&.&.%.%.&.&.%.%.: : &.$.: ",
": p a $.%.&.&.&.&.&.&.&.h a &.%.%.&.%.%.%.%.h p g $.h %.&.%.%.%.%.$.a $.%.&.$.h %.h h h %.&.&.&.&.&.&.&.g h &.%.$.&.&.%.%.h h p a %.$.%.&.%.%.&.%.$.$.$.&.&.a ; ",
": : p a h &.%.%.&.&.&.$.a h &.&.&.%.%.%.%.%.h g h %.h h $.h $.&.&.&.$.$.&.&.a a %.h p p h &.%.%.&.&.%.$.h h &.&.&.&.%.%.&.%.h p h %.h g $.h h &.&.%.$.$.&.&.: = ",
": : : : a a $.$.&.&.%.a a %.&.&.%.%.$.%.&.&.%.h %.%.%.g h h h %.&.&.$.%.&.&.$.g %.h p i g h h %.&.&.%.a a %.&.&.%.%.%.h &.&.$.a $.&.$.h g g h &.&.&.%.%.&.&.: - ",
"a p : a : a a $.%.&.%.$.a $.%.h g h p a &.&.&.$.%.&.&.&.h %.&.h p a &.&.&.%.%.%.&.a p p g p h %.%.&.%.$.h $.%.h g g g h &.&.%.%.%.%.&.%.$.&.%.$.: a &.&.%.%.$.: ",
"; : : : a : a a a : a a a a a a g p a h g h h h h h $.h h h h h : ; $.a : : h %.h p ; p g p p p a a a a a a a a a p h h h h h $.h h $.$.g $.h h : : a a : : : : ",
"= = ; : : a : : ; - ; : p : : : a p a p ; ; p g g : y y y y y h ; - : ; = - ; p p ; ; p p p p i ; - - : p : ; : g p a p ; ; p g a : : : p : p g ; - : ; = - - = "
};
