/* XPM */
static char *Group_9_5__resized[] = {
/* columns rows colors chars-per-pixel */
"80 80 234 2 ",
"   c #2A3519",
".  c #1D2D2C",
"X  c #2C2B29",
"o  c #26372D",
"O  c #2B3B2C",
"+  c #2D3736",
"@  c #323D3A",
"#  c #2D481A",
"$  c #304B18",
"%  c #31551D",
"&  c #345B1C",
"*  c #37631B",
"=  c #3A661D",
"-  c #3D6D1D",
";  c #3F711F",
":  c #2E452E",
">  c #2F4B2B",
",  c #314628",
"<  c #324D2B",
"1  c #335425",
"2  c #365C23",
"3  c #3A5B24",
"4  c #34532B",
"5  c #375B29",
"6  c #395C2C",
"7  c #2E4532",
"8  c #324433",
"9  c #334B33",
"0  c #34473C",
"q  c #375535",
"w  c #3A5B31",
"e  c #376122",
"r  c #3A6424",
"t  c #3D6B23",
"y  c #3D632C",
"u  c #3F692B",
"i  c #3F7220",
"p  c #3E6330",
"a  c #3F6A38",
"s  c #41751F",
"d  c #43781F",
"f  c #4B5037",
"g  c #406F25",
"h  c #416C2C",
"j  c #4F6D2F",
"k  c #417620",
"l  c #457C21",
"z  c #487F23",
"x  c #42722A",
"c  c #406632",
"v  c #416930",
"b  c #4F6A34",
"n  c #2A2747",
"m  c #2D2D43",
"M  c #322E48",
"N  c #2E3845",
"B  c #313445",
"V  c #353949",
"C  c #2E3153",
"Z  c #353155",
"A  c #383856",
"S  c #31335A",
"D  c #3A3A65",
"F  c #333E6B",
"G  c #473D58",
"H  c #433667",
"J  c #4B3C76",
"K  c #533C70",
"L  c #364845",
"P  c #31434E",
"I  c #354E4E",
"U  c #395246",
"Y  c #344556",
"T  c #2D476F",
"R  c #38486C",
"E  c #344B75",
"W  c #3A4873",
"Q  c #344E79",
"!  c #395475",
"~  c #36537D",
"^  c #38537E",
"/  c #4E4A4C",
"(  c #595546",
")  c #575759",
"_  c #5E6643",
"`  c #6D6A57",
"'  c #4B4E69",
"]  c #464878",
"[  c #455577",
"{  c #4F6775",
"}  c #676669",
"|  c #716F6A",
" . c #7D7466",
".. c #9C136C",
"X. c #841774",
"o. c #A6166C",
"O. c #952A7A",
"+. c #A9266C",
"@. c #80796B",
"#. c #867D74",
"$. c #CD4D7A",
"%. c #478022",
"&. c #498423",
"*. c #4C8A24",
"=. c #8D857B",
"-. c #7F2580",
";. c #365382",
":. c #3A5481",
">. c #3B5A85",
",. c #3F5689",
"<. c #3C5C8A",
"1. c #4D4887",
"2. c #544489",
"3. c #564489",
"4. c #455887",
"5. c #44548B",
"6. c #425C8D",
"7. c #5B4B96",
"8. c #4A5992",
"9. c #4B5894",
"0. c #56569B",
"q. c #6D4889",
"w. c #674996",
"e. c #784A99",
"r. c #466186",
"t. c #43628E",
"y. c #446592",
"u. c #456A95",
"i. c #476A98",
"p. c #4A6C9A",
"a. c #47709D",
"s. c #49719C",
"d. c #567091",
"f. c #5A5AA4",
"g. c #5B5BA5",
"h. c #6656A9",
"j. c #6657AA",
"k. c #645CAC",
"l. c #7750A7",
"z. c #695DB3",
"x. c #785BB8",
"c. c #4B74A2",
"v. c #4C79A6",
"b. c #4979AA",
"n. c #5274A5",
"m. c #5B7DB3",
"M. c #7963B8",
"N. c #7B5EC2",
"B. c #852984",
"V. c #893792",
"C. c #B12A8D",
"Z. c #CA3188",
"A. c #994C92",
"S. c #B14F80",
"D. c #8659AD",
"F. c #8559B7",
"G. c #9555B5",
"H. c #8A68BA",
"J. c #8C76B9",
"K. c #E56394",
"L. c #9B5CC4",
"P. c #8565C6",
"I. c #9762CD",
"U. c #8275C5",
"Y. c #9B66D5",
"T. c #A467D8",
"R. c #72949E",
"E. c #5583AA",
"W. c #4F83B0",
"Q. c #5583B2",
"!. c #568AB6",
"~. c #5D8DBD",
"^. c #5A91BA",
"/. c #688FB4",
"(. c #598EC0",
"). c #648DC3",
"_. c #6697C7",
"`. c #799CC7",
"'. c #6C99D3",
"]. c #70A6C7",
"[. c #6DA4D7",
"{. c #76B5DA",
"}. c #6CAAE1",
"|. c #76ADE4",
" X c #7AB2E5",
".X c #7ABBE9",
"XX c #7ABCF0",
"oX c #7DC2DD",
"OX c #7FC5E3",
"+X c #7DC3F4",
"@X c #8D8D84",
"#X c #9D9788",
"$X c #A49E88",
"%X c #A9A28D",
"&X c #ABA494",
"*X c #B1AB9A",
"=X c #AFB39E",
"-X c #B9B19E",
";X c #8883BF",
":X c #91ACAE",
">X c #F18895",
",X c #F88BA5",
"<X c #C3BCA4",
"1X c #FFA6B3",
"2X c #CEC8B7",
"3X c #8C85C7",
"4X c #8A93D1",
"5X c #8CAACC",
"6X c #8698E1",
"7X c #86A8E7",
"8X c #88B8E9",
"9X c #84AEF1",
"0X c #85BBF5",
"qX c #89C5DA",
"wX c #8FCBEC",
"eX c #89C5F8",
"rX c #8BCCFE",
"tX c #8BD6FC",
"yX c #92D9FD",
"uX c #B4D9E4",
"iX c #8EE3FF",
"pX c #96E7FA",
"aX c #9BECFD",
"sX c #99F3FE",
"dX c #B7E7F2",
"fX c #A4F3FD",
"gX c #A5F8FE",
"hX c #B4FBFF",
"jX c #DBD8CB",
"kX c #E4E2D7",
"lX c #C7EAF1",
"zX c #C8FDFE",
"xX c #D6FDFD",
"cX c #F6F3EA",
/* pixels */
"% * s - s s - s s - e > L L e - ; ; %.; ; ; ; %.d ; d d ; - - - ; i d ; ; l d - * = s - - s ; s s - - s k ; d ; ; d d ; - - ; d d s s d s - s - s s k s s d s & ",
"* - s s k k s - ; s e 9 P 7 & - ; ; ; ; ; ; d ; ; ; ; ; - l l l l l ; ; ; d l l l k s s s s ; ; ; ; s d l k d ; ; d s ; ; ; d d s s s - - s l d d d s - s d s - ",
"d d s d l l s s s d t q I U e i i l ; ; ; d %.d i ; ; ; i %.*.*.&.&.; ; ; l &.*.*.&.k l %.l ; ; ; d d %.l l l k k l ; ; ; l l l s s g s s %.*.*.*.l s - s d d s ",
"s d &.*.&.l s d d s ; i i i &.&.&.&.i i d &.&.&.&.%.&.&.&.%.%.&.&.&.&.d d %.&.&.%.%.%.*.&.%.d s d s s %.%.*.*.*.&.%.i ; l &.*.%.%.%.d z %.l &.*.*.*.%.k s &.d s ",
"s s %.%.&.*.&.%.%.l l %.&.&.&.*.%.&.%.&.*.*.*.*.&.&.*.*.*.%.l l l l *.%.l %.%.&.%.%.%.%.&.*.%.%.&.d l %.*.*.*.&.*.&.%.l &.*.*.*.&.*.*.*.*.l l z l l *.l l z d s ",
"s s s s %.*.*.*.&.%.%.&.*.*.l l %.*.*.*.*.*.*.&.*.*.*.&.&.l l l i i &.*.&.l &.&.%.l s k %.*.*.*.&.&.&.%.*.&.l l %.*.*.*.*.*.*.*.*.*.*.*.z l l k - s &.*.*.l d s ",
"- - s d d z d l l i i l i l &.&.*.&.l l l %.%.%.&.*.*.*.&.d ; l - - %.*.*.l d l l l ; l %.l %.l d l i l l l &.*.&.%.%.l l l %.&.*.*.*.*.&.d d l s s l *.*.l g * ",
"- s s d d d d d i i i i i i l &.&.%.l l i l l d %.*.*.&.&.&.&.%.d l %.*.*.k ; ; l l k %.l s ; ; d ; ; ; ; ; l %.*.&.l i l l i l l &.*.*.*.&.l &.d k z *.*.s = * ",
"- ; ; %.%.; ; ; i ; ; ; ; ; ; d &.%.&.*.*.%.; ; d &.*.*.*.*.*.*.&.%.*.*.%.i i l l l s l l ; ; ; ; ; ; ; i i - l %.%.&.*.&.%.i ; k *.*.*.*.*.*.*.*.&.*.*.%.s = s ",
"- ; d l d d ; ; ; i ; ; l l d %.&.&.&.*.*.&.%.&.&.*.*.*.&.&.&.&.l k l %.*.z &.*.l l s l l l ; ; ; i ; ; ; l i &.%.%.*.*.*.*.%.&.*.*.*.*.&.%.&.&.k k l %.*.%.d s ",
"; ; ; &.*.%.; ; i l l ; l %.&.*.*.&.&.*.*.&.&.&.*.*.*.*.%.%.&.&.; - t %.*.%.*.*.%.l s %.&.%.k s i %.%.; %.%.%.*.*.&.&.*.&.&.&.*.*.*.*.*.l l *.&.k - - l *.%.d d ",
"d ; i *.*.*.%.i &.*.*.*.&.&.*.*.&.&.*.*.%.%.&.%.&.*.*.&.; %.*.*.k - ; &.*.k l *.*.l l &.*.*.l l &.*.*.*.&.&.*.*.*.&.*.*.%.%.&.%.&.*.*.l s l *.*.k - s %.*.k s s ",
"; ; ; %.*.*.*.%.i i &.*.%.%.*.%.%.&.&.&.&.*.&.%.&.*.*.*.&.*.*.*.%.%.&.*.*.l l %.%.l k %.*.*.*.%.; d &.*.%.l *.&.%.&.&.&.&.*.&.&.*.*.*.*.%.*.*.*.&.l &.*.*.l s s ",
"- ; d %.&.*.*.&.i i l *.%.l &.%.l &.&.%.*.*.*.&.&.&.*.*.*.*.*.*.&.*.*.*.&.%.*.%.l l l l &.*.*.&.; ; %.*.%.l %.%.%.&.&.%.*.*.*.&.l *.*.*.*.*.*.*.&.*.*.*.*.%.k s ",
"; ; %.*.*.*.&.&.*.&.l *.%.%.&.*.&.&.s ; l *.*.l s %.&.&.*.*.*.%.l l %.%.l %.*.*.%.%.%.*.*.*.&.&.&.%.%.&.&.%.&.*.&.&.i ; l *.*.l k l &.*.*.*.*.%.l l z l l %.l d ",
"; %.*.%.&.*.*.*.*.*.&.&.%.&.&.*.*.l ; ; k l %.; ; d d %.; %.&.&.%.%.&.&.*.*.*.*.%.&.*.%.&.*.&.&.*.*.&.&.&.&.&.*.*.d ; ; i l l ; k k l l l l %.&.*.l z *.*.*.%.d ",
"; %.*.; %.*.&.&.&.&.&.%.l &.*.*.*.l ; d ; ; d l l z z z i %.%.*.*.*.*.*.*.*.*.*.l *.&.l l *.%.*.*.*.&.%.l &.&.*.*.l ; d ; ; d l l l l k k l &.*.*.*.&.*.*.*.l d ",
"; d l ; ; %.l %.&.l ; ; ; ; &.*.*.&.&.%.%.&.*.&.&.&.%.&.*.&.*.*.*.*.*.l d &.*.*.*.%.k - k l l l &.i ; ; ; l &.&.*.&.&.%.&.&.*.&.*.*.*.*.*.*.*.*.*.*.*.d k &.%.d ",
"; l %.; ; ; l l l i d d ; ; &.&.*.&.&.&.l l &.&.l i x l %.&.&.&.l l &.l s k %.*.*.l l l k l k l %.; ; %.; ; &.*.*.*.&.&.l %.&.*.*.*.*.&.%.%.&.&.%.d &.d k k d d ",
"; %.*.%.%.l %.; d ; %.&.i ; &.*.*.&.&.&.l l l i y q q p r i &.*.k s l l k s l *.l *.*.l l l l l i i l &.; ; %.*.*.&.*.&.l l %.*.*.*.*.%.d l &.*.d s %.%.k s s d ",
"; l %.&.*.*.&.%.d d ; ; ; ; &.&.&.&.&.*.*.*.%.w I ] W I h &.*.*.*.*.*.*.*.l &.*.*.%.%.*.*.&.&.z &.l ; ; ; i &.&.%.%.&.*.&.*.*.&.%.&.*.*.*.*.*.*.*.*.*.*.*.l d d ",
"; %.&.*.*.*.&.*.*.&.%.d %.&.*.*.&.; %.*.l i a { d.n.[ P O 3 d d %.*.&.*.*.&.*.*.*.*.%.*.*.*.&.*.&.&.l %.l &.*.*.%.l l *.&.&.%.&.&.&.%.%.*.%.%.*.*.&.%.*.*.&.d d ",
"; %.&.&.&.%.&.*.*.*.*.*.*.*.*.*.&.; %.i = > I ^.{.].} G X O $ j s k s l &.l %.%.l %.*.%.l &.*.*.*.*.*.*.*.*.*.*.*.; l l l d ; &.*.l l k i l l l d s k &.*.%.d d ",
"; %.%.%.*.*.%.l %.*.*.*.*.*.&.%.; %.i i 1 L >.].qX5X@X` / @ , = s s = = - - - - g - k l *.*.%.l %.&.*.&.*.*.*.%.l l l k ; l &.*.&.i k l l k i l s s l %.&.&.l s ",
"; ; &.*.*.%.d %.%.%.l ; &.*.&.%.%.&.%.; 5 I ,.n.R.:X=X%X#./   = = & , , , , , , , < & l *.&.l l l &.l l l *.*.l l %.l l l l *.*.%.i ; k l k i ; ; ; &.%.%.%.d ; ",
"; %.&.*.%.; ; %.%.%.l ; %.*.&.&.&.*.&.%.r U W A } #X2XjX%X(   j 2 , + m M m + m M @ 4 k k t i l &.l i i l *.&.*.&.*.%.*.*.*.*.*.%.l k ; ; ; ; ; ; s &.&.%.%.d ; ",
"; l &.%.; ; - d *.*.*.&.&.&.%.&.*.*.*.%.& / ' } $X2XcXcX-X(   $ : P R ] W R R W [ R P 1 $ # # - *.*.&.z *.*.l %.*.*.*.*.*.*.*.*.*.&.d - - ; l l d d d &.&.*.%.s ",
"; %.&.%.&.d ; d *.*.*.&.*.&.%.*.*.*.*.%.c f ) #X2XcXcXjX%X(   X N ! y.i.t.t.8.y.v.s.! L + X O 4 &.%.*.&.*.&.%.*.*.*.*.*.*.%.l l *.*.l l l l l &.&.&.&.%.%.&.%.d ",
"; %.*.*.*.*.&.*.*.&.%.; &.*.*.*.*.&.&.&.- 3 b $XjXcXkX2X=.=.( M R >.b.b.n.v.n.W.^.!.a.! D R S 0 e i l l %.&.*.*.&.&.%.&.%.l i %.*.*.*.&.*.*.*.*.*.*.*.&.l %.d s ",
"; ; &.*.&.d &.*.&.%.&.; &.*.*.*.%.%.i l l k j  .#X*X=.=.<X-X#.( A ~ b.b.v.v.E.!.!.W.a.u.6.t.~ A o 1 - i &.*.*.*.&.l l l *.*.&.l l *.*.*.*.*.*.*.*.&.d &.%.l ; = ",
"; ; *.*.%.; %.*.&.%.; ; %.*.*.&.l %.i i l d k b _ ` f @.-X2X-X@.) [ u.c.s.v.W.!.!.^.^.!.^.^.E.r.Y 0 5 = l &.&.%.l %.%.%.*.&.%.l %.*.*.*.*.%.%.*.*.&.%.&.*.l ; - ",
"; %.*.*.&.%.d &.*.%.; %.; ; ; ; l %.i 2 r = s l r   X G @.-X<X%X=.| { { u.c.W.!.].{.{.oXOXwXqX5X:X{ U 2 - d s d d &.*.&.&.s ; &.*.%.*.*.*.d d &.&.*.*.*.*.&.l d ",
"s d &.&.%.%.%.%.%.%.l s d *.l l z k 6 @ 8 6 d %.- # X m / @.$X<X%X=.( ! r.a.W.^.{.tXpXpXpXdXdXlXuX:Xd.I u i &.l &.&.%.l %.%.%.&.l l &.*.*.l l *.*.*.&.d l &.&.d ",
"; s %.%.%.%.&.&.%.&.&.d %.*.*.l x r I Y A q k t 2 > N C V / @.&X%X@.) [ u.W.^.{.wXaXgXgXgXhXxXxXxXlX5Xr.) x l &.&.&.l i %.*.*.%.l l %.*.*.*.%.*.*.&.l d k *.%.s ",
"; s l l %.*.*.*.*.*.*.*.l d *.t < 0 W 4.! I O   o @ A T R ' } @. .| r.r.u.Q.[.+XyXaXgXaXaXfXhXzXxXxXlX:Xd.U 5 i &.*.&.&.&.%.%.i d l l &.*.*.%.*.*.l l %.&.*.d - ",
"- s s s %.&.&.&.*.*.*.%.l l *.k 1 B R t.y.] A B C Y E ;.;.~ ' / ) { s.u.c.~.{.eXyXaXaXaXsXsXgXhXzXxXlXuX/.! > i *.*.&.&.&.%.l i l &.l l l l l *.*.*.%.%.&.*.s * ",
"s ; ; ; k l l %.*.*.&.d l *.*.k 2 8 I W 8.7.2.] R T ^ <.<.;.T Y R <.b.a.a.). XyXyXyXpXpXpXsXfXgXhXzXzXdX`.[ 7 e *.&.%.%.*.*.&.l %.*.l l l k l *.*.*.%.*.*.*.s - ",
"s s ; s d s l &.&.*.&.%.l l &.k - r < N ] w.h.0.,.~ ~ :.:.^ Q Q ^ y.a.u.a.(. XrXrXrXyXpXaXaXpXpXaXfXfXwX`.[ 7 * i l i %.*.*.*.%.%.*.*.*.l %.*.l d d *.*.*.l l s ",
"d s d d %.%.l %.%.%.%.%.l l l l %.d - 4 V ] 7.0.9.<.:.:.^ ^ :.;.r.u.s.u.p.(. XeXeXrXtXpXyX8X3X3X4XwXpXpXoX/.) y r i i &.%.%.&.&.*.%.*.&.%.*.*.%.s s &.&.d d d k ",
"; d %.&.&.&.&.%.d l d %.*.*.l %.*.&.%.- < V ] 7.k.f.5.:.~ ~ ;.;.<.u.s.u.a.). XeXrXtXtXiX8XJ.B.K q.J.qXfXsXoXE.! q t %.&.%.%.&.*.*.%.%.*.%.%.*.*.d d &.d s d d s ",
"* s &.%.%.*.%.*.%.l l *.*.*.*.&.&.*.&.%.* O Z 3.j.z.9.^ ~ ~ ^ ^ <.u.a.u.s.~. XrXrXrX0X9X;XA.+.....A.3XwXdXpX{.p.Y 5 l *.l %.&.*.*.*.*.*.l l l %.l *.*.l l *.l - ",
"- s l l l %.l d l l l &.&.l z l l l %.s & O M 3.j.k.9.^ ~ ~ ^ ^ >.u.s.u.s.~. XrXtXeX6XH.D.$.$.$.Z.C.A.3XwXyX Xn.Y 5 i i i l %.&.d d l l l %.&.%.*.&.l k l *.l s ",
"d d s l %.l s - s s l %.l l k k s l s = % O Z 3.h.k.8.:.~ ~ ^ ^ >.u.a.u.a.~. XrXyX8XM.A.+.$.K.>XK.Z.C.-.3X9X}.i.P 1 * i ; i l i s s g s d %.*.*.*.l s s s l d d ",
"s d %.*.*.l s s l s s %.&.*.*.*.&.%.k - 2 O Z 3.h.k.8.:.~ ~ ^ ^ >.<.y.t.a._.8XyXpX9XF.K o.$.,X1X,XZ.o.X.H.9X}.i.P 4 * i %.&.*.*.%.%.d &.%.l &.*.&.*.%.d d %.s s ",
"s k %.l *.*.%.%.%.l l &.*.*.*.&.%.*.%.k & 8 Z 3.j.k.8.^ ~ :.:.~ ~ :.>.<.u.). XtXiX8XJ.-...Z.K.1X,X$.+.-.U.9X}.i.I 5 ; &.*.*.*.*.*.*.*.*.*.z l l l l &.l l l d s ",
"s s k k l *.*.*.&.%.%.%.*.*.l l %.*.*.*.r , Z 3.k.g.8.:.~ ~ :.:.~ ~ ^ :.t.Q.[..XtXeX4XD.V.C.Z.K.K.$.A.M.6X0X'.i.P e %.*.*.*.*.*.*.*.*.&.z l k l s s &.*.*.d d d ",
"- s s l l l l l l k k k k l &.*.*.&.l k & O Z 3.h.k.8.:.~ ~ :.:.^ ~ ^ ^ >.u.Q.[.+XrXwX7XI.C.+.o.+.S.J.5XeXeX[.y.P 5 ; ; l %.&.&.&.*.*.*.&.l d k s s l *.*.l s = ",
"- - d %.l s k k k ; i i - s l &.*.l l k % + Z 3.h.g.6.~ ~ ~ :.~ ^ :.:.~ ^ :.u.v._.+XrXrX7XH.B.X.O.D.6XtXiXeX'.y.P 5 ; l i i l i l &.*.*.*.&.z l k k *.*.*.s = * ",
"- s s d l s s s - k ; k - ; - l &.%.&.&.= : Z 3.h.g.5.~ ~ ~ ~ :.:.^ :.^ ~ Q :.6.p.).+XtXrX7XU.l.M.6X0XpXaXeX'.t.P 6 d *.*.l l - k *.*.*.*.*.*.*.&.&.*.*.&.s = - ",
"= s d d l l - - - - s ; k l l %.&.&.&.&.= 7 Z 3.j.z.9.;.~ :.:.:.:.:.:.~ ^ ~ ~ Q E t.~..XeXeX9X|. X0XeXrXyXeX'.6.P 3 l *.*.&.l &.*.*.*.*.&.z &.*.l s k &.*.l l s ",
"s s d d &.l d s k l l k &.%.&.%.*.&.&.&.* O S w.P.P.g.5.>.~ ~ ~ :.^ :.:.:.:.^ Q T Q i.).[.|..X+X+XXX|.}.0X0X'.4.N 6 d *.*.&.&.*.*.*.*.*.l d &.&.k = s l *.&.d d ",
"s s d *.*.*.l l &.*.*.*.&.%.*.*.&.&.*.&.% O H e.T.T.M.0.4.~ ~ ~ ~ :.^ :.:.:.:.Q E ~ 4.p.s.c.Q.'.|.'.~.Q.'.|.).[ + 2 l *.l l *.%.&.*.*.l s &.*.*.k - s z *.d s s ",
"s s d &.*.*.*.%.; l %.*.&.z *.%.l &.*.%.- < G q.G.I.F.g.9.;.Q ~ ~ :.;.:.:.:.~ :.:.~ ~ Q T E <.Q.'.).y.Q n.m.p.H + & d *.*.*.*.l *.*.*.*.*.*.*.*.&.l *.*.*.k s s ",
"= - d d &.*.*.%.s i %.*.l l *.l l *.&.d k y 0 ' q.l.z.h.9.;.Q Q ~ :.:.^ :.:.:.:.:.:.Q E T F >.m.'.m.] C D ] ] Z + 2 s l *.*.*.%.l *.*.*.*.*.*.*.&.*.*.*.&.&.d s ",
"s d d *.*.*.&.%.*.l l *.%.z &.*.*.%.s - k h p 7 Z J w.z.f.,.~ ;.:.:.^ ~ ~ :.^ :.:.:.:.:.Q E 6.m.'.m.] n n n C M + 3 = - l *.*.l s l &.*.*.*.*.d l l &.l z z l d ",
"s d *.&.*.*.&.*.*.*.%.%.&.&.&.*.&.l - = = u e o m J F.I.z.0.5.9.5.:.~ ~ ~ ~ ~ :.:.:.:.:.^ ~ <.c.m.p.Q C n n m @ 9 1 2 - k l l k s l l l d d %.*.&.l &.&.*.*.z d ",
"s l *.k l *.%.*.*.*.%.l l %.*.*.*.k g = 3 r 4 o M K G.T.P.z.f.h.0.6.Q ~ ~ ~ ;.;.~ ~ :.:.~ ^ :.<.y.t.^ D C M + q c 6 3 - k k k k k l l k l l l *.*.&.*.&.&.*.%.d ",
"s k k ; k l l l %.k i i ; k &.*.*.l g y p p y 4 L K e.L.Y.I.P.N.k.0.,.5.5.,.:.~ ~ ~ ~ :.:.:.~ ~ Q ,.8.5.D Z @ 6 h v y g k %.*.*.*.&.*.*.*.*.*.*.*.*.*.%.d &.%.d ",
"s l l l k l k l l i l l ; ; %.*.*.*.k y w p y y q / K q.L.T.T.P.z.h.0.f.0.9.,.~ ~ ~ ;.;.:.:.~ ~ Q 8.f.0.1.Z @ 6 x v h g k l &.*.*.*.*.*.l %.*.*.%.d &.d s d d s ",
"- l *.l l l l l l k l %.k i l *.*.l k h y w y h y 9 B H e.L.I.l.j.z.x.x.x.f.9.:.:.,.,.;.:.:.:.~ ;.9.f.7.J Z 8 6 v v h g k l l *.*.*.*.&.l l %.*.d d d %.d ; s d ",
"d l %.*.*.*.%.l l l s ; ; s *.&.%.l k h c c h y y y > L ' e.q.3.w.F.T.Y.P.z.k.f.f.f.9.,.>.>.>.>.>.5.1.J G V 6 6 6 c h x &.*.*.&.l *.&.*.*.*.*.*.*.*.*.*.*.d d d ",
"s l &.&.*.*.*.*.&.&.l l l %.*.*.%.s g g y c 6 h u y 5 q V A Z Z 3.F.T.I.x.j.h.j.h.h.0.,.~ ~ ~ :.:.W D A 0 q v h c 6 h g &.z l &.&.&.l &.&.&.&.&.&.&.*.*.*.&.%.d ",
"s d *.&.%.%.&.*.*.*.*.*.*.*.*.*.&.s s g 6 6 6 c v y u 6 8 o . X G q.G.l.w.3.7.7.w.7.1.W T T T W R F N 8 6 h h h 6 3 r s k s k *.*.l l k k k l l l d s &.*.%.d d ",
"d d %.%.*.*.%.l %.*.*.*.*.*.*.%.l d s - r 3 y v y 6 r 5 4 9 < , @ G J J H D D D H H D S S Z S S S V 0 w h h v c y r g s s l &.*.&.k k l l k k k s d d %.&.&.d ; ",
"s d %.&.&.%.l l l l z l %.*.&.l l l l k i x u h p 6 6 6 6 5 5 5 9 0 B B B B B B B B B B B B B B B 0 q 6 v h c 3 u k k l l %.*.*.l s k k k k s i ; ; %.%.%.%.d ; ",
"s d *.*.l s l %.&.%.l i l *.&.z *.*.&.*.%.&.k h p q q 6 5 6 r 3 5 < : 7 7 8 9 9 8 9 9 9 8 8 @ 8 9 9 5 5 c c h g l *.&.%.*.*.*.*.&.k s s - k ; ; ; d &.&.%.%.d ; ",
"s l &.%.s - - k *.*.*.*.*.&.l &.*.*.*.*.*.*.&.i h y 6 1 5 6 5 y 6 5 5 3 6 y c y h 6 6 6 6 < < 5 c h h y v v = k *.*.*.*.*.*.*.*.*.%.k - ; ; l l d d %.%.&.*.d d ",
"s d &.%.l l k l *.*.%.&.*.&.&.*.*.*.*.*.%.&.l l l x g u 6 6 6 c y v h y h h h h v h v h 6 h 6 y j g h g g h k &.*.&.*.*.*.%.l %.*.*.%.l l l %.%.&.&.&.%.%.&.%.d ",
"; l &.*.*.*.*.&.*.%.l k &.*.*.*.*.&.&.&.%.i ; %.z z z z g v c v v h v y 6 y c y c h c v h v v c c h g s d &.*.*.*.&.%.*.%.d d &.&.*.*.*.&.*.*.*.*.*.*.%.d &.d ; ",
"; d &.*.&.l &.*.%.&.l l %.*.*.&.l l l l &.*.&.d l *.*.z l h h h h g u u g y r r r y h h g 3 h h g g s s d *.*.&.%.%.l d *.*.&.d %.*.*.*.*.&.&.*.*.&.%.%.&.d - - ",
"; d &.*.%.d %.&.*.%.l s %.&.&.%.l l l l *.&.&.%.z *.*.*.&.k k k k x k k k g t k s k k l k g s k s s d s l *.*.d l l l d *.*.%.d %.*.*.*.*.%.&.&.*.%.%.*.*.d ; - ",
"d d *.&.&.%.d %.*.l ; d s l d d l *.*.*.&.i ; &.*.l *.*.*.l k z &.&.*.*.*.%.*.*.&.&.&.*.l l s l *.l s s d d d d d *.*.*.%.s s *.&.%.&.*.*.%.l &.&.*.*.*.*.&.%.d ",
"; d &.&.%.l %.%.&.&.d s %.&.l %.l *.l l %.%.%.&.l l &.*.*.l l *.*.*.*.d d *.*.*.&.&.&.*.&.d l l z l d d l *.l d &.&.l l z %.%.*.&.l %.*.*.%.l &.*.*.&.%.%.*.&.d ",
"; s %.%.%.%.&.&.l &.&.l &.&.&.&.*.*.l d l *.*.l k l l *.*.&.l *.*.*.d d d *.*.*.z l l z z &.*.&.l *.&.l %.*.*.&.&.*.l d l *.*.d l l %.*.*.&.&.&.&.&.%.d ; *.%.; ",
"; d d %.&.*.*.*.*.*.*.&.l d *.&.z *.*.l *.l l k l %.l *.*.*.*.*.*.d d %.&.*.%.l l &.d l &.*.*.*.*.*.*.*.l k *.&.l *.*.%.z z l d d %.l &.*.&.&.*.&.%.d &.*.*.; - ",
"; ; s s %.&.&.&.*.*.&.&.l %.*.*.*.*.&.&.*.&.l k l %.l l l l l *.*.*.%.%.*.*.l s &.d s d d *.&.*.*.*.*.%.k l *.*.*.*.*.&.*.&.l k l &.l l %.l l *.*.&.%.%.*.*.; * ",
"; ; ; ; d d %.%.*.*.%.d d &.&.*.*.%.l &.*.*.l l l *.l l k k l *.*.*.%.&.*.*.l k &.d s s d d l &.*.*.%.d d *.*.*.*.%.&.z *.*.l l %.&.%.l l s l &.*.&.&.&.&.*.; - ",
"d s ; d ; d d %.*.&.&.%.d %.&.l d d d l *.*.*.%.&.*.*.*.%.*.*.l s d *.*.*.%.*.*.*.d s s s s d &.%.*.*.d %.d &.l d l k l *.*.*.l &.&.*.*.%.&.&.l d d &.*.*.&.%.; ",
"- ; ; ; d ; d s d d d d d d d d k d d k l l l l l l l l l l l l - - l d s s d l l s s s d s s s d s s s d d d s s s k k l d l l l l %.l l l l l ; ; d d ; ; ; - ",
"* * - ; s d ; ; ; = - ; d ; - ; k s d d - - s l k k s - s s s s - = s - * = - s s - - s s s s g - - - s d s - s k d d d s - s d l ; ; ; s ; k l - = s - = - * * "
};
