/* XPM */
static char *__resized[] = {
/* columns rows colors chars-per-pixel */
"80 80 215 2 ",
"   c #1B0E3C",
".  c #1C113E",
"X  c #2B3D3B",
"o  c #2F5216",
"O  c #335A1C",
"+  c #37631B",
"@  c #39661C",
"#  c #3D6D1D",
"$  c #3F711F",
"%  c #2F4D2C",
"&  c #355C22",
"*  c #365B25",
"=  c #32532D",
"-  c #365A2D",
";  c #395C2D",
":  c #2E4635",
">  c #2F4835",
",  c #2E443A",
"<  c #2F4839",
"1  c #314B35",
"2  c #31463D",
"3  c #334B3C",
"4  c #355433",
"5  c #385633",
"6  c #375B31",
"7  c #3A5B33",
"8  c #37513B",
"9  c #38533C",
"0  c #3C5C39",
"q  c #376021",
"w  c #3A6422",
"e  c #3D6B22",
"r  c #3D642D",
"t  c #3F7220",
"y  c #3E6233",
"u  c #41751F",
"i  c #43781F",
"p  c #406E25",
"a  c #40672E",
"s  c #416B2C",
"d  c #417620",
"f  c #457C21",
"g  c #437129",
"h  c #406732",
"j  c #180C44",
"k  c #1D1442",
"l  c #1D1549",
"z  c #221D4D",
"x  c #211C53",
"c  c #293049",
"v  c #252354",
"b  c #282657",
"n  c #2B2B5C",
"m  c #2E345D",
"M  c #303A57",
"N  c #313D59",
"B  c #2B2D61",
"V  c #2F3162",
"C  c #333869",
"Z  c #353C6D",
"A  c #353E71",
"S  c #324641",
"D  c #354B44",
"F  c #32464D",
"G  c #354B4D",
"H  c #384F4A",
"J  c #395344",
"K  c #39534C",
"L  c #364557",
"P  c #364D52",
"I  c #384D53",
"U  c #35445B",
"Y  c #37495F",
"T  c #384C5E",
"R  c #395253",
"E  c #3C5856",
"W  c #354664",
"Q  c #3A4C65",
"!  c #374669",
"~  c #38476E",
"^  c #37486B",
"/  c #394A6A",
"(  c #3D516C",
")  c #364271",
"_  c #394574",
"`  c #3C4B74",
"'  c #3A467A",
"]  c #3D4B7D",
"[  c #3F5276",
"{  c #415674",
"}  c #41557E",
"|  c #42587E",
" . c #426360",
".. c #478022",
"X. c #498423",
"o. c #4C8A24",
"O. c #3D4D81",
"+. c #404F84",
"@. c #415283",
"#. c #455B85",
"$. c #43558B",
"%. c #465B8A",
"&. c #485D8E",
"*. c #475D90",
"=. c #495E92",
"-. c #4B6885",
";. c #54798D",
":. c #4B6393",
">. c #4E6A94",
",. c #4D659A",
"<. c #4F6A9B",
"1. c #506D96",
"2. c #516B9E",
"3. c #537298",
"4. c #4F68A4",
"5. c #5067A0",
"6. c #526CA4",
"7. c #536DA9",
"8. c #5571A5",
"9. c #597BA5",
"0. c #5673AC",
"q. c #5875AC",
"w. c #5979AE",
"e. c #5774B0",
"r. c #5976B1",
"t. c #5B7BB5",
"y. c #5D7DBA",
"u. c #5C82A5",
"i. c #5E84AB",
"p. c #5E80B3",
"a. c #5E8AB3",
"s. c #5F81BB",
"d. c #6088AB",
"f. c #628BB3",
"g. c #6084BC",
"h. c #648BBC",
"j. c #6693B6",
"k. c #6A98BB",
"l. c #6DA1BE",
"z. c #6385C3",
"x. c #648BC4",
"c. c #678CCA",
"v. c #688ECC",
"b. c #6790C7",
"n. c #6B98C5",
"m. c #6A93CD",
"M. c #709EC7",
"N. c #6C94D2",
"B. c #6E9AD5",
"V. c #6F9AD8",
"C. c #709ED5",
"Z. c #719EDB",
"A. c #71A4C5",
"S. c #74A9C8",
"D. c #75A9CA",
"F. c #72A2D5",
"G. c #77ACD5",
"H. c #73A1DD",
"J. c #76A9DF",
"K. c #7AB5D3",
"L. c #7DBAD5",
"P. c #76A4E2",
"I. c #78A7E4",
"U. c #77A8E4",
"Y. c #79AAE5",
"T. c #7AACE9",
"R. c #7DB6E8",
"E. c #7DB2EC",
"W. c #7EB3F1",
"Q. c #7FB8F0",
"!. c #81BCDA",
"~. c #82BBEB",
"^. c #80B7F2",
"/. c #82BBF4",
"(. c #84BDF8",
"). c #83C1DD",
"_. c #85C6E3",
"`. c #89CBE2",
"'. c #89CAE8",
"]. c #90CEE6",
"[. c #8CD3E6",
"{. c #8DD3EB",
"}. c #91D3EA",
"|. c #92DAEC",
" X c #86C3F5",
".X c #8BCCF5",
"XX c #86C3FC",
"oX c #89C6FD",
"OX c #8BCBFD",
"+X c #8ED4F5",
"@X c #8FD2FC",
"#X c #90D6F3",
"$X c #92DBF3",
"%X c #91D5FE",
"&X c #94DBFF",
"*X c #97E4F3",
"=X c #96E2FE",
"-X c #9AE6FD",
";X c #96E9FE",
":X c #9CECFD",
">X c #9EF2FE",
",X c #A4EEFE",
"<X c #A9EDF9",
"1X c #B0EFFA",
"2X c #A3F4FE",
"3X c #ACF4FF",
"4X c #A4FAFE",
"5X c #AAFCFF",
"6X c #B3F5FF",
"7X c #B8F7FE",
"8X c #B4F9FF",
"9X c #BDFAFF",
"0X c #C3FCFF",
"qX c #CCFEFF",
"wX c #D2FFFE",
/* pixels */
"o + u # u u # u u # # u u u i u $ i i i # # $ f i i i i $ # # # $ u u $ $ i i # + # $ $ $ $ $ $ i # # u $ $ i $ $ i i u # # $ i d u i u u # u # u u u u u i # O ",
"@ # u u u d u # u # u f f u u $ $ t $ $ $ $ $ f $ $ $ $ $ d f f f f u # $ f f f f $ $ $ $ i $ $ $ $ $ i f i i $ $ i $ $ $ $ $ f d u u # # d f f f d u # u i u @ ",
"i i u i X.f u u u u i f f f f i $ f t $ $ f f $ t t $ $ d ..o.o.o...$ $ $ f o.o.o...i f ..i $ $ $ i i X.f f f t t f $ $ $ f f f u # # u d f o.o.o.f u # u f i i ",
"u i X.o.X.f u d i u i ..X.X.o.o.o...t $ i X.o.X.X.......X.....X.X.X.X.i i ........X.X.o.o...i $ i $ i ..X.o.o.o.o...$ $ f X.o.X.X.f X.X.f X.X.X.X.X.X.d u X.i u ",
"u u f X.X.X.X.f ..f f ..o.o.o.X.X.o.....o.o.o.o.o.o.o.o.X.f f f f f X.X.f f X.........X.X.o.X.X.X.i f X.o.o.o.X.X.X.....X.o.o.o.o.o.o.o.X.f f f f f X.X.f X.i u ",
"u u u u X.o.o.o.X.X.....o.o.f f f o.o.o.o.o.o.o.o.o.o.o.X.f d f t t X.o.o.f X.o.X...$ t ..o.o.X.X.o...X.o.o.f f X.o.o.o.o.o.o.o.o.o.o.o.X.f f d u u X.o.X.f d d ",
"# u u i f f f f f f d f d f X.X.o.X...t f f f X.X.o.o.o.X.i u f # $ f o.o.f u f ..$ $ f ..f ..f i f $ f $ f X.o.X.X...i f f ..X.X.o.o.o.X.f d f # u f X.X.f u @ ",
"# # u i f i d u $ $ t $ $ d f X.X...f f f d f i f o.X.o.o.......u f X.o.o.d $ $ f f t ..f $ $ $ $ $ $ t $ $ f X.X.X.f f t f f t f X.o.o.X.X.f X.f d X.o.X.f @ + ",
"# $ i ....$ $ $ $ $ $ $ t $ $ f ....X.o.o.i u $ f o.o.o.o.o.o.o.X.X.o.o.X.t t ..f d d f f $ $ $ $ $ $ $ $ t # f X.f X.o.o...t $ f X.o.o.o.o.o.o.X...o.o.X.$ # # ",
"# $ i i i t $ $ $ $ $ $ u f t f X.X.o.o.o.o.f X.X.o.o.o.o.X.X.X.f d d X.X...o.X.f f i f ..t $ $ $ $ $ $ t f t ..X.X.o.o.o.X...X.o.o.o.o.X.X.X.X.f t f X.X.X.i u ",
"$ $ i X.X...t $ d f f f f X.X.o.o...o.o.o.X.X.o.o.o.o.X.f f X.X.t # # f o.X.X.o...f u ..X.X.f t t ....$ ....X.o.o.X.X.o.X.X.X.o.o.o.o.X.f f X.X.d # # f o.X.f u ",
"i $ t o.o.o.f f ..X.o.o.X.X.o.o.o...o.o.f ..X...X.o.o...d X.o.o.f # $ X.X.f f o.o...$ o.o.o...t X.o.o.o.X.X.o.o.X.X.o.o.....X...X.o.o.X.u X.o.o.d # $ X.o.d u u ",
"$ $ $ ..o.o.o...$ f X.o.....o...f o.o.o.X.o.o.X.X.o.o.o.X.X.o.o.X.f X.o.o.f f ....f f ..X.o.o...$ i X.o...f o.....X.o.X.X.o.o.X.X.o.o.X.X.o.o.o...f X.o.o.f u u ",
"# $ i i X.o.o.X.d t f o...f X...f X...i o.o.o.f X.X.o.o.o.o.o.X.X.X.X...f f f f t $ t d f X.X.f # # t o.f f X...i X.X...X.o.o.X.X.X.o.o.o.o.o.X.X.o.o.o.X.f u u ",
"u i X.o.o.o.X.X.o...f o.......o.o.X.u $ f X.o.f d f X.X.X.o.o...e @ q q w w e e e w w e e e w w w q e ........o.o.X.t $ ..o.o.f d f X.X.X.o.o...f f ..f X.X.f f ",
"$ i o.X.o.o.X.X.o.o.X...X.X.X.o.o.i u e d f f d t f f f f ..X...w % X , : > 1 1 > > 1 1 1 8 1 3 D 3 = # f X.X.o.o.i $ $ $ t ..$ t f f f f X.X.X.X.X.X.X.o.X...i ",
"$ i X.i f o.X.X.X.o.X.f f X.X.o.o.f u u u d f d f f f t t t t f y P ~ ^ W W W W W W W W W W W ! ^ ! P - e X.X.o.X.f u u d d f d f f f f f f ..o.o.o.o.o.X.o.X.i ",
"i i d u u f f X.X.d t $ # d X.o.o.X.X.f f X.X.X.o.X.f e & q & 6  .3.h.s.r.e.e.0.4.4.,.5.,.5.5.7.e.7.-.P = @ X.o.o.X.X.i f X.o.X.X.o.X.o.o.o.o.o.o.o.o.i d X.f u ",
"u i X.u u u f f f d d f d $ ..o.o.o.X.X.f f X.o.o.o.f r D c D E ;.S._.R.U.P.P.Z.N.c.z.z.z.z.c.v.N.v.e.#.F % p X.o.o.X.X.f f X.o.o.o.o.X.f X.X.o...i ..i u d i i ",
"$ i o...f d f f d d f X.u $ ..X.o.X.o.X.f f X.o.X.f y E [ ' ] >.l.[.>X=XOXoXoX XE.P.V.H.H.P.V.P.P.P.N.r.} F - d X.X.o.X.f f X.o.o.o.o.X.f i X.X.i $ ....f u u i ",
"f f X.X.o.o.X.X.X.d u $ # d o.X.....X.o.o.o.X.X.# * E -.j.b.n.A._.*X>X>X=X=X=X&XOX(.W.Q.Q.W.T.I.U.U.P.N.e.@.P - # f X.o.o.X.X.X...X.X.o.o.o.o.o.o.o.o.o.X.X.i i ",
"u f X.o.o.X.X.X.X.X.f f f X.o.o.X.f f X.X.X.f d - D -.k.`.}.{.|.=X;X>X>X:X:X:X-X%XOXXXXXXXQ.T.P.H.P.P.U.N.r.%.R = e f o.X.X.f X.X.....X.X.X.X.o.o.X.X.X.o.X.i i ",
"$ i o.X...X.X.o.o.o.o.o.o.o.o.o.X.u f f f $ w ; K -.n.'.,X4X5X>X>X,X>X,X2X2X:X;X=X@XOX@XoXQ.E.P.Z.H.P.U.P.N.y.%.G = e f d u d o.o...f f t t f f i f u X.o.X.i u ",
"u i f X.X.o.X.f X.X.o.o.o.o.o.f i f f t $ + * H | j._.:X>X4X>X>X2X6X7X7X8X3X:X;X=X=X@X@XOXXXQ.W.P.V.V.P.P.H.N.e.| F % + u f X.o.X.t $ f f f t f $ u f X.X.f f u ",
"u i X.X.X...f f f ..f f X.o.X.f f ..f d e - H -.k._.:X2X:X>X:X2X6X0XwXqX0X7X,X:X:X;X&X@XOXoXXX XE.P.H.V.H.I.I.N.r.#.I = e f X.o...t t d f t t $ $ $ X.........$ ",
"$ f o.X...$ f f ....f t ..o.X.X.X.o...d r E -.M.{.2X5X2X:X-X,X6X9XqXwXwXwX0X6X3X2X:X-X@XOXXXOXOX(.E.P.H.V.I.T.T.Z.y.%.P r d X.o...f $ $ $ $ $ $ $ $ ........i $ ",
"u i X.X.i # $ i o.o.X.X.X.X.f X.o.o.t 6 E -.j.`.>X5X5X2X:X,X6X0XqXqXqXwXqXqX0X9X3X2X=X@XOXXXoXoXXX(.E.P.V.P.T.T.I.V.r.| H - d X.o.X.d e $ $ t i ........X.o...$ ",
"u f X...f f u i o.o.X.X.o.X...o.o.X.q < { f.).:X>X|.|.*X,X3X9XqXqXqXqXqXqXqXqX0X3X:X=X@XoXXXoXoXOXOXXXQ.U.V.B.B.Z.P.v.r.@.P ; g X.o.f f f f X.X.X...X.....X.X.$ ",
"u i o.o.o.o.o.X.o.X.f f ..X.o.o.o...& X $.n.$X,X).A.S.`.2X8X0XqXqXqXwXwXwXqX0X6X3X:X=X@XoXXXXXOX@X%X%X@X/.F.s.r.z.H.I.V.t.#.R 6 t f X.o.o.o.o.o.o.o.o...f ..$ $ ",
"$ u X.o.X.i X.o.X...f d ..o.o.X.X.f O X @.n.#X#XA.1.9.D.>X5X5X8X9X0XwXwXqX0X6X,X:X:X=X@XOX(.XXOXOXOX%X&X XC.2.%.,.v.I.T.N.t.-.P 6 t X.o.o.o.o.o.o.X.....X.f $ # ",
"$ i X.o.X.i ..X.X...f t ..X.X.f $ e 6 P 3.G.#X{.l.>.1.k.`.[.[.$X<X0XwXwX0X8X,X-X;X:X-X%XOXOXOXOXXXQ.R.~.Y.b.,.$.=.c.I.W.I.v.7.! < w X.o.o.....o.o.....X.o.$ $ # ",
"u i o.o.X.i i X.o...t f f d u # q 5 E ;.A.{.=X$X!.k.i.i.f.i.a.A.].1X0XqX9X3X:X;X;X;X:X=X&X%X&X.XR.b.p.p.t.r.6.7.t.N.P.W.T.N.e._ 3 + ..o.o.i i ..X.o.o.o.o.o.f f ",
"$ i X.X...f ..X.....f $ f X.f w = T 3.S.|.>X>X:X*X[.D.9.O.A A >.k.}.2X<X-X:X-X:X:X:X&X+XOXOXOX~.b.,._ ) O.,.t.m.V.Z.U.T.P.v.e.) , & f o.o.....X.X.o.X...f o.X.f ",
"$ i ........X.X.i o.X.i X.o.o.w 2 ` t._.2X5X>X4X5X4X).3.B j l A 3.l.L.K.K._.$X:X2X:X.XR.F.B.H.m.2._ v l B %.s.P.W.U.P.I.H.c.4.! , q f o.X.X.X.X.o.X...t $ o...$ ",
"$ u f f X.o.o.o.o.o.o.o.i f o.w > ` i._.<X4X>X4X5X4XK.>.B j l m { &.1.:.1.k.`.>X4X&XR.x.<.%.=.*.' V z k b O.t.P.W.P.P.I.H.c.6.! 3 q t X.o.X.X.o.X.......o.o.$ # ",
"$ $ i $ f X.X.X.o.o.o...f f X.e 1 / 9.).*X4X2X>X4X<X).p.' B v v v b V C O.j.).:X2X$XY.g.%.C V B b b b m ' <.z.H.U.P.P.U.H.c.6.! 3 w t f ..f ..o.o.X.....o.o.$ @ ",
"$ $ $ $ t ....X.o.o...i f X.X.e 1 / 8.G.=X>X:X2X2X>X[.G.i.#.C z   j v ) 3.A.'.&X-XOXT.m.2.Z b z . v C O.8.x.N.H.P.P.I.I.H.c.6.! 3 w f f f t f o.X.o.X.X.X.o.$ # ",
"i $ $ u $ $ i X.o.o.X...f f X.@ : ! 6.H.+X:X:X>X>X:X;X|.L.i.' x j x ' u.K.{.%XOXOXOX(.(.C.6.} b . v ` 8.C.T.U.H.V.Z.P.I.P.c.6.! 3 w X.o...o.X.f i $ X.o.o.X...$ ",
"u i i i ....f ..........X.X.f q > ! 6.Z..X=X-X:X:X:X2X2X*XK.9.] A ] u.L.*X>X;XOXOXOX%X&X.XH.q.@.Z ' 2.B.~.oXE.H.V.Z.P.I.Z.c.6.! 1 w ..o...o.o...$ $ o.X.$ $ ..f ",
"$ i X.X.X.o.....i f i X.X.X.f w 4 / 6.V.oX@X@X&X=X:X4X5X2X|.K.k.d.j.L.#X:X>X=XOXOX@X&X,X&X XH.y.q.p.N.Q.@X@XQ.H.N.Z.I.I.H.c.6.! < q f X.....X.o...i X...$ ..$ $ ",
"+ u X.X.X.X.X.X.X.f f X.o.o.X.e 1 ! 6.F.oX@XOX%X&X=X,X2X:X-X$X[.[.|.#X%X%X@XOXOXOXOX@X@XOXoX(.~.R.E./.XXoX(.T.H.V.Z.P.I.P.c.6.^ 2 e ..o.........X.X.X.f f o.i # ",
"# u f f f X.f i f f f X.......q : ! 7.F.OX@XOXOX%X&X=X=X=X-X:X,X2X2X=X XY.Z.C.F.F.F.C.C.J.^..X%X%X@X@X@XoX(.T.Z.V.Z.I.I.V.v.6.! , & t f f f X.X.o.X.f d f o.f u ",
"i u u i f f $ $ u u f f f f f O : ! 8.H.OX%XOXoXOX@X@X%X@X@X=X:X2X,X+XF.r.=.=.<.,.,.2.,.q.B.(.-X-X&X@X@XOX(.T.H.V.Z.P.U.H.c.6.! : O e d t ..o.o.o.f i u u f i i ",
"$ i X.o.o...u u f u u ..X.o.o.e 1 ^ 6.F. X%XOXoXoXoXoXOXOXOXOXOX%X.XF.q.} V n m n n V n { 2.C.~.%XOXOXOX XQ.T.Z.B.Z.P.I.P.c.6.! 2 * f X.X.....X.X.X.f i i X.i u ",
"$ d X.f X.o.X.X...f f f o.o.o.w 1 ~ 7.V. X@XOXOXoX(.oXoXXXOXoX(.E.m.5.' b k   .     . . v { 2.b.~. XOXOX/.T.U.H.V.Z.I.T.I.N.7._ 2 w X.o.X.f f f f f X.X.f f f u ",
"u $ u d f o.o.o.X.X.X.X.o.o.i q 1 _ 5.N.^.OXOXOXoXoXXX(.oXOXOXT.m.6.A n z k . . k . . . z b Z ,.m./.OXXXT.P.H.Z.Z.Z.I.T.I.N.0.~ 2 w X.X.X.f f i d d X.X.X.f i i ",
"# # u f f f f f f d d d i f f e 4 Y #.r.V.T.(.oXOXoXoXoXOX@X@X~.x.:.) Z Z Z Z ) { Z Z C C Z _ &.h.R.XX^.I.V.Z.Z.H.P.P.H.N.z.,.Y 1 p X.o.X.f i i p u X.X.o.f u @ ",
"# # u X.f u u u d $ $ u $ u f u r K { =.t.N.T. XOXoXOXOXOX@XOX^.B.p.<.6.8.q.q.q.8.8.q.q.8.6.2.t.m.Y.W.I.Z.V.V.Z.I.I.P.N.t.,.{ D - d X.o.o.f X.i i f X.o.X.u @ + ",
"# u u i f u # $ $ $ $ $ t $ # t g 7 H { &.r.N.^.oXoXOXOXOXOXOX(.~.Y.J.J.J.Y.Y.J.Y.J.J.J.J.Y.Y.Y.U.U.P.H.Z.Z.Z.H.I.T.B.y.=.` P 4 s f X.o.o.o.o.o.o.X.o.o.X.u # # ",
"# u i i f u u # # t u # u f f f d a 0 H { $.0.B.^./.oXoX/.(.oXOXOX@X.X@X+X.X+X@X+X%X#X%X#X@X.X XE.H.V.B.Z.P.P.P.P.B.y.:.Q G 9 s g f o.o.X.X.X.X.i i d X.X.X.i u ",
"u u i i X.X.u u d f f f f ......d a a 5 2 U #.t.N.^.^.~.^.^.(.OX%X&X&X&X&X&X&X&X&X&X&X&X&X%XOX/.T.Z.B.B.Z.P.I.P.N.y.:.Q D 4 r s f X.o.X.f f X.X.d # u f o.X.i i ",
"u i i o.o.o.f f X.X.o.o.X.X.o...d a a s 5 2 Y &.r.N.I.I.Z.^.(.oXOXoXoXOXoXOXoXOXOXoXOXOXoX/.T.P.Z.Z.Z.Z.H.I.U.B.t.=./ D 5 r a r p X.o.X.i f o.o.d @ u X.X.i i i ",
"# u i f o.o.o.X.t f o.o...f o.f p d p s h 5 D Q &.r.v.Z.P.^.(.(.(.(.^./.^./.^././././././.T.P.Z.Z.I.U.T.I.P.V.y.:.Q H 5 r s g p d X.X.X.X.o.o.o.f f o.o.o.f u p ",
"@ u f i X.o.o.X.d d f o...f o.f i f d a a a 7 8 Q @.q.v.Z.^.^.^.E.T.I.I.T.T.I.T.I.T.T.T.I.P.Z.V.Z.P.T.T.I.N.y.*.Q H 8 ; a g f d f X.o.o.o.o.o.X.X.o.o.o.X.X.d u ",
"u i f o.o.o.X.X.X.f f X.X...X.X.o.i p * r s s 5 S N &.w.N.V.V.N.V.Z.H.H.Z.H.P.Z.H.Z.Z.Z.H.H.H.Z.V.N.V.P.N.t.*.Q D 5 * * r d f d u f X.X.X.o.o.X.f f f f f X.f d ",
"u i X.X.X.o.o.X.o.o.X...X.X.X.o.X.i u @ w w a ; 1 2 { &.r.t.t.y.c.Z.T.I.I.P.P.P.I.P.I.I.I.I.T.P.N.s.y.y.e.,.( H 5 ; ; * q e g d u f f f i X.X.X.X.X.X.X.o.o.f f ",
"$ f X.d f o.X.X.o.o...f f X.X.o.X.i i i p p a ; ; 7 H { %.$.$.=.t.B.Y.I.P.P.P.P.P.P.H.H.P.I.T.Z.g.,.$.%.@.{ K 0 a ; ; p @ u i i f f f f f f X.o.o.o.o.o.X.o...i ",
"u d f t d f f f ..f t t t d X.o.o.X.f f i u g s s s 7 H U M m { >.t.N.N.v.c.c.c.c.v.c.c.v.N.N.z.<./ N m N G 0 a p s s d i X.X.X.X.X.X.o.o.o.o.o.o.o.o.i i X.i i ",
"u i ..d d f f f f d d f d $ ..o.o.o.o.f i i f f g g y J 2 2 2 H { =.0.r.4.4.7.7.4.4.7.7.7.0.e.5.{ G 2 S 2 8 7 a g p f f i X.X.o.o.o.o.X.f X.X.X...i ..i i i i i ",
"$ f o.f f f f f d d f X.d $ ..X.o.X.o.o.i i X.f d s h y 7 ; y 0 R { @.@.+.} +.} } +.} @.+.$.+.{ I 9 ; ; 5 5 h s d f f o.i i X.X.o.o.o.X.f f X.X.i u ....i $ u i ",
"i f X.o.o.X.X...f f u $ # u o.X.f X.X.o.o.o.o.f d g s g g f g h J I U N U L L L L L L U U U U L J 5 ; @ * p s g d f X.o.o.o.o.f X.X.X.o.o.o.o.o.o.o.o.o.o...i i ",
"u f X.X.o.X.X.o.o.X.f f f ..o.o.X.i f o.o.X.f X.f d f i d d g h 7 8 8 8 9 8 8 9 8 8 8 8 8 8 8 9 0 r p p d f f f f f f X.o.X.f X.X.X.X.f X.X.X.X.o.X...o.o...i i ",
"u i o.X...X.X.X.o.o.o.o.o.o.o.o.o.u i i f p i o.o.i f i u @ w r ; ; ; a a a a a 7 a a h a r a a h a s d X.o.o.o.X.d f f f u i o.X.f f d d d f f i i i X.o.X.i i ",
"i i i X.o.o.X...f X.o.o.o.o.o...f f i u i i f o.X.p i f u p p w O p p d p g d d f d p d g f d p p p d f o.o.X.f f f d d u f X.o.X.u d f f f d d u u i ..X.X.i $ ",
"u i ..X.X.X.f f f f f f X.o.X.f f X.f f f ..X.o...t $ f d t # # # # f f f f f f f f f f ..f f f t d d d X.o.X...f ..f f f ..o.o.X.$ $ f f t t $ $ $ X.......i $ ",
"u i o.o.f u f f X...f t f X.X.X.X.o.X.X.o.o.o.o...f t $ $ $ t t $ u X.X.f f X.X.X.X.o.o.f $ t ......d t f o.X.X.X.o.X.X.o.o.o.o.X.d t t # $ t u $ $ X.X.....i $ ",
"u f X...d # # d o.o.X.X.o.o.f X.o.o.o.o.o.o.X.o.o.X.f # $ $ t f f f f f X.o.o.o.X.X.X.X.i # $ i o.o.o.X.o.X.f X.o.o.o.o.o.o.X.X.X.X.f # $ $ f f i ........X...i ",
"u i X.X.f f u f o.o.o.X.X.X.X.X.o.X.o.o.o...f X.o.o.f f i f ..X.X.X.X.X.X.X.X.o.o.X.X.f f f $ f o.o.o.X.X.X.X.X.o.o.o.o.o...f X.o.o.f f f i ..X...o.......X...i ",
"$ ..o.o.o.o.o.X.o...f f ..o.o.o.o.X...X...f t X.X.o.o.o.o.o.o.o.o.o.o.X.f f X.X.X.X.X.o.o.o.X.o.X.X.f d X.o.o.o.o.X.X.X...f u X.o.o.X.o.o.o.o.o.o.o.o.......i $ ",
"$ $ ..o.X.f X.o.X...f d ..o.o.o.f X.f f X.o.X.f ..o.o.o.o.o.o.o.o.X.f X.X.f i f X.f ..o.X.f X.o.X.X.f u ..o.o.X.....i f X.o.X.i ..o.o.o.o.X.o.o.o.X.......i $ # ",
"$ $ X.o.X.$ ..X.o...f u f X.X...f X.f f X.o...f ..X.o.o.o.....X.X.X.f o.X.f f f f X...o.X.u ..X.X...f u f X.X.X.i ..f f o.X.X.i f X.o.o.o.X...o.o.....o.o.i $ # ",
"$ ..o.o.X...i ..o.f u u i f i i f X.o.o.X.d $ X.o...o.o.o...i X.X.o.o.o.o.X.o.o.o.o.o.o.X.f i X.o.f d d f d d f f X.o.o.X.i u X.X.X.o.o.o.f i X.X.X.o.o.o.X...$ ",
"$ i X.X...f ........i u ..X.f f ..X...f ....X.X...t X.o.o...f X.o.o.X.i i o.o.o.X.X.X.X...f f X.X...f $ ..X.f f ..X...f X.X.X.X...i X.o.o.f f X.o.o.X.i ..o.....",
"$ i ..X...X.X.X...X.X.i ..o.o.X.X.o.f i i o.o...f f ..o.o.X.X.X.o.o.i i i o.o.o.X.f f X.f X.o.X.f o.X.f ..X.o.X.X.o.f u f X.X.f t ..X.o.o.X.X.X.o.o.X.$ $ o...$ ",
"$ i i i X.o.o.o.o.o.o.o.i f o.X.X.o.X...X.....$ $ X...X.o.o.X.o.X...i ..X.o...f f X.f f X.o.o.o.o.o.o.o.i f o.X.X.o.o...X.X.f u $ ....X.o.o.X.o.X.......o.o.$ # ",
"$ $ u i i o.X.X.o.o.o.X.i i o.o.X.o.X.X.o.X.f $ ..X.i i X.t ..o.o.o...X.o.o.f $ f f u u f X.X.X.o.o.o...f f o.o.o.o.X.X.X.X.f u ..X.f f f f ..o.o.X.....o.o.$ @ ",
"$ $ $ $ i i ....o.o.X.i i X.o.o.o.......o.o.X.f ..X...f $ i ..X.o.o...X.X.o.f f X.i u u f f f f o.o.X.i i X.o.o.X.X.X...o.o...f ..X...i i f f X.o.X.X.X.o.o.$ @ ",
"i $ $ i $ i i X.X.o.X...i ..X...d f i f o.o.X.X.X.o.o.X.X.X.X...u u X.o.o.X.X.o.o.f u u u d f X.X.X.X...i ..X...f i d f o.o.X...X.o.o.o.f X.o.f $ i o.o.o.X...$ ",
"# # $ $ i $ i i $ i $ i i i i i d u u f $ ..f ..f f X...f ....$ # # f i $ u f f f d # u u u u i i $ i i i i f i $ u u f f f f f f ......f f ..f $ # i i $ $ $ # ",
"+ @ # $ $ i $ $ $ @ $ $ $ $ $ $ i u i u # $ $ f $ $ $ $ $ $ $ f # # $ # + # # u u # # u d u u # # @ $ $ $ $ # $ f u i u # # $ f $ $ $ $ $ $ t i # # $ # + @ @ + "
};
