/* XPM */
static char *__resized[] = {
/* columns rows colors chars-per-pixel */
"80 80 229 2 ",
"   c #19180E",
".  c #1A1915",
"X  c #1B1A19",
"o  c #221B1A",
"O  c #24191A",
"+  c #1D2D0F",
"@  c #1F2A14",
"#  c #1F3115",
"$  c #222D15",
"%  c #2D2817",
"&  c #24221B",
"*  c #2A231E",
"=  c #252C1A",
"-  c #233315",
";  c #243A14",
":  c #293618",
">  c #2A341A",
",  c #2B3D19",
"<  c #373717",
"1  c #35351B",
"2  c #261B26",
"3  c #2B1D22",
"4  c #311F27",
"5  c #2C2123",
"6  c #2F2921",
"7  c #2D232B",
"8  c #2C2A28",
"9  c #332525",
"0  c #392A23",
"q  c #34252A",
"w  c #38252B",
"e  c #35282A",
"r  c #3C2B2C",
"t  c #383226",
"y  c #3E2C31",
"u  c #3E3434",
"i  c #42261F",
"p  c #46371D",
"a  c #462A26",
"s  c #42312F",
"d  c #4F3328",
"f  c #59362A",
"g  c #443333",
"h  c #493838",
"j  c #573D35",
"k  c #633C29",
"l  c #723D2D",
"z  c #633E32",
"x  c #2A4615",
"c  c #2D4419",
"v  c #2E4B19",
"b  c #334D1A",
"n  c #3C4E1A",
"m  c #2E5117",
"M  c #32541A",
"N  c #37561A",
"B  c #345C1A",
"V  c #36631B",
"C  c #39651C",
"Z  c #3D6D1D",
"A  c #3F711F",
"S  c #38472B",
"D  c #385328",
"F  c #3D6722",
"G  c #3F7320",
"H  c #4C461C",
"J  c #45551B",
"K  c #754F15",
"L  c #426D1D",
"P  c #4B691D",
"I  c #58691C",
"U  c #41741F",
"Y  c #4C731E",
"T  c #43781F",
"R  c #54751E",
"E  c #756F19",
"W  c #67761B",
"Q  c #4C4123",
"!  c #584C2B",
"~  c #494538",
"^  c #56443A",
"/  c #475632",
"(  c #674528",
")  c #75472E",
"_  c #634232",
"`  c #684B38",
"'  c #744933",
"]  c #69573B",
"[  c #775633",
"{  c #417620",
"}  c #4C7621",
"|  c #457C21",
" . c #4A7B22",
".. c #47712C",
"X. c #4A792A",
"o. c #5B7520",
"O. c #537B21",
"+. c #59792F",
"@. c #557E37",
"#. c #687B22",
"$. c #737B22",
"%. c #7A7822",
"&. c #493B41",
"*. c #4F434B",
"=. c #594544",
"-. c #5E4945",
";. c #5C4A4B",
":. c #634E48",
">. c #695B45",
",. c #64524D",
"<. c #6A554D",
"1. c #755A4A",
"2. c #614F50",
"3. c #6E5951",
"4. c #6F6342",
"5. c #77654B",
"6. c #786358",
"7. c #7D7250",
"8. c #7D6D66",
"9. c #82501E",
"0. c #8C4D2F",
"q. c #8A5A34",
"w. c #9A5336",
"e. c #995734",
"r. c #A25836",
"t. c #887B20",
"y. c #966534",
"u. c #B06F26",
"i. c #A76736",
"p. c #B26D30",
"a. c #A97738",
"s. c #B77933",
"d. c #875F40",
"f. c #886949",
"g. c #997846",
"h. c #856D58",
"j. c #887B54",
"k. c #987C57",
"l. c #A67C45",
"z. c #897566",
"x. c #478022",
"c. c #498423",
"v. c #4C8A24",
"b. c #4D822B",
"n. c #4F8B29",
"m. c #558628",
"M. c #56912F",
"N. c #5B8637",
"B. c #668627",
"V. c #778727",
"C. c #629237",
"Z. c #70913C",
"A. c #7B9445",
"S. c #868425",
"D. c #988727",
"F. c #868C30",
"G. c #88973D",
"H. c #A68A26",
"J. c #A6942A",
"K. c #B49428",
"L. c #B98D3E",
"P. c #AAA331",
"I. c #B4AE39",
"U. c #CE862F",
"Y. c #C89B2B",
"T. c #C78736",
"R. c #D79035",
"E. c #E8982E",
"W. c #E79A31",
"Q. c #C7A633",
"!. c #D9A438",
"~. c #D4B235",
"^. c #E8AA38",
"/. c #E7B83A",
"(. c #F3B539",
"). c #EBC935",
"_. c #F5C739",
"`. c #998659",
"'. c #A6854B",
"]. c #B78C48",
"[. c #AA9859",
"{. c #9EA452",
"}. c #ABA952",
"|. c #9C9669",
" X c #A59664",
".X c #ACAA68",
"XX c #BBAB67",
"oX c #C49644",
"OX c #D29D50",
"+X c #CAAE4C",
"@X c #D5A548",
"#X c #D5BC40",
"$X c #C9BA58",
"%X c #EAAE44",
"&X c #E6B74D",
"*X c #CAB466",
"=X c #B5C271",
"-X c #D7C85C",
";X c #E9C544",
":X c #F6C645",
">X c #F6D748",
",X c #EBCC5C",
"<X c #F6D459",
"1X c #F3E058",
"2X c #C6C469",
"3X c #D7CB6E",
"4X c #CDCC73",
"5X c #D8D279",
"6X c #F8D767",
"7X c #EEDD77",
"8X c #F0D170",
"9X c #FDE663",
"0X c #EFE47C",
"qX c #F8E57A",
"wX c #D9D684",
"eX c #DBDA96",
"rX c #E2DE9C",
"tX c #EAE28A",
"yX c #FAE884",
"uX c #FEF283",
"iX c #F6EB95",
"pX c #FDF79B",
"aX c #F7F7AB",
"sX c #F8F8B7",
"dX c #FDFCCC",
"fX c #FDFDD6",
"gX c #FFFFEE",
"hX c #FFFFF2",
"jX c #FFFFFC",
/* pixels */
"m V U Z A A A A T Z A A T A T A A A | T A Z A x.T A T T A Z Z A A { { A A | T Z C Z G A A A } { { Z Z { U U T U U U U U Z Z A T { U { { A Z Z Z U { { A A T Z B ",
"C Z U U { { A A A A A T T T T A A G A A A A { G A A A A G { { | | { U Z A T | | { G A { m.Z.+...} Z { { { | U U A U { A A A U T { Z A A A { | | | { U A A | U Z ",
"T T U T | | A A A A T x.| | | { G | A A A T | A G A A A G x.v.v.v.x.U A A | v.v.v.x.{ | Z.{.A.+.{ { { c.| | | T { { { Z U { | { { G Z A { x.v.v.v.x.U Z A | T T ",
"U T c.v.v.x.{ U T T T c.c.v.v.v.c.c.A A T v.v.c.x.x.c.c.c.x.x.v.c.c.c.T T x.x.x.x.c.c.c.#.%.E I Z G { | c.c.v.v.c.x.{ A | c.v.c.x.x.c.x.x.x.c.c.c.c.x.{ T c.T A ",
"U U x.x.c.v.c.x.x.| | c.v.v.v.c.c.c.x.x.v.v.v.v.v.v.v.v.c.x.| x.| | c.x.| x.x.c.x.x.x.x.R W E E $.O.T x.v.v.v.c.c.v.x.x.v.v.v.v.c.v.v.v.c.| | | | | v.x. .| { U ",
"U U U U x.v.v.v.c.c.x.c.v.v.| | x.v.v.n.v.v.v.v.v.v.v.v.c.{ { | G { c.v.v.{ x.v.c.| { G x.m.#.H.Y.V.T  .c.v.|  .x.v.v.v.v.v.v.v.v.v.v.v.c.| | | A { c.v.c.| { { ",
"Z Z U T  .x.| | | { { { { | c.v.c.c.x.{ { | x.c.c.v.v.c.c.T { { Z Z x.v.v.| { { x.T T T x.T o.D./.K.$.L U | c.c.c.c.x.{ { | x.c.v.v.v.v.c.| { { Z Z x.v.v.| Z C ",
"Z Z U x.T U U U G A G G A A { c.v.x.| | | { { T | v.v.v.v.x.x.x.| | c.v.v.{ A { | T A x.T U P D._.^.D.L C L } c.v.x.x.{ | | { { | v.c.v.v.x.x.c.| T c.v.v.{ Z V ",
"Z A T x.x.A A A A G A A G A A G x.x.c.v.v.| U A T v.v.v.v.v.v.v.x.c.v.v.c.G G | x.| { x.{ A P D._._.P.L J I I O.x.x.c.v.c.x.G G { v.v.v.v.v.v.v.v.c.v.v.c.A Z Z ",
"Z A U | | G A A A G A A { | G c.c.c.v.v.v.c.| c.c.v.v.v.c.c.c.c.| { { c.v.x.c.c.| G G | T U W K.1X<X}.U I t.D.V.c.x.v.v.v.v.| c.v.v.v.v.c.c.c.c.{ G { c.v.c.{ T ",
"A A { x.c.x.G G { { | | | c.c.v.v.x.v.v.v.c.c.v.v.v.v.c.T x.c.c.A F Z | v.c.c.v.c.| G x.R W J./.9XqX=X| W H.K.V.c.c.c.v.c.c.c.v.v.v.v.c.| | c.c.G Z A | v.x.| T ",
"T A G v.v.v.| | x.v.v.v.c.c.v.v.v.x.v.v.| x.v.| c.v.n.x.T x.v.v.{ Z G c.v.{ | v.v.x.G c.B.H.;X9XqXiXXXN.t.H.H.B.v.c.v.v.| c.c.x.c.v.v.c.{  .v.v.{ Z A c.v.A U U ",
"A A U x.v.v.v.x.{ { c.v.x.x.v.x.| c.v.v.c.v.v.c.c.v.v.v.c.v.v.v.c.x.c.v.v.| |  .x.G G x.B.H.,XuXpXqX-XI.~.~.D.#.c.c.v.c.c.v.v.c.c.v.v.v.c.v.v.v.c.x.c.v.v.{ U A ",
"Z A T T c.v.v.c.G G | v.x.| c.x.| v.x.| v.v.v.c.x.v.v.v.v.v.v.v.c.v.v.v.c.x.c.c.x.| | G W H.,XyXuX9X>X>X).Q.$.} G c.c.x.v.v.c.c.c.c.v.v.v.v.v.c.c.v.v.v.c.x.{ U ",
"A T c.v.v.v.c.c.v.x.| v.x.x.x.v.v.x.{ Z | v.v.{ T | c.c.c.v.v.x.| | x.x.x.x.v.v.c.x.x.c.V.K.;X<X,X<X>X>XQ.S.m.v.v.c.G G G v.v.G { | c.c.v.v.v.x.| | | x.x.c.x.{ ",
"A T v.c.c.v.c.v.v.v.c.x.c.c.c.v.v.| A Z { | | U A T |  .T x.c.c.x.x.x.c.v.v.v.v.c.c.v.x.R S.Q./.:X:X).I.F.R T R m.| G G G | c.G G | | x.{ | c.c.c.x.c.c.c.v.x.T ",
"U T c.| | v.c.c.v.v.c.{ | c.v.v.c.| T { G G { { | | | | { | x.v.v.c.v.c.c.v.v.v.x.c.c.U A R S.Y._.(.Y.$.Y | } $.%.L U T T T | { | | | | { | c.v.v.v.v.c.v.v.x.T ",
"T T { A U | | x.c.{ G G G { c.v.v.c.c. .x.c.v.v.c.c.v.c.v.v.v.v.n.c.c.} Y x.v.v.v.x.{ A U Y R S.^.^.K.P Z U R S.D.#.T T | c.v.c.c.c.v.c.v.v.v.v.v.v.v.T { c.x.T ",
"U T x.T { { | | | { { | G G | v.v.v.v.x.| x.c.v.v.v.v.v.c.c.v.v.| |  .V.F.T x.v.c.x.x.U U T A o.S.Y.K.Y Z Z R B.S.D.$.L G x.v.v.v.v.v.v.x.c.c.v.x.T c.T U { T T ",
"A T v.x.| | | { { { | c.{ G x.c.v.c.c.c.| | x.v.v.v.v.c.{ | x.c.{ L } P.;X$.Y c.x.c.v.c.| { { { I D.D.Y A A x.T V.Q.H.W O. . .v.v.v.v.c.{ x.c.c.T A x.x.| A A T ",
"{ | x.v.v.v.x.x.x.{ { G Z { v.c.x.x.c.v.v.v.v.x.x.c.c.v.v.v.v.v.v.x.O.I.>XQ.V.Y v.c.x.v.v.c.c.x.| R Y L Z U v.T B.~.~.K.G.C.M.c.x.c.c.v.v.v.v.v.v.v.v.v.v.| | T ",
"U | c.v.v.c.c.v.v.c.| { | c.v.v.c.| x.c.c.x.x.c.c.x.x.x.c.c.c.c.x.B.G.-X9X>XJ.R x.v.c.c.v.c.c.v.c.| { { | x.v.x.B.~.).).}.A.c.c.c.c.x.x.c.c.c.c.v.c.c.v.v.x.T T ",
"U T v.c.x.c.c.v.v.v.v.v.v.v.v.v.c.{ | x.{ { { v.v.x.| | G G | | L B.-X0XqX<XP.R  .c.v.c.x.x.c.v.v.v.v.v.v.v.v.x.B.#X).).2XA.A v.v.| x.G G G x.x.T U { c.v.x. .T ",
"T T | c.c.v.c.| x.c.v.v.v.v.v.x.| { { { { { c.v.c.G { { | | | { L V.-XyXqX}.V.Y c.c. .x.v.v.x.| x.c.v.v.v.v.c.T B.~.~.K.G.N.c.v.v.G G | | x.G G A { | x.c.x.T A ",
"U T x.c.c.c.| | x.x.| | c.v.c.| | c.| { T x.v.v.c.A G { | G G A L o.{.$X+XF.R T c.x.x.c.c.x.x.| | x.| { c.v.c.{ B.I.K.E m.m.v.v.c.A A T x.A A A A A x.x.x.c.x.A ",
"A | c.v.| A G x.x.x.{ G x.v.c.x.c.v.v.c.v.v.c.v.c.{ { A A A G G G L Y t.D.R x.c.x.c.v.v.| A G x.c. .{ { | v.c.| W D.%.U v.v.v.v.c.A A A A A A A A A c.c.x.c.A A ",
"U | c.x.T Z A T v.v.c.c.c.c.| c.v.v.v.v.v.v.c.v.v.c.{ A A A G { | | | m.m.c.v.v.c.c.c.x.{ A A { n.v.c.c.v.c.| x.c.B.R x.v.v.c.v.v.c.A A A A A x.T x.x.x.c.c.x.A ",
"U | c.x.x.T A T n.v.v.c.v.c.x.v.v.c.v.v.v.x.x.c.v.v.x.{ A x.c.c.c.c. .L C C V V C C V V B M m B G c.v.v.c.c. .c.v.x.c.v.c.c.T c.v.v.c.T G c.c.c.c.c.c.x.c.c.c.A ",
"U T v.v.v.v.v.v.v.c.| { c.v.v.v.v.c.c.c.c.| A c.v.v.c.v.c.v.v.v.c.c.| J < @ # # - - - - - - @ - m A | { x.v.v.v.v.c.c.c.c.T T x.c.v.v.c.v.v.v.v.v.v.v.c.x.x.A A ",
"Z T x.v.c.T c.v.c.x.| { c.v.v.v.x.x.{ | c.v.c.| | v.v.v.v.v.x.A C N b Q ( K H t 8 e 0 6 6 6 6 6 > v V { x.v.v.v.x.| | T c.v.c.T x.v.v.v.v.v.v.v.c.c.x.c.c.T A Z ",
"A T x.v.c.T x.c.c.x.| { | v.c.x.| x.| | v.v.c.T x.v.v.v.v.| Z v x > > ^ d.L.a.] ^ &.h g g g g u e 1 b F | x.c.x.| x.T x.c.c.c.T c.c.v.v.v.c.c.c.c.c.T c.v.T A A ",
"U x.v.v.c.| T x.v.| G { { { T { | c.v.v.x.A A c.c.x.v.v.c.Z b 6 6 6 u 2.k.OX@X].h.3.,.:.-.^ =.^ j d p n L T U T | x.v.v.c.T U v.c.c.v.v.v.T T c.c.v.v.v.c.c.x.T ",
"A T c.c.x.| x.x.x.c.| G | c.| x.x.c.x.T T c.c.c.x.T c.v.{ v , g j =.:.6.z. XOXOX].f.2.,.:.=.^ &.` q.0.( J U  .x.x.c.x.| x.x.x.c.c.{ c.v.v.| | c.v.v.c.| x.c.c.T ",
"A A x.x.x.c.c.c.| c.c.{ x.v.v.c.c.v.| T c.c.v.c.T T T Z M > g -.3.6.6.z.z.8.`.].oXl.1.3.;.j h ' y.i.e.l d N U x.c.c.| T x.v.v.x.{ { c.v.v.c.x.v.v.c.x.G A v.c.A ",
"A T x.| c.v.v.v.v.v.v.v.| { v.c.x.v.v.x.c.R T T T x.Z m 5 u -.,.6.z.z.z.z.6.6.f.'.oX'.d.*.&.` y.s.q._ j 0 > M Z c.v.c.x.c.x.T T { c.| c.v.c.c.v.c.x.x.x.v.v.A Z ",
"A A A A | c.c.c.v.v.v.c.| | v.v.v.v.c.c.v.c.T T A Z J ! ( ^ =.;.,.6.z.z.6.3.2.<.g.OX%Xl.1.' y.s.s.[ h g e 5 ; C v.v.c.c.c.x.| T | c.| | x.| x.v.v.c.x.x.v.v.A C ",
"A A A A G x.x.x.v.v.c.A | x.v.v.c.c.x.x.v.v.c.T Z m H K i.f.,.,.<.3.6.6.3.3.*.2.f.@X(.R.s.p.U.R.s.1.u u q 5 > V v.c.x.x.n.v.x.T x.c.x.| { { | c.v.v.x.c.v.v.A Z ",
"T A A T G A | c.c.v.c.c.| x.c.| { | T | v.n.v.c.B + p q.oX`.`.`.j.3.-.:.3.3.2.,.g.oX(.E.W.%X:X&X].` g g 7 6 ; V { { T | v.v.c.c.x.v.v.v.x.v.c.| U T v.v.v.x.x.A ",
"T A T T c.x.| x.x.x.x.c.x.x.| x.| x.| x.c.c.c.c.B + 0 ' g.*X5XwX.Xj.-.-.<.<.2.,.f.oXW.E.%X6XyX7X*X>.e u 9 * - V x.x.| x.x.c.c.v.c.c.v.c.c.c.v.c.U U v.c.T | T | ",
"A T x.v.c.c.x.x.T | T c.c.x.x.c.v.c.v.v.T T c.T N < p ` `.7XaXaXrX.X5.-.-.,.;.;.d.s.E.^.,XpXsXrX*X>.e r e 6 $ M | x.v.v.|  .c.v.v.c.x.c.x.c.c.v.T T c.T A T A A ",
"C A c.x.c.c.c.c.c.| | c.v.c.v.c.c.v.v.c.| n.X.D H K u.U.@X7XaXfXfXrX[.>.h j &.&.' s.^.<XiXdXfXaX2X] q r r 0 * % v U v.v.| | c.v.v.v.v.c.c.| | x.c.c.v.x.x.v.T A ",
"Z A | | | x.| | x.| | c.c.x.c.| | | x.{ { b.N.~ f 9.u.T.@X7XsXgXhXfXrX X3.~ h ` a.@X6XaXdXhXhXsX2X] w w r r O   $ Z { | { | x.c.| { | | { x.c.c.v.c.| U { v.x.T ",
"T T T T x.| A A G { G x.| | { G { { { A G b.N.^ k k [ q.'.5XaXgXjXhXdXeX X>.( 0.!.8XaXdXhXjXgXsX2X] q y r w 3 O $ V A Z { { | { { G Z G { x.v.v.c.x.U A U | T T ",
"A T c.v.c.x.U U | G { x.c.v.v.v.c.x.G A | M.N.! d w g h >. XeXdXgXgXdXiX-Xg.y.i.L.*XeXfXgXgXdXtX}.] 7 q q 6 4 4 < G G A | c.v.c.x.| c.c.c.x.c.c.c.c.c.T U x.T A ",
"A { x.x.c.v.c.x.c.| | x.v.v.c.c.c.c.x.| v.M.N./ 9 O q g &.>. XeXsXsXiX8X%XT.a.q.` 5.|.eXdXsXiX*Xi.j r s y w a i p L G x.c.v.v.v.v.c.v.v.c.| | x.| | c.x.| x.{ U ",
"U A { { x.v.v.v.c.c.c.c.v.v.x.| c.v.v.n.v.M.N.S O O r h g y ] [.4X5X$X!.U.U.y.j 2 7 ^ [.4X4X}.a.0.k z z j f f a 1 N G c.v.v.v.v.v.v.v.v.c.| | | A { c.v.c.| { { ",
"Z A U | | x.| | | { G G G x.c.c.c.c.| | G b.@.S o O 9 g g y h ] 5.7.g.T.U.y._ g 2 q g ] ] 4.] _ ) e.r.e.r.w.l i o = c C { x.c.c.c.v.v.v.c.| { { L Z x.v.v.{ A C ",
"Z Z U x.| A U U G G G G G G | c.c.c.| | | X.@.D =   3 r s g s h y u ' s.R.k.j.7.>.~ r r t y 8 y z i.p.r.0.0.k 1 - = c C { { { { | v.v.v.c.x.x.x.{ | c.v.v.A Z C ",
"Z Z T T | A A A A A A A G A A { x.| c.v.v.x.{ F c   & q r y s t q q f p.@X3XtXwX.X>.4 9 w q q r z r.r.l d r 1 M C B Z c.c.| { A { v.v.v.v.v.v.v.v.c.v.v.c.A Z A ",
"Z A T T | T A A A A A A { | { x.v.x.v.v.v.c.| c.G m > * 9 r y y g j ) e.l.XX5X5X X] q r s e 7 r z r.w.d 5 X - C x.| x.v.n.c.| c.v.v.v.v.c.x.c.c.T U { c.c.x.{ { ",
"Z U T x.c.x.T A U { | | x.x.c.v.v.x.v.v.v.c.c.v.c.U v > 5 9 e e _ 0.w.' ' 5.j.j.>.~ r s r r 9 w z 0.0.w X . - V | { x.c.n.c.c.v.v.v.v.v.|  .c.c.G Z A | v.c.| T ",
"T U T v.v.v.| T x.v.v.v.c.c.v.v.v.x.v.v.| x.v.| x.x.Z c X 5 2 5 ) i.i.z 2 3 3 4 9 w y r r e 4 a k l k 1 - # c M B N Z | { | v.x.c.v.v.x.U x.v.v.{ Z A c.v.U U { ",
"Z U T x.v.v.v.x.{ { c.v.x.| v.x.| c.v.v.v.v.v.x.c.v.Z , X o . X f 0.r.f 2 2 2 O 4 9 w w q q 0 a a i < B C N M , = = c Z x.v.v.c.c.v.v.v.x.v.v.v.x.x.c.v.v.| { Z ",
"Z U T T c.v.v.c.G G | v.x.| c.x.| v.x.| v.v.v.c.{ Z m , : : - # 1 k l a 3 5 3 3 O 9 3 * 3 6 0 p p % v |  .| Z c = = c V c.v.v.x.x.v.v.v.v.v.v.v.c.v.v.v.c.c.{ { ",
"A T c.v.v.v.c.c.v.x.| v.x.x.c.v.v.c.{ A { v.v.| M + + v Z U Z Z n 1 0 5 O O o o o o O O O o > N } L Z x.c.| { { C V V Z { v.v.| U | c.v.v.v.v.x.| | | x.| c.| | ",
"Z T v.x.c.n.v.c.v.v.c.c.x.c.c.v.v.{ A Z { | | U M ; x M U T  .c.C b , , c , , , , ; = o & > N { c.c.x.x.x.c.c.c. .{ Z Z { | | { U { | | T  .c.c.c.x.c.c.v.v.| { ",
"Z | c.{ | v.c.c.v.v.x.| | c.c.v.v.T T T U { { { Z B V Z { | x.v.x.{ V B V C C C C V v @ @ x A x.v.v.c.{ | x.c.v.v.| T { { { { { { | | { | | c.v.v.c.v.c.v.c.x.T ",
"{ | | Z { x.| | x.{ G G G { c.v.v.c.x.| | c.v.c.x.x.x.c.v.v.v.v.v.c.c.U A | c.c.c.{ C ; + ; B U x.{ G { A U c.v.v.c.c.T | c.v.v.v.v.v.v.v.v.v.v.v.v.v.x.T x.x.T ",
"{ | | | { { | | { { { | G G x.v.v.v.c.x.| x.c.v.v.v.n.v.| x.c.c. .| x.| T { c.v.v.c.{ V v S D F | { { | U A x.v.v.v.c.c.| | c.v.v.v.v.c.| x.c.c.x.T x.T A T T T ",
"Z | c.c.| | | { { { x.c.{ G c.c.v.c.v.v.| | x.v.v.v.v.c.T  .c.v.{ U  .x.| A | v.x.c.v.x.../ D ..{ { | x.{ A x.v.v.c.v.c.| | x.v.v.v.v.c.| | c.c.T T x.c.T A A T ",
"{ | x.v.v.v.c.c.c.{ A { Z { c.v.x.x.c.v.v.v.v.x.x.c.c.v.v.v.v.v.v.v.v.v.c.x.x.v.v.c.x.v.n.N.b.b.x.{ G G A U v.c.x. .c.v.v.v.v.x.c.c.c.v.v.v.v.v.v.v.v.v.c.x.T T ",
"{ | c.v.v.c.c.c.v.x.| | | x.v.v.c.| x.c.c.x.x.c.c.x.x.x.c. .c.c.c.c.c.v.v.c.v.v.n.c.c.v.n.n.n.n.v.c.| { | c.v.v.c.| x.v.c.c.x.c.c.c.| c.c.c.c.c.c.c.c.v.v.x.x.T ",
"U | v.c.c.x.c.v.v.v.v.v.v.v.v.v.v.A { x.{ { { v.v. .T T { { { | | T T x.v.x.c.v.x.c.v.c.x.x.c.c.v.v.n.v.v.v.v.v.c.{ { | | { { v.v.| | { { { | | T T T c.v.c.x.T ",
"U | | x.c.v.c.| x.c.v.v.v.v.v.| | | { G { | c.v.c.{ T T | | { { { U | x.c.x.x.c.c.c.x.x.c.v.c.| c.c.v.v.v.v.c.x.| | { { { | x.v.c.{ { | | { T U U U T x.x.x.T A ",
"U U | c.c.x.x.| | x.| { c.v.c.| | x.| { | c.v.v.c.A G { { G G G Z { x.x.x.x.x.c.c.x.x.c.v.x.| | | x.| | c.v.c.| | c.| { x.x.v.v.x.G G { { { { G Z A c.c.x.x.T Z ",
"U T v.v.| U { | x.x.{ { x.v.c.c.c.n.c.c.v.v.c.v.c.{ G A G G A G A U x.c.x.| x.x.x.c.v.v.| A G x.x.x.{ G x.v.c.c.c.v.c.c.v.v.c.v.c.{ G A G G G A A A c.c.x.x.T A ",
"U | c.x.{ Z A { v.v.c.c.c.c.x.c.v.v.v.v.v.v.c.v.v.c.G A A A | | | | x.x.c.c.v.v.c.c.c.x.T Z A T v.v.v.c.c.c.| c.v.v.v.v.v.v.c.v.v.c.{ A A A { | T x.x.x.c.c.x.T ",
"U T c.c.| | { | v.v.v.v.v.c.c.c.v.v.v.v.c.c.T c.v.v.x.| { | x.c.c.c.c.x.x.v.v.v.v.c.c.x.| | A T v.v.v.c.v.c.x.n.v.v.v.v.v.x.| c.v.v.x.{ { | x.c.c.c.c.x.x.c.x.U ",
"A x.v.v.v.v.v.v.v.x.| { x.v.v.v.v.c.c.c.c.| G c.c.v.v.v.v.v.v.v.v.v.v.x.| x.c.c.x.c.v.v.v.v.v.v.v.c.| { x.v.v.v.v.c.c.c.x.| T x.v.v.v.v.v.v.v.v.v.v.v.c.x.x.T A ",
"A A x.v.c.| c.c.x.c.| { x.v.v.v.c.x.{ | c.v.c.| x.v.v.v.v.v.v.v.v.c.x.x.x.| T T | x.x.v.c.| c.v.x.c.| T x.v.n.c.x.x.T { c.v.c.| | v.v.v.v.v.v.v.v.c.x.x.x.T A Z ",
"Z A c.v.x.T x.c.v.x.{ T | c.v.x.| | | | c.v.c.| x.c.v.v.v.c.x.v.v.x.| c.v.| T x.x.x.x.v.x.{ x.c.c.x.| { | v.v.x.| x.| x.v.v.x.T x.v.v.v.v.x.x.v.c.x.x.c.c.x.A Z ",
"T x.v.v.c.| T c.v.x.G T T { A T | c.v.v.c.G A c.v.x.v.v.v.T T c.c.v.v.v.v.c.v.v.v.v.v.v.c.| | x.v.| A T { { G { T c.v.v.x.U U c.c.x.v.v.v.| T c.c.v.v.v.v.x.x.A ",
"A T c.c.x.| x.x.x.x.T A x.c.| | x.c.x.| T x.c.v.x.G c.v.v.| | c.v.c.c.T x.v.v.v.c.c.c.c.x. .x.x.c.x.| A x.c.| T c.c.x.| x.x.c.c.x.| c.v.v.| | c.v.v.c.T x.v.x.x.",
"A A x.c.x.x.v.c.| c.v.| x.v.v.c.c.c.| T x.v.v.x.{ | x.v.v.c.c.c.v.v.x.A A v.v.v.x.| x.x.x.x.c.c.x.c.c.| x.v.v.c.c.c.| T | v.v.| T { x.v.v.c.c.v.v.c.c.A A v.x.A ",
"A U T x.c.v.v.v.v.v.v.v.T | v.c.c.v.v.x.c.x.| G | c.x.c.v.v.c.v.c.x.T x.c.v.x.x.x.| | | c.v.v.v.v.v.v.v.T | v.c.c.v.v.x.c.x.| U { x.x.c.v.v.c.v.c.x.T c.v.v.A Z ",
"A A T A T v.c.v.v.v.c.x.| T v.v.v.v.c.c.c.c.| G | c.T | x.G x.v.v.v.x.c.v.v.T A x.| U { | c.c.v.v.v.v.x.| T v.v.v.v.c.c.c.c.| U x.c.| { | | x.v.v.c.x.c.v.v.A V ",
"A A A A T T T c.v.v.c.T T c.v.v.c.c.x.c.v.v.x.| x.c.x.| T | x.c.v.v.c.c.v.v.x.{ c.| U A { | | x.v.v.c.T T c.v.v.c.c.x.x.v.v.x.| x.v.x.{ { | x.c.v.v.c.c.v.c.A Z ",
"T A A T T A T c.c.v.c.x.T x.c.x.{ { T | v.v.c.c.c.v.v.c.x.c.c.| A T c.v.v.c.c.v.v.| A U G { | x.c.c.c.c.x.x.c.x.{ { { | v.v.c.c.c.c.v.v.x.v.c.x.A T v.v.v.c.x.A ",
"Z Z A A A A T T T A T T T T T T U U U { | | | x.| | c.x.| c.x.{ Z Z x.T A A T x.| U A U { U T U T A T A A T T T G T T { | | | x.| | x.| { | x.{ A Z T T A A A A ",
"V C A A T T A A A V A A A A A A | U | T Z Z A { T A A A A A G A Z Z A C V Z A U A A Z A U U U Z A C A A A A A A | U T { A Z A { T A A A U A { { Z Z A Z V C V V "
};
