/* XPM */
static char *__resized[] = {
/* columns rows colors chars-per-pixel */
"80 80 230 2 ",
"   c #14160B",
".  c #130A16",
"X  c #1E1E16",
"o  c #181519",
"O  c #1C1B1A",
"+  c #2D100F",
"@  c #211C18",
"#  c #241C1C",
"$  c #1D2215",
"%  c #1D2F12",
"&  c #1E2B15",
"*  c #2A230C",
"=  c #34250F",
"-  c #212317",
";  c #222C16",
":  c #22251A",
">  c #2B231D",
",  c #252B18",
"<  c #2A2C1C",
"1  c #36291B",
"2  c #253416",
"3  c #263B17",
"4  c #2B3A15",
"5  c #283618",
"6  c #2A3C19",
"7  c #363617",
"8  c #271C25",
"9  c #2D2224",
"0  c #282821",
"q  c #2C242A",
"w  c #322624",
"e  c #322B23",
"r  c #33252A",
"t  c #3A2928",
"y  c #3C2B2B",
"u  c #2B3122",
"i  c #3C3627",
"p  c #392B35",
"a  c #3E3131",
"s  c #471D1E",
"d  c #462918",
"f  c #552D12",
"g  c #45381A",
"h  c #563A16",
"j  c #7C2B0B",
"k  c #6B2A12",
"l  c #663B16",
"z  c #783815",
"x  c #492C26",
"c  c #412B2D",
"v  c #522C25",
"b  c #493328",
"n  c #55342B",
"m  c #593629",
"M  c #402E33",
"N  c #433534",
"B  c #4B3532",
"V  c #4B3B34",
"C  c #443239",
"Z  c #4D3B3B",
"A  c #543A34",
"S  c #643B2A",
"D  c #6C3C2E",
"F  c #254316",
"G  c #2A4415",
"H  c #2C4A17",
"J  c #2D4319",
"K  c #2E4B18",
"L  c #34481A",
"P  c #2F5419",
"I  c #33531B",
"U  c #355B1B",
"Y  c #3B591B",
"T  c #37631B",
"R  c #39641C",
"E  c #3D6D1D",
"W  c #3F711F",
"Q  c #3F6D20",
"!  c #3F7220",
"~  c #474A17",
"^  c #5C4515",
"/  c #43541A",
"(  c #445B1B",
")  c #4A5D1A",
"_  c #54581B",
"`  c #694616",
"'  c #754215",
"]  c #655218",
"[  c #44661D",
"{  c #4B631C",
"}  c #436D1E",
"|  c #4C6C1E",
" . c #546C1D",
".. c #41741F",
"X. c #4B741E",
"o. c #43781F",
"O. c #55711F",
"+. c #59701E",
"@. c #65741F",
"#. c #4E502D",
"$. c #594539",
"%. c #72472A",
"&. c #674B38",
"*. c #794731",
"=. c #6A553A",
"-. c #7B5233",
";. c #7E5A39",
":. c #426B23",
">. c #417620",
",. c #457C21",
"<. c #4A7C21",
"1. c #4A7A2C",
"2. c #537320",
"3. c #527D22",
"4. c #5E7C22",
"5. c #4C7134",
"6. c #547032",
"7. c #647A22",
"8. c #697823",
"9. c #727C23",
"0. c #787A22",
"q. c #7A6835",
"w. c #483740",
"e. c #4E4140",
"r. c #5A4542",
"t. c #5C4A44",
"y. c #5C5145",
"u. c #634D45",
"i. c #634D4A",
"p. c #695548",
"a. c #6D5851",
"s. c #725D54",
"d. c #776749",
"f. c #77714B",
"g. c #786551",
"h. c #8C3010",
"j. c #873915",
"k. c #9E4216",
"l. c #854E2E",
"z. c #985A2F",
"x. c #874A32",
"c. c #875A35",
"v. c #985832",
"b. c #A35C34",
"n. c #97722F",
"m. c #8A643C",
"M. c #966637",
"N. c #A66634",
"B. c #B86431",
"V. c #A97538",
"C. c #B87539",
"Z. c #C37834",
"A. c #866B48",
"S. c #8C714D",
"D. c #967547",
"F. c #877659",
"G. c #A57640",
"H. c #887564",
"J. c #C17A43",
"K. c #478022",
"L. c #498423",
"P. c #4C8A24",
"I. c #4D842A",
"U. c #548323",
"Y. c #53892E",
"T. c #55902F",
"R. c #558635",
"E. c #678526",
"W. c #788726",
"Q. c #628F3A",
"!. c #6F8C45",
"~. c #888426",
"^. c #988827",
"/. c #92942B",
"(. c #889235",
"). c #A88929",
"_. c #B6992D",
"`. c #B28E31",
"'. c #A89D32",
"]. c #9AA037",
"[. c #A6A334",
"{. c #B9A633",
"}. c #C88536",
"|. c #D58835",
" X c #CA9934",
".X c #CBAF32",
"XX c #E5B539",
"oX c #F6BE3F",
"OX c #90814D",
"+X c #938858",
"@X c #9C9A54",
"#X c #A98548",
"$X c #B68C47",
"%X c #A9985A",
"&X c #B39451",
"*X c #B1A757",
"=X c #A99C64",
"-X c #9EA162",
";X c #AEA767",
":X c #BAB269",
">X c #BAB574",
",X c #C98B45",
"<X c #C99844",
"1X c #CA994F",
"2X c #D6A645",
"3X c #CBAE55",
"4X c #E4B046",
"5X c #D6B868",
"6X c #C5BE76",
"7X c #DDC845",
"8X c #F7D746",
"9X c #F2D04D",
"0X c #FBE350",
"qX c #D6C773",
"wX c #E8D06E",
"eX c #F7EA73",
"rX c #D1CD8A",
"tX c #EAE88A",
"yX c #F2EE8B",
"uX c #FBF287",
"iX c #E8E894",
"pX c #F4F493",
"aX c #D8DFB5",
"sX c #FBF8A6",
"dX c #F1EFB5",
"fX c #F8F8C7",
"gX c #F9FBD7",
"hX c #FEFEDC",
"jX c #FCFCE2",
"kX c #FFFFFA",
/* pixels */
"P T ..E W W W W o.W W W W o.o.W W W W W W W W K.o.W K.W W E E W W W W W W o.W W T T  ._.oX8X].K.W E E W o...o...........E E ..o.,.W o.o.W E E W W W ,.W W o.E U ",
"R E ....W W W W W W W o.K.W o.W W ! o.W W W o.W W W W W ! >.>.<.,.,.W W W K.K.K.o.E  . X9XeX:X(.U.} W K.o.o.....W ....W E W ..o.W W W W W >.,.<.,.! W W W o.W W ",
"o.o...o.K.,.W W W W K.K.K.o.K.W ! K.! W W W K.W W W W W ! K.P.P.L.L.W W W o.L.P.P.o.O._.9XuXuX:XW.X.W K.K.o.o.....o...W W ,.<.! W ! E W ! K.P.P.P.K.W W W K.o.o.",
"..o.L.P.P.L.W W K.W W L.L.P.P.P.L.L.W W K.L.P.L.L.K.L.L.L.K.K.L.L.L.L.o.o.K.K.L.K.K.X.9.@XwXeXwX'.U.W K.L.P.P.P.L.K...W ,.L.P.L.K.K.K.L.L.K.K.L.L.P.L.o.o.L.o.W ",
"E o.K.K.L.P.L.K.K.,.,.K.P.P.P.L.P.L.K.K.P.P.P.P.L.P.P.P.L.K.,.K.,.<.L.K.K.K.K.L.K.,.o.o.E.*X0X9X{.E.o.K.L.K.o.L.L.L.K.L.L.P.P.P.L.P.P.P.P.K.<.K.>.K.L.K.K.<.,.W ",
"........K.P.P.P.L.L.K.L.P.P.K.o.K.P.P.P.P.P.P.P.P.P.P.P.L.,.,.>.! ! L.P.L.,.K.P.L.,.W >.| 7.{.XX_.E.K.K.X.O.X.X.K.P.P.P.P.P.P.P.P.P.P.P.K.,.! ,.W W L.P.L.,.>.! ",
"E W W o.o.<.<.K.,.>.! ,.o.K.L.L.L.L.K.! ! K.K.L.L.P.P.P.L.W o.o.W E K.P.P.K.W ,.K.o.>.>.o.X.0.^.^.4.W o.W.^.^.E.P.L.K.! ,.K.L.L.P.P.P.P.L.>.>.>.W W <.P.P.,.W T ",
"E } ..K.K...W W W W W W W W o.L.L.K.K.,.K.! ,.W K.L.P.P.P.K.K.L.>.>.K.P.P.>.W W <.>.>.<.,.o.{ @.0.O.E o.~.).).~.L.K.,.K.! ! ,.! ,.L.P.P.P.L.K.L.o.o.L.P.P.! E T ",
"E W W K.,.W W W W W W W W W W ! L.K.L.P.P.K.W W o.L.P.P.P.P.P.P.P.L.P.P.L.! ! K.,.,.>.K.,.W E E E W W X.0.).).W.K.K.U.P.L.o.o.W >.P.P.P.P.P.P.P.P.L.P.P.L.W W W ",
"E W o.K.,.,.W W W ! W W ! ,.! L.L.K.L.P.P.L.K.L.P.P.P.P.L.L.P.L.,.! ! L.P.K.L.L.,.! >.,.,.>.W E E W W ..+.9.7.U.P.W.E.U.P.L.o.L.P.P.P.P.L.L.L.L.K.! ! K.L.L.o.W ",
"W W ! L.L.K.! W >.>.,.,.,.L.P.P.P.L.L.P.P.K.L.P.P.P.P.P.o.K.L.L.! E W K.P.K.P.P.L.>.W L.L.K.! W ..o.o.o.X...o.o.4.n.9.X.K.P.P.P.P.P.P.L.<.K.K.L.W E W K.P.L.<.W ",
"o.W W P.P.P.K.! L.P.P.P.L.L.P.P.P.K.P.P.K.K.L.K.K.P.P.L...K.P.P.! E W L.P.>.,.L.P.K.W P.P.P.K.,.<.P.P.P.L.o.U.U.8.0.+.o.o.K.P.o.L.P.P.K.W K.P.P.! E W L.P.W o.W ",
"W W W L.P.P.P.K.W >.L.P.K.K.P.K.K.L.L.L.L.P.P.L.L.P.P.P.L.P.P.P.L.K.L.P.P.,.<.K.K.,.>.K.P.P.P.K...o.L.P.K.X.U.^.'.E.X.L.L.P.P.K.L.P.P.P.K.P.P.P.L.,.L.P.P.o.W W ",
"E W o.K.P.P.P.L.! ! ,.P.K.,.L.K.,.L.L.K.P.P.P.L.L.L.P.P.P.P.P.P.L.L.P.L.L.K.K.<.,.>.>.K.L.P.P.L...W <.P.K.X.@. XXX/.U.o.P.P.P.L.L.P.P.P.P.P.P.P.P.P.P.P.L.K.,.W ",
"W o.K.P.P.P.L.L.P.L.,.P.L.,.L.P.P.L.W W ,.P.P.,.W K.L.L.P.P.P.K.<.,.,.,.<.K.P.P.P.K.L.L.P.P.L.L.P.K.,.P.L.o.+._.oX7X(.[ <.P.P.o.! ,.L.L.P.P.P.K.,.,.K.K.K.L.K.o.",
"W o.P.K.L.P.L.L.P.P.L.L.K.L.L.P.P.<.W W W >.K.W W W K.<.W K.L.L.L.,.,.4.7.I.P.P.K.L.P.K.P.P.L.L.P.P.L.K.L.L.+.{.8X0X].[ ..o.o...! ,.,.K.>.,.L.L.L.K.K.L.P.L.K.o.",
"W o.L.o.<.P.L.L.P.P.L.>.K.K.L.P.P.,.o.....! >.>.>.,.,.>.>.K.L.P.P.L.O.~.^.U.L.P.K.L.L...K.P.L.L.L.P.L.>.K.o.O.[.8X0X[.:.....>.>.,.,.,.,.>.,.L.P.P.P.P.P.P.P.L.o.",
"o.o.o.W W K.,.K.L.>.! ! ! >.L.P.P.L.L.o.K.L.P.P.P.L.P.P.P.P.P.P.P.U.7.{..XU.K.P.P.<.,.....o.K.L.L.o.W W W W X.W._.7X[.X.<.L.P.P.L.P.L.P.P.P.P.P.P.P.P.,.! P.K.W ",
"..o.L.o.W o.>.,.,.! ! ,.W ! K.P.P.P.L.L.,.K.L.P.P.P.P.P.K.L.L.L.K.o.+.^._.2.K.P.L.K.K.o...o.o.o.,.! >.,.W W >.3.W._.~.X.>.,.L.P.P.P.P.L.K.K.P.L.K.,.K.>.! ! o.o.",
"W o.P.K.<.,.,.,.>.>.K.K.! W K.P.P.L.P.L.,.<.K.P.P.P.P.L.>.<.L.L.o.} } 7.9.| W L.K.L.P.L.o.o.o.o.>.>.,.L...W K.P.U.0.7.X.,.<.K.P.P.P.P.L.>.K.L.L.o.W <.K.<.W ..o.",
"! ,.K.P.P.P.L.K.K.>.W W ! ! P.L.K.L.L.P.P.P.P.K.K.L.L.P.P.P.P.P.P.P.P.U.U.<.K.P.P.L.K.P.P.P.L.K.L.>.! ! W ! L.L.K.<.L.L.P.P.P.K.K.L.L.P.P.P.P.P.P.P.P.P.P.<.o.o.",
"W ,.L.P.P.L.L.P.P.L.K.,.,.K.P.P.L.>.K.P.L.K.K.L.L.K.K.K.L.K.P.L.L.L.K.P.P.K.L.P.P.L.L.P.L.P.L.P.P.L.,.,.,.L.P.P.L.! <.P.L.K.K.L.L.K.K.L.L.L.L.L.P.L.K.P.P.L.o.o.",
"W K.P.L.K.L.L.P.P.P.P.P.P.P.P.P.L.W >.K.,.W ! P.P.K.K.,.! ! K.K.o.o.o.K.P.K.L.P.K.L.P.K.K.K.L.P.P.P.P.P.P.P.P.P.L.o.>.K.>.! ..P.P.K.,.,.! >.,.,.o.>.>.L.P.K.o.o.",
"o.o.,.K.P.P.K.,.K.L.P.P.P.P.P.K.,.,.,.! ! ,.L.P.P.W ! ! K.,.! ,.W o.o.K.K.L.K.L.P.L.<.K.P.P.L.o.,.L.P.P.P.P.P.K.,.,.,.>.! <.K.P.L.! >.>.,.,.,.! W W K.K.L.K.,.W ",
"W o.L.P.L.L.K.,.K.,.,.,.L.P.L.,.<.K.K.! K.K.L.P.L.W W K.W ,.W W W ! K.K.K.K.K.K.L.L.K.L.K.o.} o.,.K.,.K.L.P.L.K.<.K.<.! K.L.P.P.K.W W o.o.o.W ! W W K.K.K.L.o.W ",
"W o.L.P.K.W W K.K.K.>.! <.P.L.L.L.P.L.L.P.P.L.P.L.W W W W W W W W >.K.L.K.K.L.L.K.L.P.L.} Y Y } K.L.! W K.L.L.L.L.P.L.K.P.P.L.P.L.o.W W W W W W W W L.L.K.L.o.W ",
"W ,.L.K.W W W W P.P.P.L.L.L.K.L.P.P.P.P.P.P.L.P.L.L.! W W W W K.,.<.,.K.L.P.P.P.L.L.L.W _ l ^ ) P.P.L.L.L.L.K.K.P.P.P.P.P.P.L.P.P.L.W W E W >.,.o.K.o.L.L.L.K.W ",
"o.o.L.L.K.o.W K.P.P.P.L.P.L.K.P.P.P.P.P.L.K.K.L.P.P.L.,.W K.L.L.L.L.L.K.K.L.L.P.P.L.o.{ ` j.h ) P.P.P.L.P.L.K.P.P.P.P.P.P.K.<.L.P.P.K.o.>.K.L.L.L.L.L.K.L.L.L.W ",
"W o.P.P.P.P.L.P.P.K.,.>.K.P.P.P.P.L.L.L.K.! W L.L.P.P.P.P.P.P.P.P.P.P.K.,.K.K.L.L.o.X.` z k.^ { L.L.,.>.K.P.P.P.P.L.L.P.K.! ! L.P.P.P.P.P.P.P.P.P.P.P.L.K.K.o.W ",
"W o.K.P.L.o.L.P.L.L.K.>.L.P.P.P.K.K.K.W P.P.P.W K.P.P.P.P.L.L.P.P.L.K.K.L.,.>.,.K.o.| ' h.k.] } L.L.,.>.K.P.P.P.K.L.W W P.P.P.! o.P.P.P.P.P.P.P.P.L.K.K.L.W W E ",
"W o.K.P.L.o.K.L.L.K.,.>.,.P.L.K.,.,.,.K.P.P.L.K.K.L.P.P.P.L.L.L.L.W T W W R R E E E / l h.j.^ ( >.K.,.! K.L.P.K.K.K.K.,.P.P.L.,.K.P.P.P.P.K.K.P.P.K.o.P.L.K.W W ",
"..K.P.P.L.o.o.L.P.,.! >.>.>.>.>.K.L.P.P.K.W W L.P.K.P.P.P.W ,.L.W T H H H F H H P H 7 v k k = J E ! W o.K.W W W ,.K.P.P.L.W W L.P.K.P.P.P.o.o.L.L.P.P.P.P.L.K.W ",
"W o.L.L.K.K.K.K.K.K.K.W ,.L.,.K.K.L.K.<.K.K.L.L.K.<.L.P.P.W E o.R L ~ e u u u u , < i l h t > : J R E R ,.K.<.<.K.L.K.,.K.K.K.L.K.,.L.P.P.K.,.L.P.P.L.,.K.L.L.K.",
"W W K.L.K.K.P.L.K.P.L.! K.P.P.L.L.P.,.o.K.P.P.K.! >.K.P.K.U K I ) ] ;.&.e.e.w.a p M $.z.c.b q q e J K J U ,.L.L.L.L.<.>.K.P.P.K.>.,.K.P.P.K.K.P.P.L.K.W W P.K.W ",
"W W K.o.K.P.P.P.P.P.P.P.,.! P.L.K.P.L.K.K.K.K.W ,.K.<.>.R J O o ] V.3X&XH.H.g.g.p.p.D.2X`.;.$.C a 0 O : 2 U L.P.K.P.P.K.K.K.,.W >.K.K.L.P.P.L.P.L.K.K.K.P.P.W E ",
"W W W W K.L.L.L.P.P.L.K.,.K.P.P.P.P.L.L.P.K.K.W ,.L.Q U J i p y &.#X5X5X6X3X1X&X#X$X$X$X$XC.m.$.p q 8 8 9 ~ :.<.P.P.L.L.P.K.,.o.,.L.,.,.K.,.,.P.P.L.K.K.P.P.W T ",
"W W W W W K.K.K.P.P.L.,.,.K.P.P.L.L.K.K.P.P.K.! K.>.U 6 w $.y.i.a.H.:X5XwX4X4X4X4X4X<XD.D.`.V.c.Z Z A V n b ~ :.P.L.K.K.P.P.K.<.K.L.K.>.>.! ,.L.P.P.L.L.P.L.W E ",
"o.o.W W W W K.K.L.L.L.K.,.K.L.<.! ,.o.o.P.P.L.L.W T 6 e V p.s.s.a.s.H.%X&X#X<X4X4X<XD.p.u.m.N.V.V.V.M.v.*.m 7 U >.>.>.,.P.P.P.K.K.P.P.P.L.L.P.K.W o.P.P.P.L.K.W ",
"W o.o.K.K.,.,.K.K.K.K.K.K.K.,.K.K.,.K.L.L.L.P.P.R 6 < N r.i.i.i.i.i.a.s.A.A.$X2X2XG.u.w.M A -.V.}.|.}.Z.l.g , U L.K.K.K.L.L.L.L.L.L.P.L.L.P.P.K.W W P.L.o.o.o.K.",
"W o.K.L.P.L.K.K.K.W K.K.L.K.K.L.P.L.P.P.<.o.L.P.T % 9 V t.r.r.t.i.i.i.w.a.A.#X$XD.i.w.C p p A c.C.|.|.V.%.< 2 T P.L.P.P.>.,.L.P.P.L.K.L.K.K.L.P.K.o.L.o.W o.W W ",
"T ..L.L.K.L.L.L.L.,.,.L.P.P.P.L.L.L.P.L.,.<.L.L.R 2 w N $.u.p.d.A.s.a.i.A.1X<XG.i.w.w.u.$.y.y.p.M.Z.N.&.t # 5 Y K.L.P.L.<.K.L.P.P.L.P.P.L.,.K.K.L.L.P.K.K.P.K.W ",
"E ..<.o.K.K.o.o.K.K.,.L.K.K.L.K.>.K.K.,.>.,.>.[ L i p N p.+X=X:X>X=X+Xp.c. X XA.w.p t.D.*X=X-X%X&XG.z.A q 0 < 6 U >.,.,.! K.K.K.K.>.,.>.>.K.L.L.P.P.o.o.o.L.K.W ",
"o.o.o.o.K.,.W W W W ! K.,.,.! ! >.>.! W ! ! [ g v m N $.d.>XyXpXpXtX6XF.;.Z.G.c.C e.F.qXyXpXpXiXwXJ.v.S y q # : 3 R ! W W >.,.! ! ! W W ! K.P.P.P.K.W W W K.K.W ",
"W o.L.P.L.L.o.W ,.o.W K.L.P.P.P.P.K.! W <.K.Q 7 m v.c.=.f.rXsXfXjXjXdXrX*XG.-.S p.-XrXfXhXjXgXsXeX1Xv.m y q 9 @ 2 Q ! ! K.L.P.L.K.K.K.K.L.L.K.L.L.L.L.o.W K.K.W ",
"W ,.K.L.L.P.L.K.L.,.,.K.P.P.P.L.P.L.L.K.P.P.! ; m n.N.m.S.6XsXhXkXkXgXiX:Xd.B M d.:XiXjXkXkXgXiX5X,Xb.m y q 9 @ ; U R R ! K.P.P.L.P.P.P.L.K.,.<.o.<.L.L.K.K.W W ",
"W W W ! K.P.P.P.P.L.K.L.P.P.,.,.K.P.P.P.P.P.! % 1 %.z.N.G.1XwXdXjXjXdXrX+Xy.p y $.@XrXfXjXjXaX>X#XZ.b.A r q 9 @ $ 5 6 J U >.P.P.P.P.P.P.L.,.>.,.W W L.P.P.! W o.",
"W W W K.K.K.<.,.,.! ,.! ! ,.P.P.L.L.<.! >.E U & O 8 S x.Z.Z.,XqXiXiXqXF.$.Z M y r V g.qXiXiX;XA.%.z.v.S x 9 > - $ - O : G T K.L.P.P.P.P.L.,.>.>.E W K.P.P.K.W E ",
"E E W K.,.! W W ! W W ! ! ! ! L.L.K.<...E I 5 O . . 9 S v.B.C.#X%X@XD.c.%.B c r 8 8 V f.@X@XS.;.D *.*.*.m t : 6 J G 6 J I E >.>.,.L.P.P.P.K.K.K.o.o.L.P.P.W R R ",
"E W ..o.<.W W W W W ! ! ! W W ! K.K.P.L.R J O X X $ O w S b.N.&.C a &.v.N.&.e.#.V B n A B V -.v.z.m n x.D v 2 P o.o.o.L.K.K...W ..L.P.P.P.P.P.P.P.K.L.P.L.W W W ",
"E W o.o.o.o.W W W W ! ! ! ,.! L.P.L.L.P.o.Y K I Y I 3 < v v.b.D r 8 x *.D.=X>X>X%Xm.l.x.x.*.x.x.S c c m v e 2 T P.P.P.P.P.P.K.L.P.P.P.P.L.L.K.P.o.o.>.P.L.L.! W ",
"W W o.K.P.K.o...>.>.<.,.,.K.P.K.o.o.L.P.K.W W W <.>.U 6 x x.x.S p r r B ;.:XtXwX5X,XB.b.b.v.D m r 9 w 1 1 5 3 U W E :.:.:.>...L.P.P.P.L.o.K.K.P.! E } <.P.L.<.o.",
"o.....P.P.P.o.o.K.P.P.P.L.K.<.{ ) } K.P.<.<.L.K.K.K.E J w v S S v c q q #.OX-X-X1XG.B.v.x.*.n r O # < 3 K I J 6 3 3 3 3 3 G U ..L.P.P.K...K.P.P.! E W L.P.W W o.",
"W W o.K.P.P.P.K.W ,.L.P.L.} Y ` ' { <.P.L.P.P.L.K.>.U 6 , < 7 b b c 9 9 w y N V *.x.x.m t t 1 $ $ $ 6 E E E R 6 X & & - X - 6 E L.P.P.P.L.L.P.P.L.K.L.P.P.,.>.W ",
"E W o.o.L.P.P.L...W ,.P.Y.6.f j ' { W K.L.P.P.K.! U J G H F K I 7 1 > > @ . . + s v x 8 o o & 3 H G U L.<.>.>.I 3 6 6 3 : @ , E K.I.P.P.P.P.P.I.L.P.P.P.L.K.>.! ",
"W o.L.P.P.P.L.L.P.K.K.P.!.m.j j z [ E E E ,.,.Q I ; 5 I >.K.K.>.U 5 X X @ X > x d 1 O O X @ 4 T K.>.>.K.K.,.K.K.<.o.} U H 5 ; U E E >.>.>.,.K.K.,.,.K.K.K.L.,.>.",
"W o.P.K.P.P.L.L.P.P.L.P.!.m.h.j ` [ T I 6 6 6 6 2 5 P R <.L.P.L...U I I I I Y ( / K 3 @ - G I (  .<.I.K.K.K.L.P.P.<...E T K 3 5 5 5 6 6 7 _ 8.P.P.K.K.I.P.L.K.>.",
"! K.P.! ! P.K.P.P.P.K.<.!.q.z j z ( I 3 ; : $ @ 5 U W o.W ,.L.P.L.<.K.o.,.,.K.,.o.W U 2 3 [ ) ^ ^ | K.,.<.K.L.P.P.o.o.W o.E P 2 - - $ X + l q.Q.P.P.P.P.P.P.K.o.",
"! ! ,.! ! ,.K.K.L...! ! ! :.~ z z d 5 F K K K H U >.K.P.P.P.P.L.P.P.L.K.W L.P.P.P.K.W K L ~ ' j.l [ ! ! W ..L.P.P.P.L.o.K.K...I K J K F * v =.!.T.P.P.o.o.L.K.o.",
"! ,.K.! ! K.! K.>.>.>.,.>.T G f k = 3 U T E E W >.L.P.P.L.L.L.L.<.<.L.! o.W K.P.L.K.K.E Y h j.j.l ) ! K.! W K.P.P.P.L.L.>.<.K.>.>.>.>.R G i 6.R.P.<.L.o.W o.o.o.",
"W ,.P.K.,.K.K.! >.>.K.L.1.Y % = d 7 I ..>.<.<.L.P.P.P.L.o.o.L.P.>.W ,.K.,.W ,.P.K.L.P.K.( d z z ^ { ,.L.! W K.P.P.L.L.L.,.,.K.P.P.P.P.K.E Y :.I.,...o.K.o.W W o.",
">.,.L.P.P.P.K.K.K.! ! ! 5.#.    2 U o.L.P.P.P.L.K.L.L.P.P.P.P.P.P.P.P.P.P.K.K.P.P.L.L.P.E 4 d f h ( W W W W P.P.K.K.L.P.P.P.P.K.K.L.L.L.P.L.L.P.P.P.P.P.P.K.o.o.",
"! K.L.P.P.P.P.L.P.K.K.,.R.5.F F U W K.P.L.K.K.L.L.K.K.K.L.P.P.L.L.L.L.P.P.L.L.P.L.L.L.L.W P = = = [ K.o.,.K.P.P.L.>.K.P.L.L.K.L.L.L.K.K.L.L.L.P.L.L.L.P.P.K.o.o.",
"W K.P.L.K.K.K.P.P.P.P.P.P.P.,.,.K.W >.K.>.! ! P.P.K.<.>.! ! >.<.,...o.L.P.K.P.P.L.L.P.L.P.o.I 5 6 } P.P.P.P.P.P.L.o.,.K.,.W W P.P.,.K.! ! ! ,.<.,.! ,.I.P.K.o.o.",
"..o.o.K.P.P.K.K.K.I.P.P.P.P.P.K.>.,.,.>.W ,.L.P.L.! ! <.<.>.>.>.! ..o.K.L.K.L.K.P.L.o.K.P.P.1.5.5.K.P.P.P.P.P.K.<.>.>.! >.,.L.P.P.! ! ,.,.,.>.! ! ! <.<.L.P.o.W ",
"W o.K.L.L.K.K.,.,.K.<.K.L.P.L.K.,.L.,.,.,.L.L.P.L.W W ,.,.! ! ! W ! L.K.K.K.K.K.L.L.K.L.P.L.I.R.R.I.K.,.L.P.L.,.K.K.,.W K.L.P.P.L.W W ! ,.! ! ! E W L.L.K.K.o.W ",
"W o.P.P.<.W ! ,.K.K.! ! K.P.K.L.L.P.L.K.P.P.P.P.L.! ! W W W ! W W W L.L.K.K.K.L.K.L.P.P.K.! ! K.K.K.! ! K.P.L.L.L.P.L.L.L.P.P.P.L.! W W W W W W W W L.L.L.o.o.W ",
"o.o.P.K.W W W ! P.P.L.L.L.L.,.K.P.P.P.P.P.P.L.L.P.P.! W W W ,.,.o.,.<.K.L.P.P.P.L.L.K.K.W W W W P.P.P.L.P.I.K.L.P.P.P.P.P.L.L.L.P.L.! W W W K.,.o.K.K.K.L.L.K.o.",
"W K.L.K.K.,.W K.P.P.P.P.P.L.L.P.P.P.P.P.L.L.K.L.P.P.K.! W K.K.L.L.L.L.K.K.L.P.L.P.L.L.K.K.K.W K.P.P.P.L.P.L.K.L.P.P.P.P.P.L.K.L.P.P.L.,.W K.K.L.L.L.K.K.K.P.o.o.",
"W K.P.P.P.P.L.L.P.K.,.o.K.P.P.P.P.L.P.L.K.! ! L.L.P.P.P.P.P.P.P.P.P.P.L.o.K.L.P.L.L.P.P.P.P.P.L.P.L.,.,.K.P.P.P.P.L.L.L.L.,.W L.L.P.P.P.P.P.P.P.P.P.P.K.K.L.o.W ",
"W W K.P.L.K.L.P.L.K.<.W K.P.P.P.K.K.! ,.P.P.P.! K.P.P.P.P.P.P.P.P.L.o.L.L.o.o.o.,.K.K.P.L.,.L.L.K.L.,.>.K.P.P.L.K.K.W K.L.P.L.o.K.P.P.P.P.P.P.P.P.L.K.K.K.o.W E ",
"W W L.P.L.W K.L.P.L.o...K.L.L.K.,.,.,.K.P.P.L.,.K.P.P.P.L.L.K.L.L.L.K.L.P.o.K.o.K.K.K.P.K.W L.L.L.K.K.! ,.P.P.K.W L.K.K.L.P.K.o.K.L.P.P.L.L.K.L.P.L.K.L.L.K.W E ",
"W K.P.P.P.K.W L.P.o.o...o.o.o.o.,.L.P.P.L.! W L.L.K.P.P.P.o.K.L.L.P.P.P.P.P.P.P.P.P.P.P.L.,.o.L.P.,.! >.! ,.! ! K.L.L.P.L.W W P.P.K.P.P.P.K.o.L.L.L.P.P.P.L.K.W ",
"W K.L.L.K.o.K.K.K.K.o.W K.L.K.o.L.L.K.<.K.K.L.L.K.! L.P.P.K.K.L.P.P.L.K.W P.P.P.L.L.L.L.K.,.K.K.L.K.,.! K.L.K.o.L.L.K.o.K.K.L.L.K.! P.P.P.K.o.L.P.P.L.o.K.P.K.K.",
"W W K.K.K.L.P.L.o.P.P.o.L.P.P.L.L.L.,.o.o.P.P.K.W K.L.L.P.L.K.L.P.L.K.W W P.P.L.K.,.K.K.K.L.L.L.K.L.L.,.L.P.P.L.L.L.K.o.<.P.P.,.W K.L.P.P.L.L.L.P.P.L.W W P.K.W ",
"W o.o.K.L.P.P.P.P.P.P.P.o.o.P.L.L.P.L.K.L.K.,.W K.K.K.L.P.P.L.P.L.K.K.K.P.P.L.K.K.<.,.,.L.P.P.P.P.P.P.L.K.W P.L.K.P.P.K.K.K.K.W W L.K.L.P.P.L.P.L.K.K.K.P.P.W E ",
"W W W W o.P.L.L.P.P.L.L.o.o.P.P.P.L.L.L.P.L.K.W K.L.W K.K.W K.P.P.L.K.L.P.P.o.W K.,.o.W ,.L.L.L.P.P.P.K.o.o.P.P.P.P.L.L.P.L.,.W K.L.K.W K.! K.P.P.L.K.L.P.P.W T ",
"W W W W o.K.o.L.P.P.L.o.o.L.P.P.L.L.L.K.P.P.L.,.K.L.K.,.W W L.L.P.P.L.L.P.L.K.o.L.,.W W >.K.<.K.P.P.L.W K.L.P.P.P.K.K.L.P.P.K.,.L.L.L.o.o.>.K.L.L.P.L.L.P.P.W E ",
"o.W W W W W K.L.L.P.L.L.K.K.L.K.! ,.o.o.P.P.L.L.L.P.P.L.L.P.L.K.W W P.P.L.L.L.P.P.,.W W >.! ,.L.L.L.L.K.o.K.L.L.! o.>.<.P.P.L.K.L.L.P.L.K.P.L.K.W o.P.P.L.L.K.W ",
"E E E W o.W o.o.W W o.o.W o.o.o.....o.>.! K.K.K.,.,.L.K.,.L.K.W W E L.W W W o.L.K.W W W W >...o.W W W K.o.o.o.W o.o.>.>.,.,.,.K.K.K.K.K.>.K.K.,.W W K.W W W W E ",
"T E W W o.o.W E E E E W W W W W >.o.,.>.E E W ,.W W W W W W W o.E E W E T E W W W W W W ..o.W W W E W W W W W W >.o.o.>.E E W ,.W W W W W W W >.E R W E T E T T "
};
