/* XPM */
static char *__resized[] = {
/* columns rows colors chars-per-pixel */
"80 80 216 2 ",
"   c #190E3E",
".  c #2A3E35",
"X  c #2D4F1A",
"o  c #335A1E",
"O  c #37631B",
"+  c #39661C",
"@  c #3D6D1E",
"#  c #3F711E",
"$  c #2C4826",
"%  c #2E4A2B",
"&  c #2F5022",
"*  c #325523",
"=  c #355C22",
"-  c #385D27",
";  c #33532C",
":  c #365A2A",
">  c #3A5C2C",
",  c #2D4335",
"<  c #2F4934",
"1  c #2E443C",
"2  c #324C36",
"3  c #30463D",
"4  c #334C3C",
"5  c #355435",
"6  c #3B5B36",
"7  c #35513B",
"8  c #395638",
"9  c #3A5B3A",
"0  c #376022",
"q  c #3A6424",
"w  c #3D6B23",
"e  c #3D642C",
"r  c #3F692A",
"t  c #3F7120",
"y  c #3E6332",
"u  c #41751F",
"i  c #43781F",
"p  c #406E26",
"a  c #40672F",
"s  c #416B2C",
"d  c #427621",
"f  c #457C21",
"g  c #437228",
"h  c #180E41",
"j  c #1C1444",
"k  c #1F1B4C",
"l  c #211A4B",
"z  c #2A264D",
"x  c #28244F",
"c  c #2C3B49",
"v  c #262354",
"b  c #292754",
"n  c #2B2954",
"m  c #27255B",
"M  c #282758",
"N  c #2B2B5A",
"B  c #2D3659",
"V  c #313D57",
"C  c #2D2E60",
"Z  c #2E3264",
"A  c #2F336A",
"S  c #303465",
"D  c #313767",
"F  c #33396B",
"G  c #353E71",
"H  c #2F4342",
"J  c #2F4149",
"K  c #334845",
"L  c #354C44",
"P  c #33444D",
"I  c #364A4D",
"U  c #375445",
"Y  c #385242",
"T  c #334453",
"R  c #364B53",
"E  c #374959",
"W  c #374B5C",
"Q  c #3A5259",
"!  c #3A4D63",
"~  c #37446B",
"^  c #38456E",
"/  c #384968",
"(  c #3C5363",
")  c #3E5864",
"_  c #3D536B",
"`  c #374273",
"'  c #394475",
"]  c #3B4B74",
"[  c #39457A",
"{  c #3C4B7C",
"}  c #3E5176",
"|  c #3F507C",
" . c #415B69",
".. c #415675",
"X. c #40547A",
"o. c #426068",
"O. c #476679",
"+. c #478022",
"@. c #498423",
"#. c #4C8A24",
"$. c #3E4D82",
"%. c #404F82",
"&. c #425485",
"*. c #455A85",
"=. c #435589",
"-. c #465A8C",
";. c #485D8C",
":. c #475B91",
">. c #495E93",
",. c #4A5F99",
"<. c #476284",
"1. c #4A628F",
"2. c #4B6294",
"3. c #4E6996",
"4. c #4D649B",
"5. c #506E96",
"6. c #516C9D",
"7. c #57799D",
"8. c #4F66A2",
"9. c #4F68A2",
"0. c #516BA4",
"q. c #546EAB",
"w. c #5472A3",
"e. c #5674AB",
"r. c #5876AD",
"t. c #5979AA",
"y. c #546CB0",
"u. c #5773B1",
"i. c #5874B3",
"p. c #5B7BB4",
"a. c #5D7DBA",
"s. c #607EBE",
"d. c #5D82AA",
"f. c #5D82B5",
"g. c #5F8AB7",
"h. c #5F81BB",
"j. c #618AB7",
"k. c #6084BD",
"l. c #6389BD",
"z. c #6896B9",
"x. c #6285C2",
"c. c #658BC5",
"v. c #678DCA",
"b. c #688ECC",
"n. c #6995C7",
"m. c #6A93CD",
"M. c #698ED2",
"N. c #6C94D3",
"B. c #6E99D6",
"V. c #6E97D8",
"C. c #6F9AD8",
"Z. c #719FD7",
"A. c #719EDB",
"S. c #6FA1C7",
"D. c #72A4C8",
"F. c #75ABCC",
"G. c #73A4D5",
"H. c #73A1DD",
"J. c #77ADD8",
"K. c #76A9DC",
"L. c #7BB3D4",
"P. c #7CB6D7",
"I. c #76A5E3",
"U. c #78A7E5",
"Y. c #77A9E4",
"T. c #78AAE5",
"R. c #7AADEA",
"E. c #7CB3E5",
"W. c #7DB3EC",
"Q. c #7FB8E9",
"!. c #7FB5F1",
"~. c #7FB8F2",
"^. c #82BEDE",
"/. c #81BCE6",
"(. c #81BBEB",
"). c #80B7F2",
"_. c #82BBF4",
"`. c #84BEF8",
"'. c #82C1DA",
"]. c #87C8E8",
"[. c #8ED3ED",
"{. c #92D6ED",
"}. c #92DAEC",
"|. c #86C2F5",
" X c #88C5F7",
".X c #8BCCF4",
"XX c #86C3FC",
"oX c #88C6FD",
"OX c #8BCBFE",
"+X c #8ED3F3",
"@X c #8CDAF3",
"#X c #8ED1FD",
"$X c #93DDF2",
"%X c #93D7F9",
"&X c #91D5FE",
"*X c #94DBFE",
"=X c #97E1EF",
"-X c #99E5F5",
";X c #96E4FE",
":X c #99E5FE",
">X c #97EAFF",
",X c #9BEBFE",
"<X c #9EF1FF",
"1X c #A6E9F8",
"2X c #A2EDFF",
"3X c #A3F3FE",
"4X c #ABF3FE",
"5X c #A5FAFF",
"6X c #ABFBFE",
"7X c #B3F6FF",
"8X c #B9F6FE",
"9X c #B4F9FE",
"0X c #BBFAFF",
"qX c #C4FCFE",
"wX c #CCFEFF",
"eX c #D2FFFF",
/* pixels */
"X O u # u u u u u @ @ u u u i u # i i u @ @ # f i # i i # @ @ @ # u i # # i u @ O @ u @ @ # u u u @ @ u i i i # # i i u # @ # i i u i u u + @ u @ u d u u i @ o ",
"+ @ u u d d @ @ u # u f u i u u # i u # # # i d u # # # # d f f +.d u @ # f +.f f u u u u u # # # # u i d i u # # i # # @ # i i u @ u @ u i f f f d u @ u f u + ",
"i i u i f f u u u u i +.f f f d d d t # # i f d t t # # d +.#.#.#.+.u # # f @.#.#.@.d f f f u # u u i +.f f d d t d # # # f f d u u p u u @.#.#.@.+.u @ u f i u ",
"u i @.#.@.f u i i u u +.@.@.#.#.@.+.d t f @.#.+.+.+.+.+.@.+.+.@.@.@.+.i i +.@.+.+.+.@.@.@.+.u u i u u +.@.#.#.#.#.+.d # f +.#.@.@.@.i @.f f @.@.@.@.+.f i f i u ",
"@ i i @.@.#.@.f +.f f +.#.#.#.#.@.@.+.+.#.#.#.#.#.#.#.#.@.f f +.f f #.+.f +.+.@.+.+.+.+.@.#.+.+.+.i f +.#.#.#.@.#.#.+.+.#.#.#.#.#.@.#.#.#.f f f f f #.f f f i u ",
"u u u i @.#.#.#.#.@.+.@.#.@.f f +.#.#.#.#.#.#.#.#.#.#.#.@.f f d # # @.#.@.f +.#.@.f u d +.#.#.#.#.@.@.@.#.#.f f +.#.#.#.#.#.#.#.#.#.#.#.f f f f u d @.#.#.f d i ",
"@ @ u i i f f f d d d d d f @.@.#.@.f d f f f +.#.#.#.#.@.i u d @ # +.#.#.f d d f f u f f +.f f i d d d d d @.#.+.@.f d d +.+.+.@.#.#.#.#.f f d u @ f #.#.f u + ",
"@ u u i f i i u # u # t # u f @.@.@.f f d f f u f #.@.#.#.+.+.+.d f @.#.#.d u i f f u +.f d u u u # # u # # f @.#.+.f f f d d f f #.#.#.#.f f @.i i @.#.#.d + O ",
"@ # # +.f # # # # # # # # # # d +.@.@.#.#.i u u d @.#.#.#.#.#.#.@.+.#.#.+.@ t d f i u f f @ w @ t t t t t t t t +.+.@.#.#.+.t # f @.#.#.#.#.#.#.@.+.#.#.@.u @ @ ",
"@ # i +.i f t # # d # # d f f +.@.@.@.#.#.#.f @.#.#.#.#.@.@.@.@.f @ q = = * = 0 o * o = o * o & & O + t t +.t +.#.+.@.#.#.@.+.+.#.#.#.#.#.+.@.@.f d f +.@.+.i u ",
"# # t +.+.+.t # u d f f +.+.+.#.#.@.#.#.#.#.@.#.#.#.#.@.f +.+.@.# o % 1 K L 4 4 3 1 1 1 3 3 1 J H ; 0 t @.@.@.@.#.+.@.#.@.+.#.#.#.#.#.@.f f @.@.d + @ f #.@.f i ",
"i # f #.#.#.f f +.#.#.#.+.@.#.#.#.+.#.#.i +.@.+.+.#.#.+.u d @.@.@ ; I } &.| } ] ] ] { ] ] { { %.} I e +.+.+.+.@.+.f #.#.f +.@.+.@.#.#.+.u f #.#.d @ u +.#.d u u ",
"# # # +.#.#.#.+.d d @.#.+.+.#.+.i #.#.#.@.@.#.+.#.#.#.@.t 0 * * % U O.d.n.j.f.p.p.i.i.p.p.p.p.i.q.} U 0 = * : : : w f #.#.#.#.+.#.#.#.#.@.#.#.#.@.+.@.#.#.f u @ ",
"@ # i +.+.#.#.@.# t f #.+.f @.+.i @.+.i @.#.#.f f @.#.f r U J H R O.z.'.[.].Q.P.Y.I.K.Y.Y.Y.Y.H.m.6._ I H H I T P 5 r t @.#.#.@.+.@.#.#.#.#.#.@.#.@.#.#.@.+.f u ",
"# i @.#.#.#.+.+.#.+.f #.+.+.@.#.#.@.u p f #.@.u + @ d s 9 O.2.-.5.z.].1X6X5X,X;X#X#XOXOX+X#XOX|.W.m.r.>.$.=.$.,.-.( 7 = d #.#.d d f @.@.#.#.#.+.f f +.f +.+.+.d ",
"# i #.+.#.#.#.#.#.#.@.@.+.@.@.#.@.i @ u i f u o $ . $ 4 o.d.m.n.S./.1X9X0X5X<X>X;X&X#X#X#X&XOXOX`.R.B.c.a.i.i.s.p.1.Q < 0 # +.t d d f f f f @.@.@.@.@.@.@.#.+.i ",
"u i @.f f #.@.@.#.#.@.f f +.#.#.#.d u i u # 0 7 c B V ) 7.P.[.[.{.=X8XqX0X5X,X>X:X;X#XOXOXoXoXoXXX`._.E.K.B.N.C.N.a.;.! < 0 # t d f +.d f f +.#.#.#.#.#.#.#.+.i ",
"i i i # u f f +.@.d # # # d +.#.#.#.+.+.i w 9  .5.t.6.d.L.=X6X6X8X0XwXwX8X4X4X4X4X2X*XOXOXoXoXoXOX#X#X#XoX~.R.R.U.V.h.4.W 8 t +.@.#.@.#.#.#.#.#.#.#.#.i d +.f i ",
"u i +.i u i f f f d d f # # +.@.#.#.#.i 0 5 ) 7.D./.J.P.[.,X6X0XwXwXeXwXqX8X8X0X0X7X,X&XOXXXXXXXOXOX#X#XOXoX~.W.U.A.V.h.2.Q 5 t +.#.#.#.+.+.#.@.+.i +.i u d i i ",
"# i #.+.f f f d d d f +.d # +.#.@.+.+.g % Q 6.F.{.<X-X$X-X>X3X9XqXwXwXwXwXwXwXwXqX0X3X>X#XOXoXoXoXOXoXoXOXOXXXW.U.I.I.V.a.=.W 9 g +.#.@.# +.+.#.i # +.+.f u u i ",
"f f f #.#.#.+.+.+.i # # @ i #.@.f u w 6 ) 7.P.}.4X9X6X5X<X,X2X4X0XwXwXeXeXeXeXwX0X7X4X>X;X*XOXoXoXoXXXoXOXOXXXXX`.).!.I.V.a.2.( 9 w t @.#.#.#.#.#.#.#.#.#.f i i ",
"u f @.#.#.@.@.#.#.+.f f i +.#.#.f = 7  .7.L.-X3X5X4X3X3X<X,X,X,X4X8XqXwXeXeXeX8X4X2X,X,X>X:X*XOXoXXXXXoXoXoXOXOXoX`.W.R.I.N.h.2.( 8 q d +.@.@.#.@.#.+.#.#.+.i i ",
"u i #.@.+.@.@.#.#.#.#.#.#.#.#.#.f & T -.S.}.3X-X=X$X:X,X,X,X>X;X>X4X8XqXwXwXqX4X>X:X:X>X,X,X:X&XOXoXXXOXOXOXOXXX_.W.I.H.I.I.B.a.=.c : + t d f f i i i @.#.+.f u ",
"u i f @.@.#.@.f +.#.#.#.#.#.#.+.w X c =.G.=X<X'.D.L..X,X3X,X:X>X>X3X4X0X8X8X4X2X>X>X:X,X<X3X:X&XOXoXOX&X;X*XOXE.m.l.c.C.R.R.A.a.$.c * # f f d d # u f +.@.@.f u ",
"u i +.@.#.+.f f f +.f d +.#.@.+.@ & T 2.J.;X}.z.5.e.K.+X*X%X%X*X>X2X,X4X2X2X,X,X>X:X>X,X,X3X:X*XoXXXoX.X%X%XQ.l.4.2.i.B.W.W.C.s.=.c ; + d d # # # # @.+.+.+.i # ",
"# f @.#.f # d +.+.+.d t +.@.+.d r 8 _ d.].-X'.5.G G p.C.T.U.W..X;X,X>X;X;X>X>X>X:X,X>X,X,X>X:X*X#XXXW.Y.R.K.c.;.G [ e.I.!.R.C.x.3.! 3 = w t t # # i +.+.+.+.i # ",
"u f @.+.i @ # i #.#.#.@.#.+.w - 9 o.d.'.-X-XP.3.C C $.4.0.r.n.(.:X3X:X:X:X>X>X,X,X,X,X,X,X,X:X:X*X|.V.p.e.6.-.F N { p.E.`.R.C.N.a.1._ L & + t f i f +.+.#.@.+.# ",
"u f @.+.+.i # i #.#.#.#.#.f 0 < ) d.P.-X6X,X'.d.[ m C Z A [ 6.n./.{..X.X+X:X>X,X,X,X,X;X*X.X.X.X].G.r.X.F S Z N F 4.m._.XX!.A.I.V.l.4./ , q f +.@.@.+.+.+.#.+.i ",
"u f #.#.#.#.@.#.#.+.f d @.f - J &.n.{.6X6X1X].F.e.' M j h v ` 4.c.N.m.C.Q.+X;X,X,X,X,X%X(.K.N.m.m.q.%.M j   v F :.n.W.oXXXR.H.R.U.V.a.*.H e +.#.#.#.#.@.+.+.i u ",
"@ u @.#.@.i #.#.+.@.f d @.+.0 J X.n.[.3X5X<X-X}.L.t.' v h v S ' =.:.:.e.m.|.*X<X<X,X:X.XG.p.4.:.;.X.F M k k D >.c.Q. XoX`.R.H.U.I.N.i.&.H q +.#.#.@.+.+.+.i # + ",
"u i @.#.+.u +.@.@.+.f d +.f 0 1 ] j.].3X5X5X<X3X=XF.w.] N M M v M M N $.p.T.%X>X,X,X;X!.v.>.S v N x b N N A 2.x.E.+X&XoX_.U.H.I.H.v.e.| 3 q i #.#.+.i #.#.f # # ",
"u i #.#.@.+.i +.#.+.t d i # * 1 ] j.].2X6X9X6X6X3X@XL.d.$.Z k h j h h A 0.I.+X:X*X*X*XE.a.$.j   l l l N ` 2.v.W.oX*X&XoX!.U.H.U.H.v.q...1 - u @.@.#.#.#.#.+.+.i ",
"# i #.+.+.i +.+.+.+.f # +.f = 1 ^ g.].2X0XqX0X7X3X>X=XP.d.] N M m m v ` e.Y.OX*X#X&X&X(.k.=.N v C C C G 4.n.(.OXOX#XOXoX_.Y.A.U.I.v.q.} 3 = i @.#.#.@.f +.#.+.i ",
"# # +.+.+.+.#.+.+.+.#.i @.f 0 1 ] g.].4XqXwXwX7X5X3X5X=XF.w.=.*.;.;.<.6.n.W.OX#XOX#X#X_.B.e.-.&.$.$.$.>.l.E.*X*X&XOXOXoX).U.H.U.A.v.q.X.4 q d @.#.@.+.u # #.+.# ",
"# # +.+.+.#.#.#.#.#.#.#.f w q H ] g.].5XqXeXeXqX0X6X5X,X[.F.z.z.S.D.F.P.Q.|.OX#X&X&X#X|.(.H.n.v.c.g.h.v.Y.+X,X>X:X*X&XoX).I.A.T.A.v.e.| 4 q f #.@.+.+.+.+.#.f @ ",
"# # # # f #.@.#.#.#.#.+.f # q 3 ] g.].3X0XwXeXeXqX0X5X<X-X@X}.}.}.}.}.}.+XOXXXXX|. XoXoX`._._.(.Q.Q.Q.~..X;X2X<X>X*X&XoX!.U.A.U.I.v.q.} , - d #.#.@.+.+.#.#.# + ",
"# # # # +.+.f +.#.#.+.# f d q H ] f./.,X6X0XwXeXwXqX2X,X<X<X5X6X3X>X[..X.XOX|.E.H.T.|.oX_.).).).*X*X:X:X:X,X<X,X:X*X#XoX!.U.I.I.H.v.y.} 1 - i @.#.#.@.@.#.#.# + ",
"i i # # # # +.+.#.#.#.+.+.d 0 1 / f.Q.*X,X4X0XwXwXqX4X,X<X<X5X5X:X].n.z.F.OX|.B.p.v.(.oX/.s.s.^.&X>X2X,X,X<X,X:X*X#X#XoX).U.A.I.H.v.y.} 1 w +.f u i #.#.#.+.f i ",
"i i i +.+.t +.i +.+.+.+.+.d o 1 ~ p.Y.#X:X,X4X0XqX0X1X,X<X,X,X;X/.c.>.:.t.K.Z.t.%.4.m.T.l.;.=.i.Y.%X,X,X3X2X;X&XOXOXoXoX).I.I.I.H.c.q.] , q @.+.u u @.@.i i d i ",
"# i +.+.#.#.+.+.+.i i +.#.d O , ~ i.I.OX*X>X3X4X7X4X4X2X,X:X%X_.c.>.A F $.f.p.-.Z X.w.s.4.F A %.j.K.%X,X,X>X&XOXXXXXoXoX_.R.H.I.I.c.0._ , q +.#.i i @.i u i i # ",
"O # @.+.+.@.@.@.+.f f #.#.+.q , ~ e.I.OX:X,X3X2X4X,X<X,X<X*X|.n.2.G C C X.=.&.G S F &.;.X.S C F =.l.E.%X:X*XOXoXoXoXOXoX~.U.H.U.H.v.q.... + f @.@.@.#.f f #.i u ",
"@ u f f +.+.f i +.f f +.i w : R &.x.W.#X*X>X>X,X,X,X,X:X%X(.n.0.G N m C S F A Z C C S F S C n n D :.l.E.|.oXOXoXoXoXXX|.!.I.H.Y.H.b.i.*.I 5 w i @.@.f u f #.f u ",
"i i u i +.f u @ # d d f + 5 R <.f.U._.oX#X*X*X>X,X,X;X+XE.c.4.[ N v M n N N N N N N N N N N n z M F :.a.A.~.oXOXOXoX~.W.U.I.A.I.H.C.v.t...Q 6 g f f u u u f i i ",
"# i @.#.@.f d u d d d w ; R 5.n.W..XOXOXoXoX#X;X>X>X*X_.v.2.G N n M M N N N N N N N N N N C n N n N F =.f.Y.OX&XOX~.!.I.A.A.A.A.A.A.I.N.p.;.Q ; p #.@.i i f i u ",
"# d +.+.@.#.@.+.f u q y Q 1.n.|.&X*X#XXXXXoXOX*X:X:X*XE.a.$.C v n N N N N N N N N N C N N N n n N v M ` e.G.OX*XOX`.R.H.B.C.A.A.H.U.W.T.N.y.X., q i #.f i i i i ",
"u u u d +.#.#.#.f w 5 Q 3.n. X*X>X:X#XoXXXXXOXOX#X*X#XQ.a.$.N v n n n n n N N n n n N N n n n n n M M G w.G.+X*X#X|.R.A.B.C.A.A.A.U.).R.V.y.X.3 = u #.#.#.i i i ",
"@ @ u f f f f f p & P ;.c./.*X,X,X*X#XXXXX`.oXoXoX#X#XQ.h.$.Z M M n z z n n B n z n n n n z z n n M N [ e.K.+X&XoX~.R.A.C.C.H.K.H.I.U.C.s.>.W < o u i #.#.i u O ",
"@ @ u +.f u u u w $ V 8.b.).*X:X:X*X#XXX`._.).`.OX#X#XQ.l.=.A C N b z z z n n z z z n n n z z n N M Z $.t.Y.OXOX|.W.I.I.C.C.H.I.U.H.V.s.;. .8 - p i #.#.@.i + o ",
"@ @ i i f u @ # + % T ,.s.I.XXOX&X&X&XoX).).).)._.#X#X(.l.=.D N n n z z z n z z z z z z z z z n N M Z { t.K.OXXXW.Y.H.G.C.C.I.U.).N.s.>.E 9 g #.f #.#.#.@.u p u ",
"@ u i i f i u @ + % T ,.a.C.!.`.`.`.oX`.).C.A.). X#X&X(.l.=.D N n n z z z z z z z z z z z z z z n M Z { f.Y. X|.U.C.C.H.I.I.I.I.N.s.4...2 a f f i u f f #.@.i u ",
"u u i @.@.+.i u w % T 2.a.V.R.W.).).).).A.A.A.).oX&X&X(.l.=.A N n n z z z z n z z z n n z z z n M M Z { f.K.OX_.U.C.B.A.U.U.I.N.a.>...I o u i #.u O p i #.f f i ",
"u u i @.#.#.f i d ; E 2.a.C.R.R.I.I.I.).A.A.).).OX&X&X(.x.=.S N n n z z n n n n z z n n z z z n N M C { p.K.OX`.U.C.C.H.U.U.C.h.,. .R 8 - i #.#.u u u @.#.u u u ",
"@ u i @.#.#.#.+.@ * 7 _ 3.f.A.I.A.C.M.c.M.C.I.).`.#X&X(.s.X.N M n n n n n N N n z n n B n n z n M n N [ e.C.|.~.U.C.C.H.H.m.f.2...K 7 a f i #.#.f f #.#.#.f u u ",
"+ u i i @.#.#.@.# q 0 9 ( 2.x.A.A.c.r.0.s.M.)./.).`.OX(.s.%.M b n N n n N N B n n N N C N N n n M M N ` 6.m.!.W.U.I.I.H.b.p.2.! Y ; 6 s f @.#.#.#.#.#.#.#.f u u ",
"u i @.@.#.#.@.@.#.f d p 5 ! q.v.M.r.=.X.6.c.).V.).).oX(.c.;.F N N N N N N C C N N N N N N N N N N N D { 9.v.Y.U.I.I.I.A.h.>.~ K 2 e a a p f @.i f f f f f f f f ",
"@ i @.@.@.#.@.@.#.#.+.u - I ;.u.i.:. .E ..e.N.C.A.)._.).Z.p.2.' N b n N N N N N N N C N N N N M N D { 4.p.m.A.I.I.I.U.A.a.=.D 1 ; + p a p f @.@.@.f #.#.#.#.f f ",
"# f @.d f #.@.@.#.#.+.t w 9 _ ;.;. .I 4 E X.i.v.I.R.R.R.W.K.c.2.F b b N C C Z C N N Z Z Z N M M C $.8.x.N.C.C.H.H.I.U.H.a.$.~ H 8 p p u u i @.#.#.@.#.#.#.#.+.i ",
"u f f # d f f f @.d # # @ 0 9 E E I 6 > 8 E =.q.v.H.A.T.XX XE.l.=.S C C G X.[ G Z D [ { ' Z N Z [ 8.c.I.U.U.I.H.I.I.R.A.a.:.~ R 9 g f @.#.#.#.#.#.#.#.f u @.f i ",
"u f f d d d f f d d d f # q e 7 Y Y 6 e ; 4 ! *.r.b.V.R.XXOX).A.q.X.Z A X.4.,.X.D ` :.8.=.D Z [ 4.x.H.!.!.!.U.U.U.R.!.I.x.,.` R a g +.@.f @.@.#.f f @.f u d i i ",
"@ f #.+.f f f f d d +.+.i @ w e 6 6 a a > 6 Y E -.i.b.I.).).).T.v.0.X.G ,.s.i.,.[ $.e.x.w.{ [ >.x.C.R.U.R.U.I.I.U.R.R.I.x.2.~ R 6 g +.+.i f @.@.f u f f f u i i ",
"i f +.#.#.#.@.@.+.d d t # i +.f p a p p g s 6 4 E -.r.c.M.v.M.U.U.v.0.6.a.A.A.s.4.r.m.H.v.0.0.h.K.U.H.v.c.c.c.v.v.b.M.v.e.*.E 4 > g +.#.#.#.#.#.#.#.#.#.#.f i i ",
"u f @.#.@.@.@.@.#.+.f f d +.#.@.f u p u p s > > Y ! ;.8.8.8.i.V.T.U.v.v.N.U.U.N.x.m.I.R.A.c.v.A.R.C.x.q.8.4.8.0.0.q.q.0.;.( Y y g f i +.+.@.@.#.@.@.+.#.#.+.i i ",
"u i @.@.@.@.@.#.#.#.#.#.#.#.#.#.@.u u u p - > a a Y ! { X.%.;.k.A.U.A.C.A.A.A.A.B.C.A.H.A.C.A.I.K.c.9.| ] ' { { $.$.%.{ ! U > g @.f f d d d d f f i i @.#.+.i i ",
"i i +.+.@.#.@.+.f @.#.#.#.#.#.f i i i u + p s s a 7 I T c c  .1.a.b.b.v.c.x.x.x.c.v.x.x.x.c.b.v.x.6.} R P P R T V E E T Y e g #.+.u d f f d d d u d f +.@.@.i # ",
"u i +.@.@.+.f f f f f f @.@.@.f f @.f d d d f g a 5 2 2 2 2 K  .;.8.8.8.4.,.,.,.4.4.,.,.4.4.8.8.4...I 2 5 6 5 2 Y Y Y 8 > p #.#.f u u u u u u p @ d +.+.+.+.i # ",
"u i #.#.f u f f @.+.f t f #.@.@.#.#.@.@.#.@.f g r e : : - : 5 P F X.^ ^ F X.^ ^ X.F F ..^ ^ ^ ' X.E 7 - e a e a a a a a g f f #.f f u p u u u u u i +.@.+.f i u ",
"u f @.+.d @ @ d #.#.@.@.#.@.f @.#.#.#.#.#.#.+.f d g w 0 - - 8 7 I T T I I I I I I I P P c P V T P Y 6 a s a e p f f f f f #.#.#.#.#.d u u i u i i f +.+.@.#.f i ",
"u i @.+.+.f d f #.#.#.#.#.@.@.@.#.#.#.#.#.+.f f @.f f d p s > 6 6 9 6 8 8 6 6 6 8 6 6 6 6 8 6 8 6 6 y a a a s d f #.f @.#.f f #.#.#.f f i i @.i @.@.+.+.@.@.+.u ",
"# i #.#.#.#.@.#.#.+.f d +.#.#.#.#.@.@.@.@.d d +.#.#.#.@.i g p p g g g s q w p p p p p g g g g p p p q - e s p f #.@.@.#.f i f f @.#.#.#.@.#.#.#.#.#.#.@.i +.i u ",
"# i +.#.@.f @.#.@.@.f d @.#.#.@.@.f d f @.#.@.f f #.#.@.i f g f f f d d i p p u u g f f g u f f i p u p p f f f f @.i i #.#.#.f f #.#.#.#.@.#.#.#.@.i @.@.i # + ",
"# i +.#.@.i +.@.@.+.f i f @.#.+.f f f f #.#.+.f f #.#.#.@.f f @.@.f f @.@.i f i f f f #.f u i #.f f u p i f f f f f f f #.#.f f +.#.#.#.#.+.+.#.@.@.i #.#.i # @ ",
"# +.#.#.@.i i +.#.+.# i i d i i f @.#.#.+.d # @.#.f #.#.#.f d #.@.@.#.#.@.@.#.#.@.@.#.#.#.f i f #.f u d i i f f f f #.#.f i u #.#.+.#.#.#.f i @.#.#.#.#.#.#.+.i ",
"# i @.@.+.f +.+.+.+.i u +.@.+.i f #.f f +.+.+.@.f f @.#.#.f f #.#.#.@.i i #.#.#.@.#.@.#.@.f i @.f #.f u f #.f f f #.f i f #.f #.f f +.#.#.+.f @.#.#.@.i i #.+.i ",
"# i +.+.+.+.#.@.f #.@.d +.#.#.+.@.#.f i f #.#.f f f f #.#.@.@.#.#.@.@.u u #.#.#.f f f f f @.#.@.f #.f i @.#.#.#.@.#.f i f #.#.f f f +.#.#.@.+.#.#.@.+.i # #.+.i ",
"# u i i @.#.#.#.#.#.#.#.f d #.@.@.#.@.@.@.@.f u d @.f @.#.#.@.@.@.@.i +.@.#.+.f @.f i f @.#.#.#.#.#.#.#.f i #.@.f #.#.f @.f f i f +.f @.#.@.@.#.#.i f +.+.#.i @ ",
"# # i i f @.@.#.#.#.#.+.i f #.#.#.#.@.@.@.@.f i f @.f f f f f #.#.#.+.+.@.#.i i f f u u f #.@.@.#.#.#.#.i i #.#.#.#.#.#.#.f f i f @.f f +.f f #.#.#.+.+.#.#.i O ",
"# # # # i i f +.#.#.+.i +.+.#.#.@.@.f @.#.#.f f f #.f d f f f @.@.@.@.@.#.#.f i #.i u u u i i @.#.#.f i f @.#.#.#.f f f #.#.f f f @.f f d f f #.#.#.@.@.#.#.i + ",
"i u # u # i f +.@.#.+.+.i +.@.f d f i f #.#.#.+.@.#.#.#.f @.@.+.i i #.#.#.@.@.#.#.f u u u u f @.f #.f i f f f i i i i f #.#.#.f @.#.#.#.f @.@.f u i @.#.#.+.i u ",
"@ @ # # i d i i i i i i i i i i d u i d f f f f f f f f d f +.f @ @ i i u u i i i u p u u u i u i u u u f i i u i i i i f i f f f f f f f f f f @ @ i i u u # # ",
"O + # # i # # @ @ + @ # u # # # f u i i @ @ u f d d u u u u i i @ @ u @ O + @ u u @ u u u u u p u p u u i u u u i i i u u p u i i u u u u u d d @ @ u @ O + O O "
};
