/* XPM */
static char *__resized[] = {
/* columns rows colors chars-per-pixel */
"80 80 247 2 ",
"   c #11130A",
".  c #1D1516",
"X  c #1E1C16",
"o  c #191719",
"O  c #261A16",
"+  c #231D1A",
"@  c #2B1E1C",
"#  c #361A1A",
"$  c #1E2416",
"%  c #1D2F10",
"&  c #1A2918",
"*  c #212416",
"=  c #222A16",
"-  c #292916",
";  c #23231A",
":  c #2B241C",
">  c #252B19",
",  c #2B2C1C",
"<  c #372718",
"1  c #273517",
"2  c #263C15",
"3  c #2A3C17",
"4  c #2B351B",
"5  c #293B19",
"6  c #343817",
"7  c #1D1C21",
"8  c #291C25",
"9  c #301D21",
"0  c #2D2324",
"q  c #2A2329",
"w  c #352627",
"e  c #34292C",
"r  c #3B2C2D",
"t  c #383722",
"y  c #3D322C",
"u  c #3C2D32",
"i  c #382A35",
"p  c #363030",
"a  c #441D18",
"s  c #5B1E12",
"d  c #651E15",
"f  c #4D340B",
"g  c #472618",
"h  c #4B2C1E",
"j  c #562915",
"k  c #483719",
"l  c #583815",
"z  c #793206",
"x  c #672915",
"c  c #762D13",
"v  c #683415",
"b  c #6B3A14",
"n  c #763717",
"m  c #462A27",
"M  c #582B22",
"N  c #48332C",
"B  c #583629",
"V  c #432F33",
"C  c #443533",
"Z  c #4A3433",
"A  c #4C3A35",
"S  c #483938",
"D  c #573B33",
"F  c #513E3B",
"G  c #673828",
"H  c #783E2B",
"J  c #613E34",
"K  c #2B4417",
"L  c #2A4817",
"P  c #2C4419",
"I  c #2E4A19",
"U  c #394717",
"Y  c #324D1A",
"T  c #2D5116",
"R  c #2D521A",
"E  c #305317",
"W  c #32531A",
"Q  c #3C541A",
"!  c #355B1B",
"~  c #3B5C1B",
"^  c #37631B",
"/  c #3A641C",
"(  c #3D6D1D",
")  c #3F711F",
"_  c #3A5226",
"`  c #3F6F20",
"'  c #3F7220",
"]  c #57440E",
"[  c #474A18",
"{  c #574916",
"}  c #455318",
"|  c #4B5318",
" . c #435B1A",
".. c #4C5C1A",
"X. c #575619",
"o. c #6B4416",
"O. c #654917",
"+. c #774817",
"@. c #675619",
"#. c #765517",
"$. c #43631B",
"%. c #4C621C",
"&. c #426C1D",
"*. c #4B6B1E",
"=. c #56651B",
"-. c #41741F",
";. c #4C741F",
":. c #43781F",
">. c #5A711E",
",. c #6D661A",
"<. c #574523",
"1. c #55433D",
"2. c #5C463A",
"3. c #6C4F2F",
"4. c #7A4A2C",
"5. c #6A4633",
"6. c #764832",
"7. c #417620",
"8. c #457C21",
"9. c #497D22",
"0. c #4D7927",
"q. c #4B712A",
"w. c #597921",
"e. c #677921",
"r. c #777721",
"t. c #677B3D",
"y. c #553F41",
"u. c #584646",
"i. c #5C4A44",
"p. c #5C5542",
"a. c #624D47",
"s. c #65524A",
"d. c #6B5649",
"f. c #6A554C",
"g. c #755C4A",
"h. c #6A5854",
"j. c #725E52",
"k. c #79644A",
"l. c #746D50",
"z. c #796659",
"x. c #6C5D61",
"c. c #746565",
"v. c #892C13",
"b. c #843314",
"n. c #8B3815",
"m. c #933915",
"M. c #874816",
"N. c #974717",
"B. c #865615",
"V. c #995818",
"C. c #A44C18",
"Z. c #A95818",
"A. c #B5591B",
"S. c #8E6418",
"D. c #966318",
"F. c #A76A13",
"G. c #AC6319",
"H. c #A76818",
"J. c #B76719",
"K. c #B56D19",
"L. c #B57318",
"P. c #BC731A",
"I. c #8B522D",
"U. c #874B33",
"Y. c #875736",
"T. c #935934",
"R. c #A25F22",
"E. c #8D7026",
"W. c #84623C",
"Q. c #996836",
"!. c #AB6C29",
"~. c #A56634",
"^. c #A97638",
"/. c #B67734",
"(. c #C15F1D",
"). c #C6691D",
"_. c #C8761B",
"`. c #D1741C",
"'. c #C6772D",
"]. c #876847",
"[. c #85754A",
"{. c #957948",
"}. c #806D59",
"|. c #8A7D57",
" X c #A77D42",
".X c #897464",
"XX c #887466",
"oX c #478022",
"OX c #498423",
"+X c #4C8A24",
"@X c #4C8129",
"#X c #538324",
"$X c #538333",
"%X c #778124",
"&X c #938C28",
"*X c #B08835",
"=X c #CB861A",
"-X c #D4891B",
";X c #D6921C",
":X c #E3981D",
">X c #EBAA1E",
",X c #D18E2D",
"<X c #CC953D",
"1X c #D79638",
"2X c #E4942E",
"3X c #D5A135",
"4X c #E3AA37",
"5X c #EFB030",
"6X c #FAC423",
"7X c #9A8655",
"8X c #968957",
"9X c #A98448",
"0X c #B58A44",
"qX c #A69C59",
"wX c #B59251",
"eX c #BBAA59",
"rX c #9A8D61",
"tX c #A79B69",
"yX c #B7AC6C",
"uX c #B1AB71",
"iX c #C99C46",
"pX c #C59E54",
"aX c #D4A950",
"sX c #E0AC41",
"dX c #E6B042",
"fX c #E4BB54",
"gX c #C2B66F",
"hX c #EBCF5D",
"jX c #D8CA6C",
"kX c #DCD879",
"lX c #E7D266",
"zX c #E9DA75",
"xX c #D7D48E",
"cX c #E6E58C",
"vX c #EFE58F",
"bX c #F9F597",
"nX c #E6E5A6",
"mX c #FBF9A9",
"MX c #EAEAB4",
"NX c #FAF8B5",
"BX c #FBFAC5",
"VX c #FBFBD2",
"CX c #FDFDDC",
"ZX c #FFFFE4",
"AX c #FEFEEA",
"SX c #FFFFF4",
"DX c #FFFFFB",
/* pixels */
"T ^ -.) ) ) ) ) :.) ) ) :.) :.) ) 7.7.) ) ) ) 8.:.:.:.:.( ( ( ) ) ' 7.) ) 8.:.( ^ ( -.( ( ) ) ) ) ( ( -.-.:.-.:.) :.-.-.( ( ) :.7.-.7.:.) ( ( ) ) -.7.) ) :.( ! ",
"/ ( ) -.7.' ) ) ) ) ) :.:.:.:.) ' ' :.) ( ) :.7.) ) ) ) ' 7.8.8.OX7.) ) ) :.OX8.7.7.) -.:.-.) ( ) ) -.:.7.-.7.) ) ) -.) ) ) -.:.) ) -.) ) 7.8.8.8.7.) ) ) 8.-.( ",
":.:.-.:.8.8.) ) ) :.:.OX8.8.8.:.' 7.' ) ) :.OX' ' ' ) ( ' 8.+X+XOXOX) ) ) 8.OX+X+X8.7.8.8.7.) ) ) -.:.8.8.:.:.;.:.:.-.( -.7.8.7.' ' ` ` 7.OX+XOX+XOX-.) ) 8.:.:.",
"-.:.OX+XOXOX7.-.:.) :.oXoX+X+X+XOXOX' ' 8.oX+XoXOXoXOXOXOXOXOXOXOXOXoX:.-.8.OXOXOXOXOXOX+XOX:.-.8.-.-.OXOX9.w.e.e.9.) ) 8.oX+X+XOX8.OXOXOX8.OXOXOXOXOX7.:.OX:.) ",
"-.-.OXOXOX+XOXOXOX7.8.OX+X+X+XOXOXOXoXOX+X+X+X+XOX+X+X+XOX8.8.OX8.8.OXOX8.OXOXOXOXOX8.OXOX+XOXOXOX8.8.OX+X#X>.r.r.OX8.9.+X+X+X+X+XOX+X+X+X8.8.8.7.OXOXOX8.8.7.-.",
"-.-.-.:.9.+X+X+XOXOXOXOX+X+X8.8.oX+X+X+X+X+X+X+XOX+X+X+XoX8.7.7.' ' OX+X+X7.OX+XOX8.7.7.8.+X+X+XOXOXOXoXOX+X>.r.&X#X+X+X+X+X+X+X+X+X+X+XOX8.8.8.) ) OX+XOX8.-.-.",
"( ) -.:.8.8.8.8.8.' 7.7.7.8.OX+XOXOXoX8.7.8.OXOX+X+X+XOX+X7.) 7.( ) 8.+X+X8.) :.8.7.7.8.8.OX8.8.7.7.7.8.:.8.#X#X#XOX7.-.7.8.OXOXOX+X+XOXOX7.7.7.( ) OX+X+X8.( / ",
"( ( -.:.8.-.-.-.' ) ' ' ' ) 8.oXOXOX8.7.8.7.' :.8.+X+X+X+XOXOXOX8.7.OX+X+X7.) ) 8.7.7.8.8.' ' ' ) ) ' ' ( ) 7.oXoX:.w.w.*.:.7.' 8.+X+X+X+XOX9.OX7.:.OX+X+X7.( / ",
"( ) ) oXoX) ) ' ) ' ) ' ) ) ) 8.oX:.OX+X+X8.) ) :.OX+X+X+X+X+X+XOXOXOX+XoX) ) OX8.8.:.oX8.' ' ' ) ) ) ) ) ) ) ) OX:.%X&Xe.*.) ) 7.OX+X+X+X+X+X+XOXOX+X+XOX) ( ( ",
"( ) :.8.8.' ) ) ) ' ) ) 7.8.' oXOXOX+X+X+XOX8.OXOX+X+X+XOXOX+XOX8.7.7.OX+XoX+XOX8.) ) :.8.7.' ' ) ) ) ) ) oX:.OXOX:.&X,X&X>.oXOX+X+X+X+XOXOXOXOX8.' 7.OXOXOX8.-.",
") ) 7.OXoXOX' ' 7.8.8.7.oXoXOX+X+XOX+X+X+XoXOX+X+X+X+X+X8.9.OXOX' ( ' 8.+XoX+X+XoX7.:.OXOXoX` ( ( ) ) oXoXoX+XOX+XOX&X4X&Xw.OXOX+X+X+XOX8.8.OXOX' ( ) 8.+XoX8.:.",
":.) ' +X+X+XoX7.OXOX+X+XOXOX+X+X+XOX+X+X8.OX+XOXOX+X+X9.-.OX+X+X7.( ' OX+X:.:.OX+X8.) +X+XOX$.~ / oX+X+X+XoX+X+XOX8.&X3XE.w.+XoXOX+X+XOX7.OX+X+X7.( ) OX+X7.-.-.",
") ) :.:.+X+X+XoX' 7.OX+XOX8.+XOX8.+X+XOXOX+X+XOXOX+X+X+XOX+X+X+XOX8.OX+XOX7.:.oXOX7.-.OXoXOXX.O.@.*.9.+XoXoX+XoX:.oX&X*Xe.w.+XoXOX+X+X+XOXOX+X+XOXoXOX+X+X8.-.) ",
"( ) :.oXOX+X+XOX7.' oX+X8.8.OXoX7.+XOX8.+X+X+XOXOX+X+X+X+X+X+X+XOXOX+XOX0.e.e.:.8.8.8.7.8.=.S.!.D.X.$.+XoX:.+X:.oXoXw.r.>.#X+XoXOX+X+X+X+X+X+X+XOX+X+X+XOX8.7.) ",
"-.:.OX+X+X+XOXOX+XOXoXOXoXoXoX+X+XOX7.( 8.+X+X7.7.8.OXOXOX+X+X8.8.8.9.7.e.*X&X:.OXOXOXOX..o.*X4X3XI.{ 7.oXoXoX+XOXoX:.&.:.OX+X:.7.8.OXOX+X+X+XoX8.8.8.oXOXOX8.7.",
") :.+XoXOX+XOXOX+X+XOXoXOXOXOX+X+X7.' ` 7.8.8.' 7.7.8.8.8.8.OXOXOXOXOX8.w.&X%X:.8.OXOX8.| b '.5X5XP.B.X.*.:.OX+X+X:.) ) ) :.oX) 7.7.8.8.8.8.OXOXOXoXOXOX+XOXOX:.",
") :.OX:.8.+XOXOX+X+XOX7.8.OXOX+X+X8.-.7.-.) 7.7.7.8.8.8.8.8.OX+X+X+X+XoXoX;.;.OXOXOXOX) [ b K.>X6X>XL.+.| &.OX+X+X8.-.-.7.) 7.7.8.8.8.8.7.8.OX+X+X+X+XOXOX+XOX:.",
":.:.7.) -.8.8.OXOX7.' ' ' 7.OX+X+XOXOX8.OXOX+X+X+X+X+XOX+X+X+X+X+X+X+X8.-.OX+X+XOXOX-.( [ v J.>X6X>X_.N.{ ! 9.+X+X+XOX8.OXOXOX+XOX+XOX+X+X+X+X+X+X+X+X8.7.OX8.:.",
"-.:.OX-.7.7.7.8.8.7.7.7.' ' 8.+X+X+XOXOX8.8.OX+X+X+X+XOX8.OXOX+X8.8.OX7.) :.OX+XOXOX8.) | v G.:X5X:X_.N.] ! 8.+X+X+XOX9.7.OXOX+X+X+X+XOXOXOXOX+X8.8.OX7.-.7.:.-.",
") :.+XOX8.8.8.8.7.7.8.OX7.' OXOX+XOX+XOX8.7.OX+X+X+X+XOX8.8.OXOX:.) 8.OX8.) :.OX8.OX+X:.| b G.2X>X-XA.n.{ ~ 8.+X+XOX+XOX8.7.OX+X+X+X+XOX7.8.OXOX:.) 8.OX8.-.-.:.",
"7.8.OX+X+X+XOXOXOX7.' ' ` 7.+XOXOXOXOX+X+X+X+XOXoXOXOX+X+X+X+X+X+X+X+X+X+X:.OX+XOXOX8.OX=.b Z.-X:X`.A.N.{ ! +XOXOXOXOX+X+X+X+XOXoXOXOX+X+X+X+X+X+X+X+X+XOX8.8.:.",
"-.8.OXOX+XOXOXOXOXOX8.8.8.OX+X+XOX8.8.+X+XOX8.OXOXOXoXoXOXOXOXOX+XOXOX+X+XoX+X+X-. .$.8.%.b Z.`.`.(.A.K.S.@.*.9.OX7.OXOX+XOX8.OXOXOXOXoXOXOXOXOX+XOXOX+X+XOX:.:.",
") 8.+XOXOXOXOXOX+X+X+X+X+X+X+X+XOX) 7.OX7.7.-.+X+X8.oX7.7.7.8.8.7.-.-.OX#XoX+X9...{ X.>...v A.).A.C.A.;XP.B.| :.oX7.7.OX7.7.-.+X+X8.OX7.' 7.8.OX:.7.7.OX+XOX:.-.",
"-.:.8.OXOXOXOXOXOXOX+X+X+X+XOXoX8.7.7.7.7.7.OX+XOX7.7.8.8.7.7.' 7.) 8.OXOXOX-.=.D.L.F.@.{ c A.).(.m.N._.H.@.%.-.8.8.7.7.7.7.OX+XOX' ' 8.8.7.7.7.-.-.8.OXOXOX:.-.",
"-.:.OXOXoXoXOX8.8.8.8.8.OX+XOXoX8.OX8.7.8.oX+X+X+X' ' 7.7.7.' ' ( 7.8.OX8.) Q ] H._.L.o.j c C.A.Z.n.n.B.@.=.8.7.8.OX8.7.8.oX+X+XOX) ) 7.7.7.' ) ) ) oXoXoXOX:.) ",
") :.+X+XoX) ) oXoXOX7.' 8.+XOXoXOX+XOXOXOX+X+XOXoX7.' ` ) ) ' ' ( 7.OXOX' E < g #.S.#.v s x n n M.b.c k *.OXOXoXOX+XOXOX+X+X+X+XOX7.' ) ' ' ) ) ) ) OXOXoXOX:.) ",
"-.7.OXOX) ) ) :.+X+X+XOX+XOX8.OX+X+X+X+X+XOXOX8.7.7./ / / ) 7.8.7.7.:.( ! 4 : @ < < < < g M m g j x O.*.OXOX8.OX+X+X+X+X+X+XOX+X+XoX7.) ) ) ' 8.:.oX:.OXOXOXoX) ",
"-.:.OXOXOX:.) :.+X+X+XOXOXOXOX+X+X+X+X+X+XoX' W W R P L ! ' OXOX) ! T P 6 y y r q e N 5.3.5.V 9 : g [ 8.+XOXoXOX+X+X+X+X+XOX8.OX+X+XOX7.7.OXoXOXOXOXOXoXoX+XoX:.",
"-.:.oX+X+X+X+X+X+XoX8.7.oX+X+X+X+XOXoXoXoX' ! 4 ; ; X & K ( OXOX~ 1 $ ; y u.s.s.u.s.{.<X0X].u.S r - 3 / 8.+XOX+XOX7.8.8.7.) ) oX+X+XOXOX+XOX+X+X+X+X+XOXoXOX) ) ",
"( :.OX+X+X:.oX+XoXOX8.7.OX+X+X+XOX8.8.' ) ! 5 t C 1.1.1.t P Y Y U y y C 1.z.z.z.x.j. XsXiX}.h.u.F w - 2 / +X+X+X) T 2 K 2 I / -.OX+X+X+X+X+X+X+X+XOX:.oXoX:.) ( ",
") -.OX+XOX) oX+XOXoX8.7.OXOXOXOX8.OX8.) ^ 5 e 1.j.z.z.s.C 4 < k D F i.f.z.XXXXXXx.j. XdXiX].h.u.u.Z w ; Y &.7.( W > > ; ; 1 I / :.OX+X+X+XoXoX+X+XoXoX+X+X:.) ) ",
"-.OX+X+XoXoX:.oX+XoX' 7.7.7.7.7.8.oX+XOXT 4 C j..XXX.Xj.u.C <.R.T.g.h.c.XXXXXXXXc.}.wXdXiX].s.u.u.y.S y t 6 W P 5 y C C C r , W ( :.+X+X+X:.:.OXOX+X+X+XOX+XoX) ",
") :.OXOXOX8.8.OXoXoX8.' 8.OX9.8.OXOXoX) R 4 y z.XXj.j.f.i.1.W.iXiX Xz.c.XXXXrXXXrX|.wXaX0Xg.f.j.}.k.s.F D O.k 6 y s.f.s.a.F r , L ( oX+X+X8.OXoX+X+XOX:.oXOXoXoX",
") :.8.OX8.OXOXOXoX+XoX7.OX+X+XOXoXOXOX) T 4 y f.j.h.h.s.i.i.{.hXlXgXrXz.c.c.rXwXpXpXpX0X].d.}.rXyXyX|.i.4.I.U.2.u.z.}.z.j.a.Z + 1 ( OX+X+XoXoXoX+XOXOX:.) +XoX) ",
") -.8.8.OX+X+X+X+X+X+X+X7.8.+XOXoX+X+X' R 4 r s.j.j.j.s.u.2.8XkXbXvXjX.Xh..XwXaXdXdX0Xk.a.g.tXxXbXcXuXd.T./.~.].h.XXz.z.j.s.A ; 5 ) 8.OX+X+XoX+X+XoX:.OXOX+X) ( ",
") ) -.-.8.OXOXOX+X+X+XOX8.8.+X+X+X+X+X8.R k H {.0XiX{.s.i F 8XkXNXBXnXuXwXwX9X X0X0X].i.g.7XxXNXNXbXjX*X^.Q.W.d.h.c.z.j.j.a.Z + 5 7.7.8.OX:.OX+X+XoX8.OX+X+X) ( ",
") ) ) ) 7.OX:.OX+X+XOX( 7.8.OX9.8.OXOX-.~ <.4./.iXsX0X6.i F |.kXBXAXVXnXlXhXiX{.k.g.f.k.8XxXNXZXZXmXhX<XQ.3.F u.a.f.j.j.s.1.r - I 7.8.8.7.7.8.OX+X+XoX+X+X+X) ( ",
":.-.) -.) ) :.OXoX+X-.} ~ 7.8. .} ) :.-.7.%.<.#.~.*X0XQ.5.y.l.cXBXDXSXVXmXzXhXiXk.i.x.uXxXBXSXDXZXmXjX9X3.A i C F 2.a.s.1.r : I / oX+X+XoXOX+X8.) :.+X+X+XOXoX) ",
"-.:.:.:.OX8.OX9.:.-.=.#.@...%.@.#.%.-.8.8.7. .U k 2.Q././.W.{.jXNXZXDXSXVXvXhXaXQ.].7XkXNXCXDXSXVXcXpX].D e e u A F u.F r , P &.8.OXOXOXOX+X+XOX) :.+XoX:.:.:.8.",
") -.OXOXOXOXOX:.&.| #.J.D.@.@.E./.@.*.:.8.8.7.R & o 3.<X2X/.0XfXvXNXZXCXMXuXqX*X^./.pXhXbXVXZXVXnXyX7XY.5.m e u A F A r , K ( OX+XOXOXOXoXoXOX+X:.:.OX:.) :.) ) ",
"^ -.+XOX9.OXoX:.$.O.V.-XL.V.!.1X4XR.@./ 7.9.OX8.R & O.!.1X1X,X1XfXzXbXvXyXz.S A Y./.,X1XfXvXbXcXtXd.6.Q.I.5.V V Z A r , P / 8.+X+XOX+X+XoX8.8.oXOXOXOXOXoX+X:.( ",
"( -.8.8.8.OX8.:.( X.#.L.Z.C.K.4X4XG.O.Q -.8.OXOX~ < B Y.Q.^./.'.<XwXuXqX[.1.i i D Y.Q.Q.<XfXfXqXl.Z B U.T.I.5.Z e e , 5 ! 7.OXOX8.7.8.8.7.oXOXOX+XOX8.:.:.+XoX:.",
":.:.-.:.oX8.) ) ) ) %.o.b.n.G.;X:XZ.{ Q ( 7.-.-.Q k M Z F 2.Q.<X^.].1.u.2.F A F 2.2.D 5.Q.<X^.3.e e r N U.~.T.D 0 + 5 ! ) 8.8.7.' ' ` ( 7.oX+X+X+XOX-.( -.:.:.:.",
") :.OX+XoXOX7.) 8.) &.%.] n G.-X-XC.O.! (  ...7./ 6 m u u Z 6.,X^.5.u p Z V 2.8XeXqXk.S 6.'.~.B q e y y D 6.U.4.B + 2 / 8.OX+XOXOX8.OXOXOXoXOXOXOXOXOX:.-.OX:.( ",
") 7.OXOXOX+XOXOXoX8.7.7.} O.A.`.`.N.O. .=.,.@.>.~ - - 0 e u 5.~.Q.6.V V S i.rXxXmXxXuXz.g.~.I.B q i u r w N 6.U.G @ 1 ! ( ` ( ` 7.OX+X+XOXOX7.OX:.8.+XOX:.oX:.:.",
") ) ) 7.OX+X+XoX@XOXoXOX .{ Z.)._.N.b { #.H.L.@.6 O o 8 q w Z 6.T.T.5.D p.rXxXBXAXZXNXuX9XY.J N i y r r q 8 B H G + & 2 K K 5 K / 9.+X+XOX8.7.8.) ) OX+X+X:.:.:.",
") ) ) 8.8.OXOX8.7.7.' '  .+.A.(.A.m.c v D.=X=XB.j O . o w N V V 6.T.U.6.[.jXNXZXDXAXBXcXqX2.y e V m e w q w m M j - $ $ * $ ; = W 8.OX+XOX7.) 7.( ) 8.+X+X:.( ^ ",
"( ( 7.8.8.) ) ) 7.` / | #.D.P.A.m.n.x x M.H.J.n a . . # M H J i A 6.I.T.^.fXvXBXCXVXnXuXl.1.q e N M h w 0 w m h h I Y I P 5 1 2 ! 8.OX+X+XOXOX9.8.7.OX+XOX:.( ^ ",
"( ) :.:.:.) ) ) ) )  .l D.-X-XZ.v.v.j < g b b < X X : h 4.I.U.D r V 5.~.'./.pXzXbXvXyXa.r u i N G n n m q w m m [ $.8.9.8.7./ / 7.OX+X+X+X+X+X+X+XOXOXOX:.&.( ( ",
"( ) :.:.8.-.-.) ( ) / } #.H._._.Z.N.b U ~  .| Q W R ~ %.<.<.H U.D N N 6.U.U.W.8XgXaX XG # 9 w v N.K.V.v g 9 9 # < P I W 7.8.oX+X+X+X+XOXOXOXOXOX8.( ~ } $.:.oX:.",
") ) :.oXOXOX-.-.) 8.7.-...#.H._.J.N.O. .-.:.-.-.7.7.OX' I , M U.H B e C Z Z V A Y./.!.m.x m a n J.-X=Xn.j : , > ; $ ; > Y / ' 8.OXOX+XOX8.8.OXOX)  .{ o.@.&.:.:.",
":.-.-.+X+X+X8.:.oX+X+X+X7.%.@.V.A.N.@.&.-.:.+X:.oXOXOX! % + M U.G m 8 8 e e 7 8 M m.)._.H.n s b.J.:X-XN.l P ! I 1 + + + ; 1 I I ! OX+XOX7.9.+XOX/ { V.G.D.] ~ -.",
"( -.:.OX+X+X+XOX-.7.OX+XoX) %.+.m.m.@.&.OX+X+XOXOX8.! 5 0 0 w M g , ; 0 q 0 q @ a c Z.-XP.M.d v.J.-X`.N.{ ~ 8.( I > > ; X $ > = Y 8.+X+XOXOX+XOX| o.G.`.P.B.] Q ",
"( ) :.:.+X+X+XOX-.-.8.+XoX) &.O.v.b.O.$.OX+XOXOX' ~ 4 0 0 : 0 # < 5 5 > @ 8 w m a h +.J.V.b s b.Z.`.J.N.{ ( OX8.( W L 3 = + 8 . P 7.OX+X+X+X+X9.{ b.C.)._.).M.f ",
") :.oX+X+X+XOXOX+XOX:.OXOX-. .o.v.m.b Q -.8.9.( I = 0 0 0 : X ; I / ! 5 X X < m < < g x s O # x C.(.A.m.{ ( 9.+XOX7.) ^ L > + . 2 / 7.8.-.9.OX7.X.b v.C.P.;XF.z ",
") :.+XoXOX+XOXOX+X+XOXOXOX8.$.+.m.b.v 6 K P P 5 = o + @ ; 3 I W ` 7.7./ Y W  . .Q U 6 < # . . # c C.C.v.X.&.@X+X+XOX) ) / P = X ; 4 3 P P W ( 9.X.o.C.)._.K.#.] ",
") 8.OX7.8.+XOXOXOX+XoX8.OX8.$.+.m.v.x # X o X $ * ; ; , 5 / 8.9.OXOX+X8.8.8.8.8.8.) ! > + . o . g b.m.b.{ &.OX+XOX8.:.-.:.^ I > ; ; X X X $ P 7.[ o.J._.J.#.X.! ",
"7.8.7.' 7.8.8.9.OX7.) ) ) ( &.+.n.v m @ X o + P W E W W ( 8.+XOX+X+X+X8.7.OX+X+X+XOX( L & . o X a c v.z { / 9.+X+XOXOX:.8.OX7.! Y I = + 8 . * 1 - g N.Z.B.X.( -.",
"-.8.8.7.7.7.7.8.-./ / 8.) / Q o.v m 0 0 * = 5 / 7.7.-.-.' 8.OX+X8.8.oX7.7.7.OX+XoXoX8./ I = o o a c m.N.@...-.OX+X+XOXoX8.8.OX7.7.7.I 4 ; * * * * < j v { $.) :.",
") 8.+XOX8.7.:.-.&.} ..;.( W 6 h m 0 > 5 L I ^ 8.+X+X+XOX8.8.OXOX8.7.8.oX8.' 8.OXOXoX+XOX-.T % X a c Z.P.S.O.$.8.+XOXOX+X8.7.OX+X+XOX' W L L P K K 2 < < 6 ( -.:.",
":.8.OXOX+XOXOX;...M.#. .L = ; 0 0 ; P ` 7.OXOX8.OXOX+X+X+X+X+X+X+X+X+X+XOXOXOXOX+XOXOX+X+X7.T - g b.J.;XP.B...&.OXOXOX+X+X+X+XOXOXOX8.8.OXoX9.8.:.-.Y 3 L -.:.-.",
"-.8.OX+X+X+X&.=.#.G.G.@.k O o . $ 5 ! 8.OXOX9.OXOXOX8.9.OXOXOX+X+X+XOX+X+XOXOX+XOXOXOXOX+XOXI - a b.C.K.D.,.*.8.OX7.OXOXOXOX8.OXOXOXOXOXOXOX+XOX+X:.^ E / :.8.:.",
") OX+XOXOX:. .O.C._.P.N.j @ $ $ 5 ! 7.oX8.' 7.+X+X8.8.8.7.7.8.8.:.-.7.OX+X8.+X+XOXOXOXOXOX8.T 1 g c m.n.O.&.OX+XOX) 7.OX8.-.-.+X+X8.8.7.' 7.8.8.7.-.-.8.OXoX:.:.",
":.:.:.OX+X+X! k H Z.Z.n h 5 ! ! ! ' 7.7.7.7.OX+XOX7.7.8.8.7.7.7.( 7.8.8.OXOXOXOX+XOX8.OX+X+X-.E 1 g c b.l U / ' 8.7.7.7.7.7.OX+XOX7.7.8.8.7.7.7.' 7.8.OXoXoX:.) ",
"-.9.0.q./ ^ L 5 l o.o.k U ! 7.7.7.8.8.7.8.OXOX+XOX' ' 7.7.7.' ' ) ' OX8.8.OXOXOXOXOX8.OXoXoXoX) R 6 g x j < I / 8.OX8.7.8.OX+X+X9.7.) 7.8.7.' ' ) ) OXoXoXoX:.) ",
") 0.$X_ 4 % % K Y Q U P / 7.OXOXOX+XOXOX+X+XOX+XOX7.' ' ' ' ' 7.) -.OXOX8.OXOXOX8.OX+X+XoX) ' oX:.R 6 g < < 5 / OX+XOXOXOX+XOX+XOX7.7.' ` ) ) ' ) :.oXOXoXoX:.:.",
") @X$X_ $   % ! 8.9.8.7.8.OX8.OX+X+X+X+X+X+XOX+X+XOX7.' ( ) 7.8.:.8.8.OXOXOX+XOXOXOXOXOX) ) ) ) +X8./ 4 + ; K ( #X:.8.+X+X+XOX+X+XOX7.' ( ) 7.8.:.:.oXoXOXOXoX:.",
"' +X$X/ P 2 R ' +X+X+X+X+XOX8.OX+X+X+X+X+XoX8.oX+X+XoX7.7.OXoXoXOXOXOX8.OXOX+X+X+XOXOX8.oX8.) oX+X+X7.R & & K / 9.X.%.8.OXOX8.OX+X+X8.7.7.8.OXOXOXOXoXoXoX+X:.:.",
"-.8.+X+XOXOXOXOXOXOX7.7.OX+X+X+X+XOXOXOXOX7.' OX+X+XOX+X+X+X+X+X+X+X+XOX7.OXOXOXoXOXOX+X+X+X+XOX+XOX8.( P & 5 / =.M.#.*.8.7.) OXOX+X+X+X+X+X+X+X+X+X+XOXoXOX:.) ",
") ) oX+XOX8.OX+XOXOX8.7.OX+X+XoXOX8.7.8.+X+X+X7.8.+X+X+X+X+X+X+X+XOX8.OXOX:.-.:.8.OXOX+XoX8.OXOXOXOX8.-.P = < O.D.J.Z.#.%.:.OX8.8.+X+X+X+X+X+X+X+XOXoXoXoX:.( ( ",
") -.oX+XOX:.OXOXoXOX8.-.8.oX+XOX8.8.8.oX+X+XOX8.OXoX+X+X+XOXOXoX+XOXOXOX+X8.:.OXOXOXOX+XoX) oX+XOX8.8.) K * # v V.P.A.#...-.OX7.OXOX+X+X+XOXOXOX+XOX:.+XOXoX) ( ",
"-.oX+X+XOX:.:.oX+XOX) :.8.7.:.:.8.OX+X+XoX' ) OX+XoX+X+X+X8.:.+XOXOX+X+X+XOX+X+XOX+XOX+XOXoX8.oX+X8.7.( K * O g n N.#...*.-.&.+XOXOX+X+X+X8.8.oXOXOX+X+X+XOXoX:.",
") :.OX+X8.8.OXOX8.OX:.) 8.OX8.:.OXOXOX:.OXoXoXoXOX' OX+X+XoXOXoX+XOXOX:.oXOX+X+XOXOXOXOXOX8.8.OXOXOX7.) ! 5 + g b B.#.| 7.9.OXOXOX8.oX+X+XOX8.+X+X+X+X:.oX+XoX:.",
") -.:.oXOXOXOXOX8.+XOX7.OX+X+XOXOX+X8.-.oX+X+XOX7.8.oX+X+XoXOX+X+XOXOX) :.+X+X+XOX8.8.OX8.OXOXOX8.+XOX7.( E 1 j M.K.B.X.$.8.+X8.) 8.oX+X+XOXOXoX+XoXOX) ) +XoX) ",
") -.:.oXOX+X+X+X+X+X+X+X:.8.+XOXOXOXOXOXOX8.8.' 8.oXOXoX+XoXoX+XOXoXoXoXOX+XoXoX8.OX8.8.OX+X+X+X+X+X+X+X8.(  .+.F.=XP.M.| ( 8.7.7.OXOXoX+XoXOX+XoXoX:.oX+X+X) ) ",
"( -.:.-.8.OXOX+X+X+X+XoX8.:.+X+X+X+XOXOX+XOX8.7.8.oX:.8.OX8.oX+X+X+XoXoX+X+X:.) 8.8.-.7.8.OXOXOX+X+XOXOX8.7.9.=.#.F.B.@.*.7.8.7.8.oX8.8.OX7.OX+X+X+XoXoX+X+X) ^ ",
"-.) ) ) :.oX:.oX+X+XOX:.:.OXOX+XOXOXOXOX+X+XoX8.OXOXOX7.:.7.oXoX+X+XoXoX+X+X8.7.OX8.) ) 7.8.8.OX+X+XOX:.8.OX+X7.| +.{ ( OX+XoX8.OXOXOX7.:.7.8.oX+X+XoX+X+X+X) ( ",
"-.:.) ) :.) :.OXoX+XOXoX:.oXOXOX7.7.:.:.+X+X+XoXOX+X+X+XOXoXoXOX) :.+X+X+XoX+X+X+X8.) -.7.' 8.OXOXOXOXoX8.8.+X8.0.e.t.8.+X+X+XoXOX+X+XOXOX+XOXOX:.:.+X+X+XoX:.) ",
"( ( ) ) ) ) :.:.:.) ) :.:.:.:.:.-.-.-.7.7.8.8.8.7.8.OX8.7.OXOX7.( ( 8.:.) ) :.OX8.-.) -.7.-.:.-.:.-.-.:.7.7.8.7.8.0.$X8.8.8.8.oX8.OX8.OX7.8.8.8.( ( :.:.) ) ) ) ",
"^ / ) ) :.:.) ) ) ( ) ) ) ) ) ) 8.-.8.:.( ) ) 8.7.) ) ' ) ) ) :.( ( ) ( ^ ( ( -.) ) ) ) -.-.-.( ( ( ( ) -.' ' 7.7.7.7.8.' ( ' 7.) ) ) ) ) ) 7.7.( ( ) ( ^ ( ^ ^ "
};
