/* XPM */
static char *__resized[] = {
/* columns rows colors chars-per-pixel */
"80 80 255 2 ",
"   c #120F17",
".  c #131517",
"X  c #1A1516",
"o  c #1D1B16",
"O  c #1C1719",
"+  c #1C1A1A",
"@  c #231B1B",
"#  c #271A18",
"$  c #361C17",
"%  c #1D2415",
"&  c #1C2718",
"*  c #1F3217",
"=  c #222516",
"-  c #222C16",
";  c #2B2816",
":  c #24231B",
">  c #29241E",
",  c #252C19",
"<  c #2A2B1C",
"1  c #372619",
"2  c #233216",
"3  c #293D17",
"4  c #253319",
"5  c #283619",
"6  c #2A3C1A",
"7  c #373618",
"8  c #1C1922",
"9  c #261E22",
"0  c #331E26",
"q  c #2C2222",
"w  c #282425",
"e  c #332424",
"r  c #372928",
"t  c #373526",
"y  c #362F32",
"u  c #352B36",
"i  c #481B14",
"p  c #541A15",
"a  c #671C11",
"s  c #4B380A",
"d  c #472717",
"f  c #582817",
"g  c #463A16",
"h  c #573715",
"j  c #6C2C0F",
"k  c #672C16",
"l  c #742D15",
"z  c #7A2F14",
"x  c #683616",
"c  c #743413",
"v  c #7A3213",
"b  c #753A16",
"n  c #7D3C15",
"m  c #431E23",
"M  c #472925",
"N  c #562C24",
"B  c #49342A",
"V  c #58362A",
"C  c #412B34",
"Z  c #473836",
"A  c #573C35",
"S  c #673627",
"D  c #763B26",
"F  c #663D32",
"G  c #2B4417",
"H  c #2A4917",
"J  c #2D4419",
"K  c #2D4C19",
"L  c #3A4617",
"P  c #314C1A",
"I  c #2E5219",
"U  c #32531A",
"Y  c #3A5519",
"T  c #355B1B",
"R  c #3A5D1C",
"E  c #37621B",
"W  c #3A641C",
"Q  c #3D6C1D",
"!  c #3F711E",
"~  c #384C25",
"^  c #3F7220",
"/  c #49400D",
"(  c #4B4415",
")  c #454B16",
"_  c #484918",
"`  c #584816",
"'  c #475318",
"]  c #435B1A",
"[  c #4C5C19",
"{  c #545318",
"}  c #5A5419",
"|  c #535C1A",
" . c #5C5919",
".. c #674816",
"X. c #764517",
"o. c #7B4416",
"O. c #685718",
"+. c #765718",
"@. c #43641B",
"#. c #4B631B",
"$. c #436C1D",
"%. c #4B6B1D",
"&. c #58651C",
"*. c #41741F",
"=. c #4B731F",
"-. c #43781F",
";. c #51761F",
":. c #6D621A",
">. c #50472E",
",. c #58453A",
"<. c #6B4329",
"1. c #73442C",
"2. c #674838",
"3. c #774A33",
"4. c #6E5533",
"5. c #795538",
"6. c #417620",
"7. c #497121",
"8. c #457C21",
"9. c #4A7B21",
"0. c #4D3B4D",
"q. c #5B4845",
"w. c #564A52",
"e. c #624E49",
"r. c #68554A",
"t. c #745C49",
"y. c #645354",
"u. c #735E53",
"i. c #7A6A50",
"p. c #7A6758",
"a. c #7C6B62",
"s. c #842F0D",
"d. c #833414",
"f. c #8B3615",
"g. c #833C15",
"h. c #8C3B15",
"j. c #963915",
"k. c #943C15",
"l. c #983C1A",
"z. c #904808",
"x. c #8C4215",
"c. c #874918",
"v. c #934316",
"b. c #9B4316",
"n. c #9C4B16",
"m. c #954919",
"M. c #885719",
"N. c #995418",
"B. c #A64918",
"V. c #AE5111",
"C. c #A85818",
"Z. c #B35619",
"A. c #B45B1A",
"S. c #BA5B1B",
"D. c #996618",
"F. c #906818",
"G. c #A86718",
"H. c #B5631A",
"J. c #B56719",
"K. c #BB6B1A",
"L. c #B07216",
"P. c #BD731A",
"I. c #BA7619",
"U. c #90532D",
"Y. c #884B33",
"T. c #885633",
"R. c #975A34",
"E. c #AB5D24",
"W. c #A65838",
"Q. c #8B6726",
"!. c #88643A",
"~. c #966837",
"^. c #9A733A",
"/. c #B06F2F",
"(. c #BC7929",
"). c #A66833",
"_. c #A87539",
"`. c #C45D1D",
"'. c #C3631D",
"]. c #C86B1D",
"[. c #C2731B",
"{. c #C6781B",
"}. c #CB7D1B",
"|. c #D2791E",
" X c #C57C28",
".X c #D27524",
"XX c #9B7849",
"oX c #8A7351",
"OX c #A27C43",
"+X c #846F60",
"@X c #897564",
"#X c #AC7D7A",
"$X c #478022",
"%X c #498423",
"&X c #4C8A24",
"*X c #B6863A",
"=X c #CB841A",
"-X c #D3841D",
";X c #D7881D",
":X c #DA8B1D",
">X c #DC961D",
",X c #E18F1D",
"<X c #E3991D",
"1X c #E9A41E",
"2X c #ECAC1D",
"3X c #F0AE1F",
"4X c #F4B61E",
"5X c #DA8722",
"6X c #D39129",
"7X c #C68734",
"8X c #CA9337",
"9X c #D59837",
"0X c #E28F20",
"qX c #E79720",
"wX c #DCA230",
"eX c #EBA723",
"rX c #EDB526",
"tX c #F4B824",
"yX c #EBAF32",
"uX c #F9C01F",
"iX c #F7C636",
"pX c #F9CB30",
"aX c #968E5A",
"sX c #B68844",
"dX c #B08E4F",
"fX c #978C69",
"gX c #AE9368",
"hX c #B7AA6D",
"jX c #C99A45",
"kX c #C49F58",
"lX c #D8B257",
"zX c #E7B444",
"xX c #E5BD54",
"cX c #CA9B7C",
"vX c #D1B668",
"bX c #C4BC79",
"nX c #EEC143",
"mX c #F7CB49",
"MX c #F3CC53",
"NX c #D3C876",
"BX c #E7D370",
"VX c #FAE761",
"CX c #BE988B",
"ZX c #C8A3A0",
"AX c #D4D08E",
"SX c #F0EC93",
"DX c #DAC9A6",
"FX c #EEEAA9",
"GX c #F8F7B8",
"HX c #E2C9C3",
"JX c #FBFBC8",
"KX c #F0E9D1",
"LX c #FCFCD6",
"PX c #FAF8ED",
"IX c #FEFEF8",
/* pixels */
"I E *.Q ! ! ! ! -.Q ! ! -.-.-.! *.6.-.*.Q Q ! 8.8.! -.-.^ Q Q Q ! 6.6.! ! -.-.Q E Q ! E L s z.V.z./ I ! -.*.-.*.! -.*.*.Q Q ! 8.6.6.6.6.! Q Q ! ! ^ 6.! ! -.Q T ",
"W Q *.*.6.^ ! ! ! ! ! -.-.-.-.! ^ 6.*.! ! ! 6.6.! ! ! ! ^ 6.8.8.8.6.*.Q ! 8.$X8.-.*.! W ) x I.|.G.` L -.-.-.*.! ! -.! ! ! ! *.-.^ ^ 6.Q ! 6.8.6.8.6.^ ! ! 8.*.Q ",
"-.-.*.-.$X8.! ! ! ! $X$X8.8.8.! 6.6.^ Q ! 6.8.6.^ ^ ! ! 6.8.&X&X&X%X*.! ! 8.%X&X&X$X! Q ` z.6XtX5Xo./ -.$X-.-.*.! 6.! ! ! 6.8.6.6.^ Q ^ 6.%X&X&X&X$X-.! *.8.-.-.",
"*.-.%X&X%X$X6.*.-.-.! %X%X&X&X&X%X$X6.^ 8.%X&X%X$X$X$X%X%X$X%X%X%X%X%X*.-.$X%X$X$X%X-.Q O.N.wXmX9XM./ $.$X&X&X&X&X$X-.! 8.%X&X%X8.%X%X%X%X9.%X%X%X%X%X6.-.%X-.Q ",
"! -.$X%X%X&X%X$X$X8.8.%X&X&X&X%X%X&X$X$X&X&X&X&X&X&X&X&X%X8.8.$X8.8.%X%X8.$X$X%X$X-.%.O.F.(.yXmXyXL.+.{ =.%X&X%X%X%X%X$X&X&X&X&X&X&X&X&X%X8.8.%X8.8.%X%X8.8.8.*.",
"! *.*.*.$X&X&X&X%X%X$X%X&X&X8.8.$X&X&X&X&X&X&X&X&X&X&X&X%X8.6.8.Q 6.%X&X%X8.$X&X%XQ ( c.P.rXiXmXiX>XG.b #.-.$X-.%X&X&X&X&X&X&X&X&X&X&X%X%X8.8.6.! ! %X&X%X8.6.6.",
"Q Q *.-.-.9.$X8.8.6.6.6.6.8.%X%X%X%X$X6.6.8.9.%X%X&X&X%X%X6.6.6.^ Q 8.&X&X8.6.6.-.@.) m.}.3XpXpXiXqXH.b { ! $X%X%X%X$X6.8.8.%X%X%X&X&X&X%X8.6.6.! ! %X&X&X8.! W ",
"Q ! *.$X-.-.*.*.^ ^ ! ^ ^ ^ 8.%X%X%X8.8.6.8.-.-.8.&X&X&X&X$X$X%X8.8.%X&X&X6.^ 6.-.W ( m.}.2X4XtXeX:XC.b ) Q -.%X%X%X8.8.6.6.8.^ 8.&X%X&X&X8.%X%X6.6.%X&X%X6.Q E ",
"Q ! -.8.8.! ! ! ^ ! ! ^ ! ^ ! 6.%X$X%X&X&X$X-.*.-.%X&X&X&X&X&X&X%X%X%X&X%X^ ^ 8.8.W ( c.].<X2X3X<X.XB.c ' Q Q 6.$X$X%X&X&X$X^ ^ 8.%X&X&X&X&X&X&X&X%X&X&X%X! Q Q ",
"Q ! *.8.8.6.! ! ! ^ 6.! 6.6.^ %X%X$X%X&X&X%X-.&X&X&X&X&X&X%X%X%X8.6.6.%X&X8.%X&X8.W ) m.K.>X1X1X0X].n.c ( W 6.%X%X$X&X&X&X&X8.%X&X&X&X&X%X%X%X%X8.^ 6.%X&X%X6.*.",
"! ! -.$X%X$X6.*.6.8.8.6.8.8.%X&X&X$X&X&X&X%X%X&X&X&X&X&X-.9.%X%X^ Q Q 8.&X%X%X&X%XW _ x.'.:X<XqX5X'.B.c x { $.%X&X%X%X&X%X%X%X&X&X&X&X%X8.8.%X%X^ Q Q 8.&X$X8.-.",
"-.*.6.&X&X&X8.6.$X%X&X&X%X$X%X%X$X$X&X&X-.$X&X-.$X&X&X9.*.%X&X&X6.Q ^ %X&X6.8.&X&X@.( x.K.5X>XqX|.'.B.f.x.o.| 9.&X$X%X&X8.%X%X$X%X&X&X%X6.9.&X&X^ Q ! %X&X6.*.*.",
"! ! ! $X&X&X&X$X*.8.%X&X%X6.#.' ] %X&X&X%X&X&X%X%X&X&X&X%X&X&X&X%X8.%X&X&X8.%X9.@.( k h.H.5XqXqX5X`.l.l.H.I.F.O.@.%X&X%X%X&X&X%X%X&X&X%X%X%X&X&X%X%X%X&X&X8.*.! ",
"Q ! -.-.%X&X&X%X*.*.8.&X6.$. ...O.;.-.-.%X&X&X%X%X&X&X&X&X&X&X&X%X&X&X&X%X8.6.7. .X.h.h.B.].<XeX;XB.h.v.=X;XG.O.Y %X%X8.&X&X&X%X%X&X&X&X&X&X&X%X%X&X&X%X%X$X6.*.",
"*.-.%X&X&X&X%X%X&X8.8.%XQ { Q.(._. .Y W 8.&X&X6.6.8.$X%X%X&X&X8.8.8.8.%X8.8.] ..G.I.K.k.j.C.5X>X{.c.h } F.J.M. .*.9.^ ^ 8.&X&X6.6.8.%X%X&X&X&X%X8.6.%X8.$X%X$X6.",
"! -.&X%X&X&X%X%X&X%X9.$.{ Q.9XzX9Xo.( W ^ 8.8.6.6.6.$X8.8.8.%X%X%X%X%X%X%X9.[ O.I.=XL.X.l k.K.|.K.X.) $.O.+.&.;.%X6.^ ^ ^ 8.8.^ ^ 8.8.8.8.8.%X%X%X%X%X%X%X&X$X6.",
"*.-.%X8.8.&X%X%X%X%X%.{ M.*XmXVXwXz.` W ! *.-.*.6.6.8.6.6.8.%X&X&X%X&X%X%X%X%.O.D.G.:.( h d.S..XS...' *.] Y *.%X&X8.6.6.6.6.6.6.8.8.8.8.8.8.%X&X&X&X&X%X&X&X8.-.",
"-.-.6.! *.8.8.$X%X$.' n (.mXVXMX7Xc.` Q -.%X$X*.! ^ ! 6.%X&X&X&X&X&X&X8.^ %X%X7.` h ( Y ( z Z.].S.X.) $.Q *.9.&X&X%X%X8.8.%X&X%X&X%X%X&X&X&X&X&X&X&X&X8.6.%X$X-.",
"*.8.$X6.6.6.8.8.6.W _ g.7XmXVXiXI.g.{ $.8.6.Q K G 3 3 K E 8.&X&X$X^ %X$X6.6.E P 1 ; ; * : d N.].`.o.) -.^ ^ $X&X&X&X%X%X8.8.%X&X&X&X&X%X8.%X%X%X8.8.%X6.*.6.-.-.",
"! -.&X$X8.8.8.6.6.Q ' n (.nXpXuX{.o.} *.*.E K : @ : w w J E 8.%X$X! ^ ^ W T 3 - # # + + : d c.H.Z.x ) 9.6.^ $X%X%X*.*.6.8.8.%X%X&X&X&X%X8.8.%X%X8.6.8.$X8.! *.-.",
"6.8.%X%X&X&X%X%X8.^ ' k H.rXpX3XI.g.} -.Q P w y ,.q.e.>.t J W %X&X$XE G * 2 7 Z y u u >.4.^.M.x d 1 P Q Q 6.&X8.E 2 * G 6.&X%X%X8.%X%X%X&X&X&X&X&X&X&X&X%X9.-.-.",
"-.8.%X&X&X%X%X%X8.$.} c.(.2XuX1XP.n  .*.U 7 >.oX+Xp.p.e.Z 5 G E ! Q Y L t r Z q.t.t.t.oXsX*X:.1 X o 6 E 6.%X%XW J < q 4 P Q 8.%X%X%X%X%X%X%X%X%X&X%X%X%X&X%X8.-.",
"! -.&X%X%X$X%X8.%. .+.*XwX2X3X<XK.g.} Q G V ~.dXgX+Xa.u.q.r , G H Y ..Q.!.q.w.+XaXjXjXjXjXdX4.y e w J U 6.9.$.~ t Z ,.Z 7 G W %X&X8.8.6.^ 6.8.8.8.*.6.%X&X$X8.-.",
"-.-.8.%X%X&X$X$.' +.7XiXiXtX1X;XJ.n { W G ` ).jXsXoXu.e.q.,.>.] >.| ^.dXkXfX#XgXkXzXzXjXXXu.u.i.@Xi.,.5 U W J t ,.p.p.r.Z t J 6.%X^ 6.8.8.8.6.6.! 6.8.%X%X%X6.! ",
"*.-.$X%X%X$X$XQ ) c. XiXpXtX1X;XH.n { W H t 4.OXsXsXoX,.Z q.i.aXaXaXdXhXvXvXNXvXkXkXdXXXt.r.@XhXAXhXoXr t g t ,.u.@X@X+Xy.Z 7 U Q Q ! 6.8.6.! ^ Q ! $X%X$X$X-.! ",
"! 8.&X&X$X! 6.Q ' c.K.1X3XtX3X:XH.g. .^ K 4 r 2.OX9X*X4.C q.gXSXSXSXbXgXgXBXVXBXvX@Xy.r.r.+XAXSXSXNXaXA V S 2.u.a.@X@X+X+Xe.y , H ! ! ! ! ! ! ! ! *.%X%X$X$X-.*.",
"*.8.%X$X-.Q Q W ' c.'.<X3X4X3X0XH.o. .6.H , r ,.t.^._.).<.r.gXSXJXJXFXbXgXkXxXxXdXp.0.q.oXhXGXLXDXXX2.,.R.).~.p.a.@Xa.p.p.e.Z - I $X6.! Q ^ 6.8.8.8.-.%X%X%X$X-.",
"*.8.%X$X8.-.-.$.#.+.C.}.<X3XeX5XS.n  .6.I 6 r Z A 2.^._.F.i.hXSXLXPXLXFXbXhXlXzXsXr.w.i.NXFXKXHXcXU.x <.~._.!.p.u.@Xa.p.p.e.B = K %X$X-.6.$X%X%X%X%X%X$X%X%X-.-.",
"! 8.&X&X&X&X%X%X8.[ O.N.{.,XqX|.Z.n } 6.^ U 4 r y Z 2.T.).*XvXSXLXIXIXLXFXAXMXyX~.t.@XAXGXPXDXCXsX/.m.S Y.!.2.w.y.p.u.r.r.,.t : H %X&X%X&X&X&X&X&X&X&X%X8.$X-.! ",
"! *.$X&X%X-.%X&X$XW ( c A.;XqX|.A.n ` Q %X^ P < r Z 0.2.T.*XzXSXJXPXIXLXGXBXMXjX_.OXhXSXJXKX#XR.[.9X6Xc.D 2.2.4.r.e.e.e.q.Z e 2 T &X&X&X&X&X&X&X&X%X8.%X%X-.! Q ",
"! -.%X&X%X-.$X%X=.| x c C.-XqX0XJ.g.` Q %X^ I : e Z u Z 2.~.jXMXSXGXLXJXDXhXaXXXOXjXxXBXGXFXoXk.L.rXrXP.c.S U.~.5.q.q.,.Z e 5 U *.%X&X&X&X8.%X%X%X%X8.%X&X-.! Q ",
"*.-.&X&X%X-.-.$. .c.v.h.C.-X3X1XP.g.{ 8.%XQ H , q r Z Z ,.5.).9XMXBXSXBXgXr.0.r.OXjXyXlXxXBXsXC.P.2XuX>XC.m.E._.^.2.,.Z r - G -.%X%X&X&X&X8.-.%X&X&X&X&X&X%X$X-.",
"! 8.%X%X$X8.] O.D.{.J.v.S.|.qX5XH.n ` $.8.8.! U 5 q w B 3.OX5X9XsXaXaXfXoXy.q.q.4.5.~.^.^.*X7X9XwX2X2X>XA.h.Y.~._.~.5.A r w I ! %X8.%X&X&X8.8.%X&X&X%X-.-.&X$X-.",
"! *.$X$X$X9.] O.L.-XI.c.N.{.0X|.Z.n ` Q 8.&X&XQ J + e A ~. X9X7X~.5.r.q.e.e.r.i.i.4.,.,.S x.8XnXpXtX<X:XZ.z N 2._.7X~.Z w 6 T ! 6.8.$X&X&X%X$X%X&X&X$X*.-.%X$X*.",
"Q *.8.8.%X%X6.&.M.G.F.| ..M.{..XS.n { $.$X%X-.Q G o V U.OXR.R.!.)._.5.Z u ,.oXhXNXhXp.Z p d.8XmXpXtX1X:XS.d.m F ~. XT.t 6 I ! ! -.%X$X%X&X%X%X&X%X$X$X$X%X&X-.Q ",
"! *.6.6.8.%X8.=.&.O. .$.' X.[.;X[.o.} -.*.*.Q ! P ; F R.T.A Z e.~./.~.3.q.+XhXSXJXDXfXC p d.7XiXpX4X:X[.N.k m V Y.~.<.6 E ! -.! 8.%X-.-.$X8.$X&X&X&X8.$X&X&X-.E ",
"! ! ! ! 8.8.8.8.$.@.@.*.L x {.,X=Xx.{ $.7.#.#.$.Y M 1.3.F u u Z 4.Q.)._.dXhXFXLXPXHXCXD a h.*XrXpX2X{.N.b N N S D <._ U 8.&X%X6.$X%X$X-.-.-.-.&X&X%X$X%X%X%X*.W ",
"-.*.! *.^ ! 8.$X$X-.%X-._ X.{.>X=Xg.( ] O.+.+.[ _ M V V A A Z Z C Z T.8XMXFXLXIXPXHXgXb.s.s.P.1XuX1XH.z f V o.m.h.B _ ^ &X&X%X%X$X&X&X&X8.&X&X-.-.-.%X%X-.*.*.-.",
"-.*.-.-.$X8.8.$X$X$X$X8.' X.{.:X{.g.k ..F.L.G...d $ N 3.R.R.3.C u u V ^.NXGXLXPXZXCXK.P.z.z.H.>X4X1XG.l a D L.P.C.x ' $X%X%X%X&X%X%X&X%X%X%X&X$X*.*.&X=.' ` @.*.",
"! -.$X%X%X&X$X$X8.8.6.%.( X.K.|.K.f.j b L.=X=XX.d ; V Y./.).T.A V Z M 2.aXAXLXKXCX_.L.=XH.f.C.:XtX>XH.v a g. X-XL.x ) ^ Q Q 8.&X&X%X$X%X%X%X%X&X-.-.-.| ..o.} W ",
"E *.%X%X%X%X%X%X&X-.@.` k n S.].H.g.` &.+.M.F.&.*.W L B <.Y.R.).).R.F u q.aXAXGXFXxX*XG.s.s.C.;XeX:XH.v f f N.C.o.1 , 3 2 J Q &X&X%X&X&X$X-.$X%X%X-.Y O.G.I.M.g ",
"Q *.8.8.8.$X8.6.-.%.O.M.x.h.B.'.S.d.( Y ( h ` @.! T 5 : e B 3.)./.).Y.V r ,.aXbXAXNX*Xs.s.n.[.<XeX5XC.z M M S k d # + o @ - 6 T W T W R T T Y E $.%.:.*X>X>XG.c ",
"*.*.*.*.8.^ ! W @.} N.=XH.v.B.S.S.d.g 2 ; # ; 3 H 3 % . + r A 5.5.T.R.Y.V r >.aXaXaX4.z b.[.>X1X<X.XB.z d 0 $ # # o o @ : @ = - 2 2 - - 2 2 2 3 / O./.wXpX1XH.s.",
"! *.*.W E T T I 7 X.G.:XJ.n.V.`.S.v d # . . O # : = X X + q r C r B Y.~.T.V M r y r S v.S.}.1XeX|.S.j.z N e 8 . % - 2 - 2 2 - = = & = = % & % ; f c.7XyXiX>XC.s.",
"Q Q W G 4 4 3 2 : f c.G.N.v.Z.H.A.d.i @ .   X o @ O o @ @ @ 9 9 9 u V 5.R.T.A 0   0 F W.S.H.;X:X].b.s.z f r 8 & 4 T W T W T T U P U P P P H G L x h.E.7X>X5XN.z ",
"*.Q K , % @ = o % = 7 x x b m.A.Z.h.a $ o % & - = = , = o + @ 0 e 9 w V Y./.Y.M u A W.W.U.g.E.K.K.n.f.z N e 9 & K 6.%X8.8.9.%X%X%X&X&X%X-.*.! Q ..v h.C.K.].N.v ",
"Q Q E T U K K P K K U ' ] { ..N.Z.B.d.k 7 K W T T E Q R 3 @ X # 9 e w B 3.W.F C V Y./.W.Y.M l N.}.}.C.v i # w > 5 6 J 3 3 P W 9.&X&X&X&X&X-.*.@.` x.P.{.J.b.d.v ",
"Q Q ! *.! Q Q Q Q Q Q Q Q E ( v B.B.V.N.O.[ $.Q *.8.%XQ 6 = @ X @ 9 9 C 3.W.Y.V D Y.W.W.S N k h.P.}.G.v d = : w w + o O + < J T W *.%X&X&X%X-.$.` v.}.=XL.v.d.c ",
"Q Q -.-.-.*.! Q ! ! ! ! ! W L x j.j.'.=XG.O.Y W -.9.Q P , w @ X + O . 1 S W.W.Y.D F V F F Y.D d.z.V.n.c ( G & & @ @ X X @ q < - 2 H $.%X&X&X&X6...h.C.K.I.I.m.v ",
"Q Q -.-.-.*.W T E Q *.! -.$.) b j.B.].;XL.+.@.$X-.$.J < r e q @ O X   # S W.W.Y.V e @ e F Y.f.d.h.b.v.x [ W 3 = : - # # @ 9 : > > < K Q %X%X9.6.{ x j C.-X>XH.c ",
"! *.-.$X%X-.[ ) ' %.-.-.-.=.' X.l.B.A.G.+.&.*.-.$.J < q r r e 9 @ X   # M D D V e O   O 0 N j h.V.Z.n.b | $.L s 7 P g f 1 9 9 q q q < H W 8.9.8.@.7 f m.:X2XG.v ",
"-.*.*.&X%X=.+.c.X.;.%X&X&X*.' o.B.B.j.c / Q -.R 3 : q e e e e e > % % ; t d 7 = o O X     # i h.{.:XL.b ' [ +.O. .#.:.M.x $ 9 e e e > : 3 Q &X&X-.R s N.;X<XG.v ",
"! ! *.-.%.O.G.P.L.+.[ &X$X$.' o.l.l.l i - 4 J 2 > q 9 # 9 @ @ > 6 T W W W ] T K & o O X   X i h.=X,X[.v j +.L.L.F.:.*X8XN.S # O + 9 q 0 > P Q &X&X*.( N.-X;XC.c ",
"Q ! -.-.' x {.<X-Xc.( %X$X*.[ c.l.s.p $ X X O @ 9 q > , , < , 4 Y 6.&X%X$X8.%X6.P 2 o X O # i h.-X<XI.v j o.I.I.J.N.*XnX Xc.$ # & = > e 9 , K Q *.] h N.|.|.C.v ",
"! -.$X$X[ x [.,X-Xc.g ;.%X-.| n.Z.f.f # X O @ @ # q 5 U W E T T Q 8.8.%X9.%X&X%X-.U - @ 9 e f v.}.,XP.c ( { +.N.B.N.9XMX7Xo.g U T K < @ # @ % 3 3 7 f n.].|.V.d.",
"! *.=.%.+.N.P.|.K.z...#.W W { c.b.j d - & * - - , 5 U Q ! *.*.8.8.8.%X%X%X&X&X&X%X*.T 4 @ e m n H.].A.b [ =.&.O.c m.9XzX-XM.L W ! W J 4 4 : o : + : i n Z.`.k.k ",
"! ! #.` M.=XP.A.C.C.U.` ) J 7 V k d 6 J K U K I K U Q 6.6.8.%X&X&X&X&X%X&X&X&X%X%X%X6.K , q e f c.B.b.b #.8.8.' h n.6XeX X+.L $.8.8.E T I J 4 @ @ = 1 f h.k.j $ ",
"*.Q ] ..D.;XJ.n.B.`.S.v.f 1 w q w 4 U 6.6.8.%X%X$X$X%X&X&X&X&X&X&X&X&X8.6.%X&X&X%X8.6.W K - w q M l d.c ( E 6.@.O.G.:X>XJ.o.( $.%X%X%X9.%X*.U , - - 2 ; d f 1 . ",
"*.*.$.&.+.D.v.k.B.`.`.j.k 1 8 + * U ! %X8.%X%X&X&X&X&X&X$X%X%X&X8.8.9.8.6.6.%X&X%X%X8.^ W K * 8 0 N l c d 5 _ O.D.>X<X:XC.g.x } =.%X&X&X8.8.$.T P I T H ; $ # . ",
"! -.&X-.#...x c m.S.Z.f.f e w 4 U 8.&X&X8.8.%X%X&X&X&X%X6.8.%X&X8.6.8.$X8.^ 8.%X%X%X&X%X8.^ K - : e f k i $ p v.-X3X1X}.B.v.v.c.O.9.%X%X6.8.$X%X*.*.-.Q P , = = ",
"*.-.%X&X%X9.L d c j.B.f.k 1 4 I 6.8.%X&X&X&X&X$X%X%X%X%X&X&X&X&X&X&X&X&X&X8.%X&X&X%X%X&X&X%X^ T 4 > e M d p a v.}.qXqX'.v.n.L.=XD...%.$X&X&X&X&X&X&X&X%X! E T T ",
"-.-.-.Q W E 4 : d k z k d t T ^ %X8.%X%X%X%X8.%X%X%X$X%X9.%X%X%X%X%X%X&X&X%X%X&X%X%X%X%X&X&X%XQ 3 : e f c.m.j.B.A.|.5X{.b.n.K.}.G.` #.6.%X%X%X&X%X%X%X&X&X-.! ! ",
"Q $.Q G 2 * % o @ $ d d 7 U 8.&X%X6.6.8.8.6.6.&X&X8.-.8.6.6.6.8.8.6.6.%X&X$X%X&X%X%X%X%X%X$X%XQ G > d b L.=XH.v.h.C.=X=XC.n.n.D.+.] $.6.6.6.6.8.6.-.*.%X&X$X-.-.",
"I P 3 = = & & - < 4 , 4 R 6.&X$X8.8.6.6.6.6.%X&X%X*.*.8.8.8.6.6.6.6.8.$X$X%X$X%X&X%X8.%X%X&X%XQ I < i g.L.=XF.h x x.=X>XJ.h.x ..#.Q ^ 6.8.6.6.6.6.! 8.9.%X%X-.! ",
"2 = # o , G P U U I K I ^ %X%X8.8.$X8.^ $X$X%X&X%X^ ^ ^ 8.^ ^ ^ Q ^ %X$X8.$X$X$X%X%X$X%X%X%X8.^ Q P 7 f c.D.:.) g v.{.:XJ.o.g #.6.^ ^ 6.6.6.^ ^ ! ! $X$X$X$X-.! ",
"@ = = 2 K Q -.-.%X%X^ ^ $X%X%X$X%X&X&X%X&X%X&X&X&X^ ^ ^ ! ^ ! ^ ! *.%X%X$X$X%X%X$X%X%X&X$X! ^ $X$X! U , d h Y T { m.].|.S.+.] 9.%X6.^ ^ ^ ! ! 6.! -.%X%X$X$X-.! ",
"U T E E W ! ! -.&X&X&X&X%X%X$X%X&X&X&X&X&X&X%X&X&X%X^ ! ! ! 8.8.8.8.8.$X%X&X&X%X%X%X%X$X! ! ! 6.&X&X6.R 7 ; = ; f x.`.].Z.X.R 9.&X%X^ ! ! ! 6.8.-.-.$X$X%X&X-.-.",
"! -.$X-.-.-.-.-.&X&X%X%X%X&X$X&X&X&X&X&X&X$X$X%X&X&X$X8.6.8.$X%X%X%X%X$X$X%X&X&X&X%X%X$X8.8.! 8.&X&X%X6.3 o . # f f.Z.S.S.N.O.%.9.&X$X6.6.8.%X%X%X%X%X$X$X%X$X-.",
"! -.&X&X&X&X&X%X&X$X8.6.$X&X&X&X&X%X%X%X%X^ ^ %X%X&X&X&X&X&X&X&X&X&X&X%X8.$X%X%X%X%X%X&X&X&X&X%X%X%X6.Q 3 . . # f s.j.B.}.}.G.} @.%X&X&X&X&X&X&X&X&X&X$X$X$X-.! ",
"! ! $X&X%X8.%X&X%X%X8.6.$X&X&X&X%X$X$X^ &X&X%X^ $X&X&X&X&X&X&X&X&X%X$X$X%X6.-.-.8.$X$X&X%X8.%X&X%X%X8.W 3 O . 1 f s.f.b.}.}.D.` R %X&X&X&X&X&X&X&X%X$X$X%X-.! Q ",
"! ! %X&X$X*.$X%X%X$X6.-.$X%X%X$X8.8.8.8.%X&X%X$X$X%X&X&X&X$X$X&X&X$X8.%X&X8.-.$X%X%X$X&X%X6.$X%X%X8.*.Q 3 o 8 e f f.j.B.S.G.+.[ *.&X&X&X&X$X$X&X&X%X$X&X%X-.! Q ",
"! %X&X&X%X$X-.$X&X$X6.-.6.6.-.-.8.%X&X&X%X^ ^ %X%X%X&X&X&X8.-.%X%X&X&X&X&X%X&X&X%X&X&X&X%X8.6.%X&X8.*.Q K , : r k j.B.B.d.` R 9.%X9.&X&X&X8.-.%X%X%X&X&X&X%X$X! ",
"! -.&X%X$X8.$X%X$X$X8.*.$X%X8.-.$X%X$X8.8.$X%X&X$X8.%X&X&X$X8.%X&X&X%X-.-.&X&X&X%X%X%X%X%X8.$X$X%X$X8.Q ! T 4 1 f f.j.v.} #.8.%X%X8.%X&X&X8.8.%X&X&X&X6.$X%X%X$X",
"! -.-.$X$X$X%X%X8.%X%X6.$X&X&X%X%X&X8.*.$X&X&X$X8.^ $X&X&X%X$X&X&X%X$X! ! &X&X&X%X8.$X$X8.%X%X%X$X%X%X8.%X8.U 6 d z d.n [ 8.&X8.*.6.%X&X&X%X%X%X&X%X$X-.! &X$X! ",
"! *.-.$X%X&X&X&X&X&X&X&X8.8.&X%X%X&X&X%X$X$X8.^ 8.$X$X%X&X&X%X&X%X$X$X$X&X&X%X$X8.8.8.8.%X&X&X&X&X&X&X&X8.6.8.T 7 d l n | 6.8.6.6.8.8.%X&X&X%X&X%X8.8.$X&X&X! Q ",
"! ! *.-.8.&X%X%X&X&X&X%X6.8.&X&X&X%X%X%X%X%X8.^ 8.%X8.6.$X^ $X&X&X%X$X%X&X&X-.! %X8.6.*.8.%X%X%X&X&X&X$X8.8.&X6.R 7 d x #.6.8.6.8.%X8.8.$X8.8.&X&X&X$X$X&X&X! E ",
"! ! ! ! -.-.8.$X&X&X%X-.-.%X&X&X%X%X$X$X&X&X%X8.$X%X$X6.-.! $X%X&X&X%X%X&X&X$X6.%X8.! ! 6.8.8.%X&X&X$X-.8.$X%X&X6.P 1 7 Y *.8.6.%X%X$X8.6.8.$X%X&X&X%X%X&X&X! Q ",
"-.! ! ! -.-.8.%X&X%X$X$X-.$X%X8.6.8.-.8.&X&X%X%X%X&X&X&X$X&X%X$X! ! &X&X&X%X%X&X&X8.! *.^ 6.8.%X%X%X%X$X8.$X%X8.6.Q H 2 3 T 6.8.%X&X&X&X8.%X%X8.*.-.&X&X&X$X$X! ",
"! ! ! ! ! ! -.-.! ! -.-.-.-.-.-.*.*.*.8.6.8.8.8.8.8.%X$X8.$X$X6.Q ! $X-.! ! 6.%X$X*.Q *.6.*.*.*.-.! -.-.-.-.-.6.6.6.W K 3 J R 6.8.8.8.8.8.8.8.8.Q Q -.-.! ! ! ! ",
"E E ! ! -.-.! Q ! Q Q ! *.! ! ! 8.*.8.*.Q ! ! 8.6.! ! ! ! ! ! 6.! W ! Q E W Q *.! Q ! *.*.6.*.Q Q Q Q ! *.! Q ! 6.6.6.6.~ t ~ 6.-.*.! *.6.! 6.6.Q Q *.Q E W W E "
};
