/* XPM */
static char *__resized[] = {
/* columns rows colors chars-per-pixel */
"80 80 214 2 ",
"   c #263537",
".  c #2F5216",
"X  c #31551F",
"o  c #345C1C",
"O  c #37621C",
"+  c #39651D",
"@  c #3D6D1D",
"#  c #3F711E",
"$  c #2B432E",
"%  c #2F4E28",
"&  c #304D2C",
"*  c #335625",
"=  c #355D22",
"-  c #385E26",
";  c #33542B",
":  c #365B2B",
">  c #3A5D2C",
",  c #2D4532",
"<  c #2F4932",
"1  c #2E443B",
"2  c #324C33",
"3  c #32483B",
"4  c #334B3B",
"5  c #355434",
"6  c #375734",
"7  c #3A5B33",
"8  c #36523C",
"9  c #39563A",
"0  c #3A5B3A",
"q  c #376022",
"w  c #3A6523",
"e  c #3D6C22",
"r  c #3D642C",
"t  c #3F692A",
"y  c #3F7120",
"u  c #3E6232",
"i  c #41751F",
"p  c #43781F",
"a  c #406E26",
"s  c #40672E",
"d  c #416C2B",
"f  c #427521",
"g  c #457C21",
"h  c #437129",
"j  c #406434",
"k  c #180E43",
"l  c #1B1344",
"z  c #1E184A",
"x  c #221D4D",
"c  c #27244F",
"v  c #2A264C",
"b  c #262454",
"n  c #292753",
"m  c #2B2954",
"M  c #272759",
"N  c #2C2C5B",
"B  c #2C345B",
"V  c #303D53",
"C  c #313F5B",
"Z  c #2C2E60",
"A  c #2E3263",
"S  c #2F3568",
"D  c #303566",
"F  c #333D64",
"G  c #313769",
"H  c #333B6D",
"J  c #363E71",
"K  c #2F4343",
"L  c #324544",
"P  c #354B45",
"I  c #33454C",
"U  c #354B4C",
"Y  c #384C4A",
"T  c #385546",
"R  c #324253",
"E  c #364A53",
"W  c #34425D",
"Q  c #394F59",
"!  c #3B5358",
"~  c #344263",
"^  c #394C63",
"/  c #36436B",
"(  c #384669",
")  c #3B4E6A",
"_  c #3C5264",
"`  c #3D536B",
"'  c #364173",
"]  c #394375",
"[  c #3C4C73",
"{  c #394579",
"}  c #3C4A7D",
"|  c #3E5274",
" . c #3F517A",
".. c #415C6B",
"X. c #404D7B",
"o. c #405674",
"O. c #425B73",
"+. c #41557B",
"@. c #435A7B",
"#. c #476573",
"$. c #478022",
"%. c #498423",
"&. c #4C8A24",
"*. c #3E4D82",
"=. c #3F5182",
"-. c #404F83",
";. c #425385",
":. c #43558A",
">. c #475D88",
",. c #465A8C",
"<. c #475B91",
"1. c #485B96",
"2. c #495E94",
"3. c #496388",
"4. c #4B6394",
"5. c #4E6897",
"6. c #4D659B",
"7. c #4F699E",
"8. c #506B9D",
"9. c #53729D",
"0. c #4F69A0",
"q. c #516CA3",
"w. c #546DAA",
"e. c #5472A3",
"r. c #5879A6",
"t. c #5673AB",
"y. c #5979AD",
"u. c #5873B5",
"i. c #5976B4",
"p. c #5B7BB4",
"a. c #5D7DBA",
"s. c #5D84A8",
"d. c #5E81B6",
"f. c #5F81BC",
"g. c #638DAF",
"h. c #628AB2",
"j. c #6184BD",
"k. c #648ABE",
"l. c #6996B8",
"z. c #6285C3",
"x. c #658BC5",
"c. c #6587C8",
"v. c #668CC9",
"b. c #688ECD",
"n. c #6995C5",
"m. c #6993CC",
"M. c #6C99CE",
"N. c #698ED0",
"B. c #6C95D2",
"V. c #6E9AD5",
"C. c #6E97D9",
"Z. c #6F9AD8",
"A. c #709ED6",
"S. c #719EDB",
"D. c #74A8C8",
"F. c #7BB2CF",
"G. c #74A6D6",
"H. c #73A2DD",
"J. c #77AADD",
"K. c #7CB4D5",
"L. c #7AB3D9",
"P. c #7DB7DC",
"I. c #76A5E2",
"U. c #78A7E5",
"Y. c #77A9E4",
"T. c #79AAE6",
"R. c #7AADEA",
"E. c #7CB3E4",
"W. c #7FB9E5",
"Q. c #7DB3ED",
"!. c #7FB5F0",
"~. c #80BCDD",
"^. c #81BBEB",
"/. c #80B6F2",
"(. c #83BCF4",
"). c #84BEF9",
"_. c #88C8DE",
"`. c #88C9E6",
"'. c #85C3ED",
"]. c #96D7E9",
"[. c #86C3F4",
"{. c #88C6F4",
"}. c #8BCBF4",
"|. c #86C3FB",
" X c #88C6FE",
".X c #8BCBFE",
"XX c #8ED5F5",
"oX c #8ED1FE",
"OX c #94DCF5",
"+X c #91D5FE",
"@X c #94DBFE",
"#X c #9AE0EF",
"$X c #95E0F3",
"%X c #9BE3F4",
"&X c #96E2FE",
"*X c #99E5FD",
"=X c #96E9FF",
"-X c #9BEBFE",
";X c #9EF3FE",
":X c #9FF8FF",
">X c #A7ECF6",
",X c #A3EDFE",
"<X c #AAEFFF",
"1X c #A3F4FE",
"2X c #ABF4FE",
"3X c #A5F9FE",
"4X c #AAFBFE",
"5X c #B4F4FE",
"6X c #B9F7FF",
"7X c #B3FBFF",
"8X c #BBFAFF",
"9X c #C4FCFF",
"0X c #CCFFFF",
"qX c #D3FFFF",
/* pixels */
". O i @ i i @ i i @ @ i i i p i # $.# p # # # %.p # $.# # # # # # # # # # p p # O @ i @ @ i i i i @ @ i i p i i i i i i @ @ i p p i p i # @ @ # # p p # i p @ o ",
"+ @ i i f g i @ i @ i g g i p # # y # # # # # # # # # # y y y $.$.p # # # $.$.p g i i i i i # # # # i p f g p i # i f # # # i i f # # # # f g g g f # # i p i @ ",
"p p i p g g i i i i p g g g g f # y # # # # $.# # # # # y $.&.&.&.$.# # # g &.&.&.$.p p g g i # i i p $.g g g i f g i @ # g g f i # @ # f $.&.&.&.$.i # i g p i ",
"i p %.&.%.g i i p i p $.%.%.&.&.&.%.y # p &.&.&.%.$.%.%.%.$.%.%.&.%.%.# # $.%.$.$.%.%.&.%.$.i i p i i $.%.%.&.&.%.$.i @ g %.&.%.$.$.$.%.$.$.$.%.%.%.$.p p $.p i ",
"i i $.$.%.&.%.%.%.p p %.&.&.&.%.%.%.$.$.&.&.&.&.%.&.&.&.%.$.$.$.g g &.%.$.%.%.%.$.%.$.$.%.&.%.$.%.p g %.&.&.%.&.&.&.%.%.%.&.&.&.&.%.&.&.%.$.g $.g g %.$.g $.p i ",
"i i i i $.&.&.&.&.%.%.%.&.&.g g $.&.&.&.&.&.&.&.&.%.&.&.%.# y y e @ $.%.%.# g &.g g f e g &.&.%.$.%.g g &.&.g g g %.&.&.&.&.&.&.&.&.&.&.$.g f g # f &.&.%.g p i ",
"@ i i p g g g g f p f f f g %.%.&.%.$.p y $.$.%.%.&.&.%.g + O q o o + # e O O O + O o O + w e + + O O O q O e + w # y p g g $.%.&.&.&.&.%.g p f @ @ $.&.&.g @ + ",
"@ @ i p g i i i # # y # # i g %.%.$.$.f g f g f $.&.&.&.y ; , , , $ < 5 < , $ , < , $ < 2 $ $ , < $ , , $ , 2 4 5 : e p f f p f g %.&.&.&.$.$.%.g p $.&.&.f @ O ",
"@ # # $.$.# # # # y # # y # # y %.$.%.&.&.p # # y $.&.y r T W / F W W W W C C C C W W C C C C C W W W W W W W / / K u g %.$.y y f &.&.&.&.&.&.&.&.&.&.&.%.# @ # ",
"@ # p $.$.y # # # # # # # $.y %.%.$.%.&.&.&.$.y w q q w T 3.r.y.e.9.9.9.e.9.9.e.9.e.9.9.9.q.0.0.0.0.0.9.0.q.0.w.7.| T r y %.$.%.&.&.&.&.%.$.%.%.# # # $.&.%.# # ",
"# # # %.%.$.y # f g g p $.$.&.&.&.$.&.&.&.%.g w 5 K 1 T #.l.P._.P.L.L.L.K.L.L.K.K.K.P.L.G.G.C.C.V.V.A.A.A.H.A.Z.b.q.| T r y $.&.&.&.&.%.f $.$.%.# # # $.&.%.%.$.",
"p # # &.&.&.g g %.&.&.&.%.%.&.&.&.$.&.&.p p t T ^  ./ >.g._.-X>X-X%X=X=X-X%X*X*X=X%X=X*XOXoX|.|.|.|.|.[. X|.|.(.R.v.t.>.U r $.y g %.&.$.# %.&.&.# # # %.&.# # # ",
"# # # %.&.&.&.$.# f %.&.$.$.&.$.p &.&.%.g w 9 #.r.n.d.k.K.$X3X7X7X8X7X7X7X8X7X3X:X:X:X:X-X*X@X+XoXoXoXoX+XoXoX X|.Y.N.t.) 4 * * * w g %.$.&.&.&.&.p %.&.&.p # # ",
"@ # p $.%.&.&.%.p y $.&.$.g %.g p &.$.# w 0 ` s.K.`.`.`.XX-X3X8X9X0X0X9X9X0X8X7X:X;X:X1X1X;X*X@XoX.X.XoXoXoXoXoX X!.R.m.5.) I I U 8 t %.&.&.&.&.&.&.&.&.%.$.p # ",
"# p %.&.&.&.%.%.&.$.$.%.$.$.%.%.&.$.# = 4 O.s.~.#X3X3X;X-X-X-X5X9X0XqXqXqXqX0X6X1X,X*X-X-X;X*X@XoX|.|. X X X X.X.X|.).R.v.t.2.2.:.| T w $.&.&.p g g $.$.$.%.$.# ",
"# p &.$.%.&.&.%.&.&.%.$.$.%.&.&.&.# X < ` s.P.OX1X4X4X3X:X*X-X,X5X8X0XqXqXqX0X9X6X2X,X*X-X-X=X@X.X|.|. X X X X.X.X X|.).R.V.z.z.i.4.` 8 q i %.&.%.$.$.%.&.&.$.g ",
"# p %.p g &.%.%.&.&.$.g g $.&.&.$.: 1 _ s.K.=X;X1X1X1X1X;X*X=X*X,X2X9XqXqX0X0X0X9X6X<X-X=X-X=X+X.X|.|. X X X X.X.X X X X[.(.Q.E.A.f.4.) < w y &.&.&.&.%.&.&.%.g ",
"p p f # i $.g $.%.g # y # # g g e T ` y.E.$X4X3X;X*X*X*X-X-X=X=X*X,X2X8X0X0XqX0X9X6X<X-X-X-X=X@X.X|.|. X.X.XoX.XoXoXoXoXoXoXoX}.).T.N.q.) T t $.&.&.&.g # %.$.# ",
"i p %.p i p f g g y y g y # y w T | y.H.XX3X4X3X*X@X@X&X*X*X;X=X=X*X,X2X8X0X0X9X6X<X-X-X-X;X=X+X.X|.|.|..XoX+XoXoXoX@X@X+X+X+XoX X!.R.v.4.` T r y g $.g # g # $.",
"# p &.$.g g g g g y $.$.y # + & E q.A.[.%X=X$X].}.[.[.}.@X&X-X;X-X-X&X,X5X9X9X6X,X-X=X=X-X-X=X+XoX X X X X.X[.[.[.[.[.[.{. X.X.X X).!.H.f.6.) 2 q y g $.$.# # # ",
"g g $.%.&.&.%.$.$.y y y # # e , ~ d.W.@X}.K.l.l.v.v.v.V.^.@X,X,X-X=X&X-X2X5X5X2X*X=X*X-X=X=X+X+XoX@X+XoX[.Y.m.m.m.n.k.k.A.Q..X.X|.(.).Q.C.a.:.K w %.&.&.&.g $.# ",
"i g %.&.&.%.%.&.&.$.$.g g g e 1 / k.}.$X~.h.,.:.<.1.:.q.n.'.@X&X&X@X=X-X-X1X,X,X-X*X-X-X&X@X.X.X.X+X@X.XE.f.4.4.<.<.:.<.d.J. X X).R.Q.R.C.p.=.K t $.$.&.&.$.$.# ",
"i p &.%.$.%.%.%.&.&.&.&.&.g t P | M.XXOXK.9.J H S A N ' q.V.^.(.(.[.oX=X-X-X-X-X-X-X-X&X@XoX|.).(.[.'.Q.k.3.S N A G H } t.H.(.).R.Z.H.V.d.2._ & q # g %.&.$.$.g ",
"i p g %.%.&.%.$.$.%.&.$.y r T | s.P.OX=X`.n.4.{ M k k x ' 5.y.a.x.G.[.*X:X;X=X=X;X*X&X@X@X@X XQ.M.f.d.s.,.S z k z S *.7.n.H.R.!.Y.B.c.e.O.U 6 + e # $.$.$.%.# # ",
"i p $.%.%.%.g g g g g y = T 3.d.G.XX*X-X%X`.D.9./ b x b N H ] ] :.t.H.}.=X=X=X;X-X&X+XoXoXoXQ.m.7.-.] ] D N b x N =.y.A.E.R.Y.T.H.m.a.4.I & q # @ # $.g $.$.g # ",
"# g &.&.g # f $.%.$.i q < W w.Z. X*X-X-X7X4X#XF.9.;.+.X.D b x l N =.t.H.{.+X=X-X&X&XoX X[.Q.m.0.] x x x N H X.} =.p.G. XoX!.Y.I.S.N.a.=.I & q + O w y $.$.$.p # ",
"i g %.$.p @ # p &.&.%.f & ~ t.Z.[.*X;X1X8X9X6X].K.l.D.g.3.A z k b S *.w.M.^.OX&X+X+XoX[.I.k.<.' A z l x J 5.k.x.b.A.Q. X.X|.Q.T.H.B.v.r. .U , $ $ & + g %.%.$.# ",
"i g %.$.g g p p &.&.%.f ; W 0.C.[.&X*X-X6X9X9X>X#X].OX_.l.:.H A H J H =.d.E..X@XoXoXoX[.Z.t.} H ' G D H 5.n.^.'.[.(.{..X.X X).Q.Y.S.H.m.s.>.) ~ ( Q 6 # $.%.$.# ",
"i p &.&.&.&.%.%.&.%.g @ % E 0.C.(.@X&X&X<X6X9X7X4X4X4X>X`.l.r.9.q.7.,.5.k.E..XoX X.XoX XG.p.4.,.q.q.q.e.m.W.@X&X@XoXoXoXoXoX X).Q.T.Q.Y.B.a.w.w.q.4.! 0 w y # # ",
"@ p $.&.%.p %.&.%.%.g + % E 0.V.[.oX@XoX@X<X2X3X3X3X3X;X$X`.P.L.Y.H.M.V.Y.|.oX.X X.XoXoX[.H.M.V.I.J.H.H.E.|..XoXoXoX@X@X@XoX.X|.).!.T.I.C.N.c.N.v.f.4.! 5 q @ @ ",
"# i %.&.$.p g %.%.%.y = $ V 6.B.!.oXoX.X@X*X-X-X*X*X-X-X-X%X%X}.[.!.|. X|.'.[.[..X X{.!.[.|. X[.(.(.|.{.}..X X X XoX&X&X=XoX X X|.).!.T.Z.Z.I.I.Y.C.d. .I * + # ",
"i $.&.&.%.g p %.&.y = $   n :.z.Q.oX.X X.XoX@X+X@X@X@X@X;X1X-X'.J.T.}.oX[.V.V.T. X[.J.M.Y.}.oX'.J.Y.[.@X@XoX X.XoX&X-X;X&X+X X X X X|.!.R.Y.R.!.!.R.v.=.R : @ # ",
"# p %.&.$.g $.%.g r 4 C B G :.p.H.(. X X.X.X.X.X.X.X.XoX@X&X`.x.e.p.E.[.G.e.e.v.(.~.a.6.a.^.^.G.e.t.M.}.+XoX.XoX@X,X;X-X&XoX.X X X.X X|.!.R.U.R.R.S.a.:.R : y g ",
"# # g $.$.$.%.f w 0 ..5.5.4.5.e.j.S.Q.). X X X X|. X X.X{.Q.m.2.{ =.x.A.f.=.=.e.S.b.6.X.2.v.A.y.{ X.q.J.(.{..X+X@X*X*X*X@X.X X X X X.X|.(.U.H.V.B.z.w.-.R q y y ",
"# # g g %.&.%.e 5 ` s.F.P.D.g.9.4.w.v.R.).|. X|. X X.X|.R.v.6.' A ' 5.t.4.H H ;.t.0.X.D X.8.w.,.D D -.y.M./..X+X@X@X@X+XoX.X X.X.X X|./.R.Y.S.v.u.0.1.-.Q 6 + @ ",
"# # # y g $.e 8 ` s.K.#X2X].F.r.:.<.a.I.).|. X X.X.XoX(.M.6.' N M A ] { ' N A H X.X.D N D ] { J N n Z -.y.J..X+X+X.X.X X X X X X X).Q.R.I.U.C.d.1.*.*./ U r + O ",
"# # # # + t 8 ` r.J.$X4X7X2X`.d.<.<.a.U.). X X X.XoX@X'.v.;.N b b N N A N N N N A N N N N A N A N b b D 0.G.+X+X.X|.|.|. X X X X).!.U.S.S.R.S.a.:.H A I 0 e # + ",
"p p # + = < ` y.G.}.-X3X3X*XW.M.a.j.A./.|. X X X.XoX&X}.M.<.S b M N N N Z N N N N N N N N N N N N b M J q.J.OX@XoX|.|. X.X.X X[.!.I.S.S.I.R.U.z.1./ K > y g $.p ",
"p p # + 2 W 6.B.[.&X-X-X&X+X).U.H.I./.|..X X X.X{..X.X~.k.:.H M M N N m N N N N N N N N N m m N N b N J 7.m.'..X X X X X X X[.!.I.S.S.H.I.U.C.p.:.E 6 w y y g y ",
"# p $.+ 3 ' u.U.}.@X*X@X+X X).).(.). X.X.X.X X.X X(.I.x.6.{ S N N m m m m N B N m m N N N m m m N N N H ;.t.M.R.[..X.X.X X|.!.I.S.S.H.I.H.B.d.,.Q 6 f f y $.y y ",
"O # g w 3 ~ w.B.Q.{.+X+X.X.X X|.|.|.|..X.X.X.XoX{.J.f.4.' S B N N N m v m N N m m m N N N m v m N N N A G } 7.m.Q.oX@X.X[.!.I.H.S.H.R.U.B.a.4.Q j f %.g $.&.p i ",
"@ i g @ ; P >.w.B.R.). X X|.|.{..X.X.X|.|. X.X+X{.A.0.' M M N N N m m v v N N m v v m N m v v m m N N N M N *.p.J.oXoX|.!.I.H.Z.S.S.I.m.p.,.! 6 d g g f g %.g i ",
"p p i i e : U +.w.N.R.(./././.|..XoX.X.X X X.X+X{.M.4.G x n m m m m v v v m v c v v v m v v v v m m N m c b ] y.J.}.oX!.T.Z.Z.I.S.C.m.y.@.Y 6 f $.$.i i i g p p ",
"# p %.%.$.f * U +.w.N.U.U.I.U.(.|..X.X|. X.X.X+X{.A.0.' M M B n v v v v v v v v v v v v v v v v v m m N b Z *.d.E. X[.Y.S.Z.H.I.H.B.a.,.I 6 e g %.%.%.i i $.i i ",
"# f $.%.%.&.y > U +.t.m.C.S.U./.).).). X X X.X+X{.A.e.{ N N N m v v v v v v v v v v v v v v v v v v m m M A :.j.E..X(.H.Z.Z.I.T.I.b.w.+.  - i g g g %.$.g $.p i ",
"# # # y g &.&.f > Y +.i.b.B./.^./.(.). X X X.X+X{.A.0.{ N N m v v v v v v v   v v v v v v v v v v v m N M A ;.f.E..X(.I.C.Z.I.T.I.m.t.[ 1 - i f i i %.&.%.g i p ",
"# # # $.$.$.$.f a * P X.q.c.S.S.Z./.). X X.X.X@X{.A.q.{ N N N c v v v v v v v v v v v v v v v v v v m N M A =.d.Y.|.(.I.Z.C.Z.T.I.b.u.+.1 * i f i i g &.&.g i + ",
"@ # # $.g y y y i O & P o.8.c.b.V.U.)..X.X.X.X+X[.Z.q.{ M N N n v v v v v v v v v v v v v v v v v v m N N S =.p.G.(.!.I.S.Z.I.T.I.b.w.X.1 w g g i f %.&.%.i + O ",
"@ # p p g i @ # # # e * 1 ` t.z.V./.)..X.X.X.X+X{.A.e.] M N N n v v v v v v v v v v v v v v v v v v m N N S *.t.B.R.R.S.S.S.I.R.I.b.w.X.1 a &.&.%.g &.&.%.i @ @ ",
"+ # p p g p i @ @ i @ = $ R 1.a.C./.).)..X.XoX+X{.C.q.] N N N n v v v v v v v v v v v v v v v v v v m N N A *.q.v.U.U.I.S.S.S.U.I.B.a.2.E 6 a g g f f $.%.$.g i ",
"# i p $.%.$.p i f g f w , V 1.a.S./././.).{..X@X{.A.q.{ N N N m v   v v v v v v v v v v v v v v v v m m N S *.q.x.I.I.S.H.S.S.U.H.Z.b.y.@.! 7 a + @ i g &.%.g p ",
"p i i &.&.&.g p $.$.g u L ~ 2.a.A.R.U.U./.).oX@X{.A.q.{ N N m v v v v v v v v v v v v v v v v v v v m N N S *.q.v.U.U.S.S.S.S.H.H.S.H.B.p.2.^ ; q @ i $.&.i i i ",
"@ i p $.&.&.&.$.i f a j 8 E @.8.j.m.A.S.U./.|.+X}.A.e.{ N N N m v v v v v m v v v v v v v v v v v m m N N G *.w.v.U.U.S.H.I.S.Z.S.U./.U.N.u.+.L > i %.&.&.g i i ",
"@ # p p %.&.&.%.i + - j 7 8 ! o.4.p.b.A.H./.(.oX{.G.q.{ M N N m n v v v v m m m v v m m m v v v m m N N N D *.q.v.U.U.H.S.S.S.S.S.U./.R.C.u.;.I > h &.&.%.$.i i ",
"i p %.&.&.&.%.%.%.a r r s r 6 I X.6.j.C.U.U.U.{.[.G.q.{ M N N N N m v n m N m m v m m N m m v m m N N N N D X.q.v.U.R.H.H.H.H.S.S.H.R.S.z.6.X.I 6 r f g $.%.g p ",
"@ p &.$.%.&.&.%.&.f a s s s 6 L H 6.v.S./././.)./.m.6.H M M N N N N m n m N N m m m N N N m v m N N N N M N { 0.c.T.R.U.U.U.T.R.R.H.S.z.8.+.Q Y 0 s h p %.&.$.p ",
"i g %.i g &.&.&.%.f a > s s 7 V D 1.c.U./.U.U./.U.x.1.H n N N N N N m N m N N N m N N N N N N N N N N N b A { 7.v.T.R.U.U.Y.Y.R.R.Z.z.7.X.! 0 j j s f %.&.&.g p ",
"p p f i f g g g g a - * - > > 3 ..3.a.B.C.B.C.U.S.c.q.-.D N N N N N A N N N N N N N N N N B N N N N N N Z J :.p.B.I.I.B.N.b.B.S.B.j.6.X.P 7 s d d d f f p &.g p ",
"i p %.f f f f g g i a a - > 7 9 ! O.5.u.i.u.a.B.H.A.c.q.-.D N n N N N N N N N A N A N N N N N N N n b N J :.y.m.I.I.b.p.t.t.p.a.p.q.+.E 2 7 s a a a g i i f p p ",
"i g &.g g g g g f p i f - * u j j Y o.,.;.,.8.z.S.U.H.c.6.-.D m N N D H D N N D G D N N A D H D N n N G :.y.B.U.Y.B.p.4.=.=.:.1.,.+.! 9 7 > s a + i g g f i p p ",
"i g g &.&.&.%.g g p i i O a d d > 7 Y R V V o.2.j.I./.I.c.w.-.H D J ;.,.-.D D ] :.*.H D H -.-.{ Z N H ,.p.C.R.R.Z.y.>.^ R R W W W E 9 j h d d g %.&.&.&.&.g p p ",
"i g &.&.&.&.%.&.&.%.g p p f f a s 6 5 3 3 3 L o.8.c.S././.c.w.-.J X.w.y.6.] ] -.t.7.*.G X.7.w.,.H H -.p.C.R.R.S.a.,.Q P 3 < 3 P P 8 7 u a f h g %.%.%.&.&.p g p ",
"p p &.%.%.g &.&.&.&.&.&.&.&.g h s - 7 > - ; 8 I o.8.c.S./.~.a.1.X.:.a.x.p.-.-.q.b.j.2.*.1.j.x.w.X.-.q.b.R.R.A.a.2.^ P 6 > - : u j 7 7 > r @ f g g i f %.&.%.p i ",
"p p g g &.&.g g g %.%.&.&.&.%.f a s > > - > > 5 E X.7.z.C.B.a.1.-.:.u.a.a.q.u.b.U.S.z.t.j.S.I.b.t.p.b.R.R.S.p.<.^ L 2 > - r s d a w w w w i i f i f g g %.%.p i ",
"i p g &.%.g g g g g g g $.&.%.g h a w > r r s r 6 E o.1.w.q.2.:.} *.:.7.t.j.B.I.R.I.A.b.V.U.U.S.b.V.I.R.S.a.,.^ Y 7 > > r r d g h a a i a i i a i i p g g %.p i ",
"i p &.&.g i f %.%.$.g f g &.%.%.$.g a s s s d h r 8 E ( ] ' / / ( / D [ 4.j.Z.H.C.C.C.M.A.C.V.B.C.S.S.B.p.<.W P 7 d d s s s d g p i i i i i O i i p %.%.%.g p i ",
"i g %.g i a i f &.&.&.%.&.%.g %.&.%.g h g h a h s u P I V I E E E P 3 E O.e.a.x.a.p.a.a.a.p.p.a.j.x.z.p.<...P 9 j h h h p h a g &.g g i i p i p p p %.p %.&.p p ",
"i p %.%.p g i g &.&.%.%.&.%.%.%.&.%.$.$.g i # h d j 7 0 9 9 0 7 7 7 > 5 ! @.2.2.,.,.,.2.<.,.,.<.<.2.2.:...Y 7 s d a g g g p i g &.%.g g p p %.p %.%.%.%.%.%.g p ",
"i p &.&.&.&.&.&.&.$.g g $.&.&.&.&.%.%.%.$.f y y d d h h h h h h d d h s 9 E W F C W C ~ C W C W W F F ^ P 0 d d d a f g g g p g %.&.&.&.%.&.&.&.&.&.&.%.p p p i ",
"i i $.&.%.p %.&.%.$.g f $.&.&.&.$.g g g &.&.$.i a g f g %.g f h s s s s 7 4 P I P Y Y Y Y P P P P Y Y   8 j d a i f f p &.&.%.g p &.&.&.%.&.&.&.&.%.p %.%.p i @ ",
"@ p %.&.%.p $.%.&.$.g i $.%.%.$.g $.g g &.&.$.p g g %.&.&.g g h d s s s j > u 7 7 j u j 7 7 7 > u 7 6 6 7 7 d a i g g g &.&.g g %.&.&.&.&.%.%.%.&.%.$.%.%.p p @ ",
"p p &.&.%.p p $.&.g i i i g i p g %.&.&.$.i # %.&.%.&.&.&.p p p a a d h h a h f f h h g h a a a h a O a a w w a p &.&.&.g i i &.&.g &.&.&.p p %.%.&.&.&.&.&.p p ",
"i p %.%.$.g $.$.$.$.p i $.%.p $.g %.%.g p %.%.%.g g &.&.&.g g %.g g g i a p %.%.g g g g g f p p g g p a p g f g g %.g g g %.%.%.g p &.&.&.g g %.&.&.%.p p %.%.p ",
"i i p $.$.$.&.%.p &.%.g %.&.&.%.%.&.g p %.&.&.$.p g g &.&.%.g &.%.%.g i i %.&.%.g g g g g g %.%.g g g i g &.g %.%.%.g g g &.&.g p p %.&.&.%.%.&.&.%.g p p &.$.p ",
"i i p $.%.&.&.&.&.&.&.&.p f &.%.%.&.%.g %.g g i f %.g %.&.%.%.&.%.$.p $.%.%.%.g g %.g g %.&.&.&.&.&.&.&.p p &.&.g &.&.g &.g g p p g p &.&.&.%.&.&.p g %.%.&.p @ ",
"i i i i g %.%.&.&.&.&.%.g g &.&.&.&.&.%.&.%.p p g %.p g %.g g &.&.&.$.$.&.&.g i g g i i g &.%.%.&.&.&.g p p &.&.&.&.&.&.&.g g p g &.p p g g g &.&.&.g %.%.&.p O ",
"i i # # i p $.$.&.&.%.p p %.&.&.&.%.g %.&.&.$.p g &.g f p p g %.&.%.%.%.&.&.g i &.g i i i g g %.&.&.%.p g %.&.&.&.g g g &.&.g g %.&.g g p g g &.&.&.p &.&.&.i O ",
"i i # i p i p $.%.%.%.$.p $.%.g i f p p &.&.&.$.%.&.&.&.g &.&.g i p &.&.&.%.%.&.&.g i i i i p %.&.&.g g g g g i g g p g &.&.&.g g &.&.%.g %.%.g p p %.%.&.%.p i ",
"@ @ @ i i i i i p i p p p p p i f p p g p p g g g g g g g g g g @ @ p p i i i p i i a i i i i i p i i i g p p i p f p p g p g g g p %.p g g g g i i p i i i i i ",
"o + # i i p i @ @ @ + i i i @ i p p p p @ a i g f i i i i i i p @ @ i @ O + i i i i @ i i i i a i i O i p i i i p f p f i a i p p i p i p i f p a O i i O + O O "
};
