/* XPM */
static char *__resized[] = {
/* columns rows colors chars-per-pixel */
"80 80 254 2 ",
"   c #110D14",
".  c #1B1517",
"X  c #1D1B17",
"o  c #171418",
"O  c #1C1B19",
"+  c #270E18",
"@  c #271A18",
"#  c #231C1B",
"$  c #381C17",
"%  c #1D2518",
"&  c #1E331A",
"*  c #352A0F",
"=  c #222416",
"-  c #24231B",
";  c #2A241D",
":  c #272A19",
">  c #372719",
",  c #263817",
"<  c #293519",
"1  c #2B3C19",
"2  c #363B17",
"3  c #181821",
"4  c #281E23",
"5  c #2D1C30",
"6  c #2D2223",
"7  c #2B2624",
"8  c #322425",
"9  c #362729",
"0  c #3C2C2D",
"q  c #383428",
"w  c #372F30",
"e  c #3B2B32",
"r  c #471A14",
"t  c #501B11",
"y  c #6C1B11",
"u  c #582C0E",
"i  c #492618",
"p  c #562617",
"a  c #463617",
"s  c #573814",
"d  c #6D240F",
"f  c #662B18",
"g  c #782E13",
"h  c #6A3615",
"j  c #7B3215",
"k  c #773815",
"l  c #462B26",
"z  c #532D25",
"x  c #44322D",
"c  c #553229",
"v  c #423230",
"b  c #4A3736",
"n  c #533D38",
"m  c #673829",
"M  c #6D392B",
"N  c #294617",
"B  c #2C4319",
"V  c #2D4B19",
"C  c #374819",
"Z  c #2E5217",
"A  c #33541A",
"S  c #3B5219",
"D  c #355B1B",
"F  c #3C5D1A",
"G  c #36621B",
"H  c #3A651C",
"J  c #3D6C1D",
"K  c #3F711E",
"L  c #334B20",
"P  c #3F7320",
"I  c #484717",
"U  c #434C16",
"Y  c #4C4C16",
"T  c #584917",
"R  c #465317",
"E  c #445518",
"W  c #4A5319",
"Q  c #435B1A",
"!  c #4B5C1A",
"~  c #575719",
"^  c #674816",
"/  c #784616",
"(  c #675518",
")  c #795717",
"_  c #43631C",
"`  c #4B631B",
"'  c #426C1D",
"]  c #4A6C1D",
"[  c #56651B",
"{  c #41741F",
"}  c #4A741F",
"|  c #43781F",
" . c #53731F",
".. c #6B631A",
"X. c #56423B",
"o. c #5A5938",
"O. c #79462C",
"+. c #6D512F",
"@. c #674634",
"#. c #774433",
"$. c #4C6B20",
"%. c #427620",
"&. c #4A7620",
"*. c #457C21",
"=. c #4A7B21",
"-. c #693F40",
";. c #594644",
":. c #5C5041",
">. c #644D47",
",. c #665348",
"<. c #77594B",
"1. c #70594F",
"2. c #786A4B",
"3. c #79665A",
"4. c #766761",
"5. c #833414",
"6. c #893110",
"7. c #843B15",
"8. c #8C3C15",
"9. c #8A3A19",
"0. c #933C15",
"q. c #983A16",
"w. c #A53E19",
"e. c #873C22",
"r. c #894717",
"t. c #944216",
"y. c #9B4B15",
"u. c #994718",
"i. c #885718",
"p. c #985718",
"a. c #AF550F",
"s. c #A54717",
"d. c #A54C19",
"f. c #AD4D1A",
"g. c #B24D1A",
"h. c #A65917",
"j. c #A45319",
"k. c #AC531A",
"l. c #AC5C18",
"z. c #B4541B",
"x. c #B95719",
"c. c #B45B1A",
"v. c #BB5B1C",
"b. c #876318",
"n. c #996418",
"m. c #AD6319",
"M. c #A96718",
"N. c #B66915",
"B. c #B16D14",
"V. c #B46419",
"C. c #BC631B",
"Z. c #B46B19",
"A. c #BB6C1B",
"S. c #B77419",
"D. c #BC7319",
"F. c #86492A",
"G. c #97512E",
"H. c #884932",
"J. c #865734",
"K. c #A5552F",
"L. c #976626",
"P. c #8C6635",
"I. c #976636",
"U. c #AD6E2E",
"Y. c #A97638",
"T. c #B67B35",
"R. c #C35D1D",
"E. c #C56A15",
"W. c #C4631C",
"Q. c #CA641E",
"!. c #C46C1B",
"~. c #CA6C1D",
"^. c #D26D1F",
"/. c #C07D17",
"(. c #C3741B",
"). c #CC741C",
"_. c #C37A1A",
"`. c #CC7B1C",
"'. c #D1741F",
"]. c #D37C1E",
"[. c #DA7E1C",
"{. c #CA6A22",
"}. c #C9742A",
"|. c #D47320",
" X c #D77A20",
".X c #815E4C",
"XX c #896A4B",
"oX c #877357",
"OX c #A37B46",
"+X c #897666",
"@X c #478122",
"#X c #498423",
"$X c #4C8A24",
"%X c #B7843A",
"&X c #C8851B",
"*X c #CC841B",
"=X c #D5821D",
"-X c #D9851E",
";X c #D48B1C",
":X c #DB8C1D",
">X c #DC931D",
",X c #DE991D",
"<X c #E18E1F",
"1X c #E2941E",
"2X c #E69C1B",
"3X c #E49C1E",
"4X c #E6A21D",
"5X c #EBA71E",
"6X c #F0B31E",
"7X c #DB8321",
"8X c #DB8924",
"9X c #DB9624",
"0X c #CC8A30",
"qX c #D79737",
"wX c #E38C21",
"eX c #E49321",
"rX c #E69526",
"tX c #E49A21",
"yX c #EB9C21",
"uX c #E49934",
"iX c #DAA534",
"pX c #E7A727",
"aX c #EBA421",
"sX c #ECAB23",
"dX c #F2AC24",
"fX c #EDB227",
"gX c #F2B928",
"hX c #E8A735",
"jX c #EDB637",
"kX c #F3BC36",
"lX c #F7C32A",
"zX c #F8C838",
"xX c #F8D338",
"cX c #978B59",
"vX c #AD8E50",
"bX c #A59D64",
"nX c #B4AE6E",
"mX c #CA9545",
"MX c #D2AD51",
"NX c #ECB543",
"BX c #CFBB6E",
"VX c #F7CD47",
"CX c #FAD647",
"ZX c #F6D455",
"AX c #D1C874",
"SX c #F9E364",
"DX c #C1BC84",
"FX c #D5CF87",
"GX c #F1ED90",
"HX c #F5F2AF",
"JX c #FDFCCE",
"KX c #FEFED8",
"LX c #FDFDE5",
"PX c #FEFEF9",
/* pixels */
"Z G { K K K K K K H S u d h S H K K { K K J K @X| K | | P J J K K P { G U k M.,XzXVXzX5X4XsXzXCXSXCXlXaXC.r.U H K G Y r.*X>XD.^ C { &.P K J J K K P %.K K | J D ",
"H J K { | | K K J F T i.h.p.( E J P %.K K K P *.K K K K P P %.*.@X*.{ D I r.B.4XzXzXgXaX4X5XkXVXCXzXgX3Xc./ S H J J U / S.`.h.T S K K P K %.%.*.*.*.{ K { | { J ",
"| { { | @X| { J _ ^ L.qXpX>Xp.^ E ' K J K %.@X%.P P K P P *.$X$X$X@XK D I u.(.4XgXkXfX3X1X4XsXgXlXkXfX8Xz./ E J { { F Y n.h.) ! H K K K P #X#X$X$X@X{ K K *.@X| ",
"{ | #X$X$X| J Q ( L.qXZXxXgX*Xy.s Q J K *.@X#X@X@X@X@X@X#X#X#X#X@X$X@XH T t.R.<X4XsXtX>X-X=X9X4X5X5X1X].v.p.~ _ | | { _ Y ~ [ } #X*.=.#X#X@X#X#X#X#X@X%.| @X| K ",
"J | @X@X#X#XQ T L.iXCXCXCXlX1XC.t.( ! K #X$X$X$X$X$X$X$X$X*.*.#X*.*.#X' Y r.f.'.-X1X1X-X].'.=X>X5X4X8X).).D.i.( ] @X$X| ' ' { #X$X#X$X$X$X*.*.*.*.@X$X@X=.@X%.K ",
"J J | | @X#XU r.0XCXSXVXlXpXeX7X}.j.( [ @X$X$X$X$X$X$X#X@X*.%.*.P P #X%.! / u.v.|.[.].].'.].-X3XfXsXtX XwX7XW./ U @X$X$X$X$X#X#X$X$X$X$X#X*.*.*.K K #X$X$X%.%.%.",
"U F K | @X%.I / 0XVXCXlX8X7XuXjXjX*XM.) ! J =.#X#X$X$X$X#X%.P *.K K =.$X=.! ^ t.x.R.R.W.].3X4XsXlXzXjX,XwX Xx./ Y | #X| | | #X#X#X$X$X$X#X%.%.%.J K @X$X$X*.K H ",
") ~ _ | *.' 2 ^ }.NXxXfX:X7XhXVXCXgXD.r.I H | | @X#X&.' &.*.@X@X%.%.#X$X#X' ! ^ r.s.v.~.:X4X4XfXzXzXjXaX-XQ.s.h E } @X| | | | | *.$X$X$X#X#X*.#X%.*.@X$X#X%.J G ",
"Z.i.I { *.J C ^ S.fXlX6X4X2XjXCXSXxX0XF.~ H { K %.=.! Y !  .$X$X#X#X#X$X#XK K _ s r.A.>X4X3X3XaXfXgXfXeX].R.s.h E { #X$X$X*.| K %.$X$X$X$X$X$X$X$X#X$X$X#XK J J ",
"V.) S { P F T L.9XdX6X4X2X4XfXzXVXhX8XM.( ! { @X&.` b.n.b.[ { @X*.%.%.#X$X#XP H s u.].sXsX1X].].9X3X1X).x.s.c.p.( ` } $X$X#X*.#X$X$X$X$X#X#X#X#X*.%.%.@X$X@X*.| ",
"i.~ H %._ T L.0XjXsX4X3X1X3XfXfXhXuX8X;Xn.( ` } $.T Z.`.Z.( Q =.P H K *.#X=.$.( / k.].aX2X7X~.!.].-X].x.q.s.(.S.n.~ _ #X$X#X#X$X$X$X$X#X*.*.#X#XP J K *.$X@X*.| ",
"E _ P *.~ 7.0XzXzX;X&X;X:X9XfXpXtX-XtX5X-Xi.I ' ` ^ S.;XS.^ W $X%.K P *.=.Q ) h.z.x.W.].=X).W.~.=X-X'.g.q.u._.*XM.T ` #X%.@X#X@X#X$X$X#X%.#X$X$XP K K @X$X%.{ %.",
"G J { { Y k *XpX9Xm.l.=X1XsXkXzXjX3X2X2X~.r.I %.=.[ b.i.) [ =.$X#X#X#X*.` / Z.*XV.s.s.v.W.W.].>X5X2X=XR.g.g.c.p.( [ =.#X$X$X$X@X#X$X$X$X#X$X$X$X#X#X#X$X$X*.{ K ",
"J { | | ` ( n.&XS.l.h.A.;X5XzXzXzXaX:X`.p.( ! &.#X=.~ T ! } $X$X#X$X$X%.! ) S.*Xn./ k d.x.~.rXgXlX5X1X'.R.f.8.T _ #X#X*.$X$X$X@X#X$X$X$X$X$X$X#X#X#X$X#X#X@X%.K ",
"{ | @X#X#X .~ i._.*XD.y.Z.4XgXlXsX9X(.y.( ] @X&.%.*.&.' } #X$X@X%.%.#X%.] ` i.p.( R T y.E.eXkXxXzXdX2X-XR.u.T ] $X#X%.K %.$X$X%.%.*.#X#X#X$X$X#X*.%.#X*.@X@X*.| ",
"{ | $X@X| } T i.(./.Z.y.D.2X6X6XsX3X`.j.T Q %.P %.%.%.%.{ | #X#X#X#X#X#X#X%.[ ( ' H ! r.E.sXzXxXlXsX:XA.p.( ` #X$X%.P P %.*.*.%.P %.*.*.%.#X#X#X#X#X#X#X#X$X@X| ",
"{ | #X{ _ ~ b.S._.m.l.A.*X>XtX3X3X4X1X(.i.^ F ' *.*.*.%.%.*.@X$X$X$X@X$X$X$X} ' =.' ! i.A.pXgXgXgX9XA.r.T _ #X$X$X%.' J %.%.%.%.%.*.#X%.%.*.#X$X$X$X$X$X$X$X@X| ",
"| | | H Y 7.`.3X*Xh.l.:XeX7X).A.`.tXyXwX{.r.T &.$X#X$X$X$X$X$X$X$X$X$X@XK @X#X@X$X' Y r.W.7X;X*X_.A.y.h I K #X#X$X#X' F %.*.$X#X#X$X#X$X$X$X$X$X$X$X$X%.%.#X@X| ",
"{ | @XK Y j !.:X>X`.`.>XwX|.k.j.l. X7X XW.r.I } $X@X@X@X@X@X#X#X@X%.@X| K | @X#X#XJ Y t.x.~.V.j.u.u.6.h R K @X#X$X&.~ ( ! &.#X$X$X$X$X#X#X#X$X#X@X*.@X*.{ %.| | ",
"K | $X| ! T i.(.eXyXtX7X).v.d.y.j.x.{.v.y.^ U H ' ' J H J %.#X$X| { *.@X@XK K J H S I 8.s.k.d.t.0.0.6.k W J =.#X=.[ i.p.( ` &.#X$X$X$X#X%.*.#X#X%.P *.@X*.K K | ",
"%.*.@X#X@X .T p.=XaX4X|.s.u.m.&XD.u.q.t...$.F < > a > 1 D *.$X$X$X$X$X$X#X%.A & % : i g 6.0.l.!.).v.u.h Y %.$X%.~ i.D.*Xm.) Q %.#X#X#X$X$X$X$X$X$X$X$X$X#X@X*.| ",
"%.*.#X$X$X@X_ ( n.&XeX=Xv.j.B.D.l.5.h ( Q D L q b @.#.+.E H P #X$X@XK H D A q 7 ; i h y.j.h.*X:X'.x.q.7.T ! #XP R / B.&Xn.~ Q %.#X#X#X*.#X#X#X#X$X#X#X$X$X@X| | ",
"K | #X=.*.#X*._ T n.`.3X>X`.V.y.8.g T D Z 1 q ;.1..XvX%X..I A K K J V , * a X.X.z k y._.=X;X3X:XV.s.q.s.7.(  .P S s 7.p.T Q { $X$X*.#X%.%.%.*.*.%.%.%.#X$X@X=.| ",
"{ | %.H ' #X#X' E r.V.3XsX3X_.l.y.p.( C , < w 1.+XoXvXmXY.+.a V Z N % q @.J.XX<.M 0.a.1XdX5X;XD.V.h.d.s.f.p.( S B l m h C D @X$X#XP %.*.*.%.%.%.{ %.*.@X#X@X*.K ",
"{ ' ! ( ~ } @XK S / a.>XyXyX:X;X&XD.n.^ * @ v 1.3.3.oXOXvXL.) C N 1 q @.OXmXvXoXH.e.x.[.rX1XA.h.B.S.m.s.C.!.i.^ c ;.;.X.q L H #X@XK { %.%.%.P K K K @X@X@X@X| K ",
"H ! ) p.i.R ' K R / f.~.].7X3XsX5X<X!.0.t @ w ;.1.,.;.,.I.T.Y.o.o.o.o.vXMXNXMX+X<.H.u.x.~.~.j.j.Z./.Z.y.(.[.v.q.#.3.4.1.;.q 1 J *.| K P P P P { K { #X#X@X@X| K ",
"2 ( M.;XS.r.! H ` / s.x.Q.'.<XrXeX Xx.8.r @ 7 X.,.,.;.;.X..XcXDXAXAXMXNXNXNXmX+X+X3.H.0.s.v.~.A.m.j.V.`.7X^.a.9.<.+X+X+X1.;.q 1 G *.| J J K %.%.%.*.*.#X#X#X@X| ",
"C ( M.&XS.) Y R ..n.C.W.R.Q.'. X).c.y.^ > O 7 X.>.>.;.b v o.bXGXHXHXGXCXjXhXvX+X4..XG.p.v.|.rX;XZ.h.A.:X).k.0.M 2.+X+X+XoX,.w : Z #X@X{ H F ' #X$X#X@X@X@X$X*.| ",
"J ! ( p.i.` S T n.&X4X2X).R.R.^.C.r.( Q , : w X.;.;.n b e >.bXGXJXLXHXGXVXhXOX1.>.F.m.9XhXNXjXaX=X*X;X,XZ.9.M <.4.+X4.3.3.>.v : V @X$X] T W [ #X$X$X$X@X*.@X%.K ",
"J J ` ~ ! ' I / ).5XgX6X:X).^.R.g.k Y P K L q v b X.;.b e ;.bXGXKXPXLXHXGXZXMXOXe.9.N.sXxXxXgX5X2XaXfXfX&Xh.F.<.1.4.4.1.1.>.w % V #X{ ..n.n.) ` &.@X*.@X#X%.K J ",
"J | | ' ' ' U / !.2XgX6X2X-X'.Q.f.k T ' @XH 1 > v n n b v ,.bXGXJXPXPXLXHXSXZXmXp.0.a.3XgXlX5X2X2XgXzXzXfX&Xp.O.>.1.1.>.>.X.q : Z @X! ) _.`.n.T _ *.*.$X$X*.K J ",
"{ | $X#X#X| Q T i.(.<X5X4X>X-X'.v.t.^ Q %.K V ; 9 b n n @..XvXBXHXKXPXLXHXFXMXmXp.8.0.A.>X4X-X].-XsXzXVXzX4Xa.0.F.XX2.;.n 0 : V J } W ) _.*XM.T ' @X$X$X$X#X@X%.",
"K %.@X$X@X| } _ T p.A.8X-X7X7X X~.f.u./ ` J A : 6 e b X.P.Y.Y.3.nXGXHXHXDXcX3.XXF.5.6.y.D.-X~.W.).9XfXgXfX:Xj.u.h.T.XXn 0 < C H %.%.&.[ i.i.) ] =.$X@XK P #X#X%.",
"K | @X@X@X@X$X*._ ^ i.Z.~.'.8X:X`.k.z.m.) [ S 1 ; 8 w X.Y.0XI.n 3.nXAXAXcX:.;.;.m g 6.a.N.A.!.!.].:X>X:XwX].s.t.G.T.OX+.l < Z K *.*.#X&.W U ` #X$X#X' Q R $.%.P ",
"K { *.*.@X$X$X$X@X] ( r.f.^.tX,XD.y.Z.;XD.) C A B - 4 n U.}.Y.n ;.1.2.3.3.,.>.;.z 7.N.*XZ.y.A.>X2X:X).E.^.~.s.j M P.OXT.@.2 N G *.@X@X=.} } %.$X#X} Y h k T Q J ",
"K K K | *.$X@X$X$X*.! k d.|.yX3XD.d.C.=XM.( Q J V O 3 v I.qX0XXX+.P.OXP.,.;.1.cX%XT.N.N.a.m.&X4X3X'.R.R.v.k.t.m c @.I.U.T S D J *.#X*.%.%.%.*.@X] [ ) Z.A.L.T C ",
"K K K K %.@X*.@X$X@X` k j.].yXeX_.g.k.M.)  .} K V X 3 x I.qXuX}.T.T.}.I.J.:.cXFXFXBXT.f.a.(.>XeXwX|.Q.R.f.0.f c v b @.O.! _ =.%.@X#X@X%.%.%.%.&.W / B.pXjXqXb.s ",
"| { K { %.K *.@X#X*.[ k l.7XeX7XW.s.5.T  .$X@XK N % l #.I.Y.T.T.T.%XT.Y.OXcXDXHXJXHXBXY.m.).].7X8X7X|.Q.s.j z e w 9 > I &.$X#X=.@X$X$X$X@X$X@X{ T 0.E.fXCXVX0Xm.",
"{ | | *.@X*.@X@X| J Y k c.=XwX|.c.t.^ ` %.#X@X%.V = +.G.J.+.@.+.+.J.O.P.cXFXJXLXPXLXHXBXT.y.f.~.<XyX8X~.s.j z 8 7 - B ' *.#X#X$X#X#X$X#X@X$X*.' ^ 0.W.uXVXCXkX>X",
"K | @X#X#X$X@X*.} R T k V.<XrX|.s.k ~ | ' ' { *.S * O.J.#.e e e b e 5 o.bXHXKXPXPXPXJXGXvXm 5.z.:X5X1XQ.s.5.i @ % N K #X*.*.#X$X$X@X@X#X@X*.} ~ ) h.).uXjXxXlX6X",
"G K #X@X@X#X#X| _ ^ g 5.Z.,XyX Xf.j ~ } R Y W } _ l c c v e e e e e 9 ,.nXGXJXPXPXPXJXGXvXz p 9.(.1XwX{.f.j i : N J @X$X@X@X@X$X$X$X$X$X*.J W i.S.9XjXzXkXgX6X6X",
"J { @X| @X@X' ` ) M.d.7.m.>XyX[.k.7.^ ~ b.b.b.( T f l l 9 v v v e 0 9 X.oXnXHXKXLXKXGXBXvX>.f 5.A.8X Xk.9.f $ : V P @X@XP @X@X@X*.%.*.*.%.F ^ d.*XfXxXzX9X/.>X5X",
"| { { { } { S ^ M.*XD.8.h.;X2X:XV.5.f k M.&XS./ p m l 8 9 w v v v 0 0 x X.2.nXHXJXHXAXuXT.K.e.t.D.>X`.9.f l 4 : N J J G J P P P %.P P P ' F ( j.`.sXlX,XS.j.(.2X",
"K | | Q S E s t.!.D.l.8.j.].rX-Xc.5.u T b.S.M.( W R q > 8 e v v v v v 9 q b 2.nXAXBXmXK.K.}.u.d.D.>XD.j r 6 O % & Z Z N N G P $X@X@X@X#X#X%.` ( n.(.*X_.S.M.l.m.",
"P ' ` ( ^ / p.C.C.j.9.9.l.=XwX Xk.7.T ! ..) ) [ { H B = 6 9 l v v v v 0 9 9 x +.T.}.I.@.H.U.u.u.&X,XS.g l 5 + O % : : = % 1 D %.*.{ %.%.| K H Q ^ 9.q.h.D.D.m.t.",
"H ! ^ h.v.N.8X8X{.q.y 5.V.:XwX|.f.k T Q C * a Q } H , = 4 8 0 0 0 9 e v v 0 5 9 H.K.F.v n H.M t.D.;XD.g i 8 4 o o @ @ r i > 2 G H D D A Z Z D C a t y 0.V.*XV.y.",
"C ^ j.).:X3XkXNXuXf.6.5.Z.>XyX|.f.5.i < # X @ , < : # X # 8 8 9 8 9 0 v v e 9 x J.K.J.w 9 z p t.E.=XN.g p 8 O o   @ p g 5.f i : % = % : = = = % X $ p g t.h.A.`.",
"* k x. X2X5XzXxXuXR.q.5.M.,XyX'.s.5.p @       . . . . . # 6 8 8 8 4 8 9 9 9 9 e #.J.J.m z i k y.~.).a.j p l #   . u F.U.D.h.h > = < , , < < < , , 1 u j y.V.].wX",
"C k f.).7X1XfXdXyX!.s.5.l.=XeX|.f.5.p @ O O O # # # # @ . # ; 8 9 7 5 e 8 8 9 8 0 c e.G.e.j u.W.'.~.f.g f z #   $ 5.%XjXgX:Xh.u C ' { J J { %.%.%._ s r.(.1X8X'.",
") L.0X8X:X8X:X:X<X=X!.l.h.A.].'.V.j s 1 B B 1 B N B Z V & X . 8 x M #.M M m v 4 3 e -.K.f.0.z.|.wX[.l.g t $ + r g C.hXxXxXaXE./ W $X#X#X=.%.*.=._ W / S.1X1X).k.",
"Y.qXkXaX1X:X]. X:X3X3X`.h.d.V.).A.7.T H G J G H J J | H , X . @ c H.G.G.G.H.M e 4 9 >.K.G.q.f.|.yX:XN.g r + $ g l.:XsXgXgX>XV.^ E =.$X$X*.*.#X%.W / M.8XaX:Xl.7.",
"pXzXxXfX3XtX9XuXuX6X6XwXk.9.j.(.!.7.~ *.%.*.#X*.*.#X#XH < # . . z M H.H.#.H.M M m M e.M M f 9.V.1X,XA.g r r k V.[.wXyX1X=Xm.k i 2 G #X=.%.#X#X&.^ u.).tXaX;Xy.h ",
"&X9XfX4X2X4XjXkXkXfX2X'.d.0.d.R.C.7.~ @X$X$X$X#X#X=.D q 7 7 4 @ @ $ > > 0 z #.G.K.G.-.l 8 l f t.).=XN.5.y k S.9XrX-X:X-XN.8.p @ % < G *.@X$X$X} ^ r.v.8XyX>Xh.g ",
"i.M.-X-X:X4XlXzXzXaX[.v.0.9.f.v.v.7.T K $X$X$X@X%.F < @ 8 9 8 # . o     o 4 m H.G.M l 4 3 # r 5.C.!.l.5.t.A.pXgXdX:X-X=XW.8.t @ . # 1 G @X$X#X=.! ^ r.{.eX>Xh.k ",
"I / v.~.-X9XaXfXfX>XA.t.g 5.k.W.v.k Y H { $X$XK V = ; 8 9 9 8 8 # O   o . # l m z > 3 o o @ r 9.v.W.f.8.B.9XzXVXkX5X1X:X].v.q.f i 6 - < G *.$X=.&.Q s j.].=Xh.g ",
"i.n.A.v.W.|.1X3X>XZ.i.^ s k f.{.v.j u B V A A V < ; 4 6 ; 6 8 @ < 1 B N B B I I ; + o o o . t 5.v.Q.z.t.(.5XgXhX8X-X-X].C.v.V.m.F.p 8 7 < D | #X#X' I p.~.'.j.g ",
"Z._.).d.s.~.<X<X(.i.T S I h v.~.v.5.p : = = = = ; 8 7 ; ; ; - 7 B H P P J K %.H < % . . o @ t 9.v.C.j.r.S.8XrX7X{.~.~.Q.s.k.D.&XM.m l 8 # , D %.@X] I u.R.~.d.j ",
"M.D.A.u.w.{.wX1X(.k I _ U / R.^.R.8.p - X X # # @ 6 < < V B N B H #X$X%.P *.$X=.J 1 X O # @ p 0.f.y.^ T i.V.0XqX8X).Q.R.q.s.Z.B.b.T > 6 6 X , A D C s u.Q.^.j.j ",
"( ) r.k t.v.1XyX_./ I } S h z.R.z.j p = X X % = - : A H G H G J %.%.#X%.%.%.#X#X%.H B - 4 8 p 5.q./ Y _ T r.0XkXjX:XE.g.g.g.j.) [ ` B : % X X < < : p r.R.R.y.g ",
"A I s T / j.:XrX*X/ Y } A s u.f.u.f * 1 , N , , , 1 ' | | | #X$X*.&.%.#X*.P *.#X#X%.J 1 - 8 l h j h U F a k 0XxXxX4X!.x.~.~.j.h Q =.H N , : = O # @ $ k d.g.k u ",
"J { ] } ~ / !.-X_./ s H N * f k f > B ' %.%.&.P K %.%.#X$X$X$X$X$X$X$X$X$X*.#X$X$X#X%.J B - # l f f p : i r./.5XfX:XW.R.<X:XN.^ R =.*.%.| G 1 # . . X i f k p @ ",
"{ | $X| W k v.[.~.r.s B & - l i a < D @X$X#X#X#X#X#X#X#X#X#X$X#X#X#X#X$X$X#X#X$X#X#X#X#XH 1 % 6 z p p u r.B._._.(.~.~.].4X1XN.^ R *.#X#X#XK D N 1 1 1 < i p $   ",
"{ @X#X@X~ / l.~.R.8.p = - 6 8 > 1 F P #X%.P %.$X$X*.%.%.%.%.*.*.%.%.%.#X$X*.$X$X#X#X#X#X*.J , 7 @ l f 7.S.;XN.y.s.R.-X4X5X<XV.h W &.*.| { { K H G H H D 2 : = X ",
"{ | | @X} [ i.d.y.f > 6 7 7 = , D P P %.P *.#X$X#X%.%.*.*.%.%.%.%.%.*.*.#X#X#X#X#X#X*.#X#X#XF B - 4 l k m.(.y.0.y.].2X5XyX-Xv.k Y { | | | | K K K K | J D N , , ",
"{ { | { { ' T h h r # 8 4 7 B G %.*.*.%.*.#X#X$X#XP P %.*.P P P K P @X@X*.@X@X@X#X#X@X#X#X#XP D & % 8 z / 9.5.0.Z.3XaXeX7XW.u.^ E K P %.%.P P P K K #X| K G G D ",
"K { { D Z V * i $ X O 6 : 1 H %.$X$X#X$X$X$X$X$X#XP P P P P P P K %.#X#X@X@X@X#X@X#X#X$X*.K %.J N - 4 6 $ r y u.*X6XaX X{.y./ ! ' %.P P P P P P K | #X@X@X@X| K ",
"K H A , = % = = # X X - B H %.#X$X$X$X$X$X$X#X$X$X#XP J K P %.*.*.=.@X@X#X$X$X$X#X#X#X@X%.K K G V 7 6 6 @ @ r r.Z.8X-X~.z.r.Y &.#X#X%.K K K %.*.| | @X@X#X#X@XK ",
"V B < @ = , 1 1 B 1 , N H #X#X#X$X$X$X$X#X@X@X#X$X$X#X%.P *.#X#X#X#X@X@X@X#X$X#X$X#X#X@X@X%.K K G 1 : 4 o # C T n.V.z.k.V.n...[ &.$X#X%.%.*.@X#X#X$X@X@X#X#X@X| ",
"@ X # X 1 H } | %.K J J %.$X$X$X$X*.#X#X#X%.P #X$X$X$X$X$X$X$X$X$X$X$X@X*.@X#X#X#X#X#X$X$X$X#X$X@XH 1 = . : A _ ( t.6.t.&X&XM.( Q #X$X$X$X$X$X$X$X$X$X@X@X#X@XK ",
", , N V D { @X$X@X@X%.{ @X$X$X$X#X*.*.%.$X$X#X%.*.$X$X$X$X$X$X$X$X#X@X@X@X*.| | *.#X#X$X#X*.#X$X@X%.H , # = , B I 7.d.l._.S.b.Y _ $X$X$X$X$X$X$X$X@X@X@X@XK J J ",
"Z D H K { | @X@X$X@X*.%.@X#X#X@X*.*.*.*.#X$X#X*.@X$X$X$X$X@X@X$X$X@X*.#X$X*.*.*.*.#X#X$X#X%.*.#X#X@XK D & X % = i 0.c.(.A.i.T _ %.$X$X$X$X@X@X$X$X@X@X$X$X@XK J ",
"{ | $X$X@X@X| @X$X@XK | %.%.| | *.$X$X$X#XP P #X$X@X$X$X$X*.*.@X#X$X$X$X$X#X$X$X$X$X#X$X#X*.*.@X$X*.K H 1 % o @ p t.!.].z./ S *.$X@X$X$X$X*.*.@X#X#X$X$X$X@X@XK ",
"{ | #X#X@X@X@X@X@X@X| | @X$X*.| @X#X@X*.@X@X#X#X*.*.$X$X$X@X*.$X$X$X@X| @X$X$X$X#X@X#X#X@X*.@X@X@X@X*.J 1 X o @ p 0.{.{.g./ S %.@X*.#X$X$X@X*.#X$X$X#X*.@X$X@X*.",
"K { @X#X@X@X$X@X@X@X#X| @X$X$X#X#X#X*.| *.$X$X@X%.%.@X$X$X@X@X#X$X$X@XK { $X$X$X@X@X@X@X@X@X#X#X@X#X@XH , O O @ p 0.x.R.g./ E &.%.*.#X$X$X@X@X$X$X#X@X| K $X@XK ",
"K { | | @X$X$X$X$X$X$X$X| *.$X@X#X$X#X#X#X@X*.P *.@X@X@X$X#X#X$X@X@X@X@X@X$X@X*.@X*.*.*.#X$X$X$X$X$X$X| B O 4 9 f 0.x.{.g./ U J *.@X*.#X$X$X#X$X#X@X*.@X$X$XK J ",
"K K | | | $X#X#X$X$X$X#X| | $X$X$X$X#X#X$X@X*.P *.@X*.*.@X*.@X$X$X$X@X@X$X$X| | @X*.{ %.*.#X#X$X$X$X#X| F 1 % > f q.R.{.R./ U _ @X#X*.%.*.*.@X$X$X#X@X@X$X$XK G ",
"K K K K | @X| #X$X$X#X| | #X$X$X#X#X@X#X$X$X@X*.@X#X@X%.%.%.@X#X$X$X@X@X$X$X@X%.#X*.{ K %.@X*.@X$X$X@X| | G , : p t.v.{.k.) E { @X#X@X%.%.%.*.#X$X$X@X$X$X$XK J ",
"| { K | K K @X#X#X#X#X@X| @X#X@X%.%.%.*.$X$X$X@X#X$X$X$X@X#X#X@XK | $X$X$X@X#X$X$X*.K { %.P *.@X#X$X@X@X@X%.H 1 > f u.k.) ~ { *.#X$X$X$X@X$X$X@X{ | $X$X$X@X@XK ",
"J J K K K K | | | K | | | | | | K } %.%.*.*.*.@X*.*.@X@X*.@X@X%.J K @XK K K *.@X*.%.K { K %.K | | K | | %.| K D C > f k Y _ P %.*.*.@X@X%.*.@X%.J K | | K K K J ",
"G H J K | | K K K H K K K K K K *.| *.%.J J K *.%.K K K K P P %.J J K J G J J { { J K K | %.K K J J J K K K J J A = $ u S H P %.P K K P %.K %.%.J H { J G J H G "
};
