/* XPM */
static char *__resized[] = {
/* columns rows colors chars-per-pixel */
"80 80 239 2 ",
"   c #1A0F3A",
".  c #263C2B",
"X  c #232E37",
"o  c #283938",
"O  c #2C4A1E",
"+  c #2E5119",
"@  c #32591D",
"#  c #37631B",
"$  c #39651C",
"%  c #3C6C1D",
"&  c #3F711E",
"*  c #2C472A",
"=  c #314D2C",
"-  c #2F5022",
";  c #325523",
":  c #355B24",
">  c #33552C",
",  c #365A2A",
"<  c #385D2A",
"1  c #2D4335",
"2  c #2E4A37",
"3  c #2D443B",
"4  c #314B35",
"5  c #324B3C",
"6  c #355434",
"7  c #385936",
"8  c #3A6423",
"9  c #396325",
"0  c #3D6B23",
"q  c #3D652B",
"w  c #3F7120",
"e  c #3C6134",
"r  c #41751F",
"t  c #43791F",
"y  c #405E3D",
"u  c #426D2A",
"i  c #427521",
"p  c #457C21",
"a  c #45732A",
"s  c #487A29",
"d  c #497B2B",
"f  c #466A37",
"g  c #4C7536",
"h  c #527B3B",
"j  c #1E1641",
"k  c #221C49",
"l  c #25214E",
"z  c #2C3B47",
"x  c #292857",
"c  c #2E3D57",
"v  c #323869",
"b  c #333A69",
"n  c #2E4345",
"m  c #344946",
"M  c #354B4C",
"N  c #395445",
"B  c #2F4656",
"V  c #364C54",
"C  c #35475A",
"Z  c #3A5458",
"A  c #364667",
"S  c #394C64",
"D  c #3A4C6C",
"F  c #3D5469",
"G  c #394475",
"H  c #3B4C73",
"J  c #3B4979",
"K  c #3D5274",
"L  c #3F517B",
"P  c #43574E",
"I  c #496546",
"U  c #526F4C",
"Y  c #567C42",
"T  c #577849",
"R  c #5B7854",
"E  c #617F56",
"W  c #415470",
"Q  c #42597B",
"!  c #4F646F",
"~  c #697E6C",
"^  c #46821E",
"/  c #478022",
"(  c #498423",
")  c #4C8924",
"_  c #4D842A",
"`  c #4F892A",
"'  c #50842F",
"]  c #568638",
"[  c #5C8347",
"{  c #648B4F",
"}  c #628453",
"|  c #68895A",
" . c #6C9259",
".. c #6D8965",
"X. c #738D6A",
"o. c #728C6E",
"O. c #759468",
"+. c #7C9775",
"@. c #809A79",
"#. c #829C7C",
"$. c #87A27E",
"%. c #3D4C83",
"&. c #3D5286",
"*. c #404E82",
"=. c #415384",
"-. c #465C85",
";. c #43568A",
":. c #465C8B",
">. c #495E93",
",. c #485C96",
"<. c #49638A",
"1. c #5B6786",
"2. c #4B6294",
"3. c #4D6997",
"4. c #4C639B",
"5. c #536A9B",
"6. c #547697",
"7. c #6E798D",
"8. c #4E67A3",
"9. c #5066A5",
"0. c #526CA4",
"q. c #546EAA",
"w. c #4F71A9",
"e. c #5672AB",
"r. c #5775AB",
"t. c #5776B2",
"y. c #5875B2",
"u. c #5B7BB5",
"i. c #5D7DBA",
"p. c #667DB2",
"a. c #5A829C",
"s. c #7A8C89",
"d. c #5F85AA",
"f. c #5E81B9",
"g. c #6486B8",
"h. c #6082BD",
"j. c #6E91B8",
"k. c #6285C2",
"l. c #658AC5",
"z. c #698CC7",
"x. c #668CC9",
"c. c #688FCB",
"v. c #6991CD",
"b. c #6C99C8",
"n. c #709FC8",
"m. c #6C95D3",
"M. c #6D95D6",
"N. c #6E99D6",
"B. c #6F9BD8",
"V. c #709BD7",
"C. c #719EDB",
"Z. c #72A4CA",
"A. c #76ABD4",
"S. c #73A1DE",
"D. c #7CB4D9",
"F. c #75A5E2",
"G. c #78A7E5",
"H. c #77A8E5",
"J. c #78AAE6",
"K. c #7AADEA",
"L. c #7EB2E7",
"P. c #7DB2ED",
"I. c #7EB5F1",
"U. c #869C86",
"Y. c #87969A",
"T. c #8BA386",
"R. c #92A98D",
"E. c #8FA494",
"W. c #95AB93",
"Q. c #97AA97",
"!. c #9DB39B",
"~. c #A2B49E",
"^. c #8E99B6",
"/. c #9BABA4",
"(. c #A0AFA9",
"). c #A4B7A7",
"_. c #ABBCAC",
"`. c #AEBCB5",
"'. c #B1BFB7",
"]. c #AEC0B3",
"[. c #B5C5B9",
"{. c #C0CBBF",
"}. c #80BCDD",
"|. c #AFB8C8",
" X c #81BBE9",
".X c #80B7F3",
"XX c #82BAF4",
"oX c #84BEF9",
"OX c #BBC9C3",
"+X c #87C7E7",
"@X c #90D5EB",
"#X c #88C6F7",
"$X c #86C3FE",
"%X c #88C6FF",
"&X c #8ACBFF",
"*X c #8ED1F6",
"=X c #8ED1FF",
"-X c #94DCF2",
";X c #90D5FF",
":X c #93DBFF",
">X c #9BE7F6",
",X c #95E5FF",
"<X c #99E6FE",
"1X c #97E9FF",
"2X c #9BEBFF",
"3X c #97F1FF",
"4X c #9EF2FE",
"5X c #A3EDFF",
"6X c #A8EFFF",
"7X c #A2F3FE",
"8X c #ADF2FF",
"9X c #A5FAFE",
"0X c #AAFBFD",
"qX c #B2F4FF",
"wX c #B8F8FF",
"eX c #BDF9FF",
"rX c #C1CEC9",
"tX c #C6D2C7",
"yX c #C5D3CB",
"uX c #C2CCD7",
"iX c #CBD7D5",
"pX c #D2DBD6",
"aX c #D4DEDC",
"sX c #D8E2DD",
"dX c #D3DDE2",
"fX c #D9E4E5",
"gX c #DCE5E4",
"hX c #C3FBFF",
"jX c #CBFEFF",
"kX c #D2FFFF",
"lX c #E4E9E7",
"zX c #E3EBEB",
"xX c #EBF0EE",
"cX c #E8EEF1",
"vX c #ECF2F3",
"bX c #EDF5F9",
"nX c #F3F6F5",
"mX c #F4F8FA",
"MX c #FCFEFE",
/* pixels */
"+ # r % r % r r r % % r i r t r & & p t & & & / t & t t & % % & % @ . X X X . X X X o * @ % & & & & % & p i r r & r r r % % r i p r r r r % % r % r i & % p % @ ",
"$ % r r r p r % r % r p i t r & & w & & % & t & w & & & & & p & 0 7 Z F H D S S A H D M > 8 % $ % $ $ & % % % r r r i r % r r r i % r % % i p p p p r % r p r $ ",
"t t r t p p r r r r p / p p p i w p w w & t p w w & & w w ( ( p e Z 6.d.j.f.u.r.y.i.u.<.Z , @ + ; ; : 9 > : 8 % r p i % r i p i i r % r i / ) ) ) / r & r p t t ",
"r t ( ) ( p i t t r r p ( ) ) ) ( / w w p ) ) ( ( / ( ( / / 0 - Z 3.Z.+X+X}.D.S.S.J.J.g.! B o o o 3 z n n n > i / / r % p ( ) ( / / / ( / / ( ( ( ( / i p p t % ",
"r r p p ) ) ( p ( t p ( ) ) ) ( ( ( / p p p i r w w p p r 0 , M 3.n.@X>X4X>X,X*X#X&X#XS.f.-.H D L K H J =.L Z e p ( / ( ( ) ) ) ) ( ) ) / p p p p p ) p p / p r ",
"r r r r p ) ) ) ( ( ( ( ) ( p p / ) ) ( 0 , > > , , > , ; = N <.Z.-X2X9X0X9X9X2X<X,X-X#XS.l.i.i.f.u.y.y.i.y.-.Z > w ) ) ) ) ) ) ) ) ) ) / p p p r r ( ) ) p r p ",
"% % r p p p p p p t i i i p ( ( ) ( p 0 4 M A C B B c z z C <.n.@X7X2X7X7X4X4X2X,X:X&X#XXXP.L.K.K.S.m.v.M.m.y.;.C < % i p p / / ( ) ) ( ) p p p % % p ) ) p % $ ",
"% r r t p p r i & & & w & & p ( ( i q 7 Z :.5.2.<.2.<.;.=.3.j.+X>X9X2X1X>X2X2X2X2X;X=X&X&X&X=X&X&XXXP.H.G.F.c.y.:.V > 0 & p i i p ) ) ) ) p / ( p t ) ) ) i $ $ ",
"& & w / ^ & w & w & & & & & & w i 8 7 F a.Z.D.A.Z.Z.Z.n.n.Z.+X,X4X4X1X1X,X2X2X2X2X,X:X;X;X;X;X;X;X&X$XI.P.G.B.m.i.-.V < w i i & i ( ) ) ) ) ) ) ( ( ) ) ( & % % ",
"% & w p p w & w & & & & p p w / w = Z 6.Z.@X>X>X-X-X-X>X@X-X>X2X4X4X1X>X<X2X2X2X2X2X2X,X;X&X&X%X&X&X&X#XP.G.F.F.m.u.-.Z e w p ( ) ) ) ) ( ( ( ( p i i / ) / p r ",
"& & p ^ ( ^ w w i i p i & / ) ) i * A r.D.7X0X0X4X4X4X4X4X9X7X7X6X6X7X7X2X,X,X,X2X3X2X<X;X&XoX$X%X&X&X$XI.P.H.J.F.M.t.;.Z e w ( ) ) ) ( p p / ( i % % / ) ( p t ",
"t & w ) ) ) p p / ) ) ) ) ) ) ) & * A e.D.>X0X0X9X4X4X3X3X4X7XqXeXhXeXqX5X,X,X,X1X2X2X<X=X$X$X$X$X&X&X%X$XXXL.H.F.B.c.t.-.M > w ( ) ) / r / ) ) i % & / ) i r r ",
"& & & ( ) ) ) / w p ( ) / ( ) / # 2 W d. X>X9X4X4X4X2X7X2X7X8XeXjXkXjXhX8X5X5X>X2X5X2X<X;X&X$X$X%X%X%X%X&X&XXXP.H.H.F.M.u.-.V 7 i ( ` ( / ) ) ) ( p ( ) ) p r % ",
"% & w ^ ( ) ) ( w w p ) / & w 9 6 W a.D.@X>X4X1X1X4X8X8X8X8XwXjXkXkXkXhXeX8X8X8XqX7X2X,X,X;X&X%X$X$X$X&X&X&X$XI.P.K.H.F.M.t.-.Z 7 i / ) ) ) ) ( ( ) ) ) ( / p & ",
"& & ) ) ) ) ( ( ) ^ p ( ) w 8 2 S 6.D.-X,X1X2X,X2X8XwXhXhXhXhXjXjXkXjXjXhXeXhXhXeXqX5X,X,X,X=X&X$X$X$X%X&X%X%X$XXXP.H.F.S.c.r.<.Z > u / ) ) ) / p p / / / ( p i ",
"& p ) / ( ) ) ( ) ) ( / w 9 6 ! a.D.-X9X4X>X<X2X6XwXhXjXjXjXjXjXjXjXjXjXjXkXjXjXeXqX5X2X1X2X,X;X&X&X$X%X%X%X&X&X#X.XF.S.F.F.c.q.H 1 8 i p / ( ( ( / ( ( ( ) / t ",
"& / ) & / ) ) ( ( ) / % : N ! d.D.,X7X9X7X2X5X8XwXhXkXkXkXkXkXjXjXhXjXjXkXkXjXhXqX6X2X1X2X2X<X,X=X=X%X$X$X%X&X&X&XP.F.C.J.H.m.i.=.3 < w i p ^ ) ) ) ) ) ) ) p t ",
"^ & p & & / p / ( p $ : 1 F d.}.>X4X4X2X1X2X6XwXhXkXjXjXjXjXjXjXjXjXjXkXkXjXeX8X2X<X2X2X2X2X2X2X,X;X&X$X$X%X&X&X#XI.F.F.H.S.c.q.L 2 0 / ) ) ) ) ) ) ) t t ( / t ",
"& w ( & t & w / p i $ ; z L b.@X9X9X4X,X,X>XqXhXkXkXjXhXjXhXjXjXjXkXjXjXjXeX8X5X<X,X,X2X2X2X2X7X2X:X=X$X$X%X&X&X%XI.P.K.K.S.l.q.K 2 0 / / ( ( ) / t / i r i i t ",
"& / ) / / p / w i i w : n &.n.-X9X9X5X,X,X5XqXhXkXkXjXjXjXjXjXjXjXkXjXjXeX6X5X2X,X1X2X<X2X2X2X4X2X:X&X$X$X$X$X$X&X#XI.I.I.F.l.9.K 5 0 p i / ( ( t & / / i r r r ",
"i p / ) ) ) ( / / i % - z L l.@X7X7X4X,X,X2X8XeXjXjXjXjXjXjXhXjXjXjXjXeX8X2X2X1X1X2X<X2X2X2X2X2X2X:X&X$X$X$X$X&X%X%X%X$XoXG.k.9.K 2 0 / ) ) ( ( p / ) ) ) p t t ",
"& p ( ) ) ( ( ) ) ( & : o K g. X<X7X2X2X1X2X5X8XeXjXjXkXkXjXjXeXwXwXwX8X5X,X,X,X2X2X<X2X2X2X2X2X2X:X=X$X$X%X&X$X%X=X&X%XoXG.k.9.S 2 0 p ( ( / 0 9 0 t ) ) ( t r ",
"& ^ ) ( / ( ( ( ) ) s 9 m H h.P.;X2X4X2X1X2X2X5X8XeXjXkXkXjXhXqX5X5X6X5X2X,X,X,X<X2X2X2X2X2X2X2X2X:X=X$X$X$X&X$X%X=X&X%XoXG.k.8.D * 8 & w w 8 = 3 5 9 s ) / t t ",
"t i p / ) ) / / / ( p 9 3 H u.K.;X<X2X2X2X2X1X,X2X8XeXjXjXhXqX5X2X,X,X2X2X2X2X2X2X2X<X2X2X2X2X2X,X=X&X$X$X$X$X&X%X%X&X$XI.F.l.t.L n , 0 w % 7 Z Q F 6 0 / ( t & ",
"& t / ( ( / / ^ / ( w 9 o A u.G.=X<X2X4X2X2X1X,X2X5X8XwXwXqX5X2X,X,X,X1X1X<X2X2X<X2X2X2X2X2X<X:X:X&X&X$X$X%X%X%X%X&X&X$XI.F.m.l.5.F N = > * M <.0.5.Z 7 % t t r ",
"& p ) ) p w w p w / % - o A u.K.=X<X2X2X2X2X2X,X2X2X5X5X5X5X5X2X1X1X2X,X1X2X<X2X2X2X2X2X2X2X,X;X&X%X$X$X%X$X%X%X%X&X#X$XI.F.B.C.z.5.K z X z K r.l.h.:.V ; u r r ",
"& p / / w & $ # 8 8 9 = Z 3.m.I.;X:X<X2X2X2X2X2X2X2X,X1X,X1X,X1X1X<X2X2X<X2X2X2X2X4X2X2X2X,X;X&X$X$X$X%X%X%X%X%X%X&X&X$XP.F.S.J.C.l.0.:.&.4.t.m.C.M.i.:.V e 0 % ",
"r p ( / ^ w : = 2 2 5 Z 6.z.L.#X&X&X;X:X<X2X7X2X1X,X1X,X1X,X1X2X2X2X2X<X2X2X2X2X2X4X2X2X,X;X&X%X$X$X$X%X%X%X%X%X&X&X&X$XP.F.C.H.F.B.x.h.l.M.S.F.F.F.V.u.-.Z 7 ; ",
"& p ) ) ( s e V H A G 3.b.XX*X&X$X$X%X;X:X<X2X2X2X2X2X2X1X2X2X2X2X2X2X2X2X2X2X2X1X3X1X,X;X&X$X$X%X$X%X%X%X%X%X%X&X&X&XoXP.F.C.C.S.N.N.S.L..X.XP.F.F.F.m.y.;.M * ",
"% r / ( w > Z <.u.t.g.n. X*X;X&X$X$X$X&X;X:X<X2X2X2X2X2X2X2X2X2X2X2X2X2X2X2X,X,X:X,X,X=X&X$X$X$X%X%X%X%X%X%X%X%X%X$XXXI.J.S.C.B.C.F.K..X#X;X&X#XI.K.K.C.k.,.c . ",
"& t p w 7 V 2.c.P.}.+X+X&X=X&X&X$X$X$X$X&X=X:X<X2X2X2X2X2X2X2X2X2X2X2X2X2X2X,X;X=X&X=X&X&X%X$X$X%X%X%X%X%X%X&X&X$XXXL.H.S.C.B.B.S.J..X%X=X;X&X&XoXoX.XS.i.,.C . ",
"r t s < Z 4.c.I.,X2X2X>X;X&X$X%X%X%X$X$X$X%X=X:X1X2X2X,X1X,X<X<X<X<X<X2X2X<X:X&X$X$X$X$X%X%X%X%X%X%X%X%X%X%X&X&X%XP.F.C.B.C.C.B.S.K.oX&X&X%X%X%X$XoXI.B.y.,.B * ",
"$ 8 7 Z 3.x. X:X7X9X9X2X;X&X$X$X&X&X%X$X$X%X&X;X:X:X:X:X:X:X:X:X;X:X:X:X:X;X;X&X$X$X$X$X$X$X%X%X%X%X%X%X%X%X&X&X$XP.S.C.B.B.S.N.S.L.$X&X=X&X$X#XI.I.I.F.k.,.S . ",
"+ = V <.l. X;X<X4X9X7X2X=X&X$X$X%X%X%X%X$X%X%X&X&X=X&X&X&X&X&X&X&X&X&X&X=X&X&X%X$X$X$X$X$X%X%X%X%X%X%X%X%X%X&X&X$XI.F.B.B.C.C.N.S.J.#X&X=X&X#XI.K.H.K.B.i.<.B . ",
"+ 3 G i.L.;X>X2X2X2X<X;X=X&XoXoXoX#X%X&X%X%X%X$X$X$X$X%X$X$X$X$X%X%X$X$X$X$X%X%X$X%X%X%X%X%X%X%X%X%X%X%X%X%X&X&X#XI.J.C.B.B.C.B.S.J..XoX#XoXI.K.C.N.N.f.3.F 2 O ",
"+ o G i. X:X<X:X:X=X;X=X&X%XXXI.P.XX%X&X&X%X$X%X$X$X$X$X$X$X$X$X$X$X$X$X$X$X$X$X%X%X%X%X%X%X%X%X%X%X%X%X%X%X&X&X&XI.J.S.C.B.S.C.C.G.K.K.I.P.K.J.V.c.i.3.F N , @ ",
"- 1 A y.J.*X=X=X&X&X&X&X&X#XP.H.G.P.#X%X%X%X%X%X$X%X%X$X%X%X%X$X$X$X%X$X%X%X$X%X%X%X%X%X%X%X%X%X%X%X%X%X%X%X&X&X$XI.A.S.B.B.S.S.C.F.F.F.F.F.G.K.C.l.0.D 5 q % # ",
"+ 3 A e.C.oX&X&X&X$X&X$X$XI.G.C.C.G.I.#X%X&X&X&X&X%X%X%X%X%X%X%X%X%X%X%X%X%X%X%X%X%X%X%X%X%X%X%X%X%X%X%X&X&X&X$XXXK.F.B.C.S.S.C.S.C.V.V.N.M.F.K.S.x.9.S = i t t ",
"@ 1 A 8.c.K.$X&X&X&X&XXXI.J.C.C.C.C.G.I.oX&X&X&X&X%X%X%X%X%X%X%X%X%X%X%X%X%X%X%X%X%X%X%X%X%X%X%X%X%X%X%X&X&X$XI.J.S.S.S.B.C.B.S.C.C.C.C.V.V.F.K.F.x.9.A 1 0 & t ",
"O 3 A 8.x.F.I.$X&X&X%XXXJ.F.C.V.C.B.C.G..X%X&X#X$X%X%X%X%X%X%X%X%X%X%X%X%X%X%X%X$X%X%X%X%X%X%X%X%X%X%X&X&X$XI.J.S.S.S.S.S.S.B.S.C.C.C.C.C.C.F.F.m.u.2.C * 0 & & ",
"O o G q.M.J..X.X.XoXoX.X.XF.F.C.C.m.C.F.I.oXoX.X.XoX%X&X&X&X&X%X%X%X%X%X%X%X%X%X%X%X%X%X%X%X%X&X&X&X&X%X$X.XJ.S.V.S.H.H.F.S.S.S.C.S.C.S.G.C.V.v.r.<.Z 6 0 p p % ",
"- 3 A 5.c.S.G.G.G.G.K.G.F.C.S.S.C.C.C.C.F.J.G.F.J..X#X%X&X&X%X%X%X%X%X%X%X$X%X%X$X%X%X%X%X%X%X%X&X&X&X$XI.J.S.C.V.S.S.S.S.S.C.C.C.C.S.S.G.S.v.i.Q V 6 8 r / p r ",
"@ = V <.u.m.S.F.C.M.c.l.z.c.M.C.F.F.C.m.c.z.l.m.F..XoX$X#XoX$X$X%X&X%X%X&X%X$X&X%X&X&X$X%X%X%X$X#XoX#XI.K.F.C.S.S.m.c.x.v.V.S.S.C.S.C.S.J.F.c.0.D 1 : $ r p p t ",
"$ 8 7 Z -.y.M.F.S.z.e.4.9.e.z.C.K.I.F.k.0.4.e.v.K.oXoX.X.XK.XX$X&X&X&X&X&X&X&X&X&X&X&X&X=X&X$XI.P.K.P.K.J.J.K.P.F.l.0.3.u.v.F.S.S.S.C.F.J.S.c.q.A 1 0 % p p t % ",
"% % u 6 V :.i.M.v.r.-.G A Q 0.z.G.K.F.h.>.=.,.k.C.K.F.F.S.G..XoX&X&X%X%X#X%X#X&X%X#X#X&X&X&XXXP.G.F.F.F.S.C.F.F.N.t.:.;.e.v.H.F.S.C.C.F.J.S.c.q.D 3 0 i p / t % ",
"r r r @ 4 S 0.i.u.-.C o z V Q r.v.F.C.l.0.;.:.e.i.h.i.k.c.C..X.XoX#XoX.XXX.XXXXXXXXXXXXXXXXXP.H.C.F.C.B.v.l.h.h.u.4.;.>.r.v.H.F.F.C.S.F.J.F.c.q.H z < p ( p t p ",
"% r r $ < M Q 4.>.W m = = 5 V Q q.l.V.C.c.u.4.>.,.*.,.q.x.G..X.X.XI.K.J.J.J.J.J.K.J.J.K.J.J.J.H.G.K.K.B.k.0.;.&.;.2.0.f.c.C.F.S.S.C.C.F.J.S.c.0.H z 6 a s t % $ ",
"% % r i u 7 V S S m 6 < : 6 m A :.u.V.K.K.N.u.>.b v b ;.y.M.F.B.C.S.F.F.F.S.S.S.S.S.S.S.F.F.S.S.B.F.C.l.4.%.v v L 0.l.C.S.S.S.S.C.C.C.F.J.G.v.q.J B 5 a p r % # ",
"% r r t r @ = o o 6 , 8 8 , o c %.y.C..XoXG.c.e.&.x x v *.9.y.q.u.c.C.F.F.C.B.B.B.B.B.B.F.F.M.l.u.u.r.>.G x x b ,.p.C.K.K.F.B.C.C.S.C.F.K.H.v.e.%.C N f p 0 % % ",
"% r r t r r @ ; * 6 , ; 8 < 5 c &.u.C.P.K.G.S.M.y.%.x x v b Q *.4.u.N.G.G.C.B.B.C.B.C.F.G.F.c.q.;.%.J b x x b 4.k.S.F.G.F.S.C.C.C.C.C.F.K.H.v.w.J c m q p p p r ",
"r r t t ( s u f I f q u u < 5 P K 5.l.B.S.F.J.K.m.q.J v l l l x G 2.i.m.S.C.B.C.C.S.S.S.B.c.q.=.v l l x l b ,.h.C.K.F.C.S.F.F.F.F.F.F.F.F.N.f.2.S z 4 q i s t t ",
"r r t ) ) ' T X.@.Y s ( i 8 6 N Z Q 0.k.v.S.K.K.F.c.9.Q x j   j x b ;.t.c.C.F.F.S.F.F.M.f.0.%.v k     l b >.i.M.F.K.F.C.F.G.G.K.K.K.K.G.M.u.2.C 3 1 6 u i r r r ",
"r r t p ) `  .E.~.{ t p u 8 u 7 6 V K 8.k.C.K.G.F.F.m.r.*.x k l x v b ,.h.V.G.G.F.G.F.c.e.&.b x x k k v ,.k.C.F.F.F.F.C.C.C.C.C.S.F.G.M.u.:.D N 6 q f q i r r % ",
"# r t t ^ `  .$.Q.E h [ Y U f u ; . c &.i.F.K.F.F.K.G.m.e.*.b W J J %.8.f.V.F.G.S.F.F.c.t.:.J J Q b W ,.i.C..XG.F.G.F.S.M.z.k.l.l.c.c.i.:.C M P U g a a p p r r ",
"r r t ) ` ` _ d Y E @.W./.U.R a 9 . x &.i.F.I.G.F.F.G.V.l.y.0.r.e.e.e.i.c.C.S.F.S.F.F.m.k.t.e.e.q.q.e.p.c.S..X.XJ.I.K.S.k.q.,.9.8.w.w.<.B 2 I ~ o.| a i p ( p t ",
"$ r s s s p t r h #.'.pXgXrX#.T e m K 9.h.M.F.F.F.F.F.S.C.V.V.V.V.V.N.V.C.S.S.S.C.S.S.C.B.B.B.B.B.B.V.V.S.F.C.B.B.S.C.z.0.L C b A G G B n 6 E ).OX).[ i p p i u ",
"0 g { |  . .{ [ O.[.cXMXMXzX).+...7.s.z.p.h.x.C.F.G.G.F.K.K.K.I.P.K.J.J.G.F.F.C.S.S.F.F.H.K.K.I.I.I.K.K.J.G.m.z.f.k.f.e.K B o o o z o 3 7 U R.fXmXsXT. . . .h u ",
"u | ).iXiX[.].`.{.lXmXMXMXzXuX`.].uXuX|.p.9.9.v.H.P.K.F.F.G.H.K.K.J.G.F.G.G.F.S.S.F.F.H.F.F.H.H.K.J.J.G.K.G.m.y.,.,.,.&.Z 6 : , , > = 7 R E.yXnXMXvXaXyXtXtXT.U ",
"8 E ).yXyX'.`.`.`.'.'.tXgXvXzXlXgXfXOXY.! W *.u.M.B.M.B.S.F.S.M.V.V.F.S.V.m.M.C.S.B.m.m.B.F.S.B.M.C.F.F.F.c.q.Q A c B C M f f Y I g f | Q.iXzXsXOX_.'.OXiXtXU.T ",
"u T +.W.R.U.T.$.O.| | #.OXbXMXMXzX[.U.R I m C >.w.t.t.k.M.S.M.i.i.l.S.V.l.y.k.N.S.c.i.i.v.F.M.h.t.x.B.S.c.w.W z 3 . . 5 I ~ +.+.U.U.+.!.dXbXlX_.X.} X.T.W.E.| f ",
"r a d ] ] ] ] ] ' d u T (.gXMXnXuX+.T a u 7 Z D %.%.&.5.z.N.l.2.>.y.V.z.e.:.0.l.m.f.2.2.f.B.k.0.;.r.v.N.i.,.c m , < , y ..(.dXfXaXiXiXgXnXvX[. .] ` ] ] ] ] d s ",
"r t ^ ( ^ / ^ ^ ( p p d O.).gXbXaX/.E e u 9 6 V C b A K 8.t.3.F D <.g.y.<.A -.r.f.3.S S <.t.3.K A &.r.z.h.1.! R U f g | (.dXcXyX_.~.!.)._.).#.g s ( ^ ^ ^ t t t ",
"r s ) ( / ( / ) ) ) ) ) d  ._.gXbXiXE.T u : ; 6 N 5 5 V H %.K m M W 4.-.W M Z -.2.F 5 n B &.S m 4 B Q p.j.^./.E.+.+.+.Q.aXcXiX$.Y g g h Y T g u p t t ) ) ( p t ",
"t t p ( ) ) ( / p ( ) ( ) '  .).gXnXsX).~ f 9 q q < > 7 S W Z 5 > N D C 7 e 7 C A Z 7 7 Z K S N < 5 V <.^.uXgXgXaXaXsXgXnXgX_.{ u r u s s s i i % t p / / p t r ",
"r t ( ( ( ( p p p / p p / ( d O.).zXmXfX).o.f d i 8 9 7 ! ~ ! 7 - 4 M m 7 9 < 4 m Z U ~ o.7.7.~ R P m P Y.iXMXMXMXMXMXMXMXxXOX$. .[ Y g i & & & % i / / p / t % ",
"r r ) ) p r p p s p t r / ( / d  .[.lXmXzX~.[ d p i 9 I s.^.Y.I : > 6 6 < 0 9 < 7 R U.).|.|.|.`.E.U 6 7 s.|.nXMXnXnXnXnXmXnXlXOX(.R.T.X.g u & r % r / / p / t r ",
"r t ( t r % r r ) ) ) ( ) ( p / '  .).lXnXtX$.] ^ ( f o.'.dX'.~ f : 0 q f f f f U U.OXlXvXcXxXcXiXU.I I U.iXvXaX_._._._._.].[._.OXsXgX{.U.Y % i 0 i p p ( ) p t ",
"r t ( ( p p r p ) ) ) / ( ( ( ) ) s  .).xXsXW.[ ^ ` ..(.gXbXgX_...a p w g o.+.U.Q.rXbXMXMXMXMXMXcX_.#.#.[.gXaX).@.| @.X.....O.+.!.tXnXvXtXR.O.@.O.[ s p ( ( / t ",
"r p ) ) ) ) ( ) ) ( p i ( ) ) ) ) ( s | tXyXW.] t ] ).dXbXbXbXgXW.[ ) i [ `.iXdXfXzXvXnXnXnXmXbXcXuXOXyXcXlX].O.d d d s i a u p ] O.tXxXvXpXiXsX].+.h p p / t & ",
"% r / ) ( p ( ) ( ( p p / ) ) ( / t 0 g +.#.| g h $.iXmXMXMXMXmXOXU.h h #.fXcXpX_.!.Q.!.R.Q.[.aXbXxXxXxXaX). .' p p t t p ) p t r ] +.).[.'.OXyX)...a t / t & % ",
"& r ( ) / t p ( / p p p p ) ( t s ] } } h g g R T.tXcXMXMXMXMXmXzX[.@.T.[.zXpX!.X.} [ [ [ T +.[.mXMXMXlX).| _ t t p p p ) ) p p t s h { +.+.+.T.O.Y s / ) p & % ",
"r ^ ) ) ( p p / ) p r r t p t r h +.(.!.[ % g Q.iXvXcXzXgXgXzXlXgXfXiXgXxXfXQ.] _ _ ` ` ( s Y R.lXmXlX'...a r s p ) ) ) p r r ) ) t ( ) ` s d _ _ ( ) ) ) ( / t ",
"r t / ( / p / / / ( t r p ( / t ' $.OXpX+.E #.tXnXgX~.$.$.T.$.$.~.tXbXMXmXaX$.g p ^ ^ ( ^ t d } U.!.R.X.T Y } | { d p p ( p ( ( / t / ( ( t t ^ ( ) ^ t p ) / t ",
"r r / p / / ) ( p ( / p / ( ) ^ ' +.tXvX_.).[.xXgX_.| g ' g d g | W.sXMXMXaXT.g s p / / p / s d h h Y g E @.~._.Q.E a t p ) ) p t p / ) ) ( ( ) ) ( / t & ) / & ",
"r r p p ( ) ) ) ) ) ) ) p t ) p h @.tXmXzXfXsXfX).} d ( ` ) ( ` d } ~.aXmXfXU.g / / p p ( ) ) ) ) ` _ d  .~.lXxX{.@.h s ( p t t t / / ( ) ) ( ) ( / p / ( ) p % ",
"% r r t p ) ( ( ) ) ( / t t d  .R.tXxXvX[.W.T.#.| s t t p t p ) ( d | ~.pXaXE.g ( t i i p ( ( ) ) ) ^ s h O.W.!.$.@.@.O.h s t t p ( p p p p p ) ) ( / / ) ) & # ",
"r r r & i p p ( ) ) / t p s h T.iXnXxXOX+.h s a s s p p t t p ( ( / s  .).aXQ.Y _ p % r r p p / ) ) p t a a h g ] O.Q.Q.E d s p p ( p p p p p ( ) ) ( ( ) ) t $ ",
"r r % r i r t ( ( ( ( t i g ..!.yXsX_.X.] _ ( p p ( ) p p ) ( p t t ) [ T.fX).[ ` p & i i r p / ^ ) ( p p p p s a T U.). .h ) p ( ) ) ) p ( ( p r t ( ) ) / t r ",
"$ % r r r r r i t t i g ..#.#.+.+.@.} g i t p p p p p p p p p p % % p Y U.gX_.} s r % r i r r r t t t t t t t r r u E | h a t p p p p p p p p t % % p t r r & & ",
"# $ % r r i & % % $ % f W.'.U.R $ % 0 % $ % r p t r r r r r r t % $ p T E.zX`.T i & % r r r r r r $ $ r r r r r r r u r # $ r t t r r r r r i p % % r % # $ # # "
};
