/* XPM */
static char *__resized[] = {
/* columns rows colors chars-per-pixel */
"80 80 249 2 ",
"   c #0E1015",
".  c #1B1619",
"X  c #1A1818",
"o  c #231B1B",
"O  c #271A18",
"+  c #381C19",
"@  c #1D2615",
"#  c #1F3612",
"$  c #232A17",
"%  c #25241B",
"&  c #2A241E",
"*  c #242B19",
"=  c #292A19",
"-  c #382618",
";  c #2A321B",
":  c #283918",
">  c #353718",
",  c #1F1A20",
"<  c #251E24",
"1  c #2C2223",
"2  c #292226",
"3  c #322425",
"4  c #392726",
"5  c #3B2B2C",
"6  c #3D312C",
"7  c #373030",
"8  c #491D16",
"9  c #711F11",
"0  c #55390F",
"q  c #462619",
"w  c #582717",
"e  c #4A3715",
"r  c #593915",
"t  c #672B15",
"y  c #762A13",
"u  c #6B3414",
"i  c #663A15",
"p  c #783716",
"a  c #733B14",
"s  c #452A25",
"d  c #552A23",
"f  c #46322C",
"g  c #573427",
"h  c #422D33",
"j  c #493736",
"k  c #533D38",
"l  c #65372B",
"z  c #703B2B",
"x  c #2A4516",
"c  c #2B4319",
"v  c #2E4B19",
"b  c #344919",
"n  c #2E5319",
"m  c #325419",
"M  c #3C5418",
"N  c #355C1A",
"B  c #3C5C1A",
"V  c #37621B",
"C  c #3B641C",
"Z  c #3D6C1D",
"A  c #3F711E",
"S  c #3F7320",
"D  c #4C4315",
"F  c #484B17",
"G  c #574816",
"H  c #4A5117",
"J  c #435419",
"K  c #4C5318",
"L  c #435C1A",
"P  c #4B5C1A",
"I  c #535519",
"U  c #595418",
"Y  c #535B1A",
"T  c #5B5B19",
"R  c #6B4415",
"E  c #674817",
"W  c #774717",
"Q  c #675518",
"!  c #775817",
"~  c #43641B",
"^  c #4D641C",
"/  c #426C1D",
"(  c #4B6A1D",
")  c #54651C",
"_  c #41741F",
"`  c #49721F",
"'  c #43781F",
"]  c #6E631F",
"[  c #524221",
"{  c #58433C",
"}  c #79442A",
"|  c #664636",
" . c #6D4D34",
".. c #784533",
"X. c #427620",
"o. c #4A7620",
"O. c #457C21",
"+. c #497C21",
"@. c #493A43",
"#. c #4D4242",
"$. c #5A4745",
"%. c #6B534A",
"&. c #6A554A",
"*. c #725B53",
"=. c #786548",
"-. c #776657",
";. c #7B6D67",
":. c #89320F",
">. c #843314",
",. c #883916",
"<. c #8C3B14",
"1. c #973B16",
"2. c #933C16",
"3. c #813C21",
"4. c #8A4817",
"5. c #934315",
"6. c #9B4516",
"7. c #974918",
"8. c #9B4B19",
"9. c #8B5617",
"0. c #995418",
"q. c #A54617",
"w. c #AD4913",
"e. c #A44C19",
"r. c #AA4C1A",
"t. c #AB531A",
"y. c #A75818",
"u. c #B3531A",
"i. c #BA561A",
"p. c #B45B1B",
"a. c #BC5B1C",
"s. c #8A6418",
"d. c #996418",
"f. c #AA6418",
"g. c #B56A17",
"h. c #B4631A",
"j. c #BC631B",
"k. c #BB6A1A",
"l. c #AC7119",
"z. c #B87418",
"x. c #8E502B",
"c. c #874A33",
"v. c #875736",
"b. c #975935",
"n. c #A75831",
"m. c #906D32",
"M. c #976837",
"N. c #AE712D",
"B. c #A76A35",
"V. c #C45E18",
"C. c #C35C1D",
"Z. c #C46817",
"A. c #C4631D",
"S. c #CA641E",
"D. c #C56B1C",
"F. c #CA6C1D",
"G. c #D06C1A",
"H. c #C5731B",
"J. c #CD731D",
"K. c #C37B19",
"L. c #CC7B1C",
"P. c #D1751E",
"I. c #D47C1E",
"U. c #D97D1E",
"Y. c #CB6922",
"T. c #CD6A20",
"R. c #D16D20",
"E. c #CE7120",
"W. c #D47321",
"Q. c #D97422",
"!. c #D57B20",
"~. c #DA7C21",
"^. c #E17E22",
"/. c #815F4F",
"(. c #8A7053",
"). c #887567",
"_. c #478122",
"`. c #498423",
"'. c #4C8A24",
"]. c #B68234",
"[. c #CA841A",
"{. c #D5821D",
"}. c #D9841E",
"|. c #D58B1C",
" X c #DC8B1E",
".X c #DA951B",
"XX c #DE921D",
"oX c #E28E1F",
"OX c #E1941E",
"+X c #E5991B",
"@X c #E39B1D",
"#X c #E6A21D",
"$X c #E9A41E",
"%X c #E6A91D",
"&X c #EBAB1D",
"*X c #EEB21D",
"=X c #F3B71E",
"-X c #DB8321",
";X c #D78827",
":X c #DD8A21",
">X c #DB9323",
",X c #CF8F32",
"<X c #E18821",
"1X c #E39421",
"2X c #E59C22",
"3X c #E79B27",
"4X c #E49C35",
"5X c #DAA233",
"6X c #E7A525",
"7X c #E9A521",
"8X c #ECAB23",
"9X c #F1AC22",
"0X c #EDB224",
"qX c #EDB529",
"wX c #F2B725",
"eX c #F3BB2C",
"rX c #EAA836",
"tX c #F0AB36",
"yX c #ECB735",
"uX c #F3BC34",
"iX c #F8C42C",
"pX c #F5CC2F",
"aX c #F5C334",
"sX c #F8C737",
"dX c #F9CB3C",
"fX c #FDD23D",
"gX c #9A8C59",
"hX c #AA8848",
"jX c #B28F4D",
"kX c #9D8463",
"lX c #A69A65",
"zX c #B5AB69",
"xX c #B1AB6F",
"cX c #C59A4B",
"vX c #D4AA49",
"bX c #C9BA73",
"nX c #F8C943",
"mX c #FCD449",
"MX c #F8D451",
"NX c #FEE24E",
"BX c #E2D072",
"VX c #D7D494",
"CX c #E9DC80",
"ZX c #EDEA94",
"AX c #F1EEAC",
"SX c #FAFAC8",
"DX c #FEFDD8",
"FX c #FEFEE8",
"GX c #FEFEF9",
/* pixels */
"n V A N E 1.P.9XpXiX6X!.:X@X6XXX!.S.u.4.G M A ' ' A ' ' S Z Z Z S X._ A Z C Q 2.C.W.~.W.E.L.|.XXoX-XQ.R.a.4.G J Z _ X._ Z Z A O.O.S X.X.A Z A A A X.X.S A O.Z N ",
"C Z A C H W f.|.0X0X2X XOX#X@X:X~.Y.j.7.D B A O.' A A A S X.O.O.O.O._ Z Z Z I 4.u.T.Q.T.S.D.}. XI.S.C.i.q.W I ~ Z _ S S Z A _ ' S S S A A X.O.O.O.X.S A A O.A Z ",
"' ' ' ' / H W f.{.+X+X#X&X&XXX:X,X4X[.f.Q L _ _ S S A Z X._.'.'.`._.X.Z A _ L G 4.u.C.C.A.F.-X{.j.r.q.q.,.u ~ A X.X.X.Z A O.O.O.X.S Z / X.O.'.'.'._.S A A O.O.O.",
"_ ' `.`.' ( D a Z.OX&X0X*X$X}.;X4XnXaX.Xg.W H ' `._._.`._._._.`.`.`._.O._ O.+.^ G ,.q.C.J. X XL.y.2.,.<.<.a P O.`.O.X.A O.`.'._._.O.`.`.O.`.`.`.`.`.+.X._ _.' Z ",
"Z ' _._.` K 0 y p.2XiXaXiX&X}.:XrXsXpX8XD.4.F +.'.'.'.'.'.O.O.O.O.O.`._.O.O.`.+.^ G p t.F.{.F.N.N.N.l.f.e.5.E Y O.`._.O.`.'.'.'.'.'.'.'.'.O.O.+.O.O.'._.+._.O.A ",
"A A A / U R y <.g.8XdXnXaX&XXX X+X8X&X Xh.W H ` `.'.'.`._.O.X.O.A X.`.'.`.O._.'._.L G 8.A.S.1.0.,XaXaX|.Z.r.2.E P +.'.'.'.`.`.'.`.'.'.'.`.O.O.O.A X._.'.`.O.X.X.",
"A C C U s.].E.].[.#XeXaXeX2X}.I.P.J.F.F.D.f.! P _ `.'.'.`.O.X.O.A A _.'.'.O.O.O.O.C D 7.C.Y.:.5.].aXpX+XF.V.D.f.! ^ Z O.X./ B J / '.'.'.`.X.O.X.A S O.'.'.O.S C ",
"Z N F W N.uXyX6X.X@X7X8X7X>X{.J.Z.i.a.a.I.L.y.E K _.'.'.'._._._.X.X.`.'.`.X.A A O.C D 7.i.a.2.7.[.qX8X XP.~.2X{.d.D L X./ Y Q Q T o.`.'.'.O._._.X.X.`.'.`.X.Z V ",
"Z M D 0.;XdXiXwX+X X}. X X X XU.J.A.C.D.-X<XF.,.G ' '.'.'.'.'.'.`._.'.'.`.S S O.O.~ D 3.q.q.e.k.|.+X XW.4XtXiX$Xk.i P _.~ ] k.g.9.P X.`.'.'.'.'.`._.'.'.`.A Z Z ",
"Z N F 4.!.9X9X2X X{.P.P.I. X7X7X2X X}. X<XS.r.R Y `.'.'.`.`.'._.O.X.O._.'._.`.`.O.C D ,.2.1.k. X%X+X:X;XrXdXiX#Xg.i P / D 9.[.{.d.G ` _.'.`.`.`.O.S O.`.'._.O.' ",
"A N F 4.k..XOX{.P.S.Y.T.{.#XeXaXeX7X@X1XR.y.W I ` '.'.'.' +._.'.S Z A O.'._.'.'._.~ D >.1.q.[.$X=X&X4XrXyXdXiX$XK.9.Q I G ! l.l.s.T o._.O.O._.`.S Z Z O.'._.O.' ",
"' C F 4.h.}.-XR.C.i.C.F. X8XdXnXsX&X@X{.p.W H / _.'.'._.' _.'.'.X.Z X._.'.X.O.'.'./ e <.w.A. X&X*XeXsXnXuX0X&X&X@XH.0.R ~ P U E T `.'._.X.+.'.'.S Z A `.'.X.A _ ",
"A Z C U 9.p.A.C.C.C.A.T.}.7XeXsXeX@XL.f.! T ` +.'.'.'.'.`.'.'.'._.O.`.'.'.O.O.+.`.C F 4.i.I.@X0XiXnXmXmXiX&X#X$X2XI.y.a ( _ ( ^ ` '.'.`.`.`.'.'.`._.`.'.'.O.A A ",
"Z A _ ~ T 4.e.i.C.R.T.W.I. X7X0X8X:Xj.4.I X.'._._.'.'.'.'.'.'.'.`.'.'.'.`.`.`.+.X.J r 7.D.:X+X0XaXmXNXnXqX#X+X+X1XI.t.W ) `.`.A O.`.'.'.'.'.'.'.'.`.'.'.`._.O.A ",
"_ ' _.`.` K p q.S.Q.~.!.F.F.|.@X2X!.u.4.K O.'.' _ O._.'.'.'.'._.O.O.+.O.O.`.'.`.~ F u r.I.1X@X7XqXnXmXnX4X X X1X<XP.r.p ^ O.'.' X.O.`.`.'.'.'._.O.O._.O._.`._.A ",
"Z ' '.`.O.o.I W r.T.{. XF.A.J.{.!.j.6.i J Z O._ Z C X.O.' ' _.`.`._.`.`.`.'.`.` Q 4.t.A.I. X XXX@XeXnXnX4XI.I.I.I.a.4.r B A _.A S O.O.O.O.O.`.`.`._.`.`.`.'._.O.",
"C / `.' ' './ I W p.W.XXI.F.S.S.a.7.R I B / X.Z L H / ' ' O._.'.'.'.'.'.`.`.` Q 0.H.}.}.{.I.{. X+X*XeXyX3X}.L.S.u.5.E J ~ A O.O.O.O.O.O.O.O._.'.'.'.'.'.`.'._.' ",
"M ~ ' A ' ' ' ~ K 4.j.:X1X XG.C.6.a I ` O._._.( Q 4.U ` '.'.'.'.'.'.'.' _ ~ G 5.[.&X=X#X-XW.!.XX$X0X*X*X*X+XI.i.1.E Y ' O._.`.`.'.`.`.'.'.'.'.'.'.'.'.O.O._.O.' ",
"C _ ' ' _ ' ' Z b ,.i.~.1XXXI.C.6.u I O.O._ ( ! l.z.d.T / ' '.'.' ' _.A J G u 5.|.*X=X@X}.{.|.7XeXeXwX*X=X&X XS.7.r ~ `.O._.`.'.'.'.'.'.O._.`.'.O.O._.O.X.O.' ' ",
"A ' '.`.' ' ' / I 4.p.T.-X:X-XY.q.p Y O.' C J 9.z.|.f.W M / '.`.' ' ' ^ U ,.:.5.[.%X9X>X-X X+XqXdXnXeX%X&X9X@XP.e.i P +.O.O._.`.'.'.'._.O.O.`.`.O.X.O.O.O.A A _ ",
"' ' _.`.'.`.~ T s.z.k.6.p.P.~.R.r.a Y _.'._ M r R ! i e B ' '.'.'._.^ ] l.K.e.<.K.2X9X:X!.I..X0XmXnXrX X.X7X2X!.t.>.i Y _.'.'.+._.`.`.'.'.'.'.'.'.'.'.'.'.O.O.' ",
"' ' `.'.'.' H W g.[.z.8.p.R.^.R.t.u Y O.O.C c - > 6 - > v A `.`.'._ F W f.[.y.4.f.L. X{.!.-X+XeXnXnX4XP.I.U.!.p.<.u t G ^ ` O._.`.`._._.`._.`._.`.`._.'.'.`.O.' ",
"_ ' '.'.'.` G ,.p.z.z.l.H.!.~.R.r.u I S V c 7 6 j @.7 7 ; v V A ' C = 0 9.f.x.} 7.t.A.F.I.1XyXaXsXyX>XP.S.A.u.<.t q 8 w 0 H / `.'.O.O.X.X.X.O.O.O.X.X._.'.O.O._ ",
"' ' ' _.'.' U u 2.y.K.#X@X:XQ.S.r.a P V # # { *.-.;.;.&.j ; x Z C N > e l  .%.%.z >.w.F.XX0XsXdXaX%XXXI.F.i.w.p 8 O o - t G L '.`.S X.O.O.O.O.S X.A Z / / / C C ",
"_ ' _.`.`.' G a q.k.|.7X XP.R.S.t.a Y C # ; { -.).).-.*.#.7 # : # b P ] v.%.*.*.z >.w.P.+X8XuXuX8X@XXX X|.L.Z.8.u - 5 h d e L '.`.S S X.O.X.S S S C P G G G D F ",
"A ' '.'._.Z D R h.{.XX}.F.C.F.Y.t.a Y A x 4 j &.&.&.*.%.$.[ 6 ; $ D ].cXzX).).).z x.a.I.:X1X7X#X2X X XOX+X$X$XJ.6.p ..$.6 ; m O._.X.S A A A S S Z P E W 6.2.W a ",
"' ' `._.' C M I ! h.D.A.C.S.~.!.p.u ^ O.v ; f $.%.%.&.$.{ { =.zXgXgXjXjX).).).)./.b.0.p.j.F.}.+X+X.X X X@X$X3XG.q.p %./.$.7 7 m A _.O.Z Z S S S F E N.,X;X[.z.z.",
"_ ' `.`._.' A ~ I 4.r.C.S.F.!.L.h.! Q ( : = 6 $.%.%.$.j 7 =.zXBXZXCXbXgX).).;.).).=.c.:.w.Z.U.+X8X7X7X1XOXOXU.C.6.x./.).;.{ 1 : V '.O.O.X.X.X.) ! M.5XuXeX&X#XXX",
"A ' '.'.'.'.'._ H p q.C.Q.!.k.h.l.z.s.D = O 5 $.$.$.$.h h =.zXAXSXSXAXxX(.).*.*.;.&.l :.w.I.XX8XaXaXeX$X<XW.a.8.b.B.jXcXgX$.7 @ n `.'.'.`.O.^ Q ].5XnXsXiX=X9X+X",
"A _ ' / C ~ _.' H 4.i.T.<X!.p.y.l.[.f.r - $ ; j { { { h f &.zXAXDXGXDXZXbXlX(.*.*.%...n.k.{.XX0XdXdXqX|.E.i.2.z /.).cXvXhX&.6 @ n `.'.'.`.~ U n.,XsXeXwX*X&X+X{.",
"A Z / T G G _ _ K 4.a.W.~.!.k.k.k.l.s.Q F x ; 6 j k { j h =.zXAXFXGXGXSXAXbXcXhX&.-.hXcX,Xf.[.7XaXqX,Xy.r.1.y k %.).gXhXjXM.[ * n `.'.'.'.B E t.;XtX0X&X#XXX!.E.",
"A / T 4.q.4.I B L W t.Y.Y.W.<X!.h.a T +.' N : $ 5 k k j h  .zXZXSXGXGXFXAXBXMXcXM.kXbXbXhX:.h. X&X.Xf.,.>.y l { $.%.%./.,XN.E c N +.'.'.`.L E t.Y.:X$X&X@X}.!.P.",
"M T d.K.F.w.p G B Y ! y.a.R.^.W.u.u H _ _.V x 1 5 j { @.7  .hXBXZXSXSXAXVXlXgXhX].vXxXgXv.,.p.D.k.g.z.g.5.y y l { $.$.$.b.s.I C Z S `.+.P Q d.>X4XrXqX7X@X X>X2X",
"> E k.1X2XI.p.! H B I :.u.R.^.W.t.a F _ _.A v ; 3 7 j j #...N.cXBXZXZXVXlX*.%./.hXcXjX/.z ,.a.j.e.y.z.[.y.<.:.p l #.#.k l g J X.O.O.`./ G 0.{.eXsXaXqX#XXXXX@X@X",
"q a C.1XtXtXrX].! D e y r.R.<X~.p.a K O._.S C c ; 1 2 j v.B.B.m.(.lXzXlX(.$.@.$. .m.N.B.8.<.p.E.Z.h.f.l.z.j.q.>.l #.#.j 4 : m Z O._._.P u p.oXwXaXiX6X2XXX X}.-X",
"0 4.V.Q.rXdXpX%Xl.4.W 5.r.Y.-X!.f.a K O.'.`.S N : @ 7 | B.N.M.{ [ |  .&.%.$.%.=.=.m.M.M.8.2.k.:XOXH.y.8.k.k.6.z g @.j f 3 1 n S O.`.O.L D 4.H.@X0X0X>X X}.}.I.J.",
"9.f.K.P.1XaXpXwX.XH.k.z.y.p.D.J.h.a H ' '.'._.Z c O g x.B.(. .h 7 5 j h @.&.gXzXlXgXgXx.:.5.z.#X9X}.j.q.y.y.p g h g g t w e B X._.`._._ L G 9.H.XX+XOX{.I.~.{.-X",
".X#X2XU. X$X%X7X@X+X$X@Xf.5.r.C.u.p F _ '.'.`.Z c & x.B.b.{ j k @.k j j $.(.bXAXAXVXlX{ t 5.[.%X9X1X!.A.6.p d h 5 g } 8.q.W K o._.`.'.'.+.~ Q 4.k.{.OX-X~.:X#X&X",
"uXsXuX1X.XOXI.I.{.2X9X@Xy.<.r.C.i.a I ' _.`._.Z c - x.N.v.#.7 { { k j { (.bXAXDXFXSXVXgX9.4.[.%X*X9XoXJ.q.y w 8 d p B.,X>Xz.! Y _ `.'.`._.O.( Q 9.g.|.6XtXtXqX*X",
"fXdXaX&X+X|.F.C.F.}.:X{.y.6.t.a.t.a Y +.O.O.O.S v - x.B...j 7 { k j 7 =.xXZXDXGXGXFXSXBXN.<.z.%X=X9XOXJ.6.>.>.>.4.n.5XnXiX.Xf.R K O._.`._.`.' ~ E 8.|.0XnXdXeX*X",
"sXiXqX@X.X+X{.H.A.V.C.A.Z.k.y.e.1.a T ' ' _.`._ F d b.n.c.5 2 j j h 5 =.bXAXFXGXGXGXDXBX].,.z.%X9X8XoXF.2.,.N.].5X5XyXiXwXOXF.6.R H O.'._.+.' / E 5.L.8XiXiX=X=X",
"@X2X>X6X7X8X7X XF.Z.i.A.I.L.p.2.y u I ' ' ' O.C F d c.c.c.k 5 5 h 5 4 %.lXVXSXGXGXFXAXbXN.8.[.+X$X XF.p.7.y.,XnXMXnXeX*XXX>X-XY.0.W ^ / _ O._./ i 2.H.@X9X*X&X#X",
"Z.F.:XtXnXsXeX7X.XI.J.J.<X~.t.>.y u H C A ' ' C b s g z v.v.| 5 5 5 5 j =.lXVXSXDXAXbXjXz.[.XXOX<XF.t.e.f.,XnXNXmXpX0X+X!.;X4XtX;Xy.R H C O.`.` E 4.[.+X$XOXI.J.",
"w.Y.rXMXNXmXaX0X&X$X.XI.F.j.q.5.,.u H ~ O.`.'.' m * , 4 c.b.x.k f h 5 3 2 { gXBXCXbXB.6.k.&X$X1X~.u.1.5.z.0XfXfXaX*X&X@X!.<XtXnXtXJ.y.E ~ O.' P W f.>X0X&XI.i.q.",
"Y.,XnXNXNXMXdXwX&X+X XD.r.q.w.t.q.a I ' `.'.'.'.A n @ % d c.b.b.l j 5 3 < 5 &.gXhXB.<.:.Z.*X2XoX!.u.2.,.K.9XeXeX0X$X@XOX1X6XyXiX8X-Xt.W ~ C P ! l.>XyXaXwX{.e.y ",
"cXyXNXmXMXnXaX9X+XU.F.a.6.7.p.a.t.p I ' O.O.O.O.O./ : @ , k v.B. .f h g k j h g p >.:.5.h.|. X X~.a.q.1.g.[.+X#X&X#XOX X2X&X&X&X2XJ.q.W L M G y.|.qXfXfXeX|.0.t ",
":XyXNXmXnXuXwX7X{.Z.F.[.[.K.h.e.2.y e : : x : : x x % . , f c.n.l f | M.B.b.p p f.g.y.:.1.h.J.U.~.F.a.t.8.q.p.J.XXOX-XI. X@X#X2X<XJ.w.a - = t t.<XwXiXiX0X{.4.t ",
"{.6XfXmXaX0X*X#XL.D.{.*X=X#Xg.<.y y q @ X X o X X X X   , s c.n...g } M.N.n.3.>.z.K.y.t 9 ,.y.A.R.T.Y.p.e.8.t.F.{.}.!.P. XXX XI.F.h.4.r = - r 9.H.1X9X0X+XK.5.t ",
"I.+XwXiXwX&X&XXXI.L.XX=XiX#Xf.>.9 y q O   o + 8 + X X X X - } n.n.c..... .z l u 0.y.z 8 + w p r.A.Y.p.y.f.z.[.|.~.!.I.{.OX XP.C.e.4.U J m m M U 0.D.OX+XoXa.2.y ",
"y.L.7X9X0X$X@XXX-X XOX2X@X[.y.1.>.y e = X q p 4.a + $ @ X & g x.b.c.l k 4 3 3 4 t p l h 3 s d 1.C.i.q.7.[.*X=X.XW.F.I.2X0X8X-Xi.2.i ^ O._ _ _ ( U W h.{.U.j.5.y ",
"W 0.I.OX@X@XXX:X-X-XI.J.h.p.u.t.6.p D M > i f.L.0.r M x @ $ - d l z z l s < < 2 + d l l h 3 8 ,.i.u.6.5.[.=XwXXXD.A.{.0XaXaX6XJ.5.r o.`.O._.`._.L D W j.I.G.5.y ",
"D R y.I. XXX:X X!.F.i.q.:.:.u.A.p.a Y ' F ! K.|.l.R ^ V : o o . . 5 c.c.l 3 < 3 < f c.b.z 4 w 2.a.p.e.5.K.@XOXI.A.A.|.wXdXfXsXXXy.i ) O._ _.'.'.X.J r 0.L.L.0.t ",
"N J E y.H. X}.~.W.S.r.2.y >.u.Y.u.a Y _._.] 9.f.s.) B c = 1 .     O l z l 3 3 3 2 f c.b.z 5 w <.C.i.e.<.p.H.S.S.D.I.XX7XeXiXqX Xy.i ( `._.'.'.'._.~ 0 8.Y.F.8.u ",
"Z B F 4.j.{.!.!.R.Y.r.:.y :.p.S.p.a K ' '.` Y E T / c % 1 1 & . . O s 8 s 3 < 3 < s c.c.l + w 2.a.j.e.>.6.i.i.A.I.:X:X X7X7XXXD.5.r L X.'.'.'.`.`.( G 8.S.S.7.t ",
"A C H 4.u.T.W.W.Q.F.p.2.y ,.j.J.j.a F Z ' '._.B b : * 1 5 5 3 1 o o O + & & o < . s l l d O w <.C.A.e.>.1.q.C.E.}.:XU.!.OX|.k.4.w 4 ; v ' '.'._.O.~ r 8.A.Y.5.t ",
"A C P 4.u.J.W.W.T.p.4.i t ,.k.I.g.a D n N V Z v : % 1 1 3 3 1 1 & * * = ; ; ; * . O + 8 + O 8 2.S.S.t.y t a 8.A.-X X-X}.oX{.p.p w 4 & ; v Z _.`._.( r 8.Y.C.7.t ",
"_ C I 4.i.!.~.Q.a.4.G F r ,.j.J.p.p e : # : x : = & 3 1 & & 1 1 c m m n n m N v @ o O O . O w 2.C.R.e.u D H E y.I.1X2XOX1X{.A.7.t d 4 1 % v / '.`.( G 8.V.A.5.u ",
"X.C F 4.j.}.<XR.p.i F ~ F p a.T.u.>.8 O X $ X O 1 3 % * $ @ @ : C O._.X.Z O._.O.v * .   . + w 2.t.u.4.i J L D 9.J.+X@X@XXX-X~.C.q.u s < & $ v O._ L i 8.S.G.6.u ",
"_ C H 4.i.!.^.R.u.i F X.F W a.Y.u.p 8 O . . . O o & c m m v m C A O._.O.X.O.`.`.A v * X o - t y u p i E P C D 4.H. X}.J.P.~.~.S.e.y 8 o . . * c x > w q.S.S.6.u ",
"/ Z P W e.A.P.R.u.i K O.I p i.C.q.u - $ $ @ $ % % ; C ' ' ' _.`.X.X.O.+.O.S O.'._.Z v ; O 4 t t + - w i Y B D 9.T.-XF.a.S.R.T.t.4.r - $ * @ X . O O w 5.i.C.4.w ",
"O.O./ ^ E 8.A.S.a.R F / G p w.q.p q > N C C V m m V _ `.'.'.'.'.'.'.'.'.`._._.'.'._./ v ; 1 q s 3 q w a P C G 4.A.~.I.J.S.C.r.a I ( C Z Z v $ X . O + t 5.5.t - ",
"C _ O.` I ,.p.R.C.R e m D i ,.t q ; m ' O.X.X.O.' ' O._._.+.`.`.`.`._.'.'._.`.'.`.`._.Z v ; 1 2 3 s d r J M r 7.S.~.:XI.j.u.y.4.T / _ ' ' N x ; $ $ $ > w t - X ",
"N _ '.' I a u.R.a.p e > 6 q w - = m A O.O.S O.`.'.O.O.O.X.X.X.O.O.O.O._.'._.`.'._._.'.`.Z v @ 2 1 6 s q > > w 2.C.~.1X{.t.y.k.l.! H / O._ Z V v x n m > - - %   ",
"M / ' ' T ,.u.C.e.u - & ; 1 < ; v A X.X.S O.`.'.`.S X.O.O.O.X.X.S X.+._._._.`.`.'._.+._._.X.v $ 1 3 4 3 o = e R 0.T.U.H.5.e.z.K.d.e C X.O.X.A Z C A A V x $ @ @ ",
"V _ _._ T p q.6.p q O o < % ; n S _.O.O.O._.'.'.`.S S X.O.S S S Z X._._._._._._.`._._.`.`._.V v * 1 1 2 < % M G ! p.Y.j.5.5.y.d.! J C X.O.X.S S A A `.A Z n v v ",
"Z ' +./ D u y t + . . 3 & ; N X.`.`.`._.'.'.`.'._.O.S S S A S S A _ _._._._.`.`._.`.`.'.O.S O.C : % 1 3 o * Z C U 0.Y.A.q.,.p G ~ X.S S A A S S A ' `._.' ' ' A ",
"_ _ C : - - 8 + O . X o : m X._.'.'.'.'.'.'.`.'.'.`.S Z Z S O.O.O.O._._._.`.'.`.`.`.`._.S A A N # & 3 3 o ; Z C I e.D.L.t.W D ( _.`.O.Z A X.X.O.' ' _._.'.'._.' ",
"N m : o O = ; ; ; ; * ; B X.O.'.'.'.'.'.`.`.O.`.'.'._.O.O.O._._.'.`._._._.'.'.'.'.`.`._._.O.S C n ; 1 1 . ; Z / T y.F.!.t.R J O.'.'._.O.O.O._._.'.`._._.`.`.' ' ",
"$ $ X O : m V V N n m m A '.'.'.'.`.'.`.`.S S `.'.'.`.'.'.'.'.'.'.'.'._.O._.`.`.`.`.'.'.'.'.'._.' v = % . ; S / T y.A.J.t.R B ' '.'.`.'.`.'.'.'.'.'.'._._._.A A ",
"X @ $ : v C ' ' O.X.A Z O.'.'.`._.O.S O.'.'.'.S O.'.'.'.'.`.'.'.'.`._._._.O.' ' +._._.'.`.O.`.`.+.Z m $ o = m m G 8.C.A.r.W L Z _.'.'.'.'.`.'.'.'._._._._._.A Z ",
"x x n V A A `.`.'._.O.' _.`.`._.O._.O.O.'.'.`.O._.'.'.'.'._._.'.'._.O.`.'.O.' _._._.`.'._.O.O.`.`._.C x q w > > w 6.i.Y.q.W J _ _.`.'.'.'._._.'.'._._.'.'.A A A ",
"_ ' `.`.`._.' `.'._.A _ ' ' _ ' O.`.'.'._.S S `.`._.'.'.'.O.O.`.`.'.'.'.'.`.'.'.'.`.'.'.`.O.O._.'.O./ P ! 4.r 8 w 6.j.F.e.R M +.'._.'.'.'.O.O.`.`.'.'.'.'.'._.A ",
"_ ' '.`._.O._._._._.' _ O.`._.O._.`.+.O.O._.`.`._.O.`.'.'.O.O.'.'.'.`.' _.'.'.'.`.`.`.`._.O._.`._.Z Y 9.z.[.9.t 9 6.Y.E.t.W L ' _.O._.'.'.O.O.`.'.'.`.O._.'._.O.",
"Z _ _._._._.`.`.O.'.`.O._.'.'.`.`.'.O.O._.'.'.O.S O._.'.'.`._.`.'.`._.A A '.'.'._.O._.O._._.`.`.O./ Y 9.[.|.0.u y 5.z.L.t.W L _ O.O._.'.'.`.`.'.'.`._.A A '._.A ",
"Z ' ' ' `.'.'.'.'.'.'.'.' O.'.`._.'.`._._._.O.S O._.O.`.'.`.`.'.`._._._.`.'._._._.+.O.O.`.'.'.'.'._.` T 0.0.} d t 7.A.E.r.R M Z O._.O.`.'.'.`.'.`._._._.'.'.A Z ",
"/ _ ' ' O.'.`.`.'.'.'._.' O.'.'.'.'.`.'.`.`.O.O.O.`.O.O._.O._.'.'.`._.`.'.'.' A _.O._ X.O.'.`.`.'.'.+./ U E q + t q.A.T.u.W M / O.`.O.O.O.O._.'.'.`._._.'.'.A V ",
"A A A A ' ' O.`.'.'.`.' ' `.'.'.`._.O._.'.'._.O._.`.O.O.O.O.O.`.'.'.`.`.'.'.O.O._.O._ S O.O.O._.'.'.`.' C b * - w 6.C.Y.r.W M _ `.`._.O.X.O.O.`.'.'.`.`.'.'.A Z ",
"' ' A A ' ' ' _.'.`.`._._._.`._.O.O.O.O.'.'.`._.`.'.'.'.O.`.`._.' A `.'.'._.`.'.'.O.A X.S X.O._.`.`.`._.' Z v = q ,.t.t.4.U ~ O.`.'.'.'.O.`.`.O._ ' '.'.`.`._.A ",
"Z A A A A A ' ' ' A A ' ' ' ' ' X.X.X.O.O.O.O.O.O.O._.O.O.O._.O.Z Z _.O.A A O._.O._ A _ X._ _ ' ' A ' ' ' A V v - w ,.4.G ~ _ O.O.O.O.O.O.O.O.O.Z A ' ' A A Z Z ",
"V V A A ' ' A A Z Z Z A A A Z A X._ X.X.Z Z A O.O.S S S S S S S Z Z A V Z V A _ A A Z A _ X._ Z Z C A A _ _ Z n c - w i J C _ X.O.A S S S S X.O.Z C A Z Z Z V V "
};
