/* XPM */
static char *__resized[] = {
/* columns rows colors chars-per-pixel */
"80 80 239 2 ",
"   c #1A0F3A",
".  c #263B2A",
"X  c #293C36",
"o  c #2E5219",
"O  c #31551F",
"+  c #345B1E",
"@  c #36621C",
"#  c #39651D",
"$  c #3C6C1D",
"%  c #3F711E",
"&  c #2C4729",
"*  c #304F29",
"=  c #315424",
"-  c #355C23",
";  c #33532C",
":  c #365A2B",
">  c #385D28",
",  c #395C2D",
"<  c #2D4536",
"1  c #314D35",
"2  c #30443E",
"3  c #324C3C",
"4  c #345333",
"5  c #385534",
"6  c #3A5C33",
"7  c #36533B",
"8  c #385738",
"9  c #3B5B3B",
"0  c #376121",
"q  c #3A6523",
"w  c #3D6B22",
"e  c #3C632D",
"r  c #3E6B29",
"t  c #3F7121",
"y  c #3D6333",
"u  c #3C6238",
"i  c #41751F",
"p  c #437A1F",
"a  c #406D27",
"s  c #426D2A",
"d  c #427522",
"f  c #457C21",
"g  c #487E25",
"h  c #44732A",
"j  c #49762D",
"k  c #4A7B2B",
"l  c #446836",
"z  c #4D7436",
"x  c #4E7B33",
"c  c #507A38",
"v  c #537B3C",
"b  c #1F1744",
"n  c #221C4A",
"m  c #24214D",
"M  c #292957",
"N  c #2E3B53",
"B  c #2E3B56",
"V  c #2D3163",
"C  c #323A68",
"Z  c #343C6D",
"A  c #2E4244",
"S  c #334B43",
"D  c #324449",
"F  c #354B4B",
"G  c #3A5A43",
"H  c #395448",
"J  c #364A53",
"K  c #364859",
"L  c #395354",
"P  c #3C5955",
"I  c #3B525B",
"U  c #3F634B",
"Y  c #3A4C65",
"T  c #364468",
"R  c #3A4C6C",
"E  c #3C5364",
"W  c #3D5865",
"Q  c #3D536B",
"!  c #3A4774",
"~  c #3D4B7C",
"^  c #3E5276",
"/  c #415B57",
"(  c #587C45",
")  c #537250",
"_  c #607D53",
"`  c #415A6A",
"'  c #415A74",
"]  c #42577B",
"[  c #446268",
"{  c #486678",
"}  c #527171",
"|  c #46821F",
" . c #478022",
".. c #498423",
"X. c #4C8924",
"o. c #4D832A",
"O. c #4E8928",
"+. c #56833B",
"@. c #5A8144",
"#. c #5E8549",
"$. c #61894D",
"%. c #678758",
"&. c #689154",
"*. c #6F8B65",
"=. c #759468",
"-. c #7D9876",
";. c #829B7B",
":. c #84A37A",
">. c #3F4E82",
",. c #404E82",
"<. c #425384",
"1. c #455B83",
"2. c #45598C",
"3. c #485C93",
"4. c #4A6885",
"5. c #49638B",
"6. c #536886",
"7. c #54758B",
"8. c #4B6394",
"9. c #4D649C",
"0. c #4F699A",
"q. c #516A9C",
"w. c #54769A",
"e. c #667C9A",
"r. c #4F65A2",
"t. c #526CA3",
"y. c #536CAA",
"u. c #5472A4",
"i. c #597AA4",
"p. c #5673AB",
"a. c #5875AD",
"s. c #5A7CAB",
"d. c #5975B2",
"f. c #5B7AB3",
"g. c #5B7AB8",
"h. c #627DB0",
"j. c #5F7DC1",
"k. c #607FC2",
"l. c #5B829D",
"z. c #5D85A9",
"x. c #5E84B4",
"c. c #5F81BB",
"v. c #658AAC",
"b. c #6F93AC",
"n. c #638AB7",
"m. c #6183BE",
"M. c #6A96BA",
"N. c #71A5BB",
"B. c #6285C2",
"V. c #658AC4",
"C. c #668CC9",
"Z. c #688DCC",
"A. c #6C99C3",
"S. c #6F94CA",
"D. c #6991CD",
"F. c #6C95D2",
"G. c #6E99D6",
"H. c #6F99D9",
"J. c #709DD6",
"K. c #719DDB",
"L. c #75A8CC",
"P. c #73A1DD",
"I. c #76A9D8",
"U. c #7BB6D9",
"Y. c #75A4E2",
"T. c #77A8E5",
"R. c #79AAE5",
"E. c #7AACEA",
"W. c #7DB4E3",
"Q. c #7DB2ED",
"!. c #7DAFF2",
"~. c #7FB5F1",
"^. c #879E83",
"/. c #8CA387",
"(. c #92A78C",
"). c #97B28E",
"_. c #95AA94",
"`. c #98AC98",
"'. c #9CB298",
"]. c #9EB39E",
"[. c #839FBA",
"{. c #A7B8A8",
"}. c #ADBDB0",
"|. c #AEC1AD",
" X c #B4C4B8",
".X c #8BBAD6",
"XX c #82BBE9",
"oX c #80B7F3",
"OX c #82BBF4",
"+X c #84BDF9",
"@X c #85C3DC",
"#X c #9AC3DC",
"$X c #BCCAC3",
"%X c #A1C9DB",
"&X c #88C8E6",
"*X c #93CEE8",
"=X c #95D8EC",
"-X c #88C6F4",
";X c #86C3FD",
":X c #88C6FE",
">X c #8ACAFE",
",X c #8ED2FE",
"<X c #8ED8FB",
"1X c #95DBF4",
"2X c #91D5FD",
"3X c #93DCFE",
"4X c #AADAEB",
"5X c #9BE0EF",
"6X c #97E4F7",
"7X c #95E3FE",
"8X c #99E5FD",
"9X c #9BEBFE",
"0X c #9EF1FE",
"qX c #A5ECFA",
"wX c #B4ECF6",
"eX c #A3F4FE",
"rX c #ABF3FE",
"tX c #A5F8FE",
"yX c #ACFBFE",
"uX c #B4F5FD",
"iX c #B6F9FD",
"pX c #BBFAFE",
"aX c #C2CEC9",
"sX c #C7D4CC",
"dX c #CBD6D4",
"fX c #D3DDDB",
"gX c #DAE2DD",
"hX c #DBE5E5",
"jX c #C1EEF3",
"kX c #C6F5F9",
"lX c #C4FCFE",
"zX c #CCFFFF",
"xX c #D2FFFE",
"cX c #E5EBE8",
"vX c #E4ECEB",
"bX c #E7EEF1",
"nX c #ECF3F5",
"mX c #F3F7F8",
"MX c #FEFFFF",
/* pixels */
"o @ i $ $ i i i i $ $ i i i i i i i i % $ $ i p p i p i % % % % % % t % O . Q s.U.6X0X6X1X6X6X6X6X6X2X,XP.a.R 2 O t % p % $ % p f % p p % $ $ % % % f % i p $ + ",
"# $ i i i p $ i i $ i f p i i i $ i $ + = o + w % % % % % t f p  .% w 0 4 J w.L.*XqXrXeX9X6X6X9X0X9X9X6XQ.B.>.A * t % % % % p t t % % % % d f f f p % % i f i # ",
"p p i p f f i i i i f  .f p f d i i > . X X < - $ t $ % %  .X.X.X.f - 1 E w.L.5XpXlXlXyXtX9X8X9XeXtXqXqX-XF.3.D & t % % % p f t t % $ t %  .X.X.X. .i % i p p p ",
"i p ..X.X.f d p p i i f ..X.X.X.g q H T <.,.Y 8 q f ...... . ... .t & I q.L.=XpXlXlXpXrX7X3X>X>X-X-X,X,XR.c.~ S @ % | %  . . . . . . ..... . ....... .p i ..p $ ",
"i i g p X.X. . . . .f  .X.X.X.| a 9 { h.S.A.u.[ 9 w ..X.X. . . .p 0 < Q x.W.qXpXlXpXrX3X3X<X:X+XE.P.Y.Y.n.4.L ; w | ..f  .t q w f X.X.X...f f f f f ....p ..p i ",
"i i i i p X.X.X... . . .X...f + 5 ` b.}.4X1XL.w.W ; t  ...t t  .% = & R f.@X0XiXiXrX8X2X,X<X>XQ.C.a.y.a.4.P e q t X.X.X.f y 1 4 t X.X... .f f f % t ..X...p p i ",
"$ $ i p  .g p f f % t  .% % q 7 W b.%XwXxXkX5XU.i.Y G r  . .t % % + . Y u.U.5XtX9X7X2X>X>X:XI.n.5.T B T J : d  .X...f t u P { Q / p ..X...f i p % $ g X.X.f % # ",
"$ i i p p p i i % % % % $ - 7 E w..XwXzXzXlXtX1XI.p.^ U r t  ...p # & K 9.J.=X0X7X<X,X:X+XR.n.4.F . . X * @ f ..X.t q 6 P l.M.x.{ u w f .. . ...p f ..X...d $ @ ",
"$ % p  .f % % t t % % t O 1 Y w.L.6XyXyXiXyXtXqX-XK.p.` * a ......w & K 9.G.-X3X<X2X,X>XQ.C.1.J * + @ 0 # $ t t  .t = S w.L.&XW.z.K ; w X.X.X.X... .X.X...$ $ $ ",
"$ % i p f f % $ % % # - 1 Q z.I.1XtX9X*X@X@X&X<X-XH.u.Y & o a i # - S { m.Y.-X,X:X>X2X>XT.a.T . - $ % $ % t f f X.t O S 4.L.-XU.z.J ; $ ........f d f  .....f i ",
"% % i  . . .f % % % - 3 Q u.I.<X0X6XXXA.v.x.M.G.D.z.} G * & 1 1 & S [ M.U.-X;X:X:X>X2X>XY.p.B . @ t f t | | X.X.X.t t u [ z.A.v.} 9 r i f  .....t $ $  .X...p i ",
"p i d X.X.X.f f  .w 7 Y q.G.-X3X<XW.x.8.^ ~ 2.3.2.E l a > 3 B V C ' v.@X7X<X:X;X:X>X2X>XR.f.T < q | X.X.....X.X.X.| X...e P ' W / f X.g %  .X.X.f $ %  .X.d i i ",
"$ % i  .X.X.X. .$ O 2 ~ c.~.2X<XW.z.' F A A S F S 4 0 q u } e.h.i.n.@X6X0X6X>X;X:X>X>X+XT.m.3.I 7 q t X...f X.X.t X.X.X.t r G 6 h X.X.X.| ..X.X. .f ..X...p i i ",
"$ % f p ..X.X...i O A >.C.+X2XXXn.' S * @ 0 0 = = = = 9 ) [.#X#X@X&X1X0X0X3X>X;X>X:X+XQ.Y.J.f.5.W 3 - f ..t X.t f X.| | X.% w $ p  .X.X.X.X.X.X...X.X.X.....i $ ",
"i p ..X.X.X.......- < ! m.Q.OXG.0.A & @ t ....t $ 0 < Y v.%XjXkXrX0X9X9X7X,X:X:X:X+XE.Y.P.T.J.B.r.K 1 t | | | X.X.| % % f | | t # d f ....X.X. .f f  .f f ..a q ",
"i p ....X.X...X...q S >.B.!.oXF.5.N & $ d f  .% % q . K n.%XpXlXiX0X9X<X,X,X:X:X:XOXE.K.P.Q.E.H.g.R A w t ..X.X.X.f % t % w - & & = # i f f  ..... .....g d y 8 ",
"$ p ..p p X.......q S ~ g.Y.T.C.3.N * w t t | t t t & T z.&XeXiXyX9X7X,X>X>X>X+X~.E.Y.K.I.E.Y.F.y.R < q t X.X.X.X.% t t t : S D N D : w d f ..X.X.X.X...d - H ' ",
"p f i i i g f |  .@ & K 8.B.B.u.^ 3 0 t  . .X. .t e F 4.A.&X6X0X9X7X<X>X:X>XOXR.G.D.F.K.Y.K.B.t.>.S * q % t X.X.X.X.| t e P 4.s.s.5.P y  ...X.X.X.X.X.p # & ` 9.",
"i f g i i d p f  .$ 0 9 Q 9.y.5.U r t f f  . .w 9 W 7.N.&X1X8X9X7X<X,X,X>X>X~.G.g.g.C.Y.P.C.8.W H : q % t % f X.X.X.% : / 6.[.#X.XL.7.P e w p ..f f  .| # . Y 8.",
"# p ..g f f p f t f t w G Q ^ P y f X...f  .t = F 5.M.&X0X0X9X7X<X>X,X-X-XOXJ.x.8.8.d.F.F.g.~ A = $ f X.t t | X.X.t - S } [.4XpXyX&XA.5.N O % ..p i f f $ . Y q.",
"O 0 t ..X.X...f  .f % w : < 3 6 t  ...X.X.X. .- S { n.@X9X9X9X7X2X;XQ.G.Z.C.p.^ S F W u.g.g.5.P ; q t t t t X.f t , H 4.[.4XkXkXpX0XU.d.T 4 w X.X.X...d : S 7.M.",
"2 ; w  .X.X.........f f $ q q d  .f  ... . .f t y P { v.U.,X3X9X3XOXD.t.>.3.^ S : : 9 ^ p.C.n.w.[ 6 # t | | X.t : P 4.M.=XuXlXlXyX7XR.p.C 1 q X.X...w ; L 4.N.&X",
"R K y h f ......X.X.X.X.X. ..... .f f f f t t X...q 1 Q s.P.-X1X,XW.m.2.! >.E 7 w $ , Y p.T.~.Y.p.I 4 r | X.X.- S 1.n.&XeXtX9X6X<XXXD.8.D & $ t p q = J 4.A.=XtX",
"x.w.[ y % f  .f f ..X.X.X.X... .f % f % t f X.X...$ + 7 Q p.F.T.S.V.z.i.i.z.7.P : O 7 7.A.-X,X~.F.8.K 4 t X.X.: D q.I.1XeX=XXXI.K.D.w.W 4 q t t @ = J 7.A.&X6XtX",
"@XL.l.L 4 w f f f f f f ..X...f f  .f % f g ..X.p $ $ - S Q 8.r.9.q.v.L.@X@XN.l.P L { N.&X7X,X~.T.j.8.Y u t f - A 0.P.,X=XI.z.9.9.3.E 7 q t t # & J 4.L.*X6X7X7X",
"0X=XA.! X O $ f .. .f t  .X.....X.X.X. ...f d h d w i $ 0 1 N M V <.M.=XyXyX5XN.w.w.M.1X0X9X,X+X~.K.m.r.W 8 t @ 7 ^ x.Y.K.s.R B B D ; 0 % % q ; J 1.L.=X9X9X>X+X",
"lX4XL.! X = # p X.X......... . .X.X.X.X.f q * X < = $ $ $ q & . m ! M.=XiXyX0X&XJ.L.@X6X0X0X<X,X:X~.K.B.5.I 7 : 0 G 4.f.d.{ 3 4 : e w $ $ @ 4 I 5.V.-X9XeX8X:X~.",
"zX4XM.R X - $ p X.X.X...X... .X.X...X. .s G K ! Y H e w f p q & N >.L.=XtXtX0X6X=X=X6X0X0X0X7X3X,X;X~.Y.c.5.K 8 q r U { ^ L 0 % p p p p t * F 8.A.W.2X3X1X-XR.H.",
"kX4Xb.R < q f X.X...f f  .X.X.X.X. .f r G { i.m.s.4.G e f  .t u [ z.U.6XtXeXtXtXtX0X0X9X9X9X9X7X<X>X+X~.H.y.>.G t  .r 1 1 : t  . .f ....f < R g.E.:X>XXXY.K.B.d.",
"rX#Xv.Y X - f X... . .%  .X.X...f w - 7 { z.U.&X.XM.{ S & & 7 P z.L.<X7XeXiXuXuXeX0X9X9X9X9X9X7X<X:X~.E.Z.r.! A # t $ 0 q f  .t : 5 r  .f 7 ! k.T.~.Q.F.g.g.r.3.",
"9X&Xz.T X + d X.....f t f  ... .f q & K z.U.6XeX6X@Xz.` N N Q l.U.6X9X9XrXlXlXpXrX9X8X9X9X9X7X7X<X:X+X!.F.y.~ S - t % p  .| t u F I G h d 4 L q.D.K.C.0.>.^ Q Y ",
"6X@Xs.C < # i ..X.f t f p f f p % 0 A ! n.*XeXiXrX6XU.M.u.u.x.XXqXyXiXrXuXlXzXlXuXrX9X9X9X9X9X3X,X:X~.~.K.B.9.Y 3 r  ... .% : J <.0.` G 0 O 4 W q.f.8.I < X < & ",
"6XXXz.K < @ f  . . . .%  . . . .d 0 2 T v.&XeXyXtX9X=X&XU.U.&X1XiXlXlXlXlXlXzXzXlXpXqX9X8X9X7X3X<X:X;X+XQ.P.c.0.Q S q t  .0 S >.d.g.t.` 3 - q u ' <.Q 7 + w q @ ",
"9X&XA.Q A : f  . . .X.p  .X.X. .f $ 1 C z.XX6XeX0X9X8X9X8X6XqXuXkXzXxXzXlXzXzXzXxXlXuXqX8X9X9X3X>X:X;X>X:X~.T.C.t.Y 3 0 q 9 Q x.H.K.D.q.K 5 w q H K S : % X.| % ",
"7X<XU.v.{ G q t ..X.X.X.t % X.X.f i & B u.I.3X0X0X0X0XtXyXiXpXzXxXxXxXxXzXzXzXxXxXzXiXqX9X9X9X7X<X:X;X>X>X>X~.R.C.8.I & 1 W s.Y.OXOXE.C.0.P : - * ; 0 t X.X.% $ ",
",X<X6X@XN.4.F : t X.X...t  .X.X...w 1 T a.P.>X8X9X0X9X0XyXpXzXxXzXxXzXzXzXzXzXzXxXlXuXqX9X9X7X3X>X;X;X>X>X>X>X+XR.B.5.T Q i.I.-X>X:X+XY.m.8.W 7 e t t  .X.X.% # ",
"+X<X0X9X&XA.5.L r h  .t t X.X...d 5 L 1.V.R.:X3X7X8X9X9XrXuXlXlXlXlXlXzXzXxXzXzXlXpXrX9X8X8X7X<X>X:X;X:X:X>X:X:XOXP.g.q.d.G.-X<X2X>X:XXXH.j.2.D e  . ...X...% $ ",
"~.,X9X0X7X-XA.8.W 9 q  . .....$ ; L 4.n.R.;X:X>X,X<X7X9XrXyXuXyXrXuXlXzXxXxXzXlXpXrXqX9X9X3X<X>X>X:X;X;X:X>X>X>X>X+XT.F.K.Q.>X<X3X>X>XOXY.Z.3.N * % X.X.X. . .% ",
"P.R.&X,X<X,XR.g.>.3 - t ..t t 4 J 8.V.W.-X>X:X;X:X,X<X8X9X9XqX9X8XqXuXlXzXxXzXiXeX9X8X9X7X<X:X:X;X:X;X:X:X;X>X>X>X;X+X-X-X:X>X,X>X:X+XR.Z.d.1.A = %  . . . .%  .",
"g.V.H.K.Q.Q.J.z.Q 7 0  ...t 4 J 2.V.T.;X,X>X:X;X;X>X<X<X3X3X<X3X7X9XrXiXlXlXpXrX9X9X7X3X<X>X;X;X;X:X:X:X:X>X:X;X+X-X:X2X2X<X>X:X+XXXR.Z.t.1.L : 0 t  . .% t % % ",
"r.y.d.d.g.g.q.[ u r t ..w : Y 2.s.F.T.E.+X:X>X>X:X:X>X,X,X>X,X2X8X0XeXtXtXyXrXeX9X7X7X,X>X:X;X;X:X:X:X:X:X>X:X;XQ.Q.OX>X2X2X>X>XoXT.Z.u.' J , a p g g g g g p a ",
"Y R R R ! ] K 8 t %  .f : F >.d.F.E.T.Y.Q.~.:X>X>X:X:X:X>X+X:X2X7X7X9X8X7X9X9X9X9X7X<X>X;X;X;X:X:X:X:X:X>X:X-XQ.Y.P.E.;X>X>X;X;XoXK.k.3.B ; a p X...g p p p i @ ",
"< X < & X < & + % f t f ; K 9.C.Y.!.T.H.P.Q.;X;X>X:X:X:X+X+X+X>X<X<X3X,X<X<X<X<X3X2X>X:X;X;X:X:X:X:X:X>X:X;X~.T.K.K.T.~.-X+XoXoXE.H.j.<.N ; p X.X.g i i i @ = & ",
"+ # a a a q $ $ t | % t ; J 3.j.H.E.T.K.P.Y.Q.~.:X>X>X:X>X:X>X>X>X,X>X>X>X>X>X>X>X>X>X:X;X;X:X:X:X:X>X>X;XQ.T.K.K.K.Y.R.R.R.T.R.oXK.j.2.N ; i g X.X.g p q * 2 N ",
"$ i p f | X.| |  .| p  .q 8 W 8.c.H.Y.H.F.C.C.P.OX>X>X>X:X:X:X:X>X:X:X;X:X;X;X;X:X:X:X:X:X:X:X:X:X>X:X;X~.Q.Y.Y.Y.K.F.C.C.F.P.T.K.C.d.] D = a p p p p i q / { { ",
"i i i i p X.X.X.X... . .f r 4 I 5.c.H.H.B.u.9.c.P.-X+X+X+X:X>X>X:X:X;X;X;X;X;X;X;X;X:X:X:X:X:X>X>X:X;X~.E.T.T.E.E.K.c.q.t.c.K.K.V.r.3.` 5 a i i i i i 0 / l.[..X",
"$ i i f g f g p  .t f t t t w 4 K q.C.H.c.8.>.q.C.P.Y.Y.oXoX:X>X:X:X;X:X;X:X:X:X;X:X:X:X:X:X:X:X:X;XQ.R.K.H.K.Y.Y.F.y.2.2.f.F.C.y.] / 9 s a i i i @ > / 6..X4XwX",
"$ $ i | p i i i t % % % t t w & K 8.C.K.Z.p.2.3.y.g.g.g.S.XX+X>X:X;X:X:X:X>X:X:X:X:X:X:X:X:X:X>X:X;X~.R.H.D.V.c.c.d.9.3.8.p.c.p.<.J 8 a h i 0 > O = 2 ` b.4XzXlX",
"$ i i p f i i i $ i i $ d $ = < V 8.V.Y.Y.D.a.9.2.>.>.3.g.K.oX+X+XOX;X:X>X>X>X>X>X>X>X>X>X>X>X;X;X~.~.Q.H.g.r.<.,.3.r.a.d.a.9.] I 9 s X.g a 4 X X A [ b.*XiXpXiX",
"$ i i p f p i $ $ $ i $ $ r 5 S K ,.y.D.T.T.F.d.2.Z V Z 2.h.Z.H.G.K.E.+X>X:X;X+X;X+X-X+X:X:X;XoXP.G.G.G.h.9.] V C 2.d.D.D.a.<.K 7 a g p r G E <.~ 5.M.@X0XtX5X@X",
"i i i p  . .p i d p p f a a u 9 / / 1.s.F.T.T.D.y.~ V V V <.r.y.a.m.K.oX:X+XOXoXoXoXoXoX+X;XOXY.C.d.p.a.3.Z M M Z r.Z.T.H.y.~ D 5 s d l G Q q.k.m.D.XX6X0X7XU.n.",
"i i p X.X.O.f p g X.X.X.f a 9 l 9 F / ] f.D.Y.T.F.y.>.M m V ! ~ <.9.B.T.oXXXR.Y.Y.Y.Y.Y.XXoXE.D.p.<.~ ~ C M M Z r.Z.T.T.D.y.] D 4 a 5 H ! q.V.T.E.~.<X7X<XW.z.^ ",
"i i d g X.X.X.p i i k c j s s a e 5 D T r.k.Y.oXE.C.t.~ M m n m M ! 3.B.H.G.K.Y.P.K.P.K.K.G.B.r.>.V m m m M Z 9.V.E.oXQ.D.y.<.J 5 l 5 F R r.Z.E.~.+X:X;XJ.u.W < ",
"# $ p f | X.X.| i a ( =._ l h i a 5 N C 9.j.XXoX~.P.Z.y.] M b   b M Z 3.s.Z.K.K.K.K.K.K.D.g.8.~ V b     M Z 9.h.Y.oX+XoXF.y.,.K 4 e q 6 P ] a.Z.F.G.K.D.p.Y 1 o ",
"i d g O.X.X.| X.o.c ;.$X;.v g p h 8 D Z 9.B.Y.oXT.Y.Y.F.t.] M b m M V ! 9.g.K.R.K.Y.T.P.C.y.>.V M m n m Z 9.C.H.T.T.E.R.Z.y.>.K 3 e k f s H ` 3.3.2.3.2.Q G q t ",
"( $.&.$.$.+.c x v $.;.`.=.x O. .j 8 S K 1.y.Z.K.Y.E.~.E.Z.q.,.Z ,.,.~ 2.r.C.P.E.Y.T.R.T.D.d.<.] >.>.! ! 9.B.T.oXK.C.Z.C.f.3.Y D 3 e d f w : 3 J J F J J H u v @.",
"^.`.]._./.;.;.;.;.=._ _ v g ..g s 6 5 H / ] r.B.H.oXOXoXK.V.d.p.d.d.p.a.m.F.Y.R.Y.Y.T.T.H.B.a.a.d.a.a.a.B.K.oXP.g.r.9.r.2.` H 7 5 e d p i i + : - = O = , ( =.(.",
"$XhXhXfXfXgXcXcXgX(.( h a h p h s s s , 7 B ] r.V.Y.K.K.K.K.K.H.H.H.G.K.K.G.K.K.K.K.K.H.H.K.K.G.G.H.H.K.Y.Y.H.h.3.! Z ! K H l l s s a g O. .X.g g o. .p s $.{.cX",
"`.`.'.{.$XmXMXMXmX(.z f i i p g d a a s 5 3 J <.y.k.g.B.S.T.oXK.D.D.K.R.T.Z.B.V.K.K.D.j.V.K.E.Y.F.D.H.E.oXK.g.8.Y D D D D 5 , s h d g ..p X.X.X.g p  .p d z ;.{.",
"l z c @./.dXnXMXmX(.( g i p p ..g d a s , 5 7 / 1.3.3.3.f.K.Y.D.a.y.Z.P.H.p.q.a.H.H.m.9.u.D.Y.F.a.y.B.Y.Y.V.3.` H 5 5 8 8 5 l h g p O.p i d p ..p i f f d a l ( ",
"h f g o.#.:.sXMXmX}.*.a @ i X...p p i a s s e / K C B ` ,.h.B.u.] ] q.j.f.1.R 1.h.g.q.` ] p.m.a.] ] 3.B.k.q.` D 4 s s s h s s d f  ...k g k k  .X.X.X.X.X.g f d ",
"t  ...X...v :.dXnXfX{.*.z d X.O.g p p h a a e 8 S D X N ` 3.r.1.J J ] 9.0.I J ` 9.3.] J / 1.q.2.I H ' q.9.] D 7 , q a d f d d f  . .x &.).).;.v g | | X.X.| p p ",
"% f X. .g g ( :.dXmXcX}.=.k ..X...p i i a + , y 6 5 , 5 / ` ] / 7 7 / ] ' H 9 H ] ] / 8 H ` ] ` / 9 / ] ] I 9 e l > q d d i d o.k k ( /.fXbX$X=.v h d o.o.g p f ",
"% f f  .X.X.g v ;.fXMXcX(.@.O.p p p i i a a a h s 0 a e 7 J B S 5 5 S J F 9 , 9 / J S e 6 S J S : 6 7 J F H l s q q w i i h j +.v z _ ^.sXmXmXdX;.( z z x h d % ",
"% p  ..... . .d v '.gXmX'.@.o...f ..f d p d f ..p # q > 5 1 3 1 ; , 5 3 5 6 , , 7 7 5 s e 5 3 5 , e 5 3 7 6 s s d d p p d ( ;.).).^._ *.^. XcXMXaX`.'._.-.v a % ",
"% f X.X.f % f p o.$._.dX_.$.o... .X.X. . .X.o.X.g i # > , 5 5 , > > l e , e l s e y s e e > , 6 e e , , , l e a d ....g k =.}.cXcX$X_ @ s *.{.cXvXhXvXhX}._ d i ",
"% p X. .% % $ % X.o.$.;.;.-._ c g X.X.X.X.X.| X.X.p $ - - # a a r q r d a a h d d h s a - - - q h h d d h a a d X.X.X...k $.;.}.}.:.v a a z *.(.(._.{.'.;.v d p ",
"p f  . . .f %  .X...f v =.^.^.%.k X.X.X.X...p ..X.X.f d i i p i d f p f g p p g f f d d d i i p g g d g g d i g X...X...g j ( *.=.#.k p p i x ( $.$.%.%.( k f d ",
"%  .X.X.X.X. .X.....f d %.(. X-.j ..X...g p i g X.X.......X.X.X.X.X.X.f f f .... ...X.X.X.X.X. .X. .p p p X.X...g g g g p p p g O.O.X.X...X.X.X.X.O.O...g f p i ",
"% %  .X. . . .X. ...f d x &.=.#.f f p p ..X...p p X.X.O.X...X.X.X...f ....f i p g g ..X.X.p | X... .p i X.X.O.k x _ c i X.O...p p X.X.X.....X.X.X.| p | p i i @ ",
"% %  .X. .p  . .....f i d j j h d p d p ..X.g p p X.X...g p d ....f d f ..f p p | g p  .p i f X.X.g p a d f X.$.;._.=.x g | p p p X.X.X.X...g ..X.g g X.X.f i i ",
"% | X.X.X. .p  .X.f i i i d d d h h o.X.| p i | ..g g x v z z x x v x k o.f X.X.X. .o.x j d d g X.p a s j h z /.dXcX}.%.c h d p ..| X.X.X.p p ..| X.X.X.X...p p ",
"% p .... .f  ... . .p i  .| f @.%.%.x p p ..| ..p h _ :.|.{._.'.'.'.'.-.#.k ..X.g k ( ^.;.v g | g d ( -._.{.'.sXmXMXcX X).(.b.+.d p ..X.X.p p ..X.X...p p X.| p ",
"% p  . . .......f ....f  .....=.'.'.*.j g o.O.f p h %.{.cXfXaX$X$XdXvX$X/.#.o...d z *.}._._ o.X.p d $._.dXhXaXdXhXfXfXdXdXgXsX:.( j g o.O.g  .X.X...p i i X.| p ",
"% p p f ..X.X.X.X.X.X...f % ..:.aXcX{.%.( ( ( a i g ( ;. X}.`._.). XnXmXdX:.@.j v %.;._.-.c o.X.X.f v ;.}. X].(./.;.;._.aXcXmXdX(.$.( ( v k p X...g g | | X.p i ",
"$ % i i f ....X.X.X... .p p ..=.}.mXcX X X|.`.) a g k ( *.%.$.&.$.:.|.cXmXaX{.'.}._.=.%.v g  .X.X.X.x ( &.=.&.$.@.+.@.$.:. XcXnXfX}. X{.^.( d X.X.X.p ..| X.i @ ",
"% % % % p f f  .X.X...f f g @.:. XmXbXfXhXfX|.%.k ..f i t % f  .| o.&.|.vXbXbXcXcX{.( s i p f p X.X. .p i p g |  . .p  .k =. XgXgXdXcXdX`._ a ..X.X.| ..X.X.i @ ",
"p i % i f % f  .......f d ( /.sXnXnX$X^.^.^.=.( k X.X.X.f ....f % % x =.{.vXmXbX X*.s h i i p g  . . .p p f  .d t p i f X.+.%.-.;.;.(./.%.c d g p p ..X.X...p i ",
"$ $ $ % % % i i p % p d z -.aXnXnX}.;.( v c x j d f  .f f f  .p $ $ % s *. XhXaX=.z a i i i i i p i p i p i d i p p f f f d h v ( v ( ( x h i p i i p p i i i i ",
"@ $ % % i f % % $ $ $ w ( _.vXMXgX;.v $ $ $ % f i % % % % % % f $ $ % @ ) ].}.`.z @ $ i i i i a i @ $ i i i i i f % i % $ $ t f p i i i i i i p a @ i @ @ # @ @ "
};
