/* XPM */
static char *__resized[] = {
/* columns rows colors chars-per-pixel */
"80 80 253 2 ",
"   c #1C1C17",
".  c #271C18",
"X  c #231C1C",
"o  c #351B18",
"O  c #1E2516",
"+  c #1E3714",
"@  c #35260E",
"#  c #232B16",
"$  c #232219",
"%  c #282519",
"&  c #252B19",
"*  c #372417",
"=  c #243416",
"-  c #263B16",
";  c #293619",
":  c #2B3C19",
">  c #353817",
",  c #1D1B23",
"<  c #251D24",
"1  c #341E23",
"2  c #2C2325",
"3  c #2B2627",
"4  c #332424",
"5  c #362828",
"6  c #3B2C2B",
"7  c #37332E",
"8  c #393728",
"9  c #3A2B34",
"0  c #4D1B16",
"q  c #532C0F",
"w  c #472618",
"e  c #552918",
"r  c #463915",
"t  c #573815",
"y  c #64290E",
"u  c #652B19",
"i  c #683615",
"p  c #633B14",
"a  c #773716",
"s  c #7C3C15",
"d  c #411F27",
"f  c #462B28",
"g  c #562B26",
"h  c #49332A",
"j  c #583629",
"k  c #432D34",
"l  c #433333",
"z  c #4A3937",
"x  c #553B38",
"c  c #67372A",
"v  c #65382E",
"b  c #743B29",
"n  c #2B4417",
"m  c #294817",
"M  c #2C4419",
"N  c #2D4B19",
"B  c #314C1B",
"V  c #394818",
"C  c #2E5218",
"Z  c #395517",
"A  c #33531A",
"S  c #3B5419",
"D  c #355B1B",
"F  c #3C5C1A",
"G  c #37631B",
"H  c #3B641C",
"J  c #3D6C1D",
"K  c #3E711E",
"L  c #3D4024",
"P  c #3F6F20",
"I  c #3F7220",
"U  c #444515",
"Y  c #4C4315",
"T  c #444B16",
"R  c #4C4C16",
"E  c #474A1A",
"W  c #534415",
"Q  c #5C4316",
"!  c #544B16",
"~  c #5C4B17",
"^  c #554E18",
"/  c #485217",
"(  c #435419",
")  c #4B5519",
"_  c #445B1A",
"`  c #4B5C1A",
"'  c #575217",
"]  c #535418",
"[  c #5B5319",
"{  c #535B1A",
"}  c #5D5C1A",
"|  c #644415",
" . c #6C4516",
".. c #654C17",
"X. c #6C4B16",
"o. c #7C4416",
"O. c #764817",
"+. c #7B4B16",
"@. c #6C5217",
"#. c #645618",
"$. c #6B5419",
"%. c #6C5B19",
"&. c #775618",
"*. c #43641B",
"=. c #4B631B",
"-. c #436C1D",
";. c #4B6B1D",
":. c #53631B",
">. c #59661C",
",. c #41741F",
"<. c #4A731F",
"1. c #43781F",
"2. c #54701F",
"3. c #70621A",
"4. c #4F4330",
"5. c #54423D",
"6. c #5B4238",
"7. c #78472B",
"8. c #674738",
"9. c #774734",
"0. c #755331",
"q. c #427620",
"w. c #4B7320",
"e. c #4A7620",
"r. c #457C21",
"t. c #4A7C21",
"y. c #513F41",
"u. c #5A4743",
"i. c #534A47",
"p. c #654C45",
"a. c #68554A",
"s. c #705A51",
"d. c #6F6250",
"f. c #786559",
"g. c #9A3A0E",
"h. c #863A17",
"j. c #933D15",
"k. c #8E3E22",
"l. c #99480B",
"z. c #874717",
"x. c #8C4B19",
"c. c #974717",
"v. c #93441A",
"b. c #944B19",
"n. c #865718",
"m. c #985718",
"M. c #AA530B",
"N. c #A74B17",
"B. c #A85818",
"V. c #B65A19",
"C. c #BB5B1C",
"Z. c #896218",
"A. c #996518",
"S. c #A56419",
"D. c #AB641A",
"F. c #AB6818",
"G. c #B66618",
"H. c #B46B1A",
"J. c #BC6C1A",
"K. c #AE7219",
"L. c #BA751A",
"P. c #874827",
"I. c #954723",
"U. c #9B5927",
"Y. c #92502D",
"T. c #874A33",
"R. c #885635",
"E. c #975935",
"W. c #A5562F",
"Q. c #986D26",
"!. c #8C6830",
"~. c #9A6737",
"^. c #A76825",
"/. c #B77729",
"(. c #B1722E",
"). c #A66936",
"_. c #C55F1D",
"`. c #C56A1C",
"'. c #CF7215",
"]. c #C4731B",
"[. c #CA741C",
"{. c #C37A1A",
"}. c #CC7C1C",
"|. c #D57A1D",
" X c #C87629",
".X c #D77921",
"XX c #9F5E4B",
"oX c #8A6E50",
"OX c #A77348",
"+X c #478022",
"@X c #498423",
"#X c #4C8A24",
"$X c #4D9025",
"%X c #B78534",
"&X c #CC841B",
"*X c #D7841C",
"=X c #D48B1B",
"-X c #DC8C1D",
";X c #DA951C",
":X c #E08B1E",
">X c #E2941D",
",X c #E79C1E",
"<X c #EAA41D",
"1X c #F2B21F",
"2X c #C98528",
"3X c #DB8722",
"4X c #CF902E",
"5X c #D79327",
"6X c #C78632",
"7X c #CC9234",
"8X c #D89937",
"9X c #E48C21",
"0X c #E79822",
"qX c #E29334",
"wX c #DCA52E",
"eX c #EAA726",
"rX c #F1A823",
"tX c #EAB32A",
"yX c #F3B724",
"uX c #E6AB37",
"iX c #E9B538",
"pX c #F4B838",
"aX c #FAC82B",
"sX c #F8C636",
"dX c #F4CC3B",
"fX c #938953",
"gX c #B28F54",
"hX c #B2AB5B",
"jX c #9A8F64",
"kX c #B78C73",
"lX c #B3A86B",
"zX c #C29A59",
"xX c #DAB257",
"cX c #E3AC40",
"vX c #EAB744",
"bX c #CFB670",
"nX c #F5C747",
"mX c #F5CF49",
"MX c #E6D76F",
"NX c #B9A488",
"BX c #C8AD8F",
"VX c #C7A7A0",
"CX c #D3D089",
"ZX c #E4DB86",
"AX c #E9D98B",
"SX c #F0EF98",
"DX c #E9DABF",
"FX c #F0EAB2",
"GX c #FAF9BB",
"HX c #F6F1CF",
"JX c #F1EAEA",
"KX c #FEFFE7",
"LX c #FEFDF9",
/* pixels */
"C G ,.K K K K G U n.J.{.&.T H ,.J A  .V.0X-XG.Q S ,.1.1.I J J I K I 1.V p /.tXaXeX0X0X'.j.r H H / n.G.n.^ V V F ,.,.1.K H J K r.q.q.q.q.K J P K K I r.K K 1.K G ",
"H J K K q.K K D Y A.}.}.+.U H K H ( +.`.0X-XB.W Z J ,.J I q.r.r.r.r.-.V p J.0XyX0X9X.XC.o.U H _ | K.=XL.$.U _ J J ,.1.K K K 1.q.q.I K K K q.q.t.r.I K K K 1.K J ",
"1.1.1.1.+Xr.K D Y A.L.{.n.! -.J *.#.Q.wXeX=Xm.W A I J I q.+X#X#X#X+XK U p G.9X,X3X`.C.x...F H R h.2XyX0Xm.t e.I 1.1.K J K q.r.I I I P P q.+X#X#X#X+XK K K +X+X1.",
",.1.@X#X@Xt.1.K ;.[ X.@.>.+X@X_ [ Q.uXdXyX=XB.~ F t.@X+X@X+X+X+X+X#X+X( p V.*X>X.XC.v...*.q.J E a 4XvXuXn.t r.#X@X+X1.J r.@X#X#X+X+X+X@X@Xr.@X@X@X#X@X1.K +X1.K ",
"K 1.+X+X@X#X@X@X@X*./ ) <.$X@X/ |  XnXmXaX;XJ.x.} ;.+X#X@X+Xr.+Xr.t.@X) i V..X9X.XC.j.^ -.#X+X/ i  XuX5Xn.Y t.@X#X@X+X+X#X#X#X#X#X@X#X#X#Xr.r.r.r.r.@X+X+Xt.r.K ",
",.K 1.1.t.#X#X#X@X1.,.1.@X#X+XT p /.vXmXyX<X-XJ.z.R e.@X@Xt.q.t.I I t.)  .V.[..X[.V.v.W *.#X@X{ a /.eX=Xn.t ;.r.t.#X#X$X#X#X#X#X#X#X#X#X@Xr.r.r.K K @X#X@Xr.q.I ",
"J K ,.1.t.+Xr.+X1.1.K 1.1.1.+X/ | (.eXsXtX<X0X.Xc.p ;.#X@Xq.q.q.P P t.e.{ +.N._.V.z...=.K ,.` @.A.;X<X>XD.O.] -.r.+X+XI q.+X+X+X#X#X#X#X@Xq.q.q.K K +X#X#Xt.K G ",
"J J 1.1.r.K I I K K K K G J 1._ ..H.0XyXeX,X0X[.m.Q w.#X#X+X+X+Xr.I @X@Xw.^ z.v.h.| _ 1.K (  .S.=X;X;X-X}.D.O.{ I +X+Xq.r.q.r.q.r.@X#X#X@X@Xt.@Xq.q.@X#X#XI J G ",
"J K 1.t.r.I I I K K J H S S H ( | G.>X<X:X|.[.m.@.=.1.#X#X#X#X#X@X@X#X#X+XJ E t y Q J t.J U b.}.1X;X{.{.-X|.c...J r.#X#X#X+XI K q.#X#X#X#X#X#X#X#X+X#X#X@XK J J ",
"J J 1.r.r.I H H K K J / X.@._ Z W B.[.:X|._.c.#.;.1.#X#X@X@X@X@Xr.I q.+X#X+X*.! s  .H q.-.( o.H.,XL.B.V.[.].z.[ ,.t.#X#X#X+X+X@X#X#X#X@X@X@X@X@Xr.I q.+X#X@Xq.1.",
"K K q.+X+X1.( _ K J :.&.S.S.%./ ) &.B.`.C.v.X.=.1.#X#X#X1.+X@X@XI J I r.@Xe.>.3.F.n.#.;.,.*.[ n.K.K.H.G.D.m.#.;.t.+X#X#X#X@X@X#X#X#X#X@Xr.r.@X@XI J K +X@X@X+X1.",
"1.1.q.@X@X;.| ..-.H #.S.=X&Xm.#.-.` &.c.j.X.=.q.@X#X#X+X,.@X#X#XI P I @Xt.( @.D.;X{.m.] ,.@X-.] o.L.;X&Xx.! 2.#X@Xt.+X#Xr.+X@X+X@X#X#X@Xq.t.$X#XI J K @X#XI K 1.",
"J K K ,.:.$.m.m.#.T ] &.L.K.&.:.K 1.>.~ [ ;.t.+X@X#X#X#X@X#X#X#X@X+X@X#X+XJ [ n.L.F.@.=.r.#X+X` i L.<X=Xn.Y 1.<.=.*.t.+X@X#X#X+X@X#X$X#X@X@X#X#X@Xr.@X#X#Xr.K K ",
"J K 1.F ~ m.[.J.z.! F :.&.n.:.-.K t.,.H -.r.#X+X@X+X#X#X$X#X#X@X@X#X#X#X@Xr.;.} n.&.` ,.t.+X+X:.a L.<X-Xz.Y 1.{ r T -.r.#X#X#X+X@X#X@X#X#X#X#X#X#X#X#X#X@X+Xq.K ",
"1.1.1.( X.V.-X*XB...H <.` ) <.,.-.*.H J q.@X#Xr.K r.+X@X#X#X#X+Xr.r.+X+Xr.@X@Xw.) =.<.1.-.*.r.{ s ].,X*Xx.! <.[ i r _ P r.#X#Xq.q.r.@X@X#X#X#X+X+Xr.+X+X+X+X+Xq.",
",.+X+XS X.G.0X,XG.@.F t.1.,.t.>.@...` J I t.+XI K 1.t.t.K +X@X@X@X+X+X@X@X@X#X@XK 1.1.3.%.%.=._ | G.|.`.+.R -.#.O.Q _ J I r.r.q.I r.r.r.r.r.@X@X+X+X+X@X#X#X+X1.",
"J t.1.S ..^.eXuX Xn.#.-.1.<.;.n.S.m.%._ K q.q.q.r.t.t.q.r.r.@X#X#X#X#X#X+X#X#X#X+X1.>.n.B.A.[ ( ! n.B.n...T ` Z.Q.!.} J -.q.q.q.q.+Xr.r.q.r.+X#X#X#X#X#X#X#X+X1.",
"1.1.K Z  .H.vXsXeX].x.Y F *.Q F.;X=Xm.W -.+X#X#X@X#X@X#X#X#X#X#X#X#X#Xr.q.+X#X#X+X` ..K.-X&X+.^ <.[ Q ! _ / O.%XiX4Xn.U ,.@X#X#X@X#X@X#X#X#X#X#X#X#X#Xt.r.+X+XK ",
"K J ` ..m.2XiXpXrX.Xb.Y S _ i K.eXqXB.q *.+X@X#X#X#X#X@X+X@X@X@Xr.r.+Xr.I r.+X#X+X;.>.A.K.F.$.*.q.*.` *.G / s 2XpX5Xn.r -.+X@X#X#X#X#X@X+X@X@X#Xt.r.+Xq.I r.1.1.",
"K F W b.].0XrXyXrX|.m.t F _ p /.vXiX^.t *.q.t.@X#X#X#X@X1.t.@X@Xq.K r.+Xr.I r.#X@X+X<.#.O.&.:.I q.K q.t.J / s {.eX3Xm.Y *.r.t.@X#X#X#X@Xq.+X@X@XI K +X+Xr.K K K ",
"I ) i V.|.0XrX<X0X|.N.t F _ t (.vXmX4Xn.[ *.1.+X+X@X@X#X#X#X#X#X#X#X#X#X#Xr.+X#X#X,.( T ` 2.@X+Xt.H Z F G ) s G.;X;XH.+.] ,.t.t.+X@X@X#X$X#X#X#X#X#X#X#X@X+X1.1.",
"I _ Q N.`.9X:X:X|.C.x.W -.=.p (.iXdXtXL.z.[ -.+X1.J J J K r.+X@X#X@X+X#X#X+X#X#Xr.>.X.~ *.q.q.q.t.#.@.} ` ) s G.-X,X3XD.O.] q.@X#X+X+X+X@X+X#X+X#X#X@X#X#X+Xr.1.",
"K J ` X.c.C.C.C.C.b.@.;.1.;.p S.uXaXyX*XN.X.H 1.J M m m n A K t.q.q.q.+X#X+X+Xt.` n.B.n.} F A V ` A.D.Z...W h.B.3XrX0X.Xv.t J @X#Xr.+Xq.I q.r.+X1.q.q.@X#X+Xt.1.",
"1.1.,.` X.h.s h.h...=.1.@X;.i D.5XyXrX[.c.X.H D M 8 % 3 & M A 1.I I t.t.t.q.-.`  .B.*XJ.x.t % * i K.&XK.+.y a m.}.9X3XG.a ! e.#X#XI I r.t.q.I r.K K +X+X@X@X1.K ",
"K q.+X1.` ! W W ~ =.K r.+X=.i B.>XrX,X[.c.p V M 8 5.5.5.z 8 n A J q.@X-.F B : > a C.-X'.l.u k f e O.Z.3.$.[ [ +.B.].G.z.q V t.#X+XI ,.q.q.q.I K K I +X+Xt.+X1.K ",
"K r.@X@X1.G J ,.<.q.q.J 1.;.p m.}.,X9X].l.q . % i.f.oXf.s.z & - C K r.` h r * w a V.*X`.c.c p.z . % @ n J +Xe.] s c.h.u * M I @X@Xq.I K I I K K K K @X@X+X+X1.K ",
"K 1.@X+XK K J 1.@Xe.F ( <.<.` %.m.].`.m.%.>   5 i.oXf.f.f.p.l $ + n + ^ !.gX%X0.z.D.=XJ.v.v a.i.9 1 < , N I r.S @ u b 6.7 : M K @X@Xq.K K I I r.r.r.+X+X@X@X+X1.",
"1.t.@X+X+Xr.K <.t.>.$.$.2.<.1.{  .c.z.%.;.m O 8 p.f.f.f.s.a.5.h 8 V V %.%XmXxXgXz.M.=X{.N.b p.s.a.d.a.5.> B J V > z p.s.u.l 3 A I +X+Xq.q.t.@X@X@X@X+X+X@X#X+Xq.",
"K t.#X#X#X#X@X,.` Z.H.H.%.=.1.=.t y Q -.t.C # 8 i.a.s.a.p.y.u.a.fXfXfXfXgXbXbXgXh.B.;X;XJ.v.T.oXlXbXbXfXj @ V > 7 i.f.f.s.v 5.8 N J +X#X#X#X#X#X#X#X#X+Xq.+Xq.K ",
"K K +X#X@X1.@X-.W A.|.&Xn.R ;.>.X.p ) K +XG O 8 z p.a.p.u.k y.fXlXZXZXCXlXjXoXXXx.F.,X1X-XN.k.OXCXSXZXzXv.y t x a.f.oXXXI.P.8.l 8 N q.#X#X@X#X#X#X+Xt.q.-.q.K H ",
"K 1.@X#X+X1.+X,.{ Z.K.K.&.! ) 3.A.A.%.=.+XD O 5 z p.u.u.x 9 x fXZXHXHXFXCXoXR.P.D.5XpXaX>XV.v.gXFXFXbX7XV.g.h.8.s.d.R.^.H.^.R.j % - q.$X#X+X@X@X@X@Xq.;.` *.J H ",
"K +X#X#X@X1.1.+X@X} Q | =._ t S.=X&XZ.! e.C # 3 z y.y.x x 9 x fXZXGXLXKXFXgXU.c.;XaXnXsX;XM.v.kXJXVXOXB.`.G.k.b p.8.P.H.-X].z.e $ n I #X#Xt.r.@X@X@Xt.#.O.] *.q.",
",.1.@X@X+X1.+X+X@Xe._ U T R { &.F.D.&.( r.q.G : 8 l z 5.x 9 z fXZXHXLXLXHXkXE.l.<XaXaXaX=XM.I.NXJXVXXXg.'.{.h.c 5.u.T.m.J.B.7.f % - I $X@Xr.r.@Xr.;.#.Q.(.Q.>.H ",
"J 1.+X+X+X+X#X#Xt.@Xq./ Q #.;.] X.$.>.P t.@Xt.N & 5 z 5.z l 5.oXbXGXKXLXJXVXE.l.;X1XyX1X=XM.I.kXJXVXXXM.=X=Xl.u x u.p.T.z.7.j f & n I #X#X@X@X@Xq.=.O.6XcX6X&.r ",
"K 1.1.1.@X#X#X#X@Xt.:.$.m.S.#./ ( ;.t.@X+X+Xq.m # 2 l z z 8.oXOXjXCXGXKXHXVXoXh.F.=X<XrX|.M.j.kXFXBX).D.wXtX`.c.b x 6.x v g 7 ; m H 1.@X$X@X@X#Xq.{ x.cXnX8Xj.y ",
"J K 1.J J 1.1.#X#X*.#.S..X}.m.#.H +Xq.q.@X@Xq.C ; % k z 5.~. X(.oXfXCXZXSXlXoXc h.M.>XrX|.M.j.OXbXgX).H.uXsX3XM.h.c x i.z 6 2 : G t.1.1.r.r.r.@XH R v.7XsX4Xj.0 ",
"K K K H ( ) <.+X@X/ O.`.9X-XV.%.-.1.=.` t.#Xt.H B > h j T./.qX6X).!.fXhXlXjXd.x y l.*X0X|.N.j.E.gX!.Y.K.uXpX9XC.g.u l i.y.9 $ m J @X+X1.1.1.1.<.] p z.2XtX Xz.0 ",
"1.K -.R X.+.:.1.+X*...B.}.[.v.~ F /  .&.2.@X+Xr.q._ j b ).6X8X8X6X(.0.a.a.a.p.p.P.B.}.|.`.N.h.c x j a G.,XrX.XC.h.b x u.z 6 & N K @X#X#Xt.#X<.] o.j.h.L.,X}.n.> ",
",.*./ n.F.H.&.{ ,.J ` $.B.m.@.T ) n.K.K.&.>.q.@Xr.H > j 7.R.~.~.).).~.0.u.9 y.f.gX2XV.N.g.h.c x z g a V.;X,X|.N.j.I.E.R.v 8 B J 1.#X#X@X+X-.>.Q.(.^.h.G.;X[.n.r ",
"K F ! F.&X=Xm.~ *.I -.)  .@.-.F [ D.=X&Xx.~ -.#Xr.F & o h x 5.u.u.!.%X).8.z 8.jXZXxXW.k.h.b x z z g h.V.|.-X`.N.j.I.E.E.j E -.@X#X+X@X+X1.T 7.7XcX7Xv.V.}.J.O.r ",
"G H :.&.F.H.&.=.1.,.( T ) <.@X,.:.n.G.F..._ 1.#Xt.D # < 5 9 l l i.p.~.~.~.fXhXCXHXDXVXBXzX%Xv d k 9.U.`.V.V.N.h.c c Q 4.( -.t.#X#X@X#X#Xq.Y z.8XmXdX{.G.B.&.) F ",
"Z G <.>.&.@.` J ,.>.@.X.=.K +X1.-.>.@.@.` -.1.@XK C & X 5 6 6 k z z 6.R.%XxXMXHXKXKXJXGXZXgXY.t h 9.E.W.j.h.h.u 5 o * n F 1.+X+Xt.q.r.r.-.U +.7XdXdX,XJ.b.' H K ",
"T _ -.,.*.T H H _ n.D.F.%.*.<.K ,.J S Z -.1.+X1.H C $ < 5 6 7 l l 9 9 7.7XmXSXHXLXLXKXDXbX7X/.Q.a 7.9.7.g e w 1 X o . > H r.r.q.I I K I J U o. XiXaX<X`.z._ J 1.",
"x.@.{ 1.+X,.,._ p F.-X;Xm...<.+X@X1.J G q.@X#X@X1.A # X 2 6 l l 9 3 7 7.(.mXMXGXKXLXJXVXOXK.uX8Xv.g f k 9 5 4 < o t a ~ ;.r.#X+X+X+X+X@X<.R O.{.eX1X-XG.x.=.H D ",
"].F.&.:.1.#X+X_ p G.,X,XB.p *.t.@X,.` ` t.#X#X$Xq.D & X 2 6 l l 9 7 9 h 7.).xXAXGXKXHXkXU.S.vXcXc.u 6 9 9 3 3 o e m.H.A.#.;.@X#X#X#X#X#Xt.Y o.`.,X>X.XC.x.` F D ",
"<X=XF.Q *.#X@X:.| K.,X;Xm.p -.1.<.{  .&.2.@X#X#Xt.H ; X 2 5 6 l z h j k h 9.).xXMXSXAXgXU.D.uXwXb.u f 3 3 2 4 d a J.;X{.O.] t.@X+X+X@X#Xt.E  .H.*X-X`.N.+.( F _ ",
"1X;XH.~ F ,.] @.A.;X<X;Xm.p ,.-.} A.L.K.&.:.r.+X@Xr.F : %   2 j R.).E.E.E.7.9.0.fXjXfX0.I.H.eX5Xj.g 1 < 2 5 5 o w b.G.m.e E q.*.( *.t.#X@X-.{ &.^._.N.n.{ T } n.",
"1X>XJ.~ Z -.| m.=XyXyX=Xb.| ;.J { A.&X&Xz.W A F P q.q.A $ < 6 v E.(.).(.).R.8.h z 4.4.g z.G.5X&Xj.u f 5 3 4 3 X o t O.| * : *.} $.%.<.+X#Xq.H r a j.a } -.V &.^.",
"<X-XG.~ Z *.O.V.>XyXrX&Xv.t *.J ;.3.F.G.a * # O n G t.G O f v T.T.T.0.T.R.E.R.v 1 < < d a G.=X{.j.h.c j 6 2 2 , O > > > $ % Y Q./.(.>.-.@XI C % w e w _ 1.U n.2X",
"*X`.m.R B V p c.[.>X0X[.c.p Z J ;.)  .i o X     O C q.J ; j T.T.j 5 6 5 h 0.R.Y.x 9 1 0 h.V.*X].v.I.Y.b 6 < 4 X & A P H = o a 2XiX8Xn.R r.D ;   X $ # A H r m.`.",
"V.n.@.( n ; * t b.`.|.`.j.t > N B ; * o   O = : M G +XI A ^ 7.b 5 , < , 2 h 7.R.b v k w a V.|.J.k.W.W.9.h * e > B I #X+XZ w s 4XpXeXx.t -.D B M - - n V ! p z.V.",
"i Q *.H N   X * i b.C.C.v.q @ . O       . n H I r.@X$X+XJ _ Y h 4 2 2 5 3 2 6 v E.9.f 0 i M.[.D.h.k.W.9.g e z.%.w.e.r.r.J ! o.&X>X&Xz.Y J r.@X@XI G H [ o.h.c.m.",
"U _ J K J D D A T  .z.v.X.( S M n C A A A P +X@X#X$X$X@X@Xt.*.L % 2 5 5 3 < 5 v E.T.k 1 e z.m.v.u k.Y.k.b P.L.A.#.U > V ' Z.K.=X3XC.s ! <.#X$X$XI *.@.A.L.V.N.N.",
"G J 1.<.q.q.t.t.J R | X.=.1.q.1.K q.I I t.+X#X+Xt.#X#X#X#X@XP N ; 2 4 4 2 < 5 v W.T.k < 5 e a u k v T.k.v.D.5X{.z.@ . o s K.;X,X3XV.s ] @X@X1.1.r.=.O.K.=XS.m.x.",
"K 1.t.,.*._ ,.+X#X-._ *.q.t.+X@X#X+XI J q.#X#Xq.q.q.@X@X@XJ C : n : $ . <   5 b XXT.g 9 2 5 f e g g g u j./.pX5Xm.r # r c.[.rXrX9X_.h.~ t.=._ H q.-.] A.F.%.[ ~ ",
"K 1.<.>.$.n.>.,.@Xt.r.,.J q.@X#X#Xr.I I I r.t.K I q.J H D M - m G F : & & 2 f v Y.b f < < 1 1 f f 8 > 0 z. XnX8XU.T A (  .B.|.>X}.A.| R =.%.n.%.:.r.w.#.%.:.;.*.",
"K J ;.n.F.H.%.` 1.@X@X;.) { <.#X#X1.K 1.K K q.q.I H N : = = n G r.r.D N m > h j j f * < X < X ; V A n @ P.6XmX8Xm.) G <.) +.B.J.S.@.) V W A.J.S.%.,.@X-.S <.1.1.",
"1.( | H.>X>XB.X.-.K -./ +.n.=.1.@X#X@Xr.+X+Xq.q.H B &   $ N J @X@X#X+Xq.H F h w % O O O       : <.K D V +. XnX8X^.] *.1.1.{  .h.s E H `  .L.;XL.&.( +X+X,.+Xt.,.",
"K ( p H.,X<XB. .H F ] n.L.H.&.>.<.@X#X@X+XJ A M : &   X : F t.@X+Xr.@Xr.,.J *.( N C C C n #   - K 1.J T n. XnXpX4XZ.#.*.,.<.)  .i t B B [ Z.F.A.#.*.t.I q.q.-.H ",
"J ( | H.>X;XB. .H Z [ S.=X&Xm.#.-.+X@X+XH N = $ $ $ # : G q.@X#Xq.q.r.+Xr.K q.+Xr.r.+X+XJ n $ = A K -.( 0. XdXdX1X{.z.U -.1.1.! i e > C *.~ t W S K r.+Xt.K H Z ",
"1./ p G.9X>XN. .*.J =.X.S.S.#.;.1.+X1.J : - M N A A A J @X#X#X#X#X#X#X#X+X+X+X#X#X+X+X#Xq.A 3   - D H S n.J.tXaXyX&Xz.W <.$X@XR q e _ I @XT o * B J @X#X@X+X,.H ",
"K *.[ m.].[.m.[ <.1.<.:.&.3.2.,.K H ,.H = - D K K K J 1.+X#X@X@X@X@X@X#X#X+X@X#X+X#X#X#Xq.G ; O $ n C T +.J.<XaX1X}.z.Y <.+X;.$.O.#.=.r.t.S &   & N H -.J -.K 1.",
"J J ;.&.m.m.#.=.1.#X#X@X-.-.@XJ A n G J N B J #X#X+Xt.q.I I r.t.q.1.<.@X#X+X@X#X+X+X#X@Xt.I A =   O # r o.G.<X1X<X[.+.U -.*.R Q.(.Q.>.*.J G N O   $ & = - D K 1.",
"1.1.1.` ! ..=.1.1.@X#X@X1.,.-.m = = D K J K +X#X+Xq.q.q.r.r.I q.I K t.+X@X+X@X@X#X@Xt.+X@X@XI A &     w h.G.<XrX>X`.z.r J / O.7XnX8Xx.Y q.I H M #   O   # C J K ",
"K q.+X1.F _ e.r.t.+Xt.J D B M : : A J q.r.+X#X#X+XI I q.q.q.I I K I +X+X+X+X+X+X@X+X+X@X+X+X+XI A + X 0 a G.0X0X:XC.h.U -.' z.8XnXvXx.t J 1.J G C - N M B H K K ",
"K r.@X@Xr.J I r.t.r.H m &   $ M J +X@X@X#X#X#X#X+Xq.I I I I I q.K I +X+X+X+X@X@X+X@X#X#Xr.K r.+XI C ; o a N.}..X`.B.X.) r.{  .4XpX8Xz.r J K K K K K 1.t.r.t.1.K ",
"K r.@X+Xq.J J r.@Xq.B &   X M H +X#X#X#X#X#X+X#X#X@Xq.I K I q.r.r.r.+X+X@X@X#X@X@X@X@X+XI K J r.#X+XG : r a N.C.V.+.>.1.t.] O.2XeX5Xz.r H K 1.1.1.+X1.@X@X#Xt.1.",
"1.+X@X@X+Xr.I q.q.A - $ $ : H r.#X#X#X#X#X+X+X#X#X#X+Xq.q.+X+X@X#X+X+X+X@X#X#X#X@X@X@X+X+Xr.I r.#X#XI A 8 t O.x.+.[ <.#Xt.) a L.0X2Xo.Y K r.+X@X@X@X@X+X+X@X+XK ",
"K q.+X@X#X#X+XJ n = - M C H +X#X#X@X@X@X@Xr.I +X#X#X#X#X#X#X#X#X#X#X#X@Xt.+X+X#X@X@X#X#X#X#X+X#X#X+Xq.H A D *.` ` ,.+X+X1.R a L.-X}.o.! t.#X#X#X#X#X#X+X+X+X1.K ",
"A A D P q.r.#XH - : C H q.@X#X#X+Xr.I r.@X#X#XI r.#X#X#X#X#X#X#X#X@Xt.+X+Xt.1.1.+X+X+X#X@Xr.#X#X+X+Xr.K q.q.K ,.,.1.J J +X{ s `.|.`.z.! t.#X#X#X#X@X+X@X+X1.K G ",
"- = ; C J I +XJ C D H 1.+X@X#X+Xr.r.r.+X#X#X+Xr.+X+X#X#X#X+X+X#X#X+X+X+X#Xr.1.1.+X+X+X#X+Xq.+X+X@X+Xq.q.q.q.D H ,.=.` ` 1.{ a V..X_.z.! t.+X+X#X@X+X1.#X#X1.K K ",
"O O $ n G t.q.+X#Xr.K q.q.q.K 1.r.@X#X#X+XI I #X#X+X#X#X#Xr.q.@X@X#X#X#X#X@X#X#X#X@X#X#X@X+Xq.@X#Xt.1.1.H N $ : Z #.+.&.=./ p m.C.V. .` +X1.1.@X#X#X#X#X#X#X+X1.",
"M M A H K r.+X+X@X+Xr.K +X@Xr.r.+X#X+Xt.+X+X@X@X+Xr.+X#X#X+X+X+X#X#X+X+X1.#X$X#X@X@X@X@X+Xr.+X@X+X@Xr.I J A X @ t A.L.K.@.] :.&.h.z.} <.#X+X1.@X#X#X@X1.+X#X+X1.",
"G J 1.q.t.+X#X+Xr.#X@Xr.@X@X#X@X@X+X+Xq.t.#X#X+Xq.q.+X#X#X+X+X#X#X#X+XK K #X#X@X+Xt.+X+X+X+X@X@X+X+X@Xq.I A $ o i G.&X&XX.) ;.R W [ <.@X#X@X@X@X#X@X@XK K #X+XK ",
"J ,.r.r.+X#X#X#X#X#X#X#X1.r.#X@X+X#X@X+X@X+Xr.I r.@X+X@X$X+X@X#X+X+X+X+X#X#X+X+X+Xr.+Xr.@X#X#X#X#X#X#X#XJ m X X w x.A.Z.:./ Y V F e.+X@X#X@X@X#X@X+X+X+X@X#XK K ",
"K K ,.1.r.#X@X@X#X#X@X+Xr.1.#X#X#X#X@X@X#X+Xr.I r.+Xr.r.+Xr.+X#X#X@X+X+X#X#X1.K +Xr.q.K r.@X@X@X#X$X@X+XK A =   . t ~ } =.%.n.@.:.1.r.1.+Xq.+X#X#X@X+X@X#X$XK G ",
"K K K K 1.+Xr.+X#X#X@XK +X@X#X#X@X@X+X@X#X#X+Xr.+X@X+Xq.q.q.+X#X$X#X@X@X@X#X+Xq.@Xr.K K q.+Xt.+X#X#X@X1.1.K A +   # M _ [ A.}.A.%.*.K r.1.r.+X@X#X#X@X@X#X#XK J ",
"1.K K K K K r.@X@X@X@X+X+X+X@X+XI r.q.r.#X$X#X+X@X#X#X#X+X@X+Xt.K K #X#X#X@X@X#X#Xr.K K I q.r.@X@X#X+X+Xt.1.t.C # - N S  .K.;XL.&.( t.#X+X@X@X+X1.K #X#X#X+X1.K ",
"J J K K 1.K q.1.1.K K 1.K 1.1.1.I 1.1.q.I +Xr.+Xt.r.+X+Xr.+X+Xr.K J +XI K K r.+Xr.1.K K q.I 1.1.K K K 1.K +X1.J C n + M ! &.S.n.#.*.<.+Xr.r.+Xr.K K 1.1.K K K K ",
"G J J K 1.q.K K K J K K K K K K q.1.1.q.J J K r.q.K K K I I I I J J K J G J K K K K K K K q.K K K J K K K K K K J : O + A ' i R *.K K K K K I q.J G K K G G J G "
};
