/* XPM */
static char *__resized[] = {
/* columns rows colors chars-per-pixel */
"80 80 245 2 ",
"   c #181719",
".  c #351F0F",
"X  c #271C1B",
"o  c #361A1E",
"O  c #1D2715",
"+  c #1E3219",
"@  c #222B16",
"#  c #28271D",
"$  c #232A1A",
"%  c #372719",
"&  c #243316",
"*  c #283918",
"=  c #2B3C1A",
"-  c #343A18",
";  c #1F1E21",
":  c #2D1B27",
">  c #2C2324",
",  c #2A2726",
"<  c #362727",
"1  c #3B2B2B",
"2  c #333629",
"3  c #383728",
"4  c #4C1F1B",
"5  c #4B290E",
"6  c #472A16",
"7  c #582916",
"8  c #493816",
"9  c #573814",
"0  c #67310F",
"q  c #6A2818",
"w  c #732B16",
"e  c #673A15",
"r  c #763A16",
"t  c #462826",
"y  c #562B24",
"u  c #483529",
"i  c #58372B",
"p  c #422D33",
"a  c #443234",
"s  c #493836",
"d  c #553B36",
"f  c #673527",
"g  c #743B26",
"h  c #663D37",
"j  c #743F31",
"k  c #2A4517",
"l  c #2A4817",
"z  c #2B4418",
"x  c #2D4B19",
"c  c #3D4B16",
"v  c #394718",
"b  c #324D19",
"n  c #2E5419",
"m  c #375216",
"M  c #32531A",
"N  c #3C541A",
"B  c #355C1B",
"V  c #3B5C1A",
"C  c #37631B",
"Z  c #3B641C",
"A  c #3D6D1D",
"S  c #3F711F",
"D  c #3F7320",
"F  c #484917",
"G  c #4C4D17",
"H  c #554617",
"J  c #5B4415",
"K  c #5B4B16",
"L  c #455317",
"P  c #435518",
"I  c #4B5419",
"U  c #425C1A",
"Y  c #4C5C1A",
"T  c #5A5217",
"R  c #545418",
"E  c #5C5419",
"W  c #545B1A",
"Q  c #5B5B1B",
"!  c #624415",
"~  c #6C4316",
"^  c #634B16",
"/  c #6B4A16",
"(  c #694E18",
")  c #774617",
"_  c #734C16",
"`  c #635419",
"'  c #6A5518",
"]  c #645B1A",
"[  c #775519",
"{  c #44641C",
"}  c #4B631B",
"|  c #436C1D",
" . c #4B6B1D",
".. c #53631B",
"X. c #5B631B",
"o. c #516C1D",
"O. c #41741F",
"+. c #4A731F",
"@. c #43781F",
"#. c #53731F",
"$. c #65611E",
"%. c #766018",
"&. c #5E562B",
"*. c #57443B",
"=. c #775727",
"-. c #694737",
";. c #734B31",
":. c #774834",
">. c #75543A",
",. c #427620",
"<. c #497620",
"1. c #457C21",
"2. c #4A7C21",
"3. c #557520",
"4. c #7A6120",
"5. c #4F3E4C",
"6. c #4D4142",
"7. c #574745",
"8. c #664D46",
"9. c #69554A",
"0. c #73574A",
"q. c #685651",
"w. c #6D5B52",
"e. c #785E52",
"r. c #6D6547",
"t. c #7A6848",
"y. c #7A6A57",
"u. c #7E6D66",
"i. c #8F370F",
"p. c #853B18",
"a. c #803820",
"s. c #97430F",
"d. c #8B4416",
"f. c #844A16",
"g. c #894818",
"h. c #984917",
"j. c #934C1A",
"k. c #845417",
"l. c #8A5818",
"z. c #985618",
"x. c #AA490C",
"c. c #A64C17",
"v. c #A45416",
"b. c #A85A17",
"n. c #AB531A",
"m. c #A45A1A",
"M. c #AC5C19",
"N. c #B6581B",
"B. c #B35C1B",
"V. c #866118",
"C. c #9D6618",
"Z. c #A46219",
"A. c #AB6419",
"S. c #A86918",
"D. c #B46419",
"F. c #BA6719",
"G. c #B36B19",
"H. c #B67419",
"J. c #BB731A",
"K. c #834827",
"L. c #934D2C",
"P. c #8A5623",
"I. c #945229",
"U. c #884B34",
"Y. c #895632",
"T. c #965B33",
"R. c #A25C25",
"E. c #A75737",
"W. c #876323",
"Q. c #966726",
"!. c #916833",
"~. c #996937",
"^. c #A76726",
"/. c #B56A23",
"(. c #B8792B",
"). c #A36737",
"_. c #AA7539",
"`. c #B47133",
"'. c #C66A1B",
"]. c #CB6C1E",
"[. c #CA7514",
"{. c #C7761A",
"}. c #C47C1B",
"|. c #D4771D",
" X c #D47B1D",
".X c #CE7A24",
"XX c #967647",
"oX c #8A6D51",
"OX c #986A55",
"+X c #A1734A",
"@X c #877366",
"#X c #478122",
"$X c #498423",
"%X c #4C8A24",
"&X c #B88334",
"*X c #CC8519",
"=X c #D4831C",
"-X c #DA861B",
";X c #D38A1B",
":X c #DB8D1D",
">X c #DC941B",
",X c #E38D1E",
"<X c #E3951E",
"1X c #E39B1D",
"2X c #E8A31C",
"3X c #D2922F",
"4X c #C58831",
"5X c #E59A27",
"6X c #DCA73B",
"7X c #E8A528",
"8X c #E7A634",
"9X c #ECB53B",
"0X c #F0B430",
"qX c #8A8353",
"wX c #988A5C",
"eX c #B68C48",
"rX c #B28D4F",
"tX c #BEA455",
"yX c #9A8265",
"uX c #A29768",
"iX c #ABA467",
"pX c #BBB46D",
"aX c #B4AC71",
"sX c #C89645",
"dX c #D1A94F",
"fX c #E2B148",
"gX c #C9B76E",
"hX c #B7C276",
"jX c #E7CD65",
"kX c #E5CA76",
"lX c #D5BB84",
"zX c #D1CF8C",
"xX c #E1D795",
"cX c #EDEA90",
"vX c #DACBB1",
"bX c #E1DEA2",
"nX c #EFECA8",
"mX c #FBF8BA",
"MX c #E4D3CC",
"NX c #F0F1C7",
"BX c #FBFBC9",
"VX c #FCFCD9",
"CX c #FFFFE7",
"ZX c #FFFFF3",
"AX c #FFFEFB",
/* pixels */
"n C O.A S S S S @.M H d.*X1XJ._ c A @.O.A A S 1.@.S @.@.S A A S S N 5 ^.9XfX.Xr c C @.A A S S N 9 A.<X2XB.r U A S S @.S S S S @.,.,.,.,.A A S A D ,.,.S S 1.A B ",
"Z A S O.,.,.S S S Z I ' S.H.l.T V S ,.S A S @.,.@.S S A S ,.1.1.1.{ 9 Z.8X0X(.e U Z S O.@.@.S P 7 D.,X1XB.r U Z S S S S S S @.S ,.S D S ,.,.1.1.1.,.D S S @.S S ",
"@.@.@.@.#X1.S S S @.S { [ ) T { S S A A O.1.1.,.D D S S ,.1.%X%X%X .9 C.>X1XD.r  .D ,.1.1.1.S U 9 v. X-Xm./ U A 1.D S S S S #XS D D S S ,.#X%X%X%X#X@.A S 1.@.@.",
"O.@.$X%X$X#X,.,.@.@.@.@.} X.$X@.{ L V D 1.#X$X$X$X1.#X$X$X$X$X$X$X| 8 z.=X:XA.e } ,.$X%X$X#X@.A } [ z.B.[ } 2.$X%X#X@.S #X$X%X%X$X1.#X$X2.#X#X$X$X$X#X,.@.$X@.S ",
"S @.#X#X$X%X#X#X#X@.@.#X+.@.#X#.$.' Q | #X%X%X%X%X$X%X%X$X#X1.1.,.} 9 z. X-XB.r Y D #X#X$X$X,.| 2...' _ X.1.$X$X$X$X#X$X%X%X%X%X$X%X%X%X%X1.1.1.1.1.$X#X2.#X1.S ",
"S O.@.@.#X%X%X%X$X$X$X$X%X#XA %.^.4XW...2.$X%X%X%X%X%X$X$X1.,.1.S U 9 v.|.-XM.r } S D ,.2.$XY } 2.O.{ L <.%X1.1.$X%X%X%X%X%X%X%X%X%X%X%X$X1.1.1.D ,.$X%X$X1.1.D ",
"A S O.@.2.1.1.1.1.@.@.@.@.{ F C.3XfX(./ I D #X$X$X%X%X%X$X1.,.1.S V F l.].{.z.e { S ,.1.,.} [ ' W | S A ,.1.$X$X$X$X#XD 1.#X$X$X%X%X%X%X$X,.,.,.A A #X%X%X1.D Z ",
"A A O.@.1.@.@.S D S S S S V 9 I.8X9X.Xd.L Z ,.,.1.%X%X%X$X#X#X#X,.| { [ z.m.[ I { O.S ,.Y ' S.Z.[ I Z S A ,.1.$X$X$X1.1.,.D 1.S 1.$X%X%X$X$X#X$X1.,.$X%X$X,.Z Z ",
"A S @.#X,.S S S S S S D D Z 8 z.-X7XG.r Y A ,.D ,.$X%X%X%X%X%X%X%X$X$Xo.J ~ Q 1.1.1.O.V ^ z.;X:XA.^ c A D D D ,.$X1.%X%X%X#XD S ,.%X%X%X%X%X%X%X%X$X%X%X$XS Z A ",
"A A @.1.1.,.S S S D @.S ,.{ 8 l. X,XD.) } ,.2.$X%X%X%X%X$X$X$X$X1.S ,.| } Y +.$X1.,.| V ^ c.:X,XF.! v A D 1.D #X$X$X%X%X%X$X1.$X%X%X%X%X$X$X$X$X1.D ,.#X%X#X1.@.",
"S S ,.#X$X#X@.| ,.1.1.,.#X .H j.|.-XB.) Y ,.#X%X%X%X%X%X2.1.$X$X,.Z A 1.1.@.#X%X#X1.A V ( n. X-XB.~ c ,.#X$X$X%X%X$X$X%X$X$X$X$X%X%X%X$X1.1.$X$XD Z A #X%X$X1.@.",
"@.@.,.%X%X%X1.1.#X$X%X%X$X| 9 z.]. XN.p.I ,.$X#X$X%X%X#X,.$X%X%X,.A A #X$XO.1.$X%X1.A { _ c.|.|.N._ U %X$X$X%X%X$X$X%X%X#X$X$X#X$X%X%X$X,.2.%X%XD D S $X%XD O.@.",
"A S @.@.$X%X%X1.Z A 1.%X$X| L f.N.'.h.~ } 1.%X2.$X%X%X%X$X%X%X%X$X#X$X$X1.A @.#X#X,.O.Z K f.B.N.j.K { $X#X#X%X#X1.$X%X%X$X%X%X$X$X%X%X%X$X$X%X%X$X#X$X%X%X1.@.A ",
"A S 1.1.$X%X%X2.P L { $X#XS { ` j.h.) R <.$X%X$X$X$X%X%X%X%X%X%X$X%X%X2.} I  .#X1.1.@.O.} ^ j.d./ L S %X#X1.$X#X1.%X#X1.$X%X%X$X#X%X%X%X%X%X%X%X%X$X%X%X$X#X,.O.",
"@.@.#X%X%X%X#Xo.^ ~ ` 2.#X1.2. .K e H A ,.$X%X1.,.1.$X$X$X%X$X$X1.1.1...^ ) X.#X$X#X#X$X2. ._ _ W | 1.$X$X#X#X%X%X$XD S 1.%X%XD ,.1.$X$X%X%X%X#X1.1.#X1.#X#X#X1.",
"A @.%X$X$X$X} ' S.H.C.E  .#X#X2.| L { D ,.,.,.,.,.1.1.1.1.1.$X$X$X,.I [ S.H.l.Q +.#X$X@.} %.Z.C.%.W ,.1.$X$X$X%X%X@.D D D 1.#XD ,.,.1.1.1.1.$X$X$X#X$X$X$X%X#X,.",
"S @.@.| @.@.I [ }.:XG.! I @.$X%X#XO.O.+.S S @.@.,.1.1.,.1.1.$X%X%X+.G V.*X;XZ.J | 1.1.V H l.;X;XZ.` V ,.O.@.$X%X%X@.@.O.@.@.@.1.1.1.1.1.1.1.#X%X%X%X%X%X$X%X#X@.",
"@.| V c U @.{ ' Z.F.V.G C O.#X%X$X#X#X@.#X$X%X%X$X%X%X%X%X%X%X%X%X@.} [ b.G.V.Y 2.2.,.N ! n.:X,XF.^ m A c F @.%X%X$X$X@.@.$X%X$X%X$X$X%X%X%X%X%X%X%X%X1.,.$X1.,.",
"Z } ` =.] { A ..` / ] | A S @.%X%X%X$X$X@.#X$X%X%X%X%X%X1.$X$X$X#X@.@...` _ $.@.,.,.1.V ( n.-X-XB.~ v } ] =...2.$X$X$X$X1.#X$X%X%X%X%X$X1.$X$X%X1.1.#X1.@.,.@.@.",
"m ] ^.(.Q.I | S V c { 1.O.S #X%X%X$X%X$X1.@.#X%X%X%X%X$X1.1.$X$X@.S 1.| V c | 2.Y } <.Z ( c.].].n.e 9 ] &X(.=...@.#X%X$X1.2.#X$X%X%X%X$X1.1.#X$X1.,.1.1.1.S O.@.",
"6 l.6X9X4X) W | @.O.| A Z A #X$X#X#X$X%X%X%X%X#X#X%X$X%X%X%X%X%X%X%X%X$X$XO.+.o.k.' W { E g.N.D.g.0 0 ^.6X9X/.' N 1.%X%X%X%X%X#X#X$X$X%X%X%X%X%X%X%X%X%X$X#X@.O.",
"5 j.5X0X4Xp.W O.%X$X@.@.L I +.$X$X1.#X$X%X#X#X$X$X#X1.#X$X$X%X$X%X$X#X%X%X@...%./.H.V.W I ' j.j.' 9 r /.8X0X/._ N O.#X$X$X#X#X$X$X$X#X#X$X$X$X%X$X$X#X%X%X$X1.@.",
"6 k.=X2X[.) Y O.%X%X$X+.' ) W +.#X,.1.#X,.@.@.%X%X1.1.,.D ,.1.1.@.@.@.#X#XZ H g.*X*XZ.K V  .' ^ } V ` M.>X>XD.( U | 1.#X,.,.@.%X%X1.#X,.D ,.1.1.1.@.,.$X%X#X1.@.",
"5 k.;X1XJ.r I S @.@. .` S.G.l.Q Z ,.,.,.,.,.#X%X%X,.,.1.1.,.,.,.S @.@.@.V @ . 5 ' _ ! - V $Xo. .@.Z ` b.*X:Xm./ m O.,.,.,.1.#X%X$X,.,.1.1.,.,.,.O.,.1.2.$X#X1.S ",
"6 k.*X<XJ.r R A 1.Z T j.*X<XF._ L 2.1.,.1.#X%X%X#XD @.,.,.D D D C B Z B = # > % % o % 2 M S C S 2.Z ` n. X XN./ N @.#X@.2.#X$X%X$XS S ,.,.,.S D S S #X#X#X#X@.S ",
"5 k.|.:XJ.r L | 2.Z K n.:X7X|.f.F 2.$X$X$X%X%X%X$X,.D A D D D Z l k k = 3 s s 1 o o t 2 = k l B ,.V ( n.|.].n._ U $X$X$X%X%X%X%X$XS D S D D S S S S $X$X#X#X#XS ",
"6 f.{.=XD.r F A $XO.W f.J. XM./ U $X%X%X%X%X$X%X%X$X,.S D D A n * , # 3 7.w.w.-.a.K.:.*.3 , , = B V E j.N.N.h.K { %X%X%X%X%X$X%X%X$X@.A S D ,.1.@.#X@.$X$X$X#XS ",
"8 f.]. XD.r L D %X1.} E j.v.[ X.<.$X%X%X%X$X1.$X%X%X#X,.D A B z 2 a a 7.w.@XY.I.J.{.^.:.d a a 3 = n U ' j.h.' ..@.$X%X%X%X#X2.$X%X%X#X@.,.1.$X$X$X$X$X#X#X%X$XS ",
"5 f.]. XF.p.W 1.%X$X,.{ ^ / Y 2.$X$X$X$X$X1.D #X$X%X%X%X$XZ v u -.e.0.u.u.oX:.h.*X*XM.g -.q.7.s a z M V ^ /  .#X%X$X$X$X#X1.@.#X%X%X%X%X%X%X%X%X%X%X%X$X#X#XS S ",
"5 f.].|.N.p.W ,.$X#X1.A  .o.2.#X$X2.,.1.$X%X%X,.#X%X%X1.{ &.4.&X4XeX@X@Xu.@X0.U.m.b.I.:.9.w.7.-.!.=.G k U 3.#X$X#X#X,.,.$X%X$X,.@.%X%X%X%X%X%X%X%X$X@.#X%XS S A ",
"8 ) N.'.n.~ } ,.$X#X1.@.D O.1.#X1.1.1.1.$X%X$X1.1.$X1.{ v ;.`.9XfXdXrX@X@Xu.0.j a.K.>.0.q.8.7.>._.P.J $ n D $X#X1.1.@.#X$X%X$X1.#X%X%X%X$X#X#X%X%X#X#X%X%X@.S S ",
"Z E g.c.f.Y { 1.%X2.,.O.P N { ,.1.$X%X%X$XD S $X%X,.B z u 0.+XeXeXeXdXtXyXw.h f j -.q.w.7.7.6.;.I.I.i , + n Z S 1.$X%X%X$X@.S $X%X$X%X%X%X@.@.$X$X%X%X%X%X$X#X@.",
"A { T ! T | @.#X#X@.| Y [ k.` } 1.#X1.1.#X#X$X$X#XA * , d q.e.q.8.oXeXeX+X:.U.I.:.8.8.7.5.s s g j.j.;.< $ & C ,.#X$X#X1.#X#X#X$X#X1.$X%X%X1.1.$X%X%X$X1.#X%X#X@.",
"A | Z L { $X$X#X@.@.} ^ S.{.l.Q { #X#X@.#X$X%X#X@.C @ # 7.q.q.7.6.8.XXXX!.P.^.(.~.-.8.6.s s y r Z.A.g.7 o @ C 1.$X$X1.,.#X%X%X#X,.1.#X%X%X$X$X$X%X$X#X@.S %X#XS ",
"A O.@.@.#X%X#X$X%X@.W f.*X;XG.' U $X%X#X#X#X1.S S C $ < s w.y.oXy.y.r.h g m.6X9XG.p.f *.-.-.K.^.;X=Xm.q % # B ,.$X%X$X#X#X#X@.@.,.#X#X#X%X$X$X%X$X#X1.#X%X%XD A ",
"A O.@.@.#X@.I Y | O. .` C.S.k.X.<.$X%X$X$X$X1.A m * 3 1 s r.iXgXgXiXu.d q z.5X7Xb.h.I.)._._.sXsX(.z.r d s a 2 B @.$X%X#X$X#X1.@.1.$X1.1.#X1.#X%X%X$X#X#X%X%XS Z ",
"O.S S A O.o._ _ ] +.@.| ( / W <.$X$X#X#X%X%XD B = , u a a t.pXcXnXxXuX0.f c.*X>Xv.s.R.4X5XjXcXkXeXK.f *.8.7.1 v B ,.1.#X%X%X$X2.#X$X#X1.,.@.1.$X%X%X#X$X%X$X@.Z ",
"@.O.S C I / H.}.S.` { @.{ { ,.<.,.,.,.1.%X#XZ u u *.*.s a t.pXnXBXNXxXrXP.s.[.;Xn.w w ~.dXjXmXNXxXeXK.f 8.q.7.s 2 x C 1.%X%X$X#X#X%X%X%X#X$X$X#X@.@.%X%X%X$X1.S ",
"@.@.O.S I / J.-XD.` V 2.,.D ,.,.#X1.#X#X,. .Q ;.0.7.7.s p t.pXmXVXCXBXlX`.s.F.[.h.r ;.wXzXmXCXCXmXgX^.q h w.w.d 2 & B #X$X$X$X%X$X$X%X$X$X$X$X1.Z Z #X$X@.@.@.@.",
"O.@.@.@.{ ` C.G.V.T Z #X$X$X$X$X%X$X%X1.M G W.`.+X7.5.a a t.pXnXCXAXAXvXrXs.x.'.i.f.XXzXNXZXAXZXNXkX`.w h w.w.7.< O B $X1.1.$X%X%X#X$X$X#X#X2.+.I L +.@.S @.@.S ",
"C O.$X#X@.#.E ^ W | ,.$X%X%X%X%X$X$X%XD + u _.3X+X>.*.a p >.iXcXBXZXAXvXuXi.s.N.s.B.dXbXVXAXAXCXnXdXH.p.:.8.8.a % & B %X1.#X$X%X%X$X%X%X#X,.+.W k.k...| @.%X@.A ",
"A O.#X@.#X@.U N Z ,.1.$X$X1.2.1.,.#X1.C O # &.rX&X~.-.a 1 *.y.aXbXBXBXvXOXf i.c.N.`.wXaXbXBXBXnXgX&XH.G.j.:.d a , & B ,.,.1.#X#X1.1.1.1.,.{ W l.J.H.[ W | %X#X@.",
"@.O.@.@.#X@.S A ,.,.,.1.1.1.,.,.,.1.S C * O 2 -.).&XP.*.s a d t.pXcXcXhXoXd 7 g./.^.Y.oXaXcXcXgX~.b.[.>Xb.w h a , @ n A @.,.1.,.D D D D D V ` Z.;X*Xz.K V @.@.@.",
"S @.$X$X%X#XS @.,.D ,.$X$X%X%X%X$X#X,.A A l , u -.!.~.Y.*.u -.).rXwXuXoX0.s t y f ;.U.XXXXqXoXt.g v.*X1XA.w i p , @ l S 1.$X%X$X#X#X#X$X$X1.} ' Z.Z.' U S @.@.S ",
"A ,.$X1.$X$X| A ,.1.1.1.%X%X%X%X%X$X$X1.#XD x + 3 i Y.T.;.;.:.T.;.*.7.d a s *.>.r.Y.T.L.-.a s y q b.-X1Xb.w i < , z Z #X$X%X%X%X%X$X%X%X$X@.Z F ^ '  .@.@.#X@.S ",
"O.D D ,.#X$XY I { 1.2.$X%X$X1.,.1.%X%X%X%X#XD z ; : i :.Y.Y.U.-.t < < : : *.qXpXhXiX_.r 4 : : o q n.-X>Xb.w t # z Z $X%X%X%X%X%X%X%X%X$X#X| U F c V #X%X%X@.@.O.",
"A A D 1.,.{ 4.l.] } D ,.,.,.D | 1.$XD B A ,.,.C *     i T.`.T.i 1 < > < *.wXzXnXcXfX`.p.7 < < < 7 d.F.[.z.q % z C D 1.,.,.#X$X$X$X%X%X$X@.$.[ k.W C #X%X$XO.C n ",
"A O.,.,.Y ` (.4XQ.E V A D { W Y  .D n = M D D C *     t L.`.`.;.d < > *.qXzXNXNXzXsX4XA.d.y 1 < t e d.c.a.7 - C #X$X#X,.1.,.,.,.#X$X%XO.W Q.(.&X4.I @.%X$X{ F 8 ",
"A A A V H j.6XfX3X) 8 A A Y _ _ ` Z = @ B S ,.C * # X t :.E.).E.:.t : &.uXbXVXMXOXv.[.>XD.q t > > t q w f u B @.#X1.$X%X%X#XO.O.,.$X%X} 9 (.fX9X/.e +.$X2.T ~ d.",
"Z C b - 7 d.:X0X=X_ v Z L _ H.}.C.K c V 1.1.1.1.S M 3 y i f j :.U.:.a a w.aXbXxX~.z.*X>XD.q 4 > , t y y F { @.@.$X$X%X%X%X$X2.#X$X%X$X} 0 (.7X7Xv.e Z A o.C.(.4X",
"Z B b % 7 i.;X1X{._ c | I ) }.=XS.^ Y #X$X$X$X%X$X<.I u t > < u U.U.h t 1 y.gXkXE.b.[.;XD.q 6 : > 1 y F { 1.$X%X%X$X%X$X<.O.1.%X%X%X%X} 9 G.<X1Xm.e V m E (.7X0X",
"V Z C b 9 d.;X1X}._ I $X| Q C.Z.l.} 1.%X1.1.$X2.#X$X<.N # ; : 1 i j U.f < s OXsXI.z.[.=XM.q t > > > v <.2.#X%X%X%X#X$X@.G L +.1.#X%X%X} e D.,X,Xv.e { m ^ (.7X0X",
"c C S Z K s.;X1X{.) G %X2.} ` E R 2.$X$X$X%X%X$X$X%X$X,.b $ X > : u U.L.j f :.L.i.c.{. XB.w t : # = A $XO.{ $X,.A V Z X.k.[ Q +.1.%X%X+.R z.'.'.k.T 2.U / '.<X2X",
"c Z @.| E d. X:X'.) G $X$XO.{ V A $X#X2.$X%X%X$X$X$X%X$XD v # ;   < U.E.E.j y y q c.{. Xm.q 6 # * B ,.2.W R 2.Z l - F [ J.H.k.W +.$X%X1.| [ f.z.] | $XY ! D.=X-X",
"m | @.@.W _ D.'.b.^ U #X$X2.@.#X$X#X,.D 1.%X%X,.<.1.#X$X#X,.b O O % j E.E.j t o 5 d.F.J.z.9 % z D ,.| W k.k.} B k % w A.1X<XG.! P 1.$X%X@...G H } ,.#XZ K z.F.[.",
"A @.%X@. .X.l.j.[ ..O.#X$X$X%X%X%X,.S D ,.,.,.@.O.,.1.1.,.,.S B n c i g g t X X X 7 j.g.' } V A #X,.Q l.J.*Xl.R c - e N.<X,XD.e c @.1.@.@.O.{ { +.$X#X2. .' f.s.",
"O.1.$X1.1.+.` J I @.$X,.1.#X%X%X%X1.,.D Z B B V | 1.1.1.,.1.$X%X%X+.G u % $ @ $ O % e H  .$X#X#X$X{ Q z.*X;Xz.$.A Z T h.{.{.z.K U 1.#X,.,.1.1.%X#X%X%X%X#XY K 0 ",
"@.1.,.A @.1.{ { +.O.D ,.D ,.$X%X%X$X$XS z $ $ = C $X$X%X%X%X%X%X%X#X| B M B B B B m N V | 2.1.#X$XO.V T z.Z.' o.$X#X .` z.j.` +.#X$X$X%X%X%X%X%X%X%X%X#XO.@.Z V ",
"V Z O.O.,.,.S S @.O.,.1.,.D #X%X%X$X$X,.l @ O = Z $X%X%X1.#X$X$X1.,.,.S Z Z O.@.,.,.S Z B B D 1.,.D C c T ` } 2.%X%X@.o.^ K } #X%X%X%X$X#X$X%X%X#X@.#X@.O.O.S S ",
"F G } O.1.1.1.,.1.@.1.1.,.,.#X$X%X$X%X,.B z z M ,.$X%X$X1.1.$X$X,.@.#X#X1.@.1.%X#X$X$XA x * C D ,.| Y G c B 1.%X%X$X%X$XU { @.$X%X%X%X#XD @.@.#X@.O.@.#X@.S S @.",
"l.k.[ o.#X%X$X#X#X,.D D A ,.%X$X#X1.%X%X$X#X1.,.1.$X$X$X%X%X%X%X%X%X%X%X%X#X#X%X%X$X1.A l @ l C { ] =.l.Q A $X%X#X1.$X%X#X$X%X@.#X$X$X1.| C C A #X%X%X%X%X#XS @.",
"{.J.S.` } #X$X%X$X#X1.1.1.1.%X%X$X,.1.%X$X$X$X$X$X$X2.#X$X$X$X$X$X$X$X%X%X$X%X%X%X$X#XO.V l * * F W.&X4XW.R <.$X#X1.#X$X$X$X#X$X$X$X2.A b * * b | #X#X%X%X#X#XS ",
";X;XH./ L 1.$X#X1.,.1.%X%X%X%X%X%X,.,.#X,.,.,.%X%X1.1.,.,.,.1.1.1.@.@.$X%X#X$X%X$X#X$X$X1.A = . 7 /.8XfX/.~ } 1.$X,.,.#X1.@.@.%X$X1.1.C & @ @ * C @.@.$X%X#X#XS ",
"z.z.[ ..2.%X$XA x = N $X%X%X$X#X1.1.,.,.,.,.$X%X$X,.,.1.1.,.,.,.S O.1.#X#X#X#X$X$X$X#X#X%X$XZ v 7 D.7X0XA.~  .@.1.1.,.O.@.@.#X%X#X,.,.A V b m B C O.#X#X$X#XA C ",
"! K R +.%X#XA x & & M D $X%X$X#X1.#X1.,.1.$X%X%X#XD D ,.,.,.,.D S D #X#X#X#X#X#X$X$X#X$X$X$X1.U 9 Z.,X<Xm.~ } D 1.$X1.,.V { 1.%X#XO.D D S A Z A S S $X#X#X#XS C ",
"m Z O.#X#XC k & & n Z A 1.%X$X#X$X%X%X$X%X%X$X%X$X,.D D D D D D S ,.$X#X#X#X#X$X#X$X%X$X1.D D { H Z.-X-Xv.~ { ,.$X%X$X<.G Y +.$X#X,.D S S S S D S S $X$X#X#XS A ",
"{ @.#X#XO.C & & M ,.#X$X%X$X#X$X%X%X%X%X%X%X$X%X%X$X,.D S S ,.1.1.1.#X#X$X%X%X%X$X$X$X#X,.A A U 9 b.|. Xn.r { 1.%X$X,...Q.P.X.<.#X$XD S S S D #XS #X#X#X#X%X#XS ",
"@.@.$X#X@.O.B B D $X%X%X$X$X#X%X%X%X%X%X$X$X1.$X%X%X#X,.,.1.#X$X$X$X#X#X#X$X$X%X%X$X$X#X#X,.D V J h.].].h.~ { 1.$X| Q W.4X4XW...+.%X#X,.D 1.#X$X$X$X$X#X#X$X#XS ",
"S #X%X%X%X%X$X$X$X#X1.,.$X%X%X%X%X#X$X$X$X,.D $X%X%X%X%X%X%X%X%X%X%X%X#X1.#X$X%X$X$X$X%X%X%X%X+.G g.N.B.g.K ,.$X1.V _ /.9X9X(.! U %X%X%X%X%X%X%X%X%X%X#X@.$XS S ",
"S S #X%X%X@.%X%X$X#X1.,.#X%X%X$X#X#X1.,.%X%X$X,.1.%X%X%X%X%X%X%X%X$X#X#X#X1.@.@.#X1.#X%X$X1.$X#X .` ) d.' 3.$X$X<.U / B.7X7X/.J N %X%X%X%X%X%X%X%X$X#X#X$X@.S A ",
"A @.$X%X$X@.#X$X%X#X,.@.#X$X$X#X1.1.1.#X$X%X$X1.#X$X%X%X%X#X#X%X%X#X1.$X%X1.@.@.#X$X$X%X#X,.#X%X$XU 9 9 } #X$X$X,.V / v.>X:XD.J U $X%X%X%X#X$X%X%X#X1.%X%X1.S A ",
"S #X%X%X$X@.@.#X%X1.@.@.,.,.@.@.1.$X%X%X$XD D $X%X#X%X%X%X1.,.$X$X%X%X%X%X$X%X%X%X$X%X%X$X1.,.$X$XV & % N ,.D <.,.V / n.=X-XM.K U #X%X%X%X1.@.$X$X%X%X%X%X$X#X@.",
"S @.$X%X#X@.#X#X#X#X@.@.#X$X1.1.#X$X#X1.#X#X#X%X#X,.$X%X%X#X1.$X%X%X$X@.@.%X%X%X$X$X$X$X#X1.2.$X1.b O O V $X#X#X,.U _ n.|.|.N./ P @.$X%X%X#X1.$X%X%X$X1.1.%X$X@.",
"S O.@.#X#X$X%X$X@.%X$X@.#X%X%X$X$X$X2.1.1.%X%X1.,.1.#X%X%X$X#X%X%X$X#XS S %X%X%X#X1.#X1.#X#X%X%X1.M $ O B $X$X$X1.{ / c.'.].n.9 N @.$X%X%X$X#X%X%X$X1.@.S %X#XS ",
"S O.@.#X$X%X%X%X%X%X%X%X,.1.%X$X#X%X$X#X#X#X1.D ,.#X#X$X%X%X$X%X$X#X@.#X%X%X$X#X#X1.1.1.#X%X%X%X%XZ l & k C #X$X1.,.E ) N.N.d.G Z #X#X$X%X$X$X%X$X#X1.#X$X%X1.A ",
"S S @.O.@.%X$X$X%X%X%X#X1.1.%X%X%X%X$X$X%X$X1.,.#X$X1.,.#X1.1.%X%X%X#X#X%X%X@.S #X1.,.,.1.%X$X$X%X1.Z x & = A #X$X2. .` d.) E U @.#X1.1.#X1.1.%X%X$X#X$X%X%XS C ",
"S S S S @.@.#X#X%X%X#X@.@.$X%X%X$X$X#X#X%X%X#X1.#X$X#X,.@.,.#X%X%X%X%X%X%X%X#X,.$X1.O.S ,.1.1.#X%X%X1.C * = Z #X$X$X1.| ^ T { @.2.$X#X1.,.,.1.%X%X%X$X%X%X%XS A ",
"@.O.S O.S @.@.#X$X%X$X#X@.#X$X1.,.1.,.1.%X%X%X#X#X%X%X%X1.$X$X1.S S %X%X%X$X$X%X%X1.A @.D ,.1.#X$X%X$X@.Z C @.1.,.1.,.<. .<.1.#X#X%X%X%X#X$X$X1.@.@.%X%X%X#X1.S ",
"A S S S @.@.@.@.@.@.@.@.@.@.@.@.,.O.@.1.1.1.1.#X1.1.$X#X,.#X#X,.S A #X1.S S ,.#X1.,.S O.,.,.@.@.@.S @.S S S S @.,.,.,.,.D D ,.#X1.1.#X1.1.1.1.1.A A @.@.S S S S ",
"C C S S @.S S A A C A S @.S A S ,.@.@.@.A A S ,.,.@.S D S S ,.,.A Z S Z C A S S O.S A S ,.,.A A A A A S S S A S ,.<.,.,.A A D ,.@.S S S @.S ,.,.A Z S A C Z Z C "
};
