/* XPM */
static char *__resized[] = {
/* columns rows colors chars-per-pixel */
"80 80 234 2 ",
"   c #1C1B1B",
".  c #261C1A",
"X  c #241C1C",
"o  c #3A1816",
"O  c #1E2416",
"+  c #232B16",
"@  c #25241B",
"#  c #28271A",
"$  c #252A19",
"%  c #362819",
"&  c #263717",
"*  c #2A3B19",
"=  c #3A3818",
"-  c #1E1C25",
";  c #271625",
":  c #251E24",
">  c #2C1E24",
",  c #361A22",
"<  c #2D2223",
"1  c #2A2524",
"2  c #2D2429",
"3  c #322425",
"4  c #382A25",
"5  c #352629",
"6  c #35292C",
"7  c #3C2C2C",
"8  c #383227",
"9  c #333128",
"0  c #3A2D34",
"q  c #471F19",
"w  c #49271A",
"e  c #403B1B",
"r  c #583C17",
"t  c #6E370D",
"y  c #783918",
"u  c #462927",
"i  c #412D2B",
"p  c #582B23",
"a  c #43312F",
"s  c #4B3628",
"d  c #59372B",
"f  c #433332",
"g  c #4B3B34",
"h  c #43343A",
"j  c #4C3C3B",
"k  c #563D35",
"l  c #633A2B",
"z  c #693C2D",
"x  c #743A28",
"c  c #6E3F32",
"v  c #294617",
"b  c #2A4917",
"n  c #2D4219",
"m  c #32491A",
"M  c #384918",
"N  c #2F5417",
"B  c #3D5216",
"V  c #31521A",
"C  c #3C5318",
"Z  c #355C1A",
"A  c #3B5D1B",
"S  c #37631B",
"D  c #3B641C",
"F  c #3D6D1D",
"G  c #3F711F",
"H  c #3F7320",
"J  c #434D15",
"K  c #494718",
"L  c #5C4514",
"P  c #534916",
"I  c #5C4B16",
"U  c #4A5117",
"Y  c #425518",
"T  c #4C5419",
"R  c #445A1A",
"E  c #4C5B1A",
"W  c #535317",
"Q  c #565518",
"!  c #5C5418",
"~  c #545B1A",
"^  c #5A5A19",
"/  c #70470A",
"(  c #674616",
")  c #634C15",
"_  c #6A4B16",
"`  c #7A4717",
"'  c #734D16",
"]  c #635217",
"[  c #6A5418",
"{  c #625B19",
"}  c #755416",
"|  c #7A5817",
" . c #735C18",
".. c #43631C",
"X. c #4B641C",
"o. c #446B1D",
"O. c #4A6B1D",
"+. c #52621B",
"@. c #5B651B",
"#. c #536B1D",
"$. c #41741F",
"%. c #4A731F",
"&. c #43781F",
"*. c #53721E",
"=. c #63601A",
"-. c #574326",
";. c #4C4237",
":. c #574536",
">. c #54423D",
",. c #5B443B",
"<. c #69422B",
"1. c #79452B",
"2. c #674836",
"3. c #774732",
"4. c #6E5631",
"5. c #7A5437",
"6. c #427620",
"7. c #497620",
"8. c #457C21",
"9. c #4A7D21",
"0. c #4D3D46",
"q. c #5A4846",
"w. c #594A50",
"e. c #624C45",
"r. c #644E49",
"t. c #6A5A46",
"y. c #66514B",
"u. c #6A554D",
"i. c #725D4B",
"p. c #6B5750",
"a. c #735D52",
"s. c #716445",
"d. c #7C7249",
"f. c #796559",
"g. c #7D7653",
"h. c #7F6B62",
"j. c #80500F",
"k. c #99560A",
"l. c #844C16",
"z. c #9A4A17",
"x. c #855717",
"c. c #845B18",
"v. c #965917",
"b. c #A04E1D",
"n. c #A65819",
"m. c #886118",
"M. c #976418",
"N. c #9C6518",
"B. c #B6680E",
"V. c #A66818",
"C. c #AC6C19",
"Z. c #B76B17",
"A. c #B56D19",
"S. c #AC711A",
"D. c #B4731A",
"F. c #BA721A",
"G. c #BA7819",
"H. c #83482A",
"J. c #88552E",
"K. c #834C32",
"L. c #884933",
"P. c #895935",
"I. c #955733",
"U. c #AD5327",
"Y. c #8A6238",
"T. c #9D6634",
"R. c #986836",
"E. c #9A7036",
"W. c #A76C29",
"Q. c #A26C35",
"!. c #B86732",
"~. c #AA7537",
"^. c #B77636",
"/. c #C27A1A",
"(. c #C77919",
"). c #C16E33",
"_. c #C27236",
"`. c #84684A",
"'. c #84764A",
"]. c #847A55",
"[. c #907659",
"{. c #A47C45",
"}. c #816E63",
"|. c #897567",
" X c #478122",
".X c #498423",
"XX c #4C8A24",
"oX c #4F8029",
"OX c #51822F",
"+X c #67853C",
"@X c #B4863C",
"#X c #CC841A",
"$X c #D4841B",
"%X c #D4891C",
"&X c #DA951D",
"*X c #CF8E33",
"=X c #DDA33D",
"-X c #EBAB3C",
";X c #9A8649",
":X c #948C5A",
">X c #9C8A5B",
",X c #B18A49",
"<X c #BBA95E",
"1X c #8A8860",
"2X c #B7B06D",
"3X c #C89A43",
"4X c #D09D41",
"5X c #D4A345",
"6X c #DBA945",
"7X c #D6AB59",
"8X c #E3B44E",
"9X c #D1BC6F",
"0X c #EBCB5C",
"qX c #C8C37B",
"wX c #D4CD72",
"eX c #F0D56F",
"rX c #F3E26D",
"tX c #C3BD80",
"yX c #CBC885",
"uX c #ECE888",
"iX c #EEEC9B",
"pX c #FBF191",
"aX c #FBF797",
"sX c #FCF8A8",
"dX c #ECEDB3",
"fX c #F3F2B0",
"gX c #FDFDC4",
"hX c #FFFFCF",
"jX c #FDFED4",
"kX c #FFFFDC",
"lX c #FEFFE2",
"zX c #FEFFEB",
"xX c #FFFFF6",
"cX c #FFFFFC",
/* pixels */
"N S G G G G G G G G F G &.&.&.G H H 6.&.F F G  X&.&.&.&.G F F G G 6.&.G G &.$.F S F G F F G G $.$.F F $.6.6.6.6.H 6.$.$.F F G 8.6.6.6.6.G F F G G $.6.G G &.F Z ",
"D F G $.6.6.G G G G G &.&.&.&.G H H 6.G G G G 6.G G G G F 6.6.8.8.6.G G G 8. X8.6.H G $.$.&.G G G G $.&.8.6.6.H H 6.6.H F G $.&.H F G G G 6.8.8.8.6.$.G G 8.$.F ",
"&.&.$.&.8.8.G G G G  X X8.6.8.&.H 8.H F G &.8.H H H G G H .XXXXXXX X$.G G 8..XXXXX.X6.8. X8.G H G &.&. X8.8.8.6.H 6.6.F G 6.8.6.H H G H 6. XXXXXXX X$.G G 8.&.&.",
"$.&..XXXXX X6.$.&.&.&. X.XXXXXXX.X.XH H 8..XXX.X X X X X.X.X.X.X.X.X.X6.&. X.X X.X.X.X.X.X X6.6.&.G &. X.XXXXXXX.X X6.H 8..XXX.X.X8..X.X X X.X.X.X.X X&.&..X&.G ",
"G $. X X.XXX.X X X8.8. XXXXXXX.X.X.X.X XXXXXXXXXXXXXXXXX.X8.8.8.8.8.XX X8. X X.X.X8..X.X.XXX.X X.XOXOXOXXXXXXX.XXX.X.X.XXXXXXXXXXXXXXXXX.X8.8.8.8.8.XX X9.8.6.$.",
"$.$.$.&. XXXXXXX.X.X.X.XXXXX8.8. XXXXXXXXXXXXXXXXXXXXXXX.X8.8.8.H H .XXX.X8. XXX.X8.H H .XXXXXXXXX+X+X9.XXXX8.8..X.XXXXXXXXXXXXXXXXXXX.X.X8.7.8.G G .XXX.X8.6.6.",
"F $.$.&.9.8. X8.8.6.6.6.6.8..X.X.X.X.X6.8.8. X.X.XXXXX.X.X6.6.6.F F  XXXXX8.6.6.8.8.6.8.9.8.&.&...] ( Y o.8..XXX.X.X8.6.8.8. X.X.XXXXXXX.X6.6.8.G F  XXXXX8.F D ",
"F F $.&.8.$.$.G H G H H G G 8..X.X.X8.8.6.6.6.6.8.XXXXXXXX X X X8.8..XXXXX6.G 6.6.7.6.8.8.6.D R ) k.v.) T D 6..X.X X8.8.6.8.6.6.8..XXXXXXX.X X.X6.8. XXXXX6.F S ",
"F G &.8.8.G H H H G G H G G G 6. X8..XXXXX8.6.G &..XXXXXXXXXXXXX X X.XXX9.G H 8.8.8.6.8.8.G V P k.#X#Xn.L V F 6..X X.XXXXX XH H 6.XXXXXXXXXXXXXXXX.XXXXX.XG F F ",
"F G $.8.8.6.H H G H H G 6.8.H .XXX XXXXXXX.X8. XXXXXXXXX.X.X.X.X8.6.6...R 6..X.X8.6.6.8.8.H D U ( A.F.j.W F H  X.X.XXXXXXX.X X.XXXXXXXXX.X.X.X.X6.H 6..XXX X8.$.",
"G G 6. X.X XH H 6.8.8.6.8. X.XXXXX.XXXXXXX.X.XXXXXXXXXXX&. X X XG D R ) _ #.9..X8.6.6. X.X.XH ..W c.c.^ O.&. XXX.X.X.XXX.X.X.XXXXXXXXX.X8.8..X.XH F F 8.XX X8.&.",
"&.G 6.XXXXXX8.6. X.XXXXX.X.XXXXXXX X.XXX8. XXX X XXXXX X$..XXXXXF Y ) N.A.} ~ 8.XX.X6..XXXXX8.6.&.T E %. X XXXXXXX.X.XXX X X.X X.XXXXX.X6.8.XXXX6.F G .XXX6.$.$.",
"G G $. XXXXXXX.X6.8..XXX X XXX6.G .X.X.X.XXXXX X.XXXXXXX.XXXXXXXD W l.(.%Xv.] R 6.8.6..X.X.X8.6.G D o.XX X8.XX.X8..XXXXX.XXXXX.X.XXXXXXX.X.XXXXX.X.X.XXXXX8.$.F ",
"F G &.&..XXXXX.XH H 8.XX X8..X..T 6.8. XXXXXXX.X.XXXXXXXXXXXXXXXo.~ x.D./.v.{ ..6.8.8.8.7...X.6.$.$.&.XX X8..X8.8.XX X8..XXXXX.X.X.XXXXXXXXXXX.X.XXXXX.X.X X&.$.",
"$.&..XXXXXXX.X.XXX8.6..X.X8.6.) ( E D H 8.XXXX6.$.8. X.X.XXXXX X8.6.E ' l.~ 7..X.X.X8..X#.I L ~ XX X XXX X X XXXXX XH H 8..XXX8.6.8..X.XXXXXXX.X8.6..X8.8..X8.8.",
"$.&.XX X.XXX.XXXXXXX.X.XH X. .N.A.c.Q C H 8.8.$.$.8.8.9.8.8..X.X.X8.6.+.~ 7..XXX.X.X9.X. .V.V.m.+.%. X X.X.X.XXXXX8.H H H 8.8.H H 8.8.8.8.8..X.X.X.X.X.XXXXX X6.",
"G &..X6.8.XX.X.X.XXX.X8.D T l.F.%XC._ C G 6.6.6.6.8..X8.6.8. XXXXXXX.X&.$..XXXXX X X%.K x.#X$XV.P .. X8.8. XXXXXXX8.$.&.H $.6.6.6.8..X8.6.8..XXXXXXXXX.X.XXX8.&.",
"&.&.6.$.$. X8. X.X6.H F D Y _ C.(.v.! D 6..XXXXXXX.X.X.XXXXXXXXXXXXXXX&.G  XXXXXXX8.F J ' F.Z.m.U D F $.G 6. XXXXX.X.X9. X.XXXXXXX.X.X.XXXXXXXXXXXXXXX8.6..X X6.",
"$.8. X$.$.6.8.8.8.H 6.8.G D +. .x.=.O.7.6.8..XXXXXXXXX.X.X.X.X.X8.8. X8.$.&..XXX X X8.D ^ } | { ..F 6.8.G G  X.XXXXX.X X8.8..XXXXXXXXX.X.X.X.X.X X8. X8.$.6.&.&.",
"G &.XX X8.8.8.6.8.6.8.8.H H 8.E K o..X.X8.8..XXXXXXXXX.X6.8..XXX&.G 8. X8.G &.XX X.XXX Xo.Y C D 6.6.8. X6.$. XXXXX.XXX.X8.8. XXXXXXXXX.X6.8..XXX&.G 8. X8.$.$.&.",
"6.8. XXXXXXX.X X.X6.H H F 6..X9.6.8..XXXXXXXXX.X8..X.X.XXXXXXXXXXXXXXXXXXX X.XXXXX.X XXXXX&.%. X X6.6.H F 6.XX.X X X.XXXXXXXXX X X.X.XXXXXXXXXXXXXXXXXXXXX8.&.&.",
"6.8..X.XXX.X.XXX.X.X8.8.8..XXXXX.X8.8..X.X.X8..X.X.X.X.X.X.X.X.XXX.X.XXXXX.XXXXXXXXX.XXX&.o.O.%.XX.X9.8.8. XXXXX.X6. XXX.X.X X.X.X.X.X8..X.X.XXX.X.X XXXXX.X&.&.",
"$.&.XX.X.X.X.X.XXXXXXXXXXXXXXXXX.X7.6.8.8.6.6.XXXX.X8.6.H 6.6.8.&.G F 8.&.&.%. X&.&. X&.X.I I +..X.XXXXXXXXXXXXX.X6.6. X6.6.6.XXXX X X6.H 6.8.8.&.6.&..XXX X8.&.",
"&.&.8..X.XXX.X8..X.XXXXXXXXXXX X8.6.6.6.6.6..XXX.XH 6.8.8.8.8.H F N & v v v b M M V m U  .S.C.m.T 7..X.XXXXXXX X8.8.6.6.6.8. XXX.XH 6.8.8.6.H 8.$.$.8. X X.X8.$.",
"$.&. X.X.X.X8.8.8. X8.8..XXX.X8.8..X8.6.8. XXXXX.XH H 6.6.F D S N * $ $ & = = s s % $ w x./.(.M.K ..8.6..XXX.X9.8. X8.6.8..XXXXX.XG G &.&.&.G G G G .X X X X&.G ",
"G 8.XXXX8.G 6. X.X8.6.H 8.XX.X.X.XXX.X.XXXXX.XXX.XH H H F V v v & = f h g 4.5.5.z i 4 w ` Z.S.m.T o.6.o.8..X.X X.XXX.X.XXXXX.XXX.XG G G G G G G G G .X X X X XG ",
"$.8..X X&.F G &.XXXX.X.X.X.X.X.XXXXXXXXXXXXX.XXXXX.X6.F Z * $ $ 9 ;.p.y.d.*X*X;Xr.0.f 1 w y ( ^ 9.XX X8. X X8..XXXXXXXXXXXXX.XXXXX.X&.G G G H 8. X&. X X X.X XG ",
"$.8..X X X8.G &.XXXX.XXX.X.X.X.XXXXXXXXXXX X8..XXXXX6.Z * 8 7 7 j y.h.h.[.8X6X,Xp.q.q.7 4 p w M F  X9.X.X.6. XXXXXXXXXXXXX X8..XXXXX X&.6. X.X.X.X.X.X X X.X.XG ",
"G &.XXXXXXXX.XXXXX.X8.6.7..X.XXXXX.X.X.X.XH H  X.X.XG m 1 ;.e.e.p.h.|.}.>X6X5X{.p.w.y.>.k k a 9 & D +.) I ~ 9.XXXX.X.X.X X6.6. X.XXX.XXXXXXXXXXXXXXXXX.X X XG G ",
"G &..XXX.X&..XXX.X.X6.C Y o.XXXX.X8.8.8.XXXX.X8.H D m 8 j e.i.f.}.|.|.h.[.6X4X,Xp.w.t.e.q.>.h 0 1 K  .V.S.m.~ $. X X6.8.XXXX.X8..XXXXXXXXXXXXXXXXX.X&..X.XG G G ",
"G F $. X X&.&..X.X7.X.I _ ^ 7.7.8.8.8.8..XXX.X8.S b * f y.u.a.}.|.|.}.h.'.4X4X{.y.w.r.q.j j ;.j l r x.#X(.N.P D 8.8.8.8..XXX X8. X.XXXXXXX.X.X.X.X.X X.X.X XG G ",
"G ..U %. X&.&..X.XA ] V.A.M.U ..6..XXXXX.XH G .XF & 9 >.f.i.p.f.}.}.a.p.`.4X3X{.w.0.q.>.j h e.P.Q.1.H.A.C.| J D 8..XXXXX.X6.$..X.X.XXXXXXX&.&..X.XXXXXXXXX.X XG ",
"R ] | ^ O.8.8. X6.J ' /.$XC.L R 8..X9.8.8..X.X.XZ + 9 >.a.u.y.u.u.p.p.w.`.4X6X,Xi.e.2.j j k 5.Q.~.2.l y [ @.O.6. X.X X8. X X X.X X6.XXXXXX X8..XXXXX.X8. X.X.X X",
") v.Z.x.^ o. X.X6.E  .C.F.N.! X.8..X8.6.9..X.X..M 8 7 j e.y.r.q.r.r.y.r.d.3X6X4X{.R.P.2.k 5.T.W.J.-.i u = D .XXX.X.X8.6. XXXXX X6.8..X.XXX.X X.XXX.X XH G XX XG ",
"z.G.&XA.} T 8.XXoXXX*._ ( ] 9..X.XXX.X.X.X8.o.K d d ,.>.q.y.i.i.i.u.y.u.`.3X=X-X*X*X^.4.i.~.@XP.g 0 7 . $ N .X.X XXXXX X.X X&.$.6..X8..XXX.X.XXX.X X X X.XXXG F ",
"_ M.D.v.{ o.8.XXXXXX9.R Y X.XXXXXXXX.X.X8.S n 4 <.R.Y.2.q.].2X2X>Xi.,.P.~.{.~.Q.Q.Q.E.I.^.6X0X<Xg.,.7 < X & D 8.XXXX.X.X.X X8.&.8..X8.8. X8. XXXXX.X X XXXXXG F ",
"C ) l.W ..6.8. XXXXX.X6.6.6..XXX.X.X.X8.H m @ 6 2.~.~.P.4.2XuXaXqX:X4.T.^.Y.2.,.k 2.3.W.6XeXaXuX9Xs.7 < : @ * D  X8. X XXXXX X9..X.X8.6.6.6..X.XXXXX.X.XXXXXG F ",
"$.R J ..H H 8. XXX.X.X8.8.8..X8.8.6.8.H F n @ 0 2.`.T.Q.;XeXaXhXdXyX;XE.J.,.j j 0 0 :.,XeXsXgXsXwXd.7 < < 3 . & V F 6.8.XXXX.X.X.XXXXXXX.X.X.X8.G &.XXXXXX X XG ",
"$.F D &.8.8.8..X8..X8..X.X8.8.8..X8.8.8.F & @ 7 j q.5.W.-XrXsXlXzXdXyX>Xt.>.h h h q.].wXsXkXzXgXrXg.9 < 3 3 > @ & D 6. X X.X.XXX.X.X.X.X.X.X.X.X&.G XX.X&.&.8.&.",
"F 8.9. X.X.X.X8.8.6.8.9..X.X8..XXX.XXX.XD & . 7 0 0 2.^.-XrXsXzXcXxXfXyX1Xy.h 7 q.].9XdXlXcXxXgXwXg.7 < 3 5 3 . $ A  XXX8.8..XXX.X.X.X.X.X.X.XXX&.&..X&.G &.G G ",
"D $..X X X.X.X.X.X8.6.8.8.9..XXX.X.XXX.XD *   5 0 h z Q.=X0XaXhXxXxXlXfXwX[.i ; 2.2XiXjXxXcXlXfX9Xs.7 > 3 3 > X + D 8.XX8.8..XXXXX.XXX.X.X8.8..X.X.X.X X XXX&.G ",
"F $.8.8. X X8.8.8.8.7...E ..9.8.8.8.8.H S * X 3 7 f j 2.E.6XeXsXhXkXgXpX8XQ.p , ;.].2XdXjXkXdXtXd.:.4 3 3 3 3 . $ Z H 8.6.8..X.X8.8.8.8.6..X.X.XXX.X8.&.8.XX XG ",
"&.$.$.8. X8.G F $.o.X.I ) ! o.6.6.8.H F Z * X 3 0 f a f 2.W.6XeXiXiXuX8X*Xn.y q 3 h i.qXiXiXqX].8 3 3 3 7 3 1 @ & Z G F 6.8.8.6.6.H G H 6..XXX.XXX X$.G G 8.8.&.",
"G &..XXX.X X$.$.$.Y [ C.D.M.! ..8..XH F S & X 3 6 6 f 2.I.J.R.'.:X>X;XQ.U.(.Z.l.o ; ;.,X7X<Xg.;.3 3 3 3 3 < # n Z 6.G G 8..X.X.X X8. X X.X8..X.X.X.X X&.&. X&.G ",
"G 6. X X.XXX.X X7.J ' (.$XC.L .. X.X.X8.F m $ @ 5 i z P.I.3.d g :.:.d x z.(.#XW.1.p l Q.~.R.2.4 > > 2 6 3 < + V H .X8..X.XXXXXXX.XXXXXXXXX8.8. X8.8..X X8. X6.G ",
"G G 6.6. XXXXXXX8...{ V.F.M.P D 8.XXXXXX XD n @ 3 d K.I.J.g 6 ; - 1 q x b.B.#X4X,X{.L.1.H.1.z u < 1 2 5 < @ O Z .XXXXXXXXXXXXXXXXXXXXXXX.X8.6.8.G H .XXXXX6.6.6.",
"G G G 8. X X8.8.6.o.E ) ) ! %. X.X.X XH 6.H D & e x L.3.a 7 7 6 2 5 d I.!.z.!.7XeX7XI.d d K.J.<.u , 3 3 1 @ * D .X.X8.6.8.8..X.X.XXXXX.X.X6.6.6.F F  XXXXX8.F D ",
"F F $. X8.H G G H H D B M A 8..X.X X8.6.8.8.H N K z 3.d 6 6 a a 0 0 :.Q.).U.^.6X9X,Xx 4 i <.K.K.z p w % - & V H .X.X8.8.6.8.6.6..X.XXXXXXX.X9. X8.8..XXXXXH F D ",
"F $.$.&.8.G G G G G G F F F G 6. X X.XXX.X X6.F D K d u 4 6 a f 0 7 k I._.)._._.Q.3.a 5 > 2 d L.U.b.y q + v D 8. X X.XXXXX XG G 8..XXXXXXXXXXXXX.X.XXXXX.XH F F ",
"F F &.&.8.8.G G G G H G 6.6.6. X.X.XXXXXXX.X X.X9.o.M 8 < 5 7 7 2 > s I.!.I.K.<.1.3.c u - - u x U.(.A.l.P M $. X.X XXXXXXX.X X.X.XXXXXXX.X.X.X.X8.6.8..X.X.X6.6.",
"G $.&. X.X X$.G 6.8.8.6.8. X.XXXXX.XXXXXXX.X.XXXXX.XF n # 1 3 2 3 7 d L.I.z 7 3 d c L.d 6 > , t U.(.$Xv.) A  XXXXX.XXXXXXX.X.XXXXXXXXX.X8.8..X.XH D G 8.XX.X8.6.",
"&.$.$.XXXXXX8.8. X.XXXXX.X.XXXXXXX X.XXX8. X.X8..XXXXXD & $ X 1 4 d L.3.l 7 : : 7 l 3.K.c 4 . o y C.D. .+.$.XXXXXX.X.XXX&. XXX8..XXXXX.X6.8.XXXX6.F G .X.X6.6.6.",
"F G &. XXXXXXX X6.6..XXX.X8.XX X8..XXXXX.XXXXX.X.XXXXX.XF n O O w z L.d 3 . > : ; > s L.3.s + + % r  .#.%.&.XX X8.XXXXXX.XXXXX X.XXXXX.X9.6.6.XX.X8..XXX.X8.6.G ",
"F $.&.&..XXXXX X6.H 8.XX X8..X X8.XX X8.XXXXXX X X.XXXXX.XD b v M s l 4   X X < X   , x 1.-.M b * M Y  X X&.XX&.8..X X8.XXXXXX X.X.XXX.X7.+.+.7..XXXXXXX.X.X6.G ",
"G &..X.X.X.X&. XXX X8..X.X.X.XXXXX X6.F 8.XXXX8.7.8..X.X.X.X8.6.D * # . + .   +   . . p P ..&.&..X%.%..X.X&..XXXXX X6.F 8.XXXX8.6.8..X8.E ` } E o.8.8.8.8.6.6.6.",
"G &.XX.X%...U X.XXXX.X.X8..X.XXXXX6.G G 6.8.8.6.H 6.8.8.8..X.XXX$.S b V V V Z Z * % q = .. X.XXXXXXX.X.X.X.X.XXXXX6.H H 6.6.8.$.H 6...^ c.F.D.x.~ F .X X7.T Y A ",
"$.8..X$.X.] ' { 9..X X6.8. X.XXXXX8.$.6.6.6.6.6.8.8.8.&.8.8. XXX.X X9.&.&.8. X9.E _ ` W o..X.X.X.XXX.X8.8. X.XXXXX6.$.F D o.6.6.8.8.A I n.%X#Xv.! o.&..X@.' / J ",
"$.8.o.M [ A./.N.I R F G 6.6..XXXXX.X X8. X.X.XXX.XXX.XXXXXXXXXXXXXXXXX&.&..X8.+.| C.G.x.W ..&. X.X6.H H G 6..XXXXXXXo.B J o.XXXXXX.X6.X. .C.C.[ #. X%.^ x.G.k.t ",
"$.8.6.B ' /.$XC.r Y F 8.H G  XXXXXXX.X.X8.8..XXXXXXXXXXX X X.X.X&.&..X&.$.6.F ~ v./.#Xv.L A $.&.6.6.6.8.H G  X.X X%.=.| | { 6..XXXXX.X7.E _  .+.%.G D I v.%XB.t ",
"F 8. XR [ V.D.M.P ..$. X6.6. XXXXX.XXX.X8.8. XXXXXXXXX.X&.8..X.X&.&.&..X8.$.D X.| V.D.c.Q F $.&.6.6.8. X6.H  X.X8.R | Z.A.c.Y 7..XXXXX.XG Y R 8.&.F o.Q | D.k.t ",
"$.8. X X#.^ ) ^ 7.6.F $.F 6.XX.X.X8..XXXXXXX.X.X X.X.XXXXXXXXXXXXXXXXXXX.X8.9.9.#.] _ #.9..X X.X.X6.H H G 6.XX.Xo.P v.$X$XM.P ..8..X.XXXXX.X.XXXXX.X.X.X#._ L B ",
"$.8..XXX8...R o..X.X8.8.8.8.XXXX.X6..X.X.X.X8..X.X X X X.X.X.X.X.X.X.XXXXX XXXXX8...E 8.XX.X.X.XXX.X X6.8..XXXXX7.T  .V.V.| T 7..X.X.X8..X.X.XXX.X.X XXX XE A F ",
"$.&.XX.X.X8..X.XXXXXXXXXXXXXXXXX.X6.8.8.8.6.6.XX.X8.9.8.6.6.6.8.9.$.&. XXX X.XXX X8. X X X.X.X.XXXXXXXXXXXXXXXXX.XG T L L W 6..X.X8.8.6.6.6.6.8.&.&.&. X.X&.$.&.",
"$.&.9. X.X.X.X8.9..XXXXXXXXX.X.X8.8.6.6.6.6..XXX.X6.6.8.8.8.6.6.6.$.8. X.X X X XXX X8..X.XXX.X8..X.XXXXXXXXX.X X8.6.o.Y Y o..XXX.XH 7.8.8.6.6.6.G &.%. X.X X&.G ",
"$.&. X.X.X X8.8.8.8.8.8..X.X.X8.8..X8.6.6..XXXXX.XH H 6.6.6.H H F 6. X8. X X X X.X.X X.X.X X8.8.8..X.X8..XXX.X.X X X&.G G &.XXXX X$.$.$.&.&.$.G G G .X X X X&.G ",
"$.&.XXXX8.$.6.8..X X6.6.8.XX.X.X.XXX.X.XXXXX.XXX.X6.H H H H H G $.6..X.X X8. X X X.XXXXX XG 6. X.X8.6.H 8..X.X.X.XXX.X.XXXXX.XXX.X&.G G G G G H G &..X X X X&.$.",
"$.&..X X6.G G 6.XXXXXX.XXX.X.X.XXXXXXXXXXXXX.X.XXX.X6.H G G 6.8.8.8. X X.X.XXXXX.X.X.X9.&.F F &.XXXX.X.X.X.X8..XXXXXXXXXXXXX.XXXXX.X$.G G G 6.8.&.&. X X.XXX&.&.",
"$.&.XX X8.6.6. XXXXXXX.X.X.X.X.XXXXXXXXXXX X X.XXXXX X6.6.8. X.X.X.X X X XXXXXXX.XXX.X X8.8.$.&.XXXX.X.X.X.X.X.XXX.XXXXXXX X&..XXXXX X&.6.8. X.X.X.X X X X.X X&.",
"G  XXXXXXXXXXX.XXX X8.6. XXXXXXXXX.X.X.X.X8.H .X.XXXXXXXXXXXXXXXXXXXXX X8. X.X.X.X.XXXXXXXXX.XXX.X9.o.6.8..XXXXXXX.X.X.X X&.&. XXXXXXXXXXXXXXXXXXXXXXX.X&. X&.G ",
"G G  XXX.X8..XXX.X.X8.6. XXXXXXX.X8.8.8..X.XXX6. XXXXXXXXXXXXXXXXX.X X X X8.&.6.8. X XXX.X6.XX.X6.T K D .XXXXXXX X X&.&..XXX.X&.8.XXXXXXXXXXXXXX.X.X X.X.X&.G F ",
"F &..XXX X$. X.X.X X6.&. X.X.X X8.8.8.8.XXXX.X6. X.XXXXXXX X XXXXX X8..XXX8.8.8..X.X XXX XG 6.%.@.} } ^ %.8..X X&. X X&.XX.X X&. X.XXXXXXX X XXXXX.X X.X.X XG F ",
"G  XXXXX.X X&. XXX X6.&.6.6.&.&.8..XXXXX.XH H .XXX XXXXXXX8.&..X.XXXXXXXXX.XXXXX.XXXXXXX.X8.F T x.F.F.v.W D H H  X.X.XXX.X&.&..XXX XXXXXXX8.&..X.X.XXXXXXX.X X&.",
"G &..X.X X&. X X X X&.$. X.X8.&. X.X X9. X X X.X X6..XXXXX8.8.XXXXXX.X&.&.XXXXXX.X.X.X.X8.8.D W l.(.$Xv.! D &. X X.X X&..X X.XXX X8..XXXXX8.8..XXXXX.X&.&.XX.X&.",
"G &. X X X.XXX.X&.XX.X8..XXXXX.X.XXX8.&.8.XXXX X6.8. XXXXX.X X.XXX.X XG &.XXXXXX X8. X8. X9.&.+.| V.W.| ~ $..X.X.X.X9.&.&..XXX&.6.6. XXXXX.X.XXXXX.X.XG &.XX.XG ",
"G $.&.&..XXXXXXXXXXXXXXX8.6.XX.X XXX.X X.X X8.H 6. X X.XXX.X.XXX.X X&. X.XXX X8. X8.8.8. XXXXX.X7.) ) #.$.$.XX.X.XXX9.$.&.&. XG 6. X X.XXXXX.XXX.X X X X.XXXG G ",
"G $.$.&.&.XX.X.XXXXXXX X&.8.XXXXXXXX.X.XXX X8.6. X.X8.&. X8. XXXXXXX X XXXXX&.&. X8.6.6.9..X.X.X.XX.X.&.G 8.XXXXXXXXO.U U O.&.&.8..X8.6.8.8. XXXXX.X X XXXXXG S ",
"G G G G &. X X XXXXX X&.&..XXXXX.X.X X.XXXXX X8. XXX X6.&.6. X.XXXXX.X.X.XXX X6..X8.$.G 6.8.8. X.X.X&.6.8..XXX.X.X%.=.' ' =.%.&. X.X X6.6.6.8..XXXXX X.XXXXXG F ",
"&.G G G G G &..X.XXX.X X&. X.X8.6.6.&.8.XXXXXX X XXXXXXX X.X.X XG &.XXXXXX.XXXXXXX8.G $.H 6.8..X.X.X.X9.8. X.X8.o.K x.(./.m.P o. XXXXXXX XXXXX XG &.XXXXXX X&.G ",
"F G G G &.G &.&.G G &.&.&.&.&.&.$.$.6.6.8.8.8. X8.8. X X6. X8.8.F F 8.&.G G 6. X8.6.F 6.$.6.$.$.8.$.$.$.6.&.6.$.D = / B.B.j.K ..6.8. X X8.8. X6.G F &.&.G G G G ",
"S D G G G &.G G G F F G &.G F G 8.$.8.&.F F G 6.6.$.G G H G G &.F F G F S F F $.G G F $.6.$.$.F F F F $.$.G F G D M / k.k./ = S &.G G G G G $.6.F F G F S F S S "
};
