/* XPM */
static char *Group_9_resized[] = {
/* columns rows colors chars-per-pixel */
"80 80 228 2 ",
"   c #2F3A16",
".  c #2C392B",
"X  c #282938",
"o  c #2A2D3D",
"O  c #2C3633",
"+  c #2D3C33",
"@  c #2D333D",
"#  c #2E3A3D",
"$  c #343330",
"%  c #333B36",
"&  c #313B3D",
"*  c #2B481A",
"=  c #324519",
"-  c #334C1D",
";  c #2F5216",
":  c #34541C",
">  c #35571D",
",  c #395C1E",
"<  c #37631B",
"1  c #3A651C",
"2  c #3D6D1D",
"3  c #3F711F",
"4  c #2F4424",
"5  c #2F4828",
"6  c #334527",
"7  c #324C23",
"8  c #324D2C",
"9  c #335424",
"0  c #365B23",
"q  c #3A5E24",
"w  c #34532C",
"e  c #395829",
"r  c #3A5C2C",
"t  c #2E4431",
"y  c #2C433D",
"u  c #324435",
"i  c #324B31",
"p  c #33423B",
"a  c #36493A",
"s  c #355234",
"d  c #395834",
"f  c #376220",
"g  c #3B6423",
"h  c #3E6D22",
"j  c #3D642C",
"k  c #3F6929",
"l  c #3F7220",
"z  c #3E6230",
"x  c #3C633A",
"c  c #406F1E",
"v  c #41751F",
"b  c #43791F",
"n  c #43482B",
"m  c #44592B",
"M  c #494B34",
"N  c #4A5333",
"B  c #4D5C33",
"V  c #545B39",
"C  c #426424",
"Z  c #416E24",
"A  c #42672E",
"S  c #416B2D",
"D  c #417620",
"F  c #447627",
"G  c #457C21",
"H  c #416731",
"J  c #416A30",
"K  c #53653A",
"L  c #497033",
"P  c #2D3544",
"I  c #333744",
"U  c #323B43",
"Y  c #34334E",
"T  c #32384E",
"R  c #2E3053",
"E  c #343352",
"W  c #353959",
"Q  c #2C3760",
"!  c #373B65",
"~  c #40385E",
"^  c #4C3E62",
"/  c #463A6A",
"(  c #453B72",
")  c #4C3D7B",
"_  c #513E7A",
"`  c #2C4143",
"'  c #364446",
"]  c #32424B",
"[  c #344453",
"{  c #37475C",
"}  c #3A5359",
"|  c #3E614A",
" . c #384569",
".. c #395160",
"X. c #3D4972",
"o. c #384B78",
"O. c #3A5375",
"+. c #35537C",
"@. c #38537F",
"#. c #51514E",
"$. c #54664E",
"%. c #64684B",
"&. c #617049",
"*. c #6C6854",
"=. c #6D7057",
"-. c #75795D",
";. c #43497A",
":. c #554174",
">. c #42557B",
",. c #675B73",
"<. c #43636B",
"1. c #48667A",
"2. c #786B6D",
"3. c #7A7764",
"4. c #847D6B",
"5. c #478022",
"6. c #498423",
"7. c #4C8A24",
"8. c #8B8875",
"9. c #908D77",
"0. c #938B7C",
"q. c #3E4E80",
"w. c #375484",
"e. c #3A5581",
"r. c #3C5A85",
"t. c #3E5E8A",
"y. c #3F618D",
"u. c #544588",
"i. c #445B84",
"p. c #435688",
"a. c #425C8B",
"s. c #5B4C98",
"d. c #4C5592",
"f. c #475A91",
"g. c #4D5A96",
"h. c #4F5999",
"j. c #52569A",
"k. c #5E519E",
"l. c #525A9B",
"z. c #624D9B",
"x. c #744994",
"c. c #6B5095",
"v. c #42618D",
"b. c #4B6688",
"n. c #556788",
"m. c #446592",
"M. c #456A95",
"N. c #4A6895",
"B. c #476E9A",
"V. c #496E9B",
"C. c #556D97",
"Z. c #49719D",
"A. c #4F789D",
"S. c #547294",
"D. c #617C94",
"F. c #5A59A4",
"G. c #5C59A4",
"H. c #6451A3",
"J. c #6855AA",
"K. c #635AAB",
"L. c #7B52AB",
"P. c #6A5CB3",
"I. c #725CB7",
"U. c #4B75A1",
"Y. c #4B71A5",
"T. c #4D79A5",
"R. c #4F7DA9",
"E. c #5279A6",
"W. c #5373A9",
"Q. c #7B62C1",
"!. c #8451AA",
"~. c #9358BC",
"^. c #9C5CC3",
"/. c #8E62CA",
"(. c #9565D2",
"). c #A465D5",
"_. c #4F83AE",
"`. c #5C88A2",
"'. c #5283AE",
"]. c #5486B1",
"[. c #568BB5",
"{. c #568EB8",
"}. c #588EB8",
"|. c #5791BB",
" X c #5992BC",
".X c #638CAB",
"XX c #638BB8",
"oX c #6895B3",
"OX c #74A7BC",
"+X c #5D98C2",
"@X c #669ACB",
"#X c #7099C6",
"$X c #65A3CC",
"%X c #76A9CC",
"&X c #67ABD4",
"*X c #68A8D5",
"=X c #7EB9DB",
"-X c #71B0E0",
";X c #73BBE5",
":X c #75C5EC",
">X c #79CCF3",
",X c #7DD3F9",
"<X c #9A9485",
"1X c #8A8991",
"2X c #A39D8B",
"3X c #ACA791",
"4X c #B3AD9B",
"5X c #B3ADA0",
"6X c #B9B4A5",
"7X c #C2BCAC",
"8X c #C1BCB1",
"9X c #CBC7B8",
"0X c #D2CCBA",
"qX c #87ABCC",
"wX c #84B5D6",
"eX c #84BEEB",
"rX c #8EC7D5",
"tX c #85C3EB",
"yX c #93D9EF",
"uX c #8ACCF7",
"iX c #9AE7F9",
"pX c #B0E9F3",
"aX c #D1CCC1",
"sX c #D8D4C8",
"dX c #E6E3D6",
"fX c #D3EEE4",
"gX c #EEECE6",
"hX c #F8F7EF",
/* pixels */
"; < v 2 3 3 v 3 v 2 3 v b v b 3 3 5.3 b 3 3 3 5.5.3 b 3 3 3 2 3 3 3 b 3 3 G 3 3 < 2 3 3 2 3 3 3 b 2 2 3 3 b b b 3 3 b 3 3 2 3 b b v v v 3 2 2 2 3 v b 3 v b 2 , ",
"1 2 v v D D 3 3 3 3 3 b b v b 3 3 l 3 3 3 3 3 3 3 3 3 3 3 l G G G b 3 3 3 b 5.G D v v v v b 3 3 3 3 b b G 3 l 3 3 b 3 3 3 3 v b v 3 3 3 v v G G G D v 2 c G v 1 ",
"b b v b G G v 3 v b b G 5.D G D l l 3 2 3 3 5.3 3 3 3 3 l 5.7.7.7.5.3 2 3 b 6.7.7.5.v G 5.G 3 3 3 b b 5.G G G l D G 3 3 3 G G D 3 3 Z c v 6.7.7.7.5.v 3 v G b b ",
"v b 6.7.7.G D v b v b 5.6.7.7.7.7.5.l 3 b 7.7.7.5.5.6.7.6.5.6.6.7.6.6.b b 5.6.5.5.6.6.7.6.5.b 3 b 3 b 5.6.7.7.7.7.5.3 3 G 6.7.6.6.5.6.G 6.G 6.6.6.6.6.D v 6.b c ",
"2 b 6.6.6.7.6.G 5.b G 6.7.7.7.6.6.7.5.5.7.7.7.7.7.7.7.7.7.b G 5.G 5.6.5.5.5.5.5.5.5.5.6.6.7.6.5.6.b G 5.7.7.7.7.7.6.6.6.7.7.7.7.7.7.7.7.7.G G G G G 7.G G G b v ",
"v v v v G 7.7.7.7.6.6.6.7.7.G G 5.7.7.7.7.7.7.7.7.7.7.7.6.b D G 3 l 6.7.6.G 5.7.6.G 3 l 5.7.7.7.7.6.6.6.7.7.G G 5.7.7.7.7.7.7.7.7.7.7.7.G G G G 2 v 6.7.7.G D b ",
"2 c v G G G 6.G D D D D D G 6.6.6.6.5.5.l 5.7.6.5.7.7.7.7.b b 5.2 3 5.7.7.G D D G G 3 D G 5.5.5.D D D G D G 6.6.6.6.5.3 D 5.5.6.6.7.7.7.7.G b D 3 3 G 7.7.G 2 < ",
"2 2 v b G v v v 3 3 3 l 3 3 G 6.7.5.G 3 5.l l 3 b 7.6.5.5.3 3 b v v 5.7.7.D 3 b G G b 5.G 3 3 3 3 3 3 3 3 3 G 6.6.5.5.D G D G l G 7.7.7.7.G G 6.G v 7.7.7.D 2 < ",
"2 3 3 5.5.3 3 3 3 3 3 3 3 3 3 l 5.5.6.7.7.3 l 3 D 5.D h h h l h D G 6.7.6.l l G 5.G b 5.G 3 3 3 l 3 3 3 l l l G 6.5.6.7.7.5.3 3 G 6.7.7.7.7.7.7.6.6.7.7.6.c 2 c ",
"2 3 b 5.5.l 3 3 3 l 3 3 D G l 6.6.5.7.7.7.7.G 6.7.G r i ` y ` y 5 f F 6.6.5.6.7.G l b D G l 3 3 3 3 3 3 3 l l 5.6.5.7.7.7.6.G 6.7.7.7.7.6.6.6.6.G D D 6.7.G b v ",
"3 3 3 6.6.5.3 3 D G G b G 6.7.7.7.5.7.7.7.5.6.6.G L } >.p.>.>.b...s f D 7.6.6.7.6.D 3 5.7.5.3 3 l 5.G 3 7.5.6.7.7.6.7.7.7.5.6.7.7.7.7.6.G G 6.6.D 2 2 G 7.6.G b ",
"b 3 3 7.7.7.5.l 6.7.7.7.6.6.7.7.7.5.7.7.5.5.6.2 x | .X%XwXqXqXwX[.<.8 l 6.F G 7.7.G b 7.7.7.5.G 6.7.7.7.6.6.7.7.7.5.7.7.l 5.7.5.6.7.7.6.v 6.7.7.D 2 2 6.7.D v b ",
"3 3 3 5.7.7.7.5.3 D 6.7.5.G 7.6.5.7.7.7.7.7.5.w } N.%XyXpXpXpXiX=X`.} x l D 5.5.5.D 3 5.7.7.7.5.3 5.6.7.5.G 7.5.G 6.7.7.7.7.7.6.6.7.7.6.6.7.7.7.6.5.6.7.7.G v v ",
"2 3 b 5.6.7.7.6.3 l 5.7.5.G 6.5.b 7.5.G 7.7.5.s ..V.oXwXpXpXfXyX%XXXS.<.x l G 5.G G G b 6.7.7.5.3 3 5.7.5.G 7.G b 7.5.5.7.7.7.6.6.7.7.7.7.7.7.7.6.6.7.7.6.6.D c ",
"3 b 6.6.7.7.6.6.7.6.5.6.5.5.5.7.7.6.3 3 F 7.6.s { q.;.S.rXpXrXD.S..X%X.X1.d h 6.6.5.6.7.7.7.6.6.7.5.b 7.5.5.6.7.7.6.l 3 G 7.7.l v G 6.6.7.7.7.G G G G 6.G 6.G b ",
"3 5.6.6.7.7.6.7.7.7.6.5.6.6.6.7.7.5.3 l l l l i { ;.! n.qXyXwXn.S.OXyXrXA.] f 6.6.6.7.5.7.7.6.7.7.7.6.6.6.6.6.7.7.b 3 3 l G 5.3 v F G G G G 6.6.6.5.6.6.7.7.G b ",
"3 b 6.b G 7.6.6.6.7.6.G G 6.6.7.7.G D G v b h i ..p.g.W.eXuXeX.XOXrXiXeXW.[ r 6.6.6.7.D G 7.6.6.7.7.6.G G 6.6.7.7.G v v v v D D G G G D D G G 7.7.7.7.7.7.7.G b ",
"b b b 3 v G G 5.6.D 3 l 3 D 6.7.7.6.G G G 6.5.w { N.@X;XuXuXuXyXyXyXeX@XN.` g 6.6.6.D 3 D G G G 5.3 3 3 3 D 6.7.7.6.6.b 5.6.6.6.G 7.7.7.7.7.7.7.7.7.7.b D 6.6.b ",
"v b 6.v v b G G G D D G 3 3 5.7.7.7.6.6.G 5.5.l | 1.+X*X-X-XeXiXiXtXXXb.} s h 6.6.6.G D D D G G 5.l l 5.3 3 G 7.7.7.6.6.b c 1 1 v 7.7.7.6.6.7.7.G G 6.b v D D b ",
"3 b 7.5.G G G D D D G 6.D 3 5.6.7.6.6.6.D D D 5.l $.>.Y.W.W.*XuXuX#X>.' w g v 7.6.6.7.6.G G G D l l G 6.v 3 6.7.7.6.6.6.b C 9 m C G 7.6.b b G 7.b b G G G c v b ",
"D G 6.6.7.7.6.6.G b v 3 c D 6.6.6.5.G l g , 2 G 5.F d ] Q o.W.*X#XC.P . c D 6.7.6.6.6.6.7.7.6.6.6.l 3 3 3 D 7.6.6.G 7.b v L =.4.&.C D 6.7.7.7.7.7.7.7.7.7.G b b ",
"b G 6.7.7.6.6.6.7.7.G G G G 7.7.6.b h e u u 8 g G 5.h 8 X W e.W.W.;.P 4 v G 7.7.7.6.6.7.7.7.6.7.7.7.5.D G 5.7.7.6.b v c m -.3X6X9.V , v 6.6.6.6.7.7.6.7.7.G b b ",
"3 b 7.6.5.6.6.7.7.7.7.7.7.7.7.7.G 2 w % E W Y s h l D g t U  .@.q. .P 8 v G 6.G D D G G D D G G 5.6.7.7.7.7.7.7.7.v c : n 8.0XdX8X3.B , 2 v b b b b b 6.7.6.G b ",
"b b G 6.6.7.6.G G 7.7.7.7.7.7.D g 7 a  .i.f.>.} s , l D h 5 U Q Q U e Z G b g 7 4 - 4 - - 7 4 * * g D 6.7.7.7.6.b b c : $ 8.sXhXgX9X0.%.> < 2 v c v G G 6.6.D v ",
"v b 6.6.6.5.5.G G G G G 6.7.6.2 9 &  .@.T.].E.i.[ . 1 v D , 5 P o t 2 b b h 8 @ & # # & % & % U U u 0 h G 5.5.5.b 6.c : M 4.0XgXhXgX7X2.6 : 1 v 3 3 5.5.5.6.b 3 ",
"3 G 7.6.5.3 l 5.6.5.D l G 7.6.g 6 E X.m._.|.{.V. .X - 1 3 3 0 4 . 4 Z v h 8 ]  .;.;.X.X.X.X. .;.X.[ 5 : , h l 5.6.6.c B 4.0.6X0XdXdX6X3.n : 2 v 3 3 6.6.5.6.b 3 ",
"v G 6.G v 2 3 b 7.7.7.6.6.7.G 1 8 E ! a.Z._.'.N. .X 9 1 2 v v h > 7 t . . U  .a.N.Z.A.Z.V.N.V.V.V.>.] . O . 9 l 6.c B 4.6X7X3X0.0.2X-.K , 2 v b b 5.b 6.6.6.5.3 ",
"v G 6.6.5.G 3 b 7.7.7.6.7.6.5.l e U W X.a.B.N.@.[ 6 , v b b 5.b f t T R E  .i.E.'.[.[.[.[. X X@X XA.O.E R T t f Z B -.4X0X7X4.%.V V m C v b b 6.6.6.6.5.6.6.5.b ",
"v b 6.7.7.7.6.7.7.6.G b 5.7.7.5.h 9 # W o.;.X.[ i C D 6.7.7.6.Z s [ O.p.i.a.E.].|. X X X+X&X:X:X:X+XT.i.a.i.[ t w =.3X9X7X9.K m ; : 2 b 6.7.7.7.7.7.7.6.G 5.b 3 ",
"2 v 5.7.6.b 6.7.6.5.5.D 5.7.7.6.D h 9 # R E I t g G 7.7.7.G q u { >.B.Z.B.U.'.[.|.|.|.[.+X&X:X,X>X=X$X[.{.R.r.{ #.<X4X4X4.K C , 1 b b 7.7.7.6.7.7.6.b 5.5.G 3 1 ",
"3 b 6.7.6.b 5.6.6.5.D D G 7.6.5.5.5.h 9 u O . 0 v 7.7.7.G q u W >.N.T.T.T.R.[.{.|.].]._. X&X;X>X,X,X:X&X$X+XU.i.d.1X<X8.B , c b 5.7.7.7.7.5.5.7.7.5.5.7.7.b 3 3 ",
"v 5.7.7.6.G b 6.7.5.D D D D 3 b G 5.6.D g 9 > D 6.G 7.G q p W O.N.Y.U.Z.U.R.].}.|.|.].[.[.|.$X;X>X,X>X;X&X+X_.E.C.n.#.N C 2 c 6.7.6.7.7.7.b b 6.6.7.7.7.7.6.5.b ",
"v b 6.7.6.G 6.G 6.b G c G 7.G c c c c c b b G 6.G D l g u W +.m.T.T.U.B.Z.T.'.'.[.[.[.[.[.'.}.$X-X:X:X=X$X X|.|._.b.W . 0 2 5.6.G G 6.7.7.5.G 6.7.7.6.b G 7.6.b ",
"c b G G G G 7.6.b 7.7.b 6.7.7.b , , , c G 7.7.G D h 0 t T X.a.U.R.T.Z.B.V.Z.T.R.'.[. X[.[.'.]. X$X&X&X&X@X X X X{.B.o.P t j G l b G 6.6.7.6.5.6.7.7.5.v 3 7.5.3 ",
"c b G G 6.7.7.7.7.7.7.7.b b 7.Z B %.V c b G b c 2 0 O Y  .@.y.B.Z.U.Z.Z.Z.B.Z.Z.R.[.[.[.[.[.[.[.[.|.|.|.[.[.}.[.[._.M.O.W y 0 2 b 6.G 6.7.6.6.7.6.5.G 5.7.7.3 2 ",
"c c v v G 7.6.7.7.7.7.6.b c C &.8.3X9.V : ; = : - 4 X R o.e.y.y.M.B.U.Z.Z.Z.B.Z.U.R.[.[.[.}.[.[.].].]._.|.[.[.'._._.U.e.W O ; 2 G 6.G G 5.G 5.7.7.6.5.6.7.7.3 < ",
"v 3 3 3 D G G G 7.7.6.b G c : =.4XsX7X-.M M M V M M I R  .w.w.w.y.M.Z.U.Z.Z.V.V.Z.U.'.'.[.|.[.[.].[.].[.[.[.'.E.T.R.V.i.W # : 2 5.6.G b D D G 6.7.7.6.6.7.7.D 2 ",
"v v 3 v b b G 6.7.7.7.G 6.c > %.0.0X8X4X<X0.0.0.8.=.#.Y W o.w.w.e.t.M.B.Z.A.Z.Z.M.Z.Z.'.'.].'.'._._.'.'.].'.T.Z.V.U.V.v.X.T 8 f D 6.7.7.6.7.6.G v b 7.7.7.5.G 3 ",
"b v v G G G G G G G G 6.b b c C %.8.4XaXsXsX0X0X7X0.*.M T o.w.w.@.e.t.M.B.U.U.V.Z.Z.Z.Z.R.T.T.T.T.T.T.T.T.T.A.Z.V.U.V.M.b.O.[ 8 g F 6.6.6.6.7.6.v v 6.6.b G b b ",
"3 v 6.6.7.7.6.6.G G b 6.7.6.c C B *.2XsXgXgXdXsX0X2X4.^ { +.w.e.@.e.e.t.M.Z.U.Z.Z.Z.Z.Z.Z.Z.Z.Z.A.Z.Z.Z.Z.Z.Z.Z.Z.V.U.U.U.v.X.P 7 l 5.6.5.6.6.7.b b 6.b 3 b b 3 ",
"< v 6.6.G 7.6.6.6.G G 6.7.G C K 3.2X6X7X7X6X4X4X2X0.4.,.;.e.w.+.@.@.@.e.v.M.Z.Z.T.Z.Z.Z.B.B.B.B.B.B.B.Z.Z.B.V.Z.V.V.U.T.T.B.o.P 6 D 6.7.5.G G 5.6.6.6.6.6.7.G 3 ",
"2 v G G G 6.G b G G G 6.6.D - %.2X9X5X9.=.*.*.%.*.,.x.H.j.r.+.w.@.@.@.@.@.y.M.Z.Z.Z.Z.Z.Z.Z.Z.B.B.U.B.B.B.B.V.Z.U.U.U.U.U.m.X.P 6 1 D G G G 6.6.7.6.G D b 6.5.v ",
"b v v b 6.G v 2 v v G 6.G c > =.2X7X<X$.=   =   $ ^ z.P.F.r.+.+.@.e.@.@.@.e.y.m.M.m.M.Z.Z.U.Z.Z.U.Z.B.Z.U.Z.Z.Z.U.U.U.U.V.p. .o 4 1 c c D G 7.7.7.5.v 2 v G b b ",
"v b 6.7.6.G v v D v v G 6.6.F L &.3.%.m c c C = @ / H.P.F.w.+.+.@.e.@.@.@.@.r.t.e.y.v.B.Z.U.Z.Z.Z.B.Z.Z.V.Z.Z.U.U.U.V.B.a.@.! @ 7 Z G 6.6.6.6.6.6.6.6.b v 5.b 2 ",
"2 v 6.G 6.7.6.G 5.G G G 7.7.7.c m B m Z 6.7.G > U ( s.G.F.d.e.e.@.e.w.w.@.@.@.@.@.@.a.m.B.Z.U.U.U.Z.Z.U.U.Z.Z.V.B.B.B.y.e.o.W # 9 D 7.7.7.G G G G G 7.6.G 6.v v ",
"v v v D 6.7.7.7.6.6.6.6.7.7.b v 2 , c G 7.7.G 9 # ( s.H.P.F.d.q.@.+.+.@.e.@.@.@.+.@.e.r.v.B.U.U.U.U.Z.U.U.U.B.y.t.y.y.r.+.o.Q @ 8 G 6.7.6.G G G 2 D 6.7.6.G D b ",
"2 3 D G G G G G G D D D b G 6.6.b b v v G G D - I ( H.I.Q.P.j.p.@.+.+.e.@.e.+.@.@.@.@.@.t.v.B.Z.Z.Z.B.B.Z.V.y.r.e.@.e.r.r.@. .@ 8 D 6.7.6.D b D 2 v G 7.7.G 2 1 ",
"2 2 v 6.G v v D D 3 c D 2 v b 5.7.6.G G G D h * P _ L././.I.j.p.+.+.@.e.e.@.e.e.@.@.@.+.@.t.m.m.y.y.M.y.M.m.t.+.+.+.@.p.j.u.;.o 4 D 6.7.7.6.G 6.D D 6.7.6.D 2 < ",
"2 v v b G 3 3 3 3 3 v 3 3 3 2 D 5.5.6.7.7.b 2 * @ :.~.).(.I.h.i.+.+.@.@.@.w.@.e.@.@.@.@.e.e.r.r.t.r.r.r.r.r.r.w.+.+.r.g.K.k.) o 4 D 6.7.7.7.7.7.7.6.7.7.6.2 2 2 ",
"2 c b b G v 3 3 3 3 3 3 D G D 5.6.6.7.7.7.7.3 0 a :.x.^.)./.I.j.w.+.+.+.+.+.@.@.e.e.@.e.@.@.@.@.@.@.@.@.q.+.+.+.+.r.g.k.k.u.;.p q G 7.7.6.6.6.6.G v G G 7.G G v ",
"3 c b 6.6.6.v v D G G D G 5.7.7.7.6.7.7.7.7.5.l d #.:.c.~.)./.I.f.e.@.+.+.+.@.@.@.e.e.@.@.@.@.+.+.+.@.+.+.+.+.+.e.l.G.s.) / ' e Z 6.7.7.G G 7.6.3 2 Z G 7.6.G b ",
"v v v 7.7.7.G G 6.6.7.7.6.5.7.7.7.5.6.7.b 5.6.l j w + Y x.^.)./.P.j.p.r.r.e.@.@.+.@.@.@.@.@.@.@.@.@.@.@.@.@.w.e.d.G.k.u.E U s C D 7.7.G v G 7.7.D 2 v 6.7.b v v ",
"3 3 b 6.7.7.7.G D D 6.7.6.G 7.6.G 7.7.7.6.7.7.F h j w y ^ x.~.).(.Q.G.l.l.d.e.+.+.+.+.+.+.+.+.+.+.+.+.+.+.r.g.F.G.z._ ! ' i A C F 7.7.6.6.7.7.7.6.G 7.7.7.G v v ",
"2 v b b 6.7.7.6.v l G 7.5.G 7.G b 7.5.G 7.7.7.l h z k w p ^ x.~.)./.P.K.K.F.d.e.+.w.r.+.e.e.@.e.e.w.e.e.+.w.d.G.H.u.W U s A J k D 6.7.7.7.7.7.7.6.7.7.7.7.G D v ",
"3 b 6.7.7.7.6.6.7.5.G 7.5.5.5.7.7.6.l 3 D 7.7.h r z k j w y ^ x.!.L.z.H.I.I.G.l.g.g.g.h.g.h.h.h.h.l.l.d.@.X.;.u.u.W # 4 r J J j g v 6.7.7.7.7.b G G 6.G G 6.G D ",
"2 b 7.5.7.7.6.6.7.7.6.5.6.6.6.7.7.G 3 3 l G D 1 r r z j 9 8 ' ^ / / / u.K.I.I.K.G.K.K.K.K.K.K.J.K.K.P.G.;.! W ! ~ I 8 9 r j r 0 g v G G b G 6.7.6.G 6.6.7.7.G b ",
"3 G 6.D G 7.6.6.7.7.6.G G 6.7.7.7.b v v v b l h j r r j j j s y o o I :.u.K.J.H.H.H.H.H.H.H.H.H.H.J.J.z.;.E o @ & i r j e r r f Z G G D D G b 7.7.7.7.7.6.7.5.b ",
"b G D l D G G 5.5.D l l 3 D 5.7.7.6.5.5.G 6.7.5.D F z H k A j d 8 u a T ! :.) ) ) ) ) ) ) ) ) ) ) _ _ ( W p t 8 d r j j z j F F G 6.7.7.7.7.7.7.7.7.7.b b 6.b b ",
"v b 5.D D D G G G D D G 3 l 5.7.7.7.6.6.G 5.6.7.7.G F k j j j z r e d a I E E E E Y E E Y E E Y E E E T u w j j A j A j r k F 6.7.7.7.6.6.6.7.7.G b 5.b b b b b ",
"3 G 7.5.G G G D D D G 6.D 3 G 7.7.6.7.6.G G 5.7.7.7.G Z r r j J g g k w t O O # + u + + + . + + O O . % 8 e k L A H j j g l G 6.7.7.7.6.D G 6.6.b b 5.5.b 3 v b ",
"b G 5.7.7.7.6.5.5.D v 3 3 b 7.6.5.5.7.7.7.7.7.5.5.6.5.G F j H J k A A j r d r r d r d r d r d r w w 8 8 w r A j z z z Z 5.6.7.5.G 7.6.7.7.7.7.7.7.7.7.7.7.b b b ",
"v G 6.7.7.6.6.7.7.6.G G G 5.7.7.6.D 5.6.6.5.5.6.5.6.5.G l h k k k k z J J j j J j j A k J k j J H A j j r j k Z S g k G 5.6.G 6.6.6.G 6.6.6.6.6.6.6.6.7.7.6.b b ",
"v b 6.6.5.5.6.6.7.7.7.7.7.7.7.7.6.b D 5.D D D 7.7.5.G F 2 h h h h r d j S j A J j A S z k z j A A S J J J J S F G 2 h D D D F 7.7.G G D D D D G G v b 6.7.6.b b ",
"v b G 6.7.7.6.5.5.6.7.7.7.7.6.5.G G D D D G 5.7.6.l D G G b 3 3 h f g j k k k k k k k k k F k k g k k S A S D D D D v D D D 6.7.6.D D G G G D D v v G 6.5.6.b 3 ",
"v b 6.6.6.6.G G G 5.G G 6.7.6.G G 6.G D G 5.7.7.6.l 3 D G D 3 l 2 h D F h F F F l F F F l l l l k l l h l F 5.G G 6.G D G 6.7.7.6.3 3 D G D l 3 3 3 6.5.5.5.b 3 ",
"3 b 6.7.G 3 D G 5.5.D D 5.6.6.6.6.7.6.6.7.7.6.7.6.D 3 3 3 l 3 3 3 v 5.5.G G 5.6.G 6.6.6.5.3 F G 5.5.F l F 7.6.6.6.7.6.6.7.7.6.7.6.D l 3 3 3 3 l 3 3 6.6.5.5.b 3 ",
"v b 7.5.b 3 3 D 7.7.6.6.6.6.5.6.7.7.7.7.7.7.6.7.7.6.D 3 3 3 G 5.b G 5.5.6.7.7.7.6.6.6.5.3 3 3 b 7.7.7.6.7.6.G 6.7.7.7.7.7.7.6.7.7.6.D 3 3 3 G G b 5.5.5.6.6.5.b ",
"v G 6.6.G D v 5.7.7.7.7.7.6.6.6.7.7.7.7.7.5.G 6.7.7.5.D 3 G 5.6.6.6.6.5.6.6.7.6.7.6.6.5.G G 3 b 7.7.7.6.6.6.5.7.7.7.7.7.7.5.G 6.7.7.5.D b G 5.6.5.7.5.5.5.6.5.v ",
"3 5.7.7.7.7.7.6.7.5.G D 5.7.7.7.7.6.6.6.6.D l 6.7.7.7.7.7.7.7.7.7.7.7.6.b 5.6.6.5.6.7.7.7.7.7.7.7.5.G b 5.7.7.7.7.6.6.6.6.D v 6.6.7.7.7.7.7.7.7.7.7.7.5.5.5.b 3 ",
"3 3 5.7.6.G 6.7.6.5.G D 6.7.7.7.6.G D G 7.7.6.G G 7.7.7.7.7.7.7.7.6.b 6.6.b b b G 5.5.7.6.D 6.7.5.6.5.l 5.7.7.7.5.5.b G 6.7.6.G 5.7.7.7.7.7.7.7.7.7.5.5.5.b 3 2 ",
"2 3 6.7.6.3 5.6.7.5.G b G 6.6.5.G G G 5.7.7.5.G 5.7.7.7.7.6.6.7.7.5.G 7.7.b 5.5.5.5.6.7.6.b 5.6.6.5.G b 5.7.6.5.b 5.5.G 7.7.G b 5.6.7.7.7.5.5.7.6.5.5.6.7.b 3 2 ",
"b 5.7.7.6.5.b 5.7.5.3 b D D b b G 6.7.7.5.D 3 6.6.5.7.7.7.b b 6.6.7.7.7.7.6.7.7.7.7.7.7.6.b b 6.7.5.l D D D D F b 6.7.7.5.v v 7.7.5.7.7.7.G b 6.7.6.7.7.7.6.5.3 ",
"3 b 6.6.5.G 5.6.5.5.b v 5.6.G b 5.6.5.G b 5.6.7.5.l 6.7.7.5.G 6.7.7.6.5.b 7.7.7.6.6.6.6.6.b G 6.5.5.G 3 5.6.G b 6.6.5.b 6.6.6.6.5.G 6.7.7.5.G 6.7.7.6.b 5.7.5.5.",
"3 b 5.5.5.5.6.6.G 6.6.G 5.7.7.6.6.6.G b 5.7.7.5.G G 5.7.7.6.5.7.6.6.5.3 3 7.7.6.6.G G 6.G 6.7.6.5.6.6.G 5.7.7.6.6.7.G b G 7.6.G l G 5.7.7.5.5.7.7.6.6.3 3 7.5.3 ",
"3 v b b 6.7.7.7.7.7.7.7.D G 7.6.6.7.7.5.6.5.G 3 l 5.5.6.7.7.6.7.6.5.5.5.6.7.6.5.G G G G 6.7.7.7.7.7.7.7.D G 7.6.5.7.7.5.6.G G 3 b 5.5.6.7.7.6.7.6.5.5.5.7.7.3 2 ",
"3 3 v b G 7.6.6.7.7.7.5.b G 7.7.7.7.6.6.6.6.G 3 5.7.b b 5.l 5.7.7.6.5.6.7.7.b 3 6.G D v G 6.6.6.7.7.7.5.G G 7.7.7.7.6.6.7.6.G b G 6.G D 5.b 5.7.7.6.5.5.7.7.3 < ",
"3 3 3 3 b b G 6.7.7.6.b b 6.7.7.6.6.5.6.7.7.6.G 5.7.6.l 3 3 6.7.7.7.6.6.7.7.G D 6.G v v D G G 5.7.7.6.b b 6.7.7.7.5.6.6.7.7.5.b 5.7.5.G D D G 6.7.7.6.6.7.7.3 2 ",
"b v 3 3 b b b 5.6.7.6.5.b 5.6.5.D D b G 7.7.6.6.5.7.7.7.6.7.7.b 3 3 7.7.7.6.6.7.7.b 2 v D v G 6.6.7.6.5.b 5.6.G D D D G 7.7.7.5.5.7.7.6.5.7.7.5.3 b 7.7.6.6.5.3 ",
"2 3 3 3 3 3 b b b 3 b b b b b b D v b b G G G 5.G G 6.5.G 5.G 3 2 3 5.b 3 3 G 5.G D 3 v v D v b 3 3 3 b b b b b D v D D G G G 5.G G 5.5.D 5.5.G 3 3 b b 3 3 3 2 ",
"< < 3 3 b v 3 3 2 1 3 3 3 3 2 3 b b D v 2 2 3 D b 3 3 3 3 3 3 G 3 1 3 2 1 1 2 v v 2 2 v v D v 2 3 2 3 3 3 3 3 3 b b b b 2 2 3 D b 3 3 3 3 3 3 D 2 1 3 2 < 2 < < "
};
