/* XPM */
static char *Group_9_1__resized[] = {
/* columns rows colors chars-per-pixel */
"80 80 227 2 ",
"   c #2E3C17",
".  c #2D3B27",
"X  c #2E3628",
"o  c #2B2F3C",
"O  c #2B3536",
"+  c #2D3935",
"@  c #2A3639",
"#  c #323634",
"$  c #313B3D",
"%  c #2C4B1D",
"&  c #344C1B",
"*  c #2D5119",
"=  c #37571D",
"-  c #395C1D",
";  c #37631B",
":  c #3A651C",
">  c #3D6D1D",
",  c #3F711F",
"<  c #2E422B",
"1  c #2C4828",
"2  c #374C23",
"3  c #31452C",
"4  c #324B2C",
"5  c #345424",
"6  c #3B5426",
"7  c #365B23",
"8  c #3A5D24",
"9  c #34542C",
"0  c #3A5D2D",
"q  c #2E4539",
"w  c #314435",
"e  c #344A38",
"r  c #355332",
"t  c #395532",
"y  c #395934",
"u  c #35533C",
"i  c #3B6423",
"p  c #3E6C22",
"a  c #3D642C",
"s  c #3F692B",
"d  c #3F7220",
"f  c #3E6330",
"g  c #406F1F",
"h  c #41751F",
"j  c #43781F",
"k  c #424A29",
"l  c #445829",
"z  c #4D4D35",
"x  c #4B5934",
"c  c #55593B",
"v  c #605A3F",
"b  c #416D25",
"n  c #46652B",
"m  c #416B2D",
"M  c #417620",
"N  c #457C21",
"B  c #497826",
"V  c #437429",
"C  c #416931",
"Z  c #526838",
"A  c #2D2E46",
"S  c #2E3343",
"D  c #2F394B",
"F  c #313845",
"G  c #31354A",
"H  c #323B4A",
"J  c #2E3857",
"K  c #383357",
"L  c #383858",
"P  c #363C62",
"I  c #41335E",
"U  c #433A67",
"Y  c #493A74",
"T  c #533D76",
"R  c #354C43",
"E  c #364648",
"W  c #385646",
"Q  c #2F4055",
"!  c #344352",
"~  c #36465D",
"^  c #3C5A54",
"/  c #374867",
"(  c #3A436D",
")  c #36536E",
"_  c #3D4C75",
"`  c #384C78",
"'  c #385275",
"]  c #35537C",
"[  c #39537E",
"{  c #595744",
"}  c #48445C",
"|  c #514F53",
" . c #5C6744",
".. c #63694C",
"X. c #6A6C54",
"o. c #706F58",
"O. c #51456A",
"+. c #465566",
"@. c #47447A",
"#. c #42557A",
"$. c #44646B",
"%. c #476577",
"&. c #7A7865",
"*. c #736E77",
"=. c #82776E",
"-. c #478022",
";. c #498423",
":. c #4C8A24",
">. c #8D8A72",
",. c #8C8876",
"<. c #3E4B83",
"1. c #365481",
"2. c #3A5481",
"3. c #3A5785",
"4. c #3C5A86",
"5. c #3E5C89",
"6. c #3F608C",
"7. c #514184",
"8. c #55468A",
"9. c #425483",
"0. c #435A84",
"q. c #46568B",
"w. c #43558C",
"e. c #5A4A95",
"r. c #465690",
"t. c #4A5793",
"y. c #4B5893",
"u. c #545598",
"i. c #684687",
"p. c #644B9A",
"a. c #725095",
"s. c #4B6384",
"d. c #41628E",
"f. c #4A6A8C",
"g. c #536989",
"h. c #52728C",
"j. c #436592",
"k. c #456A96",
"l. c #4B6598",
"z. c #476D99",
"x. c #486F9B",
"c. c #46719C",
"v. c #49719D",
"b. c #557097",
"n. c #797D97",
"m. c #565CA3",
"M. c #5A5AA4",
"N. c #6C4EA1",
"B. c #6655A7",
"V. c #6655A8",
"C. c #625BAA",
"Z. c #6A5AB3",
"A. c #745AB7",
"S. c #536EA7",
"D. c #4B75A1",
"F. c #4D7AA5",
"G. c #4E7DAA",
"H. c #567AA8",
"J. c #7761BC",
"K. c #7E60C5",
"L. c #8855B2",
"P. c #8956B2",
"I. c #865EC2",
"U. c #975DC5",
"Y. c #9165CF",
"T. c #A362CF",
"R. c #A166D4",
"E. c #4E80AB",
"W. c #5181AC",
"Q. c #5C81AA",
"!. c #5386B1",
"~. c #5D82B1",
"^. c #568AB4",
"/. c #578EB8",
"(. c #588EB9",
"). c #5A93BD",
"_. c #648ABE",
"`. c #6A97B3",
"'. c #6894B8",
"]. c #76A4BB",
"[. c #5D99C3",
"{. c #6C96CE",
"}. c #6699C8",
"|. c #6B95D1",
" X c #63A4CD",
".X c #74A7C5",
"XX c #67ABD4",
"oX c #74A5DA",
"OX c #6DB4DD",
"+X c #7BB3D0",
"@X c #76A7E1",
"#X c #7CB7E7",
"$X c #74C3EB",
"%X c #77C9F1",
"&X c #7DD3F9",
"*X c #968F86",
"=X c #A39D8C",
"-X c #A9A595",
";X c #AAA896",
":X c #B2AC9A",
">X c #BAB5A5",
",X c #C1BBAB",
"<X c #C3BDB3",
"1X c #CAC6B7",
"2X c #CFC9B6",
"3X c #83BCD9",
"4X c #82BBE9",
"5X c #82BBF7",
"6X c #91CADA",
"7X c #87C5E6",
"8X c #8CD2E7",
"9X c #95D1E4",
"0X c #93DBEC",
"qX c #8AC9F5",
"wX c #91D9F4",
"eX c #A7DAE6",
"rX c #9AE7F7",
"tX c #A9E8F0",
"yX c #ABF8FD",
"uX c #BCFCFD",
"iX c #DBD6C6",
"pX c #DAD7CD",
"aX c #E0DDCE",
"sX c #E7E3DA",
"dX c #C1FBFC",
"fX c #F5F4ED",
"gX c #F5F4EE",
/* pixels */
"* ; h > > j , j , > > j j j , , , j j j > > , N N , j j , > > > , , j , , N j > ; : j > > , , , , , > j d j j j , , j j > > , N N h j M h > > , h j j > > j > - ",
": > h h M N , > , , , N M j j , , d , , > , , N , , , , , N N N N N , > , j N N M M , j j j , , , , , j N M , , , j d , > , , j h , > > > M N N N M j > , N j : ",
"j j h j N N h g j j j -.N N N M d N d p , N N d , p , > , N :.:.;.-., , , N :.:.:.;.j N N N , , , j j -.N N N N N N , > , N N N M d > g M -.:.:.:.-.h > h N j j ",
"h j ;.:.;.N j M j , j N ;.;.:.:.;.-.N d N ;.;.N , > d d , , j -.;.;.;.j j -.-.-.-.-.-.:.;.-.j j j , j -.;.;.:.:.;.-.d , N -.:.;.-.-.-.;.-.-.;.;.;.;.-.M j ;.j > ",
"g j -.-.;.:.-.-.-.N N -.:.:.:.;.;.:.-.N ;.:.:.j a r r r r 1 i , N N :.-.N -.-.-.-.N -.-.;.:.;.-.-.N N ;.:.:.:.;.;.:.-.-.;.:.:.:.:.;.:.:.:.N N N N N ;.-.N N j , ",
"h h j j -.:.:.:.;.;.-.-.:.:.N N N :.:.:.:.:.N a R ~ / Q Q Q u s > h -.:.;.N -.:.;.N M M -.:.:.:.;.;.-.-.:.:.N N -.:.:.:.:.:.:.:.:.:.:.:.N N N N , M :.:.:.N j j ",
"> > h j j N N N N N M N M N ;.;.:.;.N M N > 0 ^ f.~.H.H.~.H.$.r 5 : -.:.;.N N N N N , N N -.-.N N N j M N N -.;.;.;.N N N N ;.;.;.:.:.:.:.N M N > h N :.:.N g : ",
"> > h j N j j j d , , d , M N ;.;.-.N N p 7 W h..X7X7X7X7X#X`.#.u 7 N :.;.j , , N N M -.N , , d , , , d > d N ;.:.-.N N d N N d N :.:.:.:.N -.;.N M -.:.:.M : : ",
"> , j -.-., , d , , , d , > > N ;.-.;.;.a W s. X0XyXyXtXyXrX7X'.+.u d :.-.d M -.N M M N N , , , , , , , , , p N -.-.;.:.:.-.d , N ;.:.:.:.:.:.:.;.;.:.:.;.> > > ",
"> , , N N d , , > d , > N N d -.;.-.d a ^ f.'.8XyXuXdXdXdXyXyX7X`.$.W a N N ;.;.N N j N N N , > , , , , d -.d -.;.-.:.:.:.;.N ;.:.:.:.:.;.-.-.:.N d N ;.:.-.j h ",
", , j -.;.-.d , M N N N -.-.;.:.:.-.7 u f.'.8XrXrXtXdXdXuXeXrXrX7XQ.~ y p N :.:.-.N M -.;.-.M , d -.N d -.-.;.:.:.;.:.:.;.;.;.:.:.:.:.;.N N -.;.d > > N :.-.N j ",
"j h , :.:.:.N N -.:.:.:.;.;.:.:.;.N 5 ! H.7XyX8X+X].eXtX6X]..XwXwX{.1.W i M N :.:.N N ;.:.:.N N ;.:.:.:.;.;.:.:.:.-.:.:.N -.:.-.;.:.:.;.j -.:.:.M > , ;.:.M h j ",
", , , -.:.:.:.-.d N ;.:.-.N :.;.-.-.7 ! H.7XrX].h.g.3X9X].%.b.3XqX|.[ R i j N -.-.N M -.;.:.:.-., N ;.:.-.N :.-.N ;.:.:.;.:.:.-.;.:.:.:.;.:.:.:.-.-.;.:.:.N j , ",
"> , j -.;.:.:.;.d d N :.-.N :.N j -.7 ! S.#X8X].g.g.6X9X].s.g.4X#X|.` R : N :.;.N N N N ;.:.:.;., , -.:.-.N :.N N :.-.N :.:.:.;.-.:.:.:.:.:.:.:.;.:.:.:.;.-.M , ",
"j j -.:.:.:.;.;.:.-.N :.-.-.-.:.:.N 9 H H.#XwX7X].].8XrX9X]..XqX5X|.<.R 8 N :.:.-.-.-.:.:.:.;.;.;.-.-.;.-.-.-.:.:.-., , N :.:.N , N ;.;.;.:.:.N N N -.N N ;.N N ",
", j :.-.:.:.;.;.:.:.;.;.-.;.;.:.:.j 5 q 0._.#X8XrX0X0X0XwX0XwXqX@XS./ u > ;.:.:.-.;.:.-.:.:.;.:.:.:.;.;.;.;.;.:.:.N , d d N N d , N B N N ;.;.;.;.;.;.;.:.:.N j ",
", j ;.M N :.;.;.:.:.-.N N -.;.:.:.N : 9 ^ f.(.7XrXwX#X+X8XrXrX4X~.%.u a B ;.:.:.-.;.;.N N :.;.;.:.:.;.N N -.:.:.:.N j M j M N M B N N N N N -.:.:.:.:.:.:.:.N j ",
"j j j , j N N -.-.M M > M M ;.;.;.;.N M a E q.|.qX#XH.S.{.7X4X}.#.u V N j ;.:.:.:.-.M > j -.N N ;.d , , h M -.:.:.;.-.N N ;.:.;.;.:.;.:.:.:.:.:.:.:.:.j M -.-.j ",
"h j -.N h j N N N M M N , , N ;.N > M N > q _ |.5X#XS.w.S.|.}.%.u ; N j j j ;.:.;.-.N N d N N N -.d d -.h g -.;.:.;.;.-.N -.;.:.:.:.:.;.N -.;.:.-.N -.j j j j j ",
"> j :.-.N N N N M N N -.M , -.N a < 0 N , e ( {.5X#XS.<.w.l.#.W i , N N N > N :.-.;.:.N N N N N d d N ;.M h -.:.:.;.:.;.j N N ;.;.:.:.;.N N ;.;.j , -.-.j , j j ",
"M N N :.:.:.;.;.-.j h , > j -.a q L R 7 i 9 ~ Q.oXoXf./ J ! W V -.:.:.:.;.N ;.:.:.;.-.:.:.;.;.-.;.N h > > N :.;.-.N ;.:.:.;.M g M ;.;.:.:.:.:.:.:.:.:.:.:.N j j ",
"M N :.:.;.;.;.;.:.;.N N N M i R / #.) E 4 5 y %.F.Q.$.r 4 4 i N ;.;.-.:.:.;.;.:.:.;.-.:.:.:.;.:.:.;.-.N N -.:.:.;.N N :.:.j - = : N N ;.;.;.;.;.;.;.;.:.:.-.j j ",
"h j :.;.;.;.;.;.:.:.:.:.:.B 1 H #.j.0./ + 5 i W ) ) f p > > , N N M j -.:.;.:.:.-.;.:.;.-.-.-.;.;.-.-.-.:.:.;.:.;.j N N M 8 k z l M N N d d N N j M j -.:.-.B j ",
"j j N ;.;.:.;.N -.;.:.:.:.N 5 E ( 0.[ ! 1 i -.d y q a d d d M M , M N -.-.-.-.-.:.;.-.-.;.:.;.M ; 5 5 7 M :.;.-.N N M : = Z >.>.o.6 : , N N j j j , N -.:.-.j , ",
"h j -.;.;.-.N N N N -.N ;.;.p y E / ! u i N ;.N > = p , N M d d > , N j j j N N -.N j N -.-.M 7 w $ F q 8 M ;.-.N -.h = & &.>XiX-X .l 8 M M , , , , -.-.-.-.j , ",
"> N :.:.N , N N -.-.M d -.:.;.p 7 + 3 > ;.:.:.:.-.N d , d , , , , : p s i > > b p > M b p : 7 1 F P ( L R a N N ;.:.j = k ,.pXfXaX=X .6 : p , , , , ;.;.-.;.j , ",
"j N -.-.j > , j :.:.;.;.;.;.-.N M i p N :.:.;.:.:.;.N , > , N j , 7 < . . 3 < . . . < . . X X O J 9.f.f.) u 5 h ;.:.N ;   =.2XgXgXsX;Xo.k = > j j j -.-.;.;.-., ",
"j N ;.-.N N j j :.:.;.:.:.;.-.;.N N N -.;.-.N ;.:.:.-.d j N N N i r S G G G F F G F H G S S S J ( j.F.H.0.L . > :.;.N n c =.<XsXfXfX<X=.k = , -.:.:.;.-.;.;.-.j ",
"h N :.:.:.:.;.:.:.;.N N -.;.;.:.:.;.;.;.-.j j -.:.:.:.:.:.:.-.p r ! _ <.#._ _ _ [ #.0.0.#.#.9.0.j.D.F.c.#.L . i ;.j g  .,.-X>X>X<X2X:Xo.l g j :.:.:.:.-.N -., , ",
"> h -.:.-.N ;.:.;.;.N M -.:.:.:.;.N j j :.:.;.j N :.:.:.:.-.s 3 ! _ k.z.l.k.l.k.v.G.Q.G.H.G.W.W.!.E.c.5._ L < i j g v >.1X<X=Xo.o.=...Z M -.;.:.:.;.-.-.;.j , > ",
"> j -.:.-.j -.:.;.-.N M -.;.;.N B -.j -.;.;.;.j -.:.:.;.N i r D _ j.D.F.F.F.F.G.!./.).).[.[. XXX X).c.4.[ / q 2 - c >.>X2X:X=.k   k - h :.-.-.:.:.-.j :.:.-., , ",
"j N :.:.;.N j -.:.N M M N M M N j ;.:.:.;.j , ;.;.-.:.-.p 3 D / j.v.D.D.D.G.G.!./.)./.^.[.OX$X%X$X X^.c.v.j.~ O k &.:X2X:X=.x g g - h -.:.N j -.;.:.:.:.:.;.j j ",
"h N ;.;.-.N -.-.;.;.j j j :.j j ;.;.;.j j ;.;.;.N j N s 3 H ( j.D.H.v.v.v.F.W.(.(.(.^.^.).XX$X&X&X$XXX).).^.6.) +.*X;X=Xo.Z b j , > N ;.:.N N ;.:.:.;.N N :.;.j ",
"> j N N -.-.:.;.j ;.;.j ;.:.:.;.;.;.N j ;.;.:.N h p i 4 H ( 5.c.F.F.v.x.x.F.!.(.(.(.^.W.(. XOX%X&X&X%XOXXX[.!.k.g.n.*.X.n > -.j N N -.:.:.;.-.:.:.;.N j , :.-., ",
"g j N N -.:.:.:.:.:.:.:.j j :.;.B :.j ;.;.j j j , i 3 S / ] 6.x.v.D.v.x.v.D.W./.(.^.^.^.!.^.).XX$X&X&X$XXX).^.^.F.q.} 3 i j j j N -.N ;.:.;.;.:.:.j N -.;.:.N > ",
"> g j j N :.-.;.:.:.;.;.N j :.;.g g g j :.;.j j j p # A P 1.6.x.D.D.v.x.v.D.H.W.^.(.(.^.!.W.^.'.XX$X$XOX X).(.).!.j.~ O 5 i , h N ;.N N -.N -.:.:.:.-.-.:.:., ; ",
"h > , , j N N -.:.:.;.j N ;.;.j n l - g ;.;.j h j p + A ( 3.6.D.v.D.v.v.x.v.v.H.W.(.(.(.^.W.^.(.).[. X X(.(.(.)./.D.2.Q q 9 : h -.;.-.N M N N ;.:.:.-.;.:.:.j : ",
"j h > j j j N -.:.;.;.;.N j j Z  .=.o.l j h g g : 7 $ J ( <.6.6.x.v.v.v.v.x.x.c.F.W.(.^.(.(.^.^.^.^.^.!.^.^.(.^.!.!.D.9.P $ 5 M ;.:.:.:.-.;.:.N j j :.:.:.-.N , ",
"j j j N j -.j -.-.-.N ;.;.h - ..*X1X=X..k & k = 6 4 ! ( ] 3.2.5.j.x.v.D.v.x.x.c.v.F.W.^.(.(.^.^.^.!.!.!.(.(.^.W.G.E.D.0.P # = B :.;.:.;.-.:.:.;.h j -.-.j N j N ",
"> j -.;.:.:.;.-.j j B ;.;.g & X.:XaX1X>.c z v v { | +.' 1.2.2.1.4.d.v.D.v.v.v.x.x.v.G.W.^.^.^.^.^.^.^.^.^.^.W.v.D.G.x.9.P $ 5 j ;.-.-.-.-.-.;.;.j j ;.N j j , , ",
"; h ;.-.-.;.;.;.;.N N ;.:.N b Z &.;X>X>X>X>X;X:X=X>.X.+.( [ 2.] 2.5.j.x.v.D.v.v.x.v.v.F.W.W.W.W.W.W.W.W.W.W.F.v.c.D.v.j.[ ~ e 0 g N :.:.-.N N ;.-.-.:.N N :.j > ",
"> h N N -.-.N N N M N ;.;.N j - x o.=XiXfXsXpXiX2X-X&.| ~ ` 1.1.[ 2.4.6.x.v.D.v.c.x.v.D.D.D.v.F.v.F.v.v.D.D.v.v.x.c.v.x.k.#.~ w 2 g M N N N ;.;.:.:.N N N :.N j ",
"j j j N -.N h > , j N -.N M b 8 x o.=XiXsXsXiXiX,X-X=.| } ` 1.1.] ] [ 4.j.x.v.v.v.v.v.v.x.x.x.x.v.v.x.x.v.x.v.v.c.x.D.F.F.k.#.A . : g h M -.:.:.:.-.j > j N N j ",
"g j -.;.;.N j M N h j -.:.N -  .,.>X>X>X=X*X*X>.>.=.a.*.q.<.[ 1.1.[ [ 2.4.j.c.v.F.D.v.v.x.x.v.c.x.c.v.x.x.v.c.v.c.v.D.F.G.l.#.A . g j ;.-.;.;.;.:.;.-.j M N j > ",
", M -.N ;.:.;.-.-.N N -.:.j & X.=X2X:X>...c Z v { O.a.B.m.3.] ] 1.[ [ [ [ 5.j.c.x.v.v.v.v.v.v.v.v.v.x.c.v.v.v.v.v.v.v.F.D.q._ @ 3 h ;.:.:.N N N N N ;.-.N -.N h ",
"h h M M -.:.:.:.;.;.;.-.:.B -  .,.:X>.Z & & &   # U p.Z.m.3.) [ [ 2.[ [ ] 1.5.d.d.d.j.v.v.v.v.v.v.v.v.v.v.v.v.v.v.F.D.c.k.4.( S 4 M ;.;.-.N N N > M ;.:.;.N j h ",
"> > j N N N N N N M M M N j M B Z ..c l : g g % S U e.Z.M.5.1.1.[ [ [ [ [ 2.2.2.[ 2.5.k.v.D.v.v.v.v.v.v.v.v.v.c.v.D.v.k.6.` P o 4 M :.:.;.N N M g g N :.:.N > : ",
"> > M N N j M M d d , M > h N h i 2 = : h j g % G P e.C.C.u.<.3.[ [ 1.2.1.[ [ ] [ [ 4.d.k.v.D.D.v.v.v.v.v.v.v.k.k.k.j.6.1.` P o 4 M -.:.:.N N N N M :.:.;.M > ; ",
"> g h j N h > , , , , , d > > , , : , ;.;.-., % @ P e.Z.Z.M.u.4.] ] [ [ 1.[ [ [ [ [ 1.3.6.k.D.D.v.v.D.D.F.D.k.6.5.5.5.3.1.` J S 1 h ;.:.:.:.:.:.;.;.:.:.;.h > > ",
"> h j j N N h > > , d > N N d -.;.j ;.:.:.;., 1 $ Y N.K.Y.J.M.u.3.] ] ] [ [ [ [ [ [ [ ] 4.6.k.x.v.k.k.x.x.x.6.4.] ] 1.4.w.w.P A 3 M ;.;.;.;.;.;.N j M ;.:.-.M j ",
"> h j -.;.-.j j N N N N N -.;.:.:.;.:.:.:.;., * # T A.T.R.K.Z.M.q.4.[ ] ] ] [ 1.1.[ ] [ ] 4.6.d.d.6.d.d.j.0.4.1.] ] ] w.m.u.@.S < M ;.:.N j ;.;.M : g N ;.;.N j ",
"h h j :.:.;.N N N :.:.:.;.;.:.:.:.-.:.:.-.-.;.* $ T P.T.Y.A.Z.A.C.y.4.1.[ [ 2.1.1.[ 2.[ [ 2.[ 1.[ 2.2.[ 2.2.2.2.] ] 3.u.C.p.Y S 5 M :.-.j ;.:.:.M > h ;.;.j h h ",
"h > j -.;.:.:.-., N ;.:.-.-.:.-.N ;.:.;.;.:.-.i e } i.a.p.p.a.U.Y.K.m.y.y.9.2.] ] ] ] ] ] ] ] ] ] ] ] ) ] ] 4.t.u.S.m.u.e.7.} e i N :.:.-.:.:.:.-.-.;.:.:.B h h ",
"> h j -.;.:.:.;.M d -.:.-.N ;.-.j :.;.N :.:.:.d i | } U I U T P.R.Y.Z.C.C.u.q.2.] [ [ [ 2.1.] ] [ ] [ [ ] ] w.m.Z.Z.V.e.Y L E 9 b N ;.:.:.:.:.:.:.:.:.:.;.-.j h ",
"h j ;.;.:.:.;.;.:.N -.;.-.-.-.:.:.;.d , N :.:., i r q O O o O.L.P.A.N.A.I.J.C.y.r.y.r.y.t.t.t.t.r.y.y.y.5.y.u.e.p.B.p.Y K q y i g j -.:.:.:.:.-.N N -.N -.;.N j ",
"> j ;.;.:.:.;.;.:.:.;.-.;.;.;.:.:.-., , d d N p 7 y 9 1 . 1 E T T T Y a.Y.R.I.C.M.M.C.M.M.C.C.M.C.M.C.C.M.M.u.7.Y Y U L w 4 0 a i M N -.j j ;.;.N -.;.:.:.;.-.j ",
"> N ;.N N :.;.;.:.:.-.N N ;.;.:.:.N j M j M d p i a a a a f r F A o K i.P.T.U.N.V.M.B.B.B.B.B.B.B.V.V.B.A.B.8.U A A S $ t 0 0 i b M N N N N ;.:.:.;.:.:.:.:.-.j ",
"j j N p M N N N -.M d d d M ;.:.:.;.-.N -.-.;.-.V s s m m s f r w . e } i.a.p.7.7.7.7.7.7.7.7.7.7.7.7.7.8.7.U E w w w r 0 m V B N -.;.:.:.:.:.:.:.:.:.N j ;.j j ",
", N N N M M N N N d M N d , -.:.:.:.;.-.N N ;.:.;.N V m a a a a 5 5 0 R K K K K K K K K K K K K K K K K K K H y 8 a 0 a 0 s M ;.;.:.:.:.N -.;.;.N N ;.N j M j j ",
"> N :.-.N N N N N M N ;.M , -.:.:.;.:.:.N N -.:.:.;.N s 0 a f m a i a 9 < O o # + + O O O O O O O O O O o O w 0 m m m m i p B ;.:.:.:.;.N N ;.;.j j N N N , j j ",
"N N -.:.:.:.;.;.N N j , > N ;.;.N -.;.:.:.:.:.-.-.;.-.B V s f C C s m a y 4 t t t t 9 t y y t r r 4 4 3 3 4 y C C a m b B ;.:.-.-.:.;.:.:.:.:.:.:.:.:.:.:.j j j ",
", N ;.:.:.;.;.;.:.-.N N N -.:.:.-.N -.;.:.-.-.-.;.;.-.N d s s s s n a C m a a C a a a C m a a s m 0 f f 0 C m m a a a V N -.-.;.;.-.N ;.;.;.;.;.;.;.-.:.:.;.j j ",
"h -.:.;.;.;.;.:.:.:.:.:.:.:.:.:.-.j N N N d M :.:.-.N j d i p p i 8 0 a m a m m a m m m a m s m m m m m m m b V M i p j M M j ;.:.N N M M M N N N M N -.:.-.j j ",
"j j j -.;.:.-.N -.;.:.:.:.:.:.-.N N N M , N ;.:.-.d d N N d d d : i a a a m a a m a a i a m a a a s s m m m V M M j M h M N -.:.;.M M N N M M M h M N -.;.;.j , ",
"h j -.;.;.-.N N N N N N ;.:.;.N N ;.B N N -.:.:.-., , d N d d , > > V V b b V V V V V M d s d s s d i s V N N N N ;.N N N -.:.:.-.M , M N M M , , , ;.-.j ;.j , ",
", j :.:.N h N N ;.-.N d ;.;.;.;.:.:.;.-.:.:.:.:.-.N d , , d , d > j -.-.N -.-.;.N -.:.;.N , N N -.-.N d N :.;.N ;.:.;.;.:.:.:.:.-.M M d > d d , , j ;.;.-.-.j h ",
", j ;.-.M > > N :.:.;.;.;.:.N ;.:.:.:.:.:.:.;.:.:.;.d , , , N -.N N -.-.;.:.:.;.:.;.;.-.j , , j :.:.:.;.:.;.N ;.:.:.:.:.:.:.;.;.:.;.N > , , N N j j -.-.;.;.-.j ",
"j j ;.;.N N M N :.:.:.;.;.;.;.;.:.:.:.:.;.;.N ;.:.:.-.N , j ;.;.;.;.;.-.;.;.:.:.;.;.;.-.N N , N :.:.:.;.;.;.-.:.:.:.:.:.;.-.-.;.:.:.N N N N -.-.;.;.-.-.-.:.j j ",
", -.:.:.:.:.;.:.:.-.N N -.:.:.:.:.-.-.;.-.N , ;.;.:.:.:.:.:.:.:.:.:.:.;.N -.-.:.;.;.:.:.:.:.;.:.:.-.N j ;.:.:.:.:.;.;.-.-.N j -.;.:.:.:.:.:.:.:.:.:.:.;.j -.j , ",
", , -.:.;.N ;.:.-.;.N M ;.:.:.;.-.-.N N ;.:.;.N -.:.:.:.:.:.:.:.:.;.N -.-.N j j N -.-.:.;.N ;.:.-.;.N , -.:.:.;.-.-.N N :.:.-.N -.:.:.:.:.;.:.:.:.;.-.-.;.j , > ",
"> , ;.:.-.j N ;.:.-.N M N :.;.-.N N N -.:.:.;.N -.:.:.:.:.;.;.;.;.;.-.;.:.N j N -.-.-.:.-.j -.;.;.-.N N N -.:.-.N N N N ;.:.-.N N :.:.:.:.-.-.:.:.;.;.;.:.j , > ",
"j -.:.:.;.N j ;.:.N , , j N j j N ;.:.:.-.d , ;.;.-.;.:.:.-.j ;.;.:.:.:.:.;.:.:.:.:.:.:.;.N N -.:.-.d d N N V N N ;.:.:.-.j h ;.:.-.:.:.:.N j ;.;.;.:.:.:.;.-.j ",
", j ;.;.-.N -.-.-.-.j j -.;.N N -.;.-.N -.-.;.;.-.N ;.:.:.-.-.;.:.;.;.-.j :.:.:.:.-.;.;.-.N -.;.-.-.N d N ;.N N -.;.-.j -.-.-.;.N N -.:.:.-.N ;.:.:.;.j -.:.;.j ",
", j -.-.-.-.:.-.N :.-.N -.;.:.;.;.:.N j j :.:.-.N d ;.:.:.;.;.;.:.:.-., , :.:.:.N N -.N -.-.;.;.-.;.;.N -.:.:.;.;.:.N j N :.:.-.N N -.:.:.;.-.:.:.;.-.j , ;.-., ",
"> j j j ;.:.:.:.:.:.:.:.N N :.;.-.:.;.-.;.-.-., d -.-.;.:.:.;.;.;.-.j -.;.:.;.-.-.-.N N ;.:.:.:.:.:.:.:.N N :.;.-.:.:.-.-.-.N , N -.N ;.:.:.;.:.;.-.N -.:.:., , ",
", , j j N :.;.;.:.:.:.-.N N :.:.:.:.;.;.:.;.N , ;.;.-., ;., -.:.:.:.-.-.:.:.j , -.N h j N :.;.;.:.:.:.-.N N :.:.:.:.;.;.:.-.N j N ;.N N N N -.:.:.;.-.-.:.:., ; ",
", , , , j j -.-.:.:.;.j j ;.:.:.;.-.-.-.:.:.;.N -.;.-.N , j -.;.:.:.;.;.;.:.N N -.N h h M N N -.:.:.-.j j ;.;.:.:.-.-.-.:.:.-.N N :.-.N j M N ;.:.:.;.:.:.:., > ",
"j , , h , j j -.:.;.;.-.j -.;.N N N j N :.:.;.;.;.:.:.;.;.;.;.-., j :.:.:.;.;.:.:.N g h M d N -.;.:.;.-.j -.;.N N N M N :.:.;.-.;.;.:.:.-.;.;.N j j :.:.:.-.-., ",
"> , , , j , j j j , j j j j j j M j j M d -.N N N N -.-.N -.-., , > N N j , N N N M > j j h h j , , j j j j j N , j h M N N N N N N N -.N N N N > > j j , , , , ",
"; ; , , , j , , > : > , j , > , j j M j > , , N j , , , , , , -.> : , > ; : > h h > > h M M > > , > > , j , > , N h M j > > j N N , , , , , M N : > , > ; ; ; ; "
};
