/* XPM */
static char *Group_9_2__resized[] = {
/* columns rows colors chars-per-pixel */
"80 80 224 2 ",
"   c #2E351C",
".  c #2C392A",
"X  c #282C33",
"o  c #2B3534",
"O  c #2C3A33",
"+  c #2D353E",
"@  c #333A38",
"#  c #2D4B13",
"$  c #344C1B",
"%  c #35531E",
"&  c #39541E",
"*  c #355D1C",
"=  c #3A5E1C",
"-  c #37631B",
";  c #39651C",
":  c #3D6D1D",
">  c #3F711F",
",  c #2D4728",
"<  c #2D432C",
"1  c #324D23",
"2  c #344826",
"3  c #324C2D",
"4  c #2F5022",
"5  c #345423",
"6  c #365C22",
"7  c #3A5D23",
"8  c #35542D",
"9  c #38572F",
"0  c #365A2C",
"q  c #395B2C",
"w  c #2E4439",
"e  c #314333",
"r  c #334A33",
"t  c #32443A",
"y  c #354B3B",
"u  c #385636",
"i  c #3A5B31",
"p  c #3B6324",
"a  c #3D6C22",
"s  c #3D642C",
"d  c #3F6A2A",
"f  c #3F7220",
"g  c #3D6333",
"h  c #406F1E",
"j  c #41751F",
"k  c #43781F",
"l  c #424727",
"z  c #445A29",
"x  c #484C33",
"c  c #4B5934",
"v  c #54573B",
"b  c #426624",
"n  c #416E23",
"m  c #46622B",
"M  c #416B2D",
"N  c #417620",
"B  c #477527",
"V  c #457C21",
"C  c #406736",
"Z  c #416B32",
"A  c #54653A",
"S  c #567139",
"D  c #2C2D47",
"F  c #302F48",
"G  c #2E3144",
"H  c #2E3C43",
"J  c #2B3B48",
"K  c #323A45",
"L  c #353847",
"P  c #343A4C",
"I  c #373354",
"U  c #363959",
"Y  c #393A67",
"T  c #3B3F74",
"R  c #4F3E53",
"E  c #423969",
"W  c #533B6F",
"Q  c #473871",
"!  c #4E3F7F",
"~  c #573D78",
"^  c #344648",
"/  c #3A594C",
"(  c #364757",
")  c #34435C",
"_  c #3B5757",
"`  c #3F6259",
"'  c #374567",
"]  c #3B446E",
"[  c #3B4672",
"{  c #3C4A73",
"}  c #384D78",
"|  c #2F5075",
" . c #35527B",
".. c #385579",
"X. c #3A547E",
"o. c #48494C",
"O. c #5A5744",
"+. c #4A4A54",
"@. c #515258",
"#. c #685A50",
"$. c #5B6543",
"%. c #50645E",
"&. c #62694A",
"*. c #6C6E56",
"=. c #6E7256",
"-. c #73765C",
";. c #44556A",
":. c #46467B",
">. c #5E427A",
",. c #43557A",
"<. c #714C71",
"1. c #486663",
"2. c #436071",
"3. c #756E61",
"4. c #7B7B64",
"5. c #7B7867",
"6. c #867D6D",
"7. c #478022",
"8. c #498423",
"9. c #4C8A24",
"0. c #84826C",
"q. c #8B8875",
"w. c #958C7B",
"e. c #8F927A",
"r. c #94937C",
"t. c #4F3F80",
"y. c #3F4B85",
"u. c #3A5582",
"i. c #395585",
"p. c #3B5B85",
"a. c #3D5D8A",
"s. c #3C638A",
"d. c #3E6594",
"f. c #4E4786",
"g. c #514384",
"h. c #544488",
"j. c #415384",
"k. c #435C85",
"l. c #45598C",
"z. c #5C4A95",
"x. c #435692",
"c. c #4B5693",
"v. c #4C5996",
"b. c #55569A",
"n. c #694E92",
"m. c #43618C",
"M. c #4B688B",
"N. c #576A8B",
"B. c #436592",
"V. c #446A95",
"C. c #4A6896",
"Z. c #476E9A",
"A. c #486E9B",
"S. c #49719D",
"D. c #577599",
"F. c #6C7A96",
"G. c #5F53A0",
"H. c #5B5AA3",
"J. c #6553A5",
"K. c #6059A7",
"L. c #6B55AA",
"P. c #6957AD",
"I. c #625BAA",
"U. c #7C5FBC",
"Y. c #4B75A1",
"T. c #4D79A5",
"R. c #4E7DA9",
"E. c #557BA7",
"W. c #5975B0",
"Q. c #6B60B2",
"!. c #8752AC",
"~. c #8B55B1",
"^. c #9E5ECC",
"/. c #8764C6",
"(. c #9E65C7",
"). c #9E66D5",
"_. c #A363D3",
"`. c #5D86A1",
"'. c #5283AD",
"]. c #5486B1",
"[. c #568BB5",
"{. c #578EB8",
"}. c #588FB8",
"|. c #5790BA",
" X c #5992BC",
".X c #698FA7",
"XX c #6A94AF",
"oX c #5B97C1",
"OX c #5E9AC4",
"+X c #669AC6",
"@X c #6C98D1",
"#X c #63A3CD",
"$X c #68ACD5",
"%X c #75B2D8",
"&X c #72B9E4",
"*X c #74C3EB",
"=X c #78C9F1",
"-X c #7DD3F9",
";X c #8D8988",
":X c #9B9784",
">X c #A09A89",
",X c #A9A38C",
"<X c #ABA597",
"1X c #B4AD99",
"2X c #B4AFA1",
"3X c #BAB5A5",
"4X c #C1BCAC",
"5X c #C2C1A7",
"6X c #CAC6B6",
"7X c #D7D3BE",
"8X c #8FB7CC",
"9X c #92BDE1",
"0X c #8ACDE5",
"qX c #96D1E0",
"wX c #87C5F4",
"eX c #93D8F3",
"rX c #99E7F9",
"tX c #9FF3FF",
"yX c #B2EBF2",
"uX c #D6D1C6",
"iX c #DAD6C8",
"pX c #E1DED5",
"aX c #E9E6DC",
"sX c #F4F3EC",
/* pixels */
"# - j : : > > j j : : j k j k > > V > > > > > k > > f f f f a > f f f > > k > > ; > > > > > > > > > > > k > k > > k k > > : > k V j j j j : : : > j j > h k : * ",
": : > j N V > > > > > V k k k > f f > > > - % 5 6 - > > f f f 7.7.k > > > 7.7.7.f > > > k > > > > > > 7.V > k > > k > > > > > k N : j : : N V V V V j : j k j ; ",
"k k j k V V N : > k k V V V V N f f > : : 0 w J ^ , p : f 7.8.9.8.7.f > > 7.8.9.9.7.> V 7.7.> > > k k 7.7.k k > > V > > > V 7.f N > h h N V 9.9.8.8.j > j V k k ",
"j k 8.9.9.V j j k k k 7.8.8.9.9.8.7.> a 0 ` M.Y.M.;.g f 8.7.7.8.8.8.8.k > 7.7.7.7.8.9.9.9.7.> > 7.> > 7.8.9.9.9.9.8.> > V 8.9.9.8.V 8.8.8.8.8.8.8.8.V V j 8.k j ",
"j j 8.8.8.8.8.8.7.V V 7.9.9.9.8.8.8.a p @.`.%X9X8X.X%.$.f V 7.7.f V 9.7.7.7.7.8.7.7.7.7.9.9.8.7.7.7.7.7.9.9.9.8.8.9.8.8.8.9.9.9.9.8.9.9.9.V V V V V 8.8.V V k j ",
"j j j j 8.9.9.9.8.8.7.7.9.9.V V 7.7.p ^ 2.#XqXyXyX8XD._ 4 a f k > > 8.9.8.V 7.9.9.7.> > 7.9.9.9.8.7.8.7.9.9.7.k 7.9.9.9.9.9.9.9.9.9.9.8.V V V V > N 8.9.8.V N j ",
": h j V V V V V V V f V V V 8.9.8.7.8 ^ M.E.+XyXyXqXF.Y X , a f > > 7.9.9.7.> V 7.> > f V V 7.V 7.> > 7.> 7.7.9.8.8.7.f V V 7.8.9.9.9.9.9.N N V : : 8.9.9.V : ; ",
": : j k V j j j f > f f : > V 8.8.V u ( ,.j.N.8XyXqXF.Y D J u a > > 8.9.9.f > > 7.7.f 7.7.> f > > > > > > > k 9.9.7.V V f V V f V 8.9.9.9.8.V 8.V k 8.9.9.N : - ",
": > > 7.7.> > > > f f > f : : f 7.V g ^ [ T ;.XX0XwX`.:.T T _ d 7.9.9.9.8.f f 7.7.f 7.7.V > > > > > > > f f f f 7.7.8.9.9.7.> > N 9.9.9.9.9.9.9.8.8.9.9.8.j : : ",
": > k 7.V f > > > > > : V V f 8.8.V 8 ( l.E.XX0XrXeX8X+XY.i.( p > > f 8.9.7.8.8.V f f f V > > > > f > > f 7.f 7.8.7.9.9.9.8.V 8.9.9.9.9.8.8.8.8.V N V 8.8.V V k ",
"> > > 8.8.7.f f f V V V V 8.9.9.9.7.s ^ M.XX0XtXtXrXeX&XW.X.^ a : : > 7.9.7.9.9.7.V V 7.9.7.V f f 7.7.> 7.7.8.9.9.8.9.9.9.7.8.9.9.9.9.8.V V 8.8.N : : V 9.8.k k ",
"k > f 9.9.9.V V 7.9.9.9.8.8.9.9.9.V : g 1.`.&XrXtXeXwX@XM./ s V f : > 8.9.f 7.8.9.7.f 9.9.9.7.f 8.9.9.9.8.8.9.9.9.7.9.9.f 7.9.7.8.9.9.8.N V 9.9.N : : 8.9.N j j ",
"> > > 7.9.9.9.7.f V 8.9.7.7.9.7.V 8.7.N g 1.D.%XwXwX+Xm./ d 7.9.7.V 8.9.9.V 7.7.7.f f 9.9.9.9.7.> V 8.9.7.V 9.7.V 8.9.9.9.9.9.8.9.9.9.9.8.9.9.9.V V 8.9.8.V j j ",
": > k 7.8.9.9.8.f f V 9.7.V 9.V V 9.8.k V 0 ( R.@X@Xm./ p 7.9.9.8.8.9.9.8.7.8.7.7.V f V 9.9.9.7.> > 7.9.7.V 9.V V 9.7.V 9.9.9.7.V 8.9.9.9.9.9.9.8.9.9.9.8.8.N j ",
"> k 8.9.9.9.8.8.9.7.V 9.8.V 7.9.8.7.k > V f g 2.C.Z.@.s V 9.9.7.V V 7.7.7.8.9.9.8.7.8.9.9.9.7.8.9.7.V 9.7.7.8.9.9.8.f > V 9.9.V N V 8.8.9.9.9.V V V 8.V 8.8.V k ",
"> k 9.7.9.9.8.8.9.9.8.7.8.8.8.9.9.V > > f > a u ( ( g f k k 7.8.8.7.7.8.9.8.9.9.8.8.9.7.8.9.9.8.9.9.8.7.8.8.9.9.9.> > > f V V f N V V V V V 8.8.8.8.8.8.8.8.8.k ",
"> k 8.k V 9.8.8.8.9.8.V V 8.8.9.9.V j j j V > 6 1 8 a V V V 7.9.9.9.9.8.8.9.9.9.V 8.8.V V 9.8.8.9.9.8.f V 8.9.9.9.V j j j j V N N V V N N V 8.9.9.9.9.8.8.9.8.k ",
"k k k > j V V 8.8.N > > > N 7.8.8.8.8.k V 8.8.7.V V 7.9.9.9.9.9.9.9.9.V V 8.9.9.9.8.N > N V V V 7.> > > : N 8.9.9.8.8.V 7.8.9.8.9.9.9.9.9.9.9.9.9.9.9.k N 8.V k ",
"j k 8.j j N V V V N N V > p p p M 7.8.8.V V 8.9.9.9.9.8.V 7.8.9.V V 8.V j N 8.9.8.8.7.N N V k h 6 * : V j j V 9.9.8.8.8.V V 8.9.9.9.9.8.8.8.8.8.8.k 8.k N N k k ",
"> k 9.8.V V V k N N V 8.V 6 < . 8 V 9.8.V V 7.9.9.9.9.8.V V 8.8.k j V V V j V 9.8.8.8.7.V N j q . , 6 V j : 8.8.9.8.9.8.V V 8.9.9.9.9.8.k V 8.8.k j V 8.V h j k ",
"V V 8.9.9.9.8.8.8.N j > > p O O 3 N 8.9.9.9.9.7.7.8.8.9.9.9.9.9.9.9.9.9.8.V 8.9.9.8.8.9.8.V p y ) P w 6 : > 9.8.8.8.8.9.9.9.9.V 8.8.8.9.9.9.9.9.9.9.9.9.9.V k k ",
"j V 8.8.8.9.8.8.9.8.V V V N q q p f 7.8.8.7.7.8.8.8.8.7.8.8.8.7.8.8.8.9.9.8.8.9.8.8.8.8.V p y ) X.X.( e 6 > 8.9.8.V V 9.8.8.8.8.8.8.V 8.8.8.8.8.8.8.V 9.9.8.k k ",
": k 9.8.8.8.8.8.9.9.9.9.9.9.V 7.V N V V V N N 9.9.V V N f N V V N k N 8.9.8.8.9.8.8.8.8.: , P { B.l.' @ 5 V 8.9.8.j k V j j : 8.8.V V N N N V V k N k 8.9.V V k ",
"k k V 8.8.9.8.V V 8.9.9.9.9.8.V V V V N > V 7.9.8.f N V V V V N j j V 8.V 8.8.8.8.8.V 8.V p t ) k.,.( 3 p V 8.8.V j j j j : * = ; > N N V V N N j j V 8.8.8.V j ",
"j k 8.8.8.8.V V V 7.V V 8.9.8.V V 7.V V V 7.8.9.7.> f N V N > > h h k k j k 7.8.8.8.V 8.V a q y ) ( y 6 N 8.8.V V 8.V k k b c c z ; j k k j f > > > 7.7.7.7.k > ",
"> V 9.8.V > V V 7.7.N f 7.9.8.8.8.8.8.8.9.9.9.9.8.V > > > > > > : ; p ; p : k 8.7.8.9.9.V j a 7 . 2 5 n V 9.V 8.8.8.8.V N S *.4.&.7 ; > : j > > > j 8.8.7.7.k j ",
"> V 8.7.k : > k 9.9.9.8.8.8.7.7.9.9.9.9.9.9.8.9.9.8.V : > > k k : & . o O 1 N 9.8.8.8.8.V : : N j j V 8.9.8.V 9.9.9.V n z -.<X3X;Xv % - : N N N V V k 8.8.8.k k ",
"j V 8.8.7.V > k 9.9.8.8.9.8.7.9.9.8.9.9.9.8.k 8.9.9.V V k V 7.j p y P Y U t 7 N j j > a ; ; - ; k k V 8.9.9.V 9.9.9.k ; l 0.uXaX4X0.$.7 : N V 8.8.8.8.7.7.9.7.k ",
"j k 9.9.9.9.9.8.9.8.V V V 9.9.9.9.8.8.8.7.V > 8.8.9.9.8.9.9.k a y ( k.C.k.) t 1 1 $ 1 1 5 1 $ 1 5 b j j V 9.9.9.9.8.j = l q.iXsXsXiX:X&.7 h 8.9.9.9.9.8.V 7.k j ",
": j 7.9.8.k 8.9.8.7.7.f 7.9.9.9.8.7.V V 8.9.8.V V 9.9.9.9.V p e ;.M.E.].Y.,.) L H @ K K P K K L ^ r 6 h V 8.9.8.8.V : & x 6.4XsXsXsX3X5.l ; k 9.9.8.V 7.7.V > ; ",
"> k 8.9.8.k 7.8.8.7.V f 7.8.8.V V V V V 9.9.8.V 7.9.9.8.V p r P ,.S.[.[.R.B.,.{ ] ] ' :.[ ] ] { :.^ e & & ; N k k j b c 4.>X4X6XpXiX2X4.z = j 8.8.8.V 9.9.V > : ",
"j 7.9.9.8.k k 8.9.7.f V V N N V V 8.9.9.7.f > 8.9.7.9.V 6 w U } B.E.R.T.T.S.S.S.A.D.S.S.A.Z.C.S.S...J . X . $ : j = c 6.3X4X<Xw.w.r.-.A N h k 8.8.9.9.9.9.8.7.k ",
"j k 8.8.8.V V 8.V 8.V j k 9.V V 8.8.8.k V 8.8.8.V N 8.N 1 L ' m.Y.T.Y.A.T.R.].{.|.|.[.|.|. XOX#XOX'...( U ) e 5 p m 0.1X7X1X0.A x x c B 7.k k 8.9.9.8.k V 9.7.k ",
": k V 8.V 8.8.8.V 8.8.k 8.9.9.8.8.8.V k 8.8.9.V V V 8.j 1 P [ C.T.T.A.Y.T.].}.oXOX X X X#X$X*X=X*X#XE.m.B.s.) w x =.,X6X5Xe.A # # # ; k 9.8.8.8.9.8.7.k > 9.7.> ",
"j j V V 8.9.9.9.9.9.9.9.k V 9.8.8.8.8.8.8.V V N N 7.V a 2 L ] m.Y.T.Y.T.].{.{.{.[.[.[.].OX$X=X-X=X&X#X'.|.'.p.) +.:X5X1X-.v 6 : f V V V 9.9.8.8.8.7.k 8.8.9.k : ",
": j j j V 8.8.8.9.9.8.8.V V 9.9.9.9.8.8.8.8.k k V 7.; 5 ^ ' k.B.A.Y.A.R.[.}.{.[.[.[.].].|.#X&X=X-X-X*X$X#X XZ.p.l.!.e.-.A p : > V 8.V V 7.k 8.9.9.9.k 8.9.9.> - ",
"j > > > V V V 7.9.9.8.k V 8.8.8.8.k k 8.9.8.7.V V N , + ' m.Z.S.S.S.S.R.].}.}.{.[.[.[.[.[.|.OX&X=XeX-X*X$X X].'.D.N.@.u b k 8.k 7.8.7.V N V V 8.9.9.8.8.9.9.j : ",
"j j > j j j V 7.9.8.8.8.V V 8.k : = ; j 9.9.8.V a 3 K ' l.Y.T.S.S.A.S.T.R.[.{.[.[.[.[.[.].'.[.+X$X*X*X&X$X X X X].B.) . p k 9.8.7.9.9.9.V 8.9.V k k 9.9.9.8.V k ",
"k j k k V 7.V 8.V 8.V 8.8.8.V j = 2 & : V 9.7.d 3 J U } B.Y.T.Y.S.A.S.S.T.R.].{.}.[.[.[.[.'.]. X#X#X$X#XOX|.|. X{.R.m.( y q j 8.9.8.9.8.7.9.9.8.j j 8.8.k k k k ",
"> j 8.8.9.8.8.V V k k 8.8.V k n A &.A b : j : 5 O U ] u.d.Y.Y.A.S.A.S.A.S.T.'.[.[.}.}.[.[.[.[.[.|.|.|.|.{.[.[.[.{.oX'.m.' @ 5 V 8.7.7.8.7.7.8.9.k k 8.k j k j > ",
"- j 8.8.V 8.8.8.8.V V 8.9.V z &.w.2X;XA % # $   @ I [ a.Z.Y.Y.Y.S.S.S.A.A.Y.T.'.].{.|.|.}.|.|.[.[.[.].].[.[.{.|.{.}.].S.l.' t q > V 8.9.7.V V 8.8.8.8.8.7.9.k > ",
": j V V V 8.V V V V V 8.8.j $ *.1XiX3X0.$.c v v O.@.;.j.d.Z.Y.A.S.S.S.A.A.A.S.Y.'.].|.[.[.[.[.].].].].].[.[.[.{.].].R.Y.A.j.' e % > V V V V 8.8.9.8.V k V 9.7.j ",
"k j k V V V j : j j k 8.V h & &.:X6X6X2X:Xw.:Xw.q.3.%.;.i.B.Z.Y.Y.S.S.S.S.A.A.A.T.'.'.'.'.'.'.'.'.'.'.'.'.'.'.'.R.Y.Y.Y.R.C.:.+ . ; a f N 7.9.9.9.V j : > V k k ",
"j k 8.8.8.8.j j k j j V 8.8.V B $.4.1XuXpXpXuX7X4X>X3.@.' X.d.A.Y.S.S.S.S.A.A.A.S.T.T.T.T.T.T.T.T.T.T.T.T.T.T.R.T.S.S.Y.T.m.] + 2 j 7.8.8.V 7.8.8.8.8.j j 8.k > ",
": j 8.V 8.9.8.V 8.k k 8.9.9.k b c 3.<X7XaXaXiX7X5X:X3.o.)  .a.B.A.Y.Y.S.S.S.S.A.S.S.S.S.S.S.S.S.S.S.S.S.A.Y.A.A.S.A.Y.Y.T.B.:.J < p V 8.9.V V V V V 8.8.V 7.V > ",
"j j N N 8.9.9.9.8.8.8.8.9.k b z =.>X3X4X4X2X1X,X:X0.%.@.'  .i.p.B.Z.S.Y.S.S.S.S.Z.Z.Z.Z.Z.Z.Z.Z.Z.Z.Z.Z.A.A.A.Z.Z.Z.Y.Y.Y.C.u.U H r p N V V V V j N 8.9.8.V j j ",
": j j V V V V V k j j j k h l *.,X6X3X6.#.O.#.#.#.#.;.y.u. . .u.p.m.A.S.S.S.S.S.S.S.S.S.Z.S.Z.Z.S.Z.Z.S.A.A.A.A.S.A.S.S.S.Z.s.} Y J 3 b 8.V V N h : V 9.9.V > ; ",
": : j 8.V j j N j h j j j ; & &.r.4Xr.v     @ R <.n.b.a.i.i. . .u.a.B.A.S.Y.Y.S.S.S.S.S.S.S.S.S.S.S.S.S.S.S.S.Y.Y.Y.Y.A.V.s.s.X.] U @ 6 8.8.V V V V 8.9.8.j : - ",
": j j k V > > > > > > > > : - z &.4.&.m = , L n.~.(.~.K.x. . . . .u.p.B.A.Y.T.S.Y.S.S.S.S.S.S.S.S.S.S.S.S.S.S.S.S.T.S.V.s.p.i. .] U O p 8.9.9.9.8.8.9.9.8.> : : ",
": : k k V j > > > > > > V V N f m z m V k 6 @ >.!._.)./.K.x. . . . .X.p.B.Z.V.V.V.Z.Z.S.Y.Y.S.Y.S.S.S.S.S.T.S.Z.Z.V.d.s...p.l.l.:.U O p 8.8.8.8.V N V 8.8.8.V > ",
"h j k 7.8.8.j > N V V V V 7.8.7.> * : 8.9.N 8 ^ h.~.^._./.H.j.u. .|  .u.p.l.a.a.a.s.B.Z.S.Y.S.S.S.S.T.S.S.S.Z.s.s.a.p. .| l.b.b.f.U e 6 V V 8.8.f : : V 9.8.V V ",
"j k k 8.9.9.V V 7.8.9.9.8.7.9.9.9.k 8.9.V 8.V $ @ ~ ~._._.U.G.c.i...i.i...i.u.u. .u.a.V.A.A.A.A.S.Z.Z.Z.Z.Z.d.p.X.u.u.u.i.c.H.J.g.I 3 * > 7.9.9.N : > 8.9.j j j ",
"h > k 8.9.9.9.8.N V 8.9.8.V 9.8.V 9.9.9.9.9.8.; u R >.L._._./.Q.H.H.H.x.u.| | | | | i.p.s.s.s.s.s.s.s.s.s.s.p.p.i.x.H.H.H.H.z.! R t p V 8.9.9.9.8.V 8.9.9.V j : ",
": j k k 8.9.9.8.f N V 9.V V 9.V k 9.7.V 9.9.9.f q t K >.!._._.U.Q.H.K.c.l. . . .X.u.i.p.i.k.a.p.p.p.p.p.p.p.i.i.j.b.P.L.Q.G.f.I e 7 V 9.9.9.9.9.8.9.9.9.8.8.N j ",
"> k 8.9.9.9.8.8.9.V V 8.8.8.8.8.9.8.> > V 9.9.f p 9 < L >.!.~.L.z.z.z.b.c.v.C.v.v.v.c.c.c.c.c.c.c.c.c.v.c.c.j.[ [ f.z.J.n.h.Y O 5 j 8.9.8.9.9.k V V V 8.V 8.V N ",
"> k 8.7.8.9.9.8.9.9.8.8.7.8.8.9.9.V > a f V V a p 0 8 r R W ~ Q E Y Q g.G.I.Q.I.K.K.K.K.K.K.K.J.H.K.K.K.Q.K.f.T I Y Y Q Q E ^ 3 ; k V V k V 8.8.8.7.8.8.9.9.V V ",
"> V 8.k V 9.8.8.8.9.8.V V 7.8.9.9.V N V f V f a s s s i y K D G D X L Q z.L.P.J.L.J.J.J.J.J.L.J.J.J.J.L.P.J.g.E D + G D F K u p N B V V k V 8.9.9.9.9.9.9.9.7.j ",
"j N V a N 7.V V 8.V f f a V 8.9.9.8.7.V V 7.8.7.V B M g i r e t r e y U E g.h.:.t.:.! t.! ! t.:.! ! t.g.t.t.+.^ e e r t t u M V 8.8.8.8.9.9.9.9.9.9.9.k k 7.7.k ",
"j k V V N V N V N N N V f f 7.9.9.9.8.8.V V 8.9.7.V B d q q q q q 5 q y I I I I I I I I I I I I I I I I I I L u s s s q 9 s B 8.9.9.9.9.8.8.8.9.7.k 7.k > k k k ",
"> V 9.V V V V V N V V 7.N f 8.8.9.8.9.8.V V 8.9.9.8.V n p s M M s p s 9 e o o @ O O O O o O o o o o o O X + r s M M M M n N V 8.9.9.9.8.k k 8.8.k j 7.7.k > j k ",
"k V 7.9.9.8.8.8.V V j j : N 9.8.7.7.8.9.9.9.9.7.7.8.7.V N Z Z M M M d m q 8 8 9 i 9 9 q i 9 q 9 9 8 3 3 3 8 i s s g M n V 9.9.V V 9.8.9.9.9.9.9.9.9.9.9.9.7.k k ",
"j V 8.9.9.8.8.9.9.8.V V V 7.9.9.7.V 7.8.8.8.V 8.7.8.7.V f d M d s s g M M m s C s g s C C M s d s s g s g s M M b s s B V 8.V 9.8.8.V 8.8.8.8.8.9.8.7.9.9.7.k k ",
"j 7.9.8.7.8.8.9.9.9.9.9.9.9.9.9.8.N V V V N N 9.9.V V N : a a a p p q g M M M Z d d M d s M d M M M M Z Z M M B N p : N N N N 9.9.V V N N N V V V k k 8.9.8.k k ",
"j k k 7.9.9.7.V 7.8.9.9.9.9.8.7.V V N N f V 8.9.8.f N V V j > f a p p s s s s d d s s s b M s s s d d M d M N N N V N j j V 8.9.8.N N V V N j N j k k 7.8.8.k > ",
"j k V 8.8.8.V V V V V V 8.9.8.V V 8.V N V 7.8.9.7.f > V V f f f : a N M a N N B B B d V f f f d f d f d d V V V 7.7.V V V 7.8.9.8.f f N V f f f : > 7.7.7.7.k > ",
"> k 9.9.7.> V V 8.7.V f V 8.8.8.9.9.8.8.9.9.9.9.7.V > > > > f > > j 7.8.8.V 8.8.V V 9.8.7.f B 7.7.7.f f 8.9.7.7.8.9.9.7.9.9.9.9.8.V f f > > f f > k 9.7.7.7.k > ",
"j V 8.7.j : : V 9.9.8.8.9.8.V 8.9.9.9.9.9.9.8.9.9.8.N a > > V V V V V 7.8.8.9.9.9.8.8.7.f > : 7.9.9.9.8.9.8.V 8.9.9.9.9.9.9.8.8.8.8.V : > > V V 7.k 7.7.7.9.k k ",
"j k 9.7.V V > V 9.9.9.8.9.8.8.8.9.9.9.9.9.8.V 8.9.9.7.V > V 7.8.8.8.8.7.8.8.9.8.8.8.8.7.7.f f f 9.9.9.9.8.8.7.9.9.8.9.9.9.7.V 8.9.9.V V k V 7.8.8.8.7.7.7.9.7.k ",
"> k 9.9.9.9.9.8.9.7.V V 7.9.9.9.9.8.8.8.7.V f 7.9.9.9.9.9.9.9.9.9.9.9.8.V V 7.8.8.8.9.9.9.9.8.9.9.7.V V 7.9.9.9.9.8.8.8.7.V j 7.9.9.9.9.9.9.9.9.9.9.9.7.7.7.k > ",
"> > 7.9.8.V 8.9.8.8.V N 8.9.9.9.8.V V V 8.9.8.V V 9.9.9.9.9.9.9.9.8.V 8.7.V k V V 7.7.9.8.V 9.9.7.7.V f 7.9.9.9.7.7.k V 8.9.8.V V 9.9.9.9.9.9.9.9.7.7.7.7.k > : ",
"> k 8.9.7.k 7.8.8.7.V j V 8.8.7.V V V V 8.8.7.V 7.8.9.9.9.8.8.9.9.7.V 9.9.V V V 7.7.7.9.7.f 8.8.8.7.V V V 7.9.7.V 7.V 7.9.8.8.k 7.9.9.9.9.7.7.9.9.7.7.9.9.k > : ",
"> 7.9.9.8.7.k 7.9.7.> j k V k k V 8.9.9.8.V f 8.9.7.9.9.9.7.> 8.8.9.9.9.9.8.9.9.9.9.9.9.8.V f 9.9.V f f V V V f k 8.9.9.7.k j 8.9.7.9.9.9.V k 7.7.9.9.9.8.9.7.> ",
"> k 8.9.7.V 7.7.7.7.k j 7.8.V k 7.8.7.V 7.7.7.9.7.> 8.9.9.7.V 8.9.9.8.k k 9.9.9.8.8.8.8.8.k V 7.8.7.V f 7.8.V V 7.8.7.k 8.8.8.8.V V 8.9.9.7.V 8.9.9.8.k 7.9.7.7.",
"> k k 7.7.7.9.8.k 9.8.V 7.9.9.8.8.9.V k k 9.9.7.f V 7.9.9.8.7.9.9.8.7.> k 9.9.9.8.V V 8.V 8.9.8.7.8.8.V 8.9.9.8.8.9.V k V 8.8.V f V 7.9.9.8.7.9.9.8.8.> > 9.7.> ",
"> j k 7.8.9.9.9.9.9.9.9.V V 9.8.8.9.8.7.8.7.V > 7.7.7.9.9.9.8.9.8.7.k 7.8.9.7.V V V V V 8.9.9.9.9.9.9.9.V k 9.8.7.9.9.7.8.8.V > > 7.7.8.9.9.8.9.8.7.7.7.9.9.> : ",
"> > k j V 8.8.9.9.9.9.7.k k 9.9.8.9.8.8.9.8.7.> V 8.k k 8.f V 9.9.9.8.7.9.9.k k 8.V j j V 8.8.8.9.9.9.7.f V 9.9.9.9.8.8.8.8.V V 7.8.V V V V 7.9.9.8.7.7.9.9.> - ",
"> > > > k k 7.7.9.9.7.k 7.7.9.9.9.7.7.7.9.9.8.V 7.9.7.> > > 7.9.9.9.7.8.8.9.V V 8.V j : N V V 8.9.9.8.k 7.7.9.9.9.7.7.7.9.9.7.V 7.8.7.V V j V 8.9.9.7.9.9.9.> : ",
"k > > > > k k 8.9.8.7.7.7.7.9.k N V k V 9.9.8.7.8.9.9.9.8.9.8.7.j k 9.9.9.8.8.9.9.V j j N j V 8.8.9.8.8.V 7.8.7.f V j V 9.9.8.7.8.9.9.9.7.8.8.V > k 9.9.9.7.7.> ",
": > > > k k k > > > k k k k k k N j j V V V V 7.V V 8.7.7.8.7.> > : V k > j V V V j : j j N k j f > k > > V k k k j V V V V V V V V 7.V V V V V > > k k > > > > ",
"- ; > > k > > > > ; > > > > : > V j k j : : > V > > > > > > > > : ; > : - : : j j > : j j j j : > ; > > > > > > V > j k : : > V k > > > > > N V : ; > : - ; - - "
};
