/* XPM */
static char *Group_9_3__resized[] = {
/* columns rows colors chars-per-pixel */
"80 80 220 2 ",
"   c #30391A",
".  c #2B3929",
"X  c #2B2D3E",
"o  c #312E35",
"O  c #2B3534",
"+  c #2C3A34",
"@  c #2D333D",
"#  c #2E3A3A",
"$  c #353937",
"%  c #313B3D",
"&  c #423E32",
"*  c #2B461B",
"=  c #334E1D",
"-  c #38481E",
";  c #2F5216",
":  c #34531D",
">  c #38561D",
",  c #355B1D",
"<  c #37631B",
"1  c #3A661D",
"2  c #3D6D1D",
"3  c #3F711F",
"4  c #2E4626",
"5  c #354A26",
"6  c #324B2C",
"7  c #335424",
"8  c #3A5B24",
"9  c #395827",
"0  c #34532C",
"q  c #36592B",
"w  c #3A5D2C",
"e  c #2F4332",
"r  c #314532",
"t  c #334C33",
"y  c #34433C",
"u  c #34493B",
"i  c #355232",
"p  c #385336",
"a  c #3A5B31",
"s  c #3B6424",
"d  c #3E6C22",
"f  c #376029",
"g  c #3D642C",
"h  c #3F6A2A",
"j  c #3F7220",
"k  c #3D6331",
"l  c #406F1E",
"z  c #41751F",
"x  c #43781F",
"c  c #454C2D",
"v  c #465B2C",
"b  c #4B4637",
"n  c #4A5A33",
"m  c #555C3B",
"M  c #426525",
"N  c #416D24",
"B  c #40672F",
"V  c #416B2D",
"C  c #417620",
"Z  c #457C21",
"A  c #457826",
"S  c #496533",
"D  c #416A30",
"F  c #53693A",
"G  c #2D2D44",
"H  c #2C3744",
"J  c #2D324F",
"K  c #323443",
"L  c #333B41",
"P  c #32344C",
"I  c #33384C",
"U  c #363354",
"Y  c #36385A",
"T  c #353C64",
"R  c #383A64",
"E  c #363F79",
"W  c #473C4F",
"Q  c #493B65",
"!  c #443E6D",
"~  c #473A73",
"^  c #4E3F7F",
"/  c #523B76",
"(  c #344247",
")  c #395748",
"_  c #364357",
"`  c #334A51",
"'  c #2E476B",
"]  c #384567",
"[  c #3A446B",
"{  c #3C516D",
"}  c #354B74",
"|  c #394875",
" . c #3C4A74",
".. c #365377",
"X. c #35537C",
"o. c #39537E",
"O. c #4E524F",
"+. c #5B6743",
"@. c #4D6755",
"#. c #63664A",
"$. c #696853",
"%. c #716D59",
"&. c #6C7255",
"*. c #72755A",
"=. c #464678",
"-. c #4F5A73",
";. c #635760",
":. c #47667B",
">. c #77696D",
",. c #797964",
"<. c #827A67",
"1. c #478022",
"2. c #498423",
"3. c #4C8A24",
"4. c #85836D",
"5. c #8A8673",
"6. c #928D7A",
"7. c #93947E",
"8. c #365483",
"9. c #3A5581",
"0. c #3C5A86",
"q. c #3E5C89",
"w. c #3F618D",
"e. c #4C4481",
"r. c #514184",
"t. c #58468B",
"y. c #415483",
"u. c #415A85",
"i. c #47558D",
"p. c #435D8B",
"a. c #5B4C98",
"s. c #4C5693",
"d. c #4C5996",
"f. c #4D5A97",
"g. c #525699",
"h. c #5C539E",
"j. c #535A9C",
"k. c #624D9C",
"l. c #784A98",
"z. c #6A5797",
"x. c #41618E",
"c. c #4B6788",
"v. c #436692",
"b. c #486691",
"n. c #456995",
"m. c #4A6A95",
"M. c #466D9A",
"N. c #486F9B",
"B. c #576F91",
"V. c #4D7096",
"C. c #49719D",
"Z. c #616A88",
"A. c #555BA6",
"S. c #5B5AA4",
"D. c #6453A5",
"F. c #6955AC",
"G. c #625BAB",
"H. c #685AAE",
"J. c #7B54AD",
"K. c #6A5CB2",
"L. c #725CB8",
"P. c #4B75A1",
"I. c #4D7AA5",
"U. c #4E7DA9",
"Y. c #547AA8",
"T. c #5979B5",
"R. c #785FC0",
"E. c #9057B9",
"W. c #A05FC9",
"Q. c #8D63CA",
"!. c #8C64D0",
"~. c #9A66D3",
"^. c #A466D7",
"/. c #63849B",
"(. c #4F81AE",
"). c #5282AD",
"_. c #5486B1",
"`. c #568BB5",
"'. c #5A8BB7",
"]. c #578EB9",
"[. c #588FB8",
"{. c #5791BC",
"}. c #5992BC",
"|. c #5D99C3",
" X c #6194C5",
".X c #63A3CD",
"XX c #66AAD4",
"oX c #7BAFD2",
"OX c #6CB3DC",
"+X c #6FBAE3",
"@X c #70BDE5",
"#X c #72C2EB",
"$X c #77C8F1",
"%X c #79CDF4",
"&X c #7DD3F9",
"*X c #928D8C",
"=X c #9D9886",
"-X c #A29B8D",
";X c #A49F90",
":X c #A9A28C",
">X c #ABA695",
",X c #B1A99C",
"<X c #B6B29E",
"1X c #B6AFA4",
"2X c #BAB5A5",
"3X c #C2BCAD",
"4X c #CAC5B5",
"5X c #CEC7B4",
"6X c #96B7D0",
"7X c #8BC8ED",
"8X c #A5D3EB",
"9X c #ABECF7",
"0X c #D2CEC3",
"qX c #D9D5C7",
"wX c #E3E0CD",
"eX c #E7E4D8",
"rX c #C2E7EF",
"tX c #C7F9FC",
"yX c #EEECE5",
"uX c #F6F4ED",
/* pixels */
"; < z 2 3 z 3 z z 2 2 z x x z z 3 2 7 ( ' } Y i s j C C j j 2 3 3 3 Z 3 3 Z 3 3 < 2 3 3 3 3 3 3 x 3 2 3 x 3 x 3 3 x x x 2 2 3 x Z z z z z 2 2 2 2 z C 3 z x 2 ; ",
"1 2 3 z C C 3 3 3 3 3 x C x z 3 s f ) :.Y.T.Z.@.k < 2 3 j j j 1.Z Z 3 3 3 Z 1.Z C 3 3 z 3 x 3 3 3 3 3 x Z j x 3 3 x 3 3 3 3 3 x C 2 z 2 2 C Z Z Z Z z 2 l Z z 2 ",
"x x z x Z Z z l 3 x x 1.Z Z C 2 7 ) :. X8X8X6X/.@.4 , 2 j 1.3.3.3.1.3 3 3 Z 2.3.3.2.z Z 1.x 3 3 3 3 x 1.Z Z Z j j C 3 3 3 C 1.C C z l l C 1.3.3.3.1.z 3 z Z Z x ",
"z x 2.3.3.Z z C x z x 1.2.2.3.d i =.T.7X9XtXrX6Xm.H f Z 2.1.2.2.2.2.2.j 3 1.2.1.1.2.2.3.3.1.x 3 1.x x 1.2.3.3.3.3.1.C 3 1.2.3.2.1.1.1.2.1.1.2.3.2.2.1.x x 1.x 2 ",
"z z 1.1.2.3.2.1.1.Z Z 1.3.3.3.s u 0. X7X9XtXtX7XP.J f 1.3.Z 1.1.j 1.3.1.1.2.2.2.1.1.1.2.3.3.1.1.1.x Z 2.3.3.3.2.2.3.2.2.3.3.3.3.3.2.3.3.3.Z Z Z Z Z 2.1.Z Z x z ",
"z z z x 1.3.3.3.2.2.1.2.3.3.Z < t ..T.7X9X9X8XoXm.I k Z 1.Z j 1.3 3 1.3.3.3 1.3.2.1.3 j 1.3.3.3.2.3.2.2.3.3.Z Z 1.3.3.3.3.3.3.3.3.3.3.3.2.Z C Z 2 C 3.3.3.Z x z ",
"2 z z x Z Z Z Z Z C j Z C Z 1.C g ) c.T.@X7XOX/.@.a j 2.2.j j j 3 3 1.3.3.1.3 Z 1.3 3 C Z Z 1.1.x x x C 3 Z 2.3.2.2.1.j Z 1.1.2.3.3.3.3.2.Z C Z 3 z Z 3.3.Z 2 1 ",
"2 2 z x Z x z z 3 3 j j 3 3 Z 1.Z f O.:.Y.Y.V.{ k d 1.3.3.1.2.2.1.3 3.3.3.3 3 3 1.Z 3 1.1.3 3 3 3 3 3 j 3 3 Z 2.3.1.Z Z C j Z 3 Z 2.3.3.3.Z 1.2.Z z 1.3.3.C 2 < ",
"2 3 3 1.1.3 3 3 3 j 3 3 3 3 3 3 1.Z h p ] T _ 6 M 2.3.3.3.3.3.3.3.3.3.3.2.j j Z Z Z j 2.x 3 3 3 3 3 3 3 j 3 j j 1.1.1.3.3.Z 3 3 Z 3.3.3.3.3.3.3.3.2.3.3.2.z 2 l ",
"2 3 x 1.1.j 3 3 3 3 3 3 C Z j 2.2.2.C s a i q d x 3.3.3.2.2.3.2.3 3 j 2.3.1.2.3.Z j 3 Z 1.3 3 3 3 3 3 3 j 1.j 1.2.1.3.3.3.3.1.2.3.3.3.3.3.Z 2.2.C C Z 1.3.Z C z ",
"3 3 3 2.2.1.j 3 C C Z Z Z 1.3.3.3.1.1.Z j j j 1.3.3.3.3.x Z 2.2.3 1 3 1.3.2.3.3.2.Z 3 2.3.2.j 3 j 1.j 1.1.1.2.3.3.2.3.3.3.2.2.3.3.3.3.3.Z Z 2.2.C 2 2 Z 3.1.Z x ",
"x 3 3 3.3.3.1.j 2.3.3.3.2.2.3.3.3.1.3.3.j 1.3.Z 2.3.3.2.x Z 3.3.j 2 3 3.3.j Z 3.3.2.3 3.3.3.2.j 1.3.3.3.3.1.3.3.3.1.3.3.j 1.2.1.1.3.3.Z z Z 3.3.C 2 z 1.3.C z x ",
"3 3 3 1.3.3.3.1.3 Z 2.3.1.1.3.1.Z 2.3.3.3.3.3.2.2.3.3.3.2.3.3.3.3.1.2.3.3.Z Z 1.1.j 3 2.3.3.3.1.3 Z 2.3.1.Z 3.2.Z 2.3.3.3.3.3.2.3.3.3.3.2.3.3.3.1.Z 3.3.3.Z z l ",
"2 3 x 1.2.3.3.2.3 j Z 3.1.Z 2.1.Z 3.1.Z 3.3.3.Z 2.2.3.3.3.3.3.3.2.3.3.3.2.1.2.1.Z Z x Z 2.3.3.2.3 3 1.3.1.Z 3.Z Z 3.1.1.3.3.3.2.Z 3.3.3.3.3.3.3.3.2.3.3.2.2.Z l ",
"3 x 2.3.3.3.2.2.3.1.1.2.1.1.1.3.2.1.C l Z 3.3.Z x Z 2.2.3.3.3.1.Z 1.1.Z 1.2.3.3.3.2.1.3.3.3.2.2.3.Z 1.2.1.1.2.3.3.1.3 3 Z 3.3.j z Z 1.3.2.3.3.Z Z Z Z Z Z 2.Z x ",
"3 x 3.1.3.3.2.3.3.3.2.1.2.2.2.3.3.Z z l C C Z z z x Z Z x x 2.2.1.1.1.3.3.2.3.3.1.2.3.1.2.3.3.2.3.3.2.2.2.2.2.3.3.x 3 3 j Z 1.3 C Z Z A Z Z 2.3.2.Z 2.3.3.3.Z x ",
"z x 2.x Z 3.2.2.3.3.1.C Z 2.3.3.3.C x C z z C C C Z Z Z C Z 2.3.3.3.3.3.3.3.3.3.2.2.2.x 1.3.2.2.3.3.2.j 1.1.3.3.3.C x z z z C C Z Z Z Z Z Z x 3.3.3.3.3.3.3.Z x ",
"x x z 3 z 1.Z 1.3.C 3 j 3 C 1.3.3.3.2.x 1.2.3.3.2.3.3.3.3.3.3.3.3.3.3.Z x 2.3.3.3.1.x 3 3 Z C Z 1.j 3 3 3 C 2.3.3.3.2.x 1.1.3.2.2.2.3.2.3.3.3.3.3.3.3.x Z Z Z Z ",
"z x 1.x z x C Z Z C C Z 3 3 1.3.3.3.2.1.Z Z 2.3.3.3.3.3.Z 2.2.3.Z Z 2.Z z Z 1.3.1.1.1.3 d 8 0 f j 3 Z Z 3 3 1.3.3.3.2.2.x l 2 1 x 3.3.2.Z 2.3.3.Z x 2.x z Z x x ",
"3 x 3.2.Z Z Z Z C C Z 1.C 3 1.3.3.2.2.3.Z Z 1.3.3.3.3.Z Z Z 2.Z z 2 C C C 2 Z 3.1.2.3.1.s 4 . 5 d j Z 2.3 3 1.3.3.1.2.2.x M > 9 M 2.3.1.x x 2.2.x x Z 2.Z l z x ",
"Z Z Z 3.3.3.1.1.1.x z 3 d C 3.2.1.1.2.3.3.3.3.1.Z 3.2.3.3.3.1.C 2 d l d s 2 x 3.3.2.1.3.N 6 + 6 j 3 j j 2 j 3.2.x 2.2.2.x F $.*.+.d Z 2.3.3.3.3.3.3.3.3.3.Z Z x ",
"z Z 2.3.3.3.1.3.3.1.Z Z Z Z 3.3.2.Z 1.2.3.1.1.2.3.1.Z 2.2.1.C 9 6 r 5 r 5 7 C 3.3.3.2.3.Z s w V 2.2.1.C Z 2.3.3.2.x x z M *.-X,X5.n 1 z 2.2.2.2.2.3.2.3.3.2.x x ",
"z x 3.2.1.2.3.3.3.3.3.3.3.3.3.3.2.z C 1.Z C z 3.3.Z Z z C 2 9 + G J G J I e g Z Z C 1.Z C C Z Z 1.2.3.3.3.3.3.3.2.x 1 > c 5.0XeX1X%.n , 2 z x x x x z 2.3.2.Z x ",
"z x Z 1.3.3.Z Z 1.3.3.3.3.3.3.2.Z Z C C z Z 1.3.1.z Z z 1 6 u ] =.| R [ [ _ t 7 : : = = : > : = = < C 3.3.3.3.2.x x 1 ; & 5.qXuXyX4X5.+.> 1 3 3 z C Z Z 2.Z Z l ",
"z x 1.2.2.1.1.Z Z Z Z Z 2.3.2.Z Z 1.Z Z Z 1.3.3.1.3 C 2 : y _ u.p.p.8.p.v.o._ $ $ + # % y y % % # 6 s z 1.2.1.1.2.2.l - c 5.5XuXuXuX2X*.c : 2 3 3 3 1.1.x 1.x 3 ",
"3 Z 2.3.1.3 C Z 2.1.C j Z 3.2.1.2.3.2.1.2.3.3.3.2.C C , . I | v.M.n.w.M.P.n.o.R R ] [ [ ] ] [ [ [ ( 6 7 s j j 1.2.2.l S %.7.3XqXeXeX2X,.c ; 1 z 3 z 2.2.2.1.x x ",
"z Z 2.1.z 2 3 x 3.3.3.3.3.1.Z 3.3.3.3.3.3.3.2.2.3.3.C , . P E 0.v.M.M.M.C.M.c.y.p.b.m.n.m.b.b.m.n.{ L . . . , j x l n <.,X3X,X6.-X-X,.F > 2 3 x Z Z 1.1.2.3.x x ",
"z Z 2.2.1.Z 3 x 3.3.2.3.3.3.1.3.3.3.3.3.3.1.1.2.3.3.1.2 4 K R } q.M.M.P.C.C.N.C.U._.`._.`.'.}.|.}.C.{ P J I 6 s A v *.>X5X3X6.#.m #.n M 3 x 1.1.2.2.2.1.1.2.1.z ",
"z x 3.3.3.3.2.3.3.1.Z C 2.3.3.3.3.3.2.2.2.Z x 1.1.3.3.N 5 K Y T 9.n.C.C.C.P.)._.{.|.{.|.|.XX@X#X@X|.P.-.i.o.` e 8 $.:X5X5X7.F - * = l x 3.3.3.3.3.3.3.1.Z 1.x 3 ",
"3 z 2.3.2.x 2.3.2.1.1.C 1.3.3.2.1.Z C Z 2.3.2.x Z 3.3.C 6 L T } q.M.C.C.C.I.).].{.].].`.|.+X$X&X&XOX|._._.I.X._ O.*X2X<X<.#.M 1 2 z x 2.3.2.3.3.3.2.Z 1.1.Z 3 2 ",
"3 x 2.3.1.z 1.3.3.1.C C 1.2.2.1.Z 1.Z Z 2.3.1.Z Z 2.C 9 e Y } o.x.N.C.C.C.I._.'.].`._._.|..X#X%X&X&X+XXX.X XM.y.-.*X=X5.m 8 l x 2.3.3.3.2.1.1.3.3.1.1.2.3.Z 3 3 ",
"z x 3.3.2.1.x 1.3.Z j C x x 3 x Z 1.3.3.1.z 3 2.3.j 7 + U } 9.x.M.C.C.M.C.I._.{.].`.`._._.|..X@X%X7X&X@XXX|.U.Y.V.B.;.n M 1 l 2.3.1.3.3.3.Z x 2.2.3.3.3.3.2.Z x ",
"z Z 2.2.Z Z Z 1.2.Z Z x x 3.x x z l l z x 2.2.x d 0 ( ]  .9.w.M.C.P.C.N.N.P.(.`.`.[.`.`._._.[..XOX$X$X@XXX}.}.}.).c._ . , j 2.2.Z Z 2.3.3.Z Z 2.3.3.2.Z Z 3.1.x ",
"l x Z Z 2.2.3.2.Z 2.2.x 2.3.3.x l > > l 1.3.2.l 0 L { u.x.w.w.N.P.P.C.N.C.C.P.(._.`.[.[._.)._.}..XOXOXXX|.}.}.}.{.w.' H t s Z Z Z Z 1.3.3.2.2.2.3.2.1.z 3 3.1.3 ",
"l x Z Z 2.3.3.3.3.3.3.3.x x 3.A c m n M x 2.l * # ] u.n.v.q.q.n.C.P.C.C.C.N.C.C.)._.[.[.`.`.`.`.[.[.[.[.`.[.`.`.`.(.n. .Y r , d x 1.1.2.3.2.2.3.2.1.1.1.2.3.x 2 ",
"2 z z x Z 2.2.2.3.3.3.Z Z x l +.4.;X4.S > ; -   o Y  .0.8.8.0.x.M.C.C.P.C.C.N.C.C.(._.[.[.[.[.`.`.`._.`.[.`.`._.(._.C.9.Y O ; 2 1.2.x x 1.Z 1.3.3.2.1.1.3.3.3 < ",
"z l z 2 C Z Z 2.3.3.2.x x l - *.,XqX2X*.b c c b b W Y T } o.8.0.w.M.C.C.C.C.C.N.N.P.(._.[.'.[.`._.`._.`.`.`._.I.I.U.C.y.Y # 7 d 1.3.Z x C C Z 3.3.3.2.2.3.2.z 2 ",
"z z 3 z x x Z 1.3.3.2.Z 2.l > #.-X5X4X,X=X<.6.5.<.$.W K T } 8.X.o.w.M.N.C.C.C.C.N.C.P.).)._._.).).)._._._._.(.C.C.P.N.p.T ( 6 s x 2.3.3.Z 2.3.Z x x 3.3.3.2.Z z ",
"x z x Z Z 1.2.Z 2.Z Z 2.2.x l S &.7.2X0XqX5X5X3X3X<.#.& Y ..8.o.o.0.w.n.C.P.C.C.N.N.C.I.I.I.I.I.C.).C.).).I.C.C.N.C.C.n.p.{ ( 0 s x 2.2.2.3.3.1.z z 2.2.x x x x ",
"z x 1.1.2.2.2.Z Z x Z 2.2.x x M v $.;X0XuXyXeXwX5X-X<.O._ } 8.8.o.o.9.w.M.P.C.C.C.C.C.C.C.C.C.C.C.C.C.C.V.N.C.C.C.C.P.P.C.x.[ # 5 C 1.2.1.1.2.3.x x 2.x z x x z ",
"< z 2.1.1.2.2.2.2.Z Z 3.3.Z M S *.=X1X4X4X3X2X<X:X*X<.-.=.y.8.8.o.o.o.9.w.n.C.P.P.P.C.C.N.N.M.M.N.M.N.N.M.M.N.C.N.N.P.I.U.m. .K 4 N 2.2.1.Z Z 2.1.3.3.1.1.3.x 2 ",
"2 z Z Z Z 1.Z Z Z C Z 2.1.C > #.=X4X<X*X*.%.%.%.%.>.l.z.g.9.X.8.X.o.o.o.9.p.n.C.P.C.C.C.C.C.C.N.C.N.N.M.C.C.N.C.C.C.P.I.P.n. .G 4 2 Z Z Z 1.2.2.3.1.Z z Z 3.1.z ",
"x z z Z 1.Z z 3 z z Z 1.Z l 5 &.:X4X=X+.    -   $ Q k.K.A.0.X.X.X.o.o.o.X.9.w.n.n.n.M.N.C.C.C.C.C.C.C.C.C.C.C.C.C.P.P.C.m.u.] @ 4 < 2 z x 2.3.3.3.Z z z z Z Z x ",
"l x 2.3.2.1.z z Z z C 1.3.1.Z F &.4.$.9 1 l M - $ ~ k.F.A.9.} X.9.9.o.o.o.9.0.q.0.q.v.M.P.P.C.C.C.C.C.C.N.C.C.P.P.P.P.M.x.o.T @ 5 z Z 2.1.Z 2.2.2.2.1.x z 1.x 2 ",
"3 C 1.Z 2.3.1.1.1.Z Z 1.3.3.2.l v m S d 2.3.x : H ~ a.G.S.p.o.9.9.9.9.9.X.9.o.o.o.o.q.n.N.C.P.C.C.C.C.P.C.C.C.M.C.C.N.w.9.} T @ 0 x 2.3.3.Z Z Z Z Z 3.Z Z 1.Z z ",
"z z C C 1.3.3.3.3.1.1.1.3.3.x z < > 2 2.3.3.1.: # ~ a.G.H.h.i.9.o.X.o.9.9.9.o.o.} o.9.q.v.N.C.P.P.P.C.P.P.P.M.v.w.w.w.0.X.} Y @ 5 Z 2.3.2.Z C Z z C 2.3.2.Z z z ",
"2 3 z Z Z Z 1.Z Z C C C x x 2.2.x x 3 3 C 1.z = % ~ k.L.R.K.j.i.X.X.X.9.o.o.o.X.9.o.o.8.0.v.C.C.C.C.M.C.P.C.v.0.8.X.8.0.0.| ] @ 6 Z 2.3.2.Z C Z l l Z 3.3.Z 2 1 ",
"2 2 C 1.Z z z C C 2 z z l x x 2.3.2.Z Z Z j d * @ ^ J.!.!.L.g.y.X.X.9.9.9.9.9.9.9.o.o.} 9.q.v.n.v.v.v.v.n.v.q.8.X...o.i.g.s.[ X 4 Z 2.3.3.Z 1.Z Z C 3.3.2.C 2 < ",
"2 z z x Z 3 3 3 3 3 3 3 j 3 2 C 1.1.2.3.3.x 2 * H =.E.^.~.L.d.y.X...8.9.9.9.o.9.9.X.o.o.9.9.0.0.0.0.0.0.0.0.0.o.X...9.s.G.h.~ G 4 Z 2.3.3.3.3.3.3.2.3.3.3.2 2 2 ",
"2 l x x Z Z 3 2 2 z z 3 C Z C 2.2.2.3.3.3.3.j , u / E.W.^.Q.K.g.8.X.X...X.X.o.9.9.9.9.o.9.o.o.o.9.o.9.9.o.o.X.X.o.0.d.S.S.t.Q y w Z 2.3.2.2.2.2.x x Z 1.3.1.Z z ",
"2 z x 1.2.1.z z C Z Z C Z 1.2.3.3.2.3.3.3.2.1.d p O.Q l.E.^.Q.L.s.8.o...X.X.o.o.9.o.9.o.o.o.o.X.o.X.o.X.o.X.X.X.0.j.S.h.r.Q _ a N Z 3.3.x Z 2.2.C 2 l Z 3.1.Z x ",
"x z x 3.3.3.Z Z 1.3.3.3.2.2.3.3.3.1.2.3.x 2.2.C g t O W l.W.^.E.H.d.0.9.9.0.9.X.X.o.9.o.o.9.9.X.o.o.o.o.8.X.8.8.i.S.k.r.U L p s C 3.3.Z x 1.3.3.C 2 C 1.2.x z z ",
"2 z x 2.3.3.3.1.C C 1.3.1.1.3.1.Z 3.3.3.1.3.3.A V g 0 ( Q l.E.^.!.L.S.j.g.i.9.X.X.X.X...X.X.X.X.X.X.X.X.X.0.d.j.S.k.e.Q L t v h Z 3.3.3.2.2.3.3.1.Z 2.3.3.Z C z ",
"2 z x x 2.3.3.2.z j Z 3.1.Z 3.1.Z 2.1.Z 3.3.3.C g g g 0 y Q l.E.^.Q.H.G.G.j.i.o.X.8.8.X.9.9.X.9.o.9.9.X.X.8.f.S.D.r.Y % p B h h C 1.3.3.3.3.3.3.3.3.3.3.3.Z C z ",
"2 x 1.2.3.3.2.2.3.1.Z 3.1.1.1.3.3.1.C 3 Z 3.2.d 8 k V g 0 % Q E.E.J.k.F.L.K.S.d.d.f.f.f.d.d.s.g.d.f.f.s.o.o.e.t.t.R # e w h D g s z 2.3.3.3.3.1.Z Z Z Z Z 2.Z C ",
"z x 3.1.2.3.3.2.3.3.3.1.2.1.2.3.3.Z 3 2 C C x s w w g f 9 6 ( Q Q / ~ t.H.L.K.G.G.S.G.G.G.G.G.G.G.H.H.S.=.T Y R Q L t 7 w g g q s z Z 1.x x 1.3.Z 2.2.3.3.3.Z Z ",
"3 1.2.C Z 3.3.2.3.3.2.Z Z 1.3.3.3.x x C x C j d s g g g g w i L X G P ! k.F.F.D.D.D.D.D.D.D.D.D.D.F.F.a.=.P X X @ t w w w w w f N Z Z Z Z Z 1.3.3.3.3.3.2.3.1.x ",
"x C C 3 C Z Z 1.1.C j j 3 C 2.3.3.2.1.Z Z 2.3.1.A V g D D V g i r r u _ Q e.r.^ ^ ^ r.^ ^ ^ ^ ^ r.r.r.^ W y r t t w g g g g V A Z 2.2.2.3.3.3.3.3.3.3.1.x 2.1.x ",
"z x 1.C 3 C C Z C C C Z j 3 1.3.3.3.2.1.Z 1.2.3.2.A V V g g g g 9 q 0 u P U U U U U U U U U U U U U U I L i f g B g B g w M C 2.3.3.3.2.Z 1.2.3.x x 2.x z x x z ",
"3 Z 3.2.Z Z Z C C C 1.2.C 3 Z 3.3.2.3.2.Z Z 1.3.3.3.Z N w w g V s s g 0 r O O + + + + O + + O + O O O + 5 q V V V B B g s C Z 2.3.3.3.2.Z Z 2.2.x x x 1.x 3 z x ",
"x Z 1.3.3.3.1.Z 2.C 3 3 3 z 3.2.1.1.2.3.3.3.3.1.Z 3.Z A V V D B V V V g a i 0 a a q q a a a a w 0 6 6 6 0 w V h B a B V Z 3.3.Z Z 3.2.3.3.3.3.3.3.3.3.3.3.x x x ",
"z Z 2.3.3.3.3.3.3.2.Z Z Z 1.3.3.1.Z 1.3.3.1.1.1.1.2.1.Z C g V h g B k B B B B B g g B B B k g k V k g k w k h V V s h C 2.Z Z 2.3.1.Z 2.1.2.3.1.3.2.1.3.3.2.1.x ",
"z 1.3.2.1.1.2.3.3.3.3.3.3.3.3.3.2.z Z Z Z C C 3.3.Z Z C 2 2 2 d s f w g V g B V B B V V g V V V V V V D D B B A C 1 N z C C A 3.3.Z Z Z C C Z Z Z x x 1.3.1.x x ",
"z x x 1.3.3.1.Z 1.2.3.3.3.3.3.1.Z Z C z C C 2.3.1.C C Z Z z N C 2 1 g g g g h M V s g s V V h s h h V V B V C C Z C z C C Z 2.3.1.C C C Z Z C C z x x 1.2.2.x 3 ",
"z x 1.2.2.1.Z Z Z 1.Z Z 3.3.2.Z A 1.Z C x 1.3.3.2.3 3 C Z C j j 2 2 C V C V C C V A C N C h j h j j j s A A Z Z Z 2.Z C Z 2.3.3.1.3 z C Z C j 3 3 3 1.1.1.1.x 3 ",
"3 x 3.3.Z z C Z 1.1.C C Z 3.2.2.3.3.2.2.3.3.2.3.2.C j 3 3 3 3 3 3 z Z 2.1.1.1.1.1.1.3.3.1.3 C 1.2.Z j h Z 3.2.2.2.3.2.2.3.3.2.3.2.C j 3 3 3 3 j 3 x 1.2.1.1.x 3 ",
"z Z 2.1.x 3 3 C 3.3.2.2.3.2.Z 1.3.3.3.3.3.3.2.3.3.2.C 3 3 3 Z 1.Z Z 1.1.2.3.3.3.2.2.3.Z j 3 3 C 3.3.3.2.3.2.Z 2.3.3.3.3.3.3.2.3.3.2.C 3 3 3 Z Z x x 1.2.2.2.1.x ",
"z x 2.2.Z C z 1.3.3.3.3.2.2.2.3.3.3.3.3.3.2.x 3.3.3.1.C 3 Z 1.2.2.2.2.1.1.2.3.3.2.3.2.2.Z Z j Z 3.3.3.3.3.2.2.3.3.3.3.3.3.1.Z 2.3.3.1.C x Z 1.2.2.3.1.1.1.3.1.z ",
"3 x 3.3.3.3.3.2.3.1.Z C 1.3.3.3.3.2.2.2.1.Z j 2.3.3.3.3.3.3.3.3.3.3.3.2.Z 1.2.2.2.2.3.3.3.3.2.3.3.2.Z Z Z 3.3.3.3.2.2.2.1.Z x 1.3.3.3.3.3.3.3.3.3.3.3.1.1.1.x 3 ",
"3 3 1.3.2.Z 2.3.2.1.Z C 1.3.3.3.1.Z Z Z 2.3.2.x Z 3.3.3.3.3.3.3.3.2.Z 1.2.C x x Z Z 1.3.1.Z 2.3.1.1.1.C A 3.3.3.1.1.x Z 2.3.2.Z Z 3.3.3.3.3.3.3.3.1.1.1.1.x 3 2 ",
"3 x 2.3.1.x 1.2.3.1.C z 1.2.2.1.Z 1.Z Z 3.3.2.Z 1.3.3.3.3.2.2.3.2.2.Z 3.3.Z Z Z 2.Z 2.3.1.C Z 2.2.1.Z j 1.2.3.1.Z 1.Z Z 3.3.1.x 1.3.3.3.3.1.1.3.3.1.1.3.3.x 3 2 ",
"3 1.3.3.2.1.x 1.3.1.C x x C x x Z 2.3.3.1.3 3 2.3.1.3.3.3.1.3 2.2.3.3.3.3.2.3.3.3.3.3.3.3.Z C 3.3.Z j C C C Z j x 2.3.3.2.z z 2.2.1.3.3.3.1.3 2.1.3.3.3.3.2.1.3 ",
"3 x 2.3.1.x 1.1.1.2.x 3 1.2.1.x 1.2.1.Z x 1.2.3.x j 2.3.3.1.Z 2.3.3.2.x x 3.3.3.2.1.2.2.1.Z 1.1.2.1.Z 3 1.2.x 1.1.2.1.x 1.1.2.2.1.Z 2.3.3.1.Z 2.3.3.2.x 1.3.1.1.",
"3 x x 1.1.2.3.2.x 3.3.x 1.3.3.2.1.3.Z x 1.3.3.1.3 1.1.3.3.2.1.3.3.2.1.3 x 3.3.3.1.1.Z 1.1.1.3.2.1.2.2.Z 2.3.3.2.2.2.1.x Z 3.3.Z 3 Z 1.3.3.2.1.3.3.2.2.3 3 3.1.3 ",
"3 z x 1.2.3.3.3.3.3.3.3.x Z 3.2.2.3.3.1.2.1.Z 3 1.1.1.3.3.3.2.3.2.1.1.1.2.3.1.Z 1.1.Z Z 1.3.3.3.3.3.3.3.1.x 3.1.1.3.3.1.1.1.Z 3 3 1.1.2.3.2.2.3.2.1.1.1.3.3.3 2 ",
"3 3 z x x 2.2.3.3.3.3.1.x x 3.3.3.3.2.2.2.2.Z 3 Z 2.x x 1.j Z 3.3.2.1.1.3.3.x x 1.Z z z Z 3.1.3.3.3.3.1.x x 3.3.3.3.2.2.3.2.Z x 1.3.Z C 1.Z Z 3.3.2.1.1.3.3.3 < ",
"3 3 3 3 x 1.1.1.3.3.2.x 1.1.3.3.2.2.1.2.3.3.2.Z 1.3.2.j 3 3 1.3.3.3.1.2.3.3.1.C 1.Z z z C Z Z 1.3.3.2.x 1.1.3.3.3.1.2.1.3.3.1.Z 1.3.1.C x C Z 3.3.3.1.3.3.3.3 2 ",
"x 3 3 3 x 3 x 1.2.3.1.1.x 1.2.1.C C x x 3.3.3.1.2.3.3.3.3.3.2.1.3 x 3.3.3.2.2.3.3.Z l z C 3 Z 2.2.3.2.1.1.1.2.1.C C C Z 3.3.2.1.1.3.3.3.1.3.2.1.3 x 3.3.3.1.1.3 ",
"2 2 3 3 3 3 x x 3 3 3 x x x x x C x x C 3 1.Z 1.Z Z 1.1.Z 2.Z 3 2 2 Z x 3 3 Z Z Z z 3 z z C z x 3 3 3 3 3 x x x x x C C Z Z Z 1.Z 1.1.1.C 1.1.Z 3 2 x x 3 3 3 3 ",
"< 1 3 3 x x 3 3 3 2 3 3 z 3 2 3 x x C x 2 3 3 Z 3 3 3 3 3 3 3 x 2 2 3 2 < 2 2 z z 3 2 3 z C z 2 3 2 3 3 3 3 3 3 x z x C 3 2 3 x 3 3 3 3 3 3 3 x 2 2 3 2 < < < < "
};
