/* XPM */
static char *Group_9_4__resized[] = {
/* columns rows colors chars-per-pixel */
"80 80 215 2 ",
"   c #2C3B1B",
".  c #281F38",
"X  c #1F3526",
"o  c #2A382B",
"O  c #2B2C32",
"+  c #2B3435",
"@  c #2C3B34",
"#  c #2E353B",
"$  c #2D3D3A",
"%  c #333D36",
"&  c #313C3B",
"*  c #2C4A1D",
"=  c #364C1E",
"-  c #2E5219",
";  c #34531E",
":  c #38561D",
">  c #355D1D",
",  c #3A5D1D",
"<  c #37621B",
"1  c #3A641D",
"2  c #3C6D1D",
"3  c #3F711F",
"4  c #2E4627",
"5  c #3A4723",
"6  c #324C24",
"7  c #31452A",
"8  c #334A2B",
"9  c #335324",
"0  c #385727",
"q  c #3B5C23",
"w  c #35532C",
"e  c #3A5D2C",
"r  c #2E4334",
"t  c #314532",
"y  c #344C33",
"u  c #364839",
"i  c #375535",
"p  c #3A5B32",
"a  c #376120",
"s  c #3B6323",
"d  c #3E6C22",
"f  c #3D642C",
"g  c #3F692A",
"h  c #3F7220",
"j  c #3E6331",
"k  c #3E663E",
"l  c #416B1F",
"z  c #41751F",
"x  c #43781F",
"c  c #434629",
"v  c #445A28",
"b  c #474D34",
"n  c #514D37",
"m  c #4C5B34",
"M  c #416D25",
"N  c #45642B",
"B  c #416B2D",
"V  c #417620",
"C  c #457C21",
"Z  c #457828",
"A  c #476534",
"S  c #416A31",
"D  c #596C3F",
"F  c #2C2947",
"G  c #2D2E44",
"H  c #312E4D",
"J  c #2E3045",
"K  c #2D3846",
"L  c #323A42",
"P  c #363648",
"I  c #372E5B",
"U  c #2F3850",
"Y  c #363354",
"T  c #383956",
"R  c #34335B",
"E  c #343B5D",
"W  c #353C63",
"Q  c #383A66",
"!  c #423B4E",
"~  c #463B66",
"^  c #463974",
"/  c #4E3F7E",
"(  c #523C71",
")  c #374548",
"_  c #344A4E",
"`  c #354354",
"'  c #374559",
"]  c #354362",
"[  c #3A426B",
"{  c #384869",
"}  c #364C74",
"|  c #3A4B74",
" . c #3C4977",
".. c #364F7B",
"X. c #3E5376",
"o. c #35537C",
"O. c #39537E",
"+. c #4C4649",
"@. c #5B5641",
"#. c #4F4F59",
"$. c #625D43",
"%. c #596442",
"&. c #5B6845",
"*. c #646D4C",
"=. c #6D6D56",
"-. c #756B5A",
";. c #6C7157",
":. c #74765D",
">. c #4A4374",
",. c #405677",
"<. c #41537B",
"1. c #4A6D71",
"2. c #7A7463",
"3. c #7A7A64",
"4. c #837B6C",
"5. c #478022",
"6. c #498423",
"7. c #4C8A24",
"8. c #84856D",
"9. c #8A8674",
"0. c #928F7A",
"q. c #4F3F80",
"w. c #375583",
"e. c #395481",
"r. c #3B5885",
"t. c #3C5985",
"y. c #3E5D89",
"u. c #3E608B",
"i. c #494683",
"p. c #534284",
"a. c #55468C",
"s. c #415A84",
"d. c #44568C",
"f. c #435A88",
"g. c #5C4C98",
"h. c #4D5795",
"j. c #4A5B95",
"k. c #4C5995",
"l. c #55579D",
"z. c #6C4980",
"x. c #664A98",
"c. c #754995",
"v. c #476488",
"b. c #42628D",
"n. c #436591",
"m. c #456A95",
"M. c #4A6995",
"N. c #476D99",
"B. c #486F9B",
"V. c #556D90",
"C. c #47729E",
"Z. c #49719D",
"A. c #5758A0",
"S. c #5B5BA4",
"D. c #6453A5",
"F. c #6F51A8",
"G. c #6956AC",
"H. c #625BAA",
"J. c #6858AA",
"K. c #6A5DB3",
"L. c #755DB8",
"P. c #4B75A1",
"I. c #4D7AA6",
"U. c #4E7CA8",
"Y. c #517AA6",
"T. c #527CA8",
"R. c #7362B9",
"E. c #8A55B2",
"W. c #975CC3",
"Q. c #8C64C9",
"!. c #9661C8",
"~. c #9866D2",
"^. c #A261CF",
"/. c #A465D6",
"(. c #7C8299",
"). c #5D84A6",
"_. c #5282AD",
"`. c #5487B1",
"'. c #568BB5",
"]. c #578DB7",
"[. c #588FB9",
"{. c #5690BA",
"}. c #5992BC",
"|. c #6691B9",
" X c #5B96C0",
".X c #5D99C3",
"XX c #619EC8",
"oX c #64A3CD",
"OX c #65ABD4",
"+X c #68ADD6",
"@X c #77B4DB",
"#X c #70BBE4",
"$X c #74C3EB",
"%X c #77CAF2",
"&X c #7ED3FA",
"*X c #868588",
"=X c #9B9787",
"-X c #A19A89",
";X c #A69E91",
":X c #A9A18E",
">X c #ABA595",
",X c #B2AC9B",
"<X c #B5AFA3",
"1X c #BAB6A6",
"2X c #C0B8A4",
"3X c #C0BCAC",
"4X c #C5BFB4",
"5X c #CBC5AE",
"6X c #CAC5B7",
"7X c #8CD0EE",
"8X c #D3CEC1",
"9X c #DAD6C7",
"0X c #EAE8DC",
"qX c #F1EFEA",
"wX c #FBFAF6",
/* pixels */
"- < z 2 3 3 3 z z 2 2 z x x z > r { ].7X7X|.X.i 9 h C h 3 2 2 3 3 3 x 3 3 C x 2 < 2 z 2 2 z 3 3 z 2 2 z 3 x x 3 3 x x 3 3 2 3 x x z z z z 2 2 2 z z x 3 3 x 2 > ",
"1 2 z z z x 3 3 3 3 z x x x z < 8 _ ).@X@X).' w < h 3 h 3 h C C C C 3 3 3 x 5.C V z 3 z z z 3 3 z 3 z x C V x 3 3 x 3 3 3 3 z x z 3 z 2 2 V C C C V z 3 z x z 2 ",
"x x z x C C 3 3 3 x x C C C C 3 a p 1.).).1.k a 2 h h 3 h 6.7.7.6.6.3 3 3 C 6.7.7.6.V C 5.C 3 3 3 x x 5.C C C h h C 3 3 3 C C V z 3 2 l V C 7.7.6.6.z 2 z C x x ",
"z x 6.7.6.6.z z x x x 5.6.6.7.6.6.h p _ _ S 5.5.h 5.5.6.6.5.5.6.6.6.6.x 3 5.6.5.C 6.6.7.6.5.x z x 3 x 5.6.7.7.7.6.6.h 3 C 6.7.6.6.C 6.6.6.6.6.6.6.6.6.V x 6.x l ",
"z z 5.5.6.7.6.6.5.C C 5.7.7.6.6.7.6.h w 9 Z 7.7.7.7.7.7.6.5.C 5.C C 6.6.5.5.6.6.5.5.5.5.6.6.6.5.6.x C 5.7.7.7.6.6.6.6.6.6.7.7.7.7.6.7.7.7.C C C C C 7.C C C x z ",
"z z z z 5.7.7.7.6.6.5.6.7.7.C C C 7.6.C C 6.7.7.7.7.7.7.6.V C C h h 6.7.6.C 6.6.6.C z V 6.7.7.7.6.6.6.6.7.6.C C 6.6.7.7.7.7.7.7.7.7.7.7.C C C C 3 z 7.7.7.C z z ",
"2 l z x x x 5.C C V h C V C 6.6.7.6.5.V V C 5.6.6.7.7.6.6.C 3 h 3 2 5.7.6.5.x V 5.x 3 C 5.C 5.C C C x V V 5.6.6.6.7.C V V 5.6.6.7.7.7.7.7.V x V 2 3 C 7.7.C 2 1 ",
"2 2 z 5.5.z z z h 3 h h h h C 6.6.5.C C V V V z 5.7.7.7.6.6.6.5.C V 6.7.7.V 3 3 5.V z 5.C 3 z 3 3 3 3 3 3 h C 6.6.5.C C C V C h C 6.7.7.7.6.C 6.C x 6.7.7.V 2 < ",
"3 3 3 5.5.3 3 3 3 3 3 3 3 3 3 h 6.x 6.7.7.5.z 3 x 7.7.7.7.7.7.7.6.6.7.7.6.d z C C C x C C 3 3 3 3 3 3 3 3 3 3 h 6.5.6.7.7.5.3 3 V 6.7.7.7.7.7.7.6.6.7.7.6.2 2 2 ",
"2 3 3 5.5.h 3 3 3 h 3 3 h 5.h 6.6.5.7.7.7.6.C 6.7.7.7.7.6.6.7.6.C z V 5.7.C 6.7.C V z C C V 3 3 3 h 3 3 h 5.h 5.6.5.7.7.7.6.5.6.7.7.7.7.6.6.6.6.C V V 6.6.6.C x ",
"3 3 h 6.6.5.h h V C C C 5.6.6.7.7.6.7.7.7.6.6.7.7.7.7.7.C C 6.6.h 2 3 5.7.6.7.7.6.C x 5.6.6.V z h 5.5.h 5.5.6.7.7.6.6.7.7.6.6.7.7.7.7.6.C C 6.6.V 2 2 C 7.6.x x ",
"x 3 3 7.7.7.5.h 6.6.7.7.6.6.7.7.7.6.6.7.C 5.6.6.C 7.7.C z 6.7.7.V 2 3 5.7.V C 7.7.C z 7.7.7.C V 5.7.7.7.6.5.7.7.7.5.7.7.h 5.6.5.6.7.7.6.z 6.7.7.V 2 3 6.7.z z x ",
"3 3 x 5.7.7.7.5.3 C 6.7.5.C 7.6.C 7.6.6.6.7.7.6.7.7.7.7.6.6.7.7.6.5.7.7.7.C C 6.C C V C 7.7.7.5.3 5.6.7.5.C 7.6.5.6.6.6.7.7.7.6.6.7.7.7.6.7.7.7.5.C 6.7.7.x z l ",
"2 3 x 5.7.7.7.5.3 h C 7.5.C 6.C C 6.6.C 7.7.7.6.6.7.7.7.7.7.7.7.6.7.7.7.6.6.C 6.C V C C 6.7.7.6.3 3 5.7.5.5.6.5.5.6.6.5.7.7.7.6.6.7.7.7.7.7.7.6.6.7.7.7.7.C V z ",
"3 x 5.7.7.7.6.6.7.5.C 7.5.5.6.7.7.6.z 2 V 7.7.V V C C 7.6.7.6.6.C V C C C C 7.7.6.6.6.7.7.7.6.6.7.5.5.6.6.5.6.7.6.6.3 3 5.7.7.h V C 6.6.7.7.6.6.C C 6.C C 7.C x ",
"3 x 7.5.6.7.6.7.7.7.6.5.6.6.6.7.7.C z l V C C V V V C C V 6.C V d 1 2 C 6.7.7.7.6.6.7.C 6.7.6.7.7.6.6.6.6.6.6.7.7.3 3 3 3 3 3 1 1 V C C C C 6.6.6.6.6.6.7.7.C x ",
"3 x 6.x C 7.6.6.6.7.6.V 5.6.7.7.7.V z z z V V V C C C C V C h a 6 7 6 d x 7.7.7.C 6.6.x C 7.6.6.6.7.6.5.C 6.6.7.7.V z V z 2 : = 1 V C C V C 6.7.7.7.7.7.7.7.C x ",
"x x x 3 z C C 5.6.V 3 h 3 V 6.7.7.7.6.x 5.6.7.6.6.7.6.7.7.6.g r P Y L 7 1 7.7.7.7.6.C l z C C 6.6.h 3 3 3 V 6.7.7.7.6.C C M v b v z C 7.7.7.7.7.7.7.7.x V 6.6.x ",
"z x 6.x z V C C C V V C 3 3 5.6.7.7.6.6.C C 6.7.7.7.7.6.l s u ` | <.,.) w s x 7.6.6.C C V C x x 5.h h 5.h 3 5.7.7.6.6.V 1 D 3.4.;.N h 5.6.6.6.6.C x C x z V x x ",
"3 x 7.5.C C C x V V C 6.V 3 5.7.7.6.6.7.C C 6.7.7.7.7.V ; r ` X.B.T.B.,.) 4 1 5.C C 6.C V z x x 3 h C 5.h 3 5.7.7.6.x 2 5 :.<X6X=X%.B h z x 6.6.x x C 6.C z l x ",
"V C 6.6.7.7.6.6.6.V 3 h 2 V 7.6.6.5.6.7.7.7.7.6.5.6.7.V 7 P { b._.{.`.M.[ O = l V l 2 2 l 2 2 1 < 2 2 d 3 z 7.6.6.6.z , c 9.9XqX9X;X*.m V 6.7.7.7.7.7.7.7.C C x ",
"x C 6.7.7.6.6.6.7.6.C C C 6.7.7.6.C 5.6.6.6.C 6.6.6.6.s 4 Y  .y.I.`.T.v.E . O 4 8 8 7 7 8 8 7 @ 4 9 1 C 5.6.7.7.6.x l , c 4.9XwXwX9X=X*.v l V 6.6.7.6.7.7.6.x x ",
"3 x 7.6.5.6.6.7.7.7.7.7.7.7.7.7.6.z C 5.V z x 6.7.C C 1 4 L W } b.C.P.s.E F F J J J J F F F F H H t s C 6.6.5.7.6.z 1 q n 4.3X0XwXqX5X8.c : 2 C x x V 6.7.6.C x ",
"x x C 6.6.7.6.C C 7.7.7.7.7.6.6.C V V V z C 6.7.5.V V z d w @ U | b.N.f.X.[ Q { ,.<.<.,.<.X.X.X.O.' y 9 = ; 2 V z 2 q D 9.>X2X3X6X8X;X;.5 , 2 V z z C C 6.C x z ",
"z x 6.6.6.5.5.C C C C C 6.7.6.C C 6.C V C C 7.7.C M 2 z h < 4 + ] s.N.N.m.b.b.n.Z.Y.T.T.T.T.T.T.).v.' % $ r w a 2 , D 9.3X2X-X3.4.4.=.A l l 2 3 3 3 5.5.5.6.x 3 ",
"3 x 7.7.5.3 3 5.6.5.V h C 7.6.6.6.7.6.6.7.7.7.7.6.V 1 > < q 6 + E s.Z.P.I.I.I._.'.}.}.}. XXXOX+XOX'.n.[ [ ] ) w s m 8.1X9X1X3.c   5 = < 2 l 3 z 3 3 6.6.5.6.x 3 ",
"3 C 6.5.x 2 3 x 7.7.7.6.7.6.5.6.7.7.7.7.7.7.6.7.7.C 6 o o @ $ U | b.Z.P.P.I._.`.'.}.}.'..X+X$X%X$XoX_.n.N.b.] r b 2.,X5X,X4.A l 1 1 < 1 2 z x z x 5.x 6.6.6.5.3 ",
"z C 6.6.5.x 3 5.7.7.7.6.6.6.5.7.7.7.7.7.6.6.C C Z j u K H J Y { t.m.Z.Z.P.I._.'.'.'.'.'.}.+X$X&X&X#XoX}.}._.y.] #.*X,X>X:.m q x 6.5.x x x x 6.6.6.6.6.5.5.7.5.x ",
"z x 6.7.7.7.6.7.7.6.C V 6.6.7.7.7.6.6.6.5.C h 1 w ) { X.[ R E O.m.C.Z.Z.Z.I.`.[.}.'.'._.].XX#X%X7X&X%X#XOX.XU.n.V.(.(.;.v , 2 x 6.7.6.7.6.7.7.7.7.7.7.6.5.5.3 3 ",
"2 z 6.7.6.x 6.6.6.5.5.V 6.7.7.6.5.V x V 6.7.C ; @ ' s.b. .R W s.C.P.Z.N.B.I._.'.[.'.'.'.'.'..XOX%X&X&X$X+X.X].`.P.v.#.8 N x 5.x 5.7.7.7.7.7.7.7.6.6.5.6.6.3 3 2 ",
"3 x 6.6.6.x 5.6.6.5.V V 5.6.6.V 2 , 1 3 6.6.5.a y ' X.t.| W | b.P.I.Z.N.Z.P.T._.'.'.[.]._._.`..XOX$X$X#XoX.X}. X_.<.G   z 7.6.x 5.6.7.7.7.6.6.6.6.6.x 6.7.5.3 3 ",
"z 5.7.7.6.5.x 5.7.5.h V x x z 2 , 5 , l 5.z 3 6.d w _ ' {  .e.m.I.I.Z.B.Z.Z.P.I._.'.}.].'._.'.{..XXXoX.X}.}.}. XT.<.L   l x z 6.6.6.7.7.7.x x 6.6.7.7.7.6.6.5.x ",
"z x 6.6.6.C C 6.5.5.x z 5.5.2 N *.3.*.v , l l l 1 = O F Q e.u.m.N.C.P.Z.Z.Z.Z.Z.I._.'.'.'.{.'.'.'.].].].].].}.]._.s.` @ q 3 C 5.5.V 6.7.7.5.C 6.7.7.6.5.5.6.6.x ",
"3 z 5.6.5.6.6.6.5.6.6.x 6.x , *.0.3X=X*.: : v v q = O F Q e.u.y.n.B.Z.C.Z.Z.N.Z.P.I._.'.'.[.'.'._._._.'.'.].]._.Z.M.X.` r e V x C V 6.6.7.6.6.7.6.6.5.x 3 7.6.3 ",
"2 z x C 6.7.7.7.7.7.7.7.x 1 = -.1X0X6X9.@.n $.$.@.n P P W w.w.w.t.n.C.C.Z.Z.Z.Z.B.P.I.`.'.'.'.'.'._.'.'.].]._.Y.Z.I.m.,.E r ; 2 C 5.C 6.7.6.6.7.6.5.x 6.7.7.3 2 ",
"3 z z z C 6.6.6.7.7.7.6.x z l D 8.,X3X2X>X;X:X:X=X4.#.T E o.w.e.e.f.n.N.Z.Z.Z.Z.N.B.P.U._._._._._._._._._._.I.Z.Z._.Z.f.Q # * d 5.6.C C 5.C 5.6.7.6.5.5.7.7.3 < ",
"3 3 3 3 z C C 5.7.7.6.x C C C l m 2.>X9X0X0X9X9X4X-X4.n ` } w.e.O.O.t.m.Z.Z.P.Z.B.Z.Z.P.I.P.I.P.P.I.Z.I.I.Z.Z.Z.Z.U.Z.s.Q & ; 2 5.6.5.V V C 5.6.6.7.6.6.6.7.3 2 ",
"x z 3 z x 3 C 6.7.6.6.5.C C C N m ;.;X8X0X0X9X9X4X-X4.! ` } w.w.O.O.O.t.b.Z.Z.Z.Z.P.Z.B.B.Z.N.B.Z.B.N.Z.Z.Z.N.Z.P.U.B.s.R % q V 6.7.7.7.6.6.6.C x x 6.7.7.6.5.x ",
"x z z x 5.5.6.x 5.6.5.5.6.V q D 8.>X<X<X;X-X-X-X4.-.n P ] ..w.e.O.O.O.O.t.m.Z.Z.P.P.Z.Z.N.N.N.B.N.N.B.N.N.N.Z.Z.P.I.m.<.R & > C 7.6.6.6.6.6.6.6.z x 6.6.5.x x x ",
"3 x 6.6.6.6.6.6.x x x 5.6.z = =.>X9X1X8.@.n @.$.@.+.! ! Q o.w.e.e.O.O.O.O.t.n.Z.Z.B.C.Z.Z.Z.Z.B.Z.B.Z.Z.Z.Z.Z.Z.P.I.Z.s.W # 9 C 6.5.5.6.5.6.6.7.x x 6.C 3 x 3 3 ",
"< z 7.C 6.7.6.6.6.C C 6.7.C 1 &.9.,X0.D 0 : : = % ! ~ ^ i.w.w.w.O.O.e.o...r.y.b.n.n.m.B.P.P.Z.Z.Z.Z.Z.Z.Z.Z.Z.Z.P.U.P.y. .E r 0 V C 7.6.6.C C 5.6.6.7.5.5.7.C 2 ",
"2 z C x C C C C 5.5.C 6.6.C 3 B %.=.%.q < 1 ,   # Q q.D.A.r.o.o.e.e.e.O.o.e.r.r.e.r.f.N.Z.Z.Z.Z.Z.Z.Z.C.Z.Z.Z.Z.P.P.P.n.e.{ U $ 9 d V C C C 6.6.6.6.C x C 6.5.x ",
"x z z x 6.C z 2 3 3 h 5.C 5.h 2 ; = = > 3 x z * # ^ D.K.S.y.o.w.O.e.e.e.e.e.e.o...O.t.b.N.C.Z.P.Z.Z.Z.Z.C.Z.Z.m.n.n.m.u.y.O.[ J o 1 2 z V 6.7.7.7.5.z 2 3 5.x x ",
"z x 7.7.6.C z z 5.x 3 5.6.6.7.6.z 2 , 1 C 6.C ; # ^ g.J.A.w.o...O.e.e.O.o.e.e.o...o.e.t.f.m.P.P.P.P.C.P.P.P.N.b.y.y.y.y.t...[ J 7 2 C 6.6.C 6.6.6.6.6.x z 5.x 3 ",
"2 V 6.C 6.7.6.C 6.C C 5.7.7.6.6.5.5.5.6.6.7.6.9 L >.F.L.J.h.e.e.e.o.e.e.O.e.O.O.e.e.O...r.n.N.B.B.m.N.N.Z.N.n.t.O.O.O.t.t...Q J 8 M 6.7.7.C C C C C 7.6.C 5.V 3 ",
"z z z V 6.7.7.7.6.6.6.5.7.6.5.C 5.6.7.7.7.7.C - L p.E.~.Q.H.d.e.e.O.O.e.O.e.e.e.e.e.O...e.r.b.n.b.b.b.b.b.b.t.e.o.o.O.w.t.e.[ J 8 V 6.7.6.C C V 3 h 6.7.6.C x x ",
"2 3 z C C C C C 5.h C h h 5.5.6.6.6.5.3 C 5.h - % ( E.^.~.K.l.r.O.o.o.e.e.O.e.e.e.o.e.O.O.e.e.e.e.e.e.e.e.e.t.O.O.O.O.e.e.} Q # 6 V 6.7.6.V V C 2 2 C 7.7.C 2 2 ",
"2 2 z 6.C z V z h 3 h 3 3 3 5.6.6.6.5.h Z h h < c #.( F.W.L.A.d.o.o.e.e.e.e.e.O.e.e.e.e.e.O.O...O.O.O.o.O.o.o.O.w.O.o...} E ) 7 q C 7.7.7.6.C 6.C C 6.7.6.3 2 < ",
"2 2 x x C 3 3 3 3 3 z 3 3 3 3 V 6.5.6.7.6.6.3 3 2 e ) ( D.G.S.d.o.o.O.o.e.e.e.e.O.w.O.t.w.O.O.O.O.O.e.o.O.O.O.e.w.w.o.} E L 4 > M 7.7.7.7.7.7.7.6.6.7.7.6.3 2 3 ",
"2 z x x C z 3 3 3 3 3 3 V C V 5.6.6.6.7.7.6.5.6.V a o Y g.E.L.A.r.o.o.o.o.o.o.e.O.O.O.O.O.O.w.O.e.O.e.e.e.e.o.o.w.b.h.<.I # 9 V 7.7.7.7.6.C 6.7.x x V 6.6.6.C 3 ",
"3 l x 5.6.6.z z z C C V C 6.6.7.7.6.7.7.7.6.6.6.Z f X H z.!.~.L.h.e.o.o.o.o.e.e.t.O.O.O.O.w.w.O.e.e.e.e.e.o.o.O.t.A.l.i.I & 9 Z 7.7.7.7.x x 6.6.3 2 l C 6.6.C x ",
"x z x 7.7.7.C x 6.6.7.7.6.6.7.7.7.6.6.7.5.5.6.3 g i + ! c.^./.!.G.h.d.r.e.e.e.o.O.O.t.O.O.O.O.O.e.e.o.O.e.O.e.e.d.S.D.p.I L y f V 7.7.C x 6.7.7.V 2 l 7.7.x z z ",
"3 3 x 6.7.7.7.5.3 C 6.7.5.C 7.6.C 6.7.6.6.7.6.V g p i ) >.c.E./.~.R.S.A.h.d.e.o.o.o.o.o.o.o.o.o.o.o.o.o.o.w.j.j.S.g.p.~ ) u p f Z 6.7.7.5.7.7.7.6.C 6.7.7.C z 3 ",
"2 3 x x 6.7.7.6.V h C 7.5.C 6.5.5.6.6.C 7.7.7.h g j j i b ~ c.E./.Q.K.H.G.A.h.e.o.o.o.o.O.t.O.O.e.o.e.e.o.t.k.S.D.p.Q L i A S B Z C 6.7.7.7.7.6.6.7.7.7.6.C x l ",
"z x 5.7.7.7.6.6.7.5.C 7.5.5.5.7.6.6.3 3 Z 6.7.d e j g s w r ~ E.E.E.x.D.K.K.S.k.k.k.M.k.k.h.h.h.h.k.k.j.O. .i.a.a.~ L 4 e B S e s V 6.7.7.7.7.5.C C C 6.6.C C C ",
"3 x 7.5.7.7.6.6.7.7.6.5.6.6.6.7.7.C 3 3 x C C a q e j f 9 8 ) ~ ( ^ ^ a.G.R.R.H.S.H.H.H.H.H.H.H.H.K.K.A.i.W R Q ~ L t 9 e f f 0 a z x 6.x x 6.6.6.6.6.6.7.7.6.z ",
"3 C 6.V C 7.6.6.6.7.6.V 5.6.7.7.7.x x V x x h d s f e f f e i L G . K ^ a.G.G.H.G.D.D.D.D.D.D.D.G.J.J.g.^ Y O G L t e f e e e s M C C C C C 6.7.7.6.7.7.6.6.6.x ",
"x C V 3 V C C 5.6.V 3 h 3 h 6.7.7.7.6.x C 6.7.6.Z B f j S g f w t y u ` >.>.q.q.>.p.q.q.q.q./ p./ p.p.^ T ) t 8 w e f f p f g Z C 6.6.6.7.7.7.7.7.7.7.5.x 6.5.x ",
"z V 5.V V V C C C h V C h h 5.7.7.7.6.6.C 5.6.7.6.C Z S f f f f e w e u P Y R Y Y Y Y Y Y Y Y Y Y Y Y T ) 8 f f j g g f f f V 6.7.7.7.6.C 6.6.6.5.x 5.3 3 x x x ",
"3 C 7.5.C C C V V V 5.6.h 3 5.6.7.6.6.6.C C 5.6.7.6.C d e f j N s s f w t + + @ @ @ @ @ @ + @ + + + + @ 8 e B B S j j f s d C 7.7.7.7.6.x C 6.7.5.3 5.5.5.3 3 x ",
"x C 5.6.7.7.6.5.5.V 3 z 3 x 7.6.6.5.6.7.7.7.7.5.5.6.6.Z V S S S S B B f p w i i p w i p p p p p p y 8 8 w e B g f p f B C 6.6.6.5.6.6.7.7.7.7.7.7.7.7.7.6.5.x x ",
"x C 6.7.6.7.6.7.6.6.5.C C 5.7.7.6.V 5.6.6.6.C 6.6.6.5.C V g f B g f j f S f f N f j g f g f f j N f f f e e B B B f g V C 6.C 6.6.6.6.C 6.6.6.6.6.6.6.7.7.5.x x ",
"z 5.7.6.5.5.6.7.7.7.7.7.7.7.7.7.6.x V 5.V V V 7.7.C C V 2 d d d s s e j B g S B g g B j f g g g B B g S S S B Z V 2 d V V V V 7.7.C C x x x x x x x x 6.7.6.x 5.",
"z x x 6.7.7.5.5.5.6.6.7.7.7.7.5.C x C V V V 6.7.6.z V C C V 3 h d a f f f f g g g g f g g B g f g g g g B B M V V V V V V C 6.7.6.z V C C x x x 3 z x 5.6.6.x 3 ",
"z x 6.6.6.6.C C C 5.C C 6.7.6.5.C 5.C V 5.6.6.7.6.3 3 V C h h h 2 d V M M M V M Z Z d Z h h d h g h g d Z Z Z C C 6.C C C 5.6.7.6.h h V V V h h 3 3 7.5.5.5.3 3 ",
"3 x 7.6.C z V C 6.6.V h C 7.5.6.6.7.7.6.7.6.6.7.6.C 3 3 3 3 h h 3 z 5.5.5.6.5.5.5.5.6.7.5.3 Z 5.6.C h h C 7.5.6.6.7.6.6.7.7.7.7.6.V 3 3 3 3 h 3 3 3 5.6.5.5.5.3 ",
"z x 7.5.x 3 2 V 7.7.7.6.7.6.5.6.7.7.7.7.7.7.6.6.6.6.V 3 3 3 5.x C C C 5.6.7.7.7.6.6.6.5.3 3 3 3 7.7.7.6.7.6.5.6.7.7.7.7.7.7.6.6.7.6.V 3 3 3 C C 3 5.5.5.6.6.5.3 ",
"z x 6.6.C V x 5.7.7.6.6.6.6.5.7.7.7.7.7.6.6.6.6.7.7.6.V 3 5.6.6.6.6.6.5.5.7.6.7.6.7.6.5.5.5.3 5.7.7.7.6.6.6.5.7.7.7.7.7.7.5.C 6.7.7.5.C C x 6.6.6.6.6.5.5.7.5.3 ",
"3 5.6.7.7.7.6.6.6.6.C C 6.7.7.7.7.6.6.6.5.V h 6.6.7.7.7.7.7.7.7.7.7.7.6.C 5.6.6.6.6.7.7.7.7.7.6.6.6.5.V 5.7.7.7.6.6.6.6.6.C z 5.6.7.7.7.6.7.7.7.7.7.7.6.5.5.x 3 ",
"3 3 6.7.6.C 6.7.6.6.C 3 6.7.7.6.6.C C C 7.7.6.V 5.7.7.7.7.6.7.7.7.6.C 6.5.C x x C 5.6.7.6.Z 6.6.6.6.C x 5.7.7.7.5.5.C x 6.6.6.x 5.7.7.7.7.7.7.7.7.6.5.5.5.x 3 2 ",
"3 3 6.7.6.3 5.6.6.6.x x 5.6.6.5.C C C C 7.7.6.C 5.7.7.7.6.6.6.6.6.6.5.6.7.C C C 5.5.5.7.5.3 5.6.6.5.5.3 5.6.6.5.C 5.C 5.6.6.6.x 5.7.7.7.6.5.6.6.7.5.5.6.7.x 3 2 ",
"3 5.7.7.6.5.x 6.7.5.3 3 x x x 3 C 6.7.7.5.h 3 6.6.5.7.7.7.5.x 6.6.7.7.7.7.6.7.7.7.7.7.7.6.5.C 5.7.C 3 x 3 C 3 Z 5.6.6.7.6.x z 7.6.5.7.7.7.5.x 6.6.6.7.7.7.7.5.x ",
"3 x 7.6.5.x 5.6.5.5.x 3 5.6.5.5.6.6.6.x 5.6.6.6.5.h 6.7.7.5.C 6.7.7.6.5.x 6.7.7.6.6.6.6.5.C 5.6.6.5.C 3 5.6.5.5.5.6.5.x 6.6.6.6.5.C 6.7.7.5.C 6.7.7.6.5.x 7.6.x ",
"3 x 5.5.5.6.6.6.5.6.6.x 6.7.6.6.6.6.C x 5.6.7.5.h 5.6.7.7.6.6.6.7.7.x 3 x 7.7.6.5.C 5.5.5.6.6.6.5.6.6.C 7.7.6.6.6.6.5.x C 6.6.C h 5.6.6.7.6.6.6.6.6.6.3 3 7.6.3 ",
"3 3 x x 6.7.7.7.7.7.7.7.x x 7.6.6.6.6.6.5.5.C 3 5.5.5.6.7.6.6.7.6.5.5.6.6.7.6.5.5.C C C 6.7.7.7.7.7.7.7.5.3 7.6.6.7.6.5.6.6.C z 3 5.5.6.7.6.6.7.6.5.5.5.6.7.x 2 ",
"3 3 x x x 7.6.6.7.7.6.6.x x 7.7.6.7.6.6.6.6.5.3 5.5.x x 5.5.5.6.7.6.5.6.6.7.x x 6.C z z C 6.6.6.7.7.6.5.3 x 7.7.6.6.7.6.6.6.C x 5.6.C C 5.C 5.6.6.6.5.6.7.7.3 < ",
"3 3 3 3 x 5.x 6.7.7.6.x 5.5.7.7.7.6.5.5.7.7.6.C 5.6.5.C 3 3 5.7.6.7.6.6.7.6.C V 6.C z 3 V C C 5.7.7.6.3 5.6.7.7.6.7.5.6.7.6.5.C 5.6.6.C x x 5.6.7.6.7.6.7.7.3 2 ",
"x z 3 x 3 3 5.6.7.7.6.6.x 5.6.5.V C x C 7.7.6.6.6.7.7.6.6.6.6.5.3 x 6.7.7.6.6.7.7.x 3 z z V C 6.7.6.6.6.5.5.7.6.x x V C 7.7.6.5.6.6.7.6.5.6.6.5.x x 6.7.7.5.5.3 ",
"2 2 3 3 3 3 x x 3 3 3 x x x x x V x x V h 5.5.5.C C 6.5.C 5.5.3 2 2 C x x 3 C 5.C z 2 z V 3 z x 3 3 3 x 3 x x 3 3 z x x C C C C 5.5.5.5.C C 5.C 3 3 x x 3 3 3 3 ",
"< 1 2 3 x x 3 3 3 2 2 3 3 3 3 3 x z x x 2 2 3 C 3 3 3 3 3 3 3 C 2 2 3 2 < 2 2 z z 3 2 z x V 3 2 3 2 3 3 3 3 3 3 x x x x 3 2 3 C 3 3 3 3 3 3 h V 2 1 3 3 < 1 < < "
};
