/* XPM */
static char *Group_9_5__resized[] = {
/* columns rows colors chars-per-pixel */
"80 80 211 2 ",
"   c #2D3318",
".  c #2E2C22",
"X  c #2A3B27",
"o  c #2B342B",
"O  c #2C3A2C",
"+  c #2A293A",
"@  c #2A3436",
"#  c #2D3B34",
"$  c #2C3638",
"%  c #2C3639",
"&  c #353C34",
"*  c #2D4B19",
"=  c #324C1C",
"-  c #2F5216",
";  c #355619",
":  c #34551D",
">  c #355C1D",
",  c #395C1C",
"<  c #37621B",
"1  c #39651D",
"2  c #3D6D1D",
"3  c #3F711F",
"4  c #2F4528",
"5  c #324D24",
"6  c #3A4C22",
"7  c #324C2D",
"8  c #345423",
"9  c #3C5621",
"0  c #365A24",
"q  c #3A5C23",
"w  c #34532D",
"e  c #375A2A",
"r  c #3A5D2C",
"t  c #2F4237",
"y  c #314332",
"u  c #334B33",
"i  c #33433B",
"p  c #374B3D",
"a  c #365330",
"s  c #395631",
"d  c #3B5B32",
"f  c #3A5338",
"g  c #3B6322",
"h  c #3D6B23",
"j  c #3D642C",
"k  c #3F692B",
"l  c #3F7220",
"z  c #3E6331",
"x  c #406E1F",
"c  c #41751F",
"v  c #43781F",
"b  c #444A2B",
"n  c #45572A",
"m  c #514E36",
"M  c #4C5B34",
"N  c #535739",
"B  c #426423",
"V  c #416D23",
"C  c #43642A",
"Z  c #416B2D",
"A  c #417620",
"S  c #457C21",
"D  c #437229",
"F  c #406632",
"G  c #4C6531",
"H  c #426931",
"J  c #556A39",
"K  c #2D2A47",
"L  c #2E2D4E",
"P  c #2E3644",
"I  c #333947",
"U  c #32344C",
"Y  c #2E2F50",
"T  c #312D52",
"R  c #312D58",
"E  c #313352",
"W  c #393356",
"Q  c #343C52",
"!  c #3B3C52",
"~  c #3A325B",
"^  c #363A5D",
"/  c #383963",
"(  c #463E44",
")  c #44385C",
"_  c #433A67",
"`  c #483C73",
"'  c #3A4646",
"]  c #36435B",
"[  c #36445A",
"{  c #384767",
"}  c #35426C",
"|  c #3C5068",
" . c #3C4B72",
".. c #394975",
"X. c #35537C",
"o. c #3A5479",
"O. c #39537E",
"+. c #52554C",
"@. c #5C6645",
"#. c #656B4D",
"$. c #63714B",
"%. c #6C6955",
"&. c #726A59",
"*. c #6C7456",
"=. c #73765D",
"-. c #544F6F",
";. c #474676",
":. c #43547C",
">. c #676D6E",
",. c #797862",
"<. c #857F6B",
"1. c #478022",
"2. c #498423",
"3. c #4C8A24",
"4. c #898774",
"5. c #928D79",
"6. c #395480",
"7. c #3A5685",
"8. c #3C5A86",
"9. c #3E5D8A",
"0. c #3E618D",
"q. c #3F6596",
"w. c #4E4382",
"e. c #424B80",
"r. c #514184",
"t. c #564489",
"y. c #544A8C",
"u. c #425585",
"i. c #435B85",
"p. c #43578B",
"a. c #445B8B",
"s. c #49598D",
"d. c #5B4A94",
"f. c #5E4B98",
"g. c #4A5794",
"h. c #4A5993",
"j. c #56559A",
"k. c #545B9E",
"l. c #67438D",
"z. c #734895",
"x. c #446183",
"c. c #42618C",
"v. c #436592",
"b. c #466A96",
"n. c #496A94",
"m. c #476E9A",
"M. c #486E9B",
"N. c #556F90",
"B. c #497097",
"V. c #49729D",
"C. c #727891",
"Z. c #5B57A0",
"A. c #5D5BA6",
"S. c #6254A5",
"D. c #6655A8",
"F. c #6758AB",
"G. c #615CAA",
"H. c #6C5AB1",
"J. c #765DB7",
"K. c #4673A4",
"L. c #4B75A1",
"P. c #4D7AA6",
"I. c #4E7DA9",
"U. c #517AA7",
"Y. c #507EA9",
"T. c #7861BC",
"R. c #9457BD",
"E. c #9A5BC3",
"W. c #9363CE",
"Q. c #9767D2",
"!. c #A564D6",
"~. c #4C81AB",
"^. c #5282AD",
"/. c #5486B1",
"(. c #568BB5",
"). c #5889B5",
"_. c #578EB8",
"`. c #588FB8",
"'. c #5790BB",
"]. c #5992BC",
"[. c #5B96C1",
"{. c #5E9AC4",
"}. c #63A3CD",
"|. c #67ABD5",
" X c #6BB3DC",
".X c #70BBE4",
"XX c #75C5ED",
"oX c #78CBF2",
"OX c #7CD1F7",
"+X c #7DD3FA",
"@X c #928E83",
"#X c #9B9384",
"$X c #9A9985",
"%X c #A29A88",
"&X c #ABA697",
"*X c #B0A891",
"=X c #B2AB9B",
"-X c #9E9CA3",
";X c #B5AFA2",
":X c #B8B5A5",
">X c #BAB4A5",
",X c #C2BCAB",
"<X c #CAC4B4",
"1X c #D0CBBB",
"2X c #D3CEC4",
"3X c #D8D4C8",
"4X c #DFDBD0",
"5X c #E2DECC",
"6X c #E2DFD0",
"7X c #E9E7DA",
"8X c #F4F3EB",
/* pixels */
"- < c 2 3 c 3 c c 2 2 c v v c 3 2 2 h 3 2 2 3 1.v v v v 3 2 2 3 3 c v 3 3 S c 2 1 2 c 2 3 3 3 3 3 3 2 c v v 3 v 3 v v 3 3 2 3 v A c v c c 2 2 2 3 c v 3 2 v 2 ; ",
"1 2 c c A A 3 3 3 3 3 v A v c 3 3 l 3 3 2 3 3 A 3 3 3 3 3 l A S S S 3 3 3 v 1.S A A 3 c c v 3 3 3 3 3 v A A A 3 3 3 3 3 3 3 v v c 3 c 2 2 A S S S A c 2 c S c 2 ",
"v v c v S S c c 3 c v 1.S A v v l S l 2 3 S S 3 l l 3 3 l 1.3.3.3.1.c 3 3 S 2.3.3.1.A S 1.v 3 3 3 v v 1.S S S l A v 3 3 3 A S l c c x x A 1.3.3.3.1.c 3 c S v v ",
"c v 2.3.3.S c A v v v 1.2.3.3.3.2.2.l 3 A 2.3.2.1.1.1.2.3.1.1.2.2.2.1.v v 1.2.1.1.1.1.3.2.1.v v v c v 1.2.3.3.3.3.2.3 3 S 2.3.3.1.1.1.2.1.1.2.3.2.2.1.c v 1.v c ",
"2 v 1.1.2.3.1.1.1.S S 2.3.3.3.2.3.2.1.1.3.3.3.3.3.2.3.3.2.1.S 1.S S 3.1.S 1.1.2.1.1.1.1.3.3.1.1.2.v S 1.3.3.3.2.3.2.2.2.3.3.3.3.3.2.3.3.3.S S S S S 3.1.S 1.v c ",
"c c c c 1.3.3.3.2.2.2.2.3.3.1.v 1.3.3.3.3.3.3.3.3.3.3.3.2.A S S l l 1.3.2.S 1.3.2.S c A 1.3.3.3.3.2.2.2.3.3.S S 1.2.3.3.3.3.3.3.3.3.3.3.S S S S c A 2.3.2.S c c ",
"2 2 c v S S S S S A A A A S 2.2.2.2.1.A A S 1.2.2.3.3.2.2.v A A 2 3 1.3.3.S A v 1.v c A S S 1.S v A A S v A 2.3.2.2.1.l S 1.2.2.3.3.3.3.3.A v A 2 x 1.3.3.S 2 1 ",
"2 x c 1.v v v c 3 3 3 l 3 3 S 2.3.1.S S S A A v 1.3.3.3.3.1.1.1.A S 2.3.3.A 3 c 1.A c 1.S c A 3 3 3 3 3 3 3 S 2.2.2.S S A l S 3 S 2.3.3.2.2.2.2.S c 1.3.3.A 2 < ",
"3 3 3 1.1.3 3 l 3 3 3 3 3 3 3 S 2.1.2.3.3.1.c 3 v 2.3.3.3.3.3.3.2.1.3.3.2.h c 1.S A v 1.S 3 3 3 3 3 c 3 l l 2 S 2.1.2.3.3.1.l 3 S 3.3.3.2.3.3.3.2.2.3.3.2.c 2 x ",
"2 3 v v S l 3 3 3 l 3 3 A S l 1.2.1.2.3.3.2.S 2.3.3.3.3.2.2.2.2.S A S 1.3.1.2.2.S A v S S A 3 3 2 l 3 3 A S A S 2.1.3.3.3.2.1.2.3.3.3.3.2.2.2.2.A A S 1.3.S v v ",
"3 3 v 2.2.1.l 3 A S S A S 2.2.3.3.2.3.3.3.2.2.3.3.3.3.2.v 1.1.2.l 2 2 S 3.1.3.3.2.A c 1.2.1.v 3 A S S S S 1.3.3.3.2.2.3.2.2.2.3.3.3.3.2.S S 2.2.A 2 2 S 3.1.v v ",
"v 3 l 3.3.3.S S 1.3.3.3.2.2.3.3.3.1.3.3.v 1.3.1.2.3.3.1.v 2.3.3.A 2 2 3.3.A S 3.3.S c 3.3.3.S S 1.3.3.3.2.1.3.3.3.1.2.3.1.1.2.1.2.3.3.1.v S 3.3.A 2 c 1.3.A c c ",
"3 3 3 1.3.3.3.1.3 S 2.3.2.S 3.1.S 3.3.2.3.3.3.1.2.3.3.3.1.2.3.3.2.S 2.3.3.S S 2.1.S c 1.2.3.3.1.c A 1.3.1.S 3.2.S 3.3.2.2.2.2.2.2.3.3.2.2.2.3.3.2.S 3.3.3.S c c ",
"2 3 v 1.2.3.3.2.l l S 3.1.S 2.1.S 3.1.S 3.3.3.1.2.2.3.2.S V B V A 2.3.3.3.S 1.1.S A S S 2.3.3.1.c c S 3.1.S 3.S S 2.1.S 3.2.l 3 S 2.3.3.3.3.3.3.3.2.3.3.2.2.v x ",
"c v 1.3.3.3.2.2.3.1.1.2.2.1.2.2.2.1.A 2 S 3.3.A c S 2.S , 4 o X 8 h S 1.S 1.3.3.3.1.1.3.3.3.2.2.3.S 1.3.1.1.2.3.3.S x 2 A 2 > = > v 2.3.2.3.3.S S S S S S 2.S v ",
"3 v 3.1.3.3.2.2.3.3.2.1.2.2.2.3.3.S c x A A S x c A A q u ! ^ [ i e A S 3.2.3.3.2.2.3.1.3.3.2.3.3.3.2.1.1.2.2.3.3.v x 2 2 G @.@.M h A S A S 2.3.2.S 2.3.3.3.S v ",
"3 v 2.A S 3.2.2.3.3.1.S S 1.3.3.3.S v c A A S A 3 l 0 u [ o.h.c.| ' q A 1.3.3.3.1.2.2.v S 3.2.3.3.3.1.S 1.2.3.3.3.A x 1 9 *.#X@X=.q h c c S S 3.3.3.3.2.3.3.S v ",
"v v v 3 c 1.S 1.1.A 3 A 3 A 1.3.3.3.2.S S 2.3.3.S g y Q  .n.^.^.n.| & 5 2 1.3.2.2.1.c 2 A S S S 1.A 3 l 3 A 2.3.3.3.2 , N 5.2X2X%XN 9 c 3.3.3.3.3.3.3.v A 2.2.v ",
"c v 2.v c v A S S A A S c 3 S 3.3.2.2.1.S S 2.3.S 0 P / p.L.(._.V. .+ 5 2 A 2 g , q > : : : ; : : 1 2 S 3 3 S 3.3.3.2 : m #X7X8X2X$X*.G x v 2.3.S S 2.v c A v v ",
"3 v 3.1.S S S S A S S 1.A 3 1.3.3.1.3.2.S S 1.3.l 0 P / u.b.~./.B.;.+ 8 2 1 w O O O O O O o O o O 8 h S 3 h 1.3.3.2.2 , m %X6X8X8X4X%X#.= 1 v 2.v v S S S v x v ",
"A S S 3.3.3.1.1.1.v c 3 h A 3.3.1.1.2.3.3.3.3.2.l g y P / 6.q.m.v.o.I w 1 8 ' ^ { [ [ ] ] ^ [ { ^ i 5 1 < 1 1.2.1.v x G &.#X<X7X8X7X;X=.= 2 2.3.3.3.3.3.3.S S v ",
"v S 1.3.3.3.2.3.3.1.S S S S 3.3.1.S 1.3.2.1.1.2.1.l 0 y P / 6.9.v.x.{ p 7 t [ u.a.s.c.s.i.i.s.s.c.[ # 4 X 5 l 2.v , M =.&X=X=X=X>X>X5.@.q 3 1.2.3.3.S 3.3.2.v v ",
"c S 3.3.1.2.1.3.3.3.3.3.3.3.3.3.3.c A S S c c 3.3.1.l > O Q / 6.v.b.x.] I Q :.V.U.^./.^.^.^./.).^.:.[ @ + P 0 l v ; *.*X2X,X5.%.%.%.M q x c 1.v v c S 2.3.S S v ",
"c v S S 3.3.2.S 1.3.3.3.3.3.3.S S S A c c S 2.3.2.l l g 4 P R / o.v.K.x.o.:.B./.].].].].{.}. X X|./.x.;...| i 7 n %.%X<X<X$X@.n 6 6 q x S S v 3 c c S S 2.2.S x ",
"c v 1.2.2.2.S S S 1.S S 2.3.2.S S 1.S S S 1.3.3.S 2 3 g 4 + L L } c.P.m.v.M.Y.`.].].`.].}. XoXOXXX}._.V.I.B.{ I +.5.:X,X5.$.C 1 < - 1 3 v v 3 3 3 3 1.1.1.1.v 3 ",
"3 v 3.3.S 3 A 1.2.S A l S 3.2.2.1.3.3.1.3.3.2.S A g > 5 X K T T { c.V.P.P.I.(.`.`.(./.(.]. XoX+X+XXX X{.{.(.0. .>.-X=X5.N , x 2.1.v 3 3 3 3 3 3 3 3 2.2.1.1.1.3 ",
"c S 2.1.v 2 3 v 3.3.3.2.2.2.S 1.3.3.3.3.3.3.S 1 5 O X o + K ^  .i.b.V.L.P.Y._._.`.(./.(.`.{. XXX+X+XoX X}.'.P.b.N.C.>.+.C c v 3.3.2.v 3 3 3 3 1.1.v v 1.2.2.1.3 ",
"c S 2.1.1.A v v 3.3.3.3.3.3.2.1.1.S S 3.3.S h u I E U K K E } c.V.L.V.V.V.U./._.(.`.(.(.(.(.]. XXX+XoXXX}.]._./.V.w.+.5 c v v 2.3.3.1.v v 1.1.2.2.2.2.1.2.2.1.v ",
"c v 3.3.3.3.3.2.3.1.S A 1.3.3.S x , V 1.1.g 4 [  .i.O. ./ { O.V.I.P.V.M.M.L.I.^.(.`.`.(./.^._.].|. X.X X{.].{.[.P./ @ * v S c S 2.3.3.2.3.3.3.3.3.3.3.2.1.1.3 3 ",
"2 v 1.3.2.v 2.3.1.1.1.A 2.3.3.A n m C 2 2 w I  .v.L.M.c.O.X.9.V.P.L.V.V.M.V.V.P.^.(.`.(././.(.`.].{.{.]._._.{.].K...% * v 3.2.A 1.3.3.3.3.3.3.3.3.2.1.1.2.3 3 2 ",
"3 v 2.3.1.v 1.2.3.1.A A 1.S A $.=.4.$.q * O U [ x.V.I.K.v.8.8.v.m.V.V.V.V.M.M.L.I.^.(.(.`.`._.(./././.(.(._.`./.L.i.[ y j A S S 1.2.3.3.2.2.1.2.2.2.1.2.3.1.3 3 ",
"c S 3.3.2.1.v 1.3.S A A v 2 6 ,.:X1X$XM   . ( ( +.:.V.K.q.8.6.8.0.M.L.L.V.M.M.V.V.I.^.(.`.`.`.(.(.(.(.(._._.(.Y.V.b.o.[ & 5 , 2.3.2.3.3.3.v 1.2.2.2.3.3.3.1.1.3 ",
"c S 2.2.1.S 1.1.1.1.v c S v 6 =.;X4X,X5.&.&.%.<.%.>.N.n.7.6.X.6.8.v.M.V.V.V.B.V.M.V.I.^.(.(./././.^././././.~.L.V.P.n.o.U y > S 2.S 2.3.3.S S 2.3.3.2.v 1.2.2.1.",
"x v 1.S 1.1.3.2.S 2.2.S 2.v C J <.;X,X,X,X*X*X*X5.4.>.-.X.6.6.X.6.8.v.M.V.K.V.M.m.M.V.P.^.~.Y.Y.Y.Y.Y.^.^.P.V.V.V.~.V.u.~ & g A v A 1.3.3.2.1.3.3.2.1.v 3 3.1.3 ",
"2 c S S 1.3.3.3.3.3.3.3.v S 2.B N ,.=X4X8X7X5X5X1X%X&.+.{ X.7.7.X.6.8.v.M.V.L.V.V.V.V.V.B.V.V.V.L.V.V.L.V.K.V.V.L.P.M.:.E O > 2 S 1.1.1.3.3.2.3.2.1.S 1.3.3.3 2 ",
"2 c v v S 2.2.2.3.3.3.S S v A G %.@X,X1X3X2X<X1X>X4.+.I ] X.7.6.6.X.6.9.v.M.V.L.L.L.V.V.V.M.V.V.M.V.V.B.M.m.V.V.L.P.b.o.E # > 2 S 2.S S 1.S S 3.3.2.1.2.3.3.3 1 ",
"c c 2 c A S S 1.3.3.2.v S c 9 #.$X,X>X%X5.4.5.5.<.%.( ( } X.7.6.6.X.O.6.8.v.M.L.V.L.V.M.M.M.M.M.M.V.m.m.m.V.M.V.L.P.m.;.E # , c 1.3.S S A A A 3.3.3.2.2.3.3.3 2 ",
"c c 3 c c c S 2.3.2.2.1.1.x b =.;X<X$X@.b b b n b & K T / 6.7.7.6.O.O.O.X.8.v.M.M.b.M.V.V.V.V.V.M.V.V.M.V.V.V.V.K.P.m.o.E 4 1 S 2.2.3.3.S 3.3.S c v 3.3.3.1.1.3 ",
"c v c v S 1.S 1.S 1.1.1.1.A g $.4.#X,.n = - , , , 4 + R ..6.8.6.6.6.O.X.O.7.9.9.0.c.b.V.K.V.V.M.V.V.V.V.V.V.V.K.L.I.n.:.U & g S 3.2.3.2.2.2.3.2.c c 2.2.v v v v ",
"c v 1.2.3.3.1.1.S v S 2.2.1.v C M @.G D c v S 3.A 8 + T } 6.8.6.6.6.6.6.O.6.6.6.O.7.0.M.V.V.V.V.V.V.V.V.V.M.V.V.P.L.b.o.Y # 1 1.3.2.1.2.2.1.2.3.v v 2.v 3 v v 3 ",
"< c 2.2.1.2.2.2.2.S S 2.3.3.3.A q 9 B v 1.1.2.3.S q # E ..X.8.6.6.6.6.6.7.X.O.O.X.O.7.c.m.V.L.L.L.L.V.L.L.V.M.b.v.b.0...Y y < 2.3.3.3.3.S S S 1.2.2.3.S 1.3.v 3 ",
"2 c S S S 1.S S S S S 2.1.1.2.l 2 1 3 A v v 1.1.3 > % W ..6.7.7.6.6.6.6.O.O.O.X.X.O.6.6.9.b.V.L.V.V.V.V.L.M.v.9.7.9.6.} Y O 0 A S S S S S S 2.2.3.2.S A v 3.1.c ",
"v c c S 1.S c 2 3 S v 1.S S A l c v c 2 c A S A 1 5 + ~ ..p.p.7.6.X.O.6.O.7.O.7.6.O.O.O.7.c.b.m.b.b.b.b.M.v.9.6.6.6.X.} L y > 3 A c 2 c A 2.3.3.3.1.c c c S v v ",
"c v 2.2.2.S v c A v 3 1.2.3.3.3.2.1.c x S 1.3.3.A 8 # ~ y.j.k.7.6.X.6.6.X.7.O.O.6.O.O.X.7.7.9.8.9.9.9.9.0.9.7.6.6.6...^ L y g S 1.1.1.2.2.1.S 3.2.1.1.v c 1.c c ",
"c A 1.1.2.3.2.1.2.S S 1.3.3.2.3.2.3.1.1.2.3.3.3.v 0 @ / f.H.A.7.X.X.6.6.6.6.6.6.6.6.6.O.6.6.6.6.O.6.6.6.6.6.X.6.7.a.u.;.Y y 1 2.3.2.3.3.3.S S S S S 2.1.S S S c ",
"c c c A 1.3.3.3.2.2.2.1.3.3.S S 1.3.3.3.3.3.3.3.v 8 @ _ S.J.G.p.X.X.X.6.O.6.6.6.6.6.6.6.O.O.X.O.X.X.O.O.O.O.O.6.a.k.j.;.Y # 1 1.3.3.3.3.S S S S c A 3.3.1.S A c ",
"2 2 c S S S S S 1.A A A A A 1.3.3.2.1.v S S 2.2.v q @ _ d.D.A.u.X.X.X.7.6.6.6.6.6.X.6.6.6.O.O.O.6.O.O.X.O.X.X.6.h.A.S.r.R 4 > S 3.3.3.2.2.S A S x x S 3.3.S 2 1 ",
"2 x A 1.S c c A l 3 l l 3 l S 2.2.1.S S A A S A c h 7 ! ;.d.j.s.7.6.X.X.6.6.6.O.6.6.6.6.6.6.6.6.6.6.6.6.6.X.X.X.6.j.t.;.I 7 1 3 S 3.3.3.3.1.1.1.v A 2.3.3.c 2 < ",
"2 c c v S 3 3 3 3 3 3 3 3 3 3 A 1.1.2.3.2.1.l 3 l D j f ! ` w.f.j.a.X.X.6.6.6.6.6.6.6.6.6.O.6.6.6.O.6.6.6.7.X.X... ._ ' f j 2 2 S 3.3.3.3.3.3.3.2.2.3.3.2.c 2 2 ",
"2 2 v v S v 3 3 3 3 3 3 A S l 2.2.2.3.3.3.2.S 1.1.S D e # W t.J.J.A.7.X.X.X.X.6.6.O.6.6.6.6.6.6.6.6.6.X.X.X.0.a.e./ U i C D l A S 3.3.2.2.2.2.3.S A A 2.3.1.S c ",
"2 c v 1.2.1.c c A S S A S 2.2.3.3.2.3.3.3.2.2.1.S D D e o T l.E.Q.T.g.7.X.X.X.6.6.6.6.6.6.6.6.6.6.6.6.X.X.7.h.k.y./ K O j D D A 2.3.3.2.S S 2.2.V 2 x S 3.1.S v ",
"v v v 2.3.3.S S 1.3.3.3.2.2.3.3.3.1.2.3.v 1.1.h k H k e O W l.R.!.W.F.g.7.X.X.6.6.O.6.6.6.X.O.6.6.6.O.6.X.8.Z.S.f._ U u e z k h A 3.3.2.c S 3.3.c 2 c 2.2.v c v ",
"x 3 v 1.3.3.3.1.c A 2.3.1.1.3.1.S 3.3.3.3.3.2.l k H k j a ' -.z.E.!.W.H.k.6.X.X.X.X.X.X.X.X.X.X.X.X.X.6.h.k.j.d.;.! ' e j F F j D 2.3.2.2.3.3.3.1.1.3.3.3.S v x ",
"2 c v v 2.3.3.2.c l S 3.1.S 2.1.v 3.1.S 3.3.2.h k z z k j f ' ^ l.E.!.Q.H.g.7.X.X.X.X.X.6.O.X.X.X.X.X.p.Z.A.d.` W p s e k H z k A 2.3.3.3.3.3.2.2.3.3.3.2.2.A c ",
"3 v 2.3.3.3.2.2.3.1.S 2.1.1.1.3.3.2.A 3 D 3.3.g d d z j k k e # ) z.E.!.W.H.Z.a.a.h.h.h.g.g.h.h.h.h.h.j.Z.d.` ! u s q g j z H j g v 2.3.3.3.3.1.S S 1.S S 2.S A ",
"2 v 3.1.2.3.3.2.3.3.3.2.1.1.3.3.3.A 3 3 l A A g e d z j j j g w i _ z.R.!.Q.T.A.A.A.G.G.A.G.G.A.A.G.A.Z.y.` ! u e 0 e e e d d 0 2 v S 1.v v 2.2.1.1.2.2.3.3.S v ",
"3 S 2.A S 3.2.3.3.3.2.A 1.2.3.3.3.v c c c v l h j j j d r j k H e i _ z.E.!.J.D.S.S.D.D.D.D.D.D.D.H.F.d.` U i j Z j r r r r d g V S S S S S 2.3.3.2.3.2.2.3.1.v ",
"c S A 3 A S S 1.1.A l l 3 A 1.3.3.2.1.1.S 2.2.1.D k z z z Z Z Z j w & -.l.z.l.r.r.w.r.r.r.r.r.r.r.t.t.` Q i e k Z C j d r j Z S S 2.2.3.3.3.3.3.3.3.3.1.v 1.1.v ",
"c v 1.A c A A S S A A S l 3 1.3.3.3.2.1.S 1.2.2.1.A D j j j C k g e w ' W ~ ~ W ~ W W W W W ~ W W ~ ~ ! i w j k Z Z z j r h S 2.3.3.3.2.S 2.2.2.1.v 2.v 3 v v v ",
"3 S 3.1.S S S A A A 1.1.A 3 S 3.3.2.3.3.S S 1.3.3.1.S k r d j j j q j 7 # @ @ @ # # $ $ @ @ @ @ @ + @ # 7 0 k H k z z k k h S 3.3.3.3.3.v v 2.3.v v v 1.1.3 3 v ",
"v S 2.3.3.3.2.1.1.A c 3 3 v 3.2.1.1.2.3.3.3.3.1.1.1.S S D F F F H Z j j e a a s s s w s s s s s w u 7 7 w r k k z d C D S 3.3.S 1.3.2.3.3.3.3.3.3.3.3.3.2.1.v v ",
"c S 2.3.3.3.3.2.3.2.S S S 1.3.3.2.S 1.2.3.1.1.1.3.1.1.D l k j Z k j j H z j j z z j j z z z j j j j z j r j k Z k j k A S 2.S 2.2.2.S 1.2.2.2.3.2.2.2.3.3.2.1.v ",
"c v 2.2.1.1.2.3.3.3.3.3.3.3.3.3.3.c A S A A A 3.3.S S A 2 g h h g r r z Z k Z H j k Z k k k k k Z Z Z H H H k S A g h c A A S 3.3.S S c c v v v v v v 2.3.1.1.v ",
"c v 1.1.3.3.1.S 1.2.3.3.3.3.2.1.S S A A v A 2.3.2.A c S S c 3 l 1 g r j j k k k k k j k k Z k j k k k Z Z k D A A A A c A A 2.3.1.c A S S S c v 3 v v 1.1.1.v 3 ",
"c v 1.2.2.1.S S S 1.S A 3.3.2.S S S S A A 2.3.3.2.3 3 A S A l l 2 2 V Z h D D D A D D D l l k l k l k h l D S S S 1.S A S 2.3.3.1.3 A A A A v l 3 3 2.2.1.1.v 3 ",
"c v 2.3.1.c A S 1.1.A A S 3.2.2.3.3.3.3.3.3.2.3.2.A 3 3 3 3 l 3 3 c 2.1.1.1.1.2.S 1.3.3.1.3 A 1.2.S A h 1.3.2.3.2.3.3.2.3.3.3.3.2.A 3 3 3 3 l 3 3 3 2.2.1.1.v 3 ",
"c S 2.1.v 3 3 A 3.3.3.2.3.2.S 2.3.3.3.3.3.3.2.3.3.2.A 3 3 3 S 1.S S 1.1.2.3.3.2.2.2.2.1.3 3 3 v 3.3.3.2.3.2.S 2.3.3.3.3.3.3.2.2.3.2.A 3 3 3 A S 1.v 1.1.2.2.1.v ",
"c v 3.1.S A c 1.3.3.2.3.3.2.1.3.3.3.3.3.3.2.v 2.3.3.1.A 3 S 1.2.2.2.2.1.1.2.3.3.3.2.2.1.1.v 3 1.3.3.3.3.3.3.S 3.3.3.3.3.2.1.1.2.3.3.1.A v S 2.2.2.2.1.1.1.2.1.3 ",
"3 v 3.3.3.3.3.2.3.1.S A 1.3.3.3.3.S 3.1.1.A A 2.2.3.3.3.3.3.3.3.3.3.3.2.S 1.2.2.1.2.3.3.3.3.3.2.3.1.S A S 3.3.3.3.2.2.2.1.S v 1.2.3.3.3.3.3.3.3.3.3.3.1.1.1.3 3 ",
"3 3 1.3.2.S 2.3.2.1.S A 1.3.3.3.2.S S S 3.3.2.A 1.3.3.3.3.3.3.3.3.2.S 1.2.A v v 1.1.1.3.2.v 1.3.1.3.S A 2.3.3.3.1.1.v S 2.3.2.S 1.3.3.3.3.2.3.3.3.2.1.1.1.1.3 2 ",
"3 v 2.3.1.v 1.2.3.1.S c 1.2.2.1.S S S S 3.3.1.S 1.2.3.3.3.2.2.2.2.2.S 3.3.S S S 1.1.2.3.1.3 1.3.3.S S A S 2.2.S S 1.S S 3.2.1.v 1.2.3.3.3.1.2.2.3.1.1.3.3.3 3 2 ",
"3 1.3.3.2.1.v 1.3.1.3 v v A v v S 2.3.3.1.l 3 3.2.2.2.3.3.1.v 2.2.3.3.3.3.2.3.3.3.2.3.3.2.1.v 1.3.S l l S S l S v 2.3.3.2.v c 2.3.1.3.3.3.1.v 2.2.2.3.3.3.3.2.3 ",
"3 v 2.2.1.S 1.1.1.1.v c 1.2.S v 1.2.2.v 1.1.2.2.2.3 2.3.3.1.S 2.3.3.2.v v 3.3.3.2.1.2.2.1.S 1.1.1.1.A l 1.2.S v 2.2.1.v 1.1.1.2.1.S 2.3.3.S S 2.3.3.2.v 1.3.1.S ",
"3 v 1.1.1.1.3.2.v 3.2.S 1.3.3.2.2.3.S c 1.3.3.1.3 1.1.3.3.2.2.2.3.3.1.3 v 3.3.3.1.1.S 1.1.1.3.2.1.3.2.S 1.3.3.2.2.3.S v 1.2.3.1.3 S 2.3.3.2.2.2.3.2.2.3 3 3.1.3 ",
"3 c v v 2.3.3.3.3.3.3.3.S S 3.2.1.3.3.1.1.1.S 3 S 1.1.2.3.2.2.2.2.1.1.1.2.3.1.S 1.1.S S 1.3.3.3.3.3.3.3.A S 3.2.1.3.3.1.1.1.S c 3 1.1.2.3.3.2.3.1.1.1.2.3.3.3 2 ",
"3 3 v v S 2.2.3.3.3.3.1.v v 3.3.3.3.2.1.3.2.1.3 1.2.v S 1.S 1.3.3.3.v 1.3.3.v c 1.S c c S 3.1.3.3.3.3.1.v S 3.3.3.3.2.2.3.2.S c 1.2.S A S S 1.3.3.2.1.1.3.3.3 < ",
"3 3 3 3 v 1.v 2.3.3.2.v 1.1.3.3.2.2.1.1.3.3.2.S 2.2.1.S 3 S 1.2.3.3.1.2.3.3.S A 1.S c c A S S 1.3.3.2.v v 2.3.3.3.1.1.2.3.3.1.S 2.2.1.A v v S 2.3.3.1.3.3.2.3 2 ",
"v c 3 3 v 3 v 1.2.3.1.1.v 1.2.1.A S v v 3.3.2.2.2.3.3.2.2.2.2.1.c v 3.3.3.2.2.3.3.S x c A c S 1.3.2.2.1.S 1.2.1.A A A S 3.3.2.2.2.3.3.3.1.3.3.S 3 v 3.3.3.1.1.3 ",
"2 3 3 3 3 3 v v v 3 v v v v v v A c v A l 1.S 1.S S 1.1.S 2.1.3 2 2 v v 3 3 S 1.S c 3 c c A c v 3 3 3 v v v A v A v A A S S S S S 1.1.1.A 1.S S 3 2 v v 3 3 3 2 ",
"< < 3 3 v v 3 3 2 1 2 3 3 3 3 3 v v A v 2 2 3 S l 3 3 3 3 3 3 v 2 2 3 2 < 2 2 c c 2 2 c c c c 3 3 2 3 3 3 3 3 3 v v v v 2 2 3 S 3 3 3 3 3 3 3 S 2 2 3 2 1 2 < < "
};
