/* XPM */
static char *__resized[] = {
/* columns rows colors chars-per-pixel */
"80 80 224 2 ",
"   c #07021C",
".  c #0B0825",
"X  c #12162B",
"o  c #16102D",
"O  c #191538",
"+  c #192E36",
"@  c #1B2339",
"#  c #1C2939",
"$  c #222729",
"%  c #2E2C2B",
"&  c #352D27",
"*  c #332F2B",
"=  c #382F29",
"-  c #2E312C",
";  c #35322E",
":  c #3C332C",
">  c #3E382F",
",  c #272E33",
"<  c #2C3433",
"1  c #2C3836",
"2  c #23353B",
"3  c #28383A",
"4  c #2B3B3A",
"5  c #333533",
"6  c #3C3633",
"7  c #353933",
"8  c #3C3A33",
"9  c #32363A",
"0  c #3C3739",
"q  c #333C3B",
"w  c #3D3A3B",
"e  c #41362E",
"r  c #44382F",
"t  c #423731",
"y  c #453A32",
"u  c #4A3E34",
"i  c #443C3B",
"p  c #493F3C",
"a  c #2D403D",
"s  c #3E4037",
"d  c #33423D",
"f  c #3B423B",
"g  c #4D4136",
"h  c #444239",
"j  c #4E4239",
"k  c #514337",
"l  c #53453A",
"z  c #58473B",
"x  c #56483B",
"c  c #5B4B3D",
"v  c #604F3F",
"b  c #61503F",
"n  c #201C42",
"m  c #27294A",
"M  c #243A42",
"N  c #2A3F42",
"B  c #373B41",
"V  c #343459",
"C  c #443D41",
"Z  c #483F40",
"A  c #2B4243",
"S  c #284448",
"D  c #2D4C4B",
"F  c #314443",
"G  c #384546",
"H  c #334A45",
"J  c #334C4A",
"K  c #2F554F",
"L  c #34534D",
"P  c #3D544B",
"I  c #2D4E51",
"U  c #364B53",
"Y  c #2E5252",
"T  c #2F5856",
"R  c #365652",
"E  c #335A54",
"W  c #335D5B",
"Q  c #34635C",
"!  c #38655B",
"~  c #365C63",
"^  c #356463",
"/  c #366667",
"(  c #356A65",
")  c #3A6C64",
"_  c #396D6B",
"`  c #3C7264",
"'  c #3C746A",
"]  c #3C776B",
"[  c #386B74",
"{  c #3A7576",
"}  c #3D7B73",
"|  c #414245",
" . c #4B4141",
".. c #5E4E40",
"X. c #4C5150",
"o. c #604F40",
"O. c #625141",
"+. c #695644",
"@. c #42655B",
"#. c #436764",
"$. c #45776B",
"%. c #417C6D",
"&. c #51766F",
"*. c #467D71",
"=. c #3F837E",
"-. c #43826F",
";. c #438473",
":. c #4B8375",
">. c #468D7A",
",. c #4A8D7A",
"<. c #558978",
"1. c #45927B",
"2. c #4A937D",
"3. c #58947F",
"4. c #3F7F89",
"5. c #535E81",
"6. c #676989",
"7. c #6C778E",
"8. c #3E858B",
"9. c #428A83",
"0. c #448A84",
"q. c #4E9D85",
"w. c #46938D",
"e. c #499589",
"r. c #4F9F89",
"t. c #559884",
"y. c #509E84",
"u. c #458998",
"i. c #469797",
"p. c #4A9C95",
"a. c #649786",
"s. c #4FA088",
"d. c #50A087",
"f. c #51A38A",
"g. c #55AB8D",
"h. c #57B18E",
"j. c #4DA49A",
"k. c #54AC93",
"l. c #54AF9A",
"z. c #57B192",
"x. c #5AB493",
"c. c #5CBB96",
"v. c #56B39C",
"b. c #59B69B",
"n. c #5DBD99",
"m. c #63A78B",
"M. c #69AC91",
"N. c #6DBB9A",
"B. c #75B89B",
"V. c #74BC9D",
"C. c #4898A3",
"Z. c #4AA3A7",
"A. c #50AAA1",
"S. c #54B3A2",
"D. c #56B7A7",
"F. c #59BAA3",
"G. c #57BBAC",
"H. c #59BDAB",
"J. c #4DA8B4",
"K. c #56BBB4",
"L. c #5EC39B",
"P. c #61C59C",
"I. c #6AC59E",
"U. c #63C99F",
"Y. c #5DC2A6",
"T. c #5BC3AD",
"R. c #5BC4B3",
"E. c #5DC8B7",
"W. c #5DCABA",
"Q. c #5FD1BF",
"!. c #65CCA1",
"~. c #68CAA2",
"^. c #7CC9A6",
"/. c #66D0A3",
"(. c #69D4A6",
"). c #6BD6A8",
"_. c #6CDCAB",
"`. c #74D6AA",
"'. c #76D9AC",
"]. c #60CDB8",
"[. c #7BDFB0",
"{. c #78E5B4",
"}. c #55BCC9",
"|. c #5ECFC5",
" X c #5FD2CE",
".X c #5BC9D6",
"XX c #61D3C4",
"oX c #62D6CC",
"OX c #63DBD4",
"+X c #62DAD9",
"@X c #65E0D6",
"#X c #61DAE6",
"$X c #67E5E5",
"%X c #68E8F1",
"&X c #838197",
"*X c #98A1B9",
"=X c #86CFAC",
"-X c #87DCB2",
";X c #85E3B4",
":X c #89EABA",
">X c #95E5BB",
",X c #9CE6BA",
"<X c #95EEBE",
"1X c #8DF3BF",
"2X c #97F0BF",
"3X c #9BF1BF",
"4X c #A8F4BF",
"5X c #C3FBBF",
"6X c #D3FEBF",
"7X c #AAB0C4",
"8X c #9AE9C0",
"9X c #97F7C4",
"0X c #9BF3C2",
"qX c #A1EEC6",
"wX c #A1F5C3",
"eX c #A6F9C9",
"rX c #ABFCCC",
"tX c #B6FBC8",
"yX c #AAFCD2",
"uX c #B4FCD2",
"iX c #C6FEC6",
"pX c #D5FFC5",
"aX c #D8FEC7",
"sX c #CDFCD2",
/* pixels */
": = : : e r r r r r r e r y y e r g r r g g u u y r r e e e r r r r e e e u r r e r g r r g g g r g u u r g g g : & & = e r k u y r u u u u u u u u r r r u e = ",
"& : : : r r u u u u r r r y u y r g g r r r g u y y u u u r r u y y r r y u u u r r r r r k k k g g k u g g r g g e : e r r r e r y u u u u u u u u e r r u e = ",
"& : r r r u k k k u u r y u u u g r g u r r k r r r u u g u r g y y u u z u u u u e r r k k k k k k k g g g r g l l g e r g e = e y g k u u u u u z r r r r e = ",
"r r u y r r g k k u u u u u u u y g g g y g k g e e & = > r r g u u z z z z z u l k h j l k l l k k g k g g g g k g g g u e : : : e k l u u z u u u u r r r e e ",
"r y g g u u g k k g g u u u u u g l k g k l l y e % $ $ % ; : y u u k z k k k u j g t k z l l l z l l z l g r g g u k k g r : = : r z z g g k k v u u u u u e e ",
"r u g j k l k k g j g u k k u k k l k g z z g r 5 < A M 3 - : r u u u u k z k k u t r g k k g z z z c z l r r g z k g k z g e e y g z k k g k l u u u u u u e & ",
": y k k l c l l l l k y k z z k k u r y k k h 7 H ) :.:.$.P s r u k u k z z v u u u g g g k k l c c c z c l g k z k z z z k k z z c z l k k k l u u u u u u u r ",
"r u k k l z l l x l g r g k k z j u t r u e 8 H ` 2.I.^.M.&.P > e u u k z z z z u j k l g g z z z z c z c z l l k z c z k g r b b z z l k k l k u u u u u u u u ",
"r g g l l l j g g j k g g k l l l j j y y ; 3 Q =.c.{.9X-XM.#., & t u z l l z z k g g k k g l z z l l c l l c l z z c z g = = k c l l l k l l g y g y y g g r : ",
"r g g l l k u r u j l l j l x x l l l g r 5 4 _ f.Y.9X9X1XV.%.2 * e u k l l k k g r r j j g z c O.c l k k k c c k z z z k g g g k l k g k c k > g j j u u u r : ",
"r u g l l g g r y j l c l l x x l x l g u ; 4 ) e.x._.{.'.M.$.2 ; : g l l j g g g h r g l j l v +.c k j g j l l k l z z l c k r y k g g l c c g g k g g u y r : ",
"r u g g g j j g g l c c x x k l x x l z g > 1 T ' 1.z.c.g.>.E < ; t l j j g r u g j g l k l c c O.l j g k l l j k l l l c c l k g r j l l l c c x k g g u y y r ",
"r u k k g u g j l x b ..x l l x x j g x c j y d K ' 1.e.-.! d 8 y u j x x u g j r g j j j g y y g u g j c c v x k l l z l l l l k j l c c l l l x l l j y y y r ",
"y u k l g h g k c x x O.c x x c z j j l ..c x 8 d K ^ Q E d 8 g k l g l x u k l y y x j g h r > y g k l c v b b x l z z k k j x l l l c c l k k l c l j g y y r ",
"r u g l l j x x b c b ..b c x k k l x c O.O.v g 8 , 2 < < ; 8 g l k u g g y g k j x l c z l k x c x z c l k c c c c c c l l x c l l l c l k l z z l k j g g u r ",
"y g k l x l b b x x c c c c x x z x v b b O.c k y 6 - ; : t y j z k u g g y y h k x x c z z l c x c x x l l c z l c c c c l h l l g u r r l k g l z j g g g r r ",
"u u k z z x x x x c c l x x l x x x l l z z z l k j y u u g g l z l g g j g y y l c O.c c c x x x l x x j k c l g x c c c l g g g u t > > k l u l c k p u g r r ",
"y u u z x x p l O.c l x j l ..x z g r : : y z l x x k j g g l z c l g k l j x j x c O.+.c x c x x l z x g g l x l b c c c l j g g l x j t l ..c c x z g g g y r ",
"y u l z x x j l ..c j x l j x ..l g 7 - < 8 g l x x x l j l l z c c g g l x l j j z c c c c x x l z x x j g x c x x c x l k j j l x x l g x O.O.b z z g g g r e ",
"y u k z l x k k l x x x x x j x l g f D K H s g l x x x l c c x c l u u h g g y y j l u k k u u j z x x l l x c b k x x k g j l l l j j l b +.O.c z z l l k r e ",
"u u k x l k x k j l c x x x j u > s ! :.2.%.L 7 y x O.c g z c z c z g : - - % ; ; ; ; % % % % & t u k x x l c c c l l x k l l x l j j c b b +.+.c l z v c l r e ",
"y p k x k l x x l l l c x l z y ; a ` f.x.2.! < 8 x c c k l z l l k r f a F A A d A A a H H F q 8 t g z x l x c c l x l l l l x l g l x c c c c l g k z c k u r ",
"u u j k k x ....b l x O.c x l u 7 d ` d.h.2.! 7 y x x x l g y u g r f L ) ] ] ( Q ( ` $.*.:.&.@.f 8 t u g k l c v x x x j l x l x x l l l c l k j h r l b k y r ",
"u u k l k k k z c x c O...x l j h h P ` -.! f h l c x x x t 5 % % < H ` q.g.f.q.1.q.f.m.V.^.V.3.@.% $ $ % : c v b c x x j x l x c c l c c l x x k g l c c k u r ",
"u u l l l j k k x x ..o.c z l k k l h H J d h l z c c l u 8 a D A D ` 3.L.!.U.L.L.P.(.-X<XqX8X^.<.R N S d f j z x v c j l l l k k l l c v c x c l l c b c k g r ",
"u u u l l j p k k x x z x z l j l c g ; * > k z c l l u < d Q ] ` =.d.P._._._._.{.{.1X0XrXuXyX<XV.t.,.t.%.R f u x v c l l l l j h g c b b c x l z z c z z l u u ",
"u u z z x ..x x  .l x z z z z x l l k g u g l l x k r ; 4 E %.r.f.h.c.U.!.!./.).[.:X0X0X0XwX0X8X-X=X=X=XN.:.L 5 > l c z x l l k j j x c c O.v l l l l l l k u r ",
"u u l c c x x x x x x x c ....z l k g g k k l x j y 7 F ^ %.e.k.L.U.!.U.U.P.U.).;X2XeX0X0X0X0X0X0XwXeXeX>XB.*.J < u l l x c c l l x x j l O.O.c l k l l l k g r ",
"u k k z x z x x z c c c O.+.o...c l k g g g g x g ; H _ w.j.k.N.U.(.)./.U.L.L.).:X3XeXwX2X<X<XwXtXiXsXsXtX,XV.:.H 7 h k l c ..c ..c x j l c b b c l l k g k g r ",
"u u k k k k z x c O...c ..O.O.o.c c l x j g j g 8 d _ p.G.D.l.g.L.U.(.!.U.L.U.(.-X<XwX3X<X<X<X0XtXiXaXaXiXtX,XV.:.H < r x c ..c c c ..x z b b c b b b l g k u u ",
"u u l j l l l x v b b ..O.O.x x c l c c l l g s H ^ w.D.R.F.l.g.h.U.!.!.U.L.U.I.'.:X<X0X0X2X3X4X4X5X6X6XpXpXiX,XV.$.P 7 j l x c c ..v c c b c l c c b l k k g r ",
"u z x x ....x x v O.c c +.O.l j k k c b c g 8 J ' w.A.H.F.k.g.g.c.U./.!.U.U.U./.~.'.;X<X0X0X3X3X4X4X5X6XaXaXpXtX,XB.<.E 7 t l x c v c v b c c l x c c l l k r e ",
"g l x x x x x x c O.v l b c x l v O.v x x t 1 ^ w.G.R.F.g.s.s.g.x.P.U.!.U.U.U.U.L./.).;X<X4X3X3X9XeXtX4XpXpXiXiXtX>XV.*.3 5 u g l c c b b c c c c c l l c z k r ",
"x x c c x x x x c v l k j x x v O.O.x j l > < _ j.W.].F.d.2.d.f.h.c.L.L.U.!.U.P.L.L./.'.;X:X3X3X9X9XrXiXiXiX5XiXuXrX^.:.2 - u u k c c c b b b c c z l l l l k r ",
"x x c v ..c l c b l j g h k b b c l l x l : , / p.R.E.F.d.d.s.f.f.g.c.L.U.!.!.U.L.U.U./.`.;X<X3XeXwXrXuXtXtXeXrXrX0X^.&.2 * u k l l g g z c c l k k l k k k g g ",
"l l c c c x x c c l k k j k v c l j j g t < A } Z.R.R.b.d.d.s.s.d.d.z.N.U.!.!.U.U.U.L.L./.-X:X<X-X=XB.^.=X>X0X9XyXwX^.3.L 4 8 g k k h h l z c c x l l k g k g g ",
"l l z z x j k l z k l c c x l l z x g 8 q J _ p.K.E.K.v.d.s.d.s.q.d.k.c.U.!.!.U.!.U.L.L.!.{.:X'.m.$.~ #.t.B.8XyXuX0X;XN.-.E d h g k k l k x x c c c l l h x g r ",
"k k l l x k x l l g k b c x l x c x r 7 L { p.E.XXE.H.v.f.s.d.f.r.f.g.c.U.!.!.U.U.U.U.L./._.).x.$.M o o B a.=XyXuX0X:X'.h.;.E 7 > k x l x c x x l x b x l k k r ",
"j j k x j k l l j y g l x x l l l j > < W 0.G.XXXXR.v.k.d.s.s.f.q.f.z.P.!.!.!.U.U.U.!.!.U.c.f.<.&.X.n O O W a.=X>X:X'.I.y.} Q 3 s x c c c x x g k l l l x k g r ",
"g j j x l k c l j g g g k l l j g u ; < Q w.K.XXE.S.k.f.f.s.f.d.s.f.z.P.!./.!.U.U.!././.L.=.Q #.7.&X6.C O O U <.N.`.N.3.^ T Y 4 s k x x b x k g g h x x x k g > ",
"g g j l c x c c x k j l l l j g g g ; < E 9.D.W.T.k.d.d.d.f.f.f.r.f.g.n.U.!.!.U.U.!.(._.h.Q + V a.7X*X6.m . X Y >.c.y.W @ @ 3 1 7 e g x b x h g k l c c c g r r ",
"g k z c x x c v l j k b c k g g j j > 1 E 9.A.R.b.d.2.d.d.g.f.f.f.f.g.z.n.P.!.!.!.!.(._.h.T X , 6.*X*X7.V .   + ] x.,.S . X 2 3 7 > k c b x l l x l c c c k g r ",
"g l c z l l v c j j x c x g h g l x r 7 W 9.S.R.Y.d.2.d.f.f.f.f.f.f.f.g.z.n.P.!.!./.(._.h.Q O o V 6.6.5.V O . 2 ] h.1.D X X 2 4 s h b b b x x x c b c c c g r r ",
"k k l z c c c c x b x j x x l k x l r 1 ~ w.K.XXR.l.f.d.d.f.f.f.f.f.r.r.f.k.n.!.!./.(._.L.:.D # n n m V V m # E 2.L.d.) M 2 S 4 s k x b b b c l c b k z c k u u ",
"l l l l c c l c c v x k l z c c c l > 1 / C..X$XOXG.g.d.s.d.d.f.f.f.s.s.s.f.z.n.L./.(.(.U.g.;.T O . . O m V Q >.x.P.c.2.( W Y 1 > k l c O...c x c b l x z k g u ",
"g g l l c c l l c c c c l l c b c z > 7 ~ C.#X%X#XR.v.f.d.d.d.d.f.f.f.s.f.s.g.z.c.!./././.!.c.,.V O   . , E 2.n.(.U./.P.f.;.Q 1 7 x c c b b b x x x x l z k k k ",
"k j l c c c c c j l b +.b b b l k z g > J { C..X XW.T.S.k.f.s.s.d.d.f.f.s.r.s.f.z.c.L.n.U.)._.c.;.Y 2 M ! >.P._._./.(.(.c.2.Q 4 > x c x x x x l x c x h k z l l ",
"k g k c c c b l j x b b +.b b l k c l g i U [ C.K.R.E.T.D.k.f.s.d.f.f.f.f.s.s.f.g.k.z.k.c.!._./.g.>.$.} 2.h.(._._.!.(.U.h.>.Q d s x c x x x c l b b x h g l z l ",
"k g k l z c c z x x x x ..O.O.........l u 5 M _ p.R. X|.T.S.k.s.d.s.f.s.s.s.f.f.f.f.f.s.g.b.L.L.U.P.L.c.!.!.!.!.!.U.Y.L.q.=.E a > k x x b ......O.o.x g u k l l ",
"g k l l c ..o.....c x x x x ..x ..O.x j y & $ / Z. X$XOXR.G.v.k.f.d.d.s.s.d.d.s.d.s.d.d.d.h.c.L.U.U.c.f.2.3.L.L.L.L.L.Y.l.8.Q 1 > x b x x c O.....x l j g u g u ",
"g k l l ........o.z x x x x c x x O...j j * , / Z.#X%X@XE.R.T.S.k.f.d.s.s.d.s.s.d.s.s.s.s.f.g.z.c.x.d.%.` =.f.x.h.h.L.T.D.w.Q a > c c c x c ....x x l l g g u r ",
"u g k l l l l ..c x l l x ..x z x ....l  .w 4 / C..X#X+X|.|.W.R.F.l.f.f.g.f.k.f.f.f.s.s.s.s.s.g.g.q.-.Q K Q =.2.3.h.S.T.l.9.Q 1 r c c c ......O...x l l k k u r ",
"u g g z z k z o...x x x ....x x ....x  . .C C U [ C.}.#X$X$X@XXX].T.Y.v.v.v.v.l.k.f.d.q.d.d.2.d.f.d.>.] Q T W } s.D.T.j.8./ U i g c c c v c c c ....x x z l u u ",
"u u j z l l ......x x c ..v x ......x j  . . .| S ~ u..X%X$XoXE.R.E.R.R.R.R.R.T.l.f.d.d.f.f.f.f.f.f.f.q.>.! K ( w.G.S.9.E G | p k c c v c c l l O.O...c z z u u ",
"u u k l x x ......c v ....x ..O.O.x l j  . . .j 5 9 ~ C.}.}.J.j.j.j.K.|.OXOXoXW.T.b.v.v.b.b.v.k.k.k.z.b.f.;.Q _ 8.j.9.~ B B  .j k c z z z c c c c ..c c x z u y ",
"u u k l l x z ..x x x c x j j x ..x j h  . . .p i 5 U [ 8.8.=.' Q { Z..X%X%X@XQ.E.R.T.T.E.R.R.T.b.z.k.b.k.d.>.;.=.} ~ G 0 i  .j x l v c l c c v O.O.c z z z u y ",
"h g x x x x c l j j x x x j h l x l i i p  . .p p C B G Y I Y A M K 4.}.#X#XoXR.T.R.R.T.R.R.R.T.z.3.d.d.f.f.d.>.Q K F B i Z Z p j l c x l c c v b v z z k z k u ",
"u j l x c v v c l l x x x l x l ..l k p p p i p  . .i 5 < < 1 9 - 3 ~ u.J.J.j.w.w.i.i.i.8.j.j.8.=.=.=.-.;.>.1.] E 4 0 i  .p i u h g g r c c b c v c z c v z k u ",
"u g x l c b l c v b x x x c x x ..z z z p y i i Z l i 0 0 9 0 t 8 0 F ~ [ [ / ^ ^ ( / / ' ( ( ( Q Q T T Q Q Q T F w i Z p p u u g g h h k x c l c z k k k z k y ",
"g g l x x l g l v v x x x l l c c ..o.c k y i i C Z i i i i i i j i w N A A N S N N N N S S a M S a A S A A S B w h p Z p k k p g j x j g k x l z k u u k v u r ",
"u g k k g g g j k x ..l l l x x ..z ..c x k u u p i C i i i t 0 p p t 9 < 1 9 9 0 9 9 9 9 9 9 9 4 9 9 q B B B B |  .p y z x c g g j k l j l j u k z x x c z k y ",
"u g l k l g j g p x x x x x x ..z x c c z z x l p p C w 6 i i i p Z i i 0 0 0 0 i p i w i 0 0 0 7 w i C i B w B  . .y t z v c g r g g x c x g u k z c v c z k u ",
"u l z l l k g j k x z z z ..x ....x z z ....o.c l p i t 0 i p Z Z Z p p p p p p Z p p p i i i i i  . . .p j p i j j h g l b v g y g j l c l l j z l c c z k u u ",
"u l c k g j u u z ........z k x +.o.z x ..o.v c k y y i t i i Z Z Z Z C p Z p p Z Z Z Z p p  . .i  . .C p j g l x l x j l z z z l l c v ..c l l x x g z l k u u ",
"u k z k k k g k l ......c z k x ..c x x ....x x l g h g j h u  .C i p i i i p p p p p j j i  . . .j h  . .j z z c x j x l x x ..c ..O.v x c c x c c j l l g u u ",
"u u u z z z l l ..l p c c c z x z l x c x x l j l x l x c x j x j p j j j j p p p p j p u p j j j p j  .x l c c l h x x x j x O.O...O.v x b v v x x l x l g y u ",
"u u l c b c c z ....c ..z z z l k l x x x x x ..x x l x x l l j l x l x x x x z x x k j j g z x x j l x l l v z g l ....l x x O.O.c b b ..O.v c x j l l j h y t ",
"y k c c c b z z z z z z u l x x x l j l l x x c .... .x x x l j j ..x ....x z x o.c z z k z z x l x c x x x z u y x ....l j x ..c l c v ......x x l g j j g u y ",
"y k c c b c z z z l p y u u x z x x l l x x x x ..O...x c c x j j j l ..o.....z ..O.c x x x z k j x O.x ....i t u j x c l l z z x x ..x l x ..x c c j j g p u u ",
"u k c v c c z z z l k y u p x x x l l x x x l x j x x c ..O.c l k k l x x l l c x x l l x c z p y z c c ..o.z l x x x l l l z z x x h x l ....x ..c c x k k u u ",
"y u z x x z c c ..l l k k l x x l j l x l l j j j l x x ..O...l k x x l j j z ..z j j x c ..z u g l c c ..O.c c c c l l x c c z x h h x x ....x v O.x l k k u r ",
"e u l x z k z c ..x x x z ..x l l l x x l j l l l j j x c x l l x x x k g x c c l j j x c z z ..c v c c x c c c x l j l ..o.c c c c x ......x ..b z z g p u y r ",
"y u u c u u v v z z z z x x k k c c c l l l l x l j l l z l j l z z z l k ..c c l j l z c c c b O.b b l l j x x c c x z z c c c c b ..+.+...c x x j j g u l u r ",
"u u u u v u z v v z z z ..x j x c b c l l l l x x l j l j j l l z c z x l l c v x l x c b b b c b +.b l k k l x c c x z z z c v ..b +.O.......x l j j g k z u r ",
"u u z z u u u u ....c z l l k x c l l c x l l k j l l g l l l c o.o.c z j k z o...z c v b b z z c v c z z x k l z c z l z c b b ..x ..b x b v b v c l k u u u r ",
"u u u k u v u v l z ..z l l l l l c c c c l l k j l z x l x l z z c z z p k z c c c c v v c c z c v c l z c x l k z l l c v v c c x b l j x v c b b l l z u u y ",
"u u u v u u u u p c z x x u l l l c z z l l k k g g k l x l l j z z l u p u z u c v c c c c c z v v c z l c x k j l l j x c c z c c c k g z v c v b z l g u y r ",
"e u u u u u u z l z l z x l l l l c l l c c l l k g y y l k k j u l z l u u u v c c c z c c z l z z l j l x x k g k g l l z c z l x z l l z c c x x x k u u e e ",
"e r u u u u u u z u z l l l u l k z z c c z l l z g g g g k k k l l l k z u u v c z z z z k g g k z l j l x z k l l k k k k z l l l l l l c c c l g k u y y t : ",
"e e u u u u v v z z u u l ..l p k l c c c z c c z g l j g k l l l u l k k u z v c z z c k u h g y k l j l x l z l l l k g k l k l z l l c c c c h y u u y y e = "
};
