/* XPM */
static char *__resized[] = {
/* columns rows colors chars-per-pixel */
"80 80 219 2 ",
"   c #05041E",
".  c #0A0623",
"X  c #130C29",
"o  c #13122B",
"O  c #160F32",
"+  c #171834",
"@  c #231538",
"#  c #1B2637",
"$  c #1B323B",
"%  c #252B2D",
"&  c #2B2E2D",
"*  c #342D27",
"=  c #332E2B",
"-  c #382F29",
";  c #2D322F",
":  c #35322D",
">  c #3C332C",
",  c #222B36",
"<  c #2C3333",
"1  c #253539",
"2  c #2E3439",
"3  c #263C3C",
"4  c #2B3D3C",
"5  c #333533",
"6  c #3B3633",
"7  c #333A36",
"8  c #3C3A33",
"9  c #31363A",
"0  c #3D3739",
"q  c #34393B",
"w  c #3D3A3B",
"e  c #41362E",
"r  c #43382F",
"t  c #413730",
"y  c #453A32",
"u  c #4A3E34",
"i  c #443C3B",
"p  c #493F3C",
"a  c #2E413E",
"s  c #3D4137",
"d  c #35423D",
"f  c #3C413A",
"g  c #4D4136",
"h  c #444238",
"j  c #4E4239",
"k  c #514337",
"l  c #53453A",
"z  c #58473B",
"x  c #56483B",
"c  c #5B4B3D",
"v  c #604F3F",
"b  c #61503F",
"n  c #1E1E42",
"m  c #1F2043",
"M  c #272C47",
"N  c #2A2B4E",
"B  c #253944",
"V  c #2A3F41",
"C  c #333C41",
"Z  c #3E3E43",
"A  c #393153",
"S  c #443E41",
"D  c #403B5E",
"F  c #254245",
"G  c #2A4345",
"H  c #2D4846",
"J  c #26434A",
"K  c #2A464B",
"L  c #2C4C4C",
"P  c #374746",
"I  c #324D4B",
"U  c #36534D",
"Y  c #304D51",
"T  c #2C5453",
"R  c #2E5957",
"E  c #335554",
"W  c #345C55",
"Q  c #39575A",
"!  c #345E5A",
"~  c #35635C",
"^  c #39665D",
"/  c #3A5B64",
"(  c #376865",
")  c #356B64",
"_  c #3A6C62",
"`  c #3A6E6B",
"'  c #357364",
"]  c #3C7266",
"[  c #3B726C",
"{  c #3E7B6D",
"}  c #3A6A72",
"|  c #3A7572",
" . c #3D7A75",
".. c #4C4241",
"X. c #514744",
"o. c #5E4E40",
"O. c #5F5040",
"+. c #405D5F",
"@. c #604F40",
"#. c #625141",
"$. c #695644",
"%. c #426459",
"&. c #4D5371",
"*. c #446962",
"=. c #44776A",
"-. c #5D6C78",
";. c #457B71",
":. c #3F807E",
">. c #41806F",
",. c #468A76",
"<. c #488878",
"1. c #578D7B",
"2. c #46947A",
"3. c #4A927C",
"4. c #55927E",
"5. c #3C7B81",
"6. c #4A6E86",
"7. c #746F8C",
"8. c #3F8581",
"9. c #428983",
"0. c #4B9887",
"q. c #4E9C84",
"w. c #579B85",
"e. c #509F85",
"r. c #428994",
"t. c #469696",
"y. c #4B9C93",
"u. c #4EA286",
"i. c #4FA188",
"p. c #51A187",
"a. c #51A38A",
"s. c #5CA68C",
"d. c #55AB8D",
"f. c #57B18F",
"g. c #4CA497",
"h. c #4CA39B",
"j. c #55AC92",
"k. c #54AA95",
"l. c #59B493",
"z. c #5CBA96",
"x. c #56B29B",
"c. c #58B398",
"v. c #5EBE99",
"b. c #67A58C",
"n. c #68AA92",
"m. c #67B697",
"M. c #75BD9C",
"N. c #4DA8A7",
"B. c #51ABA5",
"V. c #55B4A4",
"C. c #5ABBA3",
"Z. c #55B7A9",
"A. c #59BDAB",
"S. c #4CA4B3",
"D. c #59BFB2",
"F. c #5EC39B",
"G. c #61C49C",
"H. c #6DC59F",
"J. c #63C99F",
"K. c #5CC2AD",
"L. c #5BC3B3",
"P. c #5CC7B7",
"I. c #5DCCBB",
"U. c #65CCA1",
"Y. c #69CBA3",
"T. c #7BC4A2",
"R. c #7BCAA7",
"E. c #67D2A4",
"W. c #6AD4A6",
"Q. c #6AD5A8",
"!. c #6BDAAA",
"~. c #75D8AD",
"^. c #7BDAAD",
"/. c #60D1BE",
"(. c #6EE1AE",
"). c #7EE9B8",
"_. c #54B9C5",
"`. c #5DCDC6",
"'. c #5ED1CE",
"]. c #5AC7D6",
"[. c #61D5C8",
"{. c #62D9D3",
"}. c #65E1DB",
"|. c #62DCE5",
" X c #67E6E9",
".X c #67E7F3",
"XX c #8992AA",
"oX c #979AB0",
"OX c #81CDA9",
"+X c #85D4AE",
"@X c #88D8B2",
"#X c #92DEBA",
"$X c #88E5B7",
"%X c #8DE9BB",
"&X c #90E3B9",
"*X c #94EDBE",
"=X c #95F0BF",
"-X c #9BF1BF",
";X c #A6F3BF",
":X c #B6F8BF",
">X c #C7FCBF",
",X c #D3FEBF",
"<X c #AEB4C8",
"1X c #90EFC1",
"2X c #96F1C0",
"3X c #9BF3C2",
"4X c #9EF9C6",
"5X c #9BF9C9",
"6X c #A3F4C3",
"7X c #A2F9C7",
"8X c #A8F8C7",
"9X c #A3FCCB",
"0X c #B8FBC7",
"qX c #ABFAD2",
"wX c #B1FAD0",
"eX c #C4FEC5",
"rX c #CBFEC2",
"tX c #C1FFCC",
"yX c #D5FFC1",
/* pixels */
"> - - > e r r r r u r r e r u e e g r e g g k u r e e e e e r r u e e e e u r r r y g r u u g u u g u u r g g y e * * - e r g g r y u u u u u u u u e e u r e - ",
"- > > > r r u u y u r e r r u u r u h r r r r 8 e e r u u r r u r e e r u u u u r r r r u g k k u g k u u u y g g r > e r r r e e y u u u u u u u u e r r r e - ",
"- > r r r u k k k u u r r u u u g u g r > > > : * * r u g r y g u r u u z u u u y r r y g k k k g k g k k g y k z z u r g r e - e y l u u u u z v u u r r u e e ",
"r y y y r r g k k u u u u u u u u g g u > * & % # * * e g g y g u u z z z z z u l j y k k k k l l g k k k g g y g u g g r e > > e y u l u u u u u u u r r r e r ",
"r y g g y u g g k g g u u u u u g k k h 8 d Y ! W P 7 6 y y r y u k k k k z k u l u y k z k g l z l l l k g h g k r g k k r e - > t l z k u u k u u u u u u e - ",
"r y k k l z k g g k g u k k u k k k y > d ^ <.s.n.1.%.h y > > r u u u g u z z u y y t g k l k l z z c z k g e g z g k k z k r e y u l z k k k z u u u u u u e - ",
"r y k k l z z l l l j y k k k l g > & < ~ ,.f.^.@XT.1.U ; : r k l k u g z z z k u u u j g k k z c c c z z l g k z k z z z k g z z c z k k k k l z u u u u u u r ",
"r y k k l z z k l x g y g z k z g > & 1 ] u.K.1X5X$Xm.*., & g z l g g k z z z z u u x k g j z z z z z c c z l l z z z v k u r v v c z z k k l k u u u u u u u r ",
"u g g l x k k g j j j g g l l l j r < F { a.U.).1X$Xm.*.$ : y l k k u z z l z l k g g l k g z z z z x x k z c x k z c z g - - l c k x l k x l u y g y y k k r > ",
"r y j l l z y y y g l x j k x x j y : 3 ( <.d.U.Q.J.3.~ < > y k k u u k z k g k g r r g j g l c c c l l g j c x k z z z g g h g k x g g k c l 8 u j g g y y r > ",
"r y j k k k y y y j x c x l x x g g r 7 L _ ,.i.d.2.' P 6 y k k k u g k z g g g g y r g k k x c $.c l g g g x l k l z l z z k r u k g j k c l g g l k g g y e > ",
"r u j g g j g g g l c c c l k l z l g h 8 I (  .:.) I s g z x x g p l l g g r h g j g l l l c v #.x j g k l x j k l l z c c c k y y g l x x c c c k g g y y r e ",
"r u k k g h g j l x c O.x l l x x g g g g f G H H a 8 h l x x x l j j x x g g g y h l j j g y y g g g l x b b x k k l l k l l l g g l x x x k z x x k j y y y u ",
"r k g z g g g l c x c #.c l x c x g j x x g : < % : r k z l j l z l g l c y j l r g l j g h e 8 y y g z x b b c c l z c k j l l z l x x c l g k l x z j g y y r ",
"r g g x l l x c c c O.#.b x x k j l c c c x g r e 8 g k x g y j k k g j g r j l j j l c z k k l o.x x c z k x c c c c c z l l c x l z x z k l c x l k g g g r r ",
"u y g l l x c c c c c c c c x g y y z b c c c l g g j k l g g g l k g y g y y g l x c c c x x x x x x x k l c z z c c c x l g l l g y r y l x y l x g g g j y r ",
"u u k z z x x x x c c l x o.x y 6 5 h l z c v z x l j j l j j l x l g g g g y h l c #.v c c x x l l x x l l c j g x c c c k g g j u y > > l x y x c j u g g r r ",
"u u u z x l u x O.c x l j j k h a a 7 e k l z z x x l j j g g x c c g k l l j l l c #.#.c c x x x l l c g u x l x b c c c z g g g l x j y l c c c c l j g g r r ",
"r u u z X.l j l o.x x x u y f U ^ ] W d > g l z x x l j k x x x c c g j l x l l l x #.c c c x z l z x c j g z x x x c c l j j g j x l l g c #.#.c c z g g g r e ",
"u u k z z l l l x x x l y 5 G =.p.d.>.U ; > k l x x c x k c b x c c j j l x l k l c c c c c z l k z x x l l x c c l x x l g j l x l j j x c $.#.c x x z k g g e ",
"y u l z k j z k g k x l r 7 H >.f.z.3.~ 7 > j k x c $.c g c c x c c l l x x z k x x x x c o.c z j j k c x l c c c x l x j j l c l j l c b b $.$.c z z c c l r > ",
"y g g z z k x x z k x x g 8 d ^ 3.3.=.U s g z z c O.c c j x c c x z c c b c c c b c X.x c o.c z z j k @.o.x c c c l x l l l x x l g l x c c c c k g g x c k u r ",
"u g j k k l x O.b x x b c g y U ~ ^ U h k c c c #.O.x l k j j x z k x c c c c z c c x x c c k k z j k c c x c c c x x x j l x x x x l z x x l g j g r z b k u r ",
"u u k k l l z x c c c b c l g 8 : 7 s k c c c c c c c x x g y y r h g r r r g g g h y r y u y y y e u z k l o.c c c c x j k l x x x x x x l z x j g k c c k u r ",
"u u l l l j k l z x c c c c g y > > g z x c c z c x c x g r : < 5 7 : 5 < 5 5 6 7 5 : ; < : 5 5 ; : 8 g j l #.o.c b c k k l l k l l c c b x z c l l c c c k u r ",
"u u u l l j j j j x c c c z l g g x x z z x x c z z x g 8 7 a F a a G 3 3 3 3 G 3 3 V V V 3 4 4 G 4 6 g u j O.c c b c j x x l g h g x b b c x z z c c c z l u u ",
"u u l z x x z x x x z z c c x z g k l z z x x l k k g > 7 P ~ _ ) _ _ ] { ] ] ] ' ] =.;.<.<.;.1.1.*.P r : > y g k c x x l x x j j j x x c #.@.z l k l z z k u r ",
"u u l c c x x x x x l x c c c c z l j l l l l x l g > s H _ <.0.2.,.0.p.d.d.a.a.u.a.m.M.M.T.OXOXOXb.=.d < < q t g x c x l x c x x x j x x O.#.c z k k l l k k r ",
"u k l z z z c c l X.c c #.$.o.c c z j g g g g c x h 7 L ` <.w.j.d.j.v.F.J.J.U.J.J.Q.$X*X3X4X3X7X9X+Xb._ I K Y d y x c l l x o.o.O.o.l l x c b b c z z j k k u r ",
"u k j k l g x x c b O.c o.#.@.o.c x x j j g j z g 7 I | y.g.j.f.l.F.U.E.!.E.!.!.(.$X=X4X9X9X9X9X9X*XT.w.w.w.1.%.d 6 u l c o.o.c c c x x x c b c c b c z g k u u ",
"u u l j l l l x b #.b o.#.#.o.c c x c c c x k g s L | g.A.x.j.l.v.U.E.E.E.E.W.~.$X=X4X7X7X7X4X7X7X-X&X@X+X+XOXw.^ 7 6 g c c c c c O.b c c b c z x b b z k k u r ",
"u l z x c O.z l b b c c #.#.l j k k c b b c g 7 U | h.L.L.c.j.f.F.U.E.F.F.F.E.^.*X6X7X3X2X2X-X-X;X8X8X8XwXqX;X+Xw.W d y k x c c c c c b b c x l x c x l k k r e ",
"j l l x x x l x c b c x b c l x b #.c x x g w E  .g.Z.C.V.j.d.d.v.J.Y.J.F.F.J.^.*X;X7X-X=X=X-X;X:XeXeXeX0XwX4X%XR.4.%.P 8 u c k l c c b b c c c c c l z c l g r ",
"l x x c x x x x c c c j j l x b #.b c l g 7 a | y.A.A.x.a.a.a.l.G.J.U.U.J.F.U.^.%X-X7X-X=X=X-X;X:X,XyXrX0X0X3X4X2XT.1.E & > z k k x c c b b b c c l k z z z k u ",
"x c c b O.c x c b l g g g j #.b c l l g > ; F 9.Z.[.K.c.4.q.a.l.G.U.U.U.J.F.J.Q.^.%X-X-X=X=X-X;X:X>XyXyX,X:X0XwXqX&Xn.( % - k z l x g g c c c l k k l k g k k u ",
"l x c c c x x x c x j l g l c c x l z g > & B 8.Z./.K.l.3.q.a.l.G.J.E.J.J.J.J.Y.Y.^.$X-X3X3X3X-X;X:X>X,X,X,XeX0XwX@Xb.! # = k z x k h j k c c c x l k k g k k u ",
"l z c l x l l l x z l c x x l x x x k h 7 2 U 8.B.I.A.x.q.q.a.j.F.J.J.J.J.J.J.J.F.W.^.%X-X3X3X-X2X7X0XrXyXyX>XeX8X@Xb.=.4 s g l l l k l k l x c c c x k h l g y ",
"k k l l l k l x z y k c b x k x c l g 8 q E  .h.L.I.A.k.e.e.a.d.f.v.G.J.J.J.J.F.F.J.W.^.$X=X3X4X5X9XwXtXtXeX0X0X6X&XOXb.*...s g x c c l x x c x x x c c c k u h ",
"k j k k j j l l k y g z c x l l l g > 7 Q <.h.P.`.L.V.j.e.e.a.a.a.f.z.J.U.U.J.F.F.F.J.E.^.$X-X;X4X2X6X6X8X8X;X6X;X*X*X@Xb.=.P 8 g b c c c c z g j k l x x k h r ",
"g j l l l k z z k h g g k k l k g > & a | B.I.[.I.A.x.a.e.a.e.y.e.a.l.J.U.U.U.J.J.F.F.F.W.$X%X&XOXT.M.M.+X&X3X3X3X4X9X4XOX4.T ; > c c c c x l h g g k x x k h r ",
"g g g x x x c c x j k x x l j j h e & 3 { B.I.I.L.x.d.a.a.a.a.e.q.a.l.G.U.U.U.U.J.G.F.F.!.).).m.;.E Y *.w.+X9XqXqX7X5X5XQ.3.E & * h g x b x j h k k z c c k y r ",
"g k x x x x b c l j l c x k h g j r : 4 | h.L.P.C.a.e.e.y.a.a.e.a.d.l.G.U.U.U.G.U.G.F.J.E.!.G.3.+., X + +.b.#X8X7X=X%X^.j.;.L < * h x c b c l l l c c c c k y r ",
"g z c z x x c c l j x c x g h l l g : a | h.L.K.x.e.e.e.a.a.a.e.e.d.l.J.U.U.U.U.U.U.U.U.F.d.1.=.&.D @ X M +.n.@X%X@XJ.p.{ R H < > g b $.c c c x c b c c c g y r ",
"k l l z x c c c x c x j x x l k j g : a ` y.D.L.c.e.e.a.a.a.a.e.y.d.l.U.U.U.U.U.J.E.Q.U.u._ Q -.XXXX7.N + , Q w.H.H.p.^ J J K 7 s l c c b b x l c b k x c k g y ",
"k k k l c c x x c O.c j g z c c z g > 4 } y.L.L.x.p.e.p.a.a.i.e.p.d.l.F.U.U.U.U.J.E.!.U.2.J , &.oX<XoX&.+ . # _ d.l.;.B + $ a 4 h b x c O.O.x x c c x x z k k u ",
"l j l x c c z l x c c c l z b c z g : 4 [ h.D.L.c.e.e.p.a.a.a.e.a.a.j.l.v.G.U.U.U.E.!.E.:.$ X A 7.oXXX&.n     L 2.a.( + . + a a h O.c c O.O.c c x c x x z k k k ",
"k j k c v c c c g x b $.b b b z g g : 4 | h.D.L.c.p.q.a.a.a.a.a.a.a.a.j.l.v.U.U.U.E.!.U.2.H o @ D &.6.&.N O o W 3.l.[ # X # a d l O.b x x b x l x x x h k z z l ",
"k g k z c c c x g x c O.$.$.c k g g 6 4 ` y.A.L.C.g.a.i.a.i.a.a.a.e.e.i.d.l.v.U.U.E.!.U.f.] B + @ m N N N M F =.f.F.<.T B 3 F d h x b x x x x x b b l j u z l l ",
"g g k z z o.z x x c c l o.#.#.O.c l : 3 ' y.A.I.K.x.j.u.e.e.a.a.d.i.e.e.i.d.l.m.J.W.W.E.G.d.] J + . . n M Q ;.d.G.G.f.3._ W H q h x x c b b o.o.@.o.x u y x l l ",
"g k k z c @.@.o.c c x x l x b c x l > a ` y.L.[.`.K.c.g.u.u.a.a.i.i.i.a.i.i.d.l.v.J.U.J.U.W.f.;.B O . O L >.z.U.W.J.E.G.w.] U 7 g b c c x c #.o.o.c l k g y g u ",
"u g l x z o.@.@.o.x x x x x c x l k : 3 | B.{.}.[.L.Z.x.g.i.u.u.e.a.a.e.i.e.y.d.l.v.v.v.U.(.W.d.] J B J ] f.!.(.!.E.!.E.d.{ L 7 g b c c c c O.O.o.x l l k g u r ",
"u g g l x x z c o.x l l x c c x k z - 3 5._..X.X{.K.K.A.x.j.i.u.q.e.u.q.i.e.e.d.d.j.f.d.F.E.E.G.a.3.,.3.d.F.Q.!.!.J.J.F.q.] L < g b c c c b b O.o.x x j k k u r ",
"u g l z x k z @.O.x x x O.O.x x c l > 4 5.S.|.|.}.`.`.I.K.V.j.u.d.i.g.d.d.e.i.a.a.e.e.a.d.z.J.J.J.G.z.l.F.G.J.E.J.F.K.c.0.` L < g c c c c c x c o.o.c c z k u u ",
"u u p x x l v @.O.x x c O.o.x O.o.z y w / 5.S._.|.}.}.{./.L.C.V.k.x.x.x.k.j.i.q.e.q.0.q.e.d.l.J.U.G.f.p.4.d.F.m.v.z.F.v.y.{ U ; r c b c c c x c o.@.c c c l u y ",
"u u k k x z o.v c c c b c x X.$.#.x k S A Y } S.]..X X{./.I.P.L.A.A.D.A.Z.j.e.e.e.e.e.e.u.u.d.l.z.e.>.~ ' 2.f.f.d.l.K.P.B.:.L ; e c z l c c c c o.@.c c z z u y ",
"u u l l l l X.z x x c c x l j x c x p u i q C 5.S.].'.D.g.x.V.L.`.{.{.[.P.C.x.j.x.x.c.j.c.x.x.c.l.0.{ ~ ~ ' 3.p.j.x.A.Z.y.} I 7 u c c c l c b b @.@.c x l z u u ",
"h g l l x x c x j l x x x j h l c j p y p 0 q E 5.t.8.8.| { 9.S.'..X X{./.L.K.K.L.K.K.L.K.L.A.V.c.u.2.=.~ ~ ] 9.x.Z.B.0.} Q P i g l c z l z c c b v c z k z k u ",
"y g z c c c b c l l x x x x l x c j p p p p w Z Y R R Y F B E r._..X X`.L.L.L.L.L.L.L.L.P.L.K.Z.j.a.p.3.:.! T  .h.Z.t.( P C i i g j h g z c c c v c l z c z k u ",
"g g l c c c x x b c x x x x x x c x k j i i i 0 N 2 2 2 2 < V } S._._.N.g.g.g.h.h.h.h.h.h.N.g.y.3.,.2.2.' T J ) 9.t. .E q 0 i u j j h g k x c c z z k k z z k r ",
"g k l x x x g l b b x x l x x c o.c c z u i i i 0 q 5 5 5 5 0 Y } 5.5.| ) ' | | [ | | | | | [ ) ) ) ' ' W L J T ' } ! P i u k p g j l j g k l l z l u u k v k e ",
"u g k k j g g j k c o.l l x x c c c c c u u i p p p i 0 0 i 0 0 V J K B F J G G G J G V J V J J F G G K G G G K J P C w l o.z u g k l l l l j y k z c c c c k u ",
"u g l k k k j g g z X.l l x z o.c c c c z z p p p S S i i i i 0 5 5 < 2 2 2 5 9 9 2 9 9 9 5 9 2 2 9 9 9 C C G C V q 6 i z @.o.u y y j l x l j g k z c c c l g r ",
"g k x z l k j j k x z z x o.c o.o.z z z c @.o.p p i S i 0 i p p i i i 0 0 i 0 w i i 0 i 0 0 0 0 q i i Z S S Z S S S y y c c o.j h g j x c x g g k x c c z k g u ",
"u l c g g l y u x c o.o.o.z u x @.@.c z @.@.@.l u i i t t i i S p S p i i p p S p S p ..p i j S p p ..i S j p p ..l j g l z c z k l c c b c x l c c k k l k u u ",
"u k l k k k g g x z o.v c z j x c c c c O.O.x j j h y h i i i ....i S S p S p S l p S X.S p X.S X.p S X.p z z z x j l x l l x c b c b b x c c c c c j l l u u u ",
"u u g l c c z x o.x x X.c z x l x x x c x x l j k z j j x j ..X...S S j ..p S S S S p p S S p X.X.S S X.l p z z l j l x l x x #.#.O.#.b x c b b c x x x l u u y ",
"u u z c c b x z x c c c z z x l l l l l x x x c c x l l l j h i j j j j u l p j l u u p p u u X.u p p l u l v z j j o.O.l x X.#.#.c b b #.O.O.c l j l l j p y y ",
"r k z c b c z l c x z z k l z z l l j l x x c c c o.x x x l j y j j j l c z l l z z z p u u l u u l l p l l l u y l o.O.l j x b c x c b O.O.O.x x l j j j j y y ",
"u u c c v c c z z x u y u u x c c x l l x x x l c O.x c o.c x j j j l o.@.o.z z @.@.o.l l l z l u c v X.o.X.u u y x x x l k z z x x O.x j x o.x c x l j j u u u ",
"u k c o.c c z z z x k p u p x x l l l x x x l l x c x X.c #.c l j j l x x l x o.z z l x z o.z u y z c z @.@.z l l x x x l z z k x l j j l O.o.x o.@.x x l u u u ",
"y u z c c z c c z z k j k k z l l j l x l l j j l l x x o.#.o.l l l z l j k z c l p l x z z z u g z z c @.@.o.z x x l l c c v z l l l l c c o.x @.@.c l j k u u ",
"e u k z z u z c o.x x x c o.z l l l x x l l l l j j l l c x l l z x x k j x o.z l l j x X.v z v c c o.o.z c @.z z z l j o.o.c z x x c O.O.X.x O.@.c k j u u y r ",
"y u u z z u v v z z z z o.x j k c c c k k l l x x j l l l l l l z z z l k o.c c j j l c c c c b #.b b c j l x c c z z z z c c c O.b O.O.$.O.x x x j j g u k u r ",
"u u u z u z z z v z z z x x j z b c c l l l l z l l l l j j k x c z z x l l c v x z x c b b v c v #.b z l k l x c c x z z c c v O.b O.$.#.#.O.x l j j g l u u r ",
"u u u z u u u v o.o.o.z x l l l x x c c x z z j l l k j j l x c @.@.z l k k X.v c c z v b b z z z v c z x x k k l c x z z c b v O.c O.O.x c O.b b c x g l z u r ",
"u u u z z u u u l z c x l j l x x c x c x l l g j l x l l l z z z o.z l u l z c c c c v v c z c v v c l z z c k k x x j c v v c c c c x g c O.c b c c k u u u y ",
"r u u v u u u z l z z o.j u k x x c x x z l k k g g j l x c l g l x l k l u k z c z v z c c c c c v c k c c o.j g k l l c c c z c c c k y c b c c b z k k u y r ",
"e u u u u u u u l l l o.l l l k l x x k c z k z k g y y j k k j k l l l u u u z c v v z c c l l z z x j l c x l g k g j k x c l x c z l l c c c c c z k u u e e ",
"e r u u u u u z l l l u x z l l k z x z c z l c l g g g g k k j k l l g k u z z z z z z z k g g k z l j l z k k z k k k g k c l k x l l z x c c l j k p u y e > ",
"e e u u u u v v z z u u l X.l u k z c c c z z c x g l l g k l k k k k j j k z v c z z z k u u h y k l j l z k l l l z j g k l k l x k l x c c c u t u u t y e - "
};
