/* XPM */
static char *__resized[] = {
/* columns rows colors chars-per-pixel */
"80 80 212 2 ",
"   c #08041E",
".  c #0C0725",
"X  c #110C27",
"o  c #0F112A",
"O  c #13192B",
"+  c #181735",
"@  c #291A3E",
"#  c #1C282E",
"$  c #1B2737",
"%  c #272C2C",
"&  c #2B2E2C",
"*  c #352D27",
"=  c #332E2A",
"-  c #382F29",
";  c #2C312F",
":  c #33322E",
">  c #3C342D",
",  c #3E382E",
"<  c #272B35",
"1  c #2C3334",
"2  c #263539",
"3  c #2F353A",
"4  c #2B3D3C",
"5  c #343432",
"6  c #3B3632",
"7  c #343A35",
"8  c #3E3A32",
"9  c #30353A",
"0  c #3B3739",
"q  c #333D3A",
"w  c #3E3A3B",
"e  c #41362E",
"r  c #43382F",
"t  c #423730",
"y  c #453B32",
"u  c #4A3E34",
"i  c #453C3C",
"p  c #493F3D",
"a  c #2D403F",
"s  c #35423D",
"d  c #3B423C",
"f  c #3D483F",
"g  c #444137",
"h  c #4D4136",
"j  c #4E4239",
"k  c #514337",
"l  c #53453A",
"z  c #58473B",
"x  c #56483B",
"c  c #5B4B3D",
"v  c #604F3F",
"b  c #61503F",
"n  c #1E1D44",
"m  c #282548",
"M  c #273C45",
"N  c #343D43",
"B  c #2E2E54",
"V  c #423E41",
"C  c #493F40",
"Z  c #463A59",
"A  c #443D63",
"S  c #2B4343",
"D  c #264748",
"F  c #2A454A",
"G  c #2D4B4B",
"H  c #344A43",
"J  c #354948",
"K  c #2E524F",
"L  c #36564E",
"P  c #334B54",
"I  c #2D5351",
"U  c #2E595C",
"Y  c #335653",
"T  c #345A54",
"R  c #395A54",
"E  c #37575A",
"W  c #345D5A",
"Q  c #34635D",
"!  c #3A665B",
"~  c #325D60",
"^  c #376965",
"/  c #3A6B64",
"(  c #3B776B",
")  c #3C746A",
"_  c #386B76",
"`  c #3A7672",
"'  c #3C7B74",
"]  c #3E7C7C",
"[  c #4C4240",
"{  c #534642",
"}  c #5E4E40",
"|  c #4F574B",
" . c #604F40",
".. c #625141",
"X. c #695644",
"o. c #466B5E",
"O. c #4C4E6F",
"+. c #416D65",
"@. c #437D6D",
"#. c #437D71",
"$. c #507A74",
"%. c #62687A",
"&. c #3F8070",
"*. c #43806E",
"=. c #438474",
"-. c #458879",
";. c #468B7B",
":. c #558D7B",
">. c #59887A",
",. c #4C947C",
"<. c #4B997F",
"1. c #58907D",
"2. c #3D7A85",
"3. c #526C88",
"4. c #7B7795",
"5. c #3D8384",
"6. c #438885",
"7. c #4E9D84",
"8. c #4B9788",
"9. c #5A9581",
"0. c #509F85",
"q. c #599C87",
"w. c #479896",
"e. c #619D87",
"r. c #4DA786",
"t. c #4FA08A",
"y. c #51A186",
"u. c #51A38A",
"i. c #55AB8D",
"p. c #4DA499",
"a. c #4DA59C",
"s. c #54AC93",
"d. c #52AA96",
"f. c #57B093",
"g. c #5AB493",
"h. c #5CBA96",
"j. c #56B29B",
"k. c #58B798",
"l. c #5EBD99",
"z. c #67AB93",
"x. c #6AB697",
"c. c #75B89C",
"v. c #52AEA3",
"b. c #59BAA3",
"n. c #55B6A8",
"m. c #59BDAB",
"M. c #4EA9B2",
"N. c #54B7B3",
"B. c #5EC39B",
"V. c #61C59D",
"C. c #63C99F",
"Z. c #70C19E",
"A. c #5BC2AD",
"S. c #5BC4B2",
"D. c #5CC7B8",
"F. c #5ECCBC",
"G. c #65CCA1",
"H. c #67CDA7",
"J. c #7AC5A3",
"K. c #66D1A4",
"L. c #6BD2A6",
"P. c #6AD6A8",
"I. c #6BDBAA",
"U. c #74D6AA",
"Y. c #7EDCAF",
"T. c #60CFBD",
"R. c #7EDFB0",
"E. c #6EE3AF",
"W. c #7AE3B2",
"Q. c #55BAC7",
"!. c #5CCDC8",
"~. c #5CCBDA",
"^. c #61D6C9",
"/. c #62D9D7",
"(. c #65E1DA",
"). c #5FD2E1",
"_. c #62DAE4",
"`. c #66E4E9",
"'. c #68E9F3",
"]. c #86849B",
"[. c #858CA6",
"{. c #9AA6BC",
"}. c #A0A1B5",
"|. c #82CDA8",
" X c #84D4AC",
".X c #8CDCB3",
"XX c #89E5B8",
"oX c #8EEABB",
"OX c #91E6BA",
"+X c #94EDBE",
"@X c #97F0BE",
"#X c #9CF1BF",
"$X c #A7F4BF",
"%X c #B8F9BF",
"&X c #D1FDBF",
"*X c #B8C1D2",
"=X c #9AEBC2",
"-X c #95F3C1",
";X c #9BF3C2",
":X c #9EFBC9",
">X c #A3EDC2",
",X c #A1F4C4",
"<X c #A8F8C7",
"1X c #A4FBCD",
"2X c #BBFBC2",
"3X c #B5FCC8",
"4X c #ABFDD1",
"5X c #C5FEC7",
"6X c #CBFEC3",
"7X c #D4FFC2",
"8X c #D8FFC1",
"9X c #C8FFD0",
/* pixels */
"> - > > e e r r r y r e r r u e e g > * > r h y y r r r e r r r r r e e r u r r y y u r u u u u u u k r u r h u e * * - e y h r r u u u r u u r u u e r r r e - ",
"* > > > r r u u u u r r r r r u r , * * * r h h r y u r r r u u r r r r r u u u r r r r u h k k u k k u u u u h u e e > r r y r e u u u u u u u u u e e r u r - ",
"* > r e r h k k k u u r r r u u g - 5 a ; 8 h r r u u k k u u u u r u u v u u u y r e y u k k k k h k k k h r h z z u e u y r - - u u u u u u v v u u r r r e e ",
"e r u y r r h k k u u u u u u e s s ! ( ! s , r r r r r u u u g u u z z u v u u l h u k k k l l l k k k k h g h k u k k u e > > e t z z u u u u u u u r r r e e ",
"r u h h u u h h k h u u k u r * 7 ! ,.r.;.R 5 : r u y y h y r y u z u z v v u u l u y l l k k l z l l z l h g h k u k z k r e - > y l l k h k k u u u u u u e * ",
"r y k h l k h h h k h h k u > = a ( r.h.y.! 2 : e h h l x y e y u u u u u u v u u y t u k k l l z z z z k u r h k u k k z u r e y u l z k u k l u u u u u u e e ",
"e y h k l z z l l l h y h k y > 7 R ;.y.=.L 7 > y j h h h h u l z u u u u v z u u u u l k l k z z c c z z z h h z k z z z z k k c c z k k k l l z u u u u u u r ",
"r u k k l z z l l x j y h l k y d f R ! L f y y h k l h h g k z z u u u v v u v u u l u l u l z z z c c c z k l k z z z k u r v b z z l h l k h u u u u u u u r ",
"u h h l z l k h j j h g k k l l h t 1 1 5 g x l j u l l l j l l z u u v l l z z h h g l k h l c z l z z l x c x z z c z h - - z c l z l k z z h u u y u u k r e ",
"r g h l l k u y u h k x k k z x h u , : r h z k u j z c x l h l u u u u z x k k h r r h l g l c ..c l l h k z x z k x z h g r u h x h h k z k r y j h u u u r - ",
"r u h l k h u r y h z c x l z x l l h y h l x l l l z c c c l l u u u c l h h h h y y h h l x b X.c l g h h x l k z k z x x z r y l u h k c z g j l k h u y r > ",
"r u h h h h k g g x c c z x j l l l l l x l z c v c c x x c c x l p l z j h y y h j h l l l x c ..l j h k l x j k z z l c c x l u t l l x x c c x l h u u y r r ",
"r u k k h h h h l x c b x l l z z j j x v c c l c c x l z c c x l u j z x u h h y g j j j u y u u u h l x c b c l k x z l l l l l h l x c l l l x x k h u u y r ",
"r u k l h g h l c x c ..c l x c z u j x .. .c l l l k x l l j l z z u z c u j l y u l l j u t > y u k z c b b c x l x z h h l x l l l c c l h l x x x h u u y r ",
"y u k l l j l c c c v } v c l l l l z v  ... .l k g l l c u y h l u u l h u h l l l l x l x j l { x c c x k z c c c c c x l l c x l l c l l l z z l k h u g y r ",
"y u k l x l c c c c c c c c x l l z v v v  .c z l j j l z h g j l l u u u y y u k x c c c z x x c x z z k z c x l c c c z j j l l h y t y k l u l z l u u h u r ",
"y u u z z z z { l l h g k x c c x x z c z z c z z l j j x j h l x z g h k g r d l c ..b c c x x x l x x l l c j h c c c c h h h j h r > > l x u l c l u h h y r ",
"u u u z c z j z v h 7 7 7 y x c z h h h k z c z z x j j k g l z c c k k x l k j l c } ..v z x c x l l c h u x l l c c c c z g h h l x h y l } c c z l j u h r r ",
"u u u l z l j l c g 1 4 5 8 l x z h h g g l z z z x l l l x x z c c h k x x l l l x b c c c x x z l x c l h l c c c c c l l k h j x x l g c ....v c l h h h r e ",
"y u z z l l l l l d 7 a 7 8 l x x k l l k h l z x x c l l c c x c z h k k x l l l c b c z c x l l l x x l l l c c l x x j h j l l l j j z b ....c z z l l k r e ",
"u u l z l j l l h y y 8 y g j x z l l } b c x l x } ..c h c c l z z z l x x x l c c c l c } c x l u k c z l c c c x l x l h l c l j l c b b ..X.c l c v z l r e ",
"y h k l l l x x l h j k l j l x { x } ..b c c x } } } x j z c c c z c c c c x c c c x x c } c l l h l v } x c c c l x x l l x x l h l x c b c c l h u c v k u r ",
"u u k k l l x c b x x ..c x x x c  ..... .b c c } } x x l j l c c c c c v c v } } c x x c } x x c l l  .c l c c c x x x j l x x l x z l x x l h h h r l c k r u ",
"u u k k l l l z c z c ..b z l l c  .} c c c c c c } c c x x l z c c x c c c v } ..} x c c } c b c l k l l l c } c c x l l l l l x x x x x z x x k g l c c k u r ",
"u u l l j l j l l c c c c z l l x ..c x c c z c c x k u y y y t h h l x x c b b ..c l x c v ....c x l j g j } } c ..c l l l l l l l z c b x x c k z c b z k u y ",
"u u u k l j j j l l c c z x l j l c c c l z z z z l t : & : : & 5 r k l x x b ..b c j j l x ....c z x l l l ..} c ..x k l x z u g j c b b c c l z z c c z k h y ",
"u u l c x z l l x l l x z c c l j l l c z z z l g 8 q S G F G G H s 8 l b z v c c l k h k x x l l l l c z c X.} l c x x x x l j g j x x c ..b z l k z k z z u r ",
"u u l c c c c c x x x x c  .c c l l l l z l l u y d L / @.) ) @./ T s r h g y g y r , > , , , 6 6 y l b } ..X.c l c c x l x c x x x l l x } ..c z l k k k k k r ",
"u k l l z z c c l } c c ..X.} c z z l u u u y t d L @.y.f.i.i.f.y.*.H ; & : ; & & % % % % & & & 1 6 g v ......c x c x x l c ..} } c l j l c b b c l l k k k u u ",
"u u k j h l l x c } } c } .. .} c c z l l j i : s ) 0.V.P.G.H.P.C.r.( Y S K K I I I T T T R W ! R H y l x l l z c x x l { c c c c } } x x b b c v v b l h k u r ",
"u u l l l l l x c ..c c ....} c z l z c z z u & S ) 0.V.E.I.I.P.C.f.7.=.@.*.=.&.&.=.:.9.9.9.e.e.9.o.H t > > r h c x l x c c c } c c v c v b c l x v b l k k u r ",
"l l l l c } x z ......c ....l j l l c  ...} l = 4 Q -.f.G.L.G.V.f.i.i.i.i.f.i.r.i.g.c.|. X|. X.X Xe.R 2 # # ; g j j l c c z } c } c c v b c x l x c c l k k r e ",
"h l x x c { l x c ..c x c c l x } } c c ..z y q T ' 8.u.l.B.x.g.i.g.B.G.K.K.G.K.I.E.oX;X,X,X,X1X=XJ.9.^ / R | s 8 h l z h l c l l c v b b v c c c c k z z z h r ",
"l x x c c l x x c c c j l x c c ....c l l y H R -.w.0.t.d.f.k.f.g.x.G.I.E.K.I.E.oX@X:X1X4X1X1X1X1X=XJ.z.x.z.9.W q 8 u l l l c k h x x c b v b c x z l l z z k h ",
"x z c b c c c c v l u h g k ....c l l j 8 q Y 6.v.N.j.u.7.u.i.g.B.G.G.G.C.V.P.Y.+X@X;X;X;X;X;X;X#XOXXX.X=XOXJ.:.L ; 6 l c c z l x x h g z b c z l g l k h k k u ",
"z c c c c x l x c l l l h l c c l j y 8 N W 6.a.m.S.j.u.7.7.i.g.B.K.G.B.B.B.L.XX#X,X:X@X@X@X@X$X$X<X3X4X4X1XXXJ.1.L 7 t l l z l x l g j k z x c x x k k h k k u ",
"k x z x l l l x z l l z x x l l l y 6 a ~ 6.v.b.m.k.s.u.8.0.i.h.C.K.C.C.B.B.P.XX#X<X,X#X+X@X#X$X&X5X6X5X3X4X-XOXJ.>.R 7 8 j z c x k k j l l x c v x x j j l h r ",
"k k k x l k l l x u k b b c l x x r 1 G -.n.F.m.f.y.u.u.0.0.i.g.C.K.C.C.B.B.K.R.oX#X#X@X+X@X$X%X&X&X8X6X5X<X:X<X=X|.1.R q y c v b c c x l c c l l x c c x j k g ",
"k h k l k j l l k u h l z x k l h > & G 6.N.^.A.i.7.0.0.0.p.i.h.C.K.K.C.V.C.C.U.Y.XX@X:X-X-X#X$X%X&X6X&X&X%X3X<X<XOXZ.1.! d t j c b c c c c x k h k k x x k g r ",
"h j j l l l z l k h g h k k l h r > & D 6.m.T.m.d.0.0.u.0.0.i.h.C.C.C.C.C.C.C.C.L.Y.oX#X:X-X#X#X#X%X&X7X&X7X%X3X1X;XOXJ.>.L % > h c c c c x k h k k k x x k g r ",
"h h l x x x c c c h h z x l h h 8 7 S Q 8.n.m.b.d.u.u.0.0.u.u.g.V.B.C.C.C.C.C.B.V.L.Y.oX#X#X#X@X-X<X3X6X7X7X5X%X,X:X4X=Xc.+.2 % , g h z b z g h k l c c c h u r ",
"h l z z x x v v x g l c c h y > 7 H / 6.a.v.j.d.u.u.u.u.0.u.i.i.g.x.V.C.G.C.C.V.B.C.L.Y.XX@X#X#X;X<X3X3X9X9X2X<X#X1X4X>Xc.+.< & - h z c b z l k l x c c c h r r ",
"h l c z x l c c j j x c x g e : a ^ w.n.m.j.i.u.u.u.u.u.u.u.u.u.i.g.B.V.G.G.C.C.V.V.C.L.R.oX:X:X;X;X;X>X>X>X,X,X;X1X1X+Xx.o.2 : r h b b b c x x c c c c c h y r ",
"k l l l x c c c c c c k x k y & S &.v.F.S.f.0.0.r.u.u.u.u.u.w.0.y.i.l.V.G.G.C.C.C.V.B.V.L.R.oX-X+XY.c.q.9.e.c.OX:X1X-XXXZ.,.Q H , g k b v v x l v b l x c k h r ",
"k l h z x c x c c b c g z k g : D 3.v.T.D.j.0.0.u.u.u.u.u.u.0.0.y.i.h.C.G.G.C.C.C.V.B.V.C.U.E.W.W.x.*.G 4 G $.c.=X1X-XU.G.g.,.! s 7 g z } ..c x c b x x c k k k ",
"l h l x c c z z x c v x k h h : a #.a.D.H.a.0.0.t.u.u.u.u.t.t.0.r.i.l.C.G.C.C.C.C.C.C.C.C.C.K.K.B.7.~ < X X M >.J.oXR.G.G.B.i.-.Y ; r k b ..} c x x x l k k k k ",
"h j k c b c c x h x b X.b v h : a ` a.N.m.f.0.0.u.u.u.u.u.u.u.0.u.f.B.G.K.G.C.C.C.C.C.C.K.G.B.<.-.$.%.%.Z @ + P >.x.G.V.g.7.=./ K 4 d j x x x k c c x g k z z l ",
"k h h x c c c x g x v b X.b h & a ` v.N.S.g.0.0.t.u.u.u.u.u.t.0.u.s.l.C.K.C.C.C.C.C.C.K.K.K.<.^ D O.].}.4.A + + M @.i.h.7.^ F G a a g j x x x x c c c g u z z k ",
"k h k x c c c c x c c l } b h : M ` a.A.S.b.r.t.t.y.u.u.u.u.u.0.u.i.g.B.C.C.C.C.G.G.G.G.I.K.<.D O Z ].*X{.3.n . o F ,.h.=.M . $ 2 a g j c } } }  .} x u u k l k ",
"h h k x c ..} c c c x x x l k 5 4 ` w.A.D.A.j.d.t.y.0.r.u.u.r.u.u.i.s.g.V.C.K.G.C.B.C.G.E.E.<.G X @ O.[.4.3.B . . M ;.g.@.2   O 2 a g l x b .. .} c l l h h u h ",
"h h k x { c } } c x x c z k h : 4 ` a.D.^.F.b.j.u.0.u.u.u.u.y.t.u.u.u.i.g.V.C.G.G.C.G.G.P.I.y.Q + + B O.O.O.B + O I <.k.;.F O $ 2 s g l c } ..} } x l j k u u r ",
"u h h x z z z z } c l j x c g = M ] N.~.(.^.S.b.v.u.u.0.y.y.y.u.u.0.7.u.i.g.B.V.G.G.G.G.K.K.g.;.T m + X n m B M P ' i.B.u.( F F S s r h c c c ..c x l l k k u r ",
"u u l z l l } } c c l l v c g & D 5.!.'.`.^.A.A.m.j.d.0.<.0.y.u.u.u.0.0.u.i.g.B.C.K.K.G.K.K.V.g.0.W $ . . X m E *.g.B.K.V.u.=./ K 1 y l c z z c } } c x l l u u ",
"u u u z l l }  .b c c c v c g * a 3.M.).`./.F.!.F.m.j.i.y.u.u.t.u.u.t.0.y.y.i.x.B.C.C.C.C.C.K.P.G.,.Y $ o O F @.i.P.P.B.K.G.f.-.I 1 y l c c z z } ..} c c k u u ",
"u u l l z z } } c c c b c z k g d Y 2.M.~.`.(.(.^.F.D.A.k.j.d.u.u.0.u.0.<.0.<.i.g.g.h.B.B.V.P.E.E.l.;.! K T *.i.K.E.C.x.C.H.V.8.W 1 > k c v c c } c c c c z u r ",
"u u l l l { z z l l c c z k h k j q G _ M.).'._.^.F.D.S.D.A.b.d.u.0.0.0.y.y.y.y.i.i.r.i.h.B.K.P.P.V.g.y.7.y.f.C.K.C.h.i.h.h.i.-.T 1 t l l z c v .. .c c l l k y ",
"h h x l x c c x k k x x x g g x z 8 & J 3.Q.).~.N.v.v.N.F.!.!.S.j.d.d.s.s.f.f.s.s.i.t.i.f.B.C.C.V.K.G.G.V.V.l.B.B.B.k.f.d.0.-.^ H 7 y k x x c v b v c k k z u u ",
"y h l x c c b c l x x x x l l c z u 6 N _ 5.w.w.5.&.( 6.N./.`.(.F.A.A.A.S.S.S.D.A.b.j.s.f.h.B.B.B.A.K.G.g.<.,.r.h.H.S.m.d.6.Q S 7 r > r x b v c v c z c z z z u ",
"h h l c c c z z b c x x x x x c c z j V P P U U I K M U w.Q.`._.F.m.m.S.S.S.S.S.S.n.d.r.y.y.u.u.i.i.g.r.=.! W ( 7.A.S.m.w.^ S 7 t g u g h z c z c z u z z z k u ",
"h h l x c l h x b v c l l x x x c } c j 0 3 2 < 2 ; % m 2.M.Q.Q.v.p.a.a.a.a.a.v.p.w.8.;.=.=.=.-.=.;.-.&.W D D I ( t.j.a.' L : > g j l j g l l l l l k u u v u y ",
"y h k k h h h h j c c l l x x c c c c z i 0 0 0 7 0 5 N P _ 2.2.' ( ` ` ` ` ` ` ` ) ^ Q Q Q Q Q Q Q ! Q I D D D Q ( #.` Y H u u u h l l j l l u k z c c c c u r ",
"h h l k l h j g g x x z l x c c c c c z u p [ C g p i 0 N J P I G G F G G G I D G G F F G F G G G G G G F S S D F P I G d l c u y u g x x l h u u c c v c l k u ",
"h k x l l k h l l c c x c c c c } z z z c } } p p C p i 5 1 ; ; 3 9 9 1 3 1 < 3 1 9 3 q 9 3 9 9 3 9 3 3 N N N N N 3 ; & r z v u y h j x } x j h l l z c z k u u ",
"u l c k h j u u l c } } c x h c  .} c z } } c p p i i i 0 0 0 0 i 0 0 0 0 i w w i w w w i w N i w d w w V [ N V V w t r k z c l l l c c c c l l c c k l l k u u ",
"u k l k k l h k c c c c c c j z c c c c } c l g j i i i i i V [ C p p p p V p p C p p C p p C C [ C V [ C C l C j g j l l l x c } c ..b c c c c c c j l l g u u ",
"u u h z z z x x { z c c c c x x z x x c c x l g u j y g j j { { [ V C C [ p C C C C { p p p C { { C C { l l z z j j x { l l x ....} ..b l c b b c x x l l u u u ",
"u u l c b c x x x c c c z l l l l l l l x x x c x j j j u g p V p j j [ p C C p C C p i i i p { p C C l p l } l j j } } x l } ....z b b } ..} c x j l l l u u y ",
"y k z c b v z l c c x x l j l c l l l j x x c c } } } j l j y i i p p j l l p j l l u i u i p p i u p p j l z u y l } } l j x } c x c b } } } c x l j j j u y y ",
"u k c v c c z z z l h y y j l c c x l l c x x l } } x x } l u u y u u { z z u u z z l h u u u u y j l l z { u y y l c x l l l z x x c x j x } x c c l j l u u u ",
"u u c c c c z c c x h u y j z c x l l x x l l l l } x c } } c j u j l l l l c c z l l l z } l u y l z z }  .z l l x x x l x c z l x l j l } | x c  .x l l u u y ",
"y u z c c c c c c z l j l l x z l h l x x l j j j l l c } ..} l l z l j u l z { l j j z c  .z u u x c c }  .} c c x l l x c c z l l j l c v c c  . .c z l p u y ",
"e u l z l u z c { z z z c c l l l l l x l j l l l j l x { x l l l c z l l z } z l j j { z z z } c c c } x x } c x x j l } } c c x x c v } x x b  .c l u u u u r ",
"r u u z z u v v z z z z c c j l c c z l l l l l l j l l l l l l z z z l l z } c l j l c c c v b ....b z j l x c c z z l c z c c | c b b ..} c c l k h g u u u r ",
"u u u z z u z c v z z z c x h l c b c l l l l x l j l l j j l l c z z l l l c } z l z c ..b c c ....v x l l l l c c c z z z c b v v X.X.....} c j j k k z u u u ",
"u u u z u u u z c c { c l l l l x x c c x x x l x l l h j l l c  . .c l l u }  .} z c v ..v z z c v c z z l l l z c z l z c b b c c b b c b } v c c x k u z u r ",
"u u u z z u u v z c c c l j l l x c c z x l k k j k l x x l c l c c z l u l l } } c c c v c z c c v c l z z l l h z z l c v b c c c v l g c } c b b x k u u u u ",
"r u u v u u u u l z z x l j l l x c x l z z k k k u k z x x l h l l l l z u u z z c c c c c c c v v c l l c z l h k l l x c c z c c z k h c b c b c z l u u r r ",
"r u u u u u u z l l z c l l l l l x l l c z k l l u y u k l k h l l l l u u u c c c v z z c l l z z l j l c l l h k j h k x z x x z z l l x c c c c z u u u e e ",
"e r u u u u u u z l u u l z l l l z c x c z l c l u u g u k l h u z l l u u u v c z z z x k h h u l l h l z l l l k k l k k z k l z l k l c c c l j l u u y t e ",
"e e u u u u v v z z l u l { l u l z z c c z z c z k l l h h l l l l u l u l z v c z z c l u u y u l l l l z l l x z l h h k z k k z k z x c c c g y u u y y t - "
};
