/* XPM */
static char *__resized[] = {
/* columns rows colors chars-per-pixel */
"80 80 224 2 ",
"   c #08061C",
".  c #0A0525",
"X  c #120C2A",
"o  c #0E1124",
"O  c #13172B",
"+  c #191636",
"@  c #2B1D3C",
"#  c #1F2529",
"$  c #1A2737",
"%  c #2C2D2D",
"&  c #362D27",
"*  c #332E2A",
"=  c #2D312E",
"-  c #34322D",
";  c #3C332C",
":  c #272D34",
">  c #312D31",
",  c #243636",
"<  c #2C3432",
"1  c #2D3936",
"2  c #2C3B3C",
"3  c #333433",
"4  c #3B3632",
"5  c #333936",
"6  c #3B3B34",
"7  c #363539",
"8  c #3B3639",
"9  c #343B3B",
"0  c #3C393C",
"q  c #41362E",
"w  c #43382F",
"e  c #423730",
"r  c #453B32",
"t  c #4A3E34",
"y  c #403738",
"u  c #453C3C",
"i  c #493F3C",
"p  c #2E423F",
"a  c #38443D",
"s  c #414037",
"d  c #4D4136",
"f  c #4E423A",
"g  c #514337",
"h  c #53453A",
"j  c #58473B",
"k  c #56483B",
"l  c #5B4B3D",
"z  c #604F3F",
"x  c #61503F",
"c  c #1C1941",
"v  c #2D2C4E",
"b  c #263C46",
"n  c #2C3E42",
"m  c #373D42",
"M  c #2B2A53",
"N  c #453F41",
"B  c #493F40",
"V  c #433656",
"C  c #2B4344",
"Z  c #2A444B",
"A  c #29484A",
"S  c #2D4C4C",
"D  c #374646",
"F  c #324B4A",
"G  c #26504E",
"H  c #2B504E",
"J  c #34534D",
"K  c #385A4E",
"L  c #354B51",
"P  c #2D5554",
"I  c #2E5A5A",
"U  c #335453",
"Y  c #335A55",
"T  c #3C5C53",
"R  c #355559",
"E  c #335D5A",
"W  c #35615C",
"Q  c #38675C",
"!  c #355A63",
"~  c #366462",
"^  c #366A63",
"/  c #3B6D65",
"(  c #38656A",
")  c #386C6A",
"_  c #397366",
"`  c #3C7569",
"'  c #3D7B6D",
"]  c #3A6C76",
"[  c #3B7472",
"{  c #3A7674",
"}  c #474243",
"|  c #4C4242",
" . c #514646",
".. c #5E4E40",
"X. c #5F5040",
"o. c #604F40",
"O. c #625141",
"+. c #695644",
"@. c #466B5F",
"#. c #4D5170",
"$. c #635979",
"%. c #44756A",
"&. c #417A6B",
"*. c #487D72",
"=. c #5E707B",
"-. c #3F857D",
";. c #438373",
":. c #458977",
">. c #478979",
",. c #528A79",
"<. c #568879",
"1. c #489078",
"2. c #4A937C",
"3. c #3E7B87",
"4. c #596384",
"5. c #7B7794",
"6. c #418B84",
"7. c #428888",
"8. c #4B9581",
"9. c #4E9D85",
"0. c #45938A",
"q. c #4E9E89",
"w. c #579A85",
"e. c #519E84",
"r. c #428C96",
"t. c #499B94",
"y. c #489997",
"u. c #629B85",
"i. c #4DA285",
"p. c #4FA088",
"a. c #50A086",
"s. c #51A38A",
"d. c #55AB8D",
"f. c #5CA88D",
"g. c #4EA292",
"h. c #55AC92",
"j. c #54AD99",
"k. c #57B192",
"l. c #59B493",
"z. c #5CBA96",
"x. c #56B39D",
"c. c #58B69E",
"v. c #5DBD99",
"b. c #66A890",
"n. c #67B596",
"m. c #76BC9D",
"M. c #75BC9E",
"N. c #4899A4",
"B. c #4DA7A9",
"V. c #54B4A4",
"C. c #58B7A1",
"Z. c #57B9A5",
"A. c #59BBA4",
"S. c #53B5A9",
"D. c #56BAAC",
"F. c #59BEAA",
"G. c #50AEB3",
"H. c #54B8B7",
"J. c #5EC29B",
"K. c #5FC89E",
"L. c #61C59D",
"P. c #6AC29C",
"I. c #63C99F",
"U. c #78C19E",
"Y. c #5EC1A2",
"T. c #5BC2AE",
"R. c #5BC5B4",
"E. c #5DC8B6",
"W. c #5DCBBA",
"Q. c #67CAA1",
"!. c #65CCA1",
"~. c #79C7A4",
"^. c #66D1A4",
"/. c #69D5A6",
"(. c #69D7A8",
"). c #6BDAAA",
"_. c #73D5A9",
"`. c #71D8AA",
"'. c #60CEBA",
"]. c #6FE3AF",
"[. c #79E4B2",
"{. c #54B9C6",
"}. c #56BED1",
"|. c #5DCCC5",
" X c #5CCBD5",
".X c #5ED2DD",
"XX c #61D6CA",
"oX c #63DBD2",
"OX c #61D8D8",
"+X c #65E2DD",
"@X c #5FD4E0",
"#X c #62DCE9",
"$X c #67E6E9",
"%X c #6BEFF4",
"&X c #84899A",
"*X c #8C8FA8",
"=X c #85CFAB",
"-X c #87DCB2",
";X c #84E2B4",
":X c #8BE6B7",
">X c #98E7BB",
",X c #94ECBD",
"<X c #98F0BF",
"1X c #ABEFBD",
"2X c #A7F4BF",
"3X c #C8FCBF",
"4X c #D6FFBF",
"5X c #9FAAC0",
"6X c #B4BBCD",
"7X c #9AEDC2",
"8X c #96F2C1",
"9X c #9CF3C2",
"0X c #9FFBC9",
"qX c #A2ECC2",
"wX c #A5F4C2",
"eX c #A7F9C9",
"rX c #B8FAC7",
"tX c #BBFACA",
"yX c #A9F9D1",
"uX c #ACFDD3",
"iX c #CDFEC2",
"pX c #C4FECA",
"aX c #D7FFC3",
"sX c #D2FECC",
/* pixels */
"; & ; ; q w w w w w r q q r w ; % = = ; s g t t w w w w q q q w t q q q w t w w r r d w w d g d t d d w w w d w w & & & q t t t w t t t w t t w t t q q t w q & ",
"& ; ; ; w w t t t t w w w r r ; = , = - q d d t w w t t t t w t r w w w r t t w w w w w t d g g t d d d d t d d d w q q w w t q w r t t t t t t t t q w w w q & ",
"& ; w w w t g g g t t w w t t ; < p 1 - & t g t w t t t d r d r r r t g t z t t w w w r d g g g d d d d d d w d j j t w t t ; & q r t g t t t z z t t w w t w & ",
"w r r r w w d g g t t t r d d ; - 3 6 ; w d g d t t w w d r r d t t j g t t z t j d r g g g g g j g d g g d d d d t d d w q ; ; q e g h t t t t t t t w w w w q ",
"w r d t t t d d g d t d d t r r w d w d d g h d t w w r g r e r t g g j z t t t g d r g h h g h j g g j g d s d g t g g g w & q ; e h j d d d g t t t t t t q q ",
"r r g g h h g d d d d d g g d g g k g d h k g d t d d g k r w r t t t t t z j j r w w d g g g h j l j j g d w d g g g g j d q q r d j h d d g k t t t t t t q & ",
"w r g g g j j h h h d r g h d g g r r r h h g f g g g d d r d h j t t t g j j t r d d d g g g k l l l j l h d g g g j j j g g g j l j g g g g h j t t t t t t w ",
"w r g g j j j h h k d r d h h g g r e r g j k h g g g d d d g k j g t g j j j z t i h h d g k j j j l l l j g h g z j j g t t z x l j h g g h d t t t t t t t w ",
"r d g g h h g d f f d d f g h h h f d t f k l f t f h h f d h h g j t j j h j j d d d g h d k j k h k k g k l k g z l j d & & j l g j k d k k d d r r d t d t ; ",
"w d g h h d d w d d h k d g k k h h h d h k j f f h h l l h h g t t t g k h g g d w e d f d g l O.l h h d d l k g g j j d d w d g j d d g l h ; r d d r r t q ; ",
"w r d g h g d w r d k l h h k k h k h h h j k k h h l l l k k h h t t j h d d d d d r d f g h z O.l g d d g k h g j h j k k h w r g t d g j j d d g d d d w q ; ",
"w d d d f d g s d f l l l k g h h l h k j j j l z l j k l l l h t t h h d d r r d f d f h h k z O.k f f g h h h g j h j l l k h t r f h k k l l l h d d d r w q ",
"w d d d f d d d h k l X.k g k k l f d k z l j h j l j k k l l k h h f h j d d d r d f f f d r r d d d h k l z l h g k j h h k h g d h k j k h k k k g d r r r t ",
"r r g h d d d g l l l X.l h k l h f d k O.O.l h h h k h j h f h h h d h j t g k 6 r h h d d r ; r r g h l z z l k g k j d d h h h h k l l h d g k k k d d r r w ",
"r r d k h f k l x l x X.x l k h h h j z O.O...h d d d k j t t d h t t f d r d k d h h k h h d h l k l l j g j l l l l l k h h l k h h l k g g l j h g d d d r w ",
"r d d k h k l l k l l l l l k h h j l z z z ..k f d f h k d s f h h t d d r r r h k l l j l k k k k k j g j l k k l l l j g f h h d r w r h g d g k f d d d r w ",
"r t g h h j j l k l l h k ....k k k k l k l l l k h f d k d d h k h d d d f t e h l O.z l j j h k h k k f g l h d k l l l d d d d d ; ; ; h k r h l f d d d w w ",
"t t g j l h f h X.l k h f f k k h d t d g h l h k k f d d d h k z l d g k f f f h l O.O.z j l l k h h l d t k k k l l l l j d d d h l f r h z X.l l h d d d w w ",
"r t g h k h t h ..k k h f h k ..j d d d d g j h k k h d h d r r d r ; w d d h h h k O.l l l j j h k k l h d h l l k l l h f d d f k k h d l X.O.x j h d d d w ; ",
"r g g h h h h h k k k k k k f k j h h h h h h h k k l k d d 6 = 3 - = = - d d h h k l j l z j g h h k k h h k l l h k k h f h h k h f d h z O.O.l j k k g d d q ",
"t t h h h h h h d h h h k k f k j h h ..l l k h k l O.l r 6 p Z C C C b 2 6 d h k l k h j z l h t t h k k h k l l h h k d f h l h f h l z x x +.l j l l l g w q ",
"t t h h h h k k k h k l k k h k l  ...o.o.l l k l z l f 6 a W ` _ _ _ W J a ; r r t e 4 e e q t h f h z l k l l l h k h h h k k h d h k l z x l g d d k x g t w ",
"t t t h h h k ..x k k O.l k k k l l O.O.o.l l l x z r 5 D / 1.f.h.a.q.1.` F 1 - 3 < < = < < = ; t g h z l h l l l k k k f h k h k k h j h k h d d d r j l g t w ",
"t t h g h h h k l l l O.l k h k l o...l z ..l l l l ; 5 W 1.z.(.^.!.J.h.2.` Y F S F H U Y R U 9 y t d d d h l ..l z l k d h h k k k k k k k k k d d f l l g t w ",
"t t t j h h f h h l l l l j h g j O.l l l l j l l j ; 1 ~ 9.I.].(.Q.!.v.h.9.;._ _ ' ;.:.w.w.,.@.a - & & - d X.l l x l g h h h g f h k l x k k l g g l z j g t w ",
"t t t h h f f f h h l l l k h f h l l k g j j l j g & 1 W 2.L.(.L.l.l.v.L.z.d.p.i.d.n.M.=X-X=Xw.T : # : % 6 X.l l z l d h k h d d s l x z z k h l j l l j g d t ",
"t t h l l h h h k k h h j l l h h h h l j l j h d e - C / 9.z.!.l.h.z.v.!.^.^.^./.).[.<XwXyXqX=Xw.@.E / J a h h h l k k k k k f f f k k l X.x k g h g j j g t w ",
"t t h l l k l l k k k j l o.l l h h g h h k h d e 3 p W :.q.h.z.l.l.z.!.^./.).`.[.:X8X0XuXuXyX>X~.b.f.b.,.Q 0 y f k l k h k l k k k h h h z O.z l g j g g g g w ",
"t g h h j j l l h l l l O.+...l j h h t t t r d 6 C E ;.q.d.d.l.z.L.I.I.I.K.!.(.;X<X8X9X9X9X9X,X-X-X-X>Xm.,.D < w k j k f l X...l l k h k l x x l l g g g g t w ",
"t t h t f h h l l X...l ..O.o...l l k h h t 4 6 J _ 1.s.f.s.s.h.v.I.^.!.K.J.Q._.:X9XeX<X<X<X<XwXeXrXtXtX1XU.,.J 5 e d h l l l l l l l l k x x l l x x h g g t t ",
"t t h h h h h j ..O.z ..O.O.l k j h l l h r 3 J ` a.k.l.h.q.a.d.v.I.^.!.K.J.Q._.:XwXeX9X<X,X<XwXtXsXsXsXtX>X~.,.J 5 4 d l ..l l l l z l l l l h l x x h g g t w ",
"t j k k l ..h j ..O.l l +.O.h f h h l l f 5 C &.s.L.L.l.a.9.p.h.v.I.!.I.I.J.I._.[.<X9X8X8X,X,X2XrXiXaXsXiXtX>X~.,.S 5 e h l l ..l z z x x l l g k l k h g g w q ",
"f h k k l k h k l X.l k l l h k l l g s a K &.k.!.^.!.l.q.9.q.k.J.I.^.I.I.L.I.^._.;X,X8X8X9X<X<X2X3X4X4XaXsXpX>X=X*.T a 4 t l h h l x x x x l l l k h l j j d w ",
"h h l l k k k k l l l h h h l z O.l r = K &.d.I.).^.J.k.q.9.a.h.v.I.!.I.I.I.I.I.Q._.;X,X9X9X<X<XwX2X3X3XaXaXsXtX1Xm.<.R < ; h t g k k l l x l l x h g h j j g d ",
"h k l z l l k l x h d d s h O.O.l d ; = Y ;.d.I.!.Q.z.d.e.q.s.h.z.L.L.I.I.I.I.L.J.!.(.;X,X,X8X<X8X9XeXpXiX4XiXpXrX>Xn.%., * t h h h d d h l l l g g h g d g d t ",
"j l l l l l k k l k g g d h l l k g t a a K %.e.h.l.l.d.a.q.a.d.d.z.L.L.I.I.I.L.J.L.Q._.-X,X9XeX0XeXuXtXpXpXrXtXrX>XM.%.$ * g h h g d g h l k l h k h g d g d d ",
"g k j k k g h k k j g l k h k h k k k f ; < S ` 8.d.h.d.s.a.s.s.s.d.z.K.I.I.I.I.J.K.!.!._.:X8X9X9X7X7XqXqXwXeXeXeX,Xm.*., - d k j g g h h h k l l l k h f d d w ",
"d g g j h f h k k r d x z k h k l l k g 6 9 P ` 6.a.s.d.s.s.s.q.i.s.d.n.I.^.!.I.!.I.J.J.^.[.:X-X~.b.u.b.m.-X8XyXeX<XU.2.T p s g j j k h k l k k h k l k k h d w ",
"d d g h d f g j d r d k k k h h j d d a D ~ { q.g.a.a.s.s.s.s.q.q.a.k.L.I.I.I.I.!.J.K.J.^.[.[.M.,.U b L =.m.7XuXuX9X;XP.1.K D r g x l l l k h g g g k k k g s w ",
"d f h h h h k k d d d d g h h g d d & < ! 0.S.T.A.g.a.a.s.s.s.s.i.s.l.L.!.^.!.I.I.I.K.!.^.(.Q.w.Q : X X S <.=XeXeX<X:X`.i.-.P < a l k k x k h d d g g k k g d a ",
"d d d k k k l l k d f k k h h g d r - 1 ) g.R.'.A.s.a.a.s.s.s.q.q.s.z.I.!.!.!.L.!.!.^.!.J.2.1.*.=.$.M c + L <.m.-X-X~.k.;.^ P , & d d h x k s d g h l l l g t w ",
"d h k l k k z z h d h x k d s d f d - 1 ) t.R.W.Y.s.a.p.s.s.s.s.q.s.l.L.!.!.!.!.L.!././.k._ G @.&X*X5.V c + D &.n.P.f.` A Z S 2 & w g x x k k f h k l l l g w w ",
"d k l j h k l l f h k l k f d f h g 6 1 ~ 0.H.R.A.s.q.a.s.s.s.p.q.s.k.z.!.!.!.!.I.^.(.).i.G + V *X6X5X4.c . o G 1.z.:.b o $ b 2 a d x x x l k k l l l l l d w w ",
"d h h h k l l l k l k f k k g d g h ; 1 ~ 0.S.T.x.a.e.a.s.s.s.a.s.a.d.k.z.J.!.!.!.^.(.).2.A O @ $.*X*X4.M .   b -.k.' ,   O b 5 s h l l x x l h l x h k l d t t ",
"h g d h l l k k l x l d g j l l k h ; 2 ^ y.D.W.A.a.e.a.s.s.s.s.s.a.a.d.h.z.Q.Q.!.^.(.(.d.W $ + v #.#.#.M + + S 1.l.:.Z O $ b 1 s k h x X.X.l k x l k k j g d d ",
"g g h j l l j j k l l l h j x l l h ; 7 ) y.|.XXW.h.s.a.a.a.s.s.s.s.q.q.a.k.z.I.!.!.(./.z.:.U $ + X c M M b S %.d.L.a./ Z Z A 1 s l l l x x x l k l k k j g g g ",
"d g h l l l l j f h x +.x x l j d g ; , 3.G.#X$XXXD.h.i.e.a.a.s.s.s.a.q.s.d.h.z.J.!.(.^.I.z.1.E $ . . X v L &.d.L.L.v.s.;.Q H 5 s l x l h k k h l l k s g j j j ",
"d d g l l l l k f k l X.+.+.x j d j ; 3 ( N. X#XOXR.x.h.a.a.a.a.s.s.s.s.s.q.s.k.v.!.Q.!.^.^.J.2.I $ X X Z &.k.!./.I.!.I.d.;.Y 5 a l k k k k l k l l k d d g j g ",
"g d g k j l l k k l l h ..O.O.X.l ..r 6 F ] N.}.|.R.R.V.j.s.s.a.a.s.s.s.a.q.q.d.h.z.z.z.I.).).L.:.E A S &.s./.].].!.(.(.z.:.Y 9 w j k l z z X...O.o.k d t g g g ",
"d g g k l o.o...l l k k k k l l ..X.h r a D I r.S.R.W.E.Z.j.s.i.a.s.s.s.s.q.s.s.d.h.d.d.z.I.^.I.z.i.9.i.d.L./././.!.!.J.q.' Y 5 w l l l l l O.X.l l h f d t g t ",
"d d h k l ....o.o.j k k k k l k ..X...d t - , ` B.|.oXXXT.V.h.i.a.s.a.a.a.a.a.a.a.a.e.a.s.z.J.L.I.I.v.z.z.J.I.I.I.L.L.v.q.{ Y 1 s x x l k l X.X.l k h f g t t r ",
"d d d h h k j l l k h h l l l k k O.X...t & : [ G.$X$XXXT.D.V.j.s.a.e.e.a.q.e.i.q.q.q.q.q.d.l.J.I.J.d.2.2.s.z.v.z.z.J.Y.j.>.I < 6 x k l z l z X.l k k h g g t w ",
"r d h k k h l o.X.k k h ..X.l k l O.l h u 3 2 ] H.#X$X.XE.E.R.Z.x.s.a.a.a.s.a.p.a.s.s.s.a.s.d.k.z.s.:.^ Q ' q.d.d.h.Y.R.S.-.E < w l l l l l j l ..X.l l h h t r ",
"t t t h h h l z ..l k l X.l k ..O.l k h N 8 D ( N.}.@X.XoXXXXXE.F.x.h.h.h.h.j.h.s.a.q.a.a.a.q.s.d.8.' I P W ' 8.s.x.D.D.y.{ R 7 w l x l l l j j O.O.l l l h g r ",
"t t h h h  .z z ..l l ..l l ....O.k k h } N m L ( r.{.#X%X$XoX'.'.E.F.C.x.Z.Z.x.g.a.e.e.q.9.9.q.s.q.2.;.Q P I ' g.R.S.0.) R D u d j j j l l x l l l l l l h t q ",
"t t h h h k l j k h l ..k f f k l h i i B | i u m P r.{.#X.XW.T.D.H.R.E.|.|.W.T.c.h.a.d.d.g.d.d.d.s.s.d.:.^ P ` 0.S.t.) D m } f h l l l k l l l O.O.l l h h g t ",
"d d h h h k l k f h k k k f s h k i u u B | f y > 2 ( r.G.G.t.0.8.t.H.OX$X+XXXW.T.A.c.c.A.A.Z.x.h.h.l.v.i.:.Q _ 6.0.[ F 7 8 B h h k l k h k l x z z l j g j g r ",
"s d k l l z z l h h k k k h h l ..h t i | | u u u N L ( ] { ^ I I ) N..X%X$XoXW.W.E.E.W.W.W.E.F.c.k.d.l.k.s.8.:.{ ^ L m u u N u d d r d k l l l z l j l z j g t ",
"d d h l l l k k l l l k k k k l j k k t u u u u u i m m A A C 2 , S 3.{..X XR.V.S.S.S.S.D.D.D.V.g.9.1.2.q.i.2.-.W C 9 N B i y y d f s d h k l l l g g g g z g r ",
"d d h k k k d h x x l h h k k k ....l h t y u N B i y 3 % : > > 3 9 ! 3.N.y.7.-.6.6.6.7.6.6.6.-.' _ _ _ ` -.-.~ S 3 y B f f t t s f h f f d h h h j t t g j g q ",
"w d g g d d f f f l l h h k k l j l ..l t t u N B i y 8 8 8 8 4 u N D L I I I P P P P P P P P P P S S P H P P D D f i u | h h t r d h k h h f t g j l l l l g w ",
"d d g g g d f d t k l k k k k l ..j j l j j i B B B N y 8 u u u t i m 9 b 2 2 2 n n n 2 n 2 2 b n n 2 n n n n m m | i y f ..l t r d d h k h d t t l l z l h g t ",
"g g j j h h f f f k j k l l ..k ..j j j l ....i i N N y y u f t | i u 4 3 3 7 7 8 8 7 8 7 7 7 7 7 0 0 7 8 m m m N f i y h l ..f r d f k l k h d h h l l j g t t ",
"t g l g g g r t h ........k f k O.o.j j ..o...j t u y y y u u | B i u u y i u u i u u u u u N f u u N u u u u B f | d t h j l h h h l l ..l h h l l g g h g t t ",
"t g j g g g d g l l ....l j f k l l l l ....k h s t 6 s s u u } B N N i B B B B | B | f B B | | | | B | f f h h h s f h h h k ..l l O.z l l l l l l f h h d t t ",
"t t d j j k j k l k k k j l l j k g j l l k h f g f f f k f |  .} N B B | i B B i B B B i i B |  .i N  .| f k k g r h k h h k O.O...O.z h l z z l k h k h t t r ",
"t t g l x l j j l l l l l h h h h h h k k k k l l k h h g f i i i f f i i i f i B t i u u u i | i i i | t i ..h s h l ..h h ..O.o.l l O.X.X.X.l k f h h f s t r ",
"t d j l z l j j j j j k h f k k k h f h k k k l l ..k h k h t y i i f h k h h f j h h i t i h f t f f f h h h t t h ....h f k ..l l l z z X.X.l k h d f d d t e ",
"r g l l l l j j j h t y t f h l l h h h l l k h ....k k l l k d i t t l o.j h h l l j h h t h t d k l h  .j t y s h l l h g g j k k l k f l ..k l l f f f t t t ",
"t g l l z l j j l j h t y t k l k h h h k h h h f k ....l O.l h h t k k k h j j j k h h j ..j t e h l l o.o.j h h k k h k j l j h h k f h l X.k l x l k f h t t ",
"t t j l j j l l l j h h h h k k h d h k h h h h h f k k l O.l h h k k h t h j ..k f f k l ..j t d h l l l O.z l k l h h k l l j h h f k  .X...k z x l h f h t q ",
"q t h j k d j l l h h j l l h h h h k k h f f h h f f k l k k h k j k h t k l l h f f k j j j ..l z l l l j z l k k h h l z l l k k l x X.k k X.z l h d t r t w ",
"r t t j j t j l l j j j ..l f h l l l h h h h k h f f h k h f h j j j h h j l l h f h j l l l z x O.x l h f k j l l j h l l j l x l X.O.+.X.l l h d f f t g t w ",
"r t t j g t j z z j l j k k d h l l l h h h h h k h h h h f h h l j j h h k ..o.h h k l z z z z z O.x h h h h k l l l j j j l x x x +.O.X.X.X.k h f f f t j t w ",
"r t g g t t t j l l l j k h h h l k k l k k j h h h g d f h k l z z l h t h l o.l l l z x z j j l z l k h h h g j l j g j l x x x l X.X.k x x l l l h d t g t r ",
"t t g j j g t j k l l j h f h h k j l l k h g d f h h k k k j h l l j h h t h l z l l z z l l l l l l j j j j h d j j j l z x l l l l k g l X.l x x k g j t t w ",
"w t t j t j t g h j k k h f f h k l j k l j d g g t h h k k h d j j h h t t j t l z l l l l l l z l l g k l j h d g h g l l j j k x k d d k z l x l k g g d t q ",
"w t t t t t g t h h k l h h h h h j k h l j g j h t r r g g g d t j h h t t t z l l l j j z g g j l k f h l h h g d f d h k l j k k k h h k l l l l k d d r q q ",
"q w t t t t t j h h h t h k h h d j k j l j h l h t t d d d h d t j h h h t t z l j j j j g d d g k h d h l h h g g g h d h l g g k g h k l l l h f d d r t q ; ",
"q w t t t t j z j j g t h j h t g j l l l j j l h g h h d g h h h h t g t h j z l j j l g t s d r g h h h h h h j j h d d d j d h k g k k l l l d r d r w r ; & "
};
