/* XPM */
static char *__resized[] = {
/* columns rows colors chars-per-pixel */
"80 80 224 2 ",
"   c #06051E",
".  c #0B0A26",
"X  c #140A2A",
"o  c #13182C",
"O  c #170D31",
"+  c #191735",
"@  c #20163A",
"#  c #1C2737",
"$  c #26292A",
"%  c #2C2C2D",
"&  c #362D27",
"*  c #342F2B",
"=  c #2E312E",
"-  c #36312D",
";  c #3C332C",
":  c #272E32",
">  c #2D3535",
",  c #2E3837",
"<  c #28363B",
"1  c #2B3C3A",
"2  c #333432",
"3  c #3C3634",
"4  c #353B36",
"5  c #3C3C35",
"6  c #32363B",
"7  c #3C3638",
"8  c #333C3C",
"9  c #3D393B",
"0  c #41362E",
"q  c #43382F",
"w  c #423730",
"e  c #453A32",
"r  c #4A3E34",
"t  c #403738",
"y  c #443C3C",
"u  c #493F3C",
"i  c #38413B",
"p  c #4D4136",
"a  c #424238",
"s  c #4E4239",
"d  c #514337",
"f  c #53453A",
"g  c #58473B",
"h  c #56483B",
"j  c #5B4B3D",
"k  c #604F3F",
"l  c #61503F",
"z  c #1E1F41",
"x  c #2D1E45",
"c  c #282847",
"v  c #263D45",
"b  c #373C41",
"n  c #323357",
"m  c #383E64",
"M  c #423D40",
"N  c #483F40",
"B  c #48365C",
"V  c #2A4445",
"C  c #274749",
"Z  c #2B4C4B",
"A  c #334543",
"S  c #3B4245",
"D  c #324A45",
"F  c #374946",
"G  c #334E4C",
"H  c #2D514F",
"J  c #32514C",
"K  c #3A544B",
"L  c #2B4B51",
"P  c #344453",
"I  c #2E5352",
"U  c #2E5959",
"Y  c #325553",
"T  c #315956",
"R  c #355259",
"E  c #325E5C",
"W  c #3A5A59",
"Q  c #33635C",
"!  c #38675D",
"~  c #3E4267",
"^  c #385A62",
"/  c #346563",
"(  c #356B65",
")  c #3B6C64",
"_  c #376869",
"`  c #356D6B",
"'  c #3B7267",
"]  c #3D766A",
"[  c #3E7A6D",
"{  c #3C6F79",
"}  c #397676",
"|  c #444647",
" . c #4B4141",
".. c #534641",
"X. c #5E4E40",
"o. c #504F4F",
"O. c #604F40",
"+. c #625141",
"@. c #695644",
"#. c #42655C",
"$. c #474468",
"%. c #436262",
"&. c #47746A",
"*. c #417C6D",
"=. c #527F6E",
"-. c #586B77",
";. c #427E75",
":. c #6A657E",
">. c #3C806D",
",. c #3F8476",
"<. c #438472",
"1. c #4D8472",
"2. c #498677",
"3. c #468976",
"4. c #458B79",
"5. c #4A947D",
"6. c #54927D",
"7. c #3D7B82",
"8. c #407A89",
"9. c #6F7591",
"0. c #3F8589",
"q. c #458C83",
"w. c #489485",
"e. c #4E9C85",
"r. c #46938D",
"t. c #4C9C8C",
"y. c #5B9582",
"u. c #509F84",
"i. c #509F88",
"p. c #428B95",
"a. c #499B92",
"s. c #489B99",
"d. c #659F89",
"f. c #4FA287",
"g. c #51A187",
"h. c #51A38A",
"j. c #54AA8D",
"k. c #5CA98D",
"l. c #58B18F",
"z. c #4CA396",
"x. c #4CA49B",
"c. c #52A690",
"v. c #55AD93",
"b. c #54AE9A",
"n. c #57B397",
"m. c #5AB493",
"M. c #5CBA96",
"N. c #56B39C",
"B. c #5EBD99",
"V. c #67A58C",
"C. c #75A689",
"Z. c #6BA991",
"A. c #67B798",
"S. c #74B799",
"D. c #4799AA",
"F. c #4DA8A5",
"G. c #51AEA2",
"H. c #56B7A5",
"J. c #58B7A1",
"K. c #57BAAD",
"L. c #59BDAB",
"P. c #4EA8B4",
"I. c #55B9B5",
"U. c #5EC49B",
"Y. c #61C49C",
"T. c #6CC09E",
"R. c #63C99F",
"E. c #5EC1A2",
"W. c #5CC3AD",
"Q. c #5BC4B4",
"!. c #5EC9B6",
"~. c #5BC7B8",
"^. c #5ECABA",
"/. c #61C6A4",
"(. c #64CCA1",
"). c #6BCEA3",
"_. c #77C9A4",
"`. c #67D2A4",
"'. c #6AD4A6",
"]. c #6BDBAA",
"[. c #7CDBAE",
"{. c #61D0BC",
"}. c #6EE2AF",
"|. c #7AE5B4",
" X c #53B7C8",
".X c #5BC8C7",
"XX c #5AC7D0",
"oX c #61D5C8",
"OX c #62DAD7",
"+X c #5FD3E2",
"@X c #63DCE8",
"#X c #69EAEA",
"$X c #6BEEF0",
"%X c #8DA9A3",
"&X c #83CCA9",
"*X c #82D2AC",
"=X c #92D9AE",
"-X c #89DAB3",
";X c #93DDB9",
":X c #89E7B7",
">X c #95E1BB",
",X c #99E7BF",
"<X c #95EDBE",
"1X c #96F0BF",
"2X c #A9E6B5",
"3X c #B1ECB8",
"4X c #A3F3BF",
"5X c #C6FCBF",
"6X c #D5FEBF",
"7X c #A6AEC2",
"8X c #ACB3C1",
"9X c #90EFC2",
"0X c #97F6C3",
"qX c #9BF3C2",
"wX c #A1F6C3",
"eX c #A5F9C9",
"rX c #B7FAC7",
"tX c #ABF9D3",
"yX c #B4FDD7",
"uX c #BAFFE3",
"iX c #C7FEC7",
"pX c #D6FDC7",
"aX c #C9FBD3",
"sX c #E4FED0",
/* pixels */
"; & ; ; 0 0 q 0 q e q 0 0 e e q q p e q p p r r q q q q 0 0 q q e q 0 0 q r q q q e r q q p d p r r p r q q p r 0 & & & 0 q d r e q r r r r r r r r q q q r 0 & ",
"& ; ; ; q e r p r r r 0 q q r e q p e e q e d e q e r r r q e r e q 0 q r r r r q q q q r p d d r p p r r p p p r 0 0 ; q q q q q e r r r r r r r r 0 q q r 0 & ",
"& ; q q q r d d d r r q e r r r p e p e ; r d r q r r r p r r r r q r d r r r r r q q e p d d d d p p p p p q p g f p 0 p e 0 & 0 e d d r r r r r g q q q q 0 0 ",
"q w r e q q p d d r r e r r r r r p p p e p d p r r q q p e e p r r d g k k r r h p e d d d d f d d d d d p p r d r p d q 0 ; ; ; w d d r r g r r r r q q q q q ",
"q r p p r r p d d p p r r r r r p f d d d f d p r e w w d r e w r d d d r g r r f r e d f f d f g d f g d p a p d r d d d q ; ; ; w f g p p p d k r r r r r 0 & ",
"q e d p d f d p p d p r d d r d d f d d g f f p r r p f h w e w r r r r g g g r w e q p f d d f g j j g d p q p d d d d g d 0 0 w p g g p p d h r r r r r r 0 & ",
"0 w d d f g f f f f p e d g d d p r w r d g f p d s d s p r p f g r r d g g k r r r s r d d f g j j j g g f p d g d g g g d d d g j g f d d d f r r r r r r r q ",
"q r d d f g g f f f d q p g d g s p w w d f h s d d d s p p s f g d r d g d k g r s d d p d f g g g g j j g d f d g g g d r r k l g g f d d f d r r r r r r r r ",
"q r p f f d d p p f p p p f f f f f p p p h j f s s f f d d d f d r d d h f f f d p p d d p h g h f h h f h j h g g j g p & ; d j f f f d f f p r a e r r p q ; ",
"r p p f f d r r e p d h p f j f s h p p f h g p r d h j j f f f d r r d f f f d d q q p s p f j +.j f f p d g h d g g j p p q p d h d p d j d ; r p p e r p q ; ",
"q r p f d d a q e s h j h s j f f h h f h h h f f f h g g h f f d r d d f d p p p p q p d d f l +.j p p p p h f d f f f f j f q e d r p f j g p p d p p r e q ; ",
"0 r p p p p p p p f j j j h s f f h h h h h g j j j f p s s d f r u f h p a q p p s p f f f g j +.j f s d d h d d g f g j j h f p w p h f f j l g f p p p e w q ",
"q r d d p p p p f h j l j f f j h p s f j j g g j h e - % * 3 e d d p f f p p p 5 r f s p p q r r r p f h l j j f d h g f f f f p p f h g f f h g h d p r e e q ",
"q r d f p a p f j h j +.j s h h h s p h l l j d p r 4 1 v 1 , 5 s d p f f p p f e e f s s e 5 q w p d f j l l j h f g g p p f h h h h h j f p d h h h p r e e q ",
"e r p h f s h j j j l +.l h f f f f g j +.+.j d q 4 H ! 1.;.#.i y r p p p q p p p s f j h f s f j h j j f f g j j j j g h f f j h f g j g d f g g f d p p p r q ",
"e r p f h h j j j j j j j l h f f g k l k k h q i J ' g._.S.V.&.F ; ; p p e p p f j X.j j j h h h h h h f f j h f j j j j s p f f p e w w f f r f h s p r p r q ",
"r r d f g g j h h j h f h h j h h h g j g g d - 1 ) 5.Y.:X:X_.y.K $ - q r a ; ; p h g h d d d f f f h h s f j f p h j j j d p p s r e ; ; f h e f j s r p p q q ",
"e r r g j f s f +.j h h s s h j g p r p d d r > Z ;.c.`.9X0X-Xk.T # $ & 0 - ; - - ; e q ; - q p h f f j p r f f h l j j h f p p s d h s e f X.X.j j f p p p e ; ",
"r r d g h f u f X.h h f h f h ..g p p a p p r % V [ e.Y.}.|.).y.I # # , 4 > 1 , , , 1 , 1 , 2 e f g j j d p f j h j j j f f p p f h f f p h +.+.l g f f p p q 0 ",
"e r d f h f d f h h h h h h f h j f f f p p p - V W [ u.E.(.m.4.T C C H I H H H H H J T T E D 5 w r r u s f f j j f f j s s s f f f s s f l +.+.j g g f d p p 0 ",
"r r f g f d h f p f j f h h s f h s f X.l j f a 5 i G ! 5.j.h.5.] ( [ <.4.2.<.>.>.2.6.d.Z.V.1.K - $ $ ; e p j j j f f j f s f j h p f j l l +.@.j f j j j d q ; ",
"r r f f d d h j f f f h h h f h X.h X.O.j j h g p e , J >.e.f.g.5.f.j.M.B.m.m.m.m.Y._.*X>X;XS.=.G 1 < 8 4 r h j j f f f s f f j f p f h j j k j f p p g l d r q ",
"e r d d f f h X.l h h X.j h j h h X.+.+.g p p h f a A I <.w.h.v.l.U.R.'.].'.'.'.}.|.0XeXyXeX>XA.1.%.) ) K 5 s h j j j f s f h f f h f f h h f p p p q f j d r q ",
"r r d d f f f f j j j +.l h f h g X.X.h p ; = - 5 F / q.t.t.h.m.U.R.`.`.`.`.'.}.:X1X0XeXeXeX<X*XA.A.A.y.&.i - p j j j h s d f h h j j f j f f j d p f j j d r q ",
"r r d d f s s d h j X.j j g f s h X.g s a i D 1 i E q.G.H.b.h.m.U.(.`.R.R.R.'.|.<X1XwXwX0XwXqX1X;X9X>X-XV.&.A 5 s j j f d d f d f f h j l h h j f f j k j d d q ",
"r r d g f s d s d h g j j g f s f f p 5 K ) >.T H ` F.^.^.n.h.m.Y.`.R.R.R.U.R.:X4XeXwX1X1X1X1XrXrXaXaXrX;XZ.) V i h f d f h h p a p j l l j j f g g g j g d p q ",
"r r d g h h f f ..f f h g g j h p e 2 D *.g.h.! H U a.Q.!.n.h.m.Y.R.R.R.U.U.).:X1XwXwX1X<X<XqXrXiXpXpXrXrX*Xd.&.K ; a d h h h s s s h h j +.X.g f d g g g d d q ",
"r u f j j j j j h h h h j O.j j p ; = V <.j.l.<.Q ` s.I.W.n.j.m.Y.`.`.R.R.R.'.*X<X1XwX1X1X<X4X4XiXpX6XpXiXrX&Xy.T = ; d f h j h f h f h h X.+.j j d d d d d d q ",
"r d d f j g j j f j j j +.@.O.j h r - 1 ! 1.e.4.q.r.I.Q.K.b.j.m.R.`.R.R.R.R.R.'.*X:X1XwXqX1XwXeX3X5X6X6XsXsX2XV.W $ - f f j l j X.j h f f j l l j h h d d d q q ",
"r d d s d d f h j +.X.j X.+.O.j j f s r i J ' q.F.~.^.Q.H.z.j.m.Y.R.`.R.R.U.R.R.R.[.:X1XqXqX,XqXwXrX5XpXsXpX2XC.! : - s h j X.j j X.h h h l l j j l l d d d d q ",
"r d d s f f f h j +.j j +.+.X.j g h j f & , U q.Q.oXoXW.N.c.h.l.A.R.R.R.R.R.Y.U.Y.`.[.<X1XqX0X0X0XeXrXiXpXpX2X%X=.D 4 e f j j j j j l j j l l d h l l h p d p q ",
"r d h h X.X.f h +.+.+.j @.+.s s s f j j 0 , U r.Q.oX!.N.c.f.f.j.l.M.Y.R.R.R.R.R.Y.R.`.[.:X,X0XeXeXtXyXiXiX3X2X=XS.=.K 5 5 p j X.j j j j l l h f h j j d d d q ; ",
"p f h f j ..f h j +.j h j j f f X.+.j f 0 1 E r.L.{.L.v.u.i.h.t.h.l.U.R.(.R.R.R.R.U.R.`.}.:X<X<X>X=X;X>X9XqXwXeX;XS.&.F % w j h f j j l l l j g j j h h g g p q ",
"f j h j j f h j j j h s f f j +.+.+.j p ; v / r.K.!.n.h.u.h.h.e.f.j.m.R.(.(.R.R.(.U.U.R.}.:X:X_.V.6.6.Z._.>XtXyXtX&Xy.R : q j d d h j j j l l j g g f f g g d p ",
"f h j l j j h j l f p p p p +.+.X.d f s - 1 E r.K.^.J.h.e.g.h.e.f.v.M.R.`.R.R.R.R.U.U.(.}.|.'.6.L : < %.d.;XtXuXtX&Xy.G > w h f h f p a h j j h d p f d p d p p ",
"h g j j j j f h j h p f s f j j h f f p & 1 Q r.K.!.J.h.u.g.h.e.h.l.B.R.).(.(.R.R.R.R.U.(.U.g.&.P @ X # %.Z.;XeXqXS.8.F - e f h h d p p h h g j j h d d p d p p ",
"f h g h f f f h g d h g h h f f h h h u * 1 U r.K.^.J.j.u.h.h.h.f.l.A.R.`.R.R.R.R.`.`.U.f.,.=.-.:.$.@ z z ~ Z.[.[.T.2.H > w j j h d h d f h h j j j h f f a p q ",
"d d f f f p f f h r p l l g f h X.g j f - < Q r.K.^.J.j.u.u.e.e.h.j.U.R.(.R.R.R.R.`.].M.>.L o.9.8X%X9.x O # W e.R.A.3.Z 2 r k l l j h h h j g f f f j h h f p q ",
"p p d d d f f f d r p h h h f f h f h f - 1 ^ r.K.!.J.h.u.h.h.u.h.v.m.Y.R.(.(.(.R.].].l./ # x :.8X7X9.n O   # ' l.l.&.< $ * r f j l j j j h h d p f h h h d p a ",
"d s f f f d g f d a p p d f f p p p f p = i ^ r.K.!.J.c.u.u.h.h.h.h.j.m.Y.R.(.(.R.].}.l.Q o O B 9.%X9.m + . o / j.h.E # o $ = e h j h j j h d p p p p h h d a 0 ",
"p p s h h h j j h p p h h f p s p s f s 4 i E 0.K.^.J.h.i.i.h.h.h.h.h.h.m.U.(.(.R.].].M.>.v + + n ~ ~ ~ c + < <.m.g.! : # c i > i p p d l j d a d f g j j d p 0 ",
"p f g j h h j l h p f j h f p p s h h f ; i Q a.K.^.J.j.u.i.h.h.h.h.e.h.v.m.B./.(.'.].Y.g.&.v + O + z c c L ) u.Y.l.<.Y L v V > ; p d j l j d d f j j j j p q q ",
"p f j g f h l j f s j j f s a p h X.X.h 5 1 E r.K.!.J.j.u.g.h.h.h.h.h.e.h.h.m.B.R.'.'.R.U.j.' C o . . @ P *.j.U.R.Y.l.6.[ U 1 > ; d l l l g h j l j j j j p e q ",
"p f f f h j j j h j h s f h h d f h +.h ; V E r.K.!.N.j.u.h.h.h.h.h.h.h.h.e.j.m.Y.Y.R.R.].].l.] v o o v ' v.].].`.`.`.Y.e.! 1 = a h j l l l h f h l d h j d r e ",
"f d f f g j g g j X.h s f f j j j j l j ; 1 Q r.H.Q.N.h.u.e.h.h.h.h.h.h.e.e.h.v.m.m.m.B.`.}.U.j.` T T ] u.Y.}.}.`.'.`.U.5.Q 1 - p j j j +.+.j h j j h h g d d d ",
"d p f f j j f h h j l h f f j l j l l j ; 1 E r.H.Q.N.j.e.f.h.h.h.h.h.h.h.h.c.h.j.j.j.v.B.(.`.A.v.h.j.m.B.(.'.'.`.R.U.j.3.E 1 - a l j j j l j h j j h h f d d d ",
"d p f j j j l f p f +.@.l l l f p j l j ; 1 / s..XOXQ.v.g.g.f.f.e.h.h.h.h.h.h.h.g.e.e.h.v.M.R.(.(.Y.m.l.m.Y.(.(.(.(.E.n.q.U i 4 a +.l j h j h f j h f a d g g d ",
"d p d g j j l h p h l +.+.@.l f d l l f - 1 _ P.OX#XoXL.j.g.f.f.h.h.h.h.h.h.h.e.i.e.e.h.h.v.M./.U.l.5.3.5.j.B.B.U.E.W.L.r./ 1 4 f j j h h h j h j l h p p g g d ",
"d d p h g j X.h h j j h X.+.+.j j +.X.s & 1 / D.+X$XOX~.N.c.f.f.g.h.h.h.h.h.h.h.e.h.h.h.h.f.v.l.l.3.! I ) 4.h.j.h.B.W.Q.a.( 1 5 p j j h j +.X.X.+.X.h p r d d d ",
"p p d h j X.X.X.j g h h h h l j X.+.f e w 8 R 8.P.XX.X~.W.N.v.f.g.u.u.e.e.g.e.f.h.h.h.h.h.h.h.h.f.4.' E Q ) [ ] ' 4.r.a.} W 8 s j l j j j j +.X.X.j f s p p p r ",
"r p f h g X.X.X.X.h h h h h j h h O.d y u  .S R { s.P.!.{.W.H.v.h.e.u.h.g.g.f.f.h.h.h.h.h.e.h.h.h.e.4.[ / T H H I E ( ( ^ |  .f j +.l j h X.+.X.j h f s d r r e ",
"r p p h h h g X.j j f s h l j f f j .. ... .9 6 V ` s.~.OXoX~.J.v.h.h.h.v.h.c.c.h.h.h.h.h.h.g.g.h.j.j.f.<.Q C C I L C C F | ..f j l j g X.j j +.j h h f d d r q ",
"r r d h h d g O.X.h h h X.X.h h j j s  .....y % 1 ` P.OX$XOXoX!.W.J.N.N.N.N.b.c.e.u.u.u.g.e.g.g.h.v.v.j.4.] ( } ,.` U V b N ..j j l l l j j h j X.X.j h h f r r ",
"r r d g h f O.O.X.h h X.X.j h +.X.h s  . . .y * V {  X@X$XOX{.!.Q.Q.Q.W.W.Q.L.N.h.h.u.h.h.f.g.h.f.c.j.h.e.5.w.b.G.r./ V 6 N ..f g k j j j g h j X.+.j j j d r r ",
"r u d f h ..k O.j j j X.j h X.X.+.d d  . .N y 7 A _ D. XXXK.x.z.F.I..XoXOXoX^.L.N.v.v.n.N.N.N.v.j.h.j.j.h.v.n.E.K.r._ A b N f s f j h h g k l j X.j j j j g p e ",
"r r d f f f g g h h j j h f a X.j s u u  . .y y b R 7.p.r.0.} ( ,.s.XX#X$XOXoX!.!.W.Q.Q.Q.Q.W.N.v.j.j.v.m.M.n.z.w.` R S N N  .f f j j j f j j j +.+.j j f f r e ",
"p p f f h h j h s f h h f s a f h u e y  .s N a a S L R U I C V I 7. X@X#X.XQ.Q.Q.Q.Q.~.~.~.W.N.h.f.f.h.v.j.e.[ E D b  .N u u d h h j j f h j j k k j g d g r r ",
"e p f j j j l h f f h h h h f g j s u u y N  .s  .y 7 > < 6 > % < ^ 0. X XF.z.r.z.s.z.z.x.s.a.q.3.<.<.<.4.4.] T V 6 y u ..u e r p p e p f j l j k j g g k g d r ",
"p p f j j j h j j j j h h h h j j j h f u y y y u u 7 3 2 3 3 3 7 S ^ { } ` ( ( ` ` ` ` ` ` ` / Q Q Q Q Q Q T A 4 t N N s s u r s s a a f j j j g g g d d g d r ",
"p p f j h h p f l X.j h f h h h X.j X.j r t t N N N N y t y u u N b b V C V C C V V V v V V C V V V V V Z C b b t u u u s f g s p s f f p f d d g d r r r k d q ",
"e p p d p p s p s j j f f h j j j j j j f r y y N N M t t y y t u y 7 2 6 6 6 6 7 6 6 b 6 6 6 6 6 6 b 6 b b b b N ..a e h X.j r p p s h f f d r d g j g j j d e ",
"p p f d d p s p r h j h f h j j j h j j h f f s u N N t 7 t y t u N t 7 7 7 7 5 y y t t t 7 7 7 4 9 b 9 t M b M y f u r j O.j r w p p f g f p a d g j j j f d e ",
"p d h h f f p u d h g g j g h X.X.j j j j X.O.f s s y t 7 y N u N N u N u u y u N u u u y y u y u N N u u u y t s s p p g l O.s e p p h j h p s f h j j g d r r ",
"r f j p p d r r h X.X.X.X.h s h +.j j h X.O.X.h s r w t t 7 N N N N N N u N u N N N N N N y N N N N N N s s f f f h f p h j g f f f j l j j h f j g d h f d r r ",
"r d f d d f p p g X.X.X.X.f s h j k j j l j h f s s a p p a a .. .y y t N u u u u u u  .u y  . . .u u  .f f g g h f f f f f h X.X.j +.l h j j j j h f f f p r r ",
"r r d f g g f h j h h h g g h h f f f j j h f s f j s f h s s ..s y s s u s u u u r s u r u s f f y u ..h h j j h a f X.f f h X.+.X.+.l h j l l j f f h f r e r ",
"r r f j j l j f j g j j g h h f s f f h f h h j j h f f f f s s f h f f f h h h j f d s s s f h f s f h h f k f p f X.X.h h X.X.X.j l l +.+.l h h f f s s r r w ",
"r p g j l l g g h j j h d f h h h f f d h h j j j X...h h f d s f h ..X.j j j h j j j d d d g h f h h h h j f p e f X.X.s f h X.j h j l X.X.X.j h f s s s a r e ",
"e d j k j j g g g f u w r r f j j h f f h h f h X.X...h X.j h s s d f X.O.X.X.g X.+.j h h h g d s j j j X.j r t r s j j f f f g h h X.h s h X.h j h h s p u r r ",
"e d j j j j j g j h d r r s h j h s f h h h f f f j h X.j +.l f s d f h g d h g j h h h g j g r e f j j X.O.h f f h h f f g g g f f f s f X.X.f j k h h f d r e ",
"e r g j g g g j j g f s s d j f f s f h h h s s f f h h X.+.j f f f h f s d g X.f s s h j X.g u p h j j X.+.j j g j f f h j j g h a s h h X.X...k k j f d s r e ",
"q r d j f d g j j g f h j X.f f f f h h s s f f s s s h h h f f h h h d s h X.g d s s h g g g X.j j j j h j k j h h f f X.j j g j h h X.+.h h +.k j f p r r r q ",
"e r r g d d g j j g g g j j d f j j h f p f f h f s s h f f s f g j h d f h j g f s h g j j k l +.+.l g f s h j j j f f g j g j X.j +.@.@.l h h h p s p d r r q ",
"r r r g d r g k j j j g ..h s f j l j f f f f h f f f f s f f h g g h h f h k k f f h j l l j j l +.l h f d f h j j j g g j k k l X.+.@.+.+.X.h f s s p r g r q ",
"r r r g d r r g X.j j g h f f h h h j j j h h f h h d p p f h j O.O.j g d d j O.X.g j k l l g g j j j g h d f d g j g f g j l l l j X.X.j j l j j j h s r g r r ",
"r r r g g r r g h g j j f d s f h g j j h d d d s d f h h h h f g X.g d s u f j j j j j k k g j k k j g g X.g d d g f f j k k j h j l h p j l j l l h d r r r q ",
"r r r g r g r g d h h h f u d h h j g h j f d d p p s f h h f p f h h f r u d g j g k g j j g j j k j d h j g f p d f s j j j g h j j d p j j j l l h d d r q q ",
"0 r r r r r r r h d h h f d h d f g h f j g d f d r e r p f d p d f d d d r d g j k k g j j f f g j h s f j h f s d s f f f g g j h f f f f l j j j h d r r 0 0 ",
"0 q r r r r r g f d d f h f d d d g h h j g h g f p r p p d d s d f f d r r g g j g g g h d p p r f f p f j d d f d d d p f g f s h f f h j j j s p d p e e q ; ",
"0 0 r r r r g k g g d r d X.f u f f j g j g g j f d f f p d f d d d d p p f g k g g g g f p q p r d f f f f d h f g f d p d f d f h f d h j j j p 5 p w w e 0 ; "
};
