/* XPM */
static char *__resized[] = {
/* columns rows colors chars-per-pixel */
"80 80 218 2 ",
"   c #0A0624",
".  c #110F2A",
"X  c #15122D",
"o  c #181737",
"O  c #241439",
"+  c #1D2837",
"@  c #272A2B",
"#  c #2B2828",
"$  c #2C2E2C",
"%  c #352E29",
"&  c #2D322E",
"*  c #34322E",
"=  c #3C332C",
"-  c #232B37",
";  c #2B3535",
":  c #2D363A",
">  c #283939",
",  c #2D3A3A",
"<  c #343633",
"1  c #3C3533",
"2  c #343A35",
"3  c #3E3A33",
"4  c #32363A",
"5  c #3B373A",
"6  c #333C3B",
"7  c #3D393B",
"8  c #41362E",
"9  c #43382F",
"0  c #423730",
"q  c #453B32",
"w  c #4A3E34",
"e  c #453C3C",
"r  c #493F3C",
"t  c #34423C",
"y  c #3B413A",
"u  c #4D4136",
"i  c #44413B",
"p  c #4E423A",
"a  c #514337",
"s  c #53453A",
"d  c #58473A",
"f  c #56483B",
"g  c #5B4B3D",
"h  c #604F3F",
"j  c #61503F",
"k  c #201F45",
"l  c #262948",
"z  c #253C43",
"x  c #283B43",
"c  c #333E42",
"v  c #3B3E42",
"b  c #343154",
"n  c #463F40",
"m  c #483F40",
"M  c #264344",
"N  c #294445",
"B  c #2A4649",
"V  c #264B4B",
"C  c #2A4B4C",
"Z  c #314244",
"A  c #344A44",
"S  c #354848",
"D  c #34524D",
"F  c #3E534C",
"G  c #344C54",
"H  c #2D5352",
"J  c #2F5856",
"K  c #345452",
"L  c #345A55",
"P  c #395A57",
"I  c #345D5B",
"U  c #35635C",
"Y  c #3A645C",
"T  c #39675C",
"R  c #3B5967",
"E  c #366767",
"W  c #366C61",
"Q  c #396C63",
"!  c #377067",
"~  c #3C7165",
"^  c #3C746A",
"/  c #3D796C",
"(  c #3A6C77",
")  c #3B7675",
"_  c #3C7A74",
"`  c #3D7C79",
"'  c #4C4241",
"]  c #524542",
"[  c #5E4E40",
"{  c #49584C",
"}  c #604F40",
"|  c #625141",
" . c #695644",
".. c #436257",
"X. c #4C516F",
"o. c #625A7B",
"O. c #436563",
"+. c #45786C",
"@. c #577B6C",
"#. c #507472",
"$. c #448474",
"%. c #458B76",
"&. c #488A76",
"*. c #468D7A",
"=. c #498E7B",
"-. c #578D7A",
";. c #4A927C",
":. c #4B997D",
">. c #5F947E",
",. c #658772",
"<. c #3E7785",
"1. c #4E6F87",
"2. c #7F7995",
"3. c #3E8488",
"4. c #438985",
"5. c #428A85",
"6. c #4B9682",
"7. c #4E9C84",
"8. c #44908A",
"9. c #4D9D8A",
"0. c #589582",
"q. c #509F85",
"w. c #509F88",
"e. c #428A95",
"r. c #44959A",
"t. c #4FA286",
"y. c #4FA089",
"u. c #51A186",
"i. c #51A38A",
"p. c #54AA8E",
"a. c #5AA88E",
"s. c #56B18F",
"d. c #4DA699",
"f. c #55AD92",
"g. c #54AB99",
"h. c #56B096",
"j. c #5AB494",
"k. c #5CBB96",
"l. c #56B39B",
"z. c #58B59B",
"x. c #5DBD99",
"c. c #68A58E",
"v. c #70AE93",
"b. c #67B597",
"n. c #76BD9D",
"m. c #489AA8",
"M. c #4FABA1",
"N. c #50ABA2",
"B. c #55B4A4",
"V. c #59BCA6",
"C. c #55B8AA",
"Z. c #59BEAB",
"A. c #50ABBB",
"S. c #53B7B8",
"D. c #5EC39B",
"F. c #61C59C",
"G. c #63C99F",
"H. c #70C49D",
"J. c #5DC2A6",
"K. c #5BC1AC",
"L. c #5CC5B4",
"P. c #5BC5B8",
"I. c #5DCBBB",
"U. c #67CBA2",
"Y. c #65CCA1",
"T. c #7CC9A5",
"R. c #67D1A5",
"E. c #69D3A6",
"W. c #6CD5A9",
"Q. c #6BDAAA",
"!. c #73D8AB",
"~. c #7ADAAD",
"^. c #7DDBB0",
"/. c #6DE1AE",
"(. c #76E9B4",
"). c #57BFC8",
"_. c #5DCCC6",
"`. c #5FD0C5",
"'. c #58C3D2",
"]. c #5ED0DA",
"[. c #61D6CB",
"{. c #63DBD9",
"}. c #66E4DD",
"|. c #5FD4E0",
" X c #67E5E8",
".X c #68E8F3",
"XX c #6CF2F4",
"oX c #83869A",
"OX c #8DBE9A",
"+X c #8B95B0",
"@X c #9CA1B6",
"#X c #98C39C",
"$X c #89C3A1",
"%X c #82CDAA",
"&X c #84D4AC",
"*X c #89DAB2",
"=X c #88E6B7",
"-X c #8DE9B9",
";X c #96E8BC",
":X c #97F0BF",
">X c #ACF1BD",
",X c #C7EEBB",
"<X c #B1B8CB",
"1X c #89EDC1",
"2X c #94EDC1",
"3X c #96F1C1",
"4X c #9BF3C3",
"5X c #9CF9C7",
"6X c #A2F5C5",
"7X c #A8F8C9",
"8X c #B2FAC7",
"9X c #B6FAD1",
"0X c #C7FBC6",
"qX c #D3FEC5",
"wX c #DEFECA",
"eX c #C2FFD1",
"rX c #D6FFD6",
"tX c #E3FBCD",
/* pixels */
"= % = = 9 8 9 8 9 9 9 8 9 9 w 8 9 u q 9 u u w w 9 8 8 8 8 8 q 9 9 q 8 8 9 9 9 9 9 q q q q u a u 9 u u 9 q u u q 8 % % % = 9 u 9 9 w w w w w w w w w 8 8 w w 8 % ",
"% = = = 9 9 q u w w 9 9 9 q w 9 q w q q 9 q a q 9 w w w q 9 q w w 9 9 9 w w w w 9 9 9 9 q u a a u u a u q u 9 a a 8 8 8 9 9 u 9 9 9 w w w w w w w w 8 8 9 9 8 % ",
"% = 9 9 9 u a a a w w 9 w w w w w w u q = w a w 9 w w w u w w w 9 9 w w w w w w w 9 9 q u a a a a u u a a u 9 u d d u 8 u 9 8 % = 9 a r w w w d w d w 9 9 9 8 8 ",
"8 9 w q 9 9 u a a w w w w w w w w u u u q u a u w w 8 9 w w q w w w d d h d d w d u q u a a a d a u a a a u i u u w u u 9 8 = = 8 8 d s w w w w w w w 9 9 9 9 8 ",
"9 q u u w w u u a u w w w w w w u s a u a s a u w w 0 q u q 0 w w a a d d d w w a u q a s s a s d a s a a u q u a 9 a a a 9 = = 8 0 s s a w u a d w w w w w 8 = ",
"9 q u a a s u u u a a w a a a w a s a a d s s u w w u s f q 1 q w w w w w d d d q 9 9 u s a a s d g d d a u 9 u a a a a d a 8 8 q w s d a u a s w w w w w w 8 % ",
"9 9 a a s d d s s s u q a s a a a w q q a d s a a u a u u q p s a a w a d d d w w w w u a a a s g g g g g s u u d a d d d a a a g d s s a a a s w w w w w w w 9 ",
"9 w a a d d d s s f a q u s a d u w 0 q a s f p a a s u u p a d a a w a d d d d w r d a u a s g d g g d g d a d d d d h a w 9 j h g d s s a s a w w w w w w w w ",
"9 u a a a a u u u p p u u a s s s s u u u g f a u u u s u p u s a a w d d a f d u u u s a u f g f f f f s s g f d d g d u = % s g s s s a s s u i u q q w a q = ",
"9 u u s s a u i w p a f u s g s p s p u a f g u u u s s f s s a a w r a f s a a u 9 0 u p u s g } f s u u u g g d a d d u u 9 u u f a u a g a 9 w u u w w w 8 = ",
"9 u u s a a u 9 q u f g s s g s s f s s f f f u q 3 3 9 u a f a a w w s s u u u u q q u u p f g  .g s u w a s s a s s s f f s 9 q s w u s g s u u a u u w 9 8 = ",
"9 q u u u a i u u s g g g s s s s f f s f f s u 3 & - $ * u g f a r a s u u 9 w p u p p a d f h | f a u a s f s a d s d g g d s w q a f s f g g g a u u u q 9 9 ",
"9 w a u u u u u s f g [ f s f g f u u s g g u 3 t K Y L A i u s s u u f f u u u q u s p u u q w w w u s g g j g a a s s s s f s a u s f g s s s f s a u w q q 9 ",
"9 u a s u u u a g f g | f s s g f u u g g s i A T =.a.0.+.F y u a a u s f w a s 9 i s s u q 0 = q w a f g g j g f s g g u u s s s s f f g s u a s g d a u q q 9 ",
"q q u f s p f g [ g h [ [ g f a a s g g a 3 t U 6.b.&X&Xv.@.A $ 0 u w u u q w s a u s f f s u s [ f f g s s f g g g g g f s s g g a d f s a s g f s a u w u q 9 ",
"q u u f f s g g g g h g g g f s s g g g q 2 C / f.Q.1X2XT.-.D # 0 a w 3 = * = = 9 q q q u s f f d f f f s a g g s g g g f s u s s u q 9 q s s w s f u u u u w 9 ",
"w w a a d d f f f f f s f [ [ f f d g s = 2 C $.h.W.1X1XT.0.K @ 9 s 9 * ; @ @ @ * < < * 3 u s f d s s ] u s g a u f j g g a u u u u 3 = 3 a s q s f s u u u 9 9 ",
"q w a d f d p s | g f d u p f g g u u q = ; B ! 6.k.W.W.j.$.D * u s 1 2 M M t t , N N M , 0 s f d s g f u u d s f g g g f s u u u s f u 9 a h g g g s u w u 9 9 ",
"q w a d d d u s [ f s f s s f f s u u u 3 * , K ^ 6.z.Y.k.7.~ t 3 y 2 L ! ! ~ U U ! / +...y 1 8 = 8 w f a u s d g g g f s s u u p s f s u g | | g g s u a u 9 8 ",
"q w a d s s p s f f f f ] f s f f s s p u q 3 6 K ^ 6.f.k.k.:.Y t 2 D $.s.p.p.:.7.p.b.n.>...2 # @ < q s f a d g g s f f u p p s f f p p f j |  .g g f f s a 9 8 ",
"q u s f ] u s s u s f s f f s s f s f f g g p 1 , D Q ;.j.Y.b.;.T U +.s.R.R.G.D.D.Q.-X2X%X>.P C K S y i a f g g g s s g s p s g s p s f j j |  .g s d h d a q 8 ",
"w u a s s s f f s s f f f f s f f f [ | j g f u 3 6 C Q 6.k.D.f.*.$.:.D./.Q.Q.Q./.-X5X7X;Xn.0.-.0.+.D 4 q u g g g s s f s s s f s u s f g g j g s u a d h a q 9 ",
"q w a a s s f h | f f | [ s f f g [ j j g g g g f q 2 C / 6.f.k.s.s.F.G.R.Y.E.!.(.:X5X5X2X*X%X~.&Xv.#.C 2 q s g g g f f p s g s a f s s f f s u u i 9 s h a q w ",
"w u a s a s s f g f g [ [ f s s f [ d u a s g g f s = , L _ 9.D.G.R.E.R.G.D.R.~.-X5X6X:X4X4X6X7X7X;XOX-.F 2 u d g g f s p s s s g g f g f s g f a u s g g a q 9 ",
"w w a s s p u a d ] g j g s a s f g u * = i d g g g = ; H ! 6.D.E.Q.E.R.F.D.G.~.:X>X5X:X4X5X7X9XeX0X>X#X,.A 5 q s j g a a s s a a f f h j f f f d d g j d a u 9 ",
"w w w s s s a p s s f g g s s a p f y 2 2 q a d d u * > I _ w.b.G.G.R.Y.F.D.G.!.-X:X6X:X:X:X4X8X0XqXqX,XOX,.Z 4 i g g a s f s u u u f j j g f s d d d g d a u 9 ",
"w w s d f f f f s d f f d g g w 9 y P ~ T A 0 8 3 1 < D +.$.w.k.G.Y.R.Y.G.F.G.W.*X=X:X:X4X3X:X>X>XqXwXtX,XOX,.{ y u u s f f s s i a f f g [ j g a a d d d a u 9 ",
"w w s g g f f g f f f f g h g q 2 A $.u.;.T 2 $ & , A ~ 6.6.i.j.F.Y.Y.G.G.G.G.G.W.~.-X:X4X4X:X:X>X8XqXwXtX,X#X,.{ t = u s f f f s f s s f h | g f s a a a a a 9 ",
"w a s d d f g f s g g g |  .[ 1 < L :.s.s.&.K x > H ~ ;.i.i.p.f.F.G.Y.G.G.G.G.G.D.E.~.-X:X4X3X:X:X6X8X0XwXwX,XOX,.> & 9 p f | [ h g f s s g j j g f s s a a u 9 ",
"w a s u p u s f g | [ g [ | [ w 3 A T :.f.i.8.) ! ~ %.u.f.f.i.p.s.k.G.G.G.G.G.G.D.G.E.^.-X;X6X5X5X7X9XeXrXrX0XOX+.+ # u f [ [ f g g g f f j j g j g j s u a u 8 ",
"w w s u s s s f [ | g g | | [ s i y t T =.g.B.g.9.6.6.i.p.p.i.i.p.a.k.F.R.G.G.G.D.D.G.E.~.=X4X6X4X4X6X7X9XeX7X$X+.> @ 9 f [ g f g g g g g j j s g j j s u a u 9 ",
"w s d d [ [ f d [ | | g | | u u u u = t I 4.B.S.V.f.p.i.i.i.i.w.u.i.j.F.G.G.G.G.G.D.D.D.E.*X-X-X&XT.n.$X*X3X3XT.>.D 6 q s f g [ g g j j j g f s f f f s a a 9 = ",
"u s f f f f f f g h h s g g s f h g u 3 A U 4.N.Z.V.z.f.u.w.i.w.7.i.j.F.Y.Y.G.G.G.G.D.D.Q.(.=XH.-.Y P O.c.&X5X4X%X0...S = w f s f f j j j j g g g f s s d d u 9 ",
"s f g g f f f f h f g s s f g g | h g u 0 6 L 5.B.L.V.f.w.w.i.7.w.p.h.F.Y.Y.Y.G.G.G.D.G.Q./.G.0.U + X - O.c.2X7X4XOX0.P $ = f w u f f g g j j g g d s f d d a u ",
"s g g | [ g f f h s u u i u | | f s s u q * > ) N._.K.l.w.u.i.w.w.i.j.F.U.Y.G.G.G.Y.R.G.D.s.;.+.X.n O . l O.v.*X5X=Xb.+.: * w s s f u i f j g d a u s a u a u u ",
"s g g g f f s g g s u s u s g f f s s u 8 $ > ) N.P.K.h.u.u.u.w.w.p.k.Y.Y.Y.Y.G.D.R.E.G.p./ U #.oXoXo.l o + O.c.T.!.g.O.: = w f f s u u s f f g f f a a u u u u ",
"s f f f s s s f g a s g g f s f f f f a = $ M ` N.L.K.l.q.u.u.w.w.p.j.F.Y.G.G.G.G.E.Q.R.:.V : X.@X<X+XX.O   + W p.F.u.Q ; * s g f s s s s d f f g g f u s a u 9 ",
"u a a d s p s s s i a j g g a f g g [ d = & N ` N.L.K.f.u.u.i.i.w.p.p.j.F.G.Y.U.G.E.Q.E.*.- . b 2.@X+X1.k     V &.k.u.W , 1 d g j f f s f f g f a f g g f u u 9 ",
"u p a s s u d s a 9 u a f g a s f s f s = & N ` N.L.K.l.u.u.u.i.i.i.u.p.j.F.G.R.G.E.Q.R.:.V . O X.1.1.X.k o   V ;.D.t.W 2 % w g j j j g f f f u u u f f g u u u ",
"u u s s s a d d a u u u a a f a u u s s 9 ; N ` N.P.K.f.w.w.i.i.i.i.w.w.p.j.F.G.G.R.Q.R.p.~ z o o k b b b l l ! p.k.t.U ; # 8 w f j f f j f a u u s u f f u i y ",
"u u u f f f g g f u u f f s a u p p f s q * M ` N.L.K.l.u.u.i.i.i.w.7.y.i.p.j.F.F.R.W.R.D.u.~ B o     o l G ^ t.F.k.:.T ; * w 9 y u u a j d u i a s f g d u u 9 ",
"u p f f f f g h f p s h f u u i p s f f i 2 M $.N.P.K.h.w.u.i.i.i.i.i.i.9.i.p.j.F.Y.U.G.R.G.p.+.z .   X x +.j.E.Q.k.;.U ; * u u u u a g j g s s s g d j g a 9 9 ",
"u f g g f f j g p p f g f u u p f [ [ [ w < N ` N.L.V.f.q.u.u.i.i.i.i.i.i.7.i.p.j.F.F.x.Y./.E.a.~ M + x ! i.Q.(.(.k.;.U > = w a a a {  .g g f f j f f g d s 9 9 ",
"a a f s f g g g f [ f u f f s u s g [ f q 2 N _ d.K.V.f.:.u.p.u.i.i.i.i.i.t.y.i.p.p.p.j.D.E.E.F.u.&.$.=.p.D.Q.(./.k.;.U ; = a s f f g j j j g s g j s f g a u 9 ",
"s u u s f g f g g [ f p s f g f g g j g q & N ` B._.K.l.u.t.t.i.i.i.i.i.i.i.i.i.i.i.i.i.f.x.G.G.F.k.j.j.k.F.Y.Q.Q.k.=.U ; 1 a s f g f g | | g f g g f f d s a u ",
"a s s d g g s s f g h f s s g j j g | g 9 & M 8.).{.[.L.f.i.i.t.y.i.i.i.i.i.i.y.i.w.7.7.i.p.z.Y.R.Y.j.p.u.j.F.Y.Y.s.&.U 2 * p f g g g g g j j f g g f f a d a a ",
"a u a g g g g d u s h  .j j h s u g j h u * M e.'..X X`.l.f.p.t.i.i.i.i.i.i.y.i.i.9.7.i.i.p.p.j.k.i.%.T Q *.f.Y.Y.i.$.U ; 1 f h | | | f f f f s f g s p a a d a ",
"a u a d h g g g u f h j  . .j s a j j g 9 < N <.).|.].`.V.g.t.t.7.i.i.i.i.i.i.i.i.i.i.i.i.i.i.p.p.:./ J J Q *.9.w.*./ L > < g  . .| f f f f g f g g s p w d d d ",
"u u a f f h f f f g ] f g | | h f  .[ s i 3 c R 1.m.).P.J.l.t.:.:.w.w.i.i.i.i.i.i.i.i.i.i.i.y.i.i.7.$.! U I U Q ~ W U K , 3 f  .| g f f [ | [ | | [ f u w s a a ",
"u a a f g } } [ } f f d f g h g [ | f u s w 7 c H E 8.S.I.J.p.t.u.i.i.i.y.i.i.i.i.i.i.i.i.i.y.i.i.i.i.7.$.T V V V C H C > q f |  .j g g f [ | [ g g s p u w u w ",
"w u s f g [ [ [ g f d d f f g f f | f p f ' e = > V 3.P.[.L.l.i.f.f.f.i.w.w.u.i.y.i.i.i.i.i.i.i.w.p.f.h.7./ H M z z N N t i f g j | g g f [ [ [ g f s p a w w q ",
"w u u f f s f g [ f s s f g g s f | g s f s p < > H m.].XX].K.l.B.B.f.i.q.:.t.y.i.i.i.i.i.y.i.t.w.p.p.f.u.*./ U V z c v i ] p f g j g g [ g [ [ g f f s a a w 9 ",
"w w s d s s g } h f f f h | f f g [ f ' ' ] m 1 : H e.)..X|.`._.I.L.V.f.t.i.i.y.i.i.i.i.i.i.i.i.i.i.i.p.p.f.y.$.U x 4 n ] ] ] u f h h g g g f g [ [ g f f s w w ",
"w w u d ] s } } h g f g h g f [ | f p p ' ] ' r 7 G ( m.).|.|. X{.I.V.l.g.g.l.g.p.9.q.7.y.t.i.i.i.w.w.u.z.J.K.y.! x 4 e ] ] ] u s h j g g g f f | | g g g s w w ",
"w w a s s f [ } g g g [ g g [ [ | f s p ' m ] r i v S E m.'..XXX}.`.L.V.Z.Z.Z.B.i.w.:.u.t.t.y.t.i.w.w.w.z.L.L.d.^ M 4 e ] ] ' r u g d d d g h g g h g g f g w q ",
"w w s s s d f f f f f g f s s ] [ p r r m ' i ' p e < x R m.).].P.C.P.`.[.[.I.K.V.l.f.f.g.f.f.f.p.p.p.i.z.V.B.8.E c 5 m ' ' ' p a g g g d g g g | | g f s s w q ",
"i a s s s g g s p p f f s p i s f w e e r m n r r e = 1 Z ( e.r.3.8.A.]. X}.`.I.L.K.K.K.V.l.f.i.p.p.p.f.d.9.5.E D v e m r m m w p f f f a f g j j j d d d a w w ",
"u u s f g h g g s f f f f f s f h r r r m m e e r r e e v G H H V E m.].XX X`.L.L.P.P.P.K.l.i.t.i.p.f.p.6./ J S c e r r ' n e e u u i u f j j g h g d d d h a w ",
"u u f g g g g g h g f f f f f f [ s f w r e e e m r r e e 4 : - ; C 1.A.'.S.M.d.d.N.N.N.d.9.*.%.*.*.;.;./ L c 4 5 r r ' r e e 0 u u u i a f g d g s a a d d a q ",
"u u a g f f u s h h g s f f f g g } g s w e 7 n m r r e 7 7 1 % * v I <.3.3._ _ ) _ _ ) ^ ! W U T W ~ W L S 7 5 0 r m ' r p p w u p u s u a s s d s w w d d a 9 ",
"9 u a u u a u i u g g s s f g g g g g g w e e e m r e e 7 7 1 0 e r v x V M M C B B B B B B B B V B B B Z v n e e ] r 7 i d f w w a a s s s p q a d g g g g a q ",
"u u s a u u s u u f f f s f f g g g g g f s s r m m n 7 5 e e e r r 7 4 ; ; : : 4 : : : : : : : : , , , 4 n r n n i e e s [ h r q w u s f f u u a d g g g s w w ",
"u a d d s s u p s f g f f g f g h f g f g } g s r n n 7 7 e r r p ' e 0 7 7 7 5 e 7 5 e 7 5 7 5 5 7 v 7 n n e n m p q q f g g a u i p f g f u u s f g g g u u w ",
"u d d u u p q u s [ [ h [ f u g } h f f [ } } s e 0 e 5 1 e r r ' m e e e e r w r m e r r e m r m m r n m w e r ' p u u s g g s a s g g [ g f a g g a a s u w w ",
"q a s a a s u u f [ [ [ [ d a f h g g f h g f s u i y q p e i ' m n n m r m r m m r m ] m r m ] ] r ' ' ' r a s s u p s s f f g g g j j g g g g f f p s s w w w ",
"q u u d d d f f [ f s f g d ] d s s g g g f s p a a u s s p ' ] m n m m m r m m r m r r r r m ] ' n n ] ' a g f a i s f s s f |  .| | h g f h h [ f f f s r w w ",
"q u a g g j d f [ f g g d f f s a s s s f f f g g f s s s p i e i s p i r a p r s r r e w e r s r w m p r d g s u s [ [ f s ] | j g j j | | h g f p s s p p q 0 ",
"u u d g j j d d f f f s w s d d d s s s f f g g h g ] f s s u q u p s f f d s s f f s w w r s s w a s p a f s w q s [ [ p s g h g f g g g [ | f f s u p u u q q ",
"q a g h g g d d f s a q w u f g f f f s f f s s [ [ f f h g f u u u s [ } [ d d } } [ s s s s w w g g f [ [ w 0 e s f f s a s d f s { f p f [ f g f s u u w w w ",
"q a g g j g d d f s a w w u d f f s s f f f s s s [ f [ g | g s p p s f d s d g f s d s d [ f r q g g g } } d s s f f f d d d d s s s s s [ [ f [ } f f s a w w ",
"q w g f g g d g ] g s p u s f f s p s f f f p s p s f f [ | [ s s s d s r a d g s s r d [ [ s w u s g g [ [ [ [ f f s s f [ g d f s s s ] [ [ f } } [ s p u w q ",
"9 w a f a u d g [ d d d d [ s s s s f s p p p s p u p f f f s s d f d a u d g d s a a d s d [ d g g g g ] d [ d d d s u [ [ g g f f f j | f f | } f s u w w q 9 ",
"9 w w d d w d g g f f g g f s s g g g a a s s f f p p f f s s s s d g s r h h g s p d f g g g h | j j g s s d f g g d s d g g g j g j j  .[ g f f p u u w a w 9 ",
"w w w d a w d h g g f f f f u s g g g d s s s f f s s s u p u f g d d s s s d h s s d g } j h g j  .h s s a p f g g g g d g g h j j  . .| | [ f p s p u a s w 9 ",
"w w w d a w s d g g g g d ] s d g f f g f f f s s f a u u s f g h h h s w s h h [ f d h | h d d d h g d f f s a s g d s d g j h g g h h f g j g h g f u w a w 9 ",
"w w w d d w w w d g g f s p p s f f g g f s a a p p s f f f f f g d d s s w s h g [ g h h g g g h h g s f f f a a g s s g h h g g g g s u g j g j g g a d w w 9 ",
"9 w w h w w w d s d g f s w s s f f g d d s a a a w u f f f s u s s s s w w d w g h g d g g d d g h f s f g [ u u a s s f g d d g g d u u g j g h h f a a u q 9 ",
"8 w w w w w w w s s d f s s s s s f s s g d a s a u q q u s a u s d s s w w r h g g h d g g s s d d f p d g d s u a u a s f g d g g d s u f g g g f f p u q 8 8 ",
"8 9 w w w w d d d s r w s d s s a g g s g s d f s u u u u a a a w s s s s w w h g d d d f s u w a s d u d d p a s s a a u s d s a s s s g g g g s u u u q q 8 = ",
"8 9 w w w w d h s d d w s g a w a d g g g g g g f u s p u a s a s s w a w s d h g d s g s w w w q a s u s d s s s s s a u a s a a g s s g g g f u 3 u q q q 8 % "
};
