/* XPM */
static char *__resized[] = {
/* columns rows colors chars-per-pixel */
"80 80 209 2 ",
"   c #272D2E",
".  c #2C2E2E",
"X  c #352D26",
"o  c #332E2A",
"O  c #382F29",
"+  c #2D312F",
"@  c #33322E",
"#  c #3C332C",
"$  c #242E31",
"%  c #2D2E30",
"&  c #2D3334",
"*  c #2E3936",
"=  c #25373A",
"-  c #2B3B3E",
";  c #333434",
":  c #3B3633",
">  c #353A35",
",  c #3B3A34",
"<  c #363438",
"1  c #3B3738",
"2  c #343C3C",
"3  c #3D393B",
"4  c #41362E",
"5  c #44382F",
"6  c #423731",
"7  c #453A32",
"8  c #4A3E34",
"9  c #443C3C",
"0  c #493F3C",
"q  c #2D413E",
"w  c #33433D",
"e  c #3B423A",
"r  c #4D4136",
"t  c #44423A",
"y  c #4E423A",
"u  c #514337",
"i  c #53453A",
"p  c #58473B",
"a  c #56483B",
"s  c #5B4B3D",
"d  c #604F3F",
"f  c #61503F",
"g  c #2C3E41",
"h  c #363D40",
"j  c #473E40",
"k  c #483F40",
"l  c #274243",
"z  c #2A4342",
"x  c #294748",
"c  c #2C4C4C",
"v  c #334443",
"b  c #3C4142",
"n  c #324B45",
"m  c #394B47",
"M  c #324A4D",
"N  c #2F514E",
"B  c #36524A",
"V  c #3A564D",
"C  c #2C4F51",
"Z  c #334D52",
"A  c #2E5353",
"S  c #335453",
"D  c #345A53",
"F  c #345B5B",
"G  c #395A59",
"H  c #35655B",
"J  c #39645B",
"K  c #3A5E61",
"L  c #336461",
"P  c #366965",
"I  c #3A6C64",
"U  c #366C6A",
"Y  c #3A6E68",
"T  c #3D7264",
"R  c #3B7369",
"E  c #396D76",
"W  c #3A7473",
"Q  c #3B7877",
"!  c #4C4241",
"~  c #504542",
"^  c #5E4E40",
"/  c #505347",
"(  c #604F40",
")  c #625141",
"_  c #695644",
"`  c #436D63",
"'  c #46796B",
"]  c #517B6C",
"[  c #447F70",
"{  c #3F8371",
"}  c #438474",
"|  c #4D8475",
" . c #43877A",
".. c #468B7A",
"X. c #4A8B7A",
"o. c #528574",
"O. c #4A957C",
"+. c #4B947E",
"@. c #57927F",
"#. c #3E7986",
"$. c #518F80",
"%. c #469184",
"&. c #4B9481",
"*. c #4F9D84",
"=. c #44938B",
"-. c #48978F",
";. c #4F9F88",
":. c #509E84",
">. c #599885",
",. c #479A90",
"<. c #4A9C93",
"1. c #4C9F98",
"2. c #4FA088",
"3. c #50A086",
"4. c #51A38A",
"5. c #5DA48C",
"6. c #54AA8E",
"7. c #4EA395",
"8. c #4DA29B",
"9. c #55AD91",
"0. c #56AF99",
"q. c #57B093",
"w. c #5AB493",
"e. c #5BB996",
"r. c #56B29B",
"t. c #58B69D",
"y. c #5EBD99",
"u. c #65A58C",
"i. c #68AD92",
"p. c #66B597",
"a. c #72B597",
"s. c #4AA2AE",
"d. c #51ACA7",
"f. c #54B3A2",
"g. c #56B7A7",
"h. c #59BAA3",
"j. c #56BAAD",
"k. c #59BEAA",
"l. c #4CA4B4",
"z. c #55BBB1",
"x. c #5EC39B",
"c. c #5ECA9F",
"v. c #61C59D",
"b. c #62C99F",
"n. c #5BC1AD",
"m. c #5BC5B3",
"M. c #5ECAB6",
"N. c #5CC6B9",
"B. c #5ECBBA",
"V. c #65CCA1",
"C. c #69CCA2",
"Z. c #76C7A4",
"A. c #7AC5A3",
"S. c #66D2A4",
"D. c #6AD3A7",
"F. c #67D9A9",
"G. c #6BDAAA",
"H. c #73D4A9",
"J. c #73D7AB",
"K. c #7BDBAD",
"L. c #60CEB9",
"P. c #7ADEB0",
"I. c #78E3B1",
"U. c #53B7C2",
"Y. c #5FCEC2",
"T. c #59C9D7",
"R. c #5DD0DF",
"E. c #61D3C3",
"W. c #62D7CC",
"Q. c #63DBD8",
"!. c #67E4DD",
"~. c #5DD0E1",
"^. c #61DAE4",
"/. c #64E2EC",
"(. c #68E7E9",
"). c #68E9F3",
"_. c #8AD5AF",
"`. c #85D4B1",
"'. c #82DDB1",
"]. c #8ADBB5",
"[. c #83E2B3",
"{. c #84EBBB",
"}. c #8EE9B9",
"|. c #92EDBC",
" X c #99EABD",
".X c #8EF1BE",
"XX c #96F0BF",
"oX c #9AF1BF",
"OX c #A2F3BF",
"+X c #ADF5BF",
"@X c #BDF9BF",
"#X c #C8FCBF",
"$X c #8EF1C2",
"%X c #96F1C1",
"&X c #9BF3C2",
"*X c #9DF9C7",
"=X c #9DF5C8",
"-X c #A1F6C4",
";X c #A7F8C7",
":X c #A4FCCA",
">X c #B7FBC8",
",X c #ADFAD3",
"<X c #C5FDC1",
"1X c #CCFDC4",
"2X c #C6FECA",
"3X c #D4FFC1",
"4X c #D8FFC2",
"5X c #D6FFC9",
"6X c #C8FFD0",
/* pixels */
"# O # # 4 5 5 5 5 5 5 5 5 5 8 4 # r 7 5 r r 8 8 5 5 4 4 4 4 5 5 5 5 O 4 5 8 5 5 5 7 8 5 5 r u r 8 8 r 8 5 r r 8 4 X X O 4 5 u 5 5 7 8 8 8 8 8 8 8 8 5 5 8 5 4 X ",
"X # # # 5 5 8 8 8 8 5 5 5 5 8 5 7 r r 5 5 5 u 8 5 8 8 8 8 5 5 8 8 5 5 5 8 8 8 8 5 5 5 5 8 r u u 8 r r 8 8 r 5 r 8 5 4 # 5 5 5 5 4 7 8 8 8 8 8 8 8 8 4 5 5 5 4 O ",
"X # 5 5 5 8 u u u 8 8 5 8 8 8 8 r 7 r 7 # 8 u 5 5 8 8 8 r 8 8 8 5 8 8 u p 8 8 8 8 5 5 7 r u u u u r r u u r 5 r p i r 4 r 5 5 O 4 7 8 8 8 8 8 p 8 p 5 5 5 8 4 O ",
"# 5 8 7 5 5 r u u 8 8 8 8 8 8 8 8 r r r 7 r i r 8 8 4 5 r 7 7 r 8 8 u p p p p 8 i r 7 u u u u i u u r u i r 5 t u 8 r u 5 5 # # 4 4 p i 8 8 8 8 p 8 8 5 5 5 5 4 ",
"7 8 r r 8 8 r u u r 8 8 8 8 8 8 r i u u u u y r 8 8 7 7 r 7 5 7 8 u u u 8 p 8 8 u 8 7 u i u u i p u i p u r r r u 5 u u u 5 # # 4 6 i p u r 8 u 8 8 8 8 8 8 4 4 ",
"5 8 r r u i u u r u u 8 u u u 8 u i u u a a u r 8 8 r u i 7 4 7 8 8 8 r p p p 8 8 6 5 r i u u i p s p p u r 5 r p u u u p u 5 4 7 8 i p u r u p 8 8 8 8 8 5 4 X ",
"# 7 u u i s i i i i u 7 u i u u r 8 7 7 u p i y 8 r 8 8 8 7 8 i u u 8 u p p p u 8 8 y 8 u u i p s s s p p i r u p u p p p u r u a s i i u u u i p 8 8 8 8 8 8 5 ",
"5 8 u u i p i i i a r 7 r i u p u 7 7 7 u i a i 8 5 # @ @ # 8 i i r 8 u p p p p 8 y u u u u i a p a s s s p u i i p p p u 8 8 f d s p i u u i u 8 8 8 8 8 8 8 8 ",
"5 r r i i i r r y y r 8 r i i i i i r 8 r a a y 6 % $ $ $ + , y u u 8 u i i a i u r r i u r a a p i i a i p s a i p s s r O O i a i a i u a i r 8 t 7 7 r r 5 # ",
"7 r r i i r r 5 8 r i a y i a i i i y r u a i 7 > n H I J m e 7 8 8 8 i i i u u r 5 7 r y r i s ) s i i u u a a u p i s r r 5 8 u i u 8 i a u 5 8 r r r 8 8 5 # ",
"5 7 r i i u r 5 7 r a s i i a i i a i i i u 7 , B T >.u.u.] / > 7 7 r i i r r r r 7 7 r u u i f _ s u r 8 u i i u i s i i p i t 7 i 8 8 i s i r r u r r 8 7 4 # ",
"5 r r r r r r r r i s s a a i i a i a a a 8 @ n H O.C.[.].a.] v . # y i r r 7 r r y r y i i p s ) i y y u i a i u i i i s s p u 8 7 i i i a s s s u r 8 r 7 5 5 ",
"5 8 u r r r r r i a s ) a i a a a u y i ^ 7 & D } 9.P.$X&X`.$.c & X 8 a a r r r 7 r y y r r 7 8 8 8 y i s s f s u i i p i i i u u u i s a i i i a a u r 7 7 7 5 ",
"5 8 u i r t r i s a s ) s i a s i y r a ^ 7 & F  .9.I.I.|.H.>.A & # 8 a a 8 r i 5 t i i r 8 : 5 7 8 u p s s f s a i a a u u i a i i i s s i u u a a a r r 7 8 5 ",
"7 8 r a i y a s s s s ) s s a i i i p d ^ t > M Y ..t.F.S.w.} x & # 8 r r 7 r i r y i s a i y i a s s s p u a s s d s s a i i s a i p a p i i s a i u r 8 r 7 5 ",
"7 r r i a a s s s s f s s s a i i s s ( s u , w S R &.9.6.} D w : 7 8 t r 7 7 8 i a s s s a a a ~ i s i i i s i i s s s a i r i i r 7 5 7 u i 8 i i y r r r 8 5 ",
"8 8 u i i p i s a s s i a ^ a a a i i s i p 8 7 w B R Q R D w , r r r r r y 7 7 u s ) d s s a a a i i s u i s i r a f s s u r r y r 5 # # i i 7 i s y r 8 r 5 5 ",
"7 8 u p s i y i ) s a i y y a s i 8 7 7 u i a u , * l x q * , i s a r u i i i y i s ) f s a s s s i i s r r a i a s s s i i r r r i a r 7 i f ^ s s i r r r 7 5 ",
"7 8 u i ~ i y i ^ a a a i i a a 8 @ o # 8 i a i r , ; * & # r a f a r i a a a i i s f d d s a a i p a s y r i s a s s s i y r y y a i i r s ) ) d s i u r r 5 4 ",
"8 8 u i s i u u a a i i i a y y 8 * & > 8 u i i r r 7 # # r a a s a r r u y y r r i s i i s u r u i a i i i a s s i a a i r i i a i y r i ^ ) ) s a a i i u 5 4 ",
"8 8 u s i u i u r i a i i i 8 , m J H V e r r y a s ^ a r a s a a a i r 7 5 4 # 7 7 7 5 7 7 7 4 7 8 u s a i a s s i i a y r i a a y i s f f ) _ s i a s s i 5 # ",
"7 r u i i i s s u i a a i r ; v T O.O.' m , 7 a s ^ ) s r a s s s p i r : & + . + + + + & & & . # 7 i s ^ a s s s a i a i i a a i r i a s s d s i r r a s i 8 4 ",
"8 8 u u i i a s f a a ) a 7 + B } q.w.O.S > # s ) ^ a a i r r a i u r e * x l l l l l q g l l g > 7 y s s i a s s a a a y i a a a i i i a a i r r r 5 i d u 8 8 ",
"8 8 u u i i i a s s s f s 8 @ n ' O.3.} n > 7 a f ^ s s a r 7 # # # , w H } | o.o.o.| } | X.$.' V , @ # X 7 s s s s s i y i i a a s s i s i a a u r i s p u 8 5 ",
"8 8 i i i y u i i ^ s ^ s u 7 e B T T V e t u p s s s s a r , & & > q H O.p.Z.Z.A.`.a.A.A.Z.`.a.o.B & $   > i a f f a i i i i i r i a s f a i s i i s s s u r 5 ",
"8 8 8 i i y y u i i s i a a i 7 , q * e r i p p a a p u 5 , w N c C H ..e.I..XXX*X&XoX-X-X;X,X Xa.' S C N n t i a f a i a i i r r r s f f f s a p s s s p u r 5 ",
"8 8 i p s i i i ~ i i i s s s u 7 @ @ , u s s y y i u r # w J } {  .O.p.H..X*X*X:X:X:X>X>X2X6X>X_.i.>.>.@.' m : 7 a a a a i i y y y a a a ) ^ a u i p p p u 8 5 ",
"8 8 i s s a ^ i s a a i s s s s r 5 4 r i a i a i r r # > J } w.e.e.v.H.}.*X*X*X*X-X:X>X1X5X5X1X@X].`._._.i.' v @ r a a i a s a a a i y a ^ ) s i i u u u u u 8 ",
"8 u u p p a ^ s i s s s ) _ ^ s a a u r r 8 y s s i # w D ..e.F.F.F.G.[.XXOX*XoX%X%XOX;X#X4X4X#X1X>X,X,X-X].p.` w , r i i s ^ ^ ^ s a y i s f f f i i i r u 8 5 ",
"8 8 u u i u i s s ) ) s ^ ) ( s s a i i u u y ^ r , w D } 6.b.D.S.F.J.}.oX:X*XoX|.|.oXOX@X#X#X#X4X3X6X>X:X%X].u.` n @ 5 a ^ s s s ^ a ^ i f f s s f f i r u r 5 ",
"8 8 i u i i i a s ) d s ) ) ^ s s a a s s a i a t * D } q.b.F.b.b.V.D.[.XXoXoXoX&XXXXX%XoX+X#X#X3X3X<X>X-X&X=X_.u.` v , u s s s s s f s f f s i a f f i u u 8 5 ",
"i i i i ^ ^ i i ) ) s s ) ) i y u i s ) ) s i 7 2 N } q.V.G.G.b.x.c.C.H.P.XXoXoX&X&X|.|.|.OX+X>X<X#X@X+X&X=X,X-X'.5.J l , 8 i s ^ s s s f s s i a s a i u u 5 4 ",
"y i a a a a a a s ) s a s f u a ^ ) s s ) i 6 v S R ;.y.C.F.S.V.v.b.b.V.D.'.}.oX-XoXoXXXXXXXoX+X+X+X+XoXoX*X:X*X}.b.O.H q , 8 r i s s f f f s s s s i i p i r 5 ",
"i a a a a a a a f s a i r i a f ) ) s a ^ r ; n P ..9.y.x.V.V.V.b.b.b.x.b.H.[.|.&XoXoX&X&XXXoX&X&XoX*XoXoXoX-XXX{.K.w.{ N * # 7 i s a s f f f s s i i i p s u r ",
"a a f f ^ s a s s i r r r y f f s i i i a 7 . x I &.w.y.e.x.v.C.V.V.b.x.x.b.H.'.}.oX*X-X&X&X&X%X%X%XoX*XoXoX}.[.P.I.x...C & # r i i r r i f s p r r a i r u u r ",
"a a s s a a i a s i r i r i f s a i i y r # & M Y +.9.q.6.q.y.V.V.V.b.x.v.v.b.D.'.|.oXOX&X&X%XXX%XoXoX&XoX|.K.H.D.G.x.O.A * @ r i u r t i a s i a a i r r u r 5 ",
"i p p a i i i a a u a s a i i i a a i r 7 : z L } &.6.4.4.6.w.x.b.V.V.V.b.x.x.b.H.[.}.|.}.}.}.}.}.}.|.|.}.'.H.b.c.S.x.O.I n , t u u i i i i a s f a i i t i r 5 ",
"u u i i i r i a a r u s f s i a s s i 7 ; M I %.7.4.4.4.2.4.6.w.v.b.V.V.b.v.x.c.S.H.K.K.K.K.K.K.K.K.K.'.K.H.b.b.c.V.v.w.*.T B e 5 r i a i s s i i a s s a i r r ",
"r u u i i y i i r 7 r a a i i i a i r @ g L -.j.k.r.4.;.2.2.2.6.w.x.b.V.V.b.b.b.b.V.S.b.b.S.C.C.b.b.S.b.b.b.b.b.v.b.V.S.v.3.' q , r i s s s i u r i i a a u r 5 ",
"u r y i i u a a r r r r i i i r r i # + x [ d.L.L.f.4.:.4.2.2.4.4.w.x.b.V.V.V.V.b.v.x.x.x.x.x.x.c.x.v.x.c.x.b.b.b.b.D.G.G.y...x + e u s f a i r u u r i s u t # ",
"r r i i s a s s a y y i i i r r y y 4 o q W 8.B.M.t.3.3.3.3.2.2.3.6.w.x.b.S.C.C.V.b.x.c.c.v.c.v.v.v.v.b.v.b.v.b.b.b.D.G.D.e.} x   O r i f a y t u i a s s r 5 4 ",
"r i a s a a s s a y i f a i r r i i t @ q U 8.N.n.t.3.3.2.2.4.2.3.3.6.w.v.b.b.v.c.b.b.b.b.b.b.v.b.b.b.b.b.b.b.b.V.b.S.F.b.6.} q   O u f f s a t i a s f s r 8 5 ",
"r i s a i a f s y y a s a y t r a s t , l U 8.M.n.r.3.*.4.4.4.4.3.3.3.9.w.e.e.e.x.b.C.b.b.b.b.b.b.b.b.b.b.b.V.S.V.V.S.b.y.*.R q + # f f f a a a s s a s s r 8 5 ",
"r i i i a s s s a s a y i a i i i s r > l U 8.m.m.r.2.*.4.4.6.2.3.3.3.6.4.6.6.9.w.v.b.S.V.b.b.b.b.b.b.b.b.b.b.b.V.S.V.v.q.O.R l + 5 i f f f a a f f i a s u r 5 ",
"i r u i a s a a s ^ s r u i s a s s r # g U <.m.m.h.9.2.4.4.2.4.2.4.2.2.2.2.2.2.6.e.v.b.V.V.b.V.V.V.V.V.b.b.c.v.v.v.v.w.4...P l + t u s f / f i s f i a p u u u ",
"i i u a s s p a a s f s i i f f f s r , l P <.m.B.m.t.9.6.4.3.4.4.4.6.2.2.2.2.2.6.q.e.v.b.C.S.C.V.V.V.S.S.b.e.w.q.w.w.9.3...I z @ t u f f f f s a a a i u p u u ",
"r r u s d s d p r i f _ f f f i r s r : z U <.B.E.Y.z.r.6.*.3.4.4.4.4.4.4.2.4.2.:.4.9.e.v.C.b.b.b.v.V.V.b.p.q.6.4.4.6.9.4.+.I z > r a a a s a i a a i y u u p u ",
"u r u p s s s a r a s f _ _ f i u f r @ - E d.Q.!.W.m.0.6.*.3.4.4.4.4.4.4.4.4.4.:.2.4.9.e.x.y.y.x.e.x.x.e.e.6.:.&.:.6.r.t.7.[ x + t a s a a a i f f s t r p p i ",
"u r i i p ( p i s s s a ^ ) ) s s ) r o q Q U.).).Q.k.9.2.3.*.4.4.4.4.4.4.4.4.4.2.2.4.6.6.q.q.q.q.q.q.q.q.9.4.3.*.O.6.n.n.f.{ x + 5 r s s ^ ^ ^ ( ^ i y 8 i i u ",
"r u i i p ^ ( ^ s s a a a a ^ s ^ ) r + - E l.~.).Q.Y.h.9.3.3.3.4.3.4.4.4.4.4.4.4.2.4.4.4.4.4.4.3.3.3.3.2.2.3.3.4.6.t.j.k.7.Q x , r a s a f ) ^ ^ s i u r 8 8 8 ",
"8 u u a ^ ^ ^ ^ ^ i a a a a s a s ) u : w G #.l.T.^.Q.Y.g.6.3.3.3.3.3.4.4.4.4.4.4.4.4.2.3.2.2.2.4.:.3.3.3.*.*.4.q.h.k.f.<.#.K h 9 a s s s s ^ ^ s a i i u 8 5 8 ",
"8 r u i i i p ^ ^ a i i a ^ s i s ) s i ! v Z E s.R.).(.M.t.4.3.3.:.3.4.4.4.4.3.4.4.4.4.2.4.2.2.4.4.4.4.3.3.*.4.h.M.j.<.Y Z m 9 y s a s s f ^ ) s a a y u u u 5 ",
"8 8 u i i i p ( ^ a a a ^ ^ a a s ) s a ~ 9 < M E s.~./.Q.Y.m.t.9.9.6.6.3.3.3.3.3.4.3.3.3.3.3.3.*.3.3.4.6.9.q.t.g.j.1.W c h 9 0 i ^ s s d s a s ^ ( s s i i u 5 ",
"8 8 u p i i ( ( ^ s a s ^ f a ^ ) ^ s s 0 7 9 2 M E s.T././.W.m.h.g.r.9.4.*.*.3.3.3.3.3.3.3.3.3.3.:.3.4.6.t.n.n.f.-.W Z 2 9 k i i s s d s s a a ) ) s s s u 8 8 ",
"8 0 8 i p s d ( ^ s ^ ^ ^ a ^ ^ ) s s ~ i k y ! < g E s.~./.Q.B.m.m.z.f.6.3.3.4.4.4.4.4.4.4.4.4.4.6.4.*.4.t.n.j.<.U M < j ~ ~ 0 8 i i p a d s s s ^ s s s p 8 7 ",
"8 8 p i i ~ p p i a a a a i y a s p i 8 k k ! ! 6 < M #.l.U.l.8.g.N.E.M.n.t.t.h.h.h.h.h.h.h.h.g.h.h.r.*...%.7.,.Q S 2 9 0 k ~ 0 r i s s p a s f ) ) s a i i 8 7 ",
"r r a a a a s a y i a a a y t u ~ i 0 9 0 ! ! 0 9 6 h G E #.E Q ,.z.W.E.M.m.m.m.z.m.m.m.m.m.M.M.L.L.g.%.U L U P F v 9 9 0 k ! 0 t r a a i a s s f f p p p u 8 8 ",
"r r i a s s f s i a a a a a i a ^ i u u 0 0 9 9 0 k 9 h l = = g U ,.z.m.z.j.k.j.z.z.j.j.j.z.j.z.m.z.d.Q C = = g h j 0 y 0 9 9 9 7 r 5 r i f f s d s p p p p p 8 ",
"r r i s s s a a s s a a a a a a s p p i 0 9 9 j k ~ 9 : & . % ; S Q =.,.=.=.=.=.=.=.=.=.=.=.=.=.,.,. .F z ; ; ; < 9 0 ! 0 9 9 7 r r r t i s s a a p u u p p u 8 ",
"r r i a a a r i f f s i a a a s ^ ^ ( p r 7 7 9 k 0 9 3 1 1 9 1 b S L P L L H L L F K F L L F L L L F M b 9 9 9 3 9 0 0 0 0 0 8 t y i y r r i i p i 8 8 p p u 5 ",
"5 r r r r r r r y s ^ i y a a s p ^ s d p 8 8 0 0 0 9 9 9 9 6 1 < h = g g g g = h g g g g g g g g g g h ! ~ y 9 9 ! 9 9 y i i 0 7 r i i i i r 8 u a s s s s u 5 ",
"r r i u i r y r r i s i a a s s s p s s p p p 8 0 0 j 3 3 9 9 9 9 1 ; ; ; ; < < < < % < % < % % & ; < 9 y ! 0 j j ! 9 , y ^ s 8 7 r y i a i r r u i s d s i 8 8 ",
"r u a i i u r y y a s p s s s s ^ p p p ^ ( _ p 0 0 9 h 3 9 0 0 k k 9 j 9 9 9 9 0 9 9 9 9 9 9 9 9 k k 9 9 0 9 9 ! ! 9 7 i d s y 7 r r a s a u r i a a s a u 8 8 ",
"8 a s r r i 8 8 a s ( ^ s i y s ( ^ ^ p ( ( d d 0 7 6 6 6 6 9 k k k 0 9 9 0 0 9 k 0 j 0 j j k k 9 k k j ! 9 9 0 y y 8 r i a s i i a s s ^ s p i a a u i p u 8 8 ",
"8 u i u u i r u i ^ ^ ^ ^ p u a s s s s f s a a y r t t r r t y ! j 9 9 9 y 0 j y 0 j y y j ! ~ y j ! ! ! 9 y i i y y i i i a s ^ s ) f a s s a s s y i i r 8 7 ",
"8 8 r a a a i a ^ i i p ~ p s i a i a s s a i i i a y a s i y ! ! j 9 ! 9 ! 0 0 j 0 y j 9 9 0 ! ~ 9 9 ~ y y a a i y i a i i a ) ) ^ ) f a s f f s a a a i 8 8 8 ",
"8 8 u s s d a p s s s s s p p i i i i i a a a s a a a y i i y y y y i y y y u i i y 0 8 0 8 u u u y 0 y y y s i y i ^ ^ ~ i a ) ) s f f ) ) ^ s a y i i y t 7 4 ",
"8 r a s f d p p p s p i u i i p i i i i a a a s ^ ^ a a a a y 8 y i i a s s i i s s i y u 8 i i y i i i i i i 8 7 y ^ ^ a i a ^ s a s f s ^ ^ s i i y y y r 8 7 ",
"7 u s s s s p p p i 0 7 8 r i s s a i i a a a i s ^ a a f s a i y y i ^ ) s p i ^ ( s s i i i i r s ^ s ^ i 0 7 8 i a ^ i u i p a a / a i a / s s s i y 8 0 8 8 ",
"8 u s d d s a a ^ i u 8 7 y i s a y i a a a i i a s ~ ^ s ) s i u u i a s p ~ ^ s i i a s s p 0 7 i s s ^ ^ i i i a a i i p p p i a i i i ^ s a s ( a a i u 8 8 ",
"7 8 p p s p s s ^ i i i u i i s i y i a i a y y i i a a ^ ) s i i i i i r u p ^ i y y a s s p u r i s s ^ ( ( s s a i u s ^ s p i i y i ^ ^ s s ( ( s i u u 8 7 ",
"4 8 i p p 8 p s ^ i i i p ^ i i i i a a i y i i i y i a a a i i i s a i u i p p i y y a s p s s s s s s a s ^ s p a u y ^ ^ s s a a a ^ ^ a a ) ( s u y 8 8 7 5 ",
"5 8 8 p 8 8 d d p p p p s a y i s s p i u i i a i y y a i i y u p p p i u ^ ( ^ i y i p s s d d ) ) f a i i i s s s i p a s s s f f f ) _ ^ a a a y y r u u 8 5 ",
"8 8 8 p p 8 p d d p p p ^ a y i s f s i i u a a a y i i y i i a p s s i u i p ^ i i p s f f s s ) ) f a i u i a s s s p p p s d s f _ ) ) ) ^ a i y r r 8 p 8 5 ",
"8 8 8 p 8 8 8 d ^ ^ p p a i a i a a s s a a i i i a u r y u a s ( ( p i u u s ^ ^ s s d f f s p p d s a p i i i p s a i p d f d s s ) s a s ) f f s a u p 8 8 5 ",
"8 8 8 p p 8 8 p i s s s i y i i a a s a a a i u r i i a a a a a p s p i u y i ^ ^ s s d d s s p d d s p p p p i u a i i p d d s s s s a r s f s f f a u 8 8 8 7 ",
"8 8 8 d 8 8 8 8 i p s s u u u i a s a a p i u u u 8 y i a a i r i i i u 8 8 i p p d p p s s s p s d s i i s ^ 8 r u i y s s s p s f a u r a s s s f i u u 8 7 5 ",
"4 8 8 8 8 8 8 8 i i p ~ i u i u i a p i s p u i u r 7 7 u u u r i i p i i 8 8 p s s ( p s s i i p p a y i s i i r u u u i s s p a a p i i a d s s a s u 8 8 6 4 ",
"4 5 8 5 8 8 8 d p 8 i i i p p u u p p a s p i a i r r r r u i r i u i u 8 8 8 d s p p p a u r r u i i u i s i i i i u u r i i i i a u i a a s s i y y 8 8 8 4 # ",
"4 4 8 8 8 8 d d p p 8 8 i ~ u u i p p s s a s s a r i i r u u i u u u u 0 i p d d p p p u 8 8 8 7 u i u i i u i i i i u 8 u i u u a i i a s s s r 7 8 7 6 7 # O "
};
