/* XPM */
static char *__resized[] = {
/* columns rows colors chars-per-pixel */
"80 80 208 2 ",
"   c #2E2E2C",
".  c #352D26",
"X  c #332D2B",
"o  c #382F29",
"O  c #2D312F",
"+  c #34322D",
"@  c #3C332C",
"#  c #352F32",
"$  c #263635",
"%  c #2B3535",
"&  c #2C3937",
"*  c #2D3539",
"=  c #263A3C",
"-  c #2B3B3B",
";  c #343432",
":  c #3A3632",
">  c #333934",
",  c #3C3B34",
"<  c #31363A",
"1  c #3B3739",
"2  c #323A3A",
"3  c #3D393B",
"4  c #41362E",
"5  c #43382F",
"6  c #413731",
"7  c #453A32",
"8  c #4A3E34",
"9  c #43373A",
"0  c #453C3C",
"q  c #493F3C",
"w  c #33443E",
"e  c #3C433C",
"r  c #4D4136",
"t  c #444339",
"y  c #4E4239",
"u  c #514337",
"i  c #53453A",
"p  c #58473B",
"a  c #56483B",
"s  c #5B4B3D",
"d  c #604F3F",
"f  c #61503F",
"g  c #283F41",
"h  c #3A3E41",
"j  c #463E40",
"k  c #483F40",
"l  c #2C4444",
"z  c #2B4846",
"x  c #2A4648",
"c  c #2B4C4B",
"v  c #324543",
"b  c #344B46",
"n  c #394B44",
"m  c #384649",
"M  c #2C514F",
"N  c #34524B",
"B  c #3A534B",
"V  c #334C52",
"C  c #2B5352",
"Z  c #2F5C59",
"A  c #315652",
"S  c #3A5755",
"D  c #335A54",
"F  c #335E5C",
"G  c #34625E",
"H  c #396459",
"J  c #39665D",
"K  c #3B6B5F",
"L  c #395862",
"P  c #346362",
"I  c #366666",
"U  c #3B6D63",
"Y  c #3B6C69",
"T  c #3D7569",
"R  c #3D756A",
"E  c #396870",
"W  c #3A7A75",
"Q  c #3B7B76",
"!  c #434142",
"~  c #4D4241",
"^  c #514643",
"/  c #5E4E40",
"(  c #5E5041",
")  c #604F40",
"_  c #625141",
"`  c #695644",
"'  c #446A61",
"]  c #467567",
"[  c #437A6D",
"{  c #4B7A6D",
"}  c #467E72",
"|  c #3C807E",
" . c #41806F",
".. c #448575",
"X. c #448A76",
"o. c #48867A",
"O. c #468A7B",
"+. c #538B79",
"@. c #4B947E",
"#. c #4D987F",
"$. c #3F7D8A",
"%. c #427F8F",
"&. c #3E8488",
"*. c #428B85",
"=. c #4B9581",
"-. c #4E9D84",
";. c #45918A",
":. c #48958D",
">. c #4F9F88",
",. c #539A85",
"<. c #509F84",
"1. c #489792",
"2. c #479897",
"3. c #649F89",
"4. c #4FA088",
"5. c #50A086",
"6. c #51A38A",
"7. c #54AA8E",
"8. c #4CA498",
"9. c #4EA89E",
"0. c #55AD93",
"q. c #56AA94",
"w. c #56B096",
"e. c #59B493",
"r. c #5CBA96",
"t. c #55B29B",
"y. c #58B69E",
"u. c #5DBC99",
"i. c #69A58C",
"p. c #66AD91",
"a. c #6DB89B",
"s. c #74B89A",
"d. c #73BC9D",
"f. c #4998A6",
"g. c #4DA8A4",
"h. c #50ACA2",
"j. c #55B4A3",
"k. c #57B7A4",
"l. c #59BAA4",
"z. c #56BAAD",
"x. c #5ABEAA",
"c. c #4CA6B1",
"v. c #54B8B2",
"b. c #58BEB2",
"n. c #72BEA0",
"m. c #5EC49B",
"M. c #5FCA9F",
"N. c #61C69D",
"B. c #62C99F",
"V. c #5BC1AC",
"C. c #5BC5B4",
"Z. c #5DC9B5",
"A. c #5CC5B8",
"S. c #5DCABB",
"D. c #65CCA1",
"F. c #6ACEA3",
"G. c #78CDA9",
"H. c #67D1A4",
"J. c #6CD4A7",
"K. c #6BD6A8",
"L. c #6BDBAA",
"P. c #73D5A9",
"I. c #75D9AC",
"U. c #7DDCAF",
"Y. c #60D0BF",
"T. c #7EDDB0",
"R. c #7BE4B3",
"E. c #53B6C5",
"W. c #5BCAC7",
"Q. c #5FD1C2",
"!. c #5ED0CE",
"~. c #5CCCDA",
"^. c #5FD2DA",
"/. c #61D5C8",
"(. c #65DEDB",
"). c #65E3DA",
"_. c #68E7E8",
"`. c #68E8F1",
"'. c #6DF3F6",
"]. c #80CEAE",
"[. c #85D2AD",
"{. c #80DEB1",
"}. c #89DDB4",
"|. c #96DEB2",
" X c #86E7B7",
".X c #8EEABA",
"XX c #97E9BD",
"oX c #92ECBC",
"OX c #84F0BE",
"+X c #97F0BF",
"@X c #9AF1BF",
"#X c #A1F2BE",
"$X c #ACF5BF",
"%X c #B7F8BF",
"&X c #CEFEBF",
"*X c #96F2C1",
"=X c #9BF3C2",
"-X c #9CFAC7",
";X c #A0F6C4",
":X c #A4FACA",
">X c #A9F9C8",
",X c #B8FBC8",
"<X c #A9F8D1",
"1X c #CAFDC2",
"2X c #C4FDC8",
"3X c #D4FFC2",
"4X c #D6FFC6",
"5X c #C7FFD1",
/* pixels */
"@ o @ @ 5 5 5 5 5 5 5 5 5 5 8 4 5 r 7 5 r r 8 8 8 5 5 5 4 4 5 5 7 5 4 4 5 5 5 5 5 7 r 5 8 r u u 8 r 8 8 5 r r 8 4 . . o 4 5 u 5 5 7 8 8 5 8 8 8 8 8 4 4 8 5 4 o ",
". @ @ @ 5 5 8 8 8 8 5 5 5 7 8 5 7 8 7 7 7 7 8 8 5 5 8 8 8 5 5 8 7 5 5 5 8 8 8 5 5 5 5 5 5 r u u 8 r r 8 8 8 8 8 8 5 4 @ 5 5 5 5 5 7 8 8 8 8 8 8 p 8 4 4 5 5 4 o ",
"o @ 5 4 5 8 u u u 8 8 5 8 8 8 8 8 8 t 8 4 7 u 7 5 8 8 8 r r 7 8 7 7 8 u 8 8 8 8 8 5 4 7 r u u u r u r u u r 7 r p p 8 4 r 5 5 @ 4 7 8 u 8 8 8 8 8 p 5 5 5 8 4 o ",
"4 7 7 7 5 5 r u u 8 8 8 8 8 8 8 8 r 8 r 5 r u u 8 8 5 5 r 7 7 8 8 8 u p d d 8 p u r 7 u u u u u u r u u u r t r r 8 r u 5 4 @ @ @ 5 u i 8 p 8 8 8 8 8 5 5 5 4 4 ",
"5 7 r r 7 8 r r u r 8 8 8 8 8 8 r u u r u u r 5 4 4 @ 6 8 7 7 7 8 8 u u 8 p 8 8 u 8 7 u p i r i p u u p u r 7 r u 5 u p u 5 @ o @ 7 i p r r r r d 8 8 8 8 8 4 4 ",
"7 7 u u u p u r r y u 8 8 u 8 u u p u u p u 7 +   . . 6 u 7 4 7 8 8 8 8 p p p 8 7 , 5 u u u u i p s p p u r 5 r p 8 u u p u 5 5 7 r p i u r u p 8 8 8 8 8 8 4 . ",
"5 7 u u u p a i i p r 7 8 p u u u 7 7 7 p 7 @ & $ g $ ; 7 8 r i p 8 8 u p u d 8 8 8 r r r u i p s s s p s a r u p u p p p u u u p p p u u r u p 8 8 8 8 8 8 8 5 ",
"5 7 u u p p a i i i u 7 u p u p u 7 4 4 7 t e D I ' S n , 7 r i p u 8 u p p d p 8 r i i y r p p p s p s s p u u p p p p u 8 8 d f s p p u u u r 8 8 8 8 8 8 8 8 ",
"7 7 r i u a u u y y r r r i i i i u t : @ w H X.e.a.3.] n , 4 r 8 8 i p p i a a r r r u u r p p p i p s i i s p u p p p r o o a s u p i r a i r r 8 7 r 8 r 7 4 ",
"7 r r i a u 7 5 r r u p r i s i y i 5 + & D X.r.U..X[.i.' & + 7 i 8 8 8 p u u u r 5 7 r y r i s d s i i r r s s u p a a r r r 5 u p u r u s i 4 7 r r 7 8 8 5 o ",
"7 8 r i u u t 5 7 r p s i i s i i s r + - G =.V. X-X.Xn.} l   r 8 8 i i p r r 8 r 7 7 r r y p s _ s i r r r i i u a i a i p i 5 7 u r r u p a r r i u r 8 8 4 @ ",
"5 8 r r r r r r t p p s s i i i i p 5 ; w P =.m.T.).R.a.} w   r i 8 i i u 7 8 t r y r y i p p f _ a y y r i s i u a a i s s s u t 7 r p a a s s s u r r 7 5 5 5 ",
"5 8 u u r r r r i a s ( s i i s s r , @ 2 A R 5.N.B.a.#.J & @ r i q y p p 8 r r 7 r i y y r 7 7 r 7 u u s s f a i r p p i i i i r r i a p p i p p p i r 8 7 7 7 ",
"7 8 r p r t r i s s s _ a i i s a r t 5 , n D W @.<.X.K n > : u i i y i p 8 r i 5 t i i r 7 4 , 7 t u p s s ( s p i p p y y i i p i a a s i r u i p i r r 7 7 7 ",
"7 r r p i y a s s s ( _ s s a i y i i p p y v D U R H b , , 7 y i u 8 u r 7 r i i y i a a p i i s a p s i i s s s s s s p i i s p y p p p r u s p i i r r r 7 5 ",
"7 7 r i a a s s s s s s s s a i i s d d d u , w x z w > r 7 t r i u 8 8 r 7 7 r y p s s a a p i a a a a u i s p i s s s p i y i i r 7 7 7 i u t i p y r 7 u 8 5 ",
"8 8 u p p p a a a s a i i s s a a p p s p u r @ O     : u r y i i i r r r r t 7 i s _ ) s s a a a a p i u i s i t s f s s u r r y r 5 @ @ i i t u p u r 7 u 7 5 ",
"8 8 8 p p i y i f s s i y i a s p r r r r p u r r y 8 r r r y a s s r i i i r i i s _ _ d a s a a i a s r r a i a s s a a i r r y i a y t i d d s s p r r 8 7 4 ",
"7 8 u i i i y i s s a i i y t 7 7 r r r r u p p p i i i i p p p d s r r p i i i i a _ s s s a p p p a a y r p a s s s s i i r r y a i i r p f _ f p i r r r 5 @ ",
"7 8 u p i i i u a a a i a y + + > 7 r y y y i p a a a p i a s p s s r y i p p u i s s p p d a p i p a a i i p s s i i s y y u i i i y i i f _ _ s p p p u u 8 4 ",
"8 8 i i i i i i r u a u u t w b b , r a d a p i a / _ s r a s p i a a i p s a u a s a a / / a i y 8 r s a i s s s i i s u y i a i y i a d d _ ` s a s s s u 7 4 ",
"8 8 p i i i a a u a i r e n K  .T D e r s s s s s ( / a r p s a a s s s s s s p s ( a a a / a a p y p s s a s s s i a a i i s a i r i a s d d s u r r p f u 7 5 ",
"7 8 u u u i / / f p r t > D @.7.6.T b @ r s s s ( ( a i i i i p a u a s s s s s s p i a a / i u p i p s d s p s s s a a y i i i u a i i i s i r r t 5 u d u 8 8 ",
"8 8 u u i i u p s s u 5 & D #.e.7.T b + r s s s s ( ( s a y r 7 t r 5 r r 7 r r r t 7 8 8 8 7 8 r r r p y i d s s s a i i y i s a s s i s i s a r r p s s u 7 5 ",
"8 8 i i i i 8 i i / i 8 , B ] X. .H e 5 r p s s s s s p i i 7 + + + $ O + + ; ; : ; X   ; O # ; : r u i y i ( ( s f s u i i i i u p p s d s p a u a s d p u 8 5 ",
"8 8 8 i i i i y y i / p u t b A N e r s p p p s p p a i 7 r , - = w w = = = = - - g = = = = g - ; t p u r i _ s a f s i i i i y t r s d d s a p p s p s p u r 8 ",
"8 8 i p a a i p a a i i p u , > & 5 u s p p a i u p r r 7 t n J R R U K U U ] [ { { { [ [ } o.[ S e @ 4 @ 7 s s a s s i a a i y y y i / s _ d p u i u p p u 8 5 ",
"8 8 i s s a s a a ^ i i s p 8 7 5 r u u i i p i i u r t , n U =.7.0.6.4.5.6.p.a.d.n.s.d.d.n.G.s.+.B & O % > y p a a s i i a a a a a y i i ( _ s p u u u u p u 5 ",
"8 i u i a a / a i s s s _ _ s a a a r r r r r s s i 8 : - J =.u.H.H.B.N.M.J.{..X=X=XXX=X*X*X<X|.G.+.N w x m t y a s s i i a ( ( ( s i y i s f f d s i r r u 8 7 ",
"8 8 y i u i a a a _ _ a _ _ ) _ s a p r r r i ( s 7 > w H #.u.D.K.L.K.L.I. X+X-X:X:X:X>X,X5X5X,X|.i.#.X.+.{ n , 7 i p i s ( s s s s / i s d f s s d d i r u r 7 ",
"8 8 i i i i i i _ _ d s _ _ s a p p p s a a a s r > v J @.r.H.H.H.H.K.I.OX@X-X-X-X-X;X,X2X4X4X4X$X|.[.].G.s.{ n : 7 i p s ) s s s / ( ( s d s i s s f i u u r 5 ",
"8 p i i / / i p ) _ s s _ _ i y u i s _ _ ( a i , - J =.r.K.L.D.m.m.D.U.oX;X;X@X*XXX@X>X2X1X3X3X1X,X,X<X>X.Xs.] l 2 r a a a a / / s s s d s s u s s a a u u 5 5 ",
"r i a a a / i a s _ s p s d i a ( ( d s ` a 8 , v D ..7.N.J.L.B.m.m.F.{.oX>X;X@XoXoX=X#X>X&X&X&X4X4X4X,X<X-X}.p.] b , 4 7 p d p u s s f f f s s s s u a p p r 5 ",
"y s s s a i a a s s a y i i a ( _ _ a i ( i : w A [ >.r.N.H.H.B.m.m.B.U..X#X;X@X@X@X@XoX@X$X%X&X3X3X1X,X>X=X=X}.i.] v O 4 u s r u s s s f f s s s a u a s s u 5 ",
"p s s ( ( a a s f i r r t u _ _ s i y p a 7 % l P O.e.N.B.B.H.B.M.m.D.P.{..X@X@X=X=X*XoX.X@X$X,X&X1X2X$X#X=X:X:X}.p.] l e r u u i i r t i f s a r r a r r u u r ",
"a p s s s a a a s p i i r u s s a i i i r 7   l P O.e.N.B.H.H.B.M.m.D.D.J.R..X@X;X=X*XoXoX+X@X$X$X$X$X$X=X=X:X>XoXP.-.G b > 7 u i u r y i a a s a a i r r u r 5 ",
"u p p p i i i i p u p s s i i i a a i y 8 @ % z P ..q.u.m.B.B.B.B.B.B.m.B.J.{..X@X=X@X=X@X@X=X@X@X=X=X=X@X*X@X@X XR.r.X.Z - + u s u i i u u a s f s a t i i r 5 ",
"r u i i i u i p i r r s s s i p s s p r @ > v H [ =.7.w.e.m.B.D.H.B.B.m.m.B.F.{..X@X=X;X=X;X*X*X*X=X=X=X=X=XXX XR.R.D.#.G - + p f s s i a s s a i i s s a u r r ",
"r r u i y y u a u 7 r p s p i p p i r 7 > c U X.-.6.6.6.7.w.u.B.H.B.B.B.m.N.B.J.{..X=X;X;X=X@X+X*XoX=X=X=XoX{.I.K.L.B.-.G - . u f f s s s a a r u u i s a u t 5 ",
"r y i i i u p p u r t r r i i r r r 7 > - F ..6.w.0.6.5.-.7.e.m.B.B.B.B.B.N.N.N.J.U.oXoXoXoX.XoXoXoXoXoXoX.XI.B.M.K.m.5.R z % 7 i a a s f a i t r u y i a u r @ ",
"r r y a s i s s a r r s a i r r r y 5 ; - G :.k.V.e.4.5.-.4.7.e.N.B.H.B.D.B.m.m.B.P.U.{.U.U.U.U.U.U.U.{.{.I.F.B.M.D.B.e.-.] N > + 4 r i f a t r u i a s s r 8 5 ",
"r i p p i s d s i y i s s r r y y i r ; - G :.V.Z.y.6.5.4.4.4.7.e.r.B.H.B.B.B.M.B.F.F.F.F.F.F.F.F.F.F.H.F.F.B.N.M.B.H.B.B.5.T w O + r f f s i i i a s f s u 5 5 ",
"r p s s i a d s y i i s i y t r a s i @ $ P 2.C.S.l.7.#.4.4.5.4.6.e.N.N.B.H.B.B.B.m.m.m.m.M.m.m.m.M.m.m.m.m.N.B.B.B.H.K.L.B.#.Z $ + f f s s s a s f a s s r 5 5 ",
"r i i i a s s s a ( a y i a i u a s u e $ F 1.C.Z.l.7.5.4.4.4.4.6.6.e.a.B.H.H.H.B.B.M.m.m.B.m.M.N.N.m.M.m.N.B.B.B.B.B.L.L.m.@.C $ @ u f f f a i s f i a s u r 5 ",
"u i u i s s s i s ( a i u a s p s s u , - Z 2.b.C.y.7.5.4.6.6.4.5.5.7.e.m.M.D.B.B.B.B.B.B.B.B.B.B.B.B.N.B.B.B.B.D.D.D.J.K.r.X.M $ @ u s ( ( s a s s a a p u u r ",
"i u u a s s a i a s s s a u f f f s u 7 & G 1.b.Z.y.6.#.6.6.6.6.5.5.4.0.e.r.r.r.m.B.D.B.B.B.B.B.B.B.B.B.B.B.D.D.D.D.H.D.M.7.[ M > 4 u f f f f a a a a a p u u u ",
"r y u s s s s s r i ( ` f f s a r s u 7 - F 1.b.V.y.6.#.4.6.6.6.4.4.4.6.7.7.7.7.e.m.D.D.D.B.B.B.B.B.B.B.B.B.B.D.D.H.D.N.r.-.R c & t a s a a a a a a a t u p p u ",
"r r r a f s d i r p d _ ` _ f a r f u , $ G :.z.Z.V.0.4.5.6.6.6.6.6.6.6.5.5.5.4.7.r.N.B.D.D.D.D.H.B.B.B.D.B.N.N.N.B.N.r.0.#.T c & e a a a a a a s f a y r p p u ",
"r r i a s s s p i s a i / _ _ s d _ i + & G ;.z.Z.C.k.0.4.4.5.6.6.6.6.4.4.>.>.4.6.0.e.m.B.H.H.D.B.F.H.H.B.B.N.e.e.r.e.e.7.O.T c & , u s s d ( f _ ( a r 8 u u u ",
"r u u a p / / / / s a / a a ( s s _ r + $ F 1.b.Q.Q.C.j.0.4.5.4.6.6.6.6.4.4.4.4.4.4.7.e.N.D.B.B.B.B.B.B.B.N.e.7.6.6.7.q.7.=.R c & 5 a s s d ( ( s s i y r r r 8 ",
"r r u p / / / / / a i a a a s a p f r + $ G 8.W.).).Y.V.t.6.4.4.5.5.6.6.6.6.6.6.4.5.4.e.r.a.N.u.r.m.m.N.N.r.7.5.#.#.6.w.y.q...c w 5 i s s s f ( s a i i r 8 8 7 ",
"r r r i i i p / s a i i a s s p s f a @ $ I c._.'._.Q.C.V.t.6.4.-.-.<.4.6.6.6.4.4.4.4.6.7.e.e.0.e.7.e.e.e.7.6.-.#.#.6.u.C.z.*.C & 5 r p s s d d s a a y u u 8 5 ",
"7 r u i i i p ) ( a i i ( ( a a ( ( i @ * L c.~._.!.A.C.W.C.l.w.6.5.6.6.6.6.6.6.4.4.5.7.6.6.6.6.5.5.5.6.5.6.6.q.7.6.0.k.C.h.o.M 2 5 a f d s a a / _ a a p i 8 8 ",
"7 r u i i ^ / ) ( s a s ( d i ( _ ( p t 1 L %.c.c.2.8.v.^.^.!.V.y.w.0.0.4.5.5.5.4.4.5.5.,.-.-.-.<.5.<.#.-.6.0.k.x.x.x.t.8.*.E m , r s s s s a a / _ / s p i u 7 ",
"8 8 u i p a / ) ( s d ( / a / ( _ a a i 0 m L E I Z W f.^.`._.Q.C.x.k.w.6.5.-.-.5.4.5.5.>.<.<.<.5.-.-.#.<.6.k.A././.C.8.Q F m h 0 u p p p d / s s d s s a p r 7 ",
"8 r u i p i s p a i a s a i y a / a i y y ~ h x = $ C $.E.~.W.z.b.W.Q.S.k.0.0.w.w.0.0.e.w.w.w.w.w.w.w.w.0.t.t.k.z.V.9.&.Z h h 0 y p p a p p s _ _ _ s p i p r 5 ",
"t y a i a a s i y i a a a y r i a i y q i ~ 3 ;     h L &.&.1.&.g.W._.(.S.x.l.x.x.x.x.V.V.V.x.V.V.V.V.C.C.k.8.&.&.;.Q P v < 9 q y i a a p p s s f f p u u p 8 8 ",
"8 r u s s d s s i p a a a i y a / i y y q j j 0 9 q h h L C c C &.E.`.`./.A.C.A.C.C.A.A.A.A.A.C.C.C.S.Y.S.j.*.Z c M V m j 0 0 9 8 7 7 r p s d s d s p p p p u u ",
"r r i s s s p s s s a a a a a s / a p i 8 0 0 q k k q 3 g % % - I f.E.E.v.9.8.9.9.9.9.g.9.9.9.9.9.9.h.j.h.:.Y h $ $ 2 h j q 0 9 7 t 7 t i a s p s a u u p p u 5 ",
"r r i a s a r i d d s i i a a s s ) s p 8 0 7 9 q ^ 9 1 # # # ; V E $.&.Q W R W W W W Q W W W W W W Q | Q Y S 2 + ; 1 h j ~ 8 7 t r i i r y i i p u 8 u u d u 5 ",
"5 r u u r r r y i s / i y a a s s s s s p u 8 9 q q 9 9 1 9 9 : 3 v x x x x x x x x x x x x x x x x x x x l h 0 0 y 0 3 ~ ~ i 8 8 r u i i u r r u p p s s s r 5 ",
"r r u u y r y r r a a i a a s / s s s d i a ^ i q q j j 3 q 8 9 0 1 * % * * * * < * * * * * * * $ * * - * < h 9 ~ ^ q , y i p 8 8 r r i a p r t u p d s s a r 8 ",
"r u p p i i r y u a a a a a a / s a s a a ) / i y 8 0 h 3 0 q q 0 0 0 1 3 3 3 3 9 3 3 3 1 1 3 1 1 3 3 3 3 3 0 0 ~ ~ 0 9 r s s y t 7 y a s p r r y s s s p u 8 r ",
"8 a s r r r 8 8 p / ) / ) a y a _ ) s a / ) / / i 6 9 9 , 9 0 j ! y q 9 9 q q 9 q k q y k 9 q k 0 ~ y 0 q q 0 q q y 8 t i p p p i i s s d s p i s s r u u r 8 8 ",
"8 u u u u i r r p / / / / p y p d s s s s ( s a y t t t r 8 t ~ ! k k k k k k q k k i k k q k ^ ^ q k ~ ~ k y u y r y y i i a s s s f f s s s s s s y i i r r 8 ",
"7 8 r a s p p p s p i p s p a p p u p s s a i y i a t i p i y ~ ~ j k k ~ q k k k q k k q q k ^ k q j ^ ~ k i p i r y a i i a _ _ _ f d s a d d a a a a i 8 5 r ",
"8 u u s f s p p s s / / p i ^ p y i i i a a a s s a i i i i y y q y y y 8 y q q i q 8 q q 0 i q 8 q q y q q i i r u a ( i i ^ _ _ s d d _ ( d a i i i i y 8 8 4 ",
"7 u p s f f a a ^ p i i u u p p i i i i a a s s s s a a a i y 8 y y y i a p i i ^ p p 8 8 8 i i 8 i i i u i i 8 t i ( ( i i s d s s s d s ( ( s a i y y y y 7 9 ",
"7 u s s s s p a p i 8 7 8 y i s s a a i a s a i s _ ^ a / a a u y y u / ) / p p d d / i i i p 8 r a ) a / i 8 7 t p p a i y p p a a a a i a ( a s a i y y 8 8 8 ",
"7 i s / s s p p / i u 8 8 y a a a i i i a i i i p s a / / _ s i y u i a i i p s p p i p p / s 8 7 p s a / ) ^ i i a p p i p p p i i i i i ( ( i s d s i i u 8 8 ",
"7 8 p a s p p s / i i u y u i i i y i a i i y y i y a a / / / i p i i i y u p s i u y i / / p 8 r p s s ) _ d s a a i i a s s p i a i a s s ( a d _ a i y y 8 7 ",
"5 8 u p p u p s p / i i a / p u i i a a y i i i i y y a a / i u a a a i y i s s i y y a p p ^ s s s s s a a d s a p i i s d s p a a s ( _ ^ a ( d a p y 8 8 7 5 ",
"5 8 8 p u 8 d d p p p p s s u p s s a i u u i i i y y i p i i i p p p i u / d s i y i p s s s f _ _ f p i y a a s s p p p s s d ( s ( ` ` s s s i i y t 8 u 8 5 ",
"8 8 u u p 8 p d s s p p a a y p s d s i i i s p i i i i y y y p p s p i i i s d i i a s f f s f d _ f p u i i a s s p p p p s d ( s _ ` _ _ ( a i y u r 8 p 8 5 ",
"8 8 8 p 8 8 8 d s / p p ^ i i i s i s s s i a u i p u y i i p s ) ) s i u i ^ ) / a s d _ f s p s s s p p i i i a s p p p s f f s s ( ( a s f s f s a r 8 p 8 5 ",
"8 8 u u p 8 8 p p s / a i y i i i s s s a i i u y u p i i i p p p s p i u 8 p s d s s d d s p p d d p p a s i u r p i i s d d s s s s a y s _ s d f a u u 8 8 7 ",
"8 8 8 d 8 8 8 8 8 s s a i u i i p p s i a a u u r r u a a a i r p p i u 8 8 8 p s s d p s p p s s d a p p s / u r i i i a s s p s s a r r s f s s f p u r 8 7 5 ",
"4 8 8 8 8 8 8 p p i p ^ i u i i i s i i s p u u u r 7 7 u i r r q i p i 8 8 8 d s s d p s s p u p s a r p a i u u r r y i p p a a s s i r s s s s s p i 8 8 4 4 ",
"4 5 8 8 8 8 8 8 p i 8 8 i i u i r p s i s p a p u r t r r u i r u i i u p 8 8 d s s p p a u r r r p i y i a i u u u u r r i a u a a i i a i s s u r u r 8 7 4 @ ",
"4 4 8 8 8 8 d d p i p 8 i / i 8 i p s s s p p s p u i i r u i y u u u u 8 i p d p p i s a 5 r t 8 r i y p i i i p a i i r u a u u a u i s s s s t 7 8 7 6 7 4 o "
};
