/* XPM */
static char *__resized[] = {
/* columns rows colors chars-per-pixel */
"80 80 209 2 ",
"   c #2A2727",
".  c #2C2E2C",
"X  c #352D26",
"o  c #362F29",
"O  c #382F29",
"+  c #2D312F",
"@  c #34322E",
"#  c #3C332D",
"$  c #2B2F32",
"%  c #332D32",
"&  c #2D3433",
"*  c #2A363B",
"=  c #28393A",
"-  c #2C393C",
";  c #333432",
":  c #3B3632",
">  c #353A35",
",  c #3D3A34",
"<  c #35343A",
"1  c #3A3639",
"2  c #343C3B",
"3  c #3D3A3B",
"4  c #41362E",
"5  c #44382F",
"6  c #493A2E",
"7  c #423730",
"8  c #453A32",
"9  c #4A3E34",
"0  c #403738",
"q  c #453C3B",
"w  c #493E3D",
"e  c #2D413F",
"r  c #32413C",
"t  c #3B423B",
"y  c #454137",
"u  c #4D4136",
"i  c #4E4239",
"p  c #514337",
"a  c #53453A",
"s  c #58473B",
"d  c #56483B",
"f  c #5B4B3D",
"g  c #604F3F",
"h  c #61503F",
"j  c #2A3E40",
"k  c #393E42",
"l  c #483F41",
"z  c #274142",
"x  c #2B4243",
"c  c #2C4A47",
"v  c #2C4C4C",
"b  c #324443",
"n  c #394245",
"m  c #324A46",
"M  c #364847",
"N  c #324D4B",
"B  c #35514D",
"V  c #3B544C",
"C  c #2C4F50",
"Z  c #344C53",
"A  c #2C5252",
"S  c #2F5F5D",
"D  c #325653",
"F  c #345B55",
"G  c #3A5B56",
"H  c #325358",
"J  c #345C5A",
"K  c #35635D",
"L  c #38655A",
"P  c #336564",
"I  c #3B6E63",
"U  c #366968",
"Y  c #3C7467",
"T  c #3C746B",
"R  c #376F78",
"E  c #3C7571",
"W  c #3C7777",
"Q  c #4C4241",
"!  c #514746",
"~  c #5E4E40",
"^  c #4F574A",
"/  c #604F40",
"(  c #625141",
")  c #695644",
"_  c #43655C",
"`  c #457669",
"'  c #4B7B6E",
"]  c #417E72",
"[  c #4B7E71",
"{  c #3F847E",
"}  c #49806F",
"|  c #438372",
" . c #488677",
".. c #4B8D7A",
"X. c #558675",
"o. c #4B927D",
"O. c #4D987E",
"+. c #3D7783",
"@. c #3F8680",
"#. c #418481",
"$. c #428B84",
"%. c #448C88",
"&. c #4E9C84",
"*. c #489588",
"=. c #569984",
"-. c #519E85",
";. c #448F9A",
":. c #459196",
">. c #4B9E95",
",. c #649D87",
"<. c #51A186",
"1. c #52A48B",
"2. c #58A78C",
"3. c #55AA8D",
"4. c #4DA398",
"5. c #4CA49B",
"6. c #52A690",
"7. c #54AC93",
"8. c #52AD9C",
"9. c #57B091",
"0. c #59B493",
"q. c #5DBB96",
"w. c #56B39C",
"e. c #5EBD99",
"r. c #69B698",
"t. c #71B599",
"y. c #75BC9D",
"u. c #4DA8A8",
"i. c #53B3A5",
"p. c #55B5A4",
"a. c #57B8A4",
"s. c #59BAA5",
"d. c #55BAAC",
"f. c #59BDAA",
"g. c #4CA5B5",
"h. c #4EA9B8",
"j. c #56BAB0",
"k. c #74BFA1",
"l. c #79BFA0",
"z. c #5EC59C",
"x. c #5EC89E",
"c. c #61C59D",
"v. c #63C99F",
"b. c #71C09F",
"n. c #5CC0A7",
"m. c #5CC2AC",
"M. c #5BC4B4",
"N. c #5ECAB5",
"B. c #5BC6B9",
"V. c #5DC9B8",
"C. c #64CCA1",
"Z. c #69CDA3",
"A. c #76C7A5",
"S. c #79C2A2",
"D. c #66D2A5",
"F. c #6AD3A6",
"G. c #6AD7A8",
"H. c #6BDAAA",
"J. c #74D5A9",
"K. c #76D8AB",
"L. c #7BDAAD",
"P. c #61D1BE",
"I. c #7DDDB0",
"U. c #7BE4B3",
"Y. c #5BC8C8",
"T. c #5BC7D7",
"R. c #5DD1DF",
"E. c #60CFC4",
"W. c #61D1C1",
"Q. c #63D8CD",
"!. c #62DADA",
"~. c #66E0DF",
"^. c #5DCFE2",
"/. c #5CD0E0",
"(. c #61DBE6",
"). c #66E4E8",
"_. c #67E8F2",
"`. c #82C9A4",
"'. c #84D1AC",
"]. c #84D9B3",
"[. c #86E3B5",
"{. c #89E4B6",
"}. c #89E8B8",
"|. c #8EE9B9",
" X c #93E4BC",
".X c #9BE7B9",
"XX c #94EEBD",
"oX c #97F0BF",
"OX c #99F0BF",
"+X c #A4F3BF",
"@X c #ACF5BF",
"#X c #B7F7BF",
"$X c #CCFDBF",
"%X c #96F2C1",
"&X c #9BF3C2",
"*X c #9DF9C6",
"=X c #9EFCC9",
"-X c #A0EFC2",
";X c #A3F9C6",
":X c #A8F8C7",
">X c #A2FCCA",
",X c #BBFAC3",
"<X c #B6FDCA",
"1X c #ABF7D1",
"2X c #C3FDC6",
"3X c #CBFDC2",
"4X c #D6FFC2",
"5X c #D6FEC5",
"6X c #C7FED0",
/* pixels */
"# O # # , 4 5 6 6 6 6 # 7 6 8 4 4 u 5 # u u u 6 6 5 4 4 5 5 5 6 8 4 # 4 7 9 6 5 5 8 y 6 5 u p 9 6 u 8 9 8 9 p 9 4 X X O 4 6 u 6 6 7 9 6 6 9 9 9 9 9 4 4 5 6 # O ",
"X # # # , 6 6 9 8 8 8 5 8 8 9 8 6 y 6 5 4 u u 6 6 7 9 9 8 6 6 9 8 7 5 6 9 9 9 6 8 7 6 5 6 u p p u u u u 9 y 8 p 9 5 4 # 5 6 6 , 4 9 9 9 9 9 9 9 s 9 4 4 5 9 4 O ",
"O # 5 5 5 6 p p p 9 8 8 5 9 9 9 6 u y # X 5 u 6 7 9 9 9 u 9 8 9 9 7 9 9 a 9 9 9 6 6 5 8 y p a p p u p u p u 6 u s f 9 6 8 6 # # # 6 9 p w 9 9 9 a p 6 6 5 6 4 4 ",
"4 8 8 8 6 6 u p p u 9 9 9 9 9 9 u u 4     # p u 8 9 5 5 u 8 9 9 9 9 p s s s s 9 a i 8 p p p p a a p p p p y 8 u 9 9 9 p 9 # # # 4 4 s p 9 a 9 9 9 9 6 6 5 6 4 4 ",
"5 8 u u 8 u u u p u u 9 9 9 9 9 u y t r e t y 6 9 9 5 8 u 8 4 8 9 p p p p a p 9 a 9 8 p s a p a s a p s p 9 8 u p 9 p p p 6 # # # 7 a s u u p p p 9 9 9 9 7 4 O ",
"6 8 p i p a p p u p i 9 9 a 9 9 y t V I Y F > , 9 y u a s 8 4 9 9 u 9 9 p s s 9 8 7 5 u p p p a d d f s a 9 6 u s 9 p p s p 4 # 9 9 s a p u p a a 9 9 9 9 9 4 X ",
"4 8 p p a s s a a a u 8 u a p 7 @ r } O.<.| B > # i i u u 8 u a a u 9 p s d s p w 9 9 p p p p s f f f s f a 9 p s p a s s p u a f d s a p p p a 9 9 9 9 9 9 9 4 ",
"5 8 p p a s a a a d i 8 u a p 4 + c | 9.0...D & # 9 p i y u a s a u u p s s s s 9 9 s p 9 p a f d f s f f s a a a s f s p 9 9 g g d s a p p a p p 9 9 9 9 a 9 6 ",
"8 9 u a a a p p u i u 9 u d p 8 @ r Y O.O.` m > 7 p a a a i p a p p 9 a s p s a p y u a p u d d s s s d a a f d a s d d 9 # # p f a s a p a a u 9 9 8 9 9 p 9 # ",
"9 9 u s s a 8 8 9 u a s a i f i q y V B F V t 8 8 9 s f d a a a p 9 9 a s a p p u 8 6 u p y a f ~ d s p p p f d p s s s p u 8 6 p d p u a s a 5 9 u u u 9 8 4 # ",
"5 9 u p p p 8 8 8 p d f a a s d i a , > & , u p s a f f d d d a p 9 9 s a p u u 9 9 7 y i i s f ( ~ p i 9 p d a a a a s s d d 8 8 p 9 u a f a 8 i a p 9 8 8 4 # ",
"4 9 u u u i p y y a f f f a i a a s 9 # # y a h ~ f d d d ~ d s i i a Q u u 8 8 p i i a a s s h / d p p p p d a p a a s f f d i 9 8 p d a a f h d p y u 9 9 7 4 ",
"5 9 p 9 u 8 u i a d d ~ d p s s d p 9 y a d s a s d d a d d d d p p p d d 9 y p 8 9 a i i 9 8 8 9 w u a d f h d a a a s a a a a u y a d f a p s s s i i 9 8 8 6 ",
"8 9 p a u u u s d d ~ ( f d s s a u i s ( ( d a p s a d d a a a s p y a d 9 a a 7 9 a a i 8 7 : 8 9 p s f g h f a a s s i i i s d d d d f a i p s s a i 9 9 8 8 ",
"8 9 p d d y d f ~ h f ( h d d a p a d g ( ( ~ s u w a s d 9 8 i a p i i p 8 u a i i d d d s a a d d d f a a d f f g f f a a d f s i d d s p a s d a p u 9 u 9 5 ",
"9 9 p a d d f f d d h d h f d a a s g g g g f s p i i a s i 9 i a p 9 9 9 9 8 9 a d ~ d d d s d ~ d d d a a f a a f f f d a i a d u 8 6 8 p a 9 a s i u 9 9 8 5 ",
"8 9 a a s s s s d f d d d d ~ d s a f f f f g s s s i i a i p a d a u u i y 8 8 i f ( h f f s d a a s s a a f i y d f f f p 8 p i 9 5 # # a d 8 a f p 9 y p 9 8 ",
"9 9 9 s s s i a h f s a i a d d s u 9 u 9 s s s s d a i p y p d h d u p s a a i d f ( ( f f d s s a d d u 9 d d d f f f f a p u u a d i 8 a f ( g d a i 9 u 6 # ",
"9 9 9 s ! a i i f s y y 8 8 i d s i y y 9 p s s d d a a a a d d f d u i d d i d a f h f f f s d a a d d p i s d f d f f a a p i i d d i y d ( ( g f a p u u 8 # ",
"7 9 a a a a p a s p 8 & > , i d s a a a p a a a d d d d a f f d f d i i i d d a i f h d f f s a a a s ~ a s s f f a d f a y i d a s i a d h ( ( f f d a a p 8 5 ",
"8 9 a s a p a a u 6 t e = > y a d a a ~ f f d a a ~ ( f p f f s d f s a d d d a f h d d d h f d p 9 p d d d f f f a s a p i a d d y a d h h ( ) f a f f f a 8 # ",
"9 u p a a a d d p u , > > , y s d ! ~ / ( f d d f ~ / d p s d f f d d f ~ d s d f d d d f ( f s s i p ~ ~ d d f g a a d a a s d a i a d f f g f a 9 u d g a 8 6 ",
"8 p p p a a f g h i 8 y , 8 p s f g ( ( g g f ( ( ~ d a a i a d s s f f ~ ~ h h ~ f d d f ~ s d d a s / ~ d d f f s d ! p a d a d a a a s s a p p 9 7 a f p 6 8 ",
"8 9 p p a a a d f s s f s d p d d / / f f f f f ~ ~ f d d i q 8 u p a d d d h ( ( ~ d d f f h h f a p a p p / ~ h f d s i a a s d f s s f s s f p u a f f p 8 6 ",
"9 p p p i a i p s d ~ ~ g d p i d g f d d f d f s d f f p 8 : . o , y p s d h h ( f s s f f ( ( f d p i i i ( ~ f h f a i p d i a a d f h d d d a a f g f a y 5 ",
"9 9 9 a a a i i i s d d f d a a a g f d s d f f s s s a 9 # & = = & @ u a s h h f s i i p f ( h f f s d i s ( ~ d h f i s s d u 9 y d h ( f d a s f d f s a 8 6 ",
"9 9 a f d d d d a d d a d d d d p a s d d d d i i a p 8 8 V _ [ ] L r t 6 u u u 8 8 4 # , 5 6 y i a d f f f ( f s f s d d d d y i i d d f / g s a p a a a p y 6 ",
"9 9 a f f d d f ! d d d f / / d a a a a a a s s s a 8 7 t ` ,.b.r.O.L e > @ @ @ ; & @ & + & + : y a d h h ( ) f d s f s d s f s d d d i d ( ( f s p p a a a u 6 ",
"9 p a s s d f d s f f f ( ) / f f s a w 9 9 i ~ ~ i @ & L ,.L.XXU.e.| D = = = e j z = z x x x , y s f f g h h f d f d d a f ~ ~ ~ f a i d f h h f d s p i p u 6 ",
"9 9 p p a i a d f h ~ f ~ ( / / f s s 9 p p p s i , r L ..y.}.XXU.v.3...' ' ' | [ [ } [  ...[ _ t , # # 9 a g g f f s a d f ~ f ~ f ~ d s h h f f h h s i p u 6 ",
"9 9 a p a a a d f ( h f ( ( f d f s s ~ d ~ a p 8 e F  .r.J.U.U.H.G.Z.k.l.S.y.S.l.S.l.S.S.A.S.O.G = . > > y f d f d a s f f f d f ~ ~ ~ f h f a s h h d u p 6 6 ",
"9 s a s f ~ d s h h h f ) ( a i p a ~ / ( / s 7 > v | 9.D.D.v.v.v.F.I.XX&X-X&X&X&X&X&X-X:X1X;X`.X.J C D m t y a d d d f d d ~ ~ ~ f f f h f f i d f f i i i 6 4 ",
"i a d s f ! d d f ( ~ s f f a s ~ ( f f ( ( s 6 & z ] q.H.D.c.c.v.L.|.*X>X>X>X>X=X>X:X<X6X6X<X.Xy.,.X.=.' V ; # u a s d y a g a a f h h h h f f f d a s s s p 6 ",
"p a f f d d d d f d s a a a d / ( ( d a ( ~ a 5 ; c | 0.G.D.D.F.L.|.OX;X*X=X*X=X*X;X<X2X3X5X3X#X.X'.'.].t.[ M ; , u a d u a d p u d s d h h h f f s a a s s p 6 ",
"a f f h g f d d / a i 9 y a ( ( ~ i i s d a y , x K O.0.D.x.C.K.{.OX;XOXOXOXOXoXoX&X@X,X3X4X4X4X6X<X1X1X%Xt.X.B ; 7 p s f d d a a d y i s f f s u u a p u p p y ",
"s d f f f s d d f a p p p a f f d a a a u 8 @ e L ..3.z.D.x.C.K.|.;X;X;XoXoXoXoXoXOXOX@X,X$X$X4X5X6X<X1X*X].t.' m @ 5 a d s s s a a i y a s d f f d a p u p u u ",
"a a s s a a a a d a a f d s a a s d d y 8 ; = L O.0.C.C.c.x.c.J.{.XX;X&XOXOXOXoXoXoXoX%X@X#X$X4X5X2X,X;X&X%X Xt.' e > u a d d f a a a a a a f f f f a i a i u 6 ",
"p p a a a u a s s 9 p g g d a d f d d y : e K o.q.F.G.G.c.z.c.F.L.[.XXOX&X&X&XOXOXoXoXXXOX+X#X3X$X2X#X+X*X>X>X Xy.X.V 3 u d g / h f d a a d f a a d f f d i 6 y ",
"u i p a a i a s a 8 8 d d d a a a u 8 , m J ] 3.c.F.G.C.C.c.c.C.Z.J.[.oX&X&X&XoXoXoXoXoXoXOX+X@X@X@X+XOX&X*X>X>X Xy.X.V > # 9 f h h f f f f s i u p a f d a y 6 ",
"p i a a a p s a p u y p p p a p u u @ & D T *.0.c.C.C.C.c.C.c.c.c.v.K.}.OX&X&XOXoX&XoXOX&XOXOX&XOXOXOXOX&X%X&X*X;X{.r.' - . # 9 f f d f f f p y u a u a d a y 4 ",
"u u i s f d f f d y p s s p p p y u @ $ A E &.z.C.C.C.C.C.C.C.c.z.z.Z.K.{.XXOX;X;X;X&X&XOX&X&X&XoX*XOX*X+X;X*X*XOX}.J.2.L c > > 5 y u a h f i y a d d f f u 6 5 ",
"u p s f d d h f d i d f f i y i p u # * F | &.q.C.C.C.C.c.C.c.c.c.x.c.Z.J.{.oX&XOXOXOXOXOXOXOXoXoXoXoXOXOXOXOX|.[.K.G.x.<.Y m + o 5 a h h d d i a d f f f i y 5 ",
"u s f d i d h f a i s f d i y u u y t m U  .&.7.e.c.c.C.C.C.C.C.v.c.z.z.v.L.{.XX|.XXXX|.|.|.|.|.|.|.|.|.oXoXXX].F.x.D.H.q.o.K & o u h h h d d d f f f f a p 6 5 ",
"p p p s s f f f d f d u a s p 8 , 2 V E *.>.3.6.9.0.e.C.C.C.C.c.v.c.z.z.v.F.K.L.L.L.L.K.L.L.L.L.L.L.K.L.L.L.L.J.v.v.G.H.q...F $ # a h h h h d a f h a d f p u 9 ",
"a u p a f f s s f ~ f i a s d 6 ; v ` 4.f.f.1.<.&.6.0.z.C.C.C.c.C.c.v.c.v.C.C.Z.Z.Z.v.F.v.Z.v.F.D.v.F.v.F.Z.C.v.v.v.D.G.q.o.S = # p a d h ^ h d f h d d f p p 6 ",
"a a a d f f a a d f h d a s f 8 & H %.d.W.m.7.&.&.1.3.0.c.c.C.C.C.C.v.v.v.c.x.x.z.c.z.z.z.c.z.z.z.z.z.c.z.z.z.z.c.c.G.G.q.&.Y m > y p d f ~ h d f d d a p s p p ",
"u u a d h f h a y s ~ ) ( ~ f 7 & A #.i.N.n.3.&.&.&.3.6.0.c.c.D.C.v.v.v.v.c.c.c.v.z.x.z.v.z.x.z.z.z.v.x.x.x.x.c.v.C.F.F.x.9.o.I B r , y d f d a d d a i p p s a ",
"p u i d f f f f i s ~ ( ) ( f 4 & H $.j.W.M.7.<.&.1.&.-.3.0.z.C.C.C.C.C.C.v.v.v.v.v.v.v.v.v.v.v.v.v.v.v.v.v.v.v.C.C.C.v.z.q.3.| L e > y a f d d h h d y u s s p ",
"u u p a d f f d d f f d ~ ( ~ 5 & H :.Y.).Q.f.3.&.&.&.&.1.1.0.z.c.C.C.C.C.C.C.C.v.v.v.v.v.v.v.v.c.v.v.v.v.v.C.Z.D.v.v.z.0.0.9.O.T C & 8 ~ ~ / ~ / / d 9 9 a a p ",
"u p a a f / / ~ / d d d d d f 5 + S ;.T._.!.B.w.7.<.&.&.<.<.7.0.z.C.D.C.C.C.v.c.v.v.v.v.v.v.v.v.v.v.v.v.v.v.C.C.C.v.z.0.3.3.1.o.U v > 7 d ~ / / / d a a u 8 u 9 ",
"u u a s d ~ ~ / f d d d d s f 6 @ N +.h.(.).!.V.s.1.3.&.<.&.<.3.0.c.C.c.c.c.z.x.v.v.v.v.v.v.v.v.D.v.v.D.v.c.c.x.c.r.0.3.1.7.w.&.T v & 8 d ~ ~ ~ ~ d a i i u 8 6 ",
"u u p a s s d d ~ d a a f f f u 8 q B R h.R.).).W.p.1.&.&.O.&.1.3.9.0.0.0.3.0.q.c.Z.D.D.D.Z.D.v.v.v.D.Z.v.z.0.0.9.3.<.O.3.s.M.8.| A & 8 ~ f ~ ~ ~ d s a i p u 6 ",
"6 u p s s a f / ~ d d d h h d d s a , b R g.^._.~.B.p.7.1.<.1.1.3.1.3.1.<.<.6.7.r.x.C.v.v.v.v.v.v.v.v.v.z.0.3.1.1.1.1.1.7.f.M.5.E c > 6 f f d f ~ ~ d d a a 9 6 ",
"u 8 p a a a g / ~ f d d h d d ~ / ~ 9 @ Z +.g.^.).!.W.m.w.w.w.7.1.&.&.&.&.&.&.3.9.q.q.z.e.e.q.q.z.r.q.q.0.9.1.6.7.w.w.a.a.a.u.@.J r 7 u f f d d ~ ~ ~ f f a 9 9 ",
"8 9 i a a d g / h d h h d f ! h / ~ 9 q k H R g.R._.).Q.N.N.N.s.7.<.&.o.&.&.&.<.<.3.3.3.3.3.3.1.1.3.3.3.3.3.3.w.f.V.W.P.j.5.| A r 8 u a d g f f ~ ~ f f f s 9 5 ",
"9 p p a a ! s s a d d d f a a d ~ s p q l k j +.g./.R.E.d.d.d.p.w.6.6.6.7.7.7.7.9.3.9.3.7.7.7.7.3.9.9.7.3.<.&.<.8.d.B.B.8.#.K 2 5 p f d s d f h / / f d a s 9 9 ",
"8 y a d s d d d i a d d d i y d d s w w w 0 ; Z +.g.u.u.:.@.*.4.8.f.f.n.f.f.f.s.a.a.a.a.a.a.a.a.a.s.f.f.8.&.| W  .:.5.>.@.P k < 6 s f f p s f f ( g f a p a 9 6 ",
"u u a f f g h f a d d d d a a d f a 9 w l q 3 k C U U P S A S W 5.M.P.P.V.V.N.V.V.V.V.B.V.V.V.B.V.V.P.W.i.$.K A A S P P S Z k 0 y i 8 u a h h f g f s s f f p 9 ",
"u u d s f f d d h d d d d d d d f d s 9 w w q l j j z z x = j J $.u.j.d.i.i.i.i.i.i.i.i.i.i.i.i.i.i.d.j.4.T v - = j x x b 3 l q i i u y i f f s s s p a s s p 9 ",
"u u d s s s p a h h f a d d d d f ~ f a 9 0 q 0 3 < % % ; % < M P ] *.$.{ { { { { { +.#.{ { { { @.@.@.$.E J k < % < < < 1 q 9 w i i a i u a p a a a 9 9 p g p 8 ",
"6 u p p u u i u a d ~ a i d d f f f g f p q q q q q 0 1 3 0 0 1 b C A A v A C C C C C C C C C C C A A A N n l 3 q i q 1 w a a w 9 p p i a a p 9 p s d f f d p 6 ",
"u u p a a u i y y d d s d d d ~ f d f f a a a w l l w q 0 q q 0 < 2 - - - - * - < j j * - - * * * - - - < k l q Q Q q q a ~ f 9 9 u u d d a i 9 p s f g f a p 8 ",
"u p s a a p p 9 p d d d d d d ~ f f d d d ~ ~ a w l l 0 3 q w q q 1 1 1 1 1 1 1 1 1 1 1 1 < 1 1 1 1 1 < 3 q q l l i w 8 s h f p 8 y i d f d p i a d d f d p u 9 ",
"9 a f u u p w 9 s / / / / s i d ( / f s ~ / ~ s 9 q 0 0 , q q w l l q 0 q w q q w w q w w q q Q q q l q q w q q Q i y u a f d a a a f f ~ f d a d d p a a p 9 9 ",
"9 p a p p a u p f ~ ~ ~ ~ a u d f f f f h f d d y y 8 q y q q Q Q l w w l w l w l l w ! Q w Q Q Q Q l Q Q i w a u y p a a a d f f f h h f f f f f f i i a u 9 8 ",
"9 9 u s d d a d d s s s f s ! s d a d f f d a y p a i i a i Q ! l l l l l l l l l w w w q w l Q Q l Q ! i i s s p y a d a a d ( ( ( ( h s f h h d d s d a 9 9 9 ",
"9 9 a d g g d d f f f f s s s a a p a s d d d f d d d i a i q y w i i i 9 w w 9 w w 9 w w q w l a w w i w a d a y d f ~ a a ! ( h f g h ~ ( h f a a a a i 9 8 8 ",
"8 p d g g g s s d d d a p a a s d d i a d d f f f ~ d d a a i 8 q i i a f s a a s s s 9 9 9 p a w p i u a a a 9 8 d ~ h a a d g g d f f ~ ~ ~ f d a i i i i 8 8 ",
"9 p s g f f s s d a p 8 9 i d d f d a d d d d a f ( f d ~ d a u y u p ~ ~ ~ s s f / d a a a a 9 u d d s ~ s q 8 8 d d ! a p a s d d ~ d i d ~ d f d a i i 9 8 9 ",
"9 9 f g f f f s f a p 9 8 i d d f i a d d a a a d f d d ~ ( f a u i a d a p s s s s a s s ~ s 9 8 a f d ~ ~ s p a d d d s s s s d a a i d h ~ d f ( f d a p w 9 ",
"6 9 f f f f s f ! s a p p p d s i i a s d a i i a a d ! ~ ( ~ a a s a a i i s ~ a i a a s ~ a 9 u s f f / ( ~ d d d a a d d f s i d i d d h ! f g g f a i i 9 7 ",
"4 9 9 s s 9 s f ~ s s s d ~ a a a a a f a i a a i i i d d d s p s d d a u d f f a i i s s ~ s ~ f f ~ f d d ~ f s s a a ~ / f s d d d ~ ( d d h g f a y 9 9 9 7 ",
"6 9 9 s a 9 f f ~ s s s ~ d i a f f d a p a a s a i a a s a i a s s s a p d ~ f a i a s f f f g ( ( h d i a d d f d d s s f s f f h h h ( ~ f f s i u u 9 a 9 7 ",
"9 9 9 a p 9 s f ~ s s s d d i a g h f a a a a d d a i a i i a s s f s a s s f / s a s f g g g g h ( h d a p a d f f d d s f g g ^ h ) ) ( ( ~ d i a i i 9 a 9 6 ",
"9 9 9 s p 9 9 s s ~ ~ s d d a a d d f d d s a a a s p i i i s f / / f a p p s / ~ s f g h g s s f g f d s s a p s f f a s f h g f f h h d h h h h f s i p a 9 6 ",
"6 9 9 s a a 9 a s ~ d s d i i s d d f f d a a p i p a s s d d d f f s a i i s d f f f g g f s f f g f s d d s a p d a a f g g f f f h d y f h f h h a p 9 9 9 6 ",
"6 9 s w s 9 9 p a s d d a p i a d d f s s a p p p 9 p a s s d y a s s p a w 9 s f f g f f f f f g g d a d f ~ 9 u a a a d d f s s f d p u d f f h f s p p 9 6 7 ",
"7 9 9 9 9 9 9 a a a s ! a p a a a d a a f s p a p u 8 9 i p p i 9 s a a 9 9 9 f f f f s f f p a s s d i s d s a u p i p a d f s a f s a p d h f f f s p 9 9 4 4 ",
"4 6 9 9 9 9 a s s a p 9 a s a p p s d s f s s d a p y u u p p p p a p p 9 9 9 g f s s s d a p p 9 a s p a s a p a p p p p p d p a a a a d f f f p u p 9 9 9 7 # ",
"4 7 9 6 6 9 s f s a p 9 s d p i p s f f f d d f a p a p u p a p a p p p p a s g f s s f p u 8 8 8 p a p a s p s a s a p u p s p p s a a f f f d y 8 9 9 7 8 : O "
};
