/* XPM */
static char *__resized[] = {
/* columns rows colors chars-per-pixel */
"80 80 205 2 ",
"   c #262729",
".  c #2C2D2A",
"X  c #352D26",
"o  c #342F2B",
"O  c #332F2E",
"+  c #382F29",
"@  c #35322D",
"#  c #3C332C",
"$  c #3E382F",
"%  c #272E32",
"&  c #282F31",
"*  c #2C3433",
"=  c #2D3937",
"-  c #2C3439",
";  c #263A3A",
":  c #2C3C3B",
">  c #343532",
",  c #3B3532",
"<  c #333935",
"1  c #3B3A33",
"2  c #32373A",
"3  c #3D3739",
"4  c #333A3B",
"5  c #3D393B",
"6  c #41362E",
"7  c #44382F",
"8  c #423731",
"9  c #453A32",
"0  c #4A3E34",
"q  c #443C3C",
"w  c #493E3C",
"e  c #2D413E",
"r  c #33403C",
"t  c #3B443C",
"y  c #4D4136",
"u  c #444239",
"i  c #4E4239",
"p  c #514337",
"a  c #53453A",
"s  c #58473B",
"d  c #56483B",
"f  c #5B4B3D",
"g  c #604F3F",
"h  c #61503F",
"j  c #263C40",
"k  c #333E42",
"l  c #3C3E41",
"z  c #483F40",
"x  c #2A4445",
"c  c #2C4946",
"v  c #2B4D4D",
"b  c #334244",
"n  c #374945",
"m  c #344649",
"M  c #33544E",
"N  c #38564D",
"B  c #344D52",
"V  c #2E5352",
"C  c #2F5957",
"Z  c #325055",
"A  c #335A55",
"S  c #375A56",
"D  c #345C5A",
"F  c #36625B",
"G  c #3A665C",
"H  c #375C66",
"J  c #376867",
"K  c #3A6C64",
"L  c #366C6B",
"P  c #3E7465",
"I  c #37716D",
"U  c #3B726B",
"Y  c #3E796D",
"T  c #377571",
"R  c #3B7877",
"E  c #4C4241",
"W  c #514642",
"Q  c #5E4E40",
"!  c #5F5040",
"~  c #604F40",
"^  c #625141",
"/  c #695644",
"(  c #41665B",
")  c #416D64",
"_  c #427365",
"`  c #427C6E",
"'  c #447E73",
"]  c #3C8076",
"[  c #3E817A",
"{  c #45816D",
"}  c #438474",
"|  c #468977",
" . c #47847B",
".. c #478D7C",
"X. c #488D7B",
"o. c #47927D",
"O. c #4B947D",
"+. c #53907E",
"@. c #3D7D89",
"#. c #3F848A",
"$. c #428882",
"%. c #4B9582",
"&. c #4E9C84",
"*. c #46948C",
"=. c #4F9F88",
"-. c #5B9782",
";. c #509F84",
":. c #509F88",
">. c #428A97",
",. c #4B9D94",
"<. c #619C84",
"1. c #4FA088",
"2. c #51A186",
"3. c #51A38A",
"4. c #55AB8E",
"5. c #53B08E",
"6. c #4BA39A",
"7. c #4DA99E",
"8. c #52A790",
"9. c #55AD92",
"0. c #52AC9C",
"q. c #57B093",
"w. c #59B494",
"e. c #5BB996",
"r. c #56B29A",
"t. c #58B59C",
"y. c #5EBD99",
"u. c #64A48A",
"i. c #68AC91",
"p. c #69B89A",
"a. c #74BF9F",
"s. c #4EAAA2",
"d. c #51ACA2",
"f. c #56B7A7",
"g. c #59BAA3",
"h. c #59BEAA",
"j. c #50B0BB",
"k. c #5EC49B",
"l. c #5FC89D",
"z. c #61C59D",
"x. c #62C99F",
"c. c #5BC3AE",
"v. c #5BC4B3",
"b. c #5EC9B4",
"n. c #5CC7B8",
"m. c #5DCBBB",
"M. c #65C6A0",
"N. c #64CCA1",
"B. c #6ACEA3",
"V. c #7BCAA7",
"C. c #66D0A3",
"Z. c #6CD1A5",
"A. c #6AD7A8",
"S. c #6DDCAC",
"D. c #75D6AA",
"F. c #7AD5AB",
"G. c #76DAAC",
"H. c #60CEBC",
"J. c #7FDEB0",
"K. c #7AE6B4",
"L. c #51B2C2",
"P. c #54B8C7",
"I. c #5BC9CD",
"U. c #61D4C3",
"Y. c #61D4CC",
"T. c #63DAD5",
"R. c #66E0DB",
"E. c #5ED5E1",
"W. c #62DCE9",
"Q. c #65E2EB",
"!. c #67E6E8",
"~. c #68E9F0",
"^. c #89D2AA",
"/. c #88D4B0",
"(. c #81DFB1",
"). c #8CDAB4",
"_. c #85E3B4",
"`. c #89E9B8",
"'. c #93E0B9",
"]. c #94EDBD",
"[. c #96F0BF",
"{. c #9AF1BF",
"}. c #A7ECBB",
"|. c #A4F3BF",
" X c #AFF6BF",
".X c #B1F7BF",
"XX c #CCFDBF",
"oX c #9AECC1",
"OX c #95F1C1",
"+X c #9CF3C2",
"@X c #9CF8C6",
"#X c #9EF6C8",
"$X c #B2EFC8",
"%X c #A1F6C5",
"&X c #A6FACB",
"*X c #A6FBCD",
"=X c #B5FAC1",
"-X c #B6FAC7",
";X c #BBFBD1",
":X c #C2FBC1",
">X c #CCFDC0",
",X c #C6FECA",
"<X c #D4FEC3",
"1X c #D6FFC6",
"2X c #C4FCD5",
/* pixels */
"# + # # 7 7 7 7 7 7 7 6 7 9 7 7 7 y 7 7 0 y 0 0 7 7 7 7 6 6 7 9 7 9 6 6 7 0 9 7 7 9 0 7 0 y y y 0 0 y 0 7 y y y # X X X 6 7 p 7 7 9 0 0 7 0 0 0 0 0 6 6 0 7 7 + ",
"X # # # 7 7 0 0 0 0 7 7 7 9 0 7 7 y u 7 7 0 0 9 7 0 0 0 0 7 9 7 0 7 7 7 0 0 0 9 7 7 7 7 7 y p p 0 y y 0 y y 7 y y 7 6 # 7 7 y 7 7 9 0 0 0 0 0 0 0 s 6 6 7 7 6 + ",
"X # 7 7 7 0 p p p 0 0 7 7 0 0 0 y 0 0 0 6 0 p 0 7 0 0 0 y 0 0 y 9 9 0 0 s 0 0 0 0 7 7 9 y p p p y p y p y y y y a a y 7 y 7 6 X 6 9 p 0 0 0 s 0 g 0 7 7 7 7 6 6 ",
"7 7 0 9 7 7 y p p 0 0 0 0 0 0 0 7 0 0 u 7 0 p 0 7 0 7 7 y 9 9 0 0 0 p s g g 0 0 a y 9 p p p a a p y p p p y 7 y y y y y 7 6 # # 6 7 p a 0 0 0 0 0 0 0 7 7 7 7 6 ",
"7 9 y y 0 0 y y p y y 0 0 p 0 7 9 1 1 7 0 p a y 0 0 9 9 y 9 9 9 0 0 0 g 0 0 0 g a 0 9 p a a p a s p p s p y 7 y p 0 p p p 7 # # # 9 a s y y p p 0 0 0 0 0 0 6 + ",
"7 0 y y p a y y y y y 0 p p 0 0 $ = = > p a a y 0 0 0 a a 9 # 9 0 0 0 0 0 g 0 0 9 8 6 y a p p a s f f s p y 7 y p p p p s p 6 6 9 y a a p y p a 0 0 0 0 0 0 6 X ",
"# 9 p p d s s a a d p 9 p a p 0 $ ; * > 0 a a y p i y a p 0 0 a g 0 0 0 0 g g 0 0 0 a 0 p p a s f f f s s a y p s p s s f p p p s f a a p p p a s 0 0 0 0 0 0 6 ",
"7 0 p p a s s a a a y 7 y s p 0 $ = * > 0 a d a a a a 0 0 y a s s 0 0 0 g g 0 g 0 0 a a 0 p a s s f s f f s p a s s s f p 7 0 g g f s p p a a y 0 0 0 0 0 0 0 0 ",
"9 0 y a d p p y i i y y y a a y 0 9 $ 1 y s s a y i a a i y a a 0 s 0 s d a s s y y y p a y a f d a d s a d s d p s d d y + + s s a s p p d d y 9 y 9 9 0 y 9 # ",
"9 y y a a p y 7 0 y a d y a d a i a y 0 p d d p y i d f f a a p 0 0 0 s d a p p y 7 9 y i y a d ^ f a i y p s d p s s s y y u 7 y d p y p f p $ y y y y 0 0 7 # ",
"9 0 y a p p u 7 9 y d f a a d a a d a a a s s a a a f f f d d p a 0 0 s a y y y y 9 9 y i p d h / d a y y p d a p a s s s d s 7 0 p 0 y p s s y y y y y 0 9 $ # ",
"9 9 y y y y y y y a f f d a a a s d d d s s s f g f d d f f f d 0 0 s 0 y y 9 9 i y i i a a d f ^ d i y p a d a p s a s f f d p 0 9 i d d d f f f a y 0 y 9 7 7 ",
"7 0 p p y y y y a d f ! d a d d d a y a g f d a s f d d d s s d s a a s a i y i 9 y a i i y 9 9 0 0 y a s f h d a a d s a a a a p y a d s a a d d d p y y 9 9 7 ",
"7 0 p a y y y i d d ! ! f a d f a i y d ^ ^ d a a a p d d p a a s 0 0 s d 0 i a 7 u a a y 9 9 # 9 0 p s f h ^ f d a s s y y a d a a d d f a y a a d d y y 9 9 7 ",
"9 0 y d a a d f h f h ! f f d a a a s g ^ ^ Q d y y a a s y u i s a 0 0 y 0 y a y i a d d d a a Q d d f d p d f f f f f d a a f d a d d d p a s s a a y 9 y 9 7 ",
"9 0 y a a d f f d f h f f f d a a s f g g ~ f d a i i a d y 0 y a a 0 0 0 9 9 0 a d f f d d d d d d d d p a f d d s f s d a y a a y 9 7 9 a p y a a y y y y 0 7 ",
"9 0 a a s s s s d Q d a d Q f d d s a f d s f f d a y a a y i a s s y y y u 9 9 a f ^ ~ d d d d a a a s a p f a y d f f f p y y i 0 7 @ 6 a d 9 d d a 0 y y 7 7 ",
"0 0 0 s s s i a ! f d a i i d f s p y y y d s s d d a y y y i d f d y p d a i a a d ^ ^ f s Q d d s a Q y 0 d a d f h f d a y y y a d i 9 a f f f d a i 0 y 7 7 ",
"9 0 a a s s i a ! d d d a i d W s y y y y p s s d d a p a d d f g f y y d a a a a d ^ f f f s s s s s d a y d d d f f f a a y i i d a a y d ^ ^ g f a p y y 7 6 ",
"9 0 p s a a i a d d d d d d a d s a a a y y d d d d d a y a d p a y y y a d a a a f ~ d f ~ s a a a d d a a s f f a d d i i i a s a i a d h / ^ g s s a s p 7 6 ",
"0 0 a d a i s i y a a a d d i d d a a Q h f a a d f h p # # 6 , $ $ $ y a d d a d Q d d s Q d s i 0 a s a s d g f d a d a i a f a i a d h h / / s a f f f a 0 # ",
"9 y p a a a d d a a d d d a d d d W Q ^ ! f d d f h f u > = : = ; < = 9 a f f s f f d d Q Q d s a i a f f d f f f a d d y a d d a i a d f f f f a y y s g p 7 6 ",
"0 0 p p a a d f h d d ! f d d d f ~ ^ ^ ^ f f ! h f 7 r c V V v C M c t y a s s a y i i a s 0 i s a a g f d d f f d d d i a d d d a p s d d d p y y $ a f p 0 0 ",
"0 0 p p a a d d f f f ^ h d a a d ~ ~ d g f f d y y t F ` | } U } { _ N , @ # @ @ @ @ @ o O o o 9 0 a a a a g f f h d a a p a d d f d d s d d d p y a f f p 0 7 ",
"0 0 a a a i a a a d f g g s a a d ~ f d d f d s 9 < N ` 3.w.4.&.4.q.2.P c = : e k 4 e e e e k 4 1 0 y y y y ! f d h f a a a a a i a f h f d d d a a f g f p y 7 ",
"0 0 0 p a a i i a a f d d s a i a g ~ d a s s p # - G %.k.x.z.e.z.C.k.1.P F F K _ ) ) ) K _ ` J n u u 9 $ y ! ! f ! d a a d a y y y d h h h d a s f s f s p y 7 ",
"0 0 s s d d d d d a a s s s d s a a s s s f s 0 > ; F ..w.z.M.l.N.C.M.q.O.+.-.i.i.i.i.i.i.p.p.u._ r       > d f d f s a d d a i u i d d f ! ! s p p a s s p p 7 ",
"0 0 a f f d d d d d d d f ~ ~ d a a a a a s a a , % A ' O.e.c.M.N.C.N.k.k.x.F.).'.'._.'.'.'.oX/.u.( x ; x t i i a d f d d d d d d d a a d Q ^ f d p a p p p p 7 ",
"0 p p a s s f f a Q f f ^ / ~ f s a 0 0 a 0 0 d 9 * M U ..9.M.N.C.x.x.A.G.`.@X@X*X*X*X-X;X2X2X$X^.u.| { ' ( E y i d d a a d Q Q ! f d a a f h h g d s y p p 0 7 ",
"0 p a i y a a s d Q Q Q Q ^ ~ ~ f s a a 0 a a d 9 . v U ..q.l.N.x.x.Z.D.`.OX@X@X#X@X&X-X,X1X1X>X}.^.V.^.a.-.G r # a d a d Q f d f ! d d d h h f f g g s y p y 7 ",
"0 0 a i a d a d ~ ^ Q f ^ ^ Q d d s s ~ Q a a i 1 = D ] &.w.M.l.l.x.Z.J.].@X@X+XOX[.{. X=X<XXX<X:X}.{.oX[.^.+.S < 1 0 a f Q f Q f f f f f h f a f h h d y p y 7 ",
"0 a s s f ! a d ~ ^ f f ^ ^ a i a a d ~ ~ Q 0 , : Z Y &.4.y.M.M.l.l.Z._.{.*X%XOX].{.{. X.XXXXX<X1X,X2X;X*X].^.<.S 4 9 p s s ~ d f h f h h f d a d f d p p p 7 6 ",
"y a d d W d d d f ^ h d f f a d f ^ f f ! d $ c A ` ;.q.y.x.N.x.k.l.Z.(.].|.@X[.[.[.{.[.|..X.X<X<X1X>X;X%X@XoX^.-.G r # 7 a f a p f f h h h f f f d s d f p y 7 ",
"a d d d f a d d f f d i a a d h / h s y d u n G } &.q.z.N.N.N.N.k.l.B.G._.[.{.{.{.+X[.].[.|. XXXXXXXXX X+X#X*XoXV.+.A * $ y d y y d d f g h h f f d p s d f p y ",
"d s g h h f d f f d y y y i ^ ^ f a u $ r N { 2.9.9.q.z.N.C.C.x.z.z.C.Z.D._.[.{.+X+X[.].].{.|.=X=X.X X|.+X+X*X%X).p.| M r $ y y d d y y s f f d y y s p y p y y ",
"s s f f d d d d f d y a y a f f d a 7 @ ; F O.k.p.9.9.w.z.N.N.x.z.x.z.z.x.D._.[.+X+X[.[.OXOX{.{.|.|.{.{.+X+X%X[.`.G.q.] M < $ y d p y u p d d f d a d y y y y 7 ",
"s s s s a a a a d p a f d a a a d d y 1 : N { 3.5.4.4.4.e.z.x.x.N.x.l.k.z.x.G._.].{.{.|.+X+XOX[.OXOXOX+X+X[.].`.K.K.z.o.C ; @ p f p d a d d d d f f d p i i y 7 ",
"y p p a a a a d d 0 p g h f a d f f s a y < n G } %.4.9.4.e.z.N.N.N.x.x.z.z.B.D._.[.%X%X%X+X+X+X+X+X@X%X%X]._.D.S.S.y.| v * 6 s h f d d d d f d d d f d d d y y ",
"y y p a i y p s y 9 0 d d d a d d d d d y @ = D Y $.3.4.3.9.e.z.N.N.x.x.z.z.z.x.D._.].].].].].].].].].OX]._.D.B.N.A.k.O.F e @ y d f f d d d d y y a a d d p u 7 ",
"y y a a a a d d y y y y a a p y y y p y 9 r B U $.=.4.1.1.3.4.e.z.x.N.C.x.z.k.z.B.D._._.(._.(.(.J.J.J._.(.D.B.z.l.N.z.5.| G r 1 y d d d h d a i y y p d d p y $ ",
"y i y d d d f f d y i d d a y y y i u $ = D  .7.f.9.1.2.2.1.3.9.e.z.N.N.N.x.l.x.N.Z.Z.Z.Z.Z.Z.Z.Z.Z.Z.Z.Z.Z.x.x.l.N.N.x.e.O.G e . $ y d h d i u p d d h d y 0 7 ",
"y a d f d d f h d i a f d a y u i d 9 @ e I 7.n.b.t.1.2.1.1.1.3.4.e.x.x.M.N.N.M.x.x.x.l.x.l.z.z.z.x.z.l.z.x.x.x.x.x.C.A.A.w.} c & + y f h d a i d d f f f y 0 7 ",
"y d f d d a h f i i d f a y y y d ! y > x R d.U.H.t.4.O.1.1.1.1.3.4.e.z.M.C.N.N.x.k.k.k.k.k.k.k.l.k.l.k.k.z.x.x.x.x.C.S.S.k.X.v * # h h h f d d f f d f d p 7 7 ",
"y p d a d f f f d ! d y a d a a a d y < j I ,.n.b.t.2.2.1.3.3.3.2.2.4.e.l.N.N.l.x.x.x.l.x.x.x.x.x.z.x.x.z.z.x.x.x.x.C.A.N.4.} x . 7 a h h h d a f h d d d p y 7 ",
"a a y s d f s d f ! d a p s f f f f p @ k L ,.n.c.r.2.&.1.1.1.4.2.2.4.9.w.y.p.k.z.x.x.C.x.x.N.x.x.x.x.x.N.x.B.N.N.N.C.N.z.3.` x . u y f ! ! f d f f d d s p p p ",
"y y a d f f s s d f f f a s f h f f y 1 j L ,.v.v.r.2.&.3.8.1.1.1.2.1.4.4.q.9.q.e.z.N.N.N.x.x.x.x.x.x.x.x.x.x.N.C.C.C.x.w.%.U x @ u p f h h h d f d d d p p p p ",
"p y p f f f f d i a h / h h g p p f y 1 j J ,.n.v.t.8.2.3.3.4.1.3.3.3.3.3.3.:.3.q.y.z.x.N.x.N.x.x.x.x.Z.x.x.z.z.x.x.z.y.4.o.K x < y d f d d d a d f a p p s s p ",
"p y p d f f h d y d f ! / / h s p g i 1 j J ,.v.b.c.r.8.4.3.1.1.3.3.3.3.3.&.&.=.4.q.y.z.N.B.N.N.C.x.x.C.x.z.k.y.e.e.e.q.2.| G x < t d f d f d d f h d u 0 s s s ",
"p p p d d Q d d d f f d Q ^ ^ f h ! y @ e L ,.n.U.m.h.0.4.2.2.1.4.3.3.1.3.1.1.1.2.4.4.y.x.C.N.N.C.x.N.Z.N.z.w.4.4.4.9.4.3...K c = 7 p f f h Q ~ ^ ~ d 0 0 a a p ",
"y y p d f ~ ~ Q ~ d d d d d ! f f / y . e I s.Y.T.Y.c.0.1.2.2.1.1.3.3.3.3.3.3.3.&.3.3.q.y.z.z.l.k.k.k.z.z.e.4.3.&.&.4.q.r.=.Y c < 7 d f f f ~ Q Q d a a y 0 0 0 ",
"y y a d d Q Q ~ ~ d d d d d f d d h y . ; T L.Q.!.T.c.r.1.2.2.1.1.4.3.3.3.3.3.3.1.=.3.4.q.w.w.w.w.w.w.e.q.4.4.;.%.O.4.g.c.0.R v < y s f f h ! ^ Q d a i p 0 7 9 ",
"0 y y a s s d d f d a a d f f a f h y > e T L.W.~.T.c.r.8.2.&.2.1.1.3.3.3.3.3.3.1.3.3.3.3.4.1.4.3.3.4.3.4.3.3.2.2.2.9.h.v.d.[ x > y a d f f f ^ Q d a a p s 0 7 ",
"0 0 a s a i f ~ ! d a d ! ! d d ! ! a 9 l H >.P.E.!.T.n.f.1.2.2.&.2.2.3.3.3.3.3.3.3.3.1.1.1.1.1.2.2.1.1.1.2.;.2.9.t.h.f.7.$.L b 1 a s g f f d f Q Q d d d a 0 0 ",
"0 0 0 s s a Q ~ ! f d f ! ! d ! ^ f d y E m H @.j.E.Q.R.v.r.2.2.;.&.;.3.3.3.3.3.3.3.4.1.1.2.=.1.2.2.2.1.1.&.;.3.r.c.h.6.R J B u 0 a d f f f d d Q ^ f f f a p 7 ",
"0 0 a a s W f ~ f f f ! f d W / ^ f f d E 5 2 B @.L.E.Q.Y.v.f.8.4.1.4.1.3.2.3.2.3.2.1.3.2.2.1.3.1.3.3.3.3.3.3.9.f.c.s.[ V k z q i d s s f g f f Q Q f f f s 0 9 ",
"0 0 a a a s f s d d d h d a i d Q d a i i q 3 k V @.L.E.Q.R.U.c.f.t.0.8.2.;.2.&.2.2.2.&.2.2.2.2.2.&.2.2.9.t.c.g.f.7.[ H k 3 q w a s f d s s f h Q ~ f d a a 0 0 ",
"u y a d d d f d i a d d d i y i d s 0 q E w q 5 k Z @.L.E.Q.R.b.c.c.h.r.1.2.2.1.1.3.3.1.3.3.1.1.1.1.2.2.8.t.c.v.7.[ D k 5 q z w i i f d a d f f h g f s a s p 7 ",
"0 y d d f f h f a a d d d a a d d s i i w E w q 3 O H @.P.I.I.f.h.n.n.c.f.q.9.r.q.0.q.r.9.r.q.r.t.r.5.1.%.=.r.7.#.C k , q w q q q i 9 y a h h f g f a s f s p 0 ",
"0 y d f f f d d h f f d d d d f Q W s 0 q z z q 8 , k H @.#.#.#.6.v.Y.U.b.c.c.v.v.c.c.v.v.v.c.b.b.b.g.%.Y I R R F m 3 q w z z 3 9 9 y y y d f f f s p p s s p 9 ",
"y y a d d d y a h f f d a d d d Q Q d a q q q q q z k B Z C V C R s.H.U.m.v.v.v.n.v.v.n.v.v.b.n.H.H.f.#.C c v v m t q w q z z q 1 u i i y a a p s p 0 0 p g p 7 ",
"0 y p p y y i y i d Q s a d d d f f f s 0 q q z z w q 3 - % % - D  .6.s.7.6.6.6.6.6.,.6.6.,.,.s.s.s.*.L m - - - 5 i q q E E w 9 7 y y a a a i 9 p s s s f f p 9 ",
"0 y a p p y i y y d d s d d d Q f d f s a a w z z z q 3 > O O 3 m D I T I I I I I I T I T I I T T T K Z l 3 2 > 5 E q 5 E E i 9 7 0 y d d a y y p s f g s d y 0 ",
"y p s a a a i i a d d d d d d Q f d s s s s W w z z q q 3 q i q l k x x x x x x k x x x x x x x x c x 4 z q q q E E q 5 w E a 0 u 0 i d ! a y y a d f f s p 0 0 ",
"0 a f p y p 0 0 d d ~ ~ ~ d i d ~ Q Q s Q ~ Q 0 q q 3 q q q q q z 5 k - - 2 : - k 2 2 2 2 j 2 2 k 2 4 5 z i q z E E z q 0 a s a a a f f ! f d a f s p a a y 0 0 ",
"0 p p p a a y p s Q W ~ Q s i d f f f s ! ! d i y 5 q q q q E E q q 3 3 3 5 q 3 8 q q 3 q 3 q q q q q z w z w z E z q q y a s Q d Q h h d f f f f f i a a 0 0 0 ",
"0 0 y s s s s s Q s s d f s d s d d d f d d a i y y q q i u i W z z w E i w w z z z z q w w q z z q z W z w s w u 5 u a a a s ^ ^ Q / h a f ! h f d d d a 0 0 0 ",
"0 0 a f g g s s Q s d Q s a s a a i a a d d d f a a u u i 0 q E z E E E E E E E W z z q z z W z z z z W z w w 0 9 i d d a a Q ~ ~ f g ^ ^ ! ! f a i a a i 0 9 9 ",
"9 p s f g f s s d d s a a a a s d a a a d d f f f d d a a i q q z E E E E E i z W W z q q w w w w z z z z w 0 0 9 i d Q a i s Q f d f f f ! ! f d a i i i i 9 9 ",
"9 p s h f f s s s s 0 9 9 i s d f d a d d d d a Q ^ d d f d i 9 q 8 q i W a 0 w w s a q q w w 9 8 a w w w 0 0 8 9 a f d a p a s d d f d i d ! d d d a i 0 0 0 0 ",
"0 a f f f f s s d a a 0 0 i d d d a a d d a a i a f f f Q ! d i 0 0 0 i a 0 w a a 0 i 0 0 s w 9 8 0 s a g g s a d d d d a s s a a d a i a ! ! d Q ~ f d a a 0 0 ",
"9 0 s f s s f f Q s a i i a s a a y a d d a a a i a a W Q ^ f a i a s 0 0 0 s f a 0 a a g s s 0 0 s s s f ~ f f d d d a s f f s a a a d d ! ! d Q ~ Q a i a 0 9 ",
"6 0 p s d y s f f s a s Q d s a a a a d a i i a a i a d d d a a s d s a a s f f a w a s s f s Q Q f g f s s ~ f a d a a f h f f d d d ! ^ W d ! Q s a 0 0 0 9 7 ",
"9 0 p s p p s g f s s s d d a a f f f a y a a a a i i a s a a a s s s a a s f f a i s d f f f h ~ ^ h d i a a d f f s a f f f f ! f ! / / ! d d d i y y 0 p 0 7 ",
"7 0 p p p 0 s g f f s s Q d i a f g f a a a d d a a a a i i a a s f s s a s f g s a d f h h h f ~ ^ ~ a a a a s f f f s p s g g ! ! / ! ! ^ ! d a i i y a 0 0 7 ",
"0 0 0 s p 0 0 g Q Q d s d a a s d d f f d d d a d a p y a a d d ~ ~ f s i a s ~ Q d f g ^ h f s s g g s s a a a s f s a a g h h f f ! ! d ! ^ f f f d p a s 0 7 ",
"0 0 p p s 0 0 p s f f d a i i a d d s f d d p y i a a d a d d a s f s s i i a f f f f f g f s s g g f a s s a a y s s a f g h f f f f d y f ! f h h d p 0 0 0 9 ",
"7 0 0 g 0 0 0 p a a s s a i i a d s s s f s y p p 0 a a d d a y s s a 0 s 0 0 0 f g f f f f s f s g d a s f s a y p a a f f f s f h s p y s h f h h s a y 0 9 7 ",
"7 0 0 0 0 0 0 p a a a Q a a a a a d d d f s p s a 0 9 9 a p a y 0 s a a 0 0 0 g f f f s f f a a s f s y a d a a y p y i a d s s d d d a a d f f f d s a 0 0 6 6 ",
"6 7 0 0 0 0 s p s a 0 0 a s a a p s d d f s s d a 0 0 y y p y a s a a a 0 0 s g f g s f d p y y 0 a a i s s a a a p p y y a s a a d a p d f f f a i i 0 0 9 6 # ",
"6 7 0 9 0 0 s g s s a 0 a s a 0 p s f s f s s f a p a a y p p i 0 s 0 a 0 s 0 g f f 0 f a y 7 y 0 a a a a s a a s s p a y y s y p d p s d f f f 0 9 0 9 8 9 6 + "
};
