/* XPM */
static char *__resized[] = {
/* columns rows colors chars-per-pixel */
"80 80 200 2 ",
"   c #1B2D35",
".  c #22282B",
"X  c #2B2B2C",
"o  c #342D27",
"O  c #332D2A",
"+  c #392F2B",
"@  c #2E312E",
"#  c #33322D",
"$  c #3C332C",
"%  c #242F32",
"&  c #312D30",
"*  c #2C3433",
"=  c #293738",
"-  c #29373A",
";  c #2C3A3C",
":  c #343432",
">  c #3B3633",
",  c #333A36",
"<  c #3D3932",
"1  c #373539",
"2  c #3A3639",
"3  c #353B3B",
"4  c #3C3C3B",
"5  c #41362E",
"6  c #43382F",
"7  c #413730",
"8  c #453B32",
"9  c #4A3E34",
"0  c #443C3B",
"q  c #493F3D",
"w  c #2E403E",
"e  c #35423C",
"r  c #3A423B",
"t  c #4D4136",
"y  c #414139",
"u  c #4E4239",
"i  c #514337",
"p  c #53453A",
"a  c #58473B",
"s  c #56483B",
"d  c #5B4B3D",
"f  c #604F3F",
"g  c #61503F",
"h  c #263F41",
"j  c #2B3E41",
"k  c #3A3F42",
"l  c #463F41",
"z  c #483F40",
"x  c #2C4544",
"c  c #2A4748",
"v  c #2D4C4C",
"b  c #334344",
"n  c #334A45",
"m  c #384648",
"M  c #324D4B",
"N  c #35524C",
"B  c #3B554B",
"V  c #2C4F51",
"C  c #2C5251",
"Z  c #2C5955",
"A  c #335454",
"S  c #335A56",
"D  c #375857",
"F  c #325C5B",
"G  c #35635D",
"H  c #38645A",
"J  c #3A645C",
"K  c #2E5F61",
"L  c #355B61",
"P  c #316363",
"I  c #366667",
"U  c #3A6D63",
"Y  c #3C7367",
"T  c #3C726A",
"R  c #3D7B74",
"E  c #3C7A77",
"W  c #474040",
"Q  c #4C4241",
"!  c #504541",
"~  c #5E4E40",
"^  c #5E5041",
"/  c #604F40",
"(  c #625141",
")  c #695644",
"_  c #44796A",
"`  c #447E71",
"'  c #4C7E70",
"]  c #3F847E",
"[  c #43806E",
"{  c #438374",
"}  c #4C8273",
"|  c #44867B",
" . c #488A7A",
".. c #548A79",
"X. c #4A927D",
"o. c #4A987E",
"O. c #59927D",
"+. c #3D7E87",
"@. c #3D808A",
"#. c #418C83",
"$. c #4F9D85",
"%. c #46938B",
"&. c #4E9E88",
"*. c #599683",
"=. c #509E85",
"-. c #438997",
";. c #489896",
":. c #4FA18A",
">. c #51A187",
",. c #51A38A",
"<. c #54A98D",
"1. c #5AA98C",
"2. c #58B18F",
"3. c #4CA095",
"4. c #4CA59A",
"5. c #55AC92",
"6. c #54AF9A",
"7. c #57B093",
"8. c #59B393",
"9. c #5BB996",
"0. c #56B39C",
"q. c #58B59A",
"w. c #5DBD99",
"e. c #61A990",
"r. c #73B596",
"t. c #74BC9D",
"y. c #4BA4A7",
"u. c #50ADA1",
"i. c #53B3A5",
"p. c #55B8A7",
"a. c #59BCA6",
"s. c #56BBAC",
"d. c #59BDAC",
"f. c #4DA9B4",
"g. c #54BAB5",
"h. c #5EC49B",
"j. c #61C59D",
"k. c #63C99F",
"l. c #7AC09D",
"z. c #5CC2AC",
"x. c #5BC3B3",
"c. c #5ECAB5",
"v. c #5BC6BA",
"b. c #5ECAB9",
"n. c #65CCA1",
"m. c #69CEA3",
"M. c #78C5A3",
"N. c #67D1A4",
"B. c #6BD2A6",
"V. c #6BD5A9",
"C. c #69D9A9",
"Z. c #74D6AA",
"A. c #75DAAC",
"S. c #7BDBAE",
"D. c #60CFBE",
"F. c #61D1BD",
"G. c #77E1B1",
"H. c #53B6C5",
"J. c #5DCBC3",
"K. c #59C4D1",
"L. c #62D5C5",
"P. c #61D6D6",
"I. c #63DAD5",
"U. c #5FD4E3",
"Y. c #62DBE3",
"T. c #69E9E9",
"R. c #69EAF3",
"E. c #84CFAC",
"W. c #85D3AE",
"Q. c #83E3B5",
"!. c #8AE6B7",
"~. c #8CE7B9",
"^. c #84ECBB",
"/. c #8DE8B9",
"(. c #94E4B8",
"). c #93EDBD",
"_. c #95F0BF",
"`. c #99F1BF",
"'. c #A1E5B9",
"]. c #A4F3BF",
"[. c #ACF6BF",
"{. c #B7F7BF",
"}. c #D0FEBF",
"|. c #96F2C1",
" X c #9BF3C2",
".X c #9BF6C8",
"XX c #A3EDC5",
"oX c #A2F5C4",
"OX c #A2F9C6",
"+X c #ABF7C9",
"@X c #ABF4CE",
"#X c #A3FECB",
"$X c #B9FAC4",
"%X c #A9FCD2",
"&X c #C2FCC2",
"*X c #CCFDC3",
"=X c #C4FECD",
"-X c #D6FFC2",
";X c #D7FFC6",
":X c #C9FFD1",
/* pixels */
"$ $ + $ 5 6 6 6 6 6 6 6 6 6 9 6 5 t 8 6 t t 9 9 6 6 6 6 5 5 6 6 9 6 5 5 5 9 6 6 8 8 9 6 9 9 i 9 9 9 t 9 5 y t 9 5 o o $ $ 9 9 9 8 6 9 9 6 9 9 9 9 9 5 5 6 9 5 o ",
"o $ $ $ 6 6 9 9 9 9 6 6 6 6 9 6 8 t 8 8 6 9 9 9 9 6 9 9 9 6 6 9 8 6 5 9 9 9 9 9 6 6 6 6 6 t i i 9 t t 9 t t 9 9 9 6 $ $ 6 6 6 6 6 8 9 9 9 9 9 9 9 a 5 5 6 6 5 + ",
"o $ 6 6 6 9 i i i 9 9 6 9 9 9 9 t 8 t 8 $ 6 i 9 6 9 9 9 t 9 9 9 8 8 9 9 9 9 9 9 9 6 6 8 t i i i i t i t t t y t a a 9 6 9 6 6 o 5 8 i 9 9 9 9 9 f 9 6 6 6 9 6 $ ",
"6 6 9 8 6 6 t i i 9 9 9 9 9 9 9 9 t t t 8 t p 9 9 9 6 6 9 9 8 9 9 9 i a f f 9 9 p t 8 t p i p p i i i i a t 6 t i 9 t i 9 5 5 $ 5 8 i p 9 9 a 9 9 9 9 6 6 6 6 5 ",
"6 8 t t 9 9 t i i t t 9 9 i 9 9 t p i t i i i t 9 8 7 8 i 8 8 8 9 9 9 f 9 f 9 9 i 9 8 i p i i p a i i a i t 6 t i 9 i i i 6 $ $ $ 8 p a t t t i 9 9 9 9 9 9 5 $ ",
"6 9 t t i p i t t i t 9 9 i 9 9 i p i i a a i t 9 9 t p p 8 7 8 9 9 9 9 9 f a 9 9 7 5 i p i i p a d a a i t 6 t a 9 i i a 9 6 5 8 9 p p i t i p 9 9 9 9 9 9 5 o ",
"5 9 t i p d p p p p t 8 i a i i i 9 8 8 i a p t i u i u t 9 9 p f 9 9 9 9 a f 9 9 9 9 u i i p a d d d d a a t i a i a a a i 9 a d a a p i i p p a 9 9 9 9 9 9 6 ",
"6 8 i i p a a p p s t 8 t a i a u 8 8 8 u a s p i i i u t t i s a 9 9 9 f f f 9 u 9 p i t i p p a a d a d a i p a a d d i 9 6 g f d a p i i i i 9 9 9 9 9 9 9 6 ",
"8 t t p p p i t u u t y t p s i p u t t t s d u t u p p u u i p 9 9 9 a s p p p i t t i p t p d a p p d p p d s i a d a t o $ a d p p p i p p t 9 t 8 8 t t 8 $ ",
"8 9 u p p i 9 8 9 t p s i i d s p s u u p s s i t t s d d p p i a 9 9 a s i i i t 9 6 t t t p d / d p u t t d s i a a a i t 6 6 i s i t i d i 6 8 t t 9 9 9 5 $ ",
"6 9 t p i i 9 6 8 t s d s p s p u s s p s p s i p p d d d s p p 9 9 9 a p t t t t 8 8 t p u s d ) d p t 9 i s p i a a i p p p t 9 t 9 t p d a t u p t t 9 8 5 $ ",
"6 9 t t t t t t t p d d d p p p p a s s s d d d d d d s s d d s p 9 p p t t 8 9 u t u u i s s g ( s i u i p s p i a i a d d d i 9 8 u p p p d d d i t t 9 8 6 6 ",
"6 9 i i t y t i p s d ^ s p s s a u u p d d d p d d i t t i p p p 9 i p d 9 t t 8 y p u u 9 8 8 9 9 t p d d g d i i p p p p p p i t p s d s p p s s i t 9 8 8 8 ",
"8 9 i i t t t p d s d ( s p s d a u t p ( f d i i t 8 $ > $ 8 t p a 9 p s 9 t p 6 9 p i u 8 8 $ 8 9 i p d d ( d d p d s i t i s p p s d d p t i p s s t 9 9 8 6 ",
"8 9 t s s u s g d d g ( g d p p i a a d ( ( ^ s 9 8 # * % . X y 9 p 9 t t 8 t p p u p d s p u p ~ s d d s i d d d d d d s p p d s p p d p i p d d p p t 9 t 8 6 ",
"8 9 i p p p d d s d d d d d s p p d d f f f d p 8 , n S J H n e 9 p 9 q 9 9 8 9 p s d d d d s s a s a a i i d s p d d d d p t p p t 8 8 8 i p 9 i p u t 9 t 9 6 ",
"8 9 p p a a a a s d d p s d ! d d p d d d a p 9 r n U X.e.e.} ! y 8 8 t u u 8 8 p d ( d d d s a p p p ! t p d u t d d d d t t t u 9 6 $ $ p s 8 p d u 9 9 t 8 6 ",
"9 9 9 a a a u p ( d s p u u s ~ d t 8 t t i t # w U o.j.Q.W.r.} n # 8 t s p u p p d ( g d d d d s p a d t t s p s d g d d p t t u p s u 8 p ~ ^ d d p t t t 8 5 ",
"8 9 p a a a q p ^ d p s p u s s p t t t t 9 6 @ v | 5.Z._._.M...v . O 5 6 8 7 < 6 8 9 9 8 8 9 i a p s d i t i d s s d d s u t t p p a i t s ( ( d d p i t t 6 $ ",
"8 9 i p p p i p s s s p s s s s d i p p t t < % C | 5.V.^.^.M.X.c . . @ # @ : X @ @ : * X : < 8 i p s s s i s d d s s s i t u p p p u u s g ( ( d d d p i i 9 5 ",
"9 9 p s p u a u t p s p s s p p s u p ~ d s 8 @ x Y X.8.C.N.2.[ c   c c x x x c c x x v V M 3 < 9 t i s p a d d d s p s u i p s s u p d g g ) ) d p d d d i 6 5 ",
"8 t i p p p s s p p s s ! s p s d s ~ ( ( d u 8 r N J  .2.h.8.X.U K P U _ ` ' ' } ` ` }  .} D r # O o 8 t s d d d p p p p p s s p t p s d d d d p t t s f i 9 6 ",
"9 9 i p i p d d g s s ( d s s s d ~ ( ( g d s d u r x H o.w.h.8.,.o.o.,.e.t.t.M.t.t.t.M.M.M.*.! - . . > y p d d d s s s u p s s s p p p s s p i t t 6 p d i 9 9 ",
"9 9 i i p p s s d d d ( d d p s d ~ d s s p p s i $ ; S X.w.N.N.N.k.k.C.Q.).oXXX X`.XXXX@XXXE.O.J D A B r 8 d d g d d s u p p s s s d s s s p d i t p d d i 6 6 ",
"9 9 i p i u i p a s ~ d d d i t s ~ ~ p 9 $ < 8 r e n U $.h.N.C.C.A.G.^._..X#X#X#X+X$X=X:X=X'.t.*.&.*.} B 3 t a d g d p p p p p p p s d g d p d i a d d d i t 6 ",
"9 9 9 p p u u i u s d d d p p u p d d p < @ = % ; B J X.8.j.k.k.N.A.Q._..X`..X.X.X{.&X;X;X=X{.(.W.W.W.r.} N : 8 p g d t p s p t 9 t d d ( d d p a d d d a i t 6 ",
"9 i p a s a s p s p p s d d s a p t 8 y B H J C V G X.8.k.k.h.h.N.S._.oXOX`.`.`.`.+X{.-X-X-X*X&X+X@X@X(.l...B 4 y p s p s s p u y p s s d ( ~ a p i a a a i 9 6 ",
"9 9 p d d s d d s s s s d / d d t 5 > n _ X.X.G C J >.h.N.N.h.h.k.S.).`.#X_._._.`.`.[.$X}.}.-X;X:X=X%X.X~.l.} B r 8 t s p s s s s s s s s ~ ( d p p i i i i i 9 ",
"9 i p p d p d d p ~ d d ( ) / d i $ - A X.8.<.J C G >.k.C.n.j.h.k.S./.`.oX`.`.`._._.`.].{.}.-X-X*X$XoX X.X~.t.' M : 8 p p s ~ ~ ~ d s u p d g g g p p p t i 9 6 ",
"9 9 u p i i p d d ~ ~ ~ ~ ( / ~ s 8 , n _ o.>.T U { 2.k.C.N.j.j.k.V.W.!._.`. X X_._.).|.].{.{.}.&X[.]. X%X@XE.O.M X $ p d ~ d ~ d ~ s s s g g d d g g p t i t 6 ",
"9 9 p u p p p s ~ ( / d ( ( d d p 9 8 r B U [ [  .>.h.N.N.N.k.j.k.m.B.S.!.`.oX`.`._._._.`.].[.{.[.].`.oX%X@XW.*.A X $ p ~ ~ d d ~ d g d d g d p s g g p i i 9 6 ",
"9 p p a d ( s p ~ ^ d d ) ( p u p i d s < n G { ,.h.h.h.k.k.k.k.k.k.j.k.S./.`..X X`._.`.`. X`.`.`.`.`. X#X XM.O.D * < p p a a ~ d d d d g g d p s d s p i i 6 5 ",
"t p p s s s p s d ^ g s d d p s ~ ( d p $ ; F { <.w.9.9.k.n.n.n.k.h.h.j.B.S.!.`. XoXoX.X`. X X|. X.X.X`._.!.m.1.[ B e r 6 i g i p s g g g g d d d d p p a s t 6 ",
"p s d d s s s s d d s u p p d d / ( d 9 # x F { ,.8.5.8.9.k.n.n.n.h.h.h.k.m.S.!.`.]. X`.`.`.`._.`. X.X`.!.S.n.j.2.[ N = # t d t t s d d d g g d d s p p s s i t ",
"s d d g ^ d s d g p t t t u ( ( ~ i u t # b G { &.5.,.,.5.w.k.k.n.k.k.h.h.h.m.S.!.).).).)././.!./.).).Q.Z.n.k.C.N.<.Y w # t a p p s t i s g d p i i p p t i t t ",
"p s d d d s s s d s i p t u d d a p p 8 O x G { &.5.,.,.,.8.9.k.n.N.N.k.h.k.k.B.S.S.S.S.S.S.S.S.S.W.S.Z.N.k.n.C.N.<.Y w # 6 a p p p t y p s s d p p i i t t t t ",
"p p d a s p p p s i p d s s p s a a p q X w G { &.7.<.&.:.,.8.w.k.n.k.k.k.k.k.n.N.B.k.k.m.N.m.n.N.m.N.n.k.n.N.V.n.>.G x # t s d p p p p p p p g g s p p p y t 6 ",
"i i p p p u p s s 9 i f g s p s ~ d d u O = F { =.7.<.,.>.:.,.8.j.k.k.n.n.n.k.k.h.h.j.j.h.h.h.h.h.h.h.h.k.k.n.C.h.$.G ; < t d g d d s s p d d p p s s d d p t 6 ",
"t p i p u i p s t 8 9 s s s p p p s d t O = S ` &.7.<.,.:.>.:.:.1.9.j.k.N.k.k.k.h.h.h.h.h.h.k.h.h.h.h.h.k.k.N.C.n.$.G = # 6 i d g g d s d d p i i i p d d i y t ",
"t t u p p i s s t t t t i p p t t t i y , n I | &.5.<.,.,.,.:.>.<.2.h.k.k.k.k.k.k.k.k.j.k.k.k.k.k.k.k.k.k.k.N.C.k.>.U x # # 6 t d d s d g s i t t i i p s i t $ ",
"t t i s s s d d s t i s s p i t 9 8 $ e N _ #.&.:.<.,.<.:.,.:.>.>.<.8.9.9.9.w.k.n.n.n.k.k.k.k.k.k.k.k.k.n.n.B.C.n.8. .H w , # 6 y t t i g d t y i p p g d t 9 6 ",
"9 p p d s s ~ d s u u g s t t u t $ , v R ;.p.6.<.>.>.:.,.,.:.>.>.,.<.<.<.<.8.w.k.n.n.n.k.k.k.k.k.k.n.k.n.n.n.m.n.w.,.| J M * $ $ t i d g s p p p d d d d i 6 6 ",
"t p d d p s f d u u s d s t t u u $ w F %.x.F.a.<.>.>.,.,.:.,.:.,.,.>.$.&.&.<.8.j.k.k.n.k.k.n.k.n.n.n.n.k.h.j.w.k.h.8.&.{ S = : t i g g g d p s d d s d d t 6 6 ",
"i i p a s d d d s ^ s t p s p u t # ; G %.z.c.q.>.$.>.,.<.>.,.<.,.,.>.:.$.>.,.<.8.w.k.n.N.n.m.n.n.n.n.n.w.8.2.8.8.9.8.&.{ Z = < y p d g g g d p d g p s d p t 6 ",
"p t i p d d d p d ^ d u p p d d t $ ; F ;.v.J.a.5.$.>.,.,.,.,.,.,.,.,.:.:.,.:.,.<.8.w.n.n.k.k.k.n.n.n.j.9.<.<.,.<.8.5.=.{ S = # i d s d ^ ^ g p d g p p d i i i ",
"p p i s d d d p s d d d p i g g s $ ; L ;.J.I.b.0.:.:.:.,.,.,.,.,.,.,.,.,.,.:.$.,.<.8.h.j.w.w.w.9.w.w.9.<.,.$.$.:.<.5.,.{ S = < y g g d g ^ g d d s s p i a i i ",
"t t t d f d d p t p g ) g g g p 8 # 3 P f.Y.R.I.x.7.<.,.>.>.>.:.,.,.,.,.,.,.:.$.&.,.<.8.2.5.8.5.5.8.8.<.<.,.&.$.,.5.5.,. .S = 8 s g d s p s s p s d p p i i a i ",
"i t i d d d d d t s d ( ) ) g p t 6 3 D -.K.T.I.v.0.<.>.>.:.<.,.,.,.,.,.,.,.,.,.,.,.,.,.,.,.,.,.,.,.,.,.,.,.,.>.,.<.,.X.Y C ; u d ^ s ^ s s d s d g s y t a a i ",
"i t i p a d d s s d d s ~ ( ( d d p < e I -.H.J.v.z.<.>.>.>.>.:.,.,.,.,.,.,.,.,.,.:.:.>.$.>.>.>.,.$.$.&.:.,.<.>.>.$.{ Y N e 5 s g d s d d ( ^ ~ ( ~ p t 9 i p i ",
"t i p a d ~ ~ ~ d d s s s s d ~ a ~ t < k L @.u.x.x.6.>.o.>.<.>.,.,.,.,.,.,.,.,.,.,.:.:.:.:.:.:.,.>.,.,.:.,.<.<.>. .U V , y s g g g d d s ^ ( ^ ~ d p u t 9 9 t ",
"9 t p p d ~ ~ ~ ~ d p s p s d s a ) d 8 O w I y.b.L.p.,.>.>.>.>.,.,.,.,.,.,.,.,.,.,.,.,.:.,.,.,.,.,.,.,.>.,.<.8.6.#.G ; > t g g g g g d s g ^ ^ d s p p i t 9 6 ",
"9 t i p a a a d d s p p d ^ d p a ) / 9 o = T f.Y.T.b.q.>.>.$.$.=.=.,.,.,.,.,.,.,.,.,.,.,.,.,.,.,.,.,.,.$.>.7.z.z.&.P = > u ( d g g s s ^ d d ( ~ s s u i i 9 6 ",
"9 9 p a a i d / ~ d s s ^ ( s s f f a q 1 h I H.U.R.I.x.0.<.>.:.,.,.,.,.,.,.,.,.,.,.,.,.:.:.:.,.,.,.,.,.>.<.0.z.s.;.L j 3 p ~ p d g g d g a a d ~ ~ d d p p 9 9 ",
"9 9 q a a p ~ / ^ d s d g d s ^ / d q z k k L @.H.U.U.U.D.s.0.0.5.,.,.,.>.&.>.>.>.>.>.>.>.>.>.>.=.,.,.5.7.q.a.i.4.E S k m z ! p a g g d d d d p / ( d d d i 9 9 ",
"9 9 i p a a ~ / d d d ( ^ s ~ ^ / q q z l k m A @.g.U.R.T.L.z.z.p.0.,.:.$.$.=.$.=.$.>.>.>.$.o.>.$.>.<.q.z.c.p.;.R A m l z ! ! 9 i d a p a d g d d f d d d a 9 6 ",
"9 9 p p p a ! a p s s d s u u s / 9 q z z z l 1 C @.H.U.P.v.s.v.v.d.0.6.,.5.5.5.5.5.5.5.5.7.7.2.5.:.$.:.p.s.3.R V 3 l z ! z ! p p d g d p d d d ( ( d s p p i 8 ",
"t t s s s s d s u u s s s u y s a q 0 0 Q ! 8 + 1 L -.f.y.;.4.g.b.L.x.z.q.a.s.a.a.a.a.a.a.a.z.z.s.:. .R #.%.E S 3 2 q q z q q 9 p s d s p s d g f f d a a i 9 9 ",
"t t p s d d g d s s s s s u p d a q 0 0 z q 0 0 k m L L K P E 4.J.L.F.c.c.c.b.c.b.v.b.b.b.b.F.F.x.3.T V Z F A m 4 0 q q ! q q 9 u i y t s g g d f d a a a a a 9 ",
"t t p d d d s s d d d s s s s s ~ u u q 0 0 0 0 0 l j ; - j F | 6.x.p.i.i.i.i.i.i.i.u.i.i.i.s.z.i.| L h - j k 4 0 q q z z q 9 q u u t y i s d s a a a i a a i 9 ",
"t t p s s s t p g g d p p s s d a ~ a p 0 0 0 l 0 0 2 & X : b L E #.@.] ] ] ] ] ] ] ] +.] ] @.@.] I b 1 : 1 4 0 0 q q q q i 9 8 u u u u t i p p p p 9 9 9 f 9 6 ",
"6 9 i i t t t t t d d p p s s d d d d a 9 q 0 q 0 0 0 2 > 2 2 b v V V V V C V V V V V V V V C C v b k 0 q q q 0 0 Q 0 0 p ~ a 9 8 t u p p p t t i a a d d d 9 9 ",
"y i p p p t u u t s d p p s d d d d d a p q q z q z 0 0 > 0 0 1 3 ; ; - - - ; ; ; ; j 1 - j - - - 1 0 Q Q Q 0 0 0 Q 0 8 p ~ ~ 9 6 t i s s p t t i a d f d p 9 9 ",
"t i a p p i u u u s d d s d d d ~ a a a a a a q l l 0 0 0 0 0 0 2 2 2 2 2 2 2 2 2 2 2 2 2 1 1 1 1 0 Q u u z l l W u 8 y s d ~ 9 t t t s d s t t i p d d d i 9 9 ",
"9 p d i t p 8 9 p ~ / ~ d s u d ( / d a ~ / f q q 0 7 2 2 0 0 0 z q 0 0 0 0 q 0 q q q q l 0 l u 0 0 l l q q 0 q Q u p u p d d a u p d d g d s p d d i i a i 9 9 ",
"9 i i i i i t i a ~ ! d ~ a u s g d d s ^ g s u t 8 < y q 4 l Q Q z q q q q u z z z q z z q Q ! ! z l Q q q i p u t p s p p s d ~ d ( g d d d d d d u p p t 9 9 ",
"9 9 t a d a p s ~ a a d d d s s p s s d d s u t u u t t u u Q ! Q 0 l z z z q z z z z q q z z ! Q l l ! u p d a t t u d s s s ( ( ^ ( g p d g g s s s s p 9 8 9 ",
"9 9 p d g d d p s d d d a a a p p u p p p s s s d p p u t q 0 q q u Q u 9 q q q q q 9 q 0 8 q p q 0 q u u p ~ i t p ~ ~ u p ~ ^ ( d d g ( ^ g d s u p p u 9 9 7 ",
"6 i d d g f a a d d s p i i p s s s u p s s d d ^ ~ ! s p u 9 q q u u p ~ p p i d a a 9 q 9 i q 9 p p i ! a p 9 y u ~ ~ s u s ~ d d d g d ^ ^ s s p u u u y 9 8 ",
"8 9 d f d d d a s p u 8 8 t p d d s p p s s s s ~ ^ s s d d p t t 9 i ~ / a p a f d d p p p p 9 t p d p ~ ~ 8 8 8 p s d p i p a s s d s u s ^ d d s p u u 9 9 9 ",
"9 i d d d d d a s a u 9 9 t s d s u p s s p p p p ~ s ~ d ( d p u i p s a p a d a a p a p ~ ~ 9 8 p d a ~ / a p p s s s p a a a p p s u p ^ ~ s d ( s s i p 9 6 ",
"8 9 a d d a a d a a p u i p s s p t s s s p u p u p s s ~ ( d p p p s u u i a d p i u a a a a 9 t p d d ~ ~ ~ ~ d d p p d d d a p p p p ! ~ ~ s / f d p i u 9 8 ",
"6 9 p a a 9 a d ~ a a a s ~ p p p p s s p u u p u u u s s s s p p d s p u a d d p u u s a ~ ~ a d d ~ ~ s a ~ a s p p p d ~ d d s s s ^ ( s s ( f d p u 9 9 8 6 ",
"8 9 9 a 9 9 f f a a a a d d u p d d d p p p p s p u p p p p u p a a a p i ~ d d u u a a d d f f ( ) g s p u s d d d p p a d d d ^ d ^ ) ( ^ d s s p t t i i 9 5 ",
"9 9 9 i a 9 a f f a a a d ! t s d d d p p i s s p p p p u p p s d a a p i p f f a p a d g g d d ( ( f p p u p s d d d d a a d f ^ g ) ) ( ( ^ s u u u t 9 a 9 8 ",
"9 9 9 a 9 9 9 f d d d a s p p p d s d d s p p p s p i t u p p d / / d p i p ~ f ~ d d f g g a a d d d d a i p i p d a p a f g f g d ^ d s g g d g d s t i i 9 8 ",
"9 9 9 a a 9 9 a a d d a p u p p s d d d s p p i u p s p s s s p d d a p 9 p q d d d d f f d d d f f d p a ~ a p i d p i a f f d d d d p t d g d g g p p 9 9 9 8 ",
"9 9 9 a 9 a a 9 p a a s p u p p p d d p a p i i i t u p s s p t p p p p 9 9 9 a a f d d d d d d d f d i a d ~ 9 t p p p d d d a s d d i t s d d d g p i i t 8 6 ",
"5 9 9 9 9 9 9 9 p p a a p i p i i d s i d a i p i 9 8 9 i p i t p a p p 9 9 9 f d d d a d d p i a a d u p d p p t i u i p p d a s d p p p s d g d s s u 9 9 6 5 ",
"5 6 9 9 9 9 9 9 a p p i p p i u i a d p d a p d p t 9 t u i i u 9 p p i a 9 9 f d d a d s i t t i p p i p a p p p p i i t p d i u s p p p s d d p t u t 8 8 5 + ",
"5 6 9 9 9 9 f f a a 9 9 p ~ p u p p d d a d d d p t p p t i i i p i i i 9 p a f a a p d i 9 9 9 8 i p i p a i p p p p i 9 i p i p s p p d d g s t 8 t 8 8 8 5 + "
};
