/* XPM */
static char *__resized[] = {
/* columns rows colors chars-per-pixel */
"80 80 206 2 ",
"   c #282425",
".  c #2C2D2D",
"X  c #352D26",
"o  c #332F2B",
"O  c #382F29",
"+  c #2D312E",
"@  c #34322D",
"#  c #3C332C",
"$  c #2D2E30",
"%  c #2C3435",
"&  c #2E3936",
"*  c #263538",
"=  c #2A363A",
"-  c #2B3B3C",
";  c #353532",
":  c #3C3633",
">  c #353934",
",  c #3C3C34",
"<  c #363539",
"1  c #393739",
"2  c #323D3B",
"3  c #3A393B",
"4  c #41362E",
"5  c #44382F",
"6  c #423731",
"7  c #453A32",
"8  c #4A3E34",
"9  c #443C3C",
"0  c #493F3C",
"q  c #2F423F",
"w  c #33433D",
"e  c #3B423A",
"r  c #454037",
"t  c #4D4136",
"y  c #46423D",
"u  c #4D423A",
"i  c #514337",
"p  c #53453A",
"a  c #58473B",
"s  c #56483B",
"d  c #5B4B3D",
"f  c #604F3F",
"g  c #61503F",
"h  c #323F40",
"j  c #463E41",
"k  c #483F40",
"l  c #2B4241",
"z  c #28464A",
"x  c #2B494B",
"c  c #3B4142",
"v  c #344A44",
"b  c #3A4847",
"n  c #324649",
"m  c #334C4D",
"M  c #33534C",
"N  c #395349",
"B  c #354D53",
"V  c #2E5757",
"C  c #345552",
"Z  c #335A55",
"A  c #325B5A",
"S  c #385859",
"D  c #35635E",
"F  c #3A665A",
"G  c #39665D",
"H  c #325C61",
"J  c #356463",
"K  c #366963",
"L  c #396B63",
"P  c #366B69",
"I  c #36686A",
"U  c #3D7265",
"Y  c #37746B",
"T  c #3C746B",
"R  c #3E796E",
"E  c #376974",
"W  c #3A7575",
"Q  c #474041",
"!  c #4B4141",
"~  c #514642",
"^  c #5E4E40",
"/  c #5E5041",
"(  c #604F40",
")  c #625141",
"_  c #685644",
"`  c #42695E",
"'  c #446C61",
"]  c #457769",
"[  c #527B6B",
"{  c #447D75",
"}  c #3F857D",
"|  c #438375",
" . c #468A76",
".. c #4F8877",
"X. c #498879",
"o. c #488D7A",
"O. c #4A927C",
"+. c #49947E",
"@. c #3D8388",
"#. c #428C85",
"$. c #448E89",
"%. c #4A9481",
"&. c #4F9D84",
"*. c #46938A",
"=. c #4F9F88",
"-. c #519F85",
";. c #5A9C87",
":. c #4A9C93",
">. c #449499",
",. c #629E87",
"<. c #4FA089",
"1. c #50A186",
"2. c #51A38A",
"3. c #54A98E",
"4. c #5AAB8E",
"5. c #56B18F",
"6. c #4EA594",
"7. c #4FAB9D",
"8. c #55AD92",
"9. c #52AD9B",
"0. c #57B194",
"q. c #5AB594",
"w. c #5CB996",
"e. c #57B29B",
"r. c #58B69D",
"t. c #5DBC99",
"y. c #64A38B",
"u. c #6CAB8F",
"i. c #68AC92",
"p. c #6ABA9B",
"a. c #4494A0",
"s. c #489CAB",
"d. c #4CA7A3",
"f. c #54B4A4",
"g. c #57B9A4",
"h. c #5ABCA5",
"j. c #52B3AA",
"k. c #56B9AC",
"l. c #5ABFAD",
"z. c #59BFB0",
"x. c #5DC39B",
"c. c #61C59D",
"v. c #63C99F",
"b. c #5CC2AC",
"n. c #5CC5B3",
"m. c #5DC8B7",
"M. c #5ECBBB",
"N. c #6CC2A1",
"B. c #64CCA1",
"V. c #69CDA3",
"C. c #77C9A5",
"Z. c #66D1A4",
"A. c #6AD3A6",
"S. c #69D7A8",
"D. c #6BDBAA",
"F. c #72D3A7",
"G. c #72D4A8",
"H. c #7CDBAF",
"J. c #61D0BB",
"K. c #7ADEB0",
"L. c #7BE4B4",
"P. c #5BC9C5",
"I. c #57C3D2",
"U. c #5AC9D9",
"Y. c #61D4CB",
"T. c #63DBD7",
"R. c #62DCE7",
"E. c #67E4E7",
"W. c #66E4EC",
"Q. c #66E5F1",
"!. c #85D3AC",
"~. c #8CD4AE",
"^. c #89D7B3",
"/. c #8CDAB3",
"(. c #84E2B3",
"). c #88E4B6",
"_. c #89EAB9",
"`. c #96E2BC",
"'. c #93EDBD",
"]. c #83F1BE",
"[. c #95F0BF",
"{. c #9AF1BF",
"}. c #ABECBC",
"|. c #A1F3BF",
" X c #AEF6BF",
".X c #B3F8BF",
"XX c #C1FBBF",
"oX c #D4FFBF",
"OX c #99EAC3",
"+X c #96F1C1",
"@X c #9BF3C2",
"#X c #98FAC6",
"$X c #9FFBC9",
"%X c #A3F6C4",
"&X c #A4F7C6",
"*X c #A5FCCC",
"=X c #ACFCC9",
"-X c #BBFAC1",
";X c #B6FACA",
":X c #BEFECA",
">X c #ACF8D3",
",X c #BBFDD4",
"<X c #C4FAC0",
"1X c #CAFEC9",
"2X c #D4FEC3",
"3X c #D6FFC6",
/* pixels */
"# O # # 5 5 5 5 5 5 5 4 5 7 7 4 5 t 5 5 r i 8 8 5 5 5 5 5 4 5 5 8 4 4 4 5 5 5 5 5 7 r 7 7 t i 8 7 t 8 8 5 t t 8 4 X X O 4 5 i t 5 5 8 8 8 8 8 5 8 8 4 4 5 8 4 O ",
"X # # # 5 5 5 t 8 8 5 5 5 7 8 5 7 r 8 5 5 8 8 8 8 5 8 8 7 5 7 8 8 4 4 5 8 8 8 8 7 5 5 5 5 t i i t t i 8 t 7 5 t 8 5 O 4 5 5 5 4 4 8 8 8 8 8 8 8 8 8 4 5 5 8 4 X ",
"X # 5 5 5 t i i i 8 8 5 7 8 8 i t 7 t 7 4 7 i 7 5 8 8 8 t 8 8 8 5 7 8 i a 8 8 8 5 5 5 7 i i i i t i t i i t 5 t a i t 5 t 5 4 O 4 7 i i 8 8 8 f f 8 8 4 5 5 4 4 ",
"5 7 7 7 5 5 t i i 8 8 8 8 8 8 8 8 t t t 5 t i i 8 8 5 5 8 8 7 t 8 8 i a a a a 8 a t 7 i i i i a i t i i i t t r t t i t 5 5 4 O # 4 i i 8 8 8 8 8 8 8 5 5 5 5 4 ",
"5 7 t t 8 8 t t i t 8 8 8 8 8 8 t p i t i p p t 8 8 6 7 i 7 6 7 8 i i p i i 8 i i 8 7 i p p i p a i i a i t r t i 8 i i i 5 O 4 4 5 p a i t t i 8 8 5 8 8 8 4 O ",
"5 8 t t i p t t t i t 8 i i i 8 t a i i a p p t 8 8 u i p 7 6 7 8 8 8 8 8 f a 8 8 6 5 t p i i p a d a a i t 5 t i i i i a i 4 4 5 8 p a i 8 i a 8 8 8 8 8 8 4 X ",
"# 7 i i p a a p p p i 7 i p i i t 8 7 7 i p p p 8 i i i t 8 8 p p i 8 i a a a i 8 8 u 8 i i p a d d d a d a t t a i i d a i i a d a p p i i i p f 8 8 8 8 8 8 4 ",
"5 8 i i a a a p p s t 7 t a i p p 7 6 7 i a p u i p i u t t i s i i 8 i a a a a 8 u i i t i p a a a d d a a i a a a a d i t 5 d f d a p i i p i 8 8 8 8 8 8 8 8 ",
"7 t t p a p i t u u t t t p p p p p t 8 p p a p t u p p i u t p i i 8 a a i a a t t t i i t p a s s p d p p d s i a d a t O O a d p a p t p a r 8 8 7 8 8 i 7 4 ",
"7 r t p p i 8 8 r t p a t p d p u s u u p p s p t i p d s p p i i 8 8 p a i i i t 5 5 t u t p d ) d p t t t d s i a s s t r t 5 i p i t p d p 5 7 t t t 8 8 5 O ",
"5 8 t p i t r 5 8 i p d s p s p i s p p p a p p p i p d d s p a i 8 8 p p i t t t r 7 t i p p d ) d p t t i s p a i a s a a i r 7 i t t a d p r t p i 8 8 5 4 # ",
"5 8 t t t t t t 8 i d d s s p p s s a s a a a p i t t t p d d d i 0 i p t t 7 r t t u u p a a d ) a u t p i s p i a i s s d d i 8 7 t p p a d d d i t t r 7 5 5 ",
"7 8 i i t t r t s s d / s p s s s u t p d ^ p 6 @ % . X 7 p a p p i u p p t t t 7 r p u t t 7 8 t t t t s d f s i p p a p p p p p t p s d p p p p p p t 8 7 5 7 ",
"5 8 i i t t t p d s d ) s p s d s t t p ( ^ u > - l l 2 , 8 u p p i t p p t t a 7 r p p t 7 4 , 7 8 p p d f g d d p a a i t p p p p s d d i i i p d p i 8 8 7 5 ",
"7 8 i p p t s d d d g / d d s p i s a d d p y M U X...' N : # 8 i i 8 t i 7 i p i i p a s p p p ^ s a d a i p d d d d d p p p d p p s a a i p a a p p t 8 t 7 4 ",
"7 8 i p s s d d s d g d d d s p p a f d 8 e N L -.N.C.u.[ v @ : t p u 8 t r 7 8 p a f d d d s s s s s a p p d a a d d d d i t p p t 7 5 7 p p t p p u t 8 i 8 7 ",
"8 8 p p a a a a s d d p s ^ ^ s s s a i @ w D O.c._.[.H.,.C . @ t s 5 r 7 7 # # 8 p d p i t p p p p p s p p d p t s d d d i t t u r 5 # # p s r p d i t 8 i 7 5 ",
"8 8 8 a a p u s ) d p p u u s s p t 8 6 . x R <.V.].#X^.y.S * 4 a s # O @ @ @ X o # , # # # 6 u s p p ^ t r a p s d d d d i t t t p s t 7 p d f d a p t r t 7 4 ",
"7 8 i p a p 0 p / s p s p p p ^ a p t , . l Y +.c.D.L.A.2.Z % 4 i p ; = - = > = = = 2 & - - > 7 p p s s t t p d d s d d s u p t p s p p t d ) ) g d p i i t 5 4 ",
"7 8 i a s p i p s s s p s s p s p p u t @ - Z T +.t.b.t.-.G l , r r q M D D S S D Z A A G D v 3 7 8 t u p p p d d p s s t t t p p p u t s f ) ) d a a p i i 5 4 ",
"8 t p a p i s i r p s p s s p p s p s s t e w v Y %.0.t.5.O.F > X q Z  .1.1.y.u.,.1.y.y.i.y.] b .     # 7 p d d d p p s p t s s s u p d f f g _ d a d d d i 7 4 ",
"7 t i p p i a a s p s d s p p s s s ^ ( d i r & M R +.0.c.w.o.F v Z  .x.K.!./././.~.^./.`.^.i.] x - = 2 , t a d d p s s p p s s p t p s d f f f p r t d f i 8 5 ",
"8 8 u i p s a / g s s ) / p p s ^ ^ ) ) g a t @ q V U +.x.B.x. .]  .x.K.#X$X*X*X*X=X=X:X,X,X/.u.{ ] ] ` b e t a d s s s u p s p a p p s p s p t t r 5 p f 8 8 5 ",
"8 8 i t p p p s d d d ) d s p p s ^ ) d d a r > - z x F +.c.v.5.1.q.F._.#X$X$X$X*X=X:X1X3X2X}.!.p.p.p.,.' w # t d d s s t p p s s s s s s s p d i t p d d i 8 5 ",
"8 8 i p u p u p p a ^ ^ d a p p p ^ i u a a r > - z z Z +.x.Z.v.V.G._.{.$X$X{.[.%X&X<X2X3X2XXX}.`.OXOX!.,.` w 9 p d a p p p p p p p s d f s p d a i d d g i t 5 ",
"8 8 8 p p p u i p p d a d p p p i i 7 6 r a i @ - V Z U +.t.Z.Z.D.(.{.|.%X{.[.[.{.|..XXXoXoX2X1X1X,X>X+X!.y.` 3 e s p i p p p t r t d f f f d p a a d g i i t 5 ",
"8 i p d d p p s ~ p p p p d d p t 6 ; % 7 i t @ q K  .3.x.v.x.Z.S.L.'.|.*X{.[.[.'.@X{..XXXoX3X2X1X;X=X+X+X!.,.` v , 8 p s s s u u u s s d g f p a i i a a i t 5 ",
"8 8 i d a s d d s s s s d f d i r w M C w 7 7 + M  .q.x.D.Z.v.x.V.G.(.'.{.{.{.{.{.+X'.{..XXXoXoX<X-X%X#X*XOX!...M + 4 p s a a s s s p p p f g f a i i i i a t 5 ",
"8 i i p a a d d p f d d ) ) p 6 e F  .o.N > + q U <.v.D.D.Z.x.x.v.A.G.(.[.{.{.%X{.'.'.+X|. X.X-X-X X|.@X>X>X^.;.m . # p p s ^ ^ / d p u s d g g d s s t t i t 5 ",
"8 8 i i i p p a d g / s / ) t ; l | 3.5.} M x D O.w.c.Z.Z.B.v.v.c.v.v.F.K.'.{.@X{.{.+X'.{.|.|.%X{.{.@X@X*X%X!...C % # p a ^ a ^ d / / s s g g d d g f a t i t 5 ",
"8 8 p u p p p p f ) g d ) f t ; w U 1.5.o.U U  .<.w.t.x.B.v.B.B.v.x.x.v.G.(.[.{.@X@X@X@X+X+X+X+X+X@X@X@X@X[.C.;.L w > t p a ^ a d d d d d g f i d d g p t i t 5 ",
"8 p s s ^ ^ s s f / f d ) ) 8 # > N ' O.O.+.%.<.3.0.8.q.p.B.B.B.v.c.c.v.v.F.(.'.@X%X%X%X@X@X@X@X@X@X%X@X'.(.v.w.1.G v > 6 i ^ ^ d d f f g d s i s d d p i i 5 4 ",
"t p s s s ^ s s d f f s d d t p p y v Z T +.2.8.3.2.2.3.q.c.B.B.v.v.v.c.c.v.F.(.[.[.{.[.[.'.'.'.'.{.[._.H.F.B.B.x.+.G q + 8 d p p d g g g f d d d d s s a a t 4 ",
"p s s d s s p s f f p t p p d ) f p # & Z { =.<.=.2.=.2.3.q.x.v.v.Z.v.v.x.x.Z.G.(.).(.(.(.(.(.(.(.).).(.A.B.B.S.S.5.U z + 7 d t t s s d d f d d d a a i a a i t ",
"p d d f / s s d f i t t r t g ) d u 7 , > Z R +.=.8.2.1.1.8.q.x.Z.Z.v.v.c.c.v.A.G.G.G.G.F.F.F.F.F.F.F.A.B.B.B.S.B.5.U l ; 8 a p p s t t s d d s i t p t t i i t ",
"p d d d d s p d d p i p t p d d p p t 5 . q D  .=.8.8.1.=.1.3.q.c.v.v.v.v.v.v.v.v.v.v.x.c.v.v.v.v.v.v.v.v.B.B.S.B.+.G q @ 8 a p s s r r p s d d s d p t i i t 5 ",
"p p a a p p p p s a a a s p p p d d p t . = A R =.0.3.=.<.<.2.8.q.c.v.B.Z.Z.v.c.x.x.x.x.x.x.x.x.x.x.x.x.x.B.S.S.v.1.K - ; 7 a d p i p p p p p g d d s p r p t 5 ",
"i i a p p p p p p r t g f d p s d d d t . h D | =.8.3.2.<.<.<.2.3.q.c.v.Z.v.v.v.v.v.c.v.x.v.c.v.v.c.v.v.v.B.B.S.v.&.K q ; t d ) g g s s s d s p i s d d s i t r ",
"t u i p i t i a i 7 r a s p p p s p s t o l J | =.8.3.2.2.2.1.<.1.3.w.x.c.c.c.v.v.v.v.v.v.v.v.v.v.v.v.v.v.B.S.D.v.1.L q @ 4 i a d g d d d d s i t i s s s i r 5 ",
"i t u p p i a a i t r i p p p u t t p t @ h J | =.8.3.2.2.2.2.1.1.3.5.4.4.4.w.c.Z.v.Z.v.v.v.v.v.v.v.v.v.v.B.S.S.v.1.L - + @ 7 p s g s s g s p r t i t s s i r r ",
"t t i p d s d d s t u s s s t t r p p r > l D  .1.8.3.2.2.2.2.2.1.2.2.2.2.2.8.w.c.B.B.B.v.v.v.v.v.c.v.v.v.v.Z.S.v.1.K q + : t r r t r p g s t r t i d d d i 5 5 ",
"t i p d s s f f p t s d s t t t p p s u > w D | -.3.2.2.2.2.2.2.2.2.1.=.=.=.2.8.t.c.c.B.Z.B.B.V.v.A.v.v.c.t.x.x.t.+.D l ; 7 p r r r p g g d s t s d d d d i 5 5 ",
"t p d d p p f s u u s d s t r t s d / s : l D | =.3.3.2.2.2.2.2.2.2.1.=.=.<.2.2.8.w.c.V.B.B.B.B.A.Z.Z.v.t.q.0.0.3.o.D l : 5 i a r s g _ g s d s d d d d d t 8 5 ",
"i p p p s d d d s / s t p s p p p d d s # l D  .2.e.3.2.2.2.2.2.2.2.2.2.2.2.<.=.2.8.w.c.v.c.c.x.c.c.c.t.0.3.<.3.1.| D - > r d p p p s g g g d i d g i s d i t 5 ",
"p p p p d d s d d / d p t a d d d d f d @ l P *.9.h.8.2.1.2.2.2.2.2.2.2.2.2.<.<.1.3.0.q.w.w.q.q.q.w.w.4.3.3.<.<.+.} V l > t s a s d d d / ) d s d d s s a i i t ",
"t t p s d d a a s d d d p i f f d d f p @ l P :.k.n.e.1.1.1.2.2.2.2.2.2.2.2.2.<.1.2.3.3.3.3.3.3.3.3.3.3.3.<.3.3.+.} A q # r s s d g d d d / g s d d s s p i i i ",
"t t p s f d d a t p f _ g g f p i d g p @ l T d.M.J.e.1.-.1.2.2.2.2.2.2.2.2.2.<.2.2.<.<.<.<.=.<.<.<.1.1.<.<.0.r.x.&.K l @ t d g / / d d s s s p d d s r i a p i ",
"i t t a d d f p t s d ) _ _ f a t f g p X l W 7.M.J.e.1.-.1.2.2.2.2.2.2.2.2.2.2.2.1.<.<.=.=.=.=.=.<.<.<.<.<.0.b.b.6.P q @ r d _ _ / d s s d d s d d s t i a a p ",
"i i t p a d d s s d d p ^ ) ) d ^ ( ^ u X l I :.k.n.e.2.1.1.1.2.2.2.2.2.2.2.2.2.2.2.2.2.2.2.1.2.1.1.2.1.1.1.0.n.n.:.I h ; 8 ^ ) ) d s s d / ^ d ) ) s t 8 p i i ",
"t t p d d ( ( ^ d a s s p d / d ^ ) a 7 6 c S { *.7.9.8.3.1.1.1.2.2.2.2.2.2.2.2.2.2.2.2.2.2.2.2.2.2.2.2.1.<.<.6.:.W S h 6 i ) ) ) g g d d / ) ^ ( a p u t t t 8 ",
"t t i p d ^ ^ ( ( s s s s s d s s ( ^ 8 u y b B L $.9.g.f.3.-.-.1.2.2.2.2.2.2.2.2.2.2.2.2.2.2.2.2.2.2.2.3.<.+.} P S b 0 u a ) ) g ) f d s f / / d s p u i 7 8 7 ",
"t t i p p s a d ^ s p p s d d p s _ ( a d ~ h $ n W j.P.M.r.1.1.1.2.2.2.2.2.2.2.2.2.2.2.2.2.2.2.2.1.1.3.0.8.+.D x h j ~ ^ ) ) a g g s s / d f / ^ s p p i i t 5 ",
"8 t i s p i d ( / d p p / / s s f f a a ^ k 9 . x @.I.R.T.z.3.-.=.1.1.1.2.2.2.2.2.2.2.2.2.2.2.2.2.<.-.2.h.b.6.T z % 1 p ~ ^ a a d g f d d d d d ^ / d a p p 8 7 ",
"8 8 u s s s f ( d d s / / f s / f f 8 0 0 k 9 $ x @.I.Q.W.P.f.4.1.=.1.2.2.1.2.2.1.2.2.2.2.2.2.2.1.<.1.8.b.n.7.W x % 9 0 u ~ s p a f f d d d p a g ) d ^ a p 8 8 ",
"8 8 t p s a ^ ( / d d / d s / / ) 0 k ~ k k 9 ; m { s.U.R.R.Y.b.8.<.1.1.1.1.1.1.1.1.1.2.1.1.1.<.1.3.8.f.l.f.#.K n 3 9 ! ~ ~ ! u i d a a d d d d d d d d d a t 7 ",
"8 8 i p p p a ~ p s d d s p u s f 0 0 k k k 0 9 h B E a.U.R.E.Y.g.3.1.<.&.=.1.-.1.=.-.=.1.1.+.&.1.r.b.l.7.#.J m h j 0 ! ! ! ! i a d d d a d d f ) ) d a s p t 5 ",
"r t s s s s d s p p s s s u t p a 0 9 9 k k 0 0 9 h h I s.U.Q.R.P.g.0.<.<.3.3.3.3.3.<.3.3.6.<.3.3.h.l.j.$.K h 3 k 0 k ! k k 0 i p s d d p s d d g f d a p i i 8 ",
"5 t s s d d g d p p s s s p p s a 8 0 j k k 0 9 0 9 $ h E s.I.R.E.Y.m.h.r.h.h.g.h.h.h.h.h.h.h.h.h.k.7.#.J n 1 7 0 0 0 0 ! k 9 9 t t r r a f f d f d a a f a i 8 ",
"t t p d d d s s d d s s s s s d f 8 0 k j 9 9 9 0 0 6 < n I a.I.W.W.Y.n.b.n.n.n.n.n.n.n.n.n.M.M.n.7.#.S n h 0 0 0 9 0 k k 0 7 7 t u r r i d d d a a i i i f i 7 ",
"t t s s s s t p g / d p p s s s f f 0 8 9 9 9 9 k 0 9 9 $ h E s.U.R.P.l.f.k.k.k.k.k.k.b.k.k.n.n.j.#.A 2 1 0 ~ 0 9 0 0 k k 0 0 7 t u p p t t p i a i 8 8 i a i 5 ",
"t t i i t t u u u d ^ p p s ^ s 0 f 8 8 0 0 k k 0 0 0 6 ; < n E a.d.>.$.@.@.@.%.@.@.*.@.*.@.*.*.#.I n 1 9 0 u 9 9 ! 0 9 k p p 8 7 t p p p p i r i a a d d a i 7 ",
"7 t a i p t t t t s s s p s s ^ f f f a 8 0 k k k 0 9 9 : 1 h B H J A A Z A A A A A A A A V H H Z m c 0 0 0 0 9 0 ! 9 3 p a a 8 7 t u p s p t t i a d f d p i 7 ",
"t i a p p i t u u s a a a a s ^ f 0 a a 0 k k k j j j 6 1 8 9 < * * * * = = - * = = = = * * * * = 3 9 y y k 9 j j ! 9 6 p d ^ u 7 t p a d p p t p p d d a i t 8 ",
"7 a d t t t 8 t s d ( ^ ^ s u s ( f f a f f 0 0 j h j j 9 : 9 9 < < < > 1 1 2 2 3 < 3 3 3 3 2 3 3 9 0 0 0 j j Q ! y 0 t p a a s i p d d / d p i d d i i p i 8 8 ",
"t i a i t p t t s ^ ^ ^ ^ s u s d f d a / d u t 9 9 3 9 0 0 0 ! j 9 9 9 9 9 0 0 9 0 9 0 9 9 j 0 k 0 0 k k 0 ! ~ y 8 u u p p s a ^ d ) f d d d d d d u p p t 8 8 ",
"t 7 t a a a a a ^ s p s a a s s p p s d d s u r 7 y 7 9 y y ! ~ ! 0 0 k k 0 k k k k 0 k 0 0 0 ~ ~ j k ~ 0 0 p 0 8 r p ^ p p s ) ) ) ) f p d f f d s p p p t 8 r ",
"7 t i d f d s a ^ a d d a s s p p u p p s s s s s y u t 0 j j j k ! ! ! k ~ 0 ! k k k 0 0 9 k ~ k k j ! 0 i a i 8 u d / ~ p ^ ( ( d f f / / / d p p p p u t 7 6 ",
"8 i a d f f a a a a s p i i s s s p p p p s d d ^ ^ s p t 8 9 9 0 0 y ! ~ 0 0 0 ~ k 0 9 9 0 0 8 9 0 k 0 u p p 8 7 p / / p p s ^ d a d f f / f d s p u u u t 7 7 ",
"8 i d g d d s a a s u 7 8 t p d d s s p s s s p d ) s p s p 8 0 7 9 7 p ~ p 0 8 a a 0 0 8 0 8 9 7 0 p 0 a s 8 7 r p d d p p p a s s d s u d / d d s p u u 0 8 8 ",
"8 i d d d d a d a p i 8 7 u s d s p p p s s p p p d ~ ^ d ^ s t 8 u i p p 8 a p a 0 p i a a p 8 6 i a s ( ( s p p p p p p a a a p p s u p d / p d ) s p i i 8 7 ",
"5 t a d a a a d ^ s p u p p a a p u p s p p p u p p s s ^ ) ^ i p s s i i i a ^ a i i s a f a 8 8 a d d ^ ^ ^ ^ d d p p s d d a p s p p ~ / / s f f a p i i 8 7 ",
"4 7 i p a i a d d a p s d a p p p p p s p u p p p u p s a ~ p p s a a i i s d d p 0 i s d d a d d f d ^ s s ^ s a p u p ^ / d d s s s g ) s s / ) d p u 8 8 7 5 ",
"7 8 8 a i 8 f a f a a d d d u p d d d i p p p s p u p p p p u i a a a p i ~ d d p u s a d d d g g ) g d p p s a a a s p a d d d / d ) _ ) / d d s p t t i i 8 5 ",
"8 8 i p i i a f a a a a d s t p d f d a p p p s p p p p u p p p a d a p p a d ( s p s d g g f d f ) f p i i p s ^ d d a a a d g d / ) _ / g / s p t u t 8 i 8 5 ",
"8 8 8 i 8 8 8 a d d d a p ~ p p s s s d s p a i p p p p u p a d ( ( d p p i a ( d a d f g g d a a f f a a p p p a d a p p f g g d d / d s g g d d d s t i p 8 5 ",
"8 8 i a p p 8 p a d d a p u p p s s d d s p p t u i p p s s a p d d a p i i s d f d d d f d d a f f d p a d a p i a p p a f g d d g d s t d g d g g p p i 8 8 7 ",
"5 8 a i p 8 8 p p a s s p u p p p d p d d i i i t t t p s p p t p a p i 8 8 8 p d d f a d a a d a f a p a d ^ 8 t i p p a d d a d d s p r d f s g d a p i t 7 5 ",
"4 8 8 8 8 8 8 i p p s s p i i p p d p p d a i a i t 7 7 i p p t i p p p 8 8 p a d d d a d d a i a a a u s a s i u i t u p p d a s d a t i a f d d d p i 8 8 5 4 ",
"4 5 8 5 8 8 p i a p p i p s i i i a p d d a p d p t t t t i i i i p p i p 8 p f d a d a a p t t i p p i p s p p p i i i i i a i p s p p s d d d p t u t 7 7 4 O ",
"4 4 8 8 8 8 a f a a i 7 s a p u i a d d d a d d p t p p t t p p i p i 8 i i a f a a a d a 5 t r 7 i p p p s i p a p p p t i a i p s p p s d d d r 7 t 7 7 7 4 O "
};
