/* XPM */
static char *_93eead4_e970_4396_962c_b277910db6d7_103_resized[] = {
/* columns rows colors chars-per-pixel */
"80 80 23 1 ",
"  c #352D26",
". c #372F28",
"X c #382F29",
"o c #3D332C",
"O c #41362E",
"+ c #44382F",
"@ c #423730",
"# c #463A31",
"$ c #4A3E34",
"% c #4D4136",
"& c #4E4238",
"* c #514337",
"= c #53453A",
"- c #58473B",
"; c #56483C",
": c #5B4B3D",
"> c #604F3F",
", c #61503F",
"< c #5E4E40",
"1 c #5F5041",
"2 c #604F40",
"3 c #625141",
"4 c #685644",
/* pixels */
"o.XoOO+++$+O++#+@%#@%&$$#+++OO+##+OOO#++@#%+$$*$$$%+%+%+o  .O+*%##$$#$$$$$OO+++X",
".ooo++%+$$++++$##$##@$*########$#++$$$$$@++++%**$%%*+%%%%+oo+++O+$$$$$$$$$+++$+X",
".o#@+%***$$+##$*$$$$o#*$+$$$&$$$##$$$$$$$+@#%****%*%%%+%=-%O%+O.o#**$$$-$>#++++X",
"o@$#++%**$$$$$$$$&$$#%=$$$+#$$#$$$*=>>$$=%#&=*==****%%%%*%%%+OoooO*-$$$$$$#++++O",
"#$%%$$%%*%%$$*$$$;*&=$-&$$@$$#@$$$$>-$$$=$@*=**=-**-*%%%*+***+ooo@==%%%*$$$#$#OO",
"+#&&*=*%%%%$**$$*;**<-=$$$$=;#o#$$$$$>>$$@@&=**=-::-*%+%-***-*OO#*=-*%*=>$$$$$O ",
"O+&*=--===*#*-*==###$-*$$**=&$$=>$$$$>>$$$=$**=-:::---%*-*---*%----=***;$$$$$$$+",
"O%**=--*=;%+%-*=$$@$$-<$=*=$$&=;>$$$>$>-$$==$*=----::-**--:-*$$:,--=****$$$$$$$$",
"+%&&**%%%&&%%*====$$=;;=$====$&=$$--==;=*%&=*$;-;==:=;:;*-::%..=:===*=;&%%##%%#o",
"+%&;;%%%$&*=&*:=&;&&=;<$$$;-<===$$$$===&$#@$&&=:2:=&%*--*-;;%%%+%;*%*:*+#%%%%%Oo",
"+$%*&&%o#%;:;=:=&;;=;;;*<=-<<=;*$$$>=&$$&#@&=&=<4:=%%*;**-*=*:*%#*%%=:-+%&%%+#Oo",
"+$%%%&%%%=:::====--;;;-<<<;=-<--$$<$&$$$&&&===;12;&%*=;=*=;;::=%%@%;==:,:&%%%#@+",
"+$**%%%&=;:1;*::<$&=<<-<-<;=;<;;<$$<<#$&@%&&&$##$$%=-:,;=*;-====&%=;:=*;==*&%##+",
"#$**%%%&:::3:&:=;$&;2<-$$;==;&&=--$<-$$<##=&%$@o#$*-:,3:;=--*&==;=;;:=&*=:=&#%#O",
"+$*;=&:::::1::=&$;->22<=&$&;<#$$$$$$$#$&&%&=<=&=<;;:;*-::::-;==::*--=*=-;=*&#%$O",
"+%&===::::,:::;;-->222<<=&$=;&$&<$$=$$$$=<<<;;;;;;;-*=:;=:::;=%=*%$++==$=;&%%%$+",
"$$*==-:;;::=;:=;;-<;-<<;-=$&=&&=:*%&&&##*:3,:::===;;==:=%;::-*%%&%ooo=;#=-&%%%++",
"$$*-:=&=1:;=&&<;;$%$$----;=&&%*;::%*;&&&=:3,:;;:;==:&$;==:::-;%%&=;=#=11::=%%%#O",
"#$*=;=$=1:====<<;*$$$*=-;;;*&=;;::%&=;===:,:::;;-=;:&$=:::::=&&&=;==&;13,-==%%+O",
"#$*=====;;;=;;&=;*===*;==<;;=<:;::&&=;===;,-:::=*=;;;*;::=;;&%&===&&=133:-;==*+O",
"$$*;===*%=;=;===<$;<<<=&;<2:*-:;=:==;;;=;;;;:,:=*$*<==:::==;=&=:=&=;,,,4:=:::=+o",
"$$=;==;;==;:<;=;-<<2<<:;:<<-&;-::=:::::-,:;;:1;;;*=2<;-::=;===;;=%=;:,,:=%%-:*$+",
"$$***;<<:;;3<&;;<<222::<<<<==&=::=::,::,1:;;:1;;<-=2:--:::=;==;;*;;*=:*&%%o;>*$+",
"$$**=**=:::2<;=;-<<:2:::<<;;<===::::::,311;:::1:<$$-*=<<::<=&*==;:;;;;;;*%=::*$+",
"$$$-=$=$==<<::*&-<<---<-<;:;=;==:::;;:,33:;;::13:==&$=<<:3:=**;*&=;:::;;*;-,:*%O",
"$$$-=&$<=<--:-=&&<:;-------*%::=:,;=;;131;&=*:43::;=&=3<:2:==;;$%%:,,::=---,-*+%",
"$$=-;;-;<&==--;-=--;<-<&&==;:<2-::-:,:131;==:::;;;;:;<4<=:;==<;&%&;::,,;=**-**%O",
"$$--:;;:$<;;:2:-=-$*$<$<<=&;<2<;-:=:,1::;;==&::;<;:<<14:;::=&=;<=;==;,,,;=**-*%+",
"$*=;;;:-<<:-242<-;$$=$$<<$<=<<;&==%&=<;=%%&&*:<2<<:<433:;<<;==<<::;&=:,,,;****%O",
"$$&&**=;=<<<222<<--$<$$<<<$&;-<;;;&&=====&&;:::2<<:<32::-;==<<<<::::;,,::,,=**%%",
"$==&===;<2<-22<<-=<<<<$<<&$&;<<:<;;==&;;;;;<2:;-<;-<:::<<==;-<-<::::,,:=:,,=%%%+",
"=$==<<;;<<<<44&$$<-2<<<<=$&=;<:=;;;:;=;<:::4,--*;<<;==:;==;-;--<:,:,,:;*;::=%%+.",
"&=;;=<=;:3:;::==<<<<42:<1:;::-;;;=;----;:;:1,%#%;:;==&==&;:=%;,*=:,,,::::;=;;;%%",
"=;;:;;=:::;&==:<33;;<<:<<3<<<-=;==-----;;=;,=%#%;=&;==&&*&=*&*:&&;;:,,,::;==;;*%",
"=-:,<:;:>=%%$=33<===;;===;22::-=*=<:-;--&&=:::;=&&=;;==;*=;:::;=;=%&;::;%%=&%%%%",
"--::;;=-:=&=%=::;=&=*&=;;::::::-;<-<-&=*=;:::;:;=;;&&=:;=*;:-;=;=&$&=;;:;;=&%%%%",
"=--;===;-==::===;;;&&&&;::::<::<:::::&&&;::,:;;;=;;===1;=;-:;:::;=====;:,;==&&%+",
"**===&==;$*>::=:<;<;&&=;=:::<-;;=;;;;=&=:::,::11,:::;,1,;:::3::<::;;=::==;:;;*%%",
"%**==%==&#$=;====;;;=&=;==:3<;;-=&&;<==<::,331,:,1,,;;1:;*=:=**:,,,;;:=&%;;;;*%+",
"*&&==*;;*%%%&==&$&*;====;=;:---<=&&;:;<;::,443::111;:,,;=%=:%##&;,;;,;&%%%%;;*%o",
"%%=;;;::;&&;;=&%%&&&<<<&=<<;;-<==&**=,:;:,3411,1441;111:;:,:=&&%%#%;,;&&**:::%%+",
"%=--;;::=&=,;%%%&<<=11<<==&;;;===;=&&;:;::,1,:,13331111;:1,:;=%%#%=:,;=&;;:::*++",
"%=:-;;,:&&;:;%#&<<<<13<<;-==;=$&=::*%=&;;;::;;,11,11,:11::;=;;==&&,4::;;:::::%++",
"%====:::=<;%=:==%<<<11334<=&;*$&=:==&&&;:1:,:,,1::;&;111:;&%;:;=;;;,3,:=,:*;:*%+",
"*&*=-:--:1:&*;:-::11<;<12<<-;=%&-:;;=%=;<1111:<<:1,=1111;;==:::=;:;;11:;:,;;-**$",
"==*;::-;;:::*=,,,:13;=%=<;<<:=&==::<<=;=;131:&=<1333111&%:,1::;;:,::,1,;:;;=-***",
"*&*::::-%=<44,,=%:11<<&===;=;;:===::;::;<<;:;;:<11141&%%&111;;1111,;;;;=;;=&*--*",
"*&*-::,;&;:334,*&,11;<&<;;===;;=-;;;;1::11;;;;1<;::1;%@&;11:;;144::;;:;;,:;%$---",
"%%*=-<----<=<33<:31;===;1:;;=&&:<=<=;:,:1<&<=<1;=:::=&&&;<:::::44:;;:1<<2<=%$==*",
"%**--<<<<-===;<;13;&:=&:331<;;;1<<<=:<3:<<<&=11<=;:;=&<<1;::-:143,::;,3<2:=*%$$$",
"$%=;<<<2<-=<;::;;3;=1;=:3331=;:3<<<<143<<;<&<<1;;;:::;:,1,:,::11,3,:::11<;=&*$$#",
"$%*=<$<2<;=&;::==43,1,:1:341&=,3<<<14431<&=&<&;<;;:333,,11,3443:,,;::,<1:;;=**$+",
"$%=;;=$21;==<1;;11,:1111433;&;:1<:<1311;&;&;=;:11=&:334,22:>>34:,,::::::<<::=*$$",
"$$$;-=<<1:::1:;131:,:<1133;&=:1,:<;<1:=;<&&&=;<11=&1,,33:::::43:::,:::=;<3:::=$$",
"$$**==<<:::1::<13;:1<:<11;&&=3411<=<:=;:<<<&;:3,::13113,>:::242-;:;*::,:<:::--$#",
"$$*;=<-<;=;<;&&;1;==<:<1:====;:;=;=<1;;1;<&;:;::;1343133>::2::2:;:,:;:::22::;=$#",
"$%=;;;:;&=;;;&%&;=&%<<<;;;;;=&=&=;::::;,:&&:,;;;;;:;::,,:::2::::;;<;&;:,>>:-=-$$",
"#%;:::<:==;;;=&:1=<<<&&<::;;;==:;=:==::;&%%;,:;:,=%%&;,,;-=::-%&=&#%=,::>:----=$",
"%%=-::;;,:;;=;;<::::&&&=;,;===;:;==%%:;=&&%;:,::;;&%=:3,*=:::=*&&&%%&::;--**--*$",
"%%=;;;%=,,;==;;;::,:&%&=;;=&&;**:;%#*:;&&&&=::,,;;=&:11:*-::::;&%&&&&&==-=$$*>$@",
"$%**&%&%&:-===;:::,:;&==;;&%%%%%--*%*:=*:;;;;;&=;&=;,::==,*%:<:%%%&====#*=-:-:*#",
"$%=**&&%$=<-=<;<;:::;;,;::&%%%%%::--;-*=:;;;;&&&&;;<::;&;,=%:3:$#%&=;=%%*-:>:;$$",
"%*;==*&$&;-;<--<::;;:,1,;;=%%%--::::-=:;;:;;;=&&&;<;;;==;:=&;,:&#%&;:;&%=;::;&$$",
"$=:*&&$$;<<<<;&;31:;:1,,;%%%%%-:::-==;;;:;;::=<;;;<=;:=::,;&;:-;==-:<:;=--*==&$$",
"$*-**=%%=<<<<-$<<<--<<$$<$&<$&<<<==$<=--;--<<-<<<;<<&=-<:;;&&;=<::,,;:::;;&==$$$",
"$$$---;;<&&-<--<$<$<<<$<$<o<<<<<<&<<<;--<-;-;;-<<=<3<<<-=&;<;&<33<4,;:,:<;;;=$$$",
"$$=::>-;<<<<=<<$$$<$<&<<<<$##<<&<<<<;-<<<-;=$;<<<=<<<;<$&&<<=&<11::,133:===&&$$@",
"#*-:,>-=&<$<$$$<<<$<$<&<<<<<<<<o===<<<<;<<<===-<=<<&-<-$#&<<<&=<:;:,,1::;=&&&$$#",
"#*:>::--<$$$$$$<<=$<$<<$<<$<<<<o$==<2<;-<2<&=--$$<<-<<#@#=::===-;;<:&;1;:;=&&$$$",
"$*:::>--<$$$$$<-<$<$<&$<#<<<<<<<&&=<;=-<-;<;-<-$#$<-<<<&=;;==---=;&&&11;<2:==*$#",
"#$-----:&<<$$<<=$&<<$<$#&<&<<<<o=;;&$=---&&&-<$$$;-<<<<<::==:::-==&&<1<;22<;&&$+",
"O$=:=*-:<<&$<<==<$$<<$&<&@<o<<<<;-;&$<<:=$&<-<<<<<-<<=<-=;==::::<;;<1;;12-*$$$$O",
"##$-=$>>-:--<&$&:::=&==;<##<&#<#-;;=$<<-=$-:::>>22>==&;::-=---::;,1131::=&&%$*$+",
"$$$=-$->----<&$<>::=====$<<<$<$<----=-<<<=;:22::242=&&=;:::---:>1114311==&&%=-$#",
"$$$-$$$-:::-$<<$;;;:;;;=&&&o&@<<<<-=$=<<<-->4>:-->>--=-$-:-=->,>,:11=,,,::;&=$$#",
"$$$--$$>-::-<&$<;-::;==&&<<&<<<$<<--=$=-<-:>::-::>:=-<-=*-==->>::::;%:,:,,;*$$$#",
"#$-$>$$$=--:**==;<-;<&$&$@$<<<@$=-==$$$$-::--:-->><*;:<$%*==;::-;:-*$-,;,:;**$#@",
"+$$$$$$--=;:=*=$*-;*&<&=<<o$o<<&=--$$$->-<>-::==--;&;--=*%&*==:-;--==-:,::;=$$@O",
"O+$$#$$$-==$;=$<*-;;&&$<$$o$o<@&-$-=-$$>>:--;=*$$=;*=;====***=-==-==;:::=&=$$#@X",
"O+$##$>>-=$$=<=$*--:<<<<$<<$<$#<$-$$-$->-:$:=$$$$***=-$-===*$*=**;==:::=$@$#@#@X"
};
