/* XPM */
static char *_81671255_stone_wall_seamless_pattern_with_green_leaves_and_liana_brunches_vector_cartoon_gray_masonry_4_resized[] = {
/* columns rows colors chars-per-pixel */
"80 80 256 2 ",
"   c #291C0B",
".  c #2B1D18",
"X  c #19380B",
"o  c #262A0C",
"O  c #2C2D11",
"+  c #342414",
"@  c #3B2B15",
"#  c #352818",
"$  c #3B2D1B",
"%  c #3A3818",
"&  c #392C22",
"*  c #3E3223",
"=  c #3C3729",
"-  c #383131",
";  c #433118",
":  c #43331C",
">  c #433D1B",
",  c #49381B",
"<  c #433423",
"1  c #4A3624",
"2  c #453A24",
"3  c #4B3B24",
"4  c #42352A",
"5  c #47342C",
"6  c #453A2C",
"7  c #4A3D2C",
"8  c #513D23",
"9  c #523C29",
"0  c #453C33",
"q  c #4B3C32",
"w  c #483A37",
"e  c #1D480A",
"r  c #38470D",
"t  c #29570B",
"y  c #365B0C",
"u  c #2A4A11",
"i  c #3A4716",
"p  c #385816",
"a  c #2C6509",
"s  c #37690A",
"d  c #3C7408",
"f  c #3A6616",
"g  c #3D7112",
"h  c #3A4625",
"j  c #3C5428",
"k  c #3F6625",
"l  c #484C0C",
"z  c #45580B",
"x  c #464819",
"c  c #534A19",
"v  c #475717",
"b  c #565916",
"n  c #645F1B",
"m  c #46690C",
"M  c #586A0C",
"N  c #45790C",
"B  c #55750B",
"V  c #476818",
"C  c #586818",
"Z  c #497617",
"A  c #577916",
"S  c #647A0A",
"D  c #686C14",
"F  c #667817",
"G  c #474826",
"H  c #4C422C",
"J  c #554224",
"K  c #5B4525",
"L  c #564A26",
"P  c #54432C",
"I  c #5A452B",
"U  c #5D492C",
"Y  c #495826",
"T  c #545728",
"R  c #4C4234",
"E  c #474638",
"W  c #4C453B",
"Q  c #524533",
"!  c #564934",
"~  c #5B4B33",
"^  c #52453A",
"/  c #544A3C",
"(  c #5B4D3B",
")  c #4A5536",
"_  c #575837",
"`  c #5C513D",
"'  c #634926",
"]  c #634C2C",
"[  c #68542C",
"{  c #73562D",
"}  c #634D35",
"|  c #645234",
" . c #6B5432",
".. c #64533B",
"X. c #69593B",
"o. c #755A34",
"O. c #765B37",
"+. c #496726",
"@. c #556827",
"#. c #4B7326",
"$. c #577727",
"%. c #4D6733",
"&. c #586837",
"*. c #597637",
"=. c #686628",
"-. c #687A27",
";. c #777727",
":. c #646A39",
">. c #7C6139",
",. c #667637",
"<. c #747431",
"1. c #473A43",
"2. c #4C4545",
"3. c #4D4944",
"4. c #574B43",
"5. c #544D43",
"6. c #534D4B",
"7. c #4D5344",
"8. c #5B5243",
"9. c #585847",
"0. c #55524B",
"q. c #5A544B",
"w. c #554C52",
"e. c #5B5552",
"r. c #5D5A53",
"t. c #5B5958",
"y. c #635443",
"u. c #645846",
"i. c #6B5B43",
"p. c #645A4B",
"a. c #6B5D4A",
"s. c #705B47",
"d. c #655955",
"f. c #635C54",
"g. c #625E5B",
"h. c #5B6746",
"j. c #5D6D4B",
"k. c #67674A",
"l. c #756449",
"z. c #667549",
"x. c #757A48",
"c. c #646255",
"v. c #6B6354",
"b. c #696C57",
"n. c #64625C",
"m. c #6A645C",
"M. c #726454",
"N. c #766A57",
"B. c #746B5C",
"V. c #6C7658",
"C. c #77775B",
"Z. c #5A5362",
"A. c #655D62",
"S. c #656461",
"D. c #696563",
"F. c #6C6A65",
"G. c #6B646B",
"H. c #6E6C6A",
"J. c #756864",
"K. c #726D64",
"L. c #726E6B",
"P. c #6D7461",
"I. c #747364",
"U. c #7B7264",
"Y. c #777A65",
"T. c #75726D",
"R. c #79746C",
"E. c #7C7A6C",
"W. c #6D6773",
"Q. c #756D73",
"!. c #767371",
"~. c #797672",
"^. c #7D7A75",
"/. c #7A7578",
"(. c #7E7B79",
"). c #817F11",
"_. c #847B2E",
"`. c #84663B",
"'. c #846A46",
"]. c #84724F",
"[. c #857458",
"{. c #837866",
"}. c #837B6C",
"|. c #837D74",
" X c #85787B",
".X c #817D7A",
"XX c #4F860D",
"oX c #568514",
"OX c #6B870A",
"+X c #738A0B",
"@X c #6E910F",
"#X c #7B970B",
"$X c #6A8616",
"%X c #768917",
"&X c #7B9517",
"*X c #7DA109",
"=X c #5A822A",
"-X c #6D872F",
";X c #788827",
":X c #798539",
">X c #6A8348",
",X c #798646",
"<X c #778559",
"1X c #7B8467",
"2X c #7E896D",
"3X c #889116",
"4X c #869A18",
"5X c #959B1B",
"6X c #A29E1F",
"7X c #8AA614",
"8X c #90A911",
"9X c #A7AD1B",
"0X c #8A922D",
"qX c #979A27",
"wX c #96A428",
"eX c #ABB029",
"rX c #C0C829",
"tX c #8F924F",
"yX c #848558",
"uX c #A5A459",
"iX c #888867",
"pX c #838276",
"aX c #84817D",
"sX c #8A857D",
"dX c #8B8978",
"fX c #948A79",
"gX c #8E9571",
"hX c #97997A",
"jX c #7C7782",
"kX c #847C83",
"lX c #858381",
"zX c #898682",
"xX c #8C8A85",
"cX c #898489",
"vX c #8E8C89",
"bX c #958B85",
"nX c #928C84",
"mX c #918E8A",
"MX c #908D8F",
"NX c #999687",
"BX c #95928D",
"VX c #959392",
"CX c #999692",
"ZX c #989695",
"AX c #9C9995",
"SX c #9E9C9A",
"DX c #A1988A",
"FX c #A19B92",
"GX c #A19D9B",
"HX c #A4A495",
"JX c #A3A19C",
"KX c #A19FA0",
"LX c #AAA7A4",
"PX c #B0ACAE",
"IX c #B3B1AD",
"UX c #B7B5B3",
/* pixels */
"0.3.W U ~ v.AXLXCXzX.X.XS.8.U U u.(.aX(.sXsX2X(..X(.^.^.^.~.f.* 4 7 P B.NXCXaXL.v.B.].6XqXyX|. XR.k.} ' [ { U m.(.2X X.XR.R.~.(.D.0.4 ; ' ( f.H.F.n.t.e.r.r.f.f.",
"Q Q ! ] [ l.pXmXzX^.~.^.n.8.U J ( (.lX^.^.^.~.~.~.~.^.^.T.S.5.< Q f.U.nXGXSXBXpXC.b.x.;.$X,.z.Y.C.I.B.a.i. .{ i.S.!.<Xx.~./.L.g.3.4 q y.M.y./ W W E E R R q 7 Q ",
"U U ]  .{ o.v.T.~.T.L.T.r./ ] , R R.(.T.L.L.L.L.H.H.!.T.n.3.0 7 v.nXLXIXJXVXNXnX<Xz.h.) f s oX=XV.^.kX.XD.u.{ U Q z.-.$XT.Q.f.0 + + / T.kXv.2 +     + @ @ @ : 3 ",
"I.a.| o.`.'.M.F.~.T.T.F.0.Q ] K 8 5.g.F.L.L.T.!.T.T.D.n.5.* 2 v.sXJXJXAX2Xz.z.b.R.T.m.q.Y d d *.Y..X(.^.T.f.H , L &X+XC k.h.b v v Y @.&.*.z.T   + ; @ : Q v.K.K.",
".XL.p. .{ `.N.K.~.T.F.r.R P l.i.` W W 7.0.0.e.q.q.4.W 0 < $ < h.<XgXvX1Xz.h.h.F.~.^.L.L.b.*.*.V.pXaX^.T.T.F.8.W b 3XOXM G i i &.V.<X<Xx.h.h.T , ; , Q _ N.dXcXlX",
"^.!.D.! [ `.l.U.^.!.n.3.3 | Y.P.c.8.H # $ * * < * * ; $ : : 2 p g =XP.k.k.G./..X.X.X.XsX.X/.kXcXmXzX~.T.T.!.~.A._ $XS z O O 0 /.VXGXCXcX!.2.G @.x 3 x.<XiXAXMX2X",
"~.~.L.n.i.{ X.N.pX(.F.8.~ X.<Xz.*.n./ , ; ; , , I i.M.m.p.5 > Z g g ,.b.L.~..X.X.X.X.X.X.X.X XaXsX X!.L.T.T.T.W.c.A l ; H c.(.VXZXVXlX(.!.t./ V M F F <.yXBXxX^.",
"T.R.!.!.d. .[ N.aXT.c.9.! Y j.oX+.w.y.] ` ..k.l.C.}..XaX^.0.L A d k :.K./.^..X.X.X.X.X.X.X^.^..X/.V.b.H.T.T.!.I.k.v % q m.nXGXZXvXkX2X(.I.k.+.s B S S ;XiXdXaX^.",
"F.F.T.~.m.( ] [.lXh.Y h.w i Z XXf - } '.{.sXCXCXBXvX^.^.zXL.h.V a f D.Q.~.~.^.^.^.^.^.^.^.~.T.~.L.*.$.L.Q.!.^.C.&.O 2 M.xXAXVXxXaX^.zXdXz.Z d d m M F 1XcX(.^.(.",
"T.T.T.~.g.! ' l.aXj.+.V 2 % s s y @ K O.s.sXPXSXBXzX^.(..X!.e.= y V m.Q.~.~.R.R.T.L.F.H.L.L.Q.V.-Xg +.L.W.L.yX&.% + q.vXGXCXzXaX^.^.BX1XZ d N XXC :.1XaXkX(.(.(.",
"T.T.T.~.v.Q ' M.2Xz.f t % x f #.&.! |  .' [.SXVXzX.X.XI.k.T.n.= x v 8.g.S.D.F.m.A.e.0.0.6.q.w.&.Z s p q.f.k.&.h o @ v.SXAXvX^.^.^.^.NX2X#.+.V N &.U.kXcX.X.X2X(.",
"T.T.T.~.d.Q ' s.jXz.s e X G z.pXmXxXK.y.{ s.~.~.~.T.Q.j.Z V.V.+.x , : 0 3.q.e.0.3.E = & $ < 5 x s s v ; v y o % c @ f.nXzX.X^.^.~.(.xXlXH.w.= X k.fX.X^.|.^.~.~.",
"T.T.T.^.m.P 8 X.,X-.m y m $.z.gXLXCX.Xv. .~ 2.e.e.0.Z.&.d Z =X0XqX;.8 9 ] 9 2 2 G H 7 v i < ] =.Z V v # % % > [ [ @ ^ L.T.!.~.~.~.^.^..X Xg.0 o k.gXtXyXQ.~.(.^.",
"n.f.f.c.8.P c F 4X3XA g N Z =XgXLXAXlXL.X.I 1 q E q w ) N a oXeXeX5X]  . .I U ~ @.Y G g V [ _.;XoX#.Y p * 1 ' o.{ ; 1 2.q.f.m.D.F.T.T.R.~.g.E @ &.tXeX0Xc.F.F.m.",
"4 = * * < 1 M +X8X8X@Xs a g >XgXGXSXBX.Xv.i. .I K 9 9 c A s B 6X5X;.O.s.N.U.nXvXV.#.s t oXeXwX;X#.$.=X#.%.| ] { o.{ , + # = W W 3.e.m.F.F.q.q 8 i S eX0X*.+.Y ) ",
"V v ~ ( ! , c b b $X$.j %.j.gXvXvXxXzXzX.XB.p.M.B.N.M.M._ p p b c [ {.bXFXBXAXGXpX*.t e F eXwXoXt s Z #.V.B...{ '.hX|.r.q.R 2 ! P 4 R W q = ; , > b 3XF V Z Z Z ",
"N ,.[.}.B.( 1 +   l v 2.A.cXVXbX.X.X.XzXmX~.S.(.cXaXlX!.d.G % + + ( MXPXIXSXAXCXgX-.y t A 9X0X+.e f +.*.E.!.p.] l.LXLXcX~.9.2 ] K , R ` ^ 7 7 P L b M m s XXB N ",
"G b.CXGXBX~.4.$   r x W L.xX.X.X.X(..XpX.X!.H.(..X|.~.L.A._ x > @ ` BXGXAXAXMXdXwX4X+Xm S #Xc.t.j.b.I.~.!.!.F.y....XxX.XD.0.W ] ' ] dXSXZXzX(.R.x.;XM B Z N m v ",
"| {.LXSXmX.XL.8.1 % r P M..X|.^.^..X^..XxX^.b.~.~.!.T.!.H.` G x > 8.BXAXBXxXzXpX,X;X#X#X4X%X0.Z.^.zXlX(.T.L.H.9.T v.T.T.e.R 6 i. .U pXLXLXSXVXmXiXtXS :.j.j._ L ",
"s.}.AXvXlX.X.X!.q.G > K 4.A..X^.~.^.~..XmX1Xh.F.T.T.T.~.T.4.2 x x 8.xXBXxX^.^.(.G.z.&X7XwX,.) q.E.sX.XH.T.T.b.#.V ( d.m.E < 6 B.a., U.mXBXBXVXNXxXyXF z.W.Q.g.( ",
"` B.lXaX.X^.~.R.K.q.) Y 2 w /./.T.T.L.H.!.j.%.z.C.T.I.V.F.y.G G % R T..X(.~.!.T.H.L.P.b.m.F.z.*.) 7.t.A.W.I.=XN f P d.e.& / R.~.4.: B.cXzXaX.XaXaX1X<Xb.D.L.f./ ",
"! ( f.T.^.!.L.F.D.e.E % i v 7.h.t.e.e.e.w.&.Z A j.S.j.%.6.^ H v > < W q.f.r.r.q.0.w.w.2.w.0._ Y h h E _ r.&.N d v I y.6.+ ( 2X~.8.2 m.aXpX^.~.^.(.(.^.T.!.^.f.W ",
"J 3 = r.D.F.n.e.6.W &   m XXs j W 0 R 0 0 Y oXd Y 3.V p = 5 J C x @ # 4 0 0 0 4 = = - = 0 0 w w / _ b c p p s y v U y.5.; Q D.S.5.7 p.T.~.T.T.T.T.T.L.T.T.T.q.q ",
"K K J * 0 6.W = $ + % z XXXXXXm r r l x > C oXs O . u f +.] =.&Xb q 8.8.8.Q 7 , 9  .o.| y.a.c.M.B.l.:.Z V p O i K | ] P < 4 E = < , ! 8.e.g.S.n.r.0.3.q 0 = < : ",
"i.| ] K 9 R < $ 2 7 P v y y $.@._ &._ T G v V t p G p s A 3X3X#Xx. X.XR.J.v.p.u.p.>.'.].iXbXbXiXV.*.V g m m p % 1 P J 3 x H / 5./ U 3 2 2 R W R 0 0 W W ^ ^ Q Q ",
"R.N.>.>.{ K 8 ~ a.R.m.Y   . 5.T.sX.XQ.S.r.7.) j *.>XV m @X7X4X;XnXPXGXmXsX.XsXaXF.l.'.fXHXUXPXNX>Xk a f V $.,.G O @ : 2 T k.Y.pXU.p.7 : : $ # + 2 ( d.U.pX|.K.m.",
"^.!.K.l.O.o. .[.JXcXL.c.7 1 d.CXUXLXZXMXvXzX.XY.P.r.p m 4XOX-.tXHXLXGXxX(.2XaX(.S.u.`.}.DXGXGXAXdX1XV.,.b.P.1XV.Y o o _ fXAXnXsXK.5.: ! F./ % H {.CXxXnXnXdXR.D.",
"~.^.!.b.s.O.].bXIXvXT.F... .N.FXUXLXGXCXCXCXmXzX!.A.E @.+XC ,.DXHXCXnX.X(.(.^.!.A.} { }.mXBXmXbXvXcXpX{.~.!.P.C.z.i o G JXPXCXaXn./ 1 p.zXm.R R xXIXAXAXCXaXT.F.",
"T.T.~.Q.q.] |.FXBXlXT.n.`  .N.sXAXCXmXaX(.^..X.X(.~.D._ V T U.GXAXzX^.^..X.X^.L.S.( [ |.vXvX.X^.2X(.(..X XP.#.) e.$.u % nXLXvX^.g./ y.U.lX~.8.: U.JXCXCXmX.X~.R.",
"T.T.H.H.8.I }.BXvX2X!.S.X. .B.sXCXsXkX2X^.~.^.^..X^.G.7.% L C.AXvX^..X^.(.(.^.!.D.y.{ B.^.aX^.^./.!.L.~.E.z.a Y 7.e.= % iXNXaXL.q.W B.|.aX~.4.+ F.SXAXnX.X.X^.~.",
"T.T.L.F.8.P U.zX.X^.!.F.X.o.M.|.zX^.^.aX^.^.^..X^.T.H.7.u G M.mXzX^.^..X^.R.~.L.t...[ i.m.!.~.~.~.T.T.T.iXj.e y :.:.Y V ,XgX/.L.6.2 U.pXP.T.6.+ f.vXBXzX(.(.~.T.",
"K.T.T.F.8.J B.^.!.!.H.n.l.O. .k.D.D.R.aX.X.X.X^.T.F.G.k.p G y.(.aXpX~.~.~.T.H.g.E 9 { { i.F.F.F.F.T.T.~.<X*.X f %X7X7X4X:XY.~.!.4.* M.C.$.V.e.$ W K.(.aX2X^.T.T.",
"~.~.F.t.Q 8 4.q.6.W 0 0 U o.{ | Q 8.K..X^.^.^.~./.H.j.Y x c y.^.(.!.H.T.R.^.n.3.3 8.N.o.| ..W w W W 2.W W G u Z OXB +X4Xx.L.!.!.8.: d.:.f h.q.6 2 / 2X(.~.~.T.T.",
"L.m.9.R P I ! ^ ^ R 6 2 ~ O.>.] 3 ! m./.!.L.T.P.P.b.&.Y 2 J ~ f.n.n.D.L.!.^.q.E ~ U.aXv.] K 2 < 0 = 4 0 = % p M F M -.<.L.Q.T.L.8., O.&.t Y *.=.r G m.F.m.F.T.!.",
"e.W $ 9 X.N.a.k.N.U.U.U.B.B.m.i.] U p.F.S.A.t.j.#.@.k.f.R U P < 6 6.n.m.D.F.E H R.vXaXL.q.K ]  .M.M.M.J.:.V t V F 5XyXW.Q.^.~.g.( 9 <.@.e V &X7XZ p 0 w 3.e.S.L.",
"H 7 ~ {.nXFXNXfXfXnXbXnXpX^.!.yX_.~ W ) &.G h 2 i G R w = J  .v.u.( / R 6 0 $ * k.E.aX~.v.! | N.fXBXbX^.*.N Z V F 9XqXC.m.S.S.e.q K =.@.t @X7X#XB i # $ : 7 R ^ ",
", | {.JXIXIXLXGXBXBXBXmXaX/.jXuXqX .G i v z l ; 4 5 < $ : J l.CX{...J , 7 H 2 7 9 u.F.H.f.q } {.LXLXGXkX%.s C v b 3X3X;._ / / ) G L =.F oX4X7XOX=X&.R q J 3 3 : ",
"J M.BXLXLXVXvXaX(..X.X.X(.Q.Q.tXwX_.T v , n _.| 4.4.8.! U ..U.zX~.p.[ >.pXvX^.f.] 8 0 3.w : ] {.LXVXvX.Xj.i : 1 J v p x x c c l b C F 0X9X+XB @XtXNXvX(.T.F.p.~ ",
"c N.VXKXAXlXaX^.^..X.X^./.Q.W.0X9XwX3XF S 0XhXpX|.}.R.v.! 2 Q m.t.e.o.fXLXJXxXT.a...R 2 2 3  .[.VXxXaX.Xc.E I v.E.1XP.j.k._ T h.z.x.5X9X9X3Xm y %.P.vXvX(.~.v...",
"' v.dXNXfX.X^.^.(.lXdX.X XW.A.0X9XqXqX5X9XuXIXLXGXAXzXT.0.& + 7 W ( i.DXUXCXpXI.!.U.k.P 8 [ o.[.cXaX(.^.S.9.O.fXPXUXLXVXlXH.t./.cXsXeX9X6XF V u e k 1X2X^.~.v._ ",
"K d.pXeXuXkXjX^.^.vXBX(.^.Q.G.tX3Xb T :.hXHXFXAXAXCX^.T.T.n.R @ $ P N.NXJXnXV.j.1XlX~.c...o.>.].aXlX2X~.t.8. .fXUXSXVXBXxX^.H.!.xXNXE.c.! % Y >X=X#.z.1X.X!.f.( ",
"K y.C.eXeXxX.X/.~.2X1XP.V.c.h.z.,.% < p.CXGXBXCXBXzXT.R.aX^.r.2 $ P N.sXmX1X$.#.Y.kX(.D.a.o.l.C.(.(./.T.S.4.] |.KXcXzXzXzX^.!./.(.lX/.t.= O v tX<X>X1XR.~.T.p./ ",
"] ! 8.5XeXyXT.H.P.b.j.h.&.&.%.h.) & 4 p.nXSXCXmXzX^.~.^.^.~.m.W 2 J k.U.E.,.g g T. X!.F.p. .l.B.L.F.D.F.t.5.] M.(./.~.~.!.L.F.L.H.H.~.t.0 v A <.pXkX.X^.T.F.r.^ ",
"] I J b T &.9.h.r.h.c.r.c.g.9.h # 1 9 i.vXAXmXsX.X.X^..X(.~.c.R < x +.x.<X$.N V V./.^.!.v.] X.8.6.2.6.3.- R { } e.n.S.t.w.j.,.#.*.&.t.6.h V B %XC.jX~.^.!.D.5.2 ",
"| ....R G G T / 5.3.W 1.1.1.0 q ! [ J ( mXZXaX X.X.X.XaX2XL.e.6 : i y $.;X$XN f g.D.D.S.0.Q U U q R P H 1 I `.[ P R R q Q +.Z N s p :.-.M b M OX,.n.L.F.f.3.7 1 ",
"..k.Y.S...U 7 0 W = * & # . + i.yX;Xb 9 mXBX^.^.^..XaXaX~.F.e.H 3 x t oX7X#Xm p 3.3.E E 0 7 ] ] U ] ] ]  .o.o.o.] 8 1 c v V f g y y OX8X7Xn c S b T r.6.0 + : I ",
"..C.gX2Xf.1 $ : , $ v +XS b =.N.<X7XM 8 aXMX.Xz.z.(..X.X!.H.e.4 Q ) s *X8XS z r i x > > 1 ~ N.R.v.7 3 a.U.v.8 i.}.{.U.U.I.v.9.:.&.%.@X*X7XS b > , , $ #     ; , ",
"| U.FXvXL.u._ ( P , n 7X8X4X0X:X,X7XS L ^.lXV.=X$.T.aX.XH.T.p.= d.B.V F 4X+XS @.&._ ~ P J U B.T.g.2 ~ |.lXg.@ v.FXJXCXxXzXQ.d.s.i.Y -X;X0X3X<.( ( ( Q 7 2 < 1 3 ",
"P {.IXnXaXlXsX~.n.y.[ B 8X9X$X#X8X7XM c |.I.%.XXZ b.sXlXT.T.f.4 J.|.P G n 5X6XtXdXlXR.v.| K Q 2.W Q v.AXxXr.$ I.IXPXBXsXaXF.q.u.T L Y.dXtXtXiXdXpX^.^.R.F.m.` P ",
"P U.JXdX.XaX^.H.g.O.>.l.0X-.Y $X8X*Xz : ^.<XN d V z.^.lX~..Xm.0 R y...&.,.tXqXtXfXlX^.^.U.p.H , 1 p.E.lX(.e.# E.UXJXBXaX^.n.5.G | {.SXLXHXNXNXCXxX2X^.(.^.T.p.( ",
"~ B.AXaX^.^.L.S.e. .'.BXpXV.6.<.&XS l < J.>XXXd V :.V.E.E.T.n.R : , | x.iXhXgXiXzX(.~.aX^.T.` J 8 a.R.T.n.W # }.UXAXzX^.!.m.` x k.CXLXLXKXSXVXCXzX^.~.^.^.T.f.4.",
"! B.vXaX~.T.!.n.2.U [.UXPXNX.XQ.r.j x T y.:.oXXXV &.:.,.k.q.2.R 9 J z C.HXFXCXBXlXaX~.^..X^.~.v.] [ a.S.w @ 7 {.JXBXzX^.~.m.4.v z.ZXZXCXZXBXzXlXpX^..X^.R.T.e.Q ",
"Q k..X^.~.T./.S.R U [.PXJXBXaX~.H.S.9.E G x x v G > > % i h x G ( _ v C.ZXMXcXkXaX^.^.xXcXaX(.F.u.O. .R + $ v.nXSXsX.X.X~.g.^ x x.SXVXxXsXaXaXaX.X.X.X~.T.L.r.q ",
"7 / f.D.F.T.P.e.2 U N.BXxX^.^.!.!.(.F.7.G % G ~ P 2 < * % i v Y ` _ v b.cXlX.X.X^.^.^.vXcX2X~.H.f.l. .: @ P pXCXBX.X^.|.(.v.~ c k.VXvXlX^.^.^.^..X.X^.~.T.K.9.R ",
", , 1 q 8.z.*.Y $ ! N.~.!.F.F.G.G.n.n.t.7.X.'.].[.M.M.l.v...8.r.&.V v h./..XpX^.^.^..X.XaXsX^.H.n.X.o.] P p.vXvX.X^.^.~..Xx.F n k.lXlX.X(.aXaX^..X.X~.T.L.D.4.6 ",
"p.u._ v +.k p i 3 ~ p.q.2.5._ &.%.G 6 0 7 I O.fXNXnXpX|.}.U.K.H.0.E v <.tX~./.^.~.~.~.~.(.aX^.!.n.|  .M.! ( !.T.D.L.W.L.,X;X%X%X-X%.j.V.T.!.~.R.~.^.lXV.&.e./ 3 ",
"(.P.&.g a a i H ~ ~ Q 7 = * i f y O & < ; : ~ pXVXvXlX.X(.(.^.T.t.3.D 4XqX[.I.T.L.K.G.L.L.L.!.L.A.~ } L.~ x 8.q.0.0.w.u.3X#XOX&XoXs m @.r.D.T.T.!.~.pX*.p = ^ y.",
"jXj.p t t +.v.D.f.7 ; 1 v s X p +.- w.F.Q , G n.S.t.g.n.D.S.n.t.c.x.6X3X3XeX0Xz.b.t.w.6.6.q.f.t.6.I ~ y.@.v < w - + . l 4X#XC m V Z Z i * 0.F.T.~.Y.>X=Xp   4.xX",
"j.&.-.$X-.%.k.k.&.G * @ C $XA %X:X_ n.F.q x v ! ^ ^ ~ ( R P q 9 =.).3X3X).M x h h Y G Y T L q 5 6 1 L _ Z f 3 ! 8./ ! _ <.-.V y p C Y G @ 6 8.F.W.b.=XN p . 3.V.",
"@.<.qXrXqXY %.*.&.) h i F 9XeXeXqXx.m.g.H p A b K ' [ K 3 P K } >._.>.0X;.$ . . o r z v v c : @ : 1 L @.m f u.a.{.fXdX^.A.k.#.a p _ ( Q 3 ; = 3.w.) XXN +.) _ $.",
"F.Y.tXeX5X=.N.D.e.= x %XqXwXwXtXR.R.L.r.p d XX&.X.C =.k.C.fXNXfXfXfXiX}.U.f.4.7 + % 3 2 = h p C [ ^ ! oXs f Q..XfXIXLXBXbXiX>Xs #.T.e...{ ' ; + # > N oX&X4X&X&X",
"~.^.}.0X;.=.M.H.S.H c +X4X5X;X:.h.k.g.e.Z d d +.v p Z ,.Y.CXJXFXCXVXmXlX/.^.B.5.+ 1 d.|.L.r.j._ ) :.&.g a +.1X<X1XJXGXmXcXsX<X#.j./.t.y.`.N.v.5.^ R p S 7X8X4X:X",
"!.L.S.2.P [ 8.t.n.T M M $X:Xk.&.V %.7.7.oXXXg y e X y +.r..XBXmXBXnXxXsXaXaX!.e.+ q pXIXLXzXD.7.j &.$.d V *.:X$.*.pXlX^.^.kX(.z.z.^.t.` >.dXVXcXL._ i M +XS ,.B.",
"!.S.6.7 U l.U 2 H [ ;.+XS ,.pX^.F.9._ Y A XXXXp i y o & 0.0.n.aXzXaXaX^.~.^.~.t.# 6 I.CXVXT.z.#.%.) %.$X5X5X-.Z $.2XkX.X^..X^.T.R.^.D.` [ U.cX~.7.= r % @ o 6 r.",
"q.5.R U p.I.k.! 7  ._.4X,.b.dXcX/.S.r._ x v z p x G $ & 0 7 ! m.F.L.F.D.F.F.D.q.# 6 B.2X(.D.$.Z Z p k #.wX4Xm f *..X.X~.^.|.^.L..XmXG.) v b.D.2.h i c 5.1.. * ^ ",
"< 2 J | v.R.L.m.y. .`.wX<XH.aX~.L.L.L.f.5 ; > p Y 8.8./ 1 9 P 0 6.d.0.q.e.e.6.R $ H p.G.D.n.h.+.f a t h F F t j z.^.!.L.T.T.~.F.lXAXG.) p _ 3.& r b c..X2X8.P I ",
"m.y.] >.X.4.3.^ ] { l.pX^.R.!.T.T.T.L.n.9 K y.m.&.$.pXlXQ.f.2.7 5 1 , 7 H < $ @ + + $ 6 ^ q.L.P.*.%.h O Y &.h 9.H.T.!.!.R.~.^.~..XlXA.E y p v F T f.SXSXkXR.T.K.",
"!.v.| >.o.P ! ! [ [ O.S.H.T.T.T.R.~.L.r.c l.bXmXY.z.<XdXgX,X<.[ b b y.M.M.y.4.( ( ^ 6 # 7 d./.2XP.m.2.. G %.- 6.t.r.t.t.g.S.S.D.K.D.e.j a Z %XqXx.!.HXdXT.aXaXlX",
"T.f...{ o.X.N.l.X.] U Q 0.n.H.T.T.!.D.9.8 {.UXLXcXF.&.$X0X8X8X#X#X0XMXKXKXBXvXvXnXvXF.* 7 U.T.L.!.F.4.. v Y 0 w w W E w W W 3.3.5.6.3.h y 4XeXqXgXgX<Xj.c.(.aX~.",
"T.m.8. .].sXsXU.u.M.a...~ Q 5.6.7.W - 6 s.fXIXJXmX/.h.@.OXOXOX+XC N.LXSX2X>XdXKXSXBXT.4 7 d.e.0.6.w q ' C @.( ( ] | ~ ' I K I P P P & % f 4X9X%X#.k Z &.n.2X^.T.",
"L.f./ ] [.SXmX!.g.p...~ U I R R 0 7 1 8 v.sXAXmXbXkXh.f B C M F G 3.dX2X-X#.1XVXmXsXF.0 3 ..! W R < 9  .@.@.M.y.}  .O.l.l.l.l.s.k.y.q $ x $X;XA a t #.k.Q.(.^.T.",
"S.q.R K N.BXxX(.D.7 ; 8 ..k.a.` ~ a.>.o.q.D.pXaXkX^.+.a f ) _ +.i i k oXoXZ z.jX~.!.F.E P |  .| | ] }  .v Y G.q.q X.[.lXfXnXVXVXxX.XF.4.+ Y $.f Z #.r.R.aX~.~.~.",
"6.W 3 | {.VXzX(.D.7 1 U.pX|.B.! U |.[.X.} p.T.(..X~.k s Z / 2.G 3 v A d y _ H.2X^.~.F.W u.pXE.B.8.X.s.J.) i R y.m.lXNXhXCXAXVXmXcXaX~.6.O Y &.7.h.b.G.H.H.F.n.t.",
"R H J a.}.mX.X^.H.2 ^ BXVXcXH.Q ~ lX^.i. .y.f.F./.L.#.N Z ) w } ( =.F N V j.!.2XaX^.K.W d.BXaXn.^ M.{.P.j r > X.[.fXhXhXCXCXxXpX.X.XQ.7.% H / 6.w.t.q.6.5.8./ W ",
"I U ] M.R..X^.T.F.H R pXaX!.S.( ~ !.Q.n.k. .] 0.A.D.*.Z Y 4 q '.B.f.c %X7X&X:X!.aX(.K.W y.U.F.E :  XNXZ d m z.:.-.$X;X<XpX.X(.^..XlXG.9.v % . * * * & # $ : 3 3 ",
"a.X...X.N.L.g.r.5.* H m.F.r.W Q P / ^ ! ~ ' ' ] Q P L b p 8 ' '.y.w @ M *X7X&X:XT./.L./ ( k.Q E p.cX2Xg XXoX-.$X$X#X=.r.G.G.S.t.c.j.&.#.V m x x 2 U ` u.` ( ..X.",
"B.M.p.| u.q.^ 0 4 $ < ^ / W * H ~ P P U ( i.l.O. .I } _ Y T o.`.K < 1 b S S 3X#Xk.n.n.w R ~ J 8.|.lXF.j N oXOXOX#X$XT w 8.9.4.7.) Y v f s XXA v T M.}.dX}.J.B.U.",
"T.L.n.~ 8 % , , 8 , , ; @ : I | l.E.sXxXdXxXnXsXpX XsX.XB.M.N.l.] | B.9.c M M F A T w & 1 ] X.k.~.~.D.9.Y m OX#X+Xr u y v V C &._ / O % g d d Z z.R.pXsXaXR.!.R.",
"^.Q.n.~ J ( M.C.U.U.B.p./ H U X.C.CXAXVXmXvXvXvXxXvXvXzX.XR.J.f...X.K.8.q X.T c c > 4 =.3X_.X.6.q.q.6.3.G x @.<.,Xh.9.h.z.V.V.V.V.f.9 , Y @.h.j.V.^..X^.~.~.~.~.",
"^.T.n.U } N.nXGXJXJXAXxXF.8.U X.{.AXAXxXlXlX.X.XsXaX.X.XaX.XF.0.y.l.D.4.^ B.y.< < & J 6XrX6X( - q 6 = W R Q 9 A.(. X X XcXMXVXxX(.T.i.I 1 f.L./.(.(.~.T.I.~.~.~."
};
