/* XPM */
static char *__resized[] = {
/* columns rows colors chars-per-pixel */
"80 80 211 2 ",
"   c #233D1D",
".  c #243E2B",
"X  c #223836",
"o  c #253E3B",
"O  c #24431E",
"+  c #27491F",
"@  c #2A4D1D",
"#  c #2F5316",
"$  c #2E521D",
"%  c #30561E",
"&  c #335C1D",
"*  c #36621D",
"=  c #39661D",
"-  c #3C6D1D",
";  c #3F711E",
":  c #254423",
">  c #284623",
",  c #2A4B25",
"<  c #26432A",
"1  c #2B442B",
"2  c #2B4A2B",
"3  c #344F27",
"4  c #314C2C",
"5  c #2E5323",
"6  c #2D532B",
"7  c #325524",
"8  c #335C23",
"9  c #395C27",
"0  c #35552B",
"q  c #355A2B",
"w  c #395C2C",
"e  c #2B4432",
"r  c #2C4B32",
"t  c #26413B",
"y  c #2B4539",
"u  c #2B4C3B",
"i  c #314D31",
"p  c #2D5235",
"a  c #2D543B",
"s  c #355434",
"d  c #355A37",
"f  c #366124",
"g  c #3A6324",
"h  c #3D6C22",
"j  c #35612B",
"k  c #3D642C",
"l  c #3F692A",
"z  c #3F7220",
"x  c #3F6431",
"c  c #356138",
"v  c #41751F",
"b  c #43781F",
"n  c #406E27",
"m  c #40672E",
"M  c #416A2C",
"N  c #417620",
"B  c #457C21",
"V  c #447429",
"C  c #406631",
"Z  c #416A31",
"A  c #274944",
"S  c #294B43",
"D  c #2A4C4A",
"F  c #2D5244",
"G  c #2E584B",
"H  c #325541",
"J  c #335A44",
"K  c #325B4D",
"L  c #2E5653",
"P  c #2E5B58",
"I  c #305450",
"U  c #315C54",
"Y  c #315F5D",
"T  c #36634C",
"R  c #336454",
"E  c #32625C",
"W  c #396A58",
"Q  c #3A725C",
"!  c #355F63",
"~  c #336461",
"^  c #386B64",
"/  c #366B6A",
"(  c #397166",
")  c #3A726C",
"_  c #3E7A6B",
"`  c #397674",
"'  c #3C7B77",
"]  c #416B50",
"[  c #406C5B",
"{  c #437369",
"}  c #417E6C",
"|  c #447C72",
" . c #478022",
".. c #498423",
"X. c #4C8924",
"o. c #3C806C",
"O. c #3E8077",
"+. c #3E827B",
"@. c #438373",
"#. c #488677",
"$. c #458A76",
"%. c #4D8872",
"&. c #488E7C",
"*. c #4B927B",
"=. c #3C7E86",
"-. c #3D8089",
";. c #428882",
":. c #428F88",
">. c #4B9583",
",. c #4E9D84",
"<. c #45958B",
"1. c #45968C",
"2. c #4F9F88",
"3. c #509F85",
"4. c #589A84",
"5. c #428795",
"6. c #499D94",
"7. c #619E85",
"8. c #4FA087",
"9. c #4FA088",
"0. c #50A086",
"q. c #51A38A",
"w. c #54AA8D",
"e. c #59AB8E",
"r. c #58B18E",
"t. c #4CA399",
"y. c #4CA39A",
"u. c #54AB92",
"i. c #53AD9C",
"p. c #57B092",
"a. c #59B393",
"s. c #5CBA97",
"d. c #56B39C",
"f. c #58B69D",
"g. c #5DBD99",
"h. c #64AB91",
"j. c #6CAD92",
"k. c #6DB196",
"l. c #68B699",
"z. c #4EA8A4",
"x. c #55B6A4",
"c. c #56B8A6",
"v. c #59BBA4",
"b. c #55B9AC",
"n. c #5ABEAA",
"m. c #4BA7B5",
"M. c #52B1B0",
"N. c #5EC49C",
"B. c #5FC89E",
"V. c #61C69D",
"C. c #6BC39E",
"Z. c #63C99F",
"A. c #5BC2AC",
"S. c #5BC4B3",
"D. c #5DC9B6",
"F. c #5CC6BA",
"G. c #5DCBBB",
"H. c #64CCA1",
"J. c #69CCA3",
"K. c #79C8A5",
"L. c #66D1A3",
"P. c #6CD2A6",
"I. c #67D9A8",
"U. c #6CDBAA",
"Y. c #76D8AB",
"T. c #7CDBAE",
"R. c #60CEB9",
"E. c #61D1BE",
"W. c #7FDDB0",
"Q. c #6BE0AC",
"!. c #7AE5B4",
"~. c #4FB1C1",
"^. c #52B4C2",
"/. c #5ECCC3",
"(. c #62D6C8",
"). c #62D9D5",
"_. c #5CD1E1",
"`. c #62DBE6",
"'. c #67E5E7",
"]. c #69ECF1",
"[. c #82CCA8",
"{. c #80DEB0",
"}. c #8DDDB5",
"|. c #91DFB7",
" X c #84E2B3",
".X c #8BE6B7",
"XX c #88EAB9",
"oX c #8DEBBC",
"OX c #97E6BC",
"+X c #94EDBD",
"@X c #94F1BF",
"#X c #9AF1BF",
"$X c #A2E8BA",
"%X c #A1F2BF",
"&X c #ABF5BF",
"*X c #B7F7BF",
"=X c #C6FCBF",
"-X c #D5FEBF",
";X c #98EAC1",
":X c #96F2C2",
">X c #9BF3C2",
",X c #9CFAC7",
"<X c #A3F5C3",
"1X c #A8FAC7",
"2X c #A4FCCC",
"3X c #B8FCC6",
"4X c #ADFBD2",
"5X c #BAFCD3",
"6X c #C8FDC5",
"7X c #D5FEC3",
"8X c #D6FFC5",
/* pixels */
"# * v - ; v ; v v - - ; b ; b v ; b ; ; ; ; ; B b b b ; ; - - ; ; b b ; ; b b - * - v - - v ; v v - - v ; ; b ; ; b b ; ; - ; b v v b v n = v v v v v v v b v # ",
"= - v v v B ; ; v - ; B b b b ; ; ; b ; - ; b b ; ; ; ; ; ; b b b b v - ; b  .b b v ; v v v ; ; ; ; ; b B B b ; ; b ; ; - ; b b v v v v v v b b b b v v v b v v ",
"b b v b B B v v v v b  .B B b b ; B ; - ; b B ; v z ; ; ;  .X.X.X. .v ; v b X.X.X. .N B  .b v ; ; b b  .B B B ; ; b ; ; ; B B v N v v v v  .X.X.X. .v = v b b v ",
"v b ..X...B v N v v v  .....X.X.....; ; B ..X... . . ... . . ...X... .b b  . . . ......... .b v b ; v  .....X.X.X. .; ; B ..X... .B B  .b b  .X.X.X.b v b B b v ",
"- b B ....X...B  .B B  .X.X.X....... . ...X... .B B ......B b  .B B .. .b  . ...B ..B  ...X...B ..b B  .X.X.X....... . ...X.X.X.X. .X.X. .B B B b b X. .B B v v ",
"v v v v B X.X.X..... ...X... .B  .X.X.X.X. .z f f & - ;  .B B b ; ; ..X.X.b  .X...B N N ..X.X.X.X... . .X.X. .B  .X.X.X.X.X.X.X.X.X.X.X. .B N B v v  .X.X.B v v ",
"- v v b B B B B B N N N v B ........B B B - 5 > . . : f b B z z - ;  .X.X.B v b B B N B B B B B b z B B z B ........B b B B  ...X.X.X.X.X.B B B v v b X.X.B v v ",
"- - v b B v N N ; z ; ; ; ; B .... .B ; h 8 6 F L I a q z z  . .b b ..X...v ; v B N N B B N ; v ; ; ; ; ; ; B ......B N B ; B b B X.X.X.X.B B ..v b  .X.X.v = & ",
"- ; v  .B ; ; ; ; z z ; ; ; - B  .b ..B f d T @.4.7.| ] c z B X.....X.X...; N B  .B N B B - ; z ; ; ; z z - h B  . ...X.X. .N ; N ..X.X.X.X.X.X.....X.X...- - - ",
"- ; v b B N z ; ; ; ; ; z B z  ... .; f p R @.p.K.}.k.%.T 6 * z v v b  ...B ....B N v B B N v - ; ; z - N B B B .. .X.X.X...B ..X.X.X.X.X.B  ...B v b ..X...b v ",
"- ; v  . . .N ; N B B B B  ...X.X.B * 2 F ( 0.H. X:X}.j.{ u > - - - - B X...X.X. .B v  .....v v N B B B B  ...X.X...X.X.......X.X.X.X.X.B B  .X.; - - B X...b b ",
"b ; N X.X.X.B B  ...X.X.....X.X.X.B 8 e U O.w.I.:X:XoXK.#.S : h ; - ; ..X.N B X.X. .v ..X.X.B B  ...X.X... .X.X.X. ...X.B  .X.B ..X.X.B v B X.X.N - - ..X.v v v ",
"; ; v  .X.X.X. .z B ..X. . .X. .B ..8 1 L ` ,.B.Q.!.Y.l.| A > z B  ...X.X.B B B B B N B X.X.X. .z B ..X...B X...B ..X.....X.X. ...X.X.X...X.X.X. . ...X.X.b v v ",
"- ; b b ..X.X...; z B X. .B .. .B ..= , S E @.w.A.A.a.*.W p 5 z  ...X.X... .....B B B B ..X.X...v ; B X.B B X.B B ....B X.X.X. .....X.X.X.X.X.X.....X.X.....N v ",
"v b ..X.X.X.....X.B B .. . . .X...B = $ 6 a R O.>.8.o.Q a j - N B B  . . .....X... .....X.X.....X.B B X...B ....X...N - B X.X.B v B ......X.X.B B B  . .B ..B b ",
"; b X. ...X...X.X.X... . .....X.X.B - = & 6 a P / / R c 5 h N  . . . ...X...X.X. .........X.X...X.X... .......X.X.B ; - v B B ; N B B B B B ...... .......X...b ",
"; b ..b B X... ...X. .B B z z  ...b z z ; * 6 u A D r 5 - z ..X.X.X.X.X.X.X.X.X.......N b X.....X... .B  .....X.X.z ; z b ; B z B B B B z B  .X.X.X.X.....X...b ",
"b b v ; ;  .B  . .B z z = & 5 & ; .... . .z * 5 2 , 5 h ..X.X.X.X.X.X.B ; ..X.X.X.B B ; v B B  . .B ; z ; z ..X.X.X. . .....X.X.X.....X.X.X.X.X.X.X.X.B N ..B b ",
"; b  .b z ; B B B z z B f , r 2 f  ..... .B z z h h N B B  .....B b  .z ; b  .....B B ; v v v v B ; ; B ; ;  .X.X.X.....B  ...X.X.X.X... .....X. .B  .B v N b b ",
"; b X...B B B N B z B z j a E R d l z ..z z  ...X...X...B B ....; - - = * * = ; h - z h = * - - v B B  .z ;  ...X.......B B ....X.X.X...z  .....b ; B  .B ; v b ",
"b b  .X.X.X. . . .- $ , J @.,.&.Q a 8 - X.X.X. . .....X.X.X.X.X. .h 8 > > O O + + + + + > . @ * v v ; ; ; z X... . ...X...X.X. . .....X.X.X.X.X.X.X.X.X...B b b ",
"b b ....X.X...X...; $ < W *.a.e.$.S 2 & B .. ....... .B  .B  . .z f p u u u u u u u u u S S r 9 z B B ; ;  .X.X...b ........ ....... . ............. .X.X...b b ",
"; b X... .....X...; 8 r W *.a.w.@.F 2 & z z z X.X.B B ; = * = = & p U ( { { { { { { ( { | | [ d 9 z z - z  ...X...; B  .B ; ; X.X. .B B ; ;  .B b b b ..X. .b b ",
"v b B ....X. .B  .b h f c Q $.o.W 6 8 = z B ..X. .; N = $     O < G o.,.h.h.j.j.j.h.h.h.l.k.7.[ p >   O % ; .. . .b ; ; ; B ..X...; ; b  .b z z ; ; B  .....b v ",
"v b ........B B B B v - j d R J j z z z B ....X...; = 8 r u t t G o.w.Z. X.X|.|..X|.}.|.;X;X[.7.[ S t S a 9 N N  . .B z  . .X.X...; z z B ; z ; ; ;  . .B  .b ; ",
"; b ..X.B ; v B  . .B - - 8 < > f  .....X.X...X...- 5 p T ( ) ^ $.w.P.XX,X,X2X2X2X1X3X3X5X5X<X[.7.| { | Q d 9 N ........X.X...X...z ; z ; ; ; ; ; v .... . .b b ",
"v b ....b ; - b X.X.....B - % * z ..X.X.X.X.X...; % r G o.,.9.>.w.C.{.@X,X2X2X,X2X1X3X6X8X6X5X|.[.k.l.l.4.[ y 7 ; ..X.X.X.....X.X. .B - ; ; z B b B B ....X. .b ",
"v b X.b b b v b X.X.......B v B ..X.X.......z z f 6 R o.q.N.B.N.Z.T.oX#X>X>X:X:X>X&X3X6X8X8X6X*X$XOX;XOX[.7.W a & z ..X.....b  .X.X.B B B B .......... . ...b b ",
"v b ..X.X.X...X.....B N B ..X.X.X.........; = 8 p G @.e.V.U.Q.I.!.XX>X<X1X#X@X@X#X%X&X6X-X-X7X7X6X5X4X4X;XK.h.[ p 8 ;  ...z ; ....X.X...X.X.X.X.X.X.X. .b  .B ; ",
"- v  .X...b ..X.....B N ..X.X.X. . .z B X.; 8 p K o.e.V.H.L.L.L.Y.XX#X<X<X#X#X@X#X#X%X*X*X-X-X8X7X6X3X4X>X.XK.7.W r , = ..X... .B X.X.X.X.X...X.X... . ...b ; - ",
"; v ..X...b  .....B B N B ....B z  .;  . .f 6 K _ q.Z.I.L.H.B.B.P.T.oX#X<X:X#X#X#X+X#X#X&X=X-X7X7X6X3X>X,X,X>XK.4.R r 5 ; .. .B B X.X.X.X.b  .X... .b X.X.b ; ; ",
"v  .X.X...b b ..X.B N N B N v B  .....z f 6 D _ q.V.U.U.L.H.N.V.J.P.{..X@X#X:X#X#X@XoX#X#X&X*X=X=X*X&X%X<X2X4X;XK.*.R p 8 * = ..X...X.X.X.b b ..X.X.X.X.X. . .b ",
"; b .... .b  . . . .B ; B ..B B ..B v 7 r G ^ >.a.V.I.I.H.Z.V.Z.Z.Z.P.T..X#X%X%X#X+X@X+X#X%X%X&X&X&X%X#X>X1X2X>XW.s.$.R a 6 *  .B B ..X.X. .B ..X.X...B b X...b ",
"; v  . . . .X...b X...z  .X.X... ...& > S E @.w.s.V.Z.Z.Z.Z.Z.Z.Z.Z.Z.J.{.oX#X#X#X>X>X:X#X>X#X#X>X#X#X#X>X#X>XoX XJ.9._ A , * ; B B B ..X... ...X... .; ; X. .; ",
"; v B B ..X.X.X.X.X.X.X.B z X... .X.= 1 S ^ ;.p.g.g.g.V.Z.H.H.Z.Z.N.N.Z.P.T.oX#X>X<X<X>X>X:X:X:X:X:X>X<X#X+XXX X!.Q.s.@.D . $ = B  .b ..X.....X... . . ...X.b - ",
"; ; b ; B ......X.X.X. .B B X.X.X.X.& > A ^ &.u.p.p.p.s.Z.H.J.H.V.N.N.N.H.P.T..X>X>X<X>X:X>X#X:X:X:X<X>X+X XY.U.U.L.a.@.D . $ - B ..B N B B  .X.X... . .X.X.; * ",
"; ; ; ; ;  . . .X.X. .b B  .....b N 8 p U ) &.q.w.q.w.p.g.V.H.Z.H.V.V.V.V.V.P.{.+X+X#X+X+X+X+X+X+X+X#X+X.XT.J.H.L.Z.r.$.L p 5 h B ..B B v B B ..X... ...X.X.b = ",
"b v ; ; z ; B ..X.X... .B  ...z * 7 s R | <.2.q.2.2.2.w.p.g.V.Z.L.L.H.V.N.N.J.P.T. X{.{.T.{.{.T.{. X X XT.J.Z.Z.B.Z.N.w.o.W d 5 = b ..X. ...X.B v B X.X.X. . .; ",
"; b b b  . .B  . .B  . . . .B = 5 r E &.i.x.d.q.3.2.2.q.q.p.s.V.H.H.H.V.V.V.Z.J.P.P.P.P.J.J.P.P.J.P.P.P.J.H.V.V.Z.Z.L.Z.r.*.Q a 6 =  ...........; v .. .b B ;  .",
"; b ......X. . .B B B  .....B * , A ` z.D.D.x.w.3.3.2.3.3.q.p.g.V.H.Z.Z.H.Z.Z.Z.V.N.V.V.V.Z.N.B.Z.V.V.V.Z.Z.Z.Z.Z.Z.L.I.L.r.O.D < % B .. .....X.B b ..B ; b ; ; ",
"* ; .. . .........B B ....X...= < D ' z.G.R.v.q.3.0.q.,.,.q.w.u.N.V.Z.J.L.H.H.Z.N.N.N.N.N.N.N.N.N.N.N.N.B.B.Z.Z.Z.Z.U.Q.U.s.$.D < % B X.B B B .. .X.X.B B X.b - ",
"; ;  .b b ..B b B B B .. . . .& > A ` z.G.G.x.w.,.3.0.q.,.2.q.q.r.s.V.H.J.V.Z.Z.B.Z.B.N.Z.Z.Z.V.B.N.B.Z.B.Z.Z.Z.Z.Z.L.U.H.p.@.D < $ v B v ......X. .B v B X.B v ",
"b b v b  .B ; ; ; B B  .B B b & > A ) y.S.D.f.w.q.q.q.q.q.q.2.2.q.r.N.N.V.V.V.V.Z.Z.Z.Z.Z.Z.Z.Z.Z.Z.Z.Z.Z.Z.Z.Z.Z.Z.P.L.V.q.} A . $ * v N ..X.X.X.B b v v B b b ",
"; b ..X... .b ; B ; z B ..X...= , A ) y.S.A.d.0.*.3.q.q.q.q.2.,.q.w.r.r.a.p.s.V.H.L.Z.Z.Z.Z.Z.Z.Z.Z.Z.Z.Z.Z.H.L.L.H.L.Z.a.>.( A 1 & b X...B B .. .X. .N b B b v ",
"; b  . ...X... . .B B  .X.X...= 2 A ) 6.S.S.d.q.,.q.q.q.q.q.q.3.q.q.w.q.q.w.u.g.Z.H.H.Z.Z.H.Z.Z.Z.Z.Z.Z.Z.Z.Z.Z.H.H.H.N.w.&.^ A < g ..X. .B B B b B X.B B B B v ",
"; v ; z  .X.X.X... . ...X.X.B & > A ) 6.S.D.n.u.q.q.2.q.q.q.q.q.q.q.0.,.,.2.w.p.g.Z.Z.H.H.H.Z.Z.Z.Z.Z.L.Z.V.V.l.g.g.g.a.3.#.^ A 2 * b X. .B b B v v  .X.X.b b b ",
"; ; N B  .B B B B N N N N B ..= , A ) 6.A.D.D.x.i.w.q.3.q.q.q.q.q.q.,.,.2.2.q.w.a.s.V.H.P.L.H.L.L.L.P.L.Z.g.a.a.a.a.p.e.3.$.^ A 2 * B X.X.B b N v v  .X.X.b v = ",
"- - ;  .B ; z N N ; z v - v B * , S ) t.F.(./.S.d.u.q.3.,.q.q.q.q.0.q.0.2.9.2.q.w.r.g.Z.Z.Z.Z.Z.Z.Z.Z.Z.V.s.u.q.q.q.u.e.q.&.^ A 2 g B X.X.B B B v b X.X. .b = & ",
"- ; v b b v - z ; ; ; z ; ; - & > S ` M.(.).).R.v.u.3.,.0.q.q.q.q.q.q.q.q.q.2.2.,.w.p.s.V.g.N.g.N.g.N.g.s.e.9.,.>.,.u.d.d.2.` A < & B X.X.X.X.X.X. .X.X.X.v = v ",
"- - b b B v v - - N ; ; N B ; & O A =.^.].].).S.a.w.3.,.,.q.q.q.q.q.q.q.q.q.2.3.2.w.w.p.p.p.p.u.r.r.p.p.e.w.9.0.*.,.p.A.S.i.+.D 1 & ..X. ... .X.B v N  .X. .B v ",
"; ; b  .X...v v N B B N B  . .= 3 A ' ^.`.].`.R.v.u.3.,.3.q.q.q.q.q.q.q.q.q.q.q.q.q.q.w.w.q.w.q.w.q.w.q.q.q.q.q.9.q.f.A.n.y.' D > * B X.B B  .X.v - v B  . .B v ",
"v v v X.X.X.b b ....X.X.......v w H ! 5.^._.`.)./.b.u.3.q.3.,.,.2.2.q.q.q.q.q.q.q.2.2.2.,.3.2.,.,.2.2.3.,.,.3.q.p.x.n.x.y.;.^ a 7 n X.B b B X.X.v = v ..X.v v v ",
"; ; b  .X.X.X. .N N ..X. .B X.v & w J ! =.m._.].'.E.d.w.q.,.,.,.3.q.q.q.q.q.q.q.q.2.q.2.2.2.2.q.9.9.3.,.,.,.3.w.v.S.b.6.` Y K s g B  .X.B X.X.X...B  .X.X.B v v ",
"- ; b b ..X.X...v N B X. .B ..B n m s y L =.~.`.].).D.v.u.w.2.w.q.q.2.q.q.q.3.q.q.q.3.q.q.2.q.3.9.q.q.q.q.q.w.d.H.S.y.' L S s m n B X.X.X.X.X.X.X.X.X.X.....b v ",
"; b  .X.X.X.....X.B B X...B ....B M 3 1 o L =.~._.`.'.).F.x.d.d.i.w.q.3.3.3.3.3.3.q.3.3.3.3.2.4.3.3.q.w.a.g.v.n.M.t.| Y y 4 w 9 n v B X.X.X.X.B B B B B B ..B b ",
"; b X. ...X...X.X.....B ........N m w 3 1 i L =.m._.].'.(.D.A.n.x.u.2.3.3.3.3.3.3.3.3.3.3.3.2.2.,.q.q.q.d.A.D.b.6.` U u i 0 w w g v B B B B ..X.B ....X.X.X.B B ",
"; B ..N B X.....X.X...B B ....B M k 9 w w 4 e L -.^._._./.S.S.F.S.c.d.w.w.w.u.u.u.u.u.w.w.u.u.u.u.9.9.,.u.x.n.z.' L y 4 0 w w w g v N B N B B X.X.X.X.X...X. .b ",
"v N B ; v B B B ..N ; - ; N ..B N k x k k 9 0 y / -.m.m.6.6.x./.(.E.A.n.v.b.v.b.n.n.n.n.n.b.b.H.S.x.9.$.O.;.1.#.E a 4 0 k M Z M n V ....X.X.X.X.X.X.X.b b .. .b ",
"; b B B N N b B B N N B v n B B V m C k w 9 9 w J Y / ! P ` 6.b.(.(.D.S.S.S.D.S.F.S.S.S.S.S.F.E.E.c.<.( U L ~ U J s w l k x C M n B X.X.B ....X. .b  .b v b b b ",
"; b ....B B B v N N B ..v N ..B N M k x w l M k d y o X X I ` 6.b.S.b.b.b.b.b.b.b.b.b.b.b.b.b.S.S.i.' P o X o u s k M M w w k l n B X...B B ....b v  . .b ; ; b ",
"b b ..X.X.......B N v v - B ....N n h l C Z M 9 w 4 1 1 1 a W | <.1.:.:.:.:.:.:.:.:.:.:.:.:.<.1.1.+./ F o . 4 i 0 k M Z C k M N v B ....X.X.X.X.X.X.X.X.X. .b b ",
"v B ..X.X.X...X.X...B B B B X...B N h M m C C m k 9 0 0 0 w H I Y ~ Y Y E Y Y Y Y Y Y Y Y Y Y E ~ P J s w w w w k k k k k l h B ......................X.X. .b b ",
"v b ......B ..X.X.X.X.X.X.X.X.X...v v h 9 9 w C m m m g 9 0 i y o o o o o o t t o o o t t o o o t y s k V V M Z k w w k 9 g h ..X.b b b v v b b b b v ..X. . .b ",
"v b b ..X.....B B ..X.X.X.X.X.B B B v h g g k C C w 9 m m w 0 i . e e i i i e i i i i r r i i r e 2 s k M V M x x w w 8 g z ..X...v b b b b v v v v b  . . .b ; ",
"v b b X.....B B B  .B B ..X...B B ..B B z z l Z x q q 9 g 9 0 0 4 0 q w 0 w 9 w w w 0 w w w 0 w 0 w w w m M m m x x g g B  .X.X. .z ; z B z ; z ; ;  . . . .b ; ",
"; b X.X.b v v B .. .z ;  .X... ...X... .X. .V M l g 9 q q q 0 w w w M l k k m M k k M Z k 9 w k m k w w 9 m g m l l l B ..X...X...z ; ; ; ; z ; ; ; .... . .b ; ",
"v b .. .N - - b X.X.........B  .X.X.X.X.X...N B N N g 9 0 s d k k k k k m m M C C C Z k w w 9 w M Z C C m n n v B B B ..X.X...X.X...z ; ; ; z  .b  . . . .X. .b ",
"v b X. .B B v B X.X.X...X... .X.X.X...X... .B B ....N h g C w m m m k k k m m M m M k k k w w k M m C C m V N B .. ....... . ...X.X...B ;  . ....... . . ... .b ",
"; b ..X.X.X...X.X...b b  .X.X.X.X. . . . .B z ..X.X...B N n M N M N l l g g l h h h M M N M M h n h g g - N X.X.X... . . .B v  ...X.X.X.X.X.X.X.X.X.X. . . .b ; ",
"; v  .X...B ..X. ... .;  .X.X.X. . .B B ..X...B B X.X...B V V B B N z N N h h - n N N B N h N B N N n g N ..X... .B B B ..X...B  .X.X.X.X.X...X.X... . . .b ; - ",
"; v ..X...b b X... . .b  ...X. .B B B  ...X...B B X.X.X...B B .. .B B  ...N ; b N B B B B - b B B N v - N ....B B  .B B ..X...b  ...X.X.X. . .X..... ..... .; - ",
"v  .X.X...b b  .X. .; ; b ; ; ; B ..X.X...z z ..X.B X.X.X.b v ......X.X.X...X.X.X.X.X.X...B b ..X.B v v b N N B B ..X.X. .N v ......X.X.X. .; ......X.X.X. . .; ",
"; b .... .b  . . . .b v  . . . .......B B  .....B B ..X.X. .B ..X.X. .b b X.X.X...........b b ....B B v  ...B B  ... .B  ....... . ...X.X.B B ..X.X...b  ... . .",
"; v b  . ...X... .....b  .X.........B v  .X.X.B N B B ..X.....X.X... .; b X.X.X.B  .B  .B ..X...B X...B  ...X.......B b  .....B ; b ....X.......X.....; ; X. .; ",
"; v b  . .X.X.X.X.X.X.X. .b X. .B X.......B B v N ..B ..X......... .b  ..... . ...B B B ..X.X.X.X.X.X.X.B B X... .X.X. . . .B z ;  . ...X.X...X... . . ...X.; - ",
"; ; v b b X...X.X.X.X. .b b X.X.X.X.....X...B v B ..B B  .B B X.X.X. ...X.X.b ; ..B v b B ......X.X.X.B B B X.X.X.X.....X...B b  ... .; B b  .X.X... . .X.X.; = ",
"; ; ; ; b b b  .X.X. .b b ....X.....B ..X.X...B B X...b B B B ..X.......X...B b ..B ; ; b B B ..X.X...b b .......... . .X.X. .b  ... .b ; b b X.X.......X...; - ",
"b v ; ; ; b  . .X..... . . .X.b v B v B X.X.........X.X.B ..X.B v v ..X.X.....X.X.b ; v v v b ....X.X.b B B ..B ; B b  .X.X... ...X.X... .X... .B ; X.X.X... .; ",
"- - - b b ; b ; ; ; b b b b b b v v v B b b b B b b B B B B B B - - b b ; ; b  .B v ; v v v v b v v b b b v b v ; v b b B B B  .b  . . .b  .b b ; - b ; ; ; ; - ",
"* = - ; ; b ; ; - - - - ; - - ; v v b v - - v b b v ; - v ; v N - - ; - * - - v ; ; - ; v v ; - - = - - v v - v b b b ; - - ; ; ; ; ; ; ; ; b b - = ; - = = = = "
};
