/* XPM */
static char *__resized[] = {
/* columns rows colors chars-per-pixel */
"80 80 217 2 ",
"   c #1C3427",
".  c #253A27",
"X  c #223E2C",
"o  c #253C32",
"O  c #28471D",
"+  c #2A4B1D",
"@  c #2F5316",
"#  c #2E531D",
"$  c #30571D",
"%  c #335D1D",
"&  c #36621C",
"*  c #39661C",
"=  c #3C6D1D",
"-  c #3F711E",
";  c #254426",
":  c #2B4C23",
">  c #274228",
",  c #2E452B",
"<  c #2B4C2E",
"1  c #324D2E",
"2  c #2D5122",
"3  c #2D522D",
"4  c #325624",
"5  c #335C22",
"6  c #385E26",
"7  c #35542C",
"8  c #345A2C",
"9  c #3A5D2C",
"0  c #264335",
"q  c #2A4634",
"w  c #2A4B32",
"e  c #26433C",
"r  c #294439",
"t  c #2B4B3A",
"y  c #314C34",
"u  c #2E5432",
"i  c #2D533C",
"p  c #335434",
"a  c #315A34",
"s  c #395A32",
"d  c #34573C",
"f  c #366223",
"g  c #3A6524",
"h  c #3E6C23",
"j  c #35612D",
"k  c #3D642C",
"l  c #3F6A2A",
"z  c #3F7220",
"x  c #356133",
"c  c #3D6230",
"v  c #41751F",
"b  c #43781F",
"n  c #406E25",
"m  c #40662F",
"M  c #416B2C",
"N  c #417620",
"B  c #457C21",
"V  c #437428",
"C  c #416831",
"Z  c #284A47",
"A  c #324F43",
"S  c #2D5748",
"D  c #2D544C",
"F  c #315241",
"G  c #315C44",
"H  c #31564D",
"J  c #325A4C",
"K  c #2B5352",
"L  c #2E5A59",
"P  c #325B54",
"I  c #315B5A",
"U  c #376449",
"Y  c #35634C",
"T  c #34635D",
"R  c #396558",
"E  c #3A705C",
"W  c #346563",
"Q  c #376A66",
"!  c #3A7365",
"~  c #3B7668",
"^  c #3B746A",
"/  c #3E7A6C",
"(  c #356C70",
")  c #3C7B74",
"_  c #3C787B",
"`  c #477964",
"'  c #407C6C",
"]  c #427F72",
"[  c #478022",
"{  c #498423",
"}  c #4C8924",
"|  c #3D827C",
" . c #42816C",
".. c #448473",
"X. c #498877",
"o. c #44877B",
"O. c #498E7C",
"+. c #538875",
"@. c #548A79",
"#. c #4A937E",
"$. c #4D997F",
"%. c #57917B",
"&. c #3E7885",
"*. c #3F8884",
"=. c #428C85",
"-. c #418B8A",
";. c #499786",
":. c #4E9D84",
">. c #46948C",
",. c #4E9D89",
"<. c #539382",
"1. c #509F85",
"2. c #589B86",
"3. c #428E97",
"4. c #449497",
"5. c #489792",
"6. c #499893",
"7. c #4EA086",
"8. c #4FA088",
"9. c #50A187",
"0. c #51A38A",
"q. c #55AB8E",
"w. c #4CA49A",
"e. c #54AC93",
"r. c #51AC9C",
"t. c #56B095",
"y. c #59B594",
"u. c #5CBA96",
"i. c #56B19A",
"p. c #59B69C",
"a. c #5EBE99",
"s. c #6AA48A",
"d. c #66B496",
"f. c #73BB9B",
"g. c #4797A5",
"h. c #4DA7A7",
"j. c #4FADA3",
"k. c #4EA9AE",
"l. c #54B5A6",
"z. c #59BBA5",
"x. c #56BBAD",
"c. c #5ABEAA",
"v. c #56BCB2",
"b. c #56BFBD",
"n. c #5EC49C",
"m. c #5FC89E",
"M. c #61C69D",
"N. c #63C99F",
"B. c #7AC39F",
"V. c #5FCBA0",
"C. c #5BC2AC",
"Z. c #5CC7B5",
"A. c #5DC9B5",
"S. c #5AC5B9",
"D. c #5DCBBA",
"F. c #5FD0BE",
"G. c #6BC5A0",
"H. c #65CCA1",
"J. c #6BCEA4",
"K. c #7AC4A2",
"L. c #7BCCA9",
"P. c #66D1A3",
"I. c #69D3A6",
"U. c #69D6A8",
"Y. c #6CDBAA",
"T. c #74D6A9",
"R. c #77D7AC",
"E. c #79DAAD",
"W. c #73E1AF",
"Q. c #79E4B3",
"!. c #54BAC7",
"~. c #5ECDC1",
"^. c #5BCAC9",
"/. c #58C3D2",
"(. c #5CCED5",
"). c #5ED1D6",
"_. c #61D6C8",
"`. c #64DED5",
"'. c #66E2DF",
"]. c #63DDE8",
"[. c #68E7E8",
"{. c #68EAF1",
"}. c #6CF2F8",
"|. c #91DBAF",
" X c #82DAB1",
".X c #84E2B3",
"XX c #8BE6B7",
"oX c #8BE8B9",
"OX c #96E4BA",
"+X c #93EDBD",
"@X c #97F0BF",
"#X c #9AF0BF",
"$X c #A3F3BF",
"%X c #ABF3BD",
"&X c #B2F7BF",
"*X c #B7F8BF",
"=X c #C5FCBF",
"-X c #D3FEBE",
";X c #9AEFC2",
":X c #8EF8C6",
">X c #95F2C2",
",X c #9CF3C2",
"<X c #9EF8C7",
"1X c #A2F4C3",
"2X c #A3F8C6",
"3X c #A4F2CA",
"4X c #A5FCCD",
"5X c #AAF9C8",
"6X c #BAFCC2",
"7X c #B7FBC8",
"8X c #B6FED2",
"9X c #C6FCC2",
"0X c #CBFFC7",
"qX c #D3FFC3",
"wX c #D9FFC1",
"eX c #D3FEC8",
"rX c #C7FED2",
/* pixels */
"@ & v = v - - v v = = v v v b v - - - - * * * = - = v v - - = - - - b - - b b = & = v = = v - v v = = v - b b - - b b - - = - b v v v v v * v v v v b v v b = % ",
"* = v v v B - - v = - B b v v - - b - * @ + + # & = - - - - - [ [ b - - - b [ [ v v - v v v - - - - - b b b v - - b - - - - - b v v v = v v b b b b v = v b v * ",
"b b v b B B v = v v b B B B b b - z * # ;   X ; : & = = - [ } { } [ - - - b { } } [ N B [ b v - - b b [ B B B z - b - - - B B b v v n v v { { } } { v = v B b b ",
"v b { } } B N N v v b [ { { } } { B f : S T T P d 5 z [ [ [ { { { { { - b [ { [ { [ { } { { v v b - b [ { } } { } [ - - B { } { { { b { b B { { { { b v b B b v ",
"= b B { { { { B [ B B [ } } { [ N g a U ' <.2.%.` U l z B B [ B b b } [ b [ { { B [ [ [ { } { [ { b B [ } } } { } { [ B { } } } } { } } { B B B b B } b b { b v ",
"v v v v { } } } { { [ [ } } B = % < G ~ 1.G. XL.s.` u # g z b B - - { } } b [ } { B v z B } } } { { { { } } [ B [ } } } } } } } } } } } { B b N v b { } } b v b ",
"= v v b B B B B B z z B N B [ = : t T ;.d.Q.>X>X X%.A > % = z - - - [ } } b - b B B z B B [ B B b b z B z B { { { { B b B B [ { } } } } { B N B n v b } } B v * ",
"= = v b B v N N - z - z - z B * ; Z W ,.V.Q.:X:XL.2.P o $ z { { b b { } } b - - B B N B B N - N - - - - - - B { { [ B B N B - B B { } } { { B { v v } } { b * * ",
"= - v B B - - - - z - - - - - % : Z T O.t.I.Q.Q.N.<.D 0 5 B } } { { } } { - N B B N N B B - - - - - - z - = h B [ [ { } } [ N - N { } } } } } } { { } } { - = = ",
"= - v B B B - - - - z = z B z = 5 w D ! #.e.n.u.<.! i : * B } { b b b [ { [ { } B B v B B N - = = z - - N B B B { { } } } { B [ } } } } { { { } B - b { { { b v ",
"= - b [ [ [ z - B B B B B [ { [ z 5 u P ! o.;...! U 8 * = N { { - * = [ { { } } [ B b B { { N - N B B B B [ { } } { { } } { { } } } } { b B { { - = = B } { B b ",
"b - z } } } B B [ { } } { { } } { B j a D W ! T G j V b v { } } B = - { } N B { } B v } } } B B [ { } } { [ } } } [ } } B [ { [ { } } { v B } } B = - { } v v v ",
"- - v [ } } } [ z z { } [ [ } [ B { z 5 u t Z w 4 z [ { [ { } } [ [ { } } B B { [ B N B } } } [ z B { } { B } { B { } { { } } [ { } } } { } } } [ [ { } } B v = ",
"= - b b { } } { - z B } [ B } B B { B * 2 2 ; 2 & z { } } } } { { } } } { [ [ [ B B B B { } } { v - B } B B } B B { { B } } } [ { { } } } } } { { } } } { [ v v ",
"- b { } } } { { } [ B { [ [ [ } } [ - * = z z * - z { } { } { [ B B [ [ [ [ } } [ [ [ } } } { { } B B } { B { } } { N - B { } b v B { { { } } [ [ B B [ B { b b ",
"- b } [ { } { { } } B = * z [ } } B - - - B B - - z B B B B { { { [ [ { { } } } [ { } [ { } } { } } { [ { { { } { B - = N B B v z B B B B B { { { [ [ { } } [ b ",
"- b { b b } { { } { h 2 2 f B } { B - z - - [ z B B B z B B [ } } } } } } } } } [ [ } z B } { { } { [ B B [ } } { B N B - N B z - [ [ z [ B [ } } } } { } } [ b ",
"b b v - - [ B [ [ = 2 0 0 3 z [ } { [ [ { { } } { } { } } } } } } } } B z { } } } [ B = - B B B { B - z - B [ } } { [ [ B { { } } { { } } } } } } } } [ b { [ b ",
"- b [ b z b - - * 8 U E ! U x h z { } { - [ { } } { } { [ { } } B B [ B - B [ } { [ [ B B N b B B - z B - - [ { } } { [ B B { } } } } { [ [ { } [ [ [ - v b b b ",
"- [ } [ B B - & + i E $.7.| G 8 g z { { [ [ [ } } } } { z B [ { B - B B B - B { { { { B B B B B N N B [ v - [ } } { } { B B [ } } } } { - [ { { - - [ { b - - v ",
"b B [ } } } B % ; J ..y.y.:.T w + - [ } } } } [ [ { { { { { [ { [ [ [ { B B B [ { B B B { B B B B B v - = B { { [ [ { } } } } [ [ { { } } } } } } } } } } b b b ",
"v b { { } { B * 4 G / 0.0.#.Y a % - [ } { [ [ { { { [ B h * 5 5 & f * f & % % & % % % f & % & h B [ B B B [ } } { b [ { { [ B { { [ [ [ { { { { } { [ } } { [ b ",
"- b } { [ [ B B = j U ` ' E a g - - - { z - - { } B B h # ; > > > ; ; ; < ; ; ; ; ; ; ; ; . , 4 z { } } } } } } { v B B B v N } } [ [ - - - B B - b b { } [ b b ",
"v b B { { } B B - - j i i a n b b - [ - - B { } { - * 5 w D P J D D D D D H J J H P J J P P H s f N { B [ [ { [ B b N v - B { } } - - [ [ - B - - - [ [ { { b - ",
"v b { { { [ B B [ b * ; ; 5 B b [ [ b b [ [ { } [ * 2 u U ~ .. ./ ^ ^ / ] X.@.@.+.+.+.<.<.<.] R u # # # & - { B B { b b B [ } } [ - - - [ - - - = - { [ [ [ [ - ",
"- b } { B - v B { b = % & z { { { } { { { } { } - $ w S | q.u.q.q.7.7.0.y.f.B.K.K.K.f.f.L.L.f.@.Y ;     ; 5 N { { } { [ } } } } } - - - - - - - - - { { [ [ [ - ",
"v { { { b - - b } } { B B [ B { } } } { } } { z 5 3 Y | q.N.Y.P.H.V.H.Y. X+X;X3X,X,X;X1X3X3X;XB.%.R D P J a f N } } } } } } { { } [ - - - - - B b [ b { [ } [ - ",
"v b { b b b v b } } { } } } [ { { { } } { B z 5 u J ..q.n.Y.Y.Y.Y.Y.W.oX>X4X4X4X4X5X8X7XrXrX7XOXf.%.@.2.+.R u & b { } } } [ B { } } } - - [ { } { } { [ [ { { - ",
"- b { } } } { { { [ B B B } } } } { { { [ = # < S  .q.m.H.P.P.m.U.E..X+X,X<X<X<X2X2X6X9XeXeX9X%X|.K.L. Xf.+.H < & z [ { [ b - { } } } } } } } } { } } { [ [ - - ",
"= v { } { b { } { [ B v [ } } { [ B B z z 5 < J / q.H.Y.U.H.n.n.P.E.+X<X<X,X>X+X@X1X6X9XqXwXqX9X7X1X3X3XOXf.@.R 3 f = B { } { B - } } } } } } } } { [ [ [ B - = ",
"- b { } { b [ { { [ B N B { { B b [ - * f a S ~ :.d.Y.Y.P.N.n.n.J.E.+X1X2X,X+X+X@X#X%X*X=X-XwXwXeXrX8X8X<XXXK.+.J u $ = { } { z [ } } } } [ { { { { b } } b - = ",
"v b } } { b b { } B - b b B v B [ [ - f w S Q #.q.n.H.P.H.V.n.n.I.E.+X<X2X,X@X@X+X@X;X$X%X=X-XwXwX0X6X5X,X>XoXf.+.H 3 & b - - } } { } } } - - } { { } } } { [ b ",
"v b { { [ B [ [ B [ B - B { B B { { = : e I o.0.u.N.N.P.N.N.n.n.J.T..X+X@X@X#X#X#X@X+X@X$X&X=XqX-X9X*X$X<X<X5XOXf.X.d 3 & z [ { { B { } } [ [ { } } { B b } { b ",
"- v B [ [ [ } { B { { B { { } { { { * ; Z I o.0.n.N.P.P.N.N.N.m.N.J.T..X+X@X#X1X@X+X+X+X@X$X&X*X*X*X%X$X#X2X4X3X Xd.| S 3 f z z - B [ { { { { { { { [ - - } [ - ",
"- v B B { } } } } } } } B N } { { { = : e P ..0.y.H.P.N.P.N.N.N.N.M.N.T..X+X1X<X#X@X@X@X@X@X$X$X$X$X#X#X<X<X2X#X.XJ.0.~ S 3 % = z { [ { } { { } { [ [ [ } } - = ",
"= v v v B { { { } } } B B B { { B v f < D W o.:.t.u.M.N.N.N.H.N.N.M.n.N.T..X+X@X#X#X<X@X,X,X>X>X>X>X@X$X#X#X@XoXQ.W.d.O.L 0 O * B { B B [ B [ { } { [ [ } } - * ",
"v - - - v B B [ } } { b B { { B h 5 u G ! ..#.0.q.e.u.a.N.P.N.H.M.n.n.m.N.T. XoX#X1X1X1X,X,X>X>X>X,X<X1X@XoX.XE.W.W.M.#.L 0 O - { { [ z z B B { } { [ { } { - = ",
"v v - v b z B { } { { [ B { { h # q J ~ O.1.q.0.8.8.q.t.d.N.P.N.M.M.m.M.N.N.T..X+X,X<X#X#X#X#X#X@X@X,X#X#X.XR.P.P.I.u.O.L 0 # - { { } { [ { } B - z { } } { [ - ",
"v b v B B [ B [ B B [ [ { B B * : e W =.e.y.i.0.:.:.7.q.y.M.N.N.H.H.N.M.n.n.N.R..XXX+XXXXXXXXXXXXXXX+X+X.XR.J.N.V.P.n.$.~ G 3 f z B { { [ { } { [ - } [ B B - B ",
"- v { { { } { [ B B B { { { B * : r Q >.z.C.z.q.:.:.:.0.0.y.n.M.H.H.N.M.n.n.N.J.T.E.E.E.R.R.R.R.E.E.E.E.E.J.N.M.m.V.M.n.$.| Y a 5 = B { { [ { } [ - { [ - - B - ",
"& - { { { { { { { B B { } } } = 2 0 W 5.v.Z.z.q.1.1.9.8.0.0.y.a.V.H.V.N.N.N.N.H.H.H.H.H.H.H.H.N.H.H.H.N.H.N.N.N.N.N.P.P.N.q. .G < 5 B } [ B B [ { { { { { } b = ",
"= - B B b { B b B B B [ [ [ B * : 0 W 6.v.D.c.q.1.1.0.:.:.0.q.y.M.N.N.H.H.H.N.N.m.n.n.n.n.m.n.m.m.n.M.n.M.M.N.N.N.N.P.Y.Y.M.#.P 0 + = B B B { { { { B b b } B v ",
"b b b b [ B - - - N B { B B B & O r W 6.v.A.c.q.1.1.9.0.,.,.0.q.q.n.N.H.P.H.H.N.m.m.n.n.n.n.m.m.n.n.n.n.n.M.N.N.N.M.P.Y.Y.M.#.I 0 O * - z [ } } } { v = v B B b ",
"- b { { { [ v v B - v B { } { = 2 o W 5.v.Z.x.q.1.9.0.0.0.0.9.,.0.y.n.N.H.N.N.M.M.N.N.M.N.N.M.N.N.N.N.N.N.N.N.N.N.N.P.U.P.y...P 0 # z { [ [ [ { { { { b v B B = ",
"- b [ [ { } { [ { b B { } } { = 4 0 W 5.v.Z.z.0.:.9.9.0.0.0.:.,.$.y.u.a.a.u.a.M.N.H.H.N.N.N.N.N.N.N.N.N.H.N.H.H.H.H.P.H.M.q.) D q $ B } { B B B b B { { B { v v ",
"- v - z [ } } { { { { B } { B * : o W 5.v.Z.z.0.:.:.9.0.0.0.0.:.9.q.q.q.y.q.y.a.N.H.P.N.N.N.N.N.N.N.N.H.N.N.H.H.P.P.H.N.u.:./ K q 4 B } { B B N - v { } { B v b ",
"= - v B B B B B b v v N B B { = 2 0 W >.c.Z.c.e.8.8.9.0.0.0.0.0.9.0.0.9.1.:.q.y.M.N.H.H.H.H.N.N.N.N.N.H.N.M.M.M.N.N.M.u.q.;.^ D w % B } { B v B = v B } } B = * ",
"= = N [ B z N N v = n v v v b n 2 0 W 5.l.Z.Z.p.e.0.:.1.1.0.0.0.9.0.9.9.:.:.0.q.y.d.N.H.H.H.H.H.H.H.H.H.N.M.n.a.u.a.u.t.0.O.^ Z q 5 B } } B B { b b { } { v = * ",
"= = v { b v = - z - - - - - = & 2 0 T >.l.D.F.c.p.e.1.1.9.0.0.0.0.0.0.1.7.,.0.0.q.y.M.N.P.P.H.N.H.N.P.P.M.a.y.q.q.e.q.q.q.#.! Z q % B } } } } } { { } } { = = = ",
"= - v b B b v = = v z = N B N * 2 o W 6.b.`.`.F.c.p.q.1.9.9.9.0.1.1.0.9.0.0.8.8.9.0.y.M.M.N.M.M.N.M.N.N.M.u.q.9.:.9.q.e.e.:.] K q % B { { { { { B N v { { { B v ",
"- - v { { { v v N B B B B { [ = 2 o ( k._.[.[.`.A.x.r.0.9.1.1.1.,.0.0.0.0.0.7.:.1.0.q.y.u.a.u.u.u.u.d.u.y.q.9.:.#.$.q.p.z.r.=.K q $ B } B B { { N * = B } { B v ",
"b v v { } } b b { { } } { { } = 2 o ( k.].}.{._.D.Z.z.i.0.1.:.:.1.9.0.0.0.0.0.9.0.0.q.q.q.q.q.q.q.q.q.q.q.0.1.:.$.$.e.C.A.x.=.K q 2 B { v B } } B = v { } v v v ",
"= - b { { } } { z B { } [ [ } = # , Q g.!.).^.x.c.~.~.D.c.i.0.q.0.0.0.7.9.9.9.9.1.9.1.0.:.:.8.7.7.7.:.:.0.0.e.e.i.e.p.c.c.6.| P < & B } { } } } { B { } } B v v ",
"= - b b { } } { - z { } B B { - % 7 I &.g.g.3.-.h.^.'.[._.c.p.i.e.e.0.:.7.9.9.9.1.1.:.:.:.:.:.:.:.:.:.#.,.e.p.C.A.C.z.j.6.o.W A 7 * { } } } } { { { } } { { v v ",
"- b { { } } { { } B B { { { { B V 9 F I W W K W *.!.].{.`.D.C.Z.z.i.q.:.<.7.9.9.9.1.1.1.:.1.7.7.7.7.:.:.0.i.C.F._.F.c.5.Q P A p 6 n B } } } { { B B [ B B { B b ",
"- b } { } } { { } } { B { { { { B k s t e o . r ( g./.(.!.x.v._.^.D.z.i.e.i.t.i.i.i.i.e.i.t.i.t.t.t.t.t.i.j.l.l.C.x.6.) H r y 7 g n B B N B { { { { { { } { { v ",
"- B { N B } { { { } { B B { { { B m 9 1 , . . , H _ 3.4.*.3.k.).[.[.~.C.z.C.C.C.C.C.C.C.C.C.C.C.C.C.C.A.x.r.>.=.*.*.) P t , 7 9 l N B B B B { } } } } } { { { b ",
"v N B - v B B B { B - - - N [ { N M 9 s 9 k k 9 d H I K Z W g./.{.[._.S.C.Z.Z.S.Z.D.S.Z.S.D.Z.S.A.D.F.~.x.6.^ L K L P F s 9 m m M N { { } { } } } } } [ b { [ b ",
"- b B B N B v B B N N B z = B { B n M k k k M M s p q o X Z _ g.!.(.v.h.r.j.j.j.j.j.j.j.j.j.j.j.j.j.l.v.w.] P o o 0 t y 9 m M M V B } { B { { { b b { b b b b b ",
"- B { [ B B B B z N B [ N z { { { N n M k k M M m 7 1 , . y P _ 3.4.*.*.| | | | | | _ *.| | | | | | *.=.) T d 1 > , p 9 9 m n N B { } { B B { { b - b [ b - - b ",
"b b { } } } { { B B v - = N } { B B B V M C C k k 9 9 k m k d H L L K K D K K K D K K Z K K K K K K K K D A s 9 6 6 9 m m n N B B { { } } } } } } } } } { [ b b ",
"v b { } { { { { { { B B B [ } } { B B B n k 9 k m m m n n m 9 y 0 o o r r 0 r 0 r r r r o 0 r r t r e r q y c C M 9 m m M h N B { { [ [ { { { { } } [ } } [ b b ",
"v B { { { { { } } } } } } } { } { v B B h g 9 m C 9 9 k 6 9 6 1 , , , 1 1 1 1 1 1 1 1 1 1 y < 1 1 1 1 1 7 9 m C C k 9 n * n N } } B B B v v b b b b v { } { [ b ",
"v b b { { } [ B [ { } } } } { [ B B v - - - n M k 9 9 6 6 9 7 6 7 7 9 k 9 9 k 9 k 9 9 9 k m k 9 9 9 k k m m m m 9 k 6 g v N B } { v v b b b b v - v b [ [ { b - ",
"v v { { { { b B B [ B B { } { B B { B B [ [ z V l f f 6 9 9 s 7 7 9 m l k k k m M m k M m m k k k m m 9 M M n g g l g h B [ } } [ - - z B z z - = - } [ [ [ b - ",
"- b { { b v b B { [ z - [ } { { { } { { } { { B B h * f 5 9 s 9 9 9 k m k m m m k m m C 9 9 9 9 m k 9 s m M N N B B B { { } { } [ B z - - - z - - - { { { b b - ",
"v b { [ N = = b } } { { { { [ { } } { } } { { { { [ z f 5 5 9 9 k g k k k M M l k m m g 6 6 5 9 m M m k M V N B } { { { } } { } } { z - - - z [ b [ [ [ { { [ b ",
"v b } { B B v B } } } } } { [ { } } { } { [ [ { } } [ z n h l l n n h l n n V n n n n n n g g g V n h n V N B } } } } } } [ B { } } [ B - [ [ { { { [ [ [ } b b ",
"- b } } } } } { { { B - { } } } } { { { [ z z { { } } { b B B B B B B B z z N B b b B B B B N B B N h = N { } } } [ { [ [ B b [ } } { } } } } } } } } [ [ [ b - ",
"- - [ } { b { } { { [ - [ } } { { B B B { } { B B } } } { { { } { B B B B N N N B B B { { N { { B B b v B { } { [ [ B B { } { B [ } } } } { } } } { [ [ [ b - * ",
"- b [ } { b { { } [ [ - [ { } [ B B B [ } } { B B } } } } B B } } { B { } B B B { { { } { v B { } B B N B { } B B B B [ { } { b [ { } } { { [ { } { [ { } b - = ",
"b b } } { b b [ } [ - - b - - - B { { } { z - { } B } } } B B } { } } } } { } } { { } } { B B { } B v b b b N N B { } } { - - } } [ } } } b [ { { { } } { } [ b ",
"- b { { [ b [ [ [ [ b v [ { [ [ { { B B B { { { B B } } } B B } } } { b b } } } { { { { { B b { { { B v [ { B B [ { [ B [ [ [ { [ B { } } [ B { } } { B [ } { b ",
"- v [ [ [ { } { b } { b { } { { { } B b B } } B B B B } } { B } } { b b b } } } { B B B B { } { B } { N [ { } { { } [ - [ { } B - B { { } { [ } { { [ - - } [ - ",
"- v b b { } } } } } } } B - } { B } { { { { B b N B B { } } { } { [ { b { } [ B B B B B { } } } } } { } B B } { [ } { { [ [ B - - [ [ { } { { } { [ [ [ { } - = ",
"- - v b b { { } } } } [ b B } } } } { { { { b b B { B B B B B } } } b { { } B - { B v b B { { { } } { { B B } } } } { { } { B b [ { [ - [ b [ } { { [ { } } - * ",
"- - - - b b b { } } { b b { { } { { B { } } [ b b } [ b N B B { } } { { { } B B { B v v v B B B } } { b B { } { { { [ [ } } [ b [ { [ b - b B { } { { { } { - = ",
"b v - v b - b { } { [ [ b [ } b b b N B } } { [ } } } } B } } B v b { } } { { } } b v v v v B { { { { b b { { B b - B B } } { [ { { } } [ } { [ - b } } } { [ - ",
"= = - - - - b b - - b b b b b b v b b b b b [ b b b b b N B B B = = b v v v b B B v = v v v v v b v v v b b v v - - b b B z [ [ [ [ [ b b [ b b - - b - - - - = ",
"& * - - b b - = = = = - - - = - b v b b * v v b v v n v v v v N = * v = & * = v v = = v v v v = = = = - v - = - b b b b = = - b - - - - - - b b - * - = * * * & "
};
