/* XPM */
static char *__resized[] = {
/* columns rows colors chars-per-pixel */
"80 80 210 2 ",
"   c #243E29",
".  c #223D2D",
"X  c #253E36",
"o  c #2B4D1C",
"O  c #2F5316",
"+  c #2E521C",
"@  c #30551C",
"#  c #335C1C",
"$  c #36621C",
"%  c #38651C",
"&  c #3C6D1D",
"*  c #3F711E",
"=  c #264424",
"-  c #284722",
";  c #2B4C23",
":  c #25432A",
">  c #2C442C",
",  c #27492A",
"<  c #2D4A2C",
"1  c #314B2C",
"2  c #2D5224",
"3  c #2D532C",
"4  c #305625",
"5  c #335B24",
"6  c #35552C",
"7  c #345A2A",
"8  c #38592A",
"9  c #3A5D2D",
"0  c #264733",
"q  c #2B4333",
"w  c #2A4C35",
"e  c #26423A",
"r  c #29443A",
"t  c #2A4A3C",
"y  c #304C34",
"u  c #2D5236",
"i  c #2E533B",
"p  c #2F593D",
"a  c #345534",
"s  c #355936",
"d  c #3A6424",
"f  c #3A6526",
"g  c #3D6A23",
"h  c #3D642C",
"j  c #3F7220",
"k  c #3E6430",
"l  c #34603D",
"z  c #41751F",
"x  c #43781F",
"c  c #406E27",
"v  c #40672D",
"b  c #416A2D",
"n  c #417620",
"m  c #457C21",
"M  c #447428",
"N  c #406730",
"B  c #426A30",
"V  c #2A4843",
"C  c #2B4E4C",
"Z  c #2D5543",
"A  c #2C514B",
"S  c #345947",
"D  c #2E5452",
"F  c #2E5C55",
"G  c #2F5E59",
"H  c #335C53",
"J  c #335D5C",
"K  c #346347",
"L  c #2F605C",
"P  c #356555",
"I  c #366956",
"U  c #33635B",
"Y  c #3B6D5C",
"T  c #3B735F",
"R  c #335B61",
"E  c #356562",
"W  c #346A66",
"Q  c #396E6A",
"!  c #3C7364",
"~  c #3B736B",
"^  c #3D7A6C",
"/  c #3C7C77",
"(  c #406C5E",
")  c #45755F",
"_  c #426F63",
"`  c #457362",
"'  c #447A6C",
"]  c #478022",
"[  c #498423",
"{  c #4C8924",
"}  c #3E827A",
"|  c #4A806E",
" . c #478878",
".. c #528877",
"X. c #518879",
"o. c #4A927C",
"O. c #4D987F",
"+. c #3D7E8A",
"@. c #3F8781",
"#. c #3E848B",
"$. c #408581",
"%. c #418A84",
"&. c #428B8B",
"*. c #4A9481",
"=. c #4E9C84",
"-. c #479488",
";. c #549181",
":. c #529E85",
">. c #418692",
",. c #459791",
"<. c #4A9C93",
"1. c #629E87",
"2. c #4FA086",
"3. c #4FA189",
"4. c #50A186",
"5. c #51A38A",
"6. c #55AA8D",
"7. c #59AB8E",
"8. c #58B08E",
"9. c #4EA79A",
"0. c #51A590",
"q. c #54AB93",
"w. c #52AD9B",
"e. c #57B297",
"r. c #5AB593",
"t. c #5BB996",
"y. c #56B39C",
"u. c #5DBC99",
"i. c #65A287",
"p. c #64A38A",
"a. c #6EAE93",
"s. c #49A1A9",
"d. c #50ABA2",
"f. c #57B7A3",
"g. c #52B1A5",
"h. c #59BCA6",
"j. c #53B4A9",
"k. c #56BBAE",
"l. c #59BDA9",
"z. c #4EB0BD",
"x. c #5EC49C",
"c. c #5FC89E",
"v. c #61C59D",
"b. c #63C99F",
"n. c #5CC2AC",
"m. c #5BC5B4",
"M. c #5DC8B5",
"N. c #5BC6B8",
"B. c #5DCBBA",
"V. c #63C7A0",
"C. c #65CCA1",
"Z. c #69CDA2",
"A. c #7AC4A3",
"S. c #74CAA5",
"D. c #7ECDAC",
"F. c #65D3A4",
"G. c #6BD3A6",
"H. c #69D8A8",
"J. c #6ADAA9",
"K. c #73D5A9",
"L. c #74D6AA",
"P. c #79D9AC",
"I. c #61D1BF",
"U. c #7DDEB0",
"Y. c #7AE7B4",
"T. c #50AFC2",
"R. c #51B2C3",
"E. c #5DCCCB",
"W. c #61D5CA",
"Q. c #63DAD9",
"!. c #66E0DF",
"~. c #5DD4E2",
"^. c #61DAEA",
"/. c #67E5E3",
"(. c #65E3EC",
"). c #68EAF3",
"_. c #81CBA7",
"`. c #87D2AC",
"'. c #88D7B0",
"]. c #86E4B5",
"[. c #8AE6B7",
"{. c #89EABA",
"}. c #8EE9B9",
"|. c #94EEBE",
" X c #9BEABA",
".X c #8BF4BE",
"XX c #97F0BF",
"oX c #9AF0BF",
"OX c #A4EABC",
"+X c #A3F3BF",
"@X c #ADF5BF",
"#X c #B3F7BF",
"$X c #BCFABF",
"%X c #CAFDBE",
"&X c #D6FFBE",
"*X c #95EDC0",
"=X c #95F1C1",
"-X c #9BF3C1",
";X c #9CF9C7",
":X c #A1F6C4",
">X c #A2FAC7",
",X c #A2FCCA",
"<X c #A9F8C9",
"1X c #B9FBC6",
"2X c #B2FFD1",
"3X c #C9FDC2",
"4X c #C3FECB",
"5X c #D3FFC2",
"6X c #D5FEC5",
"7X c #C7FFD1",
/* pixels */
"O $ z & & z z z z & & * * * x & @ + $ & & & * m x z x z & & & z * z x z & x z & $ % z & & z * z z & & z * x x z * x x * & & * x x z z z c % z z z z z z z x % O ",
"% & z z z m * & z & * m m x * $ o - + $ & * z * * * * * * z x m x x z & z x ] x m z z z z z * * * * * x n m z * * z * * * * z x z z z z z z x x x x z z z m z z ",
"x x z x m m z z z z x ] m * * 4 0 0 , # & z m m z n & * z m { { { [ z * z x { { { m n m ] x z * * x x ] m m m j * x * & * m m x n n z z z [ { { { [ z % z m x x ",
"z x [ { [ m n n x z z m x g f K T ^ I s 5 & m ] m m [ [ [ ] [ [ [ [ ] z z ] ] ] [ [ [ [ [ ] x z x * z ] [ [ { { { ] x * m ] { ] m m m [ x x [ [ [ { x z n m x z ",
"& z m [ [ { [ m ] m m m * f u ! O.5. .I 3 # m [ { [ { { [ m m m m m [ [ x [ [ [ m [ m ] [ { [ m ] ] m ] { { { [ [ [ ] ] { { { { [ { { { { m m m x x [ m m [ x z ",
"z z z z [ { { [ [ [ ] m $ , i } 6.t.4.! t 2 & [ { { { [ ] m n n & z [ { { x ] [ [ m z n [ { { { [ ] ] ] { { m m ] { { { { { { { { { { [ m m x m z z [ { [ x x x ",
"& & z x m m m m m m n j $ ; u T *.6.o.I , + & m { { { { { n z m * & m { [ m z x m m n m m m m m x x m m j m [ [ [ [ m z m m ] ] { { { { { m n n z z x { { m z % ",
"& z z x m z n n j j * j % # 2 K T ' I l 5 % * z m { { { { [ m [ m x [ { { z z z m n n m m n j n * * * * * * m [ [ [ m m n z m m m { { { { m m [ z x [ { [ n % % ",
"& * * ] ] * * * * * * * * * % 4 y t a g m m n & n [ { { { { { { [ [ [ { [ & n m m m n m m & * * * j j j * & g m ] ] [ { { ] n * n { { { { { { { [ [ { { [ & & & ",
"& * x m m j * * * g * * j m * d 4 ; 5 z { { m ] [ { { { { m { [ m z x [ [ [ [ { m n z m m n z & * * * & n m m m [ ] { { { [ m [ { { { { [ m [ [ m z z [ [ [ x z ",
"* * * ] ] ] j * * m m j m ] [ ] c % z [ [ [ [ { { { { { m m [ [ j & & m [ [ { { [ m z ] [ [ z * n m m m m [ { { { [ { { { ] [ { { { { { m m [ { * & & m { [ m x ",
"x * x { { { ] m ] { { { ] ] { { [ m [ { m m [ ] [ { { [ n m { { n & * [ { n m { { m n [ { { m m ] [ { { [ ] { { { ] [ { m ] { m ] { { m x m { { n & * [ { x z z ",
"* * * ] [ { { ] j j [ { ] ] { [ m { { [ [ { { m [ { { { ] { { { [ m [ { { m m m m m z m { { { [ * m [ { ] m { ] m [ { [ [ { { ] [ { { { [ [ { { [ ] [ { { m z & ",
"& * x x [ { { [ j j ] { ] j [ ] x { [ m { { { m m { { { { { { { [ { { { [ ] [ [ m m m m [ { { [ z * m { ] m { m m [ [ m { { { ] [ [ { { { { { { [ [ { { [ m x z ",
"* x [ { { { [ [ { ] ] [ ] ] [ [ [ m z z m { { m n m [ { ] { { m m m ] m ] [ [ { [ [ m [ { { [ [ { ] m [ ] ] ] { { [ n & m [ { x n m [ [ [ { { ] m m ] m [ [ x z ",
"* x { ] [ { [ { { { [ ] ] [ { { [ z z c n m m z z n m m m [ ] { [ ] [ [ [ { { { ] [ { [ [ { { [ { { [ ] ] ] { { [ m * * n m m z * m m m m ] [ [ [ ] [ [ [ { [ x ",
"* x [ x m { ] ] ] ] ] j m ] [ { { j * j j * j ] m m m m n m m { { { [ { { { { { ] ] { j x { [ ] [ [ ] m m ] { { { m m j * m n n m m m m j ] ] { { { { [ { { ] x ",
"x x x * * m * & g $ % j * j [ [ { { ] ] [ [ { { ] { [ { { { { { { { { m x [ { { { ] m * * m ] ] [ m j j * m ] { { [ ] ] ] ] [ { [ { [ { { { { { { { { m z [ ] x ",
"* x ] x j * % 5 3 , d j j * [ { { { { ] * ] [ { { { { { m ] { [ m m ] m * x ] { { ] ] j * m * ] m * n m * j ] [ { { { ] m m [ { { { { { ] ] [ { ] m ] m n n x x ",
"* x { ] ] * d < 0 0 4 m * * ] { { [ { [ ] ] ] [ { { { [ m m ] { m j ] m m * m { ] ] [ ] ] m ] x n m m ] * * ] { [ [ [ [ m m ] { [ { { [ j ] ] { x * m ] m * * x ",
"* x ] [ { [ g 2 e : 2 & & z { [ ] ] [ { { { { ] ] ] [ { { { { { { { { { [ m [ { { [ ] { { { [ [ ] m * * * m { [ ] ] [ { { { { ] ] [ [ { { { { { { { { { { m x x ",
"* ] [ { { [ j f f 5 d j m ] { { ] ] ] [ [ ] ] ] ] [ ] ] [ [ [ [ [ [ [ { { ] [ { { [ [ [ [ { [ [ [ ] m m m ] { { [ x ] [ [ ] ] ] [ ] ] ] [ ] [ ] { ] ] { { [ x x ",
"* ] { ] ] ] ] j m m ] { { { { { [ * x ] m * * { [ m m z & z n n z z z ] [ [ [ { ] [ { ] ] [ [ [ { { { { { { { { [ x m m m * n { { ] ] * * * ] ] x x x ] { ] x x ",
"x x ] ] [ [ ] ] x ] [ { { { { ] x ] m * * m ] { [ * z & # + o @ $ & x ] ] [ ] [ [ [ ] ] [ { ] ] m [ { [ { { [ ] m m n z * m [ { { * * m x ] j j * * m ] [ [ x * ",
"* x ] [ [ ] ] x ] ] x x ] { [ m ] ] ] * m ] [ { [ * & # - > . : o $ ] [ ] [ ] [ [ ] ] { { ] ] ] m m m m [ { [ ] m ] m m m ] { { [ * * * ] * * * & * ] ] ] ] x * ",
"* x [ { ] * * ] ] ] x * ] { ] [ [ { [ [ { [ [ { [ * # ; t C C V : 5 j x ] * m ] m x ] ] j & * * ] ] j j m { ] [ [ { { ] [ { { { [ * * * * * * * * * [ [ ] ] x * ",
"* x [ ] * & & * { { [ [ { ] ] ] { { { { { { [ { x & 3 K ' ;.*.' H 2 # # # # $ # # # # + + o + & { { [ [ { [ ] ] { { { [ { { [ [ [ [ x * * * * ] x ] ] ] ] [ ] x ",
"x ] [ ] ] ] * ] { { [ [ { ] ] { { [ { [ { ] ] * & 5 S ..a.D.S.7.} p : = = , , , , , : : : . = # [ { { { [ [ ] [ { { { { { ] m [ { { ] x x ] ] [ [ [ [ ] [ { ] x ",
"* x [ { { { [ [ { ] x x ] { { { { [ ] [ ] j * g 2 0 ` a.'.=X.XC.2.! C V V C A A C C C C D D i 7 j m j j m ] { { { ] ] ] ] m j ] [ { [ { { { { { { { { [ ] ] * * ",
"* x ] { [ x [ { [ ] ] x ] { { { ] ] m ] ] m g 5 i U :.S.{.=XY.G.t.:.....| X.....X.X...X.;.O.` l 2 + o + $ ] { { ] ] m m { { ] m ] { { { { [ { { { ] x [ [ * * & ",
"& x ] { [ * ] [ [ ] x * ] ] { ] ] ] ] * m d 4 Z Y o.u.L.J.Y.J.F.b.S.A.A.A.A.A.A.A.A.A.A._.D.p.) u :   : 2 g ] ] m ] m m { { ] m [ [ { { { [ ] { { ] ] [ [ ] * * ",
"* ] { { [ ] x [ { ] * x x x * x j [ { [ * + . U o.r.F.J.F.b.c.C.L.[.-X:X-X-XoXoX-X-X;X:X<X<X`.i.! D C D i 4 g * m ] { { ] * * { [ ] { { { x x [ [ [ { { { [ ] * ",
"* ] [ ] ] ] [ ] ] ] ] * ] [ ] ] m [ ] m n o . J o.x.H.H.b.v.b.K.].oX,X,X<X,X,X,X,X2X1X1X7X7XOX_.1.;.X.;.` i ; $ x [ [ x ] ] [ [ ] m ] { [ ] ] [ { { [ m ] [ ] ] ",
"* * ] ] ] ] [ [ ] [ [ * ] [ [ ] [ { m z n o   U o.t.H.F.v.b.P.].XX;X;X,X,X,X;X;X,X1X4X5X6X6X#X X`.A.`._.p.` w 5 & [ x z m { { m m m ] { { ] ] [ { [ ] * * { ] * ",
"* * ] x ] { { { { { { { * ] { [ [ { [ m d ; w ! *.t.F.F.b.K.].XX-X:XoXoXoX=XXXXXoX@X1X3X6X5X3X3X<X<X,X<X`.1.( i 2 n ] [ [ m m * * ] ] ] { [ ] { ] ] ] ] [ { * & ",
"* * * * ] [ [ [ { { { [ * m { { [ { x d 4 i I o.6.x.b.b.v.K.[.:X>X:XoXXXXXXXXX.XoX+X#X%X3X&X6X5X7X2X2X,X*XD.1.( u 5 % ] [ [ m z m ] m m ] m ] { { [ ] ] { { * % ",
"* * * * * ] ] ] { { [ * j ] [ [ [ m $ , i Y o.t.b.v.b.c.v.K.[.oX:X:XoXoXXXoXXXXXXXXXoX@X%X%X&X6X6X4X<X<X-X|._.1.( w ; z [ { m m ] ] ] x z m m [ { [ ] [ { { * & ",
"x * * * * * ] ] [ { [ [ ] ] [ ] * $ 3 t ! =.u.H.J.F.c.x.v.G.P.[.XXoX-XoXoXXXoXXXXX*XXXoX+X$X5X%X3X3X#X-X;X;X;X'.p.( i 4 m [ [ [ ] { { { m [ { m * m [ { { ] [ * ",
"x x x ] ] ] ] x ] ] [ ] ] ] j * d 3 i G o.q.b.J.J.C.v.x.c.b.K.L.].XX-X:X-XXXXXXXXX|.|.oX+X+X$X$X#X#X+XoX;X,X,X-X`.1.( p 4 & m [ { ] [ [ [ [ { [ * * { ] * * ] m ",
"* * ] [ [ [ ] ] ] ] * ] [ ] m $ 2 t U ' 4.t.b.C.F.b.b.v.b.v.b.G.P.[.-X-X-X-XXXoXXX*X|.oXoX+X:X+X+X+X X-X-X-X;X:X-X`.i.( > ; n [ { ] ] [ ] ] [ { ] x ] ] * ] * * ",
"% * ] ] ] ] ] [ ] ] m { [ { ] 5 : A Q *.e.v.b.C.F.b.b.b.b.v.x.x.G.P.[.XXoXoXoXoX;X;XoXoX=X=X=X=X=X-X-X-XoXoX;X:X>X|.S.:.P t 5 n [ ] { [ [ m m ] [ [ [ [ [ { x & ",
"& * ] x ] ] x ] ] m j [ ] ] ] # . C Q *.r.n.b.C.C.C.b.b.b.v.x.x.b.Z.P.[.XX;X>X+XoXoX;X+X-X=X-X=X=X=X-X-X:X:XoXoX*X].L.u. .I p 7 % & z m m m [ [ [ [ m z x [ ] z ",
"x x * ] ] ] * * * * j ] ] * j @ : A W  .8.x.b.C.C.b.b.b.b.b.b.v.v.v.Z.P.[.oX:XoXoXoXoXoXoX-XoXoX=X-X-XoX:X+XoX|.U.G.F.V.6. .I 0 - # & j n ] { { { [ z & z m m x ",
"* x [ { ] ] x * ] j j m ] * g 3 Z Q  .*.6.r.t.v.b.b.C.C.b.b.b.b.x.x.v.G.P.[.|.}.[.[.[.[.[.[.[.[.[.[.[.[.[.}.[.P.Z.V.F.J.b.5.~ X - % m [ ] m ] [ [ [ [ z z [ x * ",
"* m ] ] [ { ] ] ] m m ] * d u P ^ -.0.0.6.6.6.t.x.v.C.C.b.b.b.b.x.x.x.b.K.L.P.P.P.P.P.P.P.P.P.P.L.L.P.P.P.P.P.K.C.c.F.J.b.4.! X - j [ { [ m m m x m [ [ m ] x * ",
"* x * * ] { { { ] ] ] ] % 2 A Q <.k.k.e.4.=.4.6.r.v.C.C.b.b.b.b.b.b.b.b.Z.b.Z.b.b.Z.b.b.Z.b.Z.b.Z.Z.Z.C.G.b.b.b.b.b.F.H.x.=.Q 0 ; j ] [ [ m z m * z [ { [ m z x ",
"& * * ] ] ] ] x m m n * + : D  .j.B.M.r.=.O.=.5.6.t.v.b.C.C.C.b.b.b.b.b.v.c.x.x.v.v.c.x.v.x.x.x.x.x.x.x.x.x.c.v.b.b.G.H.x.6. .S u 5 g m m n z m & * m { { m & % ",
"& & * ] m * * * * * * & + : D $.j.B.M.y.=.=.=.3.5.6.t.v.b.C.C.b.b.b.b.v.v.c.x.x.v.x.x.x.v.x.x.x.x.x.x.x.x.x.x.x.b.b.F.G.v.t.=.~ H i 5 g m m m [ x x [ { [ z & % ",
"& * z x m * * * * * * & + = A / g.B.m.f.5.:.=.5.2.3.6.t.v.b.C.b.b.V.b.b.b.b.b.b.b.b.b.b.b.b.b.b.v.V.v.V.b.b.b.b.b.b.C.C.v.v.r.o.~ L t 2 j [ { { { [ [ { [ & & & ",
"& & x x x z z * * * j & o : D >.R.Q.W.n.6.4.:.=.=.=.5.q.t.x.b.C.F.C.C.C.C.C.V.b.b.b.b.b.b.b.b.b.C.v.V.V.b.b.b.F.F.b.v.v.t.u.r.=.' E t ; g m [ [ m n m [ [ [ m z ",
"* * x ] { [ z z n m m j @ : D >.E.)./.E.y.6.5.:.=.=.3.6.6.r.v.b.C.F.C.C.C.C.C.b.b.b.b.b.b.b.b.b.b.b.b.b.b.b.b.F.Z.b.v.t.q.r.q.:. .E t ; & z [ [ * & & m { [ m x ",
"x * z { { { x x ] [ { [ $ ; A #.R.^.(.Q.N.f.q.5.2.3.3.=.5.6.r.x.b.b.b.v.v.v.v.b.b.b.b.b.b.b.b.b.b.C.b.b.b.b.b.b.b.v.t.6.5.q.q.=. .U t ; $ m { { n & * ] { z z z ",
"* * x ] [ { { ] n n ] { & # a U $.R.^.^.Q.W.l.6.2.2.=.O.=.3.8.t.u.u.u.t.t.t.x.v.C.C.C.C.b.Z.C.C.C.C.C.C.b.v.u.t.r.r.7.4.5.e.h.y.-.Q r ; & [ { { [ ] [ { { m z * ",
"& * x ] [ { { [ z n m { x & d 3 H >.z.^.).!.E.y.6.5.=.=.2.3.5.q.6.8.6.6.6.8.t.x.C.G.C.C.b.b.b.C.C.C.Z.b.v.t.q.q.7.6.4.:.5.y.m.l.<.Q r ; n [ { { [ [ { { [ ] n z ",
"* x ] [ { { [ [ { m m [ [ m m $ ; D +.T.^.).Q.B.h.y.5.5.6.6.3.3.5.=.4.=.4.6.8.t.v.b.v.v.v.v.v.v.v.v.b.v.t.8.5.5.5.5.0.0.q.l.m.w.%.U w @ z [ { m m m ] ] ] [ m x ",
"* x [ [ [ { [ { { [ [ m [ [ [ z 8 t R >.R.Q.^.^.W.M.n.h.n.y.q.=.O.=.=.=.O.O.4.8.8.t.r.r.r.r.8.r.r.r.r.r.8.7.6.q.y.h.n.l.l.j.w.} Y i 4 # & m [ [ [ ] [ [ [ { m x ",
"* m [ x m { [ [ { [ ] m m [ [ m c 6 V J #.z.^.)./.W.M.M.M.l.y.5.=.=.=.3.=.3.5.6.6.6.6.6.6.6.5.6.6.6.6.6.6.5.5.e.l.M.E.I.n.d.@.L u 5 g z z m [ { { { [ [ { { ] x ",
"* x m g z m m m ] m & n n n ] ] M v 1 > D +.T.~.E.N.g.g.j.f.w.q.q.6.q.q.q.q.q.q.q.0.q.0.0.q.q.q.q.q.q.q.3.=.*.<.9.j.m.m.w.@.E w 4 n m { { [ { { { { { ] x [ ] x ",
"* x m m n m z m m n n m z c m ] M B 8 1 y R >.s.s.#.@.@.%.<.d.l.n.n.n.n.n.n.l.l.l.l.l.l.l.l.l.l.k.n.n.l.q.*.' ^ } @.,.,.$.Q H 1 d m { { m m [ [ ] x ] x * x x x ",
"* x { m m m m x n m m m z n m m c v h 9 a S R Q Q W G F G / <.k.I.I.B.M.M.M.N.B.M.N.N.N.N.M.N.N.N.B.I.B.9.} J D D U W W E H S h M ] { [ m m [ [ x x ] ] x & * x ",
"x m [ { { { [ [ m x z z & z [ m c v c c N a t X e e X X q H  .d.k.k.g.g.g.g.g.g.g.g.g.g.g.g.g.g.g.k.k.j.&.Q V X X r r r t a 9 b m ] [ { { { { { [ { { { { x x * ",
"x x [ [ [ [ [ { { [ m m m [ { [ n % c b N 8 1 > 0 , > > > V U / -.&.@.@.@.@.@.@.$.$.@.@.@.@.@.@.@.%.-.@._ S y 1 1 > X q 1 6 v m [ ] ] ] [ [ [ [ [ [ [ { { [ ] x ",
"z x { [ [ ] [ { { { { { { { [ { [ z & v 9 a 8 9 9 8 6 8 6 a A G G L G G G G G G G G G G G G G G G G L L H S 9 h 9 6 8 a 6 8 & [ { m m m z z x x x x x [ [ [ ] x ",
"z x x ] [ { [ m m [ [ { { { [ [ x z z % 8 9 v b v 8 9 f f 6 y e X e r r r r e e r r r r r r r e e e e 0 y 9 v v h h 9 9 d n m { [ * z x m x x z * z x ] ] [ x * ",
"z x ] [ [ [ m x x ] ] m [ { { m m ] m j g g B B B 9 9 h h 7 1 >   q 1 y 1 1 1 y 1 > y 1 < > > > > > > > a 9 N N k g g g M ] { { ] * * j m j j j * * ] [ ] ] x & ",
"* x [ { x z x ] ] ] * * ] { [ [ [ { [ ] ] M g B k 9 7 7 8 8 6 6 6 7 9 9 9 9 9 h 9 9 k 9 8 6 9 9 9 9 6 8 9 h h N k k b m [ { { { ] m j * * * * * & x [ [ ] ] x x ",
"z x { ] z & & x { { [ [ [ [ ] ] { { { { { m M j k g h 7 6 9 9 h h h h h v N v b v v h h 7 8 8 9 B b B b b b h f b M m ] { { [ { [ [ j * * * j ] x x ] ] [ [ ] x ",
"z x [ ] m m z m { { { { { ] ] [ { [ { { { m j j ] m g f 8 h h h v v v h h v v B b v v h h h 9 h B B B b b c n n M m ] [ [ ] m ] { { ] m j ] ] ] [ [ ] ] ] [ ] * ",
"* x { { { { [ [ [ [ * x ] { { { { [ [ [ [ j * ] [ [ m M b v N v k k b h 9 h h h v h v B v v v v v v 9 9 g n [ [ [ ] ] ] m m x m { { [ { { { { { { { { [ x [ x * ",
"* * ] { [ m [ { [ ] ] * ] { { { ] m j m { { ] m m { { m M c b M M g g g g d d d g g g b g d g c v c f 8 c [ { [ ] ] m m [ { [ m ] { { { { { [ { [ [ ] [ [ x * % ",
"* x ] { ] x ] [ [ [ ] x ] [ { ] m ] m ] [ { ] m m { { m m n z n m M j m m j * * M n m m n g n n x z g & n m [ [ m ] m m { [ ] m ] [ { { [ ] ] { { [ x { { x * & ",
"* ] { { [ x x [ { [ * * x * * * m [ [ { [ j * { { ] { { [ m z [ [ ] { { [ ] { { [ [ [ { ] m n [ [ m z z n x z x m ] { { [ n z [ { ] { { { ] x [ [ [ { { { [ ] x ",
"* x [ [ ] ] ] ] ] ] x z ] ] ] ] [ [ [ m m [ [ { m m ] { { m m { [ { [ x x { { { [ [ [ [ [ m x [ [ [ x z ] ] ] ] ] ] ] m ] ] [ [ ] m ] { { ] m ] { { [ x ] [ [ x ",
"* z ] ] ] ] [ [ x { [ x [ { [ ] [ [ m n [ [ [ m n n m { { [ m { { [ ] x * { { { x [ m m m [ [ [ m [ [ x ] ] { ] ] { m x ] [ { m * m ] [ { ] ] { { [ ] * * [ [ * ",
"* x x x ] { { { { { { { x x { [ m { [ [ [ m m z m m m { { [ { { { ] x ] { ] ] ] [ m m m [ { { { { { [ { m m { [ ] { { ] [ ] m * m ] ] ] { { ] { ] ] ] ] [ { x & ",
"* * z x ] [ [ [ { { [ ] x ] { { { { [ [ [ [ m n m [ m m m m m { { [ ] [ { { x * [ m x z m [ [ [ { { [ [ m m { { { { { ] { ] m x m ] m m ] x ] { { [ ] ] { { * $ ",
"* * * * * ] ] ] { { [ x x [ [ { [ [ m [ { { [ m [ [ m m m n m { [ { ] [ [ [ m m [ m z z z m m [ { { [ x m [ [ { ] ] ] ] { { ] m ] [ ] x x x m [ { { ] [ { [ * & ",
"x * * x * * x ] [ [ [ ] x ] ] ] x x n m { { [ m [ { { [ m { { m x x [ { { [ [ { [ m & z z z x [ [ [ [ x m ] [ m x m x m { { ] ] ] { { [ ] { { ] * m [ { { ] ] * ",
"& & & * x * x x x x * x x x x * z x x x x x m x x x x m m m m n * & x x z z m m m z z z z z z x x x z x x z x z * * x x m m m ] ] ] ] x x x ] x * * x x * * * & ",
"$ % * * x * * * & & & * * * & * z z x z & & x x x z & z z z n n & % z % % % & z z & & & z z z & & % & * z * & * x x x x & % * x * * * * * * * x & % * & % & % $ "
};
