/* XPM */
static char *__resized[] = {
/* columns rows colors chars-per-pixel */
"80 80 207 2 ",
"   c #253C2B",
".  c #283D29",
"X  c #243E36",
"o  c #26461C",
"O  c #2A4C1C",
"+  c #2F5316",
"@  c #2E531D",
"#  c #31561C",
"$  c #335C1D",
"%  c #36621C",
"&  c #39661C",
"*  c #3D6D1D",
"=  c #3F711E",
"-  c #274523",
";  c #2A4C24",
":  c #27442B",
">  c #2A452D",
",  c #2B4B2B",
"<  c #324B27",
"1  c #314D2C",
"2  c #2E5323",
"3  c #2D532C",
"4  c #315422",
"5  c #345D23",
"6  c #395B26",
"7  c #35542B",
"8  c #36592C",
"9  c #3A5D2B",
"0  c #254433",
"q  c #2B4532",
"w  c #2A4A35",
"e  c #26453C",
"r  c #284739",
"t  c #2B4A3A",
"y  c #314D37",
"u  c #2C5236",
"i  c #355433",
"p  c #345736",
"a  c #345C31",
"s  c #376222",
"d  c #3A6423",
"f  c #3D6B23",
"g  c #3D642C",
"h  c #3F692A",
"j  c #3F7220",
"k  c #3E6330",
"l  c #41751F",
"z  c #43781F",
"x  c #406E26",
"c  c #40672E",
"v  c #416B2C",
"b  c #417620",
"n  c #457C21",
"m  c #44722A",
"M  c #406631",
"N  c #416931",
"B  c #274541",
"V  c #284641",
"C  c #2B4C44",
"Z  c #2A4C49",
"A  c #314D41",
"S  c #2C5244",
"D  c #2C524E",
"F  c #2E5B49",
"G  c #335A45",
"H  c #325848",
"J  c #2D5452",
"K  c #2F5B54",
"L  c #315B56",
"P  c #325D59",
"I  c #36654A",
"U  c #386C56",
"Y  c #34635C",
"T  c #39635D",
"R  c #386A5D",
"E  c #3B715D",
"W  c #356865",
"Q  c #346966",
"!  c #3A6C64",
"~  c #346C6A",
"^  c #3A716A",
"/  c #3B7468",
"(  c #356B70",
")  c #3B7973",
"_  c #3A7779",
"`  c #457C69",
"'  c #417E72",
"]  c #478022",
"[  c #498423",
"{  c #4C8924",
"}  c #3F817B",
"|  c #448474",
" . c #4B8773",
".. c #41857C",
"X. c #458B7A",
"o. c #488D7C",
"O. c #528B75",
"+. c #4A937C",
"@. c #3E7983",
"#. c #418581",
"$. c #438B83",
"%. c #458D8A",
"&. c #4B9681",
"*. c #4F9D85",
"=. c #4E9E88",
"-. c #509F85",
";. c #599E88",
":. c #479990",
">. c #4A9D93",
",. c #45939A",
"<. c #609E87",
"1. c #4CA185",
"2. c #4FA088",
"3. c #50A186",
"4. c #51A38A",
"5. c #5CA28C",
"6. c #54AA8E",
"7. c #57B08F",
"8. c #4BA39A",
"9. c #4BA499",
"0. c #55AD92",
"q. c #51AA99",
"w. c #56B094",
"e. c #5AB594",
"r. c #5BB996",
"t. c #56B29B",
"y. c #58B59C",
"u. c #5DBC9A",
"i. c #64A38B",
"p. c #67AE93",
"a. c #6CB598",
"s. c #72B697",
"d. c #4699A6",
"f. c #4EABA8",
"g. c #52AFA5",
"h. c #53B5A7",
"j. c #57B9A7",
"k. c #59BAA4",
"l. c #59BEAB",
"z. c #4BA1B4",
"x. c #56B9B3",
"c. c #58BFB1",
"v. c #5EC49C",
"b. c #5EC89D",
"n. c #61C49C",
"m. c #63C99F",
"M. c #5BC2AC",
"N. c #57C0B3",
"B. c #5BC5B3",
"V. c #5EC9B5",
"C. c #5DCBBC",
"Z. c #65CCA1",
"A. c #6ACEA3",
"S. c #75CBA5",
"D. c #66D1A3",
"F. c #6AD2A6",
"G. c #6CDBAA",
"H. c #71D3A7",
"J. c #74D5A9",
"K. c #75D9AC",
"L. c #79DAAC",
"P. c #61D1BF",
"I. c #76E5B1",
"U. c #52B7C1",
"Y. c #5ECDC1",
"T. c #58C6D4",
"R. c #61D2C1",
"E. c #62D6CA",
"W. c #62DAD6",
"Q. c #67E2DB",
"!. c #61DBE8",
"~. c #67E7EA",
"^. c #67E8F1",
"/. c #87D5AF",
"(. c #8BD4AA",
"). c #88D8B4",
"_. c #8CDBB4",
"`. c #94DFB6",
"'. c #85E2B3",
"]. c #89E5B6",
"[. c #89EAB9",
"{. c #94E6BC",
"}. c #94EEBD",
"|. c #97F0BF",
" X c #9AF1BF",
".X c #A9EDBB",
"XX c #A5F3BF",
"oX c #ABF4BF",
"OX c #B6F8BF",
"+X c #C9FCBF",
"@X c #D6FEBF",
"#X c #94EEC0",
"$X c #96F2C1",
"%X c #9CF3C2",
"&X c #9DF9C6",
"*X c #A0F6C4",
"=X c #A6F9C9",
"-X c #A3FCCA",
";X c #B9FCC6",
":X c #B2FCCC",
">X c #ACFCD1",
",X c #B5FCD4",
"<X c #C3FDC3",
"1X c #C9FDC4",
"2X c #CCFFCB",
"3X c #D2FEC3",
"4X c #D8FFC3",
/* pixels */
"+ % l * * l l l l * % $ ; : ; $ * l l l & * l z z l l l * * * l l l l * l z z * % * l * * = = l l * * l z = z z = = = = = * = z l l l l * * l l l l l l l z & $ ",
"& * l l z b = * l = & $ , 0 - 5 l l l l * l l z l l x l l z z n z l l l * z z z b l l l l l = = l * l z b l z = = z = = = = z z l l l x l l z z z l l l l z l * ",
"z z l z n n l l l l * 5 u r , s l b l l l n n b l z * * l n { { [ [ l * z z { { { n b n ] z l = = z z ] ] n n j = z = = = n z z l b l l l ] { { [ [ l * l n z l ",
"l z [ { { n l b z l = & 5 3 5 j n n b l z n { [ n z ] [ [ n [ [ [ [ [ z z ] ] [ [ [ [ { [ ] z l z l z z [ [ { { [ [ z = n [ [ [ [ n n [ z ] ] [ [ [ z l l [ z l ",
"* l n [ [ { [ n ] n b b j j j n [ [ [ n { { { { { { { { [ [ n n n n [ [ n n [ [ n [ n n { { [ n [ z n [ { { [ { [ [ ] ] { { { { { { { { [ n n n z ] [ [ z [ z l ",
"l l l l n { { { [ ] ] [ { [ n n n [ { { { { { [ { { { [ [ n n z * l [ { [ z [ { [ n b b n { { { [ [ ] [ { [ n n [ [ { { { { { { { { { [ [ n n z l l [ { [ z l z ",
"* * l z n n n n n j j b j n [ [ [ [ n b n n n [ [ { { [ [ z l b * l n { { n l z n n b n n n n n n b j n b n [ [ [ [ ] z b n ] [ [ { { { [ b b n l l z { { n l & ",
"* l l z n b b b j j j j j j n [ { n n n n b z l n { { { [ [ n [ b b [ { [ l l l n n b n n b * b = = = j = = n [ [ [ n z n b n = n [ { { [ [ n [ l z [ [ [ b * % ",
"* = z ] n = = = = = j = = = = = [ n [ { { n b l z [ { { { { { { [ [ [ { [ l b n n n b n n l * l j = = j = j j b [ n [ { { ] b = b [ { { { { { { [ [ { { [ * * * ",
"* = = n n j = = = = = = j ] = [ { n { { { [ n [ { { { { [ [ [ [ n l n [ { n [ [ n b l n n b l * = = j = b n b n [ [ { { { [ n ] [ { { { [ [ [ [ b l z [ [ [ z l ",
"= = z ] [ ] b = b n n b n ] { { { [ { { { { [ { { { { { z n [ { l & * n { [ { { [ n l n [ [ b l b n n b n ] [ { { [ { { [ [ [ { { { { [ z z [ [ l & * n { [ n z ",
"z = b [ { { n b [ [ { { [ [ { { { n { { n n { n n { { n l [ { { b * = [ { b b { { n l { { [ n n ] [ { { [ ] { { { ] [ { n ] [ ] [ { { [ l [ { { b * = [ { l l l ",
"= = = ] { [ { ] j j [ { ] ] { ] n { { { { { { n { { { { [ [ { { [ n [ { [ n n [ n n b n { { { [ = b [ { [ n { [ n [ { [ [ { { [ [ { { { [ { { { [ ] [ { [ n l * ",
"* = z z [ { { { z j n { ] n { n z { n n { { { n n { { { { { { { [ { { { [ [ n [ n n n n [ { { [ z = ] { [ n [ n n { ] n [ { { [ [ { { { { { { { [ { { [ [ [ n l ",
"= z [ [ { { [ [ { ] n [ [ ] ] { { n l l n [ { n b n [ { [ { { n n n n n n [ [ { [ n [ { { { [ [ { n n [ [ n [ { { ] b * n { { z b n [ [ [ { [ ] n n [ ] n [ z z ",
"= ] [ [ { { [ [ { { [ ] [ [ [ { [ l l x l n n l l n n n z [ [ [ [ [ [ [ { { { { [ [ { n [ { [ [ { { [ [ [ [ [ { { b = = l n n = l b n n n n [ [ [ ] [ [ { [ [ z ",
"= z [ z z { [ [ [ { [ b n [ { { { b = b j = n = * f * f * * b [ [ [ [ { { { { { ] [ [ b ] [ [ [ { { [ b ] [ { { { j = j = = = n j ] n j n n [ { { { { [ { { ] z ",
"z z z = = ] ] ] [ n = j = b ] { { [ ] n ] [ [ = $ # 4 # $ 2 5 & ] { { n b [ { { [ ] n = = n n ] ] b = = = = ] { { { ] ] [ { { { [ [ { { { { { [ [ { { ] l [ ] z ",
"= z [ = j z z b n = b n = = ] { { { [ ] n n n s 3 r r r w r w 3 f z ] n l b ] [ [ [ ] b z z n n b z b n = = n { { { ] ] ] ] { { { { { { ] [ [ [ ] n [ = l z z z ",
"= z { [ ] n n z b z n ] j = [ [ { [ [ [ b = f a H L J D J K F u 2 % j j * & = j = j j = f * = b b b n ] = = ] { { { { [ n j ] [ { { { [ = ] [ { = = ] [ n = = l ",
"z ] [ [ { { [ [ [ z = = = b { [ ] [ [ [ j s k I ` o.| ' ) X.| U p 2 2 @ @ o O @ @ O O ; @ $ f ] [ b = = * = { [ ] [ [ { { { { ] ] [ [ { { { { { { { { { [ ] z z ",
"= z [ [ [ [ [ [ [ [ n n b ] { { [ j ] n s 3 G } 4.r.6.-.-.7.7.+.U u : 0 w q w w w w r r t 3 s b [ [ ] j n ] { { [ = ] { { ] ] ] [ [ ] ] [ ] { { [ [ [ [ { [ ] z ",
"= z [ [ ] [ [ [ { { { { { { { { [ j n j O r Y +.u.Z.n.r.r.Z.m.7.| Y J K T T T T T Y R ! T H a f n z z ] { { { { { = z ] n = = [ { ] ] = = = ] j z z = [ { ] z z ",
"z z ] [ [ [ [ ] ] [ { { { { [ ] n n j & o r Y o.w.Z.n.n.m.F.D.v.1.X. .+.<.<.i.<.;.;.5.p.i. .I < o o O % j { { ] ] = n = = n [ { { = = z ] z n j = z ] ] [ ] z = ",
"l z ] [ [ [ z z ] n n n [ { [ n ] [ ] * ; w P ) 4.u.n.Z.D.D.D.b.r.r.n.S./._.(.(././.).{./.s.O.A     r 1 f n { z ] ] z j ] [ { { ] = = = n = j = = = ] ] ] [ z = ",
"= z [ { z = z ] ] ] z = n { [ [ [ [ [ j 2 w J / &.0.u.Z.Z.Z.b.Z.D.K.[.|.-X-X-X-X=X:X:X,X:X{.s.` Y ! ` H a f n [ [ { [ [ { { { { { = = = = = = = = = [ [ ] ] z z ",
"l z [ [ z * = z { { [ [ [ [ n [ { { { ] $ > Z W o.0.u.Z.D.m.m.F.K.I.$X&X&X-X&X-X:X;X2X2X1X=X(.a.5.p.i. .G ; $ z { [ { { { { [ { { [ = = = = j = z ] z [ [ [ ] = ",
"l z [ ] ] z = z { { [ { { [ ] [ { { { j 2 t J / &.w.v.n.Z.n.m.J.'.}.&X&X&X$X&X-X:X<X4X4X3X<X.X`.).{._.s.` G ; d ] { { { { ] z ] { { [ z j ] { { [ [ [ ] ] [ ] z ",
"l z [ { { { { [ { [ n b ] [ { { { ] j s , F ! ..4.r.n.m.m.v.m.J.].%X*X*X$X#X}.%XoX;X+X@X4X3X1X;X>X,X=X_.a. .H 7 j j ] [ ] = j { [ [ { { { { { { { { { [ ] ] = = ",
"* z [ { [ z [ { [ [ ] = ] { { { n * @ - S R X.2.e.n.m.m.b.v.m.J.].*X=X*X$X}.}. X XoXOX+X3X4X4X3X,X,X=X#X_.a.` G 3 $ = ] [ { { = ] { { { { [ [ { [ [ ] [ [ z = * ",
"= z [ [ [ l ] [ [ [ b z ] [ [ n f s u S R X.2.r.n.m.Z.m.b.v.m.J.]. X%X%X X X}.$X}.$XXXOX+X3X@X4X;X;X*X%X&X_.p.` S ; % = { { ] = ] [ { { { ] ] { { [ z { [ z = = ",
"l z { { [ ] z ] { b j j z l * % 5 u U } &.6.e.v.m.D.Z.m.m.v.n.F.L.'.}. X%X%X$X X}.}. XXXOX+X+X+XOX=X%X&X>X=X_.p.) u 3 f = = = { [ [ { { { z z [ [ [ { { { [ ] z ",
"= z [ [ ] z ] ] ] ] ] = ] n % 2 u E +.7.w.e.e.u.m.F.D.m.m.n.m.m.A.J.'.}. X*X%X X|.}.|. XXXoXOXOXXXXX X&X>X=X|.A.-.E F 3 s = ] [ ] n [ { { ] n [ [ [ { z = { [ z ",
"= z z ] ] ] { [ z { [ = ] n % , S ` 4.u.r.6.6.w.n.m.D.m.m.m.m.m.n.A.L.]. X%X X X X X|.|. XXX X%X X X X%X X X[.I.n.o.Y e ; * [ n b b ] [ [ [ ] { { { ] = = { [ = ",
"= l ] ] [ { { { { { { { n j f 2 u U  .1.6.6.6.6.r.v.m.m.D.m.m.v.v.v.m.J.'.}. X%X X*X%X|.$X$X$X$X$X%X%X X}.[.I.I.F.4.^ V - % ] = b ] n [ { [ { [ [ ] ] ] { { = = ",
"= = = = n [ [ [ { { { ] n j n b d k I /  .-.6.6.6.e.n.m.D.m.m.m.v.v.m.A.J.'.}.%X*X&X%X|.%X$X$X%X%X*X X}.'.L.G.I.D.3.! e ; % ] j n [ n n ] n ] { { [ ] [ { { = & ",
"= = = = j ] ] [ { { [ = n [ [ [ j 2 u K ) &.6.6.6.6.r.n.m.m.m.m.m.n.n.n.m.L.].}. X X|.|.}.}.}.}. X%X}.].J.A.M.D.n.3./ S 3 s j j n [ ] n b n n [ { [ ] [ { [ = & ",
"z = = z = = z [ { [ [ [ n ] n = 5 3 K ( $.=.4.4.3.4.6.e.n.n.A.m.Z.n.v.v.n.H.L.'.'.'.'.'.'.'.'.'.'.].'.L.A.n.b.Z.m.r.+.` G 5 s j n [ { [ n [ { n = = { { { ] ] ] ",
"z z z n [ ] n ] ] ] ] ] [ b & 2 u R } 9.q.6.3.3.3.4.4.6.r.n.n.A.Z.m.m.n.m.m.m.J.J.J.J.J.H.H.J.F.H.J.J.A.Z.n.n.Z.m.m.r.+./ I 3 s = [ [ [ [ [ [ [ z = { [ = = ] = ",
"= = ] [ [ [ ] ] n b n [ [ b # : D #.g.V.M.t.3.=.3.3.3.4.6.e.n.m.m.Z.m.m.m.m.m.m.m.n.n.m.m.n.m.m.m.n.m.m.Z.m.Z.n.Z.F.F.n.*.Q e 2 * ] [ [ [ [ [ { ] z [ z = ] = = ",
"% = [ ] ] [ ] [ [ n n { { j $ 0 J %.c.C.V.y.3.1.=.4.=.=.4.6.r.n.m.m.D.D.Z.b.b.v.v.v.v.v.v.v.v.v.b.v.n.n.n.m.m.m.Z.G.G.D.6.^ e 2 * [ [ [ [ n n [ [ [ [ n [ { z * ",
"= = ] z ] ] z z ] n n [ [ = @ : J %.x.C.V.t.3.1.-.4.-.=.4.4.6.r.n.m.Z.D.Z.m.b.v.b.v.v.b.n.m.b.b.v.b.n.m.m.m.m.m.m.G.G.Z.6.^ V - $ l n n n n [ [ [ [ n l z { z l ",
"z z = ] ] n = = = = b ] ] = @ : D #.f.N.M.y.-.-.3.4.4.3.3.=.-.6.r.n.m.n.v.b.m.m.m.m.m.m.m.m.m.m.n.m.m.m.m.m.m.m.m.F.D.u.+.W e - $ l l = b [ { { { [ l l l n z z ",
"= z [ [ [ [ = z n z = ] { z $ : D #.h.V.M.w.+.*.-.4.4.4.4.=.=.4.6.7.r.r.r.a.m.Z.Z.Z.m.m.m.m.m.m.m.m.m.m.D.m.Z.F.F.D.m.7.o.Y e 2 & z [ [ [ n n [ [ [ [ z z n z l ",
"= n ] [ [ { [ ] [ n n ] { ] 5 : D #.g.B.M.w.3.-.=.4.4.4.2.2.2.2.6.6.4.6.6.e.n.m.Z.Z.m.m.m.m.m.m.m.m.m.m.m.m.D.m.Z.Z.u.4.| Y e 2 * [ { { [ n n n z n [ [ z [ z l ",
"= = = j ] { { { [ [ ] [ { n @ : D #.g.B.B.y.6.4.4.4.4.4.6.2.6.4.3.3.=.=.4.6.r.n.m.Z.m.m.m.m.m.m.m.Z.m.m.n.n.n.n.v.u.0.*.) P e 2 x [ { { [ n z b l l [ [ { z z z ",
"= = = n ] ] n n b b b b n = $ : Z } q.B.V.l.t.q.4.=.-.4.2.4.4.2.3.3.=.=.4.4.0.r.v.m.Z.F.F.A.m.F.D.D.D.m.u.e.e.e.e.w.6.+.' P e 3 f { { [ [ n b n l l n { [ z l & ",
"* * = ] n = j j j = j = = & @ : D } g.C.R.C.j.t.6.4.-.4.4.4.4.2.3.2.3.=.-.4.4.6.e.n.Z.Z.m.m.m.m.m.m.m.n.e.6.6.6.6.0.6.=.| P e - & { { { [ [ n n z z [ { [ l & % ",
"* = l z n = = = = j j = = & O   J %.x.W.!.E.c.k.4.-.-.=.4.4.4.4.4.4.=.4.4.=.=.4.6.u.v.v.v.v.a.v.n.n.n.e.6.4.&.*.-.0.t.0.$.T e - $ [ { { { { { { { [ { { [ l * x ",
"* * z z n z = * * l = = b = +   J ,.U.^.~.E.l.0.;.*.-.-.4.4.4.4.4.4.4.4.4.-.-.=.6.6.e.w.w.e.e.e.7.e.e.7.6.4.*.+.-.t.M.M.>.~ e - * [ { { [ [ [ [ z l l [ { n b z ",
"= = z ] [ [ l l b n n b n b + - J ,.T.^.^.W.B.y.6.-.-.4.4.3.2.4.4.4.4.4.4.4.=.4.4.6.6.6.4.4.6.4.4.6.6.6.4.=.-.-.6.k.B.l.>.W e 2 x [ { [ z z [ { l * l z [ [ z z ",
"z l z [ { { z z [ [ { { [ b & 3 J @.z.U.!.W.E.B.t.4.3.-.3.3.3.3.4.4.4.4.4.4.4.4.3.3.2.2.2.1.=.=.-.=.*.*.-.-.6.0.y.j.h.8.#.Y t 4 x { { [ l ] { { l & l [ { z l l ",
"* = z ] { { { ] l b [ { [ b b d i P ' ,.U.!.~.W.N.0.3.3.+.3.=.3.-.4.4.4.4.4.4.4.2.2.2.2.=.=.=.2.-.=.=.*.+.3.0.M.B.h.:.' W H i x b { { { [ [ { { [ z [ { { z l l ",
"* = z z [ { { [ l j n { ] b n h 9 y Z ( z.T.^.~.E.l.t.6.3.3.2.2.4.4.-.4.4.4.4.3.4.3.2.2.4.4.3.3.4.4.4.4.3.6.k.B.c.>.^ J y p c x n [ { { { { { [ [ { { [ [ [ z l ",
"= z ] { { { [ [ { ] n [ [ n n m v 7 > V ( d.T.!.!.W.C.l.e.w.q.6.4.-.-.-.-.3.3.3.3.3.3.3.-.3.=.;.3.4.6.e.y.j.j.h.8._ J X < 9 m x l n [ [ [ { { [ z n [ n [ [ n z ",
"= z { ] { { [ [ { { [ ] [ [ n m c 6 < q Z ( d.T.~.~.Q.P.M.M.l.t.6.-.-.-.-.-.-.-.-.1.*.3.-.-.=.=.3.3.6.k.Z.B.h.:.) J t < 7 6 v & l z n n n n [ [ [ [ [ [ [ { n z ",
"= ] [ b n { [ [ [ { [ b ] n n m c 9 9 7 1 C ~ d.T.^.W.Y.N.V.B.l.h.6.6.4.6.4.6.4.6.6.4.6.4.6.4.4.2.1.2.t.B.c.>.) J y 1 8 9 9 g s x n n n z n [ { { { { { [ { ] z ",
"= b b = l n n ] [ b = = = j b h M v v 9 < < A _ z.U.z.8.g.N.Y.R.B.k.y.k.k.k.k.k.k.j.j.k.j.j.Z.k.q.*.X.} =.>.' L y 1 6 g g k g m n { [ { { { { { { { { ] z [ ] z ",
"= z ] b l b z n n b z n = * f v c c v g 6 < i P ~ _ ( ( } g.C.E.R.C.N.B.N.V.V.B.B.V.B.B.V.C.P.C.h.X.~ P Q Q P G 7 9 g g 9 g h m n { { [ n [ [ [ z z ] z z z z z ",
"= ] { ] n n n n b b n ] = = = m c c c c d g 9 y S Z e V W $.h.Y.V.c.N.c.c.c.c.c.c.c.c.x.c.N.C.N.8.) J X B V A p c c v g 9 g g b [ { { [ b n [ [ z l ] ] z * = z ",
"z ] ] [ { { [ [ ] b l = = = ] b x g g M v v c 7 : 0 . q H ! $.>.>.:.:.:.:.:.:.:.:.:.=.:.:.>.8.>.} Y t   . q i 9 g c c c c m b b n [ [ { { { { { { { { { { ] z z ",
"= z [ [ [ [ [ [ [ ] ] n n ] { [ b d 9 c c c g 9 8 4 < 7 y H Y ~ ~ W W W ~ W W W W W Q Q Q ~ ~ ~ Y G i 7 7 8 9 c c 9 g c h f n n [ [ [ n [ [ [ [ { [ ] { { ] z z ",
"= z { { [ [ [ [ { { { { { { { { [ * d g 9 9 9 g g g g d i y V B B B V V B B B B V V V V B V V V t p k v v N c c g 9 9 g d * b { { n z z l l z z z z l [ { ] ] z ",
"l z ] ] [ [ [ ] ] [ [ { { { [ ] z l f 5 9 9 k N c 9 g g 8 1 y q . X q q q q q q q q q q w q q q 1 9 c m m v M M 9 9 d s f b [ { [ l z z z z l l l l z ] ] ] z = ",
"l z ] [ [ ] ] z z ] ] z [ { [ ] z [ b j h g k N k 8 9 9 9 7 1 1 < < 7 7 7 7 7 8 8 7 7 8 7 7 1 7 7 9 9 d c v c 9 k h f j n ] [ { ] j j j ] = j = * = [ ] ] ] z = ",
"= z [ { z l l ] ] ] = = ] { [ ] [ [ [ ] n j h h g g 8 8 8 6 8 6 6 9 g h c g v c c g c c c 9 6 c c c 9 6 g c c c h j n [ { { { { [ b = = = = j = = z [ [ ] ] z = ",
"= ] [ ] z * * z { { [ [ { [ z ] { { { [ [ m j j b j g 7 i 8 9 g g g c c c c c N c c c c 9 7 9 9 c M M c v b f x j [ [ { { { [ [ { [ j = = = n n ] z ] ] ] [ ] z ",
"l z [ ] n z z z { { { { { [ [ { { [ { { [ n b ] ] b f 9 9 g g g g c c g g c c v c c c c c 9 9 9 c M c c b n z z ] [ [ { [ ] ] [ { { [ j = ] ] [ [ [ ] ] ] [ ] z ",
"= ] [ { { { [ { { ] ] ] ] { { { { [ ] [ ] n j ] [ [ b x v v m v v m f g s g h f d x x v x v v x x g g d b { { { [ [ [ [ [ n = [ { { [ { { { { { { { { ] z ] z = ",
"* = ] { [ z [ { ] ] = = ] { { { ] n n n [ { [ n n { [ b m b b n b m f b b f s f x x x b l x b n x x x & n { { { ] n n n [ { [ z ] [ { { { { { { [ [ ] ] ] z = * ",
"* z [ { ] l ] [ { ] ] = ] [ { ] n ] n n { { ] n n { { [ n b b n n n b n [ b b z z z z [ z l z n z z l l n [ [ n n ] n ] { [ [ n ] [ { { { [ ] { { [ ] [ { ] = * ",
"= ] { { [ ] z ] { ] = n = = = = n [ { { [ j = [ { n { { { n n { [ [ { { { [ { { [ [ { { n z z n { z l b b b b n n { [ { [ j = [ { ] { { { ] = ] [ [ { { [ [ ] = ",
"= z { [ ] z [ ] ] ] z = ] [ ] ] [ [ n n n [ [ [ n n [ { { n n { { { [ z z [ { { [ [ [ [ [ z z [ [ [ z l ] [ n n ] [ ] z ] [ ] [ n n [ { { ] n { [ { { n ] [ [ ] ",
"* z z ] ] [ { [ z { [ z [ { [ [ [ { n z n { [ n b n n { { [ n { { [ ] z z { { [ n n n [ n [ { [ z { [ z [ { [ { [ { ] = ] [ [ ] = n ] { { [ [ [ [ [ ] = = { ] = ",
"* l z ] [ { { { { { { { ] = { [ n { { [ [ n n b n n n { { [ { { [ ] z ] [ [ [ n [ n n n [ { { { { { { { n b { [ [ { { ] [ ] ] = = ] ] [ { [ [ { [ ] ] ] [ { = * ",
"= = l z z [ [ [ { { { ] z z { { { { [ [ [ [ n z n [ n n n n n { { [ ] ] [ { z z [ n l l n [ [ [ { { [ [ b n { { [ [ [ [ [ [ z = ] [ ] = ] z ] [ { [ ] ] { { = & ",
"= = = = z ] ] [ { { [ z z [ { [ [ [ n [ { { n n [ [ n n b b n { { [ ] [ { [ n n [ n l l l n n [ { { [ z z [ [ { [ { [ [ { [ ] z ] { [ z z z ] [ { { [ [ [ { = * ",
"z l = = = = z [ [ [ [ ] z ] [ ] z n b n { { [ [ [ { { [ [ [ { n l z { { [ [ [ { [ n * l l l z [ [ [ [ z z ] [ n z = = ] { { { [ ] { { [ ] { [ ] = = { { [ [ ] = ",
"* * * z z = z z = = z z z z z = l l z z z n z z z z n n b n n n * * z z l l z n n l l l l l l l z l l z z z z l = = z z n z ] ] z ] ] z z z ] z = = z = = = = * ",
"% & * = = z = * * * * = = = * = z l z l * * z z z l * l l l b b * * = * % & * l = * * l l l l * * * * * l l * = z z z z * * = = = = = = = = = z = & = * & & & % "
};
