/* XPM */
static char *__resized[] = {
/* columns rows colors chars-per-pixel */
"80 80 211 2 ",
"   c #1D3723",
".  c #213D24",
"X  c #273C2C",
"o  c #223D33",
"O  c #253C36",
"+  c #23411F",
"@  c #2B4C1E",
"#  c #2E531C",
"$  c #30551E",
"%  c #335C1D",
"&  c #36621C",
"*  c #39661C",
"=  c #3C6D1D",
"-  c #3F711E",
";  c #244223",
":  c #2A4624",
">  c #2B4C23",
",  c #26452A",
"<  c #2B422D",
"1  c #2C4C2C",
"2  c #324B25",
"3  c #314C2B",
"4  c #2D5124",
"5  c #2D532C",
"6  c #315524",
"7  c #345C23",
"8  c #3A5F27",
"9  c #35542D",
"0  c #365A2B",
"q  c #3A5C2C",
"w  c #254334",
"e  c #2B4231",
"r  c #2A4A33",
"t  c #25423B",
"y  c #2B4638",
"u  c #2B4C3B",
"i  c #314F37",
"p  c #2E5334",
"a  c #2D553A",
"s  c #325A35",
"d  c #3A5C30",
"f  c #345739",
"g  c #366223",
"h  c #3A6524",
"j  c #3D6C22",
"k  c #37642A",
"l  c #3D632C",
"z  c #3F692A",
"x  c #3F7220",
"c  c #3E6332",
"v  c #35613C",
"b  c #41751F",
"n  c #43781F",
"m  c #406E25",
"M  c #40672F",
"N  c #416B2C",
"B  c #417621",
"V  c #457C21",
"C  c #447528",
"Z  c #406632",
"A  c #426B32",
"S  c #284847",
"D  c #2B4E4A",
"F  c #314F42",
"G  c #2E5343",
"H  c #2D534C",
"J  c #325546",
"K  c #325A4C",
"L  c #2E5552",
"P  c #2F5852",
"I  c #325C53",
"U  c #325D59",
"Y  c #35664C",
"T  c #376655",
"R  c #3D6A54",
"E  c #34635B",
"W  c #396B5E",
"Q  c #3B735D",
"!  c #325E60",
"~  c #356663",
"^  c #376B64",
"/  c #396D62",
"(  c #396A66",
")  c #356D68",
"_  c #3B7365",
"`  c #36716C",
"'  c #3B756C",
"]  c #3E7A6B",
"[  c #346E72",
"{  c #3D7A73",
"}  c #397875",
"|  c #426C54",
" . c #447B6E",
".. c #417E72",
"X. c #4A7D72",
"o. c #478022",
"O. c #498423",
"+. c #4C8924",
"@. c #3E817C",
"#. c #438374",
"$. c #458975",
"%. c #47877A",
"&. c #498B7B",
"*. c #518676",
"=. c #538B7B",
"-. c #4A937D",
";. c #4E9C7D",
":. c #5A937B",
">. c #3B7E84",
",. c #3D808A",
"<. c #42898D",
"1. c #4B9682",
"2. c #4E9C85",
"3. c #46948A",
"4. c #4F9F88",
"5. c #569483",
"6. c #509F84",
"7. c #509F88",
"8. c #499E95",
"9. c #4FA089",
"0. c #50A186",
"q. c #51A38A",
"w. c #54AA8E",
"e. c #59AF8F",
"r. c #4CA39B",
"t. c #4DA69A",
"y. c #55AD91",
"u. c #52A995",
"i. c #56B194",
"p. c #59B493",
"a. c #5CBA96",
"s. c #57B49D",
"d. c #58B59D",
"f. c #5DBD99",
"g. c #67BA99",
"h. c #75BA9C",
"j. c #55B5A2",
"k. c #57B9A4",
"l. c #59BBA4",
"z. c #56BAAA",
"x. c #4DAAB1",
"c. c #4FB1BE",
"v. c #58BFB1",
"b. c #5EC49C",
"n. c #5FC89E",
"m. c #61C69D",
"M. c #69C39D",
"N. c #63C99F",
"B. c #77C09F",
"V. c #5CC2AC",
"C. c #5AC3B1",
"Z. c #5EC9B6",
"A. c #5CC9BA",
"S. c #65CCA1",
"D. c #6ACEA3",
"F. c #75C3A3",
"G. c #7AC2A1",
"H. c #7CCCA8",
"J. c #66D2A4",
"K. c #69D3A6",
"L. c #69D7A8",
"P. c #67D9A9",
"I. c #6ADAAA",
"U. c #73D5A9",
"Y. c #76D4AA",
"T. c #7ADAAD",
"R. c #60CFBB",
"E. c #6DD7B6",
"W. c #7EEAB7",
"Q. c #51B3C3",
"!. c #5DCEC9",
"~. c #61D4C6",
"^. c #63DBD6",
"/. c #5FD6E4",
"(. c #62DAE7",
"). c #67E5E8",
"_. c #68E9F3",
"`. c #82DEB1",
"'. c #93DDB0",
"]. c #82E2B3",
"[. c #88E8B7",
"{. c #8DE7B8",
"}. c #8EE9B9",
"|. c #97E8BC",
" X c #93EDBD",
".X c #80F1BA",
"XX c #96F0BF",
"oX c #9AF0BF",
"OX c #A3F3BF",
"+X c #ACF5BF",
"@X c #B4F7BF",
"#X c #C4FBBF",
"$X c #D2FEBF",
"%X c #8DEFC0",
"&X c #9BEAC0",
"*X c #96F2C1",
"=X c #9BF3C2",
"-X c #97FBC7",
";X c #A4EDC3",
":X c #A1F6C3",
">X c #A6F7C9",
",X c #A4FBCD",
"<X c #B8FBC5",
"1X c #A9FBD2",
"2X c #BAFCD2",
"3X c #C4FCC4",
"4X c #CBFDC3",
"5X c #D1FEC2",
"6X c #D8FFC2",
"7X c #D2FFC8",
"8X c #C7FED3",
/* pixels */
"# & b = = b b b b = = - n n n - - - n n = = - n n b n b = = = b b b b b = n b = * = - - = - - b b = = - x - n n - b n - - = - n b b b b b m b b b b b b b n b % ",
"* = b b n V = b b = - V V - n - - n - - - - - n n - - - b B n n n n b = b n O.n n b - - b n - - - - b n V b n - - n - - - - - n b b b m b b n n n n b b b n b * ",
"n n b n V V b b b b n o.V V n n - V - = - V V B b x - - b o.+.+.+.o.b b b n O.+.+.o.B V o.n b - n - n o.V V V x - n - - - V V n b b b m b O.+.+.O.O.b * b n n b ",
"b n O.+.O.V b B b b b o.O.O.+.+.O.o.B - V O.O.O.o.o.o.o.o.o.o.O.O.O.o.n n n O.O.o.o.O.+.O.o.n b n - n o.O.O.+.+.+.o.- - V O.+.O.+.n n O.n n n +.O.O.n n b O.n b ",
"= n n O.O.+.o.o.o.V V o.+.+.+.O.O.O.o.o.+.+.+.+.+.+.+.+.O.V V V V V +.o.V o.o.O.o.V o.o.+.+.O.o.O.n V o.+.+.+.O.O.O.o.o.O.+.+.+.+.O.+.+.+.V V V n O.+.o.n o.n b ",
"b b b b o.+.+.+.O.O.o.o.+.O.o.V o.O.+.+.+.+.+.+.+.+.+.O.O.V b V b b o.+.O.n o.+.O.V B x V +.+.+.O.O.o.O.+.+.V V o.+.+.+.+.+.+.+.+.+.+.+.V V n V b b o.+.+.n b n ",
"= = b n n V V V V V B B B V o.+.+.O.V n V V V o.o.+.O.O.+.V B B = b o.+.O.V n n V n x V V o.V V n V x V x V O.+.O.O.V n V V o.O.+.+.+.+.+.B B B b b n +.+.n b * ",
"= b b n V n b b x - - - - b V o.O.o.V V b j * % g * V o.O.o.V o.B B O.+.O.b b b V V B o.V x x x - - - - - - V O.+.o.V B V - V n V O.+.+.+.O.O.V b b o.+.O.n m & ",
"= - n V V - x x - x x - - - = V o.V O.+.V h > .   > g x +.+.+.+.o.o.O.+.O.- - o.V V - o.V = - - - - x - x - = V o.V O.+.+.V B - B +.+.+.+.+.+.+.O.o.+.+.O.b = = ",
"= - b V V B - = = - x = x V V V +.o.+.+.x 7 r D H G p g V V +.+.V b V O.O.o.+.O.V x - V V V - = - x - = B V B O.O.O.+.+.+.O.V o.O.+.+.+.+.V O.O.V b n o.O.V n b ",
"= - b o.o.o.B - B V V V V o.o.+.+.o.o.x k v E ..%.X.| c h j V o.B * = V +.O.+.+.o.V n o.O.o.B - B V V B V o.O.+.+.O.+.+.+.O.O.+.+.+.+.O.V V O.+.B = = V O.O.n n ",
"n b B +.+.+.V V o.+.+.+.O.O.+.+.+.x h 7 G Q -.a.F.h.:.| 1 % - +.B = b o.+.b n O.+.o.- +.+.+.V V o.O.+.+.+.o.+.+.+.o.+.+.V o.O.o.O.+.+.O.b V +.+.B = b O.+.B b b ",
"= - b o.+.+.+.o.x V o.+.o.V +.O.n x 4 r T $.p.T.%X}.B.*.F 1 & O.O.V n n o.- - n - - - - n O.O.V - V o.+.o.o.+.o.V +.+.+.O.+.+.o.O.+.+.+.o.+.+.+.o.V O.+.O.V n b ",
"= - n n +.+.+.o.x x V +.o.V +.o.b j > t ` 2.b.W.-X*XH.=.L , % O.O.V h h & & % % % % $ % % * x x - B o.+.o.V O.V V +.V V +.+.+.o.o.O.+.+.+.+.+.+.O.+.+.+.O.O.n b ",
"b n O.+.+.+.O.O.+.V V +.O.V o.+.o.* , t ` 1.p.E..XW.g.X.S > * V x % , .   ; . ;   +       ; 4 = +.o.V O.o.V o.+.O.o.B = V O.+.V b V O.O.O.+.+.o.V V o.o.o.O.V n ",
"- n O.O.O.+.O.+.+.+.+.o.o.o.+.+.O.* > w U ] 1.a.K.J.p.%.H 5 % B g p H H P K K K K K K K I K p k V V V - V V +.+.O.V - - b V V - b V V V V o.O.O.O.o.o.O.O.+.o.n ",
"- n O.V V +.O.O.+.+.o.V V o.+.+.O.j & 5 a P _ 1.i.a.i.2._ a 6 7 5 Y ..&.=.=.=.=.=.=.%.5.5.=.| d 6 % & $ * V +.+.+.V B B B b V B B V V V B V V +.+.+.+.+.O.+.o.n ",
"n n n - - V V V O.V - x = V o.+.O.O.x = 4 p J @.4.y.b.f.0.Q a , a Q 0.g.B.G.G.F.h.h.h.G.H.G.:.K ,       > * V +.O.O.o.V V O.+.O.+.+.+.O.+.+.+.+.+.+.+.V B o.o.n ",
"- n O.n x - V V V - - V x - o.O.+.+.O.n & > w E { -.p.N.n.;.Q K / ;.K.].}.&X&X&X&X&X|.;X>X&XG.:.T H S H p 6 b o.+.+.O.O.V V O.+.+.+.+.+.V o.+.+.o.V o.V b B n n ",
"- n +.o.V V V V x n o.o.- x o.+.+.O.+.o.* > o S L / 1.b.J.f.2.$.6.N..X-X,X,X,X,X1X1X2X8X8X8X|.h.5.5.-.=.| p % b +.o.O.O.V V o.+.+.+.+.o.V V o.O.V x V V V b b n ",
"n V o.+.+.+.O.o.o.- - - j x +.+.o.o.O.O.x 6 w S S S ` 0.N.n.f.e.g.Y.XX=X-X:X=X=X>X<X3X7X7X4X+X'.`.H.H.G.5.T 1 $ - V +.+.+.+.+.V o.O.+.+.+.+.+.+.+.O.+.+.O.o.n n ",
"b V o.+.+.O.+.+.+.o.o.V V V +.V - = V O.x 5 o S S D ' 0.b.J.J.J.T.}.oX-X=XoX*XXXOX@X#X$X6X6X3X@X;X;X=X|.h.=.K p 7 = n o.o.o.V O.O.O.V o.O.O.o.O.O.O.o.+.+.o.n n ",
"- n +.o.O.o.o.O.+.+.+.+.+.+.+.x & # = - = > o D T / -.w.m.J.I.I.].XX>X>X=XXXXXXXoXOX@X#X$X$X6X4X8X2X2X,X|.G.=.| s 6 * b V b B +.+.V V V - b V V V b b O.+.o.n n ",
"b n V o.+.+.o.V o.O.+.+.+.+.o.g , , 6 - * 4 o U #.;.a.N.N.n.N.K.T. X-XOX=XXX XoXoXoXoX@X3X5X6X6X4X3X>X=X=X XG.5.R , @ & - V o.+.O.- - n V V V x - b V o.O.o.V b ",
"b n o.O.O.o.V V V o.V V V B z v K K v & % 4 G ' 0.m.L.L.N.N.m.N.U.]. XoXoXoXoXoX X X*XOX+X3X$X$X#X@X+X=X-X>X|.h. .o + & - O.+.+.o.- x x V x x x - b o.o.V o.n - ",
"- n O.+.V - n V O.V B = * 7 a Q $.$.Y 5 > p T -.f.K.I.I.N.N.m.N.K.U.`.}.XXoX:XoX X X X*XOX+X<X#X@X+XOX=X1X1XOXB.X.O ; * +.+.O.+.o.V x - - - - x - b O.O.o.o.n b ",
"n n O.o.n = = n +.+.O.V % 5 Y $.e.w.@.s u I #.y.m.N.K.J.N.N.N.N.N.N.U.`.XXoX-XoXXXXX XoXoXoXOXOX+XOXoX*X>X,X|.h. .o ; = +.+.O.+.+.o.V = - - x V V V V o.O.+.o.n ",
"n n O.o.o.n b n +.+.o.V % 1 P $.w.p.-._ ~ ] 1.p.f.m.N.N.N.N.N.N.b.b.N.U.].XXoXoX=X=X=X=XoXoX*X*X*XoX*X*X>X=X`.g.*.G p g x n n o.+.+.V n V V o.O.O.o.O.o.o.O.o.n ",
"b n +.+.+.+.O.+.+.o.V - * g s T @.;.;.$.1.1.q.y.p.p.f.m.N.J.S.N.b.b.N.N.U.].}.oX:X:X=X=X=X*X*XXX*X=X:X=XoX[.U.M.q.] Y s 7 & = o.O.+.+.+.+.+.+.+.+.+.+.o.V o.n - ",
"= b o.+.O.n O.O.O.o.V - V V x 0 a Q @.1.q.u.w.q.q.q.e.f.N.N.S.N.m.m.N.b.N.D.].}.oXoX=X*XXXoXXXoXXX=X=XoX[.T.D.S.N.w.#.T , 6 x x o.+.+.+.+.+.O.+.+.O.n o.o.V - * ",
"b n o.+.O.n O.O.+.V V B V +.V % > G E #.0.w.q.q.q.4.w.i.m.m.N.S.N.N.N.b.m.N.U.]. X X{.[.{.{.{.{.{. X X[.T.D.N.J.P.m.7.( t > * x o.+.+.+.+.n o.+.O.o.o.+.+.n - - ",
"b n +.+.o.n n O.+.V x B V B B = & 4 a T $.1.4.q.q.0.q.w.e.f.N.N.J.N.N.m.m.N.N.U.T.T.T.T.T.T.Y.T.T.T.T.Y.K.S.n.J.P.m.7._ o ; & O.+.O.+.+.+.n n O.+.+.+.+.+.O.o.n ",
"b n O.O.o.V o.o.o.o.V - V O.o.V - h 5 y ^ #.1.w.y.q.4.q.w.y.a.S.N.S.N.N.N.N.N.N.S.S.S.S.S.S.S.S.S.S.D.S.S.N.S.J.L.f.1./ w : = V V V O.+.+.o.V O.+.+.O.V n +.O.n ",
"= n V o.o.o.+.O.V O.O.n o.O.+.O.o.V # o P { 1.e.y.q.4.2.4.w.p.f.N.N.S.S.N.S.N.N.b.b.m.b.b.m.b.b.b.b.b.b.b.N.S.P.K.a.-.~ w 6 = V V n o.O.+.o.o.O.+.+.o.- - +.o.- ",
"- b V V o.+.+.+.+.+.+.+.V V +.O.o.n $ , U ] 1.e.y.q.4.4.4.q.w.e.m.N.N.K.J.S.N.n.b.b.m.m.m.b.b.b.b.b.b.b.b.m.S.L.K.a.-.W w > * j V o.V O.+.O.O.+.+.V V o.O.O.n = ",
"= b b n V O.o.+.+.+.O.o.B V +.+.O.b 4 w U ..1.u.y.q.q.q.7.4.4.w.e.f.N.N.N.N.N.N.N.N.m.N.N.N.N.N.N.S.b.S.S.m.S.P.L.a.1.W w @ & b V O.V V o.V o.+.+.+.o.o.+.+.- * ",
"b - - - n V V o.+.+.O.n V o.+.+.o.= 4 w E ..1.w.y.w.7.q.q.4.2.7.w.p.f.f.b.b.m.m.N.S.N.S.N.N.N.N.S.m.S.m.S.S.S.I.L.a.-.W w > = n o.O.o.n n V V O.+.O.O.O.+.O.V * ",
"b b - b B - V o.+.O.O.o.V V O.V - * > w E ..1.e.y.q.q.q.q.6.4.q.q.w.i.e.w.p.a.m.J.S.N.N.N.N.S.N.m.S.m.S.N.S.D.I.I.a.1./ r > = n o.+.+.+.V O.+.V b B O.+.+.O.V - ",
"n n n V o.o.V o.o.V V o.o.o.o.o.V * > w U ..1.y.y.q.q.q.q.q.q.q.q.0.q.0.0.w.p.m.N.N.S.S.S.N.S.N.S.S.S.n.b.m.S.J.K.p.-.W w > = o.+.O.+.O.O.O.O.O.b b O.O.n V - n ",
"= b o.O.O.+.o.o.V V V O.O.O.V O.O.- 4 r E ..-.w.y.q.q.q.q.q.q.q.9.0.2.2.2.0.w.e.b.m.N.S.S.S.S.S.S.S.S.S.m.b.a.m.m.e.&.W w > = O.+.o.o.O.o.O.O.+.n n O.V - n V - ",
"* - O.o.o.o.O.O.O.V V O.O.+.+.O.o.j 4 w T ] -.w.w.q.q.q.q.q.q.q.q.9.9.0.9.9.q.w.p.b.m.J.S.S.S.S.N.J.J.N.g.a.y.p.p.2.#.E w > = +.+.O.+.+.V V V o.O.O.+.n n +.n m ",
"= - V V V o.V V V V V O.o.o.o.V - * 4 w E @.2.y.y.q.q.q.q.q.q.q.q.9.q.q.q.q.0.9.w.p.m.m.N.m.N.m.N.N.m.b.a.y.q.w.w.1...E w > * V V B V V B O.O.O.O.+.n b n +.n b ",
"n n b V o.V - - - b V o.V V V B - * @ o E <.u.s.d.q.q.0.q.q.q.q.q.q.q.q.q.9.2.0.q.w.p.a.a.a.a.p.a.a.a.a.i.q.6.q.q.-.{ U w > * b B b b b B O.O.+.+.O.b b n n n n ",
"- n O.+.O.o.b b V b b o.O.+.O.+.O.= @ o E <.j.V.k.w.6.6.q.q.q.q.q.q.q.q.q.9.9.9.q.q.w.w.y.w.y.y.w.w.e.w.w.q.7.w.q.-...E w 4 x V O.V V O.O.V O.O.O.O.O.n n O.b b ",
"= V o.o.O.+.o.o.o.V V o.+.+.O.+.V = @ w ) 8.v.A.v.w.2.6.q.q.q.q.q.q.q.q.q.q.q.q.q.q.q.q.9.q.q.4.q.q.q.q.q.q.q.i.s.9.%.E r 4 - O.+.+.+.+.O.V V V n n O.O.n O.n b ",
"- b - x o.+.+.+.O.o.o.O.+.+.V V V b @ w ` r.A.~.S.q.1.6.0.q.q.q.q.q.q.q.q.q.q.9.q.0.4.2.2.2.4.4.6.2.2.4.2.7.w.k.V.s.3.^ t > - O.+.+.+.O.O.V n n b b O.+.O.n n n ",
"- - B V V V V V B B m B V V O.O.V b @ o ^ 8.C.R.z.w.6.6.q.q.q.q.q.q.q.q.q.q.q.q.q.q.4.q.q.4.7.q.7.7.q.q.6.6.w.l.Z.z.3.^ o @ * V +.+.+.+.O.V B V b b V +.+.n b * ",
"= = B o.V - B B = b b b b b V O.V = $ r E <.r.z.k.w.q.0.q.0.0.q.q.q.q.q.q.q.q.q.q.q.q.q.q.q.q.q.q.q.q.q.0.7.q.s.z.t.<.~ r # * b V O.+.+.+.V V V b n O.+.+.b * & ",
"= = b o.V b - - - - - x - = = V V B m q K ~ ..3.r.s.u.w.0.6.0.q.q.q.q.q.q.q.q.q.q.q.q.q.q.q.q.q.q.q.q.q.q.q.2.4.3.} ( I d % = = B +.+.+.+.+.+.+.+.V +.+.O.b * m ",
"= = n n V n b = = B x = B V B o.+.V B N f F L ' 8.j.z.k.q.0.0.q.q.q.q.q.q.q.q.q.q.q.q.q.q.q.q.q.q.q.q.q.w.w.2.$.` L J f N C B o.+.+.+.O.+.V O.+.V b B O.+.O.n n ",
"- - b O.O.o.b b B V V V V V o.+.O.B B C d X O ( 8.!.~.R.u.0.6.6.6.q.q.q.q.q.q.q.q.q.q.q.q.q.q.q.q.0.7.q.i.p.u.#.U O y d m B V O.+.+.+.O.V V O.O.b m b V +.V n n ",
"n b b O.+.+.n n o.O.+.+.+.o.+.o.B m C C 9 X O [ x.(._.~.d.w.6.6.6.6.q.q.q.q.q.q.q.q.q.q.q.q.q.q.q.0.1.0.d.V.z.3.E O O q N m C m B +.+.V b V +.+.b m b V +.n b b ",
"= - n O.O.+.+.o.- V O.+.o.V +.B N N N N q X O [ x.(._.^.A.j.u.q.6.6.q.q.q.q.q.q.q.q.q.q.q.q.q.q.q.6.6.w.k.C.z.3.( O < q N N N m B O.+.+.O.+.+.+.n o.+.+.+.n n b ",
"= - n n O.+.+.O.- - V +.V V V j 8 Z q M q 9 u ~ <.Q.(.(.^.!.l.u.q.6.0.0.0.7.7.0.7.6.q.7.0.6.6.6.6.w.y.s.z.k.r.@.E u 3 9 N Z M M B V +.+.+.+.+.+.+.+.+.+.O.O.n b ",
"- n O.O.+.+.O.O.+.o.V +.O.V V C N M q 9 q q d J ~ ,.c./.).(.~.u.q.6.6.6.6.6.6.6.6.6.6.6.6.6.;.6.6.y.V.C.z.8.} U J 9 3 9 q Z Z 8 h n O.O.O.+.+.V n n o.n n +.n n ",
"- n +.O.O.+.+.O.+.+.O.o.O.o.o.C N q 9 9 q l q 3 S L ,.Q.(._.^.R.k.y.q.0.q.q.q.q.w.q.w.q.w.q.q.q.w.j.V.v.8.' H a f q 8 q q d q 8 h b V V V V O.O.o.o.+.O.+.+.V n ",
"= V +.V V +.O.o.O.+.o.V V o.o.C N q d d q 8 8 6 : O L <.Q./.).(.~.V.p.s.s.s.s.s.k.s.s.s.k.s.k.d.s.z.j.8.{ P e 3 8 l h q q d d 8 j n V V V V o.+.+.+.+.+.+.+.o.n ",
"b V x = b V V o.o.V - - x b V B N Z d q M N N M q 9 F U >.c.(._.).^.Z.Z.Z.Z.Z.Z.Z.A.Z.Z.Z.Z.R.R.Z.z.3.} U u 9 q z N N q q c Z M C o.o.+.+.O.+.+.+.+.+.o.b O.o.n ",
"- n V V B V b V V - B V b - V C m M M q q M M N N M q i L >.Q.(.).!.v.z.z.v.v.v.C.v.v.C.v.C.A.A.C.8.' H y 3 h N N M z l q q M N C O.+.+.V o.O.+.n n O.n b b n n ",
"- V +.V V V V V B V V o.b b V V B N M M q q l N N m q 2 O ! <.Q.c.j.8.8.8.8.8.8.8.8.8.8.8.8.t.r.r.} I e < 3 z N N z l c q 8 z B V O.+.O.V V O.O.n n n o.n - b n ",
"n n O.+.+.+.O.O.o.V - - = b +.o.n b m M Z Z Z l M N 8 8 d J ~ } >.} ` ` ` ` ` ` ` ` ` ` ` ` } } ` E G 1 2 q N N l l c c N m C V o.+.o.O.+.+.+.+.+.+.+.+.+.o.n n ",
"- V O.+.+.O.O.O.+.o.o.V V o.+.+.n b m m l c l l M 8 M M l f F D D D F D H D D D F D D D D D D H G u f q l z M M c q l l N m V o.O.o.V O.O.o.O.o.O.O.o.+.+.o.n n ",
"b n O.O.o.o.O.O.+.+.+.+.+.+.+.+.O.n b m 8 q q c Z q 8 8 8 2 < X X o O X e w < < O X < O < < O X e 3 l N C A Z Z c q 8 z j = b O.+.V V b b b V V n n n O.+.o.n n ",
"b n V o.+.+.o.o.V o.O.+.+.+.+.V n b b m m 8 l Z c d l 8 8 8 9 3 3 3 9 9 9 9 9 9 d 9 9 9 d 9 9 3 9 q l N N A Z d d 8 h h = V o.+.o.- B V V V b B b b V V O.o.n - ",
"b n O.O.O.o.V n V o.V V O.+.+.V V V V V x x z z l 0 8 8 q 0 q 9 9 q l l q l l l l l q Z l q q q q M q l M M N q l z h - V o.+.+.o.- - x o.x x - - - o.o.o.o.n - ",
"- n O.+.n b b o.O.o.x - o.+.o.o.+.+.+.o.O.o.C C x j 7 0 9 d q q 0 l z z z M M N z M N N M 8 8 N M q q 9 8 m m m x C V O.+.+.O.+.O.x x - - - - x - n o.+.o.o.n n ",
"b n +.o.V = = n +.+.O.O.O.O.V O.+.+.+.+.+.O.o.O.o.V j 7 9 d q q q q l z c M N M M l M l q 9 9 l N Z Z M N B n V o.O.O.+.+.+.O.+.+.O.x - - - V V n n o.o.o.O.o.n ",
"b n O.o.V V b V +.+.O.+.+.O.o.+.+.+.+.O.O.o.V O.+.+.C h l q z z z z z z l z N N N N z z M 8 8 8 N N M N B V V +.+.O.+.+.+.o.V O.+.+.O.x x o.o.O.O.O.o.o.o.+.n n ",
"- n +.+.+.+.O.O.O.O.V n O.+.+.+.+.o.O.O.o.V x O.+.+.O.V B C C B C C B j = z j B j m C B C B C B m m h h B V +.+.+.O.o.O.o.V b o.+.+.+.O.+.+.+.+.+.+.+.O.o.o.n - ",
"- - o.+.o.V O.+.O.O.V - o.+.+.O.o.V x V O.O.O.x V +.+.O.o.V O.o.o.V b V V x x - B B V o.V b V O.V V b b V +.+.+.o.V V V O.+.O.V o.+.+.+.+.O.O.+.+.o.o.O.o.n = = ",
"- n o.+.O.n o.O.+.o.o.- o.O.+.O.V V V o.+.+.O.V V +.+.+.+.o.o.O.O.o.V o.O.V V V V O.o.O.V n V O.O.V n n V O.O.O.V o.V V +.+.o.V o.O.+.+.O.O.O.O.o.o.n +.+.n - = ",
"n n +.+.O.n n O.+.o.- - n - - - V O.+.+.O.x x +.O.o.+.+.O.V V O.+.+.+.+.+.+.+.+.+.+.+.+.O.V n O.+.V b n V B B B V O.+.+.O.- - +.O.o.+.+.+.o.n O.+.+.+.+.+.O.o.n ",
"- n O.O.o.o.o.o.O.O.n b o.O.o.o.o.O.o.V o.o.o.O.o.V O.+.+.o.V O.+.+.O.n n +.+.+.O.O.O.O.o.n o.o.O.O.n b V O.V V o.O.o.n o.o.O.O.o.V O.+.+.o.V O.+.+.O.n n +.O.n ",
"- b o.o.o.o.O.O.n O.O.n O.+.O.O.O.O.V n V +.+.V B V o.+.+.o.o.+.+.O.n n - +.+.+.o.V V o.o.o.+.O.V O.O.n o.+.+.O.O.+.V n V +.+.V x V O.O.+.O.o.+.+.O.o.- - +.O.- ",
"- n n n o.+.+.+.+.+.+.+.n n +.o.O.+.+.o.o.o.V B B o.V o.+.O.O.+.O.o.n o.O.+.o.o.o.V V V O.+.+.+.+.+.+.+.V B +.O.o.+.+.o.o.o.V - - o.o.O.+.O.O.+.O.o.o.o.O.+.n = ",
"- - b n n +.O.+.+.+.+.o.n n +.+.+.+.O.o.+.O.V b V O.V V o.V V +.+.+.o.O.+.+.n - O.V b n V O.o.+.+.+.O.o.V V +.+.+.+.O.O.O.O.V n o.O.o.- o.n o.+.+.O.o.o.+.+.- * ",
"- - - - n n n o.+.+.o.n n O.+.+.O.o.o.o.+.+.O.V o.O.o.n V V V O.+.O.O.O.O.+.V V O.V b b b V V o.+.+.O.n n O.O.+.O.O.o.o.+.+.o.V O.O.o.n - n n O.+.O.o.+.+.+.- * ",
"n - - b n - o.o.O.O.o.o.o.o.o.o.n n V V +.+.O.O.O.+.+.O.V O.+.V b n O.+.+.o.O.+.+.n = b b b n O.O.+.O.n n o.O.V - V n V +.+.O.o.O.O.+.+.o.+.+.o.- V O.+.+.o.o.- ",
"= = - - - - n - n n n n n n n - b n b B n n n V n n V V V V V V = = n n b b n V V b b b b b b n n b b n n b n b - - n n V V V o.n o.o.o.n n o.n - = n n - - - = ",
"& * - - n n - - = * = = - - = - b b n b = = b n n b b = b - b b = = - = & * = b - = = b b b b = = = = = n b = b n n n n = = - - - - - - - - b n = * - = & * * * "
};
