/* XPM */
static char *__resized[] = {
/* columns rows colors chars-per-pixel */
"80 80 208 2 ",
"   c #20321C",
".  c #1D3824",
"X  c #1C3233",
"o  c #233E23",
"O  c #253B29",
"+  c #243B33",
"@  c #213838",
"#  c #29491F",
"$  c #2F5316",
"%  c #31561E",
"&  c #345D1D",
"*  c #36621C",
"=  c #39661D",
"-  c #3C6D1D",
";  c #3F711E",
":  c #254324",
">  c #2B4622",
",  c #274921",
"<  c #2A4B23",
"1  c #27442A",
"2  c #2C462B",
"3  c #2A492A",
"4  c #314C2D",
"5  c #2D5223",
"6  c #2E542C",
"7  c #315322",
"8  c #345C23",
"9  c #385C27",
"0  c #35542B",
"q  c #365A2A",
"w  c #3A5C2C",
"e  c #2A4436",
"r  c #2C4B34",
"t  c #264639",
"y  c #294A3C",
"u  c #304C39",
"i  c #2E5534",
"p  c #2D523A",
"a  c #355433",
"s  c #345932",
"d  c #375937",
"f  c #3B5C31",
"g  c #33543C",
"h  c #376321",
"j  c #3A6423",
"k  c #3D6B23",
"l  c #3D642D",
"z  c #3F682B",
"x  c #3F7220",
"c  c #356132",
"v  c #3E6331",
"b  c #41751F",
"n  c #43781F",
"m  c #406E26",
"M  c #416A2D",
"N  c #417621",
"B  c #457C21",
"V  c #43702B",
"C  c #406631",
"Z  c #416931",
"A  c #264542",
"S  c #2A4D44",
"D  c #2B4E4B",
"F  c #2D5245",
"G  c #2F5847",
"H  c #2D534A",
"J  c #325947",
"K  c #2D5652",
"L  c #2D5854",
"P  c #2E5A5B",
"I  c #325C53",
"U  c #325C59",
"Y  c #35654B",
"T  c #336452",
"R  c #34645C",
"E  c #376A5D",
"W  c #3A6859",
"Q  c #396D64",
"!  c #376D68",
"~  c #3D7564",
"^  c #3B736B",
"/  c #3E7A6C",
"(  c #397877",
")  c #3C7E79",
"_  c #45735E",
"`  c #447867",
"'  c #437D71",
"]  c #478022",
"[  c #498423",
"{  c #4C8924",
"}  c #3D827C",
"|  c #42826A",
" . c #438373",
".. c #4D8273",
"X. c #488877",
"o. c #468C7B",
"O. c #498E7C",
"+. c #46947D",
"@. c #4A937D",
"#. c #5D937E",
"$. c #3B7A83",
"%. c #3E8486",
"&. c #438A85",
"*. c #4E9D84",
"=. c #479488",
"-. c #4E9E88",
";. c #509F84",
":. c #5C9984",
">. c #418C95",
",. c #499A92",
"<. c #609C83",
"1. c #4EA084",
"2. c #4FA088",
"3. c #50A186",
"4. c #51A38A",
"5. c #54AA8E",
"6. c #57B08D",
"7. c #4EAA9F",
"8. c #51A690",
"9. c #55AD91",
"0. c #53AD9A",
"q. c #57B092",
"w. c #59B393",
"e. c #5CBA96",
"r. c #56B19A",
"t. c #59B599",
"y. c #5DBD99",
"u. c #64A58A",
"i. c #63AE92",
"p. c #6AB99A",
"a. c #73BB9D",
"s. c #4EA9A1",
"d. c #50AEA3",
"f. c #50AEA9",
"g. c #54B3A4",
"h. c #57B9A6",
"j. c #59BDAA",
"k. c #4BA5B4",
"l. c #55BAB4",
"z. c #5EC49B",
"x. c #5FC99E",
"c. c #61C69D",
"v. c #63C99F",
"b. c #5DC0A6",
"n. c #5CC2AD",
"m. c #5CC5B3",
"M. c #5ECAB5",
"N. c #5BC6B9",
"B. c #5ECCBC",
"V. c #64CCA1",
"C. c #6BCEA3",
"Z. c #78C8A6",
"A. c #66D1A3",
"S. c #6BD2A5",
"D. c #6BD5A8",
"F. c #6BDAAA",
"G. c #71D5A9",
"H. c #73D4A8",
"J. c #7DDCAE",
"K. c #60CCB7",
"L. c #60D1BF",
"P. c #7FDEB0",
"I. c #7CE6B5",
"U. c #56BFCA",
"Y. c #5BC9C8",
"T. c #5BCAD1",
"R. c #61D3C3",
"E. c #61D5C9",
"W. c #62DAD8",
"Q. c #67E2D9",
"!. c #5CCFE1",
"~. c #60D5E6",
"^. c #65E4ED",
"/. c #68E7E9",
"(. c #66E5F1",
"). c #82CDA8",
"_. c #86D3AC",
"`. c #86DBB1",
"'. c #84E1B3",
"]. c #8CE6B7",
"[. c #85EAB9",
"{. c #8DE9B9",
"}. c #93E6BA",
"|. c #94EDBD",
" X c #96F0BF",
".X c #9BF1BF",
"XX c #A2EBBA",
"oX c #A3F3BF",
"OX c #AAF5BF",
"+X c #B8F8BF",
"@X c #C5FBBF",
"#X c #D3FEBF",
"$X c #94EDC0",
"%X c #8DF5C4",
"&X c #96F2C1",
"*X c #9BF3C2",
"=X c #9BF8C7",
"-X c #A9EBC0",
";X c #A1F7C4",
":X c #A7F8C6",
">X c #A4FACB",
",X c #B9FAC8",
"<X c #ABFCD3",
"1X c #BAFCD1",
"2X c #C8FDC5",
"3X c #D4FFC2",
"4X c #D5FFC9",
"5X c #C1FBD1",
/* pixels */
"$ * b - - b b b b - - ; n ; n b ; n n ; ; ; ; B n ; n n - - - ; ; b b b ; n n - = - ; ; ; ; ; ; n - - ; n ; n n ; ; n ; ; ; ; n n b n b b = b b b b b b b n - $ ",
"= - b b b B ; ; b - ; B n n n ; ; ; ; ; ; ; ; ; n ; ; ; ; b n B n n b - ; n ] n ; ; ; ; ; n ; ; ; ; ; n n ; n ; ; n ; ; ; ; ; ; b b b m b b n n b b b b b n b - ",
"n n b n B B b b ; b n ] B B n n ; B ; ; ; B B B N ; ; - b ] { { { [ b ; b n [ { { [ x ] ] ] ; ; ; ; ] ] n B ] ; ; n ; ; ; n ] n n b m b b [ { { { [ b - b B n b ",
"b n [ { [ B N N n b b ] [ [ { { [ [ ; ; n [ [ [ ] ] ] [ ] ] ] [ [ [ [ b b ] [ ] ] [ [ [ [ ] n ; ] ; ; ] [ { { [ { [ ; ; B [ { [ n [ n [ n n [ [ [ [ n b n B n b ",
"- n B [ [ { [ B ] B B ] { { { [ [ [ ] ] { { { { { { { { [ ] B B n B [ [ n ] [ [ ] ] ] [ [ { ] [ [ ] ] ] { { [ [ [ [ ] ] { { { { { [ { { [ B B B n n [ ] n [ n b ",
"b b b b B { { { [ [ ] [ { [ ] B ] [ { { { { { { { { { [ ] B B N ; b [ [ { n ] { [ ] ; ; ] { { [ [ ] [ [ { [ ] ] ] { { { { { { { { { { [ B B n N b b [ { { n n n ",
"- b b n B B B B B N N N N B [ [ { [ B x B B ] [ [ { { { [ B b B - ; [ { { B b n ] ; x x ] B [ ] ; ] ; n ; ] [ [ [ [ B n B B ] [ { { { { { B B B b b n { { N b = ",
"- - b n B N N b x ; ; ; ; ; B [ [ [ B B B ; n ; n ] [ [ [ ] B ] B n [ { [ b ; b ] ] ; ] B ; x ; ; ; ; ; ; ; n [ { ] B B n B n ; B { { { { B B [ n n [ { { b - & ",
"- ; b ] B ; ; ; ; x x ; ; ; - B ] B [ { { B ; * * - x N [ { { { [ [ [ { [ ; x B B B ; ] x ; ; ; x ; ; x ; - k B ] B [ { { ] x ; N [ { { { { { { [ [ [ { [ - - - ",
"- ; ; B B B x ; ; ; ; ; x B B B [ ] { { { ] - 5 , : , 8 k B [ [ B ; N [ { ] [ { B x ; B ] x ; ; - ; x ; x B B B [ [ { { { [ B [ { { { { { B [ [ B ; B [ [ [ n b ",
"; ; b ] ] B x x N B B B B ] ] { { ] [ { { B h 6 y A y 4 8 x B [ ; - - B { ] [ { ] B n ] [ [ x x x B B B ] ] [ { { [ [ { [ [ [ { { { { { n B { [ ; - - B { [ B n ",
"n ; N { { { B B ] [ { { [ ] { { { ] { [ ; h i T ^ ..' W d j B [ N - ; [ [ B B { { ] ; { { { [ x ] { { { [ ] { { { ] { { B ] [ ] [ { { B b B { { N - b [ { b b b ",
"; ; ; ] { { { ] x B [ { [ B { ] ] [ ] x & c Y } 4.a.p.<._ v h B B ] [ { { B B ] ] B x [ [ { { ] ; B ] { ] B { [ B [ { [ [ { { ] [ { { { [ { { { ] B [ { { B b - ",
"- ; n n [ { { [ x x B { ] B [ ] B { ; & 3 g ~ 1.C.'.}.Z.#.I 3 h N [ [ ] B B B B ; ; ; x B { { [ ; x B { ] B [ ] B { ] B { { { [ [ [ { { { { { { [ { { { [ [ n b ",
"b n [ { { { [ [ { ] B { ] ] [ { { [ = # + P o.t.J.%X&X`.:.U @ o % = * * * * * = * * & h - x [ { { B ] [ ] ] [ [ { ] x ; B { { n N B [ [ [ { { B B B ] ] B [ B n ",
"; n { ] [ { [ [ { { [ ] ] [ [ { { x * # + P &.r.D.I.[.Z.:.K X . o , , , : : , : , : o : 5 = x { { { [ [ ] [ [ { { B ; ; ; B B ; b B B B B B [ [ [ ] [ [ [ { [ n ",
"; n [ n B { [ [ [ { [ B B ] { { { B - 5 1 H / =.w.D.F.e.X.L @ @ + t y y y u y y y S S A r 8 b n ] ] n n B ] [ { { B ; x x ; B x B B B B x B ] { { { { [ { { ] n ",
"n n n ; ; B B ] ] B x ; ; N ] [ { [ B k 8 i J E +.q.z.w.+./ T W ^ ` ' ' ....' ..' ....X.` J 7 % * % & = ; x [ [ { [ ] ] [ [ { { [ { [ { { { { { { { { B b [ B n ",
"; n ] n ; b B B B ; ; B x x B { { { { ] - 8 6 y Q +.e.z.z.@.+.+.*.4.i.a.a.a.a.a.a.a.Z.Z.u._ e o . . , * - x ] [ { { [ [ B B [ { { { { [ ] [ [ { ] B ] B b N n n ",
"; n { [ B N B B N B B ] b ; ] [ [ ] B B b * 5 t I +.w.V.A.v.v.z.c.Z._.}.}..X}.}.}.$X*XoX_.3._ A @ t p 8 * ; ] { [ [ [ [ B B [ { { { { [ x ] [ [ n ; B ] B ; b n ",
"n n ] { { { [ ] ] B ; - - B { [ B = & * - h 6 S E @.e.A.F.F.F.F.I.[.&X>X>X>X>X:X,X1X5X1XXX).<...o.X.` g 7 & [ [ ] ] [ { { { { ] ] [ [ { { { { { { { { { { B n n ",
"b B [ [ { [ [ { { ] B B B ] { [ k 5 1 r 6 s Y E  .5.p.V.A.S.F.P.[. X=X>X>X=X>X<X1X4X4X4X,XXX).Z.Z.Z.u.` r # ; [ [ B B [ [ ] ] ] [ [ ] ] [ [ [ [ [ [ ] { { [ n n ",
"; n { [ ] ] [ [ { { { { { [ ] N z i S D A D R X.5.z.c.x.x.v.H.'.|.=X.X*X|.|..XOX,X@X3X3X2X+XoX.X=X$X_.<.W e 8 x ] ; B B B ; ; { { ] B B ; ; ] B n B ; [ { ] n n ",
"n n B ] { { [ B B [ { { [ B - c Y ~  .^ D D ~ +.y.A.v.x.x.v.H.'..X:X=X.X|.|..XoX+X@X#X#X3X3X2X1X1X<X$XZ.<._ d q * ; n ; ; B [ { [ ; ; B n B x x ; ; B ] [ [ n ; ",
"b n [ [ [ ] ] B B ] B B B ; 5 p ~ +.6.@.I D Q 4.v.D.V.v.z.v.S.'..X:X=X.X X X X.X*X:X@X#X#X3X3X5X1X>X=X$X).<.` g < = ; B B ] { { ] ; x x B x x ; ; ; [ ] ] [ n ; ",
"; n { [ B ; b B [ B n ; ; k , F / 4.e.@.R I / 5.V.F.V.x.z.v.S.J.{..X.X.X.X X X X{..XOX+X#X3X3X@X-X-X*X>X*X).:.J . * x [ { { [ { [ x ; ; ; ; x ; ; b [ [ ] ] n ; ",
"b n [ B n ; - n { { [ [ ] x % i Y | @.+.^ / @.w.A.F.A.c.z.v.C.D.P.{. X.X;X.X X|.|. XoXOX+X@X+X+XOX.X=X<X<X`.:.D . h x { { [ [ { { [ B ; ; ; x B n B n [ [ [ ] n ",
"b n [ [ n n b ] { { { [ [ B x j l Y W | ' *.6.c.v.D.v.v.v.v.v.v.S.J.]..X;X.X X X X X.X.XOXOXOXoXoX.X;X<X:X_.:.G . h B { { ] B [ { { B n B B [ [ [ [ [ ] ] [ ] ; ",
"b n { { { { [ [ [ [ B N ] [ { ] - : S ! o.5.z.z.v.v.v.v.v.v.z.z.c.S.J.{..X.X.X.X.X.X X X&X X X X&X.X*X>X}.Z.u.W t 8 x ] ] B x [ { { { [ { { { { { { { ] B ] n ; ",
"- b ] { [ n [ { [ ] B x [ { { B * o S Q O.9.y.t.e.c.v.V.C.V.z.z.c.v.S.J.{.|.*X;X;X;X*X*X&X*X&X*X;X*X*X X'.C.i. .T p 6 * x [ { x n { { { { { [ { { [ ] ] ] B ; - ",
"; n [ { ] n ] [ [ ] B N B [ [ b % o S Q O.8.w.5.6.y.c.v.V.V.v.v.c.c.z.S.J.]..X;X*X.X*X&X&X&X.X*X*X*X|.'.F.A.v.6.+.T y , - ] [ ] ] { { { [ ] ] { [ ] n { { n ; ; ",
"b n { { [ n n [ { B x N n B b - 8 1 H ^ O.2.9.4.4.5.y.c.v.V.v.v.v.z.z.v.S.J.{. X}.{.{.{.{.{.{.{. X{.'.G.x.x.F.A.6.X.K o & = ; [ { ] { { { n n [ { { { { { { n n ",
"b n [ [ ] n ] ] ] ] B ; ] [ B - 8 1 H ^ O.4.9.4.2.4.q.t.c.V.V.V.v.x.z.x.v.G.J.'.J.J.J.J.J.J.J.J.J.J.H.C.x.v.F.A.w.X.H O 8 ; [ { B B [ { { B B [ { { [ B n { [ n ",
"; n n ] ] ] { [ B [ [ n ] { [ B & 1 F ^ O.4.9.8.4.2.5.q.e.c.V.C.v.v.v.v.v.V.v.C.C.C.C.C.C.C.C.S.S.C.C.V.v.A.F.A.5.} H o 8 n { B B B B { { [ [ [ { [ ] ; ; [ [ ; ",
"; b B B ] { { { { { { { B B { B = : S Q o.2.9.4.2.2.*.4.q.p.c.c.v.v.V.V.v.z.v.z.z.z.z.z.z.z.z.z.z.z.z.v.v.A.F.v.3./ F o * n B ; b B B [ { { [ { [ ] ] ] [ { n ; ",
"; ; b b B { [ [ { { [ B B B [ [ - o t Q o.4.w.5.2.2.*.2.5.5.e.c.v.S.A.V.v.v.x.z.z.z.z.z.z.z.z.z.z.z.z.v.v.A.F.v.3.~ S # k B ] ; B [ B B B B B { { [ ] ] { { ; * ",
"; ; ; ; n ] B ] { { [ ; B B [ B j 1 F Q o.4.q.5.4.2.4.2.-.4.q.e.c.v.v.v.v.v.v.v.c.V.c.V.v.c.x.v.V.z.c.V.V.C.F.v.5./ F 1 k n ] n B [ ] n n N B [ { [ ] [ { [ ; - ",
"n b ; b x ; B [ { [ [ ] B B N j 0 F Q o.-.4.5.4.4.4.4.2.-.-.4.w.e.c.c.z.c.c.v.v.c.V.V.c.v.v.V.v.V.V.c.V.V.C.F.v.6.o.T r 6 k ; B ] [ { { B [ { B ; B { { [ [ ] n ",
"b n n B ] B ] ] ] ] ] ] N - & 6 L ^ =.0.4.4.4.4.4.4.4.4.-.*.4.5.6.w.5.w.e.c.v.V.V.c.V.c.v.v.v.v.c.c.V.c.V.A.D.V.y.4.} Y G 6 h B ] [ { [ [ { [ [ ; ; [ [ n B ; ; ",
"; n ] ] [ { ] B B B B ] B = , F ^ ,.h.m.0.4.1.4.4.4.4.4.4.4.4.4.4.4.3.5.6.z.v.V.V.V.c.V.v.V.v.v.V.V.c.V.x.V.A.v.c.t.1./ R y 3 x B [ [ [ B [ [ { B B [ B ; n B ; ",
"* ; [ ] ] [ [ [ [ B B [ B h : L &.g.K.K.9.3.;.;.4.4.4.4.4.4.4.4.3.-.*.-.5.w.y.c.v.V.C.v.V.V.V.v.C.V.v.c.y.y.y.y.y.y.5.O.^ D 1 k B { { { B B B [ [ [ { B [ { n - ",
"- ; B B B ] B n B B B [ x & : L &.s.N.K.r.;.;.;.4.4.4.4.4.4.4.4.-.;.;.-.4.4.q.e.c.V.A.V.V.v.V.A.A.V.c.y.w.8.9.w.w.w.5.O.^ D 1 * b N B N N [ [ [ { [ B b n { n b ",
"n n n B ] B ; ; ; B B B ; * : H ) s.N.K.r.5.;.-.4.4.4.4.4.4.4.4.-.4.4.4.-.-.4.9.p.c.v.v.v.v.v.v.v.v.z.w.5.2.2.4.5.w.2.X.! F , % - b b - b [ { { { B n b b n n n ",
"; n [ [ [ ] n b B ; x ] B * o K &.U.W.W.N.0.4.4.4.3.4.4.4.4.4.4.4.4.4.4.4.-.4.9.w.e.z.y.e.e.e.y.y.y.w.5.2.*.*.-.5.w.8.=.^ H 1 h B B B [ [ B B { [ [ B n n [ n b ",
"- B ] ] [ { ] ] ] B B ] B = : K %.U.^.^.E.j.9.5.4.;.4.4.4.4.4.4.4.4.4.4.4.-.-.4.5.5.q.6.9.9.q.q.6.9.5.5.4.*.*.2.5.q.5.o.^ F 3 k B { { { { B n B n B [ B n ] n b ",
"; ; N x ] { { { [ ] [ ] B = # G $.U.~.^.W.l.r.4.3.;.3.4.4.4.4.4.4.4.4.4.4.4.4.4.2.2.2.2.2.2.2.2.4.4.4.4.4.4.4.4.4.5.*. .R y < k [ { { { [ B n n b b { { { n n n ",
"; ; ; B ] B B B B N N N b - * s U $.k.Y.Y.m.h.5.;.;.4.4.4.4.4.4.4.4.4.4.4.4.4.-.2.2.2.2.2.2.2.2.-.-.-.4.4.4.4.2.*.@./ T p 6 * N B { { { [ B n n m b B { { n b = ",
"- - b ] B x x N x ; x ; - - ; j q G ( s.f.m.n.9.3.*.3.4.4.4.4.4.4.4.4.4.4.4.4.4.2.2.2.2.2.2.2.2.4.2.;.4.4.5.5.4.o.' T r 5 & - b B { { { { B ] n n n [ { [ b = * ",
"- ; b n n b - x ; ; ; ; ; ; - - & o F ' f.Y.L.i.8.;.4.4.3.3.3.4.4.4.4.4.4.4.4.4.4.4.4.4.4.4.4.4.4.4.4.2.2.8.r.8.o.^ F 1 h x x x N { { { { { { { { B { { [ b - m ",
"- - n n B b b - - N x - N B B k 7   S %.U.Q.W.K.0.;.;.;.;.*.3.3.4.4.4.4.4.4.4.4.4.4.4.4.4.4.4.4.4.4.;.*.1.9.b.b.2.( S O h x B [ { { { { { B [ [ B b B [ { B n b ",
"; ; n ] { [ b b N B B N B B B z 0 O D &.U.(.(.Y.h.9.4.;.2.3.4.2.4.4.4.4.4.4.4.4.4.4.4.4.4.4.4.4.4.4.3.;.2.r.m.n.7.( D O q z ] [ { { { [ n B { [ b = m n [ [ B n ",
"b b b { { { n n [ [ { { B B N M f + K $.k.!.(.W.Y.m.r.9.5.8.8.4.4.3.3.3.3.4.3.4.4.2.4.4.4.2.4.3.4.4.5.5.q.r.n.d.=.! H e g v B x B { { [ b B { { n - b [ { b b b ",
"; ; n ] { { { [ b b [ { B N V C a a d U ( k.!.^./.Q.L.j.h.r.r.8.3.*.*.;.;.;.;.;.1.1.3.@.1.*.*.3.4.5.r.b.n.h.d.=.! I g a f Z N N B { { { [ { { { [ n [ { { n b b ",
"- ; n n [ { { ] b b B { B V m z f v a u D ( k.!.(./.R.N.n.m.h.r.4.3.3.3.4.3.4.3.2.3.3.5.4.2.3.3.3.4.w.n.m.g.%.Q F g f w v Z V N B { { { { { { [ { { { { [ [ n b ",
"; n ] { { { [ [ { B B { B N k C C M 9 2 O S $.k.T.T.l.g.l.B.B.n.r.9.9.9.9.r.r.r.r.r.w.r.r.r.r.8.;.=.*.0.7.=.! S 2 0 9 0 v M V b b B [ [ { { [ ] B B [ B B [ B n ",
"; n { ] [ { { [ { { { [ B N k C C l 9 7 > e U $.>.>.%.&.g.B.E.L.B.n.n.m.K.n.n.m.n.n.m.n.M.M.M.h.-./ ^ ) } ^ I g 0 0 9 w f w j = - B B B B B [ [ [ B [ [ { { B n ",
"; B [ N B { [ [ [ { [ N B B m M C w 9 w 9 0 g L P K L ! =.m.R.R.B.N.N.N.m.N.m.M.N.N.m.N.B.L.L.g.&.R D D K J g f M 9 0 w w 0 j m N B B B B B [ { { { { [ { [ ] n ",
"b N B x b B B B [ N - b - k N m M C l z z l f r + O + F ^ =.f.g.d.7.7.7.7.7.7.7.7.7.0.s.s.g.d.,.^ D + + + e f M V M M w M m B n [ [ [ { { [ { { { { { n n [ ] n ",
"b n B N N n n B B N b B k m N N M M C l l l w 0 4 > 4 g I ^ } } ) ) ) } ) ) ) ) ) ) ) ) } %.} ^ I u 2 4 2 2 w M V C C M m m B { { { { { ] B [ { ] n ] n b n n n ",
"; n [ [ B B B N N N B [ b N [ B N m l C w w l 9 9 C l d g H K K K K L H K L H L H L L L L L L G u f w 9 0 f 9 C C C C m m B B [ { { { [ B B [ [ n n ] ] n ; ; n ",
"n B [ { { [ [ [ B b b b - b [ [ B m m M M C C z M m M M f e e e e e y e e e e e y e e e e e e e a w 9 9 0 w C C M 9 M B n { { [ ] [ [ [ { { { { { { { { [ [ n n ",
"b n [ [ { { [ { { [ B B B [ { { [ b m k l C w C C M j l w 4 4 3 4 4 2 4 4 4 4 0 4 4 4 4 4 4 4 0 w l z j M C C C l M N B [ B B [ [ [ ] ] [ [ [ [ [ [ [ { { [ n n ",
"b n { [ [ B [ { { { { { { { { { { b b m j w w C C l w w f 0 w w w w q v v l v l l w v l w v l l C C M M M Z C M m = N B n b n { { B n n b b n n n n b [ { [ n n ",
"b n n ] [ { [ B B [ { { { { { B n n b - = j m V k w w w w w w w w w l l l z l l M l l l M M l l l l l M m m m j m N b b n B B { [ b n n n n n b ; b n ] ] ] n ; ",
"b n n { [ [ B n B ] B B [ { [ B B ] B x x x ] ] x 8 q w f 0 w w w w l l l l l M M M l M M z l l w w w h N B B N x ] B B B ] { { ] ; x x ] ; x ; ; ; ] [ ] ] n ; ",
"b n { { n b n B ] ] x ; ] { ] [ { { [ [ [ [ { { ] j w q f 9 q q w w z l l l M M 9 l M M w w w w C l l j n { [ B [ { [ [ { { [ { [ x ; x ; ; ; x ; ; [ [ ] ] n n ",
"b n [ ] N - - B { { [ [ { [ ] [ { { { { { { [ { [ B j 8 9 9 h k j j k k m N m V m m m j j & & j m V N B [ { B { { { { [ { { [ { { { x ; ; ; x [ n n ] ] [ [ ] n ",
"b n [ [ B N b B { { { { [ [ ] [ { [ { { { [ B [ { [ B x b N N N B B B N b n B B B B N b b m - b B B B [ [ [ B { { { { { [ ] B [ { { ] x ; B [ [ [ [ [ ] ] [ ] ; ",
"; n [ { { { { { [ [ x n [ { { { { [ { [ ] x x ] [ { { { [ { { { { { { ] B B ] [ [ [ [ { { [ [ [ { B B N B { { { { [ [ ] ] B N ] { { [ { { { { { { { { [ n ] n ; ",
"- n ] { [ n [ [ [ ] ] ; [ { { [ ] B x B { { [ B n { { { { [ [ { { [ B ] ] B n B B B [ { [ B [ { [ [ B b B { { { ] B B B [ { [ n ] { { { { { [ { { [ ] ] [ n ; - ",
"; n [ { ] b ] [ [ [ ] ; n [ [ [ B ] B B { { [ B ] { { { { ] ] { { ] B [ [ B n B [ B [ { B n n { [ B B b B { [ B B ] B B { [ [ B ] [ { { { [ [ [ { ] ] [ { n ; - ",
"n n { { [ ] n ] { [ ; ; ] ; n ; B [ { { [ x ; [ { ] { { { n n [ [ { { { { [ { { { { { { [ B n [ { B N N N N N B B [ { { [ b b [ [ ] { { { ] ; [ [ [ { { { [ ] ; ",
"; n [ [ ] n ] [ ] ] n b ] [ n ] B [ [ B B [ [ [ n n [ { { B B { { { [ n n { { { [ { [ { [ n n ] [ B B n B [ B B [ [ ] B ] [ [ [ ] ; [ { { ] B [ { { [ n ] [ [ ] ",
"; b ] ] ] ] [ [ ] [ [ n [ { [ [ [ { B N B [ { B B n B { { [ B { { [ ] ; n { { { B B n B B [ { [ B { { N ] { { [ [ [ B n ] [ [ B ; ] [ { { [ ] [ { [ [ ; ; { ] ; ",
"; b n n [ { { { { { { { n n { ] [ { { B [ B B b B B [ [ { [ { { [ ] n ] [ [ ] ] [ B B B [ { { { { { { { B N { [ ] { [ [ ] ] B ; ; [ ] [ { { [ { [ ] ] ] [ { ; - ",
"; b b n ] [ [ [ { { [ ] n ] { { { { [ [ { [ B n B [ n B B n B { { [ ] [ { { n ; [ B b b B { [ [ { { { B B B { { { { [ [ { [ B b ] [ ] ; ] n n { { [ ] ] { { ; = ",
"; ; ; ; n n n ] { { [ n n [ { { [ [ B [ { { [ n B { B B B N B { { [ [ [ [ { B N [ B b - b B B [ { { ] n n [ [ [ [ ] B ] { { ] B ] [ ] n n n ] [ { [ [ [ { { ; - ",
"b b ; b n ; ] ] [ [ [ n n ] [ n n n N B { { [ [ [ { { { B { { B b b [ { { [ [ { { n b b b b B [ [ { [ n n [ [ B n B B B { { [ ] [ [ { [ [ [ { ] ; x { { { ] ] ; ",
"- - ; ; ; ; n ; n ; n n n n n b b b b n b n [ n n n n B N B B n - - n n b b B B B b - b b b b b n b n b n n b b ; b n n B B B B ] ] ] n n ] n n ; ; n ; ; ; ; - ",
"* = ; ; n n ; ; ; - - ; b ; - ; n b n b - - b n n b - b b b b n - - ; - * = - b b - - b b b b - - = - b b b - b n b n b - - ; n ; ; ; ; ; ; ; n ; = ; - = = = * "
};
