/* XPM */
static char *Group_9_resized[] = {
/* columns rows colors chars-per-pixel */
"80 80 225 2 ",
"   c #243F1F",
".  c #130E2A",
"X  c #14142C",
"o  c #1A1837",
"O  c #27193C",
"+  c #1B2538",
"@  c #1E3639",
"#  c #1C333C",
"$  c #273C25",
"%  c #22213E",
"&  c #233D36",
"*  c #294B1E",
"=  c #2F5216",
"-  c #30551D",
";  c #335C1C",
":  c #36621C",
">  c #39651D",
",  c #3C6D1E",
"<  c #3F711F",
"1  c #264423",
"2  c #284725",
"3  c #2B4C24",
"4  c #2D452D",
"5  c #2C492D",
"6  c #304727",
"7  c #314B2D",
"8  c #2D5124",
"9  c #2D5229",
"0  c #365726",
"q  c #345C22",
"w  c #33552A",
"e  c #35592B",
"r  c #3A5D2B",
"t  c #274535",
"y  c #2A4934",
"u  c #26423B",
"i  c #29453C",
"p  c #2A4C3C",
"a  c #304D3F",
"s  c #2F5734",
"d  c #2D523C",
"f  c #345233",
"g  c #365935",
"h  c #366121",
"j  c #3A6423",
"k  c #3D6B23",
"l  c #3D642C",
"z  c #3F692A",
"x  c #3F7220",
"c  c #3D6230",
"v  c #41751F",
"b  c #43781F",
"n  c #406E25",
"m  c #40672E",
"M  c #416A2D",
"N  c #417620",
"B  c #457C21",
"V  c #427129",
"C  c #406631",
"Z  c #426931",
"A  c #2C1E41",
"S  c #1D2441",
"D  c #222644",
"F  c #342F4B",
"G  c #263A47",
"H  c #383556",
"J  c #3C3E63",
"K  c #433857",
"L  c #403D63",
"P  c #1D4545",
"I  c #2B4E45",
"U  c #264749",
"Y  c #2A4E4A",
"T  c #2E5443",
"R  c #2D524B",
"E  c #295448",
"W  c #315444",
"Q  c #335A47",
"!  c #2C4B53",
"~  c #3A4355",
"^  c #2D5352",
"/  c #2D5A56",
"(  c #2E5B59",
")  c #325C55",
"_  c #355458",
"`  c #325D5A",
"'  c #356855",
"]  c #33635C",
"[  c #366959",
"{  c #386764",
"}  c #356A63",
"|  c #396C64",
" . c #346A6C",
".. c #3A7766",
"X. c #3C746B",
"o. c #3D7A6C",
"O. c #366C72",
"+. c #3B7673",
"@. c #3D7C73",
"#. c #3B787B",
"$. c #4E4F6C",
"%. c #495865",
"&. c #605C7E",
"*. c #46676B",
"=. c #437D6D",
"-. c #48796A",
";. c #5D6776",
":. c #447B70",
">. c #478022",
",. c #498423",
"<. c #4C8A24",
"1. c #3F8279",
"2. c #438474",
"3. c #468776",
"4. c #43857A",
"5. c #468B79",
"6. c #4A8D7C",
"7. c #518774",
"8. c #48957B",
"9. c #4A937E",
"0. c #71718B",
"q. c #3E8188",
"w. c #428B84",
"e. c #428B85",
"r. c #4B9681",
"t. c #4E9B84",
"y. c #45948B",
"u. c #499788",
"i. c #539984",
"p. c #509E84",
"a. c #499C94",
"s. c #4EA185",
"d. c #4FA48A",
"f. c #51A286",
"g. c #52A48A",
"h. c #54AA8D",
"j. c #58AF8E",
"k. c #56B18E",
"l. c #4EA599",
"z. c #4DA59A",
"x. c #55AD92",
"c. c #57B193",
"v. c #59B494",
"b. c #5CBB96",
"n. c #56B19A",
"m. c #58B498",
"M. c #5CBB99",
"N. c #69AD93",
"B. c #6EB699",
"V. c #61BF99",
"C. c #72B799",
"Z. c #479BA9",
"A. c #51ADA3",
"S. c #54B3A2",
"D. c #57B8A3",
"F. c #59BBA4",
"G. c #54B6AA",
"H. c #56BAAC",
"J. c #59BEAB",
"K. c #50AEB1",
"L. c #5EC49B",
"P. c #5FC99E",
"I. c #61C69D",
"U. c #6CC39F",
"Y. c #62C99F",
"T. c #5CC2AC",
"R. c #5BC5B4",
"E. c #5EC9B4",
"W. c #5ECCBA",
"Q. c #64CDA1",
"!. c #6ACEA3",
"~. c #78C9A9",
"^. c #66D2A4",
"/. c #6AD3A6",
"(. c #67D9A9",
"). c #6ADBAA",
"_. c #70D3A7",
"`. c #74D6A9",
"'. c #73DCAC",
"]. c #7CD8AD",
"[. c #61D0BE",
"{. c #6FE2AF",
"}. c #70E3B0",
"|. c #74E9B3",
" X c #57BECD",
".X c #5ECDC2",
"XX c #59C7D8",
"oX c #5ED1D8",
"OX c #63D7C7",
"+X c #61D5CB",
"@X c #62DCDD",
"#X c #67E0D7",
"$X c #62DCE8",
"%X c #67E6E8",
"&X c #66E6F2",
"*X c #8C8CA4",
"=X c #9394A9",
"-X c #80CFAC",
";X c #82DEB2",
":X c #8BDDB6",
">X c #83E2B3",
",X c #89E8B7",
"<X c #93E5BA",
"1X c #98E6B8",
"2X c #94EDBD",
"3X c #8CF3BE",
"4X c #96F0BF",
"5X c #9AF0BF",
"6X c #A1F3BF",
"7X c #ABF5BF",
"8X c #B5F8BF",
"9X c #D0FEBE",
"0X c #ABAEC3",
"qX c #8EF6C0",
"wX c #96F1C1",
"eX c #9BF3C2",
"rX c #9FF9C8",
"tX c #A1F5C4",
"yX c #A9F9C6",
"uX c #A3FBCC",
"iX c #B9FAC8",
"pX c #C5FCC4",
"aX c #CEFEC3",
"sX c #D6FFC4",
"dX c #C5FCD3",
/* pixels */
"= : v , v v , v v , , v v v b v v v v v , , v B b v b v , , , v < v b v , b v , > , v n , v < v v , , v v v b v < v v v , , v b v v v v n , v v n v v v v b n = ",
"> , v v N B v , v , v B b b v v < N v v , , v N v < v < x N B B B N v , v B B B N v v v v v < v < < v b B N v v < b v < , < v b v v v v v v B b b v v v v b v , ",
"b b v b B B v v v v b B B B B N N B N , v B B N < < , k N >.<.<.<.>.v < v B <.<.<.>.N B b >.v < v b b >.B B N N N N N < v N B N v v v n v B <.<.<.b v , v b b v ",
"v b ,.<.,.B v v b v b >.,.,.<.<.,.B N N B ,.,.,.>.>.,.,.,.>.>.,.,.,.>.b v >.>.>.>.,.,.<.<.b v v b v b b ,.<.<.<.,.>.v < B ,.<.,.,.B B ,.b ,.,.,.,.<.>.v b ,.b v ",
"v v >.,.,.,.,.,.>.B B >.<.<.<.<.<.,.B ,.<.<.<.<.<.<.<.<.,.>.B B B B <.>.B >.>.,.>.>.>.B <.<.>.>.>.b B >.<.<.<.<.,.<.>.>.<.<.<.<.<.,.<.<.,.B B B b >.,.,.B B b v ",
"v v v v ,.<.<.<.,.,.,.>.<.,.B B B <.<.<.<.<.<.,.<.<.<.<.>.B B B k N ,.<.,.B >.<.,.B N N B <.<.<.,.<.>.,.<.<.B B >.<.<.<.<.<.<.<.<.<.<.<.,.B B N v v ,.<.<.B v v ",
", , v b B B B B B N N N N B ,.,.<.,.B N B B ,.,.,.<.<.,.,.b b N , v >.<.<.B B N B B N B B B B B b b b N N B >.,.<.,.>.N B B >.,.<.<.<.<.,.B B B v v b <.<.B v > ",
", v v b b v v N N < < N x < B ,.<.>.B B N B N v B <.<.<.<.>.>.>.b v ,.<.,.N < v B N v >.B N N N v < < < < N B ,.,.>.B B N B N N B ,.<.<.<.B ,.B v v ,.<.,.N > > ",
", < b >.B < < < < < < < x < < N >.b <.<.<.b b v b <.<.<.<.<.<.<.,.>.<.<.,.k N >.B B N >.B v , , x < < < x < < B >.>.,.<.<.>.x < N <.<.<.<.<.<.<.,.,.<.<.,.v , v ",
", < < B B B < < < x < < N B N >.,.>.<.<.<.<.B ,.<.<.<.<.,.,.<.,.B N B ,.<.B ,.,.B N v B B B v , < < < < x B x >.<.>.<.<.<.,.B ,.<.<.<.<.<.B ,.,.B N B >.,.>.v v ",
"< < b >.,.>.x x N B B B B >.,.<.<.,.<.<.<.,.,.<.<.<.<.<.b B ,.,.x , , B <.,.<.<.>.B v >.<.B N N x >.B x >.>.,.<.<.,.,.<.,.,.,.<.<.<.<.<.B B ,.<.N , , B <.>.v v ",
"b < x <.<.<.B N >.,.<.<.,.,.<.<.<.>.<.<.B ,.,.B B <.<.B b ,.<.<.N , v ,.<.N B <.<.B N <.<.<.B B ,.<.<.<.,.,.<.<.<.>.<.<.B >.<.>.,.<.<.B N B <.<.N , v ,.<.N v v ",
"< < b >.<.<.<.>.N N ,.<.,.B <.>.B <.<.<.,.<.<.,.<.<.<.<.,.<.<.<.,.B <.<.<.B B B >.N v B <.<.<.B < b ,.<.>.B <.>.B ,.<.<.,.<.<.>.<.<.<.<.,.<.<.<.B B ,.<.<.B v v ",
", < b b ,.<.<.,.v x B <.>.B ,.>.b <.,.b <.<.<.<.,.<.<.<.<.<.<.<.,.<.<.<.<.B ,.,.B B B B >.<.<.>.< < >.<.>.B <.B B <.>.B <.<.<.,.B <.<.<.<.<.<.<.<.<.<.<.,.>.B v ",
"v b ,.<.<.<.,.,.<.>.B <.>.>.,.<.<.b v v b <.<.b v B B <.,.<.<.b B B ,.B B ,.<.<.,.>.>.<.,.>.N N >.x N <.>.B ,.<.<.>.< < B <.<.N N B ,.<.<.<.<.B B B B B B ,.B v ",
"< b <.,.<.<.,.,.<.<.,.>.,.,.,.<.<.v v n v B b n v B B B B B ,.,.,.B ,.,.<.<.<.<.,.,.<.>.b > 8 8 q > < >.,.,.,.<.<.b x < x B >.x N N B B B B B <.<.B ,.<.<.<.>.B ",
"< b ,.b B <.,.,.<.<.,.N B ,.<.<.<.B v N v v N N N B B N B B ,.<.<.<.,.,.>.,.,.>.B >.>.x > 9 t u t e j x >.,.,.<.<.b < b < < B x N B B B N B ,.<.<.<.<.<.<.<.B b ",
"b b N v v B B >.,.N x x < N ,.,.<.,.,.B >.,.<.<.<.,.<.<.<.<.<.<.<.,.x > : , x < k < , - 9 Q | X.] T 9 : , < ,.<.<.,.,.b ,.,.<.<.<.<.<.<.<.<.<.<.<.<.<.b N ,.B b ",
"v b >.b v N B B B N N B < < >.<.<.<.,.,.B B ,.<.<.<.<.,.B ,.<.<.B , ; 1   1 3 3 3 * * 1 T ..9.p.1.] d 2 - , >.<.<.,.,.>.B >.<.<.<.<.<.,.>.>.<.,.>.b >.b v N b b ",
"< b <.>.B B B B N N B >.N < >.<.<.,.,.,.B B >.<.<.<.<.,.N v b B , q 2 u P & t u t & $ d ..8.b.L.d.1.] p 2 : N ,.<.,.,.<.B B >.,.<.<.<.,.N B ,.,.b v >.>.B v v b ",
"N B B <.<.<.>.,.>.N N x , N <.,.>.B ,.<.<.<.<.>.>.,.,.>.B , > > : e ' -.7.:.:.:.=.-.-.2.f.V./.^.L.g.3.] T 3 < >.,.>.,.<.<.<.<.>.>.,.,.<.<.<.<.<.<.<.<.<.<.B b b ",
"v B <.<.<.,.,.,.<.,.B B B ,.<.<.<.B >.<.,.,.>.>.,.>.>.B h 9 1 $ 5 ' 6.B.~.C.C.C.B.C.C.C.U.^.^.Q.Y.b.g.4.] d 9 k b N >.<.,.>.>.>.,.>.,.>.,.,.,.,.,.,.,.<.<.>.b v ",
"v b <.>.,.,.,.<.<.<.<.<.<.<.<.<.>.N N B B N N <.<.B b j 3 p U & I 7.C.1XuX2X<X<X<X5X1X<X]._.Y.Y.Y.I.v.t.2.] i 0 k < b B B < v <.<.B >.N N N B B B v N ,.<.,.b v ",
"v b B ,.,.<.,.B >.,.<.<.<.<.,.,.B B N N v B >.<.>., ; 8 Q 7.6.3.7.C.1XiXdXiXiXyXyXuXuXeX4X>X_.^.^.Y.Y.b.g.4.] p 9 : < N v N ,.<.,.N N B B N N N v v B >.,.,.B v ",
"v b B ,.,.>.B B B >.B B ,.<.,.B B >.B B B >.<.<.B ; 1 T -.C.-X~.-X1X7XaXsXaXdXiXuXuXrXrXeX2X;X`.!.Q.Y.Y.M.g.:.] d 9 : < B >.<.<.>.v v N B N v x , v >.>.>.>.b < ",
"v B <.<.>.< N >.,.B N x >.,.,.,.,.<.,.>.<.<.<.,.x 9 d =.B.<XuXuXyXiX9XsXsXsXpXyX5XwX2XeXeXeX2X].!.Y.P.Y.Q.M.g.4.[ p 9 k >.<.,.<.,.N x , < x < < < v ,.,.>.>.b v ",
"v B ,.>.b , < b <.<.<.,.<.,.B ,.<.<.<.<.<.<.>.> 0 Q -.N.:XrXuXiXpXsXsXsX9XpX7X6X5X2X2XeXtXuX5X;X/.Y.P.Y.Q.T.c.g.5.] T e k B ,.,.<.,.B , , N N B B B >.>.,.,.>.b ",
"v B ,.>.>.N v b <.<.<.,.<.,.>.<.<.,.<.<.<.< k 3 Q -.B.:XrXuXyXiXaXsXsXaX8X7X6X5X4X4X4X5XtXtX2X>X!.Y.P.Y.!.Y.L.M.g.1.[ T 9 j N ,.<.<.B B N B >.,.,.,.>.>.>.<.b b ",
"v b <.<.<.<.,.<.<.,.B N >.<.<.<.<.,.>.>.B j 9 p ..B.<XuXuXrX7X8X9X9X9XiX7X5X2X2X4X5XeX5X5X5X>X`.Y.Y.Y.Y.Q.!.Q.Q.b.u.o.] 5 8 < >.<.<.<.,.<.<.<.<.<.<.<.>.B >.b v ",
"< v ,.<.,.b ,.<.,.>.>.N ,.<.<.<.>.B N v > e T [ 9.~.5XuXuXeX5X7X7X8X8X7X6X5X2X2X5XeXtXeX<X>X`./.Y.Y.I.Y.Q.!.Q.Q.b.r.o./ 5 q >.< B <.<.<.<.<.<.<.<.,.>.>.,.B < > ",
", b >.<.>.b >.<.,.>.B N B <.,.>.B >.B > 8 p [ 8.I.,X4X5XtXeX5X5X6X6X6X5X5X5X4X4X5XeX6X2X>X`.Y.Y.Y.Y.Y.Y.Q.Q.Q.Q.c.6.X.^ 5 h >.B >.<.<.<.,.>.>.<.<.,.B ,.<.B v , ",
"v >.<.<.,.b b ,.<.B x N N N N b B ,.,.N 1 I @.h._.|.,X,X4XeXeXeXwXwXwXwXeXeXeXeXeX5X2X>X`.Y.L.I.Y.Y.Y.Y.Q.I.v.M.x.6.| R 1 = < ,.<.>.<.<.<.b b ,.,.<.<.<.<.,.b b ",
"< b ,.,.,.B >.,.>.>.b < >.,.>.B >.,.>.k * i ..g.Y.{.'.].,X4XtXeXeXwX5XeXeXeXtXtXeX2X>X`.Q.I.L.L.I.Q.Q.Q.I.b.j.c.x.6.{ I 1 ; >.,.>.b >.<.<.b b ,.<.<.,.b B <.>.b ",
"< < >.>.>.>.,.,.>.<.,.b >.<.,.,.,.>.< : 1 Q 2.g.Y.(.Y./.>X4XrXrXeX4X2X5X2X2X5X5X1X,X`.Q.I.Q.^.Q.^.Q.Q.I.b.x.g.h.h.r.o.) y j B B v b >.<.<.,.,.<.<.<.>.v v ,.>.v ",
"< b >.B >.<.<.<.<.<.<.<.b b <.,.B x j 9 Q ..p.v.Y.Y.P.Y.'.,X3XqX3X,X,X>X;X;X,X>X;X`.Q.P.P.^.(.{.)./.Y.b.j.g.t.g.d.a.r.4.' s 0 : n b B ,.<.<.<.<.,.>.>.>.,.<.b , ",
"< < < < >.,.,.,.<.<.<.,.B B <.<.B h w Q 2.f.I.Y.Y.Y.Y.Y./.).'.'.'.)././._./._._.!.!.Y.I.Q.^./.(./.Q.M.h.g.u.g.p.g.g.S.A.q.[ p 8 n <.B B >.b b <.<.,.>.>.<.<.b > ",
"< < < < x ,.>.>.<.<.,.b B >.<.<.x 3 p } f.Y.)./.^.Y./.Y.b.g.d.s.h.b.I.Q.Q.Y.Y.P.I.Q.^.Q.L.k.d.f.k.h.h.g.g.g.f.p.g.n.R.W.S.#.E 2 > ,.B B b b B <.<.<.>.,.<.<.v > ",
"b < < b x < b ,.,.,.,.>.B >.,.B , 1 p X.g./.}./.^.).{.Y.8.( P P [ 8.b.(.).Y.L.L.I.(.}.^.s...E I ] =.u.x.c.x.g.p.s.m.E.W.G.1.^ 5 ; ,.<.<.B ,.<.b v b <.<.<.>.B v ",
"v b b b >.>.>.>.>.>.>.,.>.>.>.B x * p | 8.Y.{./.!././.j.-.& X . & ] p.Y.(.Q.L.P.I././.V.5.^ o X + ! =.i.x.h.g.p.f.n.R.W.S.#.R 2 > ,.<.,.,.<.<.,.v v <.,.b b b b ",
"< b ,.,.,.,.>.>.b B b >.,.,.B ,.N 8 p ] 5.b./.^.Y.I.g.6.*.K K . O G | p.b.I.Q.^.Y.L.c.6.-.%.K O o % ! X.9.p.g.f.g.x.R.R.A.+.I 9 > ,.,.,.B ,.,.<.b b ,.b v b b v ",
": < ,.>.,.,.,.,.,.B B <.,.<.<.,.x 8 d ] 4.h.^.(.L.8.) _ 0.*X*X&.H S S ( 3.j.).}.^.8..._ ;.*X*X0.J D S G ] 4.g.g.g.x.T.R.A.#.I 9 n ,.<.<.>.b b ,.,.,.<.B B <.b v ",
", v >.b B >.b B B B B ,.>.>.>.B , 8 i ] o.g.I./.k...P ~ 0.0X0X*XJ o o G ..j.).|.Y.3.R G &.=X0X=X$.D X + ! 2.h.h.h.n.R.R.z.+.I 2 ; b b b b >.,.>.<.,.B v b <.b v ",
"b b v b >.B v < b v N >.B N B N > * p ` o.t.b.I.h.1.U ~ ;.=X*X&.J S S ! 3.v.(.).L.1.^ U ;.*X=X0.L D + G ` 3.h.x.n.F.E.R.z.+.Y 2 = n v v b ,.<.<.<.B v v v B b b ",
"< b ,.<.,.>.v v N v b >.,.<.<.<.x 8 i ) =.t.c.v.k.t.1.*.;.%.K O % G | u.V.Y.Q.Q.v.t.4.*.*.%.K F A D ! X.3.t.h.n.F.R.[.R.l.+.I 2 n b b ,.<.b >.<.<.,.,.b b ,.b v ",
"< N >.>.,.<.,.>.,.B B >.<.<.<.<.< 8 i ] 4.g.n.x.g.h.h.9.] G X . S ` r.Y.).^.I.v.h.h.h.r.X.U o . o G +.t.h.g.h.n.J..X#X+XA.@.Y 3 > ,.<.<.,.B B B B B B ,.b >.b v ",
"v v v N >.<.<.<.,.,.>.,.<.,.B B < 8 p } y.D.F.x.g.h.v.d...P # @ ^ 2.h.!.(.Q.b.c.h.v.m.h.1./ @ @ !  .r.x.j.h.g.c.T.+X%X%X X#.R 2 : <.<.<.,.B B B v v ,.<.<.b b v ",
", , v B B B B B B N N N N B ,.,.N * p } a.J.E.n.g.g.g.g.r.1.1.1.5.r.h.c.m.c.h.h.h.h.x.h.r.5.1.1.4.r.p.h.g.g.h.x.J.+X&X&X Xq.Y 3 ; <.<.<.,.B b b v n B <.<.b v > ",
", < N >.B v v N x < x x x N B ,.N - a ` e.A.J.F.c.h.g.d.g.g.h.h.x.h.g.t.r.9.5.5.9.r.t.g.g.h.h.h.h.g.g.p.f.u.x.J..X@X$XXXK.+.I 3 n ,.<.<.<.B ,.b v B ,.<.<.v > ; ",
", , v b B v , v < < v < < < < N b n f Q { 4.z.G.T.F.h.f.g.h.v.m.c.x.h.t.2.| ] ] | :.9.g.x.x.c.x.x.g.f.p.s.x.H.+X%X$X XZ.#._ f w n <.<.<.<.<.<.<.<.,.<.<.<.v > v ",
", v b b B b v , , v N , N N N >.,.V m g a _ #.z.H.T.n.g.g.h.h.h.h.h.x.r.../ U @ Y ] 3.g.x.x.x.x.h.g.g.h.x.F..X$X%XXXZ. .R f l V B <.<.<.<.B ,.,.b v B ,.<.>.b v ",
"v v b >.<.>.v v N B B N B >.,.<.<.B V r 6 i ) :.z.H.D.m.c.h.g.d.g.g.h.t...^ @ + # R =.f.h.g.d.g.x.x.x.D.E.+X$X$XXXZ.O.I 4 0 m B <.<.<.<.B B ,.<.v , n b <.>.b b ",
"v v v <.<.<.B b >.<.<.<.,.,.<.<.,.N M m r f W ) @.z.H.E.T.m.h.g.f.g.g.9.=.` @ + # Y ..f.g.f.d.x.S.J.T.E.#X%X&XXXZ. .R f 0 r M n B <.<.B v B <.<.v n n ,.<.b b v ",
"v v b ,.,.<.<.>.N N ,.<.>.>.<.>.b N M M M m g y / 1.z.H.D.g.t.d.h.x.c.g.y.@.{ ! ^ } 4.h.k.h.n.F.R.R.J.J.oX$XXXZ.{ a 7 r m M M n B <.<.<.,.<.<.<.>.b <.<.<.b v n ",
", , b b ,.<.<.,.N x B <.>.B ,.>.v v m c M V r 6 i ] q.y.w.3.5.d.D.T.J.F.n.l.y.4.1.y.l.D.T.F.T.W.+XR.G.a.Z.K.Z.#.R 6 0 r M M m n N <.<.<.<.<.<.<.<.<.<.<.<.>.b v ",
"v b >.<.<.<.,.,.<.B B <.,.>.,.,.,.n r f m M m e f W ] ] ] ] o.d.R.OX[.W.R.R.H.G.S.H.R.E.W.W..XOXOXH.y.|  .O. .) g r 0 e r C C j > B ,.<.,.<.<.B b b >.b b ,.b b ",
", b <.>.,.<.<.,.<.<.,.>.,.,.,.<.>.n r 0 r r l 0 e f p i u u ] q.S.R.H.G.G.G.G.H.G.H.G.G.G.G.H.H.H.y.| Y u u I g r r r e r r l h v B B B b B ,.,.>.>.<.<.<.<.>.b ",
"v B ,.N B <.,.,.<.<.>.B B ,.,.<.,.N n h 0 r r l r r 7 $ $ y R | 4.y.y.e.e.y.y.y.y.y.y.e.e.e.y.y.w.X.Q 4 $ $ 4 r m m r r r j j x N B B B N B ,.<.,.<.<.<.,.,.>.b ",
"v N B N N B B B ,.N x x x N ,.<.<.,.B n l m C m m m r l C c g Q ( ( ( ) ( ( ( ( ) ) ( ( ^ ( ( ` ) Y W 7 0 w r l l m l l l x >.,.<.,.<.,.<.<.<.<.<.<.<.>.b ,.>.b ",
"v B B N N N B B B N N B x < >.<.<.<.,.B v j m m C C M M m m r f i i i i i i i i I i p i U i i i u y w l r 0 c Z m m l l k B ,.<.<.<.<.<.B ,.,.,.b >.>.b b b b b ",
", B <.>.B B B N N N B ,.N N B <.<.,.,.,.v n n m C C M m l m r r 7 4 y 7 7 4 y 7 7 7 7 7 4 4 4 4 4 7 0 m l r l Z C m n V N N ,.,.,.<.<.,.B B ,.<.b v >.>.b < v b ",
"N B ,.<.<.<.,.,.B B v v , N <.,.B ,.<.<.<.<.B n l l l M M M m m m l M l l r l l l l r l l l r l r r e r w r z l c l N ,.,.<.<.>.B <.,.<.<.<.<.<.<.<.<.<.,.>.b b ",
"v B ,.,.,.<.,.<.<.>.B B B >.<.<.>.B B <.,.B B V n M k l l l c C M M m M Z m M Z M m m M M M M M Z m r r l l V V n k N ,.,.,.B ,.,.,.B ,.,.,.,.,.<.,.>.<.<.>.b b ",
"v b <.,.>.,.,.<.<.<.<.<.<.<.<.<.,.v B B N N N B B N v k q r r l r r r m M l m Z l M M l m m M M Z Z Z C M B B B B k N B N N N <.<.B B B N N B B b b v ,.<.,.b b ",
"v b >.>.,.<.,.B >.,.<.<.<.<.<.B B B N v N B ,.<.B , v v k l r r 0 r l l k l l z n l l l M M l l l l m M V ,.,.>.N N N N N B ,.<.>.N N N B B N N v b b >.,.,.b < ",
"v b B ,.,.>.B B B B B B ,.<.,.B B ,.B N B >.<.<.,.N N v , j h h q j n n n n n n n n n n n n k k k k j j B ,.,.B B ,.B B B >.<.<.,.v v n v v v v , < ,.>.>.>.b < ",
"v b <.<.>.v B B ,.>.B x B ,.,.,.,.<.,.,.,.<.,.<.,.N x x , k , , > v B B N v B B B B B B N , k v N N v j B ,.,.,.,.<.,.,.<.<.<.<.,.N v v v , < v < b ,.,.,.b b < ",
"v B ,.>.N , , N <.<.,.,.<.,.B ,.<.<.<.<.<.<.,.<.<.,.N x , < x N b B B B B ,.,.,.,.B ,.B v , , b <.<.,.,.,.,.B ,.<.<.<.<.<.,.,.,.,.,.N v , v N B b >.b >.,.,.>.b ",
"v b ,.,.B B b B <.<.<.<.<.,.,.<.<.<.<.<.<.>.B ,.<.<.B N N B >.,.,.,.,.,.,.<.<.<.<.<.,.,.B B v B <.<.<.,.<.<.B <.<.<.<.<.,.,.>.,.<.<.>.B N B >.>.,.,.,.>.>.,.>.b ",
"< >.<.<.<.<.<.,.<.>.B N >.<.<.<.<.,.,.,.>.B N ,.<.<.<.<.<.<.<.<.<.<.<.>.B >.>.<.,.,.<.<.<.<.,.<.<.B B v B <.<.<.<.>.,.,.,.b b >.,.<.<.<.<.<.<.<.<.<.<.,.b >.b < ",
"< < >.<.,.B ,.<.,.>.B N >.<.<.<.,.B B B ,.<.,.N B <.<.<.<.<.<.<.<.,.B ,.>.B b b B B ,.<.,.N ,.<.,.,.B N ,.<.<.,.>.>.b b ,.,.<.b >.<.<.<.<.<.<.<.<.,.>.>.,.b < , ",
"< v ,.<.>.v >.,.<.>.B v >.,.,.>.B B B B ,.<.>.B >.<.<.<.<.>.>.<.,.,.>.,.<.B B B ,.B ,.<.,.N B ,.,.B B v B ,.<.B >.>.>.b <.,.>.b B <.<.<.<.,.>.<.<.,.,.,.<.b < , ",
"< >.<.<.,.>.b >.<.B v b b N b b B ,.<.<.,.N x ,.,.>.<.<.<.B b ,.,.<.<.<.<.,.<.<.<.<.<.<.,.B B >.<.B v v B B N B b ,.<.<.>.b n <.<.>.<.<.<.B N ,.,.,.<.<.<.,.>.b ",
"< b ,.,.>.B >.>.>.>.b v >.,.B b >.,.>.B >.>.,.,.>.N ,.<.<.>.B ,.<.<.,.b b <.<.<.,.,.,.,.>.B B >.<.B B N >.,.B B ,.,.>.B B ,.,.<.B B ,.<.<.B B ,.<.<.,.b >.,.,.b ",
"< b >.>.>.,.,.,.>.,.,.b ,.<.<.,.,.<.B v b <.<.>.N B >.<.<.,.>.<.<.<.>.v b <.<.<.B B >.>.B ,.<.,.B <.,.B >.,.<.,.,.,.B b B <.<.B N B >.<.<.,.,.<.<.,.>.b < <.,.< ",
"< v b b ,.<.<.<.<.<.<.<.B N <.,.>.<.<.>.,.>.B x B >.>.,.<.,.,.<.<.b >.>.,.<.>.b ,.B B B ,.<.<.<.<.<.<.<.B b <.,.,.<.<.,.,.B B v b >.>.,.<.<.,.<.,.>.b >.<.<.< , ",
"< v v b b ,.,.<.<.<.<.,.b B <.<.<.<.,.>.<.,.B v B ,.b B >.B B <.<.<.b >.<.<.b v ,.B N N B ,.,.,.<.<.,.>.B B <.<.<.,.,.,.<.,.B N B ,.B N >.N >.<.<.,.>.,.<.<.< > ",
"< < < < b b >.>.<.<.,.b >.>.<.<.,.>.>.>.<.<.>.B >.,.>.N b N >.<.<.<.>.,.<.<.>.b ,.B v v N B B >.<.<.,.b B ,.,.<.,.,.B ,.<.<.B B >.<.>.B B N >.,.<.<.,.,.<.<.< , ",
"b v < b b v b >.,.<.,.b b >.,.B B B v B <.<.<.>.,.<.<.<.>.,.,.B v b <.<.<.,.,.<.<.b v v N v B >.<.,.,.b B >.,.B N B v B <.<.,.,.>.<.<.,.>.,.,.B v b <.<.<.>.>.< ",
", , < < < < b b b b b b b b b b N v b B B B B >.B B >.>.B >.>.N < , >.b v v v b b v n v v v v v b v v v b v b v v v b B B B B B B B >.>.B B B B , < b b < < < , ",
": > < < b b < , , > , < v < , v B v b v , , < B N < < < < < < b , > v > : > v v v , , v v v v v , , , v v v v v N v B v v , v v b < < < v < N N , > v , > > > : "
};
