/* XPM */
static char *Group_9_1__resized[] = {
/* columns rows colors chars-per-pixel */
"80 80 222 2 ",
"   c #151F2E",
".  c #181B32",
"X  c #1A2536",
"o  c #1D293B",
"O  c #1E333C",
"+  c #273B2A",
"@  c #242C3E",
"#  c #233A39",
"$  c #27451D",
"%  c #2B4C1E",
"&  c #2F5216",
"*  c #2F531E",
"=  c #335C1D",
"-  c #37631C",
";  c #39661C",
":  c #3D6D1E",
">  c #3F711F",
",  c #274523",
"<  c #2B4D22",
"1  c #2A432E",
"2  c #2B4C2A",
"3  c #314B25",
"4  c #324D29",
"5  c #2E5320",
"6  c #2D522D",
"7  c #305621",
"8  c #345C22",
"9  c #385D25",
"0  c #35542B",
"q  c #38572E",
"w  c #35592B",
"e  c #395C2C",
"r  c #274534",
"t  c #294731",
"y  c #2C4A33",
"u  c #25443A",
"i  c #284839",
"p  c #2A4B3B",
"a  c #314D32",
"s  c #2D5334",
"d  c #335434",
"f  c #365937",
"g  c #376223",
"h  c #3A6325",
"j  c #3D6B23",
"k  c #3D642C",
"l  c #3F7220",
"z  c #3E6331",
"x  c #41751F",
"c  c #43781F",
"v  c #406F25",
"b  c #40662F",
"n  c #416B2D",
"m  c #417620",
"M  c #457C21",
"N  c #43702B",
"B  c #416830",
"V  c #273643",
"C  c #264542",
"Z  c #284641",
"A  c #29464A",
"S  c #2A4D4B",
"D  c #2C5343",
"F  c #2F5A44",
"G  c #2D534D",
"H  c #315443",
"J  c #325B4B",
"K  c #2E5552",
"L  c #2E5A58",
"P  c #325C54",
"I  c #395659",
"U  c #325D5A",
"Y  c #35644C",
"T  c #34625D",
"R  c #3C615F",
"E  c #366A5E",
"W  c #356461",
"Q  c #356B65",
"!  c #3B6B63",
"~  c #386B68",
"^  c #3A7465",
"/  c #3D756C",
"(  c #3E7A6B",
")  c #366D71",
"_  c #3A7775",
"`  c #39767A",
"'  c #41585B",
"]  c #476563",
"[  c #49776E",
"{  c #407D71",
"}  c #567C72",
"|  c #478022",
" . c #498423",
".. c #4C8A24",
"X. c #3E837C",
"o. c #44856D",
"O. c #438474",
"+. c #458975",
"@. c #41877E",
"#. c #468B79",
"$. c #498D7A",
"%. c #568276",
"&. c #4A927D",
"*. c #49957C",
"=. c #3B7B83",
"-. c #3D8287",
";. c #3F8890",
":. c #438A86",
">. c #4A9381",
",. c #4E9D84",
"<. c #47968A",
"1. c #4F9E88",
"2. c #509F84",
"3. c #579C86",
"4. c #438E98",
"5. c #479793",
"6. c #479B92",
"7. c #499B93",
"8. c #689A87",
"9. c #4EA385",
"0. c #4FA088",
"q. c #51A187",
"w. c #51A38A",
"e. c #54AA8E",
"r. c #59AD8F",
"t. c #56B08E",
"y. c #4DA396",
"u. c #4DA39A",
"i. c #55AC92",
"p. c #55AB95",
"a. c #57B193",
"s. c #59B493",
"d. c #5CBA96",
"f. c #56B39C",
"g. c #58B69B",
"h. c #5EBE99",
"j. c #6BAB91",
"k. c #68AC92",
"l. c #4695A4",
"z. c #4DA8A4",
"x. c #51ACA3",
"c. c #56B5A3",
"v. c #58B6A1",
"b. c #59BBA4",
"n. c #52B3AB",
"m. c #56BAAC",
"M. c #59BEAB",
"N. c #4BA4B3",
"B. c #51AEB7",
"V. c #54B8B8",
"C. c #5EC29B",
"Z. c #5FC99E",
"A. c #61C49C",
"S. c #68C09C",
"D. c #62C99F",
"F. c #70C39F",
"G. c #5CC0A4",
"H. c #5BC2AD",
"J. c #5BC4B3",
"K. c #5CC7B7",
"L. c #5ECBBA",
"P. c #5FD0BF",
"I. c #64CCA1",
"U. c #69CAA3",
"Y. c #79C7A4",
"T. c #66D3A5",
"R. c #69D5A7",
"E. c #68D7A8",
"W. c #6BDBAA",
"Q. c #74D6AA",
"!. c #7BD5AB",
"~. c #73DBAC",
"^. c #79DAAD",
"/. c #60CCB8",
"(. c #7EDFB1",
"). c #7AE5B3",
"_. c #7CE4B3",
"`. c #53B7C5",
"'. c #58C4C7",
"]. c #5AC7D3",
"[. c #61D5CB",
"{. c #63D8CB",
"}. c #62D8D3",
"|. c #66E1D7",
" X c #5FD2E4",
".X c #63DCE7",
"XX c #67E6EA",
"oX c #6DF0EB",
"OX c #86C9A8",
"+X c #86D3AE",
"@X c #89DCB2",
"#X c #94DDB9",
"$X c #85E7B7",
"%X c #8BE5B7",
"&X c #8CEBBA",
"*X c #95E3BA",
"=X c #97E6BB",
"-X c #95EEBE",
";X c #8BF1BD",
":X c #97F0BF",
">X c #99F1BF",
",X c #A4F4BF",
"<X c #ACF5BF",
"1X c #B9F9BF",
"2X c #9DEFC0",
"3X c #94F3C1",
"4X c #9BF4C2",
"5X c #97F9C5",
"6X c #9EFACA",
"7X c #A1F5C3",
"8X c #ABF6C0",
"9X c #A3FACB",
"0X c #A9FBC9",
"qX c #B7FAC3",
"wX c #BBFAC0",
"eX c #B4FFCC",
"rX c #A5FBD0",
"tX c #ACFDD4",
"yX c #C4FDC3",
"uX c #CBFDC0",
"iX c #D4FEC0",
"pX c #D8FFC0",
/* pixels */
"& - x : : x x x x : : x x x c x > c c c : : > M c c c c > : : : > x c > > M x : ; : > : : x > > x > : x m c c x > c c x : : > c c x c x x : : x : x m x x c : = ",
"; : x x m M : x x : x M c x x x > m > > > > c m > > > > l m M M | m > > > c | M m x x x x x > > > > > c m m c > > x > > > > c c x x x : : x M M M c x : x c x ; ",
"c c x c M M x x x x c | M M M x l M l > > M M > l l > > l | ......| x : > M  .....M m M | M > > > x c | M M m m m m > > > m M m m v : x x  ..... . .x : x M c c ",
"x c  ... .M m c c x x |  ....... . .l l c  ... . .| | |  .|  . . . . .c c |  .|  . . . . .| c x c x c |  ....... . .m > M  ... . .M M  . .M M .. . . .m x  .c x ",
"x x M  . . . .M | M M  ....... . . .| | ................ .M M | M M  . .M |  . .| | |  .....| |  .c M | ...... . . . .| .......... .......M M M M M ..M M M m x ",
"x x x c  ....... . . . ... .M M | .............. ....... .M m M l l  ... .M | ....M x x | ...... ... . .....| M  .......................M M M M x x  .....M x x ",
": : x c M M M M m m m m m M  ... . .| m m M |  . ....... .m c m : > | ....M x m | m > M M M | M c c m M m M |  . . .| m M M  . ...........m m M : x M ....M x ; ",
": x x c M x c x m > > l > > M  ...| M M M m m c | .. .....| | | x M  .....m > x M m m | M > c l > > > > > > M  . .| M M m m M l M  ....... .M  .m c  .....m ; ; ",
": > > | | > > > > > x > l > > m | |  .....M x > m  ............. . ..... .l l M M M m | M > > > > l > > l l l m  .|  .....| l > m .............. . ..... .: : : ",
": > c | M m > > > > > > m M m |  . ....... .M  ......... . ... .M m M  ... .....M m c M M m > > > > l > l M m |  . ....... .|  ......... . . . .M m m  ... .c x ",
"> > >  . .| l l m M M m | |  ..... ....... . ...........c x j l - = = : m l m m j ; ; > > > ; g ; l l m M | | .. . . ..... . ...........M M  . .m : : M .. .M x ",
"c > l ......M M  . ..... . .......|  ...M | ..M M ....M ; = 5 5 $ $ $ % 5 $ % 7 5 % < 5 7 5 < < < g l .. . ....... . ...| |  .|  .....M m M ....m : >  ...x x x ",
"> > x | ......| m m  ...| M ..| M  ... . .....| ......M g 6 p p i u u i i u i y p i i i p p i p p 6 g M M | ..| M .... . ..... . ....... .......| |  ... .M x x ",
": > c c  ..... .> l M ..| M  .| M  . .M  ..... . . .M l w F T ^ ! ! E ! ] E E R T T U U T P L W W G s h l m  .| M  .| |  ..... . . ........... . . ..... . .m x ",
"x c  ....... . ...| M ..| |  ..... .m : M ....m x m g 6 F ^ *.r.k.j.k.k.k.j.k.q.*.*.*.*.$.+.( O.@.^ P s 8 > | ....| l > M ....l m M  . ....... .M M M  . . .M c ",
"> c .. . ... ....... . .|  . .....M > : m M M m : - 2 F ( q.U._.%X*X*X*X*X*X@X!.D.A.h.h.s.e.0.0.w.*.( J s 8 l ....c > > l M | l m M M M M M  . . .M  . . . . .M ",
"> c  .c M  . . . ... .m |  .......m x c m m c > g 2 p ^ w.U._.5X6XtXeXeXeXeX6X3X$X~.W.T.I.C.d.s.s.w.>./ J s g M  .m l l l l | l M M M M m M  ......... .....M c ",
"c c x x x  .M |  .m l l > m  . ... .| c M  .| - 2 p E 9.U._.&X5X5X9XeXyXeX0X6X3X;X$XQ.T.G.Z.h.d.a.w.1.>.^ D 2 = m  .| | |  ..... . . .................M m  .M c ",
"x c  .x x c M M M m m M > > | ...... . .M l j 6 F { ,.I._.:X:X5X6X<XyXuXuX8X4X3X5X-X(.R.T.D.D.h.a.e.e.e.>.( P f h M | | l |  ........... . ... .| c | c x m c c ",
"> c ..| M M M m m m M  .m > | .... . . .> 8 6 F / r.U.$X3X5X4X7X<X1XiXiXuX8X4X3X4X:X%X^.Q.R.D.C.d.a.i.p.i.7.@.! f h l | | | | ........ .m M  . .c x | | M x x c ",
"M M M ...... . .M M > l : m .. . . ... .- 6 J ^ w.U._.&X3X2X2X8XwXuXpXiXyX<X>X:X>X>X:X%X$XR.D.A.Z.d.t.e.a.c.x.:.E y 7 >  ... . .|  . ................... .M c c ",
"x M  ..... . . . . .M M M | .... .l | l * r U #.I.).&X3X4X3X7X1XuXpXiXuX1X,X>X-X:X4X4X>X%XQ.D.A.D.C.t.e.a.M.J.7./ u < j |  .|  . .| | |  . . . . . . ..... .c c ",
"x c .. .|  . . ................. .> | l $ r W *.I._.3X4X4X3X,X1XiXiXuX1X,X>X:X-X4X4X7X7X&X!.D.Z.I.D.s.e.a.M.H.y.) u , ; l l l  ...| M M l m M M M x m  ...M M c ",
"x c M  . ... .|  ........... .| M | > ; $ u T *.C.).&X3X4X4X,X1XuXuX1X,X:X>X:X:X:X4X4X4X%X!.D.Z.D.C.s.e.p.p.i.>.Q u , - > |  ... .l m m M M M m x x M  . . .c x ",
"x c  . . . .M M M | M M  ... .| l M : 8 6 J ( 9.C.^.$X:X4X2X4XqX1X1X<X>X-X3X>X>X>X4X7X4X%X!.I.Z.I.A.s.w.w.w.1.>.( U s w g l  ...| l > m M m l l > > | | | | c > ",
"> M .. .M > m |  .M m l M .. . . .> 8 s Y o.w.s.Z.~.$X:X4X2X4X7X8X<X>X:X&X3X>X>X>X4X7X4X&X^.I.Z.I.A.s.w.1.,.1.e.y.:.Q f 8 : | .. .m l > > > > > > x  . .| | c x ",
"x M  . .c : > c ...... . . .| ..| g 6 G O.t.T.Z.T.Q.$X:X4X4X2X2X4X>X>X:X>X-X>X>X3X4X4X3X%X~.I.Z.I.C.d.e.2.,.3.v.H.m.<.Q t * l  ... .m > > > m c M M c  . . .c c ",
"x M  .| | c x c ...... ... .| ..M = r L &.C.W.E.R.^.;X9XrXrXrX7X6X6X4X:X-X-X4X4X9X9X5X3X$X~.E.E.T.I.A.s.w.2.e.G.L.K.u._ u < : | ....| c m |  . . . . .| | ..| x ",
"> c .......... ...| M m  .......| * t K *.h.E.E.E.).3X9XtXtX8XtXrX6X4X3X=X-X4X7X0X9X3X$X).W.W.E.E.T.D.A.s.e.w.b./.J.u./ r $ ; M ...... ............... .M | c > ",
"> x | .. .c  ...|  .M m  .......l * t K +.d.T.Z.A.S.Y.OXOXOXOXOXOX+X#X3X4X4X4X=X+XOXk.a.e.e.r.a.s.h.A.D.h.s.w.g.J.V.7.~ t 5 l l M ........ ....... .M |  .c > : ",
": c  ... .c |  . .| M m M .. .| > = t G #.s.I.h.q.$.%.} } } } } } 3.Y.*X0X0X=XOX8.[ ! W T T ~ ( +.w.h.I.A.d.w.v.J.m.6.~ t * l m | ........ . ... . .M ....M > > ",
"x | .... .c c  ...| l m m m m M l = r G *.d.Z.e.O.U A V V V @ . @ ' 8.2XtXtX#X8.' @ . X X X V V U +.r.A.A.d.e.v.J.m.6.Q u $ ;  ...| ......c c  . ...........c c ",
"> c  . .| | |  .| | | > |  .| | l 7 y G &.d.I.a.O.L A O X o @ X V ] j.=XtXrX+X3.K @   o @ o V A W #.e.d.h.a.w.v.J.m.7.~ r % x M M M  .....M M  ..... .M M ..| c ",
"> > |  .|  . . .|  . .c |  ... .M - 1 K $.d.I.h.w.O.~ T L U U I [ 8.OX=X9X3XQ.3.{ T K U ! U Q [ O.1.r.a.r.e.e.v.K.M.7.~ r * m M c c  ..... . . ... . .x > ..| > ",
"> > | c | ..............c M ....m - 1 G +.d.R.I.A.d.s.a.a.t.d.F.OX*X>X>X&X^.D.d.s.t.t.d.s.s.d.d.h.d.s.e.2.2.w.b.K.m.6.~ t < : x M  .M  ... . ... . .c  . ...m : ",
"> > > > |  . . ..... .| M M ....M 8 y G { e.I.E.E.E.E.E.T.T.W._.:X5X4X;X_.Q.T.I.R.E.E.E.R.W.R.R.I.A.a.w.2.3.w.b.H.m.<.~ r % ; x M  .M M M M  ..... .c  .....c - ",
"> > > > > | | | .... .> M |  ...M = t G / 1.h.U.R.E.W.W.E.E.W.)._.$X_.(.~.R.T.T.W.W.W.W.W.~.E.T.A.s.e.w.,.,.w.g.J.M.7.~ r * : c  . .M M m m M  ... . . ... .c ; ",
"c > > c > > | |  . . . .M |  .| l * t S / >.a.h.I.I.I.I.I.I.U.T.T.D.A.C.h.h.C.C.D.D.U.D.T.I.D.h.t.w.1.1.2.2.w.b./.V.7.~ i * x M  ....... . ...M c c ...... .M c ",
"c > c | | | > | | |  . . .| | | l * r K ( 1.a.d.h.A.D.I.I.I.I.I.D.s.9.*.+.+.*.t.A.D.R.I.D.A.d.i.w.2.1.w.2.*.e.M.}.}.B.` r % x M  . . . . . ... .x x  . .c c c m ",
"> c |  . ... .| | > | |  .| |  .| 7 y L { 1.a.i.r.s.A.I.I.I.I.T.Z.t.+.T S G ^ *.d.T.E.T.C.d.e.w.w.w.w.w.,.*.w./..X.X`.{ # % x  ... . . . .M  ...c c  .M x c c > ",
"; > .. . . . . . .M | .... . ...M g 6 p E +.1.q.w.i.s.A.D.D.T.W.I.t.^ S X X C ( e.D.E.D.d.i.w.1.0.0.w.w.w.0.e.J.].].l.Q 1 & m ........ . .M M  . . ...M  ...c x ",
"> > c c c | M c | | l  . .|  .| l > g 6 s Q X.&.1.e.r.g.A.D.R.W.T.t.( S X   # Q *.C.A.h.a.w.w.1.0.q.w.q.e.p.c.V.B.4.) F 7 - m | M m M M M M  . . . .M x c  .c x ",
"c c c c | M x > > > > | | | l l l l > * < D E O.,.e.e.e.d.A.I.W.I.s.*.T C O A T &.i.g.e.e.w.w.0.w.w.q.q.p.M.m.z.:.L p 5 : > M l c x v x m  .......M x x x c c c ",
"> c  ... .| c x | c > | |  ..... . .> ; % i K ( ,.e.w.w.e.d.A.I.A.a.,.( T K T / &.w.e.w.0.0.w.w.w.q.,.q.f.H.J.u.! + $ = l  ... . .c c  . .M M .... . .c c  .x x ",
"> m | |  ...| |  .| l  ..... . ... .| l * y K ( *.e.w.w.e.a.s.d.s.i.w.$.O.( { #.,.1.w.0.0.0.w.w.w.0.9.q.f.M.J.y.Q + $ ;  ....... ....... .M M M M M  .M c  .c x ",
"x > m m | ...... . . . ... .| | |  ...| 5 p P X.1.a.e.w.0.w.w.w.e.w.w.1.1.1.1.1.0.0.w.w.w.w.w.w.w.0.9.q.f.J.J.z._ u 5 >  ...............M M M M x x  ... .c c c ",
": > x M M | | M | l M l l | .. . . .| : % r T >.f.G.a.q.1.q.0.1.1.w.w.i.i.e.e.e.w.w.w.w.w.w.w.w.2.1.q.i.J.}.|.V.-.u , = l M  . . .........M c c v x M ....c x ; ",
": : x | M > m > l > > l l l l  . . .M : % i W 5.M.J.g.w.,.,.0.q.1.w.w.w.i.i.i.w.w.w.w.w.w.w.w.0.2.2.i.c.[.XXXX`.;.u $ - l M M l M ........M  .c x M ......x ; - ",
": x x c c x > > > > x > l > > m M M ..M 7 a R :.n.J.f.i.q.w.w.q.w.w.w.w.w.w.w.w.w.w.w.w.w.w.0.0.q.i.f.J.}..X XB.=.Z % v c  .x x m ................ ..... .x : v ",
": > c c M c x : : > > > m m m  . .M M M 9 d J ! :.u.p.p.e.q.q.q.w.w.w.w.w.w.w.w.w.w.w.w.q.9.0.0.p.v.H.J.K.`.N.;.Q s 0 v  .M c  ......... . . . .c x M  ... .c x ",
"x x c |  . .x x m M M m M |  .....M v v b e f H E X.u.M.M.i.0.q.w.w.w.w.w.w.w.w.0.w.w.w.q.9.0.p.b.J.P.L.n.5.) U H e k n N M M ..........M M  ...x : v c ..c c c ",
"x x c  .....M c  ....... . ..... .m n b b b e + u ) z.'.{.H.p.0.w.1.3.w.1.w.w.1.w.w.q.w.q.q.i.c.J.[.|.}.n._ C + 0 b n n k m M M  .....M x M ....c ; x  ...c x x ",
": x c  . ..... .m m  ...| | ..| M m b b n n e + C _ B..XoX{.M.i.q.2.*.q.2.2.2.2.1.2.2.2.q.e.f.H.L.|.oXoX'.-.C + 3 n B b n m M  . ....... .......M M  .....M x v ",
": x c c  ..... .x l M ..| M  .| m M v z n n e + C ` `..XXX}.J.f.w.w.q.w.w.w.w.e.w.q.q.w.p.c.J.K.L.{.XXXX'.;.S r 3 n B z n m ..M  . ........... ...........M M x ",
": c | ...... . ...| M ..| |  ... .m 9 q z b k 4 D ~ l.`.'.n.u.p.f.f.g.f.g.g.g.f.f.g.a.f.J.[.}.'.n.x.V.'.N.=.S y e b e q h N  .m c M  . . ... . .M M M M M  .M c ",
"x c  . . ..... ..... .|  . . ... .v 9 q e e e 0 a J ) =.-.` X.6.M././././.J.K.J.K.H.H.K.}.oXXX`.;._ ) -.` U f k k e q q 9 j m x x M M M c  . . . .M ........M M ",
"x M  .m M .. . ..... .M M  ..... .v h e e e e 9 e d H S S S U @.c.K.K.J.J.J.J.J.M.M.J.J.[.XX XB._ S u S S f b n b 9 e e 9 j x m M M M M m M  ........... ...| c ",
"x M m > m M M  . .m l l > m  .....M m h k b B n n z 0 1 + 1 p E :.u.u.y.6.6.u.;.6.5.5.7.z.B.N.-.P + + + 1 0 b n n b 9 n v M  . . ..... ...............c c | | c ",
"x c | m m m m M m m m M > l |  ... .M M j 9 b n n b 9 0 3 0 f J T ) ~ Q Q Q Q Q Q Q W Q ) ` ) U p 4 3 3 3 0 k b n b v v m M  ......... .M  . ...| c | c x c c c ",
"> M ..| M M M m m m | | m > | .... ...M v h b b b b n b 9 b e d p Z Z Z C C C C Z Z Z A C C Z p q e n k e e k b b n m M M M M ........ .M M  . .c x | | c > c c ",
"c M  . ..... . .| m > x : m .. .M  . ... .M v k k b b b n N n e a y a a t i y a 4 y 1 a y y 2 0 e k h e q e B b n v M ........ .M .. ................... .| c c ",
"x M  ... . . ..... .M M M | .... .M M .. .M m n b k k b b b n 9 e q 0 e g w e e e 0 e e q 0 e k b b k e e b B n v m M .. .M M  . . .M  . . . ..... .| ....| c c ",
"x M .. . . . ................... .m M M m m m M N h k 9 9 9 e z e k 9 b n k b n b b v b b n b b b b n v n n n m c c m M M m m ....M M m m m M M c c c  ... .c c ",
"x c c  . ... .M |  ......... . .M M m m m m M  .m h ; v b e e e e e k b b b b b b b b b b n z z b k j N M M M c c c m m x M  ... .m m M M m m x x c c |  . .c > ",
"x c  . . . .M M M M M M  ... .M M  .M M M | ....M j > : j 9 w e 0 9 b k h b b k b k k b n k k k e k j j M  .M M M  .M m M  . ... .x > m M m l l > > | | | | c > ",
"> c  ...M x m M  .| m m  . . . . ... . . ... ... .c > > : g 9 9 9 h v j j j v v j v v v h 9 g h v j j v  . . . . ... . ......... .m m > > > l > > x  .| | | c > ",
"x M ..| c > : m .... . . ...M  ............. ..... .l > : : : j v x m m m M M M M M m m j ; ; : M M  . ... .M  ............. . ... .m > > > m M c | | |  . .| c ",
"x c  . .M m x | ........ . . . ... .......| M  .....| m m c c  . .M  .M M M .. .M M  .M m m m M .. . . . . . ........... . .M  .....| m c | |  . . . .| |  .| c ",
"> | ........ .....| M m | ........ .|  .| M l  ..... .................M M M  . . ............. ... .M m M ........ . . . .M c M ......................| | | c > ",
"> > | .. .M  ... . .M m | ...... .M M M  .....m M ................ .M  . .M c M M M  ... .m  . . . .M x  ....... .M c m  ... .M M ................ .| | | c > : ",
"> >  ...| c |  . .| M c M  . .| M M M | ....| M | ........ .| .... .M  ...M M M  .M  ... .m M  . .M M x M  ...M M | M M  . . .c | ........| |  ...| | ....c > : ",
"> | .... .M c | ..| > c c m c c M  .....| m l  . .| ......c c  . ......... ............. .M M  ...M x c c M m m M  ..... .c c  . .| ......M c  . . ....... .| > ",
"> c  . .| M | | | | c x |  .M M  . . .c | |  . .| m  .....| M  ..... .c c ...... . . . .M M M  . . .M x |  .M M  . . .c  .M  . .| M  .....M M  ..... .c | ..| | ",
"> c |  .| | .. .c .. .M  ..... . . .M x M ....| m M | .... .| ......c c c .... . .M M M  . ... .M  . .M  ..... . . .M c M ....M m m  ..... . ..... .| c > ..| > ",
"> x c c  ...............c m .. . ... . . . .M > M | |  ... . ... .| c |  ... .M M  .M M  ...............M m .. . ... . . .M M x c | |  ..... ... .| c | ....> : ",
"> > c c c .. .........| M M .... ... . . . .M x M  .M c | M M ......| | ....c x M M c x M  . . ..... .| m M ........ . ... .M x M  .M m M M | .... .|  .....> ; ",
"> > > > c c c  ..... .c c  . ... . . .| .... .M  . .| m c m | .... . . . ...M M  .M x x m M M M ....| c c  ..... . .M  .....M M | ..| m M m M  ..... . .....> ; ",
"c x > c > c c  . ... .| c | ..M M m x M ......|  .......|  . .M x x ...... . .....M x x m m M  ... . .| c  . .M m m x M .... . .| ......| ....M x c ......| | > ",
": : > > c > c c c > c c c c c c x c x M m M M | M M | | m | | m : : M c x x m M M c : x x x x x c x x c c c c x c c c M M M M M M M | M m M | M : : c c > > > : ",
"- ; : > c > > > : ; : > c > : > m c c x : : x m m > > > x > x c : : > : - : : x x : : x x x x x : : : : x x : x m x M x : : x M c > > > x > x m : : > : - ; ; ; "
};
