/* XPM */
static char *Group_9_2__resized[] = {
/* columns rows colors chars-per-pixel */
"80 80 207 2 ",
"   c #3A3A1D",
".  c #3D3C23",
"X  c #4C1B31",
"o  c #4B1D32",
"O  c #4A282E",
"+  c #49362E",
"@  c #433A29",
"#  c #433C2B",
"$  c #512237",
"%  c #532539",
"&  c #532A3A",
"*  c #592B3E",
"=  c #4B3736",
"-  c #473D33",
";  c #493C32",
":  c #53353A",
">  c #543D3D",
",  c #374D1D",
"<  c #2F5216",
"1  c #36541B",
"2  c #3A541E",
"3  c #365A1A",
"4  c #3A5B1D",
"5  c #37631B",
"6  c #3B641D",
"7  c #3D6D1D",
"8  c #3F711F",
"9  c #3A4427",
"0  c #3D4425",
"q  c #3C4B23",
"w  c #3D4C2A",
"e  c #3D5422",
"r  c #365827",
"t  c #3D5C22",
"y  c #3C522D",
"u  c #37592A",
"i  c #3A5C2C",
"p  c #3E4730",
"a  c #3E5234",
"s  c #3A5C30",
"d  c #3B6424",
"f  c #3E6B23",
"g  c #3D642C",
"h  c #3F6A2C",
"j  c #3F7220",
"k  c #3D6330",
"l  c #3F6830",
"z  c #405D1C",
"x  c #40641F",
"c  c #416A1F",
"v  c #41751F",
"b  c #43781F",
"n  c #414426",
"m  c #404B26",
"M  c #414429",
"N  c #424B2C",
"B  c #405524",
"V  c #405A24",
"C  c #45552C",
"Z  c #454433",
"A  c #4A4433",
"S  c #434B33",
"D  c #4B4A35",
"F  c #4D443C",
"G  c #4F4E39",
"H  c #55433E",
"J  c #514A3D",
"K  c #435234",
"L  c #485437",
"P  c #406521",
"I  c #416E23",
"U  c #40672D",
"Y  c #406B2C",
"T  c #427620",
"R  c #457C21",
"E  c #447628",
"W  c #406531",
"Q  c #416A31",
"!  c #573442",
"~  c #563D42",
"^  c #5A3C44",
"/  c #4D4C44",
"(  c #564341",
")  c #5B4545",
"_  c #544A46",
"`  c #5F454C",
"'  c #5D4A4C",
"]  c #4D5148",
"[  c #59544A",
"{  c #5D4D51",
"}  c #5B5655",
"|  c #5D5757",
" . c #604847",
".. c #61464B",
"X. c #614A4D",
"o. c #63524F",
"O. c #624D52",
"+. c #6B4C54",
"@. c #654C58",
"#. c #655455",
"$. c #685656",
"%. c #655954",
"&. c #6B5759",
"*. c #665B5A",
"=. c #6C5C5C",
"-. c #735459",
";. c #715A5B",
":. c #69625E",
">. c #6B6B5F",
",. c #73615F",
"<. c #5C5A63",
"1. c #665C65",
"2. c #6A5C62",
"3. c #725D62",
"4. c #6C6462",
"5. c #6D6A63",
"6. c #6D636A",
"7. c #6C6A6C",
"8. c #736462",
"9. c #796666",
"0. c #716B66",
"q. c #746D69",
"w. c #73766C",
"e. c #75766C",
"r. c #7A726C",
"t. c #74796F",
"y. c #6D6A76",
"u. c #726C73",
"i. c #736B7B",
"p. c #6E7174",
"a. c #767676",
"s. c #757C72",
"d. c #7B7E73",
"f. c #767D7D",
"g. c #836E6A",
"h. c #83776F",
"j. c #867B72",
"k. c #8A7C74",
"l. c #478022",
"z. c #498423",
"x. c #4C8A24",
"c. c #778175",
"v. c #7A8375",
"b. c #7C8A77",
"n. c #778279",
"m. c #79857C",
"M. c #7D8C7A",
"N. c #7F927D",
"B. c #88887A",
"V. c #938A7D",
"C. c #81937E",
"Z. c #6D7486",
"A. c #777A83",
"S. c #778282",
"D. c #798584",
"F. c #7A8C84",
"G. c #788189",
"H. c #7B8E8A",
"J. c #7D948B",
"K. c #7C918C",
"L. c #7B8A97",
"P. c #7D9592",
"I. c #7F9995",
"U. c #7E939C",
"Y. c #7E999B",
"T. c #7A8EA2",
"R. c #7E95A4",
"E. c #839680",
"W. c #849A83",
"Q. c #8A9B84",
"!. c #959383",
"~. c #989885",
"^. c #9C9D8A",
"/. c #81999E",
"(. c #A09E8D",
"). c #86A086",
"_. c #89A187",
"`. c #8CA389",
"'. c #93A48B",
"]. c #9CA38D",
"[. c #95A98E",
"{. c #9DAB91",
"}. c #97B393",
"|. c #A1A48E",
" X c #A4AD93",
".X c #A5B196",
"XX c #ABB296",
"oX c #A5B598",
"OX c #ABB599",
"+X c #A5BB9A",
"@X c #ADBA9C",
"#X c #B6B395",
"$X c #BAB595",
"%X c #B2BC9D",
"&X c #B9BB9B",
"*X c #82A4AA",
"=X c #83A5B4",
"-X c #85A9B7",
";X c #87B3BE",
":X c #B1BFA0",
">X c #C4B795",
",X c #CDB995",
"<X c #C5BB99",
"1X c #D2BA95",
"2X c #B8C19F",
"3X c #B4C3A1",
"4X c #C6C49F",
/* pixels */
"< 5 8 8 8 8 8 8 v 7 7 b v b b 8 8 b b v 7 7 8 R b b b b 8 7 7 8 8 8 b 8 8 R v 7 5 7 8 7 8 8 8 8 b 7 7 v b b b v v v v v 7 7 v b T v b v 8 7 7 7 v v T 8 8 b 8 3 ",
"6 7 8 v b T 8 8 8 8 8 b T b b 8 8 T v 8 8 8 b T 8 8 8 8 j T R R R R 8 8 8 b l.R T T v v v b 8 8 8 8 8 b b b b b v v v 8 8 8 v v v 8 8 8 8 T R R R T v 8 v b 8 7 ",
"b b v b l.R v c 8 b b l.l.T R T T T j 7 8 b R T j j 7 j j l.x.x.x.l.8 8 8 R z.x.x.l.T R l.R 8 8 8 b b l.b b v v v v v 7 8 T R b v j 8 c T l.x.x.x.l.v 8 8 R b b ",
"v b z.x.z.l.T T b b b l.z.x.x.x.z.l.T j R z.x.z.l.l.z.l.z.l.l.z.z.z.z.b b l.z.l.l.z.z.x.z.l.b 8 b 8 b l.l.b b v v b c 8 R z.x.z.l.l.z.z.l.l.z.z.z.z.l.b b z.b 8 ",
"v v l.l.z.x.l.l.l.R R z.x.x.x.z.z.x.l.l.x.x.x.x.x.x.x.x.z.R R l.R R z.l.R l.l.z.l.l.l.l.z.x.l.l.z.b R z.T P B B V x v l.x.x.x.x.x.z.x.x.x.R R R R R x.l.R R b 8 ",
"v v v b l.x.x.x.z.z.l.z.x.x.R R l.x.x.x.x.x.x.x.x.x.x.x.z.R R T j j z.x.x.b l.x.z.R 8 T l.x.x.x.z.z.l.R P q + O ; B T x.x.x.x.x.x.x.x.z.R R R R 7 v z.x.x.R v b ",
"7 v v b R R R R R T T T T R z.z.z.z.l.T R R R z.z.x.x.x.z.b T T 8 7 l.x.x.l.T T l.b v T R R l.R b b 7 6 C [ -.-.o.G i 6 T R R z.z.x.x.x.x.R b b 8 7 l.x.x.R 7 6 ",
"7 7 v b R b b v j 8 8 j 8 8 R z.x.l.R R T T R v R x.z.x.x.l.l.l.T R z.x.x.T 8 b R R T l.l.v 8 8 8 6 2 N [ r.V.V.r.%.G q 4 8 T T R x.x.x.x.R l.z.R T z.x.x.T 6 6 ",
"8 8 b l.l.8 8 8 8 8 8 8 8 8 8 j l.l.z.x.x.b T v b z.x.x.x.x.x.x.z.l.x.x.R c v R R v v R v 7 8 8 7 1 n J 9.V. X[.C.q.o.D e 6 T 8 T x.x.x.x.x.x.x.z.z.x.x.z.8 7 7 ",
"7 8 8 b R j 8 8 8 j 8 8 8 l.j z.z.z.x.x.x.x.R l.z.x.x.x.z.l.z.l.b 7 6 4 x 4 6 6 4 3 2 4 4 4 6 8 7 , M +.B.{.+X}._.v.;. .M V R z.x.x.x.x.z.l.z.z.R T T l.z.l.R v ",
"8 8 8 x.z.l.j j T T R R l.l.x.x.x.z.x.x.x.z.z.x.x.x.x.x.b b l.x.7 1 9 0 n m m m 0 0 0 0 M n e 6 c 2 A -.k.].}.}.C.d.;. .M x l.x.x.x.x.x.R R z.z.j 7 7 l.x.z.R b ",
"b 8 j x.x.x.R R z.x.x.x.z.z.x.x.x.l.z.x.b l.x.l.z.x.x.z.b z.x.x.6 q - > ^ > > > > > > > ^ > N 4 b 6 N X.>.B.W.E.B.0.+.H 0 x z.l.z.x.x.l.v l.x.x.T 7 8 z.x.v v v ",
"8 8 8 l.z.x.x.l.8 R z.x.l.R x.l.R x.x.x.x.x.x.z.z.x.x.x.l.x.z.v t D %.9.g.,.8.8.;.,.$.$.&.$._ w 2 1 e L [ >.v.j.q.%.J N V R x.l.z.x.x.x.z.x.x.x.z.R z.x.x.R v 8 ",
"7 8 b l.z.x.x.z.8 j l.x.l.R z.l.b x.l.R x.x.x.R R x.x.x.x.z.v B G *.j.~.^.V.!.!.!.B.B.s.e.q.%.( @ , 3 c C [ ,.;.$.J N t T z.x.z.l.x.x.x.x.x.x.z.z.x.x.x.z.l.b 8 ",
"8 b z.x.x.x.x.z.x.l.R z.z.l.z.z.x.l.b v R x.x.R b R R x.l.v V A %.B.(.#X2X#XOXOXXX{.Q.E.M.v.q.=.) N 6 T V M > ^ > 0 t 6 T x.x.b b R z.z.z.x.x.l.R R l.l.l.z.l.T ",
"8 b x.l.x.x.z.z.x.x.z.l.z.z.z.x.x.R c c c R R v v b b b 6 B D o.k.(. X%X2X2X2X&XOX.X{.'.W.E.d.q.&.J N z 4 z C N B 2 6 c T R R v 8 E R R R l.z.z.z.l.z.z.z.x.l.b ",
"8 l.z.b R x.z.z.x.x.z.T l.l.x.x.x.T b v T T T T R R R x , A o.h.^..X.X%X&X<X<X$XOX.X.X[.'.C.b.c.0.%.J M 2 6 v b c 6 v v v b T T T l.R T T l.z.x.x.x.x.x.x.x.l.b ",
"b b b 8 v R R l.z.T 8 8 8 T l.x.x.x.z.b l.l.x.x.x.R I B D ;.k.|.@X:XOX#X,X1X>X#X.XXXXX X[.W.N.b.v.e.=.) M 2 R z.z.z.z.b R l.x.x.z.x.x.x.x.x.x.x.x.x.x.b T z.R b ",
"8 b l.b v v R R R T T R j 8 l.x.x.x.z.z.R l.z.x.z.v B D %.k.|. X%X%X#X>X,X1X>X#X XXXXX X'.C.J.N.M.B.e.$.H N P R x.x.z.z.R R l.x.x.x.x.z.l.z.x.z.l.b l.b v T b b ",
"8 b x.l.R R R R T T R l.T 8 l.x.x.z.z.z.R T l.z.v V A o.h.(.XX.XOX#X>X1X1X,X>X#X.X XXX X'.Q.N.N.F.M.d.5.$.( M P R z.z.z.b R l.x.x.x.x.z.T R z.z.b 8 l.l.R v v b ",
"T R l.x.x.x.z.l.l.b 8 8 f T x.z.z.l.z.x.x.x.l.7 e D #.h.^.OX@XoXXX#X,X1X1X>X#XXX X.XXX{.~.W.N.C.E.N.b.s.e.6.{ K V v R z.x.x.x.l.l.z.z.x.x.x.x.x.x.x.x.x.x.R b b ",
"b R z.x.x.z.z.x.x.z.R R R z.x.x.z.R R x.z.T d B D [ q.C.{.@X@XoXXX>X,X1X>X#XXX X XXXXX].'.W.N.N.N.N.v.c.D.f.6.} D B c z.z.l.R z.z.z.l.l.z.z.z.z.x.z.l.x.x.l.b b ",
"v b x.z.l.z.z.z.x.x.x.x.x.x.x.x.z.b T R b 6 , @ ) 5.b.Q.{..XOX.XOX$X>X,X$XXX X X XXXXX X'.W.N.N.C.b.c.s.F.H.A.6.) . 2 b T v R x.x.l.l.T j T R R b v b z.x.l.R b ",
"v b R l.x.x.z.R l.x.x.x.x.x.z.l.R T b v b 7 2 + ..r.W.}.+X:X%X@X&X3X4X<X#X.X{. X.XOX%X+X}.`.).).).N.v.c.M.H.m.3. .. 2 v v R l.x.z.j j R R R R j v v R l.x.l.R c ",
"v b l.z.z.l.l.R l.R l.T z.x.z.R R R R R b v B + ..r.C.[.oX@X@X%X@X%X&XOXOX X X XXX#XOX.X[.Q.W.W.E.M.v.s.m.m.a.3. .@ 2 v R l.x.x.l.8 j T R T 8 8 8 8 l.l.l.l.b 8 ",
"8 R x.x.R 8 T R l.l.T j R x.z.z.z.x.z.l.z.I B A #.0.B.C.~.^.~.~.~.~.~.(.|. XXXXX X X(.!.B.v.s.s.v.s.t.w.t.t.w.:.o.Z B T l.x.x.x.z.v 8 8 j 8 8 8 8 b l.l.l.l.l.8 ",
"v R l.l.b 8 8 b x.x.x.z.x.z.R z.x.x.z.R c V L %.>.w.5.8.;.;.-.-.+.+.+.3.B. X@X:X XV.g.+.X.+.` ` O.O.&.4.q.w.s.p.5.} L t I R z.z.x.z.v 8 7 8 T R b l.l.l.l.x.l.8 ",
"v R z.l.R b b b x.x.z.x.z.x.l.x.x.x.R P m G :.e.v.t.4.O.^ * % * % $ $ ..h.|.3X3X|.k.+.% X % $ $ % ! ' *.5.w.c.F.S.7.} D B c R z.x.x.l.b T l.z.z.z.z.l.l.l.x.l.8 ",
"v b x.x.x.x.x.z.x.z.R T z.x.x.x.x.z.b t @ X.r.B.C.b.4.' ! $ $ & % % $ +.k.|.:X3X|.r. .o X $ $ $ & ! { =.5.w.m.J./.D.3...n 4 v l.x.x.z.x.x.x.x.x.x.x.x.l.R l.b 8 ",
"7 b l.x.z.b z.x.z.z.R T z.x.x.x.l.l.c 2 @ X.q.C.W.E.s.5.*.#.*.,.g.;.g.j.!. X@X XC.v.,.o.{ %.$.%.$.*.2.5.5.w.m.J./.G.3.) n x l.b l.x.x.x.x.x.x.x.x.z.l.l.z.b 8 7 ",
"v b z.x.l.b R z.z.l.R T R x.z.l.R l.v 4 . ) 0.B.E.W.N.v.c.b.B.!.~.(.^.]. X X{.'.C.C.v.v.c.v.b.b.v.c.t.w.q.w.n.K.J.f.2.( m x l.R l.x.x.x.x.b l.x.x.z.b x.x.b 8 8 ",
"v R x.x.z.l.b z.x.R j T T T T b R z.b P # ( ,.t.N.W.W.W.J._.[.}.XXXXoXoX.X{.'.Q.J.E.W.)._.).`.`.).J.v.s.w.a.n.H.W.f.=.^ , 2 v x.x.z.x.x.x.b b z.z.x.x.x.x.z.l.b ",
"8 R z.z.l.b l.l.l.l.R 8 R z.l.R R z.T 4 # ( =.q.b.C.W.W.W.Q._.`.'.[.'.[.'.'._.).N.C.).).).C._._.).N.b.w.w.w.c.J.K.n.*.~ 0 6 l.z.l.T x.x.x.R R z.x.x.z.b l.x.l.b ",
"8 b l.l.l.l.x.z.R x.z.R z.x.x.z.x.z.T 2 . ( &.0.c.N.C.E.E.C.C.C.E.C.C.N.N.b.b.b.B.C.N.C.C.C.C.C.C.b.c.w.w.w.c.F.K.A.1.( 0 c x.R R T l.x.x.z.l.x.x.z.z.8 8 x.l.8 ",
"7 v R R z.x.x.x.x.x.x.x.R T x.z.l.x.T d M ( &.0.s.M.C.E.E.C.N.N.N.N.N.b.w.5.:.:.0.s.C.W.).C.C.C.b.v.t.e.w.w.c.F.H.f.1.( n z R T T z.l.z.x.z.z.x.x.b l.l.x.x.8 7 ",
"8 8 8 b R z.z.z.x.x.z.l.R R x.x.x.x.R t M ( &.0.s.N.C.E.E.C.C.N.C.E.J.v.>.X.> > X.>.c.C.).C.C.b.c.t.t.t.w.t.n.J.K.f.*.~ m 6 R T R z.R R l.R l.x.x.x.l.l.x.x.8 5 ",
"8 8 8 8 R l.R l.x.x.z.b R z.z.x.z.z.T e @ ) ;.e.c.M.M.N.C.C.C.C.C.W.W.v.*.^ o o : %.t.W.W.N.b.c.t.w.t.t.t.s.J.I./.A.1.) m x l.b l.x.R T T T R z.x.x.z.z.x.x.8 7 ",
"b v 8 v 8 8 R z.x.z.z.l.R R x.R T R 7 2 @ ' 8.r.v.b.b.b.C.E.E.C.E.W.W.v.*.^ o X & #.t.W.W.M.c.t.t.w.w.t.t.n.Y.R.=X/.i.` n x z.z.l.x.x.x.l.z.x.l.8 b x.x.x.l.l.8 ",
"b b b b l.R l.l.l.l.l.l.l.l.R l.R R 8 4 @ H *.0.s.s.s.v.b.C.C.C.E.W.W.v.5.{ > & ~ $.t.C.J.v.t.w.t.w.w.s.c.F.Y.R.=X/.3.) , 6 z.x.z.z.x.z.z.x.x.l.8 b x.z.b b b l.",
"8 b l.z.z.x.l.R R T R z.z.z.l.z.x.x.R T q A [ *.5.w.a.s.b.M.C.C.C.W.W.M.s.5.*.{ %.>.c.M.b.t.w.t.t.w.w.s.m.K.R.R.T.Z.} D , c l.x.x.z.l.z.l.l.z.x.b b z.b 8 b 8 8 ",
"5 v z.l.l.z.z.z.z.R R z.x.x.x.z.x.x.z.R f t S _ $.0.p.s.s.v.M.C.W.W.W.C.b.v.e.w.w.e.c.c.c.t.w.w.s.w.s.s.F.K.L.A.y._ K d c b l.x.x.z.x.x.l.R l.l.z.z.x.l.l.x.b 8 ",
"7 v R R R l.R R l.T R z.l.l.l.R R R l.T v 6 2 ; ) 8.e.s.s.s.v.M.C.C.C.C.N.N.N.C.b.v.c.e.t.t.t.t.t.w.w.s.F.P.D.u.{ - e 7 v b l.l.l.T R R T l.z.z.x.z.R b b x.l.8 ",
"b v v R l.R v 8 v b R l.R R T T T T T 7 v 7 2 + ~ ;.w.s.s.t.s.v.b.b.b.b.M.N.C.J.N.b.e.w.w.p.t.t.t.w.w.s.K.K.m.2.>   1 7 v R R T 8 j 8 c T l.x.x.x.l.8 8 8 l.l.b ",
"8 b z.x.z.l.v v T v v l.z.x.x.x.z.R T 7 b v 4 ; ) ;.w.s.s.s.t.s.s.v.c.d.v.v.b.v.v.v.t.t.t.t.t.t.t.w.t.d.K.K.A.6.) . 1 7 R l.x.z.l.l.z.z.z.l.l.z.z.z.z.b 8 l.b 8 ",
"8 T l.l.z.x.z.l.l.R R l.x.x.x.z.z.x.l.z.z.R V ; ) ;.w.s.c.s.t.t.t.t.t.t.t.t.t.t.t.t.t.t.t.t.t.t.t.w.w.s.F.K.S.6.X.n 4 T l.x.x.x.x.z.x.x.z.R R R T l.x.l.R l.8 8 ",
"v v v T l.x.x.x.z.z.l.z.x.z.R R l.x.x.x.x.b B A ..:.w.s.t.t.t.t.w.w.w.w.w.w.w.t.w.t.t.t.t.t.t.t.t.w.w.s.F.H.m.6.' n x z.x.x.x.x.x.x.x.x.l.R R R 8 8 z.x.z.R b b ",
"7 7 v R R R R R R T T T R R l.x.z.z.R b b 7 2 ; ) 3.w.s.c.t.t.t.s.w.a.t.t.t.t.p.t.t.t.t.t.t.t.t.t.w.w.s.F.K.S.6.' n 2 v T R l.z.l.x.x.x.z.R T R 8 7 R x.x.l.8 6 ",
"7 7 T l.R v v T j 8 j T 7 v R z.x.l.R b b 6 2 + ) 7.s.b.v.t.w.t.w.s.t.t.t.t.t.t.t.t.t.t.t.s.t.t.t.w.s.m.I./.K.u.X.@ 2 T R R T R R x.x.x.x.l.l.R R R z.x.x.8 6 6 ",
"7 7 b b R 8 8 8 8 8 j 8 8 8 8 T z.l.z.x.x.7 , +  .r.H.H.m.t.w.w.t.t.t.t.t.t.t.t.t.t.t.t.t.t.w.w.t.s.s.H.*X;XR.A.O.. z l.z.l.v v T x.x.x.x.x.x.x.x.z.x.x.z.8 7 7 ",
"7 v b b R b 8 8 8 8 v 8 T R j z.z.l.z.x.x.T 2 ; ' u.D.H.S.s.w.w.t.t.t.t.t.t.t.t.t.t.t.t.t.t.w.w.t.c.D.P.R.-XT.i.' n x l.x.z.R l.x.x.x.z.z.z.z.z.R v R R x.l.T b ",
"c v b l.z.z.v v T R R T R l.x.x.x.z.z.x.z.T t S / 2.p.n.m.n.s.t.t.t.t.t.t.t.t.t.t.t.t.t.t.t.w.w.t.n.F.P.R.T.Z.6.] w t E z.l.z.x.x.x.x.z.R R x.z.T 6 c R x.l.R b ",
"b v b x.x.x.R b l.z.x.x.z.l.x.x.x.z.z.z.T d g y K ] | 6.s.S.b.s.w.w.t.t.t.t.t.t.t.s.t.t.w.w.w.w.w.n.H.H.Z.y.<.] L i U T j R x.l.z.x.x.z.v R x.x.R 7 v z.x.b v v ",
"8 8 b l.x.x.x.l.T T z.x.z.R x.z.R x.l.T E h l h s Z > @.f.P.I.F.c.w.t.t.w.t.t.t.t.t.t.t.t.t.s.s.c.H.I.K.p.#.- p s Y h h I R x.z.z.x.x.x.l.x.x.x.l.R z.x.x.R b c ",
"7 8 b b z.x.x.z.8 j R x.l.R x.R R x.R j h Q l h i M & @.A.R.=XY.m.c.t.w.w.w.t.w.t.w.w.t.s.c.n.n.F.Y.=XR.i.` O . i Y l k Y z.x.l.z.z.x.x.x.x.x.x.x.x.x.x.x.R T v ",
"8 b z.x.x.x.z.z.x.l.R x.l.l.l.x.x.z.8 5 d h Q g w # : 2.L.-X;X*XJ.n.t.w.w.w.w.t.w.w.w.t.s.S.F.H.I.*X-XR.A.@.+ N i Y i u d R x.T b R z.z.x.x.z.l.R R l.R R z.R T ",
"8 b x.l.z.x.x.z.x.x.z.z.l.z.z.x.x.T 8 5 i g k u r 9 F | Z.R.R.L.S.n.n.c.c.n.c.n.c.c.c.m.K.Y.Y.P.F.U.R.T.y.} - w i g s u d T R T v R R z.b b z.z.l.l.z.x.x.x.R R ",
"8 R z.T R x.x.z.x.x.z.R R z.x.x.z.b v f d u s i i y K ] <.i.i.u.7.s.D.J.J.F.F.H.F.F.F.P.Y.-XR.G.u.u.Z.y.<./ K i W i s i d 7 T T T R R T T R z.x.x.x.x.x.x.x.l.b ",
"b R T 8 T R R l.z.T 8 j 8 j z.x.x.x.R j d h l k h U k L ] ` ` ^ } 7.S.P.I.K.P.K.K.F.K.Y.R.-XT.y.` ^ ! _ / a h h h W k i d E x.x.x.z.x.x.x.x.x.x.x.x.x.l.v l.l.b ",
"v T l.T T T T R T T T R j 8 l.x.x.x.z.T f g g l Y Y Y i p - + = / } y.S.D.n.f.f.f.f.f.G.R.T.Z.| > + + Z p r h Y Q h h f f R z.x.x.x.x.x.l.l.z.x.b b l.b 8 b b b ",
"8 R x.l.R R R T T T l.z.j j l.z.x.z.z.l.T f f h Q Q Y g y w w y p / | 1.6.2.2.2.4.2.=.1.p.y.<.] p 9 9 w q u g Q W g I E v T l.x.x.x.x.x.R R z.z.b b l.l.b 8 8 b ",
"b R z.x.x.x.z.l.z.T v 8 8 b x.z.l.l.z.x.x.z.E f g h g h h h Y Y s L ( ^ ^ ~ ~ ~ ~ ~ ~ ~ ^ ^ / K s u r u u i h k g f R z.x.x.x.l.R x.z.x.x.x.x.x.x.x.x.x.x.b b b ",
"v R z.x.x.z.z.x.x.l.l.R R l.x.x.z.R l.x.z.l.T E h g k s l h h Y h y p - - - - Z - Z A - ; # p C h h g g s k h U h f R x.z.l.l.z.x.l.R l.z.l.z.x.x.z.l.x.x.z.l.b ",
"v b z.z.l.l.z.x.x.x.x.x.x.x.x.x.x.8 T l.T j j l.E d i s u s g g i u y y N y a y N y y a w w u g Y h h h Q W Y I T 8 T l.T v v x.x.R R T T T R R b b b l.x.l.l.b ",
"v b l.l.x.x.l.R l.z.x.x.x.x.z.l.R R T j T R z.x.R 6 i g d i r i u i i g h g U g U g g g h l g g h h h h Y Y Y T T b T T T R z.x.l.T T R R R T v v b b l.l.z.b 8 ",
"v b l.z.z.l.l.R R R R R z.x.z.R E l.R R R l.x.x.l.7 d d d d d r u s k h g h h h l g g h h g g s k d d d j j R E R l.R T R z.x.x.l.T T T T T T 8 7 8 z.l.z.l.b 8 ",
"8 b x.x.R 8 T R z.l.R j R z.z.z.z.x.z.z.z.x.z.x.l.T 7 7 7 6 d r u s k g g k l l g k l l k r s k k g d f j z.l.l.z.x.z.z.x.x.x.x.l.T j 8 8 8 8 j 8 8 z.l.l.l.b 8 ",
"v l.z.l.b 8 8 T x.x.x.z.x.z.R z.x.x.x.x.x.x.z.x.x.z.T 7 7 8 7 d i g g d g f h T f h h d d r r d h j z.z.z.z.R z.x.x.x.x.x.x.z.z.x.z.T 8 8 8 T R b l.b z.l.x.l.b ",
"v b z.z.R T v l.x.x.x.z.x.z.z.x.x.x.x.x.x.l.R z.x.x.l.T 8 l.l.j T T T T j E T E E T E j j f d f j z.z.z.z.z.z.z.x.x.x.x.x.l.R z.x.x.l.T b R z.z.z.z.z.l.l.x.b b ",
"8 l.x.x.x.x.x.z.x.l.R T l.x.x.x.x.z.z.z.l.R b l.x.x.x.x.x.x.x.x.z.z.z.l.T T l.l.R l.z.z.z.z.l.l.l.l.l.b z.z.x.x.x.z.z.z.l.R b l.z.x.x.x.x.x.x.x.x.x.x.l.l.l.8 8 ",
"8 8 l.x.z.R z.x.z.l.R T l.x.x.x.l.R R R z.x.z.b j x.x.x.x.x.x.x.x.z.b z.z.b b b R l.l.x.z.R z.x.l.z.R R l.x.x.x.l.l.b R z.x.z.R l.x.x.x.x.x.x.x.x.z.l.l.l.l.8 7 ",
"8 8 z.x.z.8 l.z.x.l.R v l.z.z.l.R l.R R x.x.l.R l.x.x.x.x.z.l.x.x.l.R x.x.R b l.l.l.l.x.l.8 z.x.z.l.l.8 l.z.z.z.b l.l.R x.x.l.b l.z.x.x.x.l.l.x.x.z.l.z.z.l.8 7 ",
"8 l.x.x.z.l.b l.x.R v b b T b b R z.x.x.l.v 8 z.x.l.x.x.x.l.8 l.z.x.x.x.x.z.x.x.x.x.x.x.z.l.8 z.x.l.8 j j l.j j R l.x.x.l.v v z.x.l.x.x.x.R b z.z.z.x.x.x.z.l.8 ",
"8 b x.l.l.R l.l.l.l.b v l.z.l.R l.z.l.R l.l.l.x.l.8 z.x.x.l.R z.x.x.z.l.b x.x.x.z.l.z.z.l.R l.l.z.l.8 8 l.z.l.l.l.z.l.b l.l.l.z.l.R z.x.x.R R z.x.x.z.b l.z.z.l.",
"8 b l.l.l.l.x.z.R z.z.R l.x.x.l.z.x.R b b x.x.l.8 l.l.x.x.z.l.x.x.z.l.8 8 x.x.z.l.l.R l.l.l.x.z.R x.z.l.z.x.x.l.l.x.l.b R x.x.l.j R l.x.x.z.z.x.x.z.z.8 8 x.l.8 ",
"8 v b b l.x.x.x.x.x.x.x.b R x.z.l.x.z.l.z.l.R 8 l.l.l.z.x.x.z.x.l.l.l.l.z.x.l.l.l.l.R R l.x.x.x.x.x.x.x.l.8 x.l.l.x.x.l.z.l.R T b l.l.z.x.x.z.x.l.l.l.l.x.x.8 7 ",
"8 8 b b R x.z.x.x.x.x.z.b R x.x.x.x.z.z.x.z.l.8 l.l.b R l.8 l.x.x.z.l.l.x.x.l.8 l.R b T R z.z.z.x.x.x.l.8 l.x.x.x.x.z.z.z.z.R v R z.R T R R l.x.x.z.l.l.x.x.8 5 ",
"8 8 8 8 b b b z.x.x.z.b b z.x.x.z.z.l.l.x.x.z.b l.x.l.T 8 8 l.x.x.x.z.z.x.x.l.T l.R v v T R R l.x.x.z.l.b l.x.x.x.l.l.l.x.x.l.R l.x.R R T T l.z.x.x.l.z.x.x.8 7 ",
"b v 8 v 8 b b l.z.z.l.l.l.l.z.R T R b R x.x.x.l.l.x.x.x.z.x.x.l.b 8 x.x.x.z.z.x.x.R c v v T R z.z.x.z.l.l.l.z.l.b b b R x.x.z.z.l.x.x.x.l.x.z.l.b b x.x.x.l.l.8 ",
"7 8 8 8 b 8 b b b 8 b b b b b b v v v T j l.R R R R l.l.l.z.R 8 7 7 l.b 8 8 b l.R v 8 v T v v b 8 8 8 8 8 l.8 b 8 v b b R R R R R R l.l.T l.l.R 7 8 b b 8 8 8 8 ",
"5 5 8 8 b v 8 8 7 7 7 8 8 8 7 8 R v R b 7 8 8 R b 8 8 8 8 8 j 8 7 7 8 7 5 6 7 v v 7 8 v v v v 7 8 7 8 8 8 8 8 8 b b b b 7 7 8 R b 8 8 8 8 8 8 T 7 6 8 7 5 7 5 5 "
};
