/* XPM */
static char *Group_9_3__resized[] = {
/* columns rows colors chars-per-pixel */
"80 80 218 2 ",
"   c #4C3D21",
".  c #533722",
"X  c #5A3626",
"o  c #533C23",
"O  c #5A3C26",
"+  c #5C3C2B",
"@  c #5B3931",
"#  c #5B3C31",
"$  c #6C2C2C",
"%  c #63332A",
"&  c #6C332D",
"*  c #633D2B",
"=  c #693C2D",
"-  c #6E2C30",
";  c #792E33",
":  c #643432",
">  c #6C3733",
",  c #6A3D32",
"<  c #683B39",
"1  c #743533",
"2  c #7A3235",
"3  c #723A33",
"4  c #783B35",
"5  c #73373A",
"6  c #7E343A",
"7  c #743A3B",
"8  c #7D3B3A",
"9  c #365018",
"0  c #3C541C",
"q  c #355C1A",
"w  c #3E5C1D",
"e  c #37631B",
"r  c #3B651C",
"t  c #3D6D1D",
"y  c #3F711F",
"u  c #3F4F2E",
"i  c #3A5527",
"p  c #365B2B",
"a  c #395D2C",
"s  c #3E5A31",
"d  c #3B6526",
"f  c #3E6B23",
"g  c #37602B",
"h  c #3C642C",
"j  c #3E6A2C",
"k  c #3F7220",
"l  c #3F7228",
"z  c #3F6730",
"x  c #47481E",
"c  c #454D1F",
"v  c #44541E",
"b  c #48541F",
"n  c #435C1E",
"m  c #43631E",
"M  c #426C1F",
"N  c #41741F",
"B  c #43781F",
"V  c #4B4321",
"C  c #4D4B22",
"Z  c #424D2D",
"A  c #554424",
"S  c #5A4326",
"D  c #514C23",
"F  c #5C452A",
"G  c #50482E",
"H  c #5B4A29",
"J  c #455522",
"K  c #4B5321",
"L  c #475B21",
"P  c #4B5B21",
"I  c #45532E",
"U  c #455B2E",
"Y  c #48592F",
"T  c #535325",
"R  c #505925",
"E  c #595329",
"W  c #444E32",
"Q  c #4C4D34",
"!  c #544533",
"~  c #5B4333",
"^  c #574939",
"/  c #455230",
"(  c #465A33",
")  c #485931",
"_  c #515336",
"`  c #63442D",
"'  c #68402D",
"]  c #62492C",
"[  c #644037",
"{  c #774537",
"}  c #7A413B",
"|  c #476321",
" . c #4A6422",
".. c #446D21",
"X. c #4A6B22",
"o. c #436229",
"O. c #416C2B",
"+. c #516525",
"@. c #427620",
"#. c #497322",
"$. c #457C21",
"%. c #497B22",
"&. c #427228",
"*. c #406830",
"=. c #7A3B42",
"-. c #6C4444",
";. c #704043",
":. c #7C4354",
">. c #842739",
",. c #8A2C3D",
"<. c #813036",
"1. c #84333B",
"2. c #89333E",
"3. c #833B3D",
"4. c #8B3B3E",
"5. c #90353E",
"6. c #89403E",
"7. c #863641",
"8. c #8C3442",
"9. c #853E44",
"0. c #8D3A43",
"q. c #8D3C49",
"w. c #953541",
"e. c #983744",
"r. c #923B45",
"t. c #993A47",
"y. c #923E49",
"u. c #9A3C49",
"i. c #9F3F52",
"p. c #A13F4D",
"a. c #8C4345",
"s. c #8C4446",
"d. c #974346",
"f. c #94434C",
"g. c #9C434D",
"h. c #95494F",
"j. c #9B494D",
"k. c #92524C",
"l. c #894553",
"z. c #934551",
"x. c #9A4552",
"c. c #964D53",
"v. c #9A4D54",
"b. c #94455B",
"n. c #944C5A",
"m. c #9A4E5A",
"M. c #975156",
"N. c #9A5256",
"B. c #97515B",
"V. c #9A545A",
"C. c #9E5B5B",
"Z. c #A1444D",
"A. c #AA434F",
"S. c #A34552",
"D. c #AA4452",
"F. c #A34B54",
"G. c #AB4A55",
"H. c #A1495B",
"J. c #B54C58",
"K. c #A05156",
"L. c #A35559",
"P. c #AD5459",
"I. c #A25D5D",
"U. c #AB5A5D",
"Y. c #B15155",
"T. c #B8515D",
"R. c #B45D5C",
"E. c #BD5A5D",
"W. c #9F615F",
"Q. c #A2605E",
"!. c #A9605F",
"~. c #984E64",
"^. c #9A5561",
"/. c #9B5B63",
"(. c #97546A",
"). c #9C556A",
"_. c #9B5D6C",
"`. c #9C5F73",
"'. c #A65964",
"]. c #A15B6D",
"[. c #BB5B61",
"{. c #A55F74",
"}. c #9D626C",
"|. c #9E6374",
" X c #9F6679",
".X c #A46361",
"XX c #AB6563",
"oX c #AD6A66",
"OX c #A3666A",
"+X c #AE6D68",
"@X c #B46464",
"#X c #BA6565",
"$X c #B16A66",
"%X c #BE6E67",
"&X c #B46D69",
"*X c #B96D69",
"=X c #B4716B",
"-X c #BB736C",
";X c #BA7A6F",
":X c #A46372",
">X c #A5667A",
",X c #BC7770",
"<X c #BC7A70",
"1X c #C0595F",
"2X c #C46363",
"3X c #C96766",
"4X c #C36F6A",
"5X c #C3736A",
"6X c #CB736A",
"7X c #C4786E",
"8X c #CC7C6F",
"9X c #D1796D",
"0X c #CA7A70",
"qX c #478022",
"wX c #498423",
"eX c #4C8A24",
"rX c #C78273",
"tX c #D18172",
/* pixels */
"9 e y y y y y y y y y y B y B y y B B B y t y qXB y B B y t t y y y B y y $.B t e t y t t y y y N t t B @.B B N y N N N t t t B @.N B N y t t t y B B y y B t q ",
"e t y y @.@.y y y y y B B B B y y k y y y y B k y y y y y @.$.$.$.$.y t y B qX$.@.N N N N B y y y y y B @.@.N y y y t t t t N B N y N y y @.$.@.$.@.y y y $.N t ",
"B B B B qX$.y y y B B qX$.$.$.B k @.k y y B $.k k y y y k qXeXeXeXqXy y y $.wXeXeXqX@.$.qX$.y y y B B qX$.$.@.@.y r 0 0 t N $.@.y y y t @.wXeXeXeXqXN y y $.B B ",
"N B wXeXwXqXN N B B B qXwXeXeXeXeXqXk k B eXeXwXqXqXwXwXwXqXqXwXwXwXwXB B qXwXqXqXwXwXeXwXqXB N B y B qXwXeXeXeX%.b   o m $.eXwXqX$.wXwXwX$.qXeXwXwXqXB B wXB y ",
"y B wXwXwXwXwXqXqX$.$.wXeXeXeXwXwXwXqXqXeXeXeXeXeXwXeXeXwXqXqXqX$.$.eXqX$.qXqXwXqXqXqXqXwXeXwXqXwX$.$.qXeXeX%.%.+.F 1 3 E X.wXwXwXeXeXeXeX$.$.qX$.$.wXwX$.qXB y ",
"y N N B wXeXeXeXeXwXqXwXeXeX$.$.qXeXeXeXeXeXeXeXeXeXeXeXwX@.@.$.k t eXeXwX$.qXeXwX$.N @.qXeXeXeXwXwXqXwXeXwXM v H a.g.g.7 E M B wXeXeXeXwX$.$.$.y N wXeXwX$.B N ",
"y y N B $.%.qX$.@.@.@.@.@.$.wXwXwXwX$.$.$.$.qXqXwXeXeXwXwXB @.@.t y $.eXeX$.@.@.qXB N $.qX$.qX$.$.@.@.$.@.k v F 3.j.L.K.d.4 D m qXeXeXwXwX@.N @.t y %.eXeX$.y r ",
"t t N B B N N N y y y k y y $.wXeXwX$.$.@.@.@.B qXeXeXeXeXqXqXqX@.@.wXeXeX@.y B $.@.@.$.$.N y y y y y y y t 0 O 6 j.L.K.f.3 x n @.wXeXeXeXqX%.wX$.@.wXeXwX@.t e ",
"t y y qXqXy y y y y y y y y y k qX$.wXeXeX$.B y B wXeXeXeXeXeXeXeXqXeXeXqXk k @.$.@.@.qX$.y y y k y y y k t q C ] a.x.j.} H 0 r k eXeXeXeXeXeXeXeXwXeXeXwXy t t ",
"t y B qXqXk y y y k y y k qXk qXeXqXeXeXeXwX$.qXwXeXeXeXwXwXwXwX$.@.@.qXeXqXeXeX$.@.B $.$.@.y y y y k y k k k @.+.] 1 4 E X.@.$.eXeXeXeXwX$.wXwX@.@.@.qXwXqX$.N ",
"y y y wXwXqXk k @.$.$.B qXqXeXeXeXwXeXeXeXwXwXeXeXeXeXeXB wXwXwXk t y qXeXwXeXeXwX@.B qXeXqXN N k qX$.k $.wXeXeX%.K A S | @.wXeXeXeXeXeX$.$.wXwXk t t qXeXwX$.B ",
"B y y eXeXeXqXk wXeXeXeXwXwXeXeXeXqXwXeX$.qXeXqXwXeXeXqXN qXeXeX@.t y wXeX@.@.eXeXqX@.wXeXeX$.@.qXeXeXeXwXqXeXeXwXm m m M $.eXwXqXeXeX$.N wXeXeX@.t y wXeXN N N ",
"y y y qXeXeXeXqXy $.wXeXqXqXeXqX$.wXeXeXwXeXeXwXwXeXeXeXwXeXeXeXqXqXwXeXeX@.%.wXqX@.@.qXeXeXeXqXy $.wXeXqX$.eXqX$.$.$.$.wXwXeXqXeXeXeXeXwXeXeXeXwX$.qXeXwX$.N y ",
"t y B qXeXeXeXqXy k $.eXqX$.wXqX$.wXwX$.eXeXeXwXwXeXeXeXeXeXeXeXeXeXeXeXwXwXwXwX$.$.$.%.wXeXeXqXy N qXeXqX$.eX$.$.eXwX$.eXeXeXqXqXeXeXeXeXeXeXeXeXeXeXeXwXwX@.N ",
"B B qXeXeXeXwXwXeXqX$.eXqXqXqXeXeXqX@.t $.wXeX@.N $.wXwXwXeXeXqX@.$.qX$.$.wXeXwXwX$.wXwXeXeXqXwXeX$.$.eXwX$.wXwXeXwX@.y @.eXeX@.@.$.eXeXeXeXeX$.$.$.qX$.qXwX$.B ",
"y B eXqXwXeXwXeXeXeXwXqXwXwXwXeXeX$.N y @.$.$.N N B %.$.B qXwXwXqXqXwXeXeXwX$.@.M M M B wXeXwXwXeXeXwXqXwXwXwXeXeXB y y @.$.$.@.@.@.@.$.@.$.$.eXeXqXqXeXwXeXqXB ",
"y B wXB $.eXwXwXeXeXqX$.$.wXeXeXeX@.B @.y B @.@.$.$.$.$.$.$.qXeXeXwXeXeXwXwX#.n V A C w @.eXwXeXeXeXqX$.$.wXeXeXeX@.B B N @.@.@.@.$.$.@.@.qXqXeXeXeXeXeXwXeXwXB ",
"B B B y N $.$.qXwX@.k y y k qXeXeXeXwXB qXwXeXeXwXwXwXeXeXeXeXeXeXeXeX$.N @.P * <.<.> V w $.$.$.qX@.y y y N wXeXeXeXwXB $.wXeXeXwXeXeXeXeXeXeXeXeXeXeXB @.wX$.B ",
"N B wXB N @.@.$.$.@.@.$.y y wXeXeXeXwXwX$.$.wXeXeXeXeXwX%.wXwXeX$.$.qXB m K ` 6.A.D.y., C m N $.$.@.k $.y y qXeXeXeXwXwX$.$.wXeXeXeXeXeXqXwXwXeXqXB qXB N @.B N ",
"y B eXqX$.$.$.$.@.@.$.wX@.y qXeXeXwXwXwX$.$.qXeXeXeXeXwX@.$.wXwXB y @.M v * 6.Y.2X2XP.s.= C m @.@.@.$.qXN y qXwXeXwXwXwX$.$.qXeXeXeXeXwXB $.wXwXB y qXqX$.N N B ",
"B $.wXeXeXeXwXqXqX@.y y t @.eXeXqXwXwXeXeXeXeXqXqXwXeXeXeXeXeXeXeXwX%.b * d.Y.3X9X0X&XP.d.3 C m qX@.y y t B wXeXqXwXwXeXeXeXeXqXqXwXeXwXeXeXeXeXeXeXeXeXwX$.$.B ",
"N $.wXwXeXeXwXeXeXwX$.$.@.$.eXeXwX@.qXeXwXwXqXwXwXqX$.wXwXwXwXwXqX#.P ] 3.Y.2X6X9XtX,X#XF.0.* K @.$.qX$.$.qXeXeXwX@.qXeXeXqXqXwXwXwXqXqXwXwXwXeXwXeXwXeXeXwXB B ",
"y B eXwXwXqXwXwXeXeXeXeXeXeXeXeXwXN @.qX$.@.y eXwX$.$.B N N B B r C * } F.#X6X9X9X8X7X4XU.j.4.= K #.wXeXeXeXeXeXwXN @.qX$.N N eXeX$.qX@.k k $.$.B @.B wXeXwXB N ",
"B B $.qXeXeXwX$.qXeXeXeXeXeXeXqX$.$.@.@.N @.wXeXeXy N M t N N N 0 X 4.F.@X,X7X6X9X9X6X%XoXL.F.a.3 D X.wXeXeXwXqX$.$.@.@.N @.wXeXeXy k $.$.$.$.k y N $.wXwXwXB N ",
"N B qXwXwXqXqX$.$.$.$.$.wXeXwXqX$.qX$.@.B qXeXeXqXy y r v 0 r N 0 . e.J.#X<X7X5X5X6X6X5X&X!.U.F.7.= D m $.wXeX$.$.qX$.@.qXqXeXeXqXy y @.$.@.y k y y qXqXqXqXB y ",
"y $.wXeX$.y k qXwXqX@.k $.eXwXqXwXeXeXwXeXeXwXeXwXN r c . x v t 0 o 5.G.@X,X;X-X%X6X6X6X-X$XoXQ.h.4.= x m $.wXwXwXeXwXwXeXeXwXeXwXB y y y y y y y B wXqXqXqXB y ",
"y $.wXwXB y y B eXeXeXeXeXwX$.wXeXeXeXeXeXeXwXwXwX%.P ` 4.4 H n 9 O 0.F.'.=X=X&X-X5X5X5X%X&X+X.XL.Z.4.% P $.$.eXeXeXeXeXeXeXwXeXeXqXB t y y @.$.B qXqXqXwXwXqXy ",
"N $.wXwX$.$.y B eXeXeXwXeXwXqXeXeXeXeXeXeXwXB qX#. .] a.Y.j.{ A o , f.N.!.oX+X+X&X%X%X5X-X=X+XQ.L.G.r.% P $.%.eXeXeXeXeXeXwX$.wXeXeXqXB @.$.wXwXwXqXwXqXqXeXqXB ",
"y B eXeXeXeXeXeXeXqX$.@.qXeXeXeXeXwXwXwXwXk y B m A 4.Y.2XR.j.1 - 9.k.N.I..XoX$X&X-X*X=X=X$X+X.XN.Z.2.X n wXwXeXeXwXwXwXwX@.N qXeXeXeXeXeXeXeXeXeXeXeXwXqXqXy y ",
"t B qXeXwXB wXeXqXqXqX@.wXeXeXeXqX$.B $.eXeXwXy c % d.1X6X4XR.g.y.s.M.M.C.I.XX$X&X&X&X&X=X&X=X.XN.Z.1.. m eXeXeXqXqX@.B wXeXwX$.qXeXeXeXeXwXeXeXeXwXqXqXwXy y t ",
"y B wXeXqXB qXwXeXqX@.@.$.eXwXwX$.qX$.$.wXeXwXy c % Z.1X4X5X4XR.L.v.M.M.V.Q.XX+X=X&X&X&X*X&X$X.Xv.Z.1.. m qXwXwX$.$.B qXwXeXqX$.qXwXeXeXeXqXwXeXeXwXB wXeXqXy y ",
"N qXeXeXwXB B wXeX$.@.@.B @.y @.$.wXeXeXwXy y B n % 4.G.@X-X;X&XXXL.M.M.V.Q.XX&X*X&X&X*X=X&XoX!.N.g.4.. v y y y $.wXeXeXwXN y eXeXwXeXeXeXB B wXwXeXeXeXeXqXqXy ",
"N B wXwXwXB qXqXqXqX$.N B wXqXB wXwXwXB qXwXqXB c X 0.F..X=X;X-X*XXXI.V.L.Q.XX+X*X&X&X=X&X+X.XQ.N.v.d.> S n M $.wXwXwXB $.wXwXwXqX@.eXeXeX$.$.eXeXeXwXB qXwXwXqX",
"y N qXqXqXqXwXwX$.wXwXB wXeXwXwXwXwXB B B wXeXM v X 4.S.C.+X=X-X*X*XXX.XQ.Q.XX$X=X&X&X&XXX.XW.N.N.L.M.a.4 ] P N wXwX$.N qXwXeX$.$.@.qXeXeXwXqXwXeXwXqXB y eXqXy ",
"y N $.$.wXeXeXeXeXeXeXeXB $.eXwXB B M M N B B t v % 0.Z.N..XoX&X&X=X&XXXQ.Q..X$X=X-X&XXXI.N.c.n.M.W.Q.L.g.4.S n B wXwXwX%.wXB N B qXqXwXeXeXwXeXwXqX$.qXeXeXy t ",
"t y N B $.wXwXeXeXeXwXqX$.$.eXwXB n D A D m B B b * u.D.N.C..XXX&X=X+X.XQ.I..X&X-X-X*XU.f.8.8.f.V.W.Q.U.S.w.; O K %.wXwXeXwX$.B $.wX$.$.qXB qXeXeXwXqXqXeXeXy e ",
"N y y y @.$.$.qXeXeXwXB %.wXwX%.+.S & <.& T M B n S 0.Z.v.V.C.Q..XXX.XQ.I.Q.XX$X-X,X&XF.8.>.>.s.V.W.Q.L.j.r.,.2 ` P @.$.eXwXqX$.qXwXqX@.@.@.$.eXeXeXwXwXeXwXy t ",
"B N y N @.y $.wXeXwXwXqXB B %.| ] 3.A.J.Z.{ T m n C ` 8 9.c.N.C.N.c.c.c.V.Q.XX*X-X=XoXx.8.>.8.f.N.W.C.M.f.r.u.t.3.F J @.wXeXwXwXqXeXeXeXqXqXeX$.N B eXeXeXwXqXy ",
"B N B B $.qX$.qXqXqX$.wXB M n F } j.1X3X1XZ.{ D v m K F 5 a.v.N.h.0.,.r.M..X+X=X=X&XXXN.e.8.q.h.N.V.N.h.q.0.g.S.j.8 F K ..$.wXwXwXwXeXwXwXwXeXqXN N eXwXB B B qX",
"y B qXwXwXeXwXqXB B B wXB m A 8 Z.!.4X6X4XE.Z.3 C ..t K & y.S.c.q.,.>.2.h..X+X&X&XXXQ.L.V.m.M.M.M.M.k.h.q.q.j.N.N.j.4 O v N wXeXeXwXqXwXqXwXeXeXB B wXB y B y y ",
"e N wXwXwXwXwXwXwX$.$.wXB P & e.T.$X;XrX0X6X[.q.] J r R } j.F.c.q.>.>.8.h.Q.oXoXoXQ.I.W.Q..XC.N.c.M.M.c.h.h.M.C.U.G.w.& v N wXeXeXwXeXeXqXqX$.qXwXwXeXqXqXeXB y ",
"r N $.$.$.$.$.$.qX$.$.wXy K $ e.J.XX=X<X<X5X#Xv.8 ` ] { k.U.U.v.f.0.q.f.N.Q..X.XQ.I.C.Q.Q.Q.C.N.n.M.^.V.N.N.V.C.V.D.5.$ v t $.wX$.B $.@.B qXwXqXeXwX$.@.B eXqXB ",
"B B N $.qX$.N t y @.@.qXN n X 8 g.N.!.oX&X+XoXC.a.1.2.g.!.oX.XN.z.z.v.N.C.I.W.W.W.W.C.Q.I.C.N.N.M.^././.}.C.C.N.v.p.1.% x m B @.N y t y N qXeXeXwXqXN y y $.B B ",
"N B wXeXwXqXN N $.y B qXqXB  .F 4 f.L.R..XoX.XI.v.r.t.F.XXXXQ.N.c.c.N.C.C.W.Q.W.Q.Q.C.C.C.N.M.c.M.B.C.}.W.C.C.N.v.y.,.- X b N %.wX$.wXwXqXqXqXeXwXwXqXB B qXB y ",
"y @.qXqXwXeXwXwXwX$.$.qXeXwX@.L H 4 y.S.C.C.Q.W.M.y.u.j.I..XI.k.c.n.N.C.I.I.W.C.C.Q.C.C.N.N.c.c.M./././.C.V.N.v.c.f.8.1.2 = R B wXeXeXeXwX%.$.$.$.$.eXwX$.qX@.y ",
"y N N @.qXeXeXeXwXwXqXqXeXeX$.y L S 1 0.f.M.C.C.c.f.f.h.C.L.C.M.M.c.M.N.V.C.C.N.C.C.C.C.N.c.c.M.B._._./.n.c.z.c.z.f.f.u.p.0.= T #.wXeXwXwX$.@.$.y k wXeXwX$.@.B ",
"t y y $.qX$.$.$.$.@.@.@.N $.wXwX$.X.C * <.f.N.C.N.h.f.c.C.C.C.C.M.M.M.N.N.N.f.d.d.N.C.C.N.c.c.B.(.|.|._.n.q.8.0.f.c.K.U.U.x.a.{ H  .$.eXwX@.@.$.t t $.eXeX@.t t ",
"t y @.qX$.N y N k y y y y y $.wXwX$.n   2 t.x.v.N.c.M.N.C.C.C.C.V.N.c.M.N.h.0.2.0.h.C.C.N.M.M.V.}. X X_.b.q.1.8.f.K.XX*X$XU.j.2.= c @.wXeXwX$.wX$.@.eXeXeXk t e ",
"t N N B $.y y y y y y y k y t @.wXB P H 3.r.u.c.c.M.V.V.C.C.W.Q.C.V.c.c.M.h.q.2.q.h.N.V.N.M.B./.|. X|.(.n.q.q.y.F.!.&X=X$XL.d.3.= c %.eXeXeXeXeXwXwXeXeXwXy t t ",
"r y B B B N y y y y y y B $.k qX#.P F } s.f.f.y.z.m././.N.V.C.Q.C.N.v.c.c.h.h.f.h.N.N.N.M.M.V./._._.(.^.c.N.N.L.!.oX+X!.P.j.3 ] +.%.wXwXwXwXwXwX%.B @.qXwXqX@.B ",
"N N B qXwXwXB N @.$.$.@.$.wXqX@.P * 3.j.C.N.j.f.z.B./.^.V.N.C.C.C.N.c.c.c.M.N.C.C.M.N.c.c.M.B././.V.N.N.N.C.XX$XoXoXQ.M.g.3.O n $.eXeXeX$.$.wXwXk t y $.eXwX$.B ",
"N N N eXeXeX$.B wXwXeXeXwX$.#.P * 2.Z.U.Q.I.k.f.z.M.^./.B.V.N.V.N.N.c.c.v.M.C.C.L.N.c.M.M.B.^./.V.N.M.N.C..XXXoXXXU.j.a.7 ~ J M &.eXeXwXN %.eXeX@.t y wXeXB N N ",
"y y B wXwXeXeXqXN B wXeX$.M K ' 1.y.v.'.Q.W.C.N.M.B.B.^./.^.V.V.M.M.c.c.c.N.N.V.N.M.c.N.V./.^.B.B.N.N.W.Q.Q..X.XL.Z.0.5 ^ ) O.O.&.qXeXwXwXwXeXeXwXqXeXeXeX$.N y ",
"r N B B wXeXeXqXN N $.wX..K ` 0.S.v.N.C.C.I.C.C.V.N.N.M././.B.M.M.j.c.c.c.c.c.v.M.c.c.V././.B.M.M.V.C.W.W.C.N.M.h.t.1.> G o.O.h j @.%.wXeXeXeXeXwXeXeXeXwX$.@.y ",
"N B wXeXeXeXwXwXwX%.N m D < l.'.:X'./.C.N.N.V.C.N.c.c.N.M./.B.B.N.c.c.j.h.c.c.c.c.c.c.M.V.^.C.N.V.N.C.C.N.N.j.f.y.y.9.=.< Q U a g f l k qXeXwXqX$.$.$.qX%.wX$.B ",
"y B eXqXeXeXwXeXeXwXM C , q.).{.>XOX/.N.N.k.M.N.N.c.c.c.c.B././.V.N.c.M.c.c.c.c.c.c.c.M.M.N.V.C.W.N.N.N.k.v.d.a.q.c.n.l.a.7 ! u g g d f f $.wXwXwXqXwXwXeXeXqXB ",
"y qXeX@.$.eXwXeXwXwXM x 5 b.).{.:X).^.B.^.B.N.N.N.N.B.N.M.V./._._.C.V.N.M.M.N.M.M.N.M.M.c.N.V.C.C.V.M.c.M.c.z.f.z.B./._.H.q.5 ! / s s j f k wXeXeXeXeXwXwXeXqXB ",
"B @.@.k k $.$.qXwX@.d i [ :.~.H.D.u.x.^.`.|._./././././././.}.}.}._././././.^.N.B./././.V.N.V.C.C.V.V.V././.^.B.^./.}.:X:X'.l.=.< Q ( z l eXeXeXeXeXeXqXB wXqXB ",
"y @.qXk k $.@.$.$.@.k ../ ^ =.=.,.1.9.n.`.>X`./././././././.)././././._./.^.N.N.m.V./.V.N.c.c.c.c.c.v.m.V./.).^./././.:X X{.~.q.5 Q U j k wXeXwXqXB wXB N B B N ",
"y $.eXqX$.$.$.@.@.@.$.qXg i ! : - @ =.l.(.].].m.m.m.m.B.m.m.m.m.m.m.B.m.m.m.x.z.x.v.m.v.z.g.d.g.d.d.f.x.v.m.^.V.m.m.N.^.{.{.~.q.} G o.&.k qXqXeXB N B qXB y N B ",
"B $.wXeXeXeXqXqXqX@.y k d p L Q Q W ^ ;.y.i.p.u.t.t.u.u.u.u.u.e.t.t.u.u.u.u.e.w.e.t.u.t.e.w.w.e.e.w.e.e.t.u.u.u.u.e.u.u.i.i.q.-._ o.O.wXeXeXeXwXeXeXeXeXeXB B B ",
"B $.wXwXeXeXwXeXeXqXqX$.B @.&.O.O.a I ^ =.1.1.6 6 6 6 6 ; ; 6 6 6 6 6 6 6 6 6 6 6 6 6 6 <.6 6 6 <.6 6 6 6 6 6 8 6 6 7.7.8.=.[ Q o.&.$.$.wXwXeXeXwXwXwXeXeXwXqXB ",
"N B eXwXqXqXwXeXeXeXeXeXeXeXqX$.l g a W # @ : # @ @ + @ @ @ @ @ @ @ @ + # @ # ~ # # # # # # # # # # # ~ # # # # # @ @ @ : # W *.$.$.$.$.@.@.$.$.B B B wXeXqXB B ",
"N B qXqXeXeXqX$.qXwXeXeXeXeXeX&.f h a u W W / ) ) Z Z Z Z u u u u u I I I I I ) Y I I I ) ) / I / I ) Y ) Y U I W W W W Q / o.&.$.N @.@.$.@.@.N N B B qXwXwXB y ",
"N B B eXwXwX$.$.$.qX$.$.wXeXeX@.f j h h j j z j z p p a a a p p i p h h h h h h z h h z h h h h h h h a h z z h h j h h z O.&.wXqXk k k $.k k k y y qXqXqXqXB y ",
"y B eXeX$.y @.qXwX$.@.@.$.eXwXqXqX$.@.@.$.&.l j z g p p p p p a p g j j h h z j h j j j g p g g h h h p h j z j l &.@.$.$.%.%.eXwXk k k k k k y y y wXwXqXqXB y ",
"N qXwXqXy y t @.eXeXeXwXeXwX$.wXeXwXwXeXeX$.f j z z a p p p p h g g g h h j j j h j z h p p p h j j j h j j g h l &.qXeXeXwXwXeXeXwXk k y y $.$.B qXqXqXwXwXqXB ",
"N B wXwXqX$.y qXeXeXeXwXeXwX%.eXeXeXeXeXeX$.f j j O.j g d d f j j ..O.h j j j l j f j j d d g d &.O.O.j j j j j &.&.wXeXeXqX$.wXeXeXqX$.y $.qXwXwXwXwXqXqXwXqXB ",
"y qXwXeXeXeXeXwXeXwX$.@.qXeXeXeXeX%.wXwXwXk y k @.&.&.%.@.$.@.$.@.$.@.&.f k @.@.@.@.@.$.$.&.@.@.&.@.f t @.@.&.&.$.$.qXwXqX@.N wXwXeXeXeXeXeXeXeXeXeXeXqXqXqXB y ",
"y y wXeXwX$.wXeXqXwX$.@.qXeXeXwXqX$.@.$.eXeXwXy &.wXeXwXwXwXwXwXeX$.$.$.$.@.k B $.&.B wXqX@.qXwXqX$.@.y %.eXeXwX$.$.@.$.eXeXwXB qXeXeXeXeXeXeXeXeXqXqXqXqXB y t ",
"y y wXeXwXy qXwXeXqX$.N $.eXeXqX$.$.$.$.eXeXwX$.wXeXeXeXeXwXwXwXeXqX@.eXeX$.$.$.wXqXwXeXwXB qXwXeXqX$.B $.eXwXqXqXqX$.$.wXeXwXB qXwXeXeXeXwXwXwXeXqXqXwXeXqXy t ",
"y qXeXeXwXqXB qXeX$.N N B @.B B $.eXeXeXqXy y eXeXqXwXeXeX$.$.wXeXeXeXeXeXeXeXeXeXeXeXeXwXqXB qXeX$.y B B $.y B B wXeXeXwXN N eXwXwXwXeXeXqXB wXwXeXeXeXeXqXqXy ",
"y B wXwXqXB qXqXqXwXB y qXwXqXB qXwXqX$.B qXwXeXqX@.wXeXeXqX$.wXeXwXwXB B eXeXeXwXwXwXwXwXB $.wXwXqXB y qXwXqXB wXwXqXB wXwXqXwXqX$.wXeXeXqX$.wXeXeXwXqXqXwXqXqX",
"y B qXqXqXwXeXwXB eXwX$.qXeXeXqXwXeX$.B qXeXeXqXB $.qXeXeXwXqXeXeXeXqXy B eXeXeXwX$.$.wX$.wXeXwX$.eXwX$.qXeXeXqXwXeX$.B $.eXeXB y qXqXeXeXwXwXwXeXwXqXy y eXqXy ",
"y B B qXwXeXeXeXeXeXeXeXB $.eXwXwXeXeXqXwXqX$.y @.qXqXwXeXwXwXeXwXqXB qXeXeXqX$.$.$.$.$.wXeXeXeXeXeXeXeXqXB eXwXwXeXeXqXwX$.$.y y wXqXwXeXwXwXeXqXqXqXqXeXeXy t ",
"y y B y B wXwXeXeXeXeXwXB B eXeXeXwXwXwXwXwX$.y qXwXB B qX@.qXeXeXeXqXwXwXeXB B wX$.@.N $.wXwXwXeXeXwXqXB B eXeXeXeXwXwXeXwX$.B qXwX$.@.qX@.qXeXeXwXqXqXeXeXy e ",
"y y y y B B B wXeXeXqXB qXqXeXeXwXwXqXwXeXeXwX$.qXeXqX@.B @.qXwXeXeXwXwXwXeX$.@.wX$.N y @.$.$.qXeXeXwXB qXqXeXeXwXwXqXwXeXeXqX$.qXwXqX@.B B qXwXeXeXqXwXeXeXy t ",
"B y y B y B qXqXwXwXqXqXqXqXwXqX@.@.B $.eXeXwXwXqXeXeXeXqXeXwXqXy B wXeXeXwXeXeXeXB N N @.N $.wXwXeXwXqXqXqXqXqX@.B B qXeXeXwXqXwXeXeXeXqXeXwXqXy B eXeXeXqXqXy ",
"t y y y B y B B B y y B B B B B @.N B @.B $.$.$.$.$.qXqX$.wX$.$.t t $.B y y $.qX$.N t N @.N N B y y y B y B B B y B N @.$.@.$.qX$.qXqXqX@.qXqX$.y t B B y y y y ",
"e e t y y B y y t t y y y y t y $.N B B t y y $.@.y y y y y y y t t y t e t t N N t y y N N N t y t y y y y y y $.N B @.t t y $.y y y y y y y @.t t y t e t e e "
};
