/* XPM */
static char *Group_9_5__resized[] = {
/* columns rows colors chars-per-pixel */
"80 80 228 2 ",
"   c #1B321F",
".  c #223C1B",
"X  c #1B3526",
"o  c #1C3737",
"O  c #223C24",
"+  c #233C2B",
"@  c #243D34",
"#  c #243D3A",
"$  c #283F39",
"%  c #26471C",
"&  c #2B4D1E",
"*  c #2F5216",
"=  c #2E531D",
"-  c #30521E",
";  c #335C1D",
":  c #36621D",
">  c #39661D",
",  c #3C6D1E",
"<  c #3F711F",
"1  c #254625",
"2  c #294627",
"3  c #2A4C24",
"4  c #25432C",
"5  c #2B4B2C",
"6  c #314C2E",
"7  c #2E5323",
"8  c #2F5820",
"9  c #2D522A",
"0  c #305522",
"q  c #345C24",
"w  c #385E25",
"e  c #34552C",
"r  c #345A2B",
"t  c #3A5C2C",
"y  c #264534",
"u  c #2B4334",
"i  c #2C4A32",
"p  c #26433B",
"a  c #28423B",
"s  c #2B4B3C",
"d  c #314D32",
"f  c #314E3D",
"g  c #2C5335",
"h  c #2D563A",
"j  c #345334",
"k  c #335B35",
"l  c #395B32",
"z  c #33543C",
"x  c #375A38",
"c  c #366222",
"v  c #3A6523",
"b  c #3D6B22",
"n  c #35602D",
"m  c #3D632C",
"M  c #3F692A",
"N  c #3F7121",
"B  c #376135",
"V  c #3D6232",
"C  c #41751F",
"Z  c #43781F",
"A  c #406F24",
"S  c #40662F",
"D  c #416A2D",
"F  c #417521",
"G  c #457C21",
"H  c #43702B",
"J  c #416730",
"K  c #1D3B43",
"L  c #254343",
"P  c #284846",
"I  c #2B4C44",
"U  c #2C4F4A",
"Y  c #2A4D4C",
"T  c #2E5542",
"R  c #2C534E",
"E  c #2E5A48",
"W  c #355945",
"Q  c #325C44",
"!  c #325B4B",
"~  c #2D5551",
"^  c #2C5856",
"/  c #325652",
"(  c #325B54",
")  c #315E5A",
"_  c #386447",
"`  c #336153",
"'  c #316757",
"]  c #3B6452",
"[  c #396A56",
"{  c #34645C",
"}  c #366A5C",
"|  c #336463",
" . c #356A62",
".. c #3A6C63",
"X. c #386A6B",
"o. c #3B7265",
"O. c #397464",
"+. c #3A7568",
"@. c #3D7A6C",
"#. c #396E70",
"$. c #3A7878",
"%. c #466E52",
"&. c #436C5A",
"*. c #406F62",
"=. c #487767",
"-. c #437C6D",
";. c #567D69",
":. c #427E72",
">. c #478022",
",. c #498423",
"<. c #4C8A24",
"1. c #3D8372",
"2. c #42816E",
"3. c #448474",
"4. c #488476",
"5. c #468B75",
"6. c #458B7A",
"7. c #4A8C7B",
"8. c #588670",
"9. c #538A78",
"0. c #47937D",
"q. c #4A947D",
"w. c #658A74",
"e. c #658D76",
"r. c #6D927B",
"t. c #3D7F83",
"y. c #428B85",
"u. c #4B9681",
"i. c #4D9C83",
"p. c #45938A",
"a. c #479688",
"s. c #599984",
"d. c #448D98",
"f. c #469899",
"g. c #649C83",
"h. c #739B82",
"j. c #4FA188",
"k. c #57A688",
"l. c #52A68C",
"z. c #54AA8D",
"x. c #59B18F",
"c. c #4DA499",
"v. c #54AE91",
"b. c #56AE97",
"n. c #56B193",
"m. c #5AB493",
"M. c #5BBA95",
"N. c #58B69A",
"B. c #5ABE99",
"V. c #67A78E",
"C. c #67AE92",
"Z. c #67B697",
"A. c #75B99A",
"S. c #4798A5",
"D. c #4BA4A9",
"F. c #56B7A6",
"G. c #53B4AB",
"H. c #57BBAC",
"J. c #4EABBA",
"K. c #54B8B7",
"L. c #74BFA0",
"P. c #5DC19B",
"I. c #62C39D",
"U. c #66C89F",
"Y. c #74C19D",
"T. c #5CC3AC",
"R. c #5AC2B2",
"E. c #5AC3BF",
"W. c #65CCA2",
"Q. c #67C8A5",
"!. c #79CAA6",
"~. c #6BD0A5",
"^. c #69D3A8",
"/. c #72D7AB",
"(. c #76D4AA",
"). c #74D9AC",
"_. c #79DBAE",
"`. c #61CFBA",
"'. c #77DBB0",
"]. c #78E0AF",
"[. c #7BE4B4",
"{. c #7BE7B6",
"}. c #54BBC7",
"|. c #5DCCC8",
" X c #5BC9D8",
".X c #64D7C6",
"XX c #65DED6",
"oX c #5ED2E4",
"OX c #61DAE3",
"+X c #65E2E9",
"@X c #8AB490",
"#X c #99C59D",
"$X c #82CCA8",
"%X c #85D6AC",
"&X c #90D0A6",
"*X c #89DBB3",
"=X c #A4CEA4",
"-X c #AFD5AC",
";X c #84E5B6",
":X c #89E7B7",
">X c #89E6B9",
",X c #82EDBB",
"<X c #8DEBBB",
"1X c #93E8BB",
"2X c #89F1BD",
"3X c #94F0BE",
"4X c #AFEFB9",
"5X c #89EFC2",
"6X c #93EBC0",
"7X c #8CF4C2",
"8X c #95F3C2",
"9X c #9CF3C1",
"0X c #97FBC8",
"qX c #A2F5C2",
"wX c #A6FAC6",
"eX c #ABFAC5",
"rX c #A5FCCB",
"tX c #B4FBC7",
"yX c #BAFCC4",
"uX c #A9FDD3",
"iX c #C5FDC2",
"pX c #CAFFC4",
"aX c #C8FFCB",
"sX c #D4FBC4",
"dX c #D8FBC7",
"fX c #DCFFC9",
"gX c #CBFFD0",
"hX c #E5FFCB",
/* pixels */
"* : C , , C C C C , , C C C Z C < Z Z C , , < G Z < Z Z < , , , < C C < < Z Z , : , C , , < < C C , , C Z Z Z Z < Z Z < < , < Z Z C C C C > C A C C Z C C Z A * ",
"> , C C C G < , C < < G Z Z C C < F < < < < < F Z < < < < F G G >.F C < < Z >.G G C C C C C < < < < C Z F F < < < < < < < < C Z C C C A C Z G Z C C C , C G C > ",
"Z Z C Z >.G C C C C Z >.G G G C F F F , < Z G Z < N < < F >.<.<.<.>.C < < G ,.<.<.>.F G >.Z C < C C Z >.G G G < F F < < < F G Z C C A C C ,.<.<.<.,.C C C Z Z Z ",
"C Z ,.<.,.G C F Z C C >.,.<.<.<.<.>.< < Z <.<.,.,.>.>.>.>.>.>.<.,.,.>.Z Z >.,.>.>.,.,.,.,.,.C C Z C C >.,.<.<.<.<.>.Z < G ,.<.,.,.G Z ,.G G ,.,.,.,.Z C Z G Z C ",
"C C G ,.,.,.,.G >.G G ,.<.<.<.,.<.,.>.>.<.<.<.<.<.<.<.<.,.G G >.G G <.>.G G >.,.>.>.>.>.,.<.,.>.>.>.G >.<.<.<.,.<.,.,.,.<.<.<.<.,.<.<.<.,.G G G Z ,.,.,.G G Z C ",
"C C C Z ,.<.<.<.,.,.>.,.<.,.G G >.<.<.<.<.<.<.<.<.<.<.<.,.G F G , F >.<.<.G >.<.,.G C F >.<.<.<.,.,.,.,.<.<.>.G >.,.<.<.<.<.<.<.<.<.<.<.G G G G C C ,.<.,.G Z C ",
", , C Z Z G G G G F F F F G ,.,.,.,.G F G G G ,.,.<.<.,.,.Z Z F < , >.<.<.G F Z G G C G >.G G G Z Z Z F F G ,.,.,.,.>.< F >.,.,.<.<.<.<.,.G G G , C Z <.<.G C > ",
", C C Z G Z Z C < < < < < F G ,.<.>.G G G F F G G <.<.<.<.>.>.>.G G ,.<.<.F < C G F C >.G C < F < < < < < < G ,.,.,.>.F G F G < G <.<.<.<.G G ,.Z Z ,.<.<.F > : ",
", < < >.>.< < < < < < < < < < G >.>.,.<.<.G Z < Z ,.<.<.<.<.<.<.>.>.<.<.>.F F G G G F G G < < < < < < < < < < N ,.>.,.<.<.>.< < F <.<.<.<.<.<.<.<.>.<.<.>.C , , ",
", < Z >.>.N < < < F < < F G N >.,.,.<.<.<.,.G ,.,.<.<.<.,.,.,.,.G F G >.<.>.>.<.G F G G G G < , < N < < < >.N >.,.>.<.<.<.,.>.,.<.<.<.<.,.G ,.,.G F G >.<.G G C ",
"< < < ,.,.>.N < C F G G G ,.,.<.<.,.<.<.<.,.,.<.<.<.<.,.Z ,.,.,.F > , G <.>.<.<.>.G F G ,.>.C C N >.>.< >.>.,.<.<.,.,.<.<.,.,.<.<.<.<.<.G G ,.<.F > , G <.>.Z Z ",
"Z < < <.<.<.G G >.<.<.<.,.,.<.<.<.>.,.<.G >.<.G ,.<.<.,.C ,.<.<.F , < <.<.F G <.<.G F <.<.<.G G ,.<.<.<.,.,.<.<.<.>.<.<.>.>.,.>.,.<.<.>.Z G <.<.F , C ,.<.F C C ",
"< < < >.<.<.<.>.< G ,.<.>.>.<.>.G ,.<.<.,.<.<.>.,.<.<.<.,.<.<.<.>.>.<.<.<.G G >.>.G F G <.<.<.>.< >.,.<.>.>.<.>.>.<.,.<.,.<.<.,.<.<.<.<.>.<.<.<.>.G >.<.<.G Z C ",
", < Z >.,.<.<.,.< < >.<.>.G ,.>.G <.>.G <.<.<.>.,.<.<.<.<.<.<.<.<.<.<.<.<.G ,.>.G G G G ,.<.<.,.< < >.<.>.G ,.>.Z ,.,.>.,.<.<.,.G ,.<.<.<.<.<.<.<.<.<.<.,.>.F C ",
"C Z ,.<.<.<.,.,.<.>.G ,.,.G ,.,.<.G C , G <.<.G Z G ,.,.,.<.<.>.G G G G G >.<.<.>.>.,.<.<.<.,.,.<.>.Z ,.>.>.,.<.<.,.< < G ,.<.N F G >.<.<.<.<.G G G >.G G ,.G Z ",
"< Z <.>.,.<.,.<.<.<.,.,.>.,.<.<.<.F C C F G G C C G G Z Z >.>.,.>.>.<.>.<.<.<.<.>.,.<.>.,.<.<.,.<.<.,.,.,.,.<.<.<.< < < N >.>.< F G G G G G <.>.<.>.>.<.<.<.>.Z ",
"< Z ,.Z Z <.,.,.<.<.,.G G ,.<.<.<.F Z Z F Z F F F G G F F >.,.<.<.<.<.<.<.<.<.<.,.,.,.G < <.,.,.,.<.,.>.>.,.<.<.<.Z Z < Z < G N G G G F F G >.<.<.<.<.<.<.<.G Z ",
"Z Z Z < C >.G >.,.F < < < F >.<.<.<.,.Z G ,.<.<.,.<.<.<.<.<.<.<.<.<.<.G C ,.<.<.<.,.N < < >.>.,.,.< < < < N ,.<.<.<.,.Z >.,.<.<.,.<.<.<.<.<.<.<.<.<.<.Z F ,.>.Z ",
"C Z ,.Z C C Z G G F F G < < >.<.<.<.,.>.G G ,.<.<.<.<.<.>.,.<.<.G F >.G < F ,.<.,.,.>.< < >.>.N >.< N >.< < >.<.<.<.,.>.Z >.<.<.<.<.<.<.>.,.,.<.>.Z >.Z C F Z Z ",
"< Z <.>.G G G G F F G >.C < >.<.<.,.,.<.G G >.<.<.<.<.,.Z Z ,.,.Z C >.>.G < Z <.,.,.,.>.>.>.>.N N < >.,.< < >.<.<.,.<.,.G G >.,.<.<.<.>.Z G ,.,.Z C >.>.F C C Z ",
"F G >.<.<.<.>.>.>.F C < , F <.<.>.>.,.<.<.<.<.>.>.,.,.<.<.<.<.<.<.<.<.<.<.Z ,.<.<.,.,.,.<.<.,.>.,.< < < < < <.,.>.>.<.<.<.<.<.>.>.,.<.<.<.<.<.<.<.<.<.<.<.G Z Z ",
"Z G ,.<.<.<.<.<.<.,.G G G G <.<.,.Z >.<.,.,.>.,.,.,.>.>.,.,.,.,.<.,.,.<.<.>.<.<.,.,.,.<.,.<.,.<.<.,.>.G G ,.<.<.,.G G ,.<.>.>.,.,.>.>.>.>.>.<.<.<.,.,.<.<.,.Z Z ",
"C Z <.,.>.>.>.<.<.<.<.<.<.<.<.<.,.Z F >.G C C <.<.G G F < F G G G Z C ,.<.>.,.<.,.,.<.,.,.>.,.,.<.<.<.<.<.<.<.<.,.C G >.F Z C <.<.>.G F F F G G Z C Z >.<.G G Z ",
"C Z G >.<.<.>.G >.,.<.<.<.<.<.>.G F F F C F ,.<.<.< F G G G G F < C Z G >.>.>.,.,.>.>.>.,.<.,.>.,.,.<.<.<.<.<.>.G G Z N Z F ,.<.,.C F G G F F F C C G >.,.,.G C ",
"C Z >.,.<.>.>.G G >.G G ,.<.,.>.G >.G F Z ,.<.<.>.< < F F N < < > : : > C G >.>.,.>.>.,.,.,.>.>.G >.>.F ,.<.,.>.G >.G F G >.<.<.>.< F F G C F < < < >.,.>.>.Z < ",
", Z <.<.Z < C G >.>.F < G <.,.>.<.<.<.,.<.<.<.<.,.F < < < < < N : & 3 0 , G ,.,.>.>.<.,.>.N < ,.>.>.F N >.,.,.>.,.<.,.,.<.<.<.<.,.F < < < < < < < Z >.,.>.>.Z < ",
"C G >.G , : : , >.<.<.>.<.,.>.,.<.<.<.<.<.<.,.<.<.,.F < < < Z F q g ! x n >.<.<.,.,.,.>.< < < < <.<.,.,.<.,.>.,.<.<.<.<.<.<.<.>.,.>.N : : > < C Z G Z >.>.<.>.C ",
"C G G , = 1 % ; F >.<.<.,.,.>.,.<.<.<.<.,.>.>.,.<.<.>.G Z G < : x &.9.*.B M F >.,.,.,.,.>.N < >.<.<.<.,.<.,.,.,.<.<.<.<.<.G G <.<.G : = % 7 : F >.,.,.>.>.,.>.Z ",
"C Z G c 2 o @ 2 q F G F >.,.<.<.<.,.,.,.,.F < ,.,.,.<.<.,.>.v 3 %.g.Y.V.2.e ; b >.,.<.<.<.<.,.,.<.<.F F >.<.<.<.<.,.,.,.G F < >.>.N 8 + o + 7 , >.<.<.>.G >.Z < ",
", , M B ] o...` h v , < >.<.<.<.>.G G Z ,.<.,.Z G <.<.<.>.b r ] s.(.1X!.9.f 1 : Z >.,.,.,.Z <.<.,.>.G F ,.<.<.<.>.,.< G <.<.,.C b V _ } o.{ _ n N G G >.>.G < > ",
"; q x %.e.Z.V.4.[ k q : F <.,.>.G >.G G <.<.,.Z >.,.,.F v B [ 8.!.<X<X!.7.P 1 ; Z ,.,.<.,.< >.<.<.>.G F ,.,.,.>.G >.G G ,.,.Z : r _ 8.V.C.i.@._ n > < >.<.Z < < ",
"% 5 ] V.(.>X).m.1.E 5 7 , F Z F G ,.<.<.,.< < <.<.>.G : 3 ] 9.!.1X5X(.x.-.p 3 > >.<.<.<.,.>.F >.<.>.< Z Z Z < Z Z ,.<.<.,.< ; % z 8.Z.*X>XQ.i.O.h 7 b >.<.,.>.Z ",
"  s :.A.>X0X{.W.u.{ s % , ,.G >.>.,.>.G >.>.,.,.>.F < 8 @ *.Z.>X0X,XP.q. .p 7 N >.,.,.,.>.G >.>.>.>.Z < >.,.G Z ,.,.>.G >.Z : + / s.*X8X7X'.N.4.~ 4 q , G <.>.Z ",
"  I :.A.;X5X[.P.0.| I 1 < <.<.,.,.<.G Z Z <.<.G G F , 7 o =.Z.:X2X'.n.6.} p 7 v F >.>.G >.,.,.,.G <.,.G >.<.<.,.>.<.G Z >.Z c + ( l.(.5X5X/.m.6.~ p 0 > < <.>.< ",
". p ..i.Q.^.Q.l.3.) s 8 : G <.,.>.<.,.>.,.>.G C F >., 0 y } q.I.^.W.z.5.} p 3 c G >.G G >.<.<.<.<.<.<.<.Z G <.,.,.<.,.>.,.F : O T 3.m.^.^.N.u.+.R 4 ; F ,.<.Z < ",
"& 9 Q +.i.N.M.l.4.| I 3 > G <.<.<.<.,.,.<.,.G C G >.C ; 7 h O.0.n.B.v.y.X.L 2 ; G G Z < G <.,.<.<.<.<.>.G Z <.<.<.<.,.,.<.G > 7 g [ 5.l.v.a.@.` h q > G <.<.Z : ",
": ; 9 h O.q.z.l.y. .I 3 v ,.<.<.,.>.G >.<.<.>.G >.,.Z < : e h } 6.l.l.u.+.P 2 : Z >.< < C G G >.<.<.>.Z G >.<.<.,.>.>.>.<.<.F > c B ' +.@...` h c < Z >.<.<.< > ",
"C < : 3 s | 6.u.4.` i 7 , >.,.G G G G G <.<.<.>.,.<.<.,.G F q y { 3.u.6...y 7 < ,.>.< < , , C G <.>.,.>.G >.,.G G G F G <.<.,.>.N v g I Y I g q > C ,.<.<.>.G C ",
"G Z N : 9 E O.@.o.Q 9 v F >.>.G G >.G >.,.,.,.<.,.,.<.<.<.G N 0 T { 1.o.E 9 : F ,.>.< < ; - : < Z ,.>.>.>.>.G >.G G G >.>.,.<.<.,.< q 5 i 5 8 b < C ,.,.G Z Z Z ",
"< < ,.Z b r ! ( E r > G >.<.G >.<.,.<.<.G G >.<.<.>.,.>.>.>.G F r T ` E k b < >.>.,.Z v r 5 8 > Z Z Z ,.,.,.>.,.<.,.<.<.G Z G ,.,.G < : q : < >.Z Z ,.G C C < < ",
": < ,.>.Z b 9 i 9 v F ,.<.,.<.<.<.,.,.<.G G ,.<.<.>.<.<.G G G G b r 5 9 c ,.,.Z C Z F n _ ' Q n G N G ,.<.,.<.,.,.<.<.>.C > > b N F ,.,.F F Z >.>.,.<.G C C : ; ",
", < G >.Z < 8 = ; < >.,.,.>.>.>.G >.G G Z G G >.G G G G F G >.<.>.b 8 ; < <.<.<.Z > n _ 2.q.1._ c , < ,.>.>.>.>.G G >.C ; = 2 2 7 : Z G G ,.,.,.<.<.G C , ; 1 + ",
"Z Z < Z >.F : : > < G G G F F < C F , , C G G G F C C C F >.<.>.,.Z > > , C >.<.N 8 y O.j.m.i.} y = > G G G N < F F < c 0 y L L y 3 c , < >.<.<.,.>.N > 0 2 L K ",
"< Z ,.<.,.>.< < Z C C >.,.,.F : - ; ; : F ,.<.>.>.>.G ,.>.G C > : : > : ; ; : : 8 + o  .0.j.6.{ o O 7 , >.<.<.<.,.G > 7 x *.7.4.o.Q r > F >.>.,.,.>.F q k &.;.u.",
"< Z >.>.,.<.>.>.>.G G ,.<.>.c 7 y 4 3 ; G <.<.<.<.,.<.<.G C ; 6 1 3 9 3 1 1 5 3 X o K Y | O.| Y K o 4 8 N <.<.<.>.< 7 z ;.V.!.Q.i.o._ r v F G >.G , q k &.g.L.(.",
"< C < F >.<.<.<.<.,.>.>.>.N e I ~ R h n F <.<.<.,.,.,.>.Z A e f Y ~ I I I I I I P P P I Y Y Y Y P Y Y i v N N >.N 8 s &.V.*X8X;XQ.u.{ s = > F F > ; 1 ] s.!.1X0X",
", < < Z >.>.>.G G F C b n B &.9.s.6.} h 7 c F F C , ; ; * 0 J ;.r.h.r.e.e.e.e.9.e.w.8.;.-.=.=.:.4.3.@.' g = ; : q h [ i.(.7X0X5X^.i.+.T 7 > C < q g ` q.Q.<X0X7X",
", , < >.G < < < < < > = 9 ] g.!.%XQ.j.} s 5 q M m t 2 + 2 x ;.@X-X-X-X=X=X=X=X=X=X=X=X#XA.A.A.A.Y.I.v.1.` i 2 3 g [ q.P.'.{.{.).B.u. .T - , < : g ( 5.M.].{.{.[.",
", C C G G C A C , > - O s =.A.1X0X5XW.q...T i 6 x W / R Y =.@X4XdXfXsXsXsXsXsXsXsXdXsXiXtXwXwX9X3X2X].x.5._ p o R @.x.W.^.P.x.v.u.-.) s 0 b C 7 T *.i.I.W.P.P.M.",
"* > Z Z G F C : q -     # | l.*X0X0X[.Z.6.) L f %.=.s.g.s.V.&X4XaXgXaXgXfXhXhXhXhXhXhXfXgXyXtXuXwXwX4X&XC.5.R K Y $.n.W.v.5. .O.| ^ Y # O & 0 7 f ] :.i.k.q.0.0.",
"= : Z >.G G A w e d $ o K ) 4.L.;X6X6X(.x.+.~ Y &.h.$X*X%X*X1XqXwXeXtXyXsXfXhXdXhXdXfXfXdXpXyXeXwXtX4X4X*XZ.@.R ~ +.i.z.6.' Y Y Y Y L L a y i e d z ( [ } { { { ",
"; > C >.G v w j W / ) ) { |  .6.C.(.<X>XQ.u.) Y *.C.6XuXuXwXwX0X6X6X3XeX4XiXpXpXiXiXiXpXpXpX4XqXqXyXpXiX3X].v.@.{  .:.4.+.' U Y R Y ~ ( {  .{ W e 6 i a $ + @ + ",
"; , N > = 1 + u / ..3.q.q.3.} } :.C.'.,X).l. .P ) s.>XrXrXrXrX9X8X8X9XqXeXyX4XyX4XyXyX4XyXyXeXeXqXtXyXyXeX8X/.x.5.} { { O.2.3.@.+.o.o.-.y.p.3.( i + 6 6 e - % & ",
", , v r s I L R  .5.z.P.M.q.} ~ ) 6.m.~.W.l.O.~ ) u.~.,X8XwX9X9X6X6X8X9XqX3XwX3XwX3X3XeX4X3X3X3X9X9X9XqXwX8X;X^.x.@.^ ^ 1.k.M.k.q.q.q.l.F.H.c.$./ d x V A A A > ",
"C v k } t.y.t.1.u.b.T.^.U.x.-.( R ) @.0.j.0.=.| +.0.M./.[.<X<X>X:X:X>X>X;X;X;X;X;X;X<X:X:X;X;X,X:X:X;X:X<X3X2X{.W.0.} } 5.m.U.M.z.z.N.^..X.X.XG.d.X./ x A C Z C ",
"* 5 ` d.}. XK.D.G.R.^.U.P.q.0.@.' ~ R R { } +.3.7.i.n.I.~._._._._.).).)./././.)./.).).).^.).)./.).).).).).].].].W.z.5.3.q.v.x.k.z.n.T.`..X.XXXOX}.S.*.T 3 S F C ",
". u #.D.oX+X|.R.R.R.T.F.b.v.v.i.6. .Y K P ) -.i.z.l.v.m.P.W.W.W.W.W.P.W.W.T.W.W.T.W.W.U.U.W.W.W.W.U.U.T.W.W.W.W.U.M.z.i.l.z.b.l.b.b.H.R.R.R.|.+XoX}.:.U + t S A ",
"3 I X.d.}.}.G.f.a.a.f.J.E..X.XR.b.a.$.| { +.q.n.N.b.v.v.B.P.P.P.B.B.P.B.P.P.P.P.B.P.P.P.P.P.P.P.P.P.P.P.P.P.P.I.P.P.M.N.N.F.R.|.E.K.D.a.y.p.D.K.J.S.*.I 6 l m : ",
"; l ] X.#.$.#.X.) ) $.D.oX+XXX`.T.G.c.p.6.q.i.v.v.z.l.l.z.n.n.v.z.z.n.v.v.x.v.v.z.v.v.v.v.v.v.n.v.v.z.n.v.v.n.n.x.n.v.N.F.R..XOXOX}.t.| / / X.#.#.X.W j l l t A ",
"A S l z a L a @ @ @ ^ d. XOX|.K.G.H.G.b.l.a.q.u.u.u.i.u.u.u.u.u.i.u.u.u.0.q.0.0.u.u.u.u.0.0.0.0.0.0.i.0.i.q.u.u.q.q.q.i.l.G.|.OXoXS.X.a + $ L L L $ l t m t w : ",
"C C A e 6 d d 6 6 2 I X.d.S.f.p.y.p.p.y.3.-.@.@.@.+.@.O.+.+.+.X.+.+.+.O.@.+.+.+.O.+.+.+.+.+.O.O.O.+.O.+.+.+.O.+.+.o.+.@.3.y.f.D.S.:./ d 6 6 6 6 d j V D H A A C ",
"C Z F A t l l l t t x W ) | | | ( ) ) ) ( / R R R / ~ R ~ ~ R R R R R R E R R R R R R R R R R R E ~ R ~ R ~ ~ R R R R / ~ ) | | | W z l t e e t e l m D H G C C ",
"C G G G H D D D H H S e u @ @ # $ $ $ $ a a a a a $ a a # $ $ $ $ $ a a a a p p a a a a a a a a a a p p a a a a a a $ $ $ $ o @ + 6 t m w t m m m w t D G G Z Z ",
"Z G G G G F S m J J S l e 6 d 5 6 d 5 i i i j j d d i d d d d d i i d j d d d g j j d d j j j i d j j g d j j d d d d i i i 6 6 6 6 w t m m t t t w S C G G Z C ",
"C Z ,.,.,.F S S l M t t t m t t t t t t t m V S m e e e e e e e e e t t t l w t V w m V m t t t l t t e m S t t t l t t t t S m w e e w m w t t q ; G G G ,.Z C ",
"A G <.<.Z C : A M M v w S D D S D D D D D D D D D t w t w t t w t w D D S S D S S S D D S t w m S S t w S S D D D D D D D D D D D t t e e w w q ; A G G ,.G Z C ",
"C Z ,.Z C A > C G ,.G b D J l S D D J D D S S S J D t t l t t m w S w S S S S S m S S S t e e m S D S S S S m S D D D D H J S S J J l e q > C A C C Z >.,.<.Z Z ",
"C Z ,.,.Z C C Z <.<.G F A S S D D D D D D m m S D D M t t w S D S S S S S D A S S D S S m m w S D S S A D S S D D D D D D S m S D D m m A Z ,.Z ,.,.,.,.,.,.G Z ",
"C Z ,.<.<.<.<.,.<.>.F < b H H F H F b H , b v A F H F F F H G H H F G A v v A A A C F H F H H F A A A v A A F H F A A A A A v A F H H G G ,.<.<.<.<.<.,.Z >.C C ",
"C Z >.<.,.Z ,.<.,.>.G C Z >.<.G G F F F G >.G C G ,.G ,.G G G ,.G G F G G C C C C C G G Z C G G G Z A C C ,.<.Z G G F A G ,.G F F ,.G ,.,.<.<.<.<.,.Z ,.,.Z , , ",
", C ,.<.,.Z >.,.<.>.G C >.,.,.>.G G G G <.<.>.Z G <.<.<.<.,.,.,.<.,.Z ,.,.G Z ,.G G ,.<.,.Z Z <.,.G G C G ,.,.G G G G Z ,.,.G Z G <.<.<.<.G G <.,.,.Z <.<.Z C , ",
"C >.<.<.,.Z Z ,.<.G C C Z Z Z Z G >.<.<.>.C C ,.<.G <.<.<.Z Z ,.<.<.<.<.<.,.<.<.<.<.<.<.,.Z Z <.<.G C C G Z Z Z Z ,.<.<.,.C C <.<.G <.<.<.G Z ,.<.<.<.<.<.,.>.Z ",
"C Z >.,.Z ,.Z ,.Z ,.Z C >.,.>.Z G ,.,.G G ,.,.,.G G ,.<.<.G G <.<.<.,.Z Z <.<.<.,.,.,.<.,.G G G ,.,.G C >.,.G Z ,.,.>.G G ,.,.,.G G ,.<.<.G G ,.<.<.,.Z Z <.,.Z ",
"C C Z >.,.,.<.,.,.,.,.Z ,.<.<.,.,.<.G Z G ,.<.G G G ,.<.<.,.G <.<.<.Z Z Z <.<.<.G G G G G ,.<.,.G ,.,.G >.<.<.,.,.,.G Z G <.<.G Z G ,.<.<.,.,.<.<.,.G Z C ,.>.C ",
"C C Z >.,.<.<.<.<.<.<.<.Z Z <.,.,.<.<.G ,.,.G Z F G G ,.<.<.,.<.,.>.Z >.,.<.,.Z ,.G G G ,.<.<.<.<.<.<.<.Z G <.,.,.<.<.>.,.G G C Z G G ,.<.<.,.<.<.Z G ,.,.<.Z , ",
"C C C Z Z <.,.<.<.<.<.>.Z Z <.<.<.<.,.,.,.,.G Z G ,.G G G G G <.<.<.>.>.<.<.Z C ,.G C C G <.,.<.<.<.,.>.G G <.<.<.<.,.,.<.>.G Z G ,.G G G G G <.<.<.G ,.<.<.C > ",
"C , , C C Z Z ,.<.<.,.Z Z ,.<.<.,.,.G ,.<.<.>.G ,.<.G F G G G ,.<.<.>.,.<.,.,.Z ,.G C C C G G ,.<.<.,.Z Z ,.,.<.,.,.G ,.<.<.>.G ,.<.G G G G G <.<.<.,.,.<.,.Z > ",
"C C , C C Z Z >.<.,.,.>.Z ,.<.Z F G Z G <.<.,.,.,.<.<.<.G <.<.G C Z <.<.<.,.,.<.<.G A C F C G G ,.<.,.Z ,.>.,.G G Z F G <.<.,.>.G <.<.<.G ,.,.G Z Z <.<.<.,.Z C ",
", , , C C C Z Z Z Z C Z Z Z Z Z F C Z G F G G G G G G G F G G G , , Z Z C C C Z Z C A C C F C C Z C C C Z C Z C C Z Z F G G G G G G G G G G G G A C Z C C C C , ",
": > C C Z C < , , > , , C < , C Z C Z C , , Z F F C C C C C C F , , C , : > , C C , C C C C C C , , , C C C , C F Z Z Z C , C C Z C C C C C F C > > C , : > : : "
};
