/* XPM */
static char *Group_9_7__resized[] = {
/* columns rows colors chars-per-pixel */
"80 80 204 2 ",
"   c #1F3E23",
".  c #1F3529",
"X  c #1B2E34",
"o  c #1E3433",
"O  c #253C27",
"+  c #223C2C",
"@  c #213731",
"#  c #2A4A1D",
"$  c #2E511C",
"%  c #30561D",
"&  c #335D1D",
"*  c #36621D",
"=  c #39661D",
"-  c #3C6D1E",
";  c #3F711F",
":  c #244424",
">  c #274825",
",  c #2A4B24",
"<  c #26442B",
"1  c #2B452A",
"2  c #2A4C2B",
"3  c #324B2C",
"4  c #2E5224",
"5  c #2D522C",
"6  c #305622",
"7  c #335C23",
"8  c #325C2C",
"9  c #385A2E",
"0  c #2E4634",
"q  c #2E4937",
"w  c #29443F",
"e  c #2C4B3B",
"r  c #304734",
"t  c #304A36",
"y  c #314B38",
"u  c #2D5234",
"i  c #2E563A",
"p  c #365531",
"a  c #385631",
"s  c #335A35",
"d  c #3A5C32",
"f  c #315A3B",
"g  c #366123",
"h  c #3A6424",
"j  c #3D6B24",
"k  c #35612C",
"l  c #3C672B",
"z  c #3F7120",
"x  c #3D6033",
"c  c #356238",
"v  c #41751F",
"b  c #43781F",
"n  c #406E27",
"m  c #416E28",
"M  c #417620",
"N  c #457C21",
"B  c #487F21",
"V  c #447528",
"C  c #2A4540",
"Z  c #294B47",
"A  c #294C49",
"S  c #2D5344",
"D  c #2E554A",
"F  c #2F5948",
"G  c #315445",
"H  c #315A43",
"J  c #345B4D",
"K  c #385B4E",
"L  c #2C5253",
"P  c #315A56",
"I  c #305D56",
"U  c #356548",
"Y  c #356656",
"T  c #32635C",
"R  c #3C735D",
"E  c #356761",
"W  c #356964",
"Q  c #396D65",
"!  c #356B6A",
"~  c #3A6F69",
"^  c #3C7463",
"/  c #3F7A63",
"(  c #3D766C",
")  c #3E7B6D",
"_  c #366B71",
"`  c #377274",
"'  c #3D7B79",
"]  c #417E65",
"[  c #417D6B",
"{  c #417D70",
"}  c #478022",
"|  c #498423",
" . c #4C8A24",
".. c #3F8071",
"X. c #42826D",
"o. c #438574",
"O. c #468974",
"+. c #458979",
"@. c #498878",
"#. c #538A7B",
"$. c #5B8D7C",
"%. c #4A937D",
"&. c #4D987D",
"*. c #628F7A",
"=. c #66907A",
"-. c #6B917B",
";. c #3C7982",
":. c #418988",
">. c #4B9582",
",. c #4D9A83",
"<. c #46958D",
"1. c #4D9C88",
"2. c #469891",
"3. c #489B97",
"4. c #4FA28D",
"5. c #51A386",
"6. c #52A68B",
"7. c #55AB8D",
"8. c #5AAD8E",
"9. c #58B18F",
"0. c #55AD91",
"q. c #53AF9A",
"w. c #56B394",
"e. c #59B392",
"r. c #5BBA96",
"t. c #56B49C",
"y. c #57B89A",
"u. c #5EBE99",
"i. c #69B898",
"p. c #489AA9",
"a. c #4CA6A3",
"s. c #54B3A3",
"d. c #58B6A0",
"f. c #59BAA4",
"g. c #58BBA7",
"h. c #56BAAD",
"j. c #4DABB4",
"k. c #57BDB2",
"l. c #59BEB5",
"z. c #5EC29B",
"x. c #5EC89D",
"c. c #61C49D",
"v. c #62C99F",
"b. c #5AC0AD",
"n. c #5BC3B2",
"m. c #5EC9B7",
"M. c #5BC4B9",
"N. c #65CCA1",
"B. c #68CDA2",
"V. c #75C3A2",
"C. c #7BC5A3",
"Z. c #7EC8A5",
"A. c #66D1A4",
"S. c #6BD3A6",
"D. c #6DD7A9",
"F. c #6BDCAB",
"G. c #71D6A9",
"H. c #75DBAD",
"J. c #7ADCAE",
"K. c #60CDB6",
"L. c #7EDFB0",
"P. c #7DE2B2",
"I. c #7DE8B5",
"U. c #55BCC9",
"Y. c #5CCCC8",
"T. c #5CC9D0",
"R. c #62D6CE",
"E. c #62D9D8",
"W. c #67E0D0",
"Q. c #5CCCE0",
"!. c #62D9E3",
"~. c #67E4EC",
"^. c #84C7A2",
"/. c #85CCA8",
"(. c #93CBA3",
"). c #9FCEA3",
"_. c #A4CFA3",
"`. c #A4D0A3",
"'. c #ADD1A3",
"]. c #83E7B6",
"[. c #8DEBBA",
"{. c #91EDBD",
"}. c #8CF1BE",
"|. c #95F1BF",
" X c #96EEC5",
".X c #9CEFC5",
"XX c #95F2C1",
"oX c #9CF5C4",
"OX c #9CFAC8",
"+X c #A5F1C5",
"@X c #A4F8C5",
"#X c #AAF9C5",
"$X c #A6FDCC",
"%X c #B4F1C5",
"&X c #B9F1C5",
"*X c #A4FFD0",
"=X c #ACFFD0",
"-X c #B2FFD0",
";X c #BCFFD0",
":X c #C7F3C6",
">X c #D2F4C6",
",X c #C6FFD1",
"<X c #CCFFD1",
"1X c #D0FFD1",
/* pixels */
"$ * v - v v - v v - - v v v b v ; b b b ; - ; } b ; b b ; - - ; ; ; b ; ; b b - * = v ; - ; ; ; ; ; - v v b b ; ; b b ; ; - ; b b v b b ; - = ; ; ; N ; ; b - & ",
"= - v v v v v - v - v b N v b ; ; ; ; ; ; ; b z ; ; ; ; - N N N N N ; ; ; b N B N ; ; v v b ; ; ; ; ; b N z ; ; ; b ; ; - ; b b ; ; ; ; ; M N N B b ; - ; B v = ",
"b b v b B B v v v v b B B N N v z N z ; ; b N ; z ; ; ; z |  . . .} ; ; ; N  . . .} M N } } ; ; ; b b | N N N z N N ; ; ; N N N ; ; j - v }  . . .B v ; v b b b ",
"v b |  .| b v b b v b } }  . . .| | z z b  . .| | } | | } } } | | | } b b } } } } }  . . .b b v b ; b } |  . . .| } ; ; N }  .| } B | | | } }  .|  .} b v  .b - ",
"v v } } |  .| | } N N }  . . .| | | } }  . . . . . . . .| } B B N B  .} B B } } } } } |  . .} } | b N |  . . .| | | } } |  . . . .|  . . .N N B N N  .B B B b v ",
"v v v v }  . . . .| } }  . .B N B  . . . . . . . . . . .} N z N - z }  .| N }  .| N ; z }  . . .| | } }  . .N N }  . . . . . . . . . . .| N M M - ; |  .| N b v ",
"- - v b b } b b N M M N M N }  . .} N N N N } } |  . .| | b ; N ; - }  . .N N z B b ; N N B } } b b b N b N }  . .| } N N N } |  . . . .| N M N - - B  . .N - = ",
"- v v b b b b b z - ; z ; ; N }  .} N z N N M N N  . . . .} | } N N |  . .N ; z N N z B N ; ; ; b ; ; ; ; ; N | | } N z N N z N N |  . . .B B B N N |  .| M = = ",
"- ; b } } ; ; ; ; ; ; ; ; ; - z } B |  . .N z ; v  . . .|  . . .}  . . .| ; ; N N N N N N ; ; ; ; z ; ; ; ; j N | }  . . .} ; ; M  . . . . . . .| |  . . .; - ; ",
"- ; b b N z ; ; ; z ; - N N z |  .}  . . .| N }  . . .|  .|  .} N z M }  .} |  .N z ; N N z ; ; ; ; ; ; ; } ; } | }  . . .| N |  . . . .| } |  .N z N | | } b ; ",
"; ; b } | } ; ; M N N N N }  . . .}  . . .| |  . . . . .b B }  .z = - B  .|  . .} N b }  .} z ; z } N ; } } |  . .| |  .| | |  . . . . .N B } | z - - N  .} B b ",
"b ; z  . . .N N }  . . .| |  . . .B |  .N }  .B |  . .B v |  . .N - ; |  .v V  . .} ;  . . .B N |  . . .| |  . . .}  . .} } | } |  . .} v B  . .z - ; }  .N v ; ",
"; ; v }  . . .} ; N |  .} }  .} N  . . .|  .| | |  . .| |  . . .| B }  . .N N | } N ; }  . . .} ; } |  .} N  .} N |  .| |  . .|  . . . .}  . . .| } |  . .N ; ; ",
"- ; b b |  . .| ; z N  .} N | } N  .B N  . . .| |  . . . . . . .|  . . . .} } N N N N B |  . .} ; ; }  .} N  .N N  .} }  . . .} }  . . . . . . . .|  . .| } N ; ",
"v b  . . . .| |  .} N  .} } }  . .B M - N  . .M v N |  .|  . .} N N } B B }  . .| } }  . . .} |  .b } | | } |  . .| z ; N  . .N z N } |  . . .} N B } B B } N b ",
"; b  .}  . .|  . . .| } | }  . . .N v - M N N M M M N N N B } } } } |  . .|  . .} |  .}  . . .|  . .| | } | |  . .b ; ; z N N z z N N N N B }  .} } } |  . .} N ",
"; b  .v B  .} |  .| | N N }  . . .N b z b ; N z M N N N M N }  . .| } B }  . . .} |  .b N  .| |  . . .b N |  . . .N v b ; ; N N M N B N M N }  . . . . . . .B b ",
"b b v ; v B N B | N ; ; ; z }  . .| } b } |  . . . . .|  . . . .| N = & * B  . . .| z ; ; N N } | ; ; ; ; N }  . .| } } } |  . . .| |  . . . . . . . .b N } N ; ",
"v b | v ; M N N N z z N ; ; }  . . . .B N B  . . . . . .B }  . .N g 5 : 4 j  . .| } N z z N N N } z z } ; ; } |  . .} b N B }  . . . . .B }  . .B B } N ; N b b ",
"= b  .} B M N N z N B } N ; }  . .| |  .N N } |  . . .| M N } N g 5 S S i 7 z } } |  .| N N } z z z N | ; ; }  . . . . .N N B  . . . .} M N }  .b ; N N N ; ; b ",
"% h }  . .| } } B v ; ; j z  . .} B }  . . . .} } | |  . . .; g s U O.O./ s 7 z | | }  . . .| |  .; ; ; ; ;  . .} B }  . . . .} }  . . . . . . . . . . . .N b v ",
"2 g N  . . .|  . . .B N b B  . .} N }  .| } } | | | } } | } ; 4 H ) 7.w.+.F 2 g N  .|  .| | |  . . .} b N |  . .} N B  .| } } } | } B B } | | | } } B  . .B N v ",
"J c z V } } }  . . . . . . . . . .; N N N ; v  . .} } ; ; ; * > H { 7.e.%.Y u & v  . .} } | }  . . . . . . . . . .z N N N z M  . .N N z ; N z ; - = = B  .} B N ",
"%.^ i 7 z  .} N }  . . . . . .} N N N M z N |  .| ; b N N ; - & u U o.O.^ s 7 - } | B }  . .} } } |  . . . . .} N N N M ; N |  .| ; N N N N ; 7 5 2 7 j } } N - ",
"7...e 4 = } b } } } b b }  . .} N B N z b }  . .| ; ; z z z ; ; 7 8 J J f h z B | } } | | | } } N } N N |  .| N N } N M N B  . .| ; ; N z N = $ < < 4 h } } b ; ",
"5...S 4 * - ; } } } b ; B  .} }  . .|  . . .|  .| N z ; ; ; ; ; = & > > 7 v }  .} | | | } z z } | N M z N  .| |  . . .}  . . . . .z ; ; ; ; - 4 e e 4 z } } b b ",
"^ U k - - - ; b  . . .| | | } |  . . . . . .|  . .| N ; ; ; z b N - & & - }  . .| | | } z ; - z  . . .}  .| } |  . . . . . .|  . .| ; ; ; ; ; = g 7 = b | | } ; ",
"e k z N } } ; ;  . . . . .| }  . . . . . .} } |  . .N N ; } | }  .B N v N }  . .| | | | } N ; }  . .|  .|  .}  . . . . . .B N |  . .| z z } } } } z b b | | } b ",
", h  . . . .|  . .} N b |  . . . .} } | } z ; } |  . . . . . . . . . .} N B } } | |  .|  . .| |  .| N N }  . . . .| | | B z z |  . .|  . . . . . . . .} b } b ; ",
"& ; }  . .; }  .| } } b }  . . .} } N N  . . .b }  . . . .| |  . .} B } } N v N N } }  .| N |  .| } N M |  . .| } | ; N  . .| N N  . . . .|  . . . .b } | b ; = ",
"- ; |  .| ; |  .| } N ; }  .| } N B N N  . .| b N |  . . .| }  . .} B |  .N N B } } |  .| z B | | B N z } |  .} N } b }  . .} N }  . . . .B }  . .} }  . .b ; ; ",
"; }  . .| b b |  .} ; ; ; N ; b N |  . .| ; ;  . .}  . . .N N |  . . . . .}  . . . . . .| } N }  .B M M b b ; b b |  . .} ; ;  . .}  . . .b b | |  . . . .| } b ",
"; b | | } N } } } } b ; b  .} b } } B B b } |  .} N |  . .} } |  . . .b b  . . .} | | | } N B B } } b ; } | N b | | } N } } }  .} N  . . .N N  . . .| b b  .| b ",
"; ; B } } }  .| b | | b |  . .| }  .N v }  . .} ; z }  .| | }  . .| } v v  . . .} } B } } }  .} N  .| N }  . .| }  .N b }  . .b ; N }  . .| } |  .| | ; ;  .} ; ",
"; v B N }  . . . . . . .b b  .| }  .| B  .B N z N | } |  .| } | } b B } }  .| B } } N } }  . . . . . . .b N  .| |  .| } | B b v b } } }  .| | | | } } }  . .b - ",
"; ; v ; N  .| |  . . .} ; ; }  . . . .}  .} N z } | N N } } }  . . .B }  . .B z } } ; ; N  .|  . . . .} b N  . . . .| |  .| N b N | z ; b N N  . .| } }  . .; * ",
"; ; ; ; N N N }  . .} ; * * j }  .} B }  . .} N } | } b ; b } |  . .| |  . .N z | N ; ; ; } b }  . .| ; } } |  . .| B |  . .N N } | h & & - b |  . .b  . . .; - ",
"b v ; v ; ; b |  . .} = 4 : % h v N v N  . .| } }  . . .}  . .N ; ;  . . .}  . . .b ; ; ; ; } }  .| | } N }  .N M M M N  . .| B | | g > > z | } b ;  . . .} } ; ",
"b b b b N } b } b b j k H J f k - ; B B } | |  .| |  .| | | | } ; b  .} } N }  . .} ; N | } N } b } } } } } } } B B B N } } | | z j c H H c z V ; v  .| b b b b ",
"; v }  . . .| N ; * 6 U / +./ U g j B  .N N |  . .} | | } }  . .} b | N ; z } | } } | }  . .| N } b N |  .} N |  . . . .N N B M h s ^ O.o.U 8 j - v } b ; b b ; ",
"* v  .b |  .| b z , u ^ 5.e.1.Y e 6 z  .} } |  . . . . .| } } } | |  .} B  . .N v M  .B } | |  .} N N  . .|  . .}  . .| N N N 7 u Y %.w.7.] F 4 = }  .} }  .} ; ",
"- v | b b | B b - $ u R ,.0.&.Y 2 & ; z b N } | } N N z z } }  . .| } ; N |  .| B N N N } | b N N M N  .N B B N N N B N N N M & 5 F O.7.6./ H 4 ; | b b b  .} ; ",
"b v v b B N ; - - * 7 U ] O./ c 4 j - ; ; ; N ; ; ; - ; ; }  . . .} ; ; ; N  . . .B v N b b ; ; z N N N N N N ; z N z - ; b N = 6 u R X.X.U k z } } ; ; ; } } ; ",
"; v } | } B ; ; v ; h 7 H D s l N N ; - N } | | } z } | | } N } } } } ; ; N B N B B B |  .b ; ; z ; z N N  . .| B N z - N } | } N j f D H 8 z N } } } ; ; } b ; ",
"- = h h g = * g h = & # + o O 6 - - * % * = j = = = = h * * % & & & * & & * * * & & * * * * & & * % & & g j = = h * & & * h - z - & 1 o + , & - = * h g = z b ; ",
"= % > < 2 2 2 , 2 6 , 1 o X o : , , , , > > > : > > > : #   O #     : > :   : , : :   O : : , > : : : > > : : : : > , 2 2 > , 4 4 1 + o @ O 1 , > < < , 4 h ; ; ",
"$ 2 S D J F D D F D F A A A A D J J J P P K U J J J J K D K K K J K K K J J J K J J K K J J J K K K F J J J J P J J J D D D D J F D A Z Z A D D D D P D e 4 & * ",
"2 S E ` ( W W W W W W W ( ^ ( [ [ @.#.$.$.>.#.#.#.#.@.$.$.=.-.-.-.-.-.-.$.$.@.@.#.$.*.=.$.$.$.$.=.=.$.#.#.#.$.$.$.#.@.o.) ) ) ) { ( ~ E T E W W W ~ ( ~ Y u # # ",
"S Y +.>.>.+.+.+.+.+.+.%.,.5.6.6.9.i.Z./././.^.C.C.V.C.^.(._.'.'.'.'.'.`.(.^.V.V.C.^.)._.).^.^.(.`.).(.C.C.C./././.V.i.8.6.6.7.7.7.5.&.O.o.o.O.+.+.%.>.+.[ J < . ",
"Q X.5.0.e.w.0.0.0.6.0.w.c.N.N.N.S.P.[.oX|.|.XXXX.X.X.X+X&X:X>X>X>X>X>X:X%X+X XXX.X%X:X:X&X+X+X%X:X:X%XoXXXXXXXXXXX].J.D.x.N.A.A.A.v.u.w.6.0.0.8.0.e.e.0.>.( P D ",
"o.%.6.r.z.z.v.c.c.c.c.N.A.F.F.F.H.I.}.}.}.}.OX$X*X=X*X=X;X<X1X1X<X<X1X,X;X=X=X$X=X;X,X,X;X-X=X;X<X,X;X=XOXXX}.}.[.].I.F.F.F.F.F.F.F.A.c.u.u.b.c.c.c.u.t.1.@.[ ) ",
"%.&.5.9.i.v.v.v.c.c.N.N.b.A.A.A.A.S.D.D.S.G.L.[.OX@X@X@X@X#X#X#X#X#X#X#X@XoX|.@X@X@X@X#X@X@XOX@X#X#X@XoX[.J.S.S.G.S.S.A.N.A.A.A.A.B.v.v.N.N.v.v.N.c.r.7.5.%.,.,.",
"0.6.0.0.r.z.v.c.c.z.z.i.z.z.z.z.z.z.u.z.z.v.D.].[.{.{.{.[.[.[.[.[.[.[.[.[.[.[.{.[.[.[.[.[.[.[.[.[.{.[.[.P.D.x.x.x.v.c.c.z.z.z.u.i.z.z.z.c.c.c.c.c.r.8.&.5.7.f.m.",
"g.g.t.t.w.9.9.9.9.9.w.e.9.9.9.9.w.0.0.w.r.c.A.G.J.].J.J.H.H.H.H.H.H.H.H.J.].J.J.J.J.H.H.J.J.J.J.J.J.J.J.G.B.x.z.x.z.r.e.w.9.w.9.e.9.9.9.9.e.e.e.e.9.5.5.5.e.K.W.",
"b.n.n.g.w.6.6.5.6.7.6.7.6.7.5.7.6.5.6.0.r.x.B.B.B.B.B.N.B.N.N.v.N.N.N.N.v.v.N.N.N.N.N.N.A.N.N.N.N.N.N.N.N.N.N.N.N.z.e.7.5.4.6.6.6.6.7.6.6.6.6.7.7.6.5.6.7.t.M.R.",
"k.Y.E.R.M.t.t.t.t.y.d.d.d.t.w.8.6.6.6.w.r.z.N.c.u.z.z.z.u.z.z.b.z.z.z.z.z.z.b.z.z.z.z.z.z.z.z.z.z.z.z.z.z.c.c.N.c.z.w.0.6.6.0.0.t.d.d.f.t.t.d.t.t.f.h.M.n.s.a.a.",
"3.T.~.~.R.n.g.k.n.n.n.n.M.b.f.0.6.6.6.0.e.e.y.w.w.w.w.w.w.w.w.w.w.w.w.w.w.w.w.w.w.w.w.w.w.w.w.w.w.w.w.w.e.e.e.r.r.e.0.7.6.6.0.t.b.M.n.n.n.b.h.b.l.M.E.!.T.p.' W ",
";.p.Q.!.R.h.g.g.h.h.h.k.k.h.q.4.,.&.,.,.,.,.,.,.,.,.,.>.,.,.>.1.,.1.>.1.,.>.,.,.>.,.1.>.,.,.,.>.>.,.,.>.1.1.1.1.1.1.,.1.>.&.1.4.s.k.n.k.k.h.h.h.g.l.E.!.U.:.L @ ",
"P ;.p.j.a.<.<.<.2.<.2.2.2.<.:.o.) ) { ) ) ) ) ) ) ) ) ) ) ) ) ) ) ( ) ) ) ) ) ) ) ) ) ) ) ) ) ) ) ) ) ) ) ) ) ) ) ) ) [ ) ) ..+.:.2.2.2.<.2.<.<.<.3.j.j.p.! y O ",
"G P _ ` ! W W E W W W W W W E T T I I P T I I I I I I I I I P P I I I I I I I I I I P I I I I I I I I I I P I P P I I I T I T T E W W E W W W E W Q ` ` ! D t 6 ",
"t y w w @ Z C w w w w w C w C C C C C C C C C C C C C C C C C C C C C C C C C C C C C C C C C C C C C w C C C C C C w Z C C C C w w w w w w w w C w @ C y p d 9 ",
"a 3 r 1 0 r t t 0 0 0 0 0 0 q q y y y y y q q y q q q q 0 0 y y y q q y q q y y y y t y y y y y q y q q y y y y y q t y q q q q r r r r 0 r r r r 0 + r 3 a 9 m ",
"a a d d d d d d x x x x x x d x d a a a p p p d x a p p p p a a p p d d d d d x a d x d d d d d d d x x x x x d d a a a p p p x x d a 3 a p 9 9 a a a x d d 9 h ",
"9 h n m V V m j j V V V V V V j h m j h h l V V m h j l m l h l h h j m j V j V V m m m V V m m j V V V V V V m h j h h h j V V m 7 j n n h 9 n 7 h m m m m j & ",
"v n b b | N M M z N M z B } N V M M M z ; N } | N h ; ; z - - j = - N N M N N N N N V B N z N z z N N z N } B M z N N z M N } } V - - - z j - - - - b b b v - = ",
"- v | | b v v N B N z ; N  .} }  . .| }  .| |  .| ; ; ; - ; ; ; ; v | } B N N } N | |  .} ; z } } } z z N  .} } }  .} } |  .| | | ; ; ; - ; ; ; - b } } } b v v ",
"v b } } v v n v  . . .}  .| B }  . . . . . .|  . .| ; ; ; ; ; b b b b } |  . .|  .| | B ; ; ; ;  . .| |  .| B }  . . . . . .|  . .| ; ; ; ; ; b b b } } | | } b ",
"v v | | b b b b  . . . .| | N  . . . . . .} N |  . .| z b b }  .}  . .} N  . . .} }  .B } N ; N  . . .|  .| }  . . . . . .} N |  . .| N b N }  .| | } } | | } b ",
"v b  . . . . . . .} B N }  . . . .| } | } N ; | |  . . . . . . . . . .} b } | | }  . . . . . .|  .| B b N  . . . .| } | } N z B  . . . . . . . . . . .| } } b ; ",
"; v }  .| b |  .} } N z }  . . .B B N N |  . .; }  . . . . . . . .| b  .| b b b B B }  .| N |  .} } N z }  . . .} } ; } |  .| N N  . . . . . . . .| b | } b ; - ",
"; v }  . .b } |  .} N M B  . .B N B N N |  .| N } |  . . .| }  . .} b  . .b b } B } }  .} z | |  .} N b N | | } } } N N  . .} N }  . . . .} }  . .} }  . .b ; - ",
"v }  .|  .b b }  .B ; v b ; b b N }  . .| z ;  . .}  . . .N b |  . . . . . . . .|  . . .| N N }  .N z z N N z N b |  . .| ; ; |  .}  . . .b b | |  . . . .| } ; ",
"v b | | } b } } } } b v b  .B b } } B B } } }  .} b |  . .} N | |  .| } b  . . .| } | } } N B B } } N z } | } b | } } b B B }  .N N |  . .} N |  . .| b } | | } ",
"- v } } } |  .| } |  .b  . . .| |  .N v b  . .} z N }  . .| | |  .| } ; ;  . .| } B B B B B  .| B | | N |  . .| |  .} b B  . .B N z }  . .| }  . .| | ; ;  .} ; ",
"v v b b |  . . . . . . .b b  .| }  .| B  .} N ; N } }  . .| |  .| } } } |  .| } } B B N }  . . . . . . .b b  .| }  . .} } } B v b } } |  .| |  .| } } }  . .; - ",
"- v b b b | |  . . .| } b b  . . . . .|  .} } ; N | b b } N N  . .| } |  . .} ; B N M z N  .|  . . . .} b b  . . . . .}  .} N ; N | N N } N N  . .| } }  . .; = ",
"v v ; ; v b } }  . .| b } }  . . .} } }  . .| b } | N N b N N |  .|  .| |  .N N } N z ; M B N }  . .| b } }  . . .} B }  . .} N }  .} N v N N |  . .| | |  .; - ",
"v v ; v v v b } |  .| b b }  .b z N v B  . . .} |  . . .} | | } ; b |  . .| |  . .N ; z v M N } |  .| | b } | } z b M B  . . .} }  . . .B |  .N ; b  . . .| } ; ",
"- - - v b v v b b v b b b b b v M v v N z } N N N N } } N | } z ; - } b ; ; b } } b ; ; v v v b ; ; ; ; b b b b b v v v N N N N N B } B N N N N ; ; b b ; ; ; - ",
"* = ; v v b ; - - - - ; v v - v N v b v - - ; N N ; ; ; ; ; ; b - = ; - = = ; ; ; ; ; ; v v v - ; - ; ; ; ; ; ; N v b N - - ; N ; ; ; ; ; ; z N - = ; - = = = * "
};
