/* XPM */
static char *Group_9_resized[] = {
/* columns rows colors chars-per-pixel */
"80 80 237 2 ",
"   c #2D3C19",
".  c #2A382A",
"X  c #2C3030",
"o  c #2B3636",
"O  c #313C3B",
"+  c #31481B",
"@  c #36571B",
"#  c #355C1C",
"$  c #37631B",
"%  c #39641D",
"&  c #3D6D1D",
"*  c #3F711F",
"=  c #2D4628",
"-  c #2F472C",
";  c #344826",
":  c #324C2C",
">  c #345321",
",  c #3A5D23",
"<  c #385925",
"1  c #35542C",
"2  c #395C2C",
"3  c #314532",
"4  c #324A32",
"5  c #35473C",
"6  c #375432",
"7  c #376022",
"8  c #3B6523",
"9  c #3E6B23",
"0  c #3D642C",
"q  c #3F692C",
"w  c #3F7120",
"e  c #3E6531",
"r  c #41751F",
"t  c #43781F",
"y  c #44572A",
"u  c #4B4E31",
"i  c #4D5834",
"p  c #53593A",
"a  c #426D24",
"s  c #43672C",
"d  c #416B2D",
"f  c #427620",
"g  c #467726",
"h  c #457C21",
"j  c #406631",
"k  c #4B6636",
"l  c #416930",
"z  c #536539",
"x  c #2C1D43",
"c  c #2E3646",
"v  c #313543",
"b  c #333848",
"n  c #323A4C",
"m  c #332E50",
"M  c #2E345B",
"N  c #363756",
"B  c #3D3364",
"V  c #373B66",
"C  c #423A47",
"Z  c #7E1576",
"A  c #483B65",
"S  c #523E6C",
"D  c #493873",
"F  c #4D3E7C",
"G  c #354349",
"H  c #344659",
"J  c #3A5750",
"K  c #384569",
"L  c #394A76",
"P  c #3D5677",
"I  c #595842",
"U  c #4D4953",
"Y  c #65654D",
"T  c #6B6756",
"R  c #717459",
"E  c #4B4974",
"W  c #435878",
"Q  c #605562",
"!  c #436663",
"~  c #7A7963",
"^  c #786F7F",
"/  c #9C0E5E",
"(  c #AA135F",
")  c #921774",
"_  c #AA146B",
"`  c #952474",
"'  c #A92B71",
"]  c #CE3D78",
"[  c #BD567D",
"{  c #857C6E",
"}  c #CE537D",
"|  c #478022",
" . c #498423",
".. c #4C8A24",
"X. c #7C8166",
"o. c #84846B",
"O. c #8E8876",
"+. c #503E86",
"@. c #782F88",
"#. c #3E4D82",
"$. c #3C5987",
"%. c #3F6590",
"&. c #4A4F86",
"*. c #56458C",
"=. c #445A84",
"-. c #45548A",
";. c #435C8B",
":. c #5C4996",
">. c #4C5993",
",. c #565599",
"<. c #624D9D",
"1. c #78489B",
"2. c #46638C",
"3. c #486997",
"4. c #456D9C",
"5. c #526997",
"6. c #46729D",
"7. c #537493",
"8. c #75778C",
"9. c #5C57A3",
"0. c #7E4CA4",
"q. c #6756A9",
"w. c #7A56AA",
"e. c #6B5CB2",
"r. c #7457B3",
"t. c #4B75A3",
"y. c #4D7BA8",
"u. c #5676A9",
"i. c #5672AC",
"p. c #6868B5",
"a. c #786DB7",
"s. c #6673BB",
"d. c #6E77C3",
"f. c #7579C6",
"g. c #862784",
"h. c #94338C",
"j. c #863993",
"k. c #B02990",
"l. c #C9348C",
"z. c #944E96",
"x. c #AF5585",
"c. c #824DA2",
"v. c #8757AE",
"b. c #8769B0",
"n. c #8468B6",
"m. c #D94589",
"M. c #E35A91",
"N. c #D96582",
"B. c #EE7C97",
"V. c #F06FA5",
"C. c #865EC3",
"Z. c #9C5DC7",
"A. c #A15ECB",
"S. c #936ECB",
"D. c #A465D6",
"F. c #4E83AF",
"G. c #5583AC",
"H. c #5383B2",
"J. c #548AB6",
"K. c #588AB9",
"L. c #5892BC",
"P. c #6A91AE",
"I. c #6285BB",
"U. c #6696BB",
"Y. c #5D8CC4",
"T. c #5C97C5",
"R. c #678CC7",
"E. c #7984CA",
"W. c #6799C7",
"Q. c #6593CA",
"!. c #758BD1",
"~. c #6B98D3",
"^. c #7691D4",
"/. c #739DDC",
"(. c #5FA0CC",
"). c #66A3C9",
"_. c #75A9C4",
"`. c #6AA6D7",
"'. c #72A1DE",
"]. c #72ABDB",
"[. c #6DB5DE",
"{. c #7BBAD9",
"}. c #779DE1",
"|. c #6DAAE2",
" X c #76A9E6",
".X c #78B5EB",
"XX c #78B8F0",
"oX c #7EC2DF",
"OX c #76C2E8",
"+X c #7CC6F3",
"@X c #989483",
"#X c #A39D8C",
"$X c #AEAA98",
"%X c #B0AB96",
"&X c #B3AC9B",
"*X c #8785BD",
"=X c #ADA8A2",
"-X c #BAB5A6",
";X c #F38997",
":X c #FA8DA6",
">X c #C2BDAF",
",X c #FDA5B2",
"<X c #CBC6B6",
"1X c #D2CCB9",
"2X c #8689D1",
"3X c #8697D8",
"4X c #85BBD9",
"5X c #85A7E7",
"6X c #85B8E9",
"7X c #84BAF4",
"8X c #8FC6D7",
"9X c #85C7E8",
"0X c #94CFE5",
"qX c #97D7EB",
"wX c #86C8F7",
"eX c #8ACCFC",
"rX c #89D4F7",
"tX c #8BD3FE",
"yX c #8ADBFD",
"uX c #94DBF5",
"iX c #93DBFC",
"pX c #A1CDE3",
"aX c #8BE9FF",
"sX c #96E6FC",
"dX c #9BEBFF",
"fX c #9CF4FF",
"gX c #A8E9F8",
"hX c #B2EBF0",
"jX c #A3F2FF",
"kX c #A6F9FF",
"lX c #B9F6FC",
"zX c #D8D5C7",
"xX c #E1DED2",
"cX c #E6E3D8",
"vX c #CAF5F9",
"bX c #C6FAFD",
"nX c #F4F2E9",
/* pixels */
"@ $ * & & r * r r & & r r r t * * * t * * * * | t * t t * * & * * * t * * h t & $ & r & & * * r r & & r * t t t * * t * * & * t h r r f r & & r & r f * r r & @ ",
"$ & * r r h * * * * * h t t t * * w t * * * * h * * * * * w h h h t * * * t h h t f r r r r * * * * r t h * * * * t t * * * * t r & r & & f h h h h r & r h r & ",
"t t r t | h r r r r t | h h h f w h w * * * | * w * * * w  .......| * * * h ...... .f h | h r * * t t | | h t * h w * * * * | w f f r r f | ......| r & r h t r ",
"r t  ... .h r r t r t |  ....... . .w * t .... .| |  . . .| |  . . . .t t | | | | |  . . .| r r t r r |  .........| w * |  ..... .h h  .| h  . . . .| h t | t r ",
"* t | |  ... .| | h h | ...... . ...| | ................ .h h | h h ..| h h |  .| | | |  ...| |  .t h | ...... . ... . ........... ..... .h h g h h  . .h h r r ",
"r r r r | ...... . . .| .. .h h h ...................... .h w h w w  .....h | ..| h f f | ........ .| | ....| h | ...................... .h h h & r  ... .h h r ",
"& & r t t h h h h h w h h h  ..... .h h h h |  . ..... . .t w h & * h ....h h f h h f h | h | h t h * h h g  ..... .| * w |  . . ..... . .h h h r r h ....h & % ",
"& & r | | r r r * * w w & * h  . .| h h h w w h h ........|  .| h h  ... .h * * h h r h h r w * * * & % $ $ 9 w w w | w | h w * h ........h h  .h r | ....h % % ",
"* * * | | * * * * * * * * * * w  .h  .....| h & t  .............| | .... .w f | h h w | h & * * w & 7 > = = = > 7 9  .....| w w h  ............. . .....| r & r ",
"& * * | | w * * * w * * w h w  . .| ...... .h | .......... . . .h f h |  .|  . .h g t h h h * * & 7 1 G H K H K H 6 g ......w  ....... . . . . .h f h |  .h h r ",
"* * w  . .| w * w h h h h  ....... ....... . ......... .| t  . .w & & h .. .....| h * |  .| f & % 2 ! 7.u.u.7.u.y.! l w | ............ .h h  . .f & & h ..| r r ",
"t * * ......| w | ...... . .......| ....t | ..|  .....| r  .....h & w  . .f h  ...| * ......h & 7 J 7.4XpXpXpXqX8XG.! 0 7 w ..|  ..... .h h ....f & r  . .h r r ",
"* * *  .......| * h  ...| | ..| h  ..... ..... . ........... ...| h  .....h h  .| h h h  ...f e J 7.U.9XgXhXvXhX9XU.$.G 0 w .... ....... . .....h  . .....h r r ",
"& * t |  ..... .* w h ..| h  .| h ..| h ........ . ........... . ....... . . . .h h h h h f e ! 6.W.U.P.8XhXhXpXP.t.$.H 0 h .. . . ........... . . ..... .| h r ",
"* t  . ..... . ...| h ..| | | ....| r * t ....t t t  . .......| h h | | h  ..... .| | ..g 0 J 7.{.8XP.E 7.8X0XP.W B M H 0 h ..w f h  . ....... .h h h  .|  .h r ",
"* |  . ..... ....... .|  . . ... .h * * r h t * * t | | * | |  .| |  . . .......|  ...| 9 1 K K.rXsX_.W P.9XqX_.5.&.L H 1 *  .* f h h h h h  . . .h  . . ...| h ",
"* t  .t t .. . . ... .r h  . .....h r r r r r r * | t * t |  ........... .......|  ...t & 6 L H.9XsX0X_.{.9XeX6XW.i.=.H > & w w h h h h h h | .......... ...h t ",
"t t r * t | h |  .r r r r r  ..... .t r a r  . ... ...................h t  .......h h * % 7 G W G.6XuXgXuXwX.X7X6XI.P 5 8 h ...... . . ...............h h h | t ",
"r t  .t r r t h h a t t r r h  .....h @ + a t ..........|  ... .h h  .t r t  ... .| | w & 8 2 G E P.9XsXrX].Y.Y.Q.7.J 8 w | .......... .| |  ...h h | t r h t t ",
"* t ..| h h h h h h h  .r r h  ...h s y u i a  ....... .*  . . .t r t | t r t .. . ...| h h a @ . W U.9X XY.$.$.W J f  .r w f |  .....| h h |  .t r h | h r r t ",
"h h |  ..... .| t t t r a g ....t # p ~ O.o.z a * ...................... .t  ..... . ..... . .# . N 5.Q.Y.>.M c 6 q | ..& > ; > % |  ................... .h h r ",
"f h  ..... . . ... .t t t h ..h & y ~ -XzX&XR y $  .| |  . . ... . .t  .| t  . .| h h |  . ...& . c L %.;.K c - 0 w h w 6 5 b o 1 9 h |  .|  . ... . ..... .t t ",
"* t .. .|  . ...............h g k T =XnXnX1Xo.y @ * | w * w h h r r % a a a a r % 9 9 8 a r | f > G M K V n - w | * 8 6 G K E V G 1 9 f w h h h h r r  ... .h r ",
"t t h  . ... .h  .........t @ z o.&XnXnXnX>XR + @ * h h h h * * & ,   . . . . . . . . . = , h h 9 1 5 M c 5 9 w w % 4 G W 3.t.2.K n : $ f f f h r r h |  . .r r ",
"r t |  . .| | h h h h h  .t @ p O.1XnXnXxX-Xo.p @ a r t h & $ # @ : 5 n M c n n n n n N n : 8 9 * # = o 3 0 | | w > v K 5.H.J.6.$.K o + r r w * * r | | | | t * ",
"* h ....| * w |  .| h w | h # k ~ &X>X>X&X&X&Xo.z @ % a % > = + . G K 2.=.=.=.=.=.2.=.;.L n - > , > + = 8 h |  .* = n W u.L.L.t.;.E v . & & * * * r  . .| | t r ",
"r h  .| t & * t .... . ...| r g z Y T T R #X1X>XO.y @ % > 3 c o n K 6.G.J.H.y.u.G.G.G.F.3.K n v b 3 1 & |  .h ..h > v K 2.t.6.%.L V o ; % w f h t h t  . . .| t ",
"r h  .| h h * t ...... . . .| | t y + ; i o.-X1X&X{ i + = H V V L 3.L.`.`.(.T.L.J.J.F.F.6.2.K K K N 5 0 h | | .. .8 4 G L =.;.L M n : # f h |  . . . .|  . .t r ",
"* t ........ .....| h h |  .....t a % % % p { %X<X%XR 3 O P 7.2.6.J.`.OXOX[.(.L.F.F.J.F.y.4.2.;.3.P H o , g  ... .h 8 : G K E K n : a |  .............| t | t r ",
"& t | .. .h .... .| | w | .... .t t r r t a y { #X%X^ E L 6.J.L.).{.rXyXyX+X[.(.U.L.).).U.J.t.6.t.3.W K 5 < h  . .| w 8 : v c o : f  ....... ..... .| |  .t r & ",
"* t | ..| t |  . .| h w |  .| h t t  .t ..t % i T 8.8.5.4.F.(.{.qXhXhXkXsXaX+XoX{.{.oXoXoX).F.6.t.t.4.=.K 5 , a h h h f $ ; . ; a | ......| | .... .h  ...t r & ",
"r | .... .t t  ...| w h h f f h  . ..... .t a @ 6 U >.y.J.J.(.0XvXvXbXlXjXdXaXsXsXsXsXfXqX{.G.3.3.6.t.4.=.H o > w | .. .h & $ h  .t  .....t t  . ...........t t ",
"* t  . .| t | | | | h w h  .h |  . .h h h f 8 - c K %.F.(.).{.gXbXbXbXlXjXdXdXjXjXjXjXjXiX9X~.G.6.3.6.t.%.P M o < w t h  .|  . .r @ @ r  .t t  ..... .t t ..| t ",
"* * | | | | .. .|  .| h  ..... . . .h h f 8 : n K $.4.J.).oXuXkXkXlXkXjXjXdXdXdXjXjXfXsXiXeX.X).H.4.6.6.4.$.K M 5 < % r t  . .r s > y a h  . . ... .| t t ..| r ",
"* t h |  ...............h h .. . . . . .f ; X V $.y.F.W.oXfXfXfXfXfXaXsXdXdXdXjXdXsXiXtXeXtXtXwX`.H.6.2.%.$.$.V M . < % a a & @ l ~ X.X.a t  . . .| t  . ...t * ",
"* * * * h .. . .......h h h ........ . .h > X V $.y.L.].rXfXkXkXfXfXdXsXdXdXdXdXiXiXtXeXtXyXyXtXwX).u.2.$.$.L V m o ; y + + + + X.$X-X@Xz y a  .....t  . ...r $ ",
"* * * * w  .|  ..... .t h  . ... .h h h w 1 o K 2.H.`.9XiXuXqX0XqXsXdXdXdXdXdXsXiXtXeX7X7X6X7XwXeX.XQ.2.$.L L M x C I Y Y I I Y O.zXzX#Xp @ &  ..... . . ...t % ",
"t * * r w * t  ... . .| h |  .h g h r # 1 5 H ;.G.`.+XyX0X3Xb.b.*X4XyXaXsXiXiXiXsXyX7X}.a.w.r.S.7XXX|.i.4.$.K b u { O.&X&X-X-X>X<X<XO.R y a t t t t ...... .t r ",
"t r t t | h h | | h | | | | | h h h % ; G H =.H.].wXyXwX3Xv.g.) h.n.6XrXtXeXeXeXtXeX5Xn.j.) g.c.2X X.X~.y.4.K n C { &X1XzXcXcXcX1X#XY y a t  .| t t  . .t t t t ",
"* t | .. ... .h h h h  . . .h  ... .% 3 N L 3.W.6XeXwX3Xb.' _ ( k.z.S.5X7XwXwXwXwX5Xn.z.' ( _ h.c.a./. XQ.4.L V Q { %X1X1XzXcXcX<X#XY i a g | ..t r  .t r t r r ",
"$ *  .| |  . . . .h h  ... ... . . .% 3 N L 3.W.wX7X2Xv.x.} N.m.l.k.j.n.3XrXyXwX/.n.z.x.} N.m.k.h.1.d./.Y.4.#.+.1.{ { { O.{ O.#X%X<X&XO.z % & t  . . .h | ..t * ",
"& r h h h | h h h h h  .| | | h h  .# = n V %.T.XX7XC.g.' N.;X:XM.k.) j.E.rXaX+XS.@.' } ;X:XV.m._ g.r.!.Y.4.$.9.w.F U u p p I I O.<X<XO.p @ a  ... .h h h ..| r ",
"t t r h h h r * * r h | | h h f h h @ . n V $.L.XX5X0.) ( M.,X,XB.] / g.a.rXaXrXf.Z / } V.,X:XM._ ) <.!.Y.4.#.9.r.<.C X   + + + Y O.#Xo.i a r  ...| r r r h t t ",
"* t  .....| r r h r r |  ..... . .h , . m M L J. X5Xf.g._ l.V.:XB.} ` j.E.wXaXwXf.j.) l.M.:X;XN.' g.e.~.L.4.#.9.q.*.B X @ r h t s p p z g h r  . . .| t r h r r ",
"* f | |  ...| | | h h | ...... . . .8 = c M K y.|.XXE.v.k.k.l.] } x.z.S.5XrXtX+X^.v.j.k.l.l.N.[ h.v.f./.Y.i.,.9.q.*.M . a t ....a y @ a h h h h h h  .| h | h r ",
"r r r f | ...... .| |  ... .h h |  .9 : m M L 6.~.XX X2X0.h._ / ' z.2X7XeXeX7X.X'.!.n.j._ ( _ h.v.2X X XQ.s.9.e.e.*.N X a t ....h f a t  .h h f r f  ... .h r r ",
"& & r h h h h h h h r h h h  . ... .7 . M V $.4.s.Q.|. Xf.0.@.) 1.a.6XeXeXXX.X'.].|.!.w.@.) @.0.!. X`.Q.s.p.r.r.r.q.N X + r  . . . . . . .h h h & r h .. .h r % ",
"& * f | h r r f w * * * 9 f h  ...| # . M F ,.9.5.y.T.|./.d.q.q.p.!..XXXXX X'./.|.|.'.R.a.q.q.d.}.|.T.y.9.e.a.D.D.0.A X @ r t t h ...... .h h h h h  .....r % $ ",
"& r r t h r * * * * r * w * & h | | % - n E <.9.>.%.i.Q.|.}././././.'.'. X}./. X'././././././.|. XR.y.$.-.9.C.D.D.0.A . 7 w w * h  ............... . ... .f & & ",
"& & t t h t * * & * * & f h w | ..| * 0 G A +.*.:.,.i.y.Y.~. XXX.X|././.}. X.X5X X}./. X.XXX|.~.Y.t.;.-.q.C.A.Z.c.E U 1 w w  ......... . . . . .h r h  . .| h r ",
"r r t |  .| r r f h h h h  . ..... .| q 6 G N F :.9.>.>.y.~. X.X|.'.'././././.'./.'.|.|. X X|.~.y.-.>.9.n.D.A.1.S C 6 d w  . ......... .h h  . .r & a t .. .h r ",
"r r r ......h h | ...... . ....... . .g j 6 5 C +.:.*.>.i.~.|.~.Q.Q.'.~.I.u.u.i.R.~./.Q.Q.~.'.Y.t.,.q.C.D.Z.c.S b 4 q g w w ..|  ..... .r  .....f & r  . .r r r ",
"& r t |  .....| w h  ...| h .. .h  .| g d 0 6 5 N D +.9.d.}.~.J.t.H./.R.5.V N K 5.Q./.G.t.i.~.~.p.e.C.D.A.c.A b 3 0 q w  . ... . .......| ......| h  .....h r r ",
"& r t |  ..... .* w h ..| h ..h h ..h 9 j l d 1 O m D <.d.!.s.4.3.i.^.I.>.m x m >.I.!.i.3.t.~.!.s.r.C.A.c.S o - 2 q 0 0 | ....|  . ............. . ..... .| r r ",
"& t |  ..... . ...| h ..| | | ....| & , 2 l d 2 : 5 N F &.>.>.,.9.p.f.d.:.+.D F 9.d.f.p.9.s.f.a.9.*.+.1.S n 4 0 q e 2 2 w ....w r h  . .......| h h | | |  .h h ",
"r t  . ..... . ..... .|  . . ... .h & , 2 0 0 2 < : G n m N U &.q.e.e.q.q.<.:.<.q.q.e.9.q.e.e.,.D N m C C u q d 0 e < 7 9 w  .w r h h h h h  . . .|  . . ...| h ",
"& h  .h h .. .| ....| h h  .......h r 9 8 < 2 0 0 0 : O X X v S *.:.+.*.:.:.:.:.:.*.+.*.:.:.*.D n o X . - 2 d d q 0 8 9 9 w w h h h h h h h | ..............| t ",
"f h f w w | h h | h w w w w  ..... .h h f a q q 0 0 e 2 2 2 5 G B B B B B B V D B B B B B A B N 5 - = : 1 0 l e q q w g h  ....... . .................t t | | t ",
"* h h f f h h h h w h h * * | ........| f a 9 l l e l q 0 q 2 5 v c v v v v v b v v b v c v v O 6 2 0 2 2 1 0 q q g | | h |  ......... .h |  ...| t | t * t t t ",
"* h ..| h h h h w h h | w * | .... . . .h h f a d j l q 8 0 0 6 4 - 3 4 3 3 : 4 : 4 4 4 . 3 O : 1 7 q q 0 6 0 q h | .. .h h | ........ .h h  . .t * | | t * * t ",
"t h | ...... .| h h * * * t .. .| |  ....... .h 9 0 q d d d q d e q q q 0 2 0 0 e 0 0 0 q q 0 e e 0 < < < 0 q f h h  .........| |  . .....................| t t ",
"r h  ..... . ..... .| h h | ....| h h .. . .h | g a a 9 8 0 e 0 l d l l q q q l l q 0 d d q q e e e 0 9 q w h |  .h |  . .| |  . .|  .|  . . . . . . ..... .t t ",
"r | .. .| |  ...................| f h h h f f  . .f h 9 8 0 2 e 2 2 2 0 l q q l e q q e q e q e l q w |  . .| .. .* h | h * w ....h h f f f h h t t t  ...| | t ",
"r t t | ....| h |  ......... .| h h f f f f  ...| * r t w 8 2 , , 8 9 q 9 9 q 9 9 q 9 9 g d 9 q q q w  ..... .| h h h w w h  ...| f f h h h t r r t t | | | t * ",
"r t h  . .| h h h | h h | .. .h h  .h g h |  ...| w * w h 9 % 9 % 8 h f f f f f f g f g w w w w w w g w .... .| h  .h h h | ....| w w h h w w w * *  . .| | t & ",
"* t ....| * h |  .| h w |  . . . ... . ......... .h * * * * * * * f | | | h  . .h  . ...| * h | | | g w | .. .|  ... . .........| h w * & * w * * *  . .| | | * ",
"* |  .| r & & h ...... ... .|  ............. ..... .w * * * w | h h | |  ....... . . .| * * * * ......|  ...|  ............. . ... .f & * * h h t t | | |  .| * ",
"r t  . .h h * h .... . . . . . ...........| h  .....| h h * | .. . .| |  . . ... . . . .| | * h .......... .|  ... .......| h  .....| h * | |  ...| ..| |  .| t ",
"* | .......... ...| h h | ........ . . .| h *  . ..................... .h h  . . . ........... ...| h t | ........ . . .| h t | ......................| | | * * ",
"* * | .. .h  ... .| h w | ......| h h h  ... .h h ................ .h | | h t t | | | .. .g  ...|  .h h | .... .| | t h  ... .h h ..................t | | | * & ",
"* *  ... .* |  ...| h r h  . .| h | h h .... .h | ........ . .....| h ....h h h | h  ...| * |  . .| h w | ....| h | | h .. .| t | ........ .| ..| | t ....t * & ",
"* | .... .| t | ..| * * h h t t h  .....| * *  ...h ......| *  . ......... ............. .| h  ...| * h w w h w h | ....| t r  . .| ......| *  .............| * ",
"* t  . .| h | | | | t r h  .h h |  .| | h |  . .| *  .....h h  ..... .| t ...... . . . .| h | | | | h * |  .| t  . .| h | | |  .| w ......| t  ..... .t | ..| | ",
"* t |  .|  ...| h .. .t | .... . ...t * | .... .* h | .... . .......t * * ......h h | | | |  . .|  . .h  ..... . . .| * | ....| * h  ..... . ..... . .* * ..| * ",
"* t t t  ...............t h .. . .....|  .| | * h  .h ...... ... .| t | ....| | | | h h  ...............t t .. . .....| | | | * * | |  ..... ... .| | | ....* & ",
"* * * t t  . ......... .h h ........ .| .. .h *  . .* | | h h  .....| | ....t * | h r t h  . .........| t t ........ . . . .h r |  .h t  .w | .... .| | ....* $ ",
"* * * * t | | | ....| t t  ..... ... . ..... .h  ... .* * * |  ..... . . ...h h | h r * h h h | .... .* |  ..... . .| | ....| h  ...| h * t |  ..... .......* & ",
"t * * * * * t |  . . .| t |  .| * * * t .... . . ....... ... .| * t ...... . .....h * r * h h |  ... . .| |  .| w t f h .... . .| ......| .. .h * * ......| | * ",
"* * * * t t t t t * t t t t t t w t t h h h *  .*  . .h h  .h h & & h t * * t | h f * r * w * t * * * * * t t t t t t h h h h h t |  .| h h h h * * t t * * * * ",
"$ $ * * t * * & & & & * * * * * h t t * & * * h * * * * * * * * & & * & $ & * * r & * * t t * * * & * * * * * * h * h * & & * h * * * * * * w h * % * & $ $ $ $ "
};
