/* XPM */
static char *Group_9_1__resized[] = {
/* columns rows colors chars-per-pixel */
"80 80 229 2 ",
"   c #231837",
".  c #273522",
"X  c #2B3B29",
"o  c #292A3A",
"O  c #2C3236",
"+  c #2C3A34",
"@  c #2C343A",
"#  c #33373A",
"$  c #304C1B",
"%  c #38571D",
"&  c #355C1D",
"*  c #37631B",
"=  c #39651C",
"-  c #3D6D1D",
";  c #3F711F",
":  c #2E4324",
">  c #2E4A2A",
",  c #334A28",
"<  c #335325",
"1  c #365C23",
"2  c #3C5C23",
"3  c #395827",
"4  c #33532C",
"5  c #395C2B",
"6  c #2E4232",
"7  c #334A34",
"8  c #334739",
"9  c #355332",
"0  c #385433",
"q  c #375638",
"w  c #3B6423",
"e  c #3E6C22",
"r  c #3D632C",
"t  c #3F692B",
"y  c #3F7120",
"u  c #3E6533",
"i  c #41751F",
"p  c #43781F",
"a  c #444B2B",
"s  c #425727",
"d  c #4C5336",
"f  c #575A3D",
"g  c #406E25",
"h  c #436528",
"j  c #416B2C",
"k  c #417520",
"l  c #457C21",
"z  c #457628",
"x  c #466831",
"c  c #55623C",
"v  c #2D2947",
"b  c #312C4E",
"n  c #2E3547",
"m  c #323945",
"M  c #323748",
"N  c #2E3956",
"B  c #353859",
"V  c #383B63",
"C  c #463A6A",
"Z  c #483C75",
"A  c #523573",
"S  c #354849",
"D  c #354E4B",
"F  c #344556",
"G  c #3B5758",
"H  c #384569",
"J  c #3D5766",
"K  c #384975",
"L  c #3C4C75",
"P  c #3A527A",
"I  c #53514A",
"U  c #454654",
"Y  c #5D6745",
"T  c #616949",
"R  c #6A6F52",
"E  c #73725D",
"W  c #56496E",
"Q  c #405368",
"!  c #434A7A",
"~  c #43547A",
"^  c #64556B",
"/  c #49626D",
"(  c #786E6A",
")  c #7B7A64",
"_  c #A00A5D",
"`  c #8C1473",
"'  c #A91267",
"]  c #AD176F",
"[  c #942779",
"{  c #AC2F71",
"}  c #817D71",
"|  c #C8597C",
" . c #D0517C",
".. c #478022",
"X. c #498423",
"o. c #4C8A24",
"O. c #508F25",
"+. c #8C8874",
"@. c #8E8B75",
"#. c #7D3892",
"$. c #394B81",
"%. c #3B5885",
"&. c #3E638F",
"*. c #554587",
"=. c #445A87",
"-. c #4D5388",
";. c #594A95",
":. c #4A5996",
">. c #555899",
",. c #6D479A",
"<. c #704D9B",
"1. c #46648B",
"2. c #536A8E",
"3. c #456592",
"4. c #456996",
"5. c #456C99",
"6. c #4B6998",
"7. c #49719D",
"8. c #557496",
"9. c #595DA2",
"0. c #694CA1",
"q. c #6456A9",
"w. c #7755AD",
"e. c #586DA8",
"r. c #4B75A2",
"t. c #4C7AA6",
"y. c #4A7BA9",
"u. c #567AA8",
"i. c #5B7CB3",
"p. c #6D66B9",
"a. c #796AB8",
"s. c #6978BB",
"d. c #7272C5",
"f. c #7478C7",
"g. c #832682",
"h. c #92328E",
"j. c #863894",
"k. c #B1278A",
"l. c #CB338A",
"z. c #87439A",
"x. c #935397",
"c. c #A85087",
"v. c #8558AA",
"b. c #8C56B9",
"n. c #8A69B2",
"m. c #DC4B8E",
"M. c #DD5E82",
"N. c #E9748F",
"B. c #F070A4",
"V. c #8B5BC2",
"C. c #8D6FCC",
"Z. c #A363D3",
"A. c #4E81AD",
"S. c #5583AB",
"D. c #4D82B0",
"F. c #5787B6",
"G. c #5B93BC",
"H. c #6388BA",
"J. c #6996B2",
"K. c #6C9BB3",
"L. c #5C8EC1",
"P. c #5C99C4",
"I. c #6789C6",
"U. c #7185CC",
"Y. c #6596C8",
"T. c #6A8ED0",
"R. c #758BD3",
"E. c #6A9AD3",
"W. c #7395D7",
"Q. c #729CDB",
"!. c #6CA8CB",
"~. c #74A6C8",
"^. c #6BA6DB",
"/. c #72A1DE",
"(. c #73A9D8",
"). c #79B7D7",
"_. c #789DE2",
"`. c #6EAAE3",
"'. c #74A4E2",
"]. c #72ABE5",
"[. c #7AA8E5",
"{. c #6CB8E7",
"}. c #77B5E9",
"|. c #7EB6F1",
" X c #7DC1DD",
".X c #7DC7ED",
"XX c #9B9685",
"oX c #A19B89",
"OX c #ACA696",
"+X c #B3AC95",
"@X c #8784BB",
"#X c #B5AEA1",
"$X c #BAB6A7",
"%X c #F58B9C",
"&X c #FB91A7",
"*X c #C2BCAC",
"=X c #FDA3B1",
"-X c #CCC6B5",
";X c #868DD2",
":X c #89AAD3",
">X c #81BCD8",
",X c #889CE3",
"<X c #86A8E8",
"1X c #86B7E9",
"2X c #85BCF6",
"3X c #8CC8DB",
"4X c #88C6E7",
"5X c #8DD2EF",
"6X c #93D8EB",
"7X c #86C7F7",
"8X c #8BCDFC",
"9X c #88D7FB",
"0X c #8CD3FD",
"qX c #92DBF9",
"wX c #97E2EF",
"eX c #8AE5FD",
"rX c #97E6F9",
"tX c #9BECFE",
"yX c #9BF6FF",
"uX c #ABE5ED",
"iX c #A4EBFA",
"pX c #B2EAF0",
"aX c #A6F6FE",
"sX c #BAFBFE",
"dX c #D1CCC0",
"fX c #D9D5C6",
"gX c #E6E4D9",
"hX c #C7FAFC",
"jX c #F3F2EC",
/* pixels */
"$ * ; ; ; i ; i i - - i p p p ; ; p p p - - ; l p p p i - - - ; ; ; p ; ; l p - = - ; ; ; ; ; ; ; ; ; ; k k k i ; i p ; ; - ; p k i p i i - - - ; i p ; i p = & ",
"= ; ; ; i k ; ; ; ; ; p k p p ; ; k ; ; ; ; p p ; ; ; ; ; k l l l l ; ; ; p l l y ; ; ; ; p ; ; ; ; ; ..l k p i ; p ; ; ; ; ; p k ; ; ; - k l l l k i ; i l i - ",
"p p p p l l - i i i p ....k l i y k y - ; p l y y y ; ; y ..o.o.o...i ; ; l o.o.o.X.; l X.p ; ; ; ; ; ..l l k k ; k ; ; ; y l k k y - ; k ..o.o.o...i - i l p p ",
"i p X.o.o...i i p i p ..X.o.o.o.o...k ; l X.o.X.X.......o.l ..o.X.X...k p ..........o.o.o...; p ..p ; ..l l l k k y - - l X.o.X.............X.o.o.X...k p ..p - ",
"; p ....X.o.......l l X.o.o.o.o.o.o.l ..o.o.o.o.o.o.o.o.X.l l ..l l o...l ..X.X.....X.X.X.o...........l e r q 5 4 4 < - X.o.O.o...o.o.o.o.l l l l l o...l l l i ",
"; i i i p O.O.o.X.X...X.o.X.l l l o.o.o.o.o.o.o.o.o.o.o.X.l l k y y X.o.o.k ..o.X...; ; ..O.o.o.X.....y 9 S N N F N D t ..o.o.o.o.o.o.o.l l l l - i ..o.o.l i i ",
"- - i p ..p ..p l k k k k l X.X.X.o.l l l l l X.X.o.o.X.X.p p k - ; ..o.o.l p k ..; ; y y ....l p ; - 9 J 2.S.u.t.i.2.G 5 - l X.o.o.o.o.X.l i l - - l o.o.l - = ",
"- ; i ..p p p i ; ; ; y ; ; l X.o...l k l k l i l o.o.o.o.......l k ..o.o.k ; i l ..p ....; y y ; * 9 J S.).4X>X).4X!.8.D 4 e y l X.o.o.o.....X.l l o.o.o.k - * ",
"; ; ; ....; ; ; ; y ; ; ; ; ; y ....X.o.o.l k i p ..o.o.o.O.O.o.X...o.o...y y k l l k ..y ; ; y - 4 G u.>XwXaXpXaXaX6X~.1.D w * y o.o.o.o.o.o.o.X.X.o.o...i - - ",
"- ; ; ....y ; ; ; ; ; ; k l y X.X...o.o.o.o.l X.o.o.o.o.o.....X.l i l ..o...o.o.l k i l l y - & 9 U S. XrXaXsXpXsXsXaXwX~.2.G r y X.o.o.X...X.X.k k l X.o.l l i ",
"; ; ; X.X...y ; k l l p ....o.o.o.X.o.o.o.X.X.o.o.o.O.o.p p X.X.; - e ..o.X.o.o...l i ..X...* > S 7.).rXwXuXhXhXhXpXwXwX6X~.4.D w ..o.o.k l X.X.k - - l o...l p ",
"p ; ; o.O.o...y X.o.o.o.X.X.o.o.o.l o.o.l ..X.l ..o.O.p p X.o.o.k - ; X.o.k k o.o.l i o.O.X.w 8 H Y.5XwX3X~.3XpXuX:X>X3XwX6XF.F 7 X.o.l i X.o.o.k - i ..o.k i i ",
"; ; ; ..X.o.o...; l X.O...l o.X.l o.o.o.X.o.o.X.o.o.O.o.X.o.o.o.....o.o.o.l l X...k k ..o.o.y q H I..X4XS.2.J.3X3X8.2.K.wX4XF.F 4 ..o.o.X.o.o.o.X.l o.o.o.l i - ",
"- ; p ..o.o.O...; y l o...l o.l l o.l l o.o.O...l o.o.o.o.o.o.o.o.o.o.o.X.l X.X.l l l l X.X.y q H I.|.}.8./ J.3X3X8./ J.6X4XH.F 4 l o.o.o.o.o.o.o.X.o.o.o.l p i ",
"; p ..o.X.o.X.o.o...l X.X.....X.o.l k - k o.o.k i l l o.X.o.o...k l ..l l ..o.o.o.....o.o.o.w 8 K I.2X7X~.K. XwXuX~.~.).qX1XH.F > y ..o.X.o.o.l l l l l l o.l l ",
"; ..o...o.o.X.X.o.o.X...X.X.X.o.o.k i i k l l i i l l l p ..X.X.X.....o.o.o.o.o...X.o...o.o.; 4 F e.Q.8X6X6X6XwXwX6X6X5X4XT.3.S < i l z l l X.o.X.l X.o.o.o.l p ",
"; p X.p p o.X.X.o.o.l l l l o.o.o.p p p i p p p l l l l k l ..o.o.o.o.o.o.o.o.o.l o...k l o.k w q J i.}.rXyX5X>X).qXtX5XY.6.Q 0 w l l p k l X.o.o.o.o.X.o.o.l p ",
"p p p ; p l l ..l l k i g l p o.o.o.X.p p X.X.o.X.o.X.o.o.o.o.o.o.o.o.l i o.o.o.o.l l i k l l l e q L H.1X7X(.u.u.>X7X/.6.G u z X.X.X.o.o.o.o.o.o.o.o.p k ....p ",
"; p X.p p k l l l k i l i i p o.o.o.X.X.l l X.o.o.o.o.X...X.X.o.l l X.l i k X.o.o.l l l k k k l y w q / H.E.i.:.>.].7XQ.=.D e X...e p l ..X.o.X...p X.p i k p p ",
"; p o...l k l p i l l X.i g X.o.o.X.X.X.p l l o.o.o.o.X.p l X.X.p i l l k i p o.l o.o.l l l l l y ; w D =.6.&.$.6.[.2XQ.P 8 i l t , 2 g i p X.X.p i ....l i i p ",
"k l ..o.o.o.....l p i i i p o.o.X.p p p l l o.X...X.X.o.o.o.o.o.o.o.o.o.o.l X.o.O.X.l o.o.o.l l X.; - w 8 F N H 1.E.].G.J q w 2 7 B 8 r X.o.o.o.o.o.o.O.o.l p p ",
"p l X.o.o.o.X.o.o.l l p p l o.o.X.i i % 2 p p X.X.......X.X.X.X.o.o.X.o.o.X.X.o.o.X.X.o.o.X.o.o.o.o...; w > 5 D / u.i.2.D 4 , 8 H ~ H q 5 k l X.o.X...O.O.l p p ",
"; p o.X.X...X.o.O.O.O.o.o.o.o.o.X.i s a s 2 p o.o.l l k ; k p p g i i l o.l X.o.X.X.o.X.l X...o.o.o.o.o...y ..y j Q J G r $ X F =.3.~ F X & ; l p i i ..o.l p p ",
"p p l ..o.o...l l l o.o.o.o.o.p g % T +.} Y h p ..i k l l k = & $ $ % g l X.....o.o.l l o.O...l ..X.o.o.X.o.X.l e 9 7 4 e = < F P =.L F : & y k i i l ....X.l i ",
"i p ..X.X.X.l l ....l l X.O.l i % f @.-X*X} d h i i i i y ; 1 6 @ # 6 1 k l ....p ..p l X.p l p k l l l ..o.o...k e w - k l e q D H F 7 1 = - k ; i X.......p ; ",
"; p o.o.l ; y ......k y l X.l s f +.dXjXgXoXd % i i i i - 1 6 N H V n > 2 y k y g i p p g = = - y k ; ; ..o.....X.o.X...o.o...y 7 @ : & i i ; i ; i ..X.....p ; ",
"i l X...p ; ; p o.o.o.X.o.p 3 T XXfXjXjXfX@.a % p X.i % $ 8 G 1.3.=.N n X : : : X : : : X X X X : w k o.o.X.l X.o.o.o.o.o.o.X.l e 1 & = - i k l p l p X.X.X...i ",
"i l X.....p ; p o.o.o.X.o.i , E #XjXjXjX-X@.f h i X.p h : m ! 7.u.4.K N n m m M M M M n # n n v M 7 w z ..o.l o.o.o.o.o.o...l ..l l k i k l l X.X.X.X.....o...p ",
"i l o.o.o.o.o.X.o...l k X.k s R OXdX-X-X#XOX@.T h p o.g : M ! 7.y.y.&.%.~ ~ ~ ~ ~ ~ ~ L L L ~ ! ! F > & k o.o.o.o.X.X.o...l y ..o.o.X.o.X.o.o.o.o.o.o...l ..p i ",
"- i ..o.X.p X.o.X.....k X.o.X.x T ) ( E @.*X-X@.Y h l p , M K %.5.A.D.D.t.r.u.u.S.t.7.4.:.3.4.6.4.~ F X w X.o.o...X.y y X.o.X.l l o.o.o.o.o.o.o.o.X.......l ; = ",
"; i X.o...p ..X.o...k k ..X.X.- 3 a a a } +X-X*X@.h h 2 7 F L $.&.F.P.P.P.P.F.F.G.F.D.t.7.7.t.t.r.3.L M 7 w ..p l ..l ..o.o...l ..o.o.o.o.....o.o.X.l X.o.l ; - ",
"i ..o.o.X...p ..o.l y k p p p ; = % = h h } +X-X+X+.d X F =.6.&.D.P.{..X{.!.P.D.D.D.D.y.t.t.r.r.r.r.3.L M 6 & ; p X.X.o...k y X.o...o.o.o.p p X.X.o.o.o.o.X.l p ",
"; p X.X.X.p ..........; l X.l l p p i i g x R oX+XXX/ F %.y.J.J.!..X9X9X9X{.!.G.G.P.Y.G.G.A.5.5.7.t.7.4.K N > 1 k ..l l l l X.X.X.p o.o.o.p p o.o.o.X.p p o...p ",
"; ; ........X.o.p o.X.; ..o.o.X.X.X.p p i = s R +.n.2.&.r.G.~.>X6XrXiXiXeX5X).).).). X X!.S.4.3.7.t.t.5.%.K n 7 w k l p X.o.o.p p p X.o.o.X.X.o.o.X.p p i o...i ",
"; ; ..l ..o.o.o.o.o.o.o.l k o.X.l o.o.l p p = , S -.7.A.D.G.>XuXhXhXhXaXtXqXeX6XqXrXrXqX XG.4.3.7.7.r.5.&.P H n 6 g p l X.l p p i p p ..o.o.o.o.X.X.X.p X.o.p - ",
"; ; ; ; l o...o.O.o.o.X.l l o.o.o.o.o.X.p i < O N %.y.F.P.).6XsXhXhXhXaXtXtXtXyXyXiXaXtX5X!.F.5.5.5.7.7.&.%.K v + w p o.o.X.p i = * = i p p p o.o.X.X.X.o.o.p = ",
"; ; ; ; y ......o.o...; l ..o.o.o.X.l l p 1 8 N K &.D.P.).5XrXaXaXsXaXiXtXtXiXyXiXaXtXrX0X1X^.F.7.5.4.5.4.%.K b # 2 i i X.X.l g s s 2 g i p p o.X.o.X.X.X.o.i = ",
"p p ; ; ; ; ....o.X.o.X.l ..X.l p p l i % 8 B L 4.A.G.).5XyXyXyXtXtXtXrXtXtXtXtXtXrX9X8X0X0X7X(.G.7.4.3.&.%.K N + $ % i i p p s T E T x i ..o.p p p X.O.o.X.p i ",
"; p p ....l ....................l l X.l & + b K 4.F.Y..XrXaXyXyXyXtXtXtXtXtXtXtXqXqX0X8X9XeXqX7X(.F.4.P P %.$.K B , a $ a $ $ c @.*XoXR 2 i X.X.i i X.X.p p p p ",
"; p ..X.X.o.....p l p ..X...l X.o.X.X.l < + B K 7.P.}.8XrXrXwXrXrXrXtXtXtXtXtXrX0X8X7X7X2X7X7X8X7XE.7.P K P $.P Q I f f f a d } $XgX*X} $ = p o.p p X.p p p i i ",
"* ; X.....X.X.X.X.l l o.o.X.o.X.X.l i 2 7 F ~ 6.I..X9X8X<X;Xn.@X:X5XyXeXqXqXqXqXeX0X<XU.w.a.;X<X.X}.L.4.%.%.H Q ^ } @.+X+X+X+X*X*X$X+.c & - p X.X.X.o.....o.l - ",
"- p l l ....l l ....l X.........l l 3 , M L 6.G.}.8X0X1Xn.h.[ g.n.,X9XqX0X8X8X0X9X2X;Xz.#.[ j.f.[.]./.i.5.P F U E XX-XfXfXgXgXfX#X} f 3 - k ..X.o.X.l k p o...i ",
"p p p p ..l ; ; ; y ; ..l l l y g g : o H 1.F.].8X8X<X;Xx.[ _ _ h.C.<X2X7X7X7X7X7X;Xn.{ ' ' [ ,.d._.[.E.y.%.B I ( @.-XfXfXgXjXfXOXE d % g p X.o.o.l i ; i l p p ",
"; p X.o.X...p ; l p ; ..X.X.o.o.X.i : o V 1.F.{.8X<Xn.x.| |  .l.k.j.n.;X|.9X9X<Xf.w.c.M. .l.l.k.j.d.W.W.y.%.! *.<.+.@.@.oXoXoX+X*X$X@.T % h p o.o.X...p i ..p ; ",
"; k ....X.o.....X.l p ..o.o.o.o.X.l > O V =.D.{.2X;Xj.[  .N.%XB.l.] #.a.<XeX9X,Xw.h.{ N.%XB.m.k.` w.d.E.y.%.:.q.<.^ f f Y f T } +X-X+XE , = k l l l o...l l l i ",
"; i i k ..o.o.o.X.o.X.X.o.o.l l ..p < O B P t.{.|.C.g.'  .%X=X&Xm.] ` w.>XeXeX,X#._ ] B.=X=XB.{ _ j.p.Y.D.%.:.q.<.A # . : $ % f +.+XXXR % = i k - k ..o.X.l k i ",
"; ; k l ..l ..l ..; y l ; l X.X.X.; < O N K 5.^.|.;X#.k.l.m.B.%X .{ #.v.<XeX9X,X,.` ] m.B.&XN.| [ #.d.E.y.&.>.q.<.! @ . % i = h f R Y x p p k l - i ..o.o.k - = ",
"- - i l l i y i y ; ; y ; ; l X.o.; > o N H &.E.|.,Xw.h.k.l.m.M.| c.v.R.2X9X9X'.d.j.k.l.m.M.| | j.a.T.E.i.:.>.q.;.C # $ - p i * % s 2 i o.X...l k l X.o.o.k - = ",
"- i i p l ; ; ; ; ; ; ; ; ; ; l ..i < O N H &.L.].[.R.n.h.' ' _ c.n.<X2X8X.X|.'.E.a.j.k.] ] [ x.a.W./.E.d.q.q.q.0.Z m $ y ..y - = - k l o.O.O.o.X...o.O.o.- - - ",
"- - p p l i ; ; ; ; i ; k l y ....k , @ V L :.i.Y.`.`.R.w.#.` #.v.;X7X8X7X}.'./.].Q.p.j.A ` j.a.Q.].^.U.d.p.a.w.q.*.m : X.o.l ....l X.o.X.l ..X.l i l l o...l i ",
"- i p ..X...i i k l l k l ..o.o.o.i , O C ;.9.:.t.L.`.`.f.p.0.0.d.'..X.X|._.Q./.{.'.U.p.z.,.p.U.`.`.T.s.p.a.Z.Z.w.*.b : y X.X.o.O.o.o.o.p l o.X.k - - l o.l l p ",
"p i p o.O.o.l l ..X.o.o.X.X.o.o.X.; < @ Z ;.q.:.:.r.Y.Q._.W.R.W.Q._.'.`.'._././././._.W.W.R.W.Q./.U.d.w.q.p.V.Z.V.#.M $ y ..o...l o.O.l p l o.o.k = i o.o.p i i ",
"- i p ..o.O.o...; l X.o...l o.X.l l w 7 F *.;.*.>.e.d.T._.`.`.{.`./.Q.'.[.[.[.[./././.].}.].`.Q.R.C.Z.b.0.;.,.w.<.W 8 & l o.o...o.o.o.o...o.o.o.X.l o.o.o.k i i ",
"= i p p X.o.o.X.k y l o...l o...l ..k 5 S B C *.;.p.p.d.W.`.|.].`.Q.Q.Q.'.Q.[.'././.].].].}./.T.d.C.Z.b.#.C B V C D q e X.o.o.X...o.o.o.o.o.o.o.X.o.o.o.X.X.k i ",
"i p ..o.o.o...X.o...l X...l ..o.o.l - 2 0 # M Z ;.0.;.q.f._.]._.Q.Q./.T.I.i.i.H.Q.'.'.W._.'.W.s.q.w.b.b.W n o O 8 s r * l o.o.y i l X.o.o.o.o...l l X.l l X.l k ",
"; p o...o.o.X.X.o.o.o...X.X.X.o.o.i w 5 3 4 8 B C A C *.i.]._.f.R._.Q.F.-.Q ! 6.I._._.f.R.[.E.e.! A A A U 8 > > 0 0 w w y l ..y i l l l p p X.X.X.l X.X.o.o.l l ",
"; l X.k l o.X.o.o.o.X.l l X.o.o.X.i - w 5 5 0 8 m v v Q u.T.f.p.d.U.I.2.B   v V u.I.U.p.p.R.H.2.B v v M S 5 j j r 5 r w ; p k k k l l k l l ..o.o.o.o.o.X.o.....",
"p l k ; y l l ..X.y ; ; ; y X.o.o.X.l e t j x 0 7 + # D Q :.>.*.;.>.:.H v     b ~ >.>.*.-.>.-.Q 8 + X 6 4 5 j j j j k k l ..o.o.o.o.o.o.o.o.o.o.o.o.o...p ....; ",
"; k ..k p k k l l k k l y ; ..o.o.o.X.l e e r r h 5 5 q S B B B B B B b v     b b B B B B V B S 9 < < 3 3 5 r j z z ..l l l X.o.o.o.o.o.l ..o.X...; ..; ; p p p ",
"; ..o...l l l k y k ..X.y ; l o.o.X.o.X.p e t j j j z s 7 # o @ O O O # m m m m @ O O @ @ o # , 3 r t r 5 5 r j k ..X.o.l l ..o.o.o.o...l l ..o...; ......; ; p ",
"p l X.o.o.o.....X.k ; i ; ; o.o.....X.o.o.X.l j x u j u 5 0 0 0 0 0 0 0 0 q q 9 0 9 7 0 9 9 0 5 r r 3 5 0 5 j k l ..X.o.o.o.o.....o.X.o.o.o.o.o.o.o.o.o.o...p p ",
"i l X.o.o.o.o.X.o.X...p l X.o.o.X.l ..X.o.l l z t t t r r r 5 h r r r r t u r r r r h r r r r t u t r r r t k X.X.k ..o.X.....X.X.......X.X.X.X.X.X.X.o.o.X.p p ",
"i p X.X.....X.o.o.o.o.o.o.o.o.o.X.k k l k k k l k e = w w 5 r t r 5 r t j t j j t r j t j r u u t t y z k z ..X.X.i k ..k i i o.o.l ..p i p p p p p p X.o.....p ",
"i p ....o.o...l ..X.o.o.o.o.X...l l k i k k X.o.l e k k w 5 5 5 1 5 r r r t r h t t r t j j r r r t l ..o.o.X...l l k k k l X.o.X.i p p p p p p ; p p ..X.X.; ; ",
"i p ..X.X.X.l l l ..l l o.o.o.l z X.l p p ..o.o.X.; ; y y w w w w w y j y j z e j y j l y e t t y y l l X.o.X...l ..l k ....o.o...y y k l k y ; ; ; X.......p ; ",
"; p X.o.l ; k ....l k k l o...X.X.o.X.X.o.o.X.o.X.k ; ; ; y y y ; i ..X.........X.X.o.o...; y X.X...y y ..o.X...X.o.X.X.o.o.X.o.X.k ; ; ; ; y ; ; ; X.X.......; ",
"i ..X...i ; ; p o.o.o.X.o.X.l X.o.o.o.o.o.o.X.o.o.X.y ; ; ; y ..l l ....o.o.o.X...o.....y ; - l o.o.X.X.o.X.l X.o.o.o.o.o.o.X.o.o.X.k ; ; ; l ....; ....X.X...; ",
"i p X.X.l l ; l o.o.o.o.o.....o.o.o.o.o.o.X.p o.o.o.X.l y l ..o.X.X.X...l o.o.o.o...o.....l y ..O.o.o.X.X.X...o.o.o.o.o.o...l X.o.o...k ; p ..X.X.X.X.....o...; ",
"; p o.o.o.o.o.o.o...l k ..o.o.o.o.X.X.X...k ; X.o.o.o.o.o.o.o.o.o.o.o.X.l ..X.X...X.o.o.o.o.X.X.o.X...k ..o.o.o.o.X.X.X.X.k p ..o.o.o.o.O.o.o.o.o.o.o...l ..; ; ",
"; ; ..o.X.l X.X.X...l y X.o.o.X...l l l o.o.X.l ..o.o.o.o.o.o.o.o.X.l ..X.k p p l ....o.X.l X.o...X.l k ..O.O.X.....p l o.o.X.p ..o.o.o.o.o.o.o.o.X.....X...; - ",
"; ; X.o.X.; ..X.o...l i l X.o...l ..l l o.o.X.p l o.o.o.o.X...o.X.X...X.o.l k ........o...y ..X.X...l k l X.X.l l ..l l X.o...l l o.o.o.o.X...o.X.....X.o.l ; - ",
"; ..o.o.o.l p X.o...; p p p p p l X.o.o...; ; X.o...o.o.o...; X.X.o.o.o.o.X.o.o.o.o.o.o.X.l l X.O.l y y l l y l p X.o.o.X.i i X.o...o.o.o...; X.o.X.o.o.o.X.X.; ",
"; ....X...p X.......p ; ..X...p ..X...l ....X.o.l y X.o.o...p o.o.o...p p o.O.o.X...X.X...l ........l y ..o.l p X.X...p ......X.p y o.O.o...l X.o.o.X.p l o.X.l ",
"; p ........o.X.p o.o.p ..o.o...X.X.l p p o.o...; ....o.o.....o.o.o...; p o.o.X.....l ......o.X.l o.X.k X.o.o.X.X.o...; l o.o...; ....o.o.X...o.o.X...; ; o...; ",
"; p p ..X.o.o.o.o.o.o.o...p o...X.o.o...X...l ; y ....o.O.o.X.o.X...p ..X.o.........l l ..o.o.o.o.o.o.o.l ; o.X.X.o.o.......l ; ; ....X.o.X.X.o.X.......X.o.l - ",
"; ; p ; p o.X.o.o.o.o.X.p p o.o.o.o.X...o.X.l ; X.o.; ....; l o.o.o.....o.o.l ; ..l i i l o.X.X.o.O.X...p l o.o.o.o.X.X.o.X.l p ..o...; ..l ..o.o.X...X.o.o.; * ",
"; ; ; ; ; ..p ..o.o.X.p ....o.o.X.X...X.o.o...l ..o.X.; ; ; ..o.o.o...X.o.o...k ..l i i k l l ..o.o.X.p ....X.o.X.X.X...o.o...l ..o...k p p l X.o.o...X.o.X.; - ",
"p ; ; p p ; ....X.X.........X...k k p l o.O.o.....o.o.o.X.o.X...p p o.o.o.X.X.o.o.l - i k i l X.X.o.o...p ..o.X.l y k l o.o.X.....o.o.o...o.o...; ; o.o.o.X.l ; ",
"- - - ; ; ; p p ; ; ; p ; p p p k i p p ; ..l ..l l ......X...; ; - ..p ; ; l l l i i i i k i p ; ; ; ; p p p ; ; p k k l l l ..p ..X...k ..l k ; ; p p ; ; ; - ",
"* = ; ; p p ; ; ; - ; ; ; ; ; ; p p k i - - ; ..; ; ; ; ; ; ; ; - = ; - * = - i i ; - ; i k i - ; - ; ; ; ; ; ; p p p p - - ; l ; ; ; ; ; ; ; l ; = ; ; = - * * "
};
