/* XPM */
static char *Group_9_2__resized[] = {
/* columns rows colors chars-per-pixel */
"80 80 230 2 ",
"   c #2D3917",
".  c #1F102E",
"X  c #241738",
"o  c #2D312E",
"O  c #2C382B",
"+  c #2C3A2A",
"@  c #2C3738",
"#  c #313B3C",
"$  c #2E4A1B",
"%  c #354C1D",
"&  c #37591D",
"*  c #37621B",
"=  c #3A651D",
"-  c #3D6D1D",
";  c #3F711F",
":  c #2F4727",
">  c #2D442B",
",  c #354926",
"<  c #324C2B",
"1  c #335224",
"2  c #395727",
"3  c #365A24",
"4  c #3B5E23",
"5  c #35532B",
"6  c #395C2C",
"7  c #2E4337",
"8  c #334534",
"9  c #344A34",
"0  c #34473A",
"q  c #375635",
"w  c #376121",
"e  c #3B6523",
"r  c #3D6C21",
"t  c #3C632C",
"y  c #3F692C",
"u  c #3F7220",
"i  c #3D6231",
"p  c #406E1E",
"a  c #41751F",
"s  c #43781F",
"d  c #425728",
"f  c #4C5034",
"g  c #456727",
"h  c #416C2B",
"j  c #417620",
"k  c #457C21",
"l  c #477E25",
"z  c #437229",
"x  c #456832",
"c  c #56663B",
"v  c #2D2B48",
"b  c #2F3145",
"n  c #2F364A",
"m  c #313649",
"M  c #2D2C52",
"N  c #303053",
"B  c #363859",
"V  c #373C66",
"C  c #41394F",
"Z  c #7E1D7B",
"A  c #423867",
"S  c #493D71",
"D  c #354547",
"F  c #36514D",
"G  c #354657",
"H  c #374567",
"J  c #394565",
"K  c #38536D",
"L  c #3A4A76",
"P  c #3B537A",
"I  c #4E4F4D",
"U  c #65574C",
"Y  c #5B6742",
"T  c #416558",
"R  c #616849",
"E  c #686555",
"W  c #6C7454",
"Q  c #74775B",
"!  c #4F506A",
"~  c #434576",
"^  c #45567A",
"/  c #664479",
"(  c #4C6A77",
")  c #79776A",
"_  c #AA105F",
"`  c #8F1571",
"'  c #A91365",
"]  c #A61876",
"[  c #912479",
"{  c #AF2C6E",
"}  c #CD3576",
"|  c #807E68",
" . c #CA557B",
".. c #C5607F",
"X. c #478022",
"o. c #498423",
"O. c #4C8A24",
"+. c #88856C",
"@. c #8C8776",
"#. c #928D78",
"$. c #93917E",
"%. c #553E87",
"&. c #7E3791",
"*. c #3C5885",
"=. c #3D618C",
"-. c #3E6392",
";. c #504D8B",
":. c #445A83",
">. c #475788",
",. c #5B539C",
"<. c #78489A",
"1. c #42618A",
"2. c #446692",
"3. c #476C99",
"4. c #4A729E",
"5. c #547097",
"6. c #5D57A2",
"7. c #6C55A9",
"8. c #7A52A7",
"9. c #7A5AB3",
"0. c #4B76A2",
"q. c #4D79A5",
"w. c #4B7AA8",
"e. c #5877A8",
"r. c #5875AE",
"t. c #6869B3",
"y. c #786AB8",
"u. c #6F70B8",
"i. c #7E5EC0",
"p. c #727BCC",
"a. c #7878C9",
"s. c #842682",
"d. c #95308C",
"f. c #863C95",
"g. c #AF2C8B",
"h. c #C7328B",
"j. c #894797",
"k. c #8F4D98",
"l. c #A95186",
"z. c #8752A6",
"x. c #8652AD",
"c. c #896AB2",
"v. c #D94786",
"b. c #D8498D",
"n. c #E35A94",
"m. c #DC6783",
"M. c #ED7B95",
"N. c #F376A5",
"B. c #9A5CC7",
"V. c #8F6ECC",
"C. c #A364D5",
"Z. c #4F82AE",
"A. c #5281AC",
"S. c #5A80AD",
"D. c #4F86B3",
"F. c #5285B2",
"G. c #568AB7",
"H. c #5B93BC",
"J. c #688FA7",
"K. c #698DB0",
"L. c #5C8DC4",
"P. c #5C99C4",
"I. c #688AC6",
"U. c #7C84CB",
"Y. c #6497C6",
"T. c #748BD5",
"R. c #6D99D5",
"E. c #6C9AD4",
"W. c #7697D9",
"Q. c #729CDB",
"!. c #5FA3CE",
"~. c #6EAACC",
"^. c #67AAD7",
"/. c #75A8D6",
"(. c #72A1DD",
"). c #78B6D7",
"_. c #789AE3",
"`. c #75AAE6",
"'. c #77B3E7",
"]. c #70B7EA",
"[. c #7CB8F2",
"{. c #7EC2DF",
"}. c #77C3E9",
"|. c #7CC2F5",
" X c #9C9685",
".X c #9B9798",
"XX c #A29C8A",
"oX c #A9A792",
"OX c #ABA595",
"+X c #B3AC9C",
"@X c #B3AFA1",
"#X c #BAB5A5",
"$X c #F78E9B",
"%X c #FB91A7",
"&X c #C1BCAC",
"*X c #FEA4B1",
"=X c #CBC6B7",
"-X c #CECAB6",
";X c #8889CB",
":X c #8794D9",
">X c #85B4D1",
",X c #8A95E0",
"<X c #87AAE8",
"1X c #87B5EC",
"2X c #91BBE9",
"3X c #84B9F3",
"4X c #8DC3DA",
"5X c #87C8E7",
"6X c #8CD1EE",
"7X c #95DAED",
"8X c #87C6F9",
"9X c #8ACBFD",
"0X c #8CD4FE",
"qX c #89D8FA",
"wX c #94DAF9",
"eX c #A9DDED",
"rX c #88E3FB",
"tX c #94E4FC",
"yX c #97E8FC",
"uX c #9BECFE",
"iX c #9BF4FF",
"pX c #A5EEFD",
"aX c #B4ECF6",
"sX c #A6F5FF",
"dX c #D9D5C6",
"fX c #E1DED1",
"gX c #E6E3D9",
"hX c #C6F8FC",
"jX c #D2FCFF",
"kX c #F5F4EC",
/* pixels */
"$ * ; - ; ; ; a a - - a s a s ; ; ; s a - - ; k s a s k - - - ; ; ; s ; ; s a - * - ; - - a ; ; s - - a k u u u u u s u u ; ; s s a s j ; - - - ; ; k ; a s - & ",
"- - a a a s ; ; ; ; ; s k a s ; ; j j ; ; ; s ; ; ; ; ; u j k k k k ; ; ; k X.k k j ; a a a ; ; ; ; a s u u k u ; ; * w * * ; u ; ; ; - ; j k k k k ; - a k a - ",
"s s a s X.k a ; ; a s X.k k k k u k u - ; s k k u u - ; j X.O.O.O.X.a - ; k o.O.O.X.j k X.k ; ; ; s s X.k k k u ; w 1 > : * u u j u - r j X.O.O.o.X.a ; a s s s ",
"a s o.O.o.X.a a s s s X.o.O.O.o.O.X.u u k o.O.o.X.X.X.X.X.X.X.O.o.o.X.k s X.o.X.X.X.o.O.o.X.s a s ; s X.o.O.O.O.u q G H G F r X.o.X.X.k X.X.X.O.o.o.X.k s X.s ; ",
"; s X.X.o.O.o.o.X.k k X.O.O.O.o.O.O.k X.O.O.O.O.O.O.O.O.O.k k k k k O.X.k k X.o.X.X.X.X.O.O.X.X.X.k k X.O.O.X.u x R 5.K.F.( T u l O.O.O.O.k k k k k O.X.l l s a ",
"a a a a X.O.O.O.o.o.X.X.O.o.X.k k O.O.O.O.O.O.O.O.O.O.o.X.k j k r j X.O.O.k X.O.o.k ; j X.O.O.O.o.o.X.X.O.X.r q T J.2XpX6X~.1.q e l O.O.k k k k ; j o.O.o.s s a ",
"- p a s s s X.s k k j k k k o.o.O.X.k k k k X.X.o.O.O.O.o.k a k ; ; X.O.O.k k j k k u k k X.k k k k a k j e < D >.>XfXaXeX~.A.F q j o.O.o.k s k - - X.O.O.k - = ",
"- - a X.X.a a a u ; u u - ; k o.O.X.k j k k a k k O.O.O.O.X.X.X.k s X.O.O.j ; a k k a X.k ; ; u ; ; ; - e < @ M ;.4XaXeX~.S.>.J q j o.O.O.X.X.o.k s o.O.O.a - * ",
"- ; ; X.X.; ; ; ; ; u ; ; ; ; k X.X.o.O.O.s a ; s o.O.O.O.O.O.O.X.X.O.O.O.- j k k j a X.k - ; ; u ; u r q n M M ! >X7X).( V V B q l o.O.O.O.O.O.O.X.O.O.X.a - - ",
"- ; s X.k u ; ; - u ; - u k u X.o.o.O.O.O.O.k o.O.O.O.O.o.o.o.o.k j k X.O.X.O.X.l k a k k k ; ; ; ; r w D L ;.>.J.4X7X4XJ.^ *.H F j O.O.o.X.o.o.k j k X.O.X.s a ",
"; ; ; X.X.X.u u j k k k X.X.o.O.O.X.O.O.O.o.o.O.O.O.O.o.s X.o.o.u - - k O.X.O.O.X.k a X.o.X.k ; u k u r D K r.I.>XwXtX7X>XK.5.G q j O.o.k X.X.o.u - - k O.X.k s ",
"s ; k O.O.O.k k X.O.O.O.X.o.O.O.O.X.O.O.k X.O.k o.O.O.X.s o.O.O.j - ; O.O.j k O.O.k a O.O.O.k k X.O.O.u 1 F 5.~.9XtXuXiXyX).5.D 2 l O.k a X.O.O.j - a X.O.j a a ",
"; ; ; X.O.O.O.X.u k o.O.o.X.O.X.k o.O.O.o.O.O.o.o.O.O.O.o.O.O.O.X.l O.O.O.k l X.X.k j X.O.O.O.X.; k o.o.u q T S./.0XyXwX).S.T i j O.O.O.X.O.O.O.X.k X.O.O.k a a ",
"- ; s X.o.O.O.o.u u X.O.X.k o.k k O.X.k O.O.O.X.o.o.O.O.O.O.O.O.o.O.O.O.X.k X.X.k k k k X.O.O.o.; ; k O.X.r q K e.'.3X/.e.T t j X.o.O.O.O.O.O.O.O.O.O.O.o.X.s a ",
"s s X.O.O.O.X.o.O.X.X.o.X.X.o.O.O.X.a - l o.O.s s s o.o.o.O.O.X.k k X.k X.X.O.O.X.X.X.O.O.O.O.o.O.k k o.X.k u 6 I r.I.0.F t l u a k X.X.O.O.O.k k k l k X.X.k s ",
"; s O.X.O.O.o.o.O.O.o.X.o.o.o.O.o.k a a a k k a a s l l s X.X.o.X.X.o.O.O.O.O.O.o.o.O.X.o.O.o.o.O.O.o.o.X.O.o.l i K P K q - k ; a k k k k l X.O.O.X.X.O.o.O.X.s ",
"; s o.k k O.o.o.O.O.X.k k X.O.O.O.k s a s s k j j k l k j k X.O.O.O.O.O.o.O.O.O.X.o.o.k k O.O.X.O.O.o.k o.o.o.O.u q D 9 r u k u j k k k j k X.O.O.O.O.o.O.O.l s ",
"s s a ; a k k X.X.j a ; a j X.O.O.O.X.l k o.O.o.O.O.o.O.O.O.O.O.O.O.O.k s l O.O.O.X.j r j k k k o.u ; ; ; u o.O.o.r e e u o.O.O.O.X.O.O.O.O.O.O.O.O.O.k j X.X.s ",
"a s X.k a a k k k j j k u ; k O.O.O.o.X.k k o.O.O.O.O.O.X.X.O.o.j ; - - a a l O.o.X.k k j j k k o.u u k ; ; k O.O.X.u k k k O.O.O.O.k j r s X.o.X.s X.k a j k s ",
"; s O.X.k k k k j k k X.j ; X.O.O.X.o.o.k k X.O.O.O.O.X.a k o.o.- & 1 4 a p k O.X.o.O.X.k k k k u u k o.; ; o.o.O.o.O.o.k k X.o.O.O.r 1 : e s o.s a k X.k a a s ",
"k k X.o.O.O.k X.l s a a p s O.o.X.X.o.O.O.O.O.X.X.O.X.O.O.O.O.O.e 8 @ 9 r k X.O.O.o.X.O.O.O.X.k o.u ; ; ; ; O.o.X.o.o.O.O.O.O.X.o.X.2 @ @ 6 k O.O.O.O.O.O.l s s ",
"a k o.O.O.O.O.O.O.o.s k k o.O.O.X.k X.o.O.X.X.X.o.X.X.X.o.X.j r q G J G q e k O.O.X.o.O.O.O.O.O.O.O.o.u k o.O.O.o.u X.O.X.X.X.O.X.l 3 > O 6 u X.O.o.X.O.O.X.s s ",
"a s O.o.X.X.X.O.O.O.O.O.O.O.O.O.o.s j l j j j O.O.k k k u - & + B ^ 1.^ D < - o.X.o.o.o.X.X.X.O.O.O.O.O.O.O.O.O.O.; k X.k u ; O.O.k - 3 1 - k k s j a o.O.X.s s ",
"a s l X.O.O.X.k X.o.O.O.O.O.O.s k k - * * a X.O.o.u u k k ; & + G >.2.P B > = l O.o.X.X.O.O.X.X.X.o.O.O.O.O.O.o.k k k u ; k X.O.X.u r u u u u u a a k X.o.o.s a ",
"a s o.o.X.X.X.k k X.k k o.O.o.X.k X.p % % r O.O.X.p j j j ; * < D J L J q 3 r X.o.o.X.o.o.X.k k o.o.X.k o.O.o.k k X.k u X.o.O.O.k u j k k j ; ; ; a X.X.X.X.s ; ",
"; s O.O.X.; k k X.X.k u l O.X.X.X.l g f f g l o.X.k j p ; ; u r 1 @ m 0 t j X.O.X.X.o.O.k ; u j u u u u k O.o.o.O.O.o.X.O.O.o.O.X.k u ; ; - ; ; ; a o.o.X.X.s a ",
"a k o.X.s - ; s O.O.o.X.O.o.l o.k * R @. XW g j k O.j - - ; k k - 3 1 e k o.O.O.o.O.o.l ; & $ $ 1 r u o.O.o.k o.O.O.O.O.O.O.o.O.O.o.k - - u k k k k s o.o.o.X.s ",
"a k o.X.X.k ; s O.O.O.O.o.O.s s g f  X=X-X$.f = a O.k k k k X.X.X.s - ; k X.k X.X.s X.s e : @ b D 5 r o.o.o.X.O.O.O.O.O.O.o.k o.O.O.k k k k X.X.o.X.o.X.o.o.s a ",
"a s O.O.O.O.O.o.O.X.k k X.X.s g Y @.dXkXkX@XU , - o.O.O.O.O.O.O.o.X.k r = e = r g r u j 6 0 G ~ L D 9 r u O.O.O.O.X.o.O.X.u k X.O.O.O.o.O.O.O.O.O.O.O.o.k X.k ; ",
"; a o.O.o.s o.O.X.X.k u o.k 4 R  XdXkXkXgX Xf $ * O.O.O.O.O.O.O.l e > O O O + + + + + : 7 G 1.4.3.^ D : r o.O.O.X.X.s ; o.O.o.k k O.O.O.O.O.O.O.O.o.k X.X.k ; - ",
"; s o.O.X.s k o.O.X.k k X.a % E OXgXkXgXdX XE f = s O.O.o.j j j e < n N n v n n m m m m B P 4.F.G.4.L b 5 r k k k k k X.O.O.X.k X.O.O.O.O.X.X.O.O.X.k O.O.k ; - ",
"a s O.O.o.X.s o.O.l u u k - % Y @.#X=X#XOX+XXXQ x = o.o.j %   1 8 G ^ :.>.:.:.:.:.:.:.:.:.3.q.A.G.e.2.K D > w ; k o.O.O.X.; ; O.O.X.O.O.O.s s o.o.O.O.O.O.o.k s ",
"a s o.o.X.k X.X.X.X.s a l l j h Y Q E E +.#X-XoXQ d a a t 0 b @ G ^ Z.D.D.Z.q.A.A.A.A.A.A.A.4.A.4.A.3.=.K m : = o.o.o.s l o.o.O.o.s o.O.O.s s O.O.O.O.s k O.X.s ",
"; a X.X.X.X.o.O.s O.o.s X.O.O.u & d   % R XX-X-X XR g 2 7 G L J *.A.!.^.^.!.P.G.G.H.H.G.D.A.4.3.3.A.A.3.*.B + = o.o.s s s O.O.s s s o.O.O.o.X.o.O.o.s s a O.X.a ",
"; a k k o.O.O.O.O.O.O.O.s s O.X.p p p g d R $.&X&X#.f # G =.4.1.0.P.].}.}.^.H.D.F.A.F.F.D.F.A.A.4.4.3.3.~ B : = o.O.o.l o.l s s s o.s O.O.O.o.O.o.X.X.X.o.O.k - ",
"- ; a a k O.X.O.O.O.O.o.s l o.O.l k s s z g Y #.OX.X( J P Z.H.H.~.5X6XrX|.}.~.Y.H.P.Y.H.H.H.A.A.4.A.4.2.:.G # 3 a o.O.o.O.o.s s s O.s s o.s l O.O.o.X.o.o.O.; * ",
"; ; ; ; k k k X.O.O.X.s k X.O.O.O.o.l l o.u e c ) c.( 5.-.P.~.4XpXaXaXsXiXqX}.{.).{.{.{.).!.F.q.4.4.4.3.2.^ G 9 2 a l X.O.O.s s X.o.X.s s s s O.O.O.X.o.O.O.a - ",
"s a ; a ; ; k X.O.O.o.X.k X.o.k s s s l O.O.j , m ^ 5.A.D.P.{.eXhXjXhXsXiXrXtXtXtXyXyXuX6X).G.0.4.4.3.4.Z.4.*.G # 1 - k O.O.O.o.X.s o.o.X.o.O.s s s O.O.O.X.k a ",
"s s s s X.k k X.X.X.X.o.X.X.k X.k k k o.X.u w 7 G *.4.G.P.).7XaXhXhXaXaXpXuXuXiXuXsXsXsXyX5XY.F.4.=.-.4.Z.4.=.K N @ 1 r l O.o.o.p & - s X.O.O.X.a a o.o.s s s s ",
"; s X.o.O.O.X.k X.s s X.o.X.X.o.O.O.O.o.r 1 7 G =.w.Z.H.~.7X7XsXsXaXsXpXuXuXuXpXpXiXiXiXuXwX'.L.A.=.3.4.3.A.3.P H B # & p s k k g d d g l X.o.o.s s o.s s s a a ",
"* a o.X.X.O.o.o.X.X.k o.O.o.O.o.o.o.X.j , D J :.A.H.H.~.7XiXsXiXiXuXyXuXuXuXuXpXuXuXuXuXuXtX9X].Y.0.3.3.4.0.3.-.P H #   % p p g Y +.Q c u u l X.o.o.o.X.X.O.k - ",
"- a l s s X.s s X.o.k X.o.X.X.X.s s p 1 D J :.2.A.H.~.6XiXiXiXiXiXiXyXyXyXpXuXuXuXyXyXtXtXrXqX8X'.Y.q.2.3.0.-.-.P J C + f % % c $.=X@X) 2 - s o.O.o.l j s O.X.a ",
"s s a l X.k a a ; ; ; X.X.k k u s s % o V :.3.3.q.H.5XtXiX7X7X7XtXyXuXuXyXyXyXyXuXyXwX8X1X1X3X8X8X).P.4.4.-.-.*.^ I U U U U f | #XgX-X+., & s O.O.X.a a a k s s ",
"; s X.O.o.X.a a X.; ; X.o.o.o.O.o.l % o V >.w.w.Y.'.rXtX2X;Xz.c.;X5XyXyXtX0XwXtXiXtX3X;X9.7.V.:X0X0X}.Y.w.3.K J ! |  X+XOX+X&X&X&X@X+.c g p s O.o.o.X.s a X.s ; ",
"; a X.X.o.O.o.X.X.X.X.X.O.O.o.o.O.u $ O B :.w.Y.'.6XwX2XV.j.` [ z.:X8X0X0X9X9X9XqX8X;Xk.[ Z f.V.1XwXqX/.L.-.B I U #.#XdXdXgXkXfX&X@.Y d a s s l k k o.X.k l s a ",
"a a j j X.O.O.O.o.o.X.o.O.o.X.X.u w < n H *.q.^.8X9X1X;Xk.{ _ _ g.z.:X3X3X9X8X8X3X:Xc.d.' _ g.k.V.1X8X[.L.*.B D E #.+X-X-XfXgXdX@X@.Y d j a s s ; a o.O.X.k s a ",
"- ; a k k k k k X.u k u u X.o.u t 7 n H P =.q.`.|.<Xc.k.....n.h.g.g.z.a.1XqX0X3Xa.z.l.m...v.h.g.f.c.W.`.G.-.K J U E | | | | #.XX&X&XXXQ d & - s - a X.O.O.k - = ",
"- - j X.k a a a u ; u u u u u e 1 n B L P =.0.^.[.<Xj.[ { M.%XN.b.] [ 8.(.rXrX<X8.s.{ m.$X%Xn.h.] f.y.E.D.-.L ^ ^ ! / U U f f E XX-X#X| d & a l k k X.O.O.j - * ",
"- a a s k ; ; ; ; ; ; u ; ; - & > m V L *.*.-.^.[.:X&.` } n.*X*Xn.{ ` j.W.rXrX<X<.` ' n.%X*XM.} _ &.7.I.w.-.*.*.6.8.k./ C o   % Q oX#.W p p O.O.O.o.O.O.O.- - - ",
"- - s s k k ; - ; ; ; - k k u * , N V *.*.P -.P.[.,Xj.` g.n.N.$X .{ s.9.<XrXqX1X9.d.] h.N.$XM. .[ &.t.E.w.-.*.6.i.C.x.<.C # & p c R c c s s s o.s s s l O.X.k a ",
"- a s X.o.X.j a j k k k k X.o.r < N S ;.*.*.*.G./.<Xi.j.g.h.h. ...l.c.;X1XqXqX3XU.z.d.g.h.v...l.j.y.T.R.L.3.,.B.C.C.x./ m 2 s o.g & & p s o.o.o.a = p l O.X.k s ",
"s a s O.O.O.k k X.O.O.O.o.o.O.r < B S ,.6.>.*.w.(.[.W.a.f.] ' ' l.c.<X3X9XqX9X8X'.U.j.d.] ' { k.y.W.`.R.r.7.9.C.C.9.%.b 2 a O.s a a k k a s O.O.s - a o.o.s a s ",
"p ; s X.O.O.O.X.; k X.O.X.X.O.; 1 # ! ;.,.,.>.r.I.`.[.Q.y.&.Z Z z.U.8X9X9X9X9X8X[.(.u.<.s.Z &.9.W.'.`.T.a.V.B.B.z.;.D < s O.O.o.X.o.O.X.X.o.O.O.X.l o.O.O.s a p ",
"- a s s o.O.O.o.a ; X.O.X.k O.u e 3 # B ;.6.7.7.p.T.`.`.T.t.7.7.a.Q.|.|.3X1X3X[.[.].E.a.7.7.t.T.`.`.T.a.C.C.B.z./ C < * o.O.O.o.X.O.O.O.O.O.O.O.o.o.O.O.o.o.s a ",
"; s o.O.O.O.O.o.O.k k O.X.X.X.o.o.k 1 @ V ;.7.7.7.t.p.R.(.Q.Q.R.Q.Q.(.Q.W.R.I.R.Q.`.(.Q._.Q.(.(.R.I.t.7.V.C.z.S b 8 2 = k O.O.s a k o.o.o.O.O.X.l s o.X.X.o.s s ",
"- s O.X.o.O.o.o.O.O.O.X.X.o.o.O.O.s & > B S ;.%.%.;.>.r.E.'.[._._.`.(.I.e.2.>.e.I._.`.W._.'.'.E.r.>.;.%.7.<.S C < 9 2 e p s k a a s k l s X.X.O.X.X.o.o.o.O.o.s ",
"; k X.k k O.O.O.O.O.X.k k X.o.O.O.k - 6 D G B A B B N ^ e.Q._.p.p.W.R.r.~ M M ~ e.T._.p.U._.Q.S.:.B M B A A C q 6 6 e e a a k j j k l k k k X.O.O.O.O.O.O.O.X.s ",
"j j k - u k k k X.k u u u k o.O.O.o.X.j g 9 # b @ @ o D ^ e.t.,.6.t.e.>.N . . v ^ e.t.,.,.r.e.^ m o o @ o @ 0 i h h h p s X.O.o.O.X.o.O.O.O.O.O.O.O.O.X.s X.X.s ",
"a k k k j j k j k u k k ; u X.O.O.O.O.k e 2 < 9 9 9 3 9 G ! S V V ~ ~ B v X X v B ~ ~ A A S L G # : : < > > q t z z k l s l o.O.O.O.O.O.k X.O.O.s s X.s ; s s s ",
"- k O.X.k k k k j j k X.j ; k O.O.o.o.o.a r h h x h y i 0 b b b v v b b v b v b v b v b v v b 8 q 6 t i 6 6 t g h l o.o.s k X.O.O.O.O.O.s k X.o.X.; s X.X.; ; s ",
"k k X.O.O.O.X.k X.k ; ; - k O.o.X.X.O.O.O.O.l y g x y i q 9 8 8 8 8 9 9 9 0 0 0 0 8 # 9 8 8 9 q e t 6 6 q 6 h j j l o.O.O.O.O.X.X.O.X.O.O.O.O.O.O.O.O.O.O.X.s s ",
"a k o.o.O.O.O.O.O.X.X.k k X.O.O.X.k k O.X.X.k j h t y t 6 6 6 6 6 6 q 6 i 6 6 x 6 6 4 6 6 6 6 t g t t t t h z l l s X.o.o.X.X.o.X.X.X.X.o.o.o.o.O.X.o.O.O.o.s s ",
"a s O.o.k X.O.O.O.O.O.O.O.O.O.O.o.u k k k u j l j y e e 4 t t e g 6 6 y h h h h h t h h y y y x x y r z z z k o.o.a j l k a j O.O.k k j a k s k s s s o.O.X.X.s ",
"a s X.X.O.O.X.k k o.O.O.O.O.O.k k k j j u k k O.l r u r e t 6 6 6 6 t t x t t x h i t t h h i 6 i y j X.o.X.o.X.s s j j a k o.O.O.; j k k k s a a a s X.X.X.s ; ",
"a s X.o.o.X.X.k l k k k X.O.O.k k k k k k X.O.O.X.; ; u r e t t e t h z h h j h z z z z z y y y y j j k X.O.X.k k X.X.k k X.O.O.X.u u j k j u ; ; ; O.X.X.X.s ; ",
"; s o.O.k a k k X.X.k u k O.X.l O.O.O.X.O.O.o.O.X.k u ; u u ; ; ; j X.o.s X.X.X.X.X.O.O.k ; s X.X.X.j u l O.X.O.o.O.o.o.O.O.O.O.X.k u ; ; ; ; u ; ; o.o.X.X.X.; ",
"a X.o.X.j - - k O.O.O.O.O.X.k O.O.O.O.O.O.O.o.O.O.o.k - ; ; ; X.k k X.X.O.o.O.O.X.O.X.X.s ; ; s O.O.O.X.O.X.k O.O.O.O.O.O.O.o.o.O.o.j - ; ; k k X.; X.o.X.o.X.; ",
"a s o.o.k k ; k O.O.X.X.O.O.X.O.O.O.O.O.O.X.k X.O.O.k k s X.X.X.o.o.o.X.X.O.O.O.O.X.O.X.k k ; s O.O.O.O.O.O.k O.O.O.O.O.O.X.k o.O.O.X.k k k X.X.o.o.X.X.X.O.X.; ",
"; k O.O.O.O.O.o.O.X.k k X.O.O.O.O.X.X.O.X.k k X.o.O.O.O.O.O.O.O.O.O.O.o.k X.o.o.X.O.O.O.O.O.O.O.O.X.k k k O.O.O.O.o.X.o.X.s s o.O.O.O.O.O.O.O.O.O.O.O.X.s X.s ; ",
"; s X.O.o.k o.O.o.X.k k X.O.O.O.X.k k k o.O.X.k X.O.O.O.O.O.o.O.O.X.k X.X.k s s k l X.O.o.k o.O.X.X.k a X.O.O.O.X.X.s k O.O.o.s k O.O.O.O.O.o.O.O.o.X.o.o.X.- - ",
"; ; X.O.X.s X.o.o.X.k j X.o.o.X.k k k k O.O.X.k X.o.O.O.O.X.X.O.O.X.k o.O.k k k X.l X.O.X.s X.o.O.k k a k X.O.l k X.X.s o.O.X.s X.O.O.O.O.X.X.O.o.o.X.o.o.X.; - ",
"s X.O.O.X.X.s X.O.X.; a s s a s k O.O.O.X.u ; o.O.X.O.O.O.X.s o.o.O.O.O.O.O.O.O.O.O.O.O.o.s s o.O.k a a k k j j s o.O.O.o.a a o.O.X.O.O.O.k k X.o.o.O.O.O.o.X.s ",
"; s O.X.X.X.X.X.X.X.s a X.X.X.X.X.o.X.k X.X.X.O.X.u o.O.O.X.X.X.O.O.o.s s O.O.O.o.X.o.o.X.k X.X.O.X.k ; X.o.k k X.o.X.s l X.o.O.k k o.O.O.X.k o.O.O.X.k X.O.X.s ",
"; a X.X.X.X.o.o.k O.X.k X.O.O.X.o.O.k s k O.O.X.; X.X.O.O.o.X.O.O.o.X.; s O.O.O.X.l X.X.X.X.O.o.k o.o.k X.o.O.o.o.O.k s l O.O.s ; k X.O.O.X.X.O.O.O.X.; ; O.X.; ",
"; a s s X.O.O.O.O.O.O.O.k k O.o.X.O.o.X.X.X.k ; X.X.X.X.O.o.X.O.o.X.X.X.o.O.X.k X.s s X.X.O.O.O.O.O.O.O.k k O.o.X.O.O.X.X.X.k ; k X.X.X.O.O.X.O.X.X.X.X.o.O.s - ",
"; ; s s k O.o.O.O.O.O.X.s s O.O.O.O.o.o.O.o.X.u k X.X.s X.k X.O.O.o.X.X.O.O.s s X.X.a a l o.o.o.O.O.O.X.k k O.O.O.O.o.o.O.X.k k k o.k k k k X.O.O.O.X.X.O.O.; * ",
"; ; ; ; s X.k X.O.O.X.X.s X.O.O.O.X.X.X.O.O.X.k X.X.X.k s k X.X.O.O.X.o.O.O.k k o.l a a k k k X.O.O.X.s X.X.O.O.O.X.X.X.O.O.X.k X.O.X.k a k k O.O.O.X.O.O.O.; - ",
"s a ; ; ; ; s X.o.O.X.X.X.X.o.X.j k s k O.O.o.X.X.O.O.O.X.o.o.X.a s O.O.O.o.o.O.O.s - a a j k X.X.O.X.X.k X.o.k j k a k O.O.o.X.X.o.O.O.X.o.o.k a s O.O.O.X.X.; ",
"- ; ; ; s ; s s s ; s s s s s s a j a k k k k k X.k X.X.k X.X.u - - s s ; ; s X.s a ; a j a a a s ; s s s s s s j a a k k k k k X.X.X.X.k k k s ; - s s ; ; ; - ",
"* = - ; s s ; ; - = ; ; ; ; - ; k a s a - - ; k k ; ; ; ; ; ; k - - ; - * - - a a ; - a a a a - - - - ; ; ; ; ; k a s j - - a k ; ; ; ; ; ; j k - = ; - = = = * "
};
