/* XPM */
static char *Group_9_3__resized[] = {
/* columns rows colors chars-per-pixel */
"80 80 233 2 ",
"   c #323A1C",
".  c #2B3A28",
"X  c #2A2B37",
"o  c #2B3434",
"O  c #2D3A37",
"+  c #313B3A",
"@  c #443A3D",
"#  c #334C1A",
"$  c #36561C",
"%  c #355C1C",
"&  c #37631B",
"*  c #3A651C",
"=  c #3D6D1D",
"-  c #3F711F",
";  c #2C4626",
":  c #364925",
">  c #324B2C",
",  c #345424",
"<  c #365B25",
"1  c #34542B",
"2  c #395929",
"3  c #395C2C",
"4  c #2D4532",
"5  c #334536",
"6  c #365233",
"7  c #385531",
"8  c #3B5933",
"9  c #376022",
"0  c #3B6523",
"q  c #3D6B22",
"w  c #3D642C",
"e  c #3F692B",
"r  c #3F7120",
"t  c #3D6432",
"y  c #416D1F",
"u  c #41751F",
"i  c #43781F",
"p  c #47502F",
"a  c #4B5A32",
"s  c #52583A",
"d  c #416D24",
"f  c #45642A",
"g  c #416B2D",
"h  c #427620",
"j  c #457C21",
"k  c #43712A",
"l  c #446631",
"z  c #536739",
"x  c #331C4D",
"c  c #2E2D46",
"v  c #2D3544",
"b  c #343848",
"n  c #2F3252",
"m  c #343255",
"M  c #383659",
"N  c #353C5B",
"B  c #2F3A69",
"V  c #373C67",
"C  c #443C46",
"Z  c #443669",
"A  c #513A6C",
"S  c #4A3D79",
"D  c #573A75",
"F  c #354748",
"G  c #38445F",
"H  c #375151",
"J  c #394468",
"K  c #3C516E",
"L  c #384B76",
"P  c #3C527B",
"I  c #52514D",
"U  c #605F46",
"Y  c #55654F",
"T  c #6A6B52",
"R  c #76755C",
"E  c #464679",
"W  c #594378",
"Q  c #475476",
"!  c #53657C",
"~  c #74676F",
"^  c #797A63",
"/  c #980C6A",
"(  c #8D1270",
")  c #B01773",
"_  c #912C7D",
"`  c #B82970",
"'  c #C63475",
"]  c #B7497B",
"[  c #847C69",
"{  c #CE4479",
"}  c #D2627E",
"|  c #478022",
" . c #498423",
".. c #4C8A24",
"X. c #86826C",
"o. c #8D8B77",
"O. c #533681",
"+. c #772C87",
"@. c #3B5986",
"#. c #3C5985",
"$. c #3E6390",
"%. c #534488",
"&. c #445B87",
"*. c #4F4D90",
"=. c #565796",
"-. c #734A97",
";. c #44628D",
":. c #49638D",
">. c #55758B",
",. c #426592",
"<. c #446995",
"1. c #4A6B97",
"2. c #466D99",
"3. c #526B97",
"4. c #487099",
"5. c #4A729E",
"6. c #676A85",
"7. c #5E54A7",
"8. c #7B4AA3",
"9. c #6253A3",
"0. c #675BAB",
"q. c #7355AD",
"w. c #5862A5",
"e. c #4B75A1",
"r. c #4C7AA6",
"t. c #4D7DA9",
"y. c #5876A7",
"u. c #5B7CB6",
"i. c #6463AC",
"p. c #6B66B7",
"a. c #7669B9",
"s. c #667ABB",
"d. c #7571BB",
"f. c #7F5AC0",
"g. c #7B6AC0",
"h. c #6B77C1",
"j. c #7477C4",
"k. c #8E2F8D",
"l. c #843391",
"z. c #AE2488",
"x. c #CB348C",
"c. c #8D4B98",
"v. c #AA558B",
"b. c #9D639D",
"n. c #834CA6",
"m. c #9349A8",
"M. c #8554A9",
"N. c #896FB9",
"B. c #DD4892",
"V. c #E55A95",
"C. c #DC6D84",
"Z. c #E96D91",
"A. c #8B5DC7",
"S. c #995BC7",
"D. c #A15CCA",
"F. c #8A71CA",
"G. c #9A66D3",
"H. c #A462D4",
"J. c #4E82AC",
"K. c #5183AD",
"L. c #4E87B0",
"P. c #5285B1",
"I. c #558AB4",
"U. c #568DB9",
"Y. c #5A8DB9",
"T. c #5A92BC",
"R. c #5B96BD",
"E. c #628ABD",
"W. c #5F8EC2",
"Q. c #5D99C5",
"!. c #6A87C8",
"~. c #7385CA",
"^. c #6498C7",
"/. c #768BD4",
"(. c #6D99D5",
"). c #6D9AD5",
"_. c #7296D6",
"`. c #729CDB",
"'. c #65A4CC",
"]. c #73A4C7",
"[. c #6AA7DA",
"{. c #72A2DE",
"}. c #6CB2DA",
"|. c #76B8DA",
" X c #7A9CE4",
".X c #6FABE5",
"XX c #73A5E2",
"oX c #73ABE5",
"OX c #79ABE9",
"+X c #6EB5E5",
"@X c #74B4E9",
"#X c #78C0DB",
"$X c #75C2E9",
"%X c #78CBF3",
"&X c #7CD3FA",
"*X c #9D9787",
"=X c #98938F",
"-X c #A29B8D",
";X c #A49E90",
":X c #ACA593",
">X c #B2AD99",
",X c #B3AE99",
"<X c #BAB5A6",
"1X c #F18296",
"2X c #FD95AB",
"3X c #C1BBA9",
"4X c #FFA2AD",
"5X c #CCC5B0",
"6X c #C9C4B6",
"7X c #898BD1",
"8X c #88A9D3",
"9X c #869CE2",
"0X c #84A7E6",
"qX c #8DB9E6",
"wX c #83BBF6",
"eX c #88C8ED",
"rX c #91D4EB",
"tX c #87C9FA",
"yX c #89D6FB",
"uX c #92D7FB",
"iX c #ACD5E7",
"pX c #8AE4FD",
"aX c #94E3FC",
"sX c #99E8FC",
"dX c #9DF1FD",
"fX c #A2F5FE",
"gX c #B7F0F8",
"hX c #D6D2CA",
"jX c #D9D5C8",
"kX c #E2DED2",
"lX c #E5E2D3",
"zX c #CBFBFC",
"xX c #F5F3EC",
/* pixels */
"# & - - - - - u u = - u i i u u - - i i = = - j i i i i - = = - - - i - - i i = & = u = = - - - u - = u - i u - - i & , v B J F 3 - - - - = = - - - | - - i = % ",
"* - - - u u - - - - - i i u i - - r i - - - - j - - - - r h j j j j - - - j j j u u - u u i - - - - - i j i u - = = < Y ! y.K.P H 9 = = - - j j i r - - - j u = ",
"i i i i  .j u = u i i j j j j h r j r - - i j r r r - = h | ......| - = - j ......| h j | j - - - u i | j j j - * 1 H >.8XiXrX].>.F > & r | .... . .- - - j i i ",
"- i  ... .j u u i u i |  .........| - r j  ... . .| |  . .| |  . . . .i i | | |  . . . . .| i u i u i |  ..... .q 4 ! ].iXzXgXrXR.;.F 9  . . . . . . .i i | i - ",
"- i | |  ... . .| j j | ...... . . .|  ........... ..... .| j j j j  . .j | |  .| | |  . ... .|  .i j  .......| 9 v :.qXzXgXgXuX).1.F 9  .j j j j |  . .j | i - ",
"- u u i | ...... . .| |  ...j j | ......................| j h j r r  ... .j | ..| j h r | ...... ...|  .....j i 9 O ! ].iXgXgXeX(.:.F 9 j j j j - -  ... .j j - ",
"- - u i | i  .j j j h j j j  . . . .j j j j j  . ..... . .i - j - - j .. .j j h j j - j j | | j j i j r j j |  .r 3 H 5.].eXqX^.3.H 8 h ..j h j - - j ....j = * ",
"= = u i i u u u r = - r - - j  . .| j j h j h j | ........|  .| h j  .....j - - j j h | j - - - - - - - = r j  .| r t Y 4.u.u.;.H t k  ...j j  .i i  ... .j = & ",
"= - - | | - - - r - - - - - = r | i ......i u - i  ............. . . ... .r h j j j h j j - = - - - r - - r r j  .j r e H J L F 1 | ............ .| .... .= = = ",
"= - i | | r - - - r - = j j r  ...| ........j  ......... . . . .j u j  . . . . .j j h j j j - - - r - = i j r j  . . .r t 6 4 < k  ..... . . . .j h j  . . .j u ",
"- - -  . .| r - h j j j |  . ..... ....... . ......... .i  . . .r = = j  . ..... .j h j  . .h r r j j j j |  ..... . . .r q q r  ..... .j j  . .r = = j .. .j u ",
"i - - ......j j | ...... . .......| ....j |  .|  .....| u  .....h = r  ...h j  ...j h ......j j | ........| .... . .....j |  .|  ..... .r | ....h = -  ...u u u ",
"- - - | ......| - j  ...| j ..| j  ... . ... . . ....... ....... .j  .....j j  .j j h j ......| - j  ... .j .. .j  ........... . ....... ....... .j  .....j u u ",
"= - i |  ..... .r r | ..| j  .| j  . .j ...... . . ............. ....... .j  . .j j j j  ..... .- - | ..| j ..j j ..| j ......|  . ........... . ....... .j u u ",
"u i | ...... . ...| j  . .|  . ... .u y j ....j u j  . . .....| j j j  . .j .... . . . ..... . ...| j ..| j  . . . .r r j ....j h j  . .......| j j | j  . .j u ",
"- i ..| .... . ..... .|  . . ... .j u y h j j u u j j j i | |  . .|  . .........|  . . . ..... ..... .| |  .......j r r r j j r r j j j j j  . . . . . ... . .i ",
"- i  .j j .. . . ... .j j  . .....j i u u i i i j j j j i j  ..... ............. . . .h j .. . ... . .j j  . .....j u i u j h h j j j j j j  ...............j i ",
"i i i - u j j |  .h u = u h  ..... .| i i  ... ... . .................j h  ..... .j j u h j j j | j - - - h  ..... . .j j  . ..... . ..... ...........i h  . .u ",
"u i  .i u u j j j h h j - u j ......u & % u  ......... .j  . ...j j j 9 , < h  . . .j h h j j j j j r j u -  . ..... . .j j  ...........| |  . .| i | i u h i u ",
"- i ..| j h j j h j j j h = j ....j d p $ 0 j .. ..... .i j  . .h u h 1 . . w ..j  . . .j h u h r r j | u - j .... . . .j j  ......... .j j  . .i - | | j u u i ",
"j j  . ..... . . .u u u y u ....i y s T T z h j |  ............... .j 2 o . 0 .... . ... .j q * = & % & = h  . .j  ........... .|  . ................... .j i i ",
"u j  ..... . . . . .j j i  ...i = p ^ ;X;X^ f d i  .| |  .|  . ... .j g w 3 j ...... ...j 0 > > 4 ; ; ; 9 j .... .j j  . . .j  . .| | |  . . ..... . ..... .j i ",
"- i .. .|  . ............... .h f U ;XhXjX*Xs $ - i j h r j j j j r u h j j j j h j j j q > c n v c v + 3 j .... .h j j h u u ....| j r r j j j i h u  ... .i u ",
"u i j  . ... .j  . ....... .* z R >XkXxXlX-Xs $ * r h j j j j r = % # $ % $ $ , $ $ $ $ > F J J B J J J F 3 d j j j h u h j  .....r r j j j r j u u j  . . .u u ",
"u i  . . .| j j j | j j  .h $ U ;XkXxXxXkX*Xs f % y u u u - - q % ; + + 5 5 + + + O O O F Q &.;.#.@.;.&.J F , y j  .j u j  . ...| r - j h h - r - - | | i | i - ",
"- j .. .| - j j | | j r  .j p T >XlXxXlX3X*XR s y y y = * & & & , v J J V J J V J V N N J &.e.2.;.$.2.<.Q N . <  ... . .........| j r - - - - - - u  . . .| i u ",
"- j  .| i = - i .... . . .j d z ^ ;X:X;X,X3X3XX.z % = = $ . . . O H ;.:.;.:.:.:.1.:.&.&.&.<.e.e.<.2.<.&.L N . d ............ . ... .j = = - r j j j i  . ...| i ",
"u j  . .j j - i .... . . . .j d z T U U X.<X5X,XX.a * % ; v c c J ;.I.Q.T.I.I.P.I.K.r.e.4.5.5.4.5.2.@.#.V b . d .......... .j  .....j i j j  . . . . .|  . .i i ",
"u i .............. .j j | ....| = # # # a o.3X5X:XR s > F P &.P <.U.}.$X+X}.'.Q.Q.T.T.I.t.e.5.5.e.2.@.L B b ; y .. . . . .j u |  ..................... .j | i - ",
"= u | .. .i  ... .| j h | ....| i = & & f z [ ,X3X*XI F K 5.L.J.T.[.%X&X%X}.Q.I.I.U.U.U.P.r.5.5.5.2.$.L V n ; d | j j i  ...| j | ................ .j | | j - = ",
"- i  ...| i |  . .| j r j  . .j i | | i u % a X.*X=X6.E $.L.Q.Q.}.$X&X%X+X'.T.L.J.K.I.I.u.r.5.5.5.2.$.#.L G + , * j i |  ...| j | ........ . . . . .j  ...j - - ",
"u | .... .i i  ...| r j j h h j i  .....| y $ a Y 6.3.5.J.U.'.}.$X%X%X+X'.U.L.J.J.J.K.K.J.r.5.2.5.5.2.;.@.L n O ; q  ... .u =  . .| .... .i j  . ......... .j i ",
"- i  . . .i | | | | j r j  .j j  . . .j | j 0 ; F Q 5.I.L.R.'.#X&XyX%X|.'.T.T.R.R.R.'.R.I.t.4.<.4.r.5.4.,.#.L J F 6 d u j  . .j u * u  ...j i ...... .i j ..| i ",
"- i | | | | .. .|  .| j  ..... . ...j u r q 3 + G $.L.R.U.U.'.%XpXpXuX$X#X|.|.#XqX|.#X|.^.P.<.,.4.5.r.5.,.@.&.#.L F 6 % j  ...u % $ % j .. .|  ... .| i - ..| - ",
"- u j j | ..............j j .. . . ...j * > b J $.t.L.L.L.R.}.rXdXdXdXaXaXaXrXsXsXaXuXtXOXT.5.<.4.5.5.2.$.#.$.$.;.J F : - i j % 2 s p k .. . ... .| i |  ...i = ",
"- - u - j .. . .......j j j .... .....i * 4 n L <.t.5.J.R.#XrXdXfXfXdXdXfXfXfXfXdXsXaXuXyX@X^.K.5.<.,.;.@.@.@.@.P V X   # % $ p T *Xo.T f y i .... .|  .....- & ",
"- - - - r | | | .... .i j  . ... . . .u q 4 n L <.e.2.J.].rXdXdXdXdXdXdXdXfXfXdXaXuXuXyXyXtX+X^.t.,.@.@.@.L L J Z C @ p p p $ U *XhX<X^ # $ u  ..... . .....i = ",
"i u - u - - j  ... . .| j j  .| j u u * < 5 N Q <.t.L.W.].qXqXqXrXuXsXsXsXaXsXuXaXtXwX0X9X9X9X(.Y.4.@.L @.L B n @ I R [ X.[ X.*X6XjX<X^ : y i j i i ......| i u ",
"i u i i j | j | j | | | | | j | j j * 1 F G P @.2.P.'.{.7XN.c.n.N.qXuXaXuXuXuXuXyXtX0Xa.n.c.M.j.^.L.$.L @.L B + I [ :X5X3XhXhX6X3X;XR z d i  . .u u  . .i i i i ",
"- i |  .....| | j j j |  . .|  ... .$ O G &.2.2.r.Q.+X0XN.k./ ( c.7XeXyXtXtXtXtXyXqX7Xl.( ( k.M.~.!.r.@.L L G H T o.5XkXkXlXxXkX,X[ a f j i  . .i i  .i u i i - ",
"& u  . .j  . . . .j j  ... ... . .j , o J &.t.U.^._.7XN.v.v.` ) z.m.F.8XtXyXtXwXOX7Xb.] ` ` z.m.M.d.u.e.$.@.E E [ b.;X<X3X3X6X6X<X:XR l * = i  . ... .j j ..j = ",
"= u j j j  .j j j j j  . .| | j j u # X J &.t.[.OX9XM.c.{ C.Z.B.z.z.l.d.OXyXyX0Xg.l.` } Z.V.B.z.k.8.h.W.r.@.*.7.-.~ R R [ R [ o.,X5X;XR : * i  ... .j j j ..| i ",
"i u u j j j u = - h j | j j j h u u : o N L e.+XwX7Xk./ ' Z.4X2XB.) ( 8.8XpXpX0X8.( ` C.4X2XZ.' / l.h.).L.$.$.7.9.W p         s o.5X<XX.p * i .. .| u = - j i i ",
"- i  ... . .u u j u u j  ..... . .h $ X n L $.}.wX9Xl./ ' Z.4X4X} ` ( 8.0XpXpX0X8.( ) V.2X4X1X{ / l.p.).L.$.*.7.9.W c   $ y y f T o.R z y i i  . . . .i u  .i - ",
"= h  .j  ... .j | j j | .... ... .j < o n B $.Q.@X9Xn.k.z.B.Z.C.} ` l.d.qXyXyX0Xq.k.) B.V.Z.C.] _ n.j.(.t.<.*.7.7.S v ; d ....h z s f f j j j j j j  . .j | i - ",
"u u u h  ....... .|  . .....j j  .j < o n J @.W.XXOXj.M.z.z.' ' v.b.F.9XtXyX%XOX/.q.k.z.x.z.] ] c.j./.(.u.w.7.7.9.S b # j ....j y $ y u  .j h j - u  ... .j i u ",
"= - u j j j j j j j h h j j  . . .j , o m B @.t.).OXoX~.n.k.( ( c.7XqXyXtXeXOX{.}./.a.k.( ( _ M.~..X{.).h.p.q.q.9.S b . y j j  .j i j  . .j j h - y j ....j = = ",
"= = u  .j u h u r - - u y u j  . .u # X B #.w.u.).@X@X{.d.+.+.+.q.7X%XtXwXOX`.{.@X{.E.n.+.+.-.d.`.@X@X).h.g.f.A.M.%.c . y i j i j ........j j j j j  ... .- = * ",
"= = u i j - - - - - - - r - = j  .h , o Z %.i.j.{..X.XXX!.j.d.d.~.`.OX@XOXOX{. X.X{._.~.d.d.h./.`..X@X).s.p.A.H.S.-.m ; y i u u j ................ ..... .- = * ",
"= u i i j h - = = u - - h j r |  .j % 4 M %.9.d./.XXXXXX.X{.{.{.{.{.XX{.XXXXXXXX{.{.{.{.[.{.{.XXXX{.).!.j.F.S.S.M.O.F , i  .j  ....... . .j  . .j u j j  . .j u ",
"u u i  . . .u u h j j j j  . .....j d 3 F Z W 9.j./.`.XX.X@X.X@XoX{.`.`.XXXXXXXX`.`.{..X@X+XoXoX.X(.!.j.F.G.S.n.W I F d j  . ......... .j j  . .h = y j .. .j i ",
"i u u  .....j j  . ..... . ....... .j k 6 b m S 9.h./.`.XXXX{.{.{.`.`.(._._.(.(.`.{.{.{.{.{.{.XX`./.g.q.H.H.n.A b 5 l j j j ..j  ..... .u  .....h * u  ...i u u ",
"= u i  . ..... .r j  ...| | ..| j  .j k 8 6 5 m S 9.h./. XOXOXoXOX{.).Y.3.&.:.5.Y.(.XXXX{.{.{._./.j.G.A.S.n.W b 4 3 g j  . ... . ....... ....... .j ......h u y ",
"= u i i  ..... .u r j ..| j  .| j  .h d e l 8 + m S 9.g./.XXOXXXOXOX_.y.L c m E y._.OXOXXX X`.!.h.G.D.D.8.D b 4 1 e e q  ..... . . ..................... . .h u ",
"= i  . ..... . ...| j ..| | | .. . .q < w g e > o m D *.i.Y.!.!. XOX_.y.E x x Z y.`.OX X_.OX`.s.7.8.n.n.O.m ; 0 k t 3 & j  ...i u j  . . .....| j j  .j j  .j h ",
"u i  . ..... . ..... .|  . . .....j 9 , 3 t e 2 5 b m Z S E =.p./. X Xs.7.O.O.7.h.`. Xj./. X_.y.%.V D D I 5 3 e g t 2 < = j j u u j j  .i i  . . .j  . .....j j ",
"= j  .j j .. .| .... .j j |  .....u q 0 3 3 3 9 3 6 b v X m S %.p.~.(.s.0.9.9.0.s.~.!.0.p.~.E.3.N c X v 5 8 e g l 3 9 0 r h h j h j j h h j  ............. .| i ",
"u j h r h | j j | h r r - j  ..... .j r w e l g l w 1 5 5 + b Z %.=.:.*.%.%.O.%.=.:.*.E %.=.&.Q F O . 4 1 3 e l e e d h j  . . .......................| i | | i ",
"u j | h r j j j j h h j r - | ...... .j q q e g g e e 3 2 2 5 b m N N M M M M M M N M m m m m F 1 1 2 1 1 3 w e g k j  .j j  ......... . . . . .i i | i u i i i ",
"- j  .| j j j j j r j | j r |  ... ... .i r e w l t g g 0 f 2 4 o X o o o O O o o o o o o X . > 2 0 e e 3 3 e g h  ... .j j | ........ .u j  . .i u | | i - u i ",
"i j | .... . . .| j - - = u .. .| |  ..... .j g 9 l t g g g t 8 7 7 7 7 6 6 7 7 2 6 6 7 7 7 1 2 w 3 3 2 2 3 g h j j  ......... .j .. ................... .| i i ",
"u j  . ... . ..... .j j j | ....| j |  . .| j h g e e e e t e t e t w l l w e l t e f t e l t l t e 9 w w g k  . .j |  . . .j  . . .j  . . . . ... .| .... .i i ",
"u j .. .|  . ................... .h j j j h h j j q q 0 2 3 3 w 3 w 9 g g e e g e g g e e e g t l g k j j k j  . .h j j j h h ....j j j h h j j i i i  ... .| i ",
"u i i  .....| j j  ...........| j j h r h j  ...| = h r q 9 3 3 2 < 0 w e w e w e w w w e g w 3 w g j  ... ...j j j h h r j  ... .u h h j j i u u u i | | | i - ",
"u i  . . . .j j j j j j  ... .j j  .j h j | .... .r - r r q 0 0 9 0 k k q h q k h k k h r e r e r h j j | ....j j | j j j | ....| r r j j r r r - - | | | | i - ",
"- i  ...j u h j  .| j r j  . . ..... . ..... ...| j r - - r r r - u |  .| j  . .|  . . .| - j j  .j h q j .. . . ... . .........| j - r = - - - - -  . .| | i - ",
"u |  .| h = = j .... . ... .j  ............. ..... .h = - - r | j j j  . . ..... . . . .- - = j ...... ... .j .............. . ... .h = - - j j | i | |  ...| - ",
"u i  . .j j u j ...... ... . . ...........| j  .....| j r j |  . . . .j  . ..... . . . .| j r j ........ ...j ............| j  .....| j - j  . . . .| | |  .| i ",
"- | .......... ...| j j | ........ . . .| j r  . ..................... .j j  . . . ........... . . .j j j ........ . . .| j u  . .....................| | | - - ",
"- - | .. .j  ... .| j h | ...... .j j j  ... .j | ................ .j  . .j i i j | | .. .j  ... .| j h  .......| | i j  ... .i | ................ .| | | | - = ",
"- -  ... .- |  ...| j u |  . .| j j j j  ...| j |  .......|  . ... .j  ...j j | | | | ..| j j  . .| j h j .. .j i | j j  ... .i |  .......|  . . . .|  . .| - - ",
"- | .... .| i | ..j u u u j u i j  ..... .h r  . . . .....| j  . ......... ............. .j j | ..j r h h h h j j  ..... .u u  ...| ......| i  . .........| | - ",
"- i ..| | i | | | | i u j  .| j |  .| i |  . . . .r  .....| j  .....| i i ...... . . . . .i j  . .| j r |  .j i  . .| i  .|  . .| j  .....j j  ..... .i | ..| j ",
"- i | | |  ... .i .. .j | .... . ...j i |  ...| - | | .... . . .....| - i .... . .j j  .j  ... .j .. .j  ..... . ...j i j ....j - j | .... . . ... . .- - ..| - ",
"- u i i  ...............i j .. .| ....| | | | - | | |  ... . ... .| i |  ...| | j  .j j  ...............r j .. .| ....|  .j j - - | |  ..... ...| | | | ....- = ",
"- - i i i .. . .......| i j ........ . . . .j - j  .i j | j |  .....| | ....j - j j u u j  . . .......| j j ........ . ... .j u |  .j j j j | .... .|  .....- & ",
"- - - - i | | | ....| i | | ......| | | .... .j  . .| j - j |  .....|  . ...j j  .j u - h j j | .... .i j | .... . .j  .....| j |  .| j u j |  .....| .... .- = ",
"i - - - i - i |  ...| | i |  .| h j i j .... . . ..... . . . .| u i ...... . .....j = u h u j  . . . .| j |  .j r j h j ......|  .......|  . .j - i ......| | - ",
"= = - - - - i i - - i i i i i i h u u j - | j | j j | | j | | - = = j i - - j j j u - u u h u u i - i i i j i i j u j j j j j j j | | | j j j j - = i i - - - = ",
"& * - - i i - - - = = - u - = - j u i u = - - j r - - - - - - j = = - = & = = u u - = u u u u = = * - - - - = - i - i u = = - j - - - - - - r j = = - = * = & & "
};
