/* XPM */
static char *Group_9_4__resized[] = {
/* columns rows colors chars-per-pixel */
"80 80 237 2 ",
"   c #273B1D",
".  c #2C3B2C",
"X  c #363529",
"o  c #222636",
"O  c #2B2B3A",
"+  c #2B3835",
"@  c #2C333A",
"#  c #323B3A",
"$  c #423E38",
"%  c #304A1B",
"&  c #35571C",
"*  c #3C5D1E",
"=  c #356017",
"-  c #37631B",
";  c #3A651C",
":  c #3D6D1D",
">  c #3F711F",
",  c #2C4428",
"<  c #334D25",
"1  c #354829",
"2  c #345424",
"3  c #365B23",
"4  c #395924",
"5  c #35552A",
"6  c #395C2C",
"7  c #2E4534",
"8  c #344C33",
"9  c #334639",
"0  c #365331",
"q  c #385532",
"w  c #3B5B31",
"e  c #376020",
"r  c #3B6423",
"t  c #3E6C23",
"y  c #3D642C",
"u  c #3F692B",
"i  c #3F7220",
"p  c #3F6434",
"a  c #406B1F",
"s  c #41751F",
"d  c #43781F",
"f  c #44472A",
"g  c #425B28",
"h  c #4A5933",
"j  c #505037",
"k  c #416526",
"l  c #416C24",
"z  c #416B2D",
"x  c #427620",
"c  c #457C21",
"v  c #457927",
"b  c #456533",
"n  c #55663B",
"m  c #4F7032",
"M  c #282846",
"N  c #312C48",
"B  c #2E3444",
"V  c #353747",
"C  c #2E3456",
"Z  c #353956",
"A  c #3A335B",
"S  c #343A5C",
"D  c #2D3D62",
"F  c #373962",
"G  c #3D3871",
"H  c #473A57",
"J  c #443768",
"K  c #4A3F79",
"L  c #5A3D7A",
"P  c #334347",
"I  c #364F52",
"U  c #36435A",
"Y  c #3E6049",
"T  c #374669",
"R  c #39446C",
"E  c #314B6E",
"W  c #374875",
"Q  c #3C4C73",
"!  c #39537C",
"~  c #4C484D",
"^  c #665D4E",
"/  c #5D6A45",
"(  c #696D51",
")  c #6D6B57",
"_  c #73735C",
"`  c #4A4878",
"'  c #555776",
"]  c #7B7864",
"[  c #92136F",
"{  c #B3196F",
"}  c #992070",
"|  c #B22E6F",
" . c #C9327A",
".. c #B7537D",
"X. c #C64A77",
"o. c #CA617F",
"O. c #478022",
"+. c #498423",
"@. c #4C8A24",
"#. c #7E8168",
"$. c #84856E",
"%. c #8C8774",
"&. c #948D7D",
"*. c #98927D",
"=. c #4C3F81",
"-. c #733794",
";. c #3D4B81",
":. c #3A5682",
">. c #3D5B85",
",. c #3D5D8A",
"<. c #3E608C",
"1. c #484B88",
"2. c #534387",
"3. c #55448A",
"4. c #435C87",
"5. c #44548B",
"6. c #594B96",
"7. c #4A5893",
"8. c #57549A",
"9. c #6D4997",
"0. c #41618D",
"q. c #48658D",
"w. c #446492",
"e. c #4A6396",
"r. c #456A96",
"t. c #456C9A",
"y. c #496E9B",
"u. c #566C92",
"i. c #47709C",
"p. c #4A729E",
"a. c #5C59A5",
"s. c #714DA1",
"d. c #6656AA",
"f. c #6658AB",
"g. c #7754AA",
"h. c #6C5BB2",
"j. c #7B5BB8",
"k. c #5766A4",
"l. c #4B74A1",
"z. c #4B7AA7",
"x. c #5478A9",
"c. c #4A7FB0",
"v. c #587DB5",
"b. c #6C68B6",
"n. c #7769B8",
"m. c #757CC6",
"M. c #A61E83",
"N. c #852C89",
"B. c #8C358E",
"V. c #A82489",
"C. c #B62687",
"Z. c #CB3693",
"A. c #964E8D",
"S. c #87469B",
"D. c #A64E87",
"F. c #834DA4",
"G. c #8358AC",
"H. c #8F5AB6",
"J. c #8E65AA",
"K. c #8A6CB7",
"L. c #DC518F",
"P. c #E0668F",
"I. c #EA7093",
"U. c #955DC6",
"Y. c #8D69CB",
"T. c #A465D5",
"R. c #5183AE",
"E. c #5384B2",
"W. c #5988B9",
"Q. c #5992BC",
"!. c #6387B8",
"~. c #6492B5",
"^. c #5C97C4",
"/. c #668CC6",
"(. c #7386CC",
"). c #6698CB",
"_. c #778CD2",
"`. c #6A9AD4",
"'. c #6B9BD4",
"]. c #7596D7",
"[. c #729DDC",
"{. c #68A6CC",
"}. c #6BA3D9",
"|. c #71AAD7",
" X c #72A1DE",
".X c #6AB4DC",
"XX c #76B6D8",
"oX c #74A5E2",
"OX c #74AAE5",
"+X c #78A9E7",
"@X c #71B3E8",
"#X c #77B2EB",
"$X c #7DCCF3",
"%X c #9A9584",
"&X c #919193",
"*X c #A29C8D",
"=X c #ADA695",
"-X c #B1AB9C",
";X c #B6B29C",
":X c #B4ACA1",
">X c #BBB5A6",
",X c #F28298",
"<X c #FB95A8",
"1X c #F990AC",
"2X c #C2BDAC",
"3X c #FFA4B0",
"4X c #CFCAB9",
"5X c #898DD0",
"6X c #8695D7",
"7X c #87B0DB",
"8X c #8B9CE5",
"9X c #84A9E6",
"0X c #86B8EB",
"qX c #83BAF4",
"wX c #93BEF4",
"eX c #86C5DE",
"rX c #8ACFEC",
"tX c #87C9FB",
"yX c #89D7F8",
"uX c #8CD4FE",
"iX c #93DBFB",
"pX c #A5DCEA",
"aX c #8AE3FD",
"sX c #96E5FD",
"dX c #9CECFE",
"fX c #9BF3FF",
"gX c #A2EAFC",
"hX c #B3EDF6",
"jX c #A1F4FF",
"kX c #A9F7FF",
"lX c #B7F8FF",
"zX c #D9D5C8",
"xX c #E0DCCB",
"cX c #E8E5D9",
"vX c #C6F8FD",
"bX c #D1FFFF",
"nX c #F4F2EC",
/* pixels */
"% = s > > > > s s : : s d d d > > d d s : : > c d > d d : : : > > > x > > c d : - ; s : > > > > s > : s i d s > > s - , U R.eXyX~.' 8 = : t i i > i c > > c : = ",
"; > > > x x > > > > s d d s d > > i > > > > c > > > > > i x c c c c s : > d c c c s > s s d > > > > > d c x c > > d - < P p.XXeX~.T 7 e i i i c c i > > > c > : ",
"d d d d +.c s : s d d c c c c x x c i > > d c c i i > : i O.@.@.@.O.s > s c @.@.@.O.x c O.c > > > d d O.c c c i s c : 3 y ' !.~.u.Y 2 - i O.@.@.@.O.> > > O.c c ",
"s d +.@.+.c s s d s d O.+.@.@.@.+.O.x i c +.@.+.O.O.O.+.+.+.+.+.+.+.+.s s O.O.O.+.+.+.+.+.O.d > d s d O.+.@.@.@.+.O.> : c Y I ~ Y v c +.O.O.O.@.+.+.O.c > O.c > ",
"> d +.+.+.+.+.+.O.c c O.@.@.@.+.+.+.O.O.@.@.@.@.@.@.@.@.+.O.c c c c +.+.c c +.+.c O.O.O.@.@.+.O.+.d c O.@.@.@.+.+.+.O.O.@.i 5 5 y +.@.@.+.c c c c O.+.+.O.O.> > ",
"s s s d O.@.@.@.+.+.+.O.@.+.c c O.@.@.@.@.@.@.@.@.@.@.@.+.c x c i x +.@.@.c O.@.+.c s x O.@.@.@.@.+.O.O.@.@.O.c O.@.@.@.@.O.i i c @.@.+.c c c c > > +.@.@.i O.> ",
": > s d d c c c c c x x c c +.@.@.+.c x c c c +.+.@.@.+.+.c s c : : c @.@.c s c c c > c c c c c d c x c c c O.+.@.+.v c c c v O.+.@.@.@.@.c x c > > O.+.@.O.> - ",
": : s d c d d s > > i i : > c +.+.O.c c x c c x c @.@.@.+.+.c O.c c +.@.+.x > s c c x O.c s i > > > > > : i c +.+.O.c c i c i c c +.@.@.@.c c +.i c +.@.+.i : - ",
"> > d O.O.> > i > i i > i : : i +.d +.@.@.+.s > d +.@.@.@.@.@.@.+.+.+.@.+.i x O.c c x c c : > > i i i i i i i c O.O.O.@.@.c d i x +.@.@.@.@.@.@.+.+.@.@.+.: : : ",
": > > c c i > > : i > : c c i +.+.+.@.@.@.+.c +.@.@.@.@.+.+.+.+.c x x +.+.c +.+.c c x c c c > > : i i i i c i O.@.O.@.@.@.@.c O.@.@.@.@.+.+.+.+.c i c +.@.O.c s ",
"> > i +.+.O.i i x c c c c O.@.@.@.+.@.@.+.+.+.@.@.@.@.@.d O.+.+.i : : c @.+.@.@.+.c x c +.+.x > i c c c O.O.+.@.@.O.@.@.@.+.+.@.@.@.@.+.c c @.+.i : : c @.+.c d ",
"d > i @.@.@.c c O.@.@.@.+.+.@.@.+.+.@.@.c +.+.O.+.@.@.O.d O.@.@.x : i +.@.x c @.@.c x @.@.@.c c O.@.@.@.+.O.@.@.@.O.@.@.c O.+.O.+.@.@.+.x c @.@.x : > O.@.x s s ",
"> > > O.@.@.@.O.i c +.@.+.c @.+.c +.@.+.@.@.@.+.+.@.@.@.+.@.@.@.+.c @.@.@.c c c O.c x O.+.@.@.O.i c +.@.O.O.@.+.c @.@.@.+.@.@.O.+.@.@.@.+.@.@.@.O.c +.@.+.c s > ",
": > d O.+.@.@.+.i i c @.O.c @.c c +.+.c @.@.@.c +.@.@.@.@.@.@.@.+.@.@.@.+.+.+.+.c c c c +.@.@.+.i > O.@.O.c +.c c +.O.c @.@.@.O.+.+.@.@.@.@.@.@.+.@.@.@.+.O.c > ",
"d d +.+.@.@.+.+.@.O.c @.O.O.O.+.+.+.s a x @.@.x s c +.+.@.@.@.O.c c c c c +.+.@.O.O.+.+.@.@.+.+.@.c c +.+.c c @.@.O.i i c @.@.c x c +.@.+.@.+.O.c c O.O.+.+.c d ",
"> d +.+.+.@.@.+.@.@.+.O.+.+.+.@.@.d : - a x c s s c c d d d +.+.+.+.+.+.@.@.@.@.+.+.+.+.+.@.+.O.c > > d c +.+.@.@.d i i i c c i i c c c c c +.+.+.+.+.+.+.@.O.d ",
"> d +.d c @.+.+.@.@.+.c c +.+.@.@.c - & & a s d d c c c c c +.@.@.@.@.+.@.@.@.@.O.O.+.d c @.+.i e 2 2 3 l O.+.@.+.c d s s s d c c c c c c c +.@.@.@.@.+.@.@.c d ",
"d d s > s +.c c c x a x a d +.@.+.+.k f < a +.+.@.+.+.@.@.@.@.@.@.@.@.c x +.@.@.@.O.c : i O.i e 7 B O + 2 : +.@.@.+.+.d O.+.@.+.+.@.+.@.@.@.@.@.@.@.@.c x +.O.d ",
"s d +.s s s c c c d d c s a +.+.c a n _ _ n l d +.@.@.@.c +.+.+.c c O.c s c +.+.+.+.O.c i i e P U ` W Z 7 2 l +.@.+.+.+.c c +.@.@.@.@.@.c +.+.+.c c O.c s x d d ",
"> d @.+.c c c c x x c +.x s c c l h $.:X>X$.h a d @.@.+.d c +.+.s s c c x : c +.c O.+.O.: 2 8 T q.l.p.! U 7 4 x @.+.@.+.c c +.+.@.@.@.+.c c +.+.d s c O.c s s d ",
"x c +.+.@.@.+.+.c d s d a d c l j ] 2XnXcX*Xj * : +.+.+.@.@.@.@.+.d c x : : : x c x x c * X Z 0.R.W.R.w.Q P , r O.O.+.@.@.@.@.+.O.+.+.+.@.@.@.@.@.@.@.@.+.c d d ",
"s c +.@.@.+.+.+.@.+.d d d d k n $.2XnXnXcX%Xj & : O.O.O.+.+.@.+.c r < < < < < < < < < 2 X o Z ` R.R.R.r.! F . r +.c +.+.+.+.c +.+.+.+.O.+.O.+.+.+.+.+.@.@.+.d d ",
"s d @.+.+.+.+.+.@.@.@.@.@.c 1 ) :XcXnXnX4X&.j g > c c d s t s x 3 1 O B @ @ @ @ @ @ @ @ O o C ' r.p.i.! R Z 1 t +.s c c x s x @.@.c c x x x c c c s s +.@.+.d d ",
"s d c +.+.@.+.c +.@.@.@.@.c & ( *XzXxX4X2X=X%./ g - s s : & % % , P R Q Q Q Q Q ` Q Q R T D E ! r.r.! U V 8 r c c d x s s c +.@.+.i x c c c x c s s c +.+.+.c a ",
"s d +.+.+.+.c c c O.c c +.+.l m _ &.%.$.*.>X4X%.n & ; a 2 7 + + P ! R.p.p.p.p.R.p.p.r.<.<.0.<.r.i.4.T B , r d d c c c x c +.@.@.+.: s x c x i i > > O.O.O.O.d > ",
"> c +.@.c > c c O.O.x i O.+.+.a 6 j X f _ =X4X4X$.h * & , I F C ` l.^.^.^.^.Q.E.Q.Q.R.R.p.p.p.R.l.4.R @ 5 l c l x +.+.+.@.@.+.@.+.c i > : > > > > d +.+.O.O.d > ",
"s c +.+.d : > d @.@.@.+.+.@.c c s * * k h $.=X4X>X#.j . I ! q.` r.Q..X$X.X{.Q.R.R.R.R.R.z.p.z.p.l.w.Q C 9 7 , 1 4 c @.@.@.@.+.@.@.+.c a : i c c d d O.O.+.+.O.> ",
"s d +.+.O.c > d @.@.+.+.@.+.O.+.O.s d d a n _ =X>X*X~ C E p.R.R.^.XX$X$X$X.X{.Q.Q.R.Q.~.R.R.i.i.i.t.4.E Z B B B 9 w v c +.c c +.@.@.c d c c c +.+.@.+.O.+.+.O.d ",
"s d +.@.@.@.+.@.@.+.c c O.+.+.@.@.O.+.+.d * f ) &X&Xu.4.e.W.{.eXrXgXgXdXaX$XXX.X{.XXXXXX{.R.t.w.i.i.t.>.R A F W Q P 5 l c c x c @.@.@.+.+.@.@.@.@.@.@.+.c O.c > ",
": s +.@.+.d +.@.+.O.c x O.@.@.@.+.d O.d +.d a 0 ~ q.p.z.R.Q.XXpXvXvXlXkXfXaXyXrXrXiXsXiXeXQ.y.w.i.z.i.0.F C F 4.0.R 9 2 x @.+.c d @.@.@.@.@.@.@.@.+.d O.O.d > ; ",
"> d +.@.+.d +.+.+.O.c i O.+.+.c d O.d d @.@.s % @ E t.E.^.{.eXhXbXbXlXlXgXdXfXfXjXjXjXgXrX|.E.y.i.p.p.r.Q S R :.' E 9 4 c @.+.x a a d +.@.+.+.+.+.+.O.+.@.c > > ",
"s c @.@.+.d d +.@.O.i c c x x c O.+.@.+.O.d ; % + T r.Q..XrXsXhXlXhXhXkXdXdXdXfXjXjXdXiXuXeX{.E.t.r.t.y.>.W W E I 8 k c +.d a x a % * s @.d d +.+.@.@.@.@.+.O.d ",
"> d +.+.O.c O.O.O.O.c i c +.O.c +.+.c c c x ; , B ` p.{.eXfXjXjXkXgXfXdXdXdXdXfXgXdXiXuXuXiX#X|.W.p.r.r.<.:.W C M < : > > : : l / ( / m O.i c +.@.@.+.d c @.O.d ",
"> s O.O.O.O.@.+.O.+.+.c +.@.@.+.+.@.c s x r 5 # T e.Q.@XsXjXkXfXfXdXsXsXdXdXdXdXiXiXuXtXuXiXuXtX|.W.r.>.,.:.E M O 1 3 - & * k h #.-X%X( t i c +.@.+.+.d > @.O.> ",
"> s c c O.@.@.@.@.@.@.@.c c @.+.c @.@.c e 8 B U <.W.|.tXsXfXjXfXdXdXdXfXdXdXdXsXiXtXtXtXtXyXtXuXtX'.p.! :.W D C O $ j b j f f ) >XcX4X$.5 * d @.+.O.c c +.@.c : ",
"> > d > c @.+.+.@.@.+.O.x c @.@.@.@.@.c e . C 5.W.XXrXyX7X7X5X6X7XyXdXsXsXsXiXiXaXtXqX6X(.Y.].0XtX@XW.w.,.:.F V ~ ) ..*.&.&.%X=X>X2X*.( & * d @.@.@.c +.@.@.> - ",
"> > > > c c c O.@.@.+.d c +.+.@.+.+.+.s ; . F u.|.yXaXrX5XF.B.} K.9XiXsXuXuXuXuXyXtX6XG.N.N.s.5X+X#X`.v.t.:.S ~ ^ *.4X4X4XcXcXzX>X&X/ 6 ; a d +.@.@.+.+.@.@.d ; ",
"d s > s > > c +.@.+.+.O.c +.+.c c x c s r , A !.#XsXtX5XA.} [ [ B.K.9XqXtXtXtXwXtX8XK.B.[ [ } F.n.[.oX`.c.,.S $ ^ *.>XzXxXcXnXxX-X] b e d +.+.c s d @.@.@.+.c s ",
"s d d d O.O.c O.c O.O.O.+.c O.c c c +.c ; , S !.0XwX5XJ.D.X. .C.C.B.Y.].#XuXtXqX].K.D.X. . .C.V.S.m.].[.v.:.D N ~ _ &.=X=X=X-X>X>X=X#.+.k s +.+.s s +.+.d d d d ",
"> d O.+.+.@.O.O.c c c O.+.+.c +.@.+.+.c & . S /.9X8XF.} o.I.I.I.Z.V.N.n.0XaXyX9Xb.} ..I.,XI.L.C.} F.m.`.^.:.D M $ ~ ^ ( ( / / ..;XzX;X..1 * c @.d d +.d s d d > ",
"- s +.+.c +.+.+.+.c c +.@.+.@.+.+.+.c e , B Q ^.+X8XN.[  .I.3X<XL.{ [ 9.9XaXaX9X-.[ { I.<X<XI.Z.[ -.b.`.^.<.G G J H # X f % * n %.2X*X_ & a d c +.+.@.c c @.c : ",
": s c c c +.d c c c c +.+.O.c c c x 3 , B S >.{.qX6XN.[ Z.I.<X<XP.| [ F.+XaXaX9Xs.[ { L.1X<XI.X.[ -.m.`.c.<.;.6.3.J @   & = * * / _ ( h ; a +.+.@.+.c c c @.O.d ",
"d d s c c c s : s s c c c c c c x t < O C W <.{.#X8XG.N.C.Z.P.I.P.D.F.m.0XyXtX9Xn.B.M.Z.L.P.P.D.} G.m.`.z.,.8.a.s.=.N   : d d ; * 1 < * s +.+.+.+.+.s : s c d d ",
"s s +.@.+.+.x s c s s c +.@.@.+.+.x < O C W <.^.#X9X_.j.V.M.{ { ..J.6X0XtXtX$XoX].m.B.M.{ | | A.G.5XoX`.c.,.5.a.d.=.B . > +.@.d a ; a d +.c +.+.+.+.+.d s O.d : ",
"> x +.c +.@.+.O.O.c c +.@.@.@.@.+.c 5 @ F W ,.v.`.oXoX_.g.M.L [ S.5XtXtXtX#XOXoXoX`.n.N.[ [ N.j._.OXoX/.l.<.a.h.g.2.B , x @.@.@.c c +.+.+.c c c c c +.+.c O.c s ",
"> s s x +.@.@.@.+.+.+.O.@.@.c c c c 2 @ F W ,.<.c.).OXoXm.-.-.-.h.].$XtXqX+X[.[.@X X(.h.-.-.h.m.+X@X).z.7.a.h.U.H.6.V , x @.@.@.@.@.@.+.O.c c c : x +.@.+.c s s ",
": > s c c c c c c x s x x c c @.+.c 2 @ S W ;.:.,.z.). X[._.(.(.].[.OXOXOXoX[.[. X X[.]./.(.`. X X^.l.,.7.d.U.T.U.3.V , : c +.+.@.@.@.@.+.c x c a : c @.@.c : ; ",
": : x O.c s s s x > > s > l c +.@.c e < V D E E ;.<.x./. X+X@X@XoX X'.[.oX+X+XoX X X X@X#X#XoX`./.l.:.;.1.d.Y.H.A.` 9 & : x x x c +.@.@.+.O.c +.c c +.@.+.x : - ",
": > d d c s > > > > > > i > : c +.c c x 5 B C F ! :.<.l./.oX#X#X+X X[. X+X+X+XOXoX XoXOX#X@X`./.l.,.! ;.7.f.g.3.H f t +.+.O.i i c +.@.@.@.@.@.@.@.+.@.@.+.> : : ",
": a d O.d s s : > > > : c c i c @.c @.+.r 7 C G ;.,.:.4.W. XoX`.'.[.[.]./.!././.]. X[.`.}.oX`.v.,.E W ,.h.j.s.F @ 5 i @.@.+.c +.@.@.@.@.+.+.+.+.c d c c +.+.c s ",
"> s s O.+.+.d s x c c c c O.@.@.@.+.+.c 6 . N ` 6.7.W ,.v.[.`.E.!.`.[.!.e.` 1.e./.`.`.v./.).).v.:.W ;.a.Y.T.s.A o 2 i @.+.+.+.@.@.@.@.+.c c +.+.x : a c @.+.c d ",
"s s d +.@.@.c d +.+.@.@.+.O.@.@.@.+.c v q # A =.8.a.,.7.v.).!.<.l.W.).k.F M M D x././.<.w./.`.v.<.;.8.j.T.T.F.J + 8 u +.i O.@.O.+.@.@.+.s c @.@.x : s +.@.d s s ",
"> > d O.@.@.@.O.i c +.@.+.c @.+.c +.c z w 8 P J 2.6.8.k.!.v.l.:.,.y.x.4.D M M D e.x.l.:.,.k.m.v.k.f.U.U.T.F.3.~ 9 q u i +.@.@.+.+.@.@.@.+.@.@.@.+.c @.@.@.c s a ",
": s d d +.@.@.+.i i c @.O.c @.c c +.x u p p w P F 2.8.a.k.e.,.! :.,.w.>.W D D E >.4.,.! :.a.b.b.d.m.T.T.F.2.V 9 q p y t +.@.@.O.+.+.@.@.@.@.@.+.+.@.@.@.@.c x s ",
"> d +.@.@.@.+.+.@.O.c @.O.O.O.@.@.c t 3 p z u 8 B J 2.6.1.W W 5.7.5.5.5.7.7.e.7.5.;.:.5.a.a.h.s.d.g.U.S.L V , y u p 6 e i @.@.c s c +.+.+.@.@.O.c c c c c +.c x ",
": d @.O.+.@.@.+.@.@.+.O.+.+.+.@.@.x e 5 6 y y 5 7 V J J F F G 8.a.a.a.a.k.h.k.f.a.a.a.a.h.h.d.6.=.=.=.L H 9 6 u z y 6 e i c c i s c c c d +.+.+.+.c @.+.@.@.c c ",
"> c +.d c @.+.+.@.@.+.c c O.@.@.@.c t e 6 w 6 e 6 8 V N B C ` 6.f.h.f.d.f.f.f.f.d.d.d.d.h.h.d.K S N M V 9 w u u p y y r i x c i x c c c x c +.@.@.@.@.@.+.@.O.d ",
"d s c t x c c c O.x i i i x +.@.@.+.c t y u b z z y 0 7 . 9 H ` 3.6.3.3.2.2.2.2.3.3.2.2.3.3.` H P + . , 5 6 u b u u t x c O.@.@.+.@.@.@.@.@.@.@.@.@.@.c d +.O.d ",
"> c c c x c c c c x x c i i O.@.@.+.+.c t r u z z z u 6 6 0 P V A A A A A A A A A A A A A A Z P 8 2 5 6 5 6 p u u v c O.c c +.@.@.@.@.@.c +.+.+.c d +.c s d d s ",
"> c @.c c c c c c i c O.x i O.+.@.+.@.+.d t u u u b z z k 6 5 # O O @ @ + @ @ @ + @ @ @ @ @ + 1 6 r u u 6 5 y z v O.+.+.c c O.+.@.@.@.+.c c +.+.d s c c c > s d ",
"d c O.@.@.+.+.+.O.c > > : c +.+.O.c +.@.@.@.c u w p p z z u y w q 0 q q 0 0 0 0 0 0 8 0 0 0 q 6 y 6 6 5 0 6 k x c c +.@.@.@.@.+.c @.+.@.@.@.@.@.@.@.@.@.@.d d d ",
"s c +.@.@.+.+.@.@.+.c c c O.@.@.+.x +.+.+.c c x u u y u u p p y y y 6 u z 6 k z y y z y p y u p u y y u y z v O.+.c O.+.+.+.c +.+.+.+.c +.+.+.+.+.+.+.@.@.+.O.d ",
"s O.+.+.O.+.+.@.@.@.@.@.@.@.@.@.+.x x c x x x c c t t r 3 6 6 u y 6 6 u z u b z u p z u u u p u b z x x c v c +.+.x c c x x x @.@.c c x x x c c c s d +.@.O.d d ",
"s d d +.@.@.O.c c +.@.@.@.@.@.O.c c c x x c +.@.O.: > > t 6 6 6 6 4 y y u y y u u u y u u u u 6 y u c +.+.@.+.c c c x x x c +.@.+.x x c c x x x > s c +.+.+.d > ",
"s d +.+.+.+.c c c c c c +.@.+.c c +.c x c O.@.@.+.i i i i t r r e r l u i l u v l u i v i u u u i i c c +.@.+.c c O.c c c O.@.@.O.i i x c i i i > > O.O.d +.d > ",
"> d +.@.c > c c +.O.c i +.+.+.+.@.@.+.+.@.@.+.@.O.c i i i t i i > s +.+.O.+.O.O.+.+.@.@.O.i i +.+.+.i i O.@.O.@.+.@.@.O.@.@.@.@.O.c i i > i > i > s +.+.O.O.d s ",
"s d @.O.c : : c @.@.@.+.+.+.c +.@.@.@.@.@.@.+.@.@.+.x i > i i c c c c +.@.+.@.+.+.+.+.O.i > i c @.@.@.+.@.@.c @.@.@.@.@.@.@.+.+.@.O.c : > > c c d O.O.O.+.+.O.d ",
"s d +.+.c c > c @.@.+.+.@.+.+.+.@.@.@.@.@.O.c +.@.@.c c c c O.+.+.+.+.O.O.@.@.@.@.+.+.O.+.i i i @.@.@.+.+.+.c @.@.@.@.@.+.O.O.+.@.@.c c c c O.+.+.+.+.O.O.@.d d ",
"> O.@.@.@.@.+.@.@.O.c x O.@.@.@.@.+.+.+.O.c x O.+.@.@.@.@.@.@.@.@.@.@.O.c c O.+.+.+.+.@.@.@.+.@.@.O.c c c @.@.@.@.+.+.+.O.c s +.+.@.@.@.@.@.@.@.@.@.@.+.d O.d > ",
"> > O.@.O.c +.@.O.+.c c O.@.@.@.+.c c c +.@.+.c c @.@.@.@.@.+.@.@.+.c +.+.c d c O.c O.@.+.c @.@.O.O.c i +.@.@.@.O.c d c +.@.+.d O.@.@.@.@.+.@.@.@.+.O.O.O.d > : ",
"> > +.@.O.d O.+.@.O.c s O.+.+.O.c c c c +.@.O.c O.@.@.@.@.O.O.@.@.+.c +.@.c c c +.O.+.@.O.i +.+.+.O.c c c +.+.v c O.c c @.+.+.d O.+.@.@.@.O.O.@.+.O.O.+.@.O.> : ",
"> O.@.@.+.c d O.@.c > s d c d d c +.@.@.+.i i +.+.O.@.@.@.c c +.+.@.@.@.@.+.@.@.+.@.@.@.+.c i @.@.O.i i c c i c c +.@.@.+.d s +.@.O.@.@.@.c d +.+.@.@.@.@.O.O.d ",
"> d +.+.O.c O.O.O.O.d s O.+.c d +.+.O.c d O.+.@.O.c +.@.@.O.c +.@.@.O.d d @.@.@.+.+.+.+.+.c c O.O.O.c i O.+.O.d +.+.O.c +.+.+.+.O.c +.@.@.c c +.@.@.+.d O.+.O.O.",
"> d O.O.O.O.@.+.c +.+.c O.@.@.+.+.+.c d O.@.@.O.i c O.@.@.+.+.+.@.@.O.> d @.@.@.c +.c +.c +.+.+.O.+.+.c +.@.@.+.+.+.c d c +.+.c > c O.@.@.+.+.@.@.+.+.> > @.O.> ",
"> d d O.O.@.@.@.@.@.@.@.d c @.+.+.@.@.O.+.O.c i c O.O.+.@.+.+.@.+.O.d O.+.@.O.c c +.c c +.@.@.@.@.@.@.@.c i @.+.O.@.@.O.+.+.c x i O.O.+.@.@.+.@.+.O.O.O.@.@.> > ",
"> > d > c @.+.@.@.@.@.O.c d @.@.+.@.+.+.+.+.c > c +.c d O.c O.+.@.@.O.O.@.@.d d c c s s c +.+.+.@.@.+.O.d c @.@.@.@.+.+.+.+.c s O.+.c c c c O.@.@.+.O.O.@.@.> = ",
"> > > > d O.d +.@.@.O.d O.O.@.@.@.O.O.O.@.@.+.c O.+.c c c > O.+.@.@.O.+.@.@.c c +.c s s c c c +.@.@.+.d O.+.@.@.@.O.O.+.@.+.O.c O.+.O.c s c c +.@.@.O.@.@.+.> : ",
"d > > > > > d O.+.@.O.O.O.O.@.d x c d c @.@.+.+.+.@.@.@.O.+.+.O.d d @.@.@.+.+.@.@.c : s x s c O.+.@.+.O.d O.+.c c d s c @.@.+.O.O.@.@.@.O.+.+.c > d @.@.@.O.O.> ",
": > > > d > d d d > d d d d d d x s s c i O.c c c c O.O.c +.O.c > : O.d > > c c c s : s x s s s d > > d d d d d > s s c c c c O.c c O.O.c c c c > > d d > > > > ",
"= ; > > d d > > : ; > > > > : > c s d s : : > c c > > > > > > > : ; > : - ; : s s > : s s s s : > ; > > > > > > c s c s : : > c d > > > > > x c : ; > : - : - = "
};
