/* XPM */
static char *Group_9_5__resized[] = {
/* columns rows colors chars-per-pixel */
"80 80 226 2 ",
"   c #2E3719",
".  c #211C3C",
"X  c #2C3C29",
"o  c #33312B",
"O  c #2A2A32",
"+  c #2B3433",
"@  c #2D3C33",
"#  c #2C363B",
"$  c #31383B",
"%  c #463B3B",
"&  c #2F4E1B",
"*  c #344A1C",
"=  c #375A1C",
"-  c #37621B",
";  c #3A651C",
":  c #3D6D1D",
">  c #3F711F",
",  c #2E4527",
"<  c #324D23",
"1  c #33472A",
"2  c #345423",
"3  c #365A23",
"4  c #395D24",
"5  c #375628",
"6  c #395C2C",
"7  c #2D4236",
"8  c #334737",
"9  c #395931",
"0  c #3B6423",
"q  c #3E6C23",
"w  c #3D642C",
"e  c #3F692A",
"r  c #3F7220",
"t  c #3F6431",
"y  c #41751F",
"u  c #43781F",
"i  c #44552A",
"p  c #4C5134",
"a  c #4C5835",
"s  c #416C24",
"d  c #446629",
"f  c #416A2D",
"g  c #427620",
"h  c #457727",
"j  c #457C21",
"k  c #406631",
"l  c #486833",
"z  c #55683C",
"x  c #2D2B4A",
"c  c #302D4B",
"v  c #2F3546",
"b  c #343946",
"n  c #33344D",
"m  c #2E2C54",
"M  c #2E3156",
"N  c #373657",
"B  c #373B65",
"V  c #323D6A",
"C  c #44395C",
"Z  c #443967",
"A  c #473975",
"S  c #4B3C79",
"D  c #364545",
"F  c #38425A",
"G  c #2F4267",
"H  c #374666",
"J  c #3B456B",
"K  c #3C526A",
"L  c #364B75",
"P  c #36537B",
"I  c #3C527C",
"U  c #56534C",
"Y  c #61664A",
"T  c #6B7253",
"R  c #575F64",
"E  c #464B72",
"W  c #666C6D",
"Q  c #7B7A64",
"!  c #90126D",
"~  c #AC176E",
"^  c #93287C",
"/  c #B83073",
"(  c #C32A71",
")  c #B6477B",
"_  c #827A68",
"`  c #CC537C",
"'  c #478022",
"]  c #498423",
"[  c #4C8A24",
"{  c #888470",
"}  c #8A8875",
"|  c #513F81",
" . c #722C8B",
".. c #3B5885",
"X. c #3B5A85",
"o. c #3D628C",
"O. c #3F6694",
"+. c #4B4988",
"@. c #53468A",
"#. c #445B88",
"$. c #5A4D98",
"%. c #4B5894",
"&. c #53579B",
"*. c #6A438B",
"=. c #674794",
"-. c #79469B",
";. c #43638D",
":. c #4C628D",
">. c #436492",
",. c #4A6693",
"<. c #456A96",
"1. c #4B6A96",
"2. c #466D9A",
"3. c #4A6D9B",
"4. c #546C9B",
"5. c #4B729C",
"6. c #547391",
"7. c #676C86",
"8. c #5C58A4",
"9. c #6352A3",
"0. c #655AAB",
"q. c #7353A9",
"w. c #745AB3",
"e. c #5366A2",
"r. c #4C75A2",
"t. c #4C7AA7",
"y. c #5579AA",
"u. c #597DB3",
"i. c #656EB5",
"p. c #6A69B7",
"a. c #7566B8",
"s. c #7376BE",
"d. c #746CC2",
"f. c #7679C5",
"g. c #B11F83",
"h. c #8F2F8B",
"j. c #883995",
"k. c #AC268A",
"l. c #CB348D",
"z. c #8A4A99",
"x. c #A6548C",
"c. c #A6619E",
"v. c #8A54AE",
"b. c #8A6DB7",
"n. c #D94594",
"m. c #E25496",
"M. c #D46881",
"N. c #E96F90",
"B. c #F171A2",
"V. c #8F5EC9",
"C. c #975BC4",
"Z. c #A05CCD",
"A. c #906FCC",
"S. c #A564D5",
"D. c #4E82AD",
"F. c #5284AE",
"G. c #5385B2",
"H. c #558AB4",
"J. c #5A87B8",
"K. c #568DB9",
"L. c #5A93BC",
"P. c #5A94BD",
"I. c #6282B8",
"U. c #5F8EC2",
"Y. c #5D98C3",
"T. c #668AC6",
"R. c #7387CC",
"E. c #6A93CD",
"W. c #629ACA",
"Q. c #778AD5",
"!. c #6C99D3",
"~. c #6C9AD5",
"^. c #7597D6",
"/. c #719DDB",
"(. c #69A6D6",
"). c #67ABD1",
"_. c #73A3D5",
"`. c #71A2DE",
"'. c #77B9DA",
"]. c #7B9BE4",
"[. c #74A5E2",
"{. c #73ACE6",
"}. c #78AAE8",
"|. c #6EB8E5",
" X c #72B3EC",
".X c #78B6E9",
"XX c #7CC2DD",
"oX c #76C4EC",
"OX c #79CDF6",
"+X c #7BD0F9",
"@X c #989685",
"#X c #A39C8D",
"$X c #A49D91",
"%X c #ABA496",
"&X c #B6AD95",
"*X c #B2AD9C",
"=X c #9E9DA6",
"-X c #B6AFA0",
";X c #BAB4A6",
":X c #FB94A4",
">X c #FC95AB",
",X c #C1BBA8",
"<X c #C3BBB0",
"1X c #C8C3B5",
"2X c #D2CBB4",
"3X c #8787CA",
"4X c #8398D9",
"5X c #8FB0DA",
"6X c #889EE3",
"7X c #84A6E7",
"8X c #89B0EC",
"9X c #85BCF6",
"0X c #86C9FB",
"qX c #8CD3F0",
"wX c #89D7FB",
"eX c #89E5FC",
"rX c #95E4FA",
"tX c #9BECFE",
"yX c #9EF4FE",
"uX c #A0EEFF",
"iX c #A2F5FF",
"pX c #D2CEC1",
"aX c #DAD7CA",
"sX c #E2DECD",
"dX c #E7E5D8",
"fX c #F5F4ED",
/* pixels */
"& - y > > > y y y ; > y u u u > > y u y : : > j u y u u r : : > > > y > > j y : - ; u > > > > > > : : > u > u > > u u > > : > u y y y y > : : : y y u > y u : = ",
"; : > y u g > > y > > u u y u > y g y > > > y g y > > > : g j j ' g y > > u ' j g y > y y y > > u > > u g u g > > u u > > > > u y : : > > y j j u j y : y u y ; ",
"u u y u j j : y > u u j ' g j g g g y : y u j g > r : r g ' [ [ [ ' y : > j ] [ [ ' g j ' j > > > > u ' j j j r g g > > > > u g y y s y y ] ] [ [ j y > y j u y ",
"y u ] [ ] ] y y u u u ' ] [ [ [ ] ' g : u ] [ ] ' ' ' ] ] ' ] ] ] ] ] u u ' ] ' ] ] ] ] ] ' u y ' u u ' ] [ [ [ [ ' > > ' ] [ [ ] u ' ] ] j ] ] ] ] ] u u ] u y ",
"> u ' ' ] [ ] ] ' j j ] [ [ [ ] ] [ ] ] [ [ [ [ [ [ [ [ ] ' j ' j j ] ] j ' ] ] ] ' ' ' ] [ ] ' ] u j ' [ [ [ ] [ ] ] ] [ [ [ [ [ ] [ [ [ j j j j j [ j j j u y ",
"y y y y ' [ [ [ ] ] ' ] [ ] ' j j [ [ [ [ [ [ [ [ [ [ ] ] j g j > r ] [ ] j ' [ ] j y g ' [ [ [ [ ] ] ] [ [ j j ' [ [ [ [ [ [ [ [ [ [ [ ] j j j : g [ [ [ j g y ",
": : y u u u ' u j g g g g j ] ] ] ] ] u u ' u ] ] [ [ [ ] u y g : > ' [ [ j y g j u > j ' j ' j u u r j r j ] [ ] ] j g j ' ' ] ] [ [ [ ] g j g > : j [ [ j : ; ",
": : y ' ' y u y > > > r > > j ] ] ] j u u u u y j [ [ [ [ ' ' ' g j ] [ [ g > y ' g y ' j > g > > > > > > > j ] ] ' ' j r g j > j [ [ [ ] ] j ] j u ] [ [ g : - ",
": > > ' ' > > > > > > > > > > r ' u [ [ [ u y y u [ [ [ [ [ [ [ ] ] ] [ ] r g j j j g ' g > > > > r > > > > q j ] ' ] [ [ ' > > g [ [ [ [ [ [ [ ] ] [ [ ] y : : ",
": > u ' ' r > > > r > > u j r ] [ ' [ [ [ [ ' ] [ [ [ [ [ ] [ ] j y g ] ] j ] [ j g g j j u > > > > > > g j j j ] ' [ [ [ ] ' ] [ [ [ [ ] ] ] ] g g j ] ] j u u ",
"> > > ] ] ' > > g g j j j ' [ [ [ ] [ [ [ ] ] [ [ [ [ [ u u ] ] r : r j [ ] [ [ ] g g ' ] ] u y g j j g j ' ] [ [ ] [ [ [ ] ] [ [ [ [ [ j j ] ] g : : j [ ] u u ",
"u > > [ [ [ ' r ] [ [ [ ] ] [ [ ] ' [ [ u ' [ u u [ [ u u ] [ [ g : > ] [ g j [ [ ' g ] [ [ j g ' [ [ [ ] ] [ [ [ ' ] [ r ' ] ' ] [ [ j y j [ [ g : y ] ] u y y ",
"> > > ' [ [ [ ' > g ] [ ' ' [ ' u [ [ ' u [ [ [ [ [ [ [ ] [ [ [ ] ' ] [ [ j j j ' g u ' ] [ [ ' > y ' ] j y ] j j ] [ [ [ [ [ ] ] [ [ [ ] [ [ [ ] j ] [ [ j y s ",
": > u ' ] [ [ ] > > j [ ' j ] ' u [ u ; y u [ u ] [ [ [ [ [ [ [ ] ] [ [ ] j ] ] j j j j ] [ [ ] y : : 0 2 3 g g ' ] ' j [ [ [ ' ] ] [ [ [ [ [ [ ] ] [ [ ] ] u y ",
"u u ' [ [ [ ] ] [ ] j [ ] j ' [ [ ' d   * s ] u y j j [ [ [ [ u j j j ] ] ] ] [ ] ] ] ] [ [ ] ] ] : < + O + 2 r [ ' > > j [ [ j g j ] [ [ [ [ j j j ] j j ] j u ",
"> u [ ' [ [ ] [ [ [ ] ] ' ] ] [ ] ; a Y T z s y s j j u u u ] ] ] ] ] ] [ [ [ [ ] ] ] ] ] [ ] j g w D F H F D w r > > > r j j > g g j j j j ] ] ] j ] [ [ [ ] u ",
"> u ] u j [ ] ] ] [ ] g j ] [ ] y i T $X%XQ a 0 y u u u u u ' [ [ [ [ [ [ [ [ [ ' ] ] u u [ j : 4 D K 1.1.#.H D 4 0 > g r g g g j j j j j j j [ [ [ [ [ [ [ j u ",
"u u y > y ' j ' ] g : g > g u y i z $XsXdX%XY 2 : ] ] [ [ [ [ [ ] ] ] > g j j ] ] u > ; y j > 3 @ H 6.H.K.r.E H $ 3 > j ' ] [ [ ] [ ] [ [ [ [ [ [ [ [ j g ] j u ",
"y u ] u y g g j j g g j g : ; z T #XaXfXdX%XU = : ] [ ] ] ] [ [ u : = < , * = = = & < , 3 > > 2 O H 1.K.K.t.#.B v < q ] j j ] [ [ [ [ ] j j [ [ j j ] u y u u u ",
"> u [ ' j j j j j g j ] g - * Y #XaXfXfXdX#XY i s [ [ ] u u u ' ; < + O + + + X + + + # 1 ; > 2 O H ,.F.t.<...V b 5 r ] j j ' [ [ [ [ ] j j ] ] u u j j u y u u ",
"g j ] ] [ [ ] ] ] u y : y - * T #XsXdXsX<X%X_ z d u ' ] j s ; > 2 8 F J J H H E J K E H D 1 4 2 $ L >.<.>.I N v 7 3 g [ [ [ [ ' j [ ] [ [ [ [ [ [ [ [ [ [ j u u ",
"u j ] [ [ ] ] ] ] ] j j u y y z _ #X%X#X#X-X,X} z = u u s 5 , , D K ;.2.1.,.,.,.3.1.,.#.K D 7 D K ;.<.X.I G v 5 0 : j [ [ ' ' ] ] ] j ] ] ] ] ] ] [ ] [ [ j u u ",
"> u [ ] ] ' ] [ [ [ [ [ [ [ [ g d a p U _ *XaX,X{ i q - < v M x F ;.H.P.Y.K.H.H.H.G.G.t.;.H n H #.2.>.I V n 7 d u y j j j y y [ [ j j j y g u j u g u ] [ j j u ",
"u u j ] ] [ ] j ] ] [ [ [ [ [ g s i * < p _ &X2X-XQ a , # K P K :.H.).|.|.).W.P.L.L.L.H.5.;.I ;.6.>.P M m n 1 ; j u g y g g ' [ ] y g j j g u y y y j j [ ] j s ",
"y u ] ] ] ' j j j j j j ] [ ] j y s - - d z Q %X;X#XR b G 5.D.D.K.).oX+XOX|.W.P.H.H.L.K.F.5.1.5.t.;.J m x c , 3 y u > > ' ' [ [ j y y y u y y y > > ' ' ' ' u > ",
"> u ] [ ' > g ' ] ' g r j [ ' ' j [ ] u j - i Q #X=X7.E o.H.Y.).).oX+XOXoX).P.G.F.F.H.H.H.F.t.t.r.>.L N m c + 1 0 q 0 r ] [ [ [ ] u y y s y y y > u ' ' ' ' ' > ",
"y j ] ] > > > u [ [ [ ] ] ] j ] [ [ [ [ [ u 0 a R 7.6.4.D.K.Y.|.oX+XOX|.).K.H.D.F.F.F.G.F.D.5.5.r.2.>.I B c O O + @ 7 w ] [ ] ] [ ] y y y y y u u ' ' ' ' [ ' > ",
"y j ] ' ' j > u [ [ [ ] [ ] ' [ [ [ [ [ ] ' y = 8 J 6.H.K.P.Y.XX+XwXOX|.W.P.P.P.L.Y.Y.L.L.t.2.<.5.r.r.1.I N x x N N n 8 w g ' ] u y y y y u u [ ] ] ' ' ' [ ' u ",
"> u ] [ [ [ ] [ [ ] j u ' [ [ [ [ ] ] ] ] u : & @ V 2.K.P.H.Y.XXeXrXqXqXXX'.'.XX5XXX'..X(.G.<.>.2.t.t.r.X.L V L E ;.P H 7 3 > ' u = ; s [ [ [ [ [ [ [ ' j ' u > ",
": u ' [ ] j ] [ ] ' ' g ] [ [ [ ] u u u ] ] r < # V 1.F.P.Y.).eXyXyXrXrXrXqXqXrXrXrXrXqX.XW.t.2.2.5.r.5.o.....o.5.D.1.E N 8 = ; d Y z l ' ] ] [ [ ] ' ' ' j > ; ",
"> u ] [ ' u u [ ] ' g g ' ] ] ] u u j u ] u i 8 F I <.D.P.XXXXeXyXiXuXuXiXiXiXiXuXuXrXeXwX.XY.G.5.<.;.>.X.X.O.2.D.5.I E C O & * T @X} T s y u [ ] ] u [ [ u > > ",
"y ' [ [ ] ' u ] [ ' r g u u r g j [ [ [ y * @ F I >.;.t.).qXyXyXyXyXyXtXyXiXiXiXrXwXwXwXwXqXoXW.D.;.X...X.X.O.r.t.R U % % o   a } aX1X} i = : ] [ [ [ [ [ ] ' u ",
"> u ] ] ] u ' ' ' ' j > ' ] j j ] ] j g - 1 c J o.t.G.P._.5X5X5X5XrXtXyXrXrXrXrXeXwX9X[.4X4X`.^.L.r.X.L L ..X.>.6.W _ _ _ _ _ } ;XpX-XQ 5 = > ] [ [ ] u j [ ' u ",
"> y ' ' ' ' [ ] ' ] ] u ] [ [ ] ] [ j g = 7 c J <.H.)._.4Xb.z.z.3X5XwXrXeXwXwXwXeX0X7XA.v.z.v.A.E.H.O.L L L L K W { #X,X&X<XpXaX1X%XQ z s > j ] [ ] ' u > [ ' > ",
"> y ' j ' [ [ [ [ [ [ [ g g [ ] ] [ ] j 0 1 v J 2.Y..X6Xb.^ ! ! ^ b.9X0X0X0X9X0XwX9X3Xx.! ! ^ v.R.T.D.X.X.P H D Y _ <XsXsXfXfXdX;X{ a = ] ] ] [ ] ' j ' [ [ j > ",
"> > > > j [ ] ] [ [ [ ] j j [ [ ] [ [ j : , v #.J.`.4X3Xc.` / / k.z.b.7X9X0XwX9X}.3Xc.x./ / ~ j.v.a.u.t.O.X.B v U _ %X,X,X<X<X<X;X%XQ z d : y [ [ [ j ] [ [ > - ",
"> > > > r ' ' ] [ [ ] u j ] ] [ ] ] j j : , b r._.7Xb.j.) M.N.m.l.k.h.a.6XwXeX9Xf.z.k.` N.N.n.k.h.z.i.U.u.O.G m C U _ _ _ _ _ { &X2X*XQ * = y ] [ ] ] ] [ ] > - ",
"u y > y > > u ] [ ] ] ' j ' ] ' g j j g ; , n H..X6Xj.~ ( N.>X>Xm.~ ! -.4XrXeX8Xw.! ~ ` :X>XB.( ! h.a.`.Y.O.G m O o * * i * * p } ,X-X{ i d u u u u [ [ [ ] j u ",
"u u u u j ' j ' j ' ' ' ] j ' ' j j j j - , M J.8X8X-.! ( B.>X>XM./ ! -.^.eXeX9Xw.! ~ m.:X>X:X` ~ h.w.~.U.O.V m O o = s = = = i Y { { Y i y ] ] y y [ ] u u u g ",
"> u ' ] [ [ ' ' j j u ] ] ] j ] [ [ [ ] = X n u.}.7Xv.h.g.l.B.N.` ) h.b.6XeXwX8Xa.j.~ l.m.B.N.` ^ j.d.!.U.O.G M $ i u [ u u ] u d i i s ' ' ] ] u u ] u y u u > ",
"- > ] ] ] ] ] ] ] j j [ ] [ ] ] [ ] [ ' - X v 5./.7XQ.v.h.g.( ( ) c.A.7X9XwX0X7XQ.a.j.k./ ( / x.v.d.Q.~.G.O.V m $ 5 j ] j j ] ] g 2 s s u ] j ] ] [ [ j ] [ j : ",
": y j j u ] j u j j j ] ' ' ] j j j j g = X n :.!.}.}.R.v.h.! ! x.b.8X0X0X0X}.`.`.E.b.j.! ! h.z.s.]. X~.J.%.V m # 2 : u j j j ] y - : y u u ] ] ] ] j j u ] ] y ",
"u u y j ' j > : y g j ' j j g g g j g ; = X n #.E. X X[.s.=. . .q.^.OXwX0X}.`.`.|.{.E.q. . . .p.~. X X`.f.2.| m # < = : y y j y y y : y u u [ [ [ j y : y j u u ",
"> u ] [ ] ' g y g y y j ] [ [ [ [ j g : = X n :.E. X X`.R.f.s.s.R.^.{.{.}.[././.`.`.^.R.f.f.R.R./. X X`.f.p.| B v < - y j ] [ ] ] j ] ] ] ' ] ] ] ] ] u y j y y ",
"> y ' ' ] [ ] ' ] j j ' [ [ ] [ ] ] ] u : X c :.f.}.}.[.`.`.`.`./._./.`.[.}.}.[.`.`./.`.`.`.`.[.[.`.~.T.f.d.$.B # 2 : ' ] [ [ [ ] ] [ [ [ j j j j j ] ] j j j y ",
"> y y g ' [ [ [ ] ] ] ' [ ] j j ] [ [ ] : , x @.d.Q.].[. X{. X{.[.`././.[.}.}.}.[.`.`.[.{.{.{.}.}.~.J.r.i.w.9.A v 2 y [ [ [ [ [ [ [ [ [ j j j j y g ] [ ] j u y ",
": > g j j j j j j g g g j j ] ] ] ] j u - , # A 8.p.T.~.`.`.[.[.[.`./.!.E.E.E.R.!./.[.[.[.[.`.[./.J.3.#.&.9.@.Z $ 2 : g j j ] ] [ [ [ ] [ g g j y y j [ [ j y ; ",
": > y ' j y g y > r > g : g j ] ] ] u u : 2 $ C S $.e.u.U.`.[.[.}.[./.T.y.%.:.4.I.!.[.}.[.}./.W.J.r.%.+.@.| E F 8 0 y j g j g g j [ [ [ [ ] j j g g ] [ ] g ; - ",
": y y u j > > > > > > > r > : g ' ' ] [ ' q 9 b n B L ,.u./.[.[.}.}.^.u.L m x V e.E.}.].}.}.`.u.2.%.%.8.@.Z n 8 t r j [ [ j g r j [ [ [ [ [ [ [ [ ] [ [ ] y : : ",
": : u u j y > > : > > > g j r ] ] ] ] ' j h w 7 v M V &.T.`.`.W.~././.y.J . . V e.~.}.E.E././.U.>.8.w.v.=.B + 1 f h j ] [ ] j ] ] [ [ ] ] ] ] ] j u j j ] ] g u ",
": y u ' ] ] y y g j j j j ' [ [ [ ' ' j h e e 1 $ m | 8.Q.`.W.y.u.T./.u...x m G y.E./.u.t.U.~.u.8.w.V.Z.-.N + 2 f h h h ] ] ] [ [ [ [ ] j j ] ] g : y j ] ] j u ",
"u y u [ [ [ j j ] ] [ [ ] ] [ [ [ ' h e t w e 8 b B | 0.f.Q.J.>.>.t.T.u.O.L G X.u.U.u.o.O.t.!.Q.d.V.Z.C.=.N 7 6 f t e h g j [ j ] [ [ ] u j [ [ g : g j [ y y y ",
": y u ] ] [ [ ] > j ] [ ' j [ ] j ] j e t t e 9 8 b Z @.p.f.i.X.X.o.r.2.o.P P X.2.r.<.P P <.d.A.A.S.v.*.S U 9 6 6 t f s j [ [ ] ] [ [ [ ] ] [ [ j j ] [ [ j g y ",
": y u u ] [ [ ] g r j [ ' j ] ' j ] h 0 k t e e i 9 b Z $.0.8.%...P o.X...........o.......8.p.A.S.C.*.C $ < w w 6 k w q j [ [ ] ] ] [ [ [ [ [ [ [ [ [ [ [ j g y ",
": u ] [ [ [ ] ] [ ' j [ ' ' ' [ [ ' q 3 t t e w 6 6 1 7 C | $.&.&.&.%.%.%.&.&.&.%.%.%.%.8.w.C.Z.C.-.C @ 5 w e e k k 6 3 g [ [ j y j ] [ [ [ [ ' j j j j j ] j g ",
"y u ] ' [ [ ] ] [ [ ] ' ] ] ] [ [ g ; 6 9 6 w 6 6 w 5 8 v N S $.8.0.9.9.0.0.0.8.9.9.&.8.a.V.Z.v.=.Z 8 5 6 e e e k 9 5 4 q g j g y j j j j u ] ] ] j [ [ [ [ j j ",
"> j ] g j [ ] ] ] [ ] j j ] [ [ [ u : 0 6 6 6 6 6 6 e 6 1 b B @.0.0.9.9.9.9.9.9.9.9.9.$.w.C.C.z.B 7 , w w w e k k 6 4 0 g g g g j j j j g j ] [ [ [ [ [ [ ] ' u ",
"u j g > r ' j ] ] g > r > g ' [ [ ] ' g q e t t d e f e k 8 D Z S | S S S S S S S S S A @.*.S E D 1 2 4 6 6 t k k s g g j ] [ ] ] [ ] [ [ [ [ [ [ [ [ ' u ' ' u ",
"y g ' g g g g j j g g j r > ' [ [ [ ] ' r q e f t k f f e 6 9 b M N c n N n n n n n n n n n n D 5 5 6 6 5 5 6 e h h j ] j j ] [ [ [ [ [ j ] ] ] u u ' u > u u u ",
"> j [ ' j j j g g g j ] g r ' ] [ ] ] ] g g e e f k k w w w 6 8 @ + @ @ @ o @ $ @ @ 7 7 + + @ 1 5 w e w 9 9 e e h j [ ] j j ] ] [ [ [ ] j j ] ] u u ' ' u > u u ",
"u j ' [ [ [ ] ' ' u > > > u [ ] ' ' [ [ [ [ ] r e t t t e e t w 6 6 t 6 6 6 9 6 t 9 9 6 9 t 9 w w w 9 5 9 6 e h j j ] [ [ [ [ ] ' ] ] [ [ [ [ [ [ [ [ [ ] ' u u ",
"u j ] [ [ ] ] [ [ ] ' j j ' [ [ ] j j [ ] ' j h s e e e w e t t k t w k f d f k e t e t t e t t t w 0 e e f g ] ] j ' ] ] ] j ] ] ] ] j ] ] ] ] [ ] ' [ [ ] u u ",
"y ' [ ] ' ' ] ] [ [ [ [ [ [ [ [ ] > g ' h > g ] ' q r q 3 6 6 t w 6 6 e f d f f e t e e e e e t t e r h j j j [ ] g g ' g g g [ [ j j g g g j j u u u ] [ ] u u ",
"y u u ' [ [ ] ' j ] [ [ [ [ ] ' j j g g y j ' [ ' r r r q w 6 4 4 6 0 w e e e e e e w e e e e w e e j ] [ [ ] j j j g g y j ] [ ] y g j j j g y y y u ' ' ] u > ",
"y u ] ] ] ] j j j ' j g ] [ ] j j ] j g u ] [ [ ] > r u r q 0 0 0 0 g g e g g g h h s h r r e q r r h j ] [ ] ' j ' j g j ] [ [ ' > > g j g r r > > ' ' ' ' u > ",
"> u ] [ j > g j ' ' g g ' [ ] ] ] [ ] ] [ [ ] [ ] g > > > > r > > g ' ] ' j ' ] j ' ] [ ' > j ' ' ' h r ' ] ' ] ] [ [ ' [ [ ] [ ] g r > > > > > > > [ ' ' ' u > ",
"y u [ ' y > > g [ [ ] ] [ ] ' ] [ [ [ [ [ [ ] [ [ ] r > > > r ' u j j ' ] [ [ [ ] ] ] ' > > > r [ [ [ ' [ ] ' ] [ [ [ [ [ [ ] [ [ ] g > > > j j ' u ' ] ' ] ' u ",
"y u ] ] j j > ' [ [ [ [ ] ] ] ] [ [ [ [ [ ' j ] [ [ ] g > u ' [ ] ] ] ' ] ] ] [ [ ] ] ' ' j r j [ [ [ [ ] ] ' [ [ [ [ [ [ ' j ] [ [ ' g > j ' [ ] ] ' ' ' [ ' u ",
"> ' [ [ [ [ [ ] [ ' j g ' [ [ [ [ ] ] ] ] g > ] [ [ [ [ [ [ [ [ [ [ [ ] j ' ] ] ] ] [ [ [ [ ] [ [ ] ' g ' [ [ [ [ ] ] ] ] g y ' ] [ [ [ [ [ [ [ [ [ [ ' ' ' > > ",
"> > ' [ ] j ] [ ] ' j g ' [ [ [ ] ' g j [ [ ] j ' [ [ [ [ [ [ [ [ ] j ] ' u u u j ' ' [ ] j ] [ ' ] j u ' [ [ [ ' j u j [ [ ] u ' [ [ [ [ [ [ [ [ ] ' ' ' ' > : ",
": > ' [ ] > ' ] [ ' j g j [ ] ' j j j j [ [ ] j ' ] [ [ [ ] ] [ ] ] j [ [ j u ' ' ' ' [ ' g ' [ ] ' j r j [ ] ' ' ' j j ] [ ] u ' ] [ [ [ ] ] [ ] ' ' ] ] ' > : ",
"> ' [ [ [ ' u ' [ ' > > u u u u j ] [ [ ' r > ] [ ' [ [ [ u u ] ] [ [ [ [ ] [ [ [ [ [ [ ] j g ] [ j > u g j r g u ] [ [ ] y y [ [ ' [ [ [ ' > ] ] [ [ [ [ ' ' > ",
"> u [ [ ' j ' ' ' ' u > ' ] ' u ' ] ' j u ' ] [ ' r ] [ [ ' j ] [ [ [ u u [ [ [ ] ] ] ] ' j j ] ] ' j > ' ] u ' ' ] ' u ' ] ] ] ' u [ [ [ ' j ] [ [ ] u ' [ ' ' ",
"> u u ' ' ] [ ] u [ ] j ' [ [ ] ] [ j u ' [ [ ' > j ' [ [ ] ' [ [ ' ' > > [ [ [ ] j j ] ' ' [ ] j [ [ g ] [ [ ] ] ] ' u j [ ] j > j ' [ [ ] ' [ [ ] ] > > [ ' > ",
"> u u ' ] [ [ [ [ [ [ [ u j [ ] ' [ [ ' ] ' j > ' ' ' ] [ [ ] [ [ ' ' ' [ [ ' ' j j j j ] [ [ [ [ [ [ [ u u [ ' ' [ [ ' ' ' j > > ' j ] [ [ ] [ ] ' ' ' [ [ > : ",
"> > u > u ] ] [ [ [ [ ] u u [ [ [ [ ] ] ] ] ' > j ] u j ' > ' [ [ ' ' ' [ [ u > ] j y y j ] ] ] [ [ [ ' u ' [ [ [ [ ] ] [ ] j u ' ] j j j j ' [ [ ] ' ' [ [ > - ",
"> > > > u u ' ' [ [ ' ' u ' [ [ ] ] ' ] [ [ ] u ' [ ] r > > ' [ [ [ ] ] [ [ j g ] j y y g j j ' [ [ ' u ' ' [ [ [ ' ] ] [ [ ' j ' [ ' g u g j ] [ [ ' [ [ [ > : ",
"u > > u > u u ] ] ] ' ' ' ' ] ' g g u u [ [ [ ' ' [ [ [ ] [ [ ' > u [ [ [ ] ] [ [ u : y g y j ] ] [ [ ' ' ' ] ' g u g j [ [ ] ] ' [ [ [ ' [ [ j u > [ [ [ ' ' > ",
": : > > u > u u u > > u u u u u y u u g r ' u ' j j ] ' u ] r ' : : ' u > > j ' j g > y y g y u > > u > > u u u > y u g j j j j j ' ' ' j j ' j > > u u > > > : ",
"- - > > > u > > : : > > > > : > g u g u : > > ' > > > > > > > > : : > : - ; : y y : : y y y y > > - > > > > > > j u g u : : > u > > > > > > > u : - > : - : - - "
};
