/* XPM */
static char *Group_9_10__resized[] = {
/* columns rows colors chars-per-pixel */
"80 80 196 2 ",
"   c #2A3E27",
".  c #233C35",
"X  c #243F39",
"o  c #2B4D1F",
"O  c #2E521C",
"+  c #30561D",
"@  c #335C1D",
"#  c #37631C",
"$  c #39661D",
"%  c #3C6D1D",
"&  c #3F711F",
"*  c #264625",
"=  c #2A4525",
"-  c #2A4C24",
";  c #26442B",
":  c #2B452D",
">  c #2A4A2C",
",  c #314A23",
"<  c #324E2E",
"1  c #2E5224",
"2  c #2E542B",
"3  c #335523",
"4  c #345C22",
"5  c #385E26",
"6  c #35532D",
"7  c #34592A",
"8  c #3A5D2C",
"9  c #264431",
"0  c #2A4633",
"q  c #274830",
"w  c #2A4933",
"e  c #26443B",
"r  c #2A4539",
"t  c #2A4B3A",
"y  c #314E38",
"u  c #2E5634",
"i  c #2D533E",
"p  c #345333",
"a  c #3A5D31",
"s  c #33523B",
"d  c #35593D",
"f  c #366122",
"g  c #3A6324",
"h  c #3D6D22",
"j  c #3D632C",
"k  c #3F7221",
"l  c #3D6230",
"z  c #41751F",
"x  c #43781F",
"c  c #406F26",
"v  c #40672E",
"b  c #416B2C",
"n  c #417620",
"m  c #457C21",
"M  c #43702C",
"N  c #406531",
"B  c #416830",
"V  c #254443",
"C  c #2C4D43",
"Z  c #2A4E4B",
"A  c #2E5547",
"S  c #2F5C41",
"D  c #2D524C",
"F  c #2F5849",
"G  c #335C44",
"H  c #32584C",
"J  c #2C5352",
"K  c #2D5B58",
"L  c #325C54",
"P  c #335E5A",
"I  c #37644C",
"U  c #34635B",
"Y  c #386D5A",
"T  c #3A735E",
"R  c #346866",
"E  c #396C62",
"W  c #3B7466",
"Q  c #3C756C",
"!  c #376E74",
"~  c #3B7874",
"^  c #467B69",
"/  c #4B7C6B",
"(  c #407D73",
")  c #478022",
"_  c #498423",
"`  c #4C8A24",
"'  c #3F8079",
"]  c #428376",
"[  c #4C8172",
"{  c #43837B",
"}  c #468C7C",
"|  c #4C8D7D",
" . c #518772",
".. c #4A927E",
"X. c #4D9B7D",
"o. c #3D7982",
"O. c #3F8680",
"+. c #418B84",
"@. c #438986",
"#. c #4C9581",
"$. c #4F9D84",
"%. c #46958C",
"&. c #4F9F88",
"*. c #569482",
"=. c #509F85",
"-. c #509F88",
";. c #458F9A",
":. c #469695",
">. c #499C93",
",. c #4FA087",
"<. c #4FA089",
"1. c #50A086",
"2. c #51A38A",
"3. c #54A98E",
"4. c #4CA49B",
"5. c #55AD93",
"6. c #53AB95",
"7. c #57B092",
"8. c #59B494",
"9. c #5CBA97",
"0. c #56B39B",
"q. c #58B59D",
"w. c #5DBD99",
"e. c #6AAE93",
"r. c #6CB397",
"t. c #76BA9B",
"y. c #479BA8",
"u. c #52ADA1",
"i. c #53B3A5",
"p. c #59BCA6",
"a. c #55B7A9",
"s. c #56BAAB",
"d. c #59BDA9",
"f. c #4CA4B3",
"g. c #56BCB1",
"h. c #5EC59C",
"j. c #61C69D",
"k. c #62C99F",
"l. c #5CC0A7",
"z. c #5CC3AD",
"x. c #5CC6B4",
"c. c #5DC8B6",
"v. c #5DCBBA",
"b. c #64CCA1",
"n. c #6ACEA3",
"m. c #78C9A7",
"M. c #65D1A4",
"N. c #6CD0A5",
"B. c #6BDAAA",
"V. c #75D6AA",
"C. c #75DAAC",
"Z. c #79DAAC",
"A. c #60CEBC",
"S. c #72E2B0",
"D. c #5CC9C6",
"F. c #5AC7D6",
"G. c #5BCCDC",
"H. c #61D4C5",
"J. c #62D8CD",
"K. c #63DCDA",
"L. c #61DBE5",
"P. c #68E7E9",
"I. c #67E7F3",
"U. c #81CFAD",
"Y. c #80DFB0",
"T. c #8ADAB4",
"R. c #95DDB2",
"E. c #84E2B3",
"W. c #89E5B6",
"Q. c #88ECBA",
"!. c #96E5B9",
"~. c #94EEBD",
"^. c #99EFBF",
"/. c #96F0BF",
"(. c #9AF1BF",
"). c #A3F3BF",
"_. c #ADF6BF",
"`. c #B2F6BF",
"'. c #C1FBBE",
"]. c #D1FEBE",
"[. c #94EEC0",
"{. c #95F1C1",
"}. c #9BF3C1",
"|. c #9EF9C7",
" X c #9EF9C9",
".X c #A1F6C5",
"XX c #A5FCCB",
"oX c #A9FACB",
"OX c #B7FAC5",
"+X c #B4FDCB",
"@X c #C4FCC1",
"#X c #CBFEC4",
"$X c #D4FEC2",
"%X c #D9FFC1",
"&X c #D5FECA",
"*X c #C7FDD0",
/* pixels */
"O # z % z z % z z % % z z z x z & z x z % % & m x x x x & % % % & z z z & m z % # % z % % z & z z % % z x x x x & z z z % % & m x z x z z $ z z % z n z z x $ + ",
"$ % z z x n z % z % z m x z z z & n z & & & x n & & & & & n m m m n z % & x ) m n z z z z z & & z % z x n n z & & x z & & & & x z z z c z z x x x x z % z m z z ",
"x x z x m m z z z z x ) m m m z n m k % & x m n k & % k n ) ` ` ` ) z & & m _ ` ` ) n m m m z z z z x ) m m n n z n n % x n m n x z c z z ) ` ` ` m z z z m x x ",
"z x _ ` _ m z z x z z ) _ ` ` ` _ ) n & x _ ` _ ) ) ) _ ) ) ) ` ` _ ) x x ) _ ) ) ) ` ` ` m z z x z z ) _ ` ` ` _ ) x & m _ ` _ x _ x _ x _ ) ` ` ` m z x m x z ",
"z z x _ _ ` _ _ _ m m ) ` ` ` _ ` _ ) ) ` ` ` ` ` ` ` ` _ ) m ) m m ` ) m ) ) _ ) ) ) m ` ` ) ) ) x m ) ` ` ` _ ` _ _ _ _ ` ` ` ` _ ` ` _ m m m m m _ _ m m x z ",
"z z z z _ ` ` ` _ _ ) _ ` _ m m m ` ` ` ` ` ` ` ` ` ` _ ) m m n k n ) ` _ m ) ` ) m z n m ` ` ` _ ` _ _ ` ` ) n ) _ ` ` ` ` ` ` ` ` ` ` _ m m m z z ` ` ` m z z ",
"% z z x x x _ m m n n n n m _ ` _ ` ) n n m m _ _ ` ` ` _ x x n % & ) ` ` m n n m m z m m ) m m m x n n n m _ _ _ _ m n n m _ _ _ ` ` ` _ m n m % z m ` ` m z $ ",
"% % z x x x z z z & & k & z m ) ` ) m m n m m z m ` ` ` ` ) ) ) m x ) ` ` n z z m m n m m n z z & & & & & & m ` _ _ m m m m n n m ` ` ` ` m m _ n x m ` _ n $ $ ",
"& & x ) m & & & & & & z & & % m _ ) _ ` ` ) z z z ` ` ` ` ` ` ` ) ) ` ` _ h n m m m n m m z % & & & & & & & & k _ ) _ ` ` ) & & n ` ` ` ` ` ` ` _ _ ` ` ) z % % ",
"% & & x m m & & & k & & n m k ) _ ) _ ` ` _ m _ ` ` ` ` ` _ _ _ m n m ) ` _ _ ` m n x m m n z % & & & & k ) k ) _ ) ` ` ` _ ) _ ` ` ` ` _ _ _ _ m n m _ ` m x z ",
"& & n _ _ ) k & z m m n m _ _ ` ` ) ` ` ` _ _ ` ` ` ` ` x ) _ _ n $ % m ` m ` ` ) m z m ` ) n z k ) ) & ) ) _ ` ` _ _ ` _ _ _ ` ` ` ` ` m m _ ` n $ % m ` ) m x ",
"x & & ` ` ` m n ) ` ` ` _ _ ` ` ` ) ` ` m ) ` m ) ` ` ) z ) ` ` n % & ` ` n m ` ` m n ` ` ` m m _ ` ` ` _ _ ` ` ` ) ` ` ) ) _ ) _ ` ` m z m ` ` n % z ) ` n z z ",
"& & z ) ` ` ` ) & n _ ` ) m ` _ m ` ` ` ` ` ` ) ` ` ` ` _ ` ` ` _ m _ ` ` m m _ ) m n m ` ` ` ) & m _ ` ) ) ` ) ) _ ` _ _ ` ` _ ` ` ` ` _ ` ` ` _ m ` ` ` m z z ",
"% & x x ` ` ` _ x k m ` ) m _ ) m ` m m ` ` ` ) ) ` ` ` ` ` ` _ ` ` ` ` ` m _ m m m m m ` ` ` ) & & ) ` ) m _ ) m _ _ ) _ ` ` _ m ` ` ` ` ` ` ` ` _ ` ` ` ) n z ",
"z x _ ` ` ` _ ) ` ) m ` _ m ) ` ` m n % m ` ` m z m ) ` ` ` ` ) m m _ m m _ ` ` _ m ) ` ` ` ) _ _ ) ) _ _ m _ ` ` _ & & ) ` ` m n m _ ` ` ` ` m m m m m m ) m x ",
"& x ` _ _ ` _ ` ` ` _ ) _ _ ` ` ` n z z n n m z z n m m x m ) _ _ m _ ` ` ` ` _ ) ` ` ) ` ` ` ) ` ` _ _ _ _ ` ` ` & & & & k ) k n n m m n m _ ` _ m _ ` ` ` ) x ",
"& x _ x m ` _ _ ` ` m m m ) ` ` ` n x z n z n n n n m n n m ) ` _ ` _ _ _ ` ` ` ) _ ` n m ` ` _ _ ` _ ) ) _ ` ` ` k & & & & m & n m m n n m ) ` ` ` ` ` ` ` m x ",
"x x n & z ) m ) ` n k k & n ) ` ` _ ) x ) _ ` ` ` ` ` ` ` ` ` _ ) k & $ % ) ` ` ` ) x & n m m ) _ k & & & k _ ` ` ` ) ) _ ` ` ` ` ` ` ` ` ` ` ` ` ` ` x n ) ) x ",
"z x ) x z x m m m n n m z & ) ` ` ` ` ) m m _ ` ` ` ` _ ) ` ) & @ - - - + % _ ` _ _ ) n x n n m ) & & ) & & ) ` ` ` ` _ & ) ` ` ` ` ` ` ) _ _ ` ) x _ x z n x x ",
"& x ` ) m m m n n n m _ n & ) ` ` _ _ ` m m ) ` ` ` ` ) n x z g q X V e - @ & ` m m _ n n n z z k & m ) & & ) ` ` _ _ _ ) ) ) ` ` ` ` ) x m _ _ x z m ) n z z x ",
"m m ) ` ` ` ) ) ) m z % % n ` ` ) ) _ ` ` ` ` ) ) ` ) ` ` m g u F R Q E S 7 $ & % $ $ $ g $ $ & ) & & & % & _ _ ) ) _ ` ` ` ` ) ) ` _ ` ` ` ` ` ` ` ` ` ` m m x ",
"z m ) ` ` ` ` ` ` ) m m m m ` ` ) m ) ` ` ) ) ) ) _ ) ) n f 2 F W ..<.X.W i - - - - * - - ; - f & _ ) m ) _ ` ` _ m ) ` _ ) ) _ _ ) ) ) _ _ _ ` ` _ ) ` ` ` x x ",
"z x ` _ ) _ ) ` ` ` ` ` ` ` ` ` _ n n m m n z ` ` m m % + ; C E } 3.l.h.X.T e . e e e e e V t 6 k ) _ _ _ _ ` ` _ & & _ x & & ` ` m m m k k m m x z z _ ` ) m x ",
"x x m ) ` ` m m ) ` ` ` ` ` ` m m m n n z m ) ` ` & $ 4 > A E #.7.h.M.M.r.1.[ / / [ [ ] | | ^ I 7 f @ @ % ) _ ) m m ) & & ) _ ` ` & n n m m m n z z m ) ) _ x z ",
"z x ) ` ` ) m m m m m n ` ` ) m m ) m m m ) ` ` ) $ + > A E } 5.h.k.M.M.N.k.m.t.m.t.t.t.m.m.r. .G : * : 1 h m ) m ) m k ) ) ` ` ) & n n n n & & & & ) ) ) ) x & ",
"% m ` ` ) & n m _ _ n k m ` _ _ _ ` ` ) ` ` ` _ n 4 ; A W } 3.w.j.k.j.n.C.E.^.)././.(.^..XoX!.t.[ J V H i 7 n ) _ _ _ ) ` ` ` ` _ n & & k & & & & z _ _ ) ) x z ",
"z m ) m x % & m ` ` ` ` ` ) m _ ` ` ` ` ` ` ) x f > C E #.3.h.h.k.k.N.C.W.{..XXXXXXX+X+X*X*X+XT.r.*.| *./ G 1 $ _ ` ` ` ` ` ` _ ` _ n % & & x m m m x _ _ _ ) x ",
"z m ` ) m x z x ` ` ` ` ` ` ) ` ` _ ` _ ` ) k f u F E } 5.h.h.M.M.N.Z.W./.}.|.XX|.oX+X#X&X&X#XOXR.U.U.U.e.[ i 2 k ) ` ` _ ) m ) ` ` ) x n ) ) _ _ _ _ ) _ _ x x ",
"z x ` ` ` ` ` _ ` m m x ) ` ` ` ` _ _ _ ) & + > F Q ..5.h.k.h.h.k.N.E.(.|.}.(./.{.}.`.@X$X%X$X#XOXoXoXoXT.r.^ G 1 k ) _ ) m k _ ` ` ` ` ` ` ` ` ` ` ` _ m ) x z ",
"% z ) ` _ m _ ` _ _ ) n ) ` ` ` ) m m n h f u F W #.3.w.k.n.b.h.k.N.W.(.XX}.(./.~.(.).`.'.].].%X&XOX+XoX{.T.e./ S 1 # & _ ` _ x m ` ` ` ` ` ` ` ` _ x ) _ x & $ ",
"z x _ ` ) x ) _ _ _ n n ) _ _ ) m m m n f 2 A E } 7.w.j.n.b.k.h.k.N.E./..X}.}./.~.[.^.).`.'.].%X$X#X+XoX X{.T.e.^ t - $ ) _ ) m ) _ ` ` ` ) ) ` ` _ ) _ ` m & & ",
"z x ` ` _ x x _ ` m k n x x n n m ` ` m 1 t U ( 2.w.k.n.M.b.k.h.k.n.C.W././.}.}.}.[.~.~.^._.OX].#X'.OX.X XXXoXT.e.Y i 7 % & & _ ` ) ` ` ` x x _ _ ` ` ` ` ` x x ",
"& x _ _ _ x ) ) ) ) m z m _ ) m ) ) ) k - t P ( <.w.k.n.N.M.k.j.k.k.n.V.E./.(.|.(.(./././.(._.`.`._.).(..XXXXX/.N.X.T S 1 $ k _ m m ` ` ` m m ` ` ` _ x m ` ) x ",
"& z ) ) ) ) ` _ x ` _ n ) ` ` ) _ ` ) % O w J Q $.8.h.k.M.k.k.k.k.k.h.n.V.E./.}.(.(.(.(.}.(.(.|.).(.(.(.(.(.}.~.Z.9.} U 9 1 k m m m m ` ` ` ) ` ` _ ) z z ` ) & ",
"& z m m ) ` ` ` ` ` ` ` m m ` ) ) ` ` n + : Z W #.8.9.h.j.j.k.M.k.j.h.h.k.C.E.~./.(.).(.|.{.{.{.{.}.|.(.(.~.W.Q.S.b.3.W . * % & x m m ) ` ` ) ` ` x m ) _ ` m % ",
"& & x & m ` _ _ ` ` _ ) m m ` ` ` ` ` m + : D Q #.7.3.7.9.j.k.N.k.k.h.h.k.k.V.E.~.|..X).(.(.{.}.{.(..X.X~.E.V.B.B.n.$.E . o % & m ` m m m m m ` ` ` ) ) ` ` & # ",
"& & & & n ) m _ ` ` _ x m ) ` ` _ ) m k 1 i U ] &.6.2.2.8.9.j.k.k.k.k.k.k.h.k.C.W.~.(.~.~.~./././././.(.W.Z.M.M.M.j.2.W t 1 # k m ` m n n n m ` ` ` ) ` ` _ z $ ",
"x z & z & & x _ ` ` _ ) m ) _ m z $ @ 2 I W } %.<.3.<.<.2.7.9.j.M.M.N.k.j.h.j.n.Z.Y.E.Y.Y.Y.Y.Z.Z.Y.E.Y.Z.N.k.k.k.k.9.X.T I 7 4 z ) ` ` m ` ` m x x ` ` ` ) m z ",
"z x x x ) ) ) m ) ) ) ) ) ) ) m n # - i Q >.a.q.6.1.,.<.2.2.3.9.j.k.M.k.k.k.j.k.M.N.N.N.n.N.N.N.B.N.N.N.N.k.j.k.k.k.k.j.X.' I > @ m _ ` _ ` ` m z z ` _ x m x x ",
"& x ) _ _ ` ) ) m x m ) _ _ m ` ) @ : J @.s.A.z.5.1.,.2.2.2.2.5.w.j.k.k.k.k.k.k.k.h.j.h.h.h.h.h.j.j.j.h.h.j.k.k.k.k.B.B.j.#.E q 3 m m _ _ m ` ` x x ) x z x z z ",
"# z ` m ) ` ) ` _ m m ` ` _ ` ` m 4 ; J @.g.H.z.7.$.<.<.2.&.2.2.7.9.j.k.M.M.n.k.h.h.h.h.j.j.h.h.h.j.h.j.j.j.k.k.k.M.B.B.k.,.Y q + x _ ` ) m m ) _ _ ` m x ` x z ",
"% z m m m ) m x m m m _ ) ) ) ) & + ; D @.s.v.z.5.=.1.2.2.2.&.2.2.7.9.k.n.k.k.k.k.k.k.h.k.k.k.j.j.j.j.j.j.j.k.k.k.k.B.B.r...U 9 o c n m m m _ _ ` _ m z x ` x z ",
"x x z x ) m z % & x n ) m n n n % + ; Z @.i.c.d.5.$.,.<.2.2.<.&.1.2.7.9.w.w.w.j.j.k.b.k.k.k.k.k.k.k.k.k.k.k.k.M.k.M.M.k.7.] U 9 o $ z z x _ ` ` ` m x z x m x x ",
"z z _ ` _ ) z z m & x ) ` ` ` ` m @ ; D o.i.c.p.5.X.1.2.2.2.2.<.1.2.3.7.8.3.8.w.j.M.M.k.k.k.k.k.k.k.k.k.k.M.k.N.M.n.k.j.1.' K q + z x ` _ m m ` ` _ m x x _ z z ",
"& n ) ) _ ` _ ) ) m x ) ` ` ` ` m # ; Z { i.v.d.5.2.1.2.2.2.2.2.2.2.2.2.2.2.2.8.j.j.k.k.k.k.k.k.k.k.M.k.k.j.k.k.k.j.j.8.X.Q L > 4 x ` ` ` m m m m m m _ x _ x z ",
"z z z n ) ` ` ` ` _ _ _ ` _ m m n # ; D ' u.c.x.p.6.3.<.2.2.2.2.2.2.1.,.$.$.2.3.7.w.j.k.M.N.n.k.M.k.M.n.j.j.9.w.w.9.8.3.} Q L w 4 m ` ` m m m m z z _ ` ` x x x ",
"% % z m m m m m m n n n n m ) ` m f : Z ~ u.v.v.x.i.5.2.2.2.2.2.2.2.2.1.<.<.<.2.3.7.w.j.k.N.k.k.k.k.M.k.j.w.7.3.3.3.5.3...Q L q 3 m ` ` ` m x x z c m ` ` x z # ",
"% z n ) m z z n n & & k & & m ` m + ; J @.g.J.J.H.d.6.3.X.1.2.2.2.2.2.2.<.2.2.<.=.3.7.j.k.k.j.j.k.j.k.k.w.8.2.1.1.2.7.0.<.' U 9 + m ` ` ` m m m z m _ ` _ z $ @ ",
"% z z x m z % z % n z % n & % m x + = J ;.D.P.P.H.p.6.-.X.1.2.2.3.2.2.2.2.2.2.-.$.2.3.8.9.8.8.8.9.9.9.8.8.3.$.$.#.$.8.l.i.+.U 9 O m ` ` ` ` ` ` ` _ ` ` _ z c z ",
"% % x x m x z % % % n % n n n ) x @ = Z ;.F.I.I.H.a.5.2.1.1.2.2.<.2.2.2.2.2.2.2.-.2.2.3.3.3.3.3.2.3.3.3.3.2.2.$.$.3.p.x.a.%.R 9 + m ` ` _ m _ _ m n m m ` m x z ",
"z z x x ` ) n z n m m m m ) ` ` _ $ , A o.f.L.L.K.D.d.5.1.1.1.1.=.2.2.2.2.2.2.2.2.2.2.&.-.-.2.&.-.-.1.=.1.1.1.2.6.q.d.a.>.( L 2 @ _ ` ` m m ` _ z $ z m ` _ m z ",
"z x x ` ` ` m m ) ` ` ` ` _ ` ` _ c 5 a P o.y.F.L.P.H.p.2.1.=.$.$.=.2.2.2.2.2.2.2.2.2.&.2.&.&.$.-.=.2.=.$.$.1.8.p.z.a.>.! P G 7 c _ ` m n m ` ` x c n m ` z z z ",
"z % x _ ` ` ` m z n _ ` m m ` ` m m n j p D R y.G.I.L.D.p.5.3.1.2.3.<.2.2.1.2.2.2.2.2.2.2.2.<.2.2.2.2.1.2.2.3.i.b.a.%.Q D s a b m _ ` ` _ ` ` ` _ m ` ` ` x z z ",
"$ z x x _ ` ` ) z k m ` ) m ` m m m M v 6 : C ! f.G.L.K.H.x.a.6.6.6.3.2.=.=.=.1.2.1.-.=.1.1.1.1.=.1.2.2.5.8.q.a.i.>.! D 0 6 N c m _ ` ` ` ` ` ` _ ` ` ` _ _ m z ",
"z x x ` ` ` _ _ ` ) n ` _ n ) ` _ x g 5 8 8 s D ! y.G.I.I.J.A.z.d.a.6.&.$.$.=.=.=.=.=.=.1.=.<.$.$.$.1.3.q.z.c.d.:.R D r 6 v v v z x _ ` ` ` ` x m m m m m _ m x ",
"z x ` _ _ ` ` _ ` ` ` ) _ _ ` ` _ c 5 6 8 8 7 = C ! f.F.L.D.z.z.c.x.d.5.3.3.5.5.5.5.5.6.6.5.6.7.5.6.2.$.6.0.d.>.! Z 0 < 5 8 8 5 g x m m x x _ _ _ m ` _ ` ` m x ",
"z m ) m m ` ) ` ` ` _ m m _ _ ` _ c 5 8 8 j 5 , : D o.y.f.:.>.i.v.H.v.l.p.d.p.d.d.a.p.d.p.p.d.l.z.0.<.{ ' } %.~ L 0 , 7 5 8 a g b x m x n m _ ` ` ` ` ` ` ` ) x ",
"z n m & n m m m ) n & k & n _ ` _ m b 5 a N b b 8 d J R R K R %.g.H.H.H.c.c.c.c.v.v.v.c.v.v.v.H.H.d.>.E K J P L d 8 8 j j N N b n _ ` ` ` ` ` ` ` ` ` ) z _ ) x ",
"z x ) n n n m m m n n m & & ) ` ` m n b 5 8 v b b a s t X X A Q >.s.s.z.i.i.i.i.i.i.i.i.i.i.i.s.g.4.{ L e . r s a v b v 8 8 v n m ` ` ` ) ` ` ` x x _ x z x x x ",
"% m ` ) m m m n n n m _ n & ) ` ` m m M j j N b b v 6 ,   : y H Q O.O.O.O.O.O.O.O.O.O.O.O.O.O.+.O.~ U C     : 6 j b b B j g b m m ` ` _ x x x ` x x x ) x & z x ",
"m m ) ` ` ` _ m ) n z & & z ` _ m _ _ m M c v v v v 5 v v v 8 d A J J J J J J J J J J J J J J J K A C p 6 5 j j j j j B b M m m m _ _ ` ` ` ` ` ` ` ` ` ` x x x ",
"z m _ ` ` ` ` ` ` ) m m m ) ` ` ) m m ` m c g v v a a v v b v 6 r r X r e e r t r r r r r r r r t t p 8 v b b N l 8 j b n n m ` ` ) m _ _ _ _ _ ` _ ) ` ` _ x x ",
"x x ` ) ) ) ) ` ` ` ` ` ` ` ` ` ) x m m n z g c v a a v 5 v 5 7 < < < < p > < p < < 6 p < < < < < 6 8 v b M B B N 8 g g % c n ` ` m m n n n m m m x x ) ` ) x x ",
"x x m ) ` ` ) ) ) _ ` ` ` ` ` ) m m n n z n m m v 8 5 5 5 8 8 8 6 7 8 8 j j 8 j j j 8 j j j j 8 j j j v b b b v 8 5 g h z n _ ` _ n n m m n n n z n m ) _ _ x & ",
"z x m ` _ ) m m m m m n ` ` ` m m m m m m ) ` _ h 5 f g g 8 7 8 6 8 v v v v j v b v v v v v v v v v v a v b c c g M n n m _ ` ` m n c z x z z & & & _ ) ) ) x & ",
"z x ` ` m z m m _ ) m n m ` m _ ` ` _ _ ` ` _ _ n h % $ 5 7 6 a 8 8 v N v v v v N v v v v 8 8 8 v 8 8 6 j c n z m m m ) ` ` ` ` _ n z z z & & z & x ) _ ) ) x z ",
"z m _ ) n % % m ` ` ` _ ` _ m _ ` ` ` ` ` ` _ _ ` ) n % $ 4 5 j 5 g g b j b b v v v b g 4 3 7 g b b b b c n m m ` _ ` ` ` ` ` ` ` ) n % & z n m x x ) ) _ _ ) x ",
"z x _ ) ) n z m ` ` _ ` _ _ _ ` ` ` ` ` ` ) m _ ` ` ) n z z c c n M n c c n n n n n n c c h g h n n M M n m ) ` ` ` ` ` ` m m ) ` ` ) m n m ) ) _ _ ) ) ) ` x x ",
"& x ` ` ` ` _ ` ` ) m n ) ` ` ` ` _ _ _ _ n n ) ` ` ` ` ` ` ) ) ) _ _ m n n m ) m m m ` _ m ) ) _ m n n m ` ` ` ` _ _ _ ) n x ) _ ` ` ` ` ` ` ` ` ` ` _ x _ x & ",
"& z ) ` _ m _ ` _ ) m n ) ` ` ` m m m m ` ` ` n m ` ` ` ` ) ` ` ` _ m m m m x x m m m ` _ m _ _ m m n n _ ` ` _ ) ) x m ` ` _ m ) ` ` ` ` ` ` ` ` _ x _ _ x % % ",
"& x _ ` ) x ) _ ` ) m x m _ _ ) m m m m ` ` ) n m ` ` ` ` ) m ` ` m m ` ` m m m _ m _ ` ) n m _ ` _ m n m _ ` m m m m m ` ` m x m ` ` ` ` ) ) ` ` ) ) _ ` x & % ",
"z ) ` ` _ m x ) ` m z x x n x x m ` ` ` m n & ` ` m ` ` ` m m ) _ ` ` ` ` ` ` ` ` ` ` ` ` m m ) ` m n n n m n n x ` ` ` m z z ` ` ) ` ` ` m x _ _ ` ` ` ` ` ) x ",
"& x _ _ ) m ) ) ) ) x z ) _ ) m m ` m m ) ) _ _ m m _ ` ` m m ` ` ` _ x x ` ` ` _ _ _ ` _ x m m _ m m n ) _ m x _ _ ) x m _ _ ` ) m _ ` ` ) m _ ` ` _ x ) _ _ x ",
"& z ) ) ) ) ` _ m ` _ x ) ` ` ) _ ` m x m ` ` m m m m ` ` _ ) ` ` _ ) z x ` ` ` m m m m m _ ` ` m ` _ n _ ` ` _ _ ` m x m ` ` m x n ) ` ` _ ) ` ` _ ) x & ` _ & ",
"& z x x _ ` ` ` ` ` ` ` x m ` _ ) ` ` ) _ ) m z z ) m ` ` _ _ ` _ ) x ) _ ` ) x _ m x m _ ` ` ` ` ` ` ` n n ` _ ) ` ` ) ) ) m z n ) ) ) ` _ _ ` ` x x _ _ ` x % ",
"& & x x m _ _ ` ` ` ` ) x m ` ` ` ` ) ` ` ) m n m _ m m ) m m ` ` ` ) ) ` ` x z _ m x z m ` ) ` ` ` ` ) m m ` ` ` ` ` _ ` ) m x m _ m m ) m m ` ` ` ) ) ` ` & # ",
"& & & & x x x _ ` ` ) x x _ ` ` ` ) ) ) ` ` ) m m ` ) m x m m _ ` ` ) _ ` ` ) x _ m z z z x m ) ` ` ) x m _ _ ` _ ) ) ) ` ` m m ) ` ) m x n m ` ` ` _ _ ` ` & % ",
"x z & z z x x ) _ ` _ ) ) ) _ m n x m m ` ` ` ) _ ` ` ` ) _ ` m x x ` ` ` ) ` ` ` m z z z z m _ _ _ _ ) m ) ` m n m n m ` ` ` ) ) ` ` ` ) _ _ ) z x ` ` ` ) ) & ",
"% % & & z & x x x x x z x x x x n z x x m m m m m m m m m m m m % % x x z z x x x z c z z z z x x z x x x x x z z z x n m m m m m m ) m m m m m % & x x & & & % ",
"# $ & & x z & & % $ % & & & % & x x n x $ % z m n z & & z & z x % % z $ # $ % z z % % z z z z c % % $ z z & % z m z x x % % z m x & & & z & n n % $ z % # $ $ # "
};
