/* XPM */
static char *Group_9_11__resized[] = {
/* columns rows colors chars-per-pixel */
"80 80 205 2 ",
"   c #273A27",
".  c #253E34",
"X  c #28441F",
"o  c #2B4B1D",
"O  c #2F5216",
"+  c #2F541D",
"@  c #30571D",
"#  c #345C1D",
"$  c #37631B",
"%  c #39661D",
"&  c #3C6D1E",
"*  c #3F711F",
"=  c #264422",
"-  c #2B4524",
";  c #2B4C22",
":  c #26442C",
">  c #2B462E",
",  c #2B4B2B",
"<  c #314C2A",
"1  c #2E5224",
"2  c #2E552D",
"3  c #315625",
"4  c #345B24",
"5  c #395E27",
"6  c #34542A",
"7  c #355A2B",
"8  c #3A5C2C",
"9  c #254336",
"0  c #2A4632",
"q  c #2B4A32",
"w  c #25433A",
"e  c #29493A",
"r  c #2B4B3E",
"t  c #304E3B",
"y  c #2C5035",
"u  c #2E543B",
"i  c #345737",
"p  c #3A5C32",
"a  c #366126",
"s  c #3A6424",
"d  c #3D6B22",
"f  c #3D642C",
"g  c #3F6929",
"h  c #3F7220",
"j  c #3D6331",
"k  c #41751F",
"l  c #43781F",
"z  c #406E26",
"x  c #40672E",
"c  c #416B2D",
"v  c #417620",
"b  c #457C21",
"n  c #43722A",
"m  c #406732",
"M  c #416930",
"N  c #457030",
"B  c #274540",
"V  c #274843",
"C  c #2A4A42",
"Z  c #2A4E4A",
"A  c #2C5244",
"S  c #2D564A",
"D  c #325747",
"F  c #315B43",
"G  c #2C5250",
"H  c #2F5955",
"J  c #315652",
"K  c #325C54",
"L  c #305C59",
"P  c #34634C",
"I  c #346459",
"U  c #34635C",
"Y  c #326462",
"T  c #356D64",
"R  c #3A6962",
"E  c #346A6B",
"W  c #397665",
"Q  c #3A726B",
"!  c #3E7A6C",
"~  c #346E71",
"^  c #3A7573",
"/  c #3C7B74",
"(  c #3A7778",
")  c #427266",
"_  c #417A6C",
"`  c #407D71",
"'  c #478022",
"]  c #498423",
"[  c #4C8A24",
"{  c #3D827D",
"}  c #43846F",
"|  c #438373",
" . c #43877B",
".. c #468C7B",
"X. c #4E997F",
"o. c #3C7C82",
"O. c #3F8082",
"+. c #428787",
"@. c #4B9582",
"#. c #4E9C85",
"$. c #46958E",
"%. c #4E9E88",
"&. c #509F84",
"*. c #509F88",
"=. c #418B93",
"-. c #438D9B",
";. c #4A9D95",
":. c #479899",
">. c #4B9E99",
",. c #4FA088",
"<. c #50A187",
"1. c #51A38A",
"2. c #54AA8E",
"3. c #58A98E",
"4. c #4DA294",
"5. c #4EA79C",
"6. c #51A694",
"7. c #55AC92",
"8. c #53AD99",
"9. c #56B194",
"0. c #59B493",
"q. c #5CB996",
"w. c #56B49D",
"e. c #58B69F",
"r. c #5DBD99",
"t. c #69B296",
"y. c #6DB498",
"u. c #499DAC",
"i. c #4BA3A0",
"p. c #51ABA2",
"a. c #51ADAB",
"s. c #56B5A2",
"d. c #59BAA3",
"f. c #54B5AB",
"g. c #56BBAC",
"h. c #59BCAA",
"j. c #4DA9B7",
"k. c #4FB0B9",
"l. c #59BEB2",
"z. c #55B9BA",
"x. c #5EC49B",
"c. c #5FC99E",
"v. c #61C59D",
"b. c #63C99F",
"n. c #5BC2AD",
"m. c #5BC4B2",
"M. c #5EC9B5",
"N. c #5BC6BA",
"B. c #5ECBBA",
"V. c #68C6A0",
"C. c #64CCA1",
"Z. c #6ACDA3",
"A. c #66D1A4",
"S. c #6BD2A5",
"D. c #6AD7A8",
"F. c #70D3A7",
"G. c #73D5A9",
"H. c #76DBAD",
"J. c #7BDBAE",
"K. c #61CFBB",
"L. c #7EDEB0",
"P. c #7CE2B3",
"I. c #7CEAB6",
"U. c #53B7C5",
"Y. c #5DCDC3",
"T. c #5FD2CA",
"R. c #59C6D2",
"E. c #62D6CB",
"W. c #64DBD3",
"Q. c #63DADA",
"!. c #66E1D6",
"~. c #5ED2E2",
"^. c #62DAE4",
"/. c #67E6EB",
"(. c #6DF2EE",
"). c #69ECF2",
"_. c #80DBAF",
"`. c #85E3B4",
"'. c #8AE5B6",
"]. c #86E9B8",
"[. c #8DEABA",
"{. c #90E6B9",
"}. c #94EEBE",
"|. c #98EDBE",
" X c #8EF2BE",
".X c #96F0BF",
"XX c #99F0BF",
"oX c #A3F3BF",
"OX c #ACF5BF",
"+X c #B8F9BF",
"@X c #C9FDBF",
"#X c #93EFC0",
"$X c #8FF6C1",
"%X c #96F3C1",
"&X c #9CF3C2",
"*X c #98FAC7",
"=X c #A2F6C4",
"-X c #A7FAC7",
";X c #B5F8C0",
":X c #BBF9C0",
">X c #B5FECA",
",X c #C4FEC5",
"<X c #CCFDC0",
"1X c #D6FFC0",
"2X c #D8FFC0",
/* pixels */
"O $ k & k k & k k & & k k k l k * l l l & & * ' l l l l * & & * * k l * * b k & $ & k & * * * * * & & k l l k * * l l k & & * l l k k k k z k k k k k k k l k O ",
"% & k k v b k & k & k b b k k k * v * * * * * l * * * * * v v b ' v k & * l ' b v k * k k l * * k * k l v v l * * l * * * * l l k k k z k k l l l l k k k l k % ",
"l l k l b b k k k k l b b b b k h v h * * l b h * h * * v ' [ [ [ ' k * * b ] [ [ ] v b ' l * * * l l ' b b b v h v * * * v b v k k z k k ] [ ] [ l k k k l l k ",
"k l ] [ ] b k v l k l ' ] [ [ [ [ ' h * b ] [ ] ' ' ] ' ] ' ] ] ] ] ' l l ' ] ' ' ' ] [ ] ' l l l * l ' ] [ [ [ [ ' v * b ] [ ] [ l l ] l l ] ] [ ] l k k ] l k ",
"k k b ] ] ] ] b ' b b ' [ [ [ ] ] [ ' ' [ [ [ [ [ [ [ [ ] ' b ' b b [ ' b ' ' ] ' ' ' ' ] [ ] ' ] l b ' [ [ [ ] ] ] ' ] [ [ [ [ ] ] [ [ [ b b b l b [ b b ] l k ",
"k k k l ] [ [ [ ] ] ' ] [ ] b b ' [ [ [ [ [ [ [ [ [ [ [ ] v v b h v ' [ ] b ' [ ] b h v ' [ [ [ ] [ ] ] [ [ b b ] [ [ [ [ [ [ [ [ [ [ [ b b b b k l ] [ ] b l k ",
"& & k l b b b b b v v v v b ] ] ] ] ' v v b ' ] ] [ [ ] ] b k v & k ' [ [ b v b ' l * b ' b ' b b v l v v b ] ] ] ] ' v b b ] ] [ [ [ [ ] b b b k k b [ [ b k $ ",
"& k k l b k l k h v * v * k b ] [ ' b b v b v l b [ [ [ [ ' ' ' b v ] [ ] v * k b v l ' b * * * * * * h * * b ] ] ] b b v v b h b [ [ [ [ b b ] k l b [ [ v z # ",
"& * l ' b * * * * * k * h * * v ' ' ] [ [ l k * l ] [ [ [ [ [ [ ' ' [ [ ] * h ' ' b * ' b * * * * * * * h * * h ] ' ] [ [ ' * * b ] [ [ [ [ [ [ ] ' [ [ ] k & z ",
"& * * b b v * * * * * * k b v ' ] ' [ [ [ [ b ] [ [ [ [ ] ] ] ] b v b ' [ ' ] ] b h l b ' * * * * * h * * ' h ' ] ' [ [ [ [ ' ] [ [ [ [ [ b ] ] b k l ' ] ' k k ",
"* * l ' ] ] v h v b b v b ' ] [ [ ] [ [ [ ] ] [ [ [ [ ] b ' ] ] v & & ' [ ] [ [ ] b l ' ] ] b * h ] b h ' ' ] [ [ ] ] [ ] ] ] [ [ [ [ [ b b ] [ v & k l [ ' b k ",
"l * * [ [ [ b v ' [ [ [ ] ] [ [ [ ' [ [ b ' [ b ' [ [ ' k ' [ [ v & * ' [ v v ] [ ' * ] [ [ b h ] ] [ [ ] ' [ [ [ ' ] [ ' ' ] ' ] [ [ b k b [ [ v & k ' [ l k k ",
"* * l ' [ [ [ ' h b ] [ ' ' [ ' b ] [ [ ] [ [ ' ] [ [ [ ' b v d % % & & d % % % % % $ % & * d % $ $ * [ ' b [ ' ' ] ] [ ] [ [ ] [ [ [ [ ] [ [ [ ' b ] [ [ b k k ",
"& * l l ] [ [ ] k h b [ ' b ] ' b [ ' b [ [ [ ] ' [ [ [ ] h 4 1 1 3 3 3 1 1 1 1 o = = o 1 1 1 ; = = a b b ' [ b b ] ] ' ] [ [ ] b [ [ [ [ [ [ [ [ [ [ [ ] ] l k ",
"k l ] [ [ [ ] ] [ ' b ] ] b ] [ [ ' v & b [ [ v k b ] ' k 4 q V B w 9 9 9 w w e 9 9 9 9 9 9 9 w w 9 , & h ' ] [ [ ' * * b ] [ b v b b [ [ [ [ b b b b b b ] b v ",
"* l [ ] [ [ ] ] [ [ ] ] ] ] ] [ [ b * h v v b k k v l d 4 u K R Y L U U U U I U T ) ) Q Q ) ) ) Q Y F 2 d * ] [ [ l * h h b b h v b b b b b ] ] [ b ] [ [ ] ] l ",
"* l ] l b [ ] ] [ [ ] b b ' [ [ [ b b v k v v v l l & 3 q I / .... ...X.#.X.#.&.3.y.y.y.y.y.y.y.0.#.W F 2 $ ' ] ] ' * * * * b * v b b b v b ] [ [ [ [ ] [ [ b l ",
"l l v k k b b ' ] v d * k v ' [ [ ] ' b b ] [ [ ] l 1 y I / @.2.<.<.2.x.x.x.v.S._.{.&X#X|.|.|.[.P.V.,.! A , d ' [ ] ] b ] [ [ [ ] [ [ [ [ [ [ [ [ [ [ b v ] b l ",
"k l ' l k v b b b v v b * k b [ [ [ ] ' b b ] ] * a q P ! @.,.9.0.q.x.c.A.D.P.I.%X-X-X>X>X>X-X*X$XP.C.1.T e 1 d b ] ] ' * ' [ [ [ [ [ [ b ' ] [ b b ' b k v l l ",
"* l [ ' b b b b v b b ' k * ' [ [ ' ] ] b b b h 4 y K _ #.,.2.9.q.x.b.n.D.H.[.%X*X-X>X,X,X>X-X*X*X[.L.Z.#.T A 6 % ' [ ] ' ' ' ] [ [ [ ] b b ] ] l k b ' b k k l ",
"b b ' [ [ [ ' ' ' b v & & v [ [ ' ' ] [ [ ] b 4 u U  .#.2.2.2.0.r.b.C.A.G.`.}.&X#X&X;X,X1X,X-X=X*X%X.X].A.,.} D , d ' [ [ [ [ ' ] ] ] [ [ [ [ [ [ [ [ [ [ b l l ",
"k b ] [ [ ] ] [ [ ] b b b b [ [ ' b ' ] b d a F Q +.4.6.0.2.0.q.v.b.S.G._.{..X%X#X&X;X<X@X<X+XOX=X&X%X$XP.Z.3.W F 2 a h ' ' ' ] ] ] b ] ] ] ] ] [ ] ] [ [ ] l l ",
"k l [ ' b ] ] [ [ [ [ [ [ [ [ [ ] l b v $ ; e T $.a.e.7.2.0.x.x.v.C.G.`.{.|.%X&X|.%X=X<X1X2X<X:X;X&X%X%X[.P.Z.<.W A 1 # * * * [ [ b b b v v b b l l v ] [ b b l ",
"l l b ] [ [ ] b b [ [ [ [ [ [ b b b b & @ = V / 8.M.h.9.2.q.x.C.b.b.J.[.&X&X&X|.#X|.oX;X<X2X2X@X+XXX%X&X%X XI.r.{ H 9 o & ' ] [ b v v b b v v v k k b b ] ] b k ",
"k l ' ] ] ' ' b ' ] b v ] [ ] b b ' b k # = B ^ 6.h.d.7.2.0.v.C.c.C.J.{.&X=X&X.X}.|.&XoX:X<X1X<X+XXXXXoXXX XI.v...I 9 o * ] [ [ ' v v v v v v * & k ] ' b ' l k ",
"& b ] [ b * v b ] b v h ' ] ] ] ' [ ] b & , V R @.7.7.6.2.q.v.b.c.C.J.'.XX&X&XXX%X|..X.XoX:X<X<X+XoX%X*XXX].P.x.{ H y 4 b ] ] [ ' v v & k v * k k l ' ] ] l l l ",
"k b ] ' l * * l [ [ [ ] [ ] ' ] [ ] b d 7 F U  .#.<.<.1.1.q.v.b.c.C.H.}.&X=X&X.X&X|.%X[.XXOX:X:X+XXXXXXX X].H.x.X.{ u a d h b ] [ ] l k & v v b v b b ' ] ] b l ",
"k b ] ' b l k l [ [ [ ] [ ] ' [ [ b % 7 P ! $.6.6.<.#.#.2.q.v.b.c.V.H.}.&X&X&X.X|.#X%X}..XXXOXOXoXXXXXXX.X'.G.b.x.<.{ j 2 4 % ' [ [ b l v b ' ' ] ] ] ] ] ] l k ",
"k b [ [ [ [ ] [ [ ] b v ' [ [ [ ' & 1 e W ;.g.m.w.1.&.<.2.q.v.b.b.Z.J.'.XX%X&XXXXX|.XX.X.X.X.X.XXXXXXX*X.X`.F.C.C.C.2.{ S : @ h [ [ ] [ [ [ [ [ [ [ [ ] b b b k ",
"& k ' [ ] b [ [ ] ] b v ] [ [ [ b % = w / i.N.B.d.1.<.2.0.v.b.b.b.b.Z.H.'.|.&X=X&XXXXXXX.X.X.X.X.XXXXX-XXX`.F.A.A.A.x...G 9 # * ' [ [ [ [ [ [ [ [ ] b ' ' b k & ",
"k l ] [ ' l ' ] ] ] v v b ] ] ' v % ; w ^ p.N.M.w.1.2.0.v.b.b.b.b.b.b.S.G.'.|.&X%X&X|.XX.X%X.X.X.XXX=X=XXX`.S.A.A.D.q...G : # h ] ] [ [ [ b b [ [ ] b ] [ b k & ",
"k l [ [ ] l l ] [ b v v v b l v v * 1 9 Q >.l.m.w.3.0.v.b.A.b.b.b.x.x.x.Z.H.'..X.X&X&XXXXX.XXXXXXXXXXXXX[.L.S.A.A.A.0.{ Z : + ' [ ] [ [ [ b b ] ] [ [ [ ] ] b l ",
"* l ] [ ] l ' ' ' ' b * ' ] b ' l k 1 9 Q >.l.h.0.2.0.v.S.A.C.b.b.b.x.x.b.Z.H.'..XXX=XXXXXXXXXXX=X&XXX[.J.F.A.A.A.C.0.} C : # b b b [ [ [ b b [ [ [ ] l v [ ' l ",
"* * ' ' ' ' [ ] ' ] [ v ' [ [ ] l z o . Q >.l.m.w.<.0.v.A.A.b.b.b.b.b.v.c.v.Z.H.'.XX=XXXXXXXXX&X=XXX{.J.S.b.b.C.A.S.0.} Z , 4 v l b b [ [ [ b [ [ [ b k l [ ' l ",
"* l ' l ' [ [ [ [ [ [ [ v b [ ] l l 1 9 Q >.h.m.w.1.2.q.v.b.C.C.b.b.b.b.c.x.c.Z.J.`..XXX&X&X&X%X.X{.L.S.c.x.b.C.D.A.0.} Z : @ & l ] b ] [ [ ] [ [ b b ] ] [ v & ",
"* * * * b [ ] ] [ [ [ ' b b [ [ ] k 1 w Q >.l.m.d.1.<.2.q.v.C.C.C.b.b.b.v.c.x.v.b.J.`..X=X-X=XXX[.J.F.b.x.x.c.A.D.D.q.} Z : @ & b ] b b b b b [ [ [ l ] ] [ l $ ",
"* * * * h ] ' ] [ [ ' l b ] ] [ b k - 9 Q ;.g.m.w.1.&.<.7.r.v.C.A.V.b.b.b.b.v.b.x.A.J.{.XX=XXX}.L.S.v.b.c.v.b.A.S.S.9.| Z , @ v b [ b b l b b [ [ [ b [ [ [ l % ",
"l * * k * * l ] ] [ ] ' b ' ] ' v % o 9 Q ;.g.m.e.1.#.&.1.3.q.v.b.C.C.b.b.v.v.c.x.v.b.J.'.[.[._.F.v.x.c.b.C.C.A.A.v.1._ A , 4 v ] [ [ [ b ] [ b l l [ [ [ b b k ",
"l k l l ' ' b ' ' ' ' ' ' ' ' ' b % ; 9 Q ;.g.m.w.1.#.#.1.1.3.q.x.b.C.C.b.b.b.v.v.v.b.S.G.H.G.F.C.v.c.v.b.C.C.C.v.q.@.Q Z , $ b [ [ [ ] ] [ [ b k k [ ] l l l l ",
"* l ' [ ] ] ] b ' l l ] ] ] b ] ] k ; e ^ i.N.M.d.1.&.<.1.1.1.9.q.b.C.C.C.b.C.V.b.b.b.b.b.b.b.v.b.b.v.b.b.C.C.b.r.9.@.Q Z , 4 ] [ b ] ] ] b [ [ l l ] l l l l k ",
"$ k ] ' ' ] ] ] ] b b [ [ ] [ ] b z o e O.U.Q.W.h.<.X.&.<.&.%.1.9.q.v.b.C.A.C.C.C.C.v.c.x.x.x.x.b.b.C.C.C.b.x.q.0.9.#./ Z 0 4 ' [ [ [ [ ] b b b ] ] [ b l [ l k ",
"& k ' l ' ' b b b b b ] ' ' ' ' k % X 9 o.U.^.Q.l.1.X.<.1.1.%.1.<.2.q.v.C.C.C.V.C.C.v.v.c.c.c.c.v.b.C.C.b.r.9.7.2.6.@.Q Z 0 # v b l l b b b ] [ [ ] b k b [ l k ",
"l k k l ' b k & * b b b b b v v k z O : ~ u.U.~.m.6.<.<.1.1.1.%.#.1.9.q.v.v.v.v.v.C.C.b.b.b.b.C.b.b.b.b.x.0.2.,.<.#.| I r ; $ d l k z k k ] [ [ [ b l k l b l l ",
"* l ] [ ] ' k k l * k ' ] [ [ [ l l # @ F Q -.a.f.s.9.2.<.1.1.&.&.<.2.9.0.0.0.r.v.C.A.C.A.C.C.C.S.A.b.v.0.2.2.#...| I y 7 d b ' ] b b b ] b b [ [ ] b l l ] k k ",
"k v ' ' ] [ ] ' ' b l ] [ [ [ ] ] ] l * 5 t L +.a.n.h.7.<.<.,.1.1.1.1.1.1.1.1.0.r.v.C.b.b.b.b.C.b.b.x.0.2.2.7.#./ Y u 1 h ' ] [ [ ] [ [ [ b b b b b b [ l ] l k ",
"k k k v ' [ [ [ ] [ ] ] [ [ b b ' [ [ [ k o . Q 5.M.n.w.<.,.1.1.1.1.1.%.%.%.1.1.9.r.x.v.r.v.t.v.v.r.0.2.,.,.2.@.W Z q $ ' [ [ ] [ [ [ [ ] b b b k k b [ [ l l l ",
"& & k b b b b b b v v v v b ] ] ] ] ' k # = . Q 5.m.h.9.X.<.<.1.1.1.%.1.1.#.%.1.3.9.9.0.9.9.9.9.0.0.2.2.,.2.2.@.Q G 9 @ h ' ] ] ] [ [ [ ] b l l k z b [ [ l k $ ",
"& k v ' b k k k h h * h * * b ] ] ' l k # = V / s.B.m.w.<.<.<.<.1.1.1.1.1.1.1.1.1.1.1.1.1.1.1.2.1.1.1.<.1.3.9.#.` H 9 o * ' h h b [ [ [ [ b b l k b [ [ ] k % # ",
"& k k l b k k & k & & k h * * v b b [ ] z X B +.U.Q.W.m.7.,.,.,.<.1.1.1.1.1.1.1.%.%.#.%.%.%.%.&.<.#.#.&.2.9.n.8. .L q 3 b ' h * b ] [ [ [ [ [ [ ] ] [ [ ] k z k ",
"& & l l b v k & & v k k k v v ' [ ] [ ] % X B =.R.)./.Y.e.2.,.#.<.1.1.1.1.1.1.1.1.1.%.&.1.&.1.*.1.1.&.#.,.e.M.g.$.U q @ ' [ b ] [ [ [ [ [ b ] [ b k b ] [ b l k ",
"k k l l ] ] v k v b b v b ] ] [ [ ] [ b % o C O.U.^.^.E.h.w.6.1.<.1.1.1.1.1.1.1.1.1.1.1.1.1.1.1.1.1.<.<.7.s.n.p.O.K y @ b ] ] [ [ [ [ ] b b ] ] k % z l [ ] l k ",
"k l l [ [ [ b b ' [ [ [ ] ] [ [ [ b ] b 5 6 i R O.u.z.N.M.n.s.8.1.&.&.<.1.1.1.1.1.1.1.1.1.1.1.1.&.<.1.7.9.5.4.{ T D p a d v ] b ] [ [ ] k b [ [ k z k ] [ l k k ",
"k & l b [ [ [ ' v v ] [ ' b [ ] l ] b n x x j i J E $.f.T.Y.m.s.7.1.#.%.1.1.1.1.1.1.1.1.1.1.1.<.&.1.w.n.d.4.( K t p f x g h ] ] ] [ [ [ [ [ [ [ ] l [ [ [ l k k ",
"% k l l [ [ [ ] v v b [ ' b [ b l b n 5 x N x < . Z ` z.W.!.E.m.s.7.<.<.<.<.<.<.%.1.<.1.<.<.<.<.1.8.m.W.Y.i.E w > 8 x x f n b b ] ] [ [ [ [ [ [ ] [ [ [ ] ] l k ",
"k l l [ [ [ ] ] [ b b [ ] ] ] ] ] l s 8 f N c -   Z =.R.(.(.W.K.h.w.1.1.<.&.&.<.<.%.&.&.&.X.&.<.9.n.W.(.^.k.~ w   8 8 8 f n n h l b ] [ [ [ ] l l l ] l b ] l l ",
"k l [ ] ] [ ] ] [ [ ] b ] ] ] [ ] k s 6 8 f f - . G =.U.).Q.T.m.M.M.g.8.1.<.1.6.1.1.1.3.1.1.1.6.w.m.E./.~.j.~ C - 6 7 7 7 s h h k b b b l l ] ] ] ] ] ] [ [ ] l ",
"k b ] v b [ ] ] ] [ ' b b ' [ [ ] v s 5 8 8 5 < t D o.u.U.j.p.a.Y.Q.T.m.e.w.w.w.w.s.w.s.e.e.w.w.8.5.a.U.U.-.R t < 8 7 8 8 5 & k v b b b v b ] [ [ [ [ [ [ [ ' l ",
"k v b * v b b b ] v h v h v ] [ [ b z f p m x x 8 F U ^ o.E ^ :.R././.W.M.n.M.M.M.M.M.M.K.K.K.g.$./ ~ o.( E D p 8 x x 8 j x b ' [ [ [ [ [ [ [ [ [ [ [ l k ' ' l ",
"k b b b v v b b b v v b h * ' [ [ ' v g 8 j x c c m i A C w Z ` j.~.~.Y.g.d.h.g.l.l.g.g.l.M.l.5.{ G B V V C p x c c x f 5 x b [ [ [ [ ] b ] ] [ ' l ' l k l l k ",
"& b [ ' b b b b v v b ] v v ' ] [ b b n x 5 8 c c x 8 -       J O.j.j.i.$.$.$.$.$.$.$.$.;.;.;. .I e       < 8 c c x x x & z b ] [ [ [ ] b b ] ] l k ' ' l * k l ",
"v b ' [ [ [ ' ' ' v k k & v [ ] ' b ] ] v z x x x x 8 8 5 8 8 D L E ~ E Y Y Y Y Y Y Y Y Y E Y I F < < < < 6 x x x j x z b [ [ b ' [ ] [ [ [ [ [ [ [ [ [ [ l l l ",
"k b ] [ [ [ ] [ [ ] b b b ' [ [ ' b ' [ b z f x x j x 8 x c x 8 t r B C V V r r C C C C C C C t i f x x x x x x j 5 z b ] b b [ ] ] b ] ] ] ] ] [ ] ' [ [ ] ' l ",
"k ' [ ] ' ' ] [ [ [ [ [ [ [ [ [ ] k l b v z s z x j j 8 5 x 5 8 <     > q 0 q , > > q > > 0 > < 8 c n n c M M x x % z l v v v [ [ b b v v v b b l l l ] [ ' l l ",
"l l l ' [ [ ' b ' ] [ [ [ [ ] ' b l b k k l b b x 8 8 8 8 8 8 8 8 6 8 8 8 8 8 7 j 8 8 7 f 8 8 8 8 x c x x M x 8 s k v v v b ] [ ] v v b b v v k k l l ' ] ] l * ",
"k l ' ] ] ' b b b b b b ] [ [ b b b b b b ' [ ] z 5 8 5 a 5 7 8 8 8 x 8 x x x x x x x x x x f 8 x 8 8 f z z x d v b b v b ] ] [ ] z k v v k k k * * ] ' ' ' l * ",
"k l [ [ b k b b ] ' b v b ] ] b ] [ ] ] [ [ [ ] v & & % s 4 6 p 8 8 x x f f x x f x x x x 8 5 j m j 8 5 z l v v b [ [ ] [ [ [ [ ] l k k & z * * * l ' ] ' ' l * ",
"k l ] ' v & & b [ [ ] ] [ ] b ] [ [ [ [ [ [ ] ] ] ] v d % # 8 8 8 5 s x x c c c x x x s 5 3 3 8 x x z v ] b v b [ [ [ [ [ [ [ [ ] ] l k & k l l l l ' ' ] ] ' l ",
"k l ] ' b b v b [ [ [ [ [ ] ] [ [ [ [ [ ] ' ' ] [ [ b v l z z z z z z x s z z z k z z z g % f g z z b b ] [ ] [ [ [ [ [ ] b b ] [ [ b b v b ' ] ] ] ' ' ' ] ' l ",
"* l [ [ [ [ ] [ [ ' b v ' [ [ [ [ ] ] ] ] v v ' [ [ [ [ [ ] b b b b ] b z v v b k v b b b b b b b v v v b [ [ [ [ ] ' ] b b l ] [ [ [ [ [ [ [ [ [ [ [ ] l ' l * ",
"* l ' [ ] b ] [ ] ' b v ] [ [ ] ] b b b ] [ ] v b [ [ [ [ ] ] [ ] b b b l v v l b b ' ] ] b ' ] b b v v ] [ [ [ ' ' l b [ [ ] l b [ [ [ [ [ [ [ [ ] l ] ] l * & ",
"* k ] [ ' l b ] [ ' b k b [ [ ' b b b b ] [ ] b b [ [ [ [ b b [ [ ] b [ [ l b b b ' ] [ ] v b ] [ b b v b ] ] b b ' b b ] ] l b ' [ [ [ [ ' ' [ ] ] l [ [ l * & ",
"k ' [ [ ] b l ] [ b k k l l l l b ] [ [ ] v h ] [ ] [ [ [ b b ] ] [ [ [ [ [ [ [ ] [ [ [ ] b b ' [ b v v b v v b b ] [ [ ] l k [ ] ' [ [ [ b l ] [ [ [ [ [ [ ' l ",
"* l ] ] ' b ' ' ' ' l k ' ] b l ] ] b b b ' ] ] b b ] [ [ b b [ [ [ ] l l [ [ [ ] ] ] [ ] l b b [ b b v ' ] b b ' ] ' b ] b ] [ ' b ] [ [ ' b ] [ [ [ l ' ] ] l ",
"* k ' ' ' ' [ ] l [ ] l ] [ [ ] ] [ b l ' [ [ b b v ] [ [ ] b [ [ ] ' k l [ [ [ b b b b b ] [ ] b [ ] b ' ] [ ] ] [ b l b [ [ b l v ' [ [ ] ] ] [ ] ' k * [ ] * ",
"* k l l ] [ [ [ [ [ [ [ b v [ ] b [ ] ] ] ] b k v b b ] [ [ ] [ ] ' ' l ] [ ] l ] b b b [ [ [ [ [ [ [ [ b v [ ] ' [ ] ] ] b b k l ' ' ] [ ] ] [ ] ' l ] [ [ * & ",
"* k l l b ] ] [ [ [ [ ] l b [ [ [ [ ] ] ] ] b v b [ b b b b b [ [ [ ' ] ] [ l l ] b k k l [ ] [ [ [ [ ' b b [ [ [ [ ] ] ] ] b b b ] b b ' b b [ [ ] ' ] [ [ * % ",
"* * * * l l ' ' [ [ ' l l ] [ [ [ ] b ] [ [ b b b [ b b b v b ] ] ] ] ] [ ] l l ] b k k k l l ] [ [ ] l b ' [ [ ] ] b ] [ [ b b ' ] ' b v b b [ [ [ ] ] [ [ * & ",
"k k * k k l l ' [ ] ] ' l ' ] b v b l l [ [ [ ' ] [ [ [ b [ ] ' k l [ [ [ ] [ [ [ l k k k k b ] ] ] ] ' b ' ] b b b v b [ [ ] ' ' [ [ [ b ] ] b k l [ [ [ ' ' * ",
"& & * k k * l k l l k l l l l k k k l b b b b b b b b b b b b b k & l l l k k l l k z k k k k k l k k l l l l k k l v v b b b b b b ' b b b b b & & l l * * * & ",
"$ % * * k l * * & % & * l * & k b k b k & & k b v v & k k k k b & % k & $ % k k k & k k k k k z & & & & k k & k l k l l k & k v l * * k k k v v & % k & % % % $ "
};
