/* XPM */
static char *Group_9_12__resized[] = {
/* columns rows colors chars-per-pixel */
"80 80 205 2 ",
"   c #3A3E1C",
".  c #3B3D24",
"X  c #452E28",
"o  c #44332A",
"O  c #453D2E",
"+  c #463430",
"@  c #4B3533",
"#  c #443D31",
"$  c #4C3B34",
"%  c #533939",
"&  c #533C3A",
"*  c #37441F",
"=  c #3C451D",
"-  c #3B4C1E",
";  c #2F5216",
":  c #35551B",
">  c #3B521E",
",  c #355C1B",
"<  c #3A5C1E",
"1  c #37631B",
"2  c #3A641C",
"3  c #3D6D1D",
"4  c #3F711F",
"5  c #3D4423",
"6  c #3D4B23",
"7  c #3B4529",
"8  c #37492A",
"9  c #3C4B2B",
"0  c #3D5322",
"q  c #3C5D23",
"w  c #3D532D",
"e  c #365829",
"r  c #375929",
"t  c #3A5D2C",
"y  c #3D5E31",
"u  c #376021",
"i  c #3C6322",
"p  c #3E6B22",
"a  c #3D632C",
"s  c #3F692B",
"d  c #3F7220",
"f  c #3F6530",
"g  c #406D1F",
"h  c #41751F",
"j  c #43781F",
"k  c #414C25",
"l  c #43442C",
"z  c #434B2A",
"x  c #405525",
"c  c #415D25",
"v  c #42542C",
"b  c #425A2B",
"n  c #454332",
"m  c #4C4334",
"M  c #454B32",
"N  c #4B4A33",
"B  c #4E4139",
"V  c #454C3B",
"C  c #4D4B3A",
"Z  c #504537",
"A  c #52433C",
"S  c #544A3E",
"D  c #415430",
"F  c #4B5434",
"G  c #415A32",
"H  c #47523C",
"J  c #416522",
"K  c #426D22",
"L  c #40642D",
"P  c #406B2D",
"I  c #427520",
"U  c #457C21",
"Y  c #487D23",
"T  c #42722B",
"R  c #416533",
"E  c #416931",
"W  c #583D43",
"Q  c #4D4C43",
"!  c #554442",
"~  c #5A4444",
"^  c #544B45",
"/  c #5A4B43",
"(  c #5B4349",
")  c #574C4B",
"_  c #4B5343",
"`  c #565649",
"'  c #5B524B",
"]  c #555353",
"[  c #5B555C",
"{  c #624C4C",
"}  c #62514E",
"|  c #68574F",
" . c #654F55",
".. c #655253",
"X. c #695456",
"o. c #655A54",
"O. c #645459",
"+. c #6B545B",
"@. c #645B5E",
"#. c #6B5B5D",
"$. c #72545A",
"%. c #705E5E",
"&. c #69625A",
"*. c #74635E",
"=. c #5F5D63",
"-. c #6D5C62",
";. c #665E69",
":. c #745C61",
">. c #795D61",
",. c #6D6563",
"<. c #696666",
"1. c #64636D",
"2. c #6D636B",
"3. c #736562",
"4. c #736A65",
"5. c #7A6966",
"6. c #7C6966",
"7. c #70656D",
"8. c #736D6A",
"9. c #73766C",
"0. c #7A736D",
"q. c #74796E",
"w. c #79786E",
"e. c #6A6676",
"r. c #736A74",
"t. c #6E7374",
"y. c #727175",
"u. c #767C72",
"i. c #7B7C72",
"p. c #74767B",
"a. c #757B7C",
"s. c #7A7A7C",
"d. c #84706D",
"f. c #897C71",
"g. c #478022",
"h. c #498423",
"j. c #4C8A24",
"k. c #768076",
"l. c #7A8576",
"z. c #7B8877",
"x. c #77827A",
"c. c #78857B",
"v. c #7D8C7A",
"b. c #7E917C",
"n. c #898779",
"m. c #808F7C",
"M. c #928A7D",
"N. c #81937E",
"B. c #747A87",
"V. c #767F92",
"C. c #788387",
"Z. c #798484",
"A. c #7A8B84",
"S. c #7A8C8A",
"D. c #7D928C",
"F. c #748194",
"G. c #7B8396",
"H. c #7D8D9B",
"J. c #7D9493",
"K. c #7E9893",
"L. c #7D949B",
"P. c #7E9A9B",
"I. c #7C8EA1",
"U. c #7D94A3",
"Y. c #7F9AA7",
"T. c #7F9DB0",
"R. c #948E80",
"E. c #839680",
"W. c #889781",
"Q. c #859B83",
"!. c #8C9B85",
"~. c #969785",
"^. c #809E9C",
"/. c #8BA58A",
"(. c #90A087",
"). c #95A28A",
"_. c #9BA68E",
"`. c #95AA8E",
"'. c #9EA88F",
"]. c #9CAB91",
"[. c #95B493",
"{. c #A3A791",
"}. c #A4AD94",
"|. c #A8AF95",
" X c #A4B195",
".X c #AAB196",
"XX c #A4B799",
"oX c #ABB499",
"OX c #ADBA9C",
"+X c #B2B295",
"@X c #BDB595",
"#X c #B3BB9C",
"$X c #BAB898",
"%X c #819EB1",
"&X c #83A6A7",
"*X c #83A4AD",
"=X c #83A6B3",
"-X c #84AAB3",
";X c #84ABBB",
":X c #C2B694",
">X c #C6B996",
",X c #CCB995",
"<X c #D1BA95",
"1X c #BCC3A1",
"2X c #C0C29F",
/* pixels */
"; 1 h 3 4 4 4 4 j 3 3 h j 4 j 4 h h j h 3 3 4 U j 4 j j h 3 3 3 h h j h 3 U h 3 2 3 4 4 3 4 4 4 h 4 3 4 I j j j 4 j j j 4 3 4 j I h j h 4 3 4 4 4 h I 4 3 j 3 , ",
"2 3 h h h I 4 4 4 4 4 j j j j 4 4 I h 4 4 4 j I h 4 4 4 3 h U U U h h 3 h j U U I h 4 h h j 4 4 4 4 h j I I 4 4 4 4 4 4 3 4 j j h 4 4 4 4 I I U j j h 4 h U h 3 ",
"j j h j g.U 4 4 4 j j g.U U U I I I I 3 4 j U I d d 4 4 h h.h.h.j.h.h 3 4 U j.j.j.U I U g.j h 4 4 j j g.U U U d I I 4 4 4 I U d 4 d 3 h I g.j.j.j.g.h 4 h U j j ",
"h j h.j.h.g.h h j j j g.h.j.j.j.h.g.h 4 j h.j.h.h.g.g.h.h.Y h.h.h.h.h.h h g.h.g.h.h.h.h.h.g.j h j h j g.h.j.j.j.j.h.4 4 U h.j.j.h.U h.h.h.Y h.h.h.h.g.j h h.j 4 ",
"4 h h.h.h.h.h.h.g.U U h.j.j.j.h.j.h.Y g.h.j.j.h.I I j j j Y Y Y U U h.h.U U h.h.h.g.h.h.h.j.h.g.h.j U h.j.j.j.h.h.j.g.h.j.j.j.j.j.h.j.j.h.U U U U U j.h.U U j h ",
"h h h j h.j.j.j.h.h.g.h.j.j.U U U j.j.j.j.j.h.g q 6 k < g h I I d d h.j.j.U h.j.h.U 4 h g.j.j.j.j.h.g.h.j.j.g.U g.j.j.j.j.j.j.j.j.j.j.j.h.U U U 4 h h.j.h.U I h ",
"3 4 h j U Y U U U I I I I U h.j.h.h.U U U U h x l & & l 0 g h Y 3 3 U j.j.U h h g.I h U U U U U j I I U d U h.h.h.h.g.d U U h.h.h.j.j.h.h.U h U 3 4 U j.j.U 3 2 ",
"3 g h j j h h h 4 4 d d 4 4 U g.h.h.U h K 3 q M / $.$.} F c g I I U h.j.j.I 4 h U I h g.U I I I 4 4 4 4 4 4 U h.j.g.g.U d U I d U j.j.j.h.h.g.h.U j h.j.j.I 3 1 ",
"4 4 j g.U 4 4 4 4 d 4 4 4 4 4 d h.j h.h.h 0 M ` *.n.M.f.&.F c h U h.h.j.h.4 h U U I j g.U 3 3 4 4 4 4 4 d d d I g.g.h.j.h.U 4 4 I j.j.j.j.j.j.j.h.h.j.j.h.4 3 3 ",
"3 4 4 U U U 4 4 4 d 4 4 4 g.d h.h.g.j.Y < N ' *.n.).}._.f.| N 0 3 I I g.U j U g.I h 4 h h h 3 3 4 d 4 4 d U d g.j.g.j.j.j.j.g.h.j.j.j.j.h.h.h.h.U I I g.j.g.U h ",
"4 4 4 h.h.g.d 4 I I U U U g.j.j.j.h.h.Y 6 & $.0.N.[.OX XM.d.A k , 3 3 i g J J g 2 , < < q < < 2 d U U d g.g.h.j.j.g.j.j.j.h.h.j.j.j.j.h.U U h.h.d 3 3 g.j.g.U j ",
"j 4 d j.j.j.g.d h.j.j.j.h.h.j.j.j.Y h.Y k % $.0.N./.[.'.M.$.S 0 2 2 : 6 O . 5 5 5   . 5 . . * < I j.j.j.h.g.j.j.j.g.j.j.U U j.g.h.j.j.g.h g.j.j.I 3 4 h.j.h h h ",
"4 4 h g.j.j.j.g.d I h.j.g.g.j.g.U j.j.U 0 N { #.q.m.W.m.w.} N < 3 i 0 S ~ ~ ~ / ~ / ~ / { { Z z < I g.j.g.U j.h.U j.j.j.h.j.j.g.h.j.j.j.g.j.j.j.h.Y h.j.j.U h 4 ",
"3 4 j j h.j.j.h.d d U j.g.U h.g.U h.g.h g x S ) &.0.i.8.` F c < q v S ..%.%.#.*.5.6.6.6.d.d.*.` 7 < h j.g.U h.U I h.g.U j.j.j.g.h.j.j.j.j.j.j.j.h.j.j.j.h.g.j 4 ",
"h j h.j.j.j.h.h.j.g.U j.h.U h.j.j.Y I 3 h K b N { :.>.| F P K < l m ' ,.0.9.u.n.M.R.~.R.~.~.M.*.S 5 , h.h.g.g.j.j.h.d 4 U j.j.U d g.h.h.j.j.j.U U U g.g.U h.U j ",
"4 j j.h.j.j.h.j.j.j.h.g.h.h.h.j.j.U 4 3 h h 3 9 n & A M 0 2 3 0 S ..3.u.v.N.!._.}..X.X.X#X#X}.M.6.S l i I h.h.j.j.j 4 d d U U d d I Y U U U h.h.h.g.h.h.j.j.g.j ",
"4 j h.U U j.h.h.j.j.g.I U h.h.j.j.I h h I I I < k O = - : < x N o.8.i.N.!./.].XXOX#X1X2X1X1XoX{.~.*.S z 2 I j.j.j.I j j h I U I U Y U U I U h.j.j.j.j.h.j.j.g.h ",
"j j j 4 h U U g.h.U d d 4 I h.j.j.j.h.j U h.j.U I Y j j < l A } 3.i.l.N.!.`.]. X X#X:X>X$X#XoX|.}.M.*.S 5 , Y j.j.j.h.j U h.j.h.h.h.h.j.j.j.j.j.j.j.j.j I h.g.j ",
"h j h.h h j U U U I I U d 4 g.j.j.j.h.h.I g.h.j.j.j.h.I k S ..4.u.c.b.N.!.].}.oX|..X:X,X,X@X.XOX#X{.M.*.S l g U j.h.h.h.U U h.j.j.j.j.j.g.h.h.h.g.j h.j I I j j ",
"4 j j.g.U U U I I I U g.d d g.j.j.h.j.h.U I g.h.j.Y I b m } 4.l.N.b.A.Q.!.}.|.oX|.+X:X,X<X,X@X$X#X+X|.R.*./ k J Y h.h.h.U U h.j.j.j.j.h.I g.h.j.j 4 g.g.U 4 h j ",
"I U h.h.j.j.h.h.U I I 4 3 I j.h.Y h.h.j.j.j.j.h.I J z S o.4.i.v.N.N.b.N.!.}.|.|.|.|.@X,X<X<X,X@X+XoXXX|.R.3.S z 2 j h.j.h.j.j.h.g.h.h.h.j.j.j.j.j.j.j.j.h.g.j j ",
"j U h.j.j.h.h.h.j.h.U U U h.j.j.h.U U j.h.g.U h J v ^ #.8.q.l.v.N.N.N.N.!._.}.|.}.|.+X:X,X<X,X:X.XoXOXOX{.n.#.S k q h g.h.h.U h.h.h.g.h.h.h.h.j.j.h.h.j.j.h.j j ",
"4 j j.h.h.h.h.h.j.j.j.j.j.j.j.j.h.h U U j h 2 < v ) <.s.Z.l.l.z.N.N.b.N.!._.|.|.|.}.|.+X:X,X<X:X+X.XoXOX|.~.u.o.S 7 > 4 I I I h.j.g.U I d d U U j j I h.j.Y j j ",
"j j U h.h.j.h.U g.j.j.j.j.j.h.g.U U h h h h g k A #.p.S.S.x.q.l.N.N.N.N.!._.|.|.|.}.}.|.+X:X>X@X+X|. XoX}.`.E.w.o.$ 5 < h U h.j.h.d I U U U U d 4 h U g.h.h.j h ",
"h j h.h.h.h.U U U U U U h.j.h.U U h.U I Y U K . % $.s.A.A.k.q.l.b.N.b.N.(.'..X.X|.}.}.}.|.+X@X@X.X|.}..X X`.W.i.+.@ 5 1 j h.j.j.g.4 4 I U I d d 4 4 g.g.g.g.g.4 ",
"4 U j.h.U 4 I g.h.g.I d g.j.h.h.h.h.h.h.j.h.I k & $.8.k.l.k.k.z.N.N.N.N.(.'..XoX|.|.}.}.|.|.|.|.|. X.X X].`.W.w.X.@ 5 3 h.h.h.j.h.4 d 4 4 4 4 4 4 j h.g.g.g.j 4 ",
"h U h.h.j 3 4 j j.j.j.h.h.h.U h.j.j.j.h.j.I J l ^ *.8.q.k.q.q.z.v.N.b.N.!.).}.|.|.|.|.}.|.}.}.}.|.|..X.X X`.N.l.*.A z q Y h.h.h.j.h.h 4 4 4 I j j j g.g.g.j.g.4 ",
"h U h.g.g.U 4 j j.j.j.h.j.h.g.j.j.j.j.h.I c M ` <.y.9.9.q.q.q.z.N.N.b.N.E.!.).'.|.|.|.|.}.}.}.}.}.|..X.X X(.N.z.9.&.` F c g j h.j.j.g.j I g.h.h.h.j.g.g.g.j.g.4 ",
"4 j j.j.j.j.j.h.j.h.U I g.j.j.j.j.h.h.I > l ( <.a.A.x.q.9.9.k.z.b.E.N.N.N.N.W.).}.|.|.|.|.}.}.}.}.|..X.X'.(.N.W.b.i.*./ l > 3 j j.j.h.j.j.j.j.j.j.j.j.h.j g.j 4 ",
"3 h g.j.h.j h.j.h.h.g.I h.j.j.j.h.U j 3 - Z +.s.D.K.A.q.9.9.q.z.b.E.E.N.N.v.N.!.).}.|.|..X.X.X.X.X|.}.}.).W.N.Q.Q.N.w.X.O k h j g.j.j.j.j.j.j.j.j.h.j g.j.j 4 3 ",
"4 j h.j.h.j g.h.h.h.I I U j.h.g.U U U g 6 Z -.B.D.^.c.u.8.9.q.z.b.N.E.N.b.v.b.N.!.).'.|..X.X.X.X.X X_.~.W.N.b././.N.i.#.$ k g j g.j.j.j.j.g.h.h.j.g.g.j.j.j 4 4 ",
"h g.j.j.h.j j h.j.U d I I j 4 U U h.j.U - m  .y.S.J.c.u.9.9.q.z.N.E.N.N.N.N.b.N.N.W.).}.|..X.X.X.X'.).W.N.b.b.Q.Q.v.5.| O * 2 h.j.g.j.j.j.j j h.h.j.j.j.j.g.g.4 ",
"4 j h.h.h.j g.g.g.g.U 4 U h.g.U h.h.Y g 6 $  .y.S.D.c.u.9.9.u.z.N.N.E.N.N.N.b.b.b.N.(.)._._._._._._.!.N.b.b.N.N.N.z.4.{ O > h Y g.U h.j.j.g.U h.j.j.h.j g.j.g.g.",
"4 4 g.g.g.g.j.h.j j.h.I g.j.j.h.h.j.U 3 - m  .y.S.D.A.q.9.9.u.z.N.E.W.N.N.N.N.b.v.N.N.!.(.!.!.!.!.N.N.N.N.N.N.N.v.k.*.{ # c I U U I g.j.j.h.g.j.j.h.h.4 4 j.g.4 ",
"4 j g.U g.j.j.j.j.j.j.j.U I j.h.h.h.h.I - m  .y.S.D.c.u.8.9.u.x.v.N.N.N.N.N.N.N.b.N.N.N.N.b.b.b.N.N.N.N.N.N.N.b.z.9.&.{ O 6 3 h I h.g.h.j.j.h.j.h.g.g.g.j.j.4 3 ",
"4 4 4 4 U j.h.h.j.j.j.h.U U j.j.h.j.h.I > m  .y.A.D.k.9.9.9.u.u.l.v.N.N.N.N.N.N.N.N.b.b.v.b.b.b.v.v.N.N.N.N.N.N.z.8.#.{ l - 3 h U h.U U g.j U j.j.h.g.g.j.j.4 1 ",
"4 4 4 4 d g.g.h.j.j.h.4 I h.j.j.j.h.g.h 0 Z  .y.A.D.x.q.9.9.q.u.u.l.b.N.E.N.N.N.N.N.N.v.b.b.b.N.b.b.N.N.N.N.N.b.l.9.%.{ $ > g j g.h.g.I I I U h.j.j.h.h.j.h.4 3 ",
"j 4 4 j 4 4 4 j.j.j.h.h.U h.h.U I I I 3 - m +.B.L.P.D.x.q.q.9.9.q.q.l.v.N.N.N.N.N.N.N.N.N.N.N.N.N.N.N.N.N.N.v.v.l.9.:. .m 0 h Y h.h.j.j.g.j.h.U 4 j j.j.j.h.g.4 ",
"j j j j g.g.g.U g.g.g.h.h.U U h.Y Y g.h = m :.G.*XT.K.A.u.u.9.9.9.q.q.z.v.N.W.N.N.N.N.N.N.N.N.N.N.N.N.N.N.v.z.l.l.u.3. .$ k h h.j.h.j.h.h.j.j.h.j h j.h.j j j g.",
"4 j g.h.h.j.g.g.U j j h.h.h.U h.j.h.h.Y - m -.F.T.;XY.S.x.u.q.9.9.q.q.q.l.b.N.Q.N.N.N.N.N.N.N.N.N.N.N.N.N.z.k.l.u.0.3.| O k h h.j.h.g.h.g.g.h.h.j j h.j 4 j 4 4 ",
"1 4 h.h.h.h.h.h.h.U U h.j.j.h.h.h.h.j.Y < k Q 1.B.U.U.J.A.u.q.9.9.q.9.q.k.l.v.b.b.N.N.N.N.N.N.N.N.N.N.m.z.k.y.9.8.&.' C 6 < U j.j.h.j.j.g.U U h.h.h.j.g.g.j.U 4 ",
"3 h U U j Y U j g.I U h.g.g.h.U j h.U I 3 < v H ;.B.S.J.A.x.q.9.q.q.9.9.q.q.l.v.N.N.N.Q.N.N.N.Q.N.N.v.z.l.u.9.8.@.^ n 9 2 3 U Y U U U U I g.h.h.j.h.U I U j.U j ",
"j j h U g.U h 4 j j U U U I U I h I h 3 h h 3 . A -.B.S.D.x.q.9.q.q.q.q.q.q.q.k.v.N.N.N.N.b.b.b.N.N.k.q.q.q.9.4...$ 5 , 3 U U I 4 4 4 3 I g.j.j.j.g.h 3 4 U j j ",
"4 j h.j.h.g.h h I h h g.h.j.j.j.h.g.h 4 j h.j * $ X.p.S.D.c.q.9.q.q.q.q.q.q.q.k.z.v.v.b.z.z.v.v.v.l.l.q.u.u.9.4. .+ * , U h.j.h.h.U h.h.h.h.h.h.h.h.h.j h g.j 4 ",
"4 I g.g.h.j.h.g.g.U U g.j.j.j.h.h.h.g.h.h.h.Y = m +.a.S.D.c.9.9.q.q.q.q.q.q.q.q.q.l.k.k.q.k.k.k.l.u.q.q.u.u.9.3. .$ 5 3 h.j.j.j.h.j.j.j.h.U U g.U U h.h.U g.j 4 ",
"4 4 I I g.j.j.j.h.j.h.h.j.j.U U h.j.j.j.j.h.g k B -.a.S.D.x.9.9.q.q.q.q.q.q.q.q.q.9.9.q.9.9.q.q.9.9.u.q.u.l.q.4...$ k h h.j.j.j.j.j.j.j.h.U U U 4 4 h.j.h.U j h ",
"4 4 h U U g.U U I I I I I U h.h.h.h.Y j I I g = B -.u.A.A.k.9.9.q.q.q.q.q.u.q.q.q.9.9.9.9.9.q.9.9.9.9.u.u.u.9.3.| $ 6 < I U g.h.h.j.j.j.h.U h I 3 3 g.j.h.U 3 3 ",
"3 3 h g.U h 4 I d 4 d d 4 I U h.h.g.U I U h i   B -.a.S.D.c.q.9.q.q.q.q.q.q.q.q.q.q.q.q.q.q.q.9.q.q.q.9.k.u.9.4. .$ 5 < I U I I U j.j.j.h.g.g.Y U U h.j.j.4 3 2 ",
"3 4 h j U h 4 4 4 4 4 4 d 4 4 I g.g.h.j.j.4 <   & -.C.L.P.A.k.q.q.q.q.q.q.q.q.q.q.q.q.u.q.q.q.q.u.q.9.q.x.l.x.0.o.@ k 3 Y g.h 4 U h.j.j.j.j.j.j.j.h.j.j.h.4 3 3 ",
"3 4 j j j h h 3 3 h h 4 I U d h.h.h.j.j.j.h.3   A r.^.=X-XJ.Z.u.q.q.q.q.q.u.q.q.u.q.q.q.q.u.q.q.q.9.9.9.l.A.D.s.-.% k K h.j.j h.j.j.j.h.h.h.h.h.Y h I h.j.g.I h ",
"3 h j g.h.h.h h I U U I U g.j.j.j.g.j.j.j.h.3 = W ;.V.%X=XP.A.x.q.q.9.q.q.q.q.q.q.q.q.q.q.q.q.q.q.q.9.q.c.S.S.p.+.$ k K h.h.h.j.j.j.j.h.U j h.h.4 3 3 g.j.h.U j ",
"j h j j.j.j.U j h.h.j.j.h.g.j.j.j.g.j.j.j d p 0 n [ B.V.U.J.D.x.q.9.9.q.q.q.q.q.q.q.q.q.u.q.q.9.9.q.u.u.l.a.t.1.] M 0 p I U j.U h.j.j.h.j Y j.j.I 3 4 h.j.h h h ",
"4 h j h.h.j.j.h.I I h.j.h.U j.g.g.j.j.j.U I s a w _ ] ;.p.C.S.A.k.9.9.9.q.q.q.q.q.q.q.u.q.q.q.9.9.q.x.A.a.8.O.Q V y a s I Y h.h.h.j.j.j.g.j.j.j.h.U h.j.j.U h 4 ",
"3 4 j j h.j.j.g.4 d U j.g.U j.g.d j.g.d I s f s y w # ( 2.C.J.D.l.q.q.q.q.q.q.q.q.q.q.q.9.9.q.q.u.c.D.P.C.<.W $ 9 s a f P Y h.U h.h.j.j.j.j.j.h.h.j.j.h.h.h.j h ",
"4 j h.j.j.j.h.h.j.g.U j.h.U g.j.j.g.4 3 p f f a y 8 X & 2.H.=X&XK.c.c.k.q.q.9.9.9.9.9.9.9.9.q.u.c.K.&X-XH.;.% O w s a r i T h.I h U h.j.j.j.j.g.U U U h.Y h.U I ",
"3 j j.g.j.j.h.j.j.j.h.g.h.h.h.j.j.U 4 3 i a a t e 8 o W 7.I.=X=XK.D.A.A.x.k.9.9.q.q.q.9.9.9.q.k.A.P.-X;XH.e.W $ w t t r t p I d h U U j j g.h.h.h.h.h.h.j.h.g.j ",
"4 U h.I U j.h.h.j.j.h.U U h.j.j.h.j 4 4 i u f a t w 7 ^ 1.V.U.L.S.S.L.P.J.A.l.k.x.x.k.l.k.k.x.x.x.G.I.U.F.=.! M v t t y r p 4 d I U U U I U h.j.j.j.j.j.h.j.g.j ",
"j U I 4 I U U g.h.I d d 4 I g.j.j.j.h.U p s f f a R w H ] e.e.7.e.t.U.T.T.P.D.A.S.D.D.S.D.D.A.k.8.7.r.B.;.] H v a s f y a d g.h.j.j.j.j.j.j.j.j.j.j.j.g.j h.g.j ",
"h I g.I I I U U I d I U 4 d g.j.j.j.j.U p a f f E L P G V ) ~ W ( =.V.T.T.P.D.A.A.S.S.S.D.D.A.t.[ ( W ( Q V y P P L f y a p g.j.j.j.j.h.g.h.h.j.j j h.j h j j h ",
"4 U j.g.U U U I I U g.g.I d g.h.j.h.h.h.d p a a P P T f w 7 + o # ) e.F.U.C.a.a.a.a.B.a.Z.Z.t.=.! + X + 7 8 s P P s s s p I U h.j.j.j.h.I U h.h.j j j g.j 4 h j ",
"j U g.j.j.j.h.g.h.I h 4 4 I j.h.h.g.h.j.h.h.T s a f f s a w v z D _ ] 1.e.,.#.@.@.#.@.+.#.-.O.] V 9 7 7 8 t L E f a p T g.j.j.g.h.h.h.j.j.j.j.j.j.j.j.j.j.j j j ",
"j U h.j.j.h.h.j.j.g.g.U U g.j.j.h.I g.h.h.U I d s f f a f a a a t D V ! ~ ! W ! W ! ! ! ~ ! ! C G a a t t f E E s a p U g.g.g.g.h.h.Y g.h.h.h.h.j.h.h.j.j.g.g.j ",
"h g.j.h.g.g.h.j.j.j.j.j.j.j.j.j.j.I I h.I I d Y I a t t t t a p a r 7 O + O # n # # # # # # n w s T T T T E f f a i d U I h I j.j.U U I I I U U U j j h.j.h.j j ",
"h j j g.j.j.g.U g.h.j.j.j.j.h.g.U I I d I U h.j.U u t t y t t a r r r w w w w w y w w w v D w t t s E s E E f i p h j I I I h.j.h.I I U U I I I h h j Y g.h.j 4 ",
"h j U h.h.h.U U U U U U h.j.h.Y I h.U I U g.j.j.g.3 u t t t e e e r f f t a f a f f a f f a a t a t a a a f s p d g.U I U h.j.j.h.d I I I I d d 4 4 g.g.g.g.j 4 ",
"4 j j.j.g.4 I U h.g.I I U j.h.h.h.j.j.h.h.j.h.j.h.d 3 i u 1 u r e y f f s a s s s s s s s e t a f a u u p d s U g.j.h.h.j.j.j.j.h.I d d 4 4 4 h 4 h h.h.g.g.j h ",
"h U h.g.h 4 4 I j.j.h.h.j.h.h.h.j.j.j.j.j.j.h.j.j.h.d 3 i d 4 i a t a a a s s s s s f a t e e a f s T U h.U U h.j.j.j.j.j.j.h.h.h.h.I 4 4 4 U U j g.g.g.h.j.j j ",
"h j j.g.U U 4 g.j.j.j.j.h.h.h.h.j.j.j.j.j.h.U h.j.j.g.I 4 g.g.d K s s s s s s s s s s s s u t i s s U h.h.j.g.j.j.j.j.j.j.g.U h.j.j.g.I I U g.h.h.h.g.g.g.h.g.j ",
"4 g.j.j.j.j.j.h.j.g.U I g.j.j.j.j.h.j.h.g.d 4 h.j.j.j.j.j.j.j.g.U Y T I p p I I d T d U U I I T I I I j h.j.j.j.j.g.h.h.h.I h h.j.j.j.j.j.j.j.j.j.j.j.g.g.g.j 4 ",
"4 4 g.j.h.U h.j.h.h.U I g.j.j.j.g.Y d U j.j.j.d d j.j.j.j.j.j.j.h.U j j U I I h j j U h.h.I g.g.h.g.U I g.j.j.h.g.g.I U h.j.h.j U j.j.j.j.j.j.j.j.h.g.g.g.j 4 3 ",
"3 4 g.j.h.4 g.h.h.g.U h g.h.h.g.U U U g.j.j.h.j g.j.j.j.j.h.g.j.j.h.U j.j.U U U h.g.h.j.h.I g.j.h.h.g.d g.h.h.h.j g.U g.j.h.h.j g.j.j.j.j.h.g.j.j.g.g.j.j.j 4 3 ",
"j g.j.j.j.g.j g.j.g.4 j j I j j U h.j.j.h.4 4 j.j.g.j.j.j.g.d g.h.j.j.j.j.h.j.j.j.j.j.j.h.U I h.j.U d I d U d d U h.j.j.g.j h h.h.g.j.j.j.j j h.g.j.j.j.j.h.g.4 ",
"4 j j.j.g.j h.h.g.g.j h g.h.U U g.h.g.U g.g.h.h.g.d h.j.j.g.U h.j.j.g.j j j.j.j.h.h.h.h.g.U g.g.h.h.d d g.h.U j h.h.g.j g.h.h.h.g.U h.j.j.g.U h.j.j.h.j g.j.g.g.",
"4 4 j g.g.h.h.h.j j.h.U g.j.j.h.h.j.U j j j.j.g.4 g.g.j.j.h.g.j.j.j.g.4 j j.j.j.h.U U h.g.h.h.h.U h.j.U g.j.j.h.h.j.U j U j.j.U d U g.j.j.g.g.j.j.h.h.4 4 j.g.4 ",
"4 h j g.h.j.j.j.j.j.j.j.I U j.h.g.j.h.g.h.g.g.4 g.g.g.h.j.j.h.j.h.g.j g.h.j.g.U U U U U h.j.j.j.j.j.j.j.U U j.h.g.j.j.g.g.g.U 4 4 h.g.h.j.j.h.j.h.g.g.g.h.j.j 4 ",
"4 4 j h j j.h.h.j.j.j.g.U U j.j.j.j.h.h.j.h.U 4 U h.j U g.4 g.j.j.j.g.g.j.j.j j h.U h h U h.h.h.j.j.j.g.d U j.j.j.j.h.h.j.h.U j g.h.U I g.j g.j.j.h.g.g.j.j.4 1 ",
"4 4 4 4 j j g.g.j.j.h.j j h.j.j.h.h.g.g.j.j.g.U g.j.g.4 4 4 g.j.j.j.h.h.h.j.U I h.U h h I U U h.j.j.g.j g.g.j.j.j.g.h.h.j.j.g.j g.j.g.I j I U h.j.j.g.j.j.h.4 1 ",
"j 4 4 j j 4 j g.h.j.g.g.j g.h.U I U j U j.j.j.g.g.j.j.j.h.j.h.g.4 j j.j.j.h.j.j.j.j 3 h I h U h.j.h.j.h.j g.h.g.I I I U j.j.j.g.g.j.j.j.g.j.j.g.4 j j.j.j.g.g.4 ",
"3 4 4 4 j 4 j j j j j j j j j j I h h I U U U g.U U h.g.g.h.g.4 3 3 U j 4 4 I h.U h 4 h I h j h 4 4 j 4 j j j j I j I I U U U g.U g.g.g.U U g.U 4 3 j j 4 4 4 4 ",
"1 1 4 4 4 j 4 4 3 1 3 4 j 4 3 4 U j j j 3 3 4 U I 4 4 4 4 4 d 4 3 3 4 3 1 3 3 h h 4 3 h h h 4 3 4 1 4 4 4 4 4 4 j j j I 3 3 4 j 4 4 4 4 4 4 4 I 3 3 4 3 1 3 1 1 "
};
