/* XPM */
static char *Group_9_14__resized[] = {
/* columns rows colors chars-per-pixel */
"80 80 225 2 ",
"   c #352C1F",
".  c #34391D",
"X  c #393722",
"o  c #3C3D24",
"O  c #45332D",
"+  c #443B2B",
"@  c #423C2B",
"#  c #482830",
"$  c #4A3532",
"%  c #463A34",
"&  c #463C35",
"*  c #4B3B35",
"=  c #4D3B3A",
"-  c #57353A",
";  c #523C3C",
":  c #37451E",
">  c #344C1C",
",  c #394C1E",
"<  c #2F5216",
"1  c #36521D",
"2  c #39561F",
"3  c #365A1B",
"4  c #3A5B1E",
"5  c #37631B",
"6  c #3B641D",
"7  c #3D6D1E",
"8  c #3F711F",
"9  c #3C4324",
"0  c #3D4B23",
"q  c #3E452C",
"w  c #3C4C2D",
"e  c #3C5322",
"r  c #365A27",
"t  c #3C5C23",
"y  c #3E522E",
"u  c #3A5D2C",
"i  c #3E4432",
"p  c #3D4E30",
"a  c #3E5230",
"s  c #3C5E30",
"d  c #3B6424",
"f  c #3E6C23",
"g  c #3D652D",
"h  c #3E692C",
"j  c #3F7220",
"k  c #3E6630",
"l  c #416D1F",
"z  c #41751F",
"x  c #43781F",
"c  c #404527",
"v  c #44442C",
"b  c #424D2A",
"n  c #405525",
"m  c #425B25",
"M  c #46562C",
"N  c #464233",
"B  c #494235",
"V  c #454B32",
"C  c #4C4B34",
"Z  c #4D4339",
"A  c #454B3A",
"S  c #4B493A",
"D  c #52433D",
"F  c #514C3B",
"G  c #5D4E3F",
"H  c #415434",
"J  c #4B5234",
"K  c #475835",
"L  c #545539",
"P  c #426523",
"I  c #426C22",
"U  c #40652E",
"Y  c #406B2D",
"T  c #427520",
"R  c #457C21",
"E  c #447728",
"W  c #416430",
"Q  c #416B30",
"!  c #427030",
"~  c #573542",
"^  c #563D42",
"/  c #583F43",
"(  c #4A4A44",
")  c #564343",
"_  c #5B4343",
"`  c #544E44",
"'  c #5C4A45",
"]  c #5A464B",
"[  c #5C4D4A",
"{  c #585244",
"}  c #5D534A",
"|  c #5F5B4D",
" . c #585557",
".. c #61464A",
"X. c #65484B",
"o. c #634B4C",
"O. c #645549",
"+. c #624D51",
"@. c #6A4B51",
"#. c #655354",
"$. c #6B5555",
"%. c #645B53",
"&. c #6B5B55",
"*. c #655659",
"=. c #6A5558",
"-. c #665B5B",
";. c #6A5D5B",
":. c #755957",
">. c #66635D",
",. c #6B665B",
"<. c #6C625D",
"1. c #786254",
"2. c #72635D",
"3. c #5A5961",
"4. c #675D63",
"5. c #795F63",
"6. c #656363",
"7. c #666667",
"8. c #6B6463",
"9. c #6C6B65",
"0. c #6A656B",
"q. c #6D6B6A",
"w. c #736563",
"e. c #726B65",
"r. c #7A6866",
"t. c #7C6964",
"y. c #756D6A",
"u. c #6E7469",
"i. c #6E746D",
"p. c #727166",
"a. c #73746B",
"s. c #7C746B",
"d. c #757A6E",
"f. c #7A7A6D",
"g. c #696975",
"h. c #726D76",
"j. c #6E7275",
"k. c #727574",
"l. c #757C72",
"z. c #7A7D72",
"x. c #747B7B",
"c. c #777B7C",
"v. c #86745F",
"b. c #896C66",
"n. c #826D6B",
"m. c #8A7164",
"M. c #83726B",
"N. c #827A6E",
"B. c #94786B",
"V. c #877871",
"C. c #847C72",
"Z. c #947B72",
"A. c #478022",
"S. c #498423",
"D. c #4C8A24",
"F. c #7E826F",
"G. c #778274",
"H. c #7B8374",
"J. c #7C8977",
"K. c #75817C",
"L. c #79857A",
"P. c #76887C",
"I. c #7D8C7A",
"U. c #7F917C",
"Y. c #848374",
"T. c #8A8275",
"R. c #818877",
"E. c #8F8479",
"W. c #828C7B",
"Q. c #8C8D7D",
"!. c #938C7E",
"~. c #82937E",
"^. c #86997D",
"/. c #95937F",
"(. c #A28877",
"). c #A4917D",
"_. c #6E7688",
"`. c #727C87",
"'. c #768382",
"]. c #788483",
"[. c #7A8B82",
"{. c #75838C",
"}. c #7A8D8B",
"|. c #7D9388",
" X c #768598",
".X c #7C9394",
"XX c #7D98A6",
"oX c #849580",
"OX c #8B9581",
"+X c #859982",
"@X c #8A9C85",
"#X c #89928D",
"$X c #949283",
"%X c #979A86",
"&X c #9B9D89",
"*X c #A89784",
"=X c #B39C84",
"-X c #8CA389",
";X c #94A48B",
":X c #9CA28B",
">X c #95A88D",
",X c #8FA092",
"<X c #99AB90",
"1X c #9DAC92",
"2X c #9AB193",
"3X c #A6A68D",
"4X c #BAA48A",
"5X c #A2AC93",
"6X c #A8A891",
"7X c #B3AB91",
"8X c #A2B296",
"9X c #A8B598",
"0X c #ACBC9B",
"qX c #B1BA9B",
"wX c #819BA4",
"eX c #809FB0",
"rX c #82A4B3",
"tX c #C0AE8E",
"yX c #C7B898",
"uX c #C2BC9A",
"iX c #ABC39D",
"pX c #BAC9A3",
"aX c #CBC29D",
"sX c #C7C9A2",
"dX c #CAD0A6",
/* pixels */
"< 5 z 7 8 8 8 x z 7 7 x x x x 8 8 x x x 8 7 8 A.x 8 x x 8 7 7 8 8 8 x 8 8 R x 7 5 7 8 7 8 8 8 8 x 7 7 x x 8 x 8 8 x x x 7 7 8 x T x x T 8 7 7 7 8 x T 8 8 R 7 < ",
"6 7 8 z T T 8 8 8 8 8 x T x x 8 8 j 8 8 8 8 8 R 8 8 8 8 8 T R R R R 8 8 8 T A.R T T x 8 x x 8 8 8 8 8 x R 8 x 8 8 x 8 8 8 8 8 x T 7 8 7 8 T R R R T 8 8 7 R x 7 ",
"x x x x A.R z z 8 x x A.R R T T j R j 8 8 x R j 8 8 8 8 j A.D.D.D.A.x 7 8 x D.D.D.A.x R R R 8 8 8 x x A.R R R j j T 8 8 8 j A.T x 8 l z x A.D.D.D.A.x 7 x R x x ",
"z x S.D.S.R z T x x x R S.D.D.D.S.S.8 j x S.D.S.A.A.S.S.S.A.A.S.S.S.A.x x A.A.A.S.A.A.D.S.A.x 8 x 8 x A.S.D.D.D.D.S.8 8 A.S.D.D.A.A.A.S.A.A.S.S.S.S.S.T x S.x 7 ",
"8 x A.A.S.D.A.A.S.x R S.D.D.D.S.S.S.A.A.D.D.D.D.D.D.D.D.S.A.A.A.R R S.A.A.A.A.A.A.A.A.A.S.D.S.A.S.A.R A.D.D.D.S.S.D.A.S.D.D.D.D.D.S.D.D.D.R R R R R D.A.R A.x 8 ",
"8 z x x R D.D.D.S.S.S.S.D.D.R R A.D.D.D.D.D.D.D.D.D.D.S.A.R T R j j S.D.S.R A.D.S.R j T A.D.D.D.S.S.S.S.D.D.R R A.D.D.D.D.D.D.D.D.D.D.D.R R R R 7 x S.D.S.R x x ",
"7 z z x R R R R R T T T T R S.S.S.S.A.T R R R S.S.D.D.D.S.T x T 8 8 A.D.D.R T T A.x 8 R A.R A.A.x T T R j R S.D.D.S.A.8 T A.A.S.S.D.D.S.D.T T R 8 8 A.D.D.R 7 6 ",
"7 7 z x R x x T 8 8 8 j 8 8 R S.D.S.R R T T T x R D.D.D.D.A.A.A.T x S.D.D.T 8 x R T x A.R 8 8 8 8 8 8 8 8 8 R S.S.A.R R R T R 8 R D.D.D.D.A.A.S.T x A.D.D.T 7 5 ",
"7 8 8 A.A.8 8 8 8 8 8 8 8 8 8 j A.A.S.D.D.x x 8 x S.D.D.D.D.D.D.S.A.D.D.S.j T A.R T T A.T 8 8 8 8 8 8 8 8 8 j j A.A.A.D.D.R 8 8 T S.D.D.D.D.D.D.S.S.D.D.A.z 7 7 ",
"7 8 x A.A.j 8 8 8 j 8 8 T R j S.S.S.D.D.D.D.R S.D.D.D.D.S.S.S.S.R x T S.S.A.S.S.R T x R R x 8 8 8 8 8 8 j A.j A.D.A.D.D.D.D.A.S.D.D.D.D.S.S.S.S.R T T S.S.A.x z ",
"8 8 8 S.S.A.j 8 T R R T A.A.D.D.D.A.D.D.D.S.S.D.D.D.D.D.x A.S.S.8 7 f A.D.S.D.D.S.T x A.S.S.T 8 j A.8 A.A.A.S.D.D.A.D.D.D.S.S.D.D.D.D.S.R R S.S.T 7 7 R D.S.R x ",
"x 8 8 D.D.D.A.j A.D.D.D.S.S.D.D.D.A.D.D.R A.D.R A.D.D.A.x A.D.D.T 7 8 S.D.T R D.D.A.T S.D.D.A.T A.D.D.D.D.S.D.D.D.A.D.D.j A.S.A.S.D.D.S.T A.D.D.T 7 z A.D.T z z ",
"8 8 8 A.D.D.D.A.8 R S.D.A.A.D.A.R S.D.D.D.D.D.S.S.D.D.D.S.D.D.D.S.A.S.D.D.R R A.A.T x A.D.D.D.A.8 R S.D.A.R D.A.R D.D.D.D.D.D.S.S.D.D.D.S.S.D.D.S.S.S.D.D.R x z ",
"7 8 x A.S.D.D.S.8 8 R D.A.R S.A.R D.A.R D.D.D.R S.D.D.D.D.D.D.D.S.S.D.D.S.A.S.A.R R T R S.D.D.S.8 8 A.D.A.R D.R 8 S.A.A.D.D.D.A.S.D.D.D.D.D.D.D.S.S.D.S.S.A.T z ",
"x x A.D.D.D.S.S.D.A.A.S.A.A.A.D.S.A.T 7 R D.D.R x R A.S.S.D.D.A.R R A.A.R A.D.D.S.A.S.D.D.D.S.S.D.A.R D.A.A.S.D.D.S.j 8 R D.D.R T T S.S.D.D.S.A.R R S.R A.A.R R ",
"8 x D.A.D.D.S.D.D.D.S.A.S.S.S.D.D.R z l T T R z x x R R x A.A.D.S.A.S.S.D.D.D.D.S.S.D.A.S.D.D.S.D.D.S.A.S.S.D.D.D.x 8 8 j R R 8 T R R R R R S.S.S.S.S.S.S.D.A.x ",
"8 x S.x R D.S.S.D.D.A.R R A.S.D.D.R x T x T T T R R R R T R A.D.D.D.D.D.D.D.D.D.A.S.S.T R D.S.S.D.D.S.R A.S.D.D.D.T x 8 x 8 T R T R R T R R A.D.D.D.D.D.D.D.R x ",
"x x x 8 x R R A.A.T T 7 7 R S.D.D.S.S.R R A.D.D.S.D.S.D.D.D.D.D.D.D.D.R x S.D.D.D.A.R j T R R R A.8 8 8 8 T S.D.D.D.S.x A.S.D.D.D.S.D.D.D.D.D.D.D.D.D.x R A.R x ",
"z x S.x x x T R R T T R T 8 R D.D.D.S.A.R A.S.D.D.D.D.S.A.S.S.S.R R A.R z T S.D.S.A.A.T T T R R A.j j A.8 8 R D.D.D.S.A.R A.S.D.D.D.D.D.R A.S.D.R x A.R T T x x ",
"8 x D.A.R R R T T R R A.T 8 A.D.D.S.D.S.R R A.D.D.D.D.S.T A.S.D.x x R R R z R D.A.S.D.A.R R R T j j R S.8 8 A.D.D.S.S.D.R R A.S.D.D.D.S.R R S.S.x x R A.T z x x ",
"T R A.S.D.D.A.A.S.R z 7 l T D.D.A.A.S.D.D.D.D.A.A.S.S.D.D.D.D.D.S.D.D.D.S.R S.D.D.S.A.D.D.D.S.S.S.R 8 8 8 8 D.D.A.A.S.D.D.D.D.A.A.D.S.D.D.D.D.D.D.D.D.D.D.R x x ",
"T R S.D.D.S.S.D.S.S.R R R R D.D.A.R A.D.S.A.A.S.S.S.A.A.S.S.S.S.S.S.S.D.D.S.S.D.D.S.S.S.D.D.S.S.D.S.R R R S.D.D.S.R A.D.S.S.A.S.S.S.A.A.S.S.S.S.D.S.S.D.D.S.x x ",
"x x D.S.A.S.S.D.D.D.D.D.D.D.D.D.S.T T R T x T D.D.R A.T j T R A.R R x S.D.S.S.D.A.S.D.S.A.A.S.D.D.D.D.D.D.D.D.D.S.8 T A.T x 8 D.S.R R T T T T R x x x S.D.S.R x ",
"x x R S.S.D.S.R S.S.D.D.D.D.D.R R R T T x R S.D.D.j 8 R R R j R l T R R A.S.A.A.D.S.A.A.D.D.A.A.R S.D.D.D.D.D.A.R R T x T T S.D.S.T T R R R x z z T R R S.R R l ",
"x x A.S.S.A.R R R R R R S.D.S.R R A.R R R A.S.D.S.z z T R j j j l x A.A.A.A.A.S.S.S.A.S.S.A.R R R R R R S.D.D.R R S.R T A.A.S.D.R 7 7 7 x T z 8 7 8 A.A.A.A.x 8 ",
"8 x D.D.A.8 T A.S.A.T j R D.S.S.S.D.S.A.D.D.D.D.S.T z l 8 8 8 8 7 T S.S.A.R A.S.A.S.D.S.R x T R R R R T R S.S.S.S.D.S.A.D.D.S.A.l 4 3 4 6 7 8 x 8 x S.S.A.x x x ",
"x R S.A.x 7 8 x D.D.D.S.D.S.R A.D.D.D.D.D.D.S.S.D.S.T 8 8 8 j R R R R A.S.D.D.S.S.S.S.R R 7 7 T D.D.S.S.D.S.R D.D.D.D.D.D.D.A.f , o X X > 6 x x R R x S.S.D.A.x ",
"8 R S.A.A.x 8 x D.D.S.S.D.S.R R R R R S.S.A.R S.D.D.A.T x R S.S.S.S.S.A.A.S.S.D.S.S.R x 7 7 7 R D.D.S.S.D.S.R D.D.D.S.D.D.R l m C / / ; w t x A.S.S.S.A.A.S.x x ",
"8 R D.D.D.D.S.D.D.S.R T S.S.R I P 2 4 7 R x T A.S.D.D.D.D.D.D.D.D.D.D.A.R R A.S.S.R l 6 m 6 7 R D.S.R E S.D.D.D.D.D.S.S.A.6 e L :.B.B.b.O.M I R S.D.D.A.R A.x 8 ",
"7 x A.D.S.T D.D.S.S.A.j S.S.l n + $ @ e T S.A.R R D.D.D.D.S.D.D.D.S.R R A.R R R R I 0 @ + + 0 I R D.R z R D.D.S.x x x x 7 2 v :.(.4X7X$Xy.O.J 4 x S.x A.A.R 8 7 ",
"8 x S.D.S.x A.S.S.R R 8 j T M S ..+._ C P T R R R S.D.D.D.S.A.D.D.S.R D.D.R x z I m B X.X.X.L m I R R z x D.S.S.x S.x l m v O.B.4XaXsX9XQ.2.D 0 l A.A.D.D.R 8 7 ",
"x x D.D.S.x x S.D.R f 6 3 w { ,.N.Z.M.;.L e 6 R D.A.D.D.D.T T S.S.S.D.D.D.S.R I m L 1.Z.(.Z.2.L m 4 l z x x x x x x l m C b.Z.tXyXdXpX0X$Xn...@ l S.D.D.D.S.R x ",
"x T S.S.A.x A.A.A.S.z 2 q Z %.d.OX5X&XC.1.C , z x R S.D.D.x x S.D.D.S.R R S.T n D :.(.tXyX3XT.>.F n 4 7 A.S.x A.x l e F :.(.tXyXqXqX0X>XR.5.' @ l S.S.x T D.A.x ",
"7 x A.R A.A.D.S.x S.x 2 o D &.z.@X8X9X%Xt.X.. 4 z R R D.D.D.x x R R R T x S.l 9 ..b.=XaXdXqX&Xr.X.v 2 x S.D.D.S.x 6 o ; m.=XyXaX0X<X;XJ.9.} Z e z S.x x T D.A.x ",
"8 x x R S.D.D.D.D.D.S.x e w ` <.E.<X8X&XV.o.O 2 z R R D.D.D.x 2 , 4 x R S.S.4 X ..b.=XsXdXiX;XV.$.B 2 A.A.x D.D.x 7 o - b.4XaXpX9X@XR.y.[ N t E x A.A.A.S.D.T 7 ",
"7 8 x x R D.A.D.D.D.A.x l P M G 4.W.@XR.r.' o 4 x S.S.x x x m C B b l R D.A.4 X ..n.&XqXiX>XR.w...v 4 R x x D.D.S.6 c - M.*XqXiX;XH.e.} v e I R D.S.R S.D.D.T 5 ",
"8 7 8 8 T A.R A.D.D.A.x A.R 6 c D >.f.u.%.J 2 l x S.S.x z 3 C O.$.O.m l T l n B ;.Z.:X5X>XR.,.{ C m l x R R D.A.T n C &.T.&X<X>X~.<.} B , 6 R D.D.S.A.S.S.D.x 5 ",
"x x 7 x 8 8 R S.D.D.S.A.R R R d b [ #.| K I R R S.S.D.R 3 c G B.B.v.L 0 : 9 C %.T.5X9X5X!.e.S w P x S.x R R A.5 9 F &.T.:X<X,XOXy.o.C n l A.S.R x x D.D.D.A.R z ",
"x x x R R A.A.A.A.A.x S.A.A.R T P C Z S e l S.S.S.S.A.I n O.m.4XtX(.$.* O D %.Y.1XqX0X&XC.=.N > l z x z R I l c S 2.E.:X2X;XJ.9.o.v n z R D.D.A.z x S.A.R R x x ",
"7 x A.S.D.D.A.A.x x x A.A.A.A.D.A.l , 9 : l R D.D.x P M X.m.=XaXyX).:.~ - $.N.3X0XpX0X%XN.&.N 0 4 l 4 4 l 4 c F :.!.6X8X<XW.>.` v 2 l A.A.A.A.D.x x S.R x x z z ",
"5 8 S.R S.A.A.D.S.R R A.S.S.S.S.S.R I e 9 9 t D.A.l n G v.).yXsX7XV.X.- ) p.OX5X0X9X1XOXH.e.} N c @ o @ X o B &.T.5X2X;XQ.9.' b m z A.D.A.R R S.A.S.D.R A.D.R 7 ",
"7 8 R T z l l 6 l z R A.A.R R l l x 7 t C D J P 5 > * :.(.yXsXaX3Xs.@.[ >.J.;X1X5X>X@XU.J.G.u.%.[ D _ _ ; ' &.Y.:X8X>X~.a.#.; 0 4 T R R R R A.A.D.S.R R R D.R x ",
"x x x 7 4 : o : 1 7 R A.A.T 6 1 > 2 , b | <.%.b .   # b.).aXdXiX@Xd.>.;.u.~.>X>X;X^.R.G.P.|.[.z.y.e.w.w.t.M.E.&X5X2X-XJ.w.] $ : 5 T j I T A.D.D.D.A.x 7 z R x x ",
"8 x R 6 b * ; * q 4 7 R D.R m c $ O & { u.d.p.{ # # - $.(.7X0X2X~.d.u.a.G.U.-X-XOXR.G.G.'.}.|.|.R.H.H.J.!.%X&X:X;X+XI.l.8...* e 7 R A.S.A.A.A.D.S.S.A.T x R x 7 ",
"6 l I K O.:.r.=.S t 4 7 x I M O.:.:.=.<.d.G.a.8.] ^ / =.Y.:X<X-XW.G.l.l.L.I.U.I.J.H.G.K.K.K.`.G.H.P.U.-X>X2X5X;XoXP.G.l.;...$ b l S.D.D.D.R R x l 6 I 6 7 x x l ",
"3 , v %.N.$X%XT.>.S 0 , 2 m O.B.).*X!.C.s.u.i.k.h.8.&.,.F.OX@XU.G.l.G.l.H.H.H.d.G.H.[.].x.g.6.6.9.G.U.-X2X2X>X@XJ.l.l.a.;...$ c Y S.S.R R R z 6 , o c 9 2 7 z z ",
"> o ; t.$X5X1XOXa.%.D $ $ X.m.*XyXyX6X!.y.8.0.`.].'.d.G.J.~.U.G.d.d.l.l.l.d.d.l.l.P.}.{.j.6.#.+.-.p.G.U.-X+XoXJ.l.l.l.a.<.o.; V m ! Q Y E z 7 2 B ; X.D C t 5 7 ",
"< : Z 2.E.&X%XOXf.e.-.+.o.:.Z.=XyXsX8X%XY.y.y.k.{.}.|..X|.|.P.G.d.d.d.d.d.l.l.'.].{.'.j.i.y.r.n.n.N.f.G.G.J.L.G.l.l.l.l.a.8.#.( A H H H t 2 2 n } w.M.n.%.J e < ",
"5 3 e L 1.M.r.t.e.f.z.l.a.s.Y.$X:X>X>X;X%X!.Y.p.k.{.wXrXXX.XU.G.l.l.l.l.d.l.]..XXX Xg.7.y.Y.%X=X).(.N.,.7.i.G.G.l.l.l.l.L.x.i. .( $ & & o o 9 L 9.~.:X&XZ.&.V . ",
"6 7 6 n C D ; ; { p.H.W.z.a.a.a.G.P.^.;X:X:XT.,.6._.XXrXXX}.P.l.u.p.p.p.u.p.{.XXXX Xg.w.f.:X7XuXtX).M.&.-.9.d.d.a.u.u.a.K.[.'.q.#.D / _ _ [ o.<.d.OX1X6X!.2.D . ",
"7 z T 7 2 @ . o V | p.Y.f.8.<.6.7.i.P.OX;X/.Y.1.4.g._. X`._.q.9.8.8.8.<.;.<.x..XwXwXL.N.Q.:X9X7X=XZ.t.-.6.9.p.u.9.<.;.8.q.k.x.a.9.<.,.2.r.s.M.N.f.C.$X$XN.,.C : ",
"x z z R I l l 6 t S O.=.#.o.+.*.9.u.G.R.W.Y.F.p.q.0.0.g.4.4.-.*.*.#.*.+. .#.9.K.#X@X%X:X:X;XOXY.n.r.e.9.i.a.p.8.%.#.#.*.*.*.8.u.F.J.F.J.OX&X%XT.w.$.;.:.O.C t 6 ",
"7 8 x R A.A.D.x 3 w = ) ; = ) ] #.;.e.k.K.P.[.[.k.y.<.*.;.;.>.;.;.<.-.-.-.;.9.H.+X>X1X5X<X@Xl.9.>.>.q.l.L.L.l.y.4.4.4.4.4.7.0.k.J.R.J.W.OX3X%XN.#.= ; B b P l 7 ",
"7 z x R S.D.D.A.7 e i = N N = _ ..X.$.q.'..XXX#X[.d.<.>.,.u.f.a.a.k.d.a.u.f.d.I.+X-X;X;X@XI.l.7.>.6.i.H.[.[.[.`.x.i.j.j.`.`.`.c.a.e.2.s.N.T.C.8.` i o > 4 T x z ",
"8 x A.D.D.D.S.A.R d u s s y A ) ^ - / 4. XeXrXwX}.l.l.d.G.J.U.W.I.R.I.I.W.I.~.^.~.~.W.J.H.H.l.a.i.a.d.G.I.|.|..X}.].[.#XXXXXXX_.*./ D ..o.@.+.` H y d f T A.R T ",
"8 x D.A.D.D.S.S.S.R E h Y W H A = O ^  ._. XwX Xx.a.y.e.f.F.H.H.H.H.H.J.H.H.H.H.f.f.e.8.8.e.9.9.e.e.9.e.k.x.'.'.'.'.`.{..XXX Xg.` $ $ & = = Z V W E R A.S.S.A.x ",
"8 A.S.T R D.S.S.S.S.R f f h k H b q i ( 3.g.h.0.-.-.=.&.;.<.w.8.2.<.<.<.<.<.<.<.&.=.} +.+.+.#.#.=.#.#.#.*.-.4.0.8.8.8.8.h.h.g. .A w w w i i w g x A.D.S.D.D.A.8 ",
"x T T 8 T A.R A.S.R f 7 r r k k Y Y g a ( ) _ / / ^ ^ / / ) ^ ) ^ _ ) ^ / / ^ _ ^ ^ ^ ^ ~ ~ ^ ^ ^ ^ ^ / / / / / / / / / / / ) ( K Y g g W g U E A.D.D.A.x A.A.x ",
"z x A.T T T T R R j x T 6 r g k Q ! Q u i o * & B B B N & & B & & % & & % % & N & B Z & N & & & & & & B & & & N & & B & % % N a W ! ! h g h E R x x A.x 8 x x x ",
"8 R D.A.R R R T E x T A.8 d f Y Q Q W g y y w a y a H H p w a a w p p a p p p a a a a a a p a p p p p p w w a a H y H y w w y g Y Q Q h d f R S.x x A.A.x 8 8 x ",
"x R A.D.D.S.S.S.A.T 8 x 7 8 T E g g h h h Q h k g U g Y h h h k Y Q Y Q g k g h Y g g Y Q Q g k g u r r r u h h g g g h Y Y U g g h h Y E R D.D.D.D.D.D.S.A.x x ",
"x R S.S.D.D.S.D.D.S.R x R A.A.E f f f f h h k h h g g h k k h h Q h h h h h h h Y h h Q Q h h h h h g g k h h h g g g k h k g f f f f f T R S.S.D.S.A.D.D.S.A.x ",
"z x D.S.A.A.S.D.D.D.D.D.D.D.S.A.R 8 8 f d u s k h g g s u u u g u u u h h g h k g g Q g g g h h h h k h ! h h k g u g g s u g E E x x l I T R R x x x S.D.S.x x ",
"x x A.A.D.D.A.R A.S.D.D.D.D.S.R R T j j 5 g h f h r r d d d d d r r d g g f h h h f g f h Y d g h f h h h f h g d d d r r u f R R 8 T T R R T z z x x A.A.A.x 8 ",
"z x A.S.S.A.R R R A.R R S.D.S.R R S.R T 8 j E R j d d f f 5 d 5 5 d j E f j j E j E T E R j f f j j f f j E j f f j f f f j E A.R 8 j T R j j 8 8 8 S.A.A.A.x 8 ",
"8 x D.D.R z T R A.A.T T A.S.S.S.S.D.S.S.S.A.A.S.R j 7 7 7 7 7 f 7 8 R R R T R A.T R A.R j 8 j j R R j f R S.R R A.A.A.A.S.S.S.D.S.T 8 8 8 8 j 8 8 8 S.A.A.A.A.8 ",
"x R S.A.T 7 8 T D.D.D.S.D.S.A.S.D.D.D.D.D.D.S.S.D.S.j 8 7 8 8 R R R R A.S.S.D.S.S.S.A.A.8 8 7 x D.D.D.A.D.S.R S.D.D.D.D.D.S.S.D.D.S.j 8 8 8 R R A.x A.A.S.D.A.x ",
"8 x S.S.A.T x A.D.D.S.D.S.S.S.S.D.S.D.D.D.A.A.S.D.D.A.T 8 R S.S.S.S.S.A.A.D.D.D.D.S.S.A.A.R 8 x D.D.D.A.S.S.S.D.D.D.D.D.S.S.R S.D.D.A.R x x S.S.S.S.A.A.A.S.A.8 ",
"8 A.D.D.D.D.D.S.D.A.R x A.D.D.D.D.S.S.S.S.T 8 S.D.D.D.D.D.D.D.D.D.D.D.S.R A.S.S.A.S.D.D.D.D.S.D.D.A.A.T S.D.D.D.D.S.S.S.A.R x A.D.D.D.D.D.D.D.D.D.D.D.A.A.A.8 8 ",
"8 8 A.D.S.R S.D.S.S.R 8 A.D.D.S.R S.R T D.D.D.T R D.D.D.D.D.D.D.D.S.R A.A.x x x R A.A.D.S.R S.D.S.S.R T R D.D.D.A.R x R S.D.S.R R D.D.D.D.D.D.D.D.S.A.A.A.A.8 7 ",
"7 8 S.D.S.8 A.S.S.A.x 8 A.D.S.A.R S.R R S.D.S.R A.D.D.D.D.S.S.D.D.A.R D.D.R R A.A.A.A.D.A.x A.D.S.A.R T S.S.S.S.R A.R R D.S.A.x A.D.D.D.D.S.A.D.D.A.A.D.D.8 8 7 ",
"8 A.D.D.S.A.x A.D.A.x x x x x x R S.D.D.S.j 8 S.D.A.D.D.D.A.8 S.S.D.D.D.D.S.D.D.D.D.D.D.S.R x A.D.R j T j R j j R S.D.D.S.x z S.S.A.D.D.D.A.8 S.S.S.D.D.D.D.A.8 ",
"8 x S.S.A.A.A.A.A.A.x 8 A.S.A.A.A.S.A.R A.A.A.D.x j S.D.D.A.x D.D.D.S.x x D.D.D.S.S.S.S.A.R A.A.S.A.R 8 A.A.A.A.A.S.A.x A.A.A.S.A.R S.D.D.A.R S.D.D.S.x A.D.A.A.",
"8 x A.A.A.A.S.S.A.S.S.x A.D.S.S.S.D.R x x D.D.A.8 A.A.D.D.S.A.S.D.S.A.x x D.D.D.A.R R R A.A.D.S.R D.D.T A.D.D.A.A.D.A.x R D.D.A.8 R A.D.D.A.A.D.D.S.S.8 8 D.A.8 ",
"8 x A.x A.D.D.D.D.D.D.D.x x D.S.A.D.S.A.S.A.R 8 A.A.A.S.D.D.S.D.S.A.A.A.A.D.A.x A.R R R A.D.D.D.D.D.D.D.A.x D.S.A.D.D.A.A.A.R T 8 S.A.S.D.D.S.D.A.A.A.A.D.D.8 7 ",
"8 8 8 x A.S.D.S.D.D.D.S.x A.D.D.D.D.S.S.D.S.A.8 x D.x R A.j A.D.D.A.A.A.D.D.A.8 A.R x x R D.S.S.D.D.D.A.x x D.D.D.D.S.S.D.A.R x A.S.R T A.R R D.D.S.A.A.D.D.8 5 ",
"8 8 8 8 x A.x A.D.D.S.x A.A.S.D.S.S.A.A.D.D.S.x A.D.A.j 8 8 S.D.D.D.A.S.D.D.A.T S.R z z T R R A.D.D.S.x A.A.D.D.D.A.A.A.D.D.A.x A.D.A.T x x A.S.D.D.A.S.D.D.8 7 ",
"x 8 8 x 8 8 A.A.S.S.S.A.A.A.A.A.T R x R D.D.D.A.S.D.D.D.S.D.S.A.8 x D.D.D.S.S.D.D.R 7 z x T R A.D.S.S.A.A.A.A.A.x x T R D.D.D.A.A.D.D.D.A.D.S.A.8 x D.D.D.A.A.8 ",
"7 7 7 8 8 8 x x x 8 x x 8 x x x T x x T 8 A.R A.R R S.A.R S.R 8 7 7 R x 8 8 T A.R T z z T 8 x x 8 8 8 8 8 x x x 8 x T T R R R R x A.S.A.T A.A.R 8 7 x x 8 8 8 8 ",
"5 7 7 8 x x 8 8 7 7 7 8 8 8 8 8 T x x x 7 8 8 R 8 8 8 8 8 8 8 x 7 7 8 7 5 7 7 z z 8 7 8 x T 7 7 8 7 8 8 8 8 8 8 x x x x 8 7 8 R 8 8 8 8 8 8 8 T 7 7 8 7 5 7 5 5 "
};
