/* XPM */
static char *Group_9_9__resized[] = {
/* columns rows colors chars-per-pixel */
"80 80 189 2 ",
"   c #1F3E23",
".  c #223B25",
"X  c #273C32",
"o  c #294819",
"O  c #2F551A",
"+  c #335D1D",
"@  c #36631D",
"#  c #39661D",
"$  c #3D6D1E",
"%  c #3F711F",
"&  c #254424",
"*  c #274825",
"=  c #294A26",
"-  c #274528",
";  c #2B442E",
":  c #2A4B28",
">  c #32492E",
",  c #2E5228",
"<  c #385F24",
"1  c #35532E",
"2  c #3B5D2D",
"3  c #2E4634",
"4  c #2F4837",
"5  c #27423F",
"6  c #29443F",
"7  c #304734",
"8  c #304A36",
"9  c #314B38",
"0  c #2D543C",
"q  c #365531",
"w  c #385631",
"e  c #375832",
"r  c #3A5C32",
"t  c #376220",
"y  c #3A6524",
"u  c #3D6A24",
"i  c #3B6228",
"p  c #3F6928",
"a  c #3F7120",
"s  c #3D6033",
"d  c #41751F",
"f  c #43781F",
"g  c #406E27",
"h  c #416E28",
"j  c #417620",
"k  c #457C21",
"l  c #447528",
"z  c #2A4540",
"x  c #2C4D42",
"c  c #2D5340",
"v  c #2E554B",
"b  c #345A4E",
"n  c #385B4E",
"m  c #2F5750",
"M  c #2F585A",
"N  c #305653",
"B  c #305D56",
"V  c #336154",
"C  c #33645B",
"Z  c #386A5D",
"A  c #336660",
"S  c #356965",
"D  c #396E67",
"F  c #356A6B",
"G  c #396E68",
"H  c #36706F",
"J  c #3C746D",
"K  c #3E7B6E",
"L  c #386E74",
"P  c #367274",
"I  c #417D70",
"U  c #478022",
"Y  c #498423",
"T  c #4C8A24",
"R  c #438373",
"E  c #4A8375",
"W  c #438679",
"Q  c #458A79",
"!  c #4A8D7B",
"~  c #538A7B",
"^  c #5B8D7C",
"/  c #4B937D",
"(  c #638F7A",
")  c #67907A",
"_  c #6B917B",
"`  c #3E8381",
"'  c #448E84",
"]  c #449086",
"[  c #4B9581",
"{  c #4D9983",
"}  c #46958D",
"|  c #509F81",
" . c #438D99",
".. c #469792",
"X. c #479992",
"o. c #51A285",
"O. c #52A68B",
"+. c #54AA8E",
"@. c #59AE8E",
"#. c #58B18E",
"$. c #4DA598",
"%. c #50A693",
"&. c #55AD91",
"*. c #55B494",
"=. c #59B493",
"-. c #5BB997",
";. c #56B29B",
":. c #57B899",
">. c #5EBD99",
",. c #69B897",
"<. c #4693A1",
"1. c #4799A8",
"2. c #4DA9A8",
"3. c #56B4A3",
"4. c #58B6A1",
"5. c #58BAA4",
"6. c #53B6A9",
"7. c #56BAAD",
"8. c #4DACB7",
"9. c #57BDB2",
"0. c #53B6BD",
"q. c #5FC097",
"w. c #5DC29B",
"e. c #5EC89D",
"r. c #61C49C",
"t. c #62C99F",
"y. c #5BC1A7",
"u. c #5AC2AD",
"i. c #5BC3B3",
"p. c #5EC7B7",
"a. c #62C7A0",
"s. c #65CCA1",
"d. c #68CDA2",
"f. c #76C3A2",
"g. c #7AC5A2",
"h. c #7DC8A5",
"j. c #66D0A4",
"k. c #6BD2A6",
"l. c #6FD5A8",
"z. c #6BDBAA",
"x. c #71D6A9",
"c. c #75DBAE",
"v. c #7ADCAE",
"b. c #7CDEB0",
"n. c #7CE4B3",
"m. c #59C6C1",
"M. c #5FD1C7",
"N. c #5BC8D7",
"B. c #5FD1D1",
"V. c #65DBC8",
"C. c #62D6D3",
"Z. c #63DAD6",
"A. c #63DBE4",
"S. c #63DEEA",
"D. c #68E8ED",
"F. c #85C7A3",
"G. c #85CDA8",
"H. c #92CBA3",
"J. c #9BCDA3",
"K. c #A2CFA3",
"L. c #A5D0A3",
"P. c #ACD1A3",
"I. c #83E7B6",
"U. c #8DEBBA",
"Y. c #91EDBC",
"T. c #8CF1BE",
"R. c #94F0BE",
"E. c #94EEC5",
"W. c #9BEFC5",
"Q. c #95F2C2",
"!. c #9BF4C3",
"~. c #9EFBCA",
"^. c #A2EFC5",
"/. c #A4F2C5",
"(. c #ACF0C5",
"). c #A3F8C5",
"_. c #AAF9C6",
"`. c #B4F1C5",
"'. c #BAF2C6",
"]. c #A4FFD0",
"[. c #ABFFD0",
"{. c #B2FFD0",
"}. c #BCFFD0",
"|. c #C5F2C6",
" X c #C9F3C6",
".X c #D1F4C6",
"XX c #C3FFD0",
"oX c #CBFFD1",
"OX c #D0FFD1",
/* pixels */
"O @ d $ d d $ d d $ $ f d d f d f % f % $ $ % k f % f f % $ $ $ % f f $ % k f $ # $ d $ $ d d d d $ $ d f f f % % f f f $ $ % f f d d d d # g $ d f f $ d f $ O ",
"# $ d d f f d $ d $ d k f f f % % j f % % % f j f % % % a j k k k j f $ % k U j j j d d d d % % % % d f j j f % % f % % $ % f f d d d $ d f k k f f f $ d k d $ ",
"f f d f k k d d d f f k k k j j j j f u % f k j a a $ % j k T T T U f % % k Y T T Y j k f k f $ % f f f U k j j a j j % % j k j d d d g d Y T T Y U d $ d f f f ",
"d f Y T Y k d d f d f k Y Y T T Y k f a f Y T Y U U U Y Y U Y Y Y Y U j f U Y U U U Y T Y U f d f f f U Y T T T Y U j % k Y T Y Y U f Y k k Y Y Y Y U f f k f d ",
"d d f Y T T Y Y U k k Y T T T Y T Y k Y T T T T T T T T Y U k k k k Y Y k U U U U U U k Y T Y U U k k U T T T Y Y T U U T T T T T Y T T Y k k k f U T k k k f d ",
"d d d d f T T T T U U Y T T k k k T T T T T T T T T T T U k k k u j Y T Y k U T U k j j U T T T Y Y Y Y T T k k U T T T T T T T T T T T Y k k k d f Y T T k d d ",
"$ d d f f f Y f k j j j j k Y Y Y Y k j k k k U Y T T Y Y j f j % $ U T T k k f k k d k k k k k k j j j j k Y Y T Y U j j k U Y Y T T T Y k j k $ d k T T k d # ",
"$ $ d f Y d d d j % $ j % d k Y T Y k k j k j f k T T T T U U U f f Y T Y j $ f k j f U k j % j f $ % % % a k Y Y U U j k k j j k T T T T k k Y f f U T T j # # ",
"$ % f U k % % % $ a % % a % $ j Y k Y T T k f d f Y T T T T T T Y U T T Y a j k k k j k k $ % % % a % % a a a j U U Y T T U % % j T T T T T T T Y Y T T Y % $ $ ",
"$ % f f k j % % % a % % j k j Y Y U T T T Y k Y T T T T Y Y Y Y k f k U Y Y Y Y k k j k k k d $ % % % % a k a Y Y U T T T T U Y T T T T Y Y Y Y k j j Y Y k f f ",
"% % k U Y U j a j k k k k U Y T T Y T T T Y Y T T T T Y f U Y Y % $ u U T k T T U k j k Y U j j a U U a U U Y T T Y Y T Y Y Y T T T T T k k Y Y j $ $ k T Y k f ",
"f % a T T T k j U Y T T Y Y T T T U T T k U T U Y T T U f Y T T f $ % Y T j k T T k j T T T k k U T T T Y Y T T T Y Y T k U Y U Y T T k j k T T j $ % Y T j d f ",
"% % % U T T T U j j Y T U U T U k Y Y Y Y T T Y Y T T T Y T T T U U T T T k k Y U k j k T T T U % k Y T U k T U k Y T T Y T T Y Y T T T Y T T T Y k Y T T k f $ ",
"$ % f f Y T T Y j a k T U k Y U k T Y k T T T U Y Y T T T T T T Y Y T T U U Y U k k k k T T T U % % U T U k T k k T U k T T T U Y Y T T T T T Y Y Y T T Y U j d ",
"f f Y T T T Y Y T U k Y Y Y Y Y T k j $ k T T j f k Y Y Y T T U k k U k U U T T Y U U T T T Y U T U U Y U U U T T Y a % k T T k j k Y Y T T Y Y k k Y k k Y k j ",
"% f T Y T T Y Y T T Y U Y Y Y T T j d d j k k j d k k k f U Y Y Y U Y Y T T T T U Y T U Y T Y T T T Y Y Y Y Y T T f a a a k k a j k k k k k Y Y Y Y Y Y T T U f ",
"% f Y j k T Y Y T Y Y k k Y Y T T k f j f j j j k k k k j k U T T T T T T T T T U Y T j k T Y Y Y T Y k U Y T T T j f % f % k j k k k k j k U T T T T T T T k f ",
"f f f % f k k U Y j a a a j Y T T Y U k k Y T T Y T Y T T T T T T T T k f Y T T T U j a a U k U Y a % % % j U T T T U U U U T T Y Y Y T T T T T T T T f j U U f ",
"d f U f f j k j k j j k a % U Y T T Y Y k k Y T T T T Y U Y Y T k k U k f j Y T Y U U a a k j k U a a U % % U T T T Y U k k Y T T T T T U Y Y T U f Y f d j f f ",
"% f T U k k k k j j k U j % U T T Y T Y k k U T T T T Y j U Y Y f f k k k % f T Y Y T U k k k j a a k Y % % U T T Y T Y k k U T T T T Y j U Y Y f % k U k d d f ",
"k k k T T T U U U k a % $ j T Y U U Y T T T T U U Y Y T T T T T Y T T T T k Y T T Y U T T T Y Y Y k % % % a T Y U U Y T T T T U Y Y Y T T T T T T T T T T k f f ",
"f k Y T Y T Y T T U k k k Y T T U k U T Y U U Y Y Y U U Y Y Y Y Y Y Y T T Y Y T T Y Y Y Y T Y T Y Y U k k Y T T Y k k T Y Y U Y Y Y U U Y Y Y Y Y T U T T Y f f ",
"$ k T Y Y Y Y Y T T T T T T T T Y j j k j f j T T U k j a j k U k f j Y T U Y T Y Y T Y U U Y T T T T T T T T T Y f k U j j f T T U U a a a U U f f f U T U k f ",
"f f k Y Y T Y k U T T T T T Y U k k j j f k Y T Y a j k k k a k d j k U U Y U U T Y k U T T U U U Y T T T T T U k j j j j j U T Y a a k U k a k % f k U Y U k d ",
"d f U Y Y Y k k k Y k j Y T Y k k U k k j Y T T Y d d j j j a a $ j Y k k U U Y Y U U Y Y Y U k k k k k Y T Y k k U k j U U T T Y % % f k % a a % % Y U U U f % ",
"$ k Y T k % j U Y k j a k T Y Y Y T Y U T T Y T Y j j % % % % a $ j Y Y Y k U Y U Y T T k a a U Y Y j a k T Y Y Y T Y Y T T T T Y % % % % % % % % % Y Y U U U % ",
"f k Y U f $ % f T T T Y T Y k Y T T T T T T Y Y T Y j $ % % j k k k k U Y U T T Y Y Y U a % $ j T T Y Y T Y k Y T T T T T T Y T T Y f % % % a f f f f Y Y Y U % ",
"f k Y U U j f f T T T Y Y T U T T T T T T U U Y T T U j k k U Y U T U U U T T T T Y Y U U j a U T T T Y T Y U T T T T T T U k U T T U f j U Y Y Y Y Y U Y Y U f ",
"d f T T T T T Y T Y k j U T T T T Y Y Y U j f U Y T T T T T T T T T T Y k k Y Y Y Y T T T T Y T T Y k j U T T T T Y Y Y U j j U Y T T T T T T T T T T Y U U % % ",
"$ f U T Y k Y T Y Y U j Y T T T U k k k T T Y j U T T T T Y Y T T Y k k Y k k j k U U T Y k Y T Y Y k j U T T T U U j k T T Y k U T T T T Y T T T Y U Y Y % % $ ",
"$ f U T U f U Y Y Y j j k T Y U k U k k T Y U k U Y T T T U U T T Y k T T k j k U U Y T U j k Y Y k k j k Y T U k U k k Y Y U k U Y T T T Y Y T Y Y f Y Y U % % ",
"f k T T Y f f Y T k a j j j f j k Y T T U f f Y T U T T T k k Y Y Y T T T Y T T Y T T T Y U k Y T k j j f f f f f U T T Y f f Y T Y T T T f f Y Y T T T T Y U f ",
"d k Y Y U k U U U U f d k Y k k U Y U U U Y Y Y U U Y T T U U Y T T T f f T T T U Y Y Y U k k U U U f % U Y U f Y Y U k U U U Y Y k Y T T k k Y T T Y f U T Y f ",
"d f k U U U Y Y k Y Y k k T T Y Y T f % U Y T U % a U T T U U Y T T f d f T T T U U U k U U T Y k T Y k Y T T Y Y T k f U T T U j j U T T Y U T T Y U f % T U % ",
"$ d k k Y T T T T T T T k k T T Y T T U U U k % U U Y Y T T U T Y k f Y Y T Y k U U U U Y T T T T T T T k % T Y U T Y U Y U f f f U U Y T T Y T T f f Y Y T % % ",
"$ d f j k Y Y Y T T T k k k T T T T Y U T Y U % U Y % U Y a U T T Y Y Y T T k j U U % % k Y Y T T T Y Y f k T T T T Y Y Y U f f k Y k k U k k T T T U U T T % # ",
"d d $ d j k k U T T Y f k Y T T Y Y U U T T Y U U Y Y f a U U Y T Y Y Y T Y k k U f % % % U k U T T Y % U Y Y T Y U U U T T Y k U Y U j j j U Y T T Y Y T Y % $ ",
"f d $ d f f k U T Y Y U k k Y k f f f k T T T U U Y T Y U Y Y U f f T T Y Y T T T U % % a % f U T Y Y U f U Y U k k j k T T T U U T T T Y Y Y k % f T T T Y U % ",
"f f f f U k k U U k U Y k Y k k k U k U Y Y Y T Y Y T Y Y Y T U f d Y U k k U T Y U % U Y U U U U Y U Y Y U k k k k k Y U Y Y Y Y Y T Y Y T T U f f Y Y f f k f ",
"d f U U Y T Y k k k f Y Y T k Y T Y T T a k Y T T Y Y Y U U Y T k f U k d k U U U U Y Y Y T Y U f f f Y Y Y U Y T T T T k k Y T T Y U Y U U Y T f f Y f % f % % ",
"+ d Y Y Y Y Y Y Y k k T Y T T T Y T T Y U k Y T T Y T T Y U U U U Y T U U T Y k f k Y U U Y Y Y Y k k Y Y Y T T Y Y T Y k k Y T T Y T T U k k Y U T T U U T f $ ",
"d d k k k k k k k j k Y Y k k k k k k k j k U Y U k k a a U U Y Y Y k k k Y T Y k k k k U U f f k k k Y Y Y U k k U k k k k U Y U j k k j U Y Y T U k j f T U f ",
"d d d f k k d d d d k k k k l f a k a % % j k j % % % % a U T T T k d $ d k Y T T U f k U f % % j j j k k k j j j j j $ d k k j % % $ % j U T T T k d $ f f f f ",
"d d f Y U j d d d d d k k T Y Y U k a $ j U Y U U % U U Y U U U U U k j j k k k k U k U Y f % % j a a k Y Y Y Y U k a $ j U U U k k U k U k k Y U U k f d U f $ ",
"$ $ u t t # @ t @ + + # $ u u u # @ + + @ # # u # # # # @ O + + + @ @ + + @ @ + @ @ @ @ @ @ @ + + + O @ @ u @ # t @ + + t $ u # y $ u u u @ + t y y y + @ d f $ ",
"@ + * - ; , : : = - = = = = & & - = = : = * * * * * * * & & & .     & & & & & * & & . .   * * * & & & & = = & & & * = * : : = = = = = = = = - - & & ; : , @ $ f ",
"O , x m b v v v v v v v v v v v v n N n b b b b v b b b b b n n n n n n b b b b n b b b b b b b n b b b b b N n b b b b v v v v v v v v v x v v v v v v 0 1 + + ",
"- c C J J D S S S S S D J K K K I E ~ ( [ ^ ~ ! ~ ~ ~ ~ ( ) _ _ _ _ _ _ ^ ^ E ~ ~ ^ ( _ ( ^ ~ ( _ ) ^ ~ ~ ~ ^ [ ^ ~ E R K K K R I K J G S S S S S G J J C 0 - o ",
"c V R { [ Q Q Q Q W Q ! { O.+.+.@.,.f.G.G.G.h.g.g.g.g.F.H.K.P.P.P.P.P.L.H.F.f.f.g.F.J.K.J.F.F.H.K.K.H.h.g.g.G.G.G.f.,.@.O.+.+.+.+.O.{ ! R Q W Q W ! [ [ I V 3   ",
"Z K { &.*.*.&.&.+.+.&.*.r.d.j.s.j.n.U.R.!.R.Q.!.W.W.W.^.`.|..X.X.X.X.X X'.^.W.E.!.(.|. X'.^.^.`. X|.`./.Q.Q.Q.Q.R.U.n.k.t.e.j.j.j.s.r.=.+.+.&.&.#.&.&.&.{ I V v ",
"R ! O.*.w.w.r.r.r.r.r.a.j.z.z.z.z.n.T.T.T.T.Q.).].[.].[.}.oXoXoXoXoXOXoX}.{.].].[.{.XXoXXX{.[.}.XXoX}.[.~.Q.T.T.T.U.n.c.z.z.z.z.z.z.j.r.w.w.r.w.a.a.>.:.O.! I I ",
"/ { { #.,.r.s.t.a.r.a.s.s.t.j.j.j.k.l.l.k.l.n.U.!.).).).)._._._._._._._./.).).!.~./._._./.).).)._._._.).U.n.l.k.k.k.k.j.s.j.j.j.j.j.s.t.r.t.s.s.a.a.-.#.| [ [ } ",
"&.&.&.&.*.r.r.r.r.w.w.,.q.q.q.w.>.>.w.q.w.t.x.n.U.Q.Y.U.U.U.U.U.U.U.U.U.U.U.U.U.U.U.U.U.U.U.U.U.U.Y.U.U.I.l.e.e.t.t.r.r.q.w.w.r.,.w.w.w.r.r.r.r.r.-.@.o.o.O.;.a.",
"y.5.:.;.=.=.#.#.#.#.*.=.#.#.#.*.*.+.&.*.:.w.d.x.v.b.b.b.c.c.c.c.c.c.c.c.c.b.b.v.v.v.c.c.c.b.b.c.c.v.b.v.x.d.e.e.e.w.>.=.#.*.=.#.@.@.#.#.#.#.=.*.=.=.o.| o.#.p.V.",
"u.i.i.7.;.+.O.O.+.+.O.+.O.+.+.O.O.O.O.+.-.w.s.s.s.d.d.d.s.d.d.s.s.s.s.s.d.d.s.s.s.s.s.s.d.d.s.s.s.s.s.s.s.s.t.s.t.w.*.&.O.O.O.O.+.O.O.+.+.O.+.O.+.+.| O.+.;.i.M.",
"6.m.Z.Z.p.4.;.;.:.:.4.4.4.;.;.&.+.O.O.*.-.w.s.r.r.>.w.w.>.w.y.w.w.w.w.w.w.w.r.w.w.w.w.w.w.w.w.w.w.w.w.w.r.r.r.s.t.w.*.+.O.O.+.&.;.4.4.4.4.:.4.;.;.4.9.p.9.6.2.$.",
" .0.S.D.Z.i.y.y.i.i.9.i.p.i.5.;.+.O.O.+.*.*.-.*.*.*.*.*.*.*.*.*.*.*.*.*.*.*.*.*.*.*.*.*.*.*.*.*.*.*.*.*.*.*.:.-.-.*.=.+.O.O.+.;.6.i.i.i.i.u.u.u.i.p.C.A.N.2.' S ",
"L <.N.A.B.9.6.6.7.7.7.9.9.9.;.O.{ { { { { { { { { { { { { { { { { { { { { { { { { { { { { { { { { { { { { { { { { { { { { / { %.3.9.i.9.7.7.7.6.6.9.C.S.N. .M X ",
"m P 1.8.2...} } } ......X.} ' ` K K K K I K K K J K K K K K K J K K K K K K K J J K K K K K J K K K J K I I K K I I K I K K K W ] X.X.} ..} } } } X.2.8.1.L x . ",
"9 B F P H S S S S S S A S A S B C B V B B B B B B B B B B B B B M B B B B B B B B B B B B B B B B B B B B B B B B B B B B B C C C S S S S S S S S S L L F m 8 1 ",
"e 8 4 6 5 6 6 6 6 6 6 6 z 6 z z z z z x z x z z z z z z z z z x z z x z z z z z z z z z z z z z 6 z 6 5 z z z z z z z z x x z 5 6 6 6 6 6 6 6 6 6 6 6 6 4 8 2 2 ",
"q 8 > ; 3 3 7 7 7 7 3 7 3 3 7 8 4 3 4 4 4 3 3 4 4 4 4 4 4 3 4 4 4 3 3 9 9 4 4 9 8 8 9 8 9 9 9 9 8 9 9 4 9 9 9 9 4 4 9 9 4 3 3 4 8 3 3 3 3 3 7 3 7 ; X ; > w 2 h ",
"q 2 r r r r r 2 r s s s s r r s r e e e q q e s s e e e q q e q e q e r s e r s r r r r r r r r r s r s s s r s r e e e q q q s r 2 w q 1 q w 2 w 1 w 2 s r 2 < ",
"< i g h l l h p p l l l l l l h p p y y y p l l p y y p p p y y y y p h h a p l l h g h l l h g h h l l l l l h y p y y y u l l h y i g g y y i y y g h g g i + ",
"y d f k k j j j j j j j k k k k l k j j j k U Y j u $ a a u $ $ # $ k k j j k l k k k k k k j j j j j j k Y k l j k j j j k k Y l $ $ g d $ $ $ # $ f f f f g # ",
"g d T T k d j k U U j a k Y k Y U T Y k Y Y Y T U f % % $ $ % % d f k Y k k Y k U U Y Y k % j k k k j u k Y U U U T Y U T Y Y T U j % % $ $ $ d d d Y U k k f d ",
"d f Y f f $ g f T T T Y T Y k Y T T T T T T Y T T Y a % % % j k f k k U T T T T Y Y Y k f $ $ f T T T Y T Y k Y T T T T T T Y T Y Y j $ $ d j k f f f U Y T f f ",
"d f Y U k f f f T T Y Y T Y Y Y T T T T T Y k Y T T U j f k U Y Y Y Y U Y Y T Y Y Y Y Y k k f k T T T Y Y Y U T T Y T T T k k Y T T U k k k U U Y T Y U U Y U f ",
"f f T T T T Y T Y Y k j U T T T T Y Y Y k k j U T T T T T T T T T T T Y k U Y Y Y T T T T T T Y T U k f U T T T T Y Y Y U k j k Y T T T Y T T T T T T Y U U f % ",
"$ f U T Y k Y Y Y Y k j U T T T k k k k Y T Y j k T T T T T T T T Y f Y Y f f f k k U T Y k Y T U U k d U T T T U U f k Y T Y k U T T T T T T T T Y f Y U f $ $ ",
"$ f Y T Y f U Y Y U j f k Y Y U k k k k Y T U k U T T T T U U Y T Y k Y T k f U Y k Y T U f k Y T k k d k Y Y U f U k k T T Y f U Y T T T U U Y Y Y f T T f % $ ",
"f f T T Y f f Y T k f f f k f f k T T T Y j d Y Y U T T T k f Y Y T T T T Y T T T T T T Y k k U T k d f k j f k k Y T T U f d Y T U T T T k k Y T T T T T T U f ",
"f f Y Y U k U U U U f f U Y k k U U U k U U Y Y U j Y T T U k Y T T Y f f T T T Y Y Y Y U k k U Y U k j U Y k k U Y U k Y U Y Y U k Y T T k k Y T T T f f T Y f ",
"$ f f U U U Y Y U Y Y f U T T Y Y T k f f T T U j k U T T Y U T T T U d d T T T k Y k k U U T Y k T Y j Y T T Y Y Y k f k T T k j k U T T Y Y Y T Y k f % T U % ",
"$ f f U Y T T T T T T T k f T Y U T T U Y U k j k U U Y T Y Y T T f f U Y T U f Y k k k Y T T T T T T T k j T Y U T T U U k k d k U k Y T T Y T Y U U U Y T f $ ",
"$ % f f k Y Y T T T T U f k T T T T Y U T Y j f k Y f k U k k T T T U U T T f f k k f j k Y Y Y T T T U j k T T T T Y Y T U k f k U k k k k U T T Y U U T T d @ ",
"d % % % d f k Y T T Y f f Y Y T Y Y U U T T U k U Y U j f f U Y T T U Y T T f f Y k d d j k k U T T Y f f Y T T T U U U T T U k U Y U k k j U Y T T Y Y T T d $ ",
"f f % d f f f U Y T Y U f U Y k k j f k T T T U Y T T T U Y T k d d T T T Y T T T k d d j j k U T Y U U f U U k j k j k T T Y U U T T Y U Y Y k f f T T T U f d ",
"$ $ % d f % f f f % f d f f f f j d f k f k k k k k Y U k U k j $ $ f f f % f U f d g d d d d d f % f f f f f f f d j j k k k k k k k k k k k j $ $ f f d % % $ ",
"+ # % % % f % $ $ $ $ % f % $ d j d f f $ % % k j % % % % % % j $ $ d $ @ # $ d d $ $ d d d d d $ $ $ $ f % $ f f f f f $ $ d k f d d d d d j j $ # d $ @ # # @ "
};
