/* XPM */
static char *__resized[] = {
/* columns rows colors chars-per-pixel */
"80 80 223 2 ",
"   c #09031F",
".  c #0C0827",
"X  c #140D2B",
"o  c #13162C",
"O  c #160D31",
"+  c #161734",
"@  c #231639",
"#  c #1B2638",
"$  c #1E323D",
"%  c #2C2726",
"&  c #2D2D2C",
"*  c #362D27",
"=  c #332E2B",
"-  c #2E312F",
";  c #33322E",
":  c #3C332C",
">  c #3F382F",
",  c #292939",
"<  c #2C3333",
"1  c #283639",
"2  c #2F363A",
"3  c #2C3D3C",
"4  c #323431",
"5  c #3B3532",
"6  c #343A36",
"7  c #3D3A33",
"8  c #31373B",
"9  c #3C3639",
"0  c #333C3B",
"q  c #3C3A3B",
"w  c #41362E",
"e  c #44382F",
"r  c #423730",
"t  c #453A32",
"y  c #4A3E34",
"u  c #403739",
"i  c #453C3C",
"p  c #493E3C",
"a  c #2A413F",
"s  c #35433D",
"d  c #39423B",
"f  c #4D4136",
"g  c #44403B",
"h  c #4E4239",
"j  c #514337",
"k  c #53453A",
"l  c #58473B",
"z  c #56483B",
"x  c #5B4B3D",
"c  c #604F3F",
"v  c #61503F",
"b  c #241E44",
"n  c #1F2F41",
"m  c #252747",
"M  c #342448",
"N  c #263B45",
"B  c #353D44",
"V  c #2D2D52",
"C  c #2E3554",
"Z  c #363556",
"A  c #393C63",
"S  c #473E40",
"D  c #4D3F65",
"F  c #2B4444",
"G  c #28474A",
"H  c #2B4B4B",
"J  c #334343",
"K  c #354A46",
"L  c #334D4C",
"P  c #2A524F",
"I  c #37544D",
"U  c #2C4D52",
"Y  c #334D55",
"T  c #2D5352",
"R  c #2F5A58",
"E  c #335A53",
"W  c #375855",
"Q  c #335C5C",
"!  c #2C6459",
"~  c #35635D",
"^  c #36675C",
"/  c #3A645D",
"(  c #375564",
")  c #366661",
"_  c #376865",
"`  c #3A6C64",
"'  c #3C7366",
"]  c #3C756A",
"[  c #3E7A6C",
"{  c #3B6E7A",
"}  c #387773",
"|  c #3B7B75",
" . c #3D7D79",
".. c #424142",
"X. c #4C4241",
"o. c #524641",
"O. c #5E4E40",
"+. c #555446",
"@. c #604F40",
"#. c #635141",
"$. c #695644",
"%. c #56486B",
"&. c #50516C",
"*. c #4B6A6D",
"=. c #427C6E",
"-. c #4A7A6D",
";. c #447E72",
":. c #3F8072",
">. c #3E817B",
",. c #438473",
"<. c #478977",
"1. c #4A8874",
"2. c #43867A",
"3. c #468C7B",
"4. c #498D7B",
"5. c #568978",
"6. c #44947A",
"7. c #4A937D",
"8. c #555F83",
"9. c #5E6888",
"0. c #69708A",
"q. c #75748A",
"w. c #717B9A",
"e. c #827D96",
"r. c #3F8482",
"t. c #428987",
"y. c #4A9582",
"u. c #4E9C84",
"i. c #479489",
"p. c #529A83",
"a. c #428B96",
"s. c #46989A",
"d. c #4FA086",
"f. c #51A287",
"g. c #52A48A",
"h. c #5BA78B",
"j. c #54AB8D",
"k. c #4DA59B",
"l. c #55AC91",
"z. c #54AC93",
"x. c #52AC9C",
"c. c #57B293",
"v. c #59B393",
"b. c #56B893",
"n. c #5BBA95",
"m. c #56B19A",
"M. c #59B69A",
"N. c #5DBC9A",
"B. c #65A48B",
"V. c #63AD94",
"C. c #6AB799",
"Z. c #72B89A",
"A. c #4798A6",
"S. c #4FACA1",
"D. c #51AEA3",
"F. c #54B5A7",
"G. c #59BBA5",
"H. c #56BBAC",
"J. c #59BDAA",
"K. c #56B9B1",
"L. c #70BFA0",
"P. c #5EC29B",
"I. c #60C49C",
"U. c #62C99F",
"Y. c #7EC49F",
"T. c #5CC3AE",
"R. c #5BC5B4",
"E. c #5CC6B7",
"W. c #5ECBBB",
"Q. c #64CCA1",
"!. c #6DCDA4",
"~. c #77C7A4",
"^. c #66D2A4",
"/. c #6CD2A6",
"(. c #6BD6A9",
"). c #67DBAA",
"_. c #6BDCAB",
"`. c #74DCAD",
"'. c #78D8AC",
"]. c #61CEB8",
"[. c #6DE1AE",
"{. c #76E7B4",
"}. c #73EEB7",
"|. c #55BFCF",
" X c #5DCCCA",
".X c #58C5D4",
"XX c #61D4C8",
"oX c #64DDD7",
"OX c #62DCE5",
"+X c #67E6E9",
"@X c #67E7F3",
"#X c #8A8A9E",
"$X c #9396AC",
"%X c #99A5BD",
"&X c #8AD9B3",
"*X c #89DAB2",
"=X c #84E3B4",
"-X c #8CE5B8",
";X c #8DEAB9",
":X c #94E4BA",
">X c #94EEBE",
",X c #8BF2BD",
"<X c #96F0BF",
"1X c #9CF2BF",
"2X c #A2EABD",
"3X c #A5F3BF",
"4X c #ABF5BF",
"5X c #B8F7BF",
"6X c #CFFEBF",
"7X c #ADB3C5",
"8X c #93EFC2",
"9X c #96F2C1",
"0X c #9BF3C2",
"qX c #9BF9C7",
"wX c #A1F6C3",
"eX c #A3FACB",
"rX c #A6FAC9",
"tX c #B7FAC4",
"yX c #A9FDD3",
"uX c #BAFAD3",
"iX c #C9FDC5",
"pX c #D4FEC3",
"aX c #D5FFC7",
/* pixels */
": * : : w e e e e e e e e e y e e f t > f f y y e e e w e e e e e e : w e e e e t t y e e f j f y y f e e e f e w * * * w e j f t e y y e y y y y y w w e y w * ",
"* : : : e e y y y y e e e e y e t t f e e y y y e y y y e e e y y t e y y y y y e e e e y f j f y f j f f f f f f e w : e e e w w t y y y y y y y y w w e y w * ",
"* : e e e y j j j y y e y y y y t f f t : y j y e y y y f y y y t t y y l y y y t e e t f j j j f j f j f f e f l j f e f e w * : y j j y y c y c y y e e y e * ",
"e r y t e e f j j y y y y y y y f f f f e f j y y y w e f y t f y y l j l l l y z f t j j j k k j f j j f f f f f f f f e w : : w w j j y y y y y y y e e e e w ",
"e y f f y y f f j f f y y j y y f j j f h j j f y y r t f t r t y j j l y j j y k y t j l j j k l j z l j f g f f y j j j e : : : r k l f f f j y y y y y y w w ",
"e t j f j j j f f h f y y j y y j z j j l l k f y y f k z t : t y y y y l l l y t r e f j j j k l x l l j f e f j f j j l j w w t y l k j f j k y y y y y y w * ",
"w y f j z l z k k k j t f l l j f y t t j l l f j h j j f t f l j j y j l l c y y y f f f k j l x x x l l l f j l j l l x j j j x x k k j j j l l y y y y y y e ",
"e t j j k l z k k z f t f l j j k t r t f l z h h j j h f f j z j j y j l l l l y h j j h f l l l x l x x l j j l l x l j e y v c x l k j j j f y y y y y y y e ",
"t y f k k j f f f h h f f k k k h k f f f z z k f h k j h h j k j j y l k k z z f f f k j f l l l k z x l j l l l l x l f * * z x k l z f z z f t f t t f f e : ",
"t f f k z f f t f f j z f k x k k z h f k z z f y h l x x k k j j y y k k k k f f e e f h f k x O.x k t : : t y f j z z f f f e f z f f j l j > t f f f y y e : ",
"e y f k k f f e t f z x k k z k h z z k z z x l l k x x x z z k j y p k k f f f f f t f j h k v #.x f ; & - < 4 e j z z k z k e t j f f z x z f h k f f y t e : ",
"e y f f f f f f f h x x z z k k k l l z z z z x x x x z x x x z h y j l f f e f f h f h k k z x #.z t < 1 G F 2 : f l j x x z k f r h k j z x x x j f f y t e e ",
"e y j f f f f f k z z v z k z z z h f k x x z z x x z z z z x z k h h k z f f f > f k h f f t t t : d +.-.y.-./ K 7 t j f k z k f f k z x k k z z z k f t t t e ",
"t y j k f f f j x z x #.x k z x l f f z #.#.x k k k k l z k h k l k f k z f f k > f z h f t r ; = < W p.Z./.C.y.^ s 7 y f h k k k l z x x k f j k z z f y t y e ",
"t y f z j f z x +.x v #.v x z k h k l c #.#.x z f f h z z y t h j j f f f e f k h k k z z z h t 4 F -.Z.-X8X{.M.:.E 0 : f z k x z f l x l f k x z k j f f f e e ",
"t y f k z z x x x x x x x x z k l l c c c @.O.z h h f k z f f f l j t f f t t f f z x x x z z t & L <.~.8XqX{.P.6.^ a ; j k f k k f t t t j j f j z h f f f y e ",
"t y j l l l k z x x l k l x x x z z z x z x x x l k h k k h h k z z f f h f t t j x #.v x l x t < H ;.C.`.{.(.l.2.Q s : h j y f f f e 5 : k k t k x h f f f e e ",
"y y y l l l h k @.x l k h h x x x f f f f k x l z z k h f f f z x z f j k z h h k x #.v x z x f : 3 E 7.c.M.l.3.) K 6 7 k z h f f h z h e k v v x z k f f f e e ",
"t y k l z k h k +.x z z k k z o.l f f f f j k l z z k h h z z x x x f f z z k k k z v x x x x j f > K ^ <.y.<.^ L d t f k h h h k z z f f z #.#.x x k f f f e > ",
"t y j l k k h k z z k z z z h z l j h k j j z k z z z l k x x z x x f h k z k k k x v l x c z j f f d s E ) ~ I d r f z h f f f k k f f k v $.#.x x z z j f y w ",
"t y j l l k k k f k k z z z h k z k k O.x x z k l O.#.x f x x l z x k z z x l j z z z z x v x z f f e > 6 1 1 6 t f j z k y e e f f f x v v v $.x z z x x l e : ",
"y f k l k j z z k k z z z z z z x o.O.#.#.x x z x O.O.x j k z x x z x x x x x z v x +.z x v z z j f f f t 4 5 t f k z z f 7 - 4 6 h k z x x v x j f f x x f f e ",
"y y f k k l z O.v z z #.x z z x x O.#.#.#.x x v O.O.z z k f k x z j j z x l l l l l f k z x z z x j z x z k j z x z z k f d F F d h f j z z k f f f e k v j y e ",
"y y j j h k k z x x x #.x z k k x O.O.x x x x x O.x O.z x k k k y : = ; ; ; : 5 : ; * ; 4 f z v x k f z f k v x x x f > s I ,.,./ s > y z z z z f f k x x j y w ",
"y y j j k h j k l z x x x x f k l @.x z x x x x x x x k k z l y 7 6 3 3 3 8 3 0 s 3 3 3 0 7 z v x k j k h k O.v x v t ; F [ f.j.1.I 6 e x z z z z j l v l j j e ",
"y y j k k h h j h z x x x z k f k x x x j l z x k l k f r f f 7 d W ` ` ) / / / / / / ` E s h k k f f k h k #.x z v f < L ,.j.b.4.E 6 > x v x k l l x x l j f e ",
"y f j l z z l z z k z z z x z l k k l x z x z k h k y : % % % 8 W 5.C.V.h.B.B.B.B.B.h.f.,.E s - & & > j z x #.v z x f t d / 1.<.' d 7 f z v v x z j l l j j f e ",
"y y k x x z z z z z z z x #.x x k j j j l k k l k f t 6 J 2 N W 5.Y.:X:X&X&X&X&X&X*X*X'.v.,.I a 1 a s g k v $.x k x z f g d E E K d f h z v v x z j j j j l f e ",
"y j k z z z x x k O.x x #.$.O.x x l j p y y f x x t 7 W -.-.*.p.Y.wXiXuXtXyXyXrXyXrXqX,X'.v.1.=.' ` E d f x v x z x x z j g ; ; t z k k j x v v x z z j j j f e ",
"y y f k j j z z x O.@.z @.#.O.O.O.z k j j j h x y - I 1.C.Z.L.Y.:XtXiXaXiXtXrXeXqXeXqXqX-X!.v.g.f.d.,.E d e z v x x k k x f e e f x z z z v v x x v v k f j f e ",
"y p j h k z k z x #.@.O.@.#.O.x l l l x O.l j h 7 a -.Z.:X8X0X8XtX6XpXpX6XtX4X<X<X9X1XqX>X=X!.U.U.P.j.,.K 6 f l x z k k x x k k z x v x v v x z z v v k j j f e ",
"j j l k x @.k z @.#.x x $.#.h h h j O.@.@.x p 7 I -.Z.:XeXyXiXiXiXpX6X6X5X4X3X<X<X<XwXwX3X;X`.).).(.U.j.:.K s d f k z x z x x x x x x x v x z k z x z k j j e : ",
"h k z z z z z z x #.v z x x k z x @.v x c j : I -.Z.&X0XwXtXiXpXpXpX6X5X4X0X8X<X<X<X1XwXqX;X'.^.^.^.^.U.g.,.I 6 : h z z f z x k j x x v v v z x v z k z z l f e ",
"k z z x z k z z x x z h k k z v #.#.k f j d a ,.Z.-XeXeX0X2XtXiXpX6X5X3X1X:X>X<X1X1X1X1X;X'./.U.P.U.^._.Q.g.[ H < 7 f f f z x f f z x x v v v x z z j k z l j f ",
"z z x v @.x z x x z f f f h #.#.v h f 7 7 H ` h.*X0XyXrX0XwXtXtX5X5X2X1X>X>X>X0X3XqX1X;X'././.U.I.U./._.(.N.u.' L 6 > f x x x j z z f g k v x z j j z j f j f e ",
"k x x x x z k z x z j k f h x x z k e - K ` 7./.=X9XwX0X0X0XwXwX2X0XwX1X8X>X<X1X1X1X-X'./.U.U.U.U.U.U.^.^.C.m.y.` H 6 > k z z z z j f h k z z x k k k j f j f f ",
"k l l z k k k z z j k x z k k k z z > < T ,.c.`.}.-X8X0XwXwX0X8X9X<X<X1X0X0X0X1X<X-X'./.^.Q.^.^./.U.U.I.P.N.N.u.[ T 3 : h z x x z k j k k k z x x x k k k g f e ",
"j j j k k h k z z y j c v z k z x x r & H ] j.(.`.'.=X9XyXuXyXyXqXqX0X0XwXwXwX1X-X'.`._.).).[.[.).^.I.n.v.v.M.u.] H < : x v x x v x z z z x z z k z x x z k f f ",
"j j j k f k k z f t f k x z k j k f 7 6 E ,.v.^.(.^.`.'.&X&X&X:X>X<X<X<X>X1X<X:X{./.U.P.b.b.v.C.U.U.P.b.j.j.l.u.,.Q s 5 f f j x v v x x x z k j j k k z z j g e ",
"f h h k k j z z f f f f j k k f e 4 6 I =.u.N.^.).^.N.h.p.-.5.B.~.=X,X;X=X=X*X{.}.^.b.>.] ! ] 3.j.C.P.c.f.u.g.u.i.>.~ K ; : w f x x z z v z j f f f f z x j f d ",
"f f f z z z x x z f f z z k f r ; 6 E ,.j.I.I.^.[._.j.` 1 # , / p.!.{.{._././.`.{.^.j.^ n O # U ;.l.N.l.g.u.f.l.m.x.i._ 3 ; 5 t f f f k v z h g j k z x x f f e ",
"f k l x z z v x z h k v z f f 5 - a ` f.U._.^.Q.P.n.p.*.B @ O n Q 7.I.Q.P.Q.U.U.U.b.4.*.S b O # U 2.u.g.g.f.f.m.T.E.F. .F - : y f g f x v x k h k x x v x f e e ",
"f l x z z z x x h h z x z h t : - F ] c.[.{.[.n.y.-.*.*.q.%.b O # T <.j.P.).^.b.<.=.*.B.0.%.M O + U ] 3.f.j.f.m.R.XXH.t.H < : h k j v $.v x x z x x z x x j e e ",
"j k k k z x x x z x x f l z k r - F ` g.Q.[.[.j.` K %.#X7X$X%.b . # T 4.P.[.[.j.! B D #X7X%X&.b X + G ] u.l.g.m.T.W.F.>.G 4 r j k k x x v x x k v x k z z j f e ",
"k f j k z x x z +.x x f j z x y ; 3 ^ 7.I.[.[.7.P o Z q.7X%X9.m . . # =.I.}.[.j.G + M e.7X%X9.V . . # ) u.c.f.z.J.E.S. .F 4 t h x x z x v +.v z x x z z l j f f ",
"k k j z x x k l z z v x j z x f 7 a ^ 4.b.(.[.j.P o @ D w.w.8.V o   # =.I.}.{.j.P o @ %.0.w.8.V O . # Q u.c.f.c.J.E.D.r.G - e k v v x x x v v z x x z z l j j j ",
"f h j x x c x z f k @.$.#.#.x y ; 3 ~ ,.j.I.^.b.] N + b V A ( Z n # H <.U.{._.j.' 1 + + V A ( V m # N ' u.c.j.m.T.E.S. .F - t v v v x z z x z k z x k h j l l j ",
"j f j x x x x z f k v @.$.$.@.t - a ! ,.7.P.I.h.t.( n O O O @ V C R ,.j.U._.U.v.4.Q $ + O O b V C U ) ,.f.c.x.G.R.R.x.:.F - g #.$.+.x z z z z z v x k h f l l j ",
"j j j l x x x l z x x z +.#.v f 6 a Q :.d.c.v.j.f.7.Q n . . . N Q 4.N.U.U.U.v.j.f.2.Q n o   . m Y =.3.p.j.x.G.T.].E.k. .F 4 t #.#.x x z v v #.O.@.O.l y y j k j ",
"f f j l x O.O.O.x x z z l x x y ; a ^ y.z.m.l.g.l.l.2.Q $ o + G ,.n.[.(.I.M.j.z.M.z.3.Q 1 o + N _ u.l.j.g.x.J. XoXXXK.2.G - t v $.v v x z x #.x O.x k h f y f y ",
"f f j z z O.O.O.O.z z z z z x y ; a ` s.J.G.l.f.j.c.u.;.Q H U ` 7.I.(.Q.v.g.d.g.M.M.g.,.~ U T ^ <.j.c.g.g.z.H.XX+X+X Xt.G - t x v v v x z v v #.O.z k k j f e y ",
"y f f k l l l x x z k h z v x e ; N _ k.R.R.m.f.d.g.d.u.7.3.7.y.f.j.c.c.j.g.d.g.g.j.d.u.y.<.7.7.u.g.g.p.f.z.H.XX+X@X.Xa.H ; y z v v z z +.x x v x z z h j j y e ",
"y y j l k k x O.+.z z z v v k f t B Q t.k.G.H.m.l.g.f.g.c.b.c.g.7.,.,.y.j.c.z.g.y.,.<.u.j.c.j.g.g.f.u.d.z.R. XoXOX.XA.{ J r j x x v v x v x z x O.O.x z l j y y ",
"y y h l k k O.@.c x z x v x z k j J L / :.s.H.T.G.g.f.g.c.N.M.f.=.) ) 2.j.M.M.u.[ ) ` 3.j.N.M.j.f.f.d.j.H.XX+XOX|.s.{ ( d h x z x v x v x x z z @.#.O.x x k y y ",
"y y j j l o.x @.x x x @.x x z +.x h 9 B T | k.T.J.z.g.f.g.c.j.7.` P R ] 7.j.g.4.^ P R :.u.c.z.g.g.g.x.G. XoX@X.XA.R F q h O.x z l x l l z x x x x x x x x l y e ",
"y p j l k l x x z z z x l k j z l p 9 9 B R | k.F.J.G.M.l.j.g.7.[ ^ Q ^ ' ' [ ` ~ ~ ^ ,.u.l.x.m.M.J.].oX+XOX.XA.( B 9 u h z x z z x x x l x x v #.#.x x k k f t ",
"f f k z z k x k j j z z k h t h k i u u B B Y | k.H.T.T.z.g.f.p.7.<.] ~ P G H T ) [ 7.7.g.m.H.J.T.R.oX@X+X.XA._ H B p p y p c c z z x k k z x v v c x l j l j y ",
"t f z z x v v v l z z z z z k k j i S S p u 2 T | k.m.k.y.u.g.z.T.M.i.[ ! U P ) 2.j.M.M.m.G.E.W.K.K.E..X|.A.( N : i S S o.y y y k h g f k v v x c x l l c l j y ",
"f f k x v z z z x x x z z z z k k S X.X.p u 5 B Q  .>.:.[ y.x.].].].T.k.t.r.r.i.x.T.].R.R.].XXW.D.i.a.s.a.{ L 5 : u S S S y y y h h g h j z x z l l j j j l j t ",
"f f k z z k f k v x x z k z z k k X.X.X.i u u q K T T P T  .S.].].].R.T.H.D.K.H.R.R.W.E.W.].XXH.i._ R R Q Y ..q u p S S p p p y h h k h f j k k l k y y j c j e ",
"t f f j f f h f f x O.k k k z l k p p X.p p p p q 8 1 1 N Q t.D.S.S.D.k.S.D.D.D.S.k.k.S.S.S.D.i._ J 1 < 8 q i i g h i i l k l y f f k k k k f f j l l x x x j t ",
"f f j k j f h f f z z k z z x O.l k y p p S S p u 9 5 - 8 L _ ;.| | |  .>.>.>.:.| | } } | | | _ U 0 4 4 5 u i i X.X.i u l c x y t t f k z k f f j k x c x k j e ",
"f j z z k k f f h z x x x x l O.@.l k y S o.o.S S S S 9 q B J H H H G H H G G H H H H G U U H F B S S S S p q S S X.t t l c @.p f f f z v k f f j z x x l j y y ",
"y k x f h h t y l O.@.x x l p l @.@.l k k p S S S i u u u 9 8 3 2 3 2 2 8 8 3 3 8 8 8 8 2 1 8 9 i p S S S S S S h h f f k x l l k k z x v x z j x l j k k j y y ",
"y j k j j j f j z O.O.O.O.l h z v x x z z h g g S i i i i u i i 9 9 9 9 9 u u 9 9 u 9 u q 9 9 i p i X.X.X.X.S h f f h k j k l O.x O.#.v x x x x x x h k k f y y ",
"y y f k x z k z x l k l l l o.z z j z x x h f q i g u i h g X.o.X.i p S h p p p p p p S i p h X.X.S S X.X.p X.h f f k +.k k l #.#.O.#.v z x v x z z z z k y y y ",
"y y k x c x x k z x x x z l k k k h k k k k h k k h g i i ....X.X.X.X.X.X.X.X.X.X.X.S p i S h X.X.S S h h h k p y k x +.k l O.@.O.x x #.@.#.@.x z k k h h f t e ",
"y f x x v c l l x x z k j k l z z k k k z z z z z o.h f h S S u i ..h X.X.X.X.X.o.X.S i i p S p S S h f j l h t t l O.O.o.j k O.x z x v v @.@.x z k f h f g t i ",
"t j x c x x x l x k p t t f z x x z k k z z z k O.O.k h h h p i i t i h o.h p p k k h i p y y i 7 f h k x O.i r t k z x k j k l z z +.z h z x z x z k h p y y y ",
"y j x x x x x l z l j y t f z z k k k z z z k h k x z k l o.l y t y f h h y j j j p f h j k p t 5 f l l O.@.z k k z z z k l l l k k f k k +.+.z x c x z l k y y ",
"t y l x x l l x z z k h k k l k k f k z z k h k h k k z x x x h h k l f y f l l j p h k l x l p y l x x O.@.x x z x k k x x x l z k k k x x x x c c x k j f y e ",
"w y j l l y l x O.l l l z O.k k k k z z k h k k k h h l x z l h l z z j f l x x k f h k l l l O.x x x x z x c x z z k k O.x x x z z z @.#.z x v c x k f y y e t ",
"t y y l l y c c l l l l x x h l x x x k j k k z k h h k l k k k l z l k j o.@.x k h k l x x x c #.$.x x k k z x x x l l l x x x v z #.#.$.+.x x l h f f y l y w ",
"y y y l y l l l c l x l z z h k x x x k k j z z k h k k h h f l l x x k k x x x l k l x c v c x v #.x l h h j z x x x k l l x c v v $.$.#.@.x z k f h f y l y w ",
"y y y l y y y c x x x l z z k z x z x x z z z j z z j f h k z x O.O.z l j j x x O.x x c #.c x l x x x x l k k k k x z j k c v c c x +.x z @.#.v x x z j y l y t ",
"y y y j l y y y l l x x z h h k z z x x z k j f h k k z z z z z l O.l k j h l x x x x c c x l x c c x k l x x j j x z j x c c x x x x z f x @.x v c z j y y y t ",
"y y y c y y y l l l z z k h h k z z x l l z j j j y h z z x k f j l k j k y j l l x x x x x x l x c x k l x x h f j j k x x x l x x l j y x x x v x l j j y t w ",
"w y y y y y y y l j k z k k k k k x k k l z j z j f t t f j f f j l l j y t j l x x c l x x k k l x z f k x l k f j h f j z x z l l l j j x x x x x x j y t w w ",
"w e y y y y y l l k j h k l k j j x l z x l l x l y y f f j k f j k k h j y l l x l l l z j f f f l k h k l k j k j j k f j x j k l j l l z x x k h j y t t e : ",
"w w y y y y c c l k j y k z j h j k x x x z z x z f k k f j k j j j j f h j l c x l l l j f y t t j k j l k j k z k l f f j z j j l k k x x x x y t y i t t w : "
};
