/* XPM */
static char *__resized[] = {
/* columns rows colors chars-per-pixel */
"80 80 223 2 ",
"   c #0A081F",
".  c #0C0727",
"X  c #120B2A",
"o  c #0F102A",
"O  c #14182C",
"+  c #130D33",
"@  c #171734",
"#  c #241639",
"$  c #1B2837",
"%  c #1D313A",
"&  c #282929",
"*  c #2C2E2C",
"=  c #362D27",
"-  c #332F2B",
";  c #35322D",
":  c #3C332D",
">  c #242D35",
",  c #312E32",
"<  c #253437",
"1  c #2B3433",
"2  c #2A373A",
"3  c #2D3C3C",
"4  c #343334",
"5  c #3B3633",
"6  c #363A35",
"7  c #3C3B34",
"8  c #353639",
"9  c #3B3639",
"0  c #313C3A",
"q  c #3C3A3C",
"w  c #41362E",
"e  c #44382F",
"r  c #423730",
"t  c #453B32",
"y  c #4A3E34",
"u  c #453C3C",
"i  c #493F3D",
"p  c #33423C",
"a  c #3C433B",
"s  c #4D4136",
"d  c #434239",
"f  c #4E4239",
"g  c #514337",
"h  c #53453A",
"j  c #58473B",
"k  c #56483B",
"l  c #5B4B3D",
"z  c #604F3F",
"x  c #61503F",
"c  c #1E1D41",
"v  c #241D43",
"b  c #1F3041",
"n  c #262949",
"m  c #392A4C",
"M  c #283745",
"N  c #253C44",
"B  c #353D43",
"V  c #2E2E54",
"C  c #343758",
"Z  c #393D63",
"A  c #453E41",
"S  c #483F40",
"D  c #2E4443",
"F  c #294547",
"G  c #2D4D4C",
"H  c #314443",
"J  c #334A45",
"K  c #374649",
"L  c #334D4B",
"P  c #39534B",
"I  c #2D4D52",
"U  c #304B50",
"Y  c #2D5352",
"T  c #2F5B58",
"R  c #355856",
"E  c #325D5B",
"W  c #2F675C",
"Q  c #35635C",
"!  c #3A655E",
"~  c #34695E",
"^  c #3A695D",
"/  c #375D61",
"(  c #346561",
")  c #356963",
"_  c #3B6D64",
"`  c #376868",
"'  c #3B7266",
"]  c #3C746B",
"[  c #3E7A6E",
"{  c #376A71",
"}  c #3A7573",
"|  c #3C7B75",
" . c #3D7E7B",
".. c #424546",
"X. c #4C4241",
"o. c #504642",
"O. c #5E4E40",
"+. c #5E5041",
"@. c #604F40",
"#. c #625141",
"$. c #4C4564",
"%. c #56506F",
"&. c #4C6B6E",
"*. c #47776A",
"=. c #407C6D",
"-. c #417E72",
";. c #4A7F75",
":. c #3F827D",
">. c #438373",
",. c #458A77",
"<. c #43867B",
"1. c #468C7A",
"2. c #4E8B78",
"3. c #498D7A",
"4. c #558675",
"5. c #46947B",
"6. c #4B937E",
"7. c #3C7781",
"8. c #555F83",
"9. c #4A6D86",
"0. c #6E728C",
"q. c #767996",
"w. c #3F8382",
"e. c #428986",
"r. c #489586",
"t. c #4E9B84",
"y. c #599783",
"u. c #519D86",
"i. c #428894",
"p. c #469797",
"a. c #499C92",
"s. c #51A287",
"d. c #52A48B",
"f. c #58A489",
"g. c #53A88C",
"h. c #54AB8C",
"j. c #4DA497",
"k. c #4CA499",
"l. c #55AC92",
"z. c #51A79A",
"x. c #56B293",
"c. c #59B493",
"v. c #5BBA96",
"b. c #56B29B",
"n. c #58B79A",
"m. c #5DBC9A",
"M. c #64A58C",
"N. c #6DB296",
"B. c #6AB798",
"V. c #4DA9A2",
"C. c #50ACA4",
"Z. c #59BAA3",
"A. c #55B7A9",
"S. c #5ABEAA",
"D. c #4CA5B1",
"F. c #57BEB7",
"G. c #5FC39C",
"H. c #61C59D",
"J. c #62C99E",
"K. c #5CC3AC",
"L. c #5BC4B3",
"P. c #5CC6B5",
"I. c #5DCBBB",
"U. c #64CCA1",
"Y. c #6DCDA3",
"T. c #79C6A3",
"R. c #65D2A4",
"E. c #6AD3A6",
"W. c #6CD6A9",
"Q. c #67D8A9",
"!. c #6BDBAA",
"~. c #75D8AB",
"^. c #61D0BC",
"/. c #7DDBB0",
"(. c #6DE1AE",
"). c #72E5B2",
"_. c #7BE3B2",
"`. c #76EAB4",
"'. c #72EDB5",
"]. c #54B9C6",
"[. c #5BC8C8",
"{. c #5AC8D7",
"}. c #62D5C9",
"|. c #63DBD6",
" X c #67E3DD",
".X c #5FD3E3",
"XX c #62DBE6",
"oX c #68E8EA",
"OX c #67E7F1",
"+X c #8C8C9F",
"@X c #9295AB",
"#X c #99A5BD",
"$X c #85D3AE",
"%X c #89D4B1",
"&X c #8DDBB4",
"*X c #94DEB6",
"=X c #88E4B6",
"-X c #8AEBBA",
";X c #94E4BC",
":X c #94EEBE",
">X c #89F0BC",
",X c #96F0BF",
"<X c #99F0BF",
"1X c #A2EABD",
"2X c #A7F4BF",
"3X c #B9F8BF",
"4X c #D0FDBF",
"5X c #ADB3C5",
"6X c #8AF1C2",
"7X c #96F3C2",
"8X c #9CF3C2",
"9X c #9DF9C7",
"0X c #A2F6C3",
"qX c #A7F9C9",
"wX c #A4FBCC",
"eX c #A8F8CD",
"rX c #BAFAC2",
"tX c #B4FAC8",
"yX c #B8FBD2",
"uX c #C8FDC5",
"iX c #D4FEC3",
"pX c #D7FFC5",
"aX c #C1FBD4",
/* pixels */
": = : : e e e e e e e w w e y w w s t e s s y y e w w w w e e e t e w w w e e e e t y e e s g y y y s y e d s y w = = = w e s y t t y y e y y e y y w e e e e = ",
"= : : : e e y y y y e e e t y y t y t t e y g t e y y y y e t y t e w y y y y y e e e e y s g g y s s y s s e g y e w w e e e e e y y y y y y y y y w e e e e = ",
"= : e e e y g g g y y e e y y y y y y y : y g y e y y y s y y y t t y y z y y y y e e t s g g g g s g s g s e s j g s e y e w = : e g g y y y z z y y w e y e = ",
"w e y t e e s g g y y y y y y y y s s y t s g y y y w e y t y y y y j g y y z y k s t g g g g h g g g g g s e s y y y s y e : : w w g g y y y y y y y e e e e w ",
"e y s s y y s s g s y y y y y y y h h g g h g f y y t t s t r t y g g j z y j y g y t g k g g h j g g j g s e : = = ; e y e = w w w h j g y y g y y y y y y w w ",
"w y g s g g s s s g g y g g g y g j g g j j g y y y s g k t w t y y y y y j z y y w e s g g g h j j j j g y : ; > < * 6 s y w w e y k h g s g j y y y y y y w = ",
": t g g k j j h h h s t g g g g g t t t g j k s g f f f s y y h j y y y y j j y y y i g g g h j l l l j j s ; J Q Q P p 7 s s g j j j h g g g h j y y y y y y e ",
"e y g g h j j h h k g t s j g j f y t t y k k g g g g g s y h k j g y y z j z j s y h g y g j k j k j h s d P *.y.f.5.^ a 7 e j z l j h g g h g y y y y y y y e ",
"t s s h h g g s s f s y s h h g h f s d g k k h i f h j g s g h g j y j h h j j s s s h h s k k j j g y ; a *.N.$X$XB.5.Q 3 & y j h j h g h h s s t t t s s e w ",
"t s s h j g y y y f h k f h l h f j h s h k k s y g j l k k g h y y y g k h g g s e e s s s h k #.k s : > L y.$X7X>XW.h.>.G & ; y k g s g j g e t s s s y y e : ",
"e y s g g s d e t s k l h h l h g j k h k j k k k k k l l k k h g y y j h s s s s y r s g s k l #.l y ; > Y f./.6X>XW.h.,.Y > = t g y y j k j d s h s s y e : : ",
"e y s s s s s s s h l l l h h h h k k k j j j l z l l k k l k k y y h h s s e s s f d h h j k l #.k d : * L 2.H.(.!.m.r.] G * 7 t t g k g j l x l h s s y t e e ",
"e y g g s s s s h k l +.l h h l k s f h @.l j j j k k j k j k k j g f h k s s s t s f f f s t y s y y t : a ^ 5.h.l.t.] R 3 : t y s h k k k g k k k g s t t t y ",
"e y g h s d s h l k x +.h h h l k f s k #.#.k g g k h k j k h h j g s h k y s h e d h h s t e 5 t y s g e a a ^ ] :._ P p 7 r h k k k k k h g h h k k s s t t e ",
"t y s k h h k l l l +.+.x l h h g j j z #.#.l k s s s k k y t f g g i s s t s h g h h k k k h h O.k k k g s 7 p F Y F 3 7 s h l k g k k j g h k k k g s y s y e ",
"t y s h k h l l l l l l l l l h k j l z @.@.O.k h s f h k s d s j g y s s t t y g k l l l k h k k k k k j g d : 1 2 6 7 s s s k h s y e t h g y g k f s y s y e ",
"t y h h j j j j k l k h k k l k k k k k l l l j j h f f h f f h k k y s s f y t h l #.x l l k k j h j h s g k t : 7 e s h g s s s y : = : g l r h l s s y s e e ",
"y y y j j k i j #.l k j f h k l k g s y g j l j j k h f s s h k l k s g k h d f h l #.x l k l l k h h O.s y g h g k k j k h s s y y s e : h l x l l h s s s e e ",
"t y h h k h s h +.k f k h h o.k k s s s s g h j j k h k h h k k l l s g k k h h h l x l l l k k j j j k g s k k l l l l h f g s y w : ; e l x #.x k h f s s e w ",
"t y g j h j g g k k k k k k h k k k h f g h h h j k k k h l l k l k s s h k k h f l x k l l k h g g h O.h k k l l j k k s s s h d 6 3 p 7 h x #.l k k k h g e w ",
"y y g j h f k g s h k h k h f k k k h O.l l k h k O.#.l g l l k k l h h j k h k l l k k k +.l h f i g k k k k z l h k h h s s r d R *._ P d k #.j h l l l g e w ",
"t y h k h h k k h k h l k k k k j o.O.#.#.l k k k O.@.k g k k k l k l l O.l k k l l k k l x l l k s h @.l k k l l k h k h s e 6 P >.s.5.*.a 5 s s s s j x g y e ",
"y y g g g k k O.x k k #.l k k k k @.#.#.@.z l x O.O.k h j f h k k k j j k k k k k h h h h l s s k i s l l k k l l k k k g y : 1 Q 6.v.c.>.D * w s d e h x g y y ",
"y y g g g h k k l l l #.l k h k l @.@.l l l l l O.k O.O.k h h h k s : = ; ; : : : ; ; ; : : : : ; = = r s h l +.l l l h g y 7 4 J =.t.5.^ p : y s s g l j g e e ",
"y y h h g h f g j k O.O.z j g g k z l k k k l l l k l k h k k g s d 6 3 p 3 3 0 0 0 3 3 0 3 p 3 3 3 3 6 7 s #.@.l x l f h s y r a P ^ ^ P d y k g h l x z g y e ",
"y y y h h h f g f j k k l k h f k l l k k j l k j j j h t s s y r a R _ _ ~ ! ^ ! ^ ! ! Q Q T W Q ~ Q J 6 y l k l #.l g k k h s 7 * 2 6 t g k k j j j j j g y y ",
"y y h j k k k k k h j k k k k j g j j k j k k h f h h s : - & & 6 ! 2.M.B.f.M.M.M.M.M.y.6.,.,.,.5.u.6._ J 6 g k k l k h h k k f y 7 ; 7 s x #.k h g j j g g y e ",
"y y h l l k k l k j j k l @.@.k j g g k k g k j k h s t q 0 M 2 R 4.$X*X;X&X%X%X&X&X*X~.J.B.c.v.m.U.H.6.' L a y s l l k h k l k h s t y s l x l k g g j g g g e ",
"y g h j j j k k h O.l l #.#.@.l j j f i y y f l l h r a P *.;.} 4.$X0XyXaXyXeXeXwXwXwX9X>X_.!.E.!.(.!.G.s.=.J 6 y k k h h k +.O.O.l k f h l x x x k h g g g y e ",
"y y g g g f k k k O.+.l #.#.#.@.O.k j g g f h @.k e 1 J 4.N.T.N.T.*XrXiXpXuXtXtX9X9XwX9X,X-X_.~.R.E.E.J.m.u._ J 4 y g k l l l k l l l k j x x k k x x j g g y y ",
"y y h f h k h k O.#.O.l #.#.O.k j j j O.k k k k y 6 J *.N.*X8X7X1X3X4XiXiXuXrXqX7X,X8X8X8X<X=XW.J.G.J.R.E.G.t.Q D 6 y s k k l O.l O.x l l x x g k x x g s g y e ",
"h h g j l +.h k O.#.l O.#.#.h f g h k #.#.@.j y 6 P 4.N.=XeXyXyXuXiX4X4X4X3X3X<X,X,X,X8XqX0X-X!.G.G.J.R.!.Q.v.6.^ D 6 y g j O.k O.l l l x l k j k k k k g g e w ",
"f h k k O.k k k l #.l k l l h k l x l l x l d 1 K ;.B.-X7XqXtXuXiXpX4X4X3X2X<X<X<X,X<X<X0X<X=XW.J.G.J.R.E.E.H.d.,.Q J 6 : g l k h l l x x x k l l k h k l j s e ",
"h k k l k h j k l l k f h k k z #.+.l h x s p p *.N.7XwX9X0X0X3XuXiXiX3X2X,X:X,X<X<X<X<X<X,X$XE.J.G.J.J.U.U.H.c.t.[ Y > ; s k g g k k l x x x x k j h j k k g y ",
"k k l x l l k k z k s s y h #.#.l h h s e p P ' f.$X0XeXwX8X0X2X3X3XrX2X0X:X:X:X<X<X<X,X-X/.E.Y.J.J.J.U.U.U.U.m.u.-.I > t g j k k h d s k x l j s s h g s g s s ",
"h k l l l k k k k k g h s f l k k h s e * p ' 5.J.-X7X0X9X8X8X0X1X0X<X<X,X,X,X7X<X2X<X-X_.Y.J.J.J.J.J.J.J.U.H.v.u.| Y 1 7 y h k h g s s g k k k k k h g s g s s ",
"h j j j k h h h k h h l k k k k k l h 7 & G :.c.W.`.-X:X<X0X9X9X9X7X7X,X,X<X8X0X<X<X-X$XQ.J.U.U.R.R.J.J.H.G.v.h.t.>.Q J 6 t f k h h h h h h k l l l k h h d s e ",
"g g h h h s h k k y g z l k h k l l l s & D [ x.E.~.~.=X9XeXeXeXwX9X8X8X8X0X0X0X<X=X~.~.Q.(.(.(.!.!.R.G.v.c.h.h.d.t.>.^ P 0 7 k x l k k k l k k k k l k k g s e ",
"s s g g h f k h g t y h k k h h l h s d 1 Y ,.x.R.!.E.E.$X%X%X&X=X;X>X,X:X:X,X,X-X_.Q.G.v.x.c.v.G.E.R.G.c.h.f.s.d.l.s.3.` J ; s l x x k k l k s s g k k k h s e ",
"g h f h h g h k g s y g g h h s d r : p J [ s.v.R.!.R.H.M.4.;.4.M.T.=X>X-X=X=X&X_.).Q.G.:.' ) ' ,.6.G.G.c.6.6.s.l.Z.Z.j.<.Y & 7 h l k k x k g s s g s k k g d w ",
"s s s k k k l l k s s k k k s s e ; 3 R >.h.H.J.Q.(.Q.x._ 3 # 1 E y.Y.`.).W.Y.W.~.).(.s.Q % O $ Y | g.m.c.d.t.u.l.S.S.V.;.G * ; w s s h x k s d g h k l k s e e ",
"s h k k k k x l k f h l k s s s t * D ' 6.U.(.R.G.G.c.6.&.B # + > / t.m.R.J.U.U.J.H.v.6.&.A # @ $ I | t.d.s.s.s.l.K.P.C.7.Y * : d s g l x k h h k k l l l g s e ",
"s k l j k k z l d h h x k s y f y * J | x.E.`.!.G.5.[ *.0.0.$.v + $ Y >.h.G.R.R.x.5.=.&.0.q.%.V + @ I ] 3.u.h.s.b.L.P.C.:.Y * e d g x x x l k h l x k x k g e e ",
"g g k h k k l l k +.k s k k h g t ; D ' s.U.).(.h.W 2 $.+X5X@X%.c . @ Y 5.G.).!.h.W 3 %.+X5X#X%.@ + @ F ] u.h.h.l.L.L.C. .L * r h k l x x x l k l l k k k g y y ",
"g h g j k l k k l +.l f g k l l s ; D ) 5.H.(.(.s.Y O m q.5X#X8.n .   % ] J.'.'.5.T O m q.5X#X8.V . . $ ( t.h.h.l.K.L.C. .U * t d l l l +.x l k l l k k j g g s ",
"h g g k l l j j k l l l g h x l s ; D ~ ,.v.!.!.h.T O # $.q.M.8.V + . % ' J.'.`.6.T o # $.q.q.8.C + . $ Q t.h.h.g.K.S.C.<.G * y k x l l l x x l l l k k g j g g ",
"s s g k z l l k s h #.#.#.#.x h r ; D W :.g.J.R.x.' M + v m Z Z V n @ I ,.J.).(.G.^ p @ # V Z Z C n $ N ' t.l.h.b.L.L.C. .G * s x x l l k l k h k k h g g g j g ",
"g s g j l l z k f l #.#.#.#.x k t ; p Q [ s.v.B.l.,.E n + + + v V I / -.h.J.!.U.h.,.W % + . + v V V I ` >.t.l.b.Z.P.L.z.| Y ; h +.x l k k l k h x x k d s j j g ",
"g s h k k O.k j k l l k O.#.#.l s 6 H Q -.u.l.c.h.h.,./ n o   X n E 3.v.U.J.K.v.h.t.3./ b X   . $ I ] 6.t.s.l.A.K.^.P.k. .G * h l l l l l x x O.#.O.k s y h g j ",
"s g g k l O.@.O.l k k k k k x l y 6 D ) e.l.b.h.f.h.d.,.E % o O F ;.m.Q.!.H.c.h.d.b.l.1.E % O $ F ) r.x.h.l.A.L.}. X}.A.w.I 1 s x x l l l l #.+.l l h f g y y y ",
"y g g k k O.O.@.#.k k k k k l k y ; H ] a.Z.S.h.s.h.h.t.=.E G I _ t.H.E.J.v.h.t.d.n.m.d.>.E I G Q >.u.v.x.b.K.I.|.oXoX[.e.G * s x x x k k l +.+.l k h f g y y e ",
"y y s h j j k l l k h h k l l h y 4 H } j.K.L.b.h.t.s.h.t.r.3.6.t.s.h.c.h.h.h.s.d.h.h.s.t.r.3.3.6.t.u.x.A.K.L.I.}.oXoX{.i.Y = e l x l j l +.+.#.l k k h g g y e ",
"y y g j j h j @.+.k k k +.x k k k r H / w.k.Z.Z.Z.Z.n.b.l.h.h.h.t.3.>.>.5.s.v.b.d.3.>.>.5.h.x.x.c.l.n.P.}.|.[.C.V.].].D.7.P 5 s k x x x l l k l O.+.l k k g y y ",
"y i y j j h O.@.+.l k l +.x k +.l i d K / } a.A.L.I.L.S.n.x.c.c.t.[ Q Q :.g.v.x.u.[ Q ) ,.h.v.U.K.K.P.}.oXoX[.i.{  .7.} / ..y k j x x k l l k k #.#.O.l k k y y ",
"y y g h j o.l @.l l l +.+.k k +.O.g S A 2 U } k.L.I.L.A.b.h.l.l.t.] Y T ] t.h.h.1._ Y Q :.s.S.I.I.L.F.[.XX.XD.{ F % N K ..X.O.f j l j j l z l l l l l l k j y t ",
"y y h h h j l j k k k l k h f k O.h u u 9 H R  .p.j.a.k.C.S.U.L.b.a.:.| ] [ :.[ | [ | <.a.S.}. X|.[.V.p.D.D.9.E 1 * 4 B A X.j j j l l k j j l x #.#.l k k k y t ",
"d s h h k k l k f h k k k d s h k i u u u A K E ( ( `  .j.L.^.}.I.F.C.p.} T G G ( :.p.A.L.P.oXoXOXD. .( { { R K u 5 u u A i g j h h l j g k l x z z j j g g y y ",
"y s h l l l x k h h k k k k h k j i t i i A u M 2 < 2 E <.C.L.A.A.S.A.p.) N $ % Y  .k.L.L.A.{.{.].7.I > > 0 B u u f i i i u t i h h d s j x x k z z j j z z g y ",
"s s h l l l k l l l k k k k k k O.h h y i u 9 8 1 , 4 H ( e.e.e.e.r.r. .W % % % G ) w.r.e.e.p.p.i.{ B & * 5 u u u i X.X.f s y s f f s d s k l k j j y j g z g y ",
"s s h l h l s h x x l k k k k k k O.O.k i u u u u A q B K Y T T T W T T G F N N F I T E T T W ( E C q 9 u i f u u i u f f h h s s f f h s h h h j g y y y z y w ",
"y y g g f s s s h l k h h h k k l l l l y i i i u S i u 8 2 2 2 2 8 3 3 p p D D B N 3 2 8 2 2 1 1 8 u i h X.S A A f y r o.+.l s y g g h g h g d g j j j l l g y ",
"y s h g s s f s s k k j k k k O.l j l l h j y i S S u 9 8 4 4 8 9 8 8 9 p p B 0 A q 9 5 8 8 , , , u i i X.f A A u g d d l #.l y t s s h l h s s g j l z l h y y ",
"s h k k h h f s g k j j l k l O.O.j j j j z j i S A u u 9 u u u A X.u S i u u i i i u u u u u u u S i i i i u A f h s f k x x s d y s k l k s s g j l l j g y y ",
"y h k g s f y y j O.@.O.O.j f k #.@.k j O.@.z i y u r r 9 u i S X.S i i u S i i S S S S i A S S i S S u i i u i h j k s k k k h g h l l x l j h l j g h h g y y ",
"y g j g g g s g j O.O.O.O.h s h O.l l k +.l k h s d d r d u X.X.X.u u u X.f i S i i i f i i f X.X.X.A f f h h j k h h h h h k l O.l x x l l l k l l f h h s y y ",
"y y y j j j j k k j j j k j O.k h h k l k k h h h k h f h s f X.f u f u f u f u i i i u u i i X.f u u O.k k @.k h s k O.f h k +.#.+.#.x k l +.x l k k k h y y t ",
"y g g j l x j j l O.l k j j j h h f h k k k k l l k f h f s s d f h f h f h f f k g f i i y g g f f f o.j k l k s f O.+.k f O.#.#.l x x +.#.+.l k f h f f i y t ",
"t y l z x l j j k k k h g h j h k k h f k k l l l O.O.f k h s i f h k k O.j j j k k k g g y k k f k h h k k k y y h O.O.f k k +.l k l x l +.x l k h f s s d t t ",
"t g l l x k j j k h f y y s k k l k h h k k h h O.+.k k l l k h f g h O.@.O.j j O.#.l k h j k g g k @.k O.O.y r t h k k k g h j k k l k f k +.k l l h s y i y y ",
"y g l z l l k k k j s y t s k k l f h k k k h h h k k O.l #.l h s f h k k h j O.k j j k l k j i y k l k O.@.k f k k k k h j k j k f h h h +.+.k l @.l k k g y y ",
"t y j l l j l l O.j h f g h k h h s h k k k h h h f k k O.#.l k h k h h f f j l k f f k l l j g y k l l O.@.O.O.k k h h k l l j k h d k O.+.+.k @.@.k h g g y t ",
"w y h k g g j l k j j j j O.k h h h h k f f f h h f h k k k h h k k k h s j O.j g f f k k l l l l l l O.k k O.k k k h h l z l l k k k O.+.k k +.#.k j y y y e w ",
"t y y j y y z j z j j j l l f h l l k h h h g k h f f k h h g h j j j h g k @.l g f h j l z l z #.#.x k h h j k k l k j j j l l +.x +.#.#.+.l l h g f s g j y w ",
"y y y g z y z z j j j j k k f k l x l h h g k k k h h h f g g k l o.k k k j l l j h k l z x l z @.#.x k g g h k l l k k h j z z l +.#.#.#.#.+.k h f s s y j y e ",
"y y y j y y y y z l j j k h h j k k l l k k j h h k h f f h j k O.O.j j g g k @.O.k l z x z l j l l l j j j g h j l k k j z x x l l #.#.k x x l l l k s j y y e ",
"y y y j y z y z j j l l k f f h k k l l k g g g f g h h k k k j j O.j g s g k l O.l l z z l l j z z l j j j j h g j h h l z z l l l x k s l #.l x x k g y y y e ",
"y y y z y y y y h j k k k g f h k k l k j j g g g s s h k k k s h j h h g y g j j j z j l l j j l z k k k l l h s g h f k l l j k l l g y k l l x l k g y y t w ",
"w y y y y y y j h h j k h g j g h k k k l j g h g y t y f g g s g h j g y y y j l z z j l l j g j j k f k j j y g g f g k k j j k k j g h k z l l l k k y y w w ",
"w e y y y y y y j g g y j j h g h j k h l j j k k y y s f g g f g j g g g y g z l j j j k g s s g k k f h k g h g g g g s h j g k j h h k k l z h f g y y t w : ",
"w w y y y y z z j j g y h o.g g g j j l l k k l k s h h s g g g g g g s f g j z l j j j g y y y t g g g h k h h k h k g y g j g h j h h k l l j s r i t t e w : "
};
