/* XPM */
static char *__resized[] = {
/* columns rows colors chars-per-pixel */
"80 80 226 2 ",
"   c #0B0524",
".  c #0C0923",
"X  c #160C29",
"o  c #120E2E",
"O  c #14182D",
"+  c #121233",
"@  c #191936",
"#  c #231C3A",
"$  c #192736",
"%  c #1D353A",
"&  c #252A2C",
"*  c #2B2B29",
"=  c #332C26",
"-  c #342E2A",
";  c #382F29",
":  c #34322D",
">  c #3C332C",
",  c #282834",
"<  c #2C3433",
"1  c #25373A",
"2  c #2D3539",
"3  c #2D3C3C",
"4  c #333532",
"5  c #3C3634",
"6  c #333A36",
"7  c #3C3C34",
"8  c #343639",
"9  c #3B373A",
"0  c #323C3B",
"q  c #3C3A3B",
"w  c #41362E",
"e  c #43382F",
"r  c #413731",
"t  c #453A32",
"y  c #4A3E34",
"u  c #453C3C",
"i  c #493F3C",
"p  c #2F403E",
"a  c #35433D",
"s  c #39453D",
"d  c #4D4136",
"f  c #464138",
"g  c #4E4239",
"h  c #514337",
"j  c #53453A",
"k  c #58473B",
"l  c #56483B",
"z  c #5B4B3D",
"x  c #604F3F",
"c  c #61503F",
"v  c #281B45",
"b  c #242348",
"n  c #263A44",
"m  c #353D41",
"M  c #2C2C50",
"N  c #372E52",
"B  c #2E3651",
"V  c #433E40",
"C  c #443457",
"Z  c #2A4446",
"A  c #294747",
"S  c #29444A",
"D  c #2B4A4B",
"F  c #344344",
"G  c #344B46",
"H  c #374448",
"J  c #314D4A",
"K  c #2F514F",
"L  c #33524D",
"P  c #39564F",
"I  c #2E4B53",
"U  c #344C52",
"Y  c #364B55",
"T  c #2D5454",
"R  c #2D5857",
"E  c #345754",
"W  c #335D5A",
"Q  c #35635D",
"!  c #39675B",
"~  c #3D4468",
"^  c #385B60",
"/  c #346462",
"(  c #366A64",
")  c #3A6C63",
"_  c #386A68",
"`  c #3C7266",
"'  c #3C736C",
"]  c #3D7C6D",
"[  c #386B74",
"{  c #3B7475",
"}  c #3B7A74",
"|  c #3D7D79",
" . c #444141",
".. c #4C4241",
"X. c #534742",
"o. c #5E4E40",
"O. c #505447",
"+. c #604F40",
"@. c #625141",
"#. c #685543",
"$. c #42655A",
"%. c #43476B",
"&. c #554768",
"*. c #454C72",
"=. c #625974",
"-. c #4D6F6F",
";. c #45766B",
":. c #427C6D",
">. c #417D71",
",. c #616579",
"<. c #3E826E",
"1. c #3D807A",
"2. c #40816E",
"3. c #438373",
"4. c #478B77",
"5. c #41837B",
"6. c #488978",
"7. c #498E7C",
"8. c #558978",
"9. c #48937C",
"0. c #55917E",
"q. c #5A917E",
"w. c #6C6D86",
"e. c #717792",
"r. c #3F8580",
"t. c #438B84",
"y. c #428C87",
"u. c #499687",
"i. c #4E9B83",
"p. c #519E84",
"a. c #589883",
"s. c #428E9A",
"d. c #499B92",
"f. c #46949A",
"g. c #649C85",
"h. c #4FA58A",
"j. c #51A286",
"k. c #52A58B",
"l. c #54AA8D",
"z. c #54B28F",
"x. c #4DA59A",
"c. c #55AC91",
"v. c #53AB98",
"b. c #56B195",
"n. c #5AB493",
"m. c #5CBA96",
"M. c #56B39B",
"N. c #5EBD9A",
"B. c #64A48B",
"V. c #68AC93",
"C. c #6AB999",
"Z. c #74B99A",
"A. c #499CA9",
"S. c #7F89A5",
"D. c #51AEA3",
"F. c #52B3A5",
"G. c #5ABBA4",
"H. c #57BAAA",
"J. c #4FAAB3",
"K. c #5EC49B",
"L. c #5EC99E",
"P. c #61C59D",
"I. c #6AC19C",
"U. c #62C99F",
"Y. c #5DC2A5",
"T. c #5CC3AB",
"R. c #5CC5B5",
"E. c #5ECCBC",
"W. c #64CCA1",
"Q. c #6ACAA3",
"!. c #7AC6A3",
"~. c #66D2A5",
"^. c #69D4A6",
"/. c #6AD7A8",
"(. c #6BDBAA",
"). c #77D0A8",
"_. c #73D5A9",
"`. c #75DBAD",
"'. c #60CEB7",
"]. c #63D5BB",
"[. c #7BDFB0",
"{. c #6DE2AE",
"}. c #71EBB5",
"|. c #78EAB5",
" X c #5ECECC",
".X c #5ACADA",
"XX c #62D5C7",
"oX c #63DCDE",
"OX c #69E1C4",
"+X c #63DDE5",
"@X c #68E6E8",
"#X c #66E6F2",
"$X c #9197AE",
"%X c #A2A6B8",
"&X c #84CBA7",
"*X c #83CEAB",
"=X c #82D2A9",
"-X c #88DAB3",
";X c #84E3B4",
":X c #88E6B7",
">X c #8CEABA",
",X c #94E5BD",
"<X c #94EDBE",
"1X c #88F1BC",
"2X c #95F0BF",
"3X c #99F0BF",
"4X c #A0E6B7",
"5X c #A4F3BF",
"6X c #AAF5BF",
"7X c #B8F7BF",
"8X c #CFFEBF",
"9X c #AEB8CC",
"0X c #9CEFC1",
"qX c #95F3C0",
"wX c #9BF3C2",
"eX c #9DF9C6",
"rX c #9FFBC9",
"tX c #A1F6C3",
"yX c #A7F8C7",
"uX c #A4FBCA",
"iX c #B7FBC6",
"pX c #A7FBD1",
"aX c #B5FCD3",
"sX c #C7FDC5",
"dX c #D4FEC3",
"fX c #DAFFC3",
/* pixels */
"> ; ; > e e e e e e e e e e t e e d t e y d y t t e w w e e e t t e w w e y e e e t y e y d y d y d y y e e d e e = = = & & : s t t t y t t y y y y w w e y w ; ",
"; > > > e e y y y y e e e t y y t y y t e y h t t y y y t t t t t e e e t y y y e e e e e d h h y d d y f d d y e w : p p p a ; w e y y y y y y k y w w e y w ; ",
"; > e e e y h h h y y e e y y y y y y t > t h y e y y y d y y y t t y y y y y y y e e t d h h h h d d d h d e d h e a P 2.2.P p - w y j y y y y h k e e e e w w ",
"> t y t e e d h h y y y y y y y y d g d t d h d y y e e y y t y y y k k x k k y j d t h j h j j k d h h h d d e w = L 2.z.z.<.p & = h j k y y y y y y e e e e e ",
"e y d d y y d d h y y y y y y y h j h d h h j i y t r t h t t t y y y x y x y y h y t h j h h j k j h k h d e f 7 * G 2.z.z.3.a & - d k d d h h h y y y y t w ; ",
"w y h d h j h d h h d y y k h y h j h h k k h g y y g h j t r t k y y y x y x y t t e h j h h j k k z k h d e d d : s ! 4.4.! a ; w h j h d h j k y y y y y w ; ",
"> t h h j k l h j j h t h h h h h t t t j k h g h h y h h y y j y k y y y x y y y y i g h h j k z z z k k h d h h d f s L J s g k k j h h h h j y y y y y y e e ",
"e y h h j k l l j l h t h k h k h t t t h j l j h j j h y g h k x y y y x y x x y d h h h h j k k z k z z k h h l h h e < & : l x z k j h h j d y y y y y k y e ",
"y y g j l h h d g g h y d j j j h j d t h z l h g g j j g g g l y y y x l j j k h d d h h d j k k l l k j l z l h z l d ; * = h z j j j h l j d y f t t y d e w ",
"t f d j l h y t y d j j h h l l g l j g h l l g y g l z l l h j y y y y l j h h d e t d g d j z @.k j h g h k l h h l h d e e e h j h y h k h e y d d d y y w > ",
"e y d h h d y e t h l z j j z j h l l h l l l l j j z z o.l l h k y y x h h d f g t t y h h l z #.k h g d d l h l j j l l l l e y h f d j k l d d h d d y t w > ",
"e y d d d d d d f j z z z j j j l l l l l l k o.+.z l z k k k l y y k y h y y y g g g h j l k z @.l g g h j l h h l j l z z z j y t h l l l z z z h d d y t e e ",
"e y h h d d f d j l z @.z j j z k h g j o.o.k l k z k l l k z l k y h l j y g g t f j g g y t y f y h h l z @.l h h l k h h l h h d h k k l h l l l h d y t t e ",
"e y h j d f d l z l z @.z g l l j g g l @.@.k h h l j l k h h l k k i l k y h h t y j g d y r 7 t y h k z +.@.z z j k k h g h l j j l k z j h h j l j h y y y e ",
"t y h j j g l z z z o.@.z z l j h l k x @.@.o.j g d g l k d t g j y y h d t d h g h l l l l g j X.l k o.l h k z z z z z l h l o.l h l l l g h k k j h g y d y e ",
"t y h j l j z z z z z z o.z z j j k z x x +.o.l h g g h l d f g j j y h d y t y h k o.k k k l l k l l l h l z l j z z z k h g g j f t > 5 7 t y j j g d f d t e ",
"y y y k k k k l l z z j l X.z z l j k z k z z k l j g g l g g j k l f d d f t t j z c c z k l l l j l l h l z d d z z z z d d d d y > * < < > e h z h d d d e e ",
"y y y k z k i l o.z l j g j z z l d d f h k z k l k h h d d h l z z d j l j j j j z c c z z k z k j l k h f l j j c c z k l d d g h y 6 1 1 a j z k h d d d e e ",
"t y y j l l g j o.o.j j j j l X.l d d f d h k l k l l h h j z l z z d h j j j j h l c z z z z l k k k z d d l k z l z l j j d d h l d 7 6 6 f c z z l d h d e w ",
"t y k k j l h h l l l j l l j j l j j j d h l j l X.l l j z z l z k d g j l l h j z c l k c l j g h j l j h l z z j l l j d g j l j f t f d l c z k l l h h e w ",
"y y j k j h l h d j l j l l g l k h l X.z z l h l o.@.z h z x k k z l j l l l h l z z j z c h e > > t d h l z z z j j l g g j z j f h k z c c #.z h k z z h y > ",
"t d j j h j l k j j l z l l l j o.k o.@.c c z l k +.@.k h j k k z k z z c z k z c z l l z c e : < & * t j k z z z l j l j j l l j d j k z z c z h d d k c h e e ",
"y y h h j j X.x c j l @.o.j j z z o.@.@.c z z c @.o.l l h j j z k h l l k k z z z l j l h h 6 p A n 3 t g k k z z l l l g l l j l j l l l l l d h d e l x h y d ",
"y y h h h j j k z z z +.o.l j j k o.@.z z z z z z o.z k X.j j j h d > > > 7 e e e 7 > 7 w a G ! 7.a.;.$.s e z z z z z j g h h l l l l l l j l k j f h z z h e e ",
"y y j h h j g h l k o.o.z z h j l +.z l k z k z z z z l l l l h d 7 6 < < < 6 6 6 6 < < < p ! i.Q.).Z.8.G 4 d k c +.z h j h h h h l k z c l l k k h z x z h y e ",
"y y y j j g g g h l k k k l j j j c o.l l l z k k l k h y j j i s s E E T K K K K K D A D ! 4.m.>X2X-XV.;.p 7 d l +.l g l l l g f g z c c z k l k k k z k h d y ",
"y h j k k l l k l l l l k z z l j l l l k z k j h h h d > - - ; a $.q.a.i.a.0.0.q.q.q.q.q.a.n.U.}.1X>X).0.) G s t h l l l l l g f g j z z @.+.l h h k k k h y e ",
"y y j z z k z z l l l l z +.z k j h h h h l j j l j f 7 8 2 2 n $.q.&X-X*X&X&X).&X=X&X*X&X).).~.~._.`.`.P.9.) F 4 t h z j l z l j l j j l +.@.z l j h h h h h e ",
"y h h l l k k X.j X.z z +.#.o.z k l h y h y g o.o.h 7 a P ) _ $.q.&XaXaXaXaXyXuXrXrXuXuXuX2X;X_.P.K.U./.~.K.7.K < t h l j z c o.+.z l g l z c c z z l d d h d e ",
"y y h h h h j l z c +.z +.@.+.o.o.k j j h h h +.j > 6 P 8.B.V.B.&X,XsXsXsXiXiXuXrXrXrXuXuX3X<X;X_.U.L./.~.m.6.A & t d l X.z z z z z z z l c c z z c z l d h y y ",
"y y j h j j j l c @.+.z @.@.o.o.k l l z X.k k l y 4 P 8.Z.-X0X-X4X7XdXfXdXsXyXtXeXqX3XeXeXeXwX<X;X^.~.~.~.m.4.J , 7 d j z o.z z z c c z c c z h l c c l h h y e ",
"y j l l o.o.l l c +.c z @.@.g g h j X.@.@.+.k t 0 P q.!.qXpXaXaXsXdX8X8X8XiX6X3X2X2X3X3X3X3XyX5X>X_.~.L.U.N.j.` G 6 t j k z z z z z z z c z z j l z l j h h e w ",
"g j j z z X.j l z @.+.k z z h l o.+.z z #.z t 4 P >.!.qX0XyXiXiXdXfX8X8X7X5X3X3X<X3X3X<X3XwXyXtX>X_.U.U.U.U.C.9.2.L 6 > y l z l h z c c c c c z z z l l l h d e ",
"h j z z l l j l z z l h h l k c @.@.z j k f 9 G -.Z.,XrXwXtXiX8XdXdX8XiX3X3X<X3X3X3X3X3X3X3X3X2X;X_.U.P.U.W.~.K.9.;.J < > d k d d l z z z c c z z h h h z z h d ",
"l k z c c z l o.c j g f d g c @.z j j d r 7 $.q.*X0XuXuXwXtXyX8X8X7X7X6XqX>X<X3X3X3X3XwXwX3X<X-X_.^.U.P.U.~._.^.U.j.` J a e d h j l d f z z z h h d l j d h h e ",
"l z z z l l l l z j g j g h z z k j f 5 < P 8.&X0XrXrXwXwX0X0XtX5X5X5X3XqX<X2X3X3X3X3XwXwX<X;X^.U.U.U.U.U.W.~.^.U.n.4.! G 6 7 h j j h f h l z z l j j h d h d d ",
"j j k l l g j l k h j k k l l l j h u 6 A :.Z.>XrXrXwXwX0XtX0XrXwXqX3X3XwX3X3XwX3X3XwXwXqX>X`.~.P.U.U.U.U.U.W.U.P.N.j.>.R 3 : d l h j j h h l z z z l j f j d e ",
"h h j j l h h l l d h c c k h h h t a L :.k.^.:X>XwXuXuXpXpXpXpXrXeXwXwXwXtXtXwXtXtXtXwX1X|.}.(.~.W.U.U.U.U.~.U.W.P.k.} L 6 > l c z l l l z z l j l z z l j d d ",
"d g h h h h j j h y d j k k h d e < J ] k.P.^./.[.>XwX0X,X4X,X,XqXqX3XqX3X3X<X3XwXwX<X;X^.P.K.K.L.P.U.W.U.U.~.P.N.N.p.| Q p : d c c z l z z l d h h j l l h d e ",
"h g j j h h k j h d f d h j j y : & E 9.P./.~.P._.|.:X=XZ.g.g.B.!.-X>X<X:X:X;X:X1X2X:XI.9.] ] 9.l.P.~./.~.U.U.P.N.c.h.7.} E p 7 d z l z c l h f f j h j l d f w ",
"d d h z l l o.z l d d l l j h y > & K 4.m.~./.W.(.|.`.B.! n n $.8.I.|.1X`._._.`.:X1X{.9.R $ $ A 3.n./.}./.P.m.b.k.k.k.x.x.t./ 0 = a d h c z h f h j z z z d e e ",
"d h k k l l o.z j g j z l d y e 4 < E 7.m.W./.W.W.~.n.>.Y , X @ I 6.K.W.~.~.U.W.~.U.n.8.B v X @ I 4.m.^.~.K.n.l.p.p.c.G.H.D.t.J < ; d z z z j j j z z z z d d e ",
"d l z k l l z z g g l z l f > 6 0 D ;.j.m.^.(.W.z.9.>.-.,.&.v o @ S <.h.z.~.~.L.z.9.:.-.w.&.N @ $ I 3.k.n.m.c.j.i.i.l.G.XXH.y.R < : c c c z l l z z z z z d e e ",
"h h j j l z z z z z z g h d > Z E ` 9.m.U./.(.Y.9.T Y ,.%X%Xw.N + + A :.z./.{.~.<.R H e.$X%Xw.N + @ S ) i.c.b.l.i.i.c.G.E.H.y.U < > h c c c z h z c h l z h d e ",
"j d d l l z k l z +.z d h y : J ( 6.k.N.P.~.(.P.<.% b =.%X9X$X~ +   O W j.{.}.~.<.% # =.%X9XS.%.+   @ S 3.c.c.k.p.j.v.R.XXR.s.T < > d z c O.c l z c j j k h h h ",
"j h j k z z l l k z z z h r < J ' 7.l.m.n.P./.U.<.$ X C e.S.e.*.@   . I i.{.}.U.] % o C w.$Xe.*.#   . n :.k.l.k.j.k.H.XX@X.XA.R : w h z c c c l z l l l k h h h ",
"h d h z z x z l i j o.#.@.h 4 Z ( 7.k.c.k.m.W.P.9.D @ @ B %.*.~ b @ $ W j.{.}.~.4.A O # M %.*.~ M @ $ D 6.k.l.l.c.G. X+X#X.Xf.U : f j c l l l j l z j g h k k h ",
"h d h k z z z l d l o.@.@.l 4 J ' d.M.M.k.l.m.n.i._ M @ + @ b M B I ^ 4.n.(.{.~.h.` S $ + @ b M M n S ( 7.k.k.b.H. X+X+X.XJ.{ G s f j l l l l l z c l f d h k j ",
"d d h l k z z k l k z l z g 4 K | D.H.H.c.j.k.l.k.7._ n O     @ B ;.k.m.W.~./.~.K.i.' S O     + B T ` 6.i.k.l.G.XX@X#X.XA.[ H f d j l z z c +.+.+.o.l d y h j j ",
"d h h l z +.+.o.@.k l l l t : F _ d.H.R.c.v.k.c.b.m.9._ n o . $ K 4.K.U.W.W.~.W.K.c.7.W % + X $ I 1.k.m.c.M.H. XoX#X.XA.[ H u k c c z z z z +.+.+.z j g d d y y ",
"d d h l z o.+.+.z l l l l h t a L ' d.F.G.H.G.G.Y.Y.c.4.Q Z n A W 2.j.n.K.P.W.L.c.i.:.Q T S 1 D ' v.T.'.T.R.XXoX+X.XA.[ J 7 y z c #.c l z +.+.+.z l j f d y y t ",
"y d d l j l k z o.l h l l z l t 7 F [ d.H.E.XX'.T.G.l.i.4.3.:.3.! Q Q >.j.N.Y.n.7.) R W ` >.] 3.u.G.R.].'.XX@X#X.XA._ S m g k k c c l z z z z @.o.l l l h h y e ",
"y y y k k l X.+.z l j j c +.l j i 4 U >.x.H.H.F.x.p.i.i.c.G.G.M.i.' / ( <.i.i.9.] ( / 1.h.G.Y.N.M.F.F.F.F.H..X.XA.[ H 9 V X.k x z c c z c k z z o.o.z l l h y y ",
"y y h j l j o.+.o.z z z c z z X.k r H W { t.s.t.} _ } i.Y.XXOX].H.x.r.{ ( ( Q ( ' | y.M.R.].].].G.d.r.| r.r.A.s.{ U 8 r ..o.o.k z c z c z z k k +.@.z z k h d y ",
"y y h j j k o.+.o.z z c z z z @.o.i  .H I T T T A Z R 5.F.E.XXE. XR.F.r.Q % % A ' d.H. XE.E.XXR.x.} T A T T R T Y m i V ..X.j j k z l l k z z z z o.z z o.k d e ",
"y i j j j l k k j l z z l g g l o.l f q 0 Z n m 2 1 Z _ t.M.F.x.D.F.x.1.T % % n / r.v.F.F.x.F.x.1.E 0 2 n 3 m 3 m V ....j j X.k k z z z l z z c @.@.z l j j d t ",
"f d l l j z z l g j l l l g f j l j f 9 u 9 9 9 9 9 m Y _ { | } 1.1.{ / A % % 1 T _ } | | } | { ^ m 9 9 9 9 5 u V V V o.y k k k l l z l h z z z x x z h k h k y ",
"d d j l z z c z j l l l l j g z o.j j j f V u u i j i m Z S A n A A Z S A Z Z A S S S Z Z A A A m m 9 r r V g V i V i y x y y j j g f f l c c z x z k x k x y y ",
"y d j z z z l l c z l l l l l z o.z z k j i u V V X.i q 8 8 , 8 < 8 < 2 0 H Z 0 m , , 9 2 2 8 8 m V u r V V X...i i i k z k k i g g f f h z z k k k k y k k y t ",
"d d j j z l d j z c z j j l l l z z @.z i y y u V V u 9 9 9 9 9 q 9 8 9 q V m q u 9 u i 9 u q u u i i u V X.X.i y y y +.k k k h g g j j d d h j k j y y y x h e ",
"e d h h g g g d d z z j j l l z z z o.z k i y u i i y u 9 u u 9 i i u i i i i i i V i V i i u u i u u u g ..f u f z h d o.@.k g y d h j h j d d h k k z z z h t ",
"d d j h h h g d d l z j l l z X.z k z z k k k j y k y r r u V u i i i V i V u i V V k V i u u i V V V i g j f i d c j f k @.z d e d d j l j d d h k z x z j y y ",
"d h k l h h h f g z z l z z z z z k k k z x +.k k k i t u V V i V V V i i i u V V V i i u u V V i V V y h h d h l c j g z c z g f d d l z l d d h k k z k h y y ",
"y j z d d h y f l z +.o.z z d z @.c z k z x o.o.l y y u r y y k i y u y y y i i y i y i i i y i i j i i l z l z z z l d l k z j j j z z c z l j z k h j j h y y ",
"y h j h h j d d l X.z o.z k g l c z z z o.z z j j j d f d d j z h g h d d g j h h j j j h g j l l g g l z z l z z l j l j j l o.z z +.+.z z z z z z g g h g y y ",
"y y d k k k l l o.l k z z z l l l h l z z l j g j l g j z z z @.z j l o.X.l k k k k l j j l k +.+.j l #.o.z c z l d j z l j l @.@.+.@.c j z c c z l l l j f y t ",
"y y j z c c k l o.k z z k l l j g g h l l l l z o.j j j l j l l X.z o.o.z z z z x z l j h l z o.o.l z +.z k z l f h o.o.j g o.@.@.z c c @.@.o.z l g h g h d t t ",
"y d k z c z k k k k l j h h l l l l l h l l l o.o.O.l l l l j g l l l o.@.z z z @.+.X.j h l k k g X.z z k k j f f j o.z g l l o.z l z c z o.o.z l l g g g i y t ",
"t h z x z z k k k l d t t d l z z l j l z j j j z +.l l c z l g g g j o.@.o.k k o.+.o.l l l l h d z o.z o.l d t u d z z h h j k l l O.l g l O.z z z h g h i y y ",
"y h z z z z k k k l h y y g l k j j j j z j j j l z l z z @.c j g j j l l l k z k l j l k k k y t l z k @.+.l g l z l l l k k k l j l g j o.z l z x z l h h y t ",
"t y k z z k k z z k l j g h l l j g j l j j j j g j j O.o.@.z j h l l h g g k o.j j g l z x k h f k k z o.@.o.z k k l j k z z k j j g j l o.z z x @.k h h h y e ",
"e y h k j h k z z k j k z X.j j j j l l j g g j h g j l l l l g l k l h d l z k h g g l k X.z z x z o.z l l o.z l l h h o.o.z z l l l o.@.l l #.@.z j d i y y e ",
"e y y k k y x x z k k k z z g j z z z j j h j l l g h l l h j j j k k j h X.x z j g h k z z x c c #.c l h h k k z z l l z z z z z c c @.#.z z z j h g g y h y e ",
"y y h h h y h x x k k k z X.d j z z z j j j l l j j j h g g h l k o.k l j k z +.j l k z @.c z z c @.c j h h l l z z k k j z z x c c #.#.@.@.+.l g g g d y k y e ",
"y y y h y y y k o.z k k l j j j k z z z l l l h l l h d g g l o.+.+.k j j j k +.o.k z x @.x k k z x z k k j j h l z k l k z c c c z o.z l c +.c c z l d h k y e ",
"y y h k k h y k k z z k j g j j l l z z l h h d g g j l l l l j k o.k h h y j z z o.z x x z k z z x z j k z k j h k l h z x c z z z z l f z +.z c c l h y y y y ",
"e y y x y y y h j k k l j g j j l z k k k l h h h y h l l l j g j l j j j y y k z z k x z z k z x x k h k o.X.j d h h j z z z k l z k h f z c z z c k h h y t e ",
"e y y y y y y y j j l k l h j h h k j l z k h l j f t t h h h g h j j j y y y k z z k k z z j j k k l g l k j j h d g g h l k k l z k j h k z z z l k h y y e w ",
"w e y y y y y k k j j h h k j h h l l l z k k k j y d d g h h h h j h h h y h x k k k k l h d d y j j h l l j j h h h h d j k h h k j j k z z z h g h i t y w ; ",
"w e y y y y x x k j y y l X.h h h l z z z k k z k h h h g h h h j h h h y j z x z k k x j t d y y h j h h l h j l l j h d h l h h l h l k z z z f t y y r t w ; "
};
