/* XPM */
static char *__resized[] = {
/* columns rows colors chars-per-pixel */
"80 80 223 2 ",
"   c #0C0727",
".  c #120C2A",
"X  c #13152C",
"o  c #16192E",
"O  c #170E35",
"+  c #181834",
"@  c #231136",
"#  c #1B2637",
"$  c #1F303D",
"%  c #2C2C2B",
"&  c #352E28",
"*  c #26302E",
"=  c #2C312F",
"-  c #34322E",
";  c #3C332C",
":  c #322E33",
">  c #253333",
",  c #2C3432",
"<  c #2D363A",
"1  c #26383C",
"2  c #2A3B3B",
"3  c #333432",
"4  c #3A3632",
"5  c #3B3A33",
"6  c #3B3739",
"7  c #34393A",
"8  c #3C393B",
"9  c #41362E",
"0  c #43382F",
"q  c #413631",
"w  c #453A32",
"e  c #4A3E34",
"r  c #453C3C",
"t  c #493E3D",
"y  c #2D423F",
"u  c #38423C",
"i  c #4D4136",
"p  c #454138",
"a  c #4E4239",
"s  c #514337",
"d  c #53453A",
"f  c #58473B",
"g  c #56483B",
"h  c #5B4B3D",
"j  c #604F3F",
"k  c #61503F",
"l  c #231D44",
"z  c #1F2F41",
"x  c #1F3142",
"c  c #252445",
"v  c #352649",
"b  c #283744",
"n  c #343C42",
"m  c #292B51",
"M  c #2E3453",
"N  c #35365C",
"B  c #363860",
"V  c #453E40",
"C  c #483F40",
"Z  c #4A3C61",
"A  c #274547",
"S  c #2D4444",
"D  c #29464B",
"F  c #2B4C4C",
"G  c #324244",
"H  c #364A49",
"J  c #38534C",
"K  c #2B4A51",
"L  c #2F5051",
"P  c #2D5453",
"I  c #2D5956",
"U  c #325353",
"Y  c #325B55",
"T  c #335C5B",
"R  c #395A5A",
"E  c #34635C",
"W  c #3B6559",
"Q  c #3D645C",
"!  c #3F446B",
"~  c #366561",
"^  c #386965",
"/  c #3B6C64",
"(  c #357364",
")  c #3C7367",
"_  c #3C7469",
"`  c #3D7A6C",
"'  c #386D76",
"]  c #3C7972",
"[  c #3C7D79",
"{  c #414244",
"}  c #4B4141",
"|  c #514542",
" . c #5E4E40",
".. c #514B4E",
"X. c #604F40",
"o. c #625141",
"O. c #695644",
"+. c #464766",
"@. c #575172",
"#. c #615372",
"$. c #426964",
"%. c #487569",
"&. c #417D6D",
"*. c #417E71",
"=. c #507674",
"-. c #3E827B",
";. c #438373",
":. c #488875",
">. c #41857C",
",. c #468B7A",
"<. c #538B79",
"1. c #4A927D",
"2. c #49997E",
"3. c #608D7D",
"4. c #3C7682",
"5. c #516C88",
"6. c #697788",
"7. c #73738C",
"8. c #767993",
"9. c #807993",
"0. c #428682",
"q. c #438A83",
"w. c #448E8A",
"e. c #4B9581",
"r. c #4D9C84",
"t. c #4B9B8D",
"y. c #559C85",
"u. c #448F9B",
"i. c #479693",
"p. c #679590",
"a. c #4EA189",
"s. c #51A286",
"d. c #52A48A",
"f. c #5CA68B",
"g. c #54AA8D",
"h. c #57B18F",
"j. c #4BA095",
"k. c #4DA499",
"l. c #55AD92",
"z. c #54AD97",
"x. c #57B193",
"c. c #59B494",
"v. c #5CBB96",
"b. c #56B299",
"n. c #57BA98",
"m. c #5DBC99",
"M. c #68A68D",
"N. c #67AB92",
"B. c #6CBA9C",
"V. c #73B898",
"C. c #479BA7",
"Z. c #7782A0",
"A. c #4DA8A5",
"S. c #51AEA3",
"D. c #53B3A4",
"F. c #57B9A5",
"G. c #59BBA5",
"H. c #53B4A9",
"J. c #56B9AC",
"K. c #59BEAB",
"L. c #4CA5B5",
"P. c #58BDB1",
"I. c #5EC39B",
"U. c #61C59D",
"Y. c #6BC59F",
"T. c #62C99F",
"R. c #5FCDA0",
"E. c #5CC3AC",
"W. c #5BC4B3",
"Q. c #5DC9B6",
"!. c #59C3BD",
"~. c #5ECBBB",
"^. c #65CAA1",
"/. c #64CCA1",
"(. c #66D1A4",
"). c #6AD4A6",
"_. c #68D8A9",
"`. c #6ADBAB",
"'. c #72D6A9",
"]. c #75D6AA",
"[. c #61D1BC",
"{. c #6DE2AF",
"}. c #73E9B3",
"|. c #75E8B4",
" X c #5FD0CA",
".X c #5AC7D7",
"XX c #5BCCDC",
"oX c #62D6C8",
"OX c #63DBDB",
"+X c #62DCE6",
"@X c #67E6E8",
"#X c #67E7F3",
"$X c #86889A",
"%X c #9190AB",
"&X c #A6A9BC",
"*X c #86D5AE",
"=X c #87DCB2",
"-X c #96DDB3",
";X c #84E3B4",
":X c #8CE3B7",
">X c #8CEBBA",
",X c #97E7BC",
"<X c #94EEBE",
"1X c #96F0BF",
"2X c #9AF1BF",
"3X c #A1F2BE",
"4X c #ACF5BF",
"5X c #BCF9BF",
"6X c #CAFDBF",
"7X c #D6FFBF",
"8X c #A8B1C6",
"9X c #92F2C1",
"0X c #96F2C1",
"qX c #9BF3C1",
"wX c #9DFAC7",
"eX c #A4F6C3",
"rX c #A2FBCB",
"tX c #A5F8CA",
"yX c #B9F9C7",
"uX c #A8FFD2",
"iX c #CAFDC6",
"pX c #D5FFC3",
"aX c #D2FFD0",
/* pixels */
"; & ; ; 0 0 0 0 w w 0 0 0 0 e 9 0 i w 0 i i e e e 0 0 0 0 0 0 0 e 0 ; 9 0 0 w 0 0 w e w w i s e w i e e 0 i i e 9 & & & 9 0 s e 0 w w e w e e e e e 9 9 0 0 9 & ",
"& ; ; ; 0 0 w w e e 0 0 0 w e e w w p 0 0 w e e 0 0 e e w 0 w e 0 0 0 e e e e w 0 0 0 0 w i s s i i s e i w w i e 0 ; ; 0 0 0 ; 9 w e e e e e e f e 9 9 0 e 0 ; ",
"& ; 0 0 0 i s s s e e 0 0 e e e w i i w 9 w s w 0 e e e i e e e e 0 e e j e e e e 0 0 w i s s s e s s i s i 0 i f f e 0 i ; & & ; w s s e e e e e f 0 0 0 0 9 9 ",
"9 0 e w w 0 i s s e e e e e e e i i i i w i s s e e 0 0 e e w i e e s f e e j e d i w s s s s f f i s s s i p i i e i i 0 ; * % % ; e d e s s e s e e 0 0 9 9 9 ",
"0 e i i e e i i s i e e e s e e i s s a s s s i e e 9 w s w q w e e e j j e e e s e w s d d s d f s f f s i p i i i s s i & * * , ; i f s e e s e e 0 e e 0 9 9 ",
"9 e i i s d s i i s i e e s e e s f s s g f s i e e s d d w 9 w e e e e e j j e e w 9 i d s s d f f f f s i 0 a s i i s s u , , 3 w s d s s s f f e e f e e 9 & ",
"9 e i s d f f s d g s w s s f s i e w w s f g a e s s t s e i d j e e e j e j e e e s t s s d f h h h f f f i s f s f f s i p p s d d d s s s d e e e e e e e 0 ",
"0 w s s f f f s a g s 0 i f s f a e q w s g g a s d s s i e a f f e e e f j j e e e d s s e d h f f h h f f s s f f f f s i 0 f h f f s s d s s e e e e e s e 0 ",
"0 i s s f s s s a s a i i s g s s d a i a g h s a a s g a a s g e e e j g s g f i i i s s i g g g g g h d g h g s f h f i & & g f g d s s g d i e p w w i i 0 ; ",
"e p s s s f w 0 e a s g a s h g s g a i s g f a t s f h g g s s f e e e g d s s i 0 q i a i s h k h s s a s h g s f g g i i p i s f i i s f d 5 e i i i e e 0 ; ",
"0 e a s s s p 0 w a g h d d g d s g g s g g g g d d h h h g f d e e e f s a i i a w w a s a g j O.h s a i a d d s s g g g g s 0 w s i a g h g i i s i i e w 0 ; ",
"0 e a i i s i i i s h h h d d d g d g g f f f h h j h g g h g g d e d f i i w e a a a s d d g h k g a a s s d d s g g d f h f s e w i g s g h h h s i i e w 0 0 ",
"0 e s s i i p i d g h  .g d d g f a a f X.h f g f h f g g g g g f e s g d e a i 0 i a a a i w w i w i s g j j g s s s f f s d s s a s g f g d d g g s i e w w 0 ",
"0 e s s s p i f h g h o.h d g h f a a g o.o.g s d d s f f d s g f d t g f e s d 0 p g s i w 0 5 0 i s g h j k h g f g f s s d d g g g g h s s s g g g i i w w 0 ",
"w e s g g a d k  .h k o.k h d d d d f j o.o. .g i a s g f e e a d e e s i w i s s a d h g d s g h g g h g s g h h j h h g d d h g s f g g s d h f d s i e i 0 9 ",
"w e a d d d h h g h h h h h h d d g h j j X. .g s a a s g i p a d d e s i e w e s h h h h f g g | h g g d d h d s h k h g d i d s i w q e s d e d d a i i i e 0 ",
"e e e f f g g g g h h g g g | h f g f f f h h f g g a s s d a s g g i i a a e w s h j j h h g g g g g g a s h s i h h h h s i i a i 0 ; ; s d p s f s i i i 0 0 ",
"w e s f f g t g o.h g s a d g  .f a i p s f h f g g s a a a s g h f i s g a a d d h o.j h g h f f d d f i i g s g h h h g d i i a s g a w d j h h h s i w i e 0 ",
"w e s d g g i d  .| g d g a g g f s i i a s f f g g g s a g g f h h i s g s d s d h k j h f i 0 w q q w 0 0 s g h g h h d d s i s g g a a g k o.k h g s i i 0 9 ",
"w e d f d g s s g g g g g g d g g s d d a s s f g g g g s h h g f h a a s g d s d g h f f s 5 = , , 3 , = 5 a h h d d h a a a d d g a a g j O.o.h f g g f s w 9 ",
"e e d g d s g s i s g g g g a g g a d  .j h g d g  .o.h s g h f g s i a e d s t d s d d s p u F P F L U D u p s h d d d s a d h d a s h j k O.O.h d f h h f w 0 ",
"w t s g d s g g d d g g g g g g  .g  .o.j h g g h  . .g s g h g i 0 - ; ; 4 ; ; 5 ; ; 5 5 u W ) ] ) ^ *.) W u p s d g g d d g d d a d h h j h h s i s f h s w 0 ",
"e e s s s d  . .k g g o.h g g f g  .o.o.j j h j o. .g s s a d f w - > > , , , * , , * % 3 J :.s.d.e.e.g.s.:.Y u 5 i d g d d g d d g f g d g s s a p 0 d j s w w ",
"e e s s s g s d h h h o.h g d g g X. .h h h h h h  .h s e i w q u J $./ ~ Q Q Q Q W W L E ;.h.T.^.c.v.^.U.d.%.S - s d d d d d g g g g g g d g g s i d h h s e 0 ",
"e e d d d d t s g g  . .h g d s g o. .g f h f h h h s w 3 % % , J :.N.N.t.p.y.M.M.M.y.:.,.d.I.)./.U.^./.B.d.` A = s g s s s g s s d h j j g g h f s h k f s e 0 ",
"e e e d d a s s d d g f g f g a g h h g g f f h f g i 5 > # > S %.V.:X=X*X*X*X*X*X*XY.V.c.c.U././.^.U.I.g.,.^ S 3 d g s g g d a p i g k k h g g f f f h f s s e ",
"e e d f f g g f | d g g f f h d s g d g g g h s i w 5 J $.$.%.<.V.-XyXyXyXtXtXtXrXwX1X>X].)././././.T.m.r.-.E 2 - s g f g g g a p a g g h o. .f f s f s f s e 0 ",
"e e f f  .g g g g g g g h j j g g s s d d g d s w - H %.N.B.B.V.-X5XaXaXaXyXtXtXrXrXwXwX>X|.)./././.T.v.r.` T 2 - i h g d g h d g g d d g  .o.h g s s f s s s 0 ",
"e s s g f g g h d h h h o.O.X.h f f s t e e e a 5 2 %.N.-X9XqXqX4X6X7X7XiXyX3X2X1X0XqXqX1X;X'./.R.I.^.m.a.;.~ S , i d g s g  . . . .d d d h k k h g g s i s i 0 ",
"e s s s s s g g h X.o.h  .o.X.X. .f d s d e w 5 H $.N.=XqXuXyXyXiXpX7X6XiX4X3X2X<X1XqXrXqX:X]./.I.^.^.I.h.r.;.E y 5 q i h  . .h g  .h g g k k h h k k s i s e e ",
"e e d a d d s g j o.j h o.o. .g g d | h f w 5 H %.M.=XqXtXyXiXiXpXpX6X6X4XqX2X<X1X1XqXeXqX>X].^.I.I.^.^.B.x.d.*.Y y 3 w d  .h g h  .h j h k k s h k k g i s s 0 ",
"e d g g  . .g g j o.h h O.o.a a s d j j d 5 2 %.N.:XeXtXqXeXyXiX7X6XyX4X2X<X<X2X2X2X1X2X<X=X).(.I.I././.T.U.v.d.:./ J 5 a g g  .h  .h h j j f s g h g s s i 0 ; ",
"a d g g g g g g h k j g h h s g h  .g i p y W s.].2XuXrX2X3X4X5X5X5X4X3X<X<X<X9XqXqX2X>X=X).(.T.U.T.T.).(.U.v.h.d.s.:.W u 5 i s d h h k k k h h h h g g f f i 0 ",
"d d h h g g g g h h g a d d h j O.o.e - y E ,.U.;X1XrXwXqX2X3XeXeXeX2X2XqX<X2XqXeX2X<X;X'.T.T.T.T.T.T.(.T.m.l.l.n.B.s.) y - 0 i s g g h k k h h h f s d f f s i ",
"g h h j  .g g h k d i a i a o.o.h s ; = F ` h.'.|.:X1X2XrXrXrXwX0X0X2XqXqXqXqX2X1X>X|.'./.R.R.(.(.(.T.T.m.c.g.g.g.h.2.%.y - 0 i g d i i g k h g s s d s i s s e ",
"f g h h h g g g h g s s a s h h g g 9 % A ` h.).{.].;X1XrXuXuXrXwX0X0XqXeXqXeXqX:X*X'._._._.{.`.).T.U.U.c.l.g.d.1.;.W u u p i f g g p p s g f h g d d s i s i s ",
"s g g g g s d g g s f f f g s d d a 5 3 F ` g.(.'.(.'.|.:X,X,X,X0X0XqX2X9XqX0X<X;X].T.I.I.v.I.^.T.(.U.c.l.d.l.r.;.E G 3 i s f f g g s d d g g h k g g d d p i 0 ",
"s s d d s a d g g e a j k f s g s e 5 J ) 2.c.(.{._.U.f.3.<.3.M.].;X<X>X:X;X=X;X|._.v.2.` ( _ ,.f.U.I.c.g.t.d.t.,.] Y u i f h k h h g g g g g g d d h h g s s 0 ",
"a a s s d a s f s 0 i f f g s e 5 7 J ` s.B.T.(.`.).h.&.F 1 b ~ <.Y.|.|.].).'.'.|.).g.) A # $ K &.g.v.c.d.r.d.g.k.k.q.Q u 5 0 h k k h h g h g s i i d g g s p 0 ",
"s a d d d s g g s i p i s d d 0 - 1 E r.T.).).(.T.U.y.Q v o X l R 2.T./.T.^.^.^./.v.r.$.b X . l F *.y.d.g.y.s.l.E.~.H.q.F * & i h k g h h g d i i d i g g s i u ",
"i i s g g g h h d d i d g d s 9 = 1 ( g.).{.`.U.r.;.=.=.9.#.v O # I -.g.I.(.R.I.2.-.%.p.7.@.v @ # K _ ,.d.d.d.x.E.[.P.w.L , - q i i i g k g p p s d f h f i w 0 ",
"i s f f g g j j d a d h g d e 5 - 1 ~ s./.}.{.h.( A +.Z.&X$X@.@ . # P ,.I.{.{.h.( A +.9.8X%X@.l   + D ) r.g.d.x.E.~.J.0.K , ; w p p s h k g d d d h h h h i i 0 ",
"i d h f d g j h a d d h d d p 5 3 2 E 2.B.`.{.g.I o v 7.8X8X6.m     # ) I.}.}.h.L + v 9.8X8X7.m     # E r.g.s.x.G.~.S.0.F , ; i p d o.o.k h g g k h g h f s w 0 ",
"s s d g g h h g g  .g a d h s w 3 2 Y ,.x._.{.h.T X @ Z $XZ.5.N .   # / I.}.}.c.Y o O ..8.8.5.B O   o T 1.c.s.l.G.Q.H.0.F , 0 a g g g k k k g d h k g f h s e w ",
"s d a d f h h g h o.g d s g f i 3 2 Y >.d.I._.c._ b O l N ! ! N # + b ;.B.}.{.c.) 1 X c N ! +.B l + b ~ r.x.g.x.K.W.D.>.F 3 0 s g k g h  . .k g h k d g h s s i ",
"d s s g h h f g g h h h d f h i 5 2 Y ` r.n.I.h.1.E 1 X   O l M M U &.s.I._.(.c.,.T x O   O c m M K T ] t.x.l.G.E.~.S.-.F , 5 s  . .g h k k k g g g g g s f s s ",
"a a s h j h h g i d j O.k o.j e - 1 Y *.r.l.c.l.g.1.T z .   . z U :.c.T.R.T.I.g.a.;.~ z .     + K %.,.e.d.z.F.W.~.~.S.[ F , 0 j o. .k k d g g d g h g p s s f s ",
"s a s f h h h g a d h o.O.O.k 0 - 1 T ,.l.c.g.g.g.l.>.I $ X o b _ l.`._.T.v.g.d.x.g.,.T x X X b T 1.g.d.g.l.G. XoXoXP.,.F = p k o. .g g g g g g k h g i i f f s ",
"s i s f f  .f g g h h g  .o.o.i - 2 ~ t.J.E.l.d.g.x.r.;.T D D E 1.m.`./.v.g.d.d.b.n.g.;.T A D E *.d.c.g.d.l.F.[.@X@X.Xu.F = 0 j o.h g g  . . . .o. .g i e d d s ",
"i s s f h X.X. . .g g g d g h i 3 2 ^ t.E.E.b.d.d.g.d.r.1.:.:.1.d.l.c.x.d.d.d.s.g.l.d.r.1.,.,.1.t.d.g.s.d.l.F. X@X#X.XC.F = 0 j O.k k h g  .o. . .h d a s w e i ",
"i i s g f  . .X.X.g g g g g h i 4 7 R 0.A.J.F.x.l.d.s.d.l.l.x.d.e.,.,.e.d.l.g.d.e.,.1.r.g.x.l.g.d.s.y.s.l.F.!.OX+XXXL.4.D 5 i g k o.k h g  .o. .h g a d s i e w ",
"i a s s g g f h  .g s d h h h a t { { ~ [ j.J.E.G.d.s.s.l.n.n.d.;.E ~ ;.d.m.v.s.;.~ ~ ;.d.n.x.d.s.r.s.d.b. X@X@X.XA.4.T { a g g j k g g  .h h o.h g g d s s e 0 ",
"e e s g g d h X. .g d g j k g g d } { n L ] k.P.K.z.l.d.g.x.x.r._ Y P ) 1.g.g.1.( I Y &.r.x.x.g.d.g.x.F.~.OX#X.XC.' H n a |  .h h j k h h h g h  . .h g g s e w ",
"e e s g d d h X. .h g h j h g h  .d r 6 < U [ k.F.F.b.x.l.l.d.e.` E Y E ) -.-.( E Y E &.r.l.l.b.b.b.W.oXOX+XXXL.' n 3 q a  .o.h h k h k h f g g  .o.h h h s i e ",
"e e i d g | h X.k h h o.h g | k  .t t C V n U ] j.J.Q.E.l.g.d.r.2.,.) E P A A P E ` ,.1.s.l.b.J.W.Q.oX@X#XXXL.' D n r t | | h g f h f f h h h h  .j h h h g i 0 ",
"e e s s d g h h g d g k d d a d d t r C C 8 n U [ k.F.b.r.r.d.x.n.b.r.` T F P ~ ;.a.c.x.b.F.Q.~.W.J. XXXXXL.' G 6 r } } a d g g h h h h g h h k o.o.h g g d i 0 ",
"i a d d g g h g a d g g g p p a a r V V t r 6 7 T [ q.-.] ,.k.E.[.Q.F.j.q.' [ q.k.K.Q.^.W.Q.oX~.H.i.i.C.u.5.L 7 q r | | t t s h g g h f f g h k k k h d s f e e ",
"p i g g h h j h d d g g g g d d s t V V t t r n H U P F P *.k.~.oX[.W.W.J.H.H.J.P.!.[.Q.~.[.oXW.i.^ I I I U { r r r C C C t w s d i p p f k k h j h f f f f s e ",
"i i g h h h g g k g g g g g d g d t a C t r r r 8 n b < S Q q.D.F.D.S.S.D.D.H.S.S.S.S.S.S.H.H.j.] F < 1 b G } a r r t t t e e s a a i p i g h g f f s s f f s w ",
"i i d g g g i d k k k a d g g g g g | t r r r r r 6 : : < H ^ [ -.-.-.-.>.0.q.0.>.[ [ [ [ -.-._ U n : % 4 r } t r t t t s d d a i a d d i s s f d d e s s j s 0 ",
"0 i s s a a a i s h g g d g h h g h g s r r r C r r r 6 6 8 S F F F D F F F K F K F F F F F F D G 8 r r t t t r V a p w g X.h i e i s d d d a e s f g h f h s w ",
"i i d s s s a i i g h g d g h h h h g f t t C C p C r r 6 6 7 < 2 < 7 < 2 < < 2 < < < < < < < < 6 r a a | C V r p a i w h o.j e 0 i a d g d i i s g h j h g i e ",
"s s f d s s a a s g g g g g g h h g f f d s | } C V r r 6 r r 8 8 8 8 6 6 6 6 6 r 6 6 6 6 7 6 6 6 t } } C C V r p g a a f k h a p i a g h g a a s g h h f s i e ",
"e s h s i i e e g  .o.h X.g a h o.X.g g  .g d C V r q q 6 8 r t t t r r r t t r t t r t r r t t r } t r r t r t d  .g a g f h d d s f j  .h g s h f s d s i e e ",
"e s s s s s i s f  .| X.h f a g  .h h h  .g a i p e 5 8 r r V | } t C t t C C C | t C C } C } | } C } a a a a d g g g g d d g h  .h k k g h j g  .g a s d a e e ",
"e e i f f h f g  .f f h h h f g d d f h h g a i s s e p } } } | } r C C } C C C t C C t r t t } } V p g  .g f g s a d | g d g o.o.o.o.j g h j j g g g g d e e e ",
"w e d h k h g f h h h h f g g s s a s g g d g g  .g d a e r r t a a } p t a a a s t t e e r a s } t a g g g  .s i s  . .g a h o.o.h j j o.o.k h g a s a a e e q ",
"e s f h k k f f h g g d s s g g g g d d g g  .g  .| g a a i t e t a s d f d s s f f d t e t s t t s s g g g d t e s  . .a g g  .h g h j h  . .h g g s a a a w w ",
"w s h h h h g f f d e w e s g g h g d d g g d g h o.g g h g g a a e s  .X. .g f h j  .d d d g a i f h f  .g t w e d g | d s d f g g  .g a g  .h h h s a a e e e ",
"e d h X.h h f f g f d e e t g g g d d g g g d d d g h j h O.h s a s g g g s g h g d d d f  .f e w g h g X.X.f d g g g g g f h f a g a d d  . .g h X.h g s d e w ",
"w e f g g f f h j f g s a s g g a a d g g d d d s g g |  . . .s d g g s t s f  .d s d g f j f s i g h h X.o.j h f g g s g  .f f g g p g  . . .g X.o.g s s a e w ",
"9 e d g f s f h | g g f h g g s d g g d d a a d a a a g g  .g s g g g s s d f h d a a g f | h h h h j h g g h h g g s a  . .h h g g g  . .g g  .X.h g a e e w 0 ",
"0 e e f f e j j f f f f  .g a g h h h s d s d g d a s g g s s g f f f d s f  .h d a g h h h j k o.O.j g d a g h h g f f h h h h  .k  .o.O.k h g d d i p e d e 0 ",
"e e e f e f f f j h f f  .g i s k j h g d d d d d d d s a a s g h h f d d g h j g s g h o.k h h k o.k d d s s g h h g f d f h j k k o.o.o.o. .g d a a a e f e 0 ",
"e e e f e e e j  . .f f g d d g d g g h g g f d g g s a a s g h X.X.f d s d f X. .f h j o.k f f f j h f f d d d f h g f f j k j h h o. .g h k k k h g i e s e 0 ",
"e e e f f e e e d f  .g d a a d g g h h g d s s a s d g g g g g h h f d s t f h  .h h h j h h h j j h d f h f d s f d s f j j h h h k g p h k h j k f s f e e w ",
"w e e j e e e f d f f | d s s d g g g f f f a i i i s s g g g i f f d d e e f e h h j f h h f f h j g d g h  .e i d s d g  .h f g k g s i g k g k h g s s i w 0 ",
"9 e e e e e e e d d d  .d d d a d g g g h f s f a e e i a s s a e f d d e e e j h h h f h h d d f h g a g h d d a s s s s g h f g g g d s g k h h g g s i w q 9 ",
"9 0 e e e e e f f d e e d f s d s g g g h f g f d i i i a s s a d s d d f e e j h f f f g s i i e d d s g g s d d d s s a s f d d g d d g h h h s i a i w w 9 ; ",
"9 9 e e e e j j f f d e d f d s s f h f h f f h g i s s i s s s s s s e t d f j h f f h s i w i e s s s d g s d d d d s i s d s a d d d h h h g i w i w w w 9 & "
};
