/* XPM */
static char *__resized[] = {
/* columns rows colors chars-per-pixel */
"80 80 224 2 ",
"   c #07031B",
".  c #0C0727",
"X  c #150B2C",
"o  c #0E132C",
"O  c #15172C",
"+  c #140D32",
"@  c #181833",
"#  c #231335",
"$  c #1B2638",
"%  c #1F323C",
"&  c #24272A",
"*  c #2D2D2C",
"=  c #362D27",
"-  c #332E2B",
";  c #2B312E",
":  c #35322D",
">  c #3C332D",
",  c #292D36",
"<  c #253334",
"1  c #2B3333",
"2  c #2B3737",
"3  c #2A373C",
"4  c #273A3B",
"5  c #2C3B3C",
"6  c #343333",
"7  c #3B3634",
"8  c #343A35",
"9  c #3C3B34",
"0  c #343539",
"q  c #393538",
"w  c #333B3C",
"e  c #3E393B",
"r  c #41362E",
"t  c #43382F",
"y  c #413730",
"u  c #453A32",
"i  c #4A3E34",
"p  c #453C3C",
"a  c #493F3C",
"s  c #33423D",
"d  c #3A443E",
"f  c #4D4136",
"g  c #424138",
"h  c #4E4239",
"j  c #514337",
"k  c #53453A",
"l  c #58473B",
"z  c #56483B",
"x  c #5B4B3D",
"c  c #5F503F",
"v  c #604F3F",
"b  c #61503F",
"n  c #1F1C41",
"m  c #221D42",
"M  c #1E3641",
"N  c #282648",
"B  c #253D44",
"V  c #2A3C43",
"C  c #363B44",
"Z  c #342D50",
"A  c #313258",
"S  c #3B3D64",
"D  c #463E40",
"F  c #483F40",
"G  c #2E4544",
"H  c #284548",
"J  c #2B4C4D",
"K  c #354747",
"L  c #324B4B",
"P  c #34534D",
"I  c #3B554C",
"U  c #2F4A52",
"Y  c #2C4C52",
"T  c #2E5354",
"R  c #2F5957",
"E  c #325655",
"W  c #325A55",
"Q  c #395857",
"!  c #325C5A",
"~  c #2E665B",
"^  c #34635D",
"/  c #3A665C",
"(  c #3B4167",
")  c #365D64",
"_  c #346461",
"`  c #366A62",
"'  c #3A6D64",
"]  c #366768",
"[  c #377767",
"{  c #3C7266",
"}  c #3D756A",
"|  c #3E7A6C",
" . c #376C73",
".. c #3C7B75",
"X. c #434042",
"o. c #4C4241",
"O. c #514641",
"+. c #5E4E40",
"@. c #4B5452",
"#. c #604F40",
"$. c #625141",
"%. c #695644",
"&. c #4E4F6C",
"*. c #574B6C",
"=. c #4D6F6D",
"-. c #47786A",
";. c #417B6D",
":. c #417E71",
">. c #4B7D71",
",. c #3F827D",
"<. c #43806E",
"1. c #438475",
"2. c #498377",
"3. c #458976",
"4. c #468B7A",
"5. c #4A8D7B",
"6. c #538876",
"7. c #45947A",
"8. c #4A927D",
"9. c #55927E",
"0. c #3D7F89",
"q. c #535E81",
"w. c #5C6485",
"e. c #717487",
"r. c #727997",
"t. c #847F99",
"y. c #428786",
"u. c #408982",
"i. c #4B9681",
"p. c #4E9C84",
"a. c #48968A",
"s. c #599784",
"d. c #509E84",
"f. c #418894",
"g. c #499C97",
"h. c #4FA187",
"j. c #51A186",
"k. c #52A48B",
"l. c #5BA58C",
"z. c #54AA8E",
"x. c #4DA79C",
"c. c #55AE92",
"v. c #52A994",
"b. c #57B193",
"n. c #59B494",
"m. c #5BBA95",
"M. c #55B299",
"N. c #59B699",
"B. c #5DBC99",
"V. c #68AD91",
"C. c #6DB496",
"Z. c #73BB9D",
"A. c #76BC9D",
"S. c #4DA8AA",
"D. c #52AEA1",
"F. c #55B5A5",
"G. c #59BBA5",
"H. c #53B4A9",
"J. c #56BAAC",
"K. c #5ABEAA",
"L. c #4EAAB5",
"P. c #54BAB5",
"I. c #5EC39B",
"U. c #5FC89D",
"Y. c #61C59D",
"T. c #62C99F",
"R. c #7BC29E",
"E. c #5DC4AB",
"W. c #5CC3AC",
"Q. c #5BC4B3",
"!. c #5DC8B7",
"~. c #5FCCBB",
"^. c #64CCA1",
"/. c #69CDA3",
"(. c #78CAA6",
"). c #66D3A5",
"_. c #6AD3A6",
"`. c #6CD6A9",
"'. c #6BDAAB",
"]. c #74D9AC",
"[. c #7BDAAE",
"{. c #60CEBB",
"}. c #6EE6B1",
"|. c #74E7B3",
" X c #72E9B3",
".X c #54B8C7",
"XX c #5DCCC9",
"oX c #59C4D6",
"OX c #61D4C5",
"+X c #63DBD8",
"@X c #67E3DF",
"#X c #5FD6E3",
"$X c #62DCE6",
"%X c #67E6ED",
"&X c #68E8F0",
"*X c #9395AA",
"=X c #979BB1",
"-X c #81C8A5",
";X c #87D3AE",
":X c #8ADBB4",
">X c #88E7B7",
",X c #8CE9BA",
"<X c #94EDBD",
"1X c #99EABC",
"2X c #85F1BD",
"3X c #96F1BF",
"4X c #9AF0BF",
"5X c #A8F4BF",
"6X c #B6F8BF",
"7X c #CFFDBF",
"8X c #9BA9C0",
"9X c #A9AEC3",
"0X c #8DF4C3",
"qX c #95F3C2",
"wX c #9CF3C2",
"eX c #9DFAC8",
"rX c #A7F9C7",
"tX c #A3FBCC",
"yX c #B9FBC6",
"uX c #A8FBD2",
"iX c #C8FDC5",
"pX c #D6FFC2",
"aX c #D5FFC8",
"sX c #C7FCD2",
/* pixels */
"> = > > r r t t t t t t t t i t r f u r f f i i t t t r t t t t t t r r t t t t t u f t f t j f i f i t t f f i r = = = r t j i t t i i i i i i i i r r t t r = ",
"= > > r t t f i i i t t t t i t u f u u t i i i i t i i t t t i i t t t i i i i t t r t f f j f i f j f i f t f i t r > t t t r t u i i i i i i i l r r t i r = ",
"= > r r t i j j j i i t i i i i f u i u > i j i t i i i f i i i u u i i l i i i i r r u f j j j f j f j f f t f l j f t t f r = > u j i i i i i v i t t t i t = ",
"r t i u t t f j j i i i i i i i i f f f u f j i i i t t f i u f i i l l l l l i j f f f j j j k j f j j f f f f f f j f i t = r r t k k i i l i i i i t t t t r ",
"t i f f i i f f j f f i i i i i f k j j j j k f i i y u j u y u i i j j i l i i j i u j k k j k l j j l j f g f j i j j j t > > > y k l f f j j i i i i i i r r ",
"r i j f k j j f f j f i j j j i j k j j l l j f i i h k k u r u j j i i l l l i i y r j k j j k x x x l j f t f j j j j l j r r u f l k j f j k i i i i i i r = ",
"> u j j k l l k k k f u j k j j f i u u j z k f i j j j h i i k j f i j l l l l i i h i j j k l x x x l x j f f l j l l l j j j x l k k j j j k l i i i i i i t ",
"t i j j k l l k k z f u f k l j h i y u j z z h j j j h f f k k j j i j l l l l i h j j f j k l l l l x x l j l l l l x j i t v v x l j k j k f i i i i i i i t ",
"t f j h k k f f f h f f f k k k k k f i k z z k h h k k j h k k j j a k k k l l f f f k k f k l z k z z z z l z j l x l f = > k l z z j j z k f g f u i f f t r ",
"t f h z k f f u i f j z f k x k h z h h j z x h f j k x x k h j j i i j x k f j f t u f h f k x #.x k k f j l z j l z z f f f t j z f f j x z > i f f u i i r > ",
"t f f h k j f t u h z x k k x k j z k k k z l k k k z x x z z k f h j k j f f f f u 9 f j f z x $.x k f f j z z j k l z k x k t u j f i j l z f f j f f i t r > ",
"r i f f f f f f f k x x x k k k z z z z l l x x v x x z x x l z h i k j f f t f f h f j k k l c #.x f i f j z f j l k k x x x h i u f z z z x x l j f f f u r r ",
"t i j f f f f f k z x +.z k k x x h f k x x x k x x z z z x l z k j h z z f f f u f k h f i u u i u > : : r i h k j z l f k k k f f k z l z k z l z j f i i y i ",
"t f j j f f f h x z x $.x k z z k h f z $.#.x k j k z k l k k k k j f k z i f k t g k h f i y r u > - 1 2 8 u h k k l l f f h x z k z x x j f j z z z j i u u t ",
"t i j z k h x z c x c +.c x z h j z l v $.$.+.k f f h z l i i f k j i f f u f k k h z x k k h h f g K Q ! Q s g j x x l z k k c l k k l z j k l l k k f f f t t ",
"i f f k z k z c z x x x x c z k k l v v v #.x z k h f k l f g h k k f i f u u f k z x x x x j f g @.>.s.l.7./ d d f z x l f f k k f u u u k k f k k h i i j i t ",
"t f f k k x z z z x z k z z +.z z z z l l l x x z z a f k h f h z j u i i g y y f x c x x k i 8 s -.V.;X[.Y.5.^ s > f l x j f f h f r > > k z u z x h i i f i t ",
"i i j l x k h k #.c z z h k z x z f f f j z l l z z k j f f k l x z u > u u y y t f f h j i : ; J 9.-X4X0X].v...E 1 u z z k f f f k z h u k x c x x k f i i t r ",
"t i j k z z h k +.z k z k k O.z z f f f f j l l z z k k k z z l x j : * * * * * ; * : : > : & $ H 6.(.,X2X'.c.1.Q 1 y x k h h f k k z k f z $.$.b x k j f f t > ",
"i i j k k k j j z z z z z z k z z k k h h j k l z z z k j z z j j g 1 4 H 4 4 B 4 4 5 5 5 4 % 4 H -.n.`.`.B.i.{ P 1 u x h h h k k k h h z c $.$.x l l k j j i r ",
"i i k l k j z h f k k k z k h k z h k +.c x z h k x %.l u r y > > d / 6.i.>.=.>.<.>.>.>.;.{ / ^ ' 7.n.I.n.7./ L s 9 f z k f k x k h k x b b %.%.x k x x x j i r ",
"i i k k k k z x k k z z z x k k +.z +.$.#.x x x x $.#.k > 6 1 & 5 I 9.Z.(.A.Z.Z.A.R.R.C.V.j.7.7.j.n.I.m.8.{ G 8 f f k z k j z z k f k z x x x x k f f x v j t t ",
"u i j j k k z +.c z x $.c k z x z +.$.$.c x x c $.b k i 8 K H B P 6.R.1XtXwX1X1X1X4X4X,X]./.I.I.Y.).).n.8./ 2 9 f f h h h k z k k z k k z z k f f g t k v i i i ",
"i i j j k k k k c z z #.c z k x x #.+.x x x x x x l t 8 I 2.s.5.s.A.1XyXsXyXyXrXtXtXtXwX<X>X|.'._.'.).m.p.{ s 8 u > > > u f k z z z z l x z k x j f k x x j i t ",
"i i k k k k h j z l +.+.x l k h z #.+.z l l x x k f 6 I 6.Z.;X-X;X1XyXiXaXaXiXrXtXeXeXeXeXqX>X[.).).^.Y.b.8./ P s s 5 8 9 i j k k k z x c z k x j j x x x j f t ",
"i i i k k h h h j z x l x l k h k x x z z k l l f 8 G -.Z.qXtXuXrX7XpXpXpX7XiXrX4X<X<XwXrXwX,X].^.U.Y.Y.Y.n.8.` J T R W d d f f u f x c b x x k x x x x l j f t ",
"i i k l z k z k O.k k k l l x k k z z l l l f > 9 @.6.V.:XwXuXyXiXaXpX7X7X7X5X4X3X<X3XwXrXrX,X[.^.U.U.T._.Y.8.^ J ^ 1.8.-.P : > i h z z x $.x x j l l l l j j t ",
"i i k x x z x x z z z z x $.x x k j j k k j u * G >.C.>XwXeXrXyXiXpXpX7X6X5X4X4X4X3X3X4XwXwX,X].^.I.Y.^.`.T.d.` T [ j.n.3.I ; 9 g z z z z $.$.x l k j j j j j t ",
"i j j l l z x x z x x x $.%.+.x l l j i i i > & P s.:XtXuXrX5X6X6X7XiX6X4X4X<X<X3X4X4X4X3X,X[._.T.Y.T./.`.).z.<.` <.j.j.<.I 8 g k c k k k x b b x z l f j j i t ",
"i j j j j j k z x #.#.x #.$.#.+.+.l k k k i > & K 9.;XtXuXwX4X5X6X6X6X5X4X4X<X<X3XrXrX4X>X;X_.T.T.Y.Y.^._.).m.j.3.<.;.{ I g f f x x z z l c b x x c c k f j f t ",
"i i k h k k k z v $.x x #.$.+.x l k O.x l f 9 ; E 9.-XqXtXtXwXeXwXwXwX4X4X<XqX<X4X4X4X,X[.`.).).)./.^.T.^.^.I.n.k.1.^ G 8 f z z x x c x x c x l x c c z j j i t ",
"i k z z +.+.z z v $.b x %.$.h h k k x #.l a d L -.l.(.>XeXtXtXtXeXeXqXqXwXwXrXwX4X3X,X[.]._.).).).)._.T.Y.B.B.B.c.1.T < > f x x x x x c b x x k z z z k j j t r ",
"h k k z z z z z x $.x z x x k z x $.x j g d W <.z.T.T.].,XeXtXuXeXeXqX3X4X4XwXwX3X>X]._.^.).'.).).).^.U.N.b.c.b.z.1.! 4 - i x k j x c c b c x x x x l l l j j t ",
"k z z x z k z z x x z h k k x c %.$.x i : s { j.Y.'.).)./.(.-X(.;X:X<X3X3X<X<X3X,X>X].Y.n.z.z.7.n.I.U.U.m.z.k.z.k.1.^ 4 ; i x j f z z x c c c x x j k l x l j f ",
"z l c c #.x z x b k f f f f $.$.x k f g * G | z.). X}.T.d.-.Q @.6.V.[.2X2X>X[.[.:X|.}.I.,.~ H J / 7.n.I.m.z.k.k.k.1.! V 7 i l k k z f f l x x l f f k f f j j f ",
"z l x x z z z z x z k k f h x x z k f f ; s [ z.). X'.N.-.V & O 3 ` s._.'._././.T.'.).z.,.s O O < ^ 3.z.b.v.k.c.k.1.! G : i l k z j f g j l x x z z k j f j f t ",
"k z l z k k k k z j k x l z k k k x z i * s ` 8.Y.^.n.8.=.&.m + O M [ 7.I.I.T.^.I.m.z.3.=.&.Z # X % ! 3.i.k.c.b.k.1.W 4 : i l x x j k k j j z x x z k h k j f t ",
"j j k k k k k z z i j v c l k z x x x h & s ` j.n.z./ =.e.*Xt.*.m o M ~ 8.n.).'.Y.7.' =.e.=Xt.&.N + $ W | a.n.n.k.1.J 2 9 j x $.x x x z z x x z z x z c z h f f ",
"j j j k h f j l f u i z z z j z k k k g = s ,.n.m.,.B V e.9X9Xr.A . o % [ n.}. Xm.[ B Z e.9X9Xr.A o . $ ! 5.N.N.k.3._ H 8 r f l c c x x x x z f f k k z z j g g ",
"f f h k k k z z f f f f j k k j f u 9 9 s / 7.I.m.[ $ # *.*X8Xr.S +   O P b. X XY.` O # *.*X8Xr.S + . o U 3.n.n.v.p.4.{ L 6 : i z x z z c z j f f f f z z j f > ",
"f f h z z z x x z f f k z k j f u > 8 s ^ ,.b.).B.<.< + N *.w.q.( n . @ ^ z.}. XT.;.% X m *.w.q.( m + @ Y 5.b.z.k.M.D.g...G * > t f f z b x f g j z x x x j f t ",
"f k z x z z c x z h k c x f g f f : 5 T | h.m.).B.3.T $ + m N A A A , Y <.n.'.}.Y.3.E $ + n Z A A N N V ` 7.z.z.k.G.W.J.a.! < : = f j x c x z h z z x x x f t t ",
"f k x l z z b x h h k c k h f h h > s R 3.k.B.I.N.d.:.T $ + . X m U ) 3.z.Y.)./.b.p.;.U $ o . + N A T ' 2.p.k.j.k.G.{.Q.g._ < : g j b b x x x z x x x x x f t t ",
"j k k k z l x x z c z h k z k k f 8 5 T | p.b.b.z.v.k.3.T @ . . $ E 8.B.`.^.Y.b.z.z.k.:.T @ . . @ Y ;.d.k.k.k.p.v.K.{.K.a.^ 1 > f z c x b c z z z c j z x j f t ",
"k f f k l x l l z +.z f j l x x f 9 5 ! 1.p.M.k.k.c.N.d.} J $ $ V } c._.'.^.b.z.k.c.N.k.:.U , $ B _ i.c.b.z.k.k.M.{.OXoXg.) < > g x z x c c c k c c k z x j j f ",
"k k k l x x l z z c +.x k l x c z : s ! 1.v.N.k.k.v.z.z.i.| ^ ! } i.b.^.^.b.z.k.d.c.N.c.i.| _ ^ { 3.p.c.z.k.k.v.J.+X&X$XL.] < > h c x x c c c c z z z k j l j j ",
"f f k x x x x z f k +.%.b b c l i > 8 J { 5.k.k.k.k.k.k.k.p.j.k.p.p.p.d.k.k.k.k.k.d.d.p.p.h.k.j.h.k.k.k.d.k.l.F.{.$X$XoXg.! ; u z c c z k z z k z z z h j j l j ",
"j f j l x x c z f z #.$.$.%.b k f f g s P -.u.d.d.k.k.k.c.b.N.B.c.i.:...1.p.c.N.z.8.:.:.5.v.N.N.b.c.k.k.d.d.c.F.!.XX.Xg. .K 9 x c c c z z z z k c c x g f l l j ",
"j f j l l +.l z z x x k +.$.$.x +.+.j y 8 P } 4.h.k.k.k.k.z.c.b.j.<.^ R } p.N.B.k.<.^ ! } p.b.b.z.k.k.h.p.h.c.W.Q.S.y._ K u z $.%.x x c c c #.#.#.#.z h i j k j ",
"f j j z x +.#.+.x x z z z z c x +.$.z 7 * G _ 4.v.N.z.j.j.k.c.c.j.,.! R ^ 3.7.p.4.{ R ! } i.c.z.k.k.j.k.h.k.G.OXXXD.] < : i +.$.b b x z z z #.#.+.z k h f i f i ",
"f f j z l +.+.+.+.z z z z z x z z $.O.u : 5 _ a.G.E.b.j.d.k.k.v.j.3.| ` ^ ` ~ ' ` ^ ^ } 3.p.k.k.j.d.p.j.k.M.~.@X+XL.~ % : a +.$.b b c x z x #.#.x z h k f f t i ",
"i f f k z z l +.+.z k k z +.x k z #.+.p 0 H ] x.K.!.N.k.p.k.k.k.k.k.h.4.' T B H J ^ :.p.k.k.k.k.k.p.j.k.v.K.+X&X%XL. .B 0 h O.z x b x z #.c c #.c z k k j j f r ",
"i f j z z k l #.+.x k z +.c z z x x O.F C K ) ..x.F.G.N.M.c.k.k.h.z.z.8.;.^ H H R [ 8.z.z.j.k.v.v.c.M.K.~.+X$X#X.Xf.) C e o.O.k x c c c x x z x +.#.x z z j i i ",
"i i h z k k #.#.+.z z z #.c z +.v k k F F D K ! ..g.H.W.K.N.k.k.h.k.b.k.8.| { / | 3.d.z.k.h.z.M.J.G.K.XX@X&X#X.Xf.) K D X.O.z k l c x x x x z l #.+.x x x k f i ",
"i i j k k l #.#.c z c c z x +.+.#.k k F F F p 0 J ..x.P.F.k.p.p.k.k.z.k.z.k.k.z.k.k.z.k.k.k.M.K.Q.Q.Q.!.$X#X.X0.Y 0 e F O.O.O.h j x l l x x x x c c x x x z f t ",
"i i j k k O.l l k z z c z k k O.x a a F O.a p 7 G ! :.a.i.3.4.v.G.W.E.E.E.W.Q.E.E.E.E.G.G.G.!.{.OXJ.D.g.S.L.f.) w 7 a O.o.o.h h l x x x l x x c $.#.x z k k f t ",
"f f k k z z x z k k z z z h g k k a p p F o.a p C K ! ^ ! ! ;.g.Q.{.!.!.~.~.{.{.!.!.!.Q.Q.!.OXOXXXx..._ ]  .) K p p a O.F F a j z z z z j z x c b b x l j l j i ",
"u f z x x x c z k k z z z k h x x a i a o.p a p a p C 3 < 3 Q u.D.Q.P.H.H.H.H.H.H.H.F.H.H.F.J.Q.M.y.! 3 < 4 C e a a F a h a u a h h f f z x c x v x k l x l j i ",
"f f k x c x z x c z z z z z z x x z z j a e D D a a q , 1 0 K ] ,.a.u.u.u.u.,.u.u.u.y.y.u.u.u.u..._ G * ; 6 e p p p a F a i i a f h g g j x x z x l j j l l j t ",
"f f k z z k f k c c +.k k z x z x +.+.k u p p p a a p e e e C L R ! R R R R R R R W T E R R ! ! E K C e p p o.p p a a a h k k f h k k h f h z j k k i i j v j t ",
"u f j f f f h f f x +.k k z z x x x x x i a p p p F p p p y e 0 3 3 3 3 4 3 3 3 3 0 3 V 3 3 , 3 V 0 p a k o.o.p p o.p u z x x f f f k k k k f u j l l x l x j t ",
"f f k j j f h f i z x k k z x x x x x x l k j a F F p p 7 p p q q q q q q q q q q e q q q 0 0 6 6 e a F o.o.D D X.h i g z $.x f > f f k z z f f j l v x x k f i ",
"f j l z k k f a j z x z x x x x x x x x l x x k a a p e e p p p a h a p p p a p a F p a p p p p p F F a a a p D g k f f x b x h f f h z x z f h k z x x z j f i ",
"i k x f f j i i z +.#.+.x z h z $.x x l #.#.x k a p y 7 e p D D o.o.F a p a a a a F F a F D F F F F F a a i a a h z k f k x l k j k x x #.x z k x l f k k f i i ",
"i j k j j k f f l +.+.+.l l h z +.x x x c x z k f f g f g p g o.o.p a D p F a a a a a o.a a o.o.o.o.D o.h h k k k k k z k k z +.x x c c x x x x x z h k k f i i ",
"i i f l l l z l x z z z l +.z z k k k x z x k h k z h h k h h O.h p a h a h a a a a a a a p a h o.p h O.k z v x z f k z h z z $.$.+.%.c k x $.x x z z z k i i i ",
"i i k x x c l z l x x x l z z k k h k z z z z x z z k k f h h a h k h k j k h j k k i a i i k k k h h z k x x k f k +.+.z z +.#.$.x x $.+.+.c x k k k h h f u y ",
"u j l x b c l l x x l k j j z z k k k k z z z x #.+.O.z k k h i h k z z x x z z x x k j h j k k h k k k z x k f g h +.+.k h z +.x z x b #.#.#.x z k h h h f u u ",
"u j l v x x l l l k a u u f k x x z k k z z x k +.#.z z #.x z h h h k +.#.+.+.l x $.x z k z l j f x x x x x a y i h x x k k k l x z c z k z +.z x x k h f a i i ",
"i j x x x x x l x k j i i h z x z k k k z z k k h +.z +.c #.c k j h k z z j z l x x z z x x l a u z x x #.#.z k k z z k k k x l z h h h k +.+.k x #.x z j j i i ",
"u i l x x l l x +.z k h j k x k k h k z z z h h h k z z +.$.x k j z z k h j l +.k h h z x x l i f z x x +.$.x x z x k k x x x l z k h z x +.+.z x $.x k j j i t ",
"t i k l k j l x l z z k +.x k k k k z z h h k k k h h z z z k k k x z j h z +.l j h h z l l x +.x x x x z x v x z z k j +.+.x x z z z +.$.O.z $.#.x k h i i u t ",
"t i i l k i x x x l l l x x j k x x x z k h h x k h h k z k k k l l l j j +.+.l k h k l x x x c $.b b z k k z x x l z k l x x x x c $.$.%.c z x k h f f i k i t ",
"i i i l j i l v v l x l x O.h k x c x j k k z k k k k k h h k z l x x z j z x +.z k z x b b x c c %.b k j j k z x x x l l l x v c c $.%.b b +.z k h h f j i i t ",
"i i i l j i i l l +.x l k k k z z x z x z l l k z z j f f k z l #.#.x k j j l #.x x x v b b x l x v x l l z k k z x l k l x b b x c +.c x c b x c x z h i l i t ",
"i i i l j k i l l x x z k h k k l l x x z k j j h j k z k z z z l x l k h h z x x x x v v x l x x v x k l l l k j l k k x v b x x z c z f x b x c b z h l i i u ",
"t i i l l i i j k z z z k a k k k z z z x l f f f f f k z z k f k z k j k i j l x x x l x x l x x v x j k x +.i f j k k z x x l z x z j f z c z c c k k f i u t ",
"t i i i i i i i k k k +.k j j h k x l k x l j l j f u i k j k f j k k k i u j l x v v l x c j j l x x f k x z j h j h j k l l z z z l k k z c x x z z j i i t r ",
"r t i i i i l l z k j j k z j k f l l l x l k x k f i f f j f h j k k h j i l l x l l l z j f f j k z h k z k k k k j j f j l j z z k k k x x x j f f f u u r > ",
"r t i i t i l v l l i i z l k j k l x x x l l x k f k k f j k j j j j f h j l v x l l l h t f f u j k h k l j k k k k j f j l j h z j z z x x x f u f u u u r = "
};
