/* XPM */
static char *__resized[] = {
/* columns rows colors chars-per-pixel */
"80 80 226 2 ",
"   c #05031F",
".  c #0B0124",
"X  c #0F0825",
"o  c #140B28",
"O  c #14152C",
"+  c #111132",
"@  c #131234",
"#  c #1C1536",
"$  c #171A35",
"%  c #221B38",
"&  c #1A2536",
"*  c #1D323A",
"=  c #232B2E",
"-  c #2C2C2B",
";  c #362D27",
":  c #332E2B",
">  c #34322E",
",  c #3C332C",
"<  c #282E30",
"1  c #2C3232",
"2  c #273638",
"3  c #2B3B3B",
"4  c #303030",
"5  c #333433",
"6  c #3B3632",
"7  c #343935",
"8  c #3D3A33",
"9  c #353438",
"0  c #3D3739",
"q  c #333B3B",
"w  c #3C3A3B",
"e  c #41362E",
"r  c #43382F",
"t  c #423731",
"y  c #453A32",
"u  c #4A3E34",
"i  c #443C3C",
"p  c #493F3D",
"a  c #2C413F",
"s  c #34443D",
"d  c #3B443C",
"f  c #474035",
"g  c #4D4136",
"h  c #4E423A",
"j  c #514337",
"k  c #53453A",
"l  c #58473B",
"z  c #56483B",
"x  c #5B4B3D",
"c  c #604F3F",
"v  c #61503F",
"b  c #1E1840",
"n  c #201D45",
"m  c #1E3C41",
"M  c #29254C",
"N  c #243D43",
"B  c #2C3F42",
"V  c #283849",
"C  c #383C41",
"Z  c #352D51",
"A  c #342E51",
"S  c #463E41",
"D  c #493F40",
"F  c #423556",
"G  c #2A4747",
"H  c #2C4444",
"J  c #26424A",
"K  c #29454B",
"L  c #2C4C4D",
"P  c #324444",
"I  c #354948",
"U  c #35534B",
"Y  c #2F4152",
"T  c #2D4C51",
"R  c #354853",
"E  c #2D5352",
"W  c #2D5A55",
"Q  c #2F5E5C",
"!  c #355257",
"~  c #325455",
"^  c #335B55",
"/  c #3B5B54",
"(  c #335D5A",
")  c #34635D",
"_  c #3A655B",
"`  c #3B4965",
"'  c #346362",
"]  c #396966",
"[  c #396C64",
"{  c #3B7166",
"}  c #3B7967",
"|  c #3C746B",
" . c #3E7A6C",
".. c #3C7979",
"X. c #454042",
"o. c #4B4141",
"O. c #524641",
"+. c #5E4E40",
"@. c #5E5041",
"#. c #604F40",
"$. c #635141",
"%. c #695644",
"&. c #42476A",
"*. c #5D526F",
"=. c #454D71",
"-. c #447A6E",
";. c #5D6671",
":. c #427D71",
">. c #467E77",
",. c #557472",
"<. c #3C806D",
"1. c #3F877B",
"2. c #44816E",
"3. c #438474",
"4. c #4B8675",
"5. c #458A76",
"6. c #468B7A",
"7. c #4A8D7B",
"8. c #598E7B",
"9. c #49927E",
"0. c #48947C",
"q. c #5A927E",
"w. c #62917F",
"e. c #3D7A86",
"r. c #6D7484",
"t. c #6D708F",
"y. c #408783",
"u. c #418A83",
"i. c #439086",
"p. c #4B9781",
"a. c #4E9C84",
"s. c #45928B",
"d. c #4B9B8A",
"f. c #509F85",
"g. c #5C9C88",
"h. c #469894",
"j. c #629C85",
"k. c #4EA386",
"l. c #51A186",
"z. c #52A48A",
"x. c #54AA8E",
"c. c #5AA98C",
"v. c #4EA89C",
"b. c #55AC92",
"n. c #53AD98",
"m. c #57B193",
"M. c #59B494",
"N. c #5CBB96",
"B. c #56B39C",
"V. c #58B69C",
"C. c #5BBA9A",
"Z. c #6BA28B",
"A. c #66AB93",
"S. c #65BA99",
"D. c #75BD9E",
"F. c #6493A8",
"G. c #50AFA8",
"H. c #56B6A3",
"J. c #58B6A0",
"K. c #59BCA6",
"L. c #56BAAC",
"P. c #59BEAB",
"I. c #4DAAB8",
"U. c #5FC29B",
"Y. c #5FC99E",
"T. c #61C59D",
"R. c #68C49E",
"E. c #62C99F",
"W. c #78C09E",
"Q. c #5CC3AE",
"!. c #5AC3B2",
"~. c #5EC9B6",
"^. c #5BC5B9",
"/. c #5ECABB",
"(. c #67C9A1",
"). c #64CCA1",
"_. c #7BC6A4",
"`. c #65D3A5",
"'. c #6BD4A6",
"]. c #6BD7A9",
"[. c #6BDCAB",
"{. c #75D7AB",
"}. c #7ADAAD",
"|. c #68D3B8",
" X c #70E7B2",
".X c #7AE3B3",
"XX c #73E9B4",
"oX c #51B1C2",
"OX c #5CCFDA",
"+X c #61D3C6",
"@X c #62D9D8",
"#X c #5ED3E2",
"$X c #62DDE6",
"%X c #67E5E6",
"&X c #68E8F2",
"*X c #9196AE",
"=X c #A1A4B6",
"-X c #82C9A5",
";X c #86D6AE",
":X c #86DCB2",
">X c #89E5B6",
",X c #89E6B8",
"<X c #95E9BD",
"1X c #94EEBE",
"2X c #94F0BF",
"3X c #9BF1BF",
"4X c #A5EBBB",
"5X c #A4F4BF",
"6X c #A9F3BE",
"7X c #B9F9BF",
"8X c #CDFDBF",
"9X c #AEB7CC",
"0X c #9BEBC3",
"qX c #8CF5C2",
"wX c #96F2C2",
"eX c #9BF3C2",
"rX c #9CFAC7",
"tX c #A2F5C3",
"yX c #A9F7CA",
"uX c #A3FCCC",
"iX c #AAFACF",
"pX c #B5FAC7",
"aX c #C6FDC8",
"sX c #D3FFC3",
"dX c #D9FFC4",
"fX c #D0FED0",
/* pixels */
", ; , , e e r e r r r r r r u e r g y r g g u u r r r e e e r r y r e e r u r r r y g r r g j g u u g u r r g u , ; ; ; e r j f r u u u r u u u u u e r u r e ; ",
"; , , , r r u g u u r e r y u r r g y y e u u u r u u u u r y u y r r r u u u u r r r r u g j j u g g u g g g g u r e , e r r e e u u u u u u u u u e e r r e ; ",
"; , r r r g j j j u u r u u u u g y u f e u j u r u u u g u u u u r u u u u u u y r r y g j j j j g g j j g r g l l u r f r e , , y j u u u u l c u u r r u e , ",
"r t u y r r g j j u u u u u u u u g g g r g j u u u r r u u y g u u j l c c u u z g y j j j j k j j g j j g f g g g g g u e , , e r j k u u u u u u u r r r e e ",
"r y g g u u g g j g u u u u u u g j j g j k k g u y r y g y t y u j j j l u u l k u t j k k j k l j j l j g y g j u j j j r ; e r r k l g g g g u u u u u u e e ",
"r u j g k j g g g g j u j j j u j l k g l l j g u u g k l y , y u u u u u c l u u t r g k j j k l x x l j g r g l u j j l j e e r g k k j g j k u u u u u u e ; ",
", y j j k l l k z k j y j j j j g u y y j l j h j h g g g u g l l j u j j l l u u u j u j j k k x x x l x l f j j j j l x j j j z x k k j j j l l u u u u u u r ",
"r u j j k l l k k z g y g l j l k y t t g l z k j k k g g u h z l u u j l l l c u u k j g j z z l l z x l l j l j c l c j u r c v x l k j j k g u u u u u u u r ",
"y g g g z k j g g h g f g z k j k h g g g z x h g g k k h g k j j j u l z j z l g g g k j g z z l k l x l l x z j c l l u , , j x k l l g l l g u g y y g g r , ",
"y u g z z j u y u g k z h j z z h z k g k z z g g h z x x z j k j u u k z k j g g r t g h g k x +.z k k g j x z j j l l j u u r g l g g j l k , u g g u u u r , ",
"y y g z g g y y y g z x k z z z k z k j l z z l k l x x x x z j k u u k k g g g g y y g g j k v %.x g u t r u u u k l l z z k y u g u g k x l f g h g g u y r , ",
"r u g g g g g f g k x x z z g z k z z z z z z x x x z z z x z z u u k k g g y u g h g h j l l x $.z g y > - - > e j k k x x z j u y h k k l z v x j g g u y r r ",
"r u j j g g g g z k x @.z g z z l h h z x x z l x x z z z z x z l k h z z u g g y g h h g g y f u u y 6 a G G H 7 r j z k k k k g g k z z k k z z z g g u y y r ",
"y u j k g g g z x x x @.x z z x l g g z $.$.x j k k k l z j j z k k g k z u g k y f z k g y t , r 8 y d X.-.:._ L s g j g h k k k l z x x l g j z z z g g y y r ",
"y u g l h g z x x x c @.c x z j k k z x $.$.$.z g g h z z g f g k k u g g y g k h g z z z z k g g , d { j.D.R.c.} U s r g k k x z k z z l j k z z l j g u g u r ",
"y u g l z z x x x x c x x x z z l l c c c #.x z h h g k z g f g k u t t r r r r g g g j j j z g t > I 8._.1X,XR.0.{ P > u g g k k g y y y j k u j z h g u g u r ",
"y u k k l l l z z +.z k z +.O.x x z z z z x x z z j j j j j j k k r > > ; : ; - > y t 8 8 f k j 8 < T g.:XrXqX].b...L 1 f g g g g g r , , k z y z x h u g g r r ",
"u u u l l l h k @.x l h h h k +.z g g g j l x l z z j j j f g l g 6 = & = = = = = = < < 1 > h z u - G 7.(..XXX(.d.:.L 1 y g g g g k z h y k x @.x x k g u g r r ",
"y u k l l l h k @.x k k k k k +.z j g g g j l k z z z g f f f f f s ! ( ( ^ ! / / / / _ W P d r y 7 ^ p.N.).).z.3._ a 5 y g g g h z k k g x $.$.c z l g g g r e ",
"y u u l k k h k k +.k k z z k k z j k h g j k l z z z g , > ; > d { g.Z.c.g.g.g.j.g.j.l.0.[ s > 7 U 2.x.C.m.k. .~ P 8 y f g h z k l h h z x $.$.x z z l j g u e ",
"y g j z k h l h g k z k k z h k z k k x x x z k l x x f 1 < * 2 _ j.;X>X:X;X;X;X;X;X;X}.S.0.) a U -.m.E.N.l.3.( a 8 f g g g z z k h k x v v %.%.x k z x x k r , ",
"u g j l k k z z j z z x +.k l z O.z +.$.v x x z l l g d ~ _ ] ] q.-XyXpXiXyXtXtXtXrXeXwX.XS.2.[ } x.E.T.f. .) J 1 , g z h z z x k g k z x x x x k g g z c j u e ",
"y u g k j k x x v z z $.x k z z x $.$.$.v x x v j g s &.8.A.S.A.-X4XaXfXaXaXpXiXuXuXuXrX2X}.S.z.x.E.).c. .E K 2 7 8 k z h k z k z k k l z z k g g g r k c j y u ",
"u g j j k k l z x z x $.@.z k z x #.@.x x x z z f s / q._.<X0X0X4X7XsXdXsXaXpXtXwXwXrXtX3X>X{.E.E.`.T.0.) G J H 3 f j k g g h l z z z z z l z z j g k x x j u r ",
"u u j k k h k j l z x c x z l k z v x x l l g y d U q.W.,XiXpXpXaXsX8X8X8X7X6X3X1X1X2XtXtXwX.X{.`.`.E.l.} Q T 3 7 g l g , 8 r g k k z x v x l z k k x c x j u r ",
"u u u k k h h h k k x x x z k g k x x z l g , s / 8._.1XeXyXpXfXdXdXsX8X7X5X3X3X2X2X3XtXtX2X>X{.Y.).E.S.x.5.[ H 1 z l r > > 8 f f g z x v x x l l l x x x j j u ",
"u u k l z z l k k k k z z z x l h k l x z r : H >.D.0XuXrXtX7XaXsXsX8X7X5X1X1X1X3X3X3X3X2X>X}.'.Y.Y.E.'.`.N.7.^ 7 y r d U U s d y g z z x v c z k j l k j j u r ",
"u u l x x z z x k z z z x +.x x l k h k z , - H >.-XyXiXeX3X5X7X7X7X7X5X1X1X1XwX3XrX3X2X>X}.'.E.U.E.`.[.[.E.x.-.G 7 7 U 2.3._ d 8 g g z z c $.x z j j l j j u y ",
"u j j z z z x x z +.x x $.%.#.x z l h g u , - a ,.D.eXiXrX3X5X5X5XtX5X3XwX3X1X3X3X5X3X>X{.).E.E.E.E.E.`.`.E.N.p._ H H _ x.c.5.U 7 t g h l x v v x z z j j j u y ",
"u u h k j j k z x +.@.x +.$.#.x x l k g y > 3 _ 7.D.<XuXuXuXuXrXrXeX3XwXwXeXeXeX3X1X,X.X].`.`.`.`.`.E.E.T.U.N.z.7.{ { 5.m.x.2.G 1 u z z z v v x x v x z u j u u ",
"u u k h k l k z +.$.x x $.$.+.x z l k u 8 s ^ 5.c.R..X2XrXuXiXrXrXwXwX3XwXtXtXeX1X:X{.'.`.`.[.].'.'.E.T.N.m.m.b.z.p.p.9.0.2._ d y h x +.x x x z x v v z j j u r ",
"j k k k x $.k l +.$.$.x $.$.k h k k u t 3 ^ 7.M.E.`.'.}.>X3X3X3X2X3XwX3X3X3XeX3X>X}.).T.Y.E.E.E.E.).E.N.x.z.z.z.z.x.a.3._ s d g x x x x v c z j z z z l j j y e ",
"g h z x +.z k z x v v z x x k z x +.h , 3 ) f.E.[. X`.S.g.w.j.Z.W.:XqXqX,X>X>X>X>X X).x.<.<.{ 5.l.N.T.C.x.a.z.z.z.a.3._ 3 8 f g z z c v v v x x x x j z l l g r ",
"z z z x z z k z x x z h k k x x %.$.g 5 2 ' f.). XXXE.9._ 3 Z R 4.S..X.X.X{.'.{..X[.E.0.W * * K [ f.M.C.b.k.z.z.p.6._ a > y l g g z z z x v v x x l k z l l j u ",
"z z x v x x z x v k g g g g $.$.x k y , 2 ( a.T.[.`.m.>.R % o @ B  .N.).).E.E.E.E.E.m.>.L % o # V ' 9.x.z.x.m.z.6.] G 4 g z z j j z f f z x x z g g z g j j j u ",
"k z x x x z z z x k g k h k x x z k y > 2 ) 0.U.N.k.4.,.r.*.Z # $ J  .k.N.`.`.E.x.9.>.,.r.;.F % @ V ( 5.d.b.M.z.6.' H : g z z z z z f k j z x x z z z g g j u u ",
"k l l z z g k z z j z z z z z z z z u 5 2 ) z.U.k.) U ;.=X=Xt.Z + O H | x.`. XY.6.W T r.*X9Xt.F + @ m ( 6.b.C.z.5.[ H > f z z x z z j k z j z x x x k k h k f u ",
"j j k k z j k z z u j v v z j z x x g 6 3 _ x.U.1.m % *.=X9X*XF @   O E 0. XXX`. .m # *.*X9XF.=.@ . O J 3.b.C.x.6.[ G > g x x v x x z k z x x z z z x z z h g f ",
"g j j k h h l z g y g l z z j z z z u , 2 _ x.T.5.N O Z t.F.t.=.n .   G 0. XXX[.:.2 o F t.*Xt.=.M . o N :.m.C.b.6.[ G > y g j x v v x z z x z h g j z z z j f r ",
"j g h k k g z z g g u g k g z h g g y > 2 _ x.N.f.T % # A ` =.` M # & ) k.[.XX[.7.B # # M F &.` M $ & T 3.b.C.x.6.[ G 4 r r t k z v z x v z j h g g g z z j f r ",
"g g h z z z x x z g g z z k g g g h y > 2 _ 0.M.x.-.V $ + @ # M V A ' 6.M.[.[.T.f.[ K $ + @ b M A V T | 9.b.m.z.6.] P 5 y g g f f f f z v z h f j j x x x j u e ",
"g k z z z z v x z g k c z g g g k k g 8 3 ) 6.x.m.f.| K $ . . $ V -.l.N.E.(.U.M.z.9.| K $ . . # V ( :.p.z.z.m.z.5.[ G > y k k g f f j v v z k h z z x x x j r e ",
"g l z z z z c x h h z x z g f h k x h , 3 ^ 3.p.m.C.p.{ V O X & ! 9.).[.`.T.m.z.b.b.a.| V O X & T ..a.m.x.z.b.x.6.] G 1 f k g k k k v %.v x z z x x z x x g u e ",
"j k l k z z x x z @.k h z z k h k @.k d 3 E  .p.m.C.b.6.] K J E  .b.`.`.T.m.z.z.b.C.m.i.] L J T ] p.b.m.x.b.V.B.d.| G - f z x z k k z x v v z k v v l z x j f r ",
"z g g k z x z z x @.x g g l x x x x j y 2 E 3.p.b.m.x.z.p.5.:.3.p.x.M.M.m.x.z.z.z.b.x.k.9.3.<.5.9.z.z.x.z.b.Q.P.v...G - f z x z z z z x @.@.@.z x v k k l j j j ",
"j j k l x x l l k x c x k l x v v x j t 3 ^ 6.b.B.n.z.z.b.m.m.m.z.9.6.9.a.z.b.z.p.9.7.a.x.M.M.m.b.z.f.f.z.b.~.^.G.<.U - g k z z v @.v x @.@.@.z z z z k l j j j ",
"g h j x x x x l g z @.%.v v v k g x j 8 3 ) h.P.(.H.z.z.z.m.m.m.6.{ )  .p.V.C.m.9.| )  .p.m.M.m.x.z.z.p.a.b./.+XL.1.L - y k c v @.@.v v z z z k z z k k j l x j ",
"j g j l c x c z g z v @.%.%.v k g v j 8 2 ( s.L.!.J.z.l.z.b.m.b.5.) E ) 6.z.m.z.3.) E [ 9.b.m.x.x.z.l.f.k.n.Q.L.v...L : f k c %.$.v z z z z z k v v z f j j l j ",
"j g j l x x x l l x x z x $.$.c +.@.k 8 7 ! >.h.v.x.d.z.z.z.b.z.6.[ W ) { <.3.3.[ ( ( | 9.b.x.z.z.f.z.x.b.n.v.h.y.' I t k l +.$.$.c z k c @.+.+.#.+.l u u j k j ",
"g j j z x +.+.+.x z z z k x c x +.$.k y i I ! ] ..p.f.x.z.z.z.z.a.9.2.[ ) E L E ) { 3.p.a.z.z.z.f.f.z.b.J.G.d.| ! R X.u k l $.$.$.v c x k c $.+.#.x k h g g u u ",
"u g j z z +.#.#.+.z z x k z x k k $.k g k S C G ' 6.b.m.z.z.f.z.x.x.a.:.( J N G ) 5.f.x.b.z.z.l.f.f.b.!./.L.u.W 9 C p l l l #.#.v $.v x x x @.@.x z k k g u u y ",
"u g g z l l x x +.z k h z c x z k x +.k O.p 1 N ) d.K.K.b.l.a.f.b.m.z.0.} W W )  .9.b.b.b.k.f.a.l.x.K.+X$XOXh.T = i k O.O.+.+.+.v v x z @.x @.@.+.z z h j j u r ",
"u u k l k k O.#.@.z z k @.c k k x z k o.O.i 9 B ] h.!.Q.b.z.f.z.z.x.z.f.9.5.5.7.p.k.z.x.z.z.a.z.x.B.^.$X&XOXh.! < 0 p O.O.l z x x v v x x x z x +.+.x z l j u u ",
"u u u l O.k +.#.@.x x x @.c k @.O.h o.o.D i w P ' u.G.P.J.b.z.z.l.k.z.z.z.x.x.z.x.z.z.k.a.z.k.z.J.^.@X%X#XoXe.R 9 i p h o.O.l z x v x v x z z x $.$.+.x z l u u ",
"u u k k l l +.+.x x x @.@.z @.@.x h D O.D p i I ~ ' u.v.P.Q.J.z.f.p.a.z.z.x.x.x.z.z.a.a.a.z.z.v.+X%X&XOXI.e.` I 0 i o.o.o.O.O.k l x l k x c x x x x x x x l u y ",
"u u k k k l l l k z z @.k k f k l p S D D D h o.w P ( 1.v.!.P.b.z.z.z.z.b.x.z.b.x.z.z.z.z.b.B.!.@X%X#XI.| T P p h p o.o.o.o.k z x x x x z z x x $.$.x z k l u y ",
"f g k z z z x z h k z x k h f g k i i S S o.p p t 9 B ( u.v.H.H.J.J.V.H.V.B.H.J.J.J.H.B.B.P.+X@X$XOXI.e.Y 4 t p o.o.o.o.D p h z z z x z k z x v v c x k j l u u ",
"g g k z x c v z k z z z z z k z k i S S S f p i D D C B Q 1.v.!./.|./.~.~./.~.~.~.~.~.Q.~.+X&X&X#XI.e.T q i p o.p p S D o.i y h k h f f l v v x c x l l c l j u ",
"y g z z x c z z c x z z z z z z l h h D S i i i p D i 9 3 ( y.H.^.!.P.L.L.L.P.L.L.L.L.K.L.^.@X#XI.e.R 1 0 p O.h i i D o.p p u g h h f f g z x x l l j l j c j y ",
"g g k z z k g z c c x h k z z z O.l k p i i C i p p i 0 5 H ' u.h.h.s.s.s.s.s.s.s.s.s.u.s.h.I.v.e.! 9 : i l O.p i i p p p h h g h h k k g j k k l k u u j l j r ",
"f g j j g g h g h x +.k k z x x x l l h p i i p p p p t 9 w I ! ' Q Q Q Q Q Q Q Q Q Q ( ( Q ' ' ! C C i p O.p i i o.i 8 k x x g u g h k k k h u j l z z x z j y ",
"u j k j j g g h g k z l k z x x x x l l p p D D D D S i i 9 q B H H B B B B B B B B V B B B V B B w p p o.D S i f o.f y z @.x g y g g z z l g f j l x c z l g u ",
"g j z k k k g h h z x z z x k @.+.l l l u l O.O.S S i i i i i 9 5 9 5 9 9 5 9 9 9 9 9 9 9 9 4 5 9 i O.D D D C S X.h g f z v x h y g g z x z g g k z x x z g g u ",
"u k x j g g u g z x +.+.+.z f x #.#.l k +.+.p D S 0 i 0 0 0 i i i i i i 0 i i i i i i i i i i i i p p p p p S h h z k g l z x z k k x x @.x l l z z g l l g u u ",
"u j l j j k g j x +.+.+.+.l h z x x x x x x g f p u 8 i i i D O.o.p p p p p D p D p D O.p D o.O.D D S h p p p k h z k k k z k x @.x v v x x x x x x g k k g u y ",
"u u u l z z k l z l k l l l z z z z z x x z g g u h f i p X.o.O.o.S o.o.o.D D p D D D p p p o.O.O.S S O.k k l k h f k x k k x $.$.@.$.v z x c c x z z z k u u u ",
"u u j z c c z l x x x x x l k k k k k k z z z x z h h g p i S i X.h o.h p p p p p D p i i i h h D S p k k l x k g k x +.k k O.@.$.x v v @.@.c x z h k k h g y y ",
"y j x c c x l l z x z k h k k z z z h k z z z x +.+.+.h g g p u f g h h l k k h x l u u u p p u p u k k k l l u y z @.+.k k x @.x z x v c @.c x z k h h g g y y ",
"y j l c x x z l l k g y y g k x z z z h z z z k x $.z z x z h g g u g x x l k l x x l k h k k p u k l l +.O.u y u h x z k j k z z z @.z h z @.z x x k h g p u u ",
"u j x x x x z x x l h u u h z z z h k z z z z h z O.z z x @.x g g g k k z h l l l l k k l l l u t k x x +.+.z k k z z z l l x k k z h h k x @.z x $.z k k k u y ",
"y u l x x l x x x z k h h k z z z g z z z z g z k h k +.x @.@.k k k z k g h l +.k k h l x +.l u g l x x +.+.+.x z x k k z x x l k k h k @.@.@.z c v x k h g u r ",
"e u k l l u l x x z l l x x l k k k k z h h z g k h k z x x k k z x z j g z x x k u h l l l l +.x x x x x x +.x l z k k +.x x x z z k @.@.z z @.v z k g u u y r ",
"u u u l l u l l c l l l x x g k x x x k k j k z k h k k k k h k l l l k k l x x k h l l x x c c $.%.x z k k z x x z z z x x z x @.v @.$.%.@.x x z j h g j j u r ",
"u u u u j u l c x l x l z z g z x v x k k j z z z k k h k h j z l x l l k l +.x k k l x c c x x v $.v z h h j z z x x l l z c c @.v %.$.@.@.@.k h h g g u l u r ",
"u u l u l u u l x x x l z k k l z z x x z z l k k k j g h k z x #.#.x k h j l c +.l x c v v x l x x x z l l k k l x l l l x v v c x @.@.z c @.c v x z g u j u r ",
"u u l l u l u l l x x x z h h k z z z z z z j j g k l z z z z l l x l k h h l x x x x x c c l x c c x k l l l g g l l j x c v x x x v k g x v x v v z j l u u y ",
"r u u l u u l u k l x z k h j k z z z z x l g g g u j k z z l g l l k k u u u l x x x x x x x x x c x k l x x k g j g z z x z l z c z j g z v z v x l h g u t r ",
"e u u u u u u u k k k l k k k h k z l l x l j l j g y y g j g g u l k k u u u c x c c l x x j k l x x g l z l h g j g z z z x l z z z j j z x v x x l k u u r e ",
"e r u u u u l u l k k h k l k k k z l z x l l z l g g g g j j h k k k u l u u c x l l l z j g g j l k g k l k k l j g g g j l j j z k k z z x x h g k u u y r , ",
"e e u u u u c c l l u u k l h h k z z z z z z x l g k k g j j k u k k k u k l c x l k x j u u u y j k h k k k k l k k j g g l j j z k k x x x x g t g y y t e ; "
};
