/* XPM */
static char *Group_6_resized[] = {
/* columns rows colors chars-per-pixel */
"80 80 203 2 ",
"   c #2F5216",
".  c #335C18",
"X  c #37631B",
"o  c #39661B",
"O  c #3D6D1D",
"+  c #3F711F",
"@  c #3E7320",
"#  c #3F7922",
"$  c #426D1C",
"%  c #4B6E19",
"&  c #41751F",
"*  c #4C731B",
"=  c #43781F",
"-  c #4A7A1E",
";  c #5B7215",
":  c #567518",
">  c #557D1B",
",  c #5C7D19",
"<  c #646E0F",
"1  c #797A0E",
"2  c #667B15",
"3  c #737C11",
"4  c #417620",
"5  c #457C21",
"6  c #497E20",
"7  c #9C6E00",
"8  c #807D0D",
"9  c #9E7100",
"0  c #927F07",
"q  c #A37500",
"w  c #A77800",
"e  c #AB7C00",
"r  c #B17D00",
"t  c #4E801F",
"y  c #56851E",
"u  c #5D831C",
"i  c #7F820F",
"p  c #678117",
"a  c #6E8215",
"s  c #658319",
"d  c #6A8619",
"f  c #658C1C",
"g  c #6C8C1A",
"h  c #758313",
"j  c #7A8713",
"k  c #758C15",
"l  c #748E18",
"z  c #64921E",
"x  c #6B921C",
"c  c #7A9417",
"v  c #74931A",
"b  c #7AA219",
"n  c #478122",
"m  c #498423",
"M  c #478825",
"N  c #4C8A24",
"B  c #528420",
"V  c #528B23",
"C  c #559024",
"Z  c #639120",
"A  c #85840F",
"S  c #8A830C",
"D  c #8F8B0E",
"F  c #948409",
"G  c #948E0D",
"H  c #9C8908",
"J  c #87900F",
"K  c #94920F",
"L  c #9B930E",
"P  c #9C9B0D",
"I  c #868B11",
"U  c #839515",
"Y  c #8B9413",
"T  c #879A13",
"R  c #959510",
"E  c #939D11",
"W  c #9A9E12",
"Q  c #A58604",
"!  c #AF8100",
"~  c #A58D07",
"^  c #AC8C04",
"/  c #B38400",
"(  c #B88500",
")  c #B68900",
"_  c #BB8C00",
"`  c #AA9107",
"'  c #A3940A",
"]  c #AB9509",
"[  c #A59A0C",
"{  c #AB9B0B",
"}  c #B59503",
"|  c #BE9101",
" . c #B59906",
".. c #BB9A04",
"X. c #B59C08",
"o. c #85A215",
"O. c #97AC12",
"+. c #94B114",
"@. c #A0A30D",
"#. c #AAA30E",
"$. c #ACAC0D",
"%. c #B7A70A",
"&. c #ABB00C",
"*. c #B4B60E",
"=. c #B8BB0D",
"-. c #C08E00",
";. c #C49400",
":. c #C89600",
">. c #C59A01",
",. c #CB9C00",
"<. c #D29E00",
"1. c #C4A402",
"2. c #CEA101",
"3. c #C6A803",
"4. c #CEAB01",
"5. c #C2A609",
"6. c #D4A400",
"7. c #DAA600",
"8. c #D4AB02",
"9. c #DCAC00",
"0. c #CDB002",
"q. c #CFBA06",
"w. c #CABB08",
"e. c #D3B301",
"r. c #DDB201",
"t. c #D5BC01",
"y. c #DBBC00",
"u. c #D4B60B",
"i. c #E1AD00",
"p. c #E3B300",
"a. c #EBB600",
"s. c #E5BB00",
"d. c #ECBC00",
"f. c #F2BC00",
"g. c #B2C60E",
"h. c #CAC607",
"j. c #DDC200",
"k. c #DDCB01",
"l. c #D9C50B",
"z. c #D5D006",
"x. c #E4C301",
"c. c #ECC100",
"v. c #E4CA01",
"b. c #EACB00",
"n. c #ECCA08",
"m. c #F3C300",
"M. c #F9C500",
"N. c #F4CB00",
"B. c #FECD00",
"V. c #E5D200",
"C. c #ECD400",
"Z. c #E4DA02",
"A. c #EDDC01",
"S. c #F3D300",
"D. c #FED300",
"F. c #F3DB00",
"G. c #FEDC00",
"H. c #F4D90B",
"J. c #E5CE14",
"K. c #EED115",
"L. c #E1E105",
"P. c #EDE101",
"I. c #EEEA03",
"U. c #F2E300",
"Y. c #FEE300",
"T. c #F5EC00",
"R. c #FEEC00",
"E. c #FDE30B",
"W. c #F6EF0F",
"Q. c #F6F300",
"!. c #FDF400",
"~. c #FFFC00",
"^. c #FFF40A",
"/. c #FFFC0C",
"(. c #F6E015",
"). c #FFEC16",
"_. c #FFF512",
"`. c #FFFE15",
"'. c #FDF21F",
"]. c #F1D831",
"[. c #FBEA25",
"{. c #FFF621",
"}. c #FEEB3C",
"|. c #FFFC33",
" X c #FFF73A",
".X c #DDC546",
"XX c #F8E543",
"oX c #FFF549",
"OX c #FFFB4A",
"+X c #FFF451",
"@X c #FFFA5D",
"#X c #EEDA6F",
"$X c #FFF472",
"%X c #FFFC73",
"&X c #FFFD7B",
"*X c #FFF680",
"=X c #FFFF83",
"-X c #FEF68C",
";X c #FFFA98",
":X c #FFFDB3",
">X c #FFFBBA",
",X c #FFFCC5",
"<X c #FFFBD3",
/* pixels */
"  X & O O + + & & O O + = = & + + & 4 & O O + 5 4 & & & O O O $ @ 4 4 & O 5 & O X O @ O @ + + & & O O & 4 4 = & + & 4 & O O & 5 4 4 4 4 O O O $ @ @ 4 O 4 4 O . ",
"o O & & 4 5 + + + + + 5 = & = + @ 4 & & O O 4 5 & + & + 4 4 5 5 5 4 4 O & 5 5 5 5 4 & $ 4 4 + + + + + = 4 4 = & + & 4 & O O & 4 4 @ $ @ @ 4 5 5 5 5 4 O O 5 4 O ",
"= = & = 5 5 @ O + & = n 5 5 5 5 4 5 4 + & 5 5 4 @ + O @ 4 n N N M 6 4 O & 5 m N N n # 6 5 5 @ + + = = n 5 5 4 4 4 4 4 O & 5 5 4 @ @ O & 4 M M N N 6 4 O 4 5 5 4 ",
"& = m N N 5 & & = = = n m m N M m 5 4 O 5 m m m m 5 m m n n n m N m m 4 & n m n n n n m m n 4 4 = & & n m N N N m m 4 O 5 m m m m 5 6 m 6 6 6 M M m n 5 4 6 5 4 ",
"O 4 n m m m m m m 5 5 n N N N m N m m n M N N N m m N N N 6 5 5 5 5 n m 5 5 m m n 6 n 6 m N n 5 M = 5 m M N N N N N n n m N N N N m N N N 5 5 6 5 5 N 6 5 6 4 $ ",
"& & + & m N N N m m m n N N 5 5 5 N N N N N N N N N N m m 5 5 4 $ 4 m N m 5 m N n 5 4 4 n V N N m m n m N N 5 5 5 M N M N N N N N N N N 6 5 5 5 O 4 m N M 5 4 4 ",
"O $ & 5 5 5 5 5 5 4 4 4 5 5 m m m m 5 5 5 5 5 m m N N N m 5 & 5 O @ m N N 5 4 4 5 5 @ 5 6 6 5 5 5 = 4 4 = 5 m n N n 6 5 4 5 n m M N N N m 5 4 4 $ O n N N 5 @ X ",
"O O & n 5 & 4 4 4 O + @ + + 5 m m m 5 4 5 5 4 5 m m N N m n 5 m 5 4 n N m 4 + 4 5 5 @ n 5 @ 4 4 & + + @ O 4 5 m N n 5 4 5 5 4 5 6 M N N N 5 6 m 5 4 m N M 4 O X ",
"O $ 4 5 5 @ O @ @ + 4 O @ @ O 5 m n m N N n 5 O = m N N N N N N n n N N m @ 4 6 6 # 4 6 5 @ @ O @ O @ @ @ O O 5 m 5 m N N 6 4 + 4 N N N N N N N m n M N m O O O ",
"O & 4 5 5 4 @ O O 4 @ O 4 5 5 5 m n m N N m 5 m N N N N N m m m 5 4 5 n m n m m 5 5 @ 5 5 4 & O O 4 O @ 4 5 # n n m N N N m 5 m N N N N m n m m 5 4 5 m m m 5 & ",
"O + 4 m m 5 # @ 4 5 5 5 6 n n M N m N N N m m N N N N m 5 5 m m 4 o O 6 N n m M 6 4 @ 5 n n 4 4 4 5 6 # 6 n M N N m m N N m m N N N N N 5 6 n M 4 O O 5 N m 5 = ",
"= & 4 M V N 6 5 6 m N N m n N N N n m N = n N 5 m N N m & m N N 4 O 4 m B 5 m V V m 5 V V V 5 5 6 N N N n n N N N m N N 5 n m 5 n N N 6 4 6 N N 4 O + m N 4 & & ",
"+ + & 5 M V N n @ 5 M N n 6 N n 5 m N N N M M n m N N N m N M M 4 4 , k E @.$.*.=.*.$.#.W U 2 * O @ n M 6 6 N n 5 m N m m N N n N N N N n N N N n 6 n N m 5 & O ",
"O + 5 n m N N m 4 @ 6 N n 5 m 6 5 m m 5 N V N n m m N M M y z b c T P %.q.v.S.G.G.G.S.c.r.5.[ J h l g C 5 5 m 6 5 N n 5 N N N n n M N N C N N m m N N N m m 4 & ",
"& = n m N N M m m 6 6 m n 6 m M N m 4 O 5 m N 5 & 5 m N y l &.Z.I.I.H.H.H.(.E.Y.Y.G.G.D.M.M.N.C.A.A.w.Y s 6 n m N m 4 O 5 N N 5 4 5 n M M N N n 6 6 6 n m m 5 4 ",
"+ = N m m N m m N N m n m n N N m 5 & + 4 5 5 + + & u T g.h.v.R.`. X*X;X%X{.!.!.!.!.R.R.R.Y.Y.Y.Y.G.b.q.g.O.d B m 4 4 O 4 5 5 4 @ 4 6 5 5 6 n n M n n m M m n 5 ",
"+ = m 5 5 N m m N N n 5 6 n N N N 4 4 4 4 4 4 # t x E h.!.).[.XX+X&X:X>X-X'.Q.T.T.T.T.!.T.R.Y.Y.D.B.D.G.Y.V.P c Z 5 # @ @ 5 @ 5 5 5 5 5 4 5 m N N N N M N N 6 @ ",
"& 5 4 + & 5 5 n n 4 4 O @ 4 m N N N n 6 6 n M 6 o.z.A.F.E.+X;X<X,X-X}.[.K.n.x.y.y.y.j.v.N.N.D.G.G.G.D.B.D.S.x.y.$.V 5 5 6 n M m m m N m N N N N N N N 5 4 n 6 5 ",
"& 5 5 4 4 4 5 5 5 @ 4 6 @ 4 6 M N N N n 5 5 B +.z.F.R.^.[.@X*X*X#X.Xu.0.8.e.r.r.e.r.r.r.6.;._ >.r.N.G.D.D.M.M.c.y.*.v 5 # 6 m N N N N N 6 m N m 6 5 6 5 4 4 4 4 ",
"+ = N m 5 4 5 5 4 # 6 n 4 O 6 M N n m m 5 > U Z.Y.Y.R._. XXX].c.r.,...>.3.e.j.x.4.e.v.j.1.! 9 w | 8.x.N.S.B.d.d.M.S.*.z 4 5 n N N N N m 5 5 m m 5 4 5 5 5 @ 4 4 ",
"5 5 n N N N 6 n n 5 @ O O 4 N M n n n N m O.Z.S.Y.!.R.R.E.l.5...4.s.C.(.[.W.Q.P.;.e.Q.Q.T.A.b.r.,.w 9 | c.S.m.d.d.c.n.h.f M m n 6 M m M N N N N N N N N M 6 5 4 ",
"4 5 m m N N m m N m 5 5 6 n N N n 4 5 V O.l.F.Y.R.R.R.b.e.4.4.0.J.XX$X&X@X`.Q.L.r.y.A.R.!.R.G.B.d.>._ ) | ,.p.s.s.d.N.b.*.v 5 n m M 6 m m m m M m m 6 N N m 5 4 ",
"+ 5 N m n m m N N N N N N N N N m 4 5 c v.S.S.!.!.F.b.e.} u.K.[.OX=X,X>X%X`.Z.k.G.x.8.S.G.M.B.B.D.G.N.2.w 9 ;.6.9.d.s.d.S.#.> m M 6 5 4 4 4 5 5 5 4 4 m N 6 5 4 ",
"& = 6 n N N n 5 n m N N N N m 6 5 5 U 0.r.S.T.R.Y.b.1.1.x.].$X,X>X=XOX|.{.R.V.j.S.p.,.C.Y.B.B.B.D.D.D.N.s.| 7 / 6.7.p.d.M.u.[ Z 5 4 4 5 5 4 4 4 @ 4 5 6 m m 5 @ ",
"& = n m M n 5 5 5 5 5 5 n N m n 5 , #.d.p.C.!.Y.c.4.1.l.[.oX%X;X=XOX^.R.G.S.C.V.S.a.6.b.S.B.B.D.B.B.D.D.D.s.) w ) ,.8.p.d.d.4.l 6 @ 4 4 5 4 @ $ + + n n t n = + ",
"+ 5 m N n + = 5 m n 4 4 6 N m n y I 5.d.c.S.Y.C.0.} x.). XOX|./.^.T.G.G.S.s.A.T.D.f.i.r.d.B.B.B.B.D.B.B.D.D.d.) 9 ;.6.7.a.d.9.R , 4 @ O @ & @ @ + + M t # n t + ",
"& 5 m m + + + = N N m m N m 6 5 x w.s.a.c.D.S.1.1.x.Y.^.`.`./.R.Y.G.G.Y.F.y.V.R.G.M.a.,.p.G.D.B.B.B.D.B.D.B.m.8._ q _ 9.9.9.p.r.W n # O O 4 4 5 = 5 = M M M 5 + ",
"& 5 m n 5 5 + = N N N m m n m m U c.d.r.N.c.6.} 0.Y.~.~.~.~.R.Y.G.G.G.Y.F.k.C.G.D.M.a.8.r.S.B.B.D.B.B.B.D.M.d.d.8.q e ,.6.7.9.a.%.B 5 5 4 5 6 m m m M n t M t = ",
"+ = N N N N N N N m 5 4 n m N d ' y.p.r.F.8.q ;.v.!.~.~.~.R.G.G.G.G.Y.N.b.P.U.D.D.m.p.d.s.s.M.D.B.D.B.D.B.M.d.m.a._ w e 2.9.6.i.X.3 B N N N N N N N N m 5 5 = & ",
"O = n N m = m N m n 5 4 n N V W 8.9.9.p.c._ 7 r.R.~.~.~.R.Y.G.Y.Y.R.R.x.y.T.Y.B.D.m.a.m.a.8.N.G.D.D.D.D.M.c.d.c.d.8./ 7 _ 6.6.9.2.] f M N m N N M m = m M = + o ",
"+ = m N n = n m m n 5 4 n n N #.a.6.i.d.,.r / C.!.Q.T.F.N.N.S.S.S.F.P.v.v.!.Y.M.D.m.d.c.p.7.x.b.c.c.m.m.a.p.a.a.d.d.;.q r :.8.8.9.8.v M N m m N N m n m M = + O ",
"& 5 N N m = = m N 6 @ 5 5 @ % { a.;.9.d.e r 8.A.Q.Z.s.i.i.r.r.y.y.y.t.V.T.!.Y.M.D.M.s.p.s.c.6.,.6.4.7.7.6.6.8.8.p.a.,.e w ) 6.<.i.8.l n N = = m m N N N N M t = ",
"& = m m m = 5 m n n 5 @ 6 6 ; ] 9.-.6.7.7 _ c.e.k.T.U.F.F.U.P.F.C.C.C.F.G.G.D.B.B.M.p.i.d.m.d.s.d.s.a.r.9.9.r.8.<._ ;.;.q e ,.,.7.2.j 6 N 6 5 m N N m 5 5 N n = ",
"+ & 5 m 5 m N m 5 m m 5 n B 3  .8.;.;.;.7 1.Y.t.t.A.Q.!.T.R.!.R.R.Y.G.G.D.M.B.D.D.m.p.r.a.d.M.N.M.m.d.d.a.i.9.<.;._ 2.6.q q _ ,.6.>.8 > N n n N N N 5 4 + N n & ",
"+ & 5 5 m N N N N N N N 5 : S >.<.-._ ) q 4.~.Q.k.4.P.Y.M.M.D.D.D.D.D.B.B.B.B.D.D.m.9.p.r.p.p.p.p.p.p.a.p.8.,._ ;.d.f.9.w q ) ;.,.>.F 2 V m m M m n 5 m M N = O ",
"O & 4 & 5 m m m N N M n # , ' ,.,.;.( / e t.~.!.F.s.y.b.F.m.a.d.M.M.M.D.D.B.D.D.N.d.p.i.p.r.9.i.i.p.i.8.,.;.;.,.p.d.M.r.e q / _ :.>.Q 3 6 5 6 M N m 5 m N N + X ",
"& + + + 5 5 5 n N N m = # s X.,.,.;.( e ( t.Q.Y.G.D.r.y.P.b.p.s.d.d.m.N.M.N.N.N.d.s.p.p.p.p.p.p.p.r.6.;._ ;.,.a.M.d.m.p.) w ! ) ;.,.) A 4 4 5 m N N m m N m + O ",
"& & + & & + 5 n N m m n 5 d >.,.,._ / w ( t.T.S.M.D.D.c.r.V.C.d.a.i.p.p.p.a.p.p.p.p.p.p.p.p.p.a.i.;.) ( :.8.d.d.d.d.m.a.) w w ) ;.:.>.I m m N 5 & = N N N m n + ",
"= & = = 5 n 5 m n 5 n m n f >.<.,._ e e ( t.U.c.f.N.S.M.d.b.b.v.x.a.9.9.9.9.i.p.9.p.p.p.p.r.9.6.| / ) ,.8.d.d.m.d.d.d.9.) e e / ;.,.:.G B m N m & & m m = 5 = 5 ",
"+ = n m N m m 5 5 & 5 m M g >.<.;.) r w ( e.P.d.a.d.m.M.B.d.d.v.v.c.p.p.p.p.p.p.p.p.p.p.p.i.2._ w ) ,.i.f.f.d.d.d.d.a.7.) e w e _ <.:.G N 5 m M = = m 5 + = + + ",
"X & N 6 n m m m n 5 5 m M g >.6.:.) e e ( 4.b.d.d.d.d.d.d.d.a.s.y.j.d.s.p.p.p.p.p.p.p.r.p.9.) e _ 8.s.d.d.d.d.d.s.9.i.7.) w e ! ) ,.:.G m 5 5 m n n M 6 6 N 5 O ",
"O & 5 5 5 5 5 5 5 5 5 m n d X.6.,.) e e / ,.s.d.f.d.d.d.d.d.d.a.y.j.N.d.i.p.p.i.p.p.p.p.a.9.) e _ p.M.d.c.d.d.a.p.9.9.8./ e e e | ,.| A 5 5 m m N M 6 5 5 M 6 @ ",
"& & & 5 n 5 + + @ 4 5 6 5 s ` :.,.) e ! e ;.8.d.d.d.d.f.d.d.d.f.j.v.S.m.p.p.p.p.p.p.p.p.a.r.:.( ) 9.m.d.d.d.p.9.8.9.9.,.! w ! ! _ :.^ 1 4 m N N N n 4 O @ 5 5 5 ",
"& = m N m n 4 4 5 4 4 6 M B F | ,.) / r w _ 9.p.d.d.d.d.d.d.a.9.V.U.B.M.d.p.p.p.i.9.9.p.a.p.6.) e 6.a.s.a.9.9.9.i.p.9.,.w w ! ! | ,.H 2 m 6 6 M N n n 4 4 6 5 $ ",
"O 4 m 5 m N m n n 5 5 m N B 1 ^ ;.) ) e 9 _ 8.8.p.d.d.d.d.m.p.6.C.R.B.M.d.a.p.p.8.6.6.7.8.i.6.;./ ;.8.a.p.8.9.9.9.9.7.;.q q / / -.>.S 2 N 5 5 5 5 5 N 6 5 6 4 4 ",
"& + 4 4 n N N N m n n n N B < ~ <.) ( / 7 / 7.6.8.a.d.d.d.m.s.0.C.R.D.m.s.p.i.8.;.;.;.:.,.6.<.;.) ( ,.9.p.9.9.i.9.8.2.| 9 w ) / :.6.j * 6 5 5 5 O 4 m N N 4 4 4 ",
"O + & 5 5 5 5 5 5 4 4 4 5 4 : [ 7._ / / 9 / ,.6.8.7.d.d.d.a.d.V.F.G.B.d.p.a.6.) w w ) ;.,.,.,.;.) ) ;.9.i.9.9.9.9.,.;.) w w / ) <.8.h 5 m 5 4 4 @ $ 5 N m 5 & o ",
"O O & m 5 & & & 4 @ O 4 @ O = { i.;.) / w w ) <.6.6.9.a.d.i.y.I.G.M.m.d.9.2.;.) ( ) ) ) _ ;.;.:.;.) _ 6.8.p.9.7.6.<.) w e e ) _ 6.8.l M m M 6 m 4 4 M N m & O X ",
"O + & 5 5 O + + + + + + @ @ O L 7.,._ ! / q q >.6.6.<.8.d.6.y.!.G.m.p.p.8.) _ 6.d.i.;.e e ) ;.,.,.-._ ;.8.i.8.6.,.,./ 7 ! ! / ;.<...x M N N N N N 6 N N m @ O O ",
"O $ = = 5 5 + + + + + O & 5 5 h ] >.-.r / w 7 _ >.,.:.<.6.4.k.!.G.f.8.,.,.,.6.9.p.i.8.6.;._ e ) -.) ) _ 6.9.<.,.,._ w q / / ) ,...I B V m m m m 5 4 4 m M m 4 4 ",
"+ + = n M 5 & + @ 5 5 5 5 n n > I 2.,.( / r w w _ ,.,.;.-.y.P.U.c.7.6.;.,.i.a.9.8.i.p.p.9.,._ ( ) / ( ;.,.,.,.,.;.e w e / / _ 7.{ , V n 5 6 m m 4 o @ 5 N 6 5 4 ",
"= & & N C N 5 5 n N N N m n N m v 8.7.| / / ! 7 e :.,.-._ V.T.b.,._ 6.9.p.i.9.9.9.i.9.i.p.p.r.6._ e / ,.;._ ,.,._ 9 w / e ) ,.i.#.V N 6 4 6 N N 4 O @ m N 4 4 4 ",
"O + & m m N N n @ 5 m N n 6 N n > L >.,.) / / w q e :.,...e.y.,.;.;.,.6.6.6.6.8.8.8.8.6.6.7.6.2.:.;._ | ) ) ,._ q w e / / ;.6.' l V N N n N N N m 5 m N N 5 4 & ",
"O + 5 = m N N m 4 4 n N n 5 M 5 5 2 [ 7.) / / / w 9 ) >.>.:.:._ ,.,.:.:.:.,.,.,.,.<.,.<.,.,.>.>.,.,.;.| ) ) _ w 9 / / / ) <.2.h 6 n M N V N N N m N N N m 6 4 4 ",
"& = m m N N m m m 6 6 m n 6 n M N 6 R 7.,._ e ( / w 9 w | ,.2.,.,.,.,.>.,.,.,.:.:.,.,.:.,.:.,.,.,.:.,.2.:./ 7 w ! / / / ;.2.X., @ 5 n m m N N n 5 5 6 5 6 M 5 4 ",
"+ = N m m N N m N M m n m n N N M 5 , K 8.<./ / / / w q w ) ,.2.,.,.,.,.>.,.:.,.,.,.,.,.:.,.,.,.,.6.,.;./ w w e / / / _ i.X.a * @ 5 6 5 5 n m m m 6 M M N N 5 4 ",
"4 6 m 4 5 N m M N N n 5 5 6 M N m 4 @ > %.7.:.) ! ( ) w 7 w ) ;.:.,.,.,.2.,.,.,.,.,.,.,.,.,.,.,.:.>.;.e 9 q r / / e -.<.8.Y 4 4 4 6 5 4 5 5 n N N N N N m N n = ",
"4 4 4 & 4 5 5 6 n 4 @ @ @ 4 n N N N 5 6 , #.p.:./ e / / / w q q ! | ,.2.2.,.,.,.,.,.,.,.2.6.2.:.) q 9 w e / / / / ) 7.u.k 6 n N m N N M N N N N N M N 5 = M 5 = ",
"& 4 5 4 4 4 4 5 5 4 4 6 @ @ n N N N M 6 4 d [ 7.,.) e / ( e q q e e ! / ) _ ;.;.;.| ;._ ) ) / e e w q e / / r / _ 8.5.Y 6 # N N N N N N 6 n m m 5 5 n 5 & 5 = = ",
"@ 5 N m 5 5 5 5 4 4 6 n 4 4 6 N N m m m 5 4 , %.8.;.) / / ) ) / e q 9 9 w e e / / / ! e w q 7 9 w / / / / / ( _ ,.8.E 5 4 5 6 N N N N n 4 6 m N = & 5 5 5 + + = ",
"4 5 6 N N m m 6 6 5 4 O O 4 M N 6 m M N N N V B R 6.6.;./ r / / / / r e e e w e w w e e e e r e / / / / r ) ,.6.X.l B M N V N 6 6 M m m V N N N N N N N m 5 = = ",
"4 5 m M N M m N M n 5 5 5 6 N N m 4 6 M m 6 6 5 f R ' ..<.;.) / e / / / / ! ! e e e ! ! / / / / e / ( _ ,.,.] W U 5 5 M n n n n n M 6 M n n N n N m m N N m 5 = ",
"4 5 N n 6 m m M N N V N N N N N N 4 4 5 5 4 4 N N 6 2 G r.2.| ) ) ) ) / / / / / / / / / / / ( / ) ( ) ..9.5.h B m 4 4 6 5 4 4 N N 6 6 4 4 4 5 5 5 & = m N m = = ",
"4 5 6 n M N m 6 6 M N N N N M 6 5 5 4 4 4 4 m N 6 $ 4 > g i Q 7.i.7.,._ ) ) / / / / / / ) _ ;.,.7.7.>.S j Z B 6 5 4 4 4 4 5 n N m @ 4 5 5 4 4 4 + & 5 6 n m = + ",
"4 4 6 m m n 6 5 5 m 5 5 n N M 6 5 6 6 4 5 n N N 6 O @ # @ % 3 L ' ' H Q ^ ) ) -._ -._ ) / Q Q H ' [ D ; 6 M m 6 5 m 5 5 5 m m V n @ $ 4 5 4 @ @ + @ m m 5 5 = + ",
"O 5 N M 6 @ 5 5 n 6 4 4 6 N m n M N M m N N N N n 5 @ O O @ 4 4 $ % ; 1 F Q }  ... . .^ 0 8 < : - 6 4 4 6 m n M m N m m N N N N m 4 4 @ O @ @ 4 + = m n 5 m = & ",
"4 5 n 6 @ O O 5 N N M m m N 6 m N N N N N N N N N n 5 O O @ 4 5 5 4 - > u f g g g f g p : * $ = N M N n N n 6 M N N N N N M N N N m 4 O O 4 4 5 = 5 5 5 m N 5 = ",
"& 5 m m 6 5 @ 5 N N N m N n n m N N N N N 6 5 n N N 6 5 5 6 n n m m n n M M M M n M n n 5 = & 5 N N N m N M 6 M N N N M m 6 5 m N N 5 5 5 5 5 m m m m m m m 5 = ",
"& 5 m N N m m M m m 5 = n N N N N m n M n 5 4 n N N N N m N N N N N N 6 5 n m m n m N N N N N m N n 5 4 6 M N N N m m m n 5 4 5 N N N N m N N N N N N m = M = + ",
"O & n N M 5 m N m M 5 & n N N M 6 6 # 5 m M m 4 6 N N N N N N N N m 5 m m 5 = = 6 n n N N 5 m M n n 5 4 n N N N m n = = N M m 5 5 N N N N M N N N m = m M = + o ",
"+ = m N m 4 n m m n 5 & n m M t 5 6 5 6 N N n 5 6 M N N N n n m N m n m m 5 5 5 n n n N 6 5 5 m N 6 5 4 6 n M 6 = n 5 5 m N 6 5 6 M N N N 6 m N N m = N N = + O ",
"& 5 N N m 5 5 n N n + & = = = = 5 M M N n 4 4 m M 6 N N N 5 5 m m N N N N m N N M M N N m 5 5 n N 6 4 4 5 5 4 4 = M N N m & & N N m M N N 5 = m m N N N N m n = ",
"& = m m n = n n m m = & n M = = m m m 5 5 6 m m 6 5 M M N n 5 N N N m = 5 N N N m m m m m 5 5 6 n n 5 @ 5 m n 5 m m 6 5 m m m m 5 5 m N N 5 5 N N N m = = N M = ",
"+ & n t n m N m = m m = n M N M m m 5 5 n N N 5 # 5 n N N n 6 N N m t + + N M N n 5 5 6 5 m M m 6 M n 5 n m N m m m 5 & 5 m m 5 5 4 6 N N m m M N m m & + N t + ",
"+ = = 5 m N N N N N N N + t M t 6 M m n m 6 5 4 4 n 6 n N m n N m m n 5 N N n 5 m 5 5 5 m N N N N N M N 5 5 N m m N M m m 6 5 4 5 n 5 m N N m N m m = m M N = O ",
"+ + + + = m M M N N N n # t N N N N m m m m 5 4 6 n 5 5 n 5 6 N N N = m N N 5 + m 5 & & 5 N m m N N N n 5 5 N N m N N m N m 5 4 5 m 5 5 5 5 n N N m = m N N + o ",
"+ + + + = = 5 n N N M + t n M N m n 5 m N N m 5 6 N 5 5 5 4 6 M N N m m M m 5 5 m 5 O & 4 5 5 m N N m 5 5 5 N N m m 6 m N N 5 5 5 N m 5 4 4 5 m N m m m m N = o ",
"= + + + + + t M N m n t 5 n M n 5 5 4 5 N M m m n N N N 6 M m 5 & & m N N m m N N 5 O 4 & @ 5 m m m m n 5 m m 5 4 = 4 5 N N m m m m N N 6 m m 5 = = N N N m = + ",
"+ + + + 5 + = + = + = = + t + # 4 & 4 5 5 5 5 5 6 5 5 5 5 6 6 5 O O 5 & & & 5 5 5 4 O 4 & 4 4 4 5 & & = & 5 & & 4 & & 4 5 5 5 5 5 5 5 5 5 5 5 5 O O 5 = + + + + ",
"X o + + + 5 + + O o O + + + + + 4 = 4 4 O O @ 5 4 @ @ @ @ @ @ @ O O + O X O O & & + O & 4 4 & $ O O O O & + O & 5 & 5 = O O + 5 5 + & + 4 @ 4 4 O o & O X o o X "
};
