/* XPM */
static char *Group_6_1__resized[] = {
/* columns rows colors chars-per-pixel */
"80 80 217 2 ",
"   c #315717",
".  c #37631B",
"X  c #39661B",
"o  c #3D6D1D",
"O  c #3F711F",
"+  c #3A6F20",
"@  c #3E7320",
"#  c #3F7821",
"$  c #426E1C",
"%  c #486B19",
"&  c #546914",
"*  c #41751F",
"=  c #4A741C",
"-  c #43781F",
";  c #4B7B1E",
":  c #5D7416",
">  c #527419",
",  c #587618",
"<  c #547B1B",
"1  c #5C7B19",
"2  c #6E690B",
"3  c #77770E",
"4  c #7B7A0E",
"5  c #637C16",
"6  c #6A7A13",
"7  c #607F19",
"8  c #727510",
"9  c #717D12",
"0  c #787E10",
"q  c #417620",
"w  c #457C21",
"e  c #4B7F20",
"r  c #846A05",
"t  c #9C6F00",
"y  c #887207",
"u  c #837B0C",
"i  c #977604",
"p  c #9F7100",
"a  c #A37400",
"s  c #A67900",
"d  c #AB7D00",
"f  c #B37E00",
"g  c #4E801F",
"h  c #55841E",
"j  c #5B831B",
"k  c #6C8416",
"l  c #63841A",
"z  c #63861B",
"x  c #698619",
"c  c #6A8B1B",
"v  c #7A8512",
"b  c #768D16",
"n  c #798D15",
"m  c #718F19",
"M  c #61921F",
"N  c #6E921A",
"B  c #74921A",
"V  c #799B19",
"C  c #478122",
"Z  c #498423",
"A  c #478825",
"S  c #4C8A24",
"D  c #538B23",
"F  c #588B21",
"G  c #5B9222",
"H  c #6D9854",
"J  c #8C820B",
"K  c #8A880E",
"L  c #9C8406",
"P  c #938C0D",
"I  c #988B0B",
"U  c #86970F",
"Y  c #9C910C",
"T  c #9A960D",
"R  c #828410",
"E  c #8A9411",
"W  c #839A15",
"Q  c #929411",
"!  c #989610",
"~  c #9A9B10",
"^  c #A48505",
"/  c #AE8100",
"(  c #A78D06",
")  c #AB8904",
"_  c #A28C08",
"`  c #A88D08",
"'  c #B28400",
"]  c #BB8600",
"[  c #B58901",
"{  c #BC8C00",
"}  c #A5950A",
"|  c #AB9508",
" . c #A29B0D",
".. c #AB9D0B",
"X. c #B49305",
"o. c #BE9100",
"O. c #B39806",
"+. c #BC9B03",
"@. c #B19C08",
"#. c #9EA80E",
"$. c #8DA214",
"%. c #92A513",
"&. c #ABA20C",
"*. c #A7AE0F",
"=. c #AEA90D",
"-. c #B5A80C",
";. c #B4B40D",
":. c #BAB808",
">. c #BABC0E",
",. c #C08D00",
"<. c #C39400",
"1. c #C99700",
"2. c #C59A01",
"3. c #CB9C00",
"4. c #D19E00",
"5. c #C3A302",
"6. c #CDA201",
"7. c #C4A804",
"8. c #CCAB01",
"9. c #D4A400",
"0. c #D9A600",
"q. c #D4AA01",
"w. c #DCAD00",
"e. c #C6B607",
"r. c #C3B308",
"t. c #C4B908",
"y. c #D3B301",
"u. c #DCB300",
"i. c #D5B805",
"p. c #DBBC01",
"a. c #E2AD00",
"s. c #E3B300",
"d. c #E8B600",
"f. c #E4BB00",
"g. c #ECBC00",
"h. c #F1BE00",
"j. c #D6BE2C",
"k. c #B3C10F",
"l. c #D5C303",
"z. c #DCC301",
"x. c #E4C400",
"c. c #ECC301",
"v. c #E5CB01",
"b. c #ECCB00",
"n. c #E8C70B",
"m. c #F2C300",
"M. c #F9C400",
"N. c #F5CB00",
"B. c #FDCD00",
"V. c #E5D200",
"C. c #ECD400",
"Z. c #E8D605",
"A. c #EDDB01",
"S. c #F3D301",
"D. c #FDD200",
"F. c #F2DC00",
"G. c #FEDC01",
"H. c #FDD80B",
"J. c #E3CF16",
"K. c #E9C819",
"L. c #FFCA11",
"P. c #EAD215",
"I. c #FBDD15",
"U. c #F7D71A",
"Y. c #E4E004",
"T. c #EEE201",
"R. c #F2E300",
"E. c #FEE300",
"W. c #F3EA00",
"Q. c #FDEB01",
"!. c #FBE50D",
"~. c #F6F100",
"^. c #FEF300",
"/. c #FFFD00",
"(. c #FFF00D",
"). c #FFFC0B",
"_. c #E4E419",
"`. c #FCEB19",
"'. c #FFF316",
"]. c #FDFD12",
"[. c #FDF51D",
"{. c #ECD526",
"}. c #FFD92A",
"|. c #FCEA2B",
" X c #FEFC2A",
".X c #FEE738",
"XX c #FFF533",
"oX c #FCF13C",
"OX c #FFFD38",
"+X c #A8BB64",
"@X c #EBD551",
"#X c #F8E443",
"$X c #FCF548",
"%X c #FFFB4A",
"&X c #F8E659",
"*X c #FFF959",
"=X c #EBD667",
"-X c #EDDD7D",
";X c #FFF364",
":X c #FFFD6C",
">X c #FCE773",
",X c #FFFB74",
"<X c #FFFC7D",
"1X c #B2C98A",
"2X c #E8E981",
"3X c #FDEC87",
"4X c #FFF989",
"5X c #FFFD96",
"6X c #F6ECAF",
"7X c #FEF6A7",
"8X c #FFFCAA",
"9X c #FBF5B4",
"0X c #FFFFB1",
"qX c #FEFCBA",
"wX c #FDFCCA",
"eX c #FEFCD0",
"rX c #FAF5DF",
/* pixels */
"  . * o o O O * * o o * * * - O * q * * o o O w w * * * + $ o $ @ q w o O w * o . X * o O O O O * o o * q * * * * * * * o o * w q q q q + $ $ + $ q q @ O w X   ",
". o * * q q O O O O O w - - - O @ q q O o o q q O O o * q q q w w w @ O O w w w w q O * O w O O O O * - w q q * O * q O o O * * q + q $ + q w w w w q + O w * o ",
"- - * - Z w @ o O * - C w w w q q w q o * w w w q @ O o q C S S Z Z q o * w Z S D C q w C w O O O - - C w w w w q w O O O w w q @ @ $ + q Z S S Z Z q o O w w w ",
"* - Z S Z C q q - - - C Z S S S Z w q @ w Z Z Z w Z C Z C C C Z Z Z e q * C C Z C C Z Z Z C q q - O - C Z Z S S Z C q o w Z S Z Z w Z Z C w Z Z Z Z e q q e w $ ",
"o q Z e Z Z Z C Z w w C S S S Z Z S C C S S S S S Z S S Z Z w w w w Z C w C Z Z e w C C S S C C Z w w C S S Z Z S Z C w Z S S S Z S S S Z w w C w w Z C w C q q ",
"* * * q C S S S Z Z Z C S Z w w C S S S S S S S S S S Z Z w w q q q Z S Z w Z S Z w q q C S S S Z Z Z C S S w w C S S S S S S S S S S S Z w w w + q Z S Z w q q ",
"o o * w w w w w w q q q q w Z S Z Z w q w w w Z Z S S S Z w @ w + $ Z Z S w * q w w * w w w C w w w @ w q w Z Z Z Z w w w w C Z S S S S Z w q q $ $ C S D w @ . ",
"o $ * w w q q q * @ O @ O @ w Z Z C w w w q w q w S S S S e w Z w q Z S Z q O * w w q w w * O @ O O O O O @ w Z Z C w w q q w w w Z S S Z Z w Z w q C S Z q + . ",
"o o q w q q @ $ o @ + * * O o w Z w Z S S w * O w Z S S S S S S C C S S A @ q w C q q w w O @ O o * q @ @ @ @ q Z w Z S Z w w o q S S S S S D S Z C S S Z o o o ",
"o * q w w q @ + o q q + q q w w Z C S S S Z w Z Z S S S Z Z Z Z w q w C Z C C Z w w q w w # O O o @ O o @ w q C Z Z S S S S w A Z S S S Z Z C S w q w Z Z Z w * ",
"O * q C C Z q q q w w w w C C S S Z S S S Z Z S S S D Z e w A C + + + w A C A A w q q w C # @ @ q w w w w C Z S S Z S S S Z Z S S S S Z w w C Z q X o w S Z w - ",
"* * q S D Z w w e Z S S Z C S S S C S S w C S C Z S S C q C D S q $ = Z D = e S D Z e D G D e w Z Z S S Z Z S S S C S S w C Z w Z S D Z q C S S q + O Z S q * * ",
"o O * w S S S w q q Z D C w D C w Z S Z Z S Z Z Z S S Z A C C 1 0 K Y ~  . .&.;.;.;.;.>.>.>.=.&.E k < C w q S C e Z S C Z S S C Z S S S Z Z S S C w Z D S w * o ",
"o * w w Z S S A q q w S C w Z C w S e w S S S C C S Z D N V W Q @.6.u.s.d.c.N.B.H.!.E.G.G.G.N.d.8.| Q V N j Z w w Z C e S S D C C S S S D S S S Z S S S Z w q * ",
"* - Z S S S Z Z S w w S C C C S S Z q + w S S w * e Z W t.Z.A.S.c.c.N.S.G.G.G.!.|.`.E.Q.E.E.D.B.M.m.F.T.l.#.j Z S C q + w Z S w q w Z Z Z S S C w w C w Z Z w * ",
"O w Z Z S S Z Z S S Z C Z Z Z S S q * o q w w + > n *.t.m.G.G.N.N.D.D.E.`.;X4X4X$X'.^.^.^.^.Q.Q.E.E.E.G.S.z.>.%.x w @ + q w w @ q q w w w C Z Z Z C Z Z S Z Z w ",
"* - Z w w S Z Z A S Z w w e A S S w q q q q w j U :.A.E.D.B.m.b.D.!.|..X*X5XwX7XoX!.W.W.R.W.Q.Q.E.E.G.D.B.D.Q.l. .k e q + q q q q w w w q w Z S S S S Z Z S Z * ",
"* - q O q w w w Z q + q q q e S S S C w w w G k.Y.W.Q.^.Q.b.c.G.E..X7XeX9X;X.XU.n.z.y.y.y.i.p.x.m.D.G.G.D.D.D.N.f.e.W w w C D Z S S S S S S S S S S S w q C w w ",
"* w e q q q w w w q q w + $ w S S S Z w w H 1X2X<X<X4X&XZ.b.S.Q.`.oX,X3X=Xj.e.q.y.u.y.q.y.p.p.6.] { 6.x.D.G.D.N.c.x.e.$.Z q Z S S S S Z e Z Z S w w C q q q q - ",
"o w S C w w w w q q w e q q Z A S Z Z Z h +X9XqX0XqXwX-Xi.S.Q.^.'.|.U.n.u.+.+.7.i.v.v.q.u.C.v.8.d t d 3.p.N.B.m.g.g.M.z.n e C Z S S S Z q w Z Z w q C C w * * q ",
"w w C S S S Z C Z q @ @ + q S Z C Z A G >._. X X X X{.K.b.Q.^.Q.Q.Z.7.2.8.x.F.`.oX[.T.2.y.~.~.W.A.x.q.[ p [ c.M.m.g.m.f.e.W S C Z Z Z S S S S S S S S S S w q q ",
"q w Z S Z Z Z S S Z w w w e S S Z O g $.Y.~.~./.~.A.x.b.G.Q.Q.E.z.8.8.y.P.&X<X,XOX].T.p.u.C.Q.Q.E.G.m.q.o.[ [ 6.s.d.g.m.m.=.z Z Z Z Z w Z Z Z Z Z C C S S Z e q ",
"O w Z Z Z C Z Z S S D S S S S S A O n l.R.Q.E.Q.S.p.f.S.^.Q.R.b.5.+.K.`.%X8XeX8X XT.V.F.x.0.N.G.B.B.B.D.S.9.t d 1.q.d.c.m.8.P G Z w w q q q w w w q q Z S Z w q ",
"* - e C S S Z w w Z S S S S S Z * - #.R.D.D.D.B.g.w.x.F.Q.Q.x.+.y.{.>X8X0X:X%X X(.V.z.S.x.3.C.E.B.B.B.D.D.N.p.' a 3.0.a.c.c.i.B q q q w w q q q q q w w Z Z q q ",
"* - w Z Z C w w w C w w Z S Z w < n t.G.M.M.M.g.a.a.b.E.Q.x.8.7.P.XX:X4X<XXX(.E.E.V.z.S.f.6.v.D.B.B.B.B.B.D.D.q.d ' <.q.a.h.x. .7 q q q w q $ @ O O C C O A O O ",
"O w S S C O w w C C q @ w S Z w M r.f.d.g.g.g.q.0.s.S.E.S.-.5.S.|.OX X]./.Q.G.G.N.C.A.D.h.w.s.m.B.D.B.B.B.D.D.B.q.t ' 0.0.s.f.q.P q + $ q + q q O O Z C Z C g O ",
"O w Z C - o O - S S Z Z S C w w B p.c.s.s.s.w.w.u.s.S.b.y.8.z.Q.).].).^.E.E.G.G.f.Z.^.D.M.g.q.s.D.D.D.B.D.B.B.B.d.o.' [ 9.a.s.g...e @ @ + q q w w w w A A A C O ",
"* w Z Z C - O - S S S Z S S C j Q p.g.a.s.w.q.s.s.f.N.u./ y.E./././.^.E.G.G.G.I.@X#X'.H.M.g.9.u.D.D.B.B.B.B.B.m.g.a.[ a 1.0.w.d.-.x e q q w w Z Z Z g A Z g g - ",
"* w S S S S A S S C w w e Z D E 7.u.s.s.d.w.9.w.d.x.f.2.a z./././.^.G.G.G.G.G..X6X6X#XI.m.d.q.s.N.D.B.B.D.B.B.c.g.h.<.a { 3.0.q.7.Y z A S S S S S S S Z w C - O ",
"o * Z S Z - Z S C Z w q C S D *.g.s.w.s.d.q.4.9.d.m.<.' 3.F././.^.E.G.E.E.E.I.&XrXrX3X}.m.d.g.g.d.S.G.D.D.D.M.m.h.m.9.{ s { 0.q.0.6.B A S S S S S Z w C C w O X ",
"O O A S C * g A Z C w q w C S -.B.d.a.s.w.q.4.3.s.c.s / N.W.~.R.S.N.S.C.S.F.P.@X9X9X>X}.m.d.m.g.q.f.b.m.m.c.d.d.d.g.d.3.p f 4.q.s.w.m A Z C C S S C w S S - O O ",
"* ; S S Z C O Z S C q q w @ % &.m.s.s.s.w.q.0.1.q.w.a [ F.W.V.f.a.u.u.p.p.p.p.J.&X.XL.H.m.f.g.g.w.9.3.9.9.q.6.9.9.w.s.q.s s ,.9.w.9.b C S ; - Z Z S S S A A g - ",
"O ; Z Z C w C C C C w @ w e : @.g.d.s.a.q.9.q.1.<.1.[ o.z.T.R.T.F.F.F.A.F.S.C.S.I.L.B.D.M.d.s.d.c.g.g.d.d.s.w.w.w.9.3.<.' d [ 3.q.6.v ; S ; w Z S S Z - w S Z - ",
"O * w Z C Z Z Z w Z Z w A j 0 +.d.s.s.u.9.9.9.3.] [ <.q.z.V.T.~.^.Q.^.Q.Q.E.G.D.B.B.D.D.m.u.w.d.m.N.m.m.g.g.d.u.9.<.<.2.,.' d <.9.2.u : S Z C Z S S C O O S C O ",
"O O w w Z S S S S S S S w , P 5.s.s.d.s.9.9.9.1.[ a 9.b.W.z.p.W.S.M.B.B.D.D.D.B.B.B.B.D.m.w.s.s.s.s.s.s.d.s.w.9.<.<.w.g.9.' a { 1.2.L 6 S A Z S Z C C C S S O O ",
"O O * * w Z Z Z S S S C # 1 | q.s.d.d.d.9.3.3.1.f a 9.F./.S.d.x.C.S.g.h.m.M.B.D.D.D.D.B.g.s.s.s.u.w.s.s.a.9.3.<.<.w.g.m.w.] a ' <.3.^ 0 g w C S S Z g C S S O X ",
"O O O O w w w C S S Z w w l O.9.w.w.w.w.9.3.1.<.d p q.F.~.G.M.a.V.A.g.s.d.h.m.M.N.M.N.m.d.w.s.s.s.s.s.a.9.<.,.<.q.m.m.g.s.{ p d <.1.X.R e q C Z A S Z Z S A O X ",
"- O O - - O w C S Z Z C q l ` <.<.o.o.<.4.3.2.<.d p y.C.S.D.D.S.d.p.A.b.a.s.s.s.s.s.s.s.s.s.s.s.s.d.w.1.{ { <.s.m.g.g.g.s.{ p d o.3.<.P C Z Z w - - S S S C C O ",
"- * - w C w C C C w w C C l ) { o.{ { o.3.3.<.<.d p q.b.b.c.m.B.m.x.v.V.x.s.w.a.w.s.w.w.s.s.s.s.a.9.<.[ { 1.u.g.m.g.g.d.w.{ t d o.3.1.P Z Z S C O * S Z - - - w ",
"O - C Z Z A C w ; w w Z A c [ ,.<.<.{ <.3.6.<.{ s p 8.x.b.g.g.h.N.M.s.v.C.d.s.s.s.s.s.s.s.s.s.s.q.,.' [ <.w.m.h.g.g.g.d.q.{ t d { 3.1.I Z C Z S - - Z - O - - O ",
". O Z Z w Z Z Z Z w w Z S z ) <.<.o.<.<.3.6.2.{ d p 5.f.m.c.g.g.g.g.g.u.u.b.x.w.a.s.s.s.s.s.s.w.9.' ' 3.d.h.g.g.g.d.s.w.9.{ t d { 1.2.P Z w w Z C S Z w w S w o ",
"o * w w w Z w w w q w Z C l ` o.o.<.{ o.1.3.1.{ s p <.u.g.g.g.g.g.g.g.a.w.C.b.d.s.s.s.a.s.s.s.s.9.' ' q.g.m.g.g.d.s.s.w.9.[ t d { <.X.J e w Z Z S Z w w w Z w q ",
"- - * w w w O O @ q w e w 1 L { <.<.o.<.<.3.3.{ d a <.w.s.g.g.g.g.g.g.a.s.A.S.h.s.w.s.s.s.s.s.d.w.] [ 0.d.g.g.d.a.w.w.a.3.' a d { 2.^ 0 q C S S S C q $ q w w w ",
"O - Z S S C * * w @ q Z A j J [ <.,.<.<.<.2.2.{ d s { 3.q.g.m.g.g.h.g.w.u.R.E.N.d.w.s.s.w.w.s.d.w.{ [ 1.d.c.s.w.w.w.w.q.<.d a d { <.^ 9 Z w C Z Z Z C q q C w $ ",
"O q Z w Z S Z Z C w w Z S j 4 ^ <.<.<.<.,.2.1.{ d d { 1.9.d.g.g.g.g.m.u.p.R.G.B.s.w.s.w.9.9.9.w.w.<.[ { q.g.a.w.w.a.w.9.o.d a d ,.2.J 5 Z e w w w w Z C e w q q ",
"O O q q w S S S Z C C C S < : L <.<.<.{ o.1.1.[ d ' d { 0.w.s.g.g.h.g.x.v.D.D.m.s.s.w.1.<.<.1.3.9.1.] ' 3.a.w.w.w.a.q.3.[ d d ' <.3.R > Z w w w q $ Z S Z w q q ",
"o O * w w w w w w q q q w q > I 3.<.o.<.{ 2.3.{ ' f a [ q.w.w.g.g.d.a.V.T.B.m.g.d.w.<.d d ] <.3.3.3.<.' <.9.w.w.w.w.0.2.d d ' ' 1.q.v e Z q w q + $ C S Z w + . ",
"o o * Z w q O q q $ + q @ + = _ 0.1.<.<.<.<.3.{ [ f p d 9.9.9.u.g.d.9.V.^.D.g.d.w.3.{ [ [ [ { { <.3.<.[ { 3.u.s.w.9.3.<.a a ' [ 4.w.m w S Z w w w w Z S Z $ + + ",
"o O * ; w O O O O O O O @ o o I 0.1.,.<.o.<.<.<.{ ' s s o.3.9.9.s.f.8.A.Q.B.g.w.1.{ <.s.w.o.d d ,.1.1.{ [ 1.s.s.9.3.<.{ a d ' { 4.q.B A S S S S S Z S S Z + + $ ",
"o $ - - w - O O O O O o w w w R [ [ [ ] ' { <.2.o.d d s d <.9.1.3.q.p.T.Q.m.q.2.1.4.q.s.a.0.3.<.' [ [ { { <.q.9.3.4.{ d d d ' <.<.| N A Z Z Z Z w q q e Z Z w q ",
"O O - C Z C - O @ w w w w Z Z 5 J ) ' f ' ' { 3.<.' ' d p { 3.3.,.6.Z.T.N.w.4.1.9.u.s.w.w.s.s.9.<.{ ' ' { <.3.1.3.3.[ p / / ' 4.+.R F C w w Z Z q + + w A Z w q ",
"- O O S S S w w C S S S Z Z Z Z 9 X.{ ' ' d ' 3.1.' ] d a ' <.1.] 2.W.C.9.o.3.s.s.w.a.u.w.w.a.s.s.9.{ d { <.{ 2.3.o.d a ' ' { a.&.< S Z q e S S q + $ A S q q q ",
"O O O Z S S S C q w Z S Z w S w 5 X.] d / / ' ,.2.<.' ' d a f 3.2.5.p.8.1.<.3.9.9.9.q.0.9.q.0.q.9.9.1.o.o.{ / <.2.d a d d [ ,.9.~ S Z Z Z S S S e e Z S S w q $ ",
"o O - w Z S S C * q w S e w Z w < J ) ] ' / / [ <.1.[ ' ' a s { 2.2.3.<.<.3.3.2.1.3.3.9.6.6.3.3.1.1.3.3.<.{ [ { { p d ' ' <.6._ b Z S S S S S Z Z A S S S w q q ",
"O w C S S S Z Z Z w Z Z C C A Z Z < P <.[ d / d { 3.{ ' ' ' s t ' <.3.3.1.3.3.2.3.3.1.3.3.3.3.3.3.3.1.1.3.1.<.d t d ' ' ' 9.q.9 $ w Z Z Z S S C w w w e w Z w q ",
"O ; S C A S Z S S S Z C C Z Z S S q 9 ^ ' ' ' d [ <.1.o./ ' ' s a ' <.6.6.3.3.3.3.3.1.3.3.1.3.3.3.3.6.6.6.<./ a a ' ' ' <.2.} , + w w w w C Z Z Z e Z A S S w w ",
"q w Z q w S Z Z Z S C w w C S S Z w , 0 ' ' d ' / ' 1.2.' ' ' ' a a [ <.1.1.3.6.3.3.3.3.3.3.3.3.3.3.3.3.,.' t a ' ' ' { 6...6 e w w w q w w Z S S Z S S S S Z O ",
"q q w q q C w w C w q q $ q C S S Z C l ` { ' ' / / { 2.<.[ d ' ' d a a ' <.3.9.3.3.3.3.3.3.3.3.9.3.o.d a a d ' ' f [ <.2.Q D Z C S S S S S S D S S S w O Z C - ",
"$ q w q q q w w w q q w + q C S S S Z Z 9 _ { ' / / / { 1.<.[ f f ' s a d d ' [ { <.<.<.2.<.o.{ [ ' d a s d ' ' / ' 3.6.Q l Z S S S S D w C Z Z w w C w O w - - ",
"@ w S C w w w q q q w C q q w S S Z Z Z w v X.[ / ' d ' <.1.<.[ / ' [ f d a t a d ' ] { { ' ' s p t a d ' [ ' ' [ <.6.-.< # e Z S S S Z w w Z Z - O C C w O O - ",
"q w C S S S e Z C q @ q $ q S S w Z Z S S D m ` { [ d ' ' { 2.2.{ d ' ' d ' d d s s s s s s s s d ' d ' ' f d [ 3.6.! G S S S w C Z Z Z S S S S S S S S A C - - ",
"q w Z S S S Z Z S C w w w w S S Z w w S S w C n P ^ [ ] d ' { <.<.<.[ ' ' ' ' ' / d d d s d f ' ' ' ' ' ' { 4.2.} P z A Z e C Z Z C Z C Z Z Z C S Z Z S A C - - ",
"q w S Z w Z Z S S S D S S S S S Z q q e q q q S l u ^ [ d d d ' <.3.<.{ ' [ ' ' ' ' ' ' ' ' ' ' ' ' ' [ [ <.q...9 q q w q q q S S w w q q q w w w * * Z S g g - ",
"q w w C S S Z w C Z Z S S S S w w w q q q q w S Z = : 3 i f f s a / { 1.3.<.{ ] ' ' ' f ' ' ' ' ] { 4.a.4.| B l ; q q q q w Z S C q q w w w q q O * w Z A Z # O ",
"q q Z Z Z Z w w w C w w C S Z w w C w w w C S S C @ + > 8 u r r r t d [ ,.,.{ { ,.] { { { { { { ) ^ _  .T b e w w C w w w C Z S Z q q q q q q + O @ Z C C C - O ",
"o w Z S w q q w Z w w @ w Z Z Z S S Z Z S S Z D Z q q @ + $ % & 2 r y i i s ) X.+.+.+.+.+.X.X.( J 8 & * e S Z C Z S Z Z S S S S Z q @ @ @ * $ * O O Z Z C w - O ",
"* w Z w q o + w S S Z Z S S w Z S S S S S S Z S Z Z q @ + @ + = ; 1 1 1 j l z c c c c k l 5 : 1 z F Z Z S Z w Z S S S S S S Z S Z Z w o o @ q w - w - C Z Z C - ",
"* w Z Z w w q w S S S Z Z Z C S S S S S Z C e C S S C q w w w C C A C C C A S A A C A C w # @ w S S S Z Z Z C Z S S S S Z C w Z S S w w w w C Z Z Z Z C C S ; O ",
"O ; S S S Z S Z S C w w C S S S S Z Z Z C w q C S S Z S Z S S S S S S Z w w C Z C Z S S S S S S Z Z w w C S S S S C Z Z C w * w S S S Z Z S S S S S S A w A w O ",
"o * C S Z w Z S Z Z w q C S S S w w w w Z S C w w S S S S S S S S Z w Z C w - w w C C S C w Z Z Z Z w q C S S S C C - w Z S Z w w S S S S S S S A Z g C A O O X ",
"O O C S Z - Z Z Z C w - C Z S C w C w w Z S C w C S S S S e Z Z Z Z w S S w w w C C C S C w w Z C C w q w Z Z C w C C w S Z Z w C Z S S S Z C Z S g ; S A - O o ",
"O C S S Z w * Z S C O O - - O - w Z S S Z q q Z Z C S S S w w Z Z S S S S Z S S S S S S Z w w Z S w @ q w q q w w C S S C - * Z S Z S S S w w Z Z A S S S A g w ",
"O - S Z C - C C C A - O C Z ; w Z Z Z w w Z Z Z C w Z S Z w w S S S Z C - S S S Z Z Z Z w w w Z C C w q C Z w w Z Z C ; w Z Z Z w w Z S S C w Z S S Z w g A A O ",
"O - g C C Z S Z ; Z Z - C S A Z Z Z w q e S S w q w Z S S Z Z Z S Z ; O O S S S w w Z w Z Z S Z Z Z Z q C Z S Z Z Z C @ e Z S w w w C Z S Z Z Z S Z C * O S g O ",
"O - O C Z S S S S S S S w w S Z Z Z Z Z C Z w q w C w Z S Z Z S Z C w C Z S C C Z w w w Z S S S S S S S w w S Z Z S Z C Z Z w * q Z w Z S S Z S Z g w C S S O o ",
"O O O O - A Z Z S S A Z - - S S S S Z Z Z Z w q w C w w Z w w S S S C Z S S w O Z w q q w Z C Z S S Z C w w S S S S Z Z Z Z w * w Z w w w w w S S S w Z S S O X ",
"O O O O O Z w A S S A O - Z S S Z Z w Z S S C w Z Z w w w w w Z S S C Z S S w w Z w o * q w w e S S Z - w C S S Z Z Z Z S Z C w Z Z Z w q w w S S A Z Z S S O o ",
"- O O O O O g A S Z C g g C A Z w q q w S S S C C S S S w Z S w - - Z S S Z Z S S w o q q * w Z Z S Z w w C Z w q w q w S S Z Z Z Z S Z e Z Z w * - S S S C - O ",
"O O O O O O O O O - - - O # - O q * q w w w w w e w w w w w w w o o w w O O w w w q o q q q * - - - - - - w * * O * w w w w w w w w w w w w w w o o w - O O O O ",
". X O O g # O O O X o O O O O O q * w * X o * w q @ O * @ O O w o X O o X X o * * o o * * q * o o X o O * O o * w * * * o o O w q * * * @ O q q o X * o . X X . "
};
