/* XPM */
static char *Group_6_2__resized[] = {
/* columns rows colors chars-per-pixel */
"80 80 220 2 ",
"   c #315717",
".  c #37631B",
"X  c #39661B",
"o  c #3D6D1D",
"O  c #3F711F",
"+  c #3E7320",
"@  c #3F7822",
"#  c #456D1B",
"$  c #556512",
"%  c #41751F",
"&  c #4C741B",
"*  c #43781F",
"=  c #4A7B1E",
"-  c #5B7316",
";  c #537519",
":  c #547C1C",
">  c #5B7B19",
",  c #6E6E0D",
"<  c #667713",
"1  c #6B7612",
"2  c #6B7C13",
"3  c #617E18",
"4  c #717B12",
"5  c #417620",
"6  c #457C21",
"7  c #4A7E20",
"8  c #876B05",
"9  c #946C01",
"0  c #9B6E00",
"q  c #837209",
"w  c #837B0C",
"e  c #937405",
"r  c #9E7100",
"t  c #967D07",
"y  c #A37500",
"u  c #A67900",
"i  c #AB7C00",
"p  c #B17E00",
"a  c #54821E",
"s  c #5D841C",
"d  c #5D8C1F",
"f  c #6C8A17",
"g  c #63851A",
"h  c #658A1C",
"j  c #6B8C1A",
"k  c #738415",
"l  c #7B8312",
"z  c #6A941E",
"x  c #7A9416",
"c  c #789E1A",
"v  c #7DA318",
"b  c #478122",
"n  c #498423",
"m  c #4C8A24",
"M  c #4B8829",
"N  c #508621",
"B  c #528B22",
"V  c #598B20",
"C  c #579224",
"Z  c #618C2C",
"A  c #779F57",
"S  c #83820E",
"D  c #8B840C",
"F  c #8A8B0F",
"G  c #9C8407",
"H  c #958309",
"J  c #948E0E",
"K  c #92910F",
"L  c #9C930C",
"P  c #818611",
"I  c #888B10",
"U  c #839315",
"Y  c #8B9A14",
"T  c #919110",
"R  c #969C12",
"E  c #A48605",
"W  c #AE8100",
"Q  c #A68905",
"!  c #AC8C05",
"~  c #A08908",
"^  c #B28400",
"/  c #B98700",
"(  c #B68901",
")  c #BB8C00",
"_  c #A2930B",
"`  c #A99709",
"'  c #AC9A09",
"]  c #B69404",
"[  c #BE9101",
"{  c #BD9D03",
"}  c #90A316",
"|  c #A4A50D",
" . c #ABA50E",
".. c #ABAA0D",
"X. c #B9A408",
"o. c #A6B40E",
"O. c #B5B70D",
"+. c #BABC0C",
"@. c #A3A810",
"#. c #C08F00",
"$. c #C39400",
"%. c #C89700",
"&. c #C69A00",
"*. c #CB9B00",
"=. c #D19E00",
"-. c #C2A706",
";. c #CEA201",
":. c #CBAA01",
">. c #D3A400",
",. c #DAA700",
"<. c #D2AC00",
"1. c #DCAC00",
"2. c #DFAF0B",
"3. c #CEB403",
"4. c #C4BA07",
"5. c #D4B400",
"6. c #DCB301",
"7. c #D3BA03",
"8. c #DBBB00",
"9. c #DABA0C",
"0. c #D7B916",
"q. c #E1AE00",
"w. c #E3B300",
"e. c #E9B600",
"r. c #E3BB00",
"t. c #ECBC00",
"y. c #E5B70A",
"u. c #F1BE00",
"i. c #E3B514",
"p. c #E6BA14",
"a. c #D5BC2D",
"s. c #E5BC25",
"d. c #BEC309",
"f. c #DAC301",
"g. c #D8C407",
"h. c #DECB03",
"j. c #CAD40A",
"k. c #DFC411",
"l. c #E4C300",
"z. c #ECC300",
"x. c #E5CC00",
"c. c #EBCB00",
"v. c #E8C60D",
"b. c #F3C300",
"n. c #F9C300",
"m. c #F4CC00",
"M. c #FDCD00",
"N. c #E4D600",
"B. c #EDD301",
"V. c #ECDD02",
"C. c #EAD708",
"Z. c #F3D301",
"A. c #FDD300",
"S. c #F3DB01",
"D. c #FDDC00",
"F. c #F6D90C",
"G. c #F6C815",
"H. c #EDD11A",
"J. c #F4D617",
"K. c #FBD31C",
"L. c #EEE307",
"P. c #F4E300",
"I. c #FDE301",
"U. c #F4EA00",
"Y. c #FDEB00",
"T. c #F9E50B",
"R. c #F4F003",
"E. c #FEF301",
"W. c #FFFC01",
"Q. c #FDF40A",
"!. c #FAEA17",
"~. c #FFFE14",
"^. c #FFFC19",
"/. c #F2C728",
"(. c #EAD62A",
"). c #EDD02E",
"_. c #FBD027",
"`. c #FFD22A",
"'. c #E5C439",
"]. c #FCD437",
"[. c #DBE125",
"{. c #FCE924",
"}. c #FFF527",
"|. c #FEFE2E",
" X c #FAE533",
".X c #FFFA3C",
"XX c #B0BE6B",
"oX c #B2C36C",
"OX c #E1CE44",
"+X c #FAD243",
"@X c #EBD758",
"#X c #F9DB56",
"$X c #F8EA4A",
"%X c #FFF447",
"&X c #FFFD45",
"*X c #FEFF54",
"=X c #FFF45B",
"-X c #E4D268",
";X c #EAE86E",
":X c #FCEC60",
">X c #FFE36C",
",X c #FFF662",
"<X c #FFFD66",
"1X c #FDF46D",
"2X c #FFFA6A",
"3X c #F8E279",
"4X c #FFF673",
"5X c #FFF879",
"6X c #FFE987",
"7X c #FFF48D",
"8X c #EEE891",
"9X c #FFFE94",
"0X c #ECDEA1",
"qX c #FDECA0",
"wX c #FEFEA5",
"eX c #FDFCAC",
"rX c #FFF9B6",
"tX c #FDF7C5",
"yX c #FEF9DA",
"uX c #FFFCF0",
/* pixels */
"  . % o O O O % % o o % * O * O O % % % o o O 7 6 O * % o o o o % 5 5 % o 6 % o . o % o O + O O % o o % + 5 6 % O * % % o o O 6 5 5 5 5 O o O o + + 5 o O * o   ",
". o % % + + O O O O O @ 6 % * O O 5 % O O O 5 O O O O O + 5 6 6 6 6 % o % 6 7 6 6 5 # + 5 5 + O O O % * 6 5 O O O % % O O O % % 5 O O o + 5 6 7 6 6 5 o O 6 O o ",
"* * % * b 7 O + O * * 7 6 6 7 @ 5 6 + O % * 6 6 + + O O 5 b m m n n % o O 7 n m m b 5 6 7 6 + o O * * b 7 6 6 5 5 6 + o O 6 7 + + + O O 5 6 m m n 7 % o O b 7 6 ",
"% * n m n b 5 + * * * b n m m m n b + O 6 n m b b b b b b b b n n n n 5 + b b b b b b m n b 5 5 6 % % b n n m m n b 5 O 6 n m n b 7 b n n 7 b n n n n 6 O 6 6 o ",
"o 5 7 b n m b b b 7 6 b m m m n n m b b m m m m m n m m n 7 6 7 6 7 n b 7 b b b b 6 b b n m b 7 b 7 6 b m m n n m n b 7 n m m m n m m m m 6 6 7 7 6 m n 6 7 6 O ",
"% % % % b m m m n n b b m n 6 7 b m M m m m m m m m m m b 6 5 6 O 5 n m n 6 b m b 6 5 5 b m m m n n n b m n 7 6 b n m m m m m m m m m m b 5 5 6 + + b m n 6 5 + ",
"o o O 6 7 7 6 7 6 + 5 6 @ 6 n n n n 7 5 6 6 b b n m m n n 6 + 6 o O b m m 6 6 + 7 6 5 6 7 6 6 6 6 @ % 6 6 6 n n n n 6 6 6 6 n n m m m m n 5 5 6 o o b m n 7 o o ",
"o # 5 b 6 + + + + O O + O O 6 n n b 6 6 5 6 + 6 7 m m m m b b b 6 5 n m n 5 O 5 6 5 5 6 6 5 + + O O O + o + 6 n m b 6 6 5 6 + 6 6 n m m m n n b 6 5 n m m 5 X . ",
"o O + 7 6 O O + O O O O + o o 6 n b n m m b + + 6 n m m m m m m b b m M n + + 6 6 6 5 7 6 O O O O O O O O O O @ b b n m m 6 + O 6 n m m m m m m n n m m n o o O ",
"o O 5 7 6 5 + O o + % O % 6 6 b n b n m m n 7 b n m m m n n n n 6 5 6 n n b n m 6 6 + 6 6 6 + O O + O o * * @ b n b m m m m 7 n m m m m n b n n 7 + @ b n b 6 O ",
"o O 5 b n 7 5 5 5 6 6 5 7 b b m m n m m m n n m m m m m 7 7 b n + X o 6 m b n m b 5 + 6 b 6 + + + 7 6 6 6 b n m m n m m n n n m m m m m 7 7 b n + o o 7 m n 7 * ",
"* % 5 m m n 6 6 n m m m b b m m m b m m 6 b n b n m m b O b m m 5 # % n N 6 7 m B n 6 B C B 7 7 n n m m n n m m m b n m 6 b n b b m B b + b m m + o O n m @ % % ",
"O O % 7 m m m 6 5 6 n m b 6 m b 7 n m n n m m b n m m m n n n 7 ; 1 F L | L L | ......O.+.O. .I 2 = * m b 6 m n 6 m m n n m m n n m m m b m m m b 6 n m m 6 O O ",
"o O 6 6 n m m n 5 5 6 m b 6 m b 7 n b 6 n m m b n n n m N z c x K ' :.1.q.q.w.e.z.m.Z.D.D.A.z.:._ I x c s * n 6 6 n b 7 m m m b b m M m B m m n n m m m n b * O ",
"O * b m m m n n n 6 7 n b b b m m b 5 O 6 m m 6 % 6 n n g O.C.V.m.b.b.t.z.Z.S.D.D.T.F.I.D.D.A.n.m.B.L.h.Y = n m n n 5 o 6 n m 6 5 6 n n m m m b 6 6 b b b b 6 * ",
"O 6 m b m m n n m m m b b b n m m 5 O O 5 6 7 + o 6 f R +.x.A.A.A.M.M.Z.A.D.{.=X7X=XQ.Q.E.E.Y.Y.Y.I.I.Z.g.o.U V n @ + + + 6 7 + 5 5 6 b 5 6 n n n 7 b m m m b 6 ",
"O * n 6 6 m n n M m b 5 6 b m m m 6 5 5 + + 6 O * j | h.U.D.M.A.M.b.Z.F.!. X,X9XrX1XQ.U.R.Y.R.Y.Y.D.A.M.I.S.-.Y V 6 5 5 5 + 6 5 5 6 6 5 6 6 n m m m m m n m b * ",
"% 6 6 O O 7 6 b b 5 5 O 5 5 b m m b b 7 7 b m n c d.L.U.I.I.I.S.c.m.D.{.5XtXrX1X XJ.l.l.8.f.c.m.M.A.D.D.A.A.c.7.| V 6 6 6 M m n m m m m m m m m m m m 6 6 b 7 O ",
"% * 6 + + 5 6 6 6 5 5 6 5 O 7 m m m n 7 6 6 M A oX;X1X2X1X4X$XC.Z.S.T.%X5X6X@Xa.<.>.<.6.6.5.6.;.) &.r.A.A.A.b.c.3.R d b 6 7 n m M m m m 7 b n n b 6 b 6 + 6 * * ",
"O 7 m b 7 5 6 6 5 6 6 6 5 O 6 M m m m n 7 * Z XX8XwXwXwXwXeX3Xy.Z.Y.W.%X#Xv.<.{ X.:.5.6.8.8.8.{ r u $.r.m.M.n.b.r.3.Y B 6 6 b m n m B n 5 7 n n * O 6 7 6 O O * ",
"6 6 b m m n n b b 6 5 O O 5 m n b 7 n m m d } [.|.|.|.|.|.(.H.m.Y.E.Y.v.0.{ :.c.L.!.R.h.h.N.U.U.N.6.) 0 $.z.n.m.z.m...f N m m b b m b m m m m m m m m m m 7 6 O ",
"+ 6 n n n m n m m b 6 6 6 7 m m b 6 b b 6 v j.R.W.E.W.E.T.l.l.I.E.Y.c.5.:.3.(.:X5X&XQ.x.8.l.U.E.I.M.6.[ ^ $.,.e.t.b.8.@.V 6 b b n b b b n n n b n n b m m b 6 * ",
"O 7 m n n b n m m m m m m m m m n @ 6 7 7 o.R.E.Y.Y.Y.P.x.l.B.E.Y.c.3.:.0.{.2XeXrX<XR.N.1.>.Z.D.M.M.A.A.&.y ( *.q.t.A.v.k % + m m 6 6 5 5 5 6 6 6 6 % b m b 6 * ",
"O * 7 b m m b 6 b n m m m m m b 6 6 5 = R 7.D.A.A.A.D.b.1.l.S.Y.S.5.:.k.$XrXwX<X.X!.J.c.5.>.Z.D.M.M.A.A.B.<.y ( >.,.t.l.' f n m b 5 5 6 6 6 5 6 O + 7 7 n b 6 O ",
"O * b n n n 6 6 6 7 6 6 n m n b 6 b + s 4.c.n.n.n.n.b.e.,.c.I.I.8.:.g. X<X9X2X}.Y.F.H.C.c.1.z.m.M.M.M.M.D.m.&.W ( >.e.e.6.R n m n + O 5 6 + + O o % n b * b * O ",
"O 6 m m 6 O 6 6 b b 5 + 6 m n b n m = f h.A.t.t.u.t.q.1.q.Z.S.Z.:.:.T.&X*X~.Y.Y.D.J.).T.A.e.6.t.M.M.M.M.M.A.Z.] 0 ;.6.w.b. .a n n @ + O O O O O O % b n n b * O ",
"O 6 n b * o O * m m n n m n b n m m h L 5.t.w.w.e.e.1.,.w.Z.B.-.5.B.E.~.^.Y.I.D.I.(.OXF.A.b.>.6.A.A.M.M.M.M.n.,./ / *.1.e.{ l N m n O O O O 5 6 7 6 * n n m b * ",
"* 6 n b b * O * m m m n n n b m m m Y :.1.w.w.w.1.q.1.1.w.m.5.( f.E.W.W.E.I.D.D.D.(.-XK.M.b.>.w.A.A.M.M.A.M.u.t.>.u ) ,.,.>.' h n m b @ 6 6 b n n n n b b n b * ",
"O * m m m m m m m n 6 5 b n m m n n @.b.e.w.w.w.1.,.1.w.r.w.>./ N.W.W.Y.I.D.D.D.b.@X8X_.n.t.1.w.m.A.M.M.A.n.z.b.q.y ^ >.;.w.6.j b m m m m m m m m m m b 6 b * O ",
"O * b m n * n m b b 6 5 b m m n 7 = | n.e.6.w.w.6.>.,.e.z.[ ( 6.P.W.W.Y.I.I.Y.D.w.-XrX+Xu.u.e.e.t.M.D.A.A.m.u.b.e.) W ) >.e.2.2 @ m m m m m m m m n 7 b b 6 O X ",
"O * b m b % b n n b 6 5 n b n 7 5 ; ' z.e.w.w.w.1.>.;.w.t.i W V.E.U.S.m.m.F.C.J.'.0XuX6X+X/.G.y.,.t.b.c.z.t.w.t.e.>.^ u *.w.:.2 & m m m m b b m n n 6 n m * O O ",
"O b m m n b * b m b + 6 5 6 5 6 = < ' t.w.w.w.w.1.*.%.>.e.i ( P.U.x.q.q.6.9.0.OX8XyXuXyXqX#X).p.,.>.>.>.,.>.,.,.6.w.( y %.,.&.S ; b m m m * 6 n n m m m m n b * ",
"O * n n b * b b b b b O b n b b a S X.w.w.w.w.w.1.;.%.%.>.[ [ 7.V.U.S.V.S.P.C.(.].qXyX6X+X/.p.y.z.z.t.e.w.1.6.,.>.%.^ u [ *.&.H < 6 b m m 7 6 n m m n 6 b n n * ",
"O O b b b b m m @ m n O b n M b s L ;.w.w.w.w.w.1.>.$.) ) *.;.5.h.P.E.E.Y.Y.Y.I.M.>XrX`.u.e.q.e.b.n.b.t.t.e.q.*.$.%./ i ( %.&.Q 4 6 b m m n b n m n b + O m b O ",
"O * * b n m m m m m m m @ @ m b g ' ,.w.w.w.w.1.,.>.%.^ ^ >.c.U.h.5.D.A.M.M.A.A.M.#X6X`.u.e.w.w.w.w.w.w.e.1.>.) &.z.>.W W ) %.] P n 7 b m n n m n b b b n m * o ",
"o O * O = n b b m m m n @ b n M f X.1.e.w.w.e.w.1.>.%.^ u ;.S.E.B.8.h.c.b.u.b.M.M.$X>X_.n.w.q.w.1.1.6.e.1.%.) *.w.b.1.( u ( &.$.I n 6 6 b 6 b m m n 7 b m m O . ",
"O O O O O b b b m m n O 6 b n M z X.1.1.1.1.1.>.>.>.&.i u :.S.Y.A.b.f.l.z.e.e.b.b.].#XG.t.1.1.w.e.w.w.1.%.) $.1.b.b.,.#.u ^ %.%.K m 7 6 + 6 6 n m m b n m m O o ",
"* % o * O O b b m m n n 6 b n b > ! $.$.$.$.$.) *.,.$.i u :.B.m.A.M.c.x.x.t.w.6.w.s.'.y.q.w.w.w.w.e.,.) ^ $.t.t.z.b.1.[ i ^ [ %.K m m n b n m 7 O * m m m b b O ",
"* * * b b b * b b b b n b b b b s ! #.#.) ) ) ) &.,.$.u y :.c.z.b.m.n.c.x.x.e.q.1.i.s.2.q.w.w.w.6.=.) ^ $.1.u.u.t.t.1.$.u W ) %.K n m n b n m b % * n n * 6 * 6 ",
"o * b b n m b b b O b b b b b b h ( $.#.$.$.$.[ *.,.$.u y :.l.z.t.t.n.u.z.x.l.e.w.i.i.w.q.w.w.w.,.( i ) 6.b.t.t.t.e.>.[ u W ) %.T n b b n n n m * * n 6 O * O O ",
". % m n b n n n n 6 6 n m n M b g ! $.$.) $.[ ) *.,.[ i y &.r.t.t.t.t.t.e.1.l.c.q.q.w.w.w.6.w.1.*.^ / q.t.t.t.t.e.w.>.) u i ) %.J n m m b 6 b b n n n b b m b O ",
"o % * * * n 7 * 6 6 6 n b b b @ s ! $.$.$.$.$.) &.,.[ i y { 6.t.u.t.t.t.e.,.l.B.e.q.w.w.w.w.w.q.>.^ ) z.b.t.t.e.w.1.;./ i i ) &.J 5 5 6 5 b n n m n 7 * * n b O ",
"* * * * b b O O O 5 6 6 6 7 6 @ > Q $.[ $.[ $.) %.,.[ i y [ ,.e.t.t.t.t.e.q.l.Z.u.w.1.w.w.w.w.w.,.W / t.t.t.e.6.1.w.%.^ i p / $.I % O + 5 b M m n b % O O b 7 O ",
"o * n N n n O O 6 5 + 7 n m m n g G ) $.$.$.$.) %.*.) W u ) ;.1.t.t.t.u.t.>.x.Y.M.t.6.w.q.1.w.e.1./ / 6.e.w.1.1.1.1.%.W i ( ) ] I 7 b n n b b n n n b * % b * O ",
"O 6 b b n m n b n 6 6 7 m m n n s H ( $.#.$.#.) $.%.) ^ W ( %.>.t.t.t.u.t.<.x.I.M.t.q.1.,.>.>.1.1.) ) ;.1.w.,.1.1.1.) u W / ) ! P m m m n 6 6 6 6 7 n b 6 7 @ O ",
"O O O O b m m m b n n n m m b 7 : w Q $.$.[ $.$.$.%.) ( ^ W ) >.w.t.t.u.z.f.c.A.b.t.6.>.&.%.%.*.;.$./ ) >.w.1.w.q.>./ y i ) [ G k m m n n 6 5 6 + + n m n 6 5 5 ",
"O O @ 7 b b 6 6 6 5 5 6 + 6 n n a 1 G $.$.$.[ $.$.%.$.) ^ u ( ,.1.w.t.t.e.N.V.M.t.e.,.( u i $.*.%.%.) ( >.w.1.1.,.>.^ y i ) [ S > m m m n 6 5 6 o o 7 m m 7 O X ",
"o o O 6 7 O O O + + o + O + * n n ; H *.$.$.$.$.$.$.$.) i y W >.>.,.e.q.r.L.S.n.t.>.&.) ( ( / ) $.%.#.( *.1.6.,.>.&.^ y i %.&.4 & n m m m b b 6 6 6 n m n + o . ",
"o o * * 6 O O O O O O O + O o 6 7 & J =.%.$.$.$.$.$.&.$.p y u %.*.>.,.>.5.U.D.u.e.%./ >.1.;.^ i ) %.$./ %.>.1.>.$.) W u i =.>.< @ n m m m m m m m n m m n O o o ",
"o O * * 6 * O o O + + o 5 6 @ 6 n 7 J %.) ( ( / ^ ( %.%.^ i i ^ %.*.>.&.5.E.S.q.%.&.>.1.w.,.>.$.( ( ) / $.%.>.>.%.i u ^ ( =.1.j b m m m n n n n 6 O @ n m b 6 O ",
"O O * n n b % % 5 7 6 6 7 b n m m n P ( ^ W ^ i i W %.%.( ^ i u [ =.&.:.f.V.l.>.%.;.w.q.1.w.w.,.$./ ( / ) $.*.*.$.y u ^ / *.-.z M m m n 6 7 b n + o o b m b 7 * ",
"* % % m m m 7 6 b n m m n b m m m n g H i ^ W ^ W W [ [ ) / u r / %.%.8.N.l.*.[ ,.w.6.q.1.1.6.6.w.>./ ^ ( %.*.&.( u u ( $.! D : n m m b O n m m 5 o O n m 5 O 5 ",
"o O % n m m m b 5 6 n m b 7 m b 7 n : 4 ( #.W ^ ^ W ( [ %.( i u i ^ $.:.7.;.$.%.>.>.>.>.>.,.>.,.>.;.&.) ^ / *.( u i W / ,.` 3 7 n m m m n n m m b 7 n m m 6 5 o ",
"o % * * n m m n 5 + 6 m b 6 m 6 6 b 6 : ! ) W W ^ ^ W [ *./ ^ ^ y u ) &.*.$.%.*.&.%.*.*.;.*.*.*.*.%.*.%.) ) ) u 0 ^ ( ) ,.@.M 6 b n m m m m m m n n m m n b 5 + ",
"O * n m m m n n n 7 6 m b b b m m n 5 # t Q p ^ W W i / %.) ( ^ u u u [ >.%.*.*.*.*.*.*.*.*.*.*.*.*.%.%.>.$.y y i ^ / $.] U M 6 % 7 n n m m m b 7 6 b b 6 b 7 5 ",
"o * m n n m n n m m n b b n n m M 6 O # < H #.( W W W ^ ) &.$.W ^ i y W [ ;.;.%.*.*.*.*.*.%.*.*.*.*.;.;.[ W y i ( i *.>.P ; 6 5 + @ 7 6 6 7 n n n b b n m m b 6 ",
"O 7 n 5 b n n b m m b 6 6 b m m n 6 % O O l $.( W ^ ^ W W %.%.( ^ ^ u u i $.%.%.*.;.*.*.*.*.*.*.*.*.&.$.i y i W ^ / =.-.: + 5 5 5 6 6 6 5 6 n m m m m m m m n O ",
"5 5 6 + + 7 6 7 b 5 + 5 + 5 b m m m n 7 6 s S ! / W ^ W W / [ [ / i ^ i u y ^ &.*.;.*.*.*.>.*.=.;.$.^ y y i ^ p / *.` l 7 b m M m n m m m m m m m m m 6 O n b * ",
"O 6 b 5 + 6 6 6 5 5 5 6 O O b m m m n n 6 * 3 ~ ( ^ W W W ^ ) &.) ^ ^ ^ i u u ^ ^ / ) ) $.[ ) ( ^ W u y i ^ W ( ) &.T : 7 6 n m m m m m 7 b n n 6 6 n * O 6 6 * ",
"o 6 n b 6 6 6 6 5 5 b b 5 5 7 m m n n n 6 6 : P ~ ^ ^ ^ W i ^ $.%.) ^ ^ ^ ^ u r y u i ^ ^ W i u 0 y i ^ ^ ^ ( [ &._ z m 6 6 7 m m M B n 6 6 n n * O 6 b 6 O O * ",
"6 6 b n M m n b 6 6 + + o 5 M n b 7 n m m n m N l ! ( ^ W ^ W W $.%.[ ^ W ^ ^ p i i i i i i i p i ^ ^ ^ p ^ $.*.' g n m m M m n b m b m m m m m m m m m n * * * ",
"% 7 n m m n n m m b 6 7 6 7 m m b 6 b M n 7 7 b s P G W / W i i ^ ) $.$.) ^ W ^ ^ ^ ^ i i i W ^ ^ ^ i ^ #.%.] _ x 7 6 n b b 7 n n b b b n b n n m n n m m b = * ",
"O * m n b n n m m m m m B m m m n 5 6 6 6 5 5 m n 7 4 H ^ W u i u u ( %.%./ ^ ^ ^ ^ ^ ^ ^ ^ ^ ^ ^ ^ ^ / *.-.J j b 5 5 6 6 5 5 n m 6 7 5 5 5 6 6 6 5 % n m n * * ",
"% @ 7 b n m b 6 b n m m m m n b 6 6 5 5 5 5 b M 7 % 7 ; 1 t p i u y u u ( &.*.%.#.) ^ ^ ^ ^ ^ / #.>.,.;.L f V 7 5 6 5 5 5 6 n m b + 5 6 6 6 5 5 O O 7 b n n * O ",
"% * b n n b 7 6 7 b 7 6 b m n 6 6 b 7 6 7 b m m n O + + # 1 q q 8 8 9 0 u ( $.#.) [ ) ) #.) / ! E ~ _ J f 7 n 6 6 b 6 6 6 b m m b O + 5 6 5 5 + o O b b b b * O ",
"O 7 m m 6 O @ 6 b b @ + 6 m n n M m n b n m n m b 6 + + % % % # $ , 8 e e e e t Q ( ] ] ] ] ! D 4 ; % % 7 n b n n m n n m m n m b 6 O + o + O O O * n n n * * * ",
"O * n b @ o O 6 m m m n m m 7 n m m m m m m n n n n 6 o o + 5 5 * : ; > > s g g h h h f g > - : s m n n m n b n m m m m m m n m m n 5 o o + 5 6 * b * b n n b * ",
"O b n n 7 6 O 6 m m n n m b 6 n m n m m m b b n m m 7 @ 5 7 b b n n n b b m n n n b n 6 6 @ O 6 m m n n m n b n m m m m n b 7 n m m b 6 6 7 7 n n n n b n n * * ",
"O b n m m m n n m b 6 * b m m m m n b n b 6 5 b n m m n m m m m m m m n 6 7 b n b n m m m m m n m b 6 5 b m m m m n n n b 6 % b m m n m n m m m m m m n * n * O ",
"O O n m n 6 n m n n 6 + n m m m b b 6 6 n m b 6 b m m m m n m m m n b b b 6 @ 6 6 b b m n 6 n m b b 7 5 b m m n b b * 6 n m n @ 7 m m m m m m m m n b n n * o o ",
"O O n m n O b n n b 6 6 6 n n b 7 b 6 6 m m b 6 b n m m m b b m n b b n m 6 6 7 b b b m b @ b n n b 6 5 6 n n b * b 6 6 m n n 7 b n m m m b b n n n b n n b O o ",
"O b m m n b * b m b O O * * * O 6 b m m b + O m m b m m m 6 6 n n m m m m n m m m m m m n 6 * b m 7 + 5 6 6 + 6 6 n m m b * O n m b m m m 6 6 n n n m m m n b * ",
"O * n n b 7 6 b b b * O b n 7 b b n b 7 b b b n n 6 n m m 7 6 n m n n * * m m m n n n n b 7 7 b b b 6 + 7 n 6 6 b n b * b n n n b 6 b m m b 6 n m m n 6 b n n * ",
"O * b n b b m n 6 n n 6 n m n n n n 6 5 7 m m 7 5 5 b m m n n n m n b * * m m n b 6 b 6 b b n n 7 n n 6 b m m n n n b * b n n 7 @ 6 b m m n n n m n n O O m n O ",
"O * * * b m m m m m m m @ * m n b m m b b b 6 + 6 7 7 b m n n m n b * b n m b 7 b 7 7 6 b m m m m m m m 6 @ m n b m n n b b 7 + 6 b 7 b m n n m n b b b m m O o ",
"O O O * 7 m n n m m n n 6 6 m m m m n n n n 6 5 6 n 6 6 b 6 b n m m b b m m * % b 6 @ + 7 n n n m m n b 6 6 m m m m n n m b 6 + 6 n 6 6 b 6 b n m m * b m m O X ",
"O O O O * * b b m m n * * n n m n b 7 b m m b 6 b n 6 6 @ 6 6 n m m n n m n 7 @ b 6 O + 5 6 6 b m m n * * n m m n n n 7 m m b 7 7 n b 6 5 6 7 n m m n m m n O X ",
"* O O * * O * b n m n b * b n 7 6 6 6 6 m m n b n m m m b m n 6 O * m m m n n m m 6 O O 5 5 7 b m n n b 6 b n 6 5 6 % 6 m m n b n n m m 7 n n 6 O * m m m n b O ",
"O o O O O O * * O O * * * * * * 5 % + 6 6 6 6 6 6 6 7 6 6 7 b 6 o o 6 @ O O 6 6 7 * O O 5 % % % O O O * * * * * % % % 6 6 6 6 6 6 7 b 6 6 6 6 6 O o * * O O O O ",
". X o O * * O O O o o O O O O O 6 % 5 % o o O 6 6 + O O + O 5 + o o O o . o O O O O O O % 5 % o O o O O O O O O 6 % 6 % o o O 6 @ O O O + O + 6 o X O o . X X . "
};
