/* XPM */
static char *Group_6_3__resized[] = {
/* columns rows colors chars-per-pixel */
"80 80 225 2 ",
"   c #315717",
".  c #37631B",
"X  c #39661B",
"o  c #37691E",
"O  c #3D6D1D",
"+  c #3F711F",
"@  c #3E7320",
"#  c #3F7822",
"$  c #476C1A",
"%  c #586C13",
"&  c #41751F",
"*  c #4B731B",
"=  c #43781F",
"-  c #4B7A1E",
";  c #5A7717",
":  c #527319",
">  c #537B1B",
",  c #5B7C1A",
"<  c #75780E",
"1  c #616B10",
"2  c #637A15",
"3  c #637916",
"4  c #6C7B13",
"5  c #787D11",
"6  c #417620",
"7  c #457C21",
"8  c #4C7F20",
"9  c #877107",
"0  c #857C0B",
"q  c #957304",
"w  c #9B7503",
"e  c #987C06",
"r  c #A37500",
"t  c #AA7600",
"y  c #A67900",
"u  c #AB7C00",
"i  c #4F821F",
"p  c #54861F",
"a  c #5C841D",
"s  c #5D891C",
"d  c #6B8116",
"f  c #63841A",
"g  c #688318",
"h  c #638D1E",
"j  c #6A8B1B",
"k  c #738715",
"l  c #7C8412",
"z  c #7A8C15",
"x  c #66931E",
"c  c #789617",
"v  c #7AA11B",
"b  c #478122",
"n  c #498423",
"m  c #478825",
"M  c #4C8A24",
"N  c #528621",
"B  c #538B22",
"V  c #5A8D21",
"C  c #5B922D",
"Z  c #7CA139",
"A  c #8E860C",
"S  c #92830A",
"D  c #98890A",
"F  c #9D970D",
"G  c #858B12",
"H  c #898C11",
"J  c #8D9312",
"K  c #8B9512",
"L  c #859B15",
"P  c #959A11",
"I  c #A18405",
"U  c #AE8100",
"Y  c #A68A06",
"T  c #AA8A05",
"R  c #B28300",
"E  c #BA8600",
"W  c #B68901",
"Q  c #BB8C00",
"!  c #A69309",
"~  c #A29A0C",
"^  c #BE9201",
"/  c #B49A06",
"(  c #BC9B02",
")  c #B29708",
"_  c #9FA00F",
"`  c #88A317",
"'  c #95A714",
"]  c #ADA30C",
"[  c #AAAA0E",
"{  c #B1A40B",
"}  c #B2AC0D",
"|  c #A9B50C",
" . c #B8B90B",
".. c #C18F00",
"X. c #C29300",
"o. c #C89500",
"O. c #C39A02",
"+. c #CB9C00",
"@. c #D39E00",
"#. c #C3A205",
"$. c #CEA202",
"%. c #C6AA03",
"&. c #CBAA04",
"*. c #D4A400",
"=. c #DBA500",
"-. c #D3AD02",
";. c #DBAC00",
":. c #D0A308",
">. c #C9B207",
",. c #D4B201",
"<. c #DDB201",
"1. c #D6BB00",
"2. c #DCBB01",
"3. c #D6B60D",
"4. c #D8BA10",
"5. c #E1AD01",
"6. c #E3B300",
"7. c #E9B500",
"8. c #E3BB00",
"9. c #EBBC00",
"0. c #E6B40A",
"q. c #F0BD00",
"w. c #F1BE0E",
"e. c #E1AF17",
"r. c #E6B713",
"t. c #DEAD20",
"y. c #D5AF2E",
"u. c #E3B725",
"i. c #E6BE35",
"p. c #BDC20D",
"a. c #BCCC0E",
"s. c #DBC201",
"d. c #DACB04",
"f. c #D8C60A",
"g. c #D3C90E",
"h. c #E3C201",
"j. c #ECC300",
"k. c #E4CB00",
"l. c #EEC900",
"z. c #EFC80C",
"x. c #F3C300",
"c. c #F8C602",
"v. c #F5CB01",
"b. c #FCCC00",
"n. c #E5D303",
"m. c #ECD301",
"M. c #EBD900",
"N. c #F3D401",
"B. c #FDD300",
"V. c #F4DB00",
"C. c #FEDB01",
"Z. c #FAD80D",
"A. c #E9C815",
"S. c #EDDB19",
"D. c #F4DA18",
"F. c #EEE300",
"G. c #F2E401",
"H. c #FEE301",
"J. c #F3EB01",
"K. c #FDEC01",
"L. c #FEE30D",
"P. c #FFEC08",
"I. c #FEF200",
"U. c #FCF507",
"Y. c #FFFE01",
"T. c #FAE81A",
"R. c #FBF516",
"E. c #DAC329",
"W. c #EAC32C",
"Q. c #F8CB26",
"!. c #EFDE25",
"~. c #FCD928",
"^. c #E7C830",
"/. c #FADB3A",
"(. c #FBE72B",
"). c #FBF828",
"_. c #FFFF2B",
"`. c #FFE83D",
"'. c #FEFA39",
"]. c #8CAB56",
"[. c #EAC54B",
"{. c #FBD646",
"}. c #EFD359",
"|. c #FAE64A",
" X c #FAF543",
".X c #ECE45E",
"XX c #FBE754",
"oX c #FEF559",
"OX c #C5CD68",
"+X c #E8CA63",
"@X c #EFDD6C",
"#X c #F1D269",
"$X c #EBD677",
"%X c #F3DA78",
"&X c #FFEB6B",
"*X c #FDF66A",
"=X c #E1E679",
"-X c #FAEA74",
";X c #FFF572",
":X c #FDFA71",
">X c #FFFF7C",
",X c #F0D88F",
"<X c #F2DE9D",
"1X c #FFEC8E",
"2X c #FFF583",
"3X c #FEFD84",
"4X c #FFFF8F",
"5X c #F7E59A",
"6X c #FDE99A",
"7X c #FFFC9D",
"8X c #EEEFAD",
"9X c #F8EAA5",
"0X c #FEEDAA",
"qX c #FAEBB4",
"wX c #FFFCB5",
"eX c #FDF4BD",
"rX c #F8EDCB",
"tX c #FFF6C7",
"yX c #FFFEC3",
"uX c #FEF8CC",
"iX c #FEF8D7",
"pX c #FEF9DD",
"aX c #FFFAE6",
"sX c #FFFDF3",
"dX c #FFFFFC",
/* pixels */
"  . & O + + + & & O O & = = & + & & & & O O & 7 & & & = O O O & O 6 6 & O 6 6 O . o & O O & + & & O O & 6 & = & + & & & O O & 7 6 6 6 6 & O & O & 6 6 O & 6 O   ",
". O & & 6 6 + + + + & 6 6 = = + @ 6 & & O O 6 6 & + 6 O 6 6 7 7 7 6 6 O & 6 7 7 6 6 & & & 6 + + + + & = 7 6 6 & + & 6 + O + & & 6 + & O O 6 6 7 6 7 6 O 6 7 & X ",
"= = & = 7 7 & + & = = 7 7 7 7 6 6 7 6 + & 7 7 7 6 @ O O 6 b M M n b 6 & 6 7 n B B b 6 7 7 7 + + & & = b 7 7 7 6 6 6 6 + & 6 7 6 6 6 O & 6 7 M M M b 6 O 6 7 7 6 ",
"& = n M M 7 6 6 = & = b n M M M n 7 6 @ 7 n n b 7 n b n n b b n n n b 7 6 b n b b n n n M b 6 & = & = 7 n n M M n n & O 7 n M n 7 7 n b 7 n n M n n b 6 6 7 6 & ",
"O 6 b b n M n 7 7 7 7 n M M M M n n b b n M M M n M B M n 7 7 7 7 7 n b 7 7 b n n 7 n 7 n M n n n 7 7 n M M M n n n n 7 n M M M M n M M M 7 7 7 7 7 M 7 7 n 6 6 ",
"& & 6 6 b M M M n n n n M n 7 7 b M M M M M M M M M M M n 7 6 7 O 6 n M n 7 b M n 7 & 6 b M M M n n n n M M b 7 b M M M M M M M M M M B n 7 6 7 & 6 n M n 7 6 6 ",
"O O + 7 7 7 7 7 7 6 6 6 6 7 n n n n 7 6 7 7 n n n M M n n 6 6 7 O 6 b M n 7 7 6 7 7 & 7 7 7 7 7 6 6 6 6 6 7 n n n n 7 7 7 7 m n n M M M n 7 6 7 $ @ 7 M M 7 O X ",
"O $ 6 7 7 & 6 6 6 + + @ @ + 7 n M b 7 7 7 6 6 6 7 M M M M b b b 7 6 n B n 6 @ 6 7 6 & b 7 & & @ & + + @ + + 6 n M b 7 7 6 7 6 & 7 M M M M 7 b n 6 6 n M M 6 o X ",
"O + 6 7 6 6 O @ + + & O 6 @ O 6 n 7 n M M 7 6 + 6 n M M M M M M b b M M n @ 6 7 7 7 6 7 6 + @ + + + & + + + + 6 b b n M M b 6 + 7 M M M M M M M n b M M n + O O ",
"O + 6 7 7 6 6 O O @ & O 6 6 6 b n n M M M n 7 n M M M M n n n n 7 6 7 b n b n n 7 7 6 7 7 6 + + + + + + + 7 6 b n b M M M n 7 n M M M n n n n n 7 6 6 n n b 7 & ",
"+ + 6 b n 7 6 @ 6 6 7 7 7 b n M M n M M M n n M M M M M = 7 n m 6 o O 7 n b m n 7 6 @ 7 b b @ 6 @ 6 = = b m n M M n n M M n n M M M M n 7 7 b n 6 o O 7 M n 7 = ",
"= & 6 M B M 7 7 n M M M n n M M n n M M 7 b M 7 n M N n & n M M 7 $ 6 n B 7 8 B B N 7 B V B n - M B M M n b M M M n M M 7 7 M 7 n M M b 6 8 M M 6 O + n M 6 & & ",
"O + & 7 M M M b 6 7 n B b 7 M b 7 n M n n M n n n M M M n m V L _ ] { } } { ] ] [ }  . .g. . .} [ z p M b b M b 7 n M n n M M n n M M M n M M M n b n M n 7 & + ",
"O & 7 7 n M M n 6 @ 7 M b 7 n n 7 n n 7 M B M n n n n M M x ' >.h.c.c.b.c.x.x.9.j.Z.Z.H.H.K.H.B.h.{ K v p = n b 7 M b 7 M M M n b n M M M M M n n n B M n n 6 & ",
"& = n n M M n n n 7 7 M n 7 b M M n 6 @ 7 n M 6 6 7 n b B p.V.N.b.b.b.b.b.x.b.V.C.T.(.R.U.I.K.B.c.v.V.n.c = b M M n 6 O 7 n M 7 6 7 n n n M M b 7 7 b 7 7 n 7 6 ",
"& = M n M M n n M M n n b n n M n 7 @ O 6 7 7 @ & 6 @ x  .m.B.b.b.b.b.b.b.N.C.L.*X2X:X).U.I.I.K.H.H.C.N.f.' M n n 7 6 O 6 6 7 6 6 7 7 7 7 b n n n b n n M M b = ",
"O 7 n 6 7 M n n M M n 7 7 7 M M M 6 6 6 6 6 7 6 # 7 s | J.C.b.B.B.B.B.x.x.C.T.|.7X8X-XT.G.G.G.G.H.H.C.b.C.d.v V b 7 & 6 6 & & 6 7 7 7 7 6 7 b M M M M m M M 7 = ",
"= = 7 O 6 7 7 n n 6 + + 6 6 n M M M n 7 7 n n M m V a.J.I.I.I.I.I.K.J.N.v.L.2XyX*X/.A.3.%.%.&.,.7.N.C.B.v.v.d.` M b b 7 b m n M n M n M M M M B M M M 7 6 n b = ",
"& 7 7 & 6 6 7 7 7 6 6 7 6 + 7 M M M n 7 7 b n M C ].=X4X3X3X3X3X4X;X!.m.G.R.oX-Xy.>.,.4.3.%.1.-...^ <.C.B.c.v.[ j M n n 7 7 M M M M M B b b n M 7 7 b 7 & 6 6 @ ",
"O 7 M n 7 7 7 6 6 6 7 b 6 + 7 M M n M n 7 7 7 b Z OX8XyXyXyXeXyXiX9XW.N.P.R.L.s.#.#.4.S.A.*.M.s.W w W 8.v.c.j.,.F V n n 7 7 n n M M M n 6 7 n n 7 6 7 b 7 @ & * ",
"7 7 b n n M n n b 7 6 O & 6 M n n b n M M M M 7 ' R.)._._._._._.).!.z.G.I.H.,.( s.!.`.'.A.( M.I.M.8.O.w *.v.9.v.g.a b M M M M n b n n n M M M M M n M M n b 7 = ",
"6 7 n M M n n n M b 7 7 7 n M M n 7 7 m M 7 n z  .I.I.I.I.I.I.I.n.k.V.K.H.1.%.3.|.:X:X XE.#.n.K.H.B.<.W Q +.8.b.s.J a n n n 7 n n n n b n n n b n n b B M b 7 = ",
"& 7 M n b b n M M M M M M M M M n & 7 b # @ >  .m.C.C.H.C.C.H.C.7.2.K.K.k.{ 4.`.7X7X:X.X^.<.j.v.b.B.B.j.W r *.7.6.#.z b 6 & & M n 7 7 6 6 6 7 7 7 6 6 n M n 7 6 ",
"& = 7 b M B b 7 b n M n M B n b 7 = = # + + s g.K.B.B.B.B.B.B.x.6.8.I.n.,.2.@XwX>X X).$X}.v.2.9.b.b.B.B.=.^ ^ *.9.x.P O 6 7 n M b 6 6 7 7 7 6 6 6 6 7 7 n n 6 6 ",
"& = 7 M m b 7 7 b 7 7 7 n M n b 7 b 7 6 7 - z d.C.v.x.x.v.v.j.6.<.j.K.s.%.S.oX3X'.P.T.5X%Xb.,.<.B.B.b.B.l.=.u X.7.v.~ * 7 n n B n + 6 6 7 6 6 + + + b b 7 i = + ",
"+ 7 M M b + & 7 n 7 6 6 7 M n b n M n n n j D ,.9.7.7.7.7.7.6.=.6.l.N.1.>.T.R.U.P.H.D.eX1Xc.=.-.B.B.b.B.C.8.r Q <.9./ 4 B n M M n 6 + + O @ + & + & b m b m = + ",
"& 7 n 7 + + O = M M n n M n b n M M M M M L &.<.6.6.6.6.6.6.;.;.j.j.-.2.M.U.Y.I.H.B.(.tX6Xc.=.<.B.B.b.b.B.9.X.^ +.;.$.~ V m n M n n 6 O O @ 6 6 6 7 7 b m m 7 + ",
"& 7 n n b 7 + = M M n M n n b M M M M M n ' j.7.<.6.6.6.6.;.;.<.x.8.W 1.I.Y.I.K.C.B.`.iX6Xc.=.;.v.B.B.B.c.9.;.^ R *.6.&.h b 7 n M M n = 7 7 n n n n b b i n i = ",
"+ = m M M n M M M n 7 6 n n M M M n m b = _ v.7.6.6.6.6.<.;.*.;.v.6.y 1.Y.Y.K.B.C.~.&XpX0XQ.0.0.9.c.B.b.v.x.q.Q r @.q.3.f @ 6 b M M M n n M M M M M M n 7 b = & ",
"O & i M n 7 n M n b 7 6 b M B n n 7 7 = - _ v.7.<.6.6.6.6.=.*.=.6.;.Q k.Y.I.H.C.T.&XuXsXaX0X}.u.r.v.C.C.x.x.x.o.u o.7.,.j 7 m 7 b M M M M M M M M n 7 n n 6 + X ",
"+ & n M b = b n n b 7 6 7 b n 7 7 7 7 7 > ~ 9.7.6.5.6.6.6.=.$.*.+.+.;.m.G.D.~.XX-XeXdXdXdXdXqX$X[.^.A.x.7.8.9.+.R ..=.&.4 - b = b n M M M n n M n n 7 M M 7 + O ",
"& n M M n = = n M b 6 6 7 7 6 7 7 n M N 3 ! 7.6.6.6.6.6.6.=.*.$.Q X.8.k.f.y.+X8XiXsXdXdXdXsXiXrX9X+Xy.:.+.*.;.+.Q R +.$.< $ & n n n M M M = = n n M M M M n 7 = ",
"& = n n 7 7 7 n 7 n 7 6 b n 8 7 b n b - 5 / 6.6.6.<.6.8.6.=.*.+.R W 1.M.G.S.(.|.XX9XpXdXaX0X+X[.{.W.r.5.6.;.+.o.Q u ^ O.0 ; i n b 7 n M M 7 7 n M M n 7 7 M b = ",
"O & n 7 n n M n 7 n b 7 b n M n n n 7 > A O.6.6.6.6.6.6.6.=.+.+.u R h.M.G.I.K.C.b.{.9XaXtX#Xe.5.7.q.x.q.7.;.X.+.+.r E O.S d M 7 6 7 b M M n b n M n n 6 & M b & ",
"+ & 7 7 n M M M M M M M 7 7 M n n M m p ! $.6.6.6.6.6.6.<.=.+.+.t ^ J.d.,.B.C.B.b.Z.{.iX0XQ.0.;.6.6.7.7.;.+.X.<.<.r R O.I k = = 6 b 7 b M n n M n n 7 n n M = O ",
"O & & & 7 n n n M M n b 7 7 M M n M m s / ;.6.6.6.6.6.6.<.=.+.X.u X.J.V.6.k.j.9.c.c.~.uX9Xz.7.5.5.6.6.;.X.X.;.x.6.u u X.W l 7 6 7 n 7 7 b 7 b M M n 7 b n M = . ",
"& & O & 6 7 7 b M M n 7 7 n n M n n b a / =.;.;.;.;.;.=.;.*.+.^ u O.J.H.x.s.s.7.7.q.Q.uX9X0.5.6.6.6.;.+.Q +.x.c.6.u u X.^ z 7 7 7 M 7 7 6 6 7 M M n n n n M + o ",
"& & + & 6 6 7 n M n n n 7 n n 7 6 7 # > Y X.X.^ Q X.X.Q Q $.+.E u ^ V.C.c.7.k.m.5.=.t.rX<X;.5.6.6.;.O.U +.6.9.x.6.u u Q ^ K n n 7 M C n 7 m M 7 & = M M M n 7 = ",
"& & & 7 b 7 b 7 n 7 7 n n 7 b 7 b 7 7 a Y ..Q Q ^ Q ^ Q Q +.+.E u X.m.N.x.x.j.h.9.5.t.qX,X=.5.6.6.X.W Q ;.x.9.x.;.u u ^ ^ J n n M n M M n M M 7 & & M n = 6 6 7 ",
"+ & n n n n n 7 7 6 7 n n n 7 n M n M V T X.X.X.X.X.X.Q Q @.+.W u ^ l.x.9.v.8.<.q.7.t.<X$X5.5.6.=.R R =.9.j.9.9.=.u u Q X.H n M M n 7 n n 7 n M 7 = n = + = = + ",
". & n 7 n n n n n 7 7 b n M M n n n m V Y X.X.X.X.X.X.^ Q *.+.R u Q j.j.9.9.9.7.2.<.e.%X+X5.6.;.+.W o.9.x.j.7.7.$.u u W ^ H n M M M M M 7 7 7 n n n n 7 b M 7 O ",
"O & 7 7 7 n 7 7 7 7 7 n b b b 7 7 n 7 , Y X.Q X.^ X...Q Q +.+.W u Q 7.j.9.9.q.q.1.<.r.+X[.5.6.;.+.W +.x.x.7.6.6.$.u u Q ^ z 7 b 7 6 7 7 7 7 n n n n 7 6 7 n 7 6 ",
"= & & = n 7 & O & & 7 7 7 7 7 6 6 7 @ : D Q X.X.X.X.X.Q X.+.+.W y Q <.9.9.9.9.9.h.7.w.[.i.5.6.6.=.Q o.j.9.6.;.;.$.y u W W l 7 6 6 6 O & 6 n M M M b & & 6 7 7 7 ",
"& = M M n 7 & & 7 6 6 7 n M M n b 7 @ * S W X.X.X.X.X.X.X.o.+.W u R ;.9.x.9.7.7.k.v.q.W.u.;.;.6.;.W Q x.7.;.;.;.+.u u W Y z M n 7 n 7 b n 7 n n n n n 7 6 7 6 O ",
"+ 6 7 n n M b b b 7 7 n M M n M n m b > 0 U X.X.X.X.^ Q ^ o.X.W y U *.6.9.9.6.6.m.N.x.r.e.=.*.=.=.W E 6.;.;.6.;.o.y U W D k M M M n M M M 7 7 7 7 7 n b 7 7 7 6 ",
"& & 6 6 7 B M M n b n n M M 7 7 b M M B 5 I X.X.X.^ X.X.X.o.X.W u u *.6.9.9.;.-.V.C.x.7.*.X.X.+.$.Q Q +.;.<.<.*.Q y U W 0 2 M M M M M B n 7 6 7 6 & b B M 7 6 6 ",
"O O 6 6 7 7 7 7 7 6 6 6 6 7 n n n n 7 - % e X.X.X.X.X.^ X.X.^ Q y U +.;.6.x.<.,.G.N.7.;.^ r Q +.+...Q +.*.<.;.+.W u E W < * b b n M M M n 7 6 7 O & 7 M m 7 $ X ",
"O O 6 n 7 @ 6 6 6 O @ 6 @ @ 7 n n b 7 & % A +.o.X.X.X.X.o.X.X.Q u u o.+.;.q.8.1.V.N.6.+.Q R R Q o.X.X.X.=.6.*.X.U u ..( 1 * 6 6 7 M M M M 7 b 7 6 7 n M n 6 o X ",
"O + & b 7 + + + + + + + @ + O 6 n 7 M M 8 S @.o.^ X.X.X.X.X.X.X.W u R X.=.6.s.d.N.x.;.W +.<.W U Q o.^ Q =.<.$.W u u @.O.g 6 # O 6 M M M M M M M M n M M n & O O ",
"O $ = = 7 & + + O + & O & 7 6 b n b n M n J @...W W W W W W Q +.Q u r ^ @.+.1.M.v.;.X.$.;.<.=.^ U W E W +.;.*.R r U @.&.j b 7 b M M M M n b n n 7 6 6 b M b 6 6 ",
"+ + & b n n & & 6 7 7 7 7 b n M M b M m n G ..R R u u R U u W +.Q u r Q +.E s.F.6.+.o.;.6.;.6.=.Q W R W o.+.+.R r u @.&.h b n M M M M n 7 7 n n 6 o & 7 n n 7 6 ",
"= & 6 n M M 7 7 n n M M n n M M M b M M 7 k W R R R R R U u W +.Q u r E X.R s.F.Q o.6.6.;.;.<.6.6.X.R Q Q X.Q u u W X.! > 7 M b n M M n 6 7 M M 6 o & n n 6 6 6 ",
"+ + = b M M M 7 6 7 n B n 7 M b 7 M M M M 3 0 I R R U R U u R X.X.W u u R ^ %.,.o.+.=.*.*.*.*.=.=.+.Q W ^ Q u u W ..Y 5 B M M n n M M M b M M M n 8 M M M 7 6 & ",
"O + 7 = n M M m 6 @ 7 M b 7 n b 7 M 7 7 M 8 4 T E R U R R R R Q Q ..R u u ^ X.X.+.+.+.O.$.+.$.+.+.+.+.Q Q R r u E :.D : n M M n n n M M M M B n n n M M n 8 6 6 ",
"+ = n n M M n n n 7 7 M b b b M M 7 @ + 7 b h ) ..R U U U R U U X.X.R u y R X.+.+.+.+.+.+.+.+.+.+.+.+.$.Q u u u ..5.H $ 7 M M 7 6 7 n n M M M b 7 7 n 7 7 n 7 6 ",
"+ = M n n M n M M M n b n n n M M 7 @ + 6 6 > S R R U R R U u U ^ o.W u u r W +.+.+.+.+.+.+.+.+.+.+.+.+.u r u R Q O.l + @ 6 7 6 6 7 7 7 7 7 n n n 7 n n M M 7 7 ",
"& 7 n 6 7 M n n n M b 7 7 b M M M 7 6 7 6 6 6 < e W R R U R U U Q ^ Q W u r u X.o.+.+.+.+.+.+.+.+.+.X.W t t R ..^ A 3 7 # 6 7 6 6 7 7 7 6 7 b M M n M M n M b = ",
"6 7 6 & 6 7 7 7 b 7 6 6 O 6 n M M n 7 7 7 b n N H X.E U R U R U u Q +.Q R R r r Q +.$.+.+.+.+.+.:.X.R r u R u @.&.j 7 7 7 b M n M n M M M M M n M M M 7 = n b = ",
"& 6 7 6 6 6 7 7 7 6 6 7 & & 7 M M M n n 7 7 n m k T R U U R R R U W o.Q R W u r u R Q Q o.o.X.^ W u y y u W W ( F V 7 b 7 7 n M M M M M 7 n n B 7 7 b 7 & 6 = & ",
"& 7 M n 7 7 7 7 6 6 7 b & 6 b M B n n n 7 7 b M f 0 T W U U U R U R W Q Q R R R r r r R W W W u r r t W R E o.F g n n M 7 7 n n M M M n 7 7 n n = & 7 b 7 + & = ",
"6 7 7 M M n n 7 7 7 6 6 O 7 M n 7 n M M M M M 7 7 f ) ..U U U U R U u ^ o.Q R R u R u u r r u u u R R u R Q :.G 8 7 n M M M M 7 b M n M M M M B M M M M n 7 = = ",
"6 7 n M M M n M M 7 7 7 6 7 M M n 6 7 M M n 7 n m n G T E W U R R U U W X.X.Q R R R R u u u u u R R R W o.O.P h n 7 7 M M n 7 n n b 7 b n b n n M n n M M n = = ",
"& 7 M n 7 n n M M M M M M M M M M 6 6 7 7 6 6 M M 6 : 5 ^ W R R U R R u U +.X.Q R R R R R W R R R R W E :.} V m n 6 6 7 7 6 6 M M 7 7 6 6 6 6 7 6 = = n M n = = ",
"6 7 7 8 M M n 7 7 M M M M M M 7 7 7 6 6 6 6 n M b & 6 3 S W E R U U U u u u Q o.+...R R R u R R E +.*.O.K h M 7 6 7 6 6 6 7 n M n 6 6 7 7 7 6 6 6 6 7 7 n n = + ",
"6 6 b n n b 7 7 7 b 7 7 b M M 7 7 7 7 7 7 b M M n 6 + 6 3 0 e y y u u u u r u E ..X...X.^ X.X...W ! ! G V b n 7 7 n 7 7 7 n M M 7 6 6 6 6 6 6 O O & n 7 7 n = + ",
"& 6 n B 7 6 6 b b b 7 @ b n b n M M M n M n n M b 6 6 6 $ $ 1 9 q q q w w w q q y T ( O.O.O.O./ ! 4 * 6 6 n n n n M n n M n M M n 6 @ 6 & O @ 6 & & b n n b = & ",
"6 7 n 7 6 O O 7 M M n n n n 7 n M M M M B M n n M n 6 O O 6 6 ; , , , , f f a a f f j d g 2 3 f h B n n M n 7 n M M M M M M n M n n 7 O O 6 6 7 = 7 7 b n M 7 & ",
"6 6 n b 7 7 6 7 B M n n M n b M M M M M M b b n M M 7 7 7 7 7 b b m n 7 b m M m m b m b # # @ 7 M M M n n M b M M M M M n n 7 n M M 7 7 6 7 n b n n n n 7 n n & ",
"+ 7 M M M M n M n n 7 7 b M M M M 7 M b b 7 6 b n M M M n M M M M M M n 7 b n n b n M M M M M n n n 7 6 7 M M M M n n n n 7 = 7 M M n M n M M M M M M n 7 i = & ",
"O 6 b M n 7 n M b n 7 6 n M M M n 7 7 7 n M b 7 7 M M M M n M M M n 7 n n 6 = 7 7 b b M b 7 n M n n 7 6 b M M M n 7 = 6 n M n 7 7 M M M M M M M M n = n m = + X ",
"+ = n M b 6 7 n M b 7 6 7 n n b 7 7 7 7 M n b 7 b M M M M b b M M n 7 n M 7 7 7 b b b M b 7 7 n n n 7 6 7 n M 7 = b 7 7 n M 7 7 b M M M n n n n n n = n n 7 + O ",
"& 7 M M n b 6 n M 7 & & = = & = 7 n M M b 6 6 n M b M M M 7 7 n n M M M M n M M M M M M n 7 7 b M 7 6 6 6 7 6 6 7 n M M n & & n n n M M M 7 7 n M M M M M m b = ",
"& = M n b 7 7 n 7 n = & b n 7 7 b n b 7 b b n n 7 7 n M M 7 7 n M M i # 7 m M M n n n n n 7 7 b n b 7 6 7 n 7 7 n n 7 7 7 n n M 7 7 b M M 7 7 n M M n 7 7 M b = ",
"O & 7 b b n M n 7 M n = b M M n b M 7 6 7 n B 7 6 7 b M M n b M M M i + + M M n b 7 b 7 7 b M n 7 n b 7 n M M n n M 7 = n n M 7 7 7 b M M n n M M n b @ + M b + ",
"+ & = 7 n M M M M M M M 6 7 M n n M B b b b 7 6 7 b 7 b M n n M n b 7 b M M b b b 7 7 7 n B M M M M B M 7 6 M M n M M 7 b b 7 6 6 n 7 n B n n M n 7 7 b M M = O ",
"O & & = 7 n n n M M n b 7 7 M M M M n n n n 7 6 7 b 7 7 b 7 b M M n b b M M = + b 7 6 6 7 n n n M M n b 7 7 n M M M n M n n 7 6 7 n 7 7 7 7 n M M M 7 n M M + X ",
"& + + + = 7 7 n M M m = = b M M n b b b M M b 7 n M 7 7 7 7 7 n M M b n M M 7 7 n 7 @ @ 6 7 7 b M M n 7 7 n n M n n n 7 B M n 7 7 n 7 7 7 6 7 n M M n n M M = X ",
"& & + & & + 7 b n M b i 7 b n 7 7 6 6 7 M M n n n M M n 7 n M 7 & 6 M M M b n M B 7 O 6 6 @ 7 b M n n 7 7 7 n 7 6 & 6 7 M M n b n M M n n n n 7 & = M M M b = + ",
"O O + & = + 6 = = = = & = = = = 6 6 6 7 6 7 7 7 7 7 7 7 7 7 7 7 O $ 7 7 6 + 7 7 7 6 & 6 $ 6 6 6 6 & = = 7 & 7 & 6 & = 6 7 7 7 7 7 7 7 7 7 7 7 6 O + = = + & + + ",
". X + + & 6 + + O X O + + + O + 6 6 7 6 O O 6 6 6 6 O & 6 6 6 6 O o & o . X O 6 6 O O O & 6 & & O o O + & + O & 7 & 6 = O O 6 6 7 & & & & & 6 6 O X & O . X . . "
};
