/* XPM */
static char *Group_6_4__resized[] = {
/* columns rows colors chars-per-pixel */
"80 80 202 2 ",
"   c #2F5216",
".  c #335C18",
"X  c #37631B",
"o  c #39661B",
"O  c #3D6D1D",
"+  c #3F711F",
"@  c #396E20",
"#  c #3E7320",
"$  c #3E7922",
"%  c #436D1B",
"&  c #5B6510",
"*  c #526E16",
"=  c #41751F",
"-  c #4A751C",
";  c #43781F",
":  c #4B7B1E",
">  c #577117",
",  c #5B7517",
"<  c #527419",
"1  c #537C1C",
"2  c #5D7D19",
"3  c #6B6B0D",
"4  c #72750E",
"5  c #7F7C0D",
"6  c #616F11",
"7  c #617715",
"8  c #647B16",
"9  c #6C7C14",
"0  c #747D11",
"q  c #417620",
"w  c #457C21",
"e  c #4A7E20",
"r  c #547C20",
"t  c #9D6E00",
"y  c #81760B",
"u  c #8B7B09",
"i  c #957404",
"p  c #9C7402",
"a  c #957A06",
"s  c #9A7C05",
"d  c #A27300",
"f  c #A67A01",
"g  c #AB7D00",
"h  c #B17E00",
"j  c #54811E",
"k  c #5D831B",
"l  c #5E8B1F",
"z  c #6D8116",
"x  c #63831A",
"c  c #698619",
"v  c #668D1C",
"b  c #6C8919",
"n  c #718415",
"m  c #798815",
"M  c #7B8D15",
"N  c #728C18",
"B  c #63931E",
"V  c #7D9114",
"C  c #759119",
"Z  c #7A9318",
"A  c #7FA51A",
"S  c #478122",
"D  c #498423",
"F  c #4C8A24",
"G  c #538B22",
"H  c #568B21",
"J  c #569124",
"K  c #93830A",
"L  c #9D8608",
"P  c #93960D",
"I  c #9E950D",
"U  c #828810",
"Y  c #888D11",
"T  c #A48404",
"R  c #AE8100",
"E  c #A38907",
"W  c #AC8B04",
"Q  c #B28300",
"!  c #B68A01",
"~  c #BC8C00",
"^  c #A59008",
"/  c #AA9309",
"(  c #A39D0D",
")  c #AF9B0A",
"_  c #B59103",
"`  c #BC9101",
"'  c #B29B07",
"]  c #BD9F05",
"[  c #B19C0A",
"{  c #9CA00C",
"}  c #89A116",
"|  c #9DAA13",
" . c #BDA406",
".. c #A8B70F",
"X. c #B5B60E",
"o. c #C18E00",
"O. c #C29300",
"+. c #CB9700",
"@. c #C59A00",
"#. c #CB9C00",
"$. c #D09F00",
"%. c #C5A403",
"&. c #CDA401",
"*. c #CDAD00",
"=. c #D3A400",
"-. c #DAA600",
";. c #D3AA01",
":. c #DCAC00",
">. c #C1B108",
",. c #C3BD0A",
"<. c #D4B300",
"1. c #DDB200",
"2. c #DBB900",
"3. c #D6BE08",
"4. c #D4A910",
"5. c #E1AD00",
"6. c #E3B300",
"7. c #E9B700",
"8. c #E4BC00",
"9. c #ECBD00",
"0. c #E0B008",
"q. c #F1BF00",
"w. c #DBBE21",
"e. c #DBB637",
"r. c #E0BB34",
"t. c #BCC60A",
"y. c #B1C310",
"u. c #C8C40A",
"i. c #DCC501",
"p. c #C0C81C",
"a. c #E3C202",
"s. c #EBC300",
"d. c #E2CB03",
"f. c #EECC00",
"g. c #E8C60B",
"h. c #F3C300",
"j. c #F8C500",
"k. c #F2CA01",
"l. c #FBCC00",
"z. c #E3D304",
"x. c #ECD302",
"c. c #E9DB03",
"v. c #EDD309",
"b. c #F2D401",
"n. c #FDD300",
"m. c #F1DB01",
"M. c #FCDB01",
"N. c #F5D20B",
"B. c #F0D90B",
"V. c #F5C911",
"C. c #EED51D",
"Z. c #FBD716",
"A. c #E5E203",
"S. c #F4E201",
"D. c #FEE201",
"F. c #F7EB02",
"G. c #FEEB00",
"H. c #F8EF0C",
"J. c #FDF402",
"K. c #FFF900",
"L. c #FFF10A",
"P. c #F4E41C",
"I. c #DAC821",
"U. c #DBC834",
"Y. c #E4C62A",
"T. c #FADB26",
"R. c #EAD330",
"E. c #F5D93E",
"W. c #F7E52E",
"Q. c #FEF324",
"!. c #F8F02D",
"~. c #FFFF2E",
"^. c #FDFD31",
"/. c #FBF23A",
"(. c #8EAA4B",
"). c #DAC042",
"_. c #ECDA4F",
"`. c #F4DE41",
"'. c #E2CD5F",
"]. c #F1DE51",
"[. c #EFE24B",
"{. c #F7ED48",
"}. c #F8E456",
"|. c #FFF657",
" X c #EBD966",
".X c #E9D071",
"XX c #F8E463",
"oX c #FFF36D",
"OX c #F7F272",
"+X c #FFF372",
"@X c #FFF873",
"#X c #F1DE90",
"$X c #FBEF8A",
"%X c #FCF78C",
"&X c #EDDCA6",
"*X c #F0E8A9",
"=X c #FAF6A7",
"-X c #FFFFA5",
";X c #FFFFAC",
":X c #FFFFB2",
">X c #FDF8C6",
",X c #FFFFE9",
/* pixels */
"  X = O + + + + ; O + + ; ; = + = q = = O O + e w + ; = @ O O % # # w + + w = O X O + O O = + + ; O O = # = ; + + ; = = O O = w q = ; w O O @ O # + q + + ; O . ",
"o O = = # # + + + + + ; ; ; ; + O q q + O O # w + + + + # q w w e w + O + ; e w q # + = = = + + + + + ; w q q + + ; q + O + = = q + + O O q w e w w = O + w + O ",
"; ; = ; S e # + + + S S e w ; ; q w q @ = w w # # # + + # w D F D S # O + w D F F D q w S e + + + ; ; D w w w # q w # O + w e # # @ @ # q D D F F e q O + S e ; ",
"= ; D F D S ; # ; ; + D D F F F D S q @ e D D D S S S S D D D D D D D w + S D S e D D D D D + # ; + ; S D F F F D S = + w D F D D e D D D e D D D D S w # w w O ",
"% q S D D D D S S e e S F F F D D D D S F F F F F F F F D S w e w e D S S w S D S S S D D F S S D ; e S F F F D D F S S D F F F F D F F D w w w w e D D e w w + ",
"+ = = # D F F F D S S S D F w w D F F F F F F D F F F D S w w q @ # D F F w S F S w q # S F F F D F S S F F w e S F F F F F F F F F F F D w w w @ # D F D w q q ",
"O O = w e e w w w $ # w $ w D F D D w q w w e D D F F F D w = w O + S F F w w = w w # w e w e w w w + w $ w S D D D e # w w D D F F F D D w # w O O e F F w # X ",
"O + = e w + # # # # + + + + w D D D w w w $ q w e D F F F S S S w w D F D w + + w w q S w # + # + + + + + + w D D D w w q q w $ w D F F D D e e w w S F F # O X ",
"O + $ w w + O # + + # + + + O w D w D F F S # # w D F F F F F G D e D F D # # w w w q w w # + # + # + + # # # $ S S D F D e # + q D F F F F G F D F F F D + + + ",
"O + = w w q # # O + # O q w q S D D D F F D w D D F F F D D D D w q w D F w D D w w q w w # + + O + # O # w q S D S F F F F w D F F F F D D D D w + $ S D D ; + ",
"O + w e D e # # q w w w w S D F F D F F F D D F F F F D w e D D q O @ w D D D D D q # w S e q = q e w w w S D D F D F F F D D F F F F D w w D D + O + S F D : + ",
"; = # F F F w w D D F F D D F F D D F F w D D w D F F S = S F F q O = D G w e G G D w G J G w w D D F F D D F F F S F F w S D S D F F D = D F F # O + D F + = ; ",
"+ + = : D F F D # w D F D w F D w D F D D F F D D F F F D F F F w r U I ( I I ( ( I I X.X.| H w + w D F S w F D w D F D D F F S D F F F D F F F D e D F F ; + + ",
"O + ; S F F F D # # S F e w D w e D D w F F F D D F F F F F F D B } %.6.7.6.6.6.5.1.8.n.n.a.| v + # e F S w D D w D D e F F F S D D F F F F F D D F F F D S ; + ",
"+ ; S F F F D D F e w D D D D D F D w @ w F F q q w D D D F D F ..f.k.j.j.l.l.j.9.k.M.D.M.N.m.y.G w w D S e D D F D = O w F F w q w D D F F D S w w S e S S D + ",
"+ ; F S D F D D F F D w D D D F D w % @ % w w q # w w w w e e c ,.M.l.l.l.l.l.l.k.T.|.!.L.G.G.u.C F D S D D D F F w + # # w w # # $ e w $ D D D D S D D F F S S ",
"+ S D ; w F D D D F D w e D D F F w # $ = # w # ; S w w ; $ H { i.M.n.n.n.n.l.l.N.}.%X/.H.G.D.a.( v S w e S D F F w + $ ; + w w w w w w w w D F F F F F F F S + ",
"; ; w + + S w S D w # @ # # D F F D S e e D F F D F D F F D A z.G.D.M.D.D.D.M.B.W.oX%XY.a.f.M.M.d.N O + + $ D F F D S : w D F D F D D F F F F F F F F w $ D e + ",
"+ ; S # = q w w w # # w # = e F F F D D w w D F F F F D S w (.OX@XoXoXoX+X+X`.C./.[.).4.&.&.8.b.b.V O w + + S F F F D D w w D F F F F F w S D D w e S w + w w ; ",
"+ : F S e q w w # w w e q @ e D F D F D w e S D F F F D w 1 (.=X;X-X-X-X;X:XXXC.!.C.%.&.%.@.@.6.b.P < S # + S F F D D F w e S D F F F D w w D D ; + w w w + + ; ",
"$ w D D F F D D e w # # @ # F D e D D F F F F D S D D D J } p.!.^.^.~.~.^.^.P.v.v.d.2.3.z.c._ #.k. .m - O + F D S S D F F F F S e D D D F F F F F F F F F w ; + ",
"= w D F D D D D F D w w e D F F D w w D D D S S D D S S F ..A.J.K.K.K.K.K.F.S.x.2.Y._.I.d.m.;.#.;.*.( : w S F F D w w D D D S D D D S S D D D D F D S F F S : ; ",
"+ : D D D D D F F F F F F F F F D # w e w # # F F S S + : t.J.G.G.G.G.G.G.b.S.m.*.'.=XU.2.s.l.1.! 1.X.J D F F F D # w e w # # F F e e = # $ w e w w + D F D e = ",
"+ w w D D F D w S D F F F F D D w w q q q w D F F + + + D u.G.n.n.n.n.n.l.9.b.B.w. X$XI.1.9.b.8.! 9.u.l D F F S w w w # = w D F D # # w w w $ w + + e S D S $ + ",
"+ ; D D D D w S w S e w D F D w w S w $ w S F F D + + + 1 ,.M.j.j.j.j.j.j.5.9.B.R.[.{.g.-.6.l.a.#.9.>.< w F D w e S w $ w D D F S + + ; ; ; + + O + S S S S S + ",
"+ w F F w + + S S S # # w F D D D F D D D F D F D w + O * >.l.s.9.9.9.h.9.-.1.g.W.Q.J.d.:.-.k.k.-.6.' * w F D S D F D D F D F F D ; + + + + + + + = D D S S ; + ",
"+ w D S ; + + ; F F F D F D w D F F F F F F D F D D q % 6  .q.6.6.6.6.6.6.:.1.a.L.L.D.k.1.=.k.l.8.-./ 7 : F S D F F F F F F F F F D ; O + + ; ; ; S S S S D S + ",
"; ; D S S ; + ; F F D D D D D F F F F F F D w D F F S < 4 %.7.5.6.6.6.6.6.1.-.2.F.J.T.E.Y.=.k.n.9.=.T 9 j D D F F F F F D e w D F F S + ; ; D D D D D S D D S + ",
"+ ; F F F F F D F D w w w F F F F D D D S $ + D F F F x Y &.7.6.6.6.6.:.6.6.;.;.F.Q.XX=X.X4.k.n.h.#.f 5 k D F F F D D D D w # S D F F F F F F F G F F S S S + + ",
"+ ; S F D ; D F D D e q S F F D D e w w F F D w w F F v I &.6.6.6.6.6.6.5.5.;.2.F.|.>X,X&Xe.N.M.k.+.f K x F F F S w w $ D F D w S F F F F F F F F S S S D S + O ",
"+ ; D F S + S D D D w q e S D e w w w w D F D ; D F D v ' ;.6.6.6.6.6.6.-.-.<.i.v.].*X>X#Xr.g.s.9.@.W L c D D D ; S w e D D S w S F F F F S S F F S S D F + + + ",
"+ S F F D S ; D F w # # $ w q w w S F F D + + D D S D C ] -.6.6.6.:.6.1.-.+.<.i.6.4.w.].E.0.=.=.-.O.! W c $ + + e D F F D w + D F S F F F ; ; D D D F G F D S + ",
"+ w D D D w e D D w w q w D w w D D D w D w D D w $ S Z %.:.6.6.6.6.6.1.-.@.@.*.x.c.x.Z.V.6.6.6.:.~ g W N D w w S D S w e S D D e $ D F F e w D F F D w S F S S ",
"+ # w D w D D D w D D w e F F D D D w q w F F w w w S Z ;.5.6.6.6.6.6.5.=.o._ *.S.J.D.n.h.9.s.9.-.Q R _ N F F D D F w w w F F w w # D D F D D D F D S $ + F S + ",
"+ + e w D F F F F F F F w w F F D D D D D e w $ w w w M ;.5.6.6.6.6.6.6.$.Q &.z.h.l.n.n.h.6.6.-.O.@.#.! 9 $ F D S F D S D S w + w D w D F D D F D : w S F F + O ",
"+ + q # w D D D F F F w w w F F F F D D D D w q w D w M 1.6.6.7.6.6.6.6.$.Q *.S.8.9.j.n.h.:.6.-.~ #.=._ z $ F F F F D D D S w w w D w w S w S D F F S S F F + o ",
"+ + + + w w w w F F D w w D F F D D w D F F w w D D w M ;.:.:.:.:.:.:.-.+.h 2.S.2.:.h.l.9.:.5.=.O.$.=.! z D D F D S w D F F D e D D e w q w w D D F D D D F + O ",
"; = + = # # w D D D D D w w D w w q q w F F D S D D F C ` O.O.O.O.O.O.@.~ Q <.b.2.1.7.6.6.6.$.$.-.-.#.! z S D w w w $ w F F D S D D F D w F D w ; $ F F F S S + ",
"+ w ; e D w w w D w w D w D w w w w e D D D D F D D D N ~ o.~ ~ ~ O.~ O.~ g &.f.9.6.6.:.6.6.~ O.6.-.@.! z w w D e w e S D D D D D D D D D D F D + + F D w S + S ",
"+ + S D D F D w w q w D D F w D F D F F w w D F F D S N _ O.O.O.O.O.o.@.o.Q &.s.9.8.1.6.7.6.! O.h.:.@.! N D w D F D F F $ e D F F D D D D D D D : + D S + + + + ",
"X + D S S D D D F w w D F F F F F D F F w w D F F D D C _ @.O.O.O.O.O.O.O.g #.s.h.6.;.:.7.5.O.#.h.-.O.W N D F D D D F D e e D F F D F D D e w D D D D e S F e O ",
"O = w w e S w $ w q w D w w w w w w w w w w w D w w $ n ~ O.O.O.~ O.o.@.~ h #.9.h.6.;.:.6.5.@.$.9.=.o.! c S w w w D e w $ w w D w w w w $ w D D D D w w w D w + ",
"; + w w S S + + q q w D w w q q q w # % # w w q # # @ 9 ~ O.O.~ O.O.O.O.~ Q #.7.q.8.1.5.6.6.@.#.6.=.o.Q 9 w w q # w # @ # w w # # # @ # # w F F F D + + + e w ; ",
"+ : D F D D + + q q q w F F F F F w # @ w S F F S e S N _ O.O.O.O.O.` O.~ h @.5.9.9.6.6.6.6.O.@.6.#.o.W b F F F D w # # w D F D D e D D D D D D D D S w # S w + ",
"+ w S D D F S S e w w D F F D F F F D w D F F F F D D C ! O.O.` ~ O.O.o.~ Q O.:.7.9.a.1.:.-.~ +.6.+.Q ! N F F F D D S S D F F F F F F F D w w w w w D S w w w % ",
"+ + # # S F F F F D D w F F w w w F F F F F F F F F F b W ~ O.O.O.O.O.` ~ ! ~ =.6.9.s.:.$.#.Q +.6.@.Q E b D w w D F F F F F F F D F F D D w w w # # D F D w q q ",
"+ + + e e S S w q q q q q w S F F S w w w w D D F F F N W ~ o.O.O.` O.O.~ Q ~ #.-.s.s.#.~ O.Q @.6.@.R E 8 w D D D D w $ q w D D D F F D D w # w O O S F F w O o ",
"O O # w w = + + q @ = q @ # w D F w w w q q q q w D F z E _ @.O.O.O.O.O.~ ~ ~ O.=.s.k.@.Q ~ ! +.5.~ f a , # w D D D e q w w w # D D F F D D e e w w D F F q O X ",
"O + = : ; + + + + + + + + + O w D w D F F w q @ w F F x L ! O.O.O.O.O.O.O.~ Q ! #.8.k.&.Q R Q +.-.~ p u , # @ w D w D F F S q + w D F F F F F F D D F F D O O O ",
"O O ; ; S + + + + + + O $ w $ S D D D F F F w D D F F 2 y T ~ Q Q ! ! Q Q ~ ~ ! ` <.s.:.#.~ Q ~ &.Q p y < $ w e D D F F F D e D F F F F D D D D w = q D D D w q ",
"+ + ; S F S + + ; w w w e S S F F D F F F F D F F F F D 3 p Q Q Q Q R g Q o.Q Q @.;.1.:.5.-.Q ! +.Q i 4 1 D D F D D D F D D D F F F F D w w D D # O O e D D w ; ",
"; + + F F F S ; S F F F S D F F F w F F w w F w D F F r & s Q Q R Q Q g ! ~ Q g &.*.#.-.9.1.~ ! o.Q a 7 e S F F F D D F w D D w D F F S = D F F q O # D F = = w ",
"+ + ; S F F F S + w D F S e F S w F F F F F F D F F F e < L ~ h R Q R g Q ~ Q g ! @.#.=.-.=.O.! Q ! L 2 : e F D e D D F D F F D D F F F D D F F D w D F F w q @ ",
"O + ; ; D F F D # # w F S w D S w F w w F F F e e F D D 1 L o.Q Q R Q Q Q ~ ! g R ! #.#.#.#.#.~ g o./ j w w D S e D D w F F F D S D F F F F F F D D F F D D q q ",
"+ ; D F F F D D F e w F D D D D F e q = q F F w q w D D r ^ O.Q R R R R Q ! Q Q ! O.#.#.#.#.=.O.g +.) r w S D D F S q @ w D F w = e D D D F F S w w w e w D w q ",
"+ : F S F F D D F F D w D D D F F q = @ q q w # q q w w : L O.Q R Q R Q Q Q ~ Q g ~ &.#.+.#.&.` g +.) 1 w D D F F w # # # w w # + $ e w w D D D D D D D F D D q ",
"% w D w w F D D F F D w e D D F F q q q q q q q w w w w e K ! Q Q R Q R Q Q ~ ~ g Q #.&.#.#.+.Q f ~ I : w S D F D w + $ ; + w w w w w w w w D F F F F F D F S ; ",
"q w q @ q w w w D # @ # @ q D F F D D w w D F F D F D D G n L Q Q Q Q g g g Q ~ g Q o.+.=.&.Q g g T 5 - # w D F F D S e S S F D F D D F F F F F F F D S ; S S ; ",
"# w w w q w q w w # q w = @ S F F F F w w e F F F F F F e > y ! Q Q Q Q Q g ! ~ Q g g ~ o.~ g h ! u , e # O S F F F D S w w D F F F F D w S D D S ; D ; ; ; ; ; ",
"O w F w w w w w # w e D q # D D F D F F w w w F F F G D q q 9 ~ ! h Q R R Q ! ~ Q g d g g d f ! @.0 - D # # S D F D F D w e S D F F F D w w D D ; + ; D ; + + ; ",
"w w S D F F D D S # # # O q F D w D D F F F F w w D D F D F N O.~ Q Q ! Q ! Q ! ~ Q Q g g g g o.$.n # @ O # F F S S D F F F F S w D D D F F F F F F F F F S ; ; ",
"q w D F D D D F F D e w w D F F D q w F F D w D D D w e D D x K g g g g g g g g o.~ g g g Q Q ! / c w w e D F F D w w D D D S D D D D D D D D D F D D F F D ; ; ",
"+ w F D D D D F F F F G F F F F F q q w q q q F F w w w % $ - 7 a g g d g d d g o.~ Q Q Q Q o.W 0 H F F F F F F D # w e w + # F F e e q # $ w e ; ; = D F S S S ",
"= q e D D F D w w D F F F F D e w w q q q w D F D q q w w w q - a Q d p d d d d d ! @.~ h ! -.[ 1 D F F F F D S w w w # q w D F D # # w w w + w + + : S S D + + ",
"+ ; S D D S S w e S w w S F D w w D w $ w S D F S # q q q q # q 8 u i t d d d d t g o.o.~ ~ [ Y S S w w D F D S w D w + S D F F S + + q w q # + + + S S : S + + ",
"+ e F F w + $ w S S w # e D D D D F D D F F F F D w # # # O + + + < y i p i i i i i s _ ' L 8 w S S $ $ S D D D D F D D F F D F D w # + + # + # + ; D D S S S + ",
"+ w D S $ O O ; F F F D F D S D F F F F F F D F D D q O O # q w $ : 1 2 8 k x H x j x x x > O $ D F F D D D e D F F F F F F D F F S w O O + w w ; ; S S D D S + ",
"+ w D D e w + e F F D F D D D D F F D F F S w D F F S w w w e D D D S S S D D F D D D S S ; + S F F D D F D D D F F F F F S ; D F F w w w e S S D D D S S F : + ",
"+ S F F F F D F F S ; ; D F F F F D D D w w # S D F F F F F F F F F F D w S S F D D D F F F F D D D w w D F F F D D D D D w + S D F F F F F F F F F F D ; S ; + ",
"O + D D D w D D S D S + D F F D w D w w D F D w S F F F F D F F F D w S S w ; ; w e D F D w D D D S w q w F F D S S + S D F D w e F F F F D F F F D S S D S + o ",
"+ + D F D ; S D D D S ; S D F D w w w D D F S e S D F F F e S F F D e D F w ; S D D D F D # S D D S w q w D F D S S S S D D S w S D F F F S S D D D S D D S + O ",
"+ S F F D S + D F S + + ; + + + w D F F D # + D F S D F F w w D D D F F F D F F D F D F D w w S F e # q w w # # ; D F F D + + F F S F F F w w D D D F F F D S ; ",
"+ ; D D S w S S S S ; + S D : S S D S w S S D D S w D F F S w D F F D : + F F F D D D D S e e S D S w # S D S S S D S : w S D D S w S F F S w D F F D ; S F D ; ",
"+ ; S D S D D D S D F ; D F D D D D e w e F F w w $ S D F D S F F D S + + F F F w S w e w D D D w D S w S D D D D D S + e F F w $ w S F F D S F F D S = + F S + ",
"+ = ; ; D D F F F F F F S ; F D S F D S S S w # = S e D F D D F D S ; S F F D ; D w w w D F F F F F F F ; w F D D F D D S S e # w S e S F D D F D S S S F F + O ",
"+ + ; ; S D D D F F D D ; ; F F F F D D F S e # w D w w S w w F F F S S F F S + S w w # w D D D F F F S w w F F F F D D F S w # w D w w S $ S F F D : S F F + o ",
"+ + + + ; ; : D F F D ; ; D D F D S S D F F S w D D S w ; w w D F F D D F F e $ D w # # q w w e F F D ; w S F F D D S D F D S e e D S w = ; w D F F D D F D + o ",
"; + + ; ; + ; D D D D D S S D S $ w = ; F F F S D F F D S D D S + ; F F D S D F F w + # q = w D D D S S e S D w ; $ q w F F D S D D F F S D D e + ; F F F D S + ",
"O O + + + + ; ; + + ; + + ; ; ; w = w = w w w w w w S e w S w w O O S + + + w S e = O + = q = ; ; + ; ; + w ; ; + = ; w e w w w w w S S w e e w + O ; ; + + + + ",
"X o + + ; ; + + + O + + + + + + = = w = O O + w # + + + + + + ; O O + O X O + + + + + + q = = O O O O + + + + + w = ; q O O + w $ + + + + + # $ O O + O X o o X "
};
