/* XPM */
static char *Group_6_5__resized[] = {
/* columns rows colors chars-per-pixel */
"80 80 150 2 ",
"   c #2F5216",
".  c #335C18",
"X  c #37631B",
"o  c #39661B",
"O  c #3D6D1D",
"+  c #3F711F",
"@  c #396F20",
"#  c #3E7320",
"$  c #3F7821",
"%  c #456216",
"&  c #526B15",
"*  c #5C6D13",
"=  c #41751F",
"-  c #4C741B",
";  c #43781F",
":  c #4C7C1E",
">  c #5C7516",
",  c #5D7817",
"<  c #537519",
"1  c #597718",
"2  c #527D1D",
"3  c #5C7C19",
"4  c #656A0F",
"5  c #6D6A0C",
"6  c #776E0A",
"7  c #786C0A",
"8  c #6F730F",
"9  c #73740E",
"0  c #7D710A",
"q  c #666F11",
"w  c #637615",
"e  c #617B17",
"r  c #6C7C13",
"t  c #617F19",
"y  c #747D12",
"u  c #417620",
"i  c #457C21",
"p  c #497E21",
"a  c #517D23",
"s  c #826E07",
"d  c #8F7706",
"f  c #897508",
"g  c #87790A",
"h  c #8C7A09",
"j  c #967504",
"k  c #9B7503",
"l  c #957905",
"z  c #9B7903",
"x  c #A47300",
"c  c #A87700",
"v  c #A57C01",
"b  c #A97D01",
"n  c #4F801F",
"m  c #54811D",
"M  c #5C821C",
"N  c #5C8A1D",
"B  c #6E8414",
"V  c #64831A",
"C  c #6A8618",
"Z  c #63891B",
"A  c #6B8B1A",
"S  c #758413",
"D  c #718C14",
"F  c #7B8812",
"G  c #6E911B",
"H  c #70921C",
"J  c #478122",
"K  c #498423",
"L  c #4C8A24",
"P  c #578226",
"I  c #5F8227",
"U  c #528B23",
"Y  c #549024",
"T  c #68882C",
"R  c #7D8F2F",
"E  c #86840E",
"W  c #88850E",
"Q  c #93930E",
"!  c #9D930A",
"~  c #939A0A",
"^  c #848B11",
"/  c #8A8C10",
"(  c #8C9111",
")  c #8C9913",
"_  c #979911",
"`  c #A58404",
"'  c #AC8101",
"]  c #A78C06",
"[  c #AD8B04",
"{  c #A28D08",
"}  c #B18300",
"|  c #B28D03",
" . c #BC8E00",
".. c #AC9406",
"X. c #AD9B09",
"o. c #BE9000",
"O. c #B19806",
"+. c #BB9B04",
"@. c #8FA016",
"#. c #AEAB04",
"$. c #A7A40D",
"%. c #B7A106",
"&. c #BFA005",
"*. c #B0A30B",
"=. c #B4AB0D",
"-. c #BAAC09",
";. c #BCB20B",
":. c #A8B417",
">. c #8A993A",
",. c #96A23C",
"<. c #C19200",
"1. c #C29E03",
"2. c #C2A205",
"3. c #CCA402",
"4. c #C4A805",
"5. c #C1AF08",
"6. c #D0A501",
"7. c #D5A801",
"8. c #DCAC00",
"9. c #C3B509",
"0. c #DDB402",
"q. c #E0AE00",
"w. c #E2B200",
"e. c #E9BE01",
"r. c #D7C800",
"t. c #C5C914",
"y. c #D4D91C",
"u. c #E6C002",
"i. c #E9C702",
"p. c #EACD04",
"a. c #F2C500",
"s. c #F9C500",
"d. c #F5CB01",
"f. c #FECD00",
"g. c #FFD301",
"h. c #F1DD00",
"j. c #FFDB03",
"k. c #FFE800",
"l. c #EBE814",
"z. c #FFF915",
"x. c #F0F21F",
"c. c #FFFF20",
"v. c #A2AD4D",
"b. c #CBD156",
"n. c #D2D671",
"m. c #EDF067",
"M. c #FFFF6E",
"N. c #FFFF71",
"B. c #EFF189",
"V. c #FFFF93",
/* pixels */
"  X = O + # + + = O + + ; ; + ; # u u = O O = i i = ; = @ = O = = = u = O i = O X O + O O + + + = + O + u ; + + + ; ; = O O + p u u u = O O @ = @ u u = u u O . ",
"o O = = u # + + + + + u u ; ; + # u = O O = u u = O = + # u u i i u = = = u p i u = = = = ; + + + + = ; u ; ; + + ; + + O + ; + u u = = = u i i u i = = @ i = O ",
"; ; = ; J i # # = ; ; p p i i # u i u @ = u i u u # O @ u i L L L p u @ # i K L L J # p J p + + + + ; n i i i # u u # + + u i u u @ @ @ = p L L L p = o u i i i ",
"= ; K L K p u u ; ; ; J K L L L K p u # i K K K p p K K K J K K K K p u u p K J J K K L K J + u J + + J K L L L L J = + i K L K p p K K i p K K K L p u u p i % ",
"= = p K K K J J J p p J L L L K K K J J L L L L K L L L K J i J i i K J p J J K J J J J K L J J L ; i J L L L K L K J K L L L L L K L L L i i i i i K K i p u = ",
"= = = = p U L L K J J K L K i i J L L L L L L L L L L K J p u i # # K L K u J L K i # u J L L L K L K K L L J i J L L L L L L L L L L L i i i i @ u K L K i u = ",
"O = = ; p i i p i $ u u u i K L L K J u u i J K K L L L K u u u @ = p L K p u u p u + u p p J i + i $ i + i K K K K i u u p K K K L L L L i i u = = i L L i @ @ ",
"O O = ; i # u # # # + # + # i J K J i u i i u u p K L L L J J J u u K L L u # u i i u J i # # + + + + + + + i K L J J u i u u $ i L L L L i i p u u p U L u @ . ",
"O + u p i + O # + + + + # + + u J p K L K J u # u K L L L L L L L p L L K # # J p u u J i + + + + # + # # # # u J J K L K i $ + u K L L L L U L K K L L K + O O ",
"O + u i i u # # O # u O = u u J K K L L L K i J L L L L L K K K i u u K L J K K i # # p i u + + O + # # u u u J K J L L L L p J L L L L K K K K i u u J L J u = ",
"O + u p K p u # u i i i p J K L L J K L L K K L L L L K i p K K u o @ p L J K L J u # J J J u = u i p u J J K L L K L L K K K L L L L K i i K K # O O i L K p = ",
"; + u L L L i i K K L L K K L L L K L L p J K J K L L p = K L L u @ = K K : p U U K ; U Y L p u K K L L K J L L L J L L J J K p K L L K u K L L u O + K L = = = ",
"+ + = J L L L J u u K L J i L J i K L K K L K K K L L L K L L L p p K p C $.=.=.=.=.*.;.@.m K J = u K L J p L J p K L K K L L J K L L L K L L L K J K L L i = + ",
"O + ; ; K L L K u # i L J p L i i L K i L L L K K L L L L L L K K L U p F i.f.s.s.s.s.g.-.3 K K = = p L J i K J u L J p L L L J K K L L L L L L K K L L K J = = ",
"= ; K L L L K K L i i L K i J L L p u = i L L i u i K K L L K p i i i - F p.g.f.f.f.f.g.;.e : K L p p K J J J L L K u O u L L i u i K K K L L i i i J i J K J u ",
"+ ; L K K L L K L L K J K K K L U u @ @ u i i # u u i i u p K K K p K a ^ i.g.f.f.f.f.g.5.B n K L L K J J K K L L i # # u i i # # i i i i p K K K K K K K L J u ",
"= ; K i p L K K K L K i i K L L K i u u u u u i i i i i u i K L L L L 2 ( p.j.g.g.g.j.j.9.B K K K L J i p K L L L i u u u u u u i i i i i i K K L L L K K L K ; ",
"; ; u + + p i J K u # # @ u p L L K i p J J L K K L K L L L L L L L L 3 ) l.z.z.z.z.z.z.t.S : p K $ # # @ u p L L K p i p J L L K L K L L L L L L L L p u K p = ",
"= u J u # $ u i i # # p u @ p L L L K p i i K L L L L L K K K K p u K I ,.m.N.M.N.M.N.N.b.R p i i u u i # # K K L L K K p J K L L L L K i K K L i p J u = u ; ; ",
"O p L J p i p u i u i J u = p L L L L K i i J L L L L K u i K L i = K T v.B.V.V.V.V.V.V.n.>.P ; u u i K u u i L L K L K u i J K L L L K i i K K u # p J i = = = ",
"$ i J L L L J J J u u # @ u L K J p K L L L L K J K K K L L L L L L L H :.x.c.c.z.c.c.c.y.@.U J i i u # @ u L K K i K L L L L J J K K L L L L L L L L L K J i ; ",
"# p K K L K K L K K p u i J L L K i J L K K i K K K K J K K K K K K K D #.h.k.k.k.k.k.k.r.~ N L L J i i i K L L K i K K L J J K K J K J K K K K L K J L L K ; ; ",
"+ p L K K J K L L L L L U L L L K u u i u u u L L i i u u u u p u u ; S %.a.g.f.f.f.g.f.0.! N K L L L L L U L L K u u J u u u L L J i u # u p i u u u K L K ; ; ",
"= ; p K K L J i K K L L L L L J i i u u u i K L K u u i i u u u # # p ^ 4.d.g.g.g.g.g.g.u.*.Z i i K L L L L K p p u u u u i J L K # u i p u u u + u p J K K u + ",
"+ ; J K K K J J $ J J + K L K i i J i i u K L L K # # u u u # u + # K ^ 4.e.a.a.a.a.a.a.0.X.V $ i K i i K L K p i J i i i i L L J + + u i u $ + + + J J J J + + ",
"+ i L L J + + J J J $ + p L J K K L K K L L K L K u u # + + # # + # K F +.7.w.w.q.0.q.w.3.{ M i K i u # i L J K K L K K L L L L K $ + + # + + + + + K J J J n + ",
"+ i K J + + + $ L L L L L K J J L L K L L L K L K K u @ # # u u p i p ^ +.8.w.0.w.w.w.w.6.] 1 $ L L L K L K J K L L L L L L K L L K $ + O # u u J $ J J K K i + ",
"+ p K J n $ + $ L L L K K K J L L L L L L J p K L L p i u p K K K K J ^ 1.8.w.q.w.w.w.w.7...3 i L L K K L K J K L L L L K K i K L L J $ u p K K K L J J J L n = ",
"+ J L L L L L L L K i ; J L L L L K K K J i # J K L L L L L L L L L L ( 1.8.w.w.w.w.w.w.7.O.T K L K i u J L L L L K K K K i u i L K K L L L L L L L L K i J ; + ",
"+ + J L L + K L J J p $ J L L L K i i i K L K u J L L L L K L L L J K / 3.8.w.w.w.w.w.w.8.%.G K K p i u K L L L J J u u K L J i J K L L L L L L L K ; J J ; + O ",
"+ + K L J + J K K J i ; J K K J i i i i K L J p i K L L L J J L K J p ( 6.w.w.w.w.w.w.w.0.&.A K L i i u J K K J i J p i K L K i n L L L K J J L L K J K L i + + ",
"= n L L L n + K L J + + ; ; u u i K L L K u # K L K L L L p u K K L U _ 7.w.w.w.w.w.w.w.8.&.V J L i u u u u u u i K L L K u # K L K L L L ; ; K K L L L L L ; ; ",
"u i K K K i K i J i i # i K i i i L i i J i p L i i K L L i i K L L K ~ 7.w.w.w.w.w.w.w.w.2.Z i K J p # J K p i K K J i J J J K i i K L L i i K L L K i i L K ; ",
"@ u i i i i L K i L K u K L L K K L i u i L L i i i i L L K J K L K K Q 7.q.w.w.w.w.w.w.8.2.G J i K K u K L K K K K J + J L L ; u i K K L K K K L K J # + L J + ",
"= u i i K L L L L L L L i u L K K L L p L i i u u J i L L L L L K J i Q 7.w.w.w.w.w.w.w.q.4.H L L L L L i u L K K L K J K K J = i J i K L K K L K J J J K L ; O ",
"O = u u i L J L L L L J i i L L L L K K L K i u i L i i i i i L L K J Q 7.w.w.w.w.w.w.w.w.3.A K L L L J $ i L L L L K K K K ; = i K i i K p i L L K J J L L + X ",
"= = O = u i i p L L J i i K L L L K i K L L i i i K i i u i i K L K K Q 6.7.8.8.8.8.8.8.7.2.V J L L K u p J L L L K p J L L K p J K i i u i i K L K J K L L + O ",
"= = O = $ $ i K L L L i i i L i u u u i L L L J K L L L i K L i = ; U / <.<.<.<.<.<.<.<.<.[ V J K L K J p J K i $ u u p L L K J K L L L J K L i ; ; L L L J J + ",
"u u u i i i i K i i i K p J i i i i i K i L K K L K L K K L L K = = K /  . .<. . .<. . .<.[ V J J J J J J J J p i J J J K J K K K K K K K K K K = = K J ; ; $ ; ",
"= u p K L L K i i i i J K L i K L L L L i i K L L K J K K i K L i u K /  .<.<.<.<.<.<.<.<.| V $ i u i J K J i K L K L L u p K L L J K K J K K L p = K p + i ; + ",
". = K p K K K K K i i L L K L K K L L K i p K L L L L L p i i J K K K /  .o.<.<.<.<.<.<.<.| C K K i i L L L L K K K L K p i K U L L L K K i i K J K L J J L p O ",
"O = i i p p u i i i i K K i i i i i i i u i p K i i u i i p J L K K p W o.<.<.<.<.<.<.<.<.[ t u i u i L i p p i i J p i u i J J i u i i i i K K L K p ; i L i ; ",
"i = u i i p u @ # u i p i i i u u i u @ u u i u u @ = @ u J L L K p ; E  .<.<.<.<.<.<.<.<.[ 1 @ u u i i i i u u u u u @ # i i i # # @ # u J L L L J + + + i ; ; ",
"= ; K K K p u u u u u i K L L L K i u @ i K L K K i p K K i K K K K K W  .<.<.<.<.<.<.<.<.[ , $ u u u i K L L L K J u @ i J L J p p K K K J J K K J K ; + J ; + ",
"+ u J J K L K J K i i K L L K L K L K J L L L L L K L L L i i p i i L W  .o.<.<.<.<.<.<.<.[ V J J i i i L L L L L K J J K L L L L K L L K i i p i p K J p p $ + ",
"= # u # J L L L K p p K L L i i i L L L L L L L L L L L p i i u # # K W | o.<.<.<.<.<.<.<...A K L K K K L L i i i L L L L L L L L L L L K i u i + # K L L u u u ",
"O + # p i p p i i u u u u i J L L K i u i i p K K L L L K i u i O # K /  .o.<.<.<.<.<.<. .] t i i u u u u i J L L L i i u i J K K L L K K p # u O + J L L i O O ",
"O O u i i u # # u @ = u @ # i K L i i i u i u u i L L L K J i K u u K W  .<.<.<.<.<.<.<.<.` , # u u @ # @ # i J L i i u i i i u J K L L L J p K i u K L K + O X ",
"O = ; ; u + + + + + + # + + + $ K p K L L i u # u K L L L L L L K J L /  .<.<.<.<.<.<.<.o.] 1 @ @ = @ = # # @ i K i K L K i i @ + L L L L L L L L K L L K + O + ",
"O O ; ; p u + + + + # + u i u J K J K L L K i J L L L L K K K K i u i 0 '  . . . . . .<. .` 1 # = = = @ u i i i L K L L L L i K L L L L K K K K ; + u K L J u + ",
"= = ; p K K u # u u p u i J K L L K L L L K K L L L L K i p K K u @ = 9 v } }  .} } | } } z 1 # u i u u i i K L L K K L L K K L L L L K ; J K K # o + J L K p ; ",
"= = u K L L J u J L L L K K L L L J L L i J L J K L L K u K L L u @ = y z ' b } } } } ' ' l 1 u p L L P K K L L L i L L i i L p K L L J + K L L u O + K L u + = ",
"O = = p K L L J u i K L J i L J i K L K K L L J K L L K K L L L p i K y z ' } } } b } } v l N J u u K L K p L i i K L K K L L K L L L L J L L L K J K L L u u + ",
"O = i p K L L J # # i L J p K J i K K i L L L K K L L L L L L K K L L y j ' } } } } } } v h N J u u i L J i L i i L p i L L L p J L L L L L L K K L L L K K u # ",
"O ; K K L L K K L p p K J J J L L p u @ i L L i u i K K K L L K i i p y z ' } } } } } } v g 2 K K i i K K i K L L K u @ i L L i + J K K L L L J i p J J J K p u ",
"= ; K K L L K L L L K J K K K L U u = @ u i i # u u i i i i K K K K p r j b } } } } b } v g M K L L K K J L K L L u = @ u i i # + $ J J + J K J J J J K L K p $ ",
"u i K u i L K K K L K i i K L L L i u u u u i u u i i i u i p L L L L r d b } } } ' } } v g 3 K K L K u i K L L L i u u u u u u $ J $ ; + J n L L L L n K L n ; ",
"u i u u u i i i K u # # # u K L L K p i i K K L L L K L L L L L L L L w s b } } } } } } z 6 : J K u = = @ u K L L L p i p K K L L L L L L L L L L L L i $ K J ; ",
"@ i i u u i i i i u u i u # p K L L K K i i K L L L L L K K K L i i i w s b } } } } } } j 5 - i u u u i u = p L L L K K i i K L L L L K K J L L J $ J $ + $ ; ; ",
"= i L i i i i i u u i J u # K K L K L K p i J L L L L K u i K L u u i > 0 b } } } } } } j 5 < i u u i p u @ p K L K K K i i K L L L L K + n J L J + J J J + + $ ",
"u i p L L L K J J u # # O u K K i K K L L L L p p K K L L L L L L L L 1 0 ' } ' } ' } } l 8 a J K u u # @ u L L p K K L L L L K J K K L L L L L L L L L L J $ $ ",
"u i K K K K K L L J p p i p L L J i i L L K i K K K p i K K K K L K K 1 9 ' } } } } } } l q m L L p i i i K L L K u K L K K i K K J J J n L L n n n K L L n J + ",
"= i L K K K K L L L L L L L L L K u i i u u u L K i i i u u i u u u u & 8 ' } } ' } } } d * a K L L L L L L L L K u u i u u u L L J n $ + $ i $ i $ $ K L J i $ ",
"= u p K K L K i i K L L L L K K i i u u # i K L K u u i i u u u u u i - q z c c v c c c f > i i p K L L L L L J i u u u u i K L L + + $ J $ i + + $ $ J J n ; + ",
"= = J K K J p i $ n J $ L L L $ n J J + $ K L L K + + $ J + + + + # J - 4 k c x x x x x s & ; i p p i i K L L i i J i u p J L L J + + u i u # u + + n K J J J + ",
"+ i K L p # u i L $ $ + J L J K K L K K L L L L L + + + + + + $ + # K ; * j z j j j k x 7 % = p J i u u p L K K K L L J L L K L K u # # + + # + + $ K K K $ $ + ",
"= p K J u O O u L L L n K K $ K L L L L L L K L L K + + O + + J i i p J : N V M V M , , - O O i L L L K L K i K L L L L L L K L L K u + O + u i $ $ J J L K $ $ ",
"= ; K J J i # J L L L L L K K L L L L L L n $ L L L J $ $ n J L K K J J J K L L K K K J J u # i L L K K K L i L L L L L L J i K L L J u u p J K K K n J J L n + ",
"+ ; L L L L K L L J $ $ K L L L L K K K K + + n L L L L L L L L L L L J i J K L K K K L L L L K L K i u i L L L L K J K K u $ J L L L L L L L L L L L J i J i + ",
"+ + J L K i K L K K J + K L L n J J $ $ L L L $ J L L L L K L L L K p J J i ; ; i J J L K i K L i K i u K L L L J J ; i L L K u i L L L L L L L L K J J n i O o ",
"+ + J L K + p K n J J $ J K K J J J $ n L L K $ J J L L L J J K L J i K L i i ; J J J L K $ J K L i i u i L K i i J i J K L J p J L L L L J J K L J $ L L $ + O ",
"+ n L L L J u J L J + + $ $ $ + + L L L K + + K L J L L L J $ K K L L L L K L L L L L L K i u K L i u u u u u i ; K L L K + + K K J L L L p u K L L L L L n J J ",
"+ n K K J $ K J J K $ + J n J J J K J i J n J L J + K L L J ; L L L K $ $ L L L K J K K J p J J K J i u J K i i J K J p p J K K J i K L L J i K L L K i $ L n $ ",
"+ + J J J K L K $ n L J J L L K K K p = i L L J i ; J L L J J L L J J + + L L L J i J J p J L K i L K u K L L K K K J + J K L p u u J L L K K K L L J + $ L K + ",
"+ ; $ $ n L L L L L L L J $ L K J L L J J J i + + J n L L L K L K n $ n L L K J J p p i J L L L L L L L i u L K J L L J K J p + u J J K L K K L J n J J n L + O ",
"+ + $ + $ L K K L L L $ $ $ L L L L K J L K i + J L $ $ J + J L L L J J L L ; + J i u # i K K K L L K J u i L L L L K K L K u = i K p u i i J L L L ; J L L + o ",
"+ + + + $ n n J L L K $ J J L L L K J K L L J i J K J $ + + J L L L K K L K p u J i # # u p u J L L K u p J L L K K K p L L J i J L J u u u i K L L K K L L $ O ",
"n + + + + + $ J n L K n i J n n # u ; i L L L J J L L L K L J n + ; L L L K K L L p + # u = p J K L K J p J K p u ; u i L L L J J L L L J L L i + + L L L J $ + ",
"O O + + + + $ n $ + + $ + i $ ; u u = u i i i J p i J J J J J $ O O i $ + + i J p = O = = u ; = u u u = # u i ; $ = u ; p u i J i i J p u p p i + + n $ + + + + ",
"X o O + $ $ + + + @ O + + + O + u ; ; u O O + i + + + + + + + + O O + O X O O + + + + + = = = + O O O + + + O + ; = ; i O O # u ; + + + u + # u + o + o X o o X "
};
