/* XPM */
static char *Group_6_6__resized[] = {
/* columns rows colors chars-per-pixel */
"80 80 190 2 ",
"   c #2F5216",
".  c #335C18",
"X  c #37631B",
"o  c #39661B",
"O  c #3D6D1D",
"+  c #3F711F",
"@  c #3A6E20",
"#  c #3E7320",
"$  c #3F7821",
"%  c #416C1B",
"&  c #4E6D18",
"*  c #536F15",
"=  c #41751F",
"-  c #4C751B",
";  c #43781F",
":  c #4B7B1E",
">  c #5A7517",
",  c #5E7817",
"<  c #547519",
"1  c #537B1C",
"2  c #5B7C19",
"3  c #696C0E",
"4  c #796F0A",
"5  c #72740E",
"6  c #7F770C",
"7  c #626C10",
"8  c #637A15",
"9  c #6D7D15",
"0  c #417620",
"q  c #457C21",
"w  c #4A7E20",
"e  c #507B20",
"r  c #9E6E00",
"t  c #8C7D0A",
"y  c #947404",
"u  c #9C7302",
"i  c #9B7B04",
"p  c #A27300",
"a  c #A67900",
"s  c #AB7D00",
"d  c #4D801F",
"f  c #53811E",
"g  c #5B831C",
"h  c #5F8C1D",
"j  c #6E8216",
"k  c #62841A",
"l  c #668B1A",
"z  c #6B8A19",
"x  c #728516",
"c  c #7A8211",
"v  c #748B17",
"b  c #7A8C15",
"n  c #748D18",
"m  c #62931E",
"M  c #759217",
"N  c #7C9317",
"B  c #478122",
"V  c #498423",
"C  c #4C8A24",
"Z  c #518620",
"A  c #538B22",
"S  c #588820",
"D  c #589121",
"F  c #7C9940",
"G  c #8C840C",
"H  c #93830A",
"J  c #9C8608",
"K  c #9A8B09",
"L  c #9E940C",
"P  c #919B0E",
"I  c #838C12",
"U  c #879413",
"Y  c #AE8100",
"T  c #A68805",
"R  c #AB8A04",
"E  c #A18D09",
"W  c #B28300",
"Q  c #B98700",
"!  c #B68A01",
"~  c #BB8C00",
"^  c #A99307",
"/  c #A3910A",
"(  c #A39D0E",
")  c #AE990A",
"_  c #B49405",
"`  c #BD9101",
"'  c #B79A05",
"]  c #B29C09",
"[  c #9FA70F",
"{  c #85A716",
"}  c #98A914",
"|  c #9BB012",
" . c #A8AF0E",
".. c #B1AC0D",
"X. c #B6B50D",
"o. c #AEAE10",
"O. c #A7B811",
"+. c #B6BF1D",
"@. c #C28E00",
"#. c #C29300",
"$. c #CE9700",
"%. c #C69900",
"&. c #CB9C00",
"*. c #D09F00",
"=. c #C5A303",
"-. c #CDA401",
";. c #C0A905",
":. c #CBAB04",
">. c #D3A400",
",. c #D3AB01",
"<. c #DBAC00",
"1. c #D3AC0B",
"2. c #C4BD09",
"3. c #D4B100",
"4. c #D4B704",
"5. c #DCB300",
"6. c #DCBD01",
"7. c #DBBA15",
"8. c #E1AC01",
"9. c #E3B300",
"0. c #E9B600",
"q. c #E4BB00",
"w. c #ECBB00",
"e. c #F0BE00",
"r. c #DDBC21",
"t. c #BCC60B",
"y. c #B0C311",
"u. c #C4C109",
"i. c #C4CD09",
"p. c #DBC301",
"a. c #C4D00A",
"s. c #DBD805",
"d. c #DFC513",
"f. c #CFD217",
"g. c #E4C300",
"h. c #E6C607",
"j. c #EBC300",
"k. c #E3CC02",
"l. c #F3C300",
"z. c #F9C500",
"x. c #F4CA00",
"c. c #FBCC00",
"v. c #E5D203",
"b. c #EBD201",
"n. c #EFDE00",
"m. c #EAD60D",
"M. c #F4D302",
"N. c #FDD200",
"B. c #F3DB00",
"V. c #FDDA00",
"C. c #F7DF09",
"Z. c #E7C81A",
"A. c #E9D31B",
"S. c #E7E10E",
"D. c #F3E200",
"F. c #FEE201",
"G. c #F5EB07",
"H. c #FDEB00",
"J. c #F4E709",
"K. c #FCF201",
"L. c #FEF900",
"P. c #F6EC15",
"I. c #F4F21B",
"U. c #DFCB28",
"Y. c #EFCE24",
"T. c #E9D227",
"R. c #FCF124",
"E. c #FFFE2D",
"W. c #F1EA35",
"Q. c #F7F830",
"!. c #FEFF31",
"~. c #8FA653",
"^. c #ECD740",
"/. c #F1DC46",
"(. c #E8CE5F",
"). c #FEF444",
"_. c #EEE351",
"`. c #FBF35C",
"'. c #EDDB69",
"]. c #F3E963",
"[. c #FDFA67",
"{. c #FDF26C",
"}. c #F1EF72",
"|. c #FFF573",
" X c #EDDD85",
".X c #FCF697",
"XX c #FFFFA5",
"oX c #F7F3AA",
"OX c #FFFFAC",
"+X c #FFFFB1",
/* pixels */
"  X = O O + + = = O O = ; + ; + = = = = O O = q ; + ; = 0 O O % # 0 0 = O ; = O @ o 0 O O 0 + = = O O = 0 = = = = = = = O O = q 0 = 0 0 O O @ = O 0 0 + + q o . ",
"o O = = 0 q + + + + + q ; ; ; + + 0 = + O + 0 0 = + + + @ 0 0 q q q = + = q q q 0 0 O 0 0 0 + + + + = ; 0 0 0 = + = 0 = O + = = 0 = % # = 0 0 q q q 0 O + q = O ",
"; ; = ; q q + + + ; ; q q q q q 0 0 0 O = q q 0 = # O # 0 q C C C q 0 O + q V C C q 0 q q q 0 O = = ; B q q q 0 = q + O + q q 0 0 @ @ @ 0 V C C V V = O # q q q ",
"= ; V C V B 0 0 ; ; ; B V V C C V V 0 @ q V V V B q V V V V q C V V V 0 = B V V V w V C C q 0 = q = ; q V C C C V V 0 O q V C V V q V V w q V V V V V 0 0 w ; O ",
"O 0 V w V C V q q q q B C C C V C C q B C C C C C V C C V V q q q w C V q V V V V q V q C C V w B q q V C C C V C C B q V C C C C V C C C q q q q q C w q q q = ",
"= = = = q C C C V V V V C C q q q C C C C C C C C C C V V q q 0 @ @ V C V q V V V q 0 0 q C C C V V B V C V q q q C C C C C C C C C C C w q q q O 0 V C C q 0 0 ",
"O + = q q q B q q q 0 0 q q V V V V q 0 q q q V V C C C V ; = q % O q C C q = 0 q q # q q q q q q q = 0 q q V V C V q q q q B V C C C C C 0 0 0 O = w C C 0 # o ",
"O % = q q 0 0 0 # O # # O + q V C V q q 0 q 0 q q C C C V V w B q q V C C 0 + = q 0 0 w q 0 0 0 + + + # O # q V C B q 0 q 0 0 q q V C C C B w V q 0 V C V 0 o o ",
"O O = B 0 = @ # + # O 0 # O O q B B V C C B = O ; V C C C C C C V V C C V # # q q q 0 q 0 # # @ + + + + + + @ q q q V C V B 0 + 0 C C C C C C C V V C C V + O O ",
"O = ; q q 0 = O O = 0 O 0 q q q V V V C C V q V C C C C V V V V q 0 q q C B C B q q 0 q q q 0 @ O = # O 0 q 0 q C C C C C V q V C C C C V w V V q # q V C q q = ",
"% + 0 q V w 0 0 0 0 q q q B B C C B C C C V V C C C C V ; B B V 0 o @ q C q V C B 0 # q B q 0 0 0 q q q q B V C C B C C C V V C C C C V q q C V # o O q C B q ; ",
"; = 0 C C C q q V C C C C V C C C B C C q B V V V C C V = V C C 0 % = V A q w Z A w q A D C q 0 w C C C V V C C C q C C q B C q V C C V 0 q C C q O + V C 0 = = ",
"+ + = B C C C q 0 0 V C q B C V q V C V V C C V V C C C V C C C q S [ X.o.L L ( ( L / ( ( U Z 0 # 0 C C V q C V q V C C C C V B V C C C w C C C V q V C C q = + ",
"O + q q V C C V 0 # q C q q C q q C B q C C C B V V C C C C C C m | b.N.l.9.<.9.9.9.9.0.8.;.} m = + q C V q C q q V V q C C C V B C C C C C C C V C C C V B 0 = ",
"= ; V V C C V V C q q C V q V C C V ; @ q C C q = q V V V C C f y.J.C.V.N.c.l.w.l.x.x.z.x.x.v.O.A q q V q q V C C V 0 @ q C C 0 0 q V C C C C q q q w q B V q q ",
"= ; V V V C V C C C C q V V V C C q % O 0 0 q = = q q q q B d M f.E.).I.H.V.l.l.c.N.c.c.c.c.V.2.l V V V V V V C C ; % @ 0 q q 0 0 0 q q 0 q V C V B B C V C q ; ",
"+ ; V q q C V V C C V 0 q V C C C 0 0 0 $ # 0 0 0 q q 0 0 q m X.^.[.`.R.H.V.x.e.x.N.c.N.N.N.F.p.P h B q q V C C C q = ; = q 0 0 q q q q 0 q q C C C C C C C q ; ",
"; ; 0 + = q q w V 0 @ = = 0 w C C C B q q C C C V C C C C V N m..XoXY.g.k.V.N.l.x.V.F.F.F.F.F.D.s.n @ # O q V C C V V ; q V C C V V V C C C C C C C C q 0 C q ; ",
"= ; B 0 # 0 q q q 0 0 q = = q C C C V w q w V C C C C C B w { I.`.(.1.-.,.-.q.N.Z./.|.|.{.{.{.|.}.F @ q = + q C C V V V q q V C C C C C w C C C q q q q = 0 ; ; ",
"+ q C B q q q q 0 0 q V 0 @ w C C V C V q q q C C C C B q < } R.m.3.:.:.=.Y ,.M.Z.'.+XOXXXXXXXOXoX~.w B # + B C C V C V q q q C C C C V 0 q q C q 0 q B q + = = ",
"0 q q V C C w B q 0 # # @ 0 C C B w C C C C C B q C V C A U 2.G.6.:.m.v.4.=.>.9.<.A.!.!.E.E.!.!.Q.+.b ; O = C V B w C C C C C q w C V C C C C C C V C C C q q = ",
"0 q C C C C V C C V q q q q C C V q q C C B q V V V q B A  .k.b.d.U.W.A.6.g.-.%.8.M.K.L.L.L.L.L.K.s.| V ; V C C V q q C C V q V V V q V V V V C V V w C C V q ; ",
"+ q C C B V B C C C C A C C C C C # 0 q 0 0 0 C C q q # : t.B.6.^.]._.r.5.V.,.W 9.x.B.H.H.H.H.H.H.H.t.D C C C C C # 0 q 0 = q C C q q 0 0 0 q q q = 0 V C V q ; ",
"= ; q B C C B q q C C C C C C B q 0 0 0 0 q V C V 0 0 0 : i.D.1. X.XT.4.9.N.q.%.<.9.j.c.N.N.N.N.N.H.a.A V C V B q q 0 0 0 q V C V 0 0 0 q 0 0 0 0 0 q V V w 0 + ",
"= ; V V V B B q q B q q V C V q q q q q q V C C w # 0 @ < a.D.7.].}.h.3.9.M.x.5.>.>.9.z.z.z.z.z.x.V.2.2 q C C B q q q 0 q q C C B + # 0 q 0 + # + $ V B d B ; + ",
"+ ; V C q + q q B q q # q C V w C C C V C C C C V 0 0 o * u.J.Z.P.G.q.<.9.N.N.w.#.%.<.w.l.w.w.w.e.N.;.* q C B B C C C w C C C C B q = + O # + + + + B B B V ; + ",
"+ q V V ; O + ; C C C V C V q B C C C C C C V C C C 0 % 7 ;.M.S.K.F.p.<.5.N.V.x.#.@.<.9.0.9.9.9.0.e...8 w C q V C C C C C C C V C B = + O # 0 q q q B B B V d + ",
"= q V V B q + ; C C C V C C B C C C C C V V q V C C q < 5 ' j.K.K.B.6.<.9.c.V.l.#.@.>.9.9.9.9.8.9.0.=.c 1 B B C C C C C C V q V C C B ; q q V V V V V B V V B ; ",
"= ; C C C C V C C q q 0 V C C C C B C V B 0 # q V C C S G ! 6.K.K.B.q.5.8.x.N.z.@.#.>.9.9.9.9.9.9.0.=.t g V C C C V V V q q # q C C V C C C C C C C C B q B ; + ",
"O = V C V ; V C V V q 0 q C C C V q 0 q C C C 0 q C C l K ! 5.L.K.B.g.5.9.x.N.w.%.#.>.8.9.9.8.9.9.9.-.K l C C C B q q q C C C q B C C C C V C C C V q B V $ + o ",
"+ ; V C V ; B V V B q 0 q C V w q q q q C C q q q C C z ^ ` 4.D.B.b.v.q.9.9.w.9.&.%.*.<.<.9.9.9.9.9.-.^ z V V B q q q q C C q q B V C C C B V C V V B V C q + O ",
"= ; C C V ; ; V C q 0 0 q 0 0 0 q V C C B 0 # C C B V n ] %.3.g.5.6.D.x.0.-.>.>.&.%.%.>.5.9.9.9.9.9.,.' j $ = ; q V C V V 0 O C C V C C C ; ; V V C C C C V d ; ",
"= ; V V V q q V B q 0 # q V q q B V B q B B B C B 0 V M ' W =.n.D.B.V.l.w.w.q.<.~ W %.>.<.9.9.9.9.9.<.%.M V q q V V V q w V V V q q V C C q q C C C V q q C B ; ",
"= = q V q V V V q C C 0 w C C V V C q 0 q C C q 0 0 B n ` W =.D.H.F.N.w.q.l.l.<.~ W #.>.<.9.9.9.9.9.5.=.M V C V V V q = q C C q 0 q V C C V B C C B q 0 $ V B + ",
"O = q q V C C C C C C C 0 q C C V C B B V V q 0 q B q x ` 3.6.6.x.N.N.l.9.9.<.*.>.#.W *.9.9.9.9.9.9.9.,.v q C V V C V V V w q = 0 V q V C C B C V q q B V C q O ",
"O = = 0 q V V V C C C C 0 q C C C C C w C V 0 $ q V $ 9 ` p.k.<.w.x.N.l.9.9.&.#.9.&.W >.9.9.9.9.9.0.9.1.n $ C C V C V V C V q = q V q q w q q C C C q V C C + o ",
"= = O + q q q B C C B q q V C C V V q V C C B q B V q j ` 6.p.<.q.l.x.w.9.0.%.@.w.>.s %.<.<.<.<.<.<.<.>.b B V C C V q V C C q q q C q q 0 0 q C C C V V C C ; o ",
"= = = = 0 # q B C C C q q q V q 0 0 0 q C C V V V C C n ! 3.p.9.w.q.9.9.9.<.%.%.w.>.s ~ #.#.%.#.#.#.#.` j B V B 0 q 0 q C C C V V C C C q C C q = ; V C C B q + ",
"= = = q q q B B B q q B q V q q q q V q V V V C V V V n ~ -.9.w.9.5.<.9.8.%.&.<.w.&.s ~ ~ @.~ ~ @.~ @.! j B q q q q q V q C V C C B C C V C C q = = C V ; ; q ; ",
"+ = V V C C B q q q q B V C q V C C C C q q V C V V V j ~ -.6.z.9.,.8.0.<.W &.w.0.%.Y ~ #.#.#.#.#.#.#.` n V B V C C C C q q q C C B q V V q C C ; ; V q + ; ; + ",
"X = V V V V V V C 0 q C C V C C C V C C q q V C C V C n ! -.5.e.5.>.9.w.<.W >.l.9.%.s ~ #.#.` #.#.#.#.~ n V C C V C C C q q V A C C C C w q q B V V V V B C q O ",
"O = q q q q q q q 0 q C B q q q q q q q q q w V q q $ j ! %.<.w.<.<.w.w.<.Q >.z.9.#.W ~ #.#.#.#.#.#.#.! z B q 0 0 q q q 0 q V q q q q 0 q q B V C V q 0 q V B + ",
"; = = w q q + + 0 q 0 B q 0 q 0 0 0 0 @ 0 0 q 0 + # @ 9 ! %.>.e.9.<.q.w.<.~ >.l.<.#.s ~ #.#.~ #.#.#.@._ x q $ 0 0 q 0 O # q q 0 0 # @ @ 0 V C C V V = O = q q ; ",
"= ; V V C B = = 0 0 0 q C C C C V w 0 @ q B C V B B B x _ ` >.z.q.<.w.w.<.~ *.0.<.#.W ~ #.#.#.#.~ #.@._ n V C C C q 0 @ q B C V q w V V V q B C V V V ; = B q O ",
"+ 0 B w V C V V w q q w C C C V C C B B C C C C C V C n Q ~ *.e.q.5.w.8.*.~ &.9.>.#.W ` #.#.#.#.#.#.#.! n C C C C C V q C C C C C V C C C q q q q q C w q w q + ",
"+ = # 0 q C C C V V V V C C q q q C C C C C C C C C V z R W &.e.g.9.9.*.@.Q &.<.-.@.W ~ #.#.#.` #.#.` R n C q q q C C C C C C C C C C C V q 0 q + = V C V q 0 0 ",
"O + = q q q q q 0 0 0 0 0 q V C C B q q q q B V C C C z T Y %.0.w.6.<.#.W Q &.<.%.~ Q ~ #.#.#.#.#.#.~ T 8 0 q C C B q q q q q C V C C C V 0 q 0 O O q C C 0 O o ",
"O O 0 B q = = = 0 0 @ 0 @ # 0 V C B q q 0 0 0 0 q C C z J s ~ 8.j.q.%.Q W ~ &.>.@.Q ~ ` #.#.#.#.#.#.~ H , # q V C q q q 0 0 0 0 q C C C C V q w q q V C C 0 O X ",
"O + = d q + + + + + + + + + + $ q q C C C q 0 @ q V C k H a W *.j.g.#.Q ~ ` &.&.Q Q ~ #.#.#.%.#.#.#.! t > # @ 0 C q V C C q # O q C C C C C C C V V C C C O O O ",
"O % + q q ; + + O + + + = q q B C V C C C C q V C C C k t u s %.q.j.%.&.%.W ~ #.Y Q #.W W Q W W ! ~ a 4 < 0 0 B V C C C C C q C C C C V V V V V q 0 0 V V B q = ",
"+ + ; B C B $ + # q q q q B B C C B C C C C V C C C C S 5 y s ~ 5.q.>.<.<.W Q ` Y Q ` W s W Y Y W W i 3 < V C C C C C C C C V C C C C V q q V V 0 @ O q C V q 0 ",
"; = + C C C q q B C C C V B C C C q C C 0 B V q C C C 1 7 y Q @.=.3.9.0.<.#.@.~ Y W ~ W Y W W Y W Q i , 0 B C C C q V C q q C q V C C V = w C C 0 o + C C = = = ",
"+ + + V C C C B = q V C B q C V q C C C V C C V V C C V > i Q W ` &.>.,.>.*.~ Y a W ` W Y W W Y Y ~ J 2 0 w C q q V C C B C C V V C C C V C C C V q C C C 0 0 = ",
"O + ; d V C C V = # q C B q C q q C q q C C C V B C C C 2 / @.s Q %.%.&.&.*.~ s s W ~ W s W Y W W @.E 1 0 w C q q C V q C C C q B C C C C C C V C C C C V V 0 # ",
"+ ; V V C C V V C q q V V q V C C V 0 % q C C 0 0 q V V Z ) $.s ~ >.&.&.&.&.` W W Q Q Y W Y W Y W @.^ Z q q B C C q = % q C C q = q B C V C C d q q q q w q q 0 ",
"+ ; C V V C V V C C C B V V V C C 0 0 @ 0 0 q 0 # 0 q 0 w ) $.a #.>.&.%.%.>.` Y ! ! W W Y Y W Y W @.E e B C C C C q @ @ 0 q q 0 + q q q ; B V V w B C V C C B q ",
"= q C 0 q C V C C C V q q V C A C 0 0 0 0 0 0 0 0 q q 0 w / #.a W %.&.&.&.-.Q s ~ Q Y Y Y Y W W W ! H : q V C C C q ; 0 = q 0 0 q q q q 0 q V C C C C d d C d q ",
"0 0 0 0 0 q q q w 0 @ # @ 0 V C C V w q q C C C C V C C S I T W s Q &.>.&.~ s s ~ Q Y Y W Y W W Y y 5 = @ 0 V C C V V ; q V C C C C V C C C C C C C C B $ B B q ",
"= 0 q 0 0 0 q q q 0 0 q 0 @ q C C C C w 0 B C C C C C C w 8 t ! s s ~ @.~ s s W ~ Q s Y Y W Y W ! 6 > q # + w C C V V V q q V C C C C V q V V V B B B $ + $ $ + ",
"@ q C B q q q 0 0 0 q V 0 0 q C C V C C q q q C C C A V 0 0 c #.Q s a s s a s W ~ W W W W Y Y ~ ~ 9 0 q 0 + q C C V C V q q q C C C C V q q V V + + B B B + + d ",
"q q V V C C q q q 0 0 O O 0 C C q V V C C C C q q V V C C C N >.@.s s s s W Q ~ W W W W W W s @.#.9 # @ O = C C V q V C C C C q B V V C C C C C C C C C C $ $ + ",
"= q V C C C C C C V q q q w C C V 0 q C C V q V V V V q V q z ) ~ W W s s s ~ ~ W s s Y s s W R H k q q q V C C V q q C C V w V V B B B V V V C C d V C C V B + ",
"= q V V V w C C C C C C C C C C C 0 0 q q 0 0 C C q q 0 0 # 1 c R ~ W W W W ~ ~ s p s a s s s i 8 V C C C C C C C 0 q q 0 0 0 C C B q ; + $ $ B B + + C C V B B ",
"= ; w V C C q q q C C C C C C q q q 0 0 0 0 V C V 0 0 q w 0 0 < ] 8.~ s Q %.~ p p u p p r p s H : B C C C C C q q 0 0 0 0 q V C V # ; q q q + + + + B V V d + + ",
"= = V V V V q q q B q q V C V q q q q q q V V C V 0 = 0 0 0 # 0 I ) ! ~ @.@.Y r p r p p r y t j q q w q V C C q q B q q q B V C V = 0 0 q 0 0 # + + V V B B + + ",
"+ ; C V q = 0 q B B q + q C V B C C C V V C C C V 0 # # 0 O = @ O , / ' _ i y y y y y u y 4 - q V q 0 @ q C V V V C V V C C C C V 0 + # O # O = + + V V B B d + ",
"= q V B q o O q C C C V C V q V C C C C C C V V C V 0 O O = 0 q q ; 2 l z k g g k 2 2 2 < & + $ C C C V C V q V C C C C C C V C V V q O O + 0 q B + B B V V B + ",
"= q V V q q = q C C V C C V B C C C C C C B B V C C q q q q q V V C B B B V C C V V C B q q = q C C C V V C q C C C C C V B q V C C q q q q B V V V B B B V d + ",
"= ; C C C C C V V V B $ B C C C C w B V B q 0 B V C C C C C V C C C C V q q V V V V C C C C C V C V q 0 w C C C C V B V B q = B V C C C C C C C C C C B $ d + + ",
"+ + B C V q V C V B q + B C C C B q q q V C V q q C C C C C C C C V q B B q ; q q B B C C 0 V C q V q 0 q C C C B B ; q V C V ; q C C C C C V C C V B B V B + O ",
"+ ; V C B ; q V V B B $ B V C B q q q q C C B q V C C C V V B V C B q C C q q q B B B C B # B V C q q 0 q C C q q B q q C V V q B C C C V V V V C B d C C $ + O ",
"; ; C C V q q B C B + + d + + + q C C C B # + V C q C C C q q V V C C C C V C C C C C C V q q B C q 0 0 q 0 0 0 q V C C V = = V C B C C C q q V V V C C C V d + ",
"+ ; V V B q q B B B ; = B V d B q V w q q V V V w q V C C q q V C C V $ q C C C V V V V B q q w V B q # q V B q V V w q q V V V q q V C C q q V C C V q d V B B ",
"+ ; B d B B C V q V V q V C V V V C q ; q C C q 0 q B C C V B C C V d + + C C V q q B w B B C V q C V q B V C V V V q = q C C q q q B V C V V V C V B = + C B + ",
"+ + ; q V C C C C C C C B + C V V C V V V V q 0 q B q V C V V C V d ; B V C V B B B q q V C C C C C C C q q C V V C C B w B q 0 = V q V C C V C V B q B C C + O ",
"+ + ; + q C V V C C C B ; $ C C C C V V V V q 0 q B q q B q q C C C B B C C q + B q = 0 q V V V C C C q q q C C C C V V C V q 0 q V q q q q q C C C ; V C C + o ",
"+ + + + ; B q V C C V + B V C C C V q V C C B q w C q q q ; q V C C B V V C q q V q + + 0 q q V C C V ; q B C C V V w B C C q q V V V q 0 0 q V C C V V C C + O ",
"; ; + + + + ; V d C B d d B C $ 0 0 0 q C C C B B C C C B V V B ; ; C C C V V C C q + = 0 # q V V V V B q q V q 0 q 0 q C C C B V V C C w V C q = ; C C C d ; + ",
"O + + + ; + ; ; + + + ; + $ + d = = = q q q q q q q B q q q q q O O q q = + q q q = + = 0 = = q ; ; ; ; q ; q 0 = = q q q q q q q q q q q q q q O + ; ; + + + + ",
"X o O + + q + + + O + + + + + + 0 = q = O o + q q # + + = + + q O o + O o o O = = + O + 0 0 + % O o O + = + o = 0 = = ; O O + q ; = = + # + 0 q O o = O X o o X "
};
