/* XPM */
static char *Group_6_7__resized[] = {
/* columns rows colors chars-per-pixel */
"80 80 217 2 ",
"   c #2F5216",
".  c #335C18",
"X  c #37631B",
"o  c #39661B",
"O  c #37681E",
"+  c #3D6D1D",
"@  c #3F711F",
"#  c #3E7420",
"$  c #3E7822",
"%  c #476E1A",
"&  c #546D16",
"*  c #5E6E12",
"=  c #41751F",
"-  c #4B741B",
";  c #43781F",
":  c #4B7B1E",
">  c #517419",
",  c #5A7618",
"<  c #537B1C",
"1  c #5D7C19",
"2  c #716D0D",
"3  c #73700C",
"4  c #7F7C0D",
"5  c #647412",
"6  c #637D17",
"7  c #687C15",
"8  c #737C11",
"9  c #417620",
"0  c #457C21",
"q  c #4B7F20",
"w  c #936F03",
"e  c #887909",
"r  c #977404",
"t  c #9C7402",
"y  c #947B06",
"u  c #987C06",
"i  c #A56F00",
"p  c #A47500",
"a  c #A97700",
"s  c #A67800",
"d  c #AB7D00",
"f  c #53831F",
"g  c #5C841C",
"h  c #5B8C1F",
"j  c #6E8215",
"k  c #63851B",
"l  c #6A8719",
"z  c #638C1D",
"x  c #6C8B1A",
"c  c #738515",
"v  c #7B8311",
"b  c #7B8B15",
"n  c #718A18",
"m  c #65951F",
"M  c #6B931C",
"N  c #769119",
"B  c #7A9518",
"V  c #7FA418",
"C  c #478122",
"Z  c #498423",
"A  c #478825",
"S  c #4C8A24",
"D  c #508621",
"F  c #538B22",
"G  c #568C26",
"H  c #569124",
"J  c #6E9642",
"K  c #85810D",
"L  c #8F830A",
"P  c #93860A",
"I  c #998409",
"U  c #948E0D",
"Y  c #9A8C0B",
"T  c #99980F",
"R  c #828710",
"E  c #838B12",
"W  c #888A11",
"Q  c #869814",
"!  c #969C12",
"~  c #9A9D11",
"^  c #AE8100",
"/  c #A78805",
"(  c #A78C06",
")  c #B28300",
"_  c #B98700",
"`  c #B68A01",
"'  c #BC8D00",
"]  c #AC9207",
"[  c #A6950A",
"{  c #A9960A",
"}  c #AB9E0B",
"|  c #B29106",
" . c #BD9101",
".. c #B59C07",
"X. c #BB9B05",
"o. c #B39A08",
"O. c #89A515",
"+. c #92A110",
"@. c #94AB12",
"#. c #AAA70C",
"$. c #B5A009",
"%. c #B3AC0D",
"&. c #A9B40D",
"*. c #B6B20A",
"=. c #BBBA0C",
"-. c #C18E00",
";. c #C29300",
":. c #CA9600",
">. c #C59B01",
",. c #CB9B00",
"<. c #D19E00",
"1. c #C4A302",
"2. c #CEA100",
"3. c #C7A901",
"4. c #CBAC02",
"5. c #CCAF08",
"6. c #D4A400",
"7. c #D5AC01",
"8. c #DCAC00",
"9. c #CCB80D",
"0. c #D5B302",
"q. c #DBB300",
"w. c #D6B801",
"e. c #DBBB01",
"r. c #D1B508",
"t. c #D7B80B",
"y. c #E1AE00",
"u. c #E3B300",
"i. c #E9B601",
"p. c #E5BB00",
"a. c #ECBC00",
"s. c #F0BE00",
"d. c #E1B112",
"f. c #B8C50E",
"g. c #B3C810",
"h. c #D0C204",
"j. c #DBC301",
"k. c #DFCE00",
"l. c #D4C908",
"z. c #DDD707",
"x. c #CCD815",
"c. c #E3C301",
"v. c #ECC200",
"b. c #E3CA00",
"n. c #ECCA00",
"m. c #E7C80C",
"M. c #F4C300",
"N. c #F9C700",
"B. c #F5CA00",
"V. c #FDCD00",
"C. c #F4C20B",
"Z. c #E4D604",
"A. c #EBD400",
"S. c #E6DB02",
"D. c #ECDA00",
"F. c #F3D401",
"G. c #FED300",
"H. c #F2DB01",
"J. c #FEDB00",
"K. c #F2DE0A",
"L. c #FFD809",
"P. c #E5C314",
"I. c #F8CD18",
"U. c #EFD613",
"Y. c #FED918",
"T. c #E0E407",
"R. c #EEE204",
"E. c #F2E300",
"W. c #FEE300",
"Q. c #F4EA00",
"!. c #FDEB00",
"~. c #FCE50B",
"^. c #FFE80D",
"/. c #FEF301",
"(. c #FFFD01",
"). c #FDF30B",
"_. c #FAF609",
"`. c #EDE111",
"'. c #FEED14",
"]. c #F5E518",
"[. c #FEF814",
"{. c #F9F519",
"}. c #FEFA1D",
"|. c #D7C037",
" X c #F8D924",
".X c #F8DC38",
"XX c #EBE123",
"oX c #F9E927",
"OX c #FEFE2B",
"+X c #F9ED38",
"@X c #A1B349",
"#X c #B5C666",
"$X c #F9E648",
"%X c #FFFD49",
"&X c #EDE053",
"*X c #F8EC59",
"=X c #FFF65B",
"-X c #E9CB63",
";X c #F1DF75",
":X c #FFE665",
">X c #FDF363",
",X c #FFFB6C",
"<X c #F9E774",
"1X c #FCF579",
"2X c #FFFD79",
"3X c #DBDD89",
"4X c #FFEA86",
"5X c #FEFC84",
"6X c #FFFD89",
"7X c #F1E999",
"8X c #FEF797",
"9X c #FFFBA8",
"0X c #FDF6B6",
"qX c #FEFEC3",
"wX c #FAF4CB",
"eX c #FEFCCC",
"rX c #FEFCED",
/* pixels */
"  X = + + @ @ = = + + = ; ; ; @ @ 9 9 = + + @ 0 9 = = = + + + = + 9 9 9 + 0 9 + X + = + + # @ = = + + = 9 = ; = = = = = + + = 0 9 9 9 9 = O + @ @ 9 9 = = 9 o . ",
"o + = = 9 0 @ @ @ @ @ 0 ; = ; @ # 9 = = + + = 9 = @ @ = = 9 0 0 0 9 9 + # 0 0 0 0 9 % # 9 9 @ @ @ @ @ ; 0 9 = = @ = 9 = + @ = = = @ = + = 9 0 0 0 9 9 + = 0 9 + ",
"; ; = ; 0 0 = @ @ @ ; C 0 0 0 9 # 9 9 + = 0 0 9 = # + # 9 C S S S q 9 + = 0 Z S S C 9 0 0 0 # @ @ = ; C 0 0 0 9 9 9 9 + = 9 0 9 9 = = = = 0 S S S 0 9 + 9 0 0 9 ",
"= ; Z S S 0 9 9 ; ; ; C Z A S S S q # # 0 Z S Z 0 0 Z Z C C 0 S C S 0 0 = 0 Z Z C C C S S 0 9 = ; = ; C Z Z S S Z Z 9 + 0 C S S Z 0 0 0 0 q Z S S S 0 9 9 q 9 = ",
"+ 9 C Z Z Z Z 0 q 0 0 C S S S Z S S 0 C S S S S S S S S Z q 0 0 0 0 S q 0 q C C q 0 C C S S C q Z 0 0 Z A S Z S S S C 0 S S S S S S S S Z 0 0 0 0 0 S 0 0 0 9 9 ",
"= = = # Z S S S S Z Z C S Z C 0 0 S S S S S S S S S S Z Z 0 0 0 + # C S Z 0 C S Z 0 9 9 0 S S S Z Z C C Z S 0 0 0 S S S S S S S S S S S Z 0 0 0 = = q S S 0 9 9 ",
"+ + @ 0 0 0 0 0 9 9 9 0 9 0 Z Z S C 0 9 0 0 0 Z Z S S S Z 0 9 9 + 9 0 S S 0 0 9 0 0 9 0 0 0 0 0 0 0 = 0 0 0 Z Z S C 0 0 0 0 0 Z Z S S S Z 0 9 0 + = 0 S S 0 = o ",
"+ % 9 C 0 = = 9 # # + # @ = 0 Z S C 0 0 9 0 9 0 0 S S S S 0 0 Z 9 9 Z S S 9 # 9 0 9 9 C 0 9 # 9 @ @ @ # + = 0 Z S C 0 0 9 9 0 9 0 Z S S S q 0 Z 9 9 Z S S 9 O X ",
"+ 9 0 0 9 9 + # + 9 # # % # + 0 Z 0 Z F S 0 9 @ ; Z S S S S S S S C S S C # 9 0 0 9 9 0 0 # + # + 9 # # # # + 0 C 0 Z S S 0 9 @ 9 S S S S S S S S C S S S + + + ",
"+ + 9 0 0 9 9 + + 9 # + # 0 $ 0 Z Z Z S S S 0 C S S S S Z Z Z Z 0 9 9 C S C C S 0 0 9 q 0 9 # + + + # + 9 $ 0 0 S C S S S Z 0 Z S S S S Z q Z Z 0 # 0 Z S Z 0 = ",
"+ @ 9 C C 0 9 9 9 0 0 9 0 C Z S S Z S S S Z Z S S S S Z ; q Z Z # O + 0 S 0 C S C 9 # 0 C C 9 + # 0 0 0 0 C S S S C S S S S S S S S S Z 0 0 Z S # o + 0 S 0 0 ; ",
"= = 9 A H D 0 0 q S S S S C S S A Z Z S 0 C S 0 Z S S C = Z S S 0 % 9 D F 0 q F F Z q D G F q 0 S D D S Z Z S S S C S S 0 0 S 0 Z S S Z 9 0 S S 9 + @ Z S 9 = = ",
"@ @ = 0 S S S C 9 9 C S 0 0 S C 0 Z S S S S S q Z S F S Z Z S z ! &.*.=.f.*.*.%.#.} } %.%.%.%.%.#.~ N S 0 0 S C 0 S S S C S S q S S S S Z S S S C 0 C D Z 0 = + ",
"+ @ 0 C C S S C 9 9 0 S C 0 S C 0 S 0 0 S S S Z Z Z S S S m O.#.l.~.^.W.W.J.G.N.a.a.a.M.M.N.V.N.B.0.%.V D 0 S 0 0 S C 0 S S S C 0 A S S S S S S S S S S Z C 0 @ ",
"= ; Z Z S S C C S 0 0 S C 0 C S S Z 9 + 9 S S 0 9 0 C C h f.E.`.].oX'.)./.!.G.V.V.V.M.M.N.G.G.V.V.B.H.Z.Q 0 0 S S 0 9 + 0 S S 0 9 0 Z S S D S 0 0 0 C 0 C Z 0 9 ",
"= 0 Z Z S S S S D S S Z C C S S S 9 9 + # 0 0 # # 9 # m g.S.'.=X5X1X}._././.!.W.J.G.V.M.M.B.V.V.V.V.G.G.l.@.S C S 0 + + 9 0 0 # 9 9 0 0 0 0 Z C S C C S S S 0 0 ",
"+ 0 S 9 0 S Z Z Z S Z 9 0 Z S S S 9 9 9 9 9 9 9 ; 0 h &._.oX*X8X9X<X`.E.D.E.E.W.W.J.V.M.M.a.B.G.G.G.G.G.W.z.V H A ; = ; = ; ; = 9 0 0 0 9 0 0 D S S S S S S 0 9 ",
"; ; 9 # = 0 0 Z Z 9 = @ = 9 Z S S S Z 0 0 Z S S A h f.E.~.8X0X1X.XP.0.3.3.4.0.p.G.J.G.V.a.u.H././.!./.!./._.T.O.A S Z ; C C S A Z S S S S S S S S S S 0 0 C 0 0 ",
"= 0 q 9 9 9 9 0 0 9 9 0 = @ 0 S S S Z 0 0 0 Z S h Q Z.!.^.>X<X|.5.7.0.4.4.e.7. . .q.G.G.M.i.m.$X6X6X5X5X5X5X5X#XJ F A Z ; Z Z S S S S S 0 Z S S 0 0 C 0 # 9 ; ; ",
"+ 0 S 0 0 0 0 0 0 9 0 0 = @ 0 S S Z Z S 0 0 0 Z N 9.D./.).K.e.X.1.t.H.e.0.E.j. .t ' c.B.N.i.d.-XeXeXqXqXqXqXqX3X@XG C A 0 ; Z Z S S S Z 0 0 C Z 0 9 0 0 0 % = ; ",
"0 0 q S S S C C 0 0 9 @ = 9 S Z Z 0 S S G S S 9 +.R././.E.4.1.c.XX+X[.r.>.Q./.A.p.' t q.M.a.i.P.XXOXOXOXOXOXOX}.x.z 0 S S S S Z 0 S Z S F S S S S S S S S 0 9 ; ",
"9 0 C S S C S S S Z 0 0 0 0 S S Z 0 0 S A C q j *.!.(.E.w.3.t.$X5X,X{.w.2.D.W.W.G.0.` ` ,.i.a.a.c.Q././.!./././.S.+.G A Z Z 0 Z S C 0 C C C S C S S C S S C 0 9 ",
"+ 0 S S C C Z S S S S S S S S S Z 9 9 0 9 # < { c.Q.!.j.X.P.$X6X9X1X`.c.p.c.N.G.V.J.n.s d 8.a.i.8.F.W.J.J.J.J.W.H.h.Q 0 9 = = S S 0 0 9 9 9 0 0 9 9 9 C S 0 0 ; ",
"= 0 0 0 S S q 0 0 S S S S D S Z 0 0 9 9 9 + G 5.J.!.A.q.t.;X9X5X%XoXc.n.n.q.v.V.G.G.B.q.;.) 6.u.i.v.N.G.G.J.G.G.J.Q.@.% 9 0 Z S C 9 9 0 0 0 9 9 9 9 0 q Z Z 0 9 ",
"= ; 0 Z Z Z 0 0 0 C 0 0 Z S S 0 0 0 0 0 0 q c 0.J.!.w.0.U.>X2X%X[.H.q.n.F.7.p.G.G.V.G.B.6.s >.u.a.8.i.M.N.M.M.M.N.H.#.> ; A Z S q # @ 9 0 9 # @ + @ C : C C ; @ ",
"@ 0 S S 0 = 0 0 C 0 9 9 0 S C C Z S S Z S k U r.F.H.4.r.[.}.[./.!.H.j.F.B.2.p.J.G.V.V.J.0.d ;.8.i.6.6.a.p.i.i.u.a.a...c f S S S Z 0 @ @ + # @ 9 @ = A Z C C ; @ ",
"= 0 Z C ; + = ; S S S C S C 0 C S S S S S Q 3.p.v.p.w.A.(.(./.W.J.H.D.H.M.,.u.G.V.V.V.G.a.,._ >.8.6.6.u.u.u.u.u.u.u.7.$.m Z Z S A Z 0 + + 9 9 0 0 0 ; Z Z Z q = ",
"= 0 Z C 0 ; = ; S S S S S S C S S Z S S A +.a.N.7. .c.!.(./.W.J.Y.$X*X.XC.7.p.B.V.G.V.B.M.u.) ) 7.6.6.8.u.u.u.u.u.q.s.r.z C 0 Z S S 0 0 0 0 0 Z Z Z Z Z Z A ; = ",
"@ ; A S S S S Z S 0 0 9 0 S S S S Z Z C 0 ~ N.G.,.p b.(.(.W.J.L.$X9XeX<XI.i.y.a.B.G.G.M.N.a.) ^ 6.6.6.8.8.u.u.u.u.y.N.e.z @ 0 C S S S Z S S S S S S S Z 0 0 ; = ",
"+ ; C S Z ; Z A Z C 0 9 C F S S Z 0 0 9 0 T a.M.<.) S.(./.!.W.^.<XwXrX4X Xi.y.u.G.J.G.N.M.a.;.) :.6.6.6.8.u.u.u.u.u.M.e.l 0 C 0 0 S S S S Z S S S Z 0 Z Z 0 = + ",
"@ = Z S Z ; Z Z S C 0 9 0 C S 0 0 0 0 0 , U y.8.<.>.S.Q.F.F.F.K.&X7X0X:XI.C.y.8.c.B.v.p.a.i.,.' _ <.6.2.8.u.u.u.u.u.s.0.c : C 0 0 S S S S Z Z Z Z Z 0 Z S ; = + ",
"= C S S Z ; ; Z S 0 9 9 0 0 9 9 0 Z S D 5 Y <.:.,.0.b.b.8.q.w.j.b.XX$X XN.u.u.u.6.,.6.,.6.7.6.' d >.6.,.7.i.u.u.u.y.a.0.4 % @ Z S Z S S S ; 0 Z Z S S S S Z ; ; ",
"= 0 Z Z Z 0 0 Z C 0 0 9 0 Z 0 0 C C C : 8 ( :._  .q.S.R.A.H.D.F.F.F.Y.L.M.u.i.a.i.u.u.u.6.,.,.' p  .2.>.8.i.u.u.u.y.i.7.L 6 Z Z 0 0 A S S 0 0 S S S S 0 0 A Z ; ",
"+ = 0 Z 0 Z Z Z 0 S C 0 C S S C Z S 0 < K ` ;.s  .c.Z.Q././.W.J.G.V.V.G.M.y.u.M.M.v.a.a.8.;.6.;.p ' ,.>.7.i.u.q.u.u.i.8.( n A 0 9 0 0 S S S C S S C 0 9 = S Z = ",
"= = 0 0 Z S S S S S S S 0 0 S S Z S A f Y  .;.i 1.Q.j.j.J.J.V.G.G.V.V.V.M.u.8.u.u.i.u.8.;.;.a.7.p _ ;.:.6.i.u.u.u.u.u.7.X.b ; ; 9 Z 0 Z S S Z S S 0 0 0 Z S 0 @ ",
"+ = = 9 0 Z Z Z S S S 0 0 0 S D S S Z g { >.-.i 3./.n.p.b.a.s.M.V.V.G.V.M.u.8.u.u.y.8.-.;.u.M.8.d ) ;.;.8.u.u.y.u.u.u.u.,.E 0 0 0 Z 0 0 0 0 0 S S S C C A S @ X ",
"= + = @ 9 0 0 C S S Z 9 0 Z S S S Z 0 g o.,.' i 3./.J.v.e.p.p.i.M.M.N.M.i.u.u.u.i.8.;._ 2.M.N.6.d ) ;.;.6.8.8.8.8.8.8.6.2.W Z ; Z Z 0 0 9 9 0 S S S Z Z S S @ o ",
"= = + = 9 # 0 Z S S C q 0 Z Z 0 # 9 $ 1 ..>._ i 1.Q.G.M.p.A.b.y.8.u.q.u.u.u.u.u.q.;.) 6.i.M.M.8.d ^  .,.;.' ;.;.' ;.;.;.' b Z Z 0 S G A Z Z S 0 9 9 S S S 0 0 = ",
"= = ; 0 0 0 C 0 0 0 C C 0 0 0 0 C 0 0 h ..,.) p >.H.N.M.M.c.j.v.u.8.8.u.q.u.u.8.;._ ' u.a.a.M.6.d ^ ' ,.;.' ' ' ' ' ' ' ' R Z A S Z S S Z Z S 0 9 = Z q 0 0 9 0 ",
"@ = Z Z S S Z C 0 0 0 Z S Z C C S S A z X.,.) p >.F.v.a.N.q.u.B.p.y.y.u.u.u.y.6.d _ 8.a.M.v.a.<.d ^ ' ,.;. .;.;.;.;.;.;. .R Z S S Z 0 Z Z 0 Z S 0 ; Z 0 = 9 = @ ",
"X = Z q C A Z Z C 0 0 C S S S S C S A z o.:.) p >.v.v.a.a.s.p.w.u.u.u.y.u.u.8.,.) >.s.s.a.a.u.<.d d ' ,.;. .;.;.;.;.;.' ' R Z S S S S A 0 0 0 Z C S S C 0 S 0 + ",
"+ = 0 0 0 C 0 0 0 0 0 S C 0 0 0 0 0 0 g o.;.) s  .v.v.a.a.s.a.0.p.a.u.u.u.u.8.,.) 6.N.M.a.u.u.,.d d ' ,.;.-.'  . .;.;.;.' v C C 0 9 0 0 9 Z Z Z S C 0 9 0 S 0 9 ",
"; = ; q C 0 @ + # 9 0 0 0 0 9 9 9 0 # > [  ._ p  .u.a.a.a.s.a.e.v.s.u.q.u.u.y.6.) ,.M.a.i.7.u.,.p d ' >.;.;.;.;.;.' ;. .` v 0 0 9 9 + = 9 Z S S S 0 9 + 9 0 0 0 ",
"= ; Z Z Z 0 9 9 0 9 9 0 S S S S S 0 # % I ' ` s _ 8.a.s.a.i.a.c.M.M.y.8.8.u.u.8.) ;.M.u.8.8.y.>.p d ' >.;.;.;.' ;.;.;.' / c S C 0 Z 0 q Z 0 Z Z Z S C 0 9 0 0 + ",
"+ 9 Z 0 Z S Z Z C 0 0 q S S S S S Z C < K / ) p _ 8.u.a.a.y.i.A.F.s.u.8.6.6.8.6.) ;.u.8.8.8.8.;.p d ' >.;.;. .;.;.;.;.| u j S S Z S S S Z 0 0 0 0 9 S 0 0 0 0 % ",
"= @ 9 9 C S S Z S C Z Z S C 0 0 0 S S F 8 / ) d ) 6.y.i.a.8.q.E.G.s.u.<.;.;.,.<._ ' <.8.y.u.6.' p ) ' :.;.;.;.;.;.;.;.` e 1 S S S S S S q 0 0 0 = = Z S S 9 9 9 ",
"+ @ = 0 0 0 0 0 9 9 9 9 9 0 C S S Z 0 : * u ' d ) >.6.u.s.8.e.Q.B.i.7._ p -.,.,.-.' >.8.u.8.,._ d ) ;.;.;.;.;. .-.;.:.' 3 - C Z S S S S Z 0 9 0 = = 0 S S 0 = o ",
"+ + = Z 0 = 9 9 9 + = # # # 0 C S C 0 - % P >.) ) ' ,.y.a.0.e.Q.B.q.>.' ) _ ' ;.;.;.;.y.q.6.;.) d ) ;.;.;.;.;.;.;.;.,. .5 % 9 0 0 S S S S 0 0 0 9 0 Z S Z 9 o X ",
"+ + ; : ; @ @ @ @ # @ # = + + 0 C q S S : U 6._ d d >.8.u.w.b.J.v.6.) 6.y.) d ' ;.' ' 8.u.,.` ^ d ' ;.;.;.;.;.;.;.;.<.>.6 9 9 + 9 S S S S D S S S q S S Z = O = ",
"+ = = ; 0 0 @ + @ @ @ + = 0 0 C S C C S C ~ y.-.a p :.<.,.j.A.B.6.;.6.8.u.6.-.) _ _ ' 6.8.,.^ p ) ;.;.) ) ` _ ` ` ` :.X.z 0 0 S S S S S Z C Z Z 0 9 9 Z S C 9 9 ",
"@ @ = C Z Z = = 9 0 0 0 0 C C S S C S A S ! 8.' a p ;.;.-.k.D.y.:.,.u.y.8.i.6.' ) ) _ >.,.>.d p ) ;.;.) ^ ) ^ ) ) ) ' | G C C S S S S S 0 0 Z S 9 O @ 0 S 0 0 9 ",
"; = = S S S 0 0 Z Z S S S C S S S C S S 0 R >.` d a ` _ ' A.Z._ <.u.q.8.8.8.u.8.;._ ' ' ;.;.d s ) ;.;.) ^ ^ ) ^ ^ ^ ) I , C S 0 Z S S 0 9 0 S S 9 + = Z S 9 9 9 ",
"@ @ 0 C Z S S C 9 0 C S 0 C S C 0 S S S C l P | ' d s d ;.7.4.;.,.6.6.6.6.6.8.8.>.' _ ' ` d d ) ' ;.' ) ^ ^ ^ ) ) ) y 8 D S S C S S S S C S S S 0 0 S S S 0 9 = ",
"+ @ ; ; Z S S Z 9 9 0 S 0 0 S q 0 S 0 0 S D 7 >.<.) p d  .;.>.2.>.:.>.6.6.<.,.>.<.:. .' ^ p ) _ ;.' ) ) ^ ) ) ^ ` ' e - Z D S C 0 S S S S S S S S S S S Z q 9 9 ",
"@ ; Z Z S S Z Z S 0 0 S C 0 C S S C # @ 0 C x 4.<.d d d ^ ;.2.,.,.,.,.,.,.,.,.,.,.,.,.' d p d ' >._ ^ ^ ) ^ ) ^ _ :.e + 0 S S 0 9 0 C S S S S 0 0 0 0 0 0 Z 0 9 ",
"@ ; S Z S S Z Z S S S C C C S S S 9 # @ 9 9 D { ;.) ) d p ' ,.,.,.,.>.,.>.,.>.,.,.<.>.d p ) ) ' >._ d ) ^ ) ^ ) d / 8 + # 0 0 9 9 0 0 0 0 0 C S Z 0 S Z S S 0 0 ",
"= 0 Z 9 0 S Z Z C S 0 0 0 0 S S A 9 9 9 9 9 < 8 ( ;.` d p ^ ' ,.,.,.,.,.,.,.,.,.,.;.' p d ) _  . .) d ) ^ ) ) _ ^ e , 9 9 # 9 9 9 0 0 0 9 0 C D A S S Z S A C ; ",
"9 0 9 = 9 0 0 0 C 9 = 9 9 9 Z S S S C 0 0 C Z D ~ y.-.d ) p a ' ,.6.,.,.,.,.2.6.;.d t d d ) ;.;.) ^ ) ^ ) ^ ) -.` G 0 0 0 S S S S Z S S S S S S S S S 0 ; Z 0 ; ",
"= 9 0 9 9 9 0 0 0 9 9 0 = 9 0 S D S Z Z 0 C S A B X. .` ) a a d ) _  .;.;.;.' ` d d p ) ) ) ;. .^ ^ ) ) ) ^ ) ) Y D C q 0 0 C S S S S S q Z S Z q 0 Z 0 = 0 ; ; ",
"= 0 S Z 0 0 0 0 9 0 0 C 9 9 0 S S Z S Z 0 0 0 S G R X.;.) ) d p p p ) ` ' ) d p p d ) ) _ ' ' _ ^ ) ^ ) ^ ) ` I 8 S S Z q 0 C S S S S Z 9 0 C S ; = 0 0 0 @ = ; ",
"9 0 q S S Z Z 0 0 0 = 9 + 9 S Z 0 Z S S S S S 0 0 k ..<.` d ) ) d d s d s p d d ) ) ) ) ' ;.` d ^ ) ^ ) d _ :.W q 0 S S S S S C 0 S Z S S S S S S S S S Z 0 ; ; ",
"9 0 Z S S S Z S S 0 0 0 9 Z S S Z 9 0 S S Z C C C D E } <.-.) ) ) ) d d d d ^ ) ) ) ) -.;.' ) d ) ^ ^ ^ _ ` Y x C 9 0 S S 0 C C S C 0 C S C C S Z Z Z S S Z ; ; ",
"9 0 Z Z 0 Z Z S S S S S S S S S Z 9 0 0 9 9 9 S A 0 0 N 4.>.' _ ) ) ) ) ) ) ) ) ) ) ' >. .d ^ ) ^ ) ) ) -.( 6 Z S 9 9 0 0 9 9 S S 0 0 0 9 9 0 0 0 9 ; Z S Z ; ; ",
"9 0 0 0 S S Z 0 0 S S S S S S 0 0 0 9 9 9 9 Z S Z 9 $ q n { <.6.;.) d ) ^ ) ) _ ;.:.;.) d d ^ ^ ) ^ _ ;./ R D 0 0 0 9 9 9 0 C S C 9 9 9 0 9 9 9 + 9 0 q Z Z ; @ ",
"9 9 0 S C C 0 0 0 q 0 9 C S S 0 0 0 0 0 0 0 S S C 9 + # 9 c U [ ` '  . .-.-.-.-.;.-.d a p d d d d s p y v k Z 0 q C 0 0 0 Z Z F C # + 9 0 9 9 9 + 9 C 0 C Z ; @ ",
"= 0 S D 0 9 0 0 C 0 0 # 0 S Z C S S Z Z Z S S D C 9 9 # + 9 % & K ] 1.>.>.1.>.| / t w t t r r r r e 2 & 0 S C 0 Z S Z Z S S S S C 0 9 # # + 9 + = = Z Z Z 0 ; = ",
"= 9 Z C 9 + + 0 S S S Z S S 0 C S S S S S S S S S S 9 + + 9 9 0 f k l x x M M x k 1 6 1 , & & , k G D q C S 0 S S S S S S S Z Z S C 0 + + 9 9 0 ; 0 0 Z Z Z 0 = ",
"= 0 Z C 0 0 9 0 S S S Z S C C S S S S S S Z 0 C S S 0 0 0 0 C C Z C C 0 C A A A A A A C 0 $ # 0 S S S Z S S 0 S S A S S Z C 0 Z S S 0 0 0 0 C C Z Z Z 0 0 S Z = ",
"# 0 S S S S S S S C 0 0 C S S S S Z A C C 0 9 0 S S S S S S S S S S S Z 0 0 C C Z Z S S S S S S S C q 9 0 S S S Z Z Z Z C 0 = 0 C S S S S S S S S S S Z ; C ; @ ",
"+ 9 0 S C 0 C S Z Z 0 9 C F S Z q 0 0 0 S S S 9 0 S S S S S S S S Z 0 Z C 0 0 0 0 0 C S Z 0 C S C C 0 9 C S S S Z C ; 0 Z S Z 0 0 S S S S S S S S Z 0 Z Z ; @ + ",
"+ 0 q S C 9 0 S Z C 0 9 C S Z Z 0 0 0 0 S S C 0 0 S S S S 0 0 S Z Z 0 S S 0 0 0 Z 0 Z S 0 9 0 S S 0 9 9 0 Z S 0 0 C C 0 S Z Z 0 C S S S S Z 0 S S Z q A S 0 @ + ",
"= 0 S S S 0 0 C S C @ = = 9 = ; 0 Z S S 0 9 9 Z S C A F S 0 0 C Z S S S S Z S S S S S S S 0 0 C S 0 9 9 0 0 9 9 ; Z A S C ; = Z S Z S S S 0 9 Z Z Z S S S Z C ; ",
"= ; Z Z C 0 0 Z 0 Z ; = 0 Z Z 0 C Z C 0 0 Z 0 S 0 0 S S S 0 0 S S S Z ; ; S H S S C Z Z Z 0 0 0 Z C 0 9 0 Z C : C Z Z ; 0 Z Z Z 0 0 C S S 0 0 Z S Z Z 0 ; S Z ; ",
"+ = 0 Z q Z S Z 0 A Z ; Z S Z Z Z S 0 9 q S S 0 9 0 0 S S C 0 S S Z C = = S S Z 0 q 0 0 0 Z S Z 0 S S 9 C Z A Z Z A 0 ; 0 S S 0 9 0 C S S Z Z S S Z C = ; A : @ ",
"@ = ; 0 Z S S S S S S S 0 ; S Z C S S 0 C C 0 9 0 C 0 S S S S S Z Z ; Z Z S Z 0 C 0 0 0 Z S S S S S S S 0 0 S Z Z S S Z Z q 0 9 9 Z 0 S S S Z S Z Z 0 C Z S ; + ",
"@ = = ; 0 A Z Z S S Z Z ; 0 S S S S S C S C 0 9 0 C 0 0 0 0 0 S S Z C Z S S ; = Z 0 = 9 0 S Z S S S S 0 0 0 S S S Z Z Z Z Z 0 9 0 Z 0 9 0 0 0 S S Z 0 Z S A @ X ",
"@ @ @ @ ; 0 0 Z S S Z = ; Z A A S C C Z S S C q 0 S 0 0 9 0 0 S S A Z Z S S 0 0 Z 0 + 9 9 0 0 C S S Z 0 0 C S S Z Z Z q S S 0 0 q S q 0 9 0 0 S S Z Z Z A S ; + ",
"; = @ = 0 @ 0 C Z A Z Z ; : Z 0 9 9 9 0 S S S 0 Z S S S 0 S C 0 = 0 Z S Z C S S S 0 + 9 # 9 0 q Z Z C q 0 0 Z 0 9 0 9 0 S S S C 0 S S S 0 C S 0 ; ; Z S S Z ; = ",
"+ + @ = @ @ = = ; = = = ; ; ; 0 9 9 9 9 9 0 0 0 0 0 0 0 0 0 0 0 + + 0 0 @ = 0 0 0 9 + 9 9 = 9 9 ; = = ; 0 ; 0 9 = 9 9 9 0 0 0 0 0 0 0 0 0 0 0 0 + + ; ; = = @ + ",
"X o + @ = 0 @ @ + + + = ; @ + @ 9 9 0 9 + + 9 0 9 9 + 9 9 + 9 0 + o @ + X o + = = + + 9 9 9 9 % + + + @ = @ o = 9 = 0 ; + + @ 0 0 @ # = 9 # 9 9 + + = + X o X X "
};
