/* XPM */
static char *Group_6_8__resized[] = {
/* columns rows colors chars-per-pixel */
"80 80 222 2 ",
"   c #315717",
".  c #37631B",
"X  c #39661B",
"o  c #3D6D1D",
"O  c #3F711F",
"+  c #3B6F20",
"@  c #3E7420",
"#  c #3F7821",
"$  c #446D1B",
"%  c #556E16",
"&  c #41751F",
"*  c #4B741C",
"=  c #43781F",
"-  c #4B7A1E",
";  c #597417",
":  c #517319",
">  c #537B1C",
",  c #5D7D19",
"<  c #6C6B0D",
"1  c #7B790D",
"2  c #617514",
"3  c #697A14",
"4  c #727811",
"5  c #417620",
"6  c #457C21",
"7  c #4A7E20",
"8  c #8A6C04",
"9  c #996E00",
"0  c #867A0B",
"q  c #947204",
"w  c #9E7100",
"e  c #997E06",
"r  c #A37500",
"t  c #A67800",
"y  c #AB7C00",
"u  c #B37F00",
"i  c #54821E",
"p  c #5E841B",
"a  c #5D8A1E",
"s  c #5C901D",
"d  c #6D8316",
"f  c #6E8A17",
"g  c #63841A",
"h  c #64891C",
"j  c #6B8B1A",
"k  c #718415",
"l  c #7B8412",
"z  c #6C911B",
"x  c #6D951A",
"c  c #799818",
"v  c #7AA019",
"b  c #478122",
"n  c #498423",
"m  c #478825",
"M  c #4C8A24",
"N  c #528A23",
"B  c #568820",
"V  c #559024",
"C  c #608F3D",
"Z  c #84840E",
"A  c #8C890F",
"S  c #998809",
"D  c #9B8A09",
"F  c #95950E",
"G  c #9C920C",
"H  c #828A12",
"J  c #8B8D11",
"K  c #8C9111",
"L  c #879913",
"P  c #929611",
"I  c #A48405",
"U  c #AE8100",
"Y  c #AB8A04",
"T  c #A18C09",
"R  c #B28400",
"E  c #B68900",
"W  c #BB8C00",
"Q  c #A3940B",
"!  c #AC9508",
"~  c #A29C0E",
"^  c #B49304",
"/  c #BE9100",
"(  c #B79904",
")  c #BB9A04",
"_  c #B49B08",
"`  c #96A712",
"'  c #A8A70D",
"]  c #BFA003",
"[  c #B9A808",
"{  c #ADB10E",
"}  c #B6B40B",
"|  c #A3B011",
" . c #ABBD21",
".. c #C08D00",
"X. c #C39300",
"o. c #C59A01",
"O. c #CB9C00",
"+. c #D29E00",
"@. c #C5A303",
"#. c #CCA301",
"$. c #CCAC01",
"%. c #C2A608",
"&. c #D3A400",
"*. c #DBA600",
"=. c #D5AB01",
"-. c #DCAC00",
";. c #CFB000",
":. c #D6B100",
">. c #DBB401",
",. c #D4B902",
"<. c #DCBB01",
"1. c #DAB70C",
"2. c #D2B517",
"3. c #E2AE00",
"4. c #E3B300",
"5. c #E9B600",
"6. c #E4BB00",
"7. c #ECBC00",
"8. c #E2B70F",
"9. c #F1BF00",
"0. c #F1BB0C",
"q. c #E0AE11",
"w. c #E8BA16",
"e. c #DFB427",
"r. c #DEBB35",
"t. c #E4B627",
"y. c #E6BD35",
"u. c #B9C20B",
"i. c #CBC307",
"p. c #D6C703",
"a. c #DCC301",
"s. c #DFCA00",
"d. c #D1D107",
"f. c #E4C401",
"g. c #EDC300",
"h. c #E6CB00",
"j. c #EDCC00",
"k. c #F3C300",
"l. c #F9C500",
"z. c #F4CB00",
"x. c #FDCC00",
"c. c #F4C40F",
"v. c #E4D401",
"b. c #ECD401",
"n. c #ECDC00",
"m. c #EBDA04",
"M. c #F3D402",
"N. c #FDD300",
"B. c #F3DD01",
"V. c #FEDB00",
"C. c #FADA0A",
"Z. c #E9CC15",
"A. c #F5C912",
"S. c #EBD71C",
"D. c #FCDA17",
"F. c #DCE00A",
"G. c #E0E205",
"H. c #EDE202",
"J. c #F4E401",
"K. c #FDE400",
"L. c #F6ED00",
"P. c #FDEC00",
"I. c #FBE20B",
"U. c #FFED0B",
"Y. c #FDF301",
"T. c #FBF707",
"R. c #FFFB01",
"E. c #FFF50C",
"W. c #EDE21D",
"Q. c #F1E417",
"!. c #F4CB2B",
"~. c #F4D525",
"^. c #E7CA33",
"/. c #FAE92C",
"(. c #FBF725",
"). c #FEF32C",
"_. c #FEFE2E",
"`. c #F5E83A",
"'. c #FFF635",
"]. c #8AA752",
"[. c #E5BD44",
"{. c #DFC94F",
"}. c #E9C54A",
"|. c #F3D34F",
" X c #FCD74A",
".X c #EBC758",
"XX c #FDE649",
"oX c #FEF749",
"OX c #FEE656",
"+X c #FEFB54",
"@X c #CDD273",
"#X c #EFD167",
"$X c #F9D96B",
"%X c #EBD073",
"&X c #F4E662",
"*X c #FDE565",
"=X c #FEE96B",
"-X c #FFF967",
";X c #FEF36B",
":X c #FBE675",
">X c #FBF475",
",X c #FFFD72",
"<X c #FFF47E",
"1X c #F1DB8C",
"2X c #FCE282",
"3X c #FFEA8E",
"4X c #FFFE84",
"5X c #FDF88D",
"6X c #EEE09C",
"7X c #F8F59A",
"8X c #F6E9A8",
"9X c #FEFDA5",
"0X c #FEFCA7",
"qX c #FDEEB8",
"wX c #FEF8B8",
"eX c #F2E8C6",
"rX c #FFF6C8",
"tX c #FBF4D7",
"yX c #FFFAE2",
"uX c #FEFAE4",
"iX c #FFFCF2",
"pX c #FFFEFC",
/* pixels */
"  . & o O O O & & o o & = & = O & & & & o o & 6 5 & = & 5 o o $ @ @ 5 & o 6 & o . o @ o o & & & & o o & 5 5 = & O & & & o o & 6 5 5 5 5 & o o + & 5 5 & o 6 o   ",
". o & & 5 5 O O O O O = 5 = = O @ 5 5 o o & 5 5 5 O & O + 5 5 6 6 5 5 o O 6 6 6 5 5 O & 5 5 O O O O & = 5 6 & & O & 5 O o O & & 5 O @ + $ 5 6 6 6 5 5 o $ 6 O o ",
"= = & = b 6 O + O = = b b 5 6 5 5 6 5 o & 5 6 5 @ 5 o @ @ b M M M n 5 o O 6 M M M n 5 6 6 6 @ o & & = b 6 6 6 5 5 5 5 o & 5 6 5 5 @ O o 5 b M M M 7 5 o & 6 6 6 ",
"& = n M n b 5 5 = & = b n M M M n 6 5 @ 6 n n n 7 6 b n n b n n n n n 5 & b n b 6 n n M n n 5 & 5 & = 6 n n M M n n 5 O 6 n M n b 6 7 n 6 b b M n n 7 5 5 n 5 + ",
"o 5 b n n n n 7 b 6 6 n M M M n n M b b n M M M M n M M M 6 6 7 6 6 n n 6 n n n 7 b b 7 M M n 6 n 6 6 n M M M n M n n b M M M M M M M M M 7 6 6 6 6 n n 6 7 5 5 ",
"& & & 5 n M M M n n 7 n M n b 6 b M M M M M M M M M M n n 6 5 6 & @ n M n 6 n n n 6 5 @ 6 M M M n n n n n M 6 6 b M M M M M M M M M M M b 6 5 6 @ @ n M n 6 5 5 ",
"o o & 6 6 6 6 6 6 5 5 5 5 6 n n n n 6 5 5 b n n n M M M n 5 5 5 o o n M M 6 & & 6 6 5 6 7 6 6 6 6 5 5 5 5 6 n n n n b 5 6 6 b n b M M M b 6 5 6 + 5 7 M M 6 o X ",
"o $ & 6 6 & 5 5 @ @ @ @ O O 6 n n n 6 6 6 5 5 5 6 M M M M n 6 n 6 5 n M n 5 O & 6 5 5 6 6 5 5 5 O O O @ O @ 6 n n b 6 6 5 5 5 5 6 M M M M b 6 n 5 5 n M M 5 X X ",
"o o 5 6 6 o o 5 O O @ @ o O o 5 n 6 n M M 6 5 O 5 n M M M M M M n n M M n @ @ b 6 5 5 6 6 @ + O O O O O O @ O 5 n 6 n M n 6 5 O 5 M M M M M M M n n M M n o o o ",
"o & 5 6 6 5 5 + o 5 5 @ 5 6 5 b n b M M M n 6 n M M M M n n n n 6 5 5 7 n b n n 6 6 5 6 6 5 & o O @ O O @ 6 5 b n n M M M M 6 n M M M M b 7 n n 6 5 5 n n b 6 & ",
"O & 5 b n 6 5 @ 5 6 6 5 6 b n M M n M M M n n M M M M n = n n n 5 X + 6 m b n M b 5 5 b n b 5 + 5 5 6 5 6 n n M M n M M M n n M M M M M 6 6 n n 5 o o 6 M n 6 = ",
"& & 5 M N M 6 6 7 n M M n n M M M b M M 6 n n b n M M 7 & n N M 5 $ & M B - n B N 7 6 N N N 7 7 n M M M n n M M M b M M 6 b n b n M M 7 5 n M M 5 o O n M 5 & & ",
"o O & 6 M M M b 5 6 n M n b M n 6 M n n n M M n n M M M b m b n , l ~ { } } ' ' ' ~ G ~ ~ ~ F l 2 * = m b 6 M b 6 n n M n M M n n M M M n M M M b b n M n 6 & O ",
"o & 6 6 n M M n 5 5 6 M 6 6 n 6 6 n n 6 M M M n n n n M M x v c G } f.M.V.B.x.9.7.4.4.4.3.3.=.) D H c c i 5 m 6 6 M b 6 M M M b n n M M M M M n n n M M n n 6 O ",
"& = n M M M n n n 6 6 n n 6 n M n n 5 $ 6 M M 5 & 6 n M h u.H.H.J.C.Q.I.K.V.V.N.l.x.N.k.7.5.k.z.k.b.n.i.L - M M M b 5 $ 6 n M 5 5 6 n n n M n n 6 6 7 b 6 n 6 5 ",
"& = n n M M n n M M n n n n n M M 6 @ + 5 5 6 @ o & c ` u.n.U.'.<X<X).E.Y.Y.P.P.K.V.V.x.l.z.g.k.N.V.N.M.p.| H B m 5 + @ 5 6 6 5 @ 6 6 6 6 n n n n b n n M M b = ",
"& = n 5 6 M n n M M 7 6 6 n M M M 5 5 5 5 5 5 # b z { v.E./.oX,X0X9X'.U.L.P.L.P.P.K.V.N.N.N.7.5.k.N.N.x.K.B.} L h b O # O O O 6 5 6 6 5 6 6 n M M n M M M M 6 = ",
"& = 5 O 5 6 6 n n 5 @ O O 5 b M M M n 6 6 n n M c i.b.I.'.0XrX7XXXD.Z.f.a.<.h.b.x.V.V.V.N.x.z.7.4.M.K.K.K.P.J.d.| s b # b m m m M M M M M M M M M M M 6 5 n b = ",
"& 6 7 5 5 5 5 6 6 5 5 6 O O 6 M M M n 7 6 6 n c } m.P.(.;X<X:X{.2.$.1.:.:.:.>.=./ / $.z.V.N.x.7.4.f.~.;X>X>X-X>X@X].C b = 6 M M M M M n 7 n n M 6 6 b 5 & 5 = = ",
"o 6 M b 6 6 6 6 5 5 6 n 5 O b M M n M n 6 6 h { h.K.Y.).*X~.<.@.) [ 2.1.>.<.<.;.U r U &.g.z.x.z.9.-.^.8X0X9X9X9X7X@X].n = = n M M M M n 5 6 n n 6 5 6 b 6 O & & ",
"5 6 7 M M M n n 6 6 @ + + 5 M M b 7 n M n h L p.K.Y.Y.I.Z.%.] 6.b.Q.`.W.s.s.H.L.H.f.&.t U =.z.l.7.7.w.^./._._._._.(. .h N M M b 7 n M M M M M M M M M M M 6 6 & ",
"5 6 n M M n n n M n 6 6 6 6 M M n 6 b n b c i.B.P.Y.B.f.#.$.p.`.;X,XoXW.s.<.n.Y.P.V.g.@.E E O.>.5.9.7.5.n.L.Y.R.T.R.F.| s 6 6 m n n 6 b n n n n M n n M M 7 6 6 ",
"O 6 M n n n n n M M M M N M M M n 5 5 6 * | V.P.P.J.f.$.%.Z.oX<XwX0X+XW.>.&.g.K.N.x.N.V.6.E y E -.5.7.5.f.b.P.P.P.K.Y.G.z & 5 M M 6 6 5 5 5 6 6 6 5 = n M 7 6 5 ",
"& = 6 n n M n 6 n n M M M M n 7 6 6 5 > K $.j.P.P.b.@.$.S.5XwX5X+X+X2X^.6.&.f.V.x.x.x.N.N.f.W R X.&.5.9.>.4.N.V.N.N.V.z.' f n M n 5 5 6 6 5 5 5 + 5 6 7 n n 5 @ ",
"& = b n n b 6 6 6 6 6 6 n M M 6 6 6 # , %.f.j.P.b.$.;.Z.oX4X4X+XE./.6X|.h.5.5.j.x.x.N.x.N.V.>./ t o.-.5.-.*.g.k.k.l.k.k.f.` n M b @ @ 5 6 5 @ & o & n b = b = O ",
"O 6 M M b O 5 b b b 5 5 6 M n n n M 7 f ,.N.M.B.<.( h.).-X_.R.Y.B. XeX&XB.k.4.>.l.N.x.x.x.x.V.=.r W &.-.-.4.-.5.k.7.7.g.M.{ n M n @ O O o @ O 5 O & b n n b = & ",
"& 6 n b = o O = M M n n M n b n M M h G :.z.M.<.=.<.J.E.(.T.P.V.N.XXtX=XV.l.-.=.N.N.x.x.x.x.N.7.O.R E *.4.-.+.-.5.4.4.5.7.[ k B M n 5 O o 5 5 5 5 6 = n n M b = ",
"& 6 n b b = O = M M M n n n b M M M L #.-.g.z./ @.J.R.R.Y.P.K.V.V.OXtX=Xx.k.3.&.z.N.x.x.N.x.k.k.5.R t &.-.&.O.-.4.4.4.4.4.#.Q a m M b 5 6 6 b n n n n b n n = = ",
"O = M M M M n M M n 6 5 n n M M M n ' k.>.7.7.t ] Y.R.R.Y.V.V.V.~.:XuX:XA.c.5.-.k.l.x.N.N.x.k.k.7.W y o.+.&.&.&.-.3.4.3.4.5.,.z m n M M M M M M M M M n 6 b = & ",
"o = b M n = n M n n 6 5 n M M n 6 7 ~ 9.5.=.O.X.a.R.R.Y.K.V.V.C.=XrXiXtX:X!.9.5.-.g.V.N.N.x.k.g.7.&.E y o.-.&.&.&.4.4.>.4.k.<.d 5 M M M M n M M M n 6 n n = O X ",
"O & n M n = b n n n 6 5 6 n n n 5 : Q 5.7.o.y -.B.L.J.M.A.~.XX*XrXpXpXpXtX2X|.}.e.8.g.g.k.g.5.4.5.5.o.w W -.&.O.&.4.4.4.4.9.6.d & M M M M b 7 M n n 6 M M 6 O o ",
"& b M M n = = n M 6 @ 5 6 5 5 5 7 2 T &.7.X.w a.L.n.6.q.r.1XqXyXiXpXpXpXiXuXtX8X#Xe.&.&.&.-.&.=.>.5.+.w R &.&.O.#.4.5.4.4.5.1.H > b M M M 6 6 n n M M M M M = = ",
"& 6 n n n = 6 n b b 6 5 6 m 6 6 i l Y O.-.W t #.v.L.J.B.Q.`.OX=XwXiXpXuXqX$X.X}.!.A.5.5.4.>.4.-.&.O.W y R o.+.O.O.4.5.>.4.5.=.A 2 6 M M M 6 6 n M M n 6 6 M b = ",
"o & 6 n 6 n M n 6 M n 5 b M M m p D E o.O.X.E $.s.n.Y.Y.P.P.K.N.OXqXiXrX$X0.3.-.7.k.z.k.7.5.4.&.X.X.X.E R R O.o.O.3.4.4.4.5.=.! 4 5 b M M m b M M n b 5 O M b & ",
"O & 6 6 n M M M M M M M 5 6 M m p ! X.../ ..#.J.v.;.b.V.l.x.N.x.A.*XuX3X~.7.5.3.4.4.4.4.5.4.=.X.E 4.5.o.u R o.o.O.-.4.4.4.4.-.) H n 6 n M M n M n b 6 b n M 5 o ",
"o & & 5 6 n n n M M n b 6 6 M m h ) o.W E W =.L.J.6.<.j.k.k.k.l.x. XuX:Xx.5.4.3.4.-.-.5.-.&.W o.-.k.5.+.u y ..o.O.-.5.4.4.5.4.#.K M 6 5 6 6 6 M M n b b M M # X ",
"& O O O 5 6 6 b M M n 5 6 n n m z ] O.E U / >.J.K.x.<.a.j.5.5.k.9.|.yX:X9.3.4.4.4.4.5.3.+.X.W &.k.k.5.=.R r ..X.O.&.-.-.-.-.-.#.P M 6 6 5 5 6 M M M n n M n = X ",
"& & O & = O 6 n n M n b 6 6 n 6 g ] O.R y / :.b.M.N.x.f.p.f.7.>.*.[.tX%X3.3.4.4.4.5.>.X.R E -.7.7.7.5.=.R r W o.O.W ..o.X.X.X.W A M M M n M b 6 & = n M M n 6 O ",
"& = = = 6 b 6 b b b b b 6 n b # h o.O.R t / :.j.z.k.l.z.f.h.f.4.*.[.eX%X*.3.4.-.4.&.o.R W &.5.k.7.9.5.&.R r E o.O.W W W W W W W A n m M n n M n & & n n = 5 = 6 ",
"O & n n n M n 6 6 5 6 n n m 6 b z @.O.R t E $.g.j.5.k.k.k.h.f.5.*.y.8X.X*.4.4.4.3.o.t R &.7.g.7.7.7.4.O.y r E O.O.X.W X.X.X.X.X.A n b b b 7 n M 6 = n 6 & = = O ",
". & n n 7 n n n n 6 6 n M M M m j %.O.u t R #.5.k.7.7.7.7.4.6.h.3.t.1X[.3.3.4.4.&.W y &.5.7.g.7.5.4.-.O.u r R o.O.....X.X.X.X.W A M n n b 6 6 b n n n 7 b M 6 o ",
"o & 6 6 6 b 6 6 b 5 6 n n b b # h o.o.W y R o.5.g.7.7.7.5.4.5.h.5.t.#Xy.-.3.4.4.-.W y -.k.7.7.5.5.3.=.O.u t R o.O./ W / X./ / W Z 6 6 6 6 b n n M n 6 6 6 n b @ ",
"= & & 6 b 6 O o 5 5 6 6 6 6 6 @ , ( X.E U R o.-.5.7.7.7.7.4.5.b.l.w.}.t.-.4.4.4.3...R -.g.7.5.4.-.-.-.X.y t R o.O./ W X./ X./ E 1 5 + @ 5 n M M M b & o & 6 6 6 ",
"& = n M n b & 5 5 & 5 b n n M m h Q ..E U R W &.5.9.g.7.7.-.<.J.N.c.y.w.3.-.3.4.4.o.R &.4.5.4.-.-.>.&.W y y R X.O.X.X.X.X.X./ Y l 7 b n n 6 6 M n n n 5 & b 5 $ ",
"O 5 7 6 n M n b n 6 6 b M M M m a S E W E U R O.4.5.7.7.7.=.<.K.N.c.w.1.*.&.*.*.-.O.W ..*.4.-.-.-.-.O.R y u R o.O.W / X.X.X.W S 4 M M M M 6 6 b 6 6 n n 7 6 5 5 ",
"O @ 5 5 b M M M n n 7 b M M 6 6 > Z Y W E y y #.4.4.7.k.9.<.s.M.x.k.4.*.O.X.X.X.+.o.W W O.4.4.-.3.-.O.y t u W X.o.X.X.../ X.W 0 3 M M M n 6 6 5 @ @ n M n 6 5 5 ",
"o O & 6 6 6 6 6 6 5 5 5 & 6 n n i 3 I X.W r r +.-.*.5.9.7.h.v.N.k.5.4.o.y y W O.O.o...R X.-.-.-.-.&.X.r y W W X.X.X.X.X...o./ 1 > N M M n 5 5 5 $ + 7 M M 6 + X ",
"o o 5 n 6 & & & 5 @ @ O O O 6 n b % D +.R r r o.&.&.4.4.4.v.J.l.9.-.#.X.W R R W X.o.O.R X.-.3.-.&.&.W w r W o.X.X.X.X.X.X.O.X.3 & n M M n n b n 5 5 n M M 5 X . ",
"o o = - 6 O O O O O & O @ O O 5 6 5 G 3.W t t E X.+.&.&.=.n.L.l.9.&.R O.-.-./ t W X.O.E W O.-.=.O.o.E r t E O.o...X.o.X.X.+.O.2 + m M M M M M M M n M M n + o o ",
"o & = = 6 5 O O O O @ O 5 5 5 n n 7 ~ 3...u y t E &.+.o.o.n.P.7.+.X.#.-.>.-.*.O.R W E W X.o.+.&.O.W u y R W O.X.R R E R R X.) j m M M n n n n n 5 5 5 n n n 6 5 ",
"O O & b m 6 5 & 5 6 6 5 6 b m M M n P #.W E R r R O.O.O.$.n.M.*.X.O.>.3.3.-.5.-.O.W R R E X.O.+.O.y r R R W O.W U y R U u R I h M M M n 6 6 n n 5 o + 7 n n 6 5 ",
"= & 5 n V M 6 5 b n M M n n M M M b k Q X.W y t y ..o.=.v.v.:.W +.4.4.-.3.-.-.3.4.*.o.R R ..O.O.o.t r R E X.X.E U R R U R e 4 7 M M M 7 5 n M M 5 o + n M 5 5 5 ",
"O O = n n M M b 5 5 n M b n M n 6 M > l #.O.y u t t W #.,.$.o.X.O.&.&.&.*.&.&.=.*.&.O.W E E o.X.y y y u X.o.R R U U R R ..A , 7 n M M M n M M M 7 6 b M M 6 5 5 ",
"o O = = n M M n & 5 6 M 6 6 n 6 6 m 6 , %.+.E R t r U X.#.X.X.O.O.o.O.O.O.O.O.O.O.o.O.O.X.W W R r y R R o.O.R R R R U R X.J M 6 n n M M M M M M M M M M n b 5 @ ",
"O = n M M M n n M 6 6 n n 6 n n n 7 5 : T X.W R R y w R O.O.O.O.O.o.O.O.o.O.o.O.O.O.O.O.+.O.U r t R R W X.X.R y U R u U e 4 M 6 5 6 n n M M M 6 6 6 6 6 7 b 6 5 ",
"O = M n n M M n M M n n n n M M M 6 O 5 3 ! *.W y R t t R O.&.O.O.O.O.O.O.O.O.O.O.O.O.O.O.E t t u y E o...R u U R y ..^ 4 7 6 5 @ 6 6 7 5 6 n n 7 m b M M M 7 6 ",
"& 6 M 5 6 M M b M n n 6 6 7 n M M 6 5 5 @ J =.X.R R u t r E o.O.O.O.O.O.O.O.O.O.O.O.O.O.E t t t R R W O.W y U R U R W Q > 5 6 5 6 6 6 5 5 6 n M M M M M M M b = ",
"5 5 5 O 5 6 6 6 n 6 + 5 & 5 n M M b 6 6 6 p P o.o.y R R t r t W O.+.&.O.O.O.O.&.O.O./ t r t u R R W X.W R y R U R W S 3 7 b M b b M M M M M M M M M M 6 = n 6 = ",
"5 5 6 6 5 5 6 6 5 5 5 6 @ @ n n M M M 7 6 7 3 _ O.W R R R t r y R R E W X./ / W E R y t t y R R R X.X.R R U u R R Y l > 6 6 n M M M M M n n n n 6 6 b 5 & 5 = = ",
"+ 6 M 7 6 6 6 6 5 5 6 n 5 @ 7 M M M b M 6 6 N J ( o.E R R R R r w r t R R R R t w w r y E R R E W X.W y U R u E Y A g n 6 6 7 M M M M n 5 6 n M 6 & 6 b 6 O & = ",
"5 6 n M M M b 6 7 5 5 + o 5 M M 7 b M M M M M B H o.o.W u U R R R y y t t t y y y u R R R R E X.o.E R U u R E E S , n M M M M n 7 n n M M M M M M M M M n 6 = = ",
"5 6 n M b M M M M n 6 6 6 7 M M b 6 6 M m 7 6 6 h J ! o.O.E R y R R R y y y y R R R R u R W X.W E U y y u E I A j 6 6 m n 7 6 n n n 7 b n n n M n n n M M b = = ",
"$ 6 M n b n n M M M M M M M M M b 5 5 6 6 5 5 M b 7 l ! =.X.R W R R u R R R R R R R R E W o.W R r y y y Y T 0 p n 5 5 6 6 5 5 M M 6 6 6 5 5 5 6 6 5 = n M n = = ",
"@ 6 6 7 M M n 6 6 n M M M M M 6 6 6 5 5 5 6 n M b 5 > p l ) *.*.o.W W R R R R W E X.O.O.W R r r r y u y 0 p B 7 6 6 5 5 5 6 n M n 5 5 5 6 5 5 5 @ 5 6 7 n n = O ",
"@ 5 b n n n 6 6 6 7 6 6 n M n 6 6 6 6 6 6 n M M n + + + * Z G Q I I E E ..W W W W W X.E U r 9 q 8 0 0 1 , n M 6 6 b 6 5 6 n M M n O 5 5 5 5 5 @ O @ b b 6 b = O ",
"O 6 n M 6 5 5 6 n 6 5 5 b n n n M M b n M M n M n 5 5 & & & $ $ 2 1 D ^ ) ) ^ ^ Y I q q q q 8 < % % $ & 6 n n b n M n n M M M M n 5 5 O @ O o & O & n n n 6 = & ",
"& 6 n b 5 @ o 5 M M M n M n 6 n M M M M M M n n M n 5 + o @ 5 5 - > p g j j j j h g g ; % % % * > N n n b m 6 M M M M M M M n n M n 5 O o O 5 6 6 6 6 b n n 6 = ",
"& 6 n n 6 5 5 b M M M n n n n M M M M M n n 6 n M M 7 6 5 6 n n n m b 6 6 m M m m b m m b # O 6 M M n n M M 6 M M M M M M b 6 n M M 6 5 6 6 b n n n n - n n n & ",
"& = M M M M n M n n 6 5 n M M M M b b M b 6 5 b n M M M M M M M M M M n 6 b n n n n M M M M n M M n 6 5 6 M M M M n n n b 5 & n n M M M M M M M M M M n = b = & ",
"o & b M n 6 n M n n 6 5 b M M M b 7 6 6 b M n 6 6 M M M M n M M M n 6 n b 6 5 6 6 6 b M n 6 n M 6 n 6 5 n M M M b 6 = 6 M M n 5 b M M M M n M M M n = n n = & X ",
"O = b M n = b n M b 6 5 6 n n b 6 6 6 6 M n n 6 b M M M n n n n M n 6 n M 6 5 6 n n n M b & b n M 6 6 5 6 M b 7 6 b 6 6 n M n = 6 M M M n n n n M n = M M = O o ",
"= = M M n 6 = b M 6 & & = = & = 6 M M M b 5 @ n M b M M M 6 6 n n M M M M n M M n M n M n 6 = n M 6 5 5 5 5 5 6 6 n M M n & & M M b M M M 6 6 n M M M M M n b = ",
"O = n n b 6 n 7 b b 6 & b n 6 6 n n b 6 6 7 n n 6 6 n M M b 6 n M M n = = M V M n n n n n 6 6 7 b b 6 @ b n 6 = n n n = n n n n 6 6 n M M b 6 n M M n 6 = M b = ",
"O = b b 6 n n n 6 n n 5 n M M n n M 6 5 b M M 6 5 6 6 M M n n M M M = = = M M n b 7 6 b 6 b M n 7 M b 6 b M M n n n 6 = 6 M n 6 6 5 n M M n n n M n b & & M b & ",
"O & = = n M M M M M M M 6 5 M n b M n n n 7 6 5 6 6 b n M n n n n b = b n n n 6 b 6 6 6 n M M M M M M M 5 6 M n n M M n 7 6 6 5 5 b 6 n M n n M n b = n M M = o ",
"O & & = 6 M n n m M M n 5 6 M M M n n n n n 6 5 6 n 6 6 n 6 6 M M n n b M M 6 & n 6 5 5 6 n n n M M n b 6 6 M M n M n n M n 6 5 6 n 6 6 b 6 6 M M n b n M m O X ",
"O O O O = 6 6 b M M n = = n M M n n b n M M b 6 n n b 6 5 5 6 n M M b n M M b 5 n 6 5 @ 5 6 6 n M M n 5 6 n M M n n 7 n M n b 6 n n 7 5 6 5 6 n M M n n M M = X ",
"= & O & & & 6 n n M n = 6 n n 6 5 6 5 6 M M n n n M M n n n n b & & M M M n n M n 6 o 5 @ 5 6 n n M n 6 6 b n 6 5 5 5 6 M M n b n M M M n n M 6 & = M M M n = O ",
"o o O & & @ = = = = = = = = = = 5 = 5 5 5 6 6 6 6 6 6 b 6 6 b 6 o o 6 5 O O 6 6 6 5 o 5 @ 5 = = 5 5 5 = 5 5 5 & 5 & 6 6 6 6 6 b 6 6 6 6 5 6 6 6 o o = = O O O O ",
". X o O & 5 O o o X o O & O o O 5 & 6 5 o o 5 6 5 @ $ + 5 @ 5 5 o o O o . o o & & o o & 5 5 $ o o o o O & O O & 6 & = & o o 5 5 & O & & 5 @ 5 5 o X & o . X X . "
};
