/* XPM */
static char *Group_6_9__resized[] = {
/* columns rows colors chars-per-pixel */
"80 80 227 2 ",
"   c #315717",
".  c #37631B",
"X  c #39661B",
"o  c #3C6D1D",
"O  c #3F711F",
"+  c #3E7320",
"@  c #3F7821",
"#  c #4C6B17",
"$  c #416D1C",
"%  c #536B16",
"&  c #41751F",
"*  c #4B731C",
"=  c #43781F",
"-  c #4B7B1D",
";  c #5B7617",
":  c #557519",
">  c #557C1B",
",  c #597E1B",
"<  c #79780D",
"1  c #626D11",
"2  c #657412",
"3  c #627B16",
"4  c #6A7A14",
"5  c #627E18",
"6  c #797C10",
"7  c #417620",
"8  c #457C21",
"9  c #4A7E20",
"0  c #896C05",
"q  c #946C02",
"w  c #9B6D00",
"e  c #867A0A",
"r  c #9E7100",
"t  c #927D07",
"y  c #A47500",
"u  c #A87700",
"i  c #A67900",
"p  c #AB7D00",
"a  c #4F801F",
"s  c #54821E",
"d  c #5B841C",
"f  c #5C891F",
"g  c #5E911F",
"h  c #6A8316",
"j  c #63841A",
"k  c #6A8619",
"l  c #63891C",
"z  c #6C8C1A",
"x  c #7C8311",
"c  c #768916",
"v  c #6D921A",
"b  c #68981E",
"n  c #73921A",
"m  c #7B9918",
"M  c #79A11A",
"N  c #478122",
"B  c #498423",
"V  c #478825",
"C  c #4C8A24",
"Z  c #518520",
"A  c #528C23",
"S  c #5B8F20",
"D  c #559024",
"F  c #4E8032",
"G  c #749633",
"H  c #84840E",
"J  c #8B880D",
"K  c #95840A",
"L  c #9D8608",
"P  c #948B0D",
"I  c #9B8B08",
"U  c #8F990F",
"Y  c #95920E",
"T  c #9C990D",
"R  c #838A12",
"E  c #858911",
"W  c #849412",
"Q  c #859C15",
"!  c #8D9812",
"~  c #A18304",
"^  c #AE8100",
"/  c #A68B05",
"(  c #AE8A04",
")  c #B38400",
"_  c #B88500",
"`  c #B58901",
"'  c #BB8C00",
"]  c #AD9206",
"[  c #A4940A",
"{  c #A49C0D",
"}  c #A99B0B",
"|  c #B29305",
" . c #BD9101",
".. c #BB9A03",
"X. c #B69C08",
"o. c #9DA10C",
"O. c #96A512",
"+. c #A7A50C",
"@. c #B8A609",
"#. c #AAB50E",
"$. c #B7B30D",
"%. c #B7BA0D",
"&. c #A8AF10",
"*. c #C18E00",
"=. c #C39400",
"-. c #C99500",
";. c #C69B01",
":. c #CB9C00",
">. c #D29E00",
",. c #C5A403",
"<. c #CDA101",
"1. c #CCAB01",
"2. c #C4A809",
"3. c #D4A400",
"4. c #DAA500",
"5. c #D4AB00",
"6. c #DCAC00",
"7. c #CBB207",
"8. c #C7B804",
"9. c #D3B200",
"0. c #DCB301",
"q. c #D6BA00",
"w. c #DBBC01",
"e. c #DBBA08",
"r. c #D8B715",
"t. c #E1AE00",
"y. c #E3B300",
"u. c #E9B500",
"i. c #E5BB01",
"p. c #ECBC00",
"a. c #E3B40A",
"s. c #E9BD0A",
"d. c #F1BE00",
"f. c #E4B815",
"g. c #E6BC22",
"h. c #B5C00D",
"j. c #CACB07",
"k. c #D5C706",
"l. c #DCC200",
"z. c #DFCA02",
"x. c #CAD00D",
"c. c #DED11D",
"v. c #E4C401",
"b. c #ECC200",
"n. c #E5CB00",
"m. c #EBCD00",
"M. c #E4C308",
"N. c #F2C300",
"B. c #F8C500",
"V. c #F5CC00",
"C. c #FDCD00",
"Z. c #F5CE0B",
"A. c #E5D500",
"S. c #EBD401",
"D. c #ECDB01",
"F. c #EEDA09",
"G. c #F3D400",
"H. c #FED300",
"J. c #F2DC01",
"K. c #FEDC01",
"L. c #F3D80B",
"P. c #EECC15",
"I. c #FFD315",
"U. c #F4D91A",
"Y. c #EAE403",
"T. c #EFE804",
"R. c #F3E500",
"E. c #FDE400",
"W. c #F4EA01",
"Q. c #FDEC00",
"!. c #FBE20B",
"~. c #F6EB08",
"^. c #FEF301",
"/. c #FCF707",
"(. c #FFFD01",
"). c #FAE314",
"_. c #FDF616",
"`. c #FFFC13",
"'. c #DFCB3B",
"]. c #E9C52D",
"[. c #EEDB28",
"{. c #F9DA27",
"}. c #FFD42A",
"|. c #F9D835",
" X c #FFD939",
".X c #EEEF23",
"XX c #FDEC22",
"oX c #F7E728",
"OX c #FFF227",
"+X c #F9F626",
"@X c #FFF32C",
"#X c #FFFD2A",
"$X c #FBE434",
"%X c #FFFB3C",
"&X c #89A76F",
"*X c #FFDC40",
"=X c #E3CE57",
"-X c #FFDD52",
";X c #FCE846",
":X c #FFF84C",
">X c #FCE85D",
",X c #FEF855",
"<X c #FEE363",
"1X c #FDEF6B",
"2X c #FFFD65",
"3X c #FFFB69",
"4X c #EEEC7D",
"5X c #F3E77A",
"6X c #FEF57A",
"7X c #FEFA7A",
"8X c #CAD187",
"9X c #FEEA85",
"0X c #FFFD83",
"qX c #FCF38F",
"wX c #FFFE8C",
"eX c #FEEE9D",
"rX c #FDF491",
"tX c #FFEFA7",
"yX c #FFFCA1",
"uX c #FFFCA9",
"iX c #F5ECB6",
"pX c #F7F4B3",
"aX c #FEFCBB",
"sX c #FEFAC3",
"dX c #FDFBCA",
"fX c #FEFCD8",
"gX c #FFFEF4",
/* pixels */
"  . & o O O O & & o o & = = & O O & & & o o O 8 7 & & & O o o $ 7 7 7 O O 8 & o . o 7 O o + & & & o o & 7 7 7 & & & & & o o & 8 7 7 7 7 O o o O O 7 7 + & 8 o   ",
". o & & 7 7 O O O O O 8 = & = O + 7 & & o o 7 8 & O O & 7 7 7 8 8 7 7 O O 8 8 8 7 7 $ 7 7 7 + o o O & = 7 7 = & O & 7 & o o & 7 7 + $ + O 7 8 8 8 7 7 O o 8 & X ",
"= = & = N 8 + o O O = N 8 8 8 8 7 8 7 o & 8 8 7 & + o + 7 N C C B N 7 $ O 8 B C C N 7 8 8 8 7 O & & = 8 8 8 7 7 7 7 7 o & 8 8 7 + + o $ 7 N C C C N 7 o 7 8 8 8 ",
"& = B C B N 7 7 = = = N B B C V B N 7 O 8 B B B 9 8 B B N N N B B B B 7 = N B N N B N C C 8 7 7 8 & & B B C C C B B 7 o 8 N C B N 9 B B 9 N B B B N 9 7 7 8 8 $ ",
"o 7 N B B B B 9 B 8 8 8 C C C B C B B 8 C C C C C B C C C 8 8 8 8 8 C N 8 N B B N 9 N N V C B 9 N 8 8 N C C C C C B N 8 B C C C C B C C V 8 8 9 8 9 C N 9 9 7 7 ",
"& & O 7 B C C C B B B B C C 8 8 8 C C C C C C V C C C B B 8 8 7 $ 7 N C B 8 B B B 8 @ + 9 C C C B B 9 B C C 8 8 N C C C C C C C C C C C 9 8 8 8 O + N C V 8 7 7 ",
"o o & 8 8 8 8 8 8 7 7 8 7 8 B C B B 8 7 8 8 8 B B C C C B 7 7 8 O O N C C 8 7 8 9 @ + 8 9 9 8 8 8 7 7 7 7 8 B B B B 8 8 8 8 B B B C C C V 7 @ 7 O 7 9 C V 8 o X ",
"o $ & 9 8 & 7 7 7 o O O O O 8 B C B 8 8 7 8 8 = 8 C C C C B 8 B 8 7 B C B 7 o & 8 7 @ 9 8 + + + O O + 7 + + 8 N B N 8 8 7 7 8 7 8 C C C V B 9 B 7 7 N C C 7 X X ",
"o O 8 8 8 O O O + o 7 O + + o 8 a 8 N C V B & O & C C C C C C C N N C C B + @ 8 8 8 7 8 8 + o O O O + + + + O 8 B 9 B C C N @ o 7 C C C C C A C B N C C B o o o ",
"o $ 7 8 8 7 + O o 7 7 o 7 7 8 8 B B V C C B 8 B C C C C C B B B 8 7 8 N B N B B 8 8 7 8 8 8 + O O 7 + o @ 8 7 N B N C C C B 8 B C V C C B 9 B N 8 7 7 B V N 8 & ",
"O O 7 N N 8 @ + 7 8 8 7 9 N N C C B V C C B B V C C C V = B B N 7 X o 8 B N B C 8 7 @ 8 9 8 7 + + 7 9 8 8 9 B C C B C C V B B C C C C V 8 9 N V 7 o o 9 C B 8 = ",
"& & 7 C C C 9 8 N C C C B N C C C B C C = B V a B C C N & 9 C A 7 $ 7 C A - B A A B = A D A 9 9 B C C C N N V C C N C C 8 9 C 9 B C A 9 7 9 C C 7 o o B C = & & ",
"O O & N C C C N + 8 B C N 8 V N 8 B C B V C C N B C C B 8 N N l R O.&.$.%.$.$.$.$.@.+.} +.{ T Y H 3 > N 8 8 V N 9 B B B B C C N C C C C N C C C N 9 N C B 8 & O ",
"o O = 8 B C C B 7 + 9 C 9 9 B N 8 B B 8 C C C N B B B S M M Q o.$.M.L.E.K.E.K.K.B.B.d.p.y.t.6.3...I W m n d N 9 8 C N 8 C C C N N V C C A C C B B C C C B 9 8 O ",
"& = B C C C B B B 9 9 V N 9 B C C B & O 8 C C = & 8 - Q j.T.T.F.K.).oX).Q.E.E.K.H.B.C.C.H.V.d.d.b.m.F.Y.k.O.Z N C N 7 O 8 B C 8 7 8 N V V C C N 8 9 N 9 B B 8 8 ",
"& = B B B C C B C V B N B B B C C 8 O o & 8 @ O > Q #.j.G.Q.#X7XrX7X@X/.^.^.^.^.Q.E.K.K.H.C.V.V.V.N.C.E.V.l.%.O.k 7 o O 7 8 8 @ + 7 9 9 8 9 B B N N N V V C 8 = ",
"o 8 B 8 8 C B B B C B 8 8 N C C C 8 7 7 7 + 7 d ! j.T._. X;X1XuXsXqX+XW.W.W.W.W.W.Q.E.E.K.C.H.C.B.u.u.V.C.K.Q.k.o.z a O O O O @ 7 9 8 8 7 8 N C C C C C B C N & ",
"= = 7 O 7 8 8 8 F 7 + + + 7 N C C B B 8 8 8 g h.A.J.!.,XsXdXyX:X{.P.M.q.9.9.9.q.v.b.V.K.K.K.H.H.C.p.i.y.J.^.^.Q.Y.j.M O a a V V B C V C C C C C C C C 8 8 N 8 8 ",
"& 8 9 7 7 7 8 8 8 7 7 8 7 + 9 C C C C 9 @ v h.S.E.^.XX,X7X9X=Xr.5.5.5.0.0.1.9.0.0.;._  .5.V.K.H.C.N.u.y.v.[.6X0X7X4X8X&XV O C C C C C B 9 B V B 9 8 9 8 & 7 7 8 ",
"o 8 C N 8 8 8 8 7 8 8 8 7 o N B C B B B d &.E.E.E.^.@XoXL.i.,...@.1.e.S.n.5.w.m.v...r w _ 4.i.G.C.N.p.N.6.'.iXsXaXaXpX8XG a a V C C C B 7 9 N C 7 @ 8 9 8 O & 7 ",
"8 8 N C C C N N 9 7 7 + o 7 C C 9 8 N b %.n.G.^.^.Q.!.M...,.0.S.).).+X_.D.;.l.^.Q.R.n.i.;.u i ;.V.N.p.N.p.f.].oX#X#X#X.Xh.M C B 8 V B C C A C C V C C C C 9 7 7 ",
"7 8 B C C N C C V B 8 8 8 9 C C N 8 s ! z.E.E.Q.Q.G.0.,.1.w.[.1X0X2X#XT.z.5.n.W.Q.Q.K.H.i.<.' `  .5.y.i.p.d.y.m.W.^.^.^.~.h.l V B B 9 B N B B V C B N C C N 8 8 ",
"o 8 C N N N B C C C C C C C C C B 7 x @.v.E.^.Q.G.l...2.U.OX2XaXdXwX`.A.l.N.b.b.H.H.C.C.K.K.b.=.q _ 3.6.u.p.d.i.v.E.Q.E.Q.k.U g V 8 9 7 7 7 7 8 8 7 7 N C N 9 7 ",
"& = 9 9 C C N 8 9 C C C C C V N 7 * T b.S.E.Q.J.q.X.w.|.qXaXuX,X%XOX~.z.l.V.y.5.G.K.C.C.H.H.H.N.5.u y 4.6.y.d.6.0.V.K.H.H.E.x.b 8 + 7 8 8 7 7 7 O 7 8 9 B N 8 O ",
"& = B B V N N 8 8 N 8 8 B C B 8 > c 2.b.J.Q.K.q.,.7.).:X7XwX3X_.^.!.Z.A.A.V.6.<.G.K.C.C.C.C.H.H.G.-.i _ :.6.y.y.6.y.d.B.B.H.S.O.5 + + 7 7 7 7 O O O N N N N = O ",
"O 8 B C N O = 8 N N 8 O 9 C B 8 v 7.0.i.J.E.m...1.!.%X%X`.`./.E.).U.s.F.Q.C.6.<.b.H.C.C.C.H.C.H.C.b.;.w ' 6.6.y.y.3.6.p.p.p.i.9.Y 8 + O O 7 + 7 O = N N N N = O ",
"O 8 B B O O O O C C B B B B 8 8 n e.p.i.K.l.,.9.S.^.`.`.(.Q.K.E.oX[.r.S.Q.H.p.y.y.N.C.C.C.C.C.H.H.B.6.) _ =.4.6.6.>.4.y.y.y.y.N.&.B + O o + 7 8 8 8 N N N V a O ",
"& 8 B 9 N @ O a C C C B C V 9 j T w.b.p.V.<.( n.Q.(.(.(.Q.K.K.K.$X;Xc.F.K.H.B.y.5.u.H.H.C.C.C.C.C.B.y.3.p p <.6.5.3.3.5.t.y.y.V.@.k 9 7 7 9 N N B N N a B C 8 = ",
"O 8 B C C C a C C N 8 7 B B C ! ,.6.p.b.5.' ` D.(.(.(.Q.K.K.K.K.;X>X@XL.H.C.B.y.3.y.K.H.H.H.C.C.B.b.p.p._ y =.3.4.4.3.4.y.y.y.y.1.Y l V C C C C C C C B 8 N = & ",
"o = B C B = V V B N 8 7 N C A +.u.4.p.b.p _ 0.^.(.(.Q.E.K.E.K.K.1XrX,X{.C.C.d.0.0.p.V.H.H.H.H.H.N.p.d.N.;.p p -.6.5.:.:.y.y.y.y.y.7.n V C C C C C B 8 N B 8 O X ",
"O & B C B O N V B N 8 7 8 N 9 @.d.3.y.y.w  .K.W.W.R.V.V.G.L.U.$XeXdXyX<X}.I.s.t.u.p.y.b.b.N.b.b.y.y.u.p.6.' r ` 4.3.:.;.6.u.y.y.d.v.m N C N B B B B N B C 8 & o ",
"& N V C B a = N C N 7 7 8 & # } u.:.3.>.y ,.R.Y.n.y.0.0.e.r.'.5XdXgXfXtX-X XP.y.V.i.:.:.3.3.3.4.3.3.6.0.y.:.r ^ :.3.:.;.4.0.t.y.p.b.m B C = 8 B B C C C C B = = ",
"& 8 B B B 8 N N N N 8 + N > 2 ] 6.:.=.'  .<.q.Y.W.D.J.D.J.F.U.$X9XtX9X-X}.I.s.t.u.p.i.u.u.u.u.6.6.y.4.=.>.;.u p  .3.3.;.3.6.y.y.p.i.R > C 8 8 B C C B = 8 B N = ",
"o & 8 B 8 B B B N B N 8 N Z 6 | 3.:._ p 4.0.8.A.W.^.^.Q.^.Q.E.K.*X<X XI.C.C.p.t.0.u.V.V.B.N.b.u.y.6.:.' <.:._ u ) ;.:.:.>.6.y.y.u.0.H , C B N B C V N = @ C N & ",
"O & 8 8 B C C C V C C C @ > P  .;.:.p y w.E.T.9.l.Q.C.B.H.H.C.C. X>X XI.C.C.p.6.y.y.0.y.y.y.y.y.6.=.=.<.p.i.=.p u =.;.:.;.6.u.y.y.0.L 5 A B B C N a 8 N B C 8 o ",
"o & & & 8 B B B C C C N @ 5 ] =.-.:.y y v.^.^.b.w.l.G.V.u.d.B.C.}.*X}.I.H.B.y.y.t.y.t.6.y.y.6.:.=.=.3.y.N.u.<.^ i ' -.;.;.6.y.y.i.y.| x 9 8 N C C B N N C C O . ",
"& & o O 8 8 8 9 C C B = @ k X.-.-.-.i y n.Q.Q.K.p.9.A.S.y.y.p.N.P.|.}.Z.N.i.y.y.0.y.y.y.y.6.;.' ' 3.y.N.N.u.3.^ r _ -.:.;.3.6.6.6.5...H 7 8 8 B C V B B V C & X ",
"& & & & & & 8 B C C B = 8 k ,.:. .=.i y v.J.V.H.H.V.9.l.W.i.6.y.f.g.f.a.y.y.t.y.y.y.u.u.4.' _  .4.i.p.d.N.u.4.) r ) =.:.-.=.=.=.=.=.^ x B B C 8 = = C C C B 8 = ",
"& = & = B = B 8 8 8 B B N k ;.:. . .y i l.S.b.N.C.V.p.v.n.m.v.6.f.f.r.t.6.y.y.y.y.u.6.:.' )  .4.u.p.d.b.p.y.4.) r ^ =.:.-. .' ' ' ' ` H B B C N & & V B = = = = ",
"O & B B V B N N 8 8 = B N z ,.:.=.' i i l.b.b.u.p.b.H.p.5.m.S.y.a.a.a.y.u.t.0.y.y.t.<.) p ' 6.p.b.d.p.p.u.0.3.^ r ^  .;.-.=.=.=.=. . .K B 9 B C = = B = & = & O ",
". & B B 9 B B B B 8 8 B B v ;.:.' ' y i 9.b.p.p.p.p.p.b.p.6.0.V.a.t.t.a.y.y.6.y.y.4. .^  .6.u.p.p.N.p.y.t.6.:.^ r ^ =.;.-.=. .=.=.' ` H B 9 N N B B B B N C 8 o ",
"o & 8 8 8 N 8 8 8 8 8 B N k ;.:.=.' i y <.i.d.p.p.p.u.p.p.3.9.J.N.t.t.y.y.y.y.y.y.6.=.p =.p.b.d.p.u.y.y.t.6.;.^ y p *.;.-.=.=.*.=.=.~ 6 - 8 N B C B 8 7 8 C 8 & ",
"= & & 8 N 8 O o O 7 8 N @ j | -.=.` y y :.0.u.p.p.p.p.p.p.6.w.E.V.u.y.t.y.y.6.y.y.6.:.p =.u.N.p.p.y.6.6.6.6.=.p y p =.:.=.=. .=.=.' i 4 7 N C C C 8 & o & 8 8 = ",
"& = B C B N 7 7 8 & 7 8 V f L | -.' i y ;.4.0.p.N.p.p.d.N.q.l.K.H.N.6.y.y.t.6.y.u.y.3._  .6.u.u.y.6.6.6.6.3.' p i p =.;.=.' =.=.-.| t 4 B 9 N B C B B 8 & 8 = O ",
"O 7 9 8 B C B B B 8 8 N C f e ` -._ p u =.:.5.u.b.p.p.p.p.l.A.C.C.N.y.y.6.4.3.3.6.6.3.' ' ;.t.y.6.6.6.0.6.:.) p p p =.<.=.=.=. .-. .e ; B 9 8 8 8 8 B B 8 9 8 O ",
"& + 7 7 N C C B B B B 9 V s 2 / ;._ p ^ _ -.4.y.u.p.p.u.t.S.R.C.B.b.y.6.3.-.=.-.;.:.>.*._ ' 5.y.6.6.t.t.5.-.p p ) ) =.:.=.' =.=.;.=.6 - N 8 7 8 o 7 N C N 8 7 7 ",
"o o 7 8 8 8 8 8 8 7 @ 8 8 & : [ 3._ ^ p u ' 6.4.6.p.b.y.4.D.Q.H.p.u.u.>.` y ^  .;.:.;.=.' _ <.6.6.6.6.6.4. .y i _ _ =.:.=.' *. .-.:.c 9 B 8 7 8 o o 9 C C 8 o X ",
"o O & B 8 & & 7 + O o O O o * [ 6.' ) p y ' 5.<.4.u.N.y.5.Y.Q.V.p.t.<.=.' ` _ ` *.=.-.:.' _ ;.4.t.6.6.<.:.' r i ) ' -.;.=. .=.=.>.3.z N C N 9 N 8 8 B C C 7 o . ",
"o o = = 8 O O O O O O O + o o [ t.*._ ) r p ;.:.3.4.u.b.l.D.K.N.u.6.'  .4.y.<.) u _ -.:.=.' *.>.y.6.3.;.=.) y u _  .-.=.=.=.=. .>.<.n V C C C C C B C C B + o o ",
"o $ = = 8 7 O O o O + O & 8 8 Y :.=.' p i p _ ;.>.;.-.5.Y.Q.G.y.:.=.:.4.6.y.6.3.;.` ^ ' ' ' ' ;.6.3.:.:.) y p ) _ ;.;.' ` ` _ ` ( L l V B B B B 8 7 7 9 B N 8 & ",
"O O = B B B 7 O 7 8 8 8 8 N N c [ ;.=.p ) i i =.<.;._ 1.W.G.y.4.;.;.6.y.6.6.0.y.6.;.' _ ) ) ' ;.3.:.:.;.p y ) ) ' :.=.) ) ) ) ' ~ 4 Z B 8 8 B B + o + 8 B B 8 7 ",
"= & & C C C 8 8 B B C C N N C 9 c 5.:._ _ i y ` ;.:.' q.W.0.=.=.4.u.6.y.6.6.6.6.6.u.t.:._ p ' -. .:.-._ u u ) ` ' :. .p p ^ _ *.P > C 9 7 9 C C 7 o + F C 7 7 7 ",
"o O & B B C C N + 8 B C N 9 C 8 4 2.>.' ) p i y ' >.,.1.1.<.-.-.:.4.3.4.6.4.4.4.4.5.4.:.=.' ' ' ' ;. .y i ) ^ ' -.=.` ^ ^ ^ ^ ` E A C C B B C C N 9 B C C 9 7 O ",
"o & = = B C C B 7 + 9 C N 9 V 8 , [ ;.:.) ) ) y i =.<.;.' =.:.:.;.;.:.:.:.>.<.<.:.:.:.:.>.;.=.' ` ' ) r p ) ^ -.;.' ) ^ ) _ ) K h B V C C C C C B B C V N N 7 O ",
"O = B C C C B B V 9 9 B N 9 N V B , { 6.' ) _ p y y ' ;.;.;.:.:.:.:.;.;.:.:.:.:.:.:.:.:.:.;.<.:.' y y ) ) ) ` -.;.) p ) ) *.| 2 O 8 N V C C C N 9 9 N N N B 9 @ ",
"O = C B C C B B C C V N B B B C C 7 R ;.=.' p ) p y y _ :.<.>.;.:.:.;.:.:.-.;.:.;.;.;.:.:.<.:.' y y u _ ^ _ ;.=.' p p ) _ ( e : + 7 9 8 8 9 B B N N N B C B N 8 ",
"& 8 B 7 8 C B F B C B 7 9 B V C B 8 , K <.-.) ) ) p y y ' -.;.:.:.:.:.:.:.:.:.:.:.:.:.:.;.-.' u w p ) ) ) ' :.' p ) ^ ) ` K ; 8 8 8 8 7 7 9 B C C C C B C V N = ",
"7 7 8 O @ N 8 9 N 7 7 o o 7 B C C B B k 2.<. .) ^ _ p i r u ' ;.3.>.:.:.:.:.:.:.:.3.3.;.' u y y p ) ) p ' ;.=._ p ) ) ^ ( R Z B B B C C C C C C C C C 8 = B N & ",
"& 7 8 8 @ 7 7 8 8 7 7 8 o + 9 C C C B Z c X.4.' ) ^ ) p y i p ^ ) ' ' =.=.=.=.=.' ' ) ) p i i p _ ) ) ' ;.=._ ) ^ ^ ' ` 6 , N C C C C C 9 N B B 8 8 B 8 & & = = ",
"o 8 C 8 8 8 8 8 7 8 8 B 7 7 9 V C B B B 8 W 5.;. .) ^ ) _ ) u w w y ) ) ` ' ` ) ^ i w w y ^ _ ) ) ) ' =.=._ p p ) ) ( P , 8 9 C C V A B 8 8 B B = & 8 8 8 & & = ",
"8 8 B B C V B 9 8 7 & & o 7 C V N N B V C A m 2.3.-._ p ) ) ) p ^ u u u i i y i u p ) ^ ^ ) ) ^ p *.;.*.' p ) ) ' ( E A C V C N 9 V B C A C C C C C C C B 8 = = ",
"& 8 B C C C B C C 9 8 8 8 B C C N 8 9 B N 8 9 W } ..:.-._ p ^ ) ) ) ) p p p p p p ^ ) ) ) ^ _ ' =.=.' ) p p *.( K e , V B N N N V N 9 N N N C N C B B C C N 8 = ",
"& = C B B 8 V C C C C C C C C C B 7 7 9 8 7 & C l P 2.3.' ' ` ) ) ) ) ) ) ) ) ) ) ) ) ) ) ) ' =.:._ p p u ( ' K 4 8 7 9 7 7 7 C V 9 9 7 7 7 8 8 8 7 = 9 C B = = ",
"& = = B C C 9 8 9 V C C C C C 9 8 8 7 + 7 8 B V C : ; J ..4.6.-.' _ ) ) ^ ) ^ ) ) ) ' =.;.:.=._ u y p _ u e k , 9 7 7 7 7 8 N A B + 7 8 8 7 7 7 + 7 8 9 B B = O ",
"& = - B B B 8 8 8 8 8 7 N C B N 9 9 9 @ 8 B C C N + o : H T [ ~ / ` ' ' ' ' ' *.' *.' *.*.' _ r 0 0 0 e 6 5 9 9 8 B 8 8 8 B B C B 7 $ 7 8 7 + + o 7 B 8 8 B = O ",
"O 8 C V 8 @ 8 8 B B 8 7 9 C N B V C V N C C B C N 7 O O $ $ # 1 e L | .......... .| ` ~ t q q 0 < 1 # $ 9 B N N B C B B C B C C B 7 7 + O O O 7 O & N B B 8 = & ",
"& 8 B B 7 o o 7 C C C B B B 9 N C C C C C C B C C B 7 O o + 7 - > d j k z v z v z l j 5 : % % : d Z B B B V 9 B C C C C C C B C B B 7 o o 7 7 8 = 8 8 B B B 8 = ",
"& = B B 8 8 7 8 C C B B C B N C C C C C B B 8 B C C N 8 @ 9 N N N V B 8 N B V V V 8 V V 8 @ @ 8 C C B C C B N V C C C C B B 8 B C C N 8 8 8 N N B B B B B B B & ",
"& = V C C C B C V B = = N C C C C N N B N 8 7 N B C C C C C C C C C C B 8 N N B N N C C C C B C C N 8 7 N C C C V B B B N 8 7 8 B C C B B C C C C C C B 8 N = O ",
"o & B C B 8 B C N B 9 & N C A V N 9 8 9 B V N 8 N C C C C B C C C B 9 N B 8 & 8 9 N N C N 8 B C B B 8 7 N C C B N N = = B C B 8 N C C C C B C C C B = B B = O X ",
"& & B C N = N B V B 8 O N B V N 9 9 8 N C C N 8 9 C C C C N N B B B N B B 8 8 8 N N N C N 7 9 N B 9 8 7 8 C V N 8 N N 8 C B B 8 N B C C C B B B B B - V V = O o ",
"= - V C B 8 = N C N O = = = O O 8 N V V N 7 7 N B N C C C 8 8 B B C C C C B C C V C C C C 8 8 B C 8 7 7 7 7 7 8 8 N C C N = & B B B C C C 8 8 B C V C A C V N = ",
"O = B B a 8 8 N B B = & a V a N B B 8 8 B 8 B B N 8 B C C 8 8 B C C B 8 8 V C A B B B B N 8 8 B N N 8 7 8 B N 8 B B B = N N B B N 8 N C C 8 8 B C C B 8 = C B = ",
"O & a N B B V B = B B = N V V N B C 8 7 8 C C 8 @ 8 N C C B N C V B a O = V C C 8 8 B 8 N 9 C B 9 B N 8 N B C B B B 8 & 9 B C 8 8 8 N B C B B C C B N & = C a O ",
"O O @ 8 B C C C C C C C a @ C V B B C B B 9 8 7 7 N 8 B C B B C B a = B B C B 8 B 8 8 8 B C C C C C C C 8 8 C B B C C B B 9 8 & 7 B B N C B B C B N 8 N V V = o ",
"O O = O = V V V C C V N = = C C C C B B B B 8 8 8 B 8 8 N 8 N C C C 8 B V C = & B 8 7 7 8 B B B C C C N 8 8 C C B C B B B B 8 8 8 B 8 8 B 8 8 C C B 8 B C C O X ",
"O O O O O N @ N C C N O N N V V B B 8 B C C 8 8 N B 9 8 8 8 8 B V C B B C C 8 8 B 8 o & 7 8 8 N C C B = 8 N C C B B B 9 C C 8 8 9 B B 8 7 7 8 B C C B B V C = X ",
"= = O O = O a N a C V a a N N N 8 7 7 8 C C B N N C C C 8 B C 8 & = B C C B B C C 8 o & 7 & 8 B B B B N 8 8 B 8 7 8 7 8 C C B B B C C C B B C 8 & = C C V a = O ",
"o O O O O O 8 O = O = O @ O a @ 7 & 7 8 8 8 8 8 8 8 8 8 8 8 8 8 o o 8 8 O O 8 8 8 7 & & 7 7 & 7 8 = & = 8 = = 7 & & 7 7 8 8 8 8 8 8 N 8 8 8 8 8 o O = = & & O O ",
". X O O = = O O O X O O O O o O 7 & 8 & o o 7 8 7 7 O & + O O 8 o X O o . o o & & o o O & 7 & $ o X o O & O o O 8 & = = o o + 8 7 O O O & o 7 7 o X & o . X . . "
};
