/* XPM */
static char *Group_9_23__resized[] = {
/* columns rows colors chars-per-pixel */
"80 80 216 2 ",
"   c #07041E",
".  c #1F3D1D",
"X  c #0B0622",
"o  c #100E2C",
"O  c #13162A",
"+  c #181835",
"@  c #22193A",
"#  c #1B2737",
"$  c #273D2B",
"%  c #202E3D",
"&  c #223836",
"*  c #27461C",
"=  c #2B4C1E",
"-  c #2F5216",
";  c #2E531D",
":  c #31561B",
">  c #335B1C",
",  c #37631C",
"<  c #39661C",
"1  c #3C6D1E",
"2  c #3F711F",
"3  c #2A4A25",
"4  c #28442A",
"5  c #2C4B2B",
"6  c #304C2E",
"7  c #2D5123",
"8  c #2D522C",
"9  c #325424",
"0  c #345A23",
"q  c #385B26",
"w  c #35542C",
"e  c #355A2C",
"r  c #3A5C2D",
"t  c #264334",
"y  c #2A4636",
"u  c #2B4B35",
"i  c #26433C",
"p  c #29443B",
"a  c #2B4C3C",
"s  c #314C32",
"d  c #2D5437",
"f  c #355334",
"g  c #385A33",
"h  c #366122",
"j  c #3A6523",
"k  c #3C6A22",
"l  c #3D642C",
"z  c #3F682C",
"x  c #3F7220",
"c  c #3D6231",
"v  c #41751F",
"b  c #43781F",
"n  c #406F26",
"m  c #416B2C",
"M  c #417620",
"N  c #457C21",
"B  c #43712A",
"V  c #416930",
"C  c #2A2649",
"Z  c #253A46",
"A  c #2E3950",
"S  c #343358",
"D  c #393E63",
"F  c #49375D",
"G  c #294845",
"H  c #2E5546",
"J  c #325945",
"K  c #325A4C",
"L  c #2D4D50",
"P  c #3A4756",
"I  c #2E5553",
"U  c #2E5856",
"Y  c #385557",
"T  c #315C53",
"R  c #325D5B",
"E  c #37644D",
"W  c #356657",
"Q  c #33635D",
"!  c #3E4269",
"~  c #346662",
"^  c #366B65",
"/  c #396D63",
"(  c #396966",
")  c #366C6C",
"_  c #3A7165",
"`  c #36706C",
"'  c #3C736A",
"]  c #3E7A6B",
"[  c #376D72",
"{  c #377374",
"}  c #3B7673",
"|  c #3D7C72",
" . c #3D7C7B",
".. c #49496D",
"X. c #44776D",
"o. c #586D77",
"O. c #437D73",
"+. c #69647E",
"@. c #478022",
"#. c #498423",
"$. c #4C8A24",
"%. c #3C806D",
"&. c #3F827A",
"*. c #478777",
"=. c #558B78",
"-. c #48927B",
";. c #4A947D",
":. c #55927B",
">. c #3B7C82",
",. c #707490",
"<. c #448D85",
"1. c #448B88",
"2. c #4B9682",
"3. c #4E9D84",
"4. c #44938C",
"5. c #47988B",
"6. c #4F9E89",
"7. c #509E84",
"8. c #599884",
"9. c #428C97",
"0. c #489793",
"q. c #4A9B93",
"w. c #649B87",
"e. c #4EA386",
"r. c #4FA088",
"t. c #50A186",
"y. c #51A38A",
"u. c #55AA8D",
"i. c #5AA88C",
"p. c #57B18F",
"a. c #4EA699",
"s. c #4DA59B",
"d. c #54AC93",
"f. c #54AC96",
"g. c #57B192",
"h. c #59B493",
"j. c #5CBA95",
"k. c #56B39B",
"l. c #59B59A",
"z. c #5DBD98",
"x. c #63A189",
"c. c #67B797",
"v. c #75BA9C",
"b. c #489AA8",
"n. c #7983A0",
"m. c #4AA2A9",
"M. c #51ACA3",
"N. c #50ACAA",
"B. c #55B4A3",
"V. c #55B5A7",
"C. c #57B8A5",
"Z. c #59BAA4",
"A. c #56BAAC",
"S. c #59BEAA",
"D. c #54B7B6",
"F. c #56BCB2",
"G. c #78BFA0",
"H. c #5EC39B",
"J. c #61C59C",
"K. c #63C99F",
"L. c #5DC0A5",
"P. c #5BC2AD",
"I. c #5BC4B4",
"U. c #5EC9B5",
"Y. c #5BC6BA",
"T. c #5ECCBB",
"R. c #64CCA1",
"E. c #6BCEA3",
"W. c #78C5A3",
"Q. c #67D1A4",
"!. c #69D4A6",
"~. c #6ED7A9",
"^. c #6CDCAB",
"/. c #7BDAAD",
"(. c #79DFB0",
"). c #73E4B1",
"_. c #53B8C5",
"`. c #5DCDC8",
"'. c #5FD2C2",
"]. c #5AC7D6",
"[. c #61D4C3",
"{. c #62D8CD",
"}. c #63DBD3",
"|. c #63DDDF",
" X c #62DBE6",
".X c #68E7E8",
"XX c #67E7F3",
"oX c #929AB2",
"OX c #A6AABD",
"+X c #89D9B1",
"@X c #8CD8B3",
"#X c #8BE5B6",
"$X c #88E6B7",
"%X c #97E3B9",
"&X c #95EEBE",
"*X c #9AECBD",
"=X c #8AF0BC",
"-X c #96F0BF",
";X c #9BF1BF",
":X c #A7F1BF",
">X c #C2FCBF",
",X c #D4FEBF",
"<X c #ABB7CA",
"1X c #9AECC1",
"2X c #9BF3C2",
"3X c #98F5C4",
"4X c #A0EDC5",
"5X c #A6F8C6",
"6X c #A5FBCA",
"7X c #B4FCC6",
"8X c #BCFCCB",
"9X c #A8FCD1",
"0X c #B5FDD5",
"qX c #C9FEC5",
"wX c #D6FEC5",
"eX c #C8FCD4",
/* pixels */
"- , v 1 v v 1 v v 1 1 v v v b v 2 b v v 1 1 2 N N b b v 1 1 1 2 2 v v 2 2 N v 1 , 1 v 1 1 v 2 v v 1 1 v b b b 2 2 b b 2 1 1 2 b b v b v v 1 v v 1 v v v v b < : ",
"< 1 v v M N v 1 v 2 v N b b v v 2 M v 2 2 2 2 b 2 2 2 2 2 M N N N M v 2 2 b @.N M v v v v v 2 2 2 2 v b M b v 2 2 b 2 2 2 2 b b v v v 1 1 v N N N M v 1 v N v 1 ",
"b b v b N N v v v v b N N N N v M N 2 2 2 N N N x 2 2 2 M #.$.$.$.N v 1 2 N $.$.$.#.M N N b v 2 2 v b @.@.N N M M M 2 2 2 M N M v 1 n v v #.#.$.$.N v 1 v N b b ",
"v b #.$.#.N v M v v b @.$.$.$.$.#.@.x x b #.#.#.@.@.#.@.@.@.#.#.$.$.@.b b @.@.@.N $.#.#.#.#.v v b v b @.#.#.$.$.$.@.M 2 N @.$.$.#.#.b #.#.N @.#.#.#.#.N b N b v ",
"v v N #.#.#.#.N #.b N @.$.$.$.#.#.$.@.@.$.$.$.$.$.#.$.$.#.#.N @.N N #.#.N N $.@.N @.#.N $.$.$.@.$.b M $.#.$.#.#.#.#.#.@.#.$.$.$.#.$.$.$.#.N N N N N #.#.N N b v ",
"v v v b #.$.$.$.#.#.#.$.$.#.N N @.#.$.$.$.$.$.#.$.$.$.#.#.N M N x M @.$.$.b #.$.$.N v M N $.#.$.@.$.@.$.$.#.@.M #.$.$.$.$.$.$.$.$.$.$.$.#.N N N v v #.$.#.N v b ",
"1 1 v b N N N N M M M M M N #.$.$.@.@.N N N #.#.#.$.$.$.$.b v M 1 v N $.$.N v M @.b v N N N @.N b M M N M @.$.$.#.#.@.M N N #.$.$.$.$.$.#.N N M 1 v N $.$.N v < ",
"1 v v b N v b v v 2 2 x 2 2 M #.$.@.N M N M M M @.$.$.#.$.N @.@.b M $.$.#.M 2 v N M v @.N v 2 2 2 2 2 2 2 2 M #.#.#.N N M M N 2 N #.$.$.#.#.N #.M N #.#.$.M < < ",
"1 2 b @.N 2 2 2 2 2 v 2 2 2 2 N N N $.$.$.b v 1 v $.$.$.$.$.$.$.#.#.#.$.@.x M @.N N M N N 2 2 2 2 2 2 2 x 2 x N #.N #.$.#.@.2 2 N #.$.$.$.$.$.$.@.$.$.$.$.2 1 1 ",
"1 2 b N N N 2 2 2 x 2 2 M M M @.$.@.$.$.$.$.N $.$.$.$.#.$.$.$.#.N M N @.#.#.#.#.N M b N N M 2 2 2 2 2 2 x x x @.#.#.$.$.$.$.@.#.$.$.$.$.#.@.#.#.M M M #.#.#.N v ",
"1 2 b @.#.@.x 2 M M N b N @.#.$.$.$.$.$.$.$.#.#.$.$.$.$.b N #.#.v < k #.$.#.#.$.#.N v #.$.@.M v 2 @.@.2 #.#.#.$.$.#.#.$.$.#.#.$.$.$.$.#.N N #.#.M 1 1 N $.@.N b ",
"b 2 M $.$.#.N M #.$.$.$.#.#.$.$.#.#.$.$.b @.$.N #.$.$.#.v #.$.$.M 1 2 #.$.M N #.$.N M #.$.$.N M #.$.$.$.#.#.$.$.$.@.$.$.N @.#.@.#.$.$.@.M #.$.$.M 1 2 $.#.v v v ",
"2 2 b @.$.$.$.@.2 N #.$.@.@.$.@.N #.$.#.#.$.$.N #.#.$.#.#.$.$.$.$.N #.$.$.N N #.@.M b #.$.$.$.@.2 N #.$.@.N $.@.@.#.$.#.#.$.$.#.@.$.$.$.#.$.$.$.#.@.#.$.$.b v 1 ",
"1 2 b b $.$.$.#.M x N $.@.N #.@.N #.#.N $.$.$.#.#.$.$.$.$.$.$.#.#.$.$.#.#.#.#.#.N N N N #.$.$.@.2 2 @.$.@.N $.N N #.#.N $.$.$.@.#.#.$.$.$.$.$.#.#.#.$.$.$.N M v ",
"2 b $.$.$.$.@.$.$.@.N #.#.#.#.#.$.#.v 1 N #.$.N v N #.#.#.$.$.#.N N N N N #.#.$.$.#.N #.$.#.$.#.$.@.@.#.@.@.#.$.$.#.2 2 N $.$.N M N @.#.#.$.$.#.N N @.N #.#.N M ",
"2 b $.@.#.$.#.#.$.$.#.@.#.#.#.$.$.M v M M N N v v N N N M N $.#.#.#.$.$.$.$.$.$.N $.#.#.$.$.#.#.$.#.#.#.#.#.#.$.$.b x 2 x N N 2 M N N N N #.#.#.#.@.@.$.$.#.#.b ",
"2 b $.v N $.$.#.$.$.#.N N #.#.$.$.N v v v v M M N N N N N M M @.@.x N N N $.$.#.#.#.$.N N $.#.#.#.#.#.N @.#.#.$.$.N b b 2 2 M N b @.@.b b N #.$.$.$.$.#.$.$.#.b ",
"b b N 1 v N N N @.M x 2 1 M #.$.$.#.#.N @.#.$.#.#.#.#.$.#.M h : > 0 0 ; > 2 $.$.$.N M x M N N N #.N 2 2 2 x $.#.#.$.@.b @.#.$.$.$.#.$.$.$.#.$.$.$.$.$.@.M @.N v ",
"v b #.v v v M N N M M N M 2 N $.$.#.#.#.N N $.$.$.$.$.#.M h 8 y u u a t 4 0 M $.#.#.@.M M N M N N M x @.x 2 N $.$.$.$.@.N @.$.$.$.$.$.#.@.#.#.#.@.b @.b v M b b ",
"2 b $.#.N N N N M M N #.M 2 #.#.$.$.$.#.N N N $.$.$.$.M h f H R U U I I H 5 j N M M M x 1 < 1 1 2 x N @.x x #.$.$.$.@.$.N M @.#.$.$.$.#.b @.@.#.b 2 @.@.N v v b ",
"N N #.#.$.$.#.#.#.M v 2 x M $.#.#.N #.$.$.$.$.#.#.#.v j d W  .<.&. .| ] / H 3 ; ; ; 3 ; = * 3 : 1 2 x x k b #.#.N #.$.$.$.#.$.$.@.#.#.$.$.$.$.$.$.$.$.$.$.N b b ",
"v N #.$.$.#.#.#.#.#.N N N @.$.$.#.N #.#.$.#.N #.#.b : 7 W *.s.V.f.r.3.3.-.W H u y y a u s y a u h x N M M N $.$.#.M N $.$.@.@.@.#.@.#.@.#.#.#.$.#.#.@.$.$.#.b b ",
"v b $.#.@.@.#.#.$.$.$.$.$.$.$.$.#.v N N N v v $.$.v = t ~ q.I.[.L.d.d.h.u.-._ Q R Q ~ / X.X.X.W d x M x M N #.$.$.v M @.M v v #.$.@.@.2 2 2 @.2 b b b $.$.#.b b ",
"b b N @.$.$.@.#.#.#.$.$.$.$.$.@.N N M v v v #.$.#.1 * t R 0.I.[.L.d.p.j.z.p.3.-.*.-.;.i.x.+Xv.8.E e * . = , N #.N b M v b M $.$.#.2 b b @.@.N 2 b v N @.#.N b v ",
"v b #.#.$.@.N N N @.N N @.$.#.N N #.N M N @.$.$.@., * a ~ 0.D.T.Z.d.p.z.K.J.J.z.z.J.K./.%X*X1XW.:.E G G a e k M N @.M b N @.#.$.#.2 2 2 @.2 2 2 2 2 #.@.@.@.@.2 ",
"1 N $.#.N 2 M @.#.N M x #.$.@.#.#.#.#.$.$.$.#.@.x 0 8 T *.q.V.S.l.g.j.J.R.!.~.^.^.).-X3X6X0X9X*XG.:.O.*.X.W e k M $.$.$.$.$.$.$.$.2 2 2 2 2 2 2 2 2 @.@.@.@.b 2 ",
"v N $.N b 1 1 b $.$.$.#.#.#.@.#.$.$.$.$.$.$.@.x 0 d Q <.a.k.k.j.l.z.J.K.R.R.Q.~.(.$X-X2X6X6X6X*X@XW.G.W.c.=.E 9 , $.#.$.$.#.#.#.$.#.2 2 2 2 2 @.@.@.@.@.#.#.@.2 ",
"v N #.#.@.b 2 b $.$.$.#.$.#.@.#.$.$.$.#.$.#.x > 5 G &.M.Y.C.f.u.j.J.R.R.K.H.K.!.$X-X2X3X2X3X3X&X*X*X1X5X@Xv.o.J 7 k @.#.$.#.N #.$.$.#.2 b @.#.#.#.@.#.@.#.#.#.2 ",
"v b $.$.#.$.$.$.$.#.N M $.$.$.$.$.@.#.#.@.M 2 - 4 I 4.I.'.P.u.y.j.K.Q.R.K.H.H.~.#X2X5X5X-X-X-X2X7X7XeXeX8X%XG.O.J 8 < b #.N M N #.$.$.$.$.$.$.$.$.$.$.#.N @.2 2 ",
"1 v #.$.$.b @.$.#.#.N v @.$.$.$.N #.N M $.$.@.- 4 L >.A.'.S.d.u.h.K.Q.R.H.H.K.~.#X;X5X2X-X-X-X:X7XqXwXwXqX7X4Xv.*.H 5 : N $.$.N @.$.$.$.$.$.$.$.$.#.@.@.#.N 2 1 ",
"1 v #.$.@.v @.$.#.#.M M N $.@.@.N N N N $.@.M 0 u Q <.B.I.B.d.u.j.K.R.R.K.H.K.E./.#X;X;X-X-X;X;X:X,XqXwXwXqXqX%Xc.*.J 8 k N N N @.#.$.$.$.@.@.$.$.@.@.@.$.b 2 1 ",
"v #.$.$.$.b b #.$.N x M b b M b N $.$.$.2 > 3 J ^ <.a.B.k.f.y.d.c.K.Q.R.K.J.K.R.!./.$X-X3X3X2X;X:X:X>X,XwXwXwX>X@X+X=.E e ; , #.$.@.$.$.$.b b #.#.$.$.$.$.#.@.b ",
"v b #.$.@.N b @.#.N N M N #.N N @.@.@.v , = a _ 5.A.S.k.y.7.y.u.H.H.R.R.K.K.K.K.H.!./.#X-X;X;X-X-X;X:X>XwXwXwXqX7X1Xv.=.H 3 > M #.@.#.$.$.@.@.#.$.$.#.@.N $.#.b ",
"2 v b @.@.#.$.$.N #.#.N #.$.$.#.$.$.@.2 , 4 i &.V.T.I.l.7.3.y.d.p.H.J.J.K.K.K.K.H.H.Q./.#X;X;X-X3X3X5X8XqXqX,XqX8X0X%X8.I 4 > x 2 @.@.#.$.#.@.#.$.#.@.2 2 $.@.2 ",
"2 v N N #.$.#.$.$.$.$.$.N N $.#.N #.$.b < 3 & } M.T.U.l.7.3.3.y.u.h.z.J.K.R.K.K.H.H.K.Q./.#X*X5X6X6X9X0X8X8X7X7X7X9X@X8.G 4 : 1 2 #.@.@.$.$.#.$.@.@.@.@.#.$.N 1 ",
"1 v v 2 N $.@.$.$.$.$.N N N $.$.#.$.$.b j 3 G &.N.T.P.l.t.7.y.y.t.y.h.H.K.R.K.K.K.K.H.H.Q./.=X*X*X%X@X@X%X%X;X5X6X6X+Xx.Q t ; < @.#.2 @.@.2 @.$.$.#.@.@.$.$.2 < ",
"v 2 2 2 M N N @.$.$.@.b N @.$.$.#.N v k e E ^ q.A.Y.P.k.t.t.y.6.3.r.u.z.R.R.R.K.K.K.H.H.R.^.$X$XW.x.=.=.w.+X@X5X9X6X#Xc.*.E 8 h 1 @.@.x N x @.#.$.$.@.#.$.$.2 1 ",
"v v 2 v M v N $.$.$.$.N N @.#.N b 2 : 3 K ] 5.F.T.Y.S.d.y.t.7.r.3.t.h.z.K.R.R.K.K.K.K.H.Q.).).E.;.L % # P =.@X0X0X9X;X/.j.-.W 8 0 x @.$.#.#.#.N 2 2 $.$.$.@.@.2 ",
"b v b b @.@.N @.@.N N #.@.@.@.@.b 1 ; t ^ q.F.[.[.F.B.d.t.3.6.y.r.y.g.H.K.R.R.K.K.K.R.K.R.R.H.i.X.P @ o @ Y w.@X4X2X#X/.H.2._ a 5 < @.#.#.#.$.#.b 2 $.@.N @.2 @.",
"2 b N $.#.#.#.N N b N #.#.#.N #.#.2 3 i } M.T.[.U.B.f.y.t.t.y.6.r.y.h.J.R.E.R.K.K.K.Q.Q.H.e.%.' o.+...@ + # Y w.W.+X~.c.-.` Q G 5 k x #.#.@.#.$.@.2 $.@.2 2 2 2 ",
", v #.#.N #.#.#.$.N N #.#.#.$.#.@.2 ; t ` q.Y.T.S.d.y.y.y.t.y.y.6.y.h.H.R.R.R.K.K.R.Q.^.j.%.G Y ,.OXoX,.C o # Y ;.J.c.*.L Z Z a 8 k #.$.@.@.N @.#.#.$.N N $.b v ",
"1 v N N N #.N b N N N #.@.@.@.N v 1 = t _ 0.A.P.l.7.7.7.y.y.y.y.r.y.d.j.J.R.R.R.K.R.!.^.h.W # C ,.OX<Xn.D o   # W p.i./ + O # i 8 j x N x @.#.#.#.#.N v N $.b v ",
"b b v N #.N v v v v N #.N N N M 2 < = & _ 0.A.P.k.3.;.3.y.y.y.y.y.y.u.d.h.J.K.R.R.Q.!.).h.W O O F ,.oX,...+   O U y.e.Q O X + t 8 0 < 1 x @.$.$.$.N b v v N b b ",
"v b #.#.$.N v v M v v N #.$.$.$.@.1 = t ) q.S.I.z.y.y.t.y.y.y.y.y.y.t.y.u.h.J.R.R.R.Q.^.j.X.Z + + S ! ..D C + % / h.u._ % + # i 8 < N $.$.@.#.#.#.$.N b b #.v v ",
"1 M #.N #.#.$.N #.N N #.$.$.$.#.b n = t  .N.`.}.Y.f.y.r.t.t.y.y.y.y.r.6.y.u.j.J.R.R.!.^.J.3./ Z + + + @ A A C Q -.j.j.-.T L G G w < $.$.$.N N b N b $.#.b #.b v ",
"v v v M N $.$.$.#.#.#.N $.$.N N b v = t  ._. X.X{.B.f.r.3.3.t.y.y.y.r.r.y.y.d.h.H.R.Q.!.Q.z.y.] Z o X X @ A ( ;.j.K.J.h.;.%.Q i 5 k @.$.#.N N b v n #.$.$.b b b ",
"1 v v N N N N N M M M M b N #.#.#.v ; t [ b.].XX}.I.Z.d.y.t.y.y.y.y.y.y.y.6.y.d.h.J.R.R.K.!.!.p.` Z o o % Q e.K.^.Q.Q.!.J.y.] G 3 < N $.#.b b b n v N $.$.b v < ",
"1 1 v #.N v M v M 1 v v v v N #.#.b < 9 E >.b._.`.Y.P.Z.f.y.t.t.t.y.y.y.y.6.3.y.d.h.j.h.J.!.).K.e.) L L W -.H.^.).!.!.~.K.u.] i 3 n N $.$.#.#.b b b #.$.#.v < > ",
"1 v v b N v v 1 v 1 1 M 2 2 2 M N N #.N q J ) 0.N.Y.T.I.B.f.e.r.t.y.y.y.y.3.6.y.y.u.d.y.p.J.Q.R.z.u.;.t.u.j.K.~.~.Q.R.R.d.2._ G 3 j #.$.$.$.$.$.$.#.#.$.#.v n v ",
"1 v b b N M v 1 1 M M 1 M M M @.$.#.$.#.< 3 & } N.{.}.[.P.B.f.r.y.t.t.t.y.y.t.y.y.y.6.6.y.h.z.K.R.K.J.j.h.h.K.K.K.H.R.z.f.2._ i 3 < #.#.#.#.#.#.N b M #.#.#.b v ",
"v v v b #.#.v v M N N N N @.$.$.$.#.#.N j * & { D..X.X{.I.S.C.f.y.y.7.7.t.t.6.t.y.6.6.3.6.y.u.z.R.K.z.t.;.3.p.j.H.h.H.R.Z.a.} G 4 < N $.b b #.#.M 1 v N $.N N b ",
"v b b $.$.#.N N #.#.$.$.$.@.$.$.$.N N M w $ p >._.XX.X{.I.I.I.B.f.y.7.7.t.t.7.7.y.y.y.y.y.y.u.d.h.p.-./ W ^ -.u.p.y.h.P.I.s. .G 3 n $.#.b #.$.$.M < v #.$.b v v ",
"v 1 b #.#.$.$.#.M M #.$.@.@.$.@.N #.N m g s a ' b.]. X X}.}.'.T.P.l.f.d.d.d.d.d.y.7.7.7.7.t.3.y.y.y.*.^ U U ^ *.r.f.Z.S.M.4.) a w v N $.#.$.$.$.#.N $.$.$.N M v ",
"< v b b #.$.$.#.v M N $.N N #.@.b #.B m c g g K ) 9._. X.X.X}.T.U.I.Z.Z.B.C.B.B.f.y.7.7.7.e.3.7.y.r.2.*._ T I ^ <.B.S.s.&.^ Y g j M #.$.$.$.$.#.#.#.$.$.$.N M v ",
"v b b $.$.$.#.#.$.N N #.@.#.#.$.#.b n q c V V 6 p U 9._.XX X'.I.S.I.Y.Y.U.T.Y.S.B.u.y.y.y.y.y.e.y.y.u.u.2.] I Q &.V.B.<.Y G f r > M #.#.$.$.#.#.N N N N N #.N M ",
"v b $.#.$.$.#.#.$.$.#.@.#.#.#.$.#.v > w r c q 9 4 a [ b._.N.s.5.4.s.D.`.|..X{.T.I.S.l.Z.Z.S.S.Z.k.d.g.l.d.;._ _ &.0.<.^ a s w q n v N #.b b #.#.#.#.#.#.$.$.N N ",
"2 N #.M N $.@.$.$.$.$.M N $.$.$.#.M j q r r q q 9 s K ) >.} ' Q Q ` b.].XX.X}.'.T.I.I.I.U.U.Y.P.Z.f.p.h.g.u.2.*.| } Q H s w r r B v b b N N #.$.$.$.$.#.$.#.@.v ",
"v N N 2 M N N #.$.M 2 2 2 M @.$.$.#.M m r V V m m V f a G G Z & & G >.D. X|.Y.V.V.V.A.A.A.F.A.V.a.6.;.;.3.e.y.-.` H a s r m m n B N #.$.$.$.$.$.$.$.$.@.b #.@.b ",
"v b N M M M M N M M M M 2 2 N $.$.#.N M j r V V m m r 6 $ $ y 6 $ y Q 9.m.m.0.1.<.4.4.4.4.4.4.4.&.%.] ] ] *.*.] W a s w q m n B N #.$.#.N #.$.#.@.b #.b v b b b ",
"2 N $.@.N N N N M M N $.M 2 @.$.$.#.$.N n j l V V m l r w w w r 9 w J R [ ) ~ Q Q Q ~ ~ ~ ~ ~ ~ Q T U U T T W Y J f r z r m B #.#.$.$.#.b b #.$.b v b @.b 2 v b ",
"b N #.$.$.#.#.@.@.M v 2 1 M $.$.N N $.$.#.M B l V V V m m m m n B m r u i & p p & p p p p p p p a p p i Z p G G f r m n B B #.N @.#.#.$.$.$.$.$.$.$.$.$.$.b b b ",
"v N #.$.$.#.#.$.#.#.N N N @.$.$.#.N N $.#.b v n l c c r m m m n m m r w 5 4 6 s 6 s s 6 6 6 6 s u 6 s s s s s f f r m n M M N #.#.#.@.@.#.#.#.@.#.$.#.$.$.@.@.b ",
"v #.$.#.@.#.$.$.$.$.$.$.$.$.#.$.#.b M N M M v B m l r r r r r l l r r r r r r c w r r r g r r r r c c c V c r r c g l n M v b #.#.N N M M M N N N b b #.$.#.b b ",
"v b b N #.$.@.N #.#.$.$.$.$.$.@.N N M M M N N #.M q q m j r r r w r r c z z z z m m V V V m l l z z V m V m n n m m j < v N #.$.@.M M N N N b M v b b b #.#.b 2 ",
"v v #.$.#.#.N N N #.N N @.$.#.N N #.N N N #.#.$.N j < k k q r r w r V l l m m l m m l m l m l l l l c c m B M M x M M M N @.$.$.@.M v M M M M 2 2 2 #.@.@.@.b 2 ",
"2 b #.$.b v M N @.@.M M @.#.#.@.#.$.#.@.#.#.#.$.#.v v 1 1 h q w w r l l l r l V r m V l l r r l l j q r l M N N $.$.@.@.#.$.#.$.#.M M M 2 2 x 2 2 b @.#.@.@.b 2 ",
"v b $.N b 2 1 M $.$.#.$.$.#.@.#.$.$.$.$.$.$.$.$.$.#.M 2 1 < j j j n j n n B M B n n n j h 0 0 j n B B m B N N @.$.$.$.$.$.$.#.$.#.#.N k 2 2 M N b b @.@.#.#.@.b ",
"v b $.#.N M v @.$.$.$.#.#.#.@.$.$.$.$.$.$.@.N #.$.$.@.M M M N N M N N N v b N N N N N b M x 1 1 N N N N N N N $.$.$.$.#.$.@.N #.$.$.N N M b @.$.#.#.@.@.@.#.@.b ",
"2 N #.$.$.$.#.#.#.@.N M $.$.$.$.$.#.@.#.@.N M @.#.$.$.#.$.$.$.$.$.$.$.N N N #.#.N #.$.$.$.$.#.$.$.@.N M @.$.$.$.$.@.#.$.#.N v #.#.$.$.#.#.$.$.$.$.$.$.#.b @.b 2 ",
"2 b #.$.$.M #.$.$.@.N M @.$.$.#.@.@.N N #.$.#.M @.$.$.$.$.$.$.$.$.#.N #.#.N b N N @.@.$.#.N $.$.@.@.N M @.$.$.$.#.@.b M #.$.#.b #.$.$.$.$.$.$.$.$.#.@.#.#.b 2 1 ",
"2 2 $.#.#.b @.#.$.@.M M N $.$.N N N N @.$.$.#.N @.$.$.$.$.#.@.$.$.#.N #.$.N N N @.@.@.$.@.N N #.#.@.N M N @.#.N N N N N $.$.#.b @.$.$.$.$.@.#.#.#.#.@.$.$.b 2 1 ",
"b @.#.#.$.b b $.$.N b v b v b b N #.$.$.@.M 2 #.#.@.$.$.$.N M #.#.$.$.$.#.$.$.$.$.$.$.$.#.N N #.$.@.M M N N M N b $.$.$.N v b #.#.@.$.$.$.@.b #.#.#.$.$.$.#.@.b ",
"2 b #.#.@.N @.@.@.@.b v @.$.b b #.#.#.N b @.@.$.#.M #.$.$.N N $.$.$.#.b b $.$.$.#.#.#.#.N N N #.@.@.N M N $.b N #.#.N b #.#.#.#.@.N $.#.$.@.N #.$.$.$.@.@.#.#.b ",
"2 v @.@.@.@.#.$.b $.$.N #.$.#.$.#.#.N b #.$.$.N M N @.$.$.#.N $.$.#.@.v v $.$.#.N #.N N #.#.$.#.@.#.@.N $.#.#.$.#.$.N b N #.#.N M N #.#.#.$.#.#.#.#.@.2 2 $.#.2 ",
"2 b b b $.#.$.$.#.$.#.#.N M #.#.#.#.#.N #.N N v M @.N $.$.#.$.$.#.#.b b $.$.b N #.N N N #.$.$.$.$.$.$.$.M N #.#.N $.$.#.#.#.N v b @.@.$.$.#.$.$.#.@.@.@.#.$.b 1 ",
"2 2 b b M $.$.#.$.#.$.$.b @.#.$.$.$.#.#.$.$.N v N $.N b @.M N $.$.#.#.#.$.$.N b N N v b N #.#.#.$.$.$.@.N N $.$.$.$.$.#.#.#.N v N $.M b N N N #.$.#.@.@.$.$.2 , ",
"2 2 2 2 b b @.@.$.$.#.b b $.$.$.#.#.N #.$.$.$.N N $.@.M b v N $.$.#.$.#.$.$.N M #.N v v M N N N $.$.@.b N #.$.$.$.@.N #.$.$.N N @.$.#.M N b @.$.#.$.#.#.$.#.2 1 ",
"b 2 2 b b v b @.#.$.@.@.@.b $.N N M b N $.$.$.N $.$.$.$.#.$.$.N v v $.$.$.#.#.$.$.N v v v M N #.#.#.#.@.N @.$.N M M M N $.$.$.#.@.$.$.#.N $.#.N b b #.$.$.#.@.2 ",
"1 1 2 2 2 2 b b b 2 b b b b b b M v b M N N N N N N @.@.N N N b 1 1 N b v v M N N v v v v v v v b v v b b b v v v v b N N N N N M N @.@.N N @.N 2 1 b b b 2 2 1 ",
", < 2 2 b b 2 1 2 1 1 2 2 2 1 v M b b b < 1 v N v 2 2 2 x 2 2 b 1 1 v 1 , < 1 v v v < v v v v v 2 1 1 2 v 2 1 v N v b b 1 1 v M b 2 2 2 2 2 v M 1 1 2 1 , < < , "
};
