/* XPM */
static char *Group_9_24__resized[] = {
/* columns rows colors chars-per-pixel */
"80 80 219 2 ",
"   c #18162F",
".  c #1B1C34",
"X  c #1E3A29",
"o  c #1C2B38",
"O  c #1E333D",
"+  c #253B28",
"@  c #263C34",
"#  c #273F36",
"$  c #27441B",
"%  c #2B4D1E",
"&  c #2F5216",
"*  c #2E521F",
"=  c #31571D",
"-  c #335C1D",
";  c #37631C",
":  c #39661C",
">  c #3C6D1D",
",  c #3F711F",
"<  c #254323",
"1  c #294624",
"2  c #2A4D24",
"3  c #26442C",
"4  c #2C462D",
"5  c #2B4B2D",
"6  c #30472E",
"7  c #324D2B",
"8  c #2D5328",
"9  c #335B23",
"0  c #335825",
"q  c #36552B",
"w  c #355B2B",
"e  c #395D2C",
"r  c #294636",
"t  c #28433A",
"y  c #2A4C3B",
"u  c #314D32",
"i  c #304B38",
"p  c #2D5333",
"a  c #2E533D",
"s  c #355432",
"d  c #395B35",
"f  c #33563C",
"g  c #366225",
"h  c #3A6424",
"j  c #3D6B23",
"k  c #3D642C",
"l  c #3F692A",
"z  c #3F7120",
"x  c #346032",
"c  c #3E6331",
"v  c #41751F",
"b  c #43781F",
"n  c #406E25",
"m  c #40672F",
"M  c #416B2C",
"N  c #417620",
"B  c #457C21",
"V  c #43702B",
"C  c #406631",
"Z  c #416931",
"A  c #283C47",
"S  c #254546",
"D  c #2C4C42",
"F  c #2A4D4B",
"G  c #2D5345",
"H  c #2D544C",
"J  c #2E594A",
"K  c #325843",
"L  c #325B4D",
"P  c #2B4F52",
"I  c #3B4E55",
"U  c #2D5352",
"Y  c #2F5955",
"T  c #2F5C5B",
"R  c #325C54",
"E  c #355859",
"W  c #356046",
"Q  c #326254",
"!  c #34645C",
"~  c #386D5C",
"^  c #365F60",
"/  c #346463",
"(  c #3A6D62",
")  c #376A69",
"_  c #376C6A",
"`  c #3A7367",
"'  c #3B756C",
"]  c #3D796C",
"[  c #386E71",
"{  c #3C7876",
"}  c #43664D",
"|  c #436E65",
" . c #457564",
".. c #457A6A",
"X. c #427C72",
"o. c #478022",
"O. c #498423",
"+. c #4C8A24",
"@. c #3C846F",
"#. c #3F847A",
"$. c #41806F",
"%. c #438374",
"&. c #458977",
"*. c #468B7A",
"=. c #488878",
"-. c #578977",
";. c #4A937D",
":. c #4C997E",
">. c #678363",
",. c #3C7E83",
"<. c #3E858A",
"1. c #408982",
"2. c #4A9582",
"3. c #4E9D84",
"4. c #46958A",
"5. c #4E9E89",
"6. c #509F85",
"7. c #599884",
"8. c #509F89",
"9. c #428B95",
"0. c #489994",
"q. c #4A9B94",
"w. c #689C87",
"e. c #4CA387",
"r. c #4FA189",
"t. c #50A086",
"y. c #51A38A",
"u. c #5AA68A",
"i. c #54AA8E",
"p. c #58B28F",
"a. c #4FA799",
"s. c #53A990",
"d. c #55AD92",
"f. c #53AD9B",
"g. c #5AB694",
"h. c #59B796",
"j. c #5BB996",
"k. c #56B29A",
"l. c #59B69C",
"z. c #67A78E",
"x. c #75A38B",
"c. c #6BAB92",
"v. c #73AF97",
"b. c #6BB697",
"n. c #4799A5",
"m. c #4EA7A8",
"M. c #55B4A2",
"N. c #57B9A6",
"B. c #59BAA3",
"V. c #54B5A9",
"C. c #56B9AB",
"Z. c #59BDAB",
"A. c #50AEBB",
"S. c #56BBB5",
"D. c #5EC49B",
"F. c #5FC99E",
"G. c #61C59D",
"H. c #6EC39F",
"J. c #63C99F",
"K. c #5BC1AC",
"L. c #5CC5B3",
"P. c #5EC9B5",
"I. c #5CC7BB",
"U. c #5DCBBA",
"Y. c #64CCA1",
"T. c #6ACEA3",
"R. c #7AC8A3",
"E. c #66D2A5",
"W. c #6AD2A6",
"Q. c #6BD9AA",
"!. c #74D3A7",
"~. c #73D6A9",
"^. c #76DAAC",
"/. c #7CDCAE",
"(. c #61D0BE",
"). c #7CDEB0",
"_. c #6FE4B1",
"`. c #75E9B4",
"'. c #54BAC8",
"]. c #5CCAC4",
"[. c #5FD0C8",
"{. c #5CCEDA",
"}. c #61D4C8",
"|. c #62DADB",
" X c #67E3DD",
".X c #62DCE8",
"XX c #67E6E7",
"oX c #69EAF1",
"OX c #8BBD95",
"+X c #88D6AD",
"@X c #86D9B2",
"#X c #ABDEAD",
"$X c #8AE4B6",
"%X c #88E7B7",
"&X c #94E9BA",
"*X c #94EDBD",
"=X c #94F1BE",
"-X c #9BF2BF",
";X c #A6F4BF",
":X c #B4F2BB",
">X c #C2FABE",
",X c #D3FEBF",
"<X c #9AEDC2",
"1X c #8EF3C0",
"2X c #95F3C3",
"3X c #9BF3C2",
"4X c #9CF8C8",
"5X c #A3F6C4",
"6X c #A8F8C7",
"7X c #A3FCCB",
"8X c #B3FAC2",
"9X c #B7FAC5",
"0X c #AAFBD3",
"qX c #B5FDD1",
"wX c #C4FCC1",
"eX c #C8FFC9",
"rX c #D3FEC1",
"tX c #D8FFC0",
"yX c #C6FFD3",
/* pixels */
"& ; v > v v > v v > > v v v b v , b b b > > , o.b b b b , > > , , , b , , B v > ; > , > > , , , v > > v b , b , , b v , , > , b b v b v v : v v > v N v v b : & ",
": > v v N B v > v > v B N b v v , N , , , , , B , , , , , N B B o.N v > , b o.B N v v v v b , , , , v b B N b , , b b , , , v b v v v n v b B b b b v v v B v v ",
"b b v b B B v v v v b o.B B B v , N z , , b N N , z > , N o.+.+.O.+., , , B +.+.+.o.N B o.o., , , v b o.o.B B N z B , , , N B N b v n v v o.+.+.O.o.v > v B b b ",
"v b O.+.O.B v b b v v o.o.+.+.+.+.O., z B +.O.O.o.o.o.O.o.o.o.+.O.O.o.b b o.o.o.o.o.+.+.+.b b v b v b o.O.O.+.+.O.O., , o.O.O.+.b O.b O.B B O.O.O.O.B b b B b v ",
"v v B O.O.+.O.B o.B B +.+.+.+.+.+.O.o.o.+.+.+.+.+.O.+.+.+.B B o.B B O.o.B B o.+.B o.o.o.O.O.O.O.+.b B o.+.+.O.O.O.O.O.O.O.+.+.+.+.O.+.+.O.B B B B B +.O.B B N v ",
"v v v v O.+.+.+.+.o.o.o.+.O.B B B +.+.+.+.+.+.+.+.+.+.+.o.B N B z N O.+.+.b o.+.+.B , N O.+.+.O.O.+.O.O.+.O.B B O.O.+.+.+.+.+.+.+.+.+.+.B B B B v N O.+.+.B b v ",
"> > v b B B B B B v N N N B +.o.+.O.o.B B B o.o.O.+.+.O.+.b N N > v o.+.+.B v N o.b , B o.B o.o.b b N N N B +.O.O.O.o.z N B O.O.O.+.+.+.+.B b B v v B +.+.B v : ",
"> v v b b b v N , , , z , v N +.O.o.B N B N N b o.+.+.+.+.B o.o.B N O.+.O.N v v B N b o.B , z , , , , , , z B O.O.O.o.N B B N b B +.+.+.+.B B O.N b B +.O.N : : ",
", , b o.B , , , , , , , z , > N o.b O.+.+.o.v > v +.+.+.+.+.+.O.o.o.+.+.O., z o.o.b , O.B , , , , , , , , , , z O.o.O.+.O.o., , B O.+.+.+.+.+.+.O.O.+.+.o.v > > ",
"> , , B B B , , > N , , b B N O.+.o.O.+.+.O.B +.+.+.+.+.+.o.+.+.B N B o.O.O.O.+.z B b b N b , , , , , , , o.z O.O.O.+.+.+.+.o.O.+.+.+.+.O.O.O.O.B N B B O.o.N b ",
", , b o.O.o.z , N B B N B o.O.+.+.+.+.+.+.+.+.+.+.+.+.+.b B O.O.N : > B +.O.+.+.O.z , O.+.o.b , z o., o.o.O.O.O.O.O.O.+.O.O.O.+.+.+.+.O.B B O.O.N : > B +.+.b b ",
"b , N +.+.O.B N o.+.+.+.O.O.+.+.O.B +.+.B o.o.B o.+.+.o.v o.+.+.N > N O.+., B O.+.o.B O.+.+.B b O.O.+.+.O.O.+.+.+.O.+.+.o.o.O.o.O.+.+.O.v O.+.+.N j v +.O.v v v ",
", , v o.+.+.+.o., B O.+.o.o.+.o.B +.+.+.O.+.+.B B +.o.o.o.+.O.+.O.B O.O.o.N b B o., , N O.O.O.o., b O.+.o.B O.O.o.O.+.O.O.+.O.O.O.+.+.+.O.O.+.+.o.o.+.O.+.B b v ",
"> , b b +.+.+.O.N z B +.o.B O.o.b +.o.b +.+.O.N > h h , o.O.+.O.O.O.N z h h h j ; ; - ; ; j z b , , o.+.o.B O.O.o.O.O.o.+.+.+.O.o.O.+.+.+.+.+.+.O.+.+.+.O.o.N v ",
"v b +.O.+.+.o.O.+.o.B O.O.B O.+.+.o.v , B O.B = < + X % : o.O.o.B j 9 1 < 1 1 1 1 < < < < + % : O.o.o.O.O.o.O.+.O.O., , B +.+.z N B O.O.+.+.+.o.B B B o.B O.B B ",
"v b O.O.O.+.O.+.+.+.O.O.O.O.O.+.+.b , , v j g p G R Q f w z o.O.z 9 p D H H G G G J G J R L a x z O.O.O.O.O.O.+.+., , , , B O.z N B B B B B O.O.O.o.O.O.+.+.B b ",
", b +.v B +.+.o.O.+.O.N B +.+.+.+.B b v : 9 p Q $.x.-.>.} n ; z h p J _ %.] ] ] ..X.X.=.7.7. .W w z o., B +.+.+.+.B B N v v N N B B B B B B o.+.+.+.+.O.+.+.B b ",
"b b B > v B B B O.N z N , v o.+.+.O.B > = p Q @.p.+X#XOX .s X X 3 G ~ *.y.u.e.e.r.d.b.R.+X+Xc. .y 2 ; , , N B O.+.O.o.B B +.+.+.O.O.O.+.+.+.+.+.+.+.+.B N O.o.b ",
"v b o.v v b B B B N N B , , o.+.+.O.o.j < G ` e.W.-X9X#XOX} t # J ( &.s.D.D.G.J.T.^.%X<X<X5X+Xz. .a 2 ; > , B o.+.O.O.o.B o.+.O.O.+.+.+.B o.+.+.o.b +.b v N b b ",
", b +.+.B B B N N N B O.N , o.O.+.+.B j 3 F #.e.W.=X8X#XOX-./ / ' *.i.D.Y.E.Q._.%X1X4X0X0X0X4X@Xb...a 9 - > o.+.+.O.O.+.B B o.O.+.+.+.+.B B o.O.b v B B N v v b ",
"N B o.o.+.+.o.O.o.B v > > N +.O.o.o.o.z 1 G [ 2.j.Q.^.!.b.8.*.=.;.y.j.D.J.J.W.).%X2X3X4X3X4X3X3X$Xc. .r < ; +.+.o.B +.O.+.+.+.o.B +.o.+.+.+.+.+.+.+.+.+.+.B b b ",
"v B +.+.+.O.+.O.+.o.B B B o.+.+.O.B B z 0 p J ~ *.p.j.D.h.s.r.y.d.j.G.J.J.E.^.$X2X5X5X;X;X;X6X7X4X@Xz.| a 8 v o.O.N B +.+.B B +.+.o.o.o.+.O.O.+.+.O.o.O.+.O.b b ",
"v b +.+.O.O.O.O.+.+.+.+.+.+.+.+.O.N b B > = 8 y ! #.e.d.k.d.p.g.D.J.J.E.W./.%X=X-X6X:X9X:X9X9X6X7X3X@Xc. .f 9 v o.N B B B v v +.+.B B N z N B B b v N +.+.o.b b ",
"v b B O.O.+.O.B o.+.+.+.+.+.+.o.B B z z , j 9 5 J ] 2.e.i.i.d.j.D.J.F.T.^.%X*X3X-X6X:X,X,XrXwX8X5X4X2X$Xb. .y 2 : B N N v B o.+.+.v N B B N N N v v B o.O.O.B v ",
"v b o.O.+.o.B B B o.B B O.+.O.B B o.B , , j x G ~ #.2.r.i.p.g.D.Y.Y.F.E./.*X-X3X-X;X:XwXrXtXrX>X:X7X7X4X@Xz.| f w j , , o.o.+.+.o.z v N N N , , > , o.o.o.o.b , ",
", b +.+.B , N o.O.B N z B O.O.O.+.O.O.N h w W ] 4.a.r.y.i.j.G.J.Y.F.D.T.@X*X3X3X3X-X5X:XwXrX,X,X:X8X6X4X2X@Xz...K 0 > z +.+.+.+.o.v v , z , , , , v +.o.o.o.b v ",
"v B +.B b > > b +.+.+.O.+.o.o.O.+.+.O.z 2 a ' q.C.K.f.i.p.G.J.J.J.F.D.T./.*X3X3X<X*X*X-X;X:XtX,XtXwX8X5X7X4X@Xc. .3 2 B +.O.O.O.+.+.N > , v N b b B b +.O.O.o.b ",
"v B +.o.o.b v o.+.+.+.O.+.+.O.O.+.+.O.z $ S { a.Z.K.d.i.g.J.E.E.F.D.D.E./.=X3X5X3X*X1X*X-X8XwXrX,X,XwX:XqX0X<Xb. .X * z O.o.o.O.+.+.o.b N B o.+.+.+.O.o.O.O.b v ",
"v b +.+.+.+.O.+.+.O.B N o.O.+.+.+.O.O.z < y ) 2.f.l.i.i.g.G.E.J.G.D.G.W./.*X3X5X-X*X*X2X-X3X8XwXrXtXtXwXyXqX$Xc.` X = z O.z z O.+.O.+.+.+.+.+.+.+.+.+.o.B B b v ",
"> v o.+.+.b O.O.O.O.B b +.+.+.O.o.B j 9 p Y ' 2.y.i.y.i.g.G.J.T.J.G.G.J.^.$X=X3X3X-X-X=X=X2X5X9XeXrXtXeXyXqX&Xb.%.y 2 ; B O.O.b o.+.+.+.+.O.+.+.+.o.B o.+.B , > ",
"> b o.+.o.v o.+.O.O.N N B O.O.o.b > 9 p Q #.5.3.t.t.t.i.g.G.T.Y.J.G.G.J.W.^.$X*X-X3X3X-X2X2X4X6XqXyXyXeXyXqX2X^.u.~ a 8 j , O.B o.O.+.+.+.o.B +.+.+.B O.O.b , > ",
"v o.+.+.+.b b o.+.B z N b N b N , * p Y #.f.C.k.y.6.6.i.g.G.T.J.J.J.J.J.J.J.!.$X-X3X3X2X3X3X5X6X6X6X6X6X6X6X3X%XT.:.` J 2 = , O.O.+.+.+.+.b b +.o.+.+.+.O.+.o.b ",
", b O.O.o.o.o.O.o.o.o., o.O.o.o.v % y ) q.L.(.B.y.:.3.i.j.G.Y.Y.J.J.J.J.G.D.Y.^.%X-X-X-X&X+XR.v.v.c.c.v.v.v.v.R.W.l.*.! 3 = B O.o.B O.+.+.o.B O.+.+.O.B B +.+.b ",
", , o.O.o.O.O.O.o.O.O.b O.+.O.O.n 2 D [ m.U.(.B.i.:.t.i.g.G.Y.J.Y.J.J.J.G.D.G.T.^.%X-X-X+Xb.2.| ^ I E I I I | z.J.J.6.! 3 9 o.B b B o.O.+.O.O.O.+.O.o.b N O.B v ",
", , o.b o.+.+.+.+.+.+.+.b b +.O.v % y ) q.Z.U.l.i.3.5.u.g.G.J.T.J.J.J.J.J.J.G.G.Y./.=X$XR.:.~ A A . . .     S $.g.G.;.Q 4 = N N B B B O.+.O.O.+.O.o.B o.+.O.B > ",
", , , , o.O.O.O.+.+.O.O.b B +.+.b * y ) q.Z.P.M.r.3.3.i.j.J.E.Y.Y.J.J.J.J.Y.D.D.F.W.%X@XH.t...E I I I I A A U #.g.j.;.Q 5 = v v B O.B B O.B B +.+.O.o.o.+.O.v ; ",
", , , , z o.o.o.+.+.O.B B o.O.O.b % y / 0.Z.P.M.y.3.3.i.g.G.T.T.J.J.J.J.J.J.J.D.D.Y.~.W.G.p.:.:.w.x.x.w.7.=.#.d.G.g.*.Q 5 - N B o.O.o.B N B B O.+.+.o.O.+.+.v : ",
"b , , b , , o.o.O.O.O.o.B o.+.B : % y / 0.S.P.l.y.5.t.y.g.G.Y.Y.Y.Y.J.J.J.J.J.J.J.J.J.J.G.J.~.@X%X<X<X2X@X~.E.Q.E.g.=.R 5 - B o.O.+.+.+.B +.O.B b b +.+.+.o.B v ",
"b b b o.o.o., o.o.o.o.o.o.o.o.o.v % y / 4.Z.K.h.t.3.t.y.s.g.G.J.Y.Y.J.J.J.J.J.J.J.J.D.D.D.Y.~.`.1X2X2X1X1X`.`.`._.g.&.Q 4 9 o.O.O.O.O.O.O.O.+.O.b v O.O.b b B b ",
", , o.O.O.+.O.o.o.b b O.O.O.B O.N 0 y / 0.Z.P.k.y.3.t.y.y.i.g.j.J.E.Y.J.J.J.J.J.J.J.F.F.F.Y.E.Q.Q.^.).^.Q.Q._._.Q.g.&.R 3 = B +.+.o.O.O.O.O.O.+.b b O.b v b v v ",
"; , +.o.o.+.+.o.O.B B O.+.+.+.O.N % y _ m.].}.Z.d.r.r.y.r.r.i.g.G.J.J.J.Y.J.J.J.J.J.J.J.J.J.J.J.J.J.J.F.D.j.p.j.g.:.' Y 3 = B +.+.+.+.O.O.B B O.O.+.+.B B +.b v ",
"> v o.b b o.b b o.o.B O.o.o.o.B : $ D { A.|.XX[.N.s.r.r.3.5.y.i.p.G.J.J.Y.Y.J.J.J.J.J.J.J.J.J.J.F.F.F.D.i.:.$.] $. .! H 4 9 N o.B b B B B B O.O.O.O.B v B +.b v ",
"b b b b o.B v , , , , o.B B B z : $ i [ A..XoX|.L.k.i.t.t.t.e.t.i.g.G.J.Y.Y.Y.J.J.J.J.J.J.J.J.J.J.E.E.G.t.` H F H U U F 5 9 N b b v v n N O.+.+.+.B v v v B b b ",
", b O.+.+.o.v v B b , o.O.+.+.+.B - 8 R 1.A.{.[.U.B.s.y.6.t.y.5.e.u.g.G.J.Y.Y.Y.J.J.J.J.J.J.J.J.J.E.Q.G.;.R o o O S P F 5 h B +.O.b b O.O.B B O.+.O.O.b b B b v ",
", N o.o.+.O.+.B O.o.B o.+.+.+.O.O.z j x R X.m.S.I.K.d.y.6.t.y.e.t.y.i.g.j.J.Y.Y.Y.J.J.J.J.J.J.J.J.Q.E.J.;.R o o A U U H p h +.+.+.O.+.+.O.B B B B B O.B b O.b v ",
", v v N B +.+.O.O.O.O.O.+.+.B B O.+.O.N 2 H { m.L.L.k.r.6.y.y.y.y.y.5.i.g.G.J.E.J.J.J.J.J.J.Y.J.J.E.E.J.:.~ F U ! / / H 5 h O.O.+.+.+.+.B B B B v v O.+.+.b b b ",
"> , v B B B o.B B z B z z B O.+.O.O.B : $ r _ q.Z.K.d.6.6.t.y.y.y.5.5.y.i.g.j.K.T.E.Y.E.T.Y.Y.Y.Y.W.Q.J.y.$.( ] &.&.' R 3 9 z O.+.+.+.+.+.B b B n v B +.O.b v : ",
"> , N o.B v v v , z , z z z z O.O.O.N ; $ r _ a.K.L.d.6.6.y.y.y.y.8.6.y.y.i.g.b.J.Y.Y.Y.Y.Y.Y.Y.Y.E.E.J.g.3.*.2.5.1.{ Y 3 9 , z B +.+.+.+.B B B b B O.+.O.b : ; ",
"> v v b B v v , , , , , z , , N O.B B n $ D X.m.].(.M.y.t.t.y.t.y.y.y.8.8.8.i.g.G.Y.G.G.G.G.G.G.G.G.G.G.j.g.y.i.8.&.( J 2 g , , B O.+.+.+.+.+.+.O.B +.+.O.v : n ",
"> > b b B b , > > v v , v N N O.O.O.B M 1 F 1.'..X|.P.k.y.5.t.t.y.y.y.y.8.8.y.p.g.j.j.g.g.g.g.g.j.j.j.j.g.d.y.6.&.~ K w z z b O.+.+.+.+.O.O.O.O.B B B O.+.B B v ",
"> v b o.O.o.v v N B B B B o.O.+.+.B V e + F ,.'..XXX}.Z.s.r.e.e.y.y.y.y.8.8.y.y.i.i.i.i.i.i.i.i.i.i.i.i.d.g.8.*.( y 0 j b O.O.O.+.+.+.+.B B O.+.v : n b +.O.B b ",
"b v b +.+.+.B B o.O.+.+.O.o.+.+.B n M d 6 G [ n.'..X[.L.B.f.i.e.y.y.y.y.y.y.y.t.8.8.8.8.8.8.5.y.e.3.3.t.d.k.s.#.R @ 9 N B o.O.o.O.+.+.B v B +.+.b n v O.+.v v v ",
"v > b o.O.+.+.o.v B O.+.o.B O.N n M m c e f E | 9.A.S.L.L.C.k.s.6.6.t.y.y.y.y.y.8.8.8.8.r.r.e.t.t.3.3.5.k.K.N.4.! @ 7 M o.O.+.O.O.+.+.+.O.+.+.+.O.b O.+.+.b v v ",
"> v b o.O.+.+.O.v z o.+.o.N N l e C e h Z m f # E 1.V.U.[.U.N.k.y.6.t.y.y.t.y.y.8.8.y.y.y.y.y.y.y.t.6.i.B.K.V.4.! t 6 e B +.O.O.O.O.+.+.+.+.+.O.O.+.+.+.O.O.B v ",
"v b o.O.+.+.O.O.+.B B O.O.B N l C c e q M M q + D ,.S.|. X(.K.N.f.s.y.t.t.t.t.t.6.y.y.y.y.y.y.t.y.i.k.B.Z.M.4.' L i u s l O.O.B b B O.+.+.+.O.O.b b O.B B O.B b ",
"> b O.O.+.+.O.O.+.+.O.o.O.o.N M Z e q 0 M 9 7 + F <.{.oXXX[.K.K.N.f.i.6.:.5.6.6.6.6.8.y.y.y.t.t.t.k.Z.K.M.4./ R f q q s g j N N v B B B b b O.O.O.O.O.O.+.+.B b ",
"v B O.N B +.O.O.O.+.o.N o.B N V C e e e e e 7 + U <.'..XXX[.].U.L.Z.k.s.y.i.s.s.s.s.r.i.r.i.y.y.y.l.Z.C.0.) i 6 s e e e h j N N N B B B N B O.+.+.+.+.O.+.+.o.b ",
"v N B , N o.B o.O.N , z , N N M Z e e m e M e q J [ <.'.{.XXXX X}.U.L.B.B.Z.K.K.K.B.k.d.i.i.i.p.p.d.a.4._ H u q m M C e k N O.O.+.+.+.+.+.+.+.+.+.+.+.B v +.B b ",
"v b B N N N N B B N N B N > z M m m m e e e M e d K E ,.'..XoX.X}.P.L.L.L.L.L.P.L.C.k.i.y.i.i.i.s.3.%./ H i q M M M Z k h n O.+.+.+.+.O.B O.O.+.B B o.B v v b b ",
", B +.o.B B B N N N B +.N j N N M m m C e M n M k q @ T <.'.{.].C.M.V.V.V.V.V.C.V.f.r.;.;.;.:.5.2.@.R S 4 q M M M k m M n N O.O.+.+.+.O.B B O.O.b v B o.B , v b ",
"b B +.+.+.+.O.O.B N , v > v +.N n h k C C Z M m h 0 7 f ) 9.n.0.<.#.#.<.1.<.1.1.<.#.] ' ` ` ] ] ] ! G 4 7 q M Z e m M B B O.+.O.O.O.O.+.+.+.+.+.+.O.+.+.O.o.b b ",
"v B o.+.+.O.O.+.+.+.B B B o.O.+.b n e C k k k C m k e s K E T T Y J Y Y Y Y Y R Y U J H H H H U U G f e e M M M m e n B B o.B O.O.O.O.B O.O.O.O.+.+.o.+.+.o.b b ",
"v o.+.o.+.B +.+.+.+.+.+.+.+.+.+.b v n M e e e C m M M e 6 3 + @ @ @ # # 4 t # # @ # t t t t t # t i e M V Z M m M : n b N N N +.O.B B B N N N B B b b O.+.o.b b ",
"v b b o.O.+.B B B +.+.+.+.+.O.o.v v n - e e c C e e h e q 6 4 6 5 5 u u 6 u 7 u s s 6 s s s i u u d e C C C m h n n v N N B O.+.o.N N N B B N N v N B o.o.+.b , ",
"v b o.+.o.o.B B B o.B B O.+.O.B B O.B n l k k Z k w 0 e e q q q q q e e e e q e e e e C e e e e e e e e m m M j N o.B B B o.+.+.O.N v v B N N , , , o.o.b +.b , ",
", b O.+.B v B B O.o.N N B O.O.O.O.+.O.B B N M N n g e q e e e 0 9 e M M C M M M M M M M M e e M m M h e n n n N o.+.O.O.+.O.O.+.o.N v j > v z , v b +.o.o.b b v ",
"v b +.o.N , > B +.+.o.+.+.O.O.O.+.+.+.+.o.o.B B B n e q q e e k e e m e m m m m m m M e q q q e m M N B B B b B +.+.+.+.+.+.O.+.O.O.B v , , N B b b o.o.+.+.b b ",
"v b +.o.B N v B +.+.O.+.O.O.O.O.+.+.O.+.+.o.B +.O.B M k e k k M M M M m M M M M M M M M M m e C M n B B O.O.O.O.+.O.+.+.+.o.B O.+.+.B B b B B +.O.O.o.o.o.+.B b ",
", o.+.+.+.O.O.O.+.o.B N +.+.+.+.+.O.o.O.o.B v B +.B B N V N N V B B V n : n n n n n B V B N V N V N N N O.O.+.+.+.o.+.o.o.B b B +.+.+.+.O.+.+.+.+.+.+.O.b O.b , ",
", , O.+.+.B O.+.o.+.B N o.+.+.O.O.B B B O.+.+.N B +.O.O.o.B O.O.B B N B B v v b b v b b B N B B B B B v O.+.+.+.o.o.b B O.+.O.B o.+.+.+.+.O.+.+.+.O.o.O.O.b , : ",
", , O.O.O.b O.+.O.o.B v B +.+.B B B B o.+.O.+.b B +.+.+.+.B O.O.+.O.o.O.O.B B B b O.O.+.B b B O.O.o.B b B O.O.O.B B B B O.+.O.b o.+.+.+.+.o.+.+.O.O.o.+.+.b , , ",
", o.+.O.+.b b o.+.B v v b v v b B O.+.+.o.N , +.+.O.+.+.+.B B O.O.+.+.+.+.O.+.+.+.+.+.+.O.B B O.+.B v b B N N N B +.+.+.o.b v +.+.o.O.+.+.B b o.O.O.+.+.+.O.o.b ",
", b O.O.o.B o.o.o.o.b v o.+.b B O.O.B B o.o.o.O.B B O.+.+.B B +.+.+.+.b b +.+.+.O.O.O.+.B B b O.o.o.B v B +.B b o.o.B B o.O.O.O.B B +.+.O.o.B o.O.+.O.B b +.O.b ",
", b o.O.o.o.+.o.B +.+.b +.O.O.+.O.+.B b B +.+.B N B B +.+.O.O.+.+.O.b b b +.+.O.B B B B O.O.+.O.o.O.+.B +.O.O.+.+.+.B b B +.O.B N N o.O.+.+.+.+.+.O.o.b b O.o., ",
", b b b o.+.+.O.+.+.O.+.B N +.o.O.+.O.O.O.O.B N N O.B O.+.O.O.O.O.o.b o.O.+.o.B O.B b B O.+.+.+.+.+.O.+.B N +.o.o.+.+.o.o.o.B v N o.o.+.+.O.o.+.+.o.b O.O.+.b > ",
", , v b b +.+.+.+.+.O.o.B B O.+.+.O.O.O.O.O.B B B O.B B O.B B +.+.+.o.o.+.+.B b O.B v v B +.O.+.+.+.O.o.B B O.+.+.+.o.+.+.o.B N B o.B b B B B +.O.O.o.o.+.+., ; ",
", , , , b b b +.+.+.o.b b +.+.+.O.O.B O.+.+.o.B O.O.B B N B B O.O.O.O.O.+.+.o.b O.B v v b b B B +.+.O.b b +.+.+.+.o.B o.+.+.o.B +.+.o.B b B B +.+.O.+.o.O.O.b > ",
"b v , v , b b O.O.O.O.o.o.b +.B N B b B +.+.O.o.O.+.+.O.O.O.O.B b b +.+.+.O.O.+.+.B v v v v B O.+.O.O.o.b b +.B v B b B +.+.O.o.B +.+.O.B +.+.B b b O.+.+.O.b , ",
"> > , b b , b v b b v b b b b b N v b N N B B B B B B B N B B B > > b b v v b b b v n v v v v b b v b v b b b v v v b B B B B B B B o.o.B B B B , > b b b , , > ",
"; ; > , v b , , , > > , v , > , b b b b > > v B N v v v v v b B > > v > ; : : v v v > v v v v n > > > , b v > v B v N b > > v B v , , , , , N b > > v > ; > ; ; "
};
