/* XPM */
static char *Group_9_25__resized[] = {
/* columns rows colors chars-per-pixel */
"80 80 203 2 ",
"   c #3C3B25",
".  c #521E35",
"X  c #43342C",
"o  c #4E2736",
"O  c #55263A",
"+  c #532C3A",
"@  c #592B3D",
"#  c #4B3733",
"$  c #463D34",
"%  c #4B3C34",
"&  c #54343D",
"*  c #533E3C",
"=  c #3A481E",
"-  c #2F5216",
";  c #37581C",
":  c #3A5D1D",
">  c #37631B",
",  c #3B641D",
"<  c #3D6D1E",
"1  c #3F711F",
"2  c #3B4523",
"3  c #3A4224",
"4  c #3C4B22",
"5  c #3B4B2D",
"6  c #3E5223",
"7  c #3B5B24",
"8  c #3D522D",
"9  c #365828",
"0  c #37592B",
"q  c #3A5C2C",
"w  c #3D4E32",
"e  c #3E5331",
"r  c #3D5B32",
"t  c #3B6425",
"y  c #3E6B23",
"u  c #3D632C",
"i  c #3F692C",
"p  c #3F7220",
"a  c #3F6431",
"s  c #406D1F",
"d  c #41751F",
"f  c #43781F",
"g  c #414B25",
"h  c #42452B",
"j  c #454B2A",
"k  c #415425",
"l  c #415B25",
"z  c #45542A",
"x  c #444335",
"c  c #4B4335",
"v  c #434C34",
"b  c #4B4C35",
"n  c #46403A",
"m  c #4C453A",
"M  c #434A38",
"N  c #4D4C39",
"B  c #52413C",
"V  c #55463F",
"C  c #475335",
"Z  c #416423",
"A  c #416D22",
"S  c #406B2C",
"D  c #427520",
"F  c #457C21",
"G  c #42722A",
"H  c #406531",
"J  c #406931",
"K  c #593542",
"L  c #563D42",
"P  c #5A3D44",
"I  c #603D49",
"U  c #4D4942",
"Y  c #5B4244",
"T  c #524845",
"R  c #5D454A",
"E  c #5E4C4B",
"W  c #5D5047",
"Q  c #5C524C",
"!  c #594E50",
"~  c #575153",
"^  c #5C5558",
"/  c #64474F",
"(  c #614C4E",
")  c #62564A",
"_  c #644C51",
"`  c #694F55",
"'  c #645453",
"]  c #6A5356",
"[  c #635954",
"{  c #6A5957",
"}  c #66545C",
"|  c #6C555A",
" . c #65595A",
".. c #6B5B5C",
"X. c #705557",
"o. c #71565A",
"O. c #735C5D",
"+. c #6B6057",
"@. c #6B625D",
"#. c #72615B",
"$. c #6B5E62",
"%. c #665B68",
"&. c #755D60",
"*. c #7B5E60",
"=. c #6E6461",
"-. c #6D6A62",
";. c #6B686C",
":. c #726563",
">. c #7C6564",
",. c #726965",
"<. c #76686B",
"1. c #736E69",
"2. c #706A6C",
"3. c #73766C",
"4. c #79746D",
"5. c #74796E",
"6. c #78796F",
"7. c #6E6A72",
"8. c #777777",
"9. c #767C72",
"0. c #7B7D72",
"q. c #767A7C",
"w. c #83746B",
"e. c #837C73",
"r. c #897D75",
"t. c #478022",
"y. c #498423",
"u. c #4C8A24",
"i. c #778175",
"p. c #7A8475",
"a. c #788877",
"s. c #77837B",
"d. c #78847B",
"f. c #7D8B7A",
"g. c #7F927D",
"h. c #8B8679",
"j. c #8E8479",
"k. c #808E7C",
"l. c #92847A",
"z. c #928A7E",
"x. c #81937E",
"c. c #6A6D80",
"v. c #767F80",
"b. c #777B89",
"n. c #747E93",
"m. c #778182",
"M. c #788683",
"N. c #7A8B85",
"B. c #79858D",
"V. c #7C8F8C",
"C. c #7C918C",
"Z. c #7B8798",
"A. c #7D9592",
"S. c #7D9697",
"D. c #7E9A99",
"F. c #7D8FA0",
"G. c #7E96A5",
"H. c #948F81",
"J. c #839680",
"K. c #859B83",
"L. c #8B9B85",
"P. c #969483",
"I. c #989785",
"U. c #929D87",
"Y. c #9A9A87",
"T. c #929F88",
"R. c #9D9D89",
"E. c #8DA389",
"W. c #8BA68A",
"Q. c #92A38A",
"!. c #9CA58D",
"~. c #98A98E",
"^. c #9BAC91",
"/. c #98B494",
"(. c #A3A38D",
"). c #A9A38E",
"_. c #A4AC93",
"`. c #A7AC93",
"'. c #A4B095",
"]. c #ABB196",
"[. c #A5B598",
"{. c #ABB499",
"}. c #A5BB9B",
"|. c #ACBB9D",
" X c #B5B496",
".X c #BAB495",
"XX c #BAB799",
"oX c #B4BA9B",
"OX c #BBBD9C",
"+X c #82A5A9",
"@X c #83A6B5",
"#X c #84ABB6",
"$X c #C7B996",
"%X c #CAB894",
"&X c #C3BB99",
"*X c #CDBE98",
"=X c #D3BD96",
"-X c #B8C19F",
";X c #B9C4A1",
":X c #C2C29E",
">X c #CCC49E",
",X c #D2C39B",
"<X c #C9C8A1",
/* pixels */
"- > 1 1 1 1 1 d d < < d f d f 1 d d d d < < 1 F F d f f d s < d < d d d 1 F f < , < 1 < 1 1 1 1 1 1 < 1 f f f f 1 1 f 1 1 < 1 f D d f d 1 < < 1 1 d f 1 1 f 1 ; ",
", < 1 d D D 1 1 1 1 1 f f f f 1 1 d d d < 1 1 f 1 1 1 1 A D f F F f d 1 < f t.F D d 1 d d f 1 1 1 1 f f D D 1 1 1 f 1 1 1 1 f f d 1 1 1 1 D F D F f 1 1 1 F d < ",
"f f d f F F 1 d 1 f f t.t.D F D D D D < d f F D p p < 1 D F u.u.u.y.d < 1 F y.u.u.y.D F t.f 1 1 1 f f t.F F F p D F 1 1 1 D F p d 1 s d D y.u.u.u.t.d 1 1 f f f ",
"d f y.u.y.y.d d f f f t.y.u.u.u.y.y.D 1 F y.u.y.t.t.t.y.y.y.F u.y.y.y.d f t.y.t.F y.y.y.y.t.f f f 1 f t.y.u.u.u.u.t.1 1 F y.u.u.y.F y.y.y.F t.u.y.y.y.d f y.f 1 ",
"d d y.y.y.y.y.F t.f F y.u.u.u.u.y.y.y.F y.u.u.u.u.u.u.u.u.F F F F F u.y.F t.y.y.y.F y.y.y.u.y.t.y.f F t.u.u.u.y.u.y.y.y.u.u.u.u.y.y.u.u.u.F F F F F y.y.F y.f 1 ",
"d d d f y.u.u.u.u.y.y.y.u.y.F f y.u.u.u.u.u.u.u.y.u.u.u.F F D F y p t.u.y.F t.u.y.F d d t.u.u.u.u.y.y.y.u.u.F F t.y.u.u.u.u.u.u.u.u.u.u.y.F D F < d y.u.y.F f d ",
"< 1 d f f F y.F D D D D D F y.u.y.y.F d f F f d d f F F y.F d F 1 1 F u.u.F d f F F 1 F F F F F f D D F p F y.u.y.y.t.1 F t.t.y.u.u.u.u.y.F f F 1 1 F u.y.F < , ",
"< < d f F d d d 1 1 p p 1 1 F t.y.y.F F F d , ; 6 6 : D y.F y.F f d y.u.u.D 1 d F D d y.F D d D 1 1 1 1 1 1 F y.y.y.F F D D F p F y.u.u.u.F F y.D F y.u.u.D < , ",
"1 1 f t.t.1 1 1 1 p 1 1 1 1 1 F F F y.u.y.D ; X X # h l F u.u.u.y.y.u.u.t.p D F F F D t.F d s 1 1 p 1 1 1 1 y F y.t.y.u.u.t.1 1 D u.u.u.u.u.u.u.u.y.u.u.y.< < < ",
"< 1 1 f F p 1 1 1 1 1 1 D F p t.y.y.y.u.F Z z ) X.X.) C l d y.y.f d D y.u.t.u.t.F D D F F D d < 1 1 p 1 1 t.1 t.y.t.u.u.u.y.t.y.u.u.u.u.y.y.y.y.D D D t.y.y.F d ",
"1 1 F t.y.t.p 1 D F F D F y.y.u.u.y.F D Z C ) w.r.l.,.Q b l s f p < < t.u.t.u.u.y.F f y.y.F D d F F F p t.t.y.u.u.y.y.u.y.y.y.u.u.u.u.y.F f y.y.p < < t.u.y.F d ",
"f 1 p u.u.u.F F y.u.u.u.y.y.u.u.u.y.D , h ( w.R.(.!.p.@.( j l F p < < y.u.D F u.u.F d y.u.u.F D t.y.u.y.y.y.u.u.u.t.u.u.t.t.y.t.y.u.u.y.d y.u.u.D < 1 y.u.d d d ",
"1 1 1 t.u.u.u.t.1 F y.u.t.t.u.t.t.u.d 4 # o.z._.}./.K.6.O.B g F t.D , Z s : 7 , , : ; , s s , : > 1 t.u.t.F u.t.t.y.u.y.y.u.u.y.y.u.u.u.y.u.u.u.y.F y.u.u.F d d ",
"< 1 f t.y.u.u.y.p p t.u.t.F y.t.f y.< 2 & O.z.^./.W.x.4.O.* g f t.D k j h 2 4 2 2   3 3 3 g j 2 3 ; 1 u.t.F y.F F y.y.t.u.u.u.y.t.u.u.u.u.u.u.u.u.u.u.u.y.F d d ",
"1 f y.u.u.u.y.y.u.t.F y.y.t.y.y.u.t., = # ( 4.k.K.x.9.:.` c k A A k B P Y * * * * * * * * * Y Y m 6 < u.y.t.y.u.u.y.p 1 F u.u.p D F u.u.u.u.u.F F F F t.y.y.F f ",
"1 f u.t.u.u.y.y.u.u.y.t.y.y.y.u.u.f < ; 2 N [ 3.e.0.=.Q b k ; s 6 b ( | o.{ { ] { ..&.:.O.&.>.>.{ N 6 , F y.y.u.u.1 1 1 p F t.p D D D F D F y.t.u.t.t.u.u.y.y.f ",
"1 f y.f F u.y.y.u.u.t.D t.t.u.u.u.D d < > 6 N [ O.O.' N l > : g b W =.4.0.0.6.6.9.h.H.H.H.P.I.P.e.+.N 4 < F u.u.u.F D D D D F D D F F D D F t.u.u.u.u.u.y.u.F f ",
"f f f 1 d F F y.u.D 1 p 1 D t.u.u.y.t.f F A k c & I c k d s l c ] ,.9.a.x.x.K.x.L.!.`.{.{.{.oXoX(.z.O.c 4 , F u.u.u.y.F F y.u.y.u.u.u.u.u.u.u.u.u.u.u.f D u.y.d ",
"d f y.d d f D F F D D F 1 1 t.u.u.u.y.y.F d t k j z l : s 6 b E :.0.f.g.K.K.E.E.^.'.|.oXOX&X>X:X X).j.Q c = < t.u.u.u.F F F y.u.u.u.u.u.t.y.u.u.t.f t.f d D f f ",
"1 f u.y.F F F F D D F t.D 1 t.u.u.y.y.y.F d d < s d d ,   c W @.4.k.x.x.x.K.E.~._.[.[.oX&X*X,X*X&XXX(.w.' m = d t.y.y.y.D F y.u.u.u.u.t.D F t.y.f d t.t.F d d f ",
"D F y.u.u.u.y.y.F D D 1 1 D u.u.F y.y.u.y.u.y.F F F s z m ] ,.3.d.x.x.g.x.J.Q.(.[.[.'.]..X$X=X=X*X>XOX(.j.#.c 6 s F u.u.u.u.u.F t.u.y.u.u.u.u.u.u.u.u.u.y.F f f ",
"d F y.u.u.y.y.u.u.y.F F F F u.u.y.D F u.y.y.F y.f A z N E :.4.5.p.k.J.g.x.K.U._.].].`.]. X.X%X%X,X,X>X X).j.[ c 2 , D u.y.y.F y.y.t.t.t.y.y.y.u.u.y.y.u.u.y.f f ",
"d f u.y.t.y.t.u.u.u.u.u.u.u.u.u.u.d F F D d D y.d g m E =.3.5.5.i.f.g.N.x.J.T.!.].].`.`._.]..X$X=X=X=X&X X).e.' % 4 , F D d d u.u.t.t.D p p t.F f d d y.u.y.f d ",
"d f F F u.u.t.F y.y.u.u.u.u.u.t.F F D d D F y.u.A   Y ..<.i.p.i.p.f.x.x.N.J.T._.].].'._._.`.]..X$X%X=X,X>XOX(.j.#.b 6 : < D y.u.y.1 D F F F p F d d F y.y.y.d d ",
"d f y.y.y.t.t.F F F F F y.u.u.F F F F F F y.y.u.Z   P o.<.p.f.a.f.x.x.g.g.x.~._.].]._._._._._.]..X$X=X=X,X>XXX).j.+.N 2 > D u.u.t.1 p D F D p p 1 1 y.t.t.y.f 1 ",
"1 f u.u.t.1 p t.y.t.D p F u.t.t.y.u.y.y.u.y.y.y.Z h Y ] ,.i.g.g.x.x.x.g.g.x.Q.^.].]._.]._._._.'.]..X%X=X=X*X&XoX(.e.( % 6 D u.u.y.D p 1 1 1 1 1 1 1 y.y.t.y.f 1 ",
"1 F y.t.f < 1 f u.u.u.u.y.y.F y.u.u.u.u.u.y.A Z k m [ =.2.9.f.x.x.x.x.x.x.x.x.Q.^._.'.].{.|.|.|.oX;X:X<X,X<X<X;X{.z.| % 4 s y.u.u.y.1 1 1 1 p f f f f y.y.y.t.1 ",
"d F y.y.t.f 1 f u.u.u.y.u.u.t.u.u.u.u.u.u.d 6 j V [ -.3.3.0.f.k.x.x.x.x.x.x.x.x.T.!._.].{.{.{.[.|.{.oXOXOX-X;X;X].z.| * 4 s F y.u.u.t.f D t.y.y.y.u.y.t.y.y.t.f ",
"d f u.u.u.u.y.u.u.t.F D y.u.u.u.u.y.y.y.y., 3 * ' ,.9.i.5.9.a.k.x.x.x.x.x.x.k.k.J.Q.^._.(.(.R.I.I.I.I.I.P.Y.).].`.l.{ # 4 , d t.u.u.u.u.u.u.u.u.u.u.u.y.t.t.1 1 ",
"< d t.u.y.f y.u.t.t.t.D t.u.u.u.y.F F F u.A g B ] <.9.i.9.0.p.x.x.x.x.x.x.x.x.k.J.L.Q.I.H.e.>.O.X.| | ` ` o.r.!.`.z.{ % 6 d y.D f u.u.u.u.u.u.u.u.y.t.t.y.f 1 < ",
"1 f y.u.t.f t.u.u.t.D D t.y.y.t.F F F F y.s g B ` ,.0.i.5.9.a.k.x.x.x.x.x.x.x.g.x.K.K.f.9.../ K O O O O . @ #.z.(.z.O.# ; < y.F t.u.u.u.u.t.t.u.u.t.f u.y.f 1 1 ",
"d t.u.u.y.f f y.u.F D D f f D D F y.u.u.y.:   * _ :.9.9.5.i.a.k.x.x.x.x.x.x.x.x.x.K.x.p.1. ./ K @ @ O O . K #.z.!.z...# 4 , d y.u.t.u.u.u.f f y.y.u.u.u.u.y.t.f ",
"1 f y.y.y.F t.y.t.t.F d F y.F F y.y.y.F F < 4 * ( :.3.9.5.5.p.k.x.x.x.x.x.x.x.x.x.g.g.a.i.-.1.#.w.w.O.w.*.>.h.P.L.e.' % 6 < y.y.t.D y.u.u.F F y.u.u.y.f t.y.y.f ",
"1 f F t.t.t.y.y.F u.y.D y.u.u.u.y.y.F f y.s g * _ :.5.9.5.i.p.x.x.x.x.x.x.x.x.x.x.x.g.g.f.f.x.z.R.!.R.z.R.!.Q.T.x.4.( % = d u.F F D y.u.u.y.t.u.u.y.t.f 1 u.y.1 ",
"1 d F F t.u.u.u.u.u.u.u.D F u.t.y.y.y.y.y.s 4 * _ 1.i.s.9.i.p.x.x.x.x.x.x.x.x.x.x.x.g.g.g.x././.[.[.].].|.|./.W.x.<.E % 4 s F d D y.F y.u.y.y.u.y.t.F t.u.u.p < ",
"1 1 f 1 F u.y.y.u.u.y.t.F F u.u.u.u.y.F y.s 4 * } 8.N.N.i.6.p.g.x.W.x.x.x.x.x.x.x.x.x.x.g.x.x.~.~.Q.~.~./././.W.J.3.( % 6 < F f F y.F F t.F t.u.u.y.t.y.u.u.1 > ",
"1 1 1 1 D t.F t.u.u.y.f F t.u.u.y.y.F y.u.d g % } 8.V.V.s.i.i.f.x.x.x.x.x.x.x.x.x.x.x.x.x.x.x.x.x.x.x.x.x.x.g.x.k.1.( % k s y.f F u.F F F D F u.u.u.y.y.u.u.1 < ",
"f d 1 d 1 1 F y.u.y.y.t.F t.u.F F d f F u.d g * } q.A.C.s.5.5.a.x.x.x.x.x.x.x.x.x.x.x.x.x.x.x.g.g.g.g.a.3.-.-.-.#.../ % l d y.y.F u.u.u.F t.u.F d f u.u.u.y.t.f ",
"f f f f F t.F t.t.t.t.t.t.t.t.F y.F F y.y.s 4 * } q.V.V.s.5.3.9.a.k.x.x.x.x.x.x.x.x.x.x.x.x.x.x.g.g.g.a.@.Q Y R ( / P % 6 s y.y.u.u.u.u.u.u.u.F d d y.y.f f f f ",
"< f t.y.u.u.t.t.f F f y.t.u.F t.y.y.u.u.G > 4 * } q.V.C.s.5.3.3.p.a.x.x.x.x.x.x.x.g.x.x.x.x.x.x.x.W.x.a.+.* o + & P P c 4 s y.u.u.t.F t.y.F u.u.f f y.f 1 f 1 1 ",
"> d y.y.y.y.y.y.y.F F u.u.u.u.u.y.u.u.u.F , 4 B } q.B.C.s.9.1.3.i.f.x.x.x.x.x.x.x.x.x.x.x.x.x.x.g.W.J.5.^ + o o K I P % 4 < y.u.u.u.u.u.t.F F t.y.y.u.t.F u.F < ",
"< d F F F F F F t.D F y.t.F t.F F F F F D , 4 B } q.C.C.s.3.3.3.i.p.x.x.x.x.x.x.x.x.x.x.x.x.x.x.x.E.J.6.[ L + P / ` P $ 4 y F y.F F D F F F t.u.u.y.F D f u.t.f ",
"f f d F t.F 1 1 d f F t.F D D D D F D < d , 2 * } q.V.C.s.3.3.3.6.p.k.k.x.x.x.x.x.x.x.x.x.x.x.x.x.K.x.p.=.[ '  .=.../ # 4 , F F D 1 < d D t.u.u.y.t.d 1 1 t.f f ",
"1 f y.u.y.t.d d D d d F u.u.u.u.u.F d < f s g B } q.V.C.s.9.3.3.6.i.p.k.x.x.x.x.x.x.x.x.x.x.x.x.x.x.x.f.5.3.5.9.9.,./ % 4 < u.u.y.F y.y.t.t.t.u.y.y.t.f f t.f 1 ",
"1 D y.F y.u.y.t.F F F t.u.u.u.y.y.y.y.F y.d g B } q.V.V.a.5.3.3.3.3.5.a.a.x.x.x.x.x.x.x.x.x.x.x.x.x.x.x.f.g.J.J.k.1.( % 6 D u.u.u.y.u.u.u.F F F F F u.y.F t.f 1 ",
"1 1 D D t.u.u.u.u.y.y.y.u.y.F F y.u.u.u.u.s 6 B } q.V.V.s.5.3.5.3.3.5.5.p.f.x.x.x.x.x.x.x.x.x.x.x.g.x.K.K.E.W.K.k.1.( % 6 d u.u.u.u.u.y.y.F F F 1 1 y.u.u.f d f ",
"< 1 d F F F F F F D D D F F y.y.y.u.F F D s = * } q.C.C.i.3.3.5.5.5.3.5.5.i.a.x.x.E.x.x.x.x.x.x.x.x.g.x.J.K.J.x.p.:.( $ 4 < F y.y.u.u.u.y.D d D 1 < F u.u.f 1 , ",
"< 1 d y.F d d d D < d D < D F y.u.F F F d : = * ^ 8.C.C.s.i.3.3.5.5.5.3.5.i.p.a.x.x.x.x.x.x.x.x.x.x.x.x.J.J.f.a.6.O.R % = , D F F u.u.u.y.y.y.F F D u.u.u.1 < , ",
"< d d f F d 1 1 1 1 1 d 1 1 1 D y.F y.u.u.< = * ] 8.V.A.N.d.i.5.5.5.5.3.5.5.5.p.f.g.x.x.E.x.x.x.x.x.K.x.k.f.p.i.3.O.( % k , d 1 F y.u.u.u.u.u.u.u.y.u.u.y.d < < ",
"< < f f f f 1 1 < 1 1 1 D F p y.y.t.y.u.u.1 g * ` 8.V.S.A.N.s.i.5.5.5.5.5.5.5.5.p.f.x.x.g.x.x.N.x.K.x.g.f.i.5.i.3.=./ % 6 d f y.u.u.u.y.y.y.y.y.f d D y.y.y.D d ",
"1 d f t.u.y.d d D F F D F y.y.u.u.y.u.u.u.s = B $.v.D.+XD.A.m.9.3.3.5.5.5.5.3.3.i.p.f.x.g.g.f.g.k.x.g.f.i.9.9.i.9.:.( % 4 s u.u.u.u.u.y.F F y.y.D < s F u.y.F d ",
"f d d u.u.u.f f y.y.u.u.y.y.u.u.u.y.y.u.F , = B %.Z.#X#XG.C.s.9.3.3.5.9.5.5.3.3.3.i.p.p.p.p.p.p.p.a.p.i.5.5.9.i.0.,./ # 4 < y.y.y.u.u.y.d y.u.u.D < d y.u.d d d ",
"< d f y.u.u.u.t.D D y.u.t.t.u.t.t.y.u.u.y.s 4 B %.n.G.#XG.D.s.9.3.3.3.5.5.5.5.5.3.5.5.i.9.9.9.9.5.6.5.9.5.5.9.9.3.=.E % 6 d u.y.y.u.u.u.t.u.u.u.y.F u.u.u.F d d ",
"< 1 f f y.u.u.y.d p F u.t.F y.t.D u.t.F t.D 6 n } c.Z.G.S.A.N.s.9.3.5.5.5.5.5.5.5.5.5.3.3.3.3.3.5.5.3.5.5.5.3.1.=.' U x l F u.y.y.y.u.u.u.u.u.u.t.u.u.u.u.F D d ",
"1 f t.u.u.u.y.y.u.t.F u.t.t.t.u.u.y.p < y S i e U ~ %.c.M.C.C.N.s.i.3.3.3.5.5.5.5.5.5.3.5.5.5.5.5.3.5.5.5.3.,.{ ! T M 8 t F u.f d F y.y.u.u.y.t.F F F F F y.F D ",
"1 f u.t.y.u.u.y.u.u.y.t.y.t.u.u.u.D < > 7 q u 0 5 $ R $.m.D.D.S.N.s.9.5.3.5.5.5.5.3.5.5.5.5.5.5.5.5.5.5.a.9.-.' P n 8 7 y D F d d F F y.f f y.y.y.y.t.u.u.u.F F ",
"1 t.y.D F u.y.u.u.u.y.F F y.u.u.u.F < t 7 u u u = X & %.B.+X#XD.V.M.a.i.5.3.3.3.5.3.5.5.5.5.5.5.5.3.9.9.N.d.3._ * $ 8 t p p D D D F F D D F y.u.u.u.u.u.y.u.t.f ",
"f D D 1 D F F t.y.p 1 p 1 p y.u.u.y.F y t i J a k X P 7.F.#X#XG.C.N.C.N.i.3.3.3.3.5.3.3.3.5.5.5.5.3.3.i.C.C.8.} P $ e y p t.u.u.u.u.u.u.u.u.u.u.u.u.u.t.f y.t.f ",
"d f t.D D D D F F D D F p 1 t.u.u.u.F G u u i i q h T ;.n.G.@XG.D.D.D.A.d.i.i.i.i.s.s.i.i.5.5.5.9.9.p.d.N.M.3.^ U M r u p D u.u.u.u.u.y.y.y.y.u.f f y.f d f f d ",
"1 F u.t.F F F D D D t.t.D p F u.u.y.y.D q q a a u z M ~ %.n.G.G.G.G.D.D.C.N.N.N.N.C.N.M.p.i.5.i.i.f.N.N.q.1.^ U M C a i y D t.u.u.u.u.u.d F y.y.f f f t.f 1 d f ",
"f F y.u.u.u.t.F y.D 1 d 1 d u.y.y.t.F D S a a u i i r v U %.b.G.#XG.S.C.C.C.C.C.A.A.C.M.a.5.3.5.i.N.C.M.,.' m v q a a S G y.u.y.F u.t.u.u.u.u.u.u.u.u.u.u.f f f ",
"d F y.y.u.u.u.u.u.y.F f F t.u.u.y.D F F y t a u a i u 5   T %.n.G.A.m.q.s.q.m.m.v.m.v.q.4.1.@.#.1.q.s.7.^ U M 8 i t u A F F F y.y.y.y.F u.t.u.t.u.y.y.u.u.y.t.f ",
"d f u.y.t.t.y.u.u.u.u.u.u.u.u.u.y.f D D p t q i i i u 9 5 w ~ %.7.7.$. .$.$.%.%.$.$.=. .} ' ' ' ] ..$.^ T v 8 a a t y d D < D u.u.F F D D D F F F d d y.u.t.f f ",
"d f t.t.u.u.t.F t.y.u.u.u.u.u.t.F F D p D p p i a 0 q t u w w L L P L L L L L m L L L L L Y L L L P Y m C H i u t y y 1 d F y.u.y.D D F F D D D d d f y.y.y.f 1 ",
"d f f u.y.y.F F F t.F D u.u.t.F F t.F F F t.F G S 9 0 r u q 5 5 # X $ $ $ $ $ $ $ $ $ $ $ $ x $ $ $ $ x e J J i y F D D F t.t.u.t.D d D D D D 1 1 1 t.t.t.t.f 1 ",
"1 f u.u.F d D F t.t.D D F u.u.t.u.u.u.t.y.u.y.F A t 0 r 0 0 5 w 5 5 w 8 e 8 e e 8 e e z w 5 w w e w w e r J i D D y.u.t.u.u.u.u.t.D D 1 1 1 1 p 1 f y.y.t.t.f 1 ",
"d t.y.t.f < 1 D u.u.y.y.u.u.F t.u.u.u.u.u.u.y.y.F G t 0 9 9 q q u q q i u i H S i a i q 0 0 9 q S S S S S i y F u.u.u.u.u.u.u.u.u.u.D y 1 1 D F f f t.t.y.u.f f ",
"d f y.y.F F 1 t.u.u.u.u.u.t.t.u.u.u.u.u.u.t.t.y.u.F A t y y y i i i i i i S S J i i i i u u 0 a S G G F G D G t.u.u.u.u.u.t.F t.u.u.F F f F y.y.y.y.y.t.t.y.t.f ",
"1 t.u.u.u.u.u.y.u.t.F D t.u.u.u.u.F u.y.y.f d t.y.t.t.t.t.F p i J J J a q u u i a a i J J i a i i A D D f y.y.y.u.y.y.y.y.D d y.y.u.u.u.u.u.u.u.u.u.u.t.f t.t.1 ",
"1 1 t.u.y.F y.u.y.t.F D t.u.u.u.t.F G F y.u.u.f F u.u.u.y.y.t.i i i i u i t t t t t i y i t i A i D D d t.u.u.y.t.t.f f y.u.y.f t.u.u.u.u.u.u.u.u.y.t.t.y.f 1 > ",
"1 1 y.u.y.1 t.y.u.t.F d t.y.y.t.F F F F u.u.t.f t.u.u.u.u.F t.F G p y p p y y y G p D G p < y G D G D f t.y.u.t.F t.F f u.u.y.f t.y.u.u.u.t.t.u.y.y.t.u.u.f 1 1 ",
"1 t.u.u.y.t.f t.u.t.1 f f D d f F u.u.u.t.d 1 y.u.t.u.u.u.F F t.t.t.u.u.y.t.y.u.y.y.t.u.F G D F u.t.d d f f d f F y.u.u.y.d d y.u.t.u.u.u.F f y.y.u.u.u.u.y.t.1 ",
"1 f u.y.t.F t.t.t.t.f d t.y.F F y.y.y.f t.t.y.y.t.F y.u.u.F F u.y.u.y.f f u.u.u.y.y.y.y.y.f F F t.t.f 1 t.y.f t.t.y.t.f y.y.y.y.t.F y.u.u.t.f y.u.u.y.f t.y.y.t.",
"1 f t.t.t.t.u.y.f u.y.F t.u.u.y.y.y.F d F u.u.t.F p t.u.u.t.t.u.u.u.t.1 1 u.u.u.F F F y.F y.u.y.f u.u.f y.u.u.y.y.y.t.f F u.y.F p F t.u.u.y.y.u.u.y.y.1 1 u.t.1 ",
"1 f f f y.u.u.u.u.u.u.u.f F u.y.y.u.u.y.y.t.F 1 F t.F y.u.y.y.u.y.t.t.t.y.u.y.t.y.F F F y.u.u.u.u.u.u.u.f f u.y.t.u.y.y.y.F F 1 f t.t.y.u.u.y.u.y.t.t.t.u.u.1 1 ",
"1 1 1 f F y.y.u.u.u.u.t.F F u.u.u.y.y.y.y.y.F D F y.F F t.F F u.u.y.t.t.u.u.f 1 y.F D d F y.y.y.u.u.y.y.f f u.u.u.u.y.y.u.y.F f F y.F D F F t.u.u.y.t.t.u.u.1 < ",
"1 1 1 1 f f f y.u.u.y.f f y.y.u.y.y.t.t.u.u.t.F t.u.t.D F p t.y.u.u.y.y.u.u.t.D y.F d d D F F y.u.u.y.f t.t.u.u.u.t.t.y.u.y.t.F t.u.t.D D F F y.u.u.y.y.u.y.1 > ",
"f 1 1 f f 1 f y.y.u.y.t.f t.u.F D F f F u.u.u.t.t.u.u.u.F u.y.t.1 f u.u.u.y.y.u.y.f d d D D F y.y.u.y.t.f t.y.t.D f D F u.u.y.t.t.u.u.u.t.y.u.F 1 f u.u.u.y.t.1 ",
"1 < 1 1 1 1 f f f f f f f f f f D d d F F F F F F F t.F F t.F F < < t.f 1 1 F t.F d < d d d f f 1 1 1 f f f f f f d D F F F F t.F F t.t.F F t.F 1 < f f 1 1 1 1 ",
"> > 1 1 f f 1 1 < > < 1 1 1 1 1 f d f d < < d F D p p p p p p D < < 1 < > > < d d < 1 1 d D d < 1 < 1 1 1 1 1 1 D f f f < < 1 F f 1 1 1 1 1 d D < < 1 < > > > > "
};
