/* XPM */
static char *Group_9_13__resized[] = {
/* columns rows colors chars-per-pixel */
"80 80 213 2 ",
"   c #4E3E21",
".  c #543524",
"X  c #5D3526",
"o  c #533B23",
"O  c #5C3B26",
"+  c #5D3D29",
"@  c #5C3D32",
"#  c #6D2D2D",
"$  c #742D2F",
"%  c #64352A",
"&  c #6B332D",
"*  c #633C2B",
"=  c #6A3A2D",
"-  c #722D30",
";  c #7D2D35",
":  c #7A2F38",
">  c #643633",
",  c #653C33",
"<  c #6C3B32",
"1  c #6B3A38",
"2  c #753334",
"3  c #7B3436",
"4  c #733B33",
"5  c #7B3C37",
"6  c #74363A",
"7  c #7B3138",
"8  c #743D3B",
"9  c #7B3B39",
"0  c #2F5216",
"q  c #3D551B",
"w  c #335C18",
"e  c #3B5E1C",
"r  c #37631B",
"t  c #3B651C",
"y  c #3D6D1D",
"u  c #3F711F",
"i  c #355B23",
"p  c #3C5728",
"a  c #365B2B",
"s  c #395D2C",
"d  c #3A5D30",
"f  c #3A6325",
"g  c #3D6C24",
"h  c #37602C",
"j  c #3C642C",
"k  c #3E6A2C",
"l  c #3F7121",
"z  c #3E7028",
"x  c #3E6430",
"c  c #48451F",
"v  c #464B1F",
"b  c #50481E",
"n  c #42531D",
"m  c #48531F",
"M  c #445A1F",
"N  c #42641E",
"B  c #426B1F",
"V  c #486D1F",
"C  c #41751F",
"Z  c #43781F",
"A  c #4B4222",
"S  c #464F20",
"D  c #4B4C21",
"F  c #424E2E",
"G  c #494D2E",
"H  c #544523",
"J  c #584225",
"K  c #534D25",
"L  c #5D422A",
"P  c #5A4B29",
"I  c #475421",
"U  c #4C5221",
"Y  c #455921",
"T  c #4C5B23",
"R  c #44532E",
"E  c #445C2E",
"W  c #485D2E",
"Q  c #525424",
"!  c #535A26",
"~  c #595329",
"^  c #454E32",
"/  c #4C4D34",
"(  c #5B4433",
")  c #584837",
"_  c #455631",
"`  c #4D5031",
"'  c #455A31",
"]  c #4A5A32",
"[  c #4B5138",
"{  c #63432D",
"}  c #67452D",
"|  c #604236",
" . c #6D4331",
".. c #6A4831",
"X. c #744736",
"o. c #79403B",
"O. c #466320",
"+. c #4C6322",
"@. c #456B21",
"#. c #496B21",
"$. c #426028",
"%. c #416D2A",
"&. c #427620",
"*. c #497322",
"=. c #457C21",
"-. c #497D22",
";. c #40712B",
":. c #4B6233",
">. c #743D40",
",. c #793B43",
"<. c #674943",
"1. c #714244",
"2. c #822C3A",
"3. c #892E3C",
"4. c #902A38",
"5. c #84353B",
"6. c #8A353E",
"7. c #84383B",
"8. c #843B3D",
"9. c #8C3642",
"0. c #843B41",
"q. c #8B3C43",
"w. c #883A49",
"e. c #8C3D49",
"r. c #943642",
"t. c #933B45",
"y. c #9A3B46",
"u. c #943C49",
"i. c #9C3D4B",
"p. c #A03A49",
"a. c #874144",
"s. c #8B4244",
"d. c #944245",
"f. c #984445",
"g. c #944945",
"h. c #93444C",
"j. c #9A434C",
"k. c #944A4E",
"l. c #834653",
"z. c #944553",
"x. c #9C4551",
"c. c #964D53",
"v. c #9A4D54",
"b. c #964A5D",
"n. c #9D4D5A",
"m. c #965255",
"M. c #9A5256",
"N. c #97515A",
"B. c #9A555A",
"V. c #9D5B5B",
"C. c #A2424D",
"Z. c #A9434E",
"A. c #A34452",
"S. c #A44C55",
"D. c #AB4955",
"F. c #B44955",
"G. c #A25256",
"H. c #A35559",
"J. c #AD5759",
"K. c #A25D5D",
"L. c #AD595E",
"P. c #B35255",
"I. c #B3535A",
"U. c #B7595B",
"Y. c #BA595C",
"T. c #9E605E",
"R. c #A3615F",
"E. c #974B61",
"W. c #955064",
"Q. c #9A5661",
"!. c #9B5B64",
"~. c #9D556C",
"^. c #9B5C6A",
"/. c #9C5F70",
"(. c #A25667",
"). c #AA5E60",
"_. c #A45B6D",
"`. c #BD5E62",
"'. c #A55E73",
"]. c #9D616C",
"[. c #9D6372",
"{. c #9E6579",
"}. c #9F687B",
"|. c #A56361",
" X c #AB6563",
".X c #A46A64",
"XX c #AD6A66",
"oX c #AF6D68",
"OX c #B16262",
"+X c #BA6264",
"@X c #B26A67",
"#X c #B46D69",
"$X c #BB6D69",
"%X c #BB7067",
"&X c #B5716B",
"*X c #BA726C",
"=X c #BD7B6F",
"-X c #A66271",
";X c #A3687B",
":X c #BC7A71",
">X c #C46363",
",X c #C66766",
"<X c #C36F69",
"1X c #CA6E69",
"2X c #C2736B",
"3X c #CB746A",
"4X c #CC7B6F",
"5X c #D17B6D",
"6X c #478022",
"7X c #498423",
"8X c #4C8A24",
"9X c #C88273",
"0X c #D28372",
/* pixels */
"0 r C y u u u u C y u C Z C Z u u Z C u t t y Z &.C Z C u y y y u C Z u u =.C y t y u y u u u u u u y C Z u Z u u Z Z C u y u Z Z C Z C u y y y u Z &.u u Z y w ",
"t y u C C &.u u u u u &.Z Z Z u u Z u y q q e u Z u u u u &.=.=.=.&.C y u Z 6X=.&.C u C C Z u u u u u Z &.Z Z u u Z u u y u Z Z C u u u u &.=.=.=.&.u u C Z C y ",
"Z Z C Z 6X=.l y Z Z Z 6X6X&.Z C l &.g e c o S @.l l y y C =.8X8X8X7XC u u =.7X8X8X=.&.=.6XZ u u u Z Z 6X=.=.=.l l =.u u u &.=.&.u l u u &.7X7X8X8X6XC u C =.Z Z ",
"C Z 7X8X7X6XZ C Z u Z 6X7X8X8X8X7X=.N D 4 3 < T C =.7X7X7X7X7X7X7X7X7XC Z 6X7X6X7X7X7X8X7X6XZ Z Z C Z 6X7X8X8X8X8X6Xu u =.7X8X7X7X=.7X7X7X=.7X7X7X7X7XZ C 7XZ u ",
"C C 7X7X7X7X7X6X7XZ =.7X8X8X8X7X=.+.Q 4 h.x.s...Q @.7X8X7X-.=.=.=.=.7X7X=.6X7X7X7X=.7X=.7X8X7X6X7XZ =.7X8X8X8X7X7X7X7X7X8X8X8X8X8X7X8X8X7X-.=.=.=.=.7X7X-.=.&.C ",
"C C C C 7X8X8X8X7X7X6X7X8X7X=.Z V v < u.M.G.v.9.* M -.8X7X=.=.&.l &.7X8X7X=.6X8X7X=.C &.6X8X8X8X8X7X6X7X8X8X=.=.7X8X8X8X8X8X8X8X8X8X8X8X7X=.=.&.u u 7X8X7X=.&.C ",
"y C C Z -.=.=.=.=.u &.=.l =.7X7X@.v = t.G.H.v.5.{ M -.7X7XZ C Z y y =.8X8X=.C &.=.=.&.=.=.6X=.=.Z &.&.=.u =.7X8X7X7X=.u &.6X7X7X7X8X8X8X7X&.C =.y y 7X7X8X=.u t ",
"y y C Z =.C C C l u u l u u =.6X-.O.P X.h.j.s.} Q @.-.8X7X7X7X-.Z =.7X8X8X&.u C =.&.C =.=.C C u u u u l u u =.7X7X7X6X&.=.&.=.l =.8X7X8X8X7X-.7X=.Z 7X8X8X&.y r ",
"u u u 6X6Xu u u u u u u u u u l 6X=.*.! 5 3 < I B 7X8X8X8X8X8X8X7X7X7X8X7Xu &.=.=.&.&.6X=.u u u l u u u u u u l 7X6X7X8X8X6Xu u =.7X8X8X8X8X8X8X7X7X8X8X7Xy y y ",
"y u Z 6X6Xu u u u u u u l 6Xu 7X7X7X=.*.K J D *.7X8X8X7X7X7X7X7X=.&.&.7X7X6X7X8X=.&.Z =.=.&.u u u u u u u 6Xl 6X7X6X8X8X8X7X6X7X7X8X8X8X7X7X7X7X=.&.&.6X8X6X=.C ",
"u u u 7X7X6Xl u &.=.=.Z 6X6X7X8X8X7X7X7XO.M B 7X8X8X8X7X=.-.7X7Xl y l =.8X7X7X8X7X&.Z 6X7X7XC u u 6X6Xu 6X7X7X8X8X7X7X8X8X7X7X8X8X8X8X7X=.=.7X7Xl y y =.8X7X=.Z ",
"Z u u 8X8X8X=.=.7X8X8X8X7X7X8X8X8X6X7X8X=.=.7X=.7X8X8X7XC 7X8X8X&.y u 7X8X&.-.7X8X6XC 7X8X8X=.=.6X8X8X8X7X7X8X8X8X6X8X8X=.6X7X6X7X8X8X7X&.7X8X8X&.y u 7X8XC C C ",
"u u u 6X8X8X8X7Xu l 7X8X6X6X7X7X=.8X7X8X8X8X8X7X7X8X8X8X7X8X8X8X7X=.7X8X7X=.=.7X6X=.Z 6X7X8X8X7Xu =.7X8X6X6X8X6X6X7X8X7X7X8X8X7X7X8X8X8X7X8X8X8X7X6X7X8X7X=.C u ",
"y u Z 6X7X8X8X7XZ u 6X8X6X=.7X6X&.8X6X=.8X8X8X7X7X7X8X8X8X8X8X8X7X7X8X8X7X=.=.-.&.&.Z =.7X8X8X7Xu u 6X8X6X=.7X6X=.7X7X6X8X8X8X6X7X8X8X8X8X8X8X7X7X8X8X8X7X6X=.u ",
"u Z 6X8X8X8X7X7X8X6X6X7X7X6X7X7X8X7X&.y &.8X8X&.Z =.7X7X7X8X8X6X=.=.=.=.&.C B C C &.-.7X8X8X7X7X8X6X6X7X7X6X7X8X8X7Xu u =.8X8Xl &.&.7X7X8X8X8X6X=.=.=.6X7X7X=.Z ",
"u Z 8X6X7X8X7X7X8X8X7X6X7X7X7X8X8X&.u u C =.=.C u &.=.=.Z =.7X7X7X7X7X=.V D H J m B 7X=.7X8X7X7X8X8X7X7X7X7X7X8X8Xu u u l =.7Xu &.=.=.=.=.=.7X7X7X6X7X7X7X8X6XZ ",
"u 6X7XZ Z 8X7X7X8X8X6X&.6X7X7X8X8X=.Z C Z &.&.&.=.=.=.=.=.=.7X7X8X8X7X*.! * ; 2.% Q #.&.=.8X7X7X7X8X7X6X=.7X8X8X8X&.C Z C &.&.&.=.=.=.=.&.=.7X8X8X8X8X7X8X8X=.Z ",
"Z Z Z u Z =.=.7X7X&.u u u &.6X8X8X7X7XZ =.7X8X8X7X8X7X8X8X8X8X8X8X7X*.U { t.F.F.f. .D t u =.=.6X7Xl u u u &.7X8X8X8X7XZ =.7X8X8X7X8X7X8X8X8X8X8X8X8X8XZ &.7X7XC ",
"u Z 6XZ C C &.=.=.&.&.=.u u 6X8X8X8X7X7X=.=.7X8X8X8X8X7X=.7X7X7XZ B Q } 0.H.>X>XI.d.= v t C =.=.=.Z u 6Xu u =.8X8X8X7X7X=.=.7X8X8X8X8X7X6X7X7X8X6XZ 7XZ C &.=.Z ",
"u Z 8X6X=.=.=.=.&.&.=.7Xl u 7X8X8X7X8X7X=.=.6X8X8X8X8X7X&.=.7X7Xt c % 0.S.+X2X4X,XP.y.% v B C &.l u =.6X&.u 6X8X8X7X7X8X=.=.6X8X8X8X8X7X&.6X7X7XZ u 6X6X=.y C Z ",
"&.=.7X7X8X8X7X7X7X&.u l u &.8X7X6X7X7X8X8X8X8X6X=.7X7X7X8X8X7X&.U * 8.S.+X%X9X0X5X,XY.q.{ U @.&.6XZ C u u &.7X7X6X6X7X8X8X8X8X6X6X7X7X8X8X8X8X8X8X8X8X8X7X=.Z Z ",
"Z =.7X8X8X7X7X7X7X7X=.=.=.6X8X8X7X&.6X8X8X6X6X7X7X7X7X6X7X6X#.U  .8.h.L.%X3X5X0X4X3X,XS.s. .Q O.7X7X=.Z =.6X8X8X7X&.6X8X8X6X6X7X7X7X6X6X7X7X7X7X8X7X7X8X8X7XZ Z ",
"u Z 8X7X6X7X7X8X8X8X8X8X8X8X8X8X7XC &.6X&.&.C 8X8X=.=.&.u t U % 8.x.H. X%X3X3X3X4X2X=XOXD.r.+ M 6X8X8X-.7X8X8X8X7XZ &.6X=.C C 8X8X=.=.&.l &.=.=.Z Z &.7X8X7XZ C ",
"Z Z =.7X7X8X7X=.7X7X8X8X8X8X8X6X=.=.&.&.Z &.7X8X7X&.&.y N D * 8.S.L. X@X2X3X3X3X2X2X:X$XI.y.* n =.&.B M V 7X7X6X=.&.&.C &.&.7X8X8Xu &.=.=.=.=.&.u C =.7X7X7XZ C ",
"C Z 7X7X7X7X=.=.=.=.=.=.7X8X7X=.=.6X=.&.=.6X8X8X7Xu u t v = 0.k.L.XX@X%X2X3X<X<X&X*X=X@XI.y.O n C N Q } Q *.7X=.=.6X=.&.=.7X7X8X6Xu &.&.&.&.u l u u 6X6X6X6XZ u ",
"u =.8X7X=.u &.6X7X6X&.l 6X8X6X7X7X8X8X7X8X8X7X8X7X&.y n . 6.Z.G.R..XoX%X2X3X<X%X&X&X&X XS.t.+ m N Q 4 6. .T *.7X7X8X7X7X8X8X8X8X7X&.u u l u u u u Z 7X6X6X6XZ u ",
"u =.7X6XZ y u Z 8X8X8X7X7X7X=.7X8X8X8X8X8X8X7X8X7X7X&.q . 6.Z.G. XoXoX&X2X%X%X&X@X@XXXR.H.h.< o b X.g.P.g...M B 6X8X8X8X8X8X7X8X8X7X&.u u u Z Z Z Z 6X6X8X7X6Xu ",
"C =.7X7X6X=.u Z 8X8X8X7X8X7X6X8X8X8X8X8X8X6X=.7X8X8X=.M o 5.C.G.R.oX&X&X$X#X%X&X#XXXR.V.B.v.0.2 4 g.U.,XP.s.O M =.7X8X8X7X7X-.7X8X8X6X&.&.6X7X7X7X8X6X6X6X8X6XZ ",
"C Z 8X8X8X8X8X7X8X7X=.&.6X8X8X8X8X7X7X7X7X=.u 7X8X8X7X#.H 3 i.M.|.oX#X#X#X#X#X#X@X XR.V.m.m.z.j.Z.Y.<X3X>XZ.- K C 6X7X7X7X&.Z 6X8X8X8X7X8X8X8X8X8X8X8X7X=.6Xu u ",
"u C 7X8X7XZ 7X8X7X6X6XZ 7X8X8X8X6X=.&.=.7X8X7X=.=.8X8X*.A 5.y.S.|.oX#X#X&X#X#X#X@X XR.V.m.c.v.n.J.$X2X2XY.C.& v y =.=.Z 7X8X7X=.=.8X8X8X8X8X8X8X8X7XZ 6X7XZ u y ",
"u Z 7X8X7XZ 6X7X7X6X&.&.=.8X7X6X=.6X=.=.7X8X6XZ =.7X-.+.J 7.j.M.|.XX@X#X#X#X#X$X@XXXR.V.m.m.H. X#X*X*X@XI.d.% v y =.=.=.8X8X6X=.6X8X8X8X8X6X7X7X8X7X6X7X8X6Xu u ",
"C Z 8X8X7XZ Z 7X8X6Xl &.Z &.u =.=.7X8X8X7Xu u 7X7X&.+.K  .s.A.M.V.|. XXX#X#X*X&X@X XR.V.B.K. X#X*X:X#X XS.r.% c y 7X8X8X6XZ u 7X7X6X8X8X8XZ Z 7X7X8X8X8X8X7XZ Z ",
"u Z 7X7X7XZ 6X7X6X7X=.u =.7X=.6X7X7X7X-.Z 7X7X7XC M { 9 s.M.V.M.B.B.V. XXX#X&X%X#XR.R.K.R.R.#X%X*X&XoXK.S.9.% v C 7X7XZ 6X6X6X7X6X&.7X8X8X6X=.7X8X8X7X=.6X8X7XZ ",
"u u 6X7X6X6X7X7X=.7X7XZ 7X8X8X7X7X7X=.Z 7X7X8XZ M o 3 y.G.K.V.M.v.M.V.R.XX@X*X&X#XOXR.R.R.#X#X&X#X.X|.V.S.r.& m C 7XZ N V *.-.Z C Z 7X7X8X7X6X7X8X7X6XC l 7X6Xu ",
"u Z 6XZ 7X8X8X8X8X8X8X8X&.=.8X7X-.7X7X7X7X=.C n o - 6.A.H.R.T.m.c.c.B.R.XX#X*X*X#XR.R.R.R.OX@X@X X.XR.B.S.y.& Q Z 7X#.v   b n t C =.-.7X8X7X7X8X7X6X6X6X7X8X=.y ",
"u u u u 6X7X7X7X8X8X8X6X=.=.8X8X8X8X7X7X7XZ M O 2 3.t.k.H.R.V.M.m.m.V.R. X#X*X#X#XR.R.R.R.R.R.R.R.K.B.v.C.q.% +.-.Z ~ 4 5.3 * v B 7X-.&.=.=.6X8X8X7X6X6X8X8Xu r ",
"u u u u u 7X6X6X8X8X7Xu =.6X8X8X7X7X=.Z -.+.P 7.r.i.t.h.k.V.V.M.m.M.V.R. XXX#X&X@XXXR.V.V.V.V.V.V.M.c.s.0.4 H O.V ! X.y.F.p.6.} T =.=.Z &.&.=.7X8X8X6X7X8X8Xu y ",
"Z u u Z l u 6X6X7X8X7X7X=.6X7X=.Z &.C B N P o.k.A.j.t.q.h.M.M.v.m.M.V.R.|. X@X#X#XXXR.K.V.V.V.V.M.x.t.3 L I O.q c  .g.I.,X`.G.a.} M C -.6X8X7X=.C Z 8X8X8X6X=.Z ",
"Z Z Z Z 6X6X=.6X6X6X7X6X6X6X6X6X6X-.C N J 5 k.H.M.v.u.e.h.m.N.c.v.M.V.V.T.V. X@X@XXXR.V.T.V.V.V.M.j.t.2 D t t D & f.U.3X4X2XOXS.8.O T &.7X7X8X7XC C 8X7XZ Z Z Z ",
"u Z 6X7X7X7X6X6X=.Z Z 7X7X6X=.7X8X8XZ +.& 6.F.H.V.M.z.h.c.b.m.c.m.V.V.T.V.V.K. XXX XR.V.V.V.M.M.v.S.j.o.~ O.Y L q.Y.1X4X9X=X@XY.p.$ U C 6X7X7X8XZ Z 7XZ u Z Z u ",
"r u 7X7X-.7X7X7X7X=.=.7X8X7X7X7X7X7X6XV X 3.Z.n.B.V.M.B.B.B.N.N.v.M.K.V.T.V.R.R.R.R.R.V.V.M.c.m.M.H.J.M.X.L + 8 k.OX2X=X=X&X XI.i.$ Q B 7XZ =.7X7X7X8X6X6X8XZ y ",
"y C =.=.=.6X=.Z 6X&.=.7X6X6X6X6X=.Z B m X 5.i.k.M.V.V.T.^.!.B.m.m.M.V.V.R.V.V.V.R.R.R.V.M.M.c.z.M.K.XXR.M.8.3 s.M.XXoX&X@X XH.j.3 O M y Z 7X7X7X8X7X=.&.=.8X6XZ ",
"Z Z C =.6X=.u u Z Z &.6X=.=.=.l C B v . # 5.u.k.M.V.V.|.].!.B.N.c.M.M.V.V.V.T.V.V.V.V.V.B.m.c.z.c.K.XXXXJ.i.y.x.R..X.X|.L.G.d.9 + v e y C 6X8X7X7X6XC u u =.Z Z ",
"u Z 7X8X7X6XZ C &.C Z =.7X8X8X7X&.m * 2.2.9.u.v.m.B.B.Q.V.!.Q.N.k.c.M.M.V.K.V.V.V.T.R.V.M.m.k.k.c.V.R.K.v.u.t.v.V.R.T.H.S.j.7.L T Z Z 7X7X-.7X7X7X7X6XZ Z 6XZ u ",
"u &.6X6X7X8X7X6X7X=.=.6X8X7X-.*.! } 8.i.y.u.z.z.h.h.c.N.!.].^.B.M.c.c.m.B.K.V.T.T.V.T.M.M.m.k.c.m.V.V.V.c.u.h.c.V.H.M.z.s.o.{ +.&.8X8X8X7X=.=.-.=.=.8X7X6X=.&.C ",
"u C C &.6X8X8X8X7X7X7X7X8X-.N A = a.S.L.).H.v.h.w.9.q.z.^.[.[.^.B.c.c.M.B.V.R.T.K.V.V.M.m.v.m.M.B.V.V.V.c.k.h.m.V.M.j.5.% H N 7X8X8X8X7X-.=.=.&.u u 7X8X7X=.&.Z ",
"u u u =.=.6X=.=.&.&.&.&.C B m * 6.k.H.XX@X XG.k.9.3.w.b.~.{.}.[.Q.N.c.m.M.K.R.R.V.V.v.v.k.m.M.M.V.R.V.V.M.m.c.M.M.x.u.2.o n =.7X8X8X8X8X7X&.&.=.y y =.8X8X&.u t ",
"y y C 6X=.C C l C l u C C t n + 5 d.H.OX&X@X XM.j.q.q.z.W.{.{.[.!.B.m.v.M.V.V.R.V.V.m.k.k.M.M.V.V.K.V.V.V.B.N.c.z.j.u.8.L U t C =.7X8X8X7X7X=.7X=.=.7X8X8Xu y r ",
"y C C Z =.u u u u u u u l u r n P 4 d.J. XXXXXR.J.M.v.c.N.!.^.^.!.Q.B.c.M.M.V.V.V.V.c.c.z.c.M.V.R.V.M.M.Q.!.N.z.s.h.h.g.o.L v e u 7X8X8X7X8X8X8X7X7X8X8X7Xu y u ",
"y y Z Z =.C u u u u &.y C &.C C +.H 4 j.v.K.XX@X@X XK.V.M.M.N.!.!.B.N.c.k.c.M.V.V.M.M.c.c.c.M.V.V.V.M.M.B.!.Q.z.h.h.m.V.M.q.4 D V 8X8X8X7X6X7X7XZ Z Z 7X7X7X&.C ",
"u C Z 6X7X7XC C C =.=.=.=.7X7X7X&.Y ( 8 0.k.H. X@X.XR.V.M.M.M.M.Q.Q.N.m.v.c.M.M.V.M.M.c.c.c.M.M.V.B.B.m.Q.Q.N.c.z.c.V.R.L.A.6.= Q V 7X7XZ 6X6X7Xu y y 6X8X7X=.Z ",
"Z C C 8X8X8X=.Z 6X7X8X8X7X=.-.=.;.j E ) 1 6.j.H.R.R.R.R.V.V.M.M.N.N.Q.Q.B.m.c.M.M.M.m.m.c.c.c.v.M.B.Q.Q.Q.B.N.M.M.V.T.R.K.v.y.5.& Q *.=.C 6X8X8X&.y u 7X8XC C C ",
"y C Z 7X8X8X8X7X&.&.7X8X=.&.;.%.j x s / 1 5.t.k.M.M.V.V.V.V.V.M.m.Q.!.Q.N.c.c.c.c.c.v.c.c.v.c.v.c.B.Q.!.m.N.M.M.V.K.K.V.V.B.B.S.u.8 ~ @.Z 7X8X8X6X6X7X8X7X=.C y ",
"y u Z Z 7X8X8X7XC z =.6X&.g z k s E ` | >.e.u.t.h.k.M.V.V.V.M.V.V.B.Q.B.B.c.c.c.c.c.c.c.k.c.m.m.N.B.Q.B.m.c.k.M.M.V.M.M.V.V.(.'.~.b.1 ~ V -.7X8X7X7X8X8X7X7X=.C ",
"C Z 6X8X8X8X7X7X8X=.=.=.k k k k $./ 1 0.z.b.b.e.q.h.c.M.M.M.M.V.V.B.m.m.c.c.c.c.c.c.c.c.c.m.N.B.!.Q.N.N.c.c.c.v.M.v.v.m.B.!.-X;X'.~.z.5 b V 7X=.=.=.=.7X7X7X=.&.",
"y Z 8X6X7X8X8X7X8X8X6X&.g x ' ] ) >.e.S.^.!.!.z.h.z.N.B.v.M.M.V.V.V.M.B.M.N.B.B.m.M.M.B.B.B.B.!.].!.Q.m.B.B.B.B.m.V.B.Q.B.B.B.-X'.~.b.,.A N =.7X7X7X7X7X7X7X7X&.",
"u =.7X&.=.8X7X7X8X8X=.g j d [ ( ,.e.~.'.;X'.!.N.N.N.Q.Q.M.m.M.V.V.M.M.M.B.!.B.B.B.B.Q.Q.!.!.^.].].^.!.Q.V.!.!.Q.B.]././.Q.b.i.S.n.E.l.<.R %.-.8X8X8X8X8X8X8X6XZ ",
"Z =.&.g &.6X=.=.7X&.y g f p ) 6 w.E./.;X[.^.!.!.^.!.!.Q.B.v.c.v.m.v.v.M.Q.Q.Q.B.c.N.B.^.].!.^.!.^.^.^.!.!.!.!.!.!.[.;X{.W.w.3.4.5.8 ) :.&.-.8X8X8X8X8XZ C 6X6XZ ",
"C &.=.=.&.&.&.=.=.&.&.&.y p ^ 1 w.W._._.(.n.v.n.n.B.n.v.x.j.j.u.j.j.i.j.v.n.n.j.i.x.n.n.B.n.n.n.n.n.n.n.n.n.n.v.B.(._.~.l.>.> # < ( ] %.=.=.7X7X6XZ 6XZ C Z Z C ",
"u =.8X6X=.=.=.=.&.&.=.7Xy f $.[ <.l.u.A.u.y.y.u.u.u.u.y.r.r.r.r.6.r.6.y.t.u.t.t.r.t.t.u.u.u.t.y.y.y.u.u.u.u.u.t.u.i.i.z.1.) G / G W %.&.&.-.7X7XZ C 6X6XZ u C Z ",
"Z =.6X8X8X8X7X7X=.&.&.&.y C -.%._ ( 6 2.2.: : : : 7 : : : : : : : : 7 7 : 7 7 7 : : : : 7 7 7 7 2 : : : : : : : : 2.2.7 ) ] %.j g %.=.7X8X8X8X8X8X8X8X8X8XZ Z Z ",
"Z =.7X8X8X7X7X7X8X7X=.=.=.6X8X6X%.F @ 1 > @ @ @ @ @ @ @ @ @ @ @ @ @ @ @ , @ @ ( @ @ @ @ @ + @ , @ @ @ @ @ @ @ ( > @ > @ / ' k z ;.=.=.7X7X7X7X7X8X7X7X8X8X7X6XZ ",
"C Z 7X7X7X6X7X7X8X8X8X8X8X8X8X7X&.p R / [ ^ _ _ R R ^ F F F F ^ F p F _ _ R R _ _ _ _ _ _ _ _ _ _ ` E _ [ _ _ _ _ F / _ d a j &.-.=.=.&.&.&.=.=.Z Z C 7X8X6XZ Z ",
"Z Z =.7X8X8X7X=.-.7X8X8X8X8X7X=.&.@.f s s j %.%.j a s s j s s a a a j j $.j %.j %.j j j k j j s j j %.%.%.%.%.j j f f s s j k -.=.&.&.=.=.&.&.&.C C Z 6X7X7XZ u ",
"C Z 6X7X7X7X=.=.=.=.=.=.7X8X7X-.=.=.=.z l l z ;.k h a j h a h a a s k k j j j k k k j k k j j h h j j j k k k x x k z l l l l 7X6Xl u &.=.l u u u u 6X6X6X6XZ u ",
"u Z 8X8X=.u &.=.7X6X&.&.6X7X7X7X7X7X6X6X8X6X;.;.x d a a a a a a a s j j j x j k x x k x h a a x j j s a x j x x x %.l 6X7X7X6X8X7X&.u l u l u u u C 6X7X6X6XZ C ",
"C =.8X6XZ u u &.8X8X7X7X7X7X=.7X8X8X8X8X8X7X=.l z k f i i f f f j f f f k k ;.%.g k g j f i i f z ;.;.k z k k k ;.=.6X8X8X8X7X8X8X7Xl u u u 6X=.Z 6X6X6X7X7X6XZ ",
"C Z 7X6X=.&.C 6X8X8X8X8X8X7X7X7X8X7X8X8X8X6X=.&.;.=.l g g z l &.&.&.=.&.l &.=.&.;.=.&.&.l g t u 6X;.=.&.=.=.l l =.6X7X8X8X6X=.7X8X8X6X&.l Z 7X7X7X7X7X6X6X8XZ Z ",
"u 6X8X8X8X8X8X7X8X6X=.&.7X8X8X8X8X7X7X7X7X&.l 7X7X7X7X7X7X8X7X8X7X8X7X6X=.=.=.7X6X6X7X7X8X7X7X7X7X6X&.Z =.7X8X7X7X7X6X7X7X&.C 7X7X8X8X8X8X8X8X8X8X8X8X6X6X6XZ u ",
"u u 6X8X7X=.7X8X7X7X=.&.6X8X8X7X6X6X&.=.8X8X7X&.6X8X8X8X8X7X7X8X8X7XZ 7X7X&.Z =.=.6X6X8X7X=.7X8X6X6X6XZ 6X8X8X8X6X=.=.&.7X8X7XZ 6X8X8X8X8X8X8X8X8X6X6X6X6XZ u y ",
"u u 7X8X7Xu 6X7X7X6X=.C 6X7X7X6X=.6X=.=.7X8X7X=.6X8X8X8X8X6X6X8X8X7X=.8X8X&.=.=.6X6X7X8X6Xu 7X7X7X6X6Xu 6X8X7X6X=.6X=.=.8X7X7XZ 6X7X8X8X8X6X7X8X8X6X6X7X8X6Xu y ",
"u 6X8X8X7X6XZ 6X8X6Xu Z Z &.Z Z =.7X8X8X7Xl u 7X7X6X8X8X8X=.Z 7X7X8X8X8X8X7X8X8X8X8X8X8X7X=.Z 7X8X6Xu u &.&.&.&.=.7X8X8X7XZ C 7X7X7X7X8X8X6XZ 7X7X8X8X8X8X6X6Xu ",
"u Z 8X6X6X=.6X6X6X7XZ C 6X7X=.=.6X7X6X=.Z 6X7X8X6X=.7X8X8X6X=.7X8X8X7XZ Z 8X8X8X7X7X7X7X6X=.6X6X6X6X=.u 6X7X=.Z 7X7X6XZ 7X7X7X7X6X=.7X8X8X6X6X7X8X8X7XZ 6X7X6X6X",
"u Z 6X6X6X6X8X7X=.7X7X&.6X8X8X7X7X8X=.Z 6X8X8X6X=.l 6X8X8X7X7X7X8X8XZ Z Z 8X8X8X7X=.=.7X6X7X7X7X6X7X7X=.6X8X8X7X7X8X=.Z =.8X7X=.u 6X6X8X8X7X6X7X8X7X7Xu u 8X6Xu ",
"u C Z Z 7X8X8X8X8X8X8X8XZ =.8X7X6X8X8X6X7X6X=.u Z 6X6X7X8X7X7X8X7X6XZ 6X7X8X6X=.=.=.=.=.7X8X8X8X8X8X8X8X=.=.8X7X6X8X8X6X7X=.=.u u 6X6X7X8X7X7X8X6X6X6X6X8X8Xu y ",
"u u Z Z =.7X7X8X8X8X8X7XZ =.8X8X8X8X7X7X7X7X6Xu 6X7XZ =.6X=.6X7X8X8X6X6X8X8X=.u 7X=.C C =.7X7X7X8X8X7X7XZ Z 8X8X8X8X7X7X8X7X=.Z 6X7X=.=.=.=.6X8X8X7X6X7X8X8Xu r ",
"u u u u Z Z 6X6X8X8X6XZ 6X6X8X8X7X7X6X7X8X8X7XZ 6X7X6X=.Z =.6X7X8X8X6X7X8X8X=.&.7X=.C C &.=.=.7X8X8X7XZ 6X6X8X8X8X6X7X7X8X8X6XZ 7X7X6X=.Z Z =.7X8X8X6X8X8X7Xu y ",
"Z C u u Z Z Z 6X6X8X6X6XZ 6X7X=.&.&.Z Z 8X8X7X7X7X8X8X7X6X7X7X6Xu Z 8X8X8X7X7X8X8XZ y C C &.=.7X7X8X6X6X6X6X8XZ &.&.&.=.8X8X8X6X7X7X8X7X6X8X8X6Xu Z 8X8X8X6X6Xu ",
"y u u u u u Z Z Z u Z Z Z Z Z Z C C Z &.l 6X=.6X=.=.7X6X=.7X=.l y y =.Z u u =.6X=.C u C &.C C C u u u Z Z Z Z Z &.C &.&.=.=.=.6X6X6X6X6X&.6X=.=.u y Z Z u u u u ",
"r r u u Z Z u y y y y u C u u u =.C =.Z y u u =.u u u u u u u Z y y u y r y y C C u y u C C C y u y u u u u y u Z Z Z Z y y u &.u u u u u u u &.y y u y r y r r "
};
