/* XPM */
static char *Group_9_4__resized[] = {
/* columns rows colors chars-per-pixel */
"80 80 227 2 ",
"   c #382B1E",
".  c #2F3E19",
"X  c #353D1D",
"o  c #3E3926",
"O  c #44322D",
"+  c #423C2C",
"@  c #482831",
"#  c #4B3233",
"$  c #453833",
"%  c #4C3C34",
"&  c #4F3539",
"*  c #4C3C3A",
"=  c #513937",
"-  c #533C3C",
";  c #2E4B17",
":  c #34431C",
">  c #38471E",
",  c #354C1D",
"<  c #394C1E",
"1  c #35571B",
"2  c #39511E",
"3  c #3B5B1E",
"4  c #37631B",
"5  c #3B641D",
"6  c #3D6D1E",
"7  c #3F711F",
"8  c #3B4423",
"9  c #3B4227",
"0  c #3C4C23",
"q  c #3D4B2B",
"w  c #3C5323",
"e  c #365C22",
"r  c #3D5C22",
"t  c #3A552D",
"y  c #375A2A",
"u  c #3B5C2D",
"i  c #3E4832",
"p  c #3E5432",
"a  c #3F5C30",
"s  c #3B6423",
"d  c #3E6B23",
"f  c #3D642C",
"g  c #3F692C",
"h  c #3F7220",
"j  c #3F6130",
"k  c #3F6930",
"l  c #40671F",
"z  c #406C1F",
"x  c #41751F",
"c  c #43781F",
"v  c #45462B",
"b  c #43432D",
"n  c #444C2C",
"m  c #415C24",
"M  c #455629",
"N  c #46542D",
"B  c #435C2C",
"V  c #424532",
"C  c #4C4434",
"Z  c #434932",
"A  c #4B4B34",
"S  c #4C483B",
"D  c #514D36",
"F  c #53423C",
"G  c #59473E",
"H  c #534A3D",
"J  c #435336",
"K  c #4B5133",
"L  c #435937",
"P  c #54543A",
"I  c #416423",
"U  c #416D24",
"Y  c #41642D",
"T  c #416C2D",
"R  c #417520",
"E  c #457C21",
"W  c #487E23",
"Q  c #427029",
"!  c #416532",
"~  c #416A31",
"^  c #563B42",
"/  c #5B3C43",
"(  c #623F43",
")  c #4C4B42",
"_  c #5B4345",
"`  c #564B42",
"'  c #5C4C44",
"]  c #5C4748",
"[  c #5C4C4B",
"{  c #4C5047",
"}  c #5A5547",
"|  c #5A5457",
" . c #634549",
".. c #624C4C",
"X. c #66574A",
"o. c #63524D",
"O. c #654E51",
"+. c #6B4E53",
"@. c #714F54",
"#. c #645354",
"$. c #695453",
"%. c #645A51",
"&. c #6A5957",
"*. c #645559",
"=. c #665A5B",
"-. c #6A5D5B",
";. c #745756",
":. c #725B5B",
">. c #6A6254",
",. c #67665C",
"<. c #6C625D",
"1. c #72625C",
"2. c #7A6659",
"3. c #5A5A62",
"4. c #665B62",
"5. c #6B6562",
"6. c #666864",
"7. c #6D6B65",
"8. c #6B6468",
"9. c #6D6B6B",
"0. c #716562",
"q. c #736A64",
"w. c #7A6A64",
"e. c #786A67",
"r. c #6E736B",
"t. c #747166",
"y. c #797466",
"u. c #74736A",
"i. c #7B746B",
"p. c #74796E",
"a. c #7A7B6D",
"s. c #6A6B76",
"d. c #716E71",
"f. c #6D7474",
"g. c #727373",
"h. c #757C71",
"j. c #7B7F73",
"k. c #73757A",
"l. c #747C7B",
"z. c #805F5E",
"x. c #876A64",
"c. c #88746A",
"v. c #84796E",
"b. c #91796B",
"n. c #857572",
"m. c #857D72",
"M. c #8A7D75",
"N. c #987B71",
"B. c #478022",
"V. c #498423",
"C. c #4C8924",
"Z. c #77806F",
"A. c #768274",
"S. c #7A8474",
"D. c #7C8976",
"F. c #76837B",
"G. c #798579",
"H. c #7D8B7A",
"J. c #7F917D",
"K. c #848475",
"L. c #8A8175",
"P. c #878678",
"I. c #838B7B",
"U. c #8D8A7A",
"Y. c #9B8375",
"T. c #928A7D",
"R. c #83937D",
"E. c #8B947E",
"W. c #92927E",
"Q. c #9C917E",
"!. c #A18674",
"~. c #A8907C",
"^. c #B0977F",
"/. c #6E7484",
"(. c #757D85",
"). c #747E91",
"_. c #768483",
"`. c #798684",
"'. c #7B8C83",
"]. c #76858C",
"[. c #7A8C8A",
"{. c #7F9382",
"}. c #7C928C",
"|. c #788A96",
" X c #7C9397",
".X c #778DA3",
"XX c #7C96A7",
"oX c #7FA1AD",
"OX c #948C80",
"+X c #869684",
"@X c #899682",
"#X c #869982",
"$X c #8B9B84",
"%X c #969785",
"&X c #9C9D89",
"*X c #829D9D",
"=X c #AB9583",
"-X c #B39C84",
";X c #8CA389",
":X c #95A086",
">X c #93A48B",
",X c #9CA48C",
"<X c #94A98E",
"1X c #9AA98F",
"2X c #9FA790",
"3X c #9BAB91",
"4X c #9BB194",
"5X c #A4A58D",
"6X c #BCA88D",
"7X c #A0A690",
"8X c #A3AC93",
"9X c #B1AF92",
"0X c #A3B195",
"qX c #A7B899",
"wX c #B8B899",
"eX c #809DA5",
"rX c #809EB2",
"tX c #81A2AB",
"yX c #82A6B4",
"uX c #C0AB90",
"iX c #C7B998",
"pX c #AAC39E",
"aX c #B2C19E",
"sX c #B7C6A2",
"dX c #C9C39E",
"fX c #C9CAA3",
"gX c #CCD3A8",
/* pixels */
"; 4 7 7 7 7 7 7 7 7 6 c 7 c c 7 7 c c c 7 6 7 B.c 7 c c 7 6 6 7 7 7 c 7 7 c c 6 4 6 7 6 6 7 7 7 7 7 7 7 R c c c 7 7 c 7 7 6 7 c R c c c 6 6 6 7 7 7 c 7 x c 6 1 ",
"6 6 7 7 c R 7 7 7 7 7 c c c c 7 7 h 7 7 7 7 7 E 7 7 7 7 h R E E E E 7 7 7 c B.E R c 7 c c c 7 7 7 7 7 c R R 7 7 7 c 7 7 7 7 7 c R 6 7 7 7 R E R c E 7 7 x c x 6 ",
"c c c c B.E x 6 7 c c B.E E E c h E h 7 7 E E h h 7 7 7 h B.C.C.C.B.7 7 7 E C.C.C.B.R E B.E 7 7 7 7 c B.E E E h E E 7 7 7 R B.7 c 7 6 6 R V.C.C.C.B.c 6 x E c c ",
"x c V.C.V.B.R c c c c B.V.V.C.C.V.V.h 7 c V.V.V.V.B.V.V.V.B.B.V.V.V.V.c c B.B.B.B.V.V.C.V.B.c 7 c c c B.V.C.C.C.V.V.7 7 B.V.C.C.E V.V.V.V.E B.C.V.V.V.R c V.c 6 ",
"7 c c V.V.C.V.E B.E E V.C.C.C.V.V.V.B.B.C.C.C.C.V.C.C.C.V.B.B.B.E E C.B.E B.B.V.B.B.B.B.C.C.V.B.C.c E B.C.C.C.V.V.V.V.V.V.C.C.C.C.V.C.C.C.W E E E E V.V.E E E x ",
"x x c c V.C.C.C.V.V.V.V.C.C.E E B.C.C.C.C.C.C.C.C.C.C.C.B.E R E h h B.C.V.E B.C.V.E 7 R B.C.C.C.V.C.V.V.C.C.E E V.C.C.C.C.C.C.C.C.C.C.C.V.E R E 6 c V.C.V.E c R ",
"6 6 x c c E E E E h R R R E V.V.C.V.B.E R B.B.B.V.C.C.C.V.c 7 R 6 7 B.C.C.B.c R B.c 7 E E E B.E c R R E c E V.V.V.V.B.h E B.V.V.C.C.C.C.V.c c R 7 7 V.C.C.E 7 4 ",
"6 6 x B.W x c x 7 7 7 h 7 h E V.V.B.E R E R R c B.V.C.C.C.B.V.B.E R V.C.C.R 7 7 E R c B.E 7 7 7 7 7 7 7 7 7 E V.V.B.B.h E h E 7 E V.C.C.V.V.V.V.R c V.C.V.R 6 4 ",
"7 7 7 B.B.7 7 7 7 h 7 7 7 7 6 h V.B.V.C.C.c c 7 c C.C.C.C.C.C.C.V.B.C.C.B.h h R E E R B.E 7 7 7 7 7 7 7 h h h h V.B.V.C.C.B.7 7 R C.C.C.C.C.C.C.V.C.C.C.V.7 6 6 ",
"7 7 7 B.B.h 7 7 7 7 7 7 E E h V.V.B.C.C.C.V.E V.C.C.C.C.V.V.C.V.E c R B.C.B.C.C.E R c E E R 7 7 7 h 7 7 h B.h V.V.V.C.C.C.V.B.V.C.C.C.C.V.V.V.V.R R R B.C.B.c c ",
"7 7 7 V.B.B.h 7 R E E R B.B.C.C.C.V.C.C.C.V.V.C.C.C.C.C.c B.V.V.h 6 h E C.V.C.C.V.R c E V.V.7 7 h B.B.7 B.B.V.V.C.V.V.C.C.V.V.C.C.C.C.V.E E V.V.h 6 6 B.C.B.E c ",
"c 7 h C.C.C.B.E V.C.C.C.V.V.C.C.C.B.C.C.B.B.C.E c C.C.B.c B.C.C.R 6 7 V.C.R R C.C.E c C.C.C.B.E B.C.C.C.V.V.C.C.C.B.C.C.E B.V.B.V.C.C.V.c E C.C.R 6 7 B.C.R 7 c ",
"7 7 7 B.C.C.C.B.h h V.C.B.V.C.V.E V.C.V.V.C.C.V.C.C.C.C.V.C.C.C.C.E C.C.C.R E B.B.R R B.C.C.C.B.7 B.V.C.B.B.C.B.B.C.C.V.V.C.C.V.V.C.C.C.V.C.C.C.V.E V.C.V.E c 7 ",
"6 7 c B.V.C.C.V.7 7 B.C.B.h V.B.E V.V.E C.C.C.V.V.C.C.C.C.C.C.C.C.C.C.C.V.B.V.V.E E E E V.C.C.V.7 7 B.C.B.E V.B.E V.B.B.C.C.C.B.B.C.C.C.C.C.C.C.C.C.C.C.V.V.R x ",
"7 c B.C.C.C.V.V.C.V.B.V.V.B.V.V.C.V.c z E V.C.R x E V.V.C.C.C.B.R E B.E E V.C.C.V.B.V.V.C.C.V.V.C.B.B.V.B.B.V.C.V.V.h 7 B.V.C.h c E C.C.C.C.C.E E E B.E E V.E c ",
"7 B.C.B.C.C.V.V.C.C.V.B.V.V.V.C.C.E 7 6 R E E x x c W E c c B.C.B.B.V.C.C.C.C.C.V.V.C.B.V.C.C.V.C.V.V.V.V.V.V.C.C.c 7 7 h B.B.h R R R E R E V.B.C.B.B.C.C.C.B.c ",
"7 c V.c c C.V.V.C.C.B.E E B.C.C.C.R c c c R R R R E E R R B.B.C.C.C.C.C.C.C.C.C.B.V.C.R E C.C.V.V.C.V.B.B.V.C.C.C.E 7 c 7 7 c E R E E R R E V.C.C.C.C.V.C.C.B.c ",
"c c c 7 c B.E B.V.R 7 7 7 R V.C.C.C.V.c E V.C.C.C.C.C.C.C.C.C.C.C.C.C.E c V.C.C.C.V.R 7 h E E B.V.h 7 7 7 h V.C.C.V.B.B.V.V.C.C.C.C.C.C.C.C.C.C.C.C.C.c R V.E c ",
"x c B.c c c c E E R c E 7 7 B.C.C.C.V.V.E E V.C.C.C.C.V.B.V.C.C.E E B.E c c V.C.V.B.B.7 R R R E B.h h B.7 7 B.C.C.C.V.B.E B.V.C.C.C.C.V.V.V.V.C.B.c V.c x R c c ",
"7 c C.B.E R E E R R E V.R 7 B.C.C.V.V.V.E E B.C.C.C.C.V.c E B.V.c c E B.R 7 c C.V.V.C.B.B.E E R h h E V.7 7 B.C.C.V.C.V.E E B.V.C.C.C.V.c E V.V.c 7 B.B.E 6 x c ",
"R E B.C.C.C.V.B.W c 7 7 z c C.C.B.V.V.C.C.C.C.B.B.V.V.C.C.C.C.C.C.C.C.C.V.B.V.C.C.V.V.C.C.C.B.B.V.h 7 7 7 h C.V.V.B.V.C.C.C.C.B.B.V.C.C.C.C.C.C.C.C.C.C.C.E E c ",
"c E V.C.C.V.V.C.C.V.E E c c C.C.V.R E C.V.V.B.V.V.V.B.B.V.V.V.C.V.V.V.C.C.B.V.C.V.V.V.C.C.C.V.C.C.V.B.E E V.C.C.V.R B.C.V.V.B.V.V.V.E B.V.B.V.C.V.C.V.C.C.V.c c ",
"7 c C.V.B.V.V.C.C.C.C.C.C.C.C.C.V.c E B.E R c C.C.B.B.R h R E E E R c V.C.V.V.C.V.V.V.V.B.B.V.C.C.C.C.C.C.C.C.C.V.7 E B.E 7 7 C.C.E E E h R E E c c c V.C.V.c c ",
"c c E B.C.C.B.E V.C.C.C.C.C.C.W E R R 7 c R B.C.V.h R E E R R E 7 x E W B.V.B.V.C.V.c V.C.C.B.B.V.V.C.C.C.C.C.B.E E R R 7 E V.C.C.h R R E E E R c 7 E B.V.W c x ",
"c c V.V.V.B.B.E E B.E E V.C.V.W E B.E R E V.V.C.V.7 R R R R h 7 6 R B.B.B.B.B.V.V.V.B.V.V.B.B.E E W E E V.C.C.E E V.E R B.B.C.C.V.6 R R E R 7 7 7 7 B.B.B.B.c 7 ",
"7 c C.V.B.7 h B.V.E h h W C.V.W C.C.V.V.C.C.C.C.V.R x 7 7 7 7 h 6 R B.V.B.B.V.V.B.V.C.C.E 7 7 B.V.W R h E C.B.B.V.C.V.B.C.C.C.C.V.E R 6 7 7 7 7 7 c V.V.B.B.c 7 ",
"7 E V.B.7 7 7 R C.C.C.C.C.V.W C.C.C.C.C.C.C.V.V.V.C.R 6 7 7 c R E E E V.V.C.V.C.V.V.V.B.c 7 7 R C.C.V.V.C.V.E C.C.C.C.C.C.C.V.C.V.V.c 6 6 h R E R E c V.V.V.B.c ",
"c E V.V.B.E 7 c C.C.C.B.E x z R V.V.V.C.V.V.B.V.C.C.B.R c B.B.V.V.V.V.B.V.V.V.C.V.V.V.V.E R 7 B.C.C.C.V.V.C.B.C.C.C.C.C.C.B.E V.C.C.E c R E V.V.V.V.V.B.B.C.c c ",
"7 c V.C.C.C.V.C.C.W R 6 3 w w 3 6 E V.V.E E c E C.C.C.C.C.C.C.C.C.C.C.V.E B.V.V.V.V.V.C.C.C.C.V.C.V.E R B.C.C.C.C.V.V.V.B.E R B.C.C.C.C.C.C.C.C.C.C.C.V.E B.c 7 ",
"6 c B.C.V.E V.C.B.B.h 1 v $ % % w d c c V.C.V.c E C.C.C.C.B.V.C.C.V.c V.V.R c c B.c B.C.V.c V.C.V.B.E R V.C.C.C.B.E E R V.C.C.c W C.C.C.C.V.C.C.C.V.c V.V.c 7 6 ",
"7 c V.C.B.c B.V.B.R U N H +.;. .D m 5 c V.C.V.E B.C.C.C.C.B.B.V.V.c 6 z U 6 7 E B.B.B.C.B.c B.C.C.B.E R E V.V.B.E E E E W E R 5 z W C.C.C.B.V.V.C.V.B.V.C.E 7 7 ",
"c E C.C.V.c c E R r n } w.Q.=XN.2.D m z E c 7 V.C.E C.C.C.R E V.E z 2 8 8 < 6 V.V.C.C.C.V.E R B.C.E R R c c c c E V.C.V.z < X 8 < 5 V.C.C.c c V.V.C.C.C.C.C.c c ",
"x c V.V.V.E W c 3 b ` q.%X9XiX6X!.;.D 2 z c V.C.W c V.C.C.W c V.R M C _ G C M z W V.V.V.V.c c V.V.V.c x B.V.B.B.B.V.B.x w V - _ C n z V.C.V.c C.C.C.V.c R C.V.c ",
"6 c V.E W W C.R < $ O.M.2XsXgXdXuX!.;.v M R V.c c c V.C.C.V.c c I P $.x.x.$.P m U R c V.E V.C.V.E V.V.c B.C.V.V.B.B.z m K X.:.w.&.S B U W E V.C.C.V.E c c C.B.7 ",
"6 c c E V.C.C.E w % +.M.,XqXsXfXiXuX!.;.D m 4 6 c V.C.V.C.c l 3 P >.L.=X^.!.z.P w 5 x R V.C.C.C.C.C.C.V.R E C.C.c z m A >.m.OX%XK.<.` n l R C.C.C.c E V.V.C.R 6 ",
"6 x c c E V.V.R m v ] q.H.>X3XqXiXdXuX!.@.b , 5 c V.c c c z 2 % %.m.5XwXdXuX!.2.+ , 5 7 E C.W E E V.V.B.c c C.C.B.3 n ..n.=X0X7XI.r...C > 5 c C.C.C.c V.C.C.7 4 ",
"7 7 6 x R E E c U m C [ 7.D.@X3XwXgXiX~.;.- > z V.V.W c c 3 8 # :.OX0XsXgXiX^.z.O X 4 6 R E 6 5 l R E c E V.C.C.E 0 * ;.T.8XqX3XI.,.' A < 6 E V.C.C.V.V.C.V.c 6 ",
"c x 6 c 7 c B.B.W c m v o.e.I.>XpXaXwXY.@.$ , x C.C.C.C.c z n = :.P.<XpXaX9X!.;.O : 4 c R h 1 0 8 r c c E W V.B.z > % ;.U.>X>X+Xq.H N I x V.V.E c c C.C.C.V.R c ",
"c c c E B.E E B.E E d r A [ 5.I.<XqX8XT.w.G 0 5 E V.C.C.W c m v [ 5.S.>XqX8XOXw.C 8 3 x 7 d B P ' D I c V.V.c B.R 3 v ' t.K.G.0.` n I c W V.V.V.x x C.V.c c c R ",
"6 c B.V.V.V.V.E E E R 6 w v ` 7.I.>X1X%XL.>.D M l c W V.V.c x I N H ,.K.&X8X5XU.>.A w m 5 m X.2.x.X.D l c W B.V.V.U I L } <.<.` n 5 c V.V.V.V.V.c c V.c x c c 7 ",
"4 x V.W W V.V.V.V.E E E R m v o.i.I.>X4X2XU.1.F 8 5 V.C.V.c c c s n _ e.%XqXwX8XK.>.F o o * 2.!.^.b.X.> s E V.C.V.V.E U D ] [ N I W C.C.V.W E V.V.V.C.V.W C.c 6 ",
"6 x E E E B.E E E R E C.E I < A [ ,.D.<X0X2XT.:.H M 5 5 5 z z x 1 0 F 1.T.0XaXaX&Xm.*.& @ / x.-XiX^.b.G N I R E c W 7 5 8 b n I x c c c c W V.V.C.V.E R E C.E x ",
"c c c E B.E 7 6 x c E B.B.c 5 0 9 S 5.U.>X0X7XT.1.A : X : < m m M n [ q.I.1XqXaXqX%Xm.O.^ / x.-XdXiX^.b.X.n 3 6 c R 3 8 : < 5 U c x z z 6 c C.C.V.B.7 6 x E E c ",
"7 c V.C.V.E c c R x c E V.C.V.R m b } t.I.<X0X7XU.>.- # % = % F G | 7.h.J.$X1X0X0X3X+X7.[ / -.T.iXfXdX^.x.' 0 6 R r v C 0 s V.V.B.c V.V.V.W V.V.B.B.E c c E c 6 ",
"6 c B.W V.C.V.B.E E E B.C.C.C.c 6 o - -.u.#X4X4X:XL.:.@.$.O.o.#.<.u.F.H.H.H.E.,X2X3X;XZ.| } <.D.0XfXfX6XN.+.  > I B } o.K s x s l x V.C.V.B.R U 5 r m 5 6 E R x ",
"7 7 c x B.C.C.V.V.V.V.B.C.C.W c 5 v - &.7.H.;X<X1X&XT.L.m.y.u.a.G.'.}.'.F.A.H.#X>X<X;XD.u.5.7.D.,XaXaX9XN. .@   v } ,.t.} N < 8 > 3 c C.V.E z 3 8 o o v 3 R R c ",
"6 6 7 x x 7 7 x x x R R c c V.E l + _ #.7.h.H.#X$X7X8X3X$XI.H.J.'.'.[._.F.h.A.H.J.R.R.H.A.p.h.G.E.4X9X%Xc.] # & ] ,.S.D.7.%. ...G N I c V.c s 0 H ..$.G N 3 4 6 ",
"6 7 7 6 3 0 > 2 5 6 h R 6 6 c x 3 + - O.7.p.A.G.+X<X4X4X<X#XH.A.g.f.f.l.F.F.F.A.S.D.H.H.S.A.h.A.H.$X>XE.t.#. .#.8.g.h.p.u.x.x.N.b.>.K I 5 2 q K <.n.M.c.>.K < ; ",
"6 x z 3 9 # O + < 5 h d d s 4 s y + - +.5.p.A.h.D.@X>X<X<X{.A.6.*.| =.s._.[.'.A.p.p.S.h.h.h.h.h.A.J.#XR.y.,.7.l.l.f.8.5.i.T.5XuX6Xc.P v . o A | Z.$X8X&Xv.o.v . ",
"4 4 r K } ;.;.[ n 1 4 1 y p u p J S [ <.t.h.h.h.A.D.J.J.J.D.a.e.:.:.-.9.k._._.(.l.h.h.p.h.h.p.p.Z.D.J.{.'.H.'.[._.g.8.q.P.,XwXfX6X~.x. .F G %.7.I.>X0X=XM.$.b X ",
"1 w A %.v.OXT.t.{ 9 8 8 o i i S { | 9.k.h.h.h.p.h.A.A.h.r.y.v.N.Y.N.v.i.9.f./.].].`.h.p.p.p.p.p.h.G.'.}.tXXX X].l.g.n.L.%X1XqXwX9XQ.n.0.:.e.u.i.i.K.OXK.1.} n 1 ",
": v ..v.&X8X1XH.,.H $ O ^ & O ^ | s.F.'.F.h.u.h.h.A.p.6.=.1.M.6XuXwX5XK.8.4./..XoX XF.p.p.h.p.p.A.G.}.*XyXoX.Xs.5.e.T.,X1X;X$XE.I.j.i.h.S.D.S.q.&.+.;.o.P w 5 7 ",
"; + ' x.%X7X$XK.y.1.>.$.| #...#.8.g.F.F.u.7.7.7.t.p.t.6.*.<.b.=XwXwX8XW.a.e.(.eXrX].k.5.5.7.7.7.9.r.l.].XX.X).s.>.x.W.,X>X#XD.p.r.6.7.u.D.D.p.| F b C v M 6 z 7 ",
"1 2 K >.i.M.i.e.v.U.T.U.h.t.y.u.u.u.9.5.4.&.&.-.5.7.r.7.6.1.e.b.Q.5X1X:XW.U.+XeX X(.7.=.*.=.-.=.=.5.8.s././.s.8.<.y.P.@XE.H.A.6.4.*.&.<.2.1.>.K w 2 < 3 5 E c x ",
"6 x l N H  .^ ] w.T.,X1XE.I.J.H.h.0.*.#.*.#.#.*.=.7.p.l.p.r.5.-.1.p.R.:X1X7X3X$XH.u.<.| O.*.#.*.*.*.*.*.*.=.5.9.p.h.A.j.S.p.r.6.| [ _ _ ] _ F w s R R c E W c c ",
"7 c c l v b O F -.m.W.W.I.Z.Z.a.l.l.s.s.s.9.8.8.f.l.'.H.H.h.7.=.,.r.H.$X3X3X1X;XJ.h.t.5.7.7.7.7.7.7.7.<.-.-.5.h.'.}.}.].l.7.&.#.[ ^ ^ * * * V s R V.V.V.C.C.V.c ",
"7 E V.6 1 w t J } <.5.0.:.&.X.<.s.).|..X]._.l._.`.[.[.'.H.h.r.9.9.r.A.H.+X@X$X$XR.J.D.Z.Z.D.S.S.S.S.A.p.t.7.u.G.}.tXrX.Xk.4./ ( _ * Z i p i a U B.C.C.C.C.C.B.7 ",
"c c c d h R h j J S ^ ^ - & # ^ 3.).XXrX X`.`.[.[.[.[.F.k.r.t.t.r.r.u.t.u.p.j.A.H.I.H.I.H.H.H.I.H.I.I.S.p.u.p.l.}.XXrX.Xs.[ # & & S a ! Q ~ T E B.C.C.B.c V.B.c ",
"7 c B.R R R h d t i o ^ $ o + V { /.).+Xk.g.d.g.k.g.d.9.5.-.-.5.<.<.-.&.=.&.-.q.e.u.t.y.y.u.y.u.p.y.i.t.1.,.5.9.g.(.)./.3.) $ C S p ! k T h E V.B.c B.c 7 c c c ",
"7 c C.B.E E W h s t p p p q y J ) | 4.4.&.*.#.#.#.#.#.......] [ ......] ]  .[ ..o.o.#.#.X.#.X.#.X.#.X.#...o.....#.4.4.*.{ J t N a a ! g d R W V.c 7 c B.B.7 7 c ",
"c E B.C.C.C.V.W E d y y y s g k p V * - * ^ C & * & * * ^ ^ V ^ * * C * * * * * * & * & * & * * * * * * * * * * * & & C J Y Q g f g g U E V.C.C.C.C.C.C.C.B.c c ",
"c E V.V.C.V.V.C.V.W h d f j k k u q 9 + i o i V V V b i o i i i V V V Z Z V n Z V i i i i i i V V V 9 i V Z Z Z V + 9 i t f g k g g d h E V.V.C.C.C.B.C.C.V.c c ",
"c c C.V.B.B.V.V.C.C.V.Q Q k k ~ f t t t t t t j f t t t t t t t t t t t L u t j u a a a a u u B a ! L f j j j B u t t y t y u k f g d x x R c c c c c B.C.B.B.c ",
"c c E B.C.C.B.W B.V.V.W Q Q d g s f f y y y g ~ f y y f f s f u y u f f g g f f g f f f Y T f f f f g T T ~ g f u f f y s s g T d s 7 E E R c c 7 c c B.V.V.7 7 ",
"7 c B.V.V.V.E E E E E R R E E d d g f u f g k T k y y f u y y f y y g g f f j g g g f g k k f f f f f f f k k k f k f f d h E E d d h E h h h h 7 7 V.B.B.B.c 7 ",
"7 c C.C.E 7 R E V.W R R E C.B.W E Q k k g g g g f f y y y y y y y u f f f f k k f f k g f y y s f f f f f j f f g g f f h W V.V.V.R h h h h h 7 7 7 V.B.B.B.B.7 ",
"c E V.B.R 6 7 R V.C.C.C.C.V.W B.V.Q Q d k Q d h d d f s s f s s d s d d d d Q d d d d d s e e d d d k h h k d d Q Q Q Q V.V.C.C.C.V.h h 6 7 B.B.B.c B.B.V.V.B.7 ",
"c c V.B.B.E 7 B.C.C.V.C.V.V.B.C.C.V.W W V.h h B.B.V.h h h h h h Q E E R E E W W B.Q E E h h d h B.B.B.h V.B.h h B.E E B.B.W W B.C.C.V.h 7 B.B.V.V.V.B.B.B.C.B.7 ",
"7 B.C.C.C.C.C.V.C.B.E R B.C.C.C.C.V.V.V.V.h h V.V.C.C.V.V.C.C.C.C.C.C.B.E E V.V.V.V.C.C.C.V.V.V.V.B.E E B.C.C.C.V.B.V.V.B.R c V.V.C.C.C.C.C.C.C.C.C.C.V.B.B.7 7 ",
"7 7 B.C.V.E V.C.B.B.E R B.C.C.C.B.B.h E V.C.V.h V.C.C.C.C.V.V.C.C.V.E B.B.E c c W B.B.C.V.W C.C.V.V.B.R B.C.C.V.B.B.E R C.C.B.c B.C.C.C.C.C.C.C.C.V.B.B.B.E 7 6 ",
"7 7 V.C.V.7 B.V.C.B.R c E C.V.B.E E E B.C.C.V.E B.V.C.C.C.V.V.V.C.B.E C.C.E c B.B.B.B.C.B.h B.V.V.B.E h B.V.C.B.E B.E E V.C.V.c B.V.C.C.C.V.B.C.V.B.B.C.C.E 7 7 ",
"7 B.C.C.V.B.c B.C.E c c c R c c E V.C.C.V.h 7 C.V.V.C.C.C.V.h V.V.C.C.C.C.V.C.C.C.C.C.C.V.W h V.C.B.h E h W h h E V.C.C.B.c x V.C.B.C.C.C.B.7 V.V.C.C.C.C.B.B.7 ",
"7 c V.V.B.c B.B.B.B.c c B.V.E c B.V.B.B.B.B.V.V.V.h V.C.C.B.B.V.C.V.V.B.c C.C.C.V.V.V.V.V.c B.B.B.B.E h B.V.B.B.B.V.B.B.B.V.V.V.B.7 C.C.C.B.B.V.C.C.V.B.c C.V.B.",
"7 c B.B.B.V.C.V.c C.V.c B.C.C.V.B.C.B.7 B.C.C.B.h E B.C.C.V.B.V.C.C.B.7 7 C.C.V.E E B.B.B.B.C.V.B.V.V.h V.C.V.V.B.C.B.7 E C.C.E 7 B.B.C.C.V.B.V.C.V.B.7 7 C.B.7 ",
"7 c c B.V.C.C.C.C.C.C.C.c E C.V.V.C.V.V.V.B.c 7 E B.B.V.C.C.V.C.V.B.c B.V.C.B.B.V.E R E V.C.C.C.C.C.C.C.B.7 C.V.B.C.V.B.B.B.B.7 7 B.B.V.C.V.V.C.V.B.B.B.V.C.7 6 ",
"7 7 c 7 c C.V.C.C.C.C.V.E c C.C.C.C.V.V.V.V.B.7 B.V.h B.B.h B.C.C.C.B.B.C.C.c c V.E c c E V.V.V.C.C.C.V.7 B.C.C.C.C.V.V.C.B.E c B.V.B.E V.h B.C.C.V.B.B.C.C.c 4 ",
"7 7 7 7 c c c B.C.C.B.c B.V.C.C.V.V.V.B.C.C.B.B.V.V.V.h h h B.C.C.C.V.V.C.C.B.R V.E x 7 R B.E B.C.C.V.B.7 V.C.C.C.B.B.V.C.C.B.c B.V.V.E 7 c B.V.C.C.V.V.C.V.7 6 ",
"c 7 7 c 7 c B.B.C.V.B.B.c B.V.B.7 c c E C.C.C.B.V.C.C.C.V.C.V.B.7 c C.C.C.V.V.C.C.c 6 c R 7 E V.V.C.V.V.B.B.V.B.c c c R C.C.V.V.V.C.C.V.B.C.V.B.c 7 C.C.C.V.B.7 ",
"6 7 7 7 c 7 c c 7 c c c c c c c h c c c 7 B.B.B.B.h B.B.E B.B.h 6 7 B.E 7 7 R B.E c 7 x 7 R c c 7 7 7 7 7 B.7 c c c c c E E E E c B.V.B.E B.E R 7 6 c c 7 7 7 6 ",
"4 4 6 7 7 c 7 7 7 4 6 7 7 7 7 7 R c c c 6 6 7 B.7 7 7 7 7 7 E 7 7 4 7 6 4 4 6 c 7 7 6 7 c R 7 6 7 6 7 7 7 7 7 7 c c c c 6 6 7 E 7 7 7 7 7 7 7 E 6 6 7 6 4 6 4 4 "
};
