/* XPM */
static char *Group_9_6__resized[] = {
/* columns rows colors chars-per-pixel */
"80 80 222 2 ",
"   c #1D342A",
".  c #1A2F32",
"X  c #1D3331",
"o  c #213C24",
"O  c #253D2A",
"+  c #223730",
"@  c #253B35",
"#  c #243C3A",
"$  c #283E39",
"%  c #26441D",
"&  c #2B4C1C",
"*  c #2F5518",
"=  c #2E551B",
"-  c #31571D",
";  c #335C1D",
":  c #36621D",
">  c #39661D",
",  c #3C6D1E",
"<  c #3F711F",
"1  c #244526",
"2  c #2A4C24",
"3  c #26452B",
"4  c #2A4428",
"5  c #264929",
"6  c #2B4C2B",
"7  c #30492E",
"8  c #2E5323",
"9  c #2E532B",
"0  c #325B22",
"q  c #355925",
"w  c #35562B",
"e  c #355B2C",
"r  c #3A5D2D",
"t  c #264333",
"y  c #2C4533",
"u  c #2B4B33",
"i  c #27433C",
"p  c #29423C",
"a  c #294B3A",
"s  c #304733",
"d  c #314B36",
"f  c #324D38",
"g  c #2F5333",
"h  c #2D543D",
"j  c #325936",
"k  c #3A5B31",
"l  c #34523A",
"z  c #366122",
"x  c #396422",
"c  c #3C6B22",
"v  c #36612A",
"b  c #3C622D",
"n  c #3D6F28",
"m  c #3F7120",
"M  c #3E6430",
"N  c #37633A",
"B  c #41751F",
"V  c #43781F",
"C  c #406F24",
"Z  c #416B2C",
"A  c #417620",
"S  c #457C21",
"D  c #487F23",
"F  c #233E42",
"G  c #254344",
"H  c #264546",
"J  c #2B4B44",
"K  c #2A4C4B",
"L  c #2D5443",
"P  c #2D544F",
"I  c #2E5849",
"U  c #345747",
"Y  c #335C43",
"T  c #335C4C",
"R  c #304E50",
"E  c #2D5551",
"W  c #2F5953",
"Q  c #2F5D59",
"!  c #305751",
"~  c #315B55",
"^  c #315E5A",
"/  c #3A6548",
"(  c #3A6757",
")  c #33625C",
"_  c #366A5E",
"`  c #39735F",
"'  c #316364",
"]  c #376C63",
"[  c #396C63",
"{  c #33656A",
"}  c #3C7463",
"|  c #3D7964",
" . c #3A7568",
".. c #3D796B",
"X. c #3B6F71",
"o. c #3D7A74",
"O. c #4A7057",
"+. c #436F64",
"@. c #467869",
"#. c #4A7B6C",
"$. c #417E71",
"%. c #478022",
"&. c #498423",
"*. c #4C8A24",
"=. c #3F8277",
"-. c #44816C",
";. c #428473",
":. c #488676",
">. c #458C7B",
",. c #4A8C79",
"<. c #578B77",
"1. c #598E77",
"2. c #4B947D",
"3. c #4B977D",
"4. c #648C77",
"5. c #6A8E77",
"6. c #698F78",
"7. c #6B957B",
"8. c #80A37F",
"9. c #3F8288",
"0. c #428C84",
"q. c #428E88",
"w. c #4B9681",
"e. c #4D9A83",
"r. c #4A9889",
"t. c #559D85",
"y. c #469698",
"u. c #669B85",
"i. c #52A285",
"p. c #52A58B",
"a. c #54AA8D",
"s. c #58AB8C",
"d. c #58B28F",
"f. c #4FA492",
"g. c #54AD91",
"h. c #51A896",
"j. c #56B192",
"k. c #59B493",
"l. c #5BB996",
"z. c #57B699",
"x. c #5BBE9A",
"c. c #65A38A",
"v. c #6BAD92",
"b. c #6AB597",
"n. c #73B899",
"m. c #479CA6",
"M. c #4CA7A6",
"N. c #55B4A4",
"B. c #58BAA4",
"V. c #55B7A9",
"C. c #59BDAA",
"Z. c #4FADB8",
"A. c #56BCB2",
"S. c #5DC39B",
"D. c #5FC89D",
"F. c #61C39C",
"G. c #6AC59F",
"H. c #62C99F",
"J. c #5BC1AE",
"K. c #5BC3B4",
"L. c #5DC8B9",
"P. c #65CCA2",
"I. c #6BCAA3",
"U. c #78CBA7",
"Y. c #6BD1A5",
"T. c #6CD4A9",
"R. c #6ADCAB",
"E. c #71D4A7",
"W. c #73D6AB",
"Q. c #75D9AC",
"!. c #79DBAD",
"~. c #7BE4B4",
"^. c #57BDC7",
"/. c #5BC9C5",
"(. c #5AC7D3",
"). c #60CFC4",
"_. c #66DDCD",
"`. c #63DAD6",
"'. c #64DDDB",
"]. c #6AE8D8",
"[. c #5ED3E2",
"{. c #62D9E5",
"}. c #69E9E8",
"|. c #6EF4F4",
" X c #88C9A6",
".X c #9ACBA4",
"XX c #83D4AC",
"oX c #88DDB3",
"OX c #A4CEA5",
"+X c #A9CFA5",
"@X c #A9D1A5",
"#X c #A2D7B1",
"$X c #84E4B6",
"%X c #8AE5B7",
"&X c #87E8B8",
"*X c #8CEABA",
"=X c #96E4B9",
"-X c #92EDBD",
";X c #B1ECB9",
":X c #93EFC1",
">X c #8EF2C0",
",X c #95F1C1",
"<X c #9BF3C2",
"1X c #9CF8C8",
"2X c #A2F4C1",
"3X c #ABF7C3",
"4X c #A4F8C7",
"5X c #AAF9C7",
"6X c #A5FAC8",
"7X c #ABFCCA",
"8X c #B4FAC4",
"9X c #BAFAC3",
"0X c #B8FDCB",
"qX c #B3FED0",
"wX c #C6FBC5",
"eX c #CCFCC3",
"rX c #C4FFCB",
"tX c #D3FBC4",
"yX c #D6FFC9",
"uX c #DEFFC8",
"iX c #C4FDD1",
"pX c #E4FFCB",
/* pixels */
"* : B , B B < B B , , B B B V B < < V B , , < S V B V V < , , , < B B < < S V , : > B , , B < B B , , B < V B < < V V < , , < V V B B B B , , , B B B B B V , ; ",
"> , B B V V < , B < B V V V B B < < B < < < V < < < < < < A S S S S B < < V S S S B B B B B < < < < B V S V V < < V B < < < V V B < B , , A S S S V B , B V B , ",
"V V B V %.V B C B B V %.S V V V S S m < < V S S m m < , A %.*.*.*.%.B , < S *.*.*.S A S %.V B < < B V %.S S S A A S < < < S S V B B , B A S *.*.*.S B , B V V V ",
"B V &.*.&.V B V V B B %.&.*.*.*.&.&.< m S &.*.&.&.%.%.&.&.%.%.&.&.&.%.V B %.&.%.&.&.&.*.&.%.V B V B V %.%.*.*.*.&.%.m < S &.*.&.&.V &.&.&.&.&.&.&.&.&.S V %.V B ",
"B B V &.*.*.&.D %.S S %.*.*.*.&.&.&.%.%.*.*.*.*.*.*.*.*.&.S S S S S &.&.S %.&.&.%.S &.S &.*.&.%.&.V S %.*.*.*.&.&.&.%.%.&.*.*.*.*.&.*.*.&.D S S S S *.&.V &.V B ",
"B B B B V *.*.*.&.&.&.%.*.*.S S %.*.*.*.*.*.*.*.*.*.*.*.&.S A S c A &.*.*.V %.*.&.S B A %.*.*.*.&.*.%.%.*.*.S S %.*.*.*.*.*.*.*.*.*.*.*.&.S A S < B &.*.&.V B B ",
", , B V &.V D S S A A S A S &.&.*.&.S A S S S &.&.*.*.*.&.V V S B , S *.&.S B S S S < S S %.%.S V V S S S S &.&.*.&.S S S S %.&.&.*.*.*.&.S B S , C V *.*.S C > ",
", B B V V V V B m < < < < B S &.&.%.S S A S S V S *.&.*.*.%.%.%.V V &.*.*.A < B S S B %.S < < < < < < < , m S &.&.%.S A S S m S D &.*.*.&.D D &.S V &.*.*.B , : ",
", < V %.S < < < < < < < < < , S &.V *.*.*.V B < V &.*.*.*.*.*.*.&.&.*.*.&.m A S S S A S S < < < < < < < < < c S &.S &.*.*.%.m < S &.*.*.*.*.*.*.&.&.*.*.&.< , < ",
", < < S V S < < < < < , S S m %.&.%.*.*.*.*.S &.*.*.*.*.&.&.&.&.S B S &.&.%.&.&.S S B S S A < < < < < < < %.m %.&.&.*.*.*.&.%.&.*.*.*.&.&.&.&.&.S < S &.*.%.V V ",
"< < V %.&.%.m < A S S S S %.&.*.*.&.*.*.*.&.&.*.*.*.*.&.V &.&.&.A > , S *.&.*.*.%.S B &.&.%.S < S %.V m %.&.&.*.*.&.*.*.*.&.&.*.*.*.*.&.S S &.&.< , , V *.&.V V ",
"V B m *.*.*.S S &.&.*.*.&.&.*.*.*.%.*.*.V &.*.S &.*.*.%.B &.*.*.A , < &.*.A S &.*.%.B &.*.*.S S &.&.*.*.&.&.*.*.*.%.&.*.S %.&.%.&.*.*.&.B &.*.*.S , < &.*.B < V ",
"< < B %.*.*.*.%.< S &.*.%.%.*.%.V *.*.*.&.*.&.D &.*.*.*.&.*.*.*.&.S &.*.*.S S &.%.S V S *.*.*.%.< S &.*.%.%.*.%.S &.*.*.&.*.*.&.&.*.*.*.&.*.*.*.%.S &.*.*.V B < ",
", < V V &.*.*.&.B m S *.%.S &.%.V *.&.V *.*.*.&.&.&.*.*.*.*.*.*.&.*.*.*.&.&.&.&.S S S S &.*.*.&.< < %.*.%.S &.%.S *.%.S *.*.*.%.&.&.*.*.*.*.*.&.&.*.*.*.&.%.V < ",
"B V &.*.*.*.&.&.*.%.S *.%.D &.*.*.%.B C S *.*.S V V &.&.*.*.*.%.S S D S D &.&.*.&.&.D &.*.*.&.&.*.%.S *.&.S %.*.*.&.< < S *.*.S B S &.&.*.*.*.%.S S %.%.%.%.%.V ",
"B V *.%.*.*.&.&.*.*.&.%.&.&.&.*.*.V B , A S S B B V D D V V &.&.&.&.&.&.&.*.*.*.%.&.&.&.&.*.*.&.*.*.&.%.&.&.&.*.*.V < < m S S < m S D S S S &.&.&.%.&.&.*.*.%.V ",
"< V &.V S *.&.&.&.*.&.S S &.&.*.*.S B B B B S A S S S S S S &.*.*.*.*.*.*.*.*.*.%.&.&.S S *.&.&.&.&.&.S S &.&.*.*.S V B B < S S m %.%.S < %.&.*.*.&.*.*.*.*.%.< ",
"V V B B B S S &.&.A < < < A &.*.*.&.&.S %.&.*.&.&.*.&.*.*.*.*.*.*.*.*.S A &.*.*.*.S S < m D S S &.S < < < S &.*.*.&.&.V %.&.*.&.*.&.&.*.*.*.*.*.*.*.*.%.< &.%.V ",
"B V &.B B A S S S A A S < < S *.*.*.&.&.S S &.*.*.*.*.&.S %.&.*.S S %.S B S %.*.&.%.%.m m S S S S < m %.< < %.&.*.*.&.&.S %.&.*.*.*.*.*.&.&.&.*.%.%.%.< V V V V ",
"< V *.%.S S V S A A S &.A < &.&.*.&.*.&.S S &.*.*.*.*.&.S S &.&.V < S S S < S *.%.&.*.%.S S S S m S S %.< < %.*.*.&.*.&.S S %.&.*.*.*.&.< %.&.&.< < %.&.V < < V ",
"V S &.&.*.*.&.&.S S < m , A &.*.S &.&.*.*.*.*.%.%.&.&.*.*.*.*.*.*.*.*.*.*.S &.*.*.&.&.*.*.*.%.%.&.m < < < < *.*.&.%.&.*.*.*.*.%.%.&.&.*.*.*.*.*.*.*.*.*.*.V V V ",
"B S &.*.*.&.&.&.*.&.S S S &.*.*.&.S %.&.&.&.S &.&.&.%.%.&.&.&.*.&.&.S S m m S *.&.&.&.&.*.&.&.*.*.&.%.S S &.*.*.&.S %.&.&.%.%.&.&.&.%.%.&.&.&.&.&.*.&.*.*.&.%.V ",
"< V *.&.D D &.&.*.*.*.*.*.*.*.*.&.A S S S B A *.*.%.S S < < S S S < , 0 8 ; m *.%.&.&.&.%.%.&.*.*.*.*.*.*.*.*.*.&.B S S S B A *.*.%.%.< < m S S V < V &.*.%.V V ",
"V V S S &.*.&.S &.&.*.*.*.*.&.%.S S B A B S &.*.&.m < S S S m m < < z w a 6 v S &.&.S &.*.*.%.S %.&.*.*.*.*.*.%.S S A A < S &.*.*.m < S S S < < < < %.%.%.&.V < ",
"B B B > x B S S S %.S S &.*.&.D S %.S S S %.*.*.&.< B A S m < < > z e ( +.O.N > S S %.&.&.%.S S S S S S &.*.&.S S %.S S S &.&.*.&.< < m %.< > ; - , %.%.%.%.V < ",
", B x 8 2 = , S &.S S m S *.&.&.&.*.&.&.&.*.*.*.&.B m < m < < , = 8 O.1.v.c.O.9 0 A *.*.S m S S &.D S m S *.&.&.&.*.&.&.&.*.*.*.&.< < < < , ; 1 & 8 %.%.%.%.V < ",
"< : e Y L g 0 S *.*.&.&.*.&.S &.*.*.*.*.*.*.&.*.*.&.S , , < < , & t -.n.%XU.2.U 2 > &.%.S , , S *.*.*.&.*.&.S &.*.*.*.*.*.&.*.*.*.%.m , , : 9 L J 9 m S &.&.%.< ",
"; q O.:.#./ w > &.*.*.&.&.&.%.*.*.*.&.*.*.&.S &.*.*.S S S %.S < 1 i ,.U.,XoXt.! 1 ; &.&.S S < S *.*.&.&.*.&.%.*.*.*.*.*.*.D S &.*.*.%., z j / =.| ( v > < &.&.< ",
"% Y <.n.b.<.l 8 A S S S S &.*.*.*.&.%.&.%.S < %.&.*.*.*.*.*.&.A 2 J ;.H.~.E.w.R 5 z &.*.*.*.&.*.*.&.S A %.*.*.*.*.&.&.&.&.S A %.*.&.%.c 2 T ;.a.a.;.Y 2 : < %.< ",
"  ( v.%X%Xn.} h 0 x B < %.*.*.*.&.S S S &.*.&.S %.*.*.*.*.*.&.S ; 6 _ w.k.p.@.a 8 > &.*.&.S &.*.&.%.S A &.*.*.*.%.%.S V &.*.%.S %.*.%.> 2 / ;.d.k.;.L 6 : < < , ",
". ) b.$X>XW.w.) L 9 z > S &.&.S S S S %.*.*.%.S %.*.*.*.*.%.S %., 0 N ` =.| / 9 : A &.*.%.V S &.&.%.S A %.&.*.%.S S S S &.*.%.S %.&.&.m v N ` 3.2.| j v < < < < ",
". ~ t.I.Q.T.p.$.) a 2 : < V S V S &.*.*.%.V < &.&.%.*.*.*.S S %.&.A v Y T I N m %.*.*.*.&.S S &.*.S B A V V < V V &.*.*.&.V < &.*.%.&.&.S v j ) ~ Y n %.&.%.%.%.",
"  h | e.l.x.i.=.) a & : V &.%.S %.&.%.S %.%.&.&.&.m &.*.*.V %.&.*.&.m 9 t 9 n &.&.&.&.&.%.S D %.%.%.S m %.&.%.V &.&.%.S %.%.%.&.S S &.*.*.m 0 g g v S S %.*.%.< ",
"* 8 / ` ;.>.=.` Y e z , %.*.&.&.&.*.S V %.*.*.%.< S %.*.*.&.%.&.*.&.S ; = : S &.%.S S S %.%.*.&.S &.&.S &.*.*.&.%.*.S B %.*.*.%.V B %.&.*.%., ; ; > S < < *.%.< ",
"< : 9 L W ^ W h v m &.*.V S *.&.&.*.&.%.%.%.S < S &.%.&.*.&.&.*.&.%.S S S D S S %.%.V %.%.*.&.&.&.*.*.*.S < *.&.%.*.&.%.&.&.V B S %.S %.*.&.%.S S S S %.&.*.< , ",
"< , ; 2 t a t 0 m *.&.%.S S *.*.*.*.&.&.*.%.%.< V &.S V %.%.%.&.*.&.%.%.&.*.S A %.%.< < V S c x c S &.%.V S *.*.*.*.*.&.&.&.V V S &.S S %.V %.*.*.&.%.%.*.*.< > ",
"< < > * & & - , &.*.&.< S %.&.*.&.%.%.%.*.*.%.S &.&.&.V m V %.&.*.&.&.&.*.*.S S &.S < < < z 9 5 9 m V S S &.*.*.&.&.S &.*.*.&.S %.&.%.S < S S &.*.&.%.&.&.*.< , ",
"< < < < < , m %.&.&.&.&.S %.&.%.S B S S *.*.*.%.&.&.*.*.%.&.*.%.< V &.*.*.%.&.*.*.S < < , ; u t u c S %.S %.&.S S S B S *.*.&.&.%.*.*.*.%.&.*.%.< V *.*.*.&.%.< ",
"V < V %.%.%.%.%.%.%.%.%.%.%.%.%.%.%.S %.&.&.&.&.&.&.*.&.&.&.*.&.< V *.&.S S %.*.*.%.m S V > 9 6 9 c S %.%.%.%.%.S S &.D &.&.&.&.&.&.*.*.&.*.*.%.< < *.&.V S V V ",
"< V %.&.&.&.%.%.S %.< %.&.&.m %.&.&.*.&.S S &.*.*.%.&.&.%.%.&.*.%.V &.S < m %.&.%.%.&.&.&.S c : > m S %.&.&.S &.*.&.*.&.A S &.*.*.%.S S S S %.*.%.V &.V < < < < ",
": < &.&.%.&.&.&.&.S S &.&.S m < S &.*.&.S S %.*.*.&.*.*.%.S %.%.&.&.*.%.%.*.&.%.< < *.%.%.&.%.%.%.S S &.&.&.*.&.&.*.&.&.S S &.*.*.S c > > , A %.&.&.*.V D *.V > ",
", < V %.%.%.V V S S S &.V : 2 = : S S S S V S &.S S D S S %.&.&.*.&.%.V %.*.*.&.%.%.S %.%.&.V %.D S S &.&.&.&.S S S S S S S S &.m ; 8 1 1 8 : S &.*.V V S D > = ",
"V V V V %.S < < < V S S c q t 3 8 < < < < S S B < , > x c S &.&.&.< , > , < %.*.*.m < < < V , > , m A S S A < < A S m , < S S A z 8 t G G u v S &.&.B C , B - 1 ",
"B V &.&.&.%.B V V B < m v / @.O./ 0 > , S &.&.%.< : ; ; : ; ; : > : ; - = ; : : : ; : : : ; - * - = = ; : ; 0 : > S < , S &.&.x v / #.<.,.} / v A &.D V B V ; % ",
"< V %.&.&.*.&.%.&.S > 8 / <.v.u.#.g ; < %.*.*.%.> 8 5 5 5 1 1 1 5 5 5 1 1 1 1 1 5 5 5 5 5 2 1 1 1 1 o 1 5 5 5 2 0 m V %.&.%.m e O.<.n.U.P.i.} Y q x &.&.D V , ; ",
"< < < m %.*.&.&.S A ; O ( c.oXXXc.! 6 : %.*.%.m e a K K J J J J J J J J J J J J J J J J J J J G J J J J J K E J g c S *.*., 8 a +.v.oX-X~.k.=.^ t & A &.&.V B B ",
"< < m S S > : - - & o . ( v.*X>XG.@.I 9 ; ; ; 8 / @.1.u.6.6.5.5.4.4.1.4.4.4.4.4.4.4.6.5.5.4.<.<.1.4.4.1.<.1.7.4.O.b ; ; ; &   @ +.b.&X&XG.3.] E #   8 m D V , > ",
", , m S m ; 6 t u O X + ^ t.Q.~.Y.3._ J 3 1 1 Y -.b..X#X@X+X+XOXOXOXOXOXOXOX.XOXOXOX@X+XOX.X X X X.X.X.X X X#X.X8.O.u o 5   X # [ s.G.b.3._ P K F # u v , B , > ",
": > , B z 6 L E ~ E K H ~ $.s.b.S.a.;.) H X H #.v.oX0XiXeXtXtXtXtXtXtXtXtXtXtXtXtXtXeXtXeXwX3X2X3XwXeX9X4X5XiXwX+X6.( H E E K E _ =.2.=.) J H K E E E h 0 x : > ",
"* % & & w L } o.o. .{ [ [ ]  .2.a.k.>.^ H E #.v.oX4XqXiXrXrXrXrXtXuXpXpXpXpXpXpXyXeXrXrXrX0X5X6X7X0X0X0X7XqXiXrX;X Xu.:.:.;.=.o...] ) Q ^ ) ) '  .o. .( g 8 % % ",
"4 3 @ 3 h _ >.e.r.e.e.w.=._ W ] >.p.=.Q E #.v.=X1X4X4X5X7X5X7X8XwXeXuXuXpXuXuXyXrX0X5X5X5X6X5X6X4X5X3X7X4X4X5X3X3X=XXXI.b.l.d.d.3._ P P  .;.2.w.e.e.e...T a t $ ",
"W ^ ] ) ] ;.p.k.k.l.x.x.i.=.) ^  .;...) X.t. X1X1X*X=X:X,X,X-X<X3X9XeXeXeXeXeXwX8X<X,X,X<X-X-X4X<X<X,X-X-X*X%X*X-X<X,X*XR.R.R.R.d.-.) _ >.k.S.l.l.k.g.3.@.^ ' [ ",
"o.>.0.$.;.,.t.k.S.G.H.H.S.s.3.| _ ) _ ..i.b.!.&X$X!.$X%X-X<X<X<X3X8X9X9X9X9X9X9X3X3X<X,X-X6X2X-X<X<X-X*X!.!.Q.Q.~.&X~.~.~.R.R.R.S.i.2.3.g.F.P.P.S.x.j.e.;.$.>.r.",
"M.V.C.g.e.e.p.g.l.H.P.H.H.H.S.3.[ E ) 2.x.Y.T.T.P.Y.Q.&X-X<X2X-X-X2X2X-X2X-X2X-X-X-X-X<X-X-X-X2X<X<X-XoXW.H.H.H.Y.T.R.Y.P.P.Y.P.G.x.d.S.F.H.P.P.F.k.a.i.e.t.l.L.",
").'.].L.x.g.g.g.l.b.F.S.H.H.P.a...)  .e.P.P.x.l.x.S.Y.!.*X*X*X&X$X$X&X&X&X$X$X&X&X%X*X%X%X%X%X*X-X*X$XQ.H.H.D.D.S.l.l.l.l.S.S.S.S.F.H.D.F.b.F.F.k.s.i.i.g.P.`.}.",
"[.|.|._.L.C.B.z.d.d.s.d.d.l.l.i.,.;.>.p.l.l.j.j.z.S.P.T.!.!.!.Q.Q.Q.Q.Q.T.W.W.W.Q.Q.Q.Q.Q.Q.Q.Q.!.!.W.Y.H.H.H.D.S.k.g.a.a.a.d.d.k.k.k.k.d.d.s.s.p.i.3.i.z.).}.|.",
"(.[.}./.K.L.L.A.z.g.p.a.g.a.g.a.p.p.p.p.f.p.p.g.l.D.P.P.P.P.P.P.H.H.D.J.H.H.H.P.J.H.H.H.H.H.J.H.P.P.P.P.P.P.P.P.S.d.p.p.p.p.p.p.h.a.g.a.a.a.p.g.a.s.h.M.B.L.'.}.",
"m.m.M.y.M./.{.{.).C.z.N.V.V.V.B.z.l.j.g.p.p.p.g.l.S.D.S.S.x.x.x.S.S.S.S.S.S.S.S.x.S.S.S.S.S.x.S.x.x.x.S.x.S.P.F.l.j.g.p.f.a.p.p.g.z.B.C.C.V.B.B.A.L.).A.M.y.M.Z.",
"{ { { ^ o.Z.{.}.`.L.J.J.K.K.K.J.B.g.a.a.p.p.p.p.g.g.j.j.g.a.g.g.a.g.g.g.g.g.a.a.a.j.a.g.g.a.j.g.a.j.g.g.j.k.k.g.d.a.p.p.p.p.p.p.h.B.A.K.K.A.C.K.).{.{.^.y.[ ) { ",
"$ # @ # ^ y.(.{./.A.N.V.V.V.V.N.f.e.2.2.w.e.e.w.w.w.w.w.w.w.2.w.3.3.w.w.3.e.3.3.w.w.e.3.3.3.e.2.w.3.w.w.w.w.w.w.w.w.w.w.w.w.3.e.t.M.V.A.A.V.N.V.^.`.[.Z.$.F + + ",
"s 4 O 7 U X.y.m.y.q.0.0.9.9.9.=.$.o. . ... . .@. . . . . . . . . . . . . . . . . . . . . . . . . . . . .} }  . . . . . . . . . .$.$.q.q.q.0.0.0.r.m.m.9.( d O O ",
"w w q r k U ^ { ' Q W ~ ) Q ) _ W E P P E E E ! R E P E P E P P P P P ! P P P P P P P P P P P P P P P P P ! E P ! E ! ! E E P W W ~ ^ ^ ~ ~ ~ ~ ' ' ' ~ l w w q ",
"w Z Z Z r d $ @ p t y $ $ t a t p p p F p p p p G $ p p F p $ p $ p G p i p i i p p i p p p p p p i i i p p G p p p F p p p i i $ $ $ $ $ $ $ $ $ @ $ s k b x Z ",
"r b Z Z Z r d y d d l d f l l a d d d d d d f l f d d d f f f d d y f f f f f g l l f f l l f f f f l l l l l d d d d d d f l l d s d d d d s s $ s s w k M M r ",
"q b Z Z b r r r k r r w r Z M r k k M k k M M Z k l w w r w w k w w Z M k r Z M r M M M M r k r M r k r k Z k k k M M k M M M Z M w w r r w w w w w r Z r b r r ",
"; C Z C Z ; C C A C C x Z A A A A S Z A S A S S A c c x x x x x 0 c C C A C Z A C A Z A A x c c A C c x C A C A A A A C S A Z S C c x x x x x x > , A C C c x q ",
"C B B V C > > B D D &.S D D A S D &.&.&.&.&.D S D D C > , C C B B B S V D D D D D S D S < > > B D D D S D S D D &.&.&.%.&.D D D &.D A x , , C A B V V V A S A C ",
"B B V V V B B B *.*.&.&.&.&.D &.*.&.&.*.&.D V &.*.&.S V V V V D &.&.&.V S &.*.&.&.D &.D V B B V *.*.&.&.&.&.D &.*.&.&.&.&.D A &.*.&.S A B V D D %.&.&.V D &.A B ",
"B V &.*.*.*.*.&.&.&.S A &.*.*.*.*.&.&.&.&.V B &.*.*.*.*.&.*.*.*.*.*.*.D S S &.*.&.&.&.*.*.*.&.*.&.D S V D *.*.*.*.&.&.&.&.S B &.&.*.*.*.*.&.*.*.*.*.*.&.V %.V < ",
"B B &.*.&.V &.*.&.&.S B &.*.*.&.D D V V &.*.&.V D *.*.*.*.*.*.*.*.&.D &.&.S V V S D &.*.&.V &.*.&.&.D B &.*.*.&.%.%.V S &.*.&.V &.*.*.*.*.*.*.*.*.&.%.%.&.V < , ",
"B B &.*.&.V V *.&.&.S V S &.&.&.V D V D *.&.&.V D *.*.*.*.&.%.&.*.&.S &.*.S S V D &.&.*.&.V &.&.&.&.S B D &.*.D S %.S S &.*.&.V S *.*.*.&.&.&.&.*.&.%.&.&.%.< , ",
"B V *.*.&.V V &.*.S B B V V V V V *.*.*.&.V B &.&.%.*.*.*.V V &.&.*.*.*.*.&.*.*.&.*.&.*.&.V V &.*.S B B V A B V V &.*.*.&.B B &.&.%.*.*.*.S S &.&.&.*.*.*.&.%.V ",
"B B &.&.%.V &.&.%.%.V B %.&.%.V &.&.D S S &.&.&.%.V &.*.*.V &.&.*.*.&.V V *.*.*.&.&.&.*.V D V &.&.&.V B %.&.S S &.&.%.S S &.&.&.&.S &.*.*.S S &.*.*.&.V V *.&.V ",
"B B V %.%.&.&.&.V *.&.V &.*.*.&.&.&.S V S *.*.S V V &.*.*.&.&.&.*.*.V V V *.*.*.D V &.V &.&.*.&.S &.&.S %.*.*.&.&.&.S V D *.&.S B S &.&.*.&.&.*.*.&.%.B V &.&.< ",
"B B V %.&.*.*.*.*.*.*.*.V V *.&.&.&.&.&.&.&.S B V %.%.&.*.&.&.*.&.%.V %.&.*.%.V &.V V D &.*.*.*.*.*.*.*.S V *.&.&.*.&.&.&.S S B B &.S &.*.*.&.*.&.%.%.%.&.*.V , ",
"B B B B V *.&.&.*.*.*.&.V V *.*.*.*.&.&.&.&.S B D &.V V &.S S *.*.*.%.%.*.*.V V %.D B B D &.&.&.*.*.&.%.V S *.*.*.*.&.&.*.&.S V S &.S S S S %.*.*.&.%.%.*.*.< > ",
"B B , B B V %.%.*.*.&.V V &.*.*.&.&.S &.*.*.%.S D *.S S V V S &.*.*.%.&.*.&.S S %.V B B B S S &.*.*.&.V %.%.*.*.&.&.&.D *.*.%.V &.&.&.A A S %.&.*.*.&.&.*.*.V > ",
"B B B B B B V %.&.*.&.%.V %.*.V S V B S *.*.&.&.&.*.*.*.D &.&.%.B V *.*.*.&.&.*.*.V B B B B V &.&.*.&.V V %.&.S S V B S *.*.&.&.&.&.*.*.&.&.&.S B V *.*.*.%.V B ",
", B , B B B V B V V V V V V V B B B V S S S S S S S %.S S S %.V , < %.V < < V &.S B < B B B V B V V V V V V V V B A B S S S S S S S S S S S S A , < V V < V < , ",
"; > , B B B B , , > , , B B , B A V V B , , B S B < < < < B B V < > < , : > , B B , , B B B B C , > , < B < < < B B S B , , B V V B B < , B B S , > B , : > : > "
};
