/* XPM */
static char *__resized[] = {
/* columns rows colors chars-per-pixel */
"80 80 222 2 ",
"   c #0D0B0A",
".  c #110E0D",
"X  c #0E130A",
"o  c #141207",
"O  c #13130C",
"+  c #171B09",
"@  c #151412",
"#  c #1A1612",
"$  c #1C1A15",
"%  c #24170F",
"&  c #231612",
"*  c #271917",
"=  c #2B1C17",
"-  c #271A18",
";  c #291B19",
":  c #301E17",
">  c #301F1C",
",  c #1A2606",
"<  c #1D2B07",
"1  c #142009",
"2  c #1B240A",
"3  c #1E2C09",
"4  c #1F3008",
"5  c #1C2213",
"6  c #20290A",
"7  c #202E09",
"8  c #223409",
"9  c #29340F",
"0  c #263B0A",
"q  c #293E0B",
"w  c #252616",
"e  c #33211D",
"r  c #3D271E",
"t  c #3C2D1B",
"y  c #263614",
"u  c #2C3312",
"i  c #2A3C13",
"p  c #373918",
"a  c #282627",
"s  c #362420",
"d  c #3A2622",
"f  c #3D2B23",
"g  c #2B3625",
"h  c #393923",
"j  c #383B37",
"k  c #41391C",
"l  c #422D24",
"z  c #432F28",
"x  c #443226",
"c  c #4B3225",
"v  c #443B26",
"b  c #463328",
"n  c #49342A",
"m  c #4D3A2C",
"M  c #513626",
"N  c #523B2E",
"B  c #5B3F2E",
"V  c #4B3B30",
"C  c #553C31",
"Z  c #593B34",
"A  c #603F3C",
"S  c #27400A",
"D  c #2B430B",
"F  c #2E4A0C",
"G  c #314E0D",
"H  c #34530E",
"J  c #365A0F",
"K  c #395D0F",
"L  c #2B4512",
"P  c #2C4B13",
"I  c #2B471A",
"U  c #384617",
"Y  c #334B13",
"T  c #2F5316",
"R  c #345511",
"E  c #395412",
"W  c #365911",
"Q  c #395C10",
"!  c #36561D",
"~  c #355D1A",
"^  c #3D630E",
"/  c #3C6311",
"(  c #36631A",
")  c #39651B",
"_  c #3D6D1D",
"`  c #3F711E",
"'  c #364826",
"]  c #3A5625",
"[  c #3A4335",
"{  c #3C5031",
"}  c #3D6722",
"|  c #3F7220",
" . c #41471A",
".. c #41650C",
"X. c #426B0F",
"o. c #46710E",
"O. c #4A750F",
"+. c #4D7C0F",
"@. c #507E0F",
"#. c #426A11",
"$. c #406A16",
"%. c #477617",
"&. c #4B7914",
"*. c #41751F",
"=. c #43791F",
"-. c #517F11",
";. c #494828",
":. c #48492A",
">. c #455925",
",. c #515829",
"<. c #5B4234",
"1. c #594535",
"2. c #5D493A",
"3. c #445738",
"4. c #5B5636",
"5. c #664837",
"6. c #62413B",
"7. c #644B3B",
"8. c #66543C",
"9. c #685A3C",
"0. c #79523C",
"q. c #466624",
"w. c #436E23",
"e. c #41642A",
"r. c #536A2C",
"t. c #427620",
"y. c #4B7426",
"u. c #457C21",
"i. c #4A7D25",
"p. c #4F7A28",
"a. c #54782B",
"s. c #556633",
"d. c #5A7231",
"f. c #5E7932",
"g. c #6C623E",
"h. c #67693C",
"j. c #627B36",
"k. c #3F4147",
"l. c #51564F",
"z. c #664441",
"x. c #694D40",
"c. c #6D5442",
"v. c #695944",
"b. c #765944",
"n. c #735B49",
"m. c #506443",
"M. c #756547",
"N. c #756A42",
"B. c #7B614D",
"V. c #6E7142",
"C. c #7B7446",
"Z. c #7A6651",
"A. c #825A3F",
"S. c #8A5E43",
"D. c #865E53",
"F. c #8F6145",
"G. c #83664C",
"H. c #86694E",
"J. c #886A4F",
"K. c #84754B",
"L. c #846B55",
"P. c #8C6D52",
"I. c #91665C",
"U. c #8F7253",
"Y. c #8A7458",
"T. c #947455",
"R. c #95765C",
"E. c #95795C",
"W. c #9A7B5B",
"Q. c #9D6E64",
"!. c #8F7964",
"~. c #947761",
"^. c #967A64",
"/. c #9A7C65",
"(. c #9A7E69",
"). c #A5756B",
"_. c #52830F",
"`. c #568A0F",
"'. c #578A0F",
"]. c #4C841F",
"[. c #5D9111",
"{. c #619611",
"}. c #669D12",
"|. c #6BA512",
" X c #6EA912",
".X c #71AB11",
"XX c #75B213",
"oX c #79BA13",
"OX c #478022",
"+X c #498423",
"@X c #4C8A24",
"#X c #55832A",
"$X c #58872C",
"%X c #9C855A",
"&X c #9E875A",
"*X c #A4875E",
"=X c #9C8061",
"-X c #9D816B",
";X c #A38363",
":X c #A88662",
">X c #A58D62",
",X c #AC8A63",
"<X c #AA896A",
"1X c #B08D67",
"2X c #B18F6B",
"3X c #B3916D",
"4X c #A78B73",
"5X c #AE9077",
"6X c #B69472",
"7X c #B99674",
"8X c #BB9877",
"9X c #B6967C",
"0X c #BC9B7C",
"qX c #C09E7E",
"wX c #B69A80",
"eX c #BE9E81",
"rX c #BEA286",
"tX c #C09F82",
"yX c #C2A285",
"uX c #C5A689",
"iX c #C7A88B",
"pX c #C8A98C",
/* pixels */
"T ( *._ ` | ` ` *._ ` ` =.=.=.` ` | t.*._ _ ` u.t.=.=.=.| _ _ _ | t.t.` ` u.*._ ) _ ` ` ` ` ` ` ` _ _ ` | t.t.| ` t.t.=._ _ ` u.t.*.=.*.` _ _ _ t.t.t.` *.=._ ~ ",
") _ *.*.t.t.` ` ` ` ` t.t.t.=.` | t.=.` ` ` =.t.` ` ` ` | t.u.u.u.t.*._ ` u.u.u.t.| ` ` ` =.` ` ` ` ` =.u.| t.| ` t.` ` ` ` =.` t.` ` ` ` t.u.u.u.t.` ` ` u.` _ ",
"=.*.*.=.OXu.| _ ` =.t.OXOXt.u.t.| u.| | ` t.u.t.| | _ | t.u.@X@X@XOX*.` ` u.+X@X@XOXt.u.OXu.` ` _ _ =.].OXu.u.| t.t.` ` ` u.u.t.` ` ` _ t.+X+X@X+XOX*.` *.u.=.=.",
"*.u.+X@X+XOXt.t.=.=.=.OX+X@X@X@X+XOX| | u.+X@X+XOXOX+XOX+XOX+X+X+X+X+Xt.*.OX+X+XOX+X+X@X+X+X=._ ) ) ` u.+X@X@X@X@X+X| ` u.+X@X+X+Xu.+X+X+Xu.+X+X+X+X+Xt.*.+X=.` ",
"_ u.u.+X+X+X+XOXOXu.u.OX@X@X@X+X+X+XOXOX@X@X@X@X@X+X@X@X@Xu.u.OXu.u.+X+Xu.OX+X+XOXOXOX+X+X@XOX_ T } | +X@X@X@X+X@X+X+X+X+X@X@X@X+X@X@X@X@Xu.u.i.u.u.+X+Xu.u.t.*.",
"*.*.t.t.+X@X@X@X+X+XOX+X@X+XOXu.OX@X@X@X@X@X@X@X@X@X@X+XOXu.u.t.| | +X@X+Xu.+X+X+Xu.` | OX@X@X} I ) +X+X@X@Xu.u.OX+X@X@X@X@X@X@X@X@X@X@X+Xu.t.t.` t.+X@X+Xu.t.*.",
"_ $.t.u.u.u.u.u.u.t.t.t.t.u.+X+X@X+XOXt.t.OXOXOX+X@X@X@X+Xu.t.t._ _ OX@X@Xu.t.t.OX=.| | OXOXu.} I ( | | u.u.OX+X+X+XOX| u.OX+X+X@X@X@X@X+X=.t.u._ _ i.@X@Xu.` ) ",
"_ _ t.u.u.t.t.t.| | ` | | | u.+X+X+Xu.u.t.t.t.=.OX@X+X@X@XOXOXOXu.u.+X@X@Xt.` *.u.u.t.OXu.` | ~ I ( | | | | u.+X+X+Xu.u.t.| u.| u.+X@X@X+X+Xu.+Xu.u.+X@X@X*._ ( ",
"_ ` =.u.u.` | | | ` ` | ` ` ` t.+XOX+X@X+X+Xt.` =.+X@X@X@X@X@X@X+X+X+X@X+X| t.u.u.u.t.OXu.` ` ~ I } | | | | | u.+XOX+X@X@XOX| ` t.@X@X@X@X@X@X@X@X+X@X@X+X` _ _ ",
"_ ` *.u.u.t.` | ` | ` ` t.u.| OX+X+X+X@X@X+XOX+X+X@X@X@X+X+X@X+Xu.t.t.+X+X+X+X+Xu.t.t.u.OX` ` ~ y ( | ` | u.| OX+X+X@X@X@X+XOX+X@X@X@X@X+X+X+X+Xu.| t.+X+X+Xt.=.",
"` ` t.OX+XOX| | t.t.u.u.u.+X+X@X@X+X+X@X+X+X+X@X@X@X@X+Xu.i.+X+X| _ } OX+X+X@X@X+Xt.t.OX+X+Xu.] g } OX| OXOX+X@X+X+X+X@X@X+X+X@X@X@X@X+Xu.u.+X+X| _ _ u.@X+Xu.=.",
"=.` t.@X@X@Xu.u.OX@X@X@X+X+X@X@X+X+X@X@XOXOX+XOX+X@X@X+X` ].@X@Xt._ ` +X@Xt.u.+X@XOXt.+X@X@XOX] g } @X@X+XOX@X@X@X+X+X@XOXOX+XOX+X@X@X+X*.+X@X@X| } ` +X@Xt.` =.",
"` ` *.u.+X@X@XOXt.u.+X@XOXOX@XOXu.+X@X+X+X@X@X+X+X@X@X@X+X@X@X@X+Xu.+X@X@Xu.u.+XOXt.t.OX@X@X@Xe.j ! | @X+Xu.@XOXOX+X@X@X+X@X@X+X+X@X@X@XOX@X@X@X+XOX+X@X+Xu.*.` ",
"_ ` =.OX+X@X@X+X| | u.@XOXu.+XOXu.@X+Xu.@X@X@X+X+X@X@X@X@X@X@X+X+X@X@X@X+X+X+X+Xu.u.u.u.+X@X@Xt.' { } @XOXu.@Xu.u.+XOXu.+X@X@X+XOX@X@X@X@X@X@X+X+X@X@X@X+X+Xt.*.",
"*.u.+X+X@X@X+X+X@Xu.OX+XOXOXOX@X+X+Xt._ u.+X@Xt.t.OX+X+X+X@X+X].u.u.OXu.u.+X+X@X+X+X+X+X@X@X+Xu.| m.m.+XOXu.+X@X@XOX| ` u.@X@X| t.u.+X@X@X@X@XOXu.u.OXOXOX+XOXt.",
"` =.+X+X@X@X+X@X@X@X+XOX+X+X+X@X@Xu.` | t.u.u.t.| t.u.u.u.u.+X+X+XOX+X_ ) &.%.) _ t.+X+X+X@X+X+X+Xa.{ ] t.+X+X@X+Xu.| | | u.OX| | t.u.u.t.OX+X+X+XOX+X+X+X+XOX=.",
"*.=.+Xt.u.@X+X+X@X@XOXt.OX+X@X@X@Xu.*.t.t.*.t.t.u.u.u.u.u.u.+X@X+X+X&.%.o.@.O.#.%.=.].*.=.@X+X+X+X| ] I } u.OX@X@Xu.| t.| | t.u.t.OXu.u.t.u.+X@X@X+X@X@X@X@XOX*.",
"=.=.t.` t.u.u.+X+Xt.| | | t.+X+X@X+X+Xu.OX+X@X@X@X+X+X@X@X@X@X+Xu.i.-.}.XX X|. XXX}.-.W ) =.=.i.+X| ( ' T ( OX@X@X+X+Xu.+X+X@X@X+X@X+X@X@X@X@X@X@X@X@Xu.t.+XOX=.",
"*.u.u.t.*.t.t.u.u.t.t.u.| ` u.@X@X@X+X+Xu.u.+X@X@X@X@X+X+X+X=.) ].}.}..XXX X|.|.oXXX{.[.&.( *.u.OX| | | { { OX@X@X@X+XOXu.OX+X@X@X@X@X+XOX+X+X+XOXu.+Xu.t.t.=.=.",
"_ u.@X+Xu.u.u.u.t.t.u.OXt.| OX@X@X+X+X+Xu.u.+X+X@X@X@X+X_ =.%.Q {.oXXX X{._.+._.|..X XoX[.K ) ` | | u.OX3.3.| +X+X+X@X+Xu.u.OX+X@X@X@X+Xt.OX+X+X=.` u.OXu.` ` *.",
"t.u.+X+X@X@X+X+XOX=.` ` } t.@X+X+X+X+X@X@X@X@X+XOX+X+X*.( &.[..X X|.|.}._.J J o.@._._._.'._.J ~ OXu.` ` { [ ] | +XOX+X@X@X@X@XOXOX+X+X@X@X@X@X@X@X@X@X@X+Xu.u.=.",
"*.u.+X@X@X+X+X+X@X+Xu.u.u.+X@X@X+Xt.OX@X+X+Xu.+X+Xi.t._ o.[..XXX[.O...O.O.K ^ X.O.X.^ H ..`.@._.+X| _ | ] ' ] | +Xt.OX@X+XOXOX+X+X+XOXOX+X+X+X+X+X+X+X@X@X+X=.=.",
"*.u.@X+XOX+X+X@X@X@X@X@X@X@X@X@X+X*.t.OXt.*.t.+X+X=._ %.'.|..X}.O.F < F ^ ^ X.o.o...H 7 F `.|.|.[./ ( OX] g I } @X| t.OXu.| t.@X@XOXOX| | | OXOXu.=.t.+X@Xi.=.=.",
"*.=.u.+X+X@X+Xu.+X+X@X@X@X@X+X+Xu.t.t.t.t.u.OX+X%./ `.[.+._.[.|._.J H H K J K ^ o...K F K _._.`.`._.^ J I g [ } u.u.t.t.| u.+X@X+X| t.u.u.OX| | ` *.u.+X+X+X=.` ",
"*.u.OX+X+X+Xu.u.u.u.u.u.+X@X+Xu.u.+Xu.t.u.+Xi.$./ X.@.&.^ ^ &.|._.^ / Q W K / / ../ Q Q #.&.^ X.O.X...G i g j e.OXOXu.=.u.+X+X@X+X` | | u.| ` ` ` | OXOXu.OX` ` ",
"` =.+X@Xu.` t.OX+XOXt.| OX+X+X+X+X@X+X+Xi.+X=.Q ^ O.K G F H ^ `.+.X.^ Q K X.X.K Q K Q ..o.+.K R K G G Q I g j ] OX@X+X+X@X@X@X@X@X| | ` ` | ` ` ` ` +XOXOXOX].` ",
"` u.+X+X` ` ` =.@X@X@X+X@X+Xu.+X@X@X@XOX/ $.&.^ K / Q F 8 F #._.X.Q K X.X.K F 8 q G K X.X.K F 0 8 q G E 3.j I U ( ].@X@X@X@X+X+X@X+X| ` ` ` | OXu.u.OXOX+X@X].` ",
"*.u.+X+XOXu.` OX@X@X@X+X@X+XOX@X@X=.=.*.R K #.K H W Q G q D J X./ W W X.X.H F D D H / #./ R F 0 , 8 q Y 3.l.U G ^ =.=.=.+X+Xi.+X@X@X+X| | +X+X+X+X+X+XOXOX+X+X` ",
"*.=.+X@X@X@X@X+X@XOXu.t.+X@X@X@X=.) W Q W W W R K ^ Q W G 0 q W Q H K K ^ / ^ / K K ..^ W W Y y , 1 3 I l.l.! ^ +.X./ ~ =.=.*.OX@X@X+X@X@X@X@X@X@X@X@X+XOXOX| ` ",
"_ *.OX@X+Xu.+X+XOX+Xu.t.OX@X@X@X*.Y L G W W W ^ X.X.^ W H H H W Q K #.^ K ^  .U E K K X.H 4 y w O O w j l.l.y G / / Q / *.+X+X=.OX@X@X@X@X@X@X@X@X+XOXOX+X| ` _ ",
"` =.+X@X+X=.OX+X+XOXu.t.OX@X+Xt.( D q F W W J / X.#.^ W W W Q K Q Q X.K K K U k U Y W / D O $ # . @ a k.k.j 5 q H G H Q Q _ =.u.+X+X@X@X@XOXOX+X+X+XOX+X@Xu.` _ ",
"*.u.@X@X+X=.=.+X@XOX| t.t.t.| ~ F F D F H W H Q Q Q W Q Q F F W Q K E K K K  .k t p U W 0 X @ @   $ a j a @ $ i G D D D D L R u.+XOX@X@X@X=.u.+X@X+X@X@X@XOXOX` ",
"` u.+X+XOXu.OX+XOXOXu.t.u.u.~ L S D D D H H H H H F q G E G G J W G G E K K ,.B k p E J q # $ @   . # $ @ . w w 6 L D D 8 0 0 P ( | OX@X@Xu.u.+X@X@X+Xu.OX+X+X].",
"_ =.OXOXOXOX+X+Xu.+X+Xt.+Xt.L 0 0 q q S H G F H F q 0 D H H G H E U H H J K ;.B k G J K D w w $ X   . @ X @ w $ 5 q F D 0 8 8 8 S ~ t.@X@X+X+X+X@X+XOX| ` @XOX` ",
"` *.u.u.+X@X@X@X@X@X@X@Xu.( 0 8 8 7 7 q D F D D D F G H H K J G ;.M K K H H p t H J H J H D w 2 3 + @ $ 5 2 2 3 0 D D D 8 8 8 8 0 q ) u.@X+X+X@X+XOXOXOX@X@X` _ ",
"_ *.*.t.u.+X+X+X@X@X@Xu.~ D 8 8 8 7 8 q S D D D D F G G F G G K k k G G F F q q H G q H H F 8 8 q y 8 y 0 0 4 0 D D S 0 8 8 0 8 8 4 D Q OXu.OX@X@X+XOXOX@X@X` ( ",
"` ` ` ` t.OXu.OX@X@X+X` L 8 8 8 8 0 0 q q S D D D S F D S q F H k u q q D D D D H D 0 F G D D D D D D D F D D D S S 8 8 8 8 8 8 8 8 3 D ) | OX+X+X@X+X+X+X@X` _ ",
"=.*.` *.| | u.+X+X@X=.( S 8 8 8 8 8 8 8 8 S D D 0 q q q q D D F D q q D D D D D D F D D D D D D D D D D D D S D S 8 < < < 7 8 8 8 3 3 8 0 _ @XOX=.=.+X@X@X+XOXu.",
"*.=.=.u.OXu.OXOXOXOX_ L 8 4 8 8 8 8 7 7 8 q q q 0 q 8 8 q D D D F F F D D D D D D D D D D D D D F S D D D S 0 0 0 8 < < 8 8 8 8 4 3 3 2 8 _ @X+X` ` +X+X].| OX| ",
"` *.OX+X+X@XOXu.u.u.( 4 3 3 4 8 8 8 7 7 8 8 8 8 0 0 7 8 q q S S S S F D D D D S D D D F D D D D D q 8 D S 0 8 8 8 8 8 8 8 8 8 7 3 3 4 8 P ` +X@Xu.=.+XOX` ` ` ` ",
"( *.+X+X+X+X+X+X+XOX) 4 4 3 < < 7 8 8 7 < < 8 8 8 0 8 8 8 8 0 0 7 , 8 0 S S S S q q q S F D 0 8 0 8 < < 8 0 8 8 8 8 8 7 8 7 , , 2 8 q T | u.OXOX+X+X+XOXOX@Xu._ ",
"_ *.u.=.u.OXu.u.OXu.` ~ L 4 2 3 7 7 7 7 < < 8 8 8 8 8 8 8 8 8 0 7 , 7 8 0 0 q 8 7 8 8 q q q 8 8 3 3 < < 8 8 8 0 0 8 7 < 7 7 < , 8 L T ) t.OX+X+X@X+Xu.=.u.+XOX=.",
"=.*.t.i.OXu.` ` ` t.u.t.( L 0 4 7 4 < < 7 7 7 7 8 8 8 8 8 8 0 8 8 8 8 8 8 8 0 8 < 7 8 q 8 8 8 8 < 3 8 8 8 8 8 8 8 8 7 , , 3 0 8 P ( _ _ t.OX@X@X@XOX*.` ` u.=.=.",
"*.t.+X+X+XOX*.*.u.` t.OXOX| ( P 0 < < < 4 < < < < 3 3 8 8 8 8 8 0 8 8 8 7 8 8 8 7 8 8 8 8 8 8 8 8 8 8 8 0 8 3 2 < 7 7 < , 0 H _ *.u.+X+X+XOXOX+X+X+X+Xt.t.OX=.` ",
"` t.u.+X+X+X+X+XOXu.u.OX@X@Xt.) ~ T R Y 9 7 6 6 < < < < 4 4 4 4 7 7 8 7 7 8 8 8 8 8 8 8 8 8 8 8 7 8 < < 4 4 3 2 2 p h  .L R t.+X@X@X@X@X@Xu.u.i.u.u.+X+Xu.OXt.*.",
"` *.t.t.OX@X@X+X@X+XOX+X@X@Xu.u.u.OX+Xt.;.v v p p i 8 y 9 3 2 2 < < 6 7 8 8 7 8 8 8 7 7 7 8 8 7 , , < 6 6 6 y u h 2.n.M.r.u.@X+X@X@X@X@X+Xu.t.t.` | +X@X+Xu.t.t.",
"_ ` ` u.u.OXOXu.t.t.t.t.t.u.+X+X+X+X].y.g.L.E.Y.Z.C.M.v.4.h 3 2 , 7 8 8 8 < < < < < < < < 6 7 6 < 2 6 h h :.v.Z.L.(.<X/.d.t.OX+X+X@X@X+X+Xt.t.u._ _ +X@X@Xu.` ) ",
"_ ` t.OXu.*.` t.| | | | | | u.+X@XOX=.p.C.<X0X0X9X5X5X-X-XZ.2.p k p 6 6 , + , + + , + , 6 6 u p :.1.4.n.Z.Y.-X4X5X9X8X>Xd.t.t.t.u.@X@X@X@X+Xu.+Xu.t.+X@X+X| _ ) ",
"_ *.*.=.u.` ` ` ` ` ` | ` ` ` t.+XOX+X$XC.<X0X0X0XeXyXiXrXrX(.z.b.7.; # . o o . o o O # w f V v.!.-X4XwXeXyXeXeX0XwX7X*Xf.t.=.$.t.@X@X@X@X@X@X@X+X+X@X@X+X` _ _ ",
"_ _ =.=.u.t.` ` ` | | ` t.u.| +X+XOX+X@XC.;X0X0XtXuXyXuXiX4XL.z.C l ; - * - * & & # & - s b Z Z.5X9XwXrXiXpXuXyXtX0X8X*X$Xy.u.@X@X@X@X@X+Xi.+X+Xu.*.u.+X@XOXt.t.",
"` ` =.i.+X+Xt.` t.u.u.t.u.+X+X@X@X+X+X$XC.;X8X8XeXyXyXuXtXL.7.7.d * - ; > > ; ; ; * ; ; s z Z n.^.9XrXeXuXuXyXyXtX0X8X>Xf.i.+X@X@X@X@X+Xu.=.+X+Xt.) _ u.@X+Xu.=.",
"=.*.*.@X@X@Xu.u.OX+X@X@X+X+X@X@X@XOX+X$XC.;X0X0X0XeXuXuX9XB.1.C f - - - - - * ; * ; - ; ; s 2.z.7./.yXtXuXuXyXtXtX0XqX*Xd.u.+Xi.+X@X@X+X*.+X@X@Xt._ t.+X@X*.*.*.",
"` ` =.OX+X@X@XOXt.t.+X@XOXOX@XOXu.+X@X#XC.=X8X8X0XeXuXeX(.x.M B l = ; ; * - ; - ; ; * * ; > V Z <./.rXuXuXyXyXyXyXqX8X>Xf.i.@X+X+X@X@X@X+X@X@X@X+Xu.+X@X@Xu.t.` ",
"_ ` u.u.+X@X@X+X| | u.@XOXu.+XOXu.+X].i.N.=X6X0X0XtXuX5XZ.2.5.5.l = ; ; ; * * ; ; * ; * ; > d n 7.~.9XuXyXeXyXtXeX0X8X>Xj.+X@X+X+X+X@X@X@X@X@X+X+X@X@X@X+X+Xt.*.",
"` =.].+X@X@X+X+X@XOXu.@XOXOXOX@X@X+X*.q.N./.0X0X0XyXuX-X2.2.b.A.l ; * ; ; ; ; * ; * ; * ; > > n c.I.4XeXtXeXeXtXeX0X8X>Xj.i.@Xu.t.u.+X+X+X@X+XOXu.u.+Xu.i.+Xu.t.",
"` =.+X+X+X@X+X@X@X@X+XOX+X+X+X@X@Xt.` y.N.W.6X8X0XtXyX^.1.1.6.B l & ; ; * * ; ; - ; - ; > e > n c.Z.^.wXuXuXyXyXeX0X8X;Xd.t.u.| | u.u.u.u.+X+X+X+Xu.+X+X+X@XOXt.",
"t.u.+Xt.u.@X+X+X@X@X+Xu.u.OX@X@X+X].` y.N.E.3X8X0XtXyX~.C N C l : = ; ; ; ; ; ; * ; * * ; > e n c.B.^.eXuXiXiXyXeX0X7X*Xd.*.t.t.u.u.u.u.u.u.+X@X@X+X@X@X@X+X+X` ",
"t.t.u.| t.u.u.OX+Xt.| | | t.+X@X@X@XOXu.N.E.2X7XyXiXuX^.C C C c : * ; ; ; ; * ; ; ; ; * ; > s z 7.B.(.yXiXyXyXeXtX0X3X&Xd.%.@X@X+X@X+X@X@X@X@X@X@X@X@XOX=.+XOX=.",
"*.t.u.t.t.t.t.u.t.t.t.u.| | OX@X@X@X+Xp.N.W.1X7XqXyXuX(.C C C n : * = ; ; ; ; ; ; ; ; * ; > s n 2.B.-XuXiXyXyXyXyX0X6X%Xd.t.+X@X@X@X@X+Xu.+X+X@XOXu.+X| ` u.u.=.",
"` u.@X+Xu.u.u.u.t.t.OXOXt.| OX+X@X+X].#XN.W.2X8X0XqXiX-X2.C B c r & ; ; * * ; * * ; * * ; > s n 2.B.-XyXiXuXuXuXyX0X6X*Xd.t.i.@X@X@X@X+Xu.u.+X+X=.` u.OXu.` ` ` ",
"t.u.+X+X@X@X+X+XOXt.| t._ t.@X+XOXOX+X#XN.T.1X8X0XtXyX^.1.N N N : * ; ; * ; * ; ; ; ; ; ; ; d n 1.n.^.uXpXuXyXqX0X0X8X*Xj.i.+X].OX+X+X@X@X@X@X@X@X@X@X@X+XOX=.=.",
"*.u.+X@X+X+X+X+X@X+Xu.u.u.OX@X@X+Xu.OX#XN.T.,X6X0XqXyX/.Z m B 5.l ; ; ; ; * * ; - ; ; ; ; ; d b C n.(.eXuXuXuXrX0X0X6X&Xj.i.OXOX+X+X+XOX+X+X+X+X+X+X+X@X@X+Xu.=.",
"*.=.@X+X+X+X+X@X@X@X@X@X@X@X@X@X+Xt.=.a.N.T.,X6X8X0XtX/.<.n <.0.l * ; ; ; * ; * ; - - - ; s d z V n.(.eXyXyXiXrX8X6X2X%Xd.t.*.+X@Xu.u.t.t.t.u.u.t.=.t.+X@X+X=.=.",
"*.=.u.+X+X@X+Xu.OX+X@X@X@X@X+XOXu.t.=.w.4.H.,X6X8X8XqX^.B l B A.c * ; ; * ; * ; - - - - ; e d z V n.(.eXiXuX0X9X8X2X:XT.r.t.+X@X+Xt.t.u.u.t.t.t.| *.u.+X+X+X=.` ",
"*.=.+X+X+X+Xu.u.u.OXu.u.+X@X+Xu.u.OXu.y.9.H.*X,X6X0X0XE.C f <.F.M & ; ; * ; ; * ; ; * * ; s d z V n.^.tXuXyX8X0X8X1XW.G.r.=.+X@X+X*.*.*.u.t.t.| ` ` +XOXOXOX=.` ",
"` u.+X@Xu.*.t.u.OXOXt.| OX@X+X+X@X@X+Xp.N.J.W.*X2X8X0XR.m f <.F.M & ; ; ; * * ; ; * ; ; ; e d z n c.^.wXtXtX0X8X7X,XU.g.a.+X@X@Xi.=.*.` _ | | ` ` ` +X+XOXOX=.` ",
"*.u.+XOXt.` _ t.@X@X@X+X+X+XOX+X@X@X@X#Xg.H.W.*X1X6X0X^.<.l <.F.M & ; - * ; ; * ; * * * ; e d l n v.R.9XqX0X8X2X*XT.T.K.f.i.+X@X+X+X=.` ` ` t.u.u.u.=.+X+X+XOX=.",
"*.=.+X+Xu.t.t.OX@X@X@X+X@X+XOX+X@X@X@X+X4.b./.:X:X;X3XW.<.z B S.M & ; ; * ; * ; * ; ; * - = s f n x.Y.3X8X7X3X;XT.T.T.U.a.=.=.@X@X@Xi.=.t.u.OX+X+X+X+XOXOX+XOX` ",
"` OX@X@X@X@X@X+X+X+Xu.t.+X@X@X@X@X+X+Xu.>.n.W.<XW.T.*XW.7.x B S.c % : ; ; * ; ; ; * ; ; ; ; s l n 7.U.*X:X:X,XT.Z.T.P.g.p.` *.+X@X@X@X+X+X@X@X@X@X@X@XOXOXOX` ` ",
"` ` +X@X+Xu.+X@X+X+XOX| +X@X@X+XOXu.u.u.t.h.J.W.;X;X;XP.7.z N b.c * > > > e > ; > ; ; ; > e s f n 5.J.W.T.U.:XW.H.H.g.4.p.+X+X=.OX@X@X@X@X@X+X@X@X+XOX+X+X=.` _ ",
"` ` +X+XOX=.OX+X+X+Xu.=.OX+X+X+Xu.OXu.u.+Xr.9.G.W.W.W.B.Z n B 0.l % > > e > > = ; > ; > > > s d n 5.G.W.P.H.E.E.H.b.4.>.+X+X+X=.OX@X@X@X+X+X+X+X+X+XOX+X+XOX` _ ",
"` ].@X@X+Xu.=.+X@XOX` ` =.` =.` u.+X@X@XOX) ] 9.H.H.P.c.n M Z A r % > > > ; = > > > : : > > > l v 5.G.W.W.T.H.M.b.9.,._ ].=.*.+X+XOX@X@X@XOXu.+X+X+X@X@X@X+XOX` ",
"` =.+X+XOXu.OXOX+X+X=.` OX+XOXOX+X+X+Xu.i.u.t.>.4.b.G.5.l c C Z l : d d d d d d e d d r d d s d x 1.8.G.H.H.G.8.:.>.q._ u.+X+X+XOXt.+X@X@XOXu.+X@X@X+XOXOX@XOX].",
"` ` ].+XOXOX+X+Xu.+X+Xu.+X@X+X+X+X+Xu.*.OX@X+X) >.4.g.1.l l c Z Z 6.z.z.z.z.z.z.A A A C Z V f r x m <.8.8.9.g.,.! _ ` *.+X+X+Xu.t.u.+X@X@X+XOX@X+X+XOX*.` @XOX` ",
"` =.` OX+X@X@X@X@X@X@X@XOX` @X+X+X+X+X+X+XOXu.| *._ ~ ' l l z C L.)./.).).).).Q.Q.Q.I.D.b.z.x f z m ;.:.:.! q.t.u.+X+X+X+X+Xu.` t.OXOX+X@X+X+X@X+Xu.u.OX@X@X| _ ",
"` ` ` ` OX+X+X+X@X@X+X+X| OX@X@X@X@X+X+X+X+Xu.t.=.]._ ~ >.! ] ,.h.V.V.j.N.V.h.h.h.h.h.9.s.s.,.! q.q.q.q.) _ u.+X+X@X+X+X+X+Xu.=.OX+Xu.t.OXu.u.@X@X+X].+X@X@X` ( ",
"` ` ` ` ` OXu.OX@X@X+X` OX+X@X@X+X+XOX+X@X@XOXu.+X+XOXu.*.*.=.=.` ` ` _ _ _ ) ) _ _ ( ( _ ` =.OX+X+X+Xu.u.+X@X@X+X+X+Xi.@X+XOXu.OX+XOXu.t.u.u.@X+X@X+X+X+X@X` _ ",
"=.` ` ` | ` OX+X+X+X+X].].OX+XOXt.u.*.u.@X@X@XOX+X@X@X@X=.+X+X=.` ` +X@XOX].].+X+X=._ ` ` ` u.OX+X+X+Xu.u.u.+Xu.t.t.t.u.@X@X+XOX+X+X@X@XOX+X+Xu.=.u.+X@X@X+X=.` ",
"` ` ` ` u.` ` =.=.` ` ` ` ` u.` t.*.*.u.t.u.u.u.u.u.OXu.u.u.OX=._ _ OX` ` ` =.OX=.=.` ` t.t.*.=.=.t.t.t.u.t.u.*.=.*.t.u.u.=.u.OXOXu.OXu.u.u.u.u._ _ u.u.` ` ` ` ",
"( ) ` ` ` u.` ` ` _ ` ` ` ` ` ` u.*.=.*._ _ *.u.t.` ` ` ` *.*.=._ _ ` _ ( _ ` *.` ` ` ` *.t.*._ $._ _ t.*.` _ *.u.*.=.t.` _ ` u.=.` ` ` *.` t.t._ ) ` _ ) _ ( ( "
};
