/* XPM */
static char *__resized[] = {
/* columns rows colors chars-per-pixel */
"80 80 224 2 ",
"   c #0A0709",
".  c #0D0B0A",
"X  c #120E0D",
"o  c #141207",
"O  c #10110D",
"+  c #13120C",
"@  c #151C0C",
"#  c #181B08",
"$  c #161412",
"%  c #1C1C15",
"&  c #1C1918",
"*  c #24170F",
"=  c #231612",
"-  c #261917",
";  c #2B1C17",
":  c #271A18",
">  c #291B19",
",  c #301E17",
"<  c #301F1C",
"1  c #1A2506",
"2  c #1D2B07",
"3  c #1B250A",
"4  c #1E2C09",
"5  c #1F3007",
"6  c #1D2314",
"7  c #20290A",
"8  c #202E09",
"9  c #223409",
"0  c #29340F",
"q  c #263B0A",
"w  c #293E0B",
"e  c #262714",
"r  c #33211D",
"t  c #3D271E",
"y  c #3C2D1B",
"u  c #2C3412",
"i  c #283916",
"p  c #373918",
"a  c #292D27",
"s  c #362420",
"d  c #3A2622",
"f  c #3D2B23",
"g  c #302F2F",
"h  c #3B3921",
"j  c #353836",
"k  c #41391C",
"l  c #422D24",
"z  c #432F28",
"x  c #443226",
"c  c #4B3225",
"v  c #443B26",
"b  c #463328",
"n  c #49342A",
"m  c #4D3A2C",
"M  c #513626",
"N  c #523B2E",
"B  c #5B3F2E",
"V  c #4B3B30",
"C  c #553C31",
"Z  c #593B34",
"A  c #603F3C",
"S  c #2B430B",
"D  c #2E4A0C",
"F  c #314E0D",
"G  c #34540E",
"H  c #365A0F",
"J  c #395D0F",
"K  c #2A4511",
"L  c #2C4B13",
"P  c #2D491B",
"I  c #374916",
"U  c #2F5118",
"Y  c #345512",
"T  c #395412",
"R  c #365911",
"E  c #395C10",
"W  c #32531C",
"Q  c #355C1B",
"!  c #3A591E",
"~  c #3C620E",
"^  c #366114",
"/  c #3C6311",
"(  c #36621A",
")  c #39651B",
"_  c #3D6D1D",
"`  c #3F711E",
"'  c #354825",
"]  c #395622",
"[  c #3A4332",
"{  c #3E6625",
"}  c #3F7220",
"|  c #41471A",
" . c #41650C",
".. c #426B0F",
"X. c #46710E",
"o. c #4A750F",
"O. c #4D7C0F",
"+. c #507E0F",
"@. c #426B11",
"#. c #416718",
"$. c #477617",
"%. c #4B7914",
"&. c #41751F",
"*. c #43791F",
"=. c #517F11",
"-. c #494828",
";. c #49492D",
":. c #435923",
">. c #475926",
",. c #515829",
"<. c #5B4234",
"1. c #594535",
"2. c #5D493A",
"3. c #445734",
"4. c #5B5636",
"5. c #664837",
"6. c #62413B",
"7. c #644B3B",
"8. c #66543C",
"9. c #685A3C",
"0. c #79523C",
"q. c #466725",
"w. c #436E22",
"e. c #536A2C",
"r. c #427620",
"t. c #4B7426",
"y. c #457C21",
"u. c #4A7D24",
"i. c #4D792A",
"p. c #54782B",
"a. c #526436",
"s. c #5A7231",
"d. c #5E7932",
"f. c #6C623E",
"g. c #67693C",
"h. c #627B36",
"j. c #484A48",
"k. c #4D5447",
"l. c #515451",
"z. c #664441",
"x. c #694D40",
"c. c #6D5442",
"v. c #695944",
"b. c #765944",
"n. c #735B49",
"m. c #5B6156",
"M. c #756547",
"N. c #756A42",
"B. c #7B614D",
"V. c #6E7142",
"C. c #7B7446",
"Z. c #7A6651",
"A. c #825A3F",
"S. c #8A5E43",
"D. c #865E53",
"F. c #8F6145",
"G. c #83664C",
"H. c #86694E",
"J. c #886A4F",
"K. c #84754B",
"L. c #846B55",
"P. c #8C6D52",
"I. c #91665C",
"U. c #8F7253",
"Y. c #8A7458",
"T. c #947455",
"R. c #95765C",
"E. c #95795C",
"W. c #9A7B5B",
"Q. c #9D6E64",
"!. c #8F7964",
"~. c #947761",
"^. c #967A64",
"/. c #9A7C65",
"(. c #9A7E69",
"). c #A07865",
"_. c #A5756B",
"`. c #52830F",
"'. c #568A0F",
"]. c #578A0F",
"[. c #4C841F",
"{. c #5D9111",
"}. c #619611",
"|. c #669D12",
" X c #6BA512",
".X c #6EA912",
"XX c #71AB11",
"oX c #75B213",
"OX c #79BA13",
"+X c #478022",
"@X c #498423",
"#X c #4C8A24",
"$X c #55832A",
"%X c #58872C",
"&X c #9C855A",
"*X c #9E875A",
"=X c #A4875E",
"-X c #9C8061",
";X c #9D816B",
":X c #A38363",
">X c #A88662",
",X c #A58D62",
"<X c #AC8A63",
"1X c #AA896A",
"2X c #B08D67",
"3X c #B18F6B",
"4X c #A59062",
"5X c #B3916D",
"6X c #A78B73",
"7X c #AE9077",
"8X c #B69472",
"9X c #B99674",
"0X c #BB9877",
"qX c #B6967C",
"wX c #BC9B7C",
"eX c #C09E7E",
"rX c #B69A80",
"tX c #BE9E81",
"yX c #BEA286",
"uX c #C09F82",
"iX c #C2A285",
"pX c #C5A689",
"aX c #C7A88B",
"sX c #C8A98C",
/* pixels */
"U ( &._ &.r.` &.&._ _ &.&.*.&.&.` r.&.&._ _ ` y.y.&.*.&._ } _ _ &.r.&.&._ y.&._ ( ) ` ` ` ` ` ` ` _ _ ` } } y.*.` ` *.` ` _ ` *.r.&.&.r.&._ _ ` ` ` y.` &.&._ Q ",
") _ &.&.r.r.` ` ` _ ` y.y.&.*.` } } r.` ` ` &.} ` ` ` ` } r.r.y.y.y.&.` &.r.+Xy.y.} &.&.` *.} _ ) ) _ y.y.} ` ` ` y.` ` ` ` ` y.r.` &._ _ r.y.y.y.y.` _ &.y.&._ ",
"*.*.&.*.y.y.&.&.&.&.y.+Xy.y.y.r.r.y.} } ` y.y.y.} } ` _ r.y.#X#X@X+Xr.` &.y.@X#X#X@Xr.y.+Xy.` ( U Q ` y.+Xy.y.} } y.` ` ` y.y.y.r.&._ &.r.+X#X#X#X+X&.` &.y.y.*.",
"&.*.@X#X@Xy.&.r.*.&.&.+X@X@X#X#X@X+X} } y.@X@X@X+X+X+X@X@X@X@X@X@X@X+Xr.&.+X@X+X+X+X@X#X@X+X*.Q i Q ` +X@X#X#X#X#X+X} ` y.@X#X+X+Xy.+X@X@Xu.+X@X@X+X+Xy.&.+X*._ ",
"_ r.+X+X@X#X@X+X+Xy.y.+X#X#X#X@X@X#X+X+X#X#X#X#X#X#X#X#X@X+Xr.+Xy.r.@X@Xy.+X+X@X+X+X+X@X@X#X} ] i { +X@X@X#X@X#X#X@X+Xy.@X#X#X#X@X#X#X#X@Xu.y.+Xy.y.@X@Xy.+Xr.&.",
"&.&.&.r.+X#X#X#X@X@X+X+X#X#Xy.y.+X#X#X#X#X#X#X#X#X#X#X#X@Xr.r.y.r.r.@X#X#Xr.+X#X@X+X` } +X#X+XQ P { @X@X#X#Xy.+X+X#X#X#X#X#X#X#X#X#X#X#X+Xy.y.y.` &.@X#X@Xy.r.r.",
"_ _ &.*.y.y.y.y.y.y.r.y.y.y.@X@X@X@Xy.y.y.y.y.+X@X#X#X@X@Xy.r.y._ } +X#X#Xy.y.y.+X} ` y.+Xy._ Q U ( } } } +X@X#X@X@X+Xy.y.y.+X@X#X#X#X#X@Xr.r.r._ &.+X#X#Xy.r.) ",
"_ &.&.y.y.&.r.r.} } } } _ } y.@X@X+Xy.r.y.y.y.r.y.#X#X#X#X+X+X+Xr.r.@X#X@Xr.` ` y.y.} +Xy.` ) W P { } } } } } @X#X+Xy.y.} y.y.} y.@X#X#X#X@X+X@Xr.r.+X#X@Xr._ ) ",
"_ _ &.+Xy.` } } } } } ` } ` _ y.+X+X@X#X#Xy.*.` *.@X#X#X#X#X#X#X@X@X#X#X@X` r.y.+Xr.r.y.y.` _ W i ( ` } } } } } +X+X@X#X#X+X} } y.@X#X#X#X#X#X#X@X@X#X#X@X` _ _ ",
"_ ` *.y.y.} } } } _ r.} r.y.} +X@X+X#X#X#X@Xy.@X#X#X#X#X#X@X@X@Xr.r.r.@X#X+X@X@Xy.y.y.y.y.y.` Q P _ ` ` } y.} +X@X+X#X#X#X@X+X@X#X#X#X@X@X@X@X@Xy.} y.@X#X+Xy.&.",
"` &.r.y.+X+X} } r.y.y.r.y.+X@X#X#X@X#X#X#X@X@X#X#X#X#X@X*.y.+X@Xr.) } y.#X@X#X#X@Xr.&.y.@X@X} _ { ` } } +X+X@X#X#X@X@X#X#X@X@X#X#X#X#X@Xy.y.+X@X} { _ y.#X@Xr.*.",
"&.&.y.#X#X#Xy.y.y.@X#X#X@X@X#X#X#X+X#X#Xy.+X#Xy.@X#X#X@X&.@X#X#Xr._ r.@X#Xr.r.#X#Xy.r.#X#X#Xy.y.y.@X+Xy.} @X#X#X#X+X#X#Xy.+X@X+X@X#X#X@Xr.+X#X#X*._ ` +X#Xr.&.&.",
"` ` &.y.#X#X#X+X} y.@X#X+X+X#X+Xy.@X#X#X@X#X#X@X@X#X#X#X@X#X#X#X@Xy.@X#X#Xy.y.+X+Xy.y.y.#X#X#X+X} +X} ( { ` @X+Xy.@X#X@X@X#X#X@X@X#X#X#X@X@X#X#X@Xy.@X#X#Xy.&.&.",
"_ ` *.+X@X#X#X@Xr.r.y.#X+Xy.@X+Xy.#X+Xy.#X#X#X@X@X@X#X#X#X#X#X#X@X#X#X@X@X@X@X+X+Xr.y.y.@X#X#X@X` } } ( W Q +Xy.y.#X+Xy.@X#X#X+X+X#X#X#X#X#X#X#X@X#X#X#X@X+Xr.&.",
"&.r.+X#X#X#X@X@X#Xy.+X@X+X+X+X#X#X+X&._ y.#X#Xr.r.y.@X@X@X#X#X[.y.y.y.y.u.+X#X#X@X+X@X@X#X#X@X@X#Xy.} y.] ' w.y.#X+X} } y.#X#Xy.r.y.@X@X#X#X#X+Xy.y.+X+Xy.@Xr.y.",
"&.*.#X+X#X#X@X@X#X#X@X+X@X@X@X#X#Xr.&.w.r.y.r.r.r.y.y.y.y.y.+X@X@X@X@X} ) $.$.) ) y.#X+X@X#X#X@X#X#X#X+X{ ] ' r.#Xy.} } } y.y.} } y.y.y.y.y.@X@X@X+X+X@X#X#X+X*.",
"&.*.@Xr.y.#X@X@X@X#X@Xy.y.+X@X#X#Xr.r.r.r.y.r.r.r.+Xy.r.r.y.@X#X@X@X%.$.X.+.O...$.*.@Xw.*.#X@X@X#X#X+Xr.} { j { +X} } } } } y.} y.y.y.y.y.r.+X#X#X#X#X#X#X#X+X*.",
"*.r.r.&.r.+Xy.+X@Xr.} } } r.@X#X#X#X+X+X+X+X@X#X@X#X#X#X#X#X#X@Xu.y.=.|.oX.X X.XoX|.=.R ( y.*.+X+Xr.} } } { ' { #X#X@Xy.@X@X#X#X@X#X@X#X#X#X#X#X#X#X#Xy.r.@X+X*.",
"&.r.+Xr.r.r.r.y.y.r.r.y.} } y.#X#X#X@X+Xy.y.@X#X#X#X#X#X@X@X*.) [.|.|..XoX X|. XOXoX|.{.%.^ &.*.y.r.r.y.} { ' ] } @X@X+Xy.+X#X#X#X#X#X@X+X+X#X#Xy.y.+Xy.r.r.r.*.",
"_ y.#X+Xy.y.y.y.r.y.y.@Xr.} +X@X#X@X#X@Xy.y.+X#X#X#X#X+X&.*.$.E }.OXoX.X}.].O.`. XXX XOX}.J ) ` r.r.y.@X} ( P P { y.#X@Xy.y.+X@X#X#X#X@Xy.y.+X@X*.` +Xy.r.&.&.&.",
"r.y.+X@X#X#X@X+X@Xr.} } } r.#X@X+X+X@X#X#X#X#X+X@X@X@Xr.( o.}..X.X X X|.`.H H X.+.`.`.`.].`.H Q +Xr.` ` ` ) P W { +X#X#X#X#X#X+X+X@X@X#X#X#X#X#X#X#X#X#X#Xy.*.*.",
"r.y.@X#X#X@X@X#X#X@Xy.r.y.@X#X#X@Xy.y.#X@X@X+X@X@X+X&.#.o.{..XoX}.X. .o.o.J J X.o...~ G  .].`.=.[.} _ y.y.w.[ ] { } +X#X@X@X+X@X@X@X+X+X@X@X@X@X#X@X+X#X#X@Xy.*.",
"&.y.#X@X+X+X@X@X#X#X#X#X#X#X#X#X@Xr.y.+Xr.&.r.@X@X&._ $.]. XXX|.o.F 2 S ~ / ..X.X. .G 8 D '. X.X{./ ^ *.#Xi.k.{ _ ` } +X+X} } #X#Xy.+X} } } y.+Xy.r.&.@X#X+Xy.*.",
"*.*.y.+X#X#X@X+Xy.@X#X#X#X#X@Xu.y.r.r.r.r.r.+X@X&./ '.{.`.O.{..X+.H G H J J J ~ X. .J D J `.`.`.`.`...R ( q.m.a.` ` +X} } } @X#X@X} y.y.y.y.y.} ` &.y.+X+X@Xr.&.",
"&.*.+X@X@X+Xy.y.y.+Xy.y.@X#X@Xy.y.+Xy.r.y.@Xy.$.#. .+.O.~ ~ %.|.+. . .E R E / /  ./ / E @.O.~ ..o.X.J F ! [ k.a.*.+Xy.` +X+X#X#X@X` } } +X} ` } ` } +X+X[.@Xy.` ",
"&.*.@X#Xy.} y.y.@Xy.y.} @X@X@X@X#X#X@X@X+X@X*.E J X.J F S Y ..'.O.@.~ H E @...E E J E ~ ..O.J Y G F F ! 3.j.[ { +X#X@X[.#X#X@X#X@X} } ` ` } ` ` ` } @X@Xy.[.` ` ",
"&.y.@X+X*._ _ y.#X#X@X@X#X@Xy.@X#X#X#X+XQ @.%./ J E E D 9 D ..`...E J ....J S q w D E ....E F q 9 S I 3.l.k.:.H ^ [.#X#X#X#X@X#X#X@X} ` ` ` } +Xy.y.y.+X@X@X+X` ",
"&.y.@X+Xy.y.&.*.#X#X#X@X#X@X+X#X#Xy.$.&.R J @.E E E E F w S H ../ R R ....G D S S G / ../ R D q 1 9 ' j.j.3.@.~ ^ *.[.` @X+X+X@X#X#X@X} } +X@X@X@X@X@X+X+X#X[.` ",
"&.y.#X#X#X#X#X#X#X@Xy.y.y.#X#X#X+X) R E R R R Y R J E R F q w R E E E J ~ / ~ / J ~  ./ R Y L w 2 6 j l.[ K E X.O...^ Q ` +X` @X@X#X#X#X#X#X#X#X#X#X#X@X+X+X` ` ",
"&.&.+X#X@Xy.@X#X+X@Xy.r.@X#X#X#X&.L S F R R R / ..../ R G G G E R E  ./ J ~ | I T J E @.G 9 u 6 @ & j j.a @ 9 W ~ J ~ / ` @X@Xy.+X#X#X#X#X#X#X#X#X@X+X+X@X} ` ` ",
"_ *.+X#X+X*.+X@X@X+Xy.r.y.@X@Xr.Q S w F R R R  ... ./ E E E E E E E  .E J J I k I F Y ~ D @ & $ X & g j & O @ q G F G J ^ _ ` +X+X#X#X#X#X+X@X#X#X+Xy.@X#Xy.` ` ",
"&.y.#X#X@Xy.*.+X#Xy.r.r.y.r.} Q L F S S R R G G J J E E R S D R E E R E J J | k y y I R q @ $ $   X a j & . & i D w S S S S U [.@X+X#X#X@X+X} @X@X#X#X#X#X#X` ` ",
"` y.@X@X+Xy.+X+X+X+Xy.` +Xy.Q K w S S D G G F G G S w F J D D J G G F T J J ,.B k p F T w + & &   . $ & O O : 6 6 S S S 9 9 S L ( ` @X#X#Xy.y.@X#X#X@X*.+X#X+X[.",
"` *.y.+X+X+X#X@X+X@X@X*.@X&.K w q q w S G F F F F w w S G G G G | I F G J J | B k F J J S e e % O . X + O @ 6 & 6 S D S q 5 9 5 w Q &.#X#X@X@X@X#X@X@X` ` #X+X` ",
"_ &.y.y.+X#X#X#X#X#X#X#Xy.Q 9 9 9 2 8 q D D S S S S G G G H H F -.-.J H G T k y G H G H G S 7 3 3 @ $ & 6 3 3 2 q S S S 9 9 9 9 9 w ) y.#X@X@X#X@X+X+X+X#X#X` ` ",
"` ` *.` y.#X@X@X#X#X#X+XQ S 9 9 q 8 9 q w S S S S F F F S D F H k k F F D D w w H D w G G S q 0 w 9 9 i q 5 5 q S S S 9 9 9 q q 9 9 S ( +Xy.+X#X#X@X[.+X#X#X` ( ",
"` ` ` ` } +X+X+X#X#X@X` K 4 9 9 9 q q q q S S S S S S S w w D G p u w w w S S D G S q D F S S S S D S S S D S S S w 9 9 5 9 9 9 9 5 2 S ) ` +X@X@X#X@X@X@X#X` ` ",
"*.` ` &.` ` y.@X@X#X*.Q S 9 9 q 9 9 9 9 9 w S S w w w w w S S D S w w S S S S S D S S S S S S S S S D S S S S S w 9 2 2 2 9 9 9 9 5 9 4 q _ #X+X*.` #X#X@X@X+X` ",
"*.&.*.y.+X+Xy.+X+X@X_ K 9 4 9 9 9 9 8 8 q w S q q S 9 9 S S S S D D D D S S S S S S D S S S S S S S S S S q q q q 9 2 5 9 9 9 9 5 4 2 2 9 _ #X@X` ` #X@X[.} } ` ",
"` *.+X@X@X#X+X+X*.y.( 5 4 4 9 5 9 q 8 2 9 9 9 9 q q 8 8 q w w S w S S S S S S w S S S S S S S S S w 9 w w q 9 5 9 9 9 9 9 9 9 2 4 4 4 9 L ` @X#X+X*.@X*.` } +X` ",
"( ` @X+X+X@X@X@X@X+X( q 5 4 1 4 8 9 9 8 1 2 q 9 9 q 5 9 9 q q q 7 1 8 q w S S q q q S S S S q 9 w 9 2 2 9 9 9 9 9 9 9 8 9 8 2 2 4 8 w U ` y.y.+X@X@X#Xy.+X#Xy._ ",
"_ &.y.y.y.+Xy.y.y.y.` Q K 5 4 4 8 8 9 8 2 2 9 9 9 q 9 9 9 9 9 9 8 7 8 9 q q q q 8 9 q q w w q 9 2 2 4 5 9 9 9 9 9 9 8 2 2 2 2 1 9 K U ) y.+X@X#X@X@Xy.y.r.#Xy.&.",
"*.*.r.y.+Xy.&.` } } y.y.( K q 5 8 2 2 2 8 8 2 9 9 9 9 9 9 9 9 9 9 9 9 9 9 9 q 9 2 2 9 q 9 9 9 9 1 5 5 9 9 9 9 9 9 8 8 2 1 5 q 9 L ) _ &.} +X#X#X#X+X&._ &.y.y.*.",
"` r.@X#X@Xy.r.&.y.r.r.y.y.} ( L q 2 2 2 5 2 1 2 2 2 5 9 9 9 q 9 9 q q 8 2 9 9 9 8 9 9 9 9 9 9 9 9 9 9 9 w 9 4 1 2 8 8 2 1 9 G _ r.y.y.@X@X+X+X@X@X@X+Xy.*.+X*.` ",
"&.r.+X+X@X#X@X+X+Xy.y.+X#X#X*.( Q U Y L 0 0 7 1 1 2 2 2 5 4 5 5 8 8 9 8 2 9 9 9 q 9 9 9 9 9 9 9 5 9 4 2 9 4 4 3 e i p -.K Q &.@X#X#X#X#X@Xy.y.@Xy.r.#X+Xy.+Xy.` ",
"&.&.r.r.+X#X#X#X@X+X@X@X#X@Xy.y.*.@X@Xr.-.v v p i q 0 0 u 4 4 1 2 2 2 8 9 9 9 9 9 8 2 5 9 9 9 8 1 1 3 4 4 7 i u h 2.n.M.e.r.@X#X#X#X#X#X@Xu.r.r.} r.@X#X#Xr.r.r.",
"_ _ r.r.y.y.+Xy.y.r.} y.y.y.@X#X#X@X[.t.f.L.E.Y.Y.Z.M.v.4.h 4 4 2 2 9 9 9 8 2 2 2 2 2 2 2 2 2 7 4 4 e p h ;.v.Z.L.^.1XW.s.r.+X@X@X#X#X#X@Xy.r.r._ &.+X#X#Xy.` ) ",
"_ ` r.y.y.&.&.r.} } } } _ } y.+X#X+X*.i.K.:XwXwXqX7X6X6X!.Z.1.f p k 7 7 1 # 1 # # 1 # 1 7 e u p ;.;.2.Z.Z.Y.;X6X7XqX0X,Xs.r.r.*.y.@X#X#X#X+X+X+Xr.r.@X#X@Xy.) ( ",
"_ &.&.*.y.&.&.` } ` ` } ` ` _ y.@X+X@X%XC.:XwXwXwXtXiXpXyXyX(.2.c.7.< X o o o X o o O % r f V v.!.;X6XqXtXuXuXtXtXrX9X=Xd.&.&.&.r.#X#X#X#X#X#X#X@X@X#X#X@X` _ _ ",
"_ _ *.*.y.r.` _ _ r.} r.r.y.y.+X@X+X#X#XC.:XwXwXtXpXiXpXpX6XL.x.Z l > > > - = = = % % : s z Z Z.7XqXrXyXsXsXpXuXuXtX9X=Xh.y.y.@X#X#X#X#X@X+X@X@Xy.r.r.@X#X+Xy.&.",
"&.&.*.+X@X+X&.&.r.y.y.r.y.+X+X#X#X@X@X%XC.:XwXwXtXiXiXpXiXL.7.7.d - : > < < > > - - > > s f Z B.^.qXiXtXaXaXpXuXuXwX0X,Xh.u.@X#X#X#X#X@Xy.y.@X@Xr.) w.y.#X+Xy.*.",
"&.&.r.@X#X#Xy.y.+X@X#X#X@X+X#X#X@X[.#X%XC.:XwXwXwXtXpXpXqXZ.Z C d > - - > > > - : : : > > s 2.z.7.;XiXtXuXaXuXuXuXwXeX=Xs.y.#Xy.@X#X#X@X&.@X#X#Xy._ &.@X#Xr.&.&.",
"&._ r.+X#X#X#X+Xr.r.@X#X+Xy.#X@Xy.@X#Xp.C.-X9X0XwXtXaXtX(.8.N B l > - : > - > > : > : - > r n Z <./.uXpXuXuXpXuXuXeXeX4Xd.u.@X+X@X#X#X#X+X#X#X#X+Xy.@X#X#Xr.r.&.",
"_ &.*.y.@X#X#X@Xr.r.y.#X+Xy.@X+Xy.#X[.u.N.-X9XwXwXiXaX6XZ.2.<.5.c - > : - > - > - : > - > < d n 7.~.rXpXpXuXpXuXuXwX9X,Xh.@X#X@X+X@X#X#X#X#X#X@X@X#X#X#X@X@Xr.r.",
"&.r.@X@X#X#X@X@X#Xy.y.#X+X+X+X#X#X+X&.q.N./.0XwXwXiXpX;X2.7.c.S.c - : > - > - > > > > - > r r n c.L.6XtXuXuXuXuXtXwX9X,Xh.@X#Xr.&.y.@X#X#X#X#X+Xy.y.@Xy.@X@Xy.r.",
"_ r.#X@X#X#X@X@X#X#X@X+X@X@X@X#X#X*.` t.N.W.8X0XwXtXpX^.Z <.5.B l ; > - > - > > - - > > > < r n c.Z.^.tXuXaXuXuXtXwX9X>Xs.r.y.r.} y.y.y.r.+X@X@X@X+X@X@X@X#Xy.r.",
"r.y.@Xr.y.#X@X@X#X#X@Xr.+X@X@X#X#Xr.*.t.N.W.5X0XwXuXuX^.C C N z < - > > : : > - : > : > : < r n c.B.~.tXpXpXpXiXtXwXeX=Xe.&.&.&.y.y.y.y.r.y.@X#X#X#X#X#X@X#X+X[.",
"r.r.y.} r.y.y.y.@Xr.} } } r.@X#X#X@X@Xi.N.T.5X8XiXaXpX^.C C C c , - < > > > - > : : > > > < s z 2.B.(.iXsXiXiXiXuXwX5X&Xs.$.#X#X@X#X@X#X#X#X#X#X#X#X#X+X` +X+X` ",
"r.r.y.r.r.r.y.y.r.r.r.y.} } +X#X#X#X@X@XN.E.2X0XeXpXaX(.1.C C c , - ; > > : > : : : : : > < s n 7.B.;XpXpXpXiXiXuXwX9X&Xs.t.@X#X#X#X#X@X@X@X@X#X+X} +X} } +X+X` ",
"&.r.#X@Xy.y.y.y.r.r.+X+Xr.} @X@X#X@X@X$XN.W.2XwXwXwXaX(.1.C B c , ; - > : > - > : : : : > < s n 2.B.;XpXpXpXpXiXiXwX8X=Xs.&.u.#X#X#X#X@Xy.r.@X@X[.` +X+Xy.` ` *.",
"y.y.+X#X#X#X@X@Xy.y.r.r.} r.@X@X+X+X@X$XN.R.2X9XwXuXuX/.<.C C N , = > > > > - > > : : : > ; d n 1.n.(.pXsXpXiXiXwXwX9X=Xd.@X#X+X+X@X@X#X#X#X#X#X@X#X#X#X#X+X` *.",
"r.r.@X#X@X@X@X@X#X@Xr.y.y.y.#X#X+Xy.+X$XN.T.<X9XwXeXuX/.Z m C 5.l - > > - > > - > > : : > ; d b V n.(.tXpXpXpXyXwX0X9X*Xh.*.+X@X@X@X+X+X@X@X@X@X@X@X@X#X#X+X+X` ",
"&.y.#X@X@X@X@X#X#X#X#X#X#X#X#X#X@X*.*.p.N.T.<X8X0X0XuX(.<.n B 0.c = < > - > > - > > : : < r d z m n.(.tXiXiXpXyXwX8X3X&Xs.w.&.#X#Xy.y.} } y.y.y.y.} } @X#X@X[.*.",
"&.*.y.+X@X#X@Xy.+X@X#X#X#X#X@X@X*.*.*.w.4.H.<X8X9XwXeX^.Z z B A.c = > > > - > > > > : : > < d z V n.(.tXpXpXwXwX9X3X>XT.e.r.@X#X+X} y.y.y.y.y.} ` ` +X@X+X@X` ` ",
"&.*.+X@X@X+Xy.y.y.+Xy.y.@X@X@Xy.y.@Xr.t.9.J.=X2X8XwXwX^.N f B S.M = - : : : : : : > - : > s d z V b./.tXpXuX0XwX0X2XW.N.s.*.#X#Xu.&.&.r.r.r.r.} ` } @X+X+X+X` ` ",
"&.r.#X#Xy.&.r.+X@Xy.y.} y.#X@X@X#X#X#Xi.g.P.W.=X5X9XwXR.m l 6.F.M = - : - > : ; > : > > > r d z n c.^.rXuXuXwXwX9X<XU.f.p.$X#X#X@X&.&.&._ r.r._ ` } @X@X+X+X[.` ",
"&.y.@X+Xr._ _ y.#X#X@X@X#X@X@X@X#X#X#X$Xf.G.W.=X2X8XwX^.1.l <.F.M = > > : > > > - > - > > r s l n v.~.qXeXwX9X3X=XT.T.U.s.@X@X#X@X@X*.&.` } r.y.} +X+X+X@X@X+X` ",
"&.y.@X+Xy.y.r.y.#X#X#X@X@X@X+X@X#X#X#Xu.4.M./.<X>X=X5XW.<.l B S.M = > > : > - : > > - - > > s l n x.Y.5X9X9X5X:XU.U.W.K.p.*.*.@X#X#X+Xr.y.y.+X+X@X@X@X+X+X@X+X` ",
"` y.#X#X#X#X@X#X#X+Xy.y.+X#X#X#X#X@X@Xy.>.M.T.1XW.T.=XR.7.z B S.M * > > : : > > > > : : > < s l m 7.P.=X<X<X<XT.G.T.U.f.t.&.r.+X@X#X#X#X@X#X#X#X#X#X#X+Xy.y.` ` ",
"` ` +X#X@Xy.@X#X@X@Xy.r.@X#X#X@X+X+Xy.y.r.g.J.E.:X:X>XU.7.b N 0.M = < r < < < ; < > > < > < s d n 5.J.W.U.U.>XE.J.J.c.4.u.#X@X*.+X#X#X#X#X#X#X#X#X@X+X+X+X[.` ) ",
"` *.@X#X+X*.+X@X@X+Xy.r.y.@X@X+Xy.y.y.y.+Xe.9.G.R.=XW.B.Z n Z 0.l = < r r < < ; < > ; ; r r s l b 7.G.W.P.H.W.R.G.b.2.>.@X#X@X*.+X@X#X#X#X@X+X@X@X@Xy.#X#Xy.` ` ",
"*.*.#X#X@Xy.*.+X#X+X` ` y.y.*.*.y.@X#X#X+X) -.9.G.H.J.c.c m <.A t = ; r < ; , ; , , < , < < r d v 5.G.W.W.T.J.M.0.8.e.&.y.r.&.@X#X+X#X#X#Xy.r.@X@X#X#X#X#X@X+X` ",
"` *.@X#X+Xy.+X+X+X@Xy.` +X@Xy.y.@X@X@Xy.+Xr.r.>.4.b.G.7.z b N Z z < d d d d d d < t d t d d s d x <.8.G.G.G.G.8.-.>.#.w.y.@X@X@X+Xr.@X#X#Xy.y.@X#X#X@Xy.y.#X+X[.",
"` &.y.+X+X+X#X@Xy.@X@Xy.+X@X#X@X@X@Xy.r.+X#X@X( :.4.9.1.z l c Z Z Z z.z.z.z.z.z.A A A Z Z N f t x m <.8.8.9.f.,.! _ ` r.+X#X#Xy.y.y.+X#X#X@X@X#X#X@X+X` ` #X+X` ",
"` *.*.y.+X#X#X#X#X#X#X#Xy.y.#X@X@X@X@X@X@X+Xy.r.` &.! I z z z Z I._._.)._._.Q.^.Q.Q.P.D.n.z.b d l m -.;.' :.w.r.r.@X@X+X@Xy.y.r.y.@Xy.@X#X#X@X#X@Xy.y.+X#X#X} ` ",
"` ` ` *.y.#X@X@X#X#X#X+Xy.y.#X#X#X#X@X@X@X@Xy.r.*.*.` ) ! I :.>.h.V.V.h.N.V.V.v.V.g.g.9.a.a.:.] q.q.q.q.{ _ y.@X#X#X#X+X#X@Xr.&.y.@Xy.r.y.y.+X#X#X@X[.@X#X#X} ( ",
"` ` ` ` y.y.y.+X#X#X@X*.y.@X#X#X@X@X+X+X#X#X@Xy.+X#X+Xr.&.r.*.r.` ` ` _ _ _ ) ( ) _ Q ( _ ` *.[.@X@X+X*.y.@X#X#X@X@X+X@X#X#X+Xy.+X@X+Xr.r.y.y.@X#X#X@X@X#X#X` ( ",
"*.` ` ` y.` y.+X@X@X@X*.y.+X@Xy.r.y.r.y.#X#X#X+X@X#X#X#Xy.@X@Xy.` ` @X@X[.y.[.@X@X*.` ` &.` y.@X@X@X@X+Xy.+X@Xy.r.r.r.y.#X#X#X+X+X#X#X#X+X#X@Xy.` *.#X#X#X+X[.` ",
"_ _ _ ` ` ` y.*.*.` *.*.*.y.*.r.&.t.r.y.r.y.y.y.y.y.y.y.y.y.+Xr._ _ +X*.` ` *.+X[.&.` ` &.&.*.*.*.*.&.*.*.y.&.r.y.r.r.r.y.y.y.+Xy.r.+Xy.r.y.y.y.` ) y.y.` ` ` ` ",
"( _ ` ` ` y.` _ _ _ _ ` ` ` _ ` *.&.*.&._ _ r.r.r.&.&.&.&.&.r.r._ _ ` _ ( _ _ ` ` ` ` ` &.&.&._ #._ _ ` &.` _ &.r.&.*.r._ _ &.r.y.` ` &.&.&.r.y._ _ ` _ ( ) ) ( "
};
