/* XPM */
static char *__resized[] = {
/* columns rows colors chars-per-pixel */
"80 80 221 2 ",
"   c #0C0B0A",
".  c #110E0E",
"X  c #0E1109",
"o  c #141207",
"O  c #14120C",
"+  c #171B0A",
"@  c #151513",
"#  c #1C1A16",
"$  c #24170F",
"%  c #231612",
"&  c #271917",
"*  c #2B1C17",
"=  c #261A18",
"-  c #291B19",
";  c #301E17",
":  c #301F1C",
">  c #1A2506",
",  c #1D2B07",
"<  c #1B250A",
"1  c #1E2C09",
"2  c #1F3007",
"3  c #1D2812",
"4  c #20290A",
"5  c #202E09",
"6  c #223409",
"7  c #29340F",
"8  c #263B0A",
"9  c #293E0B",
"0  c #252715",
"q  c #33211D",
"w  c #3C2D1B",
"e  c #2C3412",
"r  c #283714",
"t  c #373918",
"y  c #262626",
"u  c #362420",
"i  c #3A2622",
"p  c #3D2B23",
"a  c #2D342B",
"s  c #3B3921",
"d  c #333535",
"f  c #41391C",
"g  c #422D24",
"h  c #432F28",
"j  c #443226",
"k  c #4B3225",
"l  c #443B26",
"z  c #463328",
"x  c #49342A",
"c  c #4D3A2C",
"v  c #513626",
"b  c #523B2E",
"n  c #5B3F2E",
"m  c #4B3B30",
"M  c #553C31",
"N  c #593B34",
"B  c #603F3C",
"V  c #2B430B",
"C  c #2E4A0C",
"Z  c #314E0D",
"A  c #34540E",
"S  c #365A0F",
"D  c #395D0F",
"F  c #2B4611",
"G  c #2D4B12",
"H  c #2D471D",
"J  c #384617",
"K  c #334C12",
"L  c #2F5316",
"P  c #345512",
"I  c #395412",
"U  c #365911",
"Y  c #395C10",
"T  c #32541D",
"R  c #345C19",
"E  c #3A591E",
"W  c #3C630F",
"Q  c #3F680E",
"!  c #3C6311",
"~  c #36621A",
"^  c #39651B",
"/  c #3D6D1D",
"(  c #3F711F",
")  c #374A26",
"_  c #3B5724",
"`  c #3C4733",
"'  c #3B6223",
"]  c #3E6B21",
"[  c #3F7220",
"{  c #41471A",
"}  c #41650C",
"|  c #426B0F",
" . c #46720E",
".. c #4A750E",
"X. c #4D7C0F",
"o. c #507E0F",
"O. c #426B11",
"+. c #416816",
"@. c #477616",
"#. c #4B7913",
"$. c #41751F",
"%. c #43791F",
"&. c #517F11",
"*. c #494828",
"=. c #484C2D",
"-. c #435A23",
";. c #475926",
":. c #515829",
">. c #5B4234",
",. c #594535",
"<. c #5D493A",
"1. c #5B5636",
"2. c #644539",
"3. c #644B3B",
"4. c #66543C",
"5. c #685A3C",
"6. c #79523C",
"7. c #466727",
"8. c #436E22",
"9. c #536A2C",
"0. c #427620",
"q. c #4B7426",
"w. c #457C21",
"e. c #4A7D25",
"r. c #4D782A",
"t. c #54782B",
"y. c #576435",
"u. c #4F7338",
"i. c #5A7231",
"p. c #5E7932",
"a. c #6C623E",
"s. c #67693C",
"d. c #627B36",
"f. c #3F3F42",
"g. c #464844",
"h. c #4C5345",
"j. c #555C50",
"k. c #664441",
"l. c #694D40",
"z. c #6D5442",
"x. c #695944",
"c. c #765944",
"v. c #735B49",
"b. c #586252",
"n. c #756547",
"m. c #756A42",
"M. c #7B614D",
"N. c #6E7142",
"B. c #7B7446",
"V. c #7A6651",
"C. c #825A3F",
"Z. c #8A5E43",
"A. c #865E53",
"S. c #8F6145",
"D. c #83664C",
"F. c #86694E",
"G. c #886A4F",
"H. c #84754B",
"J. c #846B55",
"K. c #8C6D52",
"L. c #8F7253",
"P. c #8A7458",
"I. c #947455",
"U. c #95765C",
"Y. c #95795C",
"T. c #9A7B5B",
"R. c #9D6E64",
"E. c #8F7964",
"W. c #947761",
"Q. c #967A64",
"!. c #9A7C65",
"~. c #9A7E69",
"^. c #A5756B",
"/. c #52820F",
"(. c #568A0F",
"). c #578A0F",
"_. c #4C841F",
"`. c #568913",
"'. c #5D9111",
"]. c #619611",
"[. c #669D12",
"{. c #6BA512",
"}. c #6EA912",
"|. c #71AB11",
" X c #75B213",
".X c #79BA13",
"XX c #478022",
"oX c #498423",
"OX c #4C8A24",
"+X c #55832A",
"@X c #58872C",
"#X c #9C855A",
"$X c #9E875A",
"%X c #A4875E",
"&X c #9C8061",
"*X c #9D816B",
"=X c #A38363",
"-X c #A88662",
";X c #A58D62",
":X c #AC8A63",
">X c #AA896A",
",X c #B08D67",
"<X c #B18F6B",
"1X c #A59062",
"2X c #B3916D",
"3X c #A78B73",
"4X c #AE9077",
"5X c #B69472",
"6X c #B99674",
"7X c #BB9877",
"8X c #B6967C",
"9X c #BC9B7C",
"0X c #C09E7E",
"qX c #B69A80",
"wX c #BE9E81",
"eX c #BEA286",
"rX c #C09F82",
"tX c #C2A285",
"yX c #C5A689",
"uX c #C7A88B",
"iX c #C8A98C",
/* pixels */
"L ~ $./ / 0.( $.$./ / $.$.%.$.$.( %.w.( / / ( w.%.$.%.w.] / / ( ( ( w.( / w.$./ ~ / ( / / $.[ / / R ~ 0.[ w.( ( ( %.%.( / / ( w.w.$.$.$.( / / / $.[ 0.( $.$./ R ",
"^ / $.$.0.w.( ( $./ ( w.w.$.%.( ( [ ( ( ( ( ( w.( ( ( ( [ 0.w.w.w.w.$./ ( w.w.w.w.0.( $.$.$.[ ~ H R / w.w.[ %.( ( w.( ( ( ( ( %.$.( ( ( ( 0.w.w.w.w.$./ $.w.$./ ",
"%.$.$.%.w.w.$.$.( $.w.XXw.w.w.0.[ w.[ ] ( w.w.[ [ [ / ( 0.XXOXOXOXXX$.( ( w.OXOXOXXX0.w.XXw.$.T r ' w.w.w.w.w.[ ( w.( ( ( w.w.w.0.] / $.0.w.OXOXOXXX0./ $.w.w.$.",
"$.w.oXOXoXw.0.0.%.$.$.XXoXoXOXOXoXXXw.[ w.oXOXoXXXXXXXXXoXw.oXoXoXoXXX%.w.XXXXXXoXXXoXoXoXXX0./ ] ] w.w.oXOXOXOXOXXX[ ( w.XXOXoXoXw.oXXXXXoXoXoXoXoXXXw.0.XX$.$.",
"/ w.XXXXoXOXoXXXXXw.w.XXOXOXOXoXoXoXoXXXOXOXOXOXOXOXOXOXoXXXw.w.w.w.oXXXw.w.oXXXXXXXXXXXoXOXXXXXXXw.w.XXOXOXOXoXoXoXXXXXoXOXOXOXOXXXOXOXOXw.e.w.w.w.OXw.w.w.w.$.",
"$.$.$.$.XXOXOXOXoXoXXXXXOXOXw.w.XXOXOXOXOXOXOXOXOXOXOXoXXXw.0.w.[ 0.oXOXoXw.XXOXXXw.0.0.XXOXOXOXoXXXoXoXOXOXXXw.oXOXOXOXOXOXOXOXOXOXOXOXXXw.0.w./ 0.oXOXOXw.0.0.",
"/ / $.w.w.w.w.w.w.w.0.w.w.w.oXoXoXoXw.w.w.w.w.XXoXOXOXOXoXw.0.w./ ] XXOXOXw.w.w.w.w.[ w.XXw.w.w.w.[ w.[ [ w.oXoXoXoXw.w.[ w.oXoXOXOXOXOXoXw.0.w./ / w.OXOXw./ ~ ",
"/ / $.w.w.$.0.0.[ [ [ [ / [ w.oXoXXXw.w.0.w.w.%.w.OXOXOXOXXXXXXXw.w.oXOXoX0.( ( w.w.0.XXw.[ [ [ [ [ ] / ( ( w.XXoXXXw.w.w.w.w.[ w.oXOXOXOXXXw.oXw.w.OXOXOX0./ ~ ",
"/ ( $.XXw.( [ [ [ ( [ ( [ ( / w.oXXXoXOXOXXX0.( %.oXOXOXOXOXOXOXoXXXOXOXoX[ [ XXw.w.[ w.w.[ / [ [ ( ] ~ ^ ' ] w.oXXXoXOXOXoX[ [ w.oXOXOXOXOXOXOXoXoXOXOXoX[ / / ",
"/ ( $.w.w.[ [ [ / [ [ ( 0.w.[ XXoXXXoXOXOXoXw.oXoXOXOXOXoXoXoXoXw.$.0.oXOXXXoXoXw.w.0.w.w.w.[ ( / [ ( ] H H [ XXoXoXOXOXOXoXXXoXOXOXOXOXoXoXoXoXw.[ w.oXoXw.w.$.",
"( ( ( XXoXXX[ [ 0.w.w.w.w.XXoXOXOXXXOXOXOXoXoXOXOXOXOXoXw.XXXXoX[ / ] XXoXoXOXOXXXw.0.XXoXoX0.[ [ XXw.[ ) H ] XXoXoXoXOXoXoXoXOXOXOXOXoXw.w.OXoX[ / / w.OXoXw.%.",
"%.$.w.OXOXOXw.w.XXoXOXOXoXoXOXOXOXXXOXOXw.XXOXw.oXOXOXoX$.oXOXOX0./ ( oXOX0.w.OXOXw.0.OXOXOXw.w.XXoXOXoX[ R H ] OXoXoXOXw.XXoXXXoXOXOXoX0.w.OXOX[ ] ( oXOX0.$.$.",
"/ ( $.XXOXOXOXXX[ w.oXOXXXXXOXXXw.oXOXOXoXOXOXoXOXOXOXOXoXOXOXOXXXXXoXOXOXw.w.XXXXw.w.w.oXOXOXXX[ w.oXOXw.' a R XXOXOXOXoXOXOXoXoXOXOXoXoXoXOXOXoXXXoXOXOXw.$.$.",
"/ ( %.w.oXOXOXoX0.[ w.OXXXw.OXw.w.OXXXw.OXOXOXoXoXoXOXOXOXOXOXOXoXoXOXOXoXXXoXXXw.w.w.w.oXOXOXXX( [ XXOXoX' a T [ oXXXw.OXOXOXXXoXoXOXOXOXOXOXOXoXOXOXOXoXXXw./ ",
"$.%.oXOXOXOXoXoXOXw.w.OXXXXXXXOXoXXX$./ w.OXOX0.$.w.oXoXoXOXOXXXw.w.XXXXw.oXOXOXXXXXoXoXOXOXoXoXOXXXXXoXXX] H T ( w.[ [ w.OXOXw.0.w.oXoXOXOXOXXXw.w.w.XXXXoXw.w.",
"( %.OXXXoXOXOXoXOXOXoXXXoXoXoXOXOXw.$.8.0.0.w.0.0.w.w.w.w.w.oXoXoXoXXX] ^ #.@.^ / 0.oXoXOXOXoXOXOXoXoXoXoX] H T ( [ [ [ [ w.w.[ 0.w.w.w.w.w.oXoXoXXXoXoXoXOXw.%.",
"( %.oXw.w.OXoXoXoXOXoXw.w.XXOXOXOXw.w.$.0.w.0.0.0.w.w.w.0.w.oXOXOXoXe.@. .o...O.+.#.oX$.w.OXoXoXoXOXoXXXoX[ H T ] [ ( ( w.( w.[ w.w.w.w.w.w.oXOXOXOXOXOXoXOXXX$.",
"$.w.0.( $.w.w.XXXXw.[ [ [ 0.oXOXOXoXXXw.w.oXOXoXOXOXOXOXOXOXOXoXw.@.&.[. X|.{.{..X[.&.U ~ w.w.XXoX[ ( ( [ ' H T ] oXXXXXXXoXOXOXoXoXoXOXOXOXOXOXOXOXOX%.0.oXXXw.",
"$.%.XX0.0.0.w.w.w.[ 0.w.[ [ XXoXOXOXoXoXw.w.oXOXOXOXOXOXXXoXw.^ _.[.[.|. X{.{.{..X X[.'.#.~ $.w.XX[ [ XX[ ] ` _ [ oXOXXXw.w.OXOXOXOXOXOXXXXXoXoXXXw.XXw.$.0.w.%.",
"( w.OXXXw.w.w.w.0.w.w.XX[ [ XXOXOXoXoXoXw.w.XXOXOXOXOXXX/ %.@.Y ]..X X{.].).X./.{.|.{..X'.D ^ [ [ [ w.oX[ ' h.] ( XXOXoXw.w.XXOXOXOXOXoXw.w.oXoX%.( w.XXw.( $.$.",
"0.w.XXoXOXOXXXXXw.w.[ ( ] 0.OXoXXXXXoXOXOXOXOXXXXXoXOX0.R #.].}.{.{.{.[./.S D  .&././.`.)./.S U XXw.( ( ( 7.b.b.XXoXoXOXOXOXOXXXoXoXoXOXOXOXOXOXOXOXOXOXOXw.%.%.",
"$.w.OXOXoXOXoXOXOXoXw.w.w.oXOXOXXXw.XXoXoXoXXXoXoXXX$.+.#.'.|. X]...}  . .S D  ...O.W Z } ).o.&._./ ^ %.' _ j.u._.[ XXOXoXoXXXoXoXoXXXXXoXoXoXoXoXoXXXOXOXXX%.%.",
"$.w.OXoXoXoXoXoXOXOXOXOXOXOXOXOXoX0.w.w.w.$.0.oXoX%./  .).{.|.[...Z , C ! Q |  . .} A 5 C (.{.}.'.Q ! %.' ` ` u.oX( [ oXw.( ( OXOXXXXX[ [ [ XXw.%.w.$.oXOXoXw.$.",
"$.$.w.oXoXOXoXw.XXOXOXOXOXOXoXe.w.w.0.0.0.w.XXXX$.! `.'./.X.'.}.X.S A S Y D D W | | S C D /././././.W F h.b.[ [ ( XXw.[ ( w.oXOXoX[ [ w.w.XX[ XX( 0.w.XXoXXXw.$.",
"$.%.XXoXOXXXw.w.w.XXw.w.oXOXOXw.w.XXw.w.w.oXw.+.+.} o.X.! W ..[.o.} } U U ! ! ! O.W Y Y | X.| W ..+._ =.h.y.! $.XXoX_.( w.XXOXOXoX[ [ [ w.[ [ [ ( [ XXXXXXXX( ( ",
"( w.oXOXw.[ w.w.XXXXw.[ w.OXoXoXoXOXoXXXoXXXw.Y W  .Y Z C Z O.(.X.| W D U | | Y Y Y D W  .#.S A I ) g.b.9.D Z ^ w.OX_.OXOXOXOXOXoX[ ( [ ( [ ( ( ( ( oXoXXXXX_.( ",
"$.w.oXXX%./ ( %.OXOXoXoXoXoXXXoXOXOXOXXX~ O.#.} D ! U Z 8 C | /.| D Y | | D V 8 8 C ! | | Y Z 8 r g.h.` ^ ..| D ~ _.OXOXOXOXoXoXOXoXw.( ( ( [ [ XX[ XXXXoXoXXX( ",
"$.w.oXXXw.w.( w.OXOXoXoXOXoXXXOXOX%.%.$.U U O.U I Y U Z 8 V S | ! U U | | S V V V A W | W U C r y g.h.C D  .#.W W %.%.( oXXXXXoXOXOXXX[ w.XXoXoXoXOXoXXXXXoX_.( ",
"$.w.OXOXOXOXOXoXOXoXw.w.XXoXOXOXw.^ U U U U U S D D Y U Z 8 8 U U U U Y W D ! | U D } ! Y P Z t d f.` H G U W | ..| ! R [ XX( oXOXOXoXOXoXOXOXOXOXOXOXoXXXXX( ( ",
"/ $.XXOXoXw.oXOXoXoXw.0.oXOXOXOX$.K V A U U U W | | ! D S A U U U D | D D ! { J I D ! W A 8 3 y a d d r 3 3 6 P ! W D ! ( oXoXw.XXOXOXOXOXOXOXOXOXoXXXoXoX[ ( / ",
"$.%.XXOXXX%.XXoXoXXXw.[ w.oXoX0.~ F 9 C U U U W | | ! D U S D D D D | W D W J w J Z U W C + @ = y d d y @   + F A A S D ~ / ( XXXXoXOXOXOXoXoXoXoXoX%.oXoXXX( / ",
"$.w.OXOXoX%.%.oXOXw.[ w.w.0.[ R C C V V S U A I D U U U I C C U Y D I D D D { f w t J P V X @ .   y d d #   # r C 8 V V 8 V L _.oXoXOXOXOX%.w.oXoXOXOXOXOXoXXX( ",
"( w.oXOXoXw.XXoXXXXXw.( XXw.R F 9 C V C A S C S A C 9 C A Z C A U A Z A D D :.n f t I S 8 O # @   @ # = . . 0 0 3 8 V V 2 8 V G ~ 0.oXOXOXXXw.oXOXOXoXw.XXoXoX_.",
"/ w.w.XXXXXXoXoXw.oXoXw.oX$.F 8 8 8 8 V Z Z C A Z 9 8 C D A A A I J A A D S { n f C S D V 0 0 # X   . . X @ 0 # < F C V 8 6 8 1 8 R 0.oXOXoXXXoXOXOXXX( ( OXXX( ",
"( ( w.w.XXOXOXOXOXOXOXOXw.R 8 6 6 4 5 8 C C V V V C Z A A A S Z v *.D S A I f w A S A S I V 0 < 1 @ @ # 3 < < , 8 V V V 6 6 2 6 6 V ^ w.OXOXoXOXoXXXw.XXOXOX[ / ",
"( ( [ [ w.OXoXoXOXOXOXXXR V 6 6 6 6 6 8 V 9 V V V V Z Z C Z Z S { f J C C C 9 9 S Z 9 A A V 8 6 V 6 5 r 8 2 2 8 V V 8 8 6 6 6 8 6 6 V R w.w.XXOXOXoXXXoXOXOX( ~ ",
"( ( ( ( [ oXw.XXOXOXXX( F 1 6 6 6 6 8 9 8 9 V V V V V V 9 9 C S t e 9 9 V V V V A V 8 C Z V V V V V C V V V V V V 9 8 5 2 6 6 6 6 2 2 V ^ ( w.oXOXOXXXoXOXOX( / ",
"%.( ( $.[ [ XXXXOXOX%.R F 6 6 6 6 6 6 6 8 9 V V 8 9 8 V 9 V V C C V 9 9 V V V V V V V V V V V V V V V V V V V V 8 6 , , 1 2 6 6 6 1 1 6 8 ( OXXX( %.OXOXOXXXXX( ",
"%.$.%.w.XXXXXXXXXXoX/ V 6 2 6 8 6 6 6 5 6 9 9 9 8 8 6 8 V V V V C C C C V V V V V V C V V V V V C V V V V 8 8 8 8 6 5 , 2 6 8 6 2 1 , > 2 / OXoX( %.OXoX%.( w.XX",
"( %.XXoXoXoXXXw.w.w.^ 2 1 1 2 6 6 6 5 4 6 8 6 6 8 8 5 6 8 V 8 V 9 9 V V V V V V V V V C V V V V V 8 6 V V 8 6 2 6 6 6 6 6 6 6 1 1 , 2 8 G ( oXOX%.%.oX%.( w.( ( ",
"~ ( oXXXXXoXoXoXoXXX~ 8 1 1 > 1 5 6 6 5 > 5 8 6 6 8 2 6 8 6 8 8 4 > 6 8 9 V V 9 8 8 V V V V 8 8 8 6 , , 5 8 6 6 8 6 6 5 6 5 , > , 6 8 L ( XXXXXXXXOXOXXXXXOXw./ ",
"/ $.w.w.w.XXw.w.w.w.( R F 2 > , 5 5 5 5 , , 6 6 6 6 6 6 6 5 6 6 4 > 5 6 8 8 8 8 5 5 8 8 9 9 8 5 2 , , , 5 6 6 8 6 6 5 , , 5 , > 2 F L ' w.XXoXoXOXoXw.0.w.oXw.$.",
"%.$.$.w.XXw.$.( ( 0.w.w.~ F 8 2 5 , , 5 6 5 , 5 6 8 6 6 6 6 6 6 6 6 6 6 6 6 8 6 , , 6 8 6 6 6 6 , , 5 8 8 6 6 6 6 6 5 > > 2 8 6 F ^ / 8.[ XXOXOXOXw.$./ $.w.w.%.",
"( w.oXOXOXw.$.0.w.[ 0.XXw.[ ^ G 8 , , , 2 , > , > 2 2 2 6 8 8 6 6 8 8 5 , 6 6 6 5 6 6 6 6 6 6 6 6 6 6 6 8 6 , > , , 5 , > 8 A / %.w.XXXXoXXXXXoXoXoXXXw.0.XXw./ ",
"( 0.XXw.oXOXoXXXXXw.w.oXOXOX[ / R L P K 7 5 4 4 > , , , 2 2 2 2 5 5 5 5 5 6 8 6 8 6 6 8 6 6 8 5 5 5 2 , 6 5 , < < t s { F R ( oXOXOXOXOXOXw.w.w.w.w.oXXXw.w.w.$.",
"$.$.0.0.w.OXOXOXoXXXoXXXOXoXw.w.w.XXoX0.*.l l t 9 r 7 7 e 5 > > > , 4 5 6 5 5 6 6 5 5 5 6 5 6 5 > > , , 4 5 e e s <.v.n.9.0.oXOXOXOXOXOXw.w.w.w.$.0.oXOXoXw.0.0.",
"/ ( $.w.w.w.w.w.w.0.[ w.w.w.oXoXOXoX_.q.a.J.Y.P.P.V.n.x.1.s 3 < > , 5 6 6 , , , , > , , , 4 , 4 < < 0 t a =.x.V.J.~.>X!.i.0.XXoXoXOXOXOXOXw.0.w./ $.w.OXOXw./ ^ ",
"/ / 0.XXw.0.0.0.[ [ [ [ / [ w.oXoXXX%.r.B.>X9X9X8X4X3X3XE.V.1.w { t 7 < > > > + + > > + 4 4 e t =.=.1.M.V.P.*X3X4X8X7X;Xi.0.0.%.w.OXOXOXOXw.e.w.0.w.oXOXOX0./ ~ ",
"/ ( w.w.w.( ( ( ( [ ( ( [ ( / w.XXXXoX@XB.>X9X9XwXwXtXyXyXeX~.k.z.l.: . o o o . o o o # y p m x.E.~.3XqXrXrXrXwXwXqX6X%Xp.0.$.$.0.OXOXOXOXOXOXOXOXXXOXOXoX( / / ",
"/ +.0.w.w.w.( / ( ( [ ( 0.w.[ XXoXXXOXOXB.=X9X9XwXtXtXyXyX3XV.l.M g - & - = % % % # % - u z M M.4XqXwXrXuXuXuXrXrXwX6X%Xd.w.w.oXOXOXOXOXoXXXoXoXw.0.0.oXOXXXw.$.",
"( ( $.XXoXXX0.( 0.w.w.w.w.XXoXOXOXoXoX+XB.=X9X7X9XyXtXyXrXJ.3.3.i % - - : : - & % = = - u h ,.v.!.8XrXwXyXuXrXyXrX9X6X;Xd.e.oXOXOXOXOXOXw.w.oXoX[ / 8.w.OXXXw.$.",
"%.$.0.OXOXOXw.w.XXoXOXOXoXoXOXOXoX_.OX@XB.=X7X9X9XwXyXyX8XM.,.b g - & & - - & - = = = = = u k.k.2.~.rXrXuXiXrXrXwXwX0X%Xi.w.oXw.oXOXOXXX$.XXOXOX0./ ( oXOX$.$.$.",
"/ ( w.w.OXOXOXXX0.w.oXOXXXXXOXXXw.OXOX+XB.&X6X9X9XwXyXwX~.l.b n g - = = % - - & - - & & - q x N >.~.rXyXrXrXrXrX0X0X0X%Xd.w.OXoXoXOXOXOXoXoXOXOXXXXXOXOXOX0.0.$.",
"/ ( %.w.oXOXOXoX[ [ w.OXXXw.oXXXw.OX_.q.m.&X6X7X9XtXyX4XV.<.>.6.g - - - - & - - - - - - - q i x 3.E.qXuXuXrXyXrXwX9X7X1Xd.oXOXw.XXoXOXOXOXOXOXOXoXOXOXOXoXoX0.$.",
"( w.XXOXOXOXoXoXOXXXXXoXXXXXXXOXOXXX%.7.m.!.9X9X9XtXyX*X<.<.c.6.k & & - - - - - - & & - - q : x z.J.3XwXrXrXrXrXrX9X7X;Xd.w.OXw.0.w.XXOXOXOXOXXXw.w.w.w.w.oXw.0.",
"( %.OXXXoXOXOXoXOXOXoXXXoXoXoXOXOX%.( 8.m.T.5X9X9XwXtX!.M ,.2.>.g & - - & - & & - - - & - : q x z.D.Q.qXrXuXrXrXwX9X6X%Xi.q.w.0.0.w.w.w.w.w.oXoXoXXXoXOXOXOXw.w.",
"( w.oXw.w.OXoXoXoXOXoXw.w.XXOXOXOX%.( q.m.Y.2X6X0XrXtXW.M b b h ; & * - - - = - - - & - - : q x z.M.E.wXyXyXyXtXwX9X6X%Xi.$.$.%.w.w.w.w.w.w.oXOXOXOXOXOXoXOXXX( ",
"0.w.0.] 0.w.w.w.XXw.[ [ [ 0.oXOXOXoX_.e.m.T.<X6XrXiXyXW.M M b z ; & * - - - - - & - - % - : q x 3.v.~.yXiXtXtXwXrX9X2X$Xi.%.OXOXoXOXoXOXOXOXOXOXOXOXOXXX( oXXX_.",
"( w.w.w.0.0.w.w.w.0.0.w.[ [ XXoXOXOXOXe.m.T.,X6X0XtXuX~.,.M M k ; & * - - & - - & - - - - : u x 3.M.*XyXuXtXtXyXtX9X5X#Xi.q.oXOXOXOXOXoXw.oXoXoXw.[ XX[ [ w.w.( ",
"/ w.OXXXw.w.w.w.0.0.w.XX0.[ XXOXOXoXoX+Xm.U.<X7X9X0XiX*X,.M >.v ; - - - - - - & - - & - - : u x <.M.~.yXuXyXyXyXtX9X5X%Xi.%.e.oXOXOXOXoXw.w.oXoXXX( XXXXXX( ( %.",
"w.w.oXOXOXoXoXoXXXw.[ ( ] w.oXoXXXXXoX+Xm.I.,X6X0XrXrX!.,.b b v : % - - - - - - = = - = - - i z ,.v.Q.yXiXyXtX9XwX9X6X$Xp.oXOXe.XXoXoXOXOXOXOXOXOXOXOXOXoXXXw.%.",
"( w.oXoXOXoXoXOXoXoXw.w.w.XXOXOXoXw.XX+Xm.I.:X5X7XrXrX!.,.c N 2.g - - - % - - & = = = - - - i z M v.~.eXyXyXyXeX7X7X6X$Xp.w.w._.oXoXXXXXoXoXoXoXOXoXoXOXOXXXw.( ",
"$.%.OXoXXXoXoXOXOXOXOXOXOXOXOXOXoX$.w.t.m.I.:X5X6X9XrX~.N x n 6.k & - - - & - & - = = = : u i j c v.~.wXyXtXyXeX8X6X<X#Xi.8.%.OXOXw.w.[ [ w.w.w.w.%.( OXOXoX_.%.",
"$.%.XXXXOXOXXXw.XXoXOXOXOXOXOXXXw.w.( 8.1.G.,X5X6X9X0XW.N h n C.k % - - & - & - = - - = - : i h c v.~.wXyXyX9X9X6X2X:XI.9.0.XXOXXX[ w.w.w.w.w.[ [ ( %.XXXXoX( ( ",
"$.%.XXoXoXXXw.w.w.XXw.XXoXOXoXXXw.XXXXq.a.G.%X,X5X7X0XU.M p >.Z.v % - - - % % - - & - & - u i h m v.Q.wXyXtX7X9X6X,XT.D.9.%.OXOXe.$.$.0.0.0.$.( ( [ oXXXXXXX( ( ",
"( w.oXOXXX( w.XXoXoX[ [ w.OXoXXXoXOXoXr.a.G.T.%X<X7X9XU.c p 2.S.v % & - = = - - - - - - - : i h x z.Q.9XrXwX9X9X6X:XL.a.t.oXOXOXoX$.$.$.] $.( [ ( ( oXoXXXXX_.( ",
"( w.oXXX0./ / w.OXOXOXoXOXOXw.oXOXOXOX+Xa.V.T.-X,X5X9XQ.,.g n Z.v % = - - - - & - - & & - : i g c z.U.7XwX9X6X2X%XI.I.H.p.oXoXOXoXoX%.$./ 0.0.w.%.w.XXoXoXoXXX( ",
"$.w.oXoXw.w.( w.OXOXoXOXoXoXXXOXOXOXOXoX1.n.!.-X-X%X2XT.>.h n Z.v % - - - - - - & & - & - - i g z l.P.4X5X5X2X=XL.L.T.L.t.%.w.oXOXOXw.w.w.w.XXXXoXoXXXXXXXoXXX( ",
"( _.OXOXOXOXoXOXOXXXXX[ XXOXOXOXOXXXoXw.;.n.T.;XT.I.-XU.3.h N Z.k $ ; - - - - - & & - = - : u i k 3.L.%X:X:X:XI.V.I.L.s.q.%.%.XXOXOXOXoXOXOXOXOXOXOXOXXX[ w.( ( ",
"/ ( XXOXoXw.oXOXoXXXw.( XXOXOXOXXXXX[ w.0.s.G.Y.=X=X=XK.3.h b C.k $ : : : : - : - - - - : : i g x 3.G.T.L.L.-XY.G.F.6.1.e.OXoX%.w.OXOXOXOXoXOXOXOXoXXXXXoX_.( / ",
"( ( oXOXoX( XXoXOXXXXX[ XXoXoXXXw.XXw.w.oX9.5.D.T.%XT.D.N x N 6.g $ : q : : : - q : : : : : u i l 3.D.T.K.G.#XU.F.c.1.;.e.OXe.%.XXoXOXOXOXXXXXOXOXoXXXoXOXXX( / ",
"( XXOXOXoXw.w.XXOXXX( ( XX[ ( ( w.oXOXOXXX^ *.5.D.D.K.4.x c n B g $ : : : - * * : * * ; : : q i l 2.D.T.T.I.G.v.c.5.:./ w.%.$.OXOXXXOXOXOXw.w.oXoXoXOXOXOXoXXX( ",
"( _.oXoXXXw.XXoXXXoX[ ( XXoXXX_.XXoXw.w.w.w.0.-.1.c.D.3.g k M n g : i i i i i i q i i i i i u p z >.4.D.F.F.D.4.=.;.+.0.w.oXoXoXXX0.oXOXOXXXw.oXOXOXoXw.XXOXXX_.",
"( ( w.XXXXXXoXoXw.oXoXXXoXOXOXoXXXOXw.w.oXOXoX~ -.1.5.,.g g x N N B k.k.k.k.k.k.B B B N N c p i g c >.4.4.5.a.:.E ^ / 0.oXOXoXw.w.w.XXOXOXoXXXOXOXoXXX$.( OXXX( ",
"( %.%.w.oXOXOXOXOXOXOXOXXX( OXoXoXOXOXXXoXe.w.( ( ] R ) j g g M A.^.~.^.^.^.R.R.R.R.G.A.v.k.k i z k *.=.*.T 8.0.0.oXoXoXXXw.w.0.w.XXw.oXOXOXoXOXoXXXw.XXOXOX( / ",
"( ( ( ( XXoXoXoXOXOXOXXX( XXOXOXOXOXoXoXoXXXw.w.%._./ ~ _ J _ :.d.B.N.d.m.N.N.s.s.s.s.5.y.y.;.E 7.7.7.7.' / w.oXOXOXoXoXOXXXw.0.w.oXw.w.w.w.w.OXOXoXXXXXOXOX( ~ ",
"( ( ( ( ( XXw.XXOXOXXXXX( oXOXOXoXoXXXXXOXOXXXw.e.OXw.w.$.%.%.w.( ( / / / / ^ ^ $.^ ~ ^ / ( %.XX_.oXoXw.w.XXOXOXOXoXXXXXOXOXw.w.w.oXXXw.w.0.w.OXOXOXoXoXOXOX( / ",
"%.( ( ( ( ( _.oXoXoXoX_._.XXoXXXw.0.0.w.OXOXoXXXXXOXOXOXw.oXoXw.( ( oX_.XXXX_.oXoX$./ ( ( $.w.XXoXoXoXw.w.XXoXw.0.0.0.w.OXOXOXXXXXOXOXOXXXoXoXw.$.%.OXOXOXoX%.( ",
"( ( ( ( ( ( w.( ( ( ( %.( [ XX( 0.$.0.w.w.w.w.w.w.w.w.XXw.w.w.w./ / XX%.( ( %.XX_.$.( $.0.0.$.$.%.0.0.%.w.$.w.$.0.0.0.0.w.w.w.w.w.w.XXw.w.w.w.w./ ( w.w.( ( ( ( ",
"^ ^ ( ( XX( ( ( ( / ( ( ( ( / ( 0.$.w.$./ / ( w.w.$./ $.$.$.$.$./ / ( / ~ / / ( ( ( ( ( $.$.$.$.+./ / ( $.( / $.0.0.w.0.$./ $.0.w.( ( ( $.( 0.0./ ^ $.^ ^ ^ ^ ~ "
};
