/* XPM */
static char *__resized[] = {
/* columns rows colors chars-per-pixel */
"80 80 226 2 ",
"   c #090708",
".  c #0D0B0A",
"X  c #100C0A",
"o  c #0F100C",
"O  c #141207",
"+  c #171E05",
"@  c #14110C",
"#  c #17190D",
"$  c #161612",
"%  c #1B1614",
"&  c #1C1B16",
"*  c #24170F",
"=  c #231612",
"-  c #271917",
";  c #2B1C17",
":  c #271A18",
">  c #291B19",
",  c #301E17",
"<  c #301F1C",
"1  c #1A2506",
"2  c #1D2B07",
"3  c #1B250A",
"4  c #1E2C09",
"5  c #1F3007",
"6  c #20290A",
"7  c #202E09",
"8  c #223409",
"9  c #29340F",
"0  c #263B0A",
"q  c #293E0B",
"w  c #252716",
"e  c #33211D",
"r  c #3D271E",
"t  c #3C2D1B",
"y  c #2C3412",
"u  c #273813",
"i  c #2B3C14",
"p  c #373918",
"a  c #252822",
"s  c #2C2E2C",
"d  c #362420",
"f  c #3A2622",
"g  c #3D2B23",
"h  c #302E2E",
"j  c #293221",
"k  c #363927",
"l  c #363936",
"z  c #41391C",
"x  c #422D24",
"c  c #432F28",
"v  c #443226",
"b  c #4B3225",
"n  c #443B26",
"m  c #463328",
"M  c #49342A",
"N  c #4D3A2C",
"B  c #513626",
"V  c #523B2E",
"C  c #5B3F2E",
"Z  c #4B3B30",
"A  c #553C31",
"S  c #593B34",
"D  c #603F3C",
"F  c #2B430B",
"G  c #2E4A0C",
"H  c #314E0D",
"J  c #34540E",
"K  c #365A0F",
"L  c #395D0F",
"P  c #2A4611",
"I  c #2C4B13",
"U  c #2C4A1A",
"Y  c #334C12",
"T  c #384618",
"R  c #2F5317",
"E  c #345512",
"W  c #395412",
"Q  c #375911",
"!  c #395C10",
"~  c #37561D",
"^  c #355D19",
"/  c #3C620F",
"(  c #3C6311",
")  c #3F6912",
"_  c #36621A",
"`  c #39651B",
"'  c #3D6D1D",
"]  c #3F711E",
"[  c #2E4224",
"{  c #354827",
"}  c #3E5825",
"|  c #3F5432",
" . c #3D6922",
".. c #3F7220",
"X. c #41471A",
"o. c #41660C",
"O. c #426B0F",
"+. c #46710F",
"@. c #4B750E",
"#. c #4D7C0F",
"$. c #507E0F",
"%. c #426A11",
"&. c #426A19",
"*. c #477516",
"=. c #4B7912",
"-. c #41751F",
";. c #43791F",
":. c #517E11",
">. c #494828",
",. c #435923",
"<. c #475926",
"1. c #515829",
"2. c #484934",
"3. c #5B4234",
"4. c #594535",
"5. c #5D493A",
"6. c #445839",
"7. c #5B5636",
"8. c #664837",
"9. c #62413B",
"0. c #644B3B",
"q. c #66543C",
"w. c #685A3C",
"e. c #79523C",
"r. c #466624",
"t. c #436E22",
"y. c #536A2C",
"u. c #427620",
"i. c #4B7426",
"p. c #457C21",
"a. c #4A7D24",
"s. c #4F7A28",
"d. c #54782B",
"f. c #486834",
"g. c #5B6333",
"h. c #5A7231",
"j. c #5E7932",
"k. c #6C623E",
"l. c #67693C",
"z. c #627B36",
"x. c #4B5347",
"c. c #525C4C",
"v. c #664441",
"b. c #694D40",
"n. c #6D5442",
"m. c #695944",
"M. c #765944",
"N. c #735B49",
"B. c #566B49",
"V. c #756547",
"C. c #756A42",
"Z. c #7B614D",
"A. c #6E7142",
"S. c #7B7446",
"D. c #7A6651",
"F. c #825A3F",
"G. c #8A5E43",
"H. c #865E53",
"J. c #8F6145",
"K. c #83664C",
"L. c #86694E",
"P. c #886A4F",
"I. c #84754B",
"U. c #846B55",
"Y. c #8C6D52",
"T. c #91665C",
"R. c #8F7253",
"E. c #8A7458",
"W. c #947455",
"Q. c #95765C",
"!. c #95795C",
"~. c #9A7B5B",
"^. c #9D6E64",
"/. c #947761",
"(. c #967A64",
"). c #9A7C65",
"_. c #9A7E69",
"`. c #A5756B",
"'. c #52820F",
"]. c #578A0F",
"[. c #5C920F",
"{. c #4C841F",
"}. c #578812",
"|. c #5D9111",
" X c #619611",
".X c #669D12",
"XX c #6BA411",
"oX c #6EA912",
"OX c #71AB11",
"+X c #75B213",
"@X c #79BA13",
"#X c #478022",
"$X c #498423",
"%X c #4C8A24",
"&X c #55832A",
"*X c #58872C",
"=X c #9C855A",
"-X c #9E875A",
";X c #A4875E",
":X c #9C8061",
">X c #9D816B",
",X c #A38363",
"<X c #A88662",
"1X c #A58D62",
"2X c #AC8A63",
"3X c #AA896A",
"4X c #B08D67",
"5X c #B18F6B",
"6X c #A59062",
"7X c #B3916D",
"8X c #A78B73",
"9X c #AE9077",
"0X c #B69472",
"qX c #B99674",
"wX c #BB9877",
"eX c #B6967C",
"rX c #BC9B7C",
"tX c #C09E7E",
"yX c #B69A80",
"uX c #BE9E81",
"iX c #BEA286",
"pX c #C09F82",
"aX c #C2A285",
"sX c #C5A689",
"dX c #C7A88B",
"fX c #C8A98C",
/* pixels */
"R _ -.' ] ] ] ] ;.' ] ] ;.;.;.] ] ;.u.;.' ' ] p.u.;.;.;. .] ' ] ] ] u.] ] p.;.' _ ' -.' ' -.] ] -.' ' -...u.p.;.] ] u.;.' ' ] p.u.-.u.-.] ' ' ' ..u.u.] ] ;.' ^ ",
"` ' -.-.u.u.] ] ] ] ] u.u.u.;.] ..u.] ] ] ] ;.u.] ] ] ] ..u.p.p.p.;.] ' ] ;.#Xp.u.-.] -.-.u.] ] ] ] -.;.p.u...] ] p.] ] ] ] ;.] u.' -.] ' u.p.p.p.u.-.] ] p.-.' ",
"p.;.-.;.p.p.] ] ] ] p.#Xp.p.p.u...u.....] u.#X........' u.#X%X%X%X#X-.] ] p.$X%X%X#Xu.p.#Xp.] ] ] -.;.u.p.u.p.....p.] ] ] u.p.u.u...' -.u.p.%X%X$X$X-.' -.p.;.;.",
"-.;.$X%X$X#Xu.u.;.;.;.#X$X%X%X%X%X#X....p.$X%X$X#X#X#X$X$X#X#X$X$X$X$X;.;.#X$X#X$X$X$X$X$X#Xu.u.p.u.' _ ..$X%X%X%X#X] ] #X$X%X$X$Xp.$X$X$X$X$X$X$X$X$Xu.-.$X;.] ",
"' u.#X$X$X%X$X#X#Xp.p.#X%X%X%X$X$X$X#X#X%X%X%X%X%X%X%X%X$Xp.#X#Xp.p.$X#Xp.#X#X$X#X#X#X#X$X%X$X#X#Xp.] ^ } ..$X%X%X$X$X$X%X%X%X%X%X$X%X%X%Xp.p.p.p.p.$X$Xp.p.p.] ",
"-.-...u.#X%X%X%X%X$X#X$X%X%Xp.p.#X%X%X%X%X%X%X%X%X%X%X%X$Xp.u.p.....$X%X$Xp.#X%X%Xp.-.u.#X%X%X%X$X$Xu.' U { ..#X#X%X%X%X%X%X%X%X%X%X%X$X$Xp.p.p.] u.$X%X$Xp.u.u.",
"' &.u.p.p.p.p.p.u.u...p.u.p.$X$X$X$X#Xu.u.p.#X$X$X%X%X$X$Xu.u.u. .] #X%X%Xp.u.u.#Xu.] p.#Xp.#Xp.p.u.] ..[ [ #X%X$X$X#X..p.p.#X$X%X%X%X%X$Xu.u.p.' ' a.%X%Xp.' ` ",
"' ' u.p.p.-.u.u...] ......] p.$X%X#Xp.p.p.u.u.u.p.%X%X%X%X#X#X#Xp.;.$X%X%Xu.] u.p.u.u.#Xp.] ......] ] ..{ [  .$X%X#Xp.p.u.u.p...p.$X%X%X$X$Xp.$Xp.p.$X%X%Xu.' _ ",
"' ] ;.#X#X] ] ..] ..] ] ..] ] ..#X;.%X%X%Xp.;.] ;.$X%X%X%X%X%X%X$X$X%X%X$X..u.#Xp.u.u.#Xp.] ] ....] ....R U R ..#X#X$X%X$Xp...] u.%X%X%X%X%X%X%X$X$X%X%X$X' ' ' ",
"' ] ;.;.p...] ] ] ] ] ] u.p...$X%X#X%X%X%X$Xp.$X$X%X%X%X$X$X$X$Xp.-.u.#X$X#X$X$Xp.u.u.p.p.u.] ] ] ..] ] } R ^ ..%X#X%X%X%X%X#X$X%X%X%X%X$X#X$X$Xp.u.u.$X%X#Xp.-.",
"' ] u.$X$X#X....u.u.p.p.p.#X%X%X%X$X%X%X%X$X$X%X%X%X%X$X;.$X$X$X..' ..p.%X$X$X%X$Xu.;.#X$X#X......p.p...] ] ..p.%X#X%X%X%X$X$X%X%X%X%X$Xp.p.$X$X....' p.%X#Xp.;.",
";.] ..%X%X%Xp.p.$X%X%X%X$X$X%X%X%X#X$X%Xp.#X%Xp.$X%X%X$X-.$X%X%Xu.' ] $X%Xu.p.%X%Xp.u.%X%X%X#Xp.#X%X%X%X#X#X%X%X%X#X%X%Xp.#X$X#X$X%X%X$X-.$X%X%X..' ] $X%Xu.-.-.",
"] ] -.#X$X%X%X#X..p.$X%X#X#X%X#Xp.%X%X%X$X%X%X$X$X%X%X%X$X%X%X%X$Xa.$X%X%Xp.p.#X#Xp.u.#X%X%X%X#X] u.$X%Xp...p.u.p.$X%X%X$X%X%X#X$X%X%X%X$X$X%X%X#Xa.$X%X%Xp.-.] ",
"' ] p.p.$X%X%X$X....p.%X#Xp.$X#Xp.$X#Xp.%X%X%X$X$X%X%X%X%X%X%X$X$X%X%X%X$X#X$X$X#Xu.u.p.$X%X%X$X] ] p.%X.._ ....p.%X#Xp.%X%X%X#X#X%X%X%X%X%X%X%X$X%X%X%X$X#X-.-.",
"-.;.#X%X%X%X$X$X%X#X#X$X#X#X#X%X%X#X-. .p.%X%Xu.-.p.$X$X%X%X%X#Xp.p.#Xp.#X$X%X%X$X#X#X%X%X%X$X$X%Xp.#X$X .U ' p.%X#X..] p.%X%Xu...#X$X$X%X%X%X#Xp.p.#Xp.#X$Xp.p.",
"] ;.%X#X%X%X$X%X%X%X$X#X$X$X$X%X%Xp.-.' u.p.p.-.-.;.p.a.;.p.$X$X#X#X$X' ` *.*.` ' u.%X#X%X%X$X$X%X%X$X$X} {  .$X%Xp.......p.#X....u.a.p.p.p.$X$X$X#X#X%X%X%X#Xu.",
"] ;.$Xp.p.%X$X$X%X%X#Xp.p.$X$X%X%Xp.-.u.-.u.u.u.p.p.p.p.p.p.$X%X$X#X:.*.+.$.@.o.*.;.$X&.;.%X$X$X$X%X#Xu.| | u.%X%X............p.u.#Xp.p.u.p.$X%X%X%X%X$X$X%X#X;.",
"-.p.u.] -.p.p.#X$Xu.......u.#X%X%X$X$Xp.#X$X%X%X$X%X%X$X%X%X%X$Xa.i.:..X+XoXoXoX+X.X:.Q _ ;.p.$X$Xu. .R { | #X%X%X%X#Xa.$X%X%X%X$X%X$X%X%X%X%X%X%X%X%X;.u.$Xp.u.",
"-.;.#Xu.u.u.p.p.p.u.u.p...] #X%X%X%X$X$Xp.p.$X%X%X%X%X$Xa.$X;._ {..X.XOX+XoX.XXX@X@X.X|.*._ -.;.p...} x.|  .p.%X%X%X$X#Xp.#X%X%X%X%X%X$X#X$X$X%X#Xp.$X;.-.u.p.;.",
"] p.%X#Xp.p.p.u.u.u.p.#X....#X%X%X$X%X$Xp.p.$X$X%X%X%X$X' ;.*.( |.@X+XXX X}.#.].XXOXoX@X XL ` -... .6.c.f.] p.%X%X$X%X$Xp.p.#X$X%X%X%X$Xu.#X$X$X;.] p.#Xp.] -.-.",
";.p.a.%X%X%X$X$X#Xu.u.....u.%X$X$X$X$X%X%X%X%X#X#X$X$X-._ =.[.OXoXoXoXXX].K K +.$.'.'.].].'.W E u.B.c.{ } ] $X$X#Xa.$X%X%X%X%X#X#X$X$X%X%X%X%X%X%X%X%X%X$Xp.;.;.",
"-.p.$X%X%X$X$X$X$X$Xp.p.u.#X%X%X#Xu.#X%X$X$X#X$X$X$Xu.' *.[.oX+X|.@./ +.+.K L O.+.O./ H o.].'.+.r.c.c. .] $X%X%X$Xp.#X%X$X$X#X$X$X$X#X#X$X$X%X$X%X$X$X%X%X$Xp.;.",
"] ;.%X$X$X$X$X$X%X%X%X%X%X%X%X%X$X-.u.#Xp.-.u.$X%X;.' +.].oXOX.X@.G 2 F / %.O.+.+.O.J 7 H ].oX X~ x.6.p.{.%X%X%X$X..p.p.p.....%X%X#X#X..] ..#Xp.;.u.u.$X%X$X;.-.",
";.;.p.$X$X%X$Xp.#X%X%X%X%X%X%X#Xp.p.u.u.-.u.#X$X&.) }.[.$.$.[.oX'.K J K L K L / O.o.L G L $.'.&.{ k p R _ ] %X{.p.p.p.....p.$X%X%X....p.p.p...#X] ..#X#X$X$X;.-.",
"-.;.#X$X$X$Xp.p.#X#Xp.u.$X%X$Xp.p.#Xp.u.p.$Xa.-./ o.$.#./ / @..X'./ %.Q K L ( ( ) / L Q O.$.O.~ l j u G ) *.) ] #X#X;.p.p.$X%X%X$X......#X......] ] $X$X#X#X] ] ",
"] p.%X%X#X] ..#X#X#Xu...a.%X$X$X$X%X$X$Xa.$X;.L / +.L H G J ) ].#.) / K L O.O.L ! L / / +.@.L { k a u ! =.=.J ` #X%X$X$X%X%X$X%X$X..] ..] ] ] ] ] ] $X$X#X#X{.] ",
"] p.$X#X] ] ] ;.%X%X%X$X$X$X#X#X%X%X%X#X_ %.=.( L / L G 8 G O.'.+.L L ) O.L F 0 q G L O.%.Q G i s w u Q +.#.+.L ^ $X%X%X%X%X$X%X$X$X..] ] ] ......#X..$X$X$X{.] ",
"-.p.$X#Xp.p.] p.%X%X$X%X%X$X#X%X%X;.;.-.E L %.! Q Q Q H q F W O./ J K O.O.K G F F H ) %.) K G i j l [ J / +.#./ / ;.;.;.$X$Xp.$X%X%X$Xp.p.#X$X$X$X$X$X$X$X$X$X] ",
"] p.%X%X%X%X%X$X%X$Xp.u.#X%X%X%X{._ ^ L Q Q Q K L L ! Q H 0 q Q Q Q L L / L / ) L L / / ! E E u s l x.U R K / +.#.O.L ^ ;.;.-.#X$X%X%X$X%X%X%X%X%X%X%X$Xp.#X..] ",
"' ;.#X%X$Xp.$X%X$X#X#Xu.$X%X%X%X-.I F H Q Q Q / O.O.( Q J Q Q Q Q ! o./ L ( W T W L / O.J 5 w a a l l { w 3 8 Y ( / L %.-.$X%Xu.#X%X%X%X%X%X%X%X%X$Xp.$X$Xp.] ' ",
"] ;.#X%X#X;.#X$X$X#Xp...p.%X%Xu.^ F q H W Q Q / O.O.o.! Q Q ! L ! L / / L L X.t T H Q / G # % % & h l h % . # u J H J L ^ ' ;.p.$X$X%X%X%X#X$X$X$X$X#X$X%X..] ] ",
"-.#X%X%X$X;.;.$X%X#X..u.u.u.] ^ P H F F K K J W L Q Q Q Q F H Q ! L K L L K X.b t p T E 0 # $ $ . h l & . . & i H q F F q P E p.$X$X%X%X%X;.p.$X$X$X%X%X%X#X{.;.",
"] u.$X$X#Xp.#X#X#X#Xp...#Xp.^ P q G F F K J G J H G q G L G G K Q J H W L K 1.C z p W L 0 @ & %   % & $   o a w 6 0 F F 8 8 F I _ u.#X%X%Xp.p.%X%X%X$Xp.#X%X$X;.",
"] u.#X#X#X#X$X$Xp.%X$Xu.$Xu.P 0 8 0 q F H J G J H F 0 F J J J J W T J J L L >.C z H K L F w w & o . . X o $ & & 3 P G F 0 8 0 4 0 ^ u.%X%X$X#X$X%X$X#X] ] %X#X] ",
"] -.p.p.$X%X%X%X%X%X%X%Xp._ 8 8 8 7 8 0 F G F F F H J J J J K J B >.W J J W p t J K H K W F 6 3 4 # $ & 3 3 3 2 0 F F F 0 8 8 8 8 F ` p.%X$X$X%X$X#X#X#X$X%X] ] ",
"] ] u.u.p.$X$X%X%X%X%Xp.^ F 8 8 8 8 8 0 F F F F F F H H G H H K X.z H H G G q q K G F J J F 9 8 0 9 7 u 0 0 5 0 F F 0 0 8 8 8 8 8 8 F ^ #Xp.#X%X%X$X#X#X%X%X] _ ",
"] ] ] ] ..#Xp.#X%X%X#X] P 4 0 8 8 8 0 q 0 q F F F F F F F q G J p y q q F F F G J F 0 G G F F F F G F F F G F F F F 8 8 7 8 8 8 8 5 5 F ` ..#X$X%X%X#X$X%X%X] ' ",
";.-.] -.....#X#X%X%X;.^ F 8 8 8 8 8 8 8 0 q F F q q q q q F F F F F q q F F F F F F F F F F F F F F G F F q F F q 8 2 2 4 8 8 8 8 4 4 8 0 ' %X#X] ;.%X%X%X#X#X] ",
"u.-.;.p.p.#Xp.#X#X#X' F 8 4 8 8 8 8 8 7 8 q q 0 0 0 8 8 q F F F G G G G F F F F F F G F F F F F F F F G F F 8 0 8 8 2 2 8 8 8 8 5 4 4 4 8 ' %X$X-.-.%X$X;.p.] #X",
"] ;.#X$X%X%X#X#Xp.p.` 5 4 4 8 5 8 8 7 6 8 8 0 8 0 0 8 8 q q q F q F F F F F F q F F F F G F F F F 0 0 q 0 0 8 5 8 8 8 8 8 8 8 2 2 2 2 0 P ] $X%X;.;.$Xp.] ;...] ",
"_ -.$X$X#X$X$X$X$X#X_ 0 5 4 3 2 8 8 8 7 1 2 8 8 8 0 8 8 8 8 0 0 6 1 8 0 q F q q 0 0 q F F F q 0 0 8 2 2 8 0 8 8 8 8 8 8 8 6 2 1 4 4 0 R ..#Xp.#X$X$X%X#Xp.%X;.] ",
"' -.p.a.p.#Xp.;.p.p.] ^ P 5 4 4 7 7 7 8 2 2 8 8 8 8 8 8 8 8 8 8 6 2 7 8 0 0 0 0 8 8 0 0 q q 8 8 7 5 2 2 5 8 8 8 0 8 8 2 2 2 2 1 8 P R ` u.#X$X%X$X$Xp.u.p.%X#X-.",
";.-.-.p.#Xp.] ] u.u.u.p._ P 0 5 8 2 2 2 7 8 7 8 8 8 8 8 8 0 8 8 8 8 8 8 8 8 0 8 2 2 8 8 8 8 0 8 2 2 8 8 8 8 8 8 8 8 7 1 4 5 0 8 P ` ' ' u.#X%X%X%X#X-.] ] p.p.;.",
"] p.$X$X$X#X;.-.u.;.u.p.p..._ I 8 2 2 2 7 2 1 1 2 2 5 8 8 8 8 0 0 8 8 8 7 8 8 8 8 8 0 8 8 8 8 8 8 8 8 8 0 8 2 2 2 2 7 2 1 5 E ) u.p.$X$X$X#X#X$X$X$X#X;.;.#X;.] ",
"] u.#X#X$X%X$X#X$Xp.p.$X%X%X..' ^ R E I 9 9 6 1 1 2 1 2 5 4 5 5 8 7 8 7 7 8 7 8 8 8 8 8 8 8 8 7 7 8 2 2 7 4 2 3 w y z { U E ..$X%X%X%X%X%Xp.p.p.p.p.%X$Xp.#Xu.-.",
"-.] u.u.#X%X%X%X$X$X$X#X$X%Xp.p.p.$X$Xu.>.n n p i i 9 9 9 7 2 3 1 1 6 7 8 8 8 8 8 7 7 8 8 7 8 7 1 1 4 4 4 4 9 y k 5.N.V.y.u.%X%X%X%X%X%X$Xp.p.p.....$X%X$Xp.u.u.",
"' ] ] p.p.#Xp.p.p.u.u.u.u.p.$X$X$X$X{.i.k.U.!.E.I.D.V.m.7.k 3 3 1 6 7 8 8 2 2 2 2 2 2 2 2 1 6 6 4 3 w p k 2.m.D.U.).3X:Xh.u.#X$X$X%X%X%X$Xu.-.u.' ' p.%X$Xp.] ` ",
"' ] u.#Xp.] u...............p.#X%X#X;.s.I.,XrXrXeX9X8X8X(.D.7.g z T 6 6 1 + 1 + + + + 1 6 w y p >.2.7.N.D.E.>X8X0XeXwX1Xh.u.u.u.p.%X%X%X$X$X#Xa.p.p.$X%X%X..' ` ",
"' -.-.;.p.] ] ] ] ] ] ....] ] ..$Xp.$X*XS.3XrXrXrXrXsXsXiXiX_.5.n.0.> @ @ O O @ O O @ % w g Z m./._.8XyXpXpXpXuXuXuXqX;Xj.u.;.] u.%X%X%X%X%X%X%X$X$X%X%X$X] ' ] ",
"' ' ;.;.p.u.] ] ] ] ] ] u.p...$X$X#X$X%XS.:XrXrXiXsXaXsXsX8XU.b.S c > > - - - = = % % > d m S D.9XyXyXaXfXfXsXpXuXrXqX1Xz.p.p.$X%X%X%X%X$X$X$X$Xp.-.u.$X$X#Xu.u.",
"' -.;.$X%X#Xu.] u.u.p.p.p.#X%X%X%X$X$X*XS.,XrXwXuXsXaXsXaXU.0.8.g - : > > < : : : - > > d c S N.).eXpXpXsXsXsXpXuXrXwX1Xj.a.$X%X%X%X%X$Xp.p.$X$X..' ' p.%X$Xp.;.",
";.-.-.$X%X%Xp.u.#X%X%X%X$X$X%X%X$X{.%X*XS.,XrXrXrXrXsXsXeXZ.3.V g > - > > > > - : : > > > d 5.v.0._.aXpXsXsXpXpXuXuXwX<Xh.u.%Xa.$X%X%X#X-.$X%X%Xu.' u.$X%Xu.-.-.",
"] -.;.#X%X%X%X#X..p.$X%X#X#X%X#X#X%X$X&XS.).wXrXrXuXsXyX>Xq.V 3.x > > - - - > > : : : > > e M S 3._.pXsXpXpXsXpXaXuXwX1Xj.a.%X$X$X%X%X%X#X%X%X%X$Xa.$X%X%Xp.-.] ",
"' ' ;.a.$X%X%X$X....p.%X#Xp.$X#X;.%X{.i.C.=XwXwXrXaXsX9XZ.5.9.8.x ; > : > - - > : : > > > < f M 0./.yXsXsXpXsXpXuXrXwX6Xz.$X%X$X#X%X%X%X%X%X%X$X$X$X%X%X$X#Xu.-.",
"-.;.$X$X%X%X$X$X%X#Xp.%X#X#X#X%X%X$X;.r.C.).wXrXrXaXsX>Xv.5.n.F.b - - : > > > - > - > > < e < M b.U.8XuXpXpXpXpXuXrXwX<Xz.$X%Xu.u.#X$X$X%X%X%X{.p.p.#X#Xp.$Xp.u.",
"' p.$X$X$X%X%X$X%X%X$X#X$X$X$X%X%X;.] r.C.~.qXwXrXuXaX).4.4.8.C x - > > - - > > - > - > > e < M n.U.(.yXpXdXpXpXuXrXqX;Xh.u.p.u...u.p.p.p.p.$X$X$X#X$X$X%X%Xp.p.",
"] #X$Xu.p.%X$X$X%X%X$Xu.#X#X%X%X%X..p.i.A.!.7XqXrXpXaX(.A A A x , - > > > > > > - > - - : < e M n.Z.(.uXsXdXsXaXrXuXqX;Xh.-.u.u.p.p.a.p.u.p.#X%X%X%X%X%X%X%X#X;.",
"u.u.u.] ..#Xp.a.#Xu.......u.$X%X%X$X{.a.C.Q.7XqXaXfXaX(.A A V b , ; > > > > - > > > > - : < d c 0.N._.aXdXaXaXiXuXrX7X;Xh.*.%X%X$X%X$X$X%X%X%X%X%X%X%X#Xu.$Xp.;.",
"-.u.#Xu...u.p.p.p.u.u.p.....#X%X%X%X$X&XC.Q.4XwXpXaXsX_.4.A A M , ; > > > - > > - > > > > < d M 0.Z.>XsXdXaXaXaXaXrXqX=Xh.u.$X%X%X%X%X%X#X$X$X%Xp.u.#Xu.] u.u.;.",
"] p.%X$Xp.p.p.u.u.u.p.$Xu...#X$X$X$X{.&XC.~.5XwXrXrXdX>X3.A S B e * > > > > > - > > - > > < f M 5.N._.sXdXsXsXsXaXrX0X-Xh.u.a.%X%X%X%X$Xu.#X$X$Xp.-.#X#Xp...-.;.",
"u.p.$X%X%X$X$X$X#Xu.-.] ' u.%X$X#X#X%X&XC.Q.4XqXtXpXaX).4.N A B < = : : - > > - : : : > > > f m 5.N.(.sXfXsXaXtXtXeXqX;Xz.$X$X$X#X$X$X$X%X%X%X%X%X%X%X%X$X#X;.;.",
";.p.$X%X%X$X$X%X%X$Xp.p.p.#X%X%X$Xu.{.s.C.W.2XqXwXuXaX).3.N A 8.x > > > > - - > : : : : > > f m A N._.iXsXsXsXaXrXwXqX-Xz.p.a.$X$X$X#X$X$X$X$X$X$X$X$X%X%X$X;.;.",
"-.;.%X$X$X$X$X%X%X%X%X%X%X%X%X%X%X-.;.s.C.W.2X0XrXwXaX).3.m 9.e.b = < > - > > - : : : : < d f v N N._.uXaXaXsXiXwX0X5X=Xh.t.-.%X%Xp.a.u.u.u.p.p.p.u.;.$X%X#X;.;.",
";.;.;.#X$X%X#Xp.#X$X%X%X%X%X%X#Xp.u.;.t.7.L.2X0XqXwXtX/.C x C F.b = : > - > - > > : : : > < f v N N._.uXdXsXrXrXeX5X2XR.y.-.$X%X$X..u.p.p.u.u.u.] -.p.#X$X$Xp.] ",
"-.;.#X$X$X#Xp.p.p.#Xp.p.$X%X$Xa.p.$X..p.7.P.;X5XqXwXrX!.A x 3.G.B = - > > - - > - > - - > d f c Z N.).uXsXaXrXrXwX4X~.S.y.a.%X%X$X-.] u.p.u.....] ] #X#Xp.#Xu.] ",
"] p.%X%Xp.] u.#X$X$X....#X%X$X#X$X%X%Xs.C.P.~.;X7XqXrXQ.N g 9.J.B = - - > > > > > - > > > d f c M n./.rXuXuXrXrXqX2XR.w.h.a.$X%X$X;.-.] ] ....] ] -.$X$X#X#X;.] ",
"] p.$X#Xu.] ' u.%X%X%X$X%X$X#X$X%X%X%X&Xk.U.~.<X2XqXrX(.3.x 3.G.B = : > - > > - - > > - > < f x M b./.eXpXrX0X7X;XW.~.I.j.$X$X%X$X$Xu.] ] ] u.p.p.p.#X#X$X$X#X;.",
"-.p.$X$X#Xu.u.#X%X%X%X%X$X$X#X%X%X$X%X$X7.V.~.<X2X,X7X!.3.x 3.G.B - > > - > - > - > - - > > d g m n.E.0XqX0X5X;XW.W.W.I.d.;.;.$X%X%Xa.;.u.p.#X$X$X$X#X#X#X%Xp.;.",
"] ;.%X%X%X%X$X%X$X$X..] $X%X%X%X%X$X$Xa.<.m.~.1X~.W.<XW.8.v C G.B = > > : : > > : : > > > < d x M 0.R.;X<X<X4XW.D.W.R.k.i.] ..#X$X%X%X%X%X%X%X%X%X%X%X$Xp.#X;.] ",
"] ] $X%X$Xp.$X%X$X$X$X] $X%X%X$X#X#X#X..i.z.P.!.,X;X,XE.0.v V e.b * < e < < < > < > > > < < d g M 8.P.~.E.W.,X~.L.L.e.7.$X$X%X;.#X%X%X%X%X%X%X%X%X$Xp.#X$X;.] ' ",
"] ] $X%X$X] #X$X$X$X#X] p.$X%X$Xa.p.p.p.#Xy.q.K.Q.;X!.Z.3.M A e.x * < e < < < ; < > > , < < e g M 8.K.~.Y.L.~.~.L.M.7.<.$X%X$Xp.#X$X%X%X%X#X#X%X%X#X#X$X%X;.] ' ",
"] {.%X%X$Xp.;.#X%X$X] p.....] ] p.$X%X%X$X` >.w.K.L.Y.e.v M 9.D r * , < < < ; , < , , < < < d f n 8.K.~.~.R.L.V.n.n.y.&.p.u.] $X%X#X%X%X%Xp.;.$X$X%X%X%X%X$X#X;.",
"] {.$X$X#Xp.#X#X#X#Xp.] $X$X#X{.#X$Xa.p.p.p.u.<.7.M.K.q.x b V S x < f f f f f f e f f d f f r g v 3.q.L.L.K.K.q.>.<.` -.;.$X$X#X#Xp.$X%X%Xp.p.$X%X%X$Xp.#X%X$X;.",
"] ] #X#X#X#X$X$X#X$X$Xp.$X%X$X$X$X%Xp.u.#X%X%X_ ,.7.w.4.x x b S S 9.v.v.v.v.v.v.D D D S S N f f v N 3.q.q.w.k.1.} ` ] u.a.$X%X{.u.u.#X%X%X$X$X%X%X$X#X] ..%X#X] ",
"] ;.] #X$X%X%X%X%X%X%X%X#X] %X$X$X%X$X$X$X$Xp.] ] t.^ { x x c S U.`.`._.`.`.`.^.^.^.T.H.N.v.m g v M >.>.>.~ t.u.u.$X$X$X$X$Xp.-.u.$X#X$X%X%X$X%X$X#X#X#X$X%X..] ",
"] ] ] ] #X$X$X$X%X%X$X$X] #X%X%X$X%X$X$X$X$Xp.u.;.{.' ^ } T ,.<.l.A.A.z.A.A.k.l.l.l.l.g.g.g.<.~ r.r.r.r. .' p.$X%X%X$X$X$X$Xp.-.p.$Xp.u.#Xu.#X%X%X$X#X#X%X%X] ` ",
"] ] ] ] ] $Xp.#X%X%X$X] #X$X$X%X$X%X#X#X%X%X$Xp.$X$X$Xu.-.-.;.;.] ] ] ' ] ] ` _ &.' ^ _ ' ] ;.#X$X%X$Xp.p.$X%X%X$X$X$Xa.%X%X#Xp.#X%X#Xp.u.p.#X$X%X%X#X$X%X%X;.` ",
";.] ] ] ] ] {.$X$X$X$X{.{.#X%X$Xu.u.;.p.%X%X%X#X$X%X%X%X$X$X$X;.] ] $X{.{.] {.%X$Xp.] ] ] ] p.$X$X$X$Xp.p.p.$Xp.u.p.u.p.%X%X$X$X#X%X%X$X#X$X$Xp.-.;.%X%X%X#X;.] ",
"] ] ] ] ] ] p.] ] ] ] ;.] ....] u.u.-.u.u.p.p.#Xp.p.#X#Xu.#X#Xu.' ' p.p.] ] p.#X#X] ] ] u.-.-.;.u.-.u.p.p.-.;.u.u.u.u.u.;.p.p.#Xp.p.#X#Xp.p.p.p.' ' ;.;.] ] ] ] ",
"_ ` ] ] #X] ] ] ] ' ] ] ] ] ] ] p.-.;.;.' ' ] u.u.] ] ] -.] -.;.' ' ] ' _ ' ] ] ] ] ] ] -.u.-.' ' ' ' ' -.] ' -.u.-.p.;.' ' -.u.;.] ] ] -.] u.u.' ' ] ' _ ' _ _ "
};
