/* XPM */
static char *__resized[] = {
/* columns rows colors chars-per-pixel */
"80 80 225 2 ",
"   c #0D0A0A",
".  c #110E0E",
"X  c #0E120A",
"o  c #141207",
"O  c #13120C",
"+  c #171B0A",
"@  c #161411",
"#  c #1B1815",
"$  c #1C1C15",
"%  c #24170F",
"&  c #231612",
"*  c #271917",
"=  c #2B1C17",
"-  c #271A18",
";  c #291B19",
":  c #301E17",
">  c #301F1C",
",  c #1A2506",
"<  c #1D2B07",
"1  c #1B250A",
"2  c #1E2C09",
"3  c #1F3007",
"4  c #1E2712",
"5  c #20290A",
"6  c #202E09",
"7  c #223409",
"8  c #29340F",
"9  c #263B0A",
"0  c #293E0B",
"q  c #252616",
"w  c #33211D",
"e  c #3D271E",
"r  c #3C2D1B",
"t  c #2C3312",
"y  c #283912",
"u  c #373918",
"i  c #1E1E20",
"p  c #282725",
"a  c #362420",
"s  c #3A2622",
"d  c #3D2B23",
"f  c #2C3129",
"g  c #393724",
"h  c #393A39",
"j  c #41391C",
"k  c #422D24",
"l  c #432F28",
"z  c #443226",
"x  c #4B3225",
"c  c #443B26",
"v  c #463328",
"b  c #49342A",
"n  c #4D3A2C",
"m  c #513626",
"M  c #523B2E",
"N  c #5B3F2E",
"B  c #4B3B30",
"V  c #553C31",
"C  c #593B34",
"Z  c #603F3C",
"A  c #2B430B",
"S  c #2E4A0C",
"D  c #314E0D",
"F  c #34530E",
"G  c #365A0F",
"H  c #395D0F",
"J  c #2A4611",
"K  c #2C4B13",
"L  c #2D461E",
"P  c #334C12",
"I  c #374818",
"U  c #2F5316",
"Y  c #345512",
"T  c #395412",
"R  c #365911",
"E  c #395C10",
"W  c #37571D",
"Q  c #355D19",
"!  c #3C620E",
"~  c #3C6311",
"^  c #3E6812",
"/  c #36631A",
"(  c #39641B",
")  c #3D6D1D",
"_  c #3F711F",
"`  c #394929",
"'  c #3C5323",
"]  c #3A5629",
"[  c #3D4838",
"{  c #3C6522",
"}  c #3E6B21",
"|  c #3F7220",
" . c #41471A",
".. c #41660C",
"X. c #426B0F",
"o. c #46710E",
"O. c #4B760E",
"+. c #4D7C0E",
"@. c #507E0F",
"#. c #426A11",
"$. c #406A16",
"%. c #477517",
"&. c #4B7912",
"*. c #41751F",
"=. c #43791F",
"-. c #517E11",
";. c #494828",
":. c #445926",
">. c #515829",
",. c #464933",
"<. c #5B4234",
"1. c #594535",
"2. c #5D493A",
"3. c #435439",
"4. c #5B5636",
"5. c #644539",
"6. c #644B3B",
"7. c #66543C",
"8. c #685A3C",
"9. c #79523C",
"0. c #456625",
"q. c #436E22",
"w. c #53662E",
"e. c #526C2D",
"r. c #427620",
"t. c #4B7426",
"y. c #457C21",
"u. c #4A7D25",
"i. c #4D7929",
"p. c #54782B",
"a. c #546632",
"s. c #5A7231",
"d. c #5E7932",
"f. c #6C623E",
"g. c #67693C",
"h. c #627B36",
"j. c #434445",
"k. c #4E524C",
"l. c #515153",
"z. c #664441",
"x. c #694D40",
"c. c #6D5442",
"v. c #695944",
"b. c #765944",
"n. c #735B49",
"m. c #5C6059",
"M. c #756547",
"N. c #756A42",
"B. c #7B614D",
"V. c #6E7142",
"C. c #7B7446",
"Z. c #60655B",
"A. c #7A6651",
"S. c #825A3F",
"D. c #8A5E43",
"F. c #865E53",
"G. c #8F6145",
"H. c #83664C",
"J. c #86694E",
"K. c #886A4F",
"L. c #84754B",
"P. c #846B55",
"I. c #8C6D52",
"U. c #91665C",
"Y. c #8C7355",
"T. c #947455",
"R. c #95765C",
"E. c #95795C",
"W. c #9A7B5B",
"Q. c #9D6E64",
"!. c #8F7964",
"~. c #947761",
"^. c #967A64",
"/. c #9A7C65",
"(. c #9A7E69",
"). c #A07865",
"_. c #A5756B",
"`. c #53820F",
"'. c #588A0F",
"]. c #5C920F",
"[. c #4C841F",
"{. c #558812",
"}. c #5D9111",
"|. c #619611",
" X c #669D12",
".X c #6BA411",
"XX c #6EA912",
"oX c #71AB11",
"OX c #75B213",
"+X c #79BA13",
"@X c #478022",
"#X c #498423",
"$X c #4C8A24",
"%X c #55832A",
"&X c #58872C",
"*X c #678A32",
"=X c #9C855A",
"-X c #9E875A",
";X c #A4875E",
":X c #9C8061",
">X c #9D816B",
",X c #A38363",
"<X c #A88662",
"1X c #A58D62",
"2X c #AC8A63",
"3X c #AA896A",
"4X c #B08D67",
"5X c #B18F6B",
"6X c #B3916D",
"7X c #A78B73",
"8X c #AE9077",
"9X c #B69472",
"0X c #B99674",
"qX c #BB9877",
"wX c #B6967C",
"eX c #BC9B7C",
"rX c #C09E7E",
"tX c #B69A80",
"yX c #BE9E81",
"uX c #BEA286",
"iX c #C09F82",
"pX c #C2A285",
"aX c #C5A689",
"sX c #C7A88B",
"dX c #C8A98C",
/* pixels */
"U / *.) _ _ _ _ =.) _ _ =.=.=._ _ | r.*.) ) _ y.=.=.r.=.) } ) _ _ _ =._ _ r.=.) / ) *.) ) *._ _ *.) ) _ | | r.=._ _ =._ ) ) _ y.r.*.*.r._ ) ) _ _ r.r._ _ =.) Q ",
"( ) *.*.| r._ _ _ _ _ r.r.=.=._ | r.=._ _ _ r.r._ _ _ _ | r.y.y.@Xr._ ) _ y.@Xy.r.r._ *.*.r._ _ *._ _ *.{ Q _ _ _ r.*._ _ _ _ =.r._ _ _ _ r.y.y.y.r.*._ _ y.*.) ",
"y.*.*.y.@Xy._ } _ _ y.@Xy.y.y.| | y.| | _ r.y.r.| | _ _ r.@X$X$X#X#X*._ _ y.#X$X$X@Xr.y.y.y._ _ _ =.=.=.L L | r.r.y._ _ _ r.y.r.*._ _ ) r.#X$X#X#X#X*.) *.y.y.=.",
"*.=.#X$X#X@Xr.r.=.=.=.@X#X$X$X$X#X@X| | y.#X$X#X@X@X#X@X#X@X#X#X#X#X#X=.=.@X#X@X#X#X#X#X#X#Xr.*.y.*.=.y.] U #X$X#X#X| _ y.#X$X$X#Xy.#X#X#Xy.#X#X#X#X#Xr.*.#X=.) ",
") =.y.#X#X$X#X#X@Xy.y.@X$X$X#X#X#X#X@X@X$X$X$X$X$X#X$X$X$Xy.y.@Xy.y.#X#Xy.@X@X#X#X@X@X@X#X$X@X@X@Xy.y.@X} ) @X$X#X$X@X@X$X$X$X$X$X#X$X$X$Xy.y.y.y.y.#X#Xy.y.y.*.",
"*.*.r.r.y.$X$X#X#X#X#X#X$X$X@Xy.@X$X$X$X$X$X$X$X$X$X$X#X#Xy.r.y.| | #X$X#Xy.@X$X#Xy.*.r.@X$X$X$X#X#X@X#X$X#Xy.y.@X$X$X$X$X$X$X$X$X$X$X$X#Xy.y.y._ r.#X$X#Xy.r.r.",
") $.r.y.#Xy.y.y.y.r.r.r.r.y.#X#X#X#X@Xy.r.y.@X#X#X$X$X$X#Xr.r.r.} _ y.$X$Xy.r.r.@Xr._ y.@Xy.y.@Xy.r.r.r.r.y.@X#X$X#X@Xr.r.@X@X#X$X$X$X$X#Xr.*.r.) ) u.$X$Xy.) ( ",
") ) r.y.y.r.r.r.| | _ | | | y.#X$X@Xy.r.y.r.r.=.@X$X#X$X$X@X@X@Xy.=.#X$X$Xr._ r.y.r.r.@Xy.| | | | _ | | | | y.#X#X@X@Xr.y.r.r.r.y.#X$X$X#X#Xu.#Xy.y.#X$X$X*.) / ",
") _ =.@Xy._ _ | _ | _ | _ _ _ r.#X@X#X$X#X#X*._ *.#X$X$X$X$X$X$X#X#X#X$X#X| r.y.@Xr.r.@Xy._ _ | _ | | | | | } y.@X@X#X$X$X@X| | r.#X$X$X$X$X$X$X$X#X$X$X#X_ ) ) ",
") _ *.y.y.| _ | _ | | _ r.y.r.@X#X#X#X$X$X#X@X#X$X$X$X$X$X#X$X#Xy.*.r.#X#X#X#X#Xy.r.r.y.y.r._ _ _ _ | _ | y.| @X#X#X$X$X$X#Xy.#X$X$X$X$X#X#X#X#Xy.| r.@X$X#Xr.=.",
"_ _ r.@X#X@X| | r.y.y.r.y.#X#X$X$X#X$X$X$X#X#X$X$X$X$X$X=.y.#X#X| ) | y.#X#X$X$X#Xr.r.@X$X@Xr.| r.y.y.| @X#X#X$X$X#X$X$X#X#X#X$X$X$X$X#Xy.y.#X#X| ) ) @X$X@Xy.=.",
"=._ r.$X$X$X@Xr.@X#X$X$X#X#X$X$X$X#X#X$Xy.@X#X@Xu.$X$X#X*.#X$X$Xr.) | #X$Xr.y.#X$Xy.r.$X$X$Xy.r.@X$X$X$X@X@X$X$X$X@X#X$Xy.@X$X@X#X$X$X#Xr.#X$X$X| } _ #X$X| _ =.",
"_ _ *.@X$X$X$X@Xr.r.#X$X@Xy.$X#Xy.$X#X#X#X$X$X#X#X$X$X$X#X$X$X$X#Xy.#X$X$Xy.y.#X@Xy.r.@X$X$X$X@X_ r.#X$X) / @X@Xy.#X$X$X#X$X$X@X#X$X$X$X#X#X$X$X#X@X#X$X#Xy._ _ ",
") _ y.=.#X$X$X#X| | y.$X@Xy.$Xy.y.#X#Xy.$X$X$X#X#X$X$X$X$X$X$X$X#X#X$X$X#X#X#X#Xy.r.y.y.#X$X$X#X_ _ y.u.] U y.y.y.$X@Xy.$X$X$X#X@X$X$X$X$X$X$X$X#X$X$X$X#X#Xy._ ",
"*.y.#X#X$X$X#X#X$X@Xy.$X@X@X@X$X#X#X*.} y.$X$Xr.*.y.#X#X#X$X#X[.y.y.@Xy.y.#X#X$X#X#X#X#X$X$X#X#X$Xy.{ [ ] ( y.$X$X@X| | r.$X$Xr.r.y.#X#X$X$X$X@Xy.y.y.@X#X#X@Xr.",
"_ =.#X#X#X$X#X$X$X$X#X@X#X#X#X$X$Xy._ ) r.y.y.*.*.y.y.=.r.y.#X#X#X#X#X} ( &.%.( ) r.#X#X#X$X$X#X$Xe.3.] } y.#X$X$Xy.| | | y.@X| | y.y.@Xr.y.#X#X#X@X#X#X#X#X@X=.",
"*.=.#Xr.y.$X#X#X$X$X@Xr.@X@X#X$X$Xy.*.r.r.r.r.r.y.y.y.y.r.y.[.$X#X@X-.%.o.@.O.X.%.=.#X| | $X#X#X| k.[ { _ $X$X$X$X_ _ _ _ _ @X_ t.@X@Xy.| @X#X$X$X$X$X#X$X$X@X=.",
"=.=.r._ r.y.y.#X#Xr.| | | r.#X$X$X#X#Xy.y.#X$X$X#X$X#X$X$X$X$X$X@Xt.-. XOXoX.XoXOX X-.R / y.y.r.} 3.[ | _ | #X$X$X$X#X@X#X#X$X$X#X$X#X#X$X$X$X$X$X$X$X@Xr.$X@X_ ",
"*.y.y.r.*.r.r.y.y.r.r.y.| | @X$X$X$X#X#Xy.y.#X$X$X$X$X$X#X#Xy.( [. X XoXOX.X X.X+XOX X}.&./ _ | ] [ { @X_ _ @X$X$X$X#X[.| #X#X$X$X$X$X#X#X#X#X#X#X_ #X_ | r.r.=.",
") y.$X#Xy.y.y.y.r.r.y.@Xr.| @X#X$X#X$X#Xy.y.@X$X$X$X$X@X) =.*.H |.+XOX.X|.'.@.`..XoXXX+X}.H ^ ] [ ] { @X_ _ #X$X$X#X$X#X#X| #X$X$X$X$X#X_ @X[.#X_ _ @X#Xy._ _ *.",
"r.y.#X#X$X$X#X#X@Xr.| _ } r.$X#X#X#X#X$X$X$X$X#X@X#X#Xr./ &.].XXXX.X.X.X`.G G o.`.`.`.'.'.`.G ` k.] / _ _ _ #X#X#X#X#X$X$X$X$X#X@X#X#X$X$X$X$X$X$X$X$X$X#X@X=.=.",
"*.y.#X$X$X#X#X#X$X#X@Xy.y.@X$X$X#Xr.@X$X#X#Xy.#X#Xu.*.$.%.|.oXOX}.O.! o.o.G H o.o.X.! D ..'.O.w.m.] Q | @X#X$X$X#X| #X#X#X#X@X#X#X#X@X@X#X#X#X$X$X$X#X$X$X@Xy.=.",
"*.y.$X#X@X#X#X$X$X$X$X$X$X$X$X$X#X*.r.@Xr.*.r.#X$X=.) o.'..XXX XO.S < S ^ ^ X.o.o...F 6 S `.].*XZ.[ Y @X#X$X$X$X#X_ y.@X@X_ _ $X$Xy.@X| | | y.y.=.=.=.#X$X#Xy.=.",
"*.=.y.#X#X$X#Xy.@X#X$X$X$X$X$Xu.y.r.r.r.r.y.@X#X*...{.].@.@.].XX`.G F F H G H ! o...H S ! `.+.e.m.] F F / _ $X[.y.y.y.| _ _ #X$X$X| | y.y.y.y.| _ _ @X@X#X@X=._ ",
"*.=.#X#X#X#Xy.y.@X@Xy.y.#X$X#Xy.y.#Xy.r.y.#Xu.$.^ X.@.+.~ ! O. X`.! ..E R H ~ ~ ....E Q X.@.! :.k.` I D ^ %.^ *.@X#X@Xr.@X@X#X$X#X_ _ | @X| _ | _ _ #X#X@X@X_ _ ",
"_ y.$X#Xy._ | @X@X@Xr.| @X$X#X#X#X$X#X#Xu.#X=.H ! o.E D S F ^ '.+.X.! G E X.! ~ E G E ..o.O.G ` [ h g E &.O.F ( @X#X#X#X$X$X$X$X$X| | _ _ | _ _ _ _ #X#X@X@X[._ ",
"_ y.#X@X=.) _ y.$X$X#X#X#X#X@X#X$X$X$X@X/ #.&...H ! E A 7 S #.`.o.H H X.X.H S 7 9 D ! X.#.E D y f j.3.K ^ +.o.H / #X$X$X$X#X#X$X$X#X| _ _ _ | @X| @X| #X#X#X[._ ",
"*.y.#X#X@X=._ @X$X$X#X$X$X#X@X$X$X=.=.*.Y E #.E R E E P 0 A G X.~ Y R ^ X.G S A A F ~ X.~ F S 9 p j.k.` E o.O.^ ! %.=.=.#X#Xy.#X$X$X#X| | @X#X#X#X#X#X@X#X#X#X_ ",
"*.=.#X$X$X$X$X#X$X#Xy.r.@X$X$X$X=.( R E E R R F G H E F F 9 0 R E E E E ! E ! ^ H H ..H E Y P 9 4 [ l.k.] F ! o.O.X.E Q y.y._ #X#X$X#X$X$X$X$X$X$X$X$X#X@X@X| _ ",
") *.#X$X#Xy.#X#X#X@Xy.r.#X$X$X$X=.K A D E Y R ~ X.X.~ F F F F E Y E ....H !  .I T H H X.F 3 t - X p j.j.f 4 3 U ~ ~ ~ ..*.@X#Xy.@X$X$X$X$X#X$X$X$X#X@X#X$X| _ ) ",
"_ =.#X$X#X=.@X#X#X@Xy.r.y.$X#Xr.Q J 0 D Y Y E ! X.X.~ E E R E E E E ..H H H I j I P Y ! S + # #   i f j.i   + y F D F H / ) =.y.#X#X$X$X$X#X#X#X#X#Xy.#X$X| _ _ ",
"*.@X#X$X#X=.=.@X$X@X| r.r.r.| Q S D A A F E F R E E E E R S A E E G R G H H  .j r u I Y A X # .   . p f #   $ y S 0 A A 0 A U y.#X#X$X$X$X=.@X#X#X#X$X$X$X@X[.=.",
"*.r.#X#X@Xy.@X@X#X#Xy._ @Xy.Q J A A A A F F F F D S 0 S G D S F R F D T H H >.N j u F F 9 @ $ #     @ $ . . 4 q 4 A A A 7 7 A K / | @X$X$Xy.y.#X$X$X#Xy.@X$X#X=.",
"_ r.@X@X@X@X$X#Xy.#X#Xr.#Xr.J 9 9 0 0 A F F S D D A 9 A F F F F  .I F F G H ;.N j D H H J 5 q $ X   . . X @ i $ 4 A S A 7 9 9 3 0 Q r.$X$X#X#X#X$X#X@X_ _ $X@X_ ",
"_ *.y.y.@X$X$X$X$X$X$X#Xy.Q 7 7 7 < 6 0 A A A A A S F F F F G F ;.;...F D ..u r F G D G T A 5 1 2 + # # 4 , + < 9 A A A 9 7 7 7 7 A ( y.$X#X#X$X#X@X@X@X#X$X| _ ",
"_ _ r.| y.$X@X$X$X$X$X@XQ J 9 7 7 6 7 9 A A A A A S D D S D F F j j S S A S 0 0 F D A F F A 9 8 0 9 4 t 9 9 3 9 0 A 0 7 7 7 7 7 7 7 A Q @Xy.@X$X$X#X@X@X$X$X| / ",
"_ _ _ _ y.y.y.@X$X$X#X_ J 7 7 7 7 7 9 9 9 0 A A A A A A 0 0 A G j t 0 0 0 0 A S F A 0 D S A A A A J S A A A A A A 9 7 3 6 7 7 7 7 3 3 A / _ y.$X#X$X#X#X#X$X_ ) ",
"*.*._ *.| | y.#X#X#X=./ y 7 7 7 9 7 7 7 9 0 A A 9 0 0 0 0 A A S A 0 0 A A A A A A A A A A A A A A A A A A A A A 0 9 < < < 6 7 9 7 2 < 7 9 _ $Xy.=.=.#X$X$X#X@X=.",
"r.=.=.y.@Xy.@Xy.@X@X) S 7 3 7 9 9 7 6 6 7 0 0 9 9 0 9 7 A A A A S S S S A A A A A A S A A A A A S A 0 A A 9 9 9 9 7 3 3 6 7 7 7 3 < 2 2 7 ) $X@X_ =.#X#X=.y._ _ ",
"_ *.@X#X#X$X@X@Xy.y./ 3 < 2 3 7 7 7 6 6 7 7 9 7 9 0 6 6 9 0 0 A 0 A A A A A A 0 A A A A A A A A A 0 7 A A 9 3 9 7 7 7 6 9 9 6 < 2 2 2 7 K _ $X$Xy.=.#Xy._ =.y._ ",
"/ *.$Xu.@X#X#X#X#X@X/ 3 3 2 , 2 6 7 7 3 , < 9 7 9 7 7 7 7 9 9 9 5 , 6 9 0 A 0 0 9 9 A A A A 9 9 0 7 < < 7 9 7 7 7 7 7 7 7 6 < , < 7 y U | y.@X@X#X#X$X@X@X$Xy._ ",
") *.y.y.=.@Xy.y.@Xy._ Q J 3 , 2 6 6 7 6 < < 6 7 7 7 7 7 7 6 7 7 5 < 6 7 9 9 9 9 6 7 9 9 0 0 9 6 < < 2 3 3 7 7 7 7 7 6 < < 6 < , 3 J U ( r.#X#X#X$X#Xy.r.y.#X@X_ ",
"=.*.r.y.@Xy._ _ _ y.y.r./ J 9 3 6 < < < 6 3 6 6 7 7 7 7 7 9 7 7 7 7 9 7 7 7 7 7 < 3 7 9 7 6 9 6 < < 3 7 7 7 7 7 7 7 < , , 3 9 7 J ( ) | | @X$X$X#X@X*._ _ y.y.=.",
"_ =.#X$X#X@X*.*.y._ _ @X@X| / K 9 < < < < < < < < < 3 3 7 7 7 9 7 9 7 3 < 7 9 7 6 6 7 7 9 6 9 7 7 7 7 7 0 7 , < < 6 6 < , 9 Y ^ *.y.#X#X#X#X@X#X#X#X@X=.=.@X=._ ",
"_ r.@X#X#X$X#X@X@Xy.y.#X$X$X_ ) Q U U K 0 8 5 , < < < < 3 2 7 3 6 6 6 6 6 7 7 9 7 7 7 7 7 7 7 7 3 < 3 < 2 3 < 1 5 u u ` L Y _ #X$X#X$X$X#Xy.y.y.y.y.$X#X@X@Xr._ ",
"_ _ r.r.@X$X$X$X$X#X#X@X#X#X@X=.=.#X[.t.;.c c u y J t 8 8 6 1 1 < < < 7 7 7 7 6 7 6 6 6 7 7 7 6 < 1 < 2 2 8 t t g 2.b.M.e.*.$X$X$X$X$X$X#Xy.y.y.| | #X$X#Xy.r.r.",
") _ *.r.@Xy.@Xy.@X| | r.y.y.#X#X#X#X[.t.f.P.R.Y.A.A.M.v.4.u 2 1 < < 3 7 7 6 < < < < < < < , 5 5 2 , q u g ,.v.A.P.(.3X:Xs.r.@X#X$X$X$X$X#Xy.*.r.) ) y.$X$Xr._ ( ",
") _ r.@Xy._ r._ | | | | _ _ y.#X#X#X=.t.L.3XeXtXwX8X8X7X^.A.2.u u j 6 5 , + + , , + , + , 8 t u ;.,.2.B.A.P.>X7X8XwXqX1Xs.r.r.r.y.#X$X$X#X#X@Xu.y.y.#X$X$X| ) ( ",
") *.*.=.y._ _ _ _ _ | _ | _ _ | @X@X#X&XC.1XeXeXtXyXpXaXuXuX(.5.c.6.> . O o o o o . O # q d B v.!.>X7XtXiXiXiXyXyXtX0X;Xd.y.=.$.r.$X$X$X$X$X$X$X$X#X#X$X#X_ ) ) ",
") ) =.=.y.r._ _ _ | _ _ r.y.| #X#X@X#X$XC.,XqXeXiXaXpXaXaX7XA.x.V k > - ; - & & & # & - a v C A.8XtXtXuXdXdXaXiXiXyX0X;Xh.=.y.#X$X$X$X$X#X#X#X#Xy.*.r.#X$X@Xr.r.",
"_ _ =.u.$X@X| | | y.y.r.y.@X$X$X$X@X$X&XC.,XeXeXeXaXpXaXuXP.6.5.s ; - ; > > ; - - - ; ; a l C n.^.wXpXiXiXdXiXaXiXeXqX1Xd.y.#X$X$X$X$X#Xy.y.#X#X| ) ) y.#X#Xy.=.",
"%.*.*.$X$X$Xy.y.@X$X$X$X#X#X$X$X$X@X$X&XC.,XeXeXeXyXaXaXwXH.<.M s ; - - - - * ; - - - - ; a 2.z.6./.pXiXsXdXiXiXiXeXrX;Xs.t.#X#X#X$X$X@X*.#X$X$Xr.) r.#X$X=.*.=.",
"_ _ =.@X#X$X$X@Xr.r.#X$X@X@X$X@X[.#X#X%XC./.qXeXeXyXaXtX>Xc.<.<.k = ; ; ; ; ; * - ; - ; ; a b C <.^.iXaXiXiXiXiXiXeXeX1Xd.u.$X@X#X$X$X$X#X$X$X$X#Xy.#X$X$Xy.*._ ",
") _ y.@X#X$X$X#Xr.| y.$X@Xy.$Xy.=.$X[.t.N.=XqXqXeXpXaX8XB.2.<.5.k = ; ; ; ; * ; - - ; ; ; > s b 6.^.tXaXaXiXsXiXiXrXqX1X*Xu.$X@X#X$X$X$X$X$X$X#X#X$X$X$X#X@Xr.*.",
"_ r.#X#X$X$X#X#X$Xy.y.$X@X@X@X$X#X#X=.q.N./.eXeXeXpXaX>X2.6.b.9.x ; ; & ; ; - & ; ; ; ; ; > w b c.P.7XyXiXiXiXiXiXeXqX1Xd.u.$Xy.*.y.#X$X#X$X#X#Xt.y.@Xy.@X@Xy.r.",
"_ y.#X#X$X$X#X#X$X$X#X@X#X#X#X$X#Xt.*.0.N.W.9XqXeXiXpX^.C 1.5.<.e ; - ; - - - ; ; & ; ; > > w b c.P.^.tXiXsXiXiXyXeXwX1Xs.r.y.| r.r.y.y.r.#X#X#X#X@X#X#X$X$X@Xr.",
"*.y.#Xr.y.$X#X#X$X$X#Xy.y.@X$X$X$X=._ t.N.W.6XqXeXiXpX^.V V V k : ; ; ; ; ; ; - - - - - ; > > b c.B.^.yXaXsXsXpXeXeXrX;Xe.*.=.=.y.y.y.y.y.y.@X$X$X#X$X$X$X$X#X_ ",
"r.r.y.| r.y.y.@X#Xr.| | | r.#X$X$X#X[.#XN.R.4X0XpXdXpX^.V V M z : ; ; ; ; ; ; ; - - - - ; > a l 6.n.(.pXsXpXpXyXiXeX6X=Xs.%.$X#X#X$X#X$X$X$X$X$X$X$X$X@X_ #X#X_ ",
"*.y.y.r.r.r.y.y.r.r.r.y.| | @X$X$X$X#Xu.N.R.5XqXrXpXaX(.C <.C b : ; = - - & ; ; - - ; - ; > a b 6.B.>XaXsXpXpXpXpXeX0X=Xs.=.#X$X$X$X$X#X@X#X#X$X@X| @X_ _ | _ [.",
") y.$X@Xy.y.y.r.r.r.@X@Xr.| @X#X$X#X#X%XN.W.5XqXeXrXaX>X1.V N x w % ; ; - ; ; ; - ; - - ; > s b 2.B.(.aXsXaXaXaXpXeX9X;Xs.t.u.#X$X$X$X#Xr.y.#X#X[._ @X#X#X| _ _ ",
"r.y.#X$X$X$X#X@X@Xr._ *.} r.$X#X#X@X#X%XN.T.4X0XeXiXpX/.1.n V M > & - - - ; - ; ; ; ; - ; ; s b 1.n.^.aXsXaXuXpXrXwX0X;Xh.#X$Xu.@X#X#X$X$X$X$X$X$X$X$X$X#X@X_ [.",
"r.y.#X#X$X#X#X$X$X#X@Xy.y.@X$X$X#Xy.@X%XN.T.2X0XeXrXpX^.<.n N 5.k ; ; ; ; - ; ; ; ; ; - ; > s z V n.^.uXaXaXaXeXeXqX0X-Xd.y.=.#X#X#X@X@X#X#X#X#X#X#X#X$X$X#X@X_ ",
"*.=.$X#X@X@X#X$X$X$X$X$X$X$X$X$X#X_ r.p.N.T.2X9X0XeXpX^.N b 5.9.x % > ; ; & ; ; - ; - - ; w s z B n.>XyXuXaXsXrXqXqX5X=Xs.q.=.$X$Xy.@Xr.| | @X@Xy.| _ #X$X#X[._ ",
"*.=.y.#X$X$X@Xy.@X#X$X$X$X$X#X@Xy.y.=.q.4.J.2X9X0XeXrX/.M k N S.x & - ; ; ; ; ; ; ; - - ; > s z n n.(.yXsXaXrXwXqX5X<XT.e.r.#X$X$X| | y.y.y.| | _ _ @X#X#X#X| _ ",
"*.=.#X#X#X#Xy.y.y.@X@Xy.#X$X#X@Xy.@X@Xt.8.H.;X4X9XqXeX^.M d <.G.m & & - - - * - ; * ; * ; a s l B n.^.iXaXiXqXeXqX4XW.H.p.=.#X$X#X$.| r.r.r.| | _ | #X@X@X@X_ _ ",
"_ y.$X#Xy._ r.y.@X#X| | @X$X@X#X#X$X#Xi.N.I.E.;X6X0XeXR.n d <.G.m & ; - - ; ; ; * ; ; ; ; w s d B c.^.tXiXiXeXeXqX;XT.8.s.#X$X$X#Xt.| | | _ | | _ _ #X#X@Xy.[._ ",
"*.y.#X@Xr._ ) r.$X$X$X#X#X#Xy.#X$X$X$X%Xg.H.W.;X4X0XqX^.<.k <.G.m % - - - ; ; - ; ; * * ; > s k b v.~.wXiXeX0X5X;XT.W.L.p.u.$X$X$X#Xr._ _ _ y.y.| @X@X@X#X$Xy._ ",
"*.y.#X#X@Xr.r.@X$X$X$X$X$X#X@X$X$X$X$X#X4.B.W.1X<X,X6XW.<.k N D.M & ; ; ; ; * * * * ; * ; = s k b x.Y.6X0X0X5X<XT.T.T.L.p.=.=.$X$X$X@Xr.=.y.@X#X#X#X#X@X#X#X@X_ ",
"_ [.$X$X$X$X#X#X#X#X| _ #X$X$X$X$X@X#Xy.>.v.W.3X/.I.<XR.6.l N D.m % = ; - ; ; ; - ; ; ; ; > a s x 7.I.;X<X<X4XT.H.T.I.f.i._ *.@X$X$X$X$X$X$X$X$X$X$X$X@X_ #X_ _ ",
") _ #X$X#Xy.#X$X#X#X#X_ #X$X$X#X@X@Xy.r.t.h.K.E.;X;X<XI.6.v M b.x & > a > > > = > ; ; ; > > s k x 6.K.W.T.Y.1XE.K.K.b.4.u.#X#X=.@X$X$X$X$X#X#X$X$X#X[.@X#X@X_ / ",
"_ _ #X#X#X_ @X#X#X#X#X_ | $X$X#Xy.@Xy.y.@Xe.7.H.R.).W.B.<.b N 9.k & > a > > = w > = = > > > a s v 6.H.W.I.J.W.T.H.b.4.:.#X$X#X=.@X$X$X$X#X@X#X#X$X#X@X#X$X@X_ ) ",
"_ @X$X$X#X@X=.#X$X#X_ _ y.| _ _ y.#X$X$X@X( ;.8.H.K.I.c.v m C Z e * = = w ; = = > : : : > > > s c 5.H.W.W.T.K.B.b.v.>.$.y.y.*.$X#X@X$X$X$X@Xy.#X#X#X$X$X$X#X@X[.",
"_ [.#X#X@Xy.@X@X@X@X=._ #X#X@X[.#X#X@Xy.@X=.t.:.4.9.H.7.k v C C k > s s s s s s > e k s s s a d z <.7.H.H.H.H.7.;.>.( _ y.#X#X#X@Xy.#X$X#X@Xy.#X$X$X#X@X@X$X#X_ ",
"_ _ [.@X@X#X#X#X@X#X#Xy.#X$X#X#X#X#Xy.=.@X$X#X/ :.a.8.2.k k x C C 5.z.z.z.z.z.z.Z Z Z C C M d s z n <.7.7.8.g.>.' ) _ r.y.#X$Xy.| y.@X$X$X#X#X#X$X#X@X_ _ $X@X_ ",
"_ _ _ y.#X$X$X$X$X$X$X$X@X_ $X#X@X$X#X#X#X@Xy.| *.t.Q I d k k C P._./._._._.Q.Q.Q.Q.U.F.n.z.b e z v ;.;.;.W q.r.r.#X#X#X#X#Xy.r.| #X@X#X$X$X#X$X#X@X@X@X#X$X_ _ ",
"_ _ _ | @X#X#X#X$X$X#X#X| @X$X$X$X#X#X#X#X#Xy.r.=.=.) Q '  .W >.g.V.V.h.N.V.V.f.V.g.g.a.4.w.:.W 0.w.0.0.{ ) y.#X#X$X#X#X#X#Xy.=.@X#Xy.r.y.y.@X$X#X#X[.@X$X$X_ / ",
"_ _ _ _ _ @X| #X$X$X#X_ [.@X#X$X#X#X@X@X$X$X@Xy.#X#X@Xr.y.=.=.=._ _ _ ) ) ) ( / ) ( Q / _ _ =.@X#X$X#X=.@X#X$X$X$X#Xu.#X$X#X@X=.@X#X@Xy.r.r.y.#X$X#X#X#X#X$X_ ) ",
"=.=._ _ | _ [.#X#X#X#X[.| @X#X#Xy.y.=.y.$X$X$X@X#X$X$X$X@X#X#Xy._ _ #X$X[.[.#X#X#X=._ _ _ _ =.#X#X#X#X=.y.@X#Xy.r.r.*.y.$X$X#X@X#X#X$X#X@X$X$Xy._ y.$X$X$X#X@X_ ",
"_ _ _ _ | | @X_ _ _ _ =.| @X_ =.r.r.*.r.y.y.y.@Xy.y.@X@Xy.@Xy.y._ ) @Xy._ _ =.@X=.=._ _ r.*.*.=.=.*.*.=.=.=.=.r.r.r.r.y.y.y.y.@X@Xy.@X@Xr.@Xy.y._ ) =.=._ _ _ _ ",
"/ ( _ _ y._ _ _ _ _ _ _ _ _ _ _ r.=.r.=.) ) _ r.r._ _ _ _ _ | r.) ( _ ) / ( _ *._ _ _ _ r.*._ _ ) ) ) _ _ _ ) *.y.*.y.*.) ) _ y.=._ _ _ *._ r.r.) ) _ ) ( ( ( / "
};
