/* XPM */
static char *__resized[] = {
/* columns rows colors chars-per-pixel */
"80 80 225 2 ",
"   c #0E0B0A",
".  c #120E0D",
"X  c #0E110A",
"o  c #141207",
"O  c #14130C",
"+  c #171B0A",
"@  c #151412",
"#  c #1A1413",
"$  c #1B1B15",
"%  c #24170F",
"&  c #231612",
"*  c #271917",
"=  c #2B1C17",
"-  c #271A18",
";  c #291B19",
":  c #301E17",
">  c #301F1C",
",  c #162307",
"<  c #1A2606",
"1  c #1D2B07",
"2  c #1B250A",
"3  c #1E2C09",
"4  c #1F3007",
"5  c #20290A",
"6  c #202E09",
"7  c #223409",
"8  c #29340F",
"9  c #263B0A",
"0  c #293E0B",
"q  c #252815",
"w  c #23211D",
"e  c #33211D",
"r  c #3D271E",
"t  c #3C2D1B",
"y  c #2C3412",
"u  c #283814",
"i  c #373918",
"p  c #282728",
"a  c #362420",
"s  c #3A2622",
"d  c #3D2B23",
"f  c #2D3724",
"g  c #3B3921",
"h  c #323434",
"j  c #41391C",
"k  c #422D24",
"l  c #432F28",
"z  c #443226",
"x  c #4B3225",
"c  c #443B26",
"v  c #463328",
"b  c #49342A",
"n  c #4D3A2C",
"m  c #573B2B",
"M  c #523B2E",
"N  c #4B3B30",
"B  c #553C31",
"V  c #593B34",
"C  c #603F3C",
"Z  c #2B430B",
"A  c #2E4A0C",
"S  c #314E0D",
"D  c #34540E",
"F  c #365A0F",
"G  c #395D0F",
"H  c #2B4611",
"J  c #2C4B13",
"K  c #334D12",
"L  c #384618",
"P  c #2F5217",
"I  c #345512",
"U  c #395412",
"Y  c #375911",
"T  c #395C10",
"R  c #345C19",
"E  c #39591D",
"W  c #3C620F",
"Q  c #376215",
"!  c #3C6311",
"~  c #36631A",
"^  c #39651B",
"/  c #3D6D1D",
"(  c #3F711E",
")  c #2F4424",
"_  c #374A27",
"`  c #3B5625",
"'  c #3E4737",
"]  c #3B6422",
"[  c #3D6A21",
"{  c #3F7220",
"}  c #41471A",
"|  c #40630B",
" . c #426B0F",
".. c #46710E",
"X. c #4A750E",
"o. c #4D7C0F",
"O. c #507E0F",
"+. c #426A11",
"@. c #416818",
"#. c #477516",
"$. c #4B7913",
"%. c #41751F",
"&. c #43791F",
"*. c #527E11",
"=. c #494828",
"-. c #504424",
";. c #465925",
":. c #515829",
">. c #444E38",
",. c #5B4234",
"<. c #594535",
"1. c #5D493A",
"2. c #445639",
"3. c #5B5636",
"4. c #644539",
"5. c #644B3B",
"6. c #66543C",
"7. c #685A3C",
"8. c #79523C",
"9. c #466625",
"0. c #436E22",
"q. c #536A2C",
"w. c #427620",
"e. c #4B7426",
"r. c #457C21",
"t. c #4A7D25",
"y. c #4D792A",
"u. c #54772B",
"i. c #5B6333",
"p. c #5A7231",
"a. c #5E7932",
"s. c #6C623E",
"d. c #67693C",
"f. c #627B36",
"g. c #3C3E40",
"h. c #4C4E4B",
"j. c #4C5844",
"k. c #505B48",
"l. c #545654",
"z. c #664441",
"x. c #694D40",
"c. c #6D5442",
"v. c #695944",
"b. c #765944",
"n. c #735B49",
"m. c #56614D",
"M. c #756547",
"N. c #756A42",
"B. c #7B614D",
"V. c #6E7142",
"C. c #7B7446",
"Z. c #7A6651",
"A. c #825A3F",
"S. c #8A5E43",
"D. c #865E53",
"F. c #8F6145",
"G. c #83664C",
"H. c #86694E",
"J. c #886A4F",
"K. c #84754B",
"L. c #846B55",
"P. c #8C6D52",
"I. c #91665C",
"U. c #8C7355",
"Y. c #947455",
"T. c #95765C",
"R. c #95795C",
"E. c #9A7B5B",
"W. c #9D6E64",
"Q. c #8F7964",
"!. c #947761",
"~. c #967A64",
"^. c #9A7C65",
"/. c #9A7E69",
"(. c #A07865",
"). c #A5756B",
"_. c #52820F",
"`. c #578A0F",
"'. c #5D920F",
"]. c #4C841F",
"[. c #568812",
"{. c #5D9212",
"}. c #629A0F",
"|. c #619611",
" X c #669D12",
".X c #6BA411",
"XX c #6EA912",
"oX c #71AB11",
"OX c #75B213",
"+X c #79BA13",
"@X c #478022",
"#X c #498423",
"$X c #4C8A24",
"%X c #55832A",
"&X c #58872C",
"*X c #64882E",
"=X c #9C855A",
"-X c #9E875A",
";X c #A4875E",
":X c #9C8061",
">X c #9D816B",
",X c #A38363",
"<X c #A88662",
"1X c #A58D62",
"2X c #AC8A63",
"3X c #AA896A",
"4X c #B08D67",
"5X c #B18F6B",
"6X c #B3916D",
"7X c #A78B73",
"8X c #AE9077",
"9X c #B69472",
"0X c #B99674",
"qX c #BB9877",
"wX c #B6967C",
"eX c #BC9B7C",
"rX c #C09E7E",
"tX c #B69A80",
"yX c #BE9E81",
"uX c #BEA286",
"iX c #C09F82",
"pX c #C2A285",
"aX c #C5A689",
"sX c #C7A88B",
"dX c #C8A98C",
/* pixels */
"P ~ %./ ( ( ( ( ( ( / ( &.&.&.( ( w.&.%.( / ( r.w.&.&.&.{ [ / ( ( ( %.( ( r.%./ ^ / { / ( ( ( ( %.( / / R R { &.( ( w.%.( / ( &.w.%.r.w.( / / ( ( ( w.( ( r./ R ",
"^ / %.%.%.w.( ( ( ( ( r.w.&.&.( { { { ( / ( &.w.( ( ( ( { w.r.r.@Xw.%.( ( &.@Xr.w.w.{ { w.w.( ( ( ( ( ( ^ ^ { { ( r.( ( ( ( ( &.w./ ( / ( w.r.r.r.w.%.( ( r.( / ",
"&.%.%.&.@Xr.( ( ( ( &.@Xr.r.r.{ w.r.{ ( ( r.r.{ { { / { w.r.$X$X#X#X%.( ( r.#X$X$X@Xw.r.@Xr.{ ( ( ( &.].{ &.r.w.{ r.( ( ( w.r.w.w.{ / %.w.@X$X$X#X@X%.( %.r.&.&.",
"%.r.#X$X#X@X&.%.&.&.&.#X#X$X$X$X#X@X{ { r.#X$X#X@X@X#X@X#X@X#X#X#X#X@X&.&.@X#X@X@X#X#X$X#X@Xw.%.@X&.( r.#X#X$X$X$X@X{ ( r.#X$X$X@X@X@X#X#Xt.@X#X$X#X@X&.%.#X&.( ",
"%.%.t.@X#X$X#X@X@Xr.r.#X$X$X#X#X#X#X@X@X$X$X$X$X$X#X$X$X$Xr.r.@Xr.r.#X@Xr.@X@X#X@X@X@X@X#X$X@X@X#X&.r.@X$X$X#X#X#X#X#X@X$X$X$X$X#X$X$X$X$Xr.r.r.r.r.#X#X@X@Xw.%.",
"%.%.%.%.@X$X$X$X#X#X@X#X$X$X@Xr.@X$X$X$X$X$X$X$X$X$X$X#X@Xr.w.r.{ w.#X$X#Xr.@X$X#Xr.{ { @X$X$X$X#X#X@X#X$X$X@Xr.#X$X$X$X$X$X$X$X$X$X$X#X@Xr.r.r.( w.#X$X#X&.w.w.",
"/ %.%.r.r.r.t.r.r.w.{ w.w.r.#X#X#X#X@Xw.r.r.@X#X#X$X$X$X#Xr.w.w./ / @X$X$Xr.w.w.r.r.{ r.@Xr.@X@Xr.w.w.r.{ r.#X#X#X#X@Xw.r.r.@X#X$X$X$X$X#Xr.&.w./ ( t.#X$Xr./ ^ ",
"/ / %.&.r.%.%.( { ( { { { { r.#X$X#Xr.r.w.w.w.w.@X#X$X$X$X@X@X@Xr.r.#X$X$Xw.( w.r.r.{ @Xr.{ { { ( ( { { ( ( r.#X#X@Xr.r.w.w.r.{ r.#X$X$X$X@X@X#Xw.r.#X$X$Xw./ ~ ",
"/ ( &.@Xr.( { { { ( ( { ( ( ( w.#Xr.#X$X$X@X%.( w.#X$X$X$X$X$X$X#X#X#X$X#X{ w.r.r.r.w.@X{ { { { ( { { ( / ^ / ( #X@X#X$X#X@X{ { w.$X$X$X$X$X$X$X$X#X$X$X#X( / / ",
"/ ( %.r.r.{ ( { ( { ( ( w.r.w.@X#X#X#X$X$X#Xr.#X$X$X$X$X#X#X#X#Xr.w.w.#X#X@X#X#Xr.w.w.r.t.{ { { ( ( ( R P R ( @X#X#X$X$X$X$X@X#X$X$X$X$X#X#X#X#Xw.{ w.#X$X#Xw.%.",
"( ( w.@X#X@Xw.{ w.w.r.r.@X@X#X$X$X#X$X$X$X#X#X$X$X$X$X#Xt.&.#X#X{ / [ @X$X#X$X$X#Xw.w.@X$X@X{ { ( ] ` R P ] @X$X$X#X#X$X#X#X#X#X$X$X$X#Xr.r.@X#X{ [ / r.$X@Xr.&.",
"&.( w.$X$X$Xr.w.@X$X$X$X#X#X$X$X$X#X#X$X@X@X#X@X#X$X$X].%.#X$X$Xw./ ( #X$Xw.r.#X$X@Xw.#X$X$X@X{ r.) ) [ { @X#X$X#X#X$X$X@X#X#X@X#X$X$X#Xw.t.$X$X{ ( ( #X$Xw.%.&.",
"( ( %.r.$X$X$X@Xw.w.#X$X@Xr.$X@Xr.#X$X#X#X$X$X#X#X$X$X$X#X$X$X$X#Xr.#X$X$Xr.r.@X@Xw.w.@X#X$X$Xy.` ' ] @Xr.@X$X@Xr.#X$X$X#X$X$X#X#X$X$X$X#X#X$X$X#Xr.#X$X#Xr.%.( ",
"/ ( &.@X#X$X$X#X{ { r.$X@Xr.#X@Xr.$X#Xr.$X$X$X#X#X#X$X$X$X$X$X$X#X#X$X$X#X#X#X@Xr.r.r.r.#X$X#X[ >.] { $X@Xr.#X@Xr.$X@Xr.#X$X$X#X@X$X$X$X$X$X$X$X$X$X$X$X#X@Xw.%.",
"%.&.@X$X$X$X#X#X$X@Xr.$X@X@X#X$X#X@Xw./ r.$X$Xw.w.r.#X$X#X$X$X@Xr.r.r.@Xr.#X#X$X#X#X#X#X$X#X] _ _ [ @X$X@X@X#X$X$X#X{ { r.#X$Xr.w.r.#X#X$X$X$X@Xr.r.@Xr.#X#X@Xw.",
"%.&.$X@X#X$X$X#X$X$X#X#X@X#X#X$X$Xr.{ { w.w.r.%.w.w.r.r.r.r.#X#X#X#X#X[ ^ $.#./ / w.#X#X$X#X` _ ] { $X@X#X#X#X$X$Xw.{ { { r.r.{ w.w.r.r.r.r.@X$X#X@X#X#X#X#X@X&.",
"( &.#Xr.r.$X#X#X#X$X#Xr.r.#X$X$X$Xw.&.%.w.%.w.w.w.r.r.r.r.r.#X$X#X@X*.#..._.X.+.#.&.#X{ w.#X2.2.{ $X$X{ #X#X#X$X$Xr.( { { { r.{ w.@Xr.r.w.r.#X$X$X#X$X$X$X$X@X%.",
"%.r.w.( %.r.r.@X#Xw.{ { { w.#X$X$X$X#X&.@X#X$X$X$X$X$X#X$X$X$X#X@Xe.*. XOX.XoXoX+X XO.I ^ r.m.2.{ { { { ( { #X$X$X#X@X].#X#X$X$X#X$X$X#X$X$X$X$X$X$X$X@Xw.#X@X&.",
"%.r.@Xw.w.w.r.r.r.w.w.r.{ [ @X#X$X$X#X@Xr.r.#X$X$X$X$X$X@X#Xr.^ ]. X XoXOX.X X.X+XOX X{.$.^ h.k.{ { { @X( ( #X#X$X$X#X#Xr.@X#X$X$X$X$X#X@X#X#X#X@Xr.@Xr.w.w.w.&.",
"/ r.$X@Xr.r.r.w.w.w.r.@Xw.{ @X$X$X#X#X$Xr.r.@X$X$X$X$X@X/ &.#.T |.+XOX.X|.[.O._. XoXXX+X|.U j.2.] { @X@X( ( @X$X$X#X#X#Xr.r.#X$X$X$X$X#Xw.@X#X#X&.( r.@Xr.( %.&.",
"&.r.@X$X$X$X@X@X@Xw.w.{ [ w.$X#X@Xr.#X$X$X$X$X@X@X#X#Xw.R $.{.XXXX.XXX X_.F F ..*._._._.`.*.L f ` ] ( ( ( { $X#X@X@X#X$X#X$X$X#X@X#X#X$X$X$X$X$X$X$X$X$X$Xr.&.&.",
"&.r.#X#X$X#X$X$X$X#Xr.r.r.#X$X$X#Xr.@X$X#X#X@X#X#X@X&.@.#.{.XXOX{.#.W ....F G ..X. .W D  .`.X.:.k.` ^ w.@X#X$X$X#Xr.@X#X#X#X@X#X#X#X@X@X#X#X#X#X#X#X@X$X$X@X&.&.",
"( &.$X#Xt.#X@X$X$X$X$X$X$X$X$X$X#Xw.w.r.r.%.w.#X].&./ #.'..XXX.XX.A 1 A W  . ..... .D 6 S _.}.*Xm.' ~ @X#X$X$X$X#X{ r.@Xr.( ( $X$X@X@X{ { { @X@X&.&.w.#X$X@Xt.&.",
"&.&.@X@X#X$X#Xr.r.$X$X$X$X$X#X#Xr.r.w.w.w.r.@X@X%.W [.'.O.o.'..X_.F D F G G G W  .| F S G o._.@.' h.2.S Q ( #X#Xr.r.r.{ ( r.#X$X#X{ w.r.r.@X{ { %.w.r.@X#X@X&.( ",
"%.r.@X#X#X#Xr.r.@X@Xr.w.#X$X#Xr.r.@Xr.r.r.#Xt.%.W | O.o.! W o..X_.W ! T Y W ! ! | ! ! T  .o. .F L j.h._ ^ ../ ( @X@Xr.&.r.#X$X$X#X( ( { @X{ ( { ( { @X@X@X@X( ( ",
"( w.$X$Xr.( { @X@X@Xw.{ @X$X#X#X#X$X#X@Xt.#X&.G W ..G S Z D ! `.o. .! T T  . .T T T T ! #.X.Y D R >.h.l.q. .D ~ @X$X#X#X$X$X$X$X$X{ { ( ( { ( ( ( ( #X#X@Xr.].( ",
"%.r.#X@X&./ ( &.$X$X$X#X#X#X@X#X$X$X$X@X~ +.$.T G T T A 9 A  ._. .G W |  .G Z 9 9 S !  . .T A 9 7 u ' l.>.U  .W R ].$X$X$X$X#X#X$X#X{ ( ( ( { @Xr.r.r.@X#X$X].( ",
"%.r.#X@X@Xr.( @X$X$X#X$X$X#X@X$X$X&.&.%.Y T +.T T T T S 0 Z D  .W D F  ...D A Z Z D W +.W D S 9 2 2 f h.h L $.! W &.&.&.#X#Xt.#X$X$X#X{ { @X#X#X#X#X#X@X@X#X#X( ",
"( &.#X$X$X$X$X#X$X#Xr.w.@X$X$X$X].~ T T T I Y Y F G T Y S 9 0 Y T T T T W T ! W G G | T I I S 9 2 , p ' h f T ..o. .! R &.&.( @X#X$X$X#X$X$X$X$X$X$X$X#X@X@X( ( ",
"/ &.@X$X#Xr.#X#X#X@Xr.w.#X$X$X$X%.J Z S T I Y !  . .G Y D D Y T Y T | ! T W U L U F !  .D 4 u w + + w h h f 4 D ! G ! ! %.].#Xr.@X$X$X$X$X$X$X$X$X#X@X@X#Xr.( / ",
"( &.@X$X#X&.@X#X#X@Xr.w.r.$X#Xw.R Z 0 S Y Y Y |  . .! T T Y T T T T | ! T G } t L S Y ! A + $ # . @ w h p w $ 0 D S D G Q / w.r.#X$X$X$X$X@X#X$X$X#X@X#X$X{ ( ( ",
"%.@X$X$X#Xr.&.@X$X@X{ w.w.w.{ R H S Z Z Y Y I D T T T T Y A A D T T T F G T } j t i L I Z X @ @   @ p g.p . $ u S 0 Z Z 0 H I r.#X@X$X$X$X&.{ #X#X#X$X$X$X#Xr.( ",
"( r.#X#X@Xr.@X@X@X#Xr.{ @Xr.R H Z Z Z Z D D S D D A 0 A D S A F Y D S D G F :.m j i D G 9 O $ #     $ - @ . w q 5 0 Z Z 9 9 0 J ~ ( #X$X$X@Xr.#X$X$X#Xr.r.$X@X].",
"( w.@X@X@X@X$X#Xr.#X#Xw.#Xw.H 9 7 0 0 Z D D A D S 0 9 A D D D D U L D D G F -.,.j K F G Z q w $ X   . . X @ w $ , H Z Z 7 7 8 4 0 R w.#X$X#X@X#X$X#X#X( ( $X@X( ",
"( %.w.r.@X$X$X$X$X$X$X$Xr.R 9 7 7 6 6 0 Z A Z Z Z A S D D F F S c -.| F K | i i D F D F U Z 2 , 3 + @ $ 2 2 , 1 9 Z Z Z 7 7 7 7 7 Z ^ r.$X#X#X$X#X@X@X@X$X$X( ( ",
"( ( w.w.r.$X@X$X$X$X$Xr.~ Z 7 7 7 6 7 7 Z Z Z Z Z Z S S A S S F j j L A Z A 0 0 D S 0 D D A 8 8 4 u 6 u 9 9 4 9 Z Z 0 9 7 7 7 7 7 7 Z R r.@X@X$X$X#X@X@X$X$X( ^ ",
"( ( ( ( r.r.r.@X$X$X#X( H 3 7 7 7 9 0 9 9 0 Z Z Z Z Z Z 0 0 A D i y 0 0 0 Z Z A D Z 9 A S Z Z Z J A Z Z Z Z Z Z Z 0 7 6 7 7 7 7 7 4 4 Z ~ ( @X#X#X$X#X#X$X#X( ^ ",
"%.%.( %.{ { r.#X#X#X&.~ Z 7 7 7 7 7 7 7 9 0 Z Z 0 0 0 0 Z Z Z A A 0 0 Z Z Z Z Z A Z Z Z Z Z Z Z Z H A Z Z Z Z Z 0 9 4 < 3 4 7 7 7 3 3 7 0 / $X@X&.&.#X$X$X#X@X@X",
"w.&.&.r.@Xr.@Xr.@X@X/ A 7 4 7 7 7 7 6 6 9 9 Z 0 9 0 7 7 Z Z Z Z A A A Z A Z Z 0 Z Z A Z Z Z Z Z A Z Z Z Z Z 4 9 9 4 4 3 6 7 7 7 4 3 1 2 4 / $X#X( &.#X#X].{ @X( ",
"( %.@X#X#X$X@X@Xr.r.~ 4 3 3 7 7 7 7 6 6 7 7 7 7 7 0 6 7 7 0 Z Z 0 0 A Z 0 Z Z 0 Z Z Z Z Z Z Z Z Z 9 4 Z Z 9 4 9 7 7 7 7 9 7 7 4 3 1 4 9 J ( #X$X&.&.#Xr.( { ( ( ",
"~ %.#X@X@X#X#X#X#X@X~ 9 4 3 2 3 7 7 7 6 < 1 7 7 7 9 7 7 7 7 0 0 6 < 6 9 Z Z Z 0 0 9 Z Z A Z 7 9 0 6 3 3 7 7 7 7 7 7 7 6 7 6 1 < 1 7 9 P ( @X@X@X#X#X#X@X@X$Xr./ ",
"/ %.r.&.@X@Xr.r.r.r.( R H 4 2 3 6 6 7 6 1 1 7 7 7 7 7 7 7 7 7 7 5 5 6 7 7 0 7 0 6 6 7 9 0 0 7 7 4 1 3 3 7 7 9 7 7 7 6 1 1 1 1 < 4 H P ] w.@X#X#X$X#Xr.w.r.#X@X%.",
"&.%.w.t.@Xr.( ( w.w.r.w.~ H 9 4 6 1 1 1 6 6 6 7 7 7 7 7 7 7 7 7 7 7 7 7 7 7 7 7 1 6 7 9 7 7 7 7 < 1 7 7 7 7 7 7 7 6 6 1 < 4 0 7 H ~ / %.{ @X$X$X$X@X%.( ( r.r.&.",
"%.&.@X$X#X@X%.%.w.w.w.@Xr.{ ~ J 9 1 1 1 4 1 < 1 1 4 6 7 7 7 7 7 7 9 7 6 6 7 7 7 7 7 7 7 7 7 7 7 7 7 7 7 9 7 1 1 1 4 6 1 < 7 D / &.r.t.@X#X#X@X#X#X#X#Xw.%.#X&.( ",
"( w.@Xr.#X$X@X@X@Xr.r.@X$X$X{ / R P I K 8 8 5 < 1 < 1 1 4 4 4 4 7 6 6 6 6 7 7 7 7 7 7 7 7 7 7 7 6 6 4 4 7 3 < 2 5 y j _ H I { #X$X$X$X$X$Xr.r.r.r.r.$X@Xr.@Xw.%.",
"%.%.w.w.@X$X$X$X#X#X#X#X$X$Xr.w.r.#X#Xw.=.c c i u H 8 8 8 7 2 1 1 1 5 6 7 6 7 7 7 6 6 6 7 6 7 6 < < 1 1 6 q u y c 1.n.M.q.r.$X$X$X$X$X$X#Xr.r.r.( { #X$X#Xr.w.w.",
"/ / w.r.r.r.@Xr.r.w.w.w.w.w.@X$X#X#X@Xe.s.L.R.U.L.Z.M.v.3.g 2 2 < 1 6 7 7 6 1 1 1 1 1 5 1 5 6 5 1 , q i f =.v.Z.L.~.3X^.p.w.@X#X$X$X$X$X#Xw.&.w./ / @X$X$Xr.( ^ ",
"/ ( w.@Xr.%.{ w.{ { { { { { r.#X$X@Xr.t.K.,XeXeX8X8X8X7XQ.Z.<.g j L 5 5 < < + , , + , < 5 5 y i =.<.3.n.Z.U.>X7X8XtXqX1Xp.w.w.w.r.#X$X$X$X@Xr.t.r.r.#X$X#X{ / ^ ",
"/ %.%.&.r.( ( ( ( ( { { ( ( ( w.#X].@X&XC.,XeXeXeXyXpXaXaXuX/.z.c.5.; # o O o o o o O # w d N v.Q.>X7XtXiXiXyXyXyXtX0X;Xa.&.%./ r.#X$X$X$X$X$X$X$X@X$X$X#X( / / ",
"/ / &.&.r.r.( ( / { { ( w.w.w.@X#X@X#X$XK.,XeXeXyXpXpXsXsX>XZ.x.V k ; - * - & & & # & - s v V Z.8XtXtXuXdXdXaXiXiXyX0X;Xf.t.r.#X$X$X$X$X#X@X#X#Xt.%.w.#X$X@Xw.%.",
"( %.&.t.#X@Xw.( w.r.r.r.r.@X$X$X$X#X#X&XC.,XeXeXeXaXuXaXaXL.5.5.s * - ; > > > - - - - ; a l V n.~.wXpXyXaXaXiXiXiXeXqX1Xf.t.#X$X$X$X$X#Xr.@X@X#X{ / ( r.$X#Xr.&.",
"&.%.%.$X$X$Xr.r.@X#X$X$X#X@X$X$X$X#X#X%XC.,XeXeXeXeXaXaXwXG.,.M d ; - - - - - ; - - - - - s 1.z.5.>XpXyXaXaXaXiXiXeXrX;Xp.r.#X@X#X$X$X#X%.@X$X$Xw./ ( #X$X%.%.%.",
"/ ( &.@X$X$X$X@Xw.w.#X$X@X@X$X@Xt.#X$X%XC.:XqXqXeXuXaXyX/.x.m B k = * * * - * * - - - ; - > b V ,.^.iXaXiXiXaXiXiXeXeX1Xa.t.#X#X#X$X$X$X#X#X$X$X@X@X#X$X$Xr.%.%.",
"/ ( &.r.@X$X$X#Xw.{ r.$X@Xr.#X@X&.$X].t.N.:XqXqXeXpXaX8XZ.1.4.4.k = ; - ; * ; ; - - * ; ; > s b 5.!.tXaXiXiXaXiXiXrXqX1Xf.#X$X@X#X#X$X$X$X$X$X$X#X$X$X$X#X#Xw.%.",
"%.&.#X$X$X$X$X#X$Xr.r.$X#Xr.#X$X$X@X&.9.N.E.eXeXeXpXaX>X1.1.b.A.x * * ; ; ; * ; - * ; * > > > b c.L.7XyXiXiXiXiXiXeX0X1Xf.#X$Xr.%.r.#X#X$X$X$X@Xr.r.@Xr.t.@Xr.w.",
"/ &.$X@X#X$X#X#X$X$X#X@X#X#X#X$X$X&.( 0.N.^.9XeXeXyXpX~.<.<.4.m k * ; ; - * ; - - ; * ; > > > b c.Z.~.yXsXaXiXiXyXeX0X;Xp.w.r.%.%.w.@Xr.&.t.#X#X@X@X#X$X#X$X@X&.",
"w.r.#Xw.r.$X#X#X$X$X@Xr.r.#X#X$X$Xr.( e.N.E.6X0XeXiXpX~.B M M k : * ; ; * * ; * ; ; ; ; ; > e b c.B.!.yXaXsXsXpXyXeXrX;Xq.%.&.&.w.r.r.r.w.r.@X$X$X$X$X$X#X$X@X%.",
"w.w.r.{ w.@Xr.r.#Xw.{ { { w.#X$X$X#X#Xt.N.R.6X0XpXdXpX!.B B M x : ; > ; ; ; * ; ; - ; * ; > a b 5.n./.aXsXpXpXyXiXeX6X=Xp.#.$X#X$X$X$X$X$X$X$X$X$X$X$Xr.w.#X@X&.",
"%.w.r.w.w.w.r.r.w.w.w.r.{ { @X$X$X$X#Xt.N.Y.6X0XyXaXdX/.,.B ,.x : ; ; ; ; - ; * - - - - ; > a b 5.B.>XaXsXpXpXpXiXeX0X=Xp.e.#X$X$X$X$X#Xr.@X#X$Xr.w.@Xr.%.w.&.&.",
"( r.$X@Xr.r.r.w.w.r.r.#Xw.{ #X#X#X#X#X%XN.E.5X0XeXeXdX>X,.B B x e % ; ; - * ; ; - - - - ; > a l 1.B.>XpXsXaXaXaXpXeX9X;Xp.w.t.$X$X$X$X#Xr.r.#X#Xr.%.r.@Xr.%.%.%.",
"w.r.#X$X$X#X#X#X@Xw.%.%.[ w.$X#X@X@X#X%XN.Y.4X0XeXpXpX^.,.N V m > & - ; ; - ; * ; - ; - - > s z <.n.~.aXdXaXpXyXeXeX0X;Xf.#X$X@Xt.#X#X$X$X$X$X$X$X$X$X$X$Xr.r.&.",
"%.r.#X#X$X#X#X$X$X#Xr.r.r.@X$X$X#Xr.].%XN.Y.2X0XeXeXpX^.,.n B 4.k * ; ; * ; * ; - ; - - ; > s z B n./.uXaXaXaXuXeXeX9X-Xa.&.@X@X#X#X@X@X#X#X#X#X#X#X#X$X$X@Xr.&.",
"%.&.$X#X@X#X#X$X$X$X$X$X$X$X$X$X#X%.w.y.N.Y.2X9X0XeXiX^.,.b V 8.x % > ; * ; ; ; - - - - ; e s z n n./.yXpXpXaXuXeX9X5X=Xp.0.&.$X$Xr.r.w.w.w.r.r.r.w.r.@X$X@X&.&.",
"%.&.@X@X$X$X@Xr.@X#X$X$X$X$X#X@Xr.r.r.0.3.J.2X9X0XeXrX!.B v m S.x % ; ; - - ; * ; - - - ; e s l N n./.yXsXaXeXeX0X5X<XY.q.w.@X$X#Xw.w.r.r.w.w.w.%.%.r.@X#X@Xr.( ",
"%.&.@X#X#X@Xr.r.r.@Xr.w.#X$X#Xr.r.#Xr.e.3.J.;X4X0XqXeXR.B d V F.x ; ; ; ; * * ; - ; * - ; a s l B c.^.yXaXpXeXeXqX4XE.G.q.$.#X$X#Xw.{ w.w.w.w.( ( { @X@Xr.@X&.( ",
"( r.$X$Xr.%.w.r.#X@Xw.w.@X$X#X#X$X$X#Xy.N.P.E.;X5X0XeXT.N l ,.F.x % ; ; * ; ; * ; * ; ; ; e s l n c.!.eXiXyXeXeX0X2XP.s.u.$X$X$X@Xw.w.{ { { ( { ( %.#X#X@X@X&.( ",
"%.r.#X@Xw.( ( w.$X$X$X#X#X#X@X#X$X$X$X%Xs.G.E.<X4X9XeX!.M k ,.F.x * ; ; ; ; ; ; ; ; * - ; > a d n v.T.wXeXeX9X5X;XY.Y.K.a.t.#X#X$X#Xw./ ( ( w.r.r.r.r.@X#X#X@X&.",
"%.r.#X@Xr.w.w.@X$X$X#X$X$X#X@X#X$X#X#X%X3.M.^.<X<X,X9XE.4.x ,.A.x & ; ; * * ; * * * ; * ; ; s k v x.U.8X0X0X6X,XY.Y.Y.Y.u.r.r.#X$X$X@Xr.w.r.@X#X#X#X#X@X@X$Xr.&.",
"( r.#X$X$X$X#X$X$X@Xr.w.#X$X$X$X$X#X@X@X;.M.E.1XE.Y.;XT.4.z M S.x % > ; - - ; ; - ; ; ; ; > s k x 5.P.;X2X2X2XY.Z.Y.P.s.t.( &.@X$X$X$X$X$X$X#X$X$X$X$X#Xr.@X&.( ",
"( &.#X$X#Xr.#X#X#X@Xr.{ #X$X$X#X#X@X@X( %.d.J.E.,X,X,XP.5.z n S.x % e > > > > ; > ; ; ; ; > > k b 5.J.E.U.Y.1XR.J.H.s.3.t.#X#Xr.@X$X$X$X$X$X$X$X$X#X@X@X#X&.( / ",
"( ( #X$X@X&.@X#X$X@Xr.w.@X#X#X@Xr.@Xr.@X].q.6.H.E.(.E.G.,.b V 8.k % > e > > > ; > = = > > > a s b 5.G.E.P.J.E.Y.H.b.1.;.#X$X@Xr.@X$X$X$X$X#X@X#X#X#Xr.$X#Xr.( / ",
"( ].#X$X#X@X&.#X$X@X( ( &.&.( &.r.#X#X$X@X^ _ 7.G.H.P.6.v n V C r & > : : : : > > : > : > > > k c 5.G.E.E.Y.J.B.b.7.:.%.r.w.( #X#X@X#X$X$Xr.r.#X#X$X$X$X$X#X@X&.",
"( &.#X#X@Xr.@X@X#X#X&.( @X#X@X@X@X#X@Xr.@Xr.w.;.3.s.G.6.k x M V k > s s a s a s a s s s s s s d z ,.6.H.H.G.G.6.=.;.^ %.&.#X#X@X@Xw.$X$X$X@Xr.#X$X#X#X@Xr.$X#X&.",
"( ( @X#X@X@X#X#Xr.#X#Xr.#X$X#X#X#X#Xr.%.@X$X#X~ ;.7.7.1.k k x V V 4.z.z.z.z.z.z.C V 4.V V N d s z b ,.6.6.7.s.:.` / %.w.t.$X$X].w.r.@X$X$X@X@X$X$X#X@X%.{ #X@X( ",
"( ( &.@X#X$X$X$X$X$X$X$Xr.{ $X#X#X$X$Xt.@X@Xr.{ ( %.R L d l l V L.).)./.).).).W.W.W.I.D.b.z.x s z b -.=.=.E 0.w.w.#X@Xt.@X@Xr.%.w.@Xr.#X$X$X#X$X#X@Xr.@X#X$Xr./ ",
"( ( &.( r.$X#X#X$X$X#X#Xr.r.$X$X$X$X$X@X$X#Xr.w.&.&./ E E L ;.;.d.V.V.f.N.V.d.d.d.V.d.i.i.3.;.E 9.9.9.9.] / r.#X$X$X$X@X$X@Xr.&.r.#Xr.r.@Xr.r.$X$X#X@X#X$X$X( ~ ",
"( ( ( ( &.r.r.@X$X$X#X( @X#X$X$X#X#X@X@X$X$X#Xr.@X#X@Xr.r.%.&.&.( ( ( / / / ^ ~ / / ~ ~ / ( &.@X#X$X#X&.r.#X$X$X#X#Xt.@X$X$X@Xr.@X#Xr.r.w.r.@X#X#X#X@X#X#X$X( / ",
"&.%.( ( w.( &.#X#X#X@X].r.@X#X@Xw.r.w.r.$X$X$X@X#X$X$X$Xt.#X#Xr.( ( #X$X].r.].#X@Xw./ ( ( %.r.@X#X#X@X@Xr.@X#Xr.w.&.r.r.$X$X#X@X#X$X$X$X@X#X#Xr.&.&.$X$X#X#Xr.( ",
"/ ( ( ( { ( r.&.&.( ( &.&.&.w.( w.w.%.r.w.r.r.r.r.r.@Xr.w.@Xr.r./ / r.r.( ( &.#X@X( ( ( w.%.w.&.&.%.%.&.&.&.w.w.w.%.&.w.r.r.r.@Xr.r.@X@Xr.r.r.r.( / &.&.&.( ( ( ",
"~ ^ ( ( r.( ( ( ( / ( ( ( ( ( ( w.&.&.%./ / %.r.w.( ( ( w.( ( &./ / ( / ~ / ( ( ( ( ( ( w.%.%./ / / / ( %.( / %.r.%.w.&./ / ( w.&.( ( ( %.( w.w./ / %./ ~ / ~ ~ "
};
